/* XPM */
static char * tree2_xpm[] = {
/* width height ncolors chars_per_pixel */
"18 31 6 1",
/* colors */
" 	s None	c None",
".	c green",
"X	c sea green",
"o	c black",
"O	c firebrick",
"+	c sienna",
/* pixels */
"         .        ",
"         X        ",
"        .X.       ",
"         XXX      ",
"       .X. X      ",
"       X .o       ",
"      .. XOX      ",
"        XOXX      ",
"       XX. Xo     ",
"      .X X+ .     ",
"       .XXX       ",
"      . +XX.      ",
"      XXo+ X      ",
"     .XX.+ XX.    ",
"    .Xo. XX oX    ",
"       XX.X  .    ",
"     .X  oX.      ",
"    XXX.XO oX     ",
"    .   .X  XX    ",
"     .X.+.X+ .    ",
"    XX.X.XOX o.   ",
"   .X XOXX XXX    ",
"      O.X+ oOo.   ",
"    XXo Xo    X   ",
"   XXo  XX     X  ",
"  .     OOO       ",
"        X+o       ",
"        O+X       ",
"      X.+X+o      ",
"   .XXXXXXXXoXo   ",
"X.XXoX.XXoXXX.XoXo"};
