/* XPM */
static char * spintao_8_xpm[] = {
/* width height ncolors chars_per_pixel */
"99 99 4 1",
/* colors */
" 	c None",
".	c white",
"X	c grey50",
"o	c black",
/* pixels */
"                                                                                                   ",
"                                                                                                   ",
"                                                                                                   ",
"                                           .............                                           ",
"                                      .......................                                      ",
"                                   .............................                                   ",
"                                ...................................                                ",
"                              .......................................                              ",
"                            ...........................................                            ",
"                          ...............................................                          ",
"                        ...................................................                        ",
"                       .....................................................                       ",
"                     .........................................................                     ",
"                    ...........................................................                    ",
"                   .............................................................                   ",
"                  ...............................................................                  ",
"                ...................................................................                ",
"                ...................................................................                ",
"               .....................................................................               ",
"              .......................................................................              ",
"             .........................................................................             ",
"            ...........................................................................            ",
"            ...........................................................................            ",
"           .............................................................................           ",
"          ...............................................................................          ",
"          ...............................................................................          ",
"         .................................................................................         ",
"         .................................................................................         ",
"        ...................................................................................        ",
"        ...................................................................................        ",
"       .....................................................................................       ",
"       .....................................................................................       ",
"      .......................................................................................      ",
"      .......................................................................................      ",
"      .................XXXXXXXX..............................................................      ",
"     ...............XXXooooooooXXXX...........................................................     ",
"     .............XXooooooooooooooooX...................................X.....................     ",
"     ...........XXooooooooooooooooooooX...............................XoooX...................     ",
"    ...........XoooooooooooooooooooooooX..............................ooooo....................    ",
"    .........XXooooooooooooooooooooooooooX............................oooooX...................    ",
"    ........XoooooooooooooooooooooooooooooX...........................XoooX....................    ",
"    .......XoooooooooooooooooooooooooooooooX...........................XoXX....................    ",
"    ......Xoooooooooooooooooooooooooooooooooo..................................................    ",
"   ......XoooooooooooooooooooooooooooooooooooX..................................................   ",
"   ......oooooooooooooooooooooooooooooooooooooX.................................................   ",
"   .....XooooooooooooooooooooooooooooooooooooooX...............................................o   ",
"   ....Xoooooooooooooooooooooooooooooooooooooooo...............................................o   ",
"   ....oooooooooooooooooooooooooooooooooooooooooX..............................................o   ",
"   ...XoooooooooooooooooooooooooooooooooooooooooX..............................................o   ",
"   ...XooooooooooooooooooooooooooooooooooooooooooX............................................Xo   ",
"   ..XoooooooooooooooooooooooooooooooooooooooooooX............................................Xo   ",
"   ..XooooooooooooooooooooooooooooooooooooooooooooX..........................................Xoo   ",
"   ..ooooooooooooooooooooooooooooooooooooooooooooooX........................................Xooo   ",
"   .Xooooooooooooooooooooooooooooooooooooooooooooooo........................................Xooo   ",
"   .XoooooooooooooooooooooooooooooooooooooooooooooooX......................................Xoooo   ",
"   .oooooooooooooooooooooooXXXoooooooooooooooooooooooX....................................Xooooo   ",
"    ooooooooooooooooooooooX...XoooooooooooooooooooooooX..................................Xooooo    ",
"    oooooooooooooooooooooX....XooooooooooooooooooooooooX................................Xoooooo    ",
"    oooooooooooooooooooooo.....oooooooooooooooooooooooooX..............................Xooooooo    ",
"    ooooooooooooooooooooooX...XooooooooooooooooooooooooooX............................Xoooooooo    ",
"    oooooooooooooooooooooooXXXoooooooooooooooooooooooooooooX........................XXooooooooo    ",
"     oooooooooooooooooooooooooooooooooooooooooooooooooooooooX.....................XXoooooooooo     ",
"     oooooooooooooooooooooooooooooooooooooooooooooooooooooooooX.................Xooooooooooooo     ",
"     oooooooooooooooooooooooooooooooooooooooooooooooooooooooooooXXX..........XXooooooooooooooo     ",
"      ooooooooooooooooooooooooooooooooooooooooooooooooooooooooooooooXXXXXXXXXoooooooooooooooo      ",
"      ooooooooooooooooooooooooooooooooooooooooooooooooooooooooooooooooooooooooooooooooooooooo      ",
"      ooooooooooooooooooooooooooooooooooooooooooooooooooooooooooooooooooooooooooooooooooooooo      ",
"       ooooooooooooooooooooooooooooooooooooooooooooooooooooooooooooooooooooooooooooooooooooo       ",
"       ooooooooooooooooooooooooooooooooooooooooooooooooooooooooooooooooooooooooooooooooooooo       ",
"        ooooooooooooooooooooooooooooooooooooooooooooooooooooooooooooooooooooooooooooooooooo        ",
"        ooooooooooooooooooooooooooooooooooooooooooooooooooooooooooooooooooooooooooooooooooo        ",
"         ooooooooooooooooooooooooooooooooooooooooooooooooooooooooooooooooooooooooooooooooo         ",
"         ooooooooooooooooooooooooooooooooooooooooooooooooooooooooooooooooooooooooooooooooo         ",
"          ooooooooooooooooooooooooooooooooooooooooooooooooooooooooooooooooooooooooooooooo          ",
"          ooooooooooooooooooooooooooooooooooooooooooooooooooooooooooooooooooooooooooooooo          ",
"           ooooooooooooooooooooooooooooooooooooooooooooooooooooooooooooooooooooooooooooo           ",
"            ooooooooooooooooooooooooooooooooooooooooooooooooooooooooooooooooooooooooooo            ",
"            ooooooooooooooooooooooooooooooooooooooooooooooooooooooooooooooooooooooooooo            ",
"             ooooooooooooooooooooooooooooooooooooooooooooooooooooooooooooooooooooooooo             ",
"              ooooooooooooooooooooooooooooooooooooooooooooooooooooooooooooooooooooooo              ",
"               ooooooooooooooooooooooooooooooooooooooooooooooooooooooooooooooooooooo               ",
"                ooooooooooooooooooooooooooooooooooooooooooooooooooooooooooooooooooo                ",
"                ooooooooooooooooooooooooooooooooooooooooooooooooooooooooooooooooooo                ",
"                  ooooooooooooooooooooooooooooooooooooooooooooooooooooooooooooooo                  ",
"                   ooooooooooooooooooooooooooooooooooooooooooooooooooooooooooooo                   ",
"                    ooooooooooooooooooooooooooooooooooooooooooooooooooooooooooo                    ",
"                     ooooooooooooooooooooooooooooooooooooooooooooooooooooooooo                     ",
"                       ooooooooooooooooooooooooooooooooooooooooooooooooooooo                       ",
"                        ooooooooooooooooooooooooooooooooooooooooooooooooooo                        ",
"                          ooooooooooooooooooooooooooooooooooooooooooooooo                          ",
"                            ooooooooooooooooooooooooooooooooooooooooooo                            ",
"                              ooooooooooooooooooooooooooooooooooooooo                              ",
"                                ooooooooooooooooooooooooooooooooooo                                ",
"                                   ooooooooooooooooooooooooooooo                                   ",
"                                      ooooooooooooooooooooooo                                      ",
"                                           ooooooooooooo                                           ",
"                                                                                                   ",
"                                                                                                   ",
"                                                                                                   "};
