#define link_width 20
#define link_height 20
static unsigned char link_bits[] = {
   0x00, 0x00, 0x00, 0xff, 0xff, 0x07, 0x01, 0x00, 0x0c, 0x01, 0x00, 0x0c,
   0x01, 0x00, 0x0c, 0x01, 0x00, 0x0c, 0xf9, 0x00, 0x0c, 0xfd, 0x01, 0x0c,
   0xfd, 0x23, 0x0c, 0xf9, 0x63, 0x0c, 0xc1, 0xff, 0x0c, 0xc1, 0xff, 0x0d,
   0x81, 0xff, 0x0d, 0x01, 0xff, 0x0c, 0x01, 0x60, 0x0c, 0x01, 0x20, 0x0c,
   0x01, 0x00, 0x0c, 0x01, 0x00, 0x0c, 0xff, 0xff, 0x0f, 0xfe, 0xff, 0x0f};
