/* XPM */
static char *odometer_small_recol_bad_xpm[] = {
/* width height ncolors chars_per_pixel */
"150 20 7 1",
/* colors */
"  c black",
". c lavender",
"X c gainsboro",
"o c grey",
"O c dark slate grey",
"+ c white",
"@ c slate grey",
/* pixels */
"O@@@OOOO     OOO@@@OOOO     OOO@@@OOOO     OOO@@@OOOO     OOO@@@OOOO     OOO@@@OOOO     OOO@@@OOOO     OOO@@@OOOO     OOO@@@OOOO     OOO@@@OOOO     OO",
"@             O@             O@             O@             O@             O@             O@             O@             O@             O@             O",
"@             O@             O@             O@             O@             O@             O@             O@             O@             O@             O",
"O  OOO@@@OOO  OO  OOOOO++OO  OO  OOooo@OOO  OO  OOOOOOOOO  OO  OOOOOOOOO  OO  OOOOOOOOO  OO  OOOOOOOOO  OO  OOOOOOOOO  OO  OOo++X@OO  OO  OOOOOOOOO  O",
"O OO@++++.O   OO OOOOOo++O   OO OO.++++.O   OO OOOo++X@O   OO OOOOO@oo@   OO OO@@@@@@@   OO OOO@X+X@O   OO O@@@@@@@@@  OO OO.+++++@   OO OOOooo@OO   O",
"OOOO++o@X+X   OOOOO@o++++    OOOOX+X@@X+X   OOOOO++++++@   OOOOOOOO.++@   OOOOO++++++o   OOOOOo+++++@   OOOO++++++++o  OOOOo+XOOo+X   OOOOO.++++XO   O",
"OOOo+X  O++O  OOOOO@+++++    OOOO++@  @++O  OOOOo+oOOX+X   OOOOOOOo+++@   OOOOO+X@@@@@   OOOOO++@ @++O  OOOO@@@@@@++@  OOOOo+@  O++   OOOOo+X@O.+@   O",
"OOOo+o   X+@  OOOOO   @++    OOOOooO  O++O  OOOO++O  @++   OOOOO O+o++@   OOOO@+o        OOOOo+o  OOO   OOOOO    o+o   OOOO@+XO o+o   OOOO..O  @+X   O",
"O  .+@   o+o  OO      @++    OO       o++   OO  OOO  o+X   OO    o.O++@   OO  @+@OOO     OO  o+@O@@O    OO      @+.    OO  Oo++++XO   OO O..O  O++   O",
"O  ++@   o+o  OO      @++    OO      @++o   OO     @o+.O   OO   @+@ ++@   OO  @.X...o    OO  ++.+++.@   OO      X.@    OO  OX.....@   OO O..@  @++O  O",
"O  ++@   o+o  OO      @++    OO     o++X    OO     +++XO   OO   XX  ..@   OO  o..oo..o   OO  +++o@X+X   OO     @XX     OO  XXo  @XXO  OO  X.XOOX..O  O",
"O  .+@   o+o  OO      @X.    OO   Oo..o     OO     O@X.X   OO  @.@  ..@   OO  @@O  o..   OO  ..o  O..O  OO     XX@     OO OXXO   XX@  OO  O.......O  O",
"O  o+o   X+@  OO      @XX    OO   XXXO      OO  OO   O..O  OO  o.ooo..o@  OO       OXXO  OO  X.@   ..@  OO    OXX      OO OXXO   XXO  OO   O@o@OXX   O",
"O  @+X   ++O  OO      @XX    OO  oXXO       OO O+.O  O..O  OO  oXXXXXXXo  OO  @@   OXXO  OO  @X@   XXO  OO    @Xo      OO  oXo  @XX   OO       OXX   O",
"O   ++o@X+X   OO      @XX    OO  XXXXXXXXO  OO  XXo  oXX   OO  OOOOOXX@O  OO  XX@  @Xo   OO  OXXO @XX   OO    oX@      OO  OXXXXXX@   OO  oX@  oX@   O",
"O   O++++.O   OO      Ooo    OO OXXXXXXXXO  OO  OXXXXXXO   OO       XX@   OO  @XXooXXO   OO   oXXXXX@   OO    XXO      OO   OoXXoO    OO  @XXooXo    O",
"      @@O     O              O              O    OoXXoO    O        XX@   O    @XXXo@    O     @oXoO    O    OXXO      O              O    @XXXoO    O",
"              O              O              O              O              O      OO      O              O              O              O      OO      O",
"O             OO             OO             OO             OO             OO             OO             OO             OO             OO             O",
"OOOOOOOOOOOOO  OOOOOOOOOOOOO  OOOOOOOOOOOOO  OOOOOOOOOOOOO  OOOOOOOOOOOOO  OOOOOOOOOOOOO  OOOOOOOOOOOOO  OOOOOOOOOOOOO  OOOOOOOOOOOOO  OOOOOOOOOOOOO  "
};
