#define cu_sc_pressed_width 16
#define cu_sc_pressed_height 16
#define cu_sc_pressed_x_hot 7
#define cu_sc_pressed_y_hot 7
static char cu_sc_pressed_bits[] = {
   0x00, 0x00, 0x80, 0x00, 0xc0, 0x01, 0x60, 0x03, 0x30, 0x06, 0x18, 0x0c,
   0x0c, 0x18, 0x06, 0x30, 0x0c, 0x18, 0x18, 0x0c, 0x30, 0x06, 0x60, 0x03,
   0xc0, 0x01, 0x80, 0x00, 0x00, 0x00, 0x00, 0x00};
