#define noname_width 17
#define noname_height 17
static char noname_bits[] = {
 0xc0,0x07,0x00,0x30,0x18,0x00,0x08,0x20,0x00,0x0c,0x60,0x00,0x1e,0xf0,0x00,
 0x3e,0xf8,0x00,0x7f,0xfc,0x01,0xff,0xfe,0x01,0xff,0xff,0x01,0xff,0xfe,0x01,
 0x7f,0xfc,0x01,0x3e,0xf8,0x00,0x1e,0xf0,0x00,0x0c,0x60,0x00,0x08,0x20,0x00,
 0x30,0x18,0x00,0xc0,0x07,0x00};
