#define paint_M_width 16
#define paint_M_height 16
static char paint_M_bits[] = {
 0x03,0x00,0x03,0x00,0x00,0x00,0x00,0x00,0x30,0x00,0x30,0x00,0x00,0x00,0x00,
 0x00,0x00,0x03,0x00,0x03,0x00,0x00,0x00,0x00,0x00,0x30,0x00,0x30,0x00,0x00,
 0x00,0x00};
