#define Tool_16_rounded_filled_width 16
#define Tool_16_rounded_filled_height 16
static unsigned char Tool_16_rounded_filled_bits[] = {
  0x00, 0x00, 0x00, 0x00, 0xf8, 0x0f, 0x54, 0x15, 0xaa, 0x2a, 0x56, 0x35,
  0xaa, 0x2a, 0x56, 0x35, 0xaa, 0x2a, 0x56, 0x35, 0xaa, 0x2a, 0x54, 0x15,
  0xf8, 0x0f, 0x00, 0x00, 0x00, 0x00, 0x00, 0x00, };
