#define noname_width 16
#define noname_height 16
static char noname_bits[] = {
 0x04,0x00,0x10,0x00,0x44,0x05,0x10,0x0e,0x04,0x11,0x80,0x3f,0x80,0x20,0x80,
 0x3c,0x80,0x24,0x80,0x3c,0x80,0x24,0x80,0x3c,0x80,0x3c,0x80,0x20,0x80,0x20,
 0x80,0x3f};
