#define noname_width 16
#define noname_height 16
static char noname_bits[] = {
 0x00,0x00,0x00,0x00,0x00,0x0c,0xe0,0x0f,0x10,0x27,0x88,0x33,0xfc,0x21,0x84,
 0x23,0x0c,0x20,0x38,0x20,0x5c,0x30,0x8c,0x2f,0x02,0x30,0x00,0x30,0x00,0x00,
 0x00,0x00};
