#define lassoOp_width 32
#define lassoOp_height 32
static unsigned char lassoOp_bits[] = {
   0x00, 0x00, 0x00, 0x00, 0x00, 0x00, 0x00, 0x00, 0x00, 0x00, 0x00, 0x00,
   0x00, 0x00, 0x00, 0x00, 0x00, 0x80, 0x0f, 0x00, 0x00, 0x07, 0x00, 0x01,
   0x80, 0x00, 0x00, 0x06, 0x00, 0x00, 0x00, 0x08, 0x10, 0x00, 0x00, 0x00,
   0x08, 0x00, 0x00, 0x00, 0x08, 0x00, 0x00, 0x10, 0x04, 0x00, 0x00, 0x20,
   0x00, 0x00, 0x00, 0x20, 0x00, 0x00, 0x00, 0x20, 0x08, 0x00, 0x00, 0x00,
   0x08, 0x00, 0x00, 0x00, 0x10, 0x00, 0x00, 0x00, 0x00, 0x00, 0x00, 0x20,
   0x00, 0x00, 0x00, 0x20, 0x20, 0x00, 0x00, 0x20, 0x40, 0x00, 0x00, 0x00,
   0x80, 0x00, 0x00, 0x00, 0x00, 0x00, 0x00, 0x08, 0x00, 0x00, 0x00, 0x06,
   0x00, 0x02, 0x60, 0x00, 0x00, 0xf4, 0x19, 0x00, 0x00, 0x03, 0x00, 0x00,
   0x80, 0x00, 0x00, 0x00, 0x60, 0x00, 0x00, 0x00, 0x1e, 0x00, 0x00, 0x00,
   0x09, 0x00, 0x00, 0x00, 0x0d, 0x00, 0x00, 0x00};
