#define Tool_16_box_filled_width 16
#define Tool_16_box_filled_height 16
static char Tool_16_box_filled_bits[] = {
   0x00, 0x00, 0x00, 0x00, 0xfe, 0x3f, 0xaa, 0x2a, 0x56, 0x35, 0xaa, 0x2a,
   0x56, 0x35, 0xaa, 0x2a, 0x56, 0x35, 0xaa, 0x2a, 0x56, 0x35, 0xaa, 0x2a,
   0xfe, 0x3f, 0x00, 0x00, 0x00, 0x00, 0x00, 0x00};
