/* XPM */
static char * tb_make_xpm[] = {
/* width height ncolors cpp [x_hot y_hot] */
"18 18 4 1 0 0",
/* colors */
" 	s none	m none	c none",
".	s iconColor1	m black	c Black",
"X	s iconColor2	m none	c White",
"o	s bottomShadowColor	m black	c SlateGrey",
/* pixels */
"                  ",
"    .. .....      ",
"   .XX.XXXXX.     ",
"   .XXXXXXXXX.    ",
"   .Xo.XXXX..X.   ",
"    .. ....o ..   ",
"        ...   .   ",
"        ...o      ",
"        ...o      ",
"        ...o      ",
"        ...o      ",
"        ...o      ",
"        ...o      ",
"        ...o      ",
"        ...o      ",
"        ...o      ",
"         ooo      ",
"                  "};
