/* XPM */
static char * index_xpm[] = {
/* width height ncolors chars_per_pixel */
"20 22 6 1",
/* colors */
" 	c dark slate grey",
".	s None	c None",
"X	c white",
"o	c black",
"O	c slate grey",
"+	c sky blue",
/* pixels */
"             .......",
" XXXXXXXXXX X ......",
" XXXXXXXXXX XX .....",
" XXXXXXXXXX XXX ....",
" XXXXXXXXXX XXXX ...",
" XXXXXXXXXXo o o o..",
" XXXXXXXXXXooooooo..",
" XXXXXOOOOXXXOOOOo..",
" XXXO oooo OXXOOOo..",
" XXOo O++O oOXXXOo..",
" XX  ++++++  XXXOo..",
" XOoO+XX+++Oo o oooo",
" XOo++X+++++o      o",
" XOo++++++++oOOOOOOo",
" XOoO++++++Ooooooooo",
" XX  ++++++  XXXOo..",
" XXOo O++O oOXXXOo..",
" XXXO oooo OXXXXOo..",
" XXXXXOOOOXXXXXXOo..",
" XXXXXXXXXXXXXXXOo..",
"  OOOOOOOOOOOOOO o..",
"..oooooooooooooooo.."};
