/* XPM */
static char * tar_xpm[] = {
/* width height ncolors chars_per_pixel */
"20 22 5 1",
/* colors */
" 	c dark slate grey",
".	s None	c None",
"X	c white",
"o	c black",
"O	c slate grey",
/* pixels */
"             .......",
" XXXXXXXXXX X ......",
" XXXXXXooXX XX .....",
" XoooooooXX XXX ....",
" XoooooooXX XXXX ...",
" XXXXXXooXXo o o o..",
" XXXXXXXXXXooooooo..",
" XooooooXXXXXOOOOo..",
" XoooooooXXXXXOOOo..",
" XXXooXooXXXXXXXOo..",
" XoooooooXXXXXXXOo..",
" XooooooXXXXXXXXOo..",
" XXXXXXXXXXXXXXXOo..",
" XoooooooXXXXXXXOo..",
" XoooooooXXXXXXXOo..",
" XXXooXooXXXXXXXOo..",
" XoooooooXXXXXXXOo..",
" XooXoooXXXXXXXXOo..",
" XXXXXXXXXXXXXXXOo..",
" XXXXXXXXXXXXXXXOo..",
"  OOOOOOOOOOOOOO o..",
"..oooooooooooooooo.."};
