/* XPM */
static char * timer_4_xpm[] = {
/* width height ncolors chars_per_pixel */
"20 22 3 1",
/* colors */
" 	s None	c None",
".	c black",
"X	c white",
/* pixels */
"                    ",
"                    ",
"                    ",
"                    ",
"                    ",
"       .....        ",
"     ..XX.....      ",
"    .XXXX......     ",
"   .XXXXX.......    ",
"  .XXXXXX........   ",
"  .XXXXXX........   ",
" .XXXXXXX.........  ",
" .XXXXXXX.........  ",
" .XXXXXXX.........  ",
" .XXXXXXX.........  ",
" .XXXXXXX.........  ",
"  .XXXXXX........   ",
"  .XXXXXX........   ",
"   .XXXXX.......    ",
"    .XXXX......     ",
"     ..XX.....      ",
"       .....        "};
