/* XPM */
static char *bs_recol_xpm[] = {
/* width height ncolors chars_per_pixel */
"48 48 4 1",
/* colors */
"  c black",
". c yellow",
"X c None",
"o c blue",
/* pixels */
"XXXXX    XXXXXXX XXXXXXXXXXXXXXXXXXXXXXXXXXXXXXX",
"XXXXX XXX XXXXXX XXXXXXXXXXXXXXXXXXXXXXXXXXXXXXX",
"XXXXX XXX X   XX X  XX   XX   X  XX   XXX  XXXXX",
"XXXXX    XXXXX X  XX XXXX X XX XX XXXX X XX XXXX",
"XXXXX XXX XX   X XXX XX   X XX XX XX   XX  XXXXX",
"XXXXX XXX X XX X XXX X XX X XX XX X XX XXXX XXXX",
"XXXXX XXX X XX X XXX X XX X XX XX X XX X XX XXXX",
"XXXXX    XXX  X  XXX XX  X  XX XX XX  X X  XXXXX",
"XXXXXXXXXXXXXXXXXXXXXXXXXXXXXXXXXXXXXXXXXXXXXXXX",
"XXXXXXXXXXXXXXXXXXXXXXXXXXXXXXXXXXXXXXXXXXXXXXXX",
"XXXXXXXXXXXXXXXXXXXXXXXXXXXXXXXXXXXXXXXXXXXXXXXX",
"XXXXXXXXXXXXXXXXXXXXXXXXXXXXXXXXXXXXXXXXXXXXXXXX",
"X                                               ",
"X  oooooooooooooooooooooooooooooooooooooooooooo ",
"X    oooooooooooooooooooooooooooooooooooooooooo ",
"X     ooooooooooooooooooooooooooooooooooooooooo ",
"X      oooooooooooooooooooooooooooooooooooooooo ",
"X        oooooooooooooooooooooooooooooooooooooo ",
"X         ooooooooooooooooooooooooooooooooooooo ",
"X           ooooooooooooooooooooooooooooooooooo ",
"X            oooooooooooooooooooooooooooooooooo ",
"X             ooooooooooooooooooooooooooooooooo ",
"X               ooooooooooooooooooooooooooooooo ",
"X                .............................. ",
"X                  ............................ ",
"X                   ........................... ",
"X                    .......................... ",
"X                      ........................ ",
"X                       ....................... ",
"X                      ........................ ",
"X                    .......................... ",
"X                   ........................... ",
"X                  ............................ ",
"X                .............................. ",
"X               ooooooooooooooooooooooooooooooo ",
"X             ooooooooooooooooooooooooooooooooo ",
"X            oooooooooooooooooooooooooooooooooo ",
"X           ooooooooooooooooooooooooooooooooooo ",
"X         ooooooooooooooooooooooooooooooooooooo ",
"X        oooooooooooooooooooooooooooooooooooooo ",
"X      oooooooooooooooooooooooooooooooooooooooo ",
"X     ooooooooooooooooooooooooooooooooooooooooo ",
"X    oooooooooooooooooooooooooooooooooooooooooo ",
"X  oooooooooooooooooooooooooooooooooooooooooooo ",
"X                                               ",
"XXXXXXXXXXXXXXXXXXXXXXXXXXXXXXXXXXXXXXXXXXXXXXXX",
"XXXXXXXXXXXXXXXXXXXXXXXXXXXXXXXXXXXXXXXXXXXXXXXX",
"XXXXXXXXXXXXXXXXXXXXXXXXXXXXXXXXXXXXXXXXXXXXXXXX"
};
