/* XPM */
static char *in_recol_xpm[] = {
/* width height ncolors chars_per_pixel */
"48 48 6 1",
/* colors */
"  c black",
". c LimeGreen",
"X c NavyBlue",
"o c white",
"O c orange",
"+ c None",
/* pixels */
"++++++++++++++ +++++++++++ + +++++++++++++++++++",
"++++++++++++++ +++++++++++ +++++++++++++++++++++",
"++++++++++++++ + +  +++  + + +   +++++++++++++++",
"++++++++++++++ +  ++ + ++  + ++++ ++++++++++++++",
"++++++++++++++ + +++ + +++ + ++   ++++++++++++++",
"++++++++++++++ + +++ + +++ + + ++ ++++++++++++++",
"++++++++++++++ + +++ + ++  + + ++ ++++++++++++++",
"++++++++++++++ + +++ ++  + + ++  + +++++++++++++",
"++++++++++++++++++++++++++++++++++++++++++++++++",
"++++++++++++++++++++++++++++++++++++++++++++++++",
"++++++++++++++++++++++++++++++++++++++++++++++++",
"++++++++++++++++++++++++++++++++++++++++++++++++",
"+                                               ",
"+ OOOOOOOOOOOOOOOOOOOOOOOOOOOOOOOOOOOOOOOOOOOOO ",
"+ OOOOOOOOOOOOOOOOOOOOOOOOOOOOOOOOOOOOOOOOOOOOO ",
"+ OOOOOOOOOOOOOOOOOOOOOOOOOOOOOOOOOOOOOOOOOOOOO ",
"+ OOOOOOOOOOOOOOOOOOOOOOOOOOOOOOOOOOOOOOOOOOOOO ",
"+ OOOOOOOOOOOOOOOOOOOOOOOOOOOOOOOOOOOOOOOOOOOOO ",
"+ OOOOOOOOOOOOOOOOOOOOOOOOOOOOOOOOOOOOOOOOOOOOO ",
"+ OOOOOOOOOOOOOOOOOOOOOOOOOOOOOOOOOOOOOOOOOOOOO ",
"+ OOOOOOOOOOOOOOOOOOOOOOOOOOOOOOOOOOOOOOOOOOOOO ",
"+ OOOOOOOOOOOOOOOOOOOOOOOOOOOOOOOOOOOOOOOOOOOOO ",
"+ OOOOOOOOOOOOOOOOOOOOXXXXXOOOOOOOOOOOOOOOOOOOO ",
"+ oooooooooooooooooooXXoXoXXooooooooooooooooooo ",
"+ ooooooooooooooooooXXoXoXoXXoooooooooooooooooo ",
"+ oooooooooooooooooXXoXoXoXoXXooooooooooooooooo ",
"+ oooooooooooooooooXoXoXXXoXoXooooooooooooooooo ",
"+ oooooooooooooooooXXoXXXXXoXXooooooooooooooooo ",
"+ oooooooooooooooooXoXoXXXoXoXooooooooooooooooo ",
"+ oooooooooooooooooXXoXoXoXoXXooooooooooooooooo ",
"+ ooooooooooooooooooXXoXoXoXXoooooooooooooooooo ",
"+ oooooooooooooooooooXXoXoXXooooooooooooooooooo ",
"+ ooooooooooooooooooooXXXXXoooooooooooooooooooo ",
"+ ............................................. ",
"+ ............................................. ",
"+ ............................................. ",
"+ ............................................. ",
"+ ............................................. ",
"+ ............................................. ",
"+ ............................................. ",
"+ ............................................. ",
"+ ............................................. ",
"+ ............................................. ",
"+                                               ",
"++++++++++++++++++++++++++++++++++++++++++++++++",
"++++++++++++++++++++++++++++++++++++++++++++++++",
"++++++++++++++++++++++++++++++++++++++++++++++++",
"++++++++++++++++++++++++++++++++++++++++++++++++"
};
