/* XPM */
static char *nr_recol_xpm[] = {
/* width height ncolors chars_per_pixel */
"48 48 5 1",
/* colors */
"  c black",
". c NavyBlue",
"X c white",
"o c yellow",
"O c None",
/* pixels */
"OOOOOOOOOOO  OOO OOOOOOOOOOOOOOOOOOOOOOOOOOOOOOO",
"OOOOOOOOOOO  OOO OOOOOOOOOOOOOOOOOOOOOOOOOOOOOOO",
"OOOOOOOOOOO O OO O   OO OO O O O OO OOOOOOOOOOOO",
"OOOOOOOOOOO O OO OOOO O OO O  OO OO OOOOOOOOOOOO",
"OOOOOOOOOOO OO O OO   O OO O OOO OO OOOOOOOOOOOO",
"OOOOOOOOOOO OO O O OO O OO O OOO OO OOOOOOOOOOOO",
"OOOOOOOOOOO OOO  O OO O OO O OOO OO OOOOOOOOOOOO",
"OOOOOOOOOOO OOO  OO  O O   O OOOO   OOOOOOOOOOOO",
"OOOOOOOOOOOOOOOOOOOOOOOOOOOOOOOOOOOOOOOOOOOOOOOO",
"OOOOOOOOOOOOOOOOOOOOOOOOOOOOOOOOOOOOOOOOOOOOOOOO",
"OOOOOOOOOOOOOOOOOOOOOOOOOOOOOOOOOOOOOOOOOOOOOOOO",
"OOOOOOOOOOOOOOOOOOOOOOOOOOOOOOOOOOOOOOOOOOOOOOOO",
"                                                ",
" .............................................. ",
" .............................................. ",
" .............................................. ",
" .............................................. ",
" .............................................. ",
" .............................................. ",
" .............................................. ",
" .............................................. ",
" .............................................. ",
" .............................................. ",
" .............................................. ",
" .............................................. ",
" .............................................. ",
" oooooooooooooooooooooooooooooooooooooooooooooo ",
" oooooooooooooooooooooooooooooooooooooooooooooo ",
" oooooooooooooooooooooooooooooooooooooooooooooo ",
" oooooooooooooooooooooooooooooooooooooooooooooo ",
" .............................................. ",
" .........X.................................... ",
" .......X.X.X.................................. ",
" ......XXXXXXX................................. ",
" .......XXXXX.................................. ",
" .....XXXXXXXXX................................ ",
" .......XXXXX.................................. ",
" ......XXXXXXX................................. ",
" .......X.X.X.................................. ",
" .........X.................................... ",
" .............................................. ",
" .............................................. ",
" .............................................. ",
"                                                ",
"OOOOOOOOOOOOOOOOOOOOOOOOOOOOOOOOOOOOOOOOOOOOOOOO",
"OOOOOOOOOOOOOOOOOOOOOOOOOOOOOOOOOOOOOOOOOOOOOOOO",
"OOOOOOOOOOOOOOOOOOOOOOOOOOOOOOOOOOOOOOOOOOOOOOOO",
"OOOOOOOOOOOOOOOOOOOOOOOOOOOOOOOOOOOOOOOOOOOOOOOO"
};
