/* XPM */
static char *th_recol_xpm[] = {
/* width height ncolors chars_per_pixel */
"48 48 5 1",
/* colors */
"  c black",
". c red",
"X c white",
"o c None",
"O c blue",
/* pixels */
"oooooo      oooooooooo o oooooooooooooooo oooooo",
"oooooooo oo oooooooooooo oooooooooooooooo oooooo",
"oooooooo oo o  oo   oo o o   oo o  ooo  o oooooo",
"oooooooo oo  oo oooo o o oooo o  oo o oo  oooooo",
"oooooooo oo ooo oo   o o oo   o ooo o ooo oooooo",
"oooooooo oo ooo o oo o o o oo o ooo o ooo oooooo",
"oooooooo oo ooo o oo o o o oo o ooo o oo  oooooo",
"oooooooo oo ooo oo  o  o oo  o  ooo oo  o oooooo",
"oooooooooooooooooooooooooooooooooooooooooooooooo",
"oooooooooooooooooooooooooooooooooooooooooooooooo",
"oooooooooooooooooooooooooooooooooooooooooooooooo",
"oooooooooooooooooooooooooooooooooooooooooooooooo",
"                                                ",
" .............................................. ",
" .............................................. ",
" .............................................. ",
" .............................................. ",
" .............................................. ",
" XXXXXXXXXXXXXXXXXXXXXXXXXXXXXXXXXXXXXXXXXXXXXX ",
" XXXXXXXXXXXXXXXXXXXXXXXXXXXXXXXXXXXXXXXXXXXXXX ",
" XXXXXXXXXXXXXXXXXXXXXXXXXXXXXXXXXXXXXXXXXXXXXX ",
" XXXXXXXXXXXXXXXXXXXXXXXXXXXXXXXXXXXXXXXXXXXXXX ",
" XXXXXXXXXXXXXXXXXXXXXXXXXXXXXXXXXXXXXXXXXXXXXX ",
" OOOOOOOOOOOOOOOOOOOOOOOOOOOOOOOOOOOOOOOOOOOOOO ",
" OOOOOOOOOOOOOOOOOOOOOOOOOOOOOOOOOOOOOOOOOOOOOO ",
" OOOOOOOOOOOOOOOOOOOOOOOOOOOOOOOOOOOOOOOOOOOOOO ",
" OOOOOOOOOOOOOOOOOOOOOOOOOOOOOOOOOOOOOOOOOOOOOO ",
" OOOOOOOOOOOOOOOOOOOOOOOOOOOOOOOOOOOOOOOOOOOOOO ",
" OOOOOOOOOOOOOOOOOOOOOOOOOOOOOOOOOOOOOOOOOOOOOO ",
" OOOOOOOOOOOOOOOOOOOOOOOOOOOOOOOOOOOOOOOOOOOOOO ",
" OOOOOOOOOOOOOOOOOOOOOOOOOOOOOOOOOOOOOOOOOOOOOO ",
" OOOOOOOOOOOOOOOOOOOOOOOOOOOOOOOOOOOOOOOOOOOOOO ",
" OOOOOOOOOOOOOOOOOOOOOOOOOOOOOOOOOOOOOOOOOOOOOO ",
" XXXXXXXXXXXXXXXXXXXXXXXXXXXXXXXXXXXXXXXXXXXXXX ",
" XXXXXXXXXXXXXXXXXXXXXXXXXXXXXXXXXXXXXXXXXXXXXX ",
" XXXXXXXXXXXXXXXXXXXXXXXXXXXXXXXXXXXXXXXXXXXXXX ",
" XXXXXXXXXXXXXXXXXXXXXXXXXXXXXXXXXXXXXXXXXXXXXX ",
" XXXXXXXXXXXXXXXXXXXXXXXXXXXXXXXXXXXXXXXXXXXXXX ",
" .............................................. ",
" .............................................. ",
" .............................................. ",
" .............................................. ",
" .............................................. ",
"                                                ",
"oooooooooooooooooooooooooooooooooooooooooooooooo",
"oooooooooooooooooooooooooooooooooooooooooooooooo",
"oooooooooooooooooooooooooooooooooooooooooooooooo",
"oooooooooooooooooooooooooooooooooooooooooooooooo"
};
