/* XPM */
static char *afraid_xpm[] = {
"32 32 7 1",
" 	c lavender",
".	c grey",
"X	c slate grey",
"o	c white",
"O	c dark slate grey",
"+	c gainsboro",
"@	c black",
" .XXXXXXXXXXXXXXXXXXXXXXXXXXXXX.",
". ..............................",
"X. o                         ..X",
"X.oooooooooooooooooooooooo  ..XO",
"X. oo........................XOO",
"X. o....+O@+..........@O....XXOO",
"X. o....O+.............@@....XXO",
"X. o...+@@@@@@+..+@@@@@@@O...XXO",
"X. o...+@ooooX@++@oooo+X@....XXO",
"X. o...@+oooo+X@@+oooo++@....XXO",
"X. o..@@ooooo+.@@oooooo+@@...XXO",
"X. o..@+oo@@o+.X@oo@@oo+X@...XXO",
"X. o..@+oo@@o..X@oo@@o+.X@...XXO",
"X. o..@@+oo++.X@@++oo+..@@...XXO",
"X. o...@X++..XO@@X.++..X@....XXO",
"X. o...+@@XXO@@++@@@XX@@@....XXO",
"X. o.........................XXO",
"X. o....+@@@@@@@@@@@@@@@@....XXO",
"X. o..@@@oooOoooOoooOooo@@+..XXO",
"X. o.@@oOo..O+..Oo+.Oo..Oo@+.XXO",
"X. o.@OoOOOOOOOOOOOOOOOXO.O@.XXO",
"X. o.@OOOoo+OoooOoooOoOOOXO@.XXO",
"X. o.@OoOo++O++.Oo+.Oo+oOOO@.XXO",
"X. o.@OoOo..O+.@@@@XOo..O+O@.XXO",
"X. o.@OoOo.X@@@+..+@@@..O+O@.XXO",
"X. o..@@Oo.@@+.......+@XO@@+.XXO",
"X.  ...+@@@+..........+@@+.+XXXO",
"X.  .....................++.XXOO",
"X. ..X....................XXOXOO",
"X...XXXXXXXXXXXXXXXXXXXXXXXXXOOO",
"X..XOOXXXXXXXXXXXXXXXXXXXXXOOOOO",
"..XOOOOOOOOOOOOOOOOOOOOOOOOOOOOO"};
