/* XPM */
static char *next_xpm[] = {
"32 32 6 1",
" 	c lavender",
".	c grey",
"X	c slate grey",
"o	c white",
"O	c dark slate grey",
"+	c sea green",
" .XXXXXXXXXXXXXXXXXXXXXXXXXXXXX.",
". ..............................",
"X. o                         ..X",
"X.oooooooooooooooooooooooo  ..XO",
"X. oo........................XOO",
"X. o........................XXOO",
"X. o.........................XXO",
"X. o.........................XXO",
"X. o...+++++++...............XXO",
"X. o...+++++++...............XXO",
"X. o...+++++++...............XXO",
"X. o...+++++++...............XXO",
"X. o...+++++++.....+.........XXO",
"X. o...+++++++.....++........XXO",
"X. o...+++++++.....+++.......XXO",
"X. o...++++++++++++++++......XXO",
"X. o...+++++++++++++++++.....XXO",
"X. o...++++++++++++++++++....XXO",
"X. o...+++++++++++++++++++...XXO",
"X. o...++++++++++++++++++....XXO",
"X. o...+++++++++++++++++.....XXO",
"X. o...++++++++++++++++......XXO",
"X. o...............+++.......XXO",
"X. o...............++........XXO",
"X. o...............+.........XXO",
"X. o.........................XXO",
"X.  ........................XXXO",
"X.  ........................XXOO",
"X. ..X....................XXOXOO",
"X...XXXXXXXXXXXXXXXXXXXXXXXXXOOO",
"X..XOOXXXXXXXXXXXXXXXXXXXXXOOOOO",
"..XOOOOOOOOOOOOOOOOOOOOOOOOOOOOO"};
