/* XPM */
static char * trash_xpm[] = {
/* width height ncolors chars_per_pixel */
"32 32 7 1",
/* colors */
" 	c lavender",
".	c grey",
"X	c slate grey",
"o	c white",
"O	c dark slate grey",
"+	c violet",
"@	c sky blue",
/* pixels */
" .XXXXXXXXXXXXXXXXXXXXXXXXXXXXX.",
". ..............................",
"X. o                         ..X",
"X.oooooooooooooooooooooooo  ..XO",
"X. o...........OOO...........XOO",
"X. o.........OOO+O..........XXOO",
"X. o....OOOOOO+++O...........XXO",
"X. o...OO@@O+++OOO...........XXO",
"X. o..OO@OO+++OO@OO..........XXO",
"X. o..O@OO++OOO@ @OO.........XXO",
"X. o..OOO++OO@@OO@@OO........XXO",
"X. o.OOO++OO@@@@OO@@O........XXO",
"X. oOO+++OO@O @@@O@ OO.......XXO",
"X. oO++OOO@@OO@ @OO@@OO......XXO",
"X. OO+OO@@ @@@O@@@OO@@OO.....XXO",
"X. OOOO@ OO@@ OO@@ OO @OO....XXO",
"X. o.OOO@ OO @@OO@@@O@ @OO...XXO",
"X. o..OOO@@OO@@@OO@@@OO@@OO..XXO",
"X. o....OO@@@O@@@OO@@@OO@@OO.XXO",
"X. o....OOO@ OO@ @O @ @OO@OO.XXO",
"X. o.....OOO@@O@@@@O@@ @OO@OOXXO",
"X. o......OO@@ OO@ @O@@@@@@OOXXO",
"X. o.......OO@@@O@@@OO@@@ OO.XXO",
"X. o.......OO @@OO@ @OO@@OOO.XXO",
"X. o........OO@ @O@@@@@@OOO..XXO",
"X. o.........OO@@@OO@@OOO....XXO",
"X.  ..........OOO@@@@OOO....XXXO",
"X.  ...........OO@@@OO.....XXXOO",
"X. ..X..........OO@OO.....XXOXOO",
"X...XXXXXXXXXXXXXOOOXXXXXXXXXOOO",
"X..XOOXXXXXXXXXXXXXXXXXXXXXOOOOO",
"..XOOOOOOOOOOOOOOOOOOOOOOOOOOOOO"};
