/* XPM */
static char *biplane_c_xpm[] = {
/* width height ncolors chars_per_pixel */
"20 20 6 1",
/* colors */
"  c green",
". c sienna",
"X c dark slate grey",
"o c sea green",
"O c white",
"+ c None",
/* pixels */
"++++++++++++++++++++",
"++++++++++++++++++++",
"++++++  ++++++++++++",
"+++++    +++++++++++",
"+++++    +++++++++++",
"+++++    +++++Xoo+++",
"+++++    .++++XooX++",
"+++++    +.+++oooX++",
"+O+oX    Xoooooooo++",
"+O+ o    +  oooooo++",
"+O+ o    ++  o    ++",
"+O+ o    +  ooXXXX++",
"+O+oX    XooooXXXo++",
"+++++    +.+++XXoX++",
"+++++    .++++XooX++",
"+++++    +++++Xoo+++",
"+++++    +++++++++++",
"+++++    +++++++++++",
"++++++  ++++++++++++",
"++++++++++++++++++++"
};
