/* XPM */
static char *bird_of_prey_d_xpm[] = {
/* width height ncolors chars_per_pixel */
"20 20 6 1",
/* colors */
"  c peru",
". c sienna",
"X c dark slate grey",
"o c yellow",
"O c gold",
"+ c None",
/* pixels */
"++++++++++++++++++++",
"+++++++++X++++++++++",
"+++++++++. .++++++++",
"+++++++++X.X..X+++++",
"++++++++++X+ X.+++++",
"+++X+++++++X. X+++++",
"+.. ..X+++++. ..++++",
"++++  .++++++....+++",
"++++. .X.+++. ..++++",
".. +. X X.++. XX.+++",
"++X  .X X .X.XX..X++",
"++..X.X. .++. XoX+++",
"++++++++.X.  X+Oo+++",
"++++++++++.. X+Oo+++",
"+++++++++.XX.XOo++++",
"+++++++++. XXoOo++++",
"+++++X++.  ...XX++++",
"++XX.X+. ....+++++++",
"+++. . X...+++++++++",
"++++++..XX++++++++++"
};
