/* XPM */
static char *buzzbee_e_xpm[] = {
/* width height ncolors chars_per_pixel */
"16 16 10 1",
/* colors */
"  c black",
". c cyan",
"X c dodger blue",
"o c firebrick",
"O c grey",
"+ c red",
"@ c white",
"# c slate grey",
"$ c None",
"% c blue",
/* pixels */
"$$$$$$$$$$$$$$$$",
"$$$$$$$$$$$$$$$$",
"$$$$$$$$$O$$$$$$",
"$$$$$$$OO$O$$$$$",
"$$@#$$$$$@@$$$$$",
"$$@@@O$$$@@++$$$",
"$#@@@OO#@@o$OO$$",
"$$$O@  O##o$$$$$",
"$$$OO   Oo$$$O$$",
"O$$$O  @O$$$$O$$",
"$$$@# O@@@#%$$$$",
"O$@##oO@@.X%$$$$",
"$O@@oo$$#.XX$$$$",
"$O@+$$$%X%%%$$$$",
"$@+$$$$$$$$$$$$$",
"$$$OOO$O$$$$$$$$"
};
