/* XPM */
static char *cradle_9_xpm[] = {
/* width height ncolors chars_per_pixel */
"20 20 7 1",
/* colors */
"  c dodger blue",
". c firebrick",
"X c red",
"o c yellow",
"O c orange",
"+ c None",
"@ c blue",
/* pixels */
"++++++++++++++++++++",
"++++++++++++++++++++",
"++++++++++@@@+++++++",
"++++++++++@  @++++++",
"+++++++++++ O @+++++",
"++++++++++OOo @+++++",
"++++++++++OoOO++++++",
"+++++++++OoO++++++++",
"+++++++++OoO++++++++",
"++++++O+OooO++++++++",
"++++OOooOooo++++++++",
"++.OooOOO+OoO+++++++",
"..X.O..++OOO++++++++",
"+X.+..XXo+.oO+++++++",
"+.+++..XoXXOoO++++++",
"++++++.O.X..Oo++++++",
"++++++.O..+...O.++++",
"+++++++++++.XX.+++++",
"++++++++++++..++++++",
"++++++++++++++++++++"
};
