/* XPM */
static char *mushroom_1_xpm[] = {
/* width height ncolors chars_per_pixel */
"20 20 7 1",
/* colors */
"  c black",
". c firebrick",
"X c dark slate grey",
"o c red",
"O c yellow",
"+ c gold",
"@ c None",
/* pixels */
"@@@@@@@@@@@.@@@@@@@@",
"@@@@@@@@@@.o..@@@@@@",
"@@@@@@@@.oooo.@@@@@@",
"@@@@@@@@.ooooo.@@@@@",
"@@@@@..o.oooooo.@@@@",
"@@@@.ooooo   oo.@@@@",
"@@@.ooooo   ooo.@@@@",
"@@@..ooooo  oo.@@@@@",
"@@@@...oooooooo@@@@@",
"@@@@X.....ooooo.@@@@",
"@@@@.XX.....oooo.@@@",
"@@@@...XXX.....oo.@@",
"@@.ooo...XX..@..@@@@",
"@.ooooooo..XX@@@@@@@",
"@@OOooooooo..@@@@@@@",
"@@@@OOoooooo.@@@@@@@",
"@@@@++OOOoooo.@@@@@@",
"@@@@@+++OOo.@@@@@@@@",
"@@@@@@@@+@O@@@@@@@@@",
"@@@@@@@@@@@@@@@@@@@@"
};
