/* XPM */
static char *tank_blue_5_xpm[] = {
/* width height ncolors chars_per_pixel */
"20 20 7 1",
/* colors */
"  c black",
". c grey",
"X c navy blue",
"o c white",
"O c slate grey",
"+ c None",
"@ c blue",
/* pixels */
"++++++++++++++++++++",
"++++++++++++++++++++",
"++++++++++++++++++++",
"++++  +  +++++++++++",
"+++++oo..   ++++++++",
"++++ OOo...   ++++++",
"+++++ OOooo...   +++",
"++++ O@@@OOooo... ++",
"+++ O@XXX@OOOooo. ++",
"+++ O@XX@@@@@OOOoo +",
"++++ OXXX@o  @@ O ++",
"+  OO@@@@  o    ++++",
"++oooOOO@@@ ooo  +++",
"++ ..oooOOO@@  oo ++",
"++  ...oooOOO   ++++",
"++++   ...oooO +++++",
"+++++++   ...oo ++++",
"+++++++++   . + ++++",
"++++++++++++ +++++++",
"++++++++++++++++++++"
};
