/* XPM */
static char *tank_blue_2_xpm[] = {
/* width height ncolors chars_per_pixel */
"20 20 7 1",
/* colors */
"  c black",
". c grey",
"X c navy blue",
"o c white",
"O c slate grey",
"+ c None",
"@ c blue",
/* pixels */
"+++++++++++++ ++++++",
"+++++++++   o+++++++",
"+++++++++ ..o ++++++",
"+++++++ ..oOO+  ++++",
"+++++++ .ooO   o++++",
"++++++  .oO@@ oo +++",
"++++  .ooO@  o  +  +",
"+++  ..oOO@ o    Oo+",
"++ ..oOO@@ o @@Ooo +",
"+++.ooO@@X@o @OOo.. ",
"++ oOO@XX@@@@Oo.. ++",
"++ oO @XXXX@OOo.  ++",
"++++ +O@@X@OOoo. +++",
"+++++ OOO@Ooo.  ++++",
"++++++   Ooo.. +++++",
"++++++++Oo.. +++++++",
"++++++++ o.  +++++++",
"++++++++ +  ++++++++",
"++++++++++++++++++++",
"++++++++++++++++++++"
};
