/* XPM */
static char *tank_blue_4_xpm[] = {
/* width height ncolors chars_per_pixel */
"20 20 7 1",
/* colors */
"  c black",
". c grey",
"X c navy blue",
"o c white",
"O c slate grey",
"+ c None",
"@ c blue",
/* pixels */
"++++++++++++++++++++",
"++++++++++++++++++++",
"++++++++++++++++++++",
"++++++++++++++++++++",
"+++++            +++",
"++++ ............ ++",
"+++ oooooooooooooo +",
"++++ OOOOOOOOOOOO ++",
"+++++ O@@@@@@@@  +++",
"++++ O@XXX@       ++",
"++++ O@XX@@ooooooo +",
"++++ O@XXX@       ++",
"+++++ O@@@@@@@@  +++",
"++++ OOOOOOOOOOOO ++",
"+++ oooooooooooooo +",
"++++ ............ ++",
"+++++            +++",
"++++++++++++++++++++",
"++++++++++++++++++++",
"++++++++++++++++++++"
};
