/* XPM */
static char *tank_blue_a_xpm[] = {
/* width height ncolors chars_per_pixel */
"20 20 7 1",
/* colors */
"  c black",
". c grey",
"X c navy blue",
"o c white",
"O c slate grey",
"+ c None",
"@ c blue",
/* pixels */
"++++++++++++++++++++",
"+++++++++ ++ +++++++",
"+++++++++ . o+++++++",
"+++++++ ..oO +++++++",
"+++++++ .ooO + +++++",
"++++++  .oO@OOO ++++",
"++++  .ooO@X@@O ++++",
"+++  ..oOO@XXX@ +  +",
"++ ..oOO@@XXX@OOoo++",
"++ .ooO@@ @@X@OOo. +",
"+ .oO@@ oo@@@Oo.. ++",
"++ooO   o  @OOo.  ++",
"++  O  o  @OOoo. +++",
"++++  o @@Ooo.  ++++",
"+++++oo  Ooo.. +++++",
"++++  + Oo.. +++++++",
"+++++++ Oo.  +++++++",
"++++++++o . ++++++++",
"+++++++ ++ +++++++++",
"++++++++++++++++++++"
};
