#define oriview_6_width 16
#define oriview_6_height 16
static char oriview_6_bits[] = {
   0xe0, 0x01, 0x80, 0x03, 0x08, 0x07, 0x1c, 0x06, 0x38, 0x06, 0x70, 0x07,
   0xe1, 0x07, 0xc3, 0x03, 0xe7, 0x07, 0xfe, 0x07, 0xfc, 0x1e, 0x00, 0x3c,
   0x00, 0x3c, 0x00, 0x18, 0x00, 0x00, 0x00, 0x00};
