#define kliview_10_width 16
#define kliview_10_height 16
static char kliview_10_bits[] = {
   0x80, 0x01, 0x40, 0x00, 0xe0, 0x00, 0xf0, 0x00, 0xc8, 0x01, 0x80, 0x07,
   0x00, 0x07, 0x80, 0x8f, 0xc0, 0xbd, 0xe0, 0x78, 0x7c, 0x30, 0x3c, 0x10,
   0x3c, 0x08, 0x38, 0x00, 0x00, 0x00, 0x00, 0x00};
