#define oriview_10_width 16
#define oriview_10_height 16
static char oriview_10_bits[] = {
   0x80, 0x07, 0xc0, 0x01, 0xe0, 0x10, 0x60, 0x38, 0x60, 0x1c, 0xe0, 0x8e,
   0xe0, 0x87, 0xe0, 0xc3, 0xc0, 0xe7, 0xe0, 0x7f, 0xf8, 0x3e, 0x3c, 0x00,
   0x3c, 0x00, 0x18, 0x00, 0x00, 0x00, 0x00, 0x00};
