#define romview_3_width 16
#define romview_3_height 16
static char romview_3_bits[] = {
   0x00, 0x03, 0xe0, 0x00, 0x38, 0x00, 0xfe, 0x01, 0xf8, 0x0f, 0xe0, 0x0f,
   0xe0, 0x1f, 0xc0, 0x1f, 0xc0, 0x1f, 0xc0, 0x0f, 0x80, 0x0f, 0x80, 0x0f,
   0x00, 0x63, 0x80, 0x1f, 0x80, 0x07, 0xc0, 0x00};
