#define romview_12_width 16
#define romview_12_height 16
static char romview_12_bits[] = {
   0x00, 0x00, 0xf8, 0x1f, 0x00, 0x07, 0xc0, 0x07, 0xe0, 0x03, 0xf0, 0x03,
   0xf8, 0x03, 0xf8, 0x03, 0xf8, 0x03, 0xf8, 0x03, 0xf0, 0x03, 0xe0, 0x03,
   0xc0, 0x07, 0x00, 0x07, 0xf8, 0x1f, 0x00, 0x00};
