#define kliview_12_width 16
#define kliview_12_height 16
static char kliview_12_bits[] = {
   0x00, 0x00, 0x00, 0x00, 0x80, 0xff, 0x00, 0x0e, 0x00, 0x06, 0x04, 0x06,
   0x0e, 0x06, 0xff, 0x0f, 0xff, 0x0f, 0x0e, 0x06, 0x04, 0x06, 0x00, 0x06,
   0x00, 0x0e, 0x80, 0xff, 0x00, 0x00, 0x00, 0x00};
