#define oriview_12_width 16
#define oriview_12_height 16
static char oriview_12_bits[] = {
   0x00, 0x00, 0x00, 0x00, 0x00, 0xfc, 0x00, 0xfe, 0x00, 0x07, 0x80, 0x03,
   0xc6, 0x07, 0xff, 0xff, 0xff, 0xff, 0xc6, 0x07, 0x80, 0x03, 0x00, 0x07,
   0x00, 0xfe, 0x00, 0xfc, 0x00, 0x00, 0x00, 0x00};
