#define romview_7_width 16
#define romview_7_height 16
static char romview_7_bits[] = {
   0x00, 0x00, 0x00, 0x10, 0x00, 0x10, 0x00, 0x38, 0x00, 0x38, 0x00, 0x7e,
   0xc1, 0x5f, 0xf7, 0x5f, 0xfe, 0x9f, 0xfe, 0x8f, 0xf6, 0x0f, 0xf4, 0x0f,
   0x84, 0x03, 0x08, 0x00, 0x08, 0x00, 0x00, 0x00};
