#define kliview_1_width 16
#define kliview_1_height 16
static char kliview_1_bits[] = {
   0x00, 0x04, 0x80, 0x0e, 0x00, 0x0f, 0x00, 0x1f, 0x00, 0x0f, 0x08, 0x03,
   0x04, 0x03, 0x8c, 0x01, 0xfe, 0x01, 0xf6, 0x21, 0xc3, 0x17, 0xc1, 0x1e,
   0x01, 0x1c, 0x00, 0x08, 0x00, 0x08, 0x00, 0x04};
