#define oriview_14_width 16
#define oriview_14_height 16
static char oriview_14_bits[] = {
   0x00, 0x00, 0x00, 0x00, 0x18, 0x00, 0x3c, 0x00, 0x3c, 0x00, 0x78, 0x3f,
   0xe0, 0x7f, 0xe0, 0xf7, 0xc0, 0xc3, 0xe0, 0x87, 0xe0, 0x8e, 0x60, 0x1c,
   0xe0, 0x38, 0xe0, 0x10, 0xc0, 0x00, 0x80, 0x03};
