#define oriview_5_width 16
#define oriview_5_height 16
static char oriview_5_bits[] = {
   0x3c, 0x00, 0xf8, 0x00, 0xe0, 0x00, 0x80, 0x01, 0x82, 0x01, 0xdf, 0x03,
   0xfc, 0x03, 0xf0, 0x03, 0xe0, 0x2f, 0xe1, 0x7f, 0xff, 0xf8, 0x5e, 0x70,
   0x08, 0x00, 0x00, 0x00, 0x00, 0x00, 0x00, 0x00};
