#define fedview_9_width 16
#define fedview_9_height 16
static char fedview_9_bits[] = {
   0x80, 0x00, 0x40, 0x00, 0x40, 0x40, 0x40, 0x22, 0x60, 0x27, 0xa0, 0x13,
   0x10, 0x1f, 0x90, 0x19, 0xc0, 0x09, 0xf8, 0x09, 0xf8, 0x01, 0xfc, 0x03,
   0xf8, 0x03, 0xf8, 0x03, 0xf8, 0x03, 0x60, 0x00};
