<?xml version="1.0" standalone="no"?>
<!DOCTYPE svg PUBLIC "-//W3C//DTD SVG 20010904//EN"
 "http://www.w3.org/TR/2001/REC-SVG-20010904/DTD/svg10.dtd">
<svg version="1.0" xmlns="http://www.w3.org/2000/svg"
 width="468pt" height="468pt" viewBox="0 0 468 468"
 preserveAspectRatio="xMidYMid meet">
<metadata>
Created by potrace 1.8, written by Peter Selinger 2001-2007
</metadata>
<g transform="translate(0,468) scale(0.365625,-0.365625)"
fill="#000000" stroke="none">
<path d="M0 1000 l0 -120 20 0 20 0 0 -260 0 -260 -20 0 -20 0 0 -120 0 -120
120 0 120 0 0 20 0 20 400 0 400 0 0 -20 0 -20 120 0 120 0 0 120 0 120 -20 0
-20 0 0 260 0 260 20 0 20 0 0 120 0 120 -120 0 -120 0 0 -20 0 -20 -400 0
-400 0 0 20 0 20 -120 0 -120 0 0 -120z m200 60 l0 -20 -60 0 -60 0 0 -60 0
-60 -20 0 -20 0 0 80 0 80 80 0 80 0 0 -20z m1040 -60 l0 -80 -20 0 -20 0 0
60 0 60 -60 0 -60 0 0 20 0 20 80 0 80 0 0 -80z m-200 20 l0 -20 60 0 60 0 0
-60 0 -60 20 0 20 0 0 -260 0 -260 -20 0 -20 0 0 -60 0 -60 -60 0 -60 0 0 -20
0 -20 -400 0 -400 0 0 20 0 20 -60 0 -60 0 0 60 0 60 -20 0 -20 0 0 260 0 260
20 0 20 0 0 60 0 60 60 0 60 0 0 20 0 20 400 0 400 0 0 -20z m-960 -760 l0
-60 60 0 60 0 0 -20 0 -20 -80 0 -80 0 0 80 0 80 20 0 20 0 0 -60z m1160 -20
l0 -80 -80 0 -80 0 0 20 0 20 60 0 60 0 0 60 0 60 20 0 20 0 0 -80z"/>
<path d="M200 940 l0 -20 -20 0 -20 0 0 -300 0 -300 20 0 20 0 0 -20 0 -20
440 0 440 0 0 20 0 20 20 0 20 0 0 300 0 300 -20 0 -20 0 0 20 0 20 -440 0
-440 0 0 -20z m240 -200 l0 -20 20 0 20 0 0 -20 0 -20 20 0 20 0 0 20 0 20 20
0 20 0 0 20 0 20 60 0 60 0 0 -20 0 -20 20 0 20 0 0 -20 0 -20 20 0 20 0 0 20
0 20 20 0 20 0 0 20 0 20 80 0 80 0 0 -20 0 -20 20 0 20 0 0 -20 0 -20 -40 0
-40 0 0 20 0 20 -40 0 -40 0 0 -40 0 -40 60 0 60 0 0 -20 0 -20 20 0 20 0 0
-40 0 -40 -20 0 -20 0 0 -20 0 -20 -80 0 -80 0 0 20 0 20 -20 0 -20 0 0 20 0
20 -20 0 -20 0 0 -20 0 -20 -20 0 -20 0 0 -20 0 -20 -60 0 -60 0 0 20 0 20
-20 0 -20 0 0 20 0 20 -20 0 -20 0 0 -20 0 -20 -20 0 -20 0 0 -20 0 -20 -80 0
-80 0 0 140 0 140 80 0 80 0 0 -20z"/>
<path d="M360 620 l0 -100 20 0 20 0 0 20 0 20 20 0 20 0 0 60 0 60 -20 0 -20
0 0 20 0 20 -20 0 -20 0 0 -100z"/>
<path d="M600 700 l0 -20 -20 0 -20 0 0 -60 0 -60 20 0 20 0 0 -20 0 -20 20 0
20 0 0 20 0 20 20 0 20 0 0 60 0 60 -20 0 -20 0 0 20 0 20 -20 0 -20 0 0 -20z"/>
<path d="M760 600 l0 -40 40 0 40 0 0 -20 0 -20 40 0 40 0 0 40 0 40 -60 0
-60 0 0 20 0 20 -20 0 -20 0 0 -40z"/>
</g>
</svg>
