<?xml version="1.0" standalone="no"?>
<!DOCTYPE svg PUBLIC "-//W3C//DTD SVG 20010904//EN"
 "http://www.w3.org/TR/2001/REC-SVG-20010904/DTD/svg10.dtd">
<svg version="1.0" xmlns="http://www.w3.org/2000/svg"
 width="468pt" height="468pt" viewBox="0 0 468 468"
 preserveAspectRatio="xMidYMid meet">
<metadata>
Created by potrace 1.8, written by Peter Selinger 2001-2007
</metadata>
<g transform="translate(0,468) scale(0.365625,-0.365625)"
fill="#000000" stroke="none">
<path d="M0 945 l0 -335 15 0 15 0 0 -10 0 -10 -15 0 -15 0 0 -280 0 -280 15
0 15 0 0 -15 0 -15 625 0 625 0 0 465 0 465 -15 0 -15 0 0 15 0 15 15 0 15 0
0 160 0 160 -280 0 -280 0 0 -15 0 -15 -15 0 -15 0 0 15 0 15 -345 0 -345 0 0
-335z m670 295 l0 -10 -15 0 -15 0 0 -30 0 -30 -55 0 -55 0 0 -10 0 -10 15 0
15 0 0 -15 0 -15 -15 0 -15 0 0 -15 0 -15 -10 0 -10 0 0 30 0 30 -15 0 -15 0
0 -15 0 -15 -25 0 -25 0 0 -25 0 -25 -15 0 -15 0 0 -30 0 -30 25 0 25 0 0 15
0 15 40 0 40 0 0 15 0 15 55 0 55 0 0 10 0 10 25 0 25 0 0 15 0 15 15 0 15 0
0 -15 0 -15 40 0 40 0 0 15 0 15 -15 0 -15 0 0 15 0 15 40 0 40 0 0 -15 0 -15
-10 0 -10 0 0 -15 0 -15 -15 0 -15 0 0 -10 0 -10 -80 0 -80 0 0 -15 0 -15 -55
0 -55 0 0 -15 0 -15 -40 0 -40 0 0 -10 0 -10 -40 0 -40 0 0 10 0 10 -25 0 -25
0 0 15 0 15 15 0 15 0 0 25 0 25 25 0 25 0 0 15 0 15 -15 0 -15 0 0 15 0 15
15 0 15 0 0 10 0 10 14 0 14 0 6 -12 6 -13 6 13 6 12 29 0 29 0 0 15 0 15 25
0 25 0 0 15 0 15 25 0 25 0 0 10 0 10 30 0 30 0 0 -10z m500 -15 l0 -25 -25 0
-25 0 0 15 0 15 15 0 15 0 0 10 0 10 10 0 10 0 0 -25z m-1120 -25 l0 -30 -10
0 -10 0 0 30 0 30 10 0 10 0 0 -30z m670 15 l0 -15 -15 0 -15 0 0 15 0 15 15
0 15 0 0 -15z m130 0 l0 -15 -10 0 -10 0 0 15 0 15 10 0 10 0 0 -15z m190 -80
l0 -15 -65 0 -65 0 0 15 0 15 65 0 65 0 0 -15z m-800 -55 l0 -10 -15 0 -15 0
0 10 0 10 15 0 15 0 0 -10z m640 0 l0 -10 -15 0 -15 0 0 10 0 10 15 0 15 0 0
-10z m110 0 l0 -10 -15 0 -15 0 0 10 0 10 15 0 15 0 0 -10z m-750 -55 l0 -15
-15 0 -15 0 0 15 0 15 15 0 15 0 0 -15z m910 0 l0 -15 25 0 25 0 0 -10 0 -10
-25 0 -25 0 0 10 0 10 -15 0 -15 0 0 15 0 15 15 0 15 0 0 -15z m-380 -25 l0
-10 -10 0 -10 0 0 -15 0 -15 -30 0 -30 0 0 15 0 15 30 0 30 0 0 10 0 10 10 0
10 0 0 -10z m60 0 l0 -10 25 0 25 0 0 -15 0 -15 25 0 25 0 0 -15 0 -15 15 0
15 0 0 -10 0 -10 40 0 40 0 0 -15 0 -15 -40 0 -40 0 0 15 0 15 -15 0 -15 0 0
10 0 10 -25 0 -25 0 0 15 0 15 -25 0 -25 0 0 15 0 15 -15 0 -15 0 0 10 0 10
15 0 15 0 0 -10z m-620 -25 l0 -15 -25 0 -25 0 0 15 0 15 25 0 25 0 0 -15z
m160 0 l0 -15 -25 0 -25 0 0 -15 0 -15 -11 0 -10 0 -15 -14 -14 -15 0 -35 0
-36 -15 0 -15 0 0 10 0 10 -15 0 -15 0 0 -25 0 -25 -10 0 -10 0 0 -25 0 -25
25 0 25 0 0 25 0 25 15 0 15 0 0 -80 0 -80 10 0 10 0 0 -15 0 -15 15 0 15 0 0
40 0 40 15 0 15 0 0 15 0 15 10 0 10 0 0 -15 0 -15 -10 0 -10 0 0 -40 0 -40
-15 0 -15 0 0 -25 0 -25 25 0 25 0 0 -15 0 -15 95 0 95 0 0 15 0 15 -15 0 -15
0 0 15 0 15 -10 0 -10 0 0 -15 0 -15 -30 0 -30 0 0 15 0 15 -40 0 -40 0 0 10
0 10 40 0 40 0 0 -10 0 -10 15 0 15 0 0 10 0 10 15 0 15 0 0 30 0 30 10 0 10
0 0 50 0 50 -10 0 -10 0 0 55 0 55 10 0 10 0 0 -55 0 -55 15 0 15 0 0 15 0 15
15 0 15 0 0 -25 0 -25 10 0 10 0 0 25 0 25 40 0 40 0 0 15 0 15 40 0 40 0 0
10 0 10 15 0 15 0 0 -10 0 -10 15 0 15 0 0 -15 0 -15 10 0 10 0 0 -15 0 -15
15 0 15 0 0 15 0 15 15 0 15 0 0 -15 0 -15 10 0 10 0 0 -25 0 -25 40 0 40 0 0
-11 0 -10 -14 -15 -15 -14 -21 0 -21 0 -15 14 -14 15 0 10 0 11 -15 0 -15 0 0
15 0 15 -40 0 -40 0 0 10 0 10 -15 0 -15 0 0 15 0 15 15 0 15 0 0 15 0 15 -15
0 -15 0 0 -15 0 -15 -10 0 -10 0 0 -14 0 -14 13 -6 12 -6 -12 -6 -13 -6 0 -14
0 -14 10 0 10 0 0 -25 0 -25 15 0 15 0 0 -15 0 -15 15 0 15 0 0 15 0 15 10 0
10 0 0 -15 0 -15 15 0 15 0 0 -15 0 -15 -14 0 -14 0 -6 -12 -6 -13 -6 13 -6
12 -29 0 -29 0 0 15 0 15 -10 0 -10 0 0 15 0 15 -15 0 -15 0 0 -15 0 -15 15 0
15 0 0 -15 0 -15 10 0 10 0 0 -25 0 -25 -10 0 -10 0 0 -15 0 -15 -15 0 -15 0
0 -10 0 -10 15 0 15 0 0 -30 0 -30 -55 0 -55 0 0 15 0 15 -15 0 -15 0 0 15 0
15 15 0 15 0 0 10 0 10 -25 0 -25 0 0 -10 0 -10 -110 0 -110 0 0 -15 0 -15 15
0 15 0 0 -15 0 -15 -15 0 -15 0 0 15 0 15 -25 0 -25 0 0 15 0 15 15 0 15 0 0
10 0 10 -15 0 -15 0 0 15 0 15 -15 0 -15 0 0 -15 0 -15 -25 0 -25 0 0 15 0 15
-15 0 -15 0 0 15 0 15 15 0 15 0 0 -15 0 -15 25 0 25 0 0 11 0 10 -14 15 -15
14 -10 0 -11 0 0 15 0 15 -15 0 -15 0 0 15 0 15 -10 0 -10 0 0 40 0 40 -15 0
-15 0 0 40 0 40 11 0 10 0 15 14 14 15 0 10 0 11 15 0 15 0 0 25 0 25 25 0 25
0 0 30 0 30 40 0 40 0 0 -15z m80 -30 l0 -15 -10 0 -10 0 0 15 0 15 10 0 10 0
0 -15z m110 0 l0 -15 14 0 14 0 6 -12 6 -13 6 13 6 12 14 0 14 0 0 -10 0 -10
-15 0 -15 0 0 -15 0 -15 -10 0 -10 0 0 -15 0 -15 -15 0 -15 0 0 30 0 30 -15 0
-15 0 0 25 0 25 15 0 15 0 0 -15z m-350 -25 l0 -10 -10 0 -10 0 0 10 0 10 10
0 10 0 0 -10z m510 -25 l0 -15 -15 0 -15 0 0 15 0 15 15 0 15 0 0 -15z m-370
-40 l0 -25 -15 0 -15 0 0 25 0 25 15 0 15 0 0 -25z m100 -15 l0 -40 -10 0 -10
0 0 -40 0 -40 10 0 10 0 0 -15 0 -15 -10 0 -10 0 0 15 0 15 -15 0 -15 0 0 40
0 40 15 0 15 0 0 15 0 15 -15 0 -15 0 0 10 0 10 15 0 15 0 0 15 0 15 10 0 10
0 0 -40z m670 0 l0 -10 -25 0 -25 0 0 10 0 10 25 0 25 0 0 -10z m-1070 -25 l0
-15 -10 0 -10 0 0 15 0 15 10 0 10 0 0 -15z m30 -55 l0 -10 15 0 15 0 0 -15 0
-15 -30 0 -30 0 0 15 0 15 -10 0 -10 0 0 10 0 10 25 0 25 0 0 -10z m240 -15
l0 -25 -15 0 -15 0 0 25 0 25 15 0 15 0 0 -25z m850 0 l0 -25 -10 0 -10 0 0
25 0 25 10 0 10 0 0 -25z m-320 -40 l0 -15 -25 0 -25 0 0 15 0 15 25 0 25 0 0
-15z m-740 -25 l0 -10 -15 0 -15 0 0 10 0 10 15 0 15 0 0 -10z m930 -25 l0
-15 15 0 15 0 0 -25 0 -25 10 0 10 0 0 -30 0 -30 15 0 15 0 0 -10 0 -10 -15 0
-15 0 0 -30 0 -30 -25 0 -25 0 0 -40 0 -40 15 0 15 0 0 30 0 30 10 0 10 0 0
-26 0 -25 -14 -15 -15 -14 -10 0 -11 0 0 -30 0 -30 -15 0 -15 0 0 -25 0 -25
-10 0 -10 0 0 -15 0 -15 -15 0 -15 0 0 -10 0 -10 -15 0 -15 0 0 -15 0 -15 -10
0 -10 0 0 -15 0 -15 -15 0 -15 0 0 -10 0 -10 -15 0 -15 0 0 -15 0 -15 -50 0
-50 0 0 15 0 15 50 0 50 0 0 10 0 10 15 0 15 0 0 15 0 15 15 0 15 0 0 11 0 10
14 15 15 14 10 0 11 0 0 40 0 40 25 0 25 0 0 30 0 30 15 0 15 0 0 10 0 10 -15
0 -15 0 0 70 0 70 15 0 15 0 0 -15 0 -15 15 0 15 0 0 14 0 14 13 6 12 6 -12 6
-13 6 0 29 0 29 -15 0 -15 0 0 25 0 25 -25 0 -25 0 0 15 0 15 25 0 25 0 0 -15z
m160 -15 l0 -30 -15 0 -15 0 0 30 0 30 15 0 15 0 0 -30z m-1070 -15 l0 -15
-10 0 -10 0 0 15 0 15 10 0 10 0 0 -15z m60 -25 l0 -10 -15 0 -15 0 0 10 0 10
15 0 15 0 0 -10z m820 0 l0 -10 -10 0 -10 0 0 10 0 10 10 0 10 0 0 -10z m-80
-25 l0 -15 -10 0 -10 0 0 15 0 15 10 0 10 0 0 -15z m-100 -30 l0 -15 25 0 25
0 0 -10 0 -10 15 0 15 0 0 -30 0 -30 -26 0 -25 0 -15 -14 -14 -15 0 -10 0 -11
-15 0 -15 0 0 -15 0 -15 -15 0 -15 0 0 -25 0 -25 -40 0 -40 0 0 -15 0 -15 15
0 15 0 0 -10 0 -10 -14 0 -14 0 -6 13 -6 12 -6 -12 -6 -13 -14 0 -14 0 0 -15
0 -15 -15 0 -15 0 0 15 0 15 -25 0 -25 0 0 10 0 10 -65 0 -65 0 0 15 0 15 -15
0 -15 0 0 15 0 15 15 0 15 0 0 -15 0 -15 25 0 25 0 0 15 0 15 25 0 25 0 0 -15
0 -15 30 0 30 0 0 -15 0 -15 25 0 25 0 0 15 0 15 -15 0 -15 0 0 15 0 15 15 0
15 0 0 -15 0 -15 15 0 15 0 0 15 0 15 25 0 25 0 0 10 0 10 25 0 25 0 0 30 0
30 15 0 15 0 0 10 0 10 15 0 15 0 0 30 0 30 -30 0 -30 0 0 10 0 10 15 0 15 0
0 15 0 15 15 0 15 0 0 -15z m210 0 l0 -15 -15 0 -15 0 0 15 0 15 15 0 15 0 0
-15z m160 -25 l0 -10 -15 0 -15 0 0 10 0 10 15 0 15 0 0 -10z m-610 -55 l0
-15 -40 0 -40 0 0 -10 0 -10 -15 0 -15 0 0 10 0 10 15 0 15 0 0 15 0 15 40 0
40 0 0 -15z m-474 -29 l14 -15 0 -10 0 -11 15 0 15 0 0 -25 0 -25 15 0 15 0 0
-15 0 -15 -15 0 -15 0 0 15 0 15 -11 0 -10 0 -15 14 -14 15 0 25 0 26 -15 0
-15 0 0 10 0 10 11 0 10 0 15 -14z m334 4 l0 -10 -10 0 -10 0 0 10 0 10 10 0
10 0 0 -10z m540 0 l0 -10 -30 0 -30 0 0 10 0 10 30 0 30 0 0 -10z m210 0 l0
-10 -15 0 -15 0 0 10 0 10 15 0 15 0 0 -10z m-910 -25 l0 -15 15 0 15 0 0 -15
0 -15 15 0 15 0 0 -10 0 -10 -30 0 -30 0 0 25 0 25 -10 0 -10 0 0 15 0 15 10
0 10 0 0 -15z m350 0 l0 -15 -55 0 -55 0 0 15 0 15 55 0 55 0 0 -15z m510 -55
l0 -10 -15 0 -15 0 0 10 0 10 15 0 15 0 0 -10z m-270 -25 l0 -15 -25 0 -25 0
0 15 0 15 25 0 25 0 0 -15z m50 -25 l0 -40 -10 0 -10 0 0 40 0 40 10 0 10 0 0
-40z m-580 -30 l0 -10 -15 0 -15 0 0 10 0 10 15 0 15 0 0 -10z m500 0 l0 -10
-10 0 -10 0 0 -15 0 -15 -15 0 -15 0 0 15 0 15 15 0 15 0 0 10 0 10 10 0 10 0
0 -10z m-560 -25 l0 -15 15 0 15 0 0 -15 0 -15 -25 0 -25 0 0 15 0 15 -15 0
-15 0 0 15 0 15 25 0 25 0 0 -15z m240 0 l0 -15 -10 0 -10 0 0 -15 0 -15 -30
0 -30 0 0 15 0 15 30 0 30 0 0 15 0 15 10 0 10 0 0 -15z m-100 -30 l0 -15 -15
0 -15 0 0 15 0 15 15 0 15 0 0 -15z m260 -50 l0 -15 -25 0 -25 0 0 15 0 15 25
0 25 0 0 -15z m-290 -55 l0 -10 55 0 55 0 0 -15 0 -15 -55 0 -55 0 0 15 0 15
-40 0 -40 0 0 10 0 10 40 0 40 0 0 -10z m160 -25 l0 -15 40 0 40 0 0 -15 0
-15 -40 0 -40 0 0 15 0 15 -15 0 -15 0 0 15 0 15 15 0 15 0 0 -15z m160 -30
l0 -15 -25 0 -25 0 0 15 0 15 25 0 25 0 0 -15z m-610 -25 l0 -10 -15 0 -15 0
0 10 0 10 15 0 15 0 0 -10z"/>
<path d="M640 705 l0 -15 15 0 15 0 0 15 0 15 -15 0 -15 0 0 -15z"/>
<path d="M720 705 l0 -15 15 0 15 0 0 15 0 15 -15 0 -15 0 0 -15z"/>
<path d="M560 655 l0 -15 15 0 15 0 0 15 0 15 -15 0 -15 0 0 -15z"/>
<path d="M830 625 l0 -15 10 0 10 0 0 15 0 15 -10 0 -10 0 0 -15z"/>
<path d="M560 600 l0 -10 15 0 15 0 0 10 0 10 -15 0 -15 0 0 -10z"/>
<path d="M610 575 l0 -15 15 0 15 0 0 15 0 15 -15 0 -15 0 0 -15z"/>
<path d="M670 520 l0 -10 10 0 10 0 0 10 0 10 -10 0 -10 0 0 -10z"/>
<path d="M850 495 l0 -15 15 0 15 0 0 15 0 15 -15 0 -15 0 0 -15z"/>
</g>
</svg>
