<?xml version="1.0" standalone="no"?>
<!DOCTYPE svg PUBLIC "-//W3C//DTD SVG 20010904//EN"
 "http://www.w3.org/TR/2001/REC-SVG-20010904/DTD/svg10.dtd">
<svg version="1.0" xmlns="http://www.w3.org/2000/svg"
 width="468pt" height="468pt" viewBox="0 0 468 468"
 preserveAspectRatio="xMidYMid meet">
<metadata>
Created by potrace 1.8, written by Peter Selinger 2001-2007
</metadata>
<g transform="translate(0,468) scale(0.365625,-0.365625)"
fill="#000000" stroke="none">
<path d="M110 1200 l0 -30 25 0 25 0 0 -130 0 -130 25 0 25 0 0 -30 0 -30 135
0 135 0 0 -25 0 -25 -185 0 -185 0 0 -25 0 -25 25 0 25 0 0 -110 0 -110 25 0
25 0 0 -25 0 -25 -50 0 -50 0 0 25 0 25 -30 0 -30 0 0 30 0 30 -25 0 -25 0 0
-110 0 -110 25 0 25 0 0 -50 0 -50 30 0 30 0 0 -55 0 -55 25 0 25 0 0 -25 0
-25 55 0 55 0 0 -30 0 -30 425 0 425 0 0 30 0 30 25 0 25 0 0 25 0 25 30 0 30
0 0 80 0 80 25 0 25 0 0 185 0 185 -25 0 -25 0 0 30 0 30 -80 0 -80 0 0 25 0
25 25 0 25 0 0 25 0 25 25 0 25 0 0 -25 0 -25 30 0 30 0 0 25 0 25 -30 0 -30
0 0 30 0 30 -25 0 -25 0 0 25 0 25 -25 0 -25 0 0 25 0 25 -30 0 -30 0 0 -130
0 -130 -105 0 -105 0 0 25 0 25 -135 0 -135 0 0 25 0 25 135 0 135 0 0 30 0
30 25 0 25 0 0 130 0 130 30 0 30 0 0 30 0 30 -400 0 -400 0 0 -30z m690 -160
l0 -130 -295 0 -295 0 0 130 0 130 295 0 295 0 0 -130z m320 -160 l0 -30 -25
0 -25 0 0 30 0 30 25 0 25 0 0 -30z m-320 -160 l0 -30 25 0 25 0 0 -25 0 -25
-25 0 -25 0 0 -25 0 -25 25 0 25 0 0 -30 0 -30 -50 0 -50 0 0 -25 0 -25 50 0
50 0 0 -80 0 -80 30 0 30 0 0 185 0 185 160 0 160 0 0 -185 0 -185 -30 0 -30
0 0 -80 0 -80 -25 0 -25 0 0 -25 0 -25 -55 0 -55 0 0 25 0 25 -25 0 -25 0 0
-25 0 -25 -320 0 -320 0 0 25 0 25 -55 0 -55 0 0 25 0 25 -25 0 -25 0 0 30 0
30 -25 0 -25 0 0 50 0 50 -30 0 -30 0 0 55 0 55 30 0 30 0 0 -25 0 -25 25 0
25 0 0 -30 0 -30 215 0 215 0 0 30 0 30 -30 0 -30 0 0 25 0 25 30 0 30 0 0 25
0 25 -190 0 -190 0 0 110 0 110 295 0 295 0 0 -30z m-320 -265 l0 -25 -135 0
-135 0 0 25 0 25 135 0 135 0 0 -25z"/>
<path d="M270 1095 l0 -25 25 0 25 0 0 25 0 25 -25 0 -25 0 0 -25z"/>
<path d="M430 1095 l0 -25 50 0 50 0 0 25 0 25 -50 0 -50 0 0 -25z"/>
<path d="M640 1095 l0 -25 25 0 25 0 0 25 0 25 -25 0 -25 0 0 -25z"/>
<path d="M270 985 l0 -25 50 0 50 0 0 25 0 25 -50 0 -50 0 0 -25z"/>
<path d="M480 985 l0 -25 25 0 25 0 0 25 0 25 -25 0 -25 0 0 -25z"/>
<path d="M590 985 l0 -25 50 0 50 0 0 25 0 25 -50 0 -50 0 0 -25z"/>
<path d="M750 665 l0 -25 -30 0 -30 0 0 -55 0 -55 -25 0 -25 0 0 -25 0 -25
-25 0 -25 0 0 -25 0 -25 25 0 25 0 0 -30 0 -30 25 0 25 0 0 30 0 30 -25 0 -25
0 0 25 0 25 25 0 25 0 0 25 0 25 30 0 30 0 0 55 0 55 25 0 25 0 0 25 0 25 -25
0 -25 0 0 -25z"/>
<path d="M270 615 l0 -25 50 0 50 0 0 25 0 25 -50 0 -50 0 0 -25z"/>
<path d="M430 615 l0 -25 25 0 25 0 0 25 0 25 -25 0 -25 0 0 -25z"/>
<path d="M590 615 l0 -25 25 0 25 0 0 25 0 25 -25 0 -25 0 0 -25z"/>
<path d="M960 615 l0 -25 25 0 25 0 0 25 0 25 -25 0 -25 0 0 -25z"/>
<path d="M1070 615 l0 -25 50 0 50 0 0 25 0 25 -50 0 -50 0 0 -25z"/>
<path d="M960 505 l0 -25 55 0 55 0 0 25 0 25 -55 0 -55 0 0 -25z"/>
<path d="M1120 505 l0 -25 25 0 25 0 0 25 0 25 -25 0 -25 0 0 -25z"/>
<path d="M750 400 l0 -30 25 0 25 0 0 30 0 30 -25 0 -25 0 0 -30z"/>
<path d="M960 400 l0 -30 25 0 25 0 0 30 0 30 -25 0 -25 0 0 -30z"/>
<path d="M1070 400 l0 -30 50 0 50 0 0 30 0 30 -50 0 -50 0 0 -30z"/>
<path d="M210 295 l0 -25 30 0 30 0 0 25 0 25 -30 0 -30 0 0 -25z"/>
<path d="M320 295 l0 -25 25 0 25 0 0 25 0 25 -25 0 -25 0 0 -25z"/>
<path d="M430 295 l0 -25 25 0 25 0 0 25 0 25 -25 0 -25 0 0 -25z"/>
<path d="M530 295 l0 -25 30 0 30 0 0 25 0 25 -30 0 -30 0 0 -25z"/>
<path d="M640 295 l0 -25 25 0 25 0 0 25 0 25 -25 0 -25 0 0 -25z"/>
<path d="M750 295 l0 -25 25 0 25 0 0 25 0 25 -25 0 -25 0 0 -25z"/>
<path d="M910 240 l0 -80 25 0 25 0 0 80 0 80 -25 0 -25 0 0 -80z"/>
<path d="M1010 295 l0 -25 55 0 55 0 0 25 0 25 -55 0 -55 0 0 -25z"/>
<path d="M370 185 l0 -25 30 0 30 0 0 25 0 25 -30 0 -30 0 0 -25z"/>
<path d="M480 185 l0 -25 25 0 25 0 0 25 0 25 -25 0 -25 0 0 -25z"/>
<path d="M590 185 l0 -25 25 0 25 0 0 25 0 25 -25 0 -25 0 0 -25z"/>
<path d="M690 185 l0 -25 30 0 30 0 0 25 0 25 -30 0 -30 0 0 -25z"/>
<path d="M800 185 l0 -25 25 0 25 0 0 25 0 25 -25 0 -25 0 0 -25z"/>
<path d="M1070 185 l0 -25 25 0 25 0 0 25 0 25 -25 0 -25 0 0 -25z"/>
</g>
</svg>
