<?xml version="1.0" standalone="no"?>
<!DOCTYPE svg PUBLIC "-//W3C//DTD SVG 20010904//EN"
 "http://www.w3.org/TR/2001/REC-SVG-20010904/DTD/svg10.dtd">
<svg version="1.0" xmlns="http://www.w3.org/2000/svg"
 width="468pt" height="468pt" viewBox="0 0 468 468"
 preserveAspectRatio="xMidYMid meet">
<metadata>
Created by potrace 1.8, written by Peter Selinger 2001-2007
</metadata>
<g transform="translate(0,468) scale(0.365625,-0.365625)"
fill="#000000" stroke="none">
<path d="M571 1264 l-13 -15 7 -7 8 -7 4 13 5 12 78 0 78 0 5 -12 4 -13 8 7 7
7 -15 16 -16 15 -73 0 -73 -1 -14 -15z"/>
<path d="M520 1250 l0 -10 10 0 10 0 0 10 0 10 -10 0 -10 0 0 -10z"/>
<path d="M780 1250 l0 -10 10 0 10 0 0 10 0 10 -10 0 -10 0 0 -10z"/>
<path d="M440 1230 l0 -10 10 0 10 0 0 10 0 10 -10 0 -10 0 0 -10z"/>
<path d="M480 1230 l0 -10 10 0 10 0 0 10 0 10 -10 0 -10 0 0 -10z"/>
<path d="M820 1230 l0 -10 10 0 10 0 0 10 0 10 -10 0 -10 0 0 -10z"/>
<path d="M400 1210 l0 -10 10 0 10 0 0 10 0 10 -10 0 -10 0 0 -10z"/>
<path d="M900 1210 l0 -10 10 0 10 0 0 10 0 10 -10 0 -10 0 0 -10z"/>
<path d="M360 1190 l0 -10 10 0 10 0 0 10 0 10 -10 0 -10 0 0 -10z"/>
<path d="M940 1190 l0 -10 10 0 10 0 0 10 0 10 -10 0 -10 0 0 -10z"/>
<path d="M320 1170 l0 -10 10 0 10 0 0 10 0 10 -10 0 -10 0 0 -10z"/>
<path d="M980 1170 l0 -10 10 0 10 0 0 10 0 10 -10 0 -10 0 0 -10z"/>
<path d="M260 1130 l0 -10 10 0 10 0 0 10 0 10 -10 0 -10 0 0 -10z"/>
<path d="M1020 1130 l0 -10 10 0 10 0 0 10 0 10 -10 0 -10 0 0 -10z"/>
<path d="M1060 1115 l0 -6 36 -35 35 -36 6 5 5 6 -36 35 -35 36 -6 0 -5 0 0
-5z"/>
<path d="M220 1090 l0 -10 10 0 10 0 0 10 0 10 -10 0 -10 0 0 -10z"/>
<path d="M560 1090 l0 -10 -18 0 -18 0 -14 -20 -14 -20 -14 0 -14 0 -30 -32
-30 -32 -9 15 -9 14 -11 -15 -11 -15 -5 13 -5 12 -29 0 -29 0 0 -10 0 -10 26
0 25 0 15 -14 14 -15 0 -15 0 -16 -10 0 -10 0 0 -19 0 -19 13 -6 12 -6 -12 -6
-13 -6 0 -9 0 -9 16 0 15 0 15 -14 14 -15 0 -11 0 -11 -14 -15 -15 -14 -45 0
-46 0 0 -10 0 -10 -20 0 -20 0 0 -10 0 -10 -20 0 -20 0 0 -15 0 -16 27 -27 27
-26 4 12 4 12 19 0 19 0 0 -6 0 -6 -32 -30 -32 -30 15 -9 14 -9 -15 -11 -15
-11 13 -5 12 -5 0 -28 0 -28 13 -5 12 -5 -14 -10 -14 -10 16 -16 16 -16 11 0
11 0 16 -16 16 -16 -14 -10 -14 -10 13 -5 12 -5 0 -18 0 -18 13 -6 12 -6 -12
-6 -13 -6 0 -15 0 -15 -30 -28 -30 -28 0 -16 0 -16 26 0 26 0 28 30 28 30 26
0 26 0 0 28 0 28 -20 14 -20 14 0 28 0 28 6 0 6 0 38 -40 38 -40 15 0 15 0 5
-12 5 -13 11 15 11 15 10 -15 10 -15 10 15 10 15 10 -15 10 -15 10 15 10 15
11 -15 11 -15 5 13 5 12 49 0 49 0 0 10 0 10 36 0 37 0 20 23 20 22 4 -12 5
-13 19 0 19 0 0 -10 0 -10 16 0 15 0 15 -14 14 -15 0 -11 0 -11 14 -15 15 -14
21 0 21 0 59 -61 60 -60 25 25 25 25 0 16 0 15 10 0 10 0 0 20 0 20 -30 0 -30
0 0 20 0 20 -10 0 -10 0 0 -10 0 -10 -30 0 -30 0 0 10 0 10 -20 0 -20 0 0 20
0 20 -19 0 -19 0 -6 13 -6 12 -6 -13 -6 -12 -19 0 -19 0 0 10 0 10 -16 0 -15
0 -15 14 -14 15 0 14 0 15 12 4 13 5 -17 16 -17 17 -15 0 -16 0 0 10 0 10 -20
0 -20 0 0 10 0 10 -20 0 -20 0 0 20 0 20 -10 0 -10 0 0 28 0 28 -20 14 -20 14
0 28 0 28 -20 0 -20 0 0 9 0 9 13 5 12 4 -22 20 -23 20 0 12 0 12 -14 15 -15
14 -15 0 -16 0 0 10 0 10 59 0 59 0 5 -12 4 -13 9 8 8 8 -13 9 -14 8 16 16 16
16 25 0 26 0 0 10 0 10 -20 0 -20 0 0 19 0 19 12 4 13 5 -17 16 -17 17 -25 0
-26 0 0 -10 0 -10 -19 0 -19 0 -5 -12 -4 -13 -20 23 -20 22 -47 0 -46 0 0 38
0 38 20 14 20 14 0 18 0 18 30 0 30 0 0 10 0 10 -40 0 -40 0 0 -10z m40 -180
l0 -10 -10 0 -10 0 0 10 0 10 10 0 10 0 0 -10z m40 0 l0 -10 -10 0 -10 0 0 10
0 10 10 0 10 0 0 -10z m140 0 l0 -10 -10 0 -10 0 0 10 0 10 10 0 10 0 0 -10z"/>
<path d="M180 1070 l0 -10 10 0 10 0 0 10 0 10 -10 0 -10 0 0 -10z"/>
<path d="M151 1024 l-13 -15 6 -6 5 -5 16 15 15 16 0 5 0 6 -7 0 -8 -1 -14
-15z"/>
<path d="M1140 1010 l0 -10 10 0 10 0 0 10 0 10 -10 0 -10 0 0 -10z"/>
<path d="M1180 970 l0 -10 10 0 10 0 0 10 0 10 -10 0 -10 0 0 -10z"/>
<path d="M91 944 l-13 -15 6 -6 5 -5 16 15 15 16 0 5 0 6 -7 0 -8 -1 -14 -15z"/>
<path d="M1200 930 l0 -10 10 0 10 0 0 10 0 10 -10 0 -10 0 0 -10z"/>
<path d="M60 890 l0 -10 10 0 10 0 0 10 0 10 -10 0 -10 0 0 -10z"/>
<path d="M1220 890 l0 -10 10 0 10 0 0 10 0 10 -10 0 -10 0 0 -10z"/>
<path d="M1240 850 l0 -10 10 0 10 0 0 10 0 10 -10 0 -10 0 0 -10z"/>
<path d="M40 830 l0 -10 10 0 10 0 0 10 0 10 -10 0 -10 0 0 -10z"/>
<path d="M31 784 l-13 -15 6 -6 5 -5 16 15 15 16 0 5 0 6 -7 0 -8 -1 -14 -15z"/>
<path d="M1260 780 l0 -20 10 0 10 0 0 20 0 20 -10 0 -10 0 0 -20z"/>
<path d="M80 760 l0 -20 28 0 28 0 14 -20 14 -20 18 0 18 0 0 6 0 5 -14 15
-15 14 -15 0 -16 0 0 10 0 10 -20 0 -20 0 0 10 0 10 -10 0 -10 0 0 -20z"/>
<path d="M20 730 l0 -10 10 0 10 0 0 10 0 10 -10 0 -10 0 0 -10z"/>
<path d="M0 624 l0 -75 15 -16 16 -15 7 7 7 8 -13 4 -12 5 0 79 0 79 -10 0
-10 0 0 -76z"/>
<path d="M20 490 l0 -10 10 0 10 0 0 10 0 10 -10 0 -10 0 0 -10z"/>
<path d="M1260 490 l0 -10 10 0 10 0 0 10 0 10 -10 0 -10 0 0 -10z"/>
<path d="M40 450 l0 -10 10 0 10 0 0 10 0 10 -10 0 -10 0 0 -10z"/>
<path d="M1260 450 l0 -10 10 0 10 0 0 10 0 10 -10 0 -10 0 0 -10z"/>
<path d="M40 410 l0 -10 10 0 10 0 0 10 0 10 -10 0 -10 0 0 -10z"/>
<path d="M1240 410 l0 -10 10 0 10 0 0 10 0 10 -10 0 -10 0 0 -10z"/>
<path d="M60 374 l0 -5 15 -16 16 -15 6 5 5 6 -15 16 -16 15 -5 0 -6 0 0 -6z"/>
<path d="M1220 350 l0 -10 10 0 10 0 0 10 0 10 -10 0 -10 0 0 -10z"/>
<path d="M100 310 l0 -10 10 0 10 0 0 10 0 10 -10 0 -10 0 0 -10z"/>
<path d="M1200 310 l0 -10 10 0 10 0 0 10 0 10 -10 0 -10 0 0 -10z"/>
<path d="M120 274 l0 -5 15 -16 16 -15 6 5 5 6 -15 16 -16 15 -5 0 -6 0 0 -6z"/>
<path d="M160 215 l0 -6 36 -35 35 -36 6 5 5 6 -36 35 -35 36 -6 0 -5 0 0 -5z"/>
<path d="M1071 164 l-13 -15 6 -6 5 -5 16 15 15 16 0 5 0 6 -7 0 -8 -1 -14
-15z"/>
<path d="M260 110 l0 -10 10 0 10 0 0 10 0 10 -10 0 -10 0 0 -10z"/>
<path d="M1020 110 l0 -10 10 0 10 0 0 10 0 10 -10 0 -10 0 0 -10z"/>
<path d="M300 90 l0 -10 10 0 10 0 0 10 0 10 -10 0 -10 0 0 -10z"/>
<path d="M961 74 l-23 -25 5 -6 6 -5 25 25 26 26 0 6 0 5 -7 -1 -8 0 -24 -25z"/>
<path d="M340 70 l0 -10 10 0 10 0 0 10 0 10 -10 0 -10 0 0 -10z"/>
<path d="M380 50 l0 -10 10 0 10 0 0 10 0 10 -10 0 -10 0 0 -10z"/>
<path d="M900 50 l0 -10 10 0 10 0 0 10 0 10 -10 0 -10 0 0 -10z"/>
<path d="M420 30 l0 -10 10 0 10 0 0 10 0 10 -10 0 -10 0 0 -10z"/>
<path d="M860 30 l0 -10 10 0 10 0 0 10 0 10 -10 0 -10 0 0 -10z"/>
<path d="M480 10 l0 -10 20 0 20 0 0 10 0 10 -20 0 -20 0 0 -10z"/>
<path d="M800 10 l0 -10 20 0 20 0 0 10 0 10 -20 0 -20 0 0 -10z"/>
</g>
</svg>
