<?xml version="1.0" standalone="no"?>
<!DOCTYPE svg PUBLIC "-//W3C//DTD SVG 20010904//EN"
 "http://www.w3.org/TR/2001/REC-SVG-20010904/DTD/svg10.dtd">
<svg version="1.0" xmlns="http://www.w3.org/2000/svg"
 width="468pt" height="468pt" viewBox="0 0 468 468"
 preserveAspectRatio="xMidYMid meet">
<metadata>
Created by potrace 1.8, written by Peter Selinger 2001-2007
</metadata>
<g transform="translate(0,468) scale(0.365625,-0.365625)"
fill="#000000" stroke="none">
<path d="M210 1175 l0 -105 -105 0 -105 0 0 -190 0 -190 105 0 105 0 0 -40 0
-40 -105 0 -105 0 0 -305 0 -305 15 0 15 0 0 295 0 295 210 0 210 0 0 50 0 50
40 0 40 0 0 -90 0 -90 -210 0 -210 0 0 -255 0 -255 10 0 10 0 0 240 0 240 40
0 40 0 0 -240 0 -240 15 0 15 0 0 240 0 240 40 0 40 0 0 -240 0 -240 15 0 15
0 0 240 0 240 105 0 105 0 0 105 0 105 105 0 105 0 0 120 0 120 255 0 255 0 0
15 0 15 -360 0 -360 0 0 40 0 40 360 0 360 0 0 15 0 15 -255 0 -255 0 0 40 0
40 255 0 255 0 0 10 0 10 -265 0 -265 0 0 -50 0 -50 -40 0 -40 0 0 90 0 90
305 0 305 0 0 15 0 15 -320 0 -320 0 0 -105 0 -105 -40 0 -40 0 0 105 0 105
-175 0 -175 0 0 -105z m320 -135 l0 -210 -40 0 -40 0 0 170 0 170 -65 0 -65 0
0 -50 0 -50 -40 0 -40 0 0 90 0 90 145 0 145 0 0 -210z m-100 70 l0 -40 -40 0
-40 0 0 40 0 40 40 0 40 0 0 -40z m0 -110 l0 -40 -160 0 -160 0 0 -80 0 -80
280 0 280 0 0 65 0 65 40 0 40 0 0 -105 0 -105 -360 0 -360 0 0 160 0 160 200
0 200 0 0 -40z m-220 -120 l0 -50 -40 0 -40 0 0 50 0 50 40 0 40 0 0 -50z
m110 0 l0 -50 -40 0 -40 0 0 50 0 50 40 0 40 0 0 -50z m110 0 l0 -50 -40 0
-40 0 0 50 0 50 40 0 40 0 0 -50z m210 0 l0 -50 -40 0 -40 0 0 50 0 50 40 0
40 0 0 -50z m-320 -230 l0 -40 -40 0 -40 0 0 40 0 40 40 0 40 0 0 -40z m110 0
l0 -40 -40 0 -40 0 0 40 0 40 40 0 40 0 0 -40z"/>
</g>
</svg>
