<?xml version="1.0" standalone="no"?>
<!DOCTYPE svg PUBLIC "-//W3C//DTD SVG 20010904//EN"
 "http://www.w3.org/TR/2001/REC-SVG-20010904/DTD/svg10.dtd">
<svg version="1.0" xmlns="http://www.w3.org/2000/svg"
 width="468pt" height="468pt" viewBox="0 0 468 468"
 preserveAspectRatio="xMidYMid meet">
<metadata>
Created by potrace 1.8, written by Peter Selinger 2001-2007
</metadata>
<g transform="translate(0,468) scale(0.365625,-0.365625)"
fill="#000000" stroke="none">
<path d="M0 640 l0 -640 640 0 640 0 0 640 0 640 -640 0 -640 0 0 -640z m320
570 l0 -10 -10 0 -10 0 0 10 0 10 10 0 10 0 0 -10z m800 -60 l0 -10 -20 0 -20
0 0 10 0 10 20 0 20 0 0 -10z m-420 -20 l0 -10 -10 0 -10 0 0 10 0 10 10 0 10
0 0 -10z m-40 -20 l0 -10 -10 0 -10 0 0 -20 0 -20 -40 0 -40 0 0 -9 0 -9 12
-4 13 -5 -17 -16 -17 -17 -5 0 -6 0 0 20 0 20 -10 0 -10 0 0 -10 0 -10 -20 0
-20 0 0 -20 0 -20 -10 0 -10 0 0 -20 0 -20 20 0 20 0 0 10 0 10 30 0 30 0 0
10 0 10 40 0 40 0 0 10 0 10 19 0 19 0 6 13 6 12 6 -12 6 -13 29 0 29 0 0 10
0 10 -10 0 -10 0 0 10 0 10 30 0 30 0 0 -5 0 -6 -25 -24 -24 -25 -56 0 -55 0
0 -10 0 -10 -40 0 -40 0 0 -10 0 -10 -30 0 -30 0 0 -10 0 -10 -30 0 -30 0 0
-10 0 -10 -15 0 -16 0 -24 -25 -25 -24 0 -26 0 -25 -10 0 -10 0 0 10 0 10 -10
0 -10 0 0 -20 0 -20 -10 0 -10 0 0 -20 0 -20 20 0 20 0 0 20 0 20 10 0 10 0 0
-56 0 -55 14 -15 15 -14 5 0 6 0 0 26 0 25 15 16 16 15 7 -7 7 -8 -12 -4 -13
-5 0 -29 0 -29 -10 0 -10 0 0 -20 0 -20 20 0 20 0 0 -10 0 -10 70 0 70 0 0 6
0 5 -17 17 -16 17 -5 -13 -4 -12 -19 0 -19 0 0 10 0 10 -30 0 -30 0 0 10 0 10
29 0 29 0 4 -12 5 -13 16 17 17 17 0 15 0 16 10 0 10 0 0 40 0 40 -10 0 -10 0
0 40 0 40 10 0 10 0 0 -40 0 -40 10 0 10 0 0 10 0 10 10 0 10 0 0 -20 0 -20
10 0 10 0 0 20 0 20 30 0 30 0 0 10 0 10 29 0 29 0 5 13 4 12 32 -34 33 -35 8
14 8 13 16 -16 16 -16 0 -15 0 -16 30 0 30 0 0 -10 0 -10 -10 0 -10 0 0 -10 0
-10 16 0 15 0 15 -14 14 -15 0 -15 0 -16 10 0 10 0 0 -19 0 -19 13 -6 12 -6
-12 -6 -13 -6 0 -19 0 -19 -20 0 -20 0 0 -30 0 -30 10 0 10 0 0 20 0 20 10 0
10 0 0 -18 0 -18 -20 -14 -20 -14 0 -18 0 -18 -10 0 -10 0 0 -15 0 -15 -65
-65 -65 -65 -35 0 -35 0 0 10 0 10 35 0 36 0 44 45 45 44 0 26 0 25 20 0 20 0
0 19 0 19 13 6 12 6 -12 6 -13 6 0 49 0 49 9 0 9 0 4 -12 5 -13 19 19 19 19
-13 5 -12 4 0 19 0 19 -10 0 -10 0 0 20 0 20 -20 0 -20 0 0 10 0 10 -16 0 -16
0 -28 30 -28 30 -22 0 -21 0 -16 16 -16 16 14 8 13 9 -6 7 -7 6 -17 -17 -17
-17 14 -8 13 -9 -23 -21 -24 -20 8 -8 8 -7 4 13 5 12 9 0 9 0 0 -16 0 -15 16
-16 16 -16 8 13 8 13 17 -16 16 -17 -17 -17 -17 -18 -5 13 -4 12 -15 0 -16 0
-18 22 -19 21 -7 -6 -6 -7 21 -19 22 -18 0 -13 0 -13 -22 -20 -23 -20 13 -4
12 -5 0 -19 0 -19 -36 0 -35 0 -17 17 -17 16 13 5 12 4 0 9 0 9 -20 0 -20 0 0
-10 0 -10 -80 0 -80 0 0 -9 0 -9 13 -5 12 -4 -9 -9 -9 -9 -4 13 -5 12 -19 0
-19 0 0 9 0 9 12 4 13 5 -19 19 -19 19 -5 -13 -4 -12 -15 0 -14 0 -16 15 -15
16 7 7 8 7 4 -12 5 -13 19 0 19 0 0 6 0 6 -40 38 -40 38 0 26 0 26 -10 0 -10
0 0 26 0 26 30 28 30 28 0 16 0 16 20 0 20 0 0 20 0 20 30 0 30 0 0 10 0 10
-20 0 -20 0 0 10 0 10 10 0 10 0 0 20 0 20 20 0 20 0 0 9 0 9 -12 4 -13 5 18
18 19 18 10 -14 10 -14 5 13 5 12 19 0 19 0 0 10 0 10 20 0 20 0 0 10 0 10 20
0 20 0 0 10 0 10 20 0 20 0 0 -10z m380 -10 l0 -20 -20 0 -20 0 0 5 0 6 13 14
12 14 8 1 7 0 0 -20z m-840 -20 l0 -20 -10 0 -10 0 0 20 0 20 10 0 10 0 0 -20z
m500 10 l0 -10 -10 0 -10 0 0 10 0 10 10 0 10 0 0 -10z m100 0 l0 -10 -10 0
-10 0 0 10 0 10 10 0 10 0 0 -10z m140 -60 l0 -10 -50 0 -50 0 0 10 0 10 50 0
50 0 0 -10z m-600 -40 l0 -10 -10 0 -10 0 0 10 0 10 10 0 10 0 0 -10z m480 0
l0 -10 -10 0 -10 0 0 10 0 10 10 0 10 0 0 -10z m80 0 l0 -10 -10 0 -10 0 0 10
0 10 10 0 10 0 0 -10z m-560 -40 l0 -10 -10 0 -10 0 0 10 0 10 10 0 10 0 0
-10z m680 0 l0 -10 20 0 20 0 0 -10 0 -10 -16 0 -15 0 -15 14 -14 15 0 5 0 6
10 0 10 0 0 -10z m-280 -16 l0 -5 -14 -15 -15 -14 -15 0 -16 0 0 10 0 10 20 0
20 0 0 10 0 10 10 0 10 0 0 -6z m40 -4 l0 -10 20 0 20 0 0 -10 0 -10 18 0 18
0 14 -20 14 -20 28 0 28 0 0 -10 0 -10 -28 0 -28 0 -14 20 -14 20 -18 0 -18 0
0 10 0 10 -16 0 -15 0 -15 14 -14 15 0 5 0 6 10 0 10 0 0 -10z m480 -20 l0
-30 -10 0 -10 0 0 30 0 30 10 0 10 0 0 -30z m-940 0 l0 -10 -20 0 -20 0 0 10
0 10 20 0 20 0 0 -10z m180 -20 l0 -10 -10 0 -10 0 0 10 0 10 10 0 10 0 0 -10z
m92 -12 l19 -22 9 14 9 14 7 -6 6 -7 -25 -25 -26 -26 -6 0 -5 0 0 20 0 20 -10
0 -10 0 0 20 0 20 6 0 7 0 19 -22z m528 12 l0 -10 -10 0 -10 0 0 10 0 10 10 0
10 0 0 -10z m-800 -20 l0 -10 -10 0 -10 0 0 10 0 10 10 0 10 0 0 -10z m380
-20 l0 -10 -10 0 -10 0 0 10 0 10 10 0 10 0 0 -10z m460 0 l0 -10 -10 0 -10 0
0 10 0 10 10 0 10 0 0 -10z m-740 -30 l0 -20 -10 0 -10 0 0 20 0 20 10 0 10 0
0 -20z m80 -10 l0 -30 -10 0 -10 0 0 -29 0 -29 13 -5 12 -4 -7 -8 -7 -7 -16
15 -15 16 0 24 0 25 13 5 12 5 -14 10 -14 10 14 16 14 15 8 1 7 0 0 -30z m500
0 l0 -10 -20 0 -20 0 0 10 0 10 20 0 20 0 0 -10z m-800 -20 l0 -10 -10 0 -10
0 0 10 0 10 10 0 10 0 0 -10z m967 -5 l15 -16 -5 -6 -6 -5 -16 15 -15 16 0 5
0 6 6 0 5 0 16 -15z m-941 -39 l14 -15 0 -5 0 -6 -16 0 -15 0 -15 14 -14 15 0
5 0 6 16 0 15 0 15 -14z m174 -6 l0 -20 -10 0 -10 0 0 20 0 20 10 0 10 0 0
-20z m640 0 l0 -20 -10 0 -10 0 0 20 0 20 10 0 10 0 0 -20z m120 -10 l0 -10
-10 0 -10 0 0 10 0 10 10 0 10 0 0 -10z m-360 -20 l0 -10 -20 0 -20 0 0 10 0
10 20 0 20 0 0 -10z m-560 -20 l0 -10 -10 0 -10 0 0 10 0 10 10 0 10 0 0 -10z
m820 -30 l0 -20 -10 0 -10 0 0 20 0 20 10 0 10 0 0 -20z m-800 -10 l0 -10 -10
0 -10 0 0 10 0 10 10 0 10 0 0 -10z m-80 -20 l0 -10 -10 0 -10 0 0 10 0 10 10
0 10 0 0 -10z m120 0 l0 -10 -10 0 -10 0 0 10 0 10 10 0 10 0 0 -10z m620 0
l0 -10 -10 0 -10 0 0 10 0 10 10 0 10 0 0 -10z m-60 -20 l0 -10 -10 0 -10 0 0
10 0 10 10 0 10 0 0 -10z m-80 -20 l0 -10 16 0 15 0 15 -14 14 -15 0 -15 0
-16 -15 0 -16 0 -34 -35 -35 -34 0 -16 0 -15 -30 0 -30 0 0 -9 0 -9 13 -5 12
-4 -8 -9 -8 -8 -9 14 -9 14 -22 -24 -22 -25 -4 13 -5 12 -19 0 -19 0 0 10 0
10 -46 0 -45 0 -16 15 -15 16 7 7 8 7 4 -12 5 -13 19 0 19 0 0 10 0 10 20 0
20 0 0 -10 0 -10 20 0 20 0 0 -10 0 -10 20 0 20 0 0 9 0 9 -12 5 -13 4 8 9 8
8 10 -14 11 -15 5 13 5 12 19 0 19 0 0 10 0 10 20 0 20 0 0 18 0 18 20 14 20
14 0 18 0 18 -20 0 -20 0 0 5 0 6 13 14 12 14 8 1 7 0 0 -10z m160 0 l0 -10
-10 0 -10 0 0 10 0 10 10 0 10 0 0 -10z m120 -20 l0 -10 -10 0 -10 0 0 10 0
10 10 0 10 0 0 -10z m-460 -40 l0 -10 -29 0 -29 0 -5 -12 -4 -13 -8 7 -7 7 13
15 14 15 28 1 27 0 0 -10z m-345 -35 l25 -24 0 -15 0 -14 13 -5 12 -4 -7 -8
-7 -7 -25 25 -26 26 0 16 0 15 -10 0 -10 0 0 10 0 10 5 0 6 0 24 -25z m245 15
l0 -10 -10 0 -10 0 0 10 0 10 10 0 10 0 0 -10z m400 0 l0 -10 -20 0 -20 0 0
10 0 10 20 0 20 0 0 -10z m160 0 l0 -10 -10 0 -10 0 0 10 0 10 10 0 10 0 0
-10z m-665 -35 l25 -24 0 -6 0 -5 -20 0 -20 0 0 20 0 20 -10 0 -10 0 0 10 0
10 5 0 6 0 24 -25z m245 15 l0 -10 -40 0 -40 0 0 10 0 10 40 0 40 0 0 -10z
m380 -40 l0 -10 -10 0 -10 0 0 10 0 10 10 0 10 0 0 -10z m-200 -20 l0 -10 -20
0 -20 0 0 10 0 10 20 0 20 0 0 -10z m40 -20 l0 -30 -10 0 -10 0 0 30 0 30 10
0 10 0 0 -30z m-440 -20 l0 -10 -10 0 -10 0 0 10 0 10 10 0 10 0 0 -10z m380
4 l0 -5 -15 -16 -16 -15 -5 5 -6 6 13 15 14 15 8 1 7 0 0 -6z m440 -24 l0 -30
-10 0 -10 0 0 30 0 30 10 0 10 0 0 -30z m-854 -4 l14 -15 0 -5 0 -6 -16 0 -15
0 -15 14 -14 15 0 5 0 6 16 0 15 0 15 -14z m174 8 l0 -5 -14 -15 -15 -14 -15
0 -16 0 0 10 0 10 20 0 20 0 0 10 0 10 10 0 10 0 0 -6z m-80 -24 l0 -10 -10 0
-10 0 0 10 0 10 10 0 10 0 0 -10z m200 -40 l0 -10 -20 0 -20 0 0 10 0 10 20 0
20 0 0 -10z m-220 -40 l0 -10 40 0 40 0 0 -10 0 -10 -40 0 -40 0 0 10 0 10
-30 0 -30 0 0 10 0 10 30 0 30 0 0 -10z m120 -20 l0 -10 30 0 30 0 0 -10 0
-10 -26 0 -25 0 -15 14 -14 15 0 5 0 6 10 0 10 0 0 -10z m120 -20 l0 -10 -20
0 -20 0 0 10 0 10 20 0 20 0 0 -10z m440 0 l0 -10 -10 0 -10 0 0 10 0 10 10 0
10 0 0 -10z m-900 -20 l0 -10 -10 0 -10 0 0 10 0 10 10 0 10 0 0 -10z m-60
-20 l0 -10 -10 0 -10 0 0 10 0 10 10 0 10 0 0 -10z m240 -60 l0 -10 -10 0 -10
0 0 10 0 10 10 0 10 0 0 -10z m480 -16 l0 -5 -14 -15 -15 -14 -15 0 -16 0 0
10 0 10 20 0 20 0 0 10 0 10 10 0 10 0 0 -6z m220 -20 l0 -5 -15 -16 -16 -15
-5 5 -6 6 13 15 14 15 8 1 7 0 0 -6z m-800 -24 l0 -10 -10 0 -10 0 0 10 0 10
10 0 10 0 0 -10z m440 0 l0 -10 -20 0 -20 0 0 10 0 10 20 0 20 0 0 -10z"/>
<path d="M640 710 l0 -10 10 0 10 0 0 10 0 10 -10 0 -10 0 0 -10z"/>
<path d="M580 670 l0 -10 10 0 10 0 0 10 0 10 -10 0 -10 0 0 -10z"/>
<path d="M780 650 l0 -10 10 0 10 0 0 10 0 10 -10 0 -10 0 0 -10z"/>
<path d="M580 630 l0 -10 10 0 10 0 0 10 0 10 -10 0 -10 0 0 -10z"/>
<path d="M620 610 l0 -10 10 0 10 0 0 10 0 10 -10 0 -10 0 0 -10z"/>
<path d="M660 570 l0 -10 10 0 10 0 0 10 0 10 -10 0 -10 0 0 -10z"/>
<path d="M800 550 l0 -10 10 0 10 0 0 10 0 10 -10 0 -10 0 0 -10z"/>
</g>
</svg>
