<?xml version="1.0" standalone="no"?>
<!DOCTYPE svg PUBLIC "-//W3C//DTD SVG 20010904//EN"
 "http://www.w3.org/TR/2001/REC-SVG-20010904/DTD/svg10.dtd">
<svg version="1.0" xmlns="http://www.w3.org/2000/svg"
 width="468pt" height="468pt" viewBox="0 0 468 468"
 preserveAspectRatio="xMidYMid meet">
<metadata>
Created by potrace 1.8, written by Peter Selinger 2001-2007
</metadata>
<g transform="translate(0,468) scale(0.365625,-0.365625)"
fill="#000000" stroke="none">
<path d="M460 1250 l0 -10 -30 0 -30 0 0 -10 0 -10 -28 0 -28 0 -14 -20 -14
-20 -16 0 -16 0 -14 -20 -14 -20 -13 0 -14 0 -44 -45 -45 -44 0 -14 0 -13 -20
-14 -20 -14 0 -16 0 -16 -20 -14 -20 -14 0 -28 0 -28 -10 0 -10 0 0 -20 0 -20
-10 0 -10 0 0 -30 0 -30 10 0 10 0 0 20 0 20 10 0 10 0 0 16 0 15 14 15 15 14
5 0 6 0 0 -30 0 -30 10 0 10 0 0 -20 0 -20 10 0 10 0 0 -20 0 -20 6 0 5 0 15
14 14 15 0 55 0 56 35 0 36 0 34 35 35 34 0 26 0 25 10 0 10 0 0 16 0 15 14
15 15 14 5 0 6 0 0 -20 0 -20 6 0 6 0 28 30 28 30 16 0 16 0 0 10 0 10 19 0
19 0 5 -12 4 -13 9 9 9 9 -12 4 -13 5 0 18 0 18 13 6 12 6 -12 6 -13 6 0 9 0
9 20 0 20 0 0 10 0 10 50 0 50 0 0 -10 0 -10 -10 0 -10 0 0 -20 0 -20 6 0 6 0
28 30 28 30 12 0 11 0 15 14 14 15 0 5 0 6 -70 0 -70 0 0 10 0 10 -19 0 -19 0
-6 -12 -6 -13 -6 13 -6 12 -49 0 -49 0 0 -10z"/>
<path d="M800 1234 l0 -5 14 -15 15 -14 25 0 26 0 0 -20 0 -20 10 0 10 0 0 20
0 20 19 0 19 0 5 -12 4 -13 8 7 7 7 -15 16 -16 15 -25 0 -26 0 0 10 0 10 -40
0 -40 0 0 -6z"/>
<path d="M980 1174 l0 -5 15 -16 16 -15 6 5 5 6 -15 16 -16 15 -5 0 -6 0 0 -6z"/>
<path d="M481 1034 l-23 -25 5 -6 6 -5 25 25 26 26 0 6 0 5 -7 -1 -8 0 -24
-25z"/>
<path d="M400 990 l0 -10 10 0 10 0 0 10 0 10 -10 0 -10 0 0 -10z"/>
<path d="M280 830 l0 -10 10 0 10 0 0 10 0 10 -10 0 -10 0 0 -10z"/>
<path d="M300 761 l0 -19 -12 -4 -13 -5 17 -16 17 -17 5 0 6 0 0 40 0 40 -10
0 -10 0 0 -19z"/>
<path d="M213 705 l-13 -14 0 -16 0 -15 -10 0 -10 0 0 -30 0 -30 16 0 15 0 15
14 14 15 0 45 0 46 -7 0 -8 -1 -12 -14z"/>
<path d="M80 690 l0 -10 10 0 10 0 0 -20 0 -20 10 0 10 0 0 -30 0 -30 10 0 10
0 0 35 0 36 -25 24 -24 25 -6 0 -5 0 0 -10z"/>
<path d="M260 600 l0 -20 10 0 10 0 0 20 0 20 -10 0 -10 0 0 -20z"/>
<path d="M380 610 l0 -10 10 0 10 0 0 10 0 10 -10 0 -10 0 0 -10z"/>
<path d="M420 605 l0 -16 25 -24 24 -25 15 0 14 0 6 13 6 12 6 -12 6 -13 9 0
9 0 0 16 0 15 -14 15 -15 14 -25 0 -26 0 0 10 0 10 -20 0 -20 0 0 -15z"/>
<path d="M620 570 l0 -10 10 0 10 0 0 10 0 10 -10 0 -10 0 0 -10z"/>
<path d="M480 480 l0 -40 -10 0 -10 0 0 10 0 10 -20 0 -20 0 0 20 0 20 -30 0
-30 0 0 -10 0 -10 -16 0 -15 0 -15 -14 -14 -15 0 -15 0 -16 -16 0 -15 0 -15
-14 -14 -15 0 -15 0 -16 10 0 10 0 0 -15 0 -16 25 -24 24 -25 26 0 25 0 0 10
0 10 38 0 38 0 14 -20 14 -20 18 0 18 0 0 -10 0 -10 40 0 40 0 0 20 0 20 10 0
10 0 0 19 0 19 13 6 12 6 -12 6 -13 6 0 15 0 15 -30 28 -30 28 0 14 0 14 -20
14 -20 14 0 18 0 18 -10 0 -10 0 0 -40z"/>
<path d="M800 240 l0 -20 -16 0 -15 0 -16 -15 -15 -16 7 -7 8 -7 4 13 5 12 15
0 14 0 15 14 14 15 0 15 0 16 -10 0 -10 0 0 -20z"/>
<path d="M560 210 l0 -10 10 0 10 0 0 10 0 10 -10 0 -10 0 0 -10z"/>
<path d="M400 50 l0 -10 20 0 20 0 0 10 0 10 -20 0 -20 0 0 -10z"/>
<path d="M460 40 l0 -20 50 0 50 0 0 -10 0 -10 46 0 45 0 15 14 14 15 0 5 0 6
-100 0 -100 0 0 10 0 10 -10 0 -10 0 0 -20z"/>
</g>
</svg>
