<?xml version="1.0" standalone="no"?>
<!DOCTYPE svg PUBLIC "-//W3C//DTD SVG 20010904//EN"
 "http://www.w3.org/TR/2001/REC-SVG-20010904/DTD/svg10.dtd">
<svg version="1.0" xmlns="http://www.w3.org/2000/svg"
 width="468pt" height="468pt" viewBox="0 0 468 468"
 preserveAspectRatio="xMidYMid meet">
<metadata>
Created by potrace 1.8, written by Peter Selinger 2001-2007
</metadata>
<g transform="translate(0,468) scale(0.365625,-0.365625)"
fill="#000000" stroke="none">
<path d="M0 640 l0 -640 640 0 640 0 0 640 0 640 -640 0 -640 0 0 -640z m1260
185 l0 -435 -620 0 -620 0 0 435 0 435 620 0 620 0 0 -435z"/>
<path d="M50 820 l0 -410 590 0 590 0 0 410 0 410 -590 0 -590 0 0 -410z m60
380 l0 -10 14 0 14 0 5 13 5 12 12 -15 12 -15 5 13 5 12 13 0 13 0 5 -12 5
-13 11 15 11 15 11 -15 11 -15 5 13 5 12 13 0 13 0 5 -12 5 -13 11 15 10 14 7
-7 7 -7 -21 -19 -22 -18 0 -11 0 -10 13 -5 12 -5 -15 -12 -15 -12 13 -5 12 -5
0 -13 0 -13 -12 -5 -13 -5 15 -11 15 -11 -15 -11 -15 -11 13 -5 12 -5 0 -13 0
-13 -12 -5 -13 -5 15 -12 15 -12 -12 -5 -13 -5 0 -10 0 -11 22 -18 21 -19 -7
-7 -7 -7 -10 14 -11 15 -5 -12 -5 -13 -13 0 -13 0 -5 13 -4 12 -23 -25 -23
-25 -4 13 -5 12 -10 0 -9 0 -15 -14 -14 -15 0 -6 0 -6 14 -15 15 -14 6 0 6 0
15 14 14 15 0 10 0 11 420 0 420 0 0 6 0 5 -16 16 -16 16 -10 -14 -10 -14 -5
13 -5 12 -13 0 -13 0 -5 -12 -4 -13 -9 8 -8 8 14 10 15 11 -12 5 -13 5 0 13 0
13 13 5 12 5 -15 12 -15 12 13 5 12 5 0 13 0 13 -12 5 -13 5 15 11 15 11 -15
11 -15 11 13 5 12 5 0 13 0 13 -12 5 -13 5 15 12 15 12 -12 5 -13 5 0 13 0 13
13 5 12 5 -15 11 -14 10 8 8 9 8 4 -12 5 -13 13 0 13 0 5 13 5 12 11 -15 11
-15 11 15 11 15 5 -12 5 -13 13 0 13 0 5 13 5 12 12 -15 12 -15 5 13 5 12 13
0 13 0 5 -12 5 -13 11 15 10 14 8 -7 7 -8 -14 -10 -15 -11 13 -5 12 -5 0 -13
0 -13 -12 -5 -13 -5 15 -12 15 -12 -12 -5 -13 -5 0 -13 0 -13 13 -5 12 -5 -15
-11 -15 -11 15 -11 15 -11 -12 -5 -13 -5 0 -13 0 -13 13 -5 12 -5 -15 -12 -15
-12 13 -5 12 -5 0 -13 0 -13 -12 -5 -13 -5 15 -11 15 -11 -15 -11 -15 -11 13
-5 12 -5 0 -13 0 -13 -13 -5 -12 -5 15 -12 15 -12 -12 -5 -13 -5 0 -13 0 -13
13 -5 12 -5 -15 -11 -15 -11 15 -11 15 -11 -12 -5 -13 -5 0 -13 0 -13 13 -5
12 -5 -15 -12 -15 -12 13 -5 12 -5 0 -13 0 -13 -12 -5 -13 -5 15 -11 15 -11
-15 -11 -15 -11 13 -5 12 -5 0 -13 0 -13 -12 -5 -13 -5 15 -12 15 -12 -12 -5
-13 -5 0 -14 0 -14 -10 0 -10 0 0 15 0 15 -15 0 -15 0 0 -15 0 -15 -10 0 -10
0 0 11 0 10 -14 15 -15 14 -6 0 -6 0 -15 -14 -14 -15 0 -10 0 -11 -10 0 -10 0
0 11 0 10 -14 15 -15 14 -6 0 -6 0 -15 -14 -14 -15 0 -10 0 -11 -10 0 -10 0 0
15 0 15 -15 0 -15 0 0 -15 0 -15 -10 0 -10 0 0 15 0 15 -10 0 -10 0 0 -15 0
-15 -10 0 -10 0 0 15 0 15 -15 0 -15 0 0 -15 0 -15 -10 0 -10 0 0 11 0 10 -14
15 -15 14 -6 0 -6 0 -15 -14 -14 -15 0 -10 0 -11 -10 0 -10 0 0 11 0 10 -14
15 -15 14 -6 0 -6 0 -15 -14 -14 -15 0 -10 0 -11 -10 0 -10 0 0 15 0 15 -15 0
-15 0 0 -15 0 -15 -10 0 -10 0 0 15 0 15 -10 0 -10 0 0 -15 0 -15 -10 0 -10 0
0 15 0 15 -15 0 -15 0 0 -15 0 -15 -10 0 -10 0 0 11 0 10 -14 15 -15 14 -6 0
-6 0 -15 -14 -14 -15 0 -10 0 -11 -10 0 -10 0 0 11 0 10 -14 15 -15 14 -6 0
-6 0 -15 -14 -14 -15 0 -10 0 -11 -10 0 -10 0 0 15 0 15 -15 0 -15 0 0 -15 0
-15 -10 0 -10 0 0 15 0 15 -10 0 -10 0 0 -15 0 -15 -10 0 -10 0 0 15 0 15 -15
0 -15 0 0 -15 0 -15 -10 0 -10 0 0 11 0 10 -14 15 -15 14 -6 0 -6 0 -15 -14
-14 -15 0 -10 0 -11 -10 0 -10 0 0 14 0 14 12 5 13 5 -15 12 -15 12 13 5 12 5
0 13 0 13 -12 5 -13 5 15 11 15 11 -15 11 -15 11 13 5 12 5 0 13 0 13 -12 5
-13 5 15 12 15 12 -12 5 -13 5 0 13 0 13 12 5 13 5 -15 11 -15 11 15 11 15 11
-12 5 -13 5 0 13 0 13 13 5 12 5 -15 12 -15 12 12 5 13 5 0 13 0 13 -12 5 -13
5 15 11 15 11 -15 11 -15 11 13 5 12 5 0 13 0 13 -12 5 -13 5 15 12 15 12 -12
5 -13 5 0 13 0 13 13 5 12 5 -15 11 -15 11 15 11 15 11 -12 5 -13 5 0 13 0 13
13 5 12 5 -15 12 -15 12 13 5 12 5 0 13 0 13 -12 4 -12 4 14 17 15 16 8 1 7 0
0 -10z m280 0 l0 -10 -10 0 -10 0 0 10 0 10 10 0 10 0 0 -10z m40 0 l0 -10
-10 0 -10 0 0 10 0 10 10 0 10 0 0 -10z m50 0 l0 -10 -10 0 -10 0 0 10 0 10
10 0 10 0 0 -10z m50 0 l0 -10 -15 0 -15 0 0 10 0 10 15 0 15 0 0 -10z m40 0
l0 -10 -10 0 -10 0 0 10 0 10 10 0 10 0 0 -10z m50 0 l0 -10 -15 0 -15 0 0 10
0 10 15 0 15 0 0 -10z m40 0 l0 -10 -10 0 -10 0 0 10 0 10 10 0 10 0 0 -10z
m50 0 l0 -10 -10 0 -10 0 0 10 0 10 10 0 10 0 0 -10z m40 0 l0 -10 -10 0 -10
0 0 10 0 10 10 0 10 0 0 -10z m50 0 l0 -10 -10 0 -10 0 0 10 0 10 10 0 10 0 0
-10z m50 0 l0 -10 -15 0 -15 0 0 10 0 10 15 0 15 0 0 -10z m40 0 l0 -10 -10 0
-10 0 0 10 0 10 10 0 10 0 0 -10z m50 0 l0 -10 -15 0 -15 0 0 10 0 10 15 0 15
0 0 -10z m0 -160 l0 -130 -300 0 -300 0 0 130 0 130 300 0 300 0 0 -130z
m-550 -160 l0 -10 -10 0 -10 0 0 10 0 10 10 0 10 0 0 -10z m40 0 l0 -10 -10 0
-10 0 0 10 0 10 10 0 10 0 0 -10z m50 0 l0 -10 -10 0 -10 0 0 10 0 10 10 0 10
0 0 -10z m50 0 l0 -10 -15 0 -15 0 0 10 0 10 15 0 15 0 0 -10z m40 0 l0 -10
-10 0 -10 0 0 10 0 10 10 0 10 0 0 -10z m50 0 l0 -10 -15 0 -15 0 0 10 0 10
15 0 15 0 0 -10z m40 0 l0 -10 -10 0 -10 0 0 10 0 10 10 0 10 0 0 -10z m50 0
l0 -10 -10 0 -10 0 0 10 0 10 10 0 10 0 0 -10z m40 0 l0 -10 -10 0 -10 0 0 10
0 10 10 0 10 0 0 -10z m50 0 l0 -10 -10 0 -10 0 0 10 0 10 10 0 10 0 0 -10z
m50 0 l0 -10 -15 0 -15 0 0 10 0 10 15 0 15 0 0 -10z m40 0 l0 -10 -10 0 -10
0 0 10 0 10 10 0 10 0 0 -10z m50 0 l0 -10 -15 0 -15 0 0 10 0 10 15 0 15 0 0
-10z m-730 -45 l0 -15 -15 0 -15 0 0 15 0 15 15 0 15 0 0 -15z m-70 -390 l0
-15 -15 0 -15 0 0 15 0 15 15 0 15 0 0 -15z m230 0 l0 -15 -15 0 -15 0 0 15 0
15 15 0 15 0 0 -15z m90 0 l0 -15 -15 0 -15 0 0 15 0 15 15 0 15 0 0 -15z
m230 0 l0 -15 -15 0 -15 0 0 15 0 15 15 0 15 0 0 -15z m90 0 l0 -15 -15 0 -15
0 0 15 0 15 15 0 15 0 0 -15z m230 0 l0 -15 -15 0 -15 0 0 15 0 15 15 0 15 0
0 -15z m90 0 l0 -15 -15 0 -15 0 0 15 0 15 15 0 15 0 0 -15z"/>
<path d="M90 1180 l0 -10 10 0 10 0 0 -14 0 -14 -12 -5 -13 -5 15 -12 15 -12
-12 -5 -13 -5 0 -13 0 -13 13 -5 12 -5 -15 -11 -15 -11 15 -11 15 -11 -12 -5
-13 -5 0 -13 0 -13 13 -5 12 -5 -15 -12 -15 -12 13 -5 12 -5 0 -13 0 -13 -12
-5 -13 -5 15 -11 15 -11 -15 -11 -15 -11 13 -5 12 -5 0 -13 0 -13 -12 -5 -13
-5 15 -12 15 -12 -12 -5 -13 -5 0 -13 0 -13 13 -5 12 -5 -15 -11 -15 -11 15
-11 15 -11 -12 -5 -13 -5 0 -13 0 -13 13 -5 12 -5 -15 -12 -15 -12 13 -5 12
-5 0 -13 0 -13 -13 -5 -12 -5 15 -11 15 -11 -15 -11 -15 -11 13 -5 12 -5 0
-13 0 -13 -13 -5 -12 -4 9 -9 9 -9 4 13 5 12 10 0 11 0 20 -22 20 -23 4 13 5
12 13 0 13 0 5 -12 5 -13 11 15 11 15 11 -15 11 -15 5 13 5 12 13 0 13 0 5
-12 4 -13 20 23 20 22 8 0 8 0 18 -22 19 -21 19 21 18 22 8 0 8 0 20 -22 20
-23 4 13 5 12 13 0 13 0 5 -12 5 -13 11 15 11 15 11 -15 11 -15 5 13 5 12 13
0 13 0 5 -12 4 -13 20 22 20 23 8 0 8 0 18 -22 19 -21 19 21 18 22 8 0 8 0 20
-22 20 -23 4 13 5 12 13 0 13 0 5 -12 5 -13 11 15 11 15 11 -15 11 -15 5 13 5
12 13 0 13 0 5 -12 4 -13 20 22 20 23 8 0 8 0 18 -22 19 -21 19 21 18 22 8 0
8 0 20 -22 20 -23 4 13 5 12 13 0 13 0 5 -12 4 -13 9 8 8 8 -14 10 -15 11 13
5 12 5 0 13 0 13 -12 5 -13 5 15 11 15 11 -15 11 -15 11 12 5 13 5 0 13 0 13
-12 5 -13 5 15 12 15 12 -12 5 -13 5 0 13 0 13 12 5 13 5 -15 11 -15 11 15 11
15 11 -12 5 -13 5 0 13 0 13 13 5 12 5 -15 12 -15 12 13 5 12 5 0 13 0 13 -12
5 -13 5 15 11 15 11 -15 11 -15 11 12 5 13 5 0 13 0 13 -12 5 -13 5 15 12 15
12 -12 5 -13 5 0 13 0 13 13 5 12 5 -15 11 -15 11 15 11 15 11 -12 5 -13 5 0
13 0 13 12 5 13 5 -15 12 -15 12 13 5 12 5 0 10 0 9 -14 15 -15 14 -9 0 -10 0
-5 -12 -5 -13 -12 15 -12 15 -5 -12 -5 -13 -13 0 -13 0 -5 13 -5 12 -11 -15
-11 -15 -11 15 -11 15 -5 -12 -5 -13 -14 0 -14 0 0 -15 0 -15 15 0 15 0 0 15
0 15 10 0 10 0 0 -11 0 -10 -14 -15 -15 -14 -10 0 -11 0 0 -10 0 -10 15 0 15
0 0 -15 0 -15 -15 0 -15 0 0 -10 0 -10 15 0 15 0 0 -10 0 -10 -15 0 -15 0 0
-10 0 -10 15 0 15 0 0 -15 0 -15 -15 0 -15 0 0 -10 0 -10 11 0 10 0 15 -14 14
-15 0 -10 0 -11 -10 0 -10 0 0 15 0 15 -15 0 -15 0 0 -15 0 -15 14 0 14 0 5
-12 5 -13 11 15 10 14 19 -22 19 -22 7 0 7 0 15 -14 14 -15 0 -10 0 -11 -10 0
-10 0 0 15 0 15 -15 0 -15 0 0 -15 0 -15 14 0 14 0 5 -12 5 -13 12 15 12 15 5
-12 5 -13 14 0 14 0 0 -10 0 -10 -14 0 -14 0 -6 13 -6 12 -6 -12 -6 -13 -464
0 -465 0 -24 25 -25 24 0 6 0 6 25 24 24 25 10 0 9 0 5 -12 4 -13 23 25 23 25
4 -12 5 -13 14 0 14 0 0 10 0 10 -15 0 -15 0 0 15 0 15 15 0 15 0 0 10 0 10
-11 0 -10 0 -15 14 -14 15 0 6 0 6 14 15 15 14 10 0 11 0 0 10 0 10 -11 0 -10
0 -15 14 -14 15 0 6 0 6 14 15 15 14 10 0 11 0 0 10 0 10 -15 0 -15 0 0 15 0
15 15 0 15 0 0 10 0 10 -14 0 -14 0 -5 -12 -5 -13 -11 15 -11 15 -11 -15 -11
-15 -5 13 -5 12 -13 0 -13 0 -5 -12 -5 -13 -12 15 -12 15 -5 -12 -5 -13 -14 0
-14 0 0 10 0 10 -10 0 -10 0 0 -10z m70 -21 l0 -10 14 -15 15 -14 6 0 6 0 15
14 14 15 0 10 0 11 10 0 10 0 0 -14 0 -14 13 -5 12 -4 -22 -20 -23 -20 0 -8 0
-8 22 -18 21 -19 -21 -19 -22 -18 0 -8 0 -8 23 -20 22 -20 -12 -4 -13 -5 0
-10 0 -9 -17 -17 -16 -17 -5 13 -4 12 -10 0 -10 0 -28 -30 -28 -30 -11 0 -11
0 0 10 0 10 15 0 15 0 0 10 0 10 -15 0 -15 0 0 10 0 10 15 0 15 0 0 15 0 15
-15 0 -15 0 0 10 0 10 11 0 10 0 15 14 14 15 0 6 0 6 -14 15 -15 14 -10 0 -11
0 0 10 0 10 11 0 10 0 15 14 14 15 0 6 0 6 -14 15 -15 14 -10 0 -11 0 0 10 0
10 15 0 15 0 0 15 0 15 10 0 10 0 0 -11z m50 -4 l0 -15 -15 0 -15 0 0 15 0 15
15 0 15 0 0 -15z m860 0 l0 -15 15 0 15 0 0 15 0 15 10 0 10 0 0 -11 0 -10 14
-15 15 -14 10 0 11 0 0 -10 0 -10 -15 0 -15 0 0 -15 0 -15 15 0 15 0 0 -10 0
-10 -15 0 -15 0 0 -10 0 -10 15 0 15 0 0 -10 0 -10 -15 0 -15 0 0 -15 0 -15
15 0 15 0 0 -10 0 -10 -11 0 -10 0 -15 -14 -14 -15 0 -6 0 -6 14 -15 15 -14
10 0 11 0 0 -10 0 -10 -15 0 -15 0 0 -10 0 -10 15 0 15 0 0 -15 0 -15 -15 0
-15 0 0 10 0 11 -25 24 -24 25 -6 0 -6 0 -15 14 -14 15 0 7 0 7 -22 20 -23 20
13 4 12 5 0 13 0 13 -12 5 -13 5 15 11 15 11 -15 11 -15 11 13 5 12 5 0 13 0
13 -12 5 -13 4 23 20 22 20 0 12 0 11 10 0 10 0 0 -15z m100 0 l0 -15 -15 0
-15 0 0 15 0 15 15 0 15 0 0 -15z m-1030 -70 l0 -15 -15 0 -15 0 0 15 0 15 15
0 15 0 0 -15z m0 -90 l0 -15 -15 0 -15 0 0 15 0 15 15 0 15 0 0 -15z m1030
-70 l0 -15 -15 0 -15 0 0 15 0 15 15 0 15 0 0 -15z m-1022 -122 l17 -16 -13
-5 -12 -4 0 -9 0 -10 25 -24 24 -25 11 0 10 0 0 -10 0 -10 -15 0 -15 0 0 -15
0 -15 11 0 12 0 19 -22 19 -22 10 14 11 15 5 -12 5 -13 13 0 13 0 5 13 5 12
12 -15 12 -15 5 13 5 12 13 0 13 0 5 -12 5 -13 11 15 11 15 11 -15 11 -15 5
13 5 12 13 0 13 0 5 -12 5 -13 12 15 12 15 5 -12 5 -13 13 0 13 0 5 13 5 12
11 -15 11 -15 11 15 11 15 5 -12 5 -13 13 0 13 0 5 13 5 12 12 -15 12 -15 5
13 5 12 13 0 13 0 5 -12 5 -13 11 15 11 15 11 -15 11 -15 5 13 5 12 13 0 13 0
5 -12 5 -13 12 15 12 15 5 -12 5 -13 13 0 13 0 5 13 5 12 11 -15 11 -15 11 15
11 15 5 -12 5 -13 13 0 13 0 5 13 5 12 12 -15 12 -15 5 13 5 12 13 0 13 0 5
-12 5 -13 11 15 11 15 11 -15 11 -15 5 13 5 12 10 0 9 0 15 14 14 15 0 9 0 10
-12 4 -12 4 26 27 27 27 11 0 10 0 0 -10 0 -10 -15 0 -15 0 0 -10 0 -10 15 0
15 0 0 -10 0 -10 -15 0 -15 0 0 -15 0 -15 15 0 15 0 0 -10 0 -10 -11 0 -10 0
-15 -14 -14 -15 0 -6 0 -6 14 -15 15 -14 10 0 11 0 0 -10 0 -10 -11 0 -10 0
-15 -14 -14 -15 0 -10 0 -11 10 0 10 0 0 15 0 15 15 0 15 0 0 -15 0 -15 -14 0
-14 0 -4 -12 -5 -13 -16 17 -17 17 0 10 0 11 -15 0 -15 0 0 -11 0 -10 -15 -15
-15 -15 -15 15 -15 15 0 10 0 11 -15 0 -15 0 0 -11 0 -10 -17 -17 -16 -17 -5
13 -4 12 -13 0 -13 0 -5 -12 -5 -13 -11 15 -11 15 -11 -15 -11 -15 -5 13 -5
12 -13 0 -13 0 -4 -12 -5 -13 -16 17 -17 17 0 10 0 11 -15 0 -15 0 0 -11 0
-10 -15 -15 -15 -15 -15 15 -15 15 0 10 0 11 -15 0 -15 0 0 -11 0 -10 -17 -17
-16 -17 -5 13 -4 12 -13 0 -13 0 -5 -12 -5 -13 -11 15 -11 15 -11 -15 -11 -15
-5 13 -5 12 -13 0 -13 0 -4 -12 -5 -13 -16 17 -17 17 0 10 0 11 -15 0 -15 0 0
-11 0 -10 -15 -15 -15 -15 -15 15 -15 15 0 10 0 11 -15 0 -15 0 0 -11 0 -10
-17 -17 -16 -17 -5 13 -4 12 -13 0 -13 0 -5 -12 -5 -13 -11 15 -11 15 -11 -15
-11 -15 -5 13 -5 12 -13 0 -13 0 -4 -12 -5 -13 -16 17 -17 17 0 10 0 11 -15 0
-15 0 0 10 0 10 15 0 15 0 0 10 0 10 -15 0 -15 0 0 10 0 10 15 0 15 0 0 15 0
15 -15 0 -15 0 0 10 0 10 11 0 10 0 15 14 14 15 0 6 0 6 -14 15 -15 14 -10 0
-11 0 0 10 0 10 15 0 15 0 0 10 0 10 -15 0 -15 0 0 15 0 15 15 0 15 0 0 10 0
10 -15 0 -15 0 0 10 0 10 11 0 10 0 17 -17z m-8 -128 l0 -15 -15 0 -15 0 0 15
0 15 15 0 15 0 0 -15z m1030 -70 l0 -15 -15 0 -15 0 0 15 0 15 15 0 15 0 0
-15z"/>
<path d="M140 1132 l0 -8 20 -14 20 -14 0 -10 0 -9 -22 -18 -21 -19 21 -19 22
-18 0 -8 0 -8 -22 -20 -23 -20 13 -4 12 -5 0 -13 0 -13 -12 -5 -13 -4 7 -8 7
-7 16 15 15 16 0 10 0 11 15 0 15 0 0 -15 0 -15 10 0 10 0 0 14 0 14 13 5 12
4 -22 20 -23 20 0 8 0 8 22 18 21 19 -21 19 -22 18 0 8 0 8 22 18 21 19 -6 7
-7 6 -19 -21 -18 -22 -9 0 -10 0 -14 20 -14 20 -8 0 -8 0 0 -8z m76 -77 l15
-15 -15 -15 -15 -15 -6 0 -6 0 -15 15 -15 15 13 14 13 15 8 1 8 0 15 -15z m1
-90 l15 -16 -7 -7 -8 -7 -4 13 -5 12 -13 0 -13 0 -5 -12 -4 -13 -8 7 -7 7 13
15 14 15 8 1 8 0 16 -15z"/>
<path d="M180 1040 l0 -10 15 0 15 0 0 10 0 10 -15 0 -15 0 0 -10z"/>
<path d="M1040 1123 l-14 -17 12 -4 12 -4 0 -13 0 -13 -12 -5 -13 -5 15 -11
15 -11 -15 -11 -15 -11 13 -5 12 -5 0 -13 0 -13 -12 -5 -13 -4 23 -20 22 -20
0 -12 0 -11 11 0 12 0 18 -22 19 -21 7 6 6 7 -21 19 -22 18 0 8 0 8 23 20 22
20 -12 4 -13 5 0 13 0 13 13 5 12 5 -15 11 -15 11 15 11 15 11 -12 5 -13 5 0
13 0 13 12 4 13 5 -19 19 -19 19 -5 -13 -4 -12 -14 0 -14 0 0 10 0 10 -7 0 -8
-1 -15 -16z m30 -13 l0 -10 14 0 14 0 5 13 4 12 9 -9 9 -9 -12 -4 -13 -5 0
-13 0 -13 13 -5 12 -5 -15 -11 -15 -11 15 -11 15 -11 -12 -5 -13 -5 0 -13 0
-13 12 -4 13 -5 -17 -16 -17 -17 -6 0 -6 0 -17 17 -17 16 13 5 12 4 0 13 0 13
-12 5 -13 5 15 11 15 11 -15 11 -15 11 13 5 12 5 0 14 0 14 -10 0 -10 0 0 10
0 10 10 0 10 0 0 -10z"/>
<path d="M1070 1060 l0 -10 15 0 15 0 0 10 0 10 -15 0 -15 0 0 -10z"/>
<path d="M1070 1020 l0 -10 15 0 15 0 0 10 0 10 -15 0 -15 0 0 -10z"/>
<path d="M1070 970 l0 -10 15 0 15 0 0 10 0 10 -15 0 -15 0 0 -10z"/>
<path d="M140 724 l0 -5 15 -16 16 -15 6 5 5 6 -15 16 -16 15 -5 0 -6 0 0 -6z"/>
<path d="M1120 700 l0 -10 10 0 10 0 0 10 0 10 -10 0 -10 0 0 -10z"/>
<path d="M150 643 l-14 -17 12 -4 12 -4 0 -13 0 -13 -12 -5 -13 -5 15 -11 15
-11 -15 -11 -15 -11 13 -5 12 -5 0 -14 0 -14 10 0 10 0 0 15 0 15 15 0 15 0 0
-15 0 -15 10 0 10 0 0 15 0 15 10 0 10 0 0 -15 0 -15 10 0 10 0 0 15 0 15 15
0 15 0 0 -15 0 -15 10 0 10 0 0 11 0 10 14 15 15 14 6 0 6 0 15 -14 14 -15 0
-10 0 -11 10 0 10 0 0 11 0 10 14 15 15 14 6 0 6 0 15 -14 14 -15 0 -10 0 -11
10 0 10 0 0 15 0 15 15 0 15 0 0 -15 0 -15 10 0 10 0 0 15 0 15 10 0 10 0 0
-15 0 -15 10 0 10 0 0 15 0 15 15 0 15 0 0 -15 0 -15 10 0 10 0 0 11 0 10 14
15 15 14 6 0 6 0 15 -14 14 -15 0 -10 0 -11 10 0 10 0 0 11 0 10 14 15 15 14
6 0 6 0 15 -14 14 -15 0 -10 0 -11 10 0 10 0 0 15 0 15 15 0 15 0 0 -15 0 -15
10 0 10 0 0 15 0 15 10 0 10 0 0 -15 0 -15 10 0 10 0 0 15 0 15 15 0 15 0 0
-15 0 -15 10 0 10 0 0 11 0 10 14 15 15 14 6 0 6 0 15 -14 14 -15 0 -10 0 -11
10 0 10 0 0 11 0 10 14 15 15 14 9 0 10 0 4 -12 5 -13 17 18 18 18 -21 18 -21
18 0 8 0 8 22 18 21 19 -6 7 -7 6 -19 -21 -18 -22 -12 0 -11 0 0 -15 0 -15 15
0 15 0 0 -10 0 -10 -11 0 -10 0 -15 14 -14 15 0 10 0 11 -10 0 -10 0 0 -11 0
-10 -14 -15 -15 -14 -6 0 -6 0 -15 14 -14 15 0 10 0 11 -10 0 -10 0 0 -15 0
-15 -15 0 -15 0 0 15 0 15 -10 0 -10 0 0 -15 0 -15 -10 0 -10 0 0 15 0 15 -10
0 -10 0 0 -15 0 -15 -15 0 -15 0 0 15 0 15 -10 0 -10 0 0 -11 0 -10 -14 -15
-15 -14 -6 0 -6 0 -15 14 -14 15 0 10 0 11 -10 0 -10 0 0 -11 0 -10 -14 -15
-15 -14 -6 0 -6 0 -15 14 -14 15 0 10 0 11 -10 0 -10 0 0 -15 0 -15 -15 0 -15
0 0 15 0 15 -10 0 -10 0 0 -15 0 -15 -10 0 -10 0 0 15 0 15 -10 0 -10 0 0 -15
0 -15 -15 0 -15 0 0 15 0 15 -10 0 -10 0 0 -11 0 -10 -14 -15 -15 -14 -6 0 -6
0 -15 14 -14 15 0 10 0 11 -10 0 -10 0 0 -11 0 -10 -14 -15 -15 -14 -6 0 -6 0
-15 14 -14 15 0 10 0 11 -10 0 -10 0 0 -15 0 -15 -15 0 -15 0 0 15 0 15 -10 0
-10 0 0 -15 0 -15 -10 0 -10 0 0 11 0 10 -14 15 -15 14 -10 0 -11 0 0 10 0 10
-7 0 -8 -1 -15 -16z m30 -13 l0 -10 15 0 15 0 0 -11 0 -10 16 -16 16 -16 10
14 10 14 5 -12 5 -13 13 0 13 0 4 12 5 13 17 -18 17 -17 -17 -17 -17 -18 -5
13 -4 12 -13 0 -13 0 -5 -12 -5 -13 -11 15 -11 15 -11 -15 -11 -15 -5 13 -5
12 -13 0 -13 0 -5 -12 -4 -13 -9 8 -8 8 14 10 15 9 -15 11 -15 11 13 5 12 5 0
14 0 14 -10 0 -10 0 0 10 0 10 10 0 10 0 0 -10z m236 -55 l15 -15 -15 -16 -16
-15 -16 15 -15 16 13 14 13 15 3 1 3 0 15 -15z m84 5 l0 -10 14 0 14 0 5 13 5
12 11 -15 11 -15 11 15 11 15 5 -12 5 -13 13 0 13 0 4 12 5 13 17 -18 17 -17
-17 -17 -17 -18 -5 13 -4 12 -13 0 -13 0 -5 -12 -5 -13 -11 15 -11 15 -11 -15
-11 -15 -5 13 -5 12 -13 0 -13 0 -4 -12 -5 -13 -17 17 -17 18 13 14 13 15 8 1
7 0 0 -10z m236 -5 l15 -15 -15 -16 -16 -15 -16 15 -15 16 13 14 13 15 3 1 3
0 15 -15z m84 5 l0 -10 14 0 14 0 5 13 5 12 11 -15 11 -15 11 15 11 15 5 -12
5 -13 13 0 13 0 4 12 5 13 17 -18 17 -17 -17 -17 -17 -18 -5 13 -4 12 -13 0
-13 0 -5 -12 -5 -13 -11 15 -11 15 -11 -15 -11 -15 -5 13 -5 12 -13 0 -13 0
-4 -12 -5 -13 -17 17 -17 18 13 14 13 15 8 1 7 0 0 -10z m236 -5 l15 -15 -15
-16 -16 -15 -16 15 -15 16 13 14 13 15 3 1 3 0 15 -15z m64 -15 l0 -10 -10 0
-10 0 0 10 0 10 10 0 10 0 0 -10z"/>
<path d="M180 580 l0 -10 14 0 14 0 5 -12 4 -13 8 7 7 7 -15 16 -16 15 -10 0
-11 0 0 -10z"/>
<path d="M250 560 l0 -10 10 0 10 0 0 10 0 10 -10 0 -10 0 0 -10z"/>
<path d="M300 560 l0 -10 10 0 10 0 0 10 0 10 -10 0 -10 0 0 -10z"/>
<path d="M390 560 l0 -10 10 0 10 0 0 10 0 10 -10 0 -10 0 0 -10z"/>
<path d="M480 560 l0 -10 10 0 10 0 0 10 0 10 -10 0 -10 0 0 -10z"/>
<path d="M530 560 l0 -10 10 0 10 0 0 10 0 10 -10 0 -10 0 0 -10z"/>
<path d="M570 560 l0 -10 10 0 10 0 0 10 0 10 -10 0 -10 0 0 -10z"/>
<path d="M620 560 l0 -10 10 0 10 0 0 10 0 10 -10 0 -10 0 0 -10z"/>
<path d="M710 560 l0 -10 10 0 10 0 0 10 0 10 -10 0 -10 0 0 -10z"/>
<path d="M800 560 l0 -10 10 0 10 0 0 10 0 10 -10 0 -10 0 0 -10z"/>
<path d="M850 560 l0 -10 10 0 10 0 0 10 0 10 -10 0 -10 0 0 -10z"/>
<path d="M890 560 l0 -10 10 0 10 0 0 10 0 10 -10 0 -10 0 0 -10z"/>
<path d="M940 560 l0 -10 10 0 10 0 0 10 0 10 -10 0 -10 0 0 -10z"/>
<path d="M1030 560 l0 -10 10 0 10 0 0 10 0 10 -10 0 -10 0 0 -10z"/>
<path d="M340 605 l0 -15 15 0 15 0 0 15 0 15 -15 0 -15 0 0 -15z"/>
<path d="M430 605 l0 -15 15 0 15 0 0 15 0 15 -15 0 -15 0 0 -15z"/>
<path d="M660 605 l0 -15 15 0 15 0 0 15 0 15 -15 0 -15 0 0 -15z"/>
<path d="M750 605 l0 -15 15 0 15 0 0 15 0 15 -15 0 -15 0 0 -15z"/>
<path d="M980 605 l0 -15 15 0 15 0 0 15 0 15 -15 0 -15 0 0 -15z"/>
<path d="M270 1085 l0 -15 15 0 15 0 0 15 0 15 -15 0 -15 0 0 -15z"/>
<path d="M270 995 l0 -15 15 0 15 0 0 15 0 15 -15 0 -15 0 0 -15z"/>
<path d="M383 1105 l-13 -14 0 -66 0 -65 20 0 20 0 0 55 0 55 10 0 10 0 0 -10
0 -10 25 0 25 0 0 10 0 10 10 0 10 0 0 -55 0 -55 25 0 25 0 0 66 0 65 -14 15
-15 14 -63 0 -63 -1 -12 -14z"/>
<path d="M583 1105 l-13 -14 0 -66 0 -65 25 0 25 0 0 25 0 25 20 0 20 0 0 -25
0 -25 25 0 25 0 0 66 0 65 -14 15 -15 14 -43 0 -43 -1 -12 -14z m77 -45 l0
-10 -20 0 -20 0 0 10 0 10 20 0 20 0 0 -10z"/>
<path d="M730 1040 l0 -80 25 0 25 0 0 80 0 80 -25 0 -25 0 0 -80z"/>
<path d="M800 1054 l0 -65 14 -15 15 -14 40 0 41 0 0 25 0 25 -30 0 -30 0 0
55 0 55 -25 0 -25 0 0 -66z"/>
</g>
</svg>
