<?xml version="1.0" standalone="no"?>
<!DOCTYPE svg PUBLIC "-//W3C//DTD SVG 20010904//EN"
 "http://www.w3.org/TR/2001/REC-SVG-20010904/DTD/svg10.dtd">
<svg version="1.0" xmlns="http://www.w3.org/2000/svg"
 width="468pt" height="468pt" viewBox="0 0 468 468"
 preserveAspectRatio="xMidYMid meet">
<metadata>
Created by potrace 1.8, written by Peter Selinger 2001-2007
</metadata>
<g transform="translate(0,468) scale(0.365625,-0.365625)"
fill="#000000" stroke="none">
<path d="M90 1235 l0 -25 -10 0 -10 0 0 -20 0 -20 -10 0 -9 0 -7 -35 -6 -35
-9 0 -9 0 0 -380 0 -380 10 0 10 0 0 -20 0 -19 15 -13 16 -13 23 -24 24 -23
10 -10 10 -10 35 -35 35 -35 8 -9 9 -8 28 -26 27 -26 0 -9 0 -8 40 -7 40 -7 0
-9 0 -9 39 0 39 0 4 11 4 12 131 -2 131 -2 18 18 17 18 5 -14 4 -13 9 13 9 14
10 -15 10 -15 10 15 10 15 9 -15 10 -14 7 6 6 7 -17 17 -17 17 -9 -14 -9 -14
-11 15 -11 15 -5 -14 -5 -13 -10 13 -10 14 -5 -12 -5 -13 -9 0 -9 0 0 80 0 80
9 0 9 0 6 -12 6 -13 6 14 6 13 9 -13 9 -14 10 15 10 15 10 -15 10 -15 9 15 10
14 7 -7 8 -7 1 -81 1 -81 15 -9 14 -9 120 1 119 1 4 -11 4 -11 44 0 44 0 0 9
0 9 25 6 25 6 0 430 0 430 -10 0 -9 0 -7 35 -6 35 -9 0 -9 0 0 15 0 15 -10 0
-10 0 0 20 0 20 -9 0 -10 0 -4 28 -4 27 -2 -27 -1 -28 -10 0 -10 0 0 -20 0
-20 -10 0 -10 0 0 -15 0 -15 -10 0 -10 0 0 -19 0 -19 -12 -4 -13 -5 -3 -86 -4
-87 -9 0 -9 0 0 39 0 39 -16 6 -17 6 -2 -2 -3 -3 -6 -22 -7 -21 26 -26 26 -26
9 0 10 0 0 -90 0 -90 -20 0 -20 0 0 15 0 15 -25 0 -25 0 0 -15 0 -15 -20 0
-20 0 0 15 0 15 -25 0 -25 0 0 -15 0 -15 -20 0 -20 0 0 15 0 15 -25 0 -25 0 0
-15 0 -15 -20 0 -20 0 0 15 0 15 -25 0 -25 0 0 -15 0 -15 -15 0 -15 0 0 15 0
15 -30 0 -30 0 0 -15 0 -15 -15 0 -15 0 0 15 0 15 -30 0 -30 0 0 -15 0 -15
-15 0 -15 0 0 170 0 170 -10 0 -10 0 0 15 0 15 -10 0 -10 0 0 20 0 20 -10 0
-9 0 -7 35 -6 35 -9 0 -9 0 0 25 0 25 -10 0 -10 0 0 -25 0 -25 -9 0 -9 0 -6
-35 -7 -35 -9 0 -10 0 0 -20 0 -20 -10 0 -10 0 0 -15 0 -15 -10 0 -10 0 0
-160 0 -160 -10 0 -10 0 0 29 0 29 -6 16 -6 16 -9 0 -9 0 0 -20 0 -20 -10 0
-10 0 0 31 0 30 -15 15 -15 15 0 -20 0 -21 -10 0 -10 0 0 31 0 30 -14 15 -15
14 -5 0 -6 0 0 -15 0 -15 -10 0 -10 0 -1 38 -2 37 3 43 2 42 -26 0 -26 0 0
-29 0 -29 -13 -5 -12 -5 23 -1 22 -1 0 -20 0 -20 -6 0 -5 0 -17 16 -16 16 -1
88 -1 88 15 -5 16 -5 -11 9 -11 8 -7 30 -6 30 60 0 60 0 0 -12 0 -11 -12 -5
-13 -5 15 -11 15 -11 -14 -9 -13 -9 13 -5 14 -5 -15 -11 -15 -11 15 -10 15
-10 -15 -10 -15 -10 14 -9 13 -9 -13 -5 -14 -5 15 -11 15 -11 -15 -10 -15 -10
15 -10 15 -10 23 0 22 0 0 15 0 15 10 0 10 0 0 -15 0 -15 25 0 25 0 -1 28 -2
27 -4 -22 -4 -23 -10 0 -9 0 0 20 0 20 -25 0 -25 0 0 -20 0 -20 -10 0 -10 0 0
125 0 125 -10 0 -10 0 0 20 0 20 -10 0 -10 0 0 15 0 15 -9 0 -10 0 -7 45 -6
45 -9 0 -9 0 0 -25z m24 -60 l7 -35 9 0 10 0 0 -30 0 -30 -21 0 -20 0 -15 14
-14 15 0 15 0 16 10 0 10 0 0 35 0 35 9 0 9 0 6 -35z m296 -145 l0 -20 10 0 9
0 7 -35 6 -35 9 0 9 0 0 -14 0 -14 12 -4 13 -5 -17 -16 -17 -17 -10 0 -11 0 0
-10 0 -10 -16 0 -15 0 -15 14 -14 15 0 19 0 20 13 5 12 5 -15 12 -15 12 13 5
12 5 0 44 0 44 10 0 10 0 0 -20z m771 -20 l9 0 0 -15 0 -15 10 0 10 0 0 -19 0
-19 13 -4 12 -5 1 -441 1 -441 -29 -6 -30 -7 -35 7 -36 6 -15 15 -14 15 6 7 7
6 9 -14 9 -14 8 8 8 9 -12 4 -13 5 0 14 0 14 -10 0 -10 0 0 20 0 20 9 0 9 0 5
-12 4 -13 9 9 9 9 -12 4 -13 5 0 19 0 19 -10 0 -10 0 0 15 0 15 9 0 9 0 5 -12
4 -13 9 9 9 9 -12 4 -13 5 0 19 0 19 -10 0 -10 0 0 15 0 15 9 0 9 0 5 -12 4
-13 9 9 9 9 -12 4 -13 5 0 19 0 19 -10 0 -10 0 0 16 0 15 23 -5 22 -6 -12 6
-13 6 0 19 0 19 -10 0 -10 0 0 16 0 15 23 -5 22 -6 -12 6 -13 6 0 19 0 19 -10
0 -10 0 0 20 0 20 9 0 9 0 5 -12 4 -13 9 9 9 9 -12 4 -13 5 0 14 0 14 -10 0
-10 0 0 20 0 20 9 0 9 0 5 -12 4 -13 9 9 9 9 -12 4 -13 5 0 14 0 14 -10 0 -10
0 0 20 0 20 9 0 9 0 5 -12 4 -13 9 9 9 9 -12 4 -13 5 0 14 0 14 -10 0 -10 0 0
20 0 20 9 0 9 0 5 -12 4 -13 9 9 9 9 -12 4 -13 5 0 14 0 14 -10 0 -10 0 0 20
0 20 9 0 9 0 5 -12 4 -13 9 9 9 9 -12 4 -13 5 0 19 0 19 -10 0 -10 0 0 15 0
15 10 0 10 0 0 -9 0 -8 32 -7 32 -6 33 6 33 6 0 9 0 9 -20 0 -20 0 0 -10 0
-10 -11 0 -10 0 -15 14 -14 15 0 19 0 20 13 5 12 5 -15 12 -15 12 13 5 12 5 1
46 2 47 4 -22 4 -23 10 0z m-1071 -150 l0 -10 -10 0 -10 0 0 10 0 10 10 0 10
0 0 -10z m233 -2 l4 -13 53 0 53 0 5 13 4 12 9 0 9 0 0 -24 0 -24 -12 -6 -13
-6 13 -6 12 -6 0 -19 0 -19 -12 -1 -13 -1 13 -5 12 -5 0 -18 0 -18 -12 -6 -13
-6 13 -6 12 -6 0 -13 0 -13 -12 -6 -13 -6 13 -6 12 -6 0 -19 0 -19 -12 -1 -13
-1 13 -5 12 -5 0 -18 0 -18 -12 -6 -13 -6 13 -6 12 -6 0 -13 0 -13 -12 -6 -13
-6 13 -6 12 -6 0 -19 0 -19 -12 -1 -13 -1 13 -5 12 -5 0 -18 0 -18 -12 -6 -13
-6 13 -6 12 -6 0 -13 0 -13 -12 -6 -13 -6 13 -6 12 -6 0 -19 0 -19 -12 -1 -13
-1 13 -5 12 -5 0 -18 0 -18 -12 -6 -13 -6 13 -6 12 -6 0 -13 0 -13 -12 -6 -13
-6 13 -6 12 -6 0 -19 0 -19 -12 -1 -13 -1 13 -5 12 -5 0 -28 0 -27 -31 -7 -32
-6 -27 0 -27 0 -23 20 -23 20 7 7 7 7 9 -14 9 -14 8 8 8 9 -12 4 -13 5 0 14 0
14 -10 0 -10 0 0 20 0 20 9 0 9 0 5 -12 4 -13 9 9 9 9 -12 4 -13 5 0 19 0 19
-10 0 -10 0 0 15 0 15 9 0 9 0 5 -12 4 -13 9 9 9 9 -12 4 -13 5 0 19 0 19 -10
0 -10 0 0 15 0 15 9 0 9 0 5 -12 4 -13 9 9 9 9 -12 4 -13 5 0 19 0 19 -10 0
-10 0 0 16 0 15 23 -5 22 -6 -12 6 -13 6 0 19 0 19 -10 0 -10 0 0 16 0 15 23
-5 22 -6 -12 6 -13 6 0 19 0 19 -10 0 -10 0 0 20 0 20 9 0 9 0 5 -12 4 -13 9
9 9 9 -12 4 -13 5 0 14 0 14 -10 0 -10 0 0 20 0 20 9 0 9 0 5 -12 4 -13 9 9 9
9 -12 4 -13 5 0 14 0 14 -10 0 -10 0 0 20 0 20 9 0 9 0 5 -12 4 -13 9 9 9 9
-12 4 -13 5 0 14 0 14 -10 0 -10 0 0 20 0 20 9 0 9 0 5 -12 4 -13 9 9 9 9 -12
4 -13 5 0 14 0 14 -10 0 -10 0 0 20 0 20 9 0 9 0 5 -12 4 -13 9 9 9 9 -12 4
-13 5 0 19 0 19 -10 0 -10 0 0 15 0 15 9 0 9 0 5 -12z m227 -288 l0 -20 35 0
35 0 0 20 0 20 10 0 10 0 0 -20 0 -20 35 0 35 0 0 20 0 20 10 0 10 0 0 -20 0
-20 35 0 35 0 0 20 0 20 10 0 10 0 0 -20 0 -20 35 0 35 0 1 23 2 22 4 -22 4
-23 40 0 39 0 1 23 2 22 4 -22 4 -23 20 0 19 0 0 -250 0 -250 -80 0 -80 0 0
100 0 100 -100 0 -100 0 0 -100 0 -100 -95 0 -95 0 0 250 0 250 25 0 25 0 0
20 0 20 10 0 10 0 0 -20z"/>
<path d="M1160 800 l0 -20 15 0 15 0 0 20 0 20 -15 0 -15 0 0 -20z"/>
<path d="M1160 710 l0 -20 15 0 15 0 0 20 0 20 -15 0 -15 0 0 -20z"/>
<path d="M1160 619 l0 -20 15 15 15 15 0 5 0 6 -15 0 -15 0 0 -21z"/>
<path d="M1160 535 l0 -14 15 5 15 6 0 9 0 9 -15 0 -15 0 0 -15z"/>
<path d="M1160 445 l0 -14 15 5 15 6 0 9 0 9 -15 0 -15 0 0 -15z"/>
<path d="M390 800 l0 -20 20 0 20 0 0 20 0 20 -20 0 -20 0 0 -20z"/>
<path d="M390 710 l0 -20 20 0 20 0 0 20 0 20 -20 0 -20 0 0 -20z"/>
<path d="M390 620 l0 -20 6 0 5 0 15 14 14 15 0 5 0 6 -20 0 -20 0 0 -20z"/>
<path d="M390 535 l0 -15 4 0 4 0 16 6 16 6 0 9 0 9 -20 0 -20 0 0 -15z"/>
<path d="M390 445 l0 -15 4 0 4 0 16 6 16 6 0 9 0 9 -20 0 -20 0 0 -15z"/>
<path d="M633 465 l-13 -14 0 -41 0 -40 45 0 45 0 0 41 0 40 -14 15 -15 14
-18 0 -18 -1 -12 -14z m47 -30 l0 -25 -20 0 -20 0 0 25 0 25 20 0 20 0 0 -25z"/>
<path d="M756 464 l-6 -16 0 -39 0 -39 45 0 45 0 0 41 0 40 -14 15 -15 14 -24
0 -25 0 -6 -16z m44 -29 l0 -25 -20 0 -20 0 0 25 0 25 20 0 20 0 0 -25z"/>
<path d="M883 465 l-13 -14 0 -41 0 -40 45 0 45 0 0 41 0 40 -14 15 -15 14
-18 0 -18 -1 -12 -14z m37 -30 l0 -25 -15 0 -15 0 0 25 0 25 15 0 15 0 0 -25z"/>
<path d="M730 310 l0 -10 10 0 10 0 0 10 0 10 -10 0 -10 0 0 -10z"/>
<path d="M780 310 l0 -10 10 0 10 0 0 10 0 10 -10 0 -10 0 0 -10z"/>
<path d="M890 310 l0 -10 10 0 10 0 0 10 0 10 -10 0 -10 0 0 -10z"/>
<path d="M890 1235 l0 -25 -10 0 -10 0 0 -20 0 -20 -10 0 -9 0 -7 -35 -6 -35
-9 0 -9 0 0 -125 0 -125 -10 0 -10 0 0 20 0 20 -25 0 -25 0 0 -20 0 -20 -10 0
-10 0 0 20 0 20 -25 0 -25 0 0 -20 0 -20 -10 0 -10 0 0 20 0 20 -29 0 -30 0
-4 -22 -4 -23 -2 23 -1 22 -29 0 -29 0 -4 -25 -5 -25 13 0 14 0 0 15 0 15 10
0 10 0 0 -15 0 -15 25 0 25 0 0 15 0 15 10 0 10 0 0 -15 0 -15 25 0 25 0 0 15
0 15 10 0 10 0 0 -15 0 -15 25 0 25 0 0 15 0 15 10 0 10 0 0 -15 0 -15 20 0
20 0 0 -10 0 -10 15 0 15 0 0 -10 0 -10 41 0 40 0 16 15 15 16 -7 7 -8 7 -4
-12 -5 -13 -9 0 -9 0 0 45 0 45 -25 0 -25 0 0 -19 0 -19 -12 -6 -13 -6 13 -6
12 -6 0 -14 0 -14 -10 0 -10 0 -1 13 -1 12 -2 81 -2 82 15 -5 16 -5 -11 9 -11
8 -7 30 -6 30 60 0 60 0 0 -12 0 -11 -12 -5 -13 -5 15 -11 15 -11 -14 -9 -13
-9 13 -5 14 -5 -15 -11 -15 -11 15 -10 15 -10 -15 -10 -15 -10 14 -9 13 -9
-13 -5 -14 -5 15 -11 15 -11 -15 -11 -15 -11 13 -5 12 -5 16 -15 15 -15 7 7 7
8 -12 4 -13 5 0 129 0 129 -10 0 -10 0 0 20 0 20 -10 0 -10 0 0 15 0 15 -9 0
-10 0 -7 45 -6 45 -9 0 -9 0 0 -25z m24 -60 l7 -35 9 0 10 0 0 -30 0 -30 -21
0 -20 0 -15 14 -14 15 0 15 0 16 10 0 10 0 0 35 0 35 9 0 9 0 6 -35z m-4 -315
l0 -10 -10 0 -10 0 0 10 0 10 10 0 10 0 0 -10z"/>
<path d="M90 1030 l0 -20 15 0 15 0 0 20 0 20 -15 0 -15 0 0 -20z"/>
<path d="M890 1030 l0 -20 15 0 15 0 0 20 0 20 -15 0 -15 0 0 -20z"/>
<path d="M90 960 l0 -20 9 0 9 0 6 16 6 16 0 4 0 4 -15 0 -15 0 0 -20z"/>
<path d="M890 960 l0 -20 9 0 9 0 6 16 6 16 0 4 0 4 -15 0 -15 0 0 -20z"/>
<path d="M50 930 l0 -10 10 0 10 0 0 10 0 10 -10 0 -10 0 0 -10z"/>
<path d="M850 930 l0 -10 10 0 10 0 0 10 0 10 -10 0 -10 0 0 -10z"/>
<path d="M140 830 l0 -10 10 0 10 0 0 10 0 10 -10 0 -10 0 0 -10z"/>
<path d="M680 756 l0 -4 29 -31 29 -31 66 0 66 0 0 5 0 6 -12 15 -13 15 -13
14 -13 15 -70 0 -69 0 0 -4z m147 -21 l15 -16 -6 -7 -7 -6 -10 14 -9 15 -9
-15 -10 -14 -6 6 -7 7 13 15 14 15 3 1 3 0 16 -15z"/>
<path d="M730 190 l0 -10 10 0 10 0 0 10 0 10 -10 0 -10 0 0 -10z"/>
<path d="M760 190 l0 -10 10 0 10 0 0 10 0 10 -10 0 -10 0 0 -10z"/>
<path d="M800 190 l0 -10 10 0 10 0 0 10 0 10 -10 0 -10 0 0 -10z"/>
<path d="M730 150 l0 -10 10 0 10 0 0 10 0 10 -10 0 -10 0 0 -10z"/>
<path d="M760 150 l0 -10 10 0 10 0 0 10 0 10 -10 0 -10 0 0 -10z"/>
<path d="M800 150 l0 -10 10 0 10 0 0 10 0 10 -10 0 -10 0 0 -10z"/>
</g>
</svg>
