<?xml version="1.0" standalone="no"?>
<!DOCTYPE svg PUBLIC "-//W3C//DTD SVG 20010904//EN"
 "http://www.w3.org/TR/2001/REC-SVG-20010904/DTD/svg10.dtd">
<svg version="1.0" xmlns="http://www.w3.org/2000/svg"
 width="468pt" height="468pt" viewBox="0 0 468 468"
 preserveAspectRatio="xMidYMid meet">
<metadata>
Created by potrace 1.8, written by Peter Selinger 2001-2007
</metadata>
<g transform="translate(0,468) scale(0.365625,-0.365625)"
fill="#000000" stroke="none">
<path d="M810 1220 l0 -60 -55 0 -55 0 0 -115 0 -115 55 0 55 0 0 60 0 60 60
0 60 0 0 55 0 55 60 0 60 0 0 -55 0 -55 55 0 55 0 0 -60 0 -60 -55 0 -55 0 0
-60 0 -60 -60 0 -60 0 0 -55 0 -55 -60 0 -60 0 0 -60 0 -60 -55 0 -55 0 0 -55
0 -55 -350 0 -350 0 0 -235 0 -235 640 0 640 0 0 350 0 350 -60 0 -60 0 0 -60
0 -60 -115 0 -115 0 0 60 0 60 60 0 60 0 0 55 0 55 115 0 115 0 0 175 0 175
-60 0 -60 0 0 60 0 60 -175 0 -175 0 0 -60z"/>
<path d="M0 870 l0 -60 290 0 290 0 0 60 0 60 -290 0 -290 0 0 -60z"/>
</g>
</svg>
