<?xml version="1.0" standalone="no"?>
<!DOCTYPE svg PUBLIC "-//W3C//DTD SVG 20010904//EN"
 "http://www.w3.org/TR/2001/REC-SVG-20010904/DTD/svg10.dtd">
<svg version="1.0" xmlns="http://www.w3.org/2000/svg"
 width="468pt" height="468pt" viewBox="0 0 468 468"
 preserveAspectRatio="xMidYMid meet">
<metadata>
Created by potrace 1.8, written by Peter Selinger 2001-2007
</metadata>
<g transform="translate(0,468) scale(0.365625,-0.365625)"
fill="#000000" stroke="none">
<path d="M0 655 l0 -625 11 0 10 0 15 14 14 15 0 585 0 586 586 0 585 0 15 14
14 15 0 10 0 11 -625 0 -625 0 0 -625z"/>
<path d="M1250 640 l0 -610 -610 0 -610 0 0 -15 0 -15 625 0 625 0 0 625 0
625 -15 0 -15 0 0 -610z"/>
<path d="M770 1065 l0 -25 -10 0 -10 0 0 -15 0 -15 -95 0 -95 0 0 -10 0 -10
-40 0 -40 0 0 -15 0 -15 -15 0 -15 0 0 -11 0 -10 -14 -15 -15 -14 -10 0 -11 0
0 -15 0 -15 -15 0 -15 0 0 -55 0 -55 15 0 15 0 0 -25 0 -25 15 0 15 0 0 -11 0
-10 14 -15 15 -14 10 0 11 0 0 -15 0 -15 25 0 25 0 0 -15 0 -15 30 0 30 0 0
-10 0 -10 -15 0 -15 0 0 -30 0 -30 -15 0 -15 0 0 -25 0 -25 -10 0 -10 0 0 -40
0 -40 -15 0 -15 0 0 -25 0 -25 -15 0 -15 0 0 -15 0 -15 -10 0 -10 0 0 15 0 15
-26 0 -25 0 -15 14 -14 15 0 50 0 51 -15 0 -15 0 0 15 0 15 -25 0 -25 0 0 -30
0 -30 -15 0 -15 0 0 -65 0 -65 40 0 40 0 0 -15 0 -15 40 0 40 0 0 -10 0 -10
25 0 25 0 0 -15 0 -15 -10 0 -10 0 0 -40 0 -40 40 0 40 0 0 40 0 40 10 0 10 0
0 15 0 15 95 0 95 0 0 10 0 10 25 0 25 0 0 15 0 15 30 0 30 0 0 15 0 15 25 0
25 0 0 10 0 10 15 0 15 0 0 15 0 15 10 0 10 0 0 80 0 80 -10 0 -10 0 0 15 0
15 -15 0 -15 0 0 10 0 10 -15 0 -15 0 0 15 0 15 -10 0 -10 0 0 15 0 15 -26 0
-25 0 -15 14 -14 15 0 50 0 51 10 0 10 0 0 25 0 25 15 0 15 0 0 55 0 55 25 0
25 0 0 -15 0 -15 15 0 15 0 0 -10 0 -10 15 0 15 0 0 -15 0 -15 10 0 10 0 0
-55 0 -55 30 0 30 0 0 15 0 15 10 0 10 0 0 40 0 40 15 0 15 0 0 40 0 40 -40 0
-40 0 0 15 0 15 -40 0 -40 0 0 10 0 10 -15 0 -15 0 0 40 0 40 -40 0 -40 0 0
-25z m-50 -120 l0 -15 -15 0 -15 0 0 -40 0 -40 -10 0 -10 0 0 -25 0 -25 -15 0
-15 0 0 -25 0 -25 -11 0 -10 0 -15 14 -14 15 0 10 0 11 -15 0 -15 0 0 15 0 15
-15 0 -15 0 0 40 0 40 15 0 15 0 0 10 0 10 15 0 15 0 0 15 0 15 65 0 65 0 0
-15z m0 -425 l0 -10 15 0 15 0 0 -70 0 -70 -15 0 -15 0 0 -10 0 -10 -15 0 -15
0 0 -15 0 -15 -65 0 -65 0 0 15 0 15 15 0 15 0 0 25 0 25 10 0 10 0 0 40 0 40
15 0 15 0 0 25 0 25 40 0 40 0 0 -10z"/>
</g>
</svg>
