<?xml version="1.0" standalone="no"?>
<!DOCTYPE svg PUBLIC "-//W3C//DTD SVG 20010904//EN"
 "http://www.w3.org/TR/2001/REC-SVG-20010904/DTD/svg10.dtd">
<svg version="1.0" xmlns="http://www.w3.org/2000/svg"
 width="468pt" height="468pt" viewBox="0 0 468 468"
 preserveAspectRatio="xMidYMid meet">
<metadata>
Created by potrace 1.8, written by Peter Selinger 2001-2007
</metadata>
<g transform="translate(0,468) scale(0.365625,-0.365625)"
fill="#000000" stroke="none">
<path d="M510 1265 l0 -15 -45 0 -45 0 0 -15 0 -15 -45 0 -45 0 0 -15 0 -15
-15 0 -15 0 0 -15 0 -15 -30 0 -30 0 0 -15 0 -15 -15 0 -15 0 0 -15 0 -15 -15
0 -15 0 0 -15 0 -15 -15 0 -15 0 0 -15 0 -15 -15 0 -15 0 0 -30 0 -30 -15 0
-15 0 0 -15 0 -15 -15 0 -15 0 0 -45 0 -45 -15 0 -15 0 0 -45 0 -45 -15 0 -15
0 0 -385 0 -385 135 0 135 0 0 15 0 15 -30 0 -30 0 0 15 0 15 -30 0 -30 0 0
15 0 15 -15 0 -15 0 0 15 0 15 -15 0 -15 0 0 30 0 30 -15 0 -15 0 0 15 0 15
-15 0 -15 0 0 105 0 105 15 0 15 0 0 -30 0 -30 15 0 15 0 0 -15 0 -15 15 0 15
0 0 -15 0 -15 15 0 15 0 0 -15 0 -15 30 0 30 0 0 -15 0 -15 30 0 30 0 0 -15 0
-15 45 0 45 0 0 -105 0 -105 15 0 15 0 0 370 0 370 15 0 15 0 0 30 0 30 15 0
15 0 0 15 0 15 15 0 15 0 0 15 0 15 30 0 30 0 0 15 0 15 100 0 100 0 0 -15 0
-15 30 0 30 0 0 -15 0 -15 15 0 15 0 0 -15 0 -15 15 0 15 0 0 -30 0 -30 15 0
15 0 0 -55 0 -55 15 0 15 0 0 -30 0 -30 15 0 15 0 0 -15 0 -15 30 0 30 0 0
-15 0 -15 75 0 75 0 0 15 0 15 30 0 30 0 0 15 0 15 15 0 15 0 0 30 0 30 15 0
15 0 0 70 0 70 -15 0 -15 0 0 45 0 45 -15 0 -15 0 0 45 0 45 -15 0 -15 0 0 15
0 15 -15 0 -15 0 0 30 0 30 -15 0 -15 0 0 15 0 15 -15 0 -15 0 0 15 0 15 -15
0 -15 0 0 15 0 15 -15 0 -15 0 0 15 0 15 -30 0 -30 0 0 15 0 15 -15 0 -15 0 0
15 0 15 -45 0 -45 0 0 15 0 15 -45 0 -45 0 0 15 0 15 -130 0 -130 0 0 -15z
m30 -30 l0 -15 -15 0 -15 0 0 -120 0 -120 15 0 15 0 0 -15 0 -15 15 0 15 0 0
-15 0 -15 -15 0 -15 0 0 -15 0 -15 -45 0 -45 0 0 15 0 15 -15 0 -15 0 0 15 0
15 -15 0 -15 0 0 15 0 15 -15 0 -15 0 0 30 0 30 -15 0 -15 0 0 15 0 15 -15 0
-15 0 0 45 0 45 15 0 15 0 0 15 0 15 45 0 45 0 0 15 0 15 45 0 45 0 0 15 0 15
15 0 15 0 0 -15z m230 0 l0 -15 45 0 45 0 0 -15 0 -15 45 0 45 0 0 -15 0 -15
15 0 15 0 0 -15 0 -15 30 0 30 0 0 -15 0 -15 -45 0 -45 0 0 -15 0 -15 -30 0
-30 0 0 -15 0 -15 -15 0 -15 0 0 -15 0 -15 -15 0 -15 0 0 -15 0 -15 -15 0 -15
0 0 -45 0 -45 -30 0 -30 0 0 30 0 30 -15 0 -15 0 0 15 0 15 -15 0 -15 0 0 105
0 105 15 0 15 0 0 15 0 15 15 0 15 0 0 15 0 15 15 0 15 0 0 -15z m-650 -300
l0 -15 15 0 15 0 0 -30 0 -30 15 0 15 0 0 -15 0 -15 15 0 15 0 0 -15 0 -15 30
0 30 0 0 -15 0 -15 15 0 15 0 0 -15 0 -15 30 0 30 0 0 -100 0 -100 -45 0 -45
0 0 15 0 15 -30 0 -30 0 0 15 0 15 -30 0 -30 0 0 15 0 15 -15 0 -15 0 0 10 0
10 -15 0 -15 0 0 30 0 30 -15 0 -15 0 0 15 0 15 -15 0 -15 0 0 15 0 15 15 0
15 0 0 45 0 45 15 0 15 0 0 45 0 45 15 0 15 0 0 -15z m1070 -30 l0 -45 15 0
15 0 0 -45 0 -45 15 0 15 0 0 -15 0 -15 -15 0 -15 0 0 15 0 15 -60 0 -60 0 0
-15 0 -15 -30 0 -30 0 0 -15 0 -15 -15 0 -15 0 0 -15 0 -15 -15 0 -15 0 0 -25
0 -25 -30 0 -30 0 0 55 0 55 15 0 15 0 0 45 0 45 15 0 15 0 0 15 0 15 15 0 15
0 0 15 0 15 30 0 30 0 0 15 0 15 45 0 45 0 0 15 0 15 15 0 15 0 0 -45z"/>
</g>
</svg>
