<?xml version="1.0" standalone="no"?>
<!DOCTYPE svg PUBLIC "-//W3C//DTD SVG 20010904//EN"
 "http://www.w3.org/TR/2001/REC-SVG-20010904/DTD/svg10.dtd">
<svg version="1.0" xmlns="http://www.w3.org/2000/svg"
 width="468pt" height="468pt" viewBox="0 0 468 468"
 preserveAspectRatio="xMidYMid meet">
<metadata>
Created by potrace 1.8, written by Peter Selinger 2001-2007
</metadata>
<g transform="translate(0,468) scale(0.365625,-0.365625)"
fill="#000000" stroke="none">
<path d="M240 1225 l0 -15 -18 0 -18 0 -14 -20 -14 -20 -13 0 -13 0 0 -20 0
-20 -10 0 -10 0 0 -25 0 -25 -10 0 -10 0 0 -45 0 -45 10 0 10 0 0 -20 0 -20
10 0 10 0 0 -25 0 -25 13 0 13 0 14 -20 14 -20 18 0 18 0 0 -10 0 -10 45 0 45
0 0 10 0 10 30 0 31 0 24 25 25 24 0 21 0 20 35 0 35 0 0 20 0 20 -10 0 -10 0
0 15 0 15 -25 0 -25 0 0 10 0 10 -20 0 -20 0 0 10 0 10 -35 0 -35 0 0 -31 0
-30 14 -15 15 -14 20 0 21 0 0 -6 0 -5 -14 -15 -15 -14 -20 0 -21 0 0 -15 0
-15 -35 0 -35 0 0 15 0 15 -20 0 -20 0 0 20 0 20 -10 0 -10 0 0 25 0 25 -10 0
-10 0 0 20 0 20 10 0 10 0 0 20 0 20 10 0 10 0 0 10 0 11 25 24 24 25 31 0 30
0 0 -10 0 -10 21 0 20 0 15 -14 14 -15 0 -10 0 -11 30 0 30 0 0 30 0 31 -25
24 -24 25 -31 0 -30 0 0 15 0 15 -55 0 -55 0 0 -15z"/>
<path d="M1130 1180 l0 -10 -11 0 -10 0 -15 -14 -14 -15 0 -30 0 -31 -10 0
-10 0 0 -45 0 -45 -10 0 -10 0 0 -19 0 -19 -12 -6 -13 -6 13 -6 12 -6 0 -10 0
-9 15 -15 15 -15 15 15 15 15 0 20 0 21 10 0 11 0 24 25 25 24 0 11 0 10 10 0
10 0 0 30 0 30 10 0 10 0 0 30 0 31 -25 24 -24 25 -16 0 -15 0 0 -10z"/>
<path d="M680 1160 l0 -10 -16 0 -15 0 -15 -14 -14 -15 0 -6 0 -6 -14 -15 -15
-14 -10 0 -11 0 0 -20 0 -20 -10 0 -10 0 0 -45 0 -45 10 0 10 0 0 -25 0 -25
15 0 15 0 0 -15 0 -16 25 -24 24 -25 16 0 15 0 0 -15 0 -15 35 0 35 0 0 15 0
15 30 0 31 0 24 25 25 24 0 16 0 15 10 0 10 0 0 15 0 15 10 0 10 0 0 65 0 65
-10 0 -10 0 0 20 0 20 -10 0 -10 0 0 11 0 10 -14 15 -15 14 -20 0 -21 0 0 10
0 10 -55 0 -55 0 0 -10z m70 -70 l0 -10 20 0 20 0 0 -10 0 -10 15 0 15 0 0
-20 0 -20 10 0 10 0 0 -35 0 -35 -10 0 -10 0 0 -25 0 -25 -15 0 -15 0 0 -10 0
-10 -20 0 -20 0 0 -10 0 -10 -20 0 -20 0 0 10 0 10 -25 0 -25 0 0 25 0 25 -10
0 -10 0 0 20 0 20 -10 0 -10 0 0 25 0 25 10 0 10 0 0 16 0 15 14 15 15 14 20
0 21 0 0 10 0 10 20 0 20 0 0 -10z"/>
<path d="M963 845 l-13 -14 0 -31 0 -30 10 0 10 0 0 -10 0 -10 -485 0 -485 0
0 -375 0 -375 640 0 640 0 0 375 0 375 -120 0 -120 0 0 20 0 20 10 0 10 0 0
21 0 20 -14 15 -15 14 -28 0 -28 -1 -12 -14z"/>
</g>
</svg>
