<?xml version="1.0" standalone="no"?>
<!DOCTYPE svg PUBLIC "-//W3C//DTD SVG 20010904//EN"
 "http://www.w3.org/TR/2001/REC-SVG-20010904/DTD/svg10.dtd">
<svg version="1.0" xmlns="http://www.w3.org/2000/svg"
 width="468pt" height="468pt" viewBox="0 0 468 468"
 preserveAspectRatio="xMidYMid meet">
<metadata>
Created by potrace 1.8, written by Peter Selinger 2001-2007
</metadata>
<g transform="translate(0,468) scale(0.365625,-0.365625)"
fill="#000000" stroke="none">
<path d="M840 1265 l0 -15 -25 0 -25 0 0 -15 0 -15 -15 0 -15 0 0 -15 0 -15
-15 0 -15 0 0 -40 0 -40 -15 0 -15 0 0 -75 0 -75 15 0 15 0 0 -45 0 -45 -15 0
-15 0 0 -40 0 -40 30 0 30 0 0 -45 0 -45 -15 0 -15 0 0 -60 0 -60 15 0 15 0 0
-15 0 -15 -15 0 -15 0 0 -15 0 -15 -45 0 -45 0 0 -15 0 -15 -30 0 -30 0 0 -25
0 -25 -45 0 -45 0 0 -30 0 -30 -25 0 -25 0 0 -30 0 -30 -15 0 -15 0 0 -15 0
-15 -30 0 -30 0 0 -15 0 -15 -15 0 -15 0 0 -30 0 -30 -30 0 -30 0 0 -15 0 -15
-15 0 -15 0 0 -10 0 -10 -15 0 -15 0 0 -15 0 -15 -15 0 -15 0 0 -15 0 -15 15
0 15 0 0 15 0 15 15 0 15 0 0 15 0 15 15 0 15 0 0 10 0 10 30 0 30 0 0 15 0
15 15 0 15 0 0 30 0 30 15 0 15 0 0 -30 0 -30 15 0 15 0 0 -40 0 -40 15 0 15
0 0 -15 0 -15 -60 0 -60 0 0 -15 0 -15 -15 0 -15 0 0 -15 0 -15 -15 0 -15 0 0
-15 0 -15 15 0 15 0 0 15 0 15 15 0 15 0 0 15 0 15 85 0 85 0 0 15 0 15 -10 0
-10 0 0 15 0 15 25 0 25 0 0 15 0 15 30 0 30 0 0 10 0 10 15 0 15 0 0 -10 0
-10 15 0 15 0 0 100 0 100 15 0 15 0 0 -45 0 -45 15 0 15 0 0 -55 0 -55 15 0
15 0 0 -75 0 -75 100 0 100 0 0 15 0 15 30 0 30 0 0 15 0 15 15 0 15 0 0 15 0
15 15 0 15 0 0 15 0 15 15 0 15 0 0 15 0 15 11 0 10 0 15 14 14 15 0 10 0 11
15 0 15 0 0 -25 0 -25 -15 0 -15 0 0 -30 0 -30 -10 0 -10 0 0 -45 0 -45 10 0
10 0 0 30 0 30 15 0 15 0 0 45 0 45 30 0 30 0 0 130 0 130 -15 0 -15 0 0 85 0
85 -15 0 -15 0 0 15 0 15 60 0 60 0 0 15 0 15 -15 0 -15 0 0 30 0 30 -15 0
-15 0 0 45 0 45 -15 0 -15 0 0 -15 0 -15 -15 0 -15 0 0 15 0 15 15 0 15 0 0
85 0 85 -15 0 -15 0 0 115 0 115 -15 0 -15 0 0 15 0 15 -25 0 -25 0 0 15 0 15
-30 0 -30 0 0 15 0 15 -90 0 -90 0 0 -15z m120 -30 l0 -15 30 0 30 0 0 -15 0
-15 15 0 15 0 0 -40 0 -40 30 0 30 0 0 10 0 10 -15 0 -15 0 0 15 0 15 15 0 15
0 0 -14 0 -14 13 -6 12 -6 -12 -6 -13 -6 0 -14 0 -14 10 0 10 0 0 -30 0 -30
-10 0 -10 0 0 -15 0 -15 10 0 10 0 0 -30 0 -30 -10 0 -10 0 0 30 0 30 -15 0
-15 0 0 -45 0 -45 15 0 15 0 0 -15 0 -15 25 0 25 0 0 -15 0 -15 -15 0 -15 0 0
-25 0 -25 -10 0 -10 0 0 -15 0 -15 10 0 10 0 0 -15 0 -15 -10 0 -10 0 0 -15 0
-15 25 0 25 0 0 -15 0 -15 -15 0 -15 0 0 -15 0 -15 -55 0 -55 0 0 15 0 15 -15
0 -15 0 0 130 0 130 -15 0 -15 0 0 45 0 45 -15 0 -15 0 0 15 0 15 -30 0 -30 0
0 -15 0 -15 -30 0 -30 0 0 -15 0 -15 -10 0 -10 0 0 -15 0 -15 -15 0 -15 0 0
15 0 15 -15 0 -15 0 0 15 0 15 30 0 30 0 0 15 0 15 -30 0 -30 0 0 15 0 15 30
0 30 0 0 15 0 15 -15 0 -15 0 0 10 0 10 15 0 15 0 0 15 0 15 10 0 10 0 0 15 0
15 15 0 15 0 0 15 0 15 15 0 15 0 0 15 0 15 45 0 45 0 0 -15z m-170 -60 l0
-15 -15 0 -15 0 0 15 0 15 15 0 15 0 0 -15z m140 -215 l0 -60 15 0 15 0 0
-115 0 -115 15 0 15 0 0 -30 0 -30 -15 0 -15 0 0 -15 0 -15 -15 0 -15 0 0 -15
0 -15 15 0 15 0 0 15 0 15 30 0 30 0 0 15 0 15 55 0 55 0 0 -30 0 -30 15 0 15
0 0 -15 0 -15 -15 0 -15 0 0 -15 0 -15 15 0 15 0 0 -40 0 -40 15 0 15 0 0 -45
0 -45 -55 0 -55 0 0 85 0 85 -15 0 -15 0 0 15 0 15 -45 0 -45 0 0 -15 0 -15
-45 0 -45 0 0 -10 0 -10 -15 0 -15 0 0 -30 0 -30 -15 0 -15 0 0 40 0 40 15 0
15 0 0 15 0 15 30 0 30 0 0 30 0 30 -15 0 -15 0 0 30 0 30 30 0 30 0 0 15 0
15 -15 0 -15 0 0 30 0 30 -15 0 -15 0 0 30 0 30 -15 0 -15 0 0 10 0 10 -55 0
-55 0 0 30 0 30 15 0 15 0 0 30 0 30 25 0 25 0 0 -15 0 -15 30 0 30 0 0 30 0
30 -30 0 -30 0 0 15 0 15 30 0 30 0 0 15 0 15 30 0 30 0 0 -60z m-120 -260 l0
-30 -10 0 -10 0 0 30 0 30 10 0 10 0 0 -30z m410 -45 l0 -15 -15 0 -15 0 0 15
0 15 15 0 15 0 0 -15z m-430 -175 l0 -10 -15 0 -15 0 0 10 0 10 15 0 15 0 0
-10z m230 0 l0 -10 15 0 15 0 0 -90 0 -90 -15 0 -15 0 0 15 0 15 -15 0 -15 0
0 -15 0 -15 15 0 15 0 0 -15 0 -15 30 0 30 0 0 15 0 15 40 0 40 0 0 -30 0 -30
-25 0 -25 0 0 -15 0 -15 -30 0 -30 0 0 -15 0 -15 -15 0 -15 0 0 -10 0 -10 -15
0 -15 0 0 -15 0 -15 -15 0 -15 0 0 -15 0 -15 -30 0 -30 0 0 -15 0 -15 -30 0
-30 0 0 -15 0 -15 -25 0 -25 0 0 70 0 70 -15 0 -15 0 0 60 0 60 -15 0 -15 0 0
45 0 45 15 0 15 0 0 -15 0 -15 25 0 25 0 0 -15 0 -15 30 0 30 0 0 15 0 15 -15
0 -15 0 0 15 0 15 15 0 15 0 0 30 0 30 15 0 15 0 0 15 0 15 30 0 30 0 0 10 0
10 30 0 30 0 0 -10z m-350 -55 l0 -15 -30 0 -30 0 0 -105 0 -105 -30 0 -30 0
0 -15 0 -15 -30 0 -30 0 0 -10 0 -10 -25 0 -25 0 0 25 0 25 -15 0 -15 0 0 30
0 30 15 0 15 0 0 15 0 15 15 0 15 0 0 15 0 15 10 0 10 0 0 15 0 15 15 0 15 0
0 15 0 15 15 0 15 0 0 15 0 15 15 0 15 0 0 15 0 15 45 0 45 0 0 -15z m120 0
l0 -15 10 0 10 0 0 -15 0 -15 -25 0 -25 0 0 15 0 15 -15 0 -15 0 0 15 0 15 30
0 30 0 0 -15z"/>
<path d="M870 1205 l0 -15 15 0 15 0 0 15 0 15 -15 0 -15 0 0 -15z"/>
<path d="M1080 1065 l0 -15 15 0 15 0 0 15 0 15 -15 0 -15 0 0 -15z"/>
<path d="M1020 915 l0 -15 15 0 15 0 0 15 0 15 -15 0 -15 0 0 -15z"/>
<path d="M1050 855 l0 -15 15 0 15 0 0 15 0 15 -15 0 -15 0 0 -15z"/>
<path d="M900 305 l0 -15 30 0 30 0 0 15 0 15 -30 0 -30 0 0 -15z"/>
<path d="M580 75 l0 -75 15 0 15 0 0 75 0 75 -15 0 -15 0 0 -75z"/>
<path d="M120 105 l0 -15 -45 0 -45 0 0 -30 0 -30 -15 0 -15 0 0 -15 0 -15 15
0 15 0 0 15 0 15 15 0 15 0 0 -15 0 -15 15 0 15 0 0 15 0 15 15 0 15 0 0 15 0
15 25 0 25 0 0 15 0 15 -10 0 -10 0 0 15 0 15 -15 0 -15 0 0 -15z"/>
<path d="M1190 60 l0 -60 15 0 15 0 0 60 0 60 -15 0 -15 0 0 -60z"/>
</g>
</svg>
