<?xml version="1.0" standalone="no"?>
<!DOCTYPE svg PUBLIC "-//W3C//DTD SVG 20010904//EN"
 "http://www.w3.org/TR/2001/REC-SVG-20010904/DTD/svg10.dtd">
<svg version="1.0" xmlns="http://www.w3.org/2000/svg"
 width="468pt" height="468pt" viewBox="0 0 468 468"
 preserveAspectRatio="xMidYMid meet">
<metadata>
Created by potrace 1.8, written by Peter Selinger 2001-2007
</metadata>
<g transform="translate(0,468) scale(0.365625,-0.365625)"
fill="#000000" stroke="none">
<path d="M0 640 l0 -580 30 0 30 0 0 -30 0 -30 610 0 610 0 0 415 0 415 -30 0
-30 0 0 35 0 35 -35 0 -35 0 0 30 0 30 -30 0 -30 0 0 30 0 30 -35 0 -35 0 0
35 0 35 -30 0 -30 0 0 30 0 30 -30 0 -30 0 0 35 0 35 -450 0 -450 0 0 -580z
m830 350 l0 -160 35 0 35 0 0 -30 0 -30 125 0 125 0 0 -320 0 -320 -545 0
-545 0 0 510 0 510 385 0 385 0 0 -160z m130 65 l0 -35 30 0 30 0 0 -30 0 -30
35 0 35 0 0 -30 0 -30 -95 0 -95 0 0 95 0 95 30 0 30 0 0 -35z"/>
<path d="M130 480 l0 -220 445 0 445 0 0 30 0 30 35 0 35 0 0 160 0 160 -35 0
-35 0 0 30 0 30 -30 0 -30 0 0 -30 0 -30 -30 0 -30 0 0 30 0 30 -385 0 -385 0
0 -220z m770 130 l0 -30 30 0 30 0 0 30 0 30 30 0 30 0 0 -30 0 -30 -30 0 -30
0 0 -130 0 -130 -385 0 -385 0 0 160 0 160 355 0 355 0 0 -30z"/>
<path d="M260 545 l0 -35 95 0 95 0 0 35 0 35 -95 0 -95 0 0 -35z"/>
<path d="M580 545 l0 -35 60 0 60 0 0 35 0 35 -60 0 -60 0 0 -35z"/>
<path d="M260 415 l0 -35 60 0 60 0 0 35 0 35 -60 0 -60 0 0 -35z"/>
<path d="M450 415 l0 -35 95 0 95 0 0 35 0 35 -95 0 -95 0 0 -35z"/>
<path d="M700 415 l0 -35 35 0 35 0 0 35 0 35 -35 0 -35 0 0 -35z"/>
</g>
</svg>
