<?xml version="1.0" standalone="no"?>
<!DOCTYPE svg PUBLIC "-//W3C//DTD SVG 20010904//EN"
 "http://www.w3.org/TR/2001/REC-SVG-20010904/DTD/svg10.dtd">
<svg version="1.0" xmlns="http://www.w3.org/2000/svg"
 width="468pt" height="468pt" viewBox="0 0 468 468"
 preserveAspectRatio="xMidYMid meet">
<metadata>
Created by potrace 1.8, written by Peter Selinger 2001-2007
</metadata>
<g transform="translate(0,468) scale(0.365625,-0.365625)"
fill="#000000" stroke="none">
<path d="M640 1225 l0 -55 -80 0 -80 0 0 30 0 30 -25 0 -25 0 0 -30 0 -30 -55
0 -55 0 0 30 0 30 -55 0 -55 0 0 -30 0 -30 -80 0 -80 0 0 30 0 30 -25 0 -25 0
0 -30 0 -30 25 0 25 0 0 -25 0 -25 -25 0 -25 0 0 -345 0 -345 55 0 55 0 0 25
0 25 25 0 25 0 0 -25 0 -25 160 0 160 0 0 25 0 25 25 0 25 0 0 -25 0 -25 215
0 215 0 0 25 0 25 25 0 25 0 0 -25 0 -25 80 0 80 0 0 25 0 25 30 0 30 0 0 -25
0 -25 25 0 25 0 0 25 0 25 -25 0 -25 0 0 55 0 55 25 0 25 0 0 185 0 185 -25 0
-25 0 0 55 0 55 25 0 25 0 0 50 0 50 -80 0 -80 0 0 30 0 30 -25 0 -25 0 0 -30
0 -30 -80 0 -80 0 0 30 0 30 -30 0 -30 0 0 -30 0 -30 -80 0 -80 0 0 55 0 55
-25 0 -25 0 0 -55z m-370 -80 l0 -25 -30 0 -30 0 0 25 0 25 30 0 30 0 0 -25z
m210 -25 l0 -50 -25 0 -25 0 0 50 0 50 25 0 25 0 0 -50z m210 25 l0 -25 -25 0
-25 0 0 25 0 25 25 0 25 0 0 -25z m220 -25 l0 -50 -30 0 -30 0 0 -30 0 -30
-25 0 -25 0 0 30 0 30 25 0 25 0 0 50 0 50 30 0 30 0 0 -50z m210 25 l0 -25
-25 0 -25 0 0 25 0 25 25 0 25 0 0 -25z m-910 -105 l0 -30 -25 0 -25 0 0 30 0
30 25 0 25 0 0 -30z m430 0 l0 -30 -25 0 -25 0 0 30 0 30 25 0 25 0 0 -30z
m430 0 l0 -30 -30 0 -30 0 0 30 0 30 30 0 30 0 0 -30z m-640 -55 l0 -25 -30 0
-30 0 0 25 0 25 30 0 30 0 0 -25z m-270 -50 l0 -25 -25 0 -25 0 0 25 0 25 25
0 25 0 0 -25z m430 0 l0 -25 -30 0 -30 0 0 25 0 25 30 0 30 0 0 -25z m210 0
l0 -25 -25 0 -25 0 0 25 0 25 25 0 25 0 0 -25z m210 0 l0 -25 -25 0 -25 0 0
25 0 25 25 0 25 0 0 -25z m220 -55 l0 -30 -30 0 -30 0 0 30 0 30 30 0 30 0 0
-30z m-910 -55 l0 -25 -25 0 -25 0 0 25 0 25 25 0 25 0 0 -25z m210 0 l0 -25
-25 0 -25 0 0 25 0 25 25 0 25 0 0 -25z m220 0 l0 -25 -30 0 -30 0 0 25 0 25
30 0 30 0 0 -25z m210 0 l0 -25 -25 0 -25 0 0 25 0 25 25 0 25 0 0 -25z m-850
-50 l0 -25 -30 0 -30 0 0 25 0 25 30 0 30 0 0 -25z m1060 0 l0 -25 -25 0 -25
0 0 25 0 25 25 0 25 0 0 -25z m-900 -55 l0 -30 -30 0 -30 0 0 30 0 30 30 0 30
0 0 -30z m420 0 l0 -30 -25 0 -25 0 0 30 0 30 25 0 25 0 0 -30z m-260 -105 l0
-25 -30 0 -30 0 0 25 0 25 30 0 30 0 0 -25z m420 0 l0 -25 -25 0 -25 0 0 25 0
25 25 0 25 0 0 -25z"/>
<path d="M1230 1255 l0 -25 25 0 25 0 0 25 0 25 -25 0 -25 0 0 -25z"/>
<path d="M0 345 l0 -25 25 0 25 0 0 25 0 25 -25 0 -25 0 0 -25z"/>
<path d="M160 345 l0 -25 80 0 80 0 0 25 0 25 -80 0 -80 0 0 -25z"/>
<path d="M480 345 l0 -25 55 0 55 0 0 25 0 25 -55 0 -55 0 0 -25z"/>
<path d="M750 345 l0 -25 50 0 50 0 0 25 0 25 -50 0 -50 0 0 -25z"/>
<path d="M960 345 l0 -25 80 0 80 0 0 25 0 25 -80 0 -80 0 0 -25z"/>
<path d="M1230 345 l0 -25 25 0 25 0 0 25 0 25 -25 0 -25 0 0 -25z"/>
<path d="M0 240 l0 -30 55 0 55 0 0 30 0 30 -55 0 -55 0 0 -30z"/>
<path d="M270 240 l0 -30 80 0 80 0 0 30 0 30 -80 0 -80 0 0 -30z"/>
<path d="M530 240 l0 -30 55 0 55 0 0 30 0 30 -55 0 -55 0 0 -30z"/>
<path d="M750 240 l0 -30 50 0 50 0 0 30 0 30 -50 0 -50 0 0 -30z"/>
<path d="M1070 240 l0 -30 50 0 50 0 0 30 0 30 -50 0 -50 0 0 -30z"/>
<path d="M0 135 l0 -25 55 0 55 0 0 -30 0 -30 25 0 25 0 0 30 0 30 55 0 55 0
0 -30 0 -30 50 0 50 0 0 30 0 30 80 0 80 0 0 -55 0 -55 30 0 30 0 0 55 0 55
80 0 80 0 0 -30 0 -30 25 0 25 0 0 30 0 30 80 0 80 0 0 -30 0 -30 25 0 25 0 0
30 0 30 80 0 80 0 0 -55 0 -55 30 0 30 0 0 55 0 55 25 0 25 0 0 25 0 25 -25 0
-25 0 0 -25 0 -25 -30 0 -30 0 0 25 0 25 -80 0 -80 0 0 -25 0 -25 -25 0 -25 0
0 25 0 25 -80 0 -80 0 0 -25 0 -25 -25 0 -25 0 0 25 0 25 -80 0 -80 0 0 -25 0
-25 -30 0 -30 0 0 25 0 25 -80 0 -80 0 0 -25 0 -25 -25 0 -25 0 0 25 0 25 -80
0 -80 0 0 -25 0 -25 -25 0 -25 0 0 25 0 25 -55 0 -55 0 0 -25z"/>
</g>
</svg>
