<?xml version="1.0" standalone="no"?>
<!DOCTYPE svg PUBLIC "-//W3C//DTD SVG 20010904//EN"
 "http://www.w3.org/TR/2001/REC-SVG-20010904/DTD/svg10.dtd">
<svg version="1.0" xmlns="http://www.w3.org/2000/svg"
 width="468pt" height="468pt" viewBox="0 0 468 468"
 preserveAspectRatio="xMidYMid meet">
<metadata>
Created by potrace 1.8, written by Peter Selinger 2001-2007
</metadata>
<g transform="translate(0,468) scale(0.365625,-0.365625)"
fill="#000000" stroke="none">
<path d="M669 1270 l-66 -8 -71 -31 -70 -31 -19 0 -18 -1 -70 -30 -70 -31 -90
-7 -90 -8 -35 -17 -35 -18 -17 -16 -18 -15 0 -22 0 -23 16 -13 15 -13 84 -4
83 -4 48 16 48 16 97 0 98 0 25 -10 26 -10 12 -24 11 -25 29 3 29 3 6 7 6 6
-14 0 -14 0 15 11 15 11 -20 -7 -20 -6 -8 -2 -9 -2 -14 20 -14 21 19 0 19 0
-6 -16 -5 -15 5 5 5 5 11 21 11 20 -162 3 -162 2 -34 -17 -33 -17 -77 0 -77 0
-22 7 -22 7 0 23 0 23 20 18 20 18 29 1 29 1 -4 6 -4 7 23 5 22 6 70 2 70 2
10 8 10 7 69 26 69 26 18 -5 18 -6 3 -17 4 -17 6 23 6 22 -10 -7 -11 -6 7 11
7 12 15 0 14 0 0 9 0 9 45 18 45 17 75 -7 75 -7 0 9 0 9 -32 -3 -33 -4 25 9
25 9 40 1 40 1 -15 -9 -14 -10 -8 5 -8 5 7 -17 7 -18 4 12 4 12 52 0 53 0 57
-12 57 -11 -13 -8 -13 -9 30 0 30 0 32 -20 32 -19 10 -20 11 -20 -28 -4 -27
-4 38 -2 37 -1 0 -6 0 -5 -10 -19 -10 -19 -13 3 -12 3 8 -5 8 -4 -17 -19 -17
-19 -19 0 -19 0 6 -10 6 -10 -9 0 -9 0 -6 7 -7 6 18 14 17 14 -22 -6 -23 -6 0
23 0 24 -12 13 -13 12 16 -6 17 -6 7 10 6 11 10 -5 9 -6 0 11 0 11 -22 -7 -23
-7 -47 2 -48 1 -22 -22 -23 -23 -15 3 -15 3 15 -10 14 -10 7 5 7 4 10 -39 9
-39 -23 4 -24 4 0 -10 0 -10 25 0 25 0 0 -9 0 -9 -25 -4 -25 -5 -5 36 -6 36
-7 30 -8 30 -29 14 -29 14 -26 -15 -26 -15 -20 7 -19 7 -30 -19 -30 -18 38 4
38 5 9 6 10 6 0 -59 0 -59 -32 3 -33 3 18 -5 17 -5 0 -11 0 -10 15 6 15 5 0
-5 0 -5 -15 -15 -15 -15 0 -12 0 -12 10 15 9 14 7 -17 6 -17 -53 -52 -54 -51
-23 -4 -22 -4 -21 12 -21 11 8 8 9 8 20 5 20 5 -37 -3 -38 -3 0 3 0 3 -6 15
-6 16 21 -6 21 -5 15 12 15 12 0 19 0 19 -34 0 -34 0 -16 6 -16 6 0 -27 0 -28
22 -36 21 -36 21 -17 21 -18 -287 0 -288 0 0 -375 0 -375 640 0 640 0 0 375 0
375 -322 0 -322 0 49 50 49 50 13 0 13 0 37 -20 38 -20 37 0 37 0 35 30 34 30
27 -10 28 -10 34 26 34 26 33 9 33 9 33 23 33 22 26 74 25 73 -19 14 -20 15
-35 -6 -35 -6 -20 30 -19 30 -52 25 -51 25 -74 21 -74 20 -75 -1 -75 -2 -66
-7z m581 -155 l12 -15 -6 -25 -6 -25 -20 10 -19 10 -4 0 -4 0 0 -15 0 -15 19
0 19 0 -6 -22 -7 -23 -22 -23 -21 -24 -27 -14 -27 -14 -16 0 -17 0 -25 -20
-25 -20 -9 6 -9 5 0 -10 0 -11 -26 10 -25 10 -17 -9 -17 -9 -19 -21 -19 -21
-41 1 -41 1 13 5 12 5 -6 9 -5 9 -27 0 -27 0 -15 10 -14 9 -4 73 -4 73 7 -7 7
-7 15 14 14 15 19 0 19 0 4 -17 5 -18 1 23 1 22 -38 0 -39 0 -6 7 -7 6 11 14
11 13 29 0 28 0 11 -19 10 -20 0 -24 0 -24 15 -44 16 -43 12 -8 12 -8 8 0 7 0
0 10 0 10 -15 0 -15 0 0 10 0 10 25 0 24 0 -6 -17 -6 -16 12 8 13 8 9 -14 8
-13 6 6 6 6 -16 16 -16 16 -8 48 -7 48 4 12 4 12 34 0 34 0 0 8 0 8 -37 -4
-38 -5 -8 -11 -8 -11 3 24 3 24 17 11 17 10 27 -9 28 -10 15 -50 15 -50 10 -7
10 -7 17 10 18 9 11 -17 11 -18 -5 20 -5 20 19 25 20 25 1 -20 1 -20 -2 -10
-2 -10 9 8 8 9 1 21 1 22 2 18 1 17 20 20 20 20 14 0 14 0 12 -15z m-670 -239
l0 -14 -16 -6 -16 -6 -8 0 -9 0 -11 20 -11 20 36 0 35 0 0 -14z"/>
<path d="M947 1028 l4 -8 19 0 19 0 4 8 5 7 -28 0 -28 0 5 -7z"/>
<path d="M777 988 l4 -8 14 0 14 0 5 9 6 9 -24 -2 -24 -1 5 -7z"/>
<path d="M1178 983 l13 -5 6 6 6 6 -19 -1 -19 -1 13 -5z"/>
<path d="M1071 948 l-1 -28 10 0 10 0 0 11 0 10 10 -6 10 -6 -6 15 -6 16 -8
-5 -8 -5 -5 12 -5 13 -1 -27z"/>
<path d="M783 949 l19 -11 11 11 11 11 -29 0 -30 -1 18 -10z"/>
<path d="M978 943 l22 -4 18 4 17 5 -40 -1 -40 0 23 -4z"/>
<path d="M820 880 l-25 -8 22 -1 22 -1 6 10 6 10 -3 -1 -3 -1 -25 -8z"/>
<path d="M870 865 l-13 -15 6 -6 5 -6 12 21 11 21 -4 0 -5 0 -12 -15z"/>
<path d="M780 1217 l0 -14 -25 -23 -25 -23 5 -5 5 -5 -11 -14 -11 -13 10 0 10
0 12 15 12 14 -7 10 -6 11 16 -6 16 -7 -5 -13 -5 -13 10 -6 9 -6 -1 8 -1 8 1
14 1 13 18 -13 17 -14 -16 20 -16 20 -7 12 -7 13 15 -6 16 -6 0 7 0 6 -15 15
-15 15 0 -14z"/>
<path d="M1018 1193 l13 -5 6 6 6 6 -19 -1 -19 -1 13 -5z"/>
<path d="M440 1164 l0 -15 -12 7 -11 7 7 -12 8 -12 19 17 19 17 0 4 0 3 -15 0
-15 0 0 -16z"/>
<path d="M470 1113 l0 -12 10 -6 11 -7 -12 -14 -11 -14 21 0 22 0 -10 18 -10
17 -11 15 -10 15 0 -12z"/>
<path d="M271 1094 l1 -19 5 13 5 13 -6 6 -6 6 1 -19z"/>
<path d="M878 1103 l13 -5 6 6 6 6 -19 -1 -19 -1 13 -5z"/>
<path d="M250 1045 l0 -15 10 0 10 0 0 15 0 15 -10 0 -10 0 0 -15z"/>
<path d="M538 1043 l22 -4 23 4 22 4 -45 0 -45 0 23 -4z"/>
<path d="M617 1039 l13 -13 5 6 6 6 -18 6 -18 7 12 -12z"/>
<path d="M515 921 l-5 -9 37 5 38 5 22 -24 21 -23 11 -35 11 -35 -6 40 -5 40
-15 11 -14 11 0 6 0 6 13 -3 12 -4 30 -6 30 -6 -24 13 -24 14 -63 1 -63 1 -6
-8z"/>
</g>
</svg>
