<?xml version="1.0" standalone="no"?>
<!DOCTYPE svg PUBLIC "-//W3C//DTD SVG 20010904//EN"
 "http://www.w3.org/TR/2001/REC-SVG-20010904/DTD/svg10.dtd">
<svg version="1.0" xmlns="http://www.w3.org/2000/svg"
 width="468pt" height="468pt" viewBox="0 0 468 468"
 preserveAspectRatio="xMidYMid meet">
<metadata>
Created by potrace 1.8, written by Peter Selinger 2001-2007
</metadata>
<g transform="translate(0,468) scale(0.365625,-0.365625)"
fill="#000000" stroke="none">
<path d="M1200 1240 l0 -10 -15 0 -15 0 0 -15 0 -15 -570 0 -570 0 0 -560 0
-560 10 0 10 0 0 -15 0 -15 15 0 15 0 0 -10 0 -10 560 0 560 0 0 385 0 385 15
0 15 0 0 95 0 95 -15 0 -15 0 0 -15 0 -15 -15 0 -15 0 0 -11 0 -10 -14 -15
-15 -14 -10 0 -11 0 0 -15 0 -15 -15 0 -15 0 0 -11 0 -10 -14 -15 -15 -14 -10
0 -11 0 0 -15 0 -15 -15 0 -15 0 0 -11 0 -10 -14 -15 -15 -14 -10 0 -11 0 0
-15 0 -15 -15 0 -15 0 0 -11 0 -10 -14 -15 -15 -14 -10 0 -11 0 0 -15 0 -15
-15 0 -15 0 0 -11 0 -10 -14 -15 -15 -14 -10 0 -11 0 0 -30 0 -30 -11 0 -10 0
-15 -14 -14 -15 0 -10 0 -11 -15 0 -15 0 0 -15 0 -15 15 0 15 0 0 15 0 15 10
0 10 0 0 15 0 15 15 0 15 0 0 10 0 10 25 0 25 0 0 -25 0 -25 -10 0 -10 0 0 15
0 15 -15 0 -15 0 0 -15 0 -15 -15 0 -15 0 0 -11 0 -10 -14 -15 -15 -14 -10 0
-11 0 0 10 0 10 -11 0 -10 0 -15 -14 -14 -15 0 -10 0 -11 -15 0 -15 0 0 -15 0
-15 -25 0 -25 0 0 -10 0 -10 -30 0 -30 0 0 -15 0 -15 -10 0 -10 0 0 15 0 15
-15 0 -15 0 0 10 0 10 -11 0 -10 0 -15 -14 -14 -15 0 -25 0 -26 -15 0 -15 0 0
-25 0 -25 -15 0 -15 0 0 -15 0 -15 135 0 135 0 0 15 0 15 -80 0 -80 0 0 15 0
15 25 0 25 0 0 10 0 10 30 0 30 0 0 15 0 15 25 0 25 0 0 15 0 15 25 0 25 0 0
10 0 10 30 0 30 0 0 15 0 15 25 0 25 0 0 15 0 15 25 0 25 0 0 10 0 10 15 0 15
0 0 15 0 15 15 0 15 0 0 11 0 10 14 15 15 14 10 0 11 0 0 15 0 15 15 0 15 0 0
11 0 10 14 15 15 14 10 0 11 0 0 -10 0 -10 15 0 15 0 0 10 0 10 -15 0 -15 0 0
15 0 15 15 0 15 0 0 11 0 10 14 15 15 14 10 0 11 0 0 -290 0 -290 -535 0 -535
0 0 530 0 530 535 0 535 0 0 -10 0 -10 11 0 10 0 15 14 14 15 0 10 0 11 15 0
15 0 0 15 0 15 15 0 15 0 0 10 0 10 -15 0 -15 0 0 -10z"/>
<path d="M1090 1135 l0 -15 -10 0 -10 0 0 -15 0 -15 -15 0 -15 0 0 -10 0 -10
-15 0 -15 0 0 -15 0 -15 -10 0 -10 0 0 -15 0 -15 -15 0 -15 0 0 15 0 15 -55 0
-55 0 0 -15 0 -15 55 0 55 0 0 -10 0 -10 -15 0 -15 0 0 -15 0 -15 -10 0 -10 0
0 -15 0 -15 -15 0 -15 0 0 -10 0 -10 -15 0 -15 0 0 -15 0 -15 -10 0 -10 0 0
-15 0 -15 -15 0 -15 0 0 -10 0 -10 -15 0 -15 0 0 -15 0 -15 -10 0 -10 0 0 -15
0 -15 -15 0 -15 0 0 -10 0 -10 -15 0 -15 0 0 -15 0 -15 -10 0 -10 0 0 -15 0
-15 -15 0 -15 0 0 -10 0 -10 -15 0 -15 0 0 -15 0 -15 -10 0 -10 0 0 -25 0 -25
-15 0 -15 0 0 10 0 10 -215 0 -215 0 0 -10 0 -10 215 0 215 0 0 -30 0 -30 -15
0 -15 0 0 -25 0 -25 -10 0 -10 0 0 -25 0 -25 -15 0 -15 0 0 -30 0 -30 15 0 15
0 0 30 0 30 10 0 10 0 0 25 0 25 15 0 15 0 0 25 0 25 15 0 15 0 0 30 0 30 10
0 10 0 0 25 0 25 15 0 15 0 0 15 0 15 11 0 10 0 15 14 14 15 0 10 0 11 15 0
15 0 0 15 0 15 11 0 10 0 15 14 14 15 0 10 0 11 15 0 15 0 0 15 0 15 11 0 10
0 15 14 14 15 0 10 0 11 15 0 15 0 0 15 0 15 11 0 10 0 15 14 14 15 0 10 0 11
15 0 15 0 0 15 0 15 11 0 10 0 15 14 14 15 0 10 0 11 15 0 15 0 0 15 0 15 11
0 10 0 15 14 14 15 0 10 0 11 15 0 15 0 0 15 0 15 -15 0 -15 0 0 -15z"/>
<path d="M130 1025 l0 -15 30 0 30 0 0 15 0 15 -30 0 -30 0 0 -15z"/>
<path d="M210 1025 l0 -15 55 0 55 0 0 15 0 15 -55 0 -55 0 0 -15z"/>
<path d="M370 1025 l0 -15 70 0 70 0 0 15 0 15 -70 0 -70 0 0 -15z"/>
<path d="M530 1025 l0 -15 70 0 70 0 0 15 0 15 -70 0 -70 0 0 -15z"/>
<path d="M690 1025 l0 -15 70 0 70 0 0 15 0 15 -70 0 -70 0 0 -15z"/>
<path d="M130 975 l0 -15 95 0 95 0 0 15 0 15 -95 0 -95 0 0 -15z"/>
<path d="M350 975 l0 -15 25 0 25 0 0 15 0 15 -25 0 -25 0 0 -15z"/>
<path d="M430 975 l0 -15 130 0 130 0 0 15 0 15 -130 0 -130 0 0 -15z"/>
<path d="M130 920 l0 -10 70 0 70 0 0 10 0 10 -70 0 -70 0 0 -10z"/>
<path d="M290 920 l0 -10 150 0 150 0 0 10 0 10 -150 0 -150 0 0 -10z"/>
<path d="M610 920 l0 -10 110 0 110 0 0 10 0 10 -110 0 -110 0 0 -10z"/>
<path d="M210 865 l0 -15 135 0 135 0 0 15 0 15 -135 0 -135 0 0 -15z"/>
<path d="M510 865 l0 -15 120 0 120 0 0 15 0 15 -120 0 -120 0 0 -15z"/>
<path d="M130 815 l0 -15 215 0 215 0 0 15 0 15 -215 0 -215 0 0 -15z"/>
<path d="M590 815 l0 -15 65 0 65 0 0 15 0 15 -65 0 -65 0 0 -15z"/>
<path d="M130 760 l0 -10 30 0 30 0 0 10 0 10 -30 0 -30 0 0 -10z"/>
<path d="M210 760 l0 -10 40 0 40 0 0 10 0 10 -40 0 -40 0 0 -10z"/>
<path d="M320 760 l0 -10 145 0 145 0 0 10 0 10 -145 0 -145 0 0 -10z"/>
<path d="M640 760 l0 -10 15 0 15 0 0 10 0 10 -15 0 -15 0 0 -10z"/>
<path d="M130 705 l0 -15 95 0 95 0 0 15 0 15 -95 0 -95 0 0 -15z"/>
<path d="M350 705 l0 -15 10 0 10 0 0 15 0 15 -10 0 -10 0 0 -15z"/>
<path d="M450 705 l0 -15 30 0 30 0 0 15 0 15 -30 0 -30 0 0 -15z"/>
<path d="M560 705 l0 -15 25 0 25 0 0 15 0 15 -25 0 -25 0 0 -15z"/>
<path d="M130 655 l0 -15 30 0 30 0 0 15 0 15 -30 0 -30 0 0 -15z"/>
<path d="M210 655 l0 -15 70 0 70 0 0 15 0 15 -70 0 -70 0 0 -15z"/>
<path d="M370 655 l0 -15 70 0 70 0 0 15 0 15 -70 0 -70 0 0 -15z"/>
<path d="M530 655 l0 -15 15 0 15 0 0 15 0 15 -15 0 -15 0 0 -15z"/>
<path d="M130 545 l0 -15 135 0 135 0 0 15 0 15 -135 0 -135 0 0 -15z"/>
<path d="M450 545 l0 -15 30 0 30 0 0 15 0 15 -30 0 -30 0 0 -15z"/>
<path d="M290 495 l0 -15 30 0 30 0 0 15 0 15 -30 0 -30 0 0 -15z"/>
<path d="M370 495 l0 -15 55 0 55 0 0 15 0 15 -55 0 -55 0 0 -15z"/>
<path d="M130 440 l0 -10 135 0 135 0 0 10 0 10 -135 0 -135 0 0 -10z"/>
<path d="M430 440 l0 -10 10 0 10 0 0 10 0 10 -10 0 -10 0 0 -10z"/>
<path d="M910 440 l0 -10 40 0 40 0 0 10 0 10 -40 0 -40 0 0 -10z"/>
<path d="M130 385 l0 -15 55 0 55 0 0 15 0 15 -55 0 -55 0 0 -15z"/>
<path d="M270 385 l0 -15 80 0 80 0 0 15 0 15 -80 0 -80 0 0 -15z"/>
<path d="M130 335 l0 -15 40 0 40 0 0 15 0 15 -40 0 -40 0 0 -15z"/>
<path d="M240 335 l0 -15 65 0 65 0 0 15 0 15 -65 0 -65 0 0 -15z"/>
<path d="M290 280 l0 -10 40 0 40 0 0 10 0 10 -40 0 -40 0 0 -10z"/>
<path d="M610 280 l0 -10 80 0 80 0 0 10 0 10 -80 0 -80 0 0 -10z"/>
<path d="M800 280 l0 -10 95 0 95 0 0 10 0 10 -95 0 -95 0 0 -10z"/>
<path d="M130 225 l0 -15 15 0 15 0 0 15 0 15 -15 0 -15 0 0 -15z"/>
<path d="M190 225 l0 -15 80 0 80 0 0 15 0 15 -80 0 -80 0 0 -15z"/>
<path d="M670 225 l0 -15 25 0 25 0 0 15 0 15 -25 0 -25 0 0 -15z"/>
<path d="M750 225 l0 -15 40 0 40 0 0 15 0 15 -40 0 -40 0 0 -15z"/>
<path d="M850 225 l0 -15 95 0 95 0 0 15 0 15 -95 0 -95 0 0 -15z"/>
</g>
</svg>
