<?xml version="1.0" standalone="no"?>
<!DOCTYPE svg PUBLIC "-//W3C//DTD SVG 20010904//EN"
 "http://www.w3.org/TR/2001/REC-SVG-20010904/DTD/svg10.dtd">
<svg version="1.0" xmlns="http://www.w3.org/2000/svg"
 width="468pt" height="468pt" viewBox="0 0 468 468"
 preserveAspectRatio="xMidYMid meet">
<metadata>
Created by potrace 1.8, written by Peter Selinger 2001-2007
</metadata>
<g transform="translate(0,468) scale(0.365625,-0.365625)"
fill="#000000" stroke="none">
<path d="M320 640 l0 -320 320 0 320 0 0 320 0 320 -320 0 -320 0 0 -320z
m160 240 l0 -30 -55 0 -55 0 0 30 0 30 55 0 55 0 0 -30z m210 -50 l0 -80 -160
0 -160 0 0 25 0 25 110 0 110 0 0 55 0 55 50 0 50 0 0 -80z m110 25 l0 -55 55
0 55 0 0 -25 0 -25 -80 0 -80 0 0 80 0 80 25 0 25 0 0 -55z m-110 -325 l0
-160 -50 0 -50 0 0 110 0 110 -110 0 -110 0 0 50 0 50 160 0 160 0 0 -160z
m220 110 l0 -50 -55 0 -55 0 0 -110 0 -110 -25 0 -25 0 0 160 0 160 80 0 80 0
0 -50z m-430 -135 l0 -25 25 0 25 0 0 -55 0 -55 -50 0 -50 0 0 30 0 30 -30 0
-30 0 0 50 0 50 55 0 55 0 0 -25z m430 -80 l0 -55 -30 0 -30 0 0 55 0 55 30 0
30 0 0 -55z"/>
<path d="M430 455 l0 -25 25 0 25 0 0 25 0 25 -25 0 -25 0 0 -25z"/>
</g>
</svg>
