<?xml version="1.0" standalone="no"?>
<!DOCTYPE svg PUBLIC "-//W3C//DTD SVG 20010904//EN"
 "http://www.w3.org/TR/2001/REC-SVG-20010904/DTD/svg10.dtd">
<svg version="1.0" xmlns="http://www.w3.org/2000/svg"
 width="468pt" height="468pt" viewBox="0 0 468 468"
 preserveAspectRatio="xMidYMid meet">
<metadata>
Created by potrace 1.8, written by Peter Selinger 2001-2007
</metadata>
<g transform="translate(0,468) scale(0.365625,-0.365625)"
fill="#000000" stroke="none">
<path d="M808 1239 l-38 -38 0 -26 0 -25 -15 0 -15 0 0 -95 0 -95 -10 0 -10 0
0 85 0 85 -50 0 -50 0 0 65 0 65 -85 0 -85 0 0 -65 0 -65 -25 0 -24 0 -4 -87
-3 -88 -2 138 -2 137 -110 0 -110 0 0 -135 0 -135 -20 0 -20 0 0 135 0 135
-55 0 -55 0 0 -135 0 -135 -10 0 -10 0 0 -480 0 -480 640 0 640 0 0 480 0 480
-15 0 -15 0 0 110 0 110 -80 0 -80 0 0 -15 0 -15 -50 0 -50 0 0 -95 0 -95 -15
0 -15 0 0 60 0 60 -15 0 -15 0 0 60 0 61 -39 39 -39 40 -4 -1 -3 -1 -37 -39z
m64 6 l13 -16 13 -14 12 -14 0 -70 0 -71 15 0 15 0 0 -50 0 -50 -90 0 -90 0 0
85 0 85 15 0 15 0 0 35 0 35 28 30 27 30 7 0 7 0 13 -15z m-262 -65 l0 -70 50
0 50 0 0 -75 0 -75 -145 0 -145 0 0 75 0 75 25 0 25 0 0 70 0 70 70 0 70 0 0
-70z m-490 -95 l0 -125 -45 0 -45 0 0 125 0 125 45 0 45 0 0 -125z m250 0 l0
-125 -90 0 -90 0 0 125 0 125 90 0 90 0 0 -125z m860 -25 l0 -100 -110 0 -110
0 0 85 0 85 50 0 50 0 0 15 0 15 60 0 60 0 0 -100z"/>
<path d="M810 1170 l0 -10 10 0 10 0 0 10 0 10 -10 0 -10 0 0 -10z"/>
<path d="M840 1170 l0 -10 10 0 10 0 0 10 0 10 -10 0 -10 0 0 -10z"/>
<path d="M810 1140 l0 -10 10 0 10 0 0 10 0 10 -10 0 -10 0 0 -10z"/>
<path d="M840 1140 l0 -10 10 0 10 0 0 10 0 10 -10 0 -10 0 0 -10z"/>
<path d="M770 1100 l0 -10 10 0 10 0 0 10 0 10 -10 0 -10 0 0 -10z"/>
<path d="M810 1100 l0 -10 10 0 10 0 0 10 0 10 -10 0 -10 0 0 -10z"/>
<path d="M840 1100 l0 -10 10 0 10 0 0 10 0 10 -10 0 -10 0 0 -10z"/>
<path d="M770 1070 l0 -10 10 0 10 0 0 10 0 10 -10 0 -10 0 0 -10z"/>
<path d="M810 1070 l0 -10 10 0 10 0 0 10 0 10 -10 0 -10 0 0 -10z"/>
<path d="M840 1070 l0 -10 10 0 10 0 0 10 0 10 -10 0 -10 0 0 -10z"/>
<path d="M770 1000 l0 -10 10 0 10 0 0 10 0 10 -10 0 -10 0 0 -10z"/>
<path d="M810 1000 l0 -10 10 0 10 0 0 10 0 10 -10 0 -10 0 0 -10z"/>
<path d="M840 1000 l0 -10 10 0 10 0 0 10 0 10 -10 0 -10 0 0 -10z"/>
<path d="M910 1000 l0 -10 10 0 10 0 0 10 0 10 -10 0 -10 0 0 -10z"/>
<path d="M450 1050 l0 -10 10 0 10 0 0 10 0 10 -10 0 -10 0 0 -10z"/>
<path d="M450 1020 l0 -10 10 0 10 0 0 10 0 10 -10 0 -10 0 0 -10z"/>
<path d="M50 1190 l0 -10 25 0 25 0 0 10 0 10 -25 0 -25 0 0 -10z"/>
<path d="M63 1153 l17 -5 13 5 12 5 -30 0 -30 0 18 -5z"/>
<path d="M50 1120 l0 -10 25 0 25 0 0 10 0 10 -25 0 -25 0 0 -10z"/>
<path d="M63 1083 l17 -5 13 5 12 5 -30 0 -30 0 18 -5z"/>
<path d="M50 1050 l0 -10 25 0 25 0 0 10 0 10 -25 0 -25 0 0 -10z"/>
<path d="M50 1020 l0 -10 25 0 25 0 0 10 0 10 -25 0 -25 0 0 -10z"/>
<path d="M63 983 l17 -5 13 5 12 5 -30 0 -30 0 18 -5z"/>
<path d="M220 1175 l0 -25 10 0 10 0 0 25 0 25 -10 0 -10 0 0 -25z"/>
<path d="M270 1175 l0 -25 10 0 10 0 0 25 0 25 -10 0 -10 0 0 -25z"/>
<path d="M320 1175 l0 -25 10 0 10 0 0 25 0 25 -10 0 -10 0 0 -25z"/>
<path d="M220 1085 l0 -25 10 0 10 0 0 25 0 25 -10 0 -10 0 0 -25z"/>
<path d="M270 1085 l0 -25 10 0 10 0 0 25 0 25 -10 0 -10 0 0 -25z"/>
<path d="M320 1085 l0 -25 10 0 10 0 0 25 0 25 -10 0 -10 0 0 -25z"/>
<path d="M220 1005 l0 -25 10 0 10 0 0 25 0 25 -10 0 -10 0 0 -25z"/>
<path d="M270 1005 l0 -25 10 0 10 0 0 25 0 25 -10 0 -10 0 0 -25z"/>
<path d="M320 1005 l0 -25 10 0 10 0 0 25 0 25 -10 0 -10 0 0 -25z"/>
<path d="M1130 1140 l0 -10 15 0 15 0 0 10 0 10 -15 0 -15 0 0 -10z"/>
<path d="M1180 1140 l0 -10 15 0 15 0 0 10 0 10 -15 0 -15 0 0 -10z"/>
<path d="M1030 1100 l0 -10 15 0 15 0 0 10 0 10 -15 0 -15 0 0 -10z"/>
<path d="M1080 1100 l0 -10 15 0 15 0 0 10 0 10 -15 0 -15 0 0 -10z"/>
<path d="M1130 1100 l0 -10 15 0 15 0 0 10 0 10 -15 0 -15 0 0 -10z"/>
<path d="M1180 1100 l0 -10 15 0 15 0 0 10 0 10 -15 0 -15 0 0 -10z"/>
<path d="M1030 1070 l0 -10 15 0 15 0 0 10 0 10 -15 0 -15 0 0 -10z"/>
<path d="M1080 1070 l0 -10 15 0 15 0 0 10 0 10 -15 0 -15 0 0 -10z"/>
<path d="M1130 1070 l0 -10 15 0 15 0 0 10 0 10 -15 0 -15 0 0 -10z"/>
<path d="M1180 1070 l0 -10 15 0 15 0 0 10 0 10 -15 0 -15 0 0 -10z"/>
<path d="M1038 1033 l13 -5 6 6 6 6 -19 -1 -19 -1 13 -5z"/>
<path d="M1088 1033 l13 -5 6 6 6 6 -19 -1 -19 -1 13 -5z"/>
<path d="M1138 1033 l13 -5 6 6 6 6 -19 -1 -19 -1 13 -5z"/>
<path d="M1188 1033 l13 -5 6 6 6 6 -19 -1 -19 -1 13 -5z"/>
<path d="M1030 1000 l0 -10 15 0 15 0 0 10 0 10 -15 0 -15 0 0 -10z"/>
<path d="M1080 1000 l0 -10 15 0 15 0 0 10 0 10 -15 0 -15 0 0 -10z"/>
<path d="M1130 1000 l0 -10 15 0 15 0 0 10 0 10 -15 0 -15 0 0 -10z"/>
<path d="M1180 1000 l0 -10 15 0 15 0 0 10 0 10 -15 0 -15 0 0 -10z"/>
</g>
</svg>
