<?xml version="1.0" standalone="no"?>
<!DOCTYPE svg PUBLIC "-//W3C//DTD SVG 20010904//EN"
 "http://www.w3.org/TR/2001/REC-SVG-20010904/DTD/svg10.dtd">
<svg version="1.0" xmlns="http://www.w3.org/2000/svg"
 width="468pt" height="468pt" viewBox="0 0 468 468"
 preserveAspectRatio="xMidYMid meet">
<metadata>
Created by potrace 1.8, written by Peter Selinger 2001-2007
</metadata>
<g transform="translate(0,468) scale(0.365625,-0.365625)"
fill="#000000" stroke="none">
<path d="M910 1190 l0 -90 -365 0 -365 0 0 -550 0 -550 460 0 460 0 0 90 0 90
-365 0 -365 0 0 95 0 95 270 0 270 0 0 270 0 270 185 0 185 0 0 95 0 95 -90 0
-90 0 0 90 0 90 -95 0 -95 0 0 -90z m-180 -460 l0 -180 -180 0 -180 0 0 180 0
180 180 0 180 0 0 -180z"/>
</g>
</svg>
