<?xml version="1.0" standalone="no"?>
<!DOCTYPE svg PUBLIC "-//W3C//DTD SVG 20010904//EN"
 "http://www.w3.org/TR/2001/REC-SVG-20010904/DTD/svg10.dtd">
<svg version="1.0" xmlns="http://www.w3.org/2000/svg"
 width="468pt" height="468pt" viewBox="0 0 468 468"
 preserveAspectRatio="xMidYMid meet">
<metadata>
Created by potrace 1.8, written by Peter Selinger 2001-2007
</metadata>
<g transform="translate(0,468) scale(0.365625,-0.365625)"
fill="#000000" stroke="none">
<path d="M383 1015 l-23 -24 0 -11 0 -11 -14 -15 -15 -14 -65 0 -66 0 0 -40 0
-40 10 0 10 0 0 -20 0 -20 -20 0 -20 0 0 -50 0 -50 10 0 10 0 0 -50 0 -50 30
0 30 0 0 10 0 10 20 0 20 0 0 -20 0 -20 -10 0 -10 0 0 -20 0 -20 -10 0 -10 0
0 -20 0 -20 -10 0 -10 0 0 -40 0 -40 10 0 10 0 0 -15 0 -16 25 -24 24 -25 36
0 35 0 0 10 0 10 15 0 16 0 24 25 25 24 0 16 0 15 10 0 10 0 0 20 0 20 10 0
10 0 0 26 0 25 -50 49 -50 49 0 15 0 16 6 0 5 0 49 -50 49 -50 35 0 36 0 0 10
0 10 20 0 20 0 0 10 0 10 30 0 30 0 0 -120 0 -120 -6 0 -5 0 -15 14 -14 15 0
35 0 36 10 0 10 0 0 10 0 10 -20 0 -20 0 0 -30 0 -30 -6 0 -5 0 -15 14 -14 15
0 15 0 16 -9 0 -9 0 -5 -12 -5 -13 -11 15 -10 14 -7 -6 -7 -7 33 -31 34 -32
-15 -10 -14 -10 13 -5 12 -5 0 -9 0 -9 -30 0 -30 0 0 -30 0 -30 10 0 10 0 0
10 0 10 20 0 20 0 0 10 0 10 20 0 20 0 0 9 0 9 -12 5 -13 4 7 8 7 7 25 -25 26
-26 0 -16 0 -15 10 0 10 0 0 -25 0 -26 25 -24 24 -25 11 0 12 0 38 40 38 40
12 0 11 0 15 14 14 15 0 13 0 14 -20 14 -20 14 0 148 0 148 30 0 30 0 0 10 0
10 40 0 40 0 0 10 0 10 30 0 30 0 0 10 0 10 40 0 40 0 0 10 0 10 20 0 20 0 0
90 0 90 -10 0 -10 0 0 20 0 20 -10 0 -10 0 0 16 0 15 -14 15 -15 14 -343 -1
-343 0 -22 -24z m712 -20 l25 -24 0 -26 0 -25 10 0 10 0 0 -70 0 -70 -20 0
-20 0 0 -10 0 -10 -30 0 -30 0 0 -10 0 -10 -30 0 -30 0 0 -10 0 -10 -40 0 -40
0 0 -10 0 -10 -40 0 -40 0 0 -10 0 -10 -50 0 -50 0 0 -10 0 -10 -30 0 -30 0 0
-10 0 -10 -20 0 -20 0 0 -10 0 -10 -20 0 -20 0 0 -10 0 -10 -30 0 -30 0 0 175
0 176 -25 24 -24 25 -22 0 -22 0 -18 -22 -19 -21 -6 6 -6 6 23 25 24 25 323 0
323 1 24 -25z m-595 -85 l0 -10 -16 0 -17 0 -19 -22 -19 -22 -10 14 -9 15 -9
-15 -10 -14 -20 23 -20 23 -17 -16 -16 -17 6 -7 7 -6 9 13 8 14 16 -16 16 -16
0 -5 0 -6 -50 0 -50 0 0 -10 0 -10 -20 0 -20 0 0 20 0 20 -10 0 -10 0 0 30 0
30 140 0 140 0 0 -10z m0 -40 l0 -10 -10 0 -10 0 0 -15 0 -16 -25 -24 -24 -25
-106 0 -105 0 0 10 0 10 30 0 30 0 0 10 0 10 50 0 50 0 0 10 0 10 30 0 30 0 0
10 0 10 20 0 20 0 0 10 0 10 10 0 10 0 0 -10z m0 -100 l0 -50 -20 0 -20 0 0
-10 0 -10 -40 0 -40 0 0 -10 0 -10 -30 0 -30 0 0 -10 0 -10 -30 0 -30 0 0 -10
0 -10 -20 0 -20 0 0 50 0 50 -10 0 -10 0 0 10 0 10 118 0 117 1 25 29 25 29 8
1 7 0 0 -50z m0 -79 l0 -9 -12 -5 -13 -5 15 -11 14 -10 -6 -7 -7 -6 -16 16
-16 16 13 14 13 15 8 1 7 0 0 -9z m-95 -86 l55 -55 0 -35 0 -35 -10 0 -10 0 0
-15 0 -16 -25 -24 -24 -25 -16 0 -15 0 0 -10 0 -10 -15 0 -16 0 -24 25 -25 24
0 16 0 15 -10 0 -10 0 0 20 0 20 10 0 10 0 0 20 0 20 10 0 10 0 0 20 0 20 10
0 10 0 0 20 0 20 10 0 10 0 0 20 0 20 5 0 5 0 55 -55z m415 -95 l0 -150 -10 0
-10 0 0 -20 0 -20 -10 0 -10 0 0 -30 0 -30 -10 0 -10 0 0 190 0 190 -10 0 -10
0 0 -190 0 -190 -6 0 -5 0 -15 14 -14 15 0 165 0 166 -10 0 -10 0 0 10 0 10
30 0 30 0 0 10 0 10 40 0 40 0 0 -150z m40 -180 l0 -10 -10 0 -10 0 0 10 0 10
10 0 10 0 0 -10z"/>
<path d="M560 950 l0 -10 10 0 10 0 0 -110 0 -110 -10 0 -10 0 0 -10 0 -10 30
0 30 0 0 10 0 10 -10 0 -10 0 0 100 0 100 6 0 5 0 15 -14 14 -15 0 -15 0 -16
10 0 10 0 0 16 0 15 14 15 15 14 5 0 6 0 0 -90 0 -90 -10 0 -10 0 0 -10 0 -10
30 0 30 0 0 10 0 10 -10 0 -10 0 0 100 0 100 10 0 10 0 0 10 0 10 -30 0 -30 0
0 -16 0 -15 -15 -15 -15 -15 -15 15 -15 15 0 15 0 16 -30 0 -30 0 0 -10z"/>
<path d="M803 915 l-23 -24 0 -66 0 -65 -10 0 -10 0 0 -10 0 -10 30 0 30 0 0
10 0 10 -10 0 -10 0 0 40 0 40 30 0 30 0 0 -30 0 -30 -10 0 -10 0 0 -10 0 -10
30 0 30 0 0 10 0 10 -10 0 -10 0 0 55 0 56 -25 24 -24 25 -3 -1 -3 0 -22 -24z
m43 -9 l14 -15 0 -15 0 -16 -30 0 -30 0 0 15 0 16 13 14 12 14 3 1 3 0 15 -14z"/>
<path d="M920 910 l0 -10 10 0 10 0 0 -50 0 -50 -10 0 -10 0 0 -10 0 -10 30 0
30 0 0 10 0 10 -10 0 -10 0 0 50 0 50 10 0 10 0 0 10 0 10 -30 0 -30 0 0 -10z"/>
<path d="M1020 860 l0 -60 26 0 25 0 16 15 15 16 -7 7 -8 7 -4 -12 -5 -13 -19
0 -19 0 0 50 0 50 -10 0 -10 0 0 -60z"/>
<path d="M260 890 l0 -10 20 0 20 0 0 10 0 10 -20 0 -20 0 0 -10z"/>
<path d="M513 445 l-13 -14 0 -6 0 -5 30 0 30 0 0 6 0 5 -14 15 -15 14 -3 0
-3 -1 -12 -14z"/>
<path d="M920 410 l0 -10 -30 0 -30 0 0 -6 0 -5 14 -15 15 -14 11 0 11 0 24
25 25 24 0 6 0 5 -20 0 -20 0 0 -10z"/>
<path d="M960 374 l0 -5 14 -15 15 -14 5 0 6 0 0 20 0 20 -20 0 -20 0 0 -6z"/>
<path d="M820 260 l0 -20 10 0 10 0 0 20 0 20 -10 0 -10 0 0 -20z"/>
<path d="M0 100 l0 -100 640 0 640 0 0 100 0 100 -640 0 -640 0 0 -100z"/>
</g>
</svg>
