<?xml version="1.0" standalone="no"?>
<!DOCTYPE svg PUBLIC "-//W3C//DTD SVG 20010904//EN"
 "http://www.w3.org/TR/2001/REC-SVG-20010904/DTD/svg10.dtd">
<svg version="1.0" xmlns="http://www.w3.org/2000/svg"
 width="468pt" height="468pt" viewBox="0 0 468 468"
 preserveAspectRatio="xMidYMid meet">
<metadata>
Created by potrace 1.8, written by Peter Selinger 2001-2007
</metadata>
<g transform="translate(0,468) scale(0.365625,-0.365625)"
fill="#000000" stroke="none">
<path d="M160 660 l0 -620 20 0 20 0 0 -20 0 -20 480 0 480 0 0 500 0 500 -20
0 -20 0 0 20 0 20 -20 0 -20 0 0 20 0 20 -20 0 -20 0 0 20 0 20 -20 0 -20 0 0
20 0 20 -20 0 -20 0 0 20 0 20 -20 0 -20 0 0 20 0 20 -20 0 -20 0 0 20 0 20
-360 0 -360 0 0 -620z m680 440 l0 -140 120 0 120 0 0 -440 0 -440 -440 0
-440 0 0 580 0 580 320 0 320 0 0 -140z m80 80 l0 -20 20 0 20 0 0 -20 0 -20
20 0 20 0 0 -20 0 -20 20 0 20 0 0 -20 0 -20 20 0 20 0 0 -20 0 -20 -100 0
-100 0 0 100 0 100 20 0 20 0 0 -20z"/>
<path d="M280 1100 l0 -20 240 0 240 0 0 20 0 20 -240 0 -240 0 0 -20z"/>
<path d="M280 1020 l0 -20 240 0 240 0 0 20 0 20 -240 0 -240 0 0 -20z"/>
<path d="M400 940 l0 -20 140 0 140 0 0 20 0 20 -140 0 -140 0 0 -20z"/>
<path d="M400 860 l0 -20 280 0 280 0 0 20 0 20 -280 0 -280 0 0 -20z"/>
<path d="M400 780 l0 -20 80 0 80 0 0 20 0 20 -80 0 -80 0 0 -20z"/>
<path d="M400 700 l0 -20 120 0 120 0 0 20 0 20 -120 0 -120 0 0 -20z"/>
<path d="M400 620 l0 -20 80 0 80 0 0 20 0 20 -80 0 -80 0 0 -20z"/>
<path d="M680 380 l0 -260 60 0 60 0 0 140 0 140 20 0 20 0 0 20 0 20 20 0 20
0 0 -20 0 -20 20 0 20 0 0 -140 0 -140 60 0 60 0 0 160 0 160 -20 0 -20 0 0
20 0 20 -20 0 -20 0 0 20 0 20 -80 0 -80 0 0 60 0 60 -60 0 -60 0 0 -260z"/>
<path d="M400 540 l0 -20 120 0 120 0 0 20 0 20 -120 0 -120 0 0 -20z"/>
<path d="M400 460 l0 -20 120 0 120 0 0 20 0 20 -120 0 -120 0 0 -20z"/>
<path d="M280 380 l0 -20 180 0 180 0 0 20 0 20 -180 0 -180 0 0 -20z"/>
<path d="M280 300 l0 -20 180 0 180 0 0 20 0 20 -180 0 -180 0 0 -20z"/>
<path d="M840 300 l0 -20 20 0 20 0 0 20 0 20 -20 0 -20 0 0 -20z"/>
<path d="M400 220 l0 -20 60 0 60 0 0 20 0 20 -60 0 -60 0 0 -20z"/>
<path d="M560 180 l0 -60 40 0 40 0 0 60 0 60 -40 0 -40 0 0 -60z"/>
</g>
</svg>
