<?xml version="1.0" standalone="no"?>
<!DOCTYPE svg PUBLIC "-//W3C//DTD SVG 20010904//EN"
 "http://www.w3.org/TR/2001/REC-SVG-20010904/DTD/svg10.dtd">
<svg version="1.0" xmlns="http://www.w3.org/2000/svg"
 width="468pt" height="468pt" viewBox="0 0 468 468"
 preserveAspectRatio="xMidYMid meet">
<metadata>
Created by potrace 1.8, written by Peter Selinger 2001-2007
</metadata>
<g transform="translate(0,468) scale(0.365625,-0.365625)"
fill="#000000" stroke="none">
<path d="M580 1265 l0 -15 -10 0 -10 0 0 -25 0 -25 10 0 10 0 0 -15 0 -15 -10
0 -10 0 0 -55 0 -55 10 0 10 0 0 -45 0 -45 -40 0 -40 0 0 15 0 15 -15 0 -15 0
0 30 0 30 -10 0 -10 0 0 15 0 15 10 0 10 0 0 25 0 25 -10 0 -10 0 0 15 0 15
-30 0 -30 0 0 -15 0 -15 -15 0 -15 0 0 -55 0 -55 15 0 15 0 0 -30 0 -30 15 0
15 0 0 -25 0 -25 -30 0 -30 0 0 -15 0 -15 -15 0 -15 0 0 15 0 15 -25 0 -25 0
0 15 0 15 -15 0 -15 0 0 40 0 40 -15 0 -15 0 0 15 0 15 -25 0 -25 0 0 -15 0
-15 -15 0 -15 0 0 -30 0 -30 15 0 15 0 0 -25 0 -25 10 0 10 0 0 -15 0 -15 15
0 15 0 0 -15 0 -15 15 0 15 0 0 -15 0 -15 15 0 15 0 0 -10 0 -10 11 0 10 0 15
14 14 15 0 10 0 11 15 0 15 0 0 15 0 15 30 0 30 0 0 15 0 15 15 0 15 0 0 -30
0 -30 -15 0 -15 0 0 -15 0 -15 15 0 15 0 0 15 0 15 10 0 10 0 0 41 0 40 -14
15 -15 14 -10 0 -11 0 0 30 0 30 -15 0 -15 0 0 55 0 55 30 0 30 0 0 -25 0 -25
-15 0 -15 0 0 -30 0 -30 15 0 15 0 0 -26 0 -25 14 -15 15 -14 10 0 11 0 0 -30
0 -30 30 0 30 0 0 15 0 15 -15 0 -15 0 0 15 0 15 40 0 40 0 0 55 0 55 -15 0
-15 0 0 55 0 55 15 0 15 0 0 -40 0 -40 15 0 15 0 0 -70 0 -70 40 0 40 0 0 -15
0 -15 -10 0 -10 0 0 -15 0 -15 -15 0 -15 0 0 -15 0 -15 15 0 15 0 0 15 0 15
10 0 10 0 0 -30 0 -30 15 0 15 0 0 30 0 30 15 0 15 0 0 15 0 15 15 0 15 0 0
-15 0 -15 25 0 25 0 0 -15 0 -15 15 0 15 0 0 30 0 30 15 0 15 0 0 -45 0 -45
11 0 10 0 15 -14 14 -15 0 -25 0 -26 -10 0 -10 0 0 -15 0 -15 -15 0 -15 0 0
-10 0 -10 -15 0 -15 0 0 10 0 10 -15 0 -15 0 0 -10 0 -10 15 0 15 0 0 -15 0
-15 15 0 15 0 0 15 0 15 11 0 10 0 15 14 14 15 0 10 0 11 15 0 15 0 0 15 0 15
15 0 15 0 0 15 0 15 15 0 15 0 0 10 0 10 25 0 25 0 0 -25 0 -25 -40 0 -40 0 0
-15 0 -15 -15 0 -15 0 0 -15 0 -15 -11 0 -10 0 -15 -14 -14 -15 0 -25 0 -26
-15 0 -15 0 0 -15 0 -15 15 0 15 0 0 15 0 15 10 0 10 0 0 15 0 15 15 0 15 0 0
15 0 15 15 0 15 0 0 10 0 10 15 0 15 0 0 15 0 15 25 0 25 0 0 15 0 15 15 0 15
0 0 25 0 25 -15 0 -15 0 0 15 0 15 -25 0 -25 0 0 -15 0 -15 -15 0 -15 0 0 -10
0 -10 -26 0 -25 0 -15 14 -14 15 0 40 0 41 10 0 10 0 0 25 0 25 15 0 15 0 0
15 0 15 15 0 15 0 0 30 0 30 15 0 15 0 0 40 0 40 -15 0 -15 0 0 15 0 15 -30 0
-30 0 0 -15 0 -15 -10 0 -10 0 0 -25 0 -25 10 0 10 0 0 -15 0 -15 -10 0 -10 0
0 -15 0 -15 -15 0 -15 0 0 -30 0 -30 -15 0 -15 0 0 -25 0 -25 -40 0 -40 0 0
25 0 25 10 0 10 0 0 30 0 30 15 0 15 0 0 15 0 15 15 0 15 0 0 25 0 25 -15 0
-15 0 0 15 0 15 -25 0 -25 0 0 -15 0 -15 -15 0 -15 0 0 -40 0 -40 -15 0 -15 0
0 -30 0 -30 -40 0 -40 0 0 60 0 60 -15 0 -15 0 0 40 0 40 15 0 15 0 0 40 0 40
-15 0 -15 0 0 15 0 15 -30 0 -30 0 0 -15z m60 -55 l0 -40 -15 0 -15 0 0 15 0
15 -15 0 -15 0 0 25 0 25 30 0 30 0 0 -40z m390 -110 l0 -40 -15 0 -15 0 0
-15 0 -15 -15 0 -15 0 0 -30 0 -30 -10 0 -10 0 0 -25 0 -25 -15 0 -15 0 0 25
0 25 15 0 15 0 0 30 0 30 10 0 10 0 0 15 0 15 15 0 15 0 0 15 0 15 -15 0 -15
0 0 25 0 25 30 0 30 0 0 -40z m-170 -15 l0 -25 -15 0 -15 0 0 -15 0 -15 -10 0
-10 0 0 -30 0 -30 -15 0 -15 0 0 -25 0 -25 -15 0 -15 0 0 -15 0 -15 -15 0 -15
0 0 15 0 15 15 0 15 0 0 25 0 25 15 0 15 0 0 30 0 30 15 0 15 0 0 40 0 40 25
0 25 0 0 -25z m-640 -95 l0 -40 15 0 15 0 0 -15 0 -15 15 0 15 0 0 -15 0 -15
25 0 25 0 0 -15 0 -15 -40 0 -40 0 0 15 0 15 -15 0 -15 0 0 15 0 15 -15 0 -15
0 0 25 0 25 -10 0 -10 0 0 30 0 30 25 0 25 0 0 -40z"/>
<path d="M30 905 l0 -15 -15 0 -15 0 0 -30 0 -30 15 0 15 0 0 -10 0 -10 15 0
15 0 0 -15 0 -15 10 0 10 0 0 -15 0 -15 15 0 15 0 0 -15 0 -15 15 0 15 0 0
-10 0 -10 15 0 15 0 0 -15 0 -15 10 0 10 0 0 -30 0 -30 -10 0 -10 0 0 -15 0
-15 -45 0 -45 0 0 -10 0 -10 -25 0 -25 0 0 -15 0 -15 -15 0 -15 0 0 -30 0 -30
15 0 15 0 0 -10 0 -10 25 0 25 0 0 10 0 10 15 0 15 0 0 15 0 15 30 0 30 0 0
-40 0 -40 10 0 10 0 0 -45 0 -45 15 0 15 0 0 -25 0 -25 15 0 15 0 0 -15 0 -15
15 0 15 0 0 -30 0 -30 15 0 15 0 0 -10 0 -10 25 0 25 0 0 -15 0 -15 15 0 15 0
0 -15 0 -15 30 0 30 0 0 -15 0 -15 40 0 40 0 0 15 0 15 -40 0 -40 0 0 15 0 15
-30 0 -30 0 0 15 0 15 -15 0 -15 0 0 10 0 10 -25 0 -25 0 0 30 0 30 -15 0 -15
0 0 15 0 15 -15 0 -15 0 0 25 0 25 -15 0 -15 0 0 45 0 45 -15 0 -15 0 0 40 0
40 45 0 45 0 0 -15 0 -15 15 0 15 0 0 15 0 15 -15 0 -15 0 0 15 0 15 -85 0
-85 0 0 -15 0 -15 -15 0 -15 0 0 -15 0 -15 -25 0 -25 0 0 30 0 30 40 0 40 0 0
15 0 15 85 0 85 0 0 25 0 25 -15 0 -15 0 0 -15 0 -15 -30 0 -30 0 0 15 0 15
15 0 15 0 0 45 0 45 -15 0 -15 0 0 10 0 10 -25 0 -25 0 0 15 0 15 -15 0 -15 0
0 15 0 15 -15 0 -15 0 0 15 0 15 15 0 15 0 0 -15 0 -15 15 0 15 0 0 -15 0 -15
25 0 25 0 0 -15 0 -15 30 0 30 0 0 15 0 15 15 0 15 0 0 30 0 30 -15 0 -15 0 0
-30 0 -30 -30 0 -30 0 0 15 0 15 -10 0 -10 0 0 15 0 15 -15 0 -15 0 0 10 0 10
-15 0 -15 0 0 30 0 30 -15 0 -15 0 0 15 0 15 -25 0 -25 0 0 -15z m50 -55 l0
-40 -10 0 -10 0 0 10 0 10 -15 0 -15 0 0 30 0 30 25 0 25 0 0 -40z"/>
<path d="M1200 845 l0 -15 -15 0 -15 0 0 -25 0 -25 -15 0 -15 0 0 -15 0 -15
-15 0 -15 0 0 -11 0 -10 -14 -15 -15 -14 -25 0 -26 0 0 -45 0 -45 15 0 15 0 0
-55 0 -55 -45 0 -45 0 0 15 0 15 -10 0 -10 0 0 -15 0 -15 10 0 10 0 0 -15 0
-15 45 0 45 0 0 -10 0 -10 25 0 25 0 0 -15 0 -15 45 0 45 0 0 15 0 15 25 0 25
0 0 -30 0 -30 -80 0 -80 0 0 15 0 15 -30 0 -30 0 0 15 0 15 -40 0 -40 0 0 -15
0 -15 40 0 40 0 0 -45 0 -45 -15 0 -15 0 0 -25 0 -25 -15 0 -15 0 0 -15 0 -15
-10 0 -10 0 0 -30 0 -30 -30 0 -30 0 0 -10 0 -10 -15 0 -15 0 0 -15 0 -15 -25
0 -25 0 0 -15 0 -15 -45 0 -45 0 0 -15 0 -15 45 0 45 0 0 15 0 15 25 0 25 0 0
15 0 15 15 0 15 0 0 15 0 15 26 0 25 0 15 14 14 15 0 25 0 26 15 0 15 0 0 15
0 15 15 0 15 0 0 25 0 25 15 0 15 0 0 30 0 30 15 0 15 0 0 -15 0 -15 80 0 80
0 0 15 0 15 15 0 15 0 0 30 0 30 -15 0 -15 0 0 10 0 10 -25 0 -25 0 0 -10 0
-10 -41 0 -40 0 -15 14 -14 15 0 65 0 66 10 0 10 0 0 15 0 15 15 0 15 0 0 15
0 15 15 0 15 0 0 15 0 15 11 0 10 0 15 14 14 15 0 10 0 11 15 0 15 0 0 15 0
15 15 0 15 0 0 25 0 25 -15 0 -15 0 0 15 0 15 -25 0 -25 0 0 -15z m50 -40 l0
-25 -25 0 -25 0 0 -30 0 -30 -15 0 -15 0 0 -10 0 -10 -15 0 -15 0 0 -15 0 -15
-15 0 -15 0 0 -15 0 -15 -10 0 -10 0 0 -15 0 -15 -15 0 -15 0 0 30 0 30 25 0
25 0 0 15 0 15 15 0 15 0 0 10 0 10 15 0 15 0 0 30 0 30 15 0 15 0 0 25 0 25
25 0 25 0 0 -25z"/>
<path d="M830 820 l0 -10 15 0 15 0 0 10 0 10 -15 0 -15 0 0 -10z"/>
<path d="M360 765 l0 -15 15 0 15 0 0 -15 0 -15 15 0 15 0 0 -10 0 -10 -15 0
-15 0 0 -45 0 -45 15 0 15 0 0 -15 0 -15 15 0 15 0 0 -10 0 -10 80 0 80 0 0
10 0 10 15 0 15 0 0 15 0 15 15 0 15 0 0 45 0 45 15 0 15 0 0 25 0 25 10 0 10
0 0 15 0 15 -10 0 -10 0 0 -15 0 -15 -30 0 -30 0 0 -15 0 -15 -15 0 -15 0 0
15 0 15 -70 0 -70 0 0 -15 0 -15 -10 0 -10 0 0 15 0 15 -30 0 -30 0 0 15 0 15
-15 0 -15 0 0 -15z m220 -80 l0 -15 15 0 15 0 0 -30 0 -30 -25 0 -25 0 0 -15
0 -15 -15 0 -15 0 0 15 0 15 15 0 15 0 0 30 0 30 -45 0 -45 0 0 -30 0 -30 15
0 15 0 0 -15 0 -15 -15 0 -15 0 0 15 0 15 -10 0 -10 0 0 30 0 30 10 0 10 0 0
15 0 15 55 0 55 0 0 -15z"/>
<path d="M250 685 l0 -15 15 0 15 0 0 15 0 15 -15 0 -15 0 0 -15z"/>
<path d="M810 625 l0 -15 10 0 10 0 0 15 0 15 -10 0 -10 0 0 -15z"/>
<path d="M1000 570 l0 -10 15 0 15 0 0 10 0 10 -15 0 -15 0 0 -10z"/>
<path d="M470 460 l0 -10 -25 0 -25 0 0 -15 0 -15 -15 0 -15 0 0 -15 0 -15
-15 0 -15 0 0 -15 0 -15 -15 0 -15 0 0 -15 0 -15 -10 0 -10 0 0 -25 0 -25 25
0 25 0 0 15 0 15 30 0 30 0 0 10 0 10 125 0 125 0 0 -10 0 -10 40 0 40 0 0
-15 0 -15 30 0 30 0 0 -15 0 -15 10 0 10 0 0 -15 0 -15 30 0 30 0 0 30 0 30
-15 0 -15 0 0 15 0 15 -11 0 -10 0 -15 14 -14 15 0 10 0 11 -15 0 -15 0 0 15
0 15 -30 0 -30 0 0 -30 0 -30 -25 0 -25 0 0 15 0 15 -15 0 -15 0 0 30 0 30 15
0 15 0 0 -30 0 -30 15 0 15 0 0 15 0 15 10 0 10 0 0 15 0 15 -25 0 -25 0 0 15
0 15 -30 0 -30 0 0 10 0 10 -70 0 -70 0 0 -10z m30 -25 l0 -15 15 0 15 0 0 15
0 15 15 0 15 0 0 -15 0 -15 10 0 10 0 0 15 0 15 15 0 15 0 0 -45 0 -45 -15 0
-15 0 0 15 0 15 -10 0 -10 0 0 -15 0 -15 -15 0 -15 0 0 15 0 15 -15 0 -15 0 0
-15 0 -15 -15 0 -15 0 0 45 0 45 15 0 15 0 0 -15z m-50 -45 l0 -30 -30 0 -30
0 0 -15 0 -15 -15 0 -15 0 0 -10 0 -10 -15 0 -15 0 0 10 0 10 15 0 15 0 0 15
0 15 15 0 15 0 0 15 0 15 15 0 15 0 0 15 0 15 15 0 15 0 0 -30z m330 -45 l0
-15 11 0 10 0 15 -14 14 -15 0 -10 0 -11 15 0 15 0 0 -15 0 -15 -15 0 -15 0 0
15 0 15 -10 0 -10 0 0 15 0 15 -30 0 -30 0 0 25 0 25 15 0 15 0 0 -15z"/>
<path d="M860 435 l0 -15 15 0 15 0 0 15 0 15 -15 0 -15 0 0 -15z"/>
<path d="M250 405 l0 -15 15 0 15 0 0 15 0 15 -15 0 -15 0 0 -15z"/>
<path d="M950 320 l0 -10 10 0 10 0 0 10 0 10 -10 0 -10 0 0 -10z"/>
<path d="M500 295 l0 -15 40 0 40 0 0 15 0 15 -40 0 -40 0 0 -15z"/>
<path d="M530 235 l0 -15 15 0 15 0 0 15 0 15 -15 0 -15 0 0 -15z"/>
<path d="M420 180 l0 -10 15 0 15 0 0 10 0 10 -15 0 -15 0 0 -10z"/>
<path d="M750 155 l0 -15 15 0 15 0 0 15 0 15 -15 0 -15 0 0 -15z"/>
<path d="M610 125 l0 -15 15 0 15 0 0 15 0 15 -15 0 -15 0 0 -15z"/>
<path d="M530 70 l0 -10 -265 0 -265 0 0 -30 0 -30 640 0 640 0 0 30 0 30
-280 0 -280 0 0 10 0 10 -95 0 -95 0 0 -10z"/>
</g>
</svg>
