<?xml version="1.0" standalone="no"?>
<!DOCTYPE svg PUBLIC "-//W3C//DTD SVG 20010904//EN"
 "http://www.w3.org/TR/2001/REC-SVG-20010904/DTD/svg10.dtd">
<svg version="1.0" xmlns="http://www.w3.org/2000/svg"
 width="468pt" height="468pt" viewBox="0 0 468 468"
 preserveAspectRatio="xMidYMid meet">
<metadata>
Created by potrace 1.8, written by Peter Selinger 2001-2007
</metadata>
<g transform="translate(0,468) scale(0.365625,-0.365625)"
fill="#000000" stroke="none">
<path d="M370 1250 l0 -30 60 0 60 0 0 -60 0 -60 -30 0 -30 0 0 30 0 30 -155
0 -155 0 0 -30 0 -30 -30 0 -30 0 0 -30 0 -30 -30 0 -30 0 0 -30 0 -30 30 0
30 0 0 30 0 30 155 0 155 0 0 -30 0 -30 -95 0 -95 0 0 -35 0 -35 -30 0 -30 0
0 -30 0 -30 -30 0 -30 0 0 -60 0 -60 -30 0 -30 0 0 -120 0 -120 30 0 30 0 0
60 0 60 30 0 30 0 0 30 0 30 30 0 30 0 0 30 0 30 30 0 30 0 0 -120 0 -120 30
0 30 0 0 -30 0 -30 35 0 35 0 0 -30 0 -30 -185 0 -185 0 0 -185 0 -185 640 0
640 0 0 185 0 185 -215 0 -215 0 0 30 0 30 30 0 30 0 0 30 0 30 35 0 35 0 0
120 0 120 30 0 30 0 0 -30 0 -30 30 0 30 0 0 -30 0 -30 30 0 30 0 0 -30 0 -30
30 0 30 0 0 -30 0 -30 30 0 30 0 0 30 0 30 -30 0 -30 0 0 120 0 120 -30 0 -30
0 0 30 0 30 -30 0 -30 0 0 30 0 30 -155 0 -155 0 0 35 0 35 95 0 95 0 0 30 0
30 -35 0 -35 0 0 30 0 30 -90 0 -90 0 0 -30 0 -30 -30 0 -30 0 0 90 0 90 -30
0 -30 0 0 30 0 30 -120 0 -120 0 0 -30z m180 -180 l0 -30 30 0 30 0 0 -30 0
-30 -30 0 -30 0 0 -65 0 -65 -30 0 -30 0 0 -30 0 -30 -60 0 -60 0 0 30 0 30
60 0 60 0 0 30 0 30 -30 0 -30 0 0 35 0 35 60 0 60 0 0 30 0 30 -30 0 -30 0 0
30 0 30 30 0 30 0 0 -30z m120 -190 l0 -30 -30 0 -30 0 0 30 0 30 30 0 30 0 0
-30z m120 0 l0 -30 30 0 30 0 0 -30 0 -30 -30 0 -30 0 0 30 0 30 -30 0 -30 0
0 30 0 30 30 0 30 0 0 -30z m-180 -180 l0 -30 30 0 30 0 0 -60 0 -60 30 0 30
0 0 30 0 30 30 0 30 0 0 60 0 60 60 0 60 0 0 -120 0 -120 -30 0 -30 0 0 -30 0
-30 -240 0 -240 0 0 30 0 30 -35 0 -35 0 0 120 0 120 155 0 155 0 0 -30z"/>
<path d="M610 520 l0 -30 30 0 30 0 0 30 0 30 -30 0 -30 0 0 -30z"/>
</g>
</svg>
