<?xml version="1.0" standalone="no"?>
<!DOCTYPE svg PUBLIC "-//W3C//DTD SVG 20010904//EN"
 "http://www.w3.org/TR/2001/REC-SVG-20010904/DTD/svg10.dtd">
<svg version="1.0" xmlns="http://www.w3.org/2000/svg"
 width="468pt" height="468pt" viewBox="0 0 468 468"
 preserveAspectRatio="xMidYMid meet">
<metadata>
Created by potrace 1.8, written by Peter Selinger 2001-2007
</metadata>
<g transform="translate(0,468) scale(0.365625,-0.365625)"
fill="#000000" stroke="none">
<path d="M580 1250 l0 -10 -18 0 -18 0 -14 -20 -14 -20 -13 0 -14 0 -44 -45
-45 -44 0 -16 0 -15 -10 0 -10 0 0 -50 0 -50 -18 0 -18 0 -14 20 -14 20 -18 0
-18 0 0 10 0 10 -65 0 -66 0 -44 -45 -45 -44 0 -74 0 -73 20 -14 20 -14 0 -14
0 -13 14 -15 15 -14 15 0 16 0 0 -10 0 -10 30 0 30 0 0 -10 0 -10 30 0 30 0 0
-10 0 -10 -60 0 -60 0 0 -10 0 -10 -20 0 -20 0 0 -10 0 -10 20 0 20 0 0 10 0
10 60 0 60 0 0 -6 0 -5 -14 -15 -15 -14 -35 0 -36 0 0 -10 0 -10 -20 0 -20 0
0 -10 0 -10 20 0 20 0 0 10 0 10 50 0 50 0 0 10 0 10 10 0 10 0 0 -20 0 -20
20 0 20 0 0 -10 0 -10 30 0 30 0 0 -10 0 -10 20 0 20 0 0 -10 0 -10 15 0 16 0
24 -25 25 -24 0 -16 0 -15 10 0 10 0 0 -96 0 -95 -14 -15 -15 -14 -255 0 -256
0 0 -100 0 -100 640 0 640 0 0 100 0 100 -165 0 -166 0 -24 25 -25 24 0 13 0
14 -20 14 -20 14 0 18 0 18 -10 0 -10 0 0 75 0 76 35 34 34 35 26 0 25 0 0 10
0 10 19 0 19 0 6 13 6 12 6 -12 6 -13 39 0 39 0 0 -10 0 -10 20 0 20 0 0 10 0
10 -20 0 -20 0 0 10 0 10 -40 0 -40 0 0 20 0 20 40 0 40 0 0 -10 0 -10 20 0
20 0 0 10 0 10 -20 0 -20 0 0 10 0 10 -40 0 -40 0 0 20 0 20 55 0 56 0 44 45
45 44 0 16 0 15 10 0 10 0 0 60 0 60 -10 0 -10 0 0 20 0 20 -10 0 -10 0 0 16
0 15 -14 15 -15 14 -15 0 -16 0 0 10 0 10 -60 0 -60 0 0 -10 0 -10 -20 0 -20
0 0 -10 0 -10 -20 0 -20 0 0 -10 0 -10 -20 0 -20 0 0 20 0 20 -10 0 -10 0 0
16 0 16 -30 28 -30 28 0 16 0 16 -18 0 -18 0 -14 20 -14 20 -28 0 -28 0 0 10
0 10 -18 0 -18 0 -14 20 -14 20 -28 0 -28 0 0 -10z m60 -40 l0 -10 28 0 28 0
14 -20 14 -20 18 0 18 0 0 -20 0 -20 20 0 20 0 0 -19 0 -19 12 -4 13 -5 -17
-16 -17 -17 -14 0 -15 0 -6 13 -6 12 -6 -12 -6 -13 -89 0 -89 0 0 -10 0 -10
-40 0 -40 0 0 50 0 50 10 0 10 0 0 15 0 16 25 24 24 25 16 0 15 0 0 10 0 10
30 0 30 0 0 -10z m525 -205 l35 -34 0 -16 0 -15 10 0 10 0 0 -60 0 -60 -10 0
-10 0 0 -15 0 -16 -25 -24 -24 -25 -16 0 -15 0 0 -10 0 -10 -50 0 -50 0 0 20
0 20 -10 0 -10 0 0 30 0 30 10 0 10 0 0 20 0 20 -10 0 -10 0 0 10 0 10 16 0
15 0 15 14 14 15 0 15 0 16 20 0 20 0 0 -10 0 -10 10 0 10 0 0 20 0 20 9 0 9
0 5 -12 4 -13 8 7 7 7 -25 25 -26 26 -31 0 -32 0 -39 -41 -39 -41 -15 16 -15
15 0 11 0 11 25 24 24 25 16 0 15 0 0 10 0 10 55 0 56 0 34 -35z m-860 -20
l35 -34 0 -21 0 -21 15 -15 15 -15 36 36 36 36 -7 7 -8 7 -4 -12 -5 -13 -18 0
-18 0 -5 -12 -4 -13 -8 7 -7 7 15 16 16 15 15 0 16 0 0 10 0 10 30 0 30 0 0
-10 0 -10 30 0 30 0 0 -10 0 -10 30 0 30 0 0 10 0 10 50 0 50 0 0 -10 0 -10
30 0 30 0 0 10 0 10 20 0 20 0 0 10 0 10 16 0 17 0 18 21 18 21 26 -26 25 -25
0 -16 0 -15 10 0 10 0 0 -40 0 -40 10 0 10 0 0 -30 0 -30 -20 0 -20 0 0 20 0
20 -10 0 -10 0 0 16 0 15 -14 15 -15 14 -15 0 -16 0 0 10 0 10 -40 0 -40 0 0
-10 0 -10 -20 0 -20 0 0 -20 0 -20 -10 0 -10 0 0 -50 0 -50 10 0 10 0 0 46 0
45 14 15 15 14 15 0 16 0 0 10 0 10 20 0 20 0 0 -10 0 -10 30 0 30 0 0 -20 0
-20 10 0 10 0 0 -30 0 -30 30 0 30 0 0 -20 0 -20 10 0 10 0 0 -10 0 -10 -40 0
-40 0 0 -10 0 -10 50 0 50 0 0 -10 0 -10 -90 0 -90 0 0 -10 0 -10 90 0 90 0 0
-10 0 -10 -60 0 -60 0 0 -10 0 -10 -20 0 -20 0 0 -10 0 -10 -66 0 -67 0 -18
22 -19 21 -19 -21 -18 -22 -77 0 -76 0 0 10 0 10 -20 0 -20 0 0 -10 0 -10 18
0 18 0 14 -20 14 -20 18 0 18 0 0 -20 0 -20 10 0 10 0 0 -18 0 -18 20 -14 20
-14 0 -18 0 -18 55 0 56 0 24 25 25 24 0 12 0 11 30 28 30 28 0 12 0 11 14 15
15 14 15 0 16 0 0 10 0 10 50 0 50 0 0 -10 0 -10 -36 0 -35 0 -15 -14 -14 -15
0 -11 0 -12 -40 -38 -40 -38 0 -14 0 -14 -20 -14 -20 -14 0 -14 0 -13 -14 -15
-15 -14 -15 0 -16 0 0 -10 0 -10 -20 0 -20 0 0 10 0 10 -25 0 -26 0 -24 25
-25 24 0 11 0 11 -45 44 -44 45 -16 0 -15 0 0 16 0 15 -17 17 -16 17 -5 -13
-4 -12 -19 0 -19 0 0 10 0 10 -20 0 -20 0 0 20 0 20 -10 0 -10 0 0 20 0 20 60
0 60 0 0 10 0 10 -60 0 -60 0 0 10 0 10 50 0 50 0 0 10 0 10 -50 0 -50 0 0 10
0 10 20 0 20 0 0 70 0 70 -10 0 -10 0 0 -10 0 -10 -10 0 -10 0 0 20 0 20 -10
0 -10 0 0 16 0 15 -14 15 -15 14 -15 0 -16 0 0 10 0 10 -35 0 -36 0 -24 -25
-25 -24 0 -16 0 -15 10 0 10 0 0 10 0 10 30 0 30 0 0 -18 0 -18 20 -14 20 -14
0 -14 0 -13 26 -26 26 -26 8 14 9 13 7 -7 7 -7 -24 -21 -24 -22 13 -4 12 -5 0
-19 0 -19 -10 0 -10 0 0 10 0 10 -40 0 -40 0 0 10 0 10 -16 0 -15 0 -15 14
-14 15 0 15 0 16 -10 0 -10 0 0 20 0 20 -10 0 -10 0 0 50 0 50 10 0 10 0 0 16
0 15 14 15 15 14 15 0 16 0 0 10 0 10 55 0 56 0 34 -35z m355 -435 l0 -30 10
0 10 0 0 30 0 30 40 0 40 0 0 -36 0 -35 -14 -15 -15 -14 -24 0 -25 0 -6 13 -6
12 -6 -12 -6 -13 -39 0 -39 0 0 29 0 29 -12 4 -12 4 14 17 15 16 38 1 37 0 0
-30z m-60 -200 l28 -30 66 0 66 0 0 -30 0 -30 -10 0 -10 0 0 10 0 10 -10 0
-10 0 0 -20 0 -20 10 0 10 0 0 -20 0 -20 -90 0 -90 0 0 10 0 10 10 0 10 0 0
50 0 50 -10 0 -10 0 0 30 0 30 6 0 6 0 28 -30z m200 0 l0 -30 10 0 10 0 0 -18
0 -18 20 -14 20 -14 0 -18 0 -18 10 0 10 0 0 -10 0 -10 -20 0 -20 0 0 18 0 18
-20 14 -20 14 0 18 0 18 -10 0 -10 0 0 19 0 19 -12 4 -12 4 14 17 15 16 8 1 7
0 0 -30z m6 -124 l14 -15 0 -5 0 -6 -30 0 -30 0 0 20 0 20 16 0 15 0 15 -14z"/>
<path d="M650 1160 l-14 -20 -18 0 -18 0 0 10 0 10 -30 0 -30 0 0 -20 0 -20
10 0 10 0 0 -20 0 -20 -10 0 -10 0 0 -10 0 -10 40 0 40 0 0 10 0 10 -10 0 -10
0 0 10 0 10 20 0 20 0 0 10 0 10 10 0 10 0 0 -20 0 -20 30 0 30 0 0 6 0 7 -22
20 -23 20 13 4 12 5 0 19 0 19 -18 0 -18 0 -14 -20z"/>
<path d="M840 950 l0 -10 16 0 17 0 18 -22 19 -21 6 6 6 6 -25 25 -26 26 -16
0 -15 0 0 -10z"/>
<path d="M600 930 l0 -10 50 0 50 0 0 10 0 10 -50 0 -50 0 0 -10z"/>
<path d="M460 910 l0 -10 -16 0 -15 0 -15 -14 -14 -15 0 -15 0 -16 -10 0 -10
0 0 -30 0 -30 10 0 10 0 0 25 0 26 25 24 24 25 41 0 41 0 24 -25 25 -24 0 -21
0 -21 14 -15 15 -14 5 0 6 0 0 30 0 30 -10 0 -10 0 0 20 0 20 -18 0 -18 0 -14
20 -14 20 -18 0 -18 0 0 10 0 10 -20 0 -20 0 0 -10z"/>
<path d="M460 810 l0 -10 -20 0 -20 0 0 -10 0 -10 60 0 60 0 0 20 0 20 -40 0
-40 0 0 -10z"/>
<path d="M740 800 l0 -20 60 0 60 0 0 10 0 10 -20 0 -20 0 0 10 0 10 -40 0
-40 0 0 -20z"/>
<path d="M623 755 l-23 -24 0 -16 0 -15 60 0 60 0 0 15 0 16 -25 24 -24 25
-13 -1 -13 0 -22 -24z"/>
<path d="M400 750 l0 -10 20 0 20 0 0 10 0 10 -20 0 -20 0 0 -10z"/>
<path d="M860 750 l0 -10 20 0 20 0 0 10 0 10 -20 0 -20 0 0 -10z"/>
<path d="M920 750 l0 -10 10 0 10 0 0 10 0 10 -10 0 -10 0 0 -10z"/>
<path d="M320 630 l0 -10 40 0 40 0 0 10 0 10 -40 0 -40 0 0 -10z"/>
</g>
</svg>
