<?xml version="1.0" standalone="no"?>
<!DOCTYPE svg PUBLIC "-//W3C//DTD SVG 20010904//EN"
 "http://www.w3.org/TR/2001/REC-SVG-20010904/DTD/svg10.dtd">
<svg version="1.0" xmlns="http://www.w3.org/2000/svg"
 width="468pt" height="468pt" viewBox="0 0 468 468"
 preserveAspectRatio="xMidYMid meet">
<metadata>
Created by potrace 1.8, written by Peter Selinger 2001-2007
</metadata>
<g transform="translate(0,468) scale(0.365625,-0.365625)"
fill="#000000" stroke="none">
<path d="M13 1265 l-13 -14 0 -626 0 -625 10 0 10 0 0 615 0 615 15 0 15 0 0
15 0 15 580 0 580 0 0 -11 0 -10 14 -15 15 -14 10 0 11 0 0 -605 0 -605 10 0
10 0 0 615 0 615 -10 0 -10 0 0 15 0 15 -15 0 -15 0 0 10 0 10 -602 0 -603 -1
-12 -14z"/>
<path d="M70 1185 l0 -45 50 0 50 0 0 -50 0 -50 -40 0 -40 0 0 15 0 15 -10 0
-10 0 0 -11 0 -10 14 -15 15 -14 31 0 31 0 15 14 14 15 0 41 0 41 -14 15 -15
14 -35 0 -36 0 0 25 0 25 50 0 50 0 0 10 0 10 -60 0 -60 0 0 -45z"/>
<path d="M120 910 l0 -10 -11 0 -10 0 -15 -14 -14 -15 0 -9 0 -10 -12 -5 -13
-4 23 -20 22 -20 0 -12 0 -11 14 0 14 0 6 -12 6 -13 6 13 6 12 14 0 14 0 0 11
0 12 23 20 22 20 -12 4 -13 5 0 10 0 9 -14 15 -15 14 -10 0 -11 0 0 10 0 10
-10 0 -10 0 0 -10z m20 -20 l0 -10 15 0 15 0 0 -14 0 -14 12 -4 13 -5 -17 -16
-17 -17 -10 0 -11 0 0 -15 0 -15 -10 0 -10 0 0 15 0 15 -11 0 -10 0 -17 17
-17 16 13 5 12 4 0 14 0 14 15 0 15 0 0 10 0 10 10 0 10 0 0 -10z"/>
<path d="M120 865 l0 -15 -15 0 -15 0 0 -10 0 -10 14 0 14 0 6 -12 6 -13 6 13
6 12 14 0 14 0 0 10 0 10 -15 0 -15 0 0 15 0 15 -10 0 -10 0 0 -15z m20 -25
l0 -10 -10 0 -10 0 0 10 0 10 10 0 10 0 0 -10z"/>
<path d="M440 900 l-14 -20 -13 0 -13 0 0 -14 0 -14 -12 -4 -13 -5 17 -16 17
-17 10 0 11 0 0 -11 0 -10 17 -17 16 -17 5 13 4 12 14 0 14 0 0 11 0 10 14 15
15 14 10 0 11 0 0 10 0 10 -15 0 -15 0 0 11 0 10 -14 15 -15 14 -10 0 -11 0 0
10 0 10 -8 0 -8 0 -14 -20z m30 -10 l0 -10 15 0 15 0 0 -14 0 -14 12 -4 13 -5
-17 -16 -17 -17 -10 0 -11 0 0 -15 0 -15 -10 0 -10 0 0 11 0 10 -14 15 -15 14
-10 0 -11 0 0 10 0 10 15 0 15 0 0 10 0 11 13 14 12 14 8 1 7 0 0 -10z"/>
<path d="M450 866 l0 -14 -12 -4 -13 -5 19 -19 19 -19 5 13 4 12 14 0 14 0 0
10 0 10 -15 0 -15 0 0 15 0 15 -10 0 -10 0 0 -14z m20 -26 l0 -10 -10 0 -10 0
0 10 0 10 10 0 10 0 0 -10z"/>
<path d="M820 900 l-14 -20 -13 0 -13 0 0 -14 0 -14 -12 -4 -13 -5 17 -16 17
-17 10 0 11 0 0 -11 0 -10 17 -17 16 -17 5 13 4 12 14 0 14 0 0 11 0 12 23 20
22 20 -12 4 -13 5 0 10 0 9 -14 15 -15 14 -10 0 -11 0 0 10 0 10 -8 0 -8 0
-14 -20z m30 -10 l0 -10 15 0 15 0 0 -14 0 -14 12 -4 13 -5 -17 -16 -17 -17
-10 0 -11 0 0 -15 0 -15 -10 0 -10 0 0 11 0 10 -14 15 -15 14 -10 0 -11 0 0
10 0 10 15 0 15 0 0 10 0 11 13 14 12 14 8 1 7 0 0 -10z"/>
<path d="M830 866 l0 -14 -12 -4 -13 -5 19 -19 19 -19 5 13 4 12 14 0 14 0 0
10 0 10 -15 0 -15 0 0 15 0 15 -10 0 -10 0 0 -14z m20 -26 l0 -10 -10 0 -10 0
0 10 0 10 10 0 10 0 0 -10z"/>
<path d="M640 539 l0 -10 -14 -15 -15 -14 -10 0 -11 0 0 -14 0 -14 -12 -4 -13
-5 17 -16 17 -17 10 0 11 0 0 -11 0 -10 17 -17 16 -17 5 13 4 12 14 0 14 0 0
11 0 12 23 20 22 20 -12 4 -13 5 0 10 0 9 -14 15 -15 14 -10 0 -11 0 0 15 0
15 -10 0 -10 0 0 -11z m20 -29 l0 -10 15 0 15 0 0 -14 0 -14 12 -4 13 -5 -17
-16 -17 -17 -10 0 -11 0 0 -15 0 -15 -10 0 -10 0 0 11 0 10 -14 15 -15 14 -10
0 -11 0 0 10 0 10 15 0 15 0 0 10 0 11 13 14 12 14 8 1 7 0 0 -10z"/>
<path d="M640 486 l0 -14 -12 -4 -13 -5 19 -19 19 -19 5 13 4 12 14 0 14 0 0
10 0 10 -15 0 -15 0 0 15 0 15 -10 0 -10 0 0 -14z m20 -26 l0 -10 -10 0 -10 0
0 10 0 10 10 0 10 0 0 -10z"/>
<path d="M450 159 l0 -10 -14 -15 -15 -14 -10 0 -11 0 0 -14 0 -14 -12 -4 -13
-5 17 -16 17 -17 10 0 11 0 0 -11 0 -10 17 -17 16 -17 5 13 4 12 14 0 14 0 0
11 0 10 14 15 15 14 10 0 11 0 0 10 0 10 -15 0 -15 0 0 11 0 10 -14 15 -15 14
-10 0 -11 0 0 15 0 15 -10 0 -10 0 0 -11z m20 -29 l0 -10 15 0 15 0 0 -14 0
-14 12 -4 13 -5 -17 -16 -17 -17 -10 0 -11 0 0 -15 0 -15 -10 0 -10 0 0 11 0
10 -14 15 -15 14 -10 0 -11 0 0 10 0 10 15 0 15 0 0 10 0 11 13 14 12 14 8 1
7 0 0 -10z"/>
<path d="M450 106 l0 -14 -12 -4 -13 -5 19 -19 19 -19 5 13 4 12 14 0 14 0 0
10 0 10 -15 0 -15 0 0 15 0 15 -10 0 -10 0 0 -14z m20 -26 l0 -10 -10 0 -10 0
0 10 0 10 10 0 10 0 0 -10z"/>
<path d="M830 159 l0 -10 -14 -15 -15 -14 -10 0 -11 0 0 -14 0 -14 -12 -4 -13
-5 17 -16 17 -17 10 0 11 0 0 -11 0 -10 17 -17 16 -17 5 13 4 12 14 0 14 0 0
11 0 12 23 20 22 20 -12 4 -13 5 0 10 0 9 -14 15 -15 14 -10 0 -11 0 0 15 0
15 -10 0 -10 0 0 -11z m20 -29 l0 -10 15 0 15 0 0 -14 0 -14 12 -4 13 -5 -17
-16 -17 -17 -10 0 -11 0 0 -15 0 -15 -10 0 -10 0 0 11 0 10 -14 15 -15 14 -10
0 -11 0 0 10 0 10 15 0 15 0 0 10 0 11 13 14 12 14 8 1 7 0 0 -10z"/>
<path d="M830 106 l0 -14 -12 -4 -13 -5 19 -19 19 -19 5 13 4 12 14 0 14 0 0
10 0 10 -15 0 -15 0 0 15 0 15 -10 0 -10 0 0 -14z m20 -26 l0 -10 -10 0 -10 0
0 10 0 10 10 0 10 0 0 -10z"/>
<path d="M1140 155 l0 -15 -11 0 -10 0 -15 -14 -14 -15 0 -9 0 -10 -12 -5 -13
-4 23 -20 22 -20 0 -12 0 -11 14 0 14 0 6 -12 6 -13 6 13 6 12 14 0 14 0 0 11
0 12 23 20 22 20 -12 4 -13 5 0 10 0 9 -14 15 -15 14 -10 0 -11 0 0 15 0 15
-10 0 -10 0 0 -15z m20 -25 l0 -10 15 0 15 0 0 -14 0 -14 12 -4 13 -5 -17 -16
-17 -17 -10 0 -11 0 0 -15 0 -15 -10 0 -10 0 0 15 0 15 -11 0 -10 0 -17 17
-17 16 13 5 12 4 0 14 0 14 15 0 15 0 0 10 0 10 10 0 10 0 0 -10z"/>
<path d="M1140 105 l0 -15 -15 0 -15 0 0 -10 0 -10 14 0 14 0 6 -12 6 -13 6
13 6 12 14 0 14 0 0 10 0 10 -15 0 -15 0 0 15 0 15 -10 0 -10 0 0 -15z m20
-25 l0 -10 -10 0 -10 0 0 10 0 10 10 0 10 0 0 -10z"/>
</g>
</svg>
