<?xml version="1.0" standalone="no"?>
<!DOCTYPE svg PUBLIC "-//W3C//DTD SVG 20010904//EN"
 "http://www.w3.org/TR/2001/REC-SVG-20010904/DTD/svg10.dtd">
<svg version="1.0" xmlns="http://www.w3.org/2000/svg"
 width="468pt" height="468pt" viewBox="0 0 468 468"
 preserveAspectRatio="xMidYMid meet">
<metadata>
Created by potrace 1.8, written by Peter Selinger 2001-2007
</metadata>
<g transform="translate(0,468) scale(0.365625,-0.365625)"
fill="#000000" stroke="none">
<path d="M1150 1265 l0 -15 -350 0 -350 0 0 -10 0 -10 -25 0 -25 0 0 -15 0
-15 -25 0 -25 0 0 -15 0 -15 -15 0 -15 0 0 -10 0 -10 -15 0 -15 0 0 -15 0 -15
-10 0 -10 0 0 -15 0 -15 -15 0 -15 0 0 -25 0 -25 -15 0 -15 0 0 -25 0 -25 -10
0 -10 0 0 -40 0 -40 -15 0 -15 0 0 -30 0 -30 15 0 15 0 0 30 0 30 10 0 10 0 0
40 0 40 15 0 15 0 0 25 0 25 15 0 15 0 0 11 0 10 14 15 15 14 10 0 11 0 0 15
0 15 25 0 25 0 0 15 0 15 30 0 30 0 0 10 0 10 360 0 360 0 0 -10 0 -10 25 0
25 0 0 10 0 10 15 0 15 0 0 40 0 40 -15 0 -15 0 0 15 0 15 -25 0 -25 0 0 -15z"/>
<path d="M1090 1135 l0 -15 -305 0 -305 0 0 -15 0 -15 -25 0 -25 0 0 -10 0
-10 -30 0 -30 0 0 -15 0 -15 -10 0 -10 0 0 -15 0 -15 -15 0 -15 0 0 -10 0 -10
-15 0 -15 0 0 -15 0 -15 -10 0 -10 0 0 -25 0 -25 -15 0 -15 0 0 -30 0 -30 -15
0 -15 0 0 -40 0 -40 15 0 15 0 0 40 0 40 15 0 15 0 0 26 0 25 14 15 15 14 10
0 11 0 0 15 0 15 15 0 15 0 0 11 0 10 14 15 15 14 25 0 26 0 0 15 0 15 330 0
330 0 0 -15 0 -15 30 0 30 0 0 15 0 15 10 0 10 0 0 40 0 40 -10 0 -10 0 0 15
0 15 -30 0 -30 0 0 -15z"/>
<path d="M1040 1000 l0 -10 -265 0 -265 0 0 -15 0 -15 -30 0 -30 0 0 -15 0
-15 -25 0 -25 0 0 -10 0 -10 -15 0 -15 0 0 -15 0 -15 -10 0 -10 0 0 -15 0 -15
-15 0 -15 0 0 -25 0 -25 -15 0 -15 0 0 -25 0 -25 -10 0 -10 0 0 -40 0 -40 10
0 10 0 0 40 0 40 15 0 15 0 0 25 0 25 15 0 15 0 0 11 0 10 14 15 15 14 25 0
26 0 0 15 0 15 25 0 25 0 0 15 0 15 280 0 280 0 0 -15 0 -15 25 0 25 0 0 15 0
15 15 0 15 0 0 40 0 40 -15 0 -15 0 0 10 0 10 -25 0 -25 0 0 -10z"/>
<path d="M590 815 l0 -15 -30 0 -30 0 0 -11 0 -10 -14 -15 -15 -14 -10 0 -11
0 0 -30 0 -30 -15 0 -15 0 0 -50 0 -50 15 0 15 0 0 -30 0 -30 11 0 10 0 15
-14 14 -15 0 -10 0 -11 30 0 30 0 0 -15 0 -15 50 0 50 0 0 15 0 15 30 0 30 0
0 11 0 10 14 15 15 14 10 0 11 0 0 30 0 30 15 0 15 0 0 50 0 50 -15 0 -15 0 0
30 0 30 -11 0 -10 0 -15 14 -14 15 0 10 0 11 -30 0 -30 0 0 15 0 15 -50 0 -50
0 0 -15z"/>
<path d="M990 570 l0 -40 -15 0 -15 0 0 -25 0 -25 -15 0 -15 0 0 -11 0 -10
-14 -15 -15 -14 -25 0 -26 0 0 -15 0 -15 -25 0 -25 0 0 -15 0 -15 -280 0 -280
0 0 15 0 15 -25 0 -25 0 0 -15 0 -15 -15 0 -15 0 0 -40 0 -40 15 0 15 0 0 -10
0 -10 25 0 25 0 0 10 0 10 265 0 265 0 0 15 0 15 30 0 30 0 0 15 0 15 25 0 25
0 0 10 0 10 15 0 15 0 0 15 0 15 10 0 10 0 0 15 0 15 15 0 15 0 0 25 0 25 15
0 15 0 0 25 0 25 10 0 10 0 0 40 0 40 -10 0 -10 0 0 -40z"/>
<path d="M1040 470 l0 -40 -15 0 -15 0 0 -26 0 -25 -14 -15 -15 -14 -10 0 -11
0 0 -15 0 -15 -15 0 -15 0 0 -11 0 -10 -14 -15 -15 -14 -25 0 -26 0 0 -15 0
-15 -330 0 -330 0 0 15 0 15 -30 0 -30 0 0 -15 0 -15 -10 0 -10 0 0 -40 0 -40
10 0 10 0 0 -15 0 -15 30 0 30 0 0 15 0 15 305 0 305 0 0 15 0 15 25 0 25 0 0
10 0 10 30 0 30 0 0 15 0 15 10 0 10 0 0 15 0 15 15 0 15 0 0 10 0 10 15 0 15
0 0 15 0 15 10 0 10 0 0 25 0 25 15 0 15 0 0 30 0 30 15 0 15 0 0 40 0 40 -15
0 -15 0 0 -40z"/>
<path d="M1090 400 l0 -30 -10 0 -10 0 0 -40 0 -40 -15 0 -15 0 0 -25 0 -25
-15 0 -15 0 0 -11 0 -10 -14 -15 -15 -14 -10 0 -11 0 0 -15 0 -15 -25 0 -25 0
0 -15 0 -15 -30 0 -30 0 0 -10 0 -10 -360 0 -360 0 0 10 0 10 -25 0 -25 0 0
-10 0 -10 -15 0 -15 0 0 -40 0 -40 15 0 15 0 0 -15 0 -15 25 0 25 0 0 15 0 15
350 0 350 0 0 10 0 10 25 0 25 0 0 15 0 15 25 0 25 0 0 15 0 15 15 0 15 0 0
10 0 10 15 0 15 0 0 15 0 15 10 0 10 0 0 15 0 15 15 0 15 0 0 25 0 25 15 0 15
0 0 25 0 25 10 0 10 0 0 40 0 40 15 0 15 0 0 30 0 30 -15 0 -15 0 0 -30z"/>
</g>
</svg>
