<?xml version="1.0" standalone="no"?>
<!DOCTYPE svg PUBLIC "-//W3C//DTD SVG 20010904//EN"
 "http://www.w3.org/TR/2001/REC-SVG-20010904/DTD/svg10.dtd">
<svg version="1.0" xmlns="http://www.w3.org/2000/svg"
 width="468pt" height="468pt" viewBox="0 0 468 468"
 preserveAspectRatio="xMidYMid meet">
<metadata>
Created by potrace 1.8, written by Peter Selinger 2001-2007
</metadata>
<g transform="translate(0,468) scale(0.365625,-0.365625)"
fill="#000000" stroke="none">
<path d="M160 1185 l0 -95 15 0 15 0 0 -10 0 -10 50 0 50 0 0 10 0 10 15 0 15
0 0 95 0 95 -15 0 -15 0 0 -95 0 -95 -50 0 -50 0 0 95 0 95 -15 0 -15 0 0 -95z"/>
<path d="M350 1150 l0 -80 10 0 10 0 0 50 0 50 15 0 15 0 0 15 0 15 15 0 15 0
0 15 0 15 -15 0 -15 0 0 -15 0 -15 -15 0 -15 0 0 15 0 15 -10 0 -10 0 0 -80z"/>
<path d="M450 1160 l0 -70 15 0 15 0 0 -10 0 -10 40 0 40 0 0 80 0 80 -15 0
-15 0 0 -70 0 -70 -25 0 -25 0 0 70 0 70 -15 0 -15 0 0 -70z"/>
<path d="M610 1215 l0 -15 -10 0 -10 0 0 -51 0 -50 14 -15 15 -14 25 0 26 0 0
10 0 10 10 0 10 0 0 -25 0 -25 -40 0 -40 0 0 -15 0 -15 40 0 40 0 0 15 0 15
15 0 15 0 0 95 0 95 -15 0 -15 0 0 -15 0 -15 -10 0 -10 0 0 -15 0 -15 10 0 10
0 0 -25 0 -25 -10 0 -10 0 0 -15 0 -15 -30 0 -30 0 0 55 0 55 30 0 30 0 0 15
0 15 -30 0 -30 0 0 -15z"/>
<path d="M750 1164 l0 -65 14 -15 15 -14 35 0 36 0 0 80 0 80 -10 0 -10 0 0
-70 0 -70 -30 0 -30 0 0 70 0 70 -10 0 -10 0 0 -66z"/>
<path d="M880 1215 l0 -15 40 0 40 0 0 -15 0 -15 -25 0 -25 0 0 -10 0 -10 -15
0 -15 0 0 -30 0 -30 15 0 15 0 0 -10 0 -10 25 0 25 0 0 10 0 10 14 0 14 0 5
-12 4 -13 9 9 9 9 -12 4 -13 5 0 54 0 54 -15 0 -15 0 0 15 0 15 -40 0 -40 0 0
-15z m80 -95 l0 -30 -25 0 -25 0 0 30 0 30 25 0 25 0 0 -30z"/>
<path d="M1010 1175 l0 -55 15 0 15 0 0 -40 0 -40 -15 0 -15 0 0 -15 0 -15 15
0 15 0 0 15 0 15 15 0 15 0 0 25 0 25 10 0 10 0 0 40 0 40 15 0 15 0 0 30 0
30 -15 0 -15 0 0 -30 0 -30 -10 0 -10 0 0 -25 0 -25 -15 0 -15 0 0 55 0 55
-15 0 -15 0 0 -55z"/>
<path d="M0 520 l0 -390 640 0 640 0 0 390 0 390 -640 0 -640 0 0 -390z m1250
320 l0 -40 -410 0 -410 0 0 -40 0 -40 410 0 410 0 0 -40 0 -40 -410 0 -410 0
0 -40 0 -40 410 0 410 0 0 -40 0 -40 -610 0 -610 0 0 200 0 200 610 0 610 0 0
-40z m0 -480 l0 -40 -610 0 -610 0 0 40 0 40 610 0 610 0 0 -40z m0 -160 l0
-40 -610 0 -610 0 0 40 0 40 610 0 610 0 0 -40z"/>
<path d="M210 789 l0 -10 -14 -15 -15 -14 -10 0 -11 0 0 10 0 10 -15 0 -15 0
0 -10 0 -10 15 0 15 0 0 -15 0 -15 -15 0 -15 0 0 -14 0 -14 -12 -6 -13 -6 13
-6 12 -6 0 -14 0 -14 15 0 15 0 0 -15 0 -15 -15 0 -15 0 0 -10 0 -10 15 0 15
0 0 10 0 10 11 0 10 0 15 -14 14 -15 0 -10 0 -11 15 0 15 0 0 15 0 15 14 0 14
0 6 13 6 12 6 -12 6 -13 14 0 14 0 0 10 0 10 -15 0 -15 0 0 15 0 15 15 0 15 0
0 15 0 15 15 0 15 0 0 10 0 10 -15 0 -15 0 0 15 0 15 -15 0 -15 0 0 15 0 15
15 0 15 0 0 10 0 10 -14 0 -14 0 -6 -12 -6 -13 -6 13 -6 12 -14 0 -14 0 0 15
0 15 -15 0 -15 0 0 -11z m30 -29 l0 -10 15 0 15 0 0 -15 0 -15 10 0 10 0 0
-15 0 -15 15 0 15 0 0 -10 0 -10 -15 0 -15 0 0 -15 0 -15 -10 0 -10 0 0 -15 0
-15 -15 0 -15 0 0 -10 0 -10 -11 0 -10 0 -15 14 -14 15 0 10 0 11 -15 0 -15 0
0 15 0 15 -15 0 -15 0 0 10 0 10 15 0 15 0 0 15 0 15 15 0 15 0 0 10 0 11 13
14 12 14 13 1 12 0 0 -10z"/>
<path d="M210 720 l0 -30 -25 0 -25 0 0 -10 0 -10 25 0 25 0 0 -30 0 -30 15 0
15 0 0 30 0 30 25 0 25 0 0 10 0 10 -25 0 -25 0 0 30 0 30 -15 0 -15 0 0 -30z
m30 -40 l0 -10 -15 0 -15 0 0 10 0 10 15 0 15 0 0 -10z"/>
</g>
</svg>
