<?xml version="1.0" standalone="no"?>
<!DOCTYPE svg PUBLIC "-//W3C//DTD SVG 20010904//EN"
 "http://www.w3.org/TR/2001/REC-SVG-20010904/DTD/svg10.dtd">
<svg version="1.0" xmlns="http://www.w3.org/2000/svg"
 width="468pt" height="468pt" viewBox="0 0 468 468"
 preserveAspectRatio="xMidYMid meet">
<metadata>
Created by potrace 1.8, written by Peter Selinger 2001-2007
</metadata>
<g transform="translate(0,468) scale(0.365625,-0.365625)"
fill="#000000" stroke="none">
<path d="M100 1230 l0 -50 -25 0 -25 0 0 -80 0 -80 -25 0 -25 0 0 -510 0 -510
640 0 640 0 0 435 0 435 -50 0 -50 0 0 25 0 25 25 0 25 0 0 25 0 25 -50 0 -50
0 0 -25 0 -25 -25 0 -25 0 0 80 0 80 25 0 25 0 0 25 0 25 25 0 25 0 0 -25 0
-25 50 0 50 0 0 25 0 25 -25 0 -25 0 0 25 0 25 -75 0 -75 0 0 -25 0 -25 -30 0
-30 0 0 -25 0 -25 -25 0 -25 0 0 25 0 25 -25 0 -25 0 0 25 0 25 -75 0 -75 0 0
-25 0 -25 -25 0 -25 0 0 -25 0 -25 25 0 25 0 0 -30 0 -30 25 0 25 0 0 -50 0
-50 -25 0 -25 0 0 25 0 25 -50 0 -50 0 0 -25 0 -25 25 0 25 0 0 -25 0 -25 -55
0 -55 0 0 75 0 75 30 0 30 0 0 80 0 80 -55 0 -55 0 0 50 0 50 -50 0 -50 0 0
-25 0 -25 -25 0 -25 0 0 -25 0 -25 -25 0 -25 0 0 -25 0 -25 -25 0 -25 0 0 -25
0 -25 -25 0 -25 0 0 50 0 50 -30 0 -30 0 0 50 0 50 -50 0 -50 0 0 -50z m460
-130 l0 -80 -25 0 -25 0 0 -75 0 -75 -25 0 -25 0 0 75 0 75 25 0 25 0 0 80 0
80 25 0 25 0 0 -80z m-360 -100 l0 -130 -50 0 -50 0 0 75 0 75 25 0 25 0 0 55
0 55 25 0 25 0 0 -130z m670 105 l0 -25 50 0 50 0 0 -80 0 -80 25 0 25 0 0
-25 0 -25 -75 0 -75 0 0 25 0 25 25 0 25 0 0 50 0 50 -25 0 -25 0 0 30 0 30
-25 0 -25 0 0 25 0 25 25 0 25 0 0 -25z m-460 -55 l0 -30 -25 0 -25 0 0 -75 0
-75 -50 0 -50 0 0 25 0 25 25 0 25 0 0 50 0 50 25 0 25 0 0 30 0 30 25 0 25 0
0 -30z"/>
<path d="M610 1255 l0 -25 55 0 55 0 0 25 0 25 -55 0 -55 0 0 -25z"/>
</g>
</svg>
