<?xml version="1.0" standalone="no"?>
<!DOCTYPE svg PUBLIC "-//W3C//DTD SVG 20010904//EN"
 "http://www.w3.org/TR/2001/REC-SVG-20010904/DTD/svg10.dtd">
<svg version="1.0" xmlns="http://www.w3.org/2000/svg"
 width="468pt" height="468pt" viewBox="0 0 468 468"
 preserveAspectRatio="xMidYMid meet">
<metadata>
Created by potrace 1.8, written by Peter Selinger 2001-2007
</metadata>
<g transform="translate(0,468) scale(0.365625,-0.365625)"
fill="#000000" stroke="none">
<path d="M953 1265 l-13 -14 0 -21 0 -20 10 0 10 0 0 -15 0 -15 -10 0 -10 0 0
15 0 15 -15 0 -15 0 0 10 0 10 -21 0 -20 0 -15 -14 -14 -15 0 -31 0 -31 14
-15 15 -14 20 0 21 0 0 -15 0 -15 -25 0 -25 0 0 15 0 15 -25 0 -25 0 0 -40 0
-40 15 0 15 0 0 -25 0 -25 25 0 25 0 0 -70 0 -70 -15 0 -15 0 0 -65 0 -65 -10
0 -10 0 0 -35 0 -35 -11 0 -10 0 -15 -14 -14 -15 0 -10 0 -11 -15 0 -15 0 0
-10 0 -10 -25 0 -25 0 0 -15 0 -15 -10 0 -10 0 0 100 0 100 -15 0 -15 0 0 35
0 35 -10 0 -10 0 0 25 0 25 -10 0 -10 0 0 25 0 25 -15 0 -15 0 0 11 0 10 -14
15 -15 14 -6 0 -6 0 -15 14 -14 15 0 10 0 11 -25 0 -25 0 0 10 0 10 -85 0 -85
0 0 -10 0 -10 -25 0 -25 0 0 -15 0 -15 -25 0 -25 0 0 -10 0 -10 -11 0 -10 0
-15 -14 -14 -15 0 -10 0 -11 -15 0 -15 0 0 -21 0 -20 -14 -15 -15 -14 -10 0
-11 0 0 -40 0 -40 -10 0 -10 0 0 -35 0 -35 -15 0 -15 0 0 -60 0 -60 -10 0 -10
0 0 -135 0 -135 10 0 10 0 0 -65 0 -65 11 0 10 0 15 -14 14 -15 0 -35 0 -36
15 0 15 0 0 11 0 10 14 15 15 14 10 0 11 0 0 15 0 15 25 0 25 0 0 -25 0 -25
10 0 10 0 0 -15 0 -15 15 0 15 0 0 -10 0 -10 25 0 25 0 0 -11 0 -10 14 -15 15
-14 350 0 351 0 0 10 0 10 25 0 25 0 0 15 0 15 11 0 10 0 15 14 14 15 0 10 0
11 11 0 10 0 15 14 14 15 0 20 0 21 15 0 15 0 0 25 0 25 10 0 10 0 0 40 0 40
15 0 15 0 0 45 0 45 10 0 10 0 0 100 0 100 -10 0 -10 0 0 50 0 50 -15 0 -15 0
0 25 0 25 -10 0 -10 0 0 50 0 50 -15 0 -15 0 0 25 0 25 -10 0 -10 0 0 31 0 30
14 15 15 14 20 0 21 0 0 -10 0 -10 15 0 15 0 0 35 0 35 -15 0 -15 0 0 11 0 10
-14 15 -15 14 -10 0 -11 0 0 15 0 15 -21 0 -20 0 -15 14 -14 15 0 20 0 21 10
0 10 0 0 15 0 15 15 0 15 0 0 25 0 25 -15 0 -15 0 0 10 0 10 -35 0 -35 0 0
-25 0 -25 -15 0 -15 0 0 25 0 25 -32 0 -33 -1 -12 -14z m107 -170 l0 -15 10 0
10 0 0 -25 0 -25 -50 0 -50 0 0 25 0 25 14 0 14 0 5 -12 4 -13 9 9 9 9 -12 4
-13 5 0 14 0 14 25 0 25 0 0 -15z m100 -50 l0 -15 25 0 25 0 0 -10 0 -10 -25
0 -25 0 0 10 0 10 -25 0 -25 0 0 15 0 15 25 0 25 0 0 -15z m-820 -50 l0 -15
15 0 15 0 0 15 0 15 10 0 10 0 0 -15 0 -15 14 0 14 0 6 -12 6 -13 6 13 6 12
12 0 12 0 14 -20 14 -20 13 0 13 0 0 -11 0 -10 14 -15 15 -14 10 0 11 0 0 -14
0 -14 13 -6 12 -6 -12 -6 -13 -6 0 -13 0 -13 13 -6 12 -6 -12 -6 -13 -6 0 -13
0 -13 13 -6 12 -6 -12 -6 -13 -6 0 -14 0 -14 -15 0 -15 0 0 14 0 14 -12 6 -13
6 13 6 12 6 0 10 0 9 -14 15 -15 14 -10 0 -11 0 0 11 0 10 -14 15 -15 14 -9 0
-10 0 -6 -12 -6 -13 -6 13 -6 12 -14 0 -14 0 0 15 0 15 15 0 15 0 0 10 0 10
-15 0 -15 0 0 15 0 15 15 0 15 0 0 10 0 10 -14 0 -14 0 -6 13 -6 12 -6 -12 -6
-13 -10 0 -9 0 -15 14 -14 15 0 10 0 11 10 0 10 0 0 -15z m690 -35 l0 -20 -10
0 -10 0 0 -11 0 -10 14 -15 15 -14 10 0 11 0 0 -11 0 -10 14 -15 15 -14 20 0
21 0 0 -15 0 -15 15 0 15 0 0 -25 0 -25 10 0 10 0 0 -35 0 -35 15 0 15 0 0
-14 0 -14 12 -4 13 -5 -17 -16 -17 -17 -6 0 -6 0 -17 17 -17 16 13 5 12 4 0
10 0 9 -14 15 -15 14 -6 0 -6 0 -15 -14 -14 -15 0 -9 0 -10 13 -5 12 -4 -9 -9
-9 -9 -4 13 -5 12 -14 0 -14 0 0 11 0 10 -14 15 -15 14 -10 0 -11 0 0 14 0 14
-12 6 -13 6 13 6 12 6 0 10 0 9 -14 15 -15 14 -10 0 -11 0 0 -10 0 -10 -10 0
-10 0 0 35 0 35 -10 0 -10 0 0 15 0 15 10 0 10 0 0 25 0 25 25 0 25 0 0 20 0
20 10 0 10 0 0 -20z m-730 -10 l0 -10 -15 0 -15 0 0 -14 0 -14 -12 -6 -13 -6
13 -6 12 -6 0 -14 0 -14 15 0 15 0 0 13 0 13 20 14 20 14 0 13 0 13 15 0 15 0
0 -14 0 -14 13 -6 12 -6 -12 -6 -13 -6 0 -10 0 -9 14 -15 15 -14 10 0 11 0 0
-11 0 -10 14 -15 15 -14 10 0 11 0 0 -15 0 -15 -14 0 -14 0 -6 -12 -6 -13 -6
13 -6 12 -14 0 -14 0 0 15 0 15 -10 0 -10 0 0 -15 0 -15 -15 0 -15 0 0 14 0
14 -12 6 -13 6 13 6 12 6 0 14 0 14 15 0 15 0 0 -15 0 -15 10 0 10 0 0 11 0
10 -14 15 -15 14 -10 0 -11 0 0 15 0 15 -10 0 -10 0 0 -14 0 -14 -12 -6 -13
-6 13 -6 12 -6 0 -13 0 -13 -12 -6 -13 -6 13 -6 12 -6 0 -10 0 -9 14 -15 15
-14 10 0 11 0 0 -15 0 -15 -11 0 -10 0 -15 -14 -14 -15 0 -6 0 -6 -14 -15 -15
-14 -9 0 -10 0 -6 -12 -6 -13 -6 13 -6 12 -10 0 -9 0 -15 -14 -14 -15 0 -10 0
-11 -11 0 -10 0 -15 -14 -14 -15 0 -10 0 -11 -14 0 -14 0 -5 -12 -4 -13 -9 9
-9 9 13 4 12 5 0 14 0 14 11 0 10 0 15 14 14 15 0 10 0 11 15 0 15 0 0 10 0
10 -15 0 -15 0 0 10 0 10 15 0 15 0 0 15 0 15 -14 0 -14 0 -6 13 -6 12 -6 -12
-6 -13 -14 0 -14 0 0 -11 0 -10 -14 -15 -15 -14 -9 0 -10 0 -5 -12 -4 -13 -8
7 -7 7 15 16 16 15 10 0 11 0 0 11 0 10 14 15 15 14 10 0 11 0 0 11 0 10 14
15 15 14 10 0 11 0 0 -10 0 -10 -15 0 -15 0 0 -15 0 -15 11 0 10 0 15 -14 14
-15 0 -10 0 -11 15 0 15 0 0 11 0 10 14 15 15 14 9 0 10 0 4 -12 5 -13 16 17
17 17 0 8 0 9 -20 14 -20 14 0 13 0 13 -15 0 -15 0 0 -15 0 -15 -10 0 -10 0 0
15 0 15 -14 0 -14 0 -6 13 -6 12 -6 -12 -6 -13 -14 0 -14 0 0 10 0 10 15 0 15
0 0 15 0 15 10 0 10 0 0 -15 0 -15 15 0 15 0 0 14 0 14 13 6 12 6 -12 6 -13 6
0 14 0 14 -15 0 -15 0 0 10 0 10 15 0 15 0 0 10 0 11 13 14 12 14 13 1 12 0 0
-10z m170 -121 l0 -10 14 -15 15 -14 10 0 11 0 0 -15 0 -15 -15 0 -15 0 0 11
0 10 -14 15 -15 14 -10 0 -11 0 0 15 0 15 15 0 15 0 0 -11z m150 -53 l0 -14
13 -6 12 -6 -12 -6 -13 -6 0 -13 0 -13 13 -6 12 -6 -12 -6 -13 -6 0 -10 0 -11
23 -20 22 -20 -12 -4 -13 -5 0 -13 0 -13 -12 -6 -13 -6 13 -6 12 -6 0 -13 0
-13 13 -6 12 -6 -12 -6 -13 -6 0 -14 0 -14 -10 0 -10 0 0 14 0 14 13 6 12 6
-12 6 -13 6 0 14 0 14 -15 0 -15 0 0 10 0 10 15 0 15 0 0 15 0 15 -15 0 -15 0
0 -14 0 -14 -12 -6 -13 -6 13 -6 12 -6 0 -13 0 -13 -12 -6 -13 -6 13 -6 12 -6
0 -13 0 -13 -12 -6 -13 -6 13 -6 12 -6 0 -14 0 -14 25 0 25 0 0 15 0 15 46 0
45 0 15 14 14 15 0 9 0 10 -12 5 -13 4 9 9 9 9 4 -12 5 -13 10 0 9 0 15 14 14
15 0 10 0 11 11 0 10 0 15 14 14 15 0 10 0 11 15 0 15 0 0 -11 0 -10 14 -15
15 -14 6 0 6 0 15 14 14 15 0 10 0 11 -10 0 -10 0 0 -15 0 -15 -15 0 -15 0 0
15 0 15 11 0 10 0 17 17 17 16 -13 5 -12 4 0 14 0 14 10 0 10 0 0 -15 0 -15
10 0 10 0 0 15 0 15 15 0 15 0 0 -11 0 -10 14 -15 15 -14 6 0 6 0 15 -14 14
-15 0 -10 0 -11 11 0 10 0 15 -14 14 -15 0 -10 0 -11 14 0 14 0 6 -12 6 -13 6
13 6 12 10 0 9 0 15 -14 14 -15 0 -10 0 -11 15 0 15 0 0 -10 0 -10 -15 0 -15
0 0 -15 0 -15 -10 0 -10 0 0 14 0 14 13 6 12 6 -12 6 -13 6 0 14 0 14 -15 0
-15 0 0 -15 0 -15 -10 0 -10 0 0 15 0 15 -11 0 -10 0 -15 14 -14 15 0 10 0 11
-11 0 -10 0 -15 14 -14 15 0 10 0 11 -13 0 -13 0 -14 20 -14 20 -9 0 -8 0 -17
-17 -17 -16 13 -5 12 -4 0 -14 0 -14 11 0 10 0 15 -14 14 -15 0 -10 0 -11 15
0 15 0 0 -10 0 -10 -15 0 -15 0 0 -15 0 -15 11 0 10 0 15 -14 14 -15 0 -10 0
-11 15 0 15 0 0 15 0 15 10 0 10 0 0 -15 0 -15 11 0 10 0 15 -14 14 -15 0 -10
0 -11 -10 0 -10 0 0 15 0 15 -14 0 -14 0 -6 13 -6 12 -6 -12 -6 -13 -14 0 -14
0 0 -15 0 -15 -10 0 -10 0 0 14 0 14 13 6 12 6 -12 6 -13 6 0 14 0 14 -11 0
-10 0 -15 14 -14 15 0 9 0 10 13 6 12 6 -12 6 -13 6 0 14 0 14 -14 0 -14 0 -4
12 -5 13 -16 -17 -17 -17 0 -45 0 -46 -15 0 -15 0 0 -40 0 -40 -10 0 -10 0 0
-35 0 -35 -15 0 -15 0 0 -21 0 -20 -14 -15 -15 -14 -10 0 -11 0 0 -15 0 -15
15 0 15 0 0 -10 0 -10 -15 0 -15 0 0 -11 0 -10 -14 -15 -15 -14 -9 0 -10 0 -6
13 -6 12 -6 -12 -6 -13 -14 0 -14 0 0 -11 0 -10 -14 -15 -15 -14 -9 0 -10 0
-4 12 -5 13 -16 -17 -17 -17 0 -10 0 -11 -11 0 -10 0 -15 -14 -14 -15 0 -10 0
-11 -15 0 -15 0 0 15 0 15 11 0 10 0 15 14 14 15 0 10 0 11 11 0 10 0 15 14
14 15 0 9 0 10 -12 6 -13 6 13 6 12 6 0 10 0 9 14 15 15 14 10 0 11 0 0 11 0
10 14 15 15 14 10 0 11 0 0 15 0 15 10 0 10 0 0 20 0 20 15 0 15 0 0 25 0 25
-11 0 -10 0 -15 -14 -14 -15 0 -10 0 -11 -13 0 -13 0 -14 -20 -14 -20 -13 0
-13 0 0 -13 0 -13 -20 -14 -20 -14 0 -13 0 -13 -15 0 -15 0 0 15 0 15 -10 0
-10 0 0 -15 0 -15 -15 0 -15 0 0 15 0 15 14 0 14 0 6 13 6 12 6 -12 6 -13 10
0 9 0 15 14 14 15 0 10 0 11 10 0 10 0 0 20 0 20 15 0 15 0 0 25 0 25 -15 0
-15 0 0 -25 0 -25 -45 0 -45 0 0 -9 0 -9 13 -5 12 -4 -9 -9 -9 -9 -4 13 -5 12
-10 0 -9 0 -15 -14 -14 -15 0 -10 0 -11 -11 0 -10 0 -15 -14 -14 -15 0 -10 0
-11 -15 0 -15 0 0 11 0 10 -14 15 -15 14 -10 0 -11 0 0 15 0 15 15 0 15 0 0
10 0 10 -14 0 -14 0 -6 -12 -6 -13 -6 13 -6 12 -14 0 -14 0 0 -10 0 -10 15 0
15 0 0 -15 0 -15 -15 0 -15 0 0 -10 0 -10 15 0 15 0 0 -15 0 -15 -11 0 -10 0
-15 -14 -14 -15 0 -9 0 -10 -12 -6 -13 -6 13 -6 12 -6 0 -14 0 -14 -10 0 -10
0 0 15 0 15 -14 0 -14 0 -6 13 -6 12 -6 -12 -6 -13 -10 0 -9 0 -15 14 -14 15
0 10 0 11 -15 0 -15 0 0 10 0 10 15 0 15 0 0 15 0 15 10 0 10 0 0 -14 0 -14
-12 -6 -13 -6 13 -6 12 -6 0 -14 0 -14 15 0 15 0 0 15 0 15 10 0 10 0 0 -15 0
-15 15 0 15 0 0 13 0 13 20 14 20 14 0 12 0 12 -12 6 -13 6 13 6 12 6 0 10 0
9 -17 17 -16 17 -5 -13 -4 -12 -13 0 -13 0 -6 13 -6 12 -6 -12 -6 -13 -14 0
-14 0 0 10 0 10 14 0 14 0 6 13 6 12 6 -12 6 -13 10 0 9 0 15 14 14 15 0 6 0
6 -14 15 -15 14 -10 0 -11 0 0 15 0 15 15 0 15 0 0 -15 0 -15 10 0 10 0 0 11
0 10 -14 15 -15 14 -10 0 -11 0 0 15 0 15 15 0 15 0 0 -11 0 -10 17 -17 16
-17 5 13 4 12 14 0 14 0 0 14 0 14 13 6 12 6 -12 6 -13 6 0 13 0 13 13 6 12 6
-12 6 -13 6 0 14 0 14 -15 0 -15 0 0 -13 0 -13 -20 -14 -20 -14 0 -13 0 -13
-15 0 -15 0 0 15 0 15 11 0 10 0 15 14 14 15 0 10 0 11 -10 0 -10 0 0 -15 0
-15 -11 0 -10 0 -15 -14 -14 -15 0 -10 0 -11 -15 0 -15 0 0 -10 0 -10 15 0 15
0 0 -15 0 -15 -15 0 -15 0 0 14 0 14 -12 6 -13 6 13 6 12 6 0 14 0 14 11 0 10
0 15 14 14 15 0 10 0 11 11 0 10 0 15 14 14 15 0 6 0 6 14 15 15 14 10 0 11 0
0 10 0 10 -15 0 -15 0 0 15 0 15 11 0 10 0 15 14 14 15 0 9 0 10 -12 5 -13 4
9 9 9 9 4 -12 5 -13 14 0 14 0 0 -15 0 -15 10 0 10 0 0 15 0 15 14 0 14 0 6
13 6 12 6 -12 6 -13 14 0 14 0 0 -11 0 -10 14 -15 15 -14 9 0 10 0 6 13 6 12
6 -12 6 -13 14 0 14 0 0 10 0 10 -15 0 -15 0 0 15 0 15 15 0 15 0 0 10 0 10
-15 0 -15 0 0 15 0 15 15 0 15 0 0 -14z m360 -26 l0 -10 -10 0 -10 0 0 -15 0
-15 -10 0 -10 0 0 10 0 11 13 14 12 14 8 1 7 0 0 -10z m-830 -145 l0 -15 -15
0 -15 0 0 15 0 15 15 0 15 0 0 -15z m-80 -25 l0 -10 -10 0 -10 0 0 10 0 10 10
0 10 0 0 -10z m0 -50 l0 -10 -10 0 -10 0 0 10 0 10 10 0 10 0 0 -10z m50 -50
l0 -10 -10 0 -10 0 0 -15 0 -15 -15 0 -15 0 0 15 0 15 15 0 15 0 0 10 0 10 10
0 10 0 0 -10z m150 0 l0 -10 -10 0 -10 0 0 10 0 10 10 0 10 0 0 -10z m710 -21
l0 -10 -15 -16 -16 -15 -7 7 -7 8 13 4 12 5 0 14 0 14 10 0 10 0 0 -11z m-780
-29 l0 -10 -15 0 -15 0 0 10 0 10 15 0 15 0 0 -10z m-100 -25 l0 -15 -15 0
-15 0 0 15 0 15 15 0 15 0 0 -15z m1130 0 l0 -15 -10 0 -10 0 0 15 0 15 10 0
10 0 0 -15z m-1030 -25 l0 -10 -15 0 -15 0 0 10 0 10 15 0 15 0 0 -10z m766
-4 l14 -15 0 -10 0 -11 14 0 14 0 6 -12 6 -13 6 13 6 12 13 0 13 0 6 -12 6
-13 6 13 6 12 12 0 12 0 14 -20 14 -20 13 0 13 0 0 -11 0 -10 14 -15 15 -14
10 0 11 0 0 -15 0 -15 -15 0 -15 0 0 11 0 10 -14 15 -15 14 -6 0 -6 0 -15 -14
-14 -15 0 -10 0 -11 -14 0 -14 0 -6 -12 -6 -13 -6 13 -6 12 -14 0 -14 0 0 11
0 10 -14 15 -15 14 -10 0 -11 0 0 14 0 14 -12 5 -13 5 15 12 15 12 -12 5 -13
5 0 14 0 14 -10 0 -10 0 0 10 0 10 6 0 5 0 15 -14z m-866 -21 l0 -15 -15 0
-15 0 0 15 0 15 15 0 15 0 0 -15z m100 -25 l0 -10 -15 0 -15 0 0 10 0 10 15 0
15 0 0 -10z m100 -70 l0 -10 -15 0 -15 0 0 10 0 10 15 0 15 0 0 -10z m90 0 l0
-10 15 0 15 0 0 -11 0 -10 14 -15 15 -14 6 0 6 0 15 14 14 15 0 10 0 11 15 0
15 0 0 -11 0 -10 14 -15 15 -14 9 0 10 0 6 13 6 12 6 -12 6 -13 14 0 14 0 0
-15 0 -15 -15 0 -15 0 0 15 0 15 -10 0 -10 0 0 -15 0 -15 -15 0 -15 0 0 11 0
10 -14 15 -15 14 -6 0 -6 0 -15 -14 -14 -15 0 -10 0 -11 -15 0 -15 0 0 11 0
10 -14 15 -15 14 -6 0 -6 0 -15 -14 -14 -15 0 -10 0 -11 -15 0 -15 0 0 15 0
15 11 0 10 0 15 14 14 15 0 10 0 11 -10 0 -10 0 0 10 0 10 10 0 10 0 0 -10z
m30 -71 l0 -10 14 -15 15 -14 6 0 6 0 15 14 14 15 0 10 0 11 15 0 15 0 0 -11
0 -10 14 -15 15 -14 9 0 10 0 6 13 6 12 6 -12 6 -13 14 0 14 0 0 -15 0 -15
-11 0 -10 0 -15 -14 -14 -15 0 -10 0 -11 -15 0 -15 0 0 15 0 15 11 0 10 0 15
14 14 15 0 10 0 11 -10 0 -10 0 0 -15 0 -15 -15 0 -15 0 0 11 0 10 -14 15 -15
14 -6 0 -6 0 -15 -14 -14 -15 0 -10 0 -11 -15 0 -15 0 0 11 0 10 -14 15 -15
14 -6 0 -6 0 -15 -14 -14 -15 0 -10 0 -11 -15 0 -15 0 0 15 0 15 11 0 10 0 15
14 14 15 0 10 0 11 15 0 15 0 0 -11z m0 -50 l0 -10 14 -15 15 -14 6 0 6 0 15
14 14 15 0 10 0 11 15 0 15 0 0 -14 0 -14 13 -6 12 -6 -12 -6 -13 -6 0 -14 0
-14 -14 0 -14 0 -6 -12 -6 -13 -6 13 -6 12 -13 0 -13 0 -5 -12 -4 -13 -9 9 -9
9 13 4 12 5 0 10 0 9 -14 15 -15 14 -10 0 -11 0 0 15 0 15 15 0 15 0 0 -11z"/>
<path d="M440 950 l0 -10 15 0 15 0 0 -11 0 -10 14 -15 15 -14 10 0 11 0 0
-11 0 -10 14 -15 15 -14 10 0 11 0 0 10 0 10 -15 0 -15 0 0 11 0 10 -14 15
-15 14 -10 0 -11 0 0 11 0 10 -14 15 -15 14 -10 0 -11 0 0 -10z"/>
<path d="M1030 750 l0 -10 15 0 15 0 0 -11 0 -10 14 -15 15 -14 6 0 6 0 15 14
14 15 0 6 0 6 -14 15 -15 14 -9 0 -10 0 -6 -12 -6 -13 -6 13 -6 12 -14 0 -14
0 0 -10z m80 -25 l0 -15 -15 0 -15 0 0 15 0 15 15 0 15 0 0 -15z"/>
<path d="M1180 650 l0 -10 15 0 15 0 0 10 0 10 -15 0 -15 0 0 -10z"/>
<path d="M270 826 l0 -14 -12 -5 -13 -4 9 -9 9 -9 4 13 5 12 14 0 14 0 0 15 0
15 -15 0 -15 0 0 -14z"/>
<path d="M270 676 l0 -14 -12 -5 -13 -4 9 -9 9 -9 4 13 5 12 14 0 14 0 0 15 0
15 -15 0 -15 0 0 -14z"/>
<path d="M200 650 l0 -10 10 0 10 0 0 10 0 10 -10 0 -10 0 0 -10z"/>
<path d="M383 695 l-13 -14 0 -6 0 -6 14 -15 15 -14 9 0 10 0 6 13 6 12 6 -12
6 -13 10 0 9 0 15 14 14 15 0 6 0 6 -14 15 -15 14 -9 0 -10 0 -6 -12 -6 -13
-6 13 -6 12 -11 0 -12 -1 -12 -14z"/>
<path d="M480 640 l-14 -20 -12 0 -12 0 -6 13 -6 12 -6 -12 -6 -13 -13 0 -13
0 -6 13 -6 12 -6 -12 -6 -13 -14 0 -14 0 0 -14 0 -14 -12 -5 -13 -4 9 -9 9 -9
4 13 5 12 14 0 14 0 0 15 0 15 10 0 10 0 0 -14 0 -14 -12 -6 -13 -6 13 -6 12
-6 0 -14 0 -14 14 0 14 0 6 -12 6 -13 6 13 6 12 14 0 14 0 0 15 0 15 -11 0
-10 0 -15 14 -14 15 0 10 0 11 10 0 10 0 0 -15 0 -15 15 0 15 0 0 11 0 10 14
15 15 14 10 0 11 0 0 10 0 10 -13 0 -13 0 -14 -20z"/>
<path d="M540 650 l0 -10 15 0 15 0 0 10 0 10 -15 0 -15 0 0 -10z"/>
<path d="M590 650 l0 -10 14 0 14 0 5 -12 4 -13 8 7 7 7 -15 16 -16 15 -10 0
-11 0 0 -10z"/>
<path d="M490 606 l0 -14 -12 -6 -13 -6 13 -6 12 -6 0 -10 0 -9 -14 -15 -15
-14 -10 0 -11 0 0 -15 0 -15 15 0 15 0 0 11 0 10 14 15 15 14 6 0 6 0 15 -14
14 -15 0 -10 0 -11 15 0 15 0 0 15 0 15 -11 0 -10 0 -15 14 -14 15 0 9 0 10
13 6 12 6 -12 6 -13 6 0 14 0 14 -15 0 -15 0 0 -14z m30 -26 l0 -10 -15 0 -15
0 0 10 0 10 15 0 15 0 0 -10z"/>
<path d="M390 505 l0 -15 11 0 10 0 15 -14 14 -15 0 -10 0 -11 15 0 15 0 0 11
0 10 14 15 15 14 6 0 6 0 15 -14 14 -15 0 -6 0 -6 -14 -15 -15 -14 -10 0 -11
0 0 -15 0 -15 15 0 15 0 0 11 0 10 14 15 15 14 10 0 11 0 0 15 0 15 -11 0 -10
0 -15 14 -14 15 0 10 0 11 -15 0 -15 0 0 -11 0 -10 -14 -15 -15 -14 -6 0 -6 0
-15 14 -14 15 0 10 0 11 -15 0 -15 0 0 -15z"/>
<path d="M390 459 l0 -10 -14 -15 -15 -14 -10 0 -11 0 0 -14 0 -14 -12 -6 -13
-6 13 -6 12 -6 0 -13 0 -13 -12 -5 -13 -4 9 -9 9 -9 4 13 5 12 13 0 13 0 6
-12 6 -13 6 13 6 12 13 0 13 0 5 -12 4 -13 9 9 9 9 -12 4 -13 5 0 14 0 14 -15
0 -15 0 0 -15 0 -15 -10 0 -10 0 0 15 0 15 -15 0 -15 0 0 10 0 10 15 0 15 0 0
11 0 10 14 15 15 14 6 0 6 0 15 -14 14 -15 0 -10 0 -11 11 0 10 0 15 -14 14
-15 0 -9 0 -10 -12 -4 -13 -5 17 -16 17 -17 8 0 9 0 14 20 14 20 13 0 13 0 0
25 0 25 -15 0 -15 0 0 -10 0 -10 -21 0 -20 0 -15 14 -14 15 0 6 0 6 14 15 15
14 10 0 11 0 0 15 0 15 -15 0 -15 0 0 -11 0 -10 -14 -15 -15 -14 -6 0 -6 0
-15 14 -14 15 0 10 0 11 -15 0 -15 0 0 -11z"/>
<path d="M390 406 l0 -14 -12 -5 -13 -4 9 -9 9 -9 4 13 5 12 10 0 9 0 15 -14
14 -15 0 -10 0 -11 15 0 15 0 0 15 0 15 -11 0 -10 0 -15 14 -14 15 0 10 0 11
-15 0 -15 0 0 -14z"/>
<path d="M840 380 l0 -10 -15 0 -15 0 0 -21 0 -20 -14 -15 -15 -14 -10 0 -11
0 0 -11 0 -10 -14 -15 -15 -14 -10 0 -11 0 0 -11 0 -10 -14 -15 -15 -14 -10 0
-11 0 0 -14 0 -14 -12 -6 -13 -6 13 -6 12 -6 0 -14 0 -14 15 0 15 0 0 15 0 15
-15 0 -15 0 0 10 0 10 14 0 14 0 6 -12 6 -13 6 13 6 12 14 0 14 0 0 11 0 10
14 15 15 14 10 0 11 0 0 -10 0 -10 -15 0 -15 0 0 -15 0 -15 15 0 15 0 0 14 0
14 13 6 12 6 -12 6 -13 6 0 14 0 14 10 0 10 0 0 35 0 35 11 0 10 0 15 14 14
15 0 20 0 21 -10 0 -10 0 0 -10z"/>
<path d="M433 305 l-13 -14 0 -6 0 -6 14 -15 15 -14 6 0 6 0 15 14 14 15 0 6
0 6 -14 15 -15 14 -8 0 -8 -1 -12 -14z"/>
<path d="M980 310 l0 -10 15 0 15 0 0 -11 0 -10 14 -15 15 -14 10 0 11 0 0
-15 0 -15 10 0 10 0 0 15 0 15 11 0 10 0 15 14 14 15 0 6 0 6 -14 15 -15 14
-9 0 -10 0 -6 -12 -6 -13 -6 13 -6 12 -13 0 -13 0 -6 -12 -6 -13 -6 13 -6 12
-14 0 -14 0 0 -10z m80 -25 l0 -15 10 0 10 0 0 15 0 15 15 0 15 0 0 -15 0 -15
-14 0 -14 0 -6 -12 -6 -13 -6 13 -6 12 -14 0 -14 0 0 15 0 15 15 0 15 0 0 -15z"/>
<path d="M483 105 l-13 -14 0 -11 0 -10 10 0 10 0 0 15 0 15 15 0 15 0 0 10 0
10 -12 0 -13 -1 -12 -14z"/>
</g>
</svg>
