<?xml version="1.0" standalone="no"?>
<!DOCTYPE svg PUBLIC "-//W3C//DTD SVG 20010904//EN"
 "http://www.w3.org/TR/2001/REC-SVG-20010904/DTD/svg10.dtd">
<svg version="1.0" xmlns="http://www.w3.org/2000/svg"
 width="468pt" height="468pt" viewBox="0 0 468 468"
 preserveAspectRatio="xMidYMid meet">
<metadata>
Created by potrace 1.8, written by Peter Selinger 2001-2007
</metadata>
<g transform="translate(0,468) scale(0.365625,-0.365625)"
fill="#000000" stroke="none">
<path d="M60 1250 l0 -30 -30 0 -30 0 0 -110 0 -110 30 0 30 0 0 -25 0 -25 25
0 25 0 0 -30 0 -30 30 0 30 0 0 -30 0 -30 25 0 25 0 0 -25 0 -25 30 0 30 0 0
-30 0 -30 25 0 25 0 0 -25 0 -25 30 0 30 0 0 -30 0 -30 -195 0 -195 0 0 -305
0 -305 640 0 640 0 0 335 0 335 -30 0 -30 0 0 110 0 110 30 0 30 0 0 30 0 30
-30 0 -30 0 0 25 0 25 -25 0 -25 0 0 30 0 30 -30 0 -30 0 0 25 0 25 -25 0 -25
0 0 30 0 30 -30 0 -30 0 0 25 0 25 -25 0 -25 0 0 30 0 30 -445 0 -445 0 0 -30z
m50 -55 l0 -25 30 0 30 0 0 -30 0 -30 25 0 25 0 0 -25 0 -25 30 0 30 0 0 -30
0 -30 25 0 25 0 0 -25 0 -25 30 0 30 0 0 -30 0 -30 390 0 390 0 0 -110 0 -110
-390 0 -390 0 0 110 0 110 -30 0 -30 0 0 30 0 30 -25 0 -25 0 0 25 0 25 -30 0
-30 0 0 30 0 30 -25 0 -25 0 0 25 0 25 -30 0 -30 0 0 30 0 30 -25 0 -25 0 0
25 0 25 25 0 25 0 0 -25z"/>
</g>
</svg>
