<?xml version="1.0" standalone="no"?>
<!DOCTYPE svg PUBLIC "-//W3C//DTD SVG 20010904//EN"
 "http://www.w3.org/TR/2001/REC-SVG-20010904/DTD/svg10.dtd">
<svg version="1.0" xmlns="http://www.w3.org/2000/svg"
 width="468pt" height="468pt" viewBox="0 0 468 468"
 preserveAspectRatio="xMidYMid meet">
<metadata>
Created by potrace 1.8, written by Peter Selinger 2001-2007
</metadata>
<g transform="translate(0,468) scale(0.365625,-0.365625)"
fill="#000000" stroke="none">
<path d="M920 1270 l0 -10 -20 0 -21 0 -24 -25 -25 -24 0 -7 0 -6 -30 -28 -30
-28 0 -36 0 -36 16 0 15 0 15 14 14 15 0 11 0 11 25 24 24 25 21 0 20 0 0 10
0 10 20 0 20 0 0 15 0 15 85 0 85 0 0 -15 0 -15 18 0 18 0 14 -20 14 -20 11 0
11 0 14 -20 14 -20 18 0 18 0 0 5 0 6 -35 34 -34 35 -11 0 -10 0 0 11 0 10
-14 15 -15 14 -15 0 -16 0 0 10 0 10 -30 0 -30 0 0 10 0 10 -75 0 -75 0 0 -10z"/>
<path d="M210 1250 l0 -10 -30 0 -30 0 0 -10 0 -10 -20 0 -20 0 0 -11 0 -10
-14 -15 -15 -14 -6 0 -6 0 -34 -35 -35 -34 0 -6 0 -5 18 0 18 0 14 20 14 20
11 0 11 0 14 20 14 20 18 0 18 0 0 10 0 10 85 0 85 0 0 -10 0 -10 20 0 20 0 0
-10 0 -10 20 0 21 0 24 -25 25 -24 0 -11 0 -11 14 -15 15 -14 15 0 16 0 0 36
0 36 -40 38 -40 38 0 7 0 6 -14 15 -15 14 -20 0 -21 0 0 10 0 10 -75 0 -75 0
0 -10z"/>
<path d="M980 1120 l0 -10 -20 0 -20 0 0 -10 0 -10 -20 0 -20 0 0 -10 0 -10
-11 0 -10 0 -15 -14 -14 -15 0 -8 0 -9 -20 -14 -20 -14 0 -14 0 -13 35 -34 34
-35 11 0 10 0 0 -15 0 -15 18 0 18 0 14 -20 14 -20 83 0 83 0 0 10 0 10 20 0
20 0 0 10 0 10 25 0 25 0 0 13 0 13 20 14 20 14 0 36 0 36 -20 14 -20 14 0 13
0 13 -11 0 -11 0 -28 30 -28 30 -16 0 -16 0 0 10 0 10 -65 0 -65 0 0 -10z
m145 -55 l25 -24 0 -6 0 -6 25 -24 24 -25 11 0 10 0 0 -20 0 -20 -13 0 -13 0
-14 -20 -14 -20 -18 0 -18 0 0 -15 0 -15 -85 0 -85 0 0 11 0 10 -14 15 -15 14
-15 0 -16 0 0 10 0 10 -15 0 -15 0 0 40 0 40 15 0 15 0 0 15 0 15 18 0 18 0
14 20 14 20 69 0 68 0 24 -25z"/>
<path d="M993 1055 l-13 -14 0 -11 0 -10 -10 0 -10 0 0 -35 0 -36 25 -24 24
-25 36 0 36 0 24 25 25 24 0 36 0 35 -10 0 -10 0 0 11 0 10 -14 15 -15 14 -38
0 -38 -1 -12 -14z m57 -55 l0 -20 -25 0 -25 0 0 20 0 20 25 0 25 0 0 -20z"/>
<path d="M170 1100 l0 -10 -15 0 -16 0 -24 -25 -25 -24 0 -11 0 -10 -10 0 -11
0 -24 -25 -25 -24 0 -36 0 -35 10 0 10 0 0 -11 0 -10 14 -15 15 -14 20 0 21 0
0 -10 0 -10 20 0 20 0 0 -10 0 -10 -75 0 -75 0 0 -405 0 -405 640 0 640 0 0
405 0 405 -480 0 -480 0 0 6 0 5 14 15 15 14 15 0 16 0 0 10 0 10 15 0 15 0 0
11 0 11 30 28 30 28 0 12 0 12 -30 28 -30 28 0 11 0 11 -15 0 -15 0 0 10 0 10
-20 0 -20 0 0 10 0 10 -20 0 -20 0 0 10 0 10 -65 0 -65 0 0 -10z m156 -44 l14
-15 0 -10 0 -11 20 0 20 0 0 -10 0 -10 15 0 15 0 0 -40 0 -40 -15 0 -15 0 0
-10 0 -10 -20 0 -20 0 0 -11 0 -10 -14 -15 -15 -14 -80 0 -81 0 0 10 0 10 -20
0 -20 0 0 11 0 10 -14 15 -15 14 -10 0 -11 0 0 20 0 20 10 0 11 0 34 35 35 34
0 6 0 6 13 14 12 14 68 1 68 0 15 -14z"/>
<path d="M190 1037 l0 -13 -20 -14 -20 -14 0 -36 0 -36 20 -14 20 -14 0 -13 0
-13 45 0 45 0 0 13 0 13 20 14 20 14 0 36 0 36 -20 14 -20 14 0 13 0 13 -45 0
-45 0 0 -13z m40 -57 l0 -20 -20 0 -20 0 0 20 0 20 20 0 20 0 0 -20z"/>
</g>
</svg>
