<?xml version="1.0" standalone="no"?>
<!DOCTYPE svg PUBLIC "-//W3C//DTD SVG 20010904//EN"
 "http://www.w3.org/TR/2001/REC-SVG-20010904/DTD/svg10.dtd">
<svg version="1.0" xmlns="http://www.w3.org/2000/svg"
 width="468pt" height="468pt" viewBox="0 0 468 468"
 preserveAspectRatio="xMidYMid meet">
<metadata>
Created by potrace 1.8, written by Peter Selinger 2001-2007
</metadata>
<g transform="translate(0,468) scale(0.365625,-0.365625)"
fill="#000000" stroke="none">
<path d="M7 1273 l-7 -6 0 -634 0 -633 640 0 640 0 -2 638 -3 637 -22 3 -22 3
-21 -19 -21 -20 30 -10 31 -11 0 25 0 24 10 0 10 0 0 -28 0 -28 -32 -2 -31 -3
-8 13 -8 13 -13 -13 -12 -12 -28 0 -28 0 0 29 0 29 13 5 12 5 -33 1 -33 1 5
-9 6 -9 -32 -7 -33 -7 -12 -10 -13 -10 0 12 0 12 23 6 22 6 -30 7 -30 7 -28 1
-28 1 6 -10 6 -10 -15 0 -16 0 0 -8 0 -9 28 -13 27 -13 -18 -5 -18 -4 -18 21
-19 21 -16 -6 -16 -6 0 -9 0 -8 17 6 16 6 -7 -11 -7 -12 -15 0 -14 0 0 20 0
21 23 10 22 10 -22 -5 -23 -4 -6 9 -5 9 -20 0 -20 0 -21 -19 -21 -20 27 -7 26
-6 0 -9 0 -9 -16 0 -17 0 -19 22 -19 22 -17 -18 -17 -17 18 7 17 6 0 -11 0
-11 -20 0 -20 0 -10 25 -10 25 -5 0 -6 0 6 -10 6 -10 -10 0 -11 0 0 10 0 10
-8 0 -9 0 -12 -22 -12 -23 6 20 5 20 -19 -25 -19 -24 -27 14 -26 14 -8 -13 -8
-13 -19 4 -19 5 35 16 35 16 -22 6 -23 7 0 9 0 9 -24 0 -25 0 -6 -10 -6 -9
-17 5 -17 6 18 -12 17 -11 0 -11 0 -10 -17 13 -16 14 -4 -12 -5 -13 -14 0 -14
0 0 -11 0 -10 -17 3 -17 3 -7 25 -7 25 -1 -28 -1 -28 -10 6 -10 6 0 25 0 24
16 0 16 0 5 -20 5 -20 12 0 11 0 15 10 15 10 -22 6 -23 6 6 9 5 9 -28 -1 -28
-1 -25 -8 -25 -8 18 -1 17 -1 0 -16 0 -16 -17 13 -16 14 -4 -12 -5 -13 -13 0
-13 0 -4 -12 -4 -12 -17 7 -17 6 -1 23 -1 23 -7 -28 -6 -28 -21 19 -21 20 -31
7 -32 7 0 9 0 9 -23 0 -24 0 -6 -7z m31 -31 l3 -21 25 9 25 10 5 0 5 0 -14
-14 -14 -15 -32 1 -31 1 0 29 0 30 13 -4 12 -5 3 -21z m434 -2 l-4 -30 -9 0
-9 0 0 30 0 30 13 0 14 0 -5 -30z m358 -1 l0 -30 -10 6 -10 6 0 25 0 24 10 0
10 0 0 -31z m150 0 l0 -30 -10 6 -10 6 0 25 0 24 10 0 10 0 0 -31z m115 -20
l9 -9 -18 0 -17 0 -17 16 -16 17 24 -8 25 -7 10 -9z m-955 1 l15 -10 -17 0
-17 0 -6 10 -6 10 8 0 8 0 15 -10z m145 -8 l-5 -6 -13 13 -12 12 18 -7 18 -6
-6 -6z m155 2 l0 -4 -15 0 -15 0 0 10 0 9 15 -5 15 -6 0 -4z m585 6 l-6 -10
-17 0 -17 0 15 10 15 10 8 0 8 0 -6 -10z"/>
<path d="M168 1270 l22 -9 0 -20 0 -21 25 12 25 11 0 9 0 8 -21 0 -20 0 6 10
6 10 -33 -1 -33 0 23 -9z"/>
<path d="M613 1273 l27 -4 28 4 27 4 -55 0 -55 0 28 -4z"/>
<path d="M110 1266 l0 -4 20 -5 20 -5 -6 9 -5 9 -15 0 -14 0 0 -4z"/>
<path d="M550 1266 l0 -4 20 -5 20 -5 -6 9 -5 9 -15 0 -14 0 0 -4z"/>
<path d="M695 1260 l-6 -10 8 0 8 0 15 10 15 10 -17 0 -17 0 -6 -10z"/>
<path d="M1135 1260 l-6 -10 8 1 8 0 20 9 20 9 -22 0 -22 1 -6 -10z"/>
<path d="M550 1241 l0 -9 16 -6 16 -6 5 0 4 0 -15 15 -15 15 -5 0 -6 0 0 -9z"/>
<path d="M1151 1236 l-12 -14 20 5 21 5 0 9 0 9 -9 0 -9 0 -11 -14z"/>
</g>
</svg>
