<?xml version="1.0" standalone="no"?>
<!DOCTYPE svg PUBLIC "-//W3C//DTD SVG 20010904//EN"
 "http://www.w3.org/TR/2001/REC-SVG-20010904/DTD/svg10.dtd">
<svg version="1.0" xmlns="http://www.w3.org/2000/svg"
 width="468pt" height="468pt" viewBox="0 0 468 468"
 preserveAspectRatio="xMidYMid meet">
<metadata>
Created by potrace 1.8, written by Peter Selinger 2001-2007
</metadata>
<g transform="translate(0,468) scale(0.365625,-0.365625)"
fill="#000000" stroke="none">
<path d="M540 1130 l0 -10 -40 0 -40 0 0 -10 0 -10 -20 0 -20 0 0 -10 0 -10
-20 0 -20 0 0 -10 0 -10 -15 0 -15 0 -65 -65 -65 -65 0 -15 0 -15 -10 0 -10 0
0 -20 0 -20 -10 0 -10 0 0 -20 0 -20 -10 0 -10 0 0 -40 0 -40 -10 0 -10 0 0
-60 0 -60 -45 0 -46 0 -24 -25 -25 -24 0 -286 0 -285 640 0 640 0 0 380 0 380
-50 0 -50 0 0 -10 0 -10 -20 0 -20 0 0 20 0 20 -10 0 -10 0 0 20 0 20 -10 0
-10 0 0 20 0 20 -10 0 -10 0 0 20 0 20 -10 0 -10 0 0 15 0 15 -65 65 -65 65
-15 0 -15 0 0 10 0 10 -20 0 -20 0 0 10 0 10 -20 0 -20 0 0 10 0 10 -40 0 -40
0 0 10 0 10 -100 0 -100 0 0 -10z m23 -22 l5 -13 11 15 11 15 10 -15 10 -15
10 15 10 15 10 -15 10 -15 10 15 10 15 10 -15 10 -15 11 15 11 15 5 -12 5 -13
29 0 29 0 0 -6 0 -5 -16 -16 -16 -16 -8 14 -9 13 -8 -7 -7 -8 14 -10 15 -9
-15 -9 -14 -10 7 -8 8 -7 9 13 8 14 17 -16 16 -17 -16 -17 -17 -16 -8 14 -9
13 -8 -7 -7 -8 14 -10 15 -9 -15 -9 -14 -10 7 -8 8 -7 9 13 8 14 17 -16 16
-17 -16 -17 -17 -16 -8 14 -9 13 -8 -7 -7 -8 14 -10 15 -9 -15 -9 -14 -10 7
-8 8 -7 9 13 8 14 17 -16 16 -17 -16 -17 -17 -16 -8 14 -9 13 -8 -7 -7 -8 14
-10 15 -9 -15 -9 -14 -10 7 -8 8 -7 9 13 8 14 17 -16 16 -17 -16 -17 -17 -16
-8 14 -9 13 -8 -7 -7 -8 14 -10 15 -9 -15 -9 -14 -10 7 -8 8 -7 9 13 8 14 17
-16 16 -17 -16 -17 -17 -16 -8 14 -9 13 -8 -7 -7 -8 13 -9 14 -8 -16 -17 -17
-16 -17 16 -16 17 14 8 13 9 -7 8 -8 7 -9 -13 -8 -14 -17 16 -16 17 16 17 17
16 8 -14 9 -13 8 7 7 8 -14 10 -15 9 15 9 14 10 -7 8 -8 7 -9 -13 -8 -14 -17
16 -16 17 16 17 17 16 8 -14 9 -13 8 7 7 8 -14 10 -15 9 15 9 14 10 -7 8 -8 7
-9 -13 -8 -14 -17 16 -16 17 16 17 17 16 8 -14 9 -13 8 7 7 8 -14 10 -15 9 15
9 14 10 -7 8 -8 7 -9 -13 -8 -14 -17 16 -16 17 16 17 17 16 8 -14 9 -13 8 7 7
8 -14 10 -15 9 15 9 14 10 -7 8 -8 7 -9 -13 -8 -14 -17 16 -16 17 16 17 17 16
8 -14 9 -13 8 7 7 8 -14 10 -15 9 15 9 14 10 -7 8 -8 7 -9 -14 -9 -14 -20 23
-21 24 -21 -24 -20 -23 -9 14 -9 14 -8 -7 -7 -8 14 -10 15 -9 -15 -9 -14 -10
7 -8 8 -7 9 13 8 14 17 -16 16 -17 -16 -17 -17 -16 -8 14 -9 13 -8 -7 -7 -8
14 -10 15 -9 -15 -9 -14 -10 7 -8 8 -7 9 13 8 14 17 -16 16 -17 -16 -17 -17
-16 -8 14 -9 13 -8 -7 -7 -8 14 -10 15 -9 -15 -9 -14 -10 7 -8 8 -7 9 13 8 14
17 -16 16 -17 -16 -17 -17 -16 -8 14 -9 13 -8 -7 -7 -8 14 -10 15 -9 -15 -9
-14 -10 7 -8 8 -7 9 13 8 14 17 -16 16 -17 -16 -17 -17 -16 -8 14 -9 13 -8 -7
-7 -8 14 -10 15 -9 -15 -9 -14 -10 7 -8 8 -7 9 13 8 14 17 -16 16 -17 -16 -17
-17 -16 -8 14 -9 13 -8 -7 -7 -8 14 -10 15 -9 -15 -9 -14 -10 7 -8 8 -7 9 13
8 14 17 -16 16 -17 -16 -17 -17 -16 -8 14 -9 13 -8 -7 -7 -8 14 -10 15 -9 -15
-9 -14 -10 7 -8 8 -7 9 13 8 14 17 -16 16 -17 -16 -17 -17 -16 -8 14 -9 13 -8
-7 -7 -8 14 -10 15 -9 -15 -9 -14 -10 7 -8 8 -7 9 13 8 14 17 -16 16 -17 -16
-17 -17 -16 -8 14 -9 13 -8 -7 -7 -8 13 -9 14 -8 -16 -16 -16 -16 -5 0 -6 0 0
30 0 30 -20 0 -20 0 0 20 0 20 9 0 9 0 5 -12 4 -13 9 8 8 8 -14 10 -15 9 15 9
14 10 -7 8 -8 7 -9 -13 -8 -14 -17 16 -16 17 16 17 17 16 8 -14 9 -13 8 7 7 8
-14 10 -15 9 15 9 14 10 -7 8 -8 7 -9 -13 -8 -14 -17 16 -16 17 16 17 17 16 8
-14 9 -13 8 7 7 8 -14 10 -15 9 15 9 14 10 -7 8 -8 7 -9 -13 -8 -14 -17 16
-16 17 16 17 17 16 8 -14 9 -13 8 7 7 8 -14 10 -15 9 15 9 14 10 -7 8 -8 7 -9
-13 -8 -14 -17 16 -16 17 16 17 17 16 8 -14 9 -13 8 7 7 8 -14 10 -15 9 15 9
14 10 -7 8 -8 7 -9 -13 -8 -14 -17 16 -16 17 16 17 17 16 8 -14 9 -13 8 7 7 8
-14 10 -15 9 15 9 14 10 -7 8 -8 7 -9 -13 -8 -14 -17 16 -16 17 16 17 17 16 8
-14 9 -13 8 7 7 8 -14 10 -15 9 15 9 14 10 -7 8 -8 7 -9 -13 -8 -14 -17 16
-16 17 16 17 17 16 8 -14 9 -13 8 7 7 8 -14 10 -15 9 15 9 14 10 -7 8 -8 7
-10 -14 -9 -15 -9 15 -10 14 -8 -7 -7 -8 13 -9 14 -8 -17 -17 -17 -17 -19 22
-19 22 -17 -16 -16 -17 6 -7 7 -6 9 13 8 14 17 -16 16 -17 -16 -17 -17 -16 -8
14 -9 13 -8 -7 -7 -8 14 -10 15 -9 -15 -9 -14 -10 7 -8 8 -7 9 13 8 14 17 -16
16 -17 -16 -17 -17 -16 -8 14 -9 13 -8 -7 -7 -8 14 -10 15 -9 -15 -9 -14 -10
7 -8 8 -7 9 13 8 14 17 -16 16 -17 -16 -17 -17 -16 -8 14 -9 13 -8 -7 -7 -8
14 -10 15 -9 -15 -9 -14 -10 7 -8 8 -7 9 13 8 14 17 -16 16 -17 -16 -17 -17
-16 -8 14 -9 13 -8 -7 -7 -8 14 -10 15 -9 -15 -9 -14 -10 7 -8 8 -7 9 13 8 14
17 -16 16 -17 -16 -17 -17 -16 -8 14 -9 13 -8 -7 -7 -8 14 -10 15 -9 -15 -9
-14 -10 7 -8 8 -7 9 13 8 14 17 -16 16 -17 -16 -17 -17 -16 -8 14 -9 13 -8 -7
-7 -8 14 -10 15 -9 -15 -9 -14 -10 7 -8 8 -7 9 13 8 14 17 -16 16 -17 -17 -17
-17 -18 -5 13 -4 12 -29 0 -29 0 0 9 0 9 13 5 12 5 -15 11 -15 11 15 9 14 10
-7 8 -8 7 -9 -13 -8 -14 -17 16 -16 17 16 17 17 16 8 -14 9 -13 8 7 7 8 -14
10 -15 9 15 9 14 10 -7 8 -8 7 -9 -13 -8 -14 -17 16 -16 17 16 17 17 16 8 -14
9 -13 8 7 7 8 -14 10 -15 9 15 9 14 10 -7 8 -8 7 -9 -13 -8 -14 -17 16 -16 17
16 17 17 16 8 -14 9 -13 8 7 7 8 -14 10 -15 9 15 9 14 10 -7 8 -8 7 -9 -13 -8
-14 -17 16 -16 17 16 17 17 16 8 -14 9 -13 8 7 7 8 -14 10 -15 9 15 9 14 10
-7 8 -8 7 -9 -13 -8 -14 -17 16 -16 17 16 17 17 16 8 -14 9 -13 8 7 7 8 -14
10 -15 9 15 9 14 10 -7 8 -8 7 -10 -14 -9 -15 -9 15 -10 14 -8 -7 -7 -8 13 -9
14 -8 -17 -18 -18 -17 -8 14 -9 13 -8 -7 -7 -8 13 -9 14 -8 -16 -17 -17 -16
-15 15 -16 16 57 57 58 57 4 -12 4 -12 9 0 9 0 0 20 0 20 19 0 19 0 5 13 5 12
11 -15 10 -14 19 22 19 22 27 0 26 0 0 10 0 10 9 0 9 0 5 -12z m267 -28 l14
-20 24 0 23 0 59 -60 59 -60 15 0 16 0 0 -19 0 -19 13 -6 12 -6 -12 -6 -13 -6
0 -9 0 -9 20 0 20 0 0 -19 0 -19 13 -5 12 -5 -15 -11 -14 -10 22 -19 22 -19 0
-27 0 -26 -6 0 -5 0 -16 16 -16 16 14 8 13 9 -7 8 -8 7 -10 -14 -9 -15 -9 15
-10 14 -8 -7 -7 -8 14 -10 15 -9 -15 -9 -14 -10 7 -8 8 -7 9 13 8 14 19 -18
18 -18 -13 -5 -12 -4 0 -19 0 -19 -10 0 -10 0 0 20 0 20 -30 0 -30 0 0 9 0 9
13 5 12 5 -15 11 -15 11 15 9 14 10 -7 8 -8 7 -9 -13 -8 -14 -17 16 -16 17 16
17 17 16 8 -14 9 -13 8 7 7 8 -14 10 -15 9 15 9 14 10 -7 8 -8 7 -9 -13 -8
-14 -17 16 -16 17 16 17 17 16 8 -14 9 -13 8 7 7 8 -14 10 -15 9 15 9 14 10
-7 8 -8 7 -9 -13 -8 -14 -18 17 -17 18 14 8 13 9 -7 8 -8 7 -9 -13 -8 -14 -18
17 -17 18 14 8 13 9 -7 8 -8 7 -10 -14 -9 -15 -9 15 -10 14 -8 -7 -7 -8 14
-10 15 -9 -15 -9 -14 -10 7 -8 8 -7 9 13 8 14 17 -16 16 -17 -16 -17 -17 -16
-8 14 -9 13 -8 -7 -7 -8 14 -10 15 -9 -15 -9 -14 -10 7 -8 8 -7 9 13 8 14 17
-16 16 -17 -16 -17 -17 -16 -8 14 -9 13 -8 -7 -7 -8 14 -10 15 -9 -15 -9 -14
-10 7 -8 8 -7 9 13 8 14 17 -16 16 -17 -16 -17 -17 -16 -8 14 -9 13 -8 -7 -7
-8 14 -10 15 -9 -15 -9 -14 -10 8 -8 9 -8 4 13 5 12 9 0 9 0 0 -20 0 -20 -20
0 -20 0 0 -16 0 -15 -14 -15 -15 -14 -15 0 -16 0 0 6 0 7 22 18 21 19 -7 7 -7
7 -9 -13 -8 -14 -17 16 -16 17 16 17 17 16 8 -14 9 -13 8 7 7 8 -14 10 -15 9
15 9 14 10 -7 8 -8 7 -9 -13 -8 -14 -17 16 -16 17 16 17 17 16 8 -14 9 -13 8
7 7 8 -14 10 -15 9 15 9 14 10 -7 8 -8 7 -9 -13 -8 -14 -17 16 -16 17 16 17
17 16 8 -14 9 -13 8 7 7 8 -14 10 -15 9 15 9 14 10 -7 8 -8 7 -9 -13 -8 -14
-17 16 -16 17 16 17 17 16 8 -14 9 -13 8 7 7 8 -14 10 -15 9 15 9 14 10 -7 8
-8 7 -9 -13 -8 -14 -17 16 -16 17 16 17 17 16 8 -14 9 -13 7 6 6 7 -27 26 -26
27 -7 -6 -6 -7 13 -9 14 -8 -16 -17 -17 -16 -16 15 -15 16 23 24 23 25 5 0 6
1 14 -20z m-184 -15 l15 -15 -15 -16 -16 -15 -16 15 -15 16 13 14 13 15 3 1 3
0 15 -15z m-160 -80 l15 -15 -15 -16 -16 -15 -16 15 -15 16 13 14 13 15 3 1 3
0 15 -15z m160 0 l15 -15 -15 -16 -16 -15 -16 15 -15 16 13 14 13 15 3 1 3 0
15 -15z m160 0 l15 -15 -15 -16 -16 -15 -16 15 -15 16 13 14 13 15 3 1 3 0 15
-15z m-480 -80 l15 -15 -15 -16 -16 -15 -16 15 -15 16 13 14 13 15 3 1 3 0 15
-15z m160 0 l15 -15 -15 -16 -16 -15 -16 15 -15 16 13 14 13 15 3 1 3 0 15
-15z m160 0 l15 -15 -15 -16 -16 -15 -16 15 -15 16 13 14 13 15 3 1 3 0 15
-15z m160 0 l15 -15 -15 -16 -16 -15 -16 15 -15 16 13 14 13 15 3 1 3 0 15
-15z m160 0 l15 -15 -15 -16 -16 -15 -16 15 -15 16 13 14 13 15 3 1 3 0 15
-15z m-670 -50 l45 -45 -16 -16 -15 -15 -17 16 -16 17 14 8 13 9 -7 8 -8 7
-10 -14 -9 -15 -9 15 -10 14 -8 -7 -7 -8 14 -10 15 -9 -15 -9 -14 -10 7 -8 8
-7 9 13 8 14 17 -16 16 -17 -16 -17 -17 -16 -8 14 -9 13 -8 -7 -7 -8 14 -10
15 -9 -15 -9 -14 -10 7 -8 8 -7 9 13 8 14 17 -16 16 -17 -16 -17 -17 -16 -8
14 -9 13 -8 -7 -7 -8 14 -10 15 -9 -15 -9 -14 -10 7 -8 8 -7 9 13 8 14 17 -16
16 -17 -16 -17 -17 -16 -8 14 -9 13 -7 -7 -7 -7 21 -19 22 -18 0 -17 0 -16 -5
0 -6 0 -24 25 -25 24 0 16 0 15 -20 0 -20 0 0 19 0 19 -12 5 -13 5 15 11 15
11 -15 10 -15 10 15 10 15 10 -15 11 -15 11 13 5 12 5 0 25 0 26 22 19 22 19
-14 10 -15 11 13 5 12 5 0 19 0 19 15 0 16 0 45 -45z m190 -30 l15 -15 -15
-16 -16 -15 -16 15 -15 16 13 14 13 15 3 1 3 0 15 -15z m160 0 l15 -15 -15
-16 -16 -15 -16 15 -15 16 13 14 13 15 3 1 3 0 15 -15z m160 0 l15 -15 -15
-16 -16 -15 -16 15 -15 16 13 14 13 15 3 1 3 0 15 -15z m160 0 l15 -15 -15
-16 -16 -15 -16 15 -15 16 13 14 13 15 3 1 3 0 15 -15z m-640 -80 l15 -15 -15
-16 -16 -15 -16 15 -15 16 13 14 13 15 3 1 3 0 15 -15z m160 0 l15 -15 -15
-16 -16 -15 -16 15 -15 16 13 14 13 15 3 1 3 0 15 -15z m160 0 l15 -15 -15
-16 -16 -15 -16 15 -15 16 13 14 13 15 3 1 3 0 15 -15z m160 0 l15 -15 -15
-16 -16 -15 -16 15 -15 16 13 14 13 15 3 1 3 0 15 -15z m171 -11 l25 -25 -6
-7 -7 -6 -10 14 -9 15 -9 -14 -9 -14 -17 16 -16 17 13 14 13 15 3 1 3 0 26
-26z m283 -354 l0 -360 -190 0 -190 0 0 25 0 26 -25 24 -24 25 -26 0 -25 0 0
16 0 15 -60 59 -60 59 0 35 0 36 10 0 10 0 0 16 0 15 16 16 16 16 8 -14 9 -13
7 7 7 7 -21 19 -22 18 0 17 0 16 -10 0 -10 0 0 50 0 50 10 0 10 0 0 16 0 15
14 15 15 14 41 0 41 0 16 -15 15 -16 -21 -18 -21 -18 0 -37 0 -36 10 0 10 0 0
36 0 36 30 28 30 28 0 11 0 12 25 24 24 25 36 0 35 0 0 -10 0 -10 15 0 16 0
24 -25 25 -24 0 -26 0 -25 10 0 10 0 0 29 0 29 -12 6 -13 6 13 6 12 6 0 14 0
15 25 24 24 25 16 0 15 0 0 10 0 10 40 0 40 0 0 -360z m-934 285 l15 -15 -15
-16 -16 -15 -16 15 -15 16 13 14 13 15 3 1 3 0 15 -15z m160 0 l15 -15 -15
-16 -16 -15 -16 15 -15 16 13 14 13 15 3 1 3 0 15 -15z m180 -20 l35 -36 -32
-30 -33 -31 15 -9 14 -9 -15 -10 -15 -10 15 -11 15 -11 -12 -5 -13 -5 0 -9 0
-9 20 0 20 0 0 -19 0 -19 13 -5 12 -4 -32 -30 -33 -31 0 -26 0 -26 -6 0 -5 0
-16 15 -15 15 32 30 33 31 -7 7 -7 6 -10 -14 -9 -15 -9 15 -10 14 -8 -7 -7 -8
13 -9 14 -8 -27 -27 -27 -27 -7 6 -6 7 14 10 15 9 -14 9 -14 9 38 37 37 38 9
-14 8 -13 7 6 7 7 -33 31 -33 30 23 20 23 20 -23 20 -22 19 17 17 17 17 8 -14
9 -13 8 7 7 8 -14 10 -15 9 15 9 14 10 -7 8 -8 7 -9 -13 -8 -14 -17 16 -16 17
13 14 13 15 3 1 3 0 35 -35z m140 21 l14 -15 0 -5 0 -6 -30 0 -30 0 0 5 0 6
13 14 12 14 3 1 3 0 15 -14z m-646 -76 l0 -10 15 0 16 0 24 -25 25 -24 0 -26
0 -25 8 0 8 0 14 20 14 20 38 0 38 0 0 -10 0 -10 20 0 20 0 0 -10 0 -10 20 0
20 0 0 -10 0 -10 15 0 16 0 24 -25 25 -24 0 -16 0 -15 10 0 10 0 0 -26 0 -27
-22 -18 -21 -19 8 -8 8 -7 4 13 5 12 44 0 44 0 75 -75 75 -75 0 -34 0 -34 -12
-5 -13 -4 7 -8 8 -8 19 21 18 22 22 0 22 0 15 -14 14 -15 0 -25 0 -26 -420 0
-420 0 0 275 0 276 13 14 12 14 58 1 57 0 0 -10z m177 -16 l25 -25 -6 -7 -7
-6 -10 14 -9 15 -9 -14 -9 -14 -17 16 -16 17 13 14 13 15 3 1 3 0 26 -26z
m149 11 l15 -15 -15 -16 -16 -15 -16 15 -15 16 13 14 13 15 3 1 3 0 15 -15z
m0 -79 l14 -15 0 -5 0 -6 -30 0 -30 0 0 5 0 6 13 14 12 14 3 1 3 0 15 -14z"/>
<path d="M880 1030 l0 -10 10 0 10 0 0 10 0 10 -10 0 -10 0 0 -10z"/>
<path d="M1040 831 l0 -9 13 -5 12 -5 -15 -11 -14 -10 6 -7 7 -6 16 16 16 16
-15 15 -15 15 -5 0 -6 0 0 -9z"/>
<path d="M240 870 l0 -10 10 0 10 0 0 10 0 10 -10 0 -10 0 0 -10z"/>
<path d="M200 790 l0 -10 10 0 10 0 0 10 0 10 -10 0 -10 0 0 -10z"/>
<path d="M192 744 l-13 -14 16 -16 16 -16 7 6 6 7 -14 10 -15 11 13 5 12 5 0
9 0 9 -7 0 -8 -1 -13 -15z"/>
<path d="M192 664 l-13 -14 16 -16 16 -16 7 6 6 7 -14 10 -15 11 13 5 12 5 0
9 0 9 -7 0 -8 -1 -13 -15z"/>
<path d="M1180 330 l0 -10 10 0 10 0 0 -50 0 -50 -10 0 -10 0 0 -15 0 -16 -35
-34 -34 -35 -45 0 -44 0 -5 13 -4 12 -8 -7 -7 -7 15 -16 16 -15 41 0 41 0 44
45 45 44 0 16 0 15 10 0 10 0 0 46 0 45 -14 15 -15 14 -5 0 -6 0 0 -10z"/>
</g>
</svg>
