<?xml version="1.0" standalone="no"?>
<!DOCTYPE svg PUBLIC "-//W3C//DTD SVG 20010904//EN"
 "http://www.w3.org/TR/2001/REC-SVG-20010904/DTD/svg10.dtd">
<svg version="1.0" xmlns="http://www.w3.org/2000/svg"
 width="468pt" height="468pt" viewBox="0 0 468 468"
 preserveAspectRatio="xMidYMid meet">
<metadata>
Created by potrace 1.8, written by Peter Selinger 2001-2007
</metadata>
<g transform="translate(0,468) scale(0.365625,-0.365625)"
fill="#000000" stroke="none">
<path d="M760 1100 l0 -20 -20 0 -20 0 0 -20 0 -20 -20 0 -20 0 0 -40 0 -40
-60 0 -60 0 0 20 0 20 -40 0 -40 0 0 -20 0 -20 -40 0 -40 0 0 -20 0 -20 -20 0
-20 0 0 -20 0 -20 -20 0 -20 0 0 -20 0 -20 -20 0 -20 0 0 -20 0 -20 -20 0 -20
0 0 -20 0 -20 -20 0 -20 0 0 -20 0 -20 -20 0 -20 0 0 -80 0 -80 -20 0 -20 0 0
-60 0 -60 -20 0 -20 0 0 -60 0 -60 -20 0 -20 0 0 -60 0 -60 -20 0 -20 0 0 -20
0 -20 60 0 60 0 0 20 0 20 20 0 20 0 0 20 0 20 20 0 20 0 0 20 0 20 20 0 20 0
0 20 0 20 20 0 20 0 0 -20 0 -20 340 0 340 0 0 20 0 20 20 0 20 0 0 -40 0 -40
20 0 20 0 0 -20 0 -20 120 0 120 0 0 280 0 280 -200 0 -200 0 0 20 0 20 -40 0
-40 0 0 20 0 20 -20 0 -20 0 0 40 0 40 20 0 20 0 0 20 0 20 20 0 20 0 0 20 0
20 20 0 20 0 0 40 0 40 -20 0 -20 0 0 20 0 20 -40 0 -40 0 0 -20z m-200 -160
l0 -20 20 0 20 0 0 -20 0 -20 -20 0 -20 0 0 -20 0 -20 -20 0 -20 0 0 -20 0
-20 -20 0 -20 0 0 -20 0 -20 -20 0 -20 0 0 -20 0 -20 -20 0 -20 0 0 -40 0 -40
-20 0 -20 0 0 -20 0 -20 -20 0 -20 0 0 -40 0 -40 -20 0 -20 0 0 -40 0 -40 20
0 20 0 0 20 0 20 160 0 160 0 0 20 0 20 -40 0 -40 0 0 20 0 20 -20 0 -20 0 0
-20 0 -20 -20 0 -20 0 0 40 0 40 20 0 20 0 0 20 0 20 20 0 20 0 0 -40 0 -40
20 0 20 0 0 40 0 40 20 0 20 0 0 20 0 20 -20 0 -20 0 0 20 0 20 20 0 20 0 0
20 0 20 20 0 20 0 0 20 0 20 60 0 60 0 0 -20 0 -20 40 0 40 0 0 -20 0 -20 60
0 60 0 0 -20 0 -20 20 0 20 0 0 -160 0 -160 -40 0 -40 0 0 -20 0 -20 -280 0
-280 0 0 20 0 20 -20 0 -20 0 0 -20 0 -20 -40 0 -40 0 0 60 0 60 -20 0 -20 0
0 -20 0 -20 -20 0 -20 0 0 160 0 160 20 0 20 0 0 20 0 20 20 0 20 0 0 20 0 20
20 0 20 0 0 20 0 20 20 0 20 0 0 20 0 20 20 0 20 0 0 20 0 20 40 0 40 0 0 20
0 20 40 0 40 0 0 -20z m680 -440 l0 -220 -80 0 -80 0 0 220 0 220 80 0 80 0 0
-220z m-1080 -80 l0 -20 -20 0 -20 0 0 20 0 20 20 0 20 0 0 -20z m-40 -120 l0
-20 20 0 20 0 0 -20 0 -20 -20 0 -20 0 0 -20 0 -20 -20 0 -20 0 0 60 0 60 20
0 20 0 0 -20z"/>
<path d="M640 540 l0 -20 20 0 20 0 0 20 0 20 -20 0 -20 0 0 -20z"/>
<path d="M360 420 l0 -20 20 0 20 0 0 -20 0 -20 20 0 20 0 0 20 0 20 -20 0
-20 0 0 20 0 20 -20 0 -20 0 0 -20z"/>
</g>
</svg>
