<?xml version="1.0" standalone="no"?>
<!DOCTYPE svg PUBLIC "-//W3C//DTD SVG 20010904//EN"
 "http://www.w3.org/TR/2001/REC-SVG-20010904/DTD/svg10.dtd">
<svg version="1.0" xmlns="http://www.w3.org/2000/svg"
 width="468pt" height="468pt" viewBox="0 0 468 468"
 preserveAspectRatio="xMidYMid meet">
<metadata>
Created by potrace 1.8, written by Peter Selinger 2001-2007
</metadata>
<g transform="translate(0,468) scale(0.365625,-0.365625)"
fill="#000000" stroke="none">
<path d="M460 1250 l0 -10 -20 0 -20 0 0 -10 0 -10 -15 0 -15 0 -55 -55 -55
-55 0 -15 0 -15 -10 0 -10 0 0 -30 0 -30 -10 0 -10 0 0 -80 0 -80 10 0 10 0 0
-30 0 -30 10 0 10 0 0 -20 0 -20 10 0 10 0 0 -10 0 -10 -16 0 -16 0 -28 -30
-28 -30 -36 0 -36 0 0 -10 0 -10 -15 0 -16 0 -34 -35 -35 -34 0 -16 0 -15 -10
0 -10 0 0 -50 0 -50 10 0 10 0 0 -20 0 -20 10 0 10 0 0 -40 0 -40 10 0 10 0 0
-20 0 -20 18 0 18 0 14 -20 14 -20 58 0 58 0 0 -10 0 -10 20 0 20 0 0 -10 0
-10 60 0 60 0 0 10 0 10 18 0 18 0 14 20 14 20 36 0 36 0 14 20 14 20 18 0 18
0 0 20 0 20 10 0 10 0 0 30 0 30 10 0 10 0 0 60 0 60 -10 0 -10 0 0 20 0 20
-10 0 -10 0 0 16 0 15 14 15 15 14 21 0 21 0 15 14 14 15 0 31 0 31 25 24 24
25 31 0 31 0 15 14 14 15 0 25 0 26 10 0 10 0 0 90 0 90 -10 0 -10 0 0 20 0
20 -10 0 -10 0 0 15 0 15 -55 55 -55 55 -15 0 -15 0 0 10 0 10 -30 0 -30 0 0
10 0 10 -90 0 -90 0 0 -10z m180 -60 l0 -10 20 0 20 0 0 10 0 10 25 0 26 0 44
-45 45 -44 0 -16 0 -15 10 0 10 0 0 -20 0 -20 10 0 10 0 0 -80 0 -80 -20 0
-20 0 0 -10 0 -10 -10 0 -10 0 0 30 0 30 -39 0 -39 0 -4 -12 -5 -13 -16 17
-17 17 0 5 0 6 20 0 20 0 0 10 0 10 -36 0 -35 0 -15 14 -14 15 0 15 0 16 20 0
20 0 0 -10 0 -10 10 0 10 0 0 50 0 50 10 0 10 0 0 16 0 15 -14 15 -15 14 -14
0 -15 0 -5 13 -5 12 -12 -15 -12 -15 -5 13 -5 12 -19 0 -19 0 0 10 0 10 40 0
40 0 0 -10z m-260 -20 l0 -10 20 0 20 0 0 10 0 10 10 0 10 0 0 -20 0 -20 10 0
10 0 0 -30 0 -30 -10 0 -10 0 0 -20 0 -20 10 0 10 0 0 -20 0 -20 10 0 10 0 0
-16 0 -15 14 -15 15 -14 15 0 16 0 0 6 0 7 -22 18 -21 19 6 7 7 6 19 -21 18
-22 27 0 26 0 0 -26 0 -25 14 -15 15 -14 25 0 26 0 0 -8 0 -8 -20 -14 -20 -14
0 -14 0 -13 14 -15 15 -14 15 0 16 0 0 -10 0 -10 -10 0 -10 0 0 -28 0 -28 -20
-14 -20 -14 0 -18 0 -18 -30 0 -30 0 0 10 0 10 -20 0 -20 0 0 10 0 10 -26 0
-26 0 -28 30 -28 30 -16 0 -16 0 0 10 0 10 -50 0 -50 0 0 20 0 20 -10 0 -10 0
0 30 0 30 -10 0 -10 0 0 80 0 80 10 0 10 0 0 30 0 30 10 0 10 0 0 15 0 16 33
34 32 34 8 0 7 1 0 -10z m20 -440 l0 -10 16 0 15 0 16 -15 15 -16 -23 -19 -22
-20 8 -8 8 -7 4 13 5 12 49 0 49 0 0 -10 0 -10 16 0 15 0 15 -14 14 -15 0 -15
0 -16 10 0 10 0 0 -20 0 -20 10 0 10 0 0 -56 0 -57 -22 -19 -22 -19 13 -9 14
-8 -26 -26 -26 -26 -16 0 -15 0 0 -10 0 -10 -50 0 -50 0 0 10 0 10 -20 0 -20
0 0 -8 0 -8 20 -14 20 -14 0 -8 0 -8 -20 0 -20 0 0 -10 0 -10 -45 0 -46 0 -24
25 -25 24 0 16 0 15 -8 0 -8 0 -14 -20 -14 -20 -34 0 -33 0 -24 25 -25 24 0
15 0 14 -12 5 -13 5 15 11 14 10 -22 19 -22 19 0 17 0 16 -10 0 -10 0 0 50 0
50 10 0 10 0 0 15 0 16 25 24 24 25 16 0 15 0 0 10 0 10 49 0 49 0 5 -12 4
-13 9 9 9 9 -12 4 -13 5 0 15 0 14 14 15 15 14 15 0 16 0 0 10 0 10 50 0 50 0
0 -10z"/>
<path d="M700 1030 l0 -10 10 0 10 0 0 10 0 10 -10 0 -10 0 0 -10z"/>
<path d="M280 890 l0 -10 20 0 20 0 0 10 0 10 -20 0 -20 0 0 -10z"/>
<path d="M400 491 l0 -29 12 -4 12 -4 -37 -37 -36 -37 -16 0 -15 0 0 -10 0
-10 -30 0 -30 0 0 10 0 10 -15 0 -16 0 -34 35 -35 34 0 16 0 15 -10 0 -10 0 0
-25 0 -26 25 -24 24 -25 16 0 15 0 0 -10 0 -10 -40 0 -40 0 0 10 0 10 -20 0
-20 0 0 -10 0 -10 20 0 20 0 0 -10 0 -10 39 0 39 0 6 13 6 12 6 -12 6 -13 47
0 47 0 14 20 14 20 18 0 18 0 0 16 0 15 14 15 15 14 15 0 16 0 0 -10 0 -10 40
0 40 0 0 10 0 10 16 0 15 0 15 14 14 15 0 25 0 26 -10 0 -10 0 0 -30 0 -30
-20 0 -20 0 0 -10 0 -10 -35 0 -36 0 -24 25 -25 24 0 16 0 15 -10 0 -10 0 0
-29z"/>
<path d="M560 370 l0 -10 20 0 20 0 0 10 0 10 -20 0 -20 0 0 -10z"/>
<path d="M753 745 l-13 -14 0 -141 0 -141 14 -15 15 -14 181 0 181 0 15 14 14
15 0 141 0 141 -14 15 -15 14 -183 0 -183 -1 -12 -14z m387 -145 l0 -140 -190
0 -190 0 0 140 0 140 190 0 190 0 0 -140z"/>
<path d="M780 614 l0 -105 14 -15 15 -14 141 0 141 0 15 14 14 15 0 91 0 91
-14 15 -15 14 -155 0 -156 0 0 -106z m63 74 l5 -13 11 15 11 15 10 -15 10 -15
10 15 10 15 10 -15 10 -15 10 15 10 15 10 -15 10 -15 10 15 10 15 10 -15 10
-15 10 15 10 15 10 -15 10 -15 9 14 9 14 18 -17 17 -18 -14 -9 -14 -9 15 -10
15 -10 -15 -10 -15 -10 15 -10 15 -10 -15 -10 -15 -10 15 -10 15 -10 -15 -10
-15 -10 15 -9 14 -10 -7 -8 -8 -7 -10 14 -9 15 -10 -15 -10 -15 -10 15 -10 15
-10 -15 -10 -15 -10 15 -10 15 -10 -15 -10 -15 -10 15 -10 15 -10 -15 -10 -15
-10 15 -10 15 -10 -15 -10 -15 -10 15 -10 15 -10 -15 -10 -15 -10 15 -10 15
-9 -15 -10 -14 -8 7 -7 8 14 10 15 9 -15 10 -15 10 15 10 15 10 -15 10 -15 10
15 10 15 10 -15 10 -15 10 15 10 15 10 -14 9 -14 9 14 16 14 15 7 1 6 0 5 -12z"/>
<path d="M820 671 l0 -9 13 -5 12 -5 -15 -11 -15 -11 15 -10 15 -10 -15 -10
-15 -10 15 -10 15 -10 -14 -9 -14 -9 17 -18 18 -17 9 14 9 14 10 -15 10 -15
10 15 10 15 10 -15 10 -15 10 15 10 15 10 -15 10 -15 10 15 10 15 10 -15 10
-15 10 15 10 15 9 -14 9 -14 18 17 17 18 -14 9 -14 9 15 9 14 10 -7 8 -8 7
-10 -14 -9 -15 -10 15 -10 15 -9 -14 -9 -14 -18 17 -17 18 14 9 14 9 -15 10
-15 10 15 9 14 10 -7 8 -8 7 -10 -14 -9 -15 -10 15 -10 15 -10 -15 -10 -15
-10 15 -10 15 -10 -15 -10 -15 -10 15 -10 15 -11 -15 -11 -15 -5 13 -5 12 -9
0 -9 0 0 -9z m63 -23 l5 -13 11 15 11 15 10 -15 10 -15 9 14 9 14 18 -17 17
-18 -13 -8 -13 -8 28 -27 27 -28 8 13 8 13 17 -17 17 -17 -6 -7 -7 -6 -10 14
-9 15 -10 -15 -10 -15 -10 15 -10 15 -10 -15 -10 -15 -10 15 -10 15 -10 -15
-10 -15 -10 15 -10 15 -10 -15 -10 -15 -10 15 -10 15 -9 -15 -10 -14 -8 7 -7
8 14 10 15 9 -15 10 -15 10 15 10 15 10 -14 9 -14 9 14 16 14 15 7 1 6 0 5
-12z"/>
<path d="M860 631 l0 -9 13 -5 12 -5 -14 -10 -14 -10 17 -18 18 -17 9 14 9 14
10 -15 10 -15 10 15 10 15 9 -15 10 -14 7 7 7 7 -24 20 -23 21 14 9 14 9 -7 8
-8 7 -10 -14 -9 -15 -10 15 -10 15 -11 -15 -11 -15 -5 13 -5 12 -9 0 -9 0 0
-9z m67 -26 l15 -16 -6 -7 -7 -6 -10 14 -9 15 -9 -15 -10 -14 -6 6 -7 7 13 15
14 15 3 1 3 0 16 -15z"/>
<path d="M1020 670 l0 -10 10 0 10 0 0 10 0 10 -10 0 -10 0 0 -10z"/>
<path d="M1060 670 l0 -10 10 0 10 0 0 10 0 10 -10 0 -10 0 0 -10z"/>
<path d="M1060 630 l0 -10 10 0 10 0 0 10 0 10 -10 0 -10 0 0 -10z"/>
<path d="M673 365 l-33 -34 0 -21 0 -21 14 -15 15 -14 281 0 281 0 15 14 14
15 0 21 0 21 -35 34 -34 35 -243 -1 -243 0 -32 -34z m542 -10 l25 -24 0 -16 0
-15 -290 0 -290 0 0 15 0 16 23 24 22 24 243 0 243 1 24 -25z"/>
<path d="M711 344 l-13 -15 7 -7 6 -6 10 14 9 15 10 -15 10 -15 10 15 10 15
10 -15 10 -15 10 15 10 15 10 -15 10 -15 10 15 10 15 10 -15 10 -15 10 15 10
15 10 -15 10 -15 10 15 10 15 10 -15 10 -15 10 15 10 15 10 -15 10 -15 10 15
10 15 10 -15 10 -15 10 15 10 15 10 -15 10 -15 10 15 10 15 10 -15 10 -15 10
15 10 15 10 -15 10 -15 10 15 10 15 9 -15 10 -14 7 6 6 7 -17 17 -17 17 -9
-14 -9 -14 -10 15 -10 15 -10 -15 -10 -15 -10 15 -10 15 -10 -15 -10 -15 -10
15 -10 15 -10 -15 -10 -15 -10 15 -10 15 -10 -15 -10 -15 -10 15 -10 15 -10
-15 -10 -15 -10 15 -10 15 -10 -15 -10 -15 -10 15 -10 15 -10 -15 -10 -15 -10
15 -10 15 -10 -15 -10 -15 -10 15 -10 15 -10 -15 -10 -15 -10 15 -10 15 -11
-15 -11 -15 -5 13 -5 12 -6 0 -7 -1 -14 -15z"/>
<path d="M0 100 l0 -100 640 0 640 0 0 100 0 100 -640 0 -640 0 0 -100z"/>
</g>
</svg>
