<?xml version="1.0" standalone="no"?>
<!DOCTYPE svg PUBLIC "-//W3C//DTD SVG 20010904//EN"
 "http://www.w3.org/TR/2001/REC-SVG-20010904/DTD/svg10.dtd">
<svg version="1.0" xmlns="http://www.w3.org/2000/svg"
 width="468pt" height="468pt" viewBox="0 0 468 468"
 preserveAspectRatio="xMidYMid meet">
<metadata>
Created by potrace 1.8, written by Peter Selinger 2001-2007
</metadata>
<g transform="translate(0,468) scale(0.365625,-0.365625)"
fill="#000000" stroke="none">
<path d="M800 1180 l0 -20 -20 0 -20 0 0 -20 0 -20 -20 0 -20 0 0 -20 0 -20
-20 0 -20 0 0 -20 0 -20 -20 0 -20 0 0 -20 0 -20 -20 0 -20 0 0 -20 0 -20 -20
0 -20 0 0 -40 0 -40 -20 0 -20 0 0 20 0 20 -20 0 -20 0 0 20 0 20 -60 0 -60 0
0 -20 0 -20 -60 0 -60 0 0 -20 0 -20 -60 0 -60 0 0 -20 0 -20 -60 0 -60 0 0
-260 0 -260 20 0 20 0 0 -20 0 -20 20 0 20 0 0 -20 0 -20 20 0 20 0 0 -20 0
-20 20 0 20 0 0 -20 0 -20 20 0 20 0 0 -20 0 -20 20 0 20 0 0 -20 0 -20 60 0
60 0 0 20 0 20 60 0 60 0 0 20 0 20 60 0 60 0 0 20 0 20 60 0 60 0 0 100 0
100 40 0 40 0 0 -20 0 -20 60 0 60 0 0 -20 0 -20 60 0 60 0 0 20 0 20 20 0 20
0 0 20 0 20 20 0 20 0 0 20 0 20 20 0 20 0 0 20 0 20 20 0 20 0 0 20 0 20 20
0 20 0 0 20 0 20 20 0 20 0 0 260 0 260 -60 0 -60 0 0 20 0 20 -60 0 -60 0 0
20 0 20 -60 0 -60 0 0 20 0 20 -60 0 -60 0 0 -20z m120 -40 l0 -20 60 0 60 0
0 -20 0 -20 60 0 60 0 0 -20 0 -20 20 0 20 0 0 -20 0 -20 20 0 20 0 0 -220 0
-220 -20 0 -20 0 0 -20 0 -20 -20 0 -20 0 0 -20 0 -20 -20 0 -20 0 0 -20 0
-20 -20 0 -20 0 0 -20 0 -20 -20 0 -20 0 0 220 0 220 -60 0 -60 0 0 -20 0 -20
40 0 40 0 0 -220 0 -220 -40 0 -40 0 0 20 0 20 -60 0 -60 0 0 20 0 20 -40 0
-40 0 0 60 0 60 20 0 20 0 0 20 0 20 -20 0 -20 0 0 80 0 80 20 0 20 0 0 20 0
20 -20 0 -20 0 0 20 0 20 -20 0 -20 0 0 -20 0 -20 -40 0 -40 0 0 -20 0 -20 20
0 20 0 0 -20 0 -20 -20 0 -20 0 0 -20 0 -20 40 0 40 0 0 -220 0 -220 -40 0
-40 0 0 -20 0 -20 -60 0 -60 0 0 -20 0 -20 -60 0 -60 0 0 -20 0 -20 -40 0 -40
0 0 220 0 220 40 0 40 0 0 20 0 20 -60 0 -60 0 0 -220 0 -220 -20 0 -20 0 0
20 0 20 -20 0 -20 0 0 20 0 20 -20 0 -20 0 0 20 0 20 -20 0 -20 0 0 20 0 20
-20 0 -20 0 0 220 0 220 20 0 20 0 0 20 0 20 20 0 20 0 0 20 0 20 60 0 60 0 0
20 0 20 60 0 60 0 0 20 0 20 60 0 60 0 0 -20 0 -20 20 0 20 0 0 -20 0 -20 20
0 20 0 0 -20 0 -20 20 0 20 0 0 60 0 60 40 0 40 0 0 20 0 20 -20 0 -20 0 0 20
0 20 20 0 20 0 0 20 0 20 20 0 20 0 0 20 0 20 20 0 20 0 0 20 0 20 20 0 20 0
0 20 0 20 60 0 60 0 0 -20z"/>
<path d="M840 1100 l0 -20 -20 0 -20 0 0 -20 0 -20 20 0 20 0 0 -20 0 -20 20
0 20 0 0 20 0 20 20 0 20 0 0 20 0 20 -20 0 -20 0 0 20 0 20 -20 0 -20 0 0
-20z"/>
<path d="M960 980 l0 -20 -20 0 -20 0 0 -20 0 -20 20 0 20 0 0 -20 0 -20 20 0
20 0 0 20 0 20 20 0 20 0 0 20 0 20 -20 0 -20 0 0 20 0 20 -20 0 -20 0 0 -20z"/>
<path d="M1160 980 l0 -20 -20 0 -20 0 0 -20 0 -20 -20 0 -20 0 0 -20 0 -20
-20 0 -20 0 0 -20 0 -20 20 0 20 0 0 20 0 20 20 0 20 0 0 20 0 20 20 0 20 0 0
20 0 20 20 0 20 0 0 20 0 20 -20 0 -20 0 0 -20z"/>
<path d="M680 900 l0 -20 60 0 60 0 0 -20 0 -20 60 0 60 0 0 20 0 20 -60 0
-60 0 0 20 0 20 -60 0 -60 0 0 -20z"/>
<path d="M320 760 l0 -40 40 0 40 0 0 40 0 40 -40 0 -40 0 0 -40z"/>
<path d="M80 740 l0 -20 20 0 20 0 0 -20 0 -20 20 0 20 0 0 -20 0 -20 20 0 20
0 0 -20 0 -20 20 0 20 0 0 20 0 20 -20 0 -20 0 0 20 0 20 -20 0 -20 0 0 20 0
20 -20 0 -20 0 0 20 0 20 -20 0 -20 0 0 -20z"/>
<path d="M880 740 l0 -20 -20 0 -20 0 0 -20 0 -20 20 0 20 0 0 -20 0 -20 20 0
20 0 0 20 0 20 20 0 20 0 0 20 0 20 -20 0 -20 0 0 20 0 20 -20 0 -20 0 0 -20z"/>
<path d="M1120 740 l0 -20 -20 0 -20 0 0 -20 0 -20 20 0 20 0 0 -20 0 -20 20
0 20 0 0 20 0 20 20 0 20 0 0 20 0 20 -20 0 -20 0 0 20 0 20 -20 0 -20 0 0
-20z"/>
<path d="M480 660 l0 -20 -60 0 -60 0 0 -20 0 -20 60 0 60 0 0 20 0 20 60 0
60 0 0 20 0 20 -60 0 -60 0 0 -20z"/>
<path d="M160 540 l0 -20 20 0 20 0 0 20 0 20 -20 0 -20 0 0 -20z"/>
<path d="M880 540 l0 -20 -20 0 -20 0 0 -20 0 -20 20 0 20 0 0 -20 0 -20 20 0
20 0 0 20 0 20 20 0 20 0 0 20 0 20 -20 0 -20 0 0 20 0 20 -20 0 -20 0 0 -20z"/>
<path d="M360 500 l0 -20 -20 0 -20 0 0 -20 0 -20 20 0 20 0 0 -20 0 -20 20 0
20 0 0 20 0 20 20 0 20 0 0 20 0 20 -20 0 -20 0 0 20 0 20 -20 0 -20 0 0 -20z"/>
<path d="M120 460 l0 -20 20 0 20 0 0 20 0 20 -20 0 -20 0 0 -20z"/>
<path d="M80 380 l0 -20 20 0 20 0 0 20 0 20 -20 0 -20 0 0 -20z"/>
<path d="M560 380 l0 -20 -20 0 -20 0 0 -20 0 -20 20 0 20 0 0 -20 0 -20 20 0
20 0 0 20 0 20 20 0 20 0 0 20 0 20 -20 0 -20 0 0 20 0 20 -20 0 -20 0 0 -20z"/>
</g>
</svg>
