<?xml version="1.0" standalone="no"?>
<!DOCTYPE svg PUBLIC "-//W3C//DTD SVG 20010904//EN"
 "http://www.w3.org/TR/2001/REC-SVG-20010904/DTD/svg10.dtd">
<svg version="1.0" xmlns="http://www.w3.org/2000/svg"
 width="468pt" height="468pt" viewBox="0 0 468 468"
 preserveAspectRatio="xMidYMid meet">
<metadata>
Created by potrace 1.8, written by Peter Selinger 2001-2007
</metadata>
<g transform="translate(0,468) scale(0.365625,-0.365625)"
fill="#000000" stroke="none">
<path d="M40 640 l0 -600 600 0 600 0 0 600 0 600 -600 0 -600 0 0 -600z
m1160 380 l0 -180 -340 0 -340 0 0 40 0 40 -20 0 -20 0 0 60 0 60 -20 0 -20 0
0 20 0 20 -20 0 -20 0 0 -20 0 -20 -20 0 -20 0 0 -40 0 -40 -20 0 -20 0 0 -60
0 -60 -120 0 -120 0 0 180 0 180 560 0 560 0 0 -180z m-880 -260 l0 -40 -20 0
-20 0 0 -40 0 -40 -20 0 -20 0 0 20 0 20 -20 0 -20 0 0 20 0 20 -20 0 -20 0 0
-60 0 -60 -20 0 -20 0 0 -60 0 -60 -20 0 -20 0 0 160 0 160 120 0 120 0 0 -40z
m880 -180 l0 -220 -20 0 -20 0 0 -20 0 -20 -20 0 -20 0 0 -40 0 -40 -20 0 -20
0 0 20 0 20 -20 0 -20 0 0 40 0 40 -20 0 -20 0 0 -20 0 -20 -20 0 -20 0 0 -40
0 -40 -20 0 -20 0 0 40 0 40 -20 0 -20 0 0 20 0 20 -20 0 -20 0 0 -20 0 -20
-20 0 -20 0 0 40 0 40 -20 0 -20 0 0 -20 0 -20 -20 0 -20 0 0 -20 0 -20 -20 0
-20 0 0 60 0 60 -20 0 -20 0 0 40 0 40 -20 0 -20 0 0 40 0 40 -20 0 -20 0 0
60 0 60 -20 0 -20 0 0 40 0 40 340 0 340 0 0 -220z"/>
</g>
</svg>
