<?xml version="1.0" standalone="no"?>
<!DOCTYPE svg PUBLIC "-//W3C//DTD SVG 20010904//EN"
 "http://www.w3.org/TR/2001/REC-SVG-20010904/DTD/svg10.dtd">
<svg version="1.0" xmlns="http://www.w3.org/2000/svg"
 width="468pt" height="468pt" viewBox="0 0 468 468"
 preserveAspectRatio="xMidYMid meet">
<metadata>
Created by potrace 1.8, written by Peter Selinger 2001-2007
</metadata>
<g transform="translate(0,468) scale(0.365625,-0.365625)"
fill="#000000" stroke="none">
<path d="M2 1256 l-1 -20 11 -13 10 -13 14 0 14 0 0 10 0 10 -15 0 -15 0 0 20
0 21 40 -42 40 -42 19 17 19 17 8 -13 7 -13 -8 7 -7 7 -14 -14 -14 -14 0 -5 0
-6 15 0 15 0 0 -16 0 -15 23 6 22 7 -20 -15 -20 -16 -3 10 -4 9 -14 0 -14 0 0
-10 0 -10 10 0 10 0 0 -11 0 -11 -15 12 -15 13 -7 -7 -7 -7 13 -8 13 -8 1 -29
2 -29 10 -8 10 -9 -12 -5 -13 -5 0 -14 0 -14 11 0 10 0 15 -15 15 -15 -19 -20
-19 -20 0 15 0 15 9 0 8 0 0 10 0 10 -15 0 -15 0 0 -9 0 -9 -14 -5 -13 -5 3
39 3 39 -6 0 -6 0 -13 -17 -13 -18 -1 18 0 17 -15 0 -15 0 0 10 0 10 14 0 14
0 4 -12 5 -13 17 18 18 18 -6 7 -7 6 -10 -14 -11 -15 -5 13 -5 12 -14 0 -14 0
0 10 0 10 15 0 15 0 0 15 0 15 -15 0 -15 0 0 -14 0 -14 -13 -5 -12 -5 15 -11
15 -11 -15 -10 -15 -10 10 -7 10 -8 13 -22 12 -23 -11 0 -10 0 5 -22 6 -23 -6
13 -6 12 -8 0 -9 0 -1 -225 -1 -226 15 -14 15 -15 18 6 18 6 -18 -12 -17 -11
6 -12 5 -12 -14 18 -14 17 -7 0 -6 0 0 -230 0 -230 640 0 640 0 0 225 -1 226
-8 -6 -9 -5 -5 15 -6 14 14 -5 14 -6 0 227 0 227 -13 -5 -14 -6 6 21 5 21 -21
-5 -22 -6 6 9 6 10 -21 18 -21 18 0 12 0 12 -22 -5 -23 -6 13 6 12 6 0 10 0
10 -24 -6 -24 -6 -12 15 -12 15 -14 0 -14 0 0 -10 0 -10 15 0 15 0 0 -10 0
-10 -15 0 -15 0 0 -15 0 -15 15 0 15 0 0 -10 0 -10 -15 0 -15 0 0 -8 0 -9 7
-6 6 -7 11 9 11 9 1 -31 1 -32 -4 13 -5 12 -13 0 -13 0 -5 -12 -5 -13 -9 12
-8 12 -20 -2 -20 -2 2 28 2 27 -15 0 -14 0 0 10 0 10 8 0 8 0 12 -12 12 -12 7
8 7 7 -14 9 -14 9 22 24 22 23 0 6 0 5 -52 -1 -53 -1 -14 -9 -13 -9 -9 14 -9
14 -9 -14 -9 -14 -11 7 -11 7 -6 -15 -6 -16 -13 0 -13 0 -5 13 -5 12 -2 -25
-2 -25 -3 -37 -4 -37 15 6 14 5 0 -10 0 -10 -17 3 -18 3 -8 1 -8 1 11 19 10
20 0 5 0 5 -15 -6 -16 -5 3 13 3 14 -12 -2 -11 -2 2 16 3 17 11 4 12 4 0 -17
0 -16 11 6 10 7 -17 19 -17 19 -11 -15 -11 -16 -35 36 -34 35 -8 0 -8 0 0 -17
0 -16 -21 19 -22 19 13 -21 13 -21 18 -12 19 -11 0 10 0 10 -10 0 -9 0 6 16 6
15 33 -32 34 -33 0 -10 0 -11 -8 10 -7 10 -17 14 -18 13 0 -21 0 -22 13 7 12
7 -17 -19 -17 -20 -21 -1 -20 -2 5 9 5 9 -9 5 -10 6 -6 -9 -6 -10 -14 5 -15 6
6 9 5 9 9 -5 8 -5 7 18 7 17 7 -18 7 -18 8 1 9 2 8 -14 9 -13 0 24 0 24 -7 -6
-7 -7 -24 22 -25 23 7 -12 7 -13 -16 0 -16 0 -16 15 -15 16 14 16 13 16 -22
-14 -23 -14 0 -7 0 -6 13 -5 12 -4 -9 -9 -9 -9 -4 13 -5 12 -10 0 -11 0 16
-18 17 -19 0 -6 0 -7 -37 4 -37 3 -4 14 -4 14 9 -10 8 -11 13 1 12 0 -2 10 -3
10 -10 -3 -10 -4 40 35 40 35 -13 14 -13 13 6 -17 7 -17 -26 -7 -26 -6 -15 6
-15 5 0 -9 0 -10 10 0 10 0 0 -11 0 -11 -15 12 -14 12 -11 -7 -10 -6 2 13 3
13 -37 -1 -37 0 17 28 16 28 9 0 8 0 -6 9 -5 10 10 6 10 6 0 -15 0 -15 -15
-15 -15 -15 0 -10 0 -11 9 0 9 0 5 21 6 21 12 -8 12 -7 -7 11 -7 12 10 0 11 0
0 16 0 15 -13 -7 -12 -7 24 26 24 27 5 -4 4 -4 -11 -20 -10 -19 11 -11 12 -12
15 0 14 0 -7 8 -8 7 -11 0 -12 1 4 14 4 15 0 22 -1 21 19 5 19 5 7 19 7 18 10
7 10 7 -7 8 -8 7 -10 -14 -11 -15 -5 13 -5 12 -63 0 -63 0 -5 -21 -6 -22 15
-15 15 -15 -6 -15 -6 -15 12 -7 11 -7 -11 -7 -11 -7 0 10 0 11 -10 0 -10 0 0
-14 0 -14 13 -5 12 -4 -8 -8 -7 -9 -14 20 -14 19 11 14 12 14 -12 4 -13 5 0
16 1 17 14 -19 15 -20 6 7 6 6 -16 16 -16 16 6 25 6 24 -147 0 -146 0 6 -10 6
-10 -10 0 -11 0 0 9 0 9 -43 -1 -43 0 -2 -21z m461 0 l18 -14 -22 -16 -23 -16
-7 12 -8 12 5 8 5 8 -13 0 -13 0 15 10 15 10 5 0 5 -1 18 -13z m-323 -11 l0
-15 -4 0 -4 0 -6 15 -5 15 9 0 10 0 0 -15z m30 -5 l-11 -20 -3 0 -4 0 5 20 5
20 10 0 9 0 -11 -20z m60 11 l0 -9 -14 -11 -14 -12 5 20 5 21 9 0 9 0 0 -9z
m90 2 l-1 -8 -16 -20 -16 -20 7 18 6 19 0 9 0 9 10 0 10 0 0 -7z m40 0 l-1 -8
-13 -18 -14 -18 -7 10 -6 11 10 0 11 0 0 15 0 15 10 0 10 0 0 -7z m170 -9 l0
-15 -10 6 -10 6 0 10 0 9 10 0 10 0 0 -16z m-330 -64 l0 -10 -11 0 -10 0 6 10
6 10 5 0 4 0 0 -10z m164 1 l6 -9 -19 -5 -20 -5 6 14 5 14 8 0 9 0 5 -9z
m-133 -14 l-11 -14 7 -6 6 -7 -11 0 -12 0 0 14 0 14 13 5 12 5 4 1 3 1 -11
-13z m34 -7 l6 -10 -10 0 -11 0 0 10 0 10 4 0 5 0 6 -10z m60 -17 l18 -28 -14
13 -13 12 -8 0 -8 0 0 -9 0 -10 35 -12 35 -13 -11 -11 -11 -10 -5 13 -5 12 -9
0 -9 0 0 -15 0 -15 -10 0 -10 0 0 15 0 15 13 1 12 0 -22 11 -21 10 -24 -21
-23 -22 14 -9 14 -8 -29 -35 -29 -35 -12 -6 -13 -5 0 4 0 4 22 21 22 20 -7 1
-7 2 -7 1 -8 2 -20 11 -20 11 8 9 9 8 10 -19 10 -18 22 25 22 26 20 25 19 26
12 0 13 0 0 15 0 15 4 0 4 0 17 -27z m-87 -12 l17 14 -15 -20 -15 -19 -17 -17
-16 -17 -6 5 -6 6 18 14 17 14 -12 5 -13 6 0 10 0 10 15 -12 15 -12 18 13z
m135 -4 l5 -14 -12 0 -13 0 0 14 0 13 8 0 7 0 5 -13z m-225 -57 l-12 -19 -3 2
-2 3 6 22 5 22 9 -6 9 -5 -12 -19z m139 15 l0 -14 -9 5 -8 5 5 10 6 9 3 0 3 0
0 -15z m43 -35 l-14 -9 6 -6 7 -7 13 8 13 8 17 3 17 3 5 -8 4 -7 -25 -2 -26
-1 -9 -14 -10 -13 -5 13 -5 12 -10 -6 -11 -7 8 14 8 14 10 13 10 12 6 -5 5 -6
-14 -9z m-34 -7 l-8 -8 -11 0 -12 -1 3 -13 2 -12 -10 6 -11 7 12 14 11 14 16
0 15 0 -7 -7z m-116 -17 l0 -4 -17 -13 -18 -14 14 18 13 17 4 0 4 0 0 -4z
m230 -33 l0 -13 11 0 11 0 -13 -16 -13 -16 14 -8 14 -9 -8 -8 -9 -8 -4 13 -5
12 -9 0 -9 0 0 -15 0 -15 -10 0 -11 0 12 21 11 21 -11 11 -11 11 -1 -14 -1
-15 1 -8 1 -8 -9 5 -9 6 -16 -25 -16 -25 9 0 10 0 7 12 7 11 12 -17 12 -16 13
14 12 15 13 -12 13 -12 -10 -12 -10 -13 12 -15 12 -15 -6 0 -7 0 -16 16 -16
16 14 8 13 9 -7 7 -7 7 -15 -13 -16 -13 5 -13 5 -13 -15 6 -14 5 -15 -12 -15
-12 0 6 0 7 15 15 14 15 6 -1 5 0 1 7 1 8 -9 2 -9 3 -37 -39 -37 -39 0 -6 0
-6 16 0 15 0 -6 10 -6 10 13 -2 13 -3 12 -15 12 -15 1 24 0 23 15 -12 15 -13
-22 -15 -23 -16 -7 -10 -7 -10 -7 17 -6 17 -7 -4 -6 -4 -20 14 -20 15 15 9 14
9 -6 6 -6 7 -16 -9 -15 -8 0 -10 1 -9 -12 -2 -10 -2 11 5 11 5 -10 7 -11 7 -6
34 -6 34 25 -29 26 -30 0 18 0 17 9 0 10 0 3 -15 3 -14 15 10 15 11 -13 5 -13
5 11 13 11 13 -3 12 -3 13 14 5 14 5 -6 -19 -7 -19 15 19 15 20 -12 7 -12 8 7
8 8 8 12 0 12 0 2 10 1 10 -10 -3 -10 -3 4 18 4 18 12 -2 12 -3 0 10 0 10 20
-12 20 -13 0 -12z m550 34 l0 -4 -22 -19 -21 -19 7 13 7 12 -10 0 -11 0 0 -14
0 -14 -14 -5 -14 -6 5 20 5 19 -10 0 -10 0 -5 -12 -4 -13 -9 8 -8 8 14 9 14 9
33 -3 33 -2 0 8 0 8 10 0 10 0 0 -3z m50 -6 l0 -9 -25 -16 -25 -16 0 -12 0
-11 18 -14 17 -14 -11 5 -12 6 -12 -15 -12 -15 -9 0 -8 0 5 15 6 15 9 -6 9 -5
0 8 0 9 -12 13 -13 14 13 4 12 5 0 14 0 15 10 -6 10 -6 0 15 0 16 15 0 15 0 0
-9z m-760 -26 l0 -15 9 0 9 0 6 15 5 15 11 0 10 0 0 -15 0 -15 -15 0 -15 0 0
-12 0 -12 -12 12 -12 12 -6 0 -6 0 -1 -21 -2 -21 15 6 14 6 -12 -23 -12 -22
-4 18 -3 17 -10 0 -10 0 8 13 8 12 1 8 2 7 1 15 1 15 10 0 10 0 0 -15z m204
-6 l-5 -9 -10 6 -9 5 6 10 5 9 10 -6 9 -5 -6 -10z m141 12 l5 -10 -42 -41 -43
-41 14 -8 14 -9 -23 -12 -23 -12 7 25 6 25 30 32 30 32 0 14 0 14 9 0 10 0 6
-9z m251 -16 l6 -15 9 6 9 5 0 -9 0 -9 -25 -11 -25 -12 0 10 0 10 18 0 17 1
-17 13 -18 13 0 7 0 6 10 0 11 0 5 -15z m84 -15 l0 -10 -10 0 -10 0 0 10 0 10
10 0 10 0 0 -10z m-208 -7 l-12 -5 4 -7 5 -8 -14 0 -15 0 11 14 11 13 12 -1
11 -1 -13 -5z m-111 -20 l14 -18 -16 12 -16 13 -8 -8 -8 -7 7 13 7 12 3 0 4 0
13 -17z m283 2 l5 -15 -11 3 -10 2 -5 -13 -5 -12 24 2 23 3 -2 -23 -3 -23 10
6 10 6 0 -8 0 -8 -20 -25 -20 -25 0 18 0 19 -12 -5 -13 -4 3 -17 3 -16 -8 1
-8 1 -13 -1 -13 -1 5 -8 5 -9 -13 0 -14 0 5 14 5 13 14 0 14 0 0 15 0 15 -15
0 -15 0 0 18 0 17 8 -12 8 -13 17 20 17 20 0 6 0 6 -16 -6 -17 -6 11 13 12 14
-8 8 -7 8 11 -6 12 -7 6 15 5 15 5 0 4 0 6 -15z m-404 1 l0 -4 -17 -13 -18
-14 14 18 13 17 4 0 4 0 0 -4z m172 -24 l-5 -15 11 7 11 6 7 -11 7 -12 -11 7
-12 7 0 -6 0 -6 15 -16 16 -15 14 12 15 12 0 -6 0 -7 -15 -16 -16 -15 -19 22
-20 23 0 9 0 9 -9 -6 -10 -5 2 18 1 19 12 0 12 0 -6 -15z m91 -2 l-6 -21 -5 5
-4 5 5 16 6 15 5 0 4 0 -5 -20z m-573 0 l0 -10 -11 0 -10 0 6 10 6 10 5 0 4 0
0 -10z m425 -8 l-5 -6 -13 13 -12 12 18 -7 18 -6 -6 -6z m-414 -16 l-11 -13 6
-19 7 -19 -20 25 -21 24 -18 -14 -19 -15 14 18 14 17 18 -5 17 -6 7 11 6 10 6
0 5 0 -11 -14z m264 4 l-6 -10 -10 0 -9 0 0 10 0 10 16 0 15 0 -6 -10z m31
-14 l-1 -23 -12 4 -13 5 0 4 0 5 13 14 12 14 1 1 2 0 -2 -24z m-241 4 l6 -10
-10 0 -11 0 0 10 0 10 4 0 5 0 6 -10z m336 -23 l-12 -12 7 18 6 18 6 -6 6 -5
-13 -13z m224 14 l5 -10 -11 -7 -12 -7 7 11 7 12 -8 0 -9 0 -14 -12 -14 -13
13 18 13 17 9 0 8 0 6 -9z m-347 -19 l4 -12 -16 0 -16 0 0 16 0 16 12 -4 12
-4 4 -12z m206 -3 l11 -11 -23 12 -24 12 7 -24 7 -23 5 -5 4 -4 9 14 9 14 8
-7 7 -8 -14 -9 -15 -10 -20 7 -20 6 13 -16 14 -16 -12 -18 -11 -18 6 22 6 23
-25 10 -26 10 1 17 1 18 5 -17 4 -18 16 0 15 0 -4 29 -4 29 20 -4 20 -4 10
-11z m-504 7 l0 -5 -10 -6 -10 -6 0 10 0 11 10 0 10 0 0 -4z m-23 -33 l4 -11
-13 -5 -14 -5 0 19 0 19 10 -3 10 -3 3 -11z m360 2 l-6 -14 9 -6 9 -6 -6 -15
-6 -16 -7 12 -8 13 -7 -22 -6 -21 6 -10 6 -10 9 5 8 5 -2 -15 -2 -14 -7 -7 -7
-7 0 -21 1 -21 13 24 13 24 7 -12 7 -11 -10 0 -11 0 0 -11 0 -10 9 5 9 6 5
-15 6 -14 -15 6 -14 5 0 -11 0 -11 -11 0 -10 0 5 9 6 9 -15 12 -15 12 5 9 5 8
-17 10 -18 9 8 8 8 8 8 -13 9 -14 12 8 11 7 -17 19 -17 19 11 25 12 25 -10 0
-10 0 18 19 17 19 4 1 3 1 -5 -15z m293 5 l-12 -7 11 -8 12 -7 -10 -11 -9 -12
0 -10 0 -9 -14 -4 -13 -4 15 11 15 11 -10 1 -10 1 -8 -1 -8 -1 6 10 6 10 10
-5 9 -6 0 15 0 15 -9 5 -9 6 -5 -12 -5 -13 -1 16 -1 17 26 0 26 0 -12 -8z
m-392 -12 l-3 -13 14 3 14 3 -13 -18 -14 -18 -5 -5 -4 -5 6 18 7 18 -16 6 -16
6 14 8 13 9 3 0 2 0 -2 -12z m163 -5 l14 -18 -17 14 -18 13 0 4 0 4 4 0 4 0
13 -17z m165 -14 l2 -27 -24 -28 -23 -29 4 25 5 24 -12 7 -12 8 7 7 7 8 14
-19 13 -18 7 12 8 12 -16 18 -16 18 5 5 5 5 13 0 12 0 1 -28z m-195 4 l14 -18
-17 14 -18 13 0 4 0 4 4 0 4 0 13 -17z m-77 -9 l6 -16 -12 4 -12 4 -4 12 -4
12 10 0 10 0 6 -16z m526 -33 l0 -17 -20 -14 -20 -14 0 -9 0 -9 31 26 31 26 8
0 8 0 13 -17 13 -18 -13 12 -14 12 -35 -24 -36 -25 -24 16 -24 16 -5 -6 -6 -6
11 -13 11 -13 -29 -26 -30 -26 0 9 0 9 -11 -2 -11 -3 -5 15 -5 15 11 -15 11
-15 0 15 0 15 9 -14 9 -13 6 11 7 11 -15 16 -16 15 0 12 0 12 10 -15 9 -14 21
19 21 19 -17 13 -18 13 9 7 8 8 4 -13 5 -13 13 11 13 11 -2 -25 -3 -26 7 0 7
0 15 18 15 17 7 15 8 15 -20 -22 -20 -23 0 35 0 34 24 -16 24 -15 0 -17z m-70
25 l-10 -10 -10 10 -10 10 20 0 20 0 -10 -10z m-336 -4 l5 -8 -19 0 -19 0 5 8
5 8 9 0 9 0 5 -8z m290 -7 l-6 -15 -22 0 -21 0 25 14 25 14 2 1 2 1 -5 -15z
m-666 -13 l-18 -3 0 -10 0 -9 14 0 15 0 7 11 7 11 8 -13 8 -14 16 20 16 20
-10 -22 -11 -22 0 -5 0 -6 10 0 10 0 0 15 0 15 15 0 15 0 0 -15 0 -15 11 0 11
0 -13 -16 -13 -16 14 -8 14 -9 -7 -7 -7 -7 11 -13 11 -14 11 7 10 6 -7 -12 -8
-12 -19 17 -19 17 0 14 0 13 -11 0 -11 0 -28 30 -28 30 -7 0 -6 0 6 -11 7 -10
-23 -6 -23 -6 20 -8 19 -8 -16 0 -17 -1 -12 15 -12 15 -10 0 -9 0 6 -19 6 -19
-10 -7 -11 -6 7 17 6 17 -13 -8 -13 -8 4 11 4 11 29 34 29 35 16 -6 16 -6 -17
-4z m168 -7 l-5 -15 15 0 15 0 -5 -9 -6 -9 -23 5 -22 4 19 -15 20 -16 -11 0
-10 0 -17 19 -17 19 23 16 22 16 4 0 4 0 -6 -15z m72 -10 l-6 -6 -6 18 -7 18
12 -12 13 -13 -6 -5z m97 2 l0 -12 19 3 18 3 -4 -12 -4 -12 -29 -3 -30 -3 15
9 15 9 -20 16 -20 15 19 -7 19 -6 -8 14 -8 14 9 -8 9 -9 0 -11z m131 -2 l2
-14 -16 -13 -17 -13 14 18 13 17 -6 0 -7 0 -22 -12 -22 -11 25 26 25 26 4 -5
5 -5 2 -14z m-56 11 l0 -4 -16 -6 -15 -6 6 10 6 10 10 0 9 0 0 -4z m-197 -21
l-5 -16 -5 5 -5 5 7 10 6 11 4 0 4 0 -6 -15z m425 -2 l-11 -13 -13 11 -14 11
0 2 0 2 25 0 24 0 -11 -13z m-68 3 l0 -4 -16 -6 -15 -6 6 10 6 10 10 0 9 0 0
-4z m30 -24 l0 -8 -27 -24 -27 -24 12 -4 12 -4 -15 -14 -14 -15 5 -14 6 -15
-11 0 -11 0 2 13 3 12 -22 -1 -23 -1 0 8 0 9 10 0 10 0 0 11 0 10 -10 -6 -10
-6 7 17 6 17 15 -28 14 -28 8 14 9 13 -17 14 -17 13 12 -6 12 -6 23 23 23 23
-2 8 -3 7 10 0 10 0 0 -8z m-50 -6 l0 -4 -17 -13 -18 -14 14 18 13 17 4 0 4 0
0 -4z m-406 -22 l6 -17 -3 -3 -3 -3 -12 19 -12 20 9 0 9 0 6 -16z m66 6 l0
-10 -4 0 -5 0 -6 10 -6 10 10 0 11 0 0 -10z m196 -4 l21 -1 -5 -17 -4 -18 11
0 11 0 0 25 0 25 11 0 10 0 -7 -22 -7 -23 21 25 21 25 1 -8 0 -8 -16 -16 -15
-16 12 -7 12 -8 -34 3 -34 3 -5 2 -5 2 -7 -1 -8 -1 0 14 0 14 -16 6 -16 6 6
-15 6 -16 -10 6 -10 6 0 16 0 15 18 -8 17 -7 21 -1z m-465 -59 l-9 -9 -21 7
-21 6 0 10 0 9 10 0 10 0 0 17 0 16 20 -23 20 -24 -9 -9z m59 36 l0 8 24 -28
24 -28 -2 -3 -3 -3 -32 30 -31 29 0 9 0 8 10 -15 10 -15 0 8z m55 7 l6 -10
-15 6 -16 6 0 4 0 4 9 0 10 0 6 -10z m130 1 l5 -10 -8 -5 -9 -5 0 14 0 15 3 0
3 0 6 -9z m715 5 l0 -4 -17 -13 -18 -14 14 18 13 17 4 0 4 0 0 -4z m-1010 -10
l0 -4 -15 -12 -15 -13 6 17 6 16 9 0 9 0 0 -4z m195 -6 l6 -10 -10 0 -11 0 0
10 0 10 4 0 5 0 6 -10z m529 -29 l-4 -5 -18 18 -17 18 22 -13 22 -13 -5 -5z
m-549 9 l6 -10 -10 0 -11 0 0 10 0 10 4 0 5 0 6 -10z m126 -13 l-12 -12 7 18
6 18 6 -6 6 -5 -13 -13z m69 17 l0 -3 -9 -6 -10 -5 -5 8 -5 9 14 0 15 0 0 -3z
m88 -14 l-12 -19 -5 4 -4 5 13 15 12 15 4 0 4 0 -12 -20z m-238 -10 l15 -9
-23 2 -22 1 0 8 0 8 8 0 7 0 15 -10z m120 0 l0 -10 -4 0 -5 0 -6 10 -6 10 10
0 11 0 0 -10z m40 2 l0 -8 -13 -19 -14 -18 -8 13 -8 13 11 -7 11 -6 6 20 6 20
5 0 4 0 0 -8z m40 -21 l-11 -21 -9 0 -10 0 0 18 0 17 9 -14 9 -14 7 22 7 23 5
-5 5 -5 -12 -21z m147 14 l0 -14 -10 6 -10 6 7 -28 7 -27 -16 15 -15 16 0 6 0
6 13 14 12 14 6 1 6 0 0 -15z m155 -9 l11 7 -7 -12 -7 -11 16 -6 16 -6 19 17
20 18 -7 10 -6 10 32 -19 31 -18 0 -9 0 -8 10 6 10 6 -7 -18 -6 -18 13 12 12
11 14 -5 14 -5 -6 -9 -5 -9 -11 6 -11 7 7 -11 7 -12 24 16 24 16 16 -9 15 -9
-14 -19 -14 -19 -13 11 -14 11 -16 -11 -15 -12 -7 -18 -7 -17 -17 -7 -18 -7
-12 -12 -13 -13 0 -6 0 -6 -30 -32 -30 -32 0 17 0 16 13 5 12 5 -11 1 -11 1
-27 -26 -26 -27 0 12 0 11 20 12 20 13 0 7 0 8 -12 -3 -12 -2 -1 10 -2 10 -7
18 -8 17 -16 0 -15 0 6 6 5 6 22 -7 22 -7 -6 -5 -6 -6 11 -13 11 -14 11 7 10
6 -7 -11 -7 -12 18 0 18 0 28 35 28 35 -10 0 -9 0 -4 -10 -3 -9 -15 9 -15 9
14 13 14 13 -8 -14 -8 -14 11 7 12 7 -10 19 -10 18 13 5 12 5 -15 11 -15 11
10 0 10 0 14 -9 13 -8 -11 -7 -11 -7 16 -25 16 -24 9 0 9 0 0 15 0 15 -15 0
-15 0 0 15 0 14 18 -5 17 -6 -19 16 -18 15 7 10 6 11 -15 -6 -16 -6 0 17 0 16
-10 -6 -10 -6 6 -10 5 -9 -13 2 -13 3 2 -11 2 -12 -19 5 -20 5 0 -16 0 -16 9
0 9 0 5 -14 6 -15 -15 6 -14 5 0 10 0 10 -15 -12 -14 -12 -10 6 -9 6 5 -20 5
-20 -16 0 -16 0 2 24 2 25 10 -6 9 -6 -6 19 -7 19 14 -19 15 -18 10 7 11 6 0
15 0 15 -9 -5 -8 -6 1 18 1 17 -10 0 -10 0 1 -12 2 -13 -8 5 -9 5 -6 -10 -6
-10 -10 0 -9 0 0 11 0 10 9 -6 10 -5 17 30 18 30 9 -15 8 -15 11 6z m-725 -18
l5 12 10 0 10 0 -12 -15 -12 -14 15 -16 16 -15 10 0 11 0 0 9 0 9 17 6 17 7
-16 -18 -15 -18 -7 -19 -6 -19 9 -11 10 -12 -11 -14 -10 -15 6 18 6 18 -15 6
-16 5 13 16 13 16 -17 -7 -17 -6 6 16 6 16 -16 -6 -16 -6 6 16 6 16 -16 -6
-16 -6 6 15 5 14 -10 0 -10 0 -5 23 -6 22 21 -25 21 -25 4 13z m139 4 l-6 -5
11 -13 10 -12 -12 -8 -12 -7 7 11 6 11 -10 6 -10 6 0 15 0 15 11 -6 10 -7 -5
-6z m-66 -6 l0 -5 -10 -6 -10 -6 0 10 0 11 10 0 10 0 0 -4z m525 -24 l0 -28
-25 1 -25 2 -14 4 -13 4 -6 -14 -5 -14 10 6 10 6 -4 -22 -4 -23 20 -18 21 -19
8 8 7 8 -12 4 -13 5 0 9 0 9 9 -2 10 -3 15 20 15 20 1 -17 0 -18 -10 0 -10 0
1 -7 2 -8 -8 -32 -7 -32 -19 -20 -19 -20 0 -8 1 -8 17 20 18 20 14 3 15 3 14
14 15 15 -8 7 -7 7 -9 -14 -9 -14 -7 7 -8 7 20 14 19 14 6 -10 7 -10 5 8 5 9
-4 34 -4 34 6 -5 6 -6 3 -29 3 -28 -15 -23 -15 -24 7 -6 6 -6 8 13 9 13 6 -11
7 -11 -10 0 -11 0 0 -11 0 -10 8 5 9 5 11 -35 11 -36 -6 6 -6 6 -11 22 -11 21
-12 5 -13 4 0 -17 0 -16 -12 7 -13 7 7 -8 8 -8 -11 -14 -12 -13 -13 11 -14 11
6 9 5 9 -10 0 -11 0 0 -15 0 -15 -11 0 -10 0 6 -10 6 -10 -26 0 -26 0 6 10 6
10 -10 0 -11 0 0 -10 0 -10 -9 0 -9 0 -6 17 -7 17 7 -7 7 -7 14 11 13 11 14
-11 14 -12 7 11 7 11 -18 20 -18 20 9 -2 10 -3 23 14 22 15 0 8 0 8 -10 -6
-10 -6 7 17 6 17 -13 -8 -13 -8 6 10 7 11 -14 12 -15 11 -20 -10 -20 -11 -6
11 -7 10 6 6 6 6 0 -11 0 -11 15 5 15 6 0 27 0 27 12 12 12 12 -14 0 -13 0 5
6 6 6 27 -18 26 -17 12 12 11 11 -8 0 -8 0 12 15 12 15 2 0 1 0 0 -28z m-555
8 l0 -10 -4 0 -5 0 -6 10 -6 10 10 0 11 0 0 -10z m75 0 l6 -10 -16 0 -16 0 6
10 6 10 4 0 4 0 6 -10z m89 2 l5 -9 -14 0 -14 0 5 9 5 8 4 0 4 0 5 -8z m104
-32 l-12 -19 -3 3 -3 3 6 17 6 16 9 0 9 0 -12 -20z m102 10 l0 -10 -10 0 -10
0 0 10 0 10 10 0 10 0 0 -10z m61 -23 l-24 -22 19 27 19 26 4 -4 5 -5 -23 -22z
m-358 8 l-5 -16 -5 5 -5 5 7 10 6 11 4 0 4 0 -6 -15z m-138 -13 l-5 -6 -13 13
-12 12 18 -7 18 -6 -6 -6z m110 8 l6 -10 -10 0 -11 0 0 10 0 10 4 0 5 0 6 -10z
m119 2 l5 -9 -14 0 -14 0 5 9 5 8 4 0 4 0 5 -8z m-258 -25 l14 5 0 -8 0 -9
-10 -15 -9 -14 -8 7 -7 8 -2 27 -2 27 4 -17 5 -17 15 6z m188 -6 l-17 -29 -11
2 -11 2 -12 7 -13 8 0 12 1 12 10 -18 10 -17 20 10 20 11 -6 9 -5 8 12 5 13 5
3 1 3 1 -17 -29z m782 -7 l-7 -17 -11 11 -11 11 7 17 7 17 11 -11 11 -11 -7
-17z m-738 1 l-6 -6 -6 18 -7 18 12 -12 13 -13 -6 -5z m40 0 l-11 -24 -8 5 -8
4 -10 -17 -10 -18 -1 9 0 9 28 28 27 28 2 1 3 0 -12 -25z m44 3 l-12 -12 0 10
0 11 7 6 6 7 6 -5 5 -5 -12 -12z m461 -1 l5 -13 -19 -1 -18 -2 6 15 5 14 8 0
8 0 5 -13z m-423 -17 l0 -10 -4 0 -5 0 -6 10 -6 10 10 0 11 0 0 -10z m35 1 l5
-10 -8 -5 -9 -5 0 14 0 15 3 0 3 0 6 -9z m76 -18 l-21 -14 -1 -17 -1 -17 -5
12 -4 12 18 25 18 24 8 -5 8 -5 -20 -15z m209 17 l0 -10 -11 0 -10 0 6 10 6
10 5 0 4 0 0 -10z m278 -10 l5 -13 -15 6 -16 5 -10 -23 -11 -24 14 6 15 5 -6
9 -5 9 10 0 11 0 0 -15 0 -15 -10 0 -10 0 0 -12 0 -11 19 17 18 17 29 -33 29
-33 23 10 22 10 0 7 0 8 -9 0 -9 0 2 13 2 12 6 11 7 11 -14 0 -14 0 5 -9 5 -8
-15 -6 -16 -6 0 -10 0 -9 10 6 10 6 0 -15 0 -16 -8 0 -8 0 -27 28 -27 28 0 7
0 7 15 0 15 0 1 -17 1 -18 5 17 4 18 27 6 27 5 23 9 22 10 0 -16 0 -15 12 7
11 7 -7 -12 -7 -11 -11 6 -11 7 7 -18 6 -18 -13 11 -13 11 -13 -9 -14 -8 28
-28 28 -28 -11 -4 -12 -4 0 -14 0 -14 10 0 10 0 0 15 0 15 15 0 15 0 0 11 0
10 -10 -6 -10 -6 2 13 3 13 -12 -3 -13 -2 0 4 0 5 9 6 9 5 16 -16 16 -15 -6
-26 -7 -26 16 6 16 6 -6 -15 -5 -14 -9 0 -9 0 0 10 0 10 -14 0 -14 0 -4 -12
-5 -13 -14 15 -15 15 -7 18 -7 18 -22 -13 -23 -12 28 -10 27 -10 0 -8 0 -8
-14 0 -14 0 -5 13 -5 12 -11 -15 -10 -14 -8 7 -7 8 11 7 12 8 -9 14 -10 15 0
-13 0 -13 -10 6 -10 6 6 10 6 10 -13 15 -12 14 -19 -6 -19 -6 -19 17 -19 17
-16 -15 -15 -16 0 -7 0 -7 18 16 18 17 11 -11 11 -11 -5 -14 -5 -14 11 0 11 0
0 10 0 10 12 0 11 0 -17 -19 -18 -20 -13 12 -13 12 5 8 4 7 -8 0 -9 0 -10 -10
-11 -11 -12 15 -13 16 26 30 25 31 8 1 8 1 13 19 14 19 11 -4 11 -3 4 -14z
m203 -11 l11 -22 -12 -7 -11 -7 16 -17 16 -16 -9 0 -10 0 -12 15 -13 16 11 11
11 11 -10 19 -10 18 5 0 5 0 12 -21z m-1078 -17 l-5 -22 -9 0 -9 0 0 5 0 5 12
20 12 19 3 -2 2 -3 -6 -22z m432 18 l6 -10 -10 0 -11 0 0 10 0 10 4 0 5 0 6
-10z m290 0 l6 -10 -10 0 -11 0 0 10 0 10 4 0 5 0 6 -10z m-460 -49 l-18 -16
9 15 9 15 1 8 2 7 2 13 2 12 5 -19 5 -18 -17 -17z m218 34 l-5 -16 -5 5 -5 5
7 10 6 11 4 0 4 0 -6 -15z m172 5 l-6 -10 11 0 11 0 -6 -10 -6 -10 -7 0 -8 0
-1 20 -2 20 10 0 10 0 -6 -10z m-615 -20 l-11 -20 -5 0 -5 0 11 20 11 20 5 0
5 0 -11 -20z m58 -5 l-6 -6 -6 18 -7 18 12 -12 13 -13 -6 -5z m42 4 l0 -10
-10 6 -10 6 0 10 0 10 10 -6 10 -6 0 -10z m44 0 l-5 -9 -10 6 -9 5 6 10 5 9
10 -6 9 -5 -6 -10z m46 5 l0 -15 -10 6 -10 6 0 10 0 9 10 0 10 0 0 -16z m84 0
l6 -15 -10 6 -10 6 0 10 0 9 4 0 4 0 6 -16z m97 -1 l14 -18 -17 14 -18 13 0 4
0 4 4 0 4 0 13 -17z m-448 -1 l5 -7 -19 -24 -19 -23 0 10 0 11 15 14 15 15
-13 5 -12 5 12 1 12 1 4 -8z m236 -24 l-1 -13 1 -13 1 -13 10 6 10 6 -6 11 -7
11 25 -19 26 -19 -4 -4 -4 -4 -13 12 -14 11 -28 -27 -28 -28 12 23 12 22 -2
13 -1 12 1 13 1 12 5 0 6 0 -2 -12z m146 2 l6 -10 -10 0 -11 0 0 10 0 10 4 0
5 0 6 -10z m37 -9 l-13 -8 4 -14 4 -14 -4 8 -5 7 -10 -6 -11 -7 8 14 8 14 10
13 10 12 6 -5 5 -6 -12 -8z m98 9 l0 -10 -4 0 -5 0 -6 10 -6 10 10 0 11 0 0
-10z m-469 -28 l-11 -4 0 -10 0 -10 24 6 24 6 13 -18 13 -17 -14 13 -14 12 -8
0 -8 0 0 -15 0 -15 -15 0 -15 0 0 15 0 15 -11 0 -11 0 12 15 12 14 -8 13 -8
13 18 -15 18 -14 -11 -4z m122 15 l7 6 0 -10 0 -11 -16 -6 -16 -6 13 -18 13
-17 -20 19 -19 18 13 5 13 5 -13 16 -13 17 16 -12 16 -13 6 7z m-172 -20 l-12
-12 7 18 6 18 6 -6 6 -5 -13 -13z m449 13 l0 -10 -11 0 -10 0 6 10 6 10 5 0 4
0 0 -10z m-132 -25 l-6 -6 -6 18 -7 18 12 -12 13 -13 -6 -5z m484 -10 l-4 -18
13 -8 13 -8 -6 -7 -7 -6 -16 16 -16 16 5 9 6 9 -21 -5 -20 -6 6 -15 5 -15 -15
13 -15 12 0 -16 0 -16 -9 0 -9 0 -5 20 -5 20 8 -5 8 -5 16 6 16 6 -7 11 -6 10
16 -6 16 -6 7 10 6 10 11 -4 12 -4 -3 -18z m-855 -17 l-5 -13 -1 19 -1 19 6
-6 6 -6 -5 -13z m42 -10 l-14 -13 -15 -3 -15 -2 20 16 20 15 -3 12 -3 12 12
-12 12 -12 -14 -13z m146 23 l5 -10 -8 -5 -9 -5 0 14 0 15 3 0 3 0 6 -9z m213
-21 l-12 -19 -5 4 -4 5 11 13 12 14 -8 8 -7 8 12 -7 13 -7 -12 -19z m60 5 l-6
-6 -6 18 -7 18 12 -12 13 -13 -6 -5z m46 13 l-6 -9 12 -14 12 -15 -17 0 -18 0
6 6 6 7 -9 17 -9 17 14 0 14 0 -5 -9z m198 -11 l-12 -14 7 -6 6 -7 -16 0 -17
0 0 7 0 6 17 19 16 18 5 -5 5 -5 -11 -13z m265 2 l-6 -21 15 6 14 5 0 -9 0
-10 -13 0 -14 0 -5 6 -6 5 5 20 5 19 5 0 5 0 -5 -21z m-77 -5 l0 -15 -10 6
-10 6 0 10 0 9 10 0 10 0 0 -16z m-570 2 l0 -4 -14 -11 -14 -12 -8 12 -7 12
11 -7 11 -6 6 10 6 10 5 0 4 0 0 -4z m48 -21 l-6 -6 -6 18 -7 18 12 -12 13
-13 -6 -5z m-298 5 l0 -10 -11 0 -10 0 6 10 6 10 5 0 4 0 0 -10z m570 0 l0
-10 -10 0 -10 0 0 10 0 10 10 0 10 0 0 -10z m85 0 l6 -10 -10 0 -11 0 0 10 0
10 4 0 5 0 6 -10z"/>
<path d="M433 1245 l0 -15 15 0 14 0 -4 12 -4 12 -10 3 -11 4 0 -16z"/>
<path d="M223 1054 l-13 -13 9 -5 9 -6 11 14 12 14 -8 5 -8 5 -12 -14z"/>
<path d="M370 999 l0 -10 15 -16 16 -15 5 5 5 5 -13 21 -13 21 -7 0 -8 0 0
-11z"/>
<path d="M300 880 l0 -10 10 0 10 0 0 10 0 10 -10 0 -10 0 0 -10z"/>
<path d="M216 847 l6 -18 6 6 6 5 -13 13 -12 12 7 -18z"/>
<path d="M305 790 l6 -10 5 0 4 0 0 10 0 10 -11 0 -10 0 6 -10z"/>
<path d="M871 884 l-23 -25 7 -7 6 -6 10 14 9 15 9 -15 10 -14 8 7 7 8 -14 10
-15 11 13 5 12 5 0 9 0 9 -7 -1 -8 0 -24 -25z"/>
<path d="M872 701 l4 -12 7 0 7 1 1 7 1 8 -12 4 -12 4 4 -12z"/>
<path d="M160 746 l0 -15 10 -6 10 -6 0 15 0 15 -10 6 -10 6 0 -15z"/>
<path d="M276 733 l-6 -6 0 -9 0 -8 15 0 15 0 0 9 0 10 -9 5 -8 5 -7 -6z"/>
<path d="M110 650 l0 -10 15 0 15 0 0 4 0 4 -15 6 -15 5 0 -9z"/>
<path d="M686 394 l-6 -15 -11 7 -12 7 7 -11 7 -12 20 10 19 11 0 9 0 10 -9 0
-9 0 -6 -16z"/>
<path d="M1100 380 l0 -10 10 0 10 0 0 10 0 10 -10 0 -10 0 0 -10z"/>
<path d="M590 1272 l0 -8 -35 -39 -35 -38 6 -19 6 -19 24 -24 24 -24 0 6 0 5
-25 30 -25 30 0 8 0 8 15 12 15 13 7 -7 7 -7 -13 -8 -13 -9 21 -21 21 -21 0 8
0 8 -11 11 -11 11 20 22 20 22 7 -12 7 -11 -18 -14 -19 -14 11 -1 10 0 23 21
22 21 6 -6 6 -6 -14 -16 -14 -17 37 24 38 24 0 8 0 7 -9 0 -9 0 -7 -17 -7 -18
-30 35 -31 35 8 -13 7 -13 -21 -6 -21 -5 0 -9 0 -9 -10 0 -10 0 0 9 0 8 26 27
27 26 -17 0 -16 0 0 -8z m50 -52 l0 -10 -10 0 -10 0 0 10 0 10 10 0 10 0 0
-10z"/>
<path d="M640 1270 l0 -10 10 0 10 0 0 10 0 10 -10 0 -10 0 0 -10z"/>
<path d="M678 1260 l-17 -19 9 -6 10 -6 0 11 0 11 12 -7 11 -7 -7 11 -7 12 10
0 11 0 0 10 0 10 -7 -1 -8 -1 -17 -18z"/>
<path d="M719 1263 l-1 -18 2 -22 1 -23 -10 0 -11 0 -12 -25 -11 -26 -9 13 -8
13 0 -12 0 -12 10 -6 10 -6 11 25 12 25 13 5 14 5 0 -8 0 -8 -7 -7 -7 -7 -3
-19 -3 -20 8 3 7 2 2 -10 1 -10 -10 3 -9 2 6 -10 7 -11 14 12 15 12 -11 11
-10 10 0 20 0 19 6 -6 6 -6 15 15 15 15 -7 7 -8 7 -4 -13 -5 -12 -8 5 -8 5 34
37 34 36 26 -11 26 -12 -5 -13 -5 -12 -11 3 -12 2 7 -11 7 -11 29 31 30 32 -6
7 -7 6 -10 -14 -11 -15 -5 13 -5 12 -33 0 -33 0 -22 -27 -21 -28 10 22 11 22
0 5 0 6 -20 0 -20 0 -1 -17z"/>
<path d="M911 1266 l15 -17 17 7 17 6 0 9 0 9 -10 0 -10 0 0 -10 0 -11 -22 12
-23 11 16 -16z"/>
<path d="M970 1261 l-14 -20 -8 5 -8 5 0 -10 0 -11 -15 0 -15 0 0 -9 0 -9 13
-5 12 -4 -17 -20 -18 -19 -2 -36 -3 -35 -14 5 -14 5 6 -16 6 -17 -10 0 -10 0
-16 -15 -15 -16 6 -7 7 -6 8 13 9 14 10 -7 11 -6 11 17 11 18 5 -12 6 -13 13
0 13 0 5 13 5 12 12 -15 12 -15 5 13 5 12 13 0 13 0 5 -12 5 -13 11 15 11 15
11 -15 11 -15 5 13 5 12 10 0 11 0 20 -22 20 -23 4 13 5 12 6 0 7 0 28 -24 27
-23 0 -12 0 -11 10 0 10 0 0 15 0 15 15 0 15 0 0 -15 0 -15 10 0 10 0 0 14 0
14 -12 5 -13 5 15 11 15 11 -15 11 -15 11 13 5 12 5 0 13 0 13 -12 5 -13 5 15
12 15 12 -12 5 -13 5 0 14 0 14 -10 0 -10 0 0 11 0 11 15 -12 15 -13 8 8 7 8
-12 4 -13 5 0 9 0 10 10 -6 10 -6 0 15 0 15 -10 6 -10 6 0 10 0 10 10 -6 10
-6 0 15 0 16 -20 0 -20 0 0 -12 0 -13 -10 15 -9 14 -7 -7 -7 -7 13 -16 14 -16
-10 -6 -10 -7 1 -25 2 -25 7 -17 8 -18 14 0 14 0 0 -10 0 -10 -11 0 -10 0 -15
-14 -14 -15 0 -6 0 -6 14 -15 15 -14 10 0 11 0 0 -10 0 -10 -8 0 -8 0 -12 12
-13 13 -9 -15 -9 -14 -8 7 -7 8 14 9 14 9 -7 8 -8 7 -9 -14 -9 -14 -8 8 -8 8
18 10 19 10 -21 19 -20 19 -10 0 -9 0 -5 13 -4 12 -9 -8 -8 -8 14 -9 14 -9 -7
-8 -8 -7 -9 14 -9 14 -8 -8 -8 -9 13 -4 12 -5 0 -14 0 -14 -10 0 -10 0 0 15 0
15 -15 0 -15 0 0 -15 0 -15 -10 0 -10 0 0 15 0 15 -10 0 -10 0 0 -15 0 -15
-10 0 -10 0 0 15 0 15 -15 0 -15 0 0 -15 0 -15 -10 0 -10 0 0 10 0 10 -17 19
-17 20 -6 -4 -6 -4 -1 22 -2 21 12 8 12 8 5 0 6 0 1 -19 2 -20 -17 6 -17 6 17
-18 17 -19 21 23 20 24 -6 8 -5 9 14 -6 14 -5 12 15 13 15 -15 16 -16 15 -10
0 -11 0 0 15 0 15 15 0 15 0 0 -15 0 -15 10 0 10 0 0 15 0 15 10 0 10 0 0 -14
0 -14 13 -5 12 -5 -15 -11 -14 -10 8 -8 9 -8 4 13 5 12 10 0 9 0 15 14 14 15
0 6 0 6 -14 15 -15 14 -9 0 -10 0 -5 -12 -5 -13 -11 15 -11 15 -11 -15 -11
-15 -5 13 -5 12 -12 0 -12 0 -14 -19z m130 -16 l0 -15 -15 0 -15 0 0 8 0 9 7
6 6 7 9 0 8 0 0 -15z m-140 -25 l0 -10 25 -6 26 -6 -5 -6 -5 -5 -31 13 -30 12
0 9 0 9 10 0 10 0 0 -10z m-20 -135 l0 -15 -15 0 -15 0 0 15 0 15 15 0 15 0 0
-15z m230 0 l0 -15 -14 0 -14 0 -5 -12 -4 -13 -9 9 -9 9 13 4 12 5 0 14 0 14
15 0 15 0 0 -15z m90 0 l0 -15 -15 0 -15 0 0 15 0 15 15 0 15 0 0 -15z m-30
-65 l0 -10 -10 0 -10 0 0 10 0 10 10 0 10 0 0 -10z"/>
<path d="M1120 1270 l0 -10 10 0 10 0 0 10 0 10 -10 0 -10 0 0 -10z"/>
<path d="M1170 1271 l0 -9 -21 -5 -21 -6 7 -10 6 -11 15 0 14 0 0 15 0 15 10
0 10 0 0 -14 0 -14 -12 -5 -13 -5 14 -10 14 -10 -16 -16 -16 -16 -10 0 -11 0
0 -15 0 -15 11 0 12 0 18 -21 18 -21 18 18 18 17 -13 5 -12 4 0 14 0 14 -10 0
-10 0 0 -15 0 -15 -10 0 -10 0 0 8 0 8 21 23 22 23 -14 10 -14 10 13 5 12 5 0
10 0 9 -14 15 -15 14 -5 0 -6 0 0 -9z m40 -141 l0 -10 -10 0 -10 0 0 10 0 10
10 0 10 0 0 -10z"/>
<path d="M800 1244 l0 -15 -10 6 -10 6 6 -16 6 -16 3 3 2 3 12 23 12 22 -11 0
-10 0 0 -16z"/>
<path d="M890 1245 l0 -17 11 4 11 4 0 9 0 10 -11 3 -11 4 0 -17z"/>
<path d="M858 1211 l-18 -18 1 -14 0 -14 8 19 7 18 17 -16 17 -17 0 10 0 10
-10 6 -9 6 6 14 5 15 -3 -1 -4 0 -17 -18z"/>
<path d="M1030 1220 l0 -10 10 0 10 0 0 10 0 10 -10 0 -10 0 0 -10z"/>
<path d="M1110 1210 l-14 -20 -13 0 -13 0 0 -10 0 -10 14 0 14 0 5 13 4 12 9
-9 9 -9 -12 -4 -13 -5 0 -14 0 -14 10 0 10 0 0 11 0 10 14 15 15 14 10 0 11 0
0 10 0 10 -15 0 -15 0 0 10 0 10 -8 0 -8 0 -14 -20z m30 -10 l0 -10 -10 0 -10
0 0 10 0 10 10 0 10 0 0 -10z"/>
<path d="M0 1201 l0 -9 13 -6 12 -6 -12 -6 -13 -6 0 -13 0 -13 13 -5 12 -5
-15 -11 -14 -10 7 -7 7 -7 14 13 15 12 17 -16 16 -17 -12 -15 -13 -14 7 -7 7
-7 10 14 9 15 9 -15 10 -14 8 8 8 9 -12 4 -13 5 0 13 0 13 -13 5 -12 5 27 23
27 22 -31 31 -32 30 -4 -12 -4 -12 -14 0 -14 0 0 10 0 10 -10 0 -10 0 0 -9z
m78 -31 l13 -21 -17 -17 -17 -17 -5 13 -4 12 -14 0 -14 0 0 7 0 6 18 18 17 18
5 0 5 1 13 -20z"/>
<path d="M50 1155 l0 -15 10 0 10 0 0 15 0 15 -10 0 -10 0 0 -15z"/>
<path d="M1023 1175 l-13 -14 0 -11 0 -10 10 0 10 0 0 15 0 15 10 0 10 0 0
-14 0 -14 -12 -4 -13 -5 19 -19 19 -19 5 13 4 12 14 0 14 0 0 10 0 10 -14 0
-14 0 -5 -12 -4 -13 -9 9 -9 9 13 4 12 5 0 10 0 9 -14 15 -15 14 -3 0 -3 -1
-12 -14z"/>
<path d="M626 1157 l6 -18 6 6 6 5 -13 13 -12 12 7 -18z"/>
<path d="M757 1164 l-7 -7 0 -9 0 -9 8 5 9 5 32 -33 33 -34 -11 -6 -11 -7 -23
26 -23 27 -14 -18 -15 -19 17 14 18 13 6 -16 7 -17 -19 -15 -19 -14 15 2 15 3
7 10 7 10 12 -12 12 -12 11 13 11 12 30 34 30 34 -17 -13 -18 -13 -15 12 -15
12 0 -10 0 -10 13 -5 12 -4 -11 -12 -10 -11 -19 20 -19 21 11 7 12 8 -9 14
-10 15 0 -17 0 -18 -6 0 -7 0 -11 16 -12 15 -7 -7z"/>
<path d="M861 1154 l1 -19 5 13 5 13 -6 6 -6 6 1 -19z"/>
<path d="M600 1132 l0 -10 11 -4 10 -3 -7 -19 -7 -18 -8 14 -9 13 0 -12 0 -12
8 -5 8 -5 29 37 29 37 -17 -14 -17 -13 -15 12 -15 12 0 -10z"/>
<path d="M686 1125 l-6 -17 0 -6 1 -7 10 18 11 19 -5 4 -5 5 -6 -16z"/>
<path d="M971 1124 l-13 -15 7 -7 8 -7 4 13 5 12 13 0 13 0 5 -12 4 -13 8 7 8
8 -13 15 -12 15 -12 0 -11 -1 -14 -15z"/>
<path d="M472 1100 l-12 -20 0 -7 0 -7 16 22 16 23 -4 4 -4 4 -12 -19z"/>
<path d="M527 1099 l-15 -20 -5 11 -5 11 2 -13 2 -12 10 -3 9 -3 12 25 11 25
-3 0 -4 0 -14 -21z"/>
<path d="M653 1104 l-13 -13 0 -13 0 -12 16 22 16 23 -3 4 -4 3 -12 -14z"/>
<path d="M696 1092 l-5 -9 32 -29 32 -29 -28 31 -27 30 7 7 6 7 -6 0 -6 0 -5
-8z"/>
<path d="M596 1038 l5 -8 10 5 9 6 0 3 0 3 -15 0 -14 0 5 -9z"/>
<path d="M90 1020 l0 -10 10 0 10 0 0 10 0 10 -10 0 -10 0 0 -10z"/>
<path d="M1043 1015 l-13 -14 0 -10 0 -9 13 -5 12 -4 -22 -20 -23 -20 0 -12 0
-11 10 0 10 0 0 15 0 15 10 0 10 0 0 -15 0 -15 10 0 10 0 0 14 0 14 -12 5 -13
5 15 12 15 12 -12 5 -13 5 0 14 0 14 10 0 10 0 0 10 0 10 -7 0 -8 -1 -12 -14z"/>
<path d="M1235 980 l-7 -12 10 -10 10 -10 7 12 7 12 -10 10 -10 10 -7 -12z"/>
<path d="M0 970 l0 -10 10 0 10 0 0 10 0 10 -10 0 -10 0 0 -10z"/>
<path d="M90 970 l0 -10 10 0 10 0 0 10 0 10 -10 0 -10 0 0 -10z"/>
<path d="M1260 950 l0 -10 10 0 10 0 0 10 0 10 -10 0 -10 0 0 -10z"/>
</g>
</svg>
