<?xml version="1.0" standalone="no"?>
<!DOCTYPE svg PUBLIC "-//W3C//DTD SVG 20010904//EN"
 "http://www.w3.org/TR/2001/REC-SVG-20010904/DTD/svg10.dtd">
<svg version="1.0" xmlns="http://www.w3.org/2000/svg"
 width="468pt" height="468pt" viewBox="0 0 468 468"
 preserveAspectRatio="xMidYMid meet">
<metadata>
Created by potrace 1.8, written by Peter Selinger 2001-2007
</metadata>
<g transform="translate(0,468) scale(0.365625,-0.365625)"
fill="#000000" stroke="none">
<path d="M457 1219 l-58 -60 53 -50 52 -49 -29 -28 -30 -29 -17 -21 -18 -22 0
-10 0 -10 -15 0 -15 0 -19 -19 -19 -19 -6 59 -7 59 -8 0 -8 0 -13 25 -13 25
-24 0 -23 0 0 -9 0 -10 -42 -3 -43 -3 3 -13 2 -13 -9 5 -10 6 -7 -11 -7 -12
39 -35 39 -35 -25 8 -25 8 -12 16 -12 16 -1 8 0 7 -9 0 -9 0 -6 -24 -6 -23
-44 -17 -44 -17 -6 -22 -6 -22 0 -22 0 -23 45 0 45 0 0 -15 0 -14 48 -14 47
-14 3 -29 3 -29 11 -22 11 -23 17 0 17 0 7 40 6 40 23 -4 22 -5 37 -6 37 -6 8
-13 8 -14 19 -3 19 -4 -2 -73 -2 -72 15 -6 16 -6 -1 -17 -1 -16 -5 13 -5 12
-59 0 -59 0 0 -10 0 -9 -72 -4 -73 -3 190 -3 190 -3 -30 -8 -30 -8 73 -1 73
-1 -6 10 -6 10 48 -8 48 -7 55 1 55 1 165 10 165 10 -72 1 -73 2 0 10 0 10 53
1 52 1 55 8 55 7 -97 2 -97 1 -9 18 -9 17 4 13 5 12 -26 0 -26 0 0 15 0 16 15
5 15 6 0 20 0 19 10 20 11 19 35 0 35 0 20 10 19 11 0 14 0 15 -28 0 -29 0 5
30 4 30 -16 0 -16 0 0 15 0 15 -8 0 -9 0 -11 38 -12 39 -25 29 -25 29 0 7 0 7
-30 16 -30 16 0 9 0 10 85 0 85 0 0 15 0 15 -35 0 -35 0 0 35 0 35 29 0 29 0
4 -9 3 -9 25 -4 25 -3 -1 17 -2 18 8 -5 7 -4 18 13 17 13 -6 21 -7 22 -10 0
-9 0 -1 -27 0 -28 -16 23 -15 22 -9 0 -9 0 0 -15 0 -15 10 0 10 0 0 -16 0 -16
-16 6 -16 6 -34 0 -34 0 0 30 0 30 -102 2 -103 2 -137 -3 -138 -3 0 21 0 21
-12 -1 -13 -1 -58 -59z m73 -35 l0 -66 -7 4 -8 4 -30 14 -30 15 -12 11 -12 12
36 36 36 36 14 0 13 0 0 -66z m230 -294 l10 0 0 -95 0 -95 -8 0 -9 0 -6 98 -7
97 2 170 2 170 3 -172 3 -173 10 0z m37 228 l-4 -43 0 80 0 80 4 -37 4 -37 -4
-43z m-67 92 l0 -10 -95 0 -95 0 0 10 0 10 95 0 95 0 0 -10z m270 0 l0 -10
-90 0 -90 0 0 10 0 10 90 0 90 0 0 -10z m-270 -30 l0 -10 -95 0 -95 0 0 10 0
10 95 0 95 0 0 -10z m270 0 l0 -10 -90 0 -90 0 0 10 0 10 90 0 90 0 0 -10z
m-312 -87 l-47 -4 -53 4 -53 3 100 0 100 0 -47 -3z m270 0 l-48 -4 -47 4 -48
3 95 0 95 0 -47 -3z m110 -10 l-18 -4 -17 4 -18 5 35 0 35 0 -17 -5z m-395
-27 l6 -14 19 5 20 5 6 -10 6 -10 -95 0 -95 0 5 9 6 9 41 -2 42 -1 4 11 4 12
13 0 13 0 5 -14z m154 -23 l-5 -18 0 30 0 30 5 -12 5 -13 -5 -17z m85 7 l11 0
38 -37 39 -38 0 -12 0 -13 10 0 9 0 16 -55 16 -55 20 0 19 0 0 -13 0 -13 -12
-12 -12 -12 -12 0 -12 0 -10 29 -10 28 -26 7 -26 6 0 10 0 10 -36 0 -37 0 -13
-17 -13 -18 -1 23 0 22 10 0 10 0 0 20 0 19 18 11 17 11 -27 -4 -27 -4 -9 6
-10 6 14 13 14 13 0 -11 0 -10 20 0 20 0 0 14 0 15 -27 4 -28 4 37 2 37 1 -6
15 -5 16 -29 15 -29 15 0 10 0 10 16 -15 15 -16 11 0z m-607 -37 l6 -33 9 0
10 0 0 -20 0 -20 -12 0 -13 0 11 -8 11 -7 7 -35 6 -35 -7 15 -6 15 -13 8 -14
8 0 18 0 18 -7 7 -7 7 1 47 1 47 -5 -30 -5 -29 -19 -17 -20 -17 23 -4 23 -3 2
-25 2 -25 -5 17 -5 16 -14 6 -14 5 5 -17 5 -17 -13 21 -13 21 -12 -4 -13 -5 0
-21 -1 -22 -15 20 -15 20 25 8 25 8 7 36 7 36 -15 11 -15 11 43 0 43 0 6 -32z
m205 31 l0 -6 -17 -36 -17 -37 -17 -18 -17 -19 -7 12 -7 11 6 23 6 23 26 26
27 27 8 0 9 0 0 -6z m377 -26 l-5 -13 -1 19 -1 19 6 -6 6 -6 -5 -13z m-687
-25 l0 -11 -20 5 -20 5 0 5 0 4 13 13 12 14 7 -12 8 -11 0 -12z m380 31 l0 -5
-14 -15 -15 -14 -27 0 -27 0 19 19 19 20 23 0 22 1 0 -6z m90 -15 l0 -20 -14
-15 -15 -14 -24 0 -25 0 -5 14 -6 14 6 21 5 21 39 0 39 0 0 -21z m60 -14 l0
-35 -31 0 -31 0 6 16 6 16 0 19 0 19 25 0 25 0 0 -35z m76 -20 l-15 -15 -5 0
-6 0 0 35 0 35 20 -20 21 -21 -15 -14z m38 11 l-6 -37 -5 5 -4 4 7 36 6 37 5
-5 4 -4 -7 -36z m-614 14 l0 -10 -10 0 -10 0 0 10 0 10 10 0 10 0 0 -10z m320
-32 l0 -13 -6 -22 -6 -23 -15 0 -14 0 -15 15 -15 15 6 20 6 20 30 0 29 0 0
-12z m71 -18 l29 0 0 -29 0 -29 -47 6 -48 5 -3 2 -3 3 7 26 6 27 15 -5 15 -6
29 0z m-466 -30 l0 -25 -15 3 -15 3 12 -12 12 -12 16 17 17 16 6 -4 7 -4 -4
-52 -3 -52 -27 7 -26 6 -3 10 -4 9 -13 0 -13 0 -4 10 -3 11 -43 2 -42 1 0 18
0 18 21 21 20 20 22 9 22 9 30 -2 30 -2 0 -25z m575 0 l0 -30 -30 0 -30 0 0
30 0 30 30 0 30 0 0 -30z m94 14 l6 -16 0 -8 0 -8 -24 -4 -25 -5 -5 14 -6 15
0 14 0 14 24 0 24 0 6 -16z m-394 -16 l21 -23 6 -27 6 -28 8 0 9 0 0 -22 1
-23 13 -17 13 -18 21 0 20 0 6 -15 6 -16 -18 -54 -17 -55 -10 0 -10 0 -13 20
-12 20 -14 0 -14 0 -5 15 -6 14 7 4 7 4 48 7 48 7 -4 12 -4 12 -27 3 -28 4 -5
19 -5 19 -8 0 -8 0 -17 52 -17 52 -16 13 -17 12 -17 1 -18 0 0 9 0 10 18 4 17
5 7 1 7 1 21 -22z m450 -3 l0 -14 -15 5 -15 6 0 9 0 9 15 0 15 0 0 -15z m-371
-11 l31 -6 0 -24 0 -24 -18 0 -19 0 -21 19 -22 18 0 12 0 11 9 0 9 0 31 -6z
m338 -36 l-5 -13 0 25 0 25 5 -12 5 -13 -5 -12z m-537 5 l5 -5 -19 -14 -20
-14 11 0 12 0 6 10 6 10 10 0 9 0 0 -10 0 -10 -25 -6 -25 -6 0 -9 0 -9 11 0
12 0 23 26 24 25 0 -14 0 -13 -12 -16 -13 -16 -15 -5 -15 -5 17 -1 18 -1 15
24 16 24 -6 23 -6 24 26 1 25 2 0 -14 0 -14 15 0 14 0 10 -37 11 -38 0 -12 0
-13 -37 -1 -38 -2 -40 3 -40 2 -3 9 -4 9 -25 0 -25 0 4 33 5 32 7 20 7 20 -16
-29 -17 -28 5 -72 6 -71 -5 23 -5 22 -15 0 -14 0 0 73 0 74 7 7 8 8 45 -7 45
-7 5 -5z m324 11 l16 -6 0 -14 0 -14 -50 0 -50 0 0 20 0 20 34 0 34 0 16 -6z
m196 -13 l0 -20 -15 -15 -15 -15 0 -10 0 -11 -10 0 -10 0 0 39 0 40 23 4 22 4
3 2 2 1 0 -19z m-100 -10 l0 -19 6 -16 6 -16 -30 0 -30 0 -6 16 -6 16 0 19 0
19 30 0 30 0 0 -19z m-203 -21 l15 0 -7 -27 -7 -28 -4 -4 -4 -4 -14 12 -14 12
-5 25 -4 25 14 -5 15 -6 15 0z m396 -2 l-23 -11 0 -19 0 -18 9 0 10 0 15 22
16 22 0 -11 0 -12 -25 -19 -25 -20 0 -11 0 -11 13 0 12 0 10 23 10 22 40 0 40
0 3 -24 4 -25 -17 -12 -17 -12 -3 -28 -3 -28 -11 -4 -11 -4 6 -9 5 -9 -10 0
-9 0 -16 6 -16 6 0 18 0 19 -12 13 -13 14 -12 22 -13 22 0 39 0 40 23 4 22 4
10 1 10 1 -22 -11z m-318 -5 l-40 -4 -7 -12 -8 -12 0 11 0 11 7 6 6 7 41 -2
41 -1 -40 -4z m229 -35 l-7 -43 -1 -1 -1 -2 -25 -6 -25 -7 14 9 14 10 -6 15
-6 16 15 -6 14 -5 0 24 0 25 7 6 6 7 4 0 3 0 -6 -42z m36 28 l0 -14 -12 -6
-13 -6 13 -6 12 -6 0 -23 0 -23 -16 -6 -17 -6 -5 5 -5 5 11 0 11 0 -5 15 -6
15 6 35 7 35 9 0 10 0 0 -14z m-203 -31 l21 -15 6 13 5 12 -5 -27 -6 -28 16
-6 16 -6 0 -25 0 -24 -23 -23 -24 -24 -16 10 -17 9 0 15 0 14 -26 12 -25 12 4
18 5 18 -19 0 -19 0 0 10 0 10 17 20 17 20 26 0 26 0 21 -15z m72 -47 l0 -43
-9 20 -9 20 0 23 -1 22 10 0 10 0 -1 -42z m389 20 l-5 -13 -41 -3 -42 -3 0 15
0 16 46 0 46 0 -4 -12z m-628 -48 l0 -10 -35 0 -35 0 0 10 0 10 35 0 35 0 0
-10z m427 -86 l6 -34 21 5 21 6 -17 -11 -18 -11 0 -20 0 -19 -20 12 -20 13 -4
15 -5 15 -6 55 -7 55 22 -23 21 -23 6 -35z m-309 46 l22 -21 0 -19 0 -20 -18
0 -18 0 -11 40 -10 40 7 0 6 0 22 -20z m-32 -29 l5 -26 9 -17 10 -17 -15 5
-15 6 0 18 0 18 -15 6 -15 5 0 -16 0 -16 -5 5 -5 5 6 31 6 31 14 -6 14 -5 6
-27z m254 14 l0 -25 -10 0 -10 0 0 -39 0 -39 -16 -6 -16 -6 -30 0 -31 0 -19
23 -20 22 21 3 21 3 0 10 0 9 -20 0 -20 0 0 6 0 5 28 29 27 29 48 1 47 0 0
-25z m30 16 l0 -9 6 -16 6 -16 -16 0 -16 0 0 25 0 25 10 0 10 0 0 -9z m-375
-70 l19 -8 -27 -7 -27 -6 0 -9 0 -10 18 -5 17 -5 -25 2 -25 2 -3 18 -3 17 23
1 23 1 -25 8 -25 8 20 0 20 1 20 -8z m380 -1 l6 -10 -15 6 -16 6 0 4 0 4 9 0
10 0 6 -10z m-212 -7 l-13 -5 -12 5 -13 5 25 0 25 0 -12 -5z m-66 -33 l13 -19
-6 -16 -6 -15 -18 0 -18 0 -6 16 -6 17 5 18 6 19 12 0 12 0 12 -20z m90 0 l13
-19 -6 -16 -6 -15 -18 0 -18 0 -6 16 -6 17 5 18 6 19 12 0 12 0 12 -20z m213
-32 l0 -17 -9 -5 -9 -6 -16 6 -16 6 0 19 0 20 12 13 13 13 12 -16 12 -16 1
-17z m124 36 l6 -16 -6 -9 -5 -9 -19 0 -19 0 -5 9 -6 9 6 16 6 16 18 0 18 0 6
-16z m-491 -31 l-13 -5 -12 5 -13 5 25 0 25 0 -12 -5z m437 -13 l0 -10 -10 0
-10 0 0 10 0 10 10 0 10 0 0 -10z"/>
<path d="M936 983 l-6 -6 0 -24 0 -24 -15 -5 -15 -6 0 -19 0 -19 25 0 25 0 0
20 0 20 10 0 10 0 0 -21 0 -20 13 -13 13 -13 24 -7 25 -7 -10 8 -10 8 -1 26
-2 27 -21 21 -21 21 0 10 0 9 -19 10 -18 10 -7 -6z m37 -50 l-13 -5 -12 5 -13
5 25 0 25 0 -12 -5z"/>
<path d="M130 915 l0 -15 10 0 10 0 0 15 0 15 -10 0 -10 0 0 -15z"/>
<path d="M386 839 l6 -37 -19 -11 -18 -10 11 -1 12 0 12 15 13 15 -11 33 -11
32 5 -36z"/>
<path d="M971 764 l1 -19 5 13 5 13 -6 6 -6 6 1 -19z"/>
<path d="M653 737 l17 -14 0 -11 0 -10 -12 -5 -13 -5 18 -1 18 -1 -3 27 -3 28
-20 3 -20 3 18 -14z"/>
<path d="M560 551 l0 -9 14 -5 14 -6 6 6 5 6 -5 8 -5 9 -15 0 -14 0 0 -9z"/>
<path d="M663 553 l-13 -5 0 -9 0 -9 14 0 15 0 6 9 5 10 -7 4 -8 4 -12 -4z"/>
<path d="M870 540 l0 -10 10 0 10 0 0 10 0 10 -10 0 -10 0 0 -10z"/>
<path d="M980 550 l0 -10 10 0 10 0 0 10 0 10 -10 0 -10 0 0 -10z"/>
<path d="M1175 1180 l-4 -6 10 -14 9 -15 0 13 0 13 14 -13 14 -13 -12 -7 -11
-8 13 0 13 0 -17 -17 -18 -18 16 -3 15 -3 13 -27 13 -27 4 17 4 17 -10 20 -11
20 0 10 0 11 28 1 27 0 -25 10 -24 10 -5 4 -4 5 12 14 12 15 -36 -2 -37 -2 -3
-5z"/>
<path d="M1142 1150 l-12 -19 -14 5 -14 5 -7 -10 -6 -11 15 0 16 0 6 -24 6
-24 19 5 19 5 0 -20 0 -21 10 -6 11 -7 -1 39 -2 38 6 23 5 23 -10 -6 -9 -6 -6
15 -6 16 -7 0 -6 0 -13 -20z m37 -13 l11 -14 -15 -19 -15 -19 -15 19 -15 19
11 14 11 13 8 0 8 0 11 -13z"/>
<path d="M1146 1132 l-5 -8 10 -14 9 -15 9 15 10 14 -5 8 -5 8 -9 0 -9 0 -5
-8z"/>
<path d="M840 471 l0 -10 33 -4 32 -4 -452 -1 -453 -2 0 -225 0 -225 640 0
640 0 0 223 0 224 -167 7 -168 7 -3 9 -4 10 -49 0 -49 0 0 -9z"/>
</g>
</svg>
