<?xml version="1.0" standalone="no"?>
<!DOCTYPE svg PUBLIC "-//W3C//DTD SVG 20010904//EN"
 "http://www.w3.org/TR/2001/REC-SVG-20010904/DTD/svg10.dtd">
<svg version="1.0" xmlns="http://www.w3.org/2000/svg"
 width="468pt" height="468pt" viewBox="0 0 468 468"
 preserveAspectRatio="xMidYMid meet">
<metadata>
Created by potrace 1.8, written by Peter Selinger 2001-2007
</metadata>
<g transform="translate(0,468) scale(0.365625,-0.365625)"
fill="#000000" stroke="none">
<path d="M124 1268 l-6 -9 6 -6 6 -6 0 11 0 12 21 0 22 0 13 -17 14 -18 13 16
12 16 13 4 13 4 -61 2 -60 1 -6 -10z"/>
<path d="M563 1260 l5 -16 -60 0 -59 -1 -5 -6 -6 -6 27 -25 28 -26 26 5 26 5
-15 -7 -15 -6 -13 -14 -13 -13 -15 0 -14 0 0 -9 0 -9 -30 -7 -30 -7 0 -9 0 -9
-14 0 -14 0 -29 -30 -28 -29 -12 -14 -11 -14 -5 -24 -4 -24 -2 27 -1 27 31 32
31 32 -14 9 -13 9 15 -2 15 -1 13 1 12 1 0 15 0 15 -10 0 -10 0 0 25 0 25 10
0 10 0 0 -24 0 -25 8 -5 9 -5 21 6 22 5 0 14 0 14 -10 0 -10 0 -6 25 -6 25 -9
0 -9 0 0 -10 0 -10 -12 0 -13 0 -23 -25 -24 -24 7 -11 6 -10 -15 6 -14 5 -4
-18 -3 -18 -34 0 -34 0 -3 -13 -2 -12 5 10 5 10 19 0 19 0 0 -27 0 -28 -10 15
-10 15 6 -31 6 -31 -66 -8 -66 -7 0 -9 0 -9 -24 0 -25 0 -6 -11 -7 -10 5 -5 5
-5 56 -6 56 -6 0 -7 0 -8 -55 -7 -55 -6 0 -9 0 -9 54 -6 54 -7 31 7 31 7 0 8
0 8 -10 5 -11 6 13 -3 12 -2 4 -13 4 -12 -21 -6 -21 -5 0 -8 0 -8 50 -7 50 -7
0 -13 0 -13 -47 4 -48 3 23 -5 22 -5 0 -10 0 -9 30 0 30 0 0 30 0 30 16 0 15
0 -6 -10 -6 -10 6 -20 6 -20 10 0 9 0 0 14 0 13 60 -1 61 -1 8 14 9 14 -12 12
-12 12 -22 7 -22 7 0 15 0 14 10 0 10 0 0 10 0 10 -27 1 -28 1 15 5 15 6 13
13 13 13 14 -5 15 -6 0 -8 0 -8 -12 -6 -13 -6 30 6 30 5 3 10 4 9 14 0 14 0 0
-10 0 -10 -24 -6 -24 -6 -6 -21 -5 -20 5 -9 5 -8 14 0 13 0 4 -10 3 -9 71 -7
70 -7 19 19 19 19 42 -1 42 -1 -14 14 -14 14 0 5 0 4 43 -6 42 -7 6 -9 6 -9
43 -2 43 -2 4 12 4 11 -65 7 -66 7 0 9 0 9 29 0 29 0 16 6 16 6 0 24 0 24 -25
0 -25 0 -20 -17 -20 -17 0 -13 0 -13 -35 0 -36 0 12 21 11 21 -9 -5 -9 -6 -14
10 -15 9 14 9 13 9 22 -4 21 -4 -12 6 -13 6 0 7 0 8 40 12 40 12 11 -7 11 -6
30 33 30 33 9 -16 8 -15 48 0 48 0 -32 4 -33 4 0 9 0 9 -22 3 -22 3 17 17 17
17 0 25 0 26 -17 20 -17 20 -12 0 -12 0 -5 13 -4 12 -9 -8 -8 -8 14 -9 15 -10
-17 0 -18 0 0 14 0 14 -14 5 -15 6 6 -15 5 -14 -45 0 -45 0 -5 13 -5 12 -9
-11 -8 -11 -61 -6 -60 -6 -37 6 -37 6 0 8 0 9 25 6 25 6 0 9 0 9 -14 0 -14 0
-5 -12 -5 -13 -12 15 -12 15 5 -15z m-23 -35 l0 -14 -15 5 -15 6 0 9 0 9 15 0
15 0 0 -15z m60 -26 l0 -9 -20 0 -20 0 0 14 0 14 20 -5 20 -5 0 -9z m365 -19
l6 -30 -6 -20 -7 -21 -35 -35 -35 -35 -5 5 -6 5 32 28 31 27 0 13 0 13 10 0
10 0 0 24 0 24 -15 6 -15 5 0 11 0 10 14 0 14 0 7 -30z m-334 -97 l47 -48 46
-42 46 -42 0 -6 0 -5 -11 0 -11 0 -43 43 -44 42 -35 33 -36 33 0 13 0 14 -12
5 -13 5 9 1 9 1 48 -47z m-193 -101 l4 -13 -21 -6 -21 -5 0 -9 0 -9 -10 0 -10
0 0 10 0 10 25 6 25 6 0 9 0 9 -24 0 -25 0 -7 -22 -6 -21 18 -14 19 -14 -15
-9 -15 -10 -19 0 -18 0 5 -13 5 -14 -21 3 -22 2 -6 1 -7 1 -5 22 -6 22 32 31
33 32 14 6 15 6 29 -2 29 -2 5 -13z m279 -28 l4 -11 -20 -6 -20 -5 6 14 5 14
-20 0 -20 0 -5 -12 -4 -13 -9 8 -8 8 14 10 15 9 29 -2 29 -3 4 -11z m187 1
l-6 -15 -24 0 -24 0 0 9 0 9 13 5 12 5 17 1 17 1 -5 -15z m-274 -36 l0 -9 54
0 54 0 5 13 5 12 1 -13 1 -14 -20 -5 -20 -5 0 -9 0 -9 -15 0 -15 0 0 -15 0
-15 -11 0 -10 0 -15 15 -15 15 -50 0 -49 0 0 10 0 11 18 6 17 7 12 12 13 12
20 -5 20 -5 0 -9z m-480 -29 l0 -10 -10 0 -10 0 0 10 0 10 10 0 10 0 0 -10z
m30 0 l0 -10 -10 0 -10 0 0 10 0 10 10 0 10 0 0 -10z m100 0 l0 -10 -10 0 -10
0 0 10 0 10 10 0 10 0 0 -10z m120 0 l0 -10 -10 0 -10 0 0 10 0 10 10 0 10 0
0 -10z m18 -23 l-13 -13 -17 -7 -17 -6 5 14 6 14 16 4 17 5 8 1 8 1 -13 -13z
m-128 -7 l0 -10 -15 0 -15 0 0 10 0 10 15 0 15 0 0 -10z m168 -17 l-18 -4 0
-10 0 -9 -15 0 -15 0 0 9 0 10 18 4 17 5 15 0 15 0 -17 -5z"/>
<path d="M290 920 l0 -10 10 0 10 0 0 10 0 10 -10 0 -10 0 0 -10z"/>
<path d="M660 1260 l0 -10 10 0 10 0 0 10 0 10 -10 0 -10 0 0 -10z"/>
<path d="M720 1261 l0 -9 14 -5 15 -6 -6 15 -5 14 -9 0 -9 0 0 -9z"/>
<path d="M770 1260 l0 -10 10 0 10 0 0 10 0 10 -10 0 -10 0 0 -10z"/>
<path d="M813 1260 l4 -15 19 -2 19 -3 -15 7 -15 6 -8 11 -9 11 5 -15z"/>
<path d="M660 1230 l0 -10 10 0 10 0 0 10 0 10 -10 0 -10 0 0 -10z"/>
<path d="M410 1205 l0 -16 18 -19 18 -19 22 6 22 5 0 5 0 4 -26 24 -27 25 -13
0 -14 0 0 -15z"/>
<path d="M1130 1105 l0 -105 -79 0 -79 0 -16 -6 -16 -6 0 -38 0 -38 28 -4 27
-4 -1 41 -1 40 4 -27 4 -28 30 0 29 0 0 15 0 15 -12 1 -13 1 -7 -1 -8 -1 0 15
0 15 50 0 50 0 0 -15 0 -16 -12 2 -13 1 -12 -1 -13 -1 0 -15 0 -15 30 0 30 0
0 20 0 20 10 0 10 0 0 -29 0 -29 -15 -6 -15 -5 0 -11 0 -11 19 18 19 18 -5
148 -6 147 -8 0 -9 0 0 -105z"/>
<path d="M168 1183 l-18 -4 0 -10 0 -9 14 0 14 0 6 15 5 15 -2 -1 -2 -1 -17
-5z"/>
<path d="M112 1164 l-13 -14 10 0 10 0 6 11 7 10 -3 4 -4 3 -13 -14z"/>
<path d="M120 1081 l0 -10 -17 -4 -18 -5 18 -1 17 -1 0 -10 0 -10 20 17 20 17
0 8 0 8 -20 0 -20 0 0 -9z"/>
<path d="M40 1055 l0 -15 9 0 9 0 6 15 5 15 -14 0 -15 0 0 -15z"/>
<path d="M1083 1055 l12 -13 5 7 5 6 8 6 8 7 -25 0 -24 0 11 -13z"/>
<path d="M1168 1063 l13 -5 6 6 6 6 -19 -1 -19 -1 13 -5z"/>
<path d="M1214 1050 l0 -18 13 5 13 5 0 8 0 8 -13 5 -13 5 0 -18z"/>
<path d="M180 1050 l0 -10 15 0 15 0 0 10 0 10 -15 0 -15 0 0 -10z"/>
<path d="M1250 1044 l0 -16 12 4 12 4 4 12 4 12 -16 0 -16 0 0 -16z"/>
<path d="M1067 1029 l13 -13 5 6 6 6 -18 6 -18 7 12 -12z"/>
<path d="M838 1023 l-18 -4 0 -10 0 -9 11 0 10 0 15 15 15 15 -8 -1 -8 -1 -17
-5z"/>
<path d="M130 1010 l0 -10 10 0 10 0 0 10 0 10 -10 0 -10 0 0 -10z"/>
<path d="M880 1010 l0 -10 10 0 10 0 0 10 0 10 -10 0 -10 0 0 -10z"/>
<path d="M1250 980 l0 -10 10 0 10 0 0 10 0 10 -10 0 -10 0 0 -10z"/>
<path d="M1082 896 l13 -14 4 3 3 4 -7 10 -6 11 -10 0 -10 0 13 -14z"/>
<path d="M967 873 l-7 -6 0 -8 0 -7 26 -6 26 -7 14 -14 14 -14 0 -13 0 -13 -8
12 -7 11 -30 8 -30 7 -6 9 -6 9 -34 3 -34 3 23 -4 22 -4 0 -9 0 -8 30 -7 30
-7 0 -8 0 -8 18 -5 17 -5 18 -7 17 -7 0 23 0 24 9 -14 9 -14 25 26 24 27 12 0
11 0 0 -9 0 -9 -25 -6 -25 -6 0 -9 0 -9 15 -6 15 -5 0 14 0 15 8 1 7 1 23 2
22 3 0 -3 0 -3 -22 -21 -22 -21 -28 6 -28 7 0 -16 0 -15 -22 -7 -21 -6 -12 16
-12 16 -11 0 -10 0 -6 -15 -5 -15 -16 0 -15 0 0 -9 0 -9 -30 -7 -30 -7 0 -8 0
-8 36 -6 36 -7 29 6 29 7 0 8 0 8 30 7 30 7 0 8 0 8 30 7 30 7 0 7 0 8 43 13
42 12 8 12 9 11 -5 -15 -4 -15 -31 -9 -32 -9 0 -8 0 -7 -30 -7 -30 -7 0 -8 0
-8 -30 -7 -30 -7 0 -8 0 -8 -30 -7 -30 -7 0 -9 0 -9 30 0 30 0 0 9 0 9 30 7
30 7 0 8 0 8 29 7 29 6 6 15 5 14 16 0 15 0 0 9 0 9 30 7 30 7 0 13 0 13 -32
7 -33 8 -6 10 -7 10 -72 1 -73 1 16 3 17 3 0 8 0 8 -46 7 -47 6 -12 0 -12 0
-6 -7z m63 -13 l0 -10 -15 0 -15 0 0 10 0 10 15 0 15 0 0 -10z m0 -129 l0 -9
-30 -7 -30 -7 0 -9 0 -9 -15 0 -15 0 0 9 0 9 30 7 30 7 0 9 0 9 15 0 15 0 0
-9z"/>
<path d="M120 831 l0 -10 11 -6 10 -7 4 3 3 4 -14 13 -14 13 0 -10z"/>
<path d="M190 830 l0 -10 10 0 10 0 0 10 0 10 -10 0 -10 0 0 -10z"/>
<path d="M506 825 l-5 -15 -16 0 -15 0 0 -8 0 -9 85 -12 85 -12 40 12 40 12 0
7 0 8 25 6 25 6 0 10 0 10 -40 0 -40 0 0 -9 0 -9 10 -4 10 -3 -71 0 -72 0 -4
-12 -5 -13 -14 0 -14 0 0 9 0 9 20 5 20 5 0 11 0 11 -29 0 -29 0 -6 -15z m154
-24 l0 -9 -26 -6 -26 -7 -6 6 -5 5 16 0 17 0 0 10 0 10 15 0 15 0 0 -9z"/>
<path d="M758 807 l-15 -15 -41 -13 -42 -12 0 -7 0 -7 50 -7 49 -7 26 7 25 6
0 8 0 7 41 12 41 12 5 -4 4 -5 -30 -7 -31 -7 0 -8 0 -8 -30 -7 -30 -7 0 -9 0
-9 30 0 29 0 10 -17 11 -18 7 12 8 11 28 7 27 7 0 8 0 8 30 7 30 7 0 15 0 15
-27 -7 -28 -7 -5 -8 -5 -8 -28 -7 -27 -7 0 -9 0 -9 -15 0 -15 0 0 9 0 9 30 7
30 7 0 8 0 8 23 7 22 6 -15 6 -15 6 -5 8 -6 8 -65 7 -65 6 -16 -15z m82 -6 l0
-8 -45 -13 -45 -13 0 -8 0 -9 -15 0 -15 0 0 9 0 8 45 13 45 13 0 8 0 9 15 0
15 0 0 -9z"/>
<path d="M220 760 l0 -10 10 0 10 0 0 10 0 10 -10 0 -10 0 0 -10z"/>
<path d="M248 759 l-5 -14 -39 -1 -39 0 -23 -19 -22 -19 0 -28 0 -28 -25 0
-25 0 0 -10 0 -10 -16 0 -15 0 15 -15 15 -16 90 -4 90 -4 -5 14 -6 13 -14 6
-14 5 0 29 0 29 24 26 24 26 26 7 26 6 0 9 0 9 -14 0 -14 0 -5 -12 -5 -13 -10
14 -10 13 -4 -13z m-71 -43 l-17 -13 0 -36 0 -35 15 -6 15 -5 0 -11 0 -10 -20
17 -20 17 0 35 0 34 18 17 17 17 5 -4 5 -5 -18 -12z"/>
<path d="M340 761 l0 -9 25 -6 26 -7 19 -19 20 -20 0 -15 0 -15 -20 -20 -19
-19 -26 -7 -25 -6 0 -9 0 -9 -15 0 -15 0 0 8 0 8 30 24 29 25 1 23 0 23 -19
20 -19 21 -11 -7 -11 -6 0 -15 0 -14 -10 0 -10 0 -6 -40 -7 -40 -8 0 -9 0 0
-20 0 -20 72 4 72 3 4 11 4 12 13 0 14 0 15 16 16 15 0 27 0 28 -21 17 -20 18
-30 6 -29 6 0 8 0 9 -15 0 -15 0 0 -9z"/>
<path d="M470 730 l0 -10 10 0 10 0 0 10 0 10 -10 0 -10 0 0 -10z"/>
<path d="M690 730 l0 -10 10 0 10 0 0 10 0 10 -10 0 -10 0 0 -10z"/>
<path d="M625 709 l-7 -10 3 -4 4 -3 13 14 13 14 -10 0 -10 0 -6 -11z"/>
<path d="M1245 709 l-7 -10 3 -4 4 -3 13 14 13 14 -10 0 -10 0 -6 -11z"/>
<path d="M750 700 l0 -10 10 0 10 0 0 10 0 10 -10 0 -10 0 0 -10z"/>
<path d="M540 670 l0 -10 10 0 10 0 0 10 0 10 -10 0 -10 0 0 -10z"/>
<path d="M620 641 l0 -10 11 -6 10 -7 4 3 3 4 -14 13 -14 13 0 -10z"/>
<path d="M750 640 l0 -10 10 0 10 0 0 10 0 10 -10 0 -10 0 0 -10z"/>
<path d="M482 616 l13 -14 4 3 3 4 -7 10 -6 11 -10 0 -10 0 13 -14z"/>
<path d="M847 614 l5 -14 9 0 9 0 0 9 0 9 -14 5 -15 6 6 -15z"/>
<path d="M880 610 l0 -10 10 0 10 0 0 10 0 10 -10 0 -10 0 0 -10z"/>
<path d="M1100 580 l0 -10 10 0 10 0 0 10 0 10 -10 0 -10 0 0 -10z"/>
<path d="M172 562 l-172 -2 0 -280 0 -280 640 0 640 0 0 280 0 280 -212 0
-213 1 -255 2 -255 2 -173 -3z"/>
</g>
</svg>
