<?xml version="1.0" standalone="no"?>
<!DOCTYPE svg PUBLIC "-//W3C//DTD SVG 20010904//EN"
 "http://www.w3.org/TR/2001/REC-SVG-20010904/DTD/svg10.dtd">
<svg version="1.0" xmlns="http://www.w3.org/2000/svg"
 width="468pt" height="468pt" viewBox="0 0 468 468"
 preserveAspectRatio="xMidYMid meet">
<metadata>
Created by potrace 1.8, written by Peter Selinger 2001-2007
</metadata>
<g transform="translate(0,468) scale(0.365625,-0.365625)"
fill="#000000" stroke="none">
<path d="M0 969 l0 -310 8 5 9 5 -3 48 -3 48 11 45 11 45 12 25 13 25 23 48
24 48 27 32 28 32 25 28 25 28 13 -7 12 -7 -7 8 -8 8 32 29 32 29 15 -6 15 -6
-7 7 -7 7 31 19 31 19 5 -5 6 -5 24 19 24 19 14 -5 13 -5 7 11 8 12 8 -13 9
-14 10 16 10 17 44 -1 44 -1 -5 -13 -5 -13 -8 0 -8 0 -5 13 -5 12 -11 -15 -10
-14 6 -8 5 -9 -12 -14 -12 -14 -29 3 -29 3 0 -3 0 -3 16 -15 16 -16 -24 -20
-23 -19 -13 4 -13 5 6 -11 7 -10 -16 -17 -15 -18 4 -34 4 -35 -20 24 -20 24
-6 -6 -6 -6 24 -20 24 -20 -17 -17 -17 -17 -15 13 -16 12 6 23 6 23 -12 7 -11
7 -7 -7 -6 -6 13 -8 13 -8 -11 -7 -11 -7 0 13 0 13 -9 -13 -8 -13 -9 2 -9 1
-19 -1 -18 -1 13 -16 13 -16 -13 -8 -13 -8 13 -5 14 -5 -15 -11 -15 -11 15
-10 15 -10 -15 -10 -15 -10 12 -8 12 -8 -19 -12 -20 -12 0 12 0 11 -6 -5 -5
-6 13 -21 13 -21 -11 -17 -10 -18 0 -62 1 -61 -4 4 -4 4 -15 -12 -14 -12 -19
23 -20 24 -6 -6 -6 -6 24 -21 24 -20 -24 -21 -25 -20 11 -7 11 -7 -13 -12 -14
-12 -4 12 -5 12 -17 -23 -17 -23 -12 4 -12 5 0 -18 0 -18 12 5 11 4 14 -17 14
-17 -21 7 -21 6 -18 -20 -18 -20 19 -22 19 -23 10 -7 10 -8 7 0 7 0 16 16 16
16 -6 18 -6 18 17 16 16 17 22 -6 21 -6 -15 10 -14 10 23 20 23 20 -16 17 -17
16 -7 -6 -6 -7 14 -9 14 -9 -7 -7 -7 -7 -14 12 -13 11 0 25 0 25 13 11 14 11
13 -11 14 -11 4 4 4 4 2 -51 1 -52 5 -27 4 -27 -10 6 -10 6 7 -18 6 -18 -16
-19 -17 -18 -21 6 -21 6 17 -18 18 -18 32 29 33 30 -29 -32 -28 -31 7 -13 8
-12 -12 7 -12 8 -13 -11 -13 -11 -1 -25 0 -26 21 -14 21 -15 -7 -7 -7 -7 -16
23 -16 22 -13 -5 -13 -5 -16 18 -16 18 6 5 5 6 -23 27 -23 27 0 11 -1 12 -19
28 -19 29 12 19 12 18 -15 -5 -15 -6 -1 26 -1 26 -2 49 -1 49 -7 8 -8 7 0
-326 0 -327 640 0 640 0 0 640 0 640 -325 0 -325 0 0 -9 0 -9 15 -12 15 -13
23 19 22 19 -19 -23 -19 -22 -21 6 -21 6 17 -18 18 -18 34 33 35 34 27 -22 27
-21 -8 0 -8 0 -19 17 -18 16 -30 -28 -31 -29 6 -14 5 -13 -11 6 -10 7 -13 -11
-13 -11 0 -25 0 -25 13 -11 13 -11 10 7 11 6 -6 -16 -7 -16 -23 22 -24 23 -17
-17 -17 -16 15 -19 14 -18 -23 24 -23 24 -6 -6 -6 -6 24 -27 24 -26 -14 8 -13
8 7 -24 8 -24 -21 25 -21 25 -17 -17 -17 -17 13 -16 13 -16 12 5 12 4 -2 -23
-3 -23 -32 -31 -33 -31 -2 0 -3 0 -13 18 -14 17 19 -15 19 -15 -6 20 -7 20 10
15 9 14 8 -7 7 -8 -14 -9 -14 -9 7 -7 7 -7 14 12 14 11 0 25 0 25 -8 0 -8 0
-5 -12 -4 -13 -9 8 -8 8 14 9 14 8 -13 15 -12 15 13 5 13 5 -15 12 -15 11 24
-6 24 -7 -8 12 -7 12 20 -11 21 -11 8 0 8 0 -29 26 -28 27 -9 -14 -9 -14 -9
14 -9 13 -5 -13 -5 -14 -18 17 -18 18 8 7 7 7 10 -14 9 -15 9 14 9 13 5 -13 5
-14 11 15 11 15 10 -15 9 -15 18 18 18 18 -11 7 -12 7 14 13 14 13 -5 -37 -4
-36 14 12 14 11 -2 22 -1 22 -10 7 -10 7 23 21 24 20 -7 7 -7 7 -9 -14 -9 -14
-8 8 -8 9 14 5 13 4 -13 9 -14 8 20 15 20 15 -312 1 -313 0 0 -311z m585 238
l-2 -28 -16 -17 -17 -16 -17 18 -18 17 24 20 25 20 -14 9 -13 8 25 -1 24 -2
-1 -28z m137 17 l-23 -16 6 -17 6 -16 -12 12 -13 13 19 20 18 20 11 0 10 0
-22 -16z m18 -24 l0 -10 -10 0 -10 0 0 10 0 10 10 0 10 0 0 -10z m40 0 l0 -10
-10 0 -10 0 0 10 0 10 10 0 10 0 0 -10z m25 0 l6 -10 -10 0 -11 0 0 10 0 10 4
0 5 0 6 -10z m-305 -60 l-22 -22 -6 7 -7 7 18 9 18 10 -7 22 -7 21 17 -17 17
-16 -21 -21z m170 20 l0 -10 -10 0 -10 0 0 10 0 10 10 0 10 0 0 -10z m28 -16
l0 -26 -8 13 -8 12 5 14 5 13 3 0 3 0 0 -26z m42 16 l0 -10 -10 0 -10 0 0 10
0 10 10 0 10 0 0 -10z m40 0 l0 -10 -10 0 -10 0 0 10 0 10 10 0 10 0 0 -10z
m30 6 l0 -5 -10 -6 -10 -6 0 10 0 11 10 0 10 0 0 -4z m-260 -26 l14 -9 -7 -7
-7 -7 -14 12 -14 12 -5 -13 -4 -13 -9 8 -8 8 14 9 15 10 5 0 5 0 15 -10z m120
-10 l0 -10 -10 0 -10 0 0 10 0 10 10 0 10 0 0 -10z m70 0 l0 -10 -10 0 -10 0
0 10 0 10 10 0 10 0 0 -10z m40 6 l0 -5 -10 -6 -10 -6 0 10 0 11 10 0 10 0 0
-4z m-323 -47 l11 -11 -5 -18 -5 -19 -14 6 -14 5 0 -10 0 -10 13 -5 12 -4 -7
-8 -8 -8 -14 12 -15 12 1 22 2 22 9 13 9 12 7 0 7 0 11 -11z m173 7 l0 -5 -10
-6 -10 -6 0 10 0 11 10 0 10 0 0 -4z m110 -6 l0 -10 -10 0 -10 0 0 10 0 10 10
0 10 0 0 -10z m35 0 l6 -10 -10 0 -11 0 0 10 0 10 4 0 5 0 6 -10z m-100 -40
l6 -10 -15 6 -16 6 0 4 0 4 9 0 10 0 6 -10z m-185 -30 l0 -10 -4 0 -5 0 -6 10
-6 10 10 0 11 0 0 -10z m70 0 l0 -10 -10 0 -10 0 0 10 0 10 10 0 10 0 0 -10z
m110 0 l0 -10 -10 0 -10 0 0 10 0 10 10 0 10 0 0 -10z m-240 -18 l0 -8 -29
-28 -29 -28 -26 18 -25 19 -1 8 0 7 7 0 6 0 20 -17 19 -18 22 27 21 27 8 0 7
1 0 -8z m-120 -22 l0 -10 -10 0 -10 0 0 10 0 10 10 0 10 0 0 -10z m132 -8
l-13 -4 12 -14 11 -14 -11 0 -11 0 0 10 0 10 -9 0 -9 0 0 -22 -1 -23 -4 -22
-3 -21 -12 -15 -12 -14 5 -15 6 -15 -16 -16 -15 -16 11 -7 11 -6 -13 -9 -14
-9 14 -9 13 -8 -12 -8 -11 -7 6 -16 6 -16 -19 17 -19 18 -9 -2 -9 -1 -12 1
-13 1 0 12 0 12 11 -11 12 -12 14 15 14 14 -14 14 -14 15 -12 -12 -11 -11 0
12 0 12 13 1 12 1 14 -1 13 -2 -13 14 -14 15 -12 -10 -13 -10 0 10 0 10 13 6
12 6 -12 6 -13 6 0 9 0 8 17 -6 16 -6 -7 12 -8 13 22 20 22 21 9 -14 8 -13 8
7 7 8 -13 8 -14 9 38 41 38 40 10 -6 11 -7 -12 -4z m48 8 l0 -10 -11 0 -10 0
6 10 6 10 5 0 4 0 0 -10z m140 0 l0 -10 -11 0 -10 0 6 10 6 10 5 0 4 0 0 -10z
m40 0 l0 -10 -10 0 -10 0 0 10 0 10 10 0 10 0 0 -10z m-360 -30 l0 -10 -10 0
-10 0 0 10 0 10 10 0 10 0 0 -10z m40 -6 l13 -15 -16 -16 -17 -17 -7 8 -7 7
14 10 15 11 -12 5 -13 5 0 9 0 9 9 0 9 0 12 -16z m280 6 l0 -10 -11 0 -10 0 6
10 6 10 5 0 4 0 0 -10z m35 0 l6 -10 -10 0 -11 0 0 10 0 10 4 0 5 0 6 -10z
m-355 -40 l0 -10 -10 0 -10 0 0 10 0 10 10 0 10 0 0 -10z m130 -5 l-12 -14 8
-13 7 -13 -12 11 -12 11 7 16 6 17 10 0 10 0 -12 -15z m120 11 l0 -5 -10 -6
-10 -6 0 10 0 11 10 0 10 0 0 -4z m70 -6 l0 -10 -4 0 -5 0 -6 10 -6 10 10 0
11 0 0 -10z m40 6 l0 -5 -10 -6 -10 -6 0 10 0 11 10 0 10 0 0 -4z m-129 -64
l24 -27 -27 24 -27 23 -10 -6 -10 -6 -5 8 -5 8 19 1 18 2 23 -27z m-126 -46
l0 -54 -6 4 -7 4 3 47 3 48 1 3 1 2 3 0 2 0 0 -54z m-145 34 l0 -10 -10 0 -10
0 0 10 0 10 10 0 10 0 0 -10z m220 0 l0 -10 -11 0 -10 0 6 10 6 10 5 0 4 0 0
-10z m30 0 l0 -10 -10 0 -10 0 0 10 0 10 10 0 10 0 0 -10z m110 0 l0 -10 -11
0 -10 0 6 10 6 10 5 0 4 0 0 -10z m-360 -39 l0 -9 -15 -6 -15 -5 0 8 0 8 7 6
6 7 9 0 8 0 0 -9z m220 -1 l0 -10 -4 0 -5 0 -6 10 -6 10 10 0 11 0 0 -10z m30
0 l0 -10 -10 0 -10 0 0 10 0 10 10 0 10 0 0 -10z m-250 -29 l0 -9 -12 -5 -13
-5 15 -11 15 -11 -15 -10 -15 -10 14 -9 13 -9 -13 -5 -14 -5 15 -11 15 -11
-15 -10 -15 -10 15 -11 15 -11 -12 -5 -13 -5 0 -10 0 -10 14 5 14 6 -3 -27 -3
-27 21 -22 20 -23 -12 0 -13 0 11 -14 12 -14 -14 -5 -14 -5 3 28 3 28 -14 12
-14 12 -8 -5 -8 -5 1 116 1 117 2 8 1 7 10 0 10 0 0 -9z m220 -1 l0 -10 -4 0
-5 0 -6 10 -6 10 10 0 11 0 0 -10z m30 0 l0 -10 -10 0 -10 0 0 10 0 10 10 0
10 0 0 -10z m-125 -58 l-19 -17 13 17 13 17 -8 13 -7 13 14 -13 13 -12 -19
-18z m95 18 l0 -10 -11 0 -10 0 6 10 6 10 5 0 4 0 0 -10z m30 0 l0 -10 -10 0
-10 0 0 10 0 10 10 0 10 0 0 -10z m-122 -48 l-23 -29 -26 21 -26 21 3 4 4 4
20 -18 21 -19 22 22 21 22 4 0 4 0 -24 -28z m-88 -16 l0 -5 -10 -6 -10 -6 0
10 0 11 10 0 10 0 0 -4z m30 -6 l0 -10 -10 0 -10 0 0 10 0 10 10 0 10 0 0 -10z
m150 0 l0 -10 -4 0 -5 0 -6 10 -6 10 10 0 11 0 0 -10z m30 0 l0 -10 -4 0 -5 0
-6 10 -6 10 10 0 11 0 0 -10z m-300 -20 l0 -10 -10 0 -10 0 0 10 0 10 10 0 10
0 0 -10z m126 -19 l0 -20 -14 11 -13 11 13 8 13 9 0 0 1 0 0 -19z m-41 -1 l6
-10 -10 0 -11 0 0 10 0 10 4 0 5 0 6 -10z m75 0 l0 -10 -11 0 -10 0 6 10 6 10
5 0 4 0 0 -10z m21 -13 l-12 -12 7 18 6 18 6 -6 6 -5 -13 -13z m-233 -64 l13
-13 -31 -30 -32 -31 -6 5 -6 6 18 13 17 13 -7 17 -6 17 -9 0 -9 0 0 -9 0 -9
13 -5 12 -4 -8 -9 -7 -8 -17 17 -16 16 12 15 12 15 22 -2 22 -1 13 -13z m212
7 l0 -10 -4 0 -5 0 -6 10 -6 10 10 0 11 0 0 -10z m-110 -40 l0 -10 -10 0 -10
0 0 10 0 10 10 0 10 0 0 -10z m110 0 l0 -10 -10 0 -10 0 0 10 0 10 10 0 10 0
0 -10z m-280 -36 l13 -15 -16 -17 -17 -16 -17 16 -16 17 13 15 12 16 8 0 8 0
12 -16z m170 6 l0 -10 -10 0 -10 0 0 10 0 10 10 0 10 0 0 -10z m110 0 l0 -10
-10 0 -10 0 0 10 0 10 10 0 10 0 0 -10z m-250 -36 l0 -5 -15 -16 -16 -15 -5 5
-6 6 13 15 14 15 8 1 7 0 0 -6z m140 -4 l0 -10 -4 0 -5 0 -6 10 -6 10 10 0 11
0 0 -10z m40 0 l0 -10 -10 0 -10 0 0 10 0 10 10 0 10 0 0 -10z m70 0 l0 -10
-4 0 -5 0 -6 10 -6 10 10 0 11 0 0 -10z m-147 -65 l-5 -16 -5 5 -5 5 7 10 6
11 4 0 4 0 -6 -15z m72 -5 l6 -10 -10 0 -11 0 0 10 0 10 4 0 5 0 6 -10z m30 0
l6 -10 -10 0 -11 0 0 10 0 10 4 0 5 0 6 -10z m-135 -40 l0 -10 -10 0 -10 0 0
10 0 10 10 0 10 0 0 -10z m0 -30 l0 -10 -10 0 -10 0 0 10 0 10 10 0 10 0 0
-10z m70 0 l0 -10 -10 0 -10 0 0 10 0 10 10 0 10 0 0 -10z m-110 -40 l0 -10
-4 0 -5 0 -6 10 -6 10 10 0 11 0 0 -10z m110 0 l0 -10 -11 0 -10 0 6 10 6 10
5 0 4 0 0 -10z"/>
<path d="M551 1194 l-13 -15 6 -6 5 -5 16 15 15 16 0 5 0 6 -7 0 -8 -1 -14
-15z"/>
<path d="M430 1070 l0 -10 10 0 10 0 0 10 0 10 -10 0 -10 0 0 -10z"/>
<path d="M393 924 l-13 -13 0 -6 0 -5 9 0 9 0 6 16 6 17 -2 2 -3 3 -12 -14z"/>
<path d="M328 869 l-12 -8 25 -19 24 -20 -8 -8 -8 -8 -9 14 -9 14 -7 -6 -6 -7
16 -16 16 -16 17 16 16 17 -14 8 -13 9 21 19 22 19 -29 0 -29 0 -13 -8z m32
-9 l0 -10 -10 0 -10 0 0 10 0 10 10 0 10 0 0 -10z"/>
<path d="M340 770 l0 -10 10 0 10 0 0 10 0 10 -10 0 -10 0 0 -10z"/>
<path d="M340 730 l0 -10 10 0 10 0 0 10 0 10 -10 0 -10 0 0 -10z"/>
<path d="M250 570 l0 -10 10 0 10 0 0 10 0 10 -10 0 -10 0 0 -10z"/>
<path d="M140 530 l0 -10 10 0 10 0 0 10 0 10 -10 0 -10 0 0 -10z"/>
<path d="M70 460 l0 -10 10 0 10 0 0 10 0 10 -10 0 -10 0 0 -10z"/>
<path d="M500 1250 l0 -10 10 0 10 0 0 10 0 10 -10 0 -10 0 0 -10z"/>
<path d="M610 1250 l0 -10 10 0 10 0 0 10 0 10 -10 0 -10 0 0 -10z"/>
<path d="M443 1233 l-13 -5 0 -9 0 -9 9 0 9 0 6 15 5 15 -2 -1 -2 -1 -12 -5z"/>
<path d="M470 1220 l0 -10 10 0 10 0 0 10 0 10 -10 0 -10 0 0 -10z"/>
<path d="M500 1220 l0 -10 10 0 10 0 0 10 0 10 -10 0 -10 0 0 -10z"/>
<path d="M621 1194 l-13 -15 6 -6 5 -5 16 15 15 16 0 5 0 6 -7 0 -8 -1 -14
-15z"/>
<path d="M365 1180 l-6 -10 10 0 11 0 0 10 0 10 -4 0 -5 0 -6 -10z"/>
<path d="M430 1180 l0 -10 10 0 10 0 0 10 0 10 -10 0 -10 0 0 -10z"/>
<path d="M430 1146 l10 -10 10 10 10 10 -20 0 -20 0 10 -10z"/>
<path d="M394 1110 l0 -20 10 10 10 10 -10 10 -10 10 0 -20z"/>
<path d="M290 1109 l0 -10 10 6 10 6 0 5 0 4 -10 0 -10 0 0 -11z"/>
<path d="M320 1109 l0 -10 10 6 10 6 0 5 0 4 -10 0 -10 0 0 -11z"/>
<path d="M360 1110 l0 -10 10 0 10 0 0 10 0 10 -10 0 -10 0 0 -10z"/>
<path d="M255 1070 l-6 -10 10 0 11 0 0 10 0 10 -4 0 -5 0 -6 -10z"/>
<path d="M290 1070 l0 -10 11 0 10 0 -6 10 -6 10 -5 0 -4 0 0 -10z"/>
<path d="M320 1070 l0 -10 10 0 10 0 0 10 0 10 -10 0 -10 0 0 -10z"/>
<path d="M360 1070 l0 -10 10 0 10 0 0 10 0 10 -10 0 -10 0 0 -10z"/>
<path d="M255 1040 l-6 -10 10 0 11 0 0 10 0 10 -4 0 -5 0 -6 -10z"/>
<path d="M290 1040 l0 -10 10 0 10 0 0 10 0 10 -10 0 -10 0 0 -10z"/>
<path d="M360 1000 l0 -10 10 0 10 0 0 10 0 10 -10 0 -10 0 0 -10z"/>
<path d="M180 890 l0 -10 10 0 10 0 0 10 0 10 -10 0 -10 0 0 -10z"/>
<path d="M145 860 l6 -10 5 0 4 0 0 10 0 10 -11 0 -10 0 6 -10z"/>
<path d="M180 860 l0 -10 10 0 10 0 0 10 0 10 -10 0 -10 0 0 -10z"/>
<path d="M115 820 l-6 -10 10 0 11 0 0 10 0 10 -4 0 -5 0 -6 -10z"/>
<path d="M145 820 l-6 -10 10 0 11 0 0 10 0 10 -4 0 -5 0 -6 -10z"/>
<path d="M180 820 l0 -10 10 0 10 0 0 10 0 10 -10 0 -10 0 0 -10z"/>
<path d="M180 786 l10 -10 10 10 10 10 -20 0 -20 0 10 -10z"/>
<path d="M186 754 l-16 -15 0 -5 0 -5 10 6 11 7 17 -14 17 -13 -13 17 -14 17
7 11 6 10 -5 0 -5 0 -15 -16z"/>
<path d="M110 750 l0 -10 10 0 10 0 0 10 0 10 -10 0 -10 0 0 -10z"/>
<path d="M140 750 l0 -10 10 0 10 0 0 10 0 10 -10 0 -10 0 0 -10z"/>
<path d="M70 710 l0 -10 11 0 10 0 -6 10 -6 10 -5 0 -4 0 0 -10z"/>
<path d="M110 710 l0 -10 10 0 10 0 0 10 0 10 -10 0 -10 0 0 -10z"/>
<path d="M140 710 l0 -10 10 0 10 0 0 10 0 10 -10 0 -10 0 0 -10z"/>
<path d="M180 710 l0 -10 10 0 10 0 0 10 0 10 -10 0 -10 0 0 -10z"/>
<path d="M70 680 l0 -10 10 0 10 0 0 10 0 10 -10 0 -10 0 0 -10z"/>
<path d="M110 680 l0 -10 10 0 10 0 0 10 0 10 -10 0 -10 0 0 -10z"/>
<path d="M180 680 l0 -10 10 0 10 0 0 10 0 10 -10 0 -10 0 0 -10z"/>
<path d="M70 640 l0 -10 10 0 10 0 0 10 0 10 -10 0 -10 0 0 -10z"/>
<path d="M110 640 l0 -10 10 0 10 0 0 10 0 10 -10 0 -10 0 0 -10z"/>
<path d="M140 640 l0 -10 10 0 10 0 0 10 0 10 -10 0 -10 0 0 -10z"/>
<path d="M70 600 l0 -10 10 0 10 0 0 10 0 10 -10 0 -10 0 0 -10z"/>
<path d="M110 601 l0 -9 14 -5 15 -6 -6 15 -5 14 -9 0 -9 0 0 -9z"/>
<path d="M180 600 l0 -10 10 0 10 0 0 10 0 10 -10 0 -10 0 0 -10z"/>
<path d="M70 570 l0 -10 10 0 10 0 0 10 0 10 -10 0 -10 0 0 -10z"/>
<path d="M34 530 l0 -20 10 10 10 10 -10 10 -10 10 0 -20z"/>
<path d="M200 510 l0 -10 13 0 12 0 -15 -10 -14 -9 7 -8 8 -7 9 13 8 14 -5 14
-5 13 -9 0 -9 0 0 -10z"/>
<path d="M160 480 l0 -10 10 0 10 0 0 10 0 10 -10 0 -10 0 0 -10z"/>
<path d="M140 460 l0 -10 10 0 10 0 0 10 0 10 -10 0 -10 0 0 -10z"/>
<path d="M170 454 l-13 -15 16 -17 17 -16 17 16 16 17 -13 15 -12 16 -8 0 -8
0 -12 -16z m30 -14 l0 -10 -10 0 -10 0 0 10 0 10 10 0 10 0 0 -10z"/>
<path d="M122 402 l-23 -26 -9 14 -9 14 -7 -6 -7 -7 34 -32 34 -32 -12 -4 -12
-4 11 -13 12 -13 12 11 12 11 -11 7 -11 7 24 19 24 19 -18 18 -18 18 -9 -14
-9 -14 0 13 0 13 15 5 15 6 0 9 0 9 -7 -1 -8 0 -23 -27z m8 -34 l0 -13 10 15
9 14 6 -6 7 -7 -13 -14 -13 -14 -13 13 -13 13 0 5 0 6 10 0 10 0 0 -12z"/>
</g>
</svg>
