<?xml version="1.0" standalone="no"?>
<!DOCTYPE svg PUBLIC "-//W3C//DTD SVG 20010904//EN"
 "http://www.w3.org/TR/2001/REC-SVG-20010904/DTD/svg10.dtd">
<svg version="1.0" xmlns="http://www.w3.org/2000/svg"
 width="468pt" height="468pt" viewBox="0 0 468 468"
 preserveAspectRatio="xMidYMid meet">
<metadata>
Created by potrace 1.8, written by Peter Selinger 2001-2007
</metadata>
<g transform="translate(0,468) scale(0.365625,-0.365625)"
fill="#000000" stroke="none">
<path d="M50 1200 l0 -30 30 0 30 0 0 30 0 30 -30 0 -30 0 0 -30z"/>
<path d="M480 1200 l0 -30 25 0 25 0 0 30 0 30 -25 0 -25 0 0 -30z"/>
<path d="M640 1200 l0 -30 25 0 25 0 0 30 0 30 -25 0 -25 0 0 -30z"/>
<path d="M1070 1200 l0 -30 25 0 25 0 0 30 0 30 -25 0 -25 0 0 -30z"/>
<path d="M210 1145 l0 -25 -25 0 -25 0 0 -25 0 -25 25 0 25 0 0 25 0 25 30 0
30 0 0 -25 0 -25 50 0 50 0 0 25 0 25 -25 0 -25 0 0 25 0 25 -55 0 -55 0 0
-25z"/>
<path d="M910 1145 l0 -25 25 0 25 0 0 25 0 25 -25 0 -25 0 0 -25z"/>
<path d="M800 1095 l0 -25 -25 0 -25 0 0 -30 0 -30 25 0 25 0 0 30 0 30 25 0
25 0 0 -30 0 -30 30 0 30 0 0 30 0 30 -30 0 -30 0 0 25 0 25 -25 0 -25 0 0
-25z"/>
<path d="M590 1040 l0 -30 25 0 25 0 0 30 0 30 -25 0 -25 0 0 -30z"/>
<path d="M1170 1040 l0 -30 30 0 30 0 0 30 0 30 -30 0 -30 0 0 -30z"/>
<path d="M370 935 l0 -25 30 0 30 0 0 25 0 25 -30 0 -30 0 0 -25z"/>
<path d="M690 880 l0 -30 30 0 30 0 0 30 0 30 -30 0 -30 0 0 -30z"/>
<path d="M910 880 l0 -30 25 0 25 0 0 30 0 30 -25 0 -25 0 0 -30z"/>
<path d="M0 825 l0 -25 25 0 25 0 0 25 0 25 -25 0 -25 0 0 -25z"/>
<path d="M160 825 l0 -25 -25 0 -25 0 0 -25 0 -25 50 0 50 0 0 25 0 25 30 0
30 0 0 -25 0 -25 25 0 25 0 0 25 0 25 -25 0 -25 0 0 25 0 25 -55 0 -55 0 0
-25z"/>
<path d="M370 720 l0 -30 30 0 30 0 0 30 0 30 -30 0 -30 0 0 -30z"/>
<path d="M1170 720 l0 -30 30 0 30 0 0 30 0 30 -30 0 -30 0 0 -30z"/>
<path d="M210 665 l0 -25 30 0 30 0 0 25 0 25 -30 0 -30 0 0 -25z"/>
<path d="M640 665 l0 -25 25 0 25 0 0 25 0 25 -25 0 -25 0 0 -25z"/>
<path d="M800 665 l0 -25 25 0 25 0 0 25 0 25 -25 0 -25 0 0 -25z"/>
<path d="M1010 665 l0 -25 30 0 30 0 0 25 0 25 -30 0 -30 0 0 -25z"/>
<path d="M850 560 l0 -30 -25 0 -25 0 0 -25 0 -25 25 0 25 0 0 25 0 25 30 0
30 0 0 -25 0 -25 25 0 25 0 0 55 0 55 -55 0 -55 0 0 -30z"/>
<path d="M50 505 l0 -25 30 0 30 0 0 25 0 25 -30 0 -30 0 0 -25z"/>
<path d="M430 505 l0 -25 25 0 25 0 0 25 0 25 -25 0 -25 0 0 -25z"/>
<path d="M1070 505 l0 -25 25 0 25 0 0 25 0 25 -25 0 -25 0 0 -25z"/>
<path d="M690 455 l0 -25 30 0 30 0 0 25 0 25 -30 0 -30 0 0 -25z"/>
<path d="M210 345 l0 -25 -25 0 -25 0 0 -25 0 -25 55 0 55 0 0 25 0 25 50 0
50 0 0 -25 0 -25 30 0 30 0 0 25 0 25 -30 0 -30 0 0 25 0 25 -80 0 -80 0 0
-25z"/>
<path d="M530 345 l0 -25 30 0 30 0 0 25 0 25 -30 0 -30 0 0 -25z"/>
<path d="M1120 345 l0 -25 25 0 25 0 0 25 0 25 -25 0 -25 0 0 -25z"/>
<path d="M800 240 l0 -30 -25 0 -25 0 0 -50 0 -50 50 0 50 0 0 25 0 25 -25 0
-25 0 0 25 0 25 55 0 55 0 0 -25 0 -25 25 0 25 0 0 25 0 25 -25 0 -25 0 0 30
0 30 -55 0 -55 0 0 -30z"/>
<path d="M480 185 l0 -25 25 0 25 0 0 25 0 25 -25 0 -25 0 0 -25z"/>
<path d="M160 135 l0 -25 25 0 25 0 0 25 0 25 -25 0 -25 0 0 -25z"/>
<path d="M1010 135 l0 -25 30 0 30 0 0 25 0 25 -30 0 -30 0 0 -25z"/>
<path d="M640 25 l0 -25 25 0 25 0 0 25 0 25 -25 0 -25 0 0 -25z"/>
<path d="M1070 25 l0 -25 25 0 25 0 0 25 0 25 -25 0 -25 0 0 -25z"/>
</g>
</svg>
