<?xml version="1.0" standalone="no"?>
<!DOCTYPE svg PUBLIC "-//W3C//DTD SVG 20010904//EN"
 "http://www.w3.org/TR/2001/REC-SVG-20010904/DTD/svg10.dtd">
<svg version="1.0" xmlns="http://www.w3.org/2000/svg"
 width="468pt" height="468pt" viewBox="0 0 468 468"
 preserveAspectRatio="xMidYMid meet">
<metadata>
Created by potrace 1.8, written by Peter Selinger 2001-2007
</metadata>
<g transform="translate(0,468) scale(0.365625,-0.365625)"
fill="#000000" stroke="none">
<path d="M430 1245 l0 -35 -75 0 -75 0 0 -35 0 -35 -35 0 -35 0 0 -35 0 -35
-35 0 -35 0 0 -35 0 -35 -35 0 -35 0 0 -75 0 -75 -35 0 -35 0 0 -210 0 -210
35 0 35 0 0 -75 0 -75 35 0 35 0 0 -35 0 -35 35 0 35 0 0 -35 0 -35 35 0 35 0
0 -35 0 -35 75 0 75 0 0 -35 0 -35 210 0 210 0 0 35 0 35 75 0 75 0 0 35 0 35
35 0 35 0 0 35 0 35 35 0 35 0 0 35 0 35 35 0 35 0 0 75 0 75 35 0 35 0 0 210
0 210 -35 0 -35 0 0 75 0 75 -35 0 -35 0 0 35 0 35 -35 0 -35 0 0 35 0 35 -35
0 -35 0 0 35 0 35 -75 0 -75 0 0 35 0 35 -210 0 -210 0 0 -35z m140 -70 l0
-35 70 0 70 0 0 -70 0 -70 35 0 35 0 0 105 0 105 35 0 35 0 0 -35 0 -35 35 0
35 0 0 -70 0 -70 -35 0 -35 0 0 -75 0 -75 35 0 35 0 0 -35 0 -35 40 0 40 0 0
35 0 35 105 0 105 0 0 -35 0 -35 -105 0 -105 0 0 -35 0 -35 -40 0 -40 0 0
-105 0 -105 40 0 40 0 0 -35 0 -35 70 0 70 0 0 -75 0 -75 -35 0 -35 0 0 -35 0
-35 -35 0 -35 0 0 -35 0 -35 -75 0 -75 0 0 -35 0 -35 -70 0 -70 0 0 105 0 105
35 0 35 0 0 75 0 75 -140 0 -140 0 0 70 0 70 35 0 35 0 0 105 0 105 70 0 70 0
0 70 0 70 -70 0 -70 0 0 -35 0 -35 -35 0 -35 0 0 -35 0 -35 -35 0 -35 0 0 35
0 35 35 0 35 0 0 35 0 35 35 0 35 0 0 40 0 40 -35 0 -35 0 0 70 0 70 -35 0
-35 0 0 35 0 35 70 0 70 0 0 -35z m-210 -105 l0 -70 35 0 35 0 0 -40 0 -40
-35 0 -35 0 0 40 0 40 -40 0 -40 0 0 70 0 70 40 0 40 0 0 -70z m-220 -360 l0
-140 70 0 70 0 0 -35 0 -35 40 0 40 0 0 -35 0 -35 35 0 35 0 0 -75 0 -75 35 0
35 0 0 -105 0 -105 -35 0 -35 0 0 35 0 35 -75 0 -75 0 0 35 0 35 -35 0 -35 0
0 35 0 35 -35 0 -35 0 0 75 0 75 -35 0 -35 0 0 210 0 210 35 0 35 0 0 -140z"/>
<path d="M570 535 l0 -35 70 0 70 0 0 35 0 35 -70 0 -70 0 0 -35z"/>
</g>
</svg>
