<?xml version="1.0" standalone="no"?>
<!DOCTYPE svg PUBLIC "-//W3C//DTD SVG 20010904//EN"
 "http://www.w3.org/TR/2001/REC-SVG-20010904/DTD/svg10.dtd">
<svg version="1.0" xmlns="http://www.w3.org/2000/svg"
 width="468pt" height="468pt" viewBox="0 0 468 468"
 preserveAspectRatio="xMidYMid meet">
<metadata>
Created by potrace 1.8, written by Peter Selinger 2001-2007
</metadata>
<g transform="translate(0,468) scale(0.365625,-0.365625)"
fill="#000000" stroke="none">
<path d="M700 1260 l0 -20 -80 0 -80 0 0 -30 0 -30 30 0 30 0 0 10 0 10 38 0
38 0 14 -20 14 -20 14 0 13 0 34 -35 35 -34 0 -21 0 -21 25 -24 24 -25 13 0
14 0 14 -20 14 -20 13 0 14 0 44 -45 45 -44 0 -16 0 -15 20 0 20 0 0 -10 0
-10 30 0 30 0 0 -10 0 -10 20 0 20 0 0 -16 0 -16 43 -40 42 -41 -12 -4 -13 -5
0 -139 0 -139 -10 0 -10 0 0 -20 0 -20 -10 0 -10 0 0 -20 0 -20 -10 0 -10 0 0
-16 0 -15 -61 -60 -61 -60 7 -7 8 -7 4 13 5 12 14 0 15 0 24 25 25 24 0 13 0
14 20 14 20 14 0 16 0 16 20 14 20 14 0 28 0 28 10 0 10 0 0 30 0 30 10 0 10
0 0 50 0 50 10 0 10 0 0 80 0 80 -10 0 -10 0 0 20 0 20 -10 0 -10 0 0 -10 0
-10 -16 0 -15 0 -15 14 -14 15 0 25 0 26 -20 0 -20 0 0 30 0 30 -10 0 -10 0 0
-20 0 -20 -5 0 -6 0 -24 25 -25 24 0 36 0 35 30 0 30 0 0 40 0 40 -10 0 -10 0
0 25 0 26 -25 24 -24 25 -13 0 -14 0 -14 20 -14 20 -17 0 -17 0 -6 -12 -6 -13
-6 13 -6 12 -15 0 -14 0 -15 14 -14 15 0 15 0 16 -20 0 -20 0 0 10 0 10 -50 0
-50 0 0 10 0 10 -20 0 -20 0 0 -20z"/>
<path d="M400 1230 l0 -10 -30 0 -30 0 0 -20 0 -20 -10 0 -10 0 0 -10 0 -10
18 0 18 0 14 20 14 20 28 0 28 0 0 10 0 10 40 0 40 0 0 10 0 10 -60 0 -60 0 0
-10z"/>
<path d="M900 1210 l0 -10 19 0 19 0 5 -12 4 -13 8 7 7 7 -15 16 -16 15 -15 0
-16 0 0 -10z"/>
<path d="M260 1150 l0 -10 10 0 10 0 0 10 0 10 -10 0 -10 0 0 -10z"/>
<path d="M192 1104 l-34 -35 5 -6 6 -5 35 36 36 35 0 6 0 5 -7 -1 -8 0 -33
-35z"/>
<path d="M111 1004 l-13 -15 6 -6 5 -5 16 15 15 16 0 5 0 6 -7 0 -8 -1 -14
-15z"/>
<path d="M0 594 l0 -25 15 -15 15 -15 16 15 15 16 -25 25 -25 25 -6 0 -5 0 0
-26z"/>
<path d="M20 460 l0 -20 10 0 10 0 0 -20 0 -20 10 0 10 0 0 -28 0 -28 20 -14
20 -14 0 -14 0 -13 25 -24 24 -25 16 0 15 0 0 10 0 10 -10 0 -10 0 0 20 0 20
-10 0 -10 0 0 20 0 20 -10 0 -10 0 0 18 0 18 -20 14 -20 14 0 18 0 18 -10 0
-10 0 0 20 0 20 -20 0 -20 0 0 -20z"/>
<path d="M300 250 l0 -10 10 0 10 0 0 10 0 10 -10 0 -10 0 0 -10z"/>
<path d="M180 210 l0 -10 10 0 10 0 0 10 0 10 -10 0 -10 0 0 -10z"/>
<path d="M300 200 l0 -20 10 0 10 0 0 20 0 20 -10 0 -10 0 0 -20z"/>
<path d="M460 30 l0 -10 10 0 10 0 0 10 0 10 -10 0 -10 0 0 -10z"/>
<path d="M600 10 l0 -10 70 0 70 0 0 10 0 10 -70 0 -70 0 0 -10z"/>
</g>
</svg>
