<?xml version="1.0" standalone="no"?>
<!DOCTYPE svg PUBLIC "-//W3C//DTD SVG 20010904//EN"
 "http://www.w3.org/TR/2001/REC-SVG-20010904/DTD/svg10.dtd">
<svg version="1.0" xmlns="http://www.w3.org/2000/svg"
 width="468pt" height="468pt" viewBox="0 0 468 468"
 preserveAspectRatio="xMidYMid meet">
<metadata>
Created by potrace 1.8, written by Peter Selinger 2001-2007
</metadata>
<g transform="translate(0,468) scale(0.365625,-0.365625)"
fill="#000000" stroke="none">
<path d="M500 1250 l0 -10 -20 0 -20 0 0 -10 0 -10 -20 0 -20 0 0 -10 0 -10
-20 0 -20 0 0 -10 0 -10 -20 0 -20 0 0 -10 0 -10 -20 0 -20 0 0 -10 0 -10 -15
0 -16 0 -24 -25 -25 -24 0 -31 0 -31 14 -15 15 -14 25 0 26 0 0 -10 0 -10 18
0 18 0 14 -20 14 -20 16 0 16 0 14 -20 14 -20 16 0 16 0 14 -20 14 -20 18 0
18 0 0 -6 0 -5 -14 -15 -15 -14 -15 0 -16 0 0 10 0 10 -20 0 -20 0 0 10 0 10
-18 0 -18 0 -14 20 -14 20 -16 0 -16 0 -14 20 -14 20 -16 0 -16 0 -14 20 -14
20 -18 0 -18 0 0 10 0 10 -16 0 -15 0 -15 -14 -14 -15 0 -185 0 -186 10 0 10
0 0 -30 0 -30 50 0 50 0 0 10 0 10 18 0 18 0 14 20 14 20 18 0 18 0 0 10 0 10
16 0 16 0 29 31 29 31 15 -15 15 -16 0 -11 0 -11 -14 -15 -15 -14 -13 0 -14 0
-14 -20 -14 -20 -18 0 -18 0 0 -10 0 -10 -18 0 -18 0 -14 -20 -14 -20 -14 0
-13 0 -15 -14 -14 -15 0 -21 0 -21 25 -24 24 -25 12 0 11 0 28 -30 28 -30 12
0 12 0 28 -30 28 -30 16 0 16 0 0 -10 0 -10 20 0 20 0 0 -10 0 -10 26 0 25 0
15 14 14 15 0 165 0 166 30 0 30 0 0 -166 0 -165 14 -15 15 -14 25 0 26 0 0
10 0 10 20 0 20 0 0 10 0 10 18 0 18 0 14 20 14 20 18 0 18 0 0 10 0 10 18 0
18 0 14 20 14 20 18 0 18 0 0 10 0 10 16 0 15 0 15 14 14 15 0 35 0 36 -20 0
-20 0 0 10 0 10 -18 0 -18 0 -14 20 -14 20 -16 0 -16 0 -14 20 -14 20 -18 0
-18 0 0 10 0 10 -20 0 -20 0 0 20 0 20 38 0 38 0 14 -20 14 -20 16 0 16 0 14
-20 14 -20 16 0 16 0 14 -20 14 -20 48 0 48 0 0 30 0 30 10 0 10 0 0 186 0
185 -14 15 -15 14 -25 0 -26 0 0 -10 0 -10 -18 0 -18 0 -14 -20 -14 -20 -16 0
-16 0 -14 -20 -14 -20 -16 0 -16 0 -14 -20 -14 -20 -18 0 -18 0 0 -10 0 -10
-19 0 -19 0 -4 -12 -5 -13 -17 17 -17 18 25 25 25 25 13 0 14 0 14 20 14 20
16 0 16 0 14 20 14 20 14 0 13 0 15 14 14 15 0 15 0 16 -10 0 -10 0 0 -20 0
-20 -19 0 -19 0 -4 12 -5 13 -19 -19 -19 -19 13 -5 12 -4 0 -9 0 -9 -20 0 -20
0 0 -10 0 -10 -20 0 -20 0 0 9 0 9 13 5 12 4 -7 8 -7 7 -17 -17 -17 -17 13 -8
13 -8 -16 -16 -16 -16 -15 0 -16 0 0 9 0 9 13 5 12 4 -7 8 -7 7 -18 -18 -18
-17 13 -5 12 -4 0 -9 0 -9 -19 0 -19 0 -4 12 -5 13 -17 -18 -18 -18 6 -7 7 -6
9 14 9 14 7 -6 6 -7 -15 -16 -16 -15 -14 0 -15 0 -4 -12 -5 -13 -19 19 -19 19
13 5 12 4 0 14 0 15 25 24 24 25 13 0 14 0 14 20 14 20 18 0 18 0 0 10 0 10
20 0 20 0 0 10 0 10 28 0 28 0 14 20 14 20 18 0 18 0 0 10 0 10 20 0 20 0 0
10 0 10 30 0 30 0 0 -6 0 -7 -21 -18 -21 -18 16 -16 16 -16 15 15 15 15 0 35
0 36 -20 0 -20 0 0 10 0 10 -20 0 -20 0 0 10 0 10 -18 0 -18 0 -14 20 -14 20
-18 0 -18 0 0 10 0 10 -18 0 -18 0 -14 20 -14 20 -18 0 -18 0 0 10 0 10 -46 0
-45 0 -15 -14 -14 -15 0 -145 0 -146 -20 0 -20 0 0 146 0 145 -14 15 -15 14
-45 0 -46 0 0 -10z m80 -100 l0 -90 -10 0 -10 0 0 39 0 39 -12 6 -13 6 13 6
12 6 0 19 0 19 -8 0 -8 0 -14 -20 -14 -20 -18 0 -18 0 0 -10 0 -10 -20 0 -20
0 0 -10 0 -10 -20 0 -20 0 0 -10 0 -10 -19 0 -19 0 -4 -12 -5 -13 -16 17 -17
17 0 5 0 6 20 0 20 0 0 10 0 10 20 0 20 0 0 10 0 10 20 0 20 0 0 10 0 10 20 0
20 0 0 10 0 10 20 0 20 0 0 10 0 10 20 0 20 0 0 10 0 10 10 0 10 0 0 -90z
m160 80 l0 -10 -10 0 -10 0 0 10 0 10 10 0 10 0 0 -10z m40 -20 l0 -10 20 0
20 0 0 -10 0 -10 -16 0 -15 0 -15 14 -14 15 0 5 0 6 10 0 10 0 0 -10z m107
-65 l15 -16 -7 -7 -8 -7 -4 13 -5 12 -19 0 -19 0 0 10 0 10 16 0 15 0 16 -15z
m-387 -85 l0 -60 -8 0 -8 0 -14 20 -14 20 -18 0 -18 0 0 10 0 10 -20 0 -20 0
0 10 0 10 20 0 20 0 0 10 0 10 20 0 20 0 0 10 0 10 20 0 20 0 0 -60z m246 46
l14 -15 0 -45 0 -46 -10 0 -10 0 0 50 0 50 -10 0 -10 0 0 10 0 10 6 0 5 0 15
-14z m214 4 l0 -10 -20 0 -20 0 0 10 0 10 20 0 20 0 0 -10z m-150 -30 l14 -20
18 0 18 0 0 -10 0 -10 -18 0 -18 0 -14 -20 -14 -20 -8 0 -8 0 0 50 0 50 8 0 8
0 14 -20z m-230 -80 l0 -40 -10 0 -10 0 0 40 0 40 10 0 10 0 0 -40z m460 30
l0 -10 -10 0 -10 0 0 10 0 10 10 0 10 0 0 -10z m-120 -60 l0 -10 -10 0 -10 0
0 10 0 10 10 0 10 0 0 -10z m140 -56 l0 -7 -22 -18 -21 -19 6 -6 6 -7 30 32
29 31 16 0 16 0 0 -170 0 -170 -10 0 -10 0 0 -20 0 -20 -9 0 -9 0 -5 13 -5 12
-11 -15 -10 -14 -8 7 -7 8 14 10 15 9 -15 9 -14 10 24 22 25 22 -12 4 -13 5 0
75 0 76 22 18 21 19 -6 7 -7 6 -19 -21 -18 -22 -17 0 -16 0 0 -10 0 -10 -18 0
-18 0 -14 -20 -14 -20 -16 0 -16 0 -14 -20 -14 -20 -16 0 -16 0 -14 -20 -14
-20 -14 0 -13 0 -24 -25 -25 -24 0 -85 0 -84 -12 -5 -13 -5 15 -11 15 -11 -15
-10 -15 -10 15 -10 15 -10 -14 -9 -14 -9 17 -17 17 -17 18 21 18 21 14 0 15 0
14 20 14 20 16 0 16 0 14 20 14 20 15 0 14 0 18 21 18 21 16 -15 15 -16 0 -11
0 -11 -26 -26 -25 -25 -7 6 -6 7 14 9 14 9 -6 7 -7 6 -16 -15 -15 -16 0 -11 0
-11 -15 -16 -16 -15 -7 6 -6 7 14 9 14 9 -6 7 -7 6 -51 -52 -52 -53 -8 13 -8
14 -32 -34 -32 -34 -9 15 -9 14 -9 -15 -10 -14 -8 7 -7 8 14 10 15 9 -15 10
-15 10 15 10 15 10 -15 10 -15 10 15 10 15 10 -15 10 -15 10 15 10 15 10 -15
10 -15 10 15 10 15 10 -15 10 -15 10 15 10 15 10 -15 10 -15 10 15 10 15 10
-15 9 -14 10 23 21 24 20 -7 7 -7 7 -9 -14 -9 -14 -8 7 -7 8 14 10 15 9 -14 9
-14 9 53 52 52 51 -6 6 -5 6 -31 -33 -31 -33 -5 6 -6 6 36 35 35 36 12 0 12 0
18 22 19 21 7 -6 6 -7 -23 -20 -23 -20 6 -6 6 -6 71 72 71 72 6 -6 6 -6 -23
-20 -23 -20 6 -6 6 -6 58 60 58 61 8 0 7 1 0 -6z m-855 -69 l35 -34 0 -82 0
-82 -22 -19 -22 -19 14 -9 14 -9 -6 -7 -7 -6 -27 27 -27 27 14 9 14 9 -15 10
-15 10 15 10 15 10 -15 10 -15 10 15 10 15 10 -15 10 -15 10 15 10 15 10 -15
10 -15 10 15 10 15 10 -15 10 -15 10 15 11 15 11 -12 5 -13 5 0 9 0 9 5 0 6 0
34 -35z m375 -31 l0 -5 -15 -16 -16 -15 -5 5 -6 6 13 15 14 15 8 1 7 0 0 -6z
m-300 -24 l0 -10 16 0 15 0 15 -14 14 -15 0 -15 0 -16 -20 0 -20 0 0 -10 0
-10 -20 0 -20 0 0 50 0 50 10 0 10 0 0 -10z m340 0 l0 -10 19 0 19 0 4 12 5
13 16 -17 17 -17 0 -15 0 -16 -10 0 -10 0 0 -20 0 -20 -40 0 -40 0 0 20 0 20
-10 0 -10 0 0 15 0 16 13 14 12 14 8 1 7 0 0 -10z m400 -60 l0 -30 -19 0 -19
0 -5 13 -4 12 -8 -7 -8 -8 23 -20 23 -20 -6 -6 -6 -6 -26 26 -26 26 23 24 23
25 18 0 17 1 0 -30z m-460 0 l0 -10 -10 0 -10 0 0 -10 0 -10 20 0 20 0 0 -60
0 -60 -10 0 -10 0 0 -100 0 -100 10 0 10 0 0 -50 0 -50 -10 0 -10 0 0 -20 0
-20 -6 0 -7 0 -19 22 -19 22 -9 -13 -8 -14 -37 37 -37 37 6 6 5 6 30 -32 30
-32 27 26 26 26 -6 7 -7 6 -9 -14 -9 -14 -8 7 -7 8 14 10 15 9 -15 10 -15 10
15 10 15 10 -15 10 -15 10 15 10 15 10 -15 10 -15 10 15 10 15 10 -15 10 -15
10 15 10 15 10 -15 10 -15 10 15 10 15 10 -15 10 -15 10 15 10 15 10 -14 9
-15 9 33 31 33 31 -17 16 -16 16 -7 -6 -6 -7 14 -9 14 -9 -6 -7 -7 -6 -16 16
-16 16 23 24 23 25 8 0 7 1 0 -10z m-180 -36 l0 -5 -14 -15 -15 -14 -15 0 -16
0 0 -10 0 -10 -20 0 -20 0 0 -10 0 -10 -10 0 -10 0 0 20 0 20 20 0 20 0 0 10
0 10 20 0 20 0 0 10 0 10 20 0 20 0 0 -6z m260 -40 l0 -5 -14 -15 -15 -14 -5
0 -6 0 0 20 0 20 20 0 20 0 0 -6z m-160 -79 l0 -6 -25 -24 -24 -25 -16 0 -15
0 0 -10 0 -10 -20 0 -20 0 0 -10 0 -10 -20 0 -20 0 0 10 0 10 20 0 20 0 0 10
0 10 18 0 18 0 14 20 14 20 18 0 18 0 0 10 0 10 10 0 10 0 0 -5z m0 -125 l0
-30 -15 0 -16 0 -24 25 -25 24 0 6 0 5 40 0 40 0 0 -30z m366 15 l15 -15 -35
-35 -35 -35 -6 0 -5 0 0 50 0 50 26 0 25 0 15 -15z m-539 -40 l15 -16 -5 -6
-6 -5 -16 15 -15 16 0 5 0 6 6 0 5 0 16 -15z m70 -51 l25 -25 -5 -6 -6 -5 -25
25 -26 26 0 6 0 5 5 0 6 0 26 -26z"/>
<path d="M700 610 l0 -10 10 0 10 0 0 10 0 10 -10 0 -10 0 0 -10z"/>
<path d="M1060 590 l0 -10 10 0 10 0 0 10 0 10 -10 0 -10 0 0 -10z"/>
<path d="M811 324 l-13 -15 6 -6 5 -5 16 15 15 16 0 5 0 6 -7 0 -8 -1 -14 -15z"/>
<path d="M180 830 l0 -10 10 0 10 0 0 10 0 10 -10 0 -10 0 0 -10z"/>
<path d="M180 791 l0 -9 13 -5 12 -5 -15 -11 -15 -11 15 -10 15 -10 -15 -10
-15 -10 15 -10 15 -10 -15 -10 -15 -10 15 -10 15 -10 -15 -9 -14 -10 6 -7 7
-6 17 17 17 17 -14 9 -14 9 15 10 15 10 -15 10 -15 10 15 10 15 10 -15 10 -15
10 14 9 14 9 -16 16 -16 16 -5 0 -6 0 0 -9z"/>
<path d="M520 610 l0 -10 10 0 10 0 0 10 0 10 -10 0 -10 0 0 -10z"/>
<path d="M520 570 l0 -10 10 0 10 0 0 10 0 10 -10 0 -10 0 0 -10z"/>
<path d="M520 530 l0 -10 10 0 10 0 0 10 0 10 -10 0 -10 0 0 -10z"/>
<path d="M520 490 l0 -10 10 0 10 0 0 10 0 10 -10 0 -10 0 0 -10z"/>
<path d="M520 450 l0 -10 10 0 10 0 0 10 0 10 -10 0 -10 0 0 -10z"/>
<path d="M520 410 l0 -10 10 0 10 0 0 10 0 10 -10 0 -10 0 0 -10z"/>
<path d="M520 370 l0 -10 10 0 10 0 0 10 0 10 -10 0 -10 0 0 -10z"/>
<path d="M640 830 l0 -10 10 0 10 0 0 10 0 10 -10 0 -10 0 0 -10z"/>
<path d="M780 830 l0 -10 10 0 10 0 0 10 0 10 -10 0 -10 0 0 -10z"/>
<path d="M0 100 l0 -100 640 0 640 0 0 100 0 100 -640 0 -640 0 0 -100z"/>
</g>
</svg>
