<?xml version="1.0" standalone="no"?>
<!DOCTYPE svg PUBLIC "-//W3C//DTD SVG 20010904//EN"
 "http://www.w3.org/TR/2001/REC-SVG-20010904/DTD/svg10.dtd">
<svg version="1.0" xmlns="http://www.w3.org/2000/svg"
 width="468pt" height="468pt" viewBox="0 0 468 468"
 preserveAspectRatio="xMidYMid meet">
<metadata>
Created by potrace 1.8, written by Peter Selinger 2001-2007
</metadata>
<g transform="translate(0,468) scale(0.365625,-0.365625)"
fill="#000000" stroke="none">
<path d="M200 1260 l0 -10 10 0 10 0 0 10 0 10 -10 0 -10 0 0 -10z"/>
<path d="M420 1260 l0 -10 10 0 10 0 0 10 0 10 -10 0 -10 0 0 -10z"/>
<path d="M1160 1260 l0 -10 10 0 10 0 0 10 0 10 -10 0 -10 0 0 -10z"/>
<path d="M566 1213 l-20 -5 -14 -14 -13 -14 15 0 16 0 0 -9 0 -10 28 -4 27 -4
-32 -2 -33 -1 0 -10 0 -10 -32 0 -32 0 -58 -12 -58 -12 0 -8 0 -8 -13 0 -14 0
-23 -20 -23 -20 -14 0 -13 0 0 -12 0 -13 -8 12 -7 11 -28 7 -27 7 0 9 0 9 -20
0 -20 0 0 -10 0 -10 -25 -6 -25 -6 0 -8 0 -8 -25 -6 -26 -7 -22 -22 -22 -22 0
-45 0 -46 49 -47 50 -47 13 0 13 0 0 -10 0 -10 29 0 29 0 6 15 5 15 11 0 10 0
0 -19 0 -18 24 -26 24 -26 25 -6 26 -7 5 -14 5 -14 16 0 15 0 0 -8 0 -9 39
-11 38 -12 26 0 25 0 4 -11 4 -12 144 0 144 0 4 12 4 11 27 0 28 0 34 12 34
11 6 10 7 10 27 0 27 0 7 -10 6 -10 15 -5 15 -6 -27 -7 -28 -7 0 -9 0 -8 -50
-7 -50 -7 0 -8 0 -8 -27 -4 -28 -4 55 4 55 5 5 7 5 8 28 7 27 6 19 17 19 16
-5 13 -5 13 -29 6 -29 7 0 8 0 8 23 6 22 6 23 0 22 0 0 10 0 10 15 0 14 0 8
13 8 14 18 6 17 6 0 16 0 15 10 0 10 0 0 33 0 32 9 14 9 14 51 5 51 5 6 24 7
25 -33 30 -33 30 12 8 13 7 -55 -2 -55 -2 -32 -34 -31 -34 -14 19 -15 20 -7
-9 -8 -8 13 -4 12 -5 0 -9 0 -9 -24 0 -24 0 -4 -11 -4 -12 -52 -5 -52 -5 0 -7
0 -7 -36 -6 -36 -6 -14 -18 -13 -18 -1 -11 0 -11 18 1 18 1 18 18 18 17 10 -6
11 -7 15 19 14 19 5 -12 4 -12 15 12 15 12 12 11 13 12 42 7 42 7 0 7 0 7 30
11 30 11 0 16 0 16 15 0 15 0 0 10 0 10 20 0 20 0 0 -10 0 -10 14 0 13 0 27
-25 26 -24 0 -17 0 -16 -67 5 -67 4 -4 11 -3 11 -21 -21 -20 -20 13 -9 14 -8
1 -13 0 -13 8 -24 8 -23 -13 -24 -12 -24 -21 -6 -21 -7 -7 -10 -6 -10 -76 -3
-76 -3 -10 17 -11 17 -5 -12 -6 -13 -50 50 -50 50 -12 0 -11 0 -24 -25 -23
-25 -13 0 -13 0 -4 -12 -4 -12 -59 0 -59 0 -4 12 -4 12 -18 0 -19 0 -28 12
-28 13 -13 12 -13 12 -14 -5 -13 -6 -6 -13 -5 -13 -30 -7 -31 -7 0 -8 0 -9 12
-7 11 -7 13 18 14 19 7 -7 7 -7 -20 -15 -19 -15 19 -15 20 -15 -7 -6 -6 -6
-24 26 -25 27 -4 -8 -5 -8 4 14 3 13 -19 -5 -20 -5 -30 27 -31 28 0 11 0 12
-10 0 -10 0 0 30 0 30 10 0 10 0 0 -27 0 -28 24 -22 24 -23 26 0 26 0 0 18 0
17 -10 15 -10 15 -11 -17 -10 -18 -12 0 -12 0 15 11 15 11 -12 5 -13 5 35 35
35 36 0 14 0 13 10 0 10 0 0 -14 0 -14 -13 -5 -14 -5 0 -42 0 -41 8 13 8 12 8
-8 8 -9 -12 -4 -13 -5 0 -14 0 -14 10 0 10 0 0 10 0 10 13 0 13 0 16 19 17 20
20 -6 21 -5 0 -8 0 -8 30 -7 30 -7 0 -7 0 -8 45 -13 46 -13 39 13 40 13 0 9 0
8 15 0 14 0 20 21 19 21 11 -6 11 -7 -6 15 -6 16 -10 0 -10 0 -30 -30 -30 -30
-9 0 -10 0 -17 -16 -16 -16 -39 5 -40 5 -6 10 -6 10 -28 7 -27 7 0 9 0 9 -15
0 -16 0 -5 15 -6 15 -10 0 -11 0 -24 -27 -25 -26 -8 13 -8 13 5 14 5 13 12 0
11 0 -15 10 -15 10 14 9 14 9 14 -5 13 -5 6 16 6 16 13 0 13 0 4 -12 4 -11
184 0 184 0 4 11 4 12 37 0 38 0 51 10 51 9 21 21 20 20 -20 20 -20 20 -8 0
-9 0 -23 20 -23 20 -13 0 -12 0 -4 10 -3 11 -70 11 -70 11 -5 7 -5 7 -57 6
-58 6 13 -13 12 -12 105 -13 105 -12 3 -10 4 -9 16 0 17 0 -15 -11 -15 -11 12
-5 13 -5 -14 -13 -13 -14 -43 -3 -43 -3 -4 -12 -4 -12 35 -7 36 -6 45 6 45 7
6 25 6 24 9 0 9 0 0 -10 0 -10 15 0 15 0 0 -10 0 -10 -20 -20 -20 -20 -140
-12 -140 -12 0 -8 0 -8 -50 0 -50 0 0 10 0 10 -23 0 -23 0 -22 20 -22 21 0
-11 0 -10 -10 0 -10 0 0 10 0 10 25 6 25 6 0 12 0 11 8 -11 7 -11 25 -8 25 -8
7 -11 7 -11 56 1 56 0 7 11 7 10 20 7 20 6 14 22 14 22 -12 4 -11 4 -16 16
-16 16 6 -31 7 -31 -16 -16 -16 -16 -20 0 -19 0 0 -10 0 -10 -30 0 -30 0 0 9
0 9 -30 7 -30 7 -6 24 -6 24 -9 0 -9 0 0 -9 0 -9 -26 -6 -26 -7 -14 -13 -13
-14 13 -17 13 -18 9 6 10 6 13 -8 13 -8 -26 0 -26 0 -6 8 -5 8 -12 -3 -12 -3
8 4 7 5 0 9 0 9 -40 0 -40 0 0 -9 0 -9 13 -6 12 -6 -25 6 -25 7 -3 8 -4 9 -13
0 -14 0 -11 19 -10 20 25 27 25 27 0 -10 0 -11 15 -6 15 -5 19 20 19 21 10 -6
10 -6 16 16 16 15 0 -8 0 -9 -31 -27 -32 -28 6 -5 6 -6 23 25 23 25 16 20 17
20 28 -4 28 -3 13 10 12 11 11 -7 10 -6 0 15 0 16 10 0 10 0 0 15 0 15 -27 1
-28 1 18 5 17 4 0 10 0 9 44 0 44 0 4 -9 3 -10 30 -7 30 -7 -18 18 -19 18 -71
3 -72 3 -19 -6z m389 -153 l6 -20 -6 -10 -6 -10 -15 0 -14 0 0 -10 0 -10 -45
0 -45 0 0 10 0 10 28 0 27 0 23 6 23 7 -5 23 -6 24 14 0 15 0 6 -20z m-726
-29 l19 -19 7 -24 6 -23 -11 15 -12 15 -5 -12 -5 -13 -13 0 -13 0 -4 12 -5 13
-39 -1 -39 0 -27 -26 -28 -25 0 -18 0 -17 23 -24 22 -24 13 0 12 0 0 -9 0 -9
29 -7 29 -6 6 -15 6 -15 -15 -6 -16 -5 -30 6 -31 6 -39 39 -39 39 0 11 0 11
-10 0 -10 0 0 30 0 30 10 0 10 0 0 16 0 16 20 5 20 5 0 8 0 8 26 6 26 7 16 15
15 16 28 -6 28 -5 20 -20z m-59 -50 l0 -9 27 -7 27 -6 -11 -7 -11 -7 -7 -28
-7 -27 -9 0 -9 0 0 -15 0 -15 10 0 10 0 0 -10 0 -10 -15 0 -15 0 0 9 0 9 -25
6 -26 7 -19 19 -20 20 0 19 0 19 30 14 30 13 0 7 0 8 20 0 20 0 0 -9z m210
-40 l0 -9 -16 -6 -16 -6 5 -13 5 -14 -8 -14 -9 -13 -8 8 -8 9 14 5 13 4 -12 8
-12 8 18 20 19 20 8 1 7 1 0 -9z m30 -1 l0 -10 -10 0 -10 0 0 10 0 10 10 0 10
0 0 -10z m740 -31 l0 -9 -9 0 -9 0 -5 13 -5 12 -1 -12 -1 -12 12 -7 11 -7 13
18 14 19 6 -7 6 -6 -27 -25 -28 -26 -4 0 -4 0 6 10 7 11 -12 14 -12 14 6 10 7
10 14 -6 15 -5 0 -9z m-840 -89 l0 -10 -10 0 -10 0 0 10 0 10 10 0 10 0 0 -10z
m145 -20 l14 0 16 -16 16 -16 39 -5 40 -6 0 -8 0 -9 25 0 25 0 0 9 0 9 30 6
30 6 30 30 30 30 17 -18 18 -18 14 -27 15 -27 38 -6 38 -7 0 -7 0 -7 30 -6 30
-6 0 -10 0 -9 -30 -7 -30 -7 0 -8 0 -8 -85 -12 -86 -12 -25 5 -25 4 -14 -13
-13 -13 -6 15 -6 15 13 -7 12 -7 -8 8 -7 9 -20 1 -19 2 4 -7 4 -7 -27 4 -27 4
-34 2 -34 2 -4 15 -5 15 11 -15 10 -14 6 6 7 6 -21 21 -20 20 -4 -12 -3 -11
-41 42 -40 41 2 19 1 19 14 15 14 15 14 -14 13 -13 14 0z m-41 -86 l45 -46 10
6 11 7 -6 -15 -6 -16 -8 0 -8 0 -6 16 -6 16 -16 -6 -15 -6 7 11 6 11 -31 28
-31 29 0 5 0 6 5 0 5 0 44 -46z"/>
<path d="M520 660 l0 -10 10 0 10 0 0 10 0 10 -10 0 -10 0 0 -10z"/>
<path d="M550 661 l0 -9 14 -5 15 -6 -6 15 -5 14 -9 0 -9 0 0 -9z"/>
<path d="M900 1200 l0 -10 10 0 10 0 0 10 0 10 -10 0 -10 0 0 -10z"/>
<path d="M1030 1200 l0 -10 10 0 10 0 0 10 0 10 -10 0 -10 0 0 -10z"/>
<path d="M680 1170 l0 -10 25 0 25 0 0 10 0 10 -25 0 -25 0 0 -10z"/>
<path d="M1090 1170 l0 -10 10 0 10 0 0 10 0 10 -10 0 -10 0 0 -10z"/>
<path d="M1247 1096 l-6 -15 15 6 14 5 0 9 0 9 -9 0 -9 0 -5 -14z"/>
<path d="M407 1058 l-19 -20 5 -5 5 -5 21 21 21 21 0 5 0 5 -7 -1 -8 -1 -18
-20z"/>
<path d="M540 1071 l0 -10 -22 -7 -23 -7 -6 -9 -5 -8 -44 -5 -44 -4 -18 19
-18 19 -14 -5 -14 -6 -5 -12 -5 -13 9 -14 8 -14 52 2 52 2 6 9 6 9 33 8 32 7
0 8 0 9 21 6 21 7 19 -21 20 -21 10 0 10 0 16 -15 15 -16 35 7 36 7 19 19 20
20 -7 6 -6 6 -7 -11 -7 -11 -28 -7 -27 -7 0 -9 0 -9 -15 0 -15 0 0 9 0 10 -22
7 -23 7 -22 23 -22 24 -11 0 -10 0 0 -9z m-150 -63 l0 -8 -15 0 -15 0 0 9 0 9
-7 17 -6 17 21 -18 22 -18 0 -8z"/>
<path d="M1154 988 l-7 -11 18 -14 19 -13 13 0 13 0 0 -10 0 -10 20 0 20 0 0
7 0 6 -32 29 -32 28 -12 0 -13 0 -7 -12z"/>
<path d="M296 884 l-16 -15 0 -3 0 -2 18 0 18 0 0 18 0 18 -2 0 -3 0 -15 -16z"/>
<path d="M842 833 l-24 -27 -9 15 -9 14 0 -9 0 -9 32 -29 32 -28 3 0 3 0 0 4
0 5 -16 15 -15 16 13 0 13 0 -15 10 -15 9 20 15 20 14 -5 5 -5 6 -23 -26z"/>
<path d="M900 750 l0 -10 10 0 10 0 0 10 0 10 -10 0 -10 0 0 -10z"/>
<path d="M280 661 l0 -9 -29 -7 -30 -6 6 -15 5 -14 39 -6 39 -7 0 -8 0 -8 55
-6 55 -7 0 -9 0 -8 48 -4 47 -3 -257 -2 -258 -2 0 -270 0 -270 640 0 640 0 0
270 0 269 -295 3 -296 3 -8 14 -9 13 -5 -13 -5 -14 -11 15 -11 15 0 -13 0 -13
-14 14 -15 14 -27 -3 -27 -3 -7 -11 -8 -12 -4 12 -4 12 -37 2 -37 3 -7 6 -6 7
7 7 7 7 9 -14 10 -15 0 15 0 15 10 -15 9 -14 7 7 7 7 -6 6 -6 6 -38 5 -38 5
-5 8 -5 8 -42 12 -43 13 0 9 0 8 -25 0 -25 0 0 -9z"/>
<path d="M520 591 l0 -9 14 -5 15 -6 -6 15 -5 14 -9 0 -9 0 0 -9z"/>
<path d="M710 560 l0 -10 45 0 45 0 0 10 0 10 -45 0 -45 0 0 -10z"/>
</g>
</svg>
