<?xml version="1.0" standalone="no"?>
<!DOCTYPE svg PUBLIC "-//W3C//DTD SVG 20010904//EN"
 "http://www.w3.org/TR/2001/REC-SVG-20010904/DTD/svg10.dtd">
<svg version="1.0" xmlns="http://www.w3.org/2000/svg"
 width="468pt" height="468pt" viewBox="0 0 468 468"
 preserveAspectRatio="xMidYMid meet">
<metadata>
Created by potrace 1.8, written by Peter Selinger 2001-2007
</metadata>
<g transform="translate(0,468) scale(0.365625,-0.365625)"
fill="#000000" stroke="none">
<path d="M460 1250 l0 -10 -30 0 -30 0 0 -10 0 -10 -28 0 -28 0 -14 -20 -14
-20 -16 0 -16 0 -14 -20 -14 -20 -13 0 -14 0 -44 -45 -45 -44 0 -14 0 -13 -20
-14 -20 -14 0 -16 0 -16 -20 -14 -20 -14 0 -28 0 -28 -10 0 -10 0 0 -20 0 -20
-10 0 -10 0 0 -40 0 -40 10 0 10 0 0 30 0 30 10 0 10 0 0 15 0 16 25 24 24 25
16 0 15 0 0 18 0 18 20 14 20 14 0 24 0 23 16 16 16 16 8 -13 8 -14 30 32 30
32 16 0 16 0 0 10 0 10 20 0 20 0 0 10 0 10 20 0 20 0 0 30 0 30 20 0 20 0 0
10 0 10 40 0 40 0 0 -6 0 -7 -22 -18 -21 -19 8 -8 8 -7 4 13 5 12 19 0 19 0 0
20 0 20 40 0 40 0 0 10 0 10 20 0 20 0 0 10 0 10 -59 0 -59 0 -5 13 -5 12 -12
-15 -12 -15 -5 13 -5 12 -19 0 -19 0 0 -10z"/>
<path d="M800 1250 l0 -10 -50 0 -50 0 0 -6 0 -5 14 -15 15 -14 15 0 16 0 0
-10 0 -10 20 0 20 0 0 10 0 10 30 0 30 0 0 -10 0 -10 20 0 20 0 0 -10 0 -10
20 0 20 0 0 -10 0 -10 15 0 16 0 34 -35 35 -34 0 -11 0 -11 25 -24 24 -25 11
0 11 0 15 -14 14 -15 0 -11 0 -12 40 -38 40 -38 0 -16 0 -16 10 0 10 0 0 20 0
20 -10 0 -10 0 0 28 0 28 -20 14 -20 14 0 16 0 16 -20 14 -20 14 0 13 0 13
-55 55 -55 55 -15 0 -15 0 0 10 0 10 -18 0 -18 0 -14 20 -14 20 -28 0 -28 0 0
10 0 10 -20 0 -20 0 0 10 0 10 -20 0 -20 0 0 -10z"/>
<path d="M291 1024 l-13 -15 6 -6 5 -5 16 15 15 16 0 5 0 6 -7 0 -8 -1 -14
-15z"/>
<path d="M100 800 l0 -20 10 0 10 0 0 20 0 20 -10 0 -10 0 0 -20z"/>
<path d="M100 740 l0 -20 10 0 10 0 0 20 0 20 -10 0 -10 0 0 -20z"/>
<path d="M0 674 l0 -45 14 -15 15 -14 15 0 16 0 0 19 0 19 13 5 12 5 -15 12
-15 12 12 5 13 5 0 19 0 19 -10 0 -10 0 0 -20 0 -20 -10 0 -10 0 0 -30 0 -30
-10 0 -10 0 0 50 0 50 -10 0 -10 0 0 -46z"/>
<path d="M160 620 l0 -20 16 0 15 0 15 -14 14 -15 0 -15 0 -16 19 0 19 0 6 13
6 12 6 -12 6 -13 9 0 9 0 0 16 0 15 -14 15 -15 14 -15 0 -16 0 0 10 0 10 -30
0 -30 0 0 10 0 10 -10 0 -10 0 0 -20z"/>
<path d="M80 600 l0 -20 10 0 10 0 0 20 0 20 -10 0 -10 0 0 -20z"/>
<path d="M143 475 l-23 -24 0 -16 0 -15 -10 0 -10 0 0 -30 0 -30 10 0 10 0 0
-15 0 -16 25 -24 24 -25 16 0 15 0 0 10 0 10 26 0 26 0 28 -30 28 -30 36 0 36
0 0 56 0 56 -40 38 -40 38 0 12 0 11 -17 17 -16 17 -5 -13 -4 -12 -17 0 -17 0
-14 20 -14 20 -16 -1 -15 0 -22 -24z"/>
<path d="M600 230 l0 -10 -16 0 -15 0 -15 -14 -14 -15 0 -5 0 -6 15 0 16 0 24
25 25 24 0 6 0 5 -10 0 -10 0 0 -10z"/>
<path d="M360 210 l0 -10 10 0 10 0 0 10 0 10 -10 0 -10 0 0 -10z"/>
<path d="M460 30 l0 -10 50 0 50 0 0 -10 0 -10 30 0 30 0 0 6 0 5 -14 15 -15
14 -65 0 -66 0 0 -10z"/>
<path d="M680 10 l0 -10 30 0 30 0 0 10 0 10 -30 0 -30 0 0 -10z"/>
</g>
</svg>
