<?xml version="1.0" standalone="no"?>
<!DOCTYPE svg PUBLIC "-//W3C//DTD SVG 20010904//EN"
 "http://www.w3.org/TR/2001/REC-SVG-20010904/DTD/svg10.dtd">
<svg version="1.0" xmlns="http://www.w3.org/2000/svg"
 width="468pt" height="468pt" viewBox="0 0 468 468"
 preserveAspectRatio="xMidYMid meet">
<metadata>
Created by potrace 1.8, written by Peter Selinger 2001-2007
</metadata>
<g transform="translate(0,468) scale(0.365625,-0.365625)"
fill="#000000" stroke="none">
<path d="M340 1260 l0 -20 -40 0 -40 0 0 -20 0 -20 -15 0 -15 0 0 -15 0 -15
-20 0 -20 0 0 -135 0 -135 20 0 20 0 0 -75 0 -75 -20 0 -20 0 0 -35 0 -35 -20
0 -20 0 0 -20 0 -20 -20 0 -20 0 0 -20 0 -20 -15 0 -15 0 0 -20 0 -20 -20 0
-20 0 0 -90 0 -90 20 0 20 0 0 -20 0 -20 15 0 15 0 0 -20 0 -20 20 0 20 0 0
-20 0 -20 -20 0 -20 0 0 -55 0 -55 -15 0 -15 0 0 -20 0 -20 -20 0 -20 0 0 -15
0 -15 -20 0 -20 0 0 -40 0 -40 40 0 40 0 0 20 0 20 15 0 15 0 0 -20 0 -20 20
0 20 0 0 20 0 20 20 0 20 0 0 -20 0 -20 20 0 20 0 0 20 0 20 15 0 15 0 0 -20
0 -20 20 0 20 0 0 20 0 20 20 0 20 0 0 -20 0 -20 20 0 20 0 0 20 0 20 15 0 15
0 0 -20 0 -20 20 0 20 0 0 20 0 20 20 0 20 0 0 -20 0 -20 20 0 20 0 0 20 0 20
15 0 15 0 0 -20 0 -20 40 0 40 0 0 20 0 20 20 0 20 0 0 20 0 20 20 0 20 0 0
-20 0 -20 15 0 15 0 0 20 0 20 -15 0 -15 0 0 15 0 15 -20 0 -20 0 0 -15 0 -15
-20 0 -20 0 0 -20 0 -20 -40 0 -40 0 0 35 0 35 -15 0 -15 0 0 20 0 20 -40 0
-40 0 0 20 0 20 -95 0 -95 0 0 -20 0 -20 -15 0 -15 0 0 20 0 20 -40 0 -40 0 0
35 0 35 20 0 20 0 0 20 0 20 75 0 75 0 0 -20 0 -20 35 0 35 0 0 -15 0 -15 75
0 75 0 0 15 0 15 40 0 40 0 0 40 0 40 20 0 20 0 0 35 0 35 35 0 35 0 0 -15 0
-15 40 0 40 0 0 -20 0 -20 -20 0 -20 0 0 -20 0 -20 -20 0 -20 0 0 -55 0 -55
-15 0 -15 0 0 -20 0 -20 15 0 15 0 0 -20 0 -20 20 0 20 0 0 -15 0 -15 40 0 40
0 0 15 0 15 15 0 15 0 0 20 0 20 20 0 20 0 0 20 0 20 20 0 20 0 0 20 0 20 -20
0 -20 0 0 15 0 15 20 0 20 0 0 -15 0 -15 20 0 20 0 0 15 0 15 15 0 15 0 0 -15
0 -15 -15 0 -15 0 0 -20 0 -20 15 0 15 0 0 -20 0 -20 -15 0 -15 0 0 -20 0 -20
-40 0 -40 0 0 -55 0 -55 40 0 40 0 0 20 0 20 15 0 15 0 0 -20 0 -20 40 0 40 0
0 75 0 75 20 0 20 0 0 75 0 75 15 0 15 0 0 55 0 55 20 0 20 0 0 95 0 95 20 0
20 0 0 115 0 115 -20 0 -20 0 0 55 0 55 -20 0 -20 0 0 40 0 40 -15 0 -15 0 0
15 0 15 -20 0 -20 0 0 20 0 20 -20 0 -20 0 0 20 0 20 -20 0 -20 0 0 20 0 20
-15 0 -15 0 0 15 0 15 -40 0 -40 0 0 20 0 20 -55 0 -55 0 0 20 0 20 -245 0
-245 0 0 -20z m70 -40 l0 -20 20 0 20 0 0 20 0 20 20 0 20 0 0 -20 0 -20 -20
0 -20 0 0 -15 0 -15 20 0 20 0 0 -20 0 -20 -20 0 -20 0 0 -20 0 -20 20 0 20 0
0 -20 0 -20 -20 0 -20 0 0 -15 0 -15 20 0 20 0 0 -20 0 -20 -20 0 -20 0 0 -20
0 -20 75 0 75 0 0 20 0 20 -20 0 -20 0 0 20 0 20 -15 0 -15 0 0 15 0 15 15 0
15 0 0 20 0 20 -15 0 -15 0 0 20 0 20 15 0 15 0 0 20 0 20 -15 0 -15 0 0 15 0
15 15 0 15 0 0 20 0 20 20 0 20 0 0 -20 0 -20 -20 0 -20 0 0 -15 0 -15 20 0
20 0 0 -20 0 -20 -20 0 -20 0 0 -20 0 -20 20 0 20 0 0 -20 0 -20 -20 0 -20 0
0 -15 0 -15 20 0 20 0 0 -20 0 -20 20 0 20 0 0 -20 0 -20 -20 0 -20 0 0 -20 0
-20 75 0 75 0 0 -15 0 -15 40 0 40 0 0 15 0 15 20 0 20 0 0 20 0 20 -20 0 -20
0 0 20 0 20 20 0 20 0 0 20 0 20 15 0 15 0 0 15 0 15 -15 0 -15 0 0 20 0 20
15 0 15 0 0 20 0 20 20 0 20 0 0 20 0 20 20 0 20 0 0 -20 0 -20 20 0 20 0 0
-20 0 -20 15 0 15 0 0 -20 0 -20 20 0 20 0 0 -15 0 -15 20 0 20 0 0 -20 0 -20
20 0 20 0 0 -20 0 -20 15 0 15 0 0 -20 0 -20 -15 0 -15 0 0 -15 0 -15 15 0 15
0 0 -20 0 -20 20 0 20 0 0 -20 0 -20 -20 0 -20 0 0 -20 0 -20 20 0 20 0 0 -15
0 -15 -20 0 -20 0 0 -20 0 -20 20 0 20 0 0 -20 0 -20 -20 0 -20 0 0 -20 0 -20
-15 0 -15 0 0 -20 0 -20 15 0 15 0 0 -15 0 -15 -15 0 -15 0 0 -20 0 -20 15 0
15 0 0 -20 0 -20 -15 0 -15 0 0 -20 0 -20 -20 0 -20 0 0 -15 0 -15 20 0 20 0
0 -20 0 -20 -20 0 -20 0 0 -20 0 -20 -20 0 -20 0 0 20 0 20 -20 0 -20 0 0 -20
0 -20 -15 0 -15 0 0 20 0 20 -20 0 -20 0 0 20 0 20 -20 0 -20 0 0 15 0 15 -20
0 -20 0 0 -15 0 -15 -15 0 -15 0 0 15 0 15 15 0 15 0 0 20 0 20 20 0 20 0 0
20 0 20 -20 0 -20 0 0 20 0 20 20 0 20 0 0 15 0 15 20 0 20 0 0 20 0 20 -20 0
-20 0 0 20 0 20 20 0 20 0 0 20 0 20 -20 0 -20 0 0 20 0 20 -20 0 -20 0 0 -80
0 -80 -15 0 -15 0 0 -55 0 -55 -20 0 -20 0 0 -20 0 -20 -40 0 -40 0 0 20 0 20
-15 0 -15 0 0 20 0 20 -20 0 -20 0 0 -40 0 -40 -20 0 -20 0 0 -35 0 -35 -20 0
-20 0 0 -20 0 -20 -20 0 -20 0 0 -20 0 -20 -75 0 -75 0 0 20 0 20 -15 0 -15 0
0 20 0 20 -20 0 -20 0 0 95 0 95 -20 0 -20 0 0 -95 0 -95 -95 0 -95 0 0 20 0
20 -15 0 -15 0 0 90 0 90 15 0 15 0 0 20 0 20 95 0 95 0 0 20 0 20 -55 0 -55
0 0 20 0 20 20 0 20 0 0 35 0 35 15 0 15 0 0 40 0 40 20 0 20 0 0 20 0 20 -20
0 -20 0 0 15 0 15 20 0 20 0 0 -15 0 -15 40 0 40 0 0 15 0 15 35 0 35 0 0 20
0 20 -20 0 -20 0 0 20 0 20 -15 0 -15 0 0 20 0 20 15 0 15 0 0 15 0 15 -15 0
-15 0 0 20 0 20 -20 0 -20 0 0 20 0 20 20 0 20 0 0 20 0 20 15 0 15 0 0 15 0
15 -15 0 -15 0 0 20 0 20 15 0 15 0 0 -20z m310 0 l0 -20 -20 0 -20 0 0 -15 0
-15 20 0 20 0 0 -20 0 -20 15 0 15 0 0 20 0 20 20 0 20 0 0 15 0 15 -20 0 -20
0 0 20 0 20 20 0 20 0 0 -20 0 -20 20 0 20 0 0 -15 0 -15 20 0 20 0 0 15 0 15
15 0 15 0 0 -15 0 -15 -15 0 -15 0 0 -20 0 -20 -20 0 -20 0 0 -20 0 -20 -20 0
-20 0 0 -20 0 -20 20 0 20 0 0 -15 0 -15 -20 0 -20 0 0 -20 0 -20 -20 0 -20 0
0 -20 0 -20 20 0 20 0 0 -20 0 -20 -20 0 -20 0 0 20 0 20 -15 0 -15 0 0 20 0
20 -20 0 -20 0 0 20 0 20 -20 0 -20 0 0 15 0 15 20 0 20 0 0 20 0 20 -20 0
-20 0 0 20 0 20 20 0 20 0 0 20 0 20 -20 0 -20 0 0 15 0 15 20 0 20 0 0 20 0
20 20 0 20 0 0 -20z m-380 -35 l0 -15 -20 0 -20 0 0 -20 0 -20 -20 0 -20 0 0
20 0 20 20 0 20 0 0 15 0 15 20 0 20 0 0 -15z m410 0 l0 -15 -15 0 -15 0 0 15
0 15 15 0 15 0 0 -15z m-450 -115 l0 -20 20 0 20 0 0 -15 0 -15 -20 0 -20 0 0
-20 0 -20 20 0 20 0 0 -20 0 -20 20 0 20 0 0 -20 0 -20 -20 0 -20 0 0 20 0 20
-20 0 -20 0 0 20 0 20 -20 0 -20 0 0 -20 0 -20 -15 0 -15 0 0 20 0 20 15 0 15
0 0 20 0 20 20 0 20 0 0 15 0 15 -20 0 -20 0 0 20 0 20 20 0 20 0 0 -20z m600
-750 l0 -20 20 0 20 0 0 -20 0 -20 -20 0 -20 0 0 20 0 20 -15 0 -15 0 0 -20 0
-20 -20 0 -20 0 0 -15 0 -15 20 0 20 0 0 -20 0 -20 15 0 15 0 0 20 0 20 20 0
20 0 0 -20 0 -20 -20 0 -20 0 0 -20 0 -20 -15 0 -15 0 0 -20 0 -20 -20 0 -20
0 0 20 0 20 -20 0 -20 0 0 20 0 20 20 0 20 0 0 20 0 20 -20 0 -20 0 0 15 0 15
20 0 20 0 0 20 0 20 20 0 20 0 0 20 0 20 15 0 15 0 0 -20z m0 -75 l0 -15 -15
0 -15 0 0 15 0 15 15 0 15 0 0 -15z m230 0 l0 -15 -20 0 -20 0 0 15 0 15 20 0
20 0 0 -15z m0 -75 l0 -20 -20 0 -20 0 0 -20 0 -20 -20 0 -20 0 0 -15 0 -15
-15 0 -15 0 0 -20 0 -20 -20 0 -20 0 0 20 0 20 20 0 20 0 0 15 0 15 15 0 15 0
0 20 0 20 20 0 20 0 0 20 0 20 20 0 20 0 0 -20z m-980 -40 l0 -20 20 0 20 0 0
20 0 20 20 0 20 0 0 -20 0 -20 -20 0 -20 0 0 -15 0 -15 20 0 20 0 0 -20 0 -20
-20 0 -20 0 0 20 0 20 -20 0 -20 0 0 -20 0 -20 -20 0 -20 0 0 20 0 20 20 0 20
0 0 15 0 15 -20 0 -20 0 0 -15 0 -15 -15 0 -15 0 0 -20 0 -20 -20 0 -20 0 0
20 0 20 20 0 20 0 0 15 0 15 15 0 15 0 0 20 0 20 20 0 20 0 0 -20z m150 0 l0
-20 20 0 20 0 0 20 0 20 20 0 20 0 0 -20 0 -20 -20 0 -20 0 0 -15 0 -15 20 0
20 0 0 -20 0 -20 -20 0 -20 0 0 20 0 20 -20 0 -20 0 0 -20 0 -20 -20 0 -20 0
0 20 0 20 -15 0 -15 0 0 15 0 15 15 0 15 0 0 20 0 20 20 0 20 0 0 -20z m150 0
l0 -20 20 0 20 0 0 -15 0 -15 20 0 20 0 0 -20 0 -20 -20 0 -20 0 0 20 0 20
-20 0 -20 0 0 -20 0 -20 -20 0 -20 0 0 20 0 20 -15 0 -15 0 0 15 0 15 15 0 15
0 0 20 0 20 20 0 20 0 0 -20z m640 -70 l0 -20 -20 0 -20 0 0 20 0 20 20 0 20
0 0 -20z"/>
<path d="M410 1150 l0 -20 -15 0 -15 0 0 -20 0 -20 15 0 15 0 0 -20 0 -20 20
0 20 0 0 20 0 20 -20 0 -20 0 0 20 0 20 20 0 20 0 0 20 0 20 -20 0 -20 0 0
-20z"/>
<path d="M940 1110 l0 -20 -20 0 -20 0 0 -20 0 -20 20 0 20 0 0 -15 0 -15 -20
0 -20 0 0 -20 0 -20 -15 0 -15 0 0 -20 0 -20 15 0 15 0 0 -20 0 -20 -15 0 -15
0 0 -15 0 -15 -20 0 -20 0 0 -20 0 -20 20 0 20 0 0 -55 0 -55 15 0 15 0 0 15
0 15 20 0 20 0 0 -15 0 -15 20 0 20 0 0 -20 0 -20 20 0 20 0 0 -20 0 -20 -20
0 -20 0 0 -20 0 -20 20 0 20 0 0 -20 0 -20 -20 0 -20 0 0 -15 0 -15 -20 0 -20
0 0 -20 0 -20 20 0 20 0 0 -20 0 -20 -20 0 -20 0 0 -20 0 -20 20 0 20 0 0 -15
0 -15 20 0 20 0 0 -20 0 -20 15 0 15 0 0 20 0 20 20 0 20 0 0 -20 0 -20 20 0
20 0 0 20 0 20 -20 0 -20 0 0 15 0 15 20 0 20 0 0 20 0 20 20 0 20 0 0 20 0
20 -20 0 -20 0 0 20 0 20 20 0 20 0 0 15 0 15 -20 0 -20 0 0 20 0 20 20 0 20
0 0 20 0 20 15 0 15 0 0 20 0 20 -15 0 -15 0 0 20 0 20 15 0 15 0 0 15 0 15
-15 0 -15 0 0 20 0 20 15 0 15 0 0 20 0 20 -15 0 -15 0 0 20 0 20 -20 0 -20 0
0 15 0 15 20 0 20 0 0 20 0 20 -20 0 -20 0 0 20 0 20 -20 0 -20 0 0 20 0 20
-20 0 -20 0 0 15 0 15 -15 0 -15 0 0 20 0 20 -20 0 -20 0 0 20 0 20 -20 0 -20
0 0 -20z m40 -40 l0 -20 20 0 20 0 0 -15 0 -15 15 0 15 0 0 -20 0 -20 20 0 20
0 0 -20 0 -20 20 0 20 0 0 -20 0 -20 -20 0 -20 0 0 -15 0 -15 20 0 20 0 0 -20
0 -20 20 0 20 0 0 -20 0 -20 -20 0 -20 0 0 -20 0 -20 20 0 20 0 0 -15 0 -15
-20 0 -20 0 0 -20 0 -20 20 0 20 0 0 -20 0 -20 -20 0 -20 0 0 -20 0 -20 -20 0
-20 0 0 -20 0 -20 20 0 20 0 0 -15 0 -15 -20 0 -20 0 0 -20 0 -20 20 0 20 0 0
-20 0 -20 -20 0 -20 0 0 -20 0 -20 -20 0 -20 0 0 -15 0 -15 -15 0 -15 0 0 15
0 15 -20 0 -20 0 0 20 0 20 20 0 20 0 0 20 0 20 -20 0 -20 0 0 20 0 20 20 0
20 0 0 15 0 15 15 0 15 0 0 20 0 20 -15 0 -15 0 0 20 0 20 15 0 15 0 0 20 0
20 -15 0 -15 0 0 20 0 20 -20 0 -20 0 0 15 0 15 -20 0 -20 0 0 20 0 20 -20 0
-20 0 0 20 0 20 -15 0 -15 0 0 20 0 20 15 0 15 0 0 15 0 15 20 0 20 0 0 20 0
20 -20 0 -20 0 0 20 0 20 20 0 20 0 0 20 0 20 20 0 20 0 0 15 0 15 -20 0 -20
0 0 20 0 20 20 0 20 0 0 -20z"/>
<path d="M980 1000 l0 -20 -20 0 -20 0 0 -20 0 -20 20 0 20 0 0 -20 0 -20 -20
0 -20 0 0 -15 0 -15 -20 0 -20 0 0 -20 0 -20 20 0 20 0 0 -20 0 -20 20 0 20 0
0 -20 0 -20 20 0 20 0 0 -15 0 -15 15 0 15 0 0 -20 0 -20 20 0 20 0 0 -20 0
-20 -20 0 -20 0 0 -20 0 -20 20 0 20 0 0 20 0 20 20 0 20 0 0 20 0 20 -20 0
-20 0 0 20 0 20 20 0 20 0 0 15 0 15 -20 0 -20 0 0 20 0 20 20 0 20 0 0 20 0
20 -20 0 -20 0 0 20 0 20 -20 0 -20 0 0 -20 0 -20 -15 0 -15 0 0 20 0 20 -20
0 -20 0 0 15 0 15 20 0 20 0 0 20 0 20 15 0 15 0 0 -20 0 -20 20 0 20 0 0 20
0 20 -20 0 -20 0 0 20 0 20 -15 0 -15 0 0 20 0 20 -20 0 -20 0 0 -20z m40 -40
l0 -20 -20 0 -20 0 0 20 0 20 20 0 20 0 0 -20z m-40 -110 l0 -20 20 0 20 0 0
-20 0 -20 15 0 15 0 0 20 0 20 20 0 20 0 0 -20 0 -20 -20 0 -20 0 0 -20 0 -20
20 0 20 0 0 -15 0 -15 -20 0 -20 0 0 15 0 15 -15 0 -15 0 0 20 0 20 -20 0 -20
0 0 20 0 20 -20 0 -20 0 0 20 0 20 20 0 20 0 0 -20z"/>
<path d="M1020 885 l0 -15 15 0 15 0 0 15 0 15 -15 0 -15 0 0 -15z"/>
<path d="M1050 545 l0 -15 -15 0 -15 0 0 -20 0 -20 15 0 15 0 0 -20 0 -20 -15
0 -15 0 0 -20 0 -20 15 0 15 0 0 20 0 20 20 0 20 0 0 20 0 20 -20 0 -20 0 0
20 0 20 20 0 20 0 0 15 0 15 -20 0 -20 0 0 -15z"/>
<path d="M410 1000 l0 -20 20 0 20 0 0 20 0 20 -20 0 -20 0 0 -20z"/>
<path d="M410 620 l0 -20 -55 0 -55 0 0 -20 0 -20 20 0 20 0 0 -15 0 -15 20 0
20 0 0 15 0 15 15 0 15 0 0 20 0 20 95 0 95 0 0 -20 0 -20 20 0 20 0 0 -35 0
-35 20 0 20 0 0 35 0 35 -20 0 -20 0 0 20 0 20 -20 0 -20 0 0 20 0 20 -95 0
-95 0 0 -20z"/>
<path d="M150 450 l0 -40 40 0 40 0 0 40 0 40 -40 0 -40 0 0 -40z"/>
<path d="M450 415 l0 -35 40 0 40 0 0 35 0 35 -40 0 -40 0 0 -35z"/>
<path d="M790 1150 l0 -20 -20 0 -20 0 0 -20 0 -20 -15 0 -15 0 0 20 0 20 -20
0 -20 0 0 -20 0 -20 20 0 20 0 0 -20 0 -20 -20 0 -20 0 0 -15 0 -15 20 0 20 0
0 -20 0 -20 15 0 15 0 0 20 0 20 20 0 20 0 0 15 0 15 -20 0 -20 0 0 20 0 20
20 0 20 0 0 20 0 20 20 0 20 0 0 20 0 20 -20 0 -20 0 0 -20z m-40 -115 l0 -15
-15 0 -15 0 0 15 0 15 15 0 15 0 0 -15z"/>
<path d="M830 170 l0 -20 20 0 20 0 0 20 0 20 -20 0 -20 0 0 -20z"/>
<path d="M260 95 l0 -15 20 0 20 0 0 15 0 15 -20 0 -20 0 0 -15z"/>
<path d="M410 95 l0 -15 20 0 20 0 0 15 0 15 -20 0 -20 0 0 -15z"/>
</g>
</svg>
