<?xml version="1.0" standalone="no"?>
<!DOCTYPE svg PUBLIC "-//W3C//DTD SVG 20010904//EN"
 "http://www.w3.org/TR/2001/REC-SVG-20010904/DTD/svg10.dtd">
<svg version="1.0" xmlns="http://www.w3.org/2000/svg"
 width="468pt" height="468pt" viewBox="0 0 468 468"
 preserveAspectRatio="xMidYMid meet">
<metadata>
Created by potrace 1.8, written by Peter Selinger 2001-2007
</metadata>
<g transform="translate(0,468) scale(0.365625,-0.365625)"
fill="#000000" stroke="none">
<path d="M590 1120 l0 -110 -80 0 -80 0 0 -25 0 -25 -30 0 -30 0 0 -105 0
-105 -25 0 -25 0 0 50 0 50 -25 0 -25 0 0 30 0 30 -30 0 -30 0 0 -80 0 -80
-25 0 -25 0 0 130 0 130 -25 0 -25 0 0 30 0 30 -30 0 -30 0 0 -400 0 -400 30
0 30 0 0 -30 0 -30 25 0 25 0 0 -25 0 -25 25 0 25 0 0 -25 0 -25 30 0 30 0 0
-30 0 -30 210 0 210 0 0 55 0 55 30 0 30 0 0 -55 0 -55 240 0 240 0 0 400 0
400 -30 0 -30 0 0 30 0 30 -25 0 -25 0 0 -135 0 -135 -25 0 -25 0 0 185 0 185
-30 0 -30 0 0 30 0 30 -25 0 -25 0 0 -160 0 -160 -25 0 -25 0 0 80 0 80 -30 0
-30 0 0 25 0 25 -25 0 -25 0 0 25 0 25 -55 0 -55 0 0 80 0 80 -25 0 -25 0 0
30 0 30 -25 0 -25 0 0 -110z m0 -185 l0 -25 -80 0 -80 0 0 25 0 25 80 0 80 0
0 -25z m210 0 l0 -25 -55 0 -55 0 0 25 0 25 55 0 55 0 0 -25z m50 -190 l0
-105 -185 0 -185 0 0 105 0 105 185 0 185 0 0 -105z m-640 -80 l0 -25 -25 0
-25 0 0 25 0 25 25 0 25 0 0 -25z m160 0 l0 -25 30 0 30 0 0 -25 0 -25 240 0
240 0 0 50 0 50 25 0 25 0 0 -25 0 -25 55 0 55 0 0 -25 0 -25 25 0 25 0 0 -30
0 -30 -400 0 -400 0 0 80 0 80 25 0 25 0 0 -25z m800 -370 l0 -185 -185 0
-185 0 0 50 0 50 -80 0 -80 0 0 -50 0 -50 -160 0 -160 0 0 185 0 185 425 0
425 0 0 -185z"/>
<path d="M530 775 l0 -25 30 0 30 0 0 25 0 25 -30 0 -30 0 0 -25z"/>
<path d="M640 775 l0 -25 25 0 25 0 0 25 0 25 -25 0 -25 0 0 -25z"/>
<path d="M750 775 l0 -25 25 0 25 0 0 25 0 25 -25 0 -25 0 0 -25z"/>
<path d="M480 400 l0 -30 25 0 25 0 0 30 0 30 -25 0 -25 0 0 -30z"/>
<path d="M640 400 l0 -30 25 0 25 0 0 30 0 30 -25 0 -25 0 0 -30z"/>
<path d="M800 400 l0 -30 25 0 25 0 0 30 0 30 -25 0 -25 0 0 -30z"/>
<path d="M960 400 l0 -30 25 0 25 0 0 30 0 30 -25 0 -25 0 0 -30z"/>
<path d="M480 295 l0 -25 25 0 25 0 0 25 0 25 -25 0 -25 0 0 -25z"/>
<path d="M640 295 l0 -25 25 0 25 0 0 25 0 25 -25 0 -25 0 0 -25z"/>
<path d="M800 295 l0 -25 25 0 25 0 0 25 0 25 -25 0 -25 0 0 -25z"/>
<path d="M960 295 l0 -25 25 0 25 0 0 25 0 25 -25 0 -25 0 0 -25z"/>
</g>
</svg>
