<?xml version="1.0" standalone="no"?>
<!DOCTYPE svg PUBLIC "-//W3C//DTD SVG 20010904//EN"
 "http://www.w3.org/TR/2001/REC-SVG-20010904/DTD/svg10.dtd">
<svg version="1.0" xmlns="http://www.w3.org/2000/svg"
 width="468pt" height="468pt" viewBox="0 0 468 468"
 preserveAspectRatio="xMidYMid meet">
<metadata>
Created by potrace 1.8, written by Peter Selinger 2001-2007
</metadata>
<g transform="translate(0,468) scale(0.365625,-0.365625)"
fill="#000000" stroke="none">
<path d="M160 1270 l0 -10 16 0 15 0 15 -14 14 -15 0 -10 0 -11 11 0 10 0 17
-17 17 -16 -13 -5 -12 -4 0 -24 0 -24 -14 0 -14 0 -4 -12 -5 -13 -16 17 -17
17 0 6 0 6 -14 15 -15 14 -10 0 -11 0 0 10 0 10 -20 0 -20 0 0 10 0 10 -25 0
-25 0 0 15 0 15 -20 0 -20 0 0 -15 0 -15 20 0 20 0 0 -10 0 -10 25 0 25 0 0
-10 0 -10 20 0 20 0 0 -10 0 -10 15 0 15 0 0 -11 0 -11 30 -28 30 -28 0 -41 0
-41 15 0 15 0 0 -90 0 -90 -15 0 -15 0 0 10 0 10 -20 0 -20 0 0 10 0 10 -25 0
-25 0 0 15 0 15 -20 0 -20 0 0 10 0 10 -45 0 -45 0 0 -315 0 -315 98 0 98 0
14 20 14 20 13 0 13 0 0 15 0 15 20 0 20 0 0 10 0 10 25 0 25 0 0 -10 0 -10
-25 0 -25 0 0 -15 0 -15 -20 0 -20 0 0 -10 0 -10 -11 0 -10 0 -15 -14 -14 -15
0 -5 0 -6 35 0 35 0 0 -15 0 -15 35 0 35 0 0 10 0 11 35 34 34 35 11 0 10 0 0
15 0 15 20 0 20 0 0 10 0 10 25 0 25 0 0 -10 0 -10 -25 0 -25 0 0 -15 0 -15
-20 0 -20 0 0 -10 0 -10 -10 0 -11 0 -24 -25 -25 -24 0 -10 0 -9 -12 -5 -13
-4 32 -30 33 -31 0 -11 0 -11 15 0 15 0 0 15 0 15 10 0 10 0 0 18 0 18 20 14
20 14 0 13 0 13 11 0 11 0 28 30 28 30 21 0 21 0 0 15 0 15 20 0 20 0 0 -15 0
-15 -20 0 -20 0 0 -10 0 -10 -20 0 -21 0 -24 -25 -25 -24 0 -11 0 -10 -11 0
-10 0 -15 -14 -14 -15 0 -15 0 -16 -10 0 -10 0 0 -14 0 -14 -12 -5 -13 -4 32
-30 33 -31 0 -11 0 -11 -75 0 -75 0 0 15 0 15 -15 0 -15 0 0 10 0 10 -20 0
-20 0 0 10 0 10 -25 0 -25 0 0 10 0 10 -20 0 -20 0 0 -10 0 -10 20 0 20 0 0
-10 0 -10 25 0 25 0 0 -10 0 -10 20 0 20 0 0 -15 0 -15 -75 0 -75 0 0 15 0 15
-25 0 -25 0 0 -15 0 -15 -55 0 -55 0 0 -20 0 -20 640 0 640 0 0 20 0 20 -65 0
-65 0 0 25 0 25 10 0 10 0 0 20 0 20 10 0 10 0 0 21 0 20 14 15 15 14 6 0 6 0
15 14 14 15 0 10 0 11 -35 0 -35 0 0 -15 0 -15 -20 0 -20 0 0 -10 0 -10 -21 0
-20 0 -15 -14 -14 -15 0 -20 0 -21 -10 0 -10 0 0 -20 0 -20 -15 0 -15 0 0 -25
0 -25 -10 0 -10 0 0 25 0 25 10 0 10 0 0 20 0 20 15 0 15 0 0 15 0 15 -25 0
-25 0 0 10 0 10 -20 0 -20 0 0 -10 0 -10 -15 0 -15 0 0 -25 0 -25 -10 0 -10 0
0 -20 0 -20 10 0 10 0 0 -15 0 -15 -210 0 -210 0 0 15 0 15 10 0 10 0 0 20 0
20 10 0 10 0 0 21 0 20 14 15 15 14 6 0 6 0 24 25 25 24 0 6 0 6 14 15 15 14
16 0 16 0 24 25 25 24 0 11 0 10 10 0 11 0 34 35 35 34 0 26 0 26 -14 15 -15
14 -40 0 -41 0 0 15 0 15 -20 0 -20 0 0 20 0 20 -11 0 -10 0 -15 14 -14 15 0
6 0 6 14 15 15 14 10 0 11 0 0 10 0 10 20 0 20 0 0 10 0 10 -10 0 -10 0 0 35
0 35 -10 0 -10 0 0 25 0 25 -11 0 -11 0 -28 30 -28 30 -21 0 -21 0 0 11 0 10
-14 15 -15 14 -15 0 -16 0 0 10 0 10 -15 0 -15 0 0 10 0 10 -20 0 -20 0 0 15
0 15 -10 0 -10 0 0 20 0 20 -15 0 -15 0 0 35 0 35 15 0 15 0 0 10 0 10 65 0
65 0 0 31 0 30 14 15 15 14 10 0 11 0 0 25 0 25 -13 0 -13 0 -14 20 -14 20
-108 0 -108 0 0 -10 0 -10 -11 0 -10 0 -15 -14 -14 -15 0 -10 0 -11 -20 0 -20
0 0 15 0 15 -13 0 -13 0 -14 20 -14 20 -18 0 -18 0 0 -10z m310 -70 l0 -10
-10 0 -10 0 0 10 0 10 10 0 10 0 0 -10z m-170 -300 l14 -20 13 0 13 0 0 -11 0
-11 30 -28 30 -28 0 -27 0 -26 -16 -16 -16 -16 -10 14 -10 14 -5 -12 -5 -13
-14 0 -14 0 0 -10 0 -10 -16 0 -15 0 -15 14 -14 15 0 15 0 16 -15 0 -15 0 0
15 0 15 15 0 15 0 0 10 0 10 16 0 15 0 15 -14 14 -15 0 -20 0 -21 15 0 15 0 0
25 0 25 -10 0 -11 0 -24 25 -25 24 0 41 0 40 8 0 8 0 14 -20z m-210 -35 l0
-15 20 0 20 0 0 -10 0 -10 21 0 20 0 15 -14 14 -15 0 -20 0 -21 10 0 10 0 0
-20 0 -20 15 0 15 0 0 -25 0 -25 -45 0 -45 0 0 25 0 25 -15 0 -15 0 0 20 0 20
-10 0 -10 0 0 25 0 25 -10 0 -10 0 0 20 0 20 -10 0 -10 0 0 15 0 15 10 0 10 0
0 -15z m566 -299 l14 -15 0 -15 0 -16 -75 0 -75 0 0 10 0 10 20 0 20 0 0 10 0
10 25 0 25 0 0 10 0 10 16 0 15 0 15 -14z"/>
<path d="M610 1180 l0 -10 -15 0 -15 0 0 -35 0 -35 90 0 90 0 0 10 0 10 -10 0
-10 0 0 15 0 15 -20 0 -20 0 0 10 0 10 -25 0 -25 0 0 10 0 10 -20 0 -20 0 0
-10z"/>
<path d="M920 1000 l0 -10 25 0 25 0 0 -10 0 -10 20 0 20 0 0 -11 0 -10 14
-15 15 -14 10 0 11 0 0 -10 0 -10 -21 0 -20 0 -15 -14 -14 -15 0 -10 0 -11
-25 0 -25 0 0 10 0 11 -35 34 -34 35 -21 0 -20 0 0 15 0 15 -20 0 -20 0 0 10
0 10 -15 0 -15 0 0 -10 0 -10 15 0 15 0 0 -15 0 -15 20 0 20 0 0 -10 0 -10 20
0 21 0 24 -25 25 -24 0 -10 0 -9 12 -4 13 -5 -17 -16 -17 -17 -15 0 -16 0 0
-10 0 -10 -21 0 -21 0 -28 30 -28 30 -11 0 -11 0 0 -10 0 -10 10 0 11 0 24
-25 25 -24 0 -16 0 -16 -25 -24 -24 -25 -21 0 -20 0 0 -11 0 -10 14 -15 15
-14 55 0 56 0 0 -10 0 -10 18 0 18 0 14 20 14 20 13 0 13 0 0 10 0 11 25 24
24 25 21 0 20 0 0 10 0 10 20 0 20 0 0 -10 0 -10 -20 0 -20 0 0 -10 0 -10 -21
0 -20 0 -15 -14 -14 -15 0 -6 0 -6 -14 -15 -15 -14 -10 0 -11 0 0 -20 0 -20
15 0 15 0 0 -11 0 -10 15 -15 15 -15 15 15 15 15 0 10 0 11 11 0 11 0 28 30
28 30 21 0 21 0 0 15 0 15 20 0 20 0 0 -15 0 -15 -20 0 -20 0 0 -10 0 -10 -20
0 -21 0 -24 -25 -25 -24 0 -11 0 -10 -11 0 -10 0 -15 -14 -14 -15 0 -50 0 -51
10 0 10 0 0 10 0 10 11 0 10 0 15 14 14 15 0 6 0 6 25 24 24 25 21 0 20 0 0
10 0 10 20 0 20 0 0 15 0 15 25 0 25 0 0 -15 0 -15 -25 0 -25 0 0 -10 0 -10
-20 0 -20 0 0 -10 0 -10 -21 0 -20 0 -15 -14 -14 -15 0 -6 0 -6 -25 -24 -24
-25 -6 0 -6 0 -15 -14 -14 -15 0 -120 0 -121 25 0 25 0 0 10 0 10 20 0 20 0 0
10 0 10 25 0 25 0 0 15 0 15 20 0 20 0 0 10 0 10 45 0 45 0 0 325 0 325 -110
0 -110 0 0 10 0 10 -15 0 -15 0 0 11 0 10 -14 15 -15 14 -15 0 -16 0 0 10 0
10 -25 0 -25 0 0 -10z"/>
<path d="M610 955 l0 -15 20 0 20 0 0 -10 0 -10 25 0 25 0 0 -10 0 -10 19 0
19 0 5 -12 4 -13 8 7 7 7 -15 16 -16 15 -15 0 -16 0 0 10 0 10 -25 0 -25 0 0
15 0 15 -20 0 -20 0 0 -15z"/>
<path d="M790 570 l0 -10 10 0 10 0 0 10 0 10 -10 0 -10 0 0 -10z"/>
<path d="M970 335 l0 -25 -10 0 -11 0 -34 -35 -35 -34 0 -11 0 -10 -15 0 -15
0 0 -20 0 -20 -10 0 -10 0 0 -31 0 -30 14 -15 15 -14 10 0 11 0 0 -10 0 -10
10 0 10 0 0 20 0 20 10 0 10 0 0 21 0 20 14 15 15 14 6 0 6 0 15 14 14 15 0
75 0 76 -10 0 -10 0 0 -25z"/>
</g>
</svg>
