<?xml version="1.0" standalone="no"?>
<!DOCTYPE svg PUBLIC "-//W3C//DTD SVG 20010904//EN"
 "http://www.w3.org/TR/2001/REC-SVG-20010904/DTD/svg10.dtd">
<svg version="1.0" xmlns="http://www.w3.org/2000/svg"
 width="468pt" height="468pt" viewBox="0 0 468 468"
 preserveAspectRatio="xMidYMid meet">
<metadata>
Created by potrace 1.8, written by Peter Selinger 2001-2007
</metadata>
<g transform="translate(0,468) scale(0.365625,-0.365625)"
fill="#000000" stroke="none">
<path d="M1018 1274 l-18 -5 0 -9 0 -8 19 -5 20 -5 -6 14 -5 14 52 0 52 0 -5
-13 -5 -14 24 5 25 5 20 -21 19 -21 0 -11 0 -11 -19 -21 -20 -21 -25 5 -24 5
5 -14 5 -13 -20 0 -20 0 -6 13 -6 12 -6 -12 -6 -13 -19 0 -19 0 0 10 0 11 18
6 17 7 13 12 12 13 0 30 0 31 -10 0 -10 0 0 -27 0 -28 -24 -22 -24 -23 -11 0
-11 0 0 -10 0 -9 36 -7 36 -7 56 6 55 6 6 9 6 9 22 7 22 7 6 20 6 19 -6 19 -6
20 -22 7 -22 7 -6 10 -7 10 -73 3 -74 3 -17 -5z"/>
<path d="M6 1254 l-6 -16 0 -54 0 -54 125 0 125 0 0 54 0 54 -6 16 -6 16 -113
0 -113 0 -6 -16z m234 -56 l0 -48 -115 0 -115 0 0 48 0 48 115 1 115 0 0 -49z"/>
<path d="M32 1190 l0 -35 5 18 4 17 -4 18 -5 17 0 -35z"/>
<path d="M62 1190 l0 -35 5 18 4 17 -4 18 -5 17 0 -35z"/>
<path d="M92 1190 l0 -35 5 18 4 17 -4 18 -5 17 0 -35z"/>
<path d="M122 1200 l0 -25 5 13 5 12 -5 13 -5 12 0 -25z"/>
<path d="M152 1200 l0 -25 5 13 5 12 -5 13 -5 12 0 -25z"/>
<path d="M182 1200 l0 -25 5 13 5 12 -5 13 -5 12 0 -25z"/>
<path d="M212 1200 l0 -25 5 13 5 12 -5 13 -5 12 0 -25z"/>
<path d="M500 1261 l0 -8 -41 -6 -42 -5 -6 -9 -6 -9 -18 -7 -18 -7 1 -122 1
-123 0 -27 -1 -28 -16 0 -16 0 5 13 5 14 -8 14 -9 13 -8 -7 -7 -8 14 -9 15
-10 -12 0 -13 0 0 -15 0 -15 60 0 60 0 0 -10 0 -10 -64 0 -64 0 -5 13 -4 12
-23 -26 -23 -26 -21 21 -20 20 -3 33 -2 34 15 -16 15 -15 4 0 3 0 -5 18 -4 18
23 1 23 1 -12 -5 -13 -5 0 -8 0 -8 26 -6 26 -7 5 4 4 5 -17 17 -17 17 14 -2
14 -2 16 1 16 1 -1 30 -1 30 -62 0 -61 0 -16 -6 -16 -6 0 -13 0 -13 13 -5 12
-4 -8 -9 -8 -8 -10 14 -9 15 3 20 2 20 -25 1 -24 1 -18 -11 -18 -11 0 -8 0 -8
14 -15 15 -14 10 0 11 0 0 -15 0 -15 18 -1 17 -1 -15 -5 -15 -6 -5 -8 -6 -8
-54 -5 -55 -5 13 6 12 5 0 9 0 9 -9 0 -9 0 -6 -15 -5 -14 14 -15 15 -15 0 -10
0 -11 -11 0 -10 0 15 -15 15 -15 15 0 16 0 0 9 0 9 22 5 22 6 2 -2 2 -2 7 -28
7 -27 -64 0 -64 0 4 -38 4 -39 -16 -16 -16 -16 0 -7 0 -7 17 -12 16 -12 -7
-12 -8 -12 -12 4 -12 5 4 -29 4 -29 9 0 9 0 1 13 1 12 -1 12 -2 11 11 7 11 7
24 -24 25 -23 0 -7 0 -8 -15 0 -15 0 0 10 0 10 -15 0 -15 0 0 -14 0 -13 55 0
55 0 9 16 9 16 7 -7 7 -6 -22 -22 -22 -22 -9 13 -9 14 0 -12 0 -13 -60 0 -60
0 0 -270 0 -270 640 0 640 0 0 270 0 270 -75 0 -75 0 0 10 0 10 13 1 12 1 28
2 28 1 9 15 10 15 11 -15 11 -15 -6 17 -5 17 12 13 13 13 6 16 6 16 -8 14 -9
13 -8 -7 -7 -8 14 -9 15 -10 -12 0 -13 0 -6 -25 -6 -25 -8 0 -9 0 -3 18 -4 17
-19 -23 -19 -22 -23 0 -23 0 0 -15 0 -14 -15 5 -15 6 0 9 0 9 15 0 15 0 0 15
0 15 25 6 25 6 0 12 0 11 10 -15 10 -15 10 15 9 15 -19 3 -20 3 0 10 0 9 -15
0 -15 0 0 -10 0 -10 -39 -6 -40 -6 -5 -14 -5 -14 -11 0 -11 0 15 15 15 16 -3
12 -3 12 4 -7 5 -8 24 0 24 0 0 10 0 10 -17 1 -18 1 15 5 15 6 6 9 6 10 -3 29
-4 29 20 0 20 0 0 -10 0 -9 -17 -9 -16 -10 29 -27 29 -27 3 16 3 16 16 0 15 0
-5 -13 -5 -14 8 -14 9 -13 8 7 7 8 -14 10 -15 11 17 -6 17 -5 15 15 15 15 -5
14 -6 15 -9 0 -9 0 0 -9 0 -9 13 -5 12 -5 -17 -1 -18 -1 0 15 0 15 -10 0 -10
0 0 -12 0 -13 -10 15 -9 15 -15 -20 -15 -20 -11 12 -12 11 7 11 7 12 33 -3 34
-2 7 7 7 7 -4 4 -4 3 -57 7 -57 6 -16 -17 -17 -16 7 49 8 49 3 4 4 5 20 -22
21 -22 15 0 15 0 5 15 6 15 14 0 14 0 -5 74 -5 74 30 6 30 5 0 10 0 9 -27 10
-28 10 13 1 12 1 0 11 0 10 -14 15 -15 14 -10 0 -11 0 0 -10 0 -10 10 0 10 0
0 -14 0 -14 -16 -6 -15 -6 6 10 6 10 -6 20 -6 20 -105 0 -104 0 0 -10 0 -10
10 0 10 0 0 -14 0 -14 -12 -5 -13 -5 15 -1 15 -1 15 -10 15 -10 -15 -10 -15
-10 13 0 12 0 0 -14 0 -14 12 -4 12 -4 -8 -12 -7 -12 -14 0 -13 0 -6 25 -7 26
-18 18 -19 19 -21 7 -20 6 -7 35 -6 34 -9 0 -9 0 0 15 0 14 -22 21 -22 20 24
22 23 22 -12 4 -13 4 -29 -32 -30 -32 -99 -5 -100 -6 0 -8 0 -9 -13 0 -13 0
-17 -20 -17 -20 0 -23 0 -22 -51 -12 -51 -13 -25 -26 -24 -26 -7 7 -7 8 13 4
12 5 0 98 0 99 16 15 15 16 15 0 14 0 0 9 0 9 23 4 23 4 12 -4 12 -4 0 -8 0
-7 -41 -6 -42 -5 -8 -14 -9 -13 0 -12 0 -13 14 0 14 0 6 15 5 15 16 0 15 0 0
10 0 10 80 0 80 0 -6 -26 -7 -26 22 18 21 18 0 13 0 13 -61 0 -62 0 -23 25
-23 25 -11 0 -10 0 0 -9z m340 -121 l0 -10 15 0 14 0 7 -35 6 -35 8 0 8 0 7
-41 7 -41 20 -20 20 -20 6 7 6 6 -10 7 -10 7 -7 18 -6 17 3 0 3 0 27 -25 26
-24 0 -6 0 -6 -14 -15 -15 -14 -10 0 -11 0 -20 17 -20 17 0 13 0 13 -9 0 -9 0
-7 30 -7 30 -9 0 -9 0 0 -15 0 -15 13 0 12 0 -15 -10 -15 -10 15 -10 15 -10
-12 0 -13 0 0 -14 0 -14 13 -5 12 -4 -8 -9 -8 -8 -9 14 -10 15 0 48 0 49 20 5
20 5 0 9 0 9 -19 0 -20 0 -15 15 -15 15 -30 0 -31 0 0 -10 0 -10 -15 0 -15 0
0 -20 0 -20 -15 0 -15 0 0 21 0 20 -47 -3 -46 -3 -4 -15 -5 -15 12 15 12 15 5
-12 5 -13 29 0 29 0 0 -10 0 -10 30 0 30 0 0 -10 0 -10 -42 -1 -43 -2 24 -4
24 -5 33 7 34 6 0 9 0 10 -15 0 -15 0 1 23 1 22 5 -12 5 -13 15 0 14 0 17 -17
17 -16 -13 -5 -12 -4 -14 -14 -15 -14 -70 0 -71 0 0 10 0 10 -14 0 -15 0 -15
16 -16 15 0 24 0 24 16 15 16 16 10 -6 11 -7 14 19 14 19 9 -15 10 -15 0 13 0
12 10 0 10 0 1 -17 1 -18 5 18 4 17 10 0 9 0 0 -13 0 -14 23 3 22 2 33 1 32 1
0 10 0 10 -42 1 -43 1 18 5 17 4 0 10 0 9 35 0 35 0 0 -10z m320 -85 l0 -15
-80 0 -80 0 0 15 0 15 80 0 80 0 0 -15z m-618 -44 l16 -19 -40 5 -39 6 -20
-22 -20 -21 16 0 15 0 0 -9 0 -9 62 -7 62 -7 13 -13 13 -14 0 -10 0 -11 -9 0
-9 0 -6 15 -5 15 -11 0 -10 0 0 -15 0 -15 -14 0 -15 0 -4 18 -5 17 -1 -22 -1
-23 -11 0 -11 0 -5 19 -5 19 -19 -5 -19 -5 6 15 5 15 -30 7 -31 7 0 10 0 10
28 28 28 28 20 5 19 5 10 1 11 1 16 -19z m-222 -6 l0 -15 -50 0 -50 0 0 15 0
15 50 0 50 0 0 -15z m930 5 l0 -10 -17 0 -18 0 -15 -10 -15 -10 15 -10 15 -10
-77 0 -78 0 0 14 0 14 -7 5 -8 4 13 -3 12 -3 0 14 0 15 90 0 90 0 0 -10z
m-540 -60 l0 -10 -10 0 -10 0 0 10 0 10 10 0 10 0 0 -10z m480 -27 l0 -18 -11
15 -11 15 -5 -14 -5 -13 -10 13 -10 14 -5 -14 -5 -13 -9 13 -9 14 -7 -11 -8
-12 -13 14 -13 14 61 0 60 0 0 -17z m-480 -3 l0 -10 -10 0 -10 0 0 10 0 10 10
0 10 0 0 -10z m183 -19 l7 -1 0 -10 0 -10 -135 0 -135 0 0 10 0 9 58 3 57 3
70 -1 70 -2 8 -1z m153 -7 l-16 -15 0 -15 0 -15 -15 -5 -15 -6 0 -15 0 -15
-22 6 -23 6 -28 0 -29 0 5 13 4 12 24 -3 24 -3 13 18 13 18 7 -11 7 -12 11 13
12 12 -42 0 -41 0 13 -4 12 -5 0 -9 0 -9 -14 0 -14 0 -5 13 -5 12 -14 -19 -15
-19 -12 4 -12 4 24 27 25 27 38 4 39 4 33 1 33 2 -15 -16z m-836 -4 l0 -10
-45 0 -45 0 0 10 0 10 45 0 45 0 0 -10z m970 0 l0 -10 -55 0 -55 0 0 10 0 10
55 0 55 0 0 -10z m30 -10 l0 -20 -20 -20 -20 -20 -5 0 -5 0 -20 17 -20 17 0 8
0 8 20 0 20 0 0 -16 0 -16 13 4 12 5 3 26 3 27 10 0 9 0 0 -20z m-1090 -21 l0
-9 -25 -6 -26 -6 -5 5 -5 5 16 15 16 16 14 -5 15 -6 0 -9z m392 2 l17 -20 -12
-5 -12 -4 11 -9 12 -8 -14 -13 -14 -13 -1 13 -1 13 -5 -12 -5 -13 -10 0 -9 0
-15 14 -14 14 13 5 12 4 -8 9 -8 8 -9 -13 -8 -14 5 -13 4 -12 -11 -7 -12 -7
-17 19 -18 19 13 12 13 12 8 0 9 0 17 20 17 20 18 0 18 0 16 -19z m-261 -71
l13 -80 8 0 8 0 0 -30 0 -30 170 0 170 0 0 100 0 100 -15 0 -15 0 0 10 0 10
130 0 130 0 0 -10 0 -10 -95 0 -95 0 0 -100 0 -100 155 0 155 0 0 30 0 30 10
0 10 0 0 29 0 30 15 15 15 15 0 18 1 18 13 18 13 17 13 0 13 0 -7 -62 -6 -62
-8 -5 -9 -6 -9 -70 -9 -70 -27 -3 -28 -3 0 20 0 21 -340 0 -340 0 0 -21 0 -20
-22 1 -23 2 -12 -1 -13 -1 0 -16 0 -15 -12 7 -11 7 -13 -18 -14 -19 -6 6 -6 6
20 20 20 20 21 7 21 6 0 30 0 29 -9 0 -8 0 -7 42 -7 42 -8 6 -8 5 -7 58 -7 57
29 0 30 0 13 -80z m159 70 l0 -10 -65 0 -65 0 0 10 0 10 65 0 65 0 0 -10z
m154 -14 l6 -24 -6 -16 -6 -16 -7 0 -7 0 -22 -20 -21 -20 -9 -17 -10 -16 -26
28 -27 28 12 11 12 11 4 -13 5 -12 9 6 9 5 22 4 22 5 6 11 7 11 -3 29 -4 29
14 0 14 0 6 -24z m-188 -21 l-6 -16 21 -17 21 -17 34 -33 33 -34 22 7 22 7 24
26 23 25 0 8 0 9 10 0 10 0 0 -65 0 -65 -140 0 -140 0 0 29 0 29 -9 4 -9 3 -7
58 -7 57 52 0 52 0 -6 -15z m466 5 l3 -11 57 -6 57 -6 4 -11 4 -11 -5 -37 -4
-38 -9 0 -9 0 0 -25 0 -25 -125 0 -125 0 0 90 0 90 74 0 74 0 4 -10z m253
-109 l-6 -11 -10 0 -10 0 13 14 13 14 4 -3 3 -4 -7 -10z m-972 -18 l-5 -13 -8
0 -8 0 -5 13 -5 12 -1 -18 -1 -17 -27 5 -28 5 13 -6 12 -6 0 -9 0 -9 -15 0
-15 0 0 13 0 12 8 11 7 11 15 5 15 6 26 -2 26 -1 -4 -12z m57 3 l0 -14 -7 -5
-8 -4 13 3 12 3 0 -14 0 -15 -15 0 -15 0 0 -15 0 -15 9 0 9 0 4 9 3 9 15 -16
14 -16 -17 7 -16 6 -13 -13 -14 -13 -12 13 -12 13 0 10 0 9 15 6 15 5 0 11 0
10 -17 1 -18 1 18 5 18 5 -5 14 -5 14 14 0 15 0 0 -14z m30 -6 l0 -10 -10 0
-10 0 0 10 0 10 10 0 10 0 0 -10z m-110 -55 l0 -15 9 0 9 0 5 -20 5 -20 -11 0
-12 0 -23 25 -24 24 7 11 6 10 15 0 14 0 0 -15z m1006 -30 l-15 -15 -10 0 -11
0 0 9 0 10 18 4 17 5 8 1 8 1 -15 -15z m-759 -8 l-5 -14 10 -14 10 -14 5 14 5
13 10 -13 10 -14 5 14 5 13 10 -13 10 -14 5 14 5 13 9 -13 9 -14 9 14 9 13 6
-13 6 -14 6 14 6 13 8 -12 8 -13 -5 -14 -6 -15 -8 14 -9 13 -9 -14 -9 -13 -6
13 -6 14 -6 -12 -6 -13 -18 0 -18 0 -6 13 -6 12 -6 -14 -6 -13 -10 13 -10 14
-5 -14 -5 -13 -9 13 -9 14 -9 -14 -9 -13 -6 13 -6 14 -6 -12 -6 -13 -19 0 -19
0 0 13 0 12 -10 -15 -9 -14 -7 7 -7 7 6 7 7 6 35 2 34 3 23 26 23 26 4 0 3 0
-5 -13z m180 -8 l12 -4 -9 -15 -9 -14 -4 4 -5 5 -6 25 -7 25 8 -11 8 -11 12
-4z m33 11 l0 -10 -10 0 -10 0 0 10 0 10 10 0 10 0 0 -10z m30 5 l0 -5 -21
-21 -21 -21 -5 5 -5 5 19 20 18 20 8 1 7 1 0 -5z m30 0 l0 -4 -35 -36 -36 -35
-19 0 -20 0 0 10 0 10 13 1 12 1 10 -1 11 -1 24 30 25 29 8 1 7 0 0 -5z m30 0
l0 -4 -36 -36 -36 -36 -5 4 -4 5 33 35 33 35 8 1 7 1 0 -5z m30 0 l0 -4 -36
-36 -36 -36 -5 4 -4 5 33 35 33 35 8 1 7 1 0 -5z m30 0 l0 -4 -36 -36 -36 -36
-5 4 -4 5 33 35 33 35 8 1 7 1 0 -5z m30 0 l0 -4 -36 -36 -36 -36 -5 4 -4 5
33 35 33 35 8 1 7 1 0 -5z m30 0 l0 -4 -36 -36 -36 -36 -5 4 -4 5 33 35 33 35
8 1 7 1 0 -5z m160 -5 l0 -10 -10 0 -10 0 0 10 0 10 10 0 10 0 0 -10z m165
-36 l27 -25 -5 -6 -6 -5 -25 27 -26 28 0 -12 0 -11 -10 0 -10 0 0 15 0 15 14
0 13 0 28 -26z m119 11 l-6 -15 -9 0 -9 0 0 9 0 9 13 5 12 5 2 1 2 1 -5 -15z
m-444 -5 l0 -10 -10 0 -10 0 0 10 0 10 10 0 10 0 0 -10z m39 -1 l9 13 6 -13 6
-14 6 14 6 13 9 -13 9 -14 9 14 9 13 6 -13 6 -14 6 12 5 12 13 -11 13 -12 -11
-12 -11 -12 -8 12 -9 11 -5 -14 -5 -13 -10 13 -10 14 -5 -14 -5 -13 -10 13
-10 14 -5 -14 -5 -13 -9 13 -9 14 -10 -15 -10 -15 -1 15 -1 15 -5 -12 -5 -13
-24 0 -24 0 0 10 0 10 13 1 12 1 13 -1 12 -2 7 16 6 17 8 -14 9 -13 9 14z
m151 -2 l0 -12 55 0 56 1 12 -8 11 -7 -7 -8 -8 -7 -9 14 -10 15 0 -12 0 -13
-19 0 -19 0 -6 13 -6 12 -6 -14 -6 -13 -10 13 -10 14 -5 -12 -5 -13 -18 0 -17
0 0 25 0 25 13 0 14 0 0 -13z m-750 -27 l0 -10 -10 0 -10 0 0 10 0 10 10 0 10
0 0 -10z"/>
<path d="M1077 988 l-11 -7 7 -8 8 -7 9 14 10 15 0 -12 0 -13 14 0 14 0 5 13
5 12 9 -11 8 -12 12 13 11 12 -45 -1 -45 -1 -11 -7z"/>
<path d="M970 830 l0 -10 10 0 10 0 0 10 0 10 -10 0 -10 0 0 -10z"/>
<path d="M469 863 l-1 -8 -2 -22 -3 -22 22 1 22 2 -11 28 -10 28 -8 0 -8 0 -1
-7z"/>
<path d="M70 641 l0 -9 14 -5 15 -6 -6 15 -5 14 -9 0 -9 0 0 -9z"/>
<path d="M317 577 l-5 -13 18 0 18 0 -5 13 -5 13 -8 0 -8 0 -5 -13z"/>
<path d="M957 1230 l-17 -20 0 -11 0 -10 19 -20 19 -21 11 7 11 6 0 12 0 12
-10 -15 -10 -15 -10 15 -10 15 0 15 0 15 10 15 10 15 11 -15 11 -15 -4 14 -4
15 -10 3 -9 3 -18 -20z"/>
<path d="M1160 1230 l0 -10 10 0 10 0 0 10 0 10 -10 0 -10 0 0 -10z"/>
<path d="M970 1200 l0 -10 10 0 10 0 0 10 0 10 -10 0 -10 0 0 -10z"/>
<path d="M470 1170 l0 -10 10 0 10 0 0 10 0 10 -10 0 -10 0 0 -10z"/>
<path d="M1160 1170 l0 -10 10 0 10 0 0 10 0 10 -10 0 -10 0 0 -10z"/>
<path d="M33 1014 l-23 -21 0 -11 0 -10 16 -6 16 -6 9 0 9 0 0 15 0 15 -10 0
-10 0 0 -12 0 -11 -6 6 -6 5 7 21 6 21 9 0 8 0 6 -25 6 -25 10 0 10 0 0 15 0
15 -10 0 -10 0 0 9 0 9 28 10 27 10 -35 -1 -34 -2 -23 -21z"/>
<path d="M88 963 l-16 -4 -5 -13 -5 -13 9 -14 8 -14 14 19 14 19 12 -8 13 -7
-4 17 -3 18 -10 2 -10 3 -17 -5z"/>
<path d="M255 899 l-7 -10 3 -4 4 -3 13 14 13 14 -10 0 -10 0 -6 -11z"/>
<path d="M1127 696 l-6 -15 15 6 14 5 0 9 0 9 -9 0 -9 0 -5 -14z"/>
<path d="M1220 640 l0 -10 10 0 10 0 0 10 0 10 -10 0 -10 0 0 -10z"/>
<path d="M1150 610 l0 -10 15 0 15 0 0 10 0 10 -15 0 -15 0 0 -10z"/>
</g>
</svg>
