<?xml version="1.0" standalone="no"?>
<!DOCTYPE svg PUBLIC "-//W3C//DTD SVG 20010904//EN"
 "http://www.w3.org/TR/2001/REC-SVG-20010904/DTD/svg10.dtd">
<svg version="1.0" xmlns="http://www.w3.org/2000/svg"
 width="468pt" height="468pt" viewBox="0 0 468 468"
 preserveAspectRatio="xMidYMid meet">
<metadata>
Created by potrace 1.8, written by Peter Selinger 2001-2007
</metadata>
<g transform="translate(0,468) scale(0.365625,-0.365625)"
fill="#000000" stroke="none">
<path d="M0 640 l0 -640 640 0 640 0 0 640 0 640 -640 0 -640 0 0 -640z m1160
500 l0 -20 -20 0 -20 0 0 -20 0 -20 -40 0 -40 0 0 -20 0 -20 -40 0 -40 0 0
-20 0 -20 -20 0 -20 0 0 -20 0 -20 20 0 20 0 0 -20 0 -20 40 0 40 0 0 -100 0
-100 20 0 20 0 0 -20 0 -20 -40 0 -40 0 0 -20 0 -20 -20 0 -20 0 0 -20 0 -20
-40 0 -40 0 0 -20 0 -20 -20 0 -20 0 0 -20 0 -20 -20 0 -20 0 0 -60 0 -60 -20
0 -20 0 0 -60 0 -60 -20 0 -20 0 0 -20 0 -20 -20 0 -20 0 0 -40 0 -40 -20 0
-20 0 0 -20 0 -20 -40 0 -40 0 0 20 0 20 -20 0 -20 0 0 20 0 20 -20 0 -20 0 0
60 0 60 -20 0 -20 0 0 20 0 20 -20 0 -20 0 0 40 0 40 -20 0 -20 0 0 40 0 40
-20 0 -20 0 0 20 0 20 -20 0 -20 0 0 20 0 20 -40 0 -40 0 0 20 0 20 -40 0 -40
0 0 80 0 80 20 0 20 0 0 40 0 40 20 0 20 0 0 20 0 20 20 0 20 0 0 20 0 20 20
0 20 0 0 20 0 20 -60 0 -60 0 0 20 0 20 -20 0 -20 0 0 20 0 20 -20 0 -20 0 0
20 0 20 40 0 40 0 0 -20 0 -20 60 0 60 0 0 -20 0 -20 60 0 60 0 0 -20 0 -20
20 0 20 0 0 20 0 20 20 0 20 0 0 -20 0 -20 40 0 40 0 0 20 0 20 20 0 20 0 0
-20 0 -20 20 0 20 0 0 20 0 20 20 0 20 0 0 -20 0 -20 20 0 20 0 0 20 0 20 40
0 40 0 0 20 0 20 40 0 40 0 0 20 0 20 120 0 120 0 0 20 0 20 20 0 20 0 0 -20z"/>
<path d="M440 980 l0 -20 20 0 20 0 0 20 0 20 -20 0 -20 0 0 -20z"/>
<path d="M280 920 l0 -40 40 0 40 0 0 -20 0 -20 20 0 20 0 0 20 0 20 20 0 20
0 0 -20 0 -20 40 0 40 0 0 -20 0 -20 20 0 20 0 0 20 0 20 40 0 40 0 0 40 0 40
20 0 20 0 0 20 0 20 -20 0 -20 0 0 -20 0 -20 -20 0 -20 0 0 20 0 20 -40 0 -40
0 0 -40 0 -40 -40 0 -40 0 0 20 0 20 -20 0 -20 0 0 -20 0 -20 -20 0 -20 0 0
20 0 20 -20 0 -20 0 0 20 0 20 -20 0 -20 0 0 -40z m320 -20 l0 -20 -20 0 -20
0 0 -20 0 -20 -20 0 -20 0 0 20 0 20 20 0 20 0 0 20 0 20 20 0 20 0 0 -20z"/>
<path d="M760 920 l0 -40 -20 0 -20 0 0 -20 0 -20 -20 0 -20 0 0 -20 0 -20 20
0 20 0 0 20 0 20 20 0 20 0 0 20 0 20 20 0 20 0 0 40 0 40 -20 0 -20 0 0 -40z"/>
<path d="M880 940 l0 -20 -20 0 -20 0 0 -20 0 -20 20 0 20 0 0 20 0 20 20 0
20 0 0 -20 0 -20 20 0 20 0 0 20 0 20 -20 0 -20 0 0 20 0 20 -20 0 -20 0 0
-20z"/>
<path d="M200 760 l0 -80 20 0 20 0 0 -20 0 -20 60 0 60 0 0 -20 0 -20 20 0
20 0 0 20 0 20 60 0 60 0 0 20 0 20 20 0 20 0 0 20 0 20 20 0 20 0 0 20 0 20
-20 0 -20 0 0 -20 0 -20 -40 0 -40 0 0 20 0 20 -40 0 -40 0 0 20 0 20 -60 0
-60 0 0 20 0 20 -40 0 -40 0 0 -80z"/>
<path d="M840 820 l0 -20 -40 0 -40 0 0 -20 0 -20 -60 0 -60 0 0 -40 0 -40 20
0 20 0 0 -20 0 -20 -60 0 -60 0 0 -20 0 -20 -20 0 -20 0 0 -40 0 -40 20 0 20
0 0 -20 0 -20 40 0 40 0 0 40 0 40 20 0 20 0 0 40 0 40 120 0 120 0 0 20 0 20
20 0 20 0 0 20 0 20 20 0 20 0 0 60 0 60 -80 0 -80 0 0 -20z"/>
<path d="M440 400 l0 -40 20 0 20 0 0 -20 0 -20 20 0 20 0 0 -20 0 -20 20 0
20 0 0 -40 0 -40 40 0 40 0 0 40 0 40 20 0 20 0 0 20 0 20 20 0 20 0 0 60 0
60 -40 0 -40 0 0 -20 0 -20 -40 0 -40 0 0 20 0 20 -60 0 -60 0 0 -40z"/>
</g>
</svg>
