<?xml version="1.0" standalone="no"?>
<!DOCTYPE svg PUBLIC "-//W3C//DTD SVG 20010904//EN"
 "http://www.w3.org/TR/2001/REC-SVG-20010904/DTD/svg10.dtd">
<svg version="1.0" xmlns="http://www.w3.org/2000/svg"
 width="468pt" height="468pt" viewBox="0 0 468 468"
 preserveAspectRatio="xMidYMid meet">
<metadata>
Created by potrace 1.8, written by Peter Selinger 2001-2007
</metadata>
<g transform="translate(0,468) scale(0.365625,-0.365625)"
fill="#000000" stroke="none">
<path d="M793 1045 l-33 -34 0 -16 0 -15 -10 0 -10 0 0 -30 0 -30 10 0 10 0 0
-15 0 -15 -57 -57 -57 -57 -4 12 -4 12 -19 0 -19 0 0 10 0 10 -20 0 -20 0 0
10 0 10 -20 0 -20 0 0 10 0 10 -20 0 -20 0 0 10 0 10 -20 0 -20 0 0 10 0 10
-20 0 -20 0 0 15 0 16 -35 34 -34 35 -21 0 -21 0 -24 -25 -25 -24 0 -21 0 -21
25 -24 24 -25 56 0 55 0 0 -10 0 -10 20 0 20 0 0 -10 0 -10 20 0 20 0 0 -10 0
-10 20 0 20 0 0 -10 0 -10 16 0 15 0 15 -14 14 -15 0 -10 0 -11 -165 -165
-165 -165 -5 0 -5 0 0 18 0 18 -20 14 -20 14 0 16 0 16 -20 14 -20 14 0 18 0
18 -10 0 -10 0 0 20 0 20 -10 0 -10 0 0 30 0 30 40 0 40 0 0 5 0 5 -65 65 -65
65 -5 0 -5 0 0 -120 0 -120 10 0 10 0 0 -30 0 -30 10 0 10 0 0 -48 0 -48 20
-14 20 -14 0 -18 0 -18 10 0 10 0 0 -60 0 -60 70 0 70 0 0 -10 0 -10 20 0 20
0 0 -10 0 -10 20 0 20 0 0 -10 0 -10 40 0 40 0 0 -10 0 -10 110 0 110 0 0 5 0
5 -65 65 -65 65 -5 0 -5 0 0 -40 0 -40 -10 0 -10 0 0 10 0 10 -20 0 -20 0 0
10 0 10 -20 0 -20 0 0 10 0 10 -18 0 -18 0 -14 20 -14 20 -14 0 -13 0 -15 14
-14 15 0 10 0 11 175 175 175 175 25 0 25 0 0 -10 0 -10 20 0 20 0 0 -10 0
-10 20 0 20 0 0 -10 0 -10 20 0 20 0 0 -10 0 -10 20 0 20 0 0 -10 0 -10 20 0
20 0 0 -10 0 -10 20 0 20 0 0 -16 0 -15 -14 -15 -15 -14 -15 0 -16 0 0 -10 0
-10 -15 0 -16 0 -24 -25 -25 -24 0 -21 0 -21 25 -24 24 -25 21 0 21 0 24 25
25 24 0 31 0 32 40 38 40 38 0 12 0 11 -14 15 -15 14 -13 0 -14 0 -14 20 -14
20 -18 0 -18 0 0 10 0 10 -30 0 -30 0 0 10 0 10 -18 0 -18 0 -14 20 -14 20
-18 0 -18 0 0 10 0 10 -20 0 -20 0 0 5 0 6 45 44 44 45 16 0 15 0 0 -10 0 -10
40 0 40 0 0 10 0 10 20 0 20 0 0 -10 0 -10 -10 0 -10 0 0 -30 0 -30 10 0 10 0
0 -20 0 -20 20 0 20 0 0 -10 0 -10 29 0 29 0 5 13 4 12 9 -9 9 -9 -12 -4 -13
-5 0 -29 0 -29 10 0 10 0 0 -20 0 -20 20 0 20 0 0 -10 0 -10 30 0 30 0 0 -25
0 -26 25 -24 24 -25 26 0 25 0 0 20 0 20 -16 0 -15 0 -15 14 -14 15 0 5 0 6
20 0 20 0 0 20 0 20 -10 0 -10 0 0 10 0 10 20 0 20 0 0 20 0 20 -20 0 -20 0 0
20 0 20 -10 0 -10 0 0 20 0 20 -20 0 -20 0 0 10 0 10 -29 0 -29 0 -5 -12 -4
-13 -9 9 -9 9 13 4 12 5 0 29 0 29 -10 0 -10 0 0 20 0 20 -20 0 -20 0 0 10 0
10 -30 0 -30 0 0 -10 0 -10 -10 0 -10 0 0 20 0 20 10 0 10 0 0 45 0 46 -45 44
-44 45 -43 -1 -43 0 -32 -34z m132 -60 l35 -34 0 -26 0 -25 -8 0 -8 0 -14 20
-14 20 -18 0 -18 0 0 -20 0 -20 10 0 10 0 0 -10 0 -10 -25 0 -26 0 -24 25 -25
24 0 21 0 21 23 24 22 24 23 0 23 1 34 -35z m135 -165 l0 -20 10 0 10 0 0 -10
0 -10 -20 0 -20 0 0 -20 0 -20 -16 0 -15 0 -15 14 -14 15 0 15 0 16 20 0 20 0
0 20 0 20 20 0 20 0 0 -20z m120 -120 l0 -20 10 0 10 0 0 -10 0 -10 -20 0 -20
0 0 -20 0 -20 -16 0 -15 0 -15 14 -14 15 0 15 0 16 20 0 20 0 0 20 0 20 20 0
20 0 0 -20z"/>
</g>
</svg>
