<?xml version="1.0" standalone="no"?>
<!DOCTYPE svg PUBLIC "-//W3C//DTD SVG 20010904//EN"
 "http://www.w3.org/TR/2001/REC-SVG-20010904/DTD/svg10.dtd">
<svg version="1.0" xmlns="http://www.w3.org/2000/svg"
 width="468pt" height="468pt" viewBox="0 0 468 468"
 preserveAspectRatio="xMidYMid meet">
<metadata>
Created by potrace 1.8, written by Peter Selinger 2001-2007
</metadata>
<g transform="translate(0,468) scale(0.365625,-0.365625)"
fill="#000000" stroke="none">
<path d="M900 1265 l0 -15 -26 0 -25 0 -15 -14 -14 -15 0 -10 0 -11 -15 0 -15
0 0 -25 0 -25 -10 0 -10 0 0 -75 0 -75 10 0 10 0 0 -25 0 -25 -10 0 -10 0 0
-15 0 -15 -11 0 -10 0 -15 -14 -14 -15 0 -10 0 -11 -15 0 -15 0 0 -11 0 -10
-14 -15 -15 -14 -10 0 -11 0 0 -15 0 -15 -11 0 -10 0 -15 -14 -14 -15 0 -10 0
-11 -11 0 -10 0 -15 -14 -14 -15 0 -10 0 -11 -36 0 -35 0 -15 -14 -14 -15 0
-21 0 -21 14 -15 15 -14 10 0 11 0 0 -15 0 -15 25 0 25 0 0 15 0 15 21 0 20 0
15 14 14 15 0 10 0 11 30 0 30 0 0 15 0 15 25 0 25 0 0 10 0 10 25 0 25 0 0
11 0 10 14 15 15 14 10 0 11 0 0 25 0 25 -15 0 -15 0 0 -21 0 -20 -14 -15 -15
-14 -9 0 -10 0 -6 13 -6 12 -6 -12 -6 -13 -14 0 -14 0 0 -15 0 -15 -10 0 -10
0 0 15 0 15 10 0 10 0 0 25 0 25 11 0 10 0 15 14 14 15 0 10 0 11 11 0 10 0
15 14 14 15 0 10 0 11 15 0 15 0 0 11 0 10 14 15 15 14 25 0 26 0 0 -10 0 -10
35 0 35 0 0 -15 0 -15 -10 0 -10 0 0 -15 0 -15 10 0 10 0 0 15 0 15 40 0 40 0
0 -15 0 -15 15 0 15 0 0 15 0 15 25 0 25 0 0 15 0 15 -11 0 -10 0 -15 14 -14
15 0 6 0 6 14 15 15 14 10 0 11 0 0 25 0 25 10 0 10 0 0 65 0 65 -10 0 -10 0
0 25 0 25 -15 0 -15 0 0 11 0 10 -14 15 -15 14 -25 0 -26 0 0 15 0 15 -60 0
-60 0 0 -15z m180 -50 l0 -15 -15 0 -15 0 0 15 0 15 15 0 15 0 0 -15z m-30
-25 l0 -10 15 0 15 0 0 -40 0 -40 -15 0 -15 0 0 25 0 25 -15 0 -15 0 0 15 0
15 -25 0 -25 0 0 -15 0 -15 -10 0 -10 0 0 10 0 11 13 14 12 14 38 1 37 0 0
-10z m-210 -25 l0 -15 -10 0 -10 0 0 15 0 15 10 0 10 0 0 -15z m260 -140 l0
-25 -10 0 -10 0 0 -15 0 -15 -30 0 -30 0 0 15 0 15 30 0 30 0 0 25 0 25 10 0
10 0 0 -25z m-230 -40 l0 -15 -11 0 -10 0 -15 -14 -14 -15 0 -10 0 -11 -11 0
-10 0 -15 -14 -14 -15 0 -10 0 -11 -15 0 -15 0 0 -11 0 -10 -14 -15 -15 -14
-10 0 -11 0 0 -11 0 -10 -14 -15 -15 -14 -10 0 -11 0 0 -15 0 -15 -11 0 -10 0
-15 -14 -14 -15 0 -10 0 -11 -11 0 -10 0 -15 -14 -14 -15 0 -10 0 -11 -15 0
-15 0 0 -15 0 -15 -10 0 -10 0 0 15 0 15 -15 0 -15 0 0 15 0 15 15 0 15 0 0
-15 0 -15 10 0 10 0 0 15 0 15 11 0 10 0 15 14 14 15 0 10 0 11 11 0 10 0 15
14 14 15 0 10 0 11 15 0 15 0 0 10 0 10 15 0 15 0 0 11 0 10 14 15 15 14 10 0
11 0 0 15 0 15 10 0 10 0 0 15 0 15 11 0 10 0 15 14 14 15 0 10 0 11 11 0 10
0 15 14 14 15 0 10 0 11 15 0 15 0 0 -15z m130 -25 l0 -10 -15 0 -15 0 0 10 0
10 15 0 15 0 0 -10z m50 -50 l0 -10 15 0 15 0 0 -15 0 -15 -15 0 -15 0 0 15 0
15 -15 0 -15 0 0 10 0 10 15 0 15 0 0 -10z m-410 -230 l0 -10 -15 0 -15 0 0
-15 0 -15 -10 0 -10 0 0 -15 0 -15 -15 0 -15 0 0 15 0 15 15 0 15 0 0 10 0 11
13 14 12 14 13 1 12 0 0 -10z"/>
<path d="M1200 1035 l0 -15 15 0 15 0 0 15 0 15 -15 0 -15 0 0 -15z"/>
<path d="M1150 999 l0 -20 -14 -15 -15 -14 -10 0 -11 0 0 -15 0 -15 15 0 15 0
0 -10 0 -10 25 0 25 0 0 25 0 25 -15 0 -15 0 0 -15 0 -15 -10 0 -10 0 0 11 0
10 14 15 15 14 10 0 11 0 0 25 0 25 -15 0 -15 0 0 -21z"/>
<path d="M1200 986 l0 -14 -12 -6 -13 -6 13 -6 12 -6 0 -14 0 -14 15 0 15 0 0
15 0 15 -15 0 -15 0 0 10 0 10 15 0 15 0 0 15 0 15 -15 0 -15 0 0 -14z"/>
<path d="M1250 960 l0 -10 15 0 15 0 0 10 0 10 -15 0 -15 0 0 -10z"/>
<path d="M1250 910 l0 -10 15 0 15 0 0 10 0 10 -15 0 -15 0 0 -10z"/>
<path d="M1200 885 l0 -15 15 0 15 0 0 15 0 15 -15 0 -15 0 0 -15z"/>
<path d="M1150 855 l0 -15 15 0 15 0 0 15 0 15 -15 0 -15 0 0 -15z"/>
<path d="M1250 855 l0 -15 15 0 15 0 0 15 0 15 -15 0 -15 0 0 -15z"/>
<path d="M900 830 l0 -10 10 0 10 0 0 10 0 10 -10 0 -10 0 0 -10z"/>
<path d="M1000 830 l0 -10 10 0 10 0 0 10 0 10 -10 0 -10 0 0 -10z"/>
<path d="M1100 830 l0 -10 15 0 15 0 0 10 0 10 -15 0 -15 0 0 -10z"/>
<path d="M1200 830 l0 -10 15 0 15 0 0 10 0 10 -15 0 -15 0 0 -10z"/>
<path d="M840 805 l0 -15 15 0 15 0 0 15 0 15 -15 0 -15 0 0 -15z"/>
<path d="M950 805 l0 -15 10 0 10 0 0 15 0 15 -10 0 -10 0 0 -15z"/>
<path d="M1050 805 l0 -15 15 0 15 0 0 15 0 15 -15 0 -15 0 0 -15z"/>
<path d="M1150 805 l0 -15 15 0 15 0 0 15 0 15 -15 0 -15 0 0 -15z"/>
<path d="M900 780 l0 -10 10 0 10 0 0 10 0 10 -10 0 -10 0 0 -10z"/>
<path d="M1000 780 l0 -10 10 0 10 0 0 10 0 10 -10 0 -10 0 0 -10z"/>
<path d="M1100 780 l0 -10 15 0 15 0 0 10 0 10 -15 0 -15 0 0 -10z"/>
<path d="M1200 780 l0 -10 15 0 15 0 0 10 0 10 -15 0 -15 0 0 -10z"/>
<path d="M740 755 l0 -15 15 0 15 0 0 15 0 15 -15 0 -15 0 0 -15z"/>
<path d="M840 755 l0 -15 15 0 15 0 0 15 0 15 -15 0 -15 0 0 -15z"/>
<path d="M1050 755 l0 -15 15 0 15 0 0 15 0 15 -15 0 -15 0 0 -15z"/>
<path d="M1150 755 l0 -15 15 0 15 0 0 15 0 15 -15 0 -15 0 0 -15z"/>
<path d="M200 395 l0 -15 -10 0 -10 0 0 -25 0 -25 -11 0 -10 0 -15 -14 -14
-15 0 -10 0 -11 -11 0 -10 0 -15 -14 -14 -15 0 -10 0 -11 -15 0 -15 0 0 -15 0
-15 -10 0 -10 0 0 -25 0 -25 -15 0 -15 0 0 -75 0 -75 640 0 640 0 0 50 0 50
-625 0 -625 0 0 11 0 10 14 15 15 14 20 0 21 0 0 15 0 15 11 0 10 0 15 14 14
15 0 10 0 11 25 0 25 0 0 15 0 15 26 0 25 0 15 14 14 15 0 10 0 11 -10 0 -10
0 0 -15 0 -15 -15 0 -15 0 0 15 0 15 14 0 14 0 6 13 6 12 6 -12 6 -13 14 0 14
0 0 35 0 35 -15 0 -15 0 0 15 0 15 -40 0 -40 0 0 -15z m60 -25 l0 -10 -15 0
-15 0 0 -15 0 -15 -11 0 -10 0 -15 -14 -14 -15 0 -10 0 -11 -11 0 -10 0 -15
-14 -14 -15 0 -10 0 -11 -15 0 -15 0 0 -11 0 -10 -14 -15 -15 -14 -10 0 -11 0
0 10 0 10 15 0 15 0 0 15 0 15 10 0 10 0 0 15 0 15 11 0 10 0 15 14 14 15 0
10 0 11 11 0 10 0 15 14 14 15 0 10 0 11 15 0 15 0 0 10 0 10 15 0 15 0 0 -10z"/>
</g>
</svg>
