<?xml version="1.0" standalone="no"?>
<!DOCTYPE svg PUBLIC "-//W3C//DTD SVG 20010904//EN"
 "http://www.w3.org/TR/2001/REC-SVG-20010904/DTD/svg10.dtd">
<svg version="1.0" xmlns="http://www.w3.org/2000/svg"
 width="468pt" height="468pt" viewBox="0 0 468 468"
 preserveAspectRatio="xMidYMid meet">
<metadata>
Created by potrace 1.8, written by Peter Selinger 2001-2007
</metadata>
<g transform="translate(0,468) scale(0.365625,-0.365625)"
fill="#000000" stroke="none">
<path d="M0 1175 l0 -105 25 0 25 0 0 -30 0 -30 -25 0 -25 0 0 -80 0 -80 25 0
25 0 0 -25 0 -25 -25 0 -25 0 0 -105 0 -105 25 0 25 0 0 -30 0 -30 -25 0 -25
0 0 -105 0 -105 25 0 25 0 0 -25 0 -25 -25 0 -25 0 0 -135 0 -135 25 0 25 0 0
135 0 135 30 0 30 0 0 25 0 25 25 0 25 0 0 25 0 25 -25 0 -25 0 0 -25 0 -25
-30 0 -30 0 0 80 0 80 30 0 30 0 0 55 0 55 25 0 25 0 0 25 0 25 -25 0 -25 0 0
-25 0 -25 -30 0 -30 0 0 80 0 80 30 0 30 0 0 50 0 50 -30 0 -30 0 0 80 0 80
30 0 30 0 0 30 0 30 -30 0 -30 0 0 50 0 50 30 0 30 0 0 30 0 30 -30 0 -30 0 0
25 0 25 -25 0 -25 0 0 -105z"/>
<path d="M270 1200 l0 -80 -30 0 -30 0 0 -25 0 -25 30 0 30 0 0 25 0 25 25 0
25 0 0 -55 0 -55 -25 0 -25 0 0 -80 0 -80 -30 0 -30 0 0 -25 0 -25 30 0 30 0
0 -80 0 -80 25 0 25 0 0 -25 0 -25 -25 0 -25 0 0 -160 0 -160 -30 0 -30 0 0
-30 0 -30 30 0 30 0 0 30 0 30 25 0 25 0 0 -55 0 -55 -25 0 -25 0 0 -80 0 -80
25 0 25 0 0 80 0 80 25 0 25 0 0 55 0 55 -25 0 -25 0 0 160 0 160 25 0 25 0 0
25 0 25 -25 0 -25 0 0 55 0 55 25 0 25 0 0 50 0 50 -25 0 -25 0 0 80 0 80 55
0 55 0 0 -25 0 -25 25 0 25 0 0 25 0 25 -25 0 -25 0 0 30 0 30 -30 0 -30 0 0
25 0 25 -25 0 -25 0 0 80 0 80 -25 0 -25 0 0 -80z m50 -375 l0 -25 -25 0 -25
0 0 25 0 25 25 0 25 0 0 -25z"/>
<path d="M1070 1225 l0 -55 -30 0 -30 0 0 -25 0 -25 30 0 30 0 0 -80 0 -80
-30 0 -30 0 0 -55 0 -55 30 0 30 0 0 -80 0 -80 -30 0 -30 0 0 30 0 30 -25 0
-25 0 0 -30 0 -30 25 0 25 0 0 -25 0 -25 30 0 30 0 0 -160 0 -160 -30 0 -30 0
0 -55 0 -55 30 0 30 0 0 -105 0 -105 80 0 80 0 0 640 0 640 -80 0 -80 0 0 -55z
m50 -80 l0 -25 -25 0 -25 0 0 25 0 25 25 0 25 0 0 -25z m0 -240 l0 -55 -25 0
-25 0 0 55 0 55 25 0 25 0 0 -55z m0 -240 l0 -25 -25 0 -25 0 0 25 0 25 25 0
25 0 0 -25z m0 -370 l0 -25 -25 0 -25 0 0 25 0 25 25 0 25 0 0 -25z"/>
<path d="M590 1175 l0 -55 25 0 25 0 0 55 0 55 -25 0 -25 0 0 -55z"/>
<path d="M910 1145 l0 -25 25 0 25 0 0 25 0 25 -25 0 -25 0 0 -25z"/>
<path d="M910 985 l0 -25 25 0 25 0 0 25 0 25 -25 0 -25 0 0 -25z"/>
<path d="M750 935 l0 -25 -30 0 -30 0 0 -30 0 -30 -50 0 -50 0 0 -25 0 -25 50
0 50 0 0 25 0 25 30 0 30 0 0 30 0 30 25 0 25 0 0 25 0 25 -25 0 -25 0 0 -25z"/>
<path d="M480 695 l0 -55 25 0 25 0 0 55 0 55 -25 0 -25 0 0 -55z"/>
<path d="M910 585 l0 -55 50 0 50 0 0 30 0 30 -25 0 -25 0 0 25 0 25 -25 0
-25 0 0 -55z"/>
<path d="M430 505 l0 -25 -30 0 -30 0 0 -25 0 -25 30 0 30 0 0 25 0 25 25 0
25 0 0 25 0 25 -25 0 -25 0 0 -25z"/>
<path d="M690 455 l0 -25 30 0 30 0 0 25 0 25 -30 0 -30 0 0 -25z"/>
<path d="M800 400 l0 -30 25 0 25 0 0 -25 0 -25 30 0 30 0 0 25 0 25 -30 0
-30 0 0 30 0 30 -25 0 -25 0 0 -30z"/>
<path d="M430 295 l0 -25 25 0 25 0 0 -30 0 -30 25 0 25 0 0 55 0 55 -50 0
-50 0 0 -25z"/>
<path d="M590 185 l0 -25 -30 0 -30 0 0 -25 0 -25 30 0 30 0 0 25 0 25 25 0
25 0 0 25 0 25 -25 0 -25 0 0 -25z"/>
<path d="M800 135 l0 -25 25 0 25 0 0 -30 0 -30 80 0 80 0 0 30 0 30 -80 0
-80 0 0 25 0 25 -25 0 -25 0 0 -25z"/>
</g>
</svg>
