<?xml version="1.0" standalone="no"?>
<!DOCTYPE svg PUBLIC "-//W3C//DTD SVG 20010904//EN"
 "http://www.w3.org/TR/2001/REC-SVG-20010904/DTD/svg10.dtd">
<svg version="1.0" xmlns="http://www.w3.org/2000/svg"
 width="468pt" height="468pt" viewBox="0 0 468 468"
 preserveAspectRatio="xMidYMid meet">
<metadata>
Created by potrace 1.8, written by Peter Selinger 2001-2007
</metadata>
<g transform="translate(0,468) scale(0.365625,-0.365625)"
fill="#000000" stroke="none">
<path d="M999 1207 l-16 -12 -7 -22 -7 -23 6 -9 5 -10 29 17 29 16 11 18 11
18 -19 0 -19 0 -4 9 -3 10 -16 -12z m-12 -59 l-5 -13 -1 19 -1 19 6 -6 6 -6
-5 -13z"/>
<path d="M944 1179 l-6 -11 11 -11 11 -11 0 22 0 22 -4 0 -5 0 -7 -11z"/>
<path d="M913 1158 l-10 -13 0 -17 0 -16 15 5 14 6 -13 8 -13 7 13 16 13 16
-5 0 -5 0 -9 -12z"/>
<path d="M428 1147 l14 -16 -8 -13 -7 -13 14 13 13 12 10 0 10 0 -12 -12 -12
-12 0 -8 0 -8 10 0 10 0 0 14 0 14 19 5 20 5 5 -13 5 -14 -17 -4 -17 -5 22 -1
22 -1 6 19 6 20 17 4 17 5 -21 1 -20 1 -13 13 -14 12 7 -12 6 -12 -19 -6 -20
-6 -33 17 -33 17 13 -16z"/>
<path d="M575 1108 l-7 -18 -10 0 -9 0 6 10 6 10 -10 0 -11 0 0 -8 0 -8 19
-16 20 -17 4 17 5 17 2 -35 2 -35 8 25 8 25 1 -31 1 -31 15 0 15 0 -1 11 -1
11 -6 23 -7 23 -8 -3 -9 -3 -13 25 -14 25 -6 -17z"/>
<path d="M75 1099 l-20 -9 34 6 34 6 -7 -10 -6 -10 64 -4 64 -3 -4 7 -4 7 15
8 16 9 -83 2 -83 1 -20 -10z m118 -6 l-13 -5 -12 5 -13 5 25 0 25 0 -12 -5z"/>
<path d="M280 1101 l15 -11 -23 0 -23 0 5 -9 6 -8 24 0 24 0 -3 16 -2 16 -19
3 -19 3 15 -10z"/>
<path d="M314 1095 l2 -14 6 -6 5 -6 39 -5 39 -5 39 -4 40 -3 -14 8 -13 8 19
5 19 5 -21 1 -20 1 -12 12 -12 12 -59 3 -59 3 2 -15z m70 -4 l-6 -6 -24 0 -24
-1 0 7 0 8 30 -1 30 -1 -6 -6z m46 -1 l15 -9 -23 2 -22 1 0 8 0 8 8 0 7 0 15
-10z"/>
<path d="M1003 1093 l17 -5 13 5 12 5 -30 0 -30 0 18 -5z"/>
<path d="M1062 1063 l12 -32 -19 -20 -18 -21 8 0 8 0 13 18 13 17 1 16 0 15
-15 20 -14 19 11 -32z"/>
<path d="M675 1050 l18 -20 5 0 5 0 -18 20 -18 20 -5 0 -5 0 18 -20z"/>
<path d="M880 1056 l9 -9 63 10 63 11 -72 -2 -72 -1 9 -9z"/>
<path d="M488 1039 l-18 -19 20 0 20 0 0 20 0 20 -2 -1 -3 -1 -17 -19z"/>
<path d="M1025 1035 l0 -23 8 5 7 4 0 14 0 14 -7 4 -8 5 0 -23z"/>
<path d="M651 1030 l-1 -26 -11 -11 -11 -11 5 -18 5 -19 1 23 1 22 10 0 9 0
-5 -14 -6 -15 23 -30 23 -31 13 0 13 0 0 -14 0 -14 13 2 13 2 23 21 23 21 -11
7 -11 6 0 -12 0 -13 -15 20 -14 19 5 -21 6 -22 -11 -6 -11 -7 5 13 5 13 -10
15 -9 15 -15 -20 -14 -20 -7 30 -7 30 -13 45 -13 45 -1 -25z"/>
<path d="M412 1025 l0 -20 8 -30 8 -30 0 25 0 25 -8 25 -8 25 0 -20z"/>
<path d="M524 1031 l6 -9 -10 -26 -10 -26 -15 0 -15 0 0 -27 0 -28 -6 -22 -6
-23 -13 0 -13 0 4 23 4 22 -9 -20 -9 -20 -5 15 -5 15 -5 15 -5 15 -1 -22 -1
-22 26 -20 26 -21 -6 -24 -6 -24 15 -6 15 -5 0 15 0 15 10 -6 10 -6 1 8 2 8 2
38 2 39 -8 -13 -8 -13 -7 7 -7 7 14 16 14 17 11 26 11 26 12 -45 12 -45 16
-38 17 -39 -13 -8 -14 -8 8 -13 8 -13 8 20 7 19 0 100 -1 100 -7 -42 -6 -43
-9 -7 -8 -8 7 19 6 19 -11 13 -12 14 6 35 6 35 -20 0 -20 0 5 -9z m-14 -75 l0
-5 -10 -6 -10 -6 0 10 0 11 10 0 10 0 0 -4z m-33 -108 l-5 -13 -1 19 -1 19 6
-6 6 -6 -5 -13z"/>
<path d="M444 988 l-2 -41 13 23 12 23 -5 19 -4 18 -7 0 -6 0 -1 -42z"/>
<path d="M720 997 l0 -3 33 -30 32 -29 -29 33 -30 32 -3 0 -3 0 0 -3z"/>
<path d="M996 981 l-18 -20 -22 -4 -21 -4 21 -2 21 -1 23 25 23 25 -5 0 -5 0
-17 -19z"/>
<path d="M710 971 l0 -10 10 -6 10 -6 0 10 0 10 -10 6 -10 6 0 -10z"/>
<path d="M1018 974 l-6 -5 33 -32 32 -32 6 -15 5 -15 1 16 1 16 -25 23 -26 24
5 13 5 13 -13 0 -13 0 -5 -6z"/>
<path d="M868 943 l12 -5 13 5 12 5 -25 0 -25 0 13 -5z"/>
<path d="M798 933 l12 -5 13 5 12 5 -25 0 -25 0 13 -5z"/>
<path d="M998 903 l13 -5 6 6 6 6 -19 -1 -19 -1 13 -5z"/>
<path d="M953 888 l-9 -13 1 -15 2 -15 1 -12 2 -13 8 0 8 0 1 40 2 40 -3 0 -4
0 -9 -12z"/>
<path d="M1061 855 l-1 -30 -8 -13 -8 -12 -32 -9 -32 -10 0 8 0 7 13 14 12 14
-21 -17 -21 -17 -17 6 -16 6 -1 12 -1 11 1 8 1 8 -11 -6 -11 -7 5 -24 4 -24
-12 10 -12 10 -7 -7 -7 -7 -27 -1 -27 -1 -7 11 -8 10 0 -13 0 -14 20 -5 20 -5
0 -17 0 -16 -8 12 -7 12 -28 5 -28 5 6 -22 6 -22 -9 14 -9 13 -8 -12 -7 -11
-15 18 -15 18 6 -18 6 -18 -10 6 -9 6 -17 -26 -17 -26 7 -6 6 -6 0 9 0 9 82 0
83 0 10 -11 10 -10 29 -12 28 -13 -5 15 -6 15 13 10 12 10 25 -16 24 -17 -17
20 -18 21 0 15 0 16 15 12 15 12 16 -6 16 -6 -5 14 -6 15 14 -5 13 -5 12 35
11 36 -4 22 -4 23 -2 -30z"/>
<path d="M1091 854 l1 -19 5 13 5 13 -6 6 -6 6 1 -19z"/>
<path d="M650 845 l-12 -15 -14 0 -14 0 0 -10 0 -11 18 10 19 10 13 15 12 16
-5 0 -5 0 -12 -15z"/>
<path d="M527 801 l-7 -33 6 -9 5 -9 9 5 9 5 6 -20 6 -19 -8 -33 -9 -33 7 -35
6 -35 2 25 1 25 25 38 26 37 9 0 10 0 1 -22 0 -23 10 24 9 24 -17 19 -17 19
-12 -5 -13 -5 -5 12 -4 12 -1 -12 -1 -13 -10 0 -9 0 -14 47 -14 47 -6 -33z
m10 -33 l-5 -13 -1 19 -1 19 6 -6 6 -6 -5 -13z m43 -79 l-12 -21 -5 6 -6 6 13
15 12 15 5 0 4 0 -11 -21z"/>
<path d="M765 820 l-6 -10 15 6 16 6 0 4 0 4 -9 0 -10 0 -6 -10z"/>
<path d="M885 820 l-6 -10 10 0 11 0 0 10 0 10 -4 0 -5 0 -6 -10z"/>
<path d="M1078 800 l-5 -30 9 0 8 0 0 30 0 30 -4 0 -4 0 -4 -30z"/>
<path d="M778 793 l-16 -4 -6 -16 -6 -16 4 -4 4 -5 22 22 22 22 -4 2 -3 2 -17
-3z"/>
<path d="M640 760 l0 -11 15 -6 16 -5 4 4 4 4 -19 12 -20 12 0 -10z"/>
<path d="M690 739 l-22 -30 5 -5 5 -5 20 36 21 35 -4 0 -4 0 -21 -31z"/>
<path d="M990 734 l0 -5 30 -32 30 -32 0 -15 0 -16 20 -39 20 -39 0 26 0 26
-15 12 -15 12 6 9 5 9 10 -5 9 -6 0 16 0 16 12 -7 12 -8 -21 30 -20 29 4 15 5
15 -11 -14 -10 -15 -35 11 -36 11 0 -4z"/>
<path d="M531 713 l-1 -11 -6 -19 -6 -18 12 18 11 18 -5 12 -4 12 -1 -12z"/>
<path d="M663 635 l0 -60 4 20 4 20 9 28 9 28 -9 -6 -8 -5 -4 17 -4 18 -1 -60z"/>
<path d="M980 645 l13 -15 4 4 5 5 -7 10 -6 11 -11 0 -10 0 12 -15z"/>
<path d="M501 636 l-12 -14 15 -5 15 -6 -2 20 -1 19 -2 0 -2 0 -11 -14z"/>
<path d="M617 631 l-6 -24 11 11 10 10 -4 13 -4 13 -7 -23z"/>
<path d="M950 633 l0 -23 -35 -39 -35 -38 0 -8 0 -8 20 23 20 23 13 -12 14
-11 32 40 32 40 -14 0 -14 0 -22 -24 -23 -25 7 -13 8 -13 -13 12 -12 11 20 29
21 29 -10 15 -9 14 0 -22z"/>
<path d="M1112 585 l0 -30 5 18 5 17 -5 13 -5 12 0 -30z"/>
<path d="M480 581 l0 -21 9 0 10 0 5 9 6 9 -15 12 -15 12 0 -21z"/>
<path d="M597 570 l-5 -20 7 -4 7 -5 2 25 2 24 -4 0 -4 0 -5 -20z"/>
<path d="M636 565 l-6 -17 0 -16 0 -16 16 23 16 23 -10 10 -9 9 -7 -16z"/>
<path d="M460 530 l-11 -20 5 0 5 0 11 20 11 20 -5 0 -5 0 -11 -20z"/>
<path d="M1095 473 l0 -76 13 -4 12 -5 0 16 0 16 11 0 11 0 -6 -16 -6 -15 10
6 10 6 0 15 0 14 -13 0 -13 0 -13 -12 -14 -13 7 13 8 13 0 51 -1 51 -8 8 -8 8
0 -76z"/>
<path d="M924 522 l1 -17 -23 1 -22 1 -6 -24 -6 -23 16 -25 16 -24 15 5 15 6
0 9 0 9 -12 -2 -13 -3 3 13 2 12 -12 -2 -12 -3 -4 18 -3 17 13 0 13 0 11 -8
11 -7 5 -15 5 -15 1 42 1 43 -9 5 -8 5 2 -18z"/>
<path d="M596 515 l-6 -17 0 -6 1 -7 10 18 11 19 -5 4 -5 5 -6 -16z"/>
<path d="M426 485 l-20 -15 11 0 11 0 12 15 12 15 -3 0 -4 -1 -19 -14z"/>
<path d="M621 484 l1 -19 5 13 5 13 -6 6 -6 6 1 -19z"/>
<path d="M1130 490 l0 -10 11 0 10 0 -6 10 -6 10 -5 0 -4 0 0 -10z"/>
<path d="M1130 461 l0 -10 10 -6 10 -6 -6 15 -6 16 -4 0 -4 0 0 -9z"/>
<path d="M424 437 l4 -18 -23 15 -23 15 -6 -6 -6 -6 0 -16 0 -15 11 11 12 12
19 -12 19 -12 13 17 13 18 5 -6 6 -5 5 15 6 15 -30 -2 -30 -2 5 -18z"/>
<path d="M618 443 l-6 -23 -26 0 -26 0 0 9 0 9 13 5 12 5 -13 1 -12 1 -10 -24
-9 -24 -11 -7 -10 -6 6 -10 6 -10 14 12 14 11 -6 9 -5 9 23 0 23 0 -11 -8 -12
-7 14 -13 14 -13 7 18 7 18 9 6 9 6 -4 24 -3 24 -7 -22z"/>
<path d="M558 363 l13 -5 6 6 6 6 -19 -1 -19 -1 13 -5z"/>
<path d="M0 155 l0 -155 640 0 640 0 0 155 0 155 -640 0 -640 0 0 -155z"/>
</g>
</svg>
