<?xml version="1.0" standalone="no"?>
<!DOCTYPE svg PUBLIC "-//W3C//DTD SVG 20010904//EN"
 "http://www.w3.org/TR/2001/REC-SVG-20010904/DTD/svg10.dtd">
<svg version="1.0" xmlns="http://www.w3.org/2000/svg"
 width="468pt" height="468pt" viewBox="0 0 468 468"
 preserveAspectRatio="xMidYMid meet">
<metadata>
Created by potrace 1.8, written by Peter Selinger 2001-2007
</metadata>
<g transform="translate(0,468) scale(0.365625,-0.365625)"
fill="#000000" stroke="none">
<path d="M0 640 l0 -640 80 0 80 0 0 20 0 20 20 0 20 0 0 -20 0 -20 420 0 420
0 0 20 0 20 20 0 20 0 0 -20 0 -20 100 0 100 0 0 640 0 640 -20 0 -20 0 0 -20
0 -20 -20 0 -20 0 0 20 0 20 -560 0 -560 0 0 -20 0 -20 -20 0 -20 0 0 20 0 20
-20 0 -20 0 0 -640z m520 420 l0 -20 -20 0 -20 0 0 20 0 20 20 0 20 0 0 -20z
m120 0 l0 -20 -20 0 -20 0 0 20 0 20 20 0 20 0 0 -20z m120 0 l0 -20 -20 0
-20 0 0 20 0 20 20 0 20 0 0 -20z m-400 -40 l0 -20 -20 0 -20 0 0 20 0 20 20
0 20 0 0 -20z m560 0 l0 -20 -20 0 -20 0 0 20 0 20 20 0 20 0 0 -20z m-720
-40 l0 -20 -20 0 -20 0 0 20 0 20 20 0 20 0 0 -20z m880 0 l0 -20 -20 0 -20 0
0 20 0 20 20 0 20 0 0 -20z m-1000 -40 l0 -20 -20 0 -20 0 0 20 0 20 20 0 20
0 0 -20z m1160 0 l0 -20 -20 0 -20 0 0 20 0 20 20 0 20 0 0 -20z m-720 -200
l0 -20 -20 0 -20 0 0 20 0 20 20 0 20 0 0 -20z m120 0 l0 -20 -20 0 -20 0 0
20 0 20 20 0 20 0 0 -20z m120 0 l0 -20 -20 0 -20 0 0 20 0 20 20 0 20 0 0
-20z m-400 -40 l0 -20 -20 0 -20 0 0 20 0 20 20 0 20 0 0 -20z m560 0 l0 -20
-20 0 -20 0 0 20 0 20 20 0 20 0 0 -20z m-720 -40 l0 -20 -20 0 -20 0 0 20 0
20 20 0 20 0 0 -20z m880 0 l0 -20 -20 0 -20 0 0 20 0 20 20 0 20 0 0 -20z
m-1000 -40 l0 -20 -20 0 -20 0 0 20 0 20 20 0 20 0 0 -20z m1160 0 l0 -20 -20
0 -20 0 0 20 0 20 20 0 20 0 0 -20z m-720 -200 l0 -20 -20 0 -20 0 0 20 0 20
20 0 20 0 0 -20z m120 0 l0 -20 -20 0 -20 0 0 20 0 20 20 0 20 0 0 -20z m120
0 l0 -20 -20 0 -20 0 0 20 0 20 20 0 20 0 0 -20z m-400 -40 l0 -20 -20 0 -20
0 0 20 0 20 20 0 20 0 0 -20z m560 0 l0 -20 -20 0 -20 0 0 20 0 20 20 0 20 0
0 -20z m-720 -40 l0 -20 -20 0 -20 0 0 20 0 20 20 0 20 0 0 -20z m880 0 l0
-20 -20 0 -20 0 0 20 0 20 20 0 20 0 0 -20z m-1000 -40 l0 -20 -20 0 -20 0 0
20 0 20 20 0 20 0 0 -20z m1160 0 l0 -20 -20 0 -20 0 0 20 0 20 20 0 20 0 0
-20z m-720 -200 l0 -20 -20 0 -20 0 0 20 0 20 20 0 20 0 0 -20z m120 0 l0 -20
-20 0 -20 0 0 20 0 20 20 0 20 0 0 -20z m120 0 l0 -20 -20 0 -20 0 0 20 0 20
20 0 20 0 0 -20z m-400 -40 l0 -20 -20 0 -20 0 0 20 0 20 20 0 20 0 0 -20z
m560 0 l0 -20 -20 0 -20 0 0 20 0 20 20 0 20 0 0 -20z"/>
</g>
</svg>
