<?xml version="1.0" standalone="no"?>
<!DOCTYPE svg PUBLIC "-//W3C//DTD SVG 20010904//EN"
 "http://www.w3.org/TR/2001/REC-SVG-20010904/DTD/svg10.dtd">
<svg version="1.0" xmlns="http://www.w3.org/2000/svg"
 width="468pt" height="468pt" viewBox="0 0 468 468"
 preserveAspectRatio="xMidYMid meet">
<metadata>
Created by potrace 1.8, written by Peter Selinger 2001-2007
</metadata>
<g transform="translate(0,468) scale(0.365625,-0.365625)"
fill="#000000" stroke="none">
<path d="M320 1210 l0 -10 -30 0 -30 0 0 -10 0 -10 -30 0 -30 0 0 -10 0 -10
-26 0 -25 0 -15 -14 -14 -15 0 -341 0 -341 14 -15 15 -14 15 0 16 0 0 -10 0
-10 50 0 50 0 0 -10 0 -10 70 0 70 0 0 -10 0 -10 70 0 70 0 0 -10 0 -10 70 0
70 0 0 -10 0 -10 70 0 70 0 0 -10 0 -10 75 0 75 0 76 76 77 76 -14 9 -14 9 15
10 15 10 -15 10 -15 10 15 10 15 10 -15 10 -15 10 15 10 15 10 -15 9 -14 10
22 19 22 19 0 17 0 16 10 0 10 0 0 206 0 205 -14 15 -15 14 -25 0 -26 0 0 10
0 10 -40 0 -40 0 0 10 0 10 -60 0 -60 0 0 10 0 10 -70 0 -70 0 0 10 0 10 -70
0 -70 0 0 10 0 10 -70 0 -70 0 0 10 0 10 -80 0 -80 0 0 -10z m140 -20 l0 -10
70 0 70 0 0 -10 0 -10 60 0 60 0 0 -10 0 -10 70 0 70 0 0 -10 0 -10 70 0 70 0
0 -10 0 -10 40 0 40 0 0 -9 0 -9 -12 -5 -13 -5 15 -11 15 -11 -15 -10 -15 -10
15 -10 15 -10 -15 -10 -15 -10 15 -10 15 -10 -15 -10 -15 -10 15 -10 15 -10
-15 -10 -15 -10 15 -10 15 -10 -15 -10 -15 -10 15 -10 15 -10 -15 -10 -15 -10
15 -10 15 -10 -15 -10 -15 -10 15 -10 15 -10 -15 -10 -15 -10 15 -10 15 -10
-15 -10 -15 -10 15 -10 15 -10 -15 -10 -15 -10 15 -10 15 -10 -15 -10 -15 -10
15 -10 15 -10 -15 -10 -15 -10 15 -10 15 -10 -15 -10 -15 -10 15 -10 15 -10
-15 -10 -15 -10 15 -10 15 -10 -15 -10 -15 -10 14 -9 14 -9 -37 -37 -37 -37
-7 7 -6 6 14 10 15 9 -15 10 -15 10 15 10 15 10 -15 10 -15 10 15 10 15 10
-15 10 -15 10 15 10 15 10 -15 10 -15 10 15 10 15 10 -15 10 -15 10 15 10 15
10 -15 10 -15 10 15 10 15 10 -15 10 -15 10 15 10 15 10 -15 10 -15 10 15 10
15 10 -15 10 -15 10 15 10 15 10 -15 10 -15 10 15 10 15 10 -15 10 -15 10 15
10 15 10 -15 10 -15 10 15 10 15 10 -15 10 -15 10 15 10 15 10 -15 10 -15 10
15 10 15 10 -15 10 -15 10 15 10 15 10 -14 9 -14 9 17 18 18 17 8 -14 9 -13 7
6 6 7 -18 18 -17 18 -5 -13 -4 -12 -69 0 -69 0 0 10 0 10 -70 0 -70 0 0 10 0
10 -70 0 -70 0 0 10 0 10 -70 0 -70 0 0 10 0 10 -70 0 -70 0 0 10 0 10 -20 0
-20 0 0 10 0 10 30 0 30 0 0 10 0 10 60 0 60 0 0 -10z m-140 -60 l0 -10 70 0
70 0 0 -10 0 -10 70 0 70 0 0 -10 0 -10 70 0 70 0 0 -10 0 -10 70 0 70 0 0
-10 0 -10 50 0 50 0 0 -325 0 -326 -25 -24 -24 -25 -26 0 -25 0 0 10 0 10 -70
0 -70 0 0 10 0 10 -70 0 -70 0 0 10 0 10 -70 0 -70 0 0 10 0 10 -70 0 -70 0 0
10 0 10 -50 0 -50 0 0 10 0 10 -26 0 -25 0 -15 14 -14 15 0 311 0 311 13 14
12 14 78 1 77 0 0 -10z m807 -66 l16 -16 -14 -9 -14 -9 15 -10 15 -10 -15 -10
-15 -10 15 -10 15 -10 -15 -10 -15 -10 15 -10 15 -10 -15 -10 -15 -10 15 -10
15 -10 -15 -10 -15 -10 15 -10 15 -10 -15 -10 -15 -10 15 -10 15 -10 -15 -10
-15 -10 15 -10 15 -10 -15 -10 -15 -10 15 -10 15 -10 -15 -10 -15 -10 14 -9
14 -9 -17 -17 -17 -17 -7 6 -6 7 14 10 15 9 -15 10 -15 10 15 10 15 10 -15 10
-15 10 15 10 15 10 -15 10 -15 10 15 10 15 10 -15 10 -15 10 15 10 15 10 -15
10 -15 10 15 10 15 10 -15 10 -15 10 15 10 15 10 -15 10 -15 10 15 10 15 10
-15 10 -15 10 15 10 15 10 -15 10 -15 10 15 11 15 11 -12 5 -13 5 0 9 0 9 6 0
5 0 16 -16z"/>
<path d="M1020 1031 l0 -9 13 -5 12 -5 -15 -11 -15 -11 15 -10 15 -10 -15 -10
-15 -10 15 -10 15 -10 -15 -10 -15 -10 15 -10 15 -10 -15 -10 -15 -10 15 -10
15 -10 -15 -10 -15 -10 15 -10 15 -10 -15 -10 -15 -10 15 -10 15 -10 -15 -10
-15 -10 15 -10 15 -10 -15 -10 -15 -10 15 -10 15 -10 -15 -10 -15 -10 15 -10
15 -10 -15 -10 -15 -10 15 -10 15 -10 -15 -10 -15 -10 15 -10 15 -10 -15 -10
-15 -10 15 -10 15 -10 -15 -10 -15 -10 15 -10 15 -10 -15 -10 -15 -10 15 -10
15 -10 -15 -9 -14 -10 6 -7 7 -6 17 17 17 17 -14 9 -14 9 15 10 15 10 -15 10
-15 10 15 10 15 10 -15 10 -15 10 15 10 15 10 -15 10 -15 10 15 10 15 10 -15
10 -15 10 15 10 15 10 -15 10 -15 10 15 10 15 10 -15 10 -15 10 15 10 15 10
-15 10 -15 10 15 10 15 10 -15 10 -15 10 15 10 15 10 -15 10 -15 10 15 10 15
10 -15 10 -15 10 15 10 15 10 -15 10 -15 10 15 10 15 10 -15 10 -15 10 15 10
15 10 -15 10 -15 10 14 9 14 9 -16 16 -16 16 -5 0 -6 0 0 -9z"/>
<path d="M193 1085 l-13 -14 0 -281 0 -281 14 -15 15 -14 55 0 56 0 0 -10 0
-10 70 0 70 0 0 -10 0 -10 70 0 70 0 0 -10 0 -10 70 0 70 0 0 -10 0 -10 60 0
60 0 0 -10 0 -10 16 0 15 0 15 14 14 15 0 14 0 15 -12 5 -13 5 15 11 15 11
-15 10 -15 10 15 10 15 10 -15 10 -15 10 15 10 15 10 -15 10 -15 10 15 10 15
10 -15 10 -15 10 15 10 15 10 -15 10 -15 10 15 10 15 10 -15 10 -15 10 15 10
15 10 -15 10 -15 10 15 10 15 10 -15 10 -15 10 15 10 15 10 -15 10 -15 10 15
10 15 10 -15 10 -15 10 15 10 15 10 -15 10 -15 10 15 10 15 10 -15 10 -15 10
14 9 14 9 -38 37 -37 38 -9 -14 -9 -14 -10 15 -10 15 -9 -15 -10 -14 -21 24
-21 24 -10 -14 -9 -15 -10 15 -10 15 -10 -15 -10 -15 -10 15 -10 15 -9 -15
-10 -14 -21 24 -21 24 -10 -14 -9 -15 -10 15 -10 15 -10 -15 -10 -15 -10 15
-10 15 -9 -15 -10 -14 -21 24 -21 24 -10 -14 -9 -15 -10 15 -10 15 -10 -15
-10 -15 -10 15 -10 15 -9 -15 -10 -14 -21 24 -21 24 -10 -14 -11 -15 -5 13 -5
12 -46 0 -47 -1 -12 -14z m70 -17 l5 -13 11 15 11 15 10 -15 10 -15 9 15 10
14 21 -24 21 -24 10 14 9 15 10 -15 10 -15 10 15 10 15 10 -15 10 -15 9 15 10
14 21 -24 21 -24 10 14 9 15 10 -15 10 -15 10 15 10 15 10 -15 10 -15 9 15 10
14 21 -24 21 -24 10 14 9 15 10 -15 10 -15 10 15 10 15 10 -15 10 -15 9 15 10
14 21 -24 21 -24 10 14 9 15 10 -15 10 -15 9 14 9 14 27 -28 28 -27 -14 -9
-14 -9 15 -10 15 -10 -15 -10 -15 -10 15 -10 15 -10 -15 -10 -15 -10 15 -10
15 -10 -15 -10 -15 -10 15 -10 15 -10 -15 -10 -15 -10 15 -10 15 -10 -15 -10
-15 -10 15 -10 15 -10 -15 -10 -15 -10 15 -10 15 -10 -15 -10 -15 -10 15 -10
15 -10 -15 -10 -15 -10 15 -10 15 -10 -15 -10 -15 -10 15 -10 15 -10 -15 -10
-15 -10 15 -10 15 -10 -15 -10 -15 -10 15 -10 15 -10 -15 -10 -15 -10 15 -9
14 -10 -7 -7 -7 -7 -20 24 -21 23 -10 -14 -9 -15 -10 15 -10 15 -10 -15 -10
-15 -10 15 -10 15 -9 -15 -10 -14 -21 24 -21 24 -10 -14 -9 -15 -10 15 -10 15
-10 -15 -10 -15 -10 15 -10 15 -9 -15 -10 -14 -21 24 -21 24 -10 -14 -9 -15
-10 15 -10 15 -10 -15 -10 -15 -10 15 -10 15 -9 -15 -10 -14 -21 24 -21 24
-10 -14 -9 -15 -10 15 -10 15 -10 -15 -10 -15 -10 15 -10 15 -9 -15 -10 -14
-21 24 -21 24 -10 -14 -9 -15 -10 15 -10 15 -9 -15 -10 -14 -8 7 -7 8 14 10
15 9 -15 10 -15 10 15 10 15 10 -15 10 -15 10 15 10 15 10 -15 10 -15 10 15
10 15 10 -15 10 -15 10 15 10 15 10 -15 10 -15 10 15 10 15 10 -15 10 -15 10
15 10 15 10 -15 10 -15 10 15 10 15 10 -15 10 -15 10 15 10 15 10 -15 10 -15
10 15 10 15 10 -15 10 -15 10 15 10 15 10 -15 10 -15 10 15 10 15 10 -15 10
-15 10 15 10 15 10 -14 9 -14 9 14 16 14 15 7 1 6 0 5 -12z"/>
<path d="M240 1051 l0 -9 13 -5 12 -5 -15 -11 -15 -11 15 -10 15 -10 -15 -10
-15 -10 15 -10 15 -10 -15 -10 -15 -10 15 -10 15 -10 -15 -10 -15 -10 15 -10
15 -10 -15 -10 -15 -10 15 -10 15 -10 -15 -10 -15 -10 15 -10 15 -10 -15 -10
-15 -10 15 -10 15 -10 -15 -10 -15 -10 15 -10 15 -10 -15 -10 -15 -10 15 -10
15 -10 -15 -10 -15 -10 15 -10 15 -10 -15 -10 -15 -10 15 -10 15 -10 -14 -9
-14 -9 17 -18 18 -17 8 14 9 13 21 -24 21 -24 10 14 9 15 10 -15 10 -15 10 15
10 15 10 -15 10 -15 9 15 10 14 21 -24 21 -24 10 14 9 15 10 -15 10 -15 10 15
10 15 10 -15 10 -15 9 15 10 14 21 -24 21 -24 10 14 9 15 10 -15 10 -15 10 15
10 15 10 -15 10 -15 9 15 10 14 21 -24 21 -24 10 14 9 15 10 -15 10 -15 10 15
10 15 10 -15 10 -15 10 15 10 15 9 -15 10 -14 8 7 7 8 -14 10 -15 9 15 10 15
10 -15 10 -15 10 15 10 15 10 -15 10 -15 10 15 10 15 10 -15 10 -15 10 15 10
15 10 -15 10 -15 10 15 10 15 10 -15 10 -15 10 15 10 15 10 -15 10 -15 10 15
10 15 10 -15 10 -15 10 15 10 15 10 -15 10 -15 10 15 10 15 10 -15 10 -15 10
15 10 15 10 -15 10 -15 10 15 10 15 10 -15 10 -15 10 14 9 14 9 -17 18 -18 17
-9 -14 -9 -14 -10 15 -10 15 -9 -15 -10 -14 -21 24 -21 24 -10 -14 -9 -15 -10
15 -10 15 -10 -15 -10 -15 -10 15 -10 15 -9 -15 -10 -14 -21 24 -21 24 -10
-14 -9 -15 -10 15 -10 15 -10 -15 -10 -15 -10 15 -10 15 -9 -15 -10 -14 -21
24 -21 24 -10 -14 -9 -15 -10 15 -10 15 -10 -15 -10 -15 -10 15 -10 15 -9 -15
-10 -14 -21 24 -21 24 -10 -14 -9 -15 -10 15 -10 15 -11 -15 -11 -15 -5 13 -5
12 -9 0 -9 0 0 -9z m63 -23 l5 -13 11 15 10 14 21 -24 21 -24 10 14 9 15 10
-15 10 -15 10 15 10 15 10 -15 10 -15 9 15 10 14 21 -24 21 -24 10 14 9 15 10
-15 10 -15 10 15 10 15 10 -15 10 -15 9 15 10 14 21 -24 21 -24 10 14 9 15 10
-15 10 -15 10 15 10 15 10 -15 10 -15 9 15 10 14 21 -24 21 -24 10 14 9 15 10
-15 10 -15 9 15 10 14 8 -7 7 -8 -14 -10 -15 -9 15 -10 15 -10 -15 -10 -15
-10 15 -10 15 -10 -15 -10 -15 -10 15 -10 15 -10 -15 -10 -15 -10 15 -10 15
-10 -15 -10 -15 -10 15 -10 15 -10 -15 -10 -15 -10 15 -10 15 -10 -15 -10 -15
-10 15 -10 15 -10 -15 -10 -15 -10 15 -10 15 -10 -15 -10 -15 -10 15 -10 15
-10 -15 -10 -15 -10 15 -10 15 -10 -15 -10 -15 -10 14 -9 14 -9 -17 -18 -18
-17 -9 14 -9 14 -10 -15 -10 -15 -10 15 -10 15 -9 -15 -10 -14 -21 24 -21 24
-10 -14 -9 -15 -10 15 -10 15 -10 -15 -10 -15 -10 15 -10 15 -9 -15 -10 -14
-21 24 -21 24 -10 -14 -9 -15 -10 15 -10 15 -10 -15 -10 -15 -10 15 -10 15 -9
-15 -10 -14 -21 24 -21 24 -10 -14 -9 -15 -10 15 -10 15 -10 -15 -10 -15 -10
15 -10 15 -9 -15 -10 -14 -21 24 -21 24 -9 -14 -9 -14 -8 7 -7 8 14 10 15 9
-15 10 -15 10 15 10 15 10 -15 10 -15 10 15 10 15 10 -15 10 -15 10 15 10 15
10 -15 10 -15 10 15 10 15 10 -15 10 -15 10 15 10 15 10 -15 10 -15 10 15 10
15 10 -15 10 -15 10 15 10 15 10 -15 10 -15 10 15 10 15 10 -15 10 -15 10 15
10 15 10 -15 10 -15 10 15 10 15 10 -14 9 -14 9 14 16 14 15 7 1 6 0 5 -12z"/>
<path d="M280 1011 l0 -9 13 -5 12 -5 -15 -11 -15 -11 15 -10 15 -10 -15 -10
-15 -10 15 -10 15 -10 -15 -10 -15 -10 15 -10 15 -10 -15 -10 -15 -10 15 -10
15 -10 -15 -10 -15 -10 15 -10 15 -10 -15 -10 -15 -10 15 -10 15 -10 -15 -10
-15 -10 15 -10 15 -10 -15 -10 -15 -10 15 -10 15 -10 -15 -10 -15 -10 15 -10
15 -10 -14 -9 -14 -9 28 -27 27 -28 9 14 9 14 10 -15 10 -15 10 15 10 15 10
-15 10 -15 9 15 10 14 21 -24 21 -24 10 14 9 15 10 -15 10 -15 10 15 10 15 10
-15 10 -15 9 15 10 14 21 -24 21 -24 10 14 9 15 10 -15 10 -15 10 15 10 15 10
-15 10 -15 9 15 10 14 21 -24 21 -24 10 14 9 15 10 -15 10 -15 10 15 10 15 9
-15 10 -14 8 7 7 8 -14 10 -15 9 15 10 15 10 -15 10 -15 10 15 10 15 10 -15
10 -15 10 15 10 15 10 -15 10 -15 10 15 10 15 10 -15 10 -15 10 15 10 15 10
-15 10 -15 10 15 10 15 10 -15 10 -15 10 15 10 15 10 -15 10 -15 10 15 10 15
10 -15 10 -15 10 15 10 15 10 -15 10 -15 10 14 9 14 9 -17 18 -18 17 -8 -14
-9 -13 -21 24 -21 24 -10 -14 -9 -15 -10 15 -10 15 -10 -15 -10 -15 -10 15
-10 15 -9 -15 -10 -14 -21 24 -21 24 -10 -14 -9 -15 -10 15 -10 15 -10 -15
-10 -15 -10 15 -10 15 -9 -15 -10 -14 -21 24 -21 24 -10 -14 -9 -15 -10 15
-10 15 -10 -15 -10 -15 -10 15 -10 15 -9 -15 -10 -14 -21 24 -21 24 -10 -14
-11 -15 -5 13 -5 12 -9 0 -9 0 0 -9z m72 -33 l19 -22 10 14 9 15 10 -15 10
-15 10 15 10 15 10 -15 10 -15 9 15 10 14 21 -24 21 -24 10 14 9 15 10 -15 10
-15 10 15 10 15 10 -15 10 -15 9 15 10 14 21 -24 21 -24 10 14 9 15 10 -15 10
-15 10 15 10 15 10 -15 10 -15 9 15 10 14 21 -24 21 -24 9 14 9 14 8 -7 7 -8
-14 -10 -15 -9 15 -10 15 -10 -15 -10 -15 -10 15 -10 15 -10 -15 -10 -15 -10
15 -10 15 -10 -15 -10 -15 -10 15 -10 15 -10 -15 -10 -15 -10 15 -10 15 -10
-15 -10 -15 -10 15 -10 15 -10 -15 -10 -15 -10 15 -10 15 -10 -15 -10 -15 -10
15 -10 15 -10 -15 -10 -15 -10 14 -9 14 -9 -17 -18 -18 -17 -9 14 -9 14 -9
-15 -10 -14 -21 24 -21 24 -10 -14 -9 -15 -10 15 -10 15 -10 -15 -10 -15 -10
15 -10 15 -9 -15 -10 -14 -21 24 -21 24 -10 -14 -9 -15 -10 15 -10 15 -10 -15
-10 -15 -10 15 -10 15 -9 -15 -10 -14 -21 24 -21 24 -10 -14 -9 -15 -10 15
-10 15 -10 -15 -10 -15 -10 15 -10 15 -9 -14 -9 -14 -18 17 -17 18 14 9 14 9
-15 10 -15 10 15 10 15 10 -15 10 -15 10 15 10 15 10 -15 10 -15 10 15 10 15
10 -15 10 -15 10 15 10 15 10 -15 10 -15 10 15 10 15 10 -15 10 -15 10 15 10
15 10 -15 10 -15 10 15 10 15 10 -15 10 -15 10 15 10 15 10 -14 9 -14 9 14 16
14 15 4 1 4 0 19 -22z"/>
<path d="M320 971 l0 -9 13 -5 12 -5 -15 -11 -15 -11 15 -10 15 -10 -15 -10
-15 -10 15 -10 15 -10 -15 -10 -15 -10 15 -10 15 -10 -15 -10 -15 -10 15 -10
15 -10 -15 -10 -15 -10 15 -10 15 -10 -15 -10 -15 -10 15 -10 15 -10 -15 -10
-15 -10 15 -10 15 -10 -15 -10 -15 -10 15 -10 15 -10 -15 -9 -14 -10 7 -8 8
-7 10 14 9 15 10 -15 10 -15 10 15 10 15 10 -15 10 -15 9 15 10 14 21 -24 21
-24 10 14 9 15 10 -15 10 -15 10 15 10 15 10 -15 10 -15 9 15 10 14 21 -24 21
-24 10 14 9 15 10 -15 10 -15 10 15 10 15 10 -15 10 -15 9 15 10 14 21 -24 21
-24 10 14 9 15 9 -15 10 -14 8 7 7 8 -14 10 -15 9 15 10 15 10 -15 10 -15 10
15 10 15 10 -15 10 -15 10 15 10 15 10 -15 10 -15 10 15 10 15 10 -15 10 -15
10 15 10 15 10 -15 10 -15 10 15 10 15 10 -15 10 -15 10 15 10 15 10 -15 10
-15 10 14 9 14 9 -28 27 -27 28 -9 -14 -9 -14 -10 15 -10 15 -10 -15 -10 -15
-10 15 -10 15 -9 -15 -10 -14 -21 24 -21 24 -10 -14 -9 -15 -10 15 -10 15 -10
-15 -10 -15 -10 15 -10 15 -9 -15 -10 -14 -21 24 -21 24 -10 -14 -9 -15 -10
15 -10 15 -10 -15 -10 -15 -10 15 -10 15 -9 -15 -10 -14 -19 22 -19 22 -7 0
-6 0 0 -9z m43 -43 l5 -13 11 15 11 15 10 -15 10 -15 10 15 10 15 10 -15 10
-15 9 15 10 14 21 -24 21 -24 10 14 9 15 10 -15 10 -15 10 15 10 15 10 -15 10
-15 9 15 10 14 21 -24 21 -24 10 14 9 15 10 -15 10 -15 10 15 10 15 10 -15 10
-15 9 14 9 14 18 -17 17 -18 -14 -9 -14 -9 15 -10 15 -10 -15 -10 -15 -10 15
-10 15 -10 -15 -10 -15 -10 15 -10 15 -10 -15 -10 -15 -10 15 -10 15 -10 -15
-10 -15 -10 15 -10 15 -10 -15 -10 -15 -10 15 -10 15 -10 -15 -10 -15 -10 14
-9 14 -9 -17 -17 -17 -17 -20 23 -20 23 -10 -14 -9 -15 -10 15 -10 15 -10 -15
-10 -15 -10 15 -10 15 -9 -15 -10 -14 -21 24 -21 24 -10 -14 -9 -15 -10 15
-10 15 -10 -15 -10 -15 -10 15 -10 15 -9 -15 -10 -14 -21 24 -21 24 -10 -14
-9 -15 -10 15 -10 15 -9 -14 -9 -14 -18 17 -17 18 14 9 14 9 -15 10 -15 10 15
10 15 10 -15 10 -15 10 15 10 15 10 -15 10 -15 10 15 10 15 10 -15 10 -15 10
15 10 15 10 -15 10 -15 10 15 10 15 10 -15 10 -15 10 15 11 15 11 -12 5 -13 5
0 9 0 9 9 0 9 0 5 -12z"/>
<path d="M371 904 l-14 -16 14 -9 14 -9 -15 -10 -15 -10 15 -10 15 -10 -15
-10 -15 -10 15 -10 15 -10 -15 -10 -15 -10 15 -10 15 -10 -15 -10 -15 -10 15
-10 15 -10 -15 -10 -15 -10 15 -10 15 -10 -15 -9 -14 -10 7 -8 8 -7 10 14 9
15 10 -15 10 -15 9 15 10 14 21 -24 21 -24 10 14 9 15 10 -15 10 -15 10 15 10
15 10 -15 10 -15 9 15 10 14 21 -24 21 -24 10 14 9 15 10 -15 10 -15 10 15 10
15 10 -15 10 -15 9 15 10 14 21 -23 20 -24 7 7 7 7 -14 10 -15 9 15 10 15 10
-15 10 -15 10 15 10 15 10 -15 10 -15 10 15 10 15 10 -15 10 -15 10 15 10 15
10 -15 10 -15 10 15 10 15 10 -15 10 -15 10 15 10 15 10 -15 10 -15 10 15 9
14 10 -7 8 -8 7 -10 -14 -9 -15 -10 15 -10 15 -10 -15 -10 -15 -10 15 -10 15
-9 -15 -10 -14 -21 24 -21 24 -10 -14 -9 -15 -10 15 -10 15 -10 -15 -10 -15
-10 15 -10 15 -9 -15 -10 -14 -21 24 -21 24 -10 -14 -9 -15 -10 15 -10 15 -11
-15 -11 -15 -5 13 -5 12 -6 0 -7 -1 -14 -15z m32 -16 l5 -13 11 15 11 15 10
-15 10 -15 9 15 10 14 21 -24 21 -24 10 14 9 15 10 -15 10 -15 10 15 10 15 10
-15 10 -15 9 15 10 14 21 -24 21 -24 10 14 9 15 10 -15 10 -15 9 14 9 14 18
-17 17 -18 -14 -9 -14 -9 15 -10 15 -10 -15 -10 -15 -10 15 -10 15 -10 -15
-10 -15 -10 15 -10 15 -10 -15 -10 -15 -10 15 -10 15 -10 -15 -10 -15 -10 15
-9 14 -10 -7 -8 -8 -7 -10 14 -9 15 -10 -15 -10 -15 -10 15 -10 15 -10 -15
-10 -15 -10 15 -10 15 -9 -15 -10 -14 -21 24 -21 24 -10 -14 -9 -15 -10 15
-10 15 -10 -15 -10 -15 -10 15 -10 15 -9 -15 -10 -14 -21 24 -21 24 -9 -13 -8
-14 -18 17 -17 18 14 9 14 9 -15 10 -15 10 15 10 15 10 -15 10 -15 10 15 10
15 10 -15 10 -15 10 15 10 15 10 -15 10 -15 10 15 11 15 11 -12 5 -13 5 0 9 0
9 9 0 9 0 5 -12z"/>
<path d="M411 864 l-14 -16 14 -9 14 -9 -15 -10 -15 -10 15 -10 15 -10 -15
-10 -15 -10 15 -10 15 -10 -15 -10 -15 -10 15 -10 15 -10 -15 -9 -14 -10 7 -8
8 -7 9 14 9 14 21 -24 21 -24 10 14 9 15 10 -15 10 -15 10 15 10 15 10 -15 10
-15 9 15 10 14 21 -24 21 -24 10 14 9 15 10 -15 10 -15 10 15 10 15 9 -14 9
-14 18 17 17 18 -14 9 -14 9 15 10 15 10 -15 10 -15 10 15 10 15 10 -15 10
-15 10 15 10 15 10 -15 10 -15 10 15 9 14 10 -7 8 -8 7 -10 -14 -9 -15 -10 15
-10 15 -9 -15 -10 -14 -21 24 -21 24 -10 -14 -9 -15 -10 15 -10 15 -10 -15
-10 -15 -10 15 -10 15 -9 -15 -10 -14 -21 24 -21 24 -10 -14 -11 -15 -5 13 -5
12 -6 0 -7 -1 -14 -15z m32 -16 l5 -13 11 15 10 14 21 -24 21 -24 10 14 9 15
10 -15 10 -15 10 15 10 15 10 -15 10 -15 9 15 10 14 21 -24 21 -24 9 13 8 14
18 -17 17 -18 -14 -9 -14 -9 15 -10 15 -10 -15 -10 -15 -10 15 -10 15 -10 -15
-10 -15 -10 15 -9 14 -10 -7 -8 -8 -7 -10 14 -9 15 -10 -15 -10 -15 -10 15
-10 15 -9 -15 -10 -14 -21 24 -21 24 -10 -14 -9 -15 -10 15 -10 15 -10 -15
-10 -15 -10 15 -10 15 -9 -14 -9 -14 -27 28 -28 27 14 9 14 9 -15 10 -15 10
15 10 15 10 -15 10 -15 10 15 11 15 11 -12 5 -13 5 0 9 0 9 9 0 9 0 5 -12z"/>
<path d="M451 824 l-14 -16 14 -9 14 -9 -15 -10 -15 -10 15 -10 15 -10 -14 -9
-14 -9 17 -18 18 -17 9 14 9 14 10 -15 10 -15 10 15 10 15 10 -15 10 -15 9 15
10 14 21 -24 21 -24 10 14 9 15 9 -14 9 -14 18 17 17 18 -14 9 -14 9 15 10 15
10 -15 10 -15 10 15 9 14 10 -7 8 -8 7 -9 -14 -9 -14 -21 24 -21 24 -10 -14
-9 -15 -10 15 -10 15 -10 -15 -10 -15 -10 15 -10 15 -9 -15 -10 -14 -19 22
-19 22 -4 0 -4 -1 -14 -15z m41 -26 l19 -22 10 14 9 15 10 -15 10 -15 10 15
10 15 10 -15 10 -15 9 14 9 14 27 -28 28 -27 -14 -9 -14 -9 15 -9 14 -10 -7
-8 -8 -7 -10 14 -9 15 -9 -15 -10 -14 -21 24 -21 24 -10 -14 -9 -15 -10 15
-10 15 -10 -15 -10 -15 -10 15 -10 15 -9 -15 -10 -14 -8 7 -7 8 14 10 15 9
-15 10 -15 10 15 11 15 11 -12 5 -13 5 0 9 0 9 6 0 7 0 19 -22z"/>
<path d="M480 774 l0 -5 16 -16 16 -16 9 14 9 14 10 -15 10 -15 9 15 10 14 20
-23 20 -23 16 16 16 16 -16 17 -17 16 -9 -14 -9 -14 -10 15 -10 15 -10 -15
-10 -15 -10 15 -10 15 -11 -15 -11 -15 -5 13 -5 12 -9 0 -9 0 0 -6z m140 -24
l0 -10 -10 0 -10 0 0 10 0 10 10 0 10 0 0 -10z"/>
<path d="M1161 613 l-24 -25 14 -9 14 -9 -15 -10 -15 -10 15 -10 15 -10 -15
-10 -15 -10 15 -10 15 -10 -15 -10 -15 -10 14 -9 14 -9 -73 -72 -72 -71 6 -6
6 -6 20 24 21 23 8 -13 9 -14 57 58 58 57 -14 9 -14 9 15 10 15 10 -15 10 -15
10 15 10 15 10 -14 9 -15 9 33 31 32 30 -25 26 -25 25 -3 -1 -3 0 -24 -26z
m45 -8 l15 -15 -26 -26 -26 -26 -7 6 -6 7 14 10 15 9 -14 9 -14 9 14 16 14 15
3 1 3 0 15 -15z m-26 -95 l0 -10 -10 0 -10 0 0 10 0 10 10 0 10 0 0 -10z m0
-40 l0 -10 -10 0 -10 0 0 10 0 10 10 0 10 0 0 -10z m0 -35 l0 -6 -46 -45 -45
-46 -6 5 -5 6 44 45 43 45 8 0 7 1 0 -5z"/>
<path d="M1180 590 l0 -10 10 0 10 0 0 10 0 10 -10 0 -10 0 0 -10z"/>
<path d="M0 100 l0 -100 640 0 640 0 0 100 0 100 -640 0 -640 0 0 -100z"/>
</g>
</svg>
