<?xml version="1.0" standalone="no"?>
<!DOCTYPE svg PUBLIC "-//W3C//DTD SVG 20010904//EN"
 "http://www.w3.org/TR/2001/REC-SVG-20010904/DTD/svg10.dtd">
<svg version="1.0" xmlns="http://www.w3.org/2000/svg"
 width="468pt" height="468pt" viewBox="0 0 468 468"
 preserveAspectRatio="xMidYMid meet">
<metadata>
Created by potrace 1.8, written by Peter Selinger 2001-2007
</metadata>
<g transform="translate(0,468) scale(0.365625,-0.365625)"
fill="#000000" stroke="none">
<path d="M173 1225 l-13 -14 0 -435 0 -434 13 -6 12 -6 -12 -6 -13 -6 0 -15 0
-14 14 -15 15 -14 12 0 12 0 18 -22 19 -21 7 7 7 7 -14 9 -14 9 7 8 8 7 10
-14 9 -15 10 15 10 15 10 -15 10 -15 10 15 10 15 10 -15 10 -15 10 15 10 15
10 -15 10 -15 10 15 10 15 10 -15 10 -15 10 15 10 15 10 -15 10 -15 10 15 10
15 10 -15 10 -15 10 15 10 15 10 -15 10 -15 10 15 10 15 10 -15 10 -15 10 15
10 15 10 -15 10 -15 10 15 10 15 10 -15 10 -15 10 15 10 15 10 -15 10 -15 10
15 10 15 10 -15 10 -15 10 15 10 15 10 -15 10 -15 10 15 10 15 10 -15 10 -15
10 15 10 15 10 -15 10 -15 10 15 10 15 10 -15 10 -15 10 15 10 15 10 -15 10
-15 10 15 10 15 10 -15 10 -15 10 15 10 15 10 -15 10 -15 10 15 10 15 9 -14 9
-14 18 17 17 18 -14 9 -14 9 15 10 15 10 -15 10 -15 10 15 10 15 10 -15 10
-15 10 15 10 15 10 -15 10 -15 10 15 10 15 10 -15 10 -15 10 15 10 15 10 -15
10 -15 10 15 10 15 10 -15 10 -15 10 15 10 15 10 -15 10 -15 10 15 10 15 10
-15 10 -15 10 15 10 15 10 -15 10 -15 10 15 10 15 10 -15 10 -15 10 15 10 15
10 -15 10 -15 10 15 10 15 10 -15 10 -15 10 15 10 15 10 -15 10 -15 10 15 10
15 10 -15 10 -15 10 15 10 15 10 -15 10 -15 10 15 10 15 10 -15 10 -15 10 15
10 15 10 -15 10 -15 10 15 10 15 10 -15 10 -15 10 15 10 15 10 -15 10 -15 10
15 10 15 10 -15 10 -15 10 15 10 15 10 -15 10 -15 10 15 11 15 11 -12 5 -13 5
0 19 0 19 -30 0 -30 0 0 20 0 20 -379 0 -379 0 -6 -12 -6 -13 -6 13 -6 12 -26
0 -27 -1 -12 -14z m54 -20 l15 -16 -6 -7 -7 -6 -9 14 -9 14 -7 -7 -7 -7 23
-20 23 -20 -23 -20 -23 -20 23 -20 23 -20 -23 -20 -23 -20 23 -20 23 -20 -23
-20 -23 -20 23 -20 23 -20 -23 -20 -23 -20 23 -20 23 -20 -23 -20 -23 -20 23
-20 23 -20 -23 -20 -23 -20 23 -20 23 -20 -23 -20 -23 -20 23 -20 23 -20 -23
-20 -23 -20 23 -20 23 -20 -23 -20 -23 -20 23 -20 23 -20 -22 -19 -23 -20 47
-47 47 -47 8 13 8 13 17 -17 17 -17 -6 -7 -7 -6 -10 14 -9 15 -9 -15 -10 -14
-19 22 -19 22 -7 0 -6 0 0 -20 0 -20 -30 0 -30 0 0 20 0 20 30 0 30 0 0 10 0
10 -30 0 -30 0 0 440 0 440 16 0 15 0 16 -15z m759 1 l14 -15 0 -411 0 -411
-14 -15 -15 -14 -341 0 -341 0 -15 14 -14 15 0 411 0 411 13 14 12 14 343 1
343 0 15 -14z m74 -76 l0 -10 -10 0 -10 0 0 10 0 10 10 0 10 0 0 -10z m-820
-20 l0 -10 -10 0 -10 0 0 10 0 10 10 0 10 0 0 -10z m0 -80 l0 -10 -10 0 -10 0
0 10 0 10 10 0 10 0 0 -10z m800 -10 l0 -20 -10 0 -10 0 0 20 0 20 10 0 10 0
0 -20z m-800 -70 l0 -10 -10 0 -10 0 0 10 0 10 10 0 10 0 0 -10z m800 -20 l0
-30 -10 0 -10 0 0 30 0 30 10 0 10 0 0 -30z m-800 -60 l0 -10 -10 0 -10 0 0
10 0 10 10 0 10 0 0 -10z m0 -80 l0 -10 -10 0 -10 0 0 10 0 10 10 0 10 0 0
-10z m800 -10 l0 -20 10 0 10 0 0 -26 0 -25 -15 -16 -16 -15 -7 7 -7 8 13 4
12 5 0 29 0 29 -10 0 -10 0 0 20 0 20 10 0 10 0 0 -20z m-800 -70 l0 -10 -10
0 -10 0 0 10 0 10 10 0 10 0 0 -10z m820 -56 l0 -5 -15 -16 -16 -15 -5 5 -6 6
13 15 14 15 8 1 7 0 0 -6z m-820 -24 l0 -10 -10 0 -10 0 0 10 0 10 10 0 10 0
0 -10z m0 -80 l0 -10 -10 0 -10 0 0 10 0 10 10 0 10 0 0 -10z m808 -27 l17
-16 -13 -5 -12 -4 0 -39 0 -39 -10 0 -10 0 0 39 0 39 13 6 12 6 -12 6 -13 6 0
9 0 9 6 0 5 0 17 -17z m-808 -53 l0 -10 -10 0 -10 0 0 10 0 10 10 0 10 0 0
-10z m0 -80 l0 -10 -10 0 -10 0 0 10 0 10 10 0 10 0 0 -10z m820 -40 l0 -30
-10 0 -10 0 0 30 0 30 10 0 10 0 0 -30z m-560 -40 l0 -10 -30 0 -30 0 0 10 0
10 30 0 30 0 0 -10z m140 4 l0 -5 -16 -16 -16 -16 -9 14 -9 14 -9 -15 -10 -14
-6 6 -7 7 13 15 14 15 28 1 27 0 0 -6z m60 -4 l0 -10 -10 0 -10 0 0 10 0 10
10 0 10 0 0 -10z m260 0 l0 -10 -20 0 -20 0 0 10 0 10 20 0 20 0 0 -10z m47
-5 l15 -16 -5 -6 -6 -5 -16 15 -15 16 0 5 0 6 6 0 5 0 16 -15z m-627 -15 l0
-10 -10 0 -10 0 0 10 0 10 10 0 10 0 0 -10z m360 0 l0 -10 -10 0 -10 0 0 10 0
10 10 0 10 0 0 -10z"/>
<path d="M280 1190 l0 -10 10 0 10 0 0 10 0 10 -10 0 -10 0 0 -10z"/>
<path d="M312 1164 l-34 -35 5 -6 6 -5 35 36 36 35 0 6 0 5 -7 -1 -8 0 -33
-35z"/>
<path d="M342 1133 l-64 -64 5 -6 6 -5 65 66 66 66 0 5 0 5 -7 -1 -8 -1 -63
-65z"/>
<path d="M402 1133 l-64 -64 5 -6 6 -5 65 66 66 66 0 5 0 5 -7 -1 -8 -1 -63
-65z"/>
<path d="M462 1133 l-64 -64 5 -6 6 -5 65 66 66 66 0 5 0 5 -7 -1 -8 -1 -63
-65z"/>
<path d="M522 1133 l-64 -64 5 -6 6 -5 65 66 66 66 0 5 0 5 -7 -1 -8 -1 -63
-65z"/>
<path d="M582 1133 l-64 -64 5 -6 6 -5 65 66 66 66 0 5 0 5 -7 -1 -8 -1 -63
-65z"/>
<path d="M642 1133 l-64 -64 5 -6 6 -5 65 66 66 66 0 5 0 5 -7 -1 -8 -1 -63
-65z"/>
<path d="M702 1133 l-64 -64 5 -6 6 -5 65 66 66 66 0 5 0 5 -7 -1 -8 -1 -63
-65z"/>
<path d="M762 1133 l-64 -64 5 -6 6 -5 65 66 66 66 0 5 0 5 -7 -1 -8 -1 -63
-65z"/>
<path d="M822 1133 l-64 -64 5 -6 6 -5 65 66 66 66 0 5 0 5 -7 -1 -8 -1 -63
-65z"/>
<path d="M882 1133 l-64 -64 5 -6 6 -5 65 66 66 66 0 5 0 5 -7 -1 -8 -1 -63
-65z"/>
<path d="M922 1114 l-44 -45 5 -6 6 -5 45 46 46 45 0 6 0 5 -7 -1 -8 0 -43
-45z"/>
<path d="M951 1084 l-13 -15 6 -6 5 -5 16 15 15 16 0 5 0 6 -7 0 -8 -1 -14
-15z"/>
<path d="M300 944 l0 -75 14 -15 15 -14 51 0 51 0 15 14 14 15 0 75 0 76 -30
0 -30 0 0 -60 0 -60 -20 0 -20 0 0 60 0 60 -30 0 -30 0 0 -76z"/>
<path d="M500 930 l0 -90 30 0 30 0 0 60 0 60 20 0 20 0 0 -60 0 -60 30 0 30
0 0 76 0 75 -14 15 -15 14 -65 0 -66 0 0 -90z"/>
<path d="M700 930 l0 -90 30 0 30 0 0 90 0 90 -30 0 -30 0 0 -90z"/>
<path d="M800 990 l0 -30 16 0 15 0 15 -15 15 -15 -15 -15 -15 -15 -15 0 -16
0 0 -30 0 -30 30 0 30 0 0 20 0 20 20 0 20 0 0 -20 0 -20 30 0 30 0 0 30 0 30
-16 0 -15 0 -15 15 -15 15 15 15 15 15 15 0 16 0 0 30 0 30 -30 0 -30 0 0 -20
0 -20 -20 0 -20 0 0 20 0 20 -30 0 -30 0 0 -30z"/>
<path d="M280 790 l0 -10 10 0 10 0 0 10 0 10 -10 0 -10 0 0 -10z"/>
<path d="M312 764 l-34 -35 5 -6 6 -5 35 36 36 35 0 6 0 5 -7 -1 -8 0 -33 -35z"/>
<path d="M342 733 l-64 -64 5 -6 6 -5 65 66 66 66 0 5 0 5 -7 -1 -8 -1 -63
-65z"/>
<path d="M422 754 l-44 -45 5 -6 6 -5 45 46 46 45 0 6 0 5 -7 -1 -8 0 -43 -45z"/>
<path d="M482 754 l-44 -45 5 -6 6 -5 45 46 46 45 0 6 0 5 -7 -1 -8 0 -43 -45z"/>
<path d="M542 754 l-44 -45 5 -6 6 -5 45 46 46 45 0 6 0 5 -7 -1 -8 0 -43 -45z"/>
<path d="M602 754 l-44 -45 5 -6 6 -5 45 46 46 45 0 6 0 5 -7 -1 -8 0 -43 -45z"/>
<path d="M662 754 l-44 -45 5 -6 6 -5 45 46 46 45 0 6 0 5 -7 -1 -8 0 -43 -45z"/>
<path d="M722 754 l-44 -45 5 -6 6 -5 45 46 46 45 0 6 0 5 -7 -1 -8 0 -43 -45z"/>
<path d="M782 754 l-44 -45 5 -6 6 -5 45 46 46 45 0 6 0 5 -7 -1 -8 0 -43 -45z"/>
<path d="M842 754 l-44 -45 5 -6 6 -5 45 46 46 45 0 6 0 5 -7 -1 -8 0 -43 -45z"/>
<path d="M902 754 l-44 -45 5 -6 6 -5 45 46 46 45 0 6 0 5 -7 -1 -8 0 -43 -45z"/>
<path d="M941 734 l-23 -25 5 -6 6 -5 25 25 26 26 0 6 0 5 -7 -1 -8 0 -24 -25z"/>
<path d="M951 684 l-13 -15 6 -6 5 -5 16 15 15 16 0 5 0 6 -7 0 -8 -1 -14 -15z"/>
<path d="M353 665 l-13 -14 0 -36 0 -35 10 0 10 0 0 40 0 40 9 0 9 0 6 -12 6
-13 6 13 6 12 9 0 9 0 0 -40 0 -40 10 0 10 0 0 36 0 35 -16 16 -16 16 -10 -14
-10 -14 -5 13 -5 12 -6 0 -7 -1 -12 -14z"/>
<path d="M473 665 l-13 -14 0 -36 0 -35 10 0 10 0 0 20 0 20 20 0 20 0 0 -20
0 -20 10 0 10 0 0 36 0 35 -14 15 -15 14 -13 0 -13 -1 -12 -14z m47 -15 l0
-10 -20 0 -20 0 0 10 0 10 20 0 20 0 0 -10z"/>
<path d="M573 665 l-13 -14 0 -36 0 -35 10 0 10 0 0 40 0 40 20 0 20 0 0 -40
0 -40 10 0 10 0 0 36 0 35 -14 15 -15 14 -13 0 -13 -1 -12 -14z"/>
<path d="M660 644 l0 -35 14 -15 15 -14 11 0 11 0 15 14 14 15 0 35 0 36 -10
0 -10 0 0 -40 0 -40 -20 0 -20 0 0 40 0 40 -10 0 -10 0 0 -36z"/>
<path d="M773 665 l-13 -14 0 -36 0 -35 10 0 10 0 0 20 0 20 20 0 20 0 0 -20
0 -20 10 0 10 0 0 36 0 35 -14 15 -15 14 -13 0 -13 -1 -12 -14z m47 -15 l0
-10 -20 0 -20 0 0 10 0 10 20 0 20 0 0 -10z"/>
<path d="M860 630 l0 -50 30 0 30 0 0 10 0 10 -20 0 -20 0 0 40 0 40 -10 0
-10 0 0 -50z"/>
<path d="M291 624 l-13 -15 6 -6 5 -5 16 15 15 16 0 5 0 6 -7 0 -8 -1 -14 -15z"/>
<path d="M951 624 l-13 -15 6 -6 5 -5 16 15 15 16 0 5 0 6 -7 0 -8 -1 -14 -15z"/>
<path d="M291 564 l-13 -15 6 -6 5 -5 16 15 15 16 0 5 0 6 -7 0 -8 -1 -14 -15z"/>
<path d="M862 473 l-104 -105 5 -5 5 -5 106 106 106 106 0 5 0 5 -7 -1 -8 -1
-103 -105z"/>
<path d="M312 524 l-34 -35 5 -6 6 -5 35 36 36 35 0 6 0 5 -7 -1 -8 0 -33 -35z"/>
<path d="M342 493 l-64 -64 5 -6 6 -5 65 66 66 66 0 5 0 5 -7 -1 -8 -1 -63
-65z"/>
<path d="M372 463 l-94 -95 5 -5 5 -5 96 96 96 96 0 5 0 5 -7 -1 -8 -1 -93
-95z"/>
<path d="M432 463 l-94 -95 5 -5 5 -5 96 96 96 96 0 5 0 5 -7 -1 -8 -1 -93
-95z"/>
<path d="M492 463 l-94 -95 5 -5 5 -5 96 96 96 96 0 5 0 5 -7 -1 -8 -1 -93
-95z"/>
<path d="M552 463 l-94 -95 5 -5 5 -5 96 96 96 96 0 5 0 5 -7 -1 -8 -1 -93
-95z"/>
<path d="M612 463 l-94 -95 5 -5 5 -5 96 96 96 96 0 5 0 5 -7 -1 -8 -1 -93
-95z"/>
<path d="M672 463 l-94 -95 5 -5 5 -5 96 96 96 96 0 5 0 5 -7 -1 -8 -1 -93
-95z"/>
<path d="M732 463 l-94 -95 5 -5 5 -5 96 96 96 96 0 5 0 5 -7 -1 -8 -1 -93
-95z"/>
<path d="M792 463 l-94 -95 5 -5 5 -5 96 96 96 96 0 5 0 5 -7 -1 -8 -1 -93
-95z"/>
<path d="M892 443 l-74 -75 5 -5 5 -5 76 76 76 76 0 5 0 5 -7 -1 -8 -1 -73
-75z"/>
<path d="M922 414 l-44 -45 5 -6 6 -5 45 46 46 45 0 6 0 5 -7 -1 -8 0 -43 -45z"/>
<path d="M951 384 l-13 -15 6 -6 5 -5 16 15 15 16 0 5 0 6 -7 0 -8 -1 -14 -15z"/>
<path d="M1111 1144 l-14 -16 14 -9 14 -9 -15 -10 -15 -10 15 -10 15 -10 -15
-10 -15 -10 15 -10 15 -10 -15 -10 -15 -10 15 -10 15 -10 -15 -10 -15 -10 15
-10 15 -10 -15 -10 -15 -10 15 -10 15 -10 -15 -10 -15 -10 15 -10 15 -10 -15
-10 -15 -10 15 -10 15 -10 -15 -10 -15 -10 15 -10 15 -10 -15 -10 -15 -10 15
-10 15 -10 -15 -10 -15 -10 15 -10 15 -10 -15 -10 -15 -10 15 -10 15 -10 -15
-10 -15 -10 15 -10 15 -10 -15 -10 -15 -10 15 -10 15 -10 -15 -10 -15 -10 15
-10 15 -10 -15 -10 -15 -10 15 -10 15 -10 -15 -10 -15 -10 15 -10 15 -10 -15
-10 -15 -10 15 -10 15 -10 -15 -10 -15 -10 15 -10 15 -10 -15 -10 -15 -10 15
-10 15 -10 -15 -10 -15 -10 15 -10 15 -10 -15 -10 -15 -10 15 -9 14 -10 -23
-21 -24 -20 7 -7 7 -7 10 14 9 15 9 -14 9 -14 18 17 17 18 -14 9 -14 9 15 10
15 10 -15 10 -15 10 15 10 15 10 -15 10 -15 10 15 10 15 10 -15 10 -15 10 15
10 15 10 -15 10 -15 10 15 10 15 10 -15 10 -15 10 15 10 15 10 -15 10 -15 10
15 10 15 10 -15 10 -15 10 15 10 15 10 -15 10 -15 10 15 10 15 10 -15 10 -15
10 15 10 15 10 -15 10 -15 10 15 10 15 10 -15 10 -15 10 15 10 15 10 -15 10
-15 10 15 10 15 10 -15 10 -15 10 15 10 15 10 -15 10 -15 10 15 10 15 10 -15
10 -15 10 15 10 15 10 -15 10 -15 10 15 10 15 10 -15 10 -15 10 15 10 15 10
-15 10 -15 10 15 10 15 10 -15 10 -15 10 15 10 15 10 -15 10 -15 10 15 10 15
10 -15 10 -15 10 14 9 14 9 -16 16 -16 16 -3 0 -3 -1 -14 -15z m29 -14 l0 -10
-10 0 -10 0 0 10 0 10 10 0 10 0 0 -10z m0 -40 l0 -10 -10 0 -10 0 0 10 0 10
10 0 10 0 0 -10z m0 -40 l0 -10 -10 0 -10 0 0 10 0 10 10 0 10 0 0 -10z m0
-40 l0 -10 -10 0 -10 0 0 10 0 10 10 0 10 0 0 -10z m0 -40 l0 -10 -10 0 -10 0
0 10 0 10 10 0 10 0 0 -10z m0 -40 l0 -10 -10 0 -10 0 0 10 0 10 10 0 10 0 0
-10z m0 -40 l0 -10 -10 0 -10 0 0 10 0 10 10 0 10 0 0 -10z m0 -40 l0 -10 -10
0 -10 0 0 10 0 10 10 0 10 0 0 -10z m0 -40 l0 -10 -10 0 -10 0 0 10 0 10 10 0
10 0 0 -10z m0 -40 l0 -10 -10 0 -10 0 0 10 0 10 10 0 10 0 0 -10z m0 -40 l0
-10 -10 0 -10 0 0 10 0 10 10 0 10 0 0 -10z m0 -40 l0 -10 -10 0 -10 0 0 10 0
10 10 0 10 0 0 -10z m0 -40 l0 -10 -10 0 -10 0 0 10 0 10 10 0 10 0 0 -10z m0
-40 l0 -10 -10 0 -10 0 0 10 0 10 10 0 10 0 0 -10z m0 -40 l0 -10 -10 0 -10 0
0 10 0 10 10 0 10 0 0 -10z m0 -40 l0 -10 -10 0 -10 0 0 10 0 10 10 0 10 0 0
-10z m0 -40 l0 -10 -10 0 -10 0 0 10 0 10 10 0 10 0 0 -10z m0 -40 l0 -10 -10
0 -10 0 0 10 0 10 10 0 10 0 0 -10z m0 -40 l0 -10 -10 0 -10 0 0 10 0 10 10 0
10 0 0 -10z m0 -40 l0 -10 -10 0 -10 0 0 10 0 10 10 0 10 0 0 -10z m0 -40 l0
-10 -10 0 -10 0 0 10 0 10 10 0 10 0 0 -10z m0 -40 l0 -10 -10 0 -10 0 0 10 0
10 10 0 10 0 0 -10z m0 -40 l0 -10 -10 0 -10 0 0 10 0 10 10 0 10 0 0 -10z"/>
<path d="M270 220 l-14 -20 -128 0 -128 0 0 -100 0 -100 640 0 640 0 0 100 0
100 -59 0 -59 0 -5 13 -5 12 -11 -15 -11 -15 -10 15 -10 15 -9 -15 -10 -14
-21 24 -21 24 -10 -14 -9 -15 -10 15 -10 15 -10 -15 -10 -15 -10 15 -10 15
-10 -15 -10 -15 -10 15 -10 15 -10 -15 -10 -15 -10 15 -10 15 -10 -15 -10 -15
-10 15 -10 15 -10 -15 -10 -15 -10 15 -10 15 -10 -15 -10 -15 -10 15 -10 15
-10 -15 -10 -15 -10 15 -10 15 -10 -15 -10 -15 -10 15 -10 15 -10 -15 -10 -15
-10 15 -10 15 -10 -15 -10 -15 -10 15 -10 15 -10 -15 -10 -15 -10 15 -10 15
-10 -15 -10 -15 -10 15 -10 15 -10 -15 -10 -15 -10 15 -10 15 -10 -15 -10 -15
-10 15 -10 15 -10 -15 -10 -15 -10 15 -10 15 -10 -15 -10 -15 -10 15 -10 15
-10 -15 -10 -15 -10 15 -10 15 -11 -15 -11 -15 -5 13 -5 12 -7 0 -7 0 -14 -20z
m30 -10 l0 -10 -10 0 -10 0 0 10 0 10 10 0 10 0 0 -10z m40 0 l0 -10 -10 0
-10 0 0 10 0 10 10 0 10 0 0 -10z m40 0 l0 -10 -10 0 -10 0 0 10 0 10 10 0 10
0 0 -10z m40 0 l0 -10 -10 0 -10 0 0 10 0 10 10 0 10 0 0 -10z m40 0 l0 -10
-10 0 -10 0 0 10 0 10 10 0 10 0 0 -10z m40 0 l0 -10 -10 0 -10 0 0 10 0 10
10 0 10 0 0 -10z m40 0 l0 -10 -10 0 -10 0 0 10 0 10 10 0 10 0 0 -10z m40 0
l0 -10 -10 0 -10 0 0 10 0 10 10 0 10 0 0 -10z m40 0 l0 -10 -10 0 -10 0 0 10
0 10 10 0 10 0 0 -10z m40 0 l0 -10 -10 0 -10 0 0 10 0 10 10 0 10 0 0 -10z
m40 0 l0 -10 -10 0 -10 0 0 10 0 10 10 0 10 0 0 -10z m40 0 l0 -10 -10 0 -10
0 0 10 0 10 10 0 10 0 0 -10z m40 0 l0 -10 -10 0 -10 0 0 10 0 10 10 0 10 0 0
-10z m40 0 l0 -10 -10 0 -10 0 0 10 0 10 10 0 10 0 0 -10z m40 0 l0 -10 -10 0
-10 0 0 10 0 10 10 0 10 0 0 -10z m40 0 l0 -10 -10 0 -10 0 0 10 0 10 10 0 10
0 0 -10z m40 0 l0 -10 -10 0 -10 0 0 10 0 10 10 0 10 0 0 -10z m40 0 l0 -10
-10 0 -10 0 0 10 0 10 10 0 10 0 0 -10z m40 0 l0 -10 -10 0 -10 0 0 10 0 10
10 0 10 0 0 -10z m40 0 l0 -10 -10 0 -10 0 0 10 0 10 10 0 10 0 0 -10z"/>
</g>
</svg>
