<?xml version="1.0" standalone="no"?>
<!DOCTYPE svg PUBLIC "-//W3C//DTD SVG 20010904//EN"
 "http://www.w3.org/TR/2001/REC-SVG-20010904/DTD/svg10.dtd">
<svg version="1.0" xmlns="http://www.w3.org/2000/svg"
 width="468pt" height="468pt" viewBox="0 0 468 468"
 preserveAspectRatio="xMidYMid meet">
<metadata>
Created by potrace 1.8, written by Peter Selinger 2001-2007
</metadata>
<g transform="translate(0,468) scale(0.365625,-0.365625)"
fill="#000000" stroke="none">
<path d="M1220 1270 l0 -9 -60 -7 -60 -7 0 -8 0 -9 -45 0 -45 0 0 10 0 10 -70
0 -70 0 0 -9 0 -9 -65 -7 -65 -7 0 -8 0 -7 -40 -7 -40 -6 0 -10 0 -9 -35 -7
-35 -6 0 -8 0 -8 -27 -7 -28 -7 -7 -11 -7 -12 -81 -3 -80 -4 0 -8 0 -7 -72 -6
-71 -6 -8 -13 -9 -13 0 -12 0 -11 30 -7 30 -7 1 -11 2 -12 -1 -28 -1 -29 -25
-23 -25 -23 -7 -26 -6 -26 -9 0 -9 0 0 -30 0 -30 9 0 9 0 7 -30 7 -30 9 0 10
0 5 15 6 15 8 0 8 0 6 -16 6 -15 -11 6 -10 7 -25 -26 -26 -25 4 -12 4 -12 17
17 17 17 0 -10 0 -10 -14 -8 -13 -8 -7 -22 -7 -23 15 0 16 0 0 10 0 10 15 0
14 0 10 17 10 18 55 -1 56 -2 0 12 0 12 -20 17 -20 17 -25 6 -25 6 0 14 0 13
-17 -6 -18 -7 17 17 17 18 -5 14 -6 15 16 0 16 0 0 13 0 13 20 17 20 17 24 6
25 6 5 14 5 14 16 0 15 0 0 9 0 10 22 6 21 7 22 24 22 23 41 7 41 6 5 14 5 14
25 0 24 0 6 15 5 15 16 0 15 0 0 9 0 9 30 7 30 7 0 9 0 9 10 0 10 0 0 -15 0
-15 -11 0 -12 0 -25 -27 -25 -28 -4 12 -5 13 -28 -28 -27 -27 11 -7 11 -8 -14
-9 -14 -9 -14 5 -13 5 -6 -16 -6 -16 -24 0 -25 0 -5 -15 -6 -15 -17 -1 -16 -1
14 -5 14 -6 11 15 11 15 42 7 41 7 -1 -18 -2 -18 25 3 24 2 6 9 5 8 29 7 29 7
30 30 30 30 0 56 0 56 19 5 18 4 0 8 0 8 45 6 45 7 0 8 0 8 39 7 39 6 4 10 3
10 69 4 69 4 6 10 6 10 28 7 27 7 0 9 0 9 16 0 15 0 -15 15 -15 15 -15 0 -16
0 0 -10z m0 -30 l0 -10 -10 0 -10 0 0 10 0 10 10 0 10 0 0 -10z m-56 -25 l-6
-15 -9 0 -9 0 0 9 0 9 13 5 12 5 2 1 2 1 -5 -15z m-244 -65 l0 -10 -15 0 -15
0 0 10 0 10 15 0 15 0 0 -10z m-480 -90 l0 -10 -10 0 -10 0 0 10 0 10 10 0 10
0 0 -10z m-60 -29 l0 -9 -14 -5 -15 -6 6 15 5 14 9 0 9 0 0 -9z m-60 -330 l0
-9 -26 -6 -26 -7 -6 6 -5 5 16 0 17 0 0 10 0 10 15 0 15 0 0 -9z"/>
<path d="M1100 1181 l0 -8 -40 -7 -40 -6 0 -9 0 -9 -30 -7 -30 -7 0 -9 0 -9
-13 0 -13 0 -17 -20 -17 -20 -15 0 -15 0 0 -9 0 -9 13 -6 12 -5 -30 6 -30 6
28 -26 27 -26 0 -11 0 -10 -10 0 -10 0 0 -10 0 -10 10 0 10 0 20 17 20 17 0
23 0 23 10 0 10 0 0 30 0 30 15 0 16 0 5 14 6 15 29 6 29 7 0 8 0 7 40 7 40 6
0 10 0 10 -15 0 -15 0 0 -9z"/>
<path d="M480 881 l0 -9 -42 -7 -41 -7 -21 -22 -21 -22 -17 -7 -18 -6 0 -15 0
-14 -12 -5 -13 -4 7 -7 6 -8 39 41 39 40 27 6 27 7 0 8 0 8 35 6 35 7 0 9 0
10 -15 0 -15 0 0 -9z"/>
<path d="M10 830 l-15 -10 15 -10 15 -10 13 0 12 0 0 -10 0 -10 13 0 13 0 27
-31 28 -32 7 7 6 7 -10 7 -11 7 -8 24 -7 24 -26 24 -25 23 -16 0 -16 0 -15
-10z"/>
<path d="M558 804 l-18 -5 0 -10 0 -9 -11 0 -11 0 -55 -55 -55 -55 4 -12 4
-12 19 22 19 22 13 0 13 0 0 9 0 9 25 6 25 6 0 10 0 10 15 0 16 0 5 15 6 15
14 0 14 0 0 -10 0 -10 25 0 25 0 0 10 0 10 16 0 15 0 -14 15 -15 14 -39 5 -38
5 -17 -5z"/>
<path d="M14 697 l-11 -13 13 -12 13 -12 11 0 10 0 0 10 0 10 14 0 14 0 4 -9
3 -9 32 -7 33 -7 -6 16 -6 15 -29 6 -29 7 0 9 0 9 -27 0 -28 -1 -11 -12z"/>
<path d="M493 653 l-23 -4 0 -9 0 -9 -22 -4 -23 -4 40 4 40 4 3 9 4 10 29 0
29 0 0 -9 0 -9 55 -7 55 -6 0 -10 0 -9 15 0 15 0 0 -13 0 -13 20 -17 20 -17
11 0 10 0 20 19 21 19 -7 11 -6 11 -15 0 -14 0 0 10 0 9 -37 7 -38 7 -5 7 -5
8 -85 5 -85 5 -22 -5z"/>
<path d="M180 635 l0 -15 10 0 10 0 0 15 0 15 -10 0 -10 0 0 -15z"/>
<path d="M356 587 l6 -15 13 -5 13 -5 0 -26 0 -26 -169 0 -169 0 0 10 0 10 19
0 20 0 15 15 15 15 30 0 31 0 0 -10 0 -10 16 0 16 0 -4 13 -5 12 -26 3 -27 3
0 10 0 9 -35 0 -35 0 0 -10 0 -10 -23 0 -23 0 -16 -19 -17 -20 12 -5 12 -6
-12 -6 -13 -6 0 -254 0 -254 640 0 640 0 0 255 0 255 -420 0 -420 0 6 25 6 25
-18 7 -19 7 -5 7 -5 7 -28 7 -27 7 6 -15z"/>
</g>
</svg>
