<?xml version="1.0" standalone="no"?>
<!DOCTYPE svg PUBLIC "-//W3C//DTD SVG 20010904//EN"
 "http://www.w3.org/TR/2001/REC-SVG-20010904/DTD/svg10.dtd">
<svg version="1.0" xmlns="http://www.w3.org/2000/svg"
 width="468pt" height="468pt" viewBox="0 0 468 468"
 preserveAspectRatio="xMidYMid meet">
<metadata>
Created by potrace 1.8, written by Peter Selinger 2001-2007
</metadata>
<g transform="translate(0,468) scale(0.365625,-0.365625)"
fill="#000000" stroke="none">
<path d="M270 1189 l0 -90 14 -15 15 -14 50 0 51 0 0 10 0 10 15 0 15 0 0 95
0 95 -15 0 -15 0 0 -95 0 -95 -55 0 -55 0 0 95 0 95 -10 0 -10 0 0 -91z"/>
<path d="M510 1265 l0 -15 -15 0 -15 0 0 -25 0 -25 15 0 15 0 0 -15 0 -15 40
0 40 0 0 -40 0 -40 -40 0 -40 0 0 30 0 30 -15 0 -15 0 0 -30 0 -30 15 0 15 0
0 -10 0 -10 36 0 35 0 15 14 14 15 0 35 0 36 -10 0 -10 0 0 15 0 15 -40 0 -40
0 0 25 0 25 39 0 39 0 5 -12 4 -13 9 9 9 9 -12 4 -13 5 0 14 0 14 -40 0 -40 0
0 -15z"/>
<path d="M690 1265 l0 -15 -10 0 -10 0 0 -25 0 -25 10 0 10 0 0 -15 0 -15 40
0 40 0 0 -40 0 -40 -40 0 -40 0 0 30 0 30 -10 0 -10 0 0 -26 0 -25 14 -15 15
-14 35 0 36 0 0 10 0 10 15 0 15 0 0 40 0 40 -15 0 -15 0 0 15 0 15 -40 0 -40
0 0 25 0 25 40 0 40 0 0 -10 0 -10 15 0 15 0 0 10 0 10 -15 0 -15 0 0 15 0 15
-40 0 -40 0 0 -15z"/>
<path d="M850 1175 l0 -105 15 0 15 0 0 50 0 50 40 0 40 0 0 -50 0 -50 15 0
15 0 0 50 0 50 -15 0 -15 0 0 15 0 15 15 0 15 0 0 25 0 25 -15 0 -15 0 0 15 0
15 -55 0 -55 0 0 -105z m110 50 l0 -25 -40 0 -40 0 0 25 0 25 40 0 40 0 0 -25z"/>
<path d="M0 535 l0 -425 640 0 640 0 0 425 0 425 -640 0 -640 0 0 -425z m80
385 l0 -10 14 0 14 0 6 13 6 12 6 -12 6 -13 14 0 14 0 0 10 0 10 14 0 14 0 6
-12 6 -13 6 13 6 12 14 0 14 0 0 -10 0 -10 14 0 14 0 6 13 6 12 6 -12 6 -13
14 0 14 0 0 10 0 10 14 0 14 0 6 -12 6 -13 6 13 6 12 14 0 14 0 0 -10 0 -10
14 0 14 0 6 13 6 12 6 -12 6 -13 14 0 14 0 0 10 0 10 14 0 14 0 6 -12 6 -13 6
13 6 12 14 0 14 0 0 -10 0 -10 14 0 14 0 6 13 6 12 6 -12 6 -13 14 0 14 0 0
10 0 10 14 0 14 0 6 -12 6 -13 6 13 6 12 14 0 14 0 0 -10 0 -10 14 0 14 0 6
13 6 12 6 -12 6 -13 14 0 14 0 0 10 0 10 14 0 14 0 6 -12 6 -13 6 13 6 12 14
0 14 0 0 -10 0 -10 14 0 14 0 6 13 6 12 6 -12 6 -13 14 0 14 0 0 10 0 10 14 0
14 0 6 -12 6 -13 6 13 6 12 14 0 14 0 0 -10 0 -10 14 0 14 0 6 13 6 12 6 -12
6 -13 14 0 14 0 0 10 0 10 14 0 14 0 6 -12 6 -13 6 13 6 12 14 0 14 0 0 -10 0
-10 14 0 14 0 5 13 4 12 9 -9 9 -9 -13 -4 -12 -5 0 -14 0 -14 10 0 10 0 0 -14
0 -14 -13 -6 -12 -6 12 -6 13 -6 0 -14 0 -14 -10 0 -10 0 0 -14 0 -14 13 -6
12 -6 -12 -6 -13 -6 0 -14 0 -14 10 0 10 0 0 -14 0 -14 -12 -6 -13 -6 13 -6
12 -6 0 -14 0 -14 -10 0 -10 0 0 -14 0 -14 13 -6 12 -6 -12 -6 -13 -6 0 -14 0
-14 10 0 10 0 0 -14 0 -14 -12 -6 -13 -6 12 -6 13 -6 0 -14 0 -14 -10 0 -10 0
0 -14 0 -14 13 -6 12 -6 -12 -6 -13 -6 0 -14 0 -14 10 0 10 0 0 -14 0 -14 -12
-6 -13 -6 13 -6 12 -6 0 -14 0 -14 -10 0 -10 0 0 -14 0 -14 12 -6 13 -6 -13
-6 -12 -6 0 -14 0 -14 10 0 10 0 0 -14 0 -14 -12 -6 -13 -6 13 -6 12 -6 0 -14
0 -14 -10 0 -10 0 0 -15 0 -15 -15 0 -15 0 0 15 0 15 -15 0 -15 0 0 -15 0 -15
-10 0 -10 0 0 15 0 15 -15 0 -15 0 0 -15 0 -15 -15 0 -15 0 0 15 0 15 -10 0
-10 0 0 -15 0 -15 -15 0 -15 0 0 15 0 15 -15 0 -15 0 0 -15 0 -15 -10 0 -10 0
0 15 0 15 -15 0 -15 0 0 -15 0 -15 -15 0 -15 0 0 15 0 15 -10 0 -10 0 0 -15 0
-15 -15 0 -15 0 0 15 0 15 -15 0 -15 0 0 -15 0 -15 -10 0 -10 0 0 15 0 15 -15
0 -15 0 0 -15 0 -15 -15 0 -15 0 0 15 0 15 -10 0 -10 0 0 -15 0 -15 -15 0 -15
0 0 15 0 15 -15 0 -15 0 0 -15 0 -15 -10 0 -10 0 0 15 0 15 -15 0 -15 0 0 -15
0 -15 -15 0 -15 0 0 15 0 15 -10 0 -10 0 0 -15 0 -15 -15 0 -15 0 0 15 0 15
-15 0 -15 0 0 -15 0 -15 -10 0 -10 0 0 15 0 15 -15 0 -15 0 0 -15 0 -15 -15 0
-15 0 0 15 0 15 -10 0 -10 0 0 -15 0 -15 -15 0 -15 0 0 15 0 15 -15 0 -15 0 0
-15 0 -15 -10 0 -10 0 0 15 0 15 -15 0 -15 0 0 -15 0 -15 -15 0 -15 0 0 15 0
15 -10 0 -10 0 0 -15 0 -15 -15 0 -15 0 0 15 0 15 -15 0 -15 0 0 -15 0 -15
-10 0 -10 0 0 15 0 15 -15 0 -15 0 0 -15 0 -15 -15 0 -15 0 0 15 0 15 -10 0
-10 0 0 -15 0 -15 -15 0 -15 0 0 15 0 15 -15 0 -15 0 0 -15 0 -15 -10 0 -10 0
0 15 0 15 10 0 10 0 0 14 0 14 -12 6 -13 6 13 6 12 6 0 14 0 14 -10 0 -10 0 0
14 0 14 13 6 12 6 -12 6 -13 6 0 14 0 14 10 0 10 0 0 14 0 14 -12 6 -13 6 13
6 12 6 0 14 0 14 -10 0 -10 0 0 14 0 14 12 6 13 6 -12 6 -13 6 0 14 0 14 10 0
10 0 0 14 0 14 -12 6 -13 6 12 6 13 6 0 14 0 14 -10 0 -10 0 0 14 0 14 13 6
12 6 -12 6 -13 6 0 14 0 14 10 0 10 0 0 14 0 14 -12 6 -13 6 13 6 12 6 0 14 0
14 -10 0 -10 0 0 14 0 14 13 6 12 6 -12 6 -13 6 0 14 0 14 10 0 10 0 0 14 0
14 -12 6 -13 6 13 6 12 6 0 14 0 14 -10 0 -10 0 0 10 0 11 13 14 12 14 13 1
12 0 0 -10z"/>
<path d="M50 895 l0 -15 15 0 15 0 0 -15 0 -15 -15 0 -15 0 0 -10 0 -10 15 0
15 0 0 -15 0 -15 -15 0 -15 0 0 -15 0 -15 15 0 15 0 0 -10 0 -10 -15 0 -15 0
0 -15 0 -15 15 0 15 0 0 -15 0 -15 -15 0 -15 0 0 -10 0 -10 15 0 15 0 0 -15 0
-15 -15 0 -15 0 0 -15 0 -15 15 0 15 0 0 -10 0 -10 -15 0 -15 0 0 -15 0 -15
15 0 15 0 0 -15 0 -15 -15 0 -15 0 0 -10 0 -10 15 0 15 0 0 -15 0 -15 -15 0
-15 0 0 -15 0 -15 15 0 15 0 0 -10 0 -10 -15 0 -15 0 0 -15 0 -15 15 0 15 0 0
-15 0 -15 -15 0 -15 0 0 -10 0 -10 15 0 15 0 0 -15 0 -15 -15 0 -15 0 0 -15 0
-15 15 0 15 0 0 -10 0 -10 -15 0 -15 0 0 -15 0 -15 15 0 15 0 0 -15 0 -15 -15
0 -15 0 0 -10 0 -10 15 0 15 0 0 -15 0 -15 15 0 15 0 0 15 0 15 -15 0 -15 0 0
10 0 10 15 0 15 0 0 15 0 15 10 0 10 0 0 -15 0 -15 15 0 15 0 0 -10 0 -10 -15
0 -15 0 0 -15 0 -15 15 0 15 0 0 15 0 15 15 0 15 0 0 -15 0 -15 10 0 10 0 0
15 0 15 15 0 15 0 0 -15 0 -15 15 0 15 0 0 15 0 15 -15 0 -15 0 0 10 0 10 15
0 15 0 0 15 0 15 10 0 10 0 0 -15 0 -15 15 0 15 0 0 -10 0 -10 -15 0 -15 0 0
-15 0 -15 15 0 15 0 0 15 0 15 15 0 15 0 0 -15 0 -15 10 0 10 0 0 15 0 15 15
0 15 0 0 -15 0 -15 15 0 15 0 0 15 0 15 -15 0 -15 0 0 10 0 10 15 0 15 0 0 15
0 15 10 0 10 0 0 -15 0 -15 15 0 15 0 0 -10 0 -10 -15 0 -15 0 0 -15 0 -15 15
0 15 0 0 15 0 15 15 0 15 0 0 -15 0 -15 10 0 10 0 0 15 0 15 15 0 15 0 0 -15
0 -15 15 0 15 0 0 15 0 15 -15 0 -15 0 0 10 0 10 15 0 15 0 0 15 0 15 10 0 10
0 0 -15 0 -15 15 0 15 0 0 -10 0 -10 -15 0 -15 0 0 -15 0 -15 15 0 15 0 0 15
0 15 15 0 15 0 0 -15 0 -15 10 0 10 0 0 15 0 15 15 0 15 0 0 -15 0 -15 15 0
15 0 0 15 0 15 -15 0 -15 0 0 10 0 10 15 0 15 0 0 15 0 15 10 0 10 0 0 -15 0
-15 15 0 15 0 0 -10 0 -10 -15 0 -15 0 0 -15 0 -15 15 0 15 0 0 15 0 15 15 0
15 0 0 -15 0 -15 10 0 10 0 0 15 0 15 15 0 15 0 0 -15 0 -15 15 0 15 0 0 15 0
15 -15 0 -15 0 0 10 0 10 15 0 15 0 0 15 0 15 10 0 10 0 0 -15 0 -15 15 0 15
0 0 -10 0 -10 -15 0 -15 0 0 -15 0 -15 15 0 15 0 0 15 0 15 15 0 15 0 0 -15 0
-15 10 0 10 0 0 15 0 15 15 0 15 0 0 -15 0 -15 15 0 15 0 0 15 0 15 -15 0 -15
0 0 10 0 10 15 0 15 0 0 15 0 15 10 0 10 0 0 -15 0 -15 15 0 15 0 0 -10 0 -10
-15 0 -15 0 0 -15 0 -15 15 0 15 0 0 15 0 15 15 0 15 0 0 -15 0 -15 10 0 10 0
0 15 0 15 15 0 15 0 0 -15 0 -15 15 0 15 0 0 15 0 15 -15 0 -15 0 0 10 0 10
15 0 15 0 0 15 0 15 -15 0 -15 0 0 15 0 15 15 0 15 0 0 10 0 10 -15 0 -15 0 0
15 0 15 15 0 15 0 0 15 0 15 -15 0 -15 0 0 10 0 10 15 0 15 0 0 15 0 15 -15 0
-15 0 0 15 0 15 15 0 15 0 0 10 0 10 -15 0 -15 0 0 15 0 15 15 0 15 0 0 15 0
15 -15 0 -15 0 0 10 0 10 15 0 15 0 0 15 0 15 -15 0 -15 0 0 15 0 15 15 0 15
0 0 10 0 10 -15 0 -15 0 0 15 0 15 15 0 15 0 0 15 0 15 -15 0 -15 0 0 10 0 10
15 0 15 0 0 15 0 15 -15 0 -15 0 0 15 0 15 15 0 15 0 0 10 0 10 -15 0 -15 0 0
15 0 15 15 0 15 0 0 15 0 15 -15 0 -15 0 0 10 0 10 15 0 15 0 0 15 0 15 -15 0
-15 0 0 15 0 15 -15 0 -15 0 0 -15 0 -15 -10 0 -10 0 0 15 0 15 -15 0 -15 0 0
-15 0 -15 -15 0 -15 0 0 15 0 15 -10 0 -10 0 0 -15 0 -15 -15 0 -15 0 0 15 0
15 -15 0 -15 0 0 -15 0 -15 -10 0 -10 0 0 15 0 15 -15 0 -15 0 0 -15 0 -15
-15 0 -15 0 0 15 0 15 -10 0 -10 0 0 -15 0 -15 -15 0 -15 0 0 15 0 15 -15 0
-15 0 0 -15 0 -15 -10 0 -10 0 0 15 0 15 -15 0 -15 0 0 -15 0 -15 -15 0 -15 0
0 15 0 15 -10 0 -10 0 0 -15 0 -15 -15 0 -15 0 0 15 0 15 -15 0 -15 0 0 -15 0
-15 -10 0 -10 0 0 15 0 15 -15 0 -15 0 0 -15 0 -15 -15 0 -15 0 0 15 0 15 -10
0 -10 0 0 -15 0 -15 -15 0 -15 0 0 15 0 15 -15 0 -15 0 0 -15 0 -15 -10 0 -10
0 0 15 0 15 -15 0 -15 0 0 -15 0 -15 -15 0 -15 0 0 15 0 15 -10 0 -10 0 0 -15
0 -15 -15 0 -15 0 0 15 0 15 -15 0 -15 0 0 -15 0 -15 -10 0 -10 0 0 15 0 15
-15 0 -15 0 0 -15 0 -15 15 0 15 0 0 -15 0 -15 -15 0 -15 0 0 -10 0 -10 15 0
15 0 0 -15 0 -15 -15 0 -15 0 0 -15 0 -15 11 0 10 0 15 -14 14 -15 0 -10 0
-11 15 0 15 0 0 -15 0 -15 -15 0 -15 0 0 -10 0 -10 15 0 15 0 0 -15 0 -15 -15
0 -15 0 0 -14 0 -14 -12 -6 -13 -6 13 -6 12 -6 0 -14 0 -14 15 0 15 0 0 -15 0
-15 -14 0 -14 0 -6 -12 -6 -13 -6 13 -6 12 -14 0 -14 0 0 15 0 15 -15 0 -15 0
0 -15 0 -15 15 0 15 0 0 -10 0 -10 -15 0 -15 0 0 -15 0 -15 -10 0 -10 0 0 15
0 15 -15 0 -15 0 0 10 0 10 15 0 15 0 0 15 0 15 -15 0 -15 0 0 -15 0 -15 -15
0 -15 0 0 15 0 15 -10 0 -10 0 0 -15 0 -15 -15 0 -15 0 0 -10 0 -10 -11 0 -10
0 -15 14 -14 15 0 10 0 11 10 0 10 0 0 15 0 15 15 0 15 0 0 10 0 10 15 0 15 0
0 15 0 15 10 0 10 0 0 -15 0 -15 15 0 15 0 0 -10 0 -10 15 0 15 0 0 10 0 10
-15 0 -15 0 0 15 0 15 -15 0 -15 0 0 15 0 15 -10 0 -10 0 0 -15 0 -15 -15 0
-15 0 0 15 0 15 -15 0 -15 0 0 -15 0 -15 -10 0 -10 0 0 15 0 15 -15 0 -15 0 0
10 0 10 15 0 15 0 0 15 0 15 10 0 10 0 0 -15 0 -15 15 0 15 0 0 15 0 15 15 0
15 0 0 11 0 10 14 15 15 14 10 0 11 0 0 -10 0 -10 15 0 15 0 0 -15 0 -15 -15
0 -15 0 0 -15 0 -15 11 0 10 0 15 -14 14 -15 0 -10 0 -11 15 0 15 0 0 15 0 15
-11 0 -10 0 -15 14 -14 15 0 10 0 11 10 0 10 0 0 -15 0 -15 15 0 15 0 0 15 0
15 -15 0 -15 0 0 14 0 14 -12 6 -13 6 13 6 12 6 0 14 0 14 -10 0 -10 0 0 -15
0 -15 -15 0 -15 0 0 15 0 15 -15 0 -15 0 0 15 0 15 15 0 15 0 0 10 0 10 -15 0
-15 0 0 15 0 15 15 0 15 0 0 15 0 15 -15 0 -15 0 0 -15 0 -15 -10 0 -10 0 0
15 0 15 -15 0 -15 0 0 -15 0 -15 -15 0 -15 0 0 15 0 15 -10 0 -10 0 0 -15 0
-15 -15 0 -15 0 0 15 0 15 -15 0 -15 0 0 -15z m80 -30 l0 -15 15 0 15 0 0 15
0 15 15 0 15 0 0 -14 0 -14 13 -6 12 -6 -12 -6 -13 -6 0 -14 0 -14 10 0 10 0
0 -11 0 -10 -14 -15 -15 -14 -10 0 -11 0 0 -15 0 -15 -15 0 -15 0 0 15 0 15
15 0 15 0 0 10 0 10 -15 0 -15 0 0 15 0 15 -10 0 -10 0 0 -15 0 -15 -15 0 -15
0 0 15 0 15 15 0 15 0 0 15 0 15 -15 0 -15 0 0 10 0 10 15 0 15 0 0 15 0 15
10 0 10 0 0 -15z m270 0 l0 -15 15 0 15 0 0 15 0 15 10 0 10 0 0 -15 0 -15 15
0 15 0 0 15 0 15 15 0 15 0 0 -15 0 -15 -15 0 -15 0 0 -10 0 -10 15 0 15 0 0
-15 0 -15 10 0 10 0 0 15 0 15 15 0 15 0 0 10 0 10 -15 0 -15 0 0 15 0 15 15
0 15 0 0 -15 0 -15 15 0 15 0 0 15 0 15 10 0 10 0 0 -15 0 -15 15 0 15 0 0 15
0 15 15 0 15 0 0 -15 0 -15 -15 0 -15 0 0 -10 0 -10 15 0 15 0 0 -15 0 -15 10
0 10 0 0 15 0 15 15 0 15 0 0 10 0 10 -15 0 -15 0 0 15 0 15 15 0 15 0 0 -15
0 -15 15 0 15 0 0 15 0 15 10 0 10 0 0 -15 0 -15 15 0 15 0 0 15 0 15 15 0 15
0 0 -15 0 -15 -15 0 -15 0 0 -10 0 -10 15 0 15 0 0 -15 0 -15 10 0 10 0 0 15
0 15 15 0 15 0 0 10 0 10 -15 0 -15 0 0 15 0 15 15 0 15 0 0 -15 0 -15 15 0
15 0 0 15 0 15 10 0 10 0 0 -15 0 -15 15 0 15 0 0 15 0 15 15 0 15 0 0 -15 0
-15 -15 0 -15 0 0 -10 0 -10 15 0 15 0 0 -15 0 -15 10 0 10 0 0 15 0 15 15 0
15 0 0 10 0 10 -15 0 -15 0 0 15 0 15 15 0 15 0 0 -15 0 -15 15 0 15 0 0 15 0
15 10 0 10 0 0 -15 0 -15 15 0 15 0 0 15 0 15 15 0 15 0 0 -15 0 -15 -15 0
-15 0 0 -10 0 -10 15 0 15 0 0 -15 0 -15 10 0 10 0 0 15 0 15 15 0 15 0 0 -15
0 -15 -15 0 -15 0 0 -15 0 -15 15 0 15 0 0 -10 0 -10 -15 0 -15 0 0 -15 0 -15
15 0 15 0 0 -15 0 -15 -15 0 -15 0 0 15 0 15 -10 0 -10 0 0 -15 0 -15 -15 0
-15 0 0 -10 0 -10 15 0 15 0 0 -15 0 -15 10 0 10 0 0 15 0 15 15 0 15 0 0 -15
0 -15 -15 0 -15 0 0 -15 0 -15 15 0 15 0 0 -10 0 -10 -15 0 -15 0 0 -15 0 -15
15 0 15 0 0 -15 0 -15 -15 0 -15 0 0 15 0 15 -10 0 -10 0 0 -15 0 -15 -15 0
-15 0 0 -10 0 -10 15 0 15 0 0 -15 0 -15 10 0 10 0 0 15 0 15 15 0 15 0 0 -15
0 -15 -15 0 -15 0 0 -15 0 -15 15 0 15 0 0 -10 0 -10 -15 0 -15 0 0 -15 0 -15
15 0 15 0 0 -15 0 -15 -15 0 -15 0 0 15 0 15 -10 0 -10 0 0 -15 0 -15 -15 0
-15 0 0 -10 0 -10 15 0 15 0 0 -15 0 -15 10 0 10 0 0 15 0 15 15 0 15 0 0 -15
0 -15 -15 0 -15 0 0 -15 0 -15 15 0 15 0 0 -10 0 -10 -15 0 -15 0 0 -15 0 -15
15 0 15 0 0 -15 0 -15 -14 0 -14 0 -6 -12 -6 -13 -6 13 -6 12 -14 0 -14 0 0
15 0 15 -15 0 -15 0 0 15 0 15 15 0 15 0 0 10 0 10 -15 0 -15 0 0 15 0 15 -10
0 -10 0 0 -15 0 -15 -15 0 -15 0 0 -10 0 -10 15 0 15 0 0 -15 0 -15 -15 0 -15
0 0 -15 0 -15 -14 0 -14 0 -6 -12 -6 -13 -6 13 -6 12 -14 0 -14 0 0 15 0 15
-15 0 -15 0 0 15 0 15 15 0 15 0 0 10 0 10 -15 0 -15 0 0 15 0 15 -10 0 -10 0
0 -15 0 -15 -15 0 -15 0 0 -10 0 -10 15 0 15 0 0 -15 0 -15 -15 0 -15 0 0 -15
0 -15 -14 0 -14 0 -6 -12 -6 -13 -6 13 -6 12 -14 0 -14 0 0 15 0 15 -15 0 -15
0 0 15 0 15 15 0 15 0 0 10 0 10 -15 0 -15 0 0 15 0 15 -10 0 -10 0 0 -15 0
-15 -15 0 -15 0 0 -10 0 -10 15 0 15 0 0 -15 0 -15 -15 0 -15 0 0 -15 0 -15
-14 0 -14 0 -6 -12 -6 -13 -6 13 -6 12 -14 0 -14 0 0 15 0 15 -15 0 -15 0 0
15 0 15 15 0 15 0 0 10 0 10 -15 0 -15 0 0 15 0 15 -10 0 -10 0 0 -15 0 -15
-15 0 -15 0 0 -10 0 -10 15 0 15 0 0 -15 0 -15 -15 0 -15 0 0 -15 0 -15 -14 0
-14 0 -6 -12 -6 -13 -6 13 -6 12 -14 0 -14 0 0 15 0 15 -15 0 -15 0 0 15 0 15
15 0 15 0 0 10 0 10 -15 0 -15 0 0 15 0 15 -10 0 -10 0 0 -15 0 -15 -15 0 -15
0 0 -10 0 -10 15 0 15 0 0 -15 0 -15 -15 0 -15 0 0 -15 0 -15 -14 0 -14 0 -6
-12 -6 -13 -6 13 -6 12 -14 0 -14 0 0 15 0 15 -15 0 -15 0 0 15 0 15 15 0 15
0 0 10 0 10 -15 0 -15 0 0 15 0 15 -10 0 -10 0 0 -15 0 -15 -15 0 -15 0 0 -10
0 -10 15 0 15 0 0 -15 0 -15 -15 0 -15 0 0 -15 0 -15 -14 0 -14 0 -6 -12 -6
-13 -6 13 -6 12 -14 0 -14 0 0 15 0 15 -15 0 -15 0 0 15 0 15 15 0 15 0 0 10
0 10 -15 0 -15 0 0 15 0 15 -10 0 -10 0 0 -15 0 -15 -15 0 -15 0 0 15 0 15 15
0 15 0 0 15 0 15 -15 0 -15 0 0 10 0 10 15 0 15 0 0 15 0 15 -15 0 -15 0 0 15
0 15 15 0 15 0 0 -15 0 -15 10 0 10 0 0 15 0 15 15 0 15 0 0 10 0 10 -15 0
-15 0 0 15 0 15 -10 0 -10 0 0 -15 0 -15 -15 0 -15 0 0 15 0 15 15 0 15 0 0
15 0 15 -15 0 -15 0 0 10 0 10 11 0 10 0 15 -14 14 -15 0 -10 0 -11 15 0 15 0
0 15 0 15 14 0 14 0 6 13 6 12 6 -12 6 -13 14 0 14 0 0 -15 0 -15 15 0 15 0 0
-15 0 -15 -15 0 -15 0 0 -10 0 -10 15 0 15 0 0 -15 0 -15 10 0 10 0 0 15 0 15
15 0 15 0 0 10 0 10 -15 0 -15 0 0 15 0 15 15 0 15 0 0 15 0 15 15 0 15 0 0
-15 0 -15 10 0 10 0 0 15 0 15 15 0 15 0 0 10 0 10 15 0 15 0 0 15 0 15 -15 0
-15 0 0 15 0 15 -15 0 -15 0 0 10 0 10 15 0 15 0 0 15 0 15 15 0 15 0 0 15 0
15 -15 0 -15 0 0 10 0 10 15 0 15 0 0 15 0 15 -15 0 -15 0 0 15 0 15 -11 0
-10 0 -15 14 -14 15 0 10 0 11 10 0 10 0 0 14 0 14 -12 6 -13 6 13 6 12 6 0
14 0 14 15 0 15 0 0 -15z m800 0 l0 -15 -14 0 -14 0 -5 -12 -4 -13 -9 9 -9 9
13 4 12 5 0 14 0 14 15 0 15 0 0 -15z m-670 -25 l0 -10 -10 0 -10 0 0 10 0 10
10 0 10 0 0 -10z m160 0 l0 -10 -10 0 -10 0 0 10 0 10 10 0 10 0 0 -10z m160
0 l0 -10 -10 0 -10 0 0 10 0 10 10 0 10 0 0 -10z m160 0 l0 -10 -10 0 -10 0 0
10 0 10 10 0 10 0 0 -10z m-880 -80 l0 -10 -10 0 -10 0 0 -15 0 -15 -15 0 -15
0 0 15 0 15 15 0 15 0 0 10 0 10 10 0 10 0 0 -10z m1040 -80 l0 -10 -10 0 -10
0 0 10 0 10 10 0 10 0 0 -10z m-1060 -55 l0 -15 -15 0 -15 0 0 15 0 15 15 0
15 0 0 -15z m50 0 l0 -15 -11 0 -10 0 -15 -14 -14 -15 0 -10 0 -11 -15 0 -15
0 0 15 0 15 11 0 10 0 15 14 14 15 0 10 0 11 15 0 15 0 0 -15z m1010 -105 l0
-10 -10 0 -10 0 0 10 0 10 10 0 10 0 0 -10z m-1040 -80 l0 -10 -10 0 -10 0 0
10 0 10 10 0 10 0 0 -10z m160 0 l0 -10 -10 0 -10 0 0 10 0 10 10 0 10 0 0
-10z m880 -80 l0 -10 -10 0 -10 0 0 10 0 10 10 0 10 0 0 -10z m-1040 -80 l0
-10 -10 0 -10 0 0 -15 0 -15 -15 0 -15 0 0 15 0 15 15 0 15 0 0 10 0 10 10 0
10 0 0 -10z m160 0 l0 -10 -10 0 -10 0 0 10 0 10 10 0 10 0 0 -10z m160 0 l0
-10 -10 0 -10 0 0 10 0 10 10 0 10 0 0 -10z m160 0 l0 -10 -10 0 -10 0 0 10 0
10 10 0 10 0 0 -10z m160 0 l0 -10 -10 0 -10 0 0 10 0 10 10 0 10 0 0 -10z
m160 0 l0 -10 -10 0 -10 0 0 10 0 10 10 0 10 0 0 -10z m160 0 l0 -10 -10 0
-10 0 0 10 0 10 10 0 10 0 0 -10z"/>
<path d="M110 840 l0 -10 10 0 10 0 0 -15 0 -15 15 0 15 0 0 -15 0 -15 15 0
15 0 0 15 0 15 -15 0 -15 0 0 15 0 15 15 0 15 0 0 10 0 10 -15 0 -15 0 0 -10
0 -10 -15 0 -15 0 0 10 0 10 -10 0 -10 0 0 -10z"/>
<path d="M370 840 l0 -10 15 0 15 0 0 -15 0 -15 -15 0 -15 0 0 -15 0 -15 15 0
15 0 0 -10 0 -10 15 0 15 0 0 -15 0 -15 10 0 10 0 0 -14 0 -14 -12 -6 -13 -6
13 -6 12 -6 0 -14 0 -14 -10 0 -10 0 0 -15 0 -15 -15 0 -15 0 0 -10 0 -10 15
0 15 0 0 -15 0 -15 10 0 10 0 0 -11 0 -10 -14 -15 -15 -14 -10 0 -11 0 0 -15
0 -15 -15 0 -15 0 0 -15 0 -15 15 0 15 0 0 -10 0 -10 -15 0 -15 0 0 -15 0 -15
-10 0 -10 0 0 15 0 15 -15 0 -15 0 0 -15 0 -15 -15 0 -15 0 0 -15 0 -15 15 0
15 0 0 -10 0 -10 -15 0 -15 0 0 -15 0 -15 15 0 15 0 0 -15 0 -15 15 0 15 0 0
15 0 15 10 0 10 0 0 -15 0 -15 15 0 15 0 0 15 0 15 15 0 15 0 0 15 0 15 -15 0
-15 0 0 10 0 10 15 0 15 0 0 15 0 15 10 0 10 0 0 -15 0 -15 15 0 15 0 0 -10 0
-10 -15 0 -15 0 0 -15 0 -15 15 0 15 0 0 -15 0 -15 15 0 15 0 0 15 0 15 10 0
10 0 0 -15 0 -15 15 0 15 0 0 15 0 15 15 0 15 0 0 15 0 15 -15 0 -15 0 0 10 0
10 15 0 15 0 0 15 0 15 10 0 10 0 0 -15 0 -15 15 0 15 0 0 -10 0 -10 -15 0
-15 0 0 -15 0 -15 15 0 15 0 0 -15 0 -15 15 0 15 0 0 15 0 15 10 0 10 0 0 -15
0 -15 15 0 15 0 0 15 0 15 15 0 15 0 0 15 0 15 -15 0 -15 0 0 10 0 10 15 0 15
0 0 15 0 15 10 0 10 0 0 -15 0 -15 15 0 15 0 0 -10 0 -10 -15 0 -15 0 0 -15 0
-15 15 0 15 0 0 -15 0 -15 15 0 15 0 0 15 0 15 10 0 10 0 0 -15 0 -15 15 0 15
0 0 15 0 15 15 0 15 0 0 15 0 15 -15 0 -15 0 0 10 0 10 15 0 15 0 0 15 0 15
10 0 10 0 0 -15 0 -15 15 0 15 0 0 -10 0 -10 -15 0 -15 0 0 -15 0 -15 15 0 15
0 0 -15 0 -15 15 0 15 0 0 15 0 15 10 0 10 0 0 -15 0 -15 15 0 15 0 0 15 0 15
15 0 15 0 0 15 0 15 -15 0 -15 0 0 10 0 10 15 0 15 0 0 15 0 15 10 0 10 0 0
-15 0 -15 15 0 15 0 0 15 0 15 15 0 15 0 0 14 0 14 13 6 12 6 -12 6 -13 6 0
14 0 14 -15 0 -15 0 0 15 0 15 -15 0 -15 0 0 -15 0 -15 -10 0 -10 0 0 15 0 15
-15 0 -15 0 0 10 0 10 15 0 15 0 0 15 0 15 10 0 10 0 0 -15 0 -15 15 0 15 0 0
15 0 15 15 0 15 0 0 14 0 14 13 6 12 6 -12 6 -13 6 0 14 0 14 -15 0 -15 0 0
15 0 15 -15 0 -15 0 0 -15 0 -15 -10 0 -10 0 0 15 0 15 -15 0 -15 0 0 10 0 10
15 0 15 0 0 15 0 15 10 0 10 0 0 -15 0 -15 15 0 15 0 0 15 0 15 15 0 15 0 0
14 0 14 13 6 12 6 -12 6 -13 6 0 14 0 14 -15 0 -15 0 0 15 0 15 -14 0 -14 0
-6 13 -6 12 -6 -12 -6 -13 -14 0 -14 0 0 -15 0 -15 -15 0 -15 0 0 -15 0 -15
15 0 15 0 0 -10 0 -10 -15 0 -15 0 0 -15 0 -15 -10 0 -10 0 0 15 0 15 -15 0
-15 0 0 10 0 10 15 0 15 0 0 15 0 15 -15 0 -15 0 0 15 0 15 -14 0 -14 0 -6 13
-6 12 -6 -12 -6 -13 -14 0 -14 0 0 -15 0 -15 -15 0 -15 0 0 -15 0 -15 15 0 15
0 0 -10 0 -10 -15 0 -15 0 0 -15 0 -15 -10 0 -10 0 0 15 0 15 -15 0 -15 0 0
10 0 10 15 0 15 0 0 15 0 15 -15 0 -15 0 0 15 0 15 -14 0 -14 0 -6 13 -6 12
-6 -12 -6 -13 -14 0 -14 0 0 -15 0 -15 -15 0 -15 0 0 -15 0 -15 15 0 15 0 0
-10 0 -10 -15 0 -15 0 0 -15 0 -15 -10 0 -10 0 0 15 0 15 -15 0 -15 0 0 10 0
10 15 0 15 0 0 15 0 15 -15 0 -15 0 0 15 0 15 -14 0 -14 0 -6 13 -6 12 -6 -12
-6 -13 -14 0 -14 0 0 -15 0 -15 -15 0 -15 0 0 -15 0 -15 15 0 15 0 0 -10 0
-10 -15 0 -15 0 0 -15 0 -15 -10 0 -10 0 0 15 0 15 -15 0 -15 0 0 10 0 10 15
0 15 0 0 15 0 15 -15 0 -15 0 0 15 0 15 -14 0 -14 0 -6 13 -6 12 -6 -12 -6
-13 -14 0 -14 0 0 10 0 10 -15 0 -15 0 0 -10z m80 -25 l0 -15 15 0 15 0 0 -15
0 -15 -15 0 -15 0 0 15 0 15 -10 0 -10 0 0 -11 0 -10 14 -15 15 -14 10 0 11 0
0 -15 0 -15 15 0 15 0 0 -15 0 -15 -15 0 -15 0 0 -10 0 -10 15 0 15 0 0 -15 0
-15 10 0 10 0 0 15 0 15 15 0 15 0 0 10 0 10 -15 0 -15 0 0 15 0 15 15 0 15 0
0 15 0 15 15 0 15 0 0 -15 0 -15 10 0 10 0 0 15 0 15 15 0 15 0 0 -15 0 -15
15 0 15 0 0 -15 0 -15 -15 0 -15 0 0 -10 0 -10 15 0 15 0 0 -15 0 -15 10 0 10
0 0 15 0 15 15 0 15 0 0 10 0 10 -15 0 -15 0 0 15 0 15 15 0 15 0 0 15 0 15
15 0 15 0 0 -15 0 -15 10 0 10 0 0 15 0 15 15 0 15 0 0 -15 0 -15 15 0 15 0 0
-15 0 -15 -15 0 -15 0 0 -10 0 -10 15 0 15 0 0 -15 0 -15 10 0 10 0 0 15 0 15
15 0 15 0 0 10 0 10 -15 0 -15 0 0 15 0 15 15 0 15 0 0 15 0 15 15 0 15 0 0
-15 0 -15 10 0 10 0 0 15 0 15 15 0 15 0 0 -15 0 -15 15 0 15 0 0 -15 0 -15
-15 0 -15 0 0 -10 0 -10 15 0 15 0 0 -15 0 -15 10 0 10 0 0 15 0 15 15 0 15 0
0 -15 0 -15 15 0 15 0 0 -15 0 -15 -15 0 -15 0 0 -10 0 -10 15 0 15 0 0 -15 0
-15 -15 0 -15 0 0 -15 0 -15 -15 0 -15 0 0 15 0 15 -10 0 -10 0 0 -15 0 -15
-15 0 -15 0 0 -10 0 -10 15 0 15 0 0 -15 0 -15 10 0 10 0 0 15 0 15 15 0 15 0
0 -15 0 -15 15 0 15 0 0 -15 0 -15 -15 0 -15 0 0 -10 0 -10 15 0 15 0 0 -15 0
-15 -15 0 -15 0 0 -15 0 -15 -15 0 -15 0 0 15 0 15 -10 0 -10 0 0 -15 0 -15
-15 0 -15 0 0 15 0 15 -15 0 -15 0 0 15 0 15 15 0 15 0 0 10 0 10 -15 0 -15 0
0 15 0 15 -10 0 -10 0 0 -15 0 -15 -15 0 -15 0 0 -10 0 -10 15 0 15 0 0 -15 0
-15 -15 0 -15 0 0 -15 0 -15 -15 0 -15 0 0 15 0 15 -10 0 -10 0 0 -15 0 -15
-15 0 -15 0 0 15 0 15 -15 0 -15 0 0 15 0 15 15 0 15 0 0 10 0 10 -15 0 -15 0
0 15 0 15 -10 0 -10 0 0 -15 0 -15 -15 0 -15 0 0 -10 0 -10 15 0 15 0 0 -15 0
-15 -15 0 -15 0 0 -15 0 -15 -15 0 -15 0 0 15 0 15 -10 0 -10 0 0 -15 0 -15
-15 0 -15 0 0 15 0 15 -15 0 -15 0 0 15 0 15 15 0 15 0 0 10 0 10 -15 0 -15 0
0 15 0 15 -10 0 -10 0 0 -15 0 -15 -15 0 -15 0 0 -10 0 -10 15 0 15 0 0 -15 0
-15 -15 0 -15 0 0 -15 0 -15 -15 0 -15 0 0 15 0 15 -10 0 -10 0 0 -15 0 -15
-15 0 -15 0 0 15 0 15 -15 0 -15 0 0 15 0 15 15 0 15 0 0 10 0 10 -15 0 -15 0
0 15 0 15 -10 0 -10 0 0 -15 0 -15 -15 0 -15 0 0 15 0 15 15 0 15 0 0 11 0 10
14 15 15 14 10 0 11 0 0 15 0 15 -15 0 -15 0 0 14 0 14 -12 6 -13 6 13 6 12 6
0 14 0 14 15 0 15 0 0 15 0 15 -15 0 -15 0 0 10 0 10 15 0 15 0 0 15 0 15 -15
0 -15 0 0 11 0 10 -14 15 -15 14 -10 0 -11 0 0 15 0 15 15 0 15 0 0 15 0 15
10 0 10 0 0 -15z m160 0 l0 -15 15 0 15 0 0 -15 0 -15 -14 0 -14 0 -6 -12 -6
-13 -6 13 -6 12 -14 0 -14 0 0 15 0 15 15 0 15 0 0 15 0 15 10 0 10 0 0 -15z
m160 0 l0 -15 15 0 15 0 0 -15 0 -15 -14 0 -14 0 -6 -12 -6 -13 -6 13 -6 12
-14 0 -14 0 0 15 0 15 15 0 15 0 0 15 0 15 10 0 10 0 0 -15z m160 0 l0 -15 15
0 15 0 0 -15 0 -15 -14 0 -14 0 -6 -12 -6 -13 -6 13 -6 12 -14 0 -14 0 0 15 0
15 15 0 15 0 0 15 0 15 10 0 10 0 0 -15z m160 0 l0 -15 15 0 15 0 0 -15 0 -15
15 0 15 0 0 -10 0 -10 -15 0 -15 0 0 -15 0 -15 -15 0 -15 0 0 15 0 15 15 0 15
0 0 10 0 10 -15 0 -15 0 0 15 0 15 -10 0 -10 0 0 -15 0 -15 -15 0 -15 0 0 15
0 15 15 0 15 0 0 15 0 15 10 0 10 0 0 -15z m0 -55 l0 -10 -10 0 -10 0 0 -15 0
-15 -15 0 -15 0 0 -15 0 -15 -14 0 -14 0 -5 -12 -4 -13 -9 9 -9 9 13 4 12 5 0
14 0 14 15 0 15 0 0 15 0 15 15 0 15 0 0 10 0 10 10 0 10 0 0 -10z m-560 -80
l0 -10 -10 0 -10 0 0 10 0 10 10 0 10 0 0 -10z m160 0 l0 -10 -10 0 -10 0 0
10 0 10 10 0 10 0 0 -10z m160 0 l0 -10 -10 0 -10 0 0 10 0 10 10 0 10 0 0
-10z m270 -55 l0 -15 15 0 15 0 0 -10 0 -10 -15 0 -15 0 0 -15 0 -15 -15 0
-15 0 0 14 0 14 -12 6 -13 6 13 6 12 6 0 14 0 14 15 0 15 0 0 -15z m-110 -105
l0 -10 -10 0 -10 0 0 10 0 10 10 0 10 0 0 -10z m110 -55 l0 -15 15 0 15 0 0
-10 0 -10 -15 0 -15 0 0 -15 0 -15 -15 0 -15 0 0 14 0 14 -12 6 -13 6 13 6 12
6 0 14 0 14 15 0 15 0 0 -15z m-670 -25 l0 -10 -10 0 -10 0 0 -15 0 -15 -15 0
-15 0 0 -15 0 -15 -15 0 -15 0 0 15 0 15 15 0 15 0 0 15 0 15 15 0 15 0 0 10
0 10 10 0 10 0 0 -10z m160 0 l0 -10 -10 0 -10 0 0 10 0 10 10 0 10 0 0 -10z
m160 0 l0 -10 -10 0 -10 0 0 10 0 10 10 0 10 0 0 -10z m160 0 l0 -10 -10 0
-10 0 0 10 0 10 10 0 10 0 0 -10z m-580 -51 l0 -10 14 -15 15 -14 10 0 11 0 0
-15 0 -15 -15 0 -15 0 0 11 0 10 -14 15 -15 14 -10 0 -11 0 0 15 0 15 15 0 15
0 0 -11z m180 -29 l0 -10 15 0 15 0 0 -15 0 -15 -15 0 -15 0 0 15 0 15 -10 0
-10 0 0 -15 0 -15 -15 0 -15 0 0 15 0 15 15 0 15 0 0 10 0 10 10 0 10 0 0 -10z
m160 0 l0 -10 15 0 15 0 0 -15 0 -15 -15 0 -15 0 0 15 0 15 -10 0 -10 0 0 -15
0 -15 -15 0 -15 0 0 15 0 15 15 0 15 0 0 10 0 10 10 0 10 0 0 -10z m160 0 l0
-10 15 0 15 0 0 -15 0 -15 -15 0 -15 0 0 15 0 15 -10 0 -10 0 0 -15 0 -15 -15
0 -15 0 0 15 0 15 15 0 15 0 0 10 0 10 10 0 10 0 0 -10z m160 0 l0 -10 15 0
15 0 0 -15 0 -15 -15 0 -15 0 0 15 0 15 -10 0 -10 0 0 -15 0 -15 -15 0 -15 0
0 15 0 15 15 0 15 0 0 10 0 10 10 0 10 0 0 -10z m-660 -25 l0 -15 -15 0 -15 0
0 15 0 15 15 0 15 0 0 -15z"/>
<path d="M560 705 l0 -15 15 0 15 0 0 15 0 15 -15 0 -15 0 0 -15z"/>
<path d="M610 709 l0 -10 -14 -15 -15 -14 -10 0 -11 0 0 -15 0 -15 -15 0 -15
0 0 -15 0 -15 15 0 15 0 0 -10 0 -10 -15 0 -15 0 0 -15 0 -15 -10 0 -10 0 0
15 0 15 -15 0 -15 0 0 10 0 10 15 0 15 0 0 15 0 15 -15 0 -15 0 0 -15 0 -15
-15 0 -15 0 0 -10 0 -10 15 0 15 0 0 -15 0 -15 15 0 15 0 0 -15 0 -15 -15 0
-15 0 0 -10 0 -10 -15 0 -15 0 0 -15 0 -15 15 0 15 0 0 -15 0 -15 15 0 15 0 0
15 0 15 10 0 10 0 0 -15 0 -15 15 0 15 0 0 15 0 15 15 0 15 0 0 15 0 15 -15 0
-15 0 0 10 0 10 15 0 15 0 0 15 0 15 10 0 10 0 0 -15 0 -15 15 0 15 0 0 -10 0
-10 -15 0 -15 0 0 -15 0 -15 15 0 15 0 0 -15 0 -15 15 0 15 0 0 15 0 15 10 0
10 0 0 -15 0 -15 15 0 15 0 0 15 0 15 15 0 15 0 0 15 0 15 -15 0 -15 0 0 10 0
10 15 0 15 0 0 15 0 15 10 0 10 0 0 -15 0 -15 15 0 15 0 0 -10 0 -10 -15 0
-15 0 0 -15 0 -15 15 0 15 0 0 -15 0 -15 15 0 15 0 0 15 0 15 10 0 10 0 0 -15
0 -15 15 0 15 0 0 15 0 15 15 0 15 0 0 15 0 15 -15 0 -15 0 0 10 0 10 15 0 15
0 0 15 0 15 10 0 10 0 0 -15 0 -15 15 0 15 0 0 15 0 15 15 0 15 0 0 15 0 15
-15 0 -15 0 0 10 0 10 15 0 15 0 0 15 0 15 -15 0 -15 0 0 15 0 15 -15 0 -15 0
0 -15 0 -15 -10 0 -10 0 0 15 0 15 -15 0 -15 0 0 -15 0 -15 -15 0 -15 0 0 -15
0 -15 15 0 15 0 0 -10 0 -10 -15 0 -15 0 0 -15 0 -15 -10 0 -10 0 0 15 0 15
-15 0 -15 0 0 10 0 10 15 0 15 0 0 15 0 15 -15 0 -15 0 0 15 0 15 -15 0 -15 0
0 -15 0 -15 -10 0 -10 0 0 15 0 15 -15 0 -15 0 0 -15 0 -15 -15 0 -15 0 0 -15
0 -15 15 0 15 0 0 -10 0 -10 -15 0 -15 0 0 -15 0 -15 -10 0 -10 0 0 15 0 15
-15 0 -15 0 0 10 0 10 15 0 15 0 0 15 0 15 -15 0 -15 0 0 15 0 15 -15 0 -15 0
0 -15 0 -15 -10 0 -10 0 0 11 0 10 14 15 15 14 10 0 11 0 0 15 0 15 -15 0 -15
0 0 -11z m-20 -84 l0 -15 -15 0 -15 0 0 15 0 15 15 0 15 0 0 -15z m50 0 l0
-15 -11 0 -10 0 -15 -14 -14 -15 0 -10 0 -11 -15 0 -15 0 0 -15 0 -15 -11 0
-10 0 -15 -14 -14 -15 0 -10 0 -11 -15 0 -15 0 0 15 0 15 11 0 10 0 15 14 14
15 0 10 0 11 15 0 15 0 0 15 0 15 11 0 10 0 15 14 14 15 0 10 0 11 15 0 15 0
0 -15z m110 0 l0 -15 -15 0 -15 0 0 15 0 15 15 0 15 0 0 -15z m50 0 l0 -15
-11 0 -10 0 -15 -14 -14 -15 0 -10 0 -11 -15 0 -15 0 0 -15 0 -15 -15 0 -15 0
0 15 0 15 15 0 15 0 0 15 0 15 11 0 10 0 15 14 14 15 0 10 0 11 15 0 15 0 0
-15z m110 0 l0 -15 -15 0 -15 0 0 15 0 15 15 0 15 0 0 -15z m50 0 l0 -15 -11
0 -10 0 -15 -14 -14 -15 0 -10 0 -11 -15 0 -15 0 0 -15 0 -15 -15 0 -15 0 0
15 0 15 15 0 15 0 0 15 0 15 11 0 10 0 15 14 14 15 0 10 0 11 15 0 15 0 0 -15z
m-320 -50 l0 -15 15 0 15 0 0 -11 0 -10 14 -15 15 -14 10 0 11 0 0 -15 0 -15
-15 0 -15 0 0 11 0 10 -14 15 -15 14 -10 0 -11 0 0 15 0 15 -15 0 -15 0 0 15
0 15 15 0 15 0 0 -15z m160 0 l0 -15 15 0 15 0 0 -11 0 -10 14 -15 15 -14 10
0 11 0 0 -15 0 -15 -15 0 -15 0 0 11 0 10 -14 15 -15 14 -10 0 -11 0 0 15 0
15 -15 0 -15 0 0 15 0 15 15 0 15 0 0 -15z m160 0 l0 -15 -15 0 -15 0 0 15 0
15 15 0 15 0 0 -15z m-400 -80 l0 -15 -15 0 -15 0 0 15 0 15 15 0 15 0 0 -15z
m110 0 l0 -15 -15 0 -15 0 0 15 0 15 15 0 15 0 0 -15z m160 0 l0 -15 -15 0
-15 0 0 15 0 15 15 0 15 0 0 -15z"/>
<path d="M720 705 l0 -15 14 0 14 0 6 -12 6 -13 6 13 6 12 14 0 14 0 0 15 0
15 -15 0 -15 0 0 -15 0 -15 -10 0 -10 0 0 15 0 15 -15 0 -15 0 0 -15z"/>
<path d="M880 705 l0 -15 14 0 14 0 6 -12 6 -13 6 13 6 12 14 0 14 0 0 15 0
15 -15 0 -15 0 0 -15 0 -15 -10 0 -10 0 0 15 0 15 -15 0 -15 0 0 -15z"/>
<path d="M1010 626 l0 -14 -12 -6 -13 -6 13 -6 12 -6 0 -14 0 -14 15 0 15 0 0
15 0 15 -15 0 -15 0 0 10 0 10 15 0 15 0 0 15 0 15 -15 0 -15 0 0 -14z"/>
<path d="M510 600 l0 -10 10 0 10 0 0 10 0 10 -10 0 -10 0 0 -10z"/>
<path d="M670 600 l0 -10 10 0 10 0 0 10 0 10 -10 0 -10 0 0 -10z"/>
<path d="M830 600 l0 -10 10 0 10 0 0 10 0 10 -10 0 -10 0 0 -10z"/>
<path d="M590 520 l0 -10 10 0 10 0 0 10 0 10 -10 0 -10 0 0 -10z"/>
<path d="M750 520 l0 -10 10 0 10 0 0 10 0 10 -10 0 -10 0 0 -10z"/>
<path d="M910 520 l0 -10 10 0 10 0 0 -15 0 -15 15 0 15 0 0 -15 0 -15 15 0
15 0 0 15 0 15 -15 0 -15 0 0 15 0 15 -15 0 -15 0 0 10 0 10 -10 0 -10 0 0
-10z"/>
<path d="M1010 469 l0 -10 -14 -15 -15 -14 -10 0 -11 0 0 -15 0 -15 15 0 15 0
0 11 0 10 14 15 15 14 10 0 11 0 0 15 0 15 -15 0 -15 0 0 -11z"/>
<path d="M510 440 l0 -10 -15 0 -15 0 0 -15 0 -15 15 0 15 0 0 15 0 15 10 0
10 0 0 -15 0 -15 15 0 15 0 0 15 0 15 -15 0 -15 0 0 10 0 10 -10 0 -10 0 0
-10z"/>
<path d="M670 440 l0 -10 -15 0 -15 0 0 -15 0 -15 15 0 15 0 0 15 0 15 10 0
10 0 0 -15 0 -15 15 0 15 0 0 15 0 15 -15 0 -15 0 0 10 0 10 -10 0 -10 0 0
-10z"/>
<path d="M830 440 l0 -10 -15 0 -15 0 0 -15 0 -15 15 0 15 0 0 15 0 15 10 0
10 0 0 -15 0 -15 15 0 15 0 0 15 0 15 -15 0 -15 0 0 10 0 10 -10 0 -10 0 0
-10z"/>
<path d="M1010 415 l0 -15 15 0 15 0 0 15 0 15 -15 0 -15 0 0 -15z"/>
<path d="M590 785 l0 -15 10 0 10 0 0 15 0 15 -10 0 -10 0 0 -15z"/>
<path d="M750 785 l0 -15 10 0 10 0 0 15 0 15 -10 0 -10 0 0 -15z"/>
<path d="M910 785 l0 -15 10 0 10 0 0 15 0 15 -10 0 -10 0 0 -15z"/>
<path d="M1090 600 l0 -10 15 0 15 0 0 10 0 10 -15 0 -15 0 0 -10z"/>
<path d="M1090 440 l0 -10 15 0 15 0 0 10 0 10 -15 0 -15 0 0 -10z"/>
<path d="M510 760 l0 -10 10 0 10 0 0 10 0 10 -10 0 -10 0 0 -10z"/>
<path d="M670 760 l0 -10 10 0 10 0 0 10 0 10 -10 0 -10 0 0 -10z"/>
<path d="M830 760 l0 -10 10 0 10 0 0 10 0 10 -10 0 -10 0 0 -10z"/>
<path d="M990 760 l0 -10 10 0 10 0 0 10 0 10 -10 0 -10 0 0 -10z"/>
<path d="M1070 680 l0 -10 10 0 10 0 0 10 0 10 -10 0 -10 0 0 -10z"/>
<path d="M1070 520 l0 -10 10 0 10 0 0 10 0 10 -10 0 -10 0 0 -10z"/>
<path d="M190 495 l0 -15 -15 0 -15 0 0 -15 0 -15 15 0 15 0 0 15 0 15 10 0
10 0 0 -15 0 -15 15 0 15 0 0 15 0 15 -15 0 -15 0 0 15 0 15 -10 0 -10 0 0
-15z"/>
<path d="M320 465 l0 -15 14 0 14 0 5 -12 4 -13 9 9 9 9 -12 4 -13 5 0 14 0
14 -15 0 -15 0 0 -15z"/>
<path d="M190 440 l0 -10 -15 0 -15 0 0 -15 0 -15 -15 0 -15 0 0 -14 0 -14
-12 -6 -13 -6 13 -6 12 -6 0 -14 0 -14 15 0 15 0 0 -15 0 -15 15 0 15 0 0 15
0 15 10 0 10 0 0 -15 0 -15 15 0 15 0 0 15 0 15 15 0 15 0 0 14 0 14 13 6 12
6 -12 6 -13 6 0 14 0 14 -15 0 -15 0 0 15 0 15 -15 0 -15 0 0 10 0 10 -10 0
-10 0 0 -10z m20 -25 l0 -15 15 0 15 0 0 -15 0 -15 15 0 15 0 0 -10 0 -10 -15
0 -15 0 0 -15 0 -15 -15 0 -15 0 0 15 0 15 15 0 15 0 0 10 0 10 -15 0 -15 0 0
15 0 15 -10 0 -10 0 0 -15 0 -15 -15 0 -15 0 0 -10 0 -10 15 0 15 0 0 -15 0
-15 -15 0 -15 0 0 15 0 15 -15 0 -15 0 0 10 0 10 15 0 15 0 0 15 0 15 15 0 15
0 0 15 0 15 10 0 10 0 0 -15z m0 -55 l0 -10 -10 0 -10 0 0 10 0 10 10 0 10 0
0 -10z"/>
<path d="M430 360 l0 -10 10 0 10 0 0 10 0 10 -10 0 -10 0 0 -10z"/>
<path d="M590 360 l0 -10 10 0 10 0 0 10 0 10 -10 0 -10 0 0 -10z"/>
<path d="M750 360 l0 -10 10 0 10 0 0 10 0 10 -10 0 -10 0 0 -10z"/>
<path d="M910 360 l0 -10 10 0 10 0 0 10 0 10 -10 0 -10 0 0 -10z"/>
<path d="M1070 360 l0 -10 10 0 10 0 0 -15 0 -15 15 0 15 0 0 -15 0 -15 15 0
15 0 0 -10 0 -10 -15 0 -15 0 0 -15 0 -15 15 0 15 0 0 -15 0 -15 10 0 10 0 0
15 0 15 -10 0 -10 0 0 14 0 14 13 6 12 6 -12 6 -13 6 0 14 0 14 -15 0 -15 0 0
15 0 15 -15 0 -15 0 0 10 0 10 -10 0 -10 0 0 -10z"/>
<path d="M190 280 l0 -10 -15 0 -15 0 0 -15 0 -15 15 0 15 0 0 -15 0 -15 10 0
10 0 0 15 0 15 15 0 15 0 0 15 0 15 -15 0 -15 0 0 10 0 10 -10 0 -10 0 0 -10z
m20 -25 l0 -15 -10 0 -10 0 0 15 0 15 10 0 10 0 0 -15z"/>
<path d="M350 280 l0 -10 -15 0 -15 0 0 -15 0 -15 15 0 15 0 0 -15 0 -15 10 0
10 0 0 15 0 15 15 0 15 0 0 15 0 15 -15 0 -15 0 0 10 0 10 -10 0 -10 0 0 -10z
m20 -25 l0 -15 -10 0 -10 0 0 15 0 15 10 0 10 0 0 -15z"/>
<path d="M510 280 l0 -10 -15 0 -15 0 0 -15 0 -15 15 0 15 0 0 -15 0 -15 10 0
10 0 0 15 0 15 15 0 15 0 0 15 0 15 -15 0 -15 0 0 10 0 10 -10 0 -10 0 0 -10z
m20 -25 l0 -15 -10 0 -10 0 0 15 0 15 10 0 10 0 0 -15z"/>
<path d="M670 280 l0 -10 -15 0 -15 0 0 -15 0 -15 15 0 15 0 0 -15 0 -15 10 0
10 0 0 15 0 15 15 0 15 0 0 15 0 15 -15 0 -15 0 0 10 0 10 -10 0 -10 0 0 -10z
m20 -25 l0 -15 -10 0 -10 0 0 15 0 15 10 0 10 0 0 -15z"/>
<path d="M830 280 l0 -10 -15 0 -15 0 0 -15 0 -15 15 0 15 0 0 -15 0 -15 10 0
10 0 0 15 0 15 15 0 15 0 0 15 0 15 -15 0 -15 0 0 10 0 10 -10 0 -10 0 0 -10z
m20 -25 l0 -15 -10 0 -10 0 0 15 0 15 10 0 10 0 0 -15z"/>
<path d="M990 280 l0 -10 -15 0 -15 0 0 -15 0 -15 15 0 15 0 0 -15 0 -15 10 0
10 0 0 15 0 15 15 0 15 0 0 15 0 15 -15 0 -15 0 0 10 0 10 -10 0 -10 0 0 -10z
m20 -25 l0 -15 -10 0 -10 0 0 15 0 15 10 0 10 0 0 -15z"/>
<path d="M270 855 l0 -25 10 0 10 0 0 25 0 25 -10 0 -10 0 0 -25z"/>
<path d="M110 680 l0 -10 10 0 10 0 0 10 0 10 -10 0 -10 0 0 -10z"/>
<path d="M270 520 l0 -10 10 0 10 0 0 10 0 10 -10 0 -10 0 0 -10z"/>
<path d="M110 200 l0 -10 10 0 10 0 0 10 0 10 -10 0 -10 0 0 -10z"/>
<path d="M270 200 l0 -10 10 0 10 0 0 10 0 10 -10 0 -10 0 0 -10z"/>
<path d="M430 200 l0 -10 10 0 10 0 0 10 0 10 -10 0 -10 0 0 -10z"/>
<path d="M590 200 l0 -10 10 0 10 0 0 10 0 10 -10 0 -10 0 0 -10z"/>
<path d="M750 200 l0 -10 10 0 10 0 0 10 0 10 -10 0 -10 0 0 -10z"/>
<path d="M910 200 l0 -10 10 0 10 0 0 10 0 10 -10 0 -10 0 0 -10z"/>
<path d="M1070 200 l0 -10 10 0 10 0 0 10 0 10 -10 0 -10 0 0 -10z"/>
</g>
</svg>
