<?xml version="1.0" standalone="no"?>
<!DOCTYPE svg PUBLIC "-//W3C//DTD SVG 20010904//EN"
 "http://www.w3.org/TR/2001/REC-SVG-20010904/DTD/svg10.dtd">
<svg version="1.0" xmlns="http://www.w3.org/2000/svg"
 width="468pt" height="468pt" viewBox="0 0 468 468"
 preserveAspectRatio="xMidYMid meet">
<metadata>
Created by potrace 1.8, written by Peter Selinger 2001-2007
</metadata>
<g transform="translate(0,468) scale(0.365625,-0.365625)"
fill="#000000" stroke="none">
<path d="M260 1260 l0 -20 -35 0 -35 0 0 -20 0 -20 -20 0 -20 0 0 -15 0 -15
-20 0 -20 0 0 -60 0 -60 20 0 20 0 0 -15 0 -15 20 0 20 0 0 -40 0 -40 20 0 20
0 0 -55 0 -55 -20 0 -20 0 0 -40 0 -40 -20 0 -20 0 0 -35 0 -35 20 0 20 0 0
-40 0 -40 20 0 20 0 0 -20 0 -20 55 0 55 0 0 -15 0 -15 170 0 170 0 0 15 0 15
75 0 75 0 0 20 0 20 -115 0 -115 0 0 20 0 20 135 0 135 0 0 20 0 20 15 0 15 0
0 35 0 35 20 0 20 0 0 -35 0 -35 -20 0 -20 0 0 -20 0 -20 -15 0 -15 0 0 -20 0
-20 35 0 35 0 0 -20 0 -20 55 0 55 0 0 20 0 20 60 0 60 0 0 20 0 20 -75 0 -75
0 0 -20 0 -20 -20 0 -20 0 0 20 0 20 -20 0 -20 0 0 20 0 20 130 0 130 0 0 -20
0 -20 40 0 40 0 0 20 0 20 -40 0 -40 0 0 20 0 20 40 0 40 0 0 15 0 15 -40 0
-40 0 0 -15 0 -15 -55 0 -55 0 0 15 0 15 -20 0 -20 0 0 -15 0 -15 -35 0 -35 0
0 15 0 15 -20 0 -20 0 0 40 0 40 20 0 20 0 0 -40 0 -40 35 0 35 0 0 20 0 20
-15 0 -15 0 0 20 0 20 -20 0 -20 0 0 20 0 20 20 0 20 0 0 15 0 15 -20 0 -20 0
0 -15 0 -15 -20 0 -20 0 0 15 0 15 -20 0 -20 0 0 -15 0 -15 -35 0 -35 0 0 15
0 15 -135 0 -135 0 0 -15 0 -15 -35 0 -35 0 0 15 0 15 -20 0 -20 0 0 -15 0
-15 20 0 20 0 0 -20 0 -20 -40 0 -40 0 0 -55 0 -55 20 0 20 0 0 -20 0 -20 -20
0 -20 0 0 20 0 20 -15 0 -15 0 0 75 0 75 -20 0 -20 0 0 35 0 35 -20 0 -20 0 0
20 0 20 -20 0 -20 0 0 20 0 20 -15 0 -15 0 0 15 0 15 -20 0 -20 0 0 20 0 20
20 0 20 0 0 20 0 20 90 0 90 0 0 20 0 20 75 0 75 0 0 -20 0 -20 60 0 60 0 0
-20 0 -20 35 0 35 0 0 20 0 20 -35 0 -35 0 0 20 0 20 -60 0 -60 0 0 15 0 15
-35 0 -35 0 0 20 0 20 -40 0 -40 0 0 20 0 20 -75 0 -75 0 0 -20z m150 -40 l0
-20 -55 0 -55 0 0 20 0 20 55 0 55 0 0 -20z m530 -370 l0 -20 -20 0 -20 0 0
20 0 20 20 0 20 0 0 -20z m-450 -190 l0 -20 -20 0 -20 0 0 20 0 20 20 0 20 0
0 -20z"/>
<path d="M1050 850 l0 -20 40 0 40 0 0 20 0 20 -40 0 -40 0 0 -20z"/>
<path d="M1170 810 l0 -20 -40 0 -40 0 0 -20 0 -20 40 0 40 0 0 20 0 20 35 0
35 0 0 20 0 20 -35 0 -35 0 0 -20z"/>
<path d="M680 510 l0 -20 -20 0 -20 0 0 -40 0 -40 -20 0 -20 0 0 -35 0 -35
-35 0 -35 0 0 -20 0 -20 -20 0 -20 0 0 -20 0 -20 -20 0 -20 0 0 -15 0 -15 -20
0 -20 0 0 -40 0 -40 20 0 20 0 0 -20 0 -20 -20 0 -20 0 0 -15 0 -15 -15 0 -15
0 0 15 0 15 -20 0 -20 0 0 20 0 20 -20 0 -20 0 0 95 0 95 -20 0 -20 0 0 -40 0
-40 -15 0 -15 0 0 -75 0 -75 15 0 15 0 0 -15 0 -15 20 0 20 0 0 -20 0 -20 -55
0 -55 0 0 -20 0 -20 130 0 130 0 0 40 0 40 20 0 20 0 0 -20 0 -20 20 0 20 0 0
-20 0 -20 55 0 55 0 0 170 0 170 40 0 40 0 0 20 0 20 35 0 35 0 0 15 0 15 40
0 40 0 0 20 0 20 35 0 35 0 0 20 0 20 40 0 40 0 0 20 0 20 -75 0 -75 0 0 -20
0 -20 -20 0 -20 0 0 -20 0 -20 -20 0 -20 0 0 -20 0 -20 -35 0 -35 0 0 -15 0
-15 -20 0 -20 0 0 35 0 35 20 0 20 0 0 20 0 20 35 0 35 0 0 20 0 20 -55 0 -55
0 0 -20z m-80 -340 l0 -130 -20 0 -20 0 0 20 0 20 -15 0 -15 0 0 15 0 15 -20
0 -20 0 0 20 0 20 -20 0 -20 0 0 40 0 40 20 0 20 0 0 15 0 15 20 0 20 0 0 20
0 20 35 0 35 0 0 -130z"/>
<path d="M490 190 l0 -40 20 0 20 0 0 40 0 40 -20 0 -20 0 0 -40z"/>
<path d="M1020 395 l0 -15 15 0 15 0 0 -75 0 -75 -15 0 -15 0 0 -40 0 -40 -20
0 -20 0 0 -35 0 -35 -20 0 -20 0 0 -20 0 -20 -35 0 -35 0 0 55 0 55 -20 0 -20
0 0 -20 0 -20 -20 0 -20 0 0 -15 0 -15 -20 0 -20 0 0 -20 0 -20 -35 0 -35 0 0
-20 0 -20 35 0 35 0 0 20 0 20 20 0 20 0 0 20 0 20 20 0 20 0 0 -40 0 -40 75
0 75 0 0 40 0 40 20 0 20 0 0 35 0 35 15 0 15 0 0 40 0 40 20 0 20 0 0 -60 0
-60 -20 0 -20 0 0 -55 0 -55 20 0 20 0 0 55 0 55 20 0 20 0 0 95 0 95 -20 0
-20 0 0 40 0 40 -20 0 -20 0 0 15 0 15 -15 0 -15 0 0 -15z"/>
<path d="M1200 95 l0 -15 -15 0 -15 0 0 -20 0 -20 -20 0 -20 0 0 -20 0 -20 55
0 55 0 0 20 0 20 20 0 20 0 0 35 0 35 -40 0 -40 0 0 -15z"/>
</g>
</svg>
