<?xml version="1.0" standalone="no"?>
<!DOCTYPE svg PUBLIC "-//W3C//DTD SVG 20010904//EN"
 "http://www.w3.org/TR/2001/REC-SVG-20010904/DTD/svg10.dtd">
<svg version="1.0" xmlns="http://www.w3.org/2000/svg"
 width="468pt" height="468pt" viewBox="0 0 468 468"
 preserveAspectRatio="xMidYMid meet">
<metadata>
Created by potrace 1.8, written by Peter Selinger 2001-2007
</metadata>
<g transform="translate(0,468) scale(0.365625,-0.365625)"
fill="#000000" stroke="none">
<path d="M160 1240 l0 -40 -80 0 -80 0 0 -140 0 -140 80 0 80 0 0 -440 0 -440
20 0 20 0 0 -20 0 -20 480 0 480 0 0 500 0 500 -20 0 -20 0 0 20 0 20 -20 0
-20 0 0 20 0 20 -20 0 -20 0 0 20 0 20 -20 0 -20 0 0 20 0 20 -20 0 -20 0 0
20 0 20 -20 0 -20 0 0 20 0 20 -20 0 -20 0 0 20 0 20 -360 0 -360 0 0 -40z
m680 -140 l0 -140 120 0 120 0 0 -440 0 -440 -440 0 -440 0 0 420 0 420 180 0
180 0 0 -20 0 -20 20 0 20 0 0 20 0 20 100 0 100 0 0 140 0 140 -300 0 -300 0
0 20 0 20 320 0 320 0 0 -140z m80 80 l0 -20 20 0 20 0 0 -20 0 -20 20 0 20 0
0 -20 0 -20 20 0 20 0 0 -20 0 -20 20 0 20 0 0 -20 0 -20 -100 0 -100 0 0 100
0 100 20 0 20 0 0 -20z m-720 -40 l0 -20 20 0 20 0 0 -20 0 -20 -20 0 -20 0 0
-20 0 -20 -40 0 -40 0 0 -40 0 -40 -20 0 -20 0 0 100 0 100 60 0 60 0 0 -20z
m240 0 l0 -20 20 0 20 0 0 -60 0 -60 -20 0 -20 0 0 -20 0 -20 -60 0 -60 0 0
100 0 100 60 0 60 0 0 -20z m280 0 l0 -20 -60 0 -60 0 0 -20 0 -20 40 0 40 0
0 -20 0 -20 -40 0 -40 0 0 -40 0 -40 -20 0 -20 0 0 100 0 100 80 0 80 0 0 -20z"/>
<path d="M520 800 l0 -80 20 0 20 0 0 -80 0 -80 -20 0 -20 0 0 -40 0 -40 -20
0 -20 0 0 -60 0 -60 -20 0 -20 0 0 -20 0 -20 -20 0 -20 0 0 20 0 20 -20 0 -20
0 0 -20 0 -20 20 0 20 0 0 -20 0 -20 -40 0 -40 0 0 -20 0 -20 -20 0 -20 0 0
-60 0 -60 60 0 60 0 0 20 0 20 20 0 20 0 0 40 0 40 20 0 20 0 0 40 0 40 20 0
20 0 0 20 0 20 60 0 60 0 0 20 0 20 40 0 40 0 0 20 0 20 80 0 80 0 0 -20 0
-20 60 0 60 0 0 20 0 20 20 0 20 0 0 20 0 20 -20 0 -20 0 0 20 0 20 -120 0
-120 0 0 20 0 20 -20 0 -20 0 0 20 0 20 -20 0 -20 0 0 20 0 20 -20 0 -20 0 0
80 0 80 20 0 20 0 0 20 0 20 -20 0 -20 0 0 20 0 20 -20 0 -20 0 0 -60 0 -60
-20 0 -20 0 0 60 0 60 -20 0 -20 0 0 -80z m120 -220 l0 -20 20 0 20 0 0 -20 0
-20 40 0 40 0 0 -20 0 -20 -40 0 -40 0 0 -20 0 -20 -40 0 -40 0 0 -20 0 -20
-20 0 -20 0 0 60 0 60 20 0 20 0 0 40 0 40 20 0 20 0 0 -20z m360 -120 l0 -20
-60 0 -60 0 0 20 0 20 60 0 60 0 0 -20z m-600 -260 l0 -40 -40 0 -40 0 0 20 0
20 20 0 20 0 0 20 0 20 20 0 20 0 0 -40z"/>
<path d="M440 780 l0 -20 20 0 20 0 0 20 0 20 -20 0 -20 0 0 -20z"/>
<path d="M760 780 l0 -20 20 0 20 0 0 20 0 20 -20 0 -20 0 0 -20z"/>
<path d="M360 700 l0 -20 20 0 20 0 0 20 0 20 -20 0 -20 0 0 -20z"/>
<path d="M840 700 l0 -20 20 0 20 0 0 20 0 20 -20 0 -20 0 0 -20z"/>
<path d="M320 580 l0 -20 20 0 20 0 0 20 0 20 -20 0 -20 0 0 -20z"/>
<path d="M880 580 l0 -20 20 0 20 0 0 20 0 20 -20 0 -20 0 0 -20z"/>
<path d="M320 460 l0 -20 20 0 20 0 0 20 0 20 -20 0 -20 0 0 -20z"/>
<path d="M840 340 l0 -20 20 0 20 0 0 20 0 20 -20 0 -20 0 0 -20z"/>
<path d="M760 260 l0 -20 20 0 20 0 0 20 0 20 -20 0 -20 0 0 -20z"/>
<path d="M520 220 l0 -20 20 0 20 0 0 20 0 20 -20 0 -20 0 0 -20z"/>
<path d="M640 220 l0 -20 20 0 20 0 0 20 0 20 -20 0 -20 0 0 -20z"/>
<path d="M120 1100 l0 -20 40 0 40 0 0 20 0 20 -40 0 -40 0 0 -20z"/>
<path d="M360 1060 l0 -60 40 0 40 0 0 60 0 60 -40 0 -40 0 0 -60z"/>
</g>
</svg>
