<?xml version="1.0" standalone="no"?>
<!DOCTYPE svg PUBLIC "-//W3C//DTD SVG 20010904//EN"
 "http://www.w3.org/TR/2001/REC-SVG-20010904/DTD/svg10.dtd">
<svg version="1.0" xmlns="http://www.w3.org/2000/svg"
 width="468pt" height="468pt" viewBox="0 0 468 468"
 preserveAspectRatio="xMidYMid meet">
<metadata>
Created by potrace 1.8, written by Peter Selinger 2001-2007
</metadata>
<g transform="translate(0,468) scale(0.365625,-0.365625)"
fill="#000000" stroke="none">
<path d="M220 1270 l0 -10 -20 0 -20 0 0 -10 0 -10 -25 0 -26 0 -24 -25 -25
-24 0 -16 0 -15 -10 0 -10 0 0 -68 0 -68 20 -14 20 -14 0 -16 0 -16 20 -14 20
-14 0 -8 0 -8 -30 0 -30 0 0 -16 0 -16 -30 -28 -30 -28 0 -56 0 -56 -10 0 -10
0 0 -110 0 -110 10 0 10 0 0 -20 0 -20 10 0 10 0 0 -30 0 -30 10 0 10 0 0 -20
0 -20 10 0 10 0 0 -20 0 -20 16 0 16 0 38 -40 38 -40 6 0 6 0 0 20 0 20 -15 0
-16 0 -44 45 -45 44 0 16 0 15 -10 0 -10 0 0 30 0 30 -10 0 -10 0 0 20 0 20
-10 0 -10 0 0 108 0 108 20 14 20 14 0 18 0 18 -10 0 -10 0 0 25 0 26 35 34
34 35 22 0 21 0 28 30 28 30 15 0 15 0 5 13 5 12 11 -15 10 -14 7 6 6 7 -15
16 -16 15 -13 0 -14 0 -14 20 -14 20 -8 0 -8 0 0 -20 0 -20 20 0 20 0 0 -6 0
-5 -14 -15 -15 -14 -5 0 -6 0 0 20 0 20 -9 0 -9 0 -5 -12 -4 -13 -9 9 -9 9 13
4 12 5 0 19 0 19 10 0 10 0 0 19 0 19 -12 6 -13 6 13 6 12 6 0 19 0 19 30 0
30 0 0 -20 0 -20 10 0 10 0 0 10 0 10 10 0 10 0 0 -20 0 -20 10 0 10 0 0 10 0
10 20 0 20 0 0 -20 0 -20 26 0 25 0 16 15 15 16 -23 19 -22 20 6 6 6 7 32 -34
32 -34 4 13 5 12 119 0 119 0 0 -10 0 -10 20 0 20 0 0 -10 0 -10 16 0 16 0 31
-32 30 -33 4 13 5 12 29 0 29 0 0 -10 0 -10 -20 0 -20 0 0 -10 0 -10 19 0 19
0 5 -12 5 -13 11 15 10 14 22 -24 22 -25 4 13 5 12 9 0 9 0 0 -70 0 -70 20 0
20 0 0 -9 0 -9 -12 -6 -13 -6 13 -6 12 -6 0 -19 0 -19 20 0 20 0 0 -10 0 -10
-20 0 -20 0 0 10 0 10 -40 0 -40 0 0 10 0 10 -20 0 -20 0 0 9 0 9 13 6 12 6
-12 6 -13 6 0 14 0 14 -55 55 -55 55 -45 0 -45 0 0 10 0 10 -10 0 -10 0 0 -20
0 -20 -10 0 -10 0 0 -18 0 -18 -20 -14 -20 -14 0 -58 0 -58 10 0 10 0 0 -28 0
-28 20 -14 20 -14 0 -18 0 -18 10 0 10 0 0 -50 0 -50 -10 0 -10 0 0 -19 0 -19
-12 -4 -13 -5 18 -18 19 -18 8 14 9 13 8 -7 7 -8 -13 -9 -14 -8 26 -26 26 -26
26 0 25 0 0 -10 0 -10 20 0 20 0 0 -10 0 -10 30 0 30 0 0 10 0 10 16 0 17 0
18 22 19 21 8 -8 7 -8 -12 -4 -13 -5 0 -19 0 -19 6 0 5 0 15 14 14 15 0 14 0
15 13 6 12 6 -12 6 -13 6 0 9 0 9 20 0 20 0 0 100 0 100 -10 0 -10 0 0 30 0
30 15 0 16 0 24 25 25 24 0 13 0 14 20 14 20 14 0 17 0 17 -12 6 -13 6 13 6
12 6 0 25 0 25 -30 28 -30 28 0 24 0 24 -20 14 -20 14 0 18 0 18 -20 0 -20 0
0 -6 0 -6 31 -29 32 -30 -8 -7 -8 -7 -4 13 -5 12 -19 0 -19 0 0 10 0 10 -60 0
-60 0 0 10 0 10 50 0 50 0 0 6 0 5 -17 17 -16 17 -5 -13 -4 -12 -35 0 -35 0
-29 -31 -29 -31 -29 31 -29 31 -14 0 -14 0 -14 20 -14 20 -136 0 -136 0 -14
20 -14 20 -18 0 -18 0 0 9 0 9 12 4 13 5 -17 16 -17 17 -15 0 -16 0 0 10 0 10
-18 0 -18 0 -14 20 -14 20 -28 0 -28 0 0 -10z m40 -20 l0 -10 -10 0 -10 0 0
10 0 10 10 0 10 0 0 -10z m60 -40 l0 -10 -10 0 -10 0 0 10 0 10 10 0 10 0 0
-10z m-160 -60 l0 -10 -10 0 -10 0 0 10 0 10 10 0 10 0 0 -10z m-60 -120 l0
-10 -10 0 -10 0 0 10 0 10 10 0 10 0 0 -10z m940 -100 l0 -10 -10 0 -10 0 0
10 0 10 10 0 10 0 0 -10z m60 0 l0 -10 -10 0 -10 0 0 10 0 10 10 0 10 0 0 -10z
m-56 -42 l6 -13 6 13 6 12 9 0 9 0 0 -20 0 -20 -20 0 -20 0 0 -10 0 -10 -10 0
-10 0 0 30 0 30 9 0 9 0 6 -12z m76 -47 l0 -19 13 -5 12 -4 -7 -8 -7 -7 -16
15 -15 16 0 15 0 16 10 0 10 0 0 -19z m-260 -70 l0 -9 -12 -4 -13 -5 18 -18
19 -18 8 14 9 13 8 -7 7 -8 -14 -10 -15 -11 13 -5 12 -5 0 -45 0 -44 -15 -15
-15 -15 -25 25 -25 25 0 25 0 24 -12 5 -13 5 15 12 15 12 -12 5 -13 5 0 19 0
19 20 0 20 0 0 10 0 10 10 0 10 0 0 -9z m100 -51 l0 -20 -10 0 -10 0 0 20 0
20 10 0 10 0 0 -20z m60 -20 l0 -20 -10 0 -10 0 0 20 0 20 10 0 10 0 0 -20z
m-120 -330 l0 -10 -10 0 -10 0 0 10 0 10 10 0 10 0 0 -10z"/>
<path d="M191 1104 l-13 -15 6 -6 5 -5 16 15 15 16 0 5 0 6 -7 0 -8 -1 -14
-15z"/>
<path d="M220 1070 l0 -10 20 0 20 0 0 10 0 10 -20 0 -20 0 0 -10z"/>
<path d="M350 940 l-14 -20 -14 0 -13 0 -24 -25 -25 -24 0 -16 0 -15 -10 0
-10 0 0 -20 0 -20 -10 0 -10 0 0 -20 0 -20 -10 0 -10 0 0 -70 0 -70 10 0 10 0
0 -29 0 -29 13 -6 12 -6 -12 -6 -13 -6 0 -9 0 -9 66 0 65 0 15 14 14 15 0 14
0 15 -12 5 -13 4 9 9 9 9 4 -12 5 -13 15 0 14 0 17 17 17 16 -13 5 -12 4 0 9
0 9 30 0 30 0 0 10 0 10 50 0 50 0 0 49 0 49 -12 6 -13 6 13 6 12 6 0 17 0 17
20 14 20 14 0 18 0 18 -20 0 -20 0 0 20 0 20 -20 0 -20 0 0 10 0 10 -30 0 -30
0 0 10 0 10 -58 0 -58 0 -14 -20z m130 -119 l0 -19 13 -5 12 -4 -8 -9 -8 -8
-10 14 -11 15 -5 -12 -5 -13 -25 0 -24 0 -15 -14 -14 -15 0 -25 0 -26 -9 0 -9
0 -6 13 -6 12 -6 -12 -6 -13 -9 0 -9 0 0 30 0 30 -10 0 -10 0 0 20 0 20 10 0
10 0 0 -20 0 -20 10 0 10 0 0 15 0 16 23 24 22 24 48 0 47 1 0 -19z m-240 -91
l0 -10 -10 0 -10 0 0 10 0 10 10 0 10 0 0 -10z m320 0 l0 -10 -10 0 -10 0 0
10 0 10 10 0 10 0 0 -10z m-40 -40 l0 -10 -10 0 -10 0 0 10 0 10 10 0 10 0 0
-10z"/>
<path d="M500 630 l0 -10 -20 0 -20 0 0 -20 0 -20 10 0 10 0 0 -30 0 -30 10 0
10 0 0 -20 0 -20 20 0 20 0 0 -30 0 -30 -10 0 -10 0 0 -30 0 -30 -30 0 -30 0
0 10 0 10 -40 0 -40 0 0 10 0 10 -16 0 -15 0 -15 14 -14 15 0 15 0 16 -10 0
-10 0 0 -15 0 -16 25 -24 24 -25 16 0 15 0 0 -10 0 -10 40 0 40 0 0 -10 0 -10
25 0 26 0 24 -25 25 -24 0 -16 0 -15 10 0 10 0 0 -16 0 -15 16 -16 16 -16 8
14 9 13 8 -7 7 -8 -14 -10 -15 -9 15 -11 15 -11 -12 -5 -13 -5 0 -15 0 -14
-14 -15 -15 -14 -15 0 -16 0 0 -10 0 -10 -20 0 -20 0 0 -10 0 -10 -26 0 -26 0
-38 40 -38 40 -16 0 -16 0 0 10 0 10 30 0 30 0 0 10 0 10 -40 0 -40 0 0 -10 0
-10 -10 0 -10 0 0 20 0 20 -10 0 -10 0 0 -30 0 -30 20 0 20 0 0 -19 0 -19 12
-4 13 -5 -17 -16 -17 -17 -5 0 -6 0 0 20 0 20 -10 0 -10 0 0 20 0 20 -10 0
-10 0 0 20 0 20 -10 0 -10 0 0 10 0 10 20 0 20 0 0 10 0 10 26 0 25 0 15 14
14 15 0 5 0 6 -50 0 -50 0 0 20 0 20 -10 0 -10 0 0 50 0 50 -10 0 -10 0 0 -40
0 -40 -16 0 -17 0 -18 22 -19 21 -8 -8 -7 -8 13 -4 12 -5 0 -19 0 -19 19 0 19
0 6 -12 6 -13 6 13 6 12 9 0 9 0 0 -30 0 -30 -10 0 -10 0 0 -16 0 -15 -16 -16
-16 -16 -8 14 -9 13 -19 -22 -19 -22 -7 0 -6 0 0 26 0 25 -14 15 -15 14 -15 0
-16 0 0 10 0 10 20 0 20 0 0 6 0 5 -14 15 -15 14 -13 0 -14 0 -14 -20 -14 -20
-18 0 -18 0 0 -19 0 -19 13 -6 12 -6 -12 -6 -13 -6 0 -99 0 -99 9 0 9 0 6 13
6 12 6 -12 6 -13 59 0 59 0 0 10 0 10 -20 0 -20 0 0 6 0 5 14 15 15 14 15 0
16 0 0 9 0 9 -12 6 -13 6 13 6 12 6 0 9 0 9 -19 0 -19 0 -5 -12 -4 -13 -8 7
-7 7 25 25 26 26 31 0 31 0 24 -25 25 -24 0 -13 0 -14 20 -14 20 -14 0 -18 0
-18 20 0 20 0 0 10 0 10 -10 0 -10 0 0 10 0 10 16 0 16 0 28 -30 28 -30 26 0
26 0 0 20 0 20 28 0 28 0 14 20 14 20 16 0 16 0 14 20 14 20 18 0 18 0 0 -15
0 -16 25 -24 24 -25 16 0 15 0 0 -10 0 -10 20 0 20 0 0 -10 0 -10 50 0 50 0 0
16 0 15 -14 15 -15 14 -11 0 -12 0 -28 30 -28 30 -16 0 -16 0 0 20 0 20 18 0
18 0 14 -20 14 -20 28 0 28 0 0 -10 0 -10 18 0 18 0 14 -20 14 -20 18 0 18 0
0 6 0 5 -14 15 -15 14 -13 0 -14 0 -14 20 -14 20 -28 0 -28 0 0 10 0 10 30 0
30 0 0 -10 0 -10 20 0 20 0 0 -10 0 -10 20 0 20 0 0 10 0 10 10 0 10 0 0 -28
0 -28 20 -14 20 -14 0 -14 0 -13 14 -15 15 -14 15 0 16 0 0 36 0 36 -30 28
-30 28 0 6 0 6 29 0 29 0 4 12 5 13 61 -63 61 -62 15 0 16 0 0 -20 0 -20 20 0
20 0 0 6 0 6 -30 28 -30 28 0 12 0 11 14 15 15 14 15 0 16 0 0 8 0 8 -20 14
-20 14 0 14 0 13 -14 15 -15 14 -15 0 -16 0 0 8 0 8 20 14 20 14 0 8 0 8 -40
0 -40 0 0 -10 0 -10 -20 0 -20 0 0 -10 0 -10 -20 0 -20 0 0 20 0 20 -20 0 -20
0 0 20 0 20 -20 0 -20 0 0 10 0 10 -18 0 -18 0 -14 -20 -14 -20 -18 0 -18 0 0
-10 0 -10 -40 0 -40 0 0 -10 0 -10 -20 0 -20 0 0 -20 0 -20 -20 0 -20 0 0 -10
0 -10 -20 0 -20 0 0 9 0 9 12 4 13 5 -18 18 -19 18 -10 -14 -10 -14 -5 13 -5
12 -14 0 -15 0 -34 35 -35 34 0 36 0 35 10 0 10 0 0 26 0 25 14 15 15 14 14 0
15 0 6 13 6 12 6 -12 6 -13 9 0 9 0 0 20 0 20 10 0 10 0 0 25 0 26 -25 24 -24
25 -36 0 -35 0 0 10 0 10 -30 0 -30 0 0 -10z m480 -340 l28 -30 12 0 11 0 15
-15 15 -15 -37 -36 -36 -37 -9 14 -9 14 -11 -15 -11 -15 -5 13 -5 12 -49 0
-49 0 0 10 0 10 -30 0 -30 0 0 -10 0 -10 -20 0 -20 0 0 6 0 5 14 15 15 14 13
0 14 0 14 20 14 20 28 0 28 0 0 10 0 10 18 0 18 0 14 20 14 20 4 0 4 0 28 -30z
m-873 -85 l15 -16 -5 -6 -6 -5 -16 15 -15 16 0 5 0 6 6 0 5 0 16 -15z m1108
-30 l25 -24 0 -16 0 -15 -19 0 -19 0 -5 -12 -4 -13 -20 23 -20 22 -12 0 -12 0
-15 15 -15 15 13 14 13 15 33 1 33 0 24 -25z m-495 -15 l0 -20 -10 0 -10 0 0
10 0 10 -20 0 -20 0 0 10 0 10 30 0 30 0 0 -20z"/>
<path d="M1120 40 l0 -40 30 0 30 0 0 26 0 25 -14 15 -15 14 -15 0 -16 0 0
-40z"/>
</g>
</svg>
