<?xml version="1.0" standalone="no"?>
<!DOCTYPE svg PUBLIC "-//W3C//DTD SVG 20010904//EN"
 "http://www.w3.org/TR/2001/REC-SVG-20010904/DTD/svg10.dtd">
<svg version="1.0" xmlns="http://www.w3.org/2000/svg"
 width="468pt" height="468pt" viewBox="0 0 468 468"
 preserveAspectRatio="xMidYMid meet">
<metadata>
Created by potrace 1.8, written by Peter Selinger 2001-2007
</metadata>
<g transform="translate(0,468) scale(0.365625,-0.365625)"
fill="#000000" stroke="none">
<path d="M40 1260 l0 -20 -20 0 -20 0 0 -35 0 -35 20 0 20 0 0 -15 0 -15 70 0
70 0 0 70 0 70 -70 0 -70 0 0 -20z"/>
<path d="M280 1260 l0 -20 -15 0 -15 0 0 -35 0 -35 15 0 15 0 0 -15 0 -15 40
0 40 0 0 -20 0 -20 105 0 105 0 0 20 0 20 15 0 15 0 0 35 0 35 -15 0 -15 0 0
15 0 15 -20 0 -20 0 0 20 0 20 -125 0 -125 0 0 -20z"/>
<path d="M1030 1015 l0 -15 -35 0 -35 0 0 -20 0 -20 -20 0 -20 0 0 -35 0 -35
20 0 20 0 0 -20 0 -20 -55 0 -55 0 0 75 0 75 -70 0 -70 0 0 -20 0 -20 -15 0
-15 0 0 -35 0 -35 15 0 15 0 0 -20 0 -20 -355 0 -355 0 0 -425 0 -425 640 0
640 0 0 425 0 425 -55 0 -55 0 0 20 0 20 35 0 35 0 0 15 0 15 20 0 20 0 0 40
0 40 -20 0 -20 0 0 15 0 15 -105 0 -105 0 0 -15z"/>
</g>
</svg>
