<?xml version="1.0" standalone="no"?>
<!DOCTYPE svg PUBLIC "-//W3C//DTD SVG 20010904//EN"
 "http://www.w3.org/TR/2001/REC-SVG-20010904/DTD/svg10.dtd">
<svg version="1.0" xmlns="http://www.w3.org/2000/svg"
 width="468pt" height="468pt" viewBox="0 0 468 468"
 preserveAspectRatio="xMidYMid meet">
<metadata>
Created by potrace 1.8, written by Peter Selinger 2001-2007
</metadata>
<g transform="translate(0,468) scale(0.365625,-0.365625)"
fill="#000000" stroke="none">
<path d="M50 1175 l0 -105 15 0 15 0 0 80 0 80 15 0 15 0 0 -30 0 -30 10 0 10
0 0 -25 0 -25 15 0 15 0 0 -25 0 -25 25 0 25 0 0 105 0 105 -10 0 -10 0 0 -80
0 -80 -15 0 -15 0 0 25 0 25 -15 0 -15 0 0 30 0 30 -10 0 -10 0 0 25 0 25 -30
0 -30 0 0 -105z"/>
<path d="M240 1265 l0 -15 15 0 15 0 0 15 0 15 -15 0 -15 0 0 -15z"/>
<path d="M240 1150 l0 -80 15 0 15 0 0 80 0 80 -15 0 -15 0 0 -80z"/>
<path d="M320 1215 l0 -15 -15 0 -15 0 0 -55 0 -55 15 0 15 0 0 -10 0 -10 25
0 25 0 0 10 0 10 15 0 15 0 0 15 0 15 -15 0 -15 0 0 -15 0 -15 -25 0 -25 0 0
55 0 55 25 0 25 0 0 -15 0 -15 15 0 15 0 0 15 0 15 -15 0 -15 0 0 15 0 15 -25
0 -25 0 0 -15z"/>
<path d="M430 1215 l0 -15 40 0 40 0 0 -15 0 -15 -26 0 -25 0 -15 -14 -14 -15
0 -21 0 -21 14 -15 15 -14 24 0 25 0 6 13 6 12 6 -12 6 -13 29 0 29 0 0 50 0
50 10 0 10 0 0 15 0 15 -10 0 -10 0 0 15 0 15 -15 0 -15 0 0 -70 0 -70 -15 0
-15 0 0 55 0 55 -10 0 -10 0 0 15 0 15 -40 0 -40 0 0 -15z m80 -95 l0 -30 -30
0 -30 0 0 30 0 30 30 0 30 0 0 -30z"/>
<path d="M610 1215 l0 -15 15 0 15 0 0 15 0 15 -15 0 -15 0 0 -15z"/>
<path d="M670 1215 l0 -15 40 0 40 0 0 -15 0 -15 -26 0 -25 0 -15 -14 -14 -15
0 -21 0 -21 14 -15 15 -14 24 0 25 0 6 13 6 12 6 -12 6 -13 14 0 14 0 0 10 0
10 15 0 15 0 0 -10 0 -10 25 0 25 0 0 10 0 10 15 0 15 0 0 -25 0 -25 -40 0
-40 0 0 -15 0 -15 40 0 40 0 0 15 0 15 10 0 10 0 0 95 0 95 -10 0 -10 0 0 -15
0 -15 -15 0 -15 0 0 15 0 15 -25 0 -25 0 0 -15 0 -15 -15 0 -15 0 0 -55 0 -55
-15 0 -15 0 0 55 0 55 -10 0 -10 0 0 15 0 15 -40 0 -40 0 0 -15z m210 -30 l0
-15 15 0 15 0 0 -25 0 -25 -15 0 -15 0 0 -15 0 -15 -25 0 -25 0 0 55 0 55 25
0 25 0 0 -15z m-130 -65 l0 -30 -30 0 -30 0 0 30 0 30 30 0 30 0 0 -30z"/>
<path d="M960 1160 l0 -70 15 0 15 0 0 -10 0 -10 40 0 40 0 0 80 0 80 -15 0
-15 0 0 -70 0 -70 -25 0 -25 0 0 70 0 70 -15 0 -15 0 0 -70z"/>
<path d="M1090 1215 l0 -15 40 0 40 0 0 -15 0 -15 -25 0 -25 0 0 -10 0 -10
-15 0 -15 0 0 -30 0 -30 15 0 15 0 0 -10 0 -10 25 0 25 0 0 10 0 10 15 0 15 0
0 -10 0 -10 15 0 15 0 0 10 0 10 -15 0 -15 0 0 55 0 55 -15 0 -15 0 0 15 0 15
-40 0 -40 0 0 -15z m80 -95 l0 -30 -25 0 -25 0 0 30 0 30 25 0 25 0 0 -30z"/>
<path d="M0 535 l0 -425 640 0 640 0 0 425 0 425 -640 0 -640 0 0 -425z m610
120 l0 -15 15 0 15 0 0 -15 0 -15 -11 0 -10 0 -15 -14 -14 -15 0 -25 0 -26
-15 0 -15 0 0 -25 0 -25 -15 0 -15 0 0 -15 0 -15 15 0 15 0 0 -10 0 -10 15 0
15 0 0 -15 0 -15 -280 0 -280 0 0 135 0 135 290 0 290 0 0 -15z m640 -120 l0
-135 -280 0 -280 0 0 15 0 15 15 0 15 0 0 10 0 10 15 0 15 0 0 15 0 15 -15 0
-15 0 0 25 0 25 -15 0 -15 0 0 30 0 30 -10 0 -10 0 0 40 0 40 290 0 290 0 0
-135z m-530 -70 l0 -15 -15 0 -15 0 0 -10 0 -10 -25 0 -25 0 0 -15 0 -15 -15
0 -15 0 0 11 0 10 -14 15 -15 14 -10 0 -11 0 0 15 0 15 80 0 80 0 0 -15z"/>
<path d="M560 625 l0 -15 -11 0 -10 0 -15 -14 -14 -15 0 -35 0 -36 10 0 10 0
0 40 0 40 15 0 15 0 0 10 0 10 15 0 15 0 0 15 0 15 -15 0 -15 0 0 -15z"/>
<path d="M690 625 l0 -15 15 0 15 0 0 -10 0 -10 15 0 15 0 0 -40 0 -40 10 0
10 0 0 36 0 35 -14 15 -15 14 -10 0 -11 0 0 15 0 15 -15 0 -15 0 0 -15z"/>
</g>
</svg>
