<?xml version="1.0" standalone="no"?>
<!DOCTYPE svg PUBLIC "-//W3C//DTD SVG 20010904//EN"
 "http://www.w3.org/TR/2001/REC-SVG-20010904/DTD/svg10.dtd">
<svg version="1.0" xmlns="http://www.w3.org/2000/svg"
 width="468pt" height="468pt" viewBox="0 0 468 468"
 preserveAspectRatio="xMidYMid meet">
<metadata>
Created by potrace 1.8, written by Peter Selinger 2001-2007
</metadata>
<g transform="translate(0,468) scale(0.365625,-0.365625)"
fill="#000000" stroke="none">
<path d="M420 1270 l0 -10 -30 0 -30 0 0 -10 0 -10 -30 0 -30 0 0 -10 0 -10
-20 0 -20 0 0 -10 0 -10 -16 0 -15 0 -15 -14 -14 -15 0 -45 0 -46 10 0 10 0 0
-20 0 -20 15 0 16 0 45 -46 46 -45 -21 -18 -21 -18 0 -17 0 -16 -10 0 -10 0 0
-16 0 -16 -30 -28 -30 -28 0 -46 0 -46 -70 0 -70 0 0 30 0 30 -10 0 -10 0 0
50 0 50 -10 0 -10 0 0 30 0 30 -10 0 -10 0 0 40 0 40 10 0 10 0 0 20 0 20 10
0 10 0 0 16 0 15 -14 15 -15 14 -15 0 -16 0 0 -20 0 -20 10 0 10 0 0 -30 0
-30 -10 0 -10 0 0 -50 0 -50 10 0 10 0 0 -20 0 -20 10 0 10 0 0 -40 0 -40 -10
0 -10 0 0 -20 0 -20 10 0 10 0 0 -20 0 -20 10 0 10 0 0 -16 0 -17 -22 -18 -21
-19 24 -21 24 -22 -12 -4 -13 -5 0 -17 0 -17 -20 -14 -20 -14 0 -48 0 -48 10
0 10 0 0 29 0 29 13 5 12 5 -15 11 -14 10 8 8 9 8 4 -12 5 -13 9 0 9 0 0 30 0
30 10 0 10 0 0 -29 0 -29 13 -6 12 -6 -12 -6 -13 -6 0 -19 0 -19 -10 0 -10 0
0 19 0 19 13 5 12 4 -7 8 -7 7 -16 -15 -15 -16 0 -23 0 -24 -20 -14 -20 -14 0
-8 0 -8 15 0 16 0 34 35 35 34 0 16 0 15 10 0 10 0 0 16 0 15 15 15 15 15 15
-15 15 -15 0 -25 0 -26 -10 0 -10 0 0 -16 0 -15 -52 -51 -53 -51 13 -5 12 -4
0 -39 0 -39 10 0 10 0 0 60 0 60 10 0 10 0 0 -59 0 -59 -12 -5 -13 -4 8 -9 8
-8 10 14 9 15 10 -15 10 -15 10 15 10 15 11 -15 11 -15 5 13 5 12 19 0 19 0 0
-20 0 -20 -9 0 -9 0 -5 13 -5 12 -11 -15 -11 -15 -10 15 -10 15 -10 -15 -10
-15 -10 15 -10 15 -9 -14 -9 -14 -26 26 -26 26 0 36 0 35 -16 0 -15 0 -15 -14
-14 -15 0 -15 0 -16 10 0 10 0 0 -20 0 -20 10 0 10 0 0 -10 0 -10 -20 0 -20 0
0 -100 0 -100 640 0 640 0 0 99 0 99 -12 6 -13 6 12 6 13 6 0 18 0 18 -12 5
-13 5 15 12 15 12 -12 5 -13 5 0 18 0 18 13 6 12 6 -12 6 -13 6 0 18 0 18 13
5 12 5 -15 11 -15 11 15 9 14 10 -6 7 -7 6 -25 -25 -26 -26 0 -12 0 -12 22
-18 21 -19 -7 -7 -7 -7 -9 14 -9 14 -8 -8 -8 -9 13 -4 12 -5 0 -19 0 -19 -10
0 -10 0 0 20 0 20 -10 0 -10 0 0 -19 0 -19 -12 -5 -13 -5 15 -11 14 -10 -7 -8
-8 -7 -9 14 -9 14 -8 -8 -8 -9 13 -4 12 -5 0 -19 0 -19 10 0 10 0 0 20 0 20
10 0 10 0 0 -20 0 -20 10 0 10 0 0 20 0 20 10 0 10 0 0 -16 0 -15 -16 -16 -16
-16 -9 14 -9 14 -10 -15 -10 -15 -10 15 -10 15 -10 -15 -10 -15 -10 15 -10 15
-10 -15 -10 -15 -10 15 -10 15 -10 -15 -10 -15 -10 15 -10 15 -9 -15 -10 -14
-7 6 -6 7 18 18 17 18 5 -13 4 -12 9 0 9 0 0 20 0 20 10 0 10 0 0 10 0 10 -20
0 -20 0 0 -10 0 -10 -18 0 -18 0 -14 -20 -14 -20 -18 0 -18 0 0 -10 0 -10 -50
0 -50 0 0 5 0 6 25 24 24 25 16 0 15 0 0 10 0 10 18 0 18 0 14 20 14 20 28 0
28 0 0 -10 0 -10 16 0 17 0 18 -21 18 -21 26 26 25 25 0 13 0 14 20 14 20 14
0 8 0 8 -16 0 -15 0 -15 -14 -14 -15 0 -11 0 -11 -17 -17 -16 -17 -5 13 -4 12
-19 0 -19 0 0 10 0 10 -28 0 -28 0 -14 20 -14 20 -46 0 -46 0 -14 -20 -14 -20
-18 0 -18 0 0 -10 0 -10 10 0 10 0 0 -20 0 -20 -10 0 -10 0 0 -30 0 -30 -10 0
-10 0 0 30 0 30 10 0 10 0 0 20 0 20 -10 0 -10 0 0 29 0 29 -12 6 -13 6 13 6
12 6 0 17 0 17 20 14 20 14 0 18 0 18 16 0 15 0 15 14 14 15 0 15 0 16 15 0
16 0 34 35 35 34 0 16 0 15 -10 0 -10 0 0 40 0 40 30 0 30 0 0 76 0 75 -14 15
-15 14 -15 0 -16 0 0 46 0 45 -14 15 -15 14 -25 0 -26 0 0 -16 0 -15 -14 -15
-15 -14 -5 0 -6 0 0 19 0 19 -12 6 -13 6 13 6 12 6 0 18 0 18 -12 5 -13 4 9 9
9 9 4 -12 5 -13 9 0 9 0 0 20 0 20 16 0 17 0 19 22 19 22 9 -13 8 -14 16 16
16 16 0 15 0 16 18 0 18 0 14 20 14 20 8 0 8 0 0 -50 0 -50 -10 0 -10 0 0 -40
0 -40 -10 0 -10 0 0 -25 0 -26 35 -34 34 -35 25 0 24 0 6 13 6 12 6 -12 6 -13
19 0 19 0 0 50 0 50 -10 0 -10 0 0 50 0 50 -10 0 -10 0 0 40 0 40 -10 0 -10 0
0 30 0 30 -60 0 -60 0 0 -16 0 -15 -17 -17 -16 -17 -5 13 -4 12 -9 0 -9 0 0
-16 0 -15 -17 -17 -16 -17 -5 13 -4 12 -9 0 -9 0 0 -16 0 -15 -16 -16 -16 -16
-8 14 -9 13 -20 -23 -20 -23 -16 16 -16 16 17 17 17 18 5 -13 4 -12 9 0 9 0 0
16 0 15 17 17 16 17 5 -13 4 -12 9 0 9 0 0 19 0 19 12 4 13 5 -17 16 -17 17
-15 0 -16 0 0 -9 0 -9 13 -5 12 -4 -7 -8 -8 -8 -20 24 -21 23 -10 -14 -9 -15
-10 15 -10 15 -10 -15 -10 -15 -10 15 -10 15 -10 -15 -10 -15 -10 15 -10 15
-10 -15 -10 -15 -10 15 -10 15 -10 -15 -10 -15 -10 15 -10 15 -10 -15 -10 -15
-10 15 -10 15 -10 -15 -10 -15 -9 14 -9 14 -26 -26 -26 -26 0 -16 0 -15 10 0
10 0 0 -20 0 -20 -6 0 -5 0 -15 14 -14 15 0 25 0 26 -20 0 -20 0 0 -10 0 -10
-10 0 -10 0 0 20 0 20 30 0 30 0 0 -10 0 -10 10 0 10 0 0 20 0 20 -60 0 -60 0
0 -10z m183 -22 l5 -13 11 15 11 15 10 -15 10 -15 10 15 10 15 10 -15 10 -15
10 15 10 15 10 -15 10 -15 10 15 10 15 10 -15 10 -15 10 15 10 15 10 -15 10
-15 10 15 10 15 10 -15 10 -15 9 15 10 14 7 -6 6 -7 -18 -18 -17 -18 -5 13 -4
12 -9 0 -9 0 0 -20 0 -20 -10 0 -10 0 0 20 0 20 -6 0 -7 0 -20 -22 -20 -23 -4
13 -5 12 -9 0 -9 0 0 -20 0 -20 -10 0 -10 0 0 20 0 20 -10 0 -10 0 0 -20 0
-20 -10 0 -10 0 0 16 0 15 -15 15 -15 15 -15 -15 -15 -15 0 -5 0 -6 20 0 20 0
0 -20 0 -20 10 0 10 0 0 -20 0 -20 6 0 7 0 20 23 20 22 4 -12 5 -13 19 0 19 0
0 -10 0 -10 -15 0 -16 0 -34 -35 -35 -34 0 -16 0 -15 10 0 10 0 0 16 0 15 14
15 15 14 15 0 16 0 0 10 0 10 36 0 35 0 15 -14 14 -15 0 -25 0 -26 10 0 10 0
0 -16 0 -15 16 -16 16 -16 9 14 9 14 9 -15 10 -14 8 7 7 8 -13 9 -14 8 16 16
16 16 15 0 16 0 0 -29 0 -29 -12 -5 -13 -4 43 -41 42 -40 0 -15 0 -15 -12 -6
-13 -6 13 -6 12 -6 0 -29 0 -29 -10 0 -10 0 0 16 0 15 -14 15 -15 14 -5 0 -6
0 0 -20 0 -20 -10 0 -10 0 0 -30 0 -30 -26 0 -25 0 -16 -15 -15 -16 7 -7 8 -7
4 13 5 12 25 0 24 0 15 -14 14 -15 0 -15 0 -16 -10 0 -10 0 0 -20 0 -20 -10 0
-10 0 0 30 0 30 -8 0 -8 0 -14 -20 -14 -20 -14 0 -14 0 -28 -30 -28 -30 -16 0
-16 0 0 -10 0 -10 -20 0 -20 0 0 -10 0 -10 -28 0 -28 0 -14 -20 -14 -20 -58 0
-58 0 0 10 0 10 -30 0 -30 0 0 10 0 10 -20 0 -20 0 0 10 0 10 -20 0 -20 0 0
20 0 20 -6 0 -5 0 -15 -14 -14 -15 0 -25 0 -26 10 0 10 0 0 -75 0 -76 25 -24
24 -25 36 0 35 0 0 6 0 5 -16 16 -16 16 -8 -13 -8 -13 -18 17 -17 18 14 9 14
9 -15 10 -15 10 15 10 15 10 -15 10 -15 10 15 11 15 11 -12 5 -13 5 0 18 0 18
-12 5 -13 4 7 8 7 7 16 -15 15 -16 0 -15 0 -16 9 0 9 0 5 13 5 12 11 -15 11
-15 9 15 10 14 21 -24 21 -24 10 14 9 15 10 -15 10 -15 10 15 10 15 9 -14 9
-15 32 34 32 34 9 -15 9 -14 9 15 10 14 8 -7 7 -8 -13 -9 -14 -8 16 -17 17
-16 15 15 15 15 0 14 0 15 -12 5 -13 4 8 9 8 8 9 -13 8 -14 16 16 16 16 0 11
0 11 14 15 15 14 13 0 14 0 14 20 14 20 8 0 8 0 0 -16 0 -15 -60 -59 -60 -59
0 -15 0 -16 -20 0 -20 0 0 -20 0 -20 10 0 10 0 0 -30 0 -30 10 0 10 0 0 -30 0
-30 -10 0 -10 0 0 -20 0 -20 -20 0 -20 0 0 -10 0 -10 -20 0 -20 0 0 -10 0 -10
-59 0 -59 0 -6 13 -6 12 -6 -12 -6 -13 -19 0 -19 0 0 20 0 20 9 0 9 0 6 -12 6
-13 6 13 6 12 19 0 19 0 0 10 0 10 15 0 15 0 66 66 66 65 -6 6 -5 5 -60 -61
-60 -61 -15 0 -16 0 0 -10 0 -10 -60 0 -60 0 0 10 0 10 -30 0 -30 0 0 10 0 10
-20 0 -20 0 0 10 0 10 -10 0 -10 0 0 -40 0 -40 -10 0 -10 0 0 40 0 40 10 0 10
0 0 90 0 90 -10 0 -10 0 0 30 0 30 10 0 10 0 0 10 0 10 -28 0 -28 0 -14 20
-14 20 -38 0 -38 0 0 10 0 10 -50 0 -50 0 0 -10 0 -10 40 0 40 0 0 -10 0 -10
-56 0 -55 0 -15 15 -15 15 15 15 15 15 15 0 16 0 0 10 0 10 50 0 50 0 0 -10 0
-10 30 0 30 0 0 -10 0 -10 18 0 18 0 14 -20 14 -20 18 0 18 0 0 10 0 10 -20 0
-20 0 0 20 0 20 -30 0 -30 0 0 19 0 19 -12 5 -13 5 15 12 15 12 -12 5 -13 5 0
29 0 29 28 0 28 0 14 -20 14 -20 18 0 18 0 0 -20 0 -20 8 0 8 0 14 20 14 20
48 0 48 0 0 -10 0 -10 16 0 15 0 49 -50 49 -50 35 0 36 0 0 -10 0 -10 40 0 40
0 0 10 0 10 20 0 20 0 0 10 0 10 20 0 20 0 0 30 0 30 -10 0 -10 0 0 26 0 25
-14 15 -15 14 -35 0 -36 0 0 -30 0 -30 -10 0 -10 0 0 -40 0 -40 10 0 10 0 0
-10 0 -10 -15 0 -16 0 -34 35 -35 34 0 56 0 55 10 0 10 0 0 30 0 30 10 0 10 0
0 16 0 15 14 15 15 14 51 0 51 0 15 -14 14 -15 0 -15 0 -16 10 0 10 0 0 -39 0
-39 13 -6 12 -6 -12 -6 -13 -6 0 -29 0 -29 10 0 10 0 0 29 0 29 13 6 12 6 -12
6 -13 6 0 39 0 39 -10 0 -10 0 0 15 0 16 -25 24 -24 25 -51 0 -51 0 -24 -25
-25 -24 0 -16 0 -15 -10 0 -10 0 0 -30 0 -30 -10 0 -10 0 0 -60 0 -60 10 0 10
0 0 -10 0 -10 -15 0 -16 0 -26 26 -26 26 14 8 13 9 -7 8 -8 7 -10 -14 -11 -15
-5 13 -5 12 -15 0 -14 0 -15 14 -14 15 0 45 0 46 10 0 10 0 0 36 0 35 -14 15
-15 14 -21 0 -21 0 -24 -25 -25 -24 0 -16 0 -15 -10 0 -10 0 0 -30 0 -30 -10
0 -10 0 0 -30 0 -30 -6 0 -5 0 -15 14 -14 15 0 25 0 26 10 0 10 0 0 20 0 20
10 0 10 0 0 18 0 18 20 14 20 14 0 14 0 13 36 36 36 36 10 -14 10 -14 5 13 5
12 39 0 39 0 0 -10 0 -10 20 0 20 0 0 10 0 10 -20 0 -20 0 0 10 0 10 -40 0
-40 0 0 -10 0 -10 -10 0 -10 0 0 16 0 15 14 15 15 14 25 0 26 0 0 -10 0 -10
19 0 19 0 5 -12 4 -13 8 7 7 7 -15 16 -16 15 -15 0 -16 0 0 10 0 10 16 0 15 0
15 14 14 15 0 14 0 15 -12 5 -13 5 15 12 15 12 -12 5 -13 5 0 9 0 9 9 0 9 0 5
-12z m-200 -20 l5 -13 10 14 10 14 16 -16 16 -16 0 -15 0 -16 10 0 10 0 0 20
0 20 10 0 10 0 0 -20 0 -20 10 0 10 0 0 -20 0 -20 -10 0 -10 0 0 20 0 20 -10
0 -10 0 0 -26 0 -26 -40 -38 -40 -38 0 -16 0 -16 -10 0 -10 0 0 20 0 20 -10 0
-10 0 0 -20 0 -20 -10 0 -10 0 0 20 0 20 -10 0 -10 0 0 -20 0 -20 -10 0 -10 0
0 16 0 15 -16 16 -16 16 -8 -13 -8 -13 -18 17 -17 18 14 10 14 10 -12 5 -13 5
0 19 0 19 10 0 10 0 0 -20 0 -20 10 0 10 0 0 26 0 25 17 17 16 17 5 -13 4 -12
9 0 9 0 0 20 0 20 10 0 10 0 0 -20 0 -20 10 0 10 0 0 15 0 16 13 14 12 14 7 1
6 0 5 -12z m-363 -158 l0 -10 -10 0 -10 0 0 10 0 10 10 0 10 0 0 -10z m320
-80 l0 -10 -10 0 -10 0 0 10 0 10 10 0 10 0 0 -10z m120 -49 l0 -19 -12 -5
-13 -5 15 -12 15 -12 -12 -5 -13 -5 0 -19 0 -19 -10 0 -10 0 0 20 0 20 -6 0
-5 0 -15 -14 -14 -15 0 -45 0 -46 -20 0 -20 0 0 40 0 40 10 0 10 0 0 30 0 30
10 0 10 0 0 15 0 16 13 14 12 14 28 1 27 0 0 -19z m360 -251 l0 -10 -10 0 -10
0 0 10 0 10 10 0 10 0 0 -10z m-720 -140 l0 -30 -10 0 -10 0 0 30 0 30 10 0
10 0 0 -30z m180 11 l0 -19 13 -6 12 -6 -12 -6 -13 -6 0 -9 0 -9 20 0 20 0 0
-66 0 -65 -17 -17 -16 -17 -5 13 -4 12 -9 0 -9 0 0 -20 0 -20 20 0 20 0 0 -60
0 -60 -10 0 -10 0 0 50 0 50 -20 0 -20 0 0 29 0 29 12 4 13 5 -17 16 -17 17
-5 0 -6 0 0 -60 0 -60 20 0 20 0 0 -40 0 -40 -10 0 -10 0 0 30 0 30 -20 0 -20
0 0 80 0 80 19 0 19 0 5 13 4 12 9 -8 8 -8 -13 -9 -14 -8 26 -26 26 -26 6 0 5
0 0 20 0 20 -10 0 -10 0 0 16 0 15 -14 15 -15 14 -15 0 -16 0 0 16 0 15 -14
15 -15 14 -11 0 -11 0 -15 14 -14 15 0 15 0 16 70 0 70 0 0 -19z m-80 -101 l0
-20 -10 0 -10 0 0 -100 0 -100 -10 0 -10 0 0 100 0 100 10 0 10 0 0 20 0 20
10 0 10 0 0 -20z m1040 -50 l0 -10 -10 0 -10 0 0 10 0 10 10 0 10 0 0 -10z
m-1100 -90 l0 -80 -10 0 -10 0 0 80 0 80 10 0 10 0 0 -80z m780 0 l0 -40 -10
0 -10 0 0 40 0 40 10 0 10 0 0 -40z m-40 -10 l0 -30 -10 0 -10 0 0 -20 0 -20
-10 0 -10 0 0 20 0 20 10 0 10 0 0 30 0 30 10 0 10 0 0 -30z m100 24 l0 -5
-14 -15 -15 -14 -5 0 -6 0 0 20 0 20 20 0 20 0 0 -6z m223 -46 l5 -13 11 15
10 14 7 -6 6 -7 -16 -16 -16 -16 -15 15 -15 15 0 5 0 6 9 0 9 0 5 -12z m-797
-22 l14 -15 0 -5 0 -6 -30 0 -30 0 0 20 0 20 16 0 15 0 15 -14z"/>
<path d="M660 1230 l0 -10 10 0 10 0 0 10 0 10 -10 0 -10 0 0 -10z"/>
<path d="M700 1230 l0 -10 10 0 10 0 0 10 0 10 -10 0 -10 0 0 -10z"/>
<path d="M740 1230 l0 -10 10 0 10 0 0 10 0 10 -10 0 -10 0 0 -10z"/>
<path d="M980 860 l0 -20 20 0 20 0 0 6 0 5 -14 15 -15 14 -5 0 -6 0 0 -20z"/>
<path d="M260 770 l0 -10 10 0 10 0 0 -19 0 -19 -12 -5 -13 -4 7 -8 7 -7 16
15 15 16 0 11 0 11 -14 15 -15 14 -5 0 -6 0 0 -10z"/>
<path d="M320 710 l0 -10 10 0 10 0 0 10 0 10 -10 0 -10 0 0 -10z"/>
<path d="M657 448 l-28 -32 -10 15 -9 14 -10 -15 -10 -15 -10 15 -10 15 -9
-15 -10 -14 -21 24 -21 24 -10 -14 -9 -15 -9 14 -9 14 -18 -17 -17 -18 14 -9
14 -9 -15 -10 -15 -10 15 -10 15 -10 -15 -9 -14 -10 7 -8 8 -7 9 13 8 14 28
-28 28 -29 -12 -4 -12 -4 0 -9 0 -9 40 0 40 0 0 10 0 10 15 0 15 0 66 65 65
65 -25 25 -25 25 -3 0 -3 -1 -28 -31z m49 -3 l15 -15 -16 -17 -17 -16 -8 13
-8 13 -18 -17 -17 -18 14 -8 13 -9 -7 -8 -8 -7 -9 13 -8 14 -18 -17 -17 -18
14 -8 13 -9 -7 -8 -8 -7 -9 14 -9 14 -20 -23 -20 -23 -47 47 -47 47 14 9 14 9
-15 9 -14 10 7 8 8 7 10 -14 9 -15 9 15 10 14 21 -24 21 -24 10 14 9 15 10
-15 10 -15 10 15 10 15 9 -14 10 -15 28 32 28 31 3 1 3 0 15 -15z"/>
<path d="M680 430 l0 -10 10 0 10 0 0 10 0 10 -10 0 -10 0 0 -10z"/>
<path d="M492 405 l-13 -15 36 -35 35 -36 36 36 36 36 -7 7 -6 6 -10 -14 -9
-15 -10 15 -10 15 -9 -15 -10 -14 -19 22 -19 22 -4 0 -4 -1 -13 -14z m40 -27
l19 -22 9 14 9 14 7 -6 6 -7 -16 -16 -16 -16 -25 25 -25 25 0 6 0 5 6 0 7 0
19 -22z"/>
<path d="M620 230 l0 -10 10 0 10 0 0 10 0 10 -10 0 -10 0 0 -10z"/>
<path d="M380 1200 l0 -20 -10 0 -10 0 0 -30 0 -30 -10 0 -10 0 0 30 0 30 -10
0 -10 0 0 -30 0 -30 -10 0 -10 0 0 30 0 30 -10 0 -10 0 0 -26 0 -27 -22 -18
-21 -19 7 -7 7 -7 9 14 9 14 21 -24 21 -24 10 14 9 15 10 -15 10 -15 10 15 10
15 9 -14 9 -14 36 36 36 36 0 26 0 25 -10 0 -10 0 0 20 0 20 -10 0 -10 0 0
-20 0 -20 -10 0 -10 0 0 20 0 20 -10 0 -10 0 0 -20z m20 -50 l0 -30 10 0 10 0
0 30 0 30 10 0 10 0 0 -25 0 -26 -26 -26 -26 -26 -9 14 -9 14 -10 -15 -10 -15
-10 15 -10 15 -9 -14 -9 -14 -17 17 -17 17 6 7 7 6 10 -14 9 -15 10 15 10 15
9 -14 9 -14 16 16 16 16 0 25 0 26 10 0 10 0 0 -30z"/>
<path d="M380 1110 l0 -10 10 0 10 0 0 10 0 10 -10 0 -10 0 0 -10z"/>
<path d="M960 1271 l0 -9 13 -6 12 -6 -12 -6 -13 -6 0 -19 0 -19 10 0 10 0 0
20 0 20 10 0 10 0 0 20 0 20 -20 0 -20 0 0 -9z"/>
<path d="M1020 1260 l0 -20 10 0 10 0 0 20 0 20 -10 0 -10 0 0 -20z"/>
<path d="M900 1180 l0 -20 10 0 10 0 0 20 0 20 -10 0 -10 0 0 -20z"/>
<path d="M840 1150 l0 -10 10 0 10 0 0 10 0 10 -10 0 -10 0 0 -10z"/>
<path d="M1100 240 l0 -20 10 0 10 0 0 20 0 20 -10 0 -10 0 0 -20z"/>
<path d="M1140 240 l0 -20 10 0 10 0 0 20 0 20 -10 0 -10 0 0 -20z"/>
</g>
</svg>
