<?xml version="1.0" standalone="no"?>
<!DOCTYPE svg PUBLIC "-//W3C//DTD SVG 20010904//EN"
 "http://www.w3.org/TR/2001/REC-SVG-20010904/DTD/svg10.dtd">
<svg version="1.0" xmlns="http://www.w3.org/2000/svg"
 width="468pt" height="468pt" viewBox="0 0 468 468"
 preserveAspectRatio="xMidYMid meet">
<metadata>
Created by potrace 1.8, written by Peter Selinger 2001-2007
</metadata>
<g transform="translate(0,468) scale(0.365625,-0.365625)"
fill="#000000" stroke="none">
<path d="M430 1120 l0 -160 -135 0 -135 0 0 -25 0 -25 -25 0 -25 0 0 25 0 25
-55 0 -55 0 0 -25 0 -25 55 0 55 0 0 -30 0 -30 25 0 25 0 0 30 0 30 265 0 265
0 0 130 0 130 30 0 30 0 0 -25 0 -25 25 0 25 0 0 25 0 25 -25 0 -25 0 0 30 0
30 -30 0 -30 0 0 25 0 25 -130 0 -130 0 0 -160z m260 80 l0 -30 -25 0 -25 0 0
30 0 30 25 0 25 0 0 -30z"/>
<path d="M850 1095 l0 -185 80 0 80 0 0 -30 0 -30 30 0 30 0 0 30 0 30 105 0
105 0 0 25 0 25 -105 0 -105 0 0 -25 0 -25 -30 0 -30 0 0 25 0 25 -50 0 -50 0
0 160 0 160 -30 0 -30 0 0 -185z"/>
<path d="M750 825 l0 -25 -30 0 -30 0 0 -25 0 -25 -185 0 -185 0 0 25 0 25
-55 0 -55 0 0 -25 0 -25 -105 0 -105 0 0 -215 0 -215 80 0 80 0 0 55 0 55 25
0 25 0 0 -55 0 -55 190 0 190 0 0 25 0 25 25 0 25 0 0 30 0 30 25 0 25 0 0
-55 0 -55 135 0 135 0 0 25 0 25 25 0 25 0 0 -25 0 -25 135 0 135 0 0 215 0
215 -80 0 -80 0 0 25 0 25 -25 0 -25 0 0 -25 0 -25 -135 0 -135 0 0 50 0 50
-25 0 -25 0 0 -25z m-480 -105 l0 -30 -30 0 -30 0 0 30 0 30 30 0 30 0 0 -30z
m480 0 l0 -30 -30 0 -30 0 0 30 0 30 30 0 30 0 0 -30z m370 0 l0 -30 25 0 25
0 0 -25 0 -25 -25 0 -25 0 0 25 0 25 -25 0 -25 0 0 30 0 30 25 0 25 0 0 -30z
m-850 -265 l0 -25 -30 0 -30 0 0 25 0 25 30 0 30 0 0 -25z"/>
</g>
</svg>
