<?xml version="1.0" standalone="no"?>
<!DOCTYPE svg PUBLIC "-//W3C//DTD SVG 20010904//EN"
 "http://www.w3.org/TR/2001/REC-SVG-20010904/DTD/svg10.dtd">
<svg version="1.0" xmlns="http://www.w3.org/2000/svg"
 width="468pt" height="468pt" viewBox="0 0 468 468"
 preserveAspectRatio="xMidYMid meet">
<metadata>
Created by potrace 1.8, written by Peter Selinger 2001-2007
</metadata>
<g transform="translate(0,468) scale(0.365625,-0.365625)"
fill="#000000" stroke="none">
<path d="M383 1215 l-23 -24 0 -21 0 -22 40 -38 40 -38 0 -16 0 -16 -10 0 -10
0 0 -30 0 -30 10 0 10 0 0 -19 0 -19 13 -6 12 -6 -12 -6 -13 -6 0 -19 0 -19
-20 0 -20 0 0 10 0 10 -50 0 -50 0 0 -10 0 -10 -30 0 -30 0 0 -16 0 -16 -40
-38 -40 -38 0 -56 0 -56 10 0 10 0 0 -40 0 -40 10 0 10 0 0 -28 0 -28 -20 -14
-20 -14 0 -17 0 -17 -12 -4 -12 -4 37 -38 37 -37 25 25 25 25 0 13 0 14 20 14
20 14 0 68 0 68 10 0 10 0 0 50 0 50 40 0 40 0 0 -20 0 -20 -10 0 -10 0 0 -20
0 -20 -10 0 -10 0 0 -20 0 -20 -10 0 -10 0 0 -78 0 -78 20 -14 20 -14 0 -15 0
-14 23 -20 22 -20 -12 -4 -13 -5 0 -19 0 -19 -10 0 -10 0 0 -20 0 -20 -10 0
-10 0 0 -40 0 -40 -10 0 -10 0 0 -50 0 -50 10 0 10 0 0 -20 0 -20 100 0 100 0
0 16 0 15 -14 15 -15 14 -15 0 -16 0 0 10 0 10 -20 0 -20 0 0 20 0 20 10 0 10
0 0 20 0 20 10 0 10 0 0 18 0 18 20 14 20 14 0 14 0 13 25 24 24 25 36 0 35 0
0 10 0 10 30 0 30 0 0 -10 0 -10 20 0 20 0 0 -20 0 -20 20 0 20 0 0 -10 0 -10
20 0 20 0 0 -20 0 -20 20 0 20 0 0 -10 0 -10 20 0 20 0 0 -10 0 -10 20 0 20 0
0 -10 0 -10 30 0 30 0 0 18 0 18 20 14 20 14 0 14 0 14 30 28 30 28 0 12 0 11
-14 15 -15 14 -25 0 -26 0 0 -10 0 -10 -19 0 -19 0 -6 -12 -6 -13 -6 13 -6 12
-17 0 -17 0 -14 20 -14 20 -18 0 -18 0 0 10 0 10 -16 0 -16 0 -28 30 -28 30
-16 0 -16 0 0 60 0 60 -10 0 -10 0 0 30 0 30 60 0 60 0 0 -10 0 -10 75 0 76 0
24 25 25 24 0 11 0 11 -25 24 -24 25 -66 0 -65 0 0 10 0 10 -45 0 -46 0 -24
25 -25 24 0 26 0 25 -10 0 -10 0 0 18 0 18 20 14 20 14 0 18 0 18 10 0 10 0 0
30 0 30 -10 0 -10 0 0 16 0 16 40 38 40 38 0 22 0 21 -25 24 -24 25 -31 0 -31
0 -24 -25 -25 -24 0 -16 0 -15 -10 0 -10 0 0 10 0 10 -60 0 -60 0 0 -10 0 -10
-10 0 -10 0 0 15 0 16 -25 24 -24 25 -33 -1 -33 0 -22 -24z m103 -9 l14 -15 0
-11 0 -11 17 -17 16 -17 5 13 4 12 58 0 58 0 4 -12 5 -13 16 17 17 17 0 11 0
11 14 15 15 14 31 0 31 0 15 -14 14 -15 0 -21 0 -22 -40 -38 -40 -38 0 -16 0
-16 10 0 10 0 0 -30 0 -30 -10 0 -10 0 0 -15 0 -16 -46 -46 -46 -46 -10 14
-10 14 -5 -12 -5 -13 -19 0 -19 0 0 10 0 10 -10 0 -10 0 0 -20 0 -20 -6 0 -5
0 -15 14 -14 15 0 11 0 12 -30 28 -30 28 0 16 0 16 -10 0 -10 0 0 30 0 30 10
0 10 0 0 16 0 16 -40 38 -40 38 0 22 0 21 13 14 12 14 33 1 33 0 15 -14z m34
-356 l49 -50 21 0 22 0 38 40 38 40 16 0 16 0 0 -30 0 -30 10 0 10 0 0 -70 0
-70 -10 0 -10 0 0 -40 0 -40 10 0 10 0 0 -70 0 -70 -10 0 -10 0 0 -20 0 -20
-10 0 -10 0 0 -20 0 -20 -20 0 -20 0 0 -10 0 -10 -40 0 -40 0 0 20 0 20 -10 0
-10 0 0 18 0 18 -20 14 -20 14 0 14 0 13 -15 16 -16 15 -7 -7 -7 -8 13 -4 12
-5 0 -17 0 -17 20 -14 20 -14 0 -18 0 -18 10 0 10 0 0 -28 0 -28 -20 -14 -20
-14 0 -18 0 -18 -10 0 -10 0 0 -20 0 -20 -10 0 -10 0 0 -20 0 -20 -10 0 -10 0
0 -20 0 -20 -10 0 -10 0 0 -19 0 -19 -12 -5 -13 -4 8 -9 8 -8 10 14 11 15 5
-12 5 -13 19 0 19 0 0 -10 0 -10 20 0 20 0 0 -10 0 -10 -76 0 -75 0 -15 14
-14 15 0 45 0 46 10 0 10 0 0 40 0 40 10 0 10 0 0 20 0 20 10 0 10 0 0 19 0
19 13 6 12 6 -12 6 -13 6 0 19 0 19 -10 0 -10 0 0 20 0 20 -10 0 -10 0 0 20 0
20 -10 0 -10 0 0 60 0 60 10 0 10 0 0 20 0 20 10 0 10 0 0 20 0 20 10 0 10 0
0 29 0 29 13 6 12 6 -12 6 -13 6 0 19 0 19 10 0 10 0 0 35 0 36 13 14 12 14 3
1 3 0 49 -50z m-120 11 l0 -19 13 -6 12 -6 -12 -6 -13 -6 0 -39 0 -39 -40 0
-40 0 0 10 0 10 -10 0 -10 0 0 -70 0 -70 -10 0 -10 0 0 -68 0 -68 -20 -14 -20
-14 0 -14 0 -13 -15 -15 -15 -15 -27 27 -27 28 12 4 12 4 0 17 0 17 20 14 20
14 0 38 0 38 -10 0 -10 0 0 40 0 40 -10 0 -10 0 0 45 0 46 45 44 44 45 26 0
25 0 0 10 0 10 40 0 40 0 0 -19z m240 -7 l0 -5 -14 -15 -15 -14 -25 0 -26 0 0
10 0 10 30 0 30 0 0 10 0 10 10 0 10 0 0 -6z m240 -104 l0 -10 66 0 65 0 15
-14 14 -15 0 -11 0 -11 -14 -15 -15 -14 -75 0 -76 0 0 10 0 10 -50 0 -50 0 0
40 0 40 60 0 60 0 0 -10z m-100 -300 l0 -10 18 0 18 0 14 -20 14 -20 18 0 18
0 0 -10 0 -10 18 0 18 0 14 -20 14 -20 18 0 18 0 0 -9 0 -9 -12 -5 -13 -4 7
-8 8 -8 19 21 18 22 17 0 16 0 0 10 0 10 30 0 30 0 0 -16 0 -16 -30 -28 -30
-28 0 -11 0 -12 -25 -24 -24 -25 -16 0 -15 0 0 10 0 10 -18 0 -18 0 -14 20
-14 20 -14 0 -14 0 -28 30 -28 30 -11 0 -12 0 -24 25 -25 24 0 15 0 14 -12 6
-13 6 13 6 12 6 0 19 0 19 20 0 20 0 0 -10z"/>
<path d="M400 1174 l0 -25 14 -15 15 -14 14 0 15 0 4 -12 5 -13 16 17 17 17 0
11 0 11 -25 24 -24 25 -26 0 -25 0 0 -26z"/>
<path d="M723 1175 l-23 -24 0 -11 0 -11 17 -17 16 -17 5 13 4 12 15 0 14 0
15 14 14 15 0 25 0 26 -27 -1 -28 0 -22 -24z"/>
<path d="M520 1040 l0 -20 20 0 20 0 0 20 0 20 -20 0 -20 0 0 -20z"/>
<path d="M640 1040 l0 -20 20 0 20 0 0 20 0 20 -20 0 -20 0 0 -20z"/>
<path d="M573 985 l-13 -14 0 -6 0 -5 40 0 40 0 0 6 0 5 -14 15 -15 14 -13 0
-13 -1 -12 -14z"/>
<path d="M500 935 l0 -6 27 -27 27 -26 4 12 4 12 38 0 38 0 4 -12 4 -12 27 26
27 27 0 6 0 5 -20 0 -20 0 0 -10 0 -10 -60 0 -60 0 0 10 0 10 -20 0 -20 0 0
-5z"/>
<path d="M880 710 l0 -10 20 0 20 0 0 -10 0 -10 40 0 40 0 0 6 0 5 -14 15 -15
14 -45 0 -46 0 0 -10z"/>
</g>
</svg>
