<?xml version="1.0" standalone="no"?>
<!DOCTYPE svg PUBLIC "-//W3C//DTD SVG 20010904//EN"
 "http://www.w3.org/TR/2001/REC-SVG-20010904/DTD/svg10.dtd">
<svg version="1.0" xmlns="http://www.w3.org/2000/svg"
 width="468pt" height="468pt" viewBox="0 0 468 468"
 preserveAspectRatio="xMidYMid meet">
<metadata>
Created by potrace 1.8, written by Peter Selinger 2001-2007
</metadata>
<g transform="translate(0,468) scale(0.365625,-0.365625)"
fill="#000000" stroke="none">
<path d="M918 1273 l-18 -4 0 -10 0 -9 14 0 14 0 4 12 5 13 17 -17 17 -17
-397 -1 -396 0 -15 -15 -14 -15 -10 0 -10 0 -15 -15 -15 -15 45 0 46 0 0 -15
0 -15 -45 0 -45 0 0 -9 0 -9 -47 -8 -46 -9 -5 -12 -4 -13 76 0 76 0 0 -30 0
-30 -10 0 -10 0 0 9 0 9 -20 5 -20 5 0 -111 0 -112 8 11 7 11 23 7 22 7 0 -20
0 -21 -39 0 -39 0 -6 -15 -5 -15 5 -15 6 -15 14 0 14 0 0 -14 0 -14 -21 -5
-21 -6 4 -13 5 -13 77 -3 78 -3 15 -14 14 -15 15 0 14 0 0 -10 0 -10 -140 0
-140 0 0 -325 0 -325 640 0 640 0 0 325 0 325 -110 0 -110 0 0 9 0 9 25 6 25
6 0 10 0 10 68 0 67 0 15 10 15 10 -15 10 -15 10 -12 0 -13 0 0 15 0 15 11 0
10 0 15 15 15 15 -15 15 -15 15 -25 0 -26 0 0 21 0 20 23 -7 22 -7 7 -11 8
-11 0 125 0 125 -8 -11 -7 -11 -22 -7 -23 -7 0 20 0 21 46 0 46 0 -4 13 -5 12
-46 9 -47 8 0 9 0 9 -35 0 -35 0 0 15 0 15 36 0 35 0 -13 14 -14 13 -22 7 -22
7 0 10 0 9 -44 0 -45 0 -15 15 -15 15 -28 4 -28 4 -17 -5z m196 -59 l16 -6 0
-9 0 -9 -490 0 -490 0 0 9 0 9 13 5 12 5 462 1 461 1 16 -6z m-894 -49 l0 -15
-10 0 -10 0 0 15 0 15 10 0 10 0 0 -15z m30 0 l0 -15 -10 0 -10 0 0 15 0 15
10 0 10 0 0 -15z m57 3 l5 12 339 0 339 0 1 -12 1 -13 5 13 5 12 8 0 8 0 5
-15 6 -14 -385 0 -385 -1 13 14 13 14 8 -12 9 -11 5 13z m750 -10 l-5 -13 -1
19 -1 19 6 -6 6 -6 -5 -13z m30 0 l-5 -13 -1 19 -1 19 6 -6 6 -6 -5 -13z m113
-38 l25 -8 -585 0 -585 0 25 8 25 8 535 0 535 0 25 -8z m-952 -51 l4 -9 12 0
12 0 17 -20 17 -20 0 -10 0 -10 -9 0 -9 0 -6 15 -5 15 -16 0 -15 0 0 15 0 15
-25 0 -25 0 0 -15 0 -15 11 0 10 0 -15 -16 -16 -15 0 -14 0 -13 -15 -6 -15 -5
1 65 2 65 41 -7 41 -6 3 -9z m271 2 l6 -8 23 -7 22 -7 0 -50 0 -49 -7 0 -7 0
-33 12 -33 12 0 8 0 8 10 0 10 0 0 15 0 15 -24 6 -25 6 -11 -7 -12 -7 6 -22 5
-21 -26 -12 -27 -13 -33 0 -33 0 0 50 0 50 25 6 25 6 0 8 0 9 23 4 22 5 44 -4
45 -4 5 -9z m91 -51 l0 -70 -15 0 -15 0 0 70 0 70 15 0 15 0 0 -70z m169 43
l21 -17 0 -48 0 -48 -27 1 -28 0 -20 9 -20 9 13 0 12 1 0 11 0 10 -14 15 -15
14 -10 0 -10 0 -6 -19 -6 -19 3 -13 3 -14 -22 -3 -23 -3 0 51 0 52 20 5 20 5
0 8 0 9 18 4 17 5 27 -3 27 -4 20 -18z m61 -43 l0 -70 -15 0 -15 0 0 70 0 70
15 0 15 0 0 -70z m189 41 l21 -21 0 -35 0 -35 -5 0 -5 0 -21 21 -21 21 19 13
18 13 -6 6 -5 6 -33 6 -33 7 6 -31 7 -30 -10 -7 -11 -6 0 -30 0 -29 -25 0 -25
0 0 -50 0 -50 -20 0 -20 0 0 108 0 108 19 15 18 16 14 6 14 6 41 -3 41 -3 22
-22z m51 -51 l0 -80 -10 0 -10 0 0 80 0 80 10 0 10 0 0 -80z m100 0 l0 -80
-25 0 -25 0 0 6 0 7 18 13 17 13 -17 1 -17 0 -15 -22 -16 -22 -6 7 -7 6 24 20
24 19 -9 9 -9 8 -4 -12 -5 -13 -9 0 -9 0 0 35 0 35 19 19 19 19 13 5 14 5 13
1 12 1 0 -80z m60 -50 l0 -90 -11 0 -10 0 -15 14 -14 15 0 61 0 61 13 14 12
14 13 1 12 0 0 -90z m-1106 64 l16 -6 0 -60 0 -59 -14 -15 -15 -14 -10 0 -11
0 0 80 0 80 9 0 9 0 16 -6z m176 -78 l0 -16 -15 0 -15 0 0 31 0 30 15 -15 15
-15 0 -15z m-90 5 l0 -19 -25 -6 -25 -6 0 -9 0 -9 14 -5 15 -6 -6 15 -5 14 16
0 16 0 0 -39 0 -40 -21 -6 -21 -7 -6 7 -7 7 -1 52 -1 52 21 11 21 11 8 1 7 1
0 -19z m830 -6 l0 -15 -25 0 -25 0 0 9 0 9 13 5 12 5 13 1 12 1 0 -15z m-450
-30 l0 -15 -135 0 -135 0 0 15 0 15 135 0 135 0 0 -15z m210 0 l0 -15 -100 0
-100 0 0 15 0 15 100 0 100 0 0 -15z m27 -7 l-5 -13 -1 19 -1 19 6 -6 6 -6 -5
-13z m-527 -13 l0 -25 -9 0 -9 0 -6 16 -6 16 0 9 0 9 15 0 15 0 0 -25z m650
15 l0 -10 -15 0 -15 0 0 10 0 10 15 0 15 0 0 -10z m40 0 l0 -10 -15 0 -15 0 0
10 0 10 15 0 15 0 0 -10z m50 0 l0 -10 -15 0 -15 0 0 10 0 10 15 0 15 0 0 -10z
m40 0 l0 -10 -15 0 -15 0 0 10 0 10 15 0 15 0 0 -10z m40 0 l0 -10 -10 0 -10
0 0 10 0 10 10 0 10 0 0 -10z m50 0 l0 -10 -15 0 -15 0 0 10 0 10 15 0 15 0 0
-10z m-769 -32 l1 -13 5 13 5 12 44 0 44 0 1 -12 1 -13 5 13 5 12 78 0 78 0 6
-12 6 -13 6 13 6 12 69 0 69 0 0 -28 0 -28 -255 -2 -255 -1 0 29 0 30 40 0 40
0 1 -12z m769 2 l0 -10 -130 0 -130 0 0 10 0 10 130 0 130 0 0 -10z m-900 -30
l0 -8 -15 -6 -15 -5 0 19 0 19 15 -5 15 -6 0 -8z m900 0 l0 -10 -130 0 -130 0
0 10 0 10 130 0 130 0 0 -10z m70 -50 l0 -10 -590 0 -590 0 0 10 0 10 590 0
590 0 0 -10z m-1090 -45 l0 -15 -15 0 -15 0 0 15 0 15 15 0 15 0 0 -15z m40 0
l0 -15 -15 0 -15 0 0 15 0 15 15 0 15 0 0 -15z m80 0 l0 -15 -15 0 -15 0 0 15
0 15 15 0 15 0 0 -15z m40 0 l0 -15 -15 0 -15 0 0 15 0 15 15 0 15 0 0 -15z
m40 0 l0 -15 -15 0 -15 0 0 15 0 15 15 0 15 0 0 -15z m50 0 l0 -15 -15 0 -15
0 0 15 0 15 15 0 15 0 0 -15z m70 0 l0 -15 -15 0 -15 0 0 15 0 15 15 0 15 0 0
-15z m40 0 l0 -15 -15 0 -15 0 0 15 0 15 15 0 15 0 0 -15z m50 0 l0 -15 -15 0
-15 0 0 15 0 15 15 0 15 0 0 -15z m40 0 l0 -15 -15 0 -15 0 0 15 0 15 15 0 15
0 0 -15z m40 0 l0 -15 -10 0 -10 0 0 15 0 15 10 0 10 0 0 -15z m57 -7 l-5 -13
-1 19 -1 19 6 -6 6 -6 -5 -13z m53 7 l0 -15 -15 0 -15 0 0 15 0 15 15 0 15 0
0 -15z m40 0 l0 -15 -15 0 -15 0 0 15 0 15 15 0 15 0 0 -15z m40 0 l0 -15 -15
0 -15 0 0 15 0 15 15 0 15 0 0 -15z m50 0 l0 -15 -15 0 -15 0 0 15 0 15 15 0
15 0 0 -15z m40 0 l0 -15 -15 0 -15 0 0 15 0 15 15 0 15 0 0 -15z m70 0 l0
-15 -15 0 -15 0 0 15 0 15 15 0 15 0 0 -15z m60 0 l0 -15 -20 0 -20 0 0 15 0
15 20 0 20 0 0 -15z m50 0 l0 -15 -15 0 -15 0 0 15 0 15 15 0 15 0 0 -15z m40
0 l0 -15 -15 0 -15 0 0 15 0 15 15 0 15 0 0 -15z m60 0 l0 -15 -25 0 -25 0 0
15 0 15 25 0 25 0 0 -15z m40 -35 l0 -10 -590 0 -590 0 0 10 0 10 590 0 590 0
0 -10z m-824 -50 l14 0 0 -10 0 -10 -55 0 -55 0 0 9 0 9 25 6 25 6 0 11 0 10
16 -15 15 -16 15 0z m244 20 l0 -10 78 0 77 0 23 -6 22 -6 0 -9 0 -9 -190 0
-190 0 0 9 0 9 25 6 25 6 0 10 0 10 65 0 65 0 0 -10z m336 -20 l14 0 0 -10 0
-10 -50 0 -50 0 0 10 0 10 15 0 16 0 5 15 6 14 15 -14 14 -15 15 0z"/>
<path d="M170 1070 l0 -10 15 0 15 0 0 10 0 10 -15 0 -15 0 0 -10z"/>
<path d="M170 850 l0 -10 10 0 10 0 0 10 0 10 -10 0 -10 0 0 -10z"/>
<path d="M373 863 l-13 -5 0 -9 0 -9 9 0 9 0 6 15 5 15 -2 -1 -2 -1 -12 -5z"/>
<path d="M490 850 l0 -10 10 0 10 0 0 10 0 10 -10 0 -10 0 0 -10z"/>
</g>
</svg>
