<?xml version="1.0" standalone="no"?>
<!DOCTYPE svg PUBLIC "-//W3C//DTD SVG 20010904//EN"
 "http://www.w3.org/TR/2001/REC-SVG-20010904/DTD/svg10.dtd">
<svg version="1.0" xmlns="http://www.w3.org/2000/svg"
 width="468pt" height="468pt" viewBox="0 0 468 468"
 preserveAspectRatio="xMidYMid meet">
<metadata>
Created by potrace 1.8, written by Peter Selinger 2001-2007
</metadata>
<g transform="translate(0,468) scale(0.365625,-0.365625)"
fill="#000000" stroke="none">
<path d="M60 980 l0 -300 15 0 15 0 0 -25 0 -25 10 0 10 0 0 -130 0 -130 15 0
15 0 0 -45 0 -45 15 0 15 0 0 -10 0 -10 55 0 55 0 0 10 0 10 15 0 15 0 0 15 0
15 30 0 30 0 0 15 0 15 15 0 15 0 0 15 0 15 15 0 15 0 0 30 0 30 15 0 15 0 0
-30 0 -30 10 0 10 0 0 -45 0 -45 15 0 15 0 0 -40 0 -40 -15 0 -15 0 0 -15 0
-15 -100 0 -100 0 0 15 0 15 -110 0 -110 0 0 -15 0 -15 -15 0 -15 0 0 -70 0
-70 15 0 15 0 0 -15 0 -15 15 0 15 0 0 15 0 15 -15 0 -15 0 0 70 0 70 110 0
110 0 0 -15 0 -15 100 0 100 0 0 15 0 15 15 0 15 0 0 15 0 15 15 0 15 0 0 40
0 40 -15 0 -15 0 0 45 0 45 45 0 45 0 0 15 0 15 -30 0 -30 0 0 15 0 15 -30 0
-30 0 0 25 0 25 -25 0 -25 0 0 -10 0 -10 -15 0 -15 0 0 -30 0 -30 -15 0 -15 0
0 -15 0 -15 -15 0 -15 0 0 -15 0 -15 -30 0 -30 0 0 -15 0 -15 -10 0 -10 0 0
-15 0 -15 -45 0 -45 0 0 45 0 45 -15 0 -15 0 0 100 0 100 15 0 15 0 0 -55 0
-55 15 0 15 0 0 -30 0 -30 15 0 15 0 0 -30 0 -30 15 0 15 0 0 30 0 30 10 0 10
0 0 15 0 15 30 0 30 0 0 25 0 25 15 0 15 0 0 15 0 15 15 0 15 0 0 15 0 15 70
0 70 0 0 15 0 15 15 0 15 0 0 15 0 15 15 0 15 0 0 25 0 25 15 0 15 0 0 30 0
30 -15 0 -15 0 0 -30 0 -30 -15 0 -15 0 0 -10 0 -10 -45 0 -45 0 0 10 0 10 15
0 15 0 0 15 0 15 15 0 15 0 0 15 0 15 -15 0 -15 0 0 -15 0 -15 -25 0 -25 0 0
15 0 15 -15 0 -15 0 0 30 0 30 15 0 15 0 0 -15 0 -15 25 0 25 0 0 15 0 15 30
0 30 0 0 15 0 15 -55 0 -55 0 0 10 0 10 25 0 25 0 0 15 0 15 15 0 15 0 0 -15
0 -15 15 0 15 0 0 15 0 15 15 0 15 0 0 -15 0 -15 15 0 15 0 0 15 0 15 10 0 10
0 0 15 0 15 -10 0 -10 0 0 -15 0 -15 -15 0 -15 0 0 15 0 15 15 0 15 0 0 15 0
15 -15 0 -15 0 0 -15 0 -15 -15 0 -15 0 0 15 0 15 -15 0 -15 0 0 -15 0 -15
-15 0 -15 0 0 -15 0 -15 -40 0 -40 0 0 30 0 30 15 0 15 0 0 -15 0 -15 25 0 25
0 0 15 0 15 -15 0 -15 0 0 15 0 15 -25 0 -25 0 0 -15 0 -15 -15 0 -15 0 0 -45
0 -45 15 0 15 0 0 -25 0 -25 -15 0 -15 0 0 -45 0 -45 30 0 30 0 0 -25 0 -25
10 0 10 0 0 -15 0 -15 30 0 30 0 0 -15 0 -15 -70 0 -70 0 0 -15 0 -15 -15 0
-15 0 0 -15 0 -15 -15 0 -15 0 0 -15 0 -15 -15 0 -15 0 0 -10 0 -10 -15 0 -15
0 0 -15 0 -15 -10 0 -10 0 0 -15 0 -15 -15 0 -15 0 0 30 0 30 -15 0 -15 0 0
55 0 55 15 0 15 0 0 15 0 15 15 0 15 0 0 11 0 10 14 15 15 14 10 0 11 0 0 15
0 15 30 0 30 0 0 15 0 15 -15 0 -15 0 0 15 0 15 15 0 15 0 0 15 0 15 -15 0
-15 0 0 15 0 15 15 0 15 0 0 10 0 10 -15 0 -15 0 0 15 0 15 15 0 15 0 0 15 0
15 -15 0 -15 0 0 15 0 15 15 0 15 0 0 15 0 15 15 0 15 0 0 15 0 15 15 0 15 0
0 15 0 15 15 0 15 0 0 -15 0 -15 10 0 10 0 0 -15 0 -15 15 0 15 0 0 -15 0 -15
15 0 15 0 0 15 0 15 15 0 15 0 0 -15 0 -15 15 0 15 0 0 15 0 15 15 0 15 0 0
-15 0 -15 10 0 10 0 0 -15 0 -15 15 0 15 0 0 -15 0 -15 -15 0 -15 0 0 -25 0
-25 -10 0 -10 0 0 -15 0 -15 10 0 10 0 0 -15 0 -15 -10 0 -10 0 0 -15 0 -15
10 0 10 0 0 -15 0 -15 30 0 30 0 0 -15 0 -15 44 0 44 0 6 -12 6 -13 6 13 6 12
14 0 14 0 0 15 0 15 45 0 45 0 0 -15 0 -15 15 0 15 0 0 -10 0 -10 15 0 15 0 0
-45 0 -45 10 0 10 0 0 15 0 15 30 0 30 0 0 -15 0 -15 15 0 15 0 0 -15 0 -15
15 0 15 0 0 -25 0 -25 15 0 15 0 0 -15 0 -15 10 0 10 0 0 -15 0 -15 15 0 15 0
0 -15 0 -15 -15 0 -15 0 0 -15 0 -15 -10 0 -10 0 0 -15 0 -15 -15 0 -15 0 0
-15 0 -15 -15 0 -15 0 0 -10 0 -10 -30 0 -30 0 0 -15 0 -15 -15 0 -15 0 0 -15
0 -15 -10 0 -10 0 0 -15 0 -15 -30 0 -30 0 0 15 0 15 -15 0 -15 0 0 15 0 15
-30 0 -30 0 0 15 0 15 -15 0 -15 0 0 -15 0 -15 15 0 15 0 0 -30 0 -30 15 0 15
0 0 -15 0 -15 15 0 15 0 0 -15 0 -15 30 0 30 0 0 -10 0 -10 15 0 15 0 0 -15 0
-15 10 0 10 0 0 -15 0 -15 15 0 15 0 0 -15 0 -15 15 0 15 0 0 15 0 15 -15 0
-15 0 0 15 0 15 -15 0 -15 0 0 11 0 10 -14 15 -15 14 -10 0 -11 0 0 15 0 15
25 0 25 0 0 -15 0 -15 15 0 15 0 0 -10 0 -10 15 0 15 0 0 10 0 10 15 0 15 0 0
15 0 15 15 0 15 0 0 15 0 15 -15 0 -15 0 0 15 0 15 -15 0 -15 0 0 15 0 15 30
0 30 0 0 -15 0 -15 15 0 15 0 0 -15 0 -15 10 0 10 0 0 -15 0 -15 15 0 15 0 0
-15 0 -15 15 0 15 0 0 -10 0 -10 -15 0 -15 0 0 -15 0 -15 -15 0 -15 0 0 -15 0
-15 -10 0 -10 0 0 -15 0 -15 10 0 10 0 0 15 0 15 15 0 15 0 0 15 0 15 15 0 15
0 0 15 0 15 15 0 15 0 0 10 0 10 -15 0 -15 0 0 15 0 15 -15 0 -15 0 0 15 0 15
-15 0 -15 0 0 15 0 15 -10 0 -10 0 0 15 0 15 -15 0 -15 0 0 25 0 25 15 0 15 0
0 15 0 15 10 0 10 0 0 15 0 15 15 0 15 0 0 15 0 15 15 0 15 0 0 15 0 15 -15 0
-15 0 0 15 0 15 -15 0 -15 0 0 15 0 15 -10 0 -10 0 0 25 0 25 -15 0 -15 0 0
15 0 15 -15 0 -15 0 0 15 0 15 -15 0 -15 0 0 15 0 15 -30 0 -30 0 0 11 0 10
-14 15 -15 14 -10 0 -11 0 0 15 0 15 -15 0 -15 0 0 15 0 15 -30 0 -30 0 0 45
0 45 15 0 15 0 0 25 0 25 -15 0 -15 0 0 -15 0 -15 -15 0 -15 0 0 -10 0 -10
-15 0 -15 0 0 -15 0 -15 15 0 15 0 0 -30 0 -30 -85 0 -85 0 0 30 0 30 15 0 15
0 0 -15 0 -15 30 0 30 0 0 15 0 15 15 0 15 0 0 15 0 15 -15 0 -15 0 0 10 0 10
15 0 15 0 0 15 0 15 10 0 10 0 0 15 0 15 -25 0 -25 0 0 -30 0 -30 -15 0 -15 0
0 -10 0 -10 -15 0 -15 0 0 25 0 25 15 0 15 0 0 30 0 30 -15 0 -15 0 0 15 0 15
-15 0 -15 0 0 15 0 15 15 0 15 0 0 15 0 15 15 0 15 0 0 -15 0 -15 15 0 15 0 0
-15 0 -15 15 0 15 0 0 -15 0 -15 10 0 10 0 0 140 0 140 -10 0 -10 0 0 15 0 15
-330 0 -330 0 0 -15 0 -15 -15 0 -15 0 0 -210 0 -210 15 0 15 0 0 -15 0 -15
60 0 60 0 0 -15 0 -15 -85 0 -85 0 0 270 0 270 380 0 380 0 0 -185 0 -185 15
0 15 0 0 200 0 200 -410 0 -410 0 0 -300z m140 200 l0 -10 15 0 15 0 0 10 0
10 14 0 14 0 6 -12 6 -13 6 13 6 12 14 0 14 0 0 -10 0 -10 15 0 15 0 0 10 0
10 15 0 15 0 0 -10 0 -10 15 0 15 0 0 10 0 10 15 0 15 0 0 -10 0 -10 14 0 14
0 6 13 6 12 6 -12 6 -13 14 0 14 0 0 10 0 10 15 0 15 0 0 -10 0 -10 15 0 15 0
0 10 0 10 15 0 15 0 0 -10 0 -10 14 0 14 0 6 13 6 12 6 -12 6 -13 14 0 14 0 0
10 0 10 15 0 15 0 0 -10 0 -10 15 0 15 0 0 10 0 10 15 0 15 0 0 -10 0 -10 15
0 15 0 0 -15 0 -15 -15 0 -15 0 0 -15 0 -15 15 0 15 0 0 -15 0 -15 -15 0 -15
0 0 -15 0 -15 15 0 15 0 0 -15 0 -15 -15 0 -15 0 0 -10 0 -10 15 0 15 0 0 -15
0 -15 -15 0 -15 0 0 15 0 15 -15 0 -15 0 0 10 0 10 -15 0 -15 0 0 -10 0 -10
-15 0 -15 0 0 -15 0 -15 -100 0 -100 0 0 11 0 10 -14 15 -15 14 -10 0 -11 0 0
-10 0 -10 -15 0 -15 0 0 -15 0 -15 -15 0 -15 0 0 -15 0 -15 -15 0 -15 0 0 -15
0 -15 -15 0 -15 0 0 -15 0 -15 15 0 15 0 0 -15 0 -15 -15 0 -15 0 0 -15 0 -15
15 0 15 0 0 -10 0 -10 -15 0 -15 0 0 -15 0 -15 15 0 15 0 0 -15 0 -15 -40 0
-40 0 0 15 0 15 10 0 10 0 0 15 0 15 15 0 15 0 0 10 0 10 -15 0 -15 0 0 15 0
15 -10 0 -10 0 0 -15 0 -15 -15 0 -15 0 0 -10 0 -10 15 0 15 0 0 -15 0 -15
-15 0 -15 0 0 15 0 15 -15 0 -15 0 0 -15 0 -15 -15 0 -15 0 0 15 0 15 -15 0
-15 0 0 10 0 10 15 0 15 0 0 15 0 15 -15 0 -15 0 0 15 0 15 15 0 15 0 0 15 0
15 -15 0 -15 0 0 15 0 15 15 0 15 0 0 15 0 15 -15 0 -15 0 0 15 0 15 15 0 15
0 0 10 0 10 -15 0 -15 0 0 15 0 15 15 0 15 0 0 15 0 15 -15 0 -15 0 0 15 0 15
15 0 15 0 0 15 0 15 -15 0 -15 0 0 15 0 15 15 0 15 0 0 10 0 10 15 0 15 0 0
-10z m370 -315 l0 -15 -15 0 -15 0 0 15 0 15 15 0 15 0 0 -15z m-290 -55 l0
-10 -10 0 -10 0 0 10 0 10 10 0 10 0 0 -10z m490 -25 l0 -15 -15 0 -15 0 0 15
0 15 15 0 15 0 0 -15z m-460 -90 l0 -15 -15 0 -15 0 0 -11 0 -10 -14 -15 -15
-14 -25 0 -26 0 0 10 0 10 -15 0 -15 0 0 -10 0 -10 15 0 15 0 0 -15 0 -15 -30
0 -30 0 0 15 0 15 -15 0 -15 0 0 25 0 25 75 0 75 0 0 15 0 15 25 0 25 0 0 -15z
m600 -510 l0 -15 15 0 15 0 0 -15 0 -15 -15 0 -15 0 0 15 0 15 -15 0 -15 0 0
15 0 15 15 0 15 0 0 -15z"/>
<path d="M170 1155 l0 -15 15 0 15 0 0 15 0 15 -15 0 -15 0 0 -15z"/>
<path d="M340 1155 l0 -15 15 0 15 0 0 -15 0 -15 -15 0 -15 0 0 -15 0 -15 -15
0 -15 0 0 -15 0 -15 -15 0 -15 0 0 15 0 15 -10 0 -10 0 0 -15 0 -15 -15 0 -15
0 0 15 0 15 -15 0 -15 0 0 15 0 15 -15 0 -15 0 0 -15 0 -15 15 0 15 0 0 -15 0
-15 -15 0 -15 0 0 -15 0 -15 15 0 15 0 0 -10 0 -10 -15 0 -15 0 0 -15 0 -15
15 0 15 0 0 -15 0 -15 -15 0 -15 0 0 -15 0 -15 15 0 15 0 0 -15 0 -15 -15 0
-15 0 0 -15 0 -15 15 0 15 0 0 -15 0 -15 -15 0 -15 0 0 -10 0 -10 15 0 15 0 0
10 0 10 15 0 15 0 0 15 0 15 15 0 15 0 0 15 0 15 10 0 10 0 0 -15 0 -15 15 0
15 0 0 15 0 15 -15 0 -15 0 0 15 0 15 15 0 15 0 0 15 0 15 15 0 15 0 0 15 0
15 15 0 15 0 0 15 0 15 15 0 15 0 0 10 0 10 15 0 15 0 0 15 0 15 15 0 15 0 0
-11 0 -10 14 -15 15 -14 10 0 11 0 0 10 0 10 15 0 15 0 0 -10 0 -10 15 0 15 0
0 10 0 10 15 0 15 0 0 -10 0 -10 14 0 14 0 6 13 6 12 6 -12 6 -13 14 0 14 0 0
10 0 10 15 0 15 0 0 15 0 15 15 0 15 0 0 -15 0 -15 15 0 15 0 0 15 0 15 -15 0
-15 0 0 15 0 15 15 0 15 0 0 15 0 15 -15 0 -15 0 0 15 0 15 15 0 15 0 0 15 0
15 -15 0 -15 0 0 -15 0 -15 -15 0 -15 0 0 15 0 15 -15 0 -15 0 0 -15 0 -15
-15 0 -15 0 0 15 0 15 -10 0 -10 0 0 -15 0 -15 -15 0 -15 0 0 15 0 15 -15 0
-15 0 0 -15 0 -15 -15 0 -15 0 0 15 0 15 -15 0 -15 0 0 -15 0 -15 -15 0 -15 0
0 15 0 15 -10 0 -10 0 0 -15 0 -15 -15 0 -15 0 0 15 0 15 -15 0 -15 0 0 -15 0
-15 -15 0 -15 0 0 15 0 15 -15 0 -15 0 0 -15z m90 -30 l0 -15 15 0 15 0 0 15
0 15 10 0 10 0 0 -15 0 -15 15 0 15 0 0 15 0 15 15 0 15 0 0 -15 0 -15 15 0
15 0 0 15 0 15 15 0 15 0 0 -15 0 -15 15 0 15 0 0 15 0 15 10 0 10 0 0 -15 0
-15 15 0 15 0 0 15 0 15 15 0 15 0 0 -15 0 -15 15 0 15 0 0 -15 0 -15 -15 0
-15 0 0 -15 0 -15 -15 0 -15 0 0 -15 0 -15 -15 0 -15 0 0 15 0 15 -10 0 -10 0
0 -15 0 -15 -15 0 -15 0 0 15 0 15 -15 0 -15 0 0 -15 0 -15 -15 0 -15 0 0 15
0 15 -15 0 -15 0 0 -15 0 -15 -15 0 -15 0 0 15 0 15 -10 0 -10 0 0 15 0 15
-15 0 -15 0 0 -15 0 -15 -15 0 -15 0 0 -15 0 -15 -15 0 -15 0 0 -10 0 -10 -15
0 -15 0 0 -15 0 -15 -15 0 -15 0 0 -15 0 -15 -15 0 -15 0 0 -15 0 -15 -10 0
-10 0 0 -15 0 -15 -15 0 -15 0 0 -15 0 -15 -15 0 -15 0 0 15 0 15 15 0 15 0 0
15 0 15 -15 0 -15 0 0 15 0 15 15 0 15 0 0 15 0 15 -15 0 -15 0 0 15 0 15 15
0 15 0 0 10 0 10 -15 0 -15 0 0 15 0 15 15 0 15 0 0 -15 0 -15 15 0 15 0 0 15
0 15 10 0 10 0 0 -15 0 -15 15 0 15 0 0 15 0 15 15 0 15 0 0 15 0 15 15 0 15
0 0 15 0 15 15 0 15 0 0 15 0 15 15 0 15 0 0 -15z"/>
<path d="M400 1095 l0 -15 -15 0 -15 0 0 -15 0 -15 -15 0 -15 0 0 -15 0 -15
-15 0 -15 0 0 -10 0 -10 -14 0 -14 0 -6 13 -6 12 -6 -12 -6 -13 -14 0 -14 0 0
-15 0 -15 15 0 15 0 0 -15 0 -15 -15 0 -15 0 0 -15 0 -15 15 0 15 0 0 15 0 15
10 0 10 0 0 15 0 15 15 0 15 0 0 15 0 15 15 0 15 0 0 10 0 10 15 0 15 0 0 15
0 15 15 0 15 0 0 15 0 15 15 0 15 0 0 15 0 15 -15 0 -15 0 0 -15z m-120 -110
l0 -15 -10 0 -10 0 0 15 0 15 10 0 10 0 0 -15z"/>
<path d="M460 1095 l0 -15 10 0 10 0 0 -15 0 -15 15 0 15 0 0 15 0 15 15 0 15
0 0 -15 0 -15 15 0 15 0 0 15 0 15 15 0 15 0 0 -15 0 -15 15 0 15 0 0 15 0 15
10 0 10 0 0 -15 0 -15 15 0 15 0 0 15 0 15 15 0 15 0 0 15 0 15 -15 0 -15 0 0
-15 0 -15 -15 0 -15 0 0 15 0 15 -10 0 -10 0 0 -15 0 -15 -15 0 -15 0 0 15 0
15 -15 0 -15 0 0 -15 0 -15 -15 0 -15 0 0 15 0 15 -15 0 -15 0 0 -15 0 -15
-15 0 -15 0 0 15 0 15 -10 0 -10 0 0 -15z"/>
<path d="M820 836 l0 -14 -12 -5 -13 -4 9 -9 9 -9 4 13 5 12 14 0 14 0 0 15 0
15 -15 0 -15 0 0 -14z"/>
<path d="M740 615 l0 -15 30 0 30 0 0 15 0 15 -30 0 -30 0 0 -15z"/>
<path d="M820 615 l0 -15 15 0 15 0 0 15 0 15 -15 0 -15 0 0 -15z"/>
<path d="M650 555 l0 -15 -10 0 -10 0 0 -70 0 -70 10 0 10 0 0 -15 0 -15 30 0
30 0 0 -15 0 -15 15 0 15 0 0 -15 0 -15 15 0 15 0 0 -15 0 -15 -15 0 -15 0 0
-10 0 -10 -15 0 -15 0 0 -15 0 -15 -15 0 -15 0 0 -15 0 -15 15 0 15 0 0 15 0
15 15 0 15 0 0 15 0 15 15 0 15 0 0 -30 0 -30 15 0 15 0 0 -45 0 -45 10 0 10
0 0 -55 0 -55 15 0 15 0 0 55 0 55 -15 0 -15 0 0 45 0 45 -10 0 -10 0 0 29 0
29 13 6 12 6 -12 6 -13 6 0 14 0 14 -15 0 -15 0 0 15 0 15 -15 0 -15 0 0 15 0
15 -15 0 -15 0 0 15 0 15 -15 0 -15 0 0 15 0 15 15 0 15 0 0 15 0 15 15 0 15
0 0 10 0 10 15 0 15 0 0 15 0 15 15 0 15 0 0 15 0 15 10 0 10 0 0 -15 0 -15
15 0 15 0 0 -15 0 -15 15 0 15 0 0 -10 0 -10 15 0 15 0 0 -15 0 -15 15 0 15 0
0 -15 0 -15 15 0 15 0 0 -15 0 -15 15 0 15 0 0 -30 0 -30 -15 0 -15 0 0 15 0
15 -15 0 -15 0 0 15 0 15 -15 0 -15 0 0 15 0 15 -15 0 -15 0 0 15 0 15 -15 0
-15 0 0 15 0 15 -14 0 -14 0 -6 13 -6 12 -6 -12 -6 -13 -14 0 -14 0 0 -30 0
-30 15 0 15 0 0 -15 0 -15 10 0 10 0 0 -15 0 -15 15 0 15 0 0 -30 0 -30 15 0
15 0 0 -10 0 -10 15 0 15 0 0 -15 0 -15 30 0 30 0 0 15 0 15 15 0 15 0 0 25 0
25 10 0 10 0 0 15 0 15 15 0 15 0 0 15 0 15 15 0 15 0 0 15 0 15 15 0 15 0 0
15 0 15 -15 0 -15 0 0 -15 0 -15 -15 0 -15 0 0 15 0 15 -15 0 -15 0 0 11 0 10
-14 15 -15 14 -10 0 -11 0 0 15 0 15 -15 0 -15 0 0 15 0 15 -15 0 -15 0 0 15
0 15 -30 0 -30 0 0 -15 0 -15 -15 0 -15 0 0 15 0 15 -10 0 -10 0 0 -15 0 -15
-15 0 -15 0 0 -15 0 -15 -15 0 -15 0 0 -15 0 -15 -15 0 -15 0 0 -10 0 -10 -15
0 -15 0 0 -15 0 -15 -15 0 -15 0 0 55 0 55 15 0 15 0 0 15 0 15 -15 0 -15 0 0
-15z m230 -30 l0 -15 -15 0 -15 0 0 15 0 15 15 0 15 0 0 -15z m60 -30 l0 -15
15 0 15 0 0 -10 0 -10 15 0 15 0 0 -15 0 -15 10 0 10 0 0 -15 0 -15 15 0 15 0
0 -15 0 -15 -25 0 -25 0 0 15 0 15 -15 0 -15 0 0 15 0 15 -15 0 -15 0 0 15 0
15 -15 0 -15 0 0 25 0 25 15 0 15 0 0 -15z"/>
<path d="M1140 385 l0 -15 -15 0 -15 0 0 -15 0 -15 15 0 15 0 0 15 0 15 15 0
15 0 0 15 0 15 -15 0 -15 0 0 -15z"/>
<path d="M570 185 l0 -15 15 0 15 0 0 15 0 15 -15 0 -15 0 0 -15z"/>
<path d="M1140 125 l0 -15 -15 0 -15 0 0 -10 0 -10 -15 0 -15 0 0 -15 0 -15
15 0 15 0 0 -15 0 -15 15 0 15 0 0 15 0 15 15 0 15 0 0 14 0 14 13 6 12 6 -12
6 -13 6 0 14 0 14 -15 0 -15 0 0 -15z"/>
<path d="M140 85 l0 -25 15 0 15 0 0 -15 0 -15 15 0 15 0 0 -15 0 -15 15 0 15
0 0 15 0 15 15 0 15 0 0 -15 0 -15 40 0 40 0 0 15 0 15 -40 0 -40 0 0 15 0 15
-15 0 -15 0 0 15 0 15 -30 0 -30 0 0 10 0 10 -15 0 -15 0 0 -25z"/>
<path d="M480 75 l0 -15 -10 0 -10 0 0 -15 0 -15 -15 0 -15 0 0 -15 0 -15 25
0 25 0 0 15 0 15 15 0 15 0 0 15 0 15 15 0 15 0 0 -15 0 -15 -15 0 -15 0 0
-15 0 -15 30 0 30 0 0 15 0 15 30 0 30 0 0 15 0 15 10 0 10 0 0 15 0 15 -85 0
-85 0 0 -15z"/>
</g>
</svg>
