<?xml version="1.0" standalone="no"?>
<!DOCTYPE svg PUBLIC "-//W3C//DTD SVG 20010904//EN"
 "http://www.w3.org/TR/2001/REC-SVG-20010904/DTD/svg10.dtd">
<svg version="1.0" xmlns="http://www.w3.org/2000/svg"
 width="468pt" height="468pt" viewBox="0 0 468 468"
 preserveAspectRatio="xMidYMid meet">
<metadata>
Created by potrace 1.8, written by Peter Selinger 2001-2007
</metadata>
<g transform="translate(0,468) scale(0.365625,-0.365625)"
fill="#000000" stroke="none">
<path d="M520 1265 l0 -15 -25 0 -25 0 0 -15 0 -15 -15 0 -15 0 0 15 0 15 -30
0 -30 0 0 -15 0 -15 -60 0 -60 0 0 -15 0 -15 -15 0 -15 0 0 -85 0 -85 -15 0
-15 0 0 -30 0 -30 -15 0 -15 0 0 -15 0 -15 -10 0 -10 0 0 -30 0 -30 -15 0 -15
0 0 -30 0 -30 -15 0 -15 0 0 -25 0 -25 -15 0 -15 0 0 -30 0 -30 -15 0 -15 0 0
-30 0 -30 -15 0 -15 0 0 -45 0 -45 15 0 15 0 0 -15 0 -15 30 0 30 0 0 -15 0
-15 26 0 25 0 15 -14 14 -15 0 -10 0 -11 15 0 15 0 0 -30 0 -30 15 0 15 0 0
-15 0 -15 15 0 15 0 0 -15 0 -15 30 0 30 0 0 -15 0 -15 15 0 15 0 0 -30 0 -30
15 0 15 0 0 -30 0 -30 15 0 15 0 0 -10 0 -10 -15 0 -15 0 0 -15 0 -15 -60 0
-60 0 0 -15 0 -15 -15 0 -15 0 0 -15 0 -15 -15 0 -15 0 0 -30 0 -30 15 0 15 0
0 30 0 30 30 0 30 0 0 15 0 15 30 0 30 0 0 -15 0 -15 15 0 15 0 0 -15 0 -15
15 0 15 0 0 15 0 15 -15 0 -15 0 0 30 0 30 15 0 15 0 0 -15 0 -15 30 0 30 0 0
29 0 29 13 6 12 6 -12 6 -13 6 0 29 0 29 -15 0 -15 0 0 30 0 30 15 0 15 0 0
15 0 15 25 0 25 0 0 15 0 15 15 0 15 0 0 15 0 15 15 0 15 0 0 15 0 15 -15 0
-15 0 0 30 0 30 15 0 15 0 0 25 0 25 30 0 30 0 0 75 0 75 -15 0 -15 0 0 30 0
30 -45 0 -45 0 0 -15 0 -15 -25 0 -25 0 0 -30 0 -30 10 0 10 0 0 -30 0 -30
-10 0 -10 0 0 30 0 30 -15 0 -15 0 0 -15 0 -15 -15 0 -15 0 0 -15 0 -15 15 0
15 0 0 -15 0 -15 40 0 40 0 0 -15 0 -15 15 0 15 0 0 -15 0 -15 -15 0 -15 0 0
-10 0 -10 -40 0 -40 0 0 10 0 10 -30 0 -30 0 0 -10 0 -10 30 0 30 0 0 -15 0
-15 25 0 25 0 0 -15 0 -15 15 0 15 0 0 -30 0 -30 -40 0 -40 0 0 15 0 15 -30 0
-30 0 0 15 0 15 -15 0 -15 0 0 15 0 15 -15 0 -15 0 0 -15 0 -15 15 0 15 0 0
-15 0 -15 15 0 15 0 0 -15 0 -15 15 0 15 0 0 -30 0 -30 -30 0 -30 0 0 15 0 15
-15 0 -15 0 0 15 0 15 -30 0 -30 0 0 15 0 15 -15 0 -15 0 0 30 0 30 -15 0 -15
0 0 55 0 55 15 0 15 0 0 30 0 30 30 0 30 0 0 15 0 15 45 0 45 0 0 15 0 15 15
0 15 0 0 15 0 15 30 0 30 0 0 15 0 15 10 0 10 0 0 15 0 15 150 0 150 0 0 -105
0 -105 -30 0 -30 0 0 -15 0 -15 -15 0 -15 0 0 -25 0 -25 15 0 15 0 0 -15 0
-15 15 0 15 0 0 -15 0 -15 -15 0 -15 0 0 -15 0 -15 -15 0 -15 0 0 15 0 15 -15
0 -15 0 0 -15 0 -15 -15 0 -15 0 0 15 0 15 -15 0 -15 0 0 -15 0 -15 -15 0 -15
0 0 -15 0 -15 -15 0 -15 0 0 -15 0 -15 75 0 75 0 0 15 0 15 30 0 30 0 0 -15 0
-15 40 0 40 0 0 -15 0 -15 15 0 15 0 0 -15 0 -15 -15 0 -15 0 0 -30 0 -30 -15
0 -15 0 0 -15 0 -15 -10 0 -10 0 0 -25 0 -25 10 0 10 0 0 -15 0 -15 30 0 30 0
0 15 0 15 30 0 30 0 0 -15 0 -15 -15 0 -15 0 0 -15 0 -15 -30 0 -30 0 0 -15 0
-15 30 0 30 0 0 15 0 15 15 0 15 0 0 15 0 15 60 0 60 0 0 -15 0 -15 15 0 15 0
0 15 0 15 -15 0 -15 0 0 15 0 15 -60 0 -60 0 0 15 0 15 -30 0 -30 0 0 10 0 10
15 0 15 0 0 15 0 15 15 0 15 0 0 30 0 30 15 0 15 0 0 30 0 30 30 0 30 0 0 15
0 15 15 0 15 0 0 15 0 15 15 0 15 0 0 30 0 30 15 0 15 0 0 11 0 10 14 15 15
14 25 0 26 0 0 15 0 15 30 0 30 0 0 15 0 15 15 0 15 0 0 45 0 45 -15 0 -15 0
0 30 0 30 -15 0 -15 0 0 30 0 30 -15 0 -15 0 0 25 0 25 -15 0 -15 0 0 30 0 30
-15 0 -15 0 0 30 0 30 -10 0 -10 0 0 15 0 15 -15 0 -15 0 0 30 0 30 -15 0 -15
0 0 85 0 85 -15 0 -15 0 0 15 0 15 -60 0 -60 0 0 15 0 15 -30 0 -30 0 0 -15 0
-15 -15 0 -15 0 0 15 0 15 -25 0 -25 0 0 15 0 15 -120 0 -120 0 0 -15z m180
-45 l0 -30 55 0 55 0 0 -15 0 -15 15 0 15 0 0 30 0 30 30 0 30 0 0 -115 0
-115 15 0 15 0 0 -60 0 -60 -30 0 -30 0 0 -15 0 -15 -230 0 -230 0 0 15 0 15
-30 0 -30 0 0 60 0 60 15 0 15 0 0 115 0 115 30 0 30 0 0 -30 0 -30 15 0 15 0
0 15 0 15 55 0 55 0 0 30 0 30 60 0 60 0 0 -30z m-350 -130 l0 -100 -15 0 -15
0 0 -60 0 -60 15 0 15 0 0 -15 0 -15 30 0 30 0 0 -15 0 -15 230 0 230 0 0 15
0 15 30 0 30 0 0 15 0 15 15 0 15 0 0 60 0 60 -15 0 -15 0 0 100 0 100 45 0
45 0 0 -100 0 -100 15 0 15 0 0 -45 0 -45 15 0 15 0 0 -55 0 -55 -15 0 -15 0
0 -75 0 -75 -30 0 -30 0 0 15 0 15 -45 0 -45 0 0 45 0 45 -30 0 -30 0 0 -15 0
-15 -15 0 -15 0 0 15 0 15 15 0 15 0 0 15 0 15 -175 0 -175 0 0 -15 0 -15 -25
0 -25 0 0 -15 0 -15 -15 0 -15 0 0 -15 0 -15 -15 0 -15 0 0 -15 0 -15 -45 0
-45 0 0 -15 0 -15 -30 0 -30 0 0 45 0 45 -15 0 -15 0 0 70 0 70 15 0 15 0 0
75 0 75 15 0 15 0 0 85 0 85 45 0 45 0 0 -100z m760 -315 l0 -15 10 0 10 0 0
-30 0 -30 15 0 15 0 0 -30 0 -30 15 0 15 0 0 -15 0 -15 -15 0 -15 0 0 -15 0
-15 -25 0 -25 0 0 -15 0 -15 -15 0 -15 0 0 120 0 120 15 0 15 0 0 -15z m-940
-30 l0 -15 15 0 15 0 0 -45 0 -45 15 0 15 0 0 -15 0 -15 -15 0 -15 0 0 -30 0
-30 -15 0 -15 0 0 15 0 15 -25 0 -25 0 0 15 0 15 -15 0 -15 0 0 15 0 15 15 0
15 0 0 30 0 30 15 0 15 0 0 30 0 30 10 0 10 0 0 -15z m700 -60 l0 -15 15 0 15
0 0 -15 0 -15 45 0 45 0 0 -15 0 -15 30 0 30 0 0 -30 0 -30 15 0 15 0 0 -55 0
-55 -15 0 -15 0 0 -30 0 -30 -15 0 -15 0 0 -15 0 -15 -30 0 -30 0 0 -15 0 -15
-60 0 -60 0 0 15 0 15 30 0 30 0 0 15 0 15 15 0 15 0 0 15 0 15 15 0 15 0 0
15 0 15 -15 0 -15 0 0 -15 0 -15 -15 0 -15 0 0 -15 0 -15 -45 0 -45 0 0 -15 0
-15 -25 0 -25 0 0 30 0 30 15 0 15 0 0 15 0 15 25 0 25 0 0 15 0 15 30 0 30 0
0 10 0 10 -30 0 -30 0 0 -10 0 -10 -55 0 -55 0 0 25 0 25 40 0 40 0 0 15 0 15
15 0 15 0 0 15 0 15 15 0 15 0 0 15 0 15 -15 0 -15 0 0 15 0 15 -15 0 -15 0 0
30 0 30 30 0 30 0 0 -15z m-290 -75 l0 -60 -15 0 -15 0 0 60 0 60 15 0 15 0 0
-60z m260 -15 l0 -15 -15 0 -15 0 0 15 0 15 15 0 15 0 0 -15z m-200 -230 l0
-15 -15 0 -15 0 0 15 0 15 15 0 15 0 0 -15z m60 0 l0 -15 -15 0 -15 0 0 15 0
15 15 0 15 0 0 -15z"/>
<path d="M490 1149 l0 -10 -14 -15 -15 -14 -10 0 -11 0 0 -15 0 -15 15 0 15 0
0 -30 0 -30 10 0 10 0 0 -15 0 -15 45 0 45 0 0 15 0 15 15 0 15 0 0 55 0 55
-15 0 -15 0 0 15 0 15 -45 0 -45 0 0 -11z m60 -29 l0 -10 -15 0 -15 0 0 10 0
10 15 0 15 0 0 -10z m-30 -55 l0 -15 15 0 15 0 0 15 0 15 15 0 15 0 0 -15 0
-15 -15 0 -15 0 0 -15 0 -15 -30 0 -30 0 0 30 0 30 15 0 15 0 0 -15z"/>
<path d="M700 1145 l0 -15 -15 0 -15 0 0 -55 0 -55 15 0 15 0 0 -15 0 -15 45
0 45 0 0 15 0 15 10 0 10 0 0 30 0 30 15 0 15 0 0 15 0 15 -11 0 -10 0 -15 14
-14 15 0 10 0 11 -45 0 -45 0 0 -15z m60 -25 l0 -10 -15 0 -15 0 0 10 0 10 15
0 15 0 0 -10z m-30 -55 l0 -15 15 0 15 0 0 15 0 15 15 0 15 0 0 -30 0 -30 -30
0 -30 0 0 15 0 15 -15 0 -15 0 0 15 0 15 15 0 15 0 0 -15z"/>
<path d="M550 915 l0 -15 30 0 30 0 0 -15 0 -15 30 0 30 0 0 15 0 15 30 0 30
0 0 15 0 15 -30 0 -30 0 0 -15 0 -15 -30 0 -30 0 0 15 0 15 -30 0 -30 0 0 -15z"/>
<path d="M60 1235 l0 -15 15 0 15 0 0 -15 0 -15 15 0 15 0 0 -15 0 -15 15 0
15 0 0 15 0 15 -15 0 -15 0 0 15 0 15 -15 0 -15 0 0 15 0 15 -15 0 -15 0 0
-15z"/>
<path d="M490 135 l0 -15 15 0 15 0 0 -45 0 -45 15 0 15 0 0 -15 0 -15 15 0
15 0 0 15 0 15 15 0 15 0 0 -15 0 -15 15 0 15 0 0 15 0 15 15 0 15 0 0 -15 0
-15 15 0 15 0 0 15 0 15 15 0 15 0 0 -15 0 -15 15 0 15 0 0 30 0 30 15 0 15 0
0 30 0 30 -15 0 -15 0 0 -30 0 -30 -30 0 -30 0 0 -15 0 -15 -15 0 -15 0 0 15
0 15 -15 0 -15 0 0 -15 0 -15 -15 0 -15 0 0 15 0 15 -30 0 -30 0 0 30 0 30
-15 0 -15 0 0 15 0 15 -15 0 -15 0 0 -15z"/>
<path d="M1110 45 l0 -15 -15 0 -15 0 0 -15 0 -15 15 0 15 0 0 15 0 15 10 0
10 0 0 -15 0 -15 15 0 15 0 0 15 0 15 15 0 15 0 0 15 0 15 -15 0 -15 0 0 -15
0 -15 -15 0 -15 0 0 15 0 15 -10 0 -10 0 0 -15z"/>
<path d="M1220 45 l0 -15 15 0 15 0 0 -15 0 -15 15 0 15 0 0 15 0 15 -15 0
-15 0 0 15 0 15 -15 0 -15 0 0 -15z"/>
<path d="M90 15 l0 -15 15 0 15 0 0 15 0 15 -15 0 -15 0 0 -15z"/>
<path d="M150 15 l0 -15 10 0 10 0 0 15 0 15 -10 0 -10 0 0 -15z"/>
</g>
</svg>
