<?xml version="1.0" standalone="no"?>
<!DOCTYPE svg PUBLIC "-//W3C//DTD SVG 20010904//EN"
 "http://www.w3.org/TR/2001/REC-SVG-20010904/DTD/svg10.dtd">
<svg version="1.0" xmlns="http://www.w3.org/2000/svg"
 width="468pt" height="468pt" viewBox="0 0 468 468"
 preserveAspectRatio="xMidYMid meet">
<metadata>
Created by potrace 1.8, written by Peter Selinger 2001-2007
</metadata>
<g transform="translate(0,468) scale(0.365625,-0.365625)"
fill="#000000" stroke="none">
<path d="M0 640 l0 -640 640 0 640 0 0 640 0 640 -325 0 -325 0 0 -10 0 -9 35
4 34 5 -5 -15 -6 -15 -8 0 -8 0 -5 13 -4 12 -9 -8 -8 -8 14 -10 15 -10 -25 7
-25 7 34 -32 35 -33 -14 -8 -14 -9 7 -8 8 -7 7 11 7 11 12 -13 12 -14 -12 -4
-12 -4 25 -22 24 -22 -14 -9 -14 -9 7 -7 7 -8 15 21 14 21 26 0 25 0 11 -14
11 -13 -32 4 -33 4 -13 -14 -14 -14 37 5 38 4 -12 -6 -13 -6 0 -9 0 -9 14 0
15 0 -4 -30 -4 -30 7 0 8 0 12 12 12 12 0 -11 0 -12 -20 -6 -20 -6 0 -10 0 -9
8 0 8 0 12 12 12 12 0 -11 0 -11 -12 -5 -13 -4 13 -15 13 -16 -13 -5 -13 -5
14 -10 13 -10 -13 -5 -14 -5 15 -11 15 -11 -15 -10 -15 -10 13 -9 13 -8 3 -26
3 -26 -9 5 -9 6 -15 -13 -15 -12 5 -12 4 -12 -25 3 -25 2 -6 6 -5 6 8 8 8 7 4
-12 4 -12 22 20 22 20 1 22 2 22 -11 13 -10 13 -13 -5 -13 -5 -11 15 -12 14
13 1 14 1 11 -1 11 -1 13 15 12 14 -39 -4 -38 -5 14 9 14 9 12 -4 12 -5 13 16
13 15 -7 7 -7 7 -9 -14 -9 -14 -8 8 -8 9 13 4 12 5 0 10 0 10 -15 -6 -14 -5
-14 14 -14 14 2 35 3 35 -13 11 -14 12 -11 -7 -10 -6 2 8 3 8 -19 25 -18 25
-5 -13 -5 -13 -14 12 -14 11 -15 -12 -15 -12 0 10 0 10 13 5 12 4 -7 8 -8 8
-15 -13 -16 -13 6 -16 6 -16 -12 12 -13 13 16 17 16 18 -2 20 -1 20 -15 23
-15 22 -8 0 -9 0 5 -13 5 -13 -17 0 -17 0 0 17 0 17 11 -4 11 -4 34 35 34 35
-312 0 -312 0 0 -640z m532 613 l18 -16 23 19 22 18 -22 -23 -21 -24 -28 22
-27 21 8 0 8 0 19 -17z m225 -15 l2 -27 -15 -12 -14 -12 -7 7 -7 7 14 9 14 9
-8 8 -9 8 -4 -12 -5 -13 -8 0 -9 0 3 28 4 27 1 3 1 3 22 -3 23 -3 2 -27z m52
7 l12 7 27 -18 27 -18 10 -1 10 -1 27 -13 27 -14 -6 -10 -6 -10 12 7 12 8 35
-27 34 -26 -6 -10 -5 -9 8 1 8 1 12 -1 11 -1 50 -62 49 -63 30 -65 30 -65 12
-48 12 -48 -7 -11 -7 -11 11 7 12 7 0 -91 0 -91 -11 -22 -12 -21 -2 -21 -2
-20 -2 -17 -1 -17 -16 -15 -15 -16 5 -9 6 -9 -16 -16 -15 -16 5 -9 6 -8 -29 3
-29 3 -10 -12 -9 -12 0 -20 0 -20 11 -14 11 -14 -22 14 -23 14 -4 12 -5 12 15
16 15 15 -15 15 -15 15 -6 0 -7 0 7 -17 6 -18 -13 13 -13 13 29 25 28 25 -6 6
-6 7 -30 -29 -31 -29 5 -13 5 -12 -15 6 -14 5 0 4 0 4 38 34 37 35 -19 18 -19
18 7 -19 6 -19 -16 -18 -17 -19 -10 0 -9 0 23 19 24 19 -28 29 -27 30 28 30
29 30 5 14 5 14 8 -7 8 -8 -16 -18 -17 -19 0 -9 0 -9 10 15 9 14 8 -7 7 -8
-14 -10 -15 -11 12 -4 11 -5 23 -20 23 -20 -13 -9 -14 -8 18 -19 18 -18 5 12
4 13 15 -15 14 -15 12 0 12 0 -15 10 -15 10 24 20 23 20 -23 19 -24 20 -33 -4
-34 -4 12 14 12 14 27 -3 27 -3 0 17 0 17 -27 -3 -27 -3 -10 12 -9 12 0 20 0
20 9 12 10 12 28 -3 28 -3 -5 13 -5 14 -7 1 -6 1 -22 2 -21 3 4 -12 5 -12 -16
-13 -15 -13 -7 7 -7 7 14 9 14 9 -7 8 -8 7 -9 -14 -9 -14 -8 8 -8 8 25 20 25
21 -14 5 -13 4 13 9 13 8 -7 8 -8 7 -9 -13 -8 -14 4 -12 5 -12 -15 -12 -15
-13 4 33 4 33 -15 18 -16 17 7 10 6 11 -15 -6 -16 -6 0 7 0 8 18 13 17 14 -17
-6 -18 -6 0 10 0 10 13 5 12 5 -15 11 -15 11 15 10 15 10 -15 10 -15 10 13 0
12 0 0 11 0 11 -16 -6 -15 -6 5 9 5 8 -21 23 -21 22 14 9 14 9 -27 0 -28 0 0
10 0 10 10 0 10 0 0 9 0 9 -20 5 -21 5 -23 -24 -23 -25 0 31 0 31 8 -12 7 -12
16 16 16 16 0 5 0 5 -17 0 -18 0 -27 2 -26 2 24 26 24 26 0 9 0 8 -19 -23 -19
-23 -16 13 -17 14 5 12 4 12 -27 -3 -28 -3 -34 34 -34 34 -12 15 -13 15 0 5 0
4 14 5 15 6 -5 -13 -5 -12 35 -35 35 -34 25 -2 26 -2 5 8 5 8 -29 -3 -29 -3
-12 14 -12 15 12 15 12 14 28 -3 28 -3 -5 13 -5 14 -9 0 -9 0 0 -10 0 -11 -13
13 -14 12 11 12 11 12 6 -10 7 -11 11 8z m-359 -45 l0 -10 -10 0 -10 0 0 10 0
10 10 0 10 0 0 -10z m40 0 l0 -10 -10 0 -10 0 0 10 0 10 10 0 10 0 0 -10z m30
0 l0 -10 -10 0 -10 0 0 10 0 10 10 0 10 0 0 -10z m-30 -40 l0 -10 -4 0 -5 0
-6 10 -6 10 10 0 11 0 0 -10z m30 0 l0 -10 -10 0 -10 0 0 10 0 10 10 0 10 0 0
-10z m40 0 l0 -10 -10 0 -10 0 0 10 0 10 10 0 10 0 0 -10z m28 -16 l0 -26 -8
13 -8 12 5 14 5 13 3 0 3 0 0 -26z m-98 -14 l0 -10 -4 0 -5 0 -6 10 -6 10 10
0 11 0 0 -10z m30 0 l0 -10 -4 0 -5 0 -6 10 -6 10 10 0 11 0 0 -10z m40 0 l0
-10 -10 0 -10 0 0 10 0 10 10 0 10 0 0 -10z m187 -5 l15 -16 -5 -6 -6 -5 -16
15 -15 16 0 5 0 6 6 0 5 0 16 -15z m-183 -30 l-6 -15 -9 0 -9 0 0 9 0 9 13 5
12 5 2 1 2 1 -5 -15z m-74 -5 l0 -10 -11 0 -10 0 6 10 6 10 5 0 4 0 0 -10z
m30 0 l0 -10 -10 0 -10 0 0 10 0 10 10 0 10 0 0 -10z m165 -50 l18 -20 -16
-18 -16 -17 3 -27 3 -26 -13 5 -14 5 -1 7 -1 6 -2 22 -3 21 12 -4 12 -5 14 17
13 16 -23 19 -23 19 9 0 10 0 18 -20z m-125 -14 l0 -5 -10 -6 -10 -6 0 10 0
11 10 0 10 0 0 -4z m110 -6 l0 -10 -10 0 -10 0 0 10 0 10 10 0 10 0 0 -10z
m180 0 l0 -10 -4 0 -5 0 -6 10 -6 10 10 0 11 0 0 -10z m-145 -54 l0 -34 -7 4
-7 4 3 28 4 27 1 3 1 2 3 0 2 0 0 -34z m-150 14 l6 -10 -10 0 -11 0 0 10 0 10
4 0 5 0 6 -10z m75 0 l0 -10 -11 0 -10 0 6 10 6 10 5 0 4 0 0 -10z m297 -6 l3
-10 -20 0 -20 0 0 6 0 7 7 7 7 6 10 -3 10 -3 3 -10z m-297 -24 l0 -10 -11 0
-10 0 6 10 6 10 5 0 4 0 0 -10z m110 0 l0 -10 -10 0 -10 0 0 10 0 10 10 0 10
0 0 -10z m220 2 l0 -3 -25 -26 -24 -27 -8 8 -8 9 13 4 12 5 0 10 0 10 -15 -6
-15 -5 0 8 0 8 5 5 5 5 30 -1 30 -1 0 -3z m-330 -42 l0 -10 -4 0 -5 0 -6 10
-6 10 10 0 11 0 0 -10z m40 0 l0 -10 -10 0 -10 0 0 10 0 10 10 0 10 0 0 -10z
m70 0 l0 -10 -10 0 -10 0 0 10 0 10 10 0 10 0 0 -10z m40 0 l0 -10 -10 0 -10
0 0 10 0 10 10 0 10 0 0 -10z m180 1 l0 -9 -12 -5 -13 -5 15 -11 15 -11 -12 0
-13 0 0 -10 0 -11 13 2 12 1 13 -1 12 -1 0 -9 0 -8 -25 0 -25 0 -8 11 -9 11 0
20 0 20 10 13 9 12 9 0 9 0 0 -9z m30 -1 l0 -10 -10 0 -10 0 0 10 0 10 10 0
10 0 0 -10z m-315 -30 l-6 -10 -12 0 -12 0 15 10 15 10 3 0 3 0 -6 -10z m70
-10 l6 -10 -15 6 -16 6 0 4 0 4 9 0 10 0 6 -10z m-115 -30 l0 -10 -11 0 -10 0
6 10 6 10 5 0 4 0 0 -10z m35 0 l6 -10 -10 0 -11 0 0 10 0 10 4 0 5 0 6 -10z
m75 0 l0 -10 -10 0 -10 0 0 10 0 10 10 0 10 0 0 -10z m188 -2 l12 -12 0 -8 0
-7 -22 -12 -23 -12 15 18 15 18 -12 4 -13 5 0 9 0 9 8 0 8 0 12 -12z m62 -44
l0 -6 -12 10 -13 10 -11 -12 -11 -12 13 -12 13 -11 4 12 4 12 9 -8 8 -8 -14
-10 -15 -9 15 -10 15 -10 -15 -11 -15 -11 14 -5 13 -5 -13 -9 -13 -8 -19 10
-19 11 7 15 6 16 -13 9 -13 8 15 9 14 10 -7 7 -7 7 -15 -13 -15 -12 0 10 0 11
18 5 18 6 13 19 14 19 14 -13 13 -14 0 -7z m-320 12 l0 -5 -10 -6 -10 -6 0 10
0 11 10 0 10 0 0 -4z m70 -6 l0 -10 -10 0 -10 0 0 10 0 10 10 0 10 0 0 -10z
m40 0 l0 -10 -10 0 -10 0 0 10 0 10 10 0 10 0 0 -10z m30 0 l0 -10 -10 0 -10
0 0 10 0 10 10 0 10 0 0 -10z m-70 -30 l0 -10 -10 0 -10 0 0 10 0 10 10 0 10
0 0 -10z m40 0 l0 -10 -10 0 -10 0 0 10 0 10 10 0 10 0 0 -10z m30 0 l0 -10
-10 0 -10 0 0 10 0 10 10 0 10 0 0 -10z m-70 -40 l0 -10 -11 0 -10 0 6 10 6
10 5 0 4 0 0 -10z m110 0 l0 -10 -10 0 -10 0 0 10 0 10 10 0 10 0 0 -10z m65
0 l6 -10 -10 0 -11 0 0 10 0 10 4 0 5 0 6 -10z m133 -35 l0 -26 -21 -14 -21
-15 8 -7 7 -7 9 14 9 15 16 -22 15 -22 18 -17 17 -18 -19 7 -20 8 -23 -27 -23
-27 -8 8 -7 8 13 4 12 5 0 10 0 10 -13 -5 -12 -5 -1 53 -1 53 14 -5 13 -5 0
11 0 11 -12 0 -13 0 15 11 15 11 -12 5 -13 5 0 9 0 10 19 -10 19 -10 0 -26z
m-193 5 l-6 -10 -12 0 -12 0 15 10 15 10 3 0 3 0 -6 -10z m-40 -10 l6 -10 -15
6 -16 6 0 4 0 4 9 0 10 0 6 -10z m-75 -30 l0 -10 -4 0 -5 0 -6 10 -6 10 10 0
11 0 0 -10z m40 0 l0 -10 -10 0 -10 0 0 10 0 10 10 0 10 0 0 -10z m30 0 l0
-10 -10 0 -10 0 0 10 0 10 10 0 10 0 0 -10z m40 0 l0 -10 -10 0 -10 0 0 10 0
10 10 0 10 0 0 -10z m70 6 l0 -5 -10 -6 -10 -6 0 10 0 11 10 0 10 0 0 -4z m40
-6 l0 -10 -4 0 -5 0 -6 10 -6 10 10 0 11 0 0 -10z m30 0 l0 -10 -4 0 -5 0 -6
10 -6 10 10 0 11 0 0 -10z m-180 -40 l0 -10 -4 0 -5 0 -6 10 -6 10 10 0 11 0
0 -10z m40 0 l0 -10 -10 0 -10 0 0 10 0 10 10 0 10 0 0 -10z m110 0 l0 -10
-11 0 -10 0 6 10 6 10 5 0 4 0 0 -10z m-20 -55 l23 -25 -9 0 -9 1 -18 24 -18
25 4 0 4 0 23 -25z m-130 -9 l0 -5 -10 -6 -10 -6 0 10 0 11 10 0 10 0 0 -4z
m40 -6 l0 -10 -10 0 -10 0 0 10 0 10 10 0 10 0 0 -10z m256 -5 l15 -15 -16
-16 -16 -16 -7 6 -6 7 14 10 15 11 -12 5 -13 5 0 9 0 9 6 0 5 0 15 -15z m-256
-35 l0 -10 -11 0 -10 0 6 10 6 10 5 0 4 0 0 -10z m110 6 l0 -5 -10 -6 -10 -6
0 10 0 11 10 0 10 0 0 -4z m-40 -36 l0 -10 -4 0 -5 0 -6 10 -6 10 10 0 11 0 0
-10z m40 6 l0 -5 -10 -6 -10 -6 0 10 0 11 10 0 10 0 0 -4z m221 -12 l11 -14
-11 -14 -11 -13 -25 0 -25 0 0 7 0 8 13 6 12 6 -12 6 -13 6 0 8 0 8 25 0 25 0
11 -14z m-226 -34 l6 -10 -10 0 -11 0 0 10 0 10 4 0 5 0 6 -10z m75 0 l0 -10
-11 0 -10 0 6 10 6 10 5 0 4 0 0 -10z m-70 -64 l0 -5 -10 -6 -10 -6 0 10 0 11
10 0 10 0 0 -4z m70 -46 l0 -10 -10 0 -10 0 0 10 0 10 10 0 10 0 0 -10z m110
0 l0 -10 -10 0 -10 0 0 10 0 10 10 0 10 0 0 -10z m-150 -30 l0 -10 -4 0 -5 0
-6 10 -6 10 10 0 11 0 0 -10z m40 0 l0 -10 -10 0 -10 0 0 10 0 10 10 0 10 0 0
-10z m110 6 l0 -5 -10 -6 -10 -6 0 10 0 11 10 0 10 0 0 -4z m-77 -41 l-5 -16
-5 5 -5 5 7 10 6 11 4 0 4 0 -6 -15z m-73 -5 l0 -10 -11 0 -10 0 6 10 6 10 5
0 4 0 0 -10z m40 0 l0 -10 -10 0 -10 0 0 10 0 10 10 0 10 0 0 -10z m70 0 l0
-10 -10 0 -10 0 0 10 0 10 10 0 10 0 0 -10z"/>
<path d="M720 1250 l0 -10 10 0 10 0 0 10 0 10 -10 0 -10 0 0 -10z"/>
<path d="M830 1220 l0 -10 10 0 10 0 0 10 0 10 -10 0 -10 0 0 -10z"/>
<path d="M760 1180 l0 -10 10 0 10 0 0 10 0 10 -10 0 -10 0 0 -10z"/>
<path d="M790 1180 l0 -10 10 0 10 0 0 10 0 10 -10 0 -10 0 0 -10z"/>
<path d="M830 1180 l0 -10 10 0 10 0 0 10 0 10 -10 0 -10 0 0 -10z"/>
<path d="M900 1180 l0 -10 11 0 10 0 -6 10 -6 10 -5 0 -4 0 0 -10z"/>
<path d="M830 1110 l0 -10 10 0 10 0 0 10 0 10 -10 0 -10 0 0 -10z"/>
<path d="M900 1110 l0 -10 10 0 10 0 0 10 0 10 -10 0 -10 0 0 -10z"/>
<path d="M945 1110 l6 -10 5 0 4 0 0 10 0 10 -11 0 -10 0 6 -10z"/>
<path d="M900 1070 l0 -10 10 0 10 0 0 10 0 10 -10 0 -10 0 0 -10z"/>
<path d="M940 1070 l0 -10 10 0 10 0 0 10 0 10 -10 0 -10 0 0 -10z"/>
<path d="M975 1070 l-6 -10 10 0 11 0 0 10 0 10 -4 0 -5 0 -6 -10z"/>
<path d="M945 1040 l-6 -10 10 0 11 0 0 10 0 10 -4 0 -5 0 -6 -10z"/>
<path d="M975 1040 l-6 -10 10 0 11 0 0 10 0 10 -4 0 -5 0 -6 -10z"/>
<path d="M970 1000 l0 -10 10 0 10 0 0 10 0 10 -10 0 -10 0 0 -10z"/>
<path d="M1010 999 l0 -10 10 6 10 6 0 5 0 4 -10 0 -10 0 0 -11z"/>
<path d="M1010 930 l0 -10 10 0 10 0 0 10 0 10 -10 0 -10 0 0 -10z"/>
<path d="M1085 860 l6 -10 5 0 4 0 0 10 0 10 -11 0 -10 0 6 -10z"/>
<path d="M1080 820 l0 -10 10 0 10 0 0 10 0 10 -10 0 -10 0 0 -10z"/>
<path d="M1120 820 l0 -10 11 0 10 0 -6 10 -6 10 -5 0 -4 0 0 -10z"/>
<path d="M1054 759 l-6 -11 9 -9 9 -9 0 20 0 20 -3 0 -2 0 -7 -11z"/>
<path d="M1080 750 l0 -10 10 0 10 0 0 10 0 10 -10 0 -10 0 0 -10z"/>
<path d="M1120 749 l0 -10 10 6 10 6 0 5 0 4 -10 0 -10 0 0 -11z"/>
<path d="M1150 749 l0 -10 10 6 10 6 0 5 0 4 -10 0 -10 0 0 -11z"/>
<path d="M1120 710 l0 -10 10 0 10 0 0 10 0 10 -10 0 -10 0 0 -10z"/>
<path d="M1150 710 l0 -10 11 0 10 0 -6 10 -6 10 -5 0 -4 0 0 -10z"/>
<path d="M1195 710 l-6 -10 10 0 11 0 0 10 0 10 -4 0 -5 0 -6 -10z"/>
<path d="M1120 680 l0 -10 10 0 10 0 0 10 0 10 -10 0 -10 0 0 -10z"/>
<path d="M1150 680 l0 -10 10 0 10 0 0 10 0 10 -10 0 -10 0 0 -10z"/>
<path d="M1195 680 l-6 -10 10 0 11 0 0 10 0 10 -4 0 -5 0 -6 -10z"/>
<path d="M1190 640 l0 -10 10 0 10 0 0 10 0 10 -10 0 -10 0 0 -10z"/>
<path d="M1120 600 l0 -10 10 0 10 0 0 10 0 10 -10 0 -10 0 0 -10z"/>
<path d="M1150 600 l0 -10 10 0 10 0 0 10 0 10 -10 0 -10 0 0 -10z"/>
<path d="M1190 600 l0 -10 10 0 10 0 0 10 0 10 -10 0 -10 0 0 -10z"/>
<path d="M1120 570 l0 -10 10 0 10 0 0 10 0 10 -10 0 -10 0 0 -10z"/>
<path d="M1150 570 l0 -10 10 0 10 0 0 10 0 10 -10 0 -10 0 0 -10z"/>
<path d="M1190 570 l0 -10 10 0 10 0 0 10 0 10 -10 0 -10 0 0 -10z"/>
<path d="M1190 530 l0 -10 10 0 10 0 0 10 0 10 -10 0 -10 0 0 -10z"/>
<path d="M1024 507 l-11 -13 14 -13 14 -13 7 7 6 6 -14 9 -15 10 10 0 9 0 23
-27 23 -26 6 6 6 6 -31 30 -32 31 -2 0 -2 -1 -11 -12z"/>
<path d="M1090 400 l-14 -9 7 -8 8 -7 8 12 7 12 20 -18 20 -19 13 14 13 14 -5
5 -5 5 -29 4 -29 4 -14 -9z"/>
<path d="M1100 370 l0 -10 10 0 10 0 0 10 0 10 -10 0 -10 0 0 -10z"/>
<path d="M940 751 l0 -9 13 -6 12 -6 -12 -6 -13 -6 0 -8 0 -8 13 -5 13 -5 -2
27 -1 26 -2 8 -1 7 -10 0 -10 0 0 -9z"/>
<path d="M1021 614 l-14 -16 14 -9 14 -9 7 0 7 0 5 9 6 9 -6 16 -6 16 -7 0 -6
-1 -14 -15z m29 -14 l0 -10 -10 0 -10 0 0 10 0 10 10 0 10 0 0 -10z"/>
<path d="M1150 460 l0 -10 10 0 10 0 0 10 0 10 -10 0 -10 0 0 -10z"/>
<path d="M610 1250 l0 -10 10 0 10 0 0 10 0 10 -10 0 -10 0 0 -10z"/>
<path d="M587 1233 l-7 -6 0 -7 0 -7 20 -23 20 -23 7 6 6 7 -21 18 -22 19 7 6
6 7 19 -22 18 -21 7 6 6 7 -23 20 -23 20 -7 0 -7 0 -6 -7z"/>
<path d="M643 1178 l-9 -13 -2 -22 -1 -22 15 -12 14 -11 14 11 14 12 7 -20 6
-21 10 0 9 0 0 6 0 5 -16 16 -15 16 5 13 5 13 -12 -4 -12 -5 -15 11 -15 11 13
5 12 5 0 9 0 9 -9 0 -9 0 -9 -12z m27 -48 l0 -10 -10 0 -10 0 0 10 0 10 10 0
10 0 0 -10z"/>
<path d="M760 1041 l0 -9 13 -5 12 -5 -15 -11 -15 -11 15 -10 15 -10 -11 -7
-12 -8 12 -11 12 -11 12 13 11 13 -12 5 -12 4 14 10 14 10 -16 17 -17 16 0 10
0 9 -10 0 -10 0 0 -9z"/>
<path d="M810 840 l0 -10 10 0 10 0 0 10 0 10 -10 0 -10 0 0 -10z"/>
</g>
</svg>
