<?xml version="1.0" standalone="no"?>
<!DOCTYPE svg PUBLIC "-//W3C//DTD SVG 20010904//EN"
 "http://www.w3.org/TR/2001/REC-SVG-20010904/DTD/svg10.dtd">
<svg version="1.0" xmlns="http://www.w3.org/2000/svg"
 width="468pt" height="468pt" viewBox="0 0 468 468"
 preserveAspectRatio="xMidYMid meet">
<metadata>
Created by potrace 1.8, written by Peter Selinger 2001-2007
</metadata>
<g transform="translate(0,468) scale(0.365625,-0.365625)"
fill="#000000" stroke="none">
<path d="M270 1175 l0 -105 50 0 50 0 0 10 0 10 15 0 15 0 0 40 0 40 -15 0
-15 0 0 15 0 15 15 0 15 0 0 25 0 25 -15 0 -15 0 0 15 0 15 -50 0 -50 0 0
-105z m100 50 l0 -25 -40 0 -40 0 0 25 0 25 40 0 40 0 0 -25z m0 -95 l0 -40
-40 0 -40 0 0 40 0 40 40 0 40 0 0 -40z"/>
<path d="M590 1175 l0 -105 10 0 10 0 0 105 0 105 -10 0 -10 0 0 -105z"/>
<path d="M640 1265 l0 -15 15 0 15 0 0 15 0 15 -15 0 -15 0 0 -15z"/>
<path d="M850 1265 l0 -15 15 0 15 0 0 15 0 15 -15 0 -15 0 0 -15z"/>
<path d="M450 1215 l0 -15 -10 0 -10 0 0 -51 0 -50 14 -15 15 -14 35 0 36 0 0
10 0 10 15 0 15 0 0 55 0 55 -15 0 -15 0 0 15 0 15 -40 0 -40 0 0 -15z m80
-70 l0 -55 -40 0 -40 0 0 55 0 55 40 0 40 0 0 -55z"/>
<path d="M640 1150 l0 -80 15 0 15 0 0 80 0 80 -15 0 -15 0 0 -80z"/>
<path d="M690 1200 l0 -30 15 0 15 0 0 -25 0 -25 15 0 15 0 0 -25 0 -25 10 0
10 0 0 25 0 25 15 0 15 0 0 25 0 25 15 0 15 0 0 30 0 30 -15 0 -15 0 0 -30 0
-30 -15 0 -15 0 0 -25 0 -25 -10 0 -10 0 0 25 0 25 -15 0 -15 0 0 30 0 30 -15
0 -15 0 0 -30z"/>
<path d="M850 1150 l0 -80 15 0 15 0 0 80 0 80 -15 0 -15 0 0 -80z"/>
<path d="M910 1215 l0 -15 40 0 40 0 0 -15 0 -15 -26 0 -25 0 -15 -14 -14 -15
0 -21 0 -21 14 -15 15 -14 24 0 25 0 6 13 6 12 6 -12 6 -13 14 0 14 0 0 10 0
10 -15 0 -15 0 0 55 0 55 -10 0 -10 0 0 15 0 15 -40 0 -40 0 0 -15z m80 -95
l0 -30 -30 0 -30 0 0 30 0 30 30 0 30 0 0 -30z"/>
<path d="M30 535 l0 -425 625 0 625 0 0 425 0 425 -625 0 -625 0 0 -425z m84
383 l6 -13 6 13 6 12 14 0 14 0 0 -10 0 -10 14 0 14 0 6 13 6 12 6 -12 6 -13
14 0 14 0 0 10 0 10 14 0 14 0 6 -12 6 -13 6 13 6 12 14 0 14 0 0 -10 0 -10
14 0 14 0 6 13 6 12 6 -12 6 -13 14 0 14 0 0 10 0 10 14 0 14 0 6 -12 6 -13 6
13 6 12 14 0 14 0 0 -10 0 -10 14 0 14 0 6 13 6 12 6 -12 6 -13 14 0 14 0 0
10 0 10 14 0 14 0 6 -12 6 -13 6 13 6 12 14 0 14 0 0 -10 0 -10 14 0 14 0 6
13 6 12 6 -12 6 -13 14 0 14 0 0 10 0 10 14 0 14 0 6 -12 6 -13 6 13 6 12 14
0 14 0 0 -10 0 -10 14 0 14 0 6 13 6 12 6 -12 6 -13 14 0 14 0 0 10 0 10 14 0
14 0 6 -12 6 -13 6 13 6 12 14 0 14 0 0 -10 0 -10 14 0 14 0 6 13 6 12 6 -12
6 -13 14 0 14 0 0 10 0 10 14 0 14 0 6 -12 6 -13 6 13 6 12 14 0 14 0 0 -10 0
-10 14 0 14 0 6 13 6 12 6 -12 6 -13 14 0 14 0 0 10 0 10 11 0 10 0 15 -14 14
-15 0 -10 0 -11 -10 0 -10 0 0 -14 0 -14 13 -6 12 -6 -12 -6 -13 -6 0 -14 0
-14 10 0 10 0 0 -14 0 -14 -13 -6 -12 -6 13 -6 12 -6 0 -14 0 -14 -10 0 -10 0
0 -14 0 -14 12 -6 13 -6 -13 -6 -12 -6 0 -14 0 -14 10 0 10 0 0 -14 0 -14 -12
-6 -13 -6 13 -6 12 -6 0 -14 0 -14 -10 0 -10 0 0 -14 0 -14 13 -6 12 -6 -12
-6 -13 -6 0 -14 0 -14 10 0 10 0 0 -14 0 -14 -12 -6 -13 -6 13 -6 12 -6 0 -29
0 -29 -10 0 -10 0 0 15 0 15 -15 0 -15 0 0 15 0 15 -15 0 -15 0 0 -15 0 -15
-10 0 -10 0 0 -15 0 -15 -15 0 -15 0 0 15 0 15 -15 0 -15 0 0 15 0 15 -10 0
-10 0 0 -15 0 -15 -15 0 -15 0 0 -15 0 -15 -15 0 -15 0 0 15 0 15 -10 0 -10 0
0 15 0 15 -15 0 -15 0 0 -15 0 -15 -15 0 -15 0 0 -15 0 -15 -10 0 -10 0 0 15
0 15 -15 0 -15 0 0 15 0 15 -15 0 -15 0 0 -15 0 -15 -10 0 -10 0 0 -15 0 -15
-15 0 -15 0 0 15 0 15 -15 0 -15 0 0 15 0 15 -10 0 -10 0 0 -15 0 -15 -15 0
-15 0 0 -15 0 -15 -15 0 -15 0 0 15 0 15 -10 0 -10 0 0 15 0 15 25 0 25 0 0
10 0 10 25 0 25 0 0 69 0 69 -12 6 -13 6 13 6 12 6 0 14 0 14 -10 0 -10 0 0
-15 0 -15 -15 0 -15 0 0 30 0 30 14 0 14 0 6 13 6 12 6 -12 6 -13 14 0 14 0 0
-15 0 -15 15 0 15 0 0 11 0 10 14 15 15 14 10 0 11 0 0 -10 0 -10 15 0 15 0 0
-15 0 -15 10 0 10 0 0 15 0 15 15 0 15 0 0 10 0 10 11 0 10 0 15 -14 14 -15 0
-10 0 -11 15 0 15 0 0 15 0 15 14 0 14 0 6 13 6 12 6 -12 6 -13 14 0 14 0 0
-15 0 -15 15 0 15 0 0 11 0 10 14 15 15 14 10 0 11 0 0 -10 0 -10 15 0 15 0 0
10 0 10 -15 0 -15 0 0 15 0 15 -15 0 -15 0 0 -11 0 -10 -14 -15 -15 -14 -10 0
-11 0 0 10 0 10 15 0 15 0 0 15 0 15 -15 0 -15 0 0 -15 0 -15 -15 0 -15 0 0
15 0 15 -10 0 -10 0 0 -15 0 -15 -15 0 -15 0 0 15 0 15 -15 0 -15 0 0 -15 0
-15 15 0 15 0 0 -10 0 -10 -11 0 -10 0 -15 14 -14 15 0 10 0 11 -15 0 -15 0 0
-15 0 -15 -15 0 -15 0 0 15 0 15 -10 0 -10 0 0 -15 0 -15 -15 0 -15 0 0 15 0
15 -15 0 -15 0 0 -11 0 -10 -14 -15 -15 -14 -10 0 -11 0 0 10 0 10 15 0 15 0
0 15 0 15 -15 0 -15 0 0 -15 0 -15 -15 0 -15 0 0 15 0 15 -10 0 -10 0 0 -15 0
-15 -15 0 -15 0 0 15 0 15 -15 0 -15 0 0 -15 0 -15 15 0 15 0 0 -10 0 -10 -11
0 -10 0 -15 14 -14 15 0 10 0 11 -15 0 -15 0 0 -15 0 -15 -15 0 -15 0 0 15 0
15 -10 0 -10 0 0 -15 0 -15 -15 0 -15 0 0 15 0 15 -15 0 -15 0 0 -11 0 -10
-14 -15 -15 -14 -10 0 -11 0 0 10 0 10 15 0 15 0 0 15 0 15 -15 0 -15 0 0 -15
0 -15 -15 0 -15 0 0 15 0 15 -10 0 -10 0 0 -15 0 -15 -15 0 -15 0 0 15 0 15
-15 0 -15 0 0 -15 0 -15 15 0 15 0 0 -10 0 -10 -11 0 -10 0 -15 14 -14 15 0
10 0 11 -15 0 -15 0 0 -15 0 -15 -15 0 -15 0 0 15 0 15 -10 0 -10 0 0 -15 0
-15 -15 0 -15 0 0 15 0 15 -15 0 -15 0 0 -11 0 -10 -14 -15 -15 -14 -10 0 -11
0 0 10 0 10 15 0 15 0 0 15 0 15 -15 0 -15 0 0 -15 0 -15 -15 0 -15 0 0 15 0
15 -10 0 -10 0 0 -15 0 -15 -15 0 -15 0 0 -10 0 -10 14 0 14 0 6 13 6 12 6
-12 6 -13 14 0 14 0 0 -15 0 -15 15 0 15 0 0 11 0 10 14 15 15 14 10 0 11 0 0
-10 0 -10 15 0 15 0 0 -15 0 -15 10 0 10 0 0 15 0 15 15 0 15 0 0 10 0 10 11
0 10 0 15 -14 14 -15 0 -10 0 -11 15 0 15 0 0 15 0 15 14 0 14 0 6 13 6 12 6
-12 6 -13 14 0 14 0 0 -15 0 -15 15 0 15 0 0 11 0 10 14 15 15 14 10 0 11 0 0
-10 0 -10 15 0 15 0 0 -30 0 -30 -15 0 -15 0 0 -10 0 -10 -15 0 -15 0 0 -70 0
-70 30 0 30 0 0 -10 0 -10 25 0 25 0 0 -15 0 -15 -15 0 -15 0 0 -15 0 -15 -10
0 -10 0 0 15 0 15 -15 0 -15 0 0 15 0 15 -15 0 -15 0 0 -15 0 -15 -10 0 -10 0
0 -15 0 -15 -15 0 -15 0 0 15 0 15 -15 0 -15 0 0 15 0 15 -10 0 -10 0 0 -15 0
-15 -15 0 -15 0 0 -15 0 -15 -15 0 -15 0 0 15 0 15 -10 0 -10 0 0 15 0 15 -15
0 -15 0 0 -15 0 -15 -15 0 -15 0 0 -15 0 -15 -10 0 -10 0 0 15 0 15 -15 0 -15
0 0 15 0 15 -15 0 -15 0 0 -15 0 -15 -10 0 -10 0 0 -15 0 -15 -15 0 -15 0 0
15 0 15 -15 0 -15 0 0 15 0 15 -10 0 -10 0 0 -15 0 -15 -15 0 -15 0 0 -15 0
-15 -15 0 -15 0 0 30 0 30 15 0 15 0 0 10 0 10 -15 0 -15 0 0 15 0 15 15 0 15
0 0 15 0 15 -15 0 -15 0 0 10 0 10 15 0 15 0 0 15 0 15 -15 0 -15 0 0 15 0 15
15 0 15 0 0 10 0 10 -15 0 -15 0 0 15 0 15 15 0 15 0 0 15 0 15 -15 0 -15 0 0
10 0 10 15 0 15 0 0 15 0 15 -15 0 -15 0 0 15 0 15 15 0 15 0 0 10 0 10 -15 0
-15 0 0 15 0 15 15 0 15 0 0 15 0 15 -15 0 -15 0 0 10 0 10 15 0 15 0 0 15 0
15 -15 0 -15 0 0 15 0 15 15 0 15 0 0 10 0 10 14 0 14 0 6 -12z m176 -238 l0
-10 -10 0 -10 0 0 10 0 10 10 0 10 0 0 -10z m320 0 l0 -10 15 0 15 0 0 10 0
10 11 0 10 0 15 -14 14 -15 0 -10 0 -11 -40 0 -40 0 0 15 0 15 -10 0 -10 0 0
10 0 10 10 0 10 0 0 -10z m320 0 l0 -10 -10 0 -10 0 0 10 0 10 10 0 10 0 0
-10z m-320 -145 l0 -55 -10 0 -10 0 0 55 0 55 10 0 10 0 0 -55z m60 40 l0 -15
-15 0 -15 0 0 15 0 15 15 0 15 0 0 -15z m50 -40 l0 -55 -15 0 -15 0 0 55 0 55
15 0 15 0 0 -55z m-50 -15 l0 -10 -15 0 -15 0 0 10 0 10 15 0 15 0 0 -10z
m-540 -160 l0 -10 -10 0 -10 0 0 10 0 10 10 0 10 0 0 -10z m110 0 l0 -10 -15
0 -15 0 0 10 0 10 15 0 15 0 0 -10z m110 0 l0 -10 -15 0 -15 0 0 10 0 10 15 0
15 0 0 -10z m100 0 l0 -10 -10 0 -10 0 0 10 0 10 10 0 10 0 0 -10z m110 0 l0
-10 -15 0 -15 0 0 10 0 10 15 0 15 0 0 -10z m110 0 l0 -10 -15 0 -15 0 0 10 0
10 15 0 15 0 0 -10z m100 0 l0 -10 -10 0 -10 0 0 10 0 10 10 0 10 0 0 -10z
m110 0 l0 -10 -15 0 -15 0 0 10 0 10 15 0 15 0 0 -10z m110 0 l0 -10 -15 0
-15 0 0 10 0 10 15 0 15 0 0 -10z m100 0 l0 -10 -10 0 -10 0 0 10 0 10 10 0
10 0 0 -10z m110 0 l0 -10 -15 0 -15 0 0 10 0 10 15 0 15 0 0 -10z m-1120 -25
l0 -15 -15 0 -15 0 0 15 0 15 15 0 15 0 0 -15z m110 0 l0 -15 -15 0 -15 0 0
15 0 15 15 0 15 0 0 -15z m100 0 l0 -15 -10 0 -10 0 0 15 0 15 10 0 10 0 0
-15z m110 0 l0 -15 -15 0 -15 0 0 15 0 15 15 0 15 0 0 -15z m110 0 l0 -15 -15
0 -15 0 0 15 0 15 15 0 15 0 0 -15z m100 0 l0 -15 -10 0 -10 0 0 15 0 15 10 0
10 0 0 -15z m110 0 l0 -15 -15 0 -15 0 0 15 0 15 15 0 15 0 0 -15z m110 0 l0
-15 -15 0 -15 0 0 15 0 15 15 0 15 0 0 -15z m100 0 l0 -15 -10 0 -10 0 0 15 0
15 10 0 10 0 0 -15z m110 0 l0 -15 -15 0 -15 0 0 15 0 15 15 0 15 0 0 -15z
m110 0 l0 -15 -15 0 -15 0 0 15 0 15 15 0 15 0 0 -15z m100 0 l0 -15 -10 0
-10 0 0 15 0 15 10 0 10 0 0 -15z m-1120 -30 l0 -15 -10 0 -10 0 0 15 0 15 10
0 10 0 0 -15z m110 0 l0 -15 -15 0 -15 0 0 15 0 15 15 0 15 0 0 -15z m110 0
l0 -15 -15 0 -15 0 0 15 0 15 15 0 15 0 0 -15z m100 0 l0 -15 -10 0 -10 0 0
15 0 15 10 0 10 0 0 -15z m110 0 l0 -15 -15 0 -15 0 0 15 0 15 15 0 15 0 0
-15z m110 0 l0 -15 -15 0 -15 0 0 15 0 15 15 0 15 0 0 -15z m100 0 l0 -15 -10
0 -10 0 0 15 0 15 10 0 10 0 0 -15z m110 0 l0 -15 -15 0 -15 0 0 15 0 15 15 0
15 0 0 -15z m110 0 l0 -15 -15 0 -15 0 0 15 0 15 15 0 15 0 0 -15z m100 0 l0
-15 -10 0 -10 0 0 15 0 15 10 0 10 0 0 -15z m110 0 l0 -15 -15 0 -15 0 0 15 0
15 15 0 15 0 0 -15z m-1120 -25 l0 -10 -15 0 -15 0 0 10 0 10 15 0 15 0 0 -10z
m110 0 l0 -10 -15 0 -15 0 0 10 0 10 15 0 15 0 0 -10z m100 0 l0 -10 -10 0
-10 0 0 10 0 10 10 0 10 0 0 -10z m110 0 l0 -10 -15 0 -15 0 0 10 0 10 15 0
15 0 0 -10z m110 0 l0 -10 -15 0 -15 0 0 10 0 10 15 0 15 0 0 -10z m100 0 l0
-10 -10 0 -10 0 0 10 0 10 10 0 10 0 0 -10z m110 0 l0 -10 -15 0 -15 0 0 10 0
10 15 0 15 0 0 -10z m110 0 l0 -10 -15 0 -15 0 0 10 0 10 15 0 15 0 0 -10z
m100 0 l0 -10 -10 0 -10 0 0 10 0 10 10 0 10 0 0 -10z m110 0 l0 -10 -15 0
-15 0 0 10 0 10 15 0 15 0 0 -10z m110 0 l0 -10 -15 0 -15 0 0 10 0 10 15 0
15 0 0 -10z m100 0 l0 -10 -10 0 -10 0 0 10 0 10 10 0 10 0 0 -10z m-1120 -25
l0 -15 -10 0 -10 0 0 15 0 15 10 0 10 0 0 -15z m110 0 l0 -15 -15 0 -15 0 0
15 0 15 15 0 15 0 0 -15z m110 0 l0 -15 -15 0 -15 0 0 15 0 15 15 0 15 0 0
-15z m100 0 l0 -15 -10 0 -10 0 0 15 0 15 10 0 10 0 0 -15z m110 0 l0 -15 -15
0 -15 0 0 15 0 15 15 0 15 0 0 -15z m110 0 l0 -15 -15 0 -15 0 0 15 0 15 15 0
15 0 0 -15z m100 0 l0 -15 -10 0 -10 0 0 15 0 15 10 0 10 0 0 -15z m110 0 l0
-15 -15 0 -15 0 0 15 0 15 15 0 15 0 0 -15z m110 0 l0 -15 -15 0 -15 0 0 15 0
15 15 0 15 0 0 -15z m100 0 l0 -15 -10 0 -10 0 0 15 0 15 10 0 10 0 0 -15z
m110 0 l0 -15 -15 0 -15 0 0 15 0 15 15 0 15 0 0 -15z m-1120 -30 l0 -15 -15
0 -15 0 0 15 0 15 15 0 15 0 0 -15z m110 0 l0 -15 -15 0 -15 0 0 15 0 15 15 0
15 0 0 -15z m100 0 l0 -15 -10 0 -10 0 0 15 0 15 10 0 10 0 0 -15z m110 0 l0
-15 -15 0 -15 0 0 15 0 15 15 0 15 0 0 -15z m110 0 l0 -15 -15 0 -15 0 0 15 0
15 15 0 15 0 0 -15z m100 0 l0 -15 -10 0 -10 0 0 15 0 15 10 0 10 0 0 -15z
m110 0 l0 -15 -15 0 -15 0 0 15 0 15 15 0 15 0 0 -15z m110 0 l0 -15 -15 0
-15 0 0 15 0 15 15 0 15 0 0 -15z m100 0 l0 -15 -10 0 -10 0 0 15 0 15 10 0
10 0 0 -15z m110 0 l0 -15 -15 0 -15 0 0 15 0 15 15 0 15 0 0 -15z m110 0 l0
-15 -15 0 -15 0 0 15 0 15 15 0 15 0 0 -15z m100 0 l0 -15 -10 0 -10 0 0 15 0
15 10 0 10 0 0 -15z m-1120 -25 l0 -10 -10 0 -10 0 0 10 0 10 10 0 10 0 0 -10z
m110 0 l0 -10 -15 0 -15 0 0 10 0 10 15 0 15 0 0 -10z m110 0 l0 -10 -15 0
-15 0 0 10 0 10 15 0 15 0 0 -10z m100 0 l0 -10 -10 0 -10 0 0 10 0 10 10 0
10 0 0 -10z m110 0 l0 -10 -15 0 -15 0 0 10 0 10 15 0 15 0 0 -10z m110 0 l0
-10 -15 0 -15 0 0 10 0 10 15 0 15 0 0 -10z m100 0 l0 -10 -10 0 -10 0 0 10 0
10 10 0 10 0 0 -10z m110 0 l0 -10 -15 0 -15 0 0 10 0 10 15 0 15 0 0 -10z
m110 0 l0 -10 -15 0 -15 0 0 10 0 10 15 0 15 0 0 -10z m100 0 l0 -10 -10 0
-10 0 0 10 0 10 10 0 10 0 0 -10z m110 0 l0 -10 -15 0 -15 0 0 10 0 10 15 0
15 0 0 -10z m-1120 -25 l0 -15 -15 0 -15 0 0 15 0 15 15 0 15 0 0 -15z m110 0
l0 -15 -15 0 -15 0 0 15 0 15 15 0 15 0 0 -15z m100 0 l0 -15 -10 0 -10 0 0
15 0 15 10 0 10 0 0 -15z m110 0 l0 -15 -15 0 -15 0 0 15 0 15 15 0 15 0 0
-15z m110 0 l0 -15 -15 0 -15 0 0 15 0 15 15 0 15 0 0 -15z m100 0 l0 -15 -10
0 -10 0 0 15 0 15 10 0 10 0 0 -15z m110 0 l0 -15 -15 0 -15 0 0 15 0 15 15 0
15 0 0 -15z m110 0 l0 -15 -15 0 -15 0 0 15 0 15 15 0 15 0 0 -15z m100 0 l0
-15 -10 0 -10 0 0 15 0 15 10 0 10 0 0 -15z m110 0 l0 -15 -15 0 -15 0 0 15 0
15 15 0 15 0 0 -15z m110 0 l0 -15 -15 0 -15 0 0 15 0 15 15 0 15 0 0 -15z
m100 0 l0 -15 -10 0 -10 0 0 15 0 15 10 0 10 0 0 -15z m-1120 -30 l0 -15 -10
0 -10 0 0 15 0 15 10 0 10 0 0 -15z m110 0 l0 -15 -15 0 -15 0 0 15 0 15 15 0
15 0 0 -15z m110 0 l0 -15 -15 0 -15 0 0 15 0 15 15 0 15 0 0 -15z m100 0 l0
-15 -10 0 -10 0 0 15 0 15 10 0 10 0 0 -15z m110 0 l0 -15 -15 0 -15 0 0 15 0
15 15 0 15 0 0 -15z m110 0 l0 -15 -15 0 -15 0 0 15 0 15 15 0 15 0 0 -15z
m100 0 l0 -15 -10 0 -10 0 0 15 0 15 10 0 10 0 0 -15z m110 0 l0 -15 -15 0
-15 0 0 15 0 15 15 0 15 0 0 -15z m110 0 l0 -15 -15 0 -15 0 0 15 0 15 15 0
15 0 0 -15z m100 0 l0 -15 -10 0 -10 0 0 15 0 15 10 0 10 0 0 -15z m110 0 l0
-15 -15 0 -15 0 0 15 0 15 15 0 15 0 0 -15z"/>
<path d="M80 895 l0 -15 15 0 15 0 0 -15 0 -15 -15 0 -15 0 0 -10 0 -10 15 0
15 0 0 -15 0 -15 -15 0 -15 0 0 -15 0 -15 15 0 15 0 0 15 0 15 10 0 10 0 0
-15 0 -15 15 0 15 0 0 -10 0 -10 -15 0 -15 0 0 -15 0 -15 15 0 15 0 0 15 0 15
15 0 15 0 0 -15 0 -15 10 0 10 0 0 15 0 15 15 0 15 0 0 -15 0 -15 15 0 15 0 0
15 0 15 -15 0 -15 0 0 10 0 10 15 0 15 0 0 15 0 15 10 0 10 0 0 -15 0 -15 15
0 15 0 0 -10 0 -10 -15 0 -15 0 0 -15 0 -15 15 0 15 0 0 15 0 15 15 0 15 0 0
-15 0 -15 10 0 10 0 0 15 0 15 15 0 15 0 0 -15 0 -15 15 0 15 0 0 15 0 15 -15
0 -15 0 0 10 0 10 15 0 15 0 0 15 0 15 10 0 10 0 0 -15 0 -15 15 0 15 0 0 -10
0 -10 -15 0 -15 0 0 -15 0 -15 15 0 15 0 0 15 0 15 15 0 15 0 0 -15 0 -15 10
0 10 0 0 15 0 15 15 0 15 0 0 -15 0 -15 15 0 15 0 0 15 0 15 -15 0 -15 0 0 10
0 10 15 0 15 0 0 15 0 15 10 0 10 0 0 -15 0 -15 15 0 15 0 0 -10 0 -10 -15 0
-15 0 0 -15 0 -15 15 0 15 0 0 15 0 15 15 0 15 0 0 -15 0 -15 10 0 10 0 0 15
0 15 15 0 15 0 0 -15 0 -15 15 0 15 0 0 15 0 15 -15 0 -15 0 0 10 0 10 15 0
15 0 0 15 0 15 10 0 10 0 0 -15 0 -15 15 0 15 0 0 -10 0 -10 -15 0 -15 0 0
-15 0 -15 15 0 15 0 0 15 0 15 15 0 15 0 0 -15 0 -15 10 0 10 0 0 15 0 15 15
0 15 0 0 -15 0 -15 15 0 15 0 0 15 0 15 -15 0 -15 0 0 10 0 10 15 0 15 0 0 15
0 15 10 0 10 0 0 -15 0 -15 15 0 15 0 0 -10 0 -10 -15 0 -15 0 0 -15 0 -15 15
0 15 0 0 15 0 15 15 0 15 0 0 -15 0 -15 10 0 10 0 0 15 0 15 15 0 15 0 0 -15
0 -15 15 0 15 0 0 15 0 15 -15 0 -15 0 0 10 0 10 15 0 15 0 0 15 0 15 10 0 10
0 0 -15 0 -15 15 0 15 0 0 -10 0 -10 -15 0 -15 0 0 -15 0 -15 15 0 15 0 0 15
0 15 15 0 15 0 0 -15 0 -15 10 0 10 0 0 15 0 15 15 0 15 0 0 -15 0 -15 15 0
15 0 0 15 0 15 -15 0 -15 0 0 10 0 10 15 0 15 0 0 15 0 15 -15 0 -15 0 0 15 0
15 15 0 15 0 0 10 0 10 -15 0 -15 0 0 15 0 15 15 0 15 0 0 15 0 15 -15 0 -15
0 0 -15 0 -15 -15 0 -15 0 0 15 0 15 -10 0 -10 0 0 -15 0 -15 -15 0 -15 0 0
15 0 15 -15 0 -15 0 0 -15 0 -15 -10 0 -10 0 0 15 0 15 -15 0 -15 0 0 -15 0
-15 -15 0 -15 0 0 15 0 15 -10 0 -10 0 0 -15 0 -15 -15 0 -15 0 0 15 0 15 -15
0 -15 0 0 -15 0 -15 -10 0 -10 0 0 15 0 15 -15 0 -15 0 0 -15 0 -15 -15 0 -15
0 0 15 0 15 -10 0 -10 0 0 -15 0 -15 -15 0 -15 0 0 15 0 15 -15 0 -15 0 0 -15
0 -15 -10 0 -10 0 0 15 0 15 -15 0 -15 0 0 -15 0 -15 -15 0 -15 0 0 15 0 15
-10 0 -10 0 0 -15 0 -15 -15 0 -15 0 0 15 0 15 -15 0 -15 0 0 -15 0 -15 -10 0
-10 0 0 15 0 15 -15 0 -15 0 0 -15 0 -15 -15 0 -15 0 0 15 0 15 -10 0 -10 0 0
-15 0 -15 -15 0 -15 0 0 15 0 15 -15 0 -15 0 0 -15 0 -15 -10 0 -10 0 0 15 0
15 -15 0 -15 0 0 -15 0 -15 -15 0 -15 0 0 15 0 15 -10 0 -10 0 0 -15 0 -15
-15 0 -15 0 0 15 0 15 -15 0 -15 0 0 -15 0 -15 -10 0 -10 0 0 15 0 15 -15 0
-15 0 0 -15 0 -15 -15 0 -15 0 0 15 0 15 -10 0 -10 0 0 -15 0 -15 -15 0 -15 0
0 15 0 15 -15 0 -15 0 0 -15 0 -15 -10 0 -10 0 0 15 0 15 -15 0 -15 0 0 -15z
m80 -30 l0 -15 15 0 15 0 0 15 0 15 10 0 10 0 0 -15 0 -15 15 0 15 0 0 15 0
15 15 0 15 0 0 -15 0 -15 -15 0 -15 0 0 -10 0 -10 15 0 15 0 0 -15 0 -15 -15
0 -15 0 0 -15 0 -15 -14 0 -14 0 -6 -12 -6 -13 -6 13 -6 12 -14 0 -14 0 0 15
0 15 -15 0 -15 0 0 14 0 14 -12 6 -13 6 13 6 12 6 0 14 0 14 15 0 15 0 0 -15z
m160 0 l0 -15 15 0 15 0 0 15 0 15 10 0 10 0 0 -15 0 -15 15 0 15 0 0 15 0 15
15 0 15 0 0 -15 0 -15 -15 0 -15 0 0 -10 0 -10 15 0 15 0 0 -15 0 -15 -15 0
-15 0 0 -15 0 -15 -14 0 -14 0 -6 -12 -6 -13 -6 13 -6 12 -14 0 -14 0 0 15 0
15 -15 0 -15 0 0 14 0 14 -12 6 -13 6 13 6 12 6 0 14 0 14 15 0 15 0 0 -15z
m160 0 l0 -15 15 0 15 0 0 15 0 15 10 0 10 0 0 -15 0 -15 15 0 15 0 0 15 0 15
15 0 15 0 0 -15 0 -15 -15 0 -15 0 0 -10 0 -10 15 0 15 0 0 -15 0 -15 -15 0
-15 0 0 -15 0 -15 -14 0 -14 0 -6 -12 -6 -13 -6 13 -6 12 -14 0 -14 0 0 15 0
15 -15 0 -15 0 0 14 0 14 -12 6 -13 6 13 6 12 6 0 14 0 14 15 0 15 0 0 -15z
m160 0 l0 -15 15 0 15 0 0 15 0 15 10 0 10 0 0 -15 0 -15 15 0 15 0 0 15 0 15
15 0 15 0 0 -15 0 -15 -15 0 -15 0 0 -10 0 -10 15 0 15 0 0 -15 0 -15 -15 0
-15 0 0 -15 0 -15 -14 0 -14 0 -6 -12 -6 -13 -6 13 -6 12 -14 0 -14 0 0 15 0
15 -15 0 -15 0 0 14 0 14 -12 6 -13 6 13 6 12 6 0 14 0 14 15 0 15 0 0 -15z
m160 0 l0 -15 15 0 15 0 0 15 0 15 10 0 10 0 0 -15 0 -15 15 0 15 0 0 15 0 15
15 0 15 0 0 -15 0 -15 -15 0 -15 0 0 -10 0 -10 15 0 15 0 0 -15 0 -15 -15 0
-15 0 0 -15 0 -15 -14 0 -14 0 -6 -12 -6 -13 -6 13 -6 12 -14 0 -14 0 0 15 0
15 -15 0 -15 0 0 14 0 14 -12 6 -13 6 13 6 12 6 0 14 0 14 15 0 15 0 0 -15z
m160 0 l0 -15 15 0 15 0 0 15 0 15 10 0 10 0 0 -15 0 -15 15 0 15 0 0 15 0 15
15 0 15 0 0 -15 0 -15 -15 0 -15 0 0 -10 0 -10 15 0 15 0 0 -15 0 -15 -15 0
-15 0 0 -15 0 -15 -14 0 -14 0 -6 -12 -6 -13 -6 13 -6 12 -14 0 -14 0 0 15 0
15 -15 0 -15 0 0 14 0 14 -12 6 -13 6 13 6 12 6 0 14 0 14 15 0 15 0 0 -15z
m160 0 l0 -15 15 0 15 0 0 15 0 15 10 0 10 0 0 -15 0 -15 15 0 15 0 0 -10 0
-10 -15 0 -15 0 0 -15 0 -15 15 0 15 0 0 -15 0 -15 -14 0 -14 0 -6 -12 -6 -13
-6 13 -6 12 -14 0 -14 0 0 15 0 15 -15 0 -15 0 0 14 0 14 -12 6 -13 6 13 6 12
6 0 14 0 14 15 0 15 0 0 -15z"/>
<path d="M130 840 l0 -10 15 0 15 0 0 -15 0 -15 15 0 15 0 0 -15 0 -15 10 0
10 0 0 15 0 15 15 0 15 0 0 15 0 15 -14 0 -14 0 -6 13 -6 12 -6 -12 -6 -13
-14 0 -14 0 0 10 0 10 -15 0 -15 0 0 -10z m80 -25 l0 -15 -10 0 -10 0 0 15 0
15 10 0 10 0 0 -15z"/>
<path d="M290 840 l0 -10 15 0 15 0 0 -15 0 -15 15 0 15 0 0 -15 0 -15 10 0
10 0 0 15 0 15 15 0 15 0 0 15 0 15 -14 0 -14 0 -6 13 -6 12 -6 -12 -6 -13
-14 0 -14 0 0 10 0 10 -15 0 -15 0 0 -10z m80 -25 l0 -15 -10 0 -10 0 0 15 0
15 10 0 10 0 0 -15z"/>
<path d="M450 840 l0 -10 15 0 15 0 0 -15 0 -15 15 0 15 0 0 -15 0 -15 10 0
10 0 0 15 0 15 15 0 15 0 0 15 0 15 -14 0 -14 0 -6 13 -6 12 -6 -12 -6 -13
-14 0 -14 0 0 10 0 10 -15 0 -15 0 0 -10z m80 -25 l0 -15 -10 0 -10 0 0 15 0
15 10 0 10 0 0 -15z"/>
<path d="M610 840 l0 -10 15 0 15 0 0 -15 0 -15 15 0 15 0 0 -15 0 -15 10 0
10 0 0 15 0 15 15 0 15 0 0 15 0 15 -14 0 -14 0 -6 13 -6 12 -6 -12 -6 -13
-14 0 -14 0 0 10 0 10 -15 0 -15 0 0 -10z m80 -25 l0 -15 -10 0 -10 0 0 15 0
15 10 0 10 0 0 -15z"/>
<path d="M770 840 l0 -10 15 0 15 0 0 -15 0 -15 15 0 15 0 0 -15 0 -15 10 0
10 0 0 15 0 15 15 0 15 0 0 15 0 15 -14 0 -14 0 -6 13 -6 12 -6 -12 -6 -13
-14 0 -14 0 0 10 0 10 -15 0 -15 0 0 -10z m80 -25 l0 -15 -10 0 -10 0 0 15 0
15 10 0 10 0 0 -15z"/>
<path d="M930 840 l0 -10 15 0 15 0 0 -15 0 -15 15 0 15 0 0 -15 0 -15 10 0
10 0 0 15 0 15 15 0 15 0 0 15 0 15 -14 0 -14 0 -6 13 -6 12 -6 -12 -6 -13
-14 0 -14 0 0 10 0 10 -15 0 -15 0 0 -10z m80 -25 l0 -15 -10 0 -10 0 0 15 0
15 10 0 10 0 0 -15z"/>
<path d="M1090 840 l0 -10 15 0 15 0 0 -15 0 -15 15 0 15 0 0 -15 0 -15 10 0
10 0 0 15 0 15 -10 0 -10 0 0 14 0 14 13 5 12 4 -9 9 -9 9 -4 -12 -5 -13 -14
0 -14 0 0 10 0 10 -15 0 -15 0 0 -10z"/>
<path d="M110 760 l0 -10 -15 0 -15 0 0 -15 0 -15 15 0 15 0 0 15 0 15 10 0
10 0 0 10 0 10 -10 0 -10 0 0 -10z"/>
<path d="M270 760 l0 -10 10 0 10 0 0 10 0 10 -10 0 -10 0 0 -10z"/>
<path d="M430 760 l0 -10 10 0 10 0 0 10 0 10 -10 0 -10 0 0 -10z"/>
<path d="M590 760 l0 -10 10 0 10 0 0 10 0 10 -10 0 -10 0 0 -10z"/>
<path d="M750 760 l0 -10 10 0 10 0 0 10 0 10 -10 0 -10 0 0 -10z"/>
<path d="M910 760 l0 -10 10 0 10 0 0 10 0 10 -10 0 -10 0 0 -10z"/>
<path d="M1070 760 l0 -10 10 0 10 0 0 10 0 10 -10 0 -10 0 0 -10z"/>
<path d="M110 625 l0 -15 10 0 10 0 0 15 0 15 -10 0 -10 0 0 -15z"/>
<path d="M210 625 l0 -15 15 0 15 0 0 15 0 15 -15 0 -15 0 0 -15z"/>
<path d="M320 625 l0 -15 15 0 15 0 0 15 0 15 -15 0 -15 0 0 -15z"/>
<path d="M430 625 l0 -15 10 0 10 0 0 15 0 15 -10 0 -10 0 0 -15z"/>
<path d="M530 625 l0 -15 15 0 15 0 0 15 0 15 -15 0 -15 0 0 -15z"/>
<path d="M850 625 l0 -15 15 0 15 0 0 15 0 15 -15 0 -15 0 0 -15z"/>
<path d="M960 625 l0 -15 15 0 15 0 0 15 0 15 -15 0 -15 0 0 -15z"/>
<path d="M1070 625 l0 -15 10 0 10 0 0 15 0 15 -10 0 -10 0 0 -15z"/>
<path d="M1170 625 l0 -15 15 0 15 0 0 15 0 15 -15 0 -15 0 0 -15z"/>
<path d="M160 600 l0 -10 15 0 15 0 0 10 0 10 -15 0 -15 0 0 -10z"/>
<path d="M270 600 l0 -10 10 0 10 0 0 10 0 10 -10 0 -10 0 0 -10z"/>
<path d="M370 600 l0 -10 15 0 15 0 0 10 0 10 -15 0 -15 0 0 -10z"/>
<path d="M480 600 l0 -10 15 0 15 0 0 10 0 10 -15 0 -15 0 0 -10z"/>
<path d="M800 600 l0 -10 15 0 15 0 0 10 0 10 -15 0 -15 0 0 -10z"/>
<path d="M910 600 l0 -10 10 0 10 0 0 10 0 10 -10 0 -10 0 0 -10z"/>
<path d="M1010 600 l0 -10 15 0 15 0 0 10 0 10 -15 0 -15 0 0 -10z"/>
<path d="M1120 600 l0 -10 15 0 15 0 0 10 0 10 -15 0 -15 0 0 -10z"/>
<path d="M110 575 l0 -15 10 0 10 0 0 15 0 15 -10 0 -10 0 0 -15z"/>
<path d="M210 575 l0 -15 15 0 15 0 0 15 0 15 -15 0 -15 0 0 -15z"/>
<path d="M320 575 l0 -15 15 0 15 0 0 15 0 15 -15 0 -15 0 0 -15z"/>
<path d="M430 575 l0 -15 10 0 10 0 0 15 0 15 -10 0 -10 0 0 -15z"/>
<path d="M850 575 l0 -15 15 0 15 0 0 15 0 15 -15 0 -15 0 0 -15z"/>
<path d="M960 575 l0 -15 15 0 15 0 0 15 0 15 -15 0 -15 0 0 -15z"/>
<path d="M1070 575 l0 -15 10 0 10 0 0 15 0 15 -10 0 -10 0 0 -15z"/>
<path d="M1170 575 l0 -15 15 0 15 0 0 15 0 15 -15 0 -15 0 0 -15z"/>
<path d="M160 545 l0 -15 15 0 15 0 0 15 0 15 -15 0 -15 0 0 -15z"/>
<path d="M270 545 l0 -15 10 0 10 0 0 15 0 15 -10 0 -10 0 0 -15z"/>
<path d="M370 545 l0 -15 15 0 15 0 0 15 0 15 -15 0 -15 0 0 -15z"/>
<path d="M480 545 l0 -15 15 0 15 0 0 15 0 15 -15 0 -15 0 0 -15z"/>
<path d="M800 545 l0 -15 15 0 15 0 0 15 0 15 -15 0 -15 0 0 -15z"/>
<path d="M910 545 l0 -15 10 0 10 0 0 15 0 15 -10 0 -10 0 0 -15z"/>
<path d="M1010 545 l0 -15 15 0 15 0 0 15 0 15 -15 0 -15 0 0 -15z"/>
<path d="M1120 545 l0 -15 15 0 15 0 0 15 0 15 -15 0 -15 0 0 -15z"/>
<path d="M110 520 l0 -10 10 0 10 0 0 10 0 10 -10 0 -10 0 0 -10z"/>
<path d="M210 520 l0 -10 15 0 15 0 0 10 0 10 -15 0 -15 0 0 -10z"/>
<path d="M320 520 l0 -10 15 0 15 0 0 10 0 10 -15 0 -15 0 0 -10z"/>
<path d="M430 520 l0 -10 10 0 10 0 0 10 0 10 -10 0 -10 0 0 -10z"/>
<path d="M850 520 l0 -10 15 0 15 0 0 10 0 10 -15 0 -15 0 0 -10z"/>
<path d="M960 520 l0 -10 15 0 15 0 0 10 0 10 -15 0 -15 0 0 -10z"/>
<path d="M1070 520 l0 -10 10 0 10 0 0 10 0 10 -10 0 -10 0 0 -10z"/>
<path d="M1170 520 l0 -10 15 0 15 0 0 10 0 10 -15 0 -15 0 0 -10z"/>
<path d="M160 495 l0 -15 15 0 15 0 0 15 0 15 -15 0 -15 0 0 -15z"/>
<path d="M270 495 l0 -15 10 0 10 0 0 15 0 15 -10 0 -10 0 0 -15z"/>
<path d="M370 495 l0 -15 15 0 15 0 0 15 0 15 -15 0 -15 0 0 -15z"/>
<path d="M480 495 l0 -15 15 0 15 0 0 15 0 15 -15 0 -15 0 0 -15z"/>
<path d="M800 495 l0 -15 15 0 15 0 0 15 0 15 -15 0 -15 0 0 -15z"/>
<path d="M910 495 l0 -15 10 0 10 0 0 15 0 15 -10 0 -10 0 0 -15z"/>
<path d="M1010 495 l0 -15 15 0 15 0 0 15 0 15 -15 0 -15 0 0 -15z"/>
<path d="M1120 495 l0 -15 15 0 15 0 0 15 0 15 -15 0 -15 0 0 -15z"/>
<path d="M110 465 l0 -15 10 0 10 0 0 15 0 15 -10 0 -10 0 0 -15z"/>
<path d="M210 465 l0 -15 15 0 15 0 0 15 0 15 -15 0 -15 0 0 -15z"/>
<path d="M320 465 l0 -15 15 0 15 0 0 15 0 15 -15 0 -15 0 0 -15z"/>
<path d="M430 465 l0 -15 10 0 10 0 0 15 0 15 -10 0 -10 0 0 -15z"/>
<path d="M850 465 l0 -15 15 0 15 0 0 15 0 15 -15 0 -15 0 0 -15z"/>
<path d="M960 465 l0 -15 15 0 15 0 0 15 0 15 -15 0 -15 0 0 -15z"/>
<path d="M1070 465 l0 -15 10 0 10 0 0 15 0 15 -10 0 -10 0 0 -15z"/>
<path d="M1170 465 l0 -15 15 0 15 0 0 15 0 15 -15 0 -15 0 0 -15z"/>
<path d="M160 440 l0 -10 15 0 15 0 0 10 0 10 -15 0 -15 0 0 -10z"/>
<path d="M270 440 l0 -10 10 0 10 0 0 10 0 10 -10 0 -10 0 0 -10z"/>
<path d="M370 440 l0 -10 15 0 15 0 0 10 0 10 -15 0 -15 0 0 -10z"/>
<path d="M480 440 l0 -10 15 0 15 0 0 10 0 10 -15 0 -15 0 0 -10z"/>
<path d="M800 440 l0 -10 15 0 15 0 0 10 0 10 -15 0 -15 0 0 -10z"/>
<path d="M910 440 l0 -10 10 0 10 0 0 10 0 10 -10 0 -10 0 0 -10z"/>
<path d="M1010 440 l0 -10 15 0 15 0 0 10 0 10 -15 0 -15 0 0 -10z"/>
<path d="M1120 440 l0 -10 15 0 15 0 0 10 0 10 -15 0 -15 0 0 -10z"/>
</g>
</svg>
