<?xml version="1.0" standalone="no"?>
<!DOCTYPE svg PUBLIC "-//W3C//DTD SVG 20010904//EN"
 "http://www.w3.org/TR/2001/REC-SVG-20010904/DTD/svg10.dtd">
<svg version="1.0" xmlns="http://www.w3.org/2000/svg"
 width="468pt" height="468pt" viewBox="0 0 468 468"
 preserveAspectRatio="xMidYMid meet">
<metadata>
Created by potrace 1.8, written by Peter Selinger 2001-2007
</metadata>
<g transform="translate(0,468) scale(0.365625,-0.365625)"
fill="#000000" stroke="none">
<path d="M0 655 l0 -625 11 0 10 0 15 14 14 15 0 585 0 586 586 0 585 0 15 14
14 15 0 10 0 11 -625 0 -625 0 0 -625z"/>
<path d="M1250 640 l0 -610 -610 0 -610 0 0 -15 0 -15 625 0 625 0 0 625 0
625 -15 0 -15 0 0 -610z"/>
<path d="M270 990 l0 -80 10 0 10 0 0 -15 0 -15 175 0 175 0 0 -25 0 -25 -65
0 -65 0 0 -40 0 -40 -30 0 -30 0 0 25 0 25 -10 0 -10 0 0 15 0 15 -150 0 -150
0 0 -95 0 -95 15 0 15 0 0 -15 0 -15 55 0 55 0 0 -10 0 -10 -70 0 -70 0 0 -95
0 -95 15 0 15 0 0 -15 0 -15 55 0 55 0 0 -10 0 -10 -70 0 -70 0 0 -95 0 -95
15 0 15 0 0 -15 0 -15 145 0 145 0 0 95 0 95 -10 0 -10 0 0 15 0 15 -70 0 -70
0 0 10 0 10 80 0 80 0 0 95 0 95 -10 0 -10 0 0 15 0 15 -70 0 -70 0 0 10 0 10
80 0 80 0 0 55 0 55 30 0 30 0 0 -40 0 -40 10 0 10 0 0 -15 0 -15 150 0 150 0
0 55 0 55 25 0 25 0 0 -40 0 -40 15 0 15 0 0 -15 0 -15 50 0 50 0 0 -10 0 -10
-65 0 -65 0 0 -95 0 -95 15 0 15 0 0 -15 0 -15 145 0 145 0 0 95 0 95 -15 0
-15 0 0 15 0 15 -65 0 -65 0 0 10 0 10 80 0 80 0 0 95 0 95 -15 0 -15 0 0 15
0 15 -145 0 -145 0 0 -40 0 -40 -25 0 -25 0 0 25 0 25 -15 0 -15 0 0 15 0 15
-65 0 -65 0 0 25 0 25 200 0 200 0 0 80 0 80 -15 0 -15 0 0 15 0 15 -385 0
-385 0 0 -80z m740 -5 l0 -55 -360 0 -360 0 0 55 0 55 360 0 360 0 0 -55z
m-610 -250 l0 -65 -120 0 -120 0 0 65 0 65 120 0 120 0 0 -65z m370 0 l0 -65
-120 0 -120 0 0 65 0 65 120 0 120 0 0 -65z m380 0 l0 -65 -120 0 -120 0 0 65
0 65 120 0 120 0 0 -65z m-750 -240 l0 -65 -120 0 -120 0 0 65 0 65 120 0 120
0 0 -65z m750 0 l0 -65 -120 0 -120 0 0 65 0 65 120 0 120 0 0 -65z m-750
-240 l0 -65 -120 0 -120 0 0 65 0 65 120 0 120 0 0 -65z"/>
</g>
</svg>
