<?xml version="1.0" standalone="no"?>
<!DOCTYPE svg PUBLIC "-//W3C//DTD SVG 20010904//EN"
 "http://www.w3.org/TR/2001/REC-SVG-20010904/DTD/svg10.dtd">
<svg version="1.0" xmlns="http://www.w3.org/2000/svg"
 width="468pt" height="468pt" viewBox="0 0 468 468"
 preserveAspectRatio="xMidYMid meet">
<metadata>
Created by potrace 1.8, written by Peter Selinger 2001-2007
</metadata>
<g transform="translate(0,468) scale(0.365625,-0.365625)"
fill="#000000" stroke="none">
<path d="M0 1270 l0 -10 10 0 10 0 0 10 0 10 -10 0 -10 0 0 -10z"/>
<path d="M105 1228 l0 -53 -53 0 -52 1 0 -588 0 -588 640 0 640 0 0 640 0 640
-13 0 -13 0 1 -52 0 -53 -29 -3 -28 -4 -24 6 -24 6 0 10 0 10 15 0 15 0 0 -10
0 -10 25 0 25 0 0 20 0 20 -24 0 -24 0 -16 6 -16 6 0 14 0 14 10 0 10 0 0 10
0 10 -25 0 -25 0 0 -10 0 -10 10 0 10 0 0 -14 0 -14 -12 -5 -13 -5 13 -1 12
-1 0 -19 0 -19 -16 -6 -16 -6 -28 0 -28 0 -16 6 -16 6 0 18 0 18 13 5 12 5
-12 1 -13 1 0 15 0 15 10 0 10 0 0 10 0 10 -15 0 -15 0 0 -11 0 -12 -35 -33
-35 -33 0 -10 0 -11 -15 0 -15 0 0 11 0 12 36 33 35 34 -40 0 -41 0 0 10 0 10
-20 0 -20 0 0 -9 0 -9 13 -6 12 -5 -42 6 -43 6 0 -17 0 -16 24 0 24 0 16 -6
16 -6 0 -19 0 -19 -24 -6 -24 -6 -28 4 -29 3 0 53 1 52 -13 0 -13 0 0 -10 0
-10 -40 0 -40 0 0 -14 0 -15 38 -3 37 -3 0 -25 0 -25 -55 -1 -55 -1 43 4 42 4
0 20 0 19 -40 0 -40 0 0 30 0 30 -10 0 -10 0 0 -55 0 -55 -15 0 -15 0 0 15 0
15 -40 0 -40 0 0 5 0 6 26 24 27 25 8 0 9 0 0 10 0 10 -50 0 -50 0 0 -10 0
-10 10 0 10 0 0 -14 0 -14 -12 -5 -13 -5 13 -1 12 -1 0 -19 0 -19 -16 -6 -16
-6 -28 0 -28 0 -16 6 -16 6 0 9 0 9 20 0 20 0 0 -10 0 -10 20 0 20 0 0 19 0
20 -22 4 -23 4 23 2 22 1 0 16 0 16 -42 -6 -43 -6 13 6 12 6 0 9 0 9 -25 0
-25 0 0 -10 0 -10 10 0 10 0 0 -14 0 -15 -22 -7 -22 -7 -13 -13 -13 -13 0 -5
0 -5 38 -4 37 -4 -57 -1 -58 -2 0 3 0 4 18 20 17 20 23 7 22 7 0 16 0 16 -40
-7 -39 -6 5 15 6 15 -32 0 -32 0 4 -55 3 -55 -30 1 -30 1 13 5 12 5 0 24 0 24
-20 0 -20 0 0 9 0 10 20 6 20 6 0 10 0 9 -38 0 -38 0 1 -52z"/>
<path d="M30 1220 l0 -40 25 0 25 0 0 40 0 40 -25 0 -25 0 0 -40z"/>
<path d="M1060 1245 l0 -15 20 0 20 0 0 15 0 15 -20 0 -20 0 0 -15z"/>
<path d="M1180 1245 l0 -15 25 0 25 0 0 15 0 15 -25 0 -25 0 0 -15z"/>
<path d="M572 1235 l-13 -15 16 0 15 0 0 15 0 15 -2 0 -3 -1 -13 -14z"/>
<path d="M800 1200 l0 -20 25 0 25 0 0 20 0 20 -25 0 -25 0 0 -20z"/>
<path d="M1060 1200 l0 -20 20 0 20 0 0 20 0 20 -20 0 -20 0 0 -20z"/>
</g>
</svg>
