<?xml version="1.0" standalone="no"?>
<!DOCTYPE svg PUBLIC "-//W3C//DTD SVG 20010904//EN"
 "http://www.w3.org/TR/2001/REC-SVG-20010904/DTD/svg10.dtd">
<svg version="1.0" xmlns="http://www.w3.org/2000/svg"
 width="468pt" height="468pt" viewBox="0 0 468 468"
 preserveAspectRatio="xMidYMid meet">
<metadata>
Created by potrace 1.8, written by Peter Selinger 2001-2007
</metadata>
<g transform="translate(0,468) scale(0.365625,-0.365625)"
fill="#000000" stroke="none">
<path d="M743 1255 l-23 -24 0 -26 0 -25 -30 0 -30 0 0 -10 0 -10 -90 0 -90 0
0 -10 0 -10 -70 0 -70 0 0 10 0 10 -40 0 -40 0 0 10 0 10 -40 0 -40 0 0 10 0
10 -40 0 -40 0 0 10 0 10 -20 0 -20 0 0 -10 0 -10 20 0 20 0 0 -10 0 -10 40 0
40 0 0 -10 0 -10 40 0 40 0 0 -10 0 -10 40 0 40 0 0 -10 0 -10 70 0 70 0 0 10
0 10 90 0 90 0 0 10 0 10 30 0 30 0 0 -20 0 -20 10 0 10 0 0 19 0 19 -12 6
-13 6 13 6 12 6 0 27 0 27 20 14 20 14 0 8 0 8 -7 -1 -8 0 -22 -24z"/>
<path d="M980 1230 l0 -50 26 0 26 0 28 30 28 30 16 0 16 0 0 -10 0 -10 20 0
20 0 0 -10 0 -10 16 0 16 0 39 -41 40 -41 6 5 6 6 -32 30 -31 29 0 16 0 16
-30 0 -30 0 0 10 0 10 -20 0 -20 0 0 10 0 10 -16 0 -16 0 -28 -30 -28 -30 -16
0 -16 0 0 40 0 40 -10 0 -10 0 0 -50z"/>
<path d="M873 1185 l-13 -14 0 -11 0 -11 -14 -15 -15 -14 -15 0 -16 0 0 -10 0
-10 15 0 16 0 24 25 25 24 0 16 0 15 10 0 10 0 0 10 0 10 -7 0 -8 -1 -12 -14z"/>
<path d="M60 1130 l0 -10 30 0 30 0 0 -10 0 -10 40 0 40 0 0 -10 0 -10 40 0
40 0 0 -10 0 -10 40 0 40 0 0 -10 0 -10 -10 0 -10 0 0 -16 0 -16 -30 -28 -30
-28 0 -16 0 -16 -10 0 -10 0 0 -16 0 -16 -40 -38 -40 -38 0 -12 0 -12 -30 -28
-30 -28 0 -16 0 -16 -10 0 -10 0 0 -20 0 -20 -10 0 -10 0 0 -20 0 -20 -10 0
-10 0 0 -20 0 -20 -10 0 -10 0 0 -30 0 -30 -10 0 -10 0 0 -30 0 -30 10 0 10 0
0 -40 0 -40 10 0 10 0 0 -15 0 -16 45 -44 44 -45 16 0 15 0 0 -10 0 -10 60 0
60 0 0 10 0 10 30 0 30 0 0 10 0 10 26 0 25 0 15 14 14 15 0 11 0 12 30 28 30
28 0 16 0 16 10 0 10 0 0 50 0 50 -10 0 -10 0 0 40 0 40 -10 0 -10 0 0 40 0
40 -10 0 -10 0 0 20 0 20 -10 0 -10 0 0 20 0 20 -10 0 -10 0 0 20 0 20 -10 0
-10 0 0 20 0 20 -10 0 -10 0 0 50 0 50 10 0 10 0 0 20 0 20 10 0 10 0 0 26 0
25 14 15 15 14 25 0 26 0 0 -36 0 -36 -40 -38 -40 -38 0 -22 0 -21 14 -15 15
-14 63 0 64 0 14 20 14 20 18 0 18 0 0 10 0 10 30 0 30 0 0 -10 0 -10 -16 0
-16 0 -28 -30 -28 -30 -12 0 -11 0 -15 -14 -14 -15 0 -25 0 -26 -10 0 -10 0 0
-20 0 -20 -10 0 -10 0 0 -55 0 -56 25 -24 24 -25 46 0 45 0 0 10 0 10 15 0 16
0 44 45 45 44 0 31 0 31 14 15 15 14 15 0 16 0 0 -20 0 -20 -10 0 -10 0 0 -20
0 -20 -10 0 -10 0 0 -90 0 -90 10 0 10 0 0 -20 0 -20 20 0 20 0 0 8 0 8 -20
14 -20 14 0 88 0 88 10 0 10 0 0 20 0 20 10 0 10 0 0 16 0 15 -14 15 -15 14
-11 0 -11 0 -24 -25 -25 -24 0 -31 0 -31 -35 -34 -34 -35 -16 0 -15 0 0 -10 0
-10 -46 0 -45 0 -15 14 -14 15 0 45 0 46 10 0 10 0 0 30 0 30 10 0 10 0 0 30
0 30 16 0 16 0 28 30 28 30 26 0 26 0 0 16 0 15 -14 15 -15 14 -25 0 -26 0 0
-10 0 -10 -30 0 -30 0 0 -20 0 -20 -56 0 -55 0 -15 14 -14 15 0 11 0 12 40 38
40 38 0 32 0 31 25 24 24 25 45 0 44 0 5 -12 4 -13 8 7 7 7 -15 16 -16 15 -53
0 -54 0 -14 -20 -14 -20 -38 0 -38 0 0 10 0 10 -30 0 -30 0 0 -10 0 -10 -50 0
-50 0 0 10 0 10 -40 0 -40 0 0 10 0 10 -40 0 -40 0 0 10 0 10 -30 0 -30 0 0
-10z m360 -70 l0 -20 -10 0 -10 0 0 -30 0 -30 -10 0 -10 0 0 -20 0 -20 -10 0
-10 0 0 -50 0 -50 10 0 10 0 0 -20 0 -20 10 0 10 0 0 -20 0 -20 10 0 10 0 0
-20 0 -20 10 0 10 0 0 -20 0 -20 10 0 10 0 0 -40 0 -40 10 0 10 0 0 -40 0 -40
10 0 10 0 0 -50 0 -50 -10 0 -10 0 0 -15 0 -16 -45 -44 -44 -45 -16 0 -15 0 0
-10 0 -10 -40 0 -40 0 0 -10 0 -10 -40 0 -40 0 0 10 0 10 -25 0 -26 0 -34 35
-35 34 0 16 0 15 -10 0 -10 0 0 40 0 40 -10 0 -10 0 0 30 0 30 10 0 10 0 0 30
0 30 10 0 10 0 0 20 0 20 10 0 10 0 0 20 0 20 10 0 10 0 0 20 0 20 10 0 10 0
0 16 0 16 30 28 30 28 0 12 0 12 40 38 40 38 0 16 0 16 10 0 10 0 0 16 0 16
30 28 30 28 0 11 0 12 23 24 22 24 8 0 7 1 0 -20z"/>
<path d="M211 684 l-13 -15 6 -6 5 -5 16 15 15 16 0 5 0 6 -7 0 -8 -1 -14 -15z"/>
<path d="M180 630 l0 -10 10 0 10 0 0 10 0 10 -10 0 -10 0 0 -10z"/>
<path d="M160 590 l0 -10 10 0 10 0 0 10 0 10 -10 0 -10 0 0 -10z"/>
<path d="M160 550 l0 -10 10 0 10 0 0 10 0 10 -10 0 -10 0 0 -10z"/>
<path d="M160 510 l0 -10 10 0 10 0 0 10 0 10 -10 0 -10 0 0 -10z"/>
<path d="M180 470 l0 -10 10 0 10 0 0 10 0 10 -10 0 -10 0 0 -10z"/>
<path d="M220 384 l0 -15 14 -15 15 -14 11 0 11 0 15 15 15 15 -15 15 -15 15
-25 0 -26 0 0 -16z m60 -14 l0 -10 -20 0 -20 0 0 10 0 10 20 0 20 0 0 -10z"/>
<path d="M1080 1130 l0 -10 -20 0 -20 0 0 -10 0 -10 20 0 20 0 0 10 0 10 20 0
20 0 0 10 0 10 -20 0 -20 0 0 -10z"/>
<path d="M1000 1110 l0 -10 10 0 10 0 0 10 0 10 -10 0 -10 0 0 -10z"/>
<path d="M721 1074 l-23 -25 7 -7 8 -7 4 13 5 12 9 0 9 0 0 -20 0 -20 10 0 10
0 0 -50 0 -50 10 0 10 0 0 50 0 50 -10 0 -10 0 0 20 0 20 10 0 10 0 0 -10 0
-10 16 0 16 0 39 -41 40 -41 5 5 6 6 -46 45 -45 46 -14 0 -13 0 -14 20 -14 20
-6 -1 -5 0 -24 -25z m39 -4 l0 -10 -10 0 -10 0 0 10 0 10 10 0 10 0 0 -10z"/>
<path d="M940 1090 l0 -10 20 0 20 0 0 10 0 10 -20 0 -20 0 0 -10z"/>
<path d="M840 1070 l0 -10 40 0 40 0 0 10 0 10 -40 0 -40 0 0 -10z"/>
<path d="M650 1000 l-14 -20 -18 0 -18 0 0 -10 0 -10 18 0 18 0 14 20 14 20
18 0 18 0 0 10 0 10 -18 0 -18 0 -14 -20z"/>
<path d="M1260 1005 l0 -16 -25 -24 -24 -25 -16 0 -15 0 0 -10 0 -10 -20 0
-20 0 0 20 0 20 -10 0 -10 0 0 20 0 20 -46 0 -45 0 -15 -14 -14 -15 0 -11 0
-11 14 -15 15 -14 21 0 21 0 15 -14 14 -15 0 -15 0 -16 10 0 10 0 0 -18 0 -18
20 -14 20 -14 0 -28 0 -28 10 0 10 0 0 -100 0 -100 -10 0 -10 0 0 -20 0 -20
-10 0 -10 0 0 -30 0 -30 10 0 10 0 0 20 0 20 10 0 10 0 0 30 0 30 10 0 10 0 0
100 0 100 -10 0 -10 0 0 28 0 28 -20 14 -20 14 0 18 0 18 -10 0 -10 0 0 15 0
16 -25 24 -24 25 -26 0 -25 0 0 20 0 20 36 0 35 0 15 -14 14 -15 0 -11 0 -11
14 -15 15 -14 15 0 16 0 0 10 0 10 15 0 16 0 34 35 35 34 0 16 0 15 -10 0 -10
0 0 -15z"/>
<path d="M900 932 l0 -8 20 -14 20 -14 0 -18 0 -18 10 0 10 0 0 -20 0 -20 10
0 10 0 0 20 0 20 -10 0 -10 0 0 20 0 20 -10 0 -10 0 0 20 0 20 -20 0 -20 0 0
-8z"/>
<path d="M760 870 l0 -30 -10 0 -10 0 0 -26 0 -26 -31 -29 -32 -30 6 -5 6 -6
35 36 36 35 0 26 0 25 10 0 10 0 0 30 0 30 -10 0 -10 0 0 -30z"/>
<path d="M980 790 l0 -10 10 0 10 0 0 10 0 10 -10 0 -10 0 0 -10z"/>
<path d="M1000 720 l0 -40 10 0 10 0 0 40 0 40 -10 0 -10 0 0 -40z"/>
<path d="M1020 650 l0 -10 10 0 10 0 0 10 0 10 -10 0 -10 0 0 -10z"/>
<path d="M1020 600 l0 -20 10 0 10 0 0 20 0 20 -10 0 -10 0 0 -20z"/>
<path d="M740 390 l0 -10 10 0 10 0 0 -60 0 -60 -10 0 -10 0 0 -10 0 -10 40 0
40 0 0 10 0 10 -10 0 -10 0 0 30 0 30 20 0 20 0 0 10 0 10 -20 0 -20 0 0 20 0
20 20 0 20 0 0 -10 0 -10 20 0 20 0 0 20 0 20 -70 0 -70 0 0 -10z"/>
<path d="M900 390 l0 -10 10 0 10 0 0 -60 0 -60 -10 0 -10 0 0 -10 0 -10 40 0
40 0 0 10 0 10 -10 0 -10 0 0 60 0 60 10 0 10 0 0 10 0 10 -40 0 -40 0 0 -10z"/>
<path d="M1033 385 l-13 -14 0 -51 0 -51 14 -15 15 -14 41 0 41 0 15 14 14 15
0 25 0 26 -30 0 -30 0 0 -10 0 -10 10 0 10 0 0 -20 0 -20 -30 0 -30 0 0 60 0
60 30 0 30 0 0 -10 0 -10 20 0 20 0 0 6 0 5 -14 15 -15 14 -43 0 -43 -1 -12
-14z"/>
<path d="M0 100 l0 -100 640 0 640 0 0 100 0 100 -640 0 -640 0 0 -100z"/>
</g>
</svg>
