<?xml version="1.0" standalone="no"?>
<!DOCTYPE svg PUBLIC "-//W3C//DTD SVG 20010904//EN"
 "http://www.w3.org/TR/2001/REC-SVG-20010904/DTD/svg10.dtd">
<svg version="1.0" xmlns="http://www.w3.org/2000/svg"
 width="468pt" height="468pt" viewBox="0 0 468 468"
 preserveAspectRatio="xMidYMid meet">
<metadata>
Created by potrace 1.8, written by Peter Selinger 2001-2007
</metadata>
<g transform="translate(0,468) scale(0.365625,-0.365625)"
fill="#000000" stroke="none">
<path d="M477 1236 l-6 -14 6 -6 6 -6 9 0 8 0 0 20 0 20 -9 0 -9 0 -5 -14z"/>
<path d="M740 1233 l-14 -18 14 13 14 12 14 0 14 0 -6 -15 -5 -15 10 0 10 0
-3 17 -3 18 -16 3 -16 3 -13 -18z"/>
<path d="M562 1224 l-22 -15 5 -10 6 -9 -13 0 -13 0 15 -10 14 -9 8 12 7 12
14 -19 13 -18 22 13 22 14 0 7 0 7 -10 6 -10 6 -20 -11 -20 -11 0 10 0 10 -17
-6 -18 -6 8 9 9 9 21 0 20 0 4 13 5 12 -14 0 -14 0 -22 -16z m48 -44 l0 -10
-10 0 -10 0 0 10 0 10 10 0 10 0 0 -10z"/>
<path d="M800 1227 l0 -18 -16 -24 -16 -24 6 -10 6 -10 -20 2 -20 1 0 26 0 25
10 -15 10 -15 0 17 0 17 -11 6 -10 7 -5 -5 -5 -4 -4 -23 -5 -24 13 -14 12 -15
-12 -4 -13 -5 6 -26 6 -27 -10 13 -9 13 -11 -14 -12 -14 20 2 20 1 6 6 6 6 3
19 3 18 1 15 1 15 11 -15 11 -15 5 13 5 12 14 0 14 0 11 24 11 23 -16 29 -15
29 -1 -18z m-1 -76 l-10 -3 -6 5 -5 6 7 11 8 12 8 -13 8 -14 -10 -4z"/>
<path d="M442 1192 l4 -28 -13 -13 -13 -12 0 -14 0 -15 12 0 12 0 22 -21 22
-21 7 13 8 12 -13 -8 -13 -8 5 14 4 13 33 7 32 7 -16 -18 -16 -18 12 -8 12 -7
30 -1 30 -1 5 17 4 18 19 0 19 0 0 -15 0 -15 9 0 9 0 6 17 7 17 -7 -7 -7 -7
-19 17 -18 16 0 13 0 14 -32 -7 -31 -6 8 13 8 13 -13 -8 -13 -8 21 -18 22 -17
0 -6 0 -6 -19 0 -20 0 -7 23 -8 22 -1 7 0 6 -9 9 -9 8 7 -27 6 -28 -19 0 -19
0 -4 24 -5 25 16 15 15 16 -27 0 -27 0 0 10 0 10 -16 0 -16 0 4 -28z m41 -5
l7 6 0 -11 0 -12 -20 0 -20 0 0 16 0 16 13 -11 14 -11 6 7z m-8 -37 l-20 -9
13 0 12 -1 0 -20 0 -20 -8 0 -9 0 -16 18 -17 18 12 12 12 12 21 -1 20 0 -20
-9z"/>
<path d="M656 1211 l-8 -12 6 -6 6 -6 6 6 6 6 -4 12 -4 13 -8 -13z"/>
<path d="M923 1213 l-13 -5 0 -13 0 -13 -14 -11 -13 -11 4 -24 5 -23 -21 -6
-21 -5 -6 10 -6 9 -13 -5 -13 -4 -11 11 -11 11 0 -12 0 -12 -15 0 -15 0 -1 -7
-1 -8 -3 -49 -3 -49 9 -25 10 -25 -8 -8 -8 -8 -14 9 -15 8 13 16 13 16 -10 0
-11 0 5 14 5 14 -10 7 -11 6 7 -16 6 -17 -21 13 -20 13 5 13 5 13 9 -6 9 -5 0
10 0 11 -15 0 -15 0 0 -15 0 -15 -12 0 -13 0 32 -21 33 -21 -6 -9 -6 -10 -31
4 -32 3 1 22 1 22 -9 0 -9 0 2 -12 1 -13 -1 -19 -1 -18 -13 11 -14 11 -6 -6
-5 -6 -28 19 -28 18 7 -11 6 -11 -30 -1 -31 -1 -21 -13 -22 -14 -12 1 -13 0 0
8 0 7 0 6 0 6 17 -13 16 -14 -12 24 -13 23 -11 -11 -11 -11 -9 0 -9 0 6 15 6
16 -12 44 -12 45 -18 0 -18 0 0 16 0 15 10 -6 9 -6 21 18 20 17 0 16 0 15 -8
12 -8 13 -18 -13 -19 -14 17 -6 17 -7 -6 10 -6 10 10 0 11 0 0 -14 0 -15 -27
-3 -28 -3 -3 -22 -3 -23 -19 0 -19 0 -6 -10 -6 -10 -10 0 -9 0 0 20 0 20 -14
0 -15 0 -6 -10 -6 -10 -8 4 -8 5 0 -14 0 -15 16 0 15 0 -20 -16 -19 -15 12 6
13 6 12 -8 13 -8 0 -37 0 -36 -5 0 -5 0 -10 -1 -10 -1 13 -9 13 -8 -23 -36
-23 -36 -9 -1 -8 0 5 14 6 14 -14 19 -13 18 -9 -9 -8 -8 17 -11 16 -11 -15
-23 -15 -23 11 0 11 0 0 -11 0 -10 -10 6 -10 6 6 -18 6 -18 -20 25 -20 24 16
13 17 13 -19 15 -20 15 13 0 12 0 -6 10 -6 10 -9 -5 -9 -5 -6 11 -7 10 -2 29
-2 29 15 4 16 5 -18 1 -17 1 -11 -24 -12 -25 39 -47 39 -48 -17 6 -16 7 2 -12
2 -12 12 -21 11 -21 -6 -7 -6 -6 46 0 47 0 0 -16 0 -16 13 4 12 5 3 20 3 21
24 6 24 6 -5 38 -4 37 11 -28 11 -29 -13 -24 -12 -24 -14 0 -14 0 6 -10 7 -11
11 2 12 2 19 -8 18 -8 8 14 9 13 -4 5 -5 4 -15 -13 -15 -12 0 18 1 19 12 16
12 15 25 0 25 -1 3 -7 2 -8 0 -15 0 -14 -17 6 -17 7 12 4 12 4 0 9 0 9 -11 0
-10 0 -14 -14 -14 -14 23 -6 23 -6 11 -27 12 -28 -2 -30 -1 -31 -25 2 -26 1
-4 11 -4 12 -8 0 -8 0 5 -20 5 -20 12 -2 11 -1 15 -1 15 -1 3 -19 4 -19 27
-24 26 -25 3 27 4 27 -13 12 -12 11 7 -12 6 -12 -11 -7 -12 -7 7 11 7 12 -10
0 -11 0 0 11 0 10 9 -6 10 -5 7 11 7 12 -17 9 -16 9 0 26 0 27 11 -11 10 -10
3 -19 3 -19 21 -3 22 -3 -6 15 -6 16 -15 0 -14 0 6 23 6 22 -9 -14 -9 -13 -7
11 -7 11 6 20 6 20 17 9 17 9 48 -2 49 -2 9 -15 9 -14 0 -6 0 -6 -49 0 -49 -1
3 17 3 18 -13 0 -14 0 7 -11 6 -11 3 -15 2 -15 -13 18 -13 17 -7 0 -6 0 11
-18 11 -18 55 -1 54 -1 14 -12 14 -12 10 6 9 6 -2 -12 -2 -13 -7 -13 -8 -12
-11 6 -10 6 3 -40 3 -41 -7 -7 -7 -7 0 -11 1 -11 20 24 20 24 6 -7 7 -7 -12
-19 -12 -20 15 0 15 0 0 30 0 29 13 -3 12 -3 -7 4 -8 5 0 14 0 14 15 0 15 0 0
9 0 9 70 4 70 3 5 -12 4 -13 21 0 20 0 0 10 0 10 -10 0 -10 0 0 18 1 17 15 30
14 30 -4 -24 -5 -23 18 18 18 19 -9 6 -10 6 17 7 17 6 9 -6 9 -5 -5 -10 -6 -9
15 6 16 6 0 24 0 24 13 0 12 -1 18 -13 18 -14 -15 -15 -15 -14 26 0 25 0 -13
8 -14 9 13 9 14 8 44 -5 44 -5 0 11 0 10 -18 -5 -18 -4 1 29 0 30 9 -6 9 -5
-7 19 -7 19 12 -12 13 -13 18 17 18 16 18 -15 17 -16 20 9 20 9 -20 -3 -20 -4
-22 27 -21 26 9 15 9 14 0 -14 0 -13 15 12 15 12 0 15 0 14 -10 -6 -10 -6 7
-12 7 -12 -17 14 -17 13 0 -11 0 -12 -10 6 -10 6 5 10 6 9 -17 -7 -17 -6 18
-13 18 -13 -17 -26 -16 -25 -25 0 -25 0 0 10 0 11 15 5 14 6 -14 15 -15 15 6
10 7 10 9 -13 10 -14 -6 18 -5 17 22 1 22 1 -18 5 -17 5 6 11 6 12 -24 -29
-24 -28 1 -43 0 -43 -13 10 -12 11 11 13 11 14 -9 0 -9 0 -14 -12 -14 -13 18
22 19 22 -6 21 -5 20 9 0 9 0 0 15 0 15 -12 -3 -11 -2 -14 25 -13 25 0 -28 0
-28 10 6 10 6 0 -14 0 -15 -17 -6 -18 -6 -14 -6 -14 -7 8 13 7 12 -20 -11 -21
-11 -11 0 -11 0 21 30 22 31 -12 -3 -12 -3 -5 13 -5 12 16 -6 16 -6 9 23 10
24 1 -15 0 -15 10 15 9 15 31 -19 31 -18 5 5 5 5 -32 16 -32 16 -14 0 -13 0
-1 13 0 12 -9 -22 -9 -23 -13 -1 -13 -1 -13 1 -14 2 6 -18 6 -18 -10 -15 -10
-15 2 53 2 54 4 -11 4 -11 10 6 11 7 -7 -11 -7 -12 12 0 11 0 -5 20 -5 19 10
3 10 4 -16 14 -17 13 3 -9 3 -9 -10 -3 -9 -3 -4 9 -3 9 27 12 27 12 18 -17 19
-17 -7 -11 -7 -11 17 14 17 13 0 23 0 23 -12 9 -13 10 -25 6 -25 5 -12 -5z
m-113 -128 l0 -25 -20 17 -20 17 13 8 12 8 8 0 7 0 0 -25z m42 3 l12 -23 -2
-13 -3 -12 10 -18 11 -17 -2 33 -2 34 -8 4 -8 5 0 10 0 9 13 0 13 0 3 -47 2
-47 11 -13 11 -13 -6 -7 -7 -6 -17 14 -17 14 8 -12 7 -13 -22 0 -21 0 12 15
13 15 -7 7 -6 6 0 -12 0 -12 -10 6 -10 6 2 -11 3 -12 -25 -16 -25 -16 7 8 8 9
-17 12 -16 12 8 19 8 19 -2 24 -3 24 17 -17 17 -17 -17 -19 -18 -20 6 -7 7 -6
0 11 0 12 16 0 15 0 -6 10 -6 10 11 0 10 0 -6 40 -7 40 11 0 11 0 13 -22z
m-512 -15 l0 -13 18 0 17 0 -15 11 -15 11 14 -4 14 -4 1 -27 2 -27 -16 5 -15
5 19 -15 20 -15 -8 0 -8 0 12 -15 12 -15 -25 2 -26 2 5 7 4 7 -6 16 -6 16 -10
0 -10 0 5 -14 6 -14 -7 -7 -7 -7 -1 -9 -1 -9 -2 -10 -1 -10 -11 0 -11 0 13 16
14 17 -23 -7 -22 -7 0 10 0 10 21 6 20 7 -5 15 -6 15 0 19 0 19 -9 0 -9 0 5
-20 5 -20 -11 0 -11 0 0 21 0 22 17 13 18 12 17 -1 18 -1 0 -13z m700 -113 l0
-20 -10 0 -10 0 0 20 0 20 10 0 10 0 0 -20z m-310 -35 l0 -4 -30 10 -30 11 0
9 0 10 30 -16 30 -16 0 -4z m-146 10 l-6 -15 10 0 10 0 5 13 5 12 1 -24 1 -23
-16 6 -15 6 6 -10 6 -10 20 0 20 0 -6 20 -6 20 10 0 11 0 0 -25 0 -25 -19 0
-20 0 -6 -20 -6 -20 -22 -2 -22 -1 -32 -2 -32 -1 5 8 5 8 -11 20 -11 20 16 16
15 15 0 -7 0 -8 14 19 13 18 17 -6 17 -7 -6 10 -6 10 20 0 20 0 -5 -15z m-221
-32 l9 -13 -16 0 -16 0 1 28 1 27 5 -15 6 -15 10 -12z m87 -8 l0 -5 -37 1 -38
1 30 7 30 6 -12 8 -13 8 0 10 0 9 20 -20 20 -20 0 -5z m526 0 l12 -40 1 13 1
12 20 0 21 0 8 -22 9 -23 -5 -8 -5 -8 -11 10 -12 9 -25 4 -25 3 -1 20 -1 20
-2 22 -1 23 -29 -6 -29 -6 -6 10 -6 10 37 -2 37 -1 12 -40z m-202 -5 l-1 -23
13 18 13 17 -1 -33 -1 -34 -4 13 -5 12 -29 0 -29 0 0 18 0 18 12 12 12 12 11
-3 10 -4 -1 -23z m96 16 l0 -15 -20 -6 -20 -6 -11 6 -10 7 18 14 18 13 13 1
12 0 0 -14z m290 11 l0 -4 -20 -18 -20 -18 0 6 0 6 16 15 15 16 5 0 4 0 0 -3z
m-870 -37 l0 -30 -19 0 -20 0 -6 10 -6 10 6 20 6 20 20 0 19 0 0 -30z m660 15
l0 -3 -20 -5 -20 -5 0 13 0 13 20 -5 20 -5 0 -3z m-230 -35 l0 -10 -4 0 -5 0
-6 10 -6 10 10 0 11 0 0 -10z m167 -5 l0 -15 -9 0 -9 0 6 -11 7 -10 -12 -29
-12 -30 -9 6 -9 5 0 -10 0 -11 -15 0 -14 0 5 -15 6 -15 -27 -10 -27 -10 -37 6
-36 7 -12 16 -12 16 -1 -32 0 -33 -16 0 -17 0 6 49 6 48 -10 10 -10 10 7 16 6
17 10 0 10 0 -13 -17 -14 -17 12 7 12 8 20 -12 19 -13 33 17 34 17 -17 0 -18
0 0 15 0 15 8 -1 7 0 19 -8 20 -7 -24 -24 -23 -23 20 5 20 5 17 -9 16 -9 13
12 13 12 -4 34 -4 33 29 0 30 0 0 -15z m188 5 l6 -10 -10 0 -11 0 0 10 0 10 4
0 5 0 6 -10z m-128 -32 l-5 -13 -1 19 -1 19 6 -6 6 -6 -5 -13z m-531 -24 l-6
-17 -5 5 -5 5 6 17 6 17 5 -5 5 -5 -6 -17z m299 -2 l-3 -4 -23 7 -22 7 13 8
13 8 12 -11 13 -12 -3 -3z m-90 -52 l-6 -10 -8 0 -8 0 -1 31 -1 32 15 -22 15
-21 -6 -10z m2 -106 l-6 -6 -13 5 -13 5 19 1 19 1 -6 -6z"/>
<path d="M525 850 l-20 -9 17 0 17 -1 6 10 6 10 -3 -1 -3 0 -20 -9z"/>
<path d="M663 769 l-2 -19 4 0 3 0 5 15 6 14 -7 5 -8 5 -1 -20z"/>
<path d="M690 760 l0 -9 15 5 15 6 0 4 0 4 -15 0 -15 0 0 -10z"/>
<path d="M785 760 l6 -10 5 0 4 0 0 10 0 10 -11 0 -10 0 6 -10z"/>
<path d="M334 1202 l-12 -7 16 -15 16 -14 -7 16 -6 17 22 4 22 4 -20 1 -20 2
-11 -8z"/>
<path d="M679 1170 l-11 -30 -10 0 -9 0 7 12 7 11 -11 -7 -12 -7 0 -15 0 -15
19 10 19 11 10 30 11 30 -5 0 -5 0 -10 -30z"/>
<path d="M1090 1178 l0 -8 13 -1 12 -1 7 1 6 0 -2 -12 -2 -12 -8 -14 -9 -14
12 7 12 8 -3 -14 -3 -14 10 -2 10 -2 0 13 1 12 8 18 8 17 -12 15 -12 15 -24
-2 -24 -2 0 -8z"/>
<path d="M307 1160 l-5 -20 9 -6 9 -5 0 25 0 26 -4 0 -4 0 -5 -20z"/>
<path d="M1090 1139 l0 -10 10 6 10 6 0 5 0 4 -10 0 -10 0 0 -11z"/>
<path d="M210 1129 l0 -10 10 6 10 6 0 5 0 4 -10 0 -10 0 0 -11z"/>
<path d="M390 1101 l0 -10 10 -6 10 -6 0 15 0 16 -10 0 -10 0 0 -9z"/>
<path d="M426 1078 l5 -8 9 5 8 5 6 -23 6 -22 0 -12 0 -11 -20 5 -20 5 0 -11
0 -12 10 6 10 6 0 -9 0 -9 28 -12 27 -11 -19 14 -18 15 8 13 8 13 1 17 2 17
-8 -4 -7 -5 -4 18 -5 19 -16 0 -16 0 5 -9z"/>
<path d="M1112 1085 l7 -7 -26 -34 -25 -34 5 0 5 0 26 34 26 35 -12 7 -13 7 7
-8z"/>
<path d="M634 1068 l5 -18 -15 0 -16 0 5 -20 5 -20 -19 0 -19 0 0 -7 0 -8 25
-12 25 -11 0 33 0 33 12 4 11 4 -12 20 -13 19 6 -17z"/>
<path d="M510 1063 l0 -9 13 -13 12 -14 -17 6 -18 6 1 -32 1 -32 5 20 5 20 16
11 16 12 -17 16 -17 17 0 -8z"/>
<path d="M425 1049 l-7 -10 5 -5 5 -5 5 16 6 15 -4 0 -4 0 -6 -11z"/>
<path d="M560 1040 l0 -20 10 0 10 0 0 20 0 20 -10 0 -10 0 0 -20z"/>
<path d="M201 1014 l1 -19 5 13 5 13 -6 6 -6 6 1 -19z"/>
<path d="M970 1019 l0 -10 10 6 10 6 0 5 0 4 -10 0 -10 0 0 -11z"/>
<path d="M1130 1023 l15 -6 18 -15 17 -15 0 8 0 8 -17 13 -18 13 -15 0 -15 -1
15 -5z"/>
<path d="M170 1010 l14 -9 -17 -7 -17 -6 25 -20 25 -19 -1 -7 -1 -7 1 -14 1
-13 15 12 15 12 -1 12 -1 11 -5 -12 -5 -13 -8 0 -8 0 1 13 0 12 -8 33 -7 32
-17 0 -16 0 15 -10z"/>
<path d="M133 963 l17 -5 13 5 12 5 -30 0 -30 0 18 -5z"/>
<path d="M37 898 l-17 -13 24 0 24 0 -5 8 -4 7 16 0 16 0 -7 -22 -7 -22 18 18
18 18 -14 9 -14 9 -16 0 -15 0 -17 -12z"/>
<path d="M1232 873 l-12 -5 7 -11 6 -10 -16 6 -17 6 0 -14 0 -13 -26 -31 -26
-31 18 7 17 6 12 -17 13 -16 5 20 5 20 -12 -2 -12 -3 -2 5 -3 5 6 17 7 17 19
-4 19 -4 0 25 0 25 12 -7 11 -7 -7 11 -7 12 -2 -1 -2 -1 -13 -5z"/>
<path d="M1119 849 l-21 -18 20 2 21 1 -5 8 -5 8 15 0 15 0 5 8 5 9 -15 0 -15
0 -20 -18z"/>
<path d="M46 843 l9 -8 7 -10 8 -10 0 18 0 17 -17 0 -16 0 9 -7z"/>
<path d="M21 824 l1 -19 5 13 5 13 -6 6 -6 6 1 -19z"/>
<path d="M101 824 l1 -19 5 13 5 13 -6 6 -6 6 1 -19z"/>
<path d="M82 810 l0 -25 5 13 5 12 -5 13 -5 12 0 -25z"/>
<path d="M1251 814 l1 -19 5 13 5 13 -6 6 -6 6 1 -19z"/>
<path d="M53 773 l-13 -27 4 -4 4 -4 12 22 11 21 -3 9 -3 9 -12 -26z"/>
<path d="M113 782 l3 -21 9 -8 8 -8 -6 12 -7 11 11 4 11 4 -16 13 -16 14 3
-21z"/>
<path d="M978 793 l13 -5 6 6 6 6 -19 -1 -19 -1 13 -5z"/>
<path d="M365 780 l-6 -10 10 0 11 0 0 10 0 10 -4 0 -5 0 -6 -10z"/>
<path d="M174 773 l-21 -4 -13 -25 -13 -24 -9 0 -8 0 6 -25 6 -25 -18 0 -19 0
-15 10 -15 10 22 0 22 0 -5 13 -5 13 -24 0 -25 0 0 -6 0 -6 15 -21 15 -22 -11
-51 -11 -51 5 -6 5 -5 22 12 23 12 -13 8 -12 8 7 21 6 21 11 -6 11 -7 -6 16
-6 17 9 0 10 0 0 -39 0 -39 -15 -6 -15 -5 0 -16 0 -15 11 0 10 0 -6 10 -6 10
10 0 10 0 6 -34 7 -34 16 3 17 3 5 1 5 1 -1 38 -1 37 -8 23 -7 24 7 34 6 34
54 0 55 0 1 -42 2 -43 4 29 5 30 -7 45 -7 45 -16 -27 -17 -27 -8 0 -8 0 7 13
8 12 -18 -14 -17 -14 -11 11 -10 10 -14 -5 -14 -5 0 20 0 21 19 6 19 6 6 14 5
15 -7 -1 -7 -2 -21 -4z"/>
<path d="M1073 739 l19 -27 -4 -18 -3 -18 -10 0 -10 -1 -3 25 -4 25 -7 8 -8 8
1 -23 1 -22 -42 -4 -43 -3 0 11 0 11 -15 15 -15 15 0 -20 0 -21 11 0 10 0 -7
-11 -7 -11 47 3 46 4 0 -12 0 -13 20 0 20 0 0 -24 0 -24 -6 -16 -6 -16 -17 0
-18 0 0 -15 0 -15 20 0 19 0 -6 -35 -7 -35 24 0 24 0 14 48 14 47 -3 38 -4 37
11 0 10 0 10 -17 10 -18 1 25 1 25 14 -19 15 -20 0 -38 0 -38 10 0 10 0 0 58
0 57 6 20 5 20 -25 1 -26 2 0 -9 0 -9 21 0 20 0 -6 -10 -6 -9 -34 1 -35 1 11
14 11 13 -11 0 -11 0 0 14 0 14 8 5 7 4 -12 -3 -12 -3 -6 9 -6 10 13 1 13 1
10 -2 10 -2 -8 8 -8 8 -43 1 -43 0 20 -26z"/>
<path d="M233 753 l17 -5 13 5 12 5 -30 0 -30 0 18 -5z"/>
<path d="M298 723 l6 -28 4 19 4 18 -10 10 -10 10 6 -29z"/>
<path d="M902 738 l-11 -11 10 -19 10 -18 -17 0 -16 0 6 -16 6 -16 0 -9 0 -10
9 5 9 6 5 -12 6 -13 -6 34 -6 34 14 -8 14 -9 -14 17 -13 17 5 20 5 20 -2 0 -2
0 -12 -12z"/>
<path d="M1008 743 l13 -5 6 6 6 6 -19 -1 -19 -1 13 -5z"/>
<path d="M1227 743 l-7 -6 0 -11 0 -10 12 12 12 12 -5 5 -6 5 -6 -7z"/>
<path d="M550 703 l-25 -13 27 0 27 0 6 10 6 10 10 -5 9 -6 0 10 0 10 -17 -2
-18 -1 -25 -13z"/>
<path d="M301 664 l1 -19 5 13 5 13 -6 6 -6 6 1 -19z"/>
<path d="M341 654 l1 -19 5 13 5 13 -6 6 -6 6 1 -19z"/>
<path d="M820 651 l0 -12 -10 6 -10 6 0 -25 0 -26 9 0 9 0 5 28 5 27 -4 4 -4
4 0 -12z"/>
<path d="M1021 634 l1 -19 5 13 5 13 -6 6 -6 6 1 -19z"/>
<path d="M171 624 l1 -19 5 13 5 13 -6 6 -6 6 1 -19z"/>
<path d="M860 629 l0 -11 -15 6 -16 6 16 -22 15 -22 0 -11 -1 -10 -14 -19 -14
-19 -16 13 -15 12 0 19 0 18 -17 -6 -16 -6 7 11 6 11 -50 -2 -49 -3 -4 16 -3
15 -2 -40 -1 -40 -2 -17 -2 -17 -9 5 -8 5 0 -12 0 -13 -16 20 -15 19 -5 -13
-6 -12 -8 5 -9 6 6 14 5 15 -11 0 -11 0 0 15 0 15 -9 0 -10 0 -15 -16 -16 -15
0 -14 0 -13 6 -16 6 -16 9 6 9 5 0 -15 0 -16 5 0 6 0 22 14 22 15 28 -6 27 -5
0 -10 0 -9 14 13 13 13 -4 15 -5 15 12 -19 12 -18 9 13 9 14 0 23 0 22 8 0 8
0 -4 -37 -5 -36 17 6 16 6 0 -14 0 -15 9 0 10 0 8 13 8 12 -3 18 -3 17 12 0
12 0 -6 -7 -7 -6 11 -14 11 -13 14 0 14 0 6 40 7 41 6 -6 6 -7 1 -39 1 -39 7
-7 7 -7 8 13 9 14 26 0 26 0 0 28 0 29 10 0 10 0 0 -40 0 -40 10 0 10 0 1 13
2 12 1 56 1 56 -12 -16 -12 -16 -1 11 0 11 -32 -5 -31 -5 -14 19 -13 18 0 -10
0 -9 9 -14 9 -14 34 1 33 1 -23 -13 -23 -12 7 -6 6 -6 -7 -21 -6 -21 -10 0
-10 0 3 33 3 32 -30 10 -30 10 3 28 3 27 -6 0 -5 0 0 -11z m-102 -54 l3 -3
-30 -4 -30 -4 5 7 4 7 -12 5 -13 6 35 -6 35 -6 3 -2z m19 -27 l-5 -13 -1 19
-1 19 6 -6 6 -6 -5 -13z m63 -38 l0 -10 -4 0 -5 0 -6 10 -6 10 10 0 11 0 0
-10z"/>
<path d="M325 622 l-5 -5 0 -9 0 -9 12 7 11 7 -7 -11 -7 -11 -17 6 -17 6 16
-19 16 -19 -8 -25 -7 -25 -1 33 -1 32 -20 0 -20 0 0 8 0 7 -43 1 -42 0 1 -40
1 -41 2 -17 1 -18 10 0 10 0 1 43 2 42 4 -30 5 -30 9 -10 10 -10 5 23 6 22 10
0 9 0 -6 -10 -6 -10 15 0 15 0 4 -22 4 -23 8 21 7 22 21 -6 20 -5 -6 16 -6 17
8 0 9 0 5 -12 5 -13 -1 22 -1 22 -10 -6 -9 -6 5 45 5 45 -13 0 -14 0 -5 -5z
m-47 -54 l12 -10 0 -9 0 -9 -21 0 -21 0 12 15 12 15 -30 0 -31 0 -5 8 -5 8 32
-4 32 -5 13 -9z"/>
<path d="M875 611 l-5 -10 10 -6 10 -6 0 15 0 16 -4 0 -5 0 -6 -9z"/>
<path d="M485 590 l6 -10 17 0 17 0 -15 10 -15 10 -8 0 -8 0 6 -10z"/>
<path d="M540 590 l0 -10 10 0 10 0 0 10 0 10 -10 0 -10 0 0 -10z"/>
<path d="M1135 590 l6 -10 12 6 12 5 -18 -14 -18 -15 9 -6 10 -6 12 15 12 14
-7 11 -6 10 -15 0 -15 0 6 -10z"/>
<path d="M377 583 l-7 -6 0 -11 0 -10 12 12 12 12 -5 5 -6 5 -6 -7z"/>
<path d="M423 560 l2 -25 10 -7 10 -8 -22 0 -23 0 0 -8 0 -8 22 -1 21 -2 9
-13 10 -13 4 12 5 12 15 -6 14 -5 0 20 0 20 5 14 6 14 -26 12 -25 12 0 -15 0
-14 -10 -6 -10 -6 -10 23 -10 23 3 -25z"/>
<path d="M815 560 l-6 -10 10 0 11 0 0 10 0 10 -4 0 -5 0 -6 -10z"/>
<path d="M642 540 l0 -25 5 13 5 12 -5 13 -5 12 0 -25z"/>
<path d="M0 220 l0 -220 640 0 640 0 0 220 0 220 -640 0 -640 0 0 -220z"/>
</g>
</svg>
