<?xml version="1.0" standalone="no"?>
<!DOCTYPE svg PUBLIC "-//W3C//DTD SVG 20010904//EN"
 "http://www.w3.org/TR/2001/REC-SVG-20010904/DTD/svg10.dtd">
<svg version="1.0" xmlns="http://www.w3.org/2000/svg"
 width="468pt" height="468pt" viewBox="0 0 468 468"
 preserveAspectRatio="xMidYMid meet">
<metadata>
Created by potrace 1.8, written by Peter Selinger 2001-2007
</metadata>
<g transform="translate(0,468) scale(0.365625,-0.365625)"
fill="#000000" stroke="none">
<path d="M40 1240 l0 -40 -20 0 -20 0 0 -20 0 -20 20 0 20 0 0 -20 0 -20 -20
0 -20 0 0 -60 0 -60 40 0 40 0 0 -20 0 -20 -40 0 -40 0 0 -40 0 -40 20 0 20 0
0 -20 0 -20 -20 0 -20 0 0 -60 0 -60 20 0 20 0 0 -20 0 -20 -20 0 -20 0 0 -60
0 -60 20 0 20 0 0 -20 0 -20 -20 0 -20 0 0 -80 0 -80 20 0 20 0 0 -20 0 -20
-20 0 -20 0 0 -120 0 -120 20 0 20 0 0 -20 0 -20 -20 0 -20 0 0 -20 0 -20 80
0 80 0 0 40 0 40 -20 0 -20 0 0 20 0 20 40 0 40 0 0 -20 0 -20 20 0 20 0 0
-40 0 -40 100 0 100 0 0 20 0 20 20 0 20 0 0 -20 0 -20 220 0 220 0 0 20 0 20
20 0 20 0 0 -20 0 -20 80 0 80 0 0 20 0 20 60 0 60 0 0 -20 0 -20 20 0 20 0 0
340 0 340 -20 0 -20 0 0 20 0 20 20 0 20 0 0 60 0 60 -20 0 -20 0 0 20 0 20
20 0 20 0 0 100 0 100 -20 0 -20 0 0 -20 0 -20 -20 0 -20 0 0 40 0 40 40 0 40
0 0 20 0 20 -40 0 -40 0 0 20 0 20 -20 0 -20 0 0 20 0 20 -20 0 -20 0 0 20 0
20 -20 0 -20 0 0 -20 0 -20 -20 0 -20 0 0 20 0 20 -140 0 -140 0 0 -20 0 -20
-20 0 -20 0 0 20 0 20 -20 0 -20 0 0 -20 0 -20 -20 0 -20 0 0 20 0 20 -60 0
-60 0 0 -20 0 -20 -20 0 -20 0 0 20 0 20 -180 0 -180 0 0 -40 0 -40 -20 0 -20
0 0 40 0 40 -20 0 -20 0 0 -40z m240 -20 l0 -20 -20 0 -20 0 0 20 0 20 20 0
20 0 0 -20z m280 0 l0 -20 -20 0 -20 0 0 20 0 20 20 0 20 0 0 -20z m80 0 l0
-20 -20 0 -20 0 0 20 0 20 20 0 20 0 0 -20z m240 0 l0 -20 -20 0 -20 0 0 20 0
20 20 0 20 0 0 -20z m160 0 l0 -20 20 0 20 0 0 20 0 20 20 0 20 0 0 -20 0 -20
-20 0 -20 0 0 -40 0 -40 -20 0 -20 0 0 20 0 20 -20 0 -20 0 0 40 0 40 20 0 20
0 0 -20z m-960 -40 l0 -20 -20 0 -20 0 0 20 0 20 20 0 20 0 0 -20z m120 0 l0
-20 -20 0 -20 0 0 -20 0 -20 -20 0 -20 0 0 20 0 20 20 0 20 0 0 20 0 20 20 0
20 0 0 -20z m80 -40 l0 -20 -20 0 -20 0 0 20 0 20 20 0 20 0 0 -20z m680 0 l0
-20 -20 0 -20 0 0 20 0 20 20 0 20 0 0 -20z m200 0 l0 -20 -20 0 -20 0 0 20 0
20 20 0 20 0 0 -20z m-1080 -40 l0 -20 -20 0 -20 0 0 20 0 20 20 0 20 0 0 -20z
m120 -40 l0 -20 -20 0 -20 0 0 -20 0 -20 -20 0 -20 0 0 20 0 20 20 0 20 0 0
20 0 20 20 0 20 0 0 -20z m280 0 l0 -20 -20 0 -20 0 0 -20 0 -20 -20 0 -20 0
0 20 0 20 20 0 20 0 0 20 0 20 20 0 20 0 0 -20z m80 0 l0 -20 20 0 20 0 0 20
0 20 20 0 20 0 0 -20 0 -20 20 0 20 0 0 -20 0 -20 -20 0 -20 0 0 20 0 20 -20
0 -20 0 0 -20 0 -20 -20 0 -20 0 0 20 0 20 -20 0 -20 0 0 20 0 20 20 0 20 0 0
-20z m440 0 l0 -20 -20 0 -20 0 0 20 0 20 20 0 20 0 0 -20z m-640 -40 l0 -20
-20 0 -20 0 0 -20 0 -20 -20 0 -20 0 0 20 0 20 20 0 20 0 0 20 0 20 20 0 20 0
0 -20z m400 0 l0 -20 -20 0 -20 0 0 20 0 20 20 0 20 0 0 -20z m360 0 l0 -20
-20 0 -20 0 0 20 0 20 20 0 20 0 0 -20z m80 0 l0 -20 -20 0 -20 0 0 20 0 20
20 0 20 0 0 -20z m-960 -40 l0 -20 -20 0 -20 0 0 -20 0 -20 -20 0 -20 0 0 20
0 20 20 0 20 0 0 20 0 20 20 0 20 0 0 -20z m640 0 l0 -20 20 0 20 0 0 -20 0
-20 -20 0 -20 0 0 20 0 20 -20 0 -20 0 0 20 0 20 20 0 20 0 0 -20z m120 -40
l0 -20 20 0 20 0 0 -20 0 -20 -20 0 -20 0 0 20 0 20 -20 0 -20 0 0 20 0 20 20
0 20 0 0 -20z m-880 -40 l0 -20 -20 0 -20 0 0 20 0 20 20 0 20 0 0 -20z m520
0 l0 -20 20 0 20 0 0 20 0 20 20 0 20 0 0 -40 0 -40 20 0 20 0 0 20 0 20 20 0
20 0 0 -20 0 -20 40 0 40 0 0 -20 0 -20 40 0 40 0 0 -20 0 -20 40 0 40 0 0
-20 0 -20 -40 0 -40 0 0 20 0 20 -40 0 -40 0 0 20 0 20 -40 0 -40 0 0 -20 0
-20 20 0 20 0 0 -20 0 -20 -20 0 -20 0 0 -20 0 -20 20 0 20 0 0 -20 0 -20 -20
0 -20 0 0 -40 0 -40 20 0 20 0 0 20 0 20 20 0 20 0 0 20 0 20 60 0 60 0 0 -20
0 -20 60 0 60 0 0 -20 0 -20 20 0 20 0 0 20 0 20 20 0 20 0 0 -20 0 -20 20 0
20 0 0 -20 0 -20 -20 0 -20 0 0 20 0 20 -20 0 -20 0 0 -20 0 -20 -40 0 -40 0
0 20 0 20 -20 0 -20 0 0 -20 0 -20 -20 0 -20 0 0 20 0 20 -20 0 -20 0 0 20 0
20 -20 0 -20 0 0 -20 0 -20 -20 0 -20 0 0 -20 0 -20 20 0 20 0 0 -20 0 -20
-20 0 -20 0 0 -20 0 -20 20 0 20 0 0 -20 0 -20 20 0 20 0 0 -20 0 -20 20 0 20
0 0 20 0 20 20 0 20 0 0 20 0 20 -20 0 -20 0 0 20 0 20 20 0 20 0 0 -20 0 -20
20 0 20 0 0 -20 0 -20 -20 0 -20 0 0 -20 0 -20 -20 0 -20 0 0 -20 0 -20 -20 0
-20 0 0 20 0 20 -20 0 -20 0 0 -20 0 -20 -20 0 -20 0 0 20 0 20 -20 0 -20 0 0
20 0 20 -20 0 -20 0 0 20 0 20 20 0 20 0 0 20 0 20 -20 0 -20 0 0 40 0 40 -20
0 -20 0 0 -40 0 -40 -20 0 -20 0 0 -20 0 -20 -100 0 -100 0 0 20 0 20 -20 0
-20 0 0 20 0 20 -20 0 -20 0 0 20 0 20 -20 0 -20 0 0 -20 0 -20 -20 0 -20 0 0
-20 0 -20 20 0 20 0 0 -20 0 -20 -20 0 -20 0 0 -20 0 -20 -20 0 -20 0 0 -20 0
-20 -20 0 -20 0 0 20 0 20 20 0 20 0 0 20 0 20 20 0 20 0 0 20 0 20 -20 0 -20
0 0 20 0 20 -20 0 -20 0 0 20 0 20 -20 0 -20 0 0 -20 0 -20 -20 0 -20 0 0 20
0 20 -20 0 -20 0 0 20 0 20 20 0 20 0 0 -20 0 -20 20 0 20 0 0 20 0 20 40 0
40 0 0 -20 0 -20 40 0 40 0 0 40 0 40 20 0 20 0 0 20 0 20 -20 0 -20 0 0 20 0
20 20 0 20 0 0 20 0 20 60 0 60 0 0 20 0 20 20 0 20 0 0 20 0 20 -20 0 -20 0
0 20 0 20 -20 0 -20 0 0 -40 0 -40 -20 0 -20 0 0 20 0 20 -20 0 -20 0 0 -20 0
-20 -60 0 -60 0 0 -20 0 -20 -40 0 -40 0 0 -20 0 -20 -20 0 -20 0 0 -20 0 -20
-20 0 -20 0 0 20 0 20 -40 0 -40 0 0 20 0 20 40 0 40 0 0 -20 0 -20 20 0 20 0
0 20 0 20 20 0 20 0 0 20 0 20 40 0 40 0 0 20 0 20 20 0 20 0 0 20 0 20 20 0
20 0 0 -20 0 -20 20 0 20 0 0 20 0 20 40 0 40 0 0 20 0 20 60 0 60 0 0 -20z
m480 0 l0 -20 -20 0 -20 0 0 20 0 20 20 0 20 0 0 -20z m80 -40 l0 -20 -20 0
-20 0 0 20 0 20 20 0 20 0 0 -20z m-880 -160 l0 -20 20 0 20 0 0 -20 0 -20
-20 0 -20 0 0 20 0 20 -20 0 -20 0 0 20 0 20 20 0 20 0 0 -20z m800 0 l0 -20
-20 0 -20 0 0 20 0 20 20 0 20 0 0 -20z m80 0 l0 -20 -20 0 -20 0 0 20 0 20
20 0 20 0 0 -20z m-1080 -40 l0 -20 -20 0 -20 0 0 20 0 20 20 0 20 0 0 -20z
m0 -120 l0 -20 -20 0 -20 0 0 20 0 20 20 0 20 0 0 -20z m80 -80 l0 -20 -20 0
-20 0 0 20 0 20 20 0 20 0 0 -20z m40 -80 l0 -20 -20 0 -20 0 0 20 0 20 20 0
20 0 0 -20z m-120 -40 l0 -20 -20 0 -20 0 0 20 0 20 20 0 20 0 0 -20z m440 0
l0 -20 -20 0 -20 0 0 20 0 20 20 0 20 0 0 -20z m80 0 l0 -20 -20 0 -20 0 0 20
0 20 20 0 20 0 0 -20z m600 0 l0 -20 -20 0 -20 0 0 -20 0 -20 -20 0 -20 0 0
20 0 20 20 0 20 0 0 20 0 20 20 0 20 0 0 -20z m-1040 -40 l0 -20 -20 0 -20 0
0 20 0 20 20 0 20 0 0 -20z m240 0 l0 -20 -20 0 -20 0 0 20 0 20 20 0 20 0 0
-20z m280 0 l0 -20 -20 0 -20 0 0 20 0 20 20 0 20 0 0 -20z m80 0 l0 -20 -20
0 -20 0 0 20 0 20 20 0 20 0 0 -20z m-520 -40 l0 -20 -20 0 -20 0 0 20 0 20
20 0 20 0 0 -20z m80 0 l0 -20 -20 0 -20 0 0 20 0 20 20 0 20 0 0 -20z m200 0
l0 -20 20 0 20 0 0 20 0 20 20 0 20 0 0 -40 0 -40 -40 0 -40 0 0 -20 0 -20
-20 0 -20 0 0 20 0 20 -20 0 -20 0 0 -20 0 -20 -20 0 -20 0 0 -20 0 -20 -20 0
-20 0 0 -20 0 -20 20 0 20 0 0 -20 0 -20 -20 0 -20 0 0 20 0 20 -20 0 -20 0 0
20 0 20 20 0 20 0 0 20 0 20 -20 0 -20 0 0 20 0 20 20 0 20 0 0 -20 0 -20 20
0 20 0 0 40 0 40 20 0 20 0 0 20 0 20 40 0 40 0 0 -20z m320 0 l0 -20 -20 0
-20 0 0 20 0 20 20 0 20 0 0 -20z m120 0 l0 -20 -20 0 -20 0 0 20 0 20 20 0
20 0 0 -20z m120 0 l0 -20 -20 0 -20 0 0 20 0 20 20 0 20 0 0 -20z m-400 -40
l0 -20 20 0 20 0 0 -20 0 -20 -20 0 -20 0 0 20 0 20 -20 0 -20 0 0 20 0 20 20
0 20 0 0 -20z m-600 -80 l0 -20 -20 0 -20 0 0 -20 0 -20 20 0 20 0 0 -20 0
-20 -20 0 -20 0 0 20 0 20 -20 0 -20 0 0 20 0 20 20 0 20 0 0 20 0 20 20 0 20
0 0 -20z m560 0 l0 -20 40 0 40 0 0 -20 0 -20 -40 0 -40 0 0 20 0 20 -20 0
-20 0 0 20 0 20 20 0 20 0 0 -20z m-160 -40 l0 -20 -20 0 -20 0 0 20 0 20 20
0 20 0 0 -20z m640 0 l0 -20 -20 0 -20 0 0 -20 0 -20 -20 0 -20 0 0 20 0 20
20 0 20 0 0 20 0 20 20 0 20 0 0 -20z m80 0 l0 -20 -20 0 -20 0 0 20 0 20 20
0 20 0 0 -20z m-400 -40 l0 -20 -20 0 -20 0 0 20 0 20 20 0 20 0 0 -20z m200
0 l0 -20 -20 0 -20 0 0 20 0 20 20 0 20 0 0 -20z"/>
<path d="M640 820 l0 -20 -20 0 -20 0 0 -20 0 -20 -20 0 -20 0 0 -20 0 -20
-20 0 -20 0 0 -20 0 -20 -20 0 -20 0 0 20 0 20 -20 0 -20 0 0 -20 0 -20 20 0
20 0 0 -20 0 -20 -20 0 -20 0 0 -40 0 -40 20 0 20 0 0 -20 0 -20 20 0 20 0 0
-20 0 -20 20 0 20 0 0 20 0 20 20 0 20 0 0 -20 0 -20 20 0 20 0 0 40 0 40 20
0 20 0 0 -20 0 -20 20 0 20 0 0 40 0 40 20 0 20 0 0 20 0 20 20 0 20 0 0 20 0
20 -20 0 -20 0 0 20 0 20 20 0 20 0 0 20 0 20 -20 0 -20 0 0 20 0 20 20 0 20
0 0 20 0 20 -20 0 -20 0 0 -20 0 -20 -40 0 -40 0 0 20 0 20 -20 0 -20 0 0 -20z
m40 -100 l0 -40 20 0 20 0 0 -20 0 -20 -20 0 -20 0 0 -20 0 -20 -20 0 -20 0 0
20 0 20 20 0 20 0 0 20 0 20 -20 0 -20 0 0 20 0 20 -20 0 -20 0 0 -20 0 -20
-20 0 -20 0 0 -20 0 -20 -20 0 -20 0 0 -40 0 -40 20 0 20 0 0 -20 0 -20 -20 0
-20 0 0 20 0 20 -20 0 -20 0 0 40 0 40 20 0 20 0 0 20 0 20 20 0 20 0 0 20 0
20 20 0 20 0 0 20 0 20 40 0 40 0 0 -40z m80 20 l0 -20 -20 0 -20 0 0 20 0 20
20 0 20 0 0 -20z"/>
<path d="M840 500 l0 -20 20 0 20 0 0 20 0 20 -20 0 -20 0 0 -20z"/>
<path d="M840 420 l0 -20 20 0 20 0 0 20 0 20 -20 0 -20 0 0 -20z"/>
<path d="M520 220 l0 -20 20 0 20 0 0 20 0 20 -20 0 -20 0 0 -20z"/>
<path d="M1200 1260 l0 -20 40 0 40 0 0 20 0 20 -40 0 -40 0 0 -20z"/>
</g>
</svg>
