<?xml version="1.0" standalone="no"?>
<!DOCTYPE svg PUBLIC "-//W3C//DTD SVG 20010904//EN"
 "http://www.w3.org/TR/2001/REC-SVG-20010904/DTD/svg10.dtd">
<svg version="1.0" xmlns="http://www.w3.org/2000/svg"
 width="468pt" height="468pt" viewBox="0 0 468 468"
 preserveAspectRatio="xMidYMid meet">
<metadata>
Created by potrace 1.8, written by Peter Selinger 2001-2007
</metadata>
<g transform="translate(0,468) scale(0.365625,-0.365625)"
fill="#000000" stroke="none">
<path d="M0 640 l0 -640 70 0 70 0 0 570 0 570 500 0 500 0 0 -570 0 -570 70
0 70 0 0 640 0 640 -640 0 -640 0 0 -640z m190 570 l0 -20 -50 0 -50 0 0 -50
0 -50 -20 0 -20 0 0 70 0 70 70 0 70 0 0 -20z m90 0 l0 -20 -20 0 -20 0 0 20
0 20 20 0 20 0 0 -20z m290 0 l0 -20 -120 0 -120 0 0 20 0 20 120 0 120 0 0
-20z m90 0 l0 -20 -20 0 -20 0 0 20 0 20 20 0 20 0 0 -20z m290 0 l0 -20 -120
0 -120 0 0 20 0 20 120 0 120 0 0 -20z m90 0 l0 -20 -20 0 -20 0 0 20 0 20 20
0 20 0 0 -20z m190 -50 l0 -70 -20 0 -20 0 0 50 0 50 -50 0 -50 0 0 20 0 20
70 0 70 0 0 -70z m-1140 -140 l0 -20 -20 0 -20 0 0 20 0 20 20 0 20 0 0 -20z
m1140 0 l0 -20 -20 0 -20 0 0 20 0 20 20 0 20 0 0 -20z m-1140 -235 l0 -165
-20 0 -20 0 0 165 0 165 20 0 20 0 0 -165z m1140 0 l0 -165 -20 0 -20 0 0 165
0 165 20 0 20 0 0 -165z m-1140 -240 l0 -25 -20 0 -20 0 0 25 0 25 20 0 20 0
0 -25z m1140 0 l0 -25 -20 0 -20 0 0 25 0 25 20 0 20 0 0 -25z m-1140 -95 l0
-20 -20 0 -20 0 0 20 0 20 20 0 20 0 0 -20z m1140 0 l0 -20 -20 0 -20 0 0 20
0 20 20 0 20 0 0 -20z m-1140 -235 l0 -165 -20 0 -20 0 0 165 0 165 20 0 20 0
0 -165z m1140 0 l0 -165 -20 0 -20 0 0 165 0 165 20 0 20 0 0 -165z"/>
</g>
</svg>
