<?xml version="1.0" standalone="no"?>
<!DOCTYPE svg PUBLIC "-//W3C//DTD SVG 20010904//EN"
 "http://www.w3.org/TR/2001/REC-SVG-20010904/DTD/svg10.dtd">
<svg version="1.0" xmlns="http://www.w3.org/2000/svg"
 width="468pt" height="468pt" viewBox="0 0 468 468"
 preserveAspectRatio="xMidYMid meet">
<metadata>
Created by potrace 1.8, written by Peter Selinger 2001-2007
</metadata>
<g transform="translate(0,468) scale(0.365625,-0.365625)"
fill="#000000" stroke="none">
<path d="M460 1250 l0 -10 -30 0 -30 0 0 -10 0 -10 -28 0 -28 0 -14 -20 -14
-20 -16 0 -16 0 -14 -20 -14 -20 -13 0 -14 0 -44 -45 -45 -44 0 -14 0 -13 -20
-14 -20 -14 0 -16 0 -16 -20 -14 -20 -14 0 -27 0 -27 -12 -5 -13 -4 7 -8 7 -7
16 15 15 16 0 13 0 14 20 14 20 14 0 24 0 23 16 16 16 16 8 -14 9 -13 8 8 8 9
-12 4 -13 5 0 9 0 9 18 0 18 0 14 20 14 20 16 0 16 0 14 20 14 20 28 0 28 0 0
30 0 30 20 0 20 0 0 10 0 10 40 0 40 0 0 -10 0 -10 -20 0 -20 0 0 -10 0 -10
18 0 18 0 14 20 14 20 38 0 38 0 0 10 0 10 30 0 30 0 0 10 0 10 -50 0 -50 0 0
10 0 10 -30 0 -30 0 0 -10z"/>
<path d="M760 1250 l0 -10 -60 0 -60 0 0 -5 0 -6 25 -24 24 -25 26 0 25 0 0
10 0 10 38 0 38 0 14 -20 14 -20 18 0 18 0 0 -10 0 -10 15 0 16 0 24 -25 25
-24 0 -11 0 -11 35 -34 34 -35 11 0 11 0 34 -35 35 -34 0 -16 0 -15 16 0 15 0
15 -14 14 -15 0 -11 0 -11 14 -15 15 -14 15 0 16 0 0 -20 0 -20 10 0 10 0 0
20 0 20 -10 0 -10 0 0 30 0 30 -10 0 -10 0 0 -10 0 -10 -10 0 -10 0 0 20 0 20
-10 0 -10 0 0 48 0 48 -20 14 -20 14 0 13 0 14 -45 44 -44 45 -14 0 -13 0 -14
20 -14 20 -16 0 -16 0 -14 20 -14 20 -28 0 -28 0 0 10 0 10 -20 0 -20 0 0 10
0 10 -40 0 -40 0 0 -10z"/>
<path d="M240 1050 l0 -10 10 0 10 0 0 10 0 10 -10 0 -10 0 0 -10z"/>
<path d="M200 1010 l0 -10 10 0 10 0 0 10 0 10 -10 0 -10 0 0 -10z"/>
<path d="M40 710 l0 -10 10 0 10 0 0 10 0 10 -10 0 -10 0 0 -10z"/>
<path d="M0 640 l0 -40 20 0 20 0 0 26 0 25 -14 15 -15 14 -5 0 -6 0 0 -40z"/>
<path d="M100 605 l0 -16 26 -26 26 -26 9 14 9 14 9 -15 10 -14 8 8 8 9 -12 4
-13 5 0 19 0 19 -20 0 -20 0 0 10 0 10 -20 0 -20 0 0 -15z"/>
<path d="M0 570 l0 -10 10 0 10 0 0 10 0 10 -10 0 -10 0 0 -10z"/>
<path d="M80 470 l0 -30 -10 0 -10 0 0 -30 0 -30 10 0 10 0 0 -20 0 -20 10 0
10 0 0 -16 0 -15 17 -17 16 -17 5 13 4 12 17 0 17 0 14 -20 14 -20 18 0 18 0
0 -10 0 -10 30 0 30 0 0 10 0 10 -10 0 -10 0 0 46 0 46 -30 28 -30 28 0 14 0
14 -20 14 -20 14 0 18 0 18 -10 0 -10 0 0 -20 0 -20 -20 0 -20 0 0 20 0 20
-20 0 -20 0 0 -30z"/>
<path d="M480 251 l0 -9 13 -5 12 -4 -24 -22 -24 -21 6 -6 6 -6 26 26 26 26
-15 15 -15 15 -5 0 -6 0 0 -9z"/>
<path d="M460 30 l0 -10 49 0 49 0 5 -13 4 -12 8 7 7 7 -15 16 -16 15 -45 0
-46 0 0 -10z"/>
<path d="M660 10 l0 -10 40 0 40 0 0 10 0 10 -40 0 -40 0 0 -10z"/>
</g>
</svg>
