<?xml version="1.0" standalone="no"?>
<!DOCTYPE svg PUBLIC "-//W3C//DTD SVG 20010904//EN"
 "http://www.w3.org/TR/2001/REC-SVG-20010904/DTD/svg10.dtd">
<svg version="1.0" xmlns="http://www.w3.org/2000/svg"
 width="468pt" height="468pt" viewBox="0 0 468 468"
 preserveAspectRatio="xMidYMid meet">
<metadata>
Created by potrace 1.8, written by Peter Selinger 2001-2007
</metadata>
<g transform="translate(0,468) scale(0.365625,-0.365625)"
fill="#000000" stroke="none">
<path d="M680 1210 l0 -10 -18 0 -18 0 -14 -20 -14 -20 -14 0 -13 0 -15 -14
-14 -15 0 -104 0 -105 13 -6 12 -6 -12 -6 -13 -6 0 -19 0 -19 -10 0 -10 0 0
-38 0 -38 -20 -14 -20 -14 0 -108 0 -108 -10 0 -10 0 0 -20 0 -20 10 0 10 0 0
-20 0 -20 10 0 10 0 0 -20 0 -20 10 0 10 0 0 -20 0 -20 10 0 10 0 0 -60 0 -60
10 0 10 0 0 -20 0 -20 -50 0 -50 0 0 120 0 120 -10 0 -10 0 0 40 0 40 10 0 10
0 0 10 0 10 -16 0 -15 0 -15 14 -14 15 0 15 0 16 10 0 10 0 0 20 0 20 -10 0
-10 0 0 30 0 30 -10 0 -10 0 0 20 0 20 -10 0 -10 0 0 70 0 70 -26 0 -25 0 -15
-14 -14 -15 0 -45 0 -46 -40 0 -40 0 0 -30 0 -30 10 0 10 0 0 -56 0 -55 14
-15 15 -14 15 0 16 0 0 -180 0 -180 -150 0 -150 0 0 -110 0 -110 640 0 640 0
0 110 0 110 -80 0 -80 0 0 80 0 80 10 0 10 0 0 110 0 110 -10 0 -10 0 0 40 0
40 -10 0 -10 0 0 20 0 20 -10 0 -10 0 0 15 0 16 -25 24 -24 25 -16 0 -15 0 0
10 0 10 -20 0 -20 0 0 10 0 10 -30 0 -30 0 0 10 0 10 10 0 10 0 0 18 0 18 20
14 20 14 0 28 0 28 10 0 10 0 0 60 0 60 -10 0 -10 0 0 15 0 16 -25 24 -24 25
-16 0 -15 0 0 10 0 10 -30 0 -30 0 0 10 0 10 -70 0 -70 0 0 -10z m140 -20 l0
-10 30 0 30 0 0 -10 0 -10 20 0 20 0 0 -18 0 -18 20 -14 20 -14 0 -48 0 -48
-10 0 -10 0 0 10 0 10 -16 0 -15 0 -16 -15 -15 -16 6 -7 7 -6 9 13 8 14 16
-16 16 -16 0 -21 0 -21 -27 -27 -27 -26 -4 12 -4 12 -9 0 -9 0 0 -15 0 -16 25
-24 24 -25 26 0 25 0 0 -10 0 -10 20 0 20 0 0 -10 0 -10 16 0 15 0 15 -14 14
-15 0 -15 0 -16 10 0 10 0 0 -20 0 -20 10 0 10 0 0 -40 0 -40 10 0 10 0 0
-110 0 -110 -10 0 -10 0 0 -80 0 -80 -120 0 -120 0 0 80 0 80 10 0 10 0 0 20
0 20 -10 0 -10 0 0 -10 0 -10 -10 0 -10 0 0 26 0 25 -15 16 -16 15 -7 -7 -7
-8 13 -4 12 -5 0 -29 0 -29 10 0 10 0 0 -90 0 -90 -105 0 -106 0 -26 26 -26
26 14 10 14 10 -12 5 -13 5 0 49 0 49 -10 0 -10 0 0 40 0 40 10 0 10 0 0 19 0
19 13 5 12 4 -9 9 -9 9 -4 -12 -5 -13 -9 0 -9 0 0 170 0 170 10 0 10 0 0 16 0
15 14 15 15 14 5 0 6 0 0 -20 0 -20 -10 0 -10 0 0 -70 0 -70 10 0 10 0 0 46 0
45 15 16 16 15 7 -6 6 -7 -14 -10 -15 -11 13 -5 12 -5 0 -29 0 -29 10 0 10 0
0 70 0 70 -9 0 -9 0 -5 -12 -4 -13 -8 7 -7 7 16 16 16 16 15 -15 15 -15 0 -25
0 -26 10 0 10 0 0 -80 0 -80 -10 0 -10 0 0 -140 0 -140 -9 0 -9 0 -5 13 -4 12
-9 -9 -9 -9 13 -4 12 -5 0 -29 0 -29 -10 0 -10 0 0 -20 0 -20 -10 0 -10 0 0
-19 0 -19 -12 -5 -13 -4 7 -8 7 -7 16 15 15 16 0 15 0 16 10 0 10 0 0 20 0 20
10 0 10 0 0 30 0 30 10 0 10 0 0 106 0 106 30 28 30 28 0 16 0 16 10 0 10 0 0
16 0 16 30 28 30 28 0 15 0 15 13 5 12 4 -7 8 -7 7 -16 -15 -15 -16 0 -11 0
-12 -30 -28 -30 -28 0 -16 0 -16 -10 0 -10 0 0 -16 0 -15 -14 -15 -15 -14 -5
0 -6 0 0 20 0 20 10 0 10 0 0 56 0 57 22 18 21 19 -7 7 -7 7 -9 -13 -8 -14
-16 16 -16 16 0 21 0 22 -32 31 -33 30 13 4 12 5 0 14 0 15 -25 24 -24 25 -16
0 -15 0 0 -6 0 -5 14 -15 15 -14 15 0 16 0 0 -10 0 -10 -10 0 -10 0 0 -20 0
-20 10 0 10 0 0 -10 0 -10 -19 0 -19 0 -6 13 -6 12 -6 -12 -6 -13 -9 0 -9 0 0
70 0 70 20 0 20 0 0 10 0 10 20 0 20 0 0 10 0 10 -30 0 -30 0 0 -10 0 -10 -10
0 -10 0 0 15 0 16 35 34 34 35 16 0 15 0 0 10 0 10 70 0 70 0 0 -10z m-460
-319 l0 -9 -12 -6 -13 -6 13 -6 12 -6 0 -45 0 -46 21 -18 21 -18 -15 -16 -16
-15 -15 0 -16 0 0 -10 0 -10 10 0 10 0 0 -49 0 -49 -12 -5 -13 -5 15 -11 15
-11 -15 -11 -15 -11 13 -5 12 -5 0 -48 0 -48 -12 -6 -13 -6 13 -6 12 -6 0 -38
0 -38 -12 -6 -13 -6 13 -6 12 -6 0 -29 0 -29 -20 0 -20 0 0 19 0 19 13 6 12 6
-12 6 -13 6 0 18 0 18 13 6 12 6 -12 6 -13 6 0 38 0 38 13 5 12 5 -15 11 -15
11 15 11 15 11 -12 5 -13 5 0 49 0 49 10 0 10 0 0 40 0 40 -10 0 -10 0 0 -10
0 -10 -20 0 -20 0 0 -10 0 -10 20 0 20 0 0 -10 0 -10 -30 0 -30 0 0 60 0 60
-10 0 -10 0 0 20 0 20 36 0 35 0 15 -14 14 -15 0 -5 0 -6 -29 0 -29 0 -5 13
-4 12 -8 -7 -8 -8 24 -21 24 -22 -12 -4 -13 -5 0 -9 0 -9 20 0 20 0 0 16 0 17
22 18 21 19 -21 19 -22 18 0 16 0 15 13 6 12 6 -12 6 -13 6 0 29 0 29 20 0 20
0 0 -9z m180 -240 l0 -129 12 -4 13 -5 -17 -16 -17 -17 -5 0 -6 0 0 150 0 150
10 0 10 0 0 -129z m-134 35 l14 -15 0 -15 0 -16 -10 0 -10 0 0 -20 0 -20 10 0
10 0 0 -20 0 -20 10 0 10 0 0 -40 0 -40 10 0 10 0 0 -70 0 -70 -10 0 -10 0 0
-20 0 -20 10 0 10 0 0 -30 0 -30 -20 0 -20 0 0 50 0 50 10 0 10 0 0 20 0 20
-10 0 -10 0 0 20 0 20 -10 0 -10 0 0 -90 0 -90 -10 0 -10 0 0 90 0 90 10 0 10
0 0 20 0 20 -10 0 -10 0 0 120 0 120 6 0 5 0 15 -14z"/>
<path d="M700 1094 l0 -5 14 -15 15 -14 24 0 25 0 5 -12 4 -13 8 7 7 7 -15 16
-16 15 -15 0 -16 0 0 10 0 10 -20 0 -20 0 0 -6z"/>
<path d="M713 1025 l-13 -14 0 -6 0 -5 16 0 15 0 15 14 14 15 0 5 0 6 -17 0
-18 -1 -12 -14z"/>
<path d="M791 984 l-13 -15 6 -6 5 -5 16 15 15 16 0 5 0 6 -7 0 -8 -1 -14 -15z"/>
<path d="M893 945 l-13 -14 0 -6 0 -5 20 0 20 0 0 20 0 20 -7 0 -8 -1 -12 -14z"/>
<path d="M760 930 l0 -10 10 0 10 0 0 10 0 10 -10 0 -10 0 0 -10z"/>
<path d="M820 901 l0 -19 -12 -5 -13 -4 7 -8 7 -7 16 15 15 16 0 15 0 16 -10
0 -10 0 0 -19z"/>
<path d="M660 730 l0 -10 10 0 10 0 0 10 0 10 -10 0 -10 0 0 -10z"/>
<path d="M600 710 l0 -10 10 0 10 0 0 10 0 10 -10 0 -10 0 0 -10z"/>
<path d="M600 650 l0 -10 10 0 10 0 0 10 0 10 -10 0 -10 0 0 -10z"/>
<path d="M640 570 l0 -10 10 0 10 0 0 10 0 10 -10 0 -10 0 0 -10z"/>
<path d="M1020 550 l0 -10 10 0 10 0 0 10 0 10 -10 0 -10 0 0 -10z"/>
<path d="M1040 510 l0 -10 10 0 10 0 0 10 0 10 -10 0 -10 0 0 -10z"/>
<path d="M1040 460 l0 -20 10 0 10 0 0 20 0 20 -10 0 -10 0 0 -20z"/>
<path d="M640 450 l0 -10 10 0 10 0 0 10 0 10 -10 0 -10 0 0 -10z"/>
<path d="M580 430 l0 -10 10 0 10 0 0 10 0 10 -10 0 -10 0 0 -10z"/>
<path d="M1040 410 l0 -10 10 0 10 0 0 10 0 10 -10 0 -10 0 0 -10z"/>
<path d="M620 370 l0 -10 10 0 10 0 0 10 0 10 -10 0 -10 0 0 -10z"/>
<path d="M1020 340 l0 -20 10 0 10 0 0 20 0 20 -10 0 -10 0 0 -20z"/>
<path d="M600 330 l0 -10 10 0 10 0 0 10 0 10 -10 0 -10 0 0 -10z"/>
<path d="M1020 290 l0 -10 10 0 10 0 0 10 0 10 -10 0 -10 0 0 -10z"/>
</g>
</svg>
