<?xml version="1.0" standalone="no"?>
<!DOCTYPE svg PUBLIC "-//W3C//DTD SVG 20010904//EN"
 "http://www.w3.org/TR/2001/REC-SVG-20010904/DTD/svg10.dtd">
<svg version="1.0" xmlns="http://www.w3.org/2000/svg"
 width="468pt" height="468pt" viewBox="0 0 468 468"
 preserveAspectRatio="xMidYMid meet">
<metadata>
Created by potrace 1.8, written by Peter Selinger 2001-2007
</metadata>
<g transform="translate(0,468) scale(0.365625,-0.365625)"
fill="#000000" stroke="none">
<path d="M680 1265 l0 -15 -15 0 -15 0 0 -10 0 -10 -25 0 -25 0 0 -25 0 -25
-35 0 -35 0 0 -15 0 -15 50 0 50 0 0 11 0 10 14 15 15 14 10 0 11 0 0 15 0 15
50 0 50 0 0 -15 0 -15 21 0 20 0 15 -14 14 -15 0 -10 0 -11 15 0 15 0 0 15 0
15 49 0 49 0 6 13 6 12 6 -12 6 -13 24 0 24 0 0 -15 0 -15 15 0 15 0 0 -25 0
-25 10 0 10 0 0 -25 0 -25 15 0 15 0 0 -25 0 -25 10 0 10 0 0 25 0 25 -10 0
-10 0 0 25 0 25 -15 0 -15 0 0 25 0 25 -10 0 -10 0 0 25 0 25 -25 0 -25 0 0
15 0 15 -65 0 -65 0 0 -15 0 -15 -35 0 -35 0 0 15 0 15 -25 0 -25 0 0 10 0 10
-15 0 -15 0 0 15 0 15 -10 0 -10 0 0 -15 0 -15 -15 0 -15 0 0 15 0 15 -10 0
-10 0 0 -15z"/>
<path d="M430 1190 l0 -10 -15 0 -15 0 0 -11 0 -10 -14 -15 -15 -14 -20 0 -21
0 0 -15 0 -15 -15 0 -15 0 0 -10 0 -10 -50 0 -50 0 0 -11 0 -10 -14 -15 -15
-14 -10 0 -11 0 0 -25 0 -25 -10 0 -10 0 0 -15 0 -15 -15 0 -15 0 0 -21 0 -20
-14 -15 -15 -14 -10 0 -11 0 0 -15 0 -15 -10 0 -10 0 0 -35 0 -35 -15 0 -15 0
0 -25 0 -25 15 0 15 0 0 -15 0 -15 10 0 10 0 0 -35 0 -35 15 0 15 0 0 -15 0
-15 10 0 10 0 0 -25 0 -25 15 0 15 0 0 -25 0 -25 10 0 10 0 0 25 0 25 -10 0
-10 0 0 25 0 25 -15 0 -15 0 0 15 0 15 -10 0 -10 0 0 35 0 35 -15 0 -15 0 0
50 0 50 15 0 15 0 0 36 0 35 14 15 15 14 10 0 11 0 0 15 0 15 10 0 10 0 0 25
0 25 15 0 15 0 0 21 0 20 14 15 15 14 45 0 46 0 0 -10 0 -10 15 0 15 0 0 10 0
10 -15 0 -15 0 0 15 0 15 36 0 35 0 15 14 14 15 0 10 0 11 11 0 10 0 15 14 14
15 0 10 0 11 15 0 15 0 0 -15 0 -15 10 0 10 0 0 11 0 10 -14 15 -15 14 -20 0
-21 0 0 -10z"/>
<path d="M530 1090 l0 -10 10 0 10 0 0 10 0 10 -10 0 -10 0 0 -10z"/>
<path d="M793 1085 l-13 -14 0 -21 0 -20 -15 0 -15 0 0 -15 0 -15 -10 0 -10 0
0 -25 0 -25 -15 0 -15 0 0 -24 0 -24 -12 -6 -13 -6 13 -6 12 -6 0 -49 0 -49
15 0 15 0 0 -25 0 -25 10 0 10 0 0 -15 0 -15 -25 0 -25 0 0 -10 0 -10 -25 0
-25 0 0 -40 0 -40 -10 0 -10 0 0 -60 0 -60 10 0 10 0 0 -15 0 -15 -35 0 -35 0
0 15 0 15 -11 0 -10 0 -15 14 -14 15 0 20 0 21 -15 0 -15 0 0 25 0 25 -10 0
-10 0 0 25 0 25 -15 0 -15 0 0 25 0 25 -10 0 -10 0 0 15 0 15 10 0 10 0 0 50
0 50 15 0 15 0 0 35 0 35 -15 0 -15 0 0 -35 0 -35 -10 0 -10 0 0 -15 0 -15
-15 0 -15 0 0 -60 0 -60 15 0 15 0 0 -25 0 -25 10 0 10 0 0 -25 0 -25 15 0 15
0 0 -39 0 -39 13 -6 12 -6 -12 -6 -13 -6 0 -14 0 -14 10 0 10 0 0 15 0 15 15
0 15 0 0 -15 0 -15 25 0 25 0 0 -25 0 -25 35 0 35 0 0 -10 0 -10 14 0 14 0 6
13 6 12 6 -12 6 -13 49 0 49 0 0 -15 0 -15 25 0 25 0 0 -10 0 -10 25 0 25 0 0
25 0 25 -10 0 -10 0 0 -15 0 -15 -15 0 -15 0 0 15 0 15 -25 0 -25 0 0 10 0 10
-25 0 -25 0 0 15 0 15 15 0 15 0 0 10 0 10 -14 0 -14 0 -6 -12 -6 -13 -6 13
-6 12 -14 0 -14 0 0 14 0 14 -12 6 -13 6 13 6 12 6 0 24 0 24 -25 0 -25 0 0
25 0 25 14 0 14 0 6 -12 6 -13 6 13 6 12 14 0 14 0 0 14 0 14 13 5 12 4 -9 9
-9 9 -4 -12 -5 -13 -14 0 -14 0 0 -15 0 -15 -10 0 -10 0 0 15 0 15 10 0 10 0
0 25 0 25 50 0 50 0 0 10 0 10 -10 0 -10 0 0 15 0 15 -15 0 -15 0 0 25 0 25
-10 0 -10 0 0 46 0 45 14 15 15 14 10 0 11 0 0 15 0 15 -15 0 -15 0 0 -11 0
-10 -14 -15 -15 -14 -10 0 -11 0 0 10 0 10 15 0 15 0 0 25 0 25 10 0 10 0 0
25 0 25 15 0 15 0 0 15 0 15 10 0 10 0 0 25 0 25 15 0 15 0 0 10 0 10 -12 0
-13 -1 -12 -14z m-113 -570 l0 -15 -15 0 -15 0 0 15 0 15 15 0 15 0 0 -15z"/>
<path d="M530 1040 l0 -10 -15 0 -15 0 0 -25 0 -25 -10 0 -10 0 0 -25 0 -25
10 0 10 0 0 25 0 25 15 0 15 0 0 25 0 25 10 0 10 0 0 10 0 10 -10 0 -10 0 0
-10z"/>
<path d="M280 990 l0 -10 10 0 10 0 0 10 0 10 -10 0 -10 0 0 -10z"/>
<path d="M1150 955 l0 -25 15 0 15 0 0 25 0 25 -15 0 -15 0 0 -25z"/>
<path d="M250 940 l0 -10 -25 0 -25 0 0 -39 0 -39 -12 -6 -13 -6 13 -6 12 -6
0 -14 0 -14 15 0 15 0 0 14 0 14 13 6 12 6 -12 6 -13 6 0 24 0 24 10 0 10 0 0
15 0 15 15 0 15 0 0 10 0 10 -15 0 -15 0 0 -10z m-20 -100 l0 -10 -15 0 -15 0
0 10 0 10 15 0 15 0 0 -10z"/>
<path d="M830 915 l0 -15 10 0 10 0 0 15 0 15 -10 0 -10 0 0 -15z"/>
<path d="M1050 916 l0 -14 -12 -5 -13 -4 9 -9 9 -9 4 13 5 12 14 0 14 0 0 15
0 15 -15 0 -15 0 0 -14z"/>
<path d="M1150 890 l0 -10 15 0 15 0 0 -15 0 -15 -15 0 -15 0 0 -10 0 -10 15
0 15 0 0 -40 0 -40 10 0 10 0 0 39 0 39 -12 6 -13 6 13 6 12 6 0 10 0 9 -14
15 -15 14 -10 0 -11 0 0 -10z"/>
<path d="M280 865 l0 -15 10 0 10 0 0 15 0 15 -10 0 -10 0 0 -15z"/>
<path d="M330 840 l0 -10 10 0 10 0 0 10 0 10 -10 0 -10 0 0 -10z"/>
<path d="M1000 825 l0 -25 15 0 15 0 0 25 0 25 -15 0 -15 0 0 -25z"/>
<path d="M530 790 l0 -10 -15 0 -15 0 0 -15 0 -15 15 0 15 0 0 15 0 15 10 0
10 0 0 10 0 10 -10 0 -10 0 0 -10z"/>
<path d="M580 790 l0 -10 10 0 10 0 0 10 0 10 -10 0 -10 0 0 -10z"/>
<path d="M180 765 l0 -15 10 0 10 0 0 15 0 15 -10 0 -10 0 0 -15z"/>
<path d="M1000 765 l0 -15 15 0 15 0 0 15 0 15 -15 0 -15 0 0 -15z"/>
<path d="M1080 765 l0 -15 -15 0 -15 0 0 -10 0 -10 -25 0 -25 0 0 -25 0 -25
-49 0 -49 0 -6 13 -6 12 -6 -12 -6 -13 -13 0 -13 0 -5 13 -4 12 -9 -9 -9 -9
13 -4 12 -5 0 -13 0 -13 -12 -6 -13 -6 13 -6 12 -6 0 -24 0 -24 -10 0 -10 0 0
-15 0 -15 10 0 10 0 0 -35 0 -35 -10 0 -10 0 0 -15 0 -15 -15 0 -15 0 0 -10 0
-10 15 0 15 0 0 10 0 10 25 0 25 0 0 50 0 50 10 0 10 0 0 15 0 15 -10 0 -10 0
0 25 0 25 -15 0 -15 0 0 10 0 10 15 0 15 0 0 15 0 15 10 0 10 0 0 -15 0 -15
75 0 75 0 0 -10 0 -10 15 0 15 0 0 10 0 10 -15 0 -15 0 0 14 0 14 -12 6 -13 6
13 6 12 6 0 14 0 14 15 0 15 0 0 -15 0 -15 -15 0 -15 0 0 -10 0 -10 11 0 10 0
15 14 14 15 0 10 0 11 -10 0 -10 0 0 10 0 10 25 0 25 0 0 15 0 15 -25 0 -25 0
0 -15z m-200 -200 l0 -15 -15 0 -15 0 0 15 0 15 15 0 15 0 0 -15z"/>
<path d="M600 740 l0 -10 15 0 15 0 0 10 0 10 -15 0 -15 0 0 -10z"/>
<path d="M200 715 l0 -15 15 0 15 0 0 15 0 15 -15 0 -15 0 0 -15z"/>
<path d="M480 715 l0 -15 10 0 10 0 0 15 0 15 -10 0 -10 0 0 -15z"/>
<path d="M530 715 l0 -15 10 0 10 0 0 15 0 15 -10 0 -10 0 0 -15z"/>
<path d="M1130 715 l0 -15 10 0 10 0 0 15 0 15 -10 0 -10 0 0 -15z"/>
<path d="M1180 715 l0 -15 10 0 10 0 0 15 0 15 -10 0 -10 0 0 -15z"/>
<path d="M200 665 l0 -15 15 0 15 0 0 -21 0 -20 14 -15 15 -14 10 0 11 0 0
-15 0 -15 10 0 10 0 0 -24 0 -24 -12 -5 -13 -4 9 -9 9 -9 4 13 5 12 14 0 14 0
0 -10 0 -10 25 0 25 0 0 -11 0 -10 14 -15 15 -14 6 0 6 0 15 14 14 15 0 10 0
11 -10 0 -10 0 0 -15 0 -15 -15 0 -15 0 0 11 0 10 -14 15 -15 14 -20 0 -21 0
0 25 0 25 -15 0 -15 0 0 11 0 10 -14 15 -15 14 -10 0 -11 0 0 25 0 25 -10 0
-10 0 0 15 0 15 -15 0 -15 0 0 -15z"/>
<path d="M1180 665 l0 -15 10 0 10 0 0 15 0 15 -10 0 -10 0 0 -15z"/>
<path d="M780 640 l0 -10 10 0 10 0 0 10 0 10 -10 0 -10 0 0 -10z"/>
<path d="M1100 615 l0 -15 15 0 15 0 0 15 0 15 -15 0 -15 0 0 -15z"/>
<path d="M1180 605 l0 -25 -15 0 -15 0 0 -15 0 -15 15 0 15 0 0 15 0 15 10 0
10 0 0 25 0 25 -10 0 -10 0 0 -25z"/>
<path d="M1200 540 l0 -10 15 0 15 0 0 10 0 10 -15 0 -15 0 0 -10z"/>
<path d="M1080 515 l0 -15 10 0 10 0 0 15 0 15 -10 0 -10 0 0 -15z"/>
<path d="M180 490 l0 -10 10 0 10 0 0 -15 0 -15 15 0 15 0 0 -21 0 -20 14 -15
15 -14 10 0 11 0 0 -15 0 -15 10 0 10 0 0 11 0 10 -14 15 -15 14 -10 0 -11 0
0 25 0 25 -10 0 -10 0 0 14 0 14 13 5 12 4 -9 9 -9 9 -4 -12 -5 -13 -14 0 -14
0 0 10 0 10 -10 0 -10 0 0 -10z"/>
<path d="M1200 490 l0 -10 15 0 15 0 0 -50 0 -50 -15 0 -15 0 0 -50 0 -50 -25
0 -25 0 0 -11 0 -10 -14 -15 -15 -14 -20 0 -21 0 0 -15 0 -15 -11 0 -10 0 -15
-14 -14 -15 0 -10 0 -11 10 0 10 0 0 15 0 15 25 0 25 0 0 10 0 10 15 0 15 0 0
15 0 15 25 0 25 0 0 -25 0 -25 10 0 10 0 0 -15 0 -15 15 0 15 0 0 -21 0 -20
14 -15 15 -14 10 0 11 0 0 35 0 35 -15 0 -15 0 0 15 0 15 -10 0 -10 0 0 25 0
25 -15 0 -15 0 0 10 0 10 15 0 15 0 0 65 0 65 10 0 10 0 0 46 0 45 -14 15 -15
14 -10 0 -11 0 0 -10z"/>
<path d="M1080 465 l0 -15 10 0 10 0 0 15 0 15 -10 0 -10 0 0 -15z"/>
<path d="M1030 440 l0 -10 10 0 10 0 0 10 0 10 -10 0 -10 0 0 -10z"/>
<path d="M530 390 l0 -40 10 0 10 0 0 -25 0 -25 11 0 10 0 15 -14 14 -15 0
-10 0 -11 15 0 15 0 0 -21 0 -20 14 -15 15 -14 10 0 11 0 0 10 0 10 -15 0 -15
0 0 25 0 25 -10 0 -10 0 0 15 0 15 -11 0 -10 0 -15 14 -14 15 0 20 0 21 -15 0
-15 0 0 40 0 40 -10 0 -10 0 0 -40z"/>
<path d="M400 365 l0 -15 15 0 15 0 0 15 0 15 -15 0 -15 0 0 -15z"/>
<path d="M930 340 l0 -10 10 0 10 0 0 10 0 10 -10 0 -10 0 0 -10z"/>
<path d="M980 340 l0 -10 25 0 25 0 0 10 0 10 -25 0 -25 0 0 -10z"/>
<path d="M300 315 l0 -15 15 0 15 0 0 -21 0 -20 14 -15 15 -14 10 0 11 0 0
-15 0 -15 10 0 10 0 0 -25 0 -25 25 0 25 0 0 -10 0 -10 25 0 25 0 0 -15 0 -15
11 0 10 0 15 -14 14 -15 0 -35 0 -36 25 0 25 0 0 25 0 25 -10 0 -10 0 0 25 0
25 10 0 10 0 0 11 0 10 -14 15 -15 14 -9 0 -10 0 -6 -12 -6 -13 -6 13 -6 12
-39 0 -39 0 0 11 0 10 -14 15 -15 14 -10 0 -11 0 0 11 0 10 -14 15 -15 14 -10
0 -11 0 0 25 0 25 -10 0 -10 0 0 15 0 15 -15 0 -15 0 0 -15z m280 -200 l0 -15
-15 0 -15 0 0 15 0 15 15 0 15 0 0 -15z"/>
<path d="M380 290 l0 -10 10 0 10 0 0 10 0 10 -10 0 -10 0 0 -10z"/>
<path d="M950 265 l0 -15 15 0 15 0 0 15 0 15 -15 0 -15 0 0 -15z"/>
<path d="M1000 240 l0 -10 15 0 15 0 0 10 0 10 -15 0 -15 0 0 -10z"/>
<path d="M750 140 l0 -10 15 0 15 0 0 10 0 10 -15 0 -15 0 0 -10z"/>
<path d="M800 140 l0 -10 15 0 15 0 0 10 0 10 -15 0 -15 0 0 -10z"/>
<path d="M980 140 l0 -10 10 0 10 0 0 10 0 10 -10 0 -10 0 0 -10z"/>
<path d="M850 115 l0 -15 25 0 25 0 0 15 0 15 -25 0 -25 0 0 -15z"/>
<path d="M930 115 l0 -15 10 0 10 0 0 15 0 15 -10 0 -10 0 0 -15z"/>
<path d="M630 65 l0 -15 24 0 24 0 5 -12 4 -13 9 9 9 9 -12 4 -13 5 0 14 0 14
-25 0 -25 0 0 -15z"/>
<path d="M730 40 l0 -10 10 0 10 0 0 10 0 10 -10 0 -10 0 0 -10z"/>
</g>
</svg>
