<?xml version="1.0" standalone="no"?>
<!DOCTYPE svg PUBLIC "-//W3C//DTD SVG 20010904//EN"
 "http://www.w3.org/TR/2001/REC-SVG-20010904/DTD/svg10.dtd">
<svg version="1.0" xmlns="http://www.w3.org/2000/svg"
 width="468pt" height="468pt" viewBox="0 0 468 468"
 preserveAspectRatio="xMidYMid meet">
<metadata>
Created by potrace 1.8, written by Peter Selinger 2001-2007
</metadata>
<g transform="translate(0,468) scale(0.365625,-0.365625)"
fill="#000000" stroke="none">
<path d="M840 1260 l0 -20 -40 0 -40 0 0 -20 0 -20 -20 0 -20 0 0 -40 0 -40
-20 0 -20 0 0 -120 0 -120 20 0 20 0 0 -20 0 -20 -80 0 -80 0 0 20 0 20 -20 0
-20 0 0 40 0 40 -20 0 -20 0 0 20 0 20 -40 0 -40 0 0 20 0 20 -120 0 -120 0 0
-20 0 -20 -40 0 -40 0 0 -20 0 -20 -20 0 -20 0 0 -40 0 -40 -20 0 -20 0 0
-120 0 -120 20 0 20 0 0 -40 0 -40 20 0 20 0 0 -20 0 -20 40 0 40 0 0 -20 0
-20 40 0 40 0 0 -60 0 -60 20 0 20 0 0 -60 0 -60 -40 0 -40 0 0 -20 0 -20 -40
0 -40 0 0 -20 0 -20 -60 0 -60 0 0 -40 0 -40 20 0 20 0 0 -20 0 -20 -20 0 -20
0 0 -20 0 -20 640 0 640 0 0 60 0 60 -160 0 -160 0 0 20 0 20 -20 0 -20 0 0
20 0 20 60 0 60 0 0 80 0 80 -20 0 -20 0 0 40 0 40 40 0 40 0 0 -20 0 -20 20
0 20 0 0 20 0 20 40 0 40 0 0 -20 0 -20 40 0 40 0 0 20 0 20 -40 0 -40 0 0 20
0 20 -40 0 -40 0 0 60 0 60 40 0 40 0 0 20 0 20 40 0 40 0 0 20 0 20 -40 0
-40 0 0 -20 0 -20 -40 0 -40 0 0 20 0 20 -20 0 -20 0 0 -20 0 -20 -40 0 -40 0
0 40 0 40 40 0 40 0 0 20 0 20 40 0 40 0 0 20 0 20 20 0 20 0 0 40 0 40 20 0
20 0 0 120 0 120 -20 0 -20 0 0 40 0 40 -20 0 -20 0 0 20 0 20 -40 0 -40 0 0
20 0 20 -120 0 -120 0 0 -20z m40 -40 l0 -20 20 0 20 0 0 20 0 20 20 0 20 0 0
-20 0 -20 20 0 20 0 0 20 0 20 20 0 20 0 0 -20 0 -20 20 0 20 0 0 -20 0 -20
20 0 20 0 0 20 0 20 20 0 20 0 0 -20 0 -20 -20 0 -20 0 0 -20 0 -20 20 0 20 0
0 -20 0 -20 20 0 20 0 0 -20 0 -20 -20 0 -20 0 0 -20 0 -20 20 0 20 0 0 -20 0
-20 -20 0 -20 0 0 -20 0 -20 20 0 20 0 0 -20 0 -20 -20 0 -20 0 0 -20 0 -20
-20 0 -20 0 0 -20 0 -20 -20 0 -20 0 0 -20 0 -20 -20 0 -20 0 0 20 0 20 -20 0
-20 0 0 -20 0 -20 -20 0 -20 0 0 20 0 20 -20 0 -20 0 0 -20 0 -20 -20 0 -20 0
0 20 0 20 -20 0 -20 0 0 20 0 20 -20 0 -20 0 0 20 0 20 -20 0 -20 0 0 20 0 20
-20 0 -20 0 0 20 0 20 20 0 20 0 0 20 0 20 -20 0 -20 0 0 20 0 20 20 0 20 0 0
20 0 20 -20 0 -20 0 0 20 0 20 20 0 20 0 0 20 0 20 20 0 20 0 0 20 0 20 20 0
20 0 0 20 0 20 20 0 20 0 0 -20z m-680 -240 l0 -20 20 0 20 0 0 20 0 20 20 0
20 0 0 -20 0 -20 20 0 20 0 0 20 0 20 20 0 20 0 0 -20 0 -20 20 0 20 0 0 -20
0 -20 20 0 20 0 0 20 0 20 20 0 20 0 0 -20 0 -20 -20 0 -20 0 0 -20 0 -20 20
0 20 0 0 -20 0 -20 20 0 20 0 0 -20 0 -20 -20 0 -20 0 0 -20 0 -20 20 0 20 0
0 -20 0 -20 -20 0 -20 0 0 -20 0 -20 20 0 20 0 0 -20 0 -20 -20 0 -20 0 0 -20
0 -20 -20 0 -20 0 0 -20 0 -20 -20 0 -20 0 0 -20 0 -20 -20 0 -20 0 0 20 0 20
-20 0 -20 0 0 -20 0 -20 -20 0 -20 0 0 20 0 20 -20 0 -20 0 0 -20 0 -20 -20 0
-20 0 0 20 0 20 -20 0 -20 0 0 20 0 20 -20 0 -20 0 0 -20 0 -20 -20 0 -20 0 0
20 0 20 20 0 20 0 0 20 0 20 -20 0 -20 0 0 20 0 20 -20 0 -20 0 0 20 0 20 20
0 20 0 0 20 0 20 -20 0 -20 0 0 20 0 20 20 0 20 0 0 20 0 20 -20 0 -20 0 0 20
0 20 20 0 20 0 0 20 0 20 20 0 20 0 0 20 0 20 20 0 20 0 0 20 0 20 20 0 20 0
0 -20z m640 -240 l0 -20 -20 0 -20 0 0 -20 0 -20 -20 0 -20 0 0 -40 0 -40 -20
0 -20 0 0 40 0 40 20 0 20 0 0 20 0 20 20 0 20 0 0 20 0 20 20 0 20 0 0 -20z
m-160 -120 l0 -20 -20 0 -20 0 0 20 0 20 20 0 20 0 0 -20z m160 0 l0 -20 20 0
20 0 0 -20 0 -20 -20 0 -20 0 0 20 0 20 -20 0 -20 0 0 20 0 20 20 0 20 0 0
-20z m240 -40 l0 -20 -60 0 -60 0 0 20 0 20 60 0 60 0 0 -20z m-440 -40 l0
-20 -20 0 -20 0 0 20 0 20 20 0 20 0 0 -20z m-120 -40 l0 -20 40 0 40 0 0 -20
0 -20 -40 0 -40 0 0 20 0 20 -40 0 -40 0 0 20 0 20 40 0 40 0 0 -20z m280 0
l0 -20 -20 0 -20 0 0 -20 0 -20 -20 0 -20 0 0 40 0 40 40 0 40 0 0 -20z m80 0
l0 -20 -20 0 -20 0 0 20 0 20 20 0 20 0 0 -20z m-560 -60 l0 -40 -20 0 -20 0
0 40 0 40 20 0 20 0 0 -40z m560 -20 l0 -20 -20 0 -20 0 0 20 0 20 20 0 20 0
0 -20z m-280 -40 l0 -20 -20 0 -20 0 0 20 0 20 20 0 20 0 0 -20z m-240 -80 l0
-60 -20 0 -20 0 0 60 0 60 20 0 20 0 0 -60z m520 40 l0 -20 -20 0 -20 0 0 -20
0 -20 -20 0 -20 0 0 20 0 20 20 0 20 0 0 20 0 20 20 0 20 0 0 -20z m-280 -40
l0 -20 -20 0 -20 0 0 20 0 20 20 0 20 0 0 -20z m80 0 l0 -20 -20 0 -20 0 0 20
0 20 20 0 20 0 0 -20z m80 0 l0 -20 -20 0 -20 0 0 20 0 20 20 0 20 0 0 -20z
m-480 -140 l0 -40 -80 0 -80 0 0 20 0 20 40 0 40 0 0 20 0 20 40 0 40 0 0 -40z
m520 20 l0 -20 -20 0 -20 0 0 -20 0 -20 -140 0 -140 0 0 20 0 20 100 0 100 0
0 20 0 20 60 0 60 0 0 -20z m80 0 l0 -20 -20 0 -20 0 0 20 0 20 20 0 20 0 0
-20z m-760 -120 l0 -20 -20 0 -20 0 0 20 0 20 20 0 20 0 0 -20z m80 0 l0 -20
-20 0 -20 0 0 20 0 20 20 0 20 0 0 -20z m80 0 l0 -20 -20 0 -20 0 0 20 0 20
20 0 20 0 0 -20z m80 0 l0 -20 -20 0 -20 0 0 20 0 20 20 0 20 0 0 -20z m80 0
l0 -20 -20 0 -20 0 0 20 0 20 20 0 20 0 0 -20z m80 0 l0 -20 -20 0 -20 0 0 20
0 20 20 0 20 0 0 -20z m80 0 l0 -20 -20 0 -20 0 0 20 0 20 20 0 20 0 0 -20z
m80 0 l0 -20 -20 0 -20 0 0 20 0 20 20 0 20 0 0 -20z m80 0 l0 -20 -20 0 -20
0 0 20 0 20 20 0 20 0 0 -20z m80 0 l0 -20 -20 0 -20 0 0 20 0 20 20 0 20 0 0
-20z m80 0 l0 -20 -20 0 -20 0 0 20 0 20 20 0 20 0 0 -20z m80 0 l0 -20 -20 0
-20 0 0 20 0 20 20 0 20 0 0 -20z m80 0 l0 -20 -20 0 -20 0 0 20 0 20 20 0 20
0 0 -20z m80 0 l0 -20 -20 0 -20 0 0 20 0 20 20 0 20 0 0 -20z m80 0 l0 -20
-20 0 -20 0 0 20 0 20 20 0 20 0 0 -20z"/>
<path d="M840 1180 l0 -20 -20 0 -20 0 0 -20 0 -20 -20 0 -20 0 0 -20 0 -20
20 0 20 0 0 -20 0 -20 -20 0 -20 0 0 -20 0 -20 20 0 20 0 0 -20 0 -20 -20 0
-20 0 0 -20 0 -20 20 0 20 0 0 -20 0 -20 20 0 20 0 0 -20 0 -20 20 0 20 0 0
-20 0 -20 20 0 20 0 0 20 0 20 20 0 20 0 0 -20 0 -20 20 0 20 0 0 20 0 20 20
0 20 0 0 -20 0 -20 20 0 20 0 0 20 0 20 20 0 20 0 0 20 0 20 20 0 20 0 0 20 0
20 -20 0 -20 0 0 20 0 20 20 0 20 0 0 20 0 20 -20 0 -20 0 0 20 0 20 20 0 20
0 0 20 0 20 -20 0 -20 0 0 20 0 20 -20 0 -20 0 0 20 0 20 -20 0 -20 0 0 20 0
20 -20 0 -20 0 0 -20 0 -20 -20 0 -20 0 0 20 0 20 -20 0 -20 0 0 -20 0 -20
-20 0 -20 0 0 20 0 20 -20 0 -20 0 0 -20z m40 -40 l0 -20 20 0 20 0 0 20 0 20
20 0 20 0 0 -20 0 -20 -20 0 -20 0 0 -20 0 -20 40 0 40 0 0 -20 0 -20 20 0 20
0 0 -40 0 -40 20 0 20 0 0 20 0 20 20 0 20 0 0 -20 0 -20 -20 0 -20 0 0 -20 0
-20 20 0 20 0 0 -20 0 -20 -20 0 -20 0 0 -20 0 -20 -20 0 -20 0 0 20 0 20 -20
0 -20 0 0 -20 0 -20 -20 0 -20 0 0 20 0 20 20 0 20 0 0 20 0 20 -40 0 -40 0 0
20 0 20 -20 0 -20 0 0 40 0 40 -20 0 -20 0 0 -20 0 -20 -20 0 -20 0 0 20 0 20
20 0 20 0 0 20 0 20 -20 0 -20 0 0 20 0 20 20 0 20 0 0 20 0 20 20 0 20 0 0
-20z m160 0 l0 -20 20 0 20 0 0 -20 0 -20 20 0 20 0 0 -20 0 -20 -20 0 -20 0
0 20 0 20 -20 0 -20 0 0 20 0 20 -20 0 -20 0 0 20 0 20 20 0 20 0 0 -20z
m-200 -200 l0 -20 20 0 20 0 0 -20 0 -20 20 0 20 0 0 -20 0 -20 -20 0 -20 0 0
20 0 20 -20 0 -20 0 0 20 0 20 -20 0 -20 0 0 20 0 20 20 0 20 0 0 -20z"/>
<path d="M840 1100 l0 -20 20 0 20 0 0 -20 0 -20 20 0 20 0 0 -40 0 -40 40 0
40 0 0 -20 0 -20 20 0 20 0 0 -20 0 -20 20 0 20 0 0 20 0 20 -20 0 -20 0 0 20
0 20 -20 0 -20 0 0 40 0 40 -40 0 -40 0 0 20 0 20 -20 0 -20 0 0 20 0 20 -20
0 -20 0 0 -20z"/>
<path d="M160 940 l0 -20 -20 0 -20 0 0 -20 0 -20 -20 0 -20 0 0 -20 0 -20 20
0 20 0 0 -20 0 -20 -20 0 -20 0 0 -20 0 -20 20 0 20 0 0 -20 0 -20 -20 0 -20
0 0 -20 0 -20 20 0 20 0 0 -20 0 -20 20 0 20 0 0 -20 0 -20 20 0 20 0 0 -20 0
-20 20 0 20 0 0 20 0 20 20 0 20 0 0 -20 0 -20 20 0 20 0 0 20 0 20 20 0 20 0
0 -20 0 -20 20 0 20 0 0 20 0 20 20 0 20 0 0 20 0 20 20 0 20 0 0 20 0 20 -20
0 -20 0 0 20 0 20 20 0 20 0 0 20 0 20 -20 0 -20 0 0 20 0 20 20 0 20 0 0 20
0 20 -20 0 -20 0 0 20 0 20 -20 0 -20 0 0 20 0 20 -20 0 -20 0 0 20 0 20 -20
0 -20 0 0 -20 0 -20 -20 0 -20 0 0 20 0 20 -20 0 -20 0 0 -20 0 -20 -20 0 -20
0 0 20 0 20 -20 0 -20 0 0 -20z m40 -40 l0 -20 -20 0 -20 0 0 -20 0 -20 -20 0
-20 0 0 20 0 20 20 0 20 0 0 20 0 20 20 0 20 0 0 -20z m80 0 l0 -20 -20 0 -20
0 0 20 0 20 20 0 20 0 0 -20z m80 0 l0 -20 20 0 20 0 0 -20 0 -20 20 0 20 0 0
-20 0 -20 -20 0 -20 0 0 20 0 20 -20 0 -20 0 0 20 0 20 -20 0 -20 0 0 20 0 20
20 0 20 0 0 -20z m-40 -80 l0 -20 20 0 20 0 0 -40 0 -40 -20 0 -20 0 0 -20 0
-20 -40 0 -40 0 0 20 0 20 -20 0 -20 0 0 40 0 40 20 0 20 0 0 20 0 20 40 0 40
0 0 -20z m-160 -40 l0 -20 -20 0 -20 0 0 20 0 20 20 0 20 0 0 -20z m280 -40
l0 -20 -20 0 -20 0 0 20 0 20 20 0 20 0 0 -20z m-280 -40 l0 -20 20 0 20 0 0
-20 0 -20 20 0 20 0 0 -20 0 -20 -20 0 -20 0 0 20 0 20 -20 0 -20 0 0 20 0 20
-20 0 -20 0 0 20 0 20 20 0 20 0 0 -20z m280 -40 l0 -20 -20 0 -20 0 0 -20 0
-20 -20 0 -20 0 0 20 0 20 20 0 20 0 0 20 0 20 20 0 20 0 0 -20z m-120 -40 l0
-20 -20 0 -20 0 0 20 0 20 20 0 20 0 0 -20z"/>
<path d="M240 760 l0 -40 40 0 40 0 0 40 0 40 -40 0 -40 0 0 -40z"/>
</g>
</svg>
