<?xml version="1.0" standalone="no"?>
<!DOCTYPE svg PUBLIC "-//W3C//DTD SVG 20010904//EN"
 "http://www.w3.org/TR/2001/REC-SVG-20010904/DTD/svg10.dtd">
<svg version="1.0" xmlns="http://www.w3.org/2000/svg"
 width="468pt" height="468pt" viewBox="0 0 468 468"
 preserveAspectRatio="xMidYMid meet">
<metadata>
Created by potrace 1.8, written by Peter Selinger 2001-2007
</metadata>
<g transform="translate(0,468) scale(0.365625,-0.365625)"
fill="#000000" stroke="none">
<path d="M1160 1240 l0 -40 20 0 20 0 0 -55 0 -55 -55 0 -55 0 0 35 0 35 -40
0 -40 0 0 -20 0 -20 -20 0 -20 0 0 -15 0 -15 -20 0 -20 0 0 -20 0 -20 -40 0
-40 0 0 -20 0 -20 -20 0 -20 0 0 -20 0 -20 20 0 20 0 0 -20 0 -20 -20 0 -20 0
0 20 0 20 -15 0 -15 0 0 20 0 20 -40 0 -40 0 0 -20 0 -20 -40 0 -40 0 0 -20 0
-20 -20 0 -20 0 0 -40 0 -40 -20 0 -20 0 0 20 0 20 -35 0 -35 0 0 -20 0 -20
-40 0 -40 0 0 80 0 80 -20 0 -20 0 0 -20 0 -20 -20 0 -20 0 0 20 0 20 -95 0
-95 0 0 -20 0 -20 -20 0 -20 0 0 -20 0 -20 -20 0 -20 0 0 -20 0 -20 -20 0 -20
0 0 -115 0 -115 20 0 20 0 0 -20 0 -20 20 0 20 0 0 -20 0 -20 20 0 20 0 0 -20
0 -20 95 0 95 0 0 20 0 20 20 0 20 0 0 20 0 20 20 0 20 0 0 20 0 20 -20 0 -20
0 0 -20 0 -20 -20 0 -20 0 0 -20 0 -20 -75 0 -75 0 0 20 0 20 -20 0 -20 0 0
20 0 20 -20 0 -20 0 0 115 0 115 20 0 20 0 0 20 0 20 20 0 20 0 0 20 0 20 75
0 75 0 0 -20 0 -20 20 0 20 0 0 -60 0 -60 -20 0 -20 0 0 -15 0 -15 40 0 40 0
0 -20 0 -20 20 0 20 0 0 -60 0 -60 20 0 20 0 0 -20 0 -20 -20 0 -20 0 0 -20 0
-20 -20 0 -20 0 0 -20 0 -20 -195 0 -195 0 0 -250 0 -250 640 0 640 0 0 250 0
250 -425 0 -425 0 0 20 0 20 55 0 55 0 0 20 0 20 20 0 20 0 0 20 0 20 -40 0
-40 0 0 60 0 60 -15 0 -15 0 0 55 0 55 35 0 35 0 0 -20 0 -20 20 0 20 0 0 20
0 20 40 0 40 0 0 -20 0 -20 -20 0 -20 0 0 -75 0 -75 60 0 60 0 0 40 0 40 20 0
20 0 0 -20 0 -20 35 0 35 0 0 20 0 20 20 0 20 0 0 -20 0 -20 20 0 20 0 0 20 0
20 40 0 40 0 0 20 0 20 40 0 40 0 0 15 0 15 15 0 15 0 0 20 0 20 -15 0 -15 0
0 -20 0 -20 -40 0 -40 0 0 20 0 20 -20 0 -20 0 0 20 0 20 20 0 20 0 0 20 0 20
-20 0 -20 0 0 20 0 20 20 0 20 0 0 40 0 40 20 0 20 0 0 -20 0 -20 55 0 55 0 0
-20 0 -20 40 0 40 0 0 -20 0 -20 20 0 20 0 0 80 0 80 -20 0 -20 0 0 -40 0 -40
-20 0 -20 0 0 40 0 40 20 0 20 0 0 15 0 15 20 0 20 0 0 20 0 20 -20 0 -20 0 0
20 0 20 -20 0 -20 0 0 20 0 20 20 0 20 0 0 20 0 20 -40 0 -40 0 0 -40z m-230
-365 l0 -135 -20 0 -20 0 0 20 0 20 -20 0 -20 0 0 15 0 15 -20 0 -20 0 0 40 0
40 40 0 40 0 0 40 0 40 -20 0 -20 0 0 20 0 20 40 0 40 0 0 -135z m-190 35 l0
-60 -40 0 -40 0 0 40 0 40 20 0 20 0 0 20 0 20 20 0 20 0 0 -60z m40 -115 l0
-15 -20 0 -20 0 0 -20 0 -20 -20 0 -20 0 0 35 0 35 40 0 40 0 0 -15z m230 0
l0 -15 -20 0 -20 0 0 15 0 15 20 0 20 0 0 -15z"/>
<path d="M1090 910 l0 -20 15 0 15 0 0 20 0 20 -15 0 -15 0 0 -20z"/>
<path d="M1240 830 l0 -20 -20 0 -20 0 0 -35 0 -35 40 0 40 0 0 55 0 55 -20 0
-20 0 0 -20z"/>
</g>
</svg>
