<?xml version="1.0" standalone="no"?>
<!DOCTYPE svg PUBLIC "-//W3C//DTD SVG 20010904//EN"
 "http://www.w3.org/TR/2001/REC-SVG-20010904/DTD/svg10.dtd">
<svg version="1.0" xmlns="http://www.w3.org/2000/svg"
 width="468pt" height="468pt" viewBox="0 0 468 468"
 preserveAspectRatio="xMidYMid meet">
<metadata>
Created by potrace 1.8, written by Peter Selinger 2001-2007
</metadata>
<g transform="translate(0,468) scale(0.365625,-0.365625)"
fill="#000000" stroke="none">
<path d="M270 1255 l0 -25 -30 0 -30 0 0 -55 0 -55 -25 0 -25 0 0 -55 0 -55
-25 0 -25 0 0 -50 0 -50 -30 0 -30 0 0 -55 0 -55 -25 0 -25 0 0 -80 0 -80 25
0 25 0 0 -25 0 -25 -25 0 -25 0 0 -80 0 -80 25 0 25 0 0 -30 0 -30 -25 0 -25
0 0 -160 0 -160 25 0 25 0 0 -25 0 -25 110 0 110 0 0 25 0 25 25 0 25 0 0 -25
0 -25 105 0 105 0 0 25 0 25 30 0 30 0 0 -25 0 -25 80 0 80 0 0 25 0 25 25 0
25 0 0 -25 0 -25 105 0 105 0 0 25 0 25 55 0 55 0 0 -25 0 -25 80 0 80 0 0 25
0 25 -80 0 -80 0 0 30 0 30 25 0 25 0 0 25 0 25 -50 0 -50 0 0 -25 0 -25 -30
0 -30 0 0 -30 0 -30 -105 0 -105 0 0 30 0 30 25 0 25 0 0 25 0 25 -25 0 -25 0
0 -25 0 -25 -25 0 -25 0 0 -30 0 -30 -55 0 -55 0 0 30 0 30 25 0 25 0 0 25 0
25 -25 0 -25 0 0 -25 0 -25 -55 0 -55 0 0 -30 0 -30 -105 0 -105 0 0 30 0 30
25 0 25 0 0 25 0 25 -25 0 -25 0 0 -25 0 -25 -25 0 -25 0 0 -30 0 -30 -80 0
-80 0 0 55 0 55 25 0 25 0 0 55 0 55 25 0 25 0 0 50 0 50 30 0 30 0 0 55 0 55
25 0 25 0 0 25 0 25 25 0 25 0 0 -25 0 -25 80 0 80 0 0 -25 0 -25 -25 0 -25 0
0 -30 0 -30 25 0 25 0 0 30 0 30 30 0 30 0 0 25 0 25 105 0 105 0 0 -25 0 -25
-25 0 -25 0 0 -30 0 -30 25 0 25 0 0 30 0 30 55 0 55 0 0 25 0 25 80 0 80 0 0
-25 0 -25 25 0 25 0 0 25 0 25 80 0 80 0 0 400 0 400 -505 0 -505 0 0 -25z
m50 -55 l0 -30 -25 0 -25 0 0 30 0 30 25 0 25 0 0 -30z m-50 -135 l0 -55 -30
0 -30 0 0 -25 0 -25 30 0 30 0 0 -25 0 -25 25 0 25 0 0 -30 0 -30 -25 0 -25 0
0 -80 0 -80 25 0 25 0 0 -25 0 -25 -25 0 -25 0 0 -80 0 -80 -30 0 -30 0 0 -55
0 -55 -25 0 -25 0 0 -50 0 -50 -25 0 -25 0 0 -55 0 -55 -30 0 -30 0 0 105 0
105 30 0 30 0 0 55 0 55 -30 0 -30 0 0 55 0 55 30 0 30 0 0 25 0 25 -30 0 -30
0 0 80 0 80 30 0 30 0 0 55 0 55 25 0 25 0 0 50 0 50 25 0 25 0 0 55 0 55 30
0 30 0 0 -55z m320 -560 l0 -25 -30 0 -30 0 0 25 0 25 30 0 30 0 0 -25z m320
0 l0 -25 -55 0 -55 0 0 25 0 25 55 0 55 0 0 -25z m210 0 l0 -25 -25 0 -25 0 0
25 0 25 25 0 25 0 0 -25z"/>
<path d="M210 880 l0 -30 30 0 30 0 0 30 0 30 -30 0 -30 0 0 -30z"/>
<path d="M210 665 l0 -25 30 0 30 0 0 25 0 25 -30 0 -30 0 0 -25z"/>
<path d="M110 505 l0 -25 25 0 25 0 0 25 0 25 -25 0 -25 0 0 -25z"/>
<path d="M1010 345 l0 -25 30 0 30 0 0 25 0 25 -30 0 -30 0 0 -25z"/>
<path d="M1170 345 l0 -25 30 0 30 0 0 25 0 25 -30 0 -30 0 0 -25z"/>
<path d="M270 240 l0 -30 25 0 25 0 0 30 0 30 -25 0 -25 0 0 -30z"/>
<path d="M480 185 l0 -25 25 0 25 0 0 25 0 25 -25 0 -25 0 0 -25z"/>
</g>
</svg>
