<?xml version="1.0" standalone="no"?>
<!DOCTYPE svg PUBLIC "-//W3C//DTD SVG 20010904//EN"
 "http://www.w3.org/TR/2001/REC-SVG-20010904/DTD/svg10.dtd">
<svg version="1.0" xmlns="http://www.w3.org/2000/svg"
 width="468pt" height="468pt" viewBox="0 0 468 468"
 preserveAspectRatio="xMidYMid meet">
<metadata>
Created by potrace 1.8, written by Peter Selinger 2001-2007
</metadata>
<g transform="translate(0,468) scale(0.365625,-0.365625)"
fill="#000000" stroke="none">
<path d="M0 1215 l0 -65 45 0 45 0 0 -25 0 -25 -45 0 -45 0 0 -550 0 -550 20
0 20 0 0 530 0 530 25 0 25 0 0 -530 0 -530 20 0 20 0 0 530 0 530 45 0 45 0
0 45 0 45 420 0 420 0 0 -45 0 -45 45 0 45 0 0 -530 0 -530 20 0 20 0 0 530 0
530 25 0 25 0 0 -530 0 -530 20 0 20 0 0 550 0 550 -45 0 -45 0 0 25 0 25 45
0 45 0 0 65 0 65 -65 0 -65 0 0 -45 0 -45 -25 0 -25 0 0 45 0 45 -460 0 -460
0 0 -45 0 -45 -25 0 -25 0 0 45 0 45 -65 0 -65 0 0 -65z m90 0 l0 -25 -25 0
-25 0 0 25 0 25 25 0 25 0 0 -25z m970 0 l0 -25 -420 0 -420 0 0 25 0 25 420
0 420 0 0 -25z m180 0 l0 -25 -25 0 -25 0 0 25 0 25 25 0 25 0 0 -25z m-1060
-90 l0 -25 -25 0 -25 0 0 25 0 25 25 0 25 0 0 -25z m970 0 l0 -25 -25 0 -25 0
0 25 0 25 25 0 25 0 0 -25z"/>
</g>
</svg>
