<?xml version="1.0" standalone="no"?>
<!DOCTYPE svg PUBLIC "-//W3C//DTD SVG 20010904//EN"
 "http://www.w3.org/TR/2001/REC-SVG-20010904/DTD/svg10.dtd">
<svg version="1.0" xmlns="http://www.w3.org/2000/svg"
 width="468pt" height="468pt" viewBox="0 0 468 468"
 preserveAspectRatio="xMidYMid meet">
<metadata>
Created by potrace 1.8, written by Peter Selinger 2001-2007
</metadata>
<g transform="translate(0,468) scale(0.365625,-0.365625)"
fill="#000000" stroke="none">
<path d="M290 1185 l0 -15 -10 0 -10 0 0 -40 0 -40 -15 0 -15 0 0 -10 0 -10
15 0 15 0 0 -30 0 -30 -40 0 -40 0 0 -10 0 -10 -15 0 -15 0 0 -15 0 -15 -15 0
-15 0 0 -15 0 -15 -10 0 -10 0 0 -80 0 -80 10 0 10 0 0 -25 0 -25 15 0 15 0 0
-15 0 -15 15 0 15 0 0 -10 0 -10 -15 0 -15 0 0 -55 0 -55 -15 0 -15 0 0 -40 0
-40 -10 0 -10 0 0 -25 0 -25 -15 0 -15 0 0 -30 0 -30 25 0 25 0 0 -76 0 -75
-14 -15 -15 -14 -10 0 -11 0 0 -15 0 -15 -15 0 -15 0 0 -15 0 -15 -10 0 -10 0
0 -10 0 -10 90 0 90 0 0 10 0 10 15 0 15 0 0 -10 0 -10 120 0 120 0 0 90 0 90
-15 0 -15 0 0 15 0 15 15 0 15 0 0 95 0 95 15 0 15 0 0 90 0 90 10 0 10 0 0
15 0 15 15 0 15 0 0 15 0 15 15 0 15 0 0 90 0 90 -15 0 -15 0 0 30 0 30 -15 0
-15 0 0 10 0 10 -25 0 -25 0 0 15 0 15 -15 0 -15 0 0 65 0 65 -10 0 -10 0 0
15 0 15 -70 0 -70 0 0 -15z m30 -25 l0 -10 15 0 15 0 0 -70 0 -70 10 0 10 0 0
-10 0 -10 -25 0 -25 0 0 10 0 10 -15 0 -15 0 0 29 0 29 -12 6 -13 6 13 6 12 6
0 14 0 14 15 0 15 0 0 15 0 15 -15 0 -15 0 0 10 0 10 15 0 15 0 0 -10z m-80
-250 l0 -80 -25 0 -25 0 0 -15 0 -15 -15 0 -15 0 0 -15 0 -15 -15 0 -15 0 0
80 0 80 15 0 15 0 0 15 0 15 15 0 15 0 0 15 0 15 25 0 25 0 0 -80z m80 65 l0
-15 25 0 25 0 0 -15 0 -15 15 0 15 0 0 -40 0 -40 -11 0 -10 0 -15 -14 -14 -15
0 -10 0 -11 10 0 10 0 0 -15 0 -15 -40 0 -40 0 0 40 0 40 -10 0 -10 0 0 40 0
40 10 0 10 0 0 30 0 30 15 0 15 0 0 -15z m210 -15 l0 -30 15 0 15 0 0 -90 0
-90 -11 0 -10 0 -15 14 -14 15 0 10 0 11 -15 0 -15 0 0 15 0 15 -25 0 -25 0 0
80 0 80 50 0 50 0 0 -30z m-260 -175 l0 -15 10 0 10 0 0 -25 0 -25 -25 0 -25
0 0 -15 0 -15 -25 0 -25 0 0 15 0 15 -15 0 -15 0 0 25 0 25 15 0 15 0 0 15 0
15 40 0 40 0 0 -15z m210 0 l0 -15 15 0 15 0 0 -40 0 -40 -66 0 -65 0 -15 -14
-14 -15 0 -10 0 -11 -30 0 -30 0 0 14 0 14 -12 6 -13 6 13 6 12 6 0 14 0 14
15 0 15 0 0 15 0 15 25 0 25 0 0 10 0 10 30 0 30 0 0 15 0 15 25 0 25 0 0 -15z
m-240 -185 l0 -70 15 0 15 0 0 -10 0 -10 25 0 25 0 0 -15 0 -15 -25 0 -25 0 0
-15 0 -15 65 0 65 0 0 -10 0 -10 -65 0 -65 0 0 10 0 10 -15 0 -15 0 0 -10 0
-10 -15 0 -15 0 0 -15 0 -15 -50 0 -50 0 0 15 0 15 10 0 10 0 0 25 0 25 15 0
15 0 0 40 0 40 15 0 15 0 0 55 0 55 25 0 25 0 0 -70z m160 0 l0 -70 -15 0 -15
0 0 70 0 70 15 0 15 0 0 -70z m50 -50 l0 -120 -10 0 -10 0 0 25 0 25 -30 0
-30 0 0 15 0 15 15 0 15 0 0 10 0 10 15 0 15 0 0 70 0 70 10 0 10 0 0 -120z
m-130 20 l0 -40 -25 0 -25 0 0 40 0 40 25 0 25 0 0 -40z m130 -195 l0 -25 -90
0 -90 0 0 10 0 10 -15 0 -15 0 0 15 0 15 105 0 105 0 0 -25z m-240 -110 l0
-105 -10 0 -10 0 0 -15 0 -15 -55 0 -55 0 0 15 0 15 15 0 15 0 0 15 0 15 25 0
25 0 0 -15 0 -15 15 0 15 0 0 15 0 15 -15 0 -15 0 0 90 0 90 25 0 25 0 0 -105z
m60 70 l0 -15 10 0 10 0 0 -15 0 -15 -25 0 -25 0 0 30 0 30 15 0 15 0 0 -15z
m160 -30 l0 -15 -55 0 -55 0 0 15 0 15 55 0 55 0 0 -15z m20 -105 l0 -70 -90
0 -90 0 0 70 0 70 90 0 90 0 0 -70z"/>
<path d="M290 920 l0 -10 15 0 15 0 0 -15 0 -15 -15 0 -15 0 0 -15 0 -15 40 0
40 0 0 40 0 40 -40 0 -40 0 0 -10z"/>
<path d="M670 1185 l0 -15 -15 0 -15 0 0 -25 0 -25 15 0 15 0 0 -15 0 -15 10
0 10 0 0 -50 0 -50 -10 0 -10 0 0 -15 0 -15 -15 0 -15 0 0 -15 0 -15 -15 0
-15 0 0 -90 0 -90 15 0 15 0 0 -15 0 -15 15 0 15 0 0 -15 0 -15 10 0 10 0 0
-40 0 -40 15 0 15 0 0 -105 0 -105 15 0 15 0 0 -105 0 -105 10 0 10 0 0 -40 0
-40 80 0 80 0 0 10 0 10 -10 0 -10 0 0 15 0 15 -15 0 -15 0 0 15 0 15 -15 0
-15 0 0 105 0 105 55 0 55 0 0 -105 0 -105 15 0 15 0 0 -40 0 -40 80 0 80 0 0
10 0 10 -15 0 -15 0 0 15 0 15 -15 0 -15 0 0 15 0 15 -10 0 -10 0 0 160 0 160
-15 0 -15 0 0 50 0 50 -15 0 -15 0 0 -50 0 -50 15 0 15 0 0 -40 0 -40 -25 0
-25 0 0 90 0 90 10 0 10 0 0 30 0 30 15 0 15 0 0 10 0 10 40 0 40 0 0 15 0 15
15 0 15 0 0 15 0 15 50 0 50 0 0 10 0 10 -40 0 -40 0 0 15 0 15 -10 0 -10 0 0
15 0 15 10 0 10 0 0 -15 0 -15 30 0 30 0 0 15 0 15 10 0 10 0 0 10 0 10 -40 0
-40 0 0 15 0 15 15 0 15 0 0 15 0 15 15 0 15 0 0 10 0 10 -55 0 -55 0 0 15 0
15 -55 0 -55 0 0 11 0 10 -14 15 -15 14 -35 0 -36 0 0 15 0 15 10 0 10 0 0 40
0 40 30 0 30 0 0 25 0 25 -15 0 -15 0 0 -10 0 -10 -120 0 -120 0 0 -15 0 -15
-25 0 -25 0 0 25 0 25 145 0 145 0 0 15 0 15 -145 0 -145 0 0 -15z m180 -80
l0 -15 15 0 15 0 0 15 0 15 15 0 15 0 0 -40 0 -40 -15 0 -15 0 0 -15 0 -15
-25 0 -25 0 0 15 0 15 -15 0 -15 0 0 15 0 15 15 0 15 0 0 25 0 25 10 0 10 0 0
-15z m-100 -210 l0 -95 50 0 50 0 0 -40 0 -40 -25 0 -25 0 0 -15 0 -15 -55 0
-55 0 0 15 0 15 -10 0 -10 0 0 15 0 15 -15 0 -15 0 0 90 0 90 15 0 15 0 0 15
0 15 10 0 10 0 0 15 0 15 30 0 30 0 0 -95z m50 80 l0 -15 15 0 15 0 0 -15 0
-15 -15 0 -15 0 0 15 0 15 -15 0 -15 0 0 15 0 15 15 0 15 0 0 -15z m190 0 l0
-15 -40 0 -40 0 0 15 0 15 40 0 40 0 0 -15z m-190 -55 l0 -10 15 0 15 0 0 -15
0 -15 10 0 10 0 0 -15 0 -15 15 0 15 0 0 15 0 15 -15 0 -15 0 0 15 0 15 -10 0
-10 0 0 10 0 10 40 0 40 0 0 -40 0 -40 -15 0 -15 0 0 -10 0 -10 -55 0 -55 0 0
50 0 50 15 0 15 0 0 -10z m290 -70 l0 -80 -10 0 -10 0 0 30 0 30 -15 0 -15 0
0 10 0 10 -55 0 -55 0 0 40 0 40 80 0 80 0 0 -80z m80 45 l0 -15 -10 0 -10 0
0 -15 0 -15 -15 0 -15 0 0 30 0 30 25 0 25 0 0 -15z m-160 -80 l0 -15 15 0 15
0 0 -15 0 -15 -55 0 -55 0 0 30 0 30 40 0 40 0 0 -15z m-100 -29 l0 -14 13 -6
12 -6 -12 -6 -13 -6 0 -14 0 -14 25 0 25 0 0 -120 0 -120 -15 0 -15 0 0 -15 0
-15 15 0 15 0 0 -10 0 -10 -25 0 -25 0 0 25 0 25 10 0 10 0 0 15 0 15 -10 0
-10 0 0 105 0 105 -15 0 -15 0 0 40 0 40 15 0 15 0 0 -14z m130 -66 l0 -30
-25 0 -25 0 0 30 0 30 25 0 25 0 0 -30z m80 15 l0 -15 -25 0 -25 0 0 15 0 15
25 0 25 0 0 -15z m-240 -175 l0 -130 -65 0 -65 0 0 90 0 90 -15 0 -15 0 0 30
0 30 40 0 40 0 0 10 0 10 40 0 40 0 0 -130z m-50 -265 l0 -105 10 0 10 0 0
-15 0 -15 15 0 15 0 0 -15 0 -15 -40 0 -40 0 0 15 0 15 15 0 15 0 0 15 0 15
-30 0 -30 0 0 105 0 105 30 0 30 0 0 -105z m210 0 l0 -105 15 0 15 0 0 -15 0
-15 10 0 10 0 0 -15 0 -15 -40 0 -40 0 0 15 0 15 15 0 15 0 0 15 0 15 -25 0
-25 0 0 105 0 105 25 0 25 0 0 -105z"/>
</g>
</svg>
