<?xml version="1.0" standalone="no"?>
<!DOCTYPE svg PUBLIC "-//W3C//DTD SVG 20010904//EN"
 "http://www.w3.org/TR/2001/REC-SVG-20010904/DTD/svg10.dtd">
<svg version="1.0" xmlns="http://www.w3.org/2000/svg"
 width="468pt" height="468pt" viewBox="0 0 468 468"
 preserveAspectRatio="xMidYMid meet">
<metadata>
Created by potrace 1.8, written by Peter Selinger 2001-2007
</metadata>
<g transform="translate(0,468) scale(0.365625,-0.365625)"
fill="#000000" stroke="none">
<path d="M560 1270 l0 -10 -50 0 -50 0 0 -10 0 -10 -30 0 -30 0 0 -10 0 -10
-25 0 -25 0 -65 -65 -65 -65 0 -13 0 -13 -20 -14 -20 -14 0 -38 0 -38 10 0 10
0 0 -30 0 -30 10 0 10 0 0 -26 0 -25 14 -15 15 -14 25 0 26 0 0 -10 0 -10 16
0 16 0 39 -41 40 -41 6 6 6 6 -21 19 -22 18 0 27 0 26 -20 0 -20 0 0 10 0 10
10 0 10 0 0 20 0 20 -8 0 -8 0 -14 -20 -14 -20 -18 0 -18 0 0 46 0 45 14 15
15 14 55 0 56 0 0 -20 0 -20 10 0 10 0 0 25 0 25 67 67 67 67 4 -12 4 -12 9 0
9 0 0 16 0 15 14 15 15 14 14 0 15 0 5 -12 4 -13 8 7 7 7 -36 35 -35 36 -36 0
-35 0 0 -16 0 -15 -15 -15 -15 -15 -25 26 -26 25 15 15 15 15 25 0 26 0 0 10
0 10 20 0 20 0 0 -10 0 -10 20 0 20 0 0 10 0 10 -10 0 -10 0 0 10 0 10 26 0
25 0 15 -14 14 -15 0 -15 0 -16 20 0 20 0 0 10 0 10 20 0 20 0 0 20 0 20 -20
0 -20 0 0 10 0 10 -80 0 -80 0 0 -10z"/>
<path d="M900 1210 l0 -10 10 0 10 0 0 10 0 10 -10 0 -10 0 0 -10z"/>
<path d="M932 1184 l-13 -14 16 -16 16 -16 7 6 6 7 -14 10 -15 11 13 5 12 5 0
9 0 9 -7 0 -8 -1 -13 -15z"/>
<path d="M980 1154 l0 -25 14 -15 15 -14 15 0 16 0 0 -10 0 -10 -20 0 -20 0 0
-5 0 -6 25 -24 24 -25 16 0 15 0 0 19 0 19 -12 5 -13 4 9 9 9 9 4 -12 5 -13
19 0 19 0 0 -20 0 -20 -16 0 -15 0 -15 -14 -14 -15 0 -95 0 -96 10 0 10 0 0
-20 0 -20 10 0 10 0 0 -16 0 -15 14 -15 15 -14 35 0 36 0 0 10 0 10 10 0 10 0
0 -20 0 -20 10 0 10 0 0 -40 0 -40 10 0 10 0 0 -20 0 -20 10 0 10 0 0 80 0 80
-10 0 -10 0 0 50 0 50 -10 0 -10 0 0 30 0 30 -10 0 -10 0 0 26 0 26 -40 38
-40 38 0 21 0 22 -45 44 -44 45 -14 0 -13 0 -14 20 -14 20 -8 0 -8 0 0 -26z"/>
<path d="M440 870 l0 -10 20 0 20 0 0 10 0 10 -20 0 -20 0 0 -10z"/>
<path d="M500 850 l0 -10 20 0 20 0 0 10 0 10 -20 0 -20 0 0 -10z"/>
<path d="M500 770 l0 -10 -16 0 -15 0 -17 -17 -17 -16 13 -5 12 -4 0 -17 0
-17 -20 -14 -20 -14 0 -56 0 -56 20 -14 20 -14 0 -14 0 -13 14 -15 15 -14 11
0 11 0 15 -14 14 -15 0 -85 0 -86 -10 0 -10 0 0 -50 0 -50 10 0 10 0 0 -20 0
-20 20 0 20 0 0 20 0 20 10 0 10 0 0 26 0 25 14 15 15 14 13 0 14 0 14 20 14
20 14 0 13 0 15 14 14 15 0 21 0 21 14 15 15 14 15 0 16 0 0 10 0 10 20 0 20
0 0 20 0 20 10 0 10 0 0 28 0 28 20 14 20 14 0 24 0 23 -14 15 -15 14 -25 0
-26 0 0 10 0 10 -20 0 -20 0 0 10 0 10 -20 0 -20 0 0 30 0 30 -30 0 -30 0 0
10 0 10 -18 0 -18 0 -14 20 -14 20 -48 0 -48 0 0 10 0 10 -10 0 -10 0 0 -10z"/>
<path d="M1240 500 l0 -40 -10 0 -10 0 0 -30 0 -30 10 0 10 0 0 30 0 30 10 0
10 0 0 40 0 40 -10 0 -10 0 0 -40z"/>
<path d="M1200 361 l0 -19 -12 -5 -13 -4 7 -8 7 -7 16 15 15 16 0 15 0 16 -10
0 -10 0 0 -19z"/>
<path d="M583 35 l-23 -24 0 -6 0 -5 50 0 50 0 0 5 0 6 -25 24 -24 25 -3 -1
-3 0 -22 -24z"/>
<path d="M800 30 l0 -10 20 0 20 0 0 10 0 10 -20 0 -20 0 0 -10z"/>
<path d="M700 10 l0 -10 20 0 20 0 0 10 0 10 -20 0 -20 0 0 -10z"/>
</g>
</svg>
