<?xml version="1.0" standalone="no"?>
<!DOCTYPE svg PUBLIC "-//W3C//DTD SVG 20010904//EN"
 "http://www.w3.org/TR/2001/REC-SVG-20010904/DTD/svg10.dtd">
<svg version="1.0" xmlns="http://www.w3.org/2000/svg"
 width="468pt" height="468pt" viewBox="0 0 468 468"
 preserveAspectRatio="xMidYMid meet">
<metadata>
Created by potrace 1.8, written by Peter Selinger 2001-2007
</metadata>
<g transform="translate(0,468) scale(0.365625,-0.365625)"
fill="#000000" stroke="none">
<path d="M140 1270 l0 -10 20 0 20 0 0 -10 0 -10 40 0 40 0 0 10 0 10 20 0 20
0 0 -10 0 -10 -20 0 -20 0 0 -10 0 -10 -20 0 -20 0 0 -10 0 -10 -20 0 -20 0 0
-16 0 -15 14 -15 15 -14 25 0 26 0 0 -6 0 -6 -40 -38 -40 -38 0 -6 0 -6 40 0
40 0 0 -10 0 -10 -15 0 -16 0 -25 -25 -25 -25 15 -15 15 -15 34 0 35 0 6 -12
6 -13 6 13 6 12 9 0 9 0 0 -16 0 -15 -14 -15 -15 -14 -15 0 -16 0 0 10 0 10
10 0 10 0 0 10 0 10 -20 0 -20 0 0 -25 0 -26 -25 -25 -26 -25 -28 30 -29 31
-16 0 -16 0 0 19 0 19 13 5 12 4 -7 8 -7 7 -25 -25 -26 -26 0 -6 0 -5 15 0 16
0 34 -35 35 -34 0 -26 0 -25 -10 0 -10 0 0 -16 0 -15 -15 -16 -16 -15 -18 21
-18 21 -17 0 -16 0 0 10 0 10 -10 0 -10 0 0 -16 0 -15 14 -15 15 -14 11 0 11
0 15 -14 14 -15 0 -15 0 -16 10 0 10 0 0 -30 0 -30 10 0 10 0 0 -10 0 -10 -20
0 -20 0 0 -60 0 -60 20 0 20 0 0 -35 0 -36 -35 -34 -34 -35 -26 0 -25 0 0 -20
0 -20 20 0 20 0 0 10 0 10 20 0 20 0 0 10 0 10 30 0 30 0 0 -10 0 -10 -10 0
-10 0 0 -10 0 -10 18 0 18 0 14 20 14 20 48 0 48 0 0 -10 0 -10 -19 0 -19 0
-6 -12 -6 -13 -6 13 -6 12 -19 0 -19 0 0 -10 0 -10 20 0 20 0 0 -10 0 -10 -46
0 -47 0 -20 23 -20 22 -4 -12 -5 -13 -19 0 -19 0 0 -10 0 -10 20 0 20 0 0 -10
0 -10 -20 0 -20 0 0 10 0 10 -20 0 -20 0 0 -20 0 -20 -10 0 -10 0 0 -100 0
-100 640 0 640 0 0 95 0 95 -55 55 -55 55 -40 0 -41 0 -35 35 -35 35 15 15 15
15 15 0 16 0 0 10 0 10 40 0 40 0 0 10 0 10 30 0 30 0 0 10 0 10 20 0 20 0 0
40 0 40 -10 0 -10 0 0 -10 0 -10 -38 0 -38 0 -14 -20 -14 -20 -28 0 -28 0 0
30 0 30 10 0 10 0 0 20 0 20 19 0 19 0 6 13 6 12 6 -12 6 -13 28 0 28 0 5 -12
4 -13 8 7 7 7 -15 16 -16 15 -15 0 -16 0 0 20 0 20 10 0 10 0 0 20 0 20 10 0
10 0 0 -10 0 -10 20 0 20 0 0 10 0 10 -20 0 -20 0 0 6 0 7 22 18 21 19 -8 8
-8 7 -4 -12 -5 -13 -19 0 -19 0 0 20 0 20 -10 0 -10 0 0 -20 0 -20 10 0 10 0
0 -18 0 -18 -20 -14 -20 -14 0 -18 0 -18 -20 0 -20 0 0 -10 0 -10 -10 0 -10 0
0 50 0 50 -10 0 -10 0 0 20 0 20 -10 0 -10 0 0 -20 0 -20 10 0 10 0 0 -65 0
-66 -25 -24 -24 -25 -16 0 -15 0 0 -9 0 -9 12 -4 13 -5 -17 -16 -17 -17 -15 0
-16 0 0 50 0 50 -10 0 -10 0 0 20 0 20 -10 0 -10 0 0 50 0 50 20 0 20 0 0 30
0 30 -10 0 -10 0 0 20 0 20 10 0 10 0 0 -10 0 -10 16 0 15 0 17 17 17 16 -13
5 -12 4 0 18 0 18 -12 5 -13 4 9 9 9 9 4 -12 5 -13 19 0 19 0 0 10 0 10 20 0
20 0 0 6 0 6 -40 38 -40 38 0 6 0 6 36 0 35 0 15 14 14 15 0 11 0 11 -14 15
-15 14 -15 0 -16 0 0 -9 0 -9 12 -4 13 -5 -17 -16 -17 -17 -15 0 -16 0 0 20 0
20 -9 0 -9 0 -5 -12 -4 -13 -8 7 -7 7 15 16 16 15 25 0 26 0 0 10 0 10 26 0
25 0 15 15 15 15 -15 15 -15 15 -15 0 -16 0 0 6 0 5 14 15 15 14 11 0 11 0 16
15 15 16 -21 18 -21 18 0 7 0 6 20 0 20 0 0 10 0 10 -19 0 -19 0 -6 -12 -6
-13 -6 13 -6 12 -49 0 -49 0 0 -10 0 -10 -19 0 -19 0 -5 -12 -4 -13 -20 23
-20 22 -57 0 -56 0 0 -20 0 -20 10 0 10 0 0 10 0 10 30 0 30 0 0 -10 0 -10
-26 0 -25 0 -15 -14 -14 -15 0 -5 0 -6 16 0 15 0 15 -15 15 -15 -16 -16 -16
-16 -7 7 -7 8 13 4 12 5 0 9 0 9 -20 0 -20 0 0 -20 0 -20 -10 0 -10 0 0 70 0
70 -10 0 -10 0 0 -70 0 -70 -9 0 -9 0 -5 13 -5 12 -11 -15 -11 -15 -11 15 -11
15 -5 -12 -5 -13 -19 0 -19 0 0 10 0 10 -20 0 -20 0 0 -10 0 -10 -20 0 -20 0
0 70 0 70 -10 0 -10 0 0 -69 0 -69 12 -4 13 -5 -17 -16 -17 -17 -5 0 -6 0 0
36 0 35 -14 15 -15 14 -15 0 -16 0 0 16 0 15 15 16 16 15 7 -6 6 -7 -13 -9
-14 -8 16 -16 16 -16 5 0 6 0 0 40 0 40 -20 0 -20 0 0 -10 0 -10 -20 0 -20 0
0 10 0 10 -99 0 -99 0 -6 -12 -6 -13 -6 13 -6 12 -29 0 -29 0 0 -10z m260 -30
l0 -20 -20 0 -20 0 0 -10 0 -10 -20 0 -20 0 0 6 0 5 14 15 15 14 15 0 16 0 0
10 0 10 10 0 10 0 0 -20z m500 10 l0 -10 -10 0 -10 0 0 10 0 10 10 0 10 0 0
-10z m200 -30 l0 -20 -40 0 -40 0 0 10 0 10 20 0 20 0 0 10 0 10 20 0 20 0 0
-20z m-160 -10 l0 -10 20 0 20 0 0 -10 0 -10 -20 0 -20 0 0 10 0 10 -30 0 -30
0 0 10 0 10 30 0 30 0 0 -10z m-660 -16 l0 -5 -14 -15 -15 -14 -25 0 -26 0 0
10 0 10 20 0 20 0 0 10 0 10 20 0 20 0 0 -6z m160 -20 l0 -5 -14 -15 -15 -14
-25 0 -26 0 0 10 0 10 20 0 20 0 0 10 0 10 20 0 20 0 0 -6z m440 -4 l0 -10 30
0 30 0 0 -20 0 -20 -10 0 -10 0 0 10 0 10 -16 0 -15 0 -15 14 -14 15 0 5 0 6
10 0 10 0 0 -10z m-400 -20 l0 -10 -10 0 -10 0 0 10 0 10 10 0 10 0 0 -10z
m150 -30 l14 -20 8 0 8 0 0 20 0 20 10 0 10 0 0 -26 0 -25 14 -15 15 -14 25 0
26 0 0 6 0 5 -17 17 -16 17 -5 -13 -4 -12 -9 0 -9 0 0 30 0 30 6 0 7 0 19 -22
19 -22 9 14 9 14 8 -7 7 -8 -14 -10 -15 -9 15 -9 14 -10 -24 -22 -25 -22 13
-4 12 -5 0 -19 0 -19 -10 0 -10 0 0 -30 0 -30 30 0 30 0 0 -9 0 -9 -12 -6 -13
-6 13 -6 12 -6 0 -19 0 -19 10 0 10 0 0 -20 0 -20 10 0 10 0 0 -20 0 -20 10 0
10 0 0 -30 0 -30 10 0 10 0 0 -20 0 -20 10 0 10 0 0 -30 0 -30 10 0 10 0 0
-20 0 -20 10 0 10 0 0 -60 0 -60 10 0 10 0 0 -16 0 -15 -16 -16 -16 -16 -8 13
-8 13 -16 -16 -16 -16 0 -15 0 -16 -10 0 -10 0 0 19 0 19 13 6 12 6 -12 6 -13
6 0 19 0 19 10 0 10 0 0 20 0 20 10 0 10 0 0 26 0 25 -50 49 -50 49 0 11 0 12
-32 31 -33 30 13 4 12 5 0 39 0 39 -10 0 -10 0 0 20 0 20 -10 0 -10 0 0 -20 0
-20 10 0 10 0 0 -40 0 -40 -46 0 -47 0 -18 22 -19 21 -19 -21 -18 -22 -47 0
-46 0 0 38 0 38 20 14 20 14 0 18 0 18 -10 0 -10 0 0 -18 0 -18 -20 -14 -20
-14 0 -35 0 -34 22 -18 21 -19 -7 -7 -7 -7 -9 14 -8 14 -30 -32 -30 -32 -12 0
-12 0 -28 -30 -28 -30 -16 0 -16 0 0 -10 0 -10 -16 0 -16 0 -28 -30 -28 -30
-26 0 -26 0 0 10 0 10 -20 0 -20 0 0 10 0 10 29 0 29 0 4 -12 4 -12 77 77 77
77 0 10 0 11 25 24 24 25 16 0 15 0 0 30 0 30 -8 0 -8 0 -14 -20 -14 -20 -8 0
-8 0 0 20 0 20 19 0 19 0 6 13 6 12 6 -12 6 -13 9 0 9 0 0 28 0 28 20 14 20
14 0 28 0 28 -10 0 -10 0 0 -10 0 -10 -10 0 -10 0 0 20 0 20 18 0 18 0 14 20
14 20 18 0 18 0 0 -40 0 -40 -10 0 -10 0 0 30 0 30 -6 0 -5 0 -15 -15 -15 -15
25 -25 25 -25 16 0 15 0 0 -15 0 -16 25 -24 24 -25 21 0 21 0 24 25 25 24 0
16 0 15 20 0 20 0 0 10 0 10 -10 0 -10 0 0 39 0 39 12 4 12 4 -26 27 -27 27
-15 0 -14 0 -5 13 -4 12 -9 -8 -8 -8 14 -9 14 -9 -6 -7 -7 -6 -16 15 -15 16 0
25 0 26 -10 0 -10 0 0 -10 0 -10 -10 0 -10 0 0 20 0 20 18 0 18 0 14 -20z
m436 6 l14 -15 0 -5 0 -6 -26 0 -25 0 -15 14 -14 15 0 5 0 6 26 0 25 0 15 -14z
m-576 -26 l14 -20 18 0 18 0 0 20 0 20 10 0 10 0 0 -20 0 -20 20 0 20 0 0 -10
0 -10 -19 0 -19 0 -5 13 -4 12 -9 -8 -8 -8 13 -9 14 -8 -16 -16 -16 -16 -5 0
-6 0 0 16 0 15 -14 15 -15 14 -15 0 -16 0 0 20 0 20 8 0 8 0 14 -20z m-190 -6
l0 -5 -14 -15 -15 -14 -15 0 -16 0 0 5 0 6 13 14 12 14 18 1 17 0 0 -6z m200
-49 l0 -16 -25 -25 -25 -25 -16 16 -16 16 6 7 7 6 9 -13 8 -14 19 18 18 18
-13 5 -12 4 0 9 0 9 20 0 20 0 0 -15z m83 -17 l5 -13 12 15 12 15 5 -12 5 -13
18 0 18 0 4 12 5 13 16 -17 17 -17 0 -14 0 -15 -12 -6 -13 -6 13 -6 12 -6 0
-29 0 -29 -10 0 -10 0 0 -16 0 -15 -14 -15 -15 -14 -21 0 -21 0 -15 14 -14 15
0 15 0 16 -10 0 -10 0 0 29 0 29 13 6 12 6 -12 6 -13 6 0 29 0 29 9 0 9 0 5
-12z m223 -2 l14 -15 0 -14 0 -15 13 -5 12 -4 -9 -9 -9 -9 -4 13 -5 12 -9 0
-9 0 0 -20 0 -20 -6 0 -5 0 -15 14 -14 15 0 5 0 6 20 0 20 0 0 10 0 10 -10 0
-10 0 0 20 0 20 6 0 5 0 15 -14z m-506 -36 l0 -10 -20 0 -20 0 0 -10 0 -10
-20 0 -20 0 0 5 0 6 13 14 12 14 28 1 27 0 0 -10z m680 -28 l0 -18 20 -14 20
-14 0 -8 0 -8 -16 0 -15 0 -15 14 -14 15 0 15 0 16 -10 0 -10 0 0 10 0 10 20
0 20 0 0 -18z m-34 -76 l14 -15 0 -15 0 -16 10 0 10 0 0 -10 0 -10 -20 0 -20
0 0 18 0 18 -20 14 -20 14 0 8 0 8 16 0 15 0 15 -14z m-580 -20 l14 -15 0 -5
0 -6 -20 0 -20 0 0 -20 0 -20 -20 0 -20 0 0 15 0 16 23 24 22 24 3 0 3 1 15
-14z m-86 -25 l0 -19 -12 -4 -13 -5 17 -16 17 -17 25 0 26 0 0 -19 0 -19 13
-5 12 -4 -22 -20 -23 -20 0 -12 0 -11 -55 -55 -55 -55 -15 0 -15 0 0 20 0 20
-10 0 -10 0 0 60 0 60 10 0 10 0 0 16 0 16 43 40 42 41 -12 4 -13 5 0 9 0 9
20 0 20 0 0 -19z m615 -46 l25 -24 0 -16 0 -15 -16 0 -15 0 -15 14 -14 15 0
25 0 26 5 0 6 0 24 -25z m-275 -94 l0 -19 13 -5 12 -4 -9 -9 -9 -9 -4 13 -5
12 -9 0 -9 0 0 -20 0 -20 -10 0 -10 0 0 20 0 20 10 0 10 0 0 20 0 20 10 0 10
0 0 -19z m-60 -11 l0 -10 -20 0 -20 0 0 10 0 10 20 0 20 0 0 -10z m160 0 l0
-10 -10 0 -10 0 0 10 0 10 10 0 10 0 0 -10z m-40 -26 l0 -15 14 -15 15 -14 5
0 6 0 0 20 0 20 6 0 5 0 15 -14 14 -15 0 -15 0 -16 -9 0 -9 0 -5 13 -5 12 -12
-15 -12 -15 -5 13 -5 12 -9 0 -9 0 0 -20 0 -20 -10 0 -10 0 0 20 0 20 -10 0
-10 0 0 -30 0 -30 -10 0 -10 0 0 -20 0 -20 20 0 20 0 0 -8 0 -8 -20 -14 -20
-14 0 -18 0 -18 -10 0 -10 0 0 20 0 20 10 0 10 0 0 20 0 20 -10 0 -10 0 0 20
0 20 10 0 10 0 0 28 0 28 20 14 20 14 0 18 0 18 10 0 10 0 0 -16z m-200 -24
l0 -20 20 0 20 0 0 -10 0 -10 -19 0 -19 0 -4 12 -5 13 -16 -17 -17 -17 0 -53
0 -54 20 -14 20 -14 0 -18 0 -18 -10 0 -10 0 0 20 0 20 -10 0 -10 0 0 -15 0
-16 -35 -34 -34 -35 -16 0 -15 0 0 -10 0 -10 -60 0 -60 0 0 -10 0 -10 -20 0
-20 0 0 66 0 65 -17 17 -16 17 -5 -13 -4 -12 -9 0 -9 0 0 20 0 20 16 0 17 0
18 -21 18 -21 40 41 39 41 16 0 16 0 0 10 0 10 20 0 20 0 0 10 0 10 18 0 17 1
35 39 35 39 18 1 17 0 0 -20z m40 10 l0 -10 -10 0 -10 0 0 10 0 10 10 0 10 0
0 -10z m40 -10 l0 -20 -10 0 -10 0 0 20 0 20 10 0 10 0 0 -20z m40 -30 l0 -10
-10 0 -10 0 0 10 0 10 10 0 10 0 0 -10z m-34 -24 l14 -15 0 -5 0 -6 -15 0 -16
0 -24 -25 -25 -24 0 -16 0 -15 10 0 10 0 0 10 0 10 10 0 10 0 0 -40 0 -40 -10
0 -10 0 0 -30 0 -30 -10 0 -10 0 0 -10 0 -10 30 0 30 0 0 -10 0 -10 29 0 29 0
6 13 6 12 6 -12 6 -13 19 0 19 0 0 10 0 10 20 0 20 0 0 -10 0 -10 -20 0 -20 0
0 -10 0 -10 -19 0 -19 0 -6 13 -6 12 -6 -12 -6 -13 -29 0 -29 0 0 -10 0 -10
-40 0 -40 0 0 10 0 10 40 0 40 0 0 10 0 10 -30 0 -30 0 0 10 0 10 -40 0 -40 0
0 6 0 6 40 38 40 38 0 26 0 26 -10 0 -10 0 0 19 0 19 -12 5 -13 4 8 9 8 8 9
-13 8 -14 26 26 26 26 0 16 0 15 6 0 5 0 15 -14z m279 -21 l35 -34 0 -26 0
-25 -10 0 -10 0 0 -20 0 -20 -10 0 -10 0 0 -20 0 -20 -16 0 -15 0 -15 14 -14
15 0 64 0 65 -12 4 -12 4 14 17 15 16 13 1 13 0 34 -35z m-345 5 l0 -10 -10 0
-10 0 0 10 0 10 10 0 10 0 0 -10z m220 -10 l0 -20 -10 0 -10 0 0 -20 0 -20
-10 0 -10 0 0 20 0 20 10 0 10 0 0 20 0 20 10 0 10 0 0 -20z m-140 -40 l0 -20
-10 0 -10 0 0 20 0 20 10 0 10 0 0 -20z m180 10 l0 -10 -10 0 -10 0 0 10 0 10
10 0 10 0 0 -10z m0 -70 l0 -40 10 0 10 0 0 -30 0 -30 16 0 15 0 15 -14 14
-15 0 -15 0 -16 -6 0 -7 0 -18 21 -18 21 -16 -15 -15 -16 0 -15 0 -16 -10 0
-10 0 0 30 0 30 10 0 10 0 0 40 0 40 -10 0 -10 0 0 40 0 40 10 0 10 0 0 -40z
m480 30 l0 -10 -20 0 -20 0 0 -10 0 -10 -20 0 -20 0 0 10 0 10 20 0 20 0 0 10
0 10 20 0 20 0 0 -10z m-660 -20 l0 -10 -10 0 -10 0 0 10 0 10 10 0 10 0 0
-10z m100 -10 l0 -20 -10 0 -10 0 0 -20 0 -20 10 0 10 0 0 -20 0 -20 -10 0
-10 0 0 20 0 20 -10 0 -10 0 0 20 0 20 10 0 10 0 0 20 0 20 10 0 10 0 0 -20z
m40 -10 l0 -30 10 0 10 0 0 -30 0 -30 -6 0 -5 0 -15 14 -14 15 0 45 0 46 10 0
10 0 0 -30z m320 4 l0 -5 -14 -15 -15 -14 -15 0 -16 0 0 10 0 10 20 0 20 0 0
10 0 10 10 0 10 0 0 -6z m80 -4 l0 -10 -30 0 -30 0 0 10 0 10 30 0 30 0 0 -10z
m-540 -30 l0 -20 -10 0 -10 0 0 -20 0 -20 -10 0 -10 0 0 20 0 20 10 0 10 0 0
20 0 20 10 0 10 0 0 -20z m-120 -6 l0 -6 -31 -29 -31 -29 15 -15 16 -15 15 0
16 0 0 -30 0 -30 20 0 20 0 0 -10 0 -10 -10 0 -10 0 0 -20 0 -20 -170 0 -170
0 0 10 0 10 140 0 140 0 0 10 0 10 20 0 20 0 0 10 0 10 -10 0 -10 0 0 20 0 20
-19 0 -19 0 -4 12 -5 13 -19 -19 -19 -19 13 -5 12 -4 0 -19 0 -19 -10 0 -10 0
0 20 0 20 -10 0 -10 0 0 15 0 15 53 54 52 55 8 0 7 1 0 -6z m160 -34 l0 -20
-10 0 -10 0 0 20 0 20 10 0 10 0 0 -20z m380 10 l0 -10 -10 0 -10 0 0 10 0 10
10 0 10 0 0 -10z m-77 -22 l5 -13 12 15 12 15 5 -12 5 -13 14 0 15 0 45 -46
46 -45 -21 -18 -21 -18 0 -17 0 -16 -139 0 -139 0 -5 13 -5 12 -11 -15 -10
-14 -8 8 -8 9 13 4 12 5 0 19 0 19 30 0 30 0 0 10 0 10 -10 0 -10 0 0 20 0 20
10 0 10 0 0 -20 0 -20 18 0 18 0 14 20 14 20 48 0 48 0 0 20 0 20 -10 0 -10 0
0 -10 0 -10 -20 0 -20 0 0 20 0 20 9 0 9 0 5 -12z m-517 -82 l14 -15 0 -15 0
-16 -10 0 -10 0 0 20 0 20 -10 0 -10 0 0 10 0 10 6 0 5 0 15 -14z m194 -26 l0
-20 -10 0 -10 0 0 20 0 20 10 0 10 0 0 -20z m80 1 l0 -19 13 -5 12 -4 -7 -8
-7 -7 -16 15 -15 16 0 15 0 16 10 0 10 0 0 -19z m40 9 l0 -10 -10 0 -10 0 0
10 0 10 10 0 10 0 0 -10z m465 -25 l35 -34 0 -6 0 -5 -80 0 -80 0 0 8 0 8 20
14 20 14 0 18 0 18 25 0 26 0 34 -35z m-885 5 l0 -10 -20 0 -20 0 0 10 0 10
20 0 20 0 0 -10z m260 -10 l0 -20 -10 0 -10 0 0 20 0 20 10 0 10 0 0 -20z m80
1 l0 -19 13 -5 12 -4 -7 -8 -7 -7 -16 15 -15 16 0 15 0 16 10 0 10 0 0 -19z
m-120 -31 l0 -10 -10 0 -10 0 0 10 0 10 10 0 10 0 0 -10z m80 0 l0 -10 -10 0
-10 0 0 10 0 10 10 0 10 0 0 -10z"/>
<path d="M500 760 l0 -20 20 0 20 0 0 20 0 20 -20 0 -20 0 0 -20z"/>
<path d="M680 760 l0 -20 20 0 20 0 0 20 0 20 -20 0 -20 0 0 -20z"/>
<path d="M580 991 l0 -9 13 -6 12 -6 -12 -6 -13 -6 0 -9 0 -9 20 0 20 0 0 16
0 15 -14 15 -15 14 -5 0 -6 0 0 -9z"/>
<path d="M653 985 l-13 -14 0 -16 0 -15 20 0 20 0 0 9 0 9 -12 6 -13 6 13 6
12 6 0 9 0 9 -7 0 -8 -1 -12 -14z"/>
<path d="M600 894 l0 -5 15 -15 15 -15 15 15 15 15 0 5 0 6 -30 0 -30 0 0 -6z"/>
<path d="M660 630 l0 -10 10 0 10 0 0 10 0 10 -10 0 -10 0 0 -10z"/>
</g>
</svg>
