<?xml version="1.0" standalone="no"?>
<!DOCTYPE svg PUBLIC "-//W3C//DTD SVG 20010904//EN"
 "http://www.w3.org/TR/2001/REC-SVG-20010904/DTD/svg10.dtd">
<svg version="1.0" xmlns="http://www.w3.org/2000/svg"
 width="468pt" height="468pt" viewBox="0 0 468 468"
 preserveAspectRatio="xMidYMid meet">
<metadata>
Created by potrace 1.8, written by Peter Selinger 2001-2007
</metadata>
<g transform="translate(0,468) scale(0.365625,-0.365625)"
fill="#000000" stroke="none">
<path d="M680 1260 l0 -20 -100 0 -100 0 0 -20 0 -20 -20 0 -20 0 0 -40 0 -40
-20 0 -20 0 0 -40 0 -40 -20 0 -20 0 0 20 0 20 -20 0 -20 0 0 -20 0 -20 -20 0
-20 0 0 20 0 20 -20 0 -20 0 0 -20 0 -20 -20 0 -20 0 0 40 0 40 -40 0 -40 0 0
-100 0 -100 40 0 40 0 0 40 0 40 20 0 20 0 0 -20 0 -20 20 0 20 0 0 20 0 20
20 0 20 0 0 -20 0 -20 20 0 20 0 0 20 0 20 20 0 20 0 0 -100 0 -100 -20 0 -20
0 0 -20 0 -20 -140 0 -140 0 0 40 0 40 -20 0 -20 0 0 -120 0 -120 20 0 20 0 0
40 0 40 140 0 140 0 0 -20 0 -20 -20 0 -20 0 0 -100 0 -100 -20 0 -20 0 0
-100 0 -100 -20 0 -20 0 0 -120 0 -120 500 0 500 0 0 120 0 120 -20 0 -20 0 0
100 0 100 -20 0 -20 0 0 100 0 100 -20 0 -20 0 0 80 0 80 -20 0 -20 0 0 160 0
160 -20 0 -20 0 0 40 0 40 -40 0 -40 0 0 20 0 20 -80 0 -80 0 0 20 0 20 -60 0
-60 0 0 -20z m120 -60 l0 -40 20 0 20 0 0 20 0 20 60 0 60 0 0 -20 0 -20 20 0
20 0 0 -40 0 -40 20 0 20 0 0 -60 0 -60 -300 0 -300 0 0 20 0 20 100 0 100 0
0 20 0 20 -100 0 -100 0 0 20 0 20 20 0 20 0 0 40 0 40 20 0 20 0 0 20 0 20
60 0 60 0 0 -20 0 -20 20 0 20 0 0 40 0 40 60 0 60 0 0 -40z m-240 -300 l0
-20 -60 0 -60 0 0 20 0 20 60 0 60 0 0 -20z m160 0 l0 -20 -60 0 -60 0 0 20 0
20 60 0 60 0 0 -20z m160 0 l0 -20 -60 0 -60 0 0 20 0 20 60 0 60 0 0 -20z
m160 0 l0 -20 -60 0 -60 0 0 20 0 20 60 0 60 0 0 -20z m-480 -80 l0 -20 -60 0
-60 0 0 20 0 20 60 0 60 0 0 -20z m160 0 l0 -20 -60 0 -60 0 0 20 0 20 60 0
60 0 0 -20z m160 0 l0 -20 -60 0 -60 0 0 20 0 20 60 0 60 0 0 -20z m160 0 l0
-20 -60 0 -60 0 0 20 0 20 60 0 60 0 0 -20z m-560 -120 l0 -60 -40 0 -40 0 0
60 0 60 40 0 40 0 0 -60z m160 0 l0 -60 -40 0 -40 0 0 60 0 60 40 0 40 0 0
-60z m160 0 l0 -60 -40 0 -40 0 0 60 0 60 40 0 40 0 0 -60z m160 0 l0 -60 -40
0 -40 0 0 60 0 60 40 0 40 0 0 -60z m120 0 l0 -60 -20 0 -20 0 0 60 0 60 20 0
20 0 0 -60z m40 -140 l0 -40 -20 0 -20 0 0 -20 0 -20 -20 0 -20 0 0 20 0 20
-20 0 -20 0 0 -40 0 -40 80 0 80 0 0 -100 0 -100 20 0 20 0 0 -80 0 -80 -460
0 -460 0 0 20 0 20 20 0 20 0 0 40 0 40 -20 0 -20 0 0 20 0 20 20 0 20 0 0
100 0 100 20 0 20 0 0 80 0 80 380 0 380 0 0 -40z"/>
<path d="M680 1120 l0 -40 20 0 20 0 0 20 0 20 20 0 20 0 0 -20 0 -20 20 0 20
0 0 40 0 40 -60 0 -60 0 0 -40z"/>
<path d="M520 1100 l0 -20 20 0 20 0 0 20 0 20 -20 0 -20 0 0 -20z"/>
<path d="M600 1100 l0 -20 20 0 20 0 0 20 0 20 -20 0 -20 0 0 -20z"/>
<path d="M840 1100 l0 -20 20 0 20 0 0 20 0 20 -20 0 -20 0 0 -20z"/>
<path d="M920 1100 l0 -20 20 0 20 0 0 20 0 20 -20 0 -20 0 0 -20z"/>
<path d="M440 540 l0 -20 -20 0 -20 0 0 -40 0 -40 60 0 60 0 0 40 0 40 -20 0
-20 0 0 20 0 20 -20 0 -20 0 0 -20z m40 -40 l0 -20 -20 0 -20 0 0 20 0 20 20
0 20 0 0 -20z"/>
<path d="M640 540 l0 -20 -20 0 -20 0 0 -40 0 -40 60 0 60 0 0 40 0 40 -20 0
-20 0 0 20 0 20 -20 0 -20 0 0 -20z m40 -40 l0 -20 -20 0 -20 0 0 20 0 20 20
0 20 0 0 -20z"/>
<path d="M840 540 l0 -20 -20 0 -20 0 0 -40 0 -40 60 0 60 0 0 40 0 40 -20 0
-20 0 0 20 0 20 -20 0 -20 0 0 -20z m40 -40 l0 -20 -20 0 -20 0 0 20 0 20 20
0 20 0 0 -20z"/>
<path d="M1040 540 l0 -20 20 0 20 0 0 20 0 20 -20 0 -20 0 0 -20z"/>
<path d="M440 380 l0 -20 -20 0 -20 0 0 -40 0 -40 60 0 60 0 0 40 0 40 -20 0
-20 0 0 20 0 20 -20 0 -20 0 0 -20z m40 -40 l0 -20 -20 0 -20 0 0 20 0 20 20
0 20 0 0 -20z"/>
<path d="M640 380 l0 -20 -20 0 -20 0 0 -40 0 -40 60 0 60 0 0 40 0 40 -20 0
-20 0 0 20 0 20 -20 0 -20 0 0 -20z m40 -40 l0 -20 -20 0 -20 0 0 20 0 20 20
0 20 0 0 -20z"/>
<path d="M840 380 l0 -20 -20 0 -20 0 0 -40 0 -40 60 0 60 0 0 40 0 40 -20 0
-20 0 0 20 0 20 -20 0 -20 0 0 -20z m40 -40 l0 -20 -20 0 -20 0 0 20 0 20 20
0 20 0 0 -20z"/>
<path d="M1040 380 l0 -20 -20 0 -20 0 0 -40 0 -40 60 0 60 0 0 40 0 40 -20 0
-20 0 0 20 0 20 -20 0 -20 0 0 -20z m40 -40 l0 -20 -20 0 -20 0 0 20 0 20 20
0 20 0 0 -20z"/>
<path d="M440 220 l0 -20 -20 0 -20 0 0 -40 0 -40 60 0 60 0 0 40 0 40 -20 0
-20 0 0 20 0 20 -20 0 -20 0 0 -20z m40 -40 l0 -20 -20 0 -20 0 0 20 0 20 20
0 20 0 0 -20z"/>
<path d="M640 220 l0 -20 -20 0 -20 0 0 -40 0 -40 60 0 60 0 0 40 0 40 -20 0
-20 0 0 20 0 20 -20 0 -20 0 0 -20z m40 -40 l0 -20 -20 0 -20 0 0 20 0 20 20
0 20 0 0 -20z"/>
<path d="M840 220 l0 -20 -20 0 -20 0 0 -40 0 -40 60 0 60 0 0 40 0 40 -20 0
-20 0 0 20 0 20 -20 0 -20 0 0 -20z m40 -40 l0 -20 -20 0 -20 0 0 20 0 20 20
0 20 0 0 -20z"/>
<path d="M1040 220 l0 -20 -20 0 -20 0 0 -40 0 -40 60 0 60 0 0 40 0 40 -20 0
-20 0 0 20 0 20 -20 0 -20 0 0 -20z m40 -40 l0 -20 -20 0 -20 0 0 20 0 20 20
0 20 0 0 -20z"/>
</g>
</svg>
