<?xml version="1.0" standalone="no"?>
<!DOCTYPE svg PUBLIC "-//W3C//DTD SVG 20010904//EN"
 "http://www.w3.org/TR/2001/REC-SVG-20010904/DTD/svg10.dtd">
<svg version="1.0" xmlns="http://www.w3.org/2000/svg"
 width="468pt" height="468pt" viewBox="0 0 468 468"
 preserveAspectRatio="xMidYMid meet">
<metadata>
Created by potrace 1.8, written by Peter Selinger 2001-2007
</metadata>
<g transform="translate(0,468) scale(0.365625,-0.365625)"
fill="#000000" stroke="none">
<path d="M480 1200 l0 -30 55 0 55 0 0 30 0 30 -55 0 -55 0 0 -30z"/>
<path d="M960 1200 l0 -30 -25 0 -25 0 0 -105 0 -105 25 0 25 0 0 -25 0 -25
105 0 105 0 0 25 0 25 30 0 30 0 0 105 0 105 -30 0 -30 0 0 30 0 30 -105 0
-105 0 0 -30z m160 -135 l0 -55 -55 0 -55 0 0 55 0 55 55 0 55 0 0 -55z"/>
<path d="M210 1145 l0 -25 -25 0 -25 0 0 -25 0 -25 -25 0 -25 0 0 -55 0 -55
25 0 25 0 0 -25 0 -25 25 0 25 0 0 -30 0 -30 55 0 55 0 0 30 0 30 25 0 25 0 0
25 0 25 30 0 30 0 0 55 0 55 -30 0 -30 0 0 25 0 25 -25 0 -25 0 0 25 0 25 -55
0 -55 0 0 -25z m110 -130 l0 -55 -55 0 -55 0 0 55 0 55 55 0 55 0 0 -55z"/>
<path d="M480 910 l0 -160 160 0 160 0 0 160 0 160 -160 0 -160 0 0 -160z
m210 -5 l0 -55 -50 0 -50 0 0 55 0 55 50 0 50 0 0 -55z"/>
<path d="M50 640 l0 -160 160 0 160 0 0 160 0 160 -160 0 -160 0 0 -160z m220
0 l0 -50 -55 0 -55 0 0 50 0 50 55 0 55 0 0 -50z"/>
<path d="M1010 720 l0 -30 -25 0 -25 0 0 -25 0 -25 -25 0 -25 0 0 -55 0 -55
25 0 25 0 0 -25 0 -25 25 0 25 0 0 -25 0 -25 55 0 55 0 0 25 0 25 25 0 25 0 0
25 0 25 30 0 30 0 0 55 0 55 -30 0 -30 0 0 25 0 25 -25 0 -25 0 0 30 0 30 -55
0 -55 0 0 -30z m110 -135 l0 -55 -55 0 -55 0 0 55 0 55 55 0 55 0 0 -55z"/>
<path d="M480 615 l0 -25 -25 0 -25 0 0 -110 0 -110 25 0 25 0 0 -25 0 -25
105 0 105 0 0 25 0 25 30 0 30 0 0 110 0 110 -30 0 -30 0 0 25 0 25 -105 0
-105 0 0 -25z m160 -135 l0 -50 -55 0 -55 0 0 50 0 50 55 0 55 0 0 -50z"/>
<path d="M800 535 l0 -55 25 0 25 0 0 55 0 55 -25 0 -25 0 0 -55z"/>
<path d="M210 345 l0 -25 -25 0 -25 0 0 -25 0 -25 -25 0 -25 0 0 -55 0 -55 25
0 25 0 0 -25 0 -25 25 0 25 0 0 -30 0 -30 55 0 55 0 0 30 0 30 25 0 25 0 0 25
0 25 30 0 30 0 0 55 0 55 -30 0 -30 0 0 25 0 25 -25 0 -25 0 0 25 0 25 -55 0
-55 0 0 -25z m110 -130 l0 -55 -55 0 -55 0 0 55 0 55 55 0 55 0 0 -55z"/>
<path d="M750 160 l0 -160 160 0 160 0 0 160 0 160 -160 0 -160 0 0 -160z
m210 0 l0 -50 -55 0 -55 0 0 50 0 50 55 0 55 0 0 -50z"/>
<path d="M1170 215 l0 -55 30 0 30 0 0 55 0 55 -30 0 -30 0 0 -55z"/>
<path d="M530 160 l0 -50 55 0 55 0 0 50 0 50 -55 0 -55 0 0 -50z"/>
</g>
</svg>
