<?xml version="1.0" standalone="no"?>
<!DOCTYPE svg PUBLIC "-//W3C//DTD SVG 20010904//EN"
 "http://www.w3.org/TR/2001/REC-SVG-20010904/DTD/svg10.dtd">
<svg version="1.0" xmlns="http://www.w3.org/2000/svg"
 width="468pt" height="468pt" viewBox="0 0 468 468"
 preserveAspectRatio="xMidYMid meet">
<metadata>
Created by potrace 1.8, written by Peter Selinger 2001-2007
</metadata>
<g transform="translate(0,468) scale(0.365625,-0.365625)"
fill="#000000" stroke="none">
<path d="M320 1270 l0 -10 -16 0 -15 0 -15 -14 -14 -15 0 -15 0 -16 10 0 10 0
0 -20 0 -20 10 0 10 0 0 -20 0 -20 10 0 10 0 0 -20 0 -20 10 0 10 0 0 -20 0
-20 10 0 10 0 0 -20 0 -20 -65 0 -65 0 -55 55 -55 55 0 10 0 11 -14 15 -15 14
-21 0 -21 0 -15 -14 -14 -15 0 -25 0 -26 10 0 10 0 0 -30 0 -30 10 0 10 0 0
-30 0 -30 36 0 35 0 15 -14 14 -15 0 -5 0 -6 -30 0 -30 0 0 -40 0 -40 20 0 20
0 0 -10 0 -10 -20 0 -20 0 0 -10 0 -10 20 0 20 0 0 -10 0 -10 -20 0 -20 0 0
-40 0 -40 30 0 30 0 0 -6 0 -5 -14 -15 -15 -14 -35 0 -36 0 0 -30 0 -30 -10 0
-10 0 0 -30 0 -30 -10 0 -10 0 0 -26 0 -25 14 -15 15 -14 21 0 21 0 15 14 14
15 0 11 0 10 55 55 55 55 65 0 65 0 0 -20 0 -20 -10 0 -10 0 0 -20 0 -20 -10
0 -10 0 0 -20 0 -20 -10 0 -10 0 0 -20 0 -20 -10 0 -10 0 0 -20 0 -20 -10 0
-10 0 0 -16 0 -15 14 -15 15 -14 15 0 16 0 0 -10 0 -10 20 0 20 0 0 10 0 10
20 0 20 0 0 10 0 10 18 0 18 0 14 20 14 20 16 0 16 0 14 20 14 20 14 0 13 0
89 90 89 90 46 0 45 0 0 10 0 10 36 0 35 0 15 14 14 15 0 15 0 16 -30 0 -30 0
0 10 0 10 150 0 150 0 0 10 0 10 28 0 28 0 14 20 14 20 18 0 18 0 0 10 0 10
-18 0 -18 0 -14 20 -14 20 -28 0 -28 0 0 10 0 10 -150 0 -150 0 0 10 0 10 30
0 30 0 0 16 0 15 -14 15 -15 14 -35 0 -36 0 0 10 0 10 -45 0 -46 0 -89 90 -89
90 -13 0 -14 0 -14 20 -14 20 -16 0 -16 0 -14 20 -14 20 -18 0 -18 0 0 10 0
10 -20 0 -20 0 0 10 0 10 -20 0 -20 0 0 -10z m40 -20 l0 -10 20 0 20 0 0 -10
0 -10 18 0 18 0 14 -20 14 -20 14 0 13 0 16 -16 16 -16 -14 -8 -13 -9 8 -8 9
-8 4 13 5 12 14 0 14 0 85 -85 85 -85 0 -5 0 -5 -20 0 -20 0 0 -10 0 -10 -20
0 -20 0 0 -10 0 -10 20 0 20 0 0 10 0 10 20 0 20 0 0 10 0 10 50 0 50 0 0 -10
0 -10 40 0 40 0 0 -10 0 -10 -20 0 -20 0 0 -10 0 -10 -18 0 -18 0 -14 -20 -14
-20 -28 0 -28 0 0 -10 0 -10 -20 0 -20 0 0 10 0 10 -40 0 -40 0 0 -10 0 -10
-16 0 -15 0 -15 -15 -15 -15 15 -15 15 -15 15 0 16 0 0 -10 0 -10 40 0 40 0 0
10 0 10 20 0 20 0 0 -10 0 -10 28 0 28 0 14 -20 14 -20 18 0 18 0 0 -10 0 -10
20 0 20 0 0 -10 0 -10 -40 0 -40 0 0 -10 0 -10 -50 0 -50 0 0 10 0 10 -20 0
-20 0 0 10 0 10 -20 0 -20 0 0 -10 0 -10 20 0 20 0 0 -10 0 -10 20 0 20 0 0
-5 0 -5 -85 -85 -85 -85 -14 0 -14 0 -5 13 -4 12 -9 -8 -8 -8 13 -9 14 -8 -16
-16 -16 -16 -13 0 -14 0 -14 -20 -14 -20 -18 0 -18 0 0 -10 0 -10 -20 0 -20 0
0 -10 0 -10 -20 0 -20 0 0 10 0 10 -20 0 -20 0 0 20 0 20 10 0 10 0 0 20 0 20
10 0 10 0 0 20 0 20 10 0 10 0 0 20 0 20 10 0 10 0 0 20 0 20 10 0 10 0 0 30
0 30 -75 0 -75 0 -65 -65 -65 -65 0 -15 0 -15 -30 0 -30 0 0 30 0 30 10 0 10
0 0 30 0 30 10 0 10 0 0 20 0 20 30 0 30 0 0 10 0 10 30 0 30 0 0 10 0 10 30
0 30 0 0 10 0 10 -20 0 -20 0 0 40 0 40 20 0 20 0 0 10 0 10 -50 0 -50 0 0 10
0 10 50 0 50 0 0 10 0 10 -20 0 -20 0 0 40 0 40 20 0 20 0 0 10 0 10 -30 0
-30 0 0 10 0 10 -30 0 -30 0 0 10 0 10 -30 0 -30 0 0 20 0 20 -10 0 -10 0 0
30 0 30 -10 0 -10 0 0 30 0 30 30 0 30 0 0 -15 0 -15 65 -65 65 -65 75 0 75 0
0 30 0 30 -10 0 -10 0 0 20 0 20 -10 0 -10 0 0 20 0 20 -10 0 -10 0 0 20 0 20
-10 0 -10 0 0 20 0 20 -10 0 -10 0 0 20 0 20 20 0 20 0 0 10 0 10 20 0 20 0 0
-10z m800 -400 l0 -10 26 0 25 0 15 -15 15 -15 -15 -15 -15 -15 -25 0 -26 0 0
-10 0 -10 -180 0 -180 0 0 10 0 10 -30 0 -30 0 0 10 0 10 -20 0 -20 0 0 -10 0
-10 -40 0 -40 0 0 10 0 10 -20 0 -20 0 0 10 0 10 20 0 20 0 0 10 0 10 40 0 40
0 0 -10 0 -10 20 0 20 0 0 10 0 10 30 0 30 0 0 10 0 10 180 0 180 0 0 -10z"/>
<path d="M320 1194 l0 -5 15 -16 16 -15 6 5 5 6 -15 16 -16 15 -5 0 -6 0 0 -6z"/>
<path d="M360 1134 l0 -5 15 -16 16 -15 6 5 5 6 -15 16 -16 15 -5 0 -6 0 0 -6z"/>
<path d="M420 1130 l0 -10 10 0 10 0 0 10 0 10 -10 0 -10 0 0 -10z"/>
<path d="M460 1130 l0 -10 10 0 10 0 0 10 0 10 -10 0 -10 0 0 -10z"/>
<path d="M400 1064 l0 -15 15 -16 16 -15 7 7 7 8 -12 4 -13 5 0 19 0 19 -10 0
-10 0 0 -16z"/>
<path d="M420 990 l0 -10 10 0 10 0 0 10 0 10 -10 0 -10 0 0 -10z"/>
<path d="M400 950 l0 -10 20 0 20 0 0 -10 0 -10 -20 0 -20 0 0 -10 0 -10 16 0
15 0 15 15 15 15 -15 15 -15 15 -15 0 -16 0 0 -10z"/>
<path d="M280 930 l0 -10 20 0 20 0 0 10 0 10 -20 0 -20 0 0 -10z"/>
<path d="M340 930 l0 -10 20 0 20 0 0 10 0 10 -20 0 -20 0 0 -10z"/>
<path d="M480 930 l0 -10 10 0 10 0 0 10 0 10 -10 0 -10 0 0 -10z"/>
<path d="M520 930 l0 -10 10 0 10 0 0 10 0 10 -10 0 -10 0 0 -10z"/>
<path d="M560 930 l0 -10 10 0 10 0 0 10 0 10 -10 0 -10 0 0 -10z"/>
<path d="M600 930 l0 -10 10 0 10 0 0 10 0 10 -10 0 -10 0 0 -10z"/>
<path d="M460 880 l0 -20 10 0 10 0 0 20 0 20 -10 0 -10 0 0 -20z"/>
<path d="M400 850 l0 -10 20 0 20 0 0 10 0 10 -20 0 -20 0 0 -10z"/>
<path d="M280 830 l0 -10 20 0 20 0 0 10 0 10 -20 0 -20 0 0 -10z"/>
<path d="M340 830 l0 -10 20 0 20 0 0 10 0 10 -20 0 -20 0 0 -10z"/>
<path d="M280 790 l0 -10 20 0 20 0 0 10 0 10 -20 0 -20 0 0 -10z"/>
<path d="M340 790 l0 -10 20 0 20 0 0 10 0 10 -20 0 -20 0 0 -10z"/>
<path d="M400 770 l0 -10 20 0 20 0 0 10 0 10 -20 0 -20 0 0 -10z"/>
<path d="M460 740 l0 -20 10 0 10 0 0 20 0 20 -10 0 -10 0 0 -20z"/>
<path d="M400 710 l0 -10 20 0 20 0 0 -10 0 -10 -20 0 -20 0 0 -10 0 -10 16 0
15 0 15 15 15 15 -15 15 -15 15 -15 0 -16 0 0 -10z"/>
<path d="M280 690 l0 -10 20 0 20 0 0 10 0 10 -20 0 -20 0 0 -10z"/>
<path d="M340 690 l0 -10 20 0 20 0 0 10 0 10 -20 0 -20 0 0 -10z"/>
<path d="M480 690 l0 -10 10 0 10 0 0 10 0 10 -10 0 -10 0 0 -10z"/>
<path d="M520 690 l0 -10 10 0 10 0 0 10 0 10 -10 0 -10 0 0 -10z"/>
<path d="M560 690 l0 -10 10 0 10 0 0 10 0 10 -10 0 -10 0 0 -10z"/>
<path d="M600 690 l0 -10 10 0 10 0 0 10 0 10 -10 0 -10 0 0 -10z"/>
<path d="M420 630 l0 -10 10 0 10 0 0 10 0 10 -10 0 -10 0 0 -10z"/>
<path d="M413 585 l-13 -14 0 -16 0 -15 10 0 10 0 0 20 0 20 10 0 10 0 0 10 0
10 -7 0 -8 -1 -12 -14z"/>
<path d="M371 504 l-13 -15 6 -6 5 -5 16 15 15 16 0 5 0 6 -7 0 -8 -1 -14 -15z"/>
<path d="M420 490 l0 -10 10 0 10 0 0 10 0 10 -10 0 -10 0 0 -10z"/>
<path d="M460 490 l0 -10 10 0 10 0 0 10 0 10 -10 0 -10 0 0 -10z"/>
<path d="M331 444 l-13 -15 6 -6 5 -5 16 15 15 16 0 5 0 6 -7 0 -8 -1 -14 -15z"/>
<path d="M812 824 l-13 -14 15 -15 15 -15 101 0 101 0 15 15 15 15 -15 15 -15
15 -103 0 -103 -1 -13 -15z m88 -14 l0 -10 -10 0 -10 0 0 10 0 10 10 0 10 0 0
-10z m80 0 l0 -10 -10 0 -10 0 0 10 0 10 10 0 10 0 0 -10z"/>
<path d="M1100 830 l0 -10 10 0 10 0 0 10 0 10 -10 0 -10 0 0 -10z"/>
<path d="M1100 790 l0 -10 10 0 10 0 0 10 0 10 -10 0 -10 0 0 -10z"/>
<path d="M0 140 l0 -140 640 0 640 0 0 140 0 140 -640 0 -640 0 0 -140z"/>
</g>
</svg>
