<?xml version="1.0" standalone="no"?>
<!DOCTYPE svg PUBLIC "-//W3C//DTD SVG 20010904//EN"
 "http://www.w3.org/TR/2001/REC-SVG-20010904/DTD/svg10.dtd">
<svg version="1.0" xmlns="http://www.w3.org/2000/svg"
 width="468pt" height="468pt" viewBox="0 0 468 468"
 preserveAspectRatio="xMidYMid meet">
<metadata>
Created by potrace 1.8, written by Peter Selinger 2001-2007
</metadata>
<g transform="translate(0,468) scale(0.365625,-0.365625)"
fill="#000000" stroke="none">
<path d="M0 1255 l0 -25 25 0 25 0 0 -30 0 -30 30 0 30 0 0 -25 0 -25 25 0 25
0 0 -25 0 -25 25 0 25 0 0 -30 0 -30 30 0 30 0 0 -25 0 -25 25 0 25 0 0 -25 0
-25 25 0 25 0 0 25 0 25 30 0 30 0 0 -25 0 -25 25 0 25 0 0 -30 0 -30 -25 0
-25 0 0 -25 0 -25 -30 0 -30 0 0 -25 0 -25 -25 0 -25 0 0 25 0 25 -25 0 -25 0
0 25 0 25 -30 0 -30 0 0 30 0 30 -25 0 -25 0 0 25 0 25 -25 0 -25 0 0 25 0 25
-30 0 -30 0 0 30 0 30 -25 0 -25 0 0 -30 0 -30 25 0 25 0 0 -25 0 -25 -25 0
-25 0 0 -25 0 -25 25 0 25 0 0 25 0 25 30 0 30 0 0 -25 0 -25 25 0 25 0 0 -30
0 -30 -25 0 -25 0 0 -25 0 -25 -30 0 -30 0 0 -25 0 -25 -25 0 -25 0 0 -375 0
-375 640 0 640 0 0 345 0 345 -135 0 -135 0 0 30 0 30 30 0 30 0 0 25 0 25 25
0 25 0 0 25 0 25 25 0 25 0 0 -25 0 -25 30 0 30 0 0 -25 0 -25 25 0 25 0 0 25
0 25 -25 0 -25 0 0 25 0 25 -30 0 -30 0 0 30 0 30 -25 0 -25 0 0 25 0 25 -25
0 -25 0 0 25 0 25 -30 0 -30 0 0 30 0 30 -25 0 -25 0 0 -30 0 -30 -25 0 -25 0
0 30 0 30 -30 0 -30 0 0 25 0 25 30 0 30 0 0 25 0 25 25 0 25 0 0 30 0 30 25
0 25 0 0 -30 0 -30 30 0 30 0 0 -25 0 -25 25 0 25 0 0 -25 0 -25 25 0 25 0 0
-30 0 -30 30 0 30 0 0 -25 0 -25 25 0 25 0 0 25 0 25 -25 0 -25 0 0 30 0 30
-30 0 -30 0 0 25 0 25 30 0 30 0 0 25 0 25 25 0 25 0 0 30 0 30 -25 0 -25 0 0
-30 0 -30 -30 0 -30 0 0 -25 0 -25 -25 0 -25 0 0 25 0 25 -25 0 -25 0 0 30 0
30 -30 0 -30 0 0 25 0 25 -25 0 -25 0 0 -25 0 -25 -25 0 -25 0 0 -30 0 -30
-30 0 -30 0 0 -25 0 -25 -25 0 -25 0 0 25 0 25 -25 0 -25 0 0 30 0 30 -30 0
-30 0 0 25 0 25 -25 0 -25 0 0 -25 0 -25 -25 0 -25 0 0 -30 0 -30 -30 0 -30 0
0 -25 0 -25 -25 0 -25 0 0 25 0 25 -25 0 -25 0 0 30 0 30 -30 0 -30 0 0 25 0
25 -25 0 -25 0 0 -25 0 -25 -25 0 -25 0 0 -30 0 -30 -30 0 -30 0 0 -25 0 -25
-25 0 -25 0 0 25 0 25 -25 0 -25 0 0 30 0 30 -30 0 -30 0 0 25 0 25 -25 0 -25
0 0 -25z m370 -55 l0 -30 30 0 30 0 0 -25 0 -25 25 0 25 0 0 -25 0 -25 25 0
25 0 0 25 0 25 30 0 30 0 0 25 0 25 25 0 25 0 0 30 0 30 25 0 25 0 0 -30 0
-30 30 0 30 0 0 -25 0 -25 25 0 25 0 0 -25 0 -25 25 0 25 0 0 -30 0 -30 30 0
30 0 0 -25 0 -25 25 0 25 0 0 25 0 25 25 0 25 0 0 -25 0 -25 30 0 30 0 0 -25
0 -25 25 0 25 0 0 -30 0 -30 -25 0 -25 0 0 -25 0 -25 -30 0 -30 0 0 -25 0 -25
-25 0 -25 0 0 -30 0 -30 -135 0 -135 0 0 30 0 30 -25 0 -25 0 0 -30 0 -30
-135 0 -135 0 0 30 0 30 30 0 30 0 0 25 0 25 25 0 25 0 0 25 0 25 25 0 25 0 0
30 0 30 -25 0 -25 0 0 25 0 25 -25 0 -25 0 0 25 0 25 -30 0 -30 0 0 -25 0 -25
-25 0 -25 0 0 25 0 25 -25 0 -25 0 0 30 0 30 -30 0 -30 0 0 25 0 25 30 0 30 0
0 25 0 25 25 0 25 0 0 30 0 30 25 0 25 0 0 -30z m-160 -375 l0 -25 30 0 30 0
0 -25 0 -25 25 0 25 0 0 -30 0 -30 -135 0 -135 0 0 30 0 30 30 0 30 0 0 25 0
25 25 0 25 0 0 25 0 25 25 0 25 0 0 -25z"/>
<path d="M320 1040 l0 -30 25 0 25 0 0 30 0 30 -25 0 -25 0 0 -30z"/>
<path d="M530 1040 l0 -30 30 0 30 0 0 -25 0 -25 25 0 25 0 0 -25 0 -25 25 0
25 0 0 25 0 25 30 0 30 0 0 -25 0 -25 25 0 25 0 0 -30 0 -30 -25 0 -25 0 0
-25 0 -25 -30 0 -30 0 0 -25 0 -25 30 0 30 0 0 25 0 25 25 0 25 0 0 25 0 25
25 0 25 0 0 -25 0 -25 30 0 30 0 0 -25 0 -25 25 0 25 0 0 25 0 25 -25 0 -25 0
0 25 0 25 -30 0 -30 0 0 30 0 30 -25 0 -25 0 0 25 0 25 -25 0 -25 0 0 25 0 25
-30 0 -30 0 0 30 0 30 -25 0 -25 0 0 -30 0 -30 -25 0 -25 0 0 30 0 30 -30 0
-30 0 0 -30z m160 -55 l0 -25 -25 0 -25 0 0 25 0 25 25 0 25 0 0 -25z"/>
<path d="M960 935 l0 -25 25 0 25 0 0 25 0 25 -25 0 -25 0 0 -25z"/>
<path d="M530 825 l0 -25 30 0 30 0 0 -25 0 -25 25 0 25 0 0 25 0 25 -25 0
-25 0 0 25 0 25 -30 0 -30 0 0 -25z"/>
</g>
</svg>
