<?xml version="1.0" standalone="no"?>
<!DOCTYPE svg PUBLIC "-//W3C//DTD SVG 20010904//EN"
 "http://www.w3.org/TR/2001/REC-SVG-20010904/DTD/svg10.dtd">
<svg version="1.0" xmlns="http://www.w3.org/2000/svg"
 width="468pt" height="468pt" viewBox="0 0 468 468"
 preserveAspectRatio="xMidYMid meet">
<metadata>
Created by potrace 1.8, written by Peter Selinger 2001-2007
</metadata>
<g transform="translate(0,468) scale(0.365625,-0.365625)"
fill="#000000" stroke="none">
<path d="M880 1265 l0 -15 -15 0 -15 0 0 -10 0 -10 15 0 15 0 0 -30 0 -30 -11
0 -10 0 -15 -14 -14 -15 0 -10 0 -11 10 0 10 0 0 -11 0 -10 -14 -15 -15 -14
-10 0 -11 0 0 -15 0 -15 15 0 15 0 0 -15 0 -15 -15 0 -15 0 0 -10 0 -10 -15 0
-15 0 0 -15 0 -15 -10 0 -10 0 0 -15 0 -15 10 0 10 0 0 -25 0 -25 -10 0 -10 0
0 15 0 15 -15 0 -15 0 0 25 0 25 15 0 15 0 0 15 0 15 -15 0 -15 0 0 10 0 10
-15 0 -15 0 0 -79 0 -79 -12 -6 -13 -6 13 -6 12 -6 0 -14 0 -14 -10 0 -10 0 0
-14 0 -14 13 -6 12 -6 -12 -6 -13 -6 0 -14 0 -14 10 0 10 0 0 -15 0 -15 15 0
15 0 0 -10 0 -10 -15 0 -15 0 0 -15 0 -15 -10 0 -10 0 0 15 0 15 -15 0 -15 0
0 10 0 10 15 0 15 0 0 15 0 15 -15 0 -15 0 0 15 0 15 15 0 15 0 0 10 0 10 -15
0 -15 0 0 15 0 15 15 0 15 0 0 15 0 15 -15 0 -15 0 0 10 0 10 -15 0 -15 0 0
15 0 15 -10 0 -10 0 0 -15 0 -15 -15 0 -15 0 0 15 0 15 15 0 15 0 0 15 0 15
-15 0 -15 0 0 -15 0 -15 -15 0 -15 0 0 15 0 15 15 0 15 0 0 10 0 10 -15 0 -15
0 0 15 0 15 -10 0 -10 0 0 -15 0 -15 -15 0 -15 0 0 15 0 15 15 0 15 0 0 15 0
15 -15 0 -15 0 0 -15 0 -15 -15 0 -15 0 0 15 0 15 15 0 15 0 0 10 0 10 -15 0
-15 0 0 15 0 15 -10 0 -10 0 0 -15 0 -15 -15 0 -15 0 0 15 0 15 15 0 15 0 0
15 0 15 -15 0 -15 0 0 -15 0 -15 -15 0 -15 0 0 15 0 15 15 0 15 0 0 10 0 10
-15 0 -15 0 0 15 0 15 -10 0 -10 0 0 -15 0 -15 -15 0 -15 0 0 15 0 15 15 0 15
0 0 15 0 15 -15 0 -15 0 0 -15 0 -15 -15 0 -15 0 0 15 0 15 15 0 15 0 0 10 0
10 -11 0 -10 0 -15 -14 -14 -15 0 -10 0 -11 10 0 10 0 0 -15 0 -15 15 0 15 0
0 -10 0 -10 -15 0 -15 0 0 -15 0 -15 -10 0 -10 0 0 15 0 15 -15 0 -15 0 0 10
0 10 -11 0 -10 0 -15 -14 -14 -15 0 -10 0 -11 10 0 10 0 0 -15 0 -15 15 0 15
0 0 -10 0 -10 -15 0 -15 0 0 -15 0 -15 -10 0 -10 0 0 15 0 15 -15 0 -15 0 0
10 0 10 -11 0 -10 0 -15 -14 -14 -15 0 -10 0 -11 10 0 10 0 0 15 0 15 15 0 15
0 0 -15 0 -15 -15 0 -15 0 0 -15 0 -15 15 0 15 0 0 15 0 15 15 0 15 0 0 -15 0
-15 -15 0 -15 0 0 -10 0 -10 15 0 15 0 0 -15 0 -15 10 0 10 0 0 15 0 15 15 0
15 0 0 -15 0 -15 -15 0 -15 0 0 -15 0 -15 15 0 15 0 0 15 0 15 15 0 15 0 0
-15 0 -15 -15 0 -15 0 0 -10 0 -10 15 0 15 0 0 -15 0 -15 10 0 10 0 0 15 0 15
15 0 15 0 0 -15 0 -15 -15 0 -15 0 0 -15 0 -15 15 0 15 0 0 15 0 15 15 0 15 0
0 -15 0 -15 -15 0 -15 0 0 -10 0 -10 15 0 15 0 0 -15 0 -15 10 0 10 0 0 15 0
15 15 0 15 0 0 -15 0 -15 -15 0 -15 0 0 -15 0 -15 15 0 15 0 0 15 0 15 15 0
15 0 0 -15 0 -15 -15 0 -15 0 0 -10 0 -10 15 0 15 0 0 -15 0 -15 10 0 10 0 0
15 0 15 15 0 15 0 0 -15 0 -15 -15 0 -15 0 0 -15 0 -15 15 0 15 0 0 15 0 15
15 0 15 0 0 -15 0 -15 -15 0 -15 0 0 -10 0 -10 15 0 15 0 0 -15 0 -15 10 0 10
0 0 15 0 15 15 0 15 0 0 -15 0 -15 -15 0 -15 0 0 -15 0 -15 15 0 15 0 0 15 0
15 15 0 15 0 0 -15 0 -15 -15 0 -15 0 0 -10 0 -10 15 0 15 0 0 -15 0 -15 10 0
10 0 0 15 0 15 15 0 15 0 0 10 0 10 -15 0 -15 0 0 15 0 15 15 0 15 0 0 -15 0
-15 15 0 15 0 0 15 0 15 -15 0 -15 0 0 15 0 15 15 0 15 0 0 -15 0 -15 10 0 10
0 0 15 0 15 15 0 15 0 0 10 0 10 -15 0 -15 0 0 15 0 15 15 0 15 0 0 -15 0 -15
15 0 15 0 0 15 0 15 -15 0 -15 0 0 15 0 15 15 0 15 0 0 10 0 10 -15 0 -15 0 0
30 0 30 15 0 15 0 0 -15 0 -15 10 0 10 0 0 -25 0 -25 -10 0 -10 0 0 -15 0 -15
10 0 10 0 0 -11 0 -10 -14 -15 -15 -14 -10 0 -11 0 0 -15 0 -15 -15 0 -15 0 0
-11 0 -10 -14 -15 -15 -14 -10 0 -11 0 0 -15 0 -15 -15 0 -15 0 0 -15 0 -15
-10 0 -10 0 0 15 0 15 -15 0 -15 0 0 15 0 15 -11 0 -10 0 -15 14 -14 15 0 10
0 11 -15 0 -15 0 0 15 0 15 -11 0 -10 0 -15 14 -14 15 0 10 0 11 -15 0 -15 0
0 15 0 15 -11 0 -10 0 -15 14 -14 15 0 10 0 11 -15 0 -15 0 0 15 0 15 -11 0
-10 0 -15 14 -14 15 0 10 0 11 -15 0 -15 0 0 15 0 15 -11 0 -10 0 -15 14 -14
15 0 10 0 11 -15 0 -15 0 0 15 0 15 -11 0 -10 0 -15 14 -14 15 0 10 0 11 -15
0 -15 0 0 15 0 15 11 0 10 0 15 14 14 15 0 10 0 11 15 0 15 0 0 15 0 15 11 0
10 0 15 14 14 15 0 10 0 11 15 0 15 0 0 15 0 15 11 0 10 0 15 14 14 15 0 10 0
11 15 0 15 0 0 -15 0 -15 11 0 10 0 15 -14 14 -15 0 -10 0 -11 15 0 15 0 0
-15 0 -15 11 0 10 0 15 -14 14 -15 0 -10 0 -11 15 0 15 0 0 -15 0 -15 11 0 10
0 15 -14 14 -15 0 -10 0 -11 15 0 15 0 0 -15 0 -15 11 0 10 0 15 -14 14 -15 0
-10 0 -11 15 0 15 0 0 -15 0 -15 15 0 15 0 0 30 0 30 -15 0 -15 0 0 10 0 10
-15 0 -15 0 0 15 0 15 -10 0 -10 0 0 15 0 15 -15 0 -15 0 0 10 0 10 -15 0 -15
0 0 15 0 15 -10 0 -10 0 0 15 0 15 -15 0 -15 0 0 10 0 10 -15 0 -15 0 0 15 0
15 -10 0 -10 0 0 15 0 15 -15 0 -15 0 0 10 0 10 -15 0 -15 0 0 15 0 15 -10 0
-10 0 0 15 0 15 -15 0 -15 0 0 10 0 10 -11 0 -10 0 -15 -14 -14 -15 0 -10 0
-11 -15 0 -15 0 0 -15 0 -15 -11 0 -10 0 -15 -14 -14 -15 0 -10 0 -11 -15 0
-15 0 0 -15 0 -15 -11 0 -10 0 -15 -14 -14 -15 0 -10 0 -11 -15 0 -15 0 0 -15
0 -15 -11 0 -10 0 -15 -14 -14 -15 0 -10 0 -11 10 0 10 0 0 -225 0 -225 15 0
15 0 0 -15 0 -15 15 0 15 0 0 -11 0 -10 14 -15 15 -14 10 0 11 0 0 -15 0 -15
15 0 15 0 0 -11 0 -10 14 -15 15 -14 10 0 11 0 0 -15 0 -15 15 0 15 0 0 -11 0
-10 14 -15 15 -14 10 0 11 0 0 -15 0 -15 15 0 15 0 0 -11 0 -10 14 -15 15 -14
10 0 11 0 0 -15 0 -15 15 0 15 0 0 -11 0 -10 14 -15 15 -14 10 0 11 0 0 -15 0
-15 15 0 15 0 0 -11 0 -10 14 -15 15 -14 10 0 11 0 0 -15 0 -15 120 0 120 0 0
15 0 15 105 0 105 0 0 -15 0 -15 95 0 95 0 0 225 0 225 -15 0 -15 0 0 15 0 15
-10 0 -10 0 0 15 0 15 -15 0 -15 0 0 10 0 10 -15 0 -15 0 0 15 0 15 -10 0 -10
0 0 15 0 15 -15 0 -15 0 0 10 0 10 -15 0 -15 0 0 175 0 175 -10 0 -10 0 0 25
0 25 -15 0 -15 0 0 30 0 30 -15 0 -15 0 0 25 0 25 -10 0 -10 0 0 54 0 54 13 6
12 6 -12 6 -13 6 0 14 0 14 -15 0 -15 0 0 -15z m30 -170 l0 -25 10 0 10 0 0
-30 0 -30 15 0 15 0 0 -25 0 -25 15 0 15 0 0 -15 0 -15 -95 0 -95 0 0 15 0 15
15 0 15 0 0 25 0 25 10 0 10 0 0 30 0 30 15 0 15 0 0 25 0 25 15 0 15 0 0 -25z
m-540 -15 l0 -10 -10 0 -10 0 0 -15 0 -15 10 0 10 0 0 -15 0 -15 15 0 15 0 0
-10 0 -10 14 0 14 0 5 13 4 12 9 -9 9 -9 -12 -4 -13 -5 0 -14 0 -14 10 0 10 0
0 -15 0 -15 15 0 15 0 0 -10 0 -10 14 0 14 0 5 13 4 12 9 -9 9 -9 -12 -4 -13
-5 0 -14 0 -14 10 0 10 0 0 -15 0 -15 15 0 15 0 0 -10 0 -10 14 0 14 0 6 13 6
12 6 -12 6 -13 14 0 14 0 0 -15 0 -15 -15 0 -15 0 0 -15 0 -15 15 0 15 0 0
-10 0 -10 -15 0 -15 0 0 -15 0 -15 15 0 15 0 0 -15 0 -15 -15 0 -15 0 0 15 0
15 -10 0 -10 0 0 -15 0 -15 -15 0 -15 0 0 -10 0 -10 15 0 15 0 0 -15 0 -15 10
0 10 0 0 15 0 15 15 0 15 0 0 -15 0 -15 15 0 15 0 0 -14 0 -14 13 -5 12 -4 -9
-9 -9 -9 -4 13 -5 12 -14 0 -14 0 0 -10 0 -10 -15 0 -15 0 0 -15 0 -15 -10 0
-10 0 0 15 0 15 -15 0 -15 0 0 10 0 10 -14 0 -14 0 -5 -12 -4 -13 -9 9 -9 9
13 4 12 5 0 14 0 14 -10 0 -10 0 0 15 0 15 -15 0 -15 0 0 10 0 10 -14 0 -14 0
-5 -12 -4 -13 -9 9 -9 9 13 4 12 5 0 14 0 14 -10 0 -10 0 0 15 0 15 -15 0 -15
0 0 10 0 10 -14 0 -14 0 -5 -12 -4 -13 -9 9 -9 9 13 4 12 5 0 14 0 14 -10 0
-10 0 0 15 0 15 -15 0 -15 0 0 10 0 10 -14 0 -14 0 -5 -12 -4 -13 -9 9 -9 9
13 4 12 5 0 14 0 14 -10 0 -10 0 0 15 0 15 -15 0 -15 0 0 10 0 10 -14 0 -14 0
-5 -12 -4 -13 -9 9 -9 9 13 4 12 5 0 14 0 14 15 0 15 0 0 15 0 15 15 0 15 0 0
-15 0 -15 10 0 10 0 0 15 0 15 15 0 15 0 0 10 0 10 -15 0 -15 0 0 15 0 15 15
0 15 0 0 15 0 15 15 0 15 0 0 10 0 10 10 0 10 0 0 -10z m-130 -25 l0 -15 15 0
15 0 0 -14 0 -14 13 -5 12 -4 -9 -9 -9 -9 -4 13 -5 12 -14 0 -14 0 0 15 0 15
-15 0 -15 0 0 15 0 15 15 0 15 0 0 -15z m-130 -160 l0 -15 10 0 10 0 0 -15 0
-15 15 0 15 0 0 -10 0 -10 15 0 15 0 0 -15 0 -15 10 0 10 0 0 -15 0 -15 15 0
15 0 0 -10 0 -10 15 0 15 0 0 -15 0 -15 10 0 10 0 0 -15 0 -15 15 0 15 0 0
-10 0 -10 15 0 15 0 0 -15 0 -15 10 0 10 0 0 -15 0 -15 15 0 15 0 0 -10 0 -10
15 0 15 0 0 -15 0 -15 10 0 10 0 0 -15 0 -15 15 0 15 0 0 -10 0 -10 15 0 15 0
0 -15 0 -15 10 0 10 0 0 -15 0 -15 15 0 15 0 0 -10 0 -10 15 0 15 0 0 -190 0
-190 -15 0 -15 0 0 15 0 15 -15 0 -15 0 0 11 0 10 -14 15 -15 14 -10 0 -11 0
0 15 0 15 -15 0 -15 0 0 11 0 10 -14 15 -15 14 -10 0 -11 0 0 15 0 15 -15 0
-15 0 0 11 0 10 -14 15 -15 14 -10 0 -11 0 0 15 0 15 -15 0 -15 0 0 11 0 10
-14 15 -15 14 -10 0 -11 0 0 15 0 15 -15 0 -15 0 0 11 0 10 -14 15 -15 14 -10
0 -11 0 0 15 0 15 -15 0 -15 0 0 11 0 10 -14 15 -15 14 -10 0 -11 0 0 190 0
190 15 0 15 0 0 -15z m880 -145 l0 -160 10 0 10 0 0 -15 0 -15 15 0 15 0 0
-15 0 -15 11 0 10 0 15 -14 14 -15 0 -10 0 -11 15 0 15 0 0 -15 0 -15 11 0 10
0 15 -14 14 -15 0 -195 0 -196 -65 0 -65 0 0 120 0 120 -11 0 -10 0 -15 14
-14 15 0 10 0 11 -80 0 -80 0 0 -15 0 -15 -15 0 -15 0 0 -10 0 -10 -15 0 -15
0 0 -120 0 -120 -80 0 -80 0 0 200 0 200 15 0 15 0 0 10 0 10 15 0 15 0 0 15
0 15 10 0 10 0 0 15 0 15 15 0 15 0 0 10 0 10 15 0 15 0 0 15 0 15 10 0 10 0
0 15 0 15 15 0 15 0 0 160 0 160 95 0 95 0 0 -160z m-220 60 l0 -40 -10 0 -10
0 0 40 0 40 10 0 10 0 0 -40z m-160 -130 l0 -10 -10 0 -10 0 0 10 0 10 10 0
10 0 0 -10z m0 -160 l0 -10 -10 0 -10 0 0 10 0 10 10 0 10 0 0 -10z m270 -350
l0 -120 -40 0 -40 0 0 110 0 110 15 0 15 0 0 10 0 10 25 0 25 0 0 -120z m80
110 l0 -10 15 0 15 0 0 -110 0 -110 -40 0 -40 0 0 40 0 40 10 0 10 0 0 15 0
15 -10 0 -10 0 0 65 0 65 25 0 25 0 0 -10z"/>
<path d="M880 1025 l0 -15 15 0 15 0 0 15 0 15 -15 0 -15 0 0 -15z"/>
<path d="M850 975 l0 -15 15 0 15 0 0 15 0 15 -15 0 -15 0 0 -15z"/>
<path d="M910 975 l0 -15 10 0 10 0 0 15 0 15 -10 0 -10 0 0 -15z"/>
<path d="M320 1025 l0 -15 11 0 10 0 15 -14 14 -15 0 -10 0 -11 -10 0 -10 0 0
15 0 15 -15 0 -15 0 0 -15 0 -15 -15 0 -15 0 0 -15 0 -15 15 0 15 0 0 -10 0
-10 -11 0 -10 0 -15 14 -14 15 0 10 0 11 -15 0 -15 0 0 -15 0 -15 11 0 10 0
15 -14 14 -15 0 -10 0 -11 15 0 15 0 0 -15 0 -15 11 0 10 0 15 -14 14 -15 0
-10 0 -11 15 0 15 0 0 -15 0 -15 11 0 10 0 15 -14 14 -15 0 -10 0 -11 15 0 15
0 0 -15 0 -15 11 0 10 0 15 -14 14 -15 0 -10 0 -11 15 0 15 0 0 -15 0 -15 14
0 14 0 6 -12 6 -13 6 13 6 12 14 0 14 0 0 15 0 15 -15 0 -15 0 0 -15 0 -15
-10 0 -10 0 0 15 0 15 -15 0 -15 0 0 15 0 15 -11 0 -10 0 -15 14 -14 15 0 10
0 11 10 0 10 0 0 -15 0 -15 15 0 15 0 0 15 0 15 15 0 15 0 0 14 0 14 13 6 12
6 -12 6 -13 6 0 14 0 14 10 0 10 0 0 15 0 15 -10 0 -10 0 0 -15 0 -15 -15 0
-15 0 0 15 0 15 -11 0 -10 0 -15 14 -14 15 0 10 0 11 -15 0 -15 0 0 15 0 15
-11 0 -10 0 -15 14 -14 15 0 10 0 11 -15 0 -15 0 0 15 0 15 -11 0 -10 0 -15
14 -14 15 0 10 0 11 -15 0 -15 0 0 -15z m30 -80 l0 -15 -15 0 -15 0 0 15 0 15
15 0 15 0 0 -15z m50 0 l0 -15 11 0 10 0 15 -14 14 -15 0 -10 0 -11 15 0 15 0
0 -15 0 -15 11 0 10 0 15 -14 14 -15 0 -10 0 -11 15 0 15 0 0 -15 0 -15 15 0
15 0 0 -10 0 -10 -15 0 -15 0 0 -15 0 -15 -15 0 -15 0 0 15 0 15 15 0 15 0 0
10 0 10 -15 0 -15 0 0 15 0 15 -10 0 -10 0 0 -15 0 -15 -15 0 -15 0 0 -10 0
-10 15 0 15 0 0 -15 0 -15 -15 0 -15 0 0 15 0 15 -11 0 -10 0 -15 14 -14 15 0
10 0 11 -15 0 -15 0 0 15 0 15 -11 0 -10 0 -15 14 -14 15 0 10 0 11 -15 0 -15
0 0 15 0 15 11 0 10 0 15 14 14 15 0 10 0 11 15 0 15 0 0 -15z m130 -185 l0
-10 -10 0 -10 0 0 10 0 10 10 0 10 0 0 -10z"/>
<path d="M363 915 l-13 -14 0 -11 0 -10 10 0 10 0 0 -15 0 -15 15 0 15 0 0
-10 0 -10 15 0 15 0 0 -15 0 -15 10 0 10 0 0 -15 0 -15 15 0 15 0 0 15 0 15
15 0 15 0 0 15 0 15 -15 0 -15 0 0 10 0 10 -15 0 -15 0 0 15 0 15 -10 0 -10 0
0 15 0 15 -15 0 -15 0 0 10 0 10 -12 0 -13 -1 -12 -14z m37 -20 l0 -15 15 0
15 0 0 -11 0 -10 14 -15 15 -14 10 0 11 0 0 -15 0 -15 -15 0 -15 0 0 11 0 10
-14 15 -15 14 -10 0 -11 0 0 15 0 15 -15 0 -15 0 0 15 0 15 15 0 15 0 0 -15z"/>
<path d="M190 640 l0 -80 10 0 10 0 0 -15 0 -15 15 0 15 0 0 -10 0 -10 15 0
15 0 0 -15 0 -15 10 0 10 0 0 80 0 80 -10 0 -10 0 0 25 0 25 -15 0 -15 0 0 15
0 15 -25 0 -25 0 0 -80z m80 -40 l0 -40 -15 0 -15 0 0 40 0 40 15 0 15 0 0
-40z"/>
<path d="M370 450 l0 -80 15 0 15 0 0 -10 0 -10 15 0 15 0 0 -15 0 -15 10 0
10 0 0 -15 0 -15 15 0 15 0 0 80 0 80 -15 0 -15 0 0 -40 0 -40 -10 0 -10 0 0
40 0 40 10 0 10 0 0 26 0 25 -14 15 -15 14 -25 0 -26 0 0 -80z"/>
<path d="M850 865 l0 -15 -10 0 -10 0 0 -65 0 -65 65 0 65 0 0 65 0 65 -15 0
-15 0 0 15 0 15 -40 0 -40 0 0 -15z m60 -55 l0 -40 -30 0 -30 0 0 40 0 40 30
0 30 0 0 -40z"/>
<path d="M880 560 l0 -30 -25 0 -25 0 0 -10 0 -10 25 0 25 0 0 -55 0 -55 15 0
15 0 0 55 0 55 25 0 25 0 0 10 0 10 -25 0 -25 0 0 30 0 30 -15 0 -15 0 0 -30z"/>
<path d="M240 1105 l0 -15 14 0 14 0 5 -12 4 -13 9 9 9 9 -12 4 -13 5 0 14 0
14 -15 0 -15 0 0 -15z"/>
<path d="M800 1105 l0 -15 -11 0 -10 0 -15 -14 -14 -15 0 -10 0 -11 -15 0 -15
0 0 -15 0 -15 14 0 14 0 6 -12 6 -13 6 13 6 12 14 0 14 0 0 15 0 15 -15 0 -15
0 0 15 0 15 15 0 15 0 0 10 0 10 15 0 15 0 0 15 0 15 -15 0 -15 0 0 -15z m-30
-80 l0 -15 -10 0 -10 0 0 15 0 15 10 0 10 0 0 -15z"/>
<path d="M160 1025 l0 -15 14 0 14 0 5 -12 4 -13 9 9 9 9 -12 4 -13 5 0 14 0
14 -15 0 -15 0 0 -15z"/>
<path d="M670 680 l0 -10 10 0 10 0 0 10 0 10 -10 0 -10 0 0 -10z"/>
</g>
</svg>
