<?xml version="1.0" standalone="no"?>
<!DOCTYPE svg PUBLIC "-//W3C//DTD SVG 20010904//EN"
 "http://www.w3.org/TR/2001/REC-SVG-20010904/DTD/svg10.dtd">
<svg version="1.0" xmlns="http://www.w3.org/2000/svg"
 width="468pt" height="468pt" viewBox="0 0 468 468"
 preserveAspectRatio="xMidYMid meet">
<metadata>
Created by potrace 1.8, written by Peter Selinger 2001-2007
</metadata>
<g transform="translate(0,468) scale(0.365625,-0.365625)"
fill="#000000" stroke="none">
<path d="M0 1274 l0 -7 22 -18 21 -19 -8 -8 -8 -7 -4 13 -5 12 -9 0 -9 0 0
-26 0 -27 22 -18 21 -19 -8 -8 -8 -7 -4 13 -5 12 -9 0 -9 0 0 -99 0 -99 13 -6
12 -6 -13 -6 -12 -6 0 -28 0 -28 13 -6 12 -6 -13 -6 -12 -6 0 -28 0 -28 13 -6
12 -6 -13 -6 -12 -6 0 -78 0 -78 13 -6 12 -6 -12 -6 -13 -6 0 -28 0 -28 13 -6
12 -6 -12 -6 -13 -6 0 -28 0 -28 13 -6 12 -6 -13 -6 -12 -6 0 -28 0 -28 13 -6
12 -6 -13 -6 -12 -6 0 -105 0 -106 22 -18 21 -19 -8 -8 -8 -7 -4 13 -5 12 -9
0 -9 0 0 -26 0 -27 22 -18 21 -19 -8 -8 -8 -7 -4 13 -5 12 -9 0 -9 0 0 -20 0
-20 29 0 29 0 6 13 6 12 6 -12 6 -13 28 0 28 0 6 13 6 12 6 -12 6 -13 79 0 79
0 0 9 0 9 -12 5 -13 4 7 8 8 8 19 -21 18 -22 27 0 26 0 0 9 0 9 -12 5 -13 4 7
8 8 8 19 -21 18 -22 46 0 45 0 6 13 6 12 6 -12 6 -13 28 0 28 0 6 13 6 12 6
-12 6 -13 28 0 28 0 6 13 6 12 6 -12 6 -13 28 0 28 0 6 13 6 12 6 -12 6 -13
108 0 108 0 6 13 6 12 6 -12 6 -13 78 0 78 0 6 13 6 12 6 -12 6 -13 25 0 24 0
15 14 14 15 0 25 0 26 -9 0 -9 0 -5 -13 -4 -12 -8 7 -8 8 21 19 22 18 0 116 0
115 -12 6 -13 6 13 6 12 6 0 28 0 28 -12 6 -13 6 12 6 13 6 0 28 0 28 -12 6
-13 6 13 6 12 6 0 28 0 28 -12 6 -13 6 12 6 13 6 0 78 0 78 -12 6 -13 6 13 6
12 6 0 28 0 28 -12 6 -13 6 12 6 13 6 0 28 0 28 -12 6 -13 6 12 6 13 6 0 89 0
89 -9 0 -9 0 -5 -12 -4 -13 -8 7 -8 8 21 19 22 18 0 27 0 26 -9 0 -9 0 -5 -12
-4 -13 -8 7 -8 8 21 19 22 18 0 27 0 26 -9 0 -9 0 -6 -12 -6 -13 -6 13 -6 12
-28 0 -28 0 -6 -12 -6 -13 -6 13 -6 12 -178 0 -178 0 -6 -12 -6 -13 -6 13 -6
12 -28 0 -28 0 -6 -12 -6 -13 -6 13 -6 12 -28 0 -28 0 -6 -12 -6 -13 -6 13 -6
12 -28 0 -28 0 -6 -12 -6 -13 -6 13 -6 12 -35 0 -36 0 -18 -22 -19 -21 -8 8
-7 8 13 4 12 5 0 9 0 9 -26 0 -27 0 -18 -22 -19 -21 -8 8 -7 8 13 4 12 5 0 9
0 9 -26 0 -27 0 -18 -22 -19 -21 -8 8 -7 8 13 4 12 5 0 9 0 9 -69 0 -69 0 -6
-12 -6 -13 -6 13 -6 12 -28 0 -28 0 -6 -12 -6 -13 -6 13 -6 12 -19 0 -19 0 0
-6z m107 -29 l15 -16 -5 -6 -6 -5 -16 15 -15 16 0 5 0 6 6 0 5 0 16 -15z m73
5 l0 -10 -10 0 -10 0 0 10 0 10 10 0 10 0 0 -10z m420 4 l0 -5 -15 -16 -16
-15 -5 5 -6 6 13 15 14 15 8 1 7 0 0 -6z m80 0 l0 -5 -15 -16 -16 -15 -5 5 -6
6 13 15 14 15 8 1 7 0 0 -6z m80 0 l0 -5 -15 -16 -16 -15 -5 5 -6 6 13 15 14
15 8 1 7 0 0 -6z m467 -9 l15 -16 -5 -6 -6 -5 -16 15 -15 16 0 5 0 6 6 0 5 0
16 -15z m-900 -20 l15 -16 -5 -6 -6 -5 -16 15 -15 16 0 5 0 6 6 0 5 0 16 -15z
m80 0 l15 -16 -5 -6 -6 -5 -16 15 -15 16 0 5 0 6 6 0 5 0 16 -15z m73 5 l0
-10 -10 0 -10 0 0 10 0 10 10 0 10 0 0 -10z m680 0 l0 -10 -10 0 -10 0 0 10 0
10 10 0 10 0 0 -10z m-1080 -16 l0 -5 -15 -16 -16 -15 -5 5 -6 6 13 15 14 15
8 1 7 0 0 -6z m80 0 l0 -5 -15 -16 -16 -15 -5 5 -6 6 13 15 14 15 8 1 7 0 0
-6z m100 -4 l0 -10 -10 0 -10 0 0 10 0 10 10 0 10 0 0 -10z m360 0 l0 -10 -10
0 -10 0 0 10 0 10 10 0 10 0 0 -10z m80 0 l0 -10 -10 0 -10 0 0 10 0 10 10 0
10 0 0 -10z m500 4 l0 -5 -15 -16 -16 -15 -5 5 -6 6 13 15 14 15 8 1 7 0 0 -6z
m-900 -20 l0 -5 -15 -16 -16 -15 -5 5 -6 6 13 15 14 15 8 1 7 0 0 -6z m80 0
l0 -5 -15 -16 -16 -15 -5 5 -6 6 13 15 14 15 8 1 7 0 0 -6z m80 0 l0 -5 -15
-16 -16 -15 -5 5 -6 6 13 15 14 15 8 1 7 0 0 -6z m527 -9 l15 -16 -5 -6 -6 -5
-16 15 -15 16 0 5 0 6 6 0 5 0 16 -15z m-880 -20 l15 -16 -5 -6 -6 -5 -16 15
-15 16 0 5 0 6 6 0 5 0 16 -15z m813 5 l0 -10 -10 0 -10 0 0 10 0 10 10 0 10
0 0 -10z m307 -5 l15 -16 -5 -6 -6 -5 -16 15 -15 16 0 5 0 6 6 0 5 0 16 -15z
m-900 -20 l15 -16 -5 -6 -6 -5 -16 15 -15 16 0 5 0 6 6 0 5 0 16 -15z m80 0
l15 -16 -5 -6 -6 -5 -16 15 -15 16 0 5 0 6 6 0 5 0 16 -15z m473 9 l0 -5 -15
-16 -16 -15 -5 5 -6 6 13 15 14 15 8 1 7 0 0 -6z m80 0 l0 -5 -15 -16 -16 -15
-5 5 -6 6 13 15 14 15 8 1 7 0 0 -6z m80 0 l0 -5 -15 -16 -16 -15 -5 5 -6 6
13 15 14 15 8 1 7 0 0 -6z m-960 -20 l0 -5 -15 -16 -16 -15 -5 5 -6 6 13 15
14 15 8 1 7 0 0 -6z m1120 -4 l0 -10 -10 0 -10 0 0 10 0 10 10 0 10 0 0 -10z
m-820 -20 l0 -10 -10 0 -10 0 0 10 0 10 10 0 10 0 0 -10z m447 -5 l15 -16 -5
-6 -6 -5 -16 15 -15 16 0 5 0 6 6 0 5 0 16 -15z m80 0 l15 -16 -5 -6 -6 -5
-16 15 -15 16 0 5 0 6 6 0 5 0 16 -15z m80 0 l15 -16 -5 -6 -6 -5 -16 15 -15
16 0 5 0 6 6 0 5 0 16 -15z m80 0 l15 -16 -5 -6 -6 -5 -16 15 -15 16 0 5 0 6
6 0 5 0 16 -15z m-527 -15 l0 -10 -10 0 -10 0 0 10 0 10 10 0 10 0 0 -10z
m-40 -16 l0 -5 -15 -16 -16 -15 -5 5 -6 6 13 15 14 15 8 1 7 0 0 -6z m80 0 l0
-5 -15 -16 -16 -15 -5 5 -6 6 13 15 14 15 8 1 7 0 0 -6z m220 -4 l0 -10 -10 0
-10 0 0 10 0 10 10 0 10 0 0 -10z m80 4 l0 -5 -15 -16 -16 -15 -5 5 -6 6 13
15 14 15 8 1 7 0 0 -6z m80 0 l0 -5 -15 -16 -16 -15 -5 5 -6 6 13 15 14 15 8
1 7 0 0 -6z m80 0 l0 -5 -15 -16 -16 -15 -5 5 -6 6 13 15 14 15 8 1 7 0 0 -6z
m-400 -24 l0 -10 -10 0 -10 0 0 10 0 10 10 0 10 0 0 -10z m460 0 l0 -10 -10 0
-10 0 0 10 0 10 10 0 10 0 0 -10z m-573 -25 l15 -16 -5 -6 -6 -5 -16 15 -15
16 0 5 0 6 6 0 5 0 16 -15z m80 0 l15 -16 -5 -6 -6 -5 -16 15 -15 16 0 5 0 6
6 0 5 0 16 -15z m80 0 l15 -16 -5 -6 -6 -5 -16 15 -15 16 0 5 0 6 6 0 5 0 16
-15z m140 0 l15 -16 -5 -6 -6 -5 -16 15 -15 16 0 5 0 6 6 0 5 0 16 -15z m80 0
l15 -16 -5 -6 -6 -5 -16 15 -15 16 0 5 0 6 6 0 5 0 16 -15z m80 0 l15 -16 -5
-6 -6 -5 -16 15 -15 16 0 5 0 6 6 0 5 0 16 -15z m80 0 l15 -16 -5 -6 -6 -5
-16 15 -15 16 0 5 0 6 6 0 5 0 16 -15z m-607 -15 l0 -10 -10 0 -10 0 0 10 0
10 10 0 10 0 0 -10z m-413 -25 l15 -16 -5 -6 -6 -5 -16 15 -15 16 0 5 0 6 6 0
5 0 16 -15z m453 9 l0 -5 -15 -16 -16 -15 -5 5 -6 6 13 15 14 15 8 1 7 0 0 -6z
m80 0 l0 -5 -15 -16 -16 -15 -5 5 -6 6 13 15 14 15 8 1 7 0 0 -6z m80 0 l0 -5
-15 -16 -16 -15 -5 5 -6 6 13 15 14 15 8 1 7 0 0 -6z m220 0 l0 -5 -15 -16
-16 -15 -5 5 -6 6 13 15 14 15 8 1 7 0 0 -6z m80 0 l0 -5 -15 -16 -16 -15 -5
5 -6 6 13 15 14 15 8 1 7 0 0 -6z m80 0 l0 -5 -15 -16 -16 -15 -5 5 -6 6 13
15 14 15 8 1 7 0 0 -6z m-740 -24 l0 -10 -10 0 -10 0 0 10 0 10 10 0 10 0 0
-10z m420 0 l0 -10 -10 0 -10 0 0 10 0 10 10 0 10 0 0 -10z m540 0 l0 -10 -10
0 -10 0 0 10 0 10 10 0 10 0 0 -10z m-1160 -16 l0 -5 -15 -16 -16 -15 -5 5 -6
6 13 15 14 15 8 1 7 0 0 -6z m167 -9 l15 -16 -5 -6 -6 -5 -16 15 -15 16 0 5 0
6 6 0 5 0 16 -15z m80 0 l15 -16 -5 -6 -6 -5 -16 15 -15 16 0 5 0 6 6 0 5 0
16 -15z m180 0 l15 -16 -5 -6 -6 -5 -16 15 -15 16 0 5 0 6 6 0 5 0 16 -15z
m80 0 l15 -16 -5 -6 -6 -5 -16 15 -15 16 0 5 0 6 6 0 5 0 16 -15z m80 0 l15
-16 -5 -6 -6 -5 -16 15 -15 16 0 5 0 6 6 0 5 0 16 -15z m220 0 l15 -16 -5 -6
-6 -5 -16 15 -15 16 0 5 0 6 6 0 5 0 16 -15z m73 5 l0 -10 -10 0 -10 0 0 10 0
10 10 0 10 0 0 -10z m240 4 l0 -5 -15 -16 -16 -15 -5 5 -6 6 13 15 14 15 8 1
7 0 0 -6z m-1173 -49 l15 -16 -5 -6 -6 -5 -16 15 -15 16 0 5 0 6 6 0 5 0 16
-15z m80 0 l15 -16 -5 -6 -6 -5 -16 15 -15 16 0 5 0 6 6 0 5 0 16 -15z m113 5
l0 -10 -10 0 -10 0 0 10 0 10 10 0 10 0 0 -10z m80 4 l0 -5 -15 -16 -16 -15
-5 5 -6 6 13 15 14 15 8 1 7 0 0 -6z m260 -4 l0 -10 -10 0 -10 0 0 10 0 10 10
0 10 0 0 -10z m80 0 l0 -10 -10 0 -10 0 0 10 0 10 10 0 10 0 0 -10z m587 -5
l15 -16 -5 -6 -6 -5 -16 15 -15 16 0 5 0 6 6 0 5 0 16 -15z m-867 -15 l0 -10
-10 0 -10 0 0 10 0 10 10 0 10 0 0 -10z m800 0 l0 -10 -10 0 -10 0 0 10 0 10
10 0 10 0 0 -10z m-1080 -16 l0 -5 -15 -16 -16 -15 -5 5 -6 6 13 15 14 15 8 1
7 0 0 -6z m167 -9 l15 -16 -5 -6 -6 -5 -16 15 -15 16 0 5 0 6 6 0 5 0 16 -15z
m80 0 l15 -16 -5 -6 -6 -5 -16 15 -15 16 0 5 0 6 6 0 5 0 16 -15z m873 9 l0
-5 -15 -16 -16 -15 -5 5 -6 6 13 15 14 15 8 1 7 0 0 -6z m-273 -29 l15 -16 -5
-6 -6 -5 -16 15 -15 16 0 5 0 6 6 0 5 0 16 -15z m-900 -20 l15 -16 -5 -6 -6
-5 -16 15 -15 16 0 5 0 6 6 0 5 0 16 -15z m73 5 l0 -10 -10 0 -10 0 0 10 0 10
10 0 10 0 0 -10z m200 0 l0 -10 -10 0 -10 0 0 10 0 10 10 0 10 0 0 -10z m200
4 l0 -5 -15 -16 -16 -15 -5 5 -6 6 13 15 14 15 8 1 7 0 0 -6z m80 0 l0 -5 -15
-16 -16 -15 -5 5 -6 6 13 15 14 15 8 1 7 0 0 -6z m280 -4 l0 -10 -10 0 -10 0
0 10 0 10 10 0 10 0 0 -10z m287 -5 l15 -16 -5 -6 -6 -5 -16 15 -15 16 0 5 0
6 6 0 5 0 16 -15z m80 0 l15 -16 -5 -6 -6 -5 -16 15 -15 16 0 5 0 6 6 0 5 0
16 -15z m-587 -15 l0 -10 -10 0 -10 0 0 10 0 10 10 0 10 0 0 -10z m180 4 l0
-5 -15 -16 -16 -15 -5 5 -6 6 13 15 14 15 8 1 7 0 0 -6z m80 0 l0 -5 -15 -16
-16 -15 -5 5 -6 6 13 15 14 15 8 1 7 0 0 -6z m-820 -20 l0 -5 -15 -16 -16 -15
-5 5 -6 6 13 15 14 15 8 1 7 0 0 -6z m367 -9 l15 -16 -5 -6 -6 -5 -16 15 -15
16 0 5 0 6 6 0 5 0 16 -15z m80 0 l15 -16 -5 -6 -6 -5 -16 15 -15 16 0 5 0 6
6 0 5 0 16 -15z m80 0 l15 -16 -5 -6 -6 -5 -16 15 -15 16 0 5 0 6 6 0 5 0 16
-15z m80 0 l15 -16 -5 -6 -6 -5 -16 15 -15 16 0 5 0 6 6 0 5 0 16 -15z m273 5
l0 -10 -10 0 -10 0 0 10 0 10 10 0 10 0 0 -10z m240 4 l0 -5 -15 -16 -16 -15
-5 5 -6 6 13 15 14 15 8 1 7 0 0 -6z m-353 -29 l15 -16 -5 -6 -6 -5 -16 15
-15 16 0 5 0 6 6 0 5 0 16 -15z m80 0 l15 -16 -5 -6 -6 -5 -16 15 -15 16 0 5
0 6 6 0 5 0 16 -15z m-907 -15 l0 -10 -10 0 -10 0 0 10 0 10 10 0 10 0 0 -10z
m400 4 l0 -5 -15 -16 -16 -15 -5 5 -6 6 13 15 14 15 8 1 7 0 0 -6z m80 0 l0
-5 -15 -16 -16 -15 -5 5 -6 6 13 15 14 15 8 1 7 0 0 -6z m80 0 l0 -5 -15 -16
-16 -15 -5 5 -6 6 13 15 14 15 8 1 7 0 0 -6z m80 0 l0 -5 -15 -16 -16 -15 -5
5 -6 6 13 15 14 15 8 1 7 0 0 -6z m567 -9 l15 -16 -5 -6 -6 -5 -16 15 -15 16
0 5 0 6 6 0 5 0 16 -15z m-507 -15 l0 -10 -10 0 -10 0 0 10 0 10 10 0 10 0 0
-10z m100 0 l0 -10 -10 0 -10 0 0 10 0 10 10 0 10 0 0 -10z m80 4 l0 -5 -15
-16 -16 -15 -5 5 -6 6 13 15 14 15 8 1 7 0 0 -6z m80 0 l0 -5 -15 -16 -16 -15
-5 5 -6 6 13 15 14 15 8 1 7 0 0 -6z m-533 -29 l15 -16 -5 -6 -6 -5 -16 15
-15 16 0 5 0 6 6 0 5 0 16 -15z m80 0 l15 -16 -5 -6 -6 -5 -16 15 -15 16 0 5
0 6 6 0 5 0 16 -15z m80 0 l15 -16 -5 -6 -6 -5 -16 15 -15 16 0 5 0 6 6 0 5 0
16 -15z m80 0 l15 -16 -5 -6 -6 -5 -16 15 -15 16 0 5 0 6 6 0 5 0 16 -15z
m-467 -15 l0 -10 -10 0 -10 0 0 10 0 10 10 0 10 0 0 -10z m627 -5 l15 -16 -5
-6 -6 -5 -16 15 -15 16 0 5 0 6 6 0 5 0 16 -15z m73 5 l0 -10 -10 0 -10 0 0
10 0 10 10 0 10 0 0 -10z m-740 -16 l0 -5 -15 -16 -16 -15 -5 5 -6 6 13 15 14
15 8 1 7 0 0 -6z m80 0 l0 -5 -15 -16 -16 -15 -5 5 -6 6 13 15 14 15 8 1 7 0
0 -6z m160 0 l0 -5 -15 -16 -16 -15 -5 5 -6 6 13 15 14 15 8 1 7 0 0 -6z m80
0 l0 -5 -15 -16 -16 -15 -5 5 -6 6 13 15 14 15 8 1 7 0 0 -6z m80 0 l0 -5 -15
-16 -16 -15 -5 5 -6 6 13 15 14 15 8 1 7 0 0 -6z m80 0 l0 -5 -15 -16 -16 -15
-5 5 -6 6 13 15 14 15 8 1 7 0 0 -6z m60 -24 l0 -10 -10 0 -10 0 0 10 0 10 10
0 10 0 0 -10z m427 -5 l15 -16 -5 -6 -6 -5 -16 15 -15 16 0 5 0 6 6 0 5 0 16
-15z m80 0 l15 -16 -5 -6 -6 -5 -16 15 -15 16 0 5 0 6 6 0 5 0 16 -15z m-1020
-20 l15 -16 -5 -6 -6 -5 -16 15 -15 16 0 5 0 6 6 0 5 0 16 -15z m73 5 l0 -10
-10 0 -10 0 0 10 0 10 10 0 10 0 0 -10z m167 -5 l15 -16 -5 -6 -6 -5 -16 15
-15 16 0 5 0 6 6 0 5 0 16 -15z m80 0 l15 -16 -5 -6 -6 -5 -16 15 -15 16 0 5
0 6 6 0 5 0 16 -15z m80 0 l15 -16 -5 -6 -6 -5 -16 15 -15 16 0 5 0 6 6 0 5 0
16 -15z m80 0 l15 -16 -5 -6 -6 -5 -16 15 -15 16 0 5 0 6 6 0 5 0 16 -15z
m393 5 l0 -10 -10 0 -10 0 0 10 0 10 10 0 10 0 0 -10z m-940 -20 l0 -10 -10 0
-10 0 0 10 0 10 10 0 10 0 0 -10z m900 4 l0 -5 -15 -16 -16 -15 -5 5 -6 6 13
15 14 15 8 1 7 0 0 -6z m80 0 l0 -5 -15 -16 -16 -15 -5 5 -6 6 13 15 14 15 8
1 7 0 0 -6z m80 0 l0 -5 -15 -16 -16 -15 -5 5 -6 6 13 15 14 15 8 1 7 0 0 -6z
m-1020 -20 l0 -5 -15 -16 -16 -15 -5 5 -6 6 13 15 14 15 8 1 7 0 0 -6z m80 0
l0 -5 -15 -16 -16 -15 -5 5 -6 6 13 15 14 15 8 1 7 0 0 -6z m160 -4 l0 -10
-10 0 -10 0 0 10 0 10 10 0 10 0 0 -10z m80 4 l0 -5 -15 -16 -16 -15 -5 5 -6
6 13 15 14 15 8 1 7 0 0 -6z m80 0 l0 -5 -15 -16 -16 -15 -5 5 -6 6 13 15 14
15 8 1 7 0 0 -6z m80 0 l0 -5 -15 -16 -16 -15 -5 5 -6 6 13 15 14 15 8 1 7 0
0 -6z m-633 -29 l15 -16 -5 -6 -6 -5 -16 15 -15 16 0 5 0 6 6 0 5 0 16 -15z
m1040 0 l15 -16 -5 -6 -6 -5 -16 15 -15 16 0 5 0 6 6 0 5 0 16 -15z m80 0 l15
-16 -5 -6 -6 -5 -16 15 -15 16 0 5 0 6 6 0 5 0 16 -15z m80 0 l15 -16 -5 -6
-6 -5 -16 15 -15 16 0 5 0 6 6 0 5 0 16 -15z m-1027 -15 l0 -10 -10 0 -10 0 0
10 0 10 10 0 10 0 0 -10z m247 -5 l15 -16 -5 -6 -6 -5 -16 15 -15 16 0 5 0 6
6 0 5 0 16 -15z m80 0 l15 -16 -5 -6 -6 -5 -16 15 -15 16 0 5 0 6 6 0 5 0 16
-15z m80 0 l15 -16 -5 -6 -6 -5 -16 15 -15 16 0 5 0 6 6 0 5 0 16 -15z m73 5
l0 -10 -10 0 -10 0 0 10 0 10 10 0 10 0 0 -10z m320 0 l0 -10 -10 0 -10 0 0
10 0 10 10 0 10 0 0 -10z m-180 -20 l0 -10 -10 0 -10 0 0 10 0 10 10 0 10 0 0
-10z m220 4 l0 -5 -15 -16 -16 -15 -5 5 -6 6 13 15 14 15 8 1 7 0 0 -6z m80 0
l0 -5 -15 -16 -16 -15 -5 5 -6 6 13 15 14 15 8 1 7 0 0 -6z m80 0 l0 -5 -15
-16 -16 -15 -5 5 -6 6 13 15 14 15 8 1 7 0 0 -6z m-700 -24 l0 -10 -10 0 -10
0 0 10 0 10 10 0 10 0 0 -10z m80 0 l0 -10 -10 0 -10 0 0 10 0 10 10 0 10 0 0
-10z m200 4 l0 -5 -15 -16 -16 -15 -5 5 -6 6 13 15 14 15 8 1 7 0 0 -6z m80 0
l0 -5 -15 -16 -16 -15 -5 5 -6 6 13 15 14 15 8 1 7 0 0 -6z m-833 -29 l15 -16
-5 -6 -6 -5 -16 15 -15 16 0 5 0 6 6 0 5 0 16 -15z m960 0 l15 -16 -5 -6 -6
-5 -16 15 -15 16 0 5 0 6 6 0 5 0 16 -15z m80 0 l15 -16 -5 -6 -6 -5 -16 15
-15 16 0 5 0 6 6 0 5 0 16 -15z m80 0 l15 -16 -5 -6 -6 -5 -16 15 -15 16 0 5
0 6 6 0 5 0 16 -15z m80 0 l15 -16 -5 -6 -6 -5 -16 15 -15 16 0 5 0 6 6 0 5 0
16 -15z m-887 -15 l0 -10 -10 0 -10 0 0 10 0 10 10 0 10 0 0 -10z m387 -5 l15
-16 -5 -6 -6 -5 -16 15 -15 16 0 5 0 6 6 0 5 0 16 -15z m80 0 l15 -16 -5 -6
-6 -5 -16 15 -15 16 0 5 0 6 6 0 5 0 16 -15z m73 5 l0 -10 -10 0 -10 0 0 10 0
10 10 0 10 0 0 -10z m-573 -25 l15 -16 -5 -6 -6 -5 -16 15 -15 16 0 5 0 6 6 0
5 0 16 -15z m80 0 l15 -16 -5 -6 -6 -5 -16 15 -15 16 0 5 0 6 6 0 5 0 16 -15z
m653 9 l0 -5 -15 -16 -16 -15 -5 5 -6 6 13 15 14 15 8 1 7 0 0 -6z m80 0 l0
-5 -15 -16 -16 -15 -5 5 -6 6 13 15 14 15 8 1 7 0 0 -6z m80 0 l0 -5 -15 -16
-16 -15 -5 5 -6 6 13 15 14 15 8 1 7 0 0 -6z m-960 -24 l0 -10 -10 0 -10 0 0
10 0 10 10 0 10 0 0 -10z m460 4 l0 -5 -15 -16 -16 -15 -5 5 -6 6 13 15 14 15
8 1 7 0 0 -6z m80 0 l0 -5 -15 -16 -16 -15 -5 5 -6 6 13 15 14 15 8 1 7 0 0
-6z m80 0 l0 -5 -15 -16 -16 -15 -5 5 -6 6 13 15 14 15 8 1 7 0 0 -6z m-840
-24 l0 -10 -10 0 -10 0 0 10 0 10 10 0 10 0 0 -10z m180 4 l0 -5 -15 -16 -16
-15 -5 5 -6 6 13 15 14 15 8 1 7 0 0 -6z m80 0 l0 -5 -15 -16 -16 -15 -5 5 -6
6 13 15 14 15 8 1 7 0 0 -6z m80 0 l0 -5 -15 -16 -16 -15 -5 5 -6 6 13 15 14
15 8 1 7 0 0 -6z m80 0 l0 -5 -15 -16 -16 -15 -5 5 -6 6 13 15 14 15 8 1 7 0
0 -6z m547 -9 l15 -16 -5 -6 -6 -5 -16 15 -15 16 0 5 0 6 6 0 5 0 16 -15z m80
0 l15 -16 -5 -6 -6 -5 -16 15 -15 16 0 5 0 6 6 0 5 0 16 -15z m80 0 l15 -16
-5 -6 -6 -5 -16 15 -15 16 0 5 0 6 6 0 5 0 16 -15z m80 0 l15 -16 -5 -6 -6 -5
-16 15 -15 16 0 5 0 6 6 0 5 0 16 -15z m-500 -20 l15 -16 -5 -6 -6 -5 -16 15
-15 16 0 5 0 6 6 0 5 0 16 -15z m80 0 l15 -16 -5 -6 -6 -5 -16 15 -15 16 0 5
0 6 6 0 5 0 16 -15z m-580 -20 l15 -16 -5 -6 -6 -5 -16 15 -15 16 0 5 0 6 6 0
5 0 16 -15z m80 0 l15 -16 -5 -6 -6 -5 -16 15 -15 16 0 5 0 6 6 0 5 0 16 -15z
m80 0 l15 -16 -5 -6 -6 -5 -16 15 -15 16 0 5 0 6 6 0 5 0 16 -15z m80 0 l15
-16 -5 -6 -6 -5 -16 15 -15 16 0 5 0 6 6 0 5 0 16 -15z m193 5 l0 -10 -10 0
-10 0 0 10 0 10 10 0 10 0 0 -10z m380 4 l0 -5 -15 -16 -16 -15 -5 5 -6 6 13
15 14 15 8 1 7 0 0 -6z m80 0 l0 -5 -15 -16 -16 -15 -5 5 -6 6 13 15 14 15 8
1 7 0 0 -6z m80 0 l0 -5 -15 -16 -16 -15 -5 5 -6 6 13 15 14 15 8 1 7 0 0 -6z
m-1040 -24 l0 -10 -10 0 -10 0 0 10 0 10 10 0 10 0 0 -10z m540 4 l0 -5 -15
-16 -16 -15 -5 5 -6 6 13 15 14 15 8 1 7 0 0 -6z m80 0 l0 -5 -15 -16 -16 -15
-5 5 -6 6 13 15 14 15 8 1 7 0 0 -6z m-580 -20 l0 -5 -15 -16 -16 -15 -5 5 -6
6 13 15 14 15 8 1 7 0 0 -6z m80 0 l0 -5 -15 -16 -16 -15 -5 5 -6 6 13 15 14
15 8 1 7 0 0 -6z m80 0 l0 -5 -15 -16 -16 -15 -5 5 -6 6 13 15 14 15 8 1 7 0
0 -6z m80 0 l0 -5 -15 -16 -16 -15 -5 5 -6 6 13 15 14 15 8 1 7 0 0 -6z m627
-9 l15 -16 -5 -6 -6 -5 -16 15 -15 16 0 5 0 6 6 0 5 0 16 -15z m80 0 l15 -16
-5 -6 -6 -5 -16 15 -15 16 0 5 0 6 6 0 5 0 16 -15z m73 5 l0 -10 -10 0 -10 0
0 10 0 10 10 0 10 0 0 -10z m-500 -20 l0 -10 -10 0 -10 0 0 10 0 10 10 0 10 0
0 -10z m-573 -25 l15 -16 -5 -6 -6 -5 -16 15 -15 16 0 5 0 6 6 0 5 0 16 -15z
m80 0 l15 -16 -5 -6 -6 -5 -16 15 -15 16 0 5 0 6 6 0 5 0 16 -15z m80 0 l15
-16 -5 -6 -6 -5 -16 15 -15 16 0 5 0 6 6 0 5 0 16 -15z m80 0 l15 -16 -5 -6
-6 -5 -16 15 -15 16 0 5 0 6 6 0 5 0 16 -15z m73 5 l0 -10 -10 0 -10 0 0 10 0
10 10 0 10 0 0 -10z m-260 -36 l0 -5 -15 -16 -16 -15 -5 5 -6 6 13 15 14 15 8
1 7 0 0 -6z m80 0 l0 -5 -15 -16 -16 -15 -5 5 -6 6 13 15 14 15 8 1 7 0 0 -6z
m80 0 l0 -5 -15 -16 -16 -15 -5 5 -6 6 13 15 14 15 8 1 7 0 0 -6z m80 0 l0 -5
-15 -16 -16 -15 -5 5 -6 6 13 15 14 15 8 1 7 0 0 -6z m180 -24 l0 -10 -10 0
-10 0 0 10 0 10 10 0 10 0 0 -10z m80 0 l0 -10 -10 0 -10 0 0 10 0 10 10 0 10
0 0 -10z m280 0 l0 -10 -10 0 -10 0 0 10 0 10 10 0 10 0 0 -10z m-753 -25 l15
-16 -5 -6 -6 -5 -16 15 -15 16 0 5 0 6 6 0 5 0 16 -15z m80 0 l15 -16 -5 -6
-6 -5 -16 15 -15 16 0 5 0 6 6 0 5 0 16 -15z m73 5 l0 -10 -10 0 -10 0 0 10 0
10 10 0 10 0 0 -10z m200 4 l0 -5 -15 -16 -16 -15 -5 5 -6 6 13 15 14 15 8 1
7 0 0 -6z m80 0 l0 -5 -15 -16 -16 -15 -5 5 -6 6 13 15 14 15 8 1 7 0 0 -6z
m80 0 l0 -5 -15 -16 -16 -15 -5 5 -6 6 13 15 14 15 8 1 7 0 0 -6z m207 -9 l15
-16 -5 -6 -6 -5 -16 15 -15 16 0 5 0 6 6 0 5 0 16 -15z m80 0 l15 -16 -5 -6
-6 -5 -16 15 -15 16 0 5 0 6 6 0 5 0 16 -15z m-420 -40 l15 -16 -5 -6 -6 -5
-16 15 -15 16 0 5 0 6 6 0 5 0 16 -15z m80 0 l15 -16 -5 -6 -6 -5 -16 15 -15
16 0 5 0 6 6 0 5 0 16 -15z m80 0 l15 -16 -5 -6 -6 -5 -16 15 -15 16 0 5 0 6
6 0 5 0 16 -15z m153 5 l0 -10 -10 0 -10 0 0 10 0 10 10 0 10 0 0 -10z m80 4
l0 -5 -15 -16 -16 -15 -5 5 -6 6 13 15 14 15 8 1 7 0 0 -6z m-960 -24 l0 -10
-10 0 -10 0 0 10 0 10 10 0 10 0 0 -10z m500 0 l0 -10 -10 0 -10 0 0 10 0 10
10 0 10 0 0 -10z m520 0 l0 -10 -10 0 -10 0 0 10 0 10 10 0 10 0 0 -10z m180
0 l0 -10 -10 0 -10 0 0 10 0 10 10 0 10 0 0 -10z m-1153 -25 l15 -16 -5 -6 -6
-5 -16 15 -15 16 0 5 0 6 6 0 5 0 16 -15z m493 9 l0 -5 -15 -16 -16 -15 -5 5
-6 6 13 15 14 15 8 1 7 0 0 -6z m80 0 l0 -5 -15 -16 -16 -15 -5 5 -6 6 13 15
14 15 8 1 7 0 0 -6z m80 0 l0 -5 -15 -16 -16 -15 -5 5 -6 6 13 15 14 15 8 1 7
0 0 -6z m207 -9 l15 -16 -5 -6 -6 -5 -16 15 -15 16 0 5 0 6 6 0 5 0 16 -15z
m80 0 l15 -16 -5 -6 -6 -5 -16 15 -15 16 0 5 0 6 6 0 5 0 16 -15z m180 0 l15
-16 -5 -6 -6 -5 -16 15 -15 16 0 5 0 6 6 0 5 0 16 -15z m-407 -15 l0 -10 -10
0 -10 0 0 10 0 10 10 0 10 0 0 -10z m-740 -16 l0 -5 -15 -16 -16 -15 -5 5 -6
6 13 15 14 15 8 1 7 0 0 -6z m80 0 l0 -5 -15 -16 -16 -15 -5 5 -6 6 13 15 14
15 8 1 7 0 0 -6z m387 -9 l15 -16 -5 -6 -6 -5 -16 15 -15 16 0 5 0 6 6 0 5 0
16 -15z m80 0 l15 -16 -5 -6 -6 -5 -16 15 -15 16 0 5 0 6 6 0 5 0 16 -15z m80
0 l15 -16 -5 -6 -6 -5 -16 15 -15 16 0 5 0 6 6 0 5 0 16 -15z m80 0 l15 -16
-5 -6 -6 -5 -16 15 -15 16 0 5 0 6 6 0 5 0 16 -15z m153 5 l0 -10 -10 0 -10 0
0 10 0 10 10 0 10 0 0 -10z m80 4 l0 -5 -15 -16 -16 -15 -5 5 -6 6 13 15 14
15 8 1 7 0 0 -6z m180 0 l0 -5 -15 -16 -16 -15 -5 5 -6 6 13 15 14 15 8 1 7 0
0 -6z m-120 -24 l0 -10 -10 0 -10 0 0 10 0 10 10 0 10 0 0 -10z m-973 -25 l15
-16 -5 -6 -6 -5 -16 15 -15 16 0 5 0 6 6 0 5 0 16 -15z m73 5 l0 -10 -10 0
-10 0 0 10 0 10 10 0 10 0 0 -10z m180 0 l0 -10 -10 0 -10 0 0 10 0 10 10 0
10 0 0 -10z m160 0 l0 -10 -10 0 -10 0 0 10 0 10 10 0 10 0 0 -10z m80 4 l0
-5 -15 -16 -16 -15 -5 5 -6 6 13 15 14 15 8 1 7 0 0 -6z m80 0 l0 -5 -15 -16
-16 -15 -5 5 -6 6 13 15 14 15 8 1 7 0 0 -6z m80 0 l0 -5 -15 -16 -16 -15 -5
5 -6 6 13 15 14 15 8 1 7 0 0 -6z m80 0 l0 -5 -15 -16 -16 -15 -5 5 -6 6 13
15 14 15 8 1 7 0 0 -6z m127 -9 l15 -16 -5 -6 -6 -5 -16 15 -15 16 0 5 0 6 6
0 5 0 16 -15z m80 0 l15 -16 -5 -6 -6 -5 -16 15 -15 16 0 5 0 6 6 0 5 0 16
-15z m180 0 l15 -16 -5 -6 -6 -5 -16 15 -15 16 0 5 0 6 6 0 5 0 16 -15z m-67
-15 l0 -10 -10 0 -10 0 0 10 0 10 10 0 10 0 0 -10z"/>
</g>
</svg>
