<?xml version="1.0" standalone="no"?>
<!DOCTYPE svg PUBLIC "-//W3C//DTD SVG 20010904//EN"
 "http://www.w3.org/TR/2001/REC-SVG-20010904/DTD/svg10.dtd">
<svg version="1.0" xmlns="http://www.w3.org/2000/svg"
 width="468pt" height="468pt" viewBox="0 0 468 468"
 preserveAspectRatio="xMidYMid meet">
<metadata>
Created by potrace 1.8, written by Peter Selinger 2001-2007
</metadata>
<g transform="translate(0,468) scale(0.365625,-0.365625)"
fill="#000000" stroke="none">
<path d="M160 660 l0 -620 20 0 20 0 0 -20 0 -20 480 0 480 0 0 500 0 500 -20
0 -20 0 0 20 0 20 -20 0 -20 0 0 20 0 20 -20 0 -20 0 0 20 0 20 -20 0 -20 0 0
20 0 20 -20 0 -20 0 0 20 0 20 -20 0 -20 0 0 20 0 20 -20 0 -20 0 0 20 0 20
-360 0 -360 0 0 -620z m680 440 l0 -140 120 0 120 0 0 -440 0 -440 -440 0
-440 0 0 580 0 580 320 0 320 0 0 -140z m80 80 l0 -20 20 0 20 0 0 -20 0 -20
20 0 20 0 0 -20 0 -20 20 0 20 0 0 -20 0 -20 20 0 20 0 0 -20 0 -20 -100 0
-100 0 0 100 0 100 20 0 20 0 0 -20z"/>
<path d="M440 660 l0 -20 -60 0 -60 0 0 -20 0 -20 -20 0 -20 0 0 -40 0 -40 80
0 80 0 0 -20 0 -20 -40 0 -40 0 0 -80 0 -80 300 0 300 0 0 80 0 80 -40 0 -40
0 0 20 0 20 60 0 60 0 0 40 0 40 -20 0 -20 0 0 20 0 20 -60 0 -60 0 0 20 0 20
-200 0 -200 0 0 -20z m360 -80 l0 -20 40 0 40 0 0 -20 0 -20 -40 0 -40 0 0
-40 0 -40 -20 0 -20 0 0 -20 0 -20 -20 0 -20 0 0 -20 0 -20 -60 0 -60 0 0 20
0 20 -20 0 -20 0 0 20 0 20 -20 0 -20 0 0 40 0 40 -40 0 -40 0 0 20 0 20 40 0
40 0 0 20 0 20 140 0 140 0 0 -20z"/>
<path d="M560 500 l0 -60 20 0 20 0 0 -20 0 -20 60 0 60 0 0 20 0 20 20 0 20
0 0 60 0 60 -100 0 -100 0 0 -60z"/>
</g>
</svg>
