<?xml version="1.0" standalone="no"?>
<!DOCTYPE svg PUBLIC "-//W3C//DTD SVG 20010904//EN"
 "http://www.w3.org/TR/2001/REC-SVG-20010904/DTD/svg10.dtd">
<svg version="1.0" xmlns="http://www.w3.org/2000/svg"
 width="468pt" height="468pt" viewBox="0 0 468 468"
 preserveAspectRatio="xMidYMid meet">
<metadata>
Created by potrace 1.8, written by Peter Selinger 2001-2007
</metadata>
<g transform="translate(0,468) scale(0.365625,-0.365625)"
fill="#000000" stroke="none">
<path d="M600 1140 l0 -100 -300 0 -300 0 0 -320 0 -320 100 0 100 0 0 -80 0
-80 -100 0 -100 0 0 -120 0 -120 620 0 620 0 0 120 0 120 -100 0 -100 0 0 180
0 180 100 0 100 0 0 220 0 220 -200 0 -200 0 0 100 0 100 -120 0 -120 0 0
-100z m200 -120 l0 -180 -100 0 -100 0 0 -100 0 -100 -80 0 -80 0 0 180 0 180
100 0 100 0 0 100 0 100 80 0 80 0 0 -180z m-400 -100 l0 -80 -100 0 -100 0 0
-200 0 -200 -80 0 -80 0 0 280 0 280 180 0 180 0 0 -80z m800 -100 l0 -180
-180 0 -180 0 0 180 0 180 180 0 180 0 0 -180z m-800 -120 l0 -100 100 0 100
0 0 -180 0 -180 -80 0 -80 0 0 100 0 100 -100 0 -100 0 0 180 0 180 80 0 80 0
0 -100z m400 -280 l0 -380 -80 0 -80 0 0 380 0 380 80 0 80 0 0 -380z m200
-20 l0 -200 100 0 100 0 0 -80 0 -80 -180 0 -180 0 0 280 0 280 80 0 80 0 0
-200z m-600 -100 l0 -100 100 0 100 0 0 -80 0 -80 -280 0 -280 0 0 80 0 80
100 0 100 0 0 100 0 100 80 0 80 0 0 -100z"/>
</g>
</svg>
