<?xml version="1.0" standalone="no"?>
<!DOCTYPE svg PUBLIC "-//W3C//DTD SVG 20010904//EN"
 "http://www.w3.org/TR/2001/REC-SVG-20010904/DTD/svg10.dtd">
<svg version="1.0" xmlns="http://www.w3.org/2000/svg"
 width="468pt" height="468pt" viewBox="0 0 468 468"
 preserveAspectRatio="xMidYMid meet">
<metadata>
Created by potrace 1.8, written by Peter Selinger 2001-2007
</metadata>
<g transform="translate(0,468) scale(0.365625,-0.365625)"
fill="#000000" stroke="none">
<path d="M120 1270 l0 -10 15 0 15 0 0 -15 0 -15 21 0 20 0 15 -14 14 -15 0
-10 0 -11 15 0 15 0 0 -25 0 -25 25 0 25 0 0 14 0 14 13 6 12 6 -12 6 -13 6 0
14 0 14 10 0 10 0 0 -14 0 -14 13 -6 12 -6 -12 -6 -13 -6 0 -14 0 -14 -10 0
-10 0 0 -25 0 -25 20 0 20 0 0 -10 0 -10 15 0 15 0 0 10 0 10 -15 0 -15 0 0
15 0 15 15 0 15 0 0 10 0 10 -15 0 -15 0 0 15 0 15 15 0 15 0 0 -15 0 -15 21
0 20 0 15 -14 14 -15 0 -10 0 -11 15 0 15 0 0 -10 0 -10 -15 0 -15 0 0 -15 0
-15 11 0 10 0 15 -14 14 -15 0 -10 0 -11 15 0 15 0 0 -10 0 -10 -15 0 -15 0 0
-25 0 -25 15 0 15 0 0 15 0 15 35 0 35 0 0 10 0 10 15 0 15 0 0 -25 0 -25 -15
0 -15 0 0 -10 0 -10 15 0 15 0 0 10 0 10 10 0 10 0 0 -25 0 -25 35 0 35 0 0
-10 0 -10 -35 0 -35 0 0 -15 0 -15 -10 0 -10 0 0 15 0 15 -15 0 -15 0 0 -15 0
-15 -24 0 -24 0 -6 -12 -6 -13 -6 13 -6 12 -14 0 -14 0 0 15 0 15 25 0 25 0 0
10 0 10 15 0 15 0 0 15 0 15 -15 0 -15 0 0 -15 0 -15 -25 0 -25 0 0 25 0 25
-10 0 -10 0 0 24 0 24 13 6 12 6 -12 6 -13 6 0 14 0 14 -11 0 -10 0 -15 14
-14 15 0 9 0 10 13 6 12 6 -12 6 -13 6 0 14 0 14 -25 0 -25 0 0 -14 0 -14 13
-6 12 -6 -12 -6 -13 -6 0 -13 0 -13 13 -6 12 -6 -12 -6 -13 -6 0 -14 0 -14 10
0 10 0 0 15 0 15 15 0 15 0 0 -24 0 -24 13 -6 12 -6 -12 -6 -13 -6 0 -13 0
-13 13 -6 12 -6 -13 -6 -12 -6 0 -24 0 -24 -40 0 -40 0 0 -25 0 -25 -10 0 -10
0 0 25 0 25 -25 0 -25 0 0 35 0 35 15 0 15 0 0 35 0 35 -15 0 -15 0 0 -20 0
-20 -25 0 -25 0 0 -15 0 -15 -35 0 -35 0 0 15 0 15 25 0 25 0 0 20 0 20 25 0
25 0 0 25 0 25 -11 0 -10 0 -15 -14 -14 -15 0 -10 0 -11 -13 0 -13 0 -14 -20
-14 -20 -9 0 -8 0 -15 14 -14 15 0 20 0 21 -15 0 -15 0 0 10 0 10 25 0 25 0 0
15 0 15 15 0 15 0 0 25 0 25 -15 0 -15 0 0 -11 0 -10 -14 -15 -15 -14 -10 0
-11 0 0 10 0 10 15 0 15 0 0 15 0 15 -15 0 -15 0 0 -14 0 -14 -12 -6 -13 -6
13 -6 12 -6 0 -13 0 -13 -12 -6 -13 -6 13 -6 12 -6 0 -14 0 -14 -10 0 -10 0 0
-20 0 -20 -25 0 -25 0 0 -25 0 -25 10 0 10 0 0 -25 0 -25 25 0 25 0 0 -15 0
-15 15 0 15 0 0 25 0 25 10 0 10 0 0 -10 0 -10 25 0 25 0 0 10 0 10 11 0 10 0
15 -14 14 -15 0 -9 0 -10 -12 -6 -13 -6 13 -6 12 -6 0 -14 0 -14 15 0 15 0 0
-10 0 -10 -15 0 -15 0 0 -15 0 -15 15 0 15 0 0 15 0 15 10 0 10 0 0 25 0 25
-10 0 -10 0 0 10 0 10 21 0 20 0 15 -14 14 -15 0 -10 0 -11 10 0 10 0 0 15 0
15 15 0 15 0 0 10 0 10 25 0 25 0 0 11 0 10 14 15 15 14 20 0 21 0 0 -10 0
-10 -10 0 -10 0 0 -15 0 -15 -15 0 -15 0 0 -10 0 -10 -25 0 -25 0 0 -14 0 -14
-12 -5 -13 -4 9 -9 9 -9 4 13 5 12 24 0 24 0 0 15 0 15 14 0 14 0 6 13 6 12 6
-12 6 -13 14 0 14 0 0 -40 0 -40 10 0 10 0 0 -25 0 -25 15 0 15 0 0 -10 0 -10
-11 0 -10 0 -15 -14 -14 -15 0 -10 0 -11 10 0 10 0 0 15 0 15 25 0 25 0 0 10
0 10 15 0 15 0 0 10 0 10 -15 0 -15 0 0 15 0 15 11 0 10 0 15 14 14 15 0 10 0
11 35 0 35 0 0 -40 0 -40 15 0 15 0 0 25 0 25 10 0 10 0 0 -10 0 -10 15 0 15
0 0 10 0 10 -15 0 -15 0 0 11 0 10 -14 15 -15 14 -10 0 -11 0 0 15 0 15 15 0
15 0 0 -11 0 -10 14 -15 15 -14 6 0 6 0 15 14 14 15 0 35 0 36 15 0 15 0 0 25
0 25 10 0 10 0 0 25 0 25 -25 0 -25 0 0 -25 0 -25 -25 0 -25 0 0 21 0 20 -14
15 -15 14 -10 0 -11 0 0 10 0 10 15 0 15 0 0 15 0 15 -11 0 -10 0 -15 14 -14
15 0 20 0 21 -15 0 -15 0 0 15 0 15 11 0 10 0 15 14 14 15 0 35 0 36 -25 0
-25 0 0 10 0 10 -35 0 -35 0 0 -25 0 -25 15 0 15 0 0 -24 0 -24 13 -6 12 -6
-12 -6 -13 -6 0 -14 0 -14 -25 0 -25 0 0 -10 0 -10 25 0 25 0 0 -15 0 -15 -11
0 -10 0 -15 -14 -14 -15 0 -10 0 -11 -15 0 -15 0 0 15 0 15 -21 0 -20 0 -15
14 -14 15 0 9 0 10 13 6 12 6 -12 6 -13 6 0 14 0 14 -11 0 -10 0 -15 14 -14
15 0 10 0 11 -25 0 -25 0 0 10 0 10 -15 0 -15 0 0 25 0 25 -34 0 -34 0 -6 -12
-6 -13 -6 13 -6 12 -24 0 -24 0 0 15 0 15 -15 0 -15 0 0 10 0 10 -25 0 -25 0
0 -10z m-20 -360 l0 -50 -25 0 -25 0 0 14 0 14 13 6 12 6 -12 6 -13 6 0 9 0
10 13 14 12 14 13 1 12 0 0 -50z m-50 -10 l0 -10 -15 0 -15 0 0 10 0 10 15 0
15 0 0 -10z m100 -25 l0 -15 -15 0 -15 0 0 15 0 15 15 0 15 0 0 -15z m100 -10
l0 -25 -11 0 -10 0 -15 14 -14 15 0 10 0 11 25 0 25 0 0 -25z m540 -15 l0 -10
-15 0 -15 0 0 10 0 10 15 0 15 0 0 -10z m0 -50 l0 -10 -15 0 -15 0 0 10 0 10
15 0 15 0 0 -10z m-200 -35 l0 -25 15 0 15 0 0 -15 0 -15 -15 0 -15 0 0 15 0
15 -10 0 -10 0 0 25 0 25 10 0 10 0 0 -25z m50 10 l0 -15 -10 0 -10 0 0 15 0
15 10 0 10 0 0 -15z m50 0 l0 -15 -15 0 -15 0 0 15 0 15 15 0 15 0 0 -15z"/>
<path d="M250 1245 l0 -15 10 0 10 0 0 15 0 15 -10 0 -10 0 0 -15z"/>
<path d="M50 1185 l0 -25 10 0 10 0 0 -15 0 -15 14 0 14 0 6 -12 6 -13 6 13 6
12 14 0 14 0 0 -10 0 -10 21 0 20 0 15 14 14 15 0 10 0 11 -25 0 -25 0 0 -15
0 -15 -10 0 -10 0 0 15 0 15 10 0 10 0 0 25 0 25 -10 0 -10 0 0 -15 0 -15 -15
0 -15 0 0 15 0 15 -10 0 -10 0 0 -25 0 -25 10 0 10 0 0 -15 0 -15 -10 0 -10 0
0 15 0 15 -15 0 -15 0 0 25 0 25 -10 0 -10 0 0 -25z"/>
<path d="M540 1185 l0 -25 25 0 25 0 0 10 0 10 -10 0 -10 0 0 15 0 15 -15 0
-15 0 0 -25z"/>
<path d="M220 1105 l0 -25 15 0 15 0 0 -25 0 -25 25 0 25 0 0 25 0 25 -15 0
-15 0 0 11 0 10 -14 15 -15 14 -10 0 -11 0 0 -25z"/>
<path d="M570 1120 l0 -10 10 0 10 0 0 10 0 10 -10 0 -10 0 0 -10z"/>
<path d="M170 1055 l0 -25 25 0 25 0 0 25 0 25 -25 0 -25 0 0 -25z"/>
<path d="M390 950 l0 -10 15 0 15 0 0 10 0 10 -15 0 -15 0 0 -10z"/>
<path d="M860 875 l0 -15 50 0 50 0 0 -10 0 -10 -10 0 -10 0 0 -13 0 -13 20
-14 20 -14 0 -12 0 -12 -12 -6 -13 -6 13 -6 12 -6 0 -24 0 -24 15 0 15 0 0
-15 0 -15 -15 0 -15 0 0 -10 0 -10 11 0 10 0 15 14 14 15 0 10 0 11 -10 0 -10
0 0 25 0 25 -15 0 -15 0 0 10 0 10 15 0 15 0 0 15 0 15 -11 0 -10 0 -15 14
-14 15 0 10 0 11 25 0 25 0 0 -11 0 -10 14 -15 15 -14 10 0 11 0 0 -15 0 -15
-15 0 -15 0 0 -10 0 -10 15 0 15 0 0 -50 0 -50 -15 0 -15 0 0 -21 0 -20 -14
-15 -15 -14 -10 0 -11 0 0 10 0 10 15 0 15 0 0 15 0 15 -15 0 -15 0 0 -14 0
-14 -12 -6 -13 -6 13 -6 12 -6 0 -14 0 -14 15 0 15 0 0 -21 0 -20 14 -15 15
-14 10 0 11 0 0 -11 0 -10 14 -15 15 -14 10 0 11 0 0 -40 0 -40 -15 0 -15 0 0
-10 0 -10 15 0 15 0 0 -10 0 -10 -15 0 -15 0 0 -25 0 -25 -10 0 -10 0 0 10 0
10 -15 0 -15 0 0 15 0 15 15 0 15 0 0 45 0 45 -15 0 -15 0 0 15 0 15 -21 0
-20 0 -15 14 -14 15 0 6 0 6 -14 15 -15 14 -20 0 -21 0 0 15 0 15 -15 0 -15 0
0 21 0 20 -14 15 -15 14 -10 0 -11 0 0 15 0 15 -10 0 -10 0 0 20 0 20 -25 0
-25 0 0 -10 0 -10 -15 0 -15 0 0 -10 0 -10 15 0 15 0 0 -15 0 -15 10 0 10 0 0
14 0 14 -12 5 -13 4 9 9 9 9 4 -12 5 -13 14 0 14 0 0 -15 0 -15 -14 0 -14 0
-6 -12 -6 -13 -6 13 -6 12 -14 0 -14 0 0 -10 0 -10 -25 0 -25 0 0 -15 0 -15
-70 0 -70 0 0 15 0 15 -15 0 -15 0 0 -40 0 -40 -10 0 -10 0 0 -35 0 -35 10 0
10 0 0 -25 0 -25 -10 0 -10 0 0 -14 0 -14 13 -6 12 -6 -12 -6 -13 -6 0 -34 0
-34 10 0 10 0 0 35 0 35 15 0 15 0 0 10 0 10 -15 0 -15 0 0 15 0 15 15 0 15 0
0 25 0 25 -15 0 -15 0 0 10 0 10 15 0 15 0 0 15 0 15 -15 0 -15 0 0 10 0 10
15 0 15 0 0 15 0 15 70 0 70 0 0 10 0 10 65 0 65 0 0 15 0 15 10 0 10 0 0 -15
0 -15 11 0 10 0 15 -14 14 -15 0 -20 0 -21 15 0 15 0 0 -25 0 -25 10 0 10 0 0
-15 0 -15 -10 0 -10 0 0 -35 0 -35 -11 0 -10 0 -15 -14 -14 -15 0 -10 0 -11
-11 0 -10 0 -15 -14 -14 -15 0 -10 0 -11 -15 0 -15 0 0 -10 0 -10 15 0 15 0 0
-15 0 -15 -150 0 -150 0 0 25 0 25 -25 0 -25 0 0 -25 0 -25 -10 0 -10 0 0 25
0 25 10 0 10 0 0 100 0 100 -10 0 -10 0 0 35 0 35 -15 0 -15 0 0 40 0 40 -35
0 -35 0 0 -15 0 -15 -10 0 -10 0 0 -50 0 -50 -15 0 -15 0 0 -25 0 -25 -10 0
-10 0 0 -25 0 -25 -13 0 -13 0 -14 -20 -14 -20 -23 0 -23 0 0 -11 0 -10 14
-15 15 -14 10 0 11 0 0 -15 0 -15 -15 0 -15 0 0 11 0 10 -14 15 -15 14 -6 0
-6 0 -15 -14 -14 -15 0 -6 0 -6 14 -15 15 -14 9 0 10 0 6 13 6 12 6 -12 6 -13
10 0 9 0 15 14 14 15 0 20 0 21 -10 0 -10 0 0 11 0 10 14 15 15 14 10 0 11 0
0 -10 0 -10 -15 0 -15 0 0 -15 0 -15 15 0 15 0 0 11 0 10 14 15 15 14 16 0 16
0 15 14 14 15 0 20 0 21 15 0 15 0 0 40 0 40 -15 0 -15 0 0 -40 0 -40 -10 0
-10 0 0 -25 0 -25 -25 0 -25 0 0 25 0 25 15 0 15 0 0 25 0 25 10 0 10 0 0 40
0 40 10 0 10 0 0 -15 0 -15 11 0 10 0 15 -14 14 -15 0 -20 0 -21 15 0 15 0 0
-100 0 -100 -11 0 -10 0 -15 -14 -14 -15 0 -10 0 -11 -185 0 -185 0 0 -85 0
-85 640 0 640 0 0 85 0 85 -100 0 -100 0 0 25 0 25 15 0 15 0 0 39 0 39 13 5
12 5 -15 12 -15 12 13 5 12 5 0 35 0 34 -14 15 -15 14 -10 0 -11 0 0 11 0 10
-14 15 -15 14 -10 0 -11 0 0 40 0 40 15 0 15 0 0 25 0 25 10 0 10 0 0 35 0 35
15 0 15 0 0 -25 0 -25 10 0 10 0 0 -25 0 -25 15 0 15 0 0 24 0 24 13 6 12 6
-12 6 -13 6 0 14 0 14 -15 0 -15 0 0 10 0 10 11 0 10 0 15 -14 14 -15 0 -10 0
-11 25 0 25 0 0 11 0 10 -14 15 -15 14 -10 0 -11 0 0 15 0 15 -25 0 -25 0 0
10 0 10 -25 0 -25 0 0 25 0 25 -10 0 -10 0 0 15 0 15 -15 0 -15 0 0 10 0 10
-25 0 -25 0 0 15 0 15 -60 0 -60 0 0 -15z m80 -445 l0 -10 20 0 20 0 0 -15 0
-15 -10 0 -10 0 0 -25 0 -25 -10 0 -10 0 0 -20 0 -20 -15 0 -15 0 0 35 0 35
15 0 15 0 0 25 0 25 -15 0 -15 0 0 10 0 10 15 0 15 0 0 -10z m76 -54 l14 -15
0 -30 0 -31 -10 0 -10 0 0 -25 0 -25 10 0 10 0 0 -15 0 -15 15 0 15 0 0 -10 0
-10 -25 0 -25 0 0 25 0 25 -15 0 -15 0 0 -25 0 -25 -10 0 -10 0 0 -15 0 -15
-75 0 -75 0 0 25 0 25 15 0 15 0 0 -10 0 -10 25 0 25 0 0 21 0 20 14 15 15 14
10 0 11 0 0 15 0 15 10 0 10 0 0 20 0 20 10 0 10 0 0 25 0 25 11 0 10 0 15
-14z m-746 -46 l0 -10 -10 0 -10 0 0 10 0 10 10 0 10 0 0 -10z m640 -41 l0
-10 -14 -15 -15 -14 -20 0 -21 0 0 10 0 10 10 0 10 0 0 15 0 15 25 0 25 0 0
-11z m-760 -54 l0 -15 -15 0 -15 0 0 15 0 15 15 0 15 0 0 -15z"/>
<path d="M170 825 l0 -15 15 0 15 0 0 15 0 15 -15 0 -15 0 0 -15z"/>
<path d="M250 700 l0 -10 -15 0 -15 0 0 -15 0 -15 15 0 15 0 0 -20 0 -20 10 0
10 0 0 -25 0 -25 21 0 20 0 15 14 14 15 0 20 0 21 -10 0 -10 0 0 -25 0 -25
-10 0 -10 0 0 25 0 25 -15 0 -15 0 0 25 0 25 15 0 15 0 0 -15 0 -15 10 0 10 0
0 11 0 10 -14 15 -15 14 -20 0 -21 0 0 -10z"/>
<path d="M1230 640 l0 -20 -10 0 -10 0 0 10 0 10 -15 0 -15 0 0 -25 0 -25 14
0 14 0 6 -12 6 -13 6 13 6 12 14 0 14 0 0 -10 0 -10 -15 0 -15 0 0 -15 0 -15
15 0 15 0 0 -10 0 -10 -11 0 -10 0 -15 14 -14 15 0 10 0 11 -14 0 -14 0 -6 13
-6 12 -6 -12 -6 -13 -14 0 -14 0 0 -15 0 -15 25 0 25 0 0 -10 0 -10 15 0 15 0
0 -11 0 -10 14 -15 15 -14 10 0 11 0 0 -15 0 -15 10 0 10 0 0 14 0 14 -12 6
-13 6 13 6 12 6 0 64 0 64 -10 0 -10 0 0 20 0 20 -15 0 -15 0 0 -20z"/>
<path d="M370 605 l0 -15 10 0 10 0 0 15 0 15 -10 0 -10 0 0 -15z"/>
<path d="M1160 495 l0 -25 25 0 25 0 0 -15 0 -15 10 0 10 0 0 11 0 10 -14 15
-15 14 -10 0 -11 0 0 15 0 15 -10 0 -10 0 0 -25z"/>
</g>
</svg>
