<?xml version="1.0" standalone="no"?>
<!DOCTYPE svg PUBLIC "-//W3C//DTD SVG 20010904//EN"
 "http://www.w3.org/TR/2001/REC-SVG-20010904/DTD/svg10.dtd">
<svg version="1.0" xmlns="http://www.w3.org/2000/svg"
 width="468pt" height="468pt" viewBox="0 0 468 468"
 preserveAspectRatio="xMidYMid meet">
<metadata>
Created by potrace 1.8, written by Peter Selinger 2001-2007
</metadata>
<g transform="translate(0,468) scale(0.365625,-0.365625)"
fill="#000000" stroke="none">
<path d="M560 1270 l0 -10 -50 0 -50 0 0 -10 0 -10 -30 0 -30 0 0 -10 0 -10
-28 0 -28 0 -14 -20 -14 -20 -16 0 -16 0 -14 -20 -14 -20 -18 0 -18 0 0 -16 0
-16 -30 -28 -30 -28 0 -16 0 -16 -10 0 -10 0 0 -30 0 -30 -10 0 -10 0 0 -20 0
-20 10 0 10 0 0 -50 0 -50 26 0 25 0 50 -51 50 -51 6 6 6 6 -24 21 -24 22 13
4 12 5 0 19 0 19 -20 0 -20 0 0 10 0 10 10 0 10 0 0 20 0 20 -6 0 -7 0 -18
-21 -18 -21 -16 15 -15 16 0 15 0 16 10 0 10 0 0 16 0 15 14 15 15 14 45 0 46
0 0 -20 0 -20 10 0 10 0 0 25 0 26 45 44 44 45 14 0 13 0 14 20 14 20 18 0 18
0 0 10 0 10 -10 0 -10 0 0 10 0 10 30 0 30 0 0 -10 0 -10 20 0 20 0 0 8 0 8
-20 14 -20 14 0 18 0 18 -9 0 -9 0 -4 -12 -5 -13 -16 17 -17 17 0 15 0 16 10
0 10 0 0 -10 0 -10 30 0 30 0 0 10 0 10 -10 0 -10 0 0 10 0 10 30 0 30 0 0
-30 0 -30 25 0 26 0 25 25 25 25 -15 15 -15 15 -65 0 -66 0 0 -10z m-80 -65
l0 -16 -25 -24 -24 -25 -6 0 -5 0 0 20 0 20 -10 0 -10 0 0 10 0 10 20 0 20 0
0 10 0 10 20 0 20 0 0 -15z"/>
<path d="M860 1234 l0 -7 23 -20 22 -20 -12 -4 -13 -5 0 -19 0 -19 25 0 26 0
24 -25 25 -24 0 -6 0 -5 -20 0 -20 0 0 -5 0 -6 25 -24 24 -25 6 0 5 0 0 30 0
30 20 0 20 0 0 -10 0 -10 20 0 20 0 0 -10 0 -10 20 0 20 0 0 -10 0 -10 10 0
10 0 0 15 0 16 -45 44 -44 45 -12 0 -12 0 -18 22 -19 21 -20 -23 -20 -23 -8 8
-7 8 13 4 12 5 0 15 0 14 -14 15 -15 14 -25 0 -26 0 0 10 0 10 -10 0 -10 0 0
-6z m80 -54 l0 -20 -20 0 -20 0 0 5 0 6 13 14 12 14 8 1 7 0 0 -20z"/>
<path d="M1020 1010 l0 -10 -20 0 -20 0 0 -30 0 -30 -10 0 -10 0 0 -78 0 -78
20 -14 20 -14 0 -14 0 -13 14 -15 15 -14 44 0 45 0 4 12 4 12 27 -26 27 -27 0
-36 0 -35 10 0 10 0 0 -50 0 -50 -10 0 -10 0 0 -50 0 -50 -10 0 -10 0 0 -40 0
-40 -10 0 -10 0 0 -20 0 -20 5 0 6 0 24 25 25 24 0 16 0 15 10 0 10 0 0 20 0
20 10 0 10 0 0 30 0 30 10 0 10 0 0 50 0 50 10 0 10 0 0 80 0 80 -10 0 -10 0
0 50 0 50 -10 0 -10 0 0 30 0 30 -10 0 -10 0 0 25 0 26 -25 24 -24 25 -33 0
-34 0 -14 20 -14 20 -28 0 -28 0 0 -10z"/>
<path d="M340 870 l0 -10 10 0 10 0 0 10 0 10 -10 0 -10 0 0 -10z"/>
<path d="M380 850 l0 -10 20 0 20 0 0 10 0 10 -20 0 -20 0 0 -10z"/>
<path d="M380 770 l0 -10 -16 0 -15 0 -15 -14 -14 -15 0 -35 0 -36 -10 0 -10
0 0 -58 0 -58 20 -14 20 -14 0 -14 0 -13 25 -24 24 -25 16 0 15 0 0 -110 0
-110 10 0 10 0 0 -36 0 -35 14 -15 15 -14 15 0 16 0 0 46 0 45 14 15 15 14 15
0 16 0 0 20 0 20 16 0 15 0 15 14 14 15 0 15 0 16 10 0 10 0 0 20 0 20 20 0
20 0 0 10 0 10 20 0 20 0 0 20 0 20 10 0 10 0 0 28 0 28 20 14 20 14 0 24 0
23 -14 15 -15 14 -35 0 -36 0 0 10 0 10 -15 0 -16 0 -24 25 -25 24 0 16 0 15
-26 0 -26 0 -28 30 -28 30 -46 0 -46 0 0 10 0 10 -10 0 -10 0 0 -10z"/>
<path d="M552 44 l-13 -14 15 -15 15 -15 25 0 26 0 0 5 0 6 -25 24 -24 25 -3
0 -3 -1 -13 -15z"/>
<path d="M780 30 l0 -10 30 0 30 0 0 10 0 10 -30 0 -30 0 0 -10z"/>
<path d="M660 10 l0 -10 40 0 40 0 0 10 0 10 -40 0 -40 0 0 -10z"/>
</g>
</svg>
