<?xml version="1.0" standalone="no"?>
<!DOCTYPE svg PUBLIC "-//W3C//DTD SVG 20010904//EN"
 "http://www.w3.org/TR/2001/REC-SVG-20010904/DTD/svg10.dtd">
<svg version="1.0" xmlns="http://www.w3.org/2000/svg"
 width="468pt" height="468pt" viewBox="0 0 468 468"
 preserveAspectRatio="xMidYMid meet">
<metadata>
Created by potrace 1.8, written by Peter Selinger 2001-2007
</metadata>
<g transform="translate(0,468) scale(0.365625,-0.365625)"
fill="#000000" stroke="none">
<path d="M431 1273 l-1 -13 -15 0 -15 0 0 -16 0 -15 15 15 16 15 14 -5 15 -6
0 -8 0 -8 -12 -4 -13 -5 -38 2 -37 2 -7 7 -7 7 12 8 12 7 -34 0 -34 0 18 -16
17 -15 -14 -14 -14 -13 -7 7 -6 6 12 8 12 7 -36 0 -35 0 -10 15 -9 14 0 -10 0
-11 19 -15 18 -16 11 -4 10 -4 -14 -13 -14 -13 0 16 0 15 -15 0 -15 0 0 10 0
10 -10 0 -10 0 -1 -27 -1 -28 -5 13 -5 12 -13 0 -14 0 2 -42 2 -41 -15 -4 -15
-5 15 11 15 11 -14 9 -13 9 13 5 14 5 -13 10 -13 9 -22 -3 -22 -2 -7 -1 -8 -1
0 -15 0 -15 -15 0 -15 0 0 -10 0 -10 14 0 14 0 5 13 4 12 9 -9 9 -9 -12 -4
-13 -5 0 -13 0 -13 15 -6 15 -5 0 14 0 15 10 0 10 0 0 -11 0 -10 -13 -13 -13
-13 -12 13 -12 13 -15 -5 -15 -6 0 -13 0 -13 13 -5 12 -5 -15 -11 -15 -10 -4
16 -3 17 -16 15 -16 16 7 -17 6 -17 -15 -16 -15 -15 10 0 11 0 0 -15 0 -15
-10 0 -10 0 0 -20 0 -20 10 0 10 0 6 25 6 25 9 0 9 0 0 -11 0 -12 -25 -23 -25
-23 0 -21 0 -20 9 0 9 0 6 24 6 24 13 5 13 5 0 -18 0 -18 -13 5 -13 5 0 -15 0
-15 15 -6 15 -6 -5 -27 -5 -28 6 13 6 12 8 0 8 0 6 -25 6 -25 10 0 10 0 0 -15
0 -16 15 -5 15 -6 0 -13 0 -13 31 -31 31 -31 14 0 14 0 0 -10 0 -10 15 0 15 0
0 5 0 6 -26 24 -27 25 16 0 16 0 15 -15 15 -15 11 0 11 0 -15 -16 -16 -15 0
-7 0 -8 18 -15 19 -16 36 -7 37 -7 0 -8 0 -8 50 -7 50 -7 0 -9 0 -10 40 -6 40
-7 0 -8 0 -9 19 0 19 0 5 13 4 12 9 -8 8 -8 -14 -9 -15 -10 -292 0 -293 0 0
-245 0 -245 640 0 640 0 0 245 0 245 -232 1 -233 1 18 5 17 4 0 9 0 8 30 7 30
7 0 8 0 9 35 7 35 6 0 9 0 8 35 7 35 6 0 9 0 9 24 0 23 0 23 30 23 30 9 0 9 0
13 13 12 12 7 18 6 17 11 0 10 0 0 14 0 15 13 13 14 13 6 62 7 62 -18 -5 -17
-6 15 11 15 11 -14 9 -13 9 13 6 14 6 -12 6 -13 6 0 13 0 14 -16 15 -15 16 10
0 10 0 3 15 3 14 15 -10 15 -11 -12 -5 -13 -5 0 -13 0 -13 13 -5 13 -5 0 48 0
47 -17 -4 -17 -5 4 31 4 31 -14 0 -14 0 -6 -12 -6 -13 5 30 6 30 -10 -15 -10
-14 -4 4 -5 5 -6 23 -7 22 29 0 30 0 6 -15 5 -15 11 0 10 0 -17 20 -17 20 -28
0 -27 0 -17 -17 -18 -18 16 -3 16 -3 7 -27 7 -27 11 -8 12 -9 -12 -5 -13 -5
15 -14 14 -15 -5 -14 -6 -15 -8 0 -8 0 -6 24 -6 24 6 16 6 16 -15 6 -15 5 -6
25 -6 24 -10 0 -10 0 -1 -12 -1 -13 2 -30 2 -30 12 -7 11 -8 -15 -10 -15 -10
18 0 17 0 0 -15 0 -15 10 0 10 0 20 -17 20 -17 0 -22 0 -22 12 -4 11 -4 1 -67
1 -68 -11 -7 -11 -7 -7 -22 -7 -23 -10 0 -9 0 0 -11 0 -12 -35 -33 -34 -34
-10 0 -9 0 -5 -12 -5 -13 -1 13 -1 12 -10 0 -10 0 0 -15 0 -15 -19 0 -19 0 -4
-8 -3 -9 -34 -6 -34 -7 28 25 29 24 -7 7 -7 7 0 -11 0 -12 -19 0 -19 0 -7 -30
-7 -30 -9 0 -9 0 0 13 0 12 -10 -15 -10 -15 -7 11 -8 10 -17 7 -17 6 6 -15 5
-14 9 0 9 0 0 -15 0 -15 -10 0 -10 0 0 11 0 12 -26 -28 -26 -28 -9 14 -9 14 0
-12 0 -13 -10 0 -10 0 -6 25 -6 25 -9 0 -9 0 0 -15 0 -15 10 0 10 0 0 -10 0
-10 -25 0 -25 0 0 9 0 9 13 5 12 5 -38 -2 -39 -2 -8 -14 -8 -13 -24 25 -23 25
-15 6 -15 5 18 1 17 1 0 9 0 9 -26 6 -26 7 -6 -6 -5 -5 17 0 18 0 -6 -16 -6
-16 0 -9 0 -9 -10 0 -10 0 0 15 0 14 -17 -5 -18 -6 14 10 13 10 -22 22 -22 22
-9 -13 -9 -14 0 -12 0 -13 -9 0 -9 0 -4 10 -3 10 -35 4 -35 5 -7 0 -8 1 0 15
0 14 -14 -5 -13 -5 -17 16 -16 16 0 10 0 9 15 0 15 0 0 -10 0 -10 15 0 15 0 0
9 0 9 -26 6 -26 7 -34 33 -34 33 0 12 0 11 -9 0 -10 0 -5 18 -5 17 2 -36 3
-37 -13 5 -13 5 -1 12 -2 11 -2 40 -2 40 4 48 5 47 24 6 24 6 0 9 0 9 -15 0
-15 0 0 10 0 9 17 10 18 9 -9 9 -9 8 -4 -12 -5 -13 -14 0 -14 0 0 -15 0 -15
10 0 10 0 0 -10 0 -10 -14 0 -15 0 -13 -13 -14 -14 -10 11 -11 12 14 12 13 13
0 -11 0 -10 10 0 10 0 0 25 0 24 21 20 21 19 -6 11 -7 11 15 -6 16 -6 1 18 1
19 5 -12 5 -13 9 0 9 0 0 15 0 15 15 0 15 0 0 9 0 9 -15 6 -15 5 0 -14 0 -15
-15 0 -15 0 0 8 0 8 20 17 20 17 0 -10 0 -10 10 0 10 0 0 14 0 14 -12 5 -13 4
9 9 9 9 4 -12 5 -13 14 0 14 0 0 10 0 10 14 0 15 0 17 17 17 17 32 0 32 0 27
-28 26 -29 0 17 0 16 -15 0 -15 0 0 10 0 10 10 0 10 0 0 15 0 15 -12 0 -13 0
15 10 15 10 -15 10 -15 10 -12 0 -11 0 -5 13 -5 12 -1 -12z m-61 -63 l0 -10
-10 0 -10 0 0 10 0 10 10 0 10 0 0 -10z m93 -4 l6 -15 -15 6 -14 5 0 9 0 9 9
0 9 0 5 -14z m-123 -21 l0 -15 -4 0 -4 0 -16 -6 -16 -6 0 15 0 15 13 5 12 5 8
1 7 1 0 -15z m-104 -32 l-5 -38 -11 -3 -10 -4 0 -19 0 -19 -15 0 -15 0 -1 -27
-2 -28 -4 25 -5 25 -12 8 -11 9 16 -5 16 -5 13 8 14 9 -1 35 -1 36 14 0 14 0
0 15 0 15 5 0 5 0 -4 -37z m-92 -134 l-4 -30 -16 -17 -17 -16 8 24 8 25 9 4
10 3 -13 9 -14 9 15 10 15 10 1 0 1 0 -3 -31z m-34 -18 l0 -10 -21 -6 -21 -7
-5 6 -6 6 16 0 17 0 0 10 0 10 10 0 10 0 0 -9z m-9 -71 l-6 -5 -6 -8 -6 -8 0
25 0 24 12 -11 13 -12 -7 -5z m45 -81 l-1 -50 15 -9 15 -10 -10 0 -11 0 -17
20 -17 20 0 25 0 25 11 0 10 0 -15 16 -16 15 0 4 0 3 18 -5 19 -5 -1 -49z
m-45 21 l9 0 0 -15 0 -15 -10 0 -10 0 0 8 0 7 -4 20 -3 20 4 -12 4 -13 10 0z
m389 -295 l0 -15 -10 0 -10 0 0 15 0 15 10 0 10 0 0 -15z m200 -65 l0 -10 -10
0 -10 0 0 10 0 10 10 0 10 0 0 -10z"/>
<path d="M470 1271 l0 -9 16 -6 16 -6 -6 -15 -5 -15 13 0 14 0 6 -15 5 -15 11
0 10 0 0 14 0 14 -12 6 -13 6 30 -6 30 -6 7 -11 7 -11 7 7 8 7 -19 14 -18 13
6 9 6 10 -9 14 -9 14 -8 -7 -7 -8 14 -9 15 -10 -13 0 -13 0 -5 15 -6 15 -9 0
-9 0 0 -14 0 -14 -20 5 -20 5 0 9 0 9 -10 0 -10 0 0 -9z"/>
<path d="M613 1259 l2 -25 18 -18 18 -18 7 7 7 8 -12 4 -13 5 0 14 0 14 9 0 9
0 4 -11 4 -11 27 0 27 0 0 -14 0 -14 -12 0 -11 0 4 -5 5 -4 22 6 22 5 0 14 0
14 -10 0 -10 0 0 10 0 10 14 0 14 0 4 -12 4 -11 34 0 34 0 4 11 4 12 14 0 14
0 0 -6 0 -7 -15 -11 -15 -11 6 -22 6 -23 9 0 9 0 0 14 0 14 -12 5 -13 4 7 8 8
8 36 1 35 2 8 13 8 13 22 -18 21 -18 0 -9 0 -8 -16 15 -15 16 -10 0 -9 0 0
-14 0 -15 -17 -4 -18 -4 57 4 57 3 12 -13 13 -13 18 15 18 15 0 12 0 12 13 5
12 4 -8 9 -9 9 -9 -18 -10 -17 -27 5 -27 5 13 -6 12 -6 0 -9 0 -9 -9 0 -9 0
-6 15 -5 14 13 13 13 13 -45 2 -45 2 -9 13 -10 13 6 -17 5 -18 -19 0 -20 0 0
15 0 15 -10 0 -10 0 0 -12 0 -13 -10 15 -10 15 -11 -17 -10 -18 -14 0 -15 0 0
-10 0 -10 -10 0 -10 0 0 15 0 15 15 0 15 0 0 10 0 10 -15 0 -15 0 0 -9 0 -8
-41 -6 -42 -5 -9 -14 -9 -13 7 30 7 30 -16 -17 -17 -16 -22 6 -23 5 -7 11 -7
11 2 -26z"/>
<path d="M1168 1223 l13 -5 6 6 6 6 -19 -1 -19 -1 13 -5z"/>
<path d="M1087 1200 l-19 -18 7 -21 6 -21 10 0 9 0 1 13 1 12 -1 15 -2 15 10
-15 10 -14 4 4 5 5 6 23 7 22 -18 -1 -18 0 -18 -19z"/>
<path d="M377 1163 l-7 -6 0 -24 0 -23 15 0 15 0 0 10 0 10 -10 0 -10 0 0 14
0 14 13 5 12 5 -11 1 -11 1 -6 -7z"/>
<path d="M1040 1150 l0 -11 15 -5 15 -6 0 -15 0 -15 -27 7 -28 6 -3 10 -4 9
-64 0 -64 0 0 -9 0 -9 -27 -7 -27 -6 -13 17 -13 18 -4 -5 -4 -4 -6 -22 -7 -23
18 -1 18 -1 -12 -5 -13 -5 0 -9 0 -9 14 0 13 0 27 -25 26 -24 0 -15 0 -16 -17
-20 -17 -20 -12 0 -12 0 -6 -12 -6 -13 -6 13 -6 12 -19 0 -19 0 0 -10 0 -10
-9 0 -9 0 -6 25 -6 25 -36 0 -35 0 -16 -15 -15 -16 -17 3 -16 3 -3 22 -3 23
40 6 41 7 0 7 0 8 21 5 21 6 -5 28 -6 28 5 -12 6 -13 11 0 12 0 1 -30 1 -30
-15 0 -15 0 6 -6 5 -6 21 7 21 6 0 15 0 14 -10 0 -10 0 0 9 0 10 18 4 17 5
-17 1 -18 1 0 9 0 9 8 5 7 4 -12 -3 -13 -3 0 14 0 15 15 0 15 0 -17 20 -17 20
-11 0 -10 0 15 -10 15 -10 -15 -10 -15 -10 -35 7 -35 6 -3 8 -4 9 -43 0 -43 0
-4 -10 -3 -10 -57 -3 -58 -2 0 -11 0 -12 -20 -5 -20 -5 -15 15 -15 14 0 15 0
14 -10 0 -10 0 0 -11 0 -11 30 -30 30 -30 0 11 0 11 10 0 10 0 0 -15 0 -15
-10 0 -10 0 0 -10 0 -10 24 0 24 0 5 13 4 12 85 0 84 0 18 -18 18 -18 -28 7
-29 7 -3 9 -4 8 -59 0 -59 0 0 -10 0 -10 48 -2 47 -1 -45 -4 -45 -4 -7 -12 -8
-12 -11 15 -11 15 5 -15 4 -15 57 -1 58 -1 5 13 5 14 24 0 24 0 0 -9 0 -10
-27 -3 -28 -3 -3 -23 -3 -22 15 -6 16 -6 0 -25 0 -24 16 15 15 16 14 0 14 0
15 -16 16 -15 0 9 0 10 14 5 14 6 -5 -19 -5 -19 21 6 21 5 0 9 0 9 24 0 24 0
6 -15 5 -15 10 0 9 0 5 20 5 20 14 -1 13 -1 -12 -5 -13 -5 0 -9 0 -9 10 0 10
0 6 25 6 25 15 0 15 0 -5 -13 -5 -13 19 0 19 0 0 13 0 13 11 0 10 0 -15 15
-15 15 -10 0 -11 0 0 15 0 15 27 -6 28 -7 12 -13 13 -13 0 -10 0 -11 -10 0
-10 0 0 -10 0 -10 19 0 19 0 6 16 6 16 0 8 0 9 -16 15 -15 16 -25 0 -24 0 0 9
0 9 -20 5 -20 5 0 14 0 13 9 -14 10 -15 64 0 64 -1 -4 13 -5 12 -57 2 -56 1
45 4 45 4 33 -6 34 -6 -6 -15 -5 -14 19 0 19 0 -5 15 -6 15 16 6 16 6 0 24 0
24 -10 0 -10 0 0 13 0 13 -20 17 -20 17 0 -10z m-506 -62 l6 -13 6 14 6 13 10
-13 10 -14 5 14 5 13 9 -13 9 -14 11 15 11 15 -6 -18 -6 -18 28 3 27 3 3 -29
4 -29 -17 16 -16 17 -14 0 -13 0 -4 12 -4 11 -68 -2 -68 -2 14 15 13 15 17 1
16 0 6 -12z m363 0 l5 12 14 0 14 0 1 -12 1 -13 5 13 5 12 23 0 23 0 4 -10 3
-10 38 -5 37 -5 0 17 0 16 5 -5 6 -6 -7 -26 -6 -27 -22 7 -21 7 -5 7 -5 8 -73
4 -72 3 0 -12 0 -13 -10 0 -10 0 0 10 0 11 13 13 12 14 8 -12 9 -11 5 13z
m-467 -23 l0 -15 -10 0 -10 0 0 15 0 15 10 0 10 0 0 -15z m410 -5 l0 -10 -10
0 -10 0 0 10 0 10 10 0 10 0 0 -10z m-177 -144 l6 -15 -15 6 -14 5 0 9 0 9 9
0 9 0 5 -14z"/>
<path d="M640 1060 l0 -10 10 0 10 0 0 10 0 10 -10 0 -10 0 0 -10z"/>
<path d="M50 1085 l0 -14 15 5 15 6 0 9 0 9 -15 0 -15 0 0 -15z"/>
<path d="M296 1054 l-6 -16 6 -23 6 -23 -19 -10 -18 -10 8 -8 8 -8 7 10 7 11
23 7 22 7 0 9 0 9 -20 6 -20 6 0 15 0 14 10 0 10 0 0 10 0 10 -9 0 -9 0 -6
-16z"/>
<path d="M345 1023 l7 -28 4 -5 5 -4 9 13 8 14 -5 13 -5 12 -15 6 -15 6 7 -27z"/>
<path d="M230 1028 l0 -13 10 -15 10 -15 9 14 9 14 -5 14 -5 13 -14 0 -14 0 0
-12z"/>
<path d="M1107 1004 l5 -14 9 0 9 0 0 9 0 9 -14 5 -15 6 6 -15z"/>
<path d="M380 1000 l0 -10 15 0 15 0 0 10 0 10 -15 0 -15 0 0 -10z"/>
<path d="M960 1000 l0 -10 10 0 10 0 0 10 0 10 -10 0 -10 0 0 -10z"/>
<path d="M240 970 l0 -10 10 0 10 0 0 10 0 10 -10 0 -10 0 0 -10z"/>
<path d="M350 970 l0 -10 10 0 10 0 0 10 0 10 -10 0 -10 0 0 -10z"/>
<path d="M1161 973 l-1 -13 -15 0 -15 0 0 -16 0 -15 11 6 11 7 21 -23 21 -22
0 -56 0 -56 4 28 3 27 10 0 9 0 0 20 0 20 -10 0 -10 0 0 25 0 24 -14 8 -14 8
-5 20 -5 20 -1 -12z"/>
<path d="M300 951 l0 -8 -30 -7 -30 -6 -19 -17 -18 -18 5 -37 4 -38 9 0 9 0 0
-15 0 -16 14 -5 15 -6 6 -29 7 -30 11 4 12 4 -3 24 -3 24 -14 8 -15 8 0 14 0
13 -9 4 -9 3 -7 43 -7 42 16 0 16 0 0 9 0 9 30 6 30 6 0 10 0 10 -10 0 -10 0
0 -9z"/>
<path d="M330 930 l-15 -10 15 -10 15 -10 20 2 20 1 -23 4 -24 5 6 14 5 14 -2
0 -2 0 -15 -10z"/>
<path d="M1088 933 l13 -5 6 6 6 6 -19 -1 -19 -1 13 -5z"/>
<path d="M1257 924 l5 -14 9 0 9 0 0 9 0 9 -14 5 -15 6 6 -15z"/>
<path d="M1010 920 l0 -10 30 0 30 0 0 10 0 10 -30 0 -30 0 0 -10z"/>
<path d="M543 903 l-13 -5 0 -9 0 -9 9 0 9 0 6 15 5 15 -2 -1 -2 -1 -12 -5z"/>
<path d="M1090 903 l-15 -6 -6 -9 -5 -8 -40 -5 -39 -5 -3 -10 -4 -10 -19 0
-19 0 0 13 0 12 -10 -15 -9 -14 -91 -1 -91 0 -10 15 -11 15 6 -18 6 -18 -147
6 -147 5 -6 9 -5 8 -64 5 -65 5 -4 11 -4 12 -9 0 -9 0 0 -40 0 -40 10 0 10 0
0 -15 0 -16 15 -5 15 -6 0 -10 0 -9 14 -14 14 -14 26 -7 26 -6 0 -8 0 -8 35
-6 35 -7 0 -9 0 -10 -14 0 -14 0 -4 9 -3 9 -33 7 -34 7 4 -18 3 -19 30 -2 30
-2 3 -11 4 -10 13 0 13 0 5 -12 4 -13 9 8 8 8 -14 9 -14 9 8 8 9 8 4 -12 5
-13 18 0 18 0 5 -12 5 -13 10 14 10 13 5 -13 5 -14 10 14 10 13 5 -13 5 -14
10 14 10 13 3 -10 4 -11 38 -4 37 -4 0 11 0 11 -9 14 -9 14 -74 -1 -73 0 -22
5 -23 5 0 9 0 9 14 0 14 0 5 -12 5 -13 1 13 1 12 39 0 39 0 5 -12 5 -13 1 13
1 12 101 0 101 0 -4 -12 -5 -13 -26 -3 -27 -3 0 -5 0 -5 15 -15 15 -15 0 10 0
11 15 0 15 0 0 11 0 10 13 13 13 13 57 7 57 7 0 -15 0 -16 15 0 15 0 -6 26 -6
25 21 6 21 5 0 9 0 9 14 0 14 0 41 40 40 39 7 26 6 25 9 0 9 0 0 -20 0 -20 -9
0 -9 0 -6 -24 -6 -25 -21 -6 -21 -7 -19 -19 -19 -19 0 -10 0 -10 6 0 7 0 50
51 50 51 1 42 1 41 -30 2 -30 2 -15 -6z m-630 -80 l0 -14 -27 3 -28 3 -3 16
-3 16 31 -5 30 -4 0 -15z m445 -12 l-6 -21 -30 0 -29 0 0 15 0 15 30 0 30 0 0
12 0 11 6 -6 6 -5 -7 -21z m-215 -6 l0 -15 -36 0 -35 0 -15 15 -15 15 50 0 51
0 0 -15z m320 -34 l0 -9 -16 -6 -16 -6 -9 0 -9 0 0 15 0 15 25 0 25 0 0 -9z
m-476 -33 l13 -12 -13 -13 -13 -13 -25 0 -26 0 0 10 0 11 13 14 12 14 13 1 13
0 13 -12z m322 -2 l14 -15 0 -10 0 -11 -45 0 -45 0 0 9 0 9 6 16 6 16 25 0 24
0 15 -14z"/>
<path d="M400 890 l0 -10 15 0 15 0 0 10 0 10 -15 0 -15 0 0 -10z"/>
<path d="M440 890 l0 -10 10 0 10 0 0 10 0 10 -10 0 -10 0 0 -10z"/>
<path d="M490 890 l0 -10 15 0 15 0 0 10 0 10 -15 0 -15 0 0 -10z"/>
<path d="M30 860 l0 -10 10 0 10 0 0 10 0 10 -10 0 -10 0 0 -10z"/>
<path d="M760 860 l0 -10 10 0 10 0 0 10 0 10 -10 0 -10 0 0 -10z"/>
<path d="M1154 782 l-11 -7 -8 -25 -8 -25 -11 -7 -10 -7 6 -6 6 -7 21 21 20
20 7 26 6 25 -3 0 -4 0 -11 -8z"/>
<path d="M300 717 l0 -15 24 -4 25 -5 13 8 12 8 -5 5 -5 6 -32 6 -32 7 0 -16z"/>
<path d="M1008 723 l-18 -4 0 -15 0 -14 9 0 9 0 16 6 16 6 0 14 0 14 -7 -1 -8
-1 -17 -5z"/>
<path d="M1080 710 l0 -10 10 0 10 0 0 10 0 10 -10 0 -10 0 0 -10z"/>
<path d="M910 681 l0 -9 -35 -6 -35 -7 0 -9 0 -10 20 0 20 0 0 10 0 10 30 0
30 0 0 15 0 15 -15 0 -15 0 0 -9z"/>
<path d="M1015 659 l-7 -10 3 -4 4 -3 13 14 13 14 -10 0 -10 0 -6 -11z"/>
<path d="M700 650 l0 -10 15 0 15 0 0 -10 0 -10 10 0 10 0 0 20 0 20 -25 0
-25 0 0 -10z"/>
<path d="M370 625 l0 -15 15 0 15 0 0 -12 0 -11 7 6 7 7 -22 20 -22 21 0 -16z"/>
<path d="M431 604 l1 -19 5 13 5 13 -6 6 -6 6 1 -19z"/>
<path d="M630 583 l-14 -6 -11 -10 -11 -11 15 -18 15 -18 8 0 8 0 0 15 0 15
-12 0 -11 0 23 20 23 20 -9 -1 -9 -1 -15 -5z"/>
<path d="M760 540 l0 -10 10 0 10 0 0 10 0 10 -10 0 -10 0 0 -10z"/>
</g>
</svg>
