<?xml version="1.0" standalone="no"?>
<!DOCTYPE svg PUBLIC "-//W3C//DTD SVG 20010904//EN"
 "http://www.w3.org/TR/2001/REC-SVG-20010904/DTD/svg10.dtd">
<svg version="1.0" xmlns="http://www.w3.org/2000/svg"
 width="468pt" height="468pt" viewBox="0 0 468 468"
 preserveAspectRatio="xMidYMid meet">
<metadata>
Created by potrace 1.8, written by Peter Selinger 2001-2007
</metadata>
<g transform="translate(0,468) scale(0.365625,-0.365625)"
fill="#000000" stroke="none">
<path d="M590 1040 l0 -80 25 0 25 0 0 80 0 80 -25 0 -25 0 0 -80z"/>
<path d="M210 1040 l0 -30 30 0 30 0 0 -25 0 -25 25 0 25 0 0 -25 0 -25 25 0
25 0 0 25 0 25 -25 0 -25 0 0 25 0 25 -25 0 -25 0 0 30 0 30 -30 0 -30 0 0
-30z"/>
<path d="M430 1015 l0 -55 25 0 25 0 0 55 0 55 -25 0 -25 0 0 -55z"/>
<path d="M750 1015 l0 -55 25 0 25 0 0 55 0 55 -25 0 -25 0 0 -55z"/>
<path d="M960 1040 l0 -30 -25 0 -25 0 0 -25 0 -25 -30 0 -30 0 0 -25 0 -25
30 0 30 0 0 25 0 25 25 0 25 0 0 25 0 25 25 0 25 0 0 30 0 30 -25 0 -25 0 0
-30z"/>
<path d="M160 880 l0 -30 25 0 25 0 0 -25 0 -25 30 0 30 0 0 25 0 25 -30 0
-30 0 0 30 0 30 -25 0 -25 0 0 -30z"/>
<path d="M430 880 l0 -30 -30 0 -30 0 0 -25 0 -25 -25 0 -25 0 0 -55 0 -55 25
0 25 0 0 -25 0 -25 30 0 30 0 0 -25 0 -25 25 0 25 0 0 -30 0 -30 25 0 25 0 0
-25 0 -25 30 0 30 0 0 -25 0 -25 25 0 25 0 0 25 0 25 25 0 25 0 0 25 0 25 30
0 30 0 0 30 0 30 25 0 25 0 0 25 0 25 25 0 25 0 0 25 0 25 30 0 30 0 0 55 0
55 -30 0 -30 0 0 25 0 25 -25 0 -25 0 0 30 0 30 -185 0 -185 0 0 -30z m100
-55 l0 -25 30 0 30 0 0 25 0 25 25 0 25 0 0 -25 0 -25 25 0 25 0 0 25 0 25 30
0 30 0 0 -25 0 -25 25 0 25 0 0 -25 0 -25 25 0 25 0 0 -30 0 -30 -25 0 -25 0
0 -25 0 -25 -25 0 -25 0 0 -25 0 -25 -30 0 -30 0 0 -30 0 -30 -25 0 -25 0 0
-25 0 -25 -25 0 -25 0 0 25 0 25 -30 0 -30 0 0 30 0 30 -25 0 -25 0 0 25 0 25
-25 0 -25 0 0 25 0 25 -30 0 -30 0 0 30 0 30 30 0 30 0 0 25 0 25 25 0 25 0 0
25 0 25 25 0 25 0 0 -25z"/>
<path d="M480 775 l0 -25 -25 0 -25 0 0 -30 0 -30 25 0 25 0 0 -25 0 -25 25 0
25 0 0 -25 0 -25 30 0 30 0 0 -30 0 -30 25 0 25 0 0 30 0 30 25 0 25 0 0 25 0
25 30 0 30 0 0 25 0 25 25 0 25 0 0 30 0 30 -25 0 -25 0 0 25 0 25 -30 0 -30
0 0 -25 0 -25 -25 0 -25 0 0 25 0 25 -25 0 -25 0 0 -25 0 -25 -30 0 -30 0 0
25 0 25 -25 0 -25 0 0 -25z m50 -55 l0 -30 30 0 30 0 0 30 0 30 25 0 25 0 0
-30 0 -30 25 0 25 0 0 30 0 30 30 0 30 0 0 -30 0 -30 -30 0 -30 0 0 -25 0 -25
-25 0 -25 0 0 -25 0 -25 -25 0 -25 0 0 25 0 25 -30 0 -30 0 0 25 0 25 -25 0
-25 0 0 30 0 30 25 0 25 0 0 -30z"/>
<path d="M590 665 l0 -25 25 0 25 0 0 25 0 25 -25 0 -25 0 0 -25z"/>
<path d="M1010 880 l0 -30 -25 0 -25 0 0 -25 0 -25 25 0 25 0 0 25 0 25 30 0
30 0 0 30 0 30 -30 0 -30 0 0 -30z"/>
<path d="M110 720 l0 -30 80 0 80 0 0 30 0 30 -80 0 -80 0 0 -30z"/>
<path d="M960 720 l0 -30 80 0 80 0 0 30 0 30 -80 0 -80 0 0 -30z"/>
<path d="M270 615 l0 -25 -30 0 -30 0 0 -30 0 -30 30 0 30 0 0 30 0 30 25 0
25 0 0 25 0 25 -25 0 -25 0 0 -25z"/>
<path d="M910 615 l0 -25 25 0 25 0 0 -30 0 -30 25 0 25 0 0 30 0 30 -25 0
-25 0 0 25 0 25 -25 0 -25 0 0 -25z"/>
<path d="M320 505 l0 -25 -25 0 -25 0 0 -25 0 -25 -30 0 -30 0 0 -30 0 -30 30
0 30 0 0 30 0 30 25 0 25 0 0 25 0 25 25 0 25 0 0 25 0 25 -25 0 -25 0 0 -25z"/>
<path d="M850 505 l0 -25 30 0 30 0 0 -25 0 -25 25 0 25 0 0 -30 0 -30 25 0
25 0 0 30 0 30 -25 0 -25 0 0 25 0 25 -25 0 -25 0 0 25 0 25 -30 0 -30 0 0
-25z"/>
<path d="M430 400 l0 -30 -30 0 -30 0 0 -25 0 -25 30 0 30 0 0 25 0 25 25 0
25 0 0 30 0 30 -25 0 -25 0 0 -30z"/>
<path d="M750 400 l0 -30 25 0 25 0 0 -25 0 -25 25 0 25 0 0 25 0 25 -25 0
-25 0 0 30 0 30 -25 0 -25 0 0 -30z"/>
<path d="M590 290 l0 -80 25 0 25 0 0 80 0 80 -25 0 -25 0 0 -80z"/>
</g>
</svg>
