<?xml version="1.0" standalone="no"?>
<!DOCTYPE svg PUBLIC "-//W3C//DTD SVG 20010904//EN"
 "http://www.w3.org/TR/2001/REC-SVG-20010904/DTD/svg10.dtd">
<svg version="1.0" xmlns="http://www.w3.org/2000/svg"
 width="468pt" height="468pt" viewBox="0 0 468 468"
 preserveAspectRatio="xMidYMid meet">
<metadata>
Created by potrace 1.8, written by Peter Selinger 2001-2007
</metadata>
<g transform="translate(0,468) scale(0.365625,-0.365625)"
fill="#000000" stroke="none">
<path d="M400 1185 l0 -15 15 0 15 0 0 15 0 15 -15 0 -15 0 0 -15z"/>
<path d="M430 1120 l0 -30 10 0 10 0 0 30 0 30 -10 0 -10 0 0 -30z"/>
<path d="M670 1120 l0 -30 -15 0 -15 0 0 -10 0 -10 15 0 15 0 0 -55 0 -55 10
0 10 0 0 -15 0 -15 15 0 15 0 0 -50 0 -50 15 0 15 0 0 25 0 25 10 0 10 0 0 25
0 25 -10 0 -10 0 0 30 0 30 -15 0 -15 0 0 25 0 25 -15 0 -15 0 0 55 0 55 -10
0 -10 0 0 -30z"/>
<path d="M210 1080 l0 -10 15 0 15 0 0 -15 0 -15 15 0 15 0 0 15 0 15 -15 0
-15 0 0 10 0 10 -15 0 -15 0 0 -10z"/>
<path d="M450 1055 l0 -15 15 0 15 0 0 15 0 15 -15 0 -15 0 0 -15z"/>
<path d="M270 1000 l0 -10 10 0 10 0 0 -15 0 -15 15 0 15 0 0 15 0 15 -15 0
-15 0 0 10 0 10 -10 0 -10 0 0 -10z"/>
<path d="M450 1000 l0 -10 -25 0 -25 0 0 -15 0 -15 -25 0 -25 0 0 -14 0 -14
13 -6 12 -6 -12 -6 -13 -6 0 -14 0 -14 10 0 10 0 0 15 0 15 15 0 15 0 0 -30 0
-30 15 0 15 0 0 15 0 15 10 0 10 0 0 15 0 15 26 0 25 0 15 14 14 15 0 10 0 11
-10 0 -10 0 0 14 0 14 13 5 12 4 -9 9 -9 9 -4 -12 -5 -13 -14 0 -14 0 0 10 0
10 -15 0 -15 0 0 -10z"/>
<path d="M560 920 l0 -10 -25 0 -25 0 0 -15 0 -15 -30 0 -30 0 0 -15 0 -15
-10 0 -10 0 0 -25 0 -25 -15 0 -15 0 0 -15 0 -15 -15 0 -15 0 0 -10 0 -10 15
0 15 0 0 -30 0 -30 65 0 65 0 0 15 0 15 30 0 30 0 0 15 0 15 25 0 25 0 0 10 0
10 15 0 15 0 0 29 0 29 13 6 12 6 -12 6 -13 6 0 29 0 29 -15 0 -15 0 0 10 0
10 -40 0 -40 0 0 -10z"/>
<path d="M850 880 l0 -30 -10 0 -10 0 0 -50 0 -50 -40 0 -40 0 0 25 0 25 -30
0 -30 0 0 -11 0 -10 -14 -15 -15 -14 -10 0 -11 0 0 -15 0 -15 -15 0 -15 0 0
-25 0 -25 15 0 15 0 0 -30 0 -30 11 0 10 0 15 -14 14 -15 0 -25 0 -26 15 0 15
0 0 -25 0 -25 15 0 15 0 0 -15 0 -15 10 0 10 0 0 -25 0 -25 15 0 15 0 0 -15 0
-15 15 0 15 0 0 -25 0 -25 10 0 10 0 0 -25 0 -25 15 0 15 0 0 -15 0 -15 25 0
25 0 0 15 0 15 15 0 15 0 0 40 0 40 -15 0 -15 0 0 40 0 40 -10 0 -10 0 0 40 0
40 -15 0 -15 0 0 40 0 40 -15 0 -15 0 0 10 0 10 15 0 15 0 0 -10 0 -10 15 0
15 0 0 -15 0 -15 10 0 10 0 0 -15 0 -15 15 0 15 0 0 -10 0 -10 15 0 15 0 0
-15 0 -15 10 0 10 0 0 -15 0 -15 55 0 55 0 0 15 0 15 -40 0 -40 0 0 15 0 15
-11 0 -10 0 -15 14 -14 15 0 10 0 11 -15 0 -15 0 0 15 0 15 -11 0 -10 0 -15
14 -14 15 0 10 0 11 -15 0 -15 0 0 15 0 15 -40 0 -40 0 0 25 0 25 25 0 25 0 0
40 0 40 15 0 15 0 0 25 0 25 15 0 15 0 0 15 0 15 -15 0 -15 0 0 15 0 15 -15 0
-15 0 0 -30z"/>
<path d="M130 865 l0 -15 15 0 15 0 0 -10 0 -10 25 0 25 0 0 -15 0 -15 15 0
15 0 0 -25 0 -25 15 0 15 0 0 -15 0 -15 10 0 10 0 0 -25 0 -25 15 0 15 0 0
-15 0 -15 55 0 55 0 0 -25 0 -25 10 0 10 0 0 -30 0 -30 -25 0 -25 0 0 15 0 15
-40 0 -40 0 0 15 0 15 -15 0 -15 0 0 -15 0 -15 -10 0 -10 0 0 -15 0 -15 25 0
25 0 0 -10 0 -10 95 0 95 0 0 -40 0 -40 -15 0 -15 0 0 -15 0 -15 15 0 15 0 0
-55 0 -55 10 0 10 0 0 -25 0 -25 15 0 15 0 0 -40 0 -40 -15 0 -15 0 0 -40 0
-40 15 0 15 0 0 25 0 25 15 0 15 0 0 30 0 30 10 0 10 0 0 25 0 25 -10 0 -10 0
0 15 0 15 -15 0 -15 0 0 25 0 25 -15 0 -15 0 0 55 0 55 15 0 15 0 0 -15 0 -15
15 0 15 0 0 -15 0 -15 10 0 10 0 0 -25 0 -25 15 0 15 0 0 -15 0 -15 15 0 15 0
0 -25 0 -25 10 0 10 0 0 -15 0 -15 30 0 30 0 0 -10 0 -10 50 0 50 0 0 25 0 25
-10 0 -10 0 0 25 0 25 -15 0 -15 0 0 30 0 30 -11 0 -10 0 -15 14 -14 15 0 25
0 26 -15 0 -15 0 0 25 0 25 -15 0 -15 0 0 25 0 25 -10 0 -10 0 0 15 0 15 -15
0 -15 0 0 25 0 25 -15 0 -15 0 0 26 0 25 -14 15 -15 14 -25 0 -26 0 0 -10 0
-10 -90 0 -90 0 0 25 0 25 -15 0 -15 0 0 15 0 15 -15 0 -15 0 0 25 0 25 -10 0
-10 0 0 15 0 15 -15 0 -15 0 0 10 0 10 -40 0 -40 0 0 15 0 15 -15 0 -15 0 0
-15z"/>
</g>
</svg>
