<?xml version="1.0" standalone="no"?>
<!DOCTYPE svg PUBLIC "-//W3C//DTD SVG 20010904//EN"
 "http://www.w3.org/TR/2001/REC-SVG-20010904/DTD/svg10.dtd">
<svg version="1.0" xmlns="http://www.w3.org/2000/svg"
 width="468pt" height="468pt" viewBox="0 0 468 468"
 preserveAspectRatio="xMidYMid meet">
<metadata>
Created by potrace 1.8, written by Peter Selinger 2001-2007
</metadata>
<g transform="translate(0,468) scale(0.365625,-0.365625)"
fill="#000000" stroke="none">
<path d="M400 1270 l0 -10 -50 0 -50 0 0 -15 0 -15 -20 0 -20 0 0 -10 0 -10
-11 0 -10 0 -15 -14 -14 -15 0 -6 0 -6 -14 -15 -15 -14 -10 0 -11 0 0 -25 0
-25 -20 0 -20 0 0 -10 0 -10 -11 0 -10 0 -15 -14 -14 -15 0 -6 0 -6 -14 -15
-15 -14 -10 0 -11 0 0 -35 0 -35 -10 0 -10 0 0 -25 0 -25 10 0 10 0 0 -20 0
-20 15 0 15 0 0 -15 0 -15 20 0 20 0 0 -10 0 -10 15 0 15 0 0 -33 0 -33 20
-14 20 -14 0 -13 0 -13 25 0 25 0 0 -10 0 -10 31 0 30 0 15 -14 14 -15 0 -30
0 -31 11 0 10 0 15 -14 14 -15 0 -6 0 -6 14 -15 15 -14 10 0 11 0 0 -10 0 -10
20 0 20 0 0 -50 0 -50 15 0 15 0 0 -20 0 -20 10 0 10 0 0 -15 0 -15 21 0 20 0
15 -14 14 -15 0 -40 0 -41 -10 0 -10 0 0 -15 0 -15 -25 0 -25 0 0 25 0 25 -25
0 -25 0 0 -35 0 -35 -220 0 -220 0 0 -70 0 -70 640 0 640 0 0 70 0 70 -360 0
-360 0 0 10 0 10 25 0 25 0 0 25 0 25 10 0 10 0 0 25 0 25 -10 0 -10 0 0 20 0
20 -15 0 -15 0 0 13 0 13 -20 14 -20 14 0 23 0 23 -15 0 -15 0 0 10 0 10 80 0
80 0 0 10 0 10 15 0 15 0 0 15 0 15 10 0 10 0 0 31 0 30 -14 15 -15 14 -10 0
-11 0 0 10 0 10 -65 0 -65 0 0 -10 0 -10 -21 0 -20 0 -15 -14 -14 -15 0 -10 0
-11 -25 0 -25 0 0 11 0 10 -14 15 -15 14 -10 0 -11 0 0 25 0 25 -10 0 -10 0 0
20 0 20 25 0 25 0 0 10 0 10 55 0 55 0 0 -10 0 -10 15 0 15 0 0 -10 0 -10 35
0 35 0 0 -10 0 -10 30 0 30 0 0 -15 0 -15 95 0 95 0 0 15 0 15 21 0 20 0 15
14 14 15 0 15 0 16 45 0 45 0 0 15 0 15 25 0 25 0 0 10 0 10 21 0 20 0 15 14
14 15 0 10 0 11 10 0 10 0 0 35 0 35 13 0 13 0 14 20 14 20 23 0 23 0 0 15 0
15 10 0 10 0 0 90 0 90 -10 0 -10 0 0 15 0 15 -10 0 -11 0 -24 25 -25 24 0 11
0 10 -35 0 -35 0 0 10 0 10 -105 0 -105 0 0 -10 0 -10 -60 0 -60 0 0 -15 0
-15 -35 0 -35 0 0 -10 0 -10 -31 0 -30 0 -15 14 -14 15 0 6 0 6 -14 15 -15 14
-10 0 -11 0 0 10 0 10 -20 0 -20 0 0 15 0 15 -50 0 -50 0 0 10 0 10 -20 0 -20
0 0 -10z m70 -50 l0 -10 20 0 20 0 0 -10 0 -10 25 0 25 0 0 -11 0 -10 14 -15
15 -14 10 0 11 0 0 -25 0 -25 10 0 10 0 0 -35 0 -35 -10 0 -10 0 0 15 0 15
-25 0 -25 0 0 10 0 10 -45 0 -45 0 0 10 0 10 -25 0 -25 0 0 15 0 15 -95 0 -95
0 0 20 0 20 15 0 15 0 0 11 0 10 14 15 15 14 20 0 21 0 0 10 0 10 70 0 70 0 0
-10z m550 -70 l0 -10 50 0 50 0 0 -10 0 -10 20 0 20 0 0 -15 0 -15 10 0 11 0
24 -25 25 -24 0 -66 0 -65 -10 0 -10 0 0 -15 0 -15 -25 0 -25 0 0 10 0 11 -25
24 -24 25 -21 0 -20 0 0 15 0 15 -45 0 -45 0 0 10 0 10 -35 0 -35 0 0 -10 0
-10 -60 0 -60 0 0 -15 0 -15 -10 0 -10 0 0 15 0 15 -35 0 -35 0 0 10 0 10 -15
0 -15 0 0 60 0 60 50 0 50 0 0 10 0 10 45 0 45 0 0 10 0 10 80 0 80 0 0 -10z
m-670 -90 l0 -10 35 0 35 0 0 -15 0 -15 -25 0 -25 0 0 -10 0 -10 -35 0 -35 0
0 10 0 10 -20 0 -20 0 0 15 0 15 -15 0 -15 0 0 10 0 10 60 0 60 0 0 -10z
m-160 -20 l0 -11 25 -24 24 -25 81 0 80 0 0 10 0 10 70 0 70 0 0 -10 0 -10 20
0 20 0 0 -25 0 -25 24 0 24 0 5 13 4 12 8 -7 7 -7 -15 -16 -16 -15 -20 0 -21
0 0 10 0 10 -20 0 -20 0 0 10 0 10 -15 0 -15 0 0 15 0 15 -20 0 -20 0 0 -25 0
-25 20 0 20 0 0 -10 0 -10 25 0 25 0 0 -15 0 -15 45 0 45 0 0 15 0 15 45 0 45
0 0 -15 0 -15 35 0 35 0 0 -10 0 -10 35 0 35 0 0 -10 0 -10 120 0 120 0 0 -25
0 -25 -15 0 -15 0 0 -25 0 -25 -20 0 -20 0 0 -10 0 -10 -35 0 -35 0 0 -10 0
-10 -11 0 -10 0 -15 14 -14 15 0 16 0 16 -14 15 -15 14 -20 0 -21 0 0 10 0 10
-60 0 -60 0 0 -10 0 -10 15 0 15 0 0 -10 0 -10 45 0 45 0 0 -25 0 -25 -10 0
-10 0 0 10 0 10 -35 0 -35 0 0 15 0 15 -15 0 -15 0 0 10 0 10 -35 0 -35 0 0
10 0 10 -20 0 -20 0 0 15 0 15 -25 0 -25 0 0 10 0 10 -20 0 -20 0 0 10 0 10
-35 0 -35 0 0 15 0 15 -35 0 -35 0 0 10 0 10 -85 0 -85 0 0 -10 0 -10 -20 0
-20 0 0 -15 0 -15 -24 0 -24 0 -6 -12 -6 -13 -6 13 -6 12 -14 0 -14 0 0 15 0
15 -10 0 -10 0 0 35 0 35 10 0 10 0 0 20 0 20 15 0 15 0 0 15 0 15 35 0 35 0
0 -10z m810 -100 l0 -10 25 0 25 0 0 -10 0 -10 20 0 20 0 0 -15 0 -15 -70 0
-70 0 0 15 0 15 -45 0 -45 0 0 10 0 10 -25 0 -25 0 0 10 0 10 95 0 95 0 0 -10z
m-600 -80 l0 -20 -105 0 -105 0 0 20 0 20 105 0 105 0 0 -20z m90 -35 l0 -15
25 0 25 0 0 -10 0 -10 20 0 20 0 0 -10 0 -10 15 0 15 0 0 -15 0 -15 -35 0 -35
0 0 -10 0 -10 -15 0 -15 0 0 10 0 10 -20 0 -20 0 0 15 0 15 -60 0 -60 0 0 -11
0 -10 -14 -15 -15 -14 -10 0 -11 0 0 -10 0 -10 -30 0 -31 0 -24 25 -25 24 0
21 0 20 55 0 55 0 0 10 0 10 60 0 60 0 0 15 0 15 35 0 35 0 0 -15z m180 -95
l0 -10 25 0 25 0 0 -10 0 -10 35 0 35 0 0 -15 0 -15 45 0 45 0 0 -5 0 -6 -25
-24 -24 -25 -46 0 -45 0 0 10 0 10 -35 0 -35 0 0 10 0 10 -16 0 -15 0 -15 14
-14 15 0 10 0 11 -25 0 -25 0 0 10 0 10 25 0 25 0 0 10 0 10 30 0 30 0 0 -10z
m-230 -20 l0 -10 -35 0 -35 0 0 -15 0 -15 -10 0 -10 0 0 25 0 25 45 0 45 0 0
-10z m170 -160 l0 -10 20 0 20 0 0 -14 0 -14 13 -5 12 -4 -22 -20 -23 -20 0
-12 0 -11 -45 0 -45 0 0 15 0 15 -25 0 -25 0 0 20 0 20 10 0 10 0 0 15 0 15
25 0 25 0 0 10 0 10 25 0 25 0 0 -10z"/>
<path d="M560 1080 l0 -10 25 0 25 0 0 10 0 10 -25 0 -25 0 0 -10z"/>
</g>
</svg>
