<?xml version="1.0" standalone="no"?>
<!DOCTYPE svg PUBLIC "-//W3C//DTD SVG 20010904//EN"
 "http://www.w3.org/TR/2001/REC-SVG-20010904/DTD/svg10.dtd">
<svg version="1.0" xmlns="http://www.w3.org/2000/svg"
 width="468pt" height="468pt" viewBox="0 0 468 468"
 preserveAspectRatio="xMidYMid meet">
<metadata>
Created by potrace 1.8, written by Peter Selinger 2001-2007
</metadata>
<g transform="translate(0,468) scale(0.365625,-0.365625)"
fill="#000000" stroke="none">
<path d="M640 1255 l0 -25 25 0 25 0 0 25 0 25 -25 0 -25 0 0 -25z"/>
<path d="M430 1200 l0 -30 25 0 25 0 0 30 0 30 -25 0 -25 0 0 -30z"/>
<path d="M640 1065 l0 -105 -25 0 -25 0 0 -25 0 -25 -30 0 -30 0 0 50 0 50
-25 0 -25 0 0 55 0 55 -25 0 -25 0 0 -135 0 -135 -30 0 -30 0 0 -80 0 -80 -25
0 -25 0 0 -80 0 -80 -25 0 -25 0 0 -130 0 -130 25 0 25 0 0 -55 0 -55 25 0 25
0 0 -25 0 -25 55 0 55 0 0 -30 0 -30 135 0 135 0 0 30 0 30 50 0 50 0 0 25 0
25 30 0 30 0 0 25 0 25 25 0 25 0 0 55 0 55 25 0 25 0 0 105 0 105 -25 0 -25
0 0 55 0 55 -25 0 -25 0 0 55 0 55 -30 0 -30 0 0 50 0 50 -25 0 -25 0 0 55 0
55 -25 0 -25 0 0 55 0 55 -30 0 -30 0 0 50 0 50 -25 0 -25 0 0 -105z m0 -210
l0 -55 -25 0 -25 0 0 55 0 55 25 0 25 0 0 -55z m-160 -30 l0 -25 -25 0 -25 0
0 25 0 25 25 0 25 0 0 -25z m320 -130 l0 -55 25 0 25 0 0 -55 0 -55 -25 0 -25
0 0 55 0 55 -25 0 -25 0 0 55 0 55 25 0 25 0 0 -55z m-320 -55 l0 -50 -25 0
-25 0 0 50 0 50 25 0 25 0 0 -50z m-110 -240 l0 -80 -25 0 -25 0 0 80 0 80 25
0 25 0 0 -80z m160 25 l0 -55 30 0 30 0 0 -25 0 -25 25 0 25 0 0 -25 0 -25
-55 0 -55 0 0 25 0 25 -25 0 -25 0 0 80 0 80 25 0 25 0 0 -55z m380 -50 l0
-55 -30 0 -30 0 0 -55 0 -55 -25 0 -25 0 0 -25 0 -25 -55 0 -55 0 0 25 0 25
30 0 30 0 0 30 0 30 25 0 25 0 0 25 0 25 25 0 25 0 0 55 0 55 30 0 30 0 0 -55z
m-480 -135 l0 -30 -30 0 -30 0 0 30 0 30 30 0 30 0 0 -30z m160 -105 l0 -25
-30 0 -30 0 0 25 0 25 30 0 30 0 0 -25z"/>
</g>
</svg>
