<?xml version="1.0" standalone="no"?>
<!DOCTYPE svg PUBLIC "-//W3C//DTD SVG 20010904//EN"
 "http://www.w3.org/TR/2001/REC-SVG-20010904/DTD/svg10.dtd">
<svg version="1.0" xmlns="http://www.w3.org/2000/svg"
 width="468pt" height="468pt" viewBox="0 0 468 468"
 preserveAspectRatio="xMidYMid meet">
<metadata>
Created by potrace 1.8, written by Peter Selinger 2001-2007
</metadata>
<g transform="translate(0,468) scale(0.365625,-0.365625)"
fill="#000000" stroke="none">
<path d="M160 1200 l0 -30 -25 0 -25 0 0 -50 0 -50 50 0 50 0 0 25 0 25 30 0
30 0 0 25 0 25 -30 0 -30 0 0 30 0 30 -25 0 -25 0 0 -30z m50 -55 l0 -25 -25
0 -25 0 0 25 0 25 25 0 25 0 0 -25z"/>
<path d="M590 1200 l0 -30 25 0 25 0 0 30 0 30 -25 0 -25 0 0 -30z"/>
<path d="M430 1145 l0 -25 -30 0 -30 0 0 -25 0 -25 80 0 80 0 0 25 0 25 -25 0
-25 0 0 25 0 25 -25 0 -25 0 0 -25z"/>
<path d="M750 1145 l0 -25 25 0 25 0 0 25 0 25 -25 0 -25 0 0 -25z"/>
<path d="M960 1145 l0 -25 -25 0 -25 0 0 -25 0 -25 -30 0 -30 0 0 -30 0 -30
135 0 135 0 0 55 0 55 -25 0 -25 0 0 25 0 25 -55 0 -55 0 0 -25z m110 -50 l0
-25 -55 0 -55 0 0 25 0 25 55 0 55 0 0 -25z"/>
<path d="M1170 1145 l0 -25 30 0 30 0 0 25 0 25 -30 0 -30 0 0 -25z"/>
<path d="M0 1095 l0 -25 25 0 25 0 0 25 0 25 -25 0 -25 0 0 -25z"/>
<path d="M750 1040 l0 -30 25 0 25 0 0 30 0 30 -25 0 -25 0 0 -30z"/>
<path d="M370 985 l0 -25 30 0 30 0 0 25 0 25 -30 0 -30 0 0 -25z"/>
<path d="M640 985 l0 -25 25 0 25 0 0 25 0 25 -25 0 -25 0 0 -25z"/>
<path d="M160 935 l0 -25 -25 0 -25 0 0 -30 0 -30 -30 0 -30 0 0 -25 0 -25 30
0 30 0 0 -25 0 -25 105 0 105 0 0 25 0 25 25 0 25 0 0 25 0 25 -25 0 -25 0 0
30 0 30 -25 0 -25 0 0 25 0 25 -55 0 -55 0 0 -25z m110 -80 l0 -55 -30 0 -30
0 0 25 0 25 -25 0 -25 0 0 30 0 30 55 0 55 0 0 -55z"/>
<path d="M800 880 l0 -30 -55 0 -55 0 0 -25 0 -25 55 0 55 0 0 25 0 25 25 0
25 0 0 -25 0 -25 55 0 55 0 0 25 0 25 -25 0 -25 0 0 30 0 30 -55 0 -55 0 0
-30z"/>
<path d="M1120 880 l0 -30 -25 0 -25 0 0 -25 0 -25 25 0 25 0 0 25 0 25 25 0
25 0 0 -25 0 -25 30 0 30 0 0 25 0 25 -30 0 -30 0 0 30 0 30 -25 0 -25 0 0
-30z"/>
<path d="M430 825 l0 -25 25 0 25 0 0 25 0 25 -25 0 -25 0 0 -25z"/>
<path d="M590 720 l0 -30 -30 0 -30 0 0 -50 0 -50 80 0 80 0 0 50 0 50 -25 0
-25 0 0 30 0 30 -25 0 -25 0 0 -30z m50 -55 l0 -25 -25 0 -25 0 0 25 0 25 25
0 25 0 0 -25z"/>
<path d="M750 720 l0 -30 25 0 25 0 0 30 0 30 -25 0 -25 0 0 -30z"/>
<path d="M1070 720 l0 -30 -30 0 -30 0 0 -25 0 -25 -25 0 -25 0 0 -25 0 -25
135 0 135 0 0 50 0 50 -30 0 -30 0 0 30 0 30 -50 0 -50 0 0 -30z m50 -55 l0
-25 -25 0 -25 0 0 25 0 25 25 0 25 0 0 -25z"/>
<path d="M210 615 l0 -25 -25 0 -25 0 0 -30 0 -30 -25 0 -25 0 0 -25 0 -25 25
0 25 0 0 25 0 25 25 0 25 0 0 -25 0 -25 80 0 80 0 0 55 0 55 -25 0 -25 0 0 25
0 25 -55 0 -55 0 0 -25z m110 -55 l0 -30 -55 0 -55 0 0 30 0 30 55 0 55 0 0
-30z"/>
<path d="M430 615 l0 -25 25 0 25 0 0 25 0 25 -25 0 -25 0 0 -25z"/>
<path d="M850 615 l0 -25 30 0 30 0 0 25 0 25 -30 0 -30 0 0 -25z"/>
<path d="M480 505 l0 -25 25 0 25 0 0 25 0 25 -25 0 -25 0 0 -25z"/>
<path d="M800 505 l0 -25 -25 0 -25 0 0 -25 0 -25 25 0 25 0 0 25 0 25 25 0
25 0 0 -25 0 -25 30 0 30 0 0 50 0 50 -55 0 -55 0 0 -25z"/>
<path d="M960 455 l0 -25 25 0 25 0 0 25 0 25 -25 0 -25 0 0 -25z"/>
<path d="M1170 455 l0 -25 30 0 30 0 0 25 0 25 -30 0 -30 0 0 -25z"/>
<path d="M480 400 l0 -30 -25 0 -25 0 0 -50 0 -50 25 0 25 0 0 25 0 25 25 0
25 0 0 25 0 25 30 0 30 0 0 -50 0 -50 50 0 50 0 0 25 0 25 -25 0 -25 0 0 25 0
25 -25 0 -25 0 0 30 0 30 -55 0 -55 0 0 -30z"/>
<path d="M50 345 l0 -25 30 0 30 0 0 25 0 25 -30 0 -30 0 0 -25z"/>
<path d="M210 345 l0 -25 -25 0 -25 0 0 -25 0 -25 55 0 55 0 0 25 0 25 25 0
25 0 0 -25 0 -25 25 0 25 0 0 25 0 25 -25 0 -25 0 0 25 0 25 -55 0 -55 0 0
-25z"/>
<path d="M1070 345 l0 -25 -30 0 -30 0 0 -25 0 -25 30 0 30 0 0 25 0 25 25 0
25 0 0 -25 0 -25 55 0 55 0 0 25 0 25 -30 0 -30 0 0 25 0 25 -50 0 -50 0 0
-25z"/>
<path d="M910 295 l0 -25 25 0 25 0 0 25 0 25 -25 0 -25 0 0 -25z"/>
<path d="M160 185 l0 -25 -25 0 -25 0 0 -25 0 -25 -30 0 -30 0 0 -30 0 -30 30
0 30 0 0 30 0 30 25 0 25 0 0 -30 0 -30 25 0 25 0 0 30 0 30 -25 0 -25 0 0 25
0 25 55 0 55 0 0 -55 0 -55 50 0 50 0 0 30 0 30 -25 0 -25 0 0 25 0 25 -25 0
-25 0 0 25 0 25 -55 0 -55 0 0 -25z"/>
<path d="M800 185 l0 -25 -25 0 -25 0 0 -25 0 -25 50 0 50 0 0 25 0 25 30 0
30 0 0 -25 0 -25 25 0 25 0 0 25 0 25 -25 0 -25 0 0 25 0 25 -55 0 -55 0 0
-25z"/>
<path d="M1070 185 l0 -25 25 0 25 0 0 25 0 25 -25 0 -25 0 0 -25z"/>
<path d="M530 135 l0 -25 55 0 55 0 0 25 0 25 -55 0 -55 0 0 -25z"/>
<path d="M430 80 l0 -30 25 0 25 0 0 30 0 30 -25 0 -25 0 0 -30z"/>
<path d="M1120 80 l0 -30 -25 0 -25 0 0 -25 0 -25 25 0 25 0 0 25 0 25 25 0
25 0 0 -25 0 -25 30 0 30 0 0 55 0 55 -55 0 -55 0 0 -30z"/>
<path d="M530 25 l0 -25 30 0 30 0 0 25 0 25 -30 0 -30 0 0 -25z"/>
<path d="M690 25 l0 -25 30 0 30 0 0 25 0 25 -30 0 -30 0 0 -25z"/>
<path d="M960 25 l0 -25 25 0 25 0 0 25 0 25 -25 0 -25 0 0 -25z"/>
</g>
</svg>
