<?xml version="1.0" standalone="no"?>
<!DOCTYPE svg PUBLIC "-//W3C//DTD SVG 20010904//EN"
 "http://www.w3.org/TR/2001/REC-SVG-20010904/DTD/svg10.dtd">
<svg version="1.0" xmlns="http://www.w3.org/2000/svg"
 width="468pt" height="468pt" viewBox="0 0 468 468"
 preserveAspectRatio="xMidYMid meet">
<metadata>
Created by potrace 1.8, written by Peter Selinger 2001-2007
</metadata>
<g transform="translate(0,468) scale(0.365625,-0.365625)"
fill="#000000" stroke="none">
<path d="M560 1270 l0 -10 -30 0 -30 0 0 -10 0 -10 -14 0 -14 0 -31 -29 -30
-28 -7 -40 -6 -40 16 -16 16 -16 0 -6 0 -6 -10 -12 -10 -12 -22 -25 -21 -25
-4 13 -5 12 -54 0 -54 0 0 -10 0 -10 -45 0 -45 0 0 -9 0 -9 -43 -6 -43 -7 -15
-21 -14 -21 -22 -23 -23 -23 0 -21 0 -20 10 0 10 0 0 -15 0 -14 40 -41 39 -40
16 0 15 0 0 -9 0 -9 50 -7 50 -7 0 -9 0 -9 -51 -50 -51 -50 6 -25 6 -25 30 0
30 0 0 -10 0 -10 10 0 10 0 0 20 0 19 24 23 23 23 22 15 21 14 6 18 5 18 20 0
19 0 0 -10 0 -10 45 0 45 0 0 -10 0 -10 110 0 110 0 0 10 0 10 35 0 35 0 0 10
0 10 19 0 20 0 6 20 6 20 8 0 8 0 21 19 22 18 0 32 0 31 -10 0 -10 0 0 15 0
16 -25 25 -24 24 -31 6 -30 7 0 4 0 4 33 33 34 33 56 7 57 7 0 10 0 9 20 0 20
0 0 10 0 10 10 0 11 0 24 25 25 24 0 11 0 10 10 0 10 0 0 30 0 30 -10 0 -10 0
0 10 0 11 -25 24 -24 25 -11 0 -10 0 0 9 0 10 -45 7 -45 6 0 9 0 9 -35 0 -35
0 0 10 0 10 -110 0 -110 0 0 -10z m220 -19 l0 -8 60 -7 60 -7 0 -9 0 -10 20 0
20 0 0 -10 0 -10 11 0 10 0 15 -14 14 -15 0 -10 0 -11 10 0 10 0 0 -26 0 -27
-22 -18 -21 -19 -34 0 -33 0 0 -10 0 -10 -105 0 -105 0 0 9 0 8 -52 5 -52 5
-4 12 -4 11 -19 0 -19 0 0 10 0 10 -19 0 -20 0 -6 20 -6 20 -10 0 -9 0 0 30 0
30 17 20 17 20 28 0 28 0 0 10 0 10 110 0 110 0 0 -9z m-330 -81 l0 -21 25
-25 26 -26 -6 -21 -5 -22 6 13 6 12 19 0 19 0 0 -9 0 -9 35 -6 35 -7 0 -9 0
-10 20 0 20 0 0 -6 0 -5 -14 -15 -15 -14 -20 0 -21 0 0 10 0 10 -20 0 -20 0 0
10 0 10 -20 0 -20 0 0 10 0 10 -14 0 -14 0 -31 29 -31 29 0 21 0 21 10 0 10 0
0 20 0 20 10 0 10 0 0 -20z m20 -130 l0 -10 15 0 15 0 0 -10 0 -10 20 0 20 0
0 -10 0 -10 20 0 20 0 0 -10 0 -10 -10 0 -9 0 -33 -34 -33 -35 -12 -13 -12
-13 -15 -12 -15 -13 -21 0 -20 0 0 10 0 10 -18 0 -19 0 -21 19 -22 18 0 14 0
15 21 14 22 15 21 21 21 21 15 22 14 21 18 0 18 0 0 -10z m220 -20 l0 -10 14
0 14 0 6 -12 6 -13 6 13 6 12 19 0 19 0 0 -12 0 -13 10 15 10 15 10 -15 10
-15 9 15 10 14 7 -6 6 -7 -17 -17 -17 -17 -10 14 -10 14 -5 -14 -5 -13 -10 13
-10 14 -5 -12 -5 -13 -18 0 -18 0 -6 13 -6 12 -6 -12 -6 -13 -24 0 -24 0 0 15
0 16 13 14 12 14 8 1 7 0 0 -10z m-330 -39 l0 -10 -19 -6 -20 -6 -6 -20 -6
-19 6 -19 6 -20 20 -6 19 -6 0 -10 0 -9 20 0 20 0 0 -10 0 -10 35 0 35 0 0
-10 0 -10 86 0 86 0 32 35 32 34 24 -6 25 -6 18 -20 17 -20 -5 -21 -5 -21 6
13 6 12 9 0 9 0 0 -14 0 -14 13 -6 12 -6 -12 -6 -13 -6 0 -19 0 -19 -9 0 -9 0
-6 13 -5 12 2 -25 2 -25 -25 2 -25 2 13 -5 12 -6 0 -9 0 -9 -19 0 -19 0 -5
-12 -4 -13 -9 9 -9 9 13 4 12 5 0 9 0 9 -9 0 -10 0 -6 -20 -6 -20 -20 0 -19 0
0 -10 0 -10 -19 0 -19 0 -6 13 -6 12 -6 -12 -6 -13 -59 0 -59 0 0 9 0 9 13 5
12 4 -9 9 -9 9 -4 -12 -5 -13 -54 0 -54 0 0 10 0 10 -35 0 -35 0 0 9 0 9 -55
7 -55 6 0 10 0 9 -25 0 -25 0 0 10 0 10 -15 0 -15 0 -30 29 -30 28 0 17 0 16
-10 0 -10 0 0 21 0 20 12 13 13 14 15 21 14 21 17 0 17 0 4 10 3 11 65 4 65 4
3 11 4 10 54 0 54 0 0 -9z m306 -28 l17 -18 5 14 4 13 9 -13 9 -14 9 15 10 14
7 -6 6 -7 -26 -28 -27 -28 -10 -10 -10 -10 -25 -24 -26 -24 -10 14 -10 14 -5
-14 -5 -13 -10 13 -10 14 -5 -12 -5 -13 -19 0 -19 0 0 8 0 8 21 14 22 15 11
13 11 13 24 25 23 25 -6 6 -6 7 -18 -23 -17 -23 -22 -21 -23 -22 -25 -22 -24
-23 -11 0 -10 0 0 15 0 15 55 55 56 55 34 0 34 0 17 -17z m-376 -288 l0 -6
-60 -59 -59 -60 -16 0 -15 0 0 20 0 20 10 0 9 0 36 35 35 36 0 9 0 10 30 0 30
0 0 -5z"/>
<path d="M700 1130 l0 -10 10 0 10 0 0 10 0 10 -10 0 -10 0 0 -10z"/>
<path d="M560 1040 l0 -10 10 0 10 0 0 10 0 10 -10 0 -10 0 0 -10z"/>
<path d="M110 910 l0 -10 10 0 10 0 0 10 0 10 -10 0 -10 0 0 -10z"/>
<path d="M90 820 l0 -10 10 0 10 0 0 10 0 10 -10 0 -10 0 0 -10z"/>
<path d="M740 820 l0 -10 10 0 10 0 0 10 0 10 -10 0 -10 0 0 -10z"/>
<path d="M140 800 l0 -10 10 0 10 0 0 10 0 10 -10 0 -10 0 0 -10z"/>
<path d="M410 800 l0 -10 10 0 10 0 0 10 0 10 -10 0 -10 0 0 -10z"/>
<path d="M230 770 l0 -10 10 0 10 0 0 10 0 10 -10 0 -10 0 0 -10z"/>
<path d="M760 770 l0 -10 10 0 10 0 0 10 0 10 -10 0 -10 0 0 -10z"/>
<path d="M790 770 l0 -10 10 0 10 0 0 10 0 10 -10 0 -10 0 0 -10z"/>
<path d="M180 750 l0 -10 10 0 10 0 0 10 0 10 -10 0 -10 0 0 -10z"/>
<path d="M540 750 l0 -10 10 0 10 0 0 10 0 10 -10 0 -10 0 0 -10z"/>
<path d="M650 750 l0 -10 10 0 10 0 0 10 0 10 -10 0 -10 0 0 -10z"/>
<path d="M700 750 l0 -10 10 0 10 0 0 10 0 10 -10 0 -10 0 0 -10z"/>
<path d="M590 730 l0 -10 10 0 10 0 0 10 0 10 -10 0 -10 0 0 -10z"/>
<path d="M740 730 l0 -10 10 0 10 0 0 10 0 10 -10 0 -10 0 0 -10z"/>
<path d="M270 710 l0 -10 10 0 10 0 0 10 0 10 -10 0 -10 0 0 -10z"/>
<path d="M380 710 l0 -10 10 0 10 0 0 10 0 10 -10 0 -10 0 0 -10z"/>
<path d="M670 710 l0 -10 10 0 10 0 0 10 0 10 -10 0 -10 0 0 -10z"/>
<path d="M700 710 l0 -10 10 0 10 0 0 10 0 10 -10 0 -10 0 0 -10z"/>
<path d="M500 680 l0 -10 10 0 10 0 0 10 0 10 -10 0 -10 0 0 -10z"/>
<path d="M641 674 l-13 -15 6 -6 5 -5 16 15 15 16 0 5 0 6 -7 0 -8 -1 -14 -15z"/>
<path d="M540 660 l0 -10 10 0 10 0 0 10 0 10 -10 0 -10 0 0 -10z"/>
<path d="M618 900 l-38 -38 0 -8 0 -9 10 15 10 15 9 -14 9 -14 16 14 17 14 24
23 25 23 0 12 0 12 -11 -15 -11 -15 -5 13 -5 12 -6 -1 -7 -1 -37 -38z m52 14
l0 -7 -22 -18 -21 -19 -9 0 -9 0 23 24 23 25 8 0 7 1 0 -6z"/>
<path d="M590 570 l0 -10 10 0 10 0 0 10 0 10 -10 0 -10 0 0 -10z"/>
<path d="M630 570 l0 -10 10 0 10 0 0 10 0 10 -10 0 -10 0 0 -10z"/>
<path d="M740 570 l0 -10 10 0 10 0 0 10 0 10 -10 0 -10 0 0 -10z"/>
<path d="M560 550 l0 -10 10 0 10 0 0 10 0 10 -10 0 -10 0 0 -10z"/>
<path d="M700 550 l0 -10 10 0 10 0 0 10 0 10 -10 0 -10 0 0 -10z"/>
<path d="M790 550 l0 -10 10 0 10 0 0 10 0 10 -10 0 -10 0 0 -10z"/>
<path d="M230 530 l0 -10 10 0 10 0 0 10 0 10 -10 0 -10 0 0 -10z"/>
<path d="M450 530 l0 -10 10 0 10 0 0 10 0 10 -10 0 -10 0 0 -10z"/>
<path d="M520 530 l0 -10 10 0 10 0 0 10 0 10 -10 0 -10 0 0 -10z"/>
<path d="M590 530 l0 -10 10 0 10 0 0 10 0 10 -10 0 -10 0 0 -10z"/>
<path d="M670 530 l0 -10 10 0 10 0 0 10 0 10 -10 0 -10 0 0 -10z"/>
<path d="M740 530 l0 -10 10 0 10 0 0 10 0 10 -10 0 -10 0 0 -10z"/>
<path d="M270 510 l0 -10 10 0 10 0 0 10 0 10 -10 0 -10 0 0 -10z"/>
<path d="M340 510 l0 -10 10 0 10 0 0 10 0 10 -10 0 -10 0 0 -10z"/>
<path d="M410 510 l0 -10 10 0 10 0 0 10 0 10 -10 0 -10 0 0 -10z"/>
<path d="M560 510 l0 -10 10 0 10 0 0 10 0 10 -10 0 -10 0 0 -10z"/>
<path d="M630 510 l0 -10 10 0 10 0 0 10 0 10 -10 0 -10 0 0 -10z"/>
<path d="M700 510 l0 -10 10 0 10 0 0 10 0 10 -10 0 -10 0 0 -10z"/>
<path d="M830 510 l0 -10 10 0 10 0 0 10 0 10 -10 0 -10 0 0 -10z"/>
<path d="M340 480 l0 -10 10 0 10 0 0 10 0 10 -10 0 -10 0 0 -10z"/>
<path d="M410 480 l0 -10 10 0 10 0 0 10 0 10 -10 0 -10 0 0 -10z"/>
<path d="M560 480 l0 -10 10 0 10 0 0 10 0 10 -10 0 -10 0 0 -10z"/>
<path d="M630 480 l0 -10 10 0 10 0 0 10 0 10 -10 0 -10 0 0 -10z"/>
<path d="M700 480 l0 -10 10 0 10 0 0 10 0 10 -10 0 -10 0 0 -10z"/>
<path d="M790 480 l0 -10 10 0 10 0 0 10 0 10 -10 0 -10 0 0 -10z"/>
<path d="M940 480 l0 -10 10 0 10 0 0 10 0 10 -10 0 -10 0 0 -10z"/>
<path d="M1010 480 l0 -10 10 0 10 0 0 10 0 10 -10 0 -10 0 0 -10z"/>
<path d="M1080 480 l0 -10 10 0 10 0 0 10 0 10 -10 0 -10 0 0 -10z"/>
<path d="M380 460 l0 -10 10 0 10 0 0 10 0 10 -10 0 -10 0 0 -10z"/>
<path d="M520 460 l0 -10 10 0 10 0 0 10 0 10 -10 0 -10 0 0 -10z"/>
<path d="M590 460 l0 -10 10 0 10 0 0 10 0 10 -10 0 -10 0 0 -10z"/>
<path d="M670 460 l0 -10 10 0 10 0 0 10 0 10 -10 0 -10 0 0 -10z"/>
<path d="M760 460 l0 -10 10 0 10 0 0 10 0 10 -10 0 -10 0 0 -10z"/>
<path d="M830 460 l0 -10 10 0 10 0 0 10 0 10 -10 0 -10 0 0 -10z"/>
<path d="M900 460 l0 -10 10 0 10 0 0 10 0 10 -10 0 -10 0 0 -10z"/>
<path d="M970 460 l0 -10 10 0 10 0 0 10 0 10 -10 0 -10 0 0 -10z"/>
<path d="M1170 460 l0 -10 10 0 10 0 0 10 0 10 -10 0 -10 0 0 -10z"/>
<path d="M1260 460 l0 -10 10 0 10 0 0 10 0 10 -10 0 -10 0 0 -10z"/>
<path d="M250 440 l0 -10 10 0 10 0 0 10 0 10 -10 0 -10 0 0 -10z"/>
<path d="M340 440 l0 -10 10 0 10 0 0 10 0 10 -10 0 -10 0 0 -10z"/>
<path d="M410 440 l0 -10 10 0 10 0 0 10 0 10 -10 0 -10 0 0 -10z"/>
<path d="M560 440 l0 -10 10 0 10 0 0 10 0 10 -10 0 -10 0 0 -10z"/>
<path d="M630 440 l0 -10 10 0 10 0 0 10 0 10 -10 0 -10 0 0 -10z"/>
<path d="M720 440 l0 -10 10 0 10 0 0 10 0 10 -10 0 -10 0 0 -10z"/>
<path d="M790 440 l0 -10 10 0 10 0 0 10 0 10 -10 0 -10 0 0 -10z"/>
<path d="M1080 440 l0 -10 10 0 10 0 0 10 0 10 -10 0 -10 0 0 -10z"/>
<path d="M380 420 l0 -10 10 0 10 0 0 10 0 10 -10 0 -10 0 0 -10z"/>
<path d="M450 420 l0 -10 10 0 10 0 0 10 0 10 -10 0 -10 0 0 -10z"/>
<path d="M520 420 l0 -10 10 0 10 0 0 10 0 10 -10 0 -10 0 0 -10z"/>
<path d="M590 420 l0 -10 10 0 10 0 0 10 0 10 -10 0 -10 0 0 -10z"/>
<path d="M670 420 l0 -10 10 0 10 0 0 10 0 10 -10 0 -10 0 0 -10z"/>
<path d="M830 420 l0 -10 10 0 10 0 0 10 0 10 -10 0 -10 0 0 -10z"/>
<path d="M900 420 l0 -10 10 0 10 0 0 10 0 10 -10 0 -10 0 0 -10z"/>
<path d="M970 420 l0 -10 10 0 10 0 0 10 0 10 -10 0 -10 0 0 -10z"/>
<path d="M1030 420 l0 -10 10 0 10 0 0 10 0 10 -10 0 -10 0 0 -10z"/>
<path d="M290 390 l0 -10 10 0 10 0 0 10 0 10 -10 0 -10 0 0 -10z"/>
<path d="M360 390 l0 -10 10 0 10 0 0 10 0 10 -10 0 -10 0 0 -10z"/>
<path d="M450 390 l0 -10 10 0 10 0 0 10 0 10 -10 0 -10 0 0 -10z"/>
<path d="M520 390 l0 -10 10 0 10 0 0 10 0 10 -10 0 -10 0 0 -10z"/>
<path d="M590 390 l0 -10 10 0 10 0 0 10 0 10 -10 0 -10 0 0 -10z"/>
<path d="M650 390 l0 -10 10 0 10 0 0 10 0 10 -10 0 -10 0 0 -10z"/>
<path d="M740 390 l0 -10 10 0 10 0 0 10 0 10 -10 0 -10 0 0 -10z"/>
<path d="M830 390 l0 -10 10 0 10 0 0 10 0 10 -10 0 -10 0 0 -10z"/>
<path d="M900 390 l0 -10 10 0 10 0 0 10 0 10 -10 0 -10 0 0 -10z"/>
<path d="M1010 390 l0 -10 10 0 10 0 0 10 0 10 -10 0 -10 0 0 -10z"/>
<path d="M1240 390 l0 -10 10 0 10 0 0 10 0 10 -10 0 -10 0 0 -10z"/>
<path d="M320 370 l0 -10 10 0 10 0 0 10 0 10 -10 0 -10 0 0 -10z"/>
<path d="M560 370 l0 -10 10 0 10 0 0 10 0 10 -10 0 -10 0 0 -10z"/>
<path d="M790 370 l0 -10 10 0 10 0 0 10 0 10 -10 0 -10 0 0 -10z"/>
<path d="M1060 370 l0 -10 10 0 10 0 0 10 0 10 -10 0 -10 0 0 -10z"/>
<path d="M270 350 l0 -10 -135 0 -135 0 0 -170 0 -170 640 0 640 0 0 170 0
170 -404 0 -404 0 -6 13 -6 12 -6 -12 -6 -13 -79 0 -79 0 0 10 0 10 -10 0 -10
0 0 -10z"/>
</g>
</svg>
