<?xml version="1.0" standalone="no"?>
<!DOCTYPE svg PUBLIC "-//W3C//DTD SVG 20010904//EN"
 "http://www.w3.org/TR/2001/REC-SVG-20010904/DTD/svg10.dtd">
<svg version="1.0" xmlns="http://www.w3.org/2000/svg"
 width="468pt" height="468pt" viewBox="0 0 468 468"
 preserveAspectRatio="xMidYMid meet">
<metadata>
Created by potrace 1.8, written by Peter Selinger 2001-2007
</metadata>
<g transform="translate(0,468) scale(0.365625,-0.365625)"
fill="#000000" stroke="none">
<path d="M123 1055 l-23 -24 0 -306 0 -305 220 0 220 0 0 30 0 30 20 0 20 0 0
10 0 10 16 0 15 0 15 -14 14 -15 0 -25 0 -26 -10 0 -10 0 0 -20 0 -20 18 0 18
0 14 20 14 20 18 0 18 0 0 -10 0 -10 110 0 110 0 0 10 0 10 30 0 30 0 0 -10 0
-10 20 0 20 0 0 -10 0 -10 30 0 30 0 0 18 0 18 -20 14 -20 14 0 24 0 24 30 28
30 28 0 14 0 14 20 14 20 14 0 78 0 78 -10 0 -10 0 0 20 0 20 -10 0 -10 0 0
16 0 15 -50 49 -50 49 0 5 0 6 20 0 20 0 0 26 0 25 -14 15 -15 14 -13 0 -14 0
-14 20 -14 20 -18 0 -18 0 0 10 0 10 -76 0 -76 0 -28 -30 -28 -30 -12 0 -11 0
-15 -14 -14 -15 0 -25 0 -26 20 0 20 0 0 -5 0 -6 -45 -44 -44 -45 -11 0 -11 0
-15 -14 -14 -15 0 -15 0 -16 -10 0 -10 0 0 20 0 20 -10 0 -10 0 0 60 0 60 10
0 10 0 0 70 0 70 -207 -1 -208 0 -22 -24z m717 -3 l0 -8 -20 -14 -20 -14 0 -8
0 -8 60 0 60 0 0 -10 0 -10 -100 0 -100 0 0 5 0 6 33 34 32 34 28 0 27 1 0 -8z
m-320 -172 l0 -60 10 0 10 0 0 -29 0 -29 13 -6 12 -6 -12 -6 -13 -6 0 -69 0
-69 10 0 10 0 0 -20 0 -20 -36 0 -35 0 -15 14 -14 15 0 15 0 16 -6 0 -6 0 -28
-30 -28 -30 -36 0 -36 0 0 10 0 10 -15 0 -16 0 -24 25 -25 24 0 16 0 15 -10 0
-10 0 0 20 0 20 -10 0 -10 0 0 -20 0 -20 10 0 10 0 0 -20 0 -20 -10 0 -10 0 0
-29 0 -29 13 -5 12 -4 -7 -8 -7 -7 -16 15 -15 16 0 25 0 26 10 0 10 0 0 20 0
20 -10 0 -10 0 0 20 0 20 10 0 10 0 0 20 0 20 -10 0 -10 0 0 90 0 90 -10 0
-10 0 0 10 0 10 180 0 180 0 0 -60z m380 50 l0 -10 38 0 38 0 14 -20 14 -20
14 0 13 0 15 -14 14 -15 0 -13 0 -14 20 -14 20 -14 0 -28 0 -28 10 0 10 0 0
-50 0 -50 -10 0 -10 0 0 -28 0 -28 -20 -14 -20 -14 0 -14 0 -13 -14 -15 -15
-14 -13 0 -14 0 -14 -20 -14 -20 -38 0 -38 0 0 -10 0 -10 -30 0 -30 0 0 10 0
10 -38 0 -38 0 -14 20 -14 20 -14 0 -13 0 -15 14 -14 15 0 13 0 14 -20 14 -20
14 0 28 0 28 -10 0 -10 0 0 50 0 50 10 0 10 0 0 28 0 28 20 14 20 14 0 14 0
13 14 15 15 14 13 0 14 0 14 20 14 20 38 0 38 0 0 10 0 10 30 0 30 0 0 -10z
m-740 -200 l0 -170 10 0 10 0 0 -20 0 -20 10 0 10 0 0 -20 0 -20 -20 0 -20 0
0 20 0 20 -9 0 -9 0 -5 -12 -4 -13 -9 9 -9 9 13 4 12 5 0 18 0 18 -12 5 -13 5
15 11 15 11 -15 11 -15 11 13 5 12 5 0 18 0 18 -12 5 -13 5 15 11 15 11 -15
11 -15 11 13 5 12 5 0 18 0 18 -12 5 -13 5 15 11 15 11 -15 11 -15 11 13 5 12
5 0 18 0 18 -12 4 -12 4 14 17 15 16 8 1 7 0 0 -170z m100 -140 l28 -30 16 0
16 0 0 -10 0 -10 18 0 18 0 14 -20 14 -20 58 0 58 0 0 -10 0 -10 -110 0 -110
0 0 16 0 16 -30 28 -30 28 0 26 0 26 6 0 6 0 28 -30z m210 -30 l14 -20 18 0
18 0 0 -10 0 -10 19 0 19 0 5 13 4 12 8 -7 7 -7 -15 -16 -16 -15 -15 0 -16 0
0 10 0 10 -70 0 -70 0 0 5 0 6 23 24 22 24 15 0 16 1 14 -20z m-224 -34 l14
-15 0 -15 0 -16 -6 0 -5 0 -15 14 -14 15 0 15 0 16 6 0 5 0 15 -14z m-106 -56
l0 -10 20 0 20 0 0 -10 0 -10 -16 0 -15 0 -15 14 -14 15 0 5 0 6 10 0 10 0 0
-10z m80 0 l0 -10 130 0 130 0 0 -10 0 -10 -140 0 -140 0 0 20 0 20 10 0 10 0
0 -10z m300 -20 l0 -10 -10 0 -10 0 0 10 0 10 10 0 10 0 0 -10z"/>
<path d="M333 885 l-13 -14 0 -16 0 -15 20 0 20 0 0 20 0 20 10 0 10 0 0 -30
0 -30 -10 0 -10 0 0 -10 0 -10 20 0 20 0 0 10 0 10 15 0 16 0 24 -25 25 -24 0
-21 0 -21 -17 -17 -16 -17 -5 13 -4 12 -19 0 -19 0 0 -6 0 -5 14 -15 15 -14
21 0 21 0 15 14 14 15 0 41 0 41 -25 24 -24 25 -16 0 -15 0 0 16 0 15 -14 15
-15 14 -23 0 -23 -1 -12 -14z"/>
<path d="M240 820 l0 -60 10 0 10 0 0 30 0 30 10 0 10 0 0 -30 0 -30 10 0 10
0 0 -15 0 -16 35 -34 34 -35 16 0 15 0 0 6 0 6 -40 38 -40 38 0 16 0 16 -10 0
-10 0 0 30 0 30 -10 0 -10 0 0 20 0 20 -20 0 -20 0 0 -60z"/>
<path d="M860 900 l0 -20 -10 0 -10 0 0 -60 0 -60 10 0 10 0 0 -29 0 -29 -12
-4 -13 -5 18 -17 17 -17 17 17 18 17 -13 5 -12 4 0 29 0 29 10 0 10 0 0 60 0
60 -10 0 -10 0 0 20 0 20 -10 0 -10 0 0 -20z m20 -210 l0 -10 -10 0 -10 0 0
10 0 10 10 0 10 0 0 -10z"/>
<path d="M900 644 l0 -15 14 -15 15 -14 14 0 15 0 5 -12 4 -13 9 9 9 9 -12 4
-13 5 0 15 0 14 -14 15 -15 14 -15 0 -16 0 0 -16z"/>
<path d="M0 100 l0 -100 640 0 640 0 0 100 0 100 -640 0 -640 0 0 -100z"/>
</g>
</svg>
