<?xml version="1.0" standalone="no"?>
<!DOCTYPE svg PUBLIC "-//W3C//DTD SVG 20010904//EN"
 "http://www.w3.org/TR/2001/REC-SVG-20010904/DTD/svg10.dtd">
<svg version="1.0" xmlns="http://www.w3.org/2000/svg"
 width="468pt" height="468pt" viewBox="0 0 468 468"
 preserveAspectRatio="xMidYMid meet">
<metadata>
Created by potrace 1.8, written by Peter Selinger 2001-2007
</metadata>
<g transform="translate(0,468) scale(0.365625,-0.365625)"
fill="#000000" stroke="none">
<path d="M40 1260 l0 -20 -20 0 -20 0 0 -20 0 -20 20 0 20 0 0 -20 0 -20 -20
0 -20 0 0 -20 0 -20 20 0 20 0 0 -20 0 -20 -20 0 -20 0 0 -20 0 -20 20 0 20 0
0 -20 0 -20 -20 0 -20 0 0 -20 0 -20 20 0 20 0 0 -20 0 -20 -20 0 -20 0 0 -20
0 -20 20 0 20 0 0 -20 0 -20 -20 0 -20 0 0 -120 0 -120 40 0 40 0 0 -20 0 -20
100 0 100 0 0 -20 0 -20 -20 0 -20 0 0 -20 0 -20 -20 0 -20 0 0 20 0 20 -20 0
-20 0 0 -20 0 -20 -20 0 -20 0 0 20 0 20 -20 0 -20 0 0 -20 0 -20 -20 0 -20 0
0 20 0 20 -20 0 -20 0 0 -20 0 -20 20 0 20 0 0 -20 0 -20 -20 0 -20 0 0 -20 0
-20 20 0 20 0 0 -20 0 -20 -20 0 -20 0 0 -20 0 -20 20 0 20 0 0 -20 0 -20 -20
0 -20 0 0 -80 0 -80 80 0 80 0 0 20 0 20 20 0 20 0 0 -20 0 -20 20 0 20 0 0
-20 0 -20 -20 0 -20 0 0 -20 0 -20 -20 0 -20 0 0 20 0 20 -20 0 -20 0 0 -20 0
-20 -20 0 -20 0 0 20 0 20 -20 0 -20 0 0 -20 0 -20 -20 0 -20 0 0 -20 0 -20
20 0 20 0 0 20 0 20 20 0 20 0 0 -20 0 -20 20 0 20 0 0 20 0 20 20 0 20 0 0
-20 0 -20 20 0 20 0 0 20 0 20 20 0 20 0 0 -20 0 -20 20 0 20 0 0 20 0 20 20
0 20 0 0 -20 0 -20 20 0 20 0 0 20 0 20 20 0 20 0 0 -20 0 -20 20 0 20 0 0 20
0 20 20 0 20 0 0 -20 0 -20 80 0 80 0 0 20 0 20 40 0 40 0 0 -20 0 -20 20 0
20 0 0 20 0 20 20 0 20 0 0 -20 0 -20 20 0 20 0 0 20 0 20 20 0 20 0 0 -20 0
-20 20 0 20 0 0 20 0 20 20 0 20 0 0 -20 0 -20 40 0 40 0 0 20 0 20 40 0 40 0
0 -20 0 -20 20 0 20 0 0 20 0 20 20 0 20 0 0 -20 0 -20 20 0 20 0 0 20 0 20
20 0 20 0 0 20 0 20 -20 0 -20 0 0 -20 0 -20 -20 0 -20 0 0 20 0 20 -20 0 -20
0 0 -20 0 -20 -20 0 -20 0 0 20 0 20 -20 0 -20 0 0 20 0 20 100 0 100 0 0 100
0 100 -20 0 -20 0 0 20 0 20 20 0 20 0 0 20 0 20 -20 0 -20 0 0 20 0 20 20 0
20 0 0 20 0 20 -20 0 -20 0 0 20 0 20 20 0 20 0 0 20 0 20 -20 0 -20 0 0 20 0
20 20 0 20 0 0 100 0 100 -20 0 -20 0 0 20 0 20 20 0 20 0 0 20 0 20 -20 0
-20 0 0 20 0 20 20 0 20 0 0 20 0 20 -20 0 -20 0 0 20 0 20 20 0 20 0 0 20 0
20 -20 0 -20 0 0 20 0 20 20 0 20 0 0 20 0 20 -20 0 -20 0 0 20 0 20 20 0 20
0 0 20 0 20 -20 0 -20 0 0 20 0 20 20 0 20 0 0 20 0 20 -20 0 -20 0 0 -20 0
-20 -20 0 -20 0 0 20 0 20 -20 0 -20 0 0 -20 0 -20 -20 0 -20 0 0 20 0 20 -20
0 -20 0 0 -20 0 -20 -20 0 -20 0 0 20 0 20 -60 0 -60 0 0 -20 0 -20 -20 0 -20
0 0 20 0 20 -20 0 -20 0 0 -20 0 -20 -20 0 -20 0 0 20 0 20 -20 0 -20 0 0 -20
0 -20 -20 0 -20 0 0 20 0 20 -20 0 -20 0 0 -20 0 -20 -20 0 -20 0 0 -20 0 -20
-20 0 -20 0 0 -20 0 -20 -20 0 -20 0 0 -20 0 -20 20 0 20 0 0 -20 0 -20 -20 0
-20 0 0 -20 0 -20 20 0 20 0 0 -20 0 -20 -20 0 -20 0 0 -20 0 -20 -20 0 -20 0
0 120 0 120 20 0 20 0 0 20 0 20 20 0 20 0 0 20 0 20 -80 0 -80 0 0 -20 0 -20
-20 0 -20 0 0 20 0 20 -20 0 -20 0 0 -20 0 -20 -20 0 -20 0 0 20 0 20 -20 0
-20 0 0 -20 0 -20 -20 0 -20 0 0 20 0 20 -20 0 -20 0 0 -20 0 -20 -20 0 -20 0
0 20 0 20 -20 0 -20 0 0 -20 0 -20 -20 0 -20 0 0 20 0 20 -20 0 -20 0 0 -20z
m40 -40 l0 -20 20 0 20 0 0 20 0 20 20 0 20 0 0 -20 0 -20 20 0 20 0 0 20 0
20 20 0 20 0 0 -20 0 -20 20 0 20 0 0 20 0 20 20 0 20 0 0 -20 0 -20 20 0 20
0 0 20 0 20 20 0 20 0 0 -20 0 -20 -20 0 -20 0 0 -20 0 -20 20 0 20 0 0 -20 0
-20 -20 0 -20 0 0 -20 0 -20 20 0 20 0 0 -20 0 -20 20 0 20 0 0 -20 0 -20 20
0 20 0 0 -20 0 -20 20 0 20 0 0 -20 0 -20 20 0 20 0 0 20 0 20 20 0 20 0 0 20
0 20 20 0 20 0 0 20 0 20 -20 0 -20 0 0 20 0 20 20 0 20 0 0 20 0 20 -20 0
-20 0 0 20 0 20 20 0 20 0 0 20 0 20 20 0 20 0 0 20 0 20 20 0 20 0 0 -20 0
-20 20 0 20 0 0 20 0 20 20 0 20 0 0 -20 0 -20 20 0 20 0 0 20 0 20 20 0 20 0
0 -20 0 -20 20 0 20 0 0 20 0 20 20 0 20 0 0 -20 0 -20 20 0 20 0 0 20 0 20
20 0 20 0 0 -20 0 -20 20 0 20 0 0 20 0 20 20 0 20 0 0 -20 0 -20 20 0 20 0 0
20 0 20 20 0 20 0 0 -20 0 -20 20 0 20 0 0 -20 0 -20 -20 0 -20 0 0 -20 0 -20
20 0 20 0 0 -20 0 -20 -20 0 -20 0 0 -20 0 -20 20 0 20 0 0 -20 0 -20 -20 0
-20 0 0 -20 0 -20 20 0 20 0 0 -20 0 -20 -20 0 -20 0 0 -20 0 -20 20 0 20 0 0
-20 0 -20 -20 0 -20 0 0 20 0 20 -20 0 -20 0 0 -20 0 -20 -20 0 -20 0 0 20 0
20 20 0 20 0 0 20 0 20 20 0 20 0 0 20 0 20 -20 0 -20 0 0 20 0 20 -20 0 -20
0 0 -20 0 -20 -20 0 -20 0 0 -20 0 -20 -20 0 -20 0 0 20 0 20 -20 0 -20 0 0
-20 0 -20 -20 0 -20 0 0 -20 0 -20 -20 0 -20 0 0 20 0 20 -20 0 -20 0 0 -20 0
-20 -20 0 -20 0 0 -20 0 -20 -20 0 -20 0 0 -20 0 -20 120 0 120 0 0 -20 0 -20
20 0 20 0 0 -20 0 -20 20 0 20 0 0 -20 0 -20 20 0 20 0 0 -20 0 -20 40 0 40 0
0 -20 0 -20 -20 0 -20 0 0 -20 0 -20 20 0 20 0 0 -20 0 -20 -20 0 -20 0 0 -20
0 -20 20 0 20 0 0 -20 0 -20 -20 0 -20 0 0 -20 0 -20 20 0 20 0 0 -20 0 -20
-20 0 -20 0 0 -20 0 -20 20 0 20 0 0 -20 0 -20 -20 0 -20 0 0 20 0 20 -20 0
-20 0 0 20 0 20 -20 0 -20 0 0 -20 0 -20 -20 0 -20 0 0 20 0 20 -20 0 -20 0 0
20 0 20 -20 0 -20 0 0 -20 0 -20 -20 0 -20 0 0 20 0 20 -20 0 -20 0 0 20 0 20
-20 0 -20 0 0 20 0 20 -20 0 -20 0 0 -20 0 -20 -20 0 -20 0 0 -20 0 -20 20 0
20 0 0 -20 0 -20 -20 0 -20 0 0 -20 0 -20 -20 0 -20 0 0 -20 0 -20 -20 0 -20
0 0 -20 0 -20 -20 0 -20 0 0 -20 0 -20 -20 0 -20 0 0 -20 0 -20 -20 0 -20 0 0
-20 0 -20 -20 0 -20 0 0 -20 0 -20 -20 0 -20 0 0 -20 0 -20 -20 0 -20 0 0 20
0 20 -20 0 -20 0 0 -20 0 -20 -20 0 -20 0 0 20 0 20 -20 0 -20 0 0 -20 0 -20
-20 0 -20 0 0 20 0 20 -20 0 -20 0 0 -20 0 -20 -20 0 -20 0 0 20 0 20 20 0 20
0 0 20 0 20 -20 0 -20 0 0 20 0 20 -20 0 -20 0 0 20 0 20 -20 0 -20 0 0 -20 0
-20 -20 0 -20 0 0 20 0 20 -20 0 -20 0 0 20 0 20 -20 0 -20 0 0 20 0 20 20 0
20 0 0 20 0 20 -20 0 -20 0 0 20 0 20 20 0 20 0 0 20 0 20 -20 0 -20 0 0 20 0
20 20 0 20 0 0 20 0 20 20 0 20 0 0 -20 0 -20 20 0 20 0 0 20 0 20 20 0 20 0
0 -20 0 -20 20 0 20 0 0 20 0 20 20 0 20 0 0 -20 0 -20 -20 0 -20 0 0 -20 0
-20 20 0 20 0 0 -20 0 -20 20 0 20 0 0 20 0 20 20 0 20 0 0 40 0 40 20 0 20 0
0 40 0 40 180 0 180 0 0 20 0 20 -20 0 -20 0 0 20 0 20 -20 0 -20 0 0 20 0 20
-20 0 -20 0 0 20 0 20 -20 0 -20 0 0 20 0 20 -20 0 -20 0 0 -20 0 -20 -20 0
-20 0 0 20 0 20 -20 0 -20 0 0 20 0 20 -20 0 -20 0 0 -20 0 -20 -20 0 -20 0 0
20 0 20 -20 0 -20 0 0 20 0 20 -20 0 -20 0 0 -20 0 -20 -20 0 -20 0 0 20 0 20
-20 0 -20 0 0 20 0 20 -20 0 -20 0 0 20 0 20 -20 0 -20 0 0 -20 0 -20 -20 0
-20 0 0 -20 0 -20 20 0 20 0 0 -20 0 -20 -20 0 -20 0 0 20 0 20 -20 0 -20 0 0
-20 0 -20 -20 0 -20 0 0 20 0 20 20 0 20 0 0 20 0 20 -20 0 -20 0 0 20 0 20
20 0 20 0 0 20 0 20 -20 0 -20 0 0 20 0 20 20 0 20 0 0 20 0 20 -20 0 -20 0 0
20 0 20 20 0 20 0 0 20 0 20 -20 0 -20 0 0 20 0 20 20 0 20 0 0 20 0 20 -20 0
-20 0 0 20 0 20 20 0 20 0 0 -20z m880 -1120 l0 -20 -20 0 -20 0 0 -20 0 -20
-20 0 -20 0 0 20 0 20 -20 0 -20 0 0 -20 0 -20 -20 0 -20 0 0 20 0 20 20 0 20
0 0 20 0 20 60 0 60 0 0 -20z m-200 -40 l0 -20 -20 0 -20 0 0 20 0 20 20 0 20
0 0 -20z"/>
<path d="M120 1180 l0 -20 -20 0 -20 0 0 -20 0 -20 20 0 20 0 0 -20 0 -20 -20
0 -20 0 0 -20 0 -20 20 0 20 0 0 -20 0 -20 -20 0 -20 0 0 -20 0 -20 20 0 20 0
0 -20 0 -20 -20 0 -20 0 0 -20 0 -20 20 0 20 0 0 20 0 20 20 0 20 0 0 20 0 20
20 0 20 0 0 -20 0 -20 20 0 20 0 0 -20 0 -20 20 0 20 0 0 -20 0 -20 20 0 20 0
0 20 0 20 20 0 20 0 0 -20 0 -20 20 0 20 0 0 -20 0 -20 20 0 20 0 0 20 0 20
20 0 20 0 0 -20 0 -20 20 0 20 0 0 -20 0 -20 20 0 20 0 0 20 0 20 20 0 20 0 0
-20 0 -20 20 0 20 0 0 -20 0 -20 20 0 20 0 0 -20 0 -20 20 0 20 0 0 -20 0 -20
20 0 20 0 0 -20 0 -20 20 0 20 0 0 -20 0 -20 -20 0 -20 0 0 -20 0 -20 -20 0
-20 0 0 -20 0 -20 -20 0 -20 0 0 20 0 20 -20 0 -20 0 0 -20 0 -20 -20 0 -20 0
0 20 0 20 -20 0 -20 0 0 -20 0 -20 -20 0 -20 0 0 20 0 20 -20 0 -20 0 0 -20 0
-20 -20 0 -20 0 0 -20 0 -20 -20 0 -20 0 0 -20 0 -20 -20 0 -20 0 0 -20 0 -20
-20 0 -20 0 0 -20 0 -20 -20 0 -20 0 0 20 0 20 -20 0 -20 0 0 20 0 20 -20 0
-20 0 0 20 0 20 -20 0 -20 0 0 -20 0 -20 -20 0 -20 0 0 20 0 20 -20 0 -20 0 0
-20 0 -20 20 0 20 0 0 -20 0 -20 -20 0 -20 0 0 -20 0 -20 20 0 20 0 0 -20 0
-20 -20 0 -20 0 0 -20 0 -20 20 0 20 0 0 -20 0 -20 20 0 20 0 0 20 0 20 20 0
20 0 0 -20 0 -20 20 0 20 0 0 -20 0 -20 20 0 20 0 0 -20 0 -20 20 0 20 0 0
-20 0 -20 20 0 20 0 0 20 0 20 20 0 20 0 0 -20 0 -20 20 0 20 0 0 20 0 20 20
0 20 0 0 -20 0 -20 20 0 20 0 0 20 0 20 20 0 20 0 0 20 0 20 20 0 20 0 0 20 0
20 20 0 20 0 0 20 0 20 20 0 20 0 0 20 0 20 20 0 20 0 0 20 0 20 20 0 20 0 0
20 0 20 20 0 20 0 0 20 0 20 -20 0 -20 0 0 20 0 20 20 0 20 0 0 20 0 20 20 0
20 0 0 20 0 20 20 0 20 0 0 -20 0 -20 20 0 20 0 0 -20 0 -20 20 0 20 0 0 -20
0 -20 20 0 20 0 0 20 0 20 20 0 20 0 0 -20 0 -20 20 0 20 0 0 -20 0 -20 20 0
20 0 0 20 0 20 20 0 20 0 0 -20 0 -20 20 0 20 0 0 20 0 20 -20 0 -20 0 0 20 0
20 20 0 20 0 0 20 0 20 -20 0 -20 0 0 20 0 20 20 0 20 0 0 20 0 20 -20 0 -20
0 0 20 0 20 -20 0 -20 0 0 20 0 20 -20 0 -20 0 0 20 0 20 -20 0 -20 0 0 20 0
20 -20 0 -20 0 0 20 0 20 -20 0 -20 0 0 -20 0 -20 -20 0 -20 0 0 20 0 20 -20
0 -20 0 0 -20 0 -20 -20 0 -20 0 0 20 0 20 -20 0 -20 0 0 20 0 20 -20 0 -20 0
0 20 0 20 20 0 20 0 0 20 0 20 20 0 20 0 0 20 0 20 20 0 20 0 0 20 0 20 20 0
20 0 0 -20 0 -20 20 0 20 0 0 20 0 20 20 0 20 0 0 20 0 20 20 0 20 0 0 -20 0
-20 20 0 20 0 0 20 0 20 20 0 20 0 0 20 0 20 20 0 20 0 0 -20 0 -20 20 0 20 0
0 20 0 20 -20 0 -20 0 0 20 0 20 20 0 20 0 0 20 0 20 -20 0 -20 0 0 20 0 20
20 0 20 0 0 20 0 20 -20 0 -20 0 0 -20 0 -20 -20 0 -20 0 0 20 0 20 -20 0 -20
0 0 -20 0 -20 -20 0 -20 0 0 20 0 20 -20 0 -20 0 0 -20 0 -20 -20 0 -20 0 0
20 0 20 -20 0 -20 0 0 -20 0 -20 -20 0 -20 0 0 20 0 20 -20 0 -20 0 0 -20 0
-20 -20 0 -20 0 0 20 0 20 -20 0 -20 0 0 -20 0 -20 -20 0 -20 0 0 20 0 20 -20
0 -20 0 0 -20 0 -20 -20 0 -20 0 0 -20 0 -20 20 0 20 0 0 -20 0 -20 -20 0 -20
0 0 -20 0 -20 20 0 20 0 0 -20 0 -20 -20 0 -20 0 0 -20 0 -20 -20 0 -20 0 0
-20 0 -20 -20 0 -20 0 0 -20 0 -20 -20 0 -20 0 0 20 0 20 -20 0 -20 0 0 20 0
20 -20 0 -20 0 0 20 0 20 -20 0 -20 0 0 20 0 20 -20 0 -20 0 0 20 0 20 -20 0
-20 0 0 20 0 20 20 0 20 0 0 20 0 20 -20 0 -20 0 0 20 0 20 -20 0 -20 0 0 -20
0 -20 -20 0 -20 0 0 20 0 20 -20 0 -20 0 0 -20 0 -20 -20 0 -20 0 0 20 0 20
-20 0 -20 0 0 -20z m40 -40 l0 -20 20 0 20 0 0 20 0 20 20 0 20 0 0 -20 0 -20
20 0 20 0 0 20 0 20 20 0 20 0 0 -20 0 -20 -20 0 -20 0 0 -20 0 -20 20 0 20 0
0 -20 0 -20 20 0 20 0 0 -20 0 -20 20 0 20 0 0 -20 0 -20 20 0 20 0 0 -20 0
-20 20 0 20 0 0 -20 0 -20 20 0 20 0 0 -20 0 -20 20 0 20 0 0 20 0 20 20 0 20
0 0 20 0 20 20 0 20 0 0 20 0 20 20 0 20 0 0 20 0 20 20 0 20 0 0 20 0 20 -20
0 -20 0 0 20 0 20 20 0 20 0 0 20 0 20 -20 0 -20 0 0 20 0 20 20 0 20 0 0 -20
0 -20 20 0 20 0 0 20 0 20 20 0 20 0 0 -20 0 -20 20 0 20 0 0 20 0 20 20 0 20
0 0 -20 0 -20 20 0 20 0 0 20 0 20 20 0 20 0 0 -20 0 -20 20 0 20 0 0 20 0 20
20 0 20 0 0 -20 0 -20 20 0 20 0 0 20 0 20 20 0 20 0 0 -20 0 -20 20 0 20 0 0
-20 0 -20 -20 0 -20 0 0 -20 0 -20 -20 0 -20 0 0 -20 0 -20 -20 0 -20 0 0 20
0 20 -20 0 -20 0 0 -20 0 -20 -20 0 -20 0 0 -20 0 -20 -20 0 -20 0 0 20 0 20
-20 0 -20 0 0 -20 0 -20 -20 0 -20 0 0 -20 0 -20 -20 0 -20 0 0 -20 0 -20 -20
0 -20 0 0 -20 0 -20 -20 0 -20 0 0 -20 0 -20 20 0 20 0 0 -20 0 -20 20 0 20 0
0 -20 0 -20 20 0 20 0 0 -20 0 -20 20 0 20 0 0 20 0 20 20 0 20 0 0 -20 0 -20
20 0 20 0 0 20 0 20 20 0 20 0 0 -20 0 -20 20 0 20 0 0 -20 0 -20 20 0 20 0 0
-20 0 -20 20 0 20 0 0 -20 0 -20 20 0 20 0 0 -20 0 -20 -20 0 -20 0 0 -20 0
-20 20 0 20 0 0 -20 0 -20 -20 0 -20 0 0 -20 0 -20 -20 0 -20 0 0 20 0 20 -20
0 -20 0 0 20 0 20 -20 0 -20 0 0 -20 0 -20 -20 0 -20 0 0 20 0 20 -20 0 -20 0
0 20 0 20 -20 0 -20 0 0 20 0 20 -20 0 -20 0 0 -20 0 -20 -20 0 -20 0 0 -20 0
-20 -20 0 -20 0 0 -20 0 -20 -20 0 -20 0 0 -20 0 -20 20 0 20 0 0 -20 0 -20
-20 0 -20 0 0 -20 0 -20 -20 0 -20 0 0 -20 0 -20 -20 0 -20 0 0 -20 0 -20 -20
0 -20 0 0 -20 0 -20 -20 0 -20 0 0 -20 0 -20 -20 0 -20 0 0 -20 0 -20 -20 0
-20 0 0 20 0 20 -20 0 -20 0 0 -20 0 -20 -20 0 -20 0 0 20 0 20 -20 0 -20 0 0
-20 0 -20 -20 0 -20 0 0 20 0 20 -20 0 -20 0 0 20 0 20 -20 0 -20 0 0 20 0 20
-20 0 -20 0 0 20 0 20 -20 0 -20 0 0 -20 0 -20 -20 0 -20 0 0 20 0 20 20 0 20
0 0 20 0 20 -20 0 -20 0 0 20 0 20 20 0 20 0 0 20 0 20 20 0 20 0 0 -20 0 -20
20 0 20 0 0 -20 0 -20 20 0 20 0 0 -20 0 -20 20 0 20 0 0 20 0 20 20 0 20 0 0
20 0 20 20 0 20 0 0 20 0 20 20 0 20 0 0 20 0 20 20 0 20 0 0 20 0 20 20 0 20
0 0 -20 0 -20 20 0 20 0 0 20 0 20 20 0 20 0 0 -20 0 -20 20 0 20 0 0 20 0 20
20 0 20 0 0 -20 0 -20 20 0 20 0 0 20 0 20 20 0 20 0 0 20 0 20 20 0 20 0 0
20 0 20 20 0 20 0 0 20 0 20 -20 0 -20 0 0 20 0 20 -20 0 -20 0 0 20 0 20 -20
0 -20 0 0 20 0 20 -20 0 -20 0 0 20 0 20 -20 0 -20 0 0 20 0 20 -20 0 -20 0 0
20 0 20 -20 0 -20 0 0 -20 0 -20 -20 0 -20 0 0 20 0 20 -20 0 -20 0 0 20 0 20
-20 0 -20 0 0 -20 0 -20 -20 0 -20 0 0 20 0 20 -20 0 -20 0 0 20 0 20 -20 0
-20 0 0 -20 0 -20 -20 0 -20 0 0 20 0 20 -20 0 -20 0 0 20 0 20 -20 0 -20 0 0
20 0 20 -20 0 -20 0 0 -20 0 -20 -20 0 -20 0 0 20 0 20 20 0 20 0 0 20 0 20
-20 0 -20 0 0 20 0 20 20 0 20 0 0 20 0 20 -20 0 -20 0 0 20 0 20 20 0 20 0 0
-20z"/>
<path d="M200 1100 l0 -20 -20 0 -20 0 0 -20 0 -20 20 0 20 0 0 -20 0 -20 20
0 20 0 0 -20 0 -20 20 0 20 0 0 -20 0 -20 20 0 20 0 0 20 0 20 20 0 20 0 0
-20 0 -20 20 0 20 0 0 -20 0 -20 20 0 20 0 0 20 0 20 -20 0 -20 0 0 20 0 20
-20 0 -20 0 0 20 0 20 -20 0 -20 0 0 20 0 20 -20 0 -20 0 0 20 0 20 -20 0 -20
0 0 20 0 20 -20 0 -20 0 0 -20z m40 -40 l0 -20 20 0 20 0 0 -20 0 -20 20 0 20
0 0 -20 0 -20 -20 0 -20 0 0 20 0 20 -20 0 -20 0 0 20 0 20 -20 0 -20 0 0 20
0 20 20 0 20 0 0 -20z"/>
<path d="M760 1100 l0 -20 -20 0 -20 0 0 -20 0 -20 20 0 20 0 0 -20 0 -20 -20
0 -20 0 0 -20 0 -20 -20 0 -20 0 0 -20 0 -20 -20 0 -20 0 0 -20 0 -20 -20 0
-20 0 0 -20 0 -20 20 0 20 0 0 -20 0 -20 20 0 20 0 0 -20 0 -20 20 0 20 0 0
-20 0 -20 20 0 20 0 0 -20 0 -20 20 0 20 0 0 -20 0 -20 20 0 20 0 0 -20 0 -20
20 0 20 0 0 -20 0 -20 20 0 20 0 0 -20 0 -20 20 0 20 0 0 -20 0 -20 20 0 20 0
0 20 0 20 20 0 20 0 0 -20 0 -20 20 0 20 0 0 -20 0 -20 20 0 20 0 0 20 0 20
-20 0 -20 0 0 20 0 20 20 0 20 0 0 20 0 20 -20 0 -20 0 0 20 0 20 -20 0 -20 0
0 20 0 20 -20 0 -20 0 0 20 0 20 -20 0 -20 0 0 -20 0 -20 -20 0 -20 0 0 20 0
20 -20 0 -20 0 0 -20 0 -20 -20 0 -20 0 0 20 0 20 -20 0 -20 0 0 20 0 20 -20
0 -20 0 0 20 0 20 -20 0 -20 0 0 20 0 20 -20 0 -20 0 0 20 0 20 20 0 20 0 0
20 0 20 20 0 20 0 0 20 0 20 20 0 20 0 0 20 0 20 20 0 20 0 0 20 0 20 20 0 20
0 0 20 0 20 20 0 20 0 0 -20 0 -20 20 0 20 0 0 20 0 20 20 0 20 0 0 20 0 20
20 0 20 0 0 -20 0 -20 20 0 20 0 0 20 0 20 20 0 20 0 0 20 0 20 -20 0 -20 0 0
-20 0 -20 -20 0 -20 0 0 20 0 20 -20 0 -20 0 0 -20 0 -20 -20 0 -20 0 0 20 0
20 -20 0 -20 0 0 -20 0 -20 -20 0 -20 0 0 20 0 20 -20 0 -20 0 0 -20 0 -20
-20 0 -20 0 0 20 0 20 -20 0 -20 0 0 -20z m40 -40 l0 -20 20 0 20 0 0 20 0 20
20 0 20 0 0 -20 0 -20 -20 0 -20 0 0 -20 0 -20 -20 0 -20 0 0 -20 0 -20 -20 0
-20 0 0 -20 0 -20 -20 0 -20 0 0 -20 0 -20 -20 0 -20 0 0 -20 0 -20 -20 0 -20
0 0 20 0 20 20 0 20 0 0 20 0 20 20 0 20 0 0 20 0 20 20 0 20 0 0 20 0 20 20
0 20 0 0 20 0 20 -20 0 -20 0 0 20 0 20 20 0 20 0 0 -20z m160 0 l0 -20 -20 0
-20 0 0 20 0 20 20 0 20 0 0 -20z m-40 -440 l0 -20 20 0 20 0 0 20 0 20 20 0
20 0 0 -20 0 -20 20 0 20 0 0 -20 0 -20 20 0 20 0 0 -20 0 -20 -20 0 -20 0 0
20 0 20 -20 0 -20 0 0 -20 0 -20 -20 0 -20 0 0 20 0 20 -20 0 -20 0 0 20 0 20
-20 0 -20 0 0 20 0 20 20 0 20 0 0 -20z"/>
<path d="M960 580 l0 -20 20 0 20 0 0 20 0 20 -20 0 -20 0 0 -20z"/>
<path d="M480 420 l0 -20 -20 0 -20 0 0 -20 0 -20 -20 0 -20 0 0 -20 0 -20
-20 0 -20 0 0 -20 0 -20 -20 0 -20 0 0 -20 0 -20 -20 0 -20 0 0 20 0 20 -20 0
-20 0 0 20 0 20 -20 0 -20 0 0 20 0 20 -20 0 -20 0 0 -20 0 -20 20 0 20 0 0
-20 0 -20 20 0 20 0 0 -20 0 -20 20 0 20 0 0 -20 0 -20 20 0 20 0 0 -20 0 -20
20 0 20 0 0 20 0 20 20 0 20 0 0 -20 0 -20 20 0 20 0 0 20 0 20 20 0 20 0 0
-20 0 -20 20 0 20 0 0 20 0 20 20 0 20 0 0 20 0 20 20 0 20 0 0 20 0 20 20 0
20 0 0 20 0 20 20 0 20 0 0 20 0 20 20 0 20 0 0 20 0 20 -20 0 -20 0 0 20 0
20 -20 0 -20 0 0 -20 0 -20 -20 0 -20 0 0 20 0 20 -20 0 -20 0 0 -20 0 -20
-20 0 -20 0 0 20 0 20 -20 0 -20 0 0 -20z m40 -40 l0 -20 20 0 20 0 0 20 0 20
20 0 20 0 0 -20 0 -20 20 0 20 0 0 20 0 20 20 0 20 0 0 -20 0 -20 -20 0 -20 0
0 -20 0 -20 -20 0 -20 0 0 -20 0 -20 -20 0 -20 0 0 -20 0 -20 -20 0 -20 0 0
-20 0 -20 -20 0 -20 0 0 20 0 20 -20 0 -20 0 0 -20 0 -20 -20 0 -20 0 0 20 0
20 -20 0 -20 0 0 -20 0 -20 -20 0 -20 0 0 20 0 20 20 0 20 0 0 20 0 20 20 0
20 0 0 20 0 20 20 0 20 0 0 20 0 20 20 0 20 0 0 20 0 20 20 0 20 0 0 -20z"/>
<path d="M480 340 l0 -20 -20 0 -20 0 0 -20 0 -20 -20 0 -20 0 0 -20 0 -20 20
0 20 0 0 20 0 20 20 0 20 0 0 -20 0 -20 20 0 20 0 0 20 0 20 20 0 20 0 0 20 0
20 20 0 20 0 0 20 0 20 -20 0 -20 0 0 -20 0 -20 -20 0 -20 0 0 20 0 20 -20 0
-20 0 0 -20z m40 -40 l0 -20 -20 0 -20 0 0 20 0 20 20 0 20 0 0 -20z"/>
</g>
</svg>
