<?xml version="1.0" standalone="no"?>
<!DOCTYPE svg PUBLIC "-//W3C//DTD SVG 20010904//EN"
 "http://www.w3.org/TR/2001/REC-SVG-20010904/DTD/svg10.dtd">
<svg version="1.0" xmlns="http://www.w3.org/2000/svg"
 width="468pt" height="468pt" viewBox="0 0 468 468"
 preserveAspectRatio="xMidYMid meet">
<metadata>
Created by potrace 1.8, written by Peter Selinger 2001-2007
</metadata>
<g transform="translate(0,468) scale(0.365625,-0.365625)"
fill="#000000" stroke="none">
<path d="M880 1271 l0 -10 17 -3 17 -3 -19 -18 -18 -18 -12 4 -12 5 -14 -8
-13 -9 7 -8 8 -7 8 12 8 13 0 -31 0 -30 6 -7 7 -6 35 37 35 37 0 32 0 32 -11
-15 -11 -15 -5 13 -5 12 -14 0 -14 0 0 -9z m50 -36 l0 -15 -10 0 -10 0 0 15 0
15 10 0 10 0 0 -15z m-30 -35 l0 -20 -10 0 -10 0 0 20 0 20 10 0 10 0 0 -20z"/>
<path d="M1060 1253 l-15 -6 -22 -24 -22 -23 -11 0 -10 0 0 -10 0 -10 -18 0
-18 0 -17 -20 -17 -20 0 -20 0 -20 -25 0 -25 0 -1 8 -1 7 -4 29 -3 28 -5 5 -5
5 -11 -7 -11 -7 4 -12 4 -11 -23 -1 -24 -2 0 13 0 14 20 6 20 6 0 10 0 9 -5 0
-5 0 -20 -17 -20 -17 0 -23 0 -23 40 0 40 0 0 -9 0 -10 -17 -4 -18 -5 35 -1
35 -1 38 6 37 7 0 18 0 19 25 6 25 6 1 7 1 6 2 23 3 24 14 9 14 9 13 0 12 0 0
10 0 10 11 0 10 0 15 -14 14 -15 0 -20 0 -21 -10 0 -10 0 0 -15 0 -16 -15 -5
-14 -6 -6 -19 -6 -19 -25 -6 -24 -6 0 -9 0 -8 -35 -7 -35 -6 0 -9 0 -9 -30 0
-30 0 0 14 0 13 -30 -1 -30 -1 0 -12 0 -13 20 0 20 0 0 -9 0 -8 -116 -6 -117
-5 -6 -10 -6 -10 -52 -7 -53 -7 0 -9 0 -9 -15 0 -15 0 0 -10 0 -10 -14 0 -15
0 -70 -70 -69 -70 -11 0 -11 0 0 -10 0 -9 -37 -7 -38 -7 -6 -8 -5 -9 -62 -6
-62 -7 0 -8 0 -9 -14 0 -14 0 -5 -12 -5 -13 -11 15 -11 15 3 10 4 10 41 3 42
3 0 9 0 9 23 4 22 4 -60 -5 -60 -5 -3 -8 -4 -9 -14 0 -14 0 0 -10 0 -11 20
-21 19 -21 68 6 68 7 3 10 4 10 29 0 29 0 0 9 0 9 30 7 30 7 0 9 0 9 16 0 16
0 62 64 63 64 23 7 24 8 12 12 13 12 25 -4 26 -5 0 -8 0 -8 26 -6 26 -7 15
-15 15 -15 -7 -7 -8 -7 -4 13 -5 12 -14 0 -14 0 0 9 0 9 -32 7 -33 8 -7 11 -8
11 0 -17 0 -18 15 0 15 0 0 -10 0 -10 11 0 10 0 15 -14 14 -15 0 -19 0 -20 6
-16 6 -16 19 0 20 0 5 -14 5 -14 25 -6 24 -6 0 -16 0 -15 -27 -25 -28 -26 0
-57 0 -57 18 -18 18 -18 -7 28 -7 29 16 -17 17 -17 0 -9 0 -10 -16 -6 -16 -6
-344 0 -344 0 0 -250 0 -250 640 0 640 0 0 250 0 250 -252 1 -253 1 13 5 12 5
0 34 0 34 -10 0 -9 0 -7 36 -6 35 22 21 22 21 10 -16 9 -17 14 0 15 0 0 -10 0
-10 20 0 20 0 0 -10 0 -10 15 0 16 0 5 -14 5 -14 50 -7 49 -7 0 -9 0 -9 25 0
25 0 0 -10 0 -10 30 0 30 0 0 10 0 10 25 0 25 0 0 10 0 10 14 0 13 0 27 25 26
24 0 11 0 10 -21 21 -21 21 -12 -17 -12 -17 -32 7 -32 7 0 9 0 9 13 0 12 0
-15 10 -15 10 15 9 14 10 -7 8 -8 7 -9 -14 -10 -15 5 -14 5 -13 -27 7 -28 6
-3 10 -4 9 -24 0 -24 0 0 9 0 9 -30 7 -30 7 0 13 0 14 18 17 17 18 0 83 -1 84
-11 7 -10 7 -7 23 -7 22 15 0 16 0 0 9 0 9 26 6 27 7 28 29 29 28 0 11 0 11
10 0 10 0 0 36 0 37 -22 18 -21 19 -11 -1 -11 -1 -15 -5z m-60 -80 l-15 -6
-13 -14 -13 -13 -14 0 -14 0 5 14 6 15 21 4 22 4 15 1 15 0 -15 -5z m-15 -193
l7 -40 9 0 9 0 0 -35 0 -36 -27 -24 -28 -25 -12 -10 -12 -10 -10 0 -9 0 -6
-15 -5 -15 -20 0 -19 0 -6 -15 -5 -15 -16 0 -15 0 0 -10 0 -10 -15 0 -16 0
-24 -26 -25 -27 0 -29 0 -28 20 -17 20 -17 0 -24 0 -24 -26 6 -26 7 -17 16
-16 17 0 54 0 55 13 5 12 4 16 15 15 16 -5 12 -5 13 17 -4 17 -4 15 9 14 10
-8 8 -9 8 -4 -12 -5 -13 -14 14 -14 15 0 10 0 11 10 0 10 0 0 -13 0 -13 28 2
27 1 12 1 12 2 6 19 6 20 19 6 20 6 6 25 6 24 9 0 9 0 0 36 0 35 -14 14 -14
14 -26 7 -26 6 0 9 0 8 43 4 42 4 22 1 21 2 7 -40z m-205 21 l0 -9 36 -7 36
-6 24 -24 24 -24 0 -36 0 -35 -4 0 -4 0 -16 -6 -16 -6 0 18 0 19 -11 -15 -11
-15 -4 10 -4 10 -10 15 -10 15 -10 -15 -10 -15 -10 15 -10 15 0 -10 0 -10 8
-11 7 -11 38 -7 37 -7 0 -13 0 -13 -20 -23 -20 -23 0 11 0 12 -19 0 -19 0 -6
16 -6 16 -15 -5 -14 -6 6 15 5 14 8 0 8 0 4 -9 3 -8 40 -6 40 -6 -17 5 -18 5
0 9 0 8 -34 6 -35 7 -4 7 -4 7 3 -12 3 -13 -14 0 -15 0 0 -9 0 -9 -22 -6 -23
-5 -9 9 -10 10 22 20 21 20 11 0 10 0 0 10 0 10 -14 0 -14 0 -5 -12 -5 -13 -9
12 -8 11 -28 7 -27 7 0 8 0 8 -25 6 -25 6 0 10 0 10 29 0 29 0 4 10 3 10 63 6
62 7 0 8 0 9 15 0 15 0 0 -9z m-120 -191 l0 -10 -10 0 -10 0 0 10 0 10 10 0
10 0 0 -10z m67 -5 l15 -16 -5 -6 -6 -5 -16 15 -15 16 0 5 0 6 6 0 5 0 16 -15z
m-7 -46 l0 -9 -9 0 -9 0 -5 14 -6 15 15 -6 14 -5 0 -9z m240 1 l0 -10 25 -6
25 -6 0 -9 0 -9 15 0 15 0 0 -10 0 -10 40 -6 40 -7 0 -7 0 -8 25 -6 25 -6 0
-10 0 -10 11 0 10 0 15 -14 14 -15 0 -10 0 -11 -10 0 -10 0 0 10 0 10 -25 6
-25 6 0 9 0 9 -15 0 -15 0 0 9 0 9 -30 7 -30 7 0 8 0 8 -35 6 -35 7 0 9 0 10
-15 0 -15 0 0 10 0 10 -15 0 -14 0 5 15 6 15 9 0 9 0 0 -10z m-34 -40 l14 0 0
-9 0 -9 35 -6 35 -7 0 -9 0 -8 30 -7 30 -7 0 -9 0 -9 15 0 15 0 0 -9 0 -9 34
-6 34 -7 5 -13 6 -14 -20 5 -19 5 0 9 0 9 -19 0 -19 0 -5 -7 -4 -8 4 14 3 13
-19 -5 -20 -5 6 14 5 14 -15 0 -15 0 -5 -12 -4 -13 -9 9 -9 9 13 4 12 5 0 9 0
9 -14 0 -14 0 -5 -12 -4 -13 -9 8 -8 8 14 10 15 11 -27 -6 -28 -6 0 15 0 15
-9 0 -9 0 -5 -12 -5 -13 -1 19 -1 18 -13 -5 -14 -5 -13 8 -13 8 14 15 14 15 3
-9 4 -9 14 0z m328 -59 l6 -9 -6 -16 -6 -16 -8 0 -8 0 -6 16 -6 16 6 9 5 9 9
0 9 0 5 -9z m-324 -11 l0 -10 -10 0 -10 0 0 10 0 10 10 0 10 0 0 -10z m30 -20
l0 -10 -10 0 -10 0 0 10 0 10 10 0 10 0 0 -10z m-270 -55 l0 -15 -10 0 -10 0
0 15 0 15 10 0 10 0 0 -15z m430 -5 l0 -10 -10 0 -10 0 0 10 0 10 10 0 10 0 0
-10z"/>
<path d="M750 550 l0 -10 10 0 10 0 0 10 0 10 -10 0 -10 0 0 -10z"/>
<path d="M670 840 l0 -10 10 0 10 0 0 10 0 10 -10 0 -10 0 0 -10z"/>
<path d="M770 1240 l0 -10 -14 0 -14 0 -36 -35 -36 -35 0 -30 0 -30 10 0 10 0
0 -14 0 -14 -12 -5 -13 -5 20 -1 20 -1 23 6 22 6 0 8 0 8 -24 6 -23 6 -7 31
-6 32 30 28 29 28 26 7 25 6 0 9 0 9 -15 0 -15 0 0 -10z"/>
<path d="M1053 1204 l-13 -13 0 -6 0 -5 9 0 9 0 6 16 6 17 -2 2 -3 3 -12 -14z"/>
<path d="M118 1173 l-18 -4 0 -10 0 -9 -19 0 -20 0 -5 -9 -6 -9 6 -15 5 -15
35 -6 34 -7 0 -9 0 -10 15 0 15 0 0 9 0 9 -26 6 -26 7 -16 15 -15 16 14 9 14
9 13 0 12 0 0 10 0 10 15 0 15 0 0 -9 0 -9 25 -6 25 -6 0 -10 0 -10 11 0 11 0
30 -31 31 -30 -39 7 -38 7 16 -16 17 -17 10 0 11 0 0 -10 0 -9 35 -7 35 -6 0
-8 0 -8 30 -7 30 -7 0 -13 0 -14 -35 -36 -36 -35 -10 0 -10 0 -22 -24 -23 -25
-27 -6 -27 -7 0 -9 0 -9 -15 0 -15 0 0 -10 0 -10 15 0 15 0 0 10 0 10 15 0 15
0 0 10 0 10 15 0 15 0 17 20 17 20 18 0 18 0 0 9 0 9 30 29 29 28 16 13 16 14
-4 11 -4 12 -21 3 -22 3 0 9 0 8 -30 7 -30 7 0 9 0 9 -15 0 -15 0 0 10 0 10
15 0 15 0 0 -10 0 -10 15 0 15 0 0 -10 0 -9 34 -7 35 -6 5 -15 6 -15 32 7 33
8 5 7 5 7 15 6 15 7 -35 -6 -35 -7 -7 -11 -8 -11 0 12 0 12 -35 7 -35 6 0 9 0
9 -15 0 -15 0 0 9 0 9 -26 6 -27 7 -39 40 -39 39 -14 0 -13 0 -4 9 -3 10 -25
4 -25 5 -17 -5z"/>
<path d="M180 1077 l0 -17 18 0 17 0 -10 8 -10 7 -7 9 -8 9 0 -16z"/>
<path d="M770 1080 l0 -10 15 0 15 0 0 10 0 10 -15 0 -15 0 0 -10z"/>
<path d="M610 1050 l0 -10 25 0 25 0 0 10 0 10 -25 0 -25 0 0 -10z"/>
<path d="M540 1030 l0 -10 25 0 25 0 0 10 0 10 -25 0 -25 0 0 -10z"/>
<path d="M1020 790 l0 -10 -17 -1 -18 -1 15 -5 15 -6 5 -8 6 -8 33 -3 34 -3 3
13 3 13 -6 -11 -5 -10 -15 0 -15 0 5 13 5 14 -26 -4 -27 -3 13 6 12 6 0 9 0 9
-10 0 -10 0 0 -10z"/>
<path d="M1110 740 l-14 -9 6 -7 7 -6 16 16 16 16 -8 0 -8 0 -15 -10z"/>
<path d="M1180 710 l0 -10 13 0 12 0 -15 -10 -14 -9 6 -6 7 -7 14 13 14 13
-13 13 -13 13 -5 0 -6 0 0 -10z"/>
</g>
</svg>
