<?xml version="1.0" standalone="no"?>
<!DOCTYPE svg PUBLIC "-//W3C//DTD SVG 20010904//EN"
 "http://www.w3.org/TR/2001/REC-SVG-20010904/DTD/svg10.dtd">
<svg version="1.0" xmlns="http://www.w3.org/2000/svg"
 width="468pt" height="468pt" viewBox="0 0 468 468"
 preserveAspectRatio="xMidYMid meet">
<metadata>
Created by potrace 1.8, written by Peter Selinger 2001-2007
</metadata>
<g transform="translate(0,468) scale(0.365625,-0.365625)"
fill="#000000" stroke="none">
<path d="M390 1270 l0 -10 -55 0 -55 0 0 -10 0 -10 -30 0 -30 0 0 -10 0 -10
-28 0 -28 0 -14 -20 -14 -20 -18 0 -18 0 0 -10 0 -10 -15 0 -16 0 -34 -35 -35
-34 0 -546 0 -545 640 0 640 0 0 545 0 546 -35 34 -34 35 -13 0 -14 0 -14 20
-14 20 -18 0 -18 0 0 10 0 10 -30 0 -30 0 0 10 0 10 -30 0 -30 0 0 10 0 10
-55 0 -55 0 0 10 0 10 -20 0 -20 0 0 -10 0 -10 10 0 10 0 0 -10 0 -10 -20 0
-20 0 0 -10 0 -10 -30 0 -30 0 0 -10 0 -10 -15 0 -16 0 -24 -25 -25 -24 0 -31
0 -31 -25 -25 -25 -25 -25 25 -25 25 0 31 0 31 -25 24 -24 25 -16 0 -15 0 0
10 0 10 -30 0 -30 0 0 10 0 10 -20 0 -20 0 0 10 0 10 10 0 10 0 0 10 0 10 -20
0 -20 0 0 -10z m-60 -50 l0 -20 -15 0 -15 0 0 20 0 20 15 0 15 0 0 -20z m650
0 l0 -20 -15 0 -15 0 0 20 0 20 15 0 15 0 0 -20z m-650 -90 l0 -50 -15 0 -15
0 0 50 0 50 15 0 15 0 0 -50z m650 0 l0 -50 -15 0 -15 0 0 50 0 50 15 0 15 0
0 -50z m-840 0 l0 -10 -10 0 -10 0 0 10 0 10 10 0 10 0 0 -10z m1020 0 l0 -10
-10 0 -10 0 0 10 0 10 10 0 10 0 0 -10z m-1040 -40 l0 -10 -10 0 -10 0 0 10 0
10 10 0 10 0 0 -10z m330 0 l0 -10 40 0 40 0 0 -16 0 -15 14 -15 15 -14 5 0 6
0 0 20 0 20 10 0 10 0 0 -10 0 -10 19 0 19 0 6 -12 6 -13 6 13 6 12 19 0 19 0
0 10 0 10 10 0 10 0 0 -20 0 -20 6 0 5 0 15 14 14 15 0 15 0 16 40 0 40 0 0
10 0 10 30 0 30 0 0 -10 0 -10 16 0 15 0 15 -14 14 -15 0 -25 0 -26 -310 0
-310 0 0 26 0 25 14 15 15 14 15 0 16 0 0 10 0 10 30 0 30 0 0 -10z m730 0 l0
-10 -10 0 -10 0 0 10 0 10 10 0 10 0 0 -10z m-1094 -24 l14 -15 0 -25 0 -26
-40 0 -40 0 0 15 0 16 23 24 22 24 3 0 3 1 15 -14z m189 -11 l25 -24 0 -16 0
-15 -90 0 -90 0 0 15 0 16 23 24 22 24 43 0 43 1 24 -25z m860 0 l25 -24 0
-16 0 -15 -90 0 -90 0 0 15 0 16 23 24 22 24 43 0 43 1 24 -25z m100 0 l25
-24 0 -16 0 -15 -40 0 -40 0 0 25 0 26 13 14 12 14 3 1 3 0 24 -25z"/>
<path d="M590 1214 l0 -45 16 -16 16 -16 9 14 9 14 9 -14 9 -14 16 16 16 16 0
45 0 46 -10 0 -10 0 0 -10 0 -10 -30 0 -30 0 0 10 0 10 -10 0 -10 0 0 -46z
m40 -4 l0 -10 -10 0 -10 0 0 10 0 10 10 0 10 0 0 -10z m40 0 l0 -10 -10 0 -10
0 0 10 0 10 10 0 10 0 0 -10z"/>
</g>
</svg>
