<?xml version="1.0" standalone="no"?>
<!DOCTYPE svg PUBLIC "-//W3C//DTD SVG 20010904//EN"
 "http://www.w3.org/TR/2001/REC-SVG-20010904/DTD/svg10.dtd">
<svg version="1.0" xmlns="http://www.w3.org/2000/svg"
 width="468pt" height="468pt" viewBox="0 0 468 468"
 preserveAspectRatio="xMidYMid meet">
<metadata>
Created by potrace 1.8, written by Peter Selinger 2001-2007
</metadata>
<g transform="translate(0,468) scale(0.365625,-0.365625)"
fill="#000000" stroke="none">
<path d="M0 720 l0 -560 20 0 20 0 0 -20 0 -20 20 0 20 0 0 -20 0 -20 20 0 20
0 0 -20 0 -20 40 0 40 0 0 -20 0 -20 540 0 540 0 0 560 0 560 -80 0 -80 0 0
80 0 80 -560 0 -560 0 0 -560z m1080 500 l0 -20 -20 0 -20 0 0 -20 0 -20 20 0
20 0 0 -20 0 -20 -440 0 -440 0 0 -20 0 -20 60 0 60 0 0 -20 0 -20 -60 0 -60
0 0 -20 0 -20 60 0 60 0 0 -180 0 -180 -60 0 -60 0 0 -20 0 -20 60 0 60 0 0
-20 0 -20 -60 0 -60 0 0 -20 0 -20 60 0 60 0 0 -60 0 -60 -60 0 -60 0 0 -20 0
-20 60 0 60 0 0 -20 0 -20 -60 0 -60 0 0 -20 0 -20 60 0 60 0 0 -80 0 -80 -60
0 -60 0 0 -20 0 -20 60 0 60 0 0 -20 0 -20 -60 0 -60 0 0 20 0 20 -40 0 -40 0
0 20 0 20 -20 0 -20 0 0 20 0 20 -20 0 -20 0 0 20 0 20 20 0 20 0 0 20 0 20
-20 0 -20 0 0 80 0 80 20 0 20 0 0 20 0 20 -20 0 -20 0 0 20 0 20 20 0 20 0 0
20 0 20 -20 0 -20 0 0 60 0 60 20 0 20 0 0 20 0 20 -20 0 -20 0 0 20 0 20 20
0 20 0 0 20 0 20 -20 0 -20 0 0 180 0 180 20 0 20 0 0 20 0 20 -20 0 -20 0 0
20 0 20 20 0 20 0 0 -20 0 -20 20 0 20 0 0 20 0 20 460 0 460 0 0 20 0 20 20
0 20 0 0 -20z m160 -660 l0 -520 -440 0 -440 0 0 520 0 520 440 0 440 0 0
-520z"/>
<path d="M120 1140 l0 -20 -20 0 -20 0 0 -20 0 -20 20 0 20 0 0 -20 0 -20 40
0 40 0 0 20 0 20 -40 0 -40 0 0 20 0 20 40 0 40 0 0 20 0 20 -40 0 -40 0 0
-20z"/>
<path d="M80 880 l0 -80 40 0 40 0 0 -20 0 -20 40 0 40 0 0 80 0 80 -40 0 -40
0 0 20 0 20 -40 0 -40 0 0 -80z m80 20 l0 -20 20 0 20 0 0 -40 0 -40 -20 0
-20 0 0 20 0 20 -20 0 -20 0 0 40 0 40 20 0 20 0 0 -20z"/>
<path d="M80 700 l0 -20 20 0 20 0 0 -20 0 -20 -20 0 -20 0 0 -20 0 -20 20 0
20 0 0 -20 0 -20 40 0 40 0 0 20 0 20 -40 0 -40 0 0 20 0 20 40 0 40 0 0 20 0
20 -40 0 -40 0 0 20 0 20 -20 0 -20 0 0 -20z"/>
<path d="M80 460 l0 -20 20 0 20 0 0 -20 0 -20 -20 0 -20 0 0 -20 0 -20 20 0
20 0 0 -20 0 -20 40 0 40 0 0 20 0 20 -40 0 -40 0 0 20 0 20 40 0 40 0 0 20 0
20 -40 0 -40 0 0 20 0 20 -20 0 -20 0 0 -20z"/>
<path d="M80 180 l0 -20 20 0 20 0 0 -20 0 -20 40 0 40 0 0 20 0 20 -40 0 -40
0 0 20 0 20 -20 0 -20 0 0 -20z"/>
<path d="M400 1000 l0 -40 20 0 20 0 0 20 0 20 120 0 120 0 0 -20 0 -20 20 0
20 0 0 -20 0 -20 60 0 60 0 0 20 0 20 20 0 20 0 0 20 0 20 140 0 140 0 0 -20
0 -20 20 0 20 0 0 40 0 40 -160 0 -160 0 0 -20 0 -20 -20 0 -20 0 0 -20 0 -20
-60 0 -60 0 0 20 0 20 -20 0 -20 0 0 20 0 20 -140 0 -140 0 0 -40z"/>
<path d="M760 1020 l0 -20 20 0 20 0 0 20 0 20 -20 0 -20 0 0 -20z"/>
<path d="M400 760 l0 -120 20 0 20 0 0 -20 0 -20 20 0 20 0 0 20 0 20 -20 0
-20 0 0 120 0 120 -20 0 -20 0 0 -120z"/>
<path d="M520 860 l0 -20 20 0 20 0 0 20 0 20 -20 0 -20 0 0 -20z"/>
<path d="M1000 860 l0 -20 20 0 20 0 0 20 0 20 -20 0 -20 0 0 -20z"/>
<path d="M1160 760 l0 -120 -20 0 -20 0 0 -20 0 -20 20 0 20 0 0 20 0 20 20 0
20 0 0 120 0 120 -20 0 -20 0 0 -120z"/>
<path d="M600 780 l0 -20 20 0 20 0 0 -40 0 -40 40 0 40 0 0 -20 0 -20 20 0
20 0 0 -20 0 -20 -120 0 -120 0 0 -20 0 -20 120 0 120 0 0 -20 0 -20 -20 0
-20 0 0 -20 0 -20 -40 0 -40 0 0 -40 0 -40 -20 0 -20 0 0 -20 0 -20 20 0 20 0
0 20 0 20 40 0 40 0 0 40 0 40 20 0 20 0 0 20 0 20 20 0 20 0 0 -20 0 -20 20
0 20 0 0 -40 0 -40 40 0 40 0 0 -20 0 -20 20 0 20 0 0 20 0 20 -20 0 -20 0 0
40 0 40 -40 0 -40 0 0 20 0 20 -20 0 -20 0 0 20 0 20 140 0 140 0 0 20 0 20
-140 0 -140 0 0 20 0 20 20 0 20 0 0 20 0 20 40 0 40 0 0 40 0 40 20 0 20 0 0
20 0 20 -20 0 -20 0 0 -20 0 -20 -40 0 -40 0 0 -40 0 -40 -20 0 -20 0 0 -20 0
-20 -20 0 -20 0 0 20 0 20 -20 0 -20 0 0 40 0 40 -40 0 -40 0 0 20 0 20 -20 0
-20 0 0 -20z"/>
<path d="M440 540 l0 -20 -20 0 -20 0 0 -140 0 -140 20 0 20 0 0 140 0 140 20
0 20 0 0 20 0 20 -20 0 -20 0 0 -20z"/>
<path d="M1120 540 l0 -20 20 0 20 0 0 -140 0 -140 20 0 20 0 0 140 0 140 -20
0 -20 0 0 20 0 20 -20 0 -20 0 0 -20z"/>
<path d="M520 300 l0 -20 20 0 20 0 0 20 0 20 -20 0 -20 0 0 -20z"/>
<path d="M1000 300 l0 -20 20 0 20 0 0 20 0 20 -20 0 -20 0 0 -20z"/>
<path d="M720 180 l0 -20 -20 0 -20 0 0 -20 0 -20 -120 0 -120 0 0 20 0 20
-20 0 -20 0 0 -40 0 -40 160 0 160 0 0 40 0 40 60 0 60 0 0 -40 0 -40 180 0
180 0 0 40 0 40 -20 0 -20 0 0 -20 0 -20 -140 0 -140 0 0 20 0 20 -20 0 -20 0
0 20 0 20 -60 0 -60 0 0 -20z"/>
<path d="M760 100 l0 -20 20 0 20 0 0 20 0 20 -20 0 -20 0 0 -20z"/>
</g>
</svg>
