<?xml version="1.0" standalone="no"?>
<!DOCTYPE svg PUBLIC "-//W3C//DTD SVG 20010904//EN"
 "http://www.w3.org/TR/2001/REC-SVG-20010904/DTD/svg10.dtd">
<svg version="1.0" xmlns="http://www.w3.org/2000/svg"
 width="468pt" height="468pt" viewBox="0 0 468 468"
 preserveAspectRatio="xMidYMid meet">
<metadata>
Created by potrace 1.8, written by Peter Selinger 2001-2007
</metadata>
<g transform="translate(0,468) scale(0.365625,-0.365625)"
fill="#000000" stroke="none">
<path d="M0 1235 l0 -15 305 0 305 0 0 -20 0 -20 -305 0 -305 0 0 -30 0 -30
255 0 255 0 0 -30 0 -30 -15 0 -15 0 0 -35 0 -35 -15 0 -15 0 0 -30 0 -30 -15
0 -15 0 0 -35 0 -35 -20 0 -20 0 0 -30 0 -30 -15 0 -15 0 0 -15 0 -15 -175 0
-175 0 0 -385 0 -385 640 0 640 0 0 385 0 385 -430 0 -430 0 0 15 0 15 30 0
30 0 0 15 0 15 15 0 15 0 0 15 0 15 15 0 15 0 0 20 0 20 35 0 35 0 0 15 0 15
15 0 15 0 0 15 0 15 15 0 15 0 0 15 0 15 35 0 35 0 0 15 0 15 15 0 15 0 0 20
0 20 15 0 15 0 0 15 0 15 30 0 30 0 0 15 0 15 210 0 210 0 0 30 0 30 -210 0
-210 0 0 -15 0 -15 -30 0 -30 0 0 -15 0 -15 -15 0 -15 0 0 -15 0 -15 -15 0
-15 0 0 -15 0 -15 -35 0 -35 0 0 -20 0 -20 -15 0 -15 0 0 -15 0 -15 -15 0 -15
0 0 -15 0 -15 -35 0 -35 0 0 -15 0 -15 -15 0 -15 0 0 -15 0 -15 -15 0 -15 0 0
15 0 15 15 0 15 0 0 30 0 30 15 0 15 0 0 35 0 35 20 0 20 0 0 30 0 30 15 0 15
0 0 30 0 30 15 0 15 0 0 20 0 20 -15 0 -15 0 0 15 0 15 -305 0 -305 0 0 -15z"/>
<path d="M830 1235 l0 -15 -30 0 -30 0 0 -20 0 -20 -15 0 -15 0 0 -15 0 -15
-20 0 -20 0 0 -15 0 -15 -15 0 -15 0 0 -15 0 -15 15 0 15 0 0 15 0 15 20 0 20
0 0 15 0 15 15 0 15 0 0 15 0 15 30 0 30 0 0 20 0 20 225 0 225 0 0 15 0 15
-225 0 -225 0 0 -15z"/>
<path d="M610 1040 l0 -20 15 0 15 0 0 20 0 20 -15 0 -15 0 0 -20z"/>
</g>
</svg>
