<?xml version="1.0" standalone="no"?>
<!DOCTYPE svg PUBLIC "-//W3C//DTD SVG 20010904//EN"
 "http://www.w3.org/TR/2001/REC-SVG-20010904/DTD/svg10.dtd">
<svg version="1.0" xmlns="http://www.w3.org/2000/svg"
 width="468pt" height="468pt" viewBox="0 0 468 468"
 preserveAspectRatio="xMidYMid meet">
<metadata>
Created by potrace 1.8, written by Peter Selinger 2001-2007
</metadata>
<g transform="translate(0,468) scale(0.365625,-0.365625)"
fill="#000000" stroke="none">
<path d="M430 1095 l0 -185 -215 0 -215 0 0 -30 0 -30 375 0 375 0 0 215 0
215 -160 0 -160 0 0 -185z"/>
<path d="M800 640 l0 -640 25 0 25 0 0 640 0 640 -25 0 -25 0 0 -640z"/>
<path d="M0 560 l0 -240 215 0 215 0 0 -160 0 -160 160 0 160 0 0 400 0 400
-375 0 -375 0 0 -240z m690 135 l0 -55 -25 0 -25 0 0 -55 0 -55 -25 0 -25 0 0
-50 0 -50 -30 0 -30 0 0 -55 0 -55 -25 0 -25 0 0 55 0 55 25 0 25 0 0 50 0 50
30 0 30 0 0 55 0 55 25 0 25 0 0 55 0 55 25 0 25 0 0 -55z"/>
</g>
</svg>
