<?xml version="1.0" standalone="no"?>
<!DOCTYPE svg PUBLIC "-//W3C//DTD SVG 20010904//EN"
 "http://www.w3.org/TR/2001/REC-SVG-20010904/DTD/svg10.dtd">
<svg version="1.0" xmlns="http://www.w3.org/2000/svg"
 width="468pt" height="468pt" viewBox="0 0 468 468"
 preserveAspectRatio="xMidYMid meet">
<metadata>
Created by potrace 1.8, written by Peter Selinger 2001-2007
</metadata>
<g transform="translate(0,468) scale(0.365625,-0.365625)"
fill="#000000" stroke="none">
<path d="M0 975 l0 -305 105 0 105 0 0 -30 0 -30 -105 0 -105 0 0 -305 0 -305
15 0 15 0 0 295 0 295 225 0 225 0 0 40 0 40 40 0 40 0 0 -80 0 -80 -225 0
-225 0 0 -255 0 -255 25 0 25 0 0 225 0 225 25 0 25 0 0 -225 0 -225 15 0 15
0 0 225 0 225 40 0 40 0 0 -225 0 -225 25 0 25 0 0 225 0 225 120 0 120 0 0
110 0 110 110 0 110 0 0 120 0 120 225 0 225 0 0 25 0 25 -335 0 -335 0 0 40
0 40 335 0 335 0 0 15 0 15 -225 0 -225 0 0 25 0 25 225 0 225 0 0 25 0 25
-255 0 -255 0 0 -50 0 -50 -40 0 -40 0 0 90 0 90 295 0 295 0 0 15 0 15 -305
0 -305 0 0 -105 0 -105 -30 0 -30 0 0 65 0 65 -10 0 -10 0 0 40 0 40 -295 0
-295 0 0 -305z m560 65 l0 -210 -40 0 -40 0 0 170 0 170 -185 0 -185 0 0 -185
0 -185 50 0 50 0 0 -40 0 -40 -90 0 -90 0 0 265 0 265 265 0 265 0 0 -210z
m-110 55 l0 -25 -120 0 -120 0 0 -120 0 -120 -25 0 -25 0 0 145 0 145 145 0
145 0 0 -25z m0 -95 l0 -40 -65 0 -65 0 0 -175 0 -175 -40 0 -40 0 0 215 0
215 105 0 105 0 0 -40z m0 -130 l0 -40 -40 0 -40 0 0 40 0 40 40 0 40 0 0 -40z
m220 0 l0 -40 -30 0 -30 0 0 40 0 40 30 0 30 0 0 -40z m100 -55 l0 -95 -200 0
-200 0 0 40 0 40 160 0 160 0 0 55 0 55 40 0 40 0 0 -95z m-320 -175 l0 -30
-40 0 -40 0 0 30 0 30 40 0 40 0 0 -30z"/>
</g>
</svg>
