<?xml version="1.0" standalone="no"?>
<!DOCTYPE svg PUBLIC "-//W3C//DTD SVG 20010904//EN"
 "http://www.w3.org/TR/2001/REC-SVG-20010904/DTD/svg10.dtd">
<svg version="1.0" xmlns="http://www.w3.org/2000/svg"
 width="468pt" height="468pt" viewBox="0 0 468 468"
 preserveAspectRatio="xMidYMid meet">
<metadata>
Created by potrace 1.8, written by Peter Selinger 2001-2007
</metadata>
<g transform="translate(0,468) scale(0.365625,-0.365625)"
fill="#000000" stroke="none">
<path d="M0 1114 l0 -165 9 5 9 6 -2 -15 -2 -14 -7 -7 -7 -7 0 -61 0 -61 41
-24 42 -23 10 -29 11 -29 11 0 10 0 12 27 13 27 0 17 0 18 -29 21 -30 21 -6
20 -7 21 23 24 22 24 49 0 48 0 0 -20 0 -20 -25 0 -26 0 -5 -15 -6 -15 13 -16
12 -15 36 -15 35 -15 10 4 11 4 13 46 14 46 44 15 44 15 3 -7 4 -7 13 -48 13
-48 -32 -33 -31 -32 0 -8 0 -9 42 -46 43 -46 14 3 14 4 15 15 16 15 13 -18 13
-18 0 -29 0 -29 -29 5 -29 6 -24 -17 -23 -18 -32 1 -33 0 1 8 1 9 -28 29 -27
28 -10 -6 -10 -6 7 12 7 11 10 -5 9 -6 6 14 5 14 50 -51 51 -51 -9 16 -8 16
-36 42 -37 42 -25 -6 -24 -7 -12 -24 -11 -24 19 0 18 0 16 -18 17 -19 0 -11 0
-12 -162 0 -162 0 12 12 12 12 0 30 -1 31 -17 33 -18 33 -3 -346 -3 -345 642
0 641 0 -2 350 -3 351 -59 -7 -60 -7 6 24 7 24 0 13 0 13 19 -6 20 -6 33 14
33 14 3 250 3 250 -253 -1 -253 -1 43 -3 43 -3 -3 -17 -3 -17 -23 -10 -22 -10
0 -11 0 -11 24 -22 24 -23 23 4 22 3 14 41 14 42 27 11 27 10 26 6 27 7 12
-54 11 -53 -41 -36 -42 -36 10 -19 10 -19 37 -35 36 -35 44 16 44 16 10 -10
11 -11 0 -27 0 -28 -12 -7 -12 -8 -46 -1 -45 -2 -45 43 -45 42 -21 6 -22 7
-33 -19 -33 -18 -4 -12 -4 -12 40 0 40 0 25 -30 26 -30 6 -19 6 -19 -26 -38
-26 -38 4 -18 5 -17 -20 -21 -20 -21 -12 10 -12 10 -13 36 -13 37 26 27 26 27
0 11 0 11 -16 13 -16 13 -19 -12 -19 -12 -41 0 -41 0 -28 -20 -29 -20 -12 -56
-13 -57 -18 23 -19 23 7 71 6 71 14 22 14 22 0 15 0 15 -17 36 -17 37 -68 -7
-68 -7 0 37 0 37 22 -6 23 -5 42 20 42 20 32 -18 31 -18 13 -32 14 -33 10 0 9
0 22 36 23 35 -34 35 -33 34 11 28 11 27 7 18 7 17 -55 0 -56 0 -6 -10 -6 -10
-12 0 -12 0 14 9 15 9 -153 -1 -152 -1 6 -39 7 -39 -22 -23 -23 -24 6 -13 5
-14 -13 -18 -13 -18 -17 4 -17 3 -16 39 -15 39 32 29 33 29 -28 27 -27 27 -5
-13 -4 -13 -26 -10 -26 -10 -26 11 -26 11 -26 -10 -25 -10 -18 -65 -18 -66
-19 17 -19 17 3 68 3 68 -7 0 -8 0 0 -166z m457 115 l38 -35 33 0 32 1 1 10 0
10 17 19 17 18 -3 6 -3 6 14 2 13 2 19 -14 19 -14 -15 0 -14 0 15 -10 15 -10
-15 0 -15 0 15 -10 15 -10 -15 0 -15 0 15 -10 15 -10 -15 0 -15 0 13 -9 14 -8
-19 -7 -18 -7 -1 3 -1 3 -16 -14 -17 -13 0 7 0 7 -14 -11 -14 -12 -6 10 -6 9
-17 -2 -18 -3 0 -42 0 -43 10 -6 10 -6 33 -1 33 -1 5 7 4 8 21 -4 21 -4 14
-12 13 -11 -1 -6 0 -7 2 -5 2 -5 3 -17 3 -17 -14 -12 -14 -11 5 -7 4 -8 -17 2
-17 1 -13 8 -13 8 10 12 11 13 -19 17 -18 17 -13 -16 -12 -15 -8 5 -7 4 -22
-22 -21 -23 28 -28 29 -27 -3 -27 -2 -27 -2 -2 -2 -3 -2 -22 -1 -21 -17 -3
-18 -2 -5 8 -5 9 -19 -4 -19 -4 -18 20 -17 19 7 0 7 0 -8 13 -8 12 -1 8 -1 7
-3 5 -2 5 -3 10 -2 10 -3 5 -2 5 -3 10 -2 10 -2 6 -1 6 -15 -12 -15 -12 0 7 0
7 -15 -12 -15 -12 0 7 0 7 -15 -12 -15 -12 0 8 0 8 -12 -12 -13 -13 -1 -10 -1
-9 -3 -5 -2 -5 -3 -10 -2 -10 -3 -5 -2 -5 -3 -10 -2 -10 -2 -6 -1 -5 -12 8
-13 7 -13 2 -14 2 -19 18 -19 17 6 8 5 9 8 -4 8 -5 21 15 21 14 -4 20 -4 21 9
-6 9 -5 6 10 6 10 8 -4 8 -5 38 39 39 40 -8 0 -8 0 11 14 12 14 -9 6 -9 6 -17
-18 -16 -19 -49 2 -50 1 -16 14 -15 13 5 5 5 5 -12 14 -11 13 7 7 6 7 -20 21
-20 22 20 18 20 18 0 -8 0 -7 15 12 16 13 12 -12 12 -12 1 -9 2 -10 2 -5 3 -5
1 -7 1 -8 18 -25 17 -24 0 14 0 15 10 -15 10 -15 0 15 0 15 10 -15 10 -15 0
13 0 12 1 8 0 7 15 17 15 16 -11 7 -12 7 23 24 23 25 2 25 1 25 -9 5 -8 5 4 8
5 8 26 -1 25 -2 37 -35z m487 31 l-6 -5 -11 0 -12 0 -1 -12 -1 -13 -3 -5 -2
-5 -3 -10 -2 -10 -3 -5 -2 -5 -2 -12 -1 -11 -17 -3 -16 -2 -24 26 -23 25 11
-6 11 -6 23 24 23 25 -7 0 -7 0 5 8 5 8 35 0 35 0 -5 -6z m243 -3 l8 -8 0 -53
1 -52 -42 1 -41 0 -17 14 -16 13 5 9 5 8 -17 10 -18 10 15 1 15 0 -15 10 -15
10 15 0 15 1 -18 10 -17 10 4 8 5 8 60 -1 60 -2 8 -7z m-97 -152 l0 -15 -20 0
-20 0 0 15 0 15 20 0 20 0 0 -15z m0 -60 l0 -15 -20 0 -20 0 0 15 0 15 20 0
20 0 0 -15z m-129 -50 l5 0 88 -80 88 -80 34 0 34 0 -2 6 -3 7 19 21 19 21 -7
0 -7 0 8 13 8 12 0 18 0 17 10 3 10 2 0 -87 1 -86 -8 4 -7 4 -6 -10 -6 -10 -9
5 -9 5 -6 -10 -7 -11 -11 9 -12 8 -15 0 -15 -1 -1 -22 -1 -23 -3 -5 -2 -5 -2
-12 -2 -13 8 -11 7 -10 38 2 38 2 0 2 0 2 15 3 16 3 0 -69 -1 -68 -13 11 -13
11 10 10 11 11 -17 18 -16 18 -19 -16 -18 -17 0 8 0 8 -25 -23 -25 -23 9 -11
10 -11 -119 0 -119 0 31 32 32 33 -8 0 -8 0 10 13 11 13 -3 17 -2 16 -6 6 -6
6 -22 -28 -21 -27 -35 -1 -34 -1 -14 20 -13 21 -2 10 -3 10 -10 13 -10 12 7 0
8 0 -18 20 -19 21 -2 15 -2 14 8 -5 9 -5 5 8 5 9 28 -2 28 -1 -5 -5 -5 -6 14
-16 13 -17 -8 0 -7 0 23 -25 23 -25 15 13 15 12 4 -2 3 -3 1 8 0 7 15 17 15
16 -11 7 -11 7 12 14 11 14 -8 0 -8 0 28 29 28 29 1 5 2 5 -19 21 -19 21 8 0
9 0 -33 34 -32 33 -30 -2 -29 -3 6 9 5 9 9 -5 8 -5 12 15 12 15 12 -7 11 -8 6
0z m-511 -250 l0 -15 -15 0 -15 0 0 15 0 15 15 0 15 0 0 -15z m0 -40 l0 -15
-15 0 -15 0 0 15 0 15 15 0 15 0 0 -15z m-424 -109 l-2 -25 -5 -5 -5 -5 0 34
0 34 7 -4 6 -4 -1 -25z m634 -42 l10 -10 -38 0 -39 0 0 11 0 11 28 0 28 -1 11
-11z"/>
<path d="M378 1246 l7 -11 1 -20 0 -20 -24 -26 -24 -27 12 -7 11 -7 -17 -19
-17 -19 7 0 7 0 -10 -18 -10 -19 -25 1 -25 2 -21 27 -21 27 6 0 7 0 -12 15
-12 15 8 0 8 0 -12 12 -11 11 -16 -13 -15 -12 0 7 0 7 -15 -12 -16 -13 21 -22
20 -21 -6 -7 -7 -7 11 -13 12 -14 -6 -6 -6 -5 19 -9 18 -9 41 0 42 1 20 18 19
18 12 -15 12 -14 -11 -7 -10 -6 4 -8 5 -8 -44 -43 -45 -44 0 8 0 8 -15 -12
-15 -12 5 -8 5 -8 -26 -21 -26 -21 -12 7 -11 6 16 -17 16 -17 14 -2 14 -3 14
-8 14 -9 -7 11 -6 11 10 6 10 6 -5 9 -5 9 10 6 10 6 -5 8 -5 8 20 18 20 18 0
-8 0 -7 15 12 15 12 0 -7 0 -7 15 12 15 12 0 -7 0 -7 14 11 13 11 13 -15 12
-15 -7 0 -7 0 12 -15 12 -15 -7 0 -7 0 12 -15 12 -15 -7 0 -7 0 12 -15 12 -15
-7 0 -7 0 11 -14 12 -14 17 3 17 2 10 -6 10 -5 11 -2 12 -2 -3 17 -2 16 5 10
6 10 2 22 1 22 -29 28 -28 27 26 28 27 27 7 -4 8 -5 12 15 13 16 23 -22 24
-22 -11 -13 -10 -12 9 -6 9 -5 20 14 21 15 -3 17 -3 18 -2 5 -2 5 1 7 1 7 -18
9 -17 8 -12 -2 -13 -1 -2 -3 -3 -2 -38 -2 -38 -2 -11 14 -12 14 -1 39 -1 40
10 7 11 6 12 2 13 2 6 -9 5 -9 12 7 12 8 8 1 7 2 5 2 5 3 13 1 12 1 0 49 0 49
-18 3 -17 2 5 -8 5 -8 -15 -12 -15 -12 5 -8 5 -9 -12 -8 -13 -8 -30 -1 -30 0
-38 35 -37 35 -25 2 -24 1 7 -11z m80 -37 l37 -35 31 0 31 1 16 14 17 13 -5 8
-5 7 18 16 18 16 0 -44 0 -43 -8 4 -7 4 -6 -10 -6 -10 -9 5 -9 5 -6 -10 -6
-10 -12 7 -12 8 -10 0 -10 1 -16 -13 -15 -13 1 -39 1 -40 18 -19 17 -19 30 2
29 3 -11 -14 -12 -14 -5 5 -6 5 -33 -32 -33 -32 31 -32 31 -32 -24 2 -23 1 0
-20 0 -20 22 1 23 1 -8 -11 -7 -11 -1 -7 -1 -8 -2 -7 -1 -7 -12 13 -13 12 0
12 0 12 -25 0 -25 0 -1 13 -1 12 -3 5 -2 5 -3 10 -2 10 -2 5 -1 5 -1 8 0 7
-16 17 -16 18 -14 -11 -13 -11 0 7 0 7 -15 -12 -15 -12 0 7 0 7 -15 -12 -15
-12 0 8 0 7 -25 -23 -24 -23 1 -6 0 -6 -2 -7 -2 -8 -2 -12 -1 -13 -17 1 -18 2
-11 1 -11 1 31 26 31 25 -3 7 -2 7 7 0 7 0 50 49 50 49 -5 8 -4 8 10 6 11 7
-17 19 -17 19 -21 -18 -21 -19 -47 2 -47 1 -7 7 -7 7 13 0 14 0 -20 14 -19 14
8 8 7 8 -22 23 -21 23 6 1 7 2 8 1 7 1 13 9 13 8 6 -6 6 -6 -14 0 -14 0 15
-10 15 -9 0 -8 0 -8 22 -31 22 -31 25 1 26 2 11 11 10 10 3 16 2 15 12 15 13
15 -11 7 -12 7 25 27 24 26 -2 26 -2 27 14 -2 13 -2 38 -35z m190 -194 l5 -5
-14 0 -14 0 14 -9 15 -9 2 -16 2 -16 -21 -10 -22 -10 16 11 17 12 -29 25 -29
24 5 8 5 9 22 -4 21 -4 5 -6z"/>
<path d="M409 1237 l-1 -7 -2 -19 -1 -19 -23 -25 -24 -25 12 -7 11 -7 -13 -15
-12 -15 -3 -18 -2 -17 19 -18 20 -18 -11 -14 -11 -13 8 0 8 0 -39 -42 -40 -42
18 13 17 13 0 -7 0 -7 15 12 15 12 0 -7 0 -7 13 11 14 11 23 -25 23 -25 -7 0
-8 0 12 -15 12 -15 -7 0 -7 0 11 -13 11 -14 -6 -6 -6 -5 19 2 18 3 -2 9 -1 9
10 12 10 13 12 -6 11 -7 -27 29 -28 28 38 40 37 39 -11 -6 -11 -6 -24 25 -23
25 -1 37 -1 37 20 25 21 25 -9 -8 -10 -7 -43 42 -43 42 -1 -7z m68 -96 l-13
-16 1 -37 1 -37 27 -29 27 -28 -30 -29 -30 -29 20 -21 21 -22 -16 -13 -15 -12
7 -12 7 -11 -17 14 -17 14 5 5 5 5 -11 14 -11 13 8 0 8 0 -29 30 -28 30 -14
-11 -13 -11 0 7 0 7 -17 -13 -18 -13 29 32 30 32 -8 0 -8 0 11 13 11 14 -20
18 -19 18 2 17 3 18 12 15 13 15 -11 7 -12 7 25 27 25 26 -4 19 -3 19 40 -39
39 -38 -13 -15z"/>
<path d="M423 1206 l7 -10 -26 -27 -26 -27 12 -7 11 -7 -13 -15 -12 -15 -3
-18 -2 -17 19 -18 20 -18 -11 -14 -11 -13 7 0 8 0 -19 -22 -19 -23 16 12 16
13 33 -35 34 -35 -8 0 -8 0 11 -13 11 -14 -8 -9 -7 -8 18 13 18 14 -21 22 -20
21 30 29 30 29 -27 28 -27 29 -1 37 -1 37 13 16 13 15 -33 30 -32 29 8 -9z
m34 -65 l-13 -16 1 -37 1 -37 27 -29 27 -28 -28 -27 -29 -27 -18 20 -19 21 -2
14 -2 15 10 6 10 6 -21 22 -20 21 2 17 3 16 12 15 13 15 -11 7 -12 7 23 24 22
24 19 -17 18 -16 -13 -16z"/>
<path d="M416 1161 l-17 -19 11 -7 11 -7 -13 -15 -12 -15 -3 -16 -2 -17 20
-21 21 -22 -10 -6 -10 -6 2 -14 2 -14 13 -16 14 -17 24 23 23 22 -27 28 -27
29 -1 37 -1 37 13 16 14 16 -14 12 -14 11 -17 -19z m23 -17 l-11 -14 -10 6 -9
6 12 14 11 14 10 -6 9 -6 -12 -14z m-14 -56 l-1 -33 28 -31 28 -30 -19 -18
-19 -17 -8 13 -8 13 -2 12 -2 13 10 6 10 6 -21 22 -20 21 2 15 3 15 7 13 8 12
3 0 2 0 -1 -32z"/>
<path d="M439 1019 l-1 -4 -3 -17 -3 -18 8 -5 8 -5 11 14 11 13 -15 13 -15 12
-1 -3z m16 -18 l5 -10 -8 -5 -9 -5 0 14 0 15 3 0 3 0 6 -9z"/>
<path d="M595 1220 l-6 -10 7 0 7 0 -23 -25 -23 -24 -10 6 -10 6 7 -12 8 -12
14 12 14 11 0 -8 0 -8 12 12 12 12 2 25 1 25 -3 0 -3 0 -6 -10z"/>
<path d="M198 1101 l32 -27 0 -10 0 -9 -10 15 -9 14 -8 -8 -8 -8 18 -9 17 -10
-4 -8 -5 -7 24 0 23 0 -25 33 -25 33 -12 0 -11 0 15 10 15 10 -10 1 -10 1 -20
3 -20 4 33 -28z"/>
<path d="M237 852 l-17 -19 15 0 15 0 -5 5 -5 5 11 14 11 13 -4 0 -5 0 -16
-18z"/>
<path d="M505 821 l-5 -10 8 -5 9 -5 0 14 0 15 -3 0 -3 0 -6 -9z"/>
<path d="M617 998 l16 -18 11 0 11 1 -18 10 -17 10 4 8 5 8 -14 0 -15 0 17
-19z"/>
<path d="M885 1252 l5 -6 -26 -27 -26 -27 14 -8 13 -8 12 -2 12 -2 0 6 -1 7 2
8 3 7 2 10 3 10 2 3 2 2 3 16 3 16 -14 0 -14 0 5 -5z m5 -27 l-12 -15 7 0 7 0
-12 -15 -12 -15 -10 6 -10 6 23 24 22 24 5 0 4 0 -12 -15z"/>
<path d="M1072 1249 l13 -8 1 -21 2 -20 2 -5 3 -5 1 -7 1 -8 7 -11 7 -10 38 1
38 1 0 49 0 49 -63 1 -63 2 13 -8z m102 -9 l-6 -5 -11 0 -12 0 0 -20 0 -20 14
0 14 0 3 -16 2 -17 -17 2 -16 3 0 14 0 14 -24 0 -25 0 -1 25 -2 26 43 0 43 0
-5 -6z"/>
<path d="M1109 1236 l-1 -1 -3 -16 -3 -17 16 2 15 3 3 15 2 15 -14 0 -14 0 -1
-1z"/>
<path d="M924 989 l-7 -12 10 6 10 6 38 -39 39 -40 -9 0 -8 0 19 -21 19 -21
-2 -5 -1 -5 -28 -29 -28 -29 8 0 8 0 -11 -14 -12 -14 11 -7 11 -7 -17 -19 -17
-19 8 0 7 0 -12 -15 -12 -15 -8 5 -9 5 -6 -11 -7 -11 -29 28 -28 27 5 8 4 8
-10 6 -10 6 4 8 5 8 -22 -1 -22 -2 -13 -8 -14 -8 23 -24 22 -24 -7 0 -8 0 13
-17 14 -16 -1 -6 -2 -6 14 -20 14 -19 0 14 0 15 10 -15 10 -15 0 15 0 15 9
-14 9 -13 5 13 5 14 1 -13 1 -14 26 32 27 31 10 -10 11 -11 2 -17 3 -17 -11
-13 -10 -13 8 0 8 0 -27 -28 -26 -27 99 0 98 -1 -3 7 -4 6 28 27 27 26 7 -6 6
-6 12 20 12 20 17 -21 17 -21 -1 32 -1 32 -8 0 -7 0 -2 -1 -3 -1 -38 -2 -37
-2 -13 15 -13 16 2 13 2 12 2 5 3 5 1 18 1 17 8 12 7 11 13 -2 12 -2 12 -7 12
-7 6 10 6 10 9 -5 9 -5 8 12 8 13 0 52 1 52 -8 -5 -8 -5 5 -9 5 -8 -15 -12
-15 -12 5 -8 5 -8 -13 -9 -12 -9 -32 0 -31 1 -88 80 -88 80 -5 0 -6 0 -12 8
-12 7 -7 -11z m249 -175 l32 0 17 14 18 15 -5 8 -5 8 8 5 8 5 -1 -37 -1 -37
-5 5 -6 5 -15 -12 -15 -13 -7 7 -7 7 -14 2 -14 2 -13 -15 -13 -16 -1 -19 -1
-18 -3 -5 -2 -5 -2 -12 -2 -13 18 -21 19 -21 29 2 29 2 -10 -19 -11 -20 -6 6
-6 6 -33 -32 -34 -33 -79 0 -79 -1 21 23 21 23 -7 0 -8 0 10 13 11 13 -3 16
-2 16 -13 16 -14 17 -24 -23 -24 -22 -35 -1 -35 -1 -11 13 -10 13 7 0 7 0 -12
15 -12 15 8 0 7 0 -23 25 -23 25 6 1 7 2 13 1 12 2 12 -9 13 -9 -5 -8 -4 -7
33 -32 34 -33 7 11 6 11 8 -5 8 -5 18 20 18 20 -8 0 -8 0 17 19 17 19 -11 7
-11 7 12 14 11 14 -8 0 -8 0 28 29 28 29 -2 9 -1 8 -16 18 -16 17 8 0 9 0 -35
37 -34 37 93 -85 93 -84 32 -1z m74 -166 l2 -23 -9 15 -9 14 5 8 5 8 2 0 3 0
1 -22z"/>
<path d="M1035 891 l20 -23 -2 -5 -1 -5 -28 -29 -28 -29 8 0 8 0 -11 -14 -12
-14 11 -7 11 -7 -15 -16 -15 -17 0 -10 0 -10 17 -18 16 -18 2 -17 3 -16 -11
-13 -10 -13 7 0 8 0 -16 -18 -16 -18 69 1 69 0 30 29 31 30 -1 10 -1 11 -5
-12 -5 -13 -26 32 -27 32 -1 10 0 11 5 10 6 10 0 16 0 17 20 23 20 22 -11 -6
-12 -7 -12 15 -13 16 -51 41 -51 42 20 -23z m65 -57 l40 -37 -12 -15 -13 -15
-1 -19 -1 -18 -3 -5 -2 -5 -2 -12 -2 -13 29 -34 29 -34 -21 -21 -21 -21 -60 0
-59 -1 11 13 10 13 -7 0 -7 0 10 13 11 13 -3 16 -2 17 -16 18 -17 18 -3 6 -3
7 18 20 18 20 -11 7 -11 7 12 14 11 14 -8 0 -8 0 27 28 27 28 -7 7 -6 7 6 0 7
0 40 -36z"/>
<path d="M1040 825 l-23 -25 7 0 8 0 -11 -14 -12 -14 11 -7 11 -7 -15 -16 -15
-17 0 -10 0 -10 17 -18 16 -18 2 -16 3 -17 -7 -10 -6 -11 -2 -11 -2 -10 49 0
48 1 17 16 16 16 -32 36 -31 36 -2 4 -2 4 11 14 11 14 -2 17 -3 17 14 12 15
12 -27 29 -28 28 -6 0 -7 0 -23 -25z m59 -8 l22 -24 -15 -12 -14 -12 3 -17 2
-17 -7 -10 -8 -10 -2 -8 -1 -8 31 -35 31 -36 -10 -12 -10 -12 -43 2 -43 2 -4
1 -3 1 10 13 11 13 -3 16 -2 17 -16 18 -17 18 -3 6 -3 7 18 20 18 20 -11 7
-11 7 12 14 11 14 -7 0 -8 0 18 20 18 20 7 0 7 0 22 -23z"/>
<path d="M1050 815 l-12 -15 7 0 7 0 -11 -14 -12 -14 11 -7 11 -7 -15 -16 -15
-17 0 -10 0 -10 17 -18 16 -18 2 -17 3 -16 -9 -12 -10 -11 43 2 42 1 -3 15 -3
14 -30 28 -29 27 12 0 13 0 -13 9 -14 8 16 6 15 6 -4 20 -4 20 15 12 15 12
-17 18 -17 19 -7 0 -8 0 -12 -15z m39 -9 l12 -14 -23 -16 -22 -16 14 0 15 0
-15 -10 -15 -10 15 0 15 0 -14 -9 -15 -9 -2 -16 -2 -15 24 -15 23 -16 10 -18
9 -17 -30 -2 -31 -1 14 9 14 9 -15 10 -15 10 14 0 14 0 -26 20 -25 20 2 14 2
14 12 15 13 15 -11 7 -10 6 7 12 8 12 1 8 2 7 1 5 1 5 9 0 9 0 11 -14z"/>
<path d="M1068 803 l13 -5 -18 -15 -18 -14 23 11 23 11 -6 10 -6 9 -12 -1 -12
-1 13 -5z"/>
<path d="M1086 647 l6 -18 6 6 6 5 -13 13 -12 12 7 -18z"/>
<path d="M1220 815 l-12 -15 -11 7 -10 6 7 -12 8 -12 12 10 13 11 5 -5 5 -5 0
15 0 15 -2 0 -3 0 -12 -15z"/>
<path d="M831 734 l22 -24 -7 0 -8 0 10 -12 10 -13 -1 -9 -2 -10 28 -1 28 -2
-38 39 -38 39 5 6 5 6 -19 3 -18 3 23 -25z m42 -42 l17 -19 -15 0 -15 0 5 5 5
5 -11 14 -11 13 4 0 5 0 16 -18z"/>
<path d="M960 1215 l0 -15 15 0 15 0 0 15 0 15 -15 0 -15 0 0 -15z"/>
<path d="M1000 1185 l0 -15 15 0 15 0 0 15 0 15 -15 0 -15 0 0 -15z"/>
<path d="M330 855 l0 -15 15 0 15 0 0 15 0 15 -15 0 -15 0 0 -15z"/>
<path d="M370 825 l0 -15 15 0 15 0 0 15 0 15 -15 0 -15 0 0 -15z"/>
<path d="M326 621 l-5 -8 24 -23 24 -23 -4 -6 -4 -7 25 0 24 0 -37 38 -37 38
-2 0 -3 0 -5 -9z m40 -33 l29 -33 -32 29 -33 30 0 3 0 3 3 0 3 0 30 -32z"/>
</g>
</svg>
