<?xml version="1.0" standalone="no"?>
<!DOCTYPE svg PUBLIC "-//W3C//DTD SVG 20010904//EN"
 "http://www.w3.org/TR/2001/REC-SVG-20010904/DTD/svg10.dtd">
<svg version="1.0" xmlns="http://www.w3.org/2000/svg"
 width="468pt" height="468pt" viewBox="0 0 468 468"
 preserveAspectRatio="xMidYMid meet">
<metadata>
Created by potrace 1.8, written by Peter Selinger 2001-2007
</metadata>
<g transform="translate(0,468) scale(0.365625,-0.365625)"
fill="#000000" stroke="none">
<path d="M370 1175 l0 -105 15 0 15 0 0 50 0 50 40 0 40 0 0 15 0 15 15 0 15
0 0 25 0 25 -15 0 -15 0 0 15 0 15 -55 0 -55 0 0 -105z m110 50 l0 -25 -40 0
-40 0 0 25 0 25 40 0 40 0 0 -25z"/>
<path d="M560 1215 l0 -15 -15 0 -15 0 0 -55 0 -55 15 0 15 0 0 -10 0 -10 25
0 25 0 0 10 0 10 15 0 15 0 0 15 0 15 -15 0 -15 0 0 -15 0 -15 -25 0 -25 0 0
30 0 30 40 0 40 0 0 25 0 25 -15 0 -15 0 0 15 0 15 -25 0 -25 0 0 -15z m50
-30 l0 -15 -25 0 -25 0 0 15 0 15 25 0 25 0 0 -15z"/>
<path d="M670 1150 l0 -80 10 0 10 0 0 50 0 50 15 0 15 0 0 15 0 15 15 0 15 0
0 15 0 15 -15 0 -15 0 0 -15 0 -15 -15 0 -15 0 0 15 0 15 -10 0 -10 0 0 -80z"/>
<path d="M770 1160 l0 -70 15 0 15 0 0 -10 0 -10 40 0 40 0 0 80 0 80 -15 0
-15 0 0 -70 0 -70 -25 0 -25 0 0 70 0 70 -15 0 -15 0 0 -70z"/>
<path d="M0 535 l0 -425 640 0 640 0 0 425 0 425 -640 0 -640 0 0 -425z m50
385 l0 -10 15 0 15 0 0 10 0 10 14 0 14 0 6 -12 6 -13 6 13 6 12 14 0 14 0 0
-10 0 -10 14 0 14 0 6 13 6 12 6 -12 6 -13 14 0 14 0 0 10 0 10 14 0 14 0 6
-12 6 -13 6 13 6 12 14 0 14 0 0 -10 0 -10 14 0 14 0 6 13 6 12 6 -12 6 -13
14 0 14 0 0 10 0 10 240 0 240 0 0 -10 0 -10 14 0 14 0 6 13 6 12 6 -12 6 -13
14 0 14 0 0 10 0 10 14 0 14 0 6 -12 6 -13 6 13 6 12 14 0 14 0 0 -10 0 -10
14 0 14 0 6 13 6 12 6 -12 6 -13 14 0 14 0 0 10 0 10 14 0 14 0 6 -12 6 -13 6
13 6 12 14 0 14 0 0 -10 0 -10 14 0 14 0 5 13 4 12 9 -9 9 -9 -12 -4 -13 -5 0
-14 0 -14 10 0 10 0 0 -14 0 -14 -12 -6 -13 -6 13 -6 12 -6 0 -14 0 -14 -10 0
-10 0 0 -14 0 -14 13 -6 12 -6 -12 -6 -13 -6 0 -14 0 -14 10 0 10 0 0 -14 0
-14 -12 -6 -13 -6 13 -6 12 -6 0 -14 0 -14 -10 0 -10 0 0 -14 0 -14 13 -6 12
-6 -12 -6 -13 -6 0 -14 0 -14 10 0 10 0 0 -14 0 -14 -13 -6 -12 -6 13 -6 12
-6 0 -14 0 -14 -10 0 -10 0 0 -14 0 -14 13 -6 12 -6 -12 -6 -13 -6 0 -14 0
-14 10 0 10 0 0 -14 0 -14 -13 -6 -12 -6 13 -6 12 -6 0 -14 0 -14 -10 0 -10 0
0 -14 0 -14 13 -6 12 -6 -13 -6 -12 -6 0 -14 0 -14 10 0 10 0 0 -14 0 -14 -12
-6 -13 -6 13 -6 12 -6 0 -14 0 -14 -10 0 -10 0 0 -15 0 -15 -15 0 -15 0 0 15
0 15 -15 0 -15 0 0 -15 0 -15 -10 0 -10 0 0 15 0 15 -15 0 -15 0 0 -15 0 -15
-15 0 -15 0 0 15 0 15 -10 0 -10 0 0 -15 0 -15 -15 0 -15 0 0 15 0 15 -15 0
-15 0 0 -15 0 -15 -10 0 -10 0 0 15 0 15 -15 0 -15 0 0 -15 0 -15 -15 0 -15 0
0 15 0 15 -10 0 -10 0 0 -15 0 -15 -15 0 -15 0 0 15 0 15 -15 0 -15 0 0 -15 0
-15 -210 0 -210 0 0 15 0 15 -15 0 -15 0 0 -15 0 -15 -15 0 -15 0 0 15 0 15
-10 0 -10 0 0 -15 0 -15 -15 0 -15 0 0 15 0 15 -15 0 -15 0 0 -15 0 -15 -10 0
-10 0 0 15 0 15 -15 0 -15 0 0 -15 0 -15 -15 0 -15 0 0 15 0 15 -10 0 -10 0 0
-15 0 -15 -15 0 -15 0 0 15 0 15 -15 0 -15 0 0 -15 0 -15 -10 0 -10 0 0 15 0
15 -15 0 -15 0 0 -15 0 -15 -15 0 -15 0 0 15 0 15 -10 0 -10 0 0 14 0 14 13 6
12 6 -12 6 -13 6 0 14 0 14 10 0 10 0 0 14 0 14 -12 6 -13 6 12 6 13 6 0 14 0
14 -10 0 -10 0 0 14 0 14 13 6 12 6 -12 6 -13 6 0 14 0 14 10 0 10 0 0 14 0
14 -12 6 -13 6 13 6 12 6 0 14 0 14 -10 0 -10 0 0 14 0 14 12 6 13 6 -12 6
-13 6 0 14 0 14 10 0 10 0 0 14 0 14 -13 6 -12 6 12 6 13 6 0 14 0 14 -10 0
-10 0 0 14 0 14 13 6 12 6 -12 6 -13 6 0 14 0 14 10 0 10 0 0 14 0 14 -12 6
-13 6 12 6 13 6 0 14 0 14 -10 0 -10 0 0 14 0 14 13 6 12 6 -12 6 -13 6 0 14
0 14 10 0 10 0 0 15 0 15 -10 0 -10 0 0 10 0 10 10 0 10 0 0 -10z"/>
<path d="M80 895 l0 -15 -15 0 -15 0 0 -15 0 -15 15 0 15 0 0 -10 0 -10 -15 0
-15 0 0 -15 0 -15 15 0 15 0 0 -15 0 -15 -15 0 -15 0 0 -10 0 -10 15 0 15 0 0
-15 0 -15 -15 0 -15 0 0 -15 0 -15 15 0 15 0 0 -10 0 -10 -15 0 -15 0 0 -15 0
-15 15 0 15 0 0 -15 0 -15 -15 0 -15 0 0 -10 0 -10 15 0 15 0 0 -15 0 -15 -15
0 -15 0 0 -15 0 -15 15 0 15 0 0 -10 0 -10 -15 0 -15 0 0 -15 0 -15 15 0 15 0
0 -15 0 -15 -15 0 -15 0 0 -10 0 -10 15 0 15 0 0 -15 0 -15 -15 0 -15 0 0 -15
0 -15 15 0 15 0 0 -10 0 -10 -15 0 -15 0 0 -15 0 -15 15 0 15 0 0 -15 0 -15
-15 0 -15 0 0 -10 0 -10 15 0 15 0 0 -15 0 -15 -15 0 -15 0 0 -15 0 -15 15 0
15 0 0 -10 0 -10 -15 0 -15 0 0 -15 0 -15 15 0 15 0 0 15 0 15 15 0 15 0 0
-15 0 -15 10 0 10 0 0 15 0 15 15 0 15 0 0 -15 0 -15 15 0 15 0 0 15 0 15 -15
0 -15 0 0 10 0 10 15 0 15 0 0 15 0 15 10 0 10 0 0 -15 0 -15 15 0 15 0 0 -10
0 -10 -15 0 -15 0 0 -15 0 -15 15 0 15 0 0 15 0 15 15 0 15 0 0 -15 0 -15 10
0 10 0 0 15 0 15 15 0 15 0 0 -15 0 -15 15 0 15 0 0 15 0 15 -15 0 -15 0 0 10
0 10 15 0 15 0 0 15 0 15 10 0 10 0 0 -15 0 -15 15 0 15 0 0 -10 0 -10 -15 0
-15 0 0 -15 0 -15 15 0 15 0 0 15 0 15 15 0 15 0 0 10 0 10 -15 0 -15 0 0 15
0 15 15 0 15 0 0 15 0 15 -15 0 -15 0 0 10 0 10 15 0 15 0 0 15 0 15 -15 0
-15 0 0 15 0 15 15 0 15 0 0 10 0 10 -15 0 -15 0 0 15 0 15 15 0 15 0 0 15 0
15 -15 0 -15 0 0 10 0 10 15 0 15 0 0 15 0 15 -15 0 -15 0 0 15 0 15 15 0 15
0 0 10 0 10 -15 0 -15 0 0 15 0 15 15 0 15 0 0 15 0 15 -15 0 -15 0 0 10 0 10
15 0 15 0 0 15 0 15 -15 0 -15 0 0 15 0 15 15 0 15 0 0 10 0 10 -15 0 -15 0 0
15 0 15 15 0 15 0 0 15 0 15 -15 0 -15 0 0 10 0 10 15 0 15 0 0 15 0 15 -15 0
-15 0 0 15 0 15 15 0 15 0 0 10 0 10 -15 0 -15 0 0 15 0 15 15 0 15 0 0 15 0
15 -15 0 -15 0 0 -15 0 -15 -15 0 -15 0 0 15 0 15 -10 0 -10 0 0 -15 0 -15
-15 0 -15 0 0 15 0 15 -15 0 -15 0 0 -15 0 -15 -10 0 -10 0 0 15 0 15 -15 0
-15 0 0 -15 0 -15 -15 0 -15 0 0 15 0 15 -10 0 -10 0 0 -15 0 -15 -15 0 -15 0
0 15 0 15 -15 0 -15 0 0 -15 0 -15 -10 0 -10 0 0 15 0 15 -15 0 -15 0 0 -15z
m30 -30 l0 -15 -15 0 -15 0 0 15 0 15 15 0 15 0 0 -15z m50 0 l0 -15 15 0 15
0 0 15 0 15 10 0 10 0 0 -15 0 -15 15 0 15 0 0 15 0 15 15 0 15 0 0 -15 0 -15
-15 0 -15 0 0 -10 0 -10 15 0 15 0 0 -15 0 -15 10 0 10 0 0 15 0 15 15 0 15 0
0 10 0 10 -15 0 -15 0 0 15 0 15 15 0 15 0 0 -15 0 -15 15 0 15 0 0 15 0 15
10 0 10 0 0 -15 0 -15 15 0 15 0 0 -10 0 -10 -15 0 -15 0 0 -15 0 -15 15 0 15
0 0 -15 0 -15 -15 0 -15 0 0 15 0 15 -10 0 -10 0 0 -15 0 -15 -15 0 -15 0 0
-10 0 -10 15 0 15 0 0 -15 0 -15 10 0 10 0 0 15 0 15 15 0 15 0 0 -15 0 -15
-15 0 -15 0 0 -15 0 -15 15 0 15 0 0 -10 0 -10 -15 0 -15 0 0 -15 0 -15 15 0
15 0 0 -15 0 -15 -15 0 -15 0 0 15 0 15 -10 0 -10 0 0 -15 0 -15 -15 0 -15 0
0 -10 0 -10 15 0 15 0 0 -15 0 -15 10 0 10 0 0 15 0 15 15 0 15 0 0 -15 0 -15
-15 0 -15 0 0 -15 0 -15 15 0 15 0 0 -10 0 -10 -15 0 -15 0 0 -15 0 -15 15 0
15 0 0 -15 0 -15 -15 0 -15 0 0 15 0 15 -10 0 -10 0 0 -15 0 -15 -15 0 -15 0
0 -10 0 -10 15 0 15 0 0 -15 0 -15 10 0 10 0 0 15 0 15 15 0 15 0 0 -15 0 -15
-15 0 -15 0 0 -15 0 -15 15 0 15 0 0 -10 0 -10 -15 0 -15 0 0 -15 0 -15 15 0
15 0 0 -15 0 -15 -15 0 -15 0 0 15 0 15 -10 0 -10 0 0 -15 0 -15 -15 0 -15 0
0 -10 0 -10 15 0 15 0 0 -15 0 -15 -15 0 -15 0 0 -15 0 -15 -14 0 -14 0 -6
-12 -6 -13 -6 13 -6 12 -14 0 -14 0 0 15 0 15 -15 0 -15 0 0 15 0 15 15 0 15
0 0 10 0 10 -15 0 -15 0 0 15 0 15 -10 0 -10 0 0 -15 0 -15 -15 0 -15 0 0 -10
0 -10 15 0 15 0 0 -15 0 -15 -15 0 -15 0 0 -15 0 -15 -14 0 -14 0 -6 -12 -6
-13 -6 13 -6 12 -14 0 -14 0 0 15 0 15 15 0 15 0 0 15 0 15 -15 0 -15 0 0 10
0 10 15 0 15 0 0 15 0 15 -15 0 -15 0 0 15 0 15 15 0 15 0 0 -15 0 -15 10 0
10 0 0 15 0 15 15 0 15 0 0 10 0 10 -15 0 -15 0 0 15 0 15 -10 0 -10 0 0 -15
0 -15 -15 0 -15 0 0 15 0 15 15 0 15 0 0 15 0 15 -15 0 -15 0 0 10 0 10 15 0
15 0 0 15 0 15 -15 0 -15 0 0 15 0 15 15 0 15 0 0 -15 0 -15 10 0 10 0 0 15 0
15 15 0 15 0 0 10 0 10 -15 0 -15 0 0 15 0 15 -10 0 -10 0 0 -15 0 -15 -15 0
-15 0 0 15 0 15 15 0 15 0 0 15 0 15 -15 0 -15 0 0 10 0 10 15 0 15 0 0 15 0
15 -15 0 -15 0 0 15 0 15 15 0 15 0 0 -15 0 -15 10 0 10 0 0 15 0 15 15 0 15
0 0 10 0 10 -15 0 -15 0 0 15 0 15 -10 0 -10 0 0 -15 0 -15 -15 0 -15 0 0 15
0 15 15 0 15 0 0 15 0 15 -15 0 -15 0 0 10 0 10 15 0 15 0 0 15 0 15 -15 0
-15 0 0 15 0 15 11 0 10 0 15 14 14 15 0 10 0 11 15 0 15 0 0 -15z m130 -25
l0 -10 -10 0 -10 0 0 10 0 10 10 0 10 0 0 -10z m80 -80 l0 -10 -10 0 -10 0 0
10 0 10 10 0 10 0 0 -10z m-240 -80 l0 -10 -10 0 -10 0 0 10 0 10 10 0 10 0 0
-10z m240 -80 l0 -10 -10 0 -10 0 0 10 0 10 10 0 10 0 0 -10z m-240 -80 l0
-10 -10 0 -10 0 0 10 0 10 10 0 10 0 0 -10z m240 -80 l0 -10 -10 0 -10 0 0 10
0 10 10 0 10 0 0 -10z m-240 -80 l0 -10 -10 0 -10 0 0 10 0 10 10 0 10 0 0
-10z m80 -80 l0 -10 -10 0 -10 0 0 10 0 10 10 0 10 0 0 -10z m160 0 l0 -10 15
0 15 0 0 -15 0 -15 -15 0 -15 0 0 15 0 15 -10 0 -10 0 0 10 0 10 10 0 10 0 0
-10z"/>
<path d="M123 835 l-13 -14 0 -11 0 -10 10 0 10 0 0 -14 0 -14 -12 -6 -13 -6
13 -6 12 -6 0 -14 0 -14 15 0 15 0 0 -15 0 -15 15 0 15 0 0 15 0 15 10 0 10 0
0 -15 0 -15 15 0 15 0 0 -10 0 -10 -15 0 -15 0 0 -15 0 -15 -10 0 -10 0 0 15
0 15 -15 0 -15 0 0 -15 0 -15 -15 0 -15 0 0 -14 0 -14 -12 -6 -13 -6 13 -6 12
-6 0 -14 0 -14 15 0 15 0 0 -15 0 -15 15 0 15 0 0 15 0 15 10 0 10 0 0 -15 0
-15 15 0 15 0 0 -10 0 -10 -15 0 -15 0 0 -15 0 -15 -10 0 -10 0 0 15 0 15 -15
0 -15 0 0 -15 0 -15 -15 0 -15 0 0 -14 0 -14 -13 -6 -12 -6 13 -6 12 -6 0 -14
0 -14 15 0 15 0 0 -15 0 -15 15 0 15 0 0 15 0 15 10 0 10 0 0 -15 0 -15 15 0
15 0 0 -10 0 -10 -15 0 -15 0 0 -15 0 -15 15 0 15 0 0 -15 0 -15 15 0 15 0 0
15 0 15 10 0 10 0 0 -15 0 -15 15 0 15 0 0 15 0 15 15 0 15 0 0 14 0 14 13 6
12 6 -12 6 -13 6 0 14 0 14 -15 0 -15 0 0 15 0 15 -15 0 -15 0 0 -15 0 -15
-10 0 -10 0 0 15 0 15 -15 0 -15 0 0 10 0 10 15 0 15 0 0 15 0 15 10 0 10 0 0
-15 0 -15 15 0 15 0 0 15 0 15 15 0 15 0 0 14 0 14 13 6 12 6 -12 6 -13 6 0
14 0 14 -15 0 -15 0 0 15 0 15 -15 0 -15 0 0 -15 0 -15 -10 0 -10 0 0 15 0 15
-15 0 -15 0 0 10 0 10 15 0 15 0 0 15 0 15 10 0 10 0 0 -15 0 -15 15 0 15 0 0
15 0 15 15 0 15 0 0 14 0 14 13 6 12 6 -12 6 -13 6 0 14 0 14 -15 0 -15 0 0
15 0 15 -15 0 -15 0 0 -15 0 -15 -10 0 -10 0 0 15 0 15 -15 0 -15 0 0 10 0 10
15 0 15 0 0 15 0 15 -15 0 -15 0 0 15 0 15 -14 0 -14 0 -6 13 -6 12 -6 -12 -6
-13 -14 0 -14 0 0 10 0 10 -12 0 -13 -1 -12 -14z m37 -20 l0 -15 15 0 15 0 0
15 0 15 10 0 10 0 0 -15 0 -15 15 0 15 0 0 -15 0 -15 -15 0 -15 0 0 15 0 15
-10 0 -10 0 0 -15 0 -15 -15 0 -15 0 0 -10 0 -10 15 0 15 0 0 -15 0 -15 -15 0
-15 0 0 15 0 15 -15 0 -15 0 0 10 0 10 15 0 15 0 0 15 0 15 -15 0 -15 0 0 15
0 15 15 0 15 0 0 -15z m50 -55 l0 -10 15 0 15 0 0 -15 0 -15 15 0 15 0 0 -15
0 -15 -15 0 -15 0 0 15 0 15 -15 0 -15 0 0 15 0 15 -10 0 -10 0 0 10 0 10 10
0 10 0 0 -10z m110 -55 l0 -15 15 0 15 0 0 -10 0 -10 -15 0 -15 0 0 -15 0 -15
-15 0 -15 0 0 15 0 15 15 0 15 0 0 10 0 10 -11 0 -10 0 -15 -14 -14 -15 0 -10
0 -11 -15 0 -15 0 0 -15 0 -15 -15 0 -15 0 0 15 0 15 15 0 15 0 0 15 0 15 11
0 10 0 15 14 14 15 0 10 0 11 15 0 15 0 0 -15z m-130 -76 l0 -10 14 -15 15
-14 10 0 11 0 0 -15 0 -15 15 0 15 0 0 -15 0 -15 -15 0 -15 0 0 15 0 15 -15 0
-15 0 0 11 0 10 -14 15 -15 14 -10 0 -11 0 0 -10 0 -10 15 0 15 0 0 -15 0 -15
-15 0 -15 0 0 15 0 15 -15 0 -15 0 0 10 0 10 15 0 15 0 0 15 0 15 15 0 15 0 0
-11z m130 -84 l0 -15 15 0 15 0 0 -10 0 -10 -15 0 -15 0 0 -15 0 -15 -15 0
-15 0 0 15 0 15 15 0 15 0 0 10 0 10 -11 0 -10 0 -15 -14 -14 -15 0 -10 0 -11
-15 0 -15 0 0 -15 0 -15 -15 0 -15 0 0 15 0 15 15 0 15 0 0 15 0 15 11 0 10 0
15 14 14 15 0 10 0 11 15 0 15 0 0 -15z m-130 -76 l0 -10 14 -15 15 -14 10 0
11 0 0 -15 0 -15 15 0 15 0 0 -15 0 -15 -15 0 -15 0 0 15 0 15 -15 0 -15 0 0
11 0 10 -14 15 -15 14 -10 0 -11 0 0 -10 0 -10 15 0 15 0 0 -15 0 -15 -15 0
-15 0 0 15 0 15 -15 0 -15 0 0 10 0 10 15 0 15 0 0 15 0 15 15 0 15 0 0 -11z
m130 -84 l0 -15 15 0 15 0 0 -10 0 -10 -15 0 -15 0 0 -15 0 -15 -15 0 -15 0 0
15 0 15 15 0 15 0 0 10 0 10 -11 0 -10 0 -15 -14 -14 -15 0 -10 0 -11 -15 0
-15 0 0 15 0 15 11 0 10 0 15 14 14 15 0 10 0 11 15 0 15 0 0 -15z"/>
<path d="M350 840 l0 -10 -15 0 -15 0 0 -15 0 -15 -15 0 -15 0 0 -14 0 -14
-12 -5 -13 -4 9 -9 9 -9 4 13 5 12 14 0 14 0 0 15 0 15 15 0 15 0 0 15 0 15
10 0 10 0 0 10 0 10 -10 0 -10 0 0 -10z"/>
<path d="M190 680 l0 -10 10 0 10 0 0 10 0 10 -10 0 -10 0 0 -10z"/>
<path d="M270 600 l0 -10 10 0 10 0 0 10 0 10 -10 0 -10 0 0 -10z"/>
<path d="M190 520 l0 -10 10 0 10 0 0 10 0 10 -10 0 -10 0 0 -10z"/>
<path d="M270 440 l0 -10 10 0 10 0 0 10 0 10 -10 0 -10 0 0 -10z"/>
<path d="M190 360 l0 -10 -15 0 -15 0 0 -15 0 -15 -15 0 -15 0 0 -14 0 -14
-12 -6 -13 -6 13 -6 12 -6 0 -14 0 -14 -10 0 -10 0 0 -15 0 -15 10 0 10 0 0
15 0 15 15 0 15 0 0 15 0 15 -15 0 -15 0 0 10 0 10 15 0 15 0 0 15 0 15 15 0
15 0 0 15 0 15 10 0 10 0 0 10 0 10 -10 0 -10 0 0 -10z"/>
<path d="M270 280 l0 -10 -15 0 -15 0 0 -15 0 -15 15 0 15 0 0 -15 0 -15 10 0
10 0 0 15 0 15 15 0 15 0 0 15 0 15 -15 0 -15 0 0 10 0 10 -10 0 -10 0 0 -10z
m20 -25 l0 -15 -10 0 -10 0 0 15 0 15 10 0 10 0 0 -15z"/>
<path d="M850 895 l0 -15 15 0 15 0 0 -15 0 -15 -15 0 -15 0 0 -10 0 -10 15 0
15 0 0 -15 0 -15 -15 0 -15 0 0 -15 0 -15 15 0 15 0 0 -10 0 -10 -15 0 -15 0
0 -15 0 -15 15 0 15 0 0 -15 0 -15 -15 0 -15 0 0 -10 0 -10 15 0 15 0 0 -15 0
-15 -15 0 -15 0 0 -15 0 -15 15 0 15 0 0 -10 0 -10 -15 0 -15 0 0 -15 0 -15
15 0 15 0 0 -15 0 -15 -15 0 -15 0 0 -10 0 -10 15 0 15 0 0 -15 0 -15 -15 0
-15 0 0 -15 0 -15 15 0 15 0 0 -10 0 -10 -15 0 -15 0 0 -15 0 -15 15 0 15 0 0
-15 0 -15 -15 0 -15 0 0 -10 0 -10 15 0 15 0 0 -15 0 -15 -15 0 -15 0 0 -15 0
-15 15 0 15 0 0 -10 0 -10 -15 0 -15 0 0 -15 0 -15 15 0 15 0 0 -15 0 -15 -15
0 -15 0 0 -10 0 -10 15 0 15 0 0 -15 0 -15 15 0 15 0 0 15 0 15 -15 0 -15 0 0
10 0 10 15 0 15 0 0 15 0 15 10 0 10 0 0 -15 0 -15 15 0 15 0 0 -10 0 -10 -15
0 -15 0 0 -15 0 -15 15 0 15 0 0 15 0 15 15 0 15 0 0 -15 0 -15 10 0 10 0 0
15 0 15 15 0 15 0 0 -15 0 -15 15 0 15 0 0 15 0 15 -15 0 -15 0 0 10 0 10 15
0 15 0 0 15 0 15 10 0 10 0 0 -15 0 -15 15 0 15 0 0 -10 0 -10 -15 0 -15 0 0
-15 0 -15 15 0 15 0 0 15 0 15 15 0 15 0 0 -15 0 -15 10 0 10 0 0 15 0 15 15
0 15 0 0 -15 0 -15 15 0 15 0 0 15 0 15 -15 0 -15 0 0 10 0 10 15 0 15 0 0 15
0 15 -15 0 -15 0 0 15 0 15 15 0 15 0 0 10 0 10 -15 0 -15 0 0 15 0 15 15 0
15 0 0 15 0 15 -15 0 -15 0 0 10 0 10 15 0 15 0 0 15 0 15 -15 0 -15 0 0 15 0
15 15 0 15 0 0 10 0 10 -15 0 -15 0 0 15 0 15 15 0 15 0 0 15 0 15 -15 0 -15
0 0 10 0 10 15 0 15 0 0 15 0 15 -15 0 -15 0 0 15 0 15 15 0 15 0 0 10 0 10
-15 0 -15 0 0 15 0 15 15 0 15 0 0 15 0 15 -15 0 -15 0 0 10 0 10 15 0 15 0 0
15 0 15 -15 0 -15 0 0 15 0 15 15 0 15 0 0 10 0 10 -15 0 -15 0 0 15 0 15 15
0 15 0 0 15 0 15 -15 0 -15 0 0 10 0 10 15 0 15 0 0 15 0 15 -15 0 -15 0 0 15
0 15 -15 0 -15 0 0 -15 0 -15 -10 0 -10 0 0 15 0 15 -15 0 -15 0 0 -15 0 -15
-15 0 -15 0 0 15 0 15 -10 0 -10 0 0 -15 0 -15 -15 0 -15 0 0 15 0 15 -15 0
-15 0 0 -15 0 -15 -10 0 -10 0 0 15 0 15 -15 0 -15 0 0 -15 0 -15 -15 0 -15 0
0 15 0 15 -10 0 -10 0 0 -15 0 -15 -15 0 -15 0 0 15 0 15 -15 0 -15 0 0 -15z
m80 -30 l0 -15 15 0 15 0 0 15 0 15 15 0 15 0 0 -15 0 -15 -15 0 -15 0 0 -10
0 -10 15 0 15 0 0 -15 0 -15 10 0 10 0 0 15 0 15 15 0 15 0 0 10 0 10 -15 0
-15 0 0 15 0 15 15 0 15 0 0 -15 0 -15 15 0 15 0 0 15 0 15 10 0 10 0 0 -15 0
-15 15 0 15 0 0 15 0 15 15 0 15 0 0 -15 0 -15 -15 0 -15 0 0 -10 0 -10 15 0
15 0 0 -15 0 -15 10 0 10 0 0 15 0 15 15 0 15 0 0 -15 0 -15 -15 0 -15 0 0
-15 0 -15 15 0 15 0 0 -10 0 -10 -15 0 -15 0 0 -15 0 -15 15 0 15 0 0 -15 0
-15 -15 0 -15 0 0 15 0 15 -10 0 -10 0 0 -15 0 -15 -15 0 -15 0 0 -10 0 -10
15 0 15 0 0 -15 0 -15 10 0 10 0 0 15 0 15 15 0 15 0 0 -15 0 -15 -15 0 -15 0
0 -15 0 -15 15 0 15 0 0 -10 0 -10 -15 0 -15 0 0 -15 0 -15 15 0 15 0 0 -15 0
-15 -15 0 -15 0 0 15 0 15 -10 0 -10 0 0 -15 0 -15 -15 0 -15 0 0 -10 0 -10
15 0 15 0 0 -15 0 -15 10 0 10 0 0 15 0 15 15 0 15 0 0 -15 0 -15 -15 0 -15 0
0 -15 0 -15 15 0 15 0 0 -10 0 -10 -15 0 -15 0 0 -15 0 -15 15 0 15 0 0 -15 0
-15 -15 0 -15 0 0 15 0 15 -10 0 -10 0 0 -15 0 -15 -15 0 -15 0 0 -10 0 -10
15 0 15 0 0 -15 0 -15 10 0 10 0 0 15 0 15 15 0 15 0 0 -15 0 -15 -15 0 -15 0
0 -15 0 -15 15 0 15 0 0 -10 0 -10 -15 0 -15 0 0 -15 0 -15 15 0 15 0 0 -15 0
-15 -14 0 -14 0 -6 -12 -6 -13 -6 13 -6 12 -14 0 -14 0 0 15 0 15 -15 0 -15 0
0 15 0 15 15 0 15 0 0 10 0 10 -15 0 -15 0 0 15 0 15 -10 0 -10 0 0 -15 0 -15
-15 0 -15 0 0 -10 0 -10 15 0 15 0 0 -15 0 -15 -15 0 -15 0 0 -15 0 -15 -14 0
-14 0 -6 -12 -6 -13 -6 13 -6 12 -14 0 -14 0 0 15 0 15 -15 0 -15 0 0 15 0 15
15 0 15 0 0 10 0 10 -15 0 -15 0 0 15 0 15 -10 0 -10 0 0 -15 0 -15 -15 0 -15
0 0 15 0 15 15 0 15 0 0 15 0 15 -15 0 -15 0 0 10 0 10 15 0 15 0 0 15 0 15
-15 0 -15 0 0 15 0 15 15 0 15 0 0 -15 0 -15 10 0 10 0 0 15 0 15 15 0 15 0 0
10 0 10 -15 0 -15 0 0 15 0 15 -10 0 -10 0 0 -15 0 -15 -15 0 -15 0 0 15 0 15
15 0 15 0 0 15 0 15 -15 0 -15 0 0 10 0 10 15 0 15 0 0 15 0 15 -15 0 -15 0 0
15 0 15 15 0 15 0 0 -15 0 -15 10 0 10 0 0 15 0 15 15 0 15 0 0 10 0 10 -15 0
-15 0 0 15 0 15 -10 0 -10 0 0 -15 0 -15 -15 0 -15 0 0 15 0 15 15 0 15 0 0
15 0 15 -15 0 -15 0 0 10 0 10 15 0 15 0 0 15 0 15 -15 0 -15 0 0 15 0 15 15
0 15 0 0 -15 0 -15 10 0 10 0 0 15 0 15 15 0 15 0 0 10 0 10 -15 0 -15 0 0 15
0 15 -10 0 -10 0 0 -15 0 -15 -15 0 -15 0 0 15 0 15 15 0 15 0 0 15 0 15 -15
0 -15 0 0 10 0 10 15 0 15 0 0 15 0 15 10 0 10 0 0 -15z m270 0 l0 -15 -14 0
-14 0 -5 -12 -4 -13 -9 9 -9 9 13 4 12 5 0 14 0 14 15 0 15 0 0 -15z m-190
-25 l0 -10 -10 0 -10 0 0 10 0 10 10 0 10 0 0 -10z m-80 -80 l0 -10 -10 0 -10
0 0 10 0 10 10 0 10 0 0 -10z m240 -80 l0 -10 -10 0 -10 0 0 10 0 10 10 0 10
0 0 -10z m-240 -80 l0 -10 -10 0 -10 0 0 10 0 10 10 0 10 0 0 -10z m240 -80
l0 -10 -10 0 -10 0 0 10 0 10 10 0 10 0 0 -10z m-240 -80 l0 -10 -10 0 -10 0
0 10 0 10 10 0 10 0 0 -10z m240 -80 l0 -10 -10 0 -10 0 0 10 0 10 10 0 10 0
0 -10z m-240 -80 l0 -10 -10 0 -10 0 0 -15 0 -15 -15 0 -15 0 0 15 0 15 15 0
15 0 0 10 0 10 10 0 10 0 0 -10z m160 0 l0 -10 -10 0 -10 0 0 10 0 10 10 0 10
0 0 -10z"/>
<path d="M910 840 l0 -10 10 0 10 0 0 -15 0 -15 15 0 15 0 0 -15 0 -15 15 0
15 0 0 15 0 15 -15 0 -15 0 0 15 0 15 -15 0 -15 0 0 10 0 10 -10 0 -10 0 0
-10z"/>
<path d="M1070 840 l0 -10 -15 0 -15 0 0 -15 0 -15 -15 0 -15 0 0 -11 0 -10
-14 -15 -15 -14 -10 0 -11 0 0 -15 0 -15 -15 0 -15 0 0 -14 0 -14 -12 -6 -13
-6 13 -6 12 -6 0 -14 0 -14 15 0 15 0 0 -15 0 -15 15 0 15 0 0 15 0 15 10 0
10 0 0 -15 0 -15 15 0 15 0 0 -10 0 -10 -15 0 -15 0 0 -15 0 -15 -10 0 -10 0
0 15 0 15 -15 0 -15 0 0 -15 0 -15 -15 0 -15 0 0 -14 0 -14 -12 -6 -13 -6 13
-6 12 -6 0 -14 0 -14 15 0 15 0 0 -15 0 -15 15 0 15 0 0 15 0 15 10 0 10 0 0
-15 0 -15 15 0 15 0 0 -10 0 -10 -15 0 -15 0 0 -15 0 -15 -10 0 -10 0 0 15 0
15 -15 0 -15 0 0 -15 0 -15 -15 0 -15 0 0 -14 0 -14 -12 -6 -13 -6 13 -6 12
-6 0 -14 0 -14 15 0 15 0 0 -15 0 -15 15 0 15 0 0 15 0 15 10 0 10 0 0 -15 0
-15 15 0 15 0 0 15 0 15 15 0 15 0 0 15 0 15 -15 0 -15 0 0 10 0 10 15 0 15 0
0 15 0 15 10 0 10 0 0 -15 0 -15 15 0 15 0 0 15 0 15 15 0 15 0 0 14 0 14 13
6 12 6 -12 6 -13 6 0 14 0 14 -15 0 -15 0 0 15 0 15 -15 0 -15 0 0 -15 0 -15
-10 0 -10 0 0 15 0 15 -15 0 -15 0 0 10 0 10 15 0 15 0 0 15 0 15 10 0 10 0 0
-15 0 -15 15 0 15 0 0 15 0 15 15 0 15 0 0 14 0 14 13 6 12 6 -12 6 -13 6 0
14 0 14 -15 0 -15 0 0 15 0 15 -15 0 -15 0 0 -15 0 -15 -10 0 -10 0 0 15 0 15
-15 0 -15 0 0 10 0 10 15 0 15 0 0 15 0 15 10 0 10 0 0 -15 0 -15 15 0 15 0 0
15 0 15 15 0 15 0 0 14 0 14 13 6 12 6 -12 6 -13 6 0 14 0 14 -15 0 -15 0 0
15 0 15 -15 0 -15 0 0 10 0 10 -10 0 -10 0 0 -10z m20 -25 l0 -15 15 0 15 0 0
-15 0 -15 15 0 15 0 0 -10 0 -10 -15 0 -15 0 0 -15 0 -15 -15 0 -15 0 0 15 0
15 15 0 15 0 0 10 0 10 -15 0 -15 0 0 15 0 15 -10 0 -10 0 0 -15 0 -15 -15 0
-15 0 0 -10 0 -10 15 0 15 0 0 -15 0 -15 -15 0 -15 0 0 -15 0 -15 -15 0 -15 0
0 15 0 15 -10 0 -10 0 0 -15 0 -15 -15 0 -15 0 0 -10 0 -10 15 0 15 0 0 -15 0
-15 -15 0 -15 0 0 15 0 15 -15 0 -15 0 0 10 0 10 15 0 15 0 0 15 0 15 15 0 15
0 0 11 0 10 14 15 15 14 10 0 11 0 0 15 0 15 15 0 15 0 0 15 0 15 10 0 10 0 0
-15z m0 -55 l0 -10 -10 0 -10 0 0 10 0 10 10 0 10 0 0 -10z m-80 -80 l0 -10
15 0 15 0 0 -15 0 -15 15 0 15 0 0 -15 0 -15 -15 0 -15 0 0 15 0 15 -15 0 -15
0 0 15 0 15 -10 0 -10 0 0 10 0 10 10 0 10 0 0 -10z m110 -55 l0 -15 15 0 15
0 0 -10 0 -10 -15 0 -15 0 0 -15 0 -15 -15 0 -15 0 0 15 0 15 15 0 15 0 0 10
0 10 -11 0 -10 0 -15 -14 -14 -15 0 -10 0 -11 -15 0 -15 0 0 -15 0 -15 -15 0
-15 0 0 15 0 15 15 0 15 0 0 15 0 15 11 0 10 0 15 14 14 15 0 10 0 11 15 0 15
0 0 -15z m-130 -76 l0 -10 14 -15 15 -14 10 0 11 0 0 -15 0 -15 15 0 15 0 0
-15 0 -15 -15 0 -15 0 0 15 0 15 -15 0 -15 0 0 11 0 10 -14 15 -15 14 -10 0
-11 0 0 -10 0 -10 15 0 15 0 0 -15 0 -15 -15 0 -15 0 0 15 0 15 -15 0 -15 0 0
10 0 10 15 0 15 0 0 15 0 15 15 0 15 0 0 -11z m130 -84 l0 -15 15 0 15 0 0
-10 0 -10 -15 0 -15 0 0 -15 0 -15 -15 0 -15 0 0 15 0 15 15 0 15 0 0 10 0 10
-11 0 -10 0 -15 -14 -14 -15 0 -10 0 -11 -15 0 -15 0 0 -15 0 -15 -15 0 -15 0
0 15 0 15 15 0 15 0 0 15 0 15 11 0 10 0 15 14 14 15 0 10 0 11 15 0 15 0 0
-15z m-130 -76 l0 -10 14 -15 15 -14 10 0 11 0 0 -15 0 -15 -15 0 -15 0 0 11
0 10 -14 15 -15 14 -10 0 -11 0 0 -10 0 -10 15 0 15 0 0 -15 0 -15 -15 0 -15
0 0 15 0 15 -15 0 -15 0 0 10 0 10 15 0 15 0 0 15 0 15 15 0 15 0 0 -11z"/>
<path d="M1010 735 l0 -15 15 0 15 0 0 15 0 15 -15 0 -15 0 0 -15z"/>
<path d="M1070 680 l0 -10 10 0 10 0 0 10 0 10 -10 0 -10 0 0 -10z"/>
<path d="M990 600 l0 -10 10 0 10 0 0 10 0 10 -10 0 -10 0 0 -10z"/>
<path d="M1070 520 l0 -10 10 0 10 0 0 10 0 10 -10 0 -10 0 0 -10z"/>
<path d="M990 440 l0 -10 10 0 10 0 0 10 0 10 -10 0 -10 0 0 -10z"/>
<path d="M1070 360 l0 -10 10 0 10 0 0 -15 0 -15 15 0 15 0 0 -15 0 -15 15 0
15 0 0 -10 0 -10 -15 0 -15 0 0 -15 0 -15 15 0 15 0 0 -15 0 -15 10 0 10 0 0
15 0 15 -10 0 -10 0 0 14 0 14 13 6 12 6 -12 6 -13 6 0 14 0 14 -15 0 -15 0 0
15 0 15 -15 0 -15 0 0 10 0 10 -10 0 -10 0 0 -10z"/>
<path d="M990 280 l0 -10 -15 0 -15 0 0 -15 0 -15 15 0 15 0 0 -15 0 -15 10 0
10 0 0 15 0 15 15 0 15 0 0 15 0 15 -15 0 -15 0 0 10 0 10 -10 0 -10 0 0 -10z
m20 -25 l0 -15 -10 0 -10 0 0 15 0 15 10 0 10 0 0 -15z"/>
<path d="M190 200 l0 -10 10 0 10 0 0 10 0 10 -10 0 -10 0 0 -10z"/>
<path d="M350 200 l0 -10 10 0 10 0 0 10 0 10 -10 0 -10 0 0 -10z"/>
<path d="M910 200 l0 -10 10 0 10 0 0 10 0 10 -10 0 -10 0 0 -10z"/>
<path d="M1070 200 l0 -10 10 0 10 0 0 10 0 10 -10 0 -10 0 0 -10z"/>
</g>
</svg>
