<?xml version="1.0" standalone="no"?>
<!DOCTYPE svg PUBLIC "-//W3C//DTD SVG 20010904//EN"
 "http://www.w3.org/TR/2001/REC-SVG-20010904/DTD/svg10.dtd">
<svg version="1.0" xmlns="http://www.w3.org/2000/svg"
 width="468pt" height="468pt" viewBox="0 0 468 468"
 preserveAspectRatio="xMidYMid meet">
<metadata>
Created by potrace 1.8, written by Peter Selinger 2001-2007
</metadata>
<g transform="translate(0,468) scale(0.365625,-0.365625)"
fill="#000000" stroke="none">
<path d="M510 1185 l0 -95 35 0 35 0 0 -35 0 -35 -35 0 -35 0 0 -15 0 -15 -30
0 -30 0 0 -15 0 -15 -35 0 -35 0 0 -15 0 -15 -15 0 -15 0 0 -15 0 -15 -15 0
-15 0 0 -35 0 -35 -15 0 -15 0 0 -30 0 -30 15 0 15 0 0 -15 0 -15 -15 0 -15 0
0 15 0 15 -15 0 -15 0 0 -65 0 -65 -20 0 -20 0 0 -50 0 -50 -15 0 -15 0 0 -95
0 -95 -15 0 -15 0 0 -80 0 -80 15 0 15 0 0 -30 0 -30 15 0 15 0 0 -50 0 -50
20 0 20 0 0 -15 0 -15 15 0 15 0 0 15 0 15 15 0 15 0 0 50 0 50 -15 0 -15 0 0
-15 0 -15 -15 0 -15 0 0 15 0 15 -20 0 -20 0 0 15 0 15 20 0 20 0 0 -15 0 -15
15 0 15 0 0 45 0 45 -15 0 -15 0 0 -15 0 -15 -20 0 -20 0 0 15 0 15 -15 0 -15
0 0 20 0 20 15 0 15 0 0 -20 0 -20 20 0 20 0 0 115 0 115 15 0 15 0 0 15 0 15
15 0 15 0 0 -15 0 -15 -15 0 -15 0 0 -115 0 -115 15 0 15 0 0 -30 0 -30 15 0
15 0 0 -30 0 -30 15 0 15 0 0 -20 0 -20 20 0 20 0 0 -15 0 -15 45 0 45 0 0
-15 0 -15 115 0 115 0 0 15 0 15 45 0 45 0 0 15 0 15 15 0 15 0 0 20 0 20 20
0 20 0 0 30 0 30 15 0 15 0 0 30 0 30 15 0 15 0 0 115 0 115 -15 0 -15 0 0 15
0 15 15 0 15 0 0 -15 0 -15 15 0 15 0 0 -115 0 -115 15 0 15 0 0 20 0 20 20 0
20 0 0 -20 0 -20 -20 0 -20 0 0 -15 0 -15 -15 0 -15 0 0 15 0 15 -15 0 -15 0
0 -45 0 -45 15 0 15 0 0 15 0 15 15 0 15 0 0 -15 0 -15 20 0 20 0 0 30 0 30
15 0 15 0 0 80 0 80 -15 0 -15 0 0 95 0 95 -20 0 -20 0 0 50 0 50 -15 0 -15 0
0 65 0 65 -15 0 -15 0 0 -15 0 -15 -15 0 -15 0 0 15 0 15 15 0 15 0 0 30 0 30
-15 0 -15 0 0 35 0 35 -15 0 -15 0 0 15 0 15 -20 0 -20 0 0 15 0 15 -30 0 -30
0 0 15 0 15 -30 0 -30 0 0 15 0 15 -35 0 -35 0 0 35 0 35 35 0 35 0 0 95 0 95
-35 0 -35 0 0 -15 0 -15 -15 0 -15 0 0 15 0 15 -15 0 -15 0 0 -15 0 -15 -15 0
-15 0 0 15 0 15 -35 0 -35 0 0 -95z m70 50 l0 -15 15 0 15 0 0 15 0 15 15 0
15 0 0 -15 0 -15 15 0 15 0 0 15 0 15 15 0 15 0 0 -15 0 -15 -15 0 -15 0 0
-20 0 -20 15 0 15 0 0 -15 0 -15 -15 0 -15 0 0 -15 0 -15 -15 0 -15 0 0 15 0
15 -15 0 -15 0 0 -15 0 -15 -15 0 -15 0 0 15 0 15 -20 0 -20 0 0 15 0 15 20 0
20 0 0 20 0 20 -20 0 -20 0 0 15 0 15 20 0 20 0 0 -15z m0 -260 l0 -15 15 0
15 0 0 15 0 15 15 0 15 0 0 -15 0 -15 15 0 15 0 0 15 0 15 15 0 15 0 0 -15 0
-15 20 0 20 0 0 -15 0 -15 15 0 15 0 0 15 0 15 15 0 15 0 0 -15 0 -15 15 0 15
0 0 -15 0 -15 15 0 15 0 0 -20 0 -20 20 0 20 0 0 -15 0 -15 15 0 15 0 0 -15 0
-15 -15 0 -15 0 0 -15 0 -15 -20 0 -20 0 0 -15 0 -15 -15 0 -15 0 0 -20 0 -20
-15 0 -15 0 0 20 0 20 -15 0 -15 0 0 15 0 15 -15 0 -15 0 0 -15 0 -15 -20 0
-20 0 0 15 0 15 -15 0 -15 0 0 -15 0 -15 -15 0 -15 0 0 15 0 15 -15 0 -15 0 0
-15 0 -15 -15 0 -15 0 0 15 0 15 -20 0 -20 0 0 -15 0 -15 -15 0 -15 0 0 15 0
15 -15 0 -15 0 0 -15 0 -15 -15 0 -15 0 0 -20 0 -20 -15 0 -15 0 0 20 0 20
-20 0 -20 0 0 -20 0 -20 -15 0 -15 0 0 -15 0 -15 -15 0 -15 0 0 15 0 15 15 0
15 0 0 20 0 20 15 0 15 0 0 15 0 15 -15 0 -15 0 0 15 0 15 -15 0 -15 0 0 15 0
15 15 0 15 0 0 15 0 15 15 0 15 0 0 20 0 20 20 0 20 0 0 15 0 15 15 0 15 0 0
15 0 15 15 0 15 0 0 -15 0 -15 15 0 15 0 0 15 0 15 15 0 15 0 0 15 0 15 20 0
20 0 0 -15z m320 -255 l0 -20 15 0 15 0 0 -15 0 -15 -15 0 -15 0 0 15 0 15
-20 0 -20 0 0 20 0 20 20 0 20 0 0 -20z m-390 -35 l0 -15 -15 0 -15 0 0 -15 0
-15 -15 0 -15 0 0 15 0 15 15 0 15 0 0 15 0 15 15 0 15 0 0 -15z m70 0 l0 -15
-20 0 -20 0 0 15 0 15 20 0 20 0 0 -15z m60 0 l0 -15 -15 0 -15 0 0 15 0 15
15 0 15 0 0 -15z m60 0 l0 -15 -15 0 -15 0 0 15 0 15 15 0 15 0 0 -15z m70 0
l0 -15 15 0 15 0 0 -15 0 -15 -15 0 -15 0 0 15 0 15 -15 0 -15 0 0 15 0 15 15
0 15 0 0 -15z m-350 -30 l0 -15 -20 0 -20 0 0 -15 0 -15 20 0 20 0 0 -15 0
-15 -20 0 -20 0 0 -20 0 -20 -15 0 -15 0 0 -15 0 -15 -15 0 -15 0 0 15 0 15
-15 0 -15 0 0 20 0 20 15 0 15 0 0 -20 0 -20 15 0 15 0 0 20 0 20 15 0 15 0 0
15 0 15 -15 0 -15 0 0 15 0 15 15 0 15 0 0 15 0 15 20 0 20 0 0 -15z m440 0
l0 -15 20 0 20 0 0 -15 0 -15 -20 0 -20 0 0 -15 0 -15 20 0 20 0 0 -20 0 -20
15 0 15 0 0 20 0 20 15 0 15 0 0 -20 0 -20 -15 0 -15 0 0 -15 0 -15 -15 0 -15
0 0 15 0 15 -20 0 -20 0 0 20 0 20 -15 0 -15 0 0 15 0 15 15 0 15 0 0 15 0 15
-15 0 -15 0 0 15 0 15 15 0 15 0 0 -15z m-540 -30 l0 -15 -15 0 -15 0 0 15 0
15 15 0 15 0 0 -15z m640 0 l0 -15 -15 0 -15 0 0 15 0 15 15 0 15 0 0 -15z
m-420 -100 l0 -15 20 0 20 0 0 -110 0 -110 -20 0 -20 0 0 -15 0 -15 -45 0 -45
0 0 15 0 15 -15 0 -15 0 0 110 0 110 15 0 15 0 0 15 0 15 45 0 45 0 0 -15z
m260 0 l0 -15 15 0 15 0 0 -110 0 -110 -15 0 -15 0 0 -15 0 -15 -50 0 -50 0 0
15 0 15 -15 0 -15 0 0 110 0 110 15 0 15 0 0 15 0 15 50 0 50 0 0 -15z m-580
-220 l0 -15 -15 0 -15 0 0 15 0 15 15 0 15 0 0 -15z m840 0 l0 -15 -20 0 -20
0 0 15 0 15 20 0 20 0 0 -15z m-770 -260 l0 -15 -15 0 -15 0 0 15 0 15 15 0
15 0 0 -15z"/>
<path d="M610 1200 l0 -20 -15 0 -15 0 0 -15 0 -15 15 0 15 0 0 15 0 15 15 0
15 0 0 -15 0 -15 15 0 15 0 0 15 0 15 -15 0 -15 0 0 20 0 20 -15 0 -15 0 0
-20z"/>
<path d="M540 945 l0 -15 -15 0 -15 0 0 -15 0 -15 -15 0 -15 0 0 15 0 15 -15
0 -15 0 0 -15 0 -15 -15 0 -15 0 0 -20 0 -20 -20 0 -20 0 0 -15 0 -15 -15 0
-15 0 0 -15 0 -15 15 0 15 0 0 -15 0 -15 20 0 20 0 0 -15 0 -15 15 0 15 0 0
15 0 15 15 0 15 0 0 15 0 15 15 0 15 0 0 -15 0 -15 15 0 15 0 0 15 0 15 20 0
20 0 0 -15 0 -15 15 0 15 0 0 15 0 15 15 0 15 0 0 -15 0 -15 15 0 15 0 0 15 0
15 15 0 15 0 0 -15 0 -15 20 0 20 0 0 15 0 15 15 0 15 0 0 -15 0 -15 15 0 15
0 0 -15 0 -15 15 0 15 0 0 15 0 15 15 0 15 0 0 15 0 15 20 0 20 0 0 15 0 15
-20 0 -20 0 0 15 0 15 -15 0 -15 0 0 20 0 20 -15 0 -15 0 0 15 0 15 -15 0 -15
0 0 -15 0 -15 -15 0 -15 0 0 15 0 15 -20 0 -20 0 0 15 0 15 -15 0 -15 0 0 -15
0 -15 -15 0 -15 0 0 15 0 15 -15 0 -15 0 0 -15 0 -15 -15 0 -15 0 0 15 0 15
-20 0 -20 0 0 -15z m40 -30 l0 -15 15 0 15 0 0 15 0 15 15 0 15 0 0 -15 0 -15
15 0 15 0 0 15 0 15 15 0 15 0 0 -15 0 -15 20 0 20 0 0 -20 0 -20 -20 0 -20 0
0 20 0 20 -15 0 -15 0 0 -20 0 -20 -15 0 -15 0 0 20 0 20 -15 0 -15 0 0 -20 0
-20 -15 0 -15 0 0 20 0 20 -20 0 -20 0 0 -20 0 -20 -15 0 -15 0 0 -15 0 -15
15 0 15 0 0 -15 0 -15 -15 0 -15 0 0 15 0 15 -15 0 -15 0 0 15 0 15 -15 0 -15
0 0 -15 0 -15 -15 0 -15 0 0 -15 0 -15 15 0 15 0 0 -15 0 -15 -15 0 -15 0 0
15 0 15 -20 0 -20 0 0 15 0 15 20 0 20 0 0 15 0 15 15 0 15 0 0 20 0 20 15 0
15 0 0 -20 0 -20 15 0 15 0 0 20 0 20 15 0 15 0 0 15 0 15 20 0 20 0 0 -15z
m220 -35 l0 -20 15 0 15 0 0 -15 0 -15 15 0 15 0 0 -15 0 -15 -15 0 -15 0 0
-15 0 -15 -15 0 -15 0 0 15 0 15 15 0 15 0 0 15 0 15 -15 0 -15 0 0 15 0 15
-15 0 -15 0 0 -15 0 -15 -15 0 -15 0 0 -15 0 -15 -20 0 -20 0 0 15 0 15 20 0
20 0 0 15 0 15 15 0 15 0 0 20 0 20 15 0 15 0 0 -20z m-190 -65 l0 -15 -15 0
-15 0 0 15 0 15 15 0 15 0 0 -15z m60 0 l0 -15 -15 0 -15 0 0 15 0 15 15 0 15
0 0 -15z"/>
<path d="M450 350 l0 -30 15 0 15 0 0 -15 0 -15 15 0 15 0 0 15 0 15 15 0 15
0 0 30 0 30 -45 0 -45 0 0 -30z"/>
<path d="M700 350 l0 -30 20 0 20 0 0 -15 0 -15 15 0 15 0 0 15 0 15 15 0 15
0 0 30 0 30 -50 0 -50 0 0 -30z"/>
<path d="M930 80 l0 -50 15 0 15 0 0 -15 0 -15 15 0 15 0 0 15 0 15 15 0 15 0
0 50 0 50 -15 0 -15 0 0 -15 0 -15 -15 0 -15 0 0 15 0 15 -15 0 -15 0 0 -50z
m60 -35 l0 -15 -15 0 -15 0 0 15 0 15 15 0 15 0 0 -15z"/>
</g>
</svg>
