<?xml version="1.0" standalone="no"?>
<!DOCTYPE svg PUBLIC "-//W3C//DTD SVG 20010904//EN"
 "http://www.w3.org/TR/2001/REC-SVG-20010904/DTD/svg10.dtd">
<svg version="1.0" xmlns="http://www.w3.org/2000/svg"
 width="468pt" height="468pt" viewBox="0 0 468 468"
 preserveAspectRatio="xMidYMid meet">
<metadata>
Created by potrace 1.8, written by Peter Selinger 2001-2007
</metadata>
<g transform="translate(0,468) scale(0.365625,-0.365625)"
fill="#000000" stroke="none">
<path d="M103 1195 l-23 -24 0 -16 0 -15 -10 0 -10 0 0 -390 0 -390 10 0 10 0
0 -20 0 -20 16 0 16 0 40 -42 40 -41 9 14 9 14 10 -15 10 -15 10 15 10 15 10
-15 10 -15 10 15 10 15 10 -15 10 -15 10 15 10 15 10 -15 10 -15 10 15 10 15
10 -15 10 -15 10 15 10 15 10 -15 10 -15 10 15 10 15 10 -15 10 -15 10 15 10
15 10 -15 10 -15 10 15 10 15 10 -15 10 -15 10 15 10 15 10 -15 10 -15 10 15
10 15 10 -15 10 -15 10 15 10 15 10 -15 10 -15 10 15 10 15 10 -15 10 -15 10
15 10 15 10 -15 10 -15 10 15 10 15 10 -15 10 -15 10 15 10 15 10 -15 10 -15
10 15 10 15 10 -15 10 -15 10 15 10 15 9 -14 9 -14 37 38 38 37 -14 9 -14 9
15 10 15 10 -15 10 -15 10 15 10 15 10 -15 10 -15 10 15 10 15 10 -15 10 -15
10 15 10 15 10 -15 10 -15 10 15 10 15 10 -15 10 -15 10 15 10 15 10 -15 10
-15 10 15 10 15 10 -15 10 -15 10 15 10 15 10 -15 10 -15 10 15 10 15 10 -15
10 -15 10 15 10 15 10 -15 10 -15 10 15 10 15 10 -15 10 -15 10 15 10 15 10
-15 10 -15 10 15 10 15 10 -15 10 -15 10 15 10 15 10 -15 10 -15 10 15 10 15
10 -15 10 -15 10 15 10 15 10 -15 10 -15 10 15 10 15 10 -15 10 -15 10 15 10
15 10 -15 10 -15 10 14 9 14 9 -46 46 -46 46 -6 0 -5 0 0 -395 0 -396 -25 -24
-24 -25 -351 0 -351 0 -24 25 -25 24 0 386 0 385 10 0 10 0 0 16 0 15 14 15
15 14 345 0 346 0 0 -16 0 -15 15 -16 16 -15 21 23 21 24 4 -12 5 -13 19 0 19
0 0 10 0 10 20 0 20 0 0 -10 0 -10 19 0 19 0 4 12 5 13 16 -17 17 -17 0 -15 0
-16 26 0 25 0 17 -17 17 -16 -13 -5 -12 -4 0 -19 0 -19 20 0 20 0 0 -20 0 -20
-10 0 -10 0 0 -20 0 -20 10 0 10 0 0 -20 0 -20 -10 0 -10 0 0 -40 0 -40 -6 0
-7 0 -18 21 -18 21 -16 -15 -15 -16 0 -245 0 -246 10 0 10 0 0 -20 0 -20 10 0
10 0 0 20 0 20 10 0 10 0 0 216 0 216 30 28 30 28 0 15 0 15 -12 5 -13 4 23
20 22 20 0 17 0 16 -10 0 -10 0 0 20 0 20 10 0 10 0 0 18 0 18 -20 14 -20 14
0 38 0 38 -20 0 -20 0 0 10 0 10 -20 0 -20 0 0 30 0 30 -30 0 -30 0 0 -10 0
-10 -20 0 -20 0 0 10 0 10 -20 0 -20 0 0 -10 0 -10 -20 0 -20 0 0 10 0 10
-387 -1 -388 0 -22 -24z m757 -5 l0 -10 -10 0 -10 0 0 10 0 10 10 0 10 0 0
-10z m77 -96 l26 -26 -14 -9 -14 -9 15 -10 15 -10 -15 -10 -15 -10 15 -10 15
-10 -15 -10 -15 -10 15 -10 15 -10 -15 -10 -15 -10 15 -10 15 -10 -15 -10 -15
-10 15 -10 15 -10 -15 -10 -15 -10 15 -10 15 -10 -15 -10 -15 -10 15 -10 15
-10 -15 -10 -15 -10 15 -10 15 -10 -15 -10 -15 -10 15 -10 15 -10 -15 -10 -15
-10 15 -10 15 -10 -15 -10 -15 -10 15 -10 15 -10 -15 -10 -15 -10 15 -10 15
-10 -15 -10 -15 -10 15 -10 15 -10 -15 -10 -15 -10 15 -10 15 -10 -15 -10 -15
-10 15 -10 15 -10 -15 -10 -15 -10 15 -10 15 -10 -15 -10 -15 -10 15 -10 15
-10 -15 -10 -15 -10 15 -10 15 -10 -15 -10 -15 -10 14 -9 14 -9 -28 -27 -27
-28 -9 14 -9 14 -10 -15 -10 -15 -10 15 -10 15 -10 -15 -10 -15 -10 15 -10 15
-10 -15 -10 -15 -10 15 -10 15 -10 -15 -10 -15 -10 15 -10 15 -10 -15 -10 -15
-10 15 -10 15 -10 -15 -10 -15 -10 15 -10 15 -10 -15 -10 -15 -10 15 -10 15
-10 -15 -10 -15 -10 15 -10 15 -10 -15 -10 -15 -10 15 -10 15 -10 -15 -10 -15
-10 15 -10 15 -10 -15 -10 -15 -10 15 -10 15 -10 -15 -10 -15 -10 15 -10 15
-10 -15 -10 -15 -10 15 -10 15 -10 -15 -10 -15 -10 15 -10 15 -10 -15 -10 -15
-10 15 -10 15 -10 -15 -10 -15 -10 15 -10 15 -10 -15 -10 -15 -10 15 -10 15
-9 -14 -9 -14 -17 17 -17 17 6 7 7 6 10 -14 9 -15 10 15 10 15 10 -15 10 -15
10 15 10 15 10 -15 10 -15 10 15 10 15 10 -15 10 -15 10 15 10 15 10 -15 10
-15 10 15 10 15 10 -15 10 -15 10 15 10 15 10 -15 10 -15 10 15 10 15 10 -15
10 -15 10 15 10 15 10 -15 10 -15 10 15 10 15 10 -15 10 -15 10 15 10 15 10
-15 10 -15 10 15 10 15 10 -15 10 -15 10 15 10 15 10 -15 10 -15 10 15 10 15
10 -15 10 -15 10 15 10 15 10 -15 10 -15 10 15 10 15 10 -15 10 -15 10 15 10
15 9 -14 9 -14 47 48 48 47 -14 9 -14 9 15 10 15 10 -15 10 -15 10 15 10 15
10 -15 10 -15 10 15 10 15 10 -15 10 -15 10 15 10 15 10 -15 10 -15 10 15 10
15 10 -15 10 -15 10 15 10 15 10 -15 10 -15 10 15 10 15 10 -15 10 -15 10 15
10 15 10 -15 10 -15 10 15 10 15 10 -15 10 -15 10 15 10 15 10 -15 10 -15 10
15 10 15 10 -15 10 -15 10 15 10 15 10 -15 10 -15 10 15 10 15 10 -15 10 -15
10 15 10 15 10 -15 10 -15 10 15 10 15 10 -15 10 -15 10 15 10 15 10 -15 10
-15 10 15 10 15 10 -15 10 -15 10 15 11 15 11 -12 5 -13 5 0 9 0 9 5 0 6 0 26
-26z m163 -254 l0 -20 -10 0 -10 0 0 20 0 20 10 0 10 0 0 -20z m0 -190 l0
-130 -10 0 -10 0 0 130 0 130 10 0 10 0 0 -130z m0 -160 l0 -10 -10 0 -10 0 0
10 0 10 10 0 10 0 0 -10z m0 -40 l0 -10 -10 0 -10 0 0 10 0 10 10 0 10 0 0
-10z m0 -60 l0 -30 -10 0 -10 0 0 30 0 30 10 0 10 0 0 -30z"/>
<path d="M920 1070 l0 -10 10 0 10 0 0 10 0 10 -10 0 -10 0 0 -10z"/>
<path d="M920 1030 l0 -10 10 0 10 0 0 10 0 10 -10 0 -10 0 0 -10z"/>
<path d="M920 990 l0 -10 10 0 10 0 0 10 0 10 -10 0 -10 0 0 -10z"/>
<path d="M920 950 l0 -10 10 0 10 0 0 10 0 10 -10 0 -10 0 0 -10z"/>
<path d="M920 910 l0 -10 10 0 10 0 0 10 0 10 -10 0 -10 0 0 -10z"/>
<path d="M920 870 l0 -10 10 0 10 0 0 10 0 10 -10 0 -10 0 0 -10z"/>
<path d="M920 830 l0 -10 10 0 10 0 0 10 0 10 -10 0 -10 0 0 -10z"/>
<path d="M920 790 l0 -10 10 0 10 0 0 10 0 10 -10 0 -10 0 0 -10z"/>
<path d="M920 750 l0 -10 10 0 10 0 0 10 0 10 -10 0 -10 0 0 -10z"/>
<path d="M920 710 l0 -10 10 0 10 0 0 10 0 10 -10 0 -10 0 0 -10z"/>
<path d="M920 670 l0 -10 10 0 10 0 0 10 0 10 -10 0 -10 0 0 -10z"/>
<path d="M920 630 l0 -10 10 0 10 0 0 10 0 10 -10 0 -10 0 0 -10z"/>
<path d="M920 590 l0 -10 10 0 10 0 0 10 0 10 -10 0 -10 0 0 -10z"/>
<path d="M920 550 l0 -10 10 0 10 0 0 10 0 10 -10 0 -10 0 0 -10z"/>
<path d="M920 510 l0 -10 10 0 10 0 0 10 0 10 -10 0 -10 0 0 -10z"/>
<path d="M920 470 l0 -10 10 0 10 0 0 10 0 10 -10 0 -10 0 0 -10z"/>
<path d="M920 430 l0 -10 10 0 10 0 0 10 0 10 -10 0 -10 0 0 -10z"/>
<path d="M920 390 l0 -10 10 0 10 0 0 10 0 10 -10 0 -10 0 0 -10z"/>
<path d="M892 324 l-34 -35 7 -7 6 -6 10 14 9 15 9 -14 9 -14 18 17 17 18 -14
10 -14 10 13 5 12 5 0 9 0 9 -7 -1 -8 0 -33 -35z m28 -14 l0 -10 -10 0 -10 0
0 10 0 10 10 0 10 0 0 -10z"/>
<path d="M440 1150 l-25 -29 -67 -1 -68 0 0 -10 0 -10 -16 0 -16 0 -28 -30
-28 -30 -36 0 -36 0 0 -90 0 -90 10 0 10 0 0 -150 0 -150 10 0 10 0 0 -90 0
-90 60 0 60 0 0 10 0 10 100 0 100 0 0 10 0 10 100 0 100 0 0 10 0 10 50 0 50
0 0 80 0 80 -10 0 -10 0 0 160 0 160 -10 0 -10 0 0 40 0 40 10 0 10 0 0 36 0
35 -14 15 -15 14 -15 0 -16 0 0 10 0 10 -76 0 -76 0 -28 30 -28 30 -14 0 -13
-1 -25 -29z m-248 -152 l19 -22 10 14 9 15 10 -15 10 -15 10 15 10 15 10 -15
10 -15 10 15 10 15 10 -15 10 -15 10 15 10 15 10 -15 10 -15 10 15 10 15 10
-15 10 -15 10 15 10 15 10 -15 10 -15 10 15 10 15 10 -15 10 -15 10 15 10 15
10 -15 10 -15 10 15 10 15 10 -15 10 -15 10 15 10 15 10 -15 10 -15 10 15 10
15 10 -15 10 -15 10 15 10 15 10 -15 10 -15 9 15 10 14 8 -7 7 -8 -14 -10 -15
-9 15 -10 15 -10 -15 -9 -14 -10 24 -21 24 -21 -14 -10 -15 -9 15 -10 15 -10
-15 -10 -15 -10 15 -10 15 -10 -15 -10 -15 -10 15 -10 15 -10 -15 -10 -15 -10
15 -10 15 -10 -15 -10 -15 -10 15 -10 15 -10 -15 -10 -15 -10 15 -10 15 -10
-15 -9 -14 -10 24 -21 24 -21 -14 -10 -15 -9 15 -10 15 -10 -15 -10 -15 -10
15 -10 15 -10 -15 -10 -15 -10 15 -9 14 -10 -7 -8 -8 -7 -10 14 -9 15 -10 -15
-10 -15 -9 15 -10 14 -21 -24 -21 -24 -10 14 -9 15 -10 -15 -10 -15 -10 15
-10 15 -10 -15 -10 -15 -10 15 -10 15 -10 -15 -10 -15 -9 15 -10 14 -21 -24
-21 -24 -10 14 -9 15 -10 -15 -10 -15 -10 15 -10 15 -10 -15 -10 -15 -10 15
-10 15 -9 -15 -10 -14 -8 7 -7 8 13 9 14 8 -17 18 -18 17 -9 -14 -9 -14 -9 14
-9 14 -18 -17 -17 -18 13 -8 13 -8 -17 -18 -18 -17 -9 14 -9 14 -9 -14 -9 -14
-18 17 -17 18 14 9 14 9 -15 10 -15 10 15 10 15 10 -15 10 -15 10 15 9 14 10
-24 21 -24 21 14 10 15 9 -15 10 -15 10 15 10 15 10 -15 10 -15 10 15 10 15
10 -15 10 -15 10 15 10 15 10 -15 10 -15 10 15 10 15 10 -15 10 -15 10 15 10
15 10 -15 10 -15 10 15 9 14 10 -24 21 -24 21 14 10 15 9 -15 10 -15 10 15 10
15 10 -15 10 -15 10 15 10 15 10 -14 9 -14 9 14 16 14 15 4 1 4 0 19 -22z
m128 -568 l0 -10 -10 0 -10 0 0 10 0 10 10 0 10 0 0 -10z"/>
<path d="M160 991 l0 -9 13 -5 12 -5 -15 -11 -15 -11 15 -10 15 -10 -15 -10
-15 -10 15 -10 15 -10 -15 -9 -14 -10 24 -21 24 -21 -14 -10 -15 -9 15 -10 15
-10 -15 -10 -15 -10 15 -10 15 -10 -15 -10 -15 -10 15 -10 15 -10 -15 -10 -15
-10 15 -10 15 -10 -15 -10 -15 -10 15 -10 15 -10 -15 -10 -15 -10 15 -10 15
-10 -15 -9 -14 -10 24 -21 24 -21 -14 -10 -15 -9 15 -10 15 -10 -15 -10 -15
-10 15 -10 15 -10 -15 -9 -14 -10 7 -8 8 -7 10 14 9 15 9 -15 10 -14 8 7 7 8
-13 9 -14 8 28 27 27 28 9 -14 9 -14 9 14 9 15 32 -34 32 -34 9 15 9 14 10
-15 10 -15 10 15 10 15 9 -15 10 -14 21 24 21 24 10 -14 9 -15 10 15 10 15 10
-15 10 -15 10 15 10 15 10 -15 10 -15 10 15 10 15 9 -15 10 -14 21 24 21 24 9
-13 8 -14 18 17 17 18 -14 9 -14 9 15 10 15 10 -15 10 -15 10 15 9 14 10 -24
21 -24 21 14 10 15 9 -15 10 -15 10 15 10 15 10 -15 10 -15 10 15 10 15 10
-15 10 -15 10 15 10 15 10 -15 10 -15 10 15 10 15 10 -15 10 -15 10 15 10 15
10 -15 10 -15 10 15 9 14 10 -24 21 -24 21 13 9 14 8 -17 18 -18 17 -9 -14 -9
-14 -10 15 -10 15 -10 -15 -10 -15 -10 15 -10 15 -10 -15 -10 -15 -10 15 -10
15 -10 -15 -10 -15 -10 15 -10 15 -10 -15 -10 -15 -10 15 -10 15 -10 -15 -10
-15 -10 15 -10 15 -10 -15 -10 -15 -10 15 -10 15 -10 -15 -10 -15 -10 15 -10
15 -10 -15 -10 -15 -10 15 -10 15 -10 -15 -10 -15 -10 15 -10 15 -10 -15 -10
-15 -10 15 -10 15 -9 -15 -10 -14 -19 22 -19 22 -7 0 -6 0 0 -9z m43 -43 l5
-13 11 15 11 15 10 -15 10 -15 10 15 10 15 10 -15 10 -15 10 15 10 15 10 -15
10 -15 10 15 10 15 10 -15 10 -15 10 15 10 15 10 -15 10 -15 10 15 10 15 10
-15 10 -15 10 15 10 15 10 -15 10 -15 10 15 10 15 10 -15 10 -15 10 15 10 15
10 -15 10 -15 10 15 10 15 10 -15 10 -15 10 15 10 15 10 -15 10 -15 9 15 10
14 8 -7 7 -8 -14 -9 -14 -9 24 -21 24 -21 -14 -10 -15 -9 15 -10 15 -10 -15
-10 -15 -10 15 -10 15 -10 -15 -10 -15 -10 15 -10 15 -10 -15 -10 -15 -10 15
-10 15 -10 -15 -10 -15 -10 15 -10 15 -10 -15 -10 -15 -10 15 -10 15 -10 -15
-9 -14 -10 24 -21 24 -21 -14 -10 -15 -9 15 -10 15 -10 -15 -10 -15 -10 15 -9
14 -10 -7 -8 -8 -7 -9 14 -9 14 -21 -24 -21 -24 -10 14 -9 15 -10 -15 -10 -15
-10 15 -10 15 -10 -15 -10 -15 -10 15 -10 15 -10 -15 -10 -15 -9 15 -10 14
-21 -24 -21 -24 -10 14 -9 15 -9 -15 -10 -14 -21 24 -21 24 -9 -14 -9 -14 -21
24 -21 24 -10 -14 -9 -15 -9 14 -9 15 -32 -34 -31 -33 -7 7 -6 7 14 10 15 9
-15 10 -15 10 15 9 14 10 -24 21 -24 21 14 10 15 9 -15 10 -15 10 15 10 15 10
-15 10 -15 10 15 10 15 10 -15 10 -15 10 15 10 15 10 -15 10 -15 10 15 10 15
10 -15 10 -15 10 15 10 15 10 -15 10 -15 10 15 9 14 10 -24 21 -24 21 14 10
15 9 -15 10 -15 10 15 11 15 11 -12 5 -13 5 0 9 0 9 9 0 9 0 5 -12z"/>
<path d="M211 924 l-14 -16 14 -9 14 -9 -15 -9 -14 -10 24 -21 24 -21 -14 -10
-15 -9 15 -10 15 -10 -15 -10 -15 -10 15 -10 15 -10 -15 -10 -15 -10 15 -10
15 -10 -15 -10 -15 -10 15 -10 15 -10 -15 -10 -15 -10 15 -10 15 -10 -15 -10
-15 -10 15 -10 15 -10 -15 -9 -14 -10 24 -21 24 -21 -14 -9 -14 -9 7 -7 7 -7
20 24 21 23 10 -14 9 -15 9 15 10 14 20 -23 21 -24 21 24 20 23 9 -14 9 -14
21 24 21 24 9 -13 8 -14 17 16 16 17 -16 17 -17 16 -9 -14 -9 -14 -9 15 -10
14 -21 -24 -21 -24 -9 13 -8 14 -18 -17 -17 -18 14 -8 13 -9 -6 -7 -7 -6 -17
17 -17 17 13 8 13 8 -17 18 -18 17 -9 -14 -9 -14 -10 15 -10 15 -9 -14 -9 -14
-17 17 -17 17 6 7 7 6 10 -14 9 -15 10 15 10 15 9 -15 10 -14 21 24 21 24 10
-14 9 -15 10 15 10 15 9 -14 9 -14 17 16 16 17 -16 17 -17 16 -9 -14 -9 -14
-10 15 -10 15 -10 -15 -10 -15 -9 15 -10 14 -21 -24 -21 -24 -10 14 -9 15 -9
-15 -10 -14 -7 6 -6 7 17 17 17 17 8 -14 9 -13 8 7 7 8 -14 9 -14 9 7 8 8 7
10 -14 9 -15 10 15 10 15 10 -15 10 -15 10 15 10 15 10 -15 10 -15 10 15 10
15 9 -15 10 -14 8 7 7 8 -14 9 -14 9 7 8 8 7 10 -14 9 -15 10 15 10 15 10 -15
10 -15 10 15 10 15 9 -15 10 -14 8 7 7 8 -14 9 -14 9 7 8 8 7 10 -14 9 -15 10
15 10 15 10 -15 10 -15 9 15 10 14 8 -7 7 -8 -14 -10 -15 -9 15 -10 15 -10
-14 -9 -14 -9 17 -18 18 -17 8 14 9 13 7 -6 6 -7 -17 -17 -17 -17 -8 14 -9 13
-21 -24 -21 -24 -9 13 -8 14 -17 -16 -16 -17 16 -17 17 -16 9 14 9 14 9 -15
10 -14 21 24 21 24 10 -14 9 -15 9 15 10 14 7 -6 6 -7 -17 -17 -17 -17 -8 14
-9 13 -8 -7 -7 -8 14 -9 14 -9 -7 -8 -8 -7 -10 14 -9 15 -10 -15 -10 -15 -10
15 -10 15 -10 -15 -10 -15 -9 15 -10 14 -8 -7 -7 -8 14 -9 14 -9 -7 -8 -8 -7
-10 14 -9 15 -10 -15 -10 -15 -9 15 -10 14 -8 -7 -7 -8 14 -9 14 -9 -7 -8 -8
-7 -10 14 -9 15 -10 -15 -10 -15 -9 15 -10 14 -7 -6 -6 -7 17 -17 17 -17 9 14
9 14 9 -15 10 -14 21 24 21 24 10 -14 9 -15 10 15 10 15 10 -15 10 -15 10 15
10 15 10 -15 10 -15 10 15 10 15 9 -14 9 -14 27 28 28 27 -14 9 -14 9 15 9 14
10 -24 21 -24 21 14 10 15 9 -15 10 -15 10 15 10 15 10 -15 10 -15 10 15 10
15 10 -15 10 -15 10 15 10 15 10 -15 10 -15 10 15 10 15 10 -15 10 -15 10 15
10 15 10 -15 10 -15 10 14 9 14 9 -28 27 -27 28 -9 -14 -9 -14 -10 15 -10 15
-10 -15 -10 -15 -9 15 -10 14 -21 -23 -20 -24 -7 7 -7 7 14 9 14 9 -7 8 -8 7
-10 -14 -9 -15 -10 15 -10 15 -10 -15 -10 -15 -10 15 -10 15 -10 -15 -10 -15
-10 15 -10 15 -10 -15 -10 -15 -10 15 -10 15 -10 -15 -10 -15 -10 15 -10 15
-10 -15 -10 -15 -10 15 -10 15 -11 -15 -11 -15 -5 13 -5 12 -6 0 -7 -1 -14
-15z m32 -16 l5 -13 11 15 11 15 10 -15 10 -15 10 15 10 15 10 -15 10 -15 10
15 10 15 10 -15 10 -15 10 15 10 15 10 -15 10 -15 9 15 10 14 8 -7 7 -8 -13
-9 -14 -8 17 -18 18 -17 9 14 9 14 10 -15 10 -15 10 15 10 15 9 -15 10 -14 21
24 21 24 9 -14 9 -14 20 23 20 23 17 -17 17 -17 -14 -9 -14 -9 15 -10 15 -10
-15 -10 -15 -10 15 -10 15 -10 -15 -10 -15 -10 15 -10 15 -10 -15 -10 -15 -10
15 -10 15 -10 -15 -10 -15 -10 14 -9 14 -9 -17 -17 -17 -17 -7 6 -6 7 14 10
15 9 -15 10 -15 10 14 9 14 9 -17 18 -18 17 -9 -14 -9 -14 -10 15 -10 15 -10
-15 -10 -15 -9 15 -10 14 -21 -24 -21 -24 -10 14 -9 15 -10 -15 -10 -15 -9 15
-10 14 -21 -24 -21 -24 -10 14 -9 15 -10 -15 -10 -15 -10 15 -10 15 -10 -15
-10 -15 -9 15 -10 14 -21 -23 -20 -24 -7 7 -7 7 14 10 15 9 -15 10 -15 10 15
10 15 10 -15 10 -15 10 15 10 15 10 -14 9 -14 9 17 18 18 17 8 -14 9 -13 21
24 21 24 10 -14 9 -15 10 15 10 15 9 -14 9 -14 17 16 16 17 -16 17 -17 16 -9
-14 -9 -14 -10 15 -10 15 -10 -15 -10 -15 -9 15 -10 14 -21 -24 -21 -24 -10
14 -9 15 -9 -15 -10 -14 -8 7 -7 8 14 10 15 11 -12 5 -13 5 0 9 0 9 9 0 9 0 5
-12z m237 2 l0 -10 -10 0 -10 0 0 10 0 10 10 0 10 0 0 -10z m-217 -342 l5 -13
11 15 11 15 10 -15 10 -15 9 15 10 14 7 -6 6 -7 -17 -17 -17 -17 -9 14 -9 14
-9 -14 -9 -14 -16 16 -16 16 0 5 0 6 9 0 9 0 5 -12z m417 -14 l0 -5 -15 -16
-16 -15 -5 5 -6 6 13 15 14 15 8 1 7 0 0 -6z m-100 -24 l0 -10 -10 0 -10 0 0
10 0 10 10 0 10 0 0 -10z m40 0 l0 -10 -10 0 -10 0 0 10 0 10 10 0 10 0 0 -10z"/>
<path d="M260 890 l0 -10 10 0 10 0 0 10 0 10 -10 0 -10 0 0 -10z"/>
<path d="M607 877 l-18 -22 -9 15 -9 14 -21 -24 -21 -24 -10 14 -9 15 -10 -15
-10 -15 -10 15 -10 15 -10 -15 -10 -15 -9 15 -10 14 -21 -24 -21 -24 -10 14
-9 15 -10 -15 -10 -15 -9 15 -10 14 -21 -24 -21 -24 -9 14 -9 14 -8 -7 -7 -8
14 -10 15 -9 -15 -10 -15 -10 15 -10 15 -10 -15 -9 -14 -10 7 -8 8 -7 10 14 9
15 10 -15 10 -15 10 15 10 15 10 -15 10 -15 10 15 10 15 9 -15 10 -14 21 24
21 24 10 -14 9 -15 10 15 10 15 9 -15 10 -14 21 24 21 24 10 -14 9 -15 10 15
10 15 10 -15 10 -15 10 15 10 15 9 -15 10 -14 8 7 7 8 -14 10 -15 9 15 10 15
10 -15 10 -15 10 15 10 15 10 -15 11 -15 11 13 5 12 5 0 9 0 9 -7 0 -8 0 -18
-23z m-24 -29 l5 -13 11 15 10 14 8 -7 7 -8 -14 -10 -15 -9 14 -9 14 -9 -17
-18 -18 -17 -9 14 -9 14 -10 -15 -10 -15 -9 15 -10 14 -20 -23 -21 -24 -21 24
-20 23 -10 -14 -9 -15 -9 14 -9 14 -18 -17 -17 -18 14 -8 13 -9 -7 -7 -7 -7
-20 24 -21 23 -10 -14 -9 -15 -10 15 -10 15 -9 -15 -10 -14 -7 6 -6 7 27 27
27 27 9 -14 9 -14 10 15 10 15 9 -15 10 -14 21 24 21 24 10 -14 9 -15 10 15
10 15 10 -15 10 -15 10 15 10 15 10 -15 9 -15 18 22 18 23 7 0 6 0 5 -12z"/>
<path d="M551 824 l-13 -15 7 -7 6 -6 10 14 9 15 9 -15 10 -14 7 6 6 7 -15 16
-16 15 -3 0 -3 -1 -14 -15z"/>
<path d="M420 810 l0 -10 10 0 10 0 0 10 0 10 -10 0 -10 0 0 -10z"/>
<path d="M460 814 l0 -5 15 -15 15 -15 16 16 16 16 -6 7 -7 6 -10 -14 -11 -15
-5 13 -5 12 -9 0 -9 0 0 -6z"/>
<path d="M320 790 l0 -10 10 0 10 0 0 10 0 10 -10 0 -10 0 0 -10z"/>
<path d="M360 790 l0 -10 10 0 10 0 0 10 0 10 -10 0 -10 0 0 -10z"/>
<path d="M552 704 l-14 -15 23 -20 22 -19 -7 -7 -7 -7 -9 14 -9 14 -21 -24
-21 -24 -10 14 -9 15 -9 -15 -10 -14 -7 6 -6 7 17 17 17 17 8 -13 8 -13 17 16
16 17 -16 17 -17 16 -9 -14 -9 -14 -9 14 -9 14 -18 -17 -17 -18 13 -8 13 -8
-28 -27 -27 -28 -9 14 -9 14 -10 -15 -10 -15 -9 15 -10 14 -7 -6 -6 -7 17 -17
17 -17 9 14 9 14 9 -15 10 -14 21 24 21 24 10 -14 9 -15 10 15 10 15 9 -15 10
-14 21 24 21 24 9 -13 8 -14 18 17 17 18 -14 9 -14 9 14 9 14 9 -16 16 -16 16
-3 0 -3 -1 -13 -15z"/>
<path d="M0 100 l0 -100 640 0 640 0 0 100 0 100 -640 0 -640 0 0 -100z"/>
</g>
</svg>
