<?xml version="1.0" standalone="no"?>
<!DOCTYPE svg PUBLIC "-//W3C//DTD SVG 20010904//EN"
 "http://www.w3.org/TR/2001/REC-SVG-20010904/DTD/svg10.dtd">
<svg version="1.0" xmlns="http://www.w3.org/2000/svg"
 width="468pt" height="468pt" viewBox="0 0 468 468"
 preserveAspectRatio="xMidYMid meet">
<metadata>
Created by potrace 1.8, written by Peter Selinger 2001-2007
</metadata>
<g transform="translate(0,468) scale(0.365625,-0.365625)"
fill="#000000" stroke="none">
<path d="M580 1250 l0 -10 -40 0 -40 0 0 -10 0 -10 -20 0 -20 0 0 -10 0 -10
-20 0 -20 0 0 -10 0 -10 -20 0 -20 0 0 -10 0 -10 -20 0 -20 0 0 -16 0 -15 -60
-59 -60 -59 0 -15 0 -16 -10 0 -10 0 0 -20 0 -20 -10 0 -10 0 0 -20 0 -20 -10
0 -10 0 0 -40 0 -40 -10 0 -10 0 0 -80 0 -80 10 0 10 0 0 -40 0 -40 10 0 10 0
0 -20 0 -20 10 0 10 0 0 -20 0 -20 10 0 10 0 0 -15 0 -15 85 -85 85 -85 15 0
15 0 0 -10 0 -10 20 0 20 0 0 -10 0 -10 20 0 20 0 0 -10 0 -10 40 0 40 0 0
-10 0 -10 80 0 80 0 0 10 0 10 40 0 40 0 0 10 0 10 20 0 20 0 0 10 0 10 20 0
20 0 0 10 0 10 15 0 15 0 85 85 85 85 0 15 0 15 10 0 10 0 0 20 0 20 10 0 10
0 0 20 0 20 10 0 10 0 0 40 0 40 10 0 10 0 0 80 0 80 -10 0 -10 0 0 40 0 40
-10 0 -10 0 0 20 0 20 -10 0 -10 0 0 20 0 20 -10 0 -10 0 0 15 0 15 -85 85
-85 85 -15 0 -15 0 0 10 0 10 -20 0 -20 0 0 10 0 10 -20 0 -20 0 0 10 0 10
-40 0 -40 0 0 10 0 10 -80 0 -80 0 0 -10z m160 -20 l0 -10 40 0 40 0 0 -10 0
-10 20 0 20 0 0 -10 0 -10 20 0 20 0 0 -10 0 -10 20 0 20 0 0 -10 0 -10 -20 0
-20 0 0 -5 0 -6 25 -24 24 -25 11 0 11 0 34 -35 35 -34 0 -16 0 -15 20 0 20 0
0 -40 0 -40 10 0 10 0 0 -70 0 -70 10 0 10 0 0 -30 0 -30 10 0 10 0 0 30 0 30
10 0 10 0 0 -40 0 -40 -10 0 -10 0 0 -18 0 -18 -20 -14 -20 -14 0 -18 0 -18
-10 0 -10 0 0 -40 0 -40 -10 0 -10 0 0 -20 0 -20 -10 0 -10 0 0 -15 0 -15 -55
-55 -55 -55 -15 0 -15 0 0 -10 0 -10 -20 0 -20 0 0 -10 0 -10 -20 0 -20 0 0
-10 0 -10 -30 0 -30 0 0 10 0 10 -30 0 -30 0 0 10 0 10 -50 0 -50 0 0 10 0 10
-40 0 -40 0 0 -10 0 -10 -19 0 -19 0 -6 -12 -6 -13 -6 13 -6 12 -19 0 -19 0 0
10 0 10 -16 0 -15 0 -15 14 -14 15 0 11 0 11 -60 59 -60 59 0 31 0 31 -14 15
-15 14 -15 0 -16 0 0 40 0 40 -10 0 -10 0 0 80 0 80 20 0 20 0 0 -10 0 -10 20
0 20 0 0 -30 0 -30 10 0 10 0 0 -30 0 -30 6 0 5 0 15 14 14 15 0 11 0 11 14
15 15 14 15 0 16 0 0 16 0 15 14 15 15 14 15 0 16 0 0 10 0 10 16 0 15 0 15
-14 14 -15 0 -21 0 -21 25 -24 24 -25 6 0 5 0 0 20 0 20 10 0 10 0 0 20 0 20
10 0 10 0 0 -10 0 -10 10 0 10 0 0 16 0 15 14 15 15 14 15 0 16 0 0 10 0 10
20 0 20 0 0 -30 0 -30 5 0 6 0 24 25 25 24 0 26 0 25 10 0 10 0 0 20 0 20 16
0 15 0 15 14 14 15 0 25 0 26 15 0 16 0 25 25 25 25 -15 15 -15 15 -15 0 -16
0 0 10 0 10 -28 0 -28 0 -14 20 -14 20 -38 0 -38 0 0 10 0 10 -40 0 -40 0 0
10 0 10 -60 0 -60 0 0 -10 0 -10 -20 0 -20 0 0 -10 0 -10 -20 0 -20 0 0 10 0
10 20 0 20 0 0 10 0 10 20 0 20 0 0 10 0 10 40 0 40 0 0 10 0 10 80 0 80 0 0
-10z"/>
<path d="M860 954 l0 -26 -31 -29 -32 -30 8 -7 8 -7 4 13 5 12 19 0 19 0 0 20
0 20 10 0 10 0 0 20 0 20 10 0 10 0 0 10 0 10 -20 0 -20 0 0 -26z"/>
<path d="M1013 845 l-13 -14 0 -6 0 -5 20 0 20 0 0 20 0 20 -7 0 -8 -1 -12
-14z"/>
<path d="M960 790 l0 -10 10 0 10 0 0 10 0 10 -10 0 -10 0 0 -10z"/>
<path d="M640 770 l0 -10 10 0 10 0 0 10 0 10 -10 0 -10 0 0 -10z"/>
<path d="M560 740 l0 -20 9 0 9 0 5 13 5 12 11 -15 10 -14 7 6 6 7 -15 16 -16
15 -15 0 -16 0 0 -20z"/>
<path d="M331 724 l-13 -15 6 -6 5 -5 16 15 15 16 0 5 0 6 -7 0 -8 -1 -14 -15z"/>
<path d="M640 730 l0 -10 30 0 30 0 0 -10 0 -10 20 0 20 0 0 -10 0 -10 39 0
39 0 5 -12 4 -13 8 7 7 7 -25 25 -26 26 -46 0 -45 0 0 10 0 10 -30 0 -30 0 0
-10z"/>
<path d="M760 614 l0 -25 -14 -15 -15 -14 -5 0 -6 0 0 16 0 15 -14 15 -15 14
-25 0 -26 0 0 -16 0 -16 -40 -38 -40 -38 0 -42 0 -41 25 -24 24 -25 16 0 15 0
0 10 0 10 38 0 38 0 14 -20 14 -20 18 0 18 0 0 18 0 18 20 14 20 14 0 18 0 18
10 0 10 0 0 30 0 30 -10 0 -10 0 0 20 0 20 -10 0 -10 0 0 20 0 20 -10 0 -10 0
0 20 0 20 -10 0 -10 0 0 -26z"/>
<path d="M940 590 l0 -10 10 0 10 0 0 10 0 10 -10 0 -10 0 0 -10z"/>
<path d="M320 474 l0 -5 15 -16 16 -15 6 5 5 6 -15 16 -16 15 -5 0 -6 0 0 -6z"/>
<path d="M923 415 l-23 -24 0 -15 0 -14 -12 -5 -13 -4 7 -8 7 -7 35 36 36 35
0 16 0 15 -7 -1 -8 0 -22 -24z"/>
<path d="M0 100 l0 -100 640 0 640 0 0 100 0 100 -640 0 -640 0 0 -100z"/>
</g>
</svg>
