<?xml version="1.0" standalone="no"?>
<!DOCTYPE svg PUBLIC "-//W3C//DTD SVG 20010904//EN"
 "http://www.w3.org/TR/2001/REC-SVG-20010904/DTD/svg10.dtd">
<svg version="1.0" xmlns="http://www.w3.org/2000/svg"
 width="468pt" height="468pt" viewBox="0 0 468 468"
 preserveAspectRatio="xMidYMid meet">
<metadata>
Created by potrace 1.8, written by Peter Selinger 2001-2007
</metadata>
<g transform="translate(0,468) scale(0.365625,-0.365625)"
fill="#000000" stroke="none">
<path d="M0 640 l0 -640 30 0 30 0 0 15 0 15 20 0 20 0 0 -15 0 -15 15 0 15 0
0 15 0 15 -15 0 -15 0 0 15 0 15 15 0 15 0 0 20 0 20 15 0 15 0 0 -20 0 -20
15 0 15 0 0 -15 0 -15 -15 0 -15 0 0 -15 0 -15 15 0 15 0 0 15 0 15 15 0 15 0
0 -15 0 -15 20 0 20 0 0 15 0 15 -20 0 -20 0 0 15 0 15 -15 0 -15 0 0 20 0 20
-15 0 -15 0 0 15 0 15 15 0 15 0 0 15 0 15 15 0 15 0 0 -15 0 -15 20 0 20 0 0
-15 0 -15 15 0 15 0 0 -20 0 -20 15 0 15 0 0 -15 0 -15 -15 0 -15 0 0 -15 0
-15 15 0 15 0 0 15 0 15 15 0 15 0 0 -15 0 -15 15 0 15 0 0 15 0 15 -15 0 -15
0 0 15 0 15 15 0 15 0 0 20 0 20 20 0 20 0 0 -20 0 -20 15 0 15 0 0 -15 0 -15
-15 0 -15 0 0 -15 0 -15 15 0 15 0 0 15 0 15 15 0 15 0 0 -15 0 -15 15 0 15 0
0 15 0 15 -15 0 -15 0 0 15 0 15 15 0 15 0 0 20 0 20 15 0 15 0 0 15 0 15 20
0 20 0 0 15 0 15 15 0 15 0 0 -15 0 -15 15 0 15 0 0 -15 0 -15 -15 0 -15 0 0
-20 0 -20 -15 0 -15 0 0 -15 0 -15 -20 0 -20 0 0 -15 0 -15 20 0 20 0 0 15 0
15 15 0 15 0 0 -15 0 -15 15 0 15 0 0 15 0 15 -15 0 -15 0 0 15 0 15 15 0 15
0 0 20 0 20 15 0 15 0 0 -20 0 -20 15 0 15 0 0 -15 0 -15 -15 0 -15 0 0 -15 0
-15 15 0 15 0 0 15 0 15 20 0 20 0 0 -15 0 -15 15 0 15 0 0 15 0 15 -15 0 -15
0 0 15 0 15 15 0 15 0 0 20 0 20 15 0 15 0 0 -20 0 -20 15 0 15 0 0 -15 0 -15
-15 0 -15 0 0 -15 0 -15 15 0 15 0 0 15 0 15 15 0 15 0 0 -15 0 -15 20 0 20 0
0 15 0 15 -20 0 -20 0 0 15 0 15 -15 0 -15 0 0 20 0 20 -15 0 -15 0 0 15 0 15
15 0 15 0 0 15 0 15 15 0 15 0 0 -15 0 -15 20 0 20 0 0 -15 0 -15 15 0 15 0 0
-20 0 -20 15 0 15 0 0 -15 0 -15 -15 0 -15 0 0 -15 0 -15 15 0 15 0 0 15 0 15
15 0 15 0 0 -15 0 -15 15 0 15 0 0 15 0 15 -15 0 -15 0 0 15 0 15 15 0 15 0 0
20 0 20 20 0 20 0 0 -20 0 -20 15 0 15 0 0 -15 0 -15 -15 0 -15 0 0 -15 0 -15
15 0 15 0 0 15 0 15 15 0 15 0 0 -15 0 -15 15 0 15 0 0 15 0 15 -15 0 -15 0 0
15 0 15 15 0 15 0 0 20 0 20 15 0 15 0 0 15 0 15 20 0 20 0 0 15 0 15 -20 0
-20 0 0 -15 0 -15 -15 0 -15 0 0 15 0 15 -15 0 -15 0 0 15 0 15 15 0 15 0 0
15 0 15 15 0 15 0 0 -15 0 -15 20 0 20 0 0 15 0 15 -20 0 -20 0 0 20 0 20 20
0 20 0 0 15 0 15 -20 0 -20 0 0 -15 0 -15 -15 0 -15 0 0 15 0 15 -15 0 -15 0
0 15 0 15 15 0 15 0 0 15 0 15 15 0 15 0 0 -15 0 -15 20 0 20 0 0 15 0 15 -20
0 -20 0 0 15 0 15 -15 0 -15 0 0 20 0 20 -15 0 -15 0 0 15 0 15 15 0 15 0 0
15 0 15 15 0 15 0 0 -15 0 -15 20 0 20 0 0 15 0 15 -20 0 -20 0 0 15 0 15 20
0 20 0 0 15 0 15 15 0 15 0 0 -45 0 -45 -15 0 -15 0 0 -15 0 -15 15 0 15 0 0
-50 0 -50 -15 0 -15 0 0 -15 0 -15 15 0 15 0 0 -50 0 -50 -15 0 -15 0 0 -15 0
-15 15 0 15 0 0 -50 0 -50 -15 0 -15 0 0 -15 0 -15 -20 0 -20 0 0 -15 0 -15
20 0 20 0 0 15 0 15 15 0 15 0 0 -15 0 -15 15 0 15 0 0 640 0 640 -640 0 -640
0 0 -640z m100 595 l0 -15 15 0 15 0 0 15 0 15 15 0 15 0 0 -15 0 -15 15 0 15
0 0 15 0 15 15 0 15 0 0 -15 0 -15 20 0 20 0 0 15 0 15 15 0 15 0 0 -15 0 -15
15 0 15 0 0 15 0 15 15 0 15 0 0 -15 0 -15 15 0 15 0 0 15 0 15 20 0 20 0 0
-15 0 -15 15 0 15 0 0 15 0 15 15 0 15 0 0 -15 0 -15 15 0 15 0 0 15 0 15 15
0 15 0 0 -15 0 -15 20 0 20 0 0 15 0 15 15 0 15 0 0 -15 0 -15 15 0 15 0 0 15
0 15 15 0 15 0 0 -15 0 -15 15 0 15 0 0 15 0 15 20 0 20 0 0 -15 0 -15 15 0
15 0 0 15 0 15 15 0 15 0 0 -15 0 -15 15 0 15 0 0 15 0 15 15 0 15 0 0 -15 0
-15 20 0 20 0 0 15 0 15 15 0 15 0 0 -15 0 -15 15 0 15 0 0 15 0 15 15 0 15 0
0 -15 0 -15 15 0 15 0 0 15 0 15 20 0 20 0 0 -15 0 -15 15 0 15 0 0 15 0 15
15 0 15 0 0 -15 0 -15 15 0 15 0 0 15 0 15 15 0 15 0 0 -15 0 -15 20 0 20 0 0
15 0 15 15 0 15 0 0 -15 0 -15 -15 0 -15 0 0 -20 0 -20 15 0 15 0 0 -45 0 -45
-15 0 -15 0 0 -15 0 -15 15 0 15 0 0 -50 0 -50 -15 0 -15 0 0 -15 0 -15 15 0
15 0 0 -50 0 -50 -15 0 -15 0 0 -15 0 -15 15 0 15 0 0 -50 0 -50 -15 0 -15 0
0 -15 0 -15 15 0 15 0 0 -45 0 -45 -15 0 -15 0 0 -20 0 -20 -20 0 -20 0 0 -15
0 -15 -15 0 -15 0 0 -15 0 -15 -15 0 -15 0 0 -15 0 -15 -15 0 -15 0 0 15 0 15
-15 0 -15 0 0 15 0 15 15 0 15 0 0 15 0 15 15 0 15 0 0 -15 0 -15 15 0 15 0 0
15 0 15 -15 0 -15 0 0 20 0 20 15 0 15 0 0 15 0 15 15 0 15 0 0 -15 0 -15 20
0 20 0 0 15 0 15 -20 0 -20 0 0 15 0 15 20 0 20 0 0 15 0 15 -20 0 -20 0 0
-15 0 -15 -15 0 -15 0 0 15 0 15 -15 0 -15 0 0 15 0 15 15 0 15 0 0 20 0 20
15 0 15 0 0 15 0 15 20 0 20 0 0 15 0 15 -20 0 -20 0 0 -15 0 -15 -15 0 -15 0
0 15 0 15 -15 0 -15 0 0 15 0 15 15 0 15 0 0 15 0 15 15 0 15 0 0 -15 0 -15
20 0 20 0 0 15 0 15 -20 0 -20 0 0 20 0 20 20 0 20 0 0 15 0 15 -20 0 -20 0 0
-15 0 -15 -15 0 -15 0 0 15 0 15 -15 0 -15 0 0 15 0 15 15 0 15 0 0 15 0 15
15 0 15 0 0 -15 0 -15 20 0 20 0 0 15 0 15 -20 0 -20 0 0 15 0 15 -15 0 -15 0
0 20 0 20 -15 0 -15 0 0 15 0 15 15 0 15 0 0 15 0 15 15 0 15 0 0 -15 0 -15
20 0 20 0 0 15 0 15 -20 0 -20 0 0 15 0 15 20 0 20 0 0 15 0 15 -20 0 -20 0 0
-15 0 -15 -15 0 -15 0 0 15 0 15 -15 0 -15 0 0 20 0 20 -15 0 -15 0 0 -20 0
-20 -15 0 -15 0 0 -15 0 -15 -20 0 -20 0 0 15 0 15 -15 0 -15 0 0 20 0 20 -15
0 -15 0 0 -20 0 -20 -15 0 -15 0 0 -15 0 -15 -15 0 -15 0 0 15 0 15 -20 0 -20
0 0 20 0 20 -15 0 -15 0 0 -20 0 -20 -15 0 -15 0 0 -15 0 -15 -15 0 -15 0 0
15 0 15 -15 0 -15 0 0 20 0 20 -20 0 -20 0 0 -20 0 -20 -15 0 -15 0 0 -15 0
-15 -15 0 -15 0 0 15 0 15 -15 0 -15 0 0 20 0 20 -15 0 -15 0 0 -20 0 -20 -20
0 -20 0 0 -15 0 -15 -15 0 -15 0 0 15 0 15 -15 0 -15 0 0 20 0 20 -15 0 -15 0
0 -20 0 -20 -15 0 -15 0 0 -15 0 -15 -20 0 -20 0 0 15 0 15 -15 0 -15 0 0 20
0 20 -15 0 -15 0 0 -20 0 -20 -15 0 -15 0 0 -15 0 -15 -15 0 -15 0 0 15 0 15
-20 0 -20 0 0 20 0 20 -15 0 -15 0 0 -20 0 -20 -15 0 -15 0 0 -15 0 -15 -15 0
-15 0 0 15 0 15 -15 0 -15 0 0 20 0 20 -20 0 -20 0 0 -20 0 -20 20 0 20 0 0
-15 0 -15 15 0 15 0 0 -15 0 -15 -15 0 -15 0 0 -15 0 -15 -20 0 -20 0 0 -15 0
-15 20 0 20 0 0 -20 0 -20 15 0 15 0 0 -15 0 -15 -15 0 -15 0 0 -15 0 -15 -20
0 -20 0 0 -15 0 -15 20 0 20 0 0 -15 0 -15 15 0 15 0 0 -20 0 -20 -15 0 -15 0
0 -15 0 -15 -20 0 -20 0 0 -15 0 -15 20 0 20 0 0 -15 0 -15 15 0 15 0 0 -15 0
-15 -15 0 -15 0 0 -20 0 -20 -20 0 -20 0 0 -15 0 -15 20 0 20 0 0 -15 0 -15
15 0 15 0 0 -15 0 -15 -15 0 -15 0 0 -15 0 -15 -20 0 -20 0 0 -20 0 -20 20 0
20 0 0 -15 0 -15 15 0 15 0 0 -15 0 -15 -15 0 -15 0 0 -15 0 -15 -20 0 -20 0
0 -15 0 -15 20 0 20 0 0 -20 0 -20 15 0 15 0 0 -15 0 -15 -15 0 -15 0 0 -15 0
-15 -20 0 -20 0 0 -15 0 -15 20 0 20 0 0 -15 0 -15 15 0 15 0 0 -20 0 -20 -15
0 -15 0 0 -15 0 -15 -20 0 -20 0 0 -15 0 -15 20 0 20 0 0 -15 0 -15 15 0 15 0
0 15 0 15 -15 0 -15 0 0 15 0 15 15 0 15 0 0 15 0 15 15 0 15 0 0 -15 0 -15
15 0 15 0 0 -15 0 -15 -15 0 -15 0 0 -15 0 -15 -15 0 -15 0 0 -15 0 -15 -15 0
-15 0 0 -20 0 -20 -20 0 -20 0 0 -15 0 -15 -15 0 -15 0 0 15 0 15 15 0 15 0 0
20 0 20 -15 0 -15 0 0 15 0 15 15 0 15 0 0 15 0 15 -15 0 -15 0 0 15 0 15 15
0 15 0 0 15 0 15 -15 0 -15 0 0 20 0 20 15 0 15 0 0 15 0 15 -15 0 -15 0 0 15
0 15 15 0 15 0 0 15 0 15 -15 0 -15 0 0 15 0 15 15 0 15 0 0 20 0 20 -15 0
-15 0 0 15 0 15 15 0 15 0 0 15 0 15 -15 0 -15 0 0 15 0 15 15 0 15 0 0 15 0
15 -15 0 -15 0 0 20 0 20 15 0 15 0 0 15 0 15 -15 0 -15 0 0 15 0 15 15 0 15
0 0 15 0 15 -15 0 -15 0 0 15 0 15 15 0 15 0 0 20 0 20 -15 0 -15 0 0 15 0 15
15 0 15 0 0 15 0 15 -15 0 -15 0 0 15 0 15 15 0 15 0 0 15 0 15 -15 0 -15 0 0
20 0 20 15 0 15 0 0 15 0 15 -15 0 -15 0 0 15 0 15 15 0 15 0 0 15 0 15 -15 0
-15 0 0 15 0 15 15 0 15 0 0 20 0 20 -15 0 -15 0 0 15 0 15 15 0 15 0 0 15 0
15 -15 0 -15 0 0 15 0 15 15 0 15 0 0 15 0 15 -15 0 -15 0 0 20 0 20 15 0 15
0 0 15 0 15 20 0 20 0 0 -15z m120 -70 l0 -15 20 0 20 0 0 -15 0 -15 15 0 15
0 0 -15 0 -15 15 0 15 0 0 -15 0 -15 -15 0 -15 0 0 -20 0 -20 -15 0 -15 0 0
-15 0 -15 -20 0 -20 0 0 -15 0 -15 -15 0 -15 0 0 15 0 15 -15 0 -15 0 0 15 0
15 -15 0 -15 0 0 20 0 20 -15 0 -15 0 0 15 0 15 15 0 15 0 0 15 0 15 15 0 15
0 0 15 0 15 15 0 15 0 0 15 0 15 15 0 15 0 0 -15z m130 0 l0 -15 15 0 15 0 0
-15 0 -15 -15 0 -15 0 0 -15 0 -15 -15 0 -15 0 0 15 0 15 -15 0 -15 0 0 15 0
15 15 0 15 0 0 15 0 15 15 0 15 0 0 -15z m130 0 l0 -15 15 0 15 0 0 -15 0 -15
-15 0 -15 0 0 -15 0 -15 -15 0 -15 0 0 15 0 15 -15 0 -15 0 0 15 0 15 15 0 15
0 0 15 0 15 15 0 15 0 0 -15z m130 0 l0 -15 15 0 15 0 0 -15 0 -15 -15 0 -15
0 0 -15 0 -15 -15 0 -15 0 0 15 0 15 -20 0 -20 0 0 -15 0 -15 20 0 20 0 0 -15
0 -15 15 0 15 0 0 -20 0 -20 15 0 15 0 0 -15 0 -15 -15 0 -15 0 0 -15 0 -15
-15 0 -15 0 0 15 0 15 -20 0 -20 0 0 15 0 15 -15 0 -15 0 0 20 0 20 -15 0 -15
0 0 -20 0 -20 15 0 15 0 0 -15 0 -15 -15 0 -15 0 0 -15 0 -15 -15 0 -15 0 0
15 0 15 -15 0 -15 0 0 15 0 15 15 0 15 0 0 20 0 20 -15 0 -15 0 0 -20 0 -20
-20 0 -20 0 0 20 0 20 -15 0 -15 0 0 -20 0 -20 15 0 15 0 0 -15 0 -15 -15 0
-15 0 0 -15 0 -15 -15 0 -15 0 0 15 0 15 -15 0 -15 0 0 15 0 15 15 0 15 0 0
20 0 20 15 0 15 0 0 15 0 15 15 0 15 0 0 15 0 15 20 0 20 0 0 -15 0 -15 15 0
15 0 0 -15 0 -15 15 0 15 0 0 15 0 15 15 0 15 0 0 15 0 15 15 0 15 0 0 15 0
15 20 0 20 0 0 15 0 15 15 0 15 0 0 -15z m130 0 l0 -15 15 0 15 0 0 -15 0 -15
-15 0 -15 0 0 -15 0 -15 -20 0 -20 0 0 15 0 15 -15 0 -15 0 0 -15 0 -15 15 0
15 0 0 -15 0 -15 -15 0 -15 0 0 -20 0 -20 15 0 15 0 0 20 0 20 20 0 20 0 0
-20 0 -20 15 0 15 0 0 -15 0 -15 -15 0 -15 0 0 -15 0 -15 -20 0 -20 0 0 15 0
15 -15 0 -15 0 0 15 0 15 -15 0 -15 0 0 20 0 20 -15 0 -15 0 0 15 0 15 15 0
15 0 0 15 0 15 15 0 15 0 0 15 0 15 15 0 15 0 0 15 0 15 20 0 20 0 0 -15z
m120 0 l0 -15 20 0 20 0 0 -15 0 -15 15 0 15 0 0 -15 0 -15 15 0 15 0 0 -15 0
-15 -15 0 -15 0 0 -20 0 -20 -15 0 -15 0 0 -15 0 -15 -20 0 -20 0 0 -15 0 -15
-15 0 -15 0 0 15 0 15 -15 0 -15 0 0 15 0 15 -15 0 -15 0 0 20 0 20 -15 0 -15
0 0 15 0 15 15 0 15 0 0 15 0 15 15 0 15 0 0 15 0 15 15 0 15 0 0 15 0 15 15
0 15 0 0 -15z m130 0 l0 -15 15 0 15 0 0 -15 0 -15 -15 0 -15 0 0 -15 0 -15
-15 0 -15 0 0 15 0 15 -15 0 -15 0 0 15 0 15 15 0 15 0 0 15 0 15 15 0 15 0 0
-15z m130 0 l0 -15 15 0 15 0 0 -15 0 -15 -15 0 -15 0 0 -15 0 -15 -15 0 -15
0 0 15 0 15 -15 0 -15 0 0 15 0 15 15 0 15 0 0 15 0 15 15 0 15 0 0 -15z m-60
-60 l0 -15 15 0 15 0 0 -15 0 -15 15 0 15 0 0 -20 0 -20 15 0 15 0 0 -15 0
-15 -15 0 -15 0 0 -15 0 -15 -15 0 -15 0 0 15 0 15 -15 0 -15 0 0 15 0 15 15
0 15 0 0 20 0 20 -15 0 -15 0 0 -20 0 -20 -20 0 -20 0 0 20 0 20 -15 0 -15 0
0 -20 0 -20 15 0 15 0 0 -15 0 -15 -15 0 -15 0 0 -15 0 -15 -15 0 -15 0 0 15
0 15 -15 0 -15 0 0 15 0 15 15 0 15 0 0 20 0 20 15 0 15 0 0 15 0 15 15 0 15
0 0 15 0 15 20 0 20 0 0 -15z m-900 -130 l0 -15 15 0 15 0 0 -15 0 -15 -15 0
-15 0 0 -15 0 -15 -15 0 -15 0 0 15 0 15 -15 0 -15 0 0 15 0 15 15 0 15 0 0
15 0 15 15 0 15 0 0 -15z m130 0 l0 -15 15 0 15 0 0 -15 0 -15 -15 0 -15 0 0
-15 0 -15 -15 0 -15 0 0 15 0 15 -20 0 -20 0 0 -15 0 -15 20 0 20 0 0 -20 0
-20 -20 0 -20 0 0 -15 0 -15 -15 0 -15 0 0 15 0 15 -15 0 -15 0 0 20 0 20 15
0 15 0 0 15 0 15 15 0 15 0 0 15 0 15 20 0 20 0 0 15 0 15 15 0 15 0 0 -15z
m130 0 l0 -15 15 0 15 0 0 -15 0 -15 -15 0 -15 0 0 -15 0 -15 -20 0 -20 0 0
15 0 15 -15 0 -15 0 0 -15 0 -15 15 0 15 0 0 -20 0 -20 -15 0 -15 0 0 -15 0
-15 -15 0 -15 0 0 15 0 15 -15 0 -15 0 0 20 0 20 15 0 15 0 0 15 0 15 15 0 15
0 0 15 0 15 15 0 15 0 0 15 0 15 20 0 20 0 0 -15z m120 0 l0 -15 20 0 20 0 0
-15 0 -15 15 0 15 0 0 -15 0 -15 15 0 15 0 0 -20 0 -20 -15 0 -15 0 0 -15 0
-15 -15 0 -15 0 0 15 0 15 -20 0 -20 0 0 20 0 20 20 0 20 0 0 15 0 15 -20 0
-20 0 0 -15 0 -15 -15 0 -15 0 0 15 0 15 -15 0 -15 0 0 -15 0 -15 15 0 15 0 0
-20 0 -20 -15 0 -15 0 0 -15 0 -15 -15 0 -15 0 0 15 0 15 -15 0 -15 0 0 20 0
20 15 0 15 0 0 15 0 15 15 0 15 0 0 15 0 15 15 0 15 0 0 15 0 15 15 0 15 0 0
-15z m130 0 l0 -15 15 0 15 0 0 -15 0 -15 -15 0 -15 0 0 -15 0 -15 -15 0 -15
0 0 15 0 15 -15 0 -15 0 0 15 0 15 15 0 15 0 0 15 0 15 15 0 15 0 0 -15z m130
0 l0 -15 15 0 15 0 0 -15 0 -15 -15 0 -15 0 0 -15 0 -15 -15 0 -15 0 0 15 0
15 -15 0 -15 0 0 15 0 15 15 0 15 0 0 15 0 15 15 0 15 0 0 -15z m130 0 l0 -15
15 0 15 0 0 -15 0 -15 -15 0 -15 0 0 -15 0 -15 -15 0 -15 0 0 15 0 15 -20 0
-20 0 0 -15 0 -15 20 0 20 0 0 -20 0 -20 -20 0 -20 0 0 -15 0 -15 -15 0 -15 0
0 15 0 15 -15 0 -15 0 0 20 0 20 15 0 15 0 0 15 0 15 15 0 15 0 0 15 0 15 20
0 20 0 0 15 0 15 15 0 15 0 0 -15z m130 0 l0 -15 15 0 15 0 0 -15 0 -15 15 0
15 0 0 -15 0 -15 15 0 15 0 0 -20 0 -20 -15 0 -15 0 0 -15 0 -15 -15 0 -15 0
0 15 0 15 -15 0 -15 0 0 20 0 20 15 0 15 0 0 15 0 15 -15 0 -15 0 0 -15 0 -15
-20 0 -20 0 0 15 0 15 -15 0 -15 0 0 -15 0 -15 15 0 15 0 0 -20 0 -20 -15 0
-15 0 0 -15 0 -15 -15 0 -15 0 0 15 0 15 -15 0 -15 0 0 20 0 20 15 0 15 0 0
15 0 15 15 0 15 0 0 15 0 15 15 0 15 0 0 15 0 15 20 0 20 0 0 -15z m-320 -60
l0 -15 15 0 15 0 0 -20 0 -20 -15 0 -15 0 0 -15 0 -15 -20 0 -20 0 0 15 0 15
-15 0 -15 0 0 20 0 20 15 0 15 0 0 15 0 15 20 0 20 0 0 -15z m-580 -70 l0 -15
15 0 15 0 0 -15 0 -15 -15 0 -15 0 0 -15 0 -15 -15 0 -15 0 0 15 0 15 -15 0
-15 0 0 15 0 15 15 0 15 0 0 15 0 15 15 0 15 0 0 -15z m130 0 l0 -15 15 0 15
0 0 -15 0 -15 -15 0 -15 0 0 -15 0 -15 -15 0 -15 0 0 15 0 15 -20 0 -20 0 0
-15 0 -15 20 0 20 0 0 -15 0 -15 15 0 15 0 0 -20 0 -20 15 0 15 0 0 -15 0 -15
-15 0 -15 0 0 -15 0 -15 -15 0 -15 0 0 15 0 15 -20 0 -20 0 0 15 0 15 -15 0
-15 0 0 20 0 20 -15 0 -15 0 0 -20 0 -20 15 0 15 0 0 -15 0 -15 -15 0 -15 0 0
-15 0 -15 -15 0 -15 0 0 15 0 15 -15 0 -15 0 0 15 0 15 15 0 15 0 0 20 0 20
15 0 15 0 0 15 0 15 15 0 15 0 0 15 0 15 15 0 15 0 0 15 0 15 20 0 20 0 0 15
0 15 15 0 15 0 0 -15z m130 0 l0 -15 15 0 15 0 0 -15 0 -15 -15 0 -15 0 0 -15
0 -15 -20 0 -20 0 0 15 0 15 -15 0 -15 0 0 -15 0 -15 15 0 15 0 0 -15 0 -15
-15 0 -15 0 0 -20 0 -20 15 0 15 0 0 20 0 20 20 0 20 0 0 -20 0 -20 15 0 15 0
0 -15 0 -15 -15 0 -15 0 0 -15 0 -15 -20 0 -20 0 0 15 0 15 -15 0 -15 0 0 15
0 15 -15 0 -15 0 0 20 0 20 -15 0 -15 0 0 15 0 15 15 0 15 0 0 15 0 15 15 0
15 0 0 15 0 15 15 0 15 0 0 15 0 15 20 0 20 0 0 -15z m120 0 l0 -15 20 0 20 0
0 -15 0 -15 15 0 15 0 0 -15 0 -15 15 0 15 0 0 -15 0 -15 -15 0 -15 0 0 -20 0
-20 -15 0 -15 0 0 -15 0 -15 -20 0 -20 0 0 -15 0 -15 -15 0 -15 0 0 15 0 15
-15 0 -15 0 0 15 0 15 -15 0 -15 0 0 20 0 20 -15 0 -15 0 0 15 0 15 15 0 15 0
0 15 0 15 15 0 15 0 0 15 0 15 15 0 15 0 0 15 0 15 15 0 15 0 0 -15z m130 0
l0 -15 15 0 15 0 0 -15 0 -15 -15 0 -15 0 0 -15 0 -15 -15 0 -15 0 0 15 0 15
-15 0 -15 0 0 15 0 15 15 0 15 0 0 15 0 15 15 0 15 0 0 -15z m130 0 l0 -15 15
0 15 0 0 -15 0 -15 -15 0 -15 0 0 -15 0 -15 -15 0 -15 0 0 15 0 15 -15 0 -15
0 0 15 0 15 15 0 15 0 0 15 0 15 15 0 15 0 0 -15z m130 0 l0 -15 15 0 15 0 0
-15 0 -15 -15 0 -15 0 0 -15 0 -15 -15 0 -15 0 0 15 0 15 -20 0 -20 0 0 -15 0
-15 20 0 20 0 0 -15 0 -15 15 0 15 0 0 -20 0 -20 15 0 15 0 0 -15 0 -15 -15 0
-15 0 0 -15 0 -15 -15 0 -15 0 0 15 0 15 -20 0 -20 0 0 15 0 15 -15 0 -15 0 0
20 0 20 -15 0 -15 0 0 -20 0 -20 15 0 15 0 0 -15 0 -15 -15 0 -15 0 0 -15 0
-15 -15 0 -15 0 0 15 0 15 -15 0 -15 0 0 15 0 15 15 0 15 0 0 20 0 20 -15 0
-15 0 0 -20 0 -20 -20 0 -20 0 0 20 0 20 -15 0 -15 0 0 -20 0 -20 15 0 15 0 0
-15 0 -15 -15 0 -15 0 0 -15 0 -15 -15 0 -15 0 0 15 0 15 -15 0 -15 0 0 15 0
15 15 0 15 0 0 20 0 20 15 0 15 0 0 15 0 15 15 0 15 0 0 15 0 15 20 0 20 0 0
-15 0 -15 15 0 15 0 0 -15 0 -15 15 0 15 0 0 15 0 15 15 0 15 0 0 15 0 15 15
0 15 0 0 15 0 15 20 0 20 0 0 15 0 15 15 0 15 0 0 -15z m130 0 l0 -15 15 0 15
0 0 -15 0 -15 15 0 15 0 0 -15 0 -15 15 0 15 0 0 -15 0 -15 -15 0 -15 0 0 -20
0 -20 -15 0 -15 0 0 -15 0 -15 -15 0 -15 0 0 -15 0 -15 -20 0 -20 0 0 15 0 15
-15 0 -15 0 0 15 0 15 -15 0 -15 0 0 20 0 20 -15 0 -15 0 0 15 0 15 15 0 15 0
0 15 0 15 15 0 15 0 0 15 0 15 15 0 15 0 0 15 0 15 20 0 20 0 0 -15z m-840
-190 l0 -15 20 0 20 0 0 -15 0 -15 15 0 15 0 0 -15 0 -15 15 0 15 0 0 -20 0
-20 -15 0 -15 0 0 -15 0 -15 -15 0 -15 0 0 15 0 15 -20 0 -20 0 0 20 0 20 20
0 20 0 0 15 0 15 -20 0 -20 0 0 -15 0 -15 -15 0 -15 0 0 15 0 15 -15 0 -15 0
0 -15 0 -15 15 0 15 0 0 -20 0 -20 -15 0 -15 0 0 -15 0 -15 -15 0 -15 0 0 15
0 15 -15 0 -15 0 0 20 0 20 15 0 15 0 0 15 0 15 15 0 15 0 0 15 0 15 15 0 15
0 0 15 0 15 15 0 15 0 0 -15z m130 0 l0 -15 15 0 15 0 0 -15 0 -15 -15 0 -15
0 0 -15 0 -15 -15 0 -15 0 0 15 0 15 -15 0 -15 0 0 15 0 15 15 0 15 0 0 15 0
15 15 0 15 0 0 -15z m130 0 l0 -15 15 0 15 0 0 -15 0 -15 -15 0 -15 0 0 -15 0
-15 -15 0 -15 0 0 15 0 15 -15 0 -15 0 0 15 0 15 15 0 15 0 0 15 0 15 15 0 15
0 0 -15z m130 0 l0 -15 15 0 15 0 0 -15 0 -15 -15 0 -15 0 0 -15 0 -15 -15 0
-15 0 0 15 0 15 -20 0 -20 0 0 -15 0 -15 20 0 20 0 0 -20 0 -20 -20 0 -20 0 0
-15 0 -15 -15 0 -15 0 0 15 0 15 -15 0 -15 0 0 20 0 20 15 0 15 0 0 15 0 15
15 0 15 0 0 15 0 15 20 0 20 0 0 15 0 15 15 0 15 0 0 -15z m130 0 l0 -15 15 0
15 0 0 -15 0 -15 -15 0 -15 0 0 -15 0 -15 -20 0 -20 0 0 15 0 15 -15 0 -15 0
0 -15 0 -15 15 0 15 0 0 -20 0 -20 -15 0 -15 0 0 -15 0 -15 -15 0 -15 0 0 15
0 15 -15 0 -15 0 0 20 0 20 15 0 15 0 0 15 0 15 15 0 15 0 0 15 0 15 15 0 15
0 0 15 0 15 20 0 20 0 0 -15z m120 0 l0 -15 20 0 20 0 0 -15 0 -15 15 0 15 0
0 -15 0 -15 15 0 15 0 0 -20 0 -20 -15 0 -15 0 0 -15 0 -15 -15 0 -15 0 0 15
0 15 -20 0 -20 0 0 20 0 20 20 0 20 0 0 15 0 15 -20 0 -20 0 0 -15 0 -15 -15
0 -15 0 0 15 0 15 -15 0 -15 0 0 -15 0 -15 15 0 15 0 0 -20 0 -20 -15 0 -15 0
0 -15 0 -15 -15 0 -15 0 0 15 0 15 -15 0 -15 0 0 20 0 20 15 0 15 0 0 15 0 15
15 0 15 0 0 15 0 15 15 0 15 0 0 15 0 15 15 0 15 0 0 -15z m130 0 l0 -15 15 0
15 0 0 -15 0 -15 -15 0 -15 0 0 -15 0 -15 -15 0 -15 0 0 15 0 15 -15 0 -15 0
0 15 0 15 15 0 15 0 0 15 0 15 15 0 15 0 0 -15z m130 0 l0 -15 15 0 15 0 0
-15 0 -15 -15 0 -15 0 0 -15 0 -15 -15 0 -15 0 0 15 0 15 -15 0 -15 0 0 15 0
15 15 0 15 0 0 15 0 15 15 0 15 0 0 -15z m-700 -60 l0 -15 15 0 15 0 0 -20 0
-20 -15 0 -15 0 0 -15 0 -15 -20 0 -20 0 0 15 0 15 -15 0 -15 0 0 20 0 20 15
0 15 0 0 15 0 15 20 0 20 0 0 -15z m640 0 l0 -15 15 0 15 0 0 -20 0 -20 -15 0
-15 0 0 -15 0 -15 -20 0 -20 0 0 15 0 15 -15 0 -15 0 0 20 0 20 15 0 15 0 0
15 0 15 20 0 20 0 0 -15z m-840 -70 l0 -15 20 0 20 0 0 -15 0 -15 15 0 15 0 0
-15 0 -15 15 0 15 0 0 -15 0 -15 -15 0 -15 0 0 -20 0 -20 -15 0 -15 0 0 -15 0
-15 -20 0 -20 0 0 -15 0 -15 -15 0 -15 0 0 15 0 15 -15 0 -15 0 0 15 0 15 -15
0 -15 0 0 20 0 20 -15 0 -15 0 0 15 0 15 15 0 15 0 0 15 0 15 15 0 15 0 0 15
0 15 15 0 15 0 0 15 0 15 15 0 15 0 0 -15z m130 0 l0 -15 15 0 15 0 0 -15 0
-15 -15 0 -15 0 0 -15 0 -15 -15 0 -15 0 0 15 0 15 -15 0 -15 0 0 15 0 15 15
0 15 0 0 15 0 15 15 0 15 0 0 -15z m130 0 l0 -15 15 0 15 0 0 -15 0 -15 -15 0
-15 0 0 -15 0 -15 -15 0 -15 0 0 15 0 15 -15 0 -15 0 0 15 0 15 15 0 15 0 0
15 0 15 15 0 15 0 0 -15z m130 0 l0 -15 15 0 15 0 0 -15 0 -15 -15 0 -15 0 0
-15 0 -15 -15 0 -15 0 0 15 0 15 -20 0 -20 0 0 -15 0 -15 20 0 20 0 0 -15 0
-15 15 0 15 0 0 -20 0 -20 15 0 15 0 0 -15 0 -15 -15 0 -15 0 0 -15 0 -15 -15
0 -15 0 0 15 0 15 -20 0 -20 0 0 15 0 15 -15 0 -15 0 0 20 0 20 -15 0 -15 0 0
-20 0 -20 15 0 15 0 0 -15 0 -15 -15 0 -15 0 0 -15 0 -15 -15 0 -15 0 0 15 0
15 -15 0 -15 0 0 15 0 15 15 0 15 0 0 20 0 20 -15 0 -15 0 0 -20 0 -20 -20 0
-20 0 0 20 0 20 -15 0 -15 0 0 -20 0 -20 15 0 15 0 0 -15 0 -15 -15 0 -15 0 0
-15 0 -15 -15 0 -15 0 0 15 0 15 -15 0 -15 0 0 15 0 15 15 0 15 0 0 20 0 20
15 0 15 0 0 15 0 15 15 0 15 0 0 15 0 15 20 0 20 0 0 -15 0 -15 15 0 15 0 0
-15 0 -15 15 0 15 0 0 15 0 15 15 0 15 0 0 15 0 15 15 0 15 0 0 15 0 15 20 0
20 0 0 15 0 15 15 0 15 0 0 -15z m130 0 l0 -15 15 0 15 0 0 -15 0 -15 -15 0
-15 0 0 -15 0 -15 -20 0 -20 0 0 15 0 15 -15 0 -15 0 0 -15 0 -15 15 0 15 0 0
-15 0 -15 -15 0 -15 0 0 -20 0 -20 15 0 15 0 0 20 0 20 20 0 20 0 0 -20 0 -20
15 0 15 0 0 -15 0 -15 -15 0 -15 0 0 -15 0 -15 -20 0 -20 0 0 15 0 15 -15 0
-15 0 0 15 0 15 -15 0 -15 0 0 20 0 20 -15 0 -15 0 0 15 0 15 15 0 15 0 0 15
0 15 15 0 15 0 0 15 0 15 15 0 15 0 0 15 0 15 20 0 20 0 0 -15z m120 0 l0 -15
20 0 20 0 0 -15 0 -15 15 0 15 0 0 -15 0 -15 15 0 15 0 0 -15 0 -15 -15 0 -15
0 0 -20 0 -20 -15 0 -15 0 0 -15 0 -15 -20 0 -20 0 0 -15 0 -15 -15 0 -15 0 0
15 0 15 -15 0 -15 0 0 15 0 15 -15 0 -15 0 0 20 0 20 -15 0 -15 0 0 15 0 15
15 0 15 0 0 15 0 15 15 0 15 0 0 15 0 15 15 0 15 0 0 15 0 15 15 0 15 0 0 -15z
m130 0 l0 -15 15 0 15 0 0 -15 0 -15 -15 0 -15 0 0 -15 0 -15 -15 0 -15 0 0
15 0 15 -15 0 -15 0 0 15 0 15 15 0 15 0 0 15 0 15 15 0 15 0 0 -15z m70 -60
l0 -15 15 0 15 0 0 -15 0 -15 15 0 15 0 0 -20 0 -20 15 0 15 0 0 -15 0 -15
-15 0 -15 0 0 -15 0 -15 -15 0 -15 0 0 15 0 15 -15 0 -15 0 0 15 0 15 15 0 15
0 0 20 0 20 -15 0 -15 0 0 -20 0 -20 -20 0 -20 0 0 20 0 20 -15 0 -15 0 0 -20
0 -20 15 0 15 0 0 -15 0 -15 -15 0 -15 0 0 -15 0 -15 -15 0 -15 0 0 15 0 15
-15 0 -15 0 0 15 0 15 15 0 15 0 0 20 0 20 15 0 15 0 0 15 0 15 15 0 15 0 0
15 0 15 20 0 20 0 0 -15z m-900 -130 l0 -15 15 0 15 0 0 -15 0 -15 -15 0 -15
0 0 -15 0 -15 -15 0 -15 0 0 15 0 15 -15 0 -15 0 0 15 0 15 15 0 15 0 0 15 0
15 15 0 15 0 0 -15z m130 0 l0 -15 15 0 15 0 0 -15 0 -15 -15 0 -15 0 0 -15 0
-15 -15 0 -15 0 0 15 0 15 -20 0 -20 0 0 -15 0 -15 20 0 20 0 0 -20 0 -20 -20
0 -20 0 0 -15 0 -15 20 0 20 0 0 15 0 15 15 0 15 0 0 -15 0 -15 15 0 15 0 0
-15 0 -15 -15 0 -15 0 0 -15 0 -15 -15 0 -15 0 0 15 0 15 -20 0 -20 0 0 15 0
15 -15 0 -15 0 0 15 0 15 -15 0 -15 0 0 20 0 20 15 0 15 0 0 15 0 15 15 0 15
0 0 15 0 15 20 0 20 0 0 15 0 15 15 0 15 0 0 -15z m130 0 l0 -15 15 0 15 0 0
-15 0 -15 -15 0 -15 0 0 -15 0 -15 -20 0 -20 0 0 15 0 15 -15 0 -15 0 0 -15 0
-15 15 0 15 0 0 -20 0 -20 -15 0 -15 0 0 -15 0 -15 -15 0 -15 0 0 15 0 15 -15
0 -15 0 0 20 0 20 15 0 15 0 0 15 0 15 15 0 15 0 0 15 0 15 15 0 15 0 0 15 0
15 20 0 20 0 0 -15z m120 0 l0 -15 20 0 20 0 0 -15 0 -15 15 0 15 0 0 -15 0
-15 15 0 15 0 0 -20 0 -20 -15 0 -15 0 0 -15 0 -15 -15 0 -15 0 0 -15 0 -15
-20 0 -20 0 0 -15 0 -15 -15 0 -15 0 0 15 0 15 -15 0 -15 0 0 15 0 15 15 0 15
0 0 15 0 15 15 0 15 0 0 -15 0 -15 20 0 20 0 0 15 0 15 -20 0 -20 0 0 20 0 20
20 0 20 0 0 15 0 15 -20 0 -20 0 0 -15 0 -15 -15 0 -15 0 0 15 0 15 -15 0 -15
0 0 -15 0 -15 15 0 15 0 0 -20 0 -20 -15 0 -15 0 0 -15 0 -15 -15 0 -15 0 0
15 0 15 -15 0 -15 0 0 20 0 20 15 0 15 0 0 15 0 15 15 0 15 0 0 15 0 15 15 0
15 0 0 15 0 15 15 0 15 0 0 -15z m130 0 l0 -15 15 0 15 0 0 -15 0 -15 -15 0
-15 0 0 -15 0 -15 -15 0 -15 0 0 15 0 15 -15 0 -15 0 0 15 0 15 15 0 15 0 0
15 0 15 15 0 15 0 0 -15z m130 0 l0 -15 15 0 15 0 0 -15 0 -15 -15 0 -15 0 0
-15 0 -15 -15 0 -15 0 0 15 0 15 -15 0 -15 0 0 15 0 15 15 0 15 0 0 15 0 15
15 0 15 0 0 -15z m130 0 l0 -15 15 0 15 0 0 -15 0 -15 -15 0 -15 0 0 -15 0
-15 -15 0 -15 0 0 15 0 15 -20 0 -20 0 0 -15 0 -15 20 0 20 0 0 -20 0 -20 -20
0 -20 0 0 -15 0 -15 20 0 20 0 0 15 0 15 15 0 15 0 0 -15 0 -15 15 0 15 0 0
-15 0 -15 -15 0 -15 0 0 -15 0 -15 -15 0 -15 0 0 15 0 15 -20 0 -20 0 0 15 0
15 -15 0 -15 0 0 15 0 15 -15 0 -15 0 0 20 0 20 15 0 15 0 0 15 0 15 15 0 15
0 0 15 0 15 20 0 20 0 0 15 0 15 15 0 15 0 0 -15z m130 0 l0 -15 15 0 15 0 0
-15 0 -15 15 0 15 0 0 -15 0 -15 15 0 15 0 0 -20 0 -20 -15 0 -15 0 0 -15 0
-15 -15 0 -15 0 0 15 0 15 -15 0 -15 0 0 20 0 20 15 0 15 0 0 15 0 15 -15 0
-15 0 0 -15 0 -15 -20 0 -20 0 0 15 0 15 -15 0 -15 0 0 -15 0 -15 15 0 15 0 0
-20 0 -20 -15 0 -15 0 0 -15 0 -15 -15 0 -15 0 0 15 0 15 -15 0 -15 0 0 20 0
20 15 0 15 0 0 15 0 15 15 0 15 0 0 15 0 15 15 0 15 0 0 15 0 15 20 0 20 0 0
-15z m-320 -60 l0 -15 15 0 15 0 0 -20 0 -20 -15 0 -15 0 0 -15 0 -15 -20 0
-20 0 0 15 0 15 -15 0 -15 0 0 20 0 20 15 0 15 0 0 15 0 15 20 0 20 0 0 -15z
m-320 -70 l0 -15 15 0 15 0 0 -15 0 -15 15 0 15 0 0 -15 0 -15 15 0 15 0 0
-15 0 -15 -15 0 -15 0 0 -20 0 -20 -15 0 -15 0 0 20 0 20 -15 0 -15 0 0 15 0
15 15 0 15 0 0 15 0 15 -15 0 -15 0 0 -15 0 -15 -20 0 -20 0 0 15 0 15 -15 0
-15 0 0 -15 0 -15 15 0 15 0 0 -15 0 -15 -15 0 -15 0 0 -20 0 -20 -15 0 -15 0
0 20 0 20 -15 0 -15 0 0 15 0 15 15 0 15 0 0 15 0 15 15 0 15 0 0 15 0 15 15
0 15 0 0 15 0 15 20 0 20 0 0 -15z m250 0 l0 -15 15 0 15 0 0 -15 0 -15 -15 0
-15 0 0 -15 0 -15 15 0 15 0 0 15 0 15 20 0 20 0 0 -15 0 -15 15 0 15 0 0 15
0 15 -15 0 -15 0 0 15 0 15 15 0 15 0 0 15 0 15 15 0 15 0 0 -15 0 -15 15 0
15 0 0 -15 0 -15 -15 0 -15 0 0 -15 0 -15 -15 0 -15 0 0 -15 0 -15 -15 0 -15
0 0 -20 0 -20 -20 0 -20 0 0 20 0 20 -15 0 -15 0 0 15 0 15 -15 0 -15 0 0 15
0 15 -15 0 -15 0 0 15 0 15 15 0 15 0 0 15 0 15 15 0 15 0 0 -15z m390 0 l0
-15 15 0 15 0 0 -15 0 -15 15 0 15 0 0 -15 0 -15 15 0 15 0 0 -15 0 -15 -15 0
-15 0 0 -20 0 -20 -15 0 -15 0 0 20 0 20 -15 0 -15 0 0 15 0 15 15 0 15 0 0
15 0 15 -15 0 -15 0 0 -15 0 -15 -20 0 -20 0 0 15 0 15 -15 0 -15 0 0 -15 0
-15 15 0 15 0 0 -15 0 -15 -15 0 -15 0 0 -20 0 -20 -15 0 -15 0 0 20 0 20 -15
0 -15 0 0 15 0 15 15 0 15 0 0 15 0 15 15 0 15 0 0 15 0 15 15 0 15 0 0 15 0
15 20 0 20 0 0 -15z"/>
<path d="M1180 1040 l0 -20 20 0 20 0 0 20 0 20 -20 0 -20 0 0 -20z"/>
<path d="M1180 720 l0 -20 20 0 20 0 0 20 0 20 -20 0 -20 0 0 -20z"/>
<path d="M160 1105 l0 -15 15 0 15 0 0 -15 0 -15 -15 0 -15 0 0 -20 0 -20 15
0 15 0 0 20 0 20 15 0 15 0 0 15 0 15 20 0 20 0 0 15 0 15 -20 0 -20 0 0 -15
0 -15 -15 0 -15 0 0 15 0 15 -15 0 -15 0 0 -15z"/>
<path d="M220 1040 l0 -20 20 0 20 0 0 20 0 20 -20 0 -20 0 0 -20z"/>
<path d="M540 1040 l0 -20 20 0 20 0 0 20 0 20 -20 0 -20 0 0 -20z"/>
<path d="M800 1105 l0 -15 15 0 15 0 0 -15 0 -15 -15 0 -15 0 0 -20 0 -20 15
0 15 0 0 20 0 20 15 0 15 0 0 15 0 15 20 0 20 0 0 15 0 15 -20 0 -20 0 0 -15
0 -15 -15 0 -15 0 0 15 0 15 -15 0 -15 0 0 -15z"/>
<path d="M860 1040 l0 -20 20 0 20 0 0 20 0 20 -20 0 -20 0 0 -20z"/>
<path d="M220 720 l0 -20 20 0 20 0 0 20 0 20 -20 0 -20 0 0 -20z"/>
<path d="M480 785 l0 -15 15 0 15 0 0 -15 0 -15 -15 0 -15 0 0 -20 0 -20 15 0
15 0 0 20 0 20 15 0 15 0 0 15 0 15 20 0 20 0 0 15 0 15 -20 0 -20 0 0 -15 0
-15 -15 0 -15 0 0 15 0 15 -15 0 -15 0 0 -15z"/>
<path d="M540 720 l0 -20 20 0 20 0 0 20 0 20 -20 0 -20 0 0 -20z"/>
<path d="M860 720 l0 -20 20 0 20 0 0 20 0 20 -20 0 -20 0 0 -20z"/>
<path d="M990 785 l0 -15 15 0 15 0 0 -15 0 -15 -15 0 -15 0 0 -20 0 -20 15 0
15 0 0 20 0 20 20 0 20 0 0 -20 0 -20 15 0 15 0 0 20 0 20 -15 0 -15 0 0 15 0
15 15 0 15 0 0 15 0 15 -15 0 -15 0 0 -15 0 -15 -20 0 -20 0 0 15 0 15 -15 0
-15 0 0 -15z"/>
<path d="M160 465 l0 -15 15 0 15 0 0 -15 0 -15 -15 0 -15 0 0 -20 0 -20 15 0
15 0 0 20 0 20 15 0 15 0 0 15 0 15 20 0 20 0 0 15 0 15 -20 0 -20 0 0 -15 0
-15 -15 0 -15 0 0 15 0 15 -15 0 -15 0 0 -15z"/>
<path d="M220 400 l0 -20 20 0 20 0 0 20 0 20 -20 0 -20 0 0 -20z"/>
<path d="M540 400 l0 -20 20 0 20 0 0 20 0 20 -20 0 -20 0 0 -20z"/>
<path d="M800 465 l0 -15 15 0 15 0 0 -15 0 -15 -15 0 -15 0 0 -20 0 -20 15 0
15 0 0 20 0 20 15 0 15 0 0 15 0 15 20 0 20 0 0 15 0 15 -20 0 -20 0 0 -15 0
-15 -15 0 -15 0 0 15 0 15 -15 0 -15 0 0 -15z"/>
<path d="M860 400 l0 -20 20 0 20 0 0 20 0 20 -20 0 -20 0 0 -20z"/>
<path d="M1180 400 l0 -20 20 0 20 0 0 20 0 20 -20 0 -20 0 0 -20z"/>
<path d="M220 80 l0 -20 20 0 20 0 0 20 0 20 -20 0 -20 0 0 -20z"/>
<path d="M540 80 l0 -20 20 0 20 0 0 20 0 20 -20 0 -20 0 0 -20z"/>
<path d="M860 80 l0 -20 20 0 20 0 0 20 0 20 -20 0 -20 0 0 -20z"/>
<path d="M1180 80 l0 -20 20 0 20 0 0 20 0 20 -20 0 -20 0 0 -20z"/>
</g>
</svg>
