<?xml version="1.0" standalone="no"?>
<!DOCTYPE svg PUBLIC "-//W3C//DTD SVG 20010904//EN"
 "http://www.w3.org/TR/2001/REC-SVG-20010904/DTD/svg10.dtd">
<svg version="1.0" xmlns="http://www.w3.org/2000/svg"
 width="468pt" height="468pt" viewBox="0 0 468 468"
 preserveAspectRatio="xMidYMid meet">
<metadata>
Created by potrace 1.8, written by Peter Selinger 2001-2007
</metadata>
<g transform="translate(0,468) scale(0.365625,-0.365625)"
fill="#000000" stroke="none">
<path d="M960 1190 l0 -10 -120 0 -120 0 0 -160 0 -160 -8 0 -8 0 -14 20 -14
20 -38 0 -38 0 0 -10 0 -10 35 0 36 0 34 -35 35 -34 0 -16 0 -15 -10 0 -10 0
0 -20 0 -20 -6 0 -5 0 -15 14 -14 15 0 35 0 36 -29 0 -29 0 -6 -12 -6 -13 -6
13 -6 12 -29 0 -29 0 0 -30 0 -30 10 0 10 0 0 -15 0 -16 45 -44 44 -45 11 0
11 0 24 -25 25 -24 0 -186 0 -185 -160 0 -160 0 0 10 0 10 -40 0 -40 0 0 20 0
20 -10 0 -10 0 0 50 0 50 46 0 45 0 15 14 14 15 0 75 0 76 -10 0 -10 0 0 20 0
20 -10 0 -10 0 0 30 0 30 -10 0 -10 0 0 -80 0 -80 10 0 10 0 0 20 0 20 10 0
10 0 0 -46 0 -45 -14 -15 -15 -14 -115 0 -116 0 0 -20 0 -20 60 0 60 0 0 -50
0 -50 -10 0 -10 0 0 -20 0 -20 -40 0 -40 0 0 -10 0 -10 -30 0 -30 0 0 140 0
140 100 0 100 0 0 20 0 20 -70 0 -70 0 0 30 0 30 -80 0 -80 0 0 -310 0 -310
640 0 640 0 0 120 0 120 -20 0 -20 0 0 470 0 470 -110 0 -110 0 0 10 0 10 -30
0 -30 0 0 -10z m0 -40 l0 -10 -100 0 -100 0 0 -160 0 -160 -6 0 -5 0 -17 17
-17 16 13 5 12 4 0 149 0 149 110 0 110 0 0 -10z m260 -450 l0 -460 -10 0 -10
0 0 450 0 450 -30 0 -30 0 0 10 0 10 40 0 40 0 0 -460z m-160 430 l0 -10 40 0
40 0 0 -10 0 -10 20 0 20 0 0 -430 0 -430 -90 0 -90 0 0 450 0 450 30 0 30 0
0 -10z m-100 -60 l0 -50 -56 0 -55 0 -15 -14 -14 -15 0 -51 0 -51 14 -15 15
-14 11 0 11 0 15 -14 14 -15 0 -5 0 -6 -25 0 -26 0 -26 -26 -25 -25 6 -6 6 -6
19 21 18 22 27 0 26 0 0 10 0 10 30 0 30 0 0 -110 0 -110 -40 0 -40 0 0 10 0
10 -20 0 -20 0 0 60 0 60 -10 0 -10 0 0 -25 0 -26 -25 -24 -24 -25 -31 0 -31
0 -35 35 -35 35 17 18 17 17 5 -13 4 -12 19 0 19 0 0 -10 0 -10 26 0 25 0 15
14 14 15 0 15 0 16 -10 0 -10 0 0 180 0 180 90 0 90 0 0 -50z m0 -96 l0 -5
-17 -17 -16 -17 -5 13 -4 12 -19 0 -19 0 0 -10 0 -10 19 0 19 0 6 -12 6 -13 6
13 6 12 9 0 9 0 0 -20 0 -20 -29 0 -29 0 -5 13 -4 12 -8 -7 -7 -7 15 -16 16
-15 25 0 26 0 0 -20 0 -20 -25 0 -26 0 -24 25 -25 24 0 16 0 15 -10 0 -10 0 0
15 0 16 13 14 12 14 48 1 47 0 0 -6z m-350 -174 l14 -20 8 0 8 0 0 20 0 20 10
0 10 0 0 -26 0 -25 -14 -15 -15 -14 -11 0 -11 0 -24 25 -25 24 0 16 0 15 18 0
18 0 14 -20z m150 -50 l0 -30 -10 0 -10 0 0 30 0 30 10 0 10 0 0 -30z m60
-170 l0 -80 10 0 10 0 0 -99 0 -99 13 -6 12 -6 -12 -6 -13 -6 0 -19 0 -19 -30
0 -30 0 0 195 0 196 13 14 12 14 8 1 7 0 0 -80z m-60 -150 l0 -190 -10 0 -10
0 0 190 0 190 10 0 10 0 0 -190z m-620 150 l0 -20 -60 0 -60 0 0 20 0 20 60 0
60 0 0 -20z m740 10 l0 -10 40 0 40 0 0 -130 0 -130 -10 0 -10 0 0 90 0 90
-10 0 -10 0 0 -90 0 -90 -30 0 -30 0 0 90 0 90 -10 0 -10 0 0 50 0 50 20 0 20
0 0 -10z m-800 -210 l0 -140 -30 0 -30 0 0 140 0 140 30 0 30 0 0 -140z m866
-94 l14 -15 0 -15 0 -16 -10 0 -10 0 0 20 0 20 -10 0 -10 0 0 -20 0 -20 -30 0
-30 0 0 20 0 20 30 0 30 0 0 10 0 10 6 0 5 0 15 -14z"/>
<path d="M1020 850 l0 -110 60 0 60 0 0 100 0 100 -30 0 -30 0 0 10 0 10 -30
0 -30 0 0 -110z m46 56 l14 -15 0 -65 0 -66 -20 0 -20 0 0 80 0 80 6 0 5 0 15
-14z m54 -76 l0 -70 -10 0 -10 0 0 70 0 70 10 0 10 0 0 -70z"/>
<path d="M1032 624 l-13 -14 15 -15 15 -15 25 0 26 0 0 10 0 10 20 0 20 0 0 6
0 5 -14 15 -15 14 -33 0 -33 -1 -13 -15z m48 -14 l0 -10 -20 0 -20 0 0 10 0
10 20 0 20 0 0 -10z"/>
<path d="M0 740 l0 -100 80 0 80 0 0 20 0 20 10 0 10 0 0 66 0 65 -14 15 -15
14 -75 0 -76 0 0 -100z m140 0 l0 -80 -60 0 -60 0 0 80 0 80 60 0 60 0 0 -80z"/>
<path d="M500 770 l0 -30 10 0 10 0 0 -20 0 -20 20 0 20 0 0 -10 0 -10 20 0
20 0 0 10 0 10 -15 0 -16 0 -24 25 -25 24 0 26 0 25 -10 0 -10 0 0 -30z"/>
<path d="M440 730 l0 -30 10 0 10 0 0 -16 0 -15 14 -15 15 -14 15 0 16 0 0
-10 0 -10 20 0 20 0 0 10 0 10 -15 0 -16 0 -34 35 -35 34 0 26 0 25 -10 0 -10
0 0 -30z"/>
</g>
</svg>
