<?xml version="1.0" standalone="no"?>
<!DOCTYPE svg PUBLIC "-//W3C//DTD SVG 20010904//EN"
 "http://www.w3.org/TR/2001/REC-SVG-20010904/DTD/svg10.dtd">
<svg version="1.0" xmlns="http://www.w3.org/2000/svg"
 width="468pt" height="468pt" viewBox="0 0 468 468"
 preserveAspectRatio="xMidYMid meet">
<metadata>
Created by potrace 1.8, written by Peter Selinger 2001-2007
</metadata>
<g transform="translate(0,468) scale(0.365625,-0.365625)"
fill="#000000" stroke="none">
<path d="M480 1260 l0 -20 -20 0 -20 0 0 -60 0 -60 20 0 20 0 0 -20 0 -20 -20
0 -20 0 0 -20 0 -20 -20 0 -20 0 0 -120 0 -120 20 0 20 0 0 -20 0 -20 20 0 20
0 0 -40 0 -40 20 0 20 0 0 -20 0 -20 20 0 20 0 0 -20 0 -20 20 0 20 0 0 -20 0
-20 -20 0 -20 0 0 -40 0 -40 -20 0 -20 0 0 -60 0 -60 20 0 20 0 0 -20 0 -20
-20 0 -20 0 0 -20 0 -20 -20 0 -20 0 0 -20 0 -20 20 0 20 0 0 20 0 20 40 0 40
0 0 -20 0 -20 20 0 20 0 0 -60 0 -60 -140 0 -140 0 0 80 0 80 -20 0 -20 0 0
20 0 20 80 0 80 0 0 160 0 160 -20 0 -20 0 0 20 0 20 -100 0 -100 0 0 20 0 20
-20 0 -20 0 0 20 0 20 -80 0 -80 0 0 -20 0 -20 -20 0 -20 0 0 -200 0 -200 100
0 100 0 0 -20 0 -20 -20 0 -20 0 0 -80 0 -80 -40 0 -40 0 0 -20 0 -20 40 0 40
0 0 20 0 20 20 0 20 0 0 20 0 20 20 0 20 0 0 -40 0 -40 -20 0 -20 0 0 -20 0
-20 -60 0 -60 0 0 -20 0 -20 60 0 60 0 0 20 0 20 20 0 20 0 0 20 0 20 20 0 20
0 0 -20 0 -20 20 0 20 0 0 -20 0 -20 440 0 440 0 0 20 0 20 -440 0 -440 0 0
20 0 20 -20 0 -20 0 0 40 0 40 20 0 20 0 0 -20 0 -20 20 0 20 0 0 -20 0 -20
420 0 420 0 0 20 0 20 -120 0 -120 0 0 80 0 80 20 0 20 0 0 20 0 20 20 0 20 0
0 20 0 20 20 0 20 0 0 20 0 20 20 0 20 0 0 20 0 20 20 0 20 0 0 40 0 40 40 0
40 0 0 -40 0 -40 -20 0 -20 0 0 -20 0 -20 -20 0 -20 0 0 -40 0 -40 -20 0 -20
0 0 -40 0 -40 -20 0 -20 0 0 20 0 20 -20 0 -20 0 0 -20 0 -20 20 0 20 0 0 -20
0 -20 20 0 20 0 0 -20 0 -20 20 0 20 0 0 20 0 20 20 0 20 0 0 20 0 20 20 0 20
0 0 20 0 20 -20 0 -20 0 0 -20 0 -20 -20 0 -20 0 0 40 0 40 20 0 20 0 0 40 0
40 20 0 20 0 0 20 0 20 20 0 20 0 0 40 0 40 -20 0 -20 0 0 20 0 20 -40 0 -40
0 0 -20 0 -20 -20 0 -20 0 0 -40 0 -40 -20 0 -20 0 0 -20 0 -20 -20 0 -20 0 0
-20 0 -20 -20 0 -20 0 0 120 0 120 40 0 40 0 0 20 0 20 40 0 40 0 0 -20 0 -20
40 0 40 0 0 20 0 20 20 0 20 0 0 20 0 20 -20 0 -20 0 0 -20 0 -20 -40 0 -40 0
0 20 0 20 20 0 20 0 0 20 0 20 20 0 20 0 0 20 0 20 20 0 20 0 0 20 0 20 -20 0
-20 0 0 -20 0 -20 -20 0 -20 0 0 -20 0 -20 -20 0 -20 0 0 40 0 40 20 0 20 0 0
20 0 20 -20 0 -20 0 0 -20 0 -20 -20 0 -20 0 0 -60 0 -60 -20 0 -20 0 0 -20 0
-20 -40 0 -40 0 0 40 0 40 20 0 20 0 0 260 0 260 -20 0 -20 0 0 20 0 20 -40 0
-40 0 0 -20 0 -20 20 0 20 0 0 -20 0 -20 -20 0 -20 0 0 -20 0 -20 -20 0 -20 0
0 20 0 20 -20 0 -20 0 0 20 0 20 -100 0 -100 0 0 -20 0 -20 -20 0 -20 0 0 -20
0 -20 -20 0 -20 0 0 20 0 20 -20 0 -20 0 0 20 0 20 20 0 20 0 0 20 0 20 -40 0
-40 0 0 -20z m40 -80 l0 -20 20 0 20 0 0 -20 0 -20 20 0 20 0 0 20 0 20 20 0
20 0 0 20 0 20 100 0 100 0 0 -20 0 -20 20 0 20 0 0 -20 0 -20 20 0 20 0 0 20
0 20 20 0 20 0 0 20 0 20 20 0 20 0 0 -60 0 -60 -20 0 -20 0 0 -20 0 -20 20 0
20 0 0 -160 0 -160 -20 0 -20 0 0 -40 0 -40 -20 0 -20 0 0 -20 0 -20 20 0 20
0 0 -60 0 -60 -20 0 -20 0 0 -20 0 -20 20 0 20 0 0 -60 0 -60 -20 0 -20 0 0
-100 0 -100 -60 0 -60 0 0 60 0 60 -20 0 -20 0 0 -60 0 -60 -40 0 -40 0 0 60
0 60 -20 0 -20 0 0 20 0 20 -20 0 -20 0 0 20 0 20 40 0 40 0 0 20 0 20 -40 0
-40 0 0 20 0 20 -20 0 -20 0 0 40 0 40 60 0 60 0 0 20 0 20 -40 0 -40 0 0 20
0 20 100 0 100 0 0 -20 0 -20 20 0 20 0 0 20 0 20 40 0 40 0 0 20 0 20 -60 0
-60 0 0 20 0 20 -20 0 -20 0 0 -20 0 -20 -80 0 -80 0 0 20 0 20 20 0 20 0 0
20 0 20 -60 0 -60 0 0 40 0 40 60 0 60 0 0 -40 0 -40 20 0 20 0 0 40 0 40 20
0 20 0 0 20 0 20 -60 0 -60 0 0 40 0 40 40 0 40 0 0 60 0 60 -40 0 -40 0 0 20
0 20 20 0 20 0 0 20 0 20 40 0 40 0 0 20 0 20 40 0 40 0 0 20 0 20 -60 0 -60
0 0 -20 0 -20 -40 0 -40 0 0 -20 0 -20 -20 0 -20 0 0 -140 0 -140 -60 0 -60 0
0 40 0 40 40 0 40 0 0 60 0 60 -40 0 -40 0 0 20 0 20 20 0 20 0 0 20 0 20 40
0 40 0 0 20 0 20 -40 0 -40 0 0 40 0 40 20 0 20 0 0 -20z m-320 -480 l0 -20
-80 0 -80 0 0 20 0 20 80 0 80 0 0 -20z m240 -200 l0 -140 -200 0 -200 0 0
140 0 140 200 0 200 0 0 -140z m-160 -200 l0 -20 -20 0 -20 0 0 20 0 20 20 0
20 0 0 -20z m40 -80 l0 -20 -60 0 -60 0 0 20 0 20 60 0 60 0 0 -20z"/>
<path d="M800 1100 l0 -20 20 0 20 0 0 -140 0 -140 -40 0 -40 0 0 20 0 20 20
0 20 0 0 100 0 100 -20 0 -20 0 0 20 0 20 -20 0 -20 0 0 -20 0 -20 20 0 20 0
0 -100 0 -100 -20 0 -20 0 0 -20 0 -20 20 0 20 0 0 -20 0 -20 40 0 40 0 0 20
0 20 20 0 20 0 0 140 0 140 -20 0 -20 0 0 20 0 20 -20 0 -20 0 0 -20z"/>
<path d="M920 1100 l0 -20 20 0 20 0 0 20 0 20 -20 0 -20 0 0 -20z"/>
<path d="M760 700 l0 -20 20 0 20 0 0 -20 0 -20 20 0 20 0 0 20 0 20 20 0 20
0 0 20 0 20 -60 0 -60 0 0 -20z"/>
<path d="M760 500 l0 -20 -40 0 -40 0 0 -60 0 -60 20 0 20 0 0 40 0 40 40 0
40 0 0 -20 0 -20 60 0 60 0 0 20 0 20 -60 0 -60 0 0 40 0 40 -20 0 -20 0 0
-20z"/>
<path d="M760 340 l0 -20 20 0 20 0 0 20 0 20 -20 0 -20 0 0 -20z"/>
<path d="M280 580 l0 -20 -20 0 -20 0 0 -20 0 -20 -20 0 -20 0 0 -20 0 -20
-20 0 -20 0 0 -20 0 -20 -20 0 -20 0 0 -20 0 -20 20 0 20 0 0 20 0 20 20 0 20
0 0 20 0 20 20 0 20 0 0 20 0 20 20 0 20 0 0 20 0 20 20 0 20 0 0 20 0 20 -20
0 -20 0 0 -20z"/>
<path d="M240 420 l0 -20 20 0 20 0 0 20 0 20 -20 0 -20 0 0 -20z"/>
<path d="M320 420 l0 -20 20 0 20 0 0 20 0 20 -20 0 -20 0 0 -20z"/>
<path d="M0 100 l0 -20 20 0 20 0 0 20 0 20 -20 0 -20 0 0 -20z"/>
<path d="M1240 100 l0 -20 20 0 20 0 0 20 0 20 -20 0 -20 0 0 -20z"/>
<path d="M0 20 l0 -20 20 0 20 0 0 20 0 20 -20 0 -20 0 0 -20z"/>
<path d="M1240 20 l0 -20 20 0 20 0 0 20 0 20 -20 0 -20 0 0 -20z"/>
</g>
</svg>
