<?xml version="1.0" standalone="no"?>
<!DOCTYPE svg PUBLIC "-//W3C//DTD SVG 20010904//EN"
 "http://www.w3.org/TR/2001/REC-SVG-20010904/DTD/svg10.dtd">
<svg version="1.0" xmlns="http://www.w3.org/2000/svg"
 width="468pt" height="468pt" viewBox="0 0 468 468"
 preserveAspectRatio="xMidYMid meet">
<metadata>
Created by potrace 1.8, written by Peter Selinger 2001-2007
</metadata>
<g transform="translate(0,468) scale(0.365625,-0.365625)"
fill="#000000" stroke="none">
<path d="M371 1084 l-14 -16 14 -9 13 -8 -8 -8 -9 -8 -4 13 -5 12 -19 0 -19 0
0 -10 0 -10 -30 0 -30 0 0 10 0 10 -20 0 -20 0 0 10 0 10 -16 0 -15 0 -15 -14
-14 -15 0 -11 0 -11 27 -27 27 -26 4 12 4 12 19 0 19 0 0 10 0 10 20 0 20 0 0
-9 0 -9 -12 -5 -13 -4 8 -9 8 -8 9 13 8 14 17 -16 16 -17 -17 -17 -17 -18 -5
13 -4 12 -19 0 -19 0 0 10 0 10 -20 0 -20 0 0 -10 0 -10 -50 0 -50 0 0 10 0
10 -20 0 -20 0 0 -30 0 -30 10 0 10 0 0 -20 0 -20 10 0 10 0 0 -15 0 -15 55
-55 55 -55 15 0 15 0 0 -10 0 -10 40 0 40 0 0 20 0 20 -10 0 -10 0 0 56 0 55
15 16 16 15 18 -21 18 -21 14 0 15 0 14 -20 14 -20 16 0 16 0 14 -20 14 -20
14 0 13 0 15 -15 15 -15 -15 -15 -15 -15 -13 0 -14 0 -14 -20 -14 -20 -16 0
-16 0 -14 -20 -14 -20 -16 0 -16 0 -14 -20 -14 -20 -16 0 -16 0 -14 -20 -14
-20 -16 0 -16 0 -14 -20 -14 -20 -16 0 -16 0 -14 -20 -14 -20 -18 0 -18 0 0
-10 0 -10 -20 0 -20 0 0 -10 0 -10 -16 0 -15 0 -15 -14 -14 -15 0 -21 0 -21
14 -15 15 -14 15 0 16 0 0 10 0 10 18 0 18 0 14 20 14 20 16 0 16 0 14 20 14
20 16 0 16 0 14 20 14 20 16 0 16 0 14 20 14 20 16 0 16 0 14 20 14 20 16 0
16 0 14 20 14 20 16 0 16 0 14 20 14 20 18 0 18 0 0 10 0 10 18 0 18 0 14 20
14 20 16 0 16 0 14 -20 14 -20 18 0 18 0 0 -10 0 -10 18 0 18 0 14 -20 14 -20
16 0 16 0 14 -20 14 -20 16 0 16 0 14 -20 14 -20 16 0 16 0 14 -20 14 -20 16
0 16 0 14 -20 14 -20 16 0 16 0 14 -20 14 -20 16 0 16 0 14 -20 14 -20 18 0
18 0 0 -10 0 -10 16 0 15 0 15 14 14 15 0 21 0 21 -14 15 -15 14 -15 0 -16 0
0 10 0 10 -20 0 -20 0 0 10 0 10 -18 0 -18 0 -14 20 -14 20 -16 0 -16 0 -14
20 -14 20 -16 0 -16 0 -14 20 -14 20 -16 0 -16 0 -14 20 -14 20 -16 0 -16 0
-14 20 -14 20 -16 0 -16 0 -14 20 -14 20 -14 0 -13 0 -15 15 -15 15 15 15 15
15 13 0 14 0 14 20 14 20 16 0 16 0 14 20 14 20 15 0 14 0 18 21 18 21 16 -15
15 -16 0 -55 0 -56 -10 0 -10 0 0 -20 0 -20 40 0 40 0 0 10 0 10 15 0 15 0 55
55 55 55 0 15 0 15 10 0 10 0 0 20 0 20 10 0 10 0 0 30 0 30 -20 0 -20 0 0
-10 0 -10 -50 0 -50 0 0 10 0 10 -20 0 -20 0 0 -10 0 -10 -19 0 -19 0 -4 -12
-5 -13 -17 18 -17 17 16 17 17 16 8 -14 9 -13 8 8 8 9 -12 4 -13 5 0 9 0 9 20
0 20 0 0 -10 0 -10 19 0 19 0 4 -12 4 -12 27 26 27 27 0 11 0 11 -14 15 -15
14 -15 0 -16 0 0 -10 0 -10 -20 0 -20 0 0 -10 0 -10 -30 0 -30 0 0 10 0 10
-19 0 -19 0 -5 -12 -4 -13 -9 8 -8 8 13 9 14 8 -16 16 -16 16 -5 0 -6 0 0 -30
0 -30 10 0 10 0 0 -36 0 -35 -14 -15 -15 -14 -13 0 -14 0 -14 -20 -14 -20 -16
0 -16 0 -14 -20 -14 -20 -16 0 -16 0 -14 -20 -14 -20 -18 0 -18 0 0 -10 0 -10
-20 0 -20 0 0 10 0 10 -18 0 -18 0 -14 20 -14 20 -16 0 -16 0 -14 20 -14 20
-16 0 -16 0 -14 20 -14 20 -14 0 -13 0 -15 14 -14 15 0 35 0 36 10 0 10 0 0
30 0 30 -7 0 -8 -1 -14 -15z m-151 -34 l0 -10 20 0 20 0 0 -10 0 -10 -19 0
-19 0 -4 -12 -5 -13 -17 17 -17 18 13 14 13 15 8 1 7 0 0 -10z m866 -5 l15
-15 -17 -17 -17 -18 -5 13 -4 12 -19 0 -19 0 0 10 0 10 20 0 20 0 0 10 0 10 6
0 5 0 15 -15z m-739 -20 l15 -16 -5 -6 -6 -5 -16 15 -15 16 0 5 0 6 6 0 5 0
16 -15z m613 9 l0 -5 -15 -16 -16 -15 -5 5 -6 6 13 15 14 15 8 1 7 0 0 -6z
m-834 -88 l14 -15 0 -10 0 -11 75 -75 75 -75 15 0 15 0 0 -10 0 -10 -30 0 -30
0 0 10 0 10 -15 0 -16 0 -44 45 -45 44 0 16 0 15 -10 0 -10 0 0 20 0 20 -10 0
-10 0 0 20 0 20 6 0 5 0 15 -14z m264 -6 l14 -20 16 0 16 0 14 -20 14 -20 14
0 13 0 16 -16 16 -16 -14 -8 -13 -9 8 -8 9 -8 4 13 5 12 17 0 17 0 14 -20 14
-20 18 0 18 0 0 -10 0 -10 20 0 20 0 0 10 0 10 18 0 18 0 14 20 14 20 17 0 17
0 5 -12 4 -13 9 8 8 8 -13 9 -14 8 16 16 16 16 13 0 14 0 14 20 14 20 16 0 16
0 14 20 14 20 14 0 13 0 15 -14 14 -15 0 -5 0 -6 -18 0 -18 0 -14 -20 -14 -20
-16 0 -16 0 -14 -20 -14 -20 -16 0 -16 0 -14 -20 -14 -20 -17 0 -17 0 -5 13
-4 12 -9 -8 -8 -8 13 -9 14 -8 -16 -16 -16 -16 -14 0 -15 0 -4 12 -5 13 -17
-18 -17 -17 15 -15 15 -15 14 0 15 0 4 12 5 13 17 -18 17 -17 -15 -15 -15 -15
-13 0 -14 0 -14 20 -14 20 -14 0 -13 0 -17 17 -17 16 13 5 12 4 0 9 0 9 -19 0
-19 0 -4 -12 -5 -13 -18 18 -18 19 14 8 13 9 -8 8 -9 8 -4 -12 -5 -13 -17 0
-17 0 -14 20 -14 20 -16 0 -16 0 -14 20 -14 20 -16 0 -16 0 -14 20 -14 20 -18
0 -18 0 0 5 0 6 13 14 12 14 15 1 16 0 14 -20z m790 0 l0 -20 -10 0 -10 0 0
-20 0 -20 -10 0 -10 0 0 -15 0 -16 -25 -24 -24 -25 -16 0 -15 0 0 -10 0 -10
-19 0 -19 0 -5 13 -5 12 -11 -15 -10 -14 -8 7 -7 8 14 10 15 9 -15 10 -15 10
15 9 14 10 -23 20 -23 20 27 27 27 27 9 -14 9 -14 10 15 10 15 10 -15 10 -15
9 14 9 14 17 -16 16 -17 -16 -17 -17 -16 -8 14 -9 13 -8 -7 -7 -8 14 -9 14 -9
-7 -8 -8 -7 -9 14 -9 14 -8 -7 -7 -8 14 -9 14 -9 -7 -8 -8 -7 -9 14 -9 14 -8
-7 -7 -8 14 -9 14 -9 -7 -8 -8 -7 -9 14 -9 14 -7 -6 -6 -7 16 -16 16 -16 55
55 55 56 0 10 0 11 13 14 12 14 8 1 7 0 0 -20z m-977 -12 l5 -13 11 15 11 15
10 -15 10 -15 9 14 9 14 27 -27 27 -27 -23 -20 -23 -20 14 -10 15 -9 -15 -10
-15 -10 15 -9 14 -10 -6 -6 -7 -7 -66 66 -66 66 13 15 13 14 7 1 6 0 5 -12z
m477 -178 l0 -10 -10 0 -10 0 0 10 0 10 10 0 10 0 0 -10z m-74 -25 l15 -15
-15 -15 -15 -15 -11 0 -11 0 -15 15 -15 15 13 14 13 15 13 1 13 0 15 -15z
m-60 -39 l14 -15 0 -5 0 -6 -18 0 -18 0 -14 -20 -14 -20 -16 0 -16 0 -14 -20
-14 -20 -16 0 -16 0 -14 -20 -14 -20 -16 0 -16 0 -14 -20 -14 -20 -17 0 -17 0
-5 13 -4 12 -9 -8 -8 -8 13 -9 14 -8 -16 -16 -16 -16 -13 0 -14 0 -14 -20 -14
-20 -16 0 -16 0 -14 -20 -14 -20 -17 0 -17 0 -4 -12 -5 -13 -17 17 -17 18 25
25 25 25 16 0 15 0 0 10 0 10 18 0 18 0 14 20 14 20 16 0 16 0 14 20 14 20 17
0 17 0 5 -12 4 -13 9 8 8 8 -13 9 -14 8 16 16 16 16 13 0 14 0 14 20 14 20 17
0 17 0 5 -12 4 -13 9 8 8 8 -13 9 -14 8 16 16 16 16 14 0 15 0 5 -12 4 -13 9
8 8 8 -13 8 -14 9 14 16 14 15 13 1 13 0 15 -14z m241 -2 l16 -16 -14 -8 -13
-9 8 -8 9 -8 4 13 5 12 15 0 14 0 16 -16 16 -16 -14 -8 -13 -9 8 -8 9 -8 4 13
5 12 17 0 17 0 14 -20 14 -20 14 0 13 0 16 -16 16 -16 -14 -8 -13 -9 8 -8 9
-8 4 13 5 12 17 0 17 0 14 -20 14 -20 16 0 16 0 14 -20 14 -20 18 0 18 0 0
-10 0 -10 15 0 16 0 25 -25 25 -25 -17 -18 -17 -17 -5 13 -4 12 -17 0 -17 0
-14 20 -14 20 -16 0 -16 0 -14 20 -14 20 -14 0 -13 0 -16 16 -16 16 14 8 13 9
-8 8 -9 8 -4 -12 -5 -13 -17 0 -17 0 -14 20 -14 20 -16 0 -16 0 -14 20 -14 20
-16 0 -16 0 -14 20 -14 20 -16 0 -16 0 -14 20 -14 20 -18 0 -18 0 0 5 0 6 13
14 12 14 13 1 13 0 16 -16z"/>
<path d="M360 934 l0 -5 15 -16 16 -15 6 5 5 6 -15 16 -16 15 -5 0 -6 0 0 -6z"/>
<path d="M891 924 l-13 -15 6 -6 5 -5 16 15 15 16 0 5 0 6 -7 0 -8 -1 -14 -15z"/>
<path d="M420 894 l0 -5 15 -16 16 -15 6 5 5 6 -15 16 -16 15 -5 0 -6 0 0 -6z"/>
<path d="M831 884 l-13 -15 6 -6 5 -5 16 15 15 16 0 5 0 6 -7 0 -8 -1 -14 -15z"/>
<path d="M992 904 l-13 -14 15 -16 16 -15 26 26 26 26 -6 7 -7 6 -10 -14 -11
-15 -5 13 -5 12 -6 0 -7 -1 -13 -15z m28 -14 l0 -10 -10 0 -10 0 0 10 0 10 10
0 10 0 0 -10z"/>
<path d="M1080 910 l0 -10 10 0 10 0 0 10 0 10 -10 0 -10 0 0 -10z"/>
<path d="M180 915 l0 -6 46 -45 45 -46 7 7 6 6 -14 9 -14 9 23 20 23 20 -17
17 -17 17 -9 -14 -9 -14 -10 15 -10 15 -11 -15 -11 -15 -5 13 -5 12 -9 0 -9 0
0 -5z m63 -27 l5 -13 11 15 10 14 7 -6 6 -7 -16 -16 -16 -16 -15 15 -15 15 0
5 0 6 9 0 9 0 5 -12z"/>
<path d="M371 584 l-13 -15 6 -6 5 -5 16 15 15 16 0 5 0 6 -7 0 -8 -1 -14 -15z"/>
<path d="M191 464 l-13 -15 6 -6 5 -5 16 15 15 16 0 5 0 6 -7 0 -8 -1 -14 -15z"/>
<path d="M120 410 l0 -10 10 0 10 0 0 10 0 10 -10 0 -10 0 0 -10z"/>
<path d="M880 594 l0 -5 15 -16 16 -15 6 5 5 6 -15 16 -16 15 -5 0 -6 0 0 -6z"/>
<path d="M1060 474 l0 -5 15 -16 16 -15 6 5 5 6 -15 16 -16 15 -5 0 -6 0 0 -6z"/>
<path d="M1140 410 l0 -10 10 0 10 0 0 10 0 10 -10 0 -10 0 0 -10z"/>
<path d="M980 690 l0 -10 10 0 10 0 0 10 0 10 -10 0 -10 0 0 -10z"/>
<path d="M972 644 l-13 -14 15 -16 16 -15 16 15 15 16 -15 15 -15 15 -3 0 -3
-1 -13 -15z"/>
<path d="M0 100 l0 -100 640 0 640 0 0 100 0 100 -640 0 -640 0 0 -100z"/>
</g>
</svg>
