<?xml version="1.0" standalone="no"?>
<!DOCTYPE svg PUBLIC "-//W3C//DTD SVG 20010904//EN"
 "http://www.w3.org/TR/2001/REC-SVG-20010904/DTD/svg10.dtd">
<svg version="1.0" xmlns="http://www.w3.org/2000/svg"
 width="468pt" height="468pt" viewBox="0 0 468 468"
 preserveAspectRatio="xMidYMid meet">
<metadata>
Created by potrace 1.8, written by Peter Selinger 2001-2007
</metadata>
<g transform="translate(0,468) scale(0.365625,-0.365625)"
fill="#000000" stroke="none">
<path d="M990 1160 l-14 -20 -18 0 -18 0 0 10 0 10 -70 0 -70 0 0 -10 0 -10
-15 0 -16 0 -44 -45 -45 -44 0 -16 0 -15 -10 0 -10 0 0 -79 0 -79 12 -4 12 -4
-129 -129 -129 -129 -4 12 -4 12 -79 0 -79 0 0 -10 0 -10 -15 0 -16 0 -44 -45
-45 -44 0 -16 0 -15 -10 0 -10 0 0 -80 0 -80 10 0 10 0 0 -15 0 -15 75 -75 75
-75 15 0 15 0 0 -10 0 -10 80 0 80 0 0 10 0 10 15 0 16 0 44 45 45 44 0 16 0
15 10 0 10 0 0 79 0 79 -12 4 -12 4 117 117 117 117 95 0 95 0 0 10 0 10 15 0
16 0 44 45 45 44 0 16 0 15 10 0 10 0 0 70 0 70 -10 0 -10 0 0 30 0 30 10 0
10 0 0 20 0 20 10 0 10 0 0 20 0 20 -10 0 -10 0 0 15 0 16 -25 24 -24 25 -16
0 -15 0 0 10 0 10 -38 0 -38 0 -14 -20z m105 -45 l25 -24 0 -15 0 -14 13 -5
12 -4 -7 -8 -7 -8 -31 33 -31 33 -6 -7 -6 -6 21 -19 22 -18 0 -27 0 -26 -15 0
-16 0 -45 45 -45 45 15 15 15 15 15 0 16 0 0 10 0 10 15 0 16 0 24 -25z m-175
0 l0 -6 -35 -34 -34 -35 -56 0 -55 0 0 5 0 6 33 34 32 34 58 0 57 1 0 -5z
m105 -90 l75 -75 0 -10 0 -11 -35 -35 -35 -34 -85 85 -85 85 32 34 33 35 13 0
12 1 75 -75z m-90 -90 l85 -85 0 -75 0 -75 -9 0 -9 0 -5 13 -5 12 -11 -15 -11
-15 -10 15 -10 15 -10 -15 -10 -15 -10 15 -10 15 -9 -14 -9 -14 -18 17 -17 18
14 10 14 10 -12 5 -13 5 0 14 0 15 -26 26 -25 25 -6 -6 -6 -6 21 -19 22 -18 0
-37 0 -36 -10 0 -10 0 0 15 0 16 -26 26 -25 25 -6 -6 -6 -6 21 -19 22 -18 0
-37 0 -36 -10 0 -10 0 0 15 0 16 -26 26 -25 25 -6 -6 -6 -6 21 -19 22 -18 0
-37 0 -36 -10 0 -10 0 0 15 0 16 -26 26 -25 25 -6 -6 -6 -6 21 -19 22 -18 0
-37 0 -36 -10 0 -10 0 0 15 0 16 -26 26 -25 25 -6 -6 -6 -6 21 -19 22 -18 0
-37 0 -36 -10 0 -10 0 0 15 0 16 -26 26 -25 25 -6 -6 -6 -6 21 -19 22 -18 0
-37 0 -36 -10 0 -10 0 0 15 0 16 -26 26 -25 25 -6 -6 -6 -6 21 -19 22 -18 0
-37 0 -36 -10 0 -10 0 0 15 0 16 -26 26 -25 25 -6 -6 -6 -6 21 -19 22 -18 0
-37 0 -36 -5 0 -5 0 -55 55 -55 55 185 185 185 185 25 0 25 0 0 -10 0 -10 20
0 20 0 0 -20 0 -20 10 0 10 0 0 -30 0 -30 9 0 9 0 5 13 4 12 9 -8 8 -8 -14
-10 -15 -9 15 -10 15 -10 -15 -9 -14 -10 7 -8 8 -7 9 14 9 14 8 -7 7 -8 -14
-9 -14 -9 6 -7 7 -6 17 16 16 17 -23 20 -23 20 14 9 14 8 -32 30 -32 30 0 12
0 11 -14 15 -15 14 -15 0 -16 0 0 10 0 10 -26 0 -26 0 -39 -41 -39 -41 -15 16
-15 15 0 65 0 66 75 0 75 0 85 -85z m185 -44 l0 -9 -12 -5 -13 -5 15 -11 15
-11 -15 -10 -15 -10 14 -9 14 -9 -37 -37 -37 -37 -7 7 -6 6 14 10 15 9 -15 10
-15 10 15 10 15 10 -14 9 -14 9 34 35 34 36 8 0 7 1 0 -9z m-740 -316 l0 -6
-35 -34 -34 -35 -56 0 -55 0 0 5 0 6 33 34 32 34 58 0 57 1 0 -5z m105 -90
l75 -75 0 -10 0 -11 -35 -35 -35 -34 -85 85 -85 85 32 34 33 35 13 0 12 1 75
-75z m-90 -90 l85 -85 0 -75 0 -75 -75 0 -75 0 -85 85 -85 85 0 75 0 75 75 0
75 0 85 -85z m185 -44 l0 -9 -12 -5 -13 -5 15 -11 15 -11 -15 -10 -15 -10 14
-9 14 -9 -37 -37 -37 -37 -7 7 -6 6 14 10 15 9 -15 10 -15 10 15 10 15 10 -14
9 -14 9 34 35 34 36 8 0 7 1 0 -9z"/>
<path d="M840 872 l0 -8 20 -14 20 -14 0 -34 0 -33 26 -26 25 -25 7 6 6 7 -14
10 -15 9 15 9 14 10 -22 19 -22 19 0 12 0 12 -25 24 -24 25 -6 0 -5 0 0 -8z
m80 -102 l0 -10 -10 0 -10 0 0 10 0 10 10 0 10 0 0 -10z"/>
<path d="M1071 844 l-14 -16 14 -9 14 -9 -15 -9 -14 -10 6 -7 7 -6 17 17 17
17 -14 10 -14 10 13 5 12 5 0 9 0 9 -7 0 -8 -1 -14 -15z"/>
<path d="M300 390 l0 -50 10 0 10 0 0 50 0 50 -10 0 -10 0 0 -50z"/>
<path d="M200 330 l0 -10 40 0 40 0 0 10 0 10 -40 0 -40 0 0 -10z"/>
<path d="M340 275 l0 -6 36 -35 35 -36 6 5 5 6 -36 35 -35 36 -6 0 -5 0 0 -5z"/>
<path d="M531 304 l-14 -16 14 -9 14 -9 -15 -9 -14 -10 6 -7 7 -6 17 17 17 17
-14 10 -14 10 13 5 12 5 0 9 0 9 -7 0 -8 -1 -14 -15z"/>
</g>
</svg>
