<?xml version="1.0" standalone="no"?>
<!DOCTYPE svg PUBLIC "-//W3C//DTD SVG 20010904//EN"
 "http://www.w3.org/TR/2001/REC-SVG-20010904/DTD/svg10.dtd">
<svg version="1.0" xmlns="http://www.w3.org/2000/svg"
 width="468pt" height="468pt" viewBox="0 0 468 468"
 preserveAspectRatio="xMidYMid meet">
<metadata>
Created by potrace 1.8, written by Peter Selinger 2001-2007
</metadata>
<g transform="translate(0,468) scale(0.365625,-0.365625)"
fill="#000000" stroke="none">
<path d="M680 1220 l0 -20 -40 0 -40 0 0 -20 0 -20 -40 0 -40 0 0 -20 0 -20
-20 0 -20 0 0 -20 0 -20 -40 0 -40 0 0 -20 0 -20 -20 0 -20 0 0 -20 0 -20 -20
0 -20 0 0 -20 0 -20 -20 0 -20 0 0 -20 0 -20 -20 0 -20 0 0 -40 0 -40 -20 0
-20 0 0 -20 0 -20 -20 0 -20 0 0 -40 0 -40 -20 0 -20 0 0 -20 0 -20 -20 0 -20
0 0 -40 0 -40 20 0 20 0 0 -20 0 -20 20 0 20 0 0 20 0 20 -20 0 -20 0 0 40 0
40 40 0 40 0 0 -40 0 -40 20 0 20 0 0 40 0 40 -20 0 -20 0 0 20 0 20 20 0 20
0 0 40 0 40 20 0 20 0 0 20 0 20 20 0 20 0 0 -220 0 -220 20 0 20 0 0 -20 0
-20 -60 0 -60 0 0 -20 0 -20 -20 0 -20 0 0 -20 0 -20 -20 0 -20 0 0 -100 0
-100 160 0 160 0 0 20 0 20 20 0 20 0 0 -20 0 -20 140 0 140 0 0 20 0 20 20 0
20 0 0 -20 0 -20 40 0 40 0 0 100 0 100 -20 0 -20 0 0 20 0 20 -40 0 -40 0 0
20 0 20 -40 0 -40 0 0 20 0 20 -20 0 -20 0 0 20 0 20 -20 0 -20 0 0 40 0 40
-20 0 -20 0 0 60 0 60 -20 0 -20 0 0 80 0 80 20 0 20 0 0 40 0 40 20 0 20 0 0
-20 0 -20 80 0 80 0 0 -20 0 -20 20 0 20 0 0 -20 0 -20 40 0 40 0 0 -20 0 -20
20 0 20 0 0 -20 0 -20 20 0 20 0 0 20 0 20 -20 0 -20 0 0 20 0 20 40 0 40 0 0
-20 0 -20 20 0 20 0 0 20 0 20 -20 0 -20 0 0 20 0 20 -80 0 -80 0 0 20 0 20
-20 0 -20 0 0 20 0 20 -60 0 -60 0 0 20 0 20 -20 0 -20 0 0 20 0 20 -20 0 -20
0 0 40 0 40 20 0 20 0 0 20 0 20 40 0 40 0 0 -20 0 -20 20 0 20 0 0 -20 0 -20
20 0 20 0 0 -40 0 -40 40 0 40 0 0 40 0 40 -20 0 -20 0 0 40 0 40 40 0 40 0 0
-40 0 -40 40 0 40 0 0 40 0 40 -20 0 -20 0 0 20 0 20 -40 0 -40 0 0 20 0 20
-20 0 -20 0 0 20 0 20 -20 0 -20 0 0 20 0 20 -20 0 -20 0 0 -20 0 -20 -20 0
-20 0 0 20 0 20 -40 0 -40 0 0 -20z m200 -80 l0 -20 -20 0 -20 0 0 20 0 20 20
0 20 0 0 -20z m-360 -120 l0 -20 20 0 20 0 0 -20 0 -20 -40 0 -40 0 0 -20 0
-20 40 0 40 0 0 -20 0 -20 -80 0 -80 0 0 20 0 20 20 0 20 0 0 40 0 40 20 0 20
0 0 20 0 20 20 0 20 0 0 -20z m-160 -160 l0 -20 -20 0 -20 0 0 20 0 20 20 0
20 0 0 -20z m160 -40 l0 -20 -60 0 -60 0 0 20 0 20 60 0 60 0 0 -20z m0 -80
l0 -20 -60 0 -60 0 0 20 0 20 60 0 60 0 0 -20z m0 -80 l0 -20 -60 0 -60 0 0
20 0 20 60 0 60 0 0 -20z m0 -80 l0 -20 -60 0 -60 0 0 20 0 20 60 0 60 0 0
-20z m40 -80 l0 -20 -80 0 -80 0 0 20 0 20 80 0 80 0 0 -20z m-120 -80 l0 -20
80 0 80 0 0 -20 0 -20 -80 0 -80 0 0 20 0 20 -20 0 -20 0 0 20 0 20 20 0 20 0
0 -20z m40 -120 l0 -20 100 0 100 0 0 -20 0 -20 -100 0 -100 0 0 20 0 20 -20
0 -20 0 0 20 0 20 20 0 20 0 0 -20z m-40 -100 l0 -40 20 0 20 0 0 -20 0 -20
-20 0 -20 0 0 20 0 20 -60 0 -60 0 0 40 0 40 60 0 60 0 0 -40z m360 -20 l0
-60 -20 0 -20 0 0 40 0 40 -20 0 -20 0 0 20 0 20 40 0 40 0 0 -60z m-240 0 l0
-20 80 0 80 0 0 -20 0 -20 -80 0 -80 0 0 20 0 20 -20 0 -20 0 0 20 0 20 20 0
20 0 0 -20z"/>
<path d="M960 940 l0 -20 20 0 20 0 0 -20 0 -20 20 0 20 0 0 -20 0 -20 20 0
20 0 0 20 0 20 -20 0 -20 0 0 20 0 20 -20 0 -20 0 0 20 0 20 -20 0 -20 0 0
-20z"/>
<path d="M1080 620 l0 -20 -20 0 -20 0 0 -20 0 -20 -20 0 -20 0 0 -20 0 -20
-20 0 -20 0 0 -20 0 -20 -20 0 -20 0 0 -20 0 -20 -60 0 -60 0 0 40 0 40 -40 0
-40 0 0 20 0 20 -20 0 -20 0 0 -40 0 -40 20 0 20 0 0 -20 0 -20 20 0 20 0 0
-20 0 -20 100 0 100 0 0 20 0 20 20 0 20 0 0 20 0 20 20 0 20 0 0 20 0 20 20
0 20 0 0 20 0 20 20 0 20 0 0 20 0 20 20 0 20 0 0 -20 0 -20 20 0 20 0 0 -20
0 -20 -20 0 -20 0 0 -20 0 -20 -20 0 -20 0 0 -40 0 -40 -40 0 -40 0 0 -20 0
-20 -20 0 -20 0 0 -20 0 -20 -20 0 -20 0 0 -20 0 -20 20 0 20 0 0 -20 0 -20
40 0 40 0 0 20 0 20 20 0 20 0 0 20 0 20 20 0 20 0 0 20 0 20 20 0 20 0 0 40
0 40 20 0 20 0 0 80 0 80 -20 0 -20 0 0 20 0 20 -60 0 -60 0 0 -20z"/>
<path d="M960 140 l0 -60 140 0 140 0 0 40 0 40 -20 0 -20 0 0 20 0 20 -120 0
-120 0 0 -60z"/>
<path d="M80 140 l0 -20 -20 0 -20 0 0 -20 0 -20 40 0 40 0 0 40 0 40 -20 0
-20 0 0 -20z"/>
</g>
</svg>
