<?xml version="1.0" standalone="no"?>
<!DOCTYPE svg PUBLIC "-//W3C//DTD SVG 20010904//EN"
 "http://www.w3.org/TR/2001/REC-SVG-20010904/DTD/svg10.dtd">
<svg version="1.0" xmlns="http://www.w3.org/2000/svg"
 width="468pt" height="468pt" viewBox="0 0 468 468"
 preserveAspectRatio="xMidYMid meet">
<metadata>
Created by potrace 1.8, written by Peter Selinger 2001-2007
</metadata>
<g transform="translate(0,468) scale(0.365625,-0.365625)"
fill="#000000" stroke="none">
<path d="M0 960 l0 -320 25 0 25 0 0 -80 0 -80 30 0 30 0 0 -25 0 -25 25 0 25
0 0 -55 0 -55 25 0 25 0 0 -25 0 -25 30 0 30 0 0 -30 0 -30 25 0 25 0 0 -25 0
-25 25 0 25 0 0 -25 0 -25 -160 0 -160 0 0 -30 0 -30 -25 0 -25 0 0 -25 0 -25
55 0 55 0 0 25 0 25 160 0 160 0 0 30 0 30 80 0 80 0 0 25 0 25 50 0 50 0 0
25 0 25 55 0 55 0 0 30 0 30 55 0 55 0 0 25 0 25 50 0 50 0 0 25 0 25 30 0 30
0 0 30 0 30 25 0 25 0 0 50 0 50 25 0 25 0 0 80 0 80 30 0 30 0 0 110 0 110
25 0 25 0 0 185 0 185 -135 0 -135 0 0 -25 0 -25 -80 0 -80 0 0 -30 0 -30 -25
0 -25 0 0 -50 0 -50 -55 0 -55 0 0 25 0 25 -50 0 -50 0 0 80 0 80 -295 0 -295
0 0 -320z m1230 135 l0 -135 -80 0 -80 0 0 -25 0 -25 50 0 50 0 0 -80 0 -80
-25 0 -25 0 0 -110 0 -110 -25 0 -25 0 0 -50 0 -50 -30 0 -30 0 0 -30 0 -30
-25 0 -25 0 0 80 0 80 -25 0 -25 0 0 30 0 30 -30 0 -30 0 0 25 0 25 -80 0 -80
0 0 105 0 105 -25 0 -25 0 0 55 0 55 -25 0 -25 0 0 25 0 25 -30 0 -30 0 0 55
0 55 30 0 30 0 0 -25 0 -25 50 0 50 0 0 -30 0 -30 55 0 55 0 0 -25 0 -25 135
0 135 0 0 25 0 25 -110 0 -110 0 0 55 0 55 30 0 30 0 0 25 0 25 80 0 80 0 0
30 0 30 80 0 80 0 0 -135z m-700 -160 l0 -25 30 0 30 0 0 -55 0 -55 25 0 25 0
0 -55 0 -55 -55 0 -55 0 0 30 0 30 -25 0 -25 0 0 -55 0 -55 55 0 55 0 0 -25 0
-25 105 0 105 0 0 -30 0 -30 25 0 25 0 0 -25 0 -25 30 0 30 0 0 -80 0 -80 -55
0 -55 0 0 -25 0 -25 -80 0 -80 0 0 -30 0 -30 -25 0 -25 0 0 -25 0 -25 -110 0
-110 0 0 25 0 25 -25 0 -25 0 0 30 0 30 -25 0 -25 0 0 50 0 50 -30 0 -30 0 0
160 0 160 30 0 30 0 0 30 0 30 25 0 25 0 0 25 0 25 25 0 25 0 0 -25 0 -25 55
0 55 0 0 25 0 25 -25 0 -25 0 0 55 0 55 25 0 25 0 0 25 0 25 25 0 25 0 0 -25z
m-370 -375 l0 -80 -25 0 -25 0 0 80 0 80 25 0 25 0 0 -80z"/>
<path d="M690 935 l0 -25 30 0 30 0 0 -30 0 -30 25 0 25 0 0 55 0 55 -55 0
-55 0 0 -25z"/>
<path d="M850 825 l0 -25 -25 0 -25 0 0 -25 0 -25 80 0 80 0 0 -30 0 -30 55 0
55 0 0 30 0 30 -30 0 -30 0 0 25 0 25 -50 0 -50 0 0 25 0 25 -30 0 -30 0 0
-25z"/>
<path d="M960 615 l0 -25 25 0 25 0 0 -30 0 -30 30 0 30 0 0 55 0 55 -55 0
-55 0 0 -25z"/>
<path d="M270 615 l0 -25 25 0 25 0 0 25 0 25 -25 0 -25 0 0 -25z"/>
<path d="M370 510 l0 -80 55 0 55 0 0 25 0 25 -25 0 -25 0 0 55 0 55 -30 0
-30 0 0 -80z"/>
<path d="M590 480 l0 -50 25 0 25 0 0 -55 0 -55 25 0 25 0 0 25 0 25 55 0 55
0 0 30 0 30 -80 0 -80 0 0 50 0 50 -25 0 -25 0 0 -50z"/>
<path d="M370 320 l0 -50 80 0 80 0 0 25 0 25 -50 0 -50 0 0 25 0 25 -30 0
-30 0 0 -50z"/>
<path d="M110 215 l0 -55 50 0 50 0 0 25 0 25 -25 0 -25 0 0 30 0 30 -25 0
-25 0 0 -55z"/>
</g>
</svg>
