<?xml version="1.0" standalone="no"?>
<!DOCTYPE svg PUBLIC "-//W3C//DTD SVG 20010904//EN"
 "http://www.w3.org/TR/2001/REC-SVG-20010904/DTD/svg10.dtd">
<svg version="1.0" xmlns="http://www.w3.org/2000/svg"
 width="468pt" height="468pt" viewBox="0 0 468 468"
 preserveAspectRatio="xMidYMid meet">
<metadata>
Created by potrace 1.8, written by Peter Selinger 2001-2007
</metadata>
<g transform="translate(0,468) scale(0.365625,-0.365625)"
fill="#000000" stroke="none">
<path d="M760 1220 l0 -20 -60 0 -60 0 0 -20 0 -20 -40 0 -40 0 0 -20 0 -20
-20 0 -20 0 0 -20 0 -20 -20 0 -20 0 0 -20 0 -20 -20 0 -20 0 0 -20 0 -20 -20
0 -20 0 0 -20 0 -20 -20 0 -20 0 0 -20 0 -20 -20 0 -20 0 0 -20 0 -20 -20 0
-20 0 0 -60 0 -60 -20 0 -20 0 0 -220 0 -220 -20 0 -20 0 0 -20 0 -20 -20 0
-20 0 0 -20 0 -20 -20 0 -20 0 0 -60 0 -60 20 0 20 0 0 -20 0 -20 140 0 140 0
0 20 0 20 40 0 40 0 0 -60 0 -60 80 0 80 0 0 20 0 20 20 0 20 0 0 20 0 20 20
0 20 0 0 160 0 160 20 0 20 0 0 20 0 20 20 0 20 0 0 20 0 20 20 0 20 0 0 20 0
20 20 0 20 0 0 20 0 20 20 0 20 0 0 200 0 200 -20 0 -20 0 0 20 0 20 -20 0
-20 0 0 -20 0 -20 -20 0 -20 0 0 40 0 40 100 0 100 0 0 100 0 100 -140 0 -140
0 0 -20z m160 -40 l0 -20 20 0 20 0 0 20 0 20 20 0 20 0 0 -20 0 -20 -20 0
-20 0 0 -20 0 -20 20 0 20 0 0 -20 0 -20 -20 0 -20 0 0 20 0 20 -20 0 -20 0 0
-20 0 -20 -20 0 -20 0 0 20 0 20 -20 0 -20 0 0 20 0 20 20 0 20 0 0 20 0 20
20 0 20 0 0 -20z m-160 -180 l0 -160 -20 0 -20 0 0 -20 0 -20 -20 0 -20 0 0
40 0 40 -20 0 -20 0 0 20 0 20 -40 0 -40 0 0 -20 0 -20 20 0 20 0 0 -20 0 -20
20 0 20 0 0 -40 0 -40 20 0 20 0 0 -80 0 -80 -80 0 -80 0 0 160 0 160 20 0 20
0 0 20 0 20 -60 0 -60 0 0 20 0 20 40 0 40 0 0 40 0 40 40 0 40 0 0 20 0 20
20 0 20 0 0 20 0 20 60 0 60 0 0 -160z m-280 -260 l0 -180 100 0 100 0 0 -100
0 -100 -180 0 -180 0 0 20 0 20 -20 0 -20 0 0 180 0 180 20 0 20 0 0 40 0 40
20 0 20 0 0 20 0 20 20 0 20 0 0 20 0 20 40 0 40 0 0 -180z m440 0 l0 -180
-20 0 -20 0 0 -20 0 -20 -20 0 -20 0 0 -20 0 -20 -20 0 -20 0 0 -20 0 -20 -20
0 -20 0 0 -20 0 -20 -20 0 -20 0 0 180 0 180 20 0 20 0 0 -60 0 -60 40 0 40 0
0 120 0 120 20 0 20 0 0 20 0 20 20 0 20 0 0 -180z m-280 -440 l0 -20 -20 0
-20 0 0 -20 0 -20 20 0 20 0 0 -100 0 -100 -40 0 -40 0 0 80 0 80 -20 0 -20 0
0 -20 0 -20 -40 0 -40 0 0 -20 0 -20 -140 0 -140 0 0 60 0 60 20 0 20 0 0 20
0 20 20 0 20 0 0 20 0 20 200 0 200 0 0 -20z m80 -100 l0 -120 -20 0 -20 0 0
120 0 120 20 0 20 0 0 -120z"/>
<path d="M880 1140 l0 -20 20 0 20 0 0 20 0 20 -20 0 -20 0 0 -20z"/>
<path d="M440 540 l0 -20 -20 0 -20 0 0 -20 0 -20 -20 0 -20 0 0 -20 0 -20
-20 0 -20 0 0 -20 0 -20 20 0 20 0 0 20 0 20 20 0 20 0 0 20 0 20 20 0 20 0 0
20 0 20 20 0 20 0 0 20 0 20 -20 0 -20 0 0 -20z"/>
<path d="M560 220 l0 -20 20 0 20 0 0 20 0 20 -20 0 -20 0 0 -20z"/>
<path d="M0 620 l0 -20 100 0 100 0 0 20 0 20 -100 0 -100 0 0 -20z"/>
<path d="M1000 620 l0 -20 140 0 140 0 0 20 0 20 -140 0 -140 0 0 -20z"/>
</g>
</svg>
