<?xml version="1.0" standalone="no"?>
<!DOCTYPE svg PUBLIC "-//W3C//DTD SVG 20010904//EN"
 "http://www.w3.org/TR/2001/REC-SVG-20010904/DTD/svg10.dtd">
<svg version="1.0" xmlns="http://www.w3.org/2000/svg"
 width="468pt" height="468pt" viewBox="0 0 468 468"
 preserveAspectRatio="xMidYMid meet">
<metadata>
Created by potrace 1.8, written by Peter Selinger 2001-2007
</metadata>
<g transform="translate(0,468) scale(0.365625,-0.365625)"
fill="#000000" stroke="none">
<path d="M880 1260 l0 -20 -440 0 -440 0 0 -620 0 -620 520 0 520 0 0 560 0
560 40 0 40 0 0 20 0 20 60 0 60 0 0 20 0 20 20 0 20 0 0 20 0 20 -80 0 -80 0
0 20 0 20 -120 0 -120 0 0 -20z m80 -40 l0 -20 80 0 80 0 0 -20 0 -20 -40 0
-40 0 0 -20 0 -20 -20 0 -20 0 0 -20 0 -20 -40 0 -40 0 0 -20 0 -20 40 0 40 0
0 -500 0 -500 -480 0 -480 0 0 580 0 580 340 0 340 0 0 -20 0 -20 40 0 40 0 0
20 0 20 40 0 40 0 0 20 0 20 40 0 40 0 0 -20z"/>
<path d="M920 1180 l0 -20 20 0 20 0 0 20 0 20 -20 0 -20 0 0 -20z"/>
<path d="M640 1140 l0 -20 -20 0 -20 0 0 -20 0 -20 -20 0 -20 0 0 -20 0 -20
-20 0 -20 0 0 -20 0 -20 -20 0 -20 0 0 -20 0 -20 -20 0 -20 0 0 -100 0 -100
20 0 20 0 0 -20 0 -20 -20 0 -20 0 0 -40 0 -40 -20 0 -20 0 0 -80 0 -80 -20 0
-20 0 0 -60 0 -60 20 0 20 0 0 40 0 40 20 0 20 0 0 60 0 60 20 0 20 0 0 60 0
60 20 0 20 0 0 20 0 20 80 0 80 0 0 20 0 20 20 0 20 0 0 20 0 20 20 0 20 0 0
20 0 20 20 0 20 0 0 40 0 40 20 0 20 0 0 20 0 20 20 0 20 0 0 20 0 20 20 0 20
0 0 20 0 20 -20 0 -20 0 0 -20 0 -20 -80 0 -80 0 0 20 0 20 20 0 20 0 0 20 0
20 20 0 20 0 0 20 0 20 -20 0 -20 0 0 -20 0 -20 -20 0 -20 0 0 -20 0 -20 -20
0 -20 0 0 -20 0 -20 -20 0 -20 0 0 -20 0 -20 -20 0 -20 0 0 60 0 60 20 0 20 0
0 20 0 20 40 0 40 0 0 20 0 20 -40 0 -40 0 0 -20z m-80 -160 l0 -20 20 0 20 0
0 -20 0 -20 20 0 20 0 0 20 0 20 20 0 20 0 0 20 0 20 20 0 20 0 0 -20 0 -20
40 0 40 0 0 -20 0 -20 -20 0 -20 0 0 -20 0 -20 -20 0 -20 0 0 -20 0 -20 -60 0
-60 0 0 -20 0 -20 40 0 40 0 0 -20 0 -20 -80 0 -80 0 0 20 0 20 -20 0 -20 0 0
80 0 80 20 0 20 0 0 20 0 20 20 0 20 0 0 -20z"/>
<path d="M560 900 l0 -20 -20 0 -20 0 0 -40 0 -40 20 0 20 0 0 40 0 40 20 0
20 0 0 20 0 20 -20 0 -20 0 0 -20z"/>
<path d="M840 1140 l0 -20 20 0 20 0 0 20 0 20 -20 0 -20 0 0 -20z"/>
<path d="M120 1060 l0 -20 160 0 160 0 0 20 0 20 -160 0 -160 0 0 -20z"/>
<path d="M120 980 l0 -20 140 0 140 0 0 20 0 20 -140 0 -140 0 0 -20z"/>
<path d="M120 900 l0 -20 140 0 140 0 0 20 0 20 -140 0 -140 0 0 -20z"/>
<path d="M840 860 l0 -20 40 0 40 0 0 20 0 20 -40 0 -40 0 0 -20z"/>
<path d="M120 780 l0 -20 140 0 140 0 0 20 0 20 -140 0 -140 0 0 -20z"/>
<path d="M800 780 l0 -20 60 0 60 0 0 20 0 20 -60 0 -60 0 0 -20z"/>
<path d="M120 700 l0 -20 140 0 140 0 0 20 0 20 -140 0 -140 0 0 -20z"/>
<path d="M720 700 l0 -20 100 0 100 0 0 20 0 20 -100 0 -100 0 0 -20z"/>
<path d="M120 620 l0 -20 120 0 120 0 0 20 0 20 -120 0 -120 0 0 -20z"/>
<path d="M600 620 l0 -20 160 0 160 0 0 20 0 20 -160 0 -160 0 0 -20z"/>
<path d="M120 540 l0 -20 120 0 120 0 0 20 0 20 -120 0 -120 0 0 -20z"/>
<path d="M600 540 l0 -20 160 0 160 0 0 20 0 20 -160 0 -160 0 0 -20z"/>
<path d="M120 460 l0 -20 100 0 100 0 0 20 0 20 -100 0 -100 0 0 -20z"/>
<path d="M480 460 l0 -20 20 0 20 0 0 20 0 20 -20 0 -20 0 0 -20z"/>
<path d="M600 460 l0 -20 160 0 160 0 0 20 0 20 -160 0 -160 0 0 -20z"/>
<path d="M120 380 l0 -20 100 0 100 0 0 20 0 20 -100 0 -100 0 0 -20z"/>
<path d="M440 380 l0 -20 40 0 40 0 0 20 0 20 -40 0 -40 0 0 -20z"/>
<path d="M840 280 l0 -120 -20 0 -20 0 0 80 0 80 -40 0 -40 0 0 -80 0 -80 -20
0 -20 0 0 60 0 60 -40 0 -40 0 0 -80 0 -80 160 0 160 0 0 140 0 140 -40 0 -40
0 0 -120z"/>
<path d="M120 300 l0 -20 200 0 200 0 0 20 0 20 -200 0 -200 0 0 -20z"/>
<path d="M120 220 l0 -20 200 0 200 0 0 20 0 20 -200 0 -200 0 0 -20z"/>
<path d="M120 140 l0 -20 200 0 200 0 0 20 0 20 -200 0 -200 0 0 -20z"/>
</g>
</svg>
