<?xml version="1.0" standalone="no"?>
<!DOCTYPE svg PUBLIC "-//W3C//DTD SVG 20010904//EN"
 "http://www.w3.org/TR/2001/REC-SVG-20010904/DTD/svg10.dtd">
<svg version="1.0" xmlns="http://www.w3.org/2000/svg"
 width="468pt" height="468pt" viewBox="0 0 468 468"
 preserveAspectRatio="xMidYMid meet">
<metadata>
Created by potrace 1.8, written by Peter Selinger 2001-2007
</metadata>
<g transform="translate(0,468) scale(0.365625,-0.365625)"
fill="#000000" stroke="none">
<path d="M560 1270 l0 -10 -29 0 -29 0 -5 -12 -5 -13 -11 15 -10 14 -8 -7 -7
-8 14 -10 15 -11 -12 -5 -13 -5 0 -9 0 -9 20 0 20 0 0 10 0 10 20 0 20 0 0 10
0 10 30 0 30 0 0 10 0 10 20 0 20 0 0 10 0 10 -40 0 -40 0 0 -10z"/>
<path d="M700 1270 l0 -10 10 0 10 0 0 10 0 10 -10 0 -10 0 0 -10z"/>
<path d="M400 1230 l0 -10 10 0 10 0 0 10 0 10 -10 0 -10 0 0 -10z"/>
<path d="M740 1210 l0 -30 10 0 10 0 0 -20 0 -20 -18 0 -18 0 -14 20 -14 20
-18 0 -18 0 0 -20 0 -20 30 0 30 0 0 -30 0 -30 -30 0 -30 0 0 -16 0 -15 14
-15 15 -14 15 0 16 0 0 -10 0 -10 -15 0 -16 0 -44 -45 -45 -44 0 -45 0 -44
-12 -6 -13 -6 13 -6 12 -6 0 -14 0 -15 35 -34 34 -35 56 0 55 0 0 10 0 10 20
0 20 0 0 -10 0 -10 16 0 15 0 15 -14 14 -15 0 -35 0 -36 10 0 10 0 0 -20 0
-20 10 0 10 0 0 -30 0 -30 -10 0 -10 0 0 -90 0 -90 10 0 10 0 0 -20 0 -20 30
0 30 0 0 10 0 10 16 0 15 0 15 14 14 15 0 13 0 14 20 14 20 14 0 16 0 16 20
14 20 14 0 18 0 18 10 0 10 0 0 68 0 68 20 14 20 14 0 28 0 28 10 0 10 0 0 30
0 30 -20 0 -20 0 0 8 0 8 20 14 20 14 0 48 0 48 10 0 10 0 0 18 0 18 -20 14
-20 14 0 16 0 16 -20 14 -20 14 0 13 0 14 -45 44 -44 45 -14 0 -13 0 -14 20
-14 20 -16 0 -16 0 -14 20 -14 20 -28 0 -28 0 0 10 0 10 -70 0 -70 0 0 -30z
m75 -15 l25 -24 0 -6 0 -5 -20 0 -20 0 0 20 0 20 -10 0 -10 0 0 10 0 10 5 0 6
0 24 -25z m28 -127 l5 -13 10 14 10 15 32 -34 31 -33 7 7 6 7 -14 9 -14 9 7 7
7 7 19 -21 18 -22 37 0 36 0 0 -20 0 -20 -19 0 -19 0 -6 -12 -6 -13 -6 13 -6
12 -19 0 -19 0 0 -10 0 -10 -20 0 -20 0 0 10 0 10 -18 0 -18 0 -14 20 -14 20
-48 0 -48 0 0 15 0 16 13 14 12 14 37 1 36 0 5 -12z m343 -142 l14 -15 0 -5 0
-6 -16 0 -15 0 -15 14 -14 15 0 5 0 6 16 0 15 0 15 -14z m-99 -21 l15 -16 -5
-6 -6 -5 -16 15 -15 16 0 5 0 6 6 0 5 0 16 -15z m39 -59 l14 -15 0 -15 0 -16
-10 0 -10 0 0 20 0 20 -10 0 -10 0 0 10 0 10 6 0 5 0 15 -14z"/>
<path d="M860 1030 l0 -10 10 0 10 0 0 10 0 10 -10 0 -10 0 0 -10z"/>
<path d="M340 1204 l0 -15 -16 -16 -16 -16 -8 14 -9 13 -19 -22 -19 -22 -12 0
-12 0 -15 -14 -14 -15 0 -15 0 -16 -16 0 -15 0 -15 -14 -14 -15 0 -13 0 -14
-20 -14 -20 -14 0 -16 0 -16 -20 -14 -20 -14 0 -27 0 -27 -12 -5 -13 -4 9 -9
9 -9 4 13 5 12 15 0 16 0 18 -22 19 -21 8 8 7 8 -12 4 -13 5 0 54 0 55 45 44
44 45 16 0 15 0 0 10 0 10 16 0 16 0 31 33 30 32 4 -12 5 -13 9 0 9 0 0 30 0
30 10 0 10 0 0 20 0 20 -20 0 -20 0 0 -16z"/>
<path d="M20 820 l0 -20 10 0 10 0 0 20 0 20 -10 0 -10 0 0 -20z"/>
<path d="M90 760 l-14 -20 -18 0 -18 0 0 -10 0 -10 10 0 10 0 0 -30 0 -30 -10
0 -10 0 0 -50 0 -50 10 0 10 0 0 -20 0 -20 10 0 10 0 0 -26 0 -26 30 -28 30
-28 0 -26 0 -26 10 0 10 0 0 -30 0 -30 10 0 10 0 0 -20 0 -20 10 0 10 0 0 -16
0 -16 30 -28 30 -28 0 -16 0 -16 19 0 19 0 5 -12 4 -13 8 7 8 7 -32 30 -31 29
0 26 0 26 10 0 10 0 0 30 0 30 10 0 10 0 0 36 0 36 30 28 30 28 0 46 0 46 10
0 10 0 0 26 0 25 -14 15 -15 14 -25 0 -26 0 0 10 0 10 -16 0 -15 0 -15 14 -14
15 0 25 0 26 -30 0 -30 0 0 16 0 15 -14 15 -15 14 -15 0 -16 0 0 10 0 10 -8 0
-8 0 -14 -20z"/>
<path d="M1160 460 l0 -20 -10 0 -10 0 0 -20 0 -20 -10 0 -10 0 0 -20 0 -20
10 0 10 0 0 20 0 20 10 0 10 0 0 20 0 20 10 0 10 0 0 20 0 20 -10 0 -10 0 0
-20z"/>
<path d="M460 30 l0 -10 10 0 10 0 0 10 0 10 -10 0 -10 0 0 -10z"/>
<path d="M660 30 l0 -10 -40 0 -40 0 0 -10 0 -10 80 0 80 0 0 10 0 10 50 0 50
0 0 10 0 10 -90 0 -90 0 0 -10z"/>
</g>
</svg>
