<?xml version="1.0" standalone="no"?>
<!DOCTYPE svg PUBLIC "-//W3C//DTD SVG 20010904//EN"
 "http://www.w3.org/TR/2001/REC-SVG-20010904/DTD/svg10.dtd">
<svg version="1.0" xmlns="http://www.w3.org/2000/svg"
 width="468pt" height="468pt" viewBox="0 0 468 468"
 preserveAspectRatio="xMidYMid meet">
<metadata>
Created by potrace 1.8, written by Peter Selinger 2001-2007
</metadata>
<g transform="translate(0,468) scale(0.365625,-0.365625)"
fill="#000000" stroke="none">
<path d="M570 1160 l-14 -20 -24 0 -23 0 -15 -14 -14 -15 0 -75 0 -76 20 0 20
0 0 -10 0 -10 40 0 40 0 0 -35 0 -36 -25 -24 -24 -25 -21 0 -21 0 -15 -14 -14
-15 0 -35 0 -36 -80 0 -80 0 0 25 0 26 -25 24 -24 25 -23 0 -24 0 -14 20 -14
20 -26 0 -26 0 -14 -20 -14 -20 -24 0 -23 0 -15 -14 -14 -15 0 -75 0 -76 20 0
20 0 0 -10 0 -10 120 0 120 0 0 40 0 40 80 0 80 0 0 -30 0 -30 20 0 20 0 0
-10 0 -10 40 0 40 0 0 -35 0 -36 -25 -24 -24 -25 -21 0 -21 0 -15 -14 -14 -15
0 -75 0 -76 20 0 20 0 0 -10 0 -10 120 0 120 0 0 40 0 40 90 0 90 0 0 -30 0
-30 20 0 20 0 0 -10 0 -10 120 0 120 0 0 75 0 76 -25 24 -24 25 -23 0 -24 0
-14 20 -14 20 -26 0 -26 0 -14 -20 -14 -20 -24 0 -23 0 -15 -14 -14 -15 0 -35
0 -36 -90 0 -90 0 0 25 0 26 -25 24 -24 25 -21 0 -21 0 -24 25 -25 24 0 36 0
35 70 0 70 0 0 75 0 76 -25 24 -24 25 -21 0 -21 0 -24 25 -25 24 0 36 0 35 70
0 70 0 0 40 0 40 90 0 90 0 0 -30 0 -30 20 0 20 0 0 -10 0 -10 120 0 120 0 0
75 0 76 -25 24 -24 25 -23 0 -24 0 -14 20 -14 20 -26 0 -26 0 -14 -20 -14 -20
-24 0 -23 0 -15 -14 -14 -15 0 -35 0 -36 -90 0 -90 0 0 25 0 26 -25 24 -24 25
-23 0 -24 0 -14 20 -14 20 -26 0 -26 0 -14 -20z m80 -20 l14 -20 28 0 28 0 0
-70 0 -70 -110 0 -110 0 0 70 0 70 28 0 28 0 14 20 14 20 26 0 26 0 14 -20z
m460 0 l14 -20 28 0 28 0 0 -70 0 -70 -110 0 -110 0 0 70 0 70 28 0 28 0 14
20 14 20 26 0 26 0 14 -20z m-900 -320 l14 -20 28 0 28 0 0 -70 0 -70 -110 0
-110 0 0 70 0 70 28 0 28 0 14 20 14 20 26 0 26 0 14 -20z m440 0 l14 -20 28
0 28 0 0 -70 0 -70 -110 0 -110 0 0 70 0 70 28 0 28 0 14 20 14 20 26 0 26 0
14 -20z m0 -320 l14 -20 28 0 28 0 0 -70 0 -70 -110 0 -110 0 0 70 0 70 28 0
28 0 14 20 14 20 26 0 26 0 14 -20z m460 0 l14 -20 28 0 28 0 0 -70 0 -70
-110 0 -110 0 0 70 0 70 28 0 28 0 14 20 14 20 26 0 26 0 14 -20z"/>
<path d="M0 100 l0 -100 640 0 640 0 0 100 0 100 -640 0 -640 0 0 -100z"/>
</g>
</svg>
