<?xml version="1.0" standalone="no"?>
<!DOCTYPE svg PUBLIC "-//W3C//DTD SVG 20010904//EN"
 "http://www.w3.org/TR/2001/REC-SVG-20010904/DTD/svg10.dtd">
<svg version="1.0" xmlns="http://www.w3.org/2000/svg"
 width="468pt" height="468pt" viewBox="0 0 468 468"
 preserveAspectRatio="xMidYMid meet">
<metadata>
Created by potrace 1.8, written by Peter Selinger 2001-2007
</metadata>
<g transform="translate(0,468) scale(0.365625,-0.365625)"
fill="#000000" stroke="none">
<path d="M440 1271 l0 -8 -76 -5 -76 -5 -7 -10 -6 -10 -32 -8 -33 -7 0 -8 0
-8 -35 -6 -35 -7 0 -9 0 -10 -11 0 -11 0 -43 -44 -44 -43 -7 -27 -6 -26 -9 0
-9 0 0 -80 0 -80 9 0 9 0 6 -26 7 -26 12 -14 12 -15 28 -29 29 -30 14 0 14 0
0 -10 0 -9 35 -7 35 -6 0 -9 0 -9 15 0 15 0 0 -9 0 -10 45 -7 45 -6 0 -9 0 -9
55 0 55 0 0 9 0 8 -77 6 -78 6 -3 10 -4 11 -19 0 -19 0 0 10 0 9 -35 7 -35 6
0 8 0 8 -27 7 -27 6 -33 35 -33 35 0 14 0 13 -12 5 -13 4 0 103 0 103 13 5 12
4 0 13 0 13 31 31 31 31 14 0 14 0 0 10 0 10 15 0 15 0 0 9 0 9 34 6 35 7 3
11 4 11 41 0 41 0 -2 11 -3 11 4 -7 5 -8 14 0 14 0 0 10 0 10 20 0 20 0 0 -10
0 -10 14 0 14 0 4 12 5 13 198 0 198 0 4 -12 5 -13 14 0 14 0 0 10 0 10 15 0
15 0 0 -9 0 -10 18 -3 17 -3 -174 0 -174 0 -5 -13 -4 -12 -14 0 -14 0 0 10 0
10 -15 0 -15 0 0 -9 0 -9 13 -6 12 -5 -30 5 -30 6 15 -11 14 -10 -8 -8 -9 -8
-4 13 -5 12 -15 0 -14 0 5 -22 6 -23 -6 13 -6 12 -10 0 -10 0 -28 -27 -29 -28
-13 -12 -13 -12 -11 -13 -10 -13 -7 -17 -6 -17 15 -16 15 -15 -10 0 -11 0 0
-20 0 -20 13 0 14 0 23 -20 23 -20 -41 0 -42 0 0 15 0 15 -10 0 -10 0 0 -25 0
-25 15 0 15 0 0 -10 0 -10 -60 0 -60 0 0 10 0 10 -19 0 -19 0 -5 13 -5 12 -1
-21 -1 -21 38 -7 37 -6 43 0 42 0 0 -15 0 -15 15 0 15 0 0 -9 0 -10 -17 -4
-18 -5 18 -1 18 -1 25 -25 25 -25 14 0 15 0 0 -9 0 -9 30 -7 30 -7 0 -8 0 -9
55 -6 55 -7 0 -9 0 -9 200 0 200 0 0 10 0 10 15 0 15 0 0 -10 0 -10 -15 0 -15
0 0 -10 0 -10 15 0 15 0 0 10 0 10 15 0 15 0 0 9 0 9 30 7 30 7 0 9 0 9 15 0
15 0 40 40 40 40 0 15 0 15 9 0 9 0 7 30 7 30 9 0 9 0 0 55 0 55 -9 0 -9 0 -6
26 -7 26 -12 14 -12 15 -27 27 -27 27 -15 13 -15 12 -11 0 -10 0 0 9 0 9 -27
7 -28 7 -7 11 -7 12 -48 -2 -47 -2 14 9 14 9 -6 6 -6 6 -76 6 -76 6 0 8 0 9
-190 0 -190 0 0 -9z m594 -67 l6 -16 0 -25 0 -25 13 5 14 5 14 -9 14 -9 -12
-8 -13 -8 -40 2 -41 1 -7 7 -6 7 13 9 14 8 14 -5 13 -5 0 31 0 31 -15 0 -15 0
0 10 0 10 14 0 14 0 6 -16z m-270 -149 l-6 -13 -13 -6 -14 -5 -16 15 -15 16 7
11 7 12 10 11 11 11 17 -19 17 -20 -5 -13z m-211 -65 l17 -20 -20 -20 -20 -20
-20 20 -20 20 17 20 17 20 6 0 6 0 17 -20z m503 -17 l13 -13 13 -1 13 -1 -15
-5 -15 -6 -12 -13 -13 -13 -1 -13 -1 -13 -5 15 -6 15 -13 12 -13 13 -13 1 -13
1 15 5 15 6 12 13 13 13 1 13 1 13 5 -15 6 -15 13 -12z m-596 -3 l0 -10 -10 0
-10 0 0 10 0 10 10 0 10 0 0 -10z m160 0 l0 -10 -10 0 -10 0 0 10 0 10 10 0
10 0 0 -10z m-80 -60 l0 -10 -10 0 -10 0 0 10 0 10 10 0 10 0 0 -10z m140 -20
l0 -10 -10 0 -10 0 0 10 0 10 10 0 10 0 0 -10z m0 -31 l0 -10 14 -15 15 -14
18 -1 18 -1 -19 -5 -20 -5 -13 -13 -13 -14 0 -10 0 -11 -9 0 -9 0 -6 25 -6 25
-28 1 -27 2 27 4 28 4 6 25 6 24 9 0 9 0 0 -11z"/>
<path d="M458 1238 l-4 -12 -45 -1 -44 -2 -17 -1 -18 -2 0 -10 0 -9 35 -7 35
-6 0 -9 0 -9 15 0 15 0 0 9 0 9 27 7 28 7 7 11 6 11 44 2 43 1 18 2 17 1 0 10
0 10 -20 0 -20 0 0 -10 0 -10 -15 0 -15 0 0 10 0 10 -15 0 -15 0 0 -10 0 -10
-15 0 -15 0 0 10 0 10 -14 0 -14 0 -4 -12z m20 -15 l-18 -4 0 -9 0 -8 -21 -5
-22 -6 -28 6 -29 6 0 8 0 9 20 0 20 0 0 -10 0 -10 15 0 15 0 0 9 0 10 18 4 17
5 15 0 15 0 -17 -5z"/>
<path d="M650 1240 l0 -10 15 0 15 0 0 10 0 10 -15 0 -15 0 0 -10z"/>
<path d="M710 1240 l0 -10 15 0 15 0 0 10 0 10 -15 0 -15 0 0 -10z"/>
<path d="M770 1240 l0 -10 20 0 20 0 0 10 0 10 -20 0 -20 0 0 -10z"/>
<path d="M238 1003 l-18 -4 0 -5 0 -5 14 -15 15 -14 10 0 10 0 6 19 6 20 22 4
22 4 -35 0 -35 1 -17 -5z"/>
<path d="M181 984 l-13 -15 6 -6 5 -5 16 15 15 16 0 5 0 6 -7 0 -8 -1 -14 -15z"/>
<path d="M878 653 l-58 -4 0 -9 0 -10 55 0 55 0 0 9 0 10 28 4 27 4 -25 0 -25
-1 -57 -3z"/>
<path d="M223 623 l-223 -3 0 -310 0 -310 640 0 640 0 0 310 0 310 -133 0
-134 0 -284 3 -284 4 -222 -4z"/>
</g>
</svg>
