<?xml version="1.0" standalone="no"?>
<!DOCTYPE svg PUBLIC "-//W3C//DTD SVG 20010904//EN"
 "http://www.w3.org/TR/2001/REC-SVG-20010904/DTD/svg10.dtd">
<svg version="1.0" xmlns="http://www.w3.org/2000/svg"
 width="468pt" height="468pt" viewBox="0 0 468 468"
 preserveAspectRatio="xMidYMid meet">
<metadata>
Created by potrace 1.8, written by Peter Selinger 2001-2007
</metadata>
<g transform="translate(0,468) scale(0.365625,-0.365625)"
fill="#000000" stroke="none">
<path d="M0 1175 l0 -105 20 0 20 0 0 -65 0 -65 -20 0 -20 0 0 -255 0 -255 20
0 20 0 0 -25 0 -25 -20 0 -20 0 0 -190 0 -190 255 0 255 0 0 85 0 85 20 0 20
0 0 -85 0 -85 45 0 45 0 0 20 0 20 20 0 20 0 0 -20 0 -20 25 0 25 0 0 20 0 20
20 0 20 0 0 -20 0 -20 20 0 20 0 0 20 0 20 20 0 20 0 0 -20 0 -20 25 0 25 0 0
20 0 20 20 0 20 0 0 -20 0 -20 20 0 20 0 0 20 0 20 20 0 20 0 0 -20 0 -20 25
0 25 0 0 20 0 20 20 0 20 0 0 -20 0 -20 20 0 20 0 0 20 0 20 20 0 20 0 0 25 0
25 -20 0 -20 0 0 20 0 20 20 0 20 0 0 20 0 20 25 0 25 0 0 20 0 20 20 0 20 0
0 65 0 65 -20 0 -20 0 0 20 0 20 20 0 20 0 0 345 0 345 -45 0 -45 0 0 20 0 20
25 0 25 0 0 20 0 20 -25 0 -25 0 0 20 0 20 -20 0 -20 0 0 25 0 25 20 0 20 0 0
20 0 20 -20 0 -20 0 0 -20 0 -20 -20 0 -20 0 0 20 0 20 -20 0 -20 0 0 -20 0
-20 -25 0 -25 0 0 20 0 20 -20 0 -20 0 0 -20 0 -20 -20 0 -20 0 0 20 0 20 -20
0 -20 0 0 -20 0 -20 -25 0 -25 0 0 20 0 20 -20 0 -20 0 0 -20 0 -20 -20 0 -20
0 0 20 0 20 -20 0 -20 0 0 -20 0 -20 -25 0 -25 0 0 20 0 20 -65 0 -65 0 0 -20
0 -20 -20 0 -20 0 0 20 0 20 -255 0 -255 0 0 -105z m600 40 l0 -25 -25 0 -25
0 0 25 0 25 25 0 25 0 0 -25z m80 0 l0 -25 25 0 25 0 0 25 0 25 20 0 20 0 0
-25 0 -25 20 0 20 0 0 25 0 25 20 0 20 0 0 -25 0 -25 25 0 25 0 0 25 0 25 20
0 20 0 0 -25 0 -25 20 0 20 0 0 25 0 25 20 0 20 0 0 -25 0 -25 25 0 25 0 0 25
0 25 20 0 20 0 0 -25 0 -25 20 0 20 0 0 -20 0 -20 20 0 20 0 0 -20 0 -20 -20
0 -20 0 0 -20 0 -20 20 0 20 0 0 -25 0 -25 25 0 25 0 0 -40 0 -40 -65 0 -65 0
0 -20 0 -20 -105 0 -105 0 0 20 0 20 -65 0 -65 0 0 20 0 20 -20 0 -20 0 0 20
0 20 -45 0 -45 0 0 25 0 25 -20 0 -20 0 0 20 0 20 -65 0 -65 0 0 20 0 20 -105
0 -105 0 0 -20 0 -20 -45 0 -45 0 0 -20 0 -20 -20 0 -20 0 0 20 0 20 20 0 20
0 0 20 0 20 45 0 45 0 0 20 0 20 105 0 105 0 0 -20 0 -20 65 0 65 0 0 -20 0
-20 20 0 20 0 0 -20 0 -20 45 0 45 0 0 -25 0 -25 20 0 20 0 0 -20 0 -20 65 0
65 0 0 -20 0 -20 40 0 40 0 0 20 0 20 -20 0 -20 0 0 20 0 20 -20 0 -20 0 0 25
0 25 -25 0 -25 0 0 -25 0 -25 -20 0 -20 0 0 25 0 25 -20 0 -20 0 0 20 0 20
-20 0 -20 0 0 20 0 20 -25 0 -25 0 0 20 0 20 -20 0 -20 0 0 25 0 25 20 0 20 0
0 -25z m-300 -125 l0 -20 25 0 25 0 0 -25 0 -25 20 0 20 0 0 25 0 25 20 0 20
0 0 -25 0 -25 20 0 20 0 0 -20 0 -20 25 0 25 0 0 -20 0 -20 20 0 20 0 0 -20 0
-20 45 0 45 0 0 -45 0 -45 20 0 20 0 0 -105 0 -105 -20 0 -20 0 0 -65 0 -65
-25 0 -25 0 0 -45 0 -45 -20 0 -20 0 0 -40 0 -40 -20 0 -20 0 0 -65 0 -65 -25
0 -25 0 0 65 0 65 25 0 25 0 0 40 0 40 20 0 20 0 0 45 0 45 -20 0 -20 0 0 -20
0 -20 -25 0 -25 0 0 20 0 20 -60 0 -60 0 0 20 0 20 -110 0 -110 0 0 -20 0 -20
-60 0 -60 0 0 -20 0 -20 -25 0 -25 0 0 20 0 20 25 0 25 0 0 20 0 20 60 0 60 0
0 20 0 20 -20 0 -20 0 0 25 0 25 20 0 20 0 0 20 0 20 -20 0 -20 0 0 20 0 20
20 0 20 0 0 25 0 25 -20 0 -20 0 0 20 0 20 20 0 20 0 0 20 0 20 -20 0 -20 0 0
20 0 20 20 0 20 0 0 25 0 25 -20 0 -20 0 0 20 0 20 -20 0 -20 0 0 20 0 20 -20
0 -20 0 0 20 0 20 20 0 20 0 0 -20 0 -20 20 0 20 0 0 20 0 20 20 0 20 0 0 25
0 25 25 0 25 0 0 -25 0 -25 20 0 20 0 0 25 0 25 20 0 20 0 0 20 0 20 20 0 20
0 0 -20z m-290 -195 l0 -45 20 0 20 0 0 -105 0 -105 -20 0 -20 0 0 -45 0 -45
-25 0 -25 0 0 45 0 45 25 0 25 0 0 105 0 105 -25 0 -25 0 0 45 0 45 25 0 25 0
0 -45z m810 -575 l0 -20 105 0 105 0 0 20 0 20 65 0 65 0 0 -20 0 -20 -65 0
-65 0 0 -20 0 -20 -105 0 -105 0 0 20 0 20 -65 0 -65 0 0 20 0 20 65 0 65 0 0
-20z m-170 -85 l0 -25 20 0 20 0 0 25 0 25 20 0 20 0 0 -25 0 -25 20 0 20 0 0
-20 0 -20 25 0 25 0 0 20 0 20 20 0 20 0 0 -20 0 -20 20 0 20 0 0 20 0 20 20
0 20 0 0 -20 0 -20 25 0 25 0 0 20 0 20 20 0 20 0 0 -20 0 -20 20 0 20 0 0 20
0 20 20 0 20 0 0 -20 0 -20 -20 0 -20 0 0 -20 0 -20 -20 0 -20 0 0 -20 0 -20
20 0 20 0 0 -25 0 -25 -20 0 -20 0 0 25 0 25 -20 0 -20 0 0 -25 0 -25 -25 0
-25 0 0 25 0 25 -20 0 -20 0 0 -25 0 -25 -20 0 -20 0 0 25 0 25 -20 0 -20 0 0
-25 0 -25 -25 0 -25 0 0 25 0 25 -20 0 -20 0 0 -25 0 -25 -20 0 -20 0 0 25 0
25 -20 0 -20 0 0 -25 0 -25 -25 0 -25 0 0 25 0 25 -20 0 -20 0 0 -25 0 -25
-20 0 -20 0 0 25 0 25 20 0 20 0 0 20 0 20 20 0 20 0 0 20 0 20 -20 0 -20 0 0
20 0 20 20 0 20 0 0 25 0 25 25 0 25 0 0 -25z"/>
<path d="M730 1170 l0 -20 20 0 20 0 0 -20 0 -20 20 0 20 0 0 -20 0 -20 20 0
20 0 0 20 0 20 25 0 25 0 0 -20 0 -20 20 0 20 0 0 -25 0 -25 20 0 20 0 0 -20
0 -20 20 0 20 0 0 -20 0 -20 25 0 25 0 0 20 0 20 20 0 20 0 0 20 0 20 20 0 20
0 0 -20 0 -20 20 0 20 0 0 20 0 20 -20 0 -20 0 0 25 0 25 -20 0 -20 0 0 20 0
20 20 0 20 0 0 20 0 20 -20 0 -20 0 0 20 0 20 -20 0 -20 0 0 -20 0 -20 -25 0
-25 0 0 20 0 20 -20 0 -20 0 0 -20 0 -20 -20 0 -20 0 0 20 0 20 -20 0 -20 0 0
-20 0 -20 -25 0 -25 0 0 20 0 20 -20 0 -20 0 0 -20 0 -20 -20 0 -20 0 0 20 0
20 -20 0 -20 0 0 -20z m120 -40 l0 -20 -20 0 -20 0 0 20 0 20 20 0 20 0 0 -20z
m90 0 l0 -20 20 0 20 0 0 20 0 20 20 0 20 0 0 -20 0 -20 25 0 25 0 0 20 0 20
20 0 20 0 0 -20 0 -20 -20 0 -20 0 0 -20 0 -20 20 0 20 0 0 -25 0 -25 -20 0
-20 0 0 -20 0 -20 -25 0 -25 0 0 20 0 20 -20 0 -20 0 0 25 0 25 -20 0 -20 0 0
20 0 20 -20 0 -20 0 0 20 0 20 20 0 20 0 0 -20z"/>
<path d="M980 1090 l0 -20 20 0 20 0 0 -25 0 -25 25 0 25 0 0 25 0 25 -25 0
-25 0 0 20 0 20 -20 0 -20 0 0 -20z"/>
<path d="M340 1045 l0 -25 -20 0 -20 0 0 -20 0 -20 -20 0 -20 0 0 20 0 20 -25
0 -25 0 0 -20 0 -20 -20 0 -20 0 0 -20 0 -20 20 0 20 0 0 -20 0 -20 25 0 25 0
0 -25 0 -25 -25 0 -25 0 0 -20 0 -20 25 0 25 0 0 -20 0 -20 -25 0 -25 0 0 -20
0 -20 25 0 25 0 0 -25 0 -25 -25 0 -25 0 0 -20 0 -20 25 0 25 0 0 -20 0 -20
-25 0 -25 0 0 -25 0 -25 25 0 25 0 0 25 0 25 20 0 20 0 0 -25 0 -25 20 0 20 0
0 25 0 25 20 0 20 0 0 -25 0 -25 25 0 25 0 0 -20 0 -20 20 0 20 0 0 20 0 20
20 0 20 0 0 -20 0 -20 20 0 20 0 0 -20 0 -20 25 0 25 0 0 20 0 20 20 0 20 0 0
-20 0 -20 20 0 20 0 0 20 0 20 -20 0 -20 0 0 20 0 20 20 0 20 0 0 25 0 25 25
0 25 0 0 20 0 20 -25 0 -25 0 0 20 0 20 25 0 25 0 0 25 0 25 -25 0 -25 0 0 20
0 20 25 0 25 0 0 20 0 20 -25 0 -25 0 0 20 0 20 -20 0 -20 0 0 25 0 25 -20 0
-20 0 0 20 0 20 -25 0 -25 0 0 20 0 20 -20 0 -20 0 0 20 0 20 -20 0 -20 0 0
-20 0 -20 -20 0 -20 0 0 20 0 20 -25 0 -25 0 0 25 0 25 -20 0 -20 0 0 -25z
m40 -45 l0 -20 25 0 25 0 0 -20 0 -20 20 0 20 0 0 20 0 20 20 0 20 0 0 -20 0
-20 20 0 20 0 0 -20 0 -20 25 0 25 0 0 -25 0 -25 20 0 20 0 0 -20 0 -20 20 0
20 0 0 -20 0 -20 -20 0 -20 0 0 -20 0 -20 20 0 20 0 0 -25 0 -25 -20 0 -20 0
0 -20 0 -20 20 0 20 0 0 -20 0 -20 -20 0 -20 0 0 -25 0 -25 -20 0 -20 0 0 -20
0 -20 -25 0 -25 0 0 20 0 20 -20 0 -20 0 0 25 0 25 -20 0 -20 0 0 -25 0 -25
-20 0 -20 0 0 25 0 25 -25 0 -25 0 0 20 0 20 -20 0 -20 0 0 -20 0 -20 -20 0
-20 0 0 20 0 20 -20 0 -20 0 0 20 0 20 20 0 20 0 0 25 0 25 -20 0 -20 0 0 20
0 20 20 0 20 0 0 20 0 20 -20 0 -20 0 0 20 0 20 20 0 20 0 0 25 0 25 -20 0
-20 0 0 20 0 20 -25 0 -25 0 0 20 0 20 25 0 25 0 0 -20 0 -20 20 0 20 0 0 20
0 20 20 0 20 0 0 20 0 20 20 0 20 0 0 -20z"/>
<path d="M340 960 l0 -20 -20 0 -20 0 0 -20 0 -20 20 0 20 0 0 -25 0 -25 -20
0 -20 0 0 -20 0 -20 20 0 20 0 0 -20 0 -20 -20 0 -20 0 0 -20 0 -20 20 0 20 0
0 -25 0 -25 -20 0 -20 0 0 -20 0 -20 20 0 20 0 0 20 0 20 20 0 20 0 0 -20 0
-20 25 0 25 0 0 -20 0 -20 20 0 20 0 0 20 0 20 20 0 20 0 0 -20 0 -20 20 0 20
0 0 -25 0 -25 25 0 25 0 0 25 0 25 20 0 20 0 0 20 0 20 -20 0 -20 0 0 20 0 20
20 0 20 0 0 25 0 25 -20 0 -20 0 0 20 0 20 20 0 20 0 0 20 0 20 -20 0 -20 0 0
20 0 20 -25 0 -25 0 0 25 0 25 -20 0 -20 0 0 20 0 20 -20 0 -20 0 0 -20 0 -20
-20 0 -20 0 0 20 0 20 -25 0 -25 0 0 20 0 20 -20 0 -20 0 0 -20z m40 -40 l0
-20 25 0 25 0 0 -25 0 -25 20 0 20 0 0 25 0 25 20 0 20 0 0 -25 0 -25 20 0 20
0 0 -20 0 -20 25 0 25 0 0 -20 0 -20 -25 0 -25 0 0 -20 0 -20 25 0 25 0 0 -25
0 -25 -25 0 -25 0 0 -20 0 -20 25 0 25 0 0 -20 0 -20 -25 0 -25 0 0 20 0 20
-20 0 -20 0 0 20 0 20 -20 0 -20 0 0 -20 0 -20 -20 0 -20 0 0 20 0 20 -25 0
-25 0 0 25 0 25 -20 0 -20 0 0 20 0 20 20 0 20 0 0 20 0 20 -20 0 -20 0 0 20
0 20 20 0 20 0 0 25 0 25 -20 0 -20 0 0 20 0 20 20 0 20 0 0 -20z"/>
<path d="M380 830 l0 -20 25 0 25 0 0 -20 0 -20 -25 0 -25 0 0 -20 0 -20 25 0
25 0 0 -25 0 -25 20 0 20 0 0 25 0 25 20 0 20 0 0 -25 0 -25 20 0 20 0 0 25 0
25 -20 0 -20 0 0 20 0 20 20 0 20 0 0 20 0 20 -20 0 -20 0 0 20 0 20 -20 0
-20 0 0 -20 0 -20 -20 0 -20 0 0 20 0 20 -25 0 -25 0 0 -20z m130 -40 l0 -20
-20 0 -20 0 0 -20 0 -20 -20 0 -20 0 0 20 0 20 20 0 20 0 0 20 0 20 20 0 20 0
0 -20z"/>
<path d="M680 190 l0 -20 25 0 25 0 0 -20 0 -20 -25 0 -25 0 0 -20 0 -20 25 0
25 0 0 20 0 20 20 0 20 0 0 -20 0 -20 20 0 20 0 0 20 0 20 20 0 20 0 0 -20 0
-20 25 0 25 0 0 20 0 20 20 0 20 0 0 -20 0 -20 20 0 20 0 0 20 0 20 20 0 20 0
0 -20 0 -20 25 0 25 0 0 20 0 20 20 0 20 0 0 20 0 20 -20 0 -20 0 0 -20 0 -20
-25 0 -25 0 0 20 0 20 -20 0 -20 0 0 -20 0 -20 -20 0 -20 0 0 20 0 20 -20 0
-20 0 0 -20 0 -20 -25 0 -25 0 0 20 0 20 -20 0 -20 0 0 20 0 20 -20 0 -20 0 0
-20 0 -20 -20 0 -20 0 0 20 0 20 -25 0 -25 0 0 -20z m130 -40 l0 -20 -20 0
-20 0 0 20 0 20 20 0 20 0 0 -20z"/>
<path d="M1240 1235 l0 -45 20 0 20 0 0 45 0 45 -20 0 -20 0 0 -45z"/>
<path d="M1240 65 l0 -65 20 0 20 0 0 65 0 65 -20 0 -20 0 0 -65z"/>
</g>
</svg>
