<?xml version="1.0" standalone="no"?>
<!DOCTYPE svg PUBLIC "-//W3C//DTD SVG 20010904//EN"
 "http://www.w3.org/TR/2001/REC-SVG-20010904/DTD/svg10.dtd">
<svg version="1.0" xmlns="http://www.w3.org/2000/svg"
 width="468pt" height="468pt" viewBox="0 0 468 468"
 preserveAspectRatio="xMidYMid meet">
<metadata>
Created by potrace 1.8, written by Peter Selinger 2001-2007
</metadata>
<g transform="translate(0,468) scale(0.365625,-0.365625)"
fill="#000000" stroke="none">
<path d="M880 1105 l0 -15 -25 0 -25 0 0 -10 0 -10 -15 0 -15 0 0 -15 0 -15
-40 0 -40 0 0 15 0 15 -55 0 -55 0 0 -15 0 -15 -25 0 -25 0 0 -15 0 -15 -14 0
-14 0 -6 -12 -6 -13 -6 13 -6 12 -29 0 -29 0 0 15 0 15 -10 0 -10 0 0 15 0 15
-15 0 -15 0 0 10 0 10 -80 0 -80 0 0 -10 0 -10 -15 0 -15 0 0 -15 0 -15 -10 0
-10 0 0 -40 0 -40 10 0 10 0 0 -15 0 -15 15 0 15 0 0 -10 0 -10 25 0 25 0 0
-15 0 -15 15 0 15 0 0 -15 0 -15 25 0 25 0 0 -10 0 -10 15 0 15 0 0 -30 0 -30
-11 0 -10 0 -15 -14 -14 -15 0 -195 0 -196 10 0 10 0 0 -40 0 -40 15 0 15 0 0
-30 0 -30 11 0 10 0 15 -14 14 -15 0 -10 0 -11 30 0 30 0 0 -15 0 -15 145 0
145 0 0 15 0 15 25 0 25 0 0 15 0 15 15 0 15 0 0 10 0 10 25 0 25 0 0 15 0 15
-10 0 -10 0 0 15 0 15 10 0 10 0 0 -15 0 -15 15 0 15 0 0 15 0 15 15 0 15 0 0
25 0 25 10 0 10 0 0 40 0 40 15 0 15 0 0 200 0 200 -65 0 -65 0 0 11 0 10 14
15 15 14 10 0 11 0 0 15 0 15 15 0 15 0 0 11 0 10 14 15 15 14 10 0 11 0 0 15
0 15 15 0 15 0 0 15 0 15 10 0 10 0 0 36 0 35 -14 15 -15 14 -10 0 -11 0 0 15
0 15 -80 0 -80 0 0 -15z m160 -25 l0 -10 15 0 15 0 0 -40 0 -40 -15 0 -15 0 0
-15 0 -15 -15 0 -15 0 0 -11 0 -10 -14 -15 -15 -14 -10 0 -11 0 0 -15 0 -15
-15 0 -15 0 0 -11 0 -10 -14 -15 -15 -14 -65 0 -66 0 0 -15 0 -15 -90 0 -90 0
0 15 0 15 10 0 10 0 0 25 0 25 15 0 15 0 0 25 0 25 -15 0 -15 0 0 15 0 15 15
0 15 0 0 15 0 15 25 0 25 0 0 -30 0 -30 -10 0 -10 0 0 -36 0 -35 14 -15 15
-14 35 0 36 0 0 10 0 10 -25 0 -25 0 0 15 0 15 -15 0 -15 0 0 25 0 25 15 0 15
0 0 15 0 15 15 0 15 0 0 -40 0 -40 10 0 10 0 0 -15 0 -15 40 0 40 0 0 15 0 15
30 0 30 0 0 11 0 10 14 15 15 14 10 0 11 0 0 15 0 15 15 0 15 0 0 11 0 10 14
15 15 14 10 0 11 0 0 15 0 15 -15 0 -15 0 0 15 0 15 -50 0 -50 0 0 -15 0 -15
-30 0 -30 0 0 -11 0 -10 -14 -15 -15 -14 -10 0 -11 0 0 25 0 25 15 0 15 0 0
15 0 15 25 0 25 0 0 10 0 10 80 0 80 0 0 -10z m-640 -25 l0 -15 15 0 15 0 0
-11 0 -10 14 -15 15 -14 25 0 26 0 0 -15 0 -15 -15 0 -15 0 0 -15 0 -15 -15 0
-15 0 0 15 0 15 -10 0 -10 0 0 15 0 15 -15 0 -15 0 0 10 0 10 -15 0 -15 0 0
15 0 15 -50 0 -50 0 0 -40 0 -40 25 0 25 0 0 -15 0 -15 15 0 15 0 0 -10 0 -10
25 0 25 0 0 -15 0 -15 15 0 15 0 0 15 0 15 -15 0 -15 0 0 10 0 10 -25 0 -25 0
0 15 0 15 -15 0 -15 0 0 15 0 15 -15 0 -15 0 0 10 0 10 40 0 40 0 0 -10 0 -10
15 0 15 0 0 -15 0 -15 15 0 15 0 0 -15 0 -15 10 0 10 0 0 -25 0 -25 -10 0 -10
0 0 -15 0 -15 50 0 50 0 0 15 0 15 15 0 15 0 0 25 0 25 25 0 25 0 0 -25 0 -25
-10 0 -10 0 0 -25 0 -25 -80 0 -80 0 0 10 0 10 -30 0 -30 0 0 15 0 15 -25 0
-25 0 0 15 0 15 -15 0 -15 0 0 10 0 10 -25 0 -25 0 0 15 0 15 -15 0 -15 0 0
40 0 40 15 0 15 0 0 15 0 15 80 0 80 0 0 -15z m320 -30 l0 -15 25 0 25 0 0
-10 0 -10 15 0 15 0 0 -15 0 -15 15 0 15 0 0 -15 0 -15 10 0 10 0 0 15 0 15
-10 0 -10 0 0 11 0 10 14 15 15 14 25 0 26 0 0 15 0 15 50 0 50 0 0 -11 0 -10
-14 -15 -15 -14 -10 0 -11 0 0 -15 0 -15 -15 0 -15 0 0 -11 0 -10 -14 -15 -15
-14 -25 0 -26 0 0 -15 0 -15 -25 0 -25 0 0 25 0 25 -15 0 -15 0 0 15 0 15 -10
0 -10 0 0 15 0 15 -30 0 -30 0 0 10 0 10 -25 0 -25 0 0 -10 0 -10 -25 0 -25 0
0 -15 0 -15 -15 0 -15 0 0 -15 0 -15 -15 0 -15 0 0 -25 0 -25 -25 0 -25 0 0
25 0 25 15 0 15 0 0 15 0 15 10 0 10 0 0 15 0 15 15 0 15 0 0 10 0 10 25 0 25
0 0 15 0 15 55 0 55 0 0 -15z m-210 -240 l0 -15 -15 0 -15 0 0 15 0 15 15 0
15 0 0 -15z m340 -10 l0 -25 15 0 15 0 0 10 0 10 51 0 50 0 15 -14 14 -15 0
-170 0 -171 -10 0 -10 0 0 -40 0 -40 -15 0 -15 0 0 -25 0 -25 -15 0 -15 0 0
40 0 40 15 0 15 0 0 185 0 185 15 0 15 0 0 15 0 15 -15 0 -15 0 0 -15 0 -15
-295 0 -295 0 0 15 0 15 15 0 15 0 0 10 0 10 25 0 25 0 0 -10 0 -10 40 0 40 0
0 10 0 10 135 0 135 0 0 -10 0 -10 15 0 15 0 0 25 0 25 10 0 10 0 0 -25z m80
-255 l0 -170 -10 0 -10 0 0 -40 0 -40 -15 0 -15 0 0 -30 0 -30 -15 0 -15 0 0
-10 0 -10 -25 0 -25 0 0 -15 0 -15 -145 0 -145 0 0 15 0 15 -26 0 -25 0 -15
14 -14 15 0 25 0 26 -15 0 -15 0 0 40 0 40 -15 0 -15 0 0 170 0 170 280 0 280
0 0 -170z"/>
<path d="M590 575 l0 -15 -15 0 -15 0 0 -15 0 -15 -15 0 -15 0 0 -40 0 -40 15
0 15 0 0 -10 0 -10 15 0 15 0 0 -40 0 -40 -15 0 -15 0 0 -40 0 -40 80 0 80 0
0 25 0 25 -15 0 -15 0 0 55 0 55 15 0 15 0 0 10 0 10 15 0 15 0 0 40 0 40 -15
0 -15 0 0 15 0 15 -15 0 -15 0 0 15 0 15 -50 0 -50 0 0 -15z"/>
</g>
</svg>
