<?xml version="1.0" standalone="no"?>
<!DOCTYPE svg PUBLIC "-//W3C//DTD SVG 20010904//EN"
 "http://www.w3.org/TR/2001/REC-SVG-20010904/DTD/svg10.dtd">
<svg version="1.0" xmlns="http://www.w3.org/2000/svg"
 width="468pt" height="468pt" viewBox="0 0 468 468"
 preserveAspectRatio="xMidYMid meet">
<metadata>
Created by potrace 1.8, written by Peter Selinger 2001-2007
</metadata>
<g transform="translate(0,468) scale(0.365625,-0.365625)"
fill="#000000" stroke="none">
<path d="M0 1260 l0 -20 30 0 30 0 0 -10 0 -10 19 0 19 0 5 13 4 12 8 -7 8 -8
-24 -21 -24 -22 13 -4 12 -5 0 -15 0 -14 -15 -16 -16 -15 -7 7 -7 8 13 4 12 5
0 9 0 9 -16 0 -15 0 -16 15 -15 16 7 7 8 7 4 -12 5 -13 9 0 9 0 0 20 0 20 -16
0 -15 0 -16 -16 -16 -16 14 -10 14 -10 -12 -5 -13 -5 0 -9 0 -9 20 0 20 0 0
-8 0 -8 -20 -14 -20 -14 0 -35 0 -34 22 -18 21 -19 -21 -19 -22 -18 0 -37 0
-36 10 0 10 0 0 30 0 30 20 0 20 0 0 -20 0 -20 10 0 10 0 0 -19 0 -19 13 -6
12 -6 -12 -6 -13 -6 0 -15 0 -14 -15 -15 -15 -15 -15 15 -15 15 0 25 0 26 -10
0 -10 0 0 -40 0 -40 10 0 10 0 0 -20 0 -20 10 0 10 0 0 10 0 10 30 0 30 0 0
-5 0 -6 -26 -26 -26 -26 -8 13 -8 13 -17 -17 -17 -17 6 -7 7 -6 10 14 11 15 5
-12 5 -13 15 0 16 0 18 21 18 21 28 -28 27 -28 -12 -4 -12 -4 0 -19 0 -19 10
0 10 0 0 10 0 10 10 0 10 0 0 -40 0 -40 -20 0 -20 0 0 -10 0 -10 -20 0 -20 0
0 6 0 5 14 15 15 14 15 0 16 0 0 5 0 6 -25 24 -24 25 -6 0 -5 0 0 -20 0 -20
-6 0 -5 0 -17 17 -17 16 13 5 12 4 0 9 0 9 -20 0 -20 0 0 -20 0 -20 10 0 10 0
0 -10 0 -10 -20 0 -20 0 0 -10 0 -10 30 0 30 0 0 -6 0 -6 -40 -38 -40 -38 0
-6 0 -6 20 0 20 0 0 10 0 10 20 0 20 0 0 -20 0 -20 -30 0 -30 0 0 -20 0 -20
10 0 10 0 0 10 0 10 30 0 30 0 0 25 0 26 26 26 26 26 10 -14 10 -14 5 13 5 12
29 0 29 0 0 -10 0 -10 20 0 20 0 0 10 0 10 -20 0 -20 0 0 10 0 10 19 0 19 0 5
13 5 12 10 -14 10 -14 16 16 16 16 0 5 0 6 -20 0 -20 0 0 20 0 20 -20 0 -20 0
0 -9 0 -9 12 -5 13 -4 -9 -9 -9 -9 -4 13 -5 12 -29 0 -29 0 0 20 0 20 -10 0
-10 0 0 20 0 20 -20 0 -20 0 0 20 0 20 8 0 8 0 14 -20 14 -20 18 0 18 0 0 26
0 27 21 18 21 18 -16 16 -16 16 -17 -16 -16 -17 13 -8 13 -8 -16 -16 -16 -16
-5 0 -6 0 0 40 0 40 10 0 10 0 0 10 0 10 -20 0 -20 0 0 -26 0 -25 -14 -15 -15
-14 -11 0 -11 0 -15 14 -14 15 0 5 0 6 20 0 20 0 0 9 0 9 -12 6 -13 6 12 6 13
6 0 19 0 19 20 0 20 0 0 -10 0 -10 20 0 20 0 0 6 0 7 -22 19 -22 19 14 10 15
11 -12 5 -13 5 0 19 0 19 6 0 7 0 20 -22 20 -23 4 13 5 12 9 0 9 0 0 -16 0
-17 -22 -19 -22 -19 14 -10 15 -11 -12 -5 -13 -5 0 -9 0 -9 30 0 30 0 0 -16 0
-15 14 -15 15 -14 5 0 6 0 0 16 0 16 -30 28 -30 28 0 16 0 16 9 0 9 0 5 -12 4
-13 9 9 9 9 -12 4 -13 5 0 15 0 14 14 15 15 14 35 0 36 0 0 10 0 10 -39 0 -39
0 -6 -12 -6 -13 -6 13 -6 12 -19 0 -19 0 0 -10 0 -10 -10 0 -10 0 0 30 0 30
10 0 10 0 0 -10 0 -10 19 0 19 0 5 13 5 12 11 -15 10 -14 8 7 7 8 -14 10 -15
9 15 9 14 10 -8 8 -9 8 -4 -12 -5 -13 -9 0 -9 0 0 20 0 20 -20 0 -20 0 0 -10
0 -10 -20 0 -20 0 0 10 0 10 10 0 10 0 0 10 0 10 -20 0 -20 0 0 10 0 10 -10 0
-10 0 0 -20 0 -20 10 0 10 0 0 -10 0 -10 -29 0 -29 0 -5 -12 -4 -13 -8 7 -8 8
21 19 22 18 0 16 0 15 13 5 12 5 -14 10 -14 10 17 17 17 17 7 -6 6 -7 -13 -9
-14 -8 16 -16 16 -16 35 0 36 0 0 6 0 7 -22 20 -23 20 13 4 12 5 0 29 0 29
-10 0 -10 0 0 10 0 10 30 0 30 0 0 -10 0 -10 -10 0 -10 0 0 -10 0 -10 20 0 20
0 0 20 0 20 10 0 10 0 0 -10 0 -10 40 0 40 0 0 -10 0 -10 -19 0 -19 0 -5 -12
-5 -13 -11 15 -10 14 -8 -8 -8 -9 13 -4 12 -5 0 -9 0 -9 -50 0 -50 0 0 -10 0
-10 30 0 30 0 0 -16 0 -15 14 -15 15 -14 15 0 16 0 0 -10 0 -10 20 0 20 0 0
10 0 10 20 0 20 0 0 10 0 10 15 0 16 0 26 -26 26 -26 -14 -8 -13 -9 7 -8 8 -7
9 13 8 14 16 -16 16 -16 0 -5 0 -6 -39 0 -39 0 -5 -12 -4 -13 -32 34 -32 34
-5 -6 -6 -6 37 -37 37 -37 10 14 10 14 5 -12 5 -13 27 0 27 0 14 20 14 20 8 0
8 0 0 -19 0 -19 13 -5 12 -5 -14 -10 -14 -10 26 -26 26 -26 16 0 15 0 0 10 0
10 -20 0 -20 0 0 20 0 20 10 0 10 0 0 -10 0 -10 10 0 10 0 0 30 0 30 -10 0
-10 0 0 40 0 40 -30 0 -30 0 0 -10 0 -10 -26 0 -25 0 -15 14 -14 15 0 11 0 11
14 15 15 14 5 0 6 0 0 -20 0 -20 -10 0 -10 0 0 -10 0 -10 30 0 30 0 0 9 0 9
-12 5 -13 5 15 11 14 10 -24 22 -25 22 13 4 12 5 0 9 0 9 -29 0 -29 0 -4 -12
-4 -12 -27 26 -27 27 0 6 0 5 20 0 20 0 0 -10 0 -10 36 0 37 0 19 -22 19 -22
9 13 8 14 16 -16 16 -16 0 -12 0 -12 -22 -18 -21 -19 8 -8 8 -7 4 13 5 12 25
0 26 0 18 -22 19 -21 7 7 7 7 -14 10 -15 11 13 5 12 5 0 18 0 18 13 5 12 4 -9
9 -9 9 -4 -12 -5 -13 -25 0 -24 0 -15 14 -14 15 0 15 0 16 -19 0 -19 0 -5 13
-5 12 -12 -15 -12 -15 -5 13 -5 12 -39 0 -39 0 0 20 0 20 -10 0 -10 0 0 -10 0
-10 -19 0 -19 0 -6 -12 -6 -13 -6 13 -6 12 -18 0 -18 0 -5 13 -5 12 -12 -15
-12 -15 -5 13 -5 12 -18 0 -18 0 -6 -12 -6 -13 -6 13 -6 12 -29 0 -29 0 0 -10
0 -10 -50 0 -50 0 0 10 0 10 -50 0 -50 0 0 -20z m180 -40 l0 -20 -20 0 -20 0
0 20 0 20 20 0 20 0 0 -20z m244 -32 l6 -13 6 13 6 12 9 0 9 0 0 -20 0 -20 20
0 20 0 0 10 0 10 10 0 10 0 0 -16 0 -15 -15 -16 -16 -15 -19 22 -20 23 -21
-24 -22 -24 -4 13 -5 12 -9 0 -9 0 0 -20 0 -20 -20 0 -20 0 0 20 0 20 -20 0
-20 0 0 10 0 10 28 0 28 0 14 20 14 20 17 0 17 0 6 -12z m-384 -118 l0 -30
-10 0 -10 0 0 30 0 30 10 0 10 0 0 -30z m40 20 l0 -10 -10 0 -10 0 0 10 0 10
10 0 10 0 0 -10z m540 -69 l0 -19 13 -5 12 -4 -7 -8 -7 -7 -16 15 -15 16 0 15
0 16 10 0 10 0 0 -19z m-540 -11 l0 -10 -10 0 -10 0 0 10 0 10 10 0 10 0 0
-10z m80 0 l0 -10 -10 0 -10 0 0 10 0 10 10 0 10 0 0 -10z m-80 -40 l0 -10
-10 0 -10 0 0 10 0 10 10 0 10 0 0 -10z m60 0 l0 -10 -10 0 -10 0 0 10 0 10
10 0 10 0 0 -10z m80 -400 l0 -10 -10 0 -10 0 0 10 0 10 10 0 10 0 0 -10z"/>
<path d="M680 1270 l0 -10 20 0 20 0 0 10 0 10 -20 0 -20 0 0 -10z"/>
<path d="M740 1260 l0 -20 -10 0 -10 0 0 -10 0 -10 20 0 20 0 0 30 0 30 -10 0
-10 0 0 -20z"/>
<path d="M780 1270 l0 -10 10 0 10 0 0 10 0 10 -10 0 -10 0 0 -10z"/>
<path d="M860 1260 l0 -20 -9 0 -9 0 -5 13 -4 12 -9 -9 -9 -9 13 -4 12 -5 0
-28 0 -28 12 -4 12 -4 -26 -27 -27 -27 -6 0 -5 0 0 20 0 20 10 0 10 0 0 20 0
20 -10 0 -10 0 0 20 0 20 -10 0 -10 0 0 -19 0 -19 -12 -5 -13 -5 15 -11 14
-10 -22 -19 -22 -19 0 -17 0 -16 16 0 15 0 15 -14 14 -15 0 -15 0 -16 10 0 10
0 0 -20 0 -20 -19 0 -19 0 -6 13 -6 12 -6 -12 -6 -13 -9 0 -9 0 0 15 0 16 -35
34 -34 35 -6 0 -5 0 0 -40 0 -40 9 0 9 0 5 13 4 12 9 -9 9 -9 -12 -4 -13 -5 0
-19 0 -19 9 0 9 0 5 13 4 12 9 -9 9 -9 -12 -4 -13 -5 0 -19 0 -19 -10 0 -10 0
0 -18 0 -18 -20 -14 -20 -14 0 -8 0 -8 19 0 19 0 6 -12 6 -13 6 13 6 12 34 0
35 0 24 25 25 24 0 6 0 5 -20 0 -20 0 0 -10 0 -10 -20 0 -20 0 0 10 0 10 20 0
20 0 0 10 0 10 -10 0 -10 0 0 20 0 20 6 0 7 0 18 -22 19 -21 8 8 7 8 -12 4
-13 5 0 9 0 9 40 0 40 0 0 -10 0 -10 -20 0 -20 0 0 -10 0 -10 20 0 20 0 0 -30
0 -30 -9 0 -9 0 -6 13 -6 12 -6 -12 -6 -13 -15 0 -15 0 -28 -30 -28 -30 -15 0
-15 0 -5 13 -5 12 -12 -15 -12 -15 -5 13 -5 12 -25 0 -24 0 -15 14 -14 15 0
15 0 16 -20 0 -20 0 0 30 0 30 10 0 10 0 0 10 0 10 -20 0 -20 0 0 -29 0 -29
-12 -5 -13 -4 43 -41 42 -40 0 -16 0 -16 -20 0 -20 0 0 20 0 20 -10 0 -10 0 0
20 0 20 -10 0 -10 0 0 -10 0 -10 -16 0 -15 0 -15 14 -14 15 0 14 0 15 -12 5
-13 5 15 11 14 10 -7 8 -8 7 -9 -13 -8 -14 -16 16 -16 16 0 11 0 11 -15 16
-16 15 -7 -7 -7 -8 13 -4 12 -5 0 -15 0 -15 30 -28 30 -28 0 -16 0 -16 -10 0
-10 0 0 -20 0 -20 40 0 40 0 0 -6 0 -7 -22 -18 -21 -19 6 -7 7 -6 19 21 18 22
12 0 12 0 16 -16 16 -16 -14 -10 -14 -10 13 -5 12 -5 0 -9 0 -9 -19 0 -19 0
-6 13 -6 12 -6 -12 -6 -13 -19 0 -19 0 0 -20 0 -20 -10 0 -10 0 0 -20 0 -20 9
0 9 0 5 13 4 12 8 -7 7 -7 -15 -16 -16 -15 -15 0 -16 0 0 10 0 10 -20 0 -20 0
0 15 0 16 -36 35 -35 36 -6 -6 -6 -6 21 -19 22 -18 0 -26 0 -25 13 -5 12 -4
-7 -8 -8 -8 -19 21 -18 22 -7 0 -6 0 0 -16 0 -15 14 -15 15 -14 15 0 16 0 0
-30 0 -30 20 0 20 0 0 10 0 10 10 0 10 0 0 -20 0 -20 -20 0 -20 0 0 -10 0 -10
19 0 19 0 5 13 5 12 11 -15 10 -14 8 8 8 9 -12 4 -13 5 0 19 0 19 -10 0 -10 0
0 20 0 20 19 0 19 0 5 13 5 12 11 -15 10 -14 21 23 20 24 7 -6 6 -7 -21 -19
-22 -18 0 -17 0 -16 -9 0 -9 0 -5 13 -4 12 -8 -7 -7 -7 17 -17 17 -17 10 14
10 14 5 -12 5 -13 19 0 19 0 0 -16 0 -15 17 -17 16 -17 5 13 4 12 19 0 19 0 0
6 0 5 -14 15 -15 14 -21 0 -21 0 -15 15 -15 15 15 15 15 15 15 0 16 0 0 -10 0
-10 -10 0 -10 0 0 -10 0 -10 40 0 40 0 0 -9 0 -9 -12 -5 -13 -5 15 -11 15 -11
-14 -9 -14 -9 26 -26 26 -26 16 0 15 0 0 40 0 40 10 0 10 0 0 20 0 20 20 0 20
0 0 9 0 9 -12 5 -13 4 9 9 9 9 4 -12 5 -13 9 0 9 0 0 16 0 17 -22 19 -22 19
14 10 15 11 -12 5 -13 5 0 25 0 24 -16 16 -16 16 -9 -14 -9 -14 -9 15 -10 14
-8 -8 -8 -9 13 -4 12 -5 0 -29 0 -29 -20 0 -20 0 0 40 0 40 -10 0 -10 0 0 -10
0 -10 -20 0 -20 0 0 -20 0 -20 10 0 10 0 0 10 0 10 10 0 10 0 0 -20 0 -20 10
0 10 0 0 -20 0 -20 -10 0 -10 0 0 -10 0 -10 20 0 20 0 0 16 0 15 14 15 15 14
25 0 26 0 0 -6 0 -5 -14 -15 -15 -14 -11 0 -11 0 -15 -14 -14 -15 0 -15 0 -16
6 0 6 0 29 31 30 32 6 -6 6 -6 -32 -30 -31 -29 0 -16 0 -16 -10 0 -10 0 0 15
0 16 -36 36 -36 36 -9 -14 -8 -13 -7 6 -6 7 17 17 17 17 8 -14 9 -13 7 6 6 7
-18 18 -17 18 -5 -13 -4 -12 -9 0 -9 0 0 39 0 39 -12 5 -13 4 8 9 8 8 10 -14
11 -15 5 13 5 12 19 0 19 0 0 20 0 20 10 0 10 0 0 -10 0 -10 19 0 19 0 5 -12
5 -13 12 15 12 15 5 -12 5 -13 18 0 18 0 5 -12 4 -13 9 9 9 9 -12 4 -13 5 0
29 0 29 30 0 30 0 0 -10 0 -10 20 0 20 0 0 10 0 10 36 0 35 0 15 -14 14 -15 0
-15 0 -16 -10 0 -10 0 0 20 0 20 -10 0 -10 0 0 -20 0 -20 10 0 10 0 0 -20 0
-20 -9 0 -9 0 -5 13 -4 12 -8 -7 -8 -8 21 -19 22 -18 0 -17 0 -16 -20 0 -20 0
0 16 0 15 -14 15 -15 14 -15 0 -16 0 0 -10 0 -10 -20 0 -20 0 0 10 0 10 -20 0
-20 0 0 -6 0 -7 23 -20 22 -20 -12 -4 -13 -5 0 -19 0 -19 10 0 10 0 0 -18 0
-18 -20 -14 -20 -14 0 -8 0 -8 20 0 20 0 0 20 0 20 6 0 7 0 19 -22 19 -22 9
14 9 14 8 -8 8 -9 -12 -4 -13 -5 0 -9 0 -9 20 0 20 0 0 16 0 15 15 16 16 15 7
-7 7 -8 -12 -4 -13 -5 0 -29 0 -29 -28 0 -28 0 -14 -20 -14 -20 -38 0 -38 0 0
-15 0 -16 25 -24 24 -25 6 0 5 0 0 20 0 20 10 0 10 0 0 -16 0 -17 -22 -20 -23
-20 13 -4 12 -5 0 -9 0 -9 -16 0 -15 0 -15 14 -14 15 0 14 0 15 -12 5 -13 5
15 12 15 12 -12 5 -13 5 0 19 0 19 -6 0 -5 0 -17 -17 -17 -16 13 -5 12 -4 0
-19 0 -19 10 0 10 0 0 -16 0 -15 -16 -16 -16 -16 -9 14 -9 14 -11 -15 -11 -15
-5 13 -5 12 -19 0 -19 0 0 -6 0 -5 14 -15 15 -14 25 0 26 0 0 -20 0 -20 -10 0
-10 0 0 -30 0 -30 -10 0 -10 0 0 -20 0 -20 -10 0 -10 0 0 -20 0 -20 20 0 20 0
0 10 0 10 16 0 15 0 15 -14 14 -15 0 -5 0 -6 -19 0 -19 0 -6 13 -6 12 -6 -12
-6 -13 -68 0 -68 0 -6 13 -6 12 -6 -12 -6 -13 -9 0 -9 0 0 20 0 20 10 0 10 0
0 20 0 20 -10 0 -10 0 0 -16 0 -15 -17 -17 -16 -17 -5 13 -4 12 -19 0 -19 0 0
-20 0 -20 26 0 25 0 15 -14 14 -15 0 -21 0 -21 -16 -16 -16 -16 -9 14 -9 14
-11 -15 -11 -15 -5 13 -5 12 -19 0 -19 0 0 -20 0 -20 29 0 29 0 5 13 5 12 11
-15 11 -15 10 15 10 15 10 -15 10 -15 10 15 10 15 10 -15 10 -15 10 15 10 15
11 -15 11 -15 5 13 5 12 18 0 18 0 4 -12 5 -13 18 18 18 19 -14 9 -14 9 15 9
14 10 -8 8 -9 8 -4 -12 -5 -13 -19 0 -19 0 0 -10 0 -10 -19 0 -19 0 -6 13 -6
12 -6 -12 -6 -13 -18 0 -18 0 -5 -12 -4 -13 -8 7 -8 8 24 21 24 22 -12 4 -13
5 0 9 0 9 19 0 19 0 6 -12 6 -13 6 13 6 12 49 0 49 0 0 -10 0 -10 19 0 19 0 6
13 6 12 6 -12 6 -13 19 0 19 0 0 10 0 10 20 0 20 0 0 -10 0 -10 -20 0 -20 0 0
-5 0 -6 25 -24 24 -25 6 0 5 0 0 40 0 40 -10 0 -10 0 0 20 0 20 9 0 9 0 4 -12
5 -13 19 19 19 19 -13 5 -12 4 0 9 0 9 18 0 18 0 14 -20 14 -20 18 0 18 0 0
-9 0 -9 -12 -5 -13 -4 9 -9 9 -9 4 13 5 12 15 0 14 0 15 -14 14 -15 0 -15 0
-16 -10 0 -10 0 0 20 0 20 -10 0 -10 0 0 -16 0 -17 -22 -18 -21 -19 7 -7 7 -7
9 14 9 14 19 -22 19 -22 7 0 6 0 0 20 0 20 40 0 40 0 0 10 0 10 18 0 18 0 14
20 14 20 8 0 8 0 0 -20 0 -20 6 0 5 0 15 15 15 15 -15 15 -15 15 -14 0 -15 0
-5 -12 -5 -13 -11 15 -10 14 -8 -7 -7 -8 14 -9 14 -9 -6 -7 -7 -6 -16 16 -16
16 17 17 17 18 5 -13 4 -12 9 0 9 0 0 30 0 30 -9 0 -9 0 -6 -12 -6 -13 -6 13
-6 12 -19 0 -19 0 0 -20 0 -20 -8 0 -8 0 -14 20 -14 20 -17 0 -17 0 -5 -12 -4
-13 -9 8 -8 8 14 9 14 9 -7 7 -7 7 -20 -23 -20 -23 -30 33 -30 33 -19 -22 -18
-21 -17 0 -16 0 0 -16 0 -15 -14 -15 -15 -14 -15 0 -16 0 0 10 0 10 20 0 20 0
0 5 0 6 -35 34 -34 35 -16 0 -15 0 0 20 0 20 20 0 20 0 0 9 0 9 -12 5 -13 4 9
9 9 9 4 -12 5 -13 29 0 29 0 0 -15 0 -16 25 -25 25 -25 25 25 25 25 0 11 0 11
14 15 15 14 15 0 16 0 0 10 0 10 -10 0 -10 0 0 10 0 10 20 0 20 0 0 -10 0 -10
16 0 17 0 19 -22 19 -22 10 14 11 15 5 -12 5 -13 9 0 9 0 0 20 0 20 -10 0 -10
0 0 10 0 10 20 0 20 0 0 -30 0 -30 10 0 10 0 0 20 0 20 9 0 9 0 6 -12 6 -13 6
13 6 12 9 0 9 0 0 -20 0 -20 10 0 10 0 0 -20 0 -20 20 0 20 0 0 20 0 20 -20 0
-20 0 0 10 0 10 20 0 20 0 0 16 0 15 -15 16 -16 15 -7 -6 -6 -7 14 -9 14 -9
-6 -7 -7 -6 -17 16 -16 17 21 18 21 18 0 16 0 15 -12 5 -13 4 9 9 9 9 4 -12 5
-13 9 0 9 0 0 39 0 39 -12 5 -13 5 15 12 15 12 -12 5 -13 5 0 19 0 19 -10 0
-10 0 0 10 0 10 20 0 20 0 0 19 0 19 -12 6 -13 6 13 6 12 6 0 59 0 59 -10 0
-10 0 0 -40 0 -40 -20 0 -20 0 0 9 0 9 13 5 12 5 -15 12 -15 12 13 5 12 5 0 9
0 9 -15 0 -16 0 -26 26 -25 25 7 7 8 7 4 -12 5 -13 19 0 19 0 0 -10 0 -10 16
0 15 0 15 14 14 15 0 25 0 26 -30 0 -30 0 0 -6 0 -7 22 -18 21 -19 -8 -8 -8
-7 -4 13 -5 12 -19 0 -19 0 0 29 0 29 13 6 12 6 -12 6 -13 6 0 19 0 19 -19 0
-19 0 -6 -12 -6 -13 -6 13 -6 12 -19 0 -19 0 0 -10 0 -10 19 0 19 0 5 -12 5
-13 10 14 10 14 17 -16 16 -17 -26 -25 -25 -26 -15 15 -15 15 0 15 0 16 -10 0
-10 0 0 -19 0 -19 -12 -5 -13 -4 8 -9 8 -8 9 13 8 14 16 -16 16 -16 0 -15 0
-16 -9 0 -9 0 -5 13 -5 12 -10 -14 -10 -14 -16 16 -16 16 0 34 0 35 13 5 12 5
-15 12 -15 12 13 5 12 5 0 27 0 27 -20 14 -20 14 0 17 0 17 -12 5 -13 5 15 12
15 12 -12 5 -13 5 0 19 0 19 -20 0 -20 0 0 -20 0 -20 20 0 20 0 0 -6 0 -5 -14
-15 -15 -14 -5 0 -6 0 0 20 0 20 -10 0 -10 0 0 16 0 15 14 15 15 14 23 0 24 0
14 -20 14 -20 18 0 18 0 0 10 0 10 -16 0 -15 0 -16 16 -16 16 14 8 13 9 -8 8
-9 8 -4 -12 -5 -13 -9 0 -9 0 0 20 0 20 10 0 10 0 0 20 0 20 -10 0 -10 0 0
-16 0 -15 -17 -17 -16 -17 -5 13 -4 12 -19 0 -19 0 0 -10 0 -10 -40 0 -40 0 0
10 0 10 10 0 10 0 0 20 0 20 -10 0 -10 0 0 -20z m-60 -70 l0 -10 -10 0 -10 0
0 10 0 10 10 0 10 0 0 -10z m80 -40 l0 -10 15 0 16 0 25 -25 25 -25 -15 -15
-15 -15 -25 0 -26 0 0 19 0 19 13 5 12 4 -8 9 -8 8 -9 -13 -8 -14 -17 16 -16
17 13 14 13 15 8 1 7 0 0 -10z m-100 -20 l0 -10 -10 0 -10 0 0 10 0 10 10 0
10 0 0 -10z m80 -70 l0 -20 -6 0 -5 0 -15 14 -14 15 0 5 0 6 20 0 20 0 0 -20z
m175 -25 l25 -24 0 -6 0 -5 -20 0 -20 0 0 10 0 10 -26 0 -25 0 -15 -14 -14
-15 0 -5 0 -6 20 0 20 0 0 10 0 10 20 0 20 0 0 -19 0 -19 -12 -5 -13 -5 15
-11 14 -10 -6 -7 -7 -6 -17 17 -17 17 14 8 13 9 -6 7 -7 6 -16 -15 -15 -16 0
-15 0 -16 -10 0 -10 0 0 28 0 28 -20 14 -20 14 0 18 0 18 20 0 20 0 0 -10 0
-10 10 0 10 0 0 20 0 20 25 0 26 0 24 -25z m-175 -25 l0 -10 -10 0 -10 0 0 10
0 10 10 0 10 0 0 -10z m60 -60 l0 -10 -10 0 -10 0 0 10 0 10 10 0 10 0 0 -10z
m-200 -30 l0 -20 -10 0 -10 0 0 20 0 20 10 0 10 0 0 -20z m260 -40 l0 -20 -10
0 -10 0 0 10 0 10 -19 0 -19 0 -5 -12 -4 -13 -8 7 -7 7 13 15 14 15 28 1 27 0
0 -20z m60 -10 l0 -30 -10 0 -10 0 0 30 0 30 10 0 10 0 0 -30z m-174 -4 l14
-15 0 -5 0 -6 -20 0 -20 0 0 20 0 20 6 0 5 0 15 -14z m214 -76 l0 -30 10 0 10
0 0 30 0 30 10 0 10 0 0 -10 0 -10 20 0 20 0 0 -8 0 -8 -20 -14 -20 -14 0 -17
0 -17 -12 -4 -13 -5 17 -16 17 -17 15 0 16 0 0 10 0 10 10 0 10 0 0 -20 0 -20
10 0 10 0 0 10 0 10 20 0 20 0 0 -6 0 -5 -14 -15 -15 -14 -11 0 -11 0 -15 -14
-14 -15 0 -15 0 -16 -20 0 -20 0 0 10 0 10 -20 0 -20 0 0 10 0 10 -20 0 -20 0
0 -9 0 -9 13 -5 12 -4 -7 -8 -7 -7 -16 15 -15 16 0 25 0 26 20 0 20 0 0 20 0
20 -10 0 -10 0 0 10 0 10 20 0 20 0 0 10 0 10 -30 0 -30 0 0 -36 0 -37 -22
-20 -23 -20 13 -4 12 -5 0 -19 0 -19 10 0 10 0 0 -20 0 -20 10 0 10 0 0 10 0
10 19 0 19 0 5 13 4 12 8 -7 7 -7 -15 -16 -16 -15 -15 0 -16 0 0 -10 0 -10
-20 0 -20 0 0 30 0 30 -10 0 -10 0 0 16 0 15 -15 16 -16 15 -21 -23 -21 -24
-4 13 -5 12 -19 0 -19 0 0 -10 0 -10 -10 0 -10 0 0 30 0 30 16 0 17 0 18 -22
19 -21 8 8 7 8 -12 4 -13 5 0 17 0 17 -20 14 -20 14 0 8 0 8 20 0 20 0 0 -16
0 -15 14 -15 15 -14 15 0 16 0 0 10 0 10 20 0 20 0 0 6 0 7 -21 18 -21 18 15
16 16 15 15 0 16 0 0 9 0 9 -12 5 -13 4 7 8 8 8 19 -21 18 -22 7 0 6 0 0 30 0
30 10 0 10 0 0 -30z m120 -40 l0 -30 -10 0 -10 0 0 10 0 10 -20 0 -20 0 0 10
0 10 20 0 20 0 0 10 0 10 10 0 10 0 0 -30z m-460 -20 l0 -10 -10 0 -10 0 0 10
0 10 10 0 10 0 0 -10z m-240 -20 l0 -10 -10 0 -10 0 0 10 0 10 10 0 10 0 0
-10z m640 0 l0 -10 -10 0 -10 0 0 10 0 10 10 0 10 0 0 -10z m-600 -20 l0 -10
-10 0 -10 0 0 10 0 10 10 0 10 0 0 -10z m-140 -70 l0 -20 -10 0 -10 0 0 20 0
20 10 0 10 0 0 -20z m860 14 l0 -6 -31 -29 -32 -29 23 -20 23 -20 -8 -8 -8 -7
-4 13 -5 12 -19 0 -19 0 0 40 0 40 20 0 20 0 0 10 0 10 20 0 20 0 0 -6z m-100
-82 l0 -8 -20 -14 -20 -14 0 -18 0 -18 -10 0 -10 0 0 15 0 16 23 24 22 24 8 0
7 1 0 -8z m-560 -22 l0 -10 -10 0 -10 0 0 10 0 10 10 0 10 0 0 -10z m100 -10
l0 -20 -10 0 -10 0 0 20 0 20 10 0 10 0 0 -20z m240 -40 l0 -20 -30 0 -30 0 0
10 0 10 20 0 20 0 0 10 0 10 10 0 10 0 0 -20z m40 10 l0 -10 -10 0 -10 0 0 10
0 10 10 0 10 0 0 -10z m60 -19 l0 -29 -12 -5 -13 -4 23 -20 22 -20 0 -17 0
-16 20 0 20 0 0 9 0 9 -12 5 -13 4 7 8 7 7 17 -16 16 -17 -21 -18 -21 -18 0
-17 0 -16 -10 0 -10 0 0 20 0 20 -26 0 -25 0 -15 15 -15 15 16 17 17 16 8 -14
9 -13 7 6 6 7 -15 16 -16 15 -14 0 -15 0 -5 -12 -4 -13 -9 9 -9 9 13 4 12 5 0
19 0 19 20 0 20 0 0 20 0 20 10 0 10 0 0 -29z m140 9 l0 -20 20 0 20 0 0 9 0
9 -12 5 -13 4 7 8 7 7 16 -16 16 -16 -15 -15 -15 -15 -15 0 -16 0 0 10 0 10
-20 0 -20 0 0 20 0 20 20 0 20 0 0 -20z m-280 -70 l0 -10 -10 0 -10 0 0 10 0
10 10 0 10 0 0 -10z m320 -20 l0 -10 -10 0 -10 0 0 10 0 10 10 0 10 0 0 -10z
m-348 -32 l19 -22 9 13 8 14 16 -16 16 -16 0 -5 0 -6 -20 0 -20 0 0 -26 0 -25
-14 -15 -15 -14 -15 0 -16 0 0 15 0 16 -25 24 -24 25 -26 0 -25 0 0 6 0 5 15
16 15 15 30 -32 30 -32 15 15 15 16 0 15 0 16 -10 0 -10 0 0 10 0 10 6 0 7 0
19 -22z m88 12 l0 -10 -10 0 -10 0 0 10 0 10 10 0 10 0 0 -10z m220 -20 l0
-10 -10 0 -10 0 0 10 0 10 10 0 10 0 0 -10z m-440 -160 l0 -10 -10 0 -10 0 0
10 0 10 10 0 10 0 0 -10z m140 -40 l0 -10 -10 0 -10 0 0 10 0 10 10 0 10 0 0
-10z m200 -40 l0 -10 -10 0 -10 0 0 10 0 10 10 0 10 0 0 -10z m20 -40 l0 -10
-10 0 -10 0 0 10 0 10 10 0 10 0 0 -10z m-420 -40 l0 -10 -10 0 -10 0 0 10 0
10 10 0 10 0 0 -10z"/>
<path d="M920 1090 l0 -10 10 0 10 0 0 10 0 10 -10 0 -10 0 0 -10z"/>
<path d="M920 1010 l0 -10 10 0 10 0 0 10 0 10 -10 0 -10 0 0 -10z"/>
<path d="M1120 650 l0 -10 20 0 20 0 0 10 0 10 -20 0 -20 0 0 -10z"/>
<path d="M860 270 l0 -10 10 0 10 0 0 10 0 10 -10 0 -10 0 0 -10z"/>
<path d="M1073 1265 l-13 -14 0 -6 0 -5 20 0 20 0 0 -10 0 -10 -10 0 -10 0 0
-20 0 -20 10 0 10 0 0 20 0 20 20 0 20 0 0 10 0 10 20 0 20 0 0 6 0 5 -14 15
-15 14 -5 0 -6 0 0 -20 0 -20 -10 0 -10 0 0 20 0 20 -17 0 -18 -1 -12 -14z"/>
<path d="M1180 1271 l0 -9 13 -5 12 -4 -33 -31 -34 -32 15 -15 16 -15 15 0 16
0 0 -10 0 -10 20 0 20 0 0 10 0 10 -20 0 -20 0 0 20 0 20 -9 0 -9 0 -5 -12 -4
-13 -8 7 -7 7 18 18 17 18 5 -13 4 -12 19 0 19 0 0 -10 0 -10 20 0 20 0 0 10
0 10 -16 0 -15 0 -16 15 -15 16 7 7 8 7 4 -12 5 -13 9 0 9 0 0 30 0 30 -9 0
-9 0 -6 -12 -6 -13 -6 13 -6 12 -19 0 -19 0 0 -9z"/>
<path d="M660 1220 l0 -20 20 0 20 0 0 6 0 5 -14 15 -15 14 -5 0 -6 0 0 -20z"/>
<path d="M1120 1151 l0 -9 13 -6 12 -6 -12 -6 -13 -6 0 -29 0 -29 -6 0 -5 0
-15 14 -14 15 0 15 0 16 -6 0 -5 0 -15 -15 -15 -15 25 -25 25 -25 16 0 15 0 0
-10 0 -10 20 0 20 0 0 10 0 10 16 0 15 0 16 -16 16 -16 -14 -8 -13 -9 8 -8 9
-8 4 13 5 12 19 0 19 0 0 10 0 10 -15 0 -16 0 -25 25 -25 25 15 15 15 15 15 0
16 0 0 10 0 10 -19 0 -19 0 -5 -12 -4 -13 -30 33 -31 32 -6 0 -6 0 0 -9z m46
-46 l15 -15 -15 -15 -15 -15 -5 0 -6 0 0 30 0 30 6 0 5 0 15 -15z"/>
<path d="M1260 1150 l0 -10 10 0 10 0 0 10 0 10 -10 0 -10 0 0 -10z"/>
<path d="M1260 1100 l0 -20 10 0 10 0 0 20 0 20 -10 0 -10 0 0 -20z"/>
<path d="M440 1070 l0 -10 10 0 10 0 0 10 0 10 -10 0 -10 0 0 -10z"/>
<path d="M320 1050 l0 -10 20 0 20 0 0 10 0 10 -20 0 -20 0 0 -10z"/>
<path d="M760 1050 l0 -10 10 0 10 0 0 10 0 10 -10 0 -10 0 0 -10z"/>
<path d="M1240 1050 l0 -10 10 0 10 0 0 10 0 10 -10 0 -10 0 0 -10z"/>
<path d="M320 1010 l0 -10 10 0 10 0 0 10 0 10 -10 0 -10 0 0 -10z"/>
<path d="M0 990 l0 -10 10 0 10 0 0 10 0 10 -10 0 -10 0 0 -10z"/>
<path d="M480 940 l0 -20 10 0 10 0 0 20 0 20 -10 0 -10 0 0 -20z"/>
<path d="M180 910 l0 -10 10 0 10 0 0 10 0 10 -10 0 -10 0 0 -10z"/>
<path d="M311 884 l-13 -15 6 -6 5 -5 16 15 15 16 0 5 0 6 -7 0 -8 -1 -14 -15z"/>
<path d="M40 870 l0 -10 10 0 10 0 0 10 0 10 -10 0 -10 0 0 -10z"/>
<path d="M341 854 l-23 -25 6 -6 6 -6 20 24 21 23 9 -14 9 -14 7 6 6 7 -15 16
-16 15 -3 -1 -3 0 -24 -25z"/>
<path d="M40 830 l0 -10 10 0 10 0 0 10 0 10 -10 0 -10 0 0 -10z"/>
<path d="M411 784 l-13 -15 6 -6 5 -5 16 15 15 16 0 5 0 6 -7 0 -8 -1 -14 -15z"/>
<path d="M891 784 l-13 -15 6 -6 5 -5 16 15 15 16 0 5 0 6 -7 0 -8 -1 -14 -15z"/>
<path d="M360 754 l0 -5 15 -16 16 -15 6 5 5 6 -15 16 -16 15 -5 0 -6 0 0 -6z"/>
<path d="M232 704 l-33 -34 15 -15 15 -15 5 0 6 0 0 28 0 28 20 14 20 14 0 8
0 8 -7 -1 -8 0 -33 -35z"/>
<path d="M420 730 l0 -10 10 0 10 0 0 10 0 10 -10 0 -10 0 0 -10z"/>
<path d="M400 690 l0 -10 10 0 10 0 0 10 0 10 -10 0 -10 0 0 -10z"/>
<path d="M100 670 l0 -10 10 0 10 0 0 10 0 10 -10 0 -10 0 0 -10z"/>
<path d="M260 670 l0 -10 10 0 10 0 0 10 0 10 -10 0 -10 0 0 -10z"/>
<path d="M760 541 l0 -19 -12 -4 -13 -5 19 -19 19 -19 5 13 4 12 19 0 19 0 0
20 0 20 10 0 10 0 0 -10 0 -10 10 0 10 0 0 20 0 20 -20 0 -20 0 0 -10 0 -10
-20 0 -20 0 0 10 0 10 -10 0 -10 0 0 -19z"/>
<path d="M520 530 l0 -10 10 0 10 0 0 10 0 10 -10 0 -10 0 0 -10z"/>
<path d="M340 510 l0 -10 -20 0 -20 0 0 -30 0 -30 -10 0 -10 0 0 10 0 10 -40
0 -40 0 0 -19 0 -19 -12 -5 -13 -4 7 -8 8 -8 19 21 18 22 7 0 6 0 0 -20 0 -20
9 0 9 0 5 13 4 12 8 -7 8 -8 -23 -20 -23 -20 7 -7 7 -7 10 14 11 15 5 -12 5
-13 19 0 19 0 0 20 0 20 20 0 20 0 0 -9 0 -9 -12 -5 -13 -4 7 -8 8 -8 19 21
18 22 12 0 12 0 16 -15 15 -16 -23 -19 -22 -20 8 -8 8 -7 4 13 5 12 19 0 19 0
0 -6 0 -5 -14 -15 -15 -14 -45 0 -46 0 0 20 0 20 -20 0 -20 0 0 -5 0 -6 25
-24 24 -25 16 0 15 0 0 -10 0 -10 -20 0 -20 0 0 10 0 10 -20 0 -20 0 0 20 0
20 -10 0 -10 0 0 20 0 20 -6 0 -5 0 -15 -14 -14 -15 0 -24 0 -25 -12 -5 -13
-5 15 -11 15 -11 -15 -10 -15 -10 15 -9 14 -10 -7 -8 -8 -7 -10 14 -11 15 -5
-12 -5 -13 -9 0 -9 0 0 20 0 20 10 0 10 0 0 20 0 20 10 0 10 0 0 29 0 29 12 4
13 5 -19 19 -19 19 -5 -13 -4 -12 -29 0 -29 0 0 10 0 10 10 0 10 0 0 40 0 40
-10 0 -10 0 0 -10 0 -10 -20 0 -20 0 0 -10 0 -10 -20 0 -20 0 0 -20 0 -20 -10
0 -10 0 0 10 0 10 -20 0 -20 0 0 -20 0 -20 9 0 9 0 4 12 5 13 19 -19 19 -19
-13 -5 -12 -4 0 -19 0 -19 -10 0 -10 0 0 -30 0 -30 -10 0 -10 0 0 -19 0 -19
13 -6 12 -6 -12 -6 -13 -6 0 -45 0 -46 22 -20 23 -20 -12 -4 -13 -5 0 -19 0
-19 40 0 40 0 0 10 0 10 -20 0 -20 0 0 20 0 20 10 0 10 0 0 -10 0 -10 39 0 39
0 5 -12 4 -13 9 9 9 9 -12 4 -13 5 0 19 0 19 -20 0 -20 0 0 -10 0 -10 -10 0
-10 0 0 19 0 19 -12 5 -13 5 14 10 14 10 -17 18 -18 17 -8 -14 -9 -13 -7 6 -6
7 16 16 16 16 26 -26 27 -27 -14 -8 -13 -9 6 -7 7 -6 18 18 18 17 -13 5 -12 4
0 9 0 9 20 0 20 0 0 -10 0 -10 19 0 19 0 5 13 5 12 10 -14 10 -14 16 16 16 16
0 24 0 25 -12 6 -13 6 13 6 12 6 0 19 0 19 10 0 10 0 0 -10 0 -10 20 0 20 0 0
-20 0 -20 10 0 10 0 0 10 0 10 20 0 20 0 0 -9 0 -9 -12 -5 -13 -4 7 -8 8 -8
19 21 18 22 12 0 12 0 46 47 47 47 -12 4 -12 4 0 19 0 19 10 0 10 0 0 26 0 25
-15 16 -16 15 -7 -6 -6 -7 13 -9 14 -8 -16 -16 -16 -16 -15 0 -16 0 0 10 0 10
20 0 20 0 0 9 0 9 -12 4 -13 5 17 16 17 17 15 0 16 0 0 10 0 10 -19 0 -19 0
-6 -12 -6 -13 -6 13 -6 12 -9 0 -9 0 0 -20 0 -20 -10 0 -10 0 0 -20 0 -20 -10
0 -10 0 0 29 0 29 13 5 12 4 -9 9 -9 9 -4 -12 -5 -13 -29 0 -29 0 0 10 0 10
10 0 10 0 0 10 0 10 -10 0 -10 0 0 -10z m15 -55 l25 -24 0 -6 0 -5 -16 0 -15
0 -15 14 -14 15 0 15 0 16 5 0 6 0 24 -25z m-215 -64 l0 -9 -12 -5 -13 -5 14
-10 15 -10 -35 -33 -34 -32 13 -4 12 -5 0 -39 0 -39 10 0 10 0 0 20 0 20 20 0
20 0 0 -10 0 -10 -10 0 -10 0 0 -20 0 -20 -16 0 -15 0 -15 14 -14 15 0 35 0
36 -10 0 -10 0 0 30 0 30 10 0 10 0 0 15 0 16 13 14 12 14 18 1 17 0 0 -9z
m340 -21 l0 -10 -10 0 -10 0 0 10 0 10 10 0 10 0 0 -10z m-280 -66 l0 -15 -16
-16 -16 -16 -9 14 -9 14 -9 -15 -10 -14 -8 8 -8 9 13 4 12 5 0 19 0 19 30 0
30 0 0 -16z m-140 -54 l0 -10 -10 0 -10 0 0 10 0 10 10 0 10 0 0 -10z"/>
<path d="M160 490 l0 -10 10 0 10 0 0 10 0 10 -10 0 -10 0 0 -10z"/>
<path d="M260 490 l0 -10 10 0 10 0 0 10 0 10 -10 0 -10 0 0 -10z"/>
<path d="M580 451 l0 -29 13 -5 12 -4 -7 -8 -7 -7 -16 15 -15 16 0 15 0 16
-10 0 -10 0 0 -16 0 -16 30 -28 30 -28 0 -6 0 -6 -16 0 -15 0 -17 -17 -17 -16
13 -5 12 -4 0 -9 0 -9 -20 0 -20 0 0 -10 0 -10 -20 0 -20 0 0 -5 0 -6 25 -25
25 -25 16 16 16 16 -7 7 -8 7 -4 -12 -5 -13 -9 0 -9 0 0 20 0 20 20 0 20 0 0
10 0 10 30 0 30 0 0 -10 0 -10 19 0 19 0 5 -12 4 -13 8 7 7 7 -15 16 -16 15
-11 0 -11 0 -16 15 -15 16 21 18 21 18 0 16 0 15 -12 5 -13 4 7 8 8 8 20 -23
20 -23 8 8 7 8 -12 4 -13 5 0 9 0 9 20 0 20 0 0 -10 0 -10 10 0 10 0 0 20 0
20 -16 0 -17 0 -18 22 -19 21 -19 -21 -18 -22 -7 0 -6 0 0 20 0 20 -10 0 -10
0 0 -29z m0 -121 l0 -10 -10 0 -10 0 0 10 0 10 10 0 10 0 0 -10z"/>
<path d="M0 330 l0 -10 10 0 10 0 0 10 0 10 -10 0 -10 0 0 -10z"/>
<path d="M1000 294 l0 -5 14 -15 15 -14 5 0 6 0 0 20 0 20 -20 0 -20 0 0 -6z"/>
<path d="M600 250 l0 -10 10 0 10 0 0 10 0 10 -10 0 -10 0 0 -10z"/>
<path d="M1053 245 l-13 -14 0 -11 0 -11 14 -15 15 -14 5 0 6 0 0 19 0 19 -12
6 -13 6 13 6 12 6 0 9 0 9 -7 0 -8 -1 -12 -14z"/>
<path d="M1100 250 l0 -10 10 0 10 0 0 10 0 10 -10 0 -10 0 0 -10z"/>
<path d="M1140 240 l0 -20 20 0 20 0 0 6 0 5 -14 15 -15 14 -5 0 -6 0 0 -20z"/>
<path d="M280 210 l0 -30 30 0 30 0 0 -10 0 -10 -40 0 -40 0 0 -9 0 -9 13 -5
12 -4 -34 -32 -35 -33 15 -9 14 -9 -15 -9 -14 -10 7 -7 7 -7 19 21 18 22 17 0
16 0 0 10 0 10 -20 0 -20 0 0 5 0 6 25 24 24 25 26 0 25 0 0 10 0 10 10 0 10
0 0 -18 0 -18 -20 -14 -20 -14 0 -18 0 -18 10 0 10 0 0 -30 0 -30 10 0 10 0 0
20 0 20 10 0 10 0 0 20 0 20 -10 0 -10 0 0 -10 0 -10 -10 0 -10 0 0 16 0 15
17 17 16 17 5 -13 4 -12 9 0 9 0 0 15 0 16 -25 24 -24 25 -16 0 -15 0 0 10 0
10 -20 0 -20 0 0 20 0 20 -10 0 -10 0 0 -30z"/>
<path d="M432 224 l-13 -14 15 -15 15 -15 25 0 26 0 0 10 0 10 -20 0 -20 0 0
10 0 10 10 0 10 0 0 10 0 10 -17 0 -18 -1 -13 -15z"/>
<path d="M647 217 l-18 -22 -9 15 -9 14 -8 -8 -8 -9 13 -4 12 -5 0 -9 0 -9
-30 0 -30 0 0 -20 0 -20 10 0 10 0 0 10 0 10 20 0 20 0 0 -10 0 -10 10 0 10 0
0 20 0 20 10 0 10 0 0 20 0 20 10 0 10 0 0 10 0 10 -7 0 -8 0 -18 -23z"/>
<path d="M780 220 l0 -20 20 0 20 0 0 6 0 5 -14 15 -15 14 -5 0 -6 0 0 -20z"/>
<path d="M952 224 l-13 -14 16 -16 16 -16 7 7 7 8 -12 4 -13 5 0 9 0 9 20 0
20 0 0 10 0 10 -17 0 -18 -1 -13 -15z"/>
<path d="M1200 220 l0 -20 6 0 5 0 15 14 14 15 0 5 0 6 -20 0 -20 0 0 -20z"/>
<path d="M560 210 l0 -10 10 0 10 0 0 10 0 10 -10 0 -10 0 0 -10z"/>
<path d="M1100 210 l0 -10 10 0 10 0 0 10 0 10 -10 0 -10 0 0 -10z"/>
<path d="M1223 195 l-23 -24 0 -11 0 -11 14 -15 15 -14 11 0 11 0 16 16 16 16
-14 10 -14 10 13 5 12 5 0 19 0 19 -17 -1 -18 0 -22 -24z m17 -45 l0 -10 -10
0 -10 0 0 10 0 10 10 0 10 0 0 -10z"/>
<path d="M900 111 l0 -9 13 -5 12 -4 -24 -22 -24 -21 7 -7 7 -7 10 14 9 15 9
-15 10 -14 8 7 7 8 -14 10 -15 9 14 9 14 9 -16 16 -16 16 -5 0 -6 0 0 -9z"/>
<path d="M1260 80 l0 -20 -19 0 -19 0 -5 -12 -5 -13 -10 14 -10 14 -17 -16
-16 -17 16 -17 17 -16 10 14 10 14 5 -12 5 -13 9 0 9 0 0 20 0 20 10 0 10 0 0
-10 0 -10 10 0 10 0 0 40 0 40 -10 0 -10 0 0 -20z m-60 -50 l0 -10 -10 0 -10
0 0 10 0 10 10 0 10 0 0 -10z"/>
<path d="M180 70 l0 -10 10 0 10 0 0 10 0 10 -10 0 -10 0 0 -10z"/>
<path d="M731 64 l-13 -15 6 -6 5 -5 16 15 15 16 0 5 0 6 -7 0 -8 -1 -14 -15z"/>
<path d="M260 20 l0 -20 40 0 40 0 0 6 0 5 -16 16 -16 16 -10 -14 -10 -14 -5
13 -5 12 -9 0 -9 0 0 -20z"/>
<path d="M880 10 l0 -10 10 0 10 0 0 10 0 10 -10 0 -10 0 0 -10z"/>
<path d="M1080 10 l0 -10 10 0 10 0 0 10 0 10 -10 0 -10 0 0 -10z"/>
<path d="M1120 10 l0 -10 10 0 10 0 0 10 0 10 -10 0 -10 0 0 -10z"/>
</g>
</svg>
