<?xml version="1.0" standalone="no"?>
<!DOCTYPE svg PUBLIC "-//W3C//DTD SVG 20010904//EN"
 "http://www.w3.org/TR/2001/REC-SVG-20010904/DTD/svg10.dtd">
<svg version="1.0" xmlns="http://www.w3.org/2000/svg"
 width="468pt" height="468pt" viewBox="0 0 468 468"
 preserveAspectRatio="xMidYMid meet">
<metadata>
Created by potrace 1.8, written by Peter Selinger 2001-2007
</metadata>
<g transform="translate(0,468) scale(0.365625,-0.365625)"
fill="#000000" stroke="none">
<path d="M1053 1273 l47 -4 0 -8 0 -8 -87 -6 -86 -6 -6 -10 -6 -9 -132 -7
-133 -8 0 -8 0 -8 -85 -3 -85 -3 0 11 0 11 143 7 142 7 3 10 4 9 51 0 52 0 53
6 52 7 0 8 0 9 -35 0 -35 0 0 -9 0 -8 -130 -8 -130 -7 0 -9 0 -9 -95 0 -95 0
0 -15 0 -15 -45 0 -45 0 0 10 0 10 40 0 41 0 -13 14 -13 14 -7 -12 -7 -11
-144 0 -144 0 4 12 4 11 -58 4 -58 4 -9 -7 -8 -7 6 -11 7 -11 45 0 44 0 0 -9
0 -8 70 -7 69 -7 6 -20 7 -21 -6 -5 -6 -6 0 11 0 12 -9 0 -9 0 -6 -25 -6 -25
-10 0 -10 0 0 10 0 10 12 0 11 0 -6 7 -7 7 -20 -22 -20 -21 0 -16 0 -15 -20 0
-20 0 0 -10 0 -10 30 0 30 0 6 24 6 24 21 6 20 5 10 -6 9 -5 -6 -24 -6 -24 14
0 15 0 6 20 6 20 -6 10 -6 10 -15 0 -14 0 0 10 0 10 10 0 10 0 20 -20 20 -20
0 -5 0 -6 -19 -20 -19 -21 -21 7 -21 6 0 10 0 9 -15 0 -15 0 0 -9 0 -9 15 -6
15 -5 0 -13 0 -13 -11 15 -11 15 -5 -12 -5 -13 -28 0 -28 0 -4 9 -3 8 -56 5
-56 4 14 -15 13 -16 104 0 103 0 -4 -12 -5 -12 48 -3 49 -3 2 -33 3 -33 -33 3
-32 3 0 -15 0 -15 43 -3 42 -3 6 16 6 15 14 0 13 0 -5 14 -6 15 -16 3 -16 3
19 19 19 19 89 -6 89 -6 6 -6 6 -5 -22 -20 -21 -20 -8 0 -9 0 -17 -20 -17 -20
10 0 11 0 5 15 6 15 13 0 13 0 5 -12 4 -13 9 8 8 8 -14 9 -15 10 18 0 17 0 0
9 0 9 14 5 15 6 -6 -14 -5 -15 16 -6 16 -6 0 -15 0 -14 -50 2 -50 3 -7 -8 -7
-7 14 -9 15 -10 -272 0 -273 0 0 -425 0 -425 640 0 640 0 0 425 0 425 -325 0
-324 0 5 14 6 15 21 3 21 3 -17 17 -17 16 -11 4 -12 4 14 22 14 22 219 2 219
3 5 13 4 13 -21 6 -21 5 0 8 0 7 46 7 45 6 15 15 15 15 44 0 43 0 5 13 5 12
-79 -3 -79 -4 0 -8 0 -9 18 -4 17 -5 -27 -1 -26 -1 -4 -10 -3 -11 -58 -6 -57
-6 0 -8 0 -9 -30 0 -30 0 0 6 0 7 16 12 16 12 -6 21 -7 22 -10 0 -9 0 0 -10 0
-10 10 0 10 0 0 -15 0 -15 -25 -6 -25 -6 0 -9 0 -9 -21 0 -20 0 6 20 6 20 -6
19 -6 19 -15 6 -15 6 -16 -20 -17 -20 -10 0 -9 0 -23 -25 -23 -25 -11 0 -10 0
0 6 0 7 50 49 49 48 -5 15 -6 15 -24 0 -24 0 -1 -12 -1 -13 1 -15 2 -15 -8 12
-8 11 -28 7 -27 7 0 8 0 8 -20 5 -20 5 -15 -15 -15 -14 0 8 0 9 19 16 20 17 3
-9 3 -9 97 -2 97 -2 24 27 24 26 12 0 11 0 0 -10 0 -10 23 -1 22 -1 -17 -5
-18 -4 0 -10 0 -9 25 0 25 0 0 9 0 9 135 7 135 7 0 8 0 8 20 5 20 5 0 11 0 12
-17 6 -18 7 -7 9 -6 10 -114 2 -113 2 48 -4z m-657 -118 l6 -25 22 -1 21 -1
45 -5 45 -4 5 -5 4 -5 -14 -10 -15 -11 18 6 19 6 24 -6 24 -6 0 -14 0 -13 15
5 15 6 0 -8 0 -9 6 -22 6 -22 -39 -4 -38 -4 263 -1 262 -2 0 -10 0 -10 -275 0
-275 0 0 10 0 10 -27 0 -28 0 3 47 3 48 -10 15 -10 14 -8 -8 -8 -9 13 -4 12
-5 0 -29 0 -30 -17 -18 -18 -18 -90 0 -90 0 14 5 14 5 18 18 19 19 0 24 0 24
-12 4 -11 4 -3 37 -3 37 44 0 45 0 6 -25z m27 11 l6 -15 -15 6 -14 5 0 9 0 9
9 0 9 0 5 -14z m87 5 l0 -9 28 -5 27 -6 12 16 13 17 6 -6 6 -6 -23 -23 -23
-23 -4 12 -4 12 -14 0 -14 0 -1 -12 -1 -13 -5 13 -5 12 -26 1 -27 1 18 5 17 4
0 10 0 9 10 0 10 0 0 -9z"/>
<path d="M360 1140 l0 -10 15 0 15 0 0 10 0 10 -15 0 -15 0 0 -10z"/>
<path d="M336 1115 l6 -15 9 0 9 0 0 -29 0 -29 -15 -6 -15 -5 0 -11 0 -10 20
17 20 17 0 28 0 27 -16 15 -15 16 -4 0 -4 0 5 -15z"/>
<path d="M40 1260 l0 -10 15 0 15 0 0 10 0 10 -15 0 -15 0 0 -10z"/>
<path d="M90 1261 l0 -9 41 -7 40 -7 6 6 6 6 -26 0 -27 0 0 10 0 10 -20 0 -20
0 0 -9z"/>
<path d="M220 1261 l0 -10 -17 -4 -18 -5 33 -1 32 -1 0 -10 0 -10 55 0 55 0 0
10 0 10 -55 0 -56 0 -5 15 -6 15 -9 0 -9 0 0 -9z"/>
<path d="M65 1179 l-7 -10 3 -4 4 -3 13 14 13 14 -10 0 -10 0 -6 -11z"/>
<path d="M1130 1170 l0 -10 -13 0 -13 0 -24 -30 -25 -29 -42 -1 -43 0 0 9 0
10 -47 3 -47 3 18 18 17 17 -8 0 -9 0 -17 -20 -17 -20 0 -10 0 -10 23 0 22 -1
74 -5 74 -5 27 29 27 30 20 6 20 6 17 -6 16 -6 1 -27 2 -26 4 23 5 24 -21 19
-20 19 -11 0 -10 0 0 -10z"/>
<path d="M40 1140 l0 -10 10 0 10 0 0 10 0 10 -10 0 -10 0 0 -10z"/>
<path d="M800 1140 l0 -10 10 0 10 0 0 10 0 10 -10 0 -10 0 0 -10z"/>
<path d="M830 1110 l0 -10 10 0 10 0 0 10 0 10 -10 0 -10 0 0 -10z"/>
<path d="M70 961 l0 -9 14 -5 15 -6 -6 15 -5 14 -9 0 -9 0 0 -9z"/>
<path d="M310 960 l0 -10 -17 0 -16 0 6 -6 5 -6 21 7 21 6 0 10 0 9 -10 0 -10
0 0 -10z"/>
<path d="M472 954 l-13 -14 10 0 10 0 6 11 7 10 -3 4 -4 3 -13 -14z"/>
<path d="M247 926 l-6 -15 15 6 14 5 0 9 0 9 -9 0 -9 0 -5 -14z"/>
<path d="M430 930 l0 -10 10 0 10 0 0 10 0 10 -10 0 -10 0 0 -10z"/>
<path d="M190 900 l0 -10 10 0 10 0 0 10 0 10 -10 0 -10 0 0 -10z"/>
</g>
</svg>
