<?xml version="1.0" standalone="no"?>
<!DOCTYPE svg PUBLIC "-//W3C//DTD SVG 20010904//EN"
 "http://www.w3.org/TR/2001/REC-SVG-20010904/DTD/svg10.dtd">
<svg version="1.0" xmlns="http://www.w3.org/2000/svg"
 width="468pt" height="468pt" viewBox="0 0 468 468"
 preserveAspectRatio="xMidYMid meet">
<metadata>
Created by potrace 1.8, written by Peter Selinger 2001-2007
</metadata>
<g transform="translate(0,468) scale(0.365625,-0.365625)"
fill="#000000" stroke="none">
<path d="M20 1060 l0 -200 140 0 140 0 0 -10 0 -10 -10 0 -10 0 0 -15 0 -16
140 -139 140 -139 0 -11 0 -11 -14 -15 -15 -14 -5 0 -6 0 0 20 0 20 -210 0
-210 0 0 -125 0 -126 26 -26 26 -26 9 14 9 14 9 -15 10 -14 21 23 20 24 7 -7
7 -7 -14 -10 -15 -11 13 -5 12 -5 0 -109 0 -109 126 0 125 0 16 16 16 16 -14
9 -14 9 15 10 15 10 -15 10 -15 10 15 10 15 10 -15 10 -15 10 15 10 15 10 -15
10 -15 10 15 10 15 10 -15 10 -15 10 15 10 15 10 -14 9 -14 9 17 17 17 17 7
-6 6 -7 -13 -9 -14 -8 17 -17 17 -17 7 6 6 7 -14 10 -15 9 15 9 14 10 -23 21
-24 20 8 8 8 7 4 -12 5 -13 14 0 15 0 70 -71 70 -71 28 31 29 31 11 0 12 0 69
-70 70 -71 165 166 165 165 -125 125 -125 126 -60 -61 -60 -61 -66 66 -66 66
6 6 5 5 51 -52 51 -52 6 5 5 6 -41 40 -41 39 0 11 0 11 85 85 85 85 145 0 145
0 0 200 0 200 -620 0 -620 0 0 -200z m883 -212 l5 -13 11 15 10 14 6 -6 7 -6
-76 -77 -77 -76 -15 15 -15 15 63 65 63 64 7 1 6 1 5 -12z m303 -403 l34 -35
-155 -155 -155 -155 -35 35 -35 35 152 154 153 154 3 1 3 1 35 -35z m-470
-190 l25 -25 -26 -25 -25 -26 -25 25 -26 26 23 24 23 25 3 0 3 1 25 -25z
m-576 -5 l0 -10 -10 0 -10 0 0 10 0 10 10 0 10 0 0 -10z m40 0 l0 -10 -10 0
-10 0 0 10 0 10 10 0 10 0 0 -10z"/>
<path d="M832 784 l-54 -55 5 -6 6 -5 55 56 56 56 0 5 0 5 -7 -1 -8 0 -53 -55z"/>
<path d="M1022 314 l-143 -144 26 -25 25 -26 145 146 146 145 -25 25 -25 25
-3 -1 -3 -1 -143 -144z m164 111 l15 -14 -136 -136 -136 -136 -15 15 -15 15
133 135 133 134 3 1 3 1 15 -15z"/>
<path d="M1042 293 l-124 -125 5 -5 5 -5 126 126 126 126 0 5 0 5 -7 -1 -8 -1
-123 -125z"/>
<path d="M692 244 l-13 -14 15 -16 16 -15 16 15 15 16 -15 15 -15 15 -3 0 -3
-1 -13 -15z m28 -14 l0 -10 -10 0 -10 0 0 10 0 10 10 0 10 0 0 -10z"/>
<path d="M733 64 l-53 -54 0 -5 0 -5 120 0 120 0 0 5 0 5 -55 55 -55 55 -12
-1 -13 0 -52 -55z"/>
<path d="M963 35 l-23 -24 0 -6 0 -5 60 0 60 0 0 5 0 6 -25 24 -24 25 -13 -1
-13 0 -22 -24z"/>
</g>
</svg>
