<?xml version="1.0" standalone="no"?>
<!DOCTYPE svg PUBLIC "-//W3C//DTD SVG 20010904//EN"
 "http://www.w3.org/TR/2001/REC-SVG-20010904/DTD/svg10.dtd">
<svg version="1.0" xmlns="http://www.w3.org/2000/svg"
 width="468pt" height="468pt" viewBox="0 0 468 468"
 preserveAspectRatio="xMidYMid meet">
<metadata>
Created by potrace 1.8, written by Peter Selinger 2001-2007
</metadata>
<g transform="translate(0,468) scale(0.365625,-0.365625)"
fill="#000000" stroke="none">
<path d="M0 970 l0 -310 10 0 10 0 0 -19 0 -19 12 -5 13 -4 -9 -9 -9 -9 -4 13
-5 12 -9 0 -9 0 0 -310 0 -310 640 0 640 0 0 640 0 640 -269 0 -269 0 -6 -12
-6 -13 -6 13 -6 12 -39 0 -39 0 0 -10 0 -10 10 0 10 0 0 -20 0 -20 -9 0 -9 0
-5 13 -5 12 -11 -15 -10 -14 -8 8 -8 9 12 4 13 5 0 19 0 19 -40 0 -40 0 0 -9
0 -9 12 -4 13 -5 -18 -17 -18 -18 -7 6 -6 7 13 9 14 8 -16 16 -16 16 -35 0
-36 0 0 -6 0 -5 14 -15 15 -14 15 0 16 0 0 -10 0 -10 -16 0 -16 0 -30 32 -30
32 -10 -15 -10 -14 -5 13 -5 12 -189 0 -189 0 0 -310z m180 280 l0 -10 -10 0
-10 0 0 10 0 10 10 0 10 0 0 -10z m620 0 l0 -10 -10 0 -10 0 0 10 0 10 10 0
10 0 0 -10z m200 0 l0 -10 -10 0 -10 0 0 -20 0 -20 -20 0 -20 0 0 5 0 6 23 24
22 24 8 0 7 1 0 -10z m-940 -20 l0 -10 -10 0 -10 0 0 10 0 10 10 0 10 0 0 -10z
m60 -10 l0 -20 -20 0 -20 0 0 5 0 6 13 14 12 14 8 1 7 0 0 -20z m140 10 l0
-10 -20 0 -20 0 0 10 0 10 20 0 20 0 0 -10z m60 0 l0 -10 -10 0 -10 0 0 -16 0
-15 -15 -16 -16 -15 -7 7 -7 8 13 4 12 5 0 29 0 29 20 0 20 0 0 -10z m100 0
l0 -10 -10 0 -10 0 0 10 0 10 10 0 10 0 0 -10z m460 0 l0 -10 -10 0 -10 0 0
10 0 10 10 0 10 0 0 -10z m40 0 l0 -10 -10 0 -10 0 0 10 0 10 10 0 10 0 0 -10z
m120 -6 l0 -15 -14 -15 -15 -14 -5 0 -6 0 0 15 0 16 13 14 12 14 8 1 7 0 0
-16z m100 6 l0 -10 -10 0 -10 0 0 10 0 10 10 0 10 0 0 -10z m60 -10 l0 -20 10
0 10 0 0 20 0 20 6 0 5 0 15 -15 15 -15 -15 -15 -15 -15 -12 0 -12 0 -18 -22
-19 -21 -7 6 -6 7 24 21 24 22 -12 4 -13 5 0 19 0 19 10 0 10 0 0 -20z m-420
-20 l0 -20 -10 0 -10 0 0 20 0 20 10 0 10 0 0 -20z m60 10 l0 -10 -10 0 -10 0
0 10 0 10 10 0 10 0 0 -10z m-600 -20 l0 -10 -19 0 -19 0 -5 -12 -4 -13 -8 7
-7 7 13 15 14 15 18 1 17 0 0 -10z m320 0 l0 -10 -10 0 -10 0 0 10 0 10 10 0
10 0 0 -10z m60 -20 l0 -30 -10 0 -10 0 0 30 0 30 10 0 10 0 0 -30z m260 20
l0 -10 -10 0 -10 0 0 10 0 10 10 0 10 0 0 -10z m220 0 l0 -10 -20 0 -20 0 0
10 0 10 20 0 20 0 0 -10z m40 -10 l0 -20 -10 0 -10 0 0 20 0 20 10 0 10 0 0
-20z m-1100 -10 l0 -10 -10 0 -10 0 0 10 0 10 10 0 10 0 0 -10z m100 0 l0 -10
-10 0 -10 0 0 10 0 10 10 0 10 0 0 -10z m520 0 l0 -10 -10 0 -10 0 0 10 0 10
10 0 10 0 0 -10z m60 0 l0 -10 -20 0 -20 0 0 10 0 10 20 0 20 0 0 -10z m240 0
l0 -10 -10 0 -10 0 0 10 0 10 10 0 10 0 0 -10z m-720 -20 l0 -10 -10 0 -10 0
0 10 0 10 10 0 10 0 0 -10z m186 -4 l14 -15 0 -15 0 -16 -16 0 -15 0 -15 14
-14 15 0 15 0 16 16 0 15 0 15 -14z m94 -6 l0 -20 -6 0 -5 0 -15 14 -14 15 0
5 0 6 20 0 20 0 0 -20z m260 10 l0 -10 -10 0 -10 0 0 10 0 10 10 0 10 0 0 -10z
m80 -20 l0 -30 9 0 9 0 5 13 4 12 8 -7 7 -7 -15 -16 -16 -15 -25 0 -26 0 0 20
0 20 10 0 10 0 0 20 0 20 10 0 10 0 0 -30z m-760 -10 l0 -20 -10 0 -10 0 0 20
0 20 10 0 10 0 0 -20z m44 8 l6 -13 6 13 6 12 19 0 19 0 0 -10 0 -10 -20 0
-20 0 0 -9 0 -9 13 -5 12 -4 -7 -8 -7 -7 -25 25 -26 26 0 6 0 5 9 0 9 0 6 -12z
m556 -18 l0 -10 36 0 36 0 28 -30 28 -30 12 0 11 0 15 -14 14 -15 0 -15 0 -16
10 0 10 0 0 -30 0 -30 10 0 10 0 0 -50 0 -50 -10 0 -10 0 0 -60 0 -60 -10 0
-10 0 0 70 0 70 10 0 10 0 0 40 0 40 -10 0 -10 0 0 20 0 20 -10 0 -10 0 0 15
0 16 -25 24 -24 25 -13 0 -14 0 -14 20 -14 20 -28 0 -28 0 0 10 0 10 -50 0
-50 0 0 -10 0 -10 -36 0 -35 0 -15 -14 -14 -15 0 -13 0 -14 -20 -14 -20 -14 0
-18 0 -18 -10 0 -10 0 0 -30 0 -30 -10 0 -10 0 0 -100 0 -100 -10 0 -10 0 0
39 0 39 -12 5 -13 5 15 11 15 11 -15 11 -15 11 13 5 12 5 0 29 0 29 -10 0 -10
0 0 -10 0 -10 -10 0 -10 0 0 20 0 20 10 0 10 0 0 20 0 20 10 0 10 0 0 -20 0
-20 10 0 10 0 0 30 0 30 10 0 10 0 0 16 0 16 30 28 30 28 0 16 0 16 50 0 50 0
0 10 0 10 50 0 50 0 0 -10z m300 0 l0 -10 -10 0 -10 0 0 10 0 10 10 0 10 0 0
-10z m100 0 l0 -10 -20 0 -20 0 0 10 0 10 20 0 20 0 0 -10z m-714 -24 l14 -15
0 -11 0 -11 -14 -15 -15 -14 -25 0 -26 0 0 -10 0 -10 -10 0 -10 0 0 16 0 15
17 17 16 17 5 -13 4 -12 19 0 19 0 0 20 0 20 -10 0 -10 0 0 10 0 10 6 0 5 0
15 -14z m574 -26 l0 -20 -6 0 -5 0 -15 14 -14 15 0 5 0 6 20 0 20 0 0 -20z
m120 10 l0 -10 -20 0 -20 0 0 10 0 10 20 0 20 0 0 -10z m-960 -30 l0 -20 -6 0
-5 0 -15 14 -14 15 0 5 0 6 20 0 20 0 0 -20z m60 0 l0 -20 -6 0 -5 0 -15 14
-14 15 0 5 0 6 20 0 20 0 0 -20z m40 10 l0 -10 -10 0 -10 0 0 10 0 10 10 0 10
0 0 -10z m960 4 l0 -5 -14 -15 -15 -14 -15 0 -16 0 0 5 0 6 13 14 12 14 18 1
17 0 0 -6z m-260 -24 l0 -10 -10 0 -10 0 0 10 0 10 10 0 10 0 0 -10z m140 -10
l0 -20 -10 0 -10 0 0 20 0 20 10 0 10 0 0 -20z m160 10 l0 -10 -10 0 -10 0 0
10 0 10 10 0 10 0 0 -10z m-240 -16 l0 -5 -15 -16 -16 -15 -5 5 -6 6 13 15 14
15 8 1 7 0 0 -6z m-900 -34 l0 -20 -10 0 -10 0 0 20 0 20 10 0 10 0 0 -20z
m140 11 l0 -9 -12 -5 -13 -5 15 -11 14 -10 -8 -8 -9 -8 -4 13 -5 12 -19 0 -19
0 0 10 0 10 20 0 20 0 0 10 0 10 10 0 10 0 0 -9z m180 -1 l0 -10 -10 0 -10 0
0 10 0 10 10 0 10 0 0 -10z m206 -4 l14 -15 0 -15 0 -16 10 0 10 0 0 -30 0
-30 10 0 10 0 0 35 0 36 25 24 24 25 41 0 41 0 15 -14 14 -15 0 -25 0 -26 10
0 10 0 0 -30 0 -30 10 0 10 0 0 -78 0 -78 -20 -14 -20 -14 0 -38 0 -38 -10 0
-10 0 0 -15 0 -16 -45 -44 -44 -45 -16 0 -15 0 0 -10 0 -10 -35 0 -35 0 -55
55 -55 55 0 15 0 15 -10 0 -10 0 0 38 0 38 -20 14 -20 14 0 68 0 68 10 0 10 0
0 40 0 40 10 0 10 0 0 25 0 26 13 14 12 14 43 1 43 0 15 -14z m-486 -16 l0
-10 -10 0 -10 0 0 10 0 10 10 0 10 0 0 -10z m220 -20 l0 -30 -20 0 -20 0 0 10
0 10 10 0 10 0 0 20 0 20 10 0 10 0 0 -30z m680 -10 l0 -20 -10 0 -10 0 0 20
0 20 10 0 10 0 0 -20z m140 2 l0 -18 -20 -14 -20 -14 0 -17 0 -17 13 -5 12 -4
-7 -8 -7 -7 -16 15 -15 16 0 13 0 14 20 14 20 14 0 18 0 18 10 0 10 0 0 -18z
m-1080 -22 l0 -20 -10 0 -10 0 0 20 0 20 10 0 10 0 0 -20z m60 10 l0 -10 -20
0 -20 0 0 10 0 10 20 0 20 0 0 -10z m840 0 l0 -10 -10 0 -10 0 0 10 0 10 10 0
10 0 0 -10z m-794 -24 l14 -15 0 -5 0 -6 -20 0 -20 0 0 20 0 20 6 0 5 0 15
-14z m1034 -6 l0 -20 -10 0 -10 0 0 20 0 20 10 0 10 0 0 -20z m-920 -10 l0
-10 -10 0 -10 0 0 10 0 10 10 0 10 0 0 -10z m700 0 l0 -10 -10 0 -10 0 0 10 0
10 10 0 10 0 0 -10z m60 0 l0 -10 -10 0 -10 0 0 10 0 10 10 0 10 0 0 -10z
m-920 -40 l0 -10 -10 0 -10 0 0 10 0 10 10 0 10 0 0 -10z m80 0 l0 -10 -10 0
-10 0 0 10 0 10 10 0 10 0 0 -10z m100 -10 l0 -20 10 0 10 0 0 -10 0 -10 -16
0 -15 0 -17 -17 -17 -16 13 -5 12 -4 0 -9 0 -9 -20 0 -20 0 0 19 0 19 13 5 12
5 -15 11 -14 10 8 8 9 8 4 -12 5 -13 9 0 9 0 0 20 0 20 -10 0 -10 0 0 10 0 10
20 0 20 0 0 -20z m740 14 l0 -5 -14 -15 -15 -14 -15 0 -16 0 0 5 0 6 13 14 12
14 18 1 17 0 0 -6z m180 -4 l0 -10 -10 0 -10 0 0 -20 0 -20 -10 0 -10 0 0 20
0 20 -10 0 -10 0 0 10 0 10 30 0 30 0 0 -10z m-1083 -56 l25 -25 -6 -7 -7 -6
-9 13 -8 14 -18 -17 -17 -18 14 -8 13 -9 -7 -8 -8 -7 -9 13 -8 14 -18 -17 -17
-18 14 -8 13 -9 -8 -8 -9 -8 -4 13 -5 12 -9 0 -9 0 0 -20 0 -20 -10 0 -10 0 0
19 0 19 13 5 12 5 -15 12 -15 12 13 5 12 5 0 19 0 19 10 0 10 0 0 -20 0 -20 5
0 6 0 27 27 26 27 -12 4 -12 4 0 9 0 9 5 0 6 0 26 -26z m83 16 l0 -10 -20 0
-20 0 0 10 0 10 20 0 20 0 0 -10z m860 4 l0 -5 -15 -16 -16 -15 -5 5 -6 6 13
15 14 15 8 1 7 0 0 -6z m80 -23 l0 -29 13 -5 12 -4 -9 -9 -9 -9 -4 13 -5 12
-29 0 -29 0 0 -10 0 -10 10 0 10 0 0 -20 0 -20 -10 0 -10 0 0 20 0 20 -10 0
-10 0 0 16 0 15 14 15 15 14 15 0 16 0 0 10 0 10 10 0 10 0 0 -29z m-140 3 l0
-5 -15 -16 -16 -15 -5 5 -6 6 13 15 14 15 8 1 7 0 0 -6z m-700 -44 l0 -10 -10
0 -10 0 0 10 0 10 10 0 10 0 0 -10z m40 0 l0 -10 -10 0 -10 0 0 10 0 10 10 0
10 0 0 -10z m700 0 l0 -10 -10 0 -10 0 0 10 0 10 10 0 10 0 0 -10z m-40 -19
l0 -9 -12 -6 -13 -6 13 -6 12 -6 0 -9 0 -9 -20 0 -20 0 0 15 0 16 13 14 12 14
8 1 7 0 0 -9z m-700 -21 l0 -10 -10 0 -10 0 0 10 0 10 10 0 10 0 0 -10z m40
-10 l0 -20 -10 0 -10 0 0 20 0 20 10 0 10 0 0 -20z m700 10 l0 -10 -10 0 -10
0 0 10 0 10 10 0 10 0 0 -10z m-860 -20 l0 -10 -20 0 -20 0 0 -9 0 -9 13 -5
12 -4 -7 -8 -7 -7 -16 16 -16 16 13 14 13 15 18 1 17 0 0 -10z m220 -56 l0
-46 30 -28 30 -28 0 -16 0 -16 18 0 18 0 14 -20 14 -20 18 0 18 0 0 -10 0 -10
19 0 19 0 6 -12 6 -13 6 13 6 12 19 0 19 0 0 10 0 10 15 0 15 0 55 55 55 55 0
15 0 15 10 0 10 0 0 40 0 40 20 0 20 0 0 -10 0 -10 20 0 20 0 0 -10 0 -10 20
0 20 0 0 -10 0 -10 15 0 16 0 34 -35 35 -34 0 -6 0 -5 -16 0 -16 0 -28 -30
-28 -30 -14 0 -14 0 -14 -20 -14 -20 -14 0 -13 0 -15 -14 -14 -15 0 -5 0 -6
28 0 28 0 14 -20 14 -20 13 0 14 0 45 -46 46 -45 -6 -6 -5 -5 -40 41 -39 41
-14 0 -14 0 -14 20 -14 20 -28 0 -28 0 0 10 0 10 -15 0 -16 0 -99 -100 -100
-101 -110 111 -109 110 -13 0 -14 0 -14 20 -14 20 -18 0 -18 0 0 10 0 10 -15
0 -15 0 -55 55 -55 55 0 15 0 15 20 0 20 0 0 10 0 10 30 0 30 0 0 10 0 10 50
0 50 0 0 10 0 10 20 0 20 0 0 -46z m700 16 l0 -30 -10 0 -10 0 0 20 0 20 -10
0 -10 0 0 -10 0 -10 -20 0 -20 0 0 10 0 10 20 0 20 0 0 10 0 10 20 0 20 0 0
-30z m60 0 l0 -10 -10 0 -10 0 0 10 0 10 10 0 10 0 0 -10z m-1097 -22 l5 -13
10 14 10 14 16 -16 16 -16 0 -5 0 -6 -20 0 -20 0 0 -9 0 -9 13 -5 12 -4 -8 -9
-8 -8 -9 13 -8 14 -16 -16 -16 -16 0 -14 0 -15 13 -6 12 -6 -12 -6 -13 -6 0
-19 0 -19 30 0 30 0 0 -26 0 -27 22 -18 21 -19 -6 -6 -6 -6 -40 41 -39 41 -16
0 -16 0 0 19 0 19 -12 6 -13 6 13 6 12 6 0 27 0 27 20 14 20 14 0 18 0 18 -20
0 -20 0 0 10 0 10 19 0 19 0 5 -12z m1137 -38 l0 -10 -16 0 -15 0 -17 -17 -17
-16 13 -5 12 -4 0 -9 0 -9 -20 0 -20 0 0 -10 0 -10 -10 0 -10 0 0 18 0 18 20
14 20 14 0 18 0 18 30 0 30 0 0 -10z m0 -60 l0 -10 -10 0 -10 0 0 10 0 10 10
0 10 0 0 -10z m-1065 -55 l25 -24 0 -6 0 -5 -20 0 -20 0 0 20 0 20 -20 0 -20
0 0 10 0 10 15 0 16 0 24 -25z m1025 5 l0 -20 -16 0 -15 0 -16 -15 -15 -16 7
-7 8 -7 4 13 5 12 19 0 19 0 0 -20 0 -20 -20 0 -20 0 0 -20 0 -20 -10 0 -10 0
0 30 0 30 -29 0 -29 0 -6 13 -6 12 -6 -12 -6 -13 -9 0 -9 0 0 20 0 20 20 0 20
0 0 -10 0 -10 30 0 30 0 0 20 0 20 20 0 20 0 0 10 0 10 10 0 10 0 0 -20z
m-1000 -70 l0 -10 -10 0 -10 0 0 10 0 10 10 0 10 0 0 -10z m1040 0 l0 -10 -10
0 -10 0 0 10 0 10 10 0 10 0 0 -10z m-1160 -30 l0 -20 -10 0 -10 0 0 20 0 20
10 0 10 0 0 -20z m160 0 l0 -20 -10 0 -10 0 0 20 0 20 10 0 10 0 0 -20z m180
10 l0 -10 -28 0 -28 0 -14 -20 -14 -20 -14 0 -14 0 -39 -41 -40 -41 -5 5 -6 6
46 45 45 46 14 0 13 0 14 20 14 20 28 0 28 0 0 -10z m680 -10 l0 -20 -10 0
-10 0 0 20 0 20 10 0 10 0 0 -20z m140 -40 l0 -20 -6 0 -5 0 -15 14 -14 15 0
5 0 6 20 0 20 0 0 -20z m-1160 -20 l0 -20 -10 0 -10 0 0 20 0 20 10 0 10 0 0
-20z m40 10 l0 -10 -10 0 -10 0 0 10 0 10 10 0 10 0 0 -10z m1040 0 l0 -10
-10 0 -10 0 0 10 0 10 10 0 10 0 0 -10z m-1000 -20 l0 -10 -10 0 -10 0 0 10 0
10 10 0 10 0 0 -10z"/>
<path d="M480 852 l0 -8 20 -14 20 -14 0 -18 0 -18 -10 0 -10 0 0 -16 0 -15
14 -15 15 -14 21 0 21 0 16 15 15 16 -6 7 -7 6 -9 -14 -9 -14 -7 6 -6 7 15 16
16 15 15 0 16 0 0 10 0 10 -20 0 -20 0 0 10 0 10 -28 0 -28 0 -14 20 -14 20
-8 0 -8 0 0 -8z m80 -62 l0 -10 -10 0 -10 0 0 10 0 10 10 0 10 0 0 -10z m-20
-40 l0 -10 -10 0 -10 0 0 10 0 10 10 0 10 0 0 -10z"/>
<path d="M790 840 l-14 -20 -28 0 -28 0 0 -10 0 -10 -16 0 -15 0 -15 -14 -14
-15 0 -25 0 -26 10 0 10 0 0 30 0 30 16 0 15 0 16 -15 15 -16 -6 -7 -7 -6 -9
14 -9 14 -7 -6 -6 -7 15 -16 16 -15 21 0 21 0 15 14 14 15 0 15 0 16 -10 0
-10 0 0 18 0 18 20 14 20 14 0 8 0 8 -8 0 -8 0 -14 -20z m-30 -50 l0 -10 -10
0 -10 0 0 10 0 10 10 0 10 0 0 -10z m20 -40 l0 -10 -10 0 -10 0 0 10 0 10 10
0 10 0 0 -10z"/>
<path d="M660 671 l0 -9 12 -4 13 -5 -18 -17 -18 -18 -19 23 -20 22 -6 -6 -6
-6 26 -26 26 -26 26 26 25 25 -15 15 -15 15 -5 0 -6 0 0 -9z"/>
<path d="M540 592 l0 -8 20 -14 20 -14 0 -14 0 -13 15 -15 15 -15 15 15 15 15
0 15 0 16 10 0 10 0 0 -16 0 -15 15 -15 15 -15 15 15 15 15 0 25 0 26 10 0 10
0 0 10 0 10 -20 0 -20 0 0 -10 0 -10 -60 0 -60 0 0 10 0 10 -20 0 -20 0 0 -8z
m80 -52 l0 -20 -10 0 -10 0 0 20 0 20 10 0 10 0 0 -20z m80 0 l0 -20 -10 0
-10 0 0 20 0 20 10 0 10 0 0 -20z"/>
<path d="M60 730 l0 -10 10 0 10 0 0 10 0 10 -10 0 -10 0 0 -10z"/>
<path d="M513 465 l-13 -14 0 -36 0 -35 10 0 10 0 0 -15 0 -15 65 -65 65 -65
65 65 65 65 0 15 0 15 10 0 10 0 0 30 0 30 -10 0 -10 0 0 -30 0 -30 -10 0 -10
0 0 -20 0 -20 -9 0 -9 0 -5 13 -4 12 -9 -9 -9 -9 13 -4 12 -5 0 -9 0 -9 -16 0
-15 0 -15 -14 -14 -15 0 -15 0 -16 -15 0 -16 0 -36 36 -36 36 14 9 13 8 -7 8
-8 7 -9 -13 -8 -14 -26 26 -26 26 0 26 0 25 20 0 20 0 0 -16 0 -15 15 -16 16
-15 7 7 7 8 -12 4 -13 5 0 14 0 15 -25 24 -24 25 -3 0 -3 -1 -12 -14z"/>
<path d="M720 421 l0 -19 -12 -5 -13 -4 7 -8 7 -7 16 15 15 16 0 15 0 16 -10
0 -10 0 0 -19z"/>
<path d="M671 344 l-13 -15 6 -6 5 -5 16 15 15 16 0 5 0 6 -7 0 -8 -1 -14 -15z"/>
<path d="M620 330 l0 -10 10 0 10 0 0 10 0 10 -10 0 -10 0 0 -10z"/>
</g>
</svg>
