<?xml version="1.0" standalone="no"?>
<!DOCTYPE svg PUBLIC "-//W3C//DTD SVG 20010904//EN"
 "http://www.w3.org/TR/2001/REC-SVG-20010904/DTD/svg10.dtd">
<svg version="1.0" xmlns="http://www.w3.org/2000/svg"
 width="468pt" height="468pt" viewBox="0 0 468 468"
 preserveAspectRatio="xMidYMid meet">
<metadata>
Created by potrace 1.8, written by Peter Selinger 2001-2007
</metadata>
<g transform="translate(0,468) scale(0.365625,-0.365625)"
fill="#000000" stroke="none">
<path d="M410 1265 l0 -15 -11 0 -10 0 -15 -14 -14 -15 0 -35 0 -36 -15 0 -15
0 0 -35 0 -35 -10 0 -10 0 0 10 0 10 -65 0 -65 0 0 -10 0 -10 -25 0 -25 0 0
-15 0 -15 -15 0 -15 0 0 -25 0 -25 15 0 15 0 0 -15 0 -15 35 0 35 0 0 -10 0
-10 55 0 55 0 0 -40 0 -40 -15 0 -15 0 0 -50 0 -50 -25 0 -25 0 0 10 0 10 -15
0 -15 0 0 15 0 15 -60 0 -60 0 0 -25 0 -25 -15 0 -15 0 0 -40 0 -40 -10 0 -10
0 0 -25 0 -25 -15 0 -15 0 0 -40 0 -40 15 0 15 0 0 -21 0 -20 14 -15 15 -14
10 0 11 0 0 -25 0 -25 10 0 10 0 0 -30 0 -30 15 0 15 0 0 -25 0 -25 10 0 10 0
0 -25 0 -25 11 0 10 0 15 -14 14 -15 0 -10 0 -11 15 0 15 0 0 -15 0 -15 11 0
10 0 15 -14 14 -15 0 -10 0 -11 25 0 25 0 0 -10 0 -10 -25 0 -25 0 0 -40 0
-40 -25 0 -25 0 0 -25 0 -25 50 0 50 0 0 15 0 15 25 0 25 0 0 -15 0 -15 400 0
400 0 0 25 0 25 -15 0 -15 0 0 40 0 40 -35 0 -35 0 0 10 0 10 10 0 10 0 0 15
0 15 11 0 10 0 15 14 14 15 0 10 0 11 15 0 15 0 0 15 0 15 10 0 10 0 0 25 0
25 15 0 15 0 0 35 0 35 10 0 10 0 0 30 0 30 15 0 15 0 0 85 0 85 -15 0 -15 0
0 55 0 55 -25 0 -25 0 0 10 0 10 -25 0 -25 0 0 15 0 15 -50 0 -50 0 0 10 0 10
-25 0 -25 0 0 15 0 15 -65 0 -65 0 0 10 0 10 -25 0 -25 0 0 15 0 15 -75 0 -75
0 0 -15 0 -15 -15 0 -15 0 0 -10 0 -10 -15 0 -15 0 0 50 0 50 55 0 55 0 0 15
0 15 35 0 35 0 0 10 0 10 15 0 15 0 0 15 0 15 -15 0 -15 0 0 10 0 10 -25 0
-25 0 0 15 0 15 -50 0 -50 0 0 -15 0 -15 -25 0 -25 0 0 55 0 55 10 0 10 0 0
35 0 35 -10 0 -10 0 0 25 0 25 -25 0 -25 0 0 15 0 15 -65 0 -65 0 0 -15z m136
-29 l14 -15 0 -70 0 -71 -10 0 -10 0 0 -40 0 -40 -25 0 -25 0 0 -15 0 -15 -15
0 -15 0 0 11 0 10 -14 15 -15 14 -10 0 -11 0 0 15 0 15 -15 0 -15 0 0 65 0 65
15 0 15 0 0 25 0 25 15 0 15 0 0 -25 0 -25 25 0 25 0 0 -15 0 -15 25 0 25 0 0
15 0 15 -25 0 -25 0 0 10 0 10 -15 0 -15 0 0 25 0 25 36 0 35 0 15 -14z m-236
-171 l0 -15 10 0 10 0 0 -25 0 -25 -10 0 -10 0 0 -15 0 -15 -55 0 -55 0 0 15
0 15 -35 0 -35 0 0 25 0 25 25 0 25 0 0 15 0 15 65 0 65 0 0 -15z m100 -55 l0
-10 15 0 15 0 0 -15 0 -15 -40 0 -40 0 0 25 0 25 25 0 25 0 0 -10z m330 0 l0
-10 25 0 25 0 0 -15 0 -15 -35 0 -35 0 0 -10 0 -10 -65 0 -65 0 0 10 0 10 -15
0 -15 0 0 15 0 15 40 0 40 0 0 10 0 10 50 0 50 0 0 -10z m-230 -75 l0 -15 25
0 25 0 0 -65 0 -65 15 0 15 0 0 -25 0 -25 10 0 10 0 0 15 0 15 15 0 15 0 0 25
0 25 15 0 15 0 0 10 0 10 71 0 70 0 15 -14 14 -15 0 -20 0 -21 15 0 15 0 0
-15 0 -15 15 0 15 0 0 25 0 25 50 0 50 0 0 -10 0 -10 25 0 25 0 0 -25 0 -25
25 0 25 0 0 10 0 10 25 0 25 0 0 -10 0 -10 15 0 15 0 0 -15 0 -15 10 0 10 0 0
-25 0 -25 15 0 15 0 0 -90 0 -90 -15 0 -15 0 0 -25 0 -25 -10 0 -10 0 0 -40 0
-40 -15 0 -15 0 0 -21 0 -20 -14 -15 -15 -14 -10 0 -11 0 0 -26 0 -25 -14 -15
-15 -14 -10 0 -11 0 0 -15 0 -15 -15 0 -15 0 0 -10 0 -10 -316 0 -315 0 -15
14 -14 15 0 10 0 11 -15 0 -15 0 0 10 0 10 -25 0 -25 0 0 15 0 15 -10 0 -10 0
0 15 0 15 -15 0 -15 0 0 10 0 10 -15 0 -15 0 0 15 0 15 -10 0 -10 0 0 25 0 25
-15 0 -15 0 0 36 0 35 -14 15 -15 14 -10 0 -11 0 0 25 0 25 -10 0 -10 0 0 15
0 15 -15 0 -15 0 0 24 0 24 -12 6 -13 6 13 6 12 6 0 29 0 29 15 0 15 0 0 10 0
10 35 0 35 0 0 15 0 15 15 0 15 0 0 25 0 25 -15 0 -15 0 0 -25 0 -25 -35 0
-35 0 0 10 0 10 10 0 10 0 0 25 0 25 50 0 50 0 0 -10 0 -10 15 0 15 0 0 -40 0
-40 -15 0 -15 0 0 -50 0 -50 -10 0 -10 0 0 -50 0 -50 10 0 10 0 0 -15 0 -15
15 0 15 0 0 -10 0 -10 15 0 15 0 0 25 0 25 -15 0 -15 0 0 50 0 50 15 0 15 0 0
40 0 40 10 0 10 0 0 35 0 35 15 0 15 0 0 25 0 25 10 0 10 0 0 55 0 55 15 0 15
0 0 10 0 10 25 0 25 0 0 -10 0 -10 15 0 15 0 0 10 0 10 10 0 10 0 0 -25 0 -25
15 0 15 0 0 -25 0 -25 10 0 10 0 0 -25 0 -25 15 0 15 0 0 25 0 25 -15 0 -15 0
0 25 0 25 -10 0 -10 0 0 40 0 40 10 0 10 0 0 -15z m620 -860 l0 -25 -410 0
-410 0 0 25 0 25 410 0 410 0 0 -25z"/>
<path d="M380 885 l0 -15 -10 0 -10 0 0 -15 0 -15 10 0 10 0 0 15 0 15 15 0
15 0 0 15 0 15 -15 0 -15 0 0 -15z"/>
</g>
</svg>
