<?xml version="1.0" standalone="no"?>
<!DOCTYPE svg PUBLIC "-//W3C//DTD SVG 20010904//EN"
 "http://www.w3.org/TR/2001/REC-SVG-20010904/DTD/svg10.dtd">
<svg version="1.0" xmlns="http://www.w3.org/2000/svg"
 width="468pt" height="468pt" viewBox="0 0 468 468"
 preserveAspectRatio="xMidYMid meet">
<metadata>
Created by potrace 1.8, written by Peter Selinger 2001-2007
</metadata>
<g transform="translate(0,468) scale(0.365625,-0.365625)"
fill="#000000" stroke="none">
<path d="M160 1240 l0 -40 -37 -2 -38 -1 35 -4 35 -5 7 -11 8 -12 0 -22 0 -22
20 -6 20 -6 0 -10 0 -9 19 0 19 0 0 25 0 25 -14 0 -14 0 0 15 0 15 -15 0 -15
0 0 10 0 10 55 0 55 0 0 -10 0 -10 15 0 15 0 0 -15 0 -15 -15 0 -15 0 0 -15 0
-15 -15 0 -15 0 0 -10 0 -10 11 0 11 0 29 29 29 29 0 11 0 11 -10 0 -10 0 0 9
0 10 28 4 27 4 -27 2 -28 1 0 40 0 40 -11 0 -10 0 -15 -14 -14 -14 13 -5 12
-5 -15 -11 -15 -11 13 0 12 0 0 -10 0 -10 -25 0 -25 0 0 10 0 10 13 0 12 0
-15 11 -15 11 12 5 13 5 -14 14 -15 14 -40 0 -41 0 0 -40z"/>
<path d="M770 1241 l0 -9 -32 -7 -32 -7 -13 -13 -13 -13 -12 -5 -13 -4 30 -27
30 -27 -19 -14 -18 -14 18 -18 18 -18 -32 -3 -32 -3 0 -8 0 -8 -35 -6 -35 -6
-31 -31 -31 -31 5 -5 5 -6 26 -2 26 -3 0 13 0 14 19 0 19 0 6 13 6 12 -6 -25
-7 -24 15 15 15 15 7 22 7 22 19 0 18 0 5 -7 4 -8 -4 14 -3 13 34 -4 34 -4 -5
13 -5 13 28 1 29 2 -22 4 -22 4 -6 20 -6 19 -10 0 -9 0 0 11 0 12 16 11 15 12
-7 17 -6 17 -8 0 -9 0 -6 -20 -6 -20 -15 0 -14 0 0 10 0 10 15 0 15 0 0 9 0
10 -12 4 -13 4 18 -3 18 -2 19 20 19 21 31 -6 30 -6 0 14 0 15 -35 0 -35 0 0
-9z m-70 -61 l0 -10 -10 0 -10 0 0 10 0 10 10 0 10 0 0 -10z"/>
<path d="M850 1240 l0 -10 10 0 10 0 0 10 0 10 -10 0 -10 0 0 -10z"/>
<path d="M877 1228 l-6 -22 20 -19 20 -19 13 17 13 17 21 -6 22 -7 0 -10 0 -9
-15 0 -15 0 0 -10 0 -10 -15 0 -15 0 0 -13 0 -13 20 -17 20 -17 -6 -24 -6 -25
43 -3 42 -3 4 -15 5 -15 -11 15 -10 14 -8 -7 -7 -8 13 -9 14 -8 14 5 13 5 0
-12 0 -11 -15 -15 -15 -15 1 -17 1 -17 5 15 6 15 14 13 13 13 0 -24 0 -25 -6
-16 -6 -16 -13 0 -13 0 -6 -12 -6 -13 -6 12 -6 13 -15 -15 -14 -15 -50 0 -49
0 0 -10 0 -10 50 0 50 0 0 10 0 10 10 0 10 0 6 -24 6 -25 13 -5 13 -5 -6 21
-5 21 28 -7 29 -7 33 -35 33 -36 -6 -10 -7 -10 28 -24 28 -24 -14 0 -14 0 -22
6 -23 6 0 21 0 20 -30 29 -30 28 0 -9 0 -10 16 -15 15 -16 10 0 9 0 0 -16 0
-15 -22 7 -22 7 16 -17 17 -16 10 0 11 0 0 -15 0 -15 -11 0 -12 0 -23 25 -23
25 -11 0 -10 0 0 -8 0 -8 20 -17 20 -17 10 0 10 0 0 -9 0 -10 23 -7 22 -7 6
-9 5 -8 36 -2 36 -1 5 -50 4 -49 14 -9 14 -8 4 11 4 11 -15 11 -15 11 -5 49
-6 48 -9 7 -10 6 -6 48 -7 47 -38 39 -38 38 -24 8 -24 8 -12 11 -11 12 11 11
11 12 13 15 12 15 0 26 0 25 -10 0 -10 0 0 14 0 13 -26 28 -26 28 -29 0 -30 0
13 8 12 8 -27 25 -27 25 0 6 0 5 13 0 14 0 24 21 24 22 -14 5 -13 4 -16 19
-16 19 -8 0 -8 0 0 -14 0 -15 -9 -5 -9 -6 -16 6 -16 6 0 8 0 9 20 6 20 6 0 10
0 9 -19 0 -19 0 -5 -22z m153 -368 l0 -10 -10 0 -10 0 0 10 0 10 10 0 10 0 0
-10z m140 -110 l0 -10 -10 0 -10 0 0 10 0 10 10 0 10 0 0 -10z m30 -114 l0 -7
-16 16 -17 16 -12 -4 -12 -5 -13 8 -13 8 14 14 13 14 28 -26 28 -27 0 -7z"/>
<path d="M790 1204 l0 -16 -14 5 -15 6 6 -15 5 -14 8 0 8 0 5 13 5 12 12 -15
12 -15 -6 18 -6 19 0 9 0 9 -10 0 -10 0 0 -16z"/>
<path d="M840 1180 l0 -9 21 -20 21 -19 -7 -21 -6 -21 -10 0 -9 0 0 -10 0 -10
25 -6 25 -6 0 -8 0 -8 -16 -6 -16 -6 -39 0 -39 0 0 -10 0 -10 45 0 45 0 0 9 0
10 20 6 20 6 0 9 0 10 -25 6 -25 6 0 8 0 9 15 15 15 15 0 9 0 10 -15 6 -15 5
0 21 0 20 -15 0 -15 0 0 -10z"/>
<path d="M250 1160 l0 -10 10 0 10 0 0 10 0 10 -10 0 -10 0 0 -10z"/>
<path d="M760 1131 l0 -9 6 -16 6 -16 25 0 25 0 -6 16 -6 16 0 9 0 9 -25 0
-25 0 0 -9z"/>
<path d="M820 1130 l0 -10 15 0 15 0 0 10 0 10 -15 0 -15 0 0 -10z"/>
<path d="M46 1068 l-19 -21 -5 -49 -5 -48 -8 0 -9 0 0 -25 0 -25 9 0 10 0 7
-22 7 -23 9 -6 10 -7 19 5 19 5 0 9 0 9 20 0 20 0 0 -9 0 -9 20 -5 20 -5 -4
-31 -3 -32 -8 -7 -8 -7 -5 14 -4 13 -9 -13 -8 -13 -20 23 -21 24 0 14 0 13
-10 0 -10 0 0 -15 0 -15 10 0 10 0 0 -50 0 -50 28 0 27 0 -15 -10 -15 -10 15
-10 15 -10 -14 -9 -13 -9 13 -5 14 -5 -15 -11 -15 -11 13 0 12 0 0 -20 0 -21
15 -5 15 -6 0 -19 0 -19 -20 -20 -20 -20 -15 0 -15 0 0 -10 0 -10 -22 0 -23 0
-22 -6 -23 -6 0 -229 0 -229 640 0 640 0 0 230 0 230 -12 0 -13 0 -15 10 -15
10 14 9 14 9 -28 26 -28 26 -2 0 -2 0 3 -27 3 -28 10 -3 11 -4 0 -15 0 -16
-36 6 -36 6 -22 26 -22 26 -17 -7 -16 -6 -6 -18 -6 -19 -55 -7 -55 -6 -37 6
-37 6 -3 10 -4 10 -10 0 -9 0 -15 15 -15 14 -14 -5 -15 -6 0 -9 0 -9 15 0 15
0 0 -10 0 -10 -15 0 -15 0 0 10 0 10 -14 0 -14 0 -4 -11 -4 -12 -64 -1 -63 -1
-4 13 -5 12 -19 0 -19 0 -6 25 -6 25 -9 0 -9 0 0 -13 0 -14 -17 -20 -18 -20
-31 -6 -31 -6 -21 6 -21 5 -6 16 -6 15 11 11 11 11 15 -19 14 -20 7 7 7 7 -20
15 -19 15 17 13 17 13 7 29 7 28 -18 13 -19 14 6 6 6 6 21 -21 21 -21 0 -15 0
-15 -10 0 -10 0 0 -20 0 -20 9 0 10 0 15 16 16 15 0 15 0 14 10 0 10 0 0 10 0
10 -13 0 -14 0 -26 23 -27 23 0 9 0 10 9 -14 9 -14 28 -3 29 -3 3 -10 4 -11
19 0 19 0 0 10 0 10 -13 0 -13 0 -18 21 -18 22 16 9 16 9 0 14 0 15 9 0 9 0 6
25 6 25 10 0 10 0 0 15 0 15 9 0 9 0 6 -25 6 -25 10 0 10 0 0 20 0 20 -10 0
-10 0 17 20 17 20 11 0 10 0 -15 -10 -15 -10 15 -10 15 -10 8 0 7 0 0 18 0 17
10 -15 10 -15 11 18 10 17 14 0 13 0 5 13 4 12 8 -7 7 -7 -31 -29 -32 -29 7
-16 6 -17 9 0 9 0 0 9 0 9 -12 5 -13 4 8 9 8 8 9 -14 9 -14 -6 -26 -5 -27 16
-16 16 -16 0 -10 0 -11 10 0 10 0 0 15 0 15 -10 0 -10 0 0 15 0 15 -10 0 -10
0 0 9 0 10 20 6 20 6 0 25 0 24 -10 0 -10 0 0 10 0 10 15 0 15 0 0 -11 0 -10
15 -15 15 -15 0 -14 0 -14 -13 -13 -13 -12 15 -18 15 -18 8 0 8 0 0 15 0 15
-10 0 -10 0 0 15 0 15 10 0 10 0 0 24 0 24 -15 6 -15 5 0 11 0 10 15 0 15 0 6
-25 6 -25 9 0 9 0 0 -15 0 -15 -10 0 -10 0 0 -15 0 -15 8 0 7 0 11 8 11 7 7
21 7 22 -16 15 -15 16 0 9 0 10 -16 6 -16 6 -23 0 -23 0 -6 15 -5 15 44 0 45
0 0 10 0 10 24 0 24 0 5 13 5 12 1 -22 1 -23 10 0 10 0 0 19 0 19 15 6 15 5
-1 13 -1 13 -5 -12 -5 -13 -9 0 -9 0 0 14 0 14 -12 6 -13 6 13 6 12 6 0 9 0 9
-9 0 -10 0 -7 -22 -7 -22 -13 -13 -13 -13 -20 0 -21 0 0 -16 0 -15 -16 15 -15
16 -17 -1 -17 -1 13 -5 12 -5 0 -9 0 -9 -10 0 -11 0 -13 12 -13 12 13 13 13
13 10 0 11 0 0 9 0 9 6 16 6 16 -31 0 -31 0 0 -9 0 -9 13 -5 12 -4 -9 -9 -9
-9 -4 13 -5 12 -24 0 -24 0 0 -15 0 -14 -15 5 -15 6 0 21 0 20 -17 -20 -18
-20 -22 -7 -21 -7 -6 -14 -5 -15 -26 0 -25 0 0 -10 0 -10 -40 0 -40 0 0 10 0
10 10 0 10 0 0 15 0 15 -10 0 -10 0 0 40 0 40 -10 0 -10 0 0 13 0 13 -20 17
-20 17 -50 0 -50 0 0 -9 0 -10 18 -4 17 -5 -17 -1 -18 -1 -6 -25 -6 -25 -9 0
-9 0 0 -15 0 -15 -10 0 -10 0 0 -25 0 -25 -29 0 -28 0 -7 40 -6 40 -10 0 -10
0 0 11 0 10 -13 13 -12 13 -15 6 -15 5 13 1 12 1 0 10 0 10 -47 -1 -48 -1 -19
-20z m70 -52 l14 -15 0 -20 0 -21 -10 0 -10 0 0 25 0 25 -10 0 -10 0 0 10 0
10 6 0 5 0 15 -14z m284 -1 l0 -15 -10 0 -10 0 0 15 0 15 10 0 10 0 0 -15z
m30 5 l0 -10 -10 0 -10 0 0 10 0 10 10 0 10 0 0 -10z m34 -55 l5 -15 -14 0
-15 0 0 -10 0 -10 -30 0 -30 0 0 15 0 15 15 0 15 0 0 10 0 10 24 0 24 0 6 -15z
m239 -39 l-2 -26 15 0 14 0 0 -9 0 -9 -15 -6 -15 -5 0 14 0 15 -20 0 -20 0 0
-9 0 -9 13 -6 12 -5 -30 5 -30 6 15 -11 14 -10 -7 -7 -6 -7 -40 -3 -39 -2 -20
-20 -20 -20 -7 -31 -7 -31 -7 0 -8 0 -25 -23 -25 -23 -7 -29 -8 -30 -11 -7
-12 -8 13 0 12 0 0 -20 0 -20 -10 0 -10 0 0 -28 0 -28 -21 -18 -22 -18 -9 13
-9 14 6 30 5 30 10 3 10 4 0 74 0 74 10 0 10 0 0 -10 0 -10 15 0 15 0 0 70 0
70 -10 0 -10 0 0 15 0 15 15 0 15 0 0 10 0 10 25 0 25 0 0 -10 0 -10 40 0 40
0 0 10 0 10 24 0 24 0 6 15 5 15 11 0 11 0 16 15 15 16 12 -4 11 -4 -2 -27z
m-594 14 l10 14 8 -7 7 -8 -13 -8 -13 -9 13 -4 14 -5 -7 -8 -7 -7 -16 15 -16
16 -16 -6 -17 -7 14 16 15 16 8 -12 7 -11 9 15z m232 -42 l19 -21 0 -2 0 -3
-42 0 -41 -1 -9 -13 -8 -13 -10 15 -9 15 -28 2 -28 2 15 -9 14 -9 -6 -6 -7 -7
-14 13 -14 13 13 13 13 13 49 0 50 0 5 -12 4 -13 9 9 9 9 -12 4 -13 5 0 9 0 9
11 0 12 0 18 -22z m449 -8 l0 -10 -10 0 -10 0 0 10 0 10 10 0 10 0 0 -10z
m-550 -30 l0 -10 -10 0 -10 0 0 10 0 10 10 0 10 0 0 -10z m-23 -42 l-5 -13 -1
19 -1 19 6 -6 6 -6 -5 -13z m44 -8 l9 0 0 -65 0 -65 -10 0 -10 0 0 43 0 42 -5
40 -4 40 5 -17 5 -18 10 0z m30 0 l9 0 0 -115 0 -115 -10 0 -10 0 0 108 0 107
-4 20 -3 20 4 -12 4 -13 10 0z m278 6 l-17 -11 -3 -19 -4 -19 -13 -3 -12 -2
10 5 10 5 0 15 0 16 18 17 17 17 5 -4 5 -5 -16 -12z m-242 -168 l-4 -33 0 65
0 65 4 -32 4 -33 -4 -32z m190 67 l-6 -15 -11 0 -10 0 0 14 0 14 13 5 12 4 4
-3 3 -3 -5 -16z m-357 5 l0 -10 -10 0 -10 0 0 10 0 10 10 0 10 0 0 -10z m197
-67 l-4 -28 0 55 0 55 4 -27 4 -28 -4 -27z m-197 37 l0 -10 -10 0 -10 0 0 10
0 10 10 0 10 0 0 -10z m30 -20 l0 -10 -10 0 -10 0 0 10 0 10 10 0 10 0 0 -10z
m0 -30 l0 -10 -10 0 -10 0 0 10 0 10 10 0 10 0 0 -10z m0 -30 l0 -10 -10 0
-10 0 0 10 0 10 10 0 10 0 0 -10z m82 -52 l4 -63 -4 -12 -4 -13 -9 0 -9 0 0
75 0 75 9 0 9 0 4 -62z m-112 32 l0 -10 -10 0 -10 0 0 10 0 10 10 0 10 0 0
-10z m140 -45 l0 -25 -10 0 -10 0 0 25 0 25 10 0 10 0 0 -25z m-110 -10 l0
-15 -10 0 -10 0 0 15 0 15 10 0 10 0 0 -15z m1035 -26 l7 -10 -3 -4 -4 -3 -13
14 -13 14 10 0 10 0 6 -11z m-905 -9 l0 -10 -10 0 -10 0 0 10 0 10 10 0 10 0
0 -10z m250 -20 l0 -10 -10 0 -10 0 0 10 0 10 10 0 10 0 0 -10z m540 0 l0 -10
-10 0 -10 0 0 10 0 10 10 0 10 0 0 -10z"/>
<path d="M600 860 l0 -10 10 0 10 0 0 10 0 10 -10 0 -10 0 0 -10z"/>
<path d="M218 1063 l12 -5 13 5 12 5 -25 0 -25 0 13 -5z"/>
<path d="M283 1063 l17 -5 13 5 12 5 -30 0 -30 0 18 -5z"/>
<path d="M850 971 l0 -10 18 -4 17 -5 -17 -1 -18 -1 0 -10 0 -10 10 0 11 0 13
12 13 12 -13 13 -13 13 -10 0 -11 0 0 -9z"/>
<path d="M550 940 l0 -10 10 0 10 0 0 10 0 10 -10 0 -10 0 0 -10z"/>
<path d="M580 940 l0 -10 10 0 10 0 0 10 0 10 -10 0 -10 0 0 -10z"/>
<path d="M140 830 l0 -10 10 0 10 0 0 10 0 10 -10 0 -10 0 0 -10z"/>
<path d="M657 804 l5 -14 9 0 9 0 0 9 0 9 -14 5 -15 6 6 -15z"/>
<path d="M110 800 l0 -10 10 0 10 0 0 10 0 10 -10 0 -10 0 0 -10z"/>
<path d="M140 800 l0 -10 10 0 10 0 0 10 0 10 -10 0 -10 0 0 -10z"/>
<path d="M594 776 l-12 -13 -7 -24 -8 -24 -14 -10 -14 -11 7 -17 6 -17 9 0 9
0 0 10 0 10 -10 0 -10 0 0 10 0 10 9 0 10 0 6 -19 6 -19 16 -6 17 -7 20 24 21
24 22 7 21 7 6 14 5 14 -15 -6 -14 -5 0 -8 0 -8 -25 -6 -25 -6 0 -10 0 -10
-11 0 -10 0 -15 15 -15 15 19 0 20 0 6 24 6 24 -6 16 -6 16 -7 0 -6 -1 -11
-13z"/>
<path d="M1010 785 l0 -5 21 -21 21 -21 5 5 5 5 -21 21 -21 21 -5 0 -5 0 0 -5z"/>
<path d="M983 725 l-33 -32 0 -7 0 -7 13 11 12 10 28 25 27 24 0 6 0 5 -7 -1
-8 -1 -32 -33z"/>
<path d="M734 705 l-6 -25 -10 0 -9 0 -15 -15 -15 -15 -25 0 -24 0 0 -10 0 -9
35 -7 35 -6 0 -9 0 -9 -19 0 -19 0 -4 9 -3 10 -30 7 -30 7 17 -16 17 -17 9 0
10 0 6 -16 6 -15 22 7 22 7 13 13 13 13 0 4 0 5 -25 6 -25 6 0 9 0 9 24 6 25
6 6 20 6 20 10 0 9 0 0 -10 0 -10 -10 0 -10 0 0 -15 0 -15 10 0 11 0 5 15 6
15 -6 25 -6 25 -10 0 -10 0 -6 -25z"/>
<path d="M900 705 l0 -25 10 0 10 0 0 25 0 25 -10 0 -10 0 0 -25z"/>
<path d="M988 680 l-28 -30 -40 0 -40 0 0 18 0 17 -11 -15 -11 -15 -5 13 -5
12 -14 0 -14 0 0 -9 0 -9 30 -7 30 -7 0 -9 0 -9 40 0 40 0 0 10 0 10 20 0 19
0 10 18 11 17 9 -14 9 -14 -5 -14 -5 -13 -24 -6 -24 -6 0 -9 0 -9 -55 0 -55 0
0 9 0 8 -40 7 -40 6 0 10 0 10 -14 0 -14 0 -6 -12 -6 -13 -6 13 -6 12 -14 0
-14 0 0 -10 0 -10 8 -1 7 -2 44 -1 45 -2 4 -12 4 -12 24 0 24 0 0 -10 0 -10
55 0 55 0 0 10 0 10 11 0 12 0 23 25 23 25 11 0 10 0 0 -10 0 -10 25 -6 25 -6
0 -9 0 -9 15 0 15 0 0 -10 0 -10 25 0 25 0 0 10 0 10 -25 0 -25 0 0 9 0 9 -30
7 -30 7 0 9 0 9 -25 6 -25 6 -6 24 -6 24 -7 0 -6 0 -27 -30z"/>
<path d="M540 589 l0 -11 -32 -31 -31 -32 -5 13 -4 12 -14 0 -14 0 0 -5 0 -5
21 -21 20 -20 40 40 39 41 6 0 5 0 15 -14 14 -15 0 -9 0 -10 13 -5 14 -5 14 8
13 9 -7 8 -8 7 -9 -14 -10 -15 0 18 0 17 -10 0 -10 0 0 10 0 10 15 0 15 0 0
-10 0 -10 10 0 10 0 0 15 0 15 -40 0 -40 0 0 10 0 10 -15 0 -15 0 0 -11z"/>
<path d="M1070 565 l0 -15 -15 0 -16 0 -5 -15 -6 -14 -34 -7 -34 -6 0 -9 0 -9
20 0 20 0 0 9 0 9 25 6 26 7 19 19 20 20 0 10 0 10 -10 0 -10 0 0 -15z"/>
<path d="M770 560 l0 -10 -20 0 -20 0 0 -15 0 -15 -9 0 -9 0 -5 13 -5 12 -1
-19 -1 -18 25 6 26 7 19 19 20 20 0 5 0 5 -10 0 -10 0 0 -10z"/>
<path d="M654 520 l-1 -30 13 0 14 0 0 30 0 30 -12 0 -13 0 -1 -30z"/>
<path d="M1256 494 l-6 -16 0 -4 0 -4 15 0 15 0 0 20 0 20 -9 0 -9 0 -6 -16z"/>
</g>
</svg>
