<?xml version="1.0" standalone="no"?>
<!DOCTYPE svg PUBLIC "-//W3C//DTD SVG 20010904//EN"
 "http://www.w3.org/TR/2001/REC-SVG-20010904/DTD/svg10.dtd">
<svg version="1.0" xmlns="http://www.w3.org/2000/svg"
 width="468pt" height="468pt" viewBox="0 0 468 468"
 preserveAspectRatio="xMidYMid meet">
<metadata>
Created by potrace 1.8, written by Peter Selinger 2001-2007
</metadata>
<g transform="translate(0,468) scale(0.365625,-0.365625)"
fill="#000000" stroke="none">
<path d="M530 1261 l0 -19 -12 -5 -13 -5 14 -10 13 -10 -13 -5 -14 -6 18 -11
17 -11 0 -12 0 -12 -10 15 -10 15 -11 -15 -11 -15 6 18 6 18 -8 -5 -8 -5 0 19
0 19 8 -5 8 -5 -7 16 -6 17 -8 -14 -8 -13 -14 19 -14 19 -11 -7 -10 -6 -15 15
-15 15 -6 -13 -6 -12 -6 14 -6 13 -9 -13 -9 -14 -9 14 -9 13 -5 -13 -5 -14
-10 14 -10 13 -4 -12 -4 -12 -37 -2 -37 -3 -7 -6 -6 -7 7 -7 7 -7 9 14 10 15
-4 -32 -3 -31 7 -13 8 -12 -5 -14 -6 -15 -8 14 -9 13 -9 -14 -9 -13 -5 13 -5
14 -9 -11 -8 -11 -51 -5 -51 -5 -22 -22 -23 -23 7 -6 7 -7 9 18 10 17 14 0 15
0 0 10 0 10 15 0 15 0 0 -10 0 -10 -13 0 -13 0 -16 -19 -16 -19 -7 -22 -7 -22
21 11 21 12 0 9 0 10 17 20 17 20 13 0 13 0 0 10 0 10 15 0 15 0 0 -15 0 -15
-10 0 -10 0 -20 -20 -19 -19 -7 -26 -6 -26 -29 -6 -29 -5 0 -9 0 -9 20 0 20 0
0 10 0 10 15 0 15 0 0 -10 0 -10 25 0 25 0 0 10 0 10 -25 0 -25 0 0 14 0 14
15 6 15 5 0 11 0 10 19 19 19 19 21 7 21 6 0 10 0 9 10 0 10 0 0 -14 0 -15
-25 -27 -25 -27 0 -8 0 -9 5 0 5 0 49 50 49 50 10 0 10 0 5 -14 6 -14 -32 -36
-32 -35 -13 -16 -13 -15 -19 0 -20 0 0 -10 0 -10 10 0 9 0 33 -32 32 -31 48
-5 48 -5 0 -8 0 -9 -7 -1 -8 -1 -23 -2 -24 -3 -13 14 -13 13 -4 -12 -5 -13
-27 30 -28 30 -8 15 -9 15 -14 -19 -14 -19 -9 6 -10 6 -14 -9 -14 -9 7 -8 8
-7 8 13 9 13 5 -13 5 -14 14 19 15 19 10 -6 10 -6 -1 -73 -1 -73 -25 -2 -25
-1 -13 16 -13 17 -8 -14 -9 -13 -4 13 -5 14 -9 -8 -8 -8 14 -9 14 -9 8 6 9 5
12 -10 12 -10 43 3 42 3 9 -16 9 -17 8 8 8 8 -13 8 -13 8 75 -1 75 -1 -4 7 -5
8 17 -7 18 -7 -12 -4 -12 -4 0 -9 0 -9 15 0 15 0 0 15 0 15 13 0 12 0 -14 9
-14 9 33 32 32 31 -18 13 -17 13 7 14 7 14 -16 -20 -16 -20 -9 15 -10 15 0
-12 0 -13 -10 0 -10 0 0 9 0 10 22 7 21 6 14 12 14 11 12 11 12 10 -1 -64 0
-64 -17 -10 -17 -9 0 -19 0 -19 -15 -15 -15 -15 0 -8 0 -9 -28 -24 -28 -25 -8
-14 -9 -14 67 5 67 6 25 27 25 27 7 -6 6 -7 -14 -9 -15 -9 -1 -42 -2 -42 9 14
9 14 10 -15 10 -15 0 13 0 12 10 0 10 0 0 -10 0 -10 -25 -6 -25 -6 0 -8 0 -7
-50 -7 -50 -7 -6 -24 -6 -25 -229 0 -229 0 0 -255 0 -255 640 0 640 0 0 255 0
255 -125 0 -125 0 0 15 0 15 -15 0 -15 0 0 9 0 9 -35 6 -35 7 0 9 0 10 -15 0
-14 0 -18 19 -18 20 -27 -3 -27 -3 -12 8 -13 8 7 8 8 7 8 -13 9 -13 5 13 5 14
10 -14 10 -13 5 13 5 14 11 -15 10 -15 26 -2 25 -2 -14 15 -15 15 5 13 5 13
57 6 57 6 3 10 3 10 35 7 34 6 0 8 0 8 -40 7 -40 7 0 9 0 9 -21 0 -22 0 -38
12 -39 11 0 9 0 8 15 0 15 0 0 -9 0 -9 31 -7 30 -7 5 5 5 5 -50 50 -51 49 0 9
0 9 11 -15 11 -15 5 14 5 13 9 -13 8 -13 8 7 7 8 -13 8 -13 8 -28 -3 -29 -3
-6 28 -6 29 -15 6 -14 5 0 12 0 12 25 -27 25 -27 35 -6 35 -6 0 -8 0 -9 40 0
41 0 -9 -17 -9 -18 3 -30 2 -30 -5 13 -5 12 -8 0 -8 0 -5 -13 -5 -14 20 2 20
1 10 15 10 14 5 -12 5 -13 15 15 15 15 10 -6 11 -7 14 19 14 19 10 -15 11 -15
-5 17 -6 16 26 28 25 27 6 -10 7 -10 27 27 28 28 -13 6 -12 6 12 6 12 5 -19
21 -18 20 -11 -6 -10 -7 -21 21 -20 20 -10 0 -10 0 0 -9 0 -9 -27 -7 -28 -8
-37 -2 -36 -2 -14 8 -13 9 17 0 16 0 4 11 4 11 81 3 82 3 23 24 23 24 18 7 17
6 0 15 0 15 -16 15 -15 16 -14 0 -13 0 -5 14 -6 14 -82 0 -81 0 -8 12 -7 12
-6 -16 -6 -16 -30 4 -29 3 -13 -8 -13 -8 6 -6 7 -7 31 -2 32 -2 9 -17 9 -16
33 -32 32 -32 -30 7 -30 8 -8 14 -8 14 -24 0 -25 0 -6 25 -6 25 -9 0 -9 0 -1
-12 -1 -13 -2 -11 -1 -12 -29 -27 -29 -27 14 -9 14 -9 -42 0 -42 0 -6 11 -7
11 20 18 21 19 3 -11 4 -12 22 22 22 22 -21 21 -21 21 -8 -12 -8 -12 -5 13 -5
14 -10 -14 -10 -13 -4 13 -5 14 -8 -7 -8 -8 6 -7 7 -6 37 -1 38 -1 0 -15 0
-15 -12 1 -13 1 -34 2 -34 1 0 43 0 42 -1 33 -1 32 -125 0 -125 0 0 -19z
m-103 -25 l6 -6 -8 -7 -8 -8 -5 14 -4 13 -10 -13 -10 -14 -5 14 -5 13 -10 -13
-10 -14 -5 14 -5 13 -10 -13 -10 -14 -5 14 -5 13 -9 -13 -8 -13 -8 7 -7 8 11
7 12 8 56 -2 55 -1 7 -7z m142 -3 l10 -18 15 20 16 20 15 -20 16 -20 7 11 7
10 18 7 17 6 0 -14 0 -15 9 0 9 0 6 15 5 15 26 0 25 0 0 -15 0 -15 -10 0 -10
0 0 -20 0 -20 10 0 10 0 0 -25 0 -25 -10 0 -10 0 0 -27 0 -28 -25 -24 -25 -23
-25 23 -25 24 0 8 0 7 28 0 28 0 17 20 17 20 0 10 0 10 -10 0 -10 0 0 -15 0
-15 -15 0 -15 0 0 -10 0 -10 -35 0 -35 0 0 11 0 12 -25 23 -25 23 0 11 0 10
-15 0 -15 0 0 30 0 30 10 0 9 0 10 -17z m-286 -7 l5 -13 71 1 72 1 8 14 9 13
22 -22 22 -22 -6 -6 -6 -6 -15 20 -15 19 -15 -20 -16 -20 -8 14 -9 13 -6 -13
-6 -14 -6 14 -6 13 -10 -13 -10 -14 -5 14 -5 13 -10 -13 -10 -14 -5 14 -5 13
-9 -13 -9 -14 -11 18 -10 17 -12 0 -12 0 15 -11 15 -11 -14 -5 -13 -5 13 -9
13 -8 -7 -8 -8 -7 -8 12 -8 13 3 22 2 22 1 8 1 7 9 0 9 0 5 -14z m188 -37 l21
-21 -6 -6 -6 -6 -15 20 -15 19 -15 -20 -16 -20 -8 14 -9 13 -6 -13 -6 -14 -6
14 -6 13 -9 -13 -9 -14 -10 15 -10 15 0 -12 0 -12 17 -10 18 -9 -8 -8 -7 -8
-15 20 -15 19 -15 -19 -15 -20 -7 8 -8 8 18 9 17 10 0 11 0 11 -26 -28 -25
-27 -6 6 -7 6 19 14 18 13 -6 9 -5 9 75 -1 75 -1 5 13 5 14 4 0 4 0 21 -21z
m618 -20 l40 -40 -5 -17 -6 -17 11 15 11 15 10 -15 10 -15 0 9 0 9 -35 34 -34
33 5 15 6 15 10 0 9 0 50 -50 51 -49 -6 -10 -6 -10 -49 2 -49 3 -28 32 -28 32
-12 0 -12 0 -5 13 -4 12 5 13 4 12 9 0 9 0 39 -41z m125 26 l5 -15 16 0 15 0
0 -9 0 -9 -20 -5 -19 -5 -26 24 -25 23 0 6 0 5 24 0 24 0 6 -15z m-751 -27 l4
-13 48 0 48 0 4 -12 5 -13 -21 0 -20 0 6 -17 7 -17 15 -18 15 -18 9 0 8 0 22
-20 21 -20 -31 10 -31 11 -6 15 -5 14 -32 0 -31 0 6 15 5 15 -29 32 -30 32
-12 -12 -12 -12 22 -20 22 -21 0 11 0 10 10 0 10 0 0 -9 0 -9 -15 -6 -14 -5
-18 17 -17 17 -10 1 -11 2 -11 1 -12 1 -5 14 -5 13 29 -3 30 -4 5 15 6 15 8 0
8 0 5 -12z m807 -23 l0 -15 -25 0 -25 0 0 9 0 10 18 4 17 5 8 1 7 1 0 -15z
m-807 -9 l6 -15 -15 6 -14 5 0 9 0 9 9 0 9 0 5 -14z m533 -43 l6 -24 -5 -6 -6
-5 -24 6 -25 6 -5 15 -6 14 15 15 15 15 14 -6 15 -5 6 -25z m-545 -22 l22 -20
-7 -17 -6 -17 -36 6 -36 6 -4 4 -4 3 -6 34 -7 33 32 -6 31 -7 21 -19z m743
-46 l20 -15 -8 -7 -8 -8 -9 18 -10 17 -12 0 -12 0 13 -9 14 -8 -38 -38 -38
-38 -4 11 -4 12 -19 0 -19 0 0 -10 0 -10 -20 0 -20 0 0 10 0 10 -23 0 -23 0
-17 20 -17 20 0 15 0 15 9 0 9 0 5 -29 6 -28 35 -6 36 -6 37 6 36 6 17 17 17
17 6 16 6 17 8 0 8 -1 19 -14z m-808 -38 l-11 -9 12 -4 12 -5 -17 -19 -17 -18
-21 2 -20 1 -20 19 -19 20 17 -7 18 -6 27 28 28 28 11 -11 12 -11 -12 -8z
m354 18 l0 -15 -9 0 -9 0 -16 6 -16 6 0 9 0 9 25 0 25 0 0 -15z m281 3 l1 -13
5 14 5 13 9 -13 9 -14 11 15 11 15 -5 -15 -4 -15 -24 1 -24 2 -7 1 -8 1 0 10
0 10 10 0 10 0 1 -12z m220 5 l1 -8 2 -23 3 -24 -14 -14 -15 -14 -10 6 -9 6
-45 -47 -45 -47 -5 5 -5 5 52 52 52 52 6 -10 6 -10 12 13 12 14 -12 5 -12 4
15 11 15 11 -12 0 -12 0 -11 -17 -11 -18 -5 13 -6 13 -41 -43 -41 -42 -4 12
-4 12 -14 -15 -15 -14 -14 5 -15 6 0 9 0 9 28 1 27 1 11 2 10 1 33 32 32 32
14 -5 15 -6 6 16 6 16 9 0 9 0 1 -7z m-775 -45 l6 -21 -16 -12 -16 -12 -2 -24
-3 -24 34 0 34 0 4 -11 4 -11 -27 -26 -26 -26 7 -10 6 -11 -15 6 -16 6 0 7 1
6 29 25 30 24 0 11 0 10 -11 -15 -11 -15 -5 14 -5 13 -9 -13 -8 -14 -16 20
-15 20 -15 -19 -15 -20 -7 7 -7 7 19 14 18 13 -7 11 -7 11 21 18 20 17 0 23 0
23 9 0 10 0 7 -22z m244 -13 l0 -15 -25 0 -25 0 0 9 0 9 13 5 12 5 13 1 12 1
0 -15z m480 11 l0 -4 -56 -57 -56 -57 -23 -2 -22 -3 3 24 2 25 6 6 6 5 7 -8 8
-8 -12 -4 -12 -4 11 -13 12 -12 18 15 18 15 0 11 0 10 -10 -15 -9 -14 -8 7 -7
8 14 9 14 9 9 -6 8 -5 35 36 35 36 4 0 5 0 0 -4z m-470 -61 l0 -25 10 0 10 0
0 -11 0 -11 23 -25 22 -25 19 -16 18 -17 44 -43 43 -43 -6 -14 -5 -15 -9 0 -9
0 0 10 0 10 11 0 10 0 -51 52 -50 51 -8 -7 -7 -8 -1 -55 -1 -55 9 14 10 13 5
-14 5 -13 10 13 10 14 5 -14 5 -13 8 12 8 12 22 -22 22 -22 -7 -6 -6 -6 -9 14
-9 15 -41 1 -40 2 -11 -20 -11 -20 11 6 11 7 0 -14 0 -13 -18 -20 -19 -20 12
-11 12 -11 61 -7 62 -7 0 -9 0 -9 -155 0 -155 0 0 9 0 8 46 7 45 6 15 14 14
14 -11 4 -11 4 -2 42 -2 42 42 0 42 0 6 15 5 14 -15 16 -15 15 10 0 11 0 0 9
0 10 -22 7 -23 7 -12 16 -11 16 -28 -29 -29 -28 19 -14 20 -14 -6 -6 -6 -6
-22 22 -21 21 25 22 24 21 -16 12 -17 12 28 28 28 27 20 -21 20 -22 -10 0 -9
0 -5 -14 -6 -15 14 5 13 6 6 13 5 13 -24 26 -24 26 -36 -36 -36 -36 15 -11 16
-12 -10 -15 -10 -15 -11 18 -10 17 -12 0 -12 0 15 -10 15 -9 -20 -16 -20 -15
18 -14 19 -14 -22 -22 -22 -22 -6 6 -6 6 20 15 19 15 -19 15 -20 15 19 13 18
14 -7 12 -7 11 15 6 15 6 7 21 7 21 28 25 29 25 0 23 0 23 15 0 15 0 0 -25z
m-436 -22 l6 -15 13 5 14 5 14 -8 13 -9 -8 -8 -9 -8 -5 14 -4 13 -9 -13 -9
-14 -11 18 -10 17 -12 0 -12 0 15 -11 15 -11 -14 -5 -13 -5 13 -9 14 -9 -11
-7 -12 -8 13 -12 14 -12 5 12 6 12 6 -14 6 -13 10 13 10 14 5 -14 5 -13 10 13
10 14 5 -14 5 -13 10 13 10 14 4 -12 5 -12 22 19 21 20 -13 13 -12 12 -14 -18
-13 -19 -22 22 -22 22 6 6 6 6 15 -20 15 -19 15 19 15 20 13 -19 14 -18 11 7
12 7 0 -4 0 -4 -26 -28 -26 -28 -82 -1 -81 -1 0 61 0 61 12 -4 11 -5 6 -15z
m376 23 l0 -4 -31 -31 -31 -31 -4 0 -4 0 0 4 0 4 31 31 31 31 4 0 4 0 0 -4z
m195 -62 l25 -27 0 -3 0 -4 -4 0 -3 0 -27 25 -26 24 0 6 0 5 5 0 6 0 24 -26z
m-494 -3 l7 -1 5 -12 4 -13 -46 0 -47 0 0 15 0 15 36 -1 35 -2 6 -1z m69 -10
l0 -9 -14 -5 -15 -6 6 15 5 14 9 0 9 0 0 -9z m130 -30 l0 -9 -14 -5 -15 -6 6
15 5 14 9 0 9 0 0 -9z m280 -72 l40 -41 0 -2 0 -2 -40 2 -41 1 -6 7 -6 6 7 7
7 7 8 -13 9 -13 5 13 5 14 11 -15 11 -15 0 10 0 11 -30 24 -29 25 -1 8 0 7 5
0 5 0 40 -41z m-216 10 l-6 -11 32 -29 32 -30 -6 -6 -6 -7 -14 19 -14 19 -26
-24 -26 -25 0 -10 0 -10 9 14 9 13 22 -22 22 -22 -6 -6 -6 -6 -14 19 -13 18
-9 -6 -10 -6 -14 9 -13 8 34 32 34 31 -20 15 -20 15 15 9 15 10 3 0 3 0 -7
-11z m189 -13 l6 -15 -15 6 -14 5 0 9 0 9 9 0 9 0 5 -14z m-152 -67 l21 -21
-7 -6 -7 -7 -9 18 -10 17 -11 0 -11 0 28 -26 27 -25 -5 -6 -6 -5 -25 27 -25
27 6 14 5 14 4 0 4 0 21 -21z"/>
<path d="M598 1183 l13 -5 6 6 6 6 -19 -1 -19 -1 13 -5z"/>
<path d="M668 1183 l13 -5 6 6 6 6 -19 -1 -19 -1 13 -5z"/>
<path d="M720 1170 l0 -10 15 0 15 0 0 10 0 10 -15 0 -15 0 0 -10z"/>
<path d="M643 1123 l17 -5 13 5 12 5 -30 0 -30 0 18 -5z"/>
<path d="M1180 1110 l0 -10 15 0 15 0 0 10 0 10 -15 0 -15 0 0 -10z"/>
<path d="M960 1080 l0 -10 15 0 15 0 0 10 0 10 -15 0 -15 0 0 -10z"/>
<path d="M406 1055 l6 -15 24 0 24 0 0 9 0 9 -16 6 -16 6 -14 0 -13 0 5 -15z"/>
<path d="M345 974 l-27 -25 7 -7 7 -7 9 18 10 17 12 0 12 0 -15 -10 -14 -9 7
-7 7 -7 6 5 6 6 2 26 3 26 -2 0 -2 0 -28 -26z"/>
<path d="M678 819 l-18 -19 0 -4 0 -4 15 -6 14 -5 15 15 15 15 -5 14 -6 15 -7
-1 -6 -1 -17 -19z m20 -13 l-13 -14 -4 3 -3 4 7 10 6 11 10 0 10 0 -13 -14z"/>
<path d="M757 790 l-18 -18 16 -16 16 -16 5 0 5 0 -6 10 -7 11 11 12 10 13 -7
10 -7 11 -18 -17z m18 -10 l-6 -10 -12 0 -12 0 15 10 15 10 3 0 3 0 -6 -10z"/>
<path d="M857 1238 l-11 -7 7 -8 8 -7 8 13 9 13 5 -13 5 -14 10 14 10 13 5
-13 5 -14 11 15 11 15 0 -12 0 -12 -17 -10 -18 -11 14 -9 13 -9 -13 -4 -14 -5
8 -9 8 -8 9 14 9 14 -6 9 -5 9 20 18 21 19 5 -12 6 -12 6 14 6 13 9 -13 8 -13
7 7 7 7 -6 7 -7 6 -71 1 -71 1 -11 -7z"/>
<path d="M156 1224 l-6 -16 -15 6 -14 5 -15 -15 -15 -15 5 -14 6 -15 9 0 9 0
0 10 0 10 -10 0 -11 0 13 14 13 14 6 -10 7 -10 21 21 21 21 0 5 0 5 -9 0 -9 0
-6 -16z"/>
<path d="M170 1209 l-24 -29 -13 4 -12 5 6 -15 5 -14 7 -1 6 -1 51 -1 51 -2
-4 12 -5 13 -9 0 -9 0 0 -12 0 -13 -10 15 -10 15 -9 -14 -9 -13 -5 13 -5 14
-11 -15 -11 -15 0 10 0 10 26 25 26 24 14 -19 14 -19 6 6 6 6 -21 21 -21 21
-2 0 -3 -1 -25 -30z"/>
<path d="M790 1230 l0 -10 10 0 10 0 0 10 0 10 -10 0 -10 0 0 -10z"/>
<path d="M806 1218 l-18 -20 12 -8 11 -7 27 3 26 3 24 -25 25 -24 -26 -26 -26
-26 -8 5 -9 6 -14 -9 -14 -9 8 -8 9 -8 5 14 4 13 8 -12 7 -12 38 37 37 38 -16
9 -16 9 4 28 3 28 -29 -3 -29 -4 -5 15 -6 15 -7 -1 -6 -1 -19 -20z m42 -19 l4
-14 -11 15 -11 15 -10 -15 -10 -15 0 11 0 11 7 7 7 6 10 -3 10 -3 4 -15z m47
-18 l-4 -3 -10 7 -11 6 0 10 0 10 14 -13 14 -13 -3 -4z"/>
<path d="M187 1197 l-5 -13 18 0 18 0 -5 13 -5 13 -8 0 -8 0 -5 -13z"/>
<path d="M4 1055 l-6 -15 23 -25 24 -25 8 0 7 0 0 15 0 15 -17 0 -18 1 20 15
20 15 -15 9 -15 10 -13 0 -13 0 -5 -15z m26 -10 l0 -15 -10 0 -10 0 0 15 0 15
10 0 10 0 0 -15z"/>
<path d="M83 1023 l-13 -5 0 -9 0 -9 15 0 15 0 0 15 0 15 -2 -1 -3 -1 -12 -5z"/>
<path d="M157 1023 l-7 -6 0 -8 0 -7 24 -6 24 -6 31 6 31 7 0 13 0 14 -9 0
-10 0 -13 -13 -14 -14 -12 14 -13 13 -13 0 -13 0 -6 -7z"/>
<path d="M216 914 l-6 -16 -13 5 -14 5 -14 -8 -13 -9 6 -7 7 -7 23 -1 23 -1 0
-15 0 -15 -25 -1 -24 -1 -4 -13 -4 -12 -8 12 -8 12 -22 -22 -22 -22 7 -6 6 -6
9 14 9 15 23 2 23 1 12 -16 13 -16 7 8 8 8 -18 9 -17 10 0 12 0 12 9 -14 9
-13 22 22 22 22 -19 14 -18 14 18 14 17 13 0 7 0 6 -9 0 -9 0 -6 -16z"/>
<path d="M220 890 l0 -10 10 0 10 0 0 10 0 10 -10 0 -10 0 0 -10z"/>
<path d="M966 884 l-6 -16 -15 6 -15 5 0 -3 0 -3 25 -27 25 -26 21 21 21 21
-6 6 -6 6 -14 -20 -15 -19 -13 13 -13 13 18 13 17 13 0 7 0 6 -9 0 -9 0 -6
-16z"/>
<path d="M987 878 l-19 -20 5 -5 5 -5 21 21 21 21 0 5 0 5 -7 -1 -8 -1 -18
-20z"/>
<path d="M217 827 l-5 -14 8 -14 9 -13 8 7 7 8 -14 9 -15 10 13 0 12 0 0 10 0
10 -9 0 -9 0 -5 -13z"/>
<path d="M320 760 l0 -10 10 0 10 0 0 10 0 10 -10 0 -10 0 0 -10z"/>
<path d="M350 760 l0 -10 10 0 10 0 0 10 0 10 -10 0 -10 0 0 -10z"/>
<path d="M380 760 l0 -10 10 0 10 0 0 10 0 10 -10 0 -10 0 0 -10z"/>
<path d="M410 760 l0 -10 10 0 10 0 0 10 0 10 -10 0 -10 0 0 -10z"/>
</g>
</svg>
