<?xml version="1.0" standalone="no"?>
<!DOCTYPE svg PUBLIC "-//W3C//DTD SVG 20010904//EN"
 "http://www.w3.org/TR/2001/REC-SVG-20010904/DTD/svg10.dtd">
<svg version="1.0" xmlns="http://www.w3.org/2000/svg"
 width="468pt" height="468pt" viewBox="0 0 468 468"
 preserveAspectRatio="xMidYMid meet">
<metadata>
Created by potrace 1.8, written by Peter Selinger 2001-2007
</metadata>
<g transform="translate(0,468) scale(0.365625,-0.365625)"
fill="#000000" stroke="none">
<path d="M540 1160 l0 -40 10 0 10 0 0 -100 0 -100 20 0 20 0 0 40 0 40 -10 0
-10 0 0 60 0 60 -10 0 -10 0 0 40 0 40 -10 0 -10 0 0 -40z"/>
<path d="M700 1160 l0 -40 -10 0 -10 0 0 -60 0 -60 -10 0 -10 0 0 -40 0 -40
20 0 20 0 0 100 0 100 10 0 10 0 0 40 0 40 -10 0 -10 0 0 -40z"/>
<path d="M420 1160 l0 -20 10 0 10 0 0 -30 0 -30 10 0 10 0 0 -80 0 -80 20 0
20 0 0 40 0 40 -10 0 -10 0 0 40 0 40 -10 0 -10 0 0 30 0 30 -10 0 -10 0 0 20
0 20 -10 0 -10 0 0 -20z"/>
<path d="M820 1160 l0 -20 -10 0 -10 0 0 -30 0 -30 -10 0 -10 0 0 -40 0 -40
-10 0 -10 0 0 -40 0 -40 20 0 20 0 0 80 0 80 10 0 10 0 0 30 0 30 10 0 10 0 0
20 0 20 -10 0 -10 0 0 -20z"/>
<path d="M300 1130 l0 -30 10 0 10 0 0 -50 0 -50 10 0 10 0 0 -30 0 -30 10 0
10 0 0 -20 0 -20 20 0 20 0 0 30 0 30 -10 0 -10 0 0 20 0 20 -10 0 -10 0 0 30
0 30 -10 0 -10 0 0 20 0 20 -10 0 -10 0 0 30 0 30 -10 0 -10 0 0 -30z"/>
<path d="M940 1120 l0 -20 -10 0 -10 0 0 -20 0 -20 -10 0 -10 0 0 -30 0 -30
-10 0 -10 0 0 -20 0 -20 -10 0 -10 0 0 -30 0 -30 20 0 20 0 0 20 0 20 10 0 10
0 0 30 0 30 10 0 10 0 0 50 0 50 10 0 10 0 0 20 0 20 -10 0 -10 0 0 -20z"/>
<path d="M160 1100 l0 -20 10 0 10 0 0 -30 0 -30 10 0 10 0 0 -20 0 -20 10 0
10 0 0 -20 0 -20 10 0 10 0 0 -16 0 -15 14 -15 15 -14 15 0 16 0 0 18 0 18
-20 14 -20 14 0 18 0 18 -10 0 -10 0 0 18 0 18 -20 14 -20 14 0 18 0 18 -10 0
-10 0 0 20 0 20 -10 0 -10 0 0 -20z"/>
<path d="M1073 1085 l-13 -14 0 -13 0 -14 -20 -14 -20 -14 0 -18 0 -18 -10 0
-10 0 0 -18 0 -18 -20 -14 -20 -14 0 -18 0 -18 16 0 15 0 15 14 14 15 0 15 0
16 10 0 10 0 0 20 0 20 10 0 10 0 0 20 0 20 10 0 10 0 0 30 0 30 10 0 10 0 0
10 0 10 -7 0 -8 -1 -12 -14z"/>
<path d="M20 990 l0 -10 15 0 16 0 24 -25 25 -24 0 -11 0 -11 45 -44 44 -45
16 0 15 0 0 15 0 15 -65 65 -65 65 -15 0 -15 0 0 10 0 10 -20 0 -20 0 0 -10z"/>
<path d="M1200 990 l0 -10 -15 0 -15 0 -65 -65 -65 -65 0 -15 0 -15 15 0 16 0
24 25 25 24 0 11 0 11 45 44 44 45 16 0 15 0 0 10 0 10 -20 0 -20 0 0 -10z"/>
<path d="M560 890 l0 -10 -70 0 -70 0 0 -10 0 -10 -30 0 -30 0 0 -10 0 -10
-30 0 -30 0 0 -10 0 -10 -20 0 -20 0 0 -10 0 -10 -20 0 -20 0 0 -10 0 -10 -18
0 -18 0 -14 -20 -14 -20 -13 0 -13 0 -55 -55 -55 -55 85 -85 85 -85 13 0 13 0
14 -20 14 -20 18 0 18 0 0 -10 0 -10 20 0 20 0 0 -10 0 -10 30 0 30 0 0 -10 0
-10 30 0 30 0 0 -10 0 -10 40 0 40 0 0 -10 0 -10 100 0 100 0 0 10 0 10 50 0
50 0 0 10 0 10 30 0 30 0 0 10 0 10 30 0 30 0 0 10 0 10 20 0 20 0 0 10 0 10
18 0 18 0 14 20 14 20 13 0 13 0 85 85 85 85 -55 55 -55 55 -13 0 -13 0 -14
20 -14 20 -18 0 -18 0 0 10 0 10 -20 0 -20 0 0 10 0 10 -20 0 -20 0 0 10 0 10
-30 0 -30 0 0 10 0 10 -30 0 -30 0 0 10 0 10 -70 0 -70 0 0 10 0 10 -70 0 -70
0 0 -10z m240 -60 l0 -10 40 0 40 0 0 -10 0 -10 30 0 30 0 0 -10 0 -10 20 0
20 0 0 -10 0 -10 20 0 20 0 0 -10 0 -10 18 0 18 0 14 -20 14 -20 14 0 13 0 35
-35 35 -35 -26 -26 -25 -25 -17 16 -16 17 14 9 14 9 -15 10 -15 10 15 9 14 10
-6 7 -7 6 -16 -15 -15 -16 0 -32 0 -32 21 -18 21 -18 -26 -26 -25 -25 -16 0
-15 0 0 -10 0 -10 -20 0 -20 0 0 -10 0 -10 -20 0 -20 0 0 -10 0 -10 -20 0 -20
0 0 -10 0 -10 -30 0 -30 0 0 -10 0 -10 -30 0 -30 0 0 -10 0 -10 -170 0 -170 0
0 10 0 10 -20 0 -20 0 0 10 0 10 -40 0 -40 0 0 10 0 10 -20 0 -20 0 0 10 0 10
-20 0 -20 0 0 10 0 10 -20 0 -20 0 0 10 0 10 -15 0 -16 0 -44 45 -45 44 0 15
0 14 -12 4 -12 4 37 37 36 37 13 0 14 0 14 20 14 20 18 0 18 0 0 10 0 10 20 0
20 0 0 10 0 10 20 0 20 0 0 10 0 10 30 0 30 0 0 10 0 10 40 0 40 0 0 10 0 10
170 0 170 0 0 -10z"/>
<path d="M560 790 l0 -10 -15 0 -16 0 -34 -35 -35 -34 0 -11 0 -11 -15 -16
-15 -15 -29 31 -29 31 -15 0 -15 0 -5 13 -4 12 -9 -9 -9 -9 13 -4 12 -5 0 -9
0 -9 -20 0 -20 0 0 -10 0 -10 20 0 20 0 0 10 0 10 16 0 15 0 15 -14 14 -15 0
-15 0 -16 20 0 20 0 0 -26 0 -25 -14 -15 -15 -14 -15 0 -16 0 0 -10 0 -10 -19
0 -19 0 -5 -12 -5 -13 -11 15 -10 14 -8 -7 -7 -8 14 -10 15 -9 -15 -9 -14 -10
7 -7 7 -7 19 21 18 22 17 0 16 0 0 10 0 10 19 0 19 0 4 12 5 13 16 -17 17 -17
0 -25 0 -26 -9 0 -9 0 -6 13 -6 12 -6 -12 -6 -13 -19 0 -19 0 0 -20 0 -20 6 0
7 0 19 22 19 22 10 -14 11 -15 5 13 5 12 17 0 17 0 14 -20 14 -20 18 0 18 0 0
-10 0 -10 70 0 70 0 0 10 0 10 15 0 16 0 34 35 35 34 0 16 0 15 10 0 10 0 0
20 0 20 20 0 20 0 0 10 0 10 16 0 15 0 15 -14 14 -15 0 -24 0 -25 -12 -5 -13
-4 7 -8 8 -8 19 21 18 22 12 0 12 0 16 15 15 16 -7 7 -8 7 -4 -12 -5 -13 -14
0 -15 0 -26 26 -26 26 14 8 13 9 -8 8 -9 8 -4 -12 -5 -13 -19 0 -19 0 0 -10 0
-10 -20 0 -20 0 0 26 0 25 14 15 15 14 14 0 15 0 5 -12 4 -13 8 7 7 7 -15 16
-16 15 -15 0 -16 0 0 -10 0 -10 -20 0 -20 0 0 16 0 16 -30 28 -30 28 0 6 0 6
20 0 20 0 0 -10 0 -10 20 0 20 0 0 -10 0 -10 10 0 10 0 0 19 0 19 13 5 12 4
-9 9 -9 9 -4 -12 -5 -13 -29 0 -29 0 0 10 0 10 -20 0 -20 0 0 -10 0 -10 -20 0
-20 0 0 10 0 10 -70 0 -70 0 0 -10z m63 -22 l5 -13 11 15 10 14 21 -24 21 -24
9 13 8 14 37 -38 38 -37 -14 -8 -13 -9 24 -21 24 -21 -14 -10 -15 -9 15 -9 14
-10 -24 -21 -24 -21 13 -9 14 -8 -38 -37 -37 -38 -8 14 -9 13 -21 -24 -21 -24
-10 14 -9 15 -9 -15 -10 -14 -21 24 -21 24 -8 -13 -9 -14 -47 48 -48 47 14 9
14 9 -15 10 -15 10 15 10 15 10 -15 10 -15 10 15 10 15 10 -14 9 -14 9 48 47
47 48 9 -14 8 -14 18 22 18 23 7 0 6 0 5 -12z"/>
<path d="M587 737 l-18 -22 -8 14 -9 14 -37 -38 -38 -37 14 -9 14 -9 -15 -10
-15 -10 15 -10 15 -10 -15 -10 -15 -10 15 -10 15 -10 -14 -9 -14 -9 38 -37 37
-38 8 14 9 13 21 -24 21 -24 10 14 9 15 9 -15 10 -14 21 24 21 24 9 -13 8 -14
27 28 28 27 -14 8 -13 9 24 21 24 21 -14 10 -15 9 15 9 14 10 -24 21 -24 21
13 9 14 8 -28 27 -27 28 -8 -14 -9 -13 -21 24 -21 24 -10 -14 -11 -15 -5 13
-5 12 -6 0 -7 0 -18 -23z m36 -9 l5 -13 11 15 10 14 21 -24 21 -24 9 13 8 14
18 -17 17 -18 -14 -8 -13 -9 24 -21 24 -21 -14 -10 -15 -9 15 -9 14 -10 -24
-21 -24 -21 13 -9 14 -8 -17 -18 -18 -17 -8 14 -9 13 -21 -24 -21 -24 -10 14
-9 15 -9 -15 -10 -14 -21 24 -21 24 -9 -13 -8 -14 -27 28 -28 27 14 9 14 9
-15 10 -15 10 15 10 15 10 -15 10 -15 10 15 10 15 10 -14 9 -14 9 28 27 27 28
9 -14 8 -14 18 22 18 23 7 0 6 0 5 -12z"/>
<path d="M587 697 l-18 -22 -8 14 -9 14 -18 -17 -17 -18 14 -9 14 -9 -15 -10
-15 -10 15 -10 15 -10 -15 -10 -15 -10 15 -10 15 -10 -14 -9 -14 -9 17 -18 18
-17 8 14 9 13 21 -24 21 -24 10 14 9 15 9 -15 10 -14 21 24 21 24 9 -14 9 -14
8 7 7 8 -14 9 -14 9 24 21 24 21 -14 10 -15 9 15 9 14 10 -24 21 -24 21 14 9
14 9 -7 8 -8 7 -9 -14 -9 -14 -21 24 -21 24 -10 -14 -11 -15 -5 13 -5 12 -6 0
-7 0 -18 -23z m36 -9 l5 -13 10 14 10 14 37 -38 38 -37 -14 -9 -14 -9 14 -9
14 -9 -38 -37 -37 -38 -9 14 -9 14 -9 -15 -10 -14 -21 24 -21 24 -9 -14 -9
-14 -8 7 -7 8 14 10 15 9 -15 10 -15 10 15 10 15 10 -15 10 -15 10 15 10 15
10 -15 9 -14 10 7 8 8 7 9 -14 9 -15 18 22 18 23 7 0 6 0 5 -12z"/>
<path d="M593 645 l-13 -14 0 -21 0 -21 14 -15 15 -14 21 0 21 0 15 14 14 15
0 21 0 21 -14 15 -15 14 -23 0 -23 -1 -12 -14z"/>
<path d="M1120 651 l0 -9 13 -5 12 -5 -15 -11 -14 -10 6 -7 7 -6 16 16 16 16
-15 15 -15 15 -5 0 -6 0 0 -9z"/>
<path d="M1260 870 l0 -10 -18 0 -18 0 -14 -20 -14 -20 -14 0 -13 0 -15 -14
-14 -15 0 -15 0 -16 15 0 15 0 55 55 55 55 0 5 0 5 -10 0 -10 0 0 -10z"/>
<path d="M0 855 l0 -6 45 -44 44 -45 16 0 15 0 0 16 0 15 -14 15 -15 14 -13 0
-14 0 -14 20 -14 20 -18 0 -18 0 0 -5z"/>
<path d="M0 100 l0 -100 640 0 640 0 0 100 0 100 -640 0 -640 0 0 -100z"/>
</g>
</svg>
