<?xml version="1.0" standalone="no"?>
<!DOCTYPE svg PUBLIC "-//W3C//DTD SVG 20010904//EN"
 "http://www.w3.org/TR/2001/REC-SVG-20010904/DTD/svg10.dtd">
<svg version="1.0" xmlns="http://www.w3.org/2000/svg"
 width="468pt" height="468pt" viewBox="0 0 468 468"
 preserveAspectRatio="xMidYMid meet">
<metadata>
Created by potrace 1.8, written by Peter Selinger 2001-2007
</metadata>
<g transform="translate(0,468) scale(0.365625,-0.365625)"
fill="#000000" stroke="none">
<path d="M1050 1249 l0 -30 -14 -15 -15 -14 -16 0 -16 0 -15 -14 -14 -15 0
-20 0 -21 -19 0 -20 0 -6 20 -6 20 -19 0 -19 0 -11 13 -10 12 -18 21 -17 21
-30 7 -30 8 -7 11 -8 12 -10 -15 -10 -15 -10 15 -10 15 -9 -14 -9 -13 -5 13
-5 14 -9 -11 -8 -11 -27 -7 -28 -6 0 -13 0 -12 -8 11 -7 11 -42 6 -43 5 0 -14
0 -14 9 0 9 0 5 -32 4 -33 -4 -12 -5 -13 -15 0 -14 0 -15 14 -14 15 0 10 0 11
-10 0 -10 0 0 30 0 30 -15 0 -15 0 0 -9 0 -9 13 -5 12 -4 -9 -9 -9 -9 -4 13
-5 12 -34 0 -34 0 0 -10 0 -10 -20 0 -20 0 0 -10 0 -10 14 0 14 0 14 -3 13 -4
-7 4 -8 5 0 9 0 9 15 0 15 0 0 -15 0 -15 10 0 10 0 0 -16 0 -17 22 -19 22 -19
-14 -9 -15 -10 -21 0 -21 0 -21 19 -22 18 0 26 0 25 -16 6 -17 6 -18 -5 -19
-6 0 -10 0 -9 -20 0 -20 0 0 -10 0 -9 -24 -23 -23 -23 -22 -15 -21 -14 0 -23
0 -23 -25 0 -25 0 0 -10 0 -10 20 0 20 0 0 -10 0 -10 15 0 15 0 0 -10 0 -10
35 0 35 0 0 -9 0 -8 42 -6 43 -6 3 -10 4 -11 29 0 29 0 0 -10 0 -10 25 0 25 0
0 -9 0 -9 25 -6 25 -6 0 -10 0 -10 31 0 30 0 15 -14 14 -15 0 -5 0 -6 -14 0
-14 0 -5 -12 -4 -13 -20 23 -20 22 -16 0 -15 0 -5 -12 -5 -13 -1 13 -1 12 -29
0 -30 0 -6 20 -6 20 -10 0 -9 0 0 15 0 15 -20 0 -20 0 0 10 0 10 -10 0 -10 0
0 -25 0 -25 26 0 25 0 15 -14 14 -15 0 -5 0 -6 -20 0 -20 0 0 10 0 10 -20 0
-20 0 0 10 0 10 -14 0 -14 0 -5 -12 -5 -13 -11 15 -10 15 -52 0 -52 0 -4 13
-5 12 15 0 15 0 5 -12 4 -13 9 8 8 8 -14 10 -15 9 15 10 15 10 -15 10 -15 10
-12 0 -11 0 -4 12 -5 13 -15 -16 -16 -16 19 -14 19 -13 0 -8 0 -8 -19 0 -19 0
-5 -12 -4 -13 -9 8 -8 8 13 9 14 8 -16 16 -15 16 -5 -13 -5 -12 -11 15 -10 14
-8 -8 -8 -9 13 -4 12 -5 0 -19 0 -19 13 -1 12 -2 28 -1 28 -2 9 -14 10 -15 5
-10 5 -10 6 13 6 12 19 0 19 0 0 -10 0 -10 24 0 24 0 5 -12 5 -13 12 15 12 15
5 -12 5 -13 13 0 13 0 4 -12 4 -12 97 -4 97 -4 0 -9 0 -9 -16 0 -15 0 -33 -35
-33 -35 -21 0 -20 0 -6 13 -6 12 -6 -12 -6 -13 -9 0 -9 0 0 35 0 35 10 0 10 0
0 9 0 9 -27 5 -28 5 -1 -1 -2 -2 -6 -22 -7 -23 15 0 16 0 0 -10 0 -10 -10 0
-10 0 0 -25 0 -25 45 0 45 0 0 -9 0 -10 -15 -15 -15 -15 0 -10 0 -11 -170 0
-170 0 0 -285 0 -285 640 0 640 0 0 285 0 285 -420 0 -420 0 0 10 0 10 10 0
10 0 0 14 0 14 13 6 12 6 -12 6 -13 6 0 20 0 19 14 15 15 14 5 0 6 0 0 -31 0
-30 17 -17 16 -17 -6 58 -7 57 39 0 39 0 5 -12 5 -13 12 15 12 15 5 -12 5 -13
19 0 19 0 0 -10 0 -10 35 0 34 0 10 -17 11 -18 10 15 10 15 10 -15 10 -15 11
15 11 15 5 -12 5 -13 33 0 33 0 5 -12 5 -13 1 13 1 12 29 0 29 0 6 -12 6 -13
6 13 6 12 68 0 68 0 6 -12 6 -13 6 13 6 12 23 0 23 0 6 -12 6 -13 6 13 6 12
14 14 14 15 0 9 0 10 13 5 12 5 -15 12 -15 12 12 5 13 5 -14 14 -15 14 -64 0
-65 0 -6 -12 -6 -13 -6 13 -6 12 -24 0 -24 0 0 10 0 10 -20 0 -20 0 0 -8 0 -8
20 -14 20 -14 0 -13 0 -13 15 0 15 0 0 13 0 12 75 1 75 0 0 -13 0 -13 -20 0
-20 0 0 10 0 10 -9 0 -10 0 -4 -22 -4 -23 -2 23 -1 22 -10 0 -10 0 0 -30 0
-30 -10 0 -10 0 0 20 0 20 -10 0 -10 0 0 -10 0 -10 -24 0 -24 0 -6 -12 -6 -13
-6 13 -6 12 -14 0 -14 0 0 10 0 10 15 0 15 0 0 15 0 15 -32 -7 -33 -6 -26 -29
-27 -28 2 33 1 32 -95 -1 -95 0 18 4 18 4 -6 19 -6 19 25 0 26 0 0 -10 0 -10
19 0 19 0 5 -12 5 -13 1 13 1 12 35 0 35 0 0 10 0 10 -15 0 -15 0 0 20 0 20
-6 0 -7 0 -18 -22 -19 -21 0 11 0 12 -40 0 -40 0 0 9 0 8 -40 7 -40 6 0 10 0
10 -20 0 -20 0 0 9 0 9 13 6 12 6 -12 6 -11 5 -20 17 -19 17 -7 51 -7 51 18
18 18 19 -16 -6 -16 -6 -14 10 -14 10 13 5 12 5 0 32 0 33 19 21 18 22 17 0
16 0 0 10 0 10 34 0 34 0 5 -12 5 -13 11 15 11 15 0 -12 0 -13 20 0 20 0 0
-10 0 -10 15 0 15 0 34 -35 34 -35 11 0 11 0 0 -10 0 -10 26 0 25 0 13 -12 12
-13 7 -17 6 -18 -5 -15 -6 -15 -9 0 -9 0 0 20 0 20 -10 0 -10 0 0 -19 0 -19
16 -6 16 -6 9 6 9 5 20 -6 20 -6 0 -10 0 -9 -20 0 -20 0 0 -17 0 -18 -8 -11
-7 -11 -27 -7 -28 -6 0 15 0 15 -10 0 -10 0 0 -9 0 -9 -25 -6 -25 -6 0 -10 0
-10 -9 0 -9 0 -6 25 -6 25 -20 0 -20 0 0 10 0 10 21 0 22 0 16 19 16 19 20 5
20 5 -22 1 -22 1 -15 -15 -15 -15 -20 0 -21 0 0 -10 0 -10 -20 0 -20 0 0 10 0
10 -35 0 -35 0 0 -10 0 -10 30 0 30 0 0 -10 0 -10 20 0 21 0 15 -12 15 -13 14
-13 15 -13 0 -25 0 -24 8 0 7 0 15 11 15 11 -12 5 -13 5 0 9 0 9 24 0 24 0 5
13 4 12 9 -9 9 -9 -12 -4 -13 -5 0 -34 0 -34 10 0 10 0 0 -20 0 -20 -10 0 -10
0 0 -15 0 -15 20 0 20 0 0 15 0 15 10 0 10 0 0 -10 0 -10 15 0 15 0 0 10 0 9
-25 25 -25 25 0 20 0 19 -12 4 -13 5 16 15 15 16 32 7 32 7 0 15 0 14 14 15
15 14 30 0 31 0 0 -10 0 -10 19 0 19 0 5 -12 5 -13 1 13 1 12 20 0 20 0 0 45
0 45 15 0 15 0 0 10 0 10 20 0 20 0 0 11 0 10 -14 15 -15 14 -16 0 -16 0 -25
25 -25 25 -10 0 -10 0 -24 25 -25 24 0 11 0 10 -9 0 -10 0 -6 20 -6 20 -10 0
-9 0 0 -31z m76 -71 l15 -13 12 -13 12 -13 23 -24 22 -24 0 -6 0 -6 -17 -17
-16 -17 -4 13 -5 12 -14 -14 -14 -15 0 -20 0 -21 15 0 15 0 0 -10 0 -10 -25 0
-25 0 0 9 0 9 -31 6 -30 6 -15 14 -14 15 0 15 0 16 10 0 10 0 0 15 0 15 -10 0
-10 0 0 -16 0 -16 -12 4 -13 5 -4 19 -3 19 -11 7 -11 7 8 8 9 8 4 -10 3 -10
10 -15 10 -15 11 15 11 15 5 -12 5 -13 9 0 10 0 15 -12 15 -13 14 -13 15 -13
15 15 16 15 14 -5 15 -6 0 16 0 16 -15 0 -15 0 0 10 0 10 -20 0 -20 0 0 19 0
19 -16 6 -16 6 -9 -6 -9 -5 0 15 0 16 20 0 21 0 15 -12z m-696 -28 l0 -10 -10
0 -10 0 0 10 0 10 10 0 10 0 0 -10z m140 -19 l0 -29 -12 -5 -13 -5 15 -11 15
-11 10 -3 10 -4 -8 -9 -8 -8 -9 13 -8 14 -16 -16 -16 -16 0 -15 0 -15 -17 -10
-18 -11 15 -10 15 -10 -15 -10 -15 -10 15 -9 14 -10 -8 -8 -9 -8 -4 13 -5 12
-19 0 -19 0 0 10 0 10 -24 0 -24 0 -5 -12 -4 -13 -9 9 -9 9 13 4 12 5 0 9 0 9
-19 0 -19 0 -4 11 -4 11 -57 1 -57 1 0 8 0 9 -25 25 -25 25 0 14 0 15 14 0 14
0 5 13 4 12 8 -7 8 -8 -24 -21 -24 -21 20 6 20 6 15 -11 15 -11 -12 -5 -13 -5
0 -9 0 -9 14 0 14 0 6 -12 6 -13 6 13 6 12 29 0 29 0 0 10 0 10 24 0 24 0 4
10 3 10 40 7 40 6 15 18 15 17 15 21 14 21 8 0 8 0 0 -29z m500 19 l0 -10 -10
0 -10 0 0 10 0 10 10 0 10 0 0 -10z m30 -10 l0 -20 -10 0 -10 0 0 20 0 20 10
0 10 0 0 -20z m-920 -89 l0 -19 13 -5 12 -5 -15 -11 -15 -11 -20 2 -20 1 23 4
22 4 0 10 0 9 -20 0 -20 0 0 5 0 6 13 14 12 14 8 1 7 0 0 -19z m70 -81 l0 -10
-10 0 -10 0 0 10 0 10 10 0 10 0 0 -10z m50 0 l0 -10 -15 0 -15 0 0 10 0 10
15 0 15 0 0 -10z m64 -6 l6 -16 0 -6 0 -7 -10 15 -10 15 -9 -15 -10 -14 -6 6
-7 7 13 15 14 15 6 1 7 0 6 -16z m230 -15 l6 -31 0 -22 0 -22 21 -14 21 -15
20 -17 20 -17 -16 -17 -17 -16 -7 6 -6 7 13 9 14 8 -17 18 -18 17 -9 -14 -9
-14 -11 18 -10 17 -19 0 -18 0 -5 13 -5 12 -10 -14 -10 -14 3 34 3 34 1 33 1
32 29 0 29 0 6 -31z m-294 -19 l0 -10 -10 0 -10 0 0 10 0 10 10 0 10 0 0 -10z
m-160 -30 l0 -10 -10 0 -10 0 0 10 0 10 10 0 10 0 0 -10z m250 0 l0 -10 -10 0
-10 0 0 10 0 10 10 0 10 0 0 -10z m110 0 l0 -10 -10 0 -10 0 0 10 0 10 10 0
10 0 0 -10z m216 -74 l14 -15 0 -5 0 -6 -20 0 -20 0 0 4 0 4 -6 16 -6 16 12 0
11 0 15 -14z m-18 -80 l-13 -14 -4 3 -3 4 7 10 6 11 10 0 10 0 -13 -14z m102
-26 l0 -10 -20 0 -20 0 0 10 0 10 20 0 20 0 0 -10z m40 0 l0 -10 -10 0 -10 0
0 10 0 10 10 0 10 0 0 -10z m37 -5 l15 -16 -5 -6 -6 -5 -16 15 -15 16 0 5 0 6
6 0 5 0 16 -15z m333 -15 l0 -10 -10 0 -10 0 0 10 0 10 10 0 10 0 0 -10z
m-217 -17 l-13 -5 -12 5 -13 5 25 0 25 0 -12 -5z m-561 -70 l-4 -43 -29 0 -29
0 0 9 0 10 20 6 20 6 0 15 0 15 13 13 12 14 1 -2 1 -1 -5 -42z"/>
<path d="M1070 1066 l0 -14 -12 -5 -13 -4 9 -9 9 -9 4 13 5 12 14 0 14 0 0 9
0 9 -15 6 -15 5 0 -13z"/>
<path d="M1100 1020 l0 -10 10 0 10 0 0 10 0 10 -10 0 -10 0 0 -10z"/>
<path d="M530 904 l0 -5 14 -15 15 -14 14 0 15 0 6 -15 5 -15 11 0 11 0 -13
14 -13 14 -15 21 -14 21 -18 0 -18 0 0 -6z"/>
<path d="M460 1215 l0 -25 10 0 10 0 0 25 0 25 -10 0 -10 0 0 -25z"/>
<path d="M680 1191 l0 -21 15 0 15 0 0 6 0 5 -15 15 -15 15 0 -20z"/>
<path d="M730 1180 l0 -10 9 0 9 0 19 -7 18 -7 -17 17 -17 17 -10 0 -11 0 0
-10z"/>
<path d="M620 1140 l0 -20 10 0 10 0 0 20 0 20 -10 0 -10 0 0 -20z"/>
<path d="M730 1154 l0 -5 15 -15 15 -15 0 4 0 5 -6 16 -6 16 -9 0 -9 0 0 -6z"/>
<path d="M820 1150 l0 -10 10 0 10 0 0 -22 0 -21 6 6 6 6 -6 26 -6 25 -10 0
-10 0 0 -10z"/>
<path d="M340 1134 l0 -5 15 -15 15 -15 0 4 0 5 -6 16 -6 16 -9 0 -9 0 0 -6z"/>
<path d="M710 1100 l0 -20 -9 0 -9 0 -6 13 -6 12 6 -23 5 -22 -6 -31 -7 -30
-16 5 -17 6 -15 -11 -15 -11 13 -5 12 -5 0 -19 0 -19 8 0 8 0 14 21 15 21 13
14 13 14 20 0 19 0 0 10 0 10 -20 0 -20 0 0 25 0 25 10 0 10 0 0 20 0 20 -10
0 -10 0 0 -20z m-50 -110 l0 -10 -10 0 -10 0 0 10 0 10 10 0 10 0 0 -10z"/>
<path d="M760 1090 l0 -10 30 0 30 0 0 10 0 10 -30 0 -30 0 0 -10z"/>
<path d="M640 1065 l0 -15 10 0 10 0 0 15 0 15 -10 0 -10 0 0 -15z"/>
<path d="M920 1065 l0 -15 10 0 10 0 0 15 0 15 -10 0 -10 0 0 -15z"/>
<path d="M840 1060 l0 -10 25 0 25 0 0 10 0 10 -25 0 -25 0 0 -10z"/>
<path d="M771 1034 l-13 -15 7 -7 6 -6 10 14 9 15 9 -15 10 -14 7 6 6 7 -15
16 -16 15 -3 0 -3 -1 -14 -15z"/>
<path d="M920 995 l0 -15 10 0 10 0 0 15 0 15 -10 0 -10 0 0 -15z"/>
<path d="M980 960 l0 -20 10 0 10 0 0 20 0 20 -10 0 -10 0 0 -20z"/>
<path d="M870 950 l0 -10 10 0 10 0 0 10 0 10 -10 0 -10 0 0 -10z"/>
<path d="M180 894 l0 -15 13 -13 13 -13 22 -7 22 -7 0 11 0 11 -25 24 -24 25
-11 0 -10 0 0 -16z"/>
<path d="M60 800 l-15 -21 0 -11 0 -11 11 -4 10 -3 22 18 22 19 0 17 0 16 -18
0 -18 0 -14 -20z m30 -10 l0 -10 -10 0 -10 0 0 10 0 10 10 0 10 0 0 -10z"/>
<path d="M500 790 l0 -10 10 0 10 0 0 10 0 10 -10 0 -10 0 0 -10z"/>
<path d="M160 755 l0 -25 19 0 19 0 6 -16 6 -17 -4 -5 -5 -4 -73 -5 -73 -5 -3
-9 -4 -9 -14 0 -14 0 0 -10 0 -10 49 0 49 0 5 13 4 12 8 -7 7 -7 -16 -16 -16
-16 0 -15 0 -14 9 0 9 0 16 6 16 6 0 25 0 24 14 15 15 14 20 0 21 0 0 -10 0
-10 -10 0 -10 0 0 -30 0 -30 6 0 5 0 15 14 14 15 0 14 0 15 13 6 12 6 -14 6
-13 6 13 10 14 10 -12 5 -13 5 0 19 0 19 -25 6 -25 6 0 9 0 9 -20 0 -20 0 0
-25z m70 -35 l0 -10 -10 0 -10 0 0 10 0 10 10 0 10 0 0 -10z"/>
<path d="M780 770 l0 -10 10 0 10 0 0 10 0 10 -10 0 -10 0 0 -10z"/>
<path d="M90 734 l0 -15 14 -15 15 -14 10 0 11 0 0 16 0 15 -14 15 -15 14 -10
0 -11 0 0 -16z"/>
<path d="M1030 720 l0 -10 10 0 10 0 0 10 0 10 -10 0 -10 0 0 -10z"/>
</g>
</svg>
