<?xml version="1.0" standalone="no"?>
<!DOCTYPE svg PUBLIC "-//W3C//DTD SVG 20010904//EN"
 "http://www.w3.org/TR/2001/REC-SVG-20010904/DTD/svg10.dtd">
<svg version="1.0" xmlns="http://www.w3.org/2000/svg"
 width="468pt" height="468pt" viewBox="0 0 468 468"
 preserveAspectRatio="xMidYMid meet">
<metadata>
Created by potrace 1.8, written by Peter Selinger 2001-2007
</metadata>
<g transform="translate(0,468) scale(0.365625,-0.365625)"
fill="#000000" stroke="none">
<path d="M1070 1080 l0 -10 10 0 10 0 0 -15 0 -15 15 0 15 0 0 -15 0 -15 15 0
15 0 0 -25 0 -25 -15 0 -15 0 0 15 0 15 -15 0 -15 0 0 10 0 10 -25 0 -25 0 0
15 0 15 -15 0 -15 0 0 15 0 15 -10 0 -10 0 0 -26 0 -25 14 -15 15 -14 10 0 11
0 0 -15 0 -15 15 0 15 0 0 -15 0 -15 10 0 10 0 0 -10 0 -10 -25 0 -25 0 0 10
0 10 -25 0 -25 0 0 -10 0 -10 10 0 10 0 0 -15 0 -15 70 0 70 0 0 -15 0 -15
-40 0 -40 0 0 -10 0 -10 50 0 50 0 0 -40 0 -40 15 0 15 0 0 -70 0 -70 -11 0
-10 0 -15 -14 -14 -15 0 -10 0 -11 -30 0 -30 0 0 15 0 15 -10 0 -10 0 0 40 0
40 -15 0 -15 0 0 10 0 10 15 0 15 0 0 30 0 30 -15 0 -15 0 0 -15 0 -15 -15 0
-15 0 0 55 0 55 -10 0 -10 0 0 -15 0 -15 -15 0 -15 0 0 15 0 15 -15 0 -15 0 0
40 0 40 -10 0 -10 0 0 -15 0 -15 -40 0 -40 0 0 25 0 25 10 0 10 0 0 15 0 15
-25 0 -25 0 0 -15 0 -15 -25 0 -25 0 0 -10 0 -10 -15 0 -15 0 0 10 0 10 15 0
15 0 0 15 0 15 10 0 10 0 0 25 0 25 -10 0 -10 0 0 -10 0 -10 -15 0 -15 0 0
-15 0 -15 -25 0 -25 0 0 25 0 25 10 0 10 0 0 15 0 15 -25 0 -25 0 0 -25 0 -25
-25 0 -25 0 0 25 0 25 -15 0 -15 0 0 -55 0 -55 -15 0 -15 0 0 40 0 40 -10 0
-10 0 0 -10 0 -10 -15 0 -15 0 0 -15 0 -15 -15 0 -15 0 0 15 0 15 -10 0 -10 0
0 -40 0 -40 -15 0 -15 0 0 10 0 10 -15 0 -15 0 0 -65 0 -65 15 0 15 0 0 -15 0
-15 -25 0 -25 0 0 40 0 40 -15 0 -15 0 0 -25 0 -25 -15 0 -15 0 0 15 0 15 -10
0 -10 0 0 -55 0 -55 10 0 10 0 0 -15 0 -15 15 0 15 0 0 15 0 15 15 0 15 0 0
-15 0 -15 -15 0 -15 0 0 -25 0 -25 -15 0 -15 0 0 25 0 25 -10 0 -10 0 0 15 0
15 -15 0 -15 0 0 25 0 25 -15 0 -15 0 0 40 0 40 -10 0 -10 0 0 30 0 30 -15 0
-15 0 0 40 0 40 -15 0 -15 0 0 -80 0 -80 15 0 15 0 0 -55 0 -55 15 0 15 0 0
-15 0 -15 -15 0 -15 0 0 15 0 15 -15 0 -15 0 0 40 0 40 -10 0 -10 0 0 25 0 25
-15 0 -15 0 0 30 0 30 -15 0 -15 0 0 25 0 25 -10 0 -10 0 0 -55 0 -55 10 0 10
0 0 -50 0 -50 15 0 15 0 0 -55 0 -55 -15 0 -15 0 0 -15 0 -15 -10 0 -10 0 0
-25 0 -25 25 0 25 0 0 -15 0 -15 -25 0 -25 0 0 -10 0 -10 -15 0 -15 0 0 -40 0
-40 15 0 15 0 0 -15 0 -15 10 0 10 0 0 25 0 25 15 0 15 0 0 -10 0 -10 15 0 15
0 0 25 0 25 40 0 40 0 0 -40 0 -40 -15 0 -15 0 0 15 0 15 -15 0 -15 0 0 -30 0
-30 -10 0 -10 0 0 15 0 15 -15 0 -15 0 0 -15 0 -15 -15 0 -15 0 0 -10 0 -10
15 0 15 0 0 -15 0 -15 15 0 15 0 0 -15 0 -15 25 0 25 0 0 15 0 15 15 0 15 0 0
11 0 10 14 15 15 14 10 0 11 0 0 15 0 15 25 0 25 0 0 -15 0 -15 15 0 15 0 0
-25 0 -25 15 0 15 0 0 -15 0 -15 -30 0 -30 0 0 -25 0 -25 15 0 15 0 0 -15 0
-15 -15 0 -15 0 0 15 0 15 -25 0 -25 0 0 -15 0 -15 -15 0 -15 0 0 -40 0 -40
15 0 15 0 0 15 0 15 15 0 15 0 0 -25 0 -25 10 0 10 0 0 25 0 25 15 0 15 0 0
-25 0 -25 15 0 15 0 0 10 0 10 50 0 50 0 0 30 0 30 15 0 15 0 0 50 0 50 15 0
15 0 0 -50 0 -50 10 0 10 0 0 -15 0 -15 -10 0 -10 0 0 15 0 15 -15 0 -15 0 0
-30 0 -30 40 0 40 0 0 15 0 15 15 0 15 0 0 -15 0 -15 10 0 10 0 0 15 0 15 15
0 15 0 0 25 0 25 -15 0 -15 0 0 40 0 40 -10 0 -10 0 0 30 0 30 40 0 40 0 0 10
0 10 50 0 50 0 0 -10 0 -10 30 0 30 0 0 -15 0 -15 40 0 40 0 0 15 0 15 25 0
25 0 0 -15 0 -15 -15 0 -15 0 0 -11 0 -10 -14 -15 -15 -14 -10 0 -11 0 0 10 0
10 -25 0 -25 0 0 -10 0 -10 -15 0 -15 0 0 -15 0 -15 -15 0 -15 0 0 -15 0 -15
-10 0 -10 0 0 -25 0 -25 25 0 25 0 0 25 0 25 15 0 15 0 0 -25 0 -25 10 0 10 0
0 15 0 15 15 0 15 0 0 -15 0 -15 15 0 15 0 0 15 0 15 10 0 10 0 0 -15 0 -15
40 0 40 0 0 40 0 40 15 0 15 0 0 -25 0 -25 25 0 25 0 0 -15 0 -15 15 0 15 0 0
15 0 15 25 0 25 0 0 10 0 10 15 0 15 0 0 55 0 55 -15 0 -15 0 0 40 0 40 -10 0
-10 0 0 11 0 10 14 15 15 14 10 0 11 0 0 15 0 15 15 0 15 0 0 15 0 15 10 0 10
0 0 25 0 25 15 0 15 0 0 135 0 135 -15 0 -15 0 0 50 0 50 -10 0 -10 0 0 80 0
80 -15 0 -15 0 0 -40 0 -40 -15 0 -15 0 0 15 0 15 -10 0 -10 0 0 15 0 15 -15
0 -15 0 0 10 0 10 -25 0 -25 0 0 -10z m-480 -200 l0 -30 40 0 40 0 0 -10 0
-10 -40 0 -40 0 0 10 0 10 -15 0 -15 0 0 -10 0 -10 -15 0 -15 0 0 -15 0 -15
-10 0 -10 0 0 11 0 10 14 15 15 14 10 0 11 0 0 30 0 30 15 0 15 0 0 -30z m166
-44 l14 -15 0 -10 0 -11 15 0 15 0 0 15 0 15 15 0 15 0 0 -29 0 -29 13 -5 12
-4 -9 -9 -9 -9 -4 13 -5 12 -29 0 -29 0 0 15 0 15 -10 0 -10 0 0 15 0 15 -30
0 -30 0 0 10 0 10 26 0 25 0 15 -14z m124 4 l0 -10 -15 0 -15 0 0 10 0 10 15
0 15 0 0 -10z m-430 -215 l0 -15 15 0 15 0 0 -10 0 -10 -15 0 -15 0 0 10 0 10
-25 0 -25 0 0 15 0 15 25 0 25 0 0 -15z m-80 -25 l0 -10 -10 0 -10 0 0 -29 0
-29 13 -6 12 -6 -12 -6 -13 -6 0 -29 0 -29 -15 0 -15 0 0 30 0 30 15 0 15 0 0
10 0 10 -15 0 -15 0 0 30 0 30 15 0 15 0 0 10 0 10 10 0 10 0 0 -10z m-180
-25 l0 -15 -15 0 -15 0 0 -15 0 -15 -25 0 -25 0 0 15 0 15 10 0 10 0 0 15 0
15 30 0 30 0 0 -15z m660 0 l0 -15 -10 0 -10 0 0 15 0 15 10 0 10 0 0 -15z
m-20 -80 l0 -15 -15 0 -15 0 0 -25 0 -25 -15 0 -15 0 0 25 0 25 15 0 15 0 0
15 0 15 15 0 15 0 0 -15z m180 -30 l0 -15 -25 0 -25 0 0 15 0 15 25 0 25 0 0
-15z m66 -29 l14 -15 0 -10 0 -11 -10 0 -10 0 0 15 0 15 -15 0 -15 0 0 10 0
10 11 0 10 0 15 -14z m-546 -91 l0 -25 -10 0 -10 0 0 25 0 25 10 0 10 0 0 -25z
m560 0 l0 -25 30 0 30 0 0 -15 0 -15 -30 0 -30 0 0 15 0 15 -10 0 -10 0 0 -25
0 -25 -15 0 -15 0 0 25 0 25 15 0 15 0 0 25 0 25 10 0 10 0 0 -25z"/>
</g>
</svg>
