<?xml version="1.0" standalone="no"?>
<!DOCTYPE svg PUBLIC "-//W3C//DTD SVG 20010904//EN"
 "http://www.w3.org/TR/2001/REC-SVG-20010904/DTD/svg10.dtd">
<svg version="1.0" xmlns="http://www.w3.org/2000/svg"
 width="468pt" height="468pt" viewBox="0 0 468 468"
 preserveAspectRatio="xMidYMid meet">
<metadata>
Created by potrace 1.8, written by Peter Selinger 2001-2007
</metadata>
<g transform="translate(0,468) scale(0.365625,-0.365625)"
fill="#000000" stroke="none">
<path d="M800 950 l0 -30 -10 0 -10 0 0 -20 0 -20 -10 0 -10 0 0 -20 0 -20
-20 0 -20 0 0 -200 0 -200 -30 0 -30 0 0 130 0 130 -50 0 -50 0 0 -190 0 -190
-30 0 -30 0 0 70 0 70 -10 0 -10 0 0 130 0 130 -40 0 -40 0 0 -130 0 -130 -20
0 -20 0 0 -30 0 -30 -20 0 -20 0 0 -60 0 -60 -20 0 -20 0 0 130 0 130 -50 0
-50 0 0 190 0 190 -50 0 -50 0 0 -350 0 -350 -20 0 -20 0 0 39 0 39 -12 6 -13
6 13 6 12 6 0 19 0 19 -20 0 -20 0 0 -49 0 -49 13 -6 12 -6 -12 -6 -13 -6 0
-38 0 -38 13 -6 12 -6 -12 -6 -13 -6 0 -18 0 -18 13 -6 12 -6 -12 -6 -13 -6 0
-39 0 -39 640 0 640 0 0 310 0 310 -10 0 -10 0 0 80 0 80 -20 0 -20 0 0 -80 0
-80 -10 0 -10 0 0 -130 0 -130 -20 0 -20 0 0 180 0 180 -110 0 -110 0 0 -190
0 -190 -10 0 -10 0 0 250 0 250 -30 0 -30 0 0 20 0 20 -10 0 -10 0 0 20 0 20
-10 0 -10 0 0 30 0 30 -10 0 -10 0 0 -30z m-680 -60 l0 -10 -10 0 -10 0 0 10
0 10 10 0 10 0 0 -10z m40 -20 l0 -10 -10 0 -10 0 0 10 0 10 10 0 10 0 0 -10z
m-40 -40 l0 -10 -10 0 -10 0 0 10 0 10 10 0 10 0 0 -10z m40 -20 l0 -10 -10 0
-10 0 0 10 0 10 10 0 10 0 0 -10z m620 -10 l0 -20 -20 0 -20 0 0 20 0 20 20 0
20 0 0 -20z m60 0 l0 -20 -20 0 -20 0 0 20 0 20 20 0 20 0 0 -20z m60 0 l0
-20 -20 0 -20 0 0 20 0 20 20 0 20 0 0 -20z m-760 -30 l0 -10 -10 0 -10 0 0
10 0 10 10 0 10 0 0 -10z m640 -30 l0 -20 -20 0 -20 0 0 20 0 20 20 0 20 0 0
-20z m120 0 l0 -20 -20 0 -20 0 0 20 0 20 20 0 20 0 0 -20z m-780 -10 l0 -10
-10 0 -10 0 0 10 0 10 10 0 10 0 0 -10z m40 -40 l0 -10 -10 0 -10 0 0 10 0 10
10 0 10 0 0 -10z m300 0 l0 -10 -20 0 -20 0 0 10 0 10 20 0 20 0 0 -10z m380
-10 l0 -20 -20 0 -20 0 0 20 0 20 20 0 20 0 0 -20z m140 10 l0 -10 -10 0 -10
0 0 10 0 10 10 0 10 0 0 -10z m40 0 l0 -10 -10 0 -10 0 0 10 0 10 10 0 10 0 0
-10z m40 0 l0 -10 -10 0 -10 0 0 10 0 10 10 0 10 0 0 -10z m60 0 l0 -10 -20 0
-20 0 0 10 0 10 20 0 20 0 0 -10z m-520 -30 l0 -20 -10 0 -10 0 0 20 0 20 10
0 10 0 0 -20z m40 0 l0 -20 -10 0 -10 0 0 20 0 20 10 0 10 0 0 -20z m-180 -10
l0 -10 -20 0 -20 0 0 10 0 10 20 0 20 0 0 -10z m520 0 l0 -10 -10 0 -10 0 0
10 0 10 10 0 10 0 0 -10z m60 0 l0 -10 -10 0 -10 0 0 10 0 10 10 0 10 0 0 -10z
m100 0 l0 -10 -30 0 -30 0 0 10 0 10 30 0 30 0 0 -10z m-980 -20 l0 -10 -30 0
-30 0 0 10 0 10 30 0 30 0 0 -10z m620 -10 l0 -20 -20 0 -20 0 0 20 0 20 20 0
20 0 0 -20z m-320 -10 l0 -10 -20 0 -20 0 0 10 0 10 20 0 20 0 0 -10z m140
-10 l0 -20 -10 0 -10 0 0 20 0 20 10 0 10 0 0 -20z m400 10 l0 -10 -20 0 -20
0 0 10 0 10 20 0 20 0 0 -10z m40 0 l0 -10 -10 0 -10 0 0 10 0 10 10 0 10 0 0
-10z m60 0 l0 -10 -20 0 -20 0 0 10 0 10 20 0 20 0 0 -10z m40 0 l0 -10 -10 0
-10 0 0 10 0 10 10 0 10 0 0 -10z m-980 -20 l0 -10 -10 0 -10 0 0 10 0 10 10
0 10 0 0 -10z m680 -10 l0 -20 -20 0 -20 0 0 20 0 20 20 0 20 0 0 -20z m60 0
l0 -20 -20 0 -20 0 0 20 0 20 20 0 20 0 0 -20z m360 10 l0 -10 -20 0 -20 0 0
10 0 10 20 0 20 0 0 -10z m-620 -30 l0 -20 -10 0 -10 0 0 20 0 20 10 0 10 0 0
-20z m340 10 l0 -10 -10 0 -10 0 0 10 0 10 10 0 10 0 0 -10z m40 0 l0 -10 -10
0 -10 0 0 10 0 10 10 0 10 0 0 -10z m40 0 l0 -10 -10 0 -10 0 0 10 0 10 10 0
10 0 0 -10z m80 0 l0 -10 -30 0 -30 0 0 10 0 10 30 0 30 0 0 -10z m-1000 -20
l0 -10 -10 0 -10 0 0 10 0 10 10 0 10 0 0 -10z m1120 0 l0 -10 -20 0 -20 0 0
10 0 10 20 0 20 0 0 -10z m-800 -20 l0 -10 -20 0 -20 0 0 10 0 10 20 0 20 0 0
-10z m560 0 l0 -10 -20 0 -20 0 0 10 0 10 20 0 20 0 0 -10z m40 0 l0 -10 -10
0 -10 0 0 10 0 10 10 0 10 0 0 -10z m80 0 l0 -10 -20 0 -20 0 0 10 0 10 20 0
20 0 0 -10z m-920 -20 l0 -10 20 0 20 0 0 -10 0 -10 -20 0 -20 0 0 10 0 10
-20 0 -20 0 0 10 0 10 20 0 20 0 0 -10z m420 -30 l0 -20 -10 0 -10 0 0 20 0
20 10 0 10 0 0 -20z m380 10 l0 -10 -20 0 -20 0 0 10 0 10 20 0 20 0 0 -10z
m40 0 l0 -10 -10 0 -10 0 0 10 0 10 10 0 10 0 0 -10z m80 0 l0 -10 -30 0 -30
0 0 10 0 10 30 0 30 0 0 -10z m-1020 -20 l0 -10 -10 0 -10 0 0 10 0 10 10 0
10 0 0 -10z m340 0 l0 -10 -20 0 -20 0 0 10 0 10 20 0 20 0 0 -10z m320 -10
l0 -20 -20 0 -20 0 0 20 0 20 20 0 20 0 0 -20z m120 0 l0 -20 -20 0 -20 0 0
20 0 20 20 0 20 0 0 -20z m360 10 l0 -10 -20 0 -20 0 0 10 0 10 20 0 20 0 0
-10z m-1040 -20 l0 -10 -20 0 -20 0 0 10 0 10 20 0 20 0 0 -10z m760 0 l0 -10
-10 0 -10 0 0 10 0 10 10 0 10 0 0 -10z m60 0 l0 -10 -20 0 -20 0 0 10 0 10
20 0 20 0 0 -10z m80 0 l0 -10 -30 0 -30 0 0 10 0 10 30 0 30 0 0 -10z m-980
-20 l0 -10 -10 0 -10 0 0 10 0 10 10 0 10 0 0 -10z m340 0 l0 -10 -50 0 -50 0
0 10 0 10 50 0 50 0 0 -10z m160 -10 l0 -20 -10 0 -10 0 0 20 0 20 10 0 10 0
0 -20z m600 10 l0 -10 -10 0 -10 0 0 10 0 10 10 0 10 0 0 -10z m-980 -20 l0
-10 -20 0 -20 0 0 -10 0 -10 -20 0 -20 0 0 10 0 10 20 0 20 0 0 10 0 10 20 0
20 0 0 -10z m580 -10 l0 -20 -20 0 -20 0 0 20 0 20 20 0 20 0 0 -20z m60 0 l0
-20 -20 0 -20 0 0 20 0 20 20 0 20 0 0 -20z m80 10 l0 -10 -10 0 -10 0 0 10 0
10 10 0 10 0 0 -10z m40 0 l0 -10 -10 0 -10 0 0 10 0 10 10 0 10 0 0 -10z m80
0 l0 -10 -20 0 -20 0 0 10 0 10 20 0 20 0 0 -10z m40 0 l0 -10 -10 0 -10 0 0
10 0 10 10 0 10 0 0 -10z m-980 -20 l0 -10 -10 0 -10 0 0 10 0 10 10 0 10 0 0
-10z m540 4 l0 -5 -15 -16 -16 -15 -5 5 -6 6 13 15 14 15 8 1 7 0 0 -6z m560
-4 l0 -10 -10 0 -10 0 0 10 0 10 10 0 10 0 0 -10z m-780 -20 l0 -10 -70 0 -70
0 0 10 0 10 70 0 70 0 0 -10z m120 -10 l0 -20 -10 0 -10 0 0 20 0 20 10 0 10
0 0 -20z m40 0 l0 -20 -10 0 -10 0 0 20 0 20 10 0 10 0 0 -20z m340 10 l0 -10
-10 0 -10 0 0 10 0 10 10 0 10 0 0 -10z m40 0 l0 -10 -10 0 -10 0 0 10 0 10
10 0 10 0 0 -10z m60 0 l0 -10 -10 0 -10 0 0 10 0 10 10 0 10 0 0 -10z m40 0
l0 -10 -10 0 -10 0 0 10 0 10 10 0 10 0 0 -10z m-960 -20 l0 -10 -10 0 -10 0
0 10 0 10 10 0 10 0 0 -10z m100 0 l0 -10 -20 0 -20 0 0 -10 0 -10 20 0 20 0
0 -10 0 -10 -20 0 -20 0 0 10 0 10 -20 0 -20 0 0 10 0 10 20 0 20 0 0 10 0 10
20 0 20 0 0 -10z m520 -10 l0 -20 -20 0 -20 0 0 20 0 20 20 0 20 0 0 -20z
m480 10 l0 -10 -20 0 -20 0 0 10 0 10 20 0 20 0 0 -10z m-560 -16 l0 -5 -15
-16 -16 -15 -5 5 -6 6 13 15 14 15 8 1 7 0 0 -6z m300 -4 l0 -10 -10 0 -10 0
0 10 0 10 10 0 10 0 0 -10z m100 0 l0 -10 -20 0 -20 0 0 10 0 10 20 0 20 0 0
-10z m40 0 l0 -10 -10 0 -10 0 0 10 0 10 10 0 10 0 0 -10z m40 -20 l0 -30 -10
0 -10 0 0 30 0 30 10 0 10 0 0 -30z m80 0 l0 -10 -20 0 -20 0 0 10 0 10 20 0
20 0 0 -10z m-1100 -20 l0 -10 -10 0 -10 0 0 10 0 10 10 0 10 0 0 -10z m320 0
l0 -10 -70 0 -70 0 0 10 0 10 70 0 70 0 0 -10z m120 -10 l0 -20 -10 0 -10 0 0
20 0 20 10 0 10 0 0 -20z m240 0 l0 -20 -20 0 -20 0 0 20 0 20 20 0 20 0 0
-20z m160 10 l0 -10 -20 0 -20 0 0 10 0 10 20 0 20 0 0 -10z m120 0 l0 -10
-20 0 -20 0 0 10 0 10 20 0 20 0 0 -10z m-1000 -20 l0 -10 -10 0 -10 0 0 10 0
10 10 0 10 0 0 -10z m400 0 l0 -10 -10 0 -10 0 0 10 0 10 10 0 10 0 0 -10z
m740 0 l0 -10 -20 0 -20 0 0 10 0 10 20 0 20 0 0 -10z m-1000 -20 l0 -10 -20
0 -20 0 0 -10 0 -10 -20 0 -20 0 0 10 0 10 20 0 20 0 0 10 0 10 20 0 20 0 0
-10z m220 0 l0 -10 -70 0 -70 0 0 10 0 10 70 0 70 0 0 -10z m160 -10 l0 -20
-10 0 -10 0 0 20 0 20 10 0 10 0 0 -20z m340 10 l0 -10 -10 0 -10 0 0 10 0 10
10 0 10 0 0 -10z m40 0 l0 -10 -10 0 -10 0 0 10 0 10 10 0 10 0 0 -10z m60 0
l0 -10 -10 0 -10 0 0 10 0 10 10 0 10 0 0 -10z m60 0 l0 -10 -20 0 -20 0 0 10
0 10 20 0 20 0 0 -10z m-820 -20 l0 -10 -10 0 -10 0 0 10 0 10 10 0 10 0 0
-10z m380 4 l0 -5 -15 -16 -16 -15 -5 5 -6 6 13 15 14 15 8 1 7 0 0 -6z m200
-14 l0 -20 -20 0 -20 0 0 20 0 20 20 0 20 0 0 -20z m300 -20 l0 -40 -10 0 -10
0 0 40 0 40 10 0 10 0 0 -40z m40 30 l0 -10 -10 0 -10 0 0 10 0 10 10 0 10 0
0 -10z m-1100 -20 l0 -10 -20 0 -20 0 0 10 0 10 20 0 20 0 0 -10z m420 0 l0
-10 -10 0 -10 0 0 10 0 10 10 0 10 0 0 -10z m440 0 l0 -10 -10 0 -10 0 0 10 0
10 10 0 10 0 0 -10z m100 0 l0 -10 -20 0 -20 0 0 10 0 10 20 0 20 0 0 -10z
m40 0 l0 -10 -10 0 -10 0 0 10 0 10 10 0 10 0 0 -10z m-1080 -20 l0 -10 -10 0
-10 0 0 10 0 10 10 0 10 0 0 -10z m160 0 l0 -10 20 0 20 0 0 -10 0 -10 -20 0
-20 0 0 10 0 10 -20 0 -20 0 0 10 0 10 20 0 20 0 0 -10z m420 -10 l0 -20 -10
0 -10 0 0 20 0 20 10 0 10 0 0 -20z m600 10 l0 -10 -10 0 -10 0 0 10 0 10 10
0 10 0 0 -10z m-1120 -20 l0 -10 -10 0 -10 0 0 10 0 10 10 0 10 0 0 -10z m360
0 l0 -10 -70 0 -70 0 0 10 0 10 70 0 70 0 0 -10z m40 -10 l0 -20 -10 0 -10 0
0 20 0 20 10 0 10 0 0 -20z m180 14 l0 -5 -15 -16 -16 -15 -5 5 -6 6 13 15 14
15 8 1 7 0 0 -6z m200 -14 l0 -20 -20 0 -20 0 0 20 0 20 20 0 20 0 0 -20z m80
10 l0 -10 -10 0 -10 0 0 10 0 10 10 0 10 0 0 -10z m80 0 l0 -10 -20 0 -20 0 0
10 0 10 20 0 20 0 0 -10z m-980 -20 l0 -10 -10 0 -10 0 0 10 0 10 10 0 10 0 0
-10z m220 0 l0 -10 -10 0 -10 0 0 10 0 10 10 0 10 0 0 -10z m300 -10 l0 -20
-10 0 -10 0 0 20 0 20 10 0 10 0 0 -20z m520 10 l0 -10 -10 0 -10 0 0 10 0 10
10 0 10 0 0 -10z m140 0 l0 -10 -20 0 -20 0 0 10 0 10 20 0 20 0 0 -10z
m-1140 -20 l0 -10 -10 0 -10 0 0 10 0 10 10 0 10 0 0 -10z m100 0 l0 -10 20 0
20 0 0 -10 0 -10 -20 0 -20 0 0 10 0 10 -20 0 -20 0 0 10 0 10 20 0 20 0 0
-10z m260 0 l0 -10 -70 0 -70 0 0 10 0 10 70 0 70 0 0 -10z m540 0 l0 -10 -30
0 -30 0 0 10 0 10 30 0 30 0 0 -10z m160 -30 l0 -40 -10 0 -10 0 0 40 0 40 10
0 10 0 0 -40z m-1120 10 l0 -10 -10 0 -10 0 0 10 0 10 10 0 10 0 0 -10z m640
4 l0 -5 -15 -16 -16 -15 -5 5 -6 6 13 15 14 15 8 1 7 0 0 -6z m80 -14 l0 -20
-20 0 -20 0 0 20 0 20 20 0 20 0 0 -20z m480 10 l0 -10 -20 0 -20 0 0 10 0 10
20 0 20 0 0 -10z m-1100 -20 l0 -10 -20 0 -20 0 0 10 0 10 20 0 20 0 0 -10z
m160 0 l0 -10 -10 0 -10 0 0 10 0 10 10 0 10 0 0 -10z m160 0 l0 -10 -40 0
-40 0 0 10 0 10 40 0 40 0 0 -10z m80 0 l0 -10 -10 0 -10 0 0 10 0 10 10 0 10
0 0 -10z m420 0 l0 -10 -10 0 -10 0 0 10 0 10 10 0 10 0 0 -10z m140 0 l0 -10
-20 0 -20 0 0 10 0 10 20 0 20 0 0 -10z m-1040 -20 l0 -10 -10 0 -10 0 0 10 0
10 10 0 10 0 0 -10z m440 0 l0 -10 -10 0 -10 0 0 10 0 10 10 0 10 0 0 -10z
m740 0 l0 -10 -20 0 -20 0 0 10 0 10 20 0 20 0 0 -10z"/>
</g>
</svg>
