<?xml version="1.0" standalone="no"?>
<!DOCTYPE svg PUBLIC "-//W3C//DTD SVG 20010904//EN"
 "http://www.w3.org/TR/2001/REC-SVG-20010904/DTD/svg10.dtd">
<svg version="1.0" xmlns="http://www.w3.org/2000/svg"
 width="468pt" height="468pt" viewBox="0 0 468 468"
 preserveAspectRatio="xMidYMid meet">
<metadata>
Created by potrace 1.8, written by Peter Selinger 2001-2007
</metadata>
<g transform="translate(0,468) scale(0.365625,-0.365625)"
fill="#000000" stroke="none">
<path d="M50 1185 l0 -95 15 0 15 0 0 -10 0 -10 15 0 15 0 0 -15 0 -15 10 0
10 0 0 -15 0 -15 15 0 15 0 0 -10 0 -10 15 0 15 0 0 -15 0 -15 10 0 10 0 0
-15 0 -15 80 0 80 0 0 -10 0 -10 55 0 55 0 0 -15 0 -15 55 0 55 0 0 -40 0 -40
-15 0 -15 0 0 -15 0 -15 15 0 15 0 0 -25 0 -25 -15 0 -15 0 0 25 0 25 -25 0
-25 0 0 -25 0 -25 10 0 10 0 0 -25 0 -25 -10 0 -10 0 0 -15 0 -15 -15 0 -15 0
0 -15 0 -15 -15 0 -15 0 0 -25 0 -25 -10 0 -10 0 0 -15 0 -15 -15 0 -15 0 0
-10 0 -10 -95 0 -95 0 0 -15 0 -15 -10 0 -10 0 0 -15 0 -15 -15 0 -15 0 0 -10
0 -10 -15 0 -15 0 0 -70 0 -70 15 0 15 0 0 -10 0 -10 15 0 15 0 0 -15 0 -15
40 0 40 0 0 -15 0 -15 25 0 25 0 0 -10 0 -10 15 0 15 0 0 -15 0 -15 50 0 50 0
0 -15 0 -15 15 0 15 0 0 -10 0 -10 15 0 15 0 0 -15 0 -15 10 0 10 0 0 -40 0
-40 30 0 30 0 0 15 0 15 40 0 40 0 0 -15 0 -15 50 0 50 0 0 15 0 15 15 0 15 0
0 10 0 10 25 0 25 0 0 15 0 15 15 0 15 0 0 15 0 15 15 0 15 0 0 25 0 25 90 0
90 0 0 15 0 15 30 0 30 0 0 10 0 10 25 0 25 0 0 15 0 15 15 0 15 0 0 25 0 25
10 0 10 0 0 55 0 55 -10 0 -10 0 0 15 0 15 -15 0 -15 0 0 10 0 10 -25 0 -25 0
0 15 0 15 -55 0 -55 0 0 15 0 15 -15 0 -15 0 0 10 0 10 -25 0 -25 0 0 55 0 55
-15 0 -15 0 0 95 0 95 15 0 15 0 0 25 0 25 15 0 15 0 0 145 0 145 -15 0 -15 0
0 40 0 40 -15 0 -15 0 0 15 0 15 -105 0 -105 0 0 -15 0 -15 14 0 14 0 6 -12 6
-13 6 13 6 12 14 0 14 0 0 -10 0 -10 14 0 14 0 6 13 6 12 6 -12 6 -13 14 0 14
0 0 10 0 10 11 0 10 0 15 -14 14 -15 0 -10 0 -11 -10 0 -10 0 0 -11 0 -10 14
-15 15 -14 10 0 11 0 0 -15 0 -15 -15 0 -15 0 0 -15 0 -15 15 0 15 0 0 -10 0
-10 -11 0 -10 0 -15 14 -14 15 0 10 0 11 -15 0 -15 0 0 15 0 15 -15 0 -15 0 0
-15 0 -15 -10 0 -10 0 0 -14 0 -14 13 -6 12 -6 -12 -6 -13 -6 0 -14 0 -14 -15
0 -15 0 0 -15 0 -15 -15 0 -15 0 0 15 0 15 -10 0 -10 0 0 -11 0 -10 14 -15 15
-14 10 0 11 0 0 -15 0 -15 -15 0 -15 0 0 11 0 10 -14 15 -15 14 -10 0 -11 0 0
15 0 15 -15 0 -15 0 0 15 0 15 15 0 15 0 0 10 0 10 -15 0 -15 0 0 15 0 15 15
0 15 0 0 15 0 15 -15 0 -15 0 0 10 0 10 15 0 15 0 0 15 0 15 15 0 15 0 0 15 0
15 -15 0 -15 0 0 10 0 10 -15 0 -15 0 0 -25 0 -25 -10 0 -10 0 0 -40 0 -40
-15 0 -15 0 0 -15 0 -15 -15 0 -15 0 0 15 0 15 -40 0 -40 0 0 11 0 10 -14 15
-15 14 -115 0 -116 0 0 15 0 15 -55 0 -55 0 0 15 0 15 -11 0 -10 0 -15 14 -14
15 0 10 0 11 -30 0 -30 0 0 -95z m66 51 l14 -15 0 -10 0 -11 15 0 15 0 0 -15
0 -15 14 0 14 0 6 -12 6 -13 6 13 6 12 14 0 14 0 0 -10 0 -10 15 0 15 0 0 -15
0 -15 10 0 10 0 0 15 0 15 15 0 15 0 0 -15 0 -15 15 0 15 0 0 15 0 15 10 0 10
0 0 -15 0 -15 15 0 15 0 0 15 0 15 15 0 15 0 0 -15 0 -15 10 0 10 0 0 15 0 15
15 0 15 0 0 -15 0 -15 15 0 15 0 0 -11 0 -10 14 -15 15 -14 10 0 11 0 0 10 0
10 15 0 15 0 0 -10 0 -10 -15 0 -15 0 0 -15 0 -15 -15 0 -15 0 0 -11 0 -10
-14 -15 -15 -14 -10 0 -11 0 0 10 0 10 -15 0 -15 0 0 -10 0 -10 -40 0 -40 0 0
-15 0 -15 -10 0 -10 0 0 15 0 15 10 0 10 0 0 10 0 10 -65 0 -65 0 0 15 0 15
-15 0 -15 0 0 -15 0 -15 15 0 15 0 0 -10 0 -10 15 0 15 0 0 -15 0 -15 -15 0
-15 0 0 15 0 15 -11 0 -10 0 -15 14 -14 15 0 10 0 11 -15 0 -15 0 0 15 0 15
-11 0 -10 0 -15 14 -14 15 0 10 0 11 -15 0 -15 0 0 15 0 15 15 0 15 0 0 -15 0
-15 10 0 10 0 0 15 0 15 15 0 15 0 0 10 0 10 -15 0 -15 0 0 15 0 15 -10 0 -10
0 0 -15 0 -15 -15 0 -15 0 0 15 0 15 15 0 15 0 0 15 0 15 -15 0 -15 0 0 10 0
10 11 0 10 0 15 -14z m14 -76 l0 -10 -10 0 -10 0 0 10 0 10 10 0 10 0 0 -10z
m510 -135 l0 -15 -15 0 -15 0 0 15 0 15 15 0 15 0 0 -15z m320 0 l0 -15 -14 0
-14 0 -5 -12 -4 -13 -9 9 -9 9 13 4 12 5 0 14 0 14 15 0 15 0 0 -15z m-400
-25 l0 -10 15 0 15 0 0 -15 0 -15 10 0 10 0 0 -15 0 -15 15 0 15 0 0 15 0 15
15 0 15 0 0 -11 0 -10 14 -15 15 -14 10 0 11 0 0 -15 0 -15 -15 0 -15 0 0 11
0 10 -14 15 -15 14 -10 0 -11 0 0 -10 0 -10 15 0 15 0 0 -15 0 -15 -15 0 -15
0 0 15 0 15 -11 0 -10 0 -15 14 -14 15 0 10 0 11 -15 0 -15 0 0 -25 0 -25 -15
0 -15 0 0 25 0 25 -10 0 -10 0 0 10 0 11 13 14 12 14 13 1 12 0 0 -10z m-240
-25 l0 -15 -15 0 -15 0 0 15 0 15 15 0 15 0 0 -15z m110 -30 l0 -15 -15 0 -15
0 0 15 0 15 15 0 15 0 0 -15z m50 0 l0 -15 -15 0 -15 0 0 15 0 15 15 0 15 0 0
-15z m450 1 l0 -14 -12 -6 -13 -6 13 -6 12 -6 0 -14 0 -14 -10 0 -10 0 0 -15
0 -15 -15 0 -15 0 0 -10 0 -10 15 0 15 0 0 -15 0 -15 -15 0 -15 0 0 -15 0 -15
15 0 15 0 0 -10 0 -10 -15 0 -15 0 0 10 0 10 -15 0 -15 0 0 15 0 15 15 0 15 0
0 15 0 15 -15 0 -15 0 0 10 0 10 15 0 15 0 0 15 0 15 15 0 15 0 0 15 0 15 -15
0 -15 0 0 10 0 10 15 0 15 0 0 15 0 15 10 0 10 0 0 -14z m-210 -106 l0 -10
-15 0 -15 0 0 10 0 10 15 0 15 0 0 -10z m80 -25 l0 -15 15 0 15 0 0 -15 0 -15
-15 0 -15 0 0 -10 0 -10 15 0 15 0 0 -15 0 -15 -15 0 -15 0 0 -15 0 -15 14 0
14 0 6 -12 6 -13 6 13 6 12 14 0 14 0 0 -10 0 -10 15 0 15 0 0 -15 0 -15 -15
0 -15 0 0 -15 0 -15 11 0 10 0 15 -14 14 -15 0 -10 0 -11 -10 0 -10 0 0 -11 0
-10 14 -15 15 -14 10 0 11 0 0 -15 0 -15 -15 0 -15 0 0 -15 0 -15 30 0 30 0 0
15 0 15 10 0 10 0 0 -15 0 -15 55 0 55 0 0 -10 0 -10 25 0 25 0 0 -15 0 -15
15 0 15 0 0 -15 0 -15 15 0 15 0 0 -25 0 -25 -15 0 -15 0 0 -25 0 -25 -15 0
-15 0 0 -15 0 -15 -25 0 -25 0 0 -15 0 -15 -25 0 -25 0 0 -10 0 -10 -95 0 -95
0 0 -30 0 -30 -11 0 -10 0 -15 -14 -14 -15 0 -10 0 -11 -15 0 -15 0 0 15 0 15
11 0 10 0 15 14 14 15 0 65 0 66 15 0 15 0 0 10 0 10 15 0 15 0 0 15 0 15 -80
0 -80 0 0 15 0 15 -55 0 -55 0 0 -15 0 -15 -15 0 -15 0 0 -15 0 -15 -80 0 -80
0 0 15 0 15 -10 0 -10 0 0 25 0 25 40 0 40 0 0 15 0 15 -15 0 -15 0 0 15 0 15
15 0 15 0 0 -15 0 -15 90 0 90 0 0 -15 0 -15 30 0 30 0 0 15 0 15 25 0 25 0 0
15 0 15 40 0 40 0 0 10 0 10 15 0 15 0 0 15 0 15 10 0 10 0 0 11 0 10 -14 15
-15 14 -10 0 -11 0 0 -10 0 -10 15 0 15 0 0 -15 0 -15 -15 0 -15 0 0 -15 0
-15 -15 0 -15 0 0 15 0 15 -10 0 -10 0 0 14 0 14 13 6 12 6 -12 6 -13 6 0 14
0 14 10 0 10 0 0 11 0 10 -14 15 -15 14 -10 0 -11 0 0 15 0 15 -15 0 -15 0 0
-25 0 -25 15 0 15 0 0 -40 0 -40 -14 0 -14 0 -6 13 -6 12 -6 -12 -6 -13 -14 0
-14 0 0 -40 0 -40 15 0 15 0 0 -15 0 -15 -30 0 -30 0 0 15 0 15 -40 0 -40 0 0
50 0 50 15 0 15 0 0 30 0 30 11 0 10 0 15 14 14 15 0 10 0 11 40 0 40 0 0 15
0 15 15 0 15 0 0 10 0 10 -15 0 -15 0 0 15 0 15 -10 0 -10 0 0 14 0 14 13 6
12 6 -12 6 -13 6 0 14 0 14 10 0 10 0 0 15 0 15 15 0 15 0 0 -15z m-130 -26
l0 -10 14 -15 15 -14 10 0 11 0 0 -15 0 -15 -15 0 -15 0 0 -15 0 -15 15 0 15
0 0 -10 0 -10 -15 0 -15 0 0 -15 0 -15 -10 0 -10 0 0 -15 0 -15 -15 0 -15 0 0
15 0 15 -15 0 -15 0 0 14 0 14 -12 6 -13 6 13 6 12 6 0 14 0 14 15 0 15 0 0
-15 0 -15 15 0 15 0 0 15 0 15 10 0 10 0 0 11 0 10 -14 15 -15 14 -10 0 -11 0
0 -10 0 -10 -15 0 -15 0 0 10 0 10 15 0 15 0 0 15 0 15 15 0 15 0 0 -11z m50
-4 l0 -15 -15 0 -15 0 0 15 0 15 15 0 15 0 0 -15z m-130 -160 l0 -15 10 0 10
0 0 -25 0 -25 -10 0 -10 0 0 -40 0 -40 -15 0 -15 0 0 25 0 25 -25 0 -25 0 0
-10 0 -10 -15 0 -15 0 0 -30 0 -30 -15 0 -15 0 0 15 0 15 -10 0 -10 0 0 11 0
10 14 15 15 14 10 0 11 0 0 30 0 30 11 0 10 0 15 14 14 15 0 10 0 11 30 0 30
0 0 -15z m-160 -160 l0 -15 10 0 10 0 0 -25 0 -25 -25 0 -25 0 0 15 0 15 15 0
15 0 0 10 0 10 -15 0 -15 0 0 -10 0 -10 -15 0 -15 0 0 -30 0 -30 15 0 15 0 0
-25 0 -25 15 0 15 0 0 -11 0 -10 14 -15 15 -14 10 0 11 0 0 -40 0 -40 -51 0
-50 0 -15 14 -14 15 0 10 0 11 -30 0 -30 0 0 15 0 15 -36 0 -35 0 -15 14 -14
15 0 10 0 11 -15 0 -15 0 0 40 0 40 15 0 15 0 0 11 0 10 14 15 15 14 10 0 11
0 0 15 0 15 95 0 95 0 0 -15z m160 -25 l0 -10 -15 0 -15 0 0 10 0 10 15 0 15
0 0 -10z m0 -185 l0 -15 -15 0 -15 0 0 -15 0 -15 15 0 15 0 0 -10 0 -10 -40 0
-40 0 0 40 0 40 40 0 40 0 0 -15z m20 -150 l0 -25 80 0 80 0 0 -15 0 -15 -90
0 -90 0 0 15 0 15 -15 0 -15 0 0 25 0 25 25 0 25 0 0 -25z"/>
<path d="M160 1135 l0 -15 -15 0 -15 0 0 -15 0 -15 15 0 15 0 0 -10 0 -10 15
0 15 0 0 -15 0 -15 10 0 10 0 0 15 0 15 15 0 15 0 0 10 0 10 15 0 15 0 0 15 0
15 -15 0 -15 0 0 15 0 15 -15 0 -15 0 0 -15 0 -15 -10 0 -10 0 0 15 0 15 -15
0 -15 0 0 -15z m30 -30 l0 -15 -15 0 -15 0 0 15 0 15 15 0 15 0 0 -15z m50 0
l0 -15 -15 0 -15 0 0 15 0 15 15 0 15 0 0 -15z"/>
<path d="M290 1105 l0 -15 -10 0 -10 0 0 -25 0 -25 25 0 25 0 0 15 0 15 15 0
15 0 0 -15 0 -15 10 0 10 0 0 15 0 15 15 0 15 0 0 -15 0 -15 65 0 65 0 0 11 0
10 -14 15 -15 14 -10 0 -11 0 0 -10 0 -10 -14 0 -14 0 -6 13 -6 12 -6 -12 -6
-13 -14 0 -14 0 0 10 0 10 15 0 15 0 0 15 0 15 -15 0 -15 0 0 -15 0 -15 -15 0
-15 0 0 15 0 15 -10 0 -10 0 0 -15 0 -15 -15 0 -15 0 0 15 0 15 -15 0 -15 0 0
-15z m30 -25 l0 -10 -15 0 -15 0 0 10 0 10 15 0 15 0 0 -10z m50 0 l0 -10 -10
0 -10 0 0 10 0 10 10 0 10 0 0 -10z"/>
<path d="M450 1105 l0 -15 15 0 15 0 0 15 0 15 -15 0 -15 0 0 -15z"/>
<path d="M530 975 l0 -15 15 0 15 0 0 15 0 15 -15 0 -15 0 0 -15z"/>
<path d="M770 785 l0 -15 15 0 15 0 0 15 0 15 -15 0 -15 0 0 -15z"/>
<path d="M770 735 l0 -15 15 0 15 0 0 15 0 15 -15 0 -15 0 0 -15z"/>
<path d="M800 655 l0 -15 15 0 15 0 0 -11 0 -10 14 -15 15 -14 10 0 11 0 0
-15 0 -15 -15 0 -15 0 0 -15 0 -15 15 0 15 0 0 15 0 15 15 0 15 0 0 15 0 15
-15 0 -15 0 0 10 0 10 -15 0 -15 0 0 15 0 15 15 0 15 0 0 15 0 15 -15 0 -15 0
0 -15 0 -15 -10 0 -10 0 0 15 0 15 -15 0 -15 0 0 -15z"/>
<path d="M850 495 l0 -15 15 0 15 0 0 15 0 15 -15 0 -15 0 0 -15z"/>
<path d="M610 680 l0 -10 15 0 15 0 0 -15 0 -15 15 0 15 0 0 14 0 14 13 5 12
4 -9 9 -9 9 -4 -12 -5 -13 -14 0 -14 0 0 10 0 10 -15 0 -15 0 0 -10z"/>
<path d="M770 1215 l0 -15 -10 0 -10 0 0 -15 0 -15 -15 0 -15 0 0 -10 0 -10
15 0 15 0 0 -15 0 -15 -15 0 -15 0 0 -15 0 -15 15 0 15 0 0 15 0 15 10 0 10 0
0 -15 0 -15 15 0 15 0 0 -10 0 -10 -15 0 -15 0 0 -15 0 -15 15 0 15 0 0 15 0
15 15 0 15 0 0 10 0 10 -15 0 -15 0 0 15 0 15 15 0 15 0 0 11 0 10 14 15 15
14 10 0 11 0 0 -10 0 -10 15 0 15 0 0 -15 0 -15 10 0 10 0 0 11 0 10 -14 15
-15 14 -10 0 -11 0 0 15 0 15 15 0 15 0 0 15 0 15 -15 0 -15 0 0 -15 0 -15
-15 0 -15 0 0 15 0 15 -10 0 -10 0 0 -15 0 -15 -15 0 -15 0 0 15 0 15 -15 0
-15 0 0 -15z m30 -30 l0 -15 15 0 15 0 0 15 0 15 10 0 10 0 0 -11 0 -10 -14
-15 -15 -14 -10 0 -11 0 0 -15 0 -15 -15 0 -15 0 0 14 0 14 -12 6 -13 6 13 6
12 6 0 14 0 14 15 0 15 0 0 -15z"/>
<path d="M770 1160 l0 -10 15 0 15 0 0 10 0 10 -15 0 -15 0 0 -10z"/>
<path d="M750 1080 l0 -10 -15 0 -15 0 0 -15 0 -15 15 0 15 0 0 15 0 15 10 0
10 0 0 10 0 10 -10 0 -10 0 0 -10z"/>
</g>
</svg>
