<?xml version="1.0" standalone="no"?>
<!DOCTYPE svg PUBLIC "-//W3C//DTD SVG 20010904//EN"
 "http://www.w3.org/TR/2001/REC-SVG-20010904/DTD/svg10.dtd">
<svg version="1.0" xmlns="http://www.w3.org/2000/svg"
 width="468pt" height="468pt" viewBox="0 0 468 468"
 preserveAspectRatio="xMidYMid meet">
<metadata>
Created by potrace 1.8, written by Peter Selinger 2001-2007
</metadata>
<g transform="translate(0,468) scale(0.365625,-0.365625)"
fill="#000000" stroke="none">
<path d="M930 1190 l0 -40 -10 0 -10 0 0 -40 0 -40 -15 0 -15 0 0 -40 0 -40
-15 0 -15 0 0 -40 0 -40 -10 0 -10 0 0 -40 0 -40 -15 0 -15 0 0 -40 0 -40 -15
0 -15 0 0 36 0 35 -14 15 -15 14 -10 0 -11 0 0 30 0 30 -11 0 -10 0 -15 14
-14 15 0 10 0 11 -15 0 -15 0 0 -15 0 -15 11 0 10 0 15 -14 14 -15 0 -10 0
-11 -10 0 -10 0 0 -15 0 -15 -15 0 -15 0 0 -10 0 -10 15 0 15 0 0 10 0 10 10
0 10 0 0 -25 0 -25 -10 0 -10 0 0 -15 0 -15 10 0 10 0 0 -40 0 -40 -10 0 -10
0 0 -25 0 -25 -15 0 -15 0 0 -15 0 -15 15 0 15 0 0 -10 0 -10 -15 0 -15 0 0
10 0 10 -11 0 -10 0 -15 -14 -14 -15 0 -10 0 -11 -15 0 -15 0 0 -15 0 -15 -15
0 -15 0 0 15 0 15 -10 0 -10 0 0 15 0 15 -15 0 -15 0 0 10 0 10 -15 0 -15 0 0
15 0 15 15 0 15 0 0 25 0 25 -11 0 -10 0 -15 -14 -14 -15 0 -10 0 -11 -15 0
-15 0 0 -15 0 -15 11 0 10 0 15 -14 14 -15 0 -10 0 -11 15 0 15 0 0 -15 0 -15
15 0 15 0 0 -10 0 -10 -15 0 -15 0 0 10 0 10 -15 0 -15 0 0 15 0 15 -10 0 -10
0 0 15 0 15 -15 0 -15 0 0 10 0 10 -15 0 -15 0 0 15 0 15 15 0 15 0 0 15 0 15
-15 0 -15 0 0 10 0 10 15 0 15 0 0 15 0 15 -15 0 -15 0 0 15 0 15 -10 0 -10 0
0 -30 0 -30 -15 0 -15 0 0 -10 0 -10 15 0 15 0 0 -15 0 -15 -15 0 -15 0 0 15
0 15 -15 0 -15 0 0 10 0 10 15 0 15 0 0 30 0 30 15 0 15 0 0 65 0 65 10 0 10
0 0 -65 0 -65 15 0 15 0 0 65 0 65 15 0 15 0 0 25 0 25 10 0 10 0 0 15 0 15
15 0 15 0 0 15 0 15 -15 0 -15 0 0 -15 0 -15 -10 0 -10 0 0 -15 0 -15 -15 0
-15 0 0 -25 0 -25 -15 0 -15 0 0 40 0 40 15 0 15 0 0 15 0 15 11 0 10 0 15 14
14 15 0 10 0 11 -10 0 -10 0 0 15 0 15 -15 0 -15 0 0 10 0 10 -14 0 -14 0 -6
-12 -6 -13 -6 13 -6 12 -14 0 -14 0 0 -10 0 -10 -15 0 -15 0 0 -15 0 -15 -10
0 -10 0 0 15 0 15 -15 0 -15 0 0 -15 0 -15 15 0 15 0 0 -25 0 -25 -15 0 -15 0
0 10 0 10 -15 0 -15 0 0 15 0 15 -10 0 -10 0 0 -15 0 -15 -15 0 -15 0 0 -10 0
-10 -25 0 -25 0 0 -15 0 -15 10 0 10 0 0 -15 0 -15 15 0 15 0 0 -10 0 -10 15
0 15 0 0 -15 0 -15 -15 0 -15 0 0 -15 0 -15 15 0 15 0 0 -10 0 -10 -15 0 -15
0 0 10 0 10 -15 0 -15 0 0 15 0 15 15 0 15 0 0 15 0 15 -11 0 -10 0 -15 14
-14 15 0 10 0 11 -15 0 -15 0 0 -25 0 -25 -25 0 -25 0 0 -30 0 -30 -15 0 -15
0 0 -200 0 -200 15 0 15 0 0 -10 0 -10 -15 0 -15 0 0 -30 0 -30 15 0 15 0 0
15 0 15 10 0 10 0 0 -15 0 -15 15 0 15 0 0 -10 0 -10 -14 0 -14 0 -6 13 -6 12
-6 -12 -6 -13 -14 0 -14 0 0 -95 0 -95 15 0 15 0 0 15 0 15 10 0 10 0 0 -15 0
-15 15 0 15 0 0 15 0 15 15 0 15 0 0 -15 0 -15 10 0 10 0 0 15 0 15 15 0 15 0
0 -15 0 -15 15 0 15 0 0 15 0 15 10 0 10 0 0 -15 0 -15 15 0 15 0 0 15 0 15
15 0 15 0 0 -15 0 -15 10 0 10 0 0 15 0 15 15 0 15 0 0 -15 0 -15 15 0 15 0 0
15 0 15 10 0 10 0 0 -15 0 -15 15 0 15 0 0 15 0 15 15 0 15 0 0 -15 0 -15 10
0 10 0 0 15 0 15 15 0 15 0 0 -15 0 -15 15 0 15 0 0 -15 0 -15 -15 0 -15 0 0
-10 0 -10 -15 0 -15 0 0 -15 0 -15 -10 0 -10 0 0 15 0 15 -15 0 -15 0 0 10 0
10 15 0 15 0 0 15 0 15 -15 0 -15 0 0 -15 0 -15 -15 0 -15 0 0 15 0 15 -10 0
-10 0 0 -15 0 -15 -15 0 -15 0 0 15 0 15 -15 0 -15 0 0 -15 0 -15 15 0 15 0 0
-10 0 -10 -15 0 -15 0 0 -15 0 -15 -10 0 -10 0 0 15 0 15 -15 0 -15 0 0 10 0
10 15 0 15 0 0 15 0 15 -15 0 -15 0 0 -15 0 -15 -15 0 -15 0 0 15 0 15 -10 0
-10 0 0 -15 0 -15 -15 0 -15 0 0 15 0 15 -15 0 -15 0 0 -15 0 -15 15 0 15 0 0
-10 0 -10 -15 0 -15 0 0 -15 0 -15 -10 0 -10 0 0 15 0 15 -15 0 -15 0 0 10 0
10 15 0 15 0 0 15 0 15 -15 0 -15 0 0 -15 0 -15 -15 0 -15 0 0 15 0 15 -10 0
-10 0 0 -15 0 -15 -15 0 -15 0 0 -10 0 -10 15 0 15 0 0 -15 0 -15 -15 0 -15 0
0 -15 0 -15 15 0 15 0 0 15 0 15 10 0 10 0 0 -15 0 -15 15 0 15 0 0 -10 0 -10
-15 0 -15 0 0 -15 0 -15 15 0 15 0 0 15 0 15 15 0 15 0 0 -15 0 -15 10 0 10 0
0 15 0 15 15 0 15 0 0 -15 0 -15 15 0 15 0 0 15 0 15 -15 0 -15 0 0 10 0 10
15 0 15 0 0 15 0 15 10 0 10 0 0 -15 0 -15 15 0 15 0 0 -10 0 -10 -15 0 -15 0
0 -15 0 -15 15 0 15 0 0 15 0 15 15 0 15 0 0 -15 0 -15 10 0 10 0 0 15 0 15
15 0 15 0 0 -15 0 -15 15 0 15 0 0 15 0 15 -15 0 -15 0 0 10 0 10 15 0 15 0 0
15 0 15 10 0 10 0 0 -15 0 -15 15 0 15 0 0 -10 0 -10 -15 0 -15 0 0 -15 0 -15
15 0 15 0 0 15 0 15 15 0 15 0 0 -15 0 -15 10 0 10 0 0 15 0 15 15 0 15 0 0
-15 0 -15 15 0 15 0 0 15 0 15 -15 0 -15 0 0 10 0 10 15 0 15 0 0 15 0 15 10
0 10 0 0 -15 0 -15 15 0 15 0 0 -10 0 -10 -15 0 -15 0 0 -15 0 -15 15 0 15 0
0 15 0 15 15 0 15 0 0 -15 0 -15 10 0 10 0 0 15 0 15 15 0 15 0 0 -15 0 -15
15 0 15 0 0 15 0 15 -15 0 -15 0 0 10 0 10 15 0 15 0 0 15 0 15 -15 0 -15 0 0
-15 0 -15 -15 0 -15 0 0 15 0 15 -10 0 -10 0 0 -15 0 -15 -15 0 -15 0 0 15 0
15 15 0 15 0 0 15 0 15 -15 0 -15 0 0 -15 0 -15 -15 0 -15 0 0 15 0 15 15 0
15 0 0 10 0 10 -15 0 -15 0 0 15 0 15 15 0 15 0 0 -15 0 -15 11 0 10 0 15 -14
14 -15 0 -10 0 -11 15 0 15 0 0 15 0 15 15 0 15 0 0 -15 0 -15 10 0 10 0 0
-15 0 -15 15 0 15 0 0 -10 0 -10 14 0 14 0 6 13 6 12 6 -12 6 -13 14 0 14 0 0
10 0 10 14 0 14 0 6 -12 6 -13 6 13 6 12 14 0 14 0 0 -10 0 -10 11 0 10 0 15
14 14 15 0 10 0 11 15 0 15 0 0 -15 0 -15 14 0 14 0 6 -12 6 -13 6 13 6 12 14
0 14 0 0 -10 0 -10 11 0 10 0 15 14 14 15 0 10 0 11 15 0 15 0 0 15 0 15 15 0
15 0 0 -15 0 -15 -15 0 -15 0 0 -15 0 -15 14 0 14 0 6 -12 6 -13 6 13 6 12 14
0 14 0 0 15 0 15 15 0 15 0 0 14 0 14 13 6 12 6 -12 6 -13 6 0 14 0 14 -15 0
-15 0 0 15 0 15 11 0 10 0 15 14 14 15 0 10 0 11 -10 0 -10 0 0 15 0 15 -15 0
-15 0 0 10 0 10 -15 0 -15 0 0 15 0 15 -10 0 -10 0 0 15 0 15 -15 0 -15 0 0
10 0 10 -15 0 -15 0 0 15 0 15 15 0 15 0 0 15 0 15 15 0 15 0 0 -15 0 -15 -15
0 -15 0 0 -15 0 -15 14 0 14 0 6 -12 6 -13 6 13 6 12 14 0 14 0 0 -10 0 -10
-15 0 -15 0 0 -15 0 -15 15 0 15 0 0 -15 0 -15 15 0 15 0 0 15 0 15 10 0 10 0
0 14 0 14 -12 5 -13 4 9 9 9 9 4 -12 5 -13 14 0 14 0 0 25 0 25 -15 0 -15 0 0
15 0 15 15 0 15 0 0 10 0 10 -15 0 -15 0 0 15 0 15 15 0 15 0 0 80 0 80 -55 0
-55 0 0 -11 0 -10 -14 -15 -15 -14 -10 0 -11 0 0 -15 0 -15 15 0 15 0 0 -15 0
-15 -15 0 -15 0 0 15 0 15 -15 0 -15 0 0 15 0 15 15 0 15 0 0 10 0 10 15 0 15
0 0 15 0 15 10 0 10 0 0 25 0 25 -10 0 -10 0 0 15 0 15 -15 0 -15 0 0 -15 0
-15 -15 0 -15 0 0 15 0 15 15 0 15 0 0 15 0 15 15 0 15 0 0 10 0 10 -26 0 -25
0 -15 -14 -14 -15 0 -10 0 -11 -15 0 -15 0 0 15 0 15 11 0 10 0 15 14 14 15 0
10 0 11 15 0 15 0 0 15 0 15 -11 0 -10 0 -15 14 -14 15 0 10 0 11 10 0 10 0 0
11 0 10 -14 15 -15 14 -10 0 -11 0 0 15 0 15 -15 0 -15 0 0 15 0 15 15 0 15 0
0 -15 0 -15 15 0 15 0 0 15 0 15 -15 0 -15 0 0 10 0 10 -15 0 -15 0 0 15 0 15
15 0 15 0 0 15 0 15 -15 0 -15 0 0 25 0 25 -10 0 -10 0 0 25 0 25 -15 0 -15 0
0 30 0 30 -15 0 -15 0 0 -40z m60 -85 l0 -15 -15 0 -15 0 0 15 0 15 15 0 15 0
0 -15z m-640 -50 l0 -15 10 0 10 0 0 15 0 15 15 0 15 0 0 -15 0 -15 15 0 15 0
0 -15 0 -15 -15 0 -15 0 0 -10 0 -10 -15 0 -15 0 0 -15 0 -15 -10 0 -10 0 0
-40 0 -40 -15 0 -15 0 0 -55 0 -55 -15 0 -15 0 0 -25 0 -25 -10 0 -10 0 0 25
0 25 10 0 10 0 0 55 0 55 -10 0 -10 0 0 -15 0 -15 -15 0 -15 0 0 -10 0 -10 15
0 15 0 0 -15 0 -15 -15 0 -15 0 0 -15 0 -15 -15 0 -15 0 0 15 0 15 15 0 15 0
0 15 0 15 -15 0 -15 0 0 10 0 10 15 0 15 0 0 15 0 15 -15 0 -15 0 0 25 0 25
-10 0 -10 0 0 15 0 15 -15 0 -15 0 0 15 0 15 14 0 14 0 6 13 6 12 6 -12 6 -13
14 0 14 0 0 -15 0 -15 -15 0 -15 0 0 -15 0 -15 15 0 15 0 0 -25 0 -25 15 0 15
0 0 55 0 55 10 0 10 0 0 25 0 25 15 0 15 0 0 15 0 15 15 0 15 0 0 -15z m640 0
l0 -15 -15 0 -15 0 0 15 0 15 15 0 15 0 0 -15z m-30 -55 l0 -10 -15 0 -15 0 0
10 0 10 15 0 15 0 0 -10z m30 -55 l0 -15 -15 0 -15 0 0 15 0 15 15 0 15 0 0
-15z m50 -50 l0 -15 -15 0 -15 0 0 15 0 15 15 0 15 0 0 -15z m-130 -30 l0 -15
-15 0 -15 0 0 15 0 15 15 0 15 0 0 -15z m80 0 l0 -15 -15 0 -15 0 0 15 0 15
15 0 15 0 0 -15z m-880 -25 l0 -10 -15 0 -15 0 0 10 0 10 15 0 15 0 0 -10z
m930 0 l0 -10 15 0 15 0 0 -15 0 -15 -15 0 -15 0 0 15 0 15 -15 0 -15 0 0 10
0 10 15 0 15 0 0 -10z m-990 -25 l0 -15 -10 0 -10 0 0 15 0 15 10 0 10 0 0
-15z m910 0 l0 -15 -15 0 -15 0 0 15 0 15 15 0 15 0 0 -15z m-830 -30 l0 -15
-10 0 -10 0 0 15 0 15 10 0 10 0 0 -15z m60 4 l0 -10 14 -15 15 -14 10 0 11 0
0 -15 0 -15 -15 0 -15 0 0 11 0 10 -14 15 -15 14 -10 0 -11 0 0 15 0 15 15 0
15 0 0 -11z m820 -4 l0 -15 -10 0 -10 0 0 15 0 15 10 0 10 0 0 -15z m-880 -50
l0 -15 -10 0 -10 0 0 15 0 15 10 0 10 0 0 -15z m860 0 l0 -15 -15 0 -15 0 0
15 0 15 15 0 15 0 0 -15z m-800 -30 l0 -15 -15 0 -15 0 0 15 0 15 15 0 15 0 0
-15z m720 0 l0 -15 -15 0 -15 0 0 15 0 15 15 0 15 0 0 -15z m-640 -25 l0 -10
-15 0 -15 0 0 10 0 10 15 0 15 0 0 -10z m740 0 l0 -10 -10 0 -10 0 0 10 0 10
10 0 10 0 0 -10z m60 0 l0 -10 -15 0 -15 0 0 10 0 10 15 0 15 0 0 -10z m-960
-25 l0 -15 -15 0 -15 0 0 15 0 15 15 0 15 0 0 -15z m100 0 l0 -15 -10 0 -10 0
0 15 0 15 10 0 10 0 0 -15z m750 0 l0 -15 -15 0 -15 0 0 15 0 15 15 0 15 0 0
-15z m160 0 l0 -15 -15 0 -15 0 0 15 0 15 15 0 15 0 0 -15z m-830 -30 l0 -15
-10 0 -10 0 0 15 0 15 10 0 10 0 0 -15z m780 0 l0 -15 -15 0 -15 0 0 -10 0
-10 -15 0 -15 0 0 10 0 10 15 0 15 0 0 15 0 15 15 0 15 0 0 -15z m-830 -25 l0
-10 -15 0 -15 0 0 10 0 10 15 0 15 0 0 -10z m110 0 l0 -10 -15 0 -15 0 0 10 0
10 15 0 15 0 0 -10z m610 0 l0 -10 -15 0 -15 0 0 10 0 10 15 0 15 0 0 -10z
m-800 -25 l0 -15 -15 0 -15 0 0 15 0 15 15 0 15 0 0 -15z m130 0 l0 -15 -10 0
-10 0 0 15 0 15 10 0 10 0 0 -15z m940 0 l0 -15 -15 0 -15 0 0 -15 0 -15 -15
0 -15 0 0 15 0 15 15 0 15 0 0 15 0 15 15 0 15 0 0 -15z m-880 -30 l0 -15 -15
0 -15 0 0 15 0 15 15 0 15 0 0 -15z m50 0 l0 -15 -15 0 -15 0 0 15 0 15 15 0
15 0 0 -15z m240 0 l0 -15 -11 0 -10 0 -15 -14 -14 -15 0 -10 0 -11 -15 0 -15
0 0 15 0 15 11 0 10 0 15 14 14 15 0 10 0 11 15 0 15 0 0 -15z m270 0 l0 -15
-15 0 -15 0 0 15 0 15 15 0 15 0 0 -15z m100 0 l0 -15 -10 0 -10 0 0 15 0 15
10 0 10 0 0 -15z m60 1 l0 -14 13 -5 12 -4 -9 -9 -9 -9 -4 13 -5 12 -14 0 -14
0 0 15 0 15 15 0 15 0 0 -14z m-110 -26 l0 -10 -15 0 -15 0 0 10 0 10 15 0 15
0 0 -10z m290 0 l0 -10 -10 0 -10 0 0 -15 0 -15 -15 0 -15 0 0 15 0 15 15 0
15 0 0 10 0 10 10 0 10 0 0 -10z m-820 -25 l0 -15 -15 0 -15 0 0 15 0 15 15 0
15 0 0 -15z m580 0 l0 -15 -10 0 -10 0 0 15 0 15 10 0 10 0 0 -15z m160 0 l0
-15 -10 0 -10 0 0 -15 0 -15 -15 0 -15 0 0 15 0 15 15 0 15 0 0 15 0 15 10 0
10 0 0 -15z m-930 -30 l0 -15 -15 0 -15 0 0 15 0 15 15 0 15 0 0 -15z m110 0
l0 -15 -15 0 -15 0 0 15 0 15 15 0 15 0 0 -15z m180 0 l0 -15 -10 0 -10 0 0
15 0 15 10 0 10 0 0 -15z m560 4 l0 -10 -14 -15 -15 -14 -10 0 -11 0 0 10 0
10 15 0 15 0 0 15 0 15 10 0 10 0 0 -11z m-610 -29 l0 -10 -15 0 -15 0 0 10 0
10 15 0 15 0 0 -10z m110 0 l0 -10 -15 0 -15 0 0 10 0 10 15 0 15 0 0 -10z
m290 0 l0 -10 -15 0 -15 0 0 10 0 10 15 0 15 0 0 -10z m110 0 l0 -10 -15 0
-15 0 0 10 0 10 15 0 15 0 0 -10z m240 0 l0 -10 -15 0 -15 0 0 -15 0 -15 -15
0 -15 0 0 15 0 15 15 0 15 0 0 10 0 10 15 0 15 0 0 -10z m-830 -25 l0 -15 -15
0 -15 0 0 15 0 15 15 0 15 0 0 -15z m530 0 l0 -15 -10 0 -10 0 0 15 0 15 10 0
10 0 0 -15z m80 -30 l0 -15 -10 0 -10 0 0 15 0 15 10 0 10 0 0 -15z m60 0 l0
-15 -15 0 -15 0 0 15 0 15 15 0 15 0 0 -15z m-560 -50 l0 -15 -15 0 -15 0 0
15 0 15 15 0 15 0 0 -15z m370 0 l0 -15 -15 0 -15 0 0 15 0 15 15 0 15 0 0
-15z m110 0 l0 -15 -15 0 -15 0 0 15 0 15 15 0 15 0 0 -15z m80 0 l0 -15 10 0
10 0 0 -15 0 -15 -10 0 -10 0 0 15 0 15 -15 0 -15 0 0 15 0 15 15 0 15 0 0
-15z m-140 -30 l0 -15 -10 0 -10 0 0 15 0 15 10 0 10 0 0 -15z m80 -25 l0 -10
-10 0 -10 0 0 10 0 10 10 0 10 0 0 -10z m140 0 l0 -10 -15 0 -15 0 0 10 0 10
15 0 15 0 0 -10z m-350 -25 l0 -15 -15 0 -15 0 0 15 0 15 15 0 15 0 0 -15z
m270 0 l0 -15 -15 0 -15 0 0 15 0 15 15 0 15 0 0 -15z m-190 -30 l0 -15 -15 0
-15 0 0 15 0 15 15 0 15 0 0 -15z m110 0 l0 -15 -15 0 -15 0 0 15 0 15 15 0
15 0 0 -15z m160 0 l0 -15 -15 0 -15 0 0 -10 0 -10 -15 0 -15 0 0 10 0 10 15
0 15 0 0 15 0 15 15 0 15 0 0 -15z m50 0 l0 -15 -15 0 -15 0 0 15 0 15 15 0
15 0 0 -15z m-160 -25 l0 -10 -15 0 -15 0 0 10 0 10 15 0 15 0 0 -10z m-80
-25 l0 -15 -15 0 -15 0 0 15 0 15 15 0 15 0 0 -15z m210 0 l0 -15 -10 0 -10 0
0 15 0 15 10 0 10 0 0 -15z m-340 -30 l0 -15 -15 0 -15 0 0 15 0 15 15 0 15 0
0 -15z m50 0 l0 -15 -15 0 -15 0 0 15 0 15 15 0 15 0 0 -15z m190 0 l0 -15
-15 0 -15 0 0 15 0 15 15 0 15 0 0 -15z m50 0 l0 -15 -15 0 -15 0 0 15 0 15
15 0 15 0 0 -15z m-1070 -25 l0 -10 15 0 15 0 0 -15 0 -15 15 0 15 0 0 -15 0
-15 10 0 10 0 0 15 0 15 15 0 15 0 0 15 0 15 14 0 14 0 6 13 6 12 6 -12 6 -13
14 0 14 0 0 -15 0 -15 15 0 15 0 0 -15 0 -15 10 0 10 0 0 15 0 15 15 0 15 0 0
15 0 15 14 0 14 0 6 13 6 12 6 -12 6 -13 14 0 14 0 0 -15 0 -15 15 0 15 0 0
-15 0 -15 10 0 10 0 0 15 0 15 15 0 15 0 0 15 0 15 14 0 14 0 5 13 4 12 9 -9
9 -9 -12 -4 -13 -5 0 -14 0 -14 -15 0 -15 0 0 -15 0 -15 -14 0 -14 0 -6 -12
-6 -13 -6 13 -6 12 -14 0 -14 0 0 15 0 15 -15 0 -15 0 0 15 0 15 -10 0 -10 0
0 -15 0 -15 -15 0 -15 0 0 -15 0 -15 -14 0 -14 0 -6 -12 -6 -13 -6 13 -6 12
-14 0 -14 0 0 15 0 15 -15 0 -15 0 0 15 0 15 -10 0 -10 0 0 -15 0 -15 -15 0
-15 0 0 -15 0 -15 -14 0 -14 0 -6 -12 -6 -13 -6 13 -6 12 -14 0 -14 0 0 15 0
15 -15 0 -15 0 0 15 0 15 -10 0 -10 0 0 10 0 10 10 0 10 0 0 -10z m880 0 l0
-10 -10 0 -10 0 0 10 0 10 10 0 10 0 0 -10z m80 0 l0 -10 -10 0 -10 0 0 10 0
10 10 0 10 0 0 -10z m190 0 l0 -10 -15 0 -15 0 0 10 0 10 15 0 15 0 0 -10z
m-430 -25 l0 -15 -10 0 -10 0 0 15 0 15 10 0 10 0 0 -15z m80 0 l0 -15 -10 0
-10 0 0 15 0 15 10 0 10 0 0 -15z m220 0 l0 -15 -15 0 -15 0 0 15 0 15 15 0
15 0 0 -15z m-460 -55 l0 -10 -10 0 -10 0 0 10 0 10 10 0 10 0 0 -10z"/>
<path d="M320 1015 l0 -25 -15 0 -15 0 0 -55 0 -55 15 0 15 0 0 55 0 55 15 0
15 0 0 25 0 25 -15 0 -15 0 0 -25z"/>
<path d="M370 1025 l0 -15 15 0 15 0 0 15 0 15 -15 0 -15 0 0 -15z"/>
<path d="M190 975 l0 -15 10 0 10 0 0 15 0 15 -10 0 -10 0 0 -15z"/>
<path d="M450 1080 l0 -10 15 0 15 0 0 10 0 10 -15 0 -15 0 0 -10z"/>
<path d="M530 1055 l0 -15 15 0 15 0 0 15 0 15 -15 0 -15 0 0 -15z"/>
<path d="M480 1025 l0 -15 15 0 15 0 0 15 0 15 -15 0 -15 0 0 -15z"/>
<path d="M590 1025 l0 -15 10 0 10 0 0 15 0 15 -10 0 -10 0 0 -15z"/>
<path d="M523 995 l-13 -14 0 -11 0 -10 10 0 10 0 0 -15 0 -15 15 0 15 0 0 15
0 15 -15 0 -15 0 0 15 0 15 15 0 15 0 0 10 0 10 -12 0 -13 -1 -12 -14z"/>
<path d="M590 975 l0 -15 10 0 10 0 0 15 0 15 -10 0 -10 0 0 -15z"/>
<path d="M480 920 l0 -10 -15 0 -15 0 0 -30 0 -30 -10 0 -10 0 0 -50 0 -50
-15 0 -15 0 0 -15 0 -15 15 0 15 0 0 -15 0 -15 -15 0 -15 0 0 -10 0 -10 11 0
10 0 15 14 14 15 0 10 0 11 15 0 15 0 0 -15 0 -15 15 0 15 0 0 -25 0 -25 -15
0 -15 0 0 -15 0 -15 15 0 15 0 0 15 0 15 10 0 10 0 0 25 0 25 15 0 15 0 0 -25
0 -25 15 0 15 0 0 25 0 25 10 0 10 0 0 -25 0 -25 -10 0 -10 0 0 -15 0 -15 -15
0 -15 0 0 15 0 15 -15 0 -15 0 0 -14 0 -14 -12 -6 -13 -6 13 -6 12 -6 0 -14 0
-14 15 0 15 0 0 15 0 15 11 0 10 0 15 14 14 15 0 10 0 11 15 0 15 0 0 25 0 25
15 0 15 0 0 40 0 40 -15 0 -15 0 0 15 0 15 -15 0 -15 0 0 -11 0 -10 -14 -15
-15 -14 -10 0 -11 0 0 10 0 10 15 0 15 0 0 29 0 29 13 6 12 6 -12 6 -13 6 0
14 0 14 -15 0 -15 0 0 15 0 15 -15 0 -15 0 0 -15 0 -15 -10 0 -10 0 0 -15 0
-15 -15 0 -15 0 0 30 0 30 15 0 15 0 0 10 0 10 -15 0 -15 0 0 -10z m80 -55 l0
-15 15 0 15 0 0 -10 0 -10 -15 0 -15 0 0 -30 0 -30 -15 0 -15 0 0 -10 0 -10
-10 0 -10 0 0 25 0 25 10 0 10 0 0 14 0 14 -12 6 -13 6 13 6 12 6 0 14 0 14
15 0 15 0 0 -15z m-80 -25 l0 -10 15 0 15 0 0 -15 0 -15 -15 0 -15 0 0 -25 0
-25 15 0 15 0 0 -15 0 -15 10 0 10 0 0 15 0 15 15 0 15 0 0 -15 0 -15 15 0 15
0 0 -15 0 -15 -15 0 -15 0 0 15 0 15 -15 0 -15 0 0 -15 0 -15 -10 0 -10 0 0
15 0 15 -15 0 -15 0 0 15 0 15 -15 0 -15 0 0 -15 0 -15 -10 0 -10 0 0 15 0 15
10 0 10 0 0 50 0 50 15 0 15 0 0 -10z m160 -110 l0 -40 -15 0 -15 0 0 15 0 15
-10 0 -10 0 0 10 0 11 13 14 12 14 13 1 12 0 0 -40z"/>
<path d="M590 920 l0 -10 10 0 10 0 0 -15 0 -15 15 0 15 0 0 15 0 15 -15 0
-15 0 0 10 0 10 -10 0 -10 0 0 -10z"/>
<path d="M1250 306 l0 -14 -12 -6 -13 -6 13 -6 12 -6 0 -14 0 -14 15 0 15 0 0
15 0 15 -15 0 -15 0 0 10 0 10 15 0 15 0 0 15 0 15 -15 0 -15 0 0 -14z"/>
<path d="M1243 195 l-13 -14 0 -11 0 -10 10 0 10 0 0 -15 0 -15 15 0 15 0 0
40 0 40 -12 0 -13 -1 -12 -14z"/>
<path d="M450 146 l0 -14 -12 -5 -13 -4 9 -9 9 -9 4 13 5 12 14 0 14 0 0 15 0
15 -15 0 -15 0 0 -14z"/>
<path d="M110 120 l0 -10 10 0 10 0 0 10 0 10 -10 0 -10 0 0 -10z"/>
<path d="M270 120 l0 -10 10 0 10 0 0 10 0 10 -10 0 -10 0 0 -10z"/>
<path d="M1250 95 l0 -15 -10 0 -10 0 0 -15 0 -15 -15 0 -15 0 0 -10 0 -10
-15 0 -15 0 0 -15 0 -15 15 0 15 0 0 15 0 15 15 0 15 0 0 -15 0 -15 10 0 10 0
0 15 0 15 15 0 15 0 0 10 0 10 -15 0 -15 0 0 15 0 15 15 0 15 0 0 15 0 15 -15
0 -15 0 0 -15z m0 -55 l0 -10 -10 0 -10 0 0 10 0 10 10 0 10 0 0 -10z"/>
<path d="M30 40 l0 -10 -15 0 -15 0 0 -15 0 -15 15 0 15 0 0 15 0 15 10 0 10
0 0 10 0 10 -10 0 -10 0 0 -10z"/>
<path d="M190 40 l0 -10 10 0 10 0 0 10 0 10 -10 0 -10 0 0 -10z"/>
<path d="M350 40 l0 -10 10 0 10 0 0 10 0 10 -10 0 -10 0 0 -10z"/>
<path d="M510 40 l0 -10 10 0 10 0 0 10 0 10 -10 0 -10 0 0 -10z"/>
<path d="M670 40 l0 -10 10 0 10 0 0 -15 0 -15 15 0 15 0 0 15 0 15 -15 0 -15
0 0 10 0 10 -10 0 -10 0 0 -10z"/>
<path d="M923 35 l-13 -14 0 -11 0 -10 10 0 10 0 0 15 0 15 15 0 15 0 0 -15 0
-15 15 0 15 0 0 15 0 15 -15 0 -15 0 0 10 0 10 -12 0 -13 -1 -12 -14z"/>
<path d="M1083 35 l-13 -14 0 -11 0 -10 10 0 10 0 0 15 0 15 15 0 15 0 0 -15
0 -15 15 0 15 0 0 15 0 15 -15 0 -15 0 0 10 0 10 -12 0 -13 -1 -12 -14z"/>
<path d="M750 15 l0 -15 10 0 10 0 0 15 0 15 -10 0 -10 0 0 -15z"/>
<path d="M800 15 l0 -15 15 0 15 0 0 15 0 15 -15 0 -15 0 0 -15z"/>
<path d="M850 15 l0 -15 15 0 15 0 0 15 0 15 -15 0 -15 0 0 -15z"/>
<path d="M1010 15 l0 -15 15 0 15 0 0 15 0 15 -15 0 -15 0 0 -15z"/>
</g>
</svg>
