<?xml version="1.0" standalone="no"?>
<!DOCTYPE svg PUBLIC "-//W3C//DTD SVG 20010904//EN"
 "http://www.w3.org/TR/2001/REC-SVG-20010904/DTD/svg10.dtd">
<svg version="1.0" xmlns="http://www.w3.org/2000/svg"
 width="468pt" height="468pt" viewBox="0 0 468 468"
 preserveAspectRatio="xMidYMid meet">
<metadata>
Created by potrace 1.8, written by Peter Selinger 2001-2007
</metadata>
<g transform="translate(0,468) scale(0.365625,-0.365625)"
fill="#000000" stroke="none">
<path d="M567 1264 l5 -14 9 0 9 0 0 9 0 9 -14 5 -15 6 6 -15z"/>
<path d="M808 1273 l-18 -4 -6 -24 -6 -24 -40 -6 -39 -7 -6 6 -6 6 16 0 17 0
0 10 0 10 -17 0 -18 0 15 10 14 9 -7 8 -8 7 -7 -10 -7 -11 -15 -6 -15 -5 18
-1 17 -1 0 -10 0 -10 -20 0 -20 0 0 10 0 10 -15 0 -14 0 5 18 6 17 -9 -11 -8
-11 -22 -7 -23 -7 0 -15 0 -14 43 5 42 5 -15 -6 -15 -7 -5 -7 -5 -7 -38 -7
-39 -7 -5 20 -5 21 -9 0 -9 0 0 -14 0 -15 -9 -5 -9 -6 5 20 5 20 -4 0 -5 0
-28 -26 -28 -26 14 -9 14 -8 3 14 3 15 9 0 8 0 11 -27 10 -28 -2 30 -2 30 15
0 15 0 1 -15 2 -15 1 -12 1 -13 14 0 14 0 4 9 3 8 40 6 40 6 -17 -5 -18 -5 0
-10 0 -9 15 0 15 0 0 9 0 10 23 4 22 4 -22 2 -23 1 0 10 0 10 20 0 20 0 0 -10
0 -10 25 0 25 0 0 10 0 10 20 0 20 0 0 -9 0 -10 -22 -4 -23 -4 23 -2 22 -1 0
-10 0 -10 20 0 20 0 0 10 0 10 25 0 25 0 0 -10 0 -10 -27 0 -26 0 6 -6 6 -6
36 6 35 7 0 9 0 9 -12 4 -13 4 20 -3 19 -3 23 5 23 6 0 8 0 9 -17 4 -18 5 18
1 17 1 0 10 0 10 15 0 15 0 0 -15 0 -14 15 5 15 6 0 8 0 9 -17 5 -18 5 20 -2
20 -3 -1 -17 -2 -17 9 6 9 5 -6 -18 -6 -18 11 15 11 15 9 -14 9 -13 4 13 5 14
9 -8 8 -8 -13 -9 -14 -8 -14 5 -13 5 -6 -17 -7 -17 -8 14 -9 13 -10 -15 -9
-15 12 -4 12 -4 14 -14 13 -14 -28 6 -29 5 15 -7 15 -6 14 -15 15 -15 -24 8
-25 8 -3 8 -4 9 -24 0 -24 0 0 -9 0 -10 27 -3 26 -3 5 -12 4 -13 -15 0 -15 0
-4 9 -3 10 -30 5 -30 6 15 -7 15 -6 15 -15 15 -15 -30 7 -30 8 -5 8 -5 8 -25
5 -25 4 13 -4 12 -4 0 -10 0 -9 -25 0 -25 0 0 10 0 10 -20 0 -20 0 0 -10 0
-10 23 -1 22 -1 -30 -9 -30 -9 -25 6 -25 6 13 5 12 5 0 8 0 7 -40 7 -40 6 0
10 0 10 15 0 15 0 0 -10 0 -10 25 0 25 0 0 10 0 10 -11 0 -10 0 13 14 14 14
20 5 19 5 -22 1 -23 1 0 10 0 10 -25 0 -25 0 0 -9 0 -10 18 -4 17 -5 -17 -1
-18 -1 0 -10 0 -10 -15 0 -15 0 0 9 0 10 18 3 17 4 -65 0 -65 1 18 -4 17 -4 0
-10 0 -9 -14 0 -14 0 -4 11 -4 12 -64 1 -65 1 1 28 1 27 1 21 2 21 16 -6 15
-6 -7 12 -7 11 18 13 19 14 -7 7 -7 7 -14 -19 -13 -18 -13 8 -13 8 8 -13 8
-13 -18 -14 -19 -13 -1 -39 0 -38 -12 4 -13 5 0 9 0 9 -15 0 -15 0 0 -9 0 -9
13 -5 12 -5 -17 -1 -18 -1 0 15 0 15 -25 0 -25 0 0 -16 0 -16 15 6 15 5 0 -14
0 -15 -20 0 -20 0 0 15 0 15 -15 0 -16 0 -6 -17 -7 -18 -12 -12 -13 -13 -6 0
-7 0 -24 -22 -24 -23 0 -12 0 -13 -10 0 -10 0 0 -45 0 -45 10 0 10 0 0 -12 0
-13 24 -22 24 -23 11 0 11 0 0 -10 0 -9 50 -7 50 -7 0 -7 0 -7 -97 -11 -98
-11 -3 -11 -4 -10 -12 0 -13 0 -29 -26 -28 -27 -2 -30 -2 -30 -16 -9 -16 -9 0
-9 0 -10 18 -1 17 -1 -12 -5 -13 -5 0 -10 0 -9 13 -13 13 -14 32 -7 32 -7 0
-9 0 -9 -50 0 -50 0 0 -255 0 -255 640 0 640 0 0 255 0 255 -255 0 -255 0 0 9
0 8 173 7 172 8 3 9 4 9 29 0 29 0 1 18 1 17 5 -12 5 -13 24 0 24 0 0 9 0 9
-15 6 -15 5 0 11 0 11 15 -15 16 -15 14 5 15 6 0 8 0 8 -15 6 -15 5 0 15 0 14
-12 5 -13 4 8 9 9 9 9 -18 10 -17 14 0 13 0 -5 20 -5 20 -8 0 -8 0 -5 14 -6
14 20 -5 19 -5 -6 16 -6 16 -24 6 -24 6 0 7 0 7 -46 12 -46 12 -12 13 -13 13
12 11 12 11 31 7 32 7 0 9 0 9 13 0 12 0 14 9 13 8 4 74 3 74 -6 33 -5 32 -14
0 -14 0 0 10 0 10 -11 0 -10 0 -13 -12 -12 -13 -7 -19 -7 -18 -28 6 -27 7 15
-10 14 -10 -7 -7 -7 -7 -32 -1 -33 -1 -6 -9 -7 -8 -18 11 -19 10 23 1 22 0 0
10 0 10 14 0 14 0 5 -12 4 -13 9 8 8 8 -14 9 -15 10 13 0 12 0 0 10 0 10 -25
6 -25 6 0 8 0 8 15 6 16 6 16 -20 17 -20 11 0 10 0 -15 10 -15 10 15 10 15 9
3 -14 3 -15 9 0 8 0 5 22 6 22 -4 5 -5 4 0 -11 0 -12 -10 0 -10 0 0 15 0 15
-14 0 -14 0 -6 15 -5 14 15 16 15 15 -11 0 -11 0 -5 -15 -6 -15 -9 0 -9 0 0
14 0 14 13 5 12 4 -8 9 -8 8 -8 -13 -9 -13 -4 13 -5 14 -9 -9 -9 -9 13 -4 12
-5 0 -14 0 -14 -8 0 -7 0 -13 20 -13 21 6 8 5 9 -20 -5 -20 -5 6 18 6 19 -11
-15 -11 -15 -10 15 -10 15 0 -13 0 -13 15 -5 15 -6 0 -9 0 -9 -15 0 -15 0 0
10 0 10 -14 0 -15 0 -15 16 -16 15 0 -17 0 -17 -36 6 -36 6 -6 6 -6 6 14 9 15
10 -10 -1 -10 -1 -17 -5z m20 -29 l22 -6 0 -8 0 -9 -17 -5 -18 -5 40 6 40 6 3
8 4 9 14 0 14 0 0 -10 0 -10 18 -1 17 -1 -17 -5 -18 -4 0 -10 0 -9 -17 -1 -18
-1 18 -5 17 -4 0 -10 0 -9 -15 0 -15 0 0 10 0 10 -14 0 -14 0 -4 -9 -3 -9 -40
-4 -40 -5 18 4 17 4 0 9 0 8 -32 4 -33 5 -63 -1 -63 -2 -7 -10 -7 -11 -40 -6
-40 -6 18 5 17 5 0 8 0 8 40 7 40 6 0 10 0 10 20 0 20 0 0 -10 0 -10 25 0 25
0 0 9 0 9 40 7 40 7 0 8 0 9 -17 4 -18 5 10 1 10 1 23 -6z m292 -103 l0 -9
-14 -5 -15 -6 6 15 5 14 9 0 9 0 0 -9z m-660 -58 l0 -13 -29 0 -29 0 -6 13 -6
12 -6 -12 -6 -13 -19 0 -19 0 0 8 0 9 6 6 7 6 53 -1 54 -2 0 -13z m76 2 l6
-15 14 0 14 0 0 10 0 10 15 0 15 0 0 -9 0 -8 34 -6 34 -5 36 -35 36 -35 0 -41
0 -41 -10 0 -10 0 0 -13 0 -13 -21 -17 -20 -18 -30 -6 -29 -5 0 -9 0 -9 -15 0
-15 0 0 10 0 10 15 0 15 0 0 15 0 15 -12 0 -13 0 15 10 14 9 -7 7 -7 7 -6 -6
-7 -6 -1 -23 -1 -23 -17 1 -16 2 5 -14 5 -13 -38 -7 -37 -7 -105 6 -105 6 -6
9 -6 9 -28 7 -27 6 -20 17 -20 17 0 13 0 13 -10 0 -10 0 0 45 0 45 10 0 10 0
0 13 0 13 20 17 20 17 27 6 28 7 7 11 8 11 0 -12 0 -13 15 0 15 0 0 -15 0 -15
-52 -1 -53 -1 18 -5 17 -4 0 -13 0 -12 20 -17 20 -17 0 10 0 10 25 0 24 0 10
18 11 17 7 -11 8 -11 15 -6 15 -5 -17 -1 -18 -1 0 -10 0 -10 -13 0 -14 0 5
-30 4 -31 29 -6 29 -5 0 -9 0 -9 -29 0 -29 0 -4 10 -3 9 -45 6 -45 7 15 -11
15 -11 -15 -10 -15 -10 43 5 42 5 0 -17 0 -18 10 15 10 15 8 -11 7 -10 17 -7
17 -6 -6 15 -5 14 15 0 15 0 5 -12 5 -13 1 18 1 19 13 -5 12 -4 -1 -16 -2 -15
13 4 12 5 17 -17 17 -16 7 7 7 8 -12 4 -13 5 13 13 13 13 20 5 19 5 -22 1 -23
1 0 10 0 10 -58 0 -58 0 -17 20 -17 20 0 9 0 10 20 6 20 6 10 -6 10 -6 -1 -12
-1 -12 -5 13 -5 12 -9 0 -9 0 0 -11 0 -10 14 -15 15 -14 44 0 45 0 6 16 6 16
0 8 0 9 -12 4 -13 4 25 -4 25 -5 3 -3 4 -3 -7 -21 -6 -20 -17 -4 -17 -5 22 -1
22 -1 15 16 16 15 0 15 0 14 10 0 10 0 0 -10 0 -10 16 0 16 0 5 -20 5 -20 13
0 13 0 5 -12 4 -13 7 7 8 6 5 41 5 40 -6 25 -6 26 -28 7 -27 7 -12 -2 -13 -3
0 16 0 15 -7 0 -8 0 -22 6 -23 6 0 -21 0 -21 -55 0 -55 0 0 20 0 20 35 0 35 0
0 9 0 9 -12 5 -13 5 13 1 13 1 5 -15z m534 -5 l0 -10 -15 0 -15 0 0 10 0 10
15 0 15 0 0 -10z m-107 -52 l37 2 0 -15 0 -15 -15 0 -15 0 0 13 0 12 -10 -15
-9 -15 -103 -1 -103 -1 23 4 22 4 0 9 0 9 43 10 42 9 25 -6 25 -6 38 2z m-680
-22 l6 -15 -15 6 -14 5 0 9 0 9 9 0 9 0 5 -14z m337 4 l0 -10 -10 0 -10 0 0
10 0 10 10 0 10 0 0 -10z m-163 -16 l-6 -6 -13 5 -13 5 19 1 19 1 -6 -6z m140
-14 l5 -15 -9 11 -8 11 -15 6 -15 7 19 -3 19 -2 4 -15z m56 0 l5 -20 -13 0
-14 0 -6 10 -6 10 6 10 6 10 8 0 9 0 5 -20z m413 -30 l7 -50 8 0 9 0 0 -25 0
-25 -10 0 -10 0 0 -15 0 -16 -14 -5 -15 -6 -12 -49 -13 -49 -7 0 -8 0 -4 -17
-5 -18 -1 33 -1 32 -10 0 -10 0 0 -42 0 -43 -8 -11 -7 -11 -22 -7 -23 -7 0 -9
0 -8 -27 -7 -28 -7 -6 -10 -7 -11 -79 -3 -79 -3 -14 9 -14 9 7 8 8 7 9 -14 10
-15 0 13 0 13 -15 5 -15 6 0 9 0 9 15 0 14 0 -3 13 -3 12 4 -7 5 -8 44 0 44 0
0 13 0 12 9 -14 9 -13 21 21 21 21 0 5 0 5 -15 0 -15 0 0 -10 0 -10 -34 0 -34
0 -5 13 -5 12 -11 -15 -11 -15 0 18 0 18 80 -2 80 -2 0 -12 0 -13 -12 -6 -13
-5 30 4 30 5 -12 -6 -13 -6 0 -9 0 -9 9 0 9 0 6 15 5 14 -14 15 -15 15 0 10 0
11 -17 1 -18 1 -9 -1 -8 -2 -19 6 -19 6 0 15 0 14 25 0 25 0 0 9 0 9 21 5 21
6 -4 18 -4 18 -26 -2 -26 -2 -7 60 -7 60 6 6 6 6 0 -16 0 -17 13 -1 12 -1 60
1 60 2 3 10 4 9 23 0 23 0 5 -12 5 -13 1 13 1 13 -15 5 -15 6 0 9 0 9 15 0 15
0 0 -12 0 -11 6 6 7 7 -13 16 -14 16 15 9 14 9 7 0 7 0 7 -50z m86 7 l-3 -38
-19 -19 -20 -20 -5 0 -5 0 0 15 0 15 10 0 10 0 6 25 6 25 9 0 9 0 0 15 0 15
-9 0 -9 0 -7 -30 -7 -30 -9 0 -9 0 0 29 0 29 13 5 12 6 15 -3 15 -2 -3 -37z
m-462 18 l0 -14 -15 5 -15 6 0 9 0 9 15 0 15 0 0 -15z m-200 -25 l0 -10 -15 0
-15 0 0 10 0 10 15 0 15 0 0 -10z m190 -2 l0 -13 10 15 9 14 8 -7 7 -8 -10 -7
-11 -7 -6 -15 -5 -15 -1 18 -1 17 -10 0 -10 0 0 10 0 10 10 0 10 0 0 -12z
m110 -32 l0 -44 9 -4 9 -3 4 -45 3 -45 -45 2 -45 2 -32 2 -32 1 12 12 12 12
17 7 17 6 -6 -15 -5 -14 16 0 16 0 0 15 0 14 18 -6 17 -7 -17 18 -18 17 1 22
1 22 5 -17 4 -18 10 0 9 0 0 55 0 55 10 0 10 0 0 -44z m120 24 l28 0 5 13 4
12 9 -8 8 -8 -14 -10 -15 -9 -29 2 -29 3 -3 13 -2 13 5 -11 5 -10 28 0z m330
-19 l0 -9 -14 -5 -15 -6 6 15 5 14 9 0 9 0 0 -9z m-930 -31 l0 -10 -10 0 -10
0 0 10 0 10 10 0 10 0 0 -10z m200 -30 l0 -10 -10 0 -10 0 0 10 0 10 10 0 10
0 0 -10z m138 -47 l-16 -4 -5 -14 -6 -13 6 -22 6 -21 23 5 23 6 10 -17 11 -18
11 15 11 15 -5 -15 -4 -15 -24 -4 -24 -3 -7 -12 -8 -11 0 11 0 12 -26 6 -26 7
-17 16 -16 17 -3 -17 -3 -17 -10 0 -9 0 0 14 0 14 13 5 12 5 -14 10 -14 10 22
7 21 6 10 -6 9 -6 18 21 17 20 16 -1 15 -1 -17 -5z m222 -18 l0 -15 -15 0 -15
0 0 15 0 15 15 0 15 0 0 -15z m-380 -19 l-20 -9 0 -9 0 -8 15 0 15 0 0 -17 0
-18 -10 15 -10 15 -10 -15 -10 -15 0 13 0 12 -10 0 -10 0 0 -15 0 -15 25 0 25
0 0 -9 0 -9 -12 -5 -13 -5 13 -1 13 -1 5 15 6 14 12 -12 13 -11 -12 -13 -13
-12 -76 -7 -76 -7 0 -8 0 -9 -14 0 -14 0 -6 13 -5 12 5 -26 5 -26 -20 -6 -21
-5 0 -16 0 -16 4 0 4 0 31 31 31 31 0 -11 0 -11 10 0 10 0 0 15 0 15 45 0 45
0 0 10 0 10 21 0 21 0 -5 -13 -5 -13 22 -1 21 -1 -12 5 -13 5 0 9 0 9 10 0 11
0 13 -12 13 -12 -13 -13 -12 -12 -44 -7 -43 -7 -6 -10 -7 -9 -26 0 -26 0 0
-14 0 -14 -15 0 -15 0 0 -17 0 -18 -11 15 -11 15 -5 -12 -5 -13 -18 0 -18 0
-5 13 -5 12 -10 -13 -9 -14 -6 16 -6 16 -11 0 -10 0 0 -15 0 -15 -16 0 -15 0
-17 17 -17 17 -3 -17 -3 -17 -10 0 -9 0 0 11 0 10 15 16 15 15 -6 9 -6 10 6
35 7 34 25 6 24 6 6 23 6 23 25 7 25 6 18 -6 18 -6 5 21 6 21 27 -3 27 -3 5
-12 4 -13 -19 -7 -18 -7 -7 -10 -7 -11 -44 0 -44 0 5 -17 4 -17 29 1 29 1 1
16 1 16 5 -17 4 -18 14 0 13 0 -2 18 -1 17 56 0 56 0 -14 13 -13 13 0 15 0 14
-9 0 -10 0 -4 -17 -5 -18 -1 23 -1 22 15 0 15 0 0 9 0 9 -27 9 -27 9 67 0 67
-1 -20 -9z m614 -1 l20 -15 -6 -6 -6 -6 -21 21 -21 21 8 0 7 -1 19 -14z m-824
-15 l0 -10 -10 0 -10 0 0 10 0 10 10 0 10 0 0 -10z m880 -94 l0 -7 -50 49 -50
49 0 7 0 7 50 -49 50 -49 0 -7z m-382 61 l3 -17 -20 0 -21 0 0 13 0 14 7 7 7
6 10 -3 11 -4 3 -16z m-658 8 l0 -5 -21 -21 -21 -21 -5 5 -5 5 19 20 18 20 8
1 7 1 0 -5z m30 -5 l0 -10 -10 0 -10 0 0 10 0 10 10 0 10 0 0 -10z m1000 0 l0
-10 -10 0 -10 0 0 10 0 10 10 0 10 0 0 -10z m-576 -32 l13 -12 -13 -13 -13
-13 -10 0 -11 0 0 9 0 9 -6 16 -6 16 16 0 17 0 13 -12z m49 -2 l6 -15 -15 6
-14 5 0 9 0 9 9 0 9 0 5 -14z m-530 -35 l-28 -29 -4 4 -4 3 24 26 24 25 8 0 8
0 -28 -29z m563 -26 l-1 -45 -12 0 -13 0 0 15 0 15 13 1 12 1 -12 5 -13 5 0 9
0 10 13 14 12 14 1 1 2 0 -2 -45z m-56 6 l0 -9 -6 -16 -6 -16 -9 0 -9 0 0 25
0 25 15 0 15 0 0 -9z m-60 -98 l0 -13 -15 0 -15 0 0 -10 0 -10 -20 0 -20 0 0
9 0 9 8 5 7 4 -12 -3 -13 -3 0 19 0 20 20 0 20 0 0 10 0 10 20 -17 20 -17 0
-13z m50 36 l0 -10 -15 -15 -15 -15 0 15 0 16 -10 0 -10 0 0 10 0 10 25 0 25
0 0 -11z m-139 -49 l9 0 0 -10 0 -10 -15 0 -15 0 1 28 1 27 5 -17 4 -18 10 0z
m-47 -5 l-6 -15 -9 0 -9 0 0 9 0 9 13 5 12 5 2 1 2 1 -5 -15z"/>
<path d="M888 1213 l-18 -4 0 -10 0 -9 -25 0 -25 0 0 10 0 10 -20 0 -20 0 0
-9 0 -9 34 -6 35 -7 25 7 26 6 0 8 0 9 18 4 17 5 -15 0 -15 0 -17 -5z"/>
<path d="M213 997 l2 -23 18 -18 17 -17 0 11 0 11 16 -15 15 -16 4 0 4 0 -5
15 -6 15 -7 1 -6 1 -18 3 -19 3 -6 7 -6 6 11 7 11 7 -13 12 -14 13 2 -23z"/>
<path d="M630 896 l0 -15 18 -4 17 -5 -17 -1 -18 -1 0 -10 0 -10 15 0 15 0 0
10 0 10 18 1 17 1 -15 5 -15 6 -8 13 -8 14 -9 0 -10 0 0 -14z"/>
<path d="M848 1023 l-28 -4 0 -10 0 -9 25 0 25 0 0 10 0 10 14 0 14 0 5 -10 6
-10 -3 12 -3 13 -14 1 -14 1 -27 -4z"/>
<path d="M1026 835 l-15 -15 -10 0 -11 0 0 -15 0 -15 -9 0 -9 0 -4 9 -3 9 -14
-15 -14 -16 14 5 14 5 16 -19 17 -18 0 25 0 26 6 7 7 6 10 -14 11 -15 -5 15
-4 15 20 18 20 17 -11 0 -11 0 -15 -15z"/>
<path d="M880 760 l0 -10 10 0 10 0 0 10 0 10 -10 0 -10 0 0 -10z"/>
<path d="M910 736 l0 -16 9 0 10 0 4 -32 4 -33 -1 44 -1 44 -12 5 -13 4 0 -16z"/>
<path d="M567 764 l5 -14 9 0 9 0 0 9 0 9 -14 5 -15 6 6 -15z"/>
<path d="M600 755 l0 -15 10 0 10 0 0 15 0 15 -10 0 -10 0 0 -15z"/>
<path d="M440 760 l0 -10 10 0 10 0 0 10 0 10 -10 0 -10 0 0 -10z"/>
<path d="M260 700 l0 -10 10 0 10 0 0 10 0 10 -10 0 -10 0 0 -10z"/>
<path d="M350 670 l0 -10 10 0 10 0 0 10 0 10 -10 0 -10 0 0 -10z"/>
<path d="M380 670 l0 -10 10 0 10 0 0 10 0 10 -10 0 -10 0 0 -10z"/>
<path d="M410 670 l0 -10 10 0 10 0 0 10 0 10 -10 0 -10 0 0 -10z"/>
<path d="M220 643 l0 -18 -10 15 -10 15 -10 -15 -10 -15 0 -17 0 -18 -10 0
-10 0 0 -10 0 -10 10 0 11 0 35 34 36 35 -7 10 -6 11 -10 0 -9 0 0 -17z"/>
<path d="M237 598 l-48 -50 5 -5 5 -5 26 28 25 29 22 23 21 23 -4 3 -4 3 -48
-49z"/>
<path d="M380 609 l0 -10 15 -15 15 -15 0 9 0 10 -6 16 -6 16 -9 0 -9 0 0 -11z"/>
<path d="M335 565 l-20 -24 -7 12 -8 12 -10 -15 -10 -15 0 11 0 12 -15 6 -15
5 0 -17 0 -18 39 2 38 1 22 22 21 21 0 5 0 5 -7 0 -8 -1 -20 -24z"/>
<path d="M160 550 l0 -10 10 0 10 0 0 10 0 10 -10 0 -10 0 0 -10z"/>
<path d="M516 1248 l-19 -18 6 -7 7 -6 0 11 0 12 10 0 10 0 6 -25 6 -25 14 0
14 0 0 10 0 9 -17 10 -18 11 11 7 12 8 -12 11 -11 10 -19 -18z"/>
<path d="M740 1257 l0 -17 18 0 17 0 -10 8 -10 7 -7 9 -8 9 0 -16z"/>
<path d="M1090 1261 l0 -10 11 -6 10 -7 4 3 3 4 -14 13 -14 13 0 -10z"/>
<path d="M470 1230 l0 -10 10 0 10 0 0 10 0 10 -10 0 -10 0 0 -10z"/>
<path d="M967 1174 l6 -15 -22 -6 -21 -5 0 -9 0 -9 10 0 10 0 20 20 20 20 0 4
0 4 -14 5 -15 6 6 -15z"/>
<path d="M987 1158 l-19 -20 6 -6 6 -6 14 19 13 18 11 -7 12 -7 -6 15 -6 16
-7 -1 -6 -1 -18 -20z"/>
<path d="M440 1140 l0 -10 10 0 10 0 0 10 0 10 -10 0 -10 0 0 -10z"/>
<path d="M470 1140 l0 -10 10 0 10 0 0 10 0 10 -10 0 -10 0 0 -10z"/>
<path d="M1210 1142 l0 -14 20 -5 20 -5 0 -14 0 -14 10 0 10 0 0 -50 0 -50
-10 0 -10 0 0 -25 0 -25 9 0 10 0 6 55 7 55 -6 34 -7 35 -22 7 -22 7 -7 11 -8
11 0 -13z"/>
<path d="M889 1123 l-16 -4 0 -24 0 -25 13 0 14 0 0 9 0 10 45 7 45 6 0 9 0 9
-7 1 -8 0 -35 3 -35 3 -16 -4z"/>
<path d="M781 1108 l1 -13 -1 -12 -1 -12 -17 -4 -18 -4 30 4 30 3 3 10 4 10
31 1 32 2 -27 4 -28 4 0 10 0 9 -20 0 -21 0 2 -12z"/>
<path d="M748 1093 l12 -5 13 5 12 5 -25 0 -25 0 13 -5z"/>
<path d="M1130 1080 l0 -10 10 0 10 0 0 10 0 10 -10 0 -10 0 0 -10z"/>
<path d="M748 1033 l12 -5 13 5 12 5 -25 0 -25 0 13 -5z"/>
</g>
</svg>
