<?xml version="1.0" standalone="no"?>
<!DOCTYPE svg PUBLIC "-//W3C//DTD SVG 20010904//EN"
 "http://www.w3.org/TR/2001/REC-SVG-20010904/DTD/svg10.dtd">
<svg version="1.0" xmlns="http://www.w3.org/2000/svg"
 width="468pt" height="468pt" viewBox="0 0 468 468"
 preserveAspectRatio="xMidYMid meet">
<metadata>
Created by potrace 1.8, written by Peter Selinger 2001-2007
</metadata>
<g transform="translate(0,468) scale(0.365625,-0.365625)"
fill="#000000" stroke="none">
<path d="M760 1210 l0 -10 -19 0 -19 0 -5 -12 -5 -13 -10 14 -10 14 -26 -26
-26 -26 0 -11 0 -11 -35 -34 -34 -35 -11 0 -11 0 -34 -35 -35 -34 0 -16 0 -15
-10 0 -10 0 0 -30 0 -30 -10 0 -10 0 0 10 0 10 -20 0 -20 0 0 10 0 10 20 0 20
0 0 30 0 30 10 0 10 0 0 50 0 50 -10 0 -10 0 0 15 0 16 -37 36 -37 37 -4 -12
-4 -12 -19 0 -19 0 0 -10 0 -10 -19 0 -19 0 -5 -12 -5 -13 -12 15 -12 15 -5
-12 -5 -13 -19 0 -19 0 0 -30 0 -30 26 0 25 0 16 -15 15 -16 -21 -18 -21 -18
0 -66 0 -65 13 -5 12 -5 -14 -10 -15 -10 32 -30 32 -30 0 -16 0 -16 20 0 20 0
0 -20 0 -20 9 0 9 0 6 13 6 12 6 -12 6 -13 49 0 49 0 0 -9 0 -9 -12 -5 -13 -5
15 -12 15 -12 -12 -5 -13 -5 0 -28 0 -28 13 -5 12 -5 -15 -12 -15 -12 13 -5
12 -5 0 -28 0 -28 -12 -6 -13 -6 13 -6 12 -6 0 -29 0 -29 -10 0 -10 0 0 -30 0
-30 -10 0 -10 0 0 -18 0 -18 -20 -14 -20 -14 0 -18 0 -18 6 0 5 0 15 14 14 15
0 15 0 16 10 0 10 0 0 -20 0 -20 10 0 10 0 0 20 0 20 -10 0 -10 0 0 20 0 20
10 0 10 0 0 20 0 20 10 0 10 0 0 30 0 30 10 0 10 0 0 19 0 19 13 5 12 4 -24
22 -24 21 8 8 8 7 4 -12 5 -13 9 0 9 0 0 40 0 40 10 0 10 0 0 19 0 19 13 6 12
6 -12 6 -13 6 0 9 0 9 30 0 30 0 0 -29 0 -29 -12 -5 -13 -5 15 -11 14 -10 -24
-21 -24 -21 14 -10 15 -9 -14 -9 -14 -9 16 -16 16 -16 15 0 16 0 0 -20 0 -20
20 0 20 0 0 -19 0 -19 13 -5 12 -4 -44 -42 -43 -42 7 -7 8 -7 4 13 5 12 39 0
39 0 0 10 0 10 -10 0 -10 0 0 10 0 10 20 0 20 0 0 -30 0 -30 9 0 9 0 5 13 5
12 11 -15 10 -14 8 7 7 8 -14 10 -15 9 14 9 14 9 -28 27 -27 28 -8 -13 -8 -13
-16 16 -16 16 0 13 0 14 -20 14 -20 14 0 18 0 18 -20 0 -20 0 0 20 0 20 9 0 9
0 4 -12 4 -12 27 26 27 27 0 16 0 15 10 0 10 0 0 20 0 20 10 0 10 0 0 19 0 19
-12 5 -13 5 15 11 15 11 -15 9 -14 10 6 7 7 6 18 -18 18 -17 -13 -5 -12 -4 0
-9 0 -9 20 0 20 0 0 -10 0 -10 -10 0 -10 0 0 -29 0 -29 13 -5 12 -5 -15 -11
-15 -11 15 -11 15 -11 -12 -5 -13 -5 0 -9 0 -9 19 0 19 0 4 -12 5 -13 17 18
18 18 -6 7 -7 6 -9 -14 -9 -14 -7 7 -7 7 24 20 23 21 -14 10 -15 11 13 5 12 5
0 39 0 39 10 0 10 0 0 16 0 15 15 16 16 15 7 -6 6 -7 -14 -10 -15 -11 13 -5
12 -5 0 -19 0 -19 10 0 10 0 0 -30 0 -30 10 0 10 0 0 -29 0 -29 13 -6 12 -6
-12 -6 -13 -6 0 -19 0 -19 10 0 10 0 0 -40 0 -40 -10 0 -10 0 0 -26 0 -27 22
-18 21 -19 -8 -8 -8 -7 -4 13 -5 12 -19 0 -19 0 0 -26 0 -25 15 -15 15 -15 15
15 15 15 0 14 0 15 13 5 12 4 -25 22 -24 22 14 10 15 9 -15 11 -15 11 13 5 12
5 0 39 0 39 10 0 10 0 0 19 0 19 -12 5 -13 5 15 11 15 11 -15 10 -15 10 15 10
15 10 -15 10 -15 10 15 11 15 11 -12 5 -13 5 0 18 0 18 13 6 12 6 -12 6 -13 6
0 18 0 18 -12 5 -13 4 9 9 9 9 4 -12 5 -13 9 0 9 0 0 39 0 39 -12 5 -13 4 7 8
7 7 16 -15 15 -16 0 -34 0 -35 13 -5 12 -5 -15 -11 -15 -11 15 -11 15 -11 -12
-5 -13 -5 0 -29 0 -29 10 0 10 0 0 16 0 17 23 20 22 20 -12 4 -13 5 0 18 0 18
13 6 12 6 -12 6 -13 6 0 37 0 37 -20 14 -20 14 0 18 0 18 -20 0 -20 0 0 9 0 9
13 6 12 6 -12 6 -13 6 0 17 0 17 -20 14 -20 14 0 18 0 18 -10 0 -10 0 0 20 0
20 -10 0 -10 0 0 30 0 30 -20 0 -20 0 0 -9 0 -9 13 -5 12 -4 -7 -8 -7 -7 -17
17 -17 17 13 8 13 8 -16 16 -16 16 -25 0 -26 0 0 10 0 10 -10 0 -10 0 0 -10z
m20 -40 l0 -10 -10 0 -10 0 0 10 0 10 10 0 10 0 0 -10z m-480 -60 l0 -30 -6 0
-5 0 -15 15 -15 15 13 14 13 15 8 1 7 0 0 -30z m60 20 l0 -10 -10 0 -10 0 0
10 0 10 10 0 10 0 0 -10z m-120 -20 l0 -10 -10 0 -10 0 0 10 0 10 10 0 10 0 0
-10z m100 -20 l0 -10 20 0 20 0 0 -10 0 -10 -19 0 -19 0 -5 -12 -4 -13 -9 8
-8 8 14 10 15 11 -12 5 -13 5 0 9 0 9 10 0 10 0 0 -10z m472 -12 l19 -22 9 14
9 14 8 -7 7 -8 -14 -10 -15 -9 15 -10 15 -10 -15 -11 -15 -11 13 -5 12 -5 0
-19 0 -19 -8 0 -8 0 -14 20 -14 20 -17 0 -17 0 -5 13 -4 12 -21 -24 -21 -23
-17 16 -16 17 6 7 7 6 8 -13 9 -14 38 38 38 39 -12 4 -12 4 0 9 0 9 6 0 7 0
19 -22z m-152 -56 l0 -18 20 -14 20 -14 0 -18 0 -18 10 0 10 0 0 -40 0 -40
-10 0 -10 0 0 20 0 20 -26 0 -25 0 -16 -15 -15 -16 7 -7 8 -7 4 13 5 12 19 0
19 0 0 -10 0 -10 -16 0 -15 0 -15 -14 -14 -15 0 -21 0 -21 -15 -16 -16 -15 -7
7 -7 8 13 4 12 5 0 49 0 49 -9 0 -9 0 -5 -12 -4 -13 -9 9 -9 9 13 4 12 5 0 28
0 28 13 5 12 4 -8 9 -8 8 -9 -14 -9 -14 -7 7 -7 7 21 19 22 18 0 17 0 16 10 0
10 0 0 -20 0 -20 10 0 10 0 0 30 0 30 10 0 10 0 0 -18z m-280 -12 l0 -10 -10
0 -10 0 0 10 0 10 10 0 10 0 0 -10z m520 -10 l0 -20 -6 0 -5 0 -15 14 -14 15
0 5 0 6 20 0 20 0 0 -20z m40 -10 l0 -10 -10 0 -10 0 0 10 0 10 10 0 10 0 0
-10z m-614 -25 l15 -15 -16 -16 -16 -16 -7 6 -6 7 14 10 15 11 -12 5 -13 5 0
9 0 9 6 0 5 0 15 -15z m474 5 l0 -10 -10 0 -10 0 0 10 0 10 10 0 10 0 0 -10z
m106 -24 l14 -15 0 -41 0 -41 -17 -17 -16 -17 -5 13 -4 12 -29 0 -29 0 0 10 0
10 10 0 10 0 0 10 0 10 -20 0 -20 0 0 -10 0 -10 -10 0 -10 0 0 20 0 20 46 0
45 0 16 15 15 16 -6 7 -7 6 -9 -14 -9 -14 -6 6 -7 7 13 15 14 15 3 1 3 0 15
-14z m74 4 l0 -10 -10 0 -10 0 0 -19 0 -19 13 -6 12 -6 -12 -6 -13 -6 0 -19 0
-19 -10 0 -10 0 0 45 0 46 13 14 12 14 8 1 7 0 0 -10z m-433 -25 l15 -16 -5
-6 -6 -5 -16 15 -15 16 0 5 0 6 6 0 5 0 16 -15z m233 -5 l0 -20 -20 0 -20 0 0
20 0 20 20 0 20 0 0 -20z m40 10 l0 -10 -10 0 -10 0 0 10 0 10 10 0 10 0 0
-10z m-460 -35 l0 -26 25 -24 24 -25 11 0 11 0 16 15 15 16 -7 7 -8 7 -4 -12
-5 -13 -9 0 -9 0 0 19 0 19 -12 5 -13 4 9 9 9 9 4 -12 5 -13 15 0 14 0 17 -17
17 -16 -13 -5 -12 -4 0 -18 0 -18 13 -5 12 -4 -9 -9 -9 -9 -4 13 -5 12 -19 0
-19 0 0 -10 0 -10 10 0 10 0 0 -10 0 -10 -20 0 -20 0 0 20 0 20 -16 0 -15 0
-16 16 -16 16 14 10 14 10 -12 5 -13 5 0 29 0 29 10 0 10 0 0 -25z m400 -25
l0 -10 -10 0 -10 0 0 10 0 10 10 0 10 0 0 -10z m-17 -42 l5 -13 11 15 10 14 7
-6 6 -7 -18 -18 -17 -18 -5 13 -4 12 -19 0 -19 0 0 -9 0 -9 13 -5 12 -4 -25
-22 -24 -22 14 -9 14 -9 -6 -7 -7 -6 -16 15 -15 16 0 25 0 26 10 0 10 0 0 20
0 20 29 0 29 0 5 -12z m117 -18 l0 -10 -10 0 -10 0 0 10 0 10 10 0 10 0 0 -10z
m100 -80 l0 -10 -10 0 -10 0 0 10 0 10 10 0 10 0 0 -10z m-260 -40 l0 -10 -10
0 -10 0 0 10 0 10 10 0 10 0 0 -10z m260 0 l0 -10 -10 0 -10 0 0 10 0 10 10 0
10 0 0 -10z m20 -180 l0 -10 -10 0 -10 0 0 10 0 10 10 0 10 0 0 -10z m-200
-140 l0 -10 -10 0 -10 0 0 10 0 10 10 0 10 0 0 -10z"/>
<path d="M793 1045 l-13 -14 0 -6 0 -5 20 0 20 0 0 20 0 20 -7 0 -8 -1 -12
-14z"/>
<path d="M660 964 l0 -15 15 -16 16 -15 7 7 7 8 -12 4 -13 5 0 19 0 19 -10 0
-10 0 0 -16z"/>
<path d="M620 930 l0 -10 10 0 10 0 0 10 0 10 -10 0 -10 0 0 -10z"/>
<path d="M360 830 l0 -10 10 0 10 0 0 10 0 10 -10 0 -10 0 0 -10z"/>
<path d="M680 790 l0 -10 10 0 10 0 0 10 0 10 -10 0 -10 0 0 -10z"/>
<path d="M760 502 l0 -18 -20 -14 -20 -14 0 -8 0 -8 20 0 20 0 0 20 0 20 10 0
10 0 0 20 0 20 -10 0 -10 0 0 -18z"/>
<path d="M0 100 l0 -100 640 0 640 0 0 100 0 100 -640 0 -640 0 0 -100z"/>
</g>
</svg>
