<?xml version="1.0" standalone="no"?>
<!DOCTYPE svg PUBLIC "-//W3C//DTD SVG 20010904//EN"
 "http://www.w3.org/TR/2001/REC-SVG-20010904/DTD/svg10.dtd">
<svg version="1.0" xmlns="http://www.w3.org/2000/svg"
 width="468pt" height="468pt" viewBox="0 0 468 468"
 preserveAspectRatio="xMidYMid meet">
<metadata>
Created by potrace 1.8, written by Peter Selinger 2001-2007
</metadata>
<g transform="translate(0,468) scale(0.365625,-0.365625)"
fill="#000000" stroke="none">
<path d="M0 580 l0 -580 640 0 640 0 0 580 0 580 -640 0 -640 0 0 -580z m1240
0 l0 -540 -600 0 -600 0 0 540 0 540 600 0 600 0 0 -540z"/>
<path d="M280 1040 l0 -40 40 0 40 0 0 20 0 20 20 0 20 0 0 -20 0 -20 20 0 20
0 0 20 0 20 20 0 20 0 0 -20 0 -20 80 0 80 0 0 40 0 40 -180 0 -180 0 0 -40z"/>
<path d="M720 1040 l0 -40 20 0 20 0 0 20 0 20 20 0 20 0 0 -20 0 -20 80 0 80
0 0 40 0 40 -120 0 -120 0 0 -40z"/>
<path d="M80 900 l0 -60 20 0 20 0 0 20 0 20 20 0 20 0 0 -20 0 -20 20 0 20 0
0 60 0 60 -20 0 -20 0 0 -20 0 -20 -20 0 -20 0 0 20 0 20 -20 0 -20 0 0 -60z"/>
<path d="M240 940 l0 -20 20 0 20 0 0 -40 0 -40 20 0 20 0 0 40 0 40 20 0 20
0 0 20 0 20 -60 0 -60 0 0 -20z"/>
<path d="M400 900 l0 -60 60 0 60 0 0 60 0 60 -20 0 -20 0 0 -20 0 -20 -20 0
-20 0 0 20 0 20 -20 0 -20 0 0 -60z"/>
<path d="M600 940 l0 -20 20 0 20 0 0 -40 0 -40 20 0 20 0 0 40 0 40 20 0 20
0 0 20 0 20 -60 0 -60 0 0 -20z"/>
<path d="M800 900 l0 -60 20 0 20 0 0 20 0 20 20 0 20 0 0 20 0 20 20 0 20 0
0 20 0 20 -60 0 -60 0 0 -60z"/>
<path d="M960 900 l0 -60 60 0 60 0 0 20 0 20 -20 0 -20 0 0 40 0 40 -40 0
-40 0 0 -60z"/>
<path d="M1120 900 l0 -60 40 0 40 0 0 60 0 60 -40 0 -40 0 0 -60z"/>
<path d="M400 740 l0 -60 20 0 20 0 0 60 0 60 -20 0 -20 0 0 -60z"/>
<path d="M600 780 l0 -20 20 0 20 0 0 -20 0 -20 -20 0 -20 0 0 -20 0 -20 40 0
40 0 0 60 0 60 -40 0 -40 0 0 -20z"/>
<path d="M760 780 l0 -20 20 0 20 0 0 -20 0 -20 -20 0 -20 0 0 -20 0 -20 40 0
40 0 0 60 0 60 -40 0 -40 0 0 -20z"/>
<path d="M920 760 l0 -40 20 0 20 0 0 -20 0 -20 20 0 20 0 0 20 0 20 20 0 20
0 0 20 0 20 -40 0 -40 0 0 20 0 20 -20 0 -20 0 0 -40z"/>
<path d="M1120 740 l0 -60 40 0 40 0 0 20 0 20 -20 0 -20 0 0 20 0 20 20 0 20
0 0 20 0 20 -40 0 -40 0 0 -60z"/>
<path d="M80 580 l0 -60 40 0 40 0 0 40 0 40 -20 0 -20 0 0 20 0 20 -20 0 -20
0 0 -60z"/>
<path d="M240 620 l0 -20 20 0 20 0 0 -40 0 -40 20 0 20 0 0 60 0 60 -40 0
-40 0 0 -20z"/>
<path d="M400 580 l0 -60 40 0 40 0 0 60 0 60 -40 0 -40 0 0 -60z"/>
<path d="M600 600 l0 -40 20 0 20 0 0 -20 0 -20 20 0 20 0 0 60 0 60 -40 0
-40 0 0 -40z"/>
<path d="M760 580 l0 -60 20 0 20 0 0 20 0 20 20 0 20 0 0 -20 0 -20 20 0 20
0 0 60 0 60 -20 0 -20 0 0 -20 0 -20 -20 0 -20 0 0 20 0 20 -20 0 -20 0 0 -60z"/>
<path d="M920 580 l0 -60 20 0 20 0 0 60 0 60 -20 0 -20 0 0 -60z"/>
<path d="M1000 580 l0 -60 20 0 20 0 0 60 0 60 -20 0 -20 0 0 -60z"/>
<path d="M1120 580 l0 -60 40 0 40 0 0 20 0 20 -20 0 -20 0 0 20 0 20 20 0 20
0 0 20 0 20 -40 0 -40 0 0 -60z"/>
<path d="M80 420 l0 -60 60 0 60 0 0 20 0 20 -20 0 -20 0 0 20 0 20 20 0 20 0
0 20 0 20 -60 0 -60 0 0 -60z"/>
<path d="M240 420 l0 -60 20 0 20 0 0 20 0 20 20 0 20 0 0 -20 0 -20 20 0 20
0 0 60 0 60 -20 0 -20 0 0 -20 0 -20 -20 0 -20 0 0 20 0 20 -20 0 -20 0 0 -60z"/>
<path d="M400 420 l0 -60 60 0 60 0 0 20 0 20 -20 0 -20 0 0 20 0 20 20 0 20
0 0 20 0 20 -60 0 -60 0 0 -60z"/>
<path d="M600 420 l0 -60 60 0 60 0 0 40 0 40 -20 0 -20 0 0 20 0 20 -40 0
-40 0 0 -60z"/>
<path d="M760 420 l0 -60 20 0 20 0 0 40 0 40 20 0 20 0 0 -40 0 -40 20 0 20
0 0 60 0 60 -60 0 -60 0 0 -60z"/>
<path d="M920 420 l0 -60 60 0 60 0 0 60 0 60 -60 0 -60 0 0 -60z"/>
<path d="M1120 420 l0 -60 20 0 20 0 0 20 0 20 20 0 20 0 0 40 0 40 -40 0 -40
0 0 -60z"/>
<path d="M80 300 l0 -20 20 0 20 0 0 -20 0 -20 20 0 20 0 0 20 0 20 20 0 20 0
0 20 0 20 -60 0 -60 0 0 -20z"/>
<path d="M240 300 l0 -20 20 0 20 0 0 -20 0 -20 40 0 40 0 0 40 0 40 -60 0
-60 0 0 -20z"/>
<path d="M400 300 l0 -20 20 0 20 0 0 -20 0 -20 40 0 40 0 0 40 0 40 -60 0
-60 0 0 -20z"/>
<path d="M600 300 l0 -20 20 0 20 0 0 -20 0 -20 40 0 40 0 0 40 0 40 -60 0
-60 0 0 -20z"/>
<path d="M760 300 l0 -20 20 0 20 0 0 -20 0 -20 40 0 40 0 0 40 0 40 -60 0
-60 0 0 -20z"/>
<path d="M920 300 l0 -20 20 0 20 0 0 -20 0 -20 40 0 40 0 0 40 0 40 -60 0
-60 0 0 -20z"/>
<path d="M1120 300 l0 -20 20 0 20 0 0 -20 0 -20 20 0 20 0 0 40 0 40 -40 0
-40 0 0 -20z"/>
<path d="M80 140 l0 -60 60 0 60 0 0 40 0 40 -20 0 -20 0 0 20 0 20 -40 0 -40
0 0 -60z"/>
<path d="M240 140 l0 -60 60 0 60 0 0 60 0 60 -60 0 -60 0 0 -60z"/>
</g>
</svg>
