<?xml version="1.0" standalone="no"?>
<!DOCTYPE svg PUBLIC "-//W3C//DTD SVG 20010904//EN"
 "http://www.w3.org/TR/2001/REC-SVG-20010904/DTD/svg10.dtd">
<svg version="1.0" xmlns="http://www.w3.org/2000/svg"
 width="468pt" height="468pt" viewBox="0 0 468 468"
 preserveAspectRatio="xMidYMid meet">
<metadata>
Created by potrace 1.8, written by Peter Selinger 2001-2007
</metadata>
<g transform="translate(0,468) scale(0.365625,-0.365625)"
fill="#000000" stroke="none">
<path d="M90 1235 l0 -45 -45 0 -45 0 0 -85 0 -85 105 0 105 0 0 25 0 25 25 0
25 0 0 105 0 105 -85 0 -85 0 0 -45z m40 -65 l0 -20 20 0 20 0 0 -20 0 -20 20
0 20 0 0 -20 0 -20 -20 0 -20 0 0 20 0 20 -20 0 -20 0 0 20 0 20 -20 0 -20 0
0 20 0 20 20 0 20 0 0 -20z"/>
<path d="M300 1130 l0 -150 -150 0 -150 0 0 -340 0 -340 490 0 490 0 0 490 0
490 -340 0 -340 0 0 -150z"/>
<path d="M1020 1260 l0 -20 25 0 25 0 0 -25 0 -25 -25 0 -25 0 0 -20 0 -20 25
0 25 0 0 -20 0 -20 -25 0 -25 0 0 -20 0 -20 25 0 25 0 0 -25 0 -25 -25 0 -25
0 0 -20 0 -20 25 0 25 0 0 -20 0 -20 -25 0 -25 0 0 -20 0 -20 25 0 25 0 0 -25
0 -25 -25 0 -25 0 0 -20 0 -20 25 0 25 0 0 -20 0 -20 -25 0 -25 0 0 -20 0 -20
25 0 25 0 0 -25 0 -25 -25 0 -25 0 0 -20 0 -20 25 0 25 0 0 -20 0 -20 -25 0
-25 0 0 -25 0 -25 25 0 25 0 0 -20 0 -20 -25 0 -25 0 0 -20 0 -20 25 0 25 0 0
-20 0 -20 -25 0 -25 0 0 -25 0 -25 25 0 25 0 0 -20 0 -20 -25 0 -25 0 0 -20 0
-20 25 0 25 0 0 -20 0 -20 20 0 20 0 0 -25 0 -25 20 0 20 0 0 -20 0 -20 20 0
20 0 0 20 0 20 -20 0 -20 0 0 25 0 25 20 0 20 0 0 20 0 20 -20 0 -20 0 0 20 0
20 20 0 20 0 0 20 0 20 -20 0 -20 0 0 25 0 25 20 0 20 0 0 20 0 20 -20 0 -20
0 0 20 0 20 20 0 20 0 0 20 0 20 -20 0 -20 0 0 25 0 25 20 0 20 0 0 20 0 20
-20 0 -20 0 0 20 0 20 20 0 20 0 0 25 0 25 -20 0 -20 0 0 20 0 20 20 0 20 0 0
20 0 20 -20 0 -20 0 0 20 0 20 20 0 20 0 0 25 0 25 -20 0 -20 0 0 20 0 20 20
0 20 0 0 20 0 20 -20 0 -20 0 0 20 0 20 20 0 20 0 0 25 0 25 -20 0 -20 0 0 20
0 20 20 0 20 0 0 20 0 20 -20 0 -20 0 0 20 0 20 20 0 20 0 0 25 0 25 -20 0
-20 0 0 20 0 20 -20 0 -20 0 0 -20 0 -20 -20 0 -20 0 0 20 0 20 -25 0 -25 0 0
-20z m130 -45 l0 -25 -20 0 -20 0 0 -20 0 -20 20 0 20 0 0 -20 0 -20 -20 0
-20 0 0 -20 0 -20 20 0 20 0 0 -25 0 -25 -20 0 -20 0 0 -20 0 -20 20 0 20 0 0
-20 0 -20 -20 0 -20 0 0 -20 0 -20 20 0 20 0 0 -25 0 -25 -20 0 -20 0 0 -20 0
-20 20 0 20 0 0 -20 0 -20 -20 0 -20 0 0 -20 0 -20 20 0 20 0 0 -25 0 -25 -20
0 -20 0 0 -20 0 -20 20 0 20 0 0 -20 0 -20 -20 0 -20 0 0 -25 0 -25 20 0 20 0
0 -20 0 -20 -20 0 -20 0 0 -20 0 -20 20 0 20 0 0 -20 0 -20 -20 0 -20 0 0 -25
0 -25 20 0 20 0 0 -20 0 -20 -20 0 -20 0 0 -20 0 -20 20 0 20 0 0 -20 0 -20
-20 0 -20 0 0 20 0 20 -20 0 -20 0 0 20 0 20 20 0 20 0 0 20 0 20 -20 0 -20 0
0 25 0 25 20 0 20 0 0 20 0 20 -20 0 -20 0 0 20 0 20 20 0 20 0 0 20 0 20 -20
0 -20 0 0 25 0 25 20 0 20 0 0 20 0 20 -20 0 -20 0 0 20 0 20 20 0 20 0 0 25
0 25 -20 0 -20 0 0 20 0 20 20 0 20 0 0 20 0 20 -20 0 -20 0 0 20 0 20 20 0
20 0 0 25 0 25 -20 0 -20 0 0 20 0 20 20 0 20 0 0 20 0 20 -20 0 -20 0 0 20 0
20 20 0 20 0 0 25 0 25 -20 0 -20 0 0 20 0 20 20 0 20 0 0 20 0 20 -20 0 -20
0 0 20 0 20 20 0 20 0 0 25 0 25 20 0 20 0 0 -25z"/>
<path d="M0 235 l0 -25 20 0 20 0 0 -20 0 -20 -20 0 -20 0 0 -20 0 -20 20 0
20 0 0 -20 0 -20 25 0 25 0 0 20 0 20 20 0 20 0 0 -20 0 -20 20 0 20 0 0 20 0
20 20 0 20 0 0 -20 0 -20 25 0 25 0 0 20 0 20 20 0 20 0 0 -20 0 -20 20 0 20
0 0 20 0 20 20 0 20 0 0 -20 0 -20 25 0 25 0 0 20 0 20 20 0 20 0 0 -20 0 -20
20 0 20 0 0 20 0 20 20 0 20 0 0 -20 0 -20 25 0 25 0 0 20 0 20 20 0 20 0 0
-20 0 -20 20 0 20 0 0 20 0 20 25 0 25 0 0 -20 0 -20 20 0 20 0 0 20 0 20 20
0 20 0 0 -20 0 -20 20 0 20 0 0 20 0 20 25 0 25 0 0 -20 0 -20 20 0 20 0 0 20
0 20 20 0 20 0 0 -20 0 -20 20 0 20 0 0 20 0 20 25 0 25 0 0 -20 0 -20 20 0
20 0 0 20 0 20 -20 0 -20 0 0 20 0 20 -25 0 -25 0 0 20 0 20 -20 0 -20 0 0 25
0 25 -20 0 -20 0 0 -25 0 -25 -20 0 -20 0 0 25 0 25 -25 0 -25 0 0 -25 0 -25
-20 0 -20 0 0 25 0 25 -20 0 -20 0 0 -25 0 -25 -20 0 -20 0 0 25 0 25 -25 0
-25 0 0 -25 0 -25 -20 0 -20 0 0 25 0 25 -20 0 -20 0 0 -25 0 -25 -25 0 -25 0
0 25 0 25 -20 0 -20 0 0 -25 0 -25 -20 0 -20 0 0 25 0 25 -20 0 -20 0 0 -25 0
-25 -25 0 -25 0 0 25 0 25 -20 0 -20 0 0 -25 0 -25 -20 0 -20 0 0 25 0 25 -20
0 -20 0 0 -25 0 -25 -25 0 -25 0 0 25 0 25 -20 0 -20 0 0 -25 0 -25 -20 0 -20
0 0 25 0 25 -20 0 -20 0 0 -25 0 -25 -25 0 -25 0 0 25 0 25 -20 0 -20 0 0 -25z
m130 -45 l0 -20 20 0 20 0 0 20 0 20 20 0 20 0 0 -20 0 -20 25 0 25 0 0 20 0
20 20 0 20 0 0 -20 0 -20 20 0 20 0 0 20 0 20 20 0 20 0 0 -20 0 -20 25 0 25
0 0 20 0 20 20 0 20 0 0 -20 0 -20 20 0 20 0 0 20 0 20 20 0 20 0 0 -20 0 -20
25 0 25 0 0 20 0 20 20 0 20 0 0 -20 0 -20 20 0 20 0 0 20 0 20 25 0 25 0 0
-20 0 -20 20 0 20 0 0 20 0 20 20 0 20 0 0 -20 0 -20 20 0 20 0 0 20 0 20 25
0 25 0 0 -20 0 -20 20 0 20 0 0 20 0 20 20 0 20 0 0 -20 0 -20 20 0 20 0 0
-20 0 -20 -20 0 -20 0 0 20 0 20 -20 0 -20 0 0 -20 0 -20 -20 0 -20 0 0 20 0
20 -25 0 -25 0 0 -20 0 -20 -20 0 -20 0 0 20 0 20 -20 0 -20 0 0 -20 0 -20
-20 0 -20 0 0 20 0 20 -25 0 -25 0 0 -20 0 -20 -20 0 -20 0 0 20 0 20 -20 0
-20 0 0 -20 0 -20 -25 0 -25 0 0 20 0 20 -20 0 -20 0 0 -20 0 -20 -20 0 -20 0
0 20 0 20 -20 0 -20 0 0 -20 0 -20 -25 0 -25 0 0 20 0 20 -20 0 -20 0 0 -20 0
-20 -20 0 -20 0 0 20 0 20 -20 0 -20 0 0 -20 0 -20 -25 0 -25 0 0 20 0 20 -20
0 -20 0 0 -20 0 -20 -20 0 -20 0 0 20 0 20 -20 0 -20 0 0 -20 0 -20 -25 0 -25
0 0 20 0 20 25 0 25 0 0 20 0 20 20 0 20 0 0 -20z"/>
</g>
</svg>
