<?xml version="1.0" standalone="no"?>
<!DOCTYPE svg PUBLIC "-//W3C//DTD SVG 20010904//EN"
 "http://www.w3.org/TR/2001/REC-SVG-20010904/DTD/svg10.dtd">
<svg version="1.0" xmlns="http://www.w3.org/2000/svg"
 width="468pt" height="468pt" viewBox="0 0 468 468"
 preserveAspectRatio="xMidYMid meet">
<metadata>
Created by potrace 1.8, written by Peter Selinger 2001-2007
</metadata>
<g transform="translate(0,468) scale(0.365625,-0.365625)"
fill="#000000" stroke="none">
<path d="M610 1265 l0 -15 -50 0 -50 0 0 -10 0 -10 -40 0 -40 0 0 -15 0 -15
-40 0 -40 0 0 -15 0 -15 -15 0 -15 0 0 -50 0 -50 15 0 15 0 0 -55 0 -55 -15 0
-15 0 0 -15 0 -15 -25 0 -25 0 0 -10 0 -10 -15 0 -15 0 0 -15 0 -15 -15 0 -15
0 0 -15 0 -15 -10 0 -10 0 0 -65 0 -65 10 0 10 0 0 -15 0 -15 15 0 15 0 0 -10
0 -10 40 0 40 0 0 10 0 10 15 0 15 0 0 -25 0 -25 10 0 10 0 0 -15 0 -15 15 0
15 0 0 -10 0 -10 15 0 15 0 0 -15 0 -15 -40 0 -40 0 0 -25 0 -25 -40 0 -40 0
0 -40 0 -40 65 0 65 0 0 -30 0 -30 -55 0 -55 0 0 -10 0 -10 -25 0 -25 0 0 -15
0 -15 -25 0 -25 0 0 -15 0 -15 -26 0 -25 0 -15 -14 -14 -15 0 -10 0 -11 -15 0
-15 0 0 -15 0 -15 -15 0 -15 0 0 -25 0 -25 -10 0 -10 0 0 -25 0 -25 -15 0 -15
0 0 -55 0 -55 225 0 225 0 0 55 0 55 15 0 15 0 0 65 0 65 25 0 25 0 0 15 0 15
55 0 55 0 0 10 0 10 25 0 25 0 0 15 0 15 55 0 55 0 0 15 0 15 55 0 55 0 0 10
0 10 25 0 25 0 0 15 0 15 40 0 40 0 0 -15 0 -15 -40 0 -40 0 0 -10 0 -10 -25
0 -25 0 0 -15 0 -15 -55 0 -55 0 0 -15 0 -15 -55 0 -55 0 0 -10 0 -10 -25 0
-25 0 0 -15 0 -15 -55 0 -55 0 0 -15 0 -15 -10 0 -10 0 0 -50 0 -50 -15 0 -15
0 0 -55 0 -55 105 0 105 0 0 55 0 55 150 0 150 0 0 -55 0 -55 145 0 145 0 0
135 0 135 -15 0 -15 0 0 10 0 10 -25 0 -25 0 0 15 0 15 -25 0 -25 0 0 15 0 15
-15 0 -15 0 0 10 0 10 -15 0 -15 0 0 110 0 110 15 0 15 0 0 50 0 50 -15 0 -15
0 0 15 0 15 -25 0 -25 0 0 135 0 135 25 0 25 0 0 10 0 10 30 0 30 0 0 15 0 15
10 0 10 0 0 40 0 40 -10 0 -10 0 0 15 0 15 -30 0 -30 0 0 10 0 10 -65 0 -65 0
0 15 0 15 -15 0 -15 0 0 25 0 25 -10 0 -10 0 0 15 0 15 -150 0 -150 0 0 -15z
m380 -200 l0 -25 -15 0 -15 0 0 -15 0 -15 -40 0 -40 0 0 -10 0 -10 -25 0 -25
0 0 -15 0 -15 -30 0 -30 0 0 -15 0 -15 -25 0 -25 0 0 -10 0 -10 -25 0 -25 0 0
-15 0 -15 -110 0 -110 0 0 15 0 15 -25 0 -25 0 0 10 0 10 -15 0 -15 0 0 15 0
15 15 0 15 0 0 -15 0 -15 25 0 25 0 0 -10 0 -10 110 0 110 0 0 10 0 10 25 0
25 0 0 15 0 15 25 0 25 0 0 15 0 15 30 0 30 0 0 10 0 10 25 0 25 0 0 15 0 15
40 0 40 0 0 25 0 25 15 0 15 0 0 -25z m-190 -250 l0 -15 15 0 15 0 0 -15 0
-15 -30 0 -30 0 0 -10 0 -10 -25 0 -25 0 0 25 0 25 25 0 25 0 0 15 0 15 15 0
15 0 0 -15z m160 0 l0 -15 15 0 15 0 0 -40 0 -40 -55 0 -55 0 0 -15 0 -15 11
0 10 0 15 -14 14 -15 0 -10 0 -11 -25 0 -25 0 0 -15 0 -15 -40 0 -40 0 0 -10
0 -10 -25 0 -25 0 0 -15 0 -15 -30 0 -30 0 0 -15 0 -15 -50 0 -50 0 0 -25 0
-25 -15 0 -15 0 0 15 0 15 -55 0 -55 0 0 40 0 40 15 0 15 0 0 10 0 10 15 0 15
0 0 15 0 15 10 0 10 0 0 25 0 25 15 0 15 0 0 -40 0 -40 15 0 15 0 0 -10 0 -10
50 0 50 0 0 10 0 10 15 0 15 0 0 30 0 30 15 0 15 0 0 10 0 10 25 0 25 0 0 15
0 15 25 0 25 0 0 15 0 15 55 0 55 0 0 25 0 25 -40 0 -40 0 0 15 0 15 40 0 40
0 0 -15z m-450 -350 l0 -15 -110 0 -110 0 0 15 0 15 110 0 110 0 0 -15z m50
-80 l0 -15 -15 0 -15 0 0 15 0 15 15 0 15 0 0 -15z m-130 -50 l0 -15 25 0 25
0 0 -15 0 -15 15 0 15 0 0 -10 0 -10 -15 0 -15 0 0 10 0 10 -25 0 -25 0 0 15
0 15 -15 0 -15 0 0 15 0 15 15 0 15 0 0 -15z m180 -175 l0 -30 -25 0 -25 0 0
30 0 30 25 0 25 0 0 -30z"/>
<path d="M30 1240 l0 -10 -15 0 -15 0 0 -30 0 -30 15 0 15 0 0 -10 0 -10 25 0
25 0 0 10 0 10 -25 0 -25 0 0 30 0 30 65 0 65 0 0 -40 0 -40 -15 0 -15 0 0
-15 0 -15 -10 0 -10 0 0 -15 0 -15 -15 0 -15 0 0 -10 0 -10 -15 0 -15 0 0 -15
0 -15 15 0 15 0 0 15 0 15 11 0 10 0 15 14 14 15 0 10 0 11 15 0 15 0 0 15 0
15 15 0 15 0 0 40 0 40 -15 0 -15 0 0 10 0 10 -65 0 -65 0 0 -10z"/>
<path d="M50 985 l0 -25 15 0 15 0 0 25 0 25 -15 0 -15 0 0 -25z"/>
<path d="M80 920 l0 -10 15 0 15 0 0 10 0 10 -15 0 -15 0 0 -10z"/>
<path d="M50 865 l0 -15 15 0 15 0 0 15 0 15 -15 0 -15 0 0 -15z"/>
<path d="M0 840 l0 -10 15 0 15 0 0 10 0 10 -15 0 -15 0 0 -10z"/>
<path d="M0 785 l0 -15 15 0 15 0 0 15 0 15 -15 0 -15 0 0 -15z"/>
<path d="M50 760 l0 -10 15 0 15 0 0 10 0 10 -15 0 -15 0 0 -10z"/>
<path d="M110 735 l0 -15 10 0 10 0 0 15 0 15 -10 0 -10 0 0 -15z"/>
<path d="M110 680 l0 -10 10 0 10 0 0 10 0 10 -10 0 -10 0 0 -10z"/>
<path d="M50 655 l0 -15 15 0 15 0 0 15 0 15 -15 0 -15 0 0 -15z"/>
<path d="M30 600 l0 -10 10 0 10 0 0 10 0 10 -10 0 -10 0 0 -10z"/>
<path d="M80 575 l0 -15 15 0 15 0 0 15 0 15 -15 0 -15 0 0 -15z"/>
<path d="M130 545 l0 -15 15 0 15 0 0 15 0 15 -15 0 -15 0 0 -15z"/>
<path d="M210 470 l0 -40 15 0 15 0 0 40 0 40 -15 0 -15 0 0 -40z"/>
<path d="M720 40 l0 -40 120 0 120 0 0 40 0 40 -120 0 -120 0 0 -40z"/>
</g>
</svg>
