<?xml version="1.0" standalone="no"?>
<!DOCTYPE svg PUBLIC "-//W3C//DTD SVG 20010904//EN"
 "http://www.w3.org/TR/2001/REC-SVG-20010904/DTD/svg10.dtd">
<svg version="1.0" xmlns="http://www.w3.org/2000/svg"
 width="468pt" height="468pt" viewBox="0 0 468 468"
 preserveAspectRatio="xMidYMid meet">
<metadata>
Created by potrace 1.8, written by Peter Selinger 2001-2007
</metadata>
<g transform="translate(0,468) scale(0.365625,-0.365625)"
fill="#000000" stroke="none">
<path d="M0 640 l0 -580 30 0 30 0 0 -30 0 -30 610 0 610 0 0 575 0 575 -30 0
-30 0 0 35 0 35 -610 0 -610 0 0 -580z m1150 0 l0 -510 -545 0 -545 0 0 510 0
510 545 0 545 0 0 -510z"/>
<path d="M320 930 l0 -30 -30 0 -30 0 0 -160 0 -160 30 0 30 0 0 -35 0 -35
-30 0 -30 0 0 -30 0 -30 -35 0 -35 0 0 -35 0 -35 -30 0 -30 0 0 -60 0 -60 480
0 480 0 0 60 0 60 -35 0 -35 0 0 35 0 35 -30 0 -30 0 0 30 0 30 -30 0 -30 0 0
35 0 35 30 0 30 0 0 160 0 160 -30 0 -30 0 0 30 0 30 -290 0 -290 0 0 -30z
m580 -190 l0 -160 -290 0 -290 0 0 160 0 160 290 0 290 0 0 -160z m-520 -325
l0 -35 35 0 35 0 0 35 0 35 30 0 30 0 0 -35 0 -35 35 0 35 0 0 35 0 35 30 0
30 0 0 -35 0 -35 30 0 30 0 0 35 0 35 35 0 35 0 0 -35 0 -35 30 0 30 0 0 35 0
35 35 0 35 0 0 -35 0 -35 30 0 30 0 0 -30 0 -30 -30 0 -30 0 0 30 0 30 -35 0
-35 0 0 -30 0 -30 -30 0 -30 0 0 30 0 30 -35 0 -35 0 0 -30 0 -30 -30 0 -30 0
0 30 0 30 -30 0 -30 0 0 -30 0 -30 -35 0 -35 0 0 30 0 30 -30 0 -30 0 0 -30 0
-30 -35 0 -35 0 0 30 0 30 -30 0 -30 0 0 -30 0 -30 -30 0 -30 0 0 30 0 30 30
0 30 0 0 35 0 35 30 0 30 0 0 -35z"/>
</g>
</svg>
