<?xml version="1.0" standalone="no"?>
<!DOCTYPE svg PUBLIC "-//W3C//DTD SVG 20010904//EN"
 "http://www.w3.org/TR/2001/REC-SVG-20010904/DTD/svg10.dtd">
<svg version="1.0" xmlns="http://www.w3.org/2000/svg"
 width="468pt" height="468pt" viewBox="0 0 468 468"
 preserveAspectRatio="xMidYMid meet">
<metadata>
Created by potrace 1.8, written by Peter Selinger 2001-2007
</metadata>
<g transform="translate(0,468) scale(0.365625,-0.365625)"
fill="#000000" stroke="none">
<path d="M500 1230 l0 -10 -30 0 -30 0 0 -10 0 -10 -18 0 -18 0 -14 -20 -14
-20 -14 0 -13 0 -15 -14 -14 -15 0 -5 0 -6 48 0 48 0 14 20 14 20 18 0 18 0 0
10 0 10 48 0 48 0 14 -20 14 -20 8 0 8 0 0 20 0 20 38 0 38 0 14 20 14 20 28
0 28 0 0 10 0 10 -140 0 -140 0 0 -10z"/>
<path d="M740 1150 l0 -30 16 0 15 0 15 -14 14 -15 0 -15 0 -16 20 0 20 0 0
-10 0 -10 15 0 16 0 46 -47 47 -47 -12 -4 -12 -4 0 -59 0 -59 10 0 10 0 0 -10
0 -10 -20 0 -20 0 0 -60 0 -60 -10 0 -10 0 0 -20 0 -20 -20 0 -20 0 0 -15 0
-16 -45 -44 -44 -45 -26 0 -25 0 0 -10 0 -10 -36 0 -35 0 -15 14 -14 15 0 5 0
6 18 0 18 0 14 20 14 20 18 0 18 0 0 10 0 10 20 0 20 0 0 10 0 10 16 0 15 0
15 15 15 15 -25 25 -25 25 -36 0 -35 0 0 10 0 10 -38 0 -38 0 -14 -20 -14 -20
-28 0 -28 0 0 10 0 10 -20 0 -20 0 0 20 0 20 15 0 16 0 24 25 25 24 0 23 0 24
20 14 20 14 0 28 0 28 10 0 10 0 0 26 0 25 -14 15 -15 14 -35 0 -36 0 0 30 0
30 10 0 10 0 0 19 0 19 12 4 13 5 -17 16 -17 17 -15 0 -16 0 0 -10 0 -10 -20
0 -20 0 0 -10 0 -10 -20 0 -20 0 0 -10 0 -10 -65 0 -66 0 -24 25 -25 24 0 16
0 15 -16 0 -15 0 -15 -14 -14 -15 0 -25 0 -26 -10 0 -10 0 0 -58 0 -58 -20
-14 -20 -14 0 -18 0 -18 -10 0 -10 0 0 -130 0 -130 10 0 10 0 0 -40 0 -40 10
0 10 0 0 -20 0 -20 10 0 10 0 0 -20 0 -20 10 0 10 0 0 -15 0 -15 75 -75 75
-75 13 0 13 0 14 -20 14 -20 28 0 28 0 0 -10 0 -10 30 0 30 0 0 -10 0 -10 120
0 120 0 0 10 0 10 30 0 30 0 0 10 0 10 28 0 28 0 14 20 14 20 13 0 13 0 65 65
65 65 0 13 0 13 20 14 20 14 0 18 0 18 10 0 10 0 0 20 0 20 10 0 10 0 0 30 0
30 10 0 10 0 0 50 0 50 10 0 10 0 0 100 0 100 -20 0 -20 0 0 30 0 30 -10 0
-10 0 0 30 0 30 -10 0 -10 0 0 16 0 15 -14 15 -15 14 -14 0 -15 0 -5 -12 -4
-13 -20 23 -20 22 -17 0 -16 0 0 10 0 10 -20 0 -20 0 0 10 0 10 -40 0 -40 0 0
10 0 10 -50 0 -50 0 0 -30z m180 -60 l0 -10 20 0 20 0 0 -10 0 -10 16 0 16 0
28 -30 28 -30 16 0 16 0 0 -50 0 -50 10 0 10 0 0 -26 0 -27 23 -20 22 -20 -12
-4 -13 -5 0 -59 0 -59 -10 0 -10 0 0 -40 0 -40 -10 0 -10 0 0 10 0 10 -20 0
-20 0 0 -10 0 -10 -10 0 -10 0 0 20 0 20 -30 0 -30 0 0 28 0 28 20 14 20 14 0
68 0 68 20 0 20 0 0 30 0 30 -10 0 -10 0 0 25 0 26 -45 44 -44 45 -16 0 -15 0
0 20 0 20 10 0 10 0 0 -10z m-567 -372 l20 -23 4 13 5 12 19 0 19 0 0 -40 0
-40 10 0 10 0 0 -20 0 -20 10 0 10 0 0 -15 0 -16 35 -34 34 -35 11 0 11 0 15
-14 14 -15 0 -25 0 -26 -20 0 -20 0 0 -30 0 -30 10 0 10 0 0 -20 0 -20 -20 0
-20 0 0 -10 0 -10 -40 0 -40 0 0 10 0 10 -16 0 -16 0 -28 30 -28 30 -11 0 -12
0 -24 25 -25 24 0 13 0 14 -20 14 -20 14 0 18 0 18 -10 0 -10 0 0 20 0 20 -10
0 -10 0 0 36 0 35 14 15 15 14 35 0 36 0 0 20 0 20 10 0 10 0 0 20 0 20 6 0 7
0 20 -22z m147 -68 l0 -10 60 0 60 0 0 10 0 10 50 0 50 0 0 -10 0 -10 -18 0
-18 0 -14 -20 -14 -20 -18 0 -18 0 0 -10 0 -10 -46 0 -45 0 -15 14 -14 15 0
15 0 16 -10 0 -10 0 0 10 0 10 10 0 10 0 0 -10z m480 -70 l0 -20 30 0 30 0 0
-36 0 -36 -40 -38 -40 -38 0 -12 0 -11 -14 -15 -15 -14 -13 0 -14 0 -14 -20
-14 -20 -18 0 -18 0 0 -10 0 -10 -30 0 -30 0 0 -10 0 -10 -50 0 -50 0 0 -10 0
-10 -40 0 -40 0 0 20 0 20 10 0 10 0 0 29 0 29 -12 5 -13 4 23 20 22 20 0 17
0 16 -10 0 -10 0 0 10 0 10 70 0 70 0 0 10 0 10 20 0 20 0 0 10 0 10 18 0 18
0 14 20 14 20 24 0 23 0 15 14 14 15 0 15 0 16 20 0 20 0 0 -20z"/>
<path d="M662 1074 l-24 -25 21 -18 21 -18 0 -17 0 -16 10 0 10 0 0 -30 0 -30
-10 0 -10 0 0 -10 0 -10 20 0 20 0 0 50 0 50 9 0 9 0 4 -12 5 -13 16 17 17 17
0 11 0 11 -25 24 -24 25 -16 0 -15 0 0 10 0 10 -7 -1 -8 0 -23 -25z"/>
<path d="M760 830 l0 -30 -26 0 -27 0 -18 21 -18 21 -26 -26 -25 -25 0 -16 0
-15 60 0 60 0 0 -10 0 -10 38 0 38 0 14 -20 14 -20 8 0 8 0 0 59 0 59 12 4 13
5 -17 16 -17 17 -45 0 -46 0 0 -30z"/>
<path d="M0 100 l0 -100 640 0 640 0 0 100 0 100 -640 0 -640 0 0 -100z"/>
</g>
</svg>
