<?xml version="1.0" standalone="no"?>
<!DOCTYPE svg PUBLIC "-//W3C//DTD SVG 20010904//EN"
 "http://www.w3.org/TR/2001/REC-SVG-20010904/DTD/svg10.dtd">
<svg version="1.0" xmlns="http://www.w3.org/2000/svg"
 width="468pt" height="468pt" viewBox="0 0 468 468"
 preserveAspectRatio="xMidYMid meet">
<metadata>
Created by potrace 1.8, written by Peter Selinger 2001-2007
</metadata>
<g transform="translate(0,468) scale(0.365625,-0.365625)"
fill="#000000" stroke="none">
<path d="M610 845 l0 -35 30 0 30 0 0 35 0 35 -30 0 -30 0 0 -35z"/>
<path d="M880 845 l0 -35 -70 0 -70 0 0 -70 0 -70 35 0 35 0 0 35 0 35 35 0
35 0 0 35 0 35 30 0 30 0 0 35 0 35 -30 0 -30 0 0 -35z"/>
<path d="M400 775 l0 -35 70 0 70 0 0 -35 0 -35 35 0 35 0 0 35 0 35 -35 0
-35 0 0 35 0 35 -70 0 -70 0 0 -35z"/>
<path d="M880 640 l0 -30 30 0 30 0 0 30 0 30 -30 0 -30 0 0 -30z"/>
<path d="M400 575 l0 -35 35 0 35 0 0 35 0 35 -35 0 -35 0 0 -35z"/>
<path d="M540 505 l0 -35 -35 0 -35 0 0 -65 0 -65 35 0 35 0 0 65 0 65 35 0
35 0 0 35 0 35 -35 0 -35 0 0 -35z"/>
<path d="M740 505 l0 -35 35 0 35 0 0 -35 0 -35 35 0 35 0 0 70 0 70 -70 0
-70 0 0 -35z"/>
<path d="M670 370 l0 -30 35 0 35 0 0 30 0 30 -35 0 -35 0 0 -30z"/>
</g>
</svg>
