<?xml version="1.0" standalone="no"?>
<!DOCTYPE svg PUBLIC "-//W3C//DTD SVG 20010904//EN"
 "http://www.w3.org/TR/2001/REC-SVG-20010904/DTD/svg10.dtd">
<svg version="1.0" xmlns="http://www.w3.org/2000/svg"
 width="468pt" height="468pt" viewBox="0 0 468 468"
 preserveAspectRatio="xMidYMid meet">
<metadata>
Created by potrace 1.8, written by Peter Selinger 2001-2007
</metadata>
<g transform="translate(0,468) scale(0.365625,-0.365625)"
fill="#000000" stroke="none">
<path d="M851 1224 l-13 -15 6 -6 5 -5 16 15 15 16 0 5 0 6 -7 0 -8 -1 -14
-15z"/>
<path d="M900 1235 l0 -6 36 -35 35 -36 7 7 7 8 -12 4 -13 5 0 9 0 9 20 0 20
0 0 -15 0 -16 26 -26 25 -25 6 6 6 6 -21 19 -22 18 0 27 0 26 -29 0 -29 0 -5
13 -5 12 -12 -15 -12 -15 -5 13 -5 12 -9 0 -9 0 0 -5z m60 -25 l0 -10 -10 0
-10 0 0 10 0 10 10 0 10 0 0 -10z"/>
<path d="M760 1210 l0 -10 10 0 10 0 0 10 0 10 -10 0 -10 0 0 -10z"/>
<path d="M800 1210 l0 -10 10 0 10 0 0 10 0 10 -10 0 -10 0 0 -10z"/>
<path d="M720 1190 l0 -10 10 0 10 0 0 10 0 10 -10 0 -10 0 0 -10z"/>
<path d="M880 1190 l0 -10 10 0 10 0 0 10 0 10 -10 0 -10 0 0 -10z"/>
<path d="M1040 1184 l0 -16 41 -39 41 -40 -6 -6 -6 -6 -19 21 -18 22 -7 0 -6
0 0 -20 0 -20 10 0 10 0 0 -20 0 -20 -9 0 -9 0 -5 13 -4 12 -8 -7 -7 -7 37
-37 37 -37 9 14 8 13 7 -6 6 -7 -25 -25 -26 -26 -16 0 -15 0 0 10 0 10 20 0
20 0 0 6 0 5 -14 15 -15 14 -5 0 -6 0 0 -20 0 -20 -9 0 -9 0 -5 13 -4 12 -9
-8 -8 -8 14 -9 14 -9 -24 -21 -24 -21 14 -10 15 -11 -12 -5 -13 -5 0 -49 0
-49 9 0 9 0 5 13 4 12 8 -7 8 -8 -24 -20 -23 -21 14 -9 14 -9 -6 -7 -7 -6 -17
17 -17 17 14 10 14 10 -12 5 -13 5 0 19 0 19 -10 0 -10 0 0 -36 0 -37 -22 -19
-22 -19 13 -9 14 -8 -17 -17 -17 -17 -7 6 -6 7 13 9 14 8 -16 16 -16 16 -14 0
-15 0 -5 -12 -5 -13 -11 15 -10 14 -8 -8 -8 -9 13 -4 12 -5 0 -19 0 -19 10 0
10 0 0 20 0 20 10 0 10 0 0 -16 0 -15 -15 -16 -16 -15 -21 23 -21 24 -4 -12
-5 -13 -19 0 -19 0 0 -9 0 -9 13 -5 12 -4 -7 -8 -8 -8 -20 22 -19 23 -16 -15
-15 -16 0 -25 0 -26 -10 0 -10 0 0 10 0 10 -10 0 -10 0 0 -20 0 -20 -10 0 -10
0 0 20 0 20 -10 0 -10 0 0 -19 0 -19 -12 -5 -13 -4 8 -9 8 -8 9 13 8 14 16
-16 16 -16 0 -14 0 -15 -12 -5 -13 -4 8 -9 8 -8 9 14 9 14 19 -22 19 -22 17 0
16 0 0 -9 0 -9 -12 -5 -13 -5 15 -11 14 -10 -7 -8 -8 -7 -10 14 -9 15 -9 -14
-9 -14 -26 26 -26 26 0 16 0 15 -6 0 -7 0 -18 -21 -18 -21 -17 17 -17 17 14
10 14 10 -12 5 -13 5 0 19 0 19 -10 0 -10 0 0 19 0 19 12 4 13 5 -17 16 -17
17 -5 0 -6 0 0 -49 0 -49 13 -5 12 -5 -15 -12 -15 -12 13 -5 12 -5 0 -18 0
-18 13 -5 12 -4 -7 -8 -7 -7 -16 15 -15 16 0 14 0 15 -12 5 -13 5 15 12 15 12
-12 5 -13 5 0 49 0 49 10 0 10 0 0 19 0 19 13 6 12 6 -12 6 -13 6 0 39 0 39
-10 0 -10 0 0 10 0 10 16 0 17 0 18 22 19 21 7 -6 6 -7 -21 -19 -22 -18 0 -42
0 -42 15 -16 16 -15 19 23 20 22 7 -7 7 -7 -14 -10 -15 -11 13 -5 12 -5 0 -15
0 -14 15 -15 15 -15 16 16 16 16 -21 18 -21 18 0 26 0 25 -12 6 -13 6 13 6 12
6 0 45 0 44 15 15 15 15 52 -53 51 -53 5 13 4 12 19 0 19 0 0 20 0 20 20 0 20
0 0 19 0 19 13 5 12 4 -25 22 -24 22 13 9 14 8 -17 18 -18 17 -8 -14 -9 -13
-8 8 -8 9 13 4 12 5 0 9 0 9 -20 0 -20 0 0 10 0 10 15 0 16 0 36 -36 36 -36
-13 -8 -13 -8 16 -16 16 -16 11 0 11 0 15 15 15 15 -51 50 -52 51 6 7 7 6 10
-14 11 -15 5 13 5 12 19 0 19 0 0 -10 0 -10 10 0 10 0 0 16 0 16 -31 29 -32
30 7 7 7 6 9 -14 9 -14 7 6 6 7 -18 18 -17 18 -5 -13 -4 -12 -19 0 -19 0 0 9
0 9 12 4 13 5 -18 17 -18 18 -7 -6 -6 -7 13 -9 14 -8 -41 -40 -42 -40 0 -15 0
-15 -12 -6 -13 -6 13 -6 12 -6 0 -19 0 -19 10 0 10 0 0 -19 0 -19 -12 -5 -13
-5 15 -11 14 -10 -6 -7 -7 -6 -18 18 -18 17 13 5 12 4 0 19 0 19 -9 0 -9 0 -4
-12 -4 -12 -27 26 -27 27 0 16 0 15 -10 0 -10 0 0 40 0 40 -6 0 -5 0 -16 -16
-16 -16 14 -9 14 -9 -15 -9 -14 -10 23 -21 24 -20 -6 -6 -6 -6 -27 27 -27 27
14 9 14 9 -15 11 -15 11 13 5 12 5 0 19 0 19 20 0 20 0 0 10 0 10 -19 0 -19 0
-5 -12 -5 -13 -11 15 -10 14 -8 -8 -8 -9 13 -4 12 -5 0 -19 0 -19 -10 0 -10 0
0 -30 0 -30 -10 0 -10 0 0 29 0 29 12 4 13 5 -17 16 -17 17 -14 0 -15 0 -5
-12 -5 -13 -11 15 -11 15 -10 -15 -10 -15 -9 15 -10 14 -8 -7 -7 -8 14 -10 15
-11 -12 -5 -13 -5 0 -19 0 -19 -10 0 -10 0 0 19 0 19 -12 5 -13 5 15 11 14 10
-6 7 -7 6 -25 -25 -26 -26 0 -16 0 -15 -9 0 -9 0 -5 13 -4 12 -22 -25 -22 -24
-9 14 -9 14 -8 -8 -8 -9 13 -4 12 -5 0 -14 0 -15 -45 -44 -44 -45 -16 0 -15 0
0 9 0 9 13 5 12 4 -7 8 -7 7 -17 -17 -17 -17 14 -8 13 -9 -24 -21 -24 -21 14
-10 15 -11 -12 -5 -13 -5 0 -28 0 -28 13 -5 12 -5 -15 -12 -15 -12 13 -5 12
-5 0 -29 0 -29 10 0 10 0 0 -15 0 -15 65 -65 65 -65 15 0 15 0 0 -10 0 -10 30
0 30 0 0 -10 0 -10 29 0 29 0 5 -12 5 -13 10 14 10 14 36 -36 36 -36 0 -16 0
-15 16 0 16 0 28 -30 28 -30 16 0 16 0 0 -10 0 -10 20 0 20 0 0 -10 0 -10 19
0 19 0 5 -12 5 -13 12 15 12 15 5 -12 5 -13 49 0 49 0 0 10 0 10 30 0 30 0 0
10 0 10 15 0 16 0 34 35 35 34 0 16 0 15 10 0 10 0 0 30 0 30 10 0 10 0 0 79
0 79 -12 5 -13 5 15 12 15 12 -12 5 -13 5 0 49 0 49 20 0 20 0 0 20 0 20 10 0
10 0 0 20 0 20 10 0 10 0 0 30 0 30 10 0 10 0 0 90 0 90 -10 0 -10 0 0 25 0
26 -45 44 -44 45 -6 0 -5 0 0 -16z m-540 -104 l0 -20 10 0 10 0 0 20 0 20 20
0 20 0 0 -5 0 -6 -27 -27 -27 -26 -4 12 -4 12 -9 0 -9 0 0 -20 0 -20 -10 0
-10 0 0 20 0 20 10 0 10 0 0 20 0 20 10 0 10 0 0 -20z m-100 -19 l0 -19 -12
-5 -13 -5 15 -11 14 -10 -7 -8 -8 -7 -10 14 -9 15 -11 -15 -11 -15 -5 13 -5
12 -9 0 -9 0 0 -19 0 -19 13 -5 12 -4 -7 -8 -7 -7 -16 15 -15 16 0 11 0 11 16
16 16 16 8 -13 8 -13 16 16 16 16 0 15 0 16 10 0 10 0 0 -19z m460 9 l0 -10
-10 0 -10 0 0 10 0 10 10 0 10 0 0 -10z m267 -25 l15 -16 -6 -7 -7 -6 -10 14
-9 15 -9 -15 -10 -14 -6 6 -7 7 13 15 14 15 3 1 3 0 16 -15z m-307 -15 l0 -10
-20 0 -20 0 0 10 0 10 20 0 20 0 0 -10z m-380 -20 l0 -10 -10 0 -10 0 0 10 0
10 10 0 10 0 0 -10z m80 0 l0 -10 -10 0 -10 0 0 10 0 10 10 0 10 0 0 -10z m40
-20 l0 -10 -10 0 -10 0 0 10 0 10 10 0 10 0 0 -10z m40 0 l0 -10 -10 0 -10 0
0 10 0 10 10 0 10 0 0 -10z m-300 -36 l0 -7 -22 -19 -22 -19 14 -9 14 -9 -6
-7 -7 -6 -16 16 -16 16 23 24 23 25 8 0 7 1 0 -6z m380 -4 l0 -10 -10 0 -10 0
0 10 0 10 10 0 10 0 0 -10z m-340 -20 l0 -10 -10 0 -10 0 0 10 0 10 10 0 10 0
0 -10z m720 -19 l0 -29 13 -5 12 -4 -9 -9 -9 -9 -4 13 -5 12 -9 0 -9 0 0 -30
0 -30 -10 0 -10 0 0 29 0 29 13 5 12 5 -14 10 -14 10 14 16 14 15 8 1 7 0 0
-29z m-537 -3 l5 -13 10 14 10 14 17 -17 17 -17 -7 -7 -8 -7 -4 13 -5 12 -9 0
-9 0 0 -19 0 -19 12 -4 12 -4 -37 -37 -36 -37 -16 0 -15 0 0 -10 0 -10 -10 0
-10 0 0 20 0 20 -10 0 -10 0 0 -20 0 -20 10 0 10 0 0 -40 0 -40 10 0 10 0 0
-30 0 -30 10 0 10 0 0 30 0 30 -10 0 -10 0 0 40 0 40 20 0 20 0 0 -9 0 -9 -12
-5 -13 -5 15 -11 15 -11 -15 -11 -15 -11 13 -5 12 -5 0 -29 0 -29 -10 0 -10 0
0 -50 0 -50 -10 0 -10 0 0 40 0 40 -20 0 -20 0 0 -9 0 -9 13 -5 12 -4 -8 -9
-8 -8 -10 14 -9 15 -9 -15 -10 -14 -7 6 -7 7 32 30 31 29 0 26 0 26 -10 0 -10
0 0 30 0 30 -10 0 -10 0 0 -30 0 -30 10 0 10 0 0 -30 0 -30 -16 0 -17 0 -18
-22 -19 -21 -7 7 -7 7 13 9 14 8 -17 18 -18 17 -8 -14 -9 -13 -21 24 -21 24
-9 -14 -9 -14 -7 7 -7 7 23 20 23 20 -32 29 -31 29 0 16 0 16 10 0 10 0 0 -16
0 -15 15 -15 15 -15 26 26 27 27 -14 8 -13 9 6 7 7 6 17 -16 16 -17 -22 -19
-22 -19 15 -16 16 -15 5 0 6 0 0 29 0 29 13 6 12 6 -12 6 -13 6 0 19 0 19 10
0 10 0 0 20 0 20 10 0 10 0 0 20 0 20 20 0 20 0 0 10 0 10 49 0 49 0 5 -12z
m197 2 l0 -10 -10 0 -10 0 0 10 0 10 10 0 10 0 0 -10z m100 -10 l0 -20 10 0
10 0 0 -20 0 -20 -10 0 -10 0 0 20 0 20 -10 0 -10 0 0 20 0 20 10 0 10 0 0
-20z m100 10 l0 -10 -10 0 -10 0 0 10 0 10 10 0 10 0 0 -10z m180 0 l0 -10
-10 0 -10 0 0 10 0 10 10 0 10 0 0 -10z m40 0 l0 -10 -10 0 -10 0 0 10 0 10
10 0 10 0 0 -10z m-914 -24 l14 -15 0 -14 0 -15 -12 -5 -13 -5 15 -11 14 -10
-6 -7 -7 -6 -18 18 -18 17 13 5 12 4 0 19 0 19 -10 0 -10 0 0 -10 0 -10 -20 0
-20 0 0 -9 0 -9 13 -6 12 -6 -12 -6 -13 -6 0 -29 0 -29 -10 0 -10 0 0 29 0 29
13 5 12 5 -14 10 -14 10 16 16 16 16 15 0 16 0 0 10 0 10 6 0 5 0 15 -14z
m114 4 l0 -10 -10 0 -10 0 0 10 0 10 10 0 10 0 0 -10z m280 -16 l0 -5 -15 -16
-16 -15 -5 5 -6 6 13 15 14 15 8 1 7 0 0 -6z m500 -4 l0 -10 -10 0 -10 0 0 10
0 10 10 0 10 0 0 -10z m-840 -20 l0 -10 -10 0 -10 0 0 10 0 10 10 0 10 0 0
-10z m40 0 l0 -10 -10 0 -10 0 0 10 0 10 10 0 10 0 0 -10z m420 0 l0 -10 -10
0 -10 0 0 10 0 10 10 0 10 0 0 -10z m47 -5 l15 -16 -5 -6 -6 -5 -16 15 -15 16
0 5 0 6 6 0 5 0 16 -15z m313 -11 l0 -5 -15 -16 -16 -15 -5 5 -6 6 13 15 14
15 8 1 7 0 0 -6z m-820 -24 l0 -10 -10 0 -10 0 0 10 0 10 10 0 10 0 0 -10z
m-80 -20 l0 -10 -10 0 -10 0 0 10 0 10 10 0 10 0 0 -10z m80 -20 l0 -10 -10 0
-10 0 0 10 0 10 10 0 10 0 0 -10z m320 0 l0 -10 -10 0 -10 0 0 10 0 10 10 0
10 0 0 -10z m-440 -40 l0 -10 -10 0 -10 0 0 10 0 10 10 0 10 0 0 -10z m40 0
l0 -10 -10 0 -10 0 0 10 0 10 10 0 10 0 0 -10z m400 4 l0 -5 -15 -16 -16 -15
-5 5 -6 6 13 15 14 15 8 1 7 0 0 -6z m380 -24 l0 -10 -10 0 -10 0 0 10 0 10
10 0 10 0 0 -10z m-800 -20 l0 -10 -10 0 -10 0 0 10 0 10 10 0 10 0 0 -10z
m60 0 l0 -10 -10 0 -10 0 0 10 0 10 10 0 10 0 0 -10z m-40 -40 l0 -10 -10 0
-10 0 0 10 0 10 10 0 10 0 0 -10z m620 -10 l0 -20 -10 0 -10 0 0 20 0 20 10 0
10 0 0 -20z m140 10 l0 -10 -10 0 -10 0 0 10 0 10 10 0 10 0 0 -10z m-220 -29
l0 -19 13 -5 12 -4 -7 -8 -7 -7 -16 15 -15 16 0 15 0 16 10 0 10 0 0 -19z
m160 9 l0 -10 -10 0 -10 0 0 10 0 10 10 0 10 0 0 -10z m120 0 l0 -10 -10 0
-10 0 0 10 0 10 10 0 10 0 0 -10z m-740 -20 l0 -10 -10 0 -10 0 0 10 0 10 10
0 10 0 0 -10z m580 0 l0 -10 -10 0 -10 0 0 10 0 10 10 0 10 0 0 -10z m-540
-20 l0 -10 -10 0 -10 0 0 10 0 10 10 0 10 0 0 -10z m480 0 l0 -10 -10 0 -10 0
0 10 0 10 10 0 10 0 0 -10z m160 -19 l0 -29 13 -5 12 -4 -22 -20 -23 -20 0
-17 0 -16 9 0 9 0 5 13 4 12 8 -7 8 -8 -21 -19 -22 -18 0 -17 0 -16 -10 0 -10
0 0 19 0 19 12 4 13 5 -18 17 -18 18 -7 -6 -6 -7 14 -10 15 -11 -12 -5 -13 -5
0 -29 0 -29 -10 0 -10 0 0 20 0 20 -6 0 -5 0 -16 -16 -16 -16 14 -8 13 -9 -7
-7 -7 -7 -20 23 -20 23 -20 -23 -20 -23 -7 7 -7 7 14 10 15 11 -12 5 -13 5 0
25 0 24 -14 15 -15 14 -11 0 -11 0 -15 14 -14 15 0 15 0 16 -10 0 -10 0 0 10
0 10 20 0 20 0 0 -30 0 -30 10 0 10 0 0 10 0 10 10 0 10 0 0 -20 0 -20 10 0
10 0 0 10 0 10 20 0 20 0 0 10 0 10 20 0 20 0 0 10 0 10 20 0 20 0 0 10 0 10
20 0 20 0 0 -9 0 -9 -12 -4 -13 -5 18 -17 18 -18 7 6 6 7 -14 10 -15 11 13 5
12 5 0 29 0 29 10 0 10 0 0 -29z m60 -1 l0 -10 -10 0 -10 0 0 10 0 10 10 0 10
0 0 -10z m-660 -20 l0 -10 -10 0 -10 0 0 10 0 10 10 0 10 0 0 -10z m380 0 l0
-10 -10 0 -10 0 0 10 0 10 10 0 10 0 0 -10z m-320 -20 l0 -10 -10 0 -10 0 0
10 0 10 10 0 10 0 0 -10z m600 -20 l0 -10 -10 0 -10 0 0 10 0 10 10 0 10 0 0
-10z m-540 -20 l0 -10 -10 0 -10 0 0 10 0 10 10 0 10 0 0 -10z m540 -20 l0
-10 -10 0 -10 0 0 10 0 10 10 0 10 0 0 -10z m-20 -40 l0 -10 -10 0 -10 0 0 10
0 10 10 0 10 0 0 -10z m-400 -16 l0 -5 -15 -16 -16 -15 -5 5 -6 6 13 15 14 15
8 1 7 0 0 -6z m47 -9 l15 -16 -5 -6 -6 -5 -16 15 -15 16 0 5 0 6 6 0 5 0 16
-15z m333 -15 l0 -10 -10 0 -10 0 0 10 0 10 10 0 10 0 0 -10z m-280 -20 l0
-10 -10 0 -10 0 0 10 0 10 10 0 10 0 0 -10z m40 0 l0 -10 -10 0 -10 0 0 10 0
10 10 0 10 0 0 -10z m200 0 l0 -10 -10 0 -10 0 0 10 0 10 10 0 10 0 0 -10z
m-280 -20 l0 -10 -10 0 -10 0 0 10 0 10 10 0 10 0 0 -10z m160 0 l0 -10 -10 0
-10 0 0 10 0 10 10 0 10 0 0 -10z m80 0 l0 -10 -10 0 -10 0 0 10 0 10 10 0 10
0 0 -10z m-180 -20 l0 -10 -10 0 -10 0 0 10 0 10 10 0 10 0 0 -10z m60 -20 l0
-10 -10 0 -10 0 0 10 0 10 10 0 10 0 0 -10z"/>
<path d="M460 890 l0 -10 10 0 10 0 0 -20 0 -20 30 0 30 0 0 10 0 10 -20 0
-20 0 0 9 0 9 13 5 12 4 -8 9 -8 8 -10 -14 -11 -15 -5 13 -5 12 -9 0 -9 0 0
-10z"/>
<path d="M420 855 l0 -6 25 -24 24 -25 16 0 15 0 0 10 0 10 -18 0 -18 0 -14
20 -14 20 -8 0 -8 0 0 -5z"/>
<path d="M280 711 l0 -9 13 -5 12 -5 -14 -10 -14 -10 17 -18 18 -17 8 14 9 13
20 -23 20 -23 17 16 16 17 -23 20 -23 20 14 9 14 9 -7 7 -7 7 -20 -23 -20 -23
-19 21 -18 22 -7 0 -6 0 0 -9z m87 -46 l15 -16 -5 -6 -6 -5 -16 15 -15 16 0 5
0 6 6 0 5 0 16 -15z"/>
<path d="M940 530 l0 -10 10 0 10 0 0 10 0 10 -10 0 -10 0 0 -10z"/>
<path d="M840 470 l0 -10 10 0 10 0 0 10 0 10 -10 0 -10 0 0 -10z"/>
<path d="M780 420 l0 -20 10 0 10 0 0 20 0 20 -10 0 -10 0 0 -20z"/>
<path d="M820 410 l0 -10 10 0 10 0 0 10 0 10 -10 0 -10 0 0 -10z"/>
<path d="M420 1150 l0 -10 10 0 10 0 0 10 0 10 -10 0 -10 0 0 -10z"/>
<path d="M480 1150 l0 -10 10 0 10 0 0 10 0 10 -10 0 -10 0 0 -10z"/>
<path d="M540 1150 l0 -10 10 0 10 0 0 10 0 10 -10 0 -10 0 0 -10z"/>
<path d="M680 1150 l0 -10 10 0 10 0 0 10 0 10 -10 0 -10 0 0 -10z"/>
<path d="M760 1150 l0 -10 10 0 10 0 0 -20 0 -20 -6 0 -7 0 -20 23 -20 22 -4
-12 -5 -13 -19 0 -19 0 0 -10 0 -10 19 0 19 0 5 13 4 12 9 -8 8 -8 -14 -10
-15 -9 15 -11 15 -11 -12 -5 -13 -5 0 -19 0 -19 -10 0 -10 0 0 20 0 20 10 0
10 0 0 10 0 10 -20 0 -20 0 0 -30 0 -30 10 0 10 0 0 -16 0 -15 14 -15 15 -14
5 0 6 0 0 19 0 19 -12 6 -13 6 13 6 12 6 0 15 0 15 30 28 30 28 0 12 0 11 -14
15 -15 14 -5 0 -6 0 0 -10z"/>
<path d="M340 1130 l0 -10 10 0 10 0 0 10 0 10 -10 0 -10 0 0 -10z"/>
<path d="M980 1135 l0 -6 26 -26 25 -25 6 5 5 6 -25 25 -26 26 -6 0 -5 0 0 -5z"/>
<path d="M300 1114 l0 -5 15 -16 16 -15 6 5 5 6 -15 16 -16 15 -5 0 -6 0 0 -6z"/>
<path d="M240 1070 l0 -10 10 0 10 0 0 10 0 10 -10 0 -10 0 0 -10z"/>
<path d="M280 1070 l0 -10 10 0 10 0 0 10 0 10 -10 0 -10 0 0 -10z"/>
<path d="M211 1024 l-13 -15 6 -6 5 -5 16 15 15 16 0 5 0 6 -7 0 -8 -1 -14
-15z"/>
<path d="M1020 1010 l0 -10 10 0 10 0 0 10 0 10 -10 0 -10 0 0 -10z"/>
<path d="M227 977 l-18 -22 -9 15 -9 14 -7 -6 -6 -7 16 -16 16 -16 25 25 25
25 0 6 0 5 -7 0 -8 0 -18 -23z"/>
<path d="M920 970 l0 -10 10 0 10 0 0 10 0 10 -10 0 -10 0 0 -10z"/>
<path d="M960 850 l0 -10 10 0 10 0 0 10 0 10 -10 0 -10 0 0 -10z"/>
<path d="M920 810 l0 -10 10 0 10 0 0 10 0 10 -10 0 -10 0 0 -10z"/>
<path d="M880 790 l0 -10 10 0 10 0 0 10 0 10 -10 0 -10 0 0 -10z"/>
<path d="M920 760 l0 -20 -9 0 -9 0 -5 13 -4 12 -8 -7 -7 -7 16 -16 16 -16 15
15 15 15 0 15 0 16 -10 0 -10 0 0 -20z"/>
<path d="M660 694 l0 -5 15 -16 16 -15 6 5 5 6 -15 16 -16 15 -5 0 -6 0 0 -6z"/>
<path d="M720 690 l0 -10 10 0 10 0 0 10 0 10 -10 0 -10 0 0 -10z"/>
<path d="M760 690 l0 -10 10 0 10 0 0 10 0 10 -10 0 -10 0 0 -10z"/>
<path d="M540 644 l0 -15 16 -16 16 -16 8 14 9 13 7 -7 7 -7 -21 -19 -22 -18
0 -17 0 -16 10 0 10 0 0 -19 0 -19 13 -5 12 -5 -15 -11 -14 -10 6 -7 7 -6 25
25 26 26 0 16 0 15 -9 0 -9 0 -4 -12 -5 -13 -19 19 -19 19 13 5 12 4 0 18 0
18 13 6 12 6 -12 6 -13 6 0 19 0 19 -9 0 -9 0 -6 -12 -6 -13 -6 13 -6 12 -9 0
-9 0 0 -16z"/>
<path d="M660 464 l0 -15 14 -15 15 -14 5 0 6 0 0 16 0 15 -14 15 -15 14 -5 0
-6 0 0 -16z"/>
<path d="M0 100 l0 -100 640 0 640 0 0 100 0 100 -640 0 -640 0 0 -100z"/>
</g>
</svg>
