<?xml version="1.0" standalone="no"?>
<!DOCTYPE svg PUBLIC "-//W3C//DTD SVG 20010904//EN"
 "http://www.w3.org/TR/2001/REC-SVG-20010904/DTD/svg10.dtd">
<svg version="1.0" xmlns="http://www.w3.org/2000/svg"
 width="468pt" height="468pt" viewBox="0 0 468 468"
 preserveAspectRatio="xMidYMid meet">
<metadata>
Created by potrace 1.8, written by Peter Selinger 2001-2007
</metadata>
<g transform="translate(0,468) scale(0.365625,-0.365625)"
fill="#000000" stroke="none">
<path d="M380 1120 l0 -160 -30 0 -30 0 0 -65 0 -65 -30 0 -30 0 0 -65 0 -65
-35 0 -35 0 0 -60 0 -60 -30 0 -30 0 0 -65 0 -65 -35 0 -35 0 0 -65 0 -65 160
0 160 0 0 -30 0 -30 -190 0 -190 0 0 -65 0 -65 30 0 30 0 0 -65 0 -65 515 0
515 0 0 30 0 30 30 0 30 0 0 35 0 35 35 0 35 0 0 30 0 30 30 0 30 0 0 35 0 35
-415 0 -415 0 0 415 0 415 30 0 30 0 0 -385 0 -385 320 0 320 0 0 30 0 30 35
0 35 0 0 35 0 35 -35 0 -35 0 0 30 0 30 -30 0 -30 0 0 35 0 35 -35 0 -35 0 0
30 0 30 -30 0 -30 0 0 30 0 30 -30 0 -30 0 0 35 0 35 -35 0 -35 0 0 30 0 30
-30 0 -30 0 0 35 0 35 -35 0 -35 0 0 30 0 30 -30 0 -30 0 0 30 0 30 -30 0 -30
0 0 35 0 35 -35 0 -35 0 0 30 0 30 -30 0 -30 0 0 65 0 65 -35 0 -35 0 0 -160z
m260 -255 l0 -35 30 0 30 0 0 -30 0 -30 35 0 35 0 0 -35 0 -35 30 0 30 0 0
-30 0 -30 35 0 35 0 0 -30 0 -30 30 0 30 0 0 -35 0 -35 30 0 30 0 0 -30 0 -30
35 0 35 0 0 -35 0 -35 -255 0 -255 0 0 260 0 260 30 0 30 0 0 -35z m-260 -260
l0 -225 -125 0 -125 0 0 35 0 35 30 0 30 0 0 65 0 65 35 0 35 0 0 60 0 60 30
0 30 0 0 65 0 65 30 0 30 0 0 -225z m710 -445 l0 -30 -65 0 -65 0 0 -35 0 -35
-385 0 -385 0 0 35 0 35 -30 0 -30 0 0 30 0 30 480 0 480 0 0 -30z"/>
</g>
</svg>
