<?xml version="1.0" standalone="no"?>
<!DOCTYPE svg PUBLIC "-//W3C//DTD SVG 20010904//EN"
 "http://www.w3.org/TR/2001/REC-SVG-20010904/DTD/svg10.dtd">
<svg version="1.0" xmlns="http://www.w3.org/2000/svg"
 width="468pt" height="468pt" viewBox="0 0 468 468"
 preserveAspectRatio="xMidYMid meet">
<metadata>
Created by potrace 1.8, written by Peter Selinger 2001-2007
</metadata>
<g transform="translate(0,468) scale(0.365625,-0.365625)"
fill="#000000" stroke="none">
<path d="M0 640 l0 -640 640 0 640 0 0 640 0 640 -640 0 -640 0 0 -640z m230
460 l0 -20 -15 0 -15 0 0 20 0 20 15 0 15 0 0 -20z m330 0 l0 -20 -15 0 -15 0
0 20 0 20 15 0 15 0 0 -20z m-400 -35 l0 -15 -15 0 -15 0 0 15 0 15 15 0 15 0
0 -15z m140 0 l0 -15 -20 0 -20 0 0 15 0 15 20 0 20 0 0 -15z m550 -15 l0 -30
35 0 35 0 0 -20 0 -20 -35 0 -35 0 0 -30 0 -30 -15 0 -15 0 0 30 0 30 -35 0
-35 0 0 20 0 20 35 0 35 0 0 30 0 30 15 0 15 0 0 -30z m270 15 l0 -15 -20 0
-20 0 0 15 0 15 20 0 20 0 0 -15z m-890 -30 l0 -15 15 0 15 0 0 -20 0 -20 -15
0 -15 0 0 -15 0 -15 -15 0 -15 0 0 15 0 15 -20 0 -20 0 0 20 0 20 20 0 20 0 0
15 0 15 15 0 15 0 0 -15z m330 0 l0 -15 15 0 15 0 0 -20 0 -20 -15 0 -15 0 0
-15 0 -15 -15 0 -15 0 0 15 0 15 -20 0 -20 0 0 20 0 20 20 0 20 0 0 15 0 15
15 0 15 0 0 -15z m-430 -35 l0 -20 -15 0 -15 0 0 20 0 20 15 0 15 0 0 -20z
m200 0 l0 -20 -15 0 -15 0 0 20 0 20 15 0 15 0 0 -20z m130 0 l0 -20 -15 0
-15 0 0 20 0 20 15 0 15 0 0 -20z m200 0 l0 -20 -20 0 -20 0 0 20 0 20 20 0
20 0 0 -20z m390 0 l0 -20 -15 0 -15 0 0 20 0 20 15 0 15 0 0 -20z m70 0 l0
-20 -20 0 -20 0 0 20 0 20 20 0 20 0 0 -20z m60 0 l0 -20 -15 0 -15 0 0 20 0
20 15 0 15 0 0 -20z m-1020 -65 l0 -15 -15 0 -15 0 0 15 0 15 15 0 15 0 0 -15z
m140 0 l0 -15 -20 0 -20 0 0 15 0 15 20 0 20 0 0 -15z m820 0 l0 -15 -20 0
-20 0 0 15 0 15 20 0 20 0 0 -15z m-890 -30 l0 -15 -15 0 -15 0 0 15 0 15 15
0 15 0 0 -15z m330 0 l0 -15 -15 0 -15 0 0 15 0 15 15 0 15 0 0 -15z m-330
-185 l0 -30 15 0 15 0 0 -15 0 -15 35 0 35 0 0 -20 0 -20 -35 0 -35 0 0 -15 0
-15 -15 0 -15 0 0 -30 0 -30 -15 0 -15 0 0 30 0 30 -20 0 -20 0 0 -15 0 -15
-15 0 -15 0 0 15 0 15 15 0 15 0 0 15 0 15 -30 0 -30 0 0 20 0 20 30 0 30 0 0
15 0 15 -15 0 -15 0 0 15 0 15 15 0 15 0 0 -15 0 -15 20 0 20 0 0 30 0 30 15
0 15 0 0 -30z m70 -15 l0 -15 -20 0 -20 0 0 15 0 15 20 0 20 0 0 -15z m260 0
l0 -15 15 0 15 0 0 -15 0 -15 15 0 15 0 0 -20 0 -20 -15 0 -15 0 0 -15 0 -15
-15 0 -15 0 0 -15 0 -15 -15 0 -15 0 0 15 0 15 -20 0 -20 0 0 15 0 15 -15 0
-15 0 0 20 0 20 15 0 15 0 0 15 0 15 20 0 20 0 0 15 0 15 15 0 15 0 0 -15z
m290 -30 l0 -15 20 0 20 0 0 -20 0 -20 -20 0 -20 0 0 -15 0 -15 -15 0 -15 0 0
15 0 15 -15 0 -15 0 0 20 0 20 15 0 15 0 0 15 0 15 15 0 15 0 0 -15z m270 0
l0 -15 15 0 15 0 0 -20 0 -20 -15 0 -15 0 0 -15 0 -15 -20 0 -20 0 0 15 0 15
-15 0 -15 0 0 20 0 20 15 0 15 0 0 15 0 15 20 0 20 0 0 -15z m-820 -100 l0
-15 -20 0 -20 0 0 15 0 15 20 0 20 0 0 -15z m-140 -230 l0 -15 -15 0 -15 0 0
15 0 15 15 0 15 0 0 -15z m70 -15 l0 -30 -15 0 -15 0 0 -20 0 -20 15 0 15 0 0
-30 0 -30 -15 0 -15 0 0 30 0 30 -35 0 -35 0 0 20 0 20 35 0 35 0 0 30 0 30
15 0 15 0 0 -30z m70 15 l0 -15 -20 0 -20 0 0 15 0 15 20 0 20 0 0 -15z m260
-15 l0 -30 30 0 30 0 0 -20 0 -20 -30 0 -30 0 0 -30 0 -30 -15 0 -15 0 0 30 0
30 -35 0 -35 0 0 20 0 20 35 0 35 0 0 30 0 30 15 0 15 0 0 -30z m260 -15 l0
-15 15 0 15 0 0 15 0 15 20 0 20 0 0 -15 0 -15 -20 0 -20 0 0 -20 0 -20 20 0
20 0 0 -15 0 -15 -20 0 -20 0 0 15 0 15 -15 0 -15 0 0 -15 0 -15 -15 0 -15 0
0 15 0 15 15 0 15 0 0 20 0 20 -15 0 -15 0 0 15 0 15 15 0 15 0 0 -15z m-520
-35 l0 -20 -35 0 -35 0 0 20 0 20 35 0 35 0 0 -20z m820 0 l0 -20 -20 0 -20 0
0 20 0 20 20 0 20 0 0 -20z m-960 -65 l0 -15 -15 0 -15 0 0 15 0 15 15 0 15 0
0 -15z m140 0 l0 -15 -20 0 -20 0 0 15 0 15 20 0 20 0 0 -15z"/>
<path d="M1080 640 l0 -20 20 0 20 0 0 20 0 20 -20 0 -20 0 0 -20z"/>
<path d="M530 280 l0 -20 15 0 15 0 0 20 0 20 -15 0 -15 0 0 -20z"/>
</g>
</svg>
