<?xml version="1.0" standalone="no"?>
<!DOCTYPE svg PUBLIC "-//W3C//DTD SVG 20010904//EN"
 "http://www.w3.org/TR/2001/REC-SVG-20010904/DTD/svg10.dtd">
<svg version="1.0" xmlns="http://www.w3.org/2000/svg"
 width="468pt" height="468pt" viewBox="0 0 468 468"
 preserveAspectRatio="xMidYMid meet">
<metadata>
Created by potrace 1.8, written by Peter Selinger 2001-2007
</metadata>
<g transform="translate(0,468) scale(0.365625,-0.365625)"
fill="#000000" stroke="none">
<path d="M120 1250 l0 -30 -30 0 -30 0 0 -30 0 -30 -30 0 -30 0 0 -25 0 -25
30 0 30 0 0 -30 0 -30 -30 0 -30 0 0 -30 0 -30 30 0 30 0 0 -30 0 -30 -30 0
-30 0 0 -30 0 -30 30 0 30 0 0 -30 0 -30 -30 0 -30 0 0 -25 0 -25 30 0 30 0 0
-30 0 -30 -30 0 -30 0 0 -30 0 -30 30 0 30 0 0 -30 0 -30 -30 0 -30 0 0 -30 0
-30 30 0 30 0 0 -25 0 -25 -30 0 -30 0 0 -30 0 -30 30 0 30 0 0 -30 0 -30 -30
0 -30 0 0 -30 0 -30 30 0 30 0 0 -30 0 -30 -30 0 -30 0 0 -30 0 -30 30 0 30 0
0 -25 0 -25 -30 0 -30 0 0 -30 0 -30 30 0 30 0 0 -30 0 -30 30 0 30 0 0 30 0
30 -30 0 -30 0 0 30 0 30 30 0 30 0 0 25 0 25 -30 0 -30 0 0 30 0 30 30 0 30
0 0 30 0 30 -30 0 -30 0 0 30 0 30 30 0 30 0 0 30 0 30 -30 0 -30 0 0 30 0 30
30 0 30 0 0 25 0 25 -30 0 -30 0 0 30 0 30 30 0 30 0 0 30 0 30 -30 0 -30 0 0
30 0 30 30 0 30 0 0 30 0 30 -30 0 -30 0 0 25 0 25 30 0 30 0 0 30 0 30 -30 0
-30 0 0 30 0 30 30 0 30 0 0 30 0 30 -30 0 -30 0 0 30 0 30 30 0 30 0 0 30 0
30 -30 0 -30 0 0 25 0 25 30 0 30 0 0 30 0 30 25 0 25 0 0 -30 0 -30 30 0 30
0 0 30 0 30 30 0 30 0 0 -30 0 -30 30 0 30 0 0 30 0 30 30 0 30 0 0 -30 0 -30
30 0 30 0 0 30 0 30 25 0 25 0 0 -30 0 -30 30 0 30 0 0 30 0 30 30 0 30 0 0
-30 0 -30 30 0 30 0 0 30 0 30 30 0 30 0 0 -30 0 -30 25 0 25 0 0 30 0 30 30
0 30 0 0 -30 0 -30 30 0 30 0 0 30 0 30 30 0 30 0 0 -30 0 -30 30 0 30 0 0 30
0 30 30 0 30 0 0 -30 0 -30 25 0 25 0 0 -25 0 -25 -25 0 -25 0 0 -30 0 -30 25
0 25 0 0 -30 0 -30 -25 0 -25 0 0 -30 0 -30 25 0 25 0 0 -30 0 -30 -25 0 -25
0 0 -30 0 -30 25 0 25 0 0 -25 0 -25 -25 0 -25 0 0 -30 0 -30 25 0 25 0 0 -30
0 -30 -25 0 -25 0 0 -30 0 -30 25 0 25 0 0 -30 0 -30 -25 0 -25 0 0 -25 0 -25
25 0 25 0 0 -30 0 -30 -25 0 -25 0 0 -30 0 -30 25 0 25 0 0 -30 0 -30 -25 0
-25 0 0 -30 0 -30 25 0 25 0 0 -30 0 -30 -25 0 -25 0 0 -25 0 -25 25 0 25 0 0
-30 0 -30 -25 0 -25 0 0 -30 0 -30 55 0 55 0 0 30 0 30 30 0 30 0 0 30 0 30
-30 0 -30 0 0 25 0 25 30 0 30 0 0 30 0 30 -30 0 -30 0 0 30 0 30 30 0 30 0 0
30 0 30 -30 0 -30 0 0 30 0 30 30 0 30 0 0 30 0 30 -30 0 -30 0 0 25 0 25 30
0 30 0 0 30 0 30 -30 0 -30 0 0 30 0 30 30 0 30 0 0 30 0 30 -30 0 -30 0 0 30
0 30 30 0 30 0 0 25 0 25 -30 0 -30 0 0 30 0 30 30 0 30 0 0 30 0 30 -30 0
-30 0 0 30 0 30 30 0 30 0 0 30 0 30 -30 0 -30 0 0 30 0 30 30 0 30 0 0 25 0
25 -30 0 -30 0 0 30 0 30 -55 0 -55 0 0 30 0 30 -30 0 -30 0 0 -30 0 -30 -30
0 -30 0 0 30 0 30 -30 0 -30 0 0 -30 0 -30 -30 0 -30 0 0 30 0 30 -30 0 -30 0
0 -30 0 -30 -25 0 -25 0 0 30 0 30 -30 0 -30 0 0 -30 0 -30 -30 0 -30 0 0 30
0 30 -30 0 -30 0 0 -30 0 -30 -30 0 -30 0 0 30 0 30 -25 0 -25 0 0 -30 0 -30
-30 0 -30 0 0 30 0 30 -30 0 -30 0 0 -30 0 -30 -30 0 -30 0 0 30 0 30 -30 0
-30 0 0 -30 0 -30 -30 0 -30 0 0 30 0 30 -25 0 -25 0 0 -30z"/>
<path d="M170 960 l0 -150 235 0 235 0 0 -25 0 -25 -235 0 -235 0 0 -30 0 -30
235 0 235 0 0 -30 0 -30 -235 0 -235 0 0 -30 0 -30 235 0 235 0 0 -30 0 -30
85 0 85 0 0 -25 0 -25 120 0 120 0 0 25 0 25 -120 0 -120 0 0 30 0 30 120 0
120 0 0 30 0 30 -120 0 -120 0 0 30 0 30 120 0 120 0 0 30 0 30 -120 0 -120 0
0 25 0 25 120 0 120 0 0 30 0 30 -120 0 -120 0 0 30 0 30 120 0 120 0 0 30 0
30 -120 0 -120 0 0 30 0 30 -85 0 -85 0 0 30 0 30 -235 0 -235 0 0 -150z m120
60 l0 -30 -30 0 -30 0 0 30 0 30 30 0 30 0 0 -30z m230 0 l0 -30 -25 0 -25 0
0 30 0 30 25 0 25 0 0 -30z m120 0 l0 -30 85 0 85 0 0 -30 0 -30 -85 0 -85 0
0 -30 0 -30 85 0 85 0 0 -30 0 -30 -85 0 -85 0 0 30 0 30 -30 0 -30 0 0 30 0
30 30 0 30 0 0 30 0 30 -30 0 -30 0 0 30 0 30 30 0 30 0 0 -30z m-230 -60 l0
-30 -30 0 -30 0 0 30 0 30 30 0 30 0 0 -30z m-120 -60 l0 -30 -30 0 -30 0 0
30 0 30 30 0 30 0 0 -30z m230 0 l0 -30 -25 0 -25 0 0 30 0 30 25 0 25 0 0
-30z m290 -170 l0 -30 -85 0 -85 0 0 30 0 30 85 0 85 0 0 -30z m0 -120 l0 -30
-85 0 -85 0 0 30 0 30 85 0 85 0 0 -30z"/>
<path d="M290 380 l0 -30 -30 0 -30 0 0 -30 0 -30 30 0 30 0 0 30 0 30 60 0
60 0 0 -60 0 -60 -30 0 -30 0 0 -30 0 -30 -30 0 -30 0 0 -25 0 -25 -30 0 -30
0 0 -60 0 -60 120 0 120 0 0 60 0 60 -30 0 -30 0 0 -30 0 -30 -60 0 -60 0 0
30 0 30 30 0 30 0 0 25 0 25 30 0 30 0 0 30 0 30 30 0 30 0 0 60 0 60 -30 0
-30 0 0 30 0 30 -60 0 -60 0 0 -30z"/>
<path d="M580 380 l0 -30 -30 0 -30 0 0 -145 0 -145 30 0 30 0 0 -30 0 -30 60
0 60 0 0 30 0 30 30 0 30 0 0 145 0 145 -30 0 -30 0 0 30 0 30 -60 0 -60 0 0
-30z m120 -175 l0 -145 -60 0 -60 0 0 145 0 145 60 0 60 0 0 -145z"/>
<path d="M870 200 l0 -30 -30 0 -30 0 0 -55 0 -55 30 0 30 0 0 -30 0 -30 60 0
60 0 0 30 0 30 -60 0 -60 0 0 55 0 55 60 0 60 0 0 30 0 30 -60 0 -60 0 0 -30z"/>
</g>
</svg>
