<?xml version="1.0" standalone="no"?>
<!DOCTYPE svg PUBLIC "-//W3C//DTD SVG 20010904//EN"
 "http://www.w3.org/TR/2001/REC-SVG-20010904/DTD/svg10.dtd">
<svg version="1.0" xmlns="http://www.w3.org/2000/svg"
 width="468pt" height="468pt" viewBox="0 0 468 468"
 preserveAspectRatio="xMidYMid meet">
<metadata>
Created by potrace 1.8, written by Peter Selinger 2001-2007
</metadata>
<g transform="translate(0,468) scale(0.365625,-0.365625)"
fill="#000000" stroke="none">
<path d="M0 1240 l0 -40 40 0 40 0 0 -40 0 -40 -40 0 -40 0 0 -560 0 -560 160
0 160 0 0 40 0 40 40 0 40 0 0 -40 0 -40 280 0 280 0 0 40 0 40 40 0 40 0 0
-40 0 -40 120 0 120 0 0 40 0 40 -40 0 -40 0 0 40 0 40 40 0 40 0 0 560 0 560
-640 0 -640 0 0 -40z m800 -80 l0 -40 -40 0 -40 0 0 40 0 40 40 0 40 0 0 -40z
m-240 -80 l0 -40 -40 0 -40 0 0 40 0 40 40 0 40 0 0 -40z m480 -80 l0 -40 -40
0 -40 0 0 40 0 40 40 0 40 0 0 -40z m-800 -80 l0 -40 -40 0 -40 0 0 40 0 40
40 0 40 0 0 -40z m960 -80 l0 -40 -40 0 -40 0 0 40 0 40 40 0 40 0 0 -40z
m-720 -80 l0 -40 -40 0 -40 0 0 40 0 40 40 0 40 0 0 -40z m400 0 l0 -40 -40 0
-40 0 0 40 0 40 40 0 40 0 0 -40z m-720 -160 l0 -40 -40 0 -40 0 0 40 0 40 40
0 40 0 0 -40z m320 -80 l0 -40 -40 0 -40 0 0 40 0 40 40 0 40 0 0 -40z m640 0
l0 -40 -40 0 -40 0 0 40 0 40 40 0 40 0 0 -40z m-400 -80 l0 -40 -40 0 -40 0
0 40 0 40 40 0 40 0 0 -40z m-480 -160 l0 -40 -40 0 -40 0 0 40 0 40 40 0 40
0 0 -40z m800 0 l0 -40 -40 0 -40 0 0 40 0 40 40 0 40 0 0 -40z m-320 -160 l0
-40 -40 0 -40 0 0 40 0 40 40 0 40 0 0 -40z"/>
</g>
</svg>
