<?xml version="1.0" standalone="no"?>
<!DOCTYPE svg PUBLIC "-//W3C//DTD SVG 20010904//EN"
 "http://www.w3.org/TR/2001/REC-SVG-20010904/DTD/svg10.dtd">
<svg version="1.0" xmlns="http://www.w3.org/2000/svg"
 width="468pt" height="468pt" viewBox="0 0 468 468"
 preserveAspectRatio="xMidYMid meet">
<metadata>
Created by potrace 1.8, written by Peter Selinger 2001-2007
</metadata>
<g transform="translate(0,468) scale(0.365625,-0.365625)"
fill="#000000" stroke="none">
<path d="M0 640 l0 -640 640 0 640 0 0 640 0 640 -640 0 -640 0 0 -640z m473
591 l12 -12 0 -17 0 -17 20 2 20 2 64 14 64 15 21 -7 20 -8 32 10 32 10 36 -7
37 -7 8 -23 9 -22 42 -28 42 -27 -6 -14 -5 -14 22 -16 21 -15 15 0 14 0 -7 8
-8 7 -9 1 -9 2 -12 1 -13 1 15 11 15 11 -20 -7 -20 -6 12 12 12 12 30 -24 30
-24 0 -8 1 -8 -10 6 -10 6 0 -9 0 -10 14 -5 14 -6 6 15 5 14 10 0 10 0 26 -10
26 -10 -16 -23 -15 -24 5 -5 5 -5 -23 3 -22 2 -10 1 -10 1 15 10 15 9 -12 12
-11 11 -11 -20 -10 -19 7 -8 7 -8 -13 7 -12 7 6 11 7 11 -17 -6 -16 -6 4 23 4
23 -14 1 -14 2 -15 2 -15 1 0 9 0 8 -11 0 -10 0 7 -12 7 -11 -11 7 -11 6 10
32 9 32 -5 5 -5 4 0 -13 0 -14 -34 33 -34 33 -14 -5 -13 -5 16 -1 16 -1 16
-18 17 -19 -7 -8 -8 -8 14 8 14 8 -6 -16 -6 -16 9 -6 9 -6 -6 -15 -6 -16 -8
14 -9 13 0 -15 0 -15 -11 15 -11 15 6 -17 5 -18 -10 0 -10 0 6 -10 6 -10 -15
0 -14 0 -5 -7 -4 -8 3 13 3 12 -24 0 -25 0 0 -11 0 -10 9 5 9 6 6 -15 5 -14
-11 -7 -11 -7 7 11 7 12 -10 0 -11 0 0 -12 0 -13 -11 15 -11 15 -5 -12 -5 -13
-14 15 -15 15 6 9 5 10 19 -4 19 -4 6 14 5 14 -14 -5 -13 -6 -11 21 -11 20 0
27 0 27 -6 -5 -6 -6 -2 -19 -3 -18 8 -10 8 -11 -2 -15 -3 -16 -27 -27 -27 -27
0 21 0 20 -8 0 -7 0 -12 -19 -12 -18 -26 3 -27 2 -13 19 -13 18 5 5 4 5 19
-25 19 -25 -6 23 -5 22 15 0 15 0 -2 15 -2 14 -6 6 -6 7 -7 -21 -6 -21 -10 0
-10 0 6 10 7 11 2 61 3 61 -10 -24 -9 -24 -2 -25 -2 -25 -7 -13 -8 -12 12 0
12 0 -5 -5 -5 -6 -21 -4 -20 -4 -6 15 -6 15 10 -6 9 -6 12 23 12 23 -24 -16
-24 -16 0 -11 0 -10 -7 -7 -7 -7 3 -11 3 -12 -4 8 -5 7 -21 0 -22 0 15 9 14
10 10 -6 9 -6 -8 13 -8 13 13 -8 13 -8 -6 10 -6 10 19 41 20 41 0 8 0 8 -19
-31 -19 -32 -11 -6 -10 -7 5 -12 4 -13 -20 -1 -20 -2 3 20 3 19 26 27 26 28 7
25 8 25 -17 -14 -17 -14 5 -14 6 -14 -12 7 -11 7 7 -11 7 -12 -18 6 -18 6 15
-11 15 -11 -43 5 -44 4 12 -14 11 -14 20 4 20 4 -6 -10 -6 -9 -9 5 -9 5 -6
-10 -6 -10 -10 0 -9 0 1 8 1 7 -1 12 -1 12 -19 -4 -19 -3 2 11 2 12 8 14 9 14
-18 14 -19 13 13 0 12 0 -6 11 -7 10 21 23 22 23 45 -2 45 -2 12 -12z m-133
-81 l0 -10 -10 0 -10 0 0 10 0 10 10 0 10 0 0 -10z m28 -72 l-3 -13 26 3 26 2
-2 -17 -1 -18 -9 0 -10 0 2 7 3 7 -15 -5 -15 -6 0 9 0 10 -15 0 -14 0 -5 -14
-5 -13 26 0 26 0 -6 -6 -6 -7 10 -18 10 -19 14 0 13 0 5 13 5 12 1 -17 1 -18
-32 0 -31 0 6 6 6 7 -9 18 -10 18 -21 -4 -20 -4 3 22 3 22 15 18 14 17 8 0 8
0 -2 -12z m-65 -35 l-13 -5 0 -18 0 -18 35 2 35 1 0 -12 0 -12 -17 6 -16 6 8
-14 9 -14 -18 15 -18 14 -17 2 -16 3 19 -15 20 -14 -21 0 -21 0 3 25 2 25 -13
0 -13 0 -10 -19 -10 -18 4 -7 5 -6 -12 10 -12 10 -9 0 -8 0 7 -12 7 -13 -14
13 -13 12 -9 0 -8 0 7 -12 7 -11 -11 7 -12 7 0 10 0 9 34 -3 35 -4 3 21 3 21
12 0 11 0 8 8 7 7 21 -1 21 -1 -12 -5z m648 -12 l6 -1 0 -29 0 -30 -19 2 -18
1 0 14 0 13 12 -7 11 -7 -7 11 -7 12 11 0 11 0 -7 12 -8 12 -3 -11 -4 -12 -13
5 -13 5 2 -25 3 -26 -9 0 -10 0 2 13 1 12 -1 14 -1 13 -20 -5 -20 -5 0 7 0 8
5 4 4 5 43 -2 43 -2 6 -1z m183 -38 l16 6 0 -12 0 -13 -27 2 -28 1 3 6 2 7 0
13 0 12 9 -14 9 -14 16 6z m-877 -15 l-5 -13 -1 19 -1 19 6 -6 6 -6 -5 -13z
m944 5 l13 -18 -14 13 -14 12 -9 0 -8 0 7 -12 7 -11 -12 7 -11 7 5 10 6 9 8 0
9 0 13 -17z m-1156 -3 l-6 -10 -17 1 -17 0 20 9 20 9 3 0 3 1 -6 -10z m75 4
l0 -3 -9 -6 -10 -5 -5 8 -5 9 14 0 15 0 0 -3z m730 -4 l0 -10 -16 0 -15 0 6
10 6 10 10 0 9 0 0 -10z m-347 -7 l-13 -5 -12 5 -13 5 25 0 25 0 -12 -5z m200
0 l-13 -5 -12 5 -13 5 25 0 25 0 -12 -5z m564 1 l-6 -6 -13 5 -13 5 19 1 19 1
-6 -6z"/>
<path d="M356 1221 l-15 -16 2 -15 3 -15 8 -13 8 -13 -12 -14 -11 -13 10 -6
10 -6 6 10 6 10 24 -4 25 -5 27 29 27 29 1 21 2 21 -11 6 -10 7 -43 2 -42 1
-15 -16z m109 -19 l2 -20 -26 -25 -26 -24 -20 3 -19 3 -16 -12 -15 -12 13 17
14 17 -8 13 -8 13 -3 15 -2 14 10 12 9 11 47 -2 46 -2 2 -21z"/>
<path d="M365 1210 l-4 -6 2 -16 3 -15 16 -17 16 -16 5 13 5 12 1 -12 1 -13
22 22 22 22 1 16 1 15 -43 1 -44 1 -4 -7z m25 -10 l0 -10 -10 0 -10 0 0 10 0
10 10 0 10 0 0 -10z m30 -2 l0 13 14 -13 13 -13 -15 -11 -16 -12 -15 3 -16 3
-7 1 -8 1 18 18 17 18 7 -10 8 -11 0 13z"/>
<path d="M395 1179 l-5 -7 15 2 14 2 6 5 5 6 -15 0 -16 0 -4 -8z"/>
<path d="M717 1189 l13 -13 5 6 6 6 -18 6 -18 7 12 -12z"/>
<path d="M600 1165 l-13 -15 4 -5 5 -4 12 19 12 20 -4 0 -4 0 -12 -15z"/>
<path d="M690 1176 l0 -4 18 -13 17 -14 -14 18 -13 17 -4 0 -4 0 0 -4z"/>
<path d="M669 1155 l-1 -5 -3 -20 -2 -20 -2 -21 -1 -20 -10 6 -10 6 -1 32 0
32 -15 -50 -15 -50 1 -27 0 -27 -17 5 -18 6 15 -10 14 -11 8 5 8 5 0 18 0 18
23 -2 22 -2 -3 -13 -3 -13 16 13 16 13 -11 11 -10 10 0 9 0 8 13 -7 12 -7 -11
12 -11 12 5 45 5 44 -7 0 -6 0 -1 -5z m-4 -87 l8 7 -12 -22 -11 -22 -18 2 -18
1 10 22 11 22 11 -9 11 -9 8 8z"/>
<path d="M765 1110 l18 -20 5 0 5 0 -18 20 -18 20 -5 0 -5 0 18 -20z"/>
<path d="M810 1113 l0 -11 16 -6 15 -6 -6 -10 -6 -10 10 0 11 0 0 8 0 9 -20
18 -20 18 0 -10z"/>
<path d="M743 1073 l7 -11 -7 -5 -8 -4 13 3 13 4 5 -15 6 -15 14 0 14 0 0 11
0 10 11 -6 10 -7 -12 21 -13 20 -7 -11 -8 -12 6 -11 6 -10 -28 25 -28 25 6
-12z"/>
<path d="M1036 1032 l11 -7 -2 -22 -2 -21 14 5 13 5 0 18 0 18 -16 6 -16 6 -6
0 -7 0 11 -8z"/>
</g>
</svg>
