<?xml version="1.0" standalone="no"?>
<!DOCTYPE svg PUBLIC "-//W3C//DTD SVG 20010904//EN"
 "http://www.w3.org/TR/2001/REC-SVG-20010904/DTD/svg10.dtd">
<svg version="1.0" xmlns="http://www.w3.org/2000/svg"
 width="468pt" height="468pt" viewBox="0 0 468 468"
 preserveAspectRatio="xMidYMid meet">
<metadata>
Created by potrace 1.8, written by Peter Selinger 2001-2007
</metadata>
<g transform="translate(0,468) scale(0.365625,-0.365625)"
fill="#000000" stroke="none">
<path d="M13 1265 l-13 -14 0 -626 0 -625 10 0 10 0 0 535 0 535 15 0 15 0 0
-15 0 -15 10 0 10 0 0 -20 0 -20 -10 0 -10 0 0 -15 0 -15 10 0 10 0 0 15 0 15
10 0 10 0 0 -15 0 -15 50 0 50 0 0 14 0 14 13 5 12 4 -9 9 -9 9 -4 -12 -5 -13
-34 0 -34 0 0 10 0 10 21 0 20 0 15 14 14 15 0 10 0 11 10 0 10 0 0 55 0 56
-25 24 -24 25 -43 0 -44 0 -14 -20 -14 -20 -13 0 -13 0 0 20 0 20 15 0 15 0 0
15 0 15 285 0 285 0 0 -15 0 -15 -23 0 -23 0 -14 -20 -14 -20 -13 0 -13 0 0
-25 0 -25 15 0 15 0 0 21 0 20 14 15 15 14 20 0 21 0 0 10 0 10 20 0 20 0 0
15 0 15 35 0 35 0 0 -15 0 -15 25 0 25 0 0 -10 0 -10 21 0 20 0 15 -14 14 -15
0 -20 0 -21 15 0 15 0 0 25 0 25 -13 0 -13 0 -14 20 -14 20 -23 0 -23 0 0 15
0 15 215 0 215 0 0 -11 0 -10 14 -15 15 -14 10 0 11 0 0 -605 0 -605 10 0 10
0 0 615 0 615 -10 0 -10 0 0 15 0 15 -15 0 -15 0 0 10 0 10 -602 0 -603 -1
-12 -14z m163 -69 l14 -15 0 -55 0 -56 -10 0 -10 0 0 -15 0 -15 -50 0 -50 0 0
15 0 15 -10 0 -10 0 0 55 0 56 13 14 12 14 43 1 43 0 15 -14z"/>
<path d="M690 1220 l0 -10 -15 0 -15 0 0 -10 0 -10 15 0 15 0 0 -15 0 -15 10
0 10 0 0 14 0 14 12 4 13 5 -17 16 -17 17 -5 0 -6 0 0 -10z"/>
<path d="M563 1145 l-13 -14 0 -91 0 -90 -15 0 -15 0 0 -11 0 -10 -14 -15 -15
-14 -6 0 -6 0 -15 -14 -14 -15 0 -20 0 -21 -10 0 -10 0 0 -50 0 -50 10 0 10 0
0 -20 0 -20 -10 0 -10 0 0 20 0 20 -15 0 -15 0 0 -20 0 -20 -35 0 -35 0 0 -15
0 -15 14 0 14 0 5 -12 5 -13 11 15 10 14 8 -7 7 -8 -14 -10 -15 -11 13 -5 12
-5 0 -14 0 -14 15 0 15 0 0 14 0 14 13 5 12 5 -15 11 -14 10 7 7 7 7 19 -21
18 -22 12 0 11 0 0 -15 0 -15 -15 0 -15 0 0 15 0 15 -10 0 -10 0 0 -14 0 -14
-12 -4 -13 -5 19 -19 19 -19 5 13 4 12 13 0 13 0 6 13 6 12 6 -12 6 -13 14 0
14 0 0 -10 0 -10 -14 0 -14 0 -6 13 -6 12 -6 -12 -6 -13 -14 0 -14 0 0 -15 0
-15 15 0 15 0 0 -10 0 -10 -14 0 -14 0 -4 12 -5 13 -16 -17 -17 -17 0 -9 0
-10 13 -5 12 -4 -9 -9 -9 -9 -4 13 -5 12 -14 0 -14 0 0 11 0 10 -17 17 -16 17
-5 -13 -4 -12 -14 0 -14 0 0 -11 0 -10 -14 -15 -15 -14 -10 0 -11 0 0 10 0 10
15 0 15 0 0 15 0 15 -11 0 -10 0 -15 14 -14 15 0 6 0 6 14 15 15 14 9 0 10 0
6 13 6 12 6 -12 6 -13 13 0 13 0 4 -12 5 -13 19 19 19 19 -13 5 -12 4 0 10 0
9 -14 15 -15 14 -9 0 -10 0 -6 13 -6 12 -6 -12 -6 -13 -10 0 -9 0 -15 -14 -14
-15 0 -9 0 -10 -12 -5 -13 -5 15 -12 15 -12 -12 -5 -13 -5 0 -13 0 -13 13 -6
12 -6 -12 -6 -13 -6 0 -13 0 -13 13 -5 12 -5 -15 -12 -15 -12 13 -5 12 -5 0
-14 0 -14 -10 0 -10 0 0 -33 0 -33 20 -14 20 -14 0 -13 0 -13 11 0 10 0 16
-15 15 -16 -7 -7 -8 -7 -4 13 -5 12 -10 0 -9 0 -15 -14 -14 -15 0 -20 0 -21
-10 0 -10 0 0 -35 0 -35 10 0 10 0 0 -35 0 -35 10 0 10 0 0 -25 0 -25 75 0 75
0 0 33 0 33 20 14 20 14 0 13 0 13 11 0 10 0 15 14 14 15 0 10 0 11 25 0 25 0
0 10 0 10 -85 0 -85 0 0 35 0 35 25 0 25 0 0 10 0 10 25 0 25 0 0 15 0 15 -15
0 -15 0 0 10 0 10 15 0 15 0 0 11 0 10 14 15 15 14 6 0 6 0 15 14 14 15 0 6 0
6 14 15 15 14 6 0 6 0 15 14 14 15 0 6 0 6 14 15 15 14 10 0 11 0 0 13 0 13
20 14 20 14 0 8 0 8 -55 0 -55 0 0 15 0 15 -25 0 -25 0 0 10 0 10 -25 0 -25 0
0 10 0 10 -25 0 -25 0 0 35 0 35 95 0 95 0 0 15 0 15 -20 0 -20 0 0 10 0 10
-15 0 -15 0 0 15 0 15 -10 0 -10 0 0 80 0 80 25 0 25 0 0 25 0 25 -25 0 -25 0
0 10 0 10 31 0 30 0 15 -14 14 -15 0 -30 0 -31 -10 0 -10 0 0 -25 0 -25 35 0
35 0 0 10 0 10 -25 0 -25 0 0 15 0 15 15 0 15 0 0 35 0 35 -11 0 -10 0 -15 14
-14 15 0 10 0 11 -35 0 -35 0 0 10 0 10 25 0 25 0 0 10 0 10 55 0 55 0 0 -10
0 -10 46 0 45 0 15 -14 14 -15 0 -101 0 -101 -25 -24 -24 -25 -11 0 -10 0 0
-11 0 -10 -14 -15 -15 -14 -20 0 -21 0 0 -15 0 -15 85 0 85 0 0 -35 0 -35 -25
0 -25 0 0 -10 0 -10 -25 0 -25 0 0 -10 0 -10 -25 0 -25 0 0 -15 0 -15 15 0 15
0 0 -10 0 -10 -11 0 -10 0 -15 -14 -14 -15 0 -6 0 -6 -14 -15 -15 -14 -10 0
-11 0 0 -10 0 -11 -25 -24 -24 -25 -11 0 -10 0 0 -10 0 -11 -25 -24 -24 -25
-11 0 -10 0 0 -15 0 -15 -10 0 -10 0 0 -10 0 -10 25 0 25 0 0 10 0 10 55 0 55
0 0 -10 0 -10 25 0 25 0 0 -15 0 -15 25 0 25 0 0 -10 0 -10 25 0 25 0 0 -35 0
-35 -95 0 -95 0 0 -10 0 -10 20 0 20 0 0 -15 0 -15 11 0 10 0 15 -14 14 -15 0
-55 0 -56 35 0 35 0 0 10 0 10 15 0 15 0 0 15 0 15 10 0 10 0 0 20 0 20 10 0
10 0 0 50 0 50 -10 0 -10 0 0 25 0 25 10 0 10 0 0 -25 0 -25 15 0 15 0 0 25 0
25 33 0 33 0 14 20 14 20 13 0 13 0 0 15 0 15 -14 0 -14 0 -6 13 -6 12 -6 -12
-6 -13 -14 0 -14 0 0 -15 0 -15 15 0 15 0 0 -10 0 -10 -14 0 -14 0 -5 13 -5
12 -11 -15 -10 -14 -8 8 -8 9 13 4 12 5 0 10 0 9 -14 15 -15 14 -6 0 -6 0 -15
-14 -14 -15 0 -9 0 -10 13 -5 12 -4 -7 -8 -7 -7 -16 15 -15 16 0 10 0 11 -14
0 -14 0 -6 13 -6 12 -6 -12 -6 -13 -14 0 -14 0 0 10 0 10 15 0 15 0 0 15 0 15
-15 0 -15 0 0 10 0 10 14 0 14 0 6 -12 6 -13 6 13 6 12 10 0 9 0 15 14 14 15
0 9 0 10 13 5 12 5 -15 11 -14 10 8 8 9 8 4 -12 5 -13 10 0 9 0 15 -14 14 -15
0 -6 0 -6 14 -15 15 -14 9 0 10 0 6 -13 6 -12 6 13 6 12 13 0 13 0 5 12 4 13
8 -7 7 -7 -15 -16 -16 -15 -10 0 -11 0 0 -15 0 -15 14 0 14 0 4 -12 5 -13 16
17 17 17 0 9 0 10 -12 5 -13 5 15 12 15 12 -12 5 -13 5 0 13 0 13 13 5 12 5
-15 12 -15 12 13 5 12 5 0 13 0 13 -12 6 -13 6 12 6 13 6 0 34 0 34 -10 0 -10
0 0 14 0 14 13 5 12 4 -22 20 -23 20 0 12 0 11 10 0 10 0 0 20 0 20 10 0 10 0
0 40 0 40 -10 0 -10 0 0 35 0 35 -10 0 -10 0 0 20 0 20 -15 0 -15 0 0 25 0 25
-10 0 -10 0 0 25 0 25 -15 0 -15 0 0 20 0 21 -25 24 -24 25 -11 0 -10 0 0 11
0 10 -17 17 -16 17 -5 -13 -4 -12 -13 0 -13 0 -6 13 -6 12 -6 -12 -6 -13 -13
0 -13 0 -5 13 -5 12 -12 -15 -12 -15 -5 13 -5 12 -13 0 -13 0 -5 -12 -5 -13
-12 15 -12 15 -5 -12 -5 -13 -14 0 -14 0 0 10 0 10 -7 0 -8 -1 -12 -14z m357
-435 l0 -20 -10 0 -10 0 0 20 0 20 10 0 10 0 0 -20z m50 -35 l0 -15 11 0 10 0
16 -15 15 -16 -7 -7 -8 -7 -4 13 -5 12 -10 0 -9 0 -15 14 -14 15 0 10 0 11 10
0 10 0 0 -15z m-660 -70 l0 -15 -15 0 -15 0 0 15 0 15 15 0 15 0 0 -15z m50 0
l0 -15 -15 0 -15 0 0 15 0 15 15 0 15 0 0 -15z m190 0 l0 -15 -15 0 -15 0 0
15 0 15 15 0 15 0 0 -15z m110 -45 l0 -10 -10 0 -10 0 0 -11 0 -10 -14 -15
-15 -14 -10 0 -11 0 0 -10 0 -11 -25 -24 -24 -25 -11 0 -10 0 0 -11 0 -10 -14
-15 -15 -14 -10 0 -11 0 0 10 0 10 15 0 15 0 0 25 0 25 25 0 25 0 0 25 0 25
20 0 20 0 0 25 0 25 25 0 25 0 0 10 0 10 10 0 10 0 0 -10z m150 -25 l0 -15
-15 0 -15 0 0 -25 0 -25 -25 0 -25 0 0 -20 0 -20 -20 0 -20 0 0 -25 0 -25 -24
0 -24 0 -5 -12 -4 -13 -8 7 -8 8 21 19 22 18 0 12 0 11 10 0 11 0 24 25 25 24
0 11 0 10 11 0 10 0 15 14 14 15 0 10 0 11 15 0 15 0 0 -15z m190 -75 l0 -10
-11 0 -10 0 -15 -14 -14 -15 0 -10 0 -11 -15 0 -15 0 0 15 0 15 13 0 13 0 14
20 14 20 13 0 13 0 0 -10z m-190 -45 l0 -15 -15 0 -15 0 0 15 0 15 15 0 15 0
0 -15z m190 0 l0 -15 -15 0 -15 0 0 15 0 15 15 0 15 0 0 -15z m-620 -200 l0
-25 -10 0 -10 0 0 25 0 25 10 0 10 0 0 -25z"/>
<path d="M730 1056 l0 -14 -12 -6 -13 -6 13 -6 12 -6 0 -24 0 -24 25 0 25 0 0
25 0 25 -25 0 -25 0 0 10 0 10 39 0 39 0 5 -12 4 -13 9 9 9 9 -12 4 -13 5 0
14 0 14 -40 0 -40 0 0 -14z"/>
<path d="M120 910 l0 -10 -11 0 -10 0 -15 -14 -14 -15 0 -9 0 -10 -12 -5 -13
-4 23 -20 22 -20 0 -12 0 -11 14 0 14 0 6 -12 6 -13 6 13 6 12 14 0 14 0 0 11
0 12 23 20 22 20 -12 4 -13 5 0 10 0 9 -14 15 -15 14 -10 0 -11 0 0 10 0 10
-10 0 -10 0 0 -10z m20 -20 l0 -10 15 0 15 0 0 -14 0 -14 12 -4 13 -5 -17 -16
-17 -17 -10 0 -11 0 0 -15 0 -15 -10 0 -10 0 0 15 0 15 -11 0 -10 0 -17 17
-17 16 13 5 12 4 0 14 0 14 15 0 15 0 0 10 0 10 10 0 10 0 0 -10z"/>
<path d="M120 865 l0 -15 -15 0 -15 0 0 -10 0 -10 14 0 14 0 6 -12 6 -13 6 13
6 12 14 0 14 0 0 10 0 10 -15 0 -15 0 0 15 0 15 -10 0 -10 0 0 -15z m20 -25
l0 -10 -10 0 -10 0 0 10 0 10 10 0 10 0 0 -10z"/>
<path d="M620 844 l0 -5 14 -15 15 -14 26 0 26 0 15 14 14 15 0 5 0 6 -55 0
-55 0 0 -6z"/>
<path d="M310 560 l0 -10 -15 0 -15 0 0 -15 0 -15 14 0 14 0 6 -12 6 -13 6 13
6 12 14 0 14 0 0 15 0 15 -15 0 -15 0 0 10 0 10 -10 0 -10 0 0 -10z"/>
<path d="M393 555 l-13 -14 0 -6 0 -6 14 -15 15 -14 6 0 6 0 15 14 14 15 0 6
0 6 -14 15 -15 14 -8 0 -8 -1 -12 -14z"/>
<path d="M850 420 l0 -11 -25 -24 -24 -25 -11 0 -10 0 0 -15 0 -15 14 0 14 0
4 -12 5 -13 16 17 17 17 0 9 0 10 -12 5 -13 4 9 9 9 9 4 -12 5 -13 13 0 13 0
5 13 4 12 9 -9 9 -9 -12 -4 -13 -5 0 -10 0 -9 17 -17 16 -17 5 13 4 12 14 0
14 0 0 15 0 15 -10 0 -11 0 -24 25 -25 24 0 11 0 10 -15 0 -15 0 0 -10z"/>
<path d="M240 299 l0 -10 15 -16 16 -15 7 7 7 8 -12 4 -13 5 0 14 0 14 -10 0
-10 0 0 -11z"/>
<path d="M1140 155 l0 -15 -11 0 -10 0 -15 -14 -14 -15 0 -9 0 -10 -12 -5 -13
-4 23 -20 22 -20 0 -12 0 -11 14 0 14 0 6 -12 6 -13 6 13 6 12 14 0 14 0 0 11
0 12 23 20 22 20 -12 4 -13 5 0 10 0 9 -14 15 -15 14 -10 0 -11 0 0 15 0 15
-10 0 -10 0 0 -15z m20 -25 l0 -10 15 0 15 0 0 -14 0 -14 12 -4 13 -5 -17 -16
-17 -17 -10 0 -11 0 0 -15 0 -15 -10 0 -10 0 0 15 0 15 -11 0 -10 0 -17 17
-17 16 13 5 12 4 0 14 0 14 15 0 15 0 0 10 0 10 10 0 10 0 0 -10z"/>
<path d="M1140 105 l0 -15 -15 0 -15 0 0 -10 0 -10 14 0 14 0 6 -12 6 -13 6
13 6 12 14 0 14 0 0 10 0 10 -15 0 -15 0 0 15 0 15 -10 0 -10 0 0 -15z m20
-25 l0 -10 -10 0 -10 0 0 10 0 10 10 0 10 0 0 -10z"/>
<path d="M570 105 l0 -15 -10 0 -10 0 0 -10 0 -10 55 0 55 0 0 10 0 10 -10 0
-10 0 0 15 0 15 -35 0 -35 0 0 -15z"/>
<path d="M570 10 l0 -10 35 0 35 0 0 10 0 10 -35 0 -35 0 0 -10z"/>
</g>
</svg>
