<?xml version="1.0" standalone="no"?>
<!DOCTYPE svg PUBLIC "-//W3C//DTD SVG 20010904//EN"
 "http://www.w3.org/TR/2001/REC-SVG-20010904/DTD/svg10.dtd">
<svg version="1.0" xmlns="http://www.w3.org/2000/svg"
 width="468pt" height="468pt" viewBox="0 0 468 468"
 preserveAspectRatio="xMidYMid meet">
<metadata>
Created by potrace 1.8, written by Peter Selinger 2001-2007
</metadata>
<g transform="translate(0,468) scale(0.365625,-0.365625)"
fill="#000000" stroke="none">
<path d="M363 1214 l-63 -64 0 -20 0 -21 25 -24 24 -25 16 0 15 0 0 -10 0 -10
20 0 20 0 0 -10 0 -10 40 0 40 0 0 10 0 10 15 0 16 0 24 25 25 24 0 31 0 31
-35 34 -34 35 -16 0 -15 0 0 10 0 10 -20 0 -20 0 0 20 0 20 -7 -1 -8 -1 -62
-64z"/>
<path d="M810 1240 l-14 -20 -18 0 -18 0 0 -10 0 -10 -15 0 -16 0 -24 -25 -25
-24 0 -16 0 -15 -10 0 -10 0 0 -15 0 -16 25 -24 24 -25 16 0 15 0 0 -10 0 -10
20 0 20 0 0 -10 0 -10 30 0 30 0 0 10 0 10 15 0 16 0 34 35 35 34 0 31 0 30
-55 55 -55 55 -3 0 -3 0 -14 -20z"/>
<path d="M1160 1170 l0 -10 -18 0 -18 0 -14 -20 -14 -20 -14 0 -13 0 -34 -35
-35 -34 0 -21 0 -21 14 -15 15 -14 13 0 14 0 14 -20 14 -20 38 0 38 0 0 10 0
10 25 0 26 0 34 35 35 34 0 21 0 20 -55 55 -55 55 -5 0 -5 0 0 -10z"/>
<path d="M63 1115 l-43 -45 0 -15 0 -15 -10 0 -10 0 0 -25 0 -26 25 -24 24
-25 16 0 15 0 0 -10 0 -10 70 0 70 0 0 10 0 10 20 0 20 0 0 20 0 20 10 0 10 0
0 25 0 25 -55 55 -55 55 -15 0 -15 0 0 10 0 10 -17 -1 -18 0 -42 -44z"/>
<path d="M400 930 l0 -10 -40 0 -40 0 0 -10 0 -10 -15 0 -16 0 -44 -45 -45
-44 0 -31 0 -31 25 -24 24 -25 11 0 12 0 38 -40 38 -40 16 0 16 0 0 -10 0 -10
20 0 20 0 0 -10 0 -10 30 0 30 0 0 -10 0 -10 40 0 40 0 0 -10 0 -10 -280 0
-280 0 0 -270 0 -270 640 0 640 0 0 270 0 270 -270 0 -270 0 0 10 0 10 40 0
40 0 0 10 0 10 30 0 30 0 0 10 0 10 30 0 30 0 0 10 0 10 16 0 16 0 28 30 28
30 12 0 11 0 15 14 14 15 0 45 0 46 -10 0 -10 0 0 15 0 16 -25 24 -24 25 -16
0 -15 0 0 10 0 10 -30 0 -30 0 0 10 0 10 -120 0 -120 0 0 -10 0 -10 -40 0 -40
0 0 10 0 10 -20 0 -20 0 0 10 0 10 -80 0 -80 0 0 -10z"/>
</g>
</svg>
