<?xml version="1.0" standalone="no"?>
<!DOCTYPE svg PUBLIC "-//W3C//DTD SVG 20010904//EN"
 "http://www.w3.org/TR/2001/REC-SVG-20010904/DTD/svg10.dtd">
<svg version="1.0" xmlns="http://www.w3.org/2000/svg"
 width="468pt" height="468pt" viewBox="0 0 468 468"
 preserveAspectRatio="xMidYMid meet">
<metadata>
Created by potrace 1.8, written by Peter Selinger 2001-2007
</metadata>
<g transform="translate(0,468) scale(0.365625,-0.365625)"
fill="#000000" stroke="none">
<path d="M160 1200 l0 -30 -25 0 -25 0 0 -265 0 -265 25 0 25 0 0 -25 0 -25
-25 0 -25 0 0 -215 0 -215 25 0 25 0 0 -25 0 -25 160 0 160 0 0 25 0 25 25 0
25 0 0 -25 0 -25 295 0 295 0 0 25 0 25 25 0 25 0 0 505 0 505 -25 0 -25 0 0
30 0 30 -480 0 -480 0 0 -30z m50 -55 l0 -25 55 0 55 0 0 -25 0 -25 25 0 25 0
0 25 0 25 135 0 135 0 0 -55 0 -55 25 0 25 0 0 55 0 55 110 0 110 0 0 -25 0
-25 25 0 25 0 0 25 0 25 25 0 25 0 0 -25 0 -25 30 0 30 0 0 -55 0 -55 -30 0
-30 0 0 -25 0 -25 30 0 30 0 0 -110 0 -110 -30 0 -30 0 0 -25 0 -25 30 0 30 0
0 -105 0 -105 -30 0 -30 0 0 -30 0 -30 30 0 30 0 0 -50 0 -50 25 0 25 0 0 -55
0 -55 -295 0 -295 0 0 25 0 25 -25 0 -25 0 0 -25 0 -25 -25 0 -25 0 0 25 0 25
-30 0 -30 0 0 -25 0 -25 -80 0 -80 0 0 25 0 25 -25 0 -25 0 0 190 0 190 25 0
25 0 0 25 0 25 -25 0 -25 0 0 265 0 265 25 0 25 0 0 -25z"/>
<path d="M270 1015 l0 -55 -30 0 -30 0 0 -25 0 -25 30 0 30 0 0 -110 0 -110
-30 0 -30 0 0 -25 0 -25 30 0 30 0 0 -105 0 -105 25 0 25 0 0 -55 0 -55 -25 0
-25 0 0 -25 0 -25 -30 0 -30 0 0 -30 0 -30 30 0 30 0 0 30 0 30 25 0 25 0 0
25 0 25 80 0 80 0 0 -25 0 -25 25 0 25 0 0 25 0 25 110 0 110 0 0 -25 0 -25
-30 0 -30 0 0 -30 0 -30 30 0 30 0 0 30 0 30 25 0 25 0 0 25 0 25 105 0 105 0
0 25 0 25 -105 0 -105 0 0 30 0 30 -25 0 -25 0 0 -30 0 -30 -190 0 -190 0 0
30 0 30 -25 0 -25 0 0 105 0 105 -25 0 -25 0 0 25 0 25 25 0 25 0 0 190 0 190
-25 0 -25 0 0 -55z m530 -670 l0 -25 -25 0 -25 0 0 25 0 25 25 0 25 0 0 -25z"/>
<path d="M850 1040 l0 -30 30 0 30 0 0 30 0 30 -30 0 -30 0 0 -30z"/>
<path d="M590 985 l0 -25 25 0 25 0 0 25 0 25 -25 0 -25 0 0 -25z"/>
<path d="M590 880 l0 -30 25 0 25 0 0 30 0 30 -25 0 -25 0 0 -30z"/>
<path d="M910 880 l0 -30 25 0 25 0 0 30 0 30 -25 0 -25 0 0 -30z"/>
<path d="M370 775 l0 -25 30 0 30 0 0 25 0 25 -30 0 -30 0 0 -25z"/>
<path d="M960 720 l0 -30 25 0 25 0 0 30 0 30 -25 0 -25 0 0 -30z"/>
<path d="M690 665 l0 -25 -25 0 -25 0 0 -25 0 -25 25 0 25 0 0 25 0 25 30 0
30 0 0 25 0 25 -30 0 -30 0 0 -25z"/>
<path d="M960 560 l0 -30 25 0 25 0 0 30 0 30 -25 0 -25 0 0 -30z"/>
<path d="M430 505 l0 -25 25 0 25 0 0 25 0 25 -25 0 -25 0 0 -25z"/>
</g>
</svg>
