<?xml version="1.0" standalone="no"?>
<!DOCTYPE svg PUBLIC "-//W3C//DTD SVG 20010904//EN"
 "http://www.w3.org/TR/2001/REC-SVG-20010904/DTD/svg10.dtd">
<svg version="1.0" xmlns="http://www.w3.org/2000/svg"
 width="468pt" height="468pt" viewBox="0 0 468 468"
 preserveAspectRatio="xMidYMid meet">
<metadata>
Created by potrace 1.8, written by Peter Selinger 2001-2007
</metadata>
<g transform="translate(0,468) scale(0.365625,-0.365625)"
fill="#000000" stroke="none">
<path d="M170 1235 l0 -45 -40 0 -40 0 0 -40 0 -40 -45 0 -45 0 0 -170 0 -170
45 0 45 0 0 -85 0 -85 40 0 40 0 0 -45 0 -45 45 0 45 0 0 -40 0 -40 40 0 40 0
0 -45 0 -45 45 0 45 0 0 -40 0 -40 40 0 40 0 0 -45 0 -45 45 0 45 0 0 -40 0
-40 -300 0 -300 0 0 -45 0 -45 640 0 640 0 0 45 0 45 -300 0 -300 0 0 40 0 40
45 0 45 0 0 45 0 45 40 0 40 0 0 40 0 40 45 0 45 0 0 45 0 45 40 0 40 0 0 40
0 40 45 0 45 0 0 45 0 45 40 0 40 0 0 85 0 85 45 0 45 0 0 170 0 170 -45 0
-45 0 0 40 0 40 -40 0 -40 0 0 45 0 45 -170 0 -170 0 0 -45 0 -45 -45 0 -45 0
0 -40 0 -40 -40 0 -40 0 0 40 0 40 -45 0 -45 0 0 45 0 45 -170 0 -170 0 0 -45z"/>
</g>
</svg>
