<?xml version="1.0" standalone="no"?>
<!DOCTYPE svg PUBLIC "-//W3C//DTD SVG 20010904//EN"
 "http://www.w3.org/TR/2001/REC-SVG-20010904/DTD/svg10.dtd">
<svg version="1.0" xmlns="http://www.w3.org/2000/svg"
 width="468pt" height="468pt" viewBox="0 0 468 468"
 preserveAspectRatio="xMidYMid meet">
<metadata>
Created by potrace 1.8, written by Peter Selinger 2001-2007
</metadata>
<g transform="translate(0,468) scale(0.365625,-0.365625)"
fill="#000000" stroke="none">
<path d="M560 1260 l0 -20 -20 0 -20 0 0 -60 0 -60 -140 0 -140 0 0 -20 0 -20
-20 0 -20 0 0 -520 0 -520 20 0 20 0 0 -20 0 -20 400 0 400 0 0 20 0 20 20 0
20 0 0 520 0 520 -20 0 -20 0 0 20 0 20 -140 0 -140 0 0 60 0 60 -20 0 -20 0
0 20 0 20 -80 0 -80 0 0 -20z m160 -80 l0 -60 20 0 20 0 0 -20 0 -20 40 0 40
0 0 -20 0 -20 20 0 20 0 0 20 0 20 60 0 60 0 0 -20 0 -20 20 0 20 0 0 -480 0
-480 -20 0 -20 0 0 -20 0 -20 -360 0 -360 0 0 20 0 20 -20 0 -20 0 0 480 0
480 20 0 20 0 0 20 0 20 60 0 60 0 0 -20 0 -20 20 0 20 0 0 20 0 20 40 0 40 0
0 20 0 20 20 0 20 0 0 60 0 60 80 0 80 0 0 -60z"/>
<path d="M600 1160 l0 -40 40 0 40 0 0 40 0 40 -40 0 -40 0 0 -40z"/>
<path d="M360 1000 l0 -40 80 0 80 0 0 -20 0 -20 -20 0 -20 0 0 -20 0 -20 -20
0 -20 0 0 -20 0 -20 -20 0 -20 0 0 -20 0 -20 -20 0 -20 0 0 -20 0 -20 -20 0
-20 0 0 -20 0 -20 -20 0 -20 0 0 -20 0 -20 20 0 20 0 0 -20 0 -20 20 0 20 0 0
-20 0 -20 20 0 20 0 0 -20 0 -20 20 0 20 0 0 -20 0 -20 20 0 20 0 0 -20 0 -20
20 0 20 0 0 -20 0 -20 20 0 20 0 0 -20 0 -20 20 0 20 0 0 20 0 20 20 0 20 0 0
20 0 20 20 0 20 0 0 20 0 20 20 0 20 0 0 20 0 20 20 0 20 0 0 20 0 20 20 0 20
0 0 20 0 20 20 0 20 0 0 20 0 20 20 0 20 0 0 20 0 20 20 0 20 0 0 20 0 20 20
0 20 0 0 20 0 20 20 0 20 0 0 20 0 20 -20 0 -20 0 0 20 0 20 -20 0 -20 0 0 20
0 20 -20 0 -20 0 0 20 0 20 20 0 20 0 0 40 0 40 -20 0 -20 0 0 -20 0 -20 -240
0 -240 0 0 20 0 20 -20 0 -20 0 0 -40z m480 -60 l0 -20 20 0 20 0 0 -20 0 -20
20 0 20 0 0 -20 0 -20 20 0 20 0 0 -20 0 -20 -20 0 -20 0 0 -20 0 -20 -20 0
-20 0 0 -20 0 -20 -20 0 -20 0 0 -20 0 -20 -20 0 -20 0 0 -20 0 -20 -20 0 -20
0 0 -20 0 -20 -20 0 -20 0 0 -20 0 -20 -20 0 -20 0 0 -20 0 -20 -20 0 -20 0 0
-20 0 -20 -20 0 -20 0 0 -20 0 -20 -20 0 -20 0 0 20 0 20 -20 0 -20 0 0 20 0
20 -20 0 -20 0 0 20 0 20 -20 0 -20 0 0 20 0 20 -20 0 -20 0 0 20 0 20 -20 0
-20 0 0 20 0 20 -20 0 -20 0 0 20 0 20 20 0 20 0 0 20 0 20 20 0 20 0 0 20 0
20 20 0 20 0 0 20 0 20 20 0 20 0 0 20 0 20 20 0 20 0 0 20 0 20 20 0 20 0 0
20 0 20 140 0 140 0 0 -20z"/>
</g>
</svg>
