<?xml version="1.0" standalone="no"?>
<!DOCTYPE svg PUBLIC "-//W3C//DTD SVG 20010904//EN"
 "http://www.w3.org/TR/2001/REC-SVG-20010904/DTD/svg10.dtd">
<svg version="1.0" xmlns="http://www.w3.org/2000/svg"
 width="468pt" height="468pt" viewBox="0 0 468 468"
 preserveAspectRatio="xMidYMid meet">
<metadata>
Created by potrace 1.8, written by Peter Selinger 2001-2007
</metadata>
<g transform="translate(0,468) scale(0.365625,-0.365625)"
fill="#000000" stroke="none">
<path d="M0 640 l0 -320 640 0 640 0 0 320 0 320 -640 0 -640 0 0 -320z m1240
0 l0 -280 -600 0 -600 0 0 280 0 280 600 0 600 0 0 -280z"/>
<path d="M80 860 l0 -20 100 0 100 0 0 20 0 20 -100 0 -100 0 0 -20z"/>
<path d="M1080 800 l0 -80 60 0 60 0 0 80 0 80 -60 0 -60 0 0 -80z"/>
<path d="M80 780 l0 -20 60 0 60 0 0 20 0 20 -60 0 -60 0 0 -20z"/>
<path d="M240 780 l0 -20 20 0 20 0 0 20 0 20 -20 0 -20 0 0 -20z"/>
<path d="M400 660 l0 -20 240 0 240 0 0 20 0 20 -240 0 -240 0 0 -20z"/>
<path d="M400 580 l0 -20 240 0 240 0 0 20 0 20 -240 0 -240 0 0 -20z"/>
<path d="M400 500 l0 -20 140 0 140 0 0 20 0 20 -140 0 -140 0 0 -20z"/>
<path d="M720 500 l0 -20 40 0 40 0 0 20 0 20 -40 0 -40 0 0 -20z"/>
<path d="M840 500 l0 -20 20 0 20 0 0 20 0 20 -20 0 -20 0 0 -20z"/>
</g>
</svg>
