<?xml version="1.0" standalone="no"?>
<!DOCTYPE svg PUBLIC "-//W3C//DTD SVG 20010904//EN"
 "http://www.w3.org/TR/2001/REC-SVG-20010904/DTD/svg10.dtd">
<svg version="1.0" xmlns="http://www.w3.org/2000/svg"
 width="468pt" height="468pt" viewBox="0 0 468 468"
 preserveAspectRatio="xMidYMid meet">
<metadata>
Created by potrace 1.8, written by Peter Selinger 2001-2007
</metadata>
<g transform="translate(0,468) scale(0.365625,-0.365625)"
fill="#000000" stroke="none">
<path d="M500 1250 l0 -10 -20 0 -20 0 0 -10 0 -10 -20 0 -20 0 0 -10 0 -10
-15 0 -16 0 -44 -45 -45 -44 0 -15 0 -14 13 -5 12 -4 -9 -9 -9 -9 -4 13 -5 12
-9 0 -9 0 0 -20 0 -20 -10 0 -10 0 0 -20 0 -20 -10 0 -10 0 0 -240 0 -240 -10
0 -10 0 0 -20 0 -20 10 0 10 0 0 -20 0 -20 -10 0 -10 0 0 18 0 18 -20 14 -20
14 0 18 0 18 -10 0 -10 0 0 -20 0 -20 -10 0 -10 0 0 -30 0 -30 10 0 10 0 0
-30 0 -30 -10 0 -10 0 0 16 0 15 -15 16 -16 15 -7 -7 -7 -8 13 -4 12 -5 0 -19
0 -19 10 0 10 0 0 -20 0 -20 6 0 5 0 15 14 14 15 0 35 0 36 -10 0 -10 0 0 30
0 30 10 0 10 0 0 -30 0 -30 10 0 10 0 0 -30 0 -30 9 0 9 0 5 13 4 12 9 -9 9
-9 -12 -4 -13 -5 0 -19 0 -19 -9 0 -9 0 -4 12 -5 13 -16 -17 -17 -17 0 -15 0
-16 30 0 30 0 0 16 0 15 16 16 16 16 10 -14 10 -14 5 13 5 12 9 0 9 0 0 -16 0
-15 14 -15 15 -14 5 0 6 0 0 20 0 20 20 0 20 0 0 -16 0 -15 14 -15 15 -14 11
0 12 0 28 30 28 30 6 0 6 0 0 -16 0 -15 14 -15 15 -14 15 0 16 0 0 -10 0 -10
10 0 10 0 0 20 0 20 -10 0 -10 0 0 20 0 20 10 0 10 0 0 -20 0 -20 10 0 10 0 0
-20 0 -20 20 0 20 0 0 9 0 9 -12 6 -13 6 13 6 12 6 0 19 0 19 10 0 10 0 0 -60
0 -60 6 0 6 0 31 33 30 32 4 -12 5 -13 18 0 18 0 5 -12 4 -13 9 8 8 8 -14 10
-15 11 13 5 12 5 0 19 0 19 -10 0 -10 0 0 10 0 10 20 0 20 0 0 -26 0 -25 17
-17 16 -17 5 13 4 12 18 0 18 0 4 -12 5 -13 16 17 17 17 0 5 0 6 -19 0 -19 0
-5 13 -4 12 -22 -24 -21 -24 -7 7 -7 7 14 10 15 9 -15 9 -14 10 7 8 8 7 10
-14 9 -15 11 15 11 15 5 -12 5 -13 29 0 29 0 0 -10 0 -10 19 0 19 0 5 -12 5
-13 11 15 11 15 9 -14 9 -14 16 16 16 16 0 15 0 16 20 0 20 0 0 -20 0 -20 10
0 10 0 0 20 0 20 -10 0 -10 0 0 39 0 39 13 5 12 4 -9 9 -9 9 -4 -12 -5 -13
-18 0 -18 0 -5 -12 -4 -13 -9 9 -9 9 13 4 12 5 0 19 0 19 -10 0 -10 0 0 20 0
20 -10 0 -10 0 0 -20 0 -20 -10 0 -10 0 0 -20 0 -20 -10 0 -10 0 0 -19 0 -19
13 -5 12 -4 -7 -8 -7 -7 -16 15 -15 16 0 15 0 16 -10 0 -10 0 0 290 0 290 -10
0 -10 0 0 30 0 30 -10 0 -10 0 0 15 0 15 -55 55 -55 55 -15 0 -15 0 0 10 0 10
-30 0 -30 0 0 10 0 10 -20 0 -20 0 0 10 0 10 -90 0 -90 0 0 -10z m20 -16 l0
-7 -21 -18 -21 -18 15 -16 16 -15 5 0 6 0 0 20 0 20 16 0 17 0 18 -22 19 -21
8 8 7 8 -12 4 -13 5 0 19 0 19 9 0 9 0 6 -12 6 -13 6 13 6 12 28 0 28 0 6 -12
6 -13 6 13 6 12 9 0 9 0 0 -16 0 -15 15 -16 16 -15 7 6 6 7 -14 9 -14 9 8 8 9
8 4 -12 5 -13 25 0 24 0 15 -14 14 -15 0 -11 0 -11 14 -15 15 -14 15 0 16 0 0
-20 0 -20 10 0 10 0 0 -20 0 -20 -9 0 -9 0 -5 13 -4 12 -8 -7 -7 -7 15 -16 16
-15 15 0 16 0 0 -9 0 -9 -12 -6 -13 -6 13 -6 12 -6 0 -29 0 -29 -29 0 -29 0
-6 13 -6 12 -6 -12 -6 -13 -28 0 -28 0 -6 13 -6 12 -6 -12 -6 -13 -28 0 -28 0
-6 13 -6 12 -6 -12 -6 -13 -28 0 -28 0 -6 13 -6 12 -6 -12 -6 -13 -28 0 -28 0
-6 13 -6 12 -6 -12 -6 -13 -28 0 -28 0 -6 13 -6 12 -6 -12 -6 -13 -28 0 -28 0
-6 13 -6 12 -6 -12 -6 -13 -9 0 -9 0 0 26 0 27 23 20 22 20 -12 4 -13 5 0 29
0 29 -9 0 -9 0 -5 -12 -4 -13 -9 8 -8 8 14 9 14 9 -23 20 -23 20 16 16 16 16
17 -16 16 -17 -13 -8 -13 -8 16 -16 16 -16 5 0 6 0 0 20 0 20 9 0 9 0 5 -12 4
-13 8 7 8 7 -33 31 -32 30 16 16 16 15 17 -17 18 -17 -13 -5 -12 -4 0 -9 0 -9
16 0 15 0 15 14 14 15 0 14 0 15 -12 4 -12 4 24 27 25 26 8 0 7 1 0 -6z m40
-4 l0 -10 -10 0 -10 0 0 10 0 10 10 0 10 0 0 -10z m-240 -199 l0 -9 -12 -5
-13 -4 25 -22 24 -22 -14 -10 -15 -9 15 -10 15 -10 -15 -10 -15 -10 15 -10 15
-10 -15 -10 -15 -10 15 -10 15 -10 -15 -10 -15 -10 15 -10 15 -10 -15 -10 -15
-10 15 -10 15 -10 -15 -10 -15 -10 15 -10 15 -10 -15 -10 -15 -10 15 -10 15
-10 -15 -10 -15 -10 15 -10 15 -10 -15 -10 -15 -10 15 -10 15 -10 -15 -10 -15
-10 15 -10 15 -10 -15 -10 -15 -10 15 -10 15 -10 -15 -10 -15 -10 14 -9 14 -9
-17 -18 -18 -17 -9 14 -9 14 -9 -15 -10 -14 -8 7 -7 8 14 10 15 9 -15 10 -15
10 15 10 15 10 -15 10 -15 10 15 10 15 10 -15 10 -15 10 15 10 15 10 -15 10
-15 10 15 10 15 10 -15 10 -15 10 15 10 15 10 -15 10 -15 10 15 10 15 10 -15
10 -15 10 15 10 15 10 -15 10 -15 10 15 10 15 10 -15 10 -15 10 15 10 15 10
-15 10 -15 10 15 10 15 10 -15 10 -15 10 15 10 15 10 -15 9 -14 10 7 8 8 7 9
-13 8 -14 17 17 17 17 -22 19 -22 19 14 15 13 15 8 1 7 0 0 -9z m47 -26 l15
-16 -5 -6 -6 -5 -16 15 -15 16 0 5 0 6 6 0 5 0 16 -15z m553 -255 l0 -130
-270 0 -270 0 0 130 0 130 270 0 270 0 0 -130z m-509 -172 l19 -21 8 8 7 8
-12 4 -13 5 0 9 0 9 26 0 27 0 18 -22 19 -21 8 8 7 8 -12 4 -13 5 0 9 0 9 26
0 27 0 18 -22 19 -21 8 8 7 8 -12 4 -13 5 0 9 0 9 26 0 27 0 18 -22 19 -21 8
8 7 8 -12 4 -13 5 0 9 0 9 26 0 27 0 18 -22 19 -21 8 8 7 8 -12 4 -13 5 0 9 0
9 26 0 27 0 18 -22 19 -21 8 8 7 8 -12 4 -13 5 0 9 0 9 26 0 27 0 18 -22 19
-21 8 8 7 8 -12 4 -13 5 0 9 0 9 20 0 20 0 0 -29 0 -29 -12 -6 -13 -6 13 -6
12 -6 0 -29 0 -29 -10 0 -10 0 0 -19 0 -19 13 -5 12 -4 -7 -8 -8 -8 -20 23
-20 23 -8 -8 -7 -8 13 -4 12 -5 0 -18 0 -18 13 -5 12 -4 -8 -9 -8 -8 -10 14
-9 15 -9 -14 -9 -14 -16 16 -16 16 0 22 0 22 22 18 21 19 -8 8 -8 7 -4 -12 -5
-13 -15 0 -14 0 -16 -16 -16 -16 14 -8 13 -9 -8 -8 -9 -8 -4 13 -5 12 -9 0 -9
0 0 -20 0 -20 20 0 20 0 0 -10 0 -10 -19 0 -19 0 -5 13 -5 12 -11 -15 -10 -14
-8 8 -8 9 13 4 12 5 0 15 0 14 -14 15 -15 14 -5 0 -6 0 0 -19 0 -19 -12 -5
-13 -5 15 -11 14 -10 -7 -8 -8 -7 -10 14 -9 15 -10 -15 -10 -15 -10 15 -10 15
-9 -14 -9 -14 -16 16 -16 16 0 11 0 11 -15 16 -16 15 -7 -6 -6 -7 14 -9 14 -9
-6 -7 -7 -6 -16 15 -15 16 0 14 0 15 13 5 12 4 -7 8 -7 7 -16 -15 -15 -16 0
-15 0 -16 -9 0 -9 0 -4 12 -5 13 -16 -17 -17 -17 0 -11 0 -11 -15 -16 -16 -15
-7 7 -7 8 13 4 12 5 0 25 0 26 22 18 21 19 -8 8 -8 7 -4 -12 -5 -13 -15 0 -14
0 -15 -14 -14 -15 0 -14 0 -15 -12 -5 -13 -5 15 -11 14 -10 -6 -7 -7 -6 -16
15 -15 16 0 22 0 22 22 18 21 19 -8 8 -8 7 -4 -12 -5 -13 -9 0 -9 0 0 26 0 27
22 18 21 19 -8 8 -8 7 -4 -12 -5 -13 -9 0 -9 0 0 30 0 30 16 0 17 0 18 -22z
m-131 -148 l0 -10 -10 0 -10 0 0 10 0 10 10 0 10 0 0 -10z m40 0 l0 -10 -10 0
-10 0 0 10 0 10 10 0 10 0 0 -10z m720 -30 l0 -20 10 0 10 0 0 -19 0 -19 -12
-5 -13 -5 15 -11 14 -10 -7 -8 -8 -7 -10 14 -9 15 -9 -14 -9 -14 -17 17 -17
17 7 7 8 7 4 -12 5 -13 9 0 9 0 0 19 0 19 13 6 12 6 -12 6 -13 6 0 19 0 19 10
0 10 0 0 -20z m-533 -15 l15 -16 -5 -6 -6 -5 -16 15 -15 16 0 5 0 6 6 0 5 0
16 -15z m53 -15 l0 -10 -10 0 -10 0 0 10 0 10 10 0 10 0 0 -10z m-140 -50 l0
-20 -10 0 -10 0 0 20 0 20 10 0 10 0 0 -20z m120 0 l0 -20 -10 0 -10 0 0 20 0
20 10 0 10 0 0 -20z m180 11 l0 -9 -12 -5 -13 -5 14 -10 14 -10 -16 -16 -16
-16 -5 0 -6 0 0 25 0 26 13 14 12 14 8 1 7 0 0 -9z m46 -5 l14 -15 0 -15 0
-16 -20 0 -20 0 0 9 0 9 13 6 12 6 -12 6 -13 6 0 9 0 9 6 0 5 0 15 -14z"/>
<path d="M640 1194 l0 -5 15 -16 16 -15 6 5 5 6 -15 16 -16 15 -5 0 -6 0 0 -6z"/>
<path d="M400 1150 l0 -10 10 0 10 0 0 10 0 10 -10 0 -10 0 0 -10z"/>
<path d="M531 1144 l-13 -15 6 -6 5 -5 16 15 15 16 0 5 0 6 -7 0 -8 -1 -14
-15z"/>
<path d="M611 1144 l-13 -15 6 -6 5 -5 16 15 15 16 0 5 0 6 -7 0 -8 -1 -14
-15z"/>
<path d="M691 1144 l-13 -15 6 -6 5 -5 16 15 15 16 0 5 0 6 -7 0 -8 -1 -14
-15z"/>
<path d="M771 1144 l-13 -15 6 -6 5 -5 16 15 15 16 0 5 0 6 -7 0 -8 -1 -14
-15z"/>
<path d="M340 1110 l0 -10 10 0 10 0 0 10 0 10 -10 0 -10 0 0 -10z"/>
<path d="M480 1114 l0 -5 15 -16 16 -15 6 5 5 6 -15 16 -16 15 -5 0 -6 0 0 -6z"/>
<path d="M560 1114 l0 -5 15 -16 16 -15 6 5 5 6 -15 16 -16 15 -5 0 -6 0 0 -6z"/>
<path d="M640 1114 l0 -5 15 -16 16 -15 6 5 5 6 -15 16 -16 15 -5 0 -6 0 0 -6z"/>
<path d="M720 1114 l0 -5 15 -16 16 -15 6 5 5 6 -15 16 -16 15 -5 0 -6 0 0 -6z"/>
<path d="M800 1114 l0 -5 15 -16 16 -15 6 5 5 6 -15 16 -16 15 -5 0 -6 0 0 -6z"/>
<path d="M451 1064 l-13 -15 6 -6 5 -5 16 15 15 16 0 5 0 6 -7 0 -8 -1 -14
-15z"/>
<path d="M531 1064 l-13 -15 6 -6 5 -5 16 15 15 16 0 5 0 6 -7 0 -8 -1 -14
-15z"/>
<path d="M611 1064 l-13 -15 6 -6 5 -5 16 15 15 16 0 5 0 6 -7 0 -8 -1 -14
-15z"/>
<path d="M691 1064 l-13 -15 6 -6 5 -5 16 15 15 16 0 5 0 6 -7 0 -8 -1 -14
-15z"/>
<path d="M771 1064 l-13 -15 6 -6 5 -5 16 15 15 16 0 5 0 6 -7 0 -8 -1 -14
-15z"/>
<path d="M851 1064 l-13 -15 6 -6 5 -5 16 15 15 16 0 5 0 6 -7 0 -8 -1 -14
-15z"/>
<path d="M400 1034 l0 -5 15 -16 16 -15 6 5 5 6 -15 16 -16 15 -5 0 -6 0 0 -6z"/>
<path d="M480 1034 l0 -5 15 -16 16 -15 6 5 5 6 -15 16 -16 15 -5 0 -6 0 0 -6z"/>
<path d="M560 1034 l0 -5 15 -16 16 -15 6 5 5 6 -15 16 -16 15 -5 0 -6 0 0 -6z"/>
<path d="M640 1034 l0 -5 15 -16 16 -15 6 5 5 6 -15 16 -16 15 -5 0 -6 0 0 -6z"/>
<path d="M720 1034 l0 -5 15 -16 16 -15 6 5 5 6 -15 16 -16 15 -5 0 -6 0 0 -6z"/>
<path d="M800 1034 l0 -5 15 -16 16 -15 6 5 5 6 -15 16 -16 15 -5 0 -6 0 0 -6z"/>
<path d="M451 984 l-13 -15 6 -6 5 -5 16 15 15 16 0 5 0 6 -7 0 -8 -1 -14 -15z"/>
<path d="M531 984 l-13 -15 6 -6 5 -5 16 15 15 16 0 5 0 6 -7 0 -8 -1 -14 -15z"/>
<path d="M611 984 l-13 -15 6 -6 5 -5 16 15 15 16 0 5 0 6 -7 0 -8 -1 -14 -15z"/>
<path d="M691 984 l-13 -15 6 -6 5 -5 16 15 15 16 0 5 0 6 -7 0 -8 -1 -14 -15z"/>
<path d="M771 984 l-13 -15 6 -6 5 -5 16 15 15 16 0 5 0 6 -7 0 -8 -1 -14 -15z"/>
<path d="M851 984 l-13 -15 6 -6 5 -5 16 15 15 16 0 5 0 6 -7 0 -8 -1 -14 -15z"/>
<path d="M400 954 l0 -5 15 -16 16 -15 6 5 5 6 -15 16 -16 15 -5 0 -6 0 0 -6z"/>
<path d="M480 954 l0 -5 15 -16 16 -15 6 5 5 6 -15 16 -16 15 -5 0 -6 0 0 -6z"/>
<path d="M560 954 l0 -5 15 -16 16 -15 6 5 5 6 -15 16 -16 15 -5 0 -6 0 0 -6z"/>
<path d="M640 954 l0 -5 15 -16 16 -15 6 5 5 6 -15 16 -16 15 -5 0 -6 0 0 -6z"/>
<path d="M720 954 l0 -5 15 -16 16 -15 6 5 5 6 -15 16 -16 15 -5 0 -6 0 0 -6z"/>
<path d="M800 954 l0 -5 15 -16 16 -15 6 5 5 6 -15 16 -16 15 -5 0 -6 0 0 -6z"/>
<path d="M880 954 l0 -5 15 -16 16 -15 6 5 5 6 -15 16 -16 15 -5 0 -6 0 0 -6z"/>
<path d="M291 924 l-14 -16 14 -9 14 -9 -15 -10 -15 -10 15 -10 15 -10 -15
-10 -15 -10 15 -10 15 -10 -15 -10 -15 -10 15 -10 15 -10 -15 -10 -15 -10 15
-10 15 -10 -15 -10 -15 -10 15 -10 15 -10 -15 -10 -15 -10 15 -10 15 -10 -15
-10 -15 -10 15 -10 15 -10 -15 -10 -15 -10 15 -10 15 -10 -15 -10 -15 -10 15
-10 15 -10 -14 -9 -14 -9 17 -17 17 -17 7 6 6 7 -14 10 -15 9 15 10 15 10 -15
10 -15 10 15 10 15 10 -15 10 -15 10 15 10 15 10 -15 10 -15 10 15 10 15 10
-15 10 -15 10 15 10 15 10 -15 10 -15 10 15 10 15 10 -15 10 -15 10 15 10 15
10 -15 10 -15 10 15 10 15 10 -15 10 -15 10 15 10 15 10 -15 10 -15 10 15 10
15 10 -15 11 -15 11 13 5 12 5 0 9 0 9 -7 0 -8 -1 -14 -15z"/>
<path d="M400 850 l0 -10 10 0 10 0 0 -90 0 -90 -10 0 -10 0 0 -10 0 -10 40 0
40 0 0 10 0 10 -10 0 -10 0 0 40 0 40 10 0 10 0 0 -25 0 -26 25 -24 24 -25 16
0 15 0 0 20 0 20 -20 0 -20 0 0 20 0 20 -10 0 -10 0 0 18 0 18 20 14 20 14 0
14 0 13 -25 24 -24 25 -46 0 -45 0 0 -10z m100 -50 l0 -40 -20 0 -20 0 0 40 0
40 20 0 20 0 0 -40z"/>
<path d="M620 850 l0 -10 10 0 10 0 0 -90 0 -90 -10 0 -10 0 0 -10 0 -10 40 0
40 0 0 10 0 10 -10 0 -10 0 0 90 0 90 10 0 10 0 0 10 0 10 -40 0 -40 0 0 -10z"/>
<path d="M760 850 l0 -10 10 0 10 0 0 -90 0 -90 -10 0 -10 0 0 -10 0 -10 40 0
40 0 0 10 0 10 -10 0 -10 0 0 40 0 40 26 0 25 0 15 14 14 15 0 31 0 31 -14 15
-15 14 -55 0 -56 0 0 -10z m100 -50 l0 -40 -20 0 -20 0 0 40 0 40 20 0 20 0 0
-40z"/>
<path d="M580 660 l0 -20 10 0 10 0 0 20 0 20 -10 0 -10 0 0 -20z"/>
<path d="M720 660 l0 -20 10 0 10 0 0 20 0 20 -10 0 -10 0 0 -20z"/>
<path d="M860 660 l0 -20 10 0 10 0 0 20 0 20 -10 0 -10 0 0 -20z"/>
<path d="M451 544 l-13 -15 6 -6 5 -5 16 15 15 16 0 5 0 6 -7 0 -8 -1 -14 -15z"/>
<path d="M531 544 l-13 -15 6 -6 5 -5 16 15 15 16 0 5 0 6 -7 0 -8 -1 -14 -15z"/>
<path d="M611 544 l-13 -15 6 -6 5 -5 16 15 15 16 0 5 0 6 -7 0 -8 -1 -14 -15z"/>
<path d="M691 544 l-13 -15 6 -6 5 -5 16 15 15 16 0 5 0 6 -7 0 -8 -1 -14 -15z"/>
<path d="M771 544 l-13 -15 6 -6 5 -5 16 15 15 16 0 5 0 6 -7 0 -8 -1 -14 -15z"/>
<path d="M851 544 l-13 -15 6 -6 5 -5 16 15 15 16 0 5 0 6 -7 0 -8 -1 -14 -15z"/>
<path d="M400 514 l0 -5 15 -16 16 -15 6 5 5 6 -15 16 -16 15 -5 0 -6 0 0 -6z"/>
<path d="M480 514 l0 -5 15 -16 16 -15 6 5 5 6 -15 16 -16 15 -5 0 -6 0 0 -6z"/>
<path d="M560 514 l0 -5 15 -16 16 -15 6 5 5 6 -15 16 -16 15 -5 0 -6 0 0 -6z"/>
<path d="M640 514 l0 -5 15 -16 16 -15 6 5 5 6 -15 16 -16 15 -5 0 -6 0 0 -6z"/>
<path d="M720 514 l0 -5 15 -16 16 -15 6 5 5 6 -15 16 -16 15 -5 0 -6 0 0 -6z"/>
<path d="M800 514 l0 -5 15 -16 16 -15 6 5 5 6 -15 16 -16 15 -5 0 -6 0 0 -6z"/>
<path d="M880 514 l0 -5 15 -16 16 -15 6 5 5 6 -15 16 -16 15 -5 0 -6 0 0 -6z"/>
<path d="M611 464 l-13 -15 6 -6 5 -5 16 15 15 16 0 5 0 6 -7 0 -8 -1 -14 -15z"/>
<path d="M691 464 l-13 -15 6 -6 5 -5 16 15 15 16 0 5 0 6 -7 0 -8 -1 -14 -15z"/>
<path d="M773 465 l-13 -14 0 -16 0 -15 10 0 10 0 0 20 0 20 10 0 10 0 0 10 0
10 -7 0 -8 -1 -12 -14z"/>
<path d="M633 425 l-13 -14 0 -16 0 -15 10 0 10 0 0 20 0 20 10 0 10 0 0 -20
0 -20 10 0 10 0 0 16 0 15 -14 15 -15 14 -3 0 -3 -1 -12 -14z"/>
<path d="M860 390 l0 -10 10 0 10 0 0 10 0 10 -10 0 -10 0 0 -10z"/>
<path d="M0 100 l0 -100 640 0 640 0 0 100 0 100 -640 0 -640 0 0 -100z"/>
</g>
</svg>
