<?xml version="1.0" standalone="no"?>
<!DOCTYPE svg PUBLIC "-//W3C//DTD SVG 20010904//EN"
 "http://www.w3.org/TR/2001/REC-SVG-20010904/DTD/svg10.dtd">
<svg version="1.0" xmlns="http://www.w3.org/2000/svg"
 width="468pt" height="468pt" viewBox="0 0 468 468"
 preserveAspectRatio="xMidYMid meet">
<metadata>
Created by potrace 1.8, written by Peter Selinger 2001-2007
</metadata>
<g transform="translate(0,468) scale(0.365625,-0.365625)"
fill="#000000" stroke="none">
<path d="M0 969 l0 -310 9 5 9 6 -2 52 -3 52 11 44 11 43 9 -8 9 -8 -6 17 -6
17 9 6 10 6 0 21 0 20 16 -6 15 -6 -6 11 -7 10 12 30 12 29 8 0 8 0 5 20 5 21
14 -3 13 -3 -2 11 -2 12 30 31 30 32 12 -7 12 -7 -7 8 -8 8 31 28 31 28 16 -6
15 -6 -6 10 -6 10 27 13 27 13 8 -1 8 -2 25 19 25 20 14 -5 13 -5 7 11 8 12 8
-13 9 -14 10 16 10 17 44 -1 44 -1 -5 -15 -5 -16 10 14 10 13 13 9 14 9 -312
0 -313 0 0 -311z"/>
<path d="M634 1272 l5 -8 48 1 48 2 15 -13 15 -13 30 3 29 4 -19 -14 -19 -14
7 -7 7 -6 20 18 20 18 7 -6 6 -7 -11 0 -12 0 0 -11 0 -10 19 6 19 6 7 -11 7
-11 -14 -17 -15 -17 -1 -22 -1 -23 10 0 9 0 1 13 1 12 -1 8 -1 8 19 25 19 24
13 -17 14 -17 -13 8 -13 8 -13 -11 -13 -11 0 -25 0 -25 14 -12 15 -12 19 23
20 24 6 -6 6 -6 -24 -21 -24 -20 24 -20 23 -20 -8 0 -7 0 -19 16 -18 17 -15
-13 -16 -13 -27 -3 -27 -2 13 5 12 5 0 7 0 7 -45 0 -45 1 0 -9 0 -8 28 -1 27
-1 -12 -5 -13 -5 0 -9 0 -9 14 0 13 0 -1 -22 -2 -23 4 -8 4 -8 16 13 17 13
-13 -17 -14 -17 -36 5 -37 4 14 -9 14 -9 13 5 12 4 7 -11 7 -11 14 12 14 11 0
-10 0 -10 -12 -5 -13 -4 13 -15 13 -16 -13 -5 -13 -5 14 -10 13 -10 -13 -5
-14 -5 15 -11 15 -11 -15 -10 -15 -10 13 -9 13 -8 3 -26 3 -25 -13 5 -14 5 0
-11 0 -11 9 0 9 0 6 -17 7 -17 -17 -13 -16 -12 16 -16 16 -16 0 -4 0 -4 -14 5
-15 6 -12 -21 -13 -20 -13 11 -13 10 0 -12 0 -12 -16 13 -16 13 -9 -15 -9 -14
-10 15 -10 15 -10 -15 -10 -15 0 10 0 10 10 15 10 15 9 -15 10 -14 8 7 7 8
-14 9 -14 9 22 19 23 20 -13 4 -13 5 18 18 19 18 10 -14 9 -14 -6 25 -6 25 10
-15 10 -15 18 18 18 18 -14 8 -13 9 13 5 14 5 -15 11 -15 11 15 10 15 10 -15
10 -15 10 14 9 13 9 -13 6 -14 6 13 6 12 6 0 10 0 10 -12 -9 -13 -9 -22 -2
-23 -1 0 9 0 8 13 5 12 5 -14 11 -15 10 -2 39 -1 40 -8 11 -7 12 -11 -4 -12
-4 -10 21 -11 21 -29 1 -30 1 -13 -10 -13 -10 13 -8 13 -9 -11 0 -12 0 -16
-25 -17 -25 10 -18 10 -18 -11 -15 -10 -14 6 17 5 17 -9 6 -10 6 -1 -18 -1
-18 1 -9 2 -8 -16 5 -15 6 0 -8 0 -9 13 -6 12 -6 -12 -6 -13 -6 0 -10 0 -10
18 6 17 6 -19 -14 -18 -15 16 -16 16 -16 0 -4 0 -4 -15 5 -15 6 0 -10 0 -10
13 -5 12 -5 -15 -11 -15 -11 13 0 12 0 0 -11 0 -11 -14 5 -15 6 -3 -95 -3 -94
3 -10 4 -10 14 0 15 0 -7 -12 -7 -11 -18 21 -17 22 -5 0 -5 0 -5 -14 -6 -15
13 5 14 5 22 -30 21 -31 -12 0 -11 0 11 -14 12 -14 -13 -5 -13 -5 14 -10 13
-10 -10 -6 -10 -6 -5 12 -4 13 -9 -8 -9 -9 25 -20 25 -21 -25 8 -25 7 28 -26
27 -27 0 -2 0 -3 -19 0 -19 0 5 13 5 13 -11 0 -11 0 0 -9 0 -9 -14 -5 -15 -6
6 17 7 17 -20 -15 -19 -15 11 15 10 15 2 22 1 23 -11 6 -10 6 13 9 14 9 -14 9
-13 8 11 7 11 7 0 -13 0 -13 10 15 9 14 8 -7 7 -8 -14 -9 -14 -9 6 -7 7 -6 17
17 17 17 -12 8 -13 8 11 6 11 7 -15 16 -16 15 -7 -7 -7 -8 13 -4 12 -5 0 -8 0
-7 -25 0 -25 0 11 13 11 14 -11 14 -12 14 13 5 13 5 -14 10 -13 10 13 5 14 5
-15 11 -15 11 15 10 15 10 -15 10 -15 10 15 10 15 10 -14 9 -13 9 13 5 14 5
-15 11 -15 11 15 10 15 10 -15 10 -15 10 14 9 13 9 -13 5 -14 5 15 11 15 11
-15 11 -15 11 13 5 13 5 -12 14 -11 14 12 0 12 0 -13 16 -13 16 15 10 14 10
-12 5 -13 5 0 9 0 9 15 0 15 0 1 23 1 22 -1 11 -1 11 15 13 15 12 0 15 0 15
18 -13 17 -13 -15 16 -15 16 -34 -5 -34 -6 -4 -18 -5 -19 -7 0 -6 0 -1 -25 -2
-25 7 4 6 4 0 -33 0 -33 -9 5 -8 6 7 -22 6 -21 -10 0 -11 0 0 -11 0 -11 18 7
17 6 -21 -20 -22 -19 -1 -183 -2 -183 -10 -12 -9 -11 7 -19 7 -19 -17 14 -17
13 0 -10 0 -10 13 -5 12 -5 -11 -9 -12 -8 12 -11 12 -11 12 13 11 13 -12 5
-12 6 13 6 13 6 -12 14 -12 14 7 7 6 6 0 -11 0 -12 16 0 16 0 -9 -12 -9 -13
-2 -22 -1 -23 10 -6 10 -6 -21 -15 -21 -15 4 -12 5 -13 -9 -14 -9 -14 5 38 4
39 -13 -11 -13 -11 0 -25 0 -25 13 -11 14 -11 0 -10 0 -10 -19 23 -19 23 -16
-13 -17 -14 4 -11 4 -11 -32 0 -32 0 4 11 4 11 -17 14 -16 13 -19 -23 -19 -23
0 10 0 10 14 11 14 11 0 25 0 25 -14 11 -13 11 4 -33 4 -33 -15 -18 -16 -17 7
-10 6 -11 -4 0 -4 0 -33 32 -34 32 12 4 11 3 -12 14 -12 13 -7 -11 -7 -11 -3
4 -3 5 -30 33 -30 33 18 -6 17 -7 0 7 0 7 -25 20 -26 20 7 20 6 21 -11 -7 -11
-7 6 15 6 16 -12 0 -13 0 18 20 18 20 -15 18 -15 17 -2 20 -2 20 0 23 -1 22
-9 0 -9 0 0 -325 0 -325 640 0 640 0 0 640 0 640 -326 0 -325 0 5 -8z m286
-112 l0 -10 -10 0 -10 0 0 10 0 10 10 0 10 0 0 -10z m40 0 l0 -10 -10 0 -10 0
0 10 0 10 10 0 10 0 0 -10z m-40 -30 l0 -10 -10 0 -10 0 0 10 0 10 10 0 10 0
0 -10z m70 0 l0 -10 -10 0 -10 0 0 10 0 10 10 0 10 0 0 -10z m-30 -40 l0 -10
-10 0 -10 0 0 10 0 10 10 0 10 0 0 -10z m30 0 l0 -10 -10 0 -10 0 0 10 0 10
10 0 10 0 0 -10z m35 0 l6 -10 -10 0 -11 0 0 10 0 10 4 0 5 0 6 -10z m-326
-65 l11 -6 0 -17 0 -17 -11 15 -11 15 5 -15 4 -15 22 2 21 3 0 -10 0 -10 -12
0 -13 0 15 -10 15 -10 -15 -10 -15 -10 18 -11 17 -10 0 -27 0 -27 -9 -14 -9
-15 -16 13 -15 13 3 29 3 29 -8 -5 -8 -5 1 -23 1 -22 15 -17 15 -18 -19 -22
-19 -23 23 19 22 19 6 -5 5 -6 -31 -31 -32 -31 -5 0 -5 0 5 13 5 13 -17 0 -17
0 0 -17 0 -18 9 6 8 5 13 -11 14 -11 0 -25 0 -25 -14 -11 -14 -11 -15 12 -16
13 5 12 4 12 -8 14 -9 13 -8 -8 -8 -9 14 -5 13 -4 -13 -9 -13 -8 25 -19 24
-20 -8 -8 -8 -8 -9 14 -9 14 -8 -7 -7 -8 14 -10 15 -9 -15 -11 -15 -11 14 -5
13 -5 -12 -8 -13 -8 17 -17 17 -17 7 6 6 7 -10 7 -10 7 -1 22 -2 22 14 11 14
12 10 -7 11 -6 -2 -23 -2 -24 -13 5 -13 5 0 -7 0 -6 16 -16 16 -16 9 14 9 14
0 -9 0 -9 -17 -19 -16 -18 6 -7 7 -7 13 17 12 17 0 -35 0 -35 -11 15 -11 15
-8 0 -7 0 5 -14 6 -15 -13 5 -13 5 -13 -16 -12 -15 12 -15 13 -16 14 5 14 6
-6 -10 -6 -10 -7 0 -7 1 -24 19 -23 20 23 19 24 19 -8 8 -8 8 -9 -14 -9 -14
-8 8 -8 9 12 4 13 5 -13 12 -12 13 -3 171 -3 172 16 -6 15 -6 0 11 0 11 -10 0
-10 0 0 11 0 10 10 -6 10 -6 0 10 0 9 -12 5 -13 5 15 11 15 11 -15 11 -15 11
14 5 13 5 -13 9 -14 9 15 11 15 11 -12 5 -13 5 0 10 0 10 15 -6 15 -5 0 9 0 9
15 -5 15 -6 0 11 0 11 -12 0 -13 0 15 10 15 9 7 -18 7 -19 10 -7z m231 20 l13
-16 12 5 12 4 14 -8 13 -9 -8 -8 -9 -8 -5 14 -4 13 -9 -13 -8 -14 -17 23 -16
23 -15 -5 -14 -6 6 10 6 10 8 0 9 0 12 -15z m-440 -25 l0 -10 -10 0 -10 0 0
10 0 10 10 0 10 0 0 -10z m250 0 l0 -10 -4 0 -5 0 -6 10 -6 10 10 0 11 0 0
-10z m182 -63 l-3 -10 17 -18 17 -19 -18 -20 -18 -20 -10 0 -9 0 23 19 23 19
-13 16 -14 17 -12 -5 -12 -4 3 29 4 29 -9 0 -9 0 -4 -12 -5 -13 0 31 0 32 26
-31 26 -31 -3 -9z m108 63 l0 -10 -10 0 -10 0 0 10 0 10 10 0 10 0 0 -10z
m-10 -35 l12 -15 -10 0 -10 0 -6 15 -5 15 3 0 4 0 12 -15z m-530 -5 l0 -10
-10 0 -10 0 0 10 0 10 10 0 10 0 0 -10z m500 0 l0 -10 -10 0 -10 0 0 10 0 10
10 0 10 0 0 -10z m0 -30 l0 -10 -11 0 -10 0 6 10 6 10 5 0 4 0 0 -10z m40 1
l0 -9 -14 -5 -15 -6 6 15 5 14 9 0 9 0 0 -9z m-110 -41 l0 -10 -10 0 -10 0 0
10 0 10 10 0 10 0 0 -10z m110 0 l0 -10 -10 0 -10 0 0 10 0 10 10 0 10 0 0
-10z m-234 -46 l-10 -11 -12 11 -11 10 11 12 10 11 12 -11 11 -10 -11 -12z
m146 0 l-23 -16 5 -14 5 -13 -15 6 -14 5 0 5 0 5 23 19 22 18 10 1 9 0 -22
-16z m-489 -28 l6 -15 -15 6 -14 5 0 9 0 9 9 0 9 0 5 -14z m357 4 l0 -8 -12
-5 -13 -5 15 -11 14 -10 -8 -8 -9 -8 -4 10 -3 10 -10 15 -9 14 -8 -7 -7 -8 14
-9 14 -9 -7 -7 -7 -8 -17 17 -16 16 12 14 11 15 25 0 25 0 0 -8z m150 0 l0
-10 -10 0 -10 0 0 10 0 10 10 0 10 0 0 -10z m-510 -40 l0 -10 -10 0 -10 0 0
10 0 10 10 0 10 0 0 -10z m510 0 l0 -10 -10 0 -10 0 0 10 0 10 10 0 10 0 0
-10z m-157 -19 l7 -1 0 -9 0 -8 -25 0 -25 0 -6 8 -5 9 -23 -23 -23 -22 7 -10
8 -10 -2 -20 -1 -20 -17 -24 -18 -25 -6 7 -6 6 16 16 16 16 -5 35 -4 34 24 24
25 25 27 -4 28 -4 8 0z m-353 -11 l0 -10 -10 0 -10 0 0 10 0 10 10 0 10 0 0
-10z m510 0 l0 -10 -10 0 -10 0 0 10 0 10 10 0 10 0 0 -10z m-200 -16 l0 -5
-15 -16 -16 -15 -5 5 -6 6 13 15 14 15 8 1 7 0 0 -6z m-307 -28 l6 -15 -15 6
-14 5 0 9 0 9 9 0 9 0 5 -14z m107 4 l0 -10 -10 0 -10 0 0 10 0 10 10 0 10 0
0 -10z m400 0 l0 -10 -10 0 -10 0 0 10 0 10 10 0 10 0 0 -10z m-510 -70 l0
-10 -10 0 -10 0 0 10 0 10 10 0 10 0 0 -10z m110 0 l0 -10 -10 0 -10 0 0 10 0
10 10 0 10 0 0 -10z m-110 -40 l0 -10 -10 0 -10 0 0 10 0 10 10 0 10 0 0 -10z
m105 0 l6 -10 -10 0 -11 0 0 10 0 10 4 0 5 0 6 -10z m295 0 l0 -10 -10 0 -10
0 0 10 0 10 10 0 10 0 0 -10z m-814 -97 l-7 -7 -9 14 -10 15 0 10 0 9 17 -17
17 -17 -8 -7z m414 27 l0 -10 -10 0 -10 0 0 10 0 10 10 0 10 0 0 -10z m290 0
l0 -10 -4 0 -5 0 -6 10 -6 10 10 0 11 0 0 -10z m70 0 l0 -10 -10 0 -10 0 0 10
0 10 10 0 10 0 0 -10z m40 0 l0 -10 -10 0 -10 0 0 10 0 10 10 0 10 0 0 -10z
m-37 -36 l-5 -12 -13 -6 -14 -5 -13 17 -13 17 19 -15 20 -15 -6 15 -6 16 18 0
18 0 -5 -12z m-368 -4 l6 -10 -10 0 -11 0 0 10 0 10 4 0 5 0 6 -10z m405 0 l0
-10 -11 0 -10 0 6 10 6 10 5 0 4 0 0 -10z m-400 -30 l0 -10 -10 0 -10 0 0 10
0 10 10 0 10 0 0 -10z m360 0 l0 -10 -10 0 -10 0 0 10 0 10 10 0 10 0 0 -10z
m40 6 l0 -5 -10 -6 -10 -6 0 10 0 11 10 0 10 0 0 -4z m-180 -46 l0 -10 -10 0
-10 0 0 10 0 10 10 0 10 0 0 -10z m140 6 l0 -5 -10 -6 -10 -6 0 10 0 11 10 0
10 0 0 -4z m-137 -73 l-5 -13 -8 0 -8 0 -5 13 -5 13 18 0 18 0 -5 -13z m-43
-3 l0 -10 -11 0 -10 0 6 10 6 10 5 0 4 0 0 -10z m-180 -40 l0 -10 -10 0 -10 0
0 10 0 10 10 0 10 0 0 -10z m73 -3 l5 -14 -8 -12 -7 -13 -7 11 -7 11 13 1 13
1 -12 5 -13 5 0 9 0 9 9 0 9 0 5 -13z m37 3 l0 -10 -10 0 -10 0 0 10 0 10 10
0 10 0 0 -10z m110 0 l0 -10 -10 0 -10 0 0 10 0 10 10 0 10 0 0 -10z m-536
-25 l-6 -15 -10 6 -10 7 13 8 14 9 2 0 2 0 -5 -15z m316 1 l0 -5 -10 -6 -10
-6 0 10 0 11 10 0 10 0 0 -4z m110 -6 l0 -10 -10 0 -10 0 0 10 0 10 10 0 10 0
0 -10z m110 6 l0 -5 -10 -6 -10 -6 0 10 0 11 10 0 10 0 0 -4z m-231 -40 l12
-14 -14 -5 -13 -5 0 19 0 19 2 0 2 0 11 -14z m-169 -6 l0 -10 -10 0 -10 0 0
10 0 10 10 0 10 0 0 -10z m110 0 l0 -10 -10 0 -10 0 0 10 0 10 10 0 10 0 0
-10z m180 0 l0 -10 -10 0 -10 0 0 10 0 10 10 0 10 0 0 -10z m-290 -70 l0 -10
-4 0 -5 0 -6 10 -6 10 10 0 11 0 0 -10z m40 6 l0 -5 -10 -6 -10 -6 0 10 0 11
10 0 10 0 0 -4z m30 0 l0 -5 -10 -6 -10 -6 0 10 0 11 10 0 10 0 0 -4z m40 -6
l0 -10 -4 0 -5 0 -6 10 -6 10 10 0 11 0 0 -10z m70 6 l0 -5 -10 -6 -10 -6 0
10 0 11 10 0 10 0 0 -4z m40 -6 l0 -10 -4 0 -5 0 -6 10 -6 10 10 0 11 0 0 -10z"/>
<path d="M650 1000 l0 -10 10 0 10 0 0 10 0 10 -10 0 -10 0 0 -10z"/>
<path d="M650 966 l0 -4 16 -6 15 -6 -6 10 -6 10 -10 0 -9 0 0 -4z"/>
<path d="M650 930 l0 -10 10 0 10 0 0 10 0 10 -10 0 -10 0 0 -10z"/>
<path d="M663 903 l-13 -5 0 -9 0 -9 9 0 9 0 6 15 5 15 -2 -1 -2 -1 -12 -5z"/>
<path d="M720 890 l0 -10 10 0 10 0 0 10 0 10 -10 0 -10 0 0 -10z"/>
<path d="M650 861 l0 -9 14 -5 15 -6 -6 15 -5 14 -9 0 -9 0 0 -9z"/>
<path d="M720 860 l0 -10 10 0 10 0 0 10 0 10 -10 0 -10 0 0 -10z"/>
<path d="M610 820 l0 -10 10 0 10 0 0 10 0 10 -10 0 -10 0 0 -10z"/>
<path d="M650 820 l0 -10 10 0 10 0 0 10 0 10 -10 0 -10 0 0 -10z"/>
<path d="M682 809 l-13 -21 -17 7 -17 6 13 -13 12 -12 22 22 22 21 -5 5 -5 5
-12 -20z"/>
<path d="M610 750 l0 -10 10 0 10 0 0 10 0 10 -10 0 -10 0 0 -10z"/>
<path d="M650 710 l0 -10 10 0 10 0 0 10 0 10 -10 0 -10 0 0 -10z"/>
<path d="M650 680 l0 -10 10 0 10 0 0 10 0 10 -10 0 -10 0 0 -10z"/>
<path d="M650 600 l0 -10 10 0 10 0 0 10 0 10 -10 0 -10 0 0 -10z"/>
<path d="M610 534 l0 -7 22 -18 21 -19 11 0 11 0 -15 10 -15 10 15 9 14 10 -7
8 -8 7 -10 -14 -11 -15 -5 13 -5 12 -9 0 -9 0 0 -6z"/>
<path d="M500 1250 l0 -10 10 0 10 0 0 10 0 10 -10 0 -10 0 0 -10z"/>
<path d="M540 1250 l0 -10 10 0 10 0 0 10 0 10 -10 0 -10 0 0 -10z"/>
<path d="M610 1250 l0 -10 10 0 10 0 0 10 0 10 -10 0 -10 0 0 -10z"/>
<path d="M649 1253 l-1 -8 -2 -20 -2 -21 16 0 16 0 -2 21 -2 20 -1 8 -1 7 -10
0 -10 0 -1 -7z"/>
<path d="M693 1235 l0 -25 7 -5 7 -4 -3 25 -2 26 -5 4 -4 5 0 -26z"/>
<path d="M720 1250 l0 -10 13 0 12 0 -15 -10 -14 -9 7 -8 8 -7 9 14 9 14 8 -8
8 -8 -24 -19 -24 -20 6 -6 6 -6 20 24 19 24 8 -8 8 -8 -14 -9 -14 -9 8 -8 9
-8 4 12 5 13 14 -14 14 -15 0 -5 0 -6 -30 4 -30 3 6 -8 5 -9 35 5 36 4 -11
-13 -11 -13 -25 0 -25 0 -11 13 -11 14 -10 0 -10 0 23 -20 24 -20 -24 -20 -24
-21 7 -6 6 -7 15 21 14 21 26 0 25 0 6 -10 7 -10 8 13 8 13 18 -21 18 -20 13
13 13 14 -15 15 -14 15 -4 -12 -5 -13 -18 18 -18 19 13 8 12 8 -13 4 -14 5 24
22 24 21 -7 7 -7 7 -10 -14 -9 -15 -10 15 -10 15 -10 -15 -10 -15 -10 15 -10
15 5 12 4 12 -13 -5 -13 -5 -16 15 -16 16 -5 0 -6 0 0 -10z m110 -70 l0 -10
-10 0 -10 0 0 10 0 10 10 0 10 0 0 -10z m0 -70 l0 -10 -10 0 -10 0 0 10 0 10
10 0 10 0 0 -10z"/>
<path d="M430 1219 l0 -10 10 6 10 6 0 5 0 4 -10 0 -10 0 0 -11z"/>
<path d="M475 1220 l6 -10 5 0 4 0 0 10 0 10 -11 0 -10 0 6 -10z"/>
<path d="M505 1220 l6 -10 5 0 4 0 0 10 0 10 -11 0 -10 0 6 -10z"/>
<path d="M540 1219 l0 -10 10 6 10 6 0 5 0 4 -10 0 -10 0 0 -11z"/>
<path d="M610 1220 l0 -10 10 0 10 0 0 10 0 10 -10 0 -10 0 0 -10z"/>
<path d="M505 1180 l-6 -10 10 0 11 0 0 10 0 10 -4 0 -5 0 -6 -10z"/>
<path d="M540 1180 l0 -10 11 0 10 0 -6 10 -6 10 -5 0 -4 0 0 -10z"/>
<path d="M610 1180 l0 -10 10 0 10 0 0 10 0 10 -10 0 -10 0 0 -10z"/>
<path d="M650 1180 l0 -10 10 0 10 0 0 10 0 10 -10 0 -10 0 0 -10z"/>
<path d="M663 1123 l-13 -5 0 -9 0 -9 9 0 9 0 6 15 5 15 -2 -1 -2 -1 -12 -5z"/>
<path d="M694 1119 l-6 -11 9 -9 9 -9 0 20 0 20 -3 0 -2 0 -7 -11z"/>
<path d="M615 1110 l6 -10 5 0 4 0 0 10 0 10 -11 0 -10 0 6 -10z"/>
<path d="M720 1110 l0 -10 10 0 10 0 0 10 0 10 -10 0 -10 0 0 -10z"/>
<path d="M760 1040 l0 -10 10 0 10 0 0 10 0 10 -10 0 -10 0 0 -10z"/>
<path d="M335 1030 l6 -10 5 0 4 0 0 10 0 10 -11 0 -10 0 6 -10z"/>
<path d="M310 1019 l0 -11 -15 5 -14 6 -8 -12 -7 -12 1 -62 2 -61 -15 -6 -14
-5 0 -20 0 -20 18 -10 17 -11 -14 -9 -13 -9 13 -6 14 -6 -13 -6 -13 -6 12 -14
11 -14 -12 -15 -12 -15 12 0 12 0 -11 -14 -12 -14 13 -6 13 -6 -13 -6 -13 -6
12 -14 11 -14 -12 -15 -12 -15 10 0 11 0 15 22 16 22 7 -8 8 -8 -18 -9 -18
-10 2 -44 3 -43 13 5 13 5 0 -7 0 -8 -17 -14 -18 -13 10 1 10 1 10 -1 10 -1
-14 -9 -14 -9 16 -16 15 -16 5 13 4 12 9 -8 8 -8 -10 -7 -11 -7 0 -20 0 -20
15 -18 16 -18 -17 7 -17 6 0 -10 0 -10 13 -5 12 -4 -9 -9 -9 -9 -4 13 -5 13
-14 -12 -14 -11 0 11 0 11 10 0 10 0 0 11 0 11 -14 -5 -15 -6 6 15 5 14 -10 0
-10 0 -4 -12 -5 -13 -17 18 -18 18 7 7 8 7 4 -12 5 -13 8 0 9 0 -1 23 -2 22
-9 13 -9 12 10 0 10 0 13 -16 13 -16 -15 -9 -14 -9 10 0 10 0 14 9 13 9 -33
31 -33 32 14 10 15 9 -26 -2 -27 -2 11 -17 11 -18 -14 -25 -13 -26 -9 0 -8 0
0 9 0 9 15 12 15 12 0 10 0 10 -19 -23 -20 -24 -26 28 -26 27 -10 -6 -10 -6
-18 16 -18 16 -19 -7 -19 -7 14 18 14 17 11 -4 12 -5 0 19 0 19 -3 0 -2 0 -25
-26 -24 -27 5 -14 5 -14 15 12 14 12 17 -16 16 -17 -16 -17 -17 -16 -15 13
-16 12 0 -9 0 -9 18 -12 17 -13 15 -9 15 -10 -14 -9 -14 -9 17 -18 18 -17 8
13 8 12 4 -13 5 -14 8 7 7 7 -13 16 -14 16 -12 14 -13 13 13 6 12 6 -12 6 -13
6 0 8 0 8 25 0 25 0 11 -14 12 -14 -7 -7 -7 -7 -9 14 -9 14 -8 -7 -7 -8 13 -8
13 -9 -13 -4 -14 -5 8 -9 8 -8 9 13 8 14 17 -17 18 -17 -20 -14 -20 -14 0 -26
-1 -25 14 -11 14 -11 14 11 15 12 -2 22 -1 22 -9 6 -10 7 14 15 14 14 22 -26
23 -26 -10 -3 -9 -3 20 -22 20 -22 22 -1 22 -2 13 11 13 10 -5 13 -5 13 17 -6
17 -7 -13 16 -13 16 13 5 13 5 -14 10 -13 9 10 7 11 6 -1 23 -2 22 -9 13 -9
12 8 0 9 1 19 27 20 27 -22 -19 -22 -19 -6 6 -6 6 28 25 29 25 -13 13 -13 13
6 -16 6 -16 -16 -13 -15 -13 -7 7 -7 7 14 10 15 9 -15 10 -15 10 15 10 15 10
-14 9 -13 9 13 5 14 5 -15 11 -15 11 15 10 15 10 -15 10 -15 9 -3 -70 -3 -70
-16 17 -16 16 14 9 14 9 -15 10 -15 10 14 0 13 0 -13 16 -13 16 15 10 14 10
-12 5 -13 5 0 14 0 15 12 -7 11 -7 -7 12 -7 11 -8 -4 -7 -5 -14 10 -15 9 13 0
12 0 0 11 0 11 -14 -5 -15 -6 6 15 6 15 13 -5 13 -5 10 13 10 12 -21 1 -20 2
-6 6 -6 6 14 9 15 10 -12 0 -13 0 0 11 0 11 14 -5 15 -6 -6 15 -6 15 -11 -4
-12 -5 0 18 0 18 18 -9 18 -10 0 5 0 5 -22 21 -23 21 17 -6 18 -7 6 16 6 16 2
38 1 37 6 10 7 10 -14 13 -14 13 0 -12z m5 -54 l0 -31 -15 0 -15 0 0 31 0 31
15 0 15 0 0 -31z m-5 -55 l0 -10 -10 0 -10 0 0 10 0 10 10 0 10 0 0 -10z m-40
-69 l0 -10 -10 -6 -10 -6 0 15 0 16 10 0 10 0 0 -9z m40 -181 l0 -10 -10 0
-10 0 0 10 0 10 10 0 10 0 0 -10z m0 -110 l0 -10 -10 0 -10 0 0 10 0 10 10 0
10 0 0 -10z m25 -40 l6 -10 -10 0 -11 0 0 10 0 10 4 0 5 0 6 -10z m5 -30 l0
-10 -10 0 -10 0 0 10 0 10 10 0 10 0 0 -10z m-110 -80 l-21 -21 -16 17 -17 17
21 -7 22 -7 12 23 12 23 4 -12 4 -12 -21 -21z m-120 20 l0 -10 -10 0 -10 0 0
10 0 10 10 0 10 0 0 -10z m20 -50 l0 -10 -10 0 -10 0 0 10 0 10 10 0 10 0 0
-10z m70 -40 l0 -10 -10 0 -10 0 0 10 0 10 10 0 10 0 0 -10z m0 -30 l0 -10
-10 0 -10 0 0 10 0 10 10 0 10 0 0 -10z m110 0 l0 -10 -11 0 -10 0 6 10 6 10
5 0 4 0 0 -10z m30 0 l0 -10 -11 0 -10 0 6 10 6 10 5 0 4 0 0 -10z"/>
<path d="M769 1009 l-14 -9 14 -9 14 -9 14 5 13 5 0 8 0 8 -13 5 -14 5 -14 -9z"/>
<path d="M425 959 l-7 -10 3 -4 4 -3 13 14 13 14 -10 0 -10 0 -6 -11z"/>
<path d="M790 930 l0 -10 10 0 10 0 0 10 0 10 -10 0 -10 0 0 -10z"/>
<path d="M414 913 l-8 -18 -2 -15 -2 -15 -7 -20 -7 -20 14 20 15 20 6 33 7 32
-4 0 -4 0 -8 -17z"/>
<path d="M505 890 l6 -10 5 0 4 0 0 10 0 10 -11 0 -10 0 6 -10z"/>
<path d="M505 820 l-6 -10 10 0 11 0 0 10 0 10 -4 0 -5 0 -6 -10z"/>
<path d="M378 800 l-17 -19 12 -5 12 -6 -13 -6 -13 -6 12 -14 11 -14 -12 -15
-12 -15 11 0 11 0 4 23 5 22 5 38 5 37 -2 -1 -2 -1 -17 -18z"/>
<path d="M229 798 l-1 -3 -2 -22 -3 -23 9 0 8 0 0 25 0 25 -5 0 -5 0 -1 -2z"/>
<path d="M500 750 l0 -10 10 0 10 0 0 10 0 10 -10 0 -10 0 0 -10z"/>
<path d="M229 733 l-2 -8 -1 -103 -2 -103 8 -5 8 -5 -1 116 -1 115 -4 0 -4 0
-1 -7z"/>
<path d="M810 730 l0 -10 10 0 10 0 0 10 0 10 -10 0 -10 0 0 -10z"/>
<path d="M505 710 l-6 -10 10 0 11 0 0 10 0 10 -4 0 -5 0 -6 -10z"/>
<path d="M760 710 l0 -10 10 0 10 0 0 10 0 10 -10 0 -10 0 0 -10z"/>
<path d="M787 707 l-5 -14 29 2 29 2 7 6 6 7 -7 7 -7 7 -8 -13 -8 -13 -7 11
-7 11 -9 0 -8 0 -5 -13z"/>
<path d="M70 680 l0 -10 11 0 10 0 -6 10 -6 10 -5 0 -4 0 0 -10z"/>
<path d="M115 680 l-6 -10 10 0 11 0 0 10 0 10 -4 0 -5 0 -6 -10z"/>
<path d="M360 680 l0 -10 10 0 10 0 0 10 0 10 -10 0 -10 0 0 -10z"/>
<path d="M500 680 l0 -10 10 0 10 0 0 10 0 10 -10 0 -10 0 0 -10z"/>
<path d="M752 673 l-14 -14 11 -13 11 -13 25 0 25 0 11 13 11 14 -11 14 -11
14 -23 0 -22 0 -13 -15z m28 -13 l0 -10 -10 0 -10 0 0 10 0 10 10 0 10 0 0
-10z m30 0 l0 -10 -10 0 -10 0 0 10 0 10 10 0 10 0 0 -10z"/>
<path d="M70 639 l0 -10 10 6 10 6 0 5 0 4 -10 0 -10 0 0 -11z"/>
<path d="M145 640 l6 -10 5 0 4 0 0 10 0 10 -11 0 -10 0 6 -10z"/>
<path d="M500 640 l0 -10 10 0 10 0 0 10 0 10 -10 0 -10 0 0 -10z"/>
<path d="M70 600 l0 -10 10 0 10 0 0 10 0 10 -10 0 -10 0 0 -10z"/>
<path d="M115 600 l-6 -10 10 0 11 0 0 10 0 10 -4 0 -5 0 -6 -10z"/>
<path d="M145 600 l-6 -10 10 0 11 0 0 10 0 10 -4 0 -5 0 -6 -10z"/>
<path d="M180 600 l0 -10 11 0 10 0 -6 10 -6 10 -5 0 -4 0 0 -10z"/>
<path d="M500 600 l0 -10 10 0 10 0 0 10 0 10 -10 0 -10 0 0 -10z"/>
<path d="M70 570 l0 -10 10 0 10 0 0 10 0 10 -10 0 -10 0 0 -10z"/>
<path d="M110 570 l0 -10 10 0 10 0 0 10 0 10 -10 0 -10 0 0 -10z"/>
<path d="M145 570 l-6 -10 10 0 11 0 0 10 0 10 -4 0 -5 0 -6 -10z"/>
<path d="M180 570 l0 -10 11 0 10 0 -6 10 -6 10 -5 0 -4 0 0 -10z"/>
<path d="M255 570 l-6 -10 10 0 11 0 0 10 0 10 -4 0 -5 0 -6 -10z"/>
<path d="M110 530 l0 -10 10 0 10 0 0 10 0 10 -10 0 -10 0 0 -10z"/>
<path d="M140 530 l0 -10 10 0 10 0 0 10 0 10 -10 0 -10 0 0 -10z"/>
<path d="M177 526 l-6 -15 15 6 14 5 0 9 0 9 -9 0 -9 0 -5 -14z"/>
<path d="M250 530 l0 -10 10 0 10 0 0 10 0 10 -10 0 -10 0 0 -10z"/>
<path d="M176 492 l-5 -8 19 0 19 0 -5 8 -5 8 -9 0 -9 0 -5 -8z"/>
<path d="M70 460 l0 -10 10 0 10 0 0 10 0 10 -10 0 -10 0 0 -10z"/>
<path d="M180 460 l0 -10 10 0 10 0 0 10 0 10 -10 0 -10 0 0 -10z"/>
<path d="M495 419 l4 -31 5 -6 6 -5 7 7 7 7 -13 8 -13 9 13 4 14 5 -17 17 -17
17 4 -32z"/>
<path d="M301 401 l-14 -9 15 -16 16 -15 -2 24 -1 25 0 0 0 0 -14 -9z"/>
<path d="M160 370 l0 -10 10 0 10 0 0 10 0 10 -10 0 -10 0 0 -10z"/>
<path d="M380 370 l0 -10 10 0 10 0 0 10 0 10 -10 0 -10 0 0 -10z"/>
<path d="M410 370 l0 -10 10 0 10 0 0 10 0 10 -10 0 -10 0 0 -10z"/>
</g>
</svg>
