<?xml version="1.0" standalone="no"?>
<!DOCTYPE svg PUBLIC "-//W3C//DTD SVG 20010904//EN"
 "http://www.w3.org/TR/2001/REC-SVG-20010904/DTD/svg10.dtd">
<svg version="1.0" xmlns="http://www.w3.org/2000/svg"
 width="468pt" height="468pt" viewBox="0 0 468 468"
 preserveAspectRatio="xMidYMid meet">
<metadata>
Created by potrace 1.8, written by Peter Selinger 2001-2007
</metadata>
<g transform="translate(0,468) scale(0.365625,-0.365625)"
fill="#000000" stroke="none">
<path d="M320 1250 l0 -10 10 0 10 0 0 10 0 10 -10 0 -10 0 0 -10z"/>
<path d="M360 1250 l0 -10 20 0 20 0 0 10 0 10 -20 0 -20 0 0 -10z"/>
<path d="M700 1250 l0 -10 50 0 50 0 0 10 0 10 -50 0 -50 0 0 -10z"/>
<path d="M820 1250 l0 -10 10 0 10 0 0 10 0 10 -10 0 -10 0 0 -10z"/>
<path d="M860 1250 l0 -10 10 0 10 0 0 10 0 10 -10 0 -10 0 0 -10z"/>
<path d="M900 1250 l0 -10 60 0 60 0 0 10 0 10 -60 0 -60 0 0 -10z"/>
<path d="M420 1230 l0 -10 10 0 10 0 0 10 0 10 -10 0 -10 0 0 -10z"/>
<path d="M460 1230 l0 -10 10 0 10 0 0 10 0 10 -10 0 -10 0 0 -10z"/>
<path d="M500 1210 l0 -10 10 0 10 0 0 10 0 10 -10 0 -10 0 0 -10z"/>
<path d="M860 1190 l0 -10 -40 0 -40 0 0 -10 0 -10 36 0 35 0 15 14 14 15 0 5
0 6 -10 0 -10 0 0 -10z"/>
<path d="M900 1190 l0 -10 10 0 10 0 0 10 0 10 -10 0 -10 0 0 -10z"/>
<path d="M987 1177 l-18 -22 -9 15 -9 14 -8 -8 -8 -9 13 -4 12 -5 0 -19 0 -19
10 0 10 0 0 18 0 18 20 14 20 14 0 8 0 8 -7 0 -8 0 -18 -23z"/>
<path d="M1040 1190 l0 -10 10 0 10 0 0 10 0 10 -10 0 -10 0 0 -10z"/>
<path d="M1120 1190 l0 -10 20 0 20 0 0 10 0 10 -20 0 -20 0 0 -10z"/>
<path d="M1180 1190 l0 -10 10 0 10 0 0 10 0 10 -10 0 -10 0 0 -10z"/>
<path d="M720 1170 l0 -10 -20 0 -20 0 0 -10 0 -10 20 0 20 0 0 10 0 10 20 0
20 0 0 10 0 10 -20 0 -20 0 0 -10z"/>
<path d="M1080 1150 l0 -30 10 0 10 0 0 30 0 30 -10 0 -10 0 0 -30z"/>
<path d="M253 1085 l-13 -14 0 -16 0 -15 -9 0 -9 0 -4 12 -5 13 -16 -17 -17
-17 0 -13 0 -14 20 -14 20 -14 0 -18 0 -18 30 0 30 0 0 10 0 10 30 0 30 0 0
20 0 20 -20 0 -20 0 0 10 0 10 10 0 10 0 0 26 0 25 -14 15 -15 14 -13 0 -13
-1 -12 -14z m47 -31 l0 -25 -14 -15 -15 -14 -5 0 -6 0 0 40 0 40 20 0 20 0 0
-26z m-74 -28 l14 -15 0 -15 0 -16 -6 0 -5 0 -15 14 -14 15 0 15 0 16 6 0 5 0
15 -14z"/>
<path d="M780 1090 l0 -10 -20 0 -20 0 0 -20 0 -20 9 0 9 0 6 13 6 12 6 -12 6
-13 9 0 9 0 0 20 0 20 20 0 20 0 0 10 0 10 -30 0 -30 0 0 -10z"/>
<path d="M1093 985 l-13 -14 0 -26 0 -25 -8 0 -8 0 -14 20 -14 20 -24 0 -23 0
-24 -25 -25 -24 0 -16 0 -15 -60 0 -60 0 0 10 0 10 -20 0 -20 0 0 10 0 10 -40
0 -40 0 0 10 0 10 -39 0 -39 0 -5 -12 -4 -13 -9 9 -9 9 13 4 12 5 0 9 0 9 -50
0 -50 0 0 10 0 10 -30 0 -30 0 0 -50 0 -50 -58 0 -58 0 -14 20 -14 20 -18 0
-18 0 0 -10 0 -10 -20 0 -20 0 0 10 0 10 -40 0 -40 0 0 10 0 10 -19 0 -19 0
-6 -12 -6 -13 -6 13 -6 12 -18 0 -18 0 -4 12 -5 13 -16 -17 -17 -17 0 -35 0
-36 220 0 220 0 0 -80 0 -80 -10 0 -10 0 0 10 0 10 -60 0 -60 0 0 -20 0 -20
-30 0 -30 0 0 -16 0 -15 14 -15 15 -14 15 0 16 0 0 -10 0 -10 20 0 20 0 0 -10
0 -10 20 0 20 0 0 -10 0 -10 20 0 20 0 0 -10 0 -10 20 0 20 0 0 -10 0 -10 20
0 20 0 0 -10 0 -10 20 0 20 0 0 -10 0 -10 25 0 26 0 34 -35 35 -34 0 -31 0
-31 14 -15 15 -14 35 0 36 0 0 -36 0 -36 -30 -28 -30 -28 0 -16 0 -16 -10 0
-10 0 0 -36 0 -35 14 -15 15 -14 15 0 16 0 0 10 0 10 20 0 20 0 0 10 0 10 30
0 30 0 0 10 0 10 20 0 20 0 0 10 0 10 30 0 30 0 0 10 0 10 20 0 20 0 0 10 0
10 20 0 20 0 0 10 0 10 20 0 20 0 0 10 0 10 15 0 16 0 24 25 25 24 0 16 0 15
10 0 10 0 0 30 0 30 10 0 10 0 0 50 0 50 -10 0 -10 0 0 18 0 18 20 14 20 14 0
18 0 18 10 0 10 0 0 50 0 50 -10 0 -10 0 0 20 0 20 -20 0 -20 0 0 20 0 20 -20
0 -20 0 0 20 0 20 -20 0 -20 0 0 10 0 10 -75 0 -76 0 -24 25 -25 24 0 6 0 5
180 0 180 0 0 60 0 60 -6 0 -7 0 -20 -22 -20 -23 -4 13 -5 12 -19 0 -19 0 0
10 0 10 -20 0 -20 0 0 10 0 10 -7 0 -8 -1 -12 -14z m-573 -35 l0 -10 16 0 15
0 16 -15 15 -16 -23 -19 -22 -20 6 -7 7 -6 19 21 18 22 14 0 15 0 14 -20 14
-20 8 0 8 0 0 19 0 19 -12 5 -13 4 7 8 7 7 16 -15 15 -16 0 -25 0 -26 29 0 29
0 5 13 4 12 9 -8 8 -8 -14 -10 -15 -9 14 -9 14 -9 -18 -19 -18 -18 -5 13 -4
12 -19 0 -19 0 0 20 0 20 -30 0 -30 0 0 20 0 20 -10 0 -10 0 0 -30 0 -30 -10
0 -10 0 0 -16 0 -17 -22 -20 -23 -20 13 -4 12 -5 0 -19 0 -19 10 0 10 0 0 30
0 30 20 0 20 0 0 -50 0 -50 -10 0 -10 0 0 -10 0 -10 20 0 20 0 0 29 0 29 13 5
12 5 -14 10 -14 10 16 16 16 16 5 0 6 0 0 -19 0 -19 13 -5 12 -5 -15 -12 -15
-12 13 -5 12 -5 0 -29 0 -29 10 0 10 0 0 -26 0 -25 -14 -15 -15 -14 -15 0 -16
0 0 -10 0 -10 -39 0 -39 0 -6 -12 -6 -13 -6 13 -6 12 -19 0 -19 0 0 10 0 10
-20 0 -20 0 0 10 0 10 -20 0 -20 0 0 10 0 10 -20 0 -20 0 0 10 0 10 -20 0 -20
0 0 10 0 10 -20 0 -20 0 0 10 0 10 -20 0 -20 0 0 10 0 10 30 0 30 0 0 -10 0
-10 40 0 40 0 0 10 0 10 30 0 30 0 0 -10 0 -10 16 0 15 0 15 14 14 15 0 35 0
36 -10 0 -10 0 0 50 0 50 -10 0 -10 0 0 40 0 40 -10 0 -10 0 0 20 0 20 20 0
20 0 0 -10z m200 -80 l0 -10 -10 0 -10 0 0 10 0 10 10 0 10 0 0 -10z m80 -20
l0 -10 -10 0 -10 0 0 10 0 10 10 0 10 0 0 -10z m40 -20 l0 -10 -10 0 -10 0 0
-20 0 -20 -10 0 -10 0 0 -10 0 -10 20 0 20 0 0 -20 0 -20 10 0 10 0 0 20 0 20
9 0 9 0 5 -12 4 -13 8 7 7 7 -18 18 -17 18 -5 -13 -4 -12 -9 0 -9 0 0 20 0 20
15 0 16 0 24 -25 25 -24 0 -13 0 -14 20 -14 20 -14 0 -18 0 -18 25 0 26 0 24
-25 25 -24 0 -36 0 -35 10 0 10 0 0 -10 0 -10 -20 0 -20 0 0 -10 0 -10 10 0
10 0 0 -20 0 -20 10 0 10 0 0 20 0 20 20 0 20 0 0 -10 0 -10 -10 0 -10 0 0
-30 0 -30 -30 0 -30 0 0 26 0 27 -22 18 -21 19 23 20 23 20 -7 7 -7 7 -10 -14
-11 -15 -5 13 -5 12 -19 0 -19 0 0 20 0 20 -26 0 -25 0 -15 14 -14 15 0 15 0
16 -8 0 -8 0 -14 -20 -14 -20 -8 0 -8 0 0 30 0 30 20 0 20 0 0 10 0 10 -20 0
-20 0 0 -10 0 -10 -10 0 -10 0 0 20 0 20 -10 0 -10 0 0 -30 0 -30 10 0 10 0 0
-30 0 -30 -10 0 -10 0 0 -15 0 -16 -36 -35 -35 -36 -6 6 -6 6 21 19 22 18 0
17 0 16 10 0 10 0 0 80 0 80 -10 0 -10 0 0 -50 0 -50 -10 0 -10 0 0 50 0 50
-10 0 -10 0 0 20 0 20 9 0 9 0 6 -12 6 -13 6 13 6 12 29 0 29 0 0 15 0 16 13
14 12 14 8 1 7 0 0 -10z m-340 -60 l0 -50 10 0 10 0 0 -30 0 -30 -10 0 -10 0
0 20 0 20 -10 0 -10 0 0 60 0 60 10 0 10 0 0 -50z m140 40 l0 -10 -10 0 -10 0
0 10 0 10 10 0 10 0 0 -10z m440 -40 l0 -10 -40 0 -40 0 0 10 0 10 40 0 40 0
0 -10z m40 -30 l0 -20 -40 0 -40 0 0 10 0 10 30 0 30 0 0 10 0 10 10 0 10 0 0
-20z m-700 -50 l0 -10 -40 0 -40 0 0 10 0 10 40 0 40 0 0 -10z m580 0 l0 -10
-10 0 -10 0 0 10 0 10 10 0 10 0 0 -10z m160 0 l0 -10 -40 0 -40 0 0 10 0 10
40 0 40 0 0 -10z m-33 -45 l15 -16 -5 -6 -6 -5 -16 15 -15 16 0 5 0 6 6 0 5 0
16 -15z m53 5 l0 -10 -10 0 -10 0 0 10 0 10 10 0 10 0 0 -10z m-80 -60 l0 -10
-10 0 -10 0 0 10 0 10 10 0 10 0 0 -10z m60 0 l0 -10 -10 0 -10 0 0 10 0 10
10 0 10 0 0 -10z m40 0 l0 -10 -10 0 -10 0 0 10 0 10 10 0 10 0 0 -10z m-360
-40 l0 -10 20 0 20 0 0 -10 0 -10 -50 0 -50 0 0 5 0 6 13 14 12 14 18 1 17 0
0 -10z m280 0 l0 -10 -10 0 -10 0 0 10 0 10 10 0 10 0 0 -10z m80 0 l0 -10
-10 0 -10 0 0 10 0 10 10 0 10 0 0 -10z m-260 -60 l0 -30 20 0 20 0 0 -20 0
-20 20 0 20 0 0 -16 0 -15 14 -15 15 -14 15 0 16 0 0 -10 0 -10 -10 0 -10 0 0
-20 0 -20 10 0 10 0 0 -26 0 -25 -14 -15 -15 -14 -21 0 -22 0 -28 30 -28 30
-16 0 -16 0 0 10 0 10 -20 0 -20 0 0 10 0 10 -30 0 -30 0 0 10 0 10 -16 0 -15
0 -15 14 -14 15 0 21 0 21 26 26 25 25 7 -6 6 -7 -14 -9 -14 -9 7 -8 8 -7 9
14 9 14 8 -7 7 -8 -14 -9 -14 -9 7 -8 8 -7 10 14 9 15 9 -15 10 -14 6 6 7 7
-38 37 -38 38 -4 -12 -4 -12 -19 0 -19 0 0 20 0 20 9 0 9 0 6 -12 6 -13 6 13
6 12 15 0 16 0 19 -22 19 -22 9 14 9 14 8 -7 7 -8 -14 -10 -15 -11 13 -5 12
-5 0 -15 0 -14 -16 -16 -16 -16 -9 14 -9 14 -9 -15 -10 -14 -19 22 -19 22 -7
0 -6 0 0 -16 0 -15 14 -15 15 -14 55 0 56 0 0 20 0 20 10 0 10 0 0 20 0 20
-10 0 -10 0 0 30 0 30 -10 0 -10 0 0 10 0 10 20 0 20 0 0 -30z m-240 -30 l0
-20 -16 0 -15 0 -15 14 -14 15 0 5 0 6 30 0 30 0 0 -20z m40 -50 l0 -70 -6 0
-5 0 -15 14 -14 15 0 35 0 36 10 0 10 0 0 20 0 20 10 0 10 0 0 -70z m400 11
l0 -19 13 -6 12 -6 -12 -6 -13 -6 0 -29 0 -29 -10 0 -10 0 0 20 0 20 -10 0
-10 0 0 25 0 26 13 14 12 14 8 1 7 0 0 -19z m-320 -131 l0 -10 -10 0 -10 0 0
10 0 10 10 0 10 0 0 -10z m61 -21 l30 -32 7 7 6 7 -14 9 -14 9 8 8 9 8 4 -12
5 -13 19 0 19 0 0 -6 0 -5 -14 -15 -15 -14 -21 0 -21 0 -15 14 -14 15 0 15 0
16 -10 0 -10 0 0 10 0 10 6 0 6 0 29 -31z m-24 -55 l25 -25 -6 -7 -7 -6 -10
14 -9 15 -9 -15 -10 -14 -8 7 -7 8 14 10 15 11 -12 5 -13 5 0 9 0 9 5 0 6 0
26 -26z m-57 -4 l0 -10 -10 0 -10 0 0 10 0 10 10 0 10 0 0 -10z m180 0 l0 -10
-10 0 -10 0 0 10 0 10 10 0 10 0 0 -10z m-220 -40 l0 -10 -10 0 -10 0 0 10 0
10 10 0 10 0 0 -10z m40 -20 l0 -10 -10 0 -10 0 0 10 0 10 10 0 10 0 0 -10z
m40 0 l0 -10 -10 0 -10 0 0 10 0 10 10 0 10 0 0 -10z m-80 -40 l0 -10 -10 0
-10 0 0 10 0 10 10 0 10 0 0 -10z"/>
<path d="M520 910 l0 -10 10 0 10 0 0 10 0 10 -10 0 -10 0 0 -10z"/>
<path d="M420 630 l0 -10 20 0 20 0 0 10 0 10 -20 0 -20 0 0 -10z"/>
<path d="M540 610 l0 -10 10 0 10 0 0 10 0 10 -10 0 -10 0 0 -10z"/>
<path d="M460 590 l0 -10 10 0 10 0 0 10 0 10 -10 0 -10 0 0 -10z"/>
<path d="M500 590 l0 -10 10 0 10 0 0 10 0 10 -10 0 -10 0 0 -10z"/>
<path d="M580 590 l0 -10 10 0 10 0 0 10 0 10 -10 0 -10 0 0 -10z"/>
<path d="M540 550 l0 -10 10 0 10 0 0 10 0 10 -10 0 -10 0 0 -10z"/>
<path d="M880 715 l0 -6 25 -24 24 -25 6 0 5 0 0 16 0 15 -14 15 -15 14 -15 0
-16 0 0 -5z"/>
<path d="M920 630 l0 -10 20 0 20 0 0 10 0 10 -20 0 -20 0 0 -10z"/>
<path d="M980 631 l0 -9 13 -5 12 -5 -15 -11 -14 -10 7 -8 8 -7 10 14 9 15 9
-15 10 -14 7 6 6 7 -25 25 -26 26 -6 0 -5 0 0 -9z"/>
<path d="M1120 390 l0 -10 10 0 10 0 0 10 0 10 -10 0 -10 0 0 -10z"/>
<path d="M240 500 l0 -20 10 0 10 0 0 -30 0 -30 10 0 10 0 0 30 0 30 -10 0
-10 0 0 20 0 20 -10 0 -10 0 0 -20z"/>
<path d="M420 460 l0 -20 10 0 10 0 0 20 0 20 -10 0 -10 0 0 -20z"/>
<path d="M533 425 l-13 -14 0 -21 0 -21 15 -16 16 -15 7 7 7 8 -12 4 -13 5 0
29 0 29 16 0 17 0 18 -22 19 -21 6 6 6 6 -25 25 -26 26 -13 0 -13 -1 -12 -14z"/>
<path d="M80 410 l0 -10 -20 0 -20 0 0 -10 0 -10 19 0 19 0 5 -12 4 -13 9 9 9
9 -12 4 -13 5 0 9 0 9 20 0 20 0 0 10 0 10 -20 0 -20 0 0 -10z"/>
<path d="M420 390 l0 -30 10 0 10 0 0 -26 0 -25 15 -16 16 -15 7 7 7 8 -12 4
-13 5 0 29 0 29 -10 0 -10 0 0 30 0 30 -10 0 -10 0 0 -30z"/>
<path d="M213 385 l-13 -14 0 -11 0 -11 25 -24 24 -25 16 0 15 0 0 -10 0 -10
20 0 20 0 0 -10 0 -10 16 0 15 0 15 -14 14 -15 0 -5 0 -6 -30 0 -30 0 0 10 0
10 -30 0 -30 0 0 10 0 10 -60 0 -60 0 0 -10 0 -10 -30 0 -30 0 0 -30 0 -30 20
0 20 0 0 -10 0 -10 30 0 30 0 0 -10 0 -10 60 0 60 0 0 -10 0 -10 30 0 30 0 0
-10 0 -10 -30 0 -30 0 0 -10 0 -10 -40 0 -40 0 0 -20 0 -20 10 0 10 0 0 10 0
10 30 0 30 0 0 10 0 10 26 0 25 0 15 15 15 15 -15 15 -15 15 -15 0 -16 0 0 10
0 10 -70 0 -70 0 0 10 0 10 -26 0 -25 0 -15 14 -14 15 0 5 0 6 20 0 20 0 0 10
0 10 60 0 60 0 0 -10 0 -10 30 0 30 0 0 -10 0 -10 30 0 30 0 0 -10 0 -10 20 0
20 0 0 10 0 10 -20 0 -20 0 0 9 0 9 12 4 12 4 -26 27 -27 27 -16 0 -15 0 0 10
0 10 -20 0 -20 0 0 10 0 10 -16 0 -15 0 -15 14 -14 15 0 15 0 16 30 0 30 0 0
-10 0 -10 20 0 20 0 0 -10 0 -10 16 0 15 0 49 -50 49 -50 15 0 16 0 0 -10 0
-10 26 0 25 0 17 -17 17 -16 -13 -5 -12 -4 0 -9 0 -9 20 0 20 0 0 15 0 16 -25
24 -24 25 -26 0 -25 0 0 10 0 10 -16 0 -15 0 -49 50 -49 50 -15 0 -16 0 0 10
0 10 -20 0 -20 0 0 10 0 10 -27 0 -28 -1 -12 -14z"/>
<path d="M120 370 l0 -10 10 0 10 0 0 10 0 10 -10 0 -10 0 0 -10z"/>
<path d="M132 324 l-13 -14 16 -16 16 -16 7 7 7 8 -12 4 -13 5 0 9 0 9 16 0
17 0 18 -22 19 -21 6 6 6 6 -25 25 -26 26 -13 0 -13 -1 -13 -15z"/>
<path d="M580 334 l0 -5 14 -15 15 -14 15 0 16 0 0 -20 0 -20 -20 0 -20 0 0
10 0 10 -20 0 -20 0 0 -10 0 -10 20 0 20 0 0 -10 0 -10 16 0 15 0 15 14 14 15
0 11 0 11 -14 15 -15 14 -15 0 -16 0 0 10 0 10 -10 0 -10 0 0 -6z"/>
<path d="M680 254 l0 -5 14 -15 15 -14 5 0 6 0 0 20 0 20 -20 0 -20 0 0 -6z"/>
<path d="M1080 170 l0 -10 -30 0 -30 0 0 -10 0 -10 -20 0 -20 0 0 -10 0 -10
20 0 20 0 0 10 0 10 30 0 30 0 0 10 0 10 60 0 60 0 0 -20 0 -20 -20 0 -20 0 0
-10 0 -10 -60 0 -60 0 0 -10 0 -10 60 0 60 0 0 10 0 10 16 0 15 0 15 14 14 15
0 11 0 11 -14 15 -15 14 -55 0 -56 0 0 -10z"/>
<path d="M400 120 l0 -20 10 0 10 0 0 10 0 10 30 0 30 0 0 10 0 10 -40 0 -40
0 0 -20z"/>
<path d="M140 110 l0 -10 -16 0 -15 0 -16 -15 -15 -16 7 -7 8 -7 4 13 5 12 19
0 19 0 0 10 0 10 20 0 20 0 0 10 0 10 -20 0 -20 0 0 -10z"/>
<path d="M560 110 l0 -10 -30 0 -30 0 0 -10 0 -10 30 0 30 0 0 -20 0 -20 10 0
10 0 0 19 0 19 -12 6 -13 6 13 6 12 6 0 9 0 9 -10 0 -10 0 0 -10z"/>
<path d="M440 70 l0 -10 20 0 20 0 0 10 0 10 -20 0 -20 0 0 -10z"/>
<path d="M880 70 l0 -10 50 0 50 0 0 10 0 10 -50 0 -50 0 0 -10z"/>
<path d="M391 44 l-13 -15 6 -6 5 -5 16 15 15 16 0 5 0 6 -7 0 -8 -1 -14 -15z"/>
<path d="M1000 50 l0 -10 10 0 10 0 0 10 0 10 -10 0 -10 0 0 -10z"/>
<path d="M1140 54 l0 -5 15 -16 16 -15 6 5 5 6 -15 16 -16 15 -5 0 -6 0 0 -6z"/>
<path d="M340 30 l0 -10 10 0 10 0 0 10 0 10 -10 0 -10 0 0 -10z"/>
<path d="M600 30 l0 -10 20 0 20 0 0 10 0 10 -20 0 -20 0 0 -10z"/>
<path d="M880 30 l0 -10 20 0 20 0 0 10 0 10 -20 0 -20 0 0 -10z"/>
<path d="M1040 30 l0 -10 30 0 30 0 0 10 0 10 -30 0 -30 0 0 -10z"/>
<path d="M1200 30 l0 -10 10 0 10 0 0 10 0 10 -10 0 -10 0 0 -10z"/>
</g>
</svg>
