<?xml version="1.0" standalone="no"?>
<!DOCTYPE svg PUBLIC "-//W3C//DTD SVG 20010904//EN"
 "http://www.w3.org/TR/2001/REC-SVG-20010904/DTD/svg10.dtd">
<svg version="1.0" xmlns="http://www.w3.org/2000/svg"
 width="468pt" height="468pt" viewBox="0 0 468 468"
 preserveAspectRatio="xMidYMid meet">
<metadata>
Created by potrace 1.8, written by Peter Selinger 2001-2007
</metadata>
<g transform="translate(0,468) scale(0.365625,-0.365625)"
fill="#000000" stroke="none">
<path d="M130 1215 l0 -65 -65 0 -65 0 0 -190 0 -190 65 0 65 0 0 -65 0 -65
-65 0 -65 0 0 -320 0 -320 640 0 640 0 0 190 0 190 -65 0 -65 0 0 65 0 65 65
0 65 0 0 385 0 385 -65 0 -65 0 0 -65 0 -65 -65 0 -65 0 0 -65 0 -65 -125 0
-125 0 0 65 0 65 -65 0 -65 0 0 65 0 65 -255 0 -255 0 0 -65z m510 -255 l0
-60 65 0 65 0 0 -65 0 -65 125 0 125 0 0 65 0 65 65 0 65 0 0 -130 0 -130
-190 0 -190 0 0 65 0 65 -130 0 -130 0 0 65 0 65 -125 0 -125 0 0 -65 0 -65
-65 0 -65 0 0 65 0 65 65 0 65 0 0 60 0 60 190 0 190 0 0 -60z m-130 -385 l0
-65 130 0 130 0 0 -65 0 -65 -320 0 -320 0 0 65 0 65 65 0 65 0 0 65 0 65 125
0 125 0 0 -65z"/>
</g>
</svg>
