<?xml version="1.0" standalone="no"?>
<!DOCTYPE svg PUBLIC "-//W3C//DTD SVG 20010904//EN"
 "http://www.w3.org/TR/2001/REC-SVG-20010904/DTD/svg10.dtd">
<svg version="1.0" xmlns="http://www.w3.org/2000/svg"
 width="468pt" height="468pt" viewBox="0 0 468 468"
 preserveAspectRatio="xMidYMid meet">
<metadata>
Created by potrace 1.8, written by Peter Selinger 2001-2007
</metadata>
<g transform="translate(0,468) scale(0.365625,-0.365625)"
fill="#000000" stroke="none">
<path d="M220 1270 l0 -10 -16 0 -16 0 -28 -30 -28 -30 -16 0 -16 0 0 -10 0
-10 -39 0 -39 0 -5 13 -4 12 -8 -7 -7 -7 66 -65 66 -66 15 0 15 0 0 -10 0 -10
35 0 36 0 24 25 25 24 0 11 0 11 -25 24 -24 25 -36 0 -35 0 0 10 0 10 40 0 40
0 0 -10 0 -10 18 0 18 0 14 -20 14 -20 38 0 38 0 0 10 0 10 20 0 20 0 0 10 0
10 20 0 20 0 0 10 0 10 16 0 15 0 15 -14 14 -15 0 -15 0 -16 20 0 20 0 0 26 0
25 -14 15 -15 14 -53 0 -54 0 -14 -20 -14 -20 -18 0 -18 0 0 -10 0 -10 -30 0
-30 0 0 18 0 18 20 14 20 14 0 24 0 23 -14 15 -15 14 -45 0 -46 0 0 -10z m-80
-120 l0 -10 -20 0 -20 0 0 10 0 10 20 0 20 0 0 -10z"/>
<path d="M820 1270 l0 -10 -16 0 -16 0 -28 -30 -28 -30 -16 0 -16 0 0 -10 0
-10 -39 0 -39 0 -5 13 -4 12 -8 -7 -7 -7 66 -65 66 -66 15 0 15 0 0 -10 0 -10
35 0 36 0 24 25 25 24 0 11 0 11 -25 24 -24 25 -36 0 -35 0 0 10 0 10 40 0 40
0 0 -10 0 -10 18 0 18 0 14 -20 14 -20 38 0 38 0 0 10 0 10 20 0 20 0 0 10 0
10 20 0 20 0 0 10 0 10 16 0 15 0 15 -14 14 -15 0 -15 0 -16 20 0 20 0 0 26 0
25 -14 15 -15 14 -53 0 -54 0 -14 -20 -14 -20 -18 0 -18 0 0 -10 0 -10 -30 0
-30 0 0 18 0 18 20 14 20 14 0 24 0 23 -14 15 -15 14 -45 0 -46 0 0 -10z m-80
-120 l0 -10 -20 0 -20 0 0 10 0 10 20 0 20 0 0 -10z"/>
<path d="M373 1085 l-13 -14 0 -23 0 -24 20 -14 20 -14 0 -18 0 -18 -30 0 -30
0 0 10 0 10 -18 0 -18 0 -14 20 -14 20 -54 0 -53 0 -15 -14 -14 -15 0 -25 0
-26 20 0 20 0 0 16 0 15 14 15 15 14 15 0 16 0 0 -10 0 -10 20 0 20 0 0 -10 0
-10 20 0 20 0 0 -10 0 -10 38 0 38 0 14 20 14 20 18 0 18 0 0 10 0 10 40 0 40
0 0 -10 0 -10 -35 0 -36 0 -24 -25 -25 -24 0 -13 0 -14 20 -14 20 -14 0 -8 0
-8 -230 0 -230 0 0 -430 0 -430 640 0 640 0 0 430 0 430 -70 0 -70 0 0 10 0
10 15 0 15 0 55 55 55 55 0 5 0 5 -40 0 -40 0 0 10 0 10 -16 0 -16 0 -28 30
-28 30 -16 0 -16 0 0 10 0 10 -46 0 -45 0 -15 -14 -14 -15 0 -23 0 -24 20 -14
20 -14 0 -18 0 -18 -30 0 -30 0 0 10 0 10 -18 0 -18 0 -14 20 -14 20 -54 0
-53 0 -15 -14 -14 -15 0 -25 0 -26 20 0 20 0 0 16 0 15 14 15 15 14 15 0 16 0
0 -10 0 -10 20 0 20 0 0 -10 0 -10 20 0 20 0 0 -10 0 -10 38 0 38 0 14 20 14
20 18 0 18 0 0 10 0 10 40 0 40 0 0 -10 0 -10 -35 0 -36 0 -24 -25 -25 -24 0
-13 0 -14 20 -14 20 -14 0 -8 0 -8 -260 0 -260 0 0 10 0 10 15 0 15 0 55 55
55 55 0 5 0 5 -40 0 -40 0 0 10 0 10 -16 0 -16 0 -28 30 -28 30 -16 0 -16 0 0
10 0 10 -47 0 -48 -1 -12 -14z m227 -115 l0 -10 -20 0 -20 0 0 10 0 10 20 0
20 0 0 -10z m600 0 l0 -10 -20 0 -20 0 0 10 0 10 20 0 20 0 0 -10z"/>
</g>
</svg>
