<?xml version="1.0" standalone="no"?>
<!DOCTYPE svg PUBLIC "-//W3C//DTD SVG 20010904//EN"
 "http://www.w3.org/TR/2001/REC-SVG-20010904/DTD/svg10.dtd">
<svg version="1.0" xmlns="http://www.w3.org/2000/svg"
 width="468pt" height="468pt" viewBox="0 0 468 468"
 preserveAspectRatio="xMidYMid meet">
<metadata>
Created by potrace 1.8, written by Peter Selinger 2001-2007
</metadata>
<g transform="translate(0,468) scale(0.365625,-0.365625)"
fill="#000000" stroke="none">
<path d="M460 1200 l0 -20 -10 0 -10 0 0 10 0 10 -40 0 -40 0 0 -280 0 -280
-50 0 -50 0 0 -10 0 -10 -30 0 -30 0 0 -10 0 -10 -30 0 -30 0 0 -10 0 -10 -15
0 -16 0 -34 -35 -35 -34 0 -131 0 -130 55 -55 55 -55 15 0 15 0 0 -10 0 -10
30 0 30 0 0 -10 0 -10 40 0 40 0 0 -10 0 -10 70 0 70 0 0 -10 0 -10 250 0 250
0 0 10 0 10 40 0 40 0 0 90 0 90 100 0 100 0 0 140 0 140 -20 0 -20 0 0 10 0
10 -20 0 -20 0 0 10 0 10 -30 0 -30 0 0 10 0 10 -30 0 -30 0 0 10 0 10 -20 0
-20 0 0 280 0 280 -50 0 -50 0 0 20 0 20 -30 0 -30 0 0 -10 0 -10 -20 0 -20 0
0 10 0 10 -30 0 -30 0 0 -10 0 -10 -30 0 -30 0 0 10 0 10 -50 0 -50 0 0 -10 0
-10 -20 0 -20 0 0 10 0 10 -40 0 -40 0 0 -20z m0 -360 l0 -320 -10 0 -10 0 0
320 0 320 10 0 10 0 0 -320z m120 -10 l0 -330 -26 0 -25 0 -15 14 -14 15 0
315 0 316 40 0 40 0 0 -330z m140 -10 l0 -340 -36 0 -35 0 -15 14 -14 15 0
325 0 326 50 0 50 0 0 -340z m140 10 l0 -330 -20 0 -20 0 0 -10 0 -10 -30 0
-30 0 0 340 0 340 50 0 50 0 0 -330z m-460 20 l0 -290 -10 0 -10 0 0 290 0
290 10 0 10 0 0 -290z m580 0 l0 -290 -40 0 -40 0 0 290 0 290 40 0 40 0 0
-290z m240 -440 l0 -110 -90 0 -90 0 0 25 0 26 -70 69 -70 69 0 16 0 15 160 0
160 0 0 -110z m-1125 25 l25 -24 0 -96 0 -95 -5 0 -6 0 -24 25 -25 24 0 96 0
95 5 0 6 0 24 -25z m65 -25 l0 -10 15 0 16 0 24 -25 25 -24 0 -96 0 -95 -20 0
-20 0 0 10 0 10 -16 0 -15 0 -15 14 -14 15 0 105 0 106 10 0 10 0 0 -10z m160
-60 l0 -10 50 0 50 0 0 -110 0 -110 -40 0 -40 0 0 10 0 10 -40 0 -40 0 0 110
0 110 30 0 30 0 0 -10z m700 -120 l0 -110 -60 0 -60 0 0 -10 0 -10 -110 0
-110 0 0 110 0 110 90 0 90 0 0 10 0 10 80 0 80 0 0 -110z m-360 -20 l0 -110
-90 0 -90 0 0 10 0 10 -20 0 -20 0 0 100 0 100 110 0 110 0 0 -110z"/>
</g>
</svg>
