<?xml version="1.0" standalone="no"?>
<!DOCTYPE svg PUBLIC "-//W3C//DTD SVG 20010904//EN"
 "http://www.w3.org/TR/2001/REC-SVG-20010904/DTD/svg10.dtd">
<svg version="1.0" xmlns="http://www.w3.org/2000/svg"
 width="468pt" height="468pt" viewBox="0 0 468 468"
 preserveAspectRatio="xMidYMid meet">
<metadata>
Created by potrace 1.8, written by Peter Selinger 2001-2007
</metadata>
<g transform="translate(0,468) scale(0.365625,-0.365625)"
fill="#000000" stroke="none">
<path d="M160 1175 l0 -105 15 0 15 0 0 50 0 50 40 0 40 0 0 15 0 15 10 0 10
0 0 25 0 25 -10 0 -10 0 0 15 0 15 -55 0 -55 0 0 -105z m110 50 l0 -25 -40 0
-40 0 0 25 0 25 40 0 40 0 0 -25z"/>
<path d="M450 1185 l0 -95 -10 0 -10 0 0 55 0 55 -15 0 -15 0 0 15 0 15 -40 0
-40 0 0 -15 0 -15 40 0 40 0 0 -15 0 -15 -25 0 -25 0 0 -10 0 -10 -15 0 -15 0
0 -30 0 -30 15 0 15 0 0 -10 0 -10 25 0 25 0 0 10 0 10 15 0 15 0 0 -10 0 -10
25 0 25 0 0 40 0 40 15 0 15 0 0 -15 0 -15 10 0 10 0 0 -25 0 -25 15 0 15 0 0
25 0 25 -15 0 -15 0 0 14 0 14 -12 6 -13 6 13 6 12 6 0 14 0 14 15 0 15 0 0
15 0 15 -15 0 -15 0 0 -15 0 -15 -10 0 -10 0 0 -15 0 -15 -15 0 -15 0 0 55 0
55 -15 0 -15 0 0 -95z m-50 -65 l0 -30 -25 0 -25 0 0 30 0 30 25 0 25 0 0 -30z"/>
<path d="M590 1265 l0 -15 10 0 10 0 0 15 0 15 -10 0 -10 0 0 -15z"/>
<path d="M800 1255 l0 -25 -15 0 -15 0 0 -15 0 -15 15 0 15 0 0 -65 0 -65 25
0 25 0 0 10 0 10 -10 0 -10 0 0 55 0 55 10 0 10 0 0 15 0 15 -10 0 -10 0 0 25
0 25 -15 0 -15 0 0 -25z"/>
<path d="M590 1150 l0 -80 10 0 10 0 0 80 0 80 -10 0 -10 0 0 -80z"/>
<path d="M670 1215 l0 -15 -15 0 -15 0 0 -15 0 -15 15 0 15 0 0 -10 0 -10 25
0 25 0 0 -30 0 -30 -25 0 -25 0 0 15 0 15 -15 0 -15 0 0 -15 0 -15 15 0 15 0
0 -10 0 -10 25 0 25 0 0 10 0 10 15 0 15 0 0 30 0 30 -15 0 -15 0 0 10 0 10
15 0 15 0 0 15 0 15 -15 0 -15 0 0 15 0 15 -25 0 -25 0 0 -15z m50 -30 l0 -15
-25 0 -25 0 0 15 0 15 25 0 25 0 0 -15z"/>
<path d="M880 1215 l0 -15 40 0 40 0 0 -15 0 -15 -25 0 -25 0 0 -10 0 -10 -15
0 -15 0 0 -30 0 -30 15 0 15 0 0 -10 0 -10 25 0 25 0 0 10 0 10 15 0 15 0 0
-10 0 -10 25 0 25 0 0 50 0 50 15 0 15 0 0 15 0 15 25 0 25 0 0 -65 0 -65 15
0 15 0 0 65 0 65 -15 0 -15 0 0 15 0 15 -25 0 -25 0 0 -15 0 -15 -15 0 -15 0
0 15 0 15 -15 0 -15 0 0 -70 0 -70 -10 0 -10 0 0 55 0 55 -15 0 -15 0 0 15 0
15 -40 0 -40 0 0 -15z m80 -95 l0 -30 -25 0 -25 0 0 30 0 30 25 0 25 0 0 -30z"/>
<path d="M30 535 l0 -425 625 0 625 0 0 425 0 425 -625 0 -625 0 0 -425z m260
-5 l0 -400 -120 0 -120 0 0 400 0 400 120 0 120 0 0 -400z m110 390 l0 -10
-15 0 -15 0 0 10 0 10 15 0 15 0 0 -10z m110 0 l0 -10 -15 0 -15 0 0 10 0 10
15 0 15 0 0 -10z m100 0 l0 -10 -10 0 -10 0 0 10 0 10 10 0 10 0 0 -10z m110
0 l0 -10 -15 0 -15 0 0 10 0 10 15 0 15 0 0 -10z m110 0 l0 -10 -15 0 -15 0 0
10 0 10 15 0 15 0 0 -10z m100 0 l0 -10 -10 0 -10 0 0 10 0 10 10 0 10 0 0
-10z m110 0 l0 -10 -15 0 -15 0 0 10 0 10 15 0 15 0 0 -10z m110 0 l0 -10 -15
0 -15 0 0 10 0 10 15 0 15 0 0 -10z m100 0 l0 -10 -10 0 -10 0 0 10 0 10 10 0
10 0 0 -10z m-900 -25 l0 -15 -15 0 -15 0 0 15 0 15 15 0 15 0 0 -15z m100 0
l0 -15 -10 0 -10 0 0 15 0 15 10 0 10 0 0 -15z m110 0 l0 -15 -15 0 -15 0 0
15 0 15 15 0 15 0 0 -15z m110 0 l0 -15 -15 0 -15 0 0 15 0 15 15 0 15 0 0
-15z m100 0 l0 -15 -10 0 -10 0 0 15 0 15 10 0 10 0 0 -15z m110 0 l0 -15 -15
0 -15 0 0 15 0 15 15 0 15 0 0 -15z m110 0 l0 -15 -15 0 -15 0 0 15 0 15 15 0
15 0 0 -15z m100 0 l0 -15 -10 0 -10 0 0 15 0 15 10 0 10 0 0 -15z m110 0 l0
-15 -15 0 -15 0 0 15 0 15 15 0 15 0 0 -15z m-800 -30 l0 -15 -15 0 -15 0 0
15 0 15 15 0 15 0 0 -15z m110 0 l0 -15 -15 0 -15 0 0 15 0 15 15 0 15 0 0
-15z m100 0 l0 -15 -10 0 -10 0 0 15 0 15 10 0 10 0 0 -15z m110 0 l0 -15 -15
0 -15 0 0 15 0 15 15 0 15 0 0 -15z m110 0 l0 -15 -15 0 -15 0 0 15 0 15 15 0
15 0 0 -15z m100 0 l0 -15 -10 0 -10 0 0 15 0 15 10 0 10 0 0 -15z m110 0 l0
-15 -15 0 -15 0 0 15 0 15 15 0 15 0 0 -15z m110 0 l0 -15 -15 0 -15 0 0 15 0
15 15 0 15 0 0 -15z m100 0 l0 -15 -10 0 -10 0 0 15 0 15 10 0 10 0 0 -15z
m-900 -25 l0 -10 -15 0 -15 0 0 10 0 10 15 0 15 0 0 -10z m100 0 l0 -10 -10 0
-10 0 0 10 0 10 10 0 10 0 0 -10z m110 0 l0 -10 -15 0 -15 0 0 10 0 10 15 0
15 0 0 -10z m110 0 l0 -10 -15 0 -15 0 0 10 0 10 15 0 15 0 0 -10z m100 0 l0
-10 -10 0 -10 0 0 10 0 10 10 0 10 0 0 -10z m110 0 l0 -10 -15 0 -15 0 0 10 0
10 15 0 15 0 0 -10z m110 0 l0 -10 -15 0 -15 0 0 10 0 10 15 0 15 0 0 -10z
m100 0 l0 -10 -10 0 -10 0 0 10 0 10 10 0 10 0 0 -10z m110 0 l0 -10 -15 0
-15 0 0 10 0 10 15 0 15 0 0 -10z m-800 -25 l0 -15 -15 0 -15 0 0 15 0 15 15
0 15 0 0 -15z m110 0 l0 -15 -15 0 -15 0 0 15 0 15 15 0 15 0 0 -15z m100 0
l0 -15 -10 0 -10 0 0 -14 0 -14 13 -5 12 -4 -9 -9 -9 -9 -4 13 -5 12 -14 0
-14 0 0 -50 0 -50 -15 0 -15 0 0 -15 0 -15 15 0 15 0 0 -15 0 -15 -15 0 -15 0
0 -10 0 -10 15 0 15 0 0 -55 0 -55 15 0 15 0 0 15 0 15 10 0 10 0 0 -15 0 -15
-10 0 -10 0 0 -15 0 -15 10 0 10 0 0 -25 0 -25 15 0 15 0 0 15 0 15 15 0 15 0
0 -15 0 -15 -15 0 -15 0 0 -15 0 -15 15 0 15 0 0 -10 0 -10 25 0 25 0 0 -15 0
-15 40 0 40 0 0 15 0 15 15 0 15 0 0 -15 0 -15 -15 0 -15 0 0 -15 0 -15 25 0
25 0 0 15 0 15 15 0 15 0 0 -15 0 -15 25 0 25 0 0 15 0 15 -10 0 -10 0 0 15 0
15 10 0 10 0 0 -15 0 -15 40 0 40 0 0 15 0 15 15 0 15 0 0 -15 0 -15 -15 0
-15 0 0 -15 0 -15 15 0 15 0 0 -10 0 -10 -15 0 -15 0 0 10 0 10 -10 0 -10 0 0
-25 0 -25 -15 0 -15 0 0 15 0 15 -15 0 -15 0 0 -30 0 -30 -10 0 -10 0 0 15 0
15 -30 0 -30 0 0 -15 0 -15 15 0 15 0 0 -10 0 -10 -15 0 -15 0 0 10 0 10 -39
0 -39 0 -6 -12 -6 -13 -6 13 -6 12 -29 0 -29 0 0 15 0 15 -25 0 -25 0 0 15 0
15 -25 0 -25 0 0 10 0 10 -30 0 -30 0 0 26 0 25 -14 15 -15 14 -10 0 -11 0 0
55 0 55 -15 0 -15 0 0 -15 0 -15 -10 0 -10 0 0 15 0 15 10 0 10 0 0 14 0 14
-12 6 -13 6 13 6 12 6 0 14 0 14 -10 0 -10 0 0 14 0 14 13 6 12 6 -12 6 -13 6
0 14 0 14 10 0 10 0 0 -15 0 -15 15 0 15 0 0 55 0 55 15 0 15 0 0 15 0 15 10
0 10 0 0 25 0 25 30 0 30 0 0 15 0 15 10 0 10 0 0 -15z m110 0 l0 -15 -15 0
-15 0 0 15 0 15 15 0 15 0 0 -15z m110 0 l0 -15 -15 0 -15 0 0 15 0 15 15 0
15 0 0 -15z m100 0 l0 -15 -10 0 -10 0 0 15 0 15 10 0 10 0 0 -15z m110 0 l0
-15 -15 0 -15 0 0 15 0 15 15 0 15 0 0 -15z m110 0 l0 -15 -15 0 -15 0 0 15 0
15 15 0 15 0 0 -15z m100 0 l0 -15 -10 0 -10 0 0 15 0 15 10 0 10 0 0 -15z
m-900 -30 l0 -15 -15 0 -15 0 0 15 0 15 15 0 15 0 0 -15z m100 0 l0 -15 -10 0
-10 0 0 15 0 15 10 0 10 0 0 -15z m220 0 l0 -15 -15 0 -15 0 0 15 0 15 15 0
15 0 0 -15z m100 0 l0 -15 -10 0 -10 0 0 15 0 15 10 0 10 0 0 -15z m110 0 l0
-15 -15 0 -15 0 0 15 0 15 15 0 15 0 0 -15z m110 0 l0 -15 -15 0 -15 0 0 15 0
15 15 0 15 0 0 -15z m100 0 l0 -15 -10 0 -10 0 0 15 0 15 10 0 10 0 0 -15z
m110 0 l0 -15 -15 0 -15 0 0 15 0 15 15 0 15 0 0 -15z m-800 -25 l0 -10 -15 0
-15 0 0 10 0 10 15 0 15 0 0 -10z m110 0 l0 -10 -15 0 -15 0 0 10 0 10 15 0
15 0 0 -10z m210 0 l0 -10 -15 0 -15 0 0 10 0 10 15 0 15 0 0 -10z m110 0 l0
-10 -15 0 -15 0 0 10 0 10 15 0 15 0 0 -10z m100 0 l0 -10 -10 0 -10 0 0 10 0
10 10 0 10 0 0 -10z m110 0 l0 -10 -15 0 -15 0 0 10 0 10 15 0 15 0 0 -10z
m110 0 l0 -10 -15 0 -15 0 0 10 0 10 15 0 15 0 0 -10z m100 0 l0 -10 -10 0
-10 0 0 10 0 10 10 0 10 0 0 -10z m-900 -25 l0 -15 -15 0 -15 0 0 15 0 15 15
0 15 0 0 -15z m100 0 l0 -15 -10 0 -10 0 0 15 0 15 10 0 10 0 0 -15z m220 0
l0 -15 -15 0 -15 0 0 15 0 15 15 0 15 0 0 -15z m100 0 l0 -15 -10 0 -10 0 0
15 0 15 10 0 10 0 0 -15z m110 0 l0 -15 25 0 25 0 0 -15 0 -15 30 0 30 0 0
-10 0 -10 -30 0 -30 0 0 -40 0 -40 -10 0 -10 0 0 25 0 25 -15 0 -15 0 0 -15 0
-15 -15 0 -15 0 0 40 0 40 15 0 15 0 0 15 0 15 -15 0 -15 0 0 15 0 15 15 0 15
0 0 -15z m110 0 l0 -15 -15 0 -15 0 0 15 0 15 15 0 15 0 0 -15z m100 0 l0 -15
-10 0 -10 0 0 15 0 15 10 0 10 0 0 -15z m110 0 l0 -15 -15 0 -15 0 0 15 0 15
15 0 15 0 0 -15z m-800 -30 l0 -15 -15 0 -15 0 0 15 0 15 15 0 15 0 0 -15z
m210 0 l0 -15 -10 0 -10 0 0 15 0 15 10 0 10 0 0 -15z m110 0 l0 -15 -15 0
-15 0 0 15 0 15 15 0 15 0 0 -15z m110 0 l0 -15 -15 0 -15 0 0 15 0 15 15 0
15 0 0 -15z m210 0 l0 -15 -15 0 -15 0 0 15 0 15 15 0 15 0 0 -15z m110 0 l0
-15 -15 0 -15 0 0 15 0 15 15 0 15 0 0 -15z m100 0 l0 -15 -10 0 -10 0 0 15 0
15 10 0 10 0 0 -15z m-900 -25 l0 -10 -15 0 -15 0 0 10 0 10 15 0 15 0 0 -10z
m100 0 l0 -10 -10 0 -10 0 0 10 0 10 10 0 10 0 0 -10z m220 0 l0 -10 -15 0
-15 0 0 10 0 10 15 0 15 0 0 -10z m100 0 l0 -10 -10 0 -10 0 0 10 0 10 10 0
10 0 0 -10z m320 0 l0 -10 -10 0 -10 0 0 10 0 10 10 0 10 0 0 -10z m110 0 l0
-10 -15 0 -15 0 0 10 0 10 15 0 15 0 0 -10z m-800 -25 l0 -15 -15 0 -15 0 0
15 0 15 15 0 15 0 0 -15z m210 0 l0 -15 -10 0 -10 0 0 15 0 15 10 0 10 0 0
-15z m110 0 l0 -15 -15 0 -15 0 0 15 0 15 15 0 15 0 0 -15z m110 0 l0 -15 -15
0 -15 0 0 15 0 15 15 0 15 0 0 -15z m210 0 l0 -15 -15 0 -15 0 0 15 0 15 15 0
15 0 0 -15z m110 0 l0 -15 -15 0 -15 0 0 15 0 15 15 0 15 0 0 -15z m100 0 l0
-15 -10 0 -10 0 0 15 0 15 10 0 10 0 0 -15z m-900 -30 l0 -15 -15 0 -15 0 0
15 0 15 15 0 15 0 0 -15z m320 0 l0 -15 -15 0 -15 0 0 15 0 15 15 0 15 0 0
-15z m100 0 l0 -15 -10 0 -10 0 0 15 0 15 10 0 10 0 0 -15z m220 0 l0 -15 -15
0 -15 0 0 15 0 15 15 0 15 0 0 -15z m100 0 l0 -15 -10 0 -10 0 0 15 0 15 10 0
10 0 0 -15z m110 0 l0 -15 -15 0 -15 0 0 15 0 15 15 0 15 0 0 -15z m-800 -25
l0 -10 -15 0 -15 0 0 10 0 10 15 0 15 0 0 -10z m210 0 l0 -10 -10 0 -10 0 0
10 0 10 10 0 10 0 0 -10z m110 0 l0 -10 -15 0 -15 0 0 10 0 10 15 0 15 0 0
-10z m110 0 l0 -10 -15 0 -15 0 0 10 0 10 15 0 15 0 0 -10z m210 0 l0 -10 -15
0 -15 0 0 10 0 10 15 0 15 0 0 -10z m110 0 l0 -10 -15 0 -15 0 0 10 0 10 15 0
15 0 0 -10z m100 0 l0 -10 -10 0 -10 0 0 10 0 10 10 0 10 0 0 -10z m-900 -25
l0 -15 -15 0 -15 0 0 15 0 15 15 0 15 0 0 -15z m320 0 l0 -15 -15 0 -15 0 0
15 0 15 15 0 15 0 0 -15z m100 0 l0 -15 -10 0 -10 0 0 15 0 15 10 0 10 0 0
-15z m110 0 l0 -15 -15 0 -15 0 0 15 0 15 15 0 15 0 0 -15z m110 0 l0 -15 -15
0 -15 0 0 15 0 15 15 0 15 0 0 -15z m100 0 l0 -15 -10 0 -10 0 0 15 0 15 10 0
10 0 0 -15z m110 0 l0 -15 -15 0 -15 0 0 15 0 15 15 0 15 0 0 -15z m-800 -30
l0 -15 -15 0 -15 0 0 15 0 15 15 0 15 0 0 -15z m210 0 l0 -15 -10 0 -10 0 0
15 0 15 10 0 10 0 0 -15z m110 0 l0 -15 -15 0 -15 0 0 15 0 15 15 0 15 0 0
-15z m110 0 l0 -15 -15 0 -15 0 0 15 0 15 15 0 15 0 0 -15z m100 0 l0 -15 -10
0 -10 0 0 15 0 15 10 0 10 0 0 -15z m110 0 l0 -15 -15 0 -15 0 0 15 0 15 15 0
15 0 0 -15z m110 0 l0 -15 -15 0 -15 0 0 15 0 15 15 0 15 0 0 -15z m100 0 l0
-15 -10 0 -10 0 0 15 0 15 10 0 10 0 0 -15z m-900 -25 l0 -10 -15 0 -15 0 0
10 0 10 15 0 15 0 0 -10z m320 0 l0 -10 -15 0 -15 0 0 10 0 10 15 0 15 0 0
-10z m100 0 l0 -10 -10 0 -10 0 0 10 0 10 10 0 10 0 0 -10z m110 0 l0 -10 -15
0 -15 0 0 10 0 10 15 0 15 0 0 -10z m110 0 l0 -10 -15 0 -15 0 0 10 0 10 15 0
15 0 0 -10z m100 0 l0 -10 -10 0 -10 0 0 10 0 10 10 0 10 0 0 -10z m110 0 l0
-10 -15 0 -15 0 0 10 0 10 15 0 15 0 0 -10z m-800 -25 l0 -15 -15 0 -15 0 0
15 0 15 15 0 15 0 0 -15z m320 0 l0 -15 -15 0 -15 0 0 15 0 15 15 0 15 0 0
-15z m110 0 l0 -15 -15 0 -15 0 0 15 0 15 15 0 15 0 0 -15z m100 0 l0 -15 -10
0 -10 0 0 15 0 15 10 0 10 0 0 -15z m110 0 l0 -15 -15 0 -15 0 0 15 0 15 15 0
15 0 0 -15z m110 0 l0 -15 -15 0 -15 0 0 15 0 15 15 0 15 0 0 -15z m100 0 l0
-15 -10 0 -10 0 0 15 0 15 10 0 10 0 0 -15z m-900 -30 l0 -15 -15 0 -15 0 0
15 0 15 15 0 15 0 0 -15z m320 0 l0 -15 -15 0 -15 0 0 15 0 15 15 0 15 0 0
-15z m100 0 l0 -15 -10 0 -10 0 0 15 0 15 10 0 10 0 0 -15z m110 0 l0 -15 -15
0 -15 0 0 15 0 15 15 0 15 0 0 -15z m110 0 l0 -15 -15 0 -15 0 0 15 0 15 15 0
15 0 0 -15z m100 0 l0 -15 -10 0 -10 0 0 15 0 15 10 0 10 0 0 -15z m110 0 l0
-15 -15 0 -15 0 0 15 0 15 15 0 15 0 0 -15z m-800 -25 l0 -10 -15 0 -15 0 0
10 0 10 15 0 15 0 0 -10z m320 0 l0 -10 -15 0 -15 0 0 10 0 10 15 0 15 0 0
-10z m110 0 l0 -10 -15 0 -15 0 0 10 0 10 15 0 15 0 0 -10z m100 0 l0 -10 -10
0 -10 0 0 10 0 10 10 0 10 0 0 -10z m110 0 l0 -10 -15 0 -15 0 0 10 0 10 15 0
15 0 0 -10z m110 0 l0 -10 -15 0 -15 0 0 10 0 10 15 0 15 0 0 -10z m100 0 l0
-10 -10 0 -10 0 0 10 0 10 10 0 10 0 0 -10z m-900 -25 l0 -15 -15 0 -15 0 0
15 0 15 15 0 15 0 0 -15z m100 0 l0 -15 -10 0 -10 0 0 15 0 15 10 0 10 0 0
-15z m320 0 l0 -15 -10 0 -10 0 0 15 0 15 10 0 10 0 0 -15z m110 0 l0 -15 -15
0 -15 0 0 15 0 15 15 0 15 0 0 -15z m110 0 l0 -15 -15 0 -15 0 0 15 0 15 15 0
15 0 0 -15z m100 0 l0 -15 -10 0 -10 0 0 15 0 15 10 0 10 0 0 -15z m110 0 l0
-15 -15 0 -15 0 0 15 0 15 15 0 15 0 0 -15z m-800 -30 l0 -15 -15 0 -15 0 0
15 0 15 15 0 15 0 0 -15z m320 0 l0 -15 -15 0 -15 0 0 15 0 15 15 0 15 0 0
-15z m110 0 l0 -15 -15 0 -15 0 0 15 0 15 15 0 15 0 0 -15z m100 0 l0 -15 -10
0 -10 0 0 15 0 15 10 0 10 0 0 -15z m110 0 l0 -15 -15 0 -15 0 0 15 0 15 15 0
15 0 0 -15z m110 0 l0 -15 -15 0 -15 0 0 15 0 15 15 0 15 0 0 -15z m100 0 l0
-15 -10 0 -10 0 0 15 0 15 10 0 10 0 0 -15z m-900 -25 l0 -10 -15 0 -15 0 0
10 0 10 15 0 15 0 0 -10z m100 0 l0 -10 -10 0 -10 0 0 10 0 10 10 0 10 0 0
-10z m320 0 l0 -10 -10 0 -10 0 0 10 0 10 10 0 10 0 0 -10z m110 0 l0 -10 -15
0 -15 0 0 10 0 10 15 0 15 0 0 -10z m110 0 l0 -10 -15 0 -15 0 0 10 0 10 15 0
15 0 0 -10z m100 0 l0 -10 -10 0 -10 0 0 10 0 10 10 0 10 0 0 -10z m110 0 l0
-10 -15 0 -15 0 0 10 0 10 15 0 15 0 0 -10z m-800 -25 l0 -15 -15 0 -15 0 0
15 0 15 15 0 15 0 0 -15z m110 0 l0 -15 -15 0 -15 0 0 15 0 15 15 0 15 0 0
-15z m640 0 l0 -15 -15 0 -15 0 0 15 0 15 15 0 15 0 0 -15z m100 0 l0 -15 -10
0 -10 0 0 15 0 15 10 0 10 0 0 -15z m-900 -30 l0 -15 -15 0 -15 0 0 15 0 15
15 0 15 0 0 -15z m100 0 l0 -15 -10 0 -10 0 0 15 0 15 10 0 10 0 0 -15z m640
0 l0 -15 -10 0 -10 0 0 15 0 15 10 0 10 0 0 -15z m110 0 l0 -15 -15 0 -15 0 0
15 0 15 15 0 15 0 0 -15z m-800 -25 l0 -10 -15 0 -15 0 0 10 0 10 15 0 15 0 0
-10z m110 0 l0 -10 -15 0 -15 0 0 10 0 10 15 0 15 0 0 -10z m640 0 l0 -10 -15
0 -15 0 0 10 0 10 15 0 15 0 0 -10z m100 0 l0 -10 -10 0 -10 0 0 10 0 10 10 0
10 0 0 -10z m-900 -25 l0 -15 -15 0 -15 0 0 15 0 15 15 0 15 0 0 -15z m100 0
l0 -15 -10 0 -10 0 0 15 0 15 10 0 10 0 0 -15z m110 0 l0 -15 -15 0 -15 0 0
15 0 15 15 0 15 0 0 -15z m530 0 l0 -15 -10 0 -10 0 0 15 0 15 10 0 10 0 0
-15z m110 0 l0 -15 -15 0 -15 0 0 15 0 15 15 0 15 0 0 -15z m-800 -30 l0 -15
-15 0 -15 0 0 15 0 15 15 0 15 0 0 -15z m110 0 l0 -15 -15 0 -15 0 0 15 0 15
15 0 15 0 0 -15z m100 0 l0 -15 -10 0 -10 0 0 15 0 15 10 0 10 0 0 -15z m430
0 l0 -15 -15 0 -15 0 0 15 0 15 15 0 15 0 0 -15z m110 0 l0 -15 -15 0 -15 0 0
15 0 15 15 0 15 0 0 -15z m100 0 l0 -15 -10 0 -10 0 0 15 0 15 10 0 10 0 0
-15z m-900 -25 l0 -10 -15 0 -15 0 0 10 0 10 15 0 15 0 0 -10z m100 0 l0 -10
-10 0 -10 0 0 10 0 10 10 0 10 0 0 -10z m110 0 l0 -10 -15 0 -15 0 0 10 0 10
15 0 15 0 0 -10z m110 0 l0 -10 -15 0 -15 0 0 10 0 10 15 0 15 0 0 -10z m320
0 l0 -10 -15 0 -15 0 0 10 0 10 15 0 15 0 0 -10z m100 0 l0 -10 -10 0 -10 0 0
10 0 10 10 0 10 0 0 -10z m110 0 l0 -10 -15 0 -15 0 0 10 0 10 15 0 15 0 0
-10z m-800 -25 l0 -15 -15 0 -15 0 0 15 0 15 15 0 15 0 0 -15z m110 0 l0 -15
-15 0 -15 0 0 15 0 15 15 0 15 0 0 -15z m100 0 l0 -15 -10 0 -10 0 0 15 0 15
10 0 10 0 0 -15z m110 0 l0 -15 -15 0 -15 0 0 15 0 15 15 0 15 0 0 -15z m110
0 l0 -15 -15 0 -15 0 0 15 0 15 15 0 15 0 0 -15z m100 0 l0 -15 -10 0 -10 0 0
15 0 15 10 0 10 0 0 -15z m110 0 l0 -15 -15 0 -15 0 0 15 0 15 15 0 15 0 0
-15z m110 0 l0 -15 -15 0 -15 0 0 15 0 15 15 0 15 0 0 -15z m100 0 l0 -15 -10
0 -10 0 0 15 0 15 10 0 10 0 0 -15z m-900 -30 l0 -15 -15 0 -15 0 0 15 0 15
15 0 15 0 0 -15z m100 0 l0 -15 -10 0 -10 0 0 15 0 15 10 0 10 0 0 -15z m110
0 l0 -15 -15 0 -15 0 0 15 0 15 15 0 15 0 0 -15z m110 0 l0 -15 -15 0 -15 0 0
15 0 15 15 0 15 0 0 -15z m100 0 l0 -15 -10 0 -10 0 0 15 0 15 10 0 10 0 0
-15z m110 0 l0 -15 -15 0 -15 0 0 15 0 15 15 0 15 0 0 -15z m110 0 l0 -15 -15
0 -15 0 0 15 0 15 15 0 15 0 0 -15z m100 0 l0 -15 -10 0 -10 0 0 15 0 15 10 0
10 0 0 -15z m110 0 l0 -15 -15 0 -15 0 0 15 0 15 15 0 15 0 0 -15z"/>
</g>
</svg>
