<?xml version="1.0" standalone="no"?>
<!DOCTYPE svg PUBLIC "-//W3C//DTD SVG 20010904//EN"
 "http://www.w3.org/TR/2001/REC-SVG-20010904/DTD/svg10.dtd">
<svg version="1.0" xmlns="http://www.w3.org/2000/svg"
 width="468pt" height="468pt" viewBox="0 0 468 468"
 preserveAspectRatio="xMidYMid meet">
<metadata>
Created by potrace 1.8, written by Peter Selinger 2001-2007
</metadata>
<g transform="translate(0,468) scale(0.365625,-0.365625)"
fill="#000000" stroke="none">
<path d="M800 1130 l0 -10 -20 0 -20 0 0 -10 0 -10 -20 0 -20 0 0 -10 0 -10
-15 0 -15 0 -55 -55 -55 -55 0 -15 0 -15 -10 0 -10 0 0 -15 0 -16 -35 -34 -34
-35 -16 0 -15 0 0 -10 0 -10 -50 0 -50 0 0 -10 0 -10 -30 0 -30 0 0 -10 0 -10
-35 0 -36 0 -44 -45 -45 -44 0 -16 0 -15 -10 0 -10 0 0 10 0 10 -36 0 -35 0
-15 -14 -14 -15 0 -41 0 -41 14 -15 15 -14 34 0 35 0 4 12 5 13 16 -17 17 -17
0 -15 0 -16 16 0 16 0 28 -30 28 -30 16 0 16 0 0 -10 0 -10 20 0 20 0 0 -10 0
-10 60 0 60 0 0 -10 0 -10 40 0 40 0 0 -10 0 -10 70 0 70 0 0 -10 0 -10 16 0
15 0 15 -14 14 -15 0 -75 0 -76 -10 0 -10 0 0 -20 0 -20 -20 0 -20 0 0 -10 0
-10 16 0 15 0 15 14 14 15 0 15 0 16 10 0 10 0 0 75 0 76 -25 24 -24 25 -16 0
-15 0 0 10 0 10 -70 0 -70 0 0 10 0 10 -40 0 -40 0 0 10 0 10 -60 0 -60 0 0
10 0 10 -18 0 -18 0 -14 20 -14 20 -14 0 -13 0 -34 35 -35 34 0 63 0 64 20 14
20 14 0 18 0 18 20 0 20 0 0 10 0 10 30 0 30 0 0 10 0 10 30 0 30 0 0 10 0 10
50 0 50 0 0 10 0 10 20 0 20 0 0 10 0 10 20 0 20 0 0 18 0 18 20 14 20 14 0
18 0 18 10 0 10 0 0 15 0 16 45 44 44 45 16 0 15 0 0 10 0 10 20 0 20 0 0 10
0 10 20 0 20 0 0 10 0 10 80 0 80 0 0 -10 0 -10 25 0 26 0 26 -26 25 -25 -7
-7 -8 -7 -4 13 -5 12 -29 0 -29 0 0 -10 0 -10 -20 0 -20 0 0 -10 0 -10 -20 0
-20 0 0 -30 0 -30 -10 0 -10 0 0 -20 0 -20 -10 0 -10 0 0 -40 0 -40 -10 0 -10
0 0 -30 0 -30 -10 0 -10 0 0 -30 0 -30 -10 0 -10 0 0 -20 0 -20 -10 0 -10 0 0
-100 0 -100 10 0 10 0 0 -30 0 -30 10 0 10 0 0 -20 0 -20 10 0 10 0 0 -19 0
-19 13 -5 12 -4 -22 -20 -23 -20 0 -67 0 -66 10 0 10 0 0 -16 0 -15 15 -16 16
-15 7 7 7 8 -12 4 -13 5 0 19 0 19 -10 0 -10 0 0 70 0 70 20 0 20 0 0 -10 0
-10 20 0 20 0 0 -10 0 -10 50 0 50 0 0 10 0 10 30 0 30 0 0 10 0 10 26 0 25 0
15 14 14 15 0 15 0 16 10 0 10 0 0 20 0 20 10 0 10 0 0 40 0 40 10 0 10 0 0
110 0 110 -10 0 -10 0 0 60 0 60 -10 0 -10 0 0 40 0 40 -10 0 -10 0 0 20 0 20
-10 0 -10 0 0 20 0 20 -10 0 -10 0 0 15 0 15 -55 55 -55 55 -25 0 -25 0 0 10
0 10 -80 0 -80 0 0 -10z m-720 -476 l0 -5 -15 -16 -16 -15 -5 5 -6 6 13 15 14
15 8 1 7 0 0 -6z"/>
<path d="M620 854 l0 -25 14 -15 15 -14 35 0 36 0 0 26 0 25 -14 15 -15 14
-35 0 -36 0 0 -26z"/>
</g>
</svg>
