<?xml version="1.0" standalone="no"?>
<!DOCTYPE svg PUBLIC "-//W3C//DTD SVG 20010904//EN"
 "http://www.w3.org/TR/2001/REC-SVG-20010904/DTD/svg10.dtd">
<svg version="1.0" xmlns="http://www.w3.org/2000/svg"
 width="468pt" height="468pt" viewBox="0 0 468 468"
 preserveAspectRatio="xMidYMid meet">
<metadata>
Created by potrace 1.8, written by Peter Selinger 2001-2007
</metadata>
<g transform="translate(0,468) scale(0.365625,-0.365625)"
fill="#000000" stroke="none">
<path d="M30 1265 l0 -15 -15 0 -15 0 0 -610 0 -610 15 0 15 0 0 -15 0 -15
610 0 610 0 0 15 0 15 15 0 15 0 0 610 0 610 -15 0 -15 0 0 15 0 15 -610 0
-610 0 0 -15z m660 -290 l0 -15 15 0 15 0 0 -15 0 -15 11 0 10 0 15 -14 14
-15 0 -25 0 -26 -40 0 -40 0 0 15 0 15 -10 0 -10 0 0 15 0 15 -15 0 -15 0 0
10 0 10 -80 0 -80 0 0 30 0 30 105 0 105 0 0 -15z m270 -110 l0 -15 15 0 15 0
0 -40 0 -40 -15 0 -15 0 0 -10 0 -10 -40 0 -40 0 0 10 0 10 -15 0 -15 0 0 40
0 40 15 0 15 0 0 15 0 15 40 0 40 0 0 -15z m-160 -50 l0 -15 15 0 15 0 0 -40
0 -40 -15 0 -15 0 0 -15 0 -15 -120 0 -120 0 0 15 0 15 -15 0 -15 0 0 40 0 40
15 0 15 0 0 15 0 15 120 0 120 0 0 -15z m-320 -55 l0 -10 15 0 15 0 0 -110 0
-110 -15 0 -15 0 0 -10 0 -10 -15 0 -15 0 0 -15 0 -15 -10 0 -10 0 0 -15 0
-15 -15 0 -15 0 0 -10 0 -10 -15 0 -15 0 0 -15 0 -15 -10 0 -10 0 0 -15 0 -15
-15 0 -15 0 0 -10 0 -10 -15 0 -15 0 0 -15 0 -15 -10 0 -10 0 0 -15 0 -15 -30
0 -30 0 0 40 0 40 15 0 15 0 0 15 0 15 15 0 15 0 0 11 0 10 14 15 15 14 10 0
11 0 0 15 0 15 15 0 15 0 0 11 0 10 14 15 15 14 10 0 11 0 0 110 0 110 15 0
15 0 0 10 0 10 25 0 25 0 0 -10z m400 -80 l0 -10 15 0 15 0 0 -15 0 -15 10 0
10 0 0 -15 0 -15 15 0 15 0 0 -10 0 -10 11 0 10 0 15 14 14 15 0 10 0 11 15 0
15 0 0 15 0 15 15 0 15 0 0 10 0 10 25 0 25 0 0 -25 0 -25 -15 0 -15 0 0 -11
0 -10 -14 -15 -15 -14 -10 0 -11 0 0 -15 0 -15 -15 0 -15 0 0 -11 0 -10 -14
-15 -15 -14 -21 0 -21 0 -15 14 -14 15 0 10 0 11 -15 0 -15 0 0 15 0 15 -11 0
-10 0 -15 14 -14 15 0 35 0 36 25 0 25 0 0 -10z m-240 -25 l0 -15 15 0 15 0 0
-11 0 -10 14 -15 15 -14 10 0 11 0 0 -15 0 -15 15 0 15 0 0 -15 0 -15 10 0 10
0 0 -36 0 -35 -14 -15 -15 -14 -115 0 -116 0 0 10 0 10 -15 0 -15 0 0 15 0 15
15 0 15 0 0 15 0 15 65 0 65 0 0 10 0 10 -15 0 -15 0 0 15 0 15 -10 0 -10 0 0
15 0 15 -15 0 -15 0 0 10 0 10 -15 0 -15 0 0 30 0 30 55 0 55 0 0 -15z"/>
</g>
</svg>
