<?xml version="1.0" standalone="no"?>
<!DOCTYPE svg PUBLIC "-//W3C//DTD SVG 20010904//EN"
 "http://www.w3.org/TR/2001/REC-SVG-20010904/DTD/svg10.dtd">
<svg version="1.0" xmlns="http://www.w3.org/2000/svg"
 width="468pt" height="468pt" viewBox="0 0 468 468"
 preserveAspectRatio="xMidYMid meet">
<metadata>
Created by potrace 1.8, written by Peter Selinger 2001-2007
</metadata>
<g transform="translate(0,468) scale(0.365625,-0.365625)"
fill="#000000" stroke="none">
<path d="M1090 1250 l0 -30 -65 0 -65 0 0 -35 0 -35 -130 0 -130 0 0 35 0 35
-255 0 -255 0 0 -35 0 -35 -65 0 -65 0 0 -30 0 -30 -30 0 -30 0 0 -65 0 -65
30 0 30 0 0 -30 0 -30 65 0 65 0 0 -35 0 -35 225 0 225 0 0 35 0 35 95 0 95 0
0 30 0 30 95 0 95 0 0 -30 0 -30 65 0 65 0 0 -35 0 -35 65 0 65 0 0 35 0 35
-30 0 -30 0 0 30 0 30 -35 0 -35 0 0 30 0 30 -30 0 -30 0 0 35 0 35 30 0 30 0
0 30 0 30 35 0 35 0 0 35 0 35 30 0 30 0 0 30 0 30 -95 0 -95 0 0 -30z m-770
-195 l0 -35 -30 0 -30 0 0 35 0 35 30 0 30 0 0 -35z"/>
<path d="M580 545 l0 -35 -65 0 -65 0 0 -30 0 -30 -35 0 -35 0 0 -35 0 -35
-30 0 -30 0 0 -30 0 -30 -95 0 -95 0 0 30 0 30 -65 0 -65 0 0 -30 0 -30 30 0
30 0 0 -30 0 -30 35 0 35 0 0 -65 0 -65 -35 0 -35 0 0 -35 0 -35 -30 0 -30 0
0 -30 0 -30 640 0 640 0 0 30 0 30 -575 0 -575 0 0 35 0 35 65 0 65 0 0 30 0
30 190 0 190 0 0 35 0 35 65 0 65 0 0 30 0 30 30 0 30 0 0 30 0 30 35 0 35 0
0 35 0 35 30 0 30 0 0 65 0 65 -190 0 -190 0 0 -35z m190 -65 l0 -30 -35 0
-35 0 0 30 0 30 35 0 35 0 0 -30z"/>
</g>
</svg>
