<?xml version="1.0" standalone="no"?>
<!DOCTYPE svg PUBLIC "-//W3C//DTD SVG 20010904//EN"
 "http://www.w3.org/TR/2001/REC-SVG-20010904/DTD/svg10.dtd">
<svg version="1.0" xmlns="http://www.w3.org/2000/svg"
 width="468pt" height="468pt" viewBox="0 0 468 468"
 preserveAspectRatio="xMidYMid meet">
<metadata>
Created by potrace 1.8, written by Peter Selinger 2001-2007
</metadata>
<g transform="translate(0,468) scale(0.365625,-0.365625)"
fill="#000000" stroke="none">
<path d="M20 790 l0 -470 10 0 10 0 0 460 0 460 240 0 240 0 0 -20 0 -20 10 0
10 0 0 -25 0 -25 -95 -95 -95 -95 -10 0 -11 0 -79 80 -79 80 -11 0 -12 0 -39
41 -40 41 -5 -5 -6 -6 46 -45 45 -46 11 0 11 0 24 -25 25 -24 0 -36 0 -35 10
0 10 0 0 20 0 20 5 0 6 0 44 -45 45 -44 0 -281 0 -281 -14 -15 -15 -14 -25 0
-26 0 0 -10 0 -10 30 0 30 0 0 10 0 10 50 0 50 0 0 10 0 10 50 0 50 0 0 10 0
10 50 0 50 0 0 10 0 10 50 0 50 0 0 10 0 10 50 0 50 0 0 56 0 55 14 15 15 14
11 0 11 0 15 -14 14 -15 0 -55 0 -56 20 0 20 0 0 -10 0 -10 20 0 20 0 0 -10 0
-10 20 0 20 0 0 185 0 186 -70 69 -70 69 0 86 0 85 5 0 5 0 75 -75 75 -75 0
-55 0 -55 -10 0 -10 0 0 -20 0 -20 10 0 10 0 0 -189 0 -189 -12 -4 -13 -5 17
-16 17 -17 25 0 26 0 0 -10 0 -10 20 0 20 0 0 10 0 10 -20 0 -20 0 0 308 0
308 20 14 20 14 0 18 0 18 10 0 10 0 0 20 0 20 10 0 10 0 0 20 0 20 10 0 10 0
0 20 0 20 10 0 10 0 0 20 0 20 10 0 10 0 0 -430 0 -430 10 0 10 0 0 470 0 470
-620 0 -620 0 0 -470z m840 410 l0 -40 -150 0 -150 0 0 20 0 20 -10 0 -10 0 0
20 0 20 160 0 160 0 0 -40z m380 30 l0 -10 -10 0 -10 0 0 -20 0 -20 -10 0 -10
0 0 -20 0 -20 -10 0 -10 0 0 -20 0 -20 -10 0 -10 0 0 -20 0 -20 -10 0 -10 0 0
-20 0 -20 -10 0 -10 0 0 -16 0 -15 -15 -15 -14 -15 -106 105 -105 106 0 35 0
35 180 0 180 0 0 -10z m-380 -230 l0 -100 -90 0 -90 0 0 20 0 20 -10 0 -10 0
0 20 0 20 -10 0 -10 0 0 20 0 20 -10 0 -10 0 0 20 0 20 -10 0 -10 0 0 20 0 20
130 0 130 0 0 -100z m-274 66 l14 -15 0 -15 0 -16 10 0 10 0 0 -20 0 -20 10 0
10 0 0 -20 0 -20 10 0 10 0 0 -19 0 -19 12 -4 13 -5 -73 -71 -72 -71 0 -176 0
-175 -20 0 -20 0 0 -10 0 -10 -40 0 -40 0 0 -10 0 -10 -10 0 -10 0 0 260 0
260 5 0 5 0 56 -55 55 -55 -17 -18 -17 -17 -5 13 -4 12 -9 0 -9 0 0 -29 0 -29
13 -6 12 -6 -12 -6 -13 -6 0 -18 0 -18 -12 -6 -13 -6 13 -6 12 -6 0 -29 0 -29
-10 0 -10 0 0 -20 0 -20 10 0 10 0 0 18 0 18 20 14 20 14 0 75 0 74 21 18 21
18 -71 70 -72 71 83 84 83 84 3 1 3 1 15 -14z m274 -296 l0 -110 -30 0 -30 0
0 20 0 20 -10 0 -10 0 0 20 0 20 -10 0 -10 0 0 20 0 20 -10 0 -10 0 0 20 0 20
-10 0 -10 0 0 20 0 20 -10 0 -10 0 0 -20 0 -20 10 0 10 0 0 -20 0 -20 10 0 10
0 0 -20 0 -20 10 0 10 0 0 -20 0 -20 10 0 10 0 0 -25 0 -26 -25 -25 -25 -25
-75 76 -75 75 62 64 63 64 78 1 77 1 0 -110z m87 13 l57 -57 -12 -4 -12 -4 0
-19 0 -19 -10 0 -10 0 0 -20 0 -20 10 0 10 0 0 -110 0 -110 -10 0 -10 0 0 110
0 110 -10 0 -10 0 0 -20 0 -20 -5 0 -6 0 -24 25 -25 24 0 96 0 95 5 0 5 0 57
-57z m-292 -128 l65 -65 0 -85 0 -85 -60 0 -60 0 0 -10 0 -10 -10 0 -10 0 0
160 0 160 5 0 5 0 65 -65z m252 -51 l36 -36 -14 -10 -14 -10 13 -5 12 -5 0
-49 0 -49 -10 0 -10 0 0 48 0 48 -20 14 -20 14 0 28 0 28 -10 0 -10 0 0 -16 0
-16 -30 -28 -30 -28 0 -46 0 -46 -30 0 -30 0 0 65 0 66 33 34 32 34 33 0 33 1
36 -36z"/>
<path d="M640 560 l0 -40 10 0 10 0 0 30 0 30 10 0 10 0 0 10 0 10 -20 0 -20
0 0 -40z"/>
<path d="M820 600 l0 -20 10 0 10 0 0 20 0 20 -10 0 -10 0 0 -20z"/>
<path d="M760 571 l0 -9 13 -6 12 -6 -12 -6 -13 -6 0 -19 0 -19 10 0 10 0 0
19 0 19 12 4 13 5 -17 16 -17 17 -5 0 -6 0 0 -9z"/>
<path d="M140 1020 l0 -20 10 0 10 0 0 -20 0 -20 10 0 10 0 0 20 0 20 -10 0
-10 0 0 20 0 20 -10 0 -10 0 0 -20z"/>
<path d="M80 995 l0 -6 26 -26 25 -25 6 5 5 6 -25 25 -26 26 -6 0 -5 0 0 -5z"/>
<path d="M213 945 l-13 -14 0 -15 0 -14 -12 -5 -13 -5 15 -12 15 -12 -12 -5
-13 -5 0 -29 0 -29 10 0 10 0 0 -30 0 -30 -20 0 -20 0 0 -10 0 -10 20 0 20 0
0 -50 0 -50 -10 0 -10 0 0 -30 0 -30 10 0 10 0 0 20 0 20 10 0 10 0 0 20 0 20
10 0 10 0 0 80 0 80 10 0 10 0 0 30 0 30 -10 0 -10 0 0 -10 0 -10 -20 0 -20 0
0 10 0 10 16 0 15 0 15 14 14 15 0 15 0 16 -10 0 -10 0 0 20 0 20 -7 0 -8 -1
-12 -14z m7 -55 l0 -10 -10 0 -10 0 0 10 0 10 10 0 10 0 0 -10z"/>
<path d="M260 950 l0 -10 10 0 10 0 0 10 0 10 -10 0 -10 0 0 -10z"/>
<path d="M60 890 l0 -10 20 0 20 0 0 -10 0 -10 20 0 20 0 0 10 0 10 -20 0 -20
0 0 10 0 10 -20 0 -20 0 0 -10z"/>
<path d="M40 170 l0 -130 600 0 600 0 0 130 0 130 -600 0 -600 0 0 -130z m240
70 l0 -20 10 0 10 0 0 -20 0 -20 10 0 10 0 0 20 0 20 10 0 10 0 0 20 0 20 20
0 20 0 0 -90 0 -90 -20 0 -20 0 0 40 0 40 -10 0 -10 0 0 -20 0 -20 -10 0 -10
0 0 20 0 20 -10 0 -10 0 0 -40 0 -40 -20 0 -20 0 0 90 0 90 20 0 20 0 0 -20z
m540 10 l0 -10 -20 0 -20 0 0 10 0 10 20 0 20 0 0 -10z m-294 -44 l14 -15 0
-41 0 -41 -14 -15 -15 -14 -31 0 -31 0 -15 14 -14 15 0 41 0 41 13 14 12 14
33 1 33 0 15 -14z m98 2 l6 -13 6 13 6 12 15 0 14 0 15 -14 14 -15 0 -5 0 -6
-19 0 -19 0 -4 12 -5 13 -16 -17 -17 -17 0 -45 0 -46 -20 0 -20 0 0 70 0 70
19 0 19 0 6 -12z m196 -58 l0 -70 -20 0 -20 0 0 60 0 60 -20 0 -20 0 0 10 0
10 40 0 40 0 0 -70z m186 56 l14 -15 0 -55 0 -56 -46 0 -45 0 -15 14 -14 15 0
11 0 11 14 15 15 14 25 0 26 0 0 20 0 20 -20 0 -20 0 0 -10 0 -10 -20 0 -20 0
0 5 0 6 13 14 12 14 33 1 33 0 15 -14z"/>
<path d="M460 150 l0 -50 20 0 20 0 0 50 0 50 -20 0 -20 0 0 -50z"/>
<path d="M940 120 l0 -20 20 0 20 0 0 20 0 20 -20 0 -20 0 0 -20z"/>
</g>
</svg>
