<?xml version="1.0" standalone="no"?>
<!DOCTYPE svg PUBLIC "-//W3C//DTD SVG 20010904//EN"
 "http://www.w3.org/TR/2001/REC-SVG-20010904/DTD/svg10.dtd">
<svg version="1.0" xmlns="http://www.w3.org/2000/svg"
 width="468pt" height="468pt" viewBox="0 0 468 468"
 preserveAspectRatio="xMidYMid meet">
<metadata>
Created by potrace 1.8, written by Peter Selinger 2001-2007
</metadata>
<g transform="translate(0,468) scale(0.365625,-0.365625)"
fill="#000000" stroke="none">
<path d="M560 1040 l0 -40 -80 0 -80 0 0 -60 0 -60 -100 0 -100 0 0 -120 0
-120 -20 0 -20 0 0 -120 0 -120 -60 0 -60 0 0 -100 0 -100 100 0 100 0 0 -80
0 -80 60 0 60 0 0 80 0 80 300 0 300 0 0 -80 0 -80 60 0 60 0 0 80 0 80 100 0
100 0 0 80 0 80 -40 0 -40 0 0 140 0 140 -40 0 -40 0 0 80 0 80 -100 0 -100 0
0 100 0 100 -80 0 -80 0 0 40 0 40 -100 0 -100 0 0 -40z m160 -340 l0 -340
-60 0 -60 0 0 340 0 340 60 0 60 0 0 -340z m-160 -40 l0 -300 -60 0 -60 0 0
300 0 300 60 0 60 0 0 -300z m320 0 l0 -300 -40 0 -40 0 0 300 0 300 40 0 40
0 0 -300z m-520 -60 l0 -240 -60 0 -60 0 0 240 0 240 60 0 60 0 0 -240z m720
-40 l0 -200 -60 0 -60 0 0 200 0 200 60 0 60 0 0 -200z m160 -300 l0 -20 -580
0 -580 0 0 20 0 20 580 0 580 0 0 -20z m-920 -120 l0 -60 -20 0 -20 0 0 60 0
60 20 0 20 0 0 -60z m720 0 l0 -60 -20 0 -20 0 0 60 0 60 20 0 20 0 0 -60z"/>
</g>
</svg>
