<?xml version="1.0" standalone="no"?>
<!DOCTYPE svg PUBLIC "-//W3C//DTD SVG 20010904//EN"
 "http://www.w3.org/TR/2001/REC-SVG-20010904/DTD/svg10.dtd">
<svg version="1.0" xmlns="http://www.w3.org/2000/svg"
 width="468pt" height="468pt" viewBox="0 0 468 468"
 preserveAspectRatio="xMidYMid meet">
<metadata>
Created by potrace 1.8, written by Peter Selinger 2001-2007
</metadata>
<g transform="translate(0,468) scale(0.365625,-0.365625)"
fill="#000000" stroke="none">
<path d="M640 1255 l0 -25 -25 0 -25 0 0 -55 0 -55 -30 0 -30 0 0 -55 0 -55
-25 0 -25 0 0 -25 0 -25 -160 0 -160 0 0 -55 0 -55 -25 0 -25 0 0 -50 0 -50
-30 0 -30 0 0 -80 0 -80 -25 0 -25 0 0 -55 0 -55 25 0 25 0 0 -55 0 -55 -25 0
-25 0 0 -25 0 -25 105 0 105 0 0 25 0 25 30 0 30 0 0 -25 0 -25 50 0 50 0 0
25 0 25 30 0 30 0 0 -185 0 -185 130 0 130 0 0 25 0 25 30 0 30 0 0 55 0 55
25 0 25 0 0 25 0 25 25 0 25 0 0 55 0 55 110 0 110 0 0 25 0 25 25 0 25 0 0
55 0 55 25 0 25 0 0 55 0 55 30 0 30 0 0 50 0 50 25 0 25 0 0 135 0 135 -105
0 -105 0 0 -25 0 -25 -30 0 -30 0 0 25 0 25 -50 0 -50 0 0 160 0 160 -135 0
-135 0 0 -25z m210 -185 l0 -160 80 0 80 0 0 -30 0 -30 30 0 30 0 0 30 0 30
80 0 80 0 0 -80 0 -80 -55 0 -55 0 0 25 0 25 -55 0 -55 0 0 -25 0 -25 30 0 30
0 0 -30 0 -30 -30 0 -30 0 0 -25 0 -25 -25 0 -25 0 0 25 0 25 25 0 25 0 0 30
0 30 -80 0 -80 0 0 -160 0 -160 -80 0 -80 0 0 50 0 50 -25 0 -25 0 0 30 0 30
25 0 25 0 0 80 0 80 -50 0 -50 0 0 25 0 25 -55 0 -55 0 0 -25 0 -25 25 0 25 0
0 -30 0 -30 -25 0 -25 0 0 30 0 30 -105 0 -105 0 0 50 0 50 -30 0 -30 0 0 -50
0 -50 -25 0 -25 0 0 -80 0 -80 -25 0 -25 0 0 -55 0 -55 -30 0 -30 0 0 55 0 55
30 0 30 0 0 80 0 80 25 0 25 0 0 50 0 50 25 0 25 0 0 30 0 30 240 0 240 0 0
80 0 80 -25 0 -25 0 0 25 0 25 25 0 25 0 0 55 0 55 80 0 80 0 0 -160z m-370
-670 l0 -30 -25 0 -25 0 0 30 0 30 25 0 25 0 0 -30z m370 -55 l0 -25 -25 0
-25 0 0 -55 0 -55 -25 0 -25 0 0 -25 0 -25 -30 0 -30 0 0 -55 0 -55 -105 0
-105 0 0 30 0 30 25 0 25 0 0 25 0 25 30 0 30 0 0 25 0 25 25 0 25 0 0 55 0
55 25 0 25 0 0 25 0 25 80 0 80 0 0 -25z"/>
<path d="M690 1095 l0 -25 30 0 30 0 0 25 0 25 -30 0 -30 0 0 -25z"/>
<path d="M690 560 l0 -30 30 0 30 0 0 30 0 30 -30 0 -30 0 0 -30z"/>
</g>
</svg>
