<?xml version="1.0" standalone="no"?>
<!DOCTYPE svg PUBLIC "-//W3C//DTD SVG 20010904//EN"
 "http://www.w3.org/TR/2001/REC-SVG-20010904/DTD/svg10.dtd">
<svg version="1.0" xmlns="http://www.w3.org/2000/svg"
 width="468pt" height="468pt" viewBox="0 0 468 468"
 preserveAspectRatio="xMidYMid meet">
<metadata>
Created by potrace 1.8, written by Peter Selinger 2001-2007
</metadata>
<g transform="translate(0,468) scale(0.365625,-0.365625)"
fill="#000000" stroke="none">
<path d="M160 640 l0 -640 500 0 500 0 0 500 0 500 -20 0 -20 0 0 20 0 20 -20
0 -20 0 0 20 0 20 -20 0 -20 0 0 20 0 20 -20 0 -20 0 0 20 0 20 -20 0 -20 0 0
20 0 20 -20 0 -20 0 0 20 0 20 -20 0 -20 0 0 20 0 20 -360 0 -360 0 0 -640z
m680 460 l0 -140 120 0 120 0 0 -440 0 -440 -160 0 -160 0 0 100 0 100 140 0
140 0 0 260 0 260 -20 0 -20 0 0 40 0 40 -40 0 -40 0 0 20 0 20 -300 0 -300 0
0 -20 0 -20 -20 0 -20 0 0 -20 0 -20 -20 0 -20 0 0 -280 0 -280 160 0 160 0 0
-100 0 -100 -180 0 -180 0 0 580 0 580 320 0 320 0 0 -140z m80 80 l0 -20 20
0 20 0 0 -20 0 -20 20 0 20 0 0 -20 0 -20 20 0 20 0 0 -20 0 -20 20 0 20 0 0
-20 0 -20 -100 0 -100 0 0 100 0 100 20 0 20 0 0 -20z m-480 -360 l0 -20 20 0
20 0 0 -220 0 -220 -100 0 -100 0 0 220 0 220 20 0 20 0 0 20 0 20 60 0 60 0
0 -20z m480 0 l0 -20 20 0 20 0 0 -220 0 -220 -200 0 -200 0 0 220 0 220 -20
0 -20 0 0 20 0 20 200 0 200 0 0 -20z m-240 -600 l0 -20 20 0 20 0 0 -40 0
-40 -60 0 -60 0 0 40 0 40 20 0 20 0 0 20 0 20 20 0 20 0 0 -20z"/>
<path d="M640 680 l0 -40 60 0 60 0 0 -80 0 -80 60 0 60 0 0 120 0 120 -120 0
-120 0 0 -40z"/>
</g>
</svg>
