<?xml version="1.0" standalone="no"?>
<!DOCTYPE svg PUBLIC "-//W3C//DTD SVG 20010904//EN"
 "http://www.w3.org/TR/2001/REC-SVG-20010904/DTD/svg10.dtd">
<svg version="1.0" xmlns="http://www.w3.org/2000/svg"
 width="468pt" height="468pt" viewBox="0 0 468 468"
 preserveAspectRatio="xMidYMid meet">
<metadata>
Created by potrace 1.8, written by Peter Selinger 2001-2007
</metadata>
<g transform="translate(0,468) scale(0.365625,-0.365625)"
fill="#000000" stroke="none">
<path d="M0 1265 l0 -15 15 0 15 0 0 15 0 15 -15 0 -15 0 0 -15z"/>
<path d="M150 1265 l0 -15 11 0 10 0 15 -14 14 -15 0 -10 0 -11 15 0 15 0 0
-10 0 -10 15 0 15 0 0 -11 0 -10 14 -15 15 -14 10 0 11 0 0 -11 0 -10 14 -15
15 -14 10 0 11 0 0 -15 0 -15 10 0 10 0 0 -15 0 -15 15 0 15 0 0 -10 0 -10 15
0 15 0 0 -80 0 -80 -80 0 -80 0 0 15 0 15 -10 0 -10 0 0 15 0 15 -15 0 -15 0
0 10 0 10 -15 0 -15 0 0 11 0 10 -14 15 -15 14 -10 0 -11 0 0 11 0 10 -14 15
-15 14 -10 0 -11 0 0 15 0 15 -10 0 -10 0 0 15 0 15 -11 0 -10 0 -15 14 -14
15 0 10 0 11 -15 0 -15 0 0 -15 0 -15 11 0 10 0 15 -14 14 -15 0 -10 0 -11 15
0 15 0 0 -11 0 -10 14 -15 15 -14 10 0 11 0 0 -11 0 -10 14 -15 15 -14 10 0
11 0 0 -11 0 -10 14 -15 15 -14 10 0 11 0 0 -15 0 -15 15 0 15 0 0 -15 0 -15
-30 0 -30 0 0 15 0 15 -10 0 -10 0 0 15 0 15 -11 0 -10 0 -15 14 -14 15 0 10
0 11 -11 0 -10 0 -15 14 -14 15 0 10 0 11 -11 0 -10 0 -15 14 -14 15 0 10 0
11 -15 0 -15 0 0 -25 0 -25 15 0 15 0 0 -15 0 -15 -15 0 -15 0 0 -10 0 -10 15
0 15 0 0 10 0 10 21 0 20 0 15 -14 14 -15 0 -10 0 -11 11 0 10 0 15 -14 14
-15 0 -10 0 -11 15 0 15 0 0 -15 0 -15 -90 0 -90 0 0 -10 0 -10 230 0 230 0 0
65 0 65 15 0 15 0 0 -80 0 -80 -245 0 -245 0 0 -10 0 -10 15 0 15 0 0 -15 0
-15 -15 0 -15 0 0 -10 0 -10 15 0 15 0 0 -15 0 -15 10 0 10 0 0 15 0 15 15 0
15 0 0 -15 0 -15 10 0 10 0 0 15 0 15 15 0 15 0 0 -15 0 -15 10 0 10 0 0 15 0
15 15 0 15 0 0 -15 0 -15 10 0 10 0 0 15 0 15 15 0 15 0 0 -15 0 -15 15 0 15
0 0 15 0 15 -15 0 -15 0 0 10 0 10 -15 0 -15 0 0 15 0 15 15 0 15 0 0 -15 0
-15 15 0 15 0 0 15 0 15 10 0 10 0 0 -15 0 -15 11 0 10 0 15 -14 14 -15 0 -10
0 -11 11 0 10 0 15 -14 14 -15 0 -21 0 -21 -14 -15 -15 -14 -10 0 -11 0 0 -11
0 -10 -14 -15 -15 -14 -10 0 -11 0 0 -15 0 -15 -140 0 -140 0 0 -10 0 -10 115
0 115 0 0 -15 0 -15 -115 0 -115 0 0 -10 0 -10 15 0 15 0 0 -15 0 -15 -15 0
-15 0 0 -15 0 -15 14 0 14 0 6 -12 6 -13 6 13 6 12 10 0 9 0 15 -14 14 -15 0
-6 0 -6 -14 -15 -15 -14 -10 0 -11 0 0 -11 0 -10 -14 -15 -15 -14 -10 0 -11 0
0 -15 0 -15 15 0 15 0 0 11 0 10 14 15 15 14 10 0 11 0 0 11 0 10 14 15 15 14
10 0 11 0 0 11 0 10 14 15 15 14 10 0 11 0 0 15 0 15 10 0 10 0 0 15 0 15 15
0 15 0 0 10 0 10 15 0 15 0 0 11 0 10 14 15 15 14 10 0 11 0 0 11 0 10 14 15
15 14 10 0 11 0 0 11 0 10 14 15 15 14 10 0 11 0 0 30 0 30 -11 0 -10 0 -15
14 -14 15 0 10 0 11 -11 0 -10 0 -15 14 -14 15 0 10 0 11 25 0 25 0 0 -11 0
-10 14 -15 15 -14 10 0 11 0 0 -15 0 -15 11 0 10 0 15 -14 14 -15 0 -21 0 -21
-14 -15 -15 -14 -10 0 -11 0 0 -15 0 -15 -11 0 -10 0 -15 -14 -14 -15 0 -10 0
-11 -11 0 -10 0 -15 -14 -14 -15 0 -10 0 -11 -11 0 -10 0 -15 -14 -14 -15 0
-10 0 -11 -15 0 -15 0 0 -15 0 -15 -11 0 -10 0 -15 -14 -14 -15 0 -10 0 -11
-11 0 -10 0 -15 -14 -14 -15 0 -10 0 -11 -11 0 -10 0 -15 -14 -14 -15 0 -10 0
-11 -15 0 -15 0 0 -11 0 -10 -14 -15 -15 -14 -10 0 -11 0 0 -15 0 -15 11 0 10
0 15 -14 14 -15 0 -10 0 -11 15 0 15 0 0 11 0 10 14 15 15 14 10 0 11 0 0 11
0 10 14 15 15 14 10 0 11 0 0 15 0 15 10 0 10 0 0 15 0 15 15 0 15 0 0 10 0
10 15 0 15 0 0 11 0 10 14 15 15 14 10 0 11 0 0 11 0 10 14 15 15 14 9 0 10 0
6 -12 6 -13 6 13 6 12 14 0 14 0 0 -10 0 -10 15 0 15 0 0 -40 0 -40 -15 0 -15
0 0 -10 0 -10 -15 0 -15 0 0 -15 0 -15 -10 0 -10 0 0 -15 0 -15 -11 0 -10 0
-15 -14 -14 -15 0 -10 0 -11 -11 0 -10 0 -15 -14 -14 -15 0 -10 0 -11 -15 0
-15 0 0 -10 0 -10 -15 0 -15 0 0 -11 0 -10 -14 -15 -15 -14 -10 0 -11 0 0 -15
0 -15 15 0 15 0 0 11 0 10 14 15 15 14 10 0 11 0 0 15 0 15 11 0 10 0 15 14
14 15 0 10 0 11 11 0 10 0 15 14 14 15 0 10 0 11 11 0 10 0 15 14 14 15 0 10
0 11 15 0 15 0 0 15 0 15 15 0 15 0 0 -30 0 -30 -15 0 -15 0 0 -10 0 -10 -15
0 -15 0 0 -11 0 -10 -14 -15 -15 -14 -10 0 -11 0 0 -11 0 -10 -14 -15 -15 -14
-10 0 -11 0 0 -11 0 -10 -14 -15 -15 -14 -10 0 -11 0 0 -15 0 -15 15 0 15 0 0
11 0 10 14 15 15 14 10 0 11 0 0 11 0 10 14 15 15 14 10 0 11 0 0 11 0 10 14
15 15 14 10 0 11 0 0 15 0 15 15 0 15 0 0 -15 0 -15 -15 0 -15 0 0 -10 0 -10
15 0 15 0 0 -15 0 -15 -15 0 -15 0 0 -10 0 -10 -15 0 -15 0 0 -11 0 -10 -14
-15 -15 -14 -10 0 -11 0 0 -15 0 -15 15 0 15 0 0 11 0 10 14 15 15 14 10 0 11
0 0 15 0 15 15 0 15 0 0 -40 0 -40 10 0 10 0 0 230 0 230 -65 0 -65 0 0 15 0
15 80 0 80 0 0 -245 0 -245 10 0 10 0 0 90 0 90 11 0 10 0 15 14 14 15 0 10 0
11 15 0 15 0 0 11 0 10 14 15 15 14 10 0 11 0 0 15 0 15 15 0 15 0 0 10 0 10
21 0 20 0 15 -14 14 -15 0 -10 0 -11 15 0 15 0 0 -140 0 -140 10 0 10 0 0 115
0 115 15 0 15 0 0 -115 0 -115 10 0 10 0 0 90 0 90 15 0 15 0 0 -15 0 -15 11
0 10 0 15 -14 14 -15 0 -10 0 -11 11 0 10 0 15 -14 14 -15 0 -10 0 -11 11 0
10 0 15 -14 14 -15 0 -10 0 -11 15 0 15 0 0 15 0 15 -11 0 -10 0 -15 14 -14
15 0 10 0 11 -11 0 -10 0 -15 14 -14 15 0 10 0 11 -11 0 -10 0 -15 14 -14 15
0 10 0 11 -15 0 -15 0 0 10 0 10 -15 0 -15 0 0 15 0 15 -10 0 -10 0 0 15 0 15
-11 0 -10 0 -15 14 -14 15 0 10 0 11 -11 0 -10 0 -15 14 -14 15 0 10 0 11 -11
0 -10 0 -15 14 -14 15 0 10 0 11 -30 0 -30 0 0 -11 0 -10 -14 -15 -15 -14 -10
0 -11 0 0 -11 0 -10 -14 -15 -15 -14 -10 0 -11 0 0 25 0 25 11 0 10 0 15 14
14 15 0 10 0 11 15 0 15 0 0 11 0 10 14 15 15 14 21 0 21 0 15 -14 14 -15 0
-10 0 -11 15 0 15 0 0 -11 0 -10 14 -15 15 -14 10 0 11 0 0 -11 0 -10 14 -15
15 -14 10 0 11 0 0 -11 0 -10 14 -15 15 -14 10 0 11 0 0 -15 0 -15 15 0 15 0
0 -11 0 -10 14 -15 15 -14 10 0 11 0 0 -11 0 -10 14 -15 15 -14 10 0 11 0 0
-11 0 -10 14 -15 15 -14 10 0 11 0 0 -15 0 -15 11 0 10 0 15 -14 14 -15 0 -10
0 -11 15 0 15 0 0 15 0 15 -11 0 -10 0 -15 14 -14 15 0 10 0 11 -15 0 -15 0 0
10 0 10 -15 0 -15 0 0 11 0 10 -14 15 -15 14 -10 0 -11 0 0 11 0 10 -14 15
-15 14 -10 0 -11 0 0 15 0 15 -10 0 -10 0 0 15 0 15 -15 0 -15 0 0 10 0 10
-15 0 -15 0 0 40 0 40 15 0 15 0 0 10 0 10 14 0 14 0 6 -12 6 -13 6 13 6 12
13 0 13 0 6 -12 6 -13 6 13 6 12 13 0 13 0 6 -12 6 -13 6 13 6 12 14 0 14 0 0
-10 0 -10 15 0 15 0 0 -11 0 -10 14 -15 15 -14 10 0 11 0 0 -11 0 -10 14 -15
15 -14 10 0 11 0 0 -15 0 -15 10 0 10 0 0 -15 0 -15 11 0 10 0 15 -14 14 -15
0 -10 0 -11 15 0 15 0 0 15 0 15 -11 0 -10 0 -15 14 -14 15 0 10 0 11 -15 0
-15 0 0 11 0 10 -14 15 -15 14 -10 0 -11 0 0 11 0 10 -14 15 -15 14 -10 0 -11
0 0 11 0 10 -14 15 -15 14 -10 0 -11 0 0 15 0 15 -15 0 -15 0 0 15 0 15 30 0
30 0 0 -15 0 -15 10 0 10 0 0 -15 0 -15 11 0 10 0 15 -14 14 -15 0 -10 0 -11
11 0 10 0 15 -14 14 -15 0 -10 0 -11 11 0 10 0 15 -14 14 -15 0 -10 0 -11 15
0 15 0 0 15 0 15 -11 0 -10 0 -15 14 -14 15 0 10 0 11 -11 0 -10 0 -15 14 -14
15 0 20 0 21 10 0 10 0 0 -10 0 -10 14 0 14 0 6 13 6 12 6 -12 6 -13 14 0 14
0 0 10 0 10 -15 0 -15 0 0 15 0 15 -10 0 -10 0 0 -15 0 -15 -15 0 -15 0 0 15
0 15 -10 0 -10 0 0 -15 0 -15 -15 0 -15 0 0 15 0 15 -25 0 -25 0 0 15 0 15 25
0 25 0 0 -15 0 -15 15 0 15 0 0 15 0 15 10 0 10 0 0 -15 0 -15 15 0 15 0 0 15
0 15 10 0 10 0 0 -15 0 -15 15 0 15 0 0 25 0 25 -230 0 -230 0 0 -65 0 -65
-15 0 -15 0 0 80 0 80 245 0 245 0 0 10 0 10 -140 0 -140 0 0 15 0 15 -11 0
-10 0 -15 14 -14 15 0 20 0 21 10 0 10 0 0 15 0 15 15 0 15 0 0 11 0 10 14 15
15 14 25 0 26 0 0 15 0 15 -15 0 -15 0 0 10 0 10 -25 0 -25 0 0 -10 0 -10 10
0 10 0 0 -11 0 -10 -14 -15 -15 -14 -10 0 -11 0 0 -15 0 -15 -10 0 -10 0 0 15
0 15 -15 0 -15 0 0 -15 0 -15 15 0 15 0 0 -15 0 -15 -15 0 -15 0 0 15 0 15
-10 0 -10 0 0 11 0 10 14 15 15 14 10 0 11 0 0 11 0 10 14 15 15 14 10 0 11 0
0 15 0 15 25 0 25 0 0 -15 0 -15 15 0 15 0 0 15 0 15 10 0 10 0 0 -15 0 -15
15 0 15 0 0 15 0 15 10 0 10 0 0 -15 0 -15 15 0 15 0 0 15 0 15 10 0 10 0 0
-15 0 -15 15 0 15 0 0 15 0 15 10 0 10 0 0 -15 0 -15 15 0 15 0 0 25 0 25
-115 0 -115 0 0 15 0 15 115 0 115 0 0 10 0 10 -40 0 -40 0 0 15 0 15 15 0 15
0 0 11 0 10 14 15 15 14 10 0 11 0 0 15 0 15 -15 0 -15 0 0 -11 0 -10 -14 -15
-15 -14 -10 0 -11 0 0 -15 0 -15 -10 0 -10 0 0 -15 0 -15 -15 0 -15 0 0 15 0
15 -10 0 -10 0 0 -15 0 -15 -15 0 -15 0 0 15 0 15 15 0 15 0 0 11 0 10 14 15
15 14 10 0 11 0 0 11 0 10 14 15 15 14 10 0 11 0 0 11 0 10 14 15 15 14 10 0
11 0 0 15 0 15 -15 0 -15 0 0 -11 0 -10 -14 -15 -15 -14 -10 0 -11 0 0 -11 0
-10 -14 -15 -15 -14 -10 0 -11 0 0 -11 0 -10 -14 -15 -15 -14 -10 0 -11 0 0
-15 0 -15 -10 0 -10 0 0 -15 0 -15 -15 0 -15 0 0 -10 0 -10 -15 0 -15 0 0 -11
0 -10 -14 -15 -15 -14 -10 0 -11 0 0 -11 0 -10 -14 -15 -15 -14 -10 0 -11 0 0
-11 0 -10 -14 -15 -15 -14 -10 0 -11 0 0 -30 0 -30 11 0 10 0 15 -14 14 -15 0
-10 0 -11 11 0 10 0 15 -14 14 -15 0 -10 0 -11 -25 0 -25 0 0 11 0 10 -14 15
-15 14 -10 0 -11 0 0 15 0 15 -11 0 -10 0 -15 14 -14 15 0 21 0 21 14 15 15
14 10 0 11 0 0 15 0 15 11 0 10 0 15 14 14 15 0 10 0 11 11 0 10 0 15 14 14
15 0 10 0 11 11 0 10 0 15 14 14 15 0 10 0 11 15 0 15 0 0 15 0 15 11 0 10 0
15 14 14 15 0 10 0 11 11 0 10 0 15 14 14 15 0 10 0 11 11 0 10 0 15 14 14 15
0 10 0 11 15 0 15 0 0 11 0 10 14 15 15 14 10 0 11 0 0 15 0 15 -15 0 -15 0 0
-11 0 -10 -14 -15 -15 -14 -10 0 -11 0 0 -15 0 -15 -10 0 -10 0 0 -15 0 -15
-11 0 -10 0 -15 -14 -14 -15 0 -10 0 -11 -11 0 -10 0 -15 -14 -14 -15 0 -10 0
-11 -15 0 -15 0 0 -10 0 -10 -15 0 -15 0 0 -15 0 -15 -10 0 -10 0 0 -15 0 -15
-80 0 -80 0 0 30 0 30 15 0 15 0 0 10 0 10 15 0 15 0 0 11 0 10 14 15 15 14
10 0 11 0 0 11 0 10 14 15 15 14 10 0 11 0 0 15 0 15 10 0 10 0 0 15 0 15 15
0 15 0 0 10 0 10 15 0 15 0 0 11 0 10 14 15 15 14 10 0 11 0 0 11 0 10 14 15
15 14 10 0 11 0 0 15 0 15 -11 0 -10 0 -15 14 -14 15 0 10 0 11 -15 0 -15 0 0
-11 0 -10 -14 -15 -15 -14 -10 0 -11 0 0 -15 0 -15 -11 0 -10 0 -15 -14 -14
-15 0 -10 0 -11 -11 0 -10 0 -15 -14 -14 -15 0 -10 0 -11 -11 0 -10 0 -15 -14
-14 -15 0 -10 0 -11 -15 0 -15 0 0 -15 0 -15 -15 0 -15 0 0 30 0 30 15 0 15 0
0 10 0 10 15 0 15 0 0 11 0 10 14 15 15 14 10 0 11 0 0 11 0 10 14 15 15 14
10 0 11 0 0 11 0 10 14 15 15 14 10 0 11 0 0 15 0 15 -15 0 -15 0 0 -11 0 -10
-14 -15 -15 -14 -10 0 -11 0 0 -11 0 -10 -14 -15 -15 -14 -10 0 -11 0 0 -11 0
-10 -14 -15 -15 -14 -10 0 -11 0 0 -15 0 -15 -15 0 -15 0 0 90 0 90 -10 0 -10
0 0 -230 0 -230 65 0 65 0 0 -15 0 -15 -80 0 -80 0 0 245 0 245 -10 0 -10 0 0
-140 0 -140 -15 0 -15 0 0 -11 0 -10 -14 -15 -15 -14 -10 0 -11 0 0 -11 0 -10
-14 -15 -15 -14 -21 0 -21 0 -15 14 -14 15 0 10 0 11 -11 0 -10 0 -15 14 -14
15 0 10 0 11 -15 0 -15 0 0 140 0 140 -10 0 -10 0 0 -115 0 -115 -15 0 -15 0
0 115 0 115 -10 0 -10 0 0 -90 0 -90 -15 0 -15 0 0 15 0 15 -11 0 -10 0 -15
14 -14 15 0 10 0 11 -11 0 -10 0 -15 14 -14 15 0 20 0 21 10 0 10 0 0 15 0 15
-10 0 -10 0 0 -15 0 -15 -15 0 -15 0 0 15 0 15 -25 0 -25 0 0 -15 0 -15 11 0
10 0 15 -14 14 -15 0 -10 0 -11 11 0 10 0 15 -14 14 -15 0 -10 0 -11 11 0 10
0 15 -14 14 -15 0 -10 0 -11 15 0 15 0 0 -10 0 -10 15 0 15 0 0 -15 0 -15 10
0 10 0 0 -15 0 -15 11 0 10 0 15 -14 14 -15 0 -10 0 -11 11 0 10 0 15 -14 14
-15 0 -10 0 -11 11 0 10 0 15 -14 14 -15 0 -10 0 -11 30 0 30 0 0 11 0 10 14
15 15 14 10 0 11 0 0 11 0 10 14 15 15 14 10 0 11 0 0 -25 0 -25 -11 0 -10 0
-15 -14 -14 -15 0 -10 0 -11 -15 0 -15 0 0 -11 0 -10 -14 -15 -15 -14 -21 0
-21 0 -15 14 -14 15 0 10 0 11 -15 0 -15 0 0 11 0 10 -14 15 -15 14 -10 0 -11
0 0 11 0 10 -14 15 -15 14 -10 0 -11 0 0 11 0 10 -14 15 -15 14 -10 0 -11 0 0
15 0 15 -15 0 -15 0 0 11 0 10 -14 15 -15 14 -10 0 -11 0 0 11 0 10 -14 15
-15 14 -10 0 -11 0 0 11 0 10 -14 15 -15 14 -10 0 -11 0 0 15 0 15 -11 0 -10
0 -15 14 -14 15 0 10 0 11 -15 0 -15 0 0 -15z m986 -29 l14 -15 0 -6 0 -6 -14
-15 -15 -14 -10 0 -11 0 0 -11 0 -10 -14 -15 -15 -14 -10 0 -11 0 0 -15 0 -15
-11 0 -10 0 -15 -14 -14 -15 0 -10 0 -11 -15 0 -15 0 0 -11 0 -10 -14 -15 -15
-14 -10 0 -11 0 0 -11 0 -10 -14 -15 -15 -14 -10 0 -11 0 0 -15 0 -15 -15 0
-15 0 0 15 0 15 15 0 15 0 0 10 0 10 -15 0 -15 0 0 15 0 15 15 0 15 0 0 10 0
10 15 0 15 0 0 15 0 15 10 0 10 0 0 15 0 15 11 0 10 0 15 14 14 15 0 10 0 11
11 0 10 0 15 14 14 15 0 10 0 11 15 0 15 0 0 10 0 10 15 0 15 0 0 10 0 11 13
14 12 14 8 1 8 0 15 -14z m-596 -351 l0 -15 10 0 10 0 0 -15 0 -15 11 0 10 0
15 -14 14 -15 0 -10 0 -11 29 0 29 0 6 -12 6 -13 6 13 6 12 13 0 13 0 6 -12 6
-13 6 13 6 12 10 0 9 0 15 -14 14 -15 0 -10 0 -11 15 0 15 0 0 15 0 15 10 0
10 0 0 -15 0 -15 15 0 15 0 0 15 0 15 15 0 15 0 0 -15 0 -15 -15 0 -15 0 0
-10 0 -10 -15 0 -15 0 0 -11 0 -10 -14 -15 -15 -14 -10 0 -11 0 0 -30 0 -30
11 0 10 0 15 -14 14 -15 0 -10 0 -11 15 0 15 0 0 -10 0 -10 15 0 15 0 0 -15 0
-15 -65 0 -65 0 0 -65 0 -65 -15 0 -15 0 0 15 0 15 -10 0 -10 0 0 15 0 15 -11
0 -10 0 -15 14 -14 15 0 10 0 11 -30 0 -30 0 0 -11 0 -10 -14 -15 -15 -14 -10
0 -11 0 0 -15 0 -15 -10 0 -10 0 0 -15 0 -15 -15 0 -15 0 0 65 0 65 -10 0 -10
0 0 11 0 10 14 15 15 14 10 0 11 0 0 15 0 15 -11 0 -10 0 -15 14 -14 15 0 25
0 26 -11 0 -10 0 -15 14 -14 15 0 10 0 11 -15 0 -15 0 0 10 0 10 -15 0 -15 0
0 15 0 15 15 0 15 0 0 -15 0 -15 15 0 15 0 0 15 0 15 10 0 10 0 0 -15 0 -15
15 0 15 0 0 15 0 15 10 0 10 0 0 65 0 65 15 0 15 0 0 -15z m230 0 l0 -15 -15
0 -15 0 0 -15 0 -15 15 0 15 0 0 -10 0 -10 -15 0 -15 0 0 -15 0 -15 -10 0 -10
0 0 15 0 15 -15 0 -15 0 0 -15 0 -15 -10 0 -10 0 0 11 0 10 14 15 15 14 10 0
11 0 0 15 0 15 10 0 10 0 0 15 0 15 15 0 15 0 0 -15z m-690 -130 l0 -15 10 0
10 0 0 15 0 15 15 0 15 0 0 -15 0 -15 10 0 10 0 0 15 0 15 15 0 15 0 0 -14 0
-14 13 -5 12 -4 -9 -9 -9 -9 -4 13 -5 12 -13 0 -13 0 -6 -12 -6 -13 -6 13 -6
12 -13 0 -13 0 -6 -12 -6 -13 -6 13 -6 12 -13 0 -13 0 -5 -12 -4 -13 -9 9 -9
9 13 4 12 5 0 14 0 14 15 0 15 0 0 -15z m416 -159 l14 -15 0 -6 0 -6 -14 -15
-15 -14 -10 0 -11 0 0 -15 0 -15 -10 0 -10 0 0 15 0 15 -15 0 -15 0 0 -15 0
-15 -15 0 -15 0 0 15 0 15 15 0 15 0 0 10 0 10 15 0 15 0 0 10 0 11 13 14 12
14 8 1 8 0 15 -14z m-416 -171 l0 -15 10 0 10 0 0 15 0 15 15 0 15 0 0 -15 0
-15 10 0 10 0 0 15 0 15 15 0 15 0 0 -15 0 -15 -15 0 -15 0 0 -11 0 -10 -14
-15 -15 -14 -6 0 -6 0 -15 14 -14 15 0 10 0 11 -15 0 -15 0 0 -15 0 -15 -10 0
-10 0 0 15 0 15 10 0 10 0 0 15 0 15 15 0 15 0 0 -15z m230 0 l0 -15 10 0 10
0 0 15 0 15 15 0 15 0 0 -15 0 -15 10 0 10 0 0 15 0 15 15 0 15 0 0 -15 0 -15
15 0 15 0 0 -15 0 -15 -15 0 -15 0 0 15 0 15 -15 0 -15 0 0 -15 0 -15 -10 0
-10 0 0 15 0 15 -15 0 -15 0 0 -11 0 -10 -14 -15 -15 -14 -10 0 -11 0 0 -11 0
-10 -14 -15 -15 -14 -10 0 -11 0 0 -15 0 -15 -11 0 -10 0 -15 -14 -14 -15 0
-10 0 -11 -15 0 -15 0 0 -11 0 -10 -14 -15 -15 -14 -10 0 -11 0 0 -11 0 -10
-14 -15 -15 -14 -6 0 -6 0 -15 14 -14 15 0 6 0 6 14 15 15 14 10 0 11 0 0 15
0 15 10 0 10 0 0 15 0 15 11 0 10 0 15 14 14 15 0 10 0 11 11 0 10 0 15 14 14
15 0 10 0 11 15 0 15 0 0 10 0 10 15 0 15 0 0 15 0 15 10 0 10 0 0 15 0 15 15
0 15 0 0 -15z m590 0 l0 -15 10 0 10 0 0 15 0 15 15 0 15 0 0 -15 0 -15 10 0
10 0 0 15 0 15 15 0 15 0 0 -15 0 -15 10 0 10 0 0 -15 0 -15 -10 0 -10 0 0 15
0 15 -15 0 -15 0 0 -15 0 -15 -10 0 -10 0 0 15 0 15 -15 0 -15 0 0 -15 0 -15
-10 0 -10 0 0 15 0 15 -15 0 -15 0 0 -15 0 -15 -15 0 -15 0 0 15 0 15 15 0 15
0 0 15 0 15 15 0 15 0 0 -15z m-260 -55 l0 -10 15 0 15 0 0 -15 0 -15 -15 0
-15 0 0 -10 0 -10 -15 0 -15 0 0 -11 0 -10 -14 -15 -15 -14 -10 0 -11 0 0 -15
0 -15 -10 0 -10 0 0 -15 0 -15 -15 0 -15 0 0 15 0 15 15 0 15 0 0 15 0 15 -15
0 -15 0 0 10 0 10 15 0 15 0 0 11 0 10 14 15 15 14 10 0 11 0 0 10 0 11 13 14
12 14 13 1 12 0 0 -10z"/>
<path d="M1100 1219 l0 -10 -14 -15 -15 -14 -10 0 -11 0 0 -15 0 -15 -11 0
-10 0 -15 -14 -14 -15 0 -10 0 -11 -11 0 -10 0 -15 -14 -14 -15 0 -10 0 -11
-15 0 -15 0 0 -11 0 -10 -14 -15 -15 -14 -10 0 -11 0 0 -15 0 -15 15 0 15 0 0
11 0 10 14 15 15 14 10 0 11 0 0 15 0 15 10 0 10 0 0 15 0 15 11 0 10 0 15 14
14 15 0 10 0 11 15 0 15 0 0 10 0 10 15 0 15 0 0 11 0 10 14 15 15 14 10 0 11
0 0 15 0 15 -15 0 -15 0 0 -11z"/>
<path d="M440 730 l0 -10 10 0 10 0 0 -15 0 -15 15 0 15 0 0 15 0 15 -15 0
-15 0 0 10 0 10 -10 0 -10 0 0 -10z"/>
<path d="M820 730 l0 -10 -15 0 -15 0 0 -15 0 -15 15 0 15 0 0 15 0 15 10 0
10 0 0 10 0 10 -10 0 -10 0 0 -10z"/>
<path d="M610 640 l0 -30 30 0 30 0 0 30 0 30 -30 0 -30 0 0 -30z"/>
<path d="M720 830 l0 -10 10 0 10 0 0 10 0 10 -10 0 -10 0 0 -10z"/>
<path d="M460 576 l0 -14 -12 -5 -13 -4 9 -9 9 -9 4 13 5 12 14 0 14 0 0 15 0
15 -15 0 -15 0 0 -14z"/>
<path d="M100 395 l0 -15 15 0 15 0 0 15 0 15 -15 0 -15 0 0 -15z"/>
<path d="M280 399 l0 -10 -14 -15 -15 -14 -10 0 -11 0 0 -15 0 -15 -11 0 -10
0 -15 -14 -14 -15 0 -10 0 -11 -11 0 -10 0 -15 -14 -14 -15 0 -10 0 -11 -15 0
-15 0 0 -11 0 -10 -14 -15 -15 -14 -10 0 -11 0 0 -15 0 -15 15 0 15 0 0 11 0
10 14 15 15 14 10 0 11 0 0 15 0 15 10 0 10 0 0 15 0 15 11 0 10 0 15 14 14
15 0 10 0 11 15 0 15 0 0 10 0 10 15 0 15 0 0 11 0 10 14 15 15 14 10 0 11 0
0 15 0 15 -15 0 -15 0 0 -11z"/>
<path d="M610 349 l0 -10 -14 -15 -15 -14 -10 0 -11 0 0 -14 0 -14 -12 -5 -13
-4 9 -9 9 -9 4 13 5 12 14 0 14 0 0 11 0 10 14 15 15 14 10 0 11 0 0 15 0 15
-15 0 -15 0 0 -11z"/>
<path d="M1250 1265 l0 -15 15 0 15 0 0 15 0 15 -15 0 -15 0 0 -15z"/>
<path d="M1250 989 l0 -10 -14 -15 -15 -14 -10 0 -11 0 0 -11 0 -10 -14 -15
-15 -14 -10 0 -11 0 0 -15 0 -15 15 0 15 0 0 11 0 10 14 15 15 14 10 0 11 0 0
11 0 10 14 15 15 14 10 0 11 0 0 15 0 15 -15 0 -15 0 0 -11z"/>
<path d="M260 730 l0 -10 10 0 10 0 0 -15 0 -15 15 0 15 0 0 15 0 15 -15 0
-15 0 0 10 0 10 -10 0 -10 0 0 -10z"/>
<path d="M1080 730 l0 -10 10 0 10 0 0 -15 0 -15 15 0 15 0 0 15 0 15 10 0 10
0 0 -15 0 -15 15 0 15 0 0 15 0 15 10 0 10 0 0 -15 0 -15 15 0 15 0 0 15 0 15
10 0 10 0 0 -15 0 -15 15 0 15 0 0 15 0 15 -14 0 -14 0 -6 13 -6 12 -6 -12 -6
-13 -13 0 -13 0 -6 13 -6 12 -6 -12 -6 -13 -13 0 -13 0 -6 13 -6 12 -6 -12 -6
-13 -14 0 -14 0 0 10 0 10 -10 0 -10 0 0 -10z"/>
<path d="M970 706 l0 -14 -12 -5 -13 -4 9 -9 9 -9 4 13 5 12 14 0 14 0 0 15 0
15 -15 0 -15 0 0 -14z"/>
<path d="M380 119 l0 -10 -14 -15 -15 -14 -10 0 -11 0 0 -11 0 -10 -14 -15
-15 -14 -10 0 -11 0 0 -15 0 -15 15 0 15 0 0 11 0 10 14 15 15 14 10 0 11 0 0
11 0 10 14 15 15 14 10 0 11 0 0 15 0 15 -15 0 -15 0 0 -11z"/>
<path d="M0 15 l0 -15 15 0 15 0 0 15 0 15 -15 0 -15 0 0 -15z"/>
<path d="M1250 15 l0 -15 15 0 15 0 0 15 0 15 -15 0 -15 0 0 -15z"/>
</g>
</svg>
