<?xml version="1.0" standalone="no"?>
<!DOCTYPE svg PUBLIC "-//W3C//DTD SVG 20010904//EN"
 "http://www.w3.org/TR/2001/REC-SVG-20010904/DTD/svg10.dtd">
<svg version="1.0" xmlns="http://www.w3.org/2000/svg"
 width="468pt" height="468pt" viewBox="0 0 468 468"
 preserveAspectRatio="xMidYMid meet">
<metadata>
Created by potrace 1.8, written by Peter Selinger 2001-2007
</metadata>
<g transform="translate(0,468) scale(0.365625,-0.365625)"
fill="#000000" stroke="none">
<path d="M50 1255 l0 -25 -25 0 -25 0 0 -465 0 -465 25 0 25 0 0 -25 0 -25
-25 0 -25 0 0 -125 0 -125 640 0 640 0 0 125 0 125 -25 0 -25 0 0 25 0 25 25
0 25 0 0 465 0 465 -25 0 -25 0 0 25 0 25 -590 0 -590 0 0 -25z m250 -75 l0
-50 -25 0 -25 0 0 -25 0 -25 -25 0 -25 0 0 -95 0 -95 -25 0 -25 0 0 -75 0 -75
-25 0 -25 0 0 -220 0 -220 -25 0 -25 0 0 465 0 465 125 0 125 0 0 -50z m440
25 l0 -25 50 0 50 0 0 -75 0 -75 50 0 50 0 0 -25 0 -25 -25 0 -25 0 0 -20 0
-20 -50 0 -50 0 0 20 0 20 -75 0 -75 0 0 -20 0 -20 -25 0 -25 0 0 -50 0 -50
25 0 25 0 0 25 0 25 25 0 25 0 0 -25 0 -25 125 0 125 0 0 -50 0 -50 -25 0 -25
0 0 -25 0 -25 -25 0 -25 0 0 -75 0 -75 -25 0 -25 0 0 -50 0 -50 -50 0 -50 0 0
-25 0 -25 -75 0 -75 0 0 25 0 25 -25 0 -25 0 0 25 0 25 -25 0 -25 0 0 25 0 25
-25 0 -25 0 0 50 0 50 -25 0 -25 0 0 100 0 100 25 0 25 0 0 25 0 25 25 0 25 0
0 -25 0 -25 25 0 25 0 0 -25 0 -25 25 0 25 0 0 95 0 95 -75 0 -75 0 0 -20 0
-20 -25 0 -25 0 0 70 0 70 25 0 25 0 0 50 0 50 25 0 25 0 0 25 0 25 150 0 150
0 0 -25z m490 -75 l0 -50 -25 0 -25 0 0 25 0 25 -25 0 -25 0 0 25 0 25 50 0
50 0 0 -50z"/>
<path d="M640 815 l0 -25 25 0 25 0 0 25 0 25 -25 0 -25 0 0 -25z"/>
<path d="M490 690 l0 -50 75 0 75 0 0 25 0 25 25 0 25 0 0 25 0 25 -50 0 -50
0 0 -25 0 -25 -25 0 -25 0 0 25 0 25 -25 0 -25 0 0 -50z"/>
<path d="M440 565 l0 -25 50 0 50 0 0 -25 0 -25 50 0 50 0 0 25 0 25 50 0 50
0 0 25 0 25 -150 0 -150 0 0 -25z"/>
</g>
</svg>
