<?xml version="1.0" standalone="no"?>
<!DOCTYPE svg PUBLIC "-//W3C//DTD SVG 20010904//EN"
 "http://www.w3.org/TR/2001/REC-SVG-20010904/DTD/svg10.dtd">
<svg version="1.0" xmlns="http://www.w3.org/2000/svg"
 width="468pt" height="468pt" viewBox="0 0 468 468"
 preserveAspectRatio="xMidYMid meet">
<metadata>
Created by potrace 1.8, written by Peter Selinger 2001-2007
</metadata>
<g transform="translate(0,468) scale(0.365625,-0.365625)"
fill="#000000" stroke="none">
<path d="M530 1200 l0 -30 30 0 30 0 0 30 0 30 -30 0 -30 0 0 -30z"/>
<path d="M270 1095 l0 -25 25 0 25 0 0 25 0 25 -25 0 -25 0 0 -25z"/>
<path d="M690 1095 l0 -25 30 0 30 0 0 25 0 25 -30 0 -30 0 0 -25z"/>
<path d="M910 1095 l0 -25 25 0 25 0 0 25 0 25 -25 0 -25 0 0 -25z"/>
<path d="M370 1040 l0 -30 30 0 30 0 0 30 0 30 -30 0 -30 0 0 -30z"/>
<path d="M530 1040 l0 -30 30 0 30 0 0 30 0 30 -30 0 -30 0 0 -30z"/>
<path d="M800 1040 l0 -30 25 0 25 0 0 30 0 30 -25 0 -25 0 0 -30z"/>
<path d="M640 985 l0 -25 25 0 25 0 0 -25 0 -25 30 0 30 0 0 25 0 25 -30 0
-30 0 0 25 0 25 -25 0 -25 0 0 -25z"/>
<path d="M0 935 l0 -25 105 0 105 0 0 -30 0 -30 30 0 30 0 0 -25 0 -25 25 0
25 0 0 -25 0 -25 25 0 25 0 0 -55 0 -55 30 0 30 0 0 -25 0 -25 25 0 25 0 0
-55 0 -55 25 0 25 0 0 -25 0 -25 30 0 30 0 0 -30 0 -30 -55 0 -55 0 0 30 0 30
-25 0 -25 0 0 25 0 25 -30 0 -30 0 0 55 0 55 -25 0 -25 0 0 25 0 25 -25 0 -25
0 0 25 0 25 -30 0 -30 0 0 55 0 55 -25 0 -25 0 0 -25 0 -25 -25 0 -25 0 0 25
0 25 -30 0 -30 0 0 -25 0 -25 -25 0 -25 0 0 -215 0 -215 80 0 80 0 0 25 0 25
25 0 25 0 0 -25 0 -25 55 0 55 0 0 25 0 25 25 0 25 0 0 -25 0 -25 110 0 110 0
0 25 0 25 25 0 25 0 0 30 0 30 -25 0 -25 0 0 50 0 50 -30 0 -30 0 0 30 0 30
-25 0 -25 0 0 50 0 50 25 0 25 0 0 30 0 30 -25 0 -25 0 0 -30 0 -30 -25 0 -25
0 0 30 0 30 -30 0 -30 0 0 50 0 50 -50 0 -50 0 0 30 0 30 -30 0 -30 0 0 25 0
25 -105 0 -105 0 0 -25z m110 -215 l0 -30 -30 0 -30 0 0 30 0 30 30 0 30 0 0
-30z m160 -320 l0 -30 -30 0 -30 0 0 30 0 30 30 0 30 0 0 -30z"/>
<path d="M320 935 l0 -25 25 0 25 0 0 25 0 25 -25 0 -25 0 0 -25z"/>
<path d="M430 935 l0 -25 25 0 25 0 0 25 0 25 -25 0 -25 0 0 -25z"/>
<path d="M530 935 l0 -25 30 0 30 0 0 25 0 25 -30 0 -30 0 0 -25z"/>
<path d="M800 935 l0 -25 25 0 25 0 0 25 0 25 -25 0 -25 0 0 -25z"/>
<path d="M910 935 l0 -25 25 0 25 0 0 25 0 25 -25 0 -25 0 0 -25z"/>
<path d="M1010 905 l0 -55 -25 0 -25 0 0 -25 0 -25 -25 0 -25 0 0 -25 0 -25
-30 0 -30 0 0 -55 0 -55 -25 0 -25 0 0 -25 0 -25 -25 0 -25 0 0 -55 0 -55 -30
0 -30 0 0 -80 0 -80 160 0 160 0 0 25 0 25 30 0 30 0 0 -25 0 -25 105 0 105 0
0 215 0 215 -55 0 -55 0 0 25 0 25 -25 0 -25 0 0 -25 0 -25 -25 0 -25 0 0 -30
0 -30 -30 0 -30 0 0 -25 0 -25 -25 0 -25 0 0 -55 0 -55 -25 0 -25 0 0 -25 0
-25 -30 0 -30 0 0 -25 0 -25 -25 0 -25 0 0 -30 0 -30 -25 0 -25 0 0 55 0 55
25 0 25 0 0 55 0 55 25 0 25 0 0 25 0 25 30 0 30 0 0 25 0 25 25 0 25 0 0 55
0 55 25 0 25 0 0 25 0 25 30 0 30 0 0 30 0 30 25 0 25 0 0 -30 0 -30 55 0 55
0 0 30 0 30 25 0 25 0 0 25 0 25 -55 0 -55 0 0 -25 0 -25 -25 0 -25 0 0 25 0
25 -55 0 -55 0 0 -55z m160 -185 l0 -30 -25 0 -25 0 0 30 0 30 25 0 25 0 0
-30z m-260 -320 l0 -30 -30 0 -30 0 0 30 0 30 30 0 30 0 0 -30z m210 0 l0 -30
-25 0 -25 0 0 30 0 30 25 0 25 0 0 -30z"/>
<path d="M480 825 l0 -25 25 0 25 0 0 25 0 25 -25 0 -25 0 0 -25z"/>
<path d="M590 825 l0 -25 25 0 25 0 0 -25 0 -25 25 0 25 0 0 25 0 25 -25 0
-25 0 0 25 0 25 -25 0 -25 0 0 -25z"/>
<path d="M750 825 l0 -25 25 0 25 0 0 25 0 25 -25 0 -25 0 0 -25z"/>
<path d="M750 720 l0 -30 25 0 25 0 0 30 0 30 -25 0 -25 0 0 -30z"/>
<path d="M640 665 l0 -25 25 0 25 0 0 25 0 25 -25 0 -25 0 0 -25z"/>
<path d="M640 560 l0 -30 25 0 25 0 0 30 0 30 -25 0 -25 0 0 -30z"/>
<path d="M160 240 l0 -30 25 0 25 0 0 30 0 30 -25 0 -25 0 0 -30z"/>
<path d="M320 240 l0 -30 25 0 25 0 0 30 0 30 -25 0 -25 0 0 -30z"/>
<path d="M480 240 l0 -30 25 0 25 0 0 30 0 30 -25 0 -25 0 0 -30z"/>
<path d="M690 240 l0 -30 30 0 30 0 0 30 0 30 -30 0 -30 0 0 -30z"/>
<path d="M850 240 l0 -30 30 0 30 0 0 30 0 30 -30 0 -30 0 0 -30z"/>
<path d="M1010 240 l0 -30 30 0 30 0 0 30 0 30 -30 0 -30 0 0 -30z"/>
<path d="M1120 240 l0 -30 25 0 25 0 0 30 0 30 -25 0 -25 0 0 -30z"/>
<path d="M590 185 l0 -25 -30 0 -30 0 0 -25 0 -25 30 0 30 0 0 25 0 25 25 0
25 0 0 25 0 25 -25 0 -25 0 0 -25z"/>
<path d="M210 135 l0 -25 30 0 30 0 0 25 0 25 -30 0 -30 0 0 -25z"/>
<path d="M430 135 l0 -25 25 0 25 0 0 25 0 25 -25 0 -25 0 0 -25z"/>
<path d="M690 135 l0 -25 -25 0 -25 0 0 -30 0 -30 25 0 25 0 0 30 0 30 30 0
30 0 0 25 0 25 -30 0 -30 0 0 -25z"/>
<path d="M800 135 l0 -25 25 0 25 0 0 -30 0 -30 30 0 30 0 0 30 0 30 -30 0
-30 0 0 25 0 25 -25 0 -25 0 0 -25z"/>
<path d="M960 135 l0 -25 25 0 25 0 0 25 0 25 -25 0 -25 0 0 -25z"/>
<path d="M1120 135 l0 -25 25 0 25 0 0 25 0 25 -25 0 -25 0 0 -25z"/>
<path d="M110 80 l0 -30 25 0 25 0 0 30 0 30 -25 0 -25 0 0 -30z"/>
<path d="M320 80 l0 -30 25 0 25 0 0 30 0 30 -25 0 -25 0 0 -30z"/>
<path d="M210 25 l0 -25 30 0 30 0 0 25 0 25 -30 0 -30 0 0 -25z"/>
<path d="M530 25 l0 -25 30 0 30 0 0 25 0 25 -30 0 -30 0 0 -25z"/>
<path d="M750 25 l0 -25 25 0 25 0 0 25 0 25 -25 0 -25 0 0 -25z"/>
<path d="M1010 25 l0 -25 30 0 30 0 0 25 0 25 -30 0 -30 0 0 -25z"/>
</g>
</svg>
