<?xml version="1.0" standalone="no"?>
<!DOCTYPE svg PUBLIC "-//W3C//DTD SVG 20010904//EN"
 "http://www.w3.org/TR/2001/REC-SVG-20010904/DTD/svg10.dtd">
<svg version="1.0" xmlns="http://www.w3.org/2000/svg"
 width="468pt" height="468pt" viewBox="0 0 468 468"
 preserveAspectRatio="xMidYMid meet">
<metadata>
Created by potrace 1.8, written by Peter Selinger 2001-2007
</metadata>
<g transform="translate(0,468) scale(0.365625,-0.365625)"
fill="#000000" stroke="none">
<path d="M61 1274 l-14 -6 -21 -22 -21 -21 0 -77 1 -77 4 -5 5 -4 25 -5 25 -4
-12 4 -11 4 -6 15 -5 14 45 0 45 0 16 15 15 15 6 -4 7 -4 0 38 0 38 -8 -5 -7
-4 0 14 0 15 -16 6 -16 6 -44 0 -44 0 0 11 0 11 20 5 20 5 0 9 0 9 60 0 60 0
0 -9 0 -8 31 -7 31 -6 64 -66 65 -66 34 6 35 7 0 -5 0 -5 -17 -16 -17 -17 -4
-54 -4 -54 -22 0 -21 0 -37 -11 -38 -10 0 -14 0 -13 13 -5 12 -4 -8 -9 -8 -8
-9 14 -9 15 -27 2 -27 2 -9 13 -8 13 -10 -15 -10 -15 0 12 0 11 -50 12 -50 12
0 9 0 9 15 0 15 0 0 -12 0 -13 8 13 9 13 29 5 29 4 -14 -9 -14 -9 16 -17 17
-16 0 20 0 20 21 6 21 7 20 20 20 20 -8 6 -7 7 -4 -12 -5 -13 -109 0 -109 0 0
10 0 10 -14 0 -14 0 -6 -15 -5 -15 29 0 30 0 0 -9 0 -9 7 -19 7 -18 -17 17
-18 17 -14 -5 -15 -6 0 -8 0 -9 55 -11 55 -11 0 -15 0 -14 -24 0 -24 0 -4 -12
-5 -13 4 -12 5 -13 25 0 24 0 15 14 14 14 -13 5 -12 5 15 11 15 11 20 -7 20
-6 5 -7 5 -7 37 -7 37 -7 3 -9 3 -10 68 -7 67 -6 0 -7 0 -8 115 -7 115 -7 0
-8 0 -9 -10 -6 -10 -6 0 -28 0 -28 40 -7 40 -6 0 -10 0 -10 60 0 60 0 0 10 0
10 13 0 13 0 17 20 17 20 0 10 0 10 21 0 20 0 -6 20 -6 20 18 1 18 1 67 -2 67
-2 31 7 30 7 6 24 6 24 12 0 11 0 -15 10 -15 10 15 10 15 10 -12 0 -13 0 0 10
0 10 15 0 15 0 0 -16 0 -17 36 6 36 6 5 4 4 5 5 26 4 26 -17 7 -18 7 -5 6 -5
7 -22 7 -23 7 0 -20 0 -21 -17 0 -18 0 15 10 15 10 -14 9 -13 9 13 5 14 5 -11
9 -10 8 -7 18 -6 17 -15 0 -14 0 5 -20 5 -20 9 0 9 0 0 -80 0 -81 -16 3 -17 3
-4 -15 -5 -15 12 15 12 15 -5 -15 -4 -15 -61 1 -61 1 -4 -16 -3 -16 -3 128 -2
127 61 0 60 0 0 10 0 10 -69 0 -69 0 -6 -12 -6 -13 -6 13 -6 12 -28 0 -28 0
-6 -12 -6 -13 -6 13 -6 12 -54 0 -54 0 0 -10 0 -10 55 0 55 0 0 -60 0 -60 10
0 10 0 0 60 0 60 30 0 30 0 0 -114 0 -115 -27 2 -28 2 -3 30 -4 30 -11 7 -12
8 15 10 15 9 -32 7 -33 7 0 8 0 9 -195 0 -195 0 0 -10 0 -10 -10 0 -10 0 0 45
0 45 9 0 9 0 6 23 6 24 25 11 26 12 57 -2 57 -2 -51 -3 -50 -4 4 -29 4 -30
-16 0 -16 0 0 14 0 14 13 5 12 4 -8 8 -7 9 -15 -20 -14 -19 3 -10 3 -10 107 0
107 1 7 10 7 10 18 7 19 7 -4 12 -5 13 -31 9 -32 9 0 8 0 9 -89 0 -89 0 -4
-10 -3 -10 -56 -3 -56 -2 -29 34 -29 33 -28 29 -29 29 -13 0 -13 0 -4 11 -4
12 -74 3 -75 4 -14 -6z m69 -79 l0 -15 10 0 10 0 0 -29 0 -29 -16 -6 -16 -6
-54 0 -54 0 0 50 0 50 60 0 60 0 0 -15z m561 -77 l39 -11 0 -8 0 -8 -37 -7
-36 -7 -14 18 -13 19 0 8 0 8 11 0 12 0 38 -12z m-55 -25 l13 -18 1 -7 0 -8
-55 0 -55 0 0 25 0 25 41 0 42 0 13 -17z m-546 -83 l0 -10 -10 0 -10 0 0 10 0
10 10 0 10 0 0 -10z m130 0 l0 -10 -10 0 -10 0 0 10 0 10 10 0 10 0 0 -10z
m1050 -27 l5 -5 -17 -9 -17 -9 -14 -14 -14 -14 -1 35 -1 35 27 -7 27 -7 5 -5z
m-716 -29 l29 -7 -6 10 -6 9 66 1 65 1 -13 -9 -14 -9 27 0 27 0 6 10 6 10 37
0 37 0 22 -6 22 -6 -14 -14 -14 -14 -260 0 -261 0 0 9 0 10 43 5 42 6 25 4 25
4 40 -3 40 -3 29 -8z m316 -53 l0 -30 -12 -7 -11 -7 -12 16 -12 17 -11 0 -10
0 -5 -12 -5 -13 -1 15 -1 15 8 11 7 12 20 5 20 5 13 1 12 1 0 -29z m-523 8 l5
13 9 -13 9 -14 11 15 11 15 -5 -15 -4 -15 -28 0 -28 0 -4 15 -5 15 12 -15 12
-15 5 14z m93 2 l0 -9 7 -19 7 -18 -17 17 -17 17 0 10 0 11 10 0 10 0 0 -9z
m70 -1 l0 -10 -10 0 -10 0 0 10 0 10 10 0 10 0 0 -10z m224 -15 l6 -25 10 0
10 0 0 -17 0 -18 10 15 10 15 10 -15 10 -15 0 15 0 15 8 -11 7 -11 38 -6 37
-6 16 -15 15 -16 -40 0 -41 0 0 -13 0 -13 -20 -17 -20 -17 -15 0 -15 0 0 9 0
9 30 7 30 7 0 9 0 9 -19 0 -19 0 -4 -10 -3 -11 -73 -6 -72 -6 0 22 0 22 18 6
17 7 13 13 13 13 -21 0 -21 0 -13 13 -13 13 13 11 12 12 26 7 26 6 0 9 0 9 9
0 9 0 6 -25z m56 16 l0 -9 -14 -5 -15 -6 6 15 5 14 9 0 9 0 0 -9z m-673 -17
l-6 -6 -13 5 -13 5 19 1 19 1 -6 -6z m450 0 l-6 -6 -13 5 -13 5 19 1 19 1 -6
-6z m193 -144 l0 -10 -10 0 -10 0 0 10 0 10 10 0 10 0 0 -10z"/>
<path d="M840 880 l0 -10 10 0 10 0 0 10 0 10 -10 0 -10 0 0 -10z"/>
<path d="M1202 1266 l13 -14 4 3 3 4 -7 10 -6 11 -10 0 -10 0 13 -14z"/>
<path d="M1202 1206 l13 -14 4 3 3 4 -7 10 -6 11 -10 0 -10 0 13 -14z"/>
<path d="M1190 1170 l0 -10 10 0 10 0 0 10 0 10 -10 0 -10 0 0 -10z"/>
<path d="M200 1145 l0 -15 10 0 10 0 0 15 0 15 -10 0 -10 0 0 -15z"/>
<path d="M244 1145 l11 -13 8 12 9 11 5 -12 5 -13 14 0 14 0 0 13 0 14 -39 0
-39 0 12 -12z"/>
<path d="M1190 1141 l0 -9 14 -5 15 -6 -6 15 -5 14 -9 0 -9 0 0 -9z"/>
<path d="M1187 1104 l5 -14 9 0 9 0 0 9 0 9 -14 5 -15 6 6 -15z"/>
<path d="M320 1100 l0 -10 30 0 30 0 0 10 0 10 -30 0 -30 0 0 -10z"/>
<path d="M243 1083 l-13 -5 0 -9 0 -9 9 0 9 0 6 15 5 15 -2 -1 -2 -1 -12 -5z"/>
<path d="M288 1083 l13 -5 6 6 6 6 -19 -1 -19 -1 13 -5z"/>
<path d="M180 1063 l-14 -17 18 7 18 7 9 0 9 0 0 10 0 10 -12 0 -13 -1 -15
-16z"/>
<path d="M316 1065 l-5 -15 24 6 25 6 0 -15 0 -16 -17 -4 -18 -5 18 -1 17 -1
0 -10 0 -10 -20 0 -20 0 0 10 0 10 -15 0 -15 0 0 -10 0 -10 24 -6 24 -6 23 4
24 3 2 25 2 25 -5 18 -5 17 -29 0 -28 0 -6 -15z"/>
<path d="M1202 1064 l-13 -14 10 0 10 0 6 11 7 10 -3 4 -4 3 -13 -14z"/>
<path d="M98 1053 l13 -5 6 6 6 6 -19 -1 -19 -1 13 -5z"/>
<path d="M138 1053 l13 -5 6 6 6 6 -19 -1 -19 -1 13 -5z"/>
<path d="M737 1023 l-7 -6 0 -9 0 -8 15 0 15 0 0 15 0 15 -8 0 -9 0 -6 -7z"/>
<path d="M783 1023 l-13 -5 0 -9 0 -9 15 0 15 0 0 15 0 15 -2 -1 -3 -1 -12 -5z"/>
<path d="M823 1023 l-13 -5 0 -9 0 -9 15 0 15 0 0 15 0 15 -2 -1 -3 -1 -12 -5z"/>
<path d="M1012 886 l13 -14 4 3 3 4 -7 10 -6 11 -10 0 -10 0 13 -14z"/>
<path d="M900 880 l0 -10 10 0 10 0 0 10 0 10 -10 0 -10 0 0 -10z"/>
<path d="M1190 880 l0 -10 10 0 10 0 0 10 0 10 -10 0 -10 0 0 -10z"/>
<path d="M1190 850 l0 -10 11 0 10 0 -15 -16 -16 -15 0 -5 0 -4 4 0 5 0 15 15
15 16 -5 14 -6 15 -9 0 -9 0 0 -10z"/>
<path d="M1196 785 l-15 -16 5 -14 6 -15 9 0 9 0 0 10 0 10 -11 0 -10 0 15 16
16 15 0 5 0 4 -4 0 -5 0 -15 -15z"/>
<path d="M1187 716 l-6 -15 15 6 14 5 0 9 0 9 -9 0 -9 0 -5 -14z"/>
<path d="M1195 675 l-20 -24 -587 -1 -588 0 0 -325 0 -325 640 0 640 0 0 325
0 325 -45 0 -45 0 0 6 0 7 17 13 18 12 -5 6 -5 5 -20 -24z"/>
</g>
</svg>
