<?xml version="1.0" standalone="no"?>
<!DOCTYPE svg PUBLIC "-//W3C//DTD SVG 20010904//EN"
 "http://www.w3.org/TR/2001/REC-SVG-20010904/DTD/svg10.dtd">
<svg version="1.0" xmlns="http://www.w3.org/2000/svg"
 width="468pt" height="468pt" viewBox="0 0 468 468"
 preserveAspectRatio="xMidYMid meet">
<metadata>
Created by potrace 1.8, written by Peter Selinger 2001-2007
</metadata>
<g transform="translate(0,468) scale(0.365625,-0.365625)"
fill="#000000" stroke="none">
<path d="M520 1140 l0 -20 -40 0 -40 0 0 -20 0 -20 -20 0 -20 0 0 -20 0 -20
-20 0 -20 0 0 -20 0 -20 -20 0 -20 0 0 -40 0 -40 -20 0 -20 0 0 -320 0 -320
-60 0 -60 0 0 -20 0 -20 -40 0 -40 0 0 -20 0 -20 40 0 40 0 0 -20 0 -20 340 0
340 0 0 20 0 20 40 0 40 0 0 20 0 20 20 0 20 0 0 20 0 20 20 0 20 0 0 20 0 20
20 0 20 0 0 40 0 40 20 0 20 0 0 260 0 260 -20 0 -20 0 0 40 0 40 -20 0 -20 0
0 20 0 20 -20 0 -20 0 0 20 0 20 -20 0 -20 0 0 20 0 20 -40 0 -40 0 0 20 0 20
-160 0 -160 0 0 -20z m320 -40 l0 -20 40 0 40 0 0 -20 0 -20 20 0 20 0 0 -20
0 -20 20 0 20 0 0 -40 0 -40 20 0 20 0 0 -260 0 -260 -20 0 -20 0 0 -40 0 -40
-20 0 -20 0 0 -20 0 -20 -20 0 -20 0 0 -20 0 -20 -40 0 -40 0 0 -20 0 -20
-340 0 -340 0 0 20 0 20 60 0 60 0 0 20 0 20 20 0 20 0 0 320 0 320 20 0 20 0
0 40 0 40 20 0 20 0 0 20 0 20 20 0 20 0 0 20 0 20 40 0 40 0 0 20 0 20 160 0
160 0 0 -20z"/>
<path d="M600 740 l0 -260 60 0 60 0 0 260 0 260 -60 0 -60 0 0 -260z"/>
<path d="M600 340 l0 -60 60 0 60 0 0 60 0 60 -60 0 -60 0 0 -60z"/>
</g>
</svg>
