<?xml version="1.0" standalone="no"?>
<!DOCTYPE svg PUBLIC "-//W3C//DTD SVG 20010904//EN"
 "http://www.w3.org/TR/2001/REC-SVG-20010904/DTD/svg10.dtd">
<svg version="1.0" xmlns="http://www.w3.org/2000/svg"
 width="468pt" height="468pt" viewBox="0 0 468 468"
 preserveAspectRatio="xMidYMid meet">
<metadata>
Created by potrace 1.8, written by Peter Selinger 2001-2007
</metadata>
<g transform="translate(0,468) scale(0.365625,-0.365625)"
fill="#000000" stroke="none">
<path d="M460 1110 l0 -10 -35 0 -35 0 0 -15 0 -15 -10 0 -10 0 0 15 0 15 -15
0 -15 0 0 -11 0 -10 -14 -15 -15 -14 -20 0 -21 0 0 -10 0 -10 -30 0 -30 0 0
-10 0 -10 -25 0 -25 0 0 -25 0 -25 -10 0 -10 0 0 10 0 10 -13 0 -13 0 -14 -20
-14 -20 -18 0 -18 0 0 -15 0 -15 -15 0 -15 0 0 -20 0 -20 -10 0 -10 0 0 -24 0
-24 13 -6 12 -6 -12 -6 -13 -6 0 -9 0 -9 21 0 20 0 15 14 14 15 0 30 0 31 -10
0 -10 0 0 -25 0 -25 -15 0 -15 0 0 25 0 25 14 0 14 0 4 12 5 13 16 -17 17 -17
0 -30 0 -31 10 0 10 0 0 -33 0 -33 -20 -14 -20 -14 0 -8 0 -8 20 0 20 0 0 10
0 10 15 0 15 0 0 35 0 35 10 0 10 0 0 -45 0 -45 -10 0 -10 0 0 -15 0 -15 -25
0 -25 0 0 -10 0 -10 31 0 30 0 15 14 14 15 0 10 0 11 15 0 15 0 0 -25 0 -25
-11 0 -10 0 -15 -14 -14 -15 0 -10 0 -11 25 0 25 0 0 15 0 15 10 0 10 0 0 45
0 45 10 0 10 0 0 -45 0 -45 -10 0 -10 0 0 -25 0 -25 6 0 5 0 15 14 14 15 0 30
0 31 15 0 15 0 0 -45 0 -45 -15 0 -15 0 0 -10 0 -10 25 0 25 0 0 -10 0 -10 21
0 20 0 17 17 17 16 -13 5 -12 4 0 24 0 24 10 0 10 0 0 -25 0 -25 10 0 10 0 0
-35 0 -35 10 0 10 0 0 60 0 60 15 0 15 0 0 -35 0 -35 10 0 10 0 0 20 0 20 10
0 10 0 0 -30 0 -30 -10 0 -10 0 0 -25 0 -25 -240 0 -240 0 0 -240 0 -240 640
0 640 0 0 240 0 240 -230 0 -230 0 0 25 0 25 -10 0 -10 0 0 30 0 30 10 0 10 0
0 -30 0 -30 25 0 25 0 0 -15 0 -15 10 0 10 0 0 15 0 15 24 0 24 0 6 13 6 12 6
-12 6 -13 9 0 9 0 0 20 0 20 -10 0 -10 0 0 35 0 35 10 0 10 0 0 -25 0 -25 15
0 15 0 0 -30 0 -30 20 0 20 0 0 10 0 10 -10 0 -10 0 0 10 0 10 35 0 35 0 0 10
0 10 -25 0 -25 0 0 35 0 35 10 0 10 0 0 -10 0 -10 11 0 10 0 15 -14 14 -15 0
-10 0 -11 25 0 25 0 0 15 0 15 -10 0 -11 0 -24 25 -25 24 0 21 0 20 6 0 5 0
15 -14 14 -15 0 -10 0 -11 15 0 15 0 0 -10 0 -10 20 0 20 0 0 10 0 10 25 0 25
0 0 14 0 14 13 6 12 6 -12 6 -13 6 0 19 0 19 10 0 10 0 0 15 0 15 -10 0 -10 0
0 20 0 20 -15 0 -15 0 0 14 0 14 -12 5 -13 5 15 11 14 10 -22 19 -22 19 0 7 0
7 -14 15 -15 14 -10 0 -11 0 0 10 0 10 -20 0 -20 0 0 15 0 15 -25 0 -25 0 0
10 0 10 -20 0 -20 0 0 10 0 10 -25 0 -25 0 0 10 0 10 -35 0 -35 0 0 15 0 15
-10 0 -10 0 0 -15 0 -15 -10 0 -10 0 0 15 0 15 -24 0 -24 0 -6 13 -6 12 -6
-12 -6 -13 -14 0 -14 0 0 10 0 10 -45 0 -45 0 0 -25 0 -25 24 0 24 0 6 -12 6
-13 6 13 6 12 33 0 33 0 6 -12 6 -13 6 13 6 12 13 0 13 0 5 -12 5 -13 11 15
10 14 19 -22 19 -22 12 0 11 0 0 10 0 10 10 0 10 0 0 -20 0 -20 -10 0 -10 0 0
-15 0 -15 20 0 20 0 0 25 0 25 11 0 10 0 15 -14 14 -15 0 -10 0 -11 20 0 20 0
0 -9 0 -9 -12 -5 -13 -4 9 -9 9 -9 4 13 5 12 10 0 9 0 15 -14 14 -15 0 -9 0
-10 -12 -6 -13 -6 13 -6 12 -6 0 -19 0 -19 -10 0 -10 0 0 -15 0 -15 -11 0 -10
0 -15 -14 -14 -15 0 -19 0 -20 -12 -5 -13 -5 15 -11 14 -10 -7 -7 -7 -7 -19
21 -18 22 -12 0 -11 0 0 -10 0 -10 15 0 15 0 0 -10 0 -10 -15 0 -15 0 0 -25 0
-25 -10 0 -10 0 0 11 0 10 -14 15 -15 14 -9 0 -10 0 -5 13 -4 12 -9 -8 -8 -8
14 -10 15 -11 -12 -5 -13 -5 0 -14 0 -14 10 0 10 0 0 15 0 15 15 0 15 0 0 -15
0 -15 -15 0 -15 0 0 -10 0 -10 -19 0 -19 0 -5 13 -4 12 -8 -7 -8 -8 21 -19 22
-18 0 -32 0 -31 -10 0 -10 0 0 35 0 35 -24 0 -24 0 -6 13 -6 12 -6 -12 -6 -13
-44 0 -44 0 0 9 0 9 13 5 12 4 -7 8 -8 8 -19 -21 -18 -22 -12 0 -11 0 0 20 0
20 -20 0 -20 0 0 -9 0 -9 13 -5 12 -4 -9 -9 -9 -9 -4 13 -5 12 -13 0 -13 0 -5
-12 -4 -13 -22 24 -21 24 -7 -7 -7 -7 14 -9 14 -9 -8 -8 -9 -8 -4 13 -5 12
-10 0 -9 0 -15 14 -14 15 0 10 0 11 -10 0 -10 0 0 -14 0 -14 13 -5 12 -4 -9
-9 -9 -9 -4 13 -5 12 -13 0 -13 0 -6 -12 -6 -13 -6 13 -6 12 -19 0 -19 0 0 14
0 14 13 5 12 4 -9 9 -9 9 -4 -12 -5 -13 -10 0 -9 0 -16 16 -16 16 14 8 13 9
-6 7 -7 6 -18 -18 -18 -17 13 -5 12 -4 0 -9 0 -9 -25 0 -25 0 0 20 0 20 -10 0
-10 0 0 25 0 25 10 0 10 0 0 -15 0 -15 15 0 15 0 0 15 0 15 -14 0 -14 0 -4 12
-5 13 -16 -17 -17 -17 0 -10 0 -11 -25 0 -25 0 0 15 0 15 15 0 15 0 0 20 0 20
-24 0 -24 0 -5 -12 -4 -13 -9 9 -9 9 13 4 12 5 0 23 0 23 13 5 12 5 -15 12
-15 12 13 5 12 5 0 14 0 14 15 0 15 0 0 -15 0 -15 10 0 10 0 0 14 0 14 -12 5
-13 5 15 12 15 12 -12 5 -13 5 0 14 0 14 10 0 10 0 0 -15 0 -15 34 0 34 0 5
-12 4 -13 9 9 9 9 -12 4 -13 5 0 24 0 24 10 0 10 0 0 -10 0 -10 23 0 23 0 14
20 14 20 18 0 18 0 0 10 0 10 60 0 60 0 0 15 0 15 10 0 10 0 0 -35 0 -35 10 0
10 0 0 20 0 20 25 0 25 0 0 25 0 25 -24 0 -24 0 -5 -12 -5 -13 -11 15 -11 15
-11 -15 -11 -15 -5 13 -5 12 -34 0 -34 0 0 -10z m270 -25 l0 -15 -10 0 -10 0
0 15 0 15 10 0 10 0 0 -15z m-360 -45 l0 -10 -15 0 -15 0 0 10 0 10 15 0 15 0
0 -10z m-210 -114 l0 -14 -12 -5 -13 -5 14 -10 14 -10 -16 -16 -16 -16 -10 0
-11 0 0 10 0 10 15 0 15 0 0 10 0 10 -15 0 -15 0 0 10 0 10 15 0 15 0 0 15 0
15 10 0 10 0 0 -14z m1010 -1 l0 -15 -15 0 -15 0 0 15 0 15 15 0 15 0 0 -15z
m20 -41 l0 -5 -14 -15 -15 -14 -10 0 -11 0 0 10 0 10 15 0 15 0 0 10 0 10 10
0 10 0 0 -6z m-70 -94 l0 -10 -10 0 -10 0 0 10 0 10 10 0 10 0 0 -10z m90 -25
l0 -15 -10 0 -10 0 0 15 0 15 10 0 10 0 0 -15z m50 0 l0 -15 -15 0 -15 0 0 15
0 15 15 0 15 0 0 -15z m-160 -25 l0 -10 -15 0 -15 0 0 10 0 10 15 0 15 0 0
-10z m-890 -20 l0 -10 -15 0 -15 0 0 10 0 10 15 0 15 0 0 -10z m980 -10 l0
-20 10 0 10 0 0 20 0 20 10 0 10 0 0 -10 0 -10 15 0 15 0 0 -10 0 -10 -25 0
-25 0 0 -15 0 -15 -10 0 -10 0 0 11 0 10 -14 15 -15 14 -10 0 -11 0 0 10 0 10
25 0 25 0 0 -20z m-850 -35 l0 -15 -10 0 -10 0 0 15 0 15 10 0 10 0 0 -15z
m690 -35 l0 -20 -10 0 -10 0 0 20 0 20 10 0 10 0 0 -20z m-690 -45 l0 -45 -10
0 -10 0 0 45 0 45 10 0 10 0 0 -45z m600 -10 l0 -35 -15 0 -15 0 0 35 0 35 15
0 15 0 0 -35z m-370 -25 l0 -30 -10 0 -10 0 0 -25 0 -25 -25 0 -25 0 0 10 0
10 15 0 15 0 0 45 0 45 20 0 20 0 0 -30z m50 -15 l0 -45 10 0 10 0 0 -10 0
-10 -35 0 -35 0 0 10 0 10 10 0 10 0 0 45 0 45 15 0 15 0 0 -45z m70 25 l0
-20 -15 0 -15 0 0 -10 0 -10 -10 0 -10 0 0 30 0 30 25 0 25 0 0 -20z m40 -35
l0 -55 -35 0 -35 0 0 10 0 10 15 0 15 0 0 15 0 15 10 0 10 0 0 30 0 30 10 0
10 0 0 -55z m50 11 l0 -44 13 -5 12 -4 -9 -9 -9 -9 -4 13 -5 12 -14 0 -14 0 0
45 0 45 15 0 15 0 0 -44z"/>
<path d="M500 1040 l0 -10 15 0 15 0 0 10 0 10 -15 0 -15 0 0 -10z"/>
<path d="M640 1040 l0 -10 10 0 10 0 0 10 0 10 -10 0 -10 0 0 -10z"/>
<path d="M423 1015 l-13 -14 0 -11 0 -10 10 0 10 0 0 15 0 15 15 0 15 0 0 10
0 10 -12 0 -13 -1 -12 -14z"/>
<path d="M730 1020 l0 -10 10 0 10 0 0 10 0 10 -10 0 -10 0 0 -10z"/>
<path d="M820 1020 l0 -10 15 0 15 0 0 10 0 10 -15 0 -15 0 0 -10z"/>
<path d="M480 995 l0 -15 10 0 10 0 0 15 0 15 -10 0 -10 0 0 -15z"/>
<path d="M640 995 l0 -15 10 0 10 0 0 15 0 15 -10 0 -10 0 0 -15z"/>
<path d="M870 970 l0 -10 10 0 10 0 0 10 0 10 -10 0 -10 0 0 -10z"/>
<path d="M270 925 l0 -15 15 0 15 0 0 15 0 15 -15 0 -15 0 0 -15z"/>
<path d="M370 925 l0 -15 10 0 10 0 0 15 0 15 -10 0 -10 0 0 -15z"/>
<path d="M1010 925 l0 -15 10 0 10 0 0 15 0 15 -10 0 -10 0 0 -15z"/>
<path d="M250 860 l0 -10 10 0 10 0 0 10 0 10 -10 0 -10 0 0 -10z"/>
<path d="M1010 860 l0 -10 10 0 10 0 0 10 0 10 -10 0 -10 0 0 -10z"/>
<path d="M1070 860 l0 -10 15 0 15 0 0 10 0 10 -15 0 -15 0 0 -10z"/>
<path d="M370 810 l0 -10 10 0 10 0 0 10 0 10 -10 0 -10 0 0 -10z"/>
<path d="M63 785 l-13 -14 0 -11 0 -10 -15 0 -15 0 0 -10 0 -10 21 0 20 0 15
14 14 15 0 20 0 21 -7 0 -8 -1 -12 -14z"/>
<path d="M960 790 l0 -10 10 0 10 0 0 10 0 10 -10 0 -10 0 0 -10z"/>
<path d="M410 740 l0 -10 10 0 10 0 0 10 0 10 -10 0 -10 0 0 -10z"/>
<path d="M410 700 l0 -10 10 0 10 0 0 10 0 10 -10 0 -10 0 0 -10z"/>
<path d="M500 700 l0 -10 15 0 15 0 0 10 0 10 -15 0 -15 0 0 -10z"/>
<path d="M550 700 l0 -10 10 0 10 0 0 10 0 10 -10 0 -10 0 0 -10z"/>
<path d="M690 700 l0 -10 10 0 10 0 0 10 0 10 -10 0 -10 0 0 -10z"/>
<path d="M780 700 l0 -10 10 0 10 0 0 10 0 10 -10 0 -10 0 0 -10z"/>
<path d="M820 700 l0 -10 15 0 15 0 0 10 0 10 -15 0 -15 0 0 -10z"/>
<path d="M750 650 l0 -10 15 0 15 0 0 10 0 10 -15 0 -15 0 0 -10z"/>
</g>
</svg>
