<?xml version="1.0" standalone="no"?>
<!DOCTYPE svg PUBLIC "-//W3C//DTD SVG 20010904//EN"
 "http://www.w3.org/TR/2001/REC-SVG-20010904/DTD/svg10.dtd">
<svg version="1.0" xmlns="http://www.w3.org/2000/svg"
 width="468pt" height="468pt" viewBox="0 0 468 468"
 preserveAspectRatio="xMidYMid meet">
<metadata>
Created by potrace 1.8, written by Peter Selinger 2001-2007
</metadata>
<g transform="translate(0,468) scale(0.365625,-0.365625)"
fill="#000000" stroke="none">
<path d="M190 1240 l0 -10 10 0 10 0 0 -15 0 -15 30 0 30 0 0 -15 0 -15 25 0
25 0 0 -10 0 -10 25 0 25 0 0 -15 0 -15 30 0 30 0 0 -15 0 -15 25 0 25 0 0
-10 0 -10 25 0 25 0 0 -15 0 -15 -50 0 -50 0 0 -15 0 -15 200 0 200 0 0 -10 0
-10 25 0 25 0 0 -15 0 -15 25 0 25 0 0 -15 0 -15 30 0 30 0 0 -10 0 -10 25 0
25 0 0 -40 0 -40 -25 0 -25 0 0 10 0 10 -30 0 -30 0 0 15 0 15 -25 0 -25 0 0
15 0 15 -40 0 -40 0 0 10 0 10 -15 0 -15 0 0 -10 0 -10 15 0 15 0 0 -15 0 -15
40 0 40 0 0 -15 0 -15 25 0 25 0 0 -10 0 -10 30 0 30 0 0 -26 0 -25 14 -15 15
-14 10 0 11 0 0 -30 0 -30 -25 0 -25 0 0 15 0 15 -15 0 -15 0 0 15 0 15 -25 0
-25 0 0 10 0 10 -15 0 -15 0 0 -10 0 -10 15 0 15 0 0 -15 0 -15 25 0 25 0 0
-15 0 -15 11 0 10 0 15 -14 14 -15 0 -25 0 -26 -25 0 -25 0 0 15 0 15 -15 0
-15 0 0 15 0 15 -25 0 -25 0 0 10 0 10 -25 0 -25 0 0 -10 0 -10 25 0 25 0 0
-15 0 -15 25 0 25 0 0 -11 0 -10 -14 -15 -15 -14 -35 0 -36 0 0 10 0 10 -110
0 -110 0 0 -10 0 -10 -25 0 -25 0 0 -15 0 -15 -25 0 -25 0 0 -15 0 -15 -15 0
-15 0 0 -10 0 -10 -25 0 -25 0 0 -15 0 -15 -30 0 -30 0 0 -15 0 -15 30 0 30 0
0 15 0 15 25 0 25 0 0 15 0 15 15 0 15 0 0 10 0 10 25 0 25 0 0 15 0 15 25 0
25 0 0 15 0 15 110 0 110 0 0 -15 0 -15 40 0 40 0 0 11 0 10 14 15 15 14 10 0
11 0 0 -10 0 -10 25 0 25 0 0 10 0 10 15 0 15 0 0 30 0 30 15 0 15 0 0 40 0
40 10 0 10 0 0 -15 0 -15 30 0 30 0 0 -11 0 -10 14 -15 15 -14 10 0 11 0 0
-15 0 -15 15 0 15 0 0 -11 0 -10 14 -15 15 -14 10 0 11 0 0 50 0 50 -25 0 -25
0 0 15 0 15 -30 0 -30 0 0 15 0 15 -25 0 -25 0 0 10 0 10 -55 0 -55 0 0 15 0
15 15 0 15 0 0 15 0 15 15 0 15 0 0 40 0 40 -15 0 -15 0 0 10 0 10 -25 0 -25
0 0 15 0 15 -30 0 -30 0 0 15 0 15 -25 0 -25 0 0 10 0 10 -25 0 -25 0 0 15 0
15 -110 0 -110 0 0 15 0 15 -25 0 -25 0 0 10 0 10 -25 0 -25 0 0 15 0 15 -30
0 -30 0 0 15 0 15 -25 0 -25 0 0 10 0 10 -25 0 -25 0 0 15 0 15 -30 0 -30 0 0
15 0 15 -25 0 -25 0 0 10 0 10 -25 0 -25 0 0 -10z"/>
<path d="M363 995 l-13 -14 0 -11 0 -10 -15 0 -15 0 0 -25 0 -25 -15 0 -15 0
0 -15 0 -15 -10 0 -10 0 0 -15 0 -15 -15 0 -15 0 0 -25 0 -25 -15 0 -15 0 0
-11 0 -10 -14 -15 -15 -14 -10 0 -11 0 0 -30 0 -30 -15 0 -15 0 0 -10 0 -10
15 0 15 0 0 10 0 10 15 0 15 0 0 26 0 25 14 15 15 14 10 0 11 0 0 15 0 15 15
0 15 0 0 25 0 25 10 0 10 0 0 15 0 15 15 0 15 0 0 15 0 15 15 0 15 0 0 25 0
25 10 0 10 0 0 15 0 15 15 0 15 0 0 10 0 10 -12 0 -13 -1 -12 -14z"/>
<path d="M480 945 l0 -15 14 0 14 0 5 -12 4 -13 9 9 9 9 -12 4 -13 5 0 14 0
14 -15 0 -15 0 0 -15z"/>
<path d="M590 920 l0 -10 80 0 80 0 0 10 0 10 -80 0 -80 0 0 -10z"/>
<path d="M610 815 l0 -15 15 0 15 0 0 15 0 15 -15 0 -15 0 0 -15z"/>
<path d="M670 815 l0 -15 65 0 65 0 0 15 0 15 -65 0 -65 0 0 -15z"/>
<path d="M830 785 l0 -15 10 0 10 0 0 15 0 15 -10 0 -10 0 0 -15z"/>
<path d="M670 705 l0 -15 65 0 65 0 0 15 0 15 -65 0 -65 0 0 -15z"/>
<path d="M80 625 l0 -15 -11 0 -10 0 -15 -14 -14 -15 0 -10 0 -11 -15 0 -15 0
0 -25 0 -25 15 0 15 0 0 -15 0 -15 10 0 10 0 0 -15 0 -15 15 0 15 0 0 -10 0
-10 15 0 15 0 0 -15 0 -15 10 0 10 0 0 -15 0 -15 15 0 15 0 0 -10 0 -10 15 0
15 0 0 -15 0 -15 -95 0 -95 0 0 -160 0 -160 640 0 640 0 0 160 0 160 -520 0
-520 0 0 15 0 15 11 0 10 0 15 14 14 15 0 10 0 11 15 0 15 0 0 15 0 15 -15 0
-15 0 0 -15 0 -15 -10 0 -10 0 0 -15 0 -15 -15 0 -15 0 0 -10 0 -10 -25 0 -25
0 0 10 0 10 -15 0 -15 0 0 15 0 15 -15 0 -15 0 0 11 0 10 -14 15 -15 14 -10 0
-11 0 0 15 0 15 -15 0 -15 0 0 15 0 15 -10 0 -10 0 0 25 0 25 10 0 10 0 0 15
0 15 15 0 15 0 0 10 0 10 15 0 15 0 0 15 0 15 -15 0 -15 0 0 -15z"/>
<path d="M130 625 l0 -15 15 0 15 0 0 -10 0 -10 15 0 15 0 0 -15 0 -15 10 0
10 0 0 -15 0 -15 15 0 15 0 0 -10 0 -10 15 0 15 0 0 -15 0 -15 10 0 10 0 0
-15 0 -15 15 0 15 0 0 15 0 15 -15 0 -15 0 0 11 0 10 -14 15 -15 14 -10 0 -11
0 0 15 0 15 -15 0 -15 0 0 11 0 10 -14 15 -15 14 -10 0 -11 0 0 15 0 15 -15 0
-15 0 0 -15z"/>
<path d="M210 440 l0 -10 15 0 15 0 0 10 0 10 -15 0 -15 0 0 -10z"/>
</g>
</svg>
