<?xml version="1.0" standalone="no"?>
<!DOCTYPE svg PUBLIC "-//W3C//DTD SVG 20010904//EN"
 "http://www.w3.org/TR/2001/REC-SVG-20010904/DTD/svg10.dtd">
<svg version="1.0" xmlns="http://www.w3.org/2000/svg"
 width="468pt" height="468pt" viewBox="0 0 468 468"
 preserveAspectRatio="xMidYMid meet">
<metadata>
Created by potrace 1.8, written by Peter Selinger 2001-2007
</metadata>
<g transform="translate(0,468) scale(0.365625,-0.365625)"
fill="#000000" stroke="none">
<path d="M598 1274 l32 -5 0 -10 0 -9 28 -1 27 -2 -22 -4 -23 -4 0 -8 0 -8
-122 -6 -122 -7 -5 -9 -6 -9 -20 -5 -20 -5 23 -1 22 -1 0 -9 0 -9 60 -7 60 -7
0 -9 0 -9 15 0 16 0 6 -16 6 -15 -20 -18 -19 -18 -14 -6 -15 -5 13 -1 13 -1
15 -14 14 -15 0 -6 0 -6 -27 -26 -28 -26 19 6 18 7 42 -12 41 -13 18 -15 17
-14 0 -13 0 -12 -16 -16 -16 -16 0 -25 0 -24 -14 0 -14 0 -1 13 -1 12 1 13 2
12 -16 0 -15 0 0 -14 0 -15 -30 1 -30 1 0 14 0 13 14 0 14 0 5 -12 5 -13 10
14 10 13 -5 19 -5 19 -9 0 -9 0 0 10 0 10 25 0 25 0 0 -14 0 -14 -12 -5 -13
-4 8 -9 8 -8 9 14 10 15 0 -17 0 -18 10 0 10 0 0 15 0 14 18 10 17 11 -15 10
-15 11 -92 -5 -93 -5 0 23 0 23 -25 28 -26 27 -39 5 -40 6 0 8 0 9 -54 0 -54
0 -16 6 -16 6 0 22 0 22 -35 13 -35 12 -10 -6 -10 -6 0 -15 0 -14 -10 0 -10 0
0 -20 0 -20 9 0 9 0 7 27 7 28 10 6 11 7 14 -5 13 -5 0 -9 0 -9 -12 0 -13 0
-15 -10 -15 -10 15 -10 15 -10 -17 0 -18 0 0 -12 0 -13 9 -13 8 -14 42 -5 41
-6 -6 17 -6 16 -9 0 -9 0 0 -10 0 -10 -15 0 -15 0 0 10 0 10 14 0 15 0 15 16
16 15 15 -14 15 -15 -9 -4 -8 -3 -7 -22 -7 -23 53 0 53 0 23 -6 22 -6 0 -14 0
-14 -30 -6 -30 -6 0 -8 0 -7 -51 -7 -50 -7 7 -22 7 -22 -1 -17 -1 -18 15 0 14
0 0 -10 0 -10 -15 0 -15 0 0 12 0 11 -20 -23 -20 -23 0 -3 0 -4 46 5 46 4 6 6
6 6 -13 8 -14 9 24 7 24 8 5 7 5 8 43 5 43 4 12 16 12 15 24 -1 24 -2 5 -12 4
-13 -20 0 -20 0 -5 13 -4 12 -7 -7 -8 -6 22 -22 22 -22 9 13 9 14 0 -12 0 -13
10 0 10 0 0 15 0 15 15 0 15 0 1 13 0 12 10 -24 9 -24 -5 -6 -6 -5 -9 14 -9
15 -13 -16 -13 -17 -32 -5 -32 -6 -20 -20 -20 -20 -7 -26 -6 -25 15 0 15 0 5
30 6 29 26 7 26 6 4 -4 4 -4 -10 -14 -9 -15 -11 15 -11 15 6 -17 5 -17 -14
-15 -15 -15 0 -15 0 -16 -12 0 -13 0 -12 8 -13 8 3 42 2 42 18 0 17 0 0 10 0
11 23 10 22 9 -25 -3 -25 -4 -15 -4 -15 -4 3 19 3 18 -22 -21 -23 -21 -8 0 -8
0 0 -10 0 -10 13 0 12 0 15 -10 15 -9 -17 -13 -18 -13 6 -22 6 -22 19 -6 19
-6 0 -10 0 -9 14 0 14 0 6 13 6 12 6 -12 6 -13 14 0 14 0 0 6 0 7 -16 12 -16
12 6 21 7 22 10 0 9 0 0 -25 0 -25 15 0 15 0 0 10 0 10 -11 0 -12 0 27 25 26
24 0 4 0 5 -25 6 -25 6 0 9 0 9 29 7 29 6 35 -6 34 -7 1 -28 1 -28 -20 5 -19
5 0 15 0 15 -12 -5 -13 -4 1 -16 2 -17 -9 6 -9 5 0 -15 0 -16 -10 0 -10 0 0
-13 0 -13 -32 -27 -31 -28 -9 13 -10 13 -5 -12 -5 -13 -16 9 -17 8 -21 -2 -21
-1 4 15 4 16 -33 0 -33 0 0 14 0 14 13 5 12 4 0 -16 0 -16 15 0 15 0 0 5 0 5
-21 21 -22 22 -9 -17 -9 -16 -10 0 -10 0 -15 -14 -14 -14 13 -5 12 -4 -8 -9
-8 -8 -10 14 -9 15 4 18 4 17 -9 -6 -9 -5 0 15 0 15 9 6 9 5 15 -15 16 -15 10
0 11 0 0 9 0 9 -25 6 -25 6 0 10 0 10 -10 0 -10 0 0 -15 0 -15 -10 0 -9 0 -10
17 -9 18 -8 -8 -8 -8 11 -7 11 -7 2 -15 2 -15 -1 -18 -1 -18 -22 7 -23 7 -3 8
-4 9 -12 0 -12 0 -17 20 -17 20 0 10 0 10 5 0 6 0 22 -23 22 -23 15 -6 16 -6
0 17 0 16 -24 2 -23 1 -7 7 -7 8 13 4 12 5 0 18 0 18 20 -5 20 -5 0 -9 0 -9
10 0 10 0 0 15 0 14 18 10 17 11 -15 10 -15 10 13 0 12 0 0 16 0 17 -37 -6
-38 -7 -3 -10 -4 -10 -11 0 -11 0 -23 -27 -23 -26 0 -27 0 -27 24 -26 24 -26
26 -7 26 -6 0 -8 0 -7 83 -11 82 -12 43 0 42 0 0 -11 0 -10 -15 -16 -16 -15 3
-17 3 -16 128 -3 127 -3 0 -9 0 -10 -290 0 -290 0 0 -260 0 -260 640 0 640 0
0 260 0 260 -305 0 -305 0 0 11 0 10 -12 13 -13 12 -22 6 -22 6 6 -14 5 -13
19 -6 19 -6 0 -10 0 -9 -9 0 -9 0 -4 10 -3 10 -70 7 -70 6 -12 16 -11 16 -8
-8 -7 -7 11 0 12 0 0 -10 0 -10 -15 0 -15 0 0 11 0 10 -14 15 -15 14 -10 0
-11 0 0 -10 0 -10 15 0 15 0 0 -15 0 -15 -45 0 -45 0 0 11 0 10 17 17 17 17
22 2 22 2 21 18 21 17 0 13 0 13 10 0 10 0 0 16 0 16 20 5 20 5 0 9 0 9 15 0
15 0 0 -10 0 -10 -12 0 -13 0 15 -10 15 -10 -15 -10 -15 -10 13 0 12 0 0 -10
0 -10 -15 0 -15 0 0 25 0 25 -16 0 -16 0 5 -12 4 -13 -8 -17 -9 -16 22 6 21 5
-19 -19 -19 -20 -3 8 -4 8 -8 0 -8 0 -6 -16 -6 -15 12 7 11 7 12 -17 12 -16
40 -4 40 -4 18 20 17 20 46 -5 46 -5 4 -11 4 -11 20 0 20 0 -6 15 -5 14 16 17
17 16 -35 -6 -34 -6 25 10 24 11 23 -12 24 -13 5 -23 6 -22 14 14 14 14 0 9 0
10 -12 5 -13 5 17 1 17 1 15 -16 16 -15 0 13 0 14 -22 19 -23 20 -75 -1 -74
-2 -4 -11 -4 -11 -14 0 -14 0 0 10 0 10 -13 0 -13 0 -17 20 -17 20 10 0 10 0
0 16 0 15 48 -7 47 -7 6 -8 5 -9 77 -6 77 -7 0 -8 0 -7 29 -7 29 -6 6 -15 5
-14 16 0 15 0 0 -14 0 -15 -17 -4 -18 -5 33 -1 32 -1 0 -9 0 -9 -12 -6 -13 -6
42 4 42 4 18 18 18 18 3 -17 3 -17 10 0 9 0 6 26 6 25 -21 20 -22 21 -54 5
-55 6 0 7 0 8 45 6 45 7 0 10 0 9 10 0 10 0 6 -25 6 -24 19 -6 19 -6 0 -10 0
-9 15 0 15 0 0 10 0 11 -15 5 -15 6 0 9 0 9 11 0 10 0 15 -14 14 -15 0 -13 0
-13 28 0 28 0 17 17 17 17 0 15 0 16 -15 0 -15 0 0 9 0 8 -50 5 -50 5 -6 6 -6
6 28 26 28 26 1 58 0 57 -17 18 -18 17 0 7 0 7 -59 0 -58 1 -17 16 -16 17 0
10 0 11 25 0 25 0 0 -10 0 -10 19 0 20 0 16 -17 17 -16 6 10 7 10 23 7 22 7 0
10 0 9 -15 0 -15 0 0 -10 0 -10 -16 0 -16 0 -30 30 -30 30 -14 0 -14 0 0 9 0
9 -34 6 -34 7 -5 13 -6 14 6 21 5 21 9 0 9 0 20 20 20 20 0 6 0 5 -12 13 -13
12 -17 7 -18 6 1 13 1 13 5 -12 5 -13 23 0 24 0 8 -14 8 -15 45 -5 45 -5 1 0
2 -1 -2 -44 -1 -44 -7 5 -8 4 0 10 0 10 -18 19 -18 19 -22 -6 -22 -5 0 -8 0
-9 -17 -4 -18 -5 18 -1 17 -1 0 -10 0 -10 17 0 17 0 -12 -12 -12 -12 -12 12
-12 12 -8 0 -8 0 21 -21 22 -22 9 17 9 16 24 0 25 0 0 -17 0 -17 15 20 15 19
15 -19 15 -20 7 7 7 7 -20 16 -19 15 22 -10 21 -11 5 -12 4 -13 9 8 9 9 -18 9
-17 10 0 14 0 14 18 10 17 10 -20 15 -20 16 18 14 17 13 0 7 0 6 -15 0 -15 0
0 15 0 15 -15 0 -16 0 2 -12 1 -13 -1 -12 -1 -13 -15 0 -15 0 0 9 0 10 13 4
12 4 -18 -3 -17 -2 -14 14 -15 14 -7 0 -7 0 -13 -17 -14 -18 -13 16 -12 16
-43 8 -42 7 0 -11 0 -10 24 -25 23 -26 12 0 13 0 -4 -12 -4 -12 -12 -4 -12 -4
0 16 0 16 -12 0 -13 0 -22 6 -23 6 0 -31 0 -31 -19 0 -19 0 -4 10 -3 10 -62 6
-63 7 0 8 0 8 -42 4 -43 4 80 -4 80 -5 3 -9 4 -9 24 0 24 0 0 5 0 5 -20 20
-19 19 -28 7 -28 7 -6 9 -6 9 -94 4 -94 3 33 -4z m42 -73 l0 -10 80 -7 80 -7
0 -8 0 -8 33 -3 32 -3 3 -21 3 -21 -51 -52 -50 -51 0 -25 0 -25 10 0 9 0 10
-17 9 -18 -48 -1 -48 0 -17 -17 -16 -17 -15 0 -15 0 14 15 15 14 26 7 26 6 0
9 0 9 18 1 17 1 -12 5 -13 5 0 19 0 19 10 0 10 0 0 15 0 15 -42 -6 -43 -7 -5
-8 -6 -8 -42 -7 -42 -7 0 -8 0 -9 -20 0 -20 0 0 9 0 10 45 7 45 6 0 9 0 8 50
7 50 7 0 8 0 9 26 0 27 0 23 26 24 25 0 9 0 8 -42 -5 -43 -6 -5 -8 -5 -7 -63
-8 -62 -7 0 -8 0 -9 -35 0 -35 0 0 9 0 9 55 7 55 6 0 8 0 7 91 11 91 12 6 5 5
6 -5 6 -6 5 -58 6 -59 6 -7 11 -7 11 -143 0 -143 0 38 3 37 3 0 10 0 9 75 0
75 0 0 -9z m320 -15 l0 -3 -26 -28 -25 -27 -6 5 -5 6 27 25 28 26 3 0 4 0 0
-4z m225 -17 l0 -14 -17 -3 -16 -3 5 21 6 21 11 -4 11 -4 0 -14z m-35 1 l0
-10 -10 0 -10 0 0 10 0 10 10 0 10 0 0 -10z m-200 -26 l0 -7 -16 -11 -15 -12
6 -27 7 -27 9 0 9 0 0 12 0 12 13 -19 14 -18 11 7 11 7 26 -7 25 -6 0 -9 0 -9
-25 0 -25 0 0 13 0 12 -10 -15 -10 -15 -10 15 -10 15 0 -13 0 -13 14 -5 15 -6
6 -29 7 -29 9 0 9 0 0 -15 0 -15 -9 0 -9 0 -6 15 -5 15 -11 0 -10 0 0 -15 0
-15 14 0 14 0 -5 -20 -5 -20 -14 0 -14 0 0 -10 0 -10 15 0 15 0 0 10 0 10 15
0 15 0 0 -11 0 -10 17 16 16 17 30 -6 30 -6 33 0 34 0 0 -25 0 -25 -30 0 -30
0 0 9 0 9 -27 7 -28 7 -7 11 -8 12 0 -27 0 -28 -9 0 -9 0 -5 -20 -5 -20 -16 0
-15 0 5 15 6 15 9 0 9 0 0 15 0 15 -10 0 -10 0 0 -12 0 -13 -10 -15 -10 -15
-10 15 -10 15 0 -12 0 -12 17 -9 17 -10 -31 2 -32 1 -8 8 -7 8 17 -7 17 -6 0
15 0 15 -25 6 -25 6 0 10 0 9 22 7 23 7 12 16 12 16 -6 40 -5 40 -3 29 -3 29
-16 9 -16 9 0 14 0 15 -10 0 -10 0 0 10 0 10 18 19 17 19 8 1 7 1 0 -6z m200
-4 l0 -10 -10 0 -10 0 0 10 0 10 10 0 10 0 0 -10z m-1008 -80 l11 0 -5 -5 -6
-6 -26 7 -26 6 0 8 0 9 18 3 17 4 3 -13 3 -13 11 0z m754 18 l7 -11 -16 -12
-17 -12 0 -6 0 -5 30 -7 30 -7 0 -10 0 -10 -20 -5 -20 -5 0 -8 0 -8 30 -7 30
-7 -14 -14 -15 -14 -11 0 -11 0 17 -17 17 -17 -12 -4 -12 -4 -20 20 -19 21 0
11 0 11 -16 -15 -15 -16 -4 0 -4 0 -21 22 -20 22 0 26 0 27 35 36 36 37 14 0
14 0 7 -12z m-776 -37 l0 -9 -16 -6 -16 -6 -9 0 -10 0 13 15 13 14 13 1 12 0
0 -9z m228 -32 l4 -9 12 0 12 0 17 -20 17 -20 0 -15 0 -15 -9 0 -9 0 -5 -21
-6 -22 -15 6 -16 6 0 -13 0 -14 -24 -6 -24 -6 -19 7 -18 7 -7 10 -8 11 0 -13
0 -13 15 -5 15 -6 0 -8 0 -8 -27 -7 -28 -7 -6 -10 -7 -10 -21 21 -21 21 0 6 0
5 14 15 15 14 10 0 11 0 0 -6 0 -7 -17 -12 -16 -12 7 -11 7 -12 12 0 12 0 -15
10 -14 9 8 8 9 8 4 -12 5 -13 14 0 14 0 0 9 0 10 -17 3 -17 3 17 16 16 16 27
-3 27 -3 7 -11 8 -12 0 27 0 27 -9 -13 -8 -13 -7 7 -8 7 19 14 18 13 -6 17 -6
16 -16 0 -15 0 0 15 0 15 5 0 4 0 18 -20 19 -19 0 19 0 20 -18 0 -18 0 0 13 0
12 -9 -13 -8 -13 -44 -4 -44 -3 23 5 22 4 0 9 0 9 -17 4 -18 5 75 -5 75 -5 3
-9z m804 -73 l8 -11 0 -12 0 -13 -35 0 -35 0 0 9 0 9 -30 6 -30 6 0 14 0 15
58 -6 57 -6 7 -11z m-637 -37 l7 -21 -6 -5 -5 -5 -47 -2 -47 -1 -4 11 -4 12
28 7 27 6 14 -18 14 -18 -6 28 -6 27 14 0 15 0 6 -21z m85 6 l0 -15 -10 0 -10
0 0 15 0 15 10 0 10 0 0 -15z m230 5 l0 -10 -10 0 -10 0 0 10 0 10 10 0 10 0
0 -10z m200 -5 l0 -14 -15 5 -15 6 0 9 0 9 15 0 15 0 0 -15z m-142 -15 l12 0
0 -15 0 -15 -20 -17 -20 -17 0 -8 0 -8 14 0 14 0 5 8 4 7 -3 -13 -4 -13 15 -5
15 -6 0 -23 0 -23 -7 -5 -8 -4 13 3 12 3 0 -13 0 -14 15 -6 15 -5 0 -13 0 -13
-10 15 -9 14 -8 -7 -7 -8 12 -8 12 -7 47 -3 47 -2 11 -16 12 -16 9 6 10 6 14
-11 15 -10 -17 6 -18 5 0 -13 0 -14 -25 -6 -25 -6 0 -10 0 -10 -15 0 -15 0 0
5 0 6 25 23 25 24 -22 5 -22 6 -5 -4 -4 -5 12 0 12 0 -15 -15 -15 -15 -10 0
-11 0 0 9 0 9 13 5 12 4 -32 7 -32 7 -6 20 -6 19 6 10 6 10 -5 0 -5 0 -15 -16
-16 -15 0 10 0 11 -40 6 -40 7 0 14 0 15 14 -5 13 -5 -3 25 -3 26 -13 8 -13 8
0 18 0 18 -20 2 -20 3 13 -6 12 -6 0 -13 0 -13 -16 -6 -16 -6 -25 6 -25 7 13
8 13 8 -7 8 -8 7 -7 -9 -7 -10 -22 -12 -22 -13 -16 6 -15 6 0 14 0 14 -12 0
-11 0 23 20 23 20 16 0 16 0 22 -6 22 -6 3 -16 3 -16 17 17 17 17 9 0 9 0 24
21 23 20 21 -5 20 -6 13 0z m-758 -40 l0 -10 -17 -1 -18 -1 18 -5 17 -4 0 -10
0 -9 -17 -2 -18 -1 -15 -3 -15 -2 -12 -1 -13 -1 0 -15 0 -15 -15 0 -15 0 0 10
0 10 9 0 10 0 6 19 6 20 29 6 30 7 0 9 0 9 15 0 15 0 0 -10z m950 0 l0 -10 40
-6 40 -7 0 -19 0 -20 -47 7 -48 7 -7 6 -7 7 5 23 6 22 9 0 9 0 0 -10z m-537
-47 l-13 -5 -12 5 -13 5 25 0 25 0 -12 -5z m-233 -18 l0 -15 -10 0 -10 0 0 15
0 15 10 0 10 0 0 -15z m310 5 l15 -10 -15 -10 -15 -10 -12 0 -13 0 -6 -39 -6
-40 -13 -5 -12 -4 3 26 3 27 10 3 11 4 0 13 0 13 -7 5 -8 4 13 -3 12 -3 0 19
0 20 13 0 12 0 15 -10z m118 -11 l4 -9 10 0 9 0 16 15 15 15 9 -5 9 -6 -1 -17
0 -17 -9 20 -9 20 0 -19 -1 -19 -41 7 -41 7 -16 16 -17 16 30 -7 30 -7 3 -10z
m374 -3 l7 -11 -14 -3 -15 -3 0 -10 0 -9 -30 0 -31 0 -5 -15 -6 -15 -28 0 -29
0 -7 23 -7 22 -11 7 -11 8 33 0 33 0 5 -15 6 -15 14 0 14 0 0 10 0 9 -17 10
-18 11 15 10 15 10 40 -6 40 -6 7 -12z m-438 -21 l-6 -15 -14 0 -14 0 0 15 0
15 20 0 19 0 -5 -15z m-234 -4 l0 -9 -14 -5 -15 -6 6 15 5 14 9 0 9 0 0 -9z
m290 -6 l0 -15 -15 0 -15 0 0 15 0 15 15 0 15 0 0 -15z m64 -20 l-6 -15 -14 0
-14 0 0 15 0 15 20 0 19 0 -5 -15z m-644 -40 l0 -15 -10 0 -10 0 0 15 0 15 10
0 10 0 0 -15z m1090 -10 l0 -25 -10 0 -10 0 0 9 0 9 -6 16 -6 16 16 0 16 0 0
-25z m-1014 -10 l6 -15 16 0 15 0 -5 -5 -6 -6 -25 6 -26 7 -5 14 -5 14 15 0
15 0 5 -15z m359 -31 l20 -15 -15 -9 -15 -10 -47 0 -47 0 5 14 6 15 26 10 27
9 10 1 10 0 20 -15z"/>
<path d="M967 984 l5 -14 9 0 9 0 0 9 0 9 -14 5 -15 6 6 -15z"/>
<path d="M937 858 l-11 -7 6 -6 6 -6 25 -4 25 -5 4 18 5 17 -25 0 -24 0 -11
-7z"/>
<path d="M350 980 l0 -10 18 -1 17 -1 -27 -9 -26 -10 -5 -13 -5 -13 8 -14 9
-13 8 8 8 9 -12 4 -13 5 14 14 15 14 10 0 11 0 0 -9 0 -10 -15 -3 -14 -3 9
-15 9 -14 6 6 6 6 3 28 3 29 -4 13 -5 12 -14 0 -14 0 0 -10z"/>
<path d="M817 862 l-18 -4 4 -11 3 -11 12 -4 12 -4 1 19 1 18 5 -12 5 -13 14
0 14 0 0 13 0 13 -17 0 -18 -1 -18 -3z"/>
<path d="M656 840 l-18 -19 7 -10 6 -11 12 1 12 1 -12 5 -13 5 0 8 0 8 25 6
25 6 0 10 0 10 -12 -1 -13 0 -19 -19z"/>
<path d="M740 815 l0 -15 10 0 10 0 0 15 0 15 -10 0 -10 0 0 -15z"/>
<path d="M850 791 l-14 -10 8 -8 9 -8 4 13 5 12 14 0 14 0 0 -15 0 -15 -15 0
-15 0 0 -14 0 -15 16 -15 15 -16 4 0 4 0 -5 15 -6 15 -10 0 -9 0 16 16 16 16
-3 17 -3 16 -15 2 -15 3 -15 -9z"/>
<path d="M70 820 l0 -10 15 0 15 0 0 10 0 10 -15 0 -15 0 0 -10z"/>
<path d="M1030 1200 l0 -10 15 0 15 0 0 10 0 10 -15 0 -15 0 0 -10z"/>
<path d="M1090 1195 l0 -15 10 0 10 0 0 15 0 15 -10 0 -10 0 0 -15z"/>
<path d="M320 1157 l0 -24 -32 -7 -31 -6 -5 5 -5 5 16 0 17 0 0 10 0 10 -15 0
-15 0 0 -10 0 -10 -30 0 -30 0 0 10 0 10 23 1 22 1 -13 5 -13 5 -55 -7 -54 -6
0 -8 0 -7 35 -13 35 -12 21 6 21 7 34 -7 34 -6 0 -9 0 -10 -25 -6 -25 -6 0 -9
0 -9 110 0 110 0 0 10 0 10 -11 0 -11 0 -25 23 -24 22 -30 28 -29 29 0 -25z
m-142 -23 l16 -16 -19 3 -18 4 -5 13 -4 12 7 0 6 0 17 -16z"/>
<path d="M967 1136 l-5 -13 19 -17 19 -16 10 0 10 0 0 9 0 9 -27 7 -28 7 13 5
12 5 0 9 0 9 -9 0 -9 0 -5 -14z"/>
<path d="M1080 1067 l18 -19 10 6 10 6 -2 -17 -1 -17 80 -1 80 0 0 30 0 30
-25 1 -25 1 23 -4 22 -4 0 -25 0 -24 -40 0 -40 0 0 10 0 10 28 1 27 2 -25 4
-25 5 -8 12 -9 11 6 -19 6 -18 -27 7 -28 7 -5 4 -4 5 11 7 11 7 -43 1 -43 1
18 -20z m70 -27 l0 -10 -15 0 -15 0 0 10 0 10 15 0 15 0 0 -10z"/>
<path d="M330 820 l0 -10 10 0 10 0 0 10 0 10 -10 0 -10 0 0 -10z"/>
<path d="M450 780 l0 -10 15 0 15 0 0 10 0 10 -15 0 -15 0 0 -10z"/>
<path d="M70 755 l0 -15 10 0 10 0 0 15 0 15 -10 0 -10 0 0 -15z"/>
<path d="M213 763 l-13 -5 0 -8 0 -8 15 -6 14 -5 16 15 15 15 0 -15 0 -16 10
0 10 0 0 14 0 14 -16 6 -16 6 -11 -1 -12 -1 -12 -5z"/>
<path d="M650 585 l0 -15 24 0 24 0 4 -8 3 -9 28 -7 27 -6 0 18 0 17 -42 0
-41 0 -5 13 -4 12 -9 0 -9 0 0 -15z"/>
</g>
</svg>
