<?xml version="1.0" standalone="no"?>
<!DOCTYPE svg PUBLIC "-//W3C//DTD SVG 20010904//EN"
 "http://www.w3.org/TR/2001/REC-SVG-20010904/DTD/svg10.dtd">
<svg version="1.0" xmlns="http://www.w3.org/2000/svg"
 width="468pt" height="468pt" viewBox="0 0 468 468"
 preserveAspectRatio="xMidYMid meet">
<metadata>
Created by potrace 1.8, written by Peter Selinger 2001-2007
</metadata>
<g transform="translate(0,468) scale(0.365625,-0.365625)"
fill="#000000" stroke="none">
<path d="M480 1271 l0 -9 -65 -7 -65 -7 0 -8 0 -8 -30 -7 -30 -7 0 -8 0 -8
-30 -7 -30 -7 0 -8 0 -8 -30 -7 -30 -7 0 -9 0 -9 -14 0 -14 0 -56 -55 -55 -55
-7 -50 -7 -50 -8 0 -9 0 0 -30 0 -30 9 0 8 0 7 -55 6 -55 56 -55 56 -55 14 0
14 0 0 -9 0 -9 29 -7 29 -6 6 -15 5 -14 16 0 15 0 0 -10 0 -10 40 -6 40 -7 0
-7 0 -8 65 -7 65 -7 0 -9 0 -9 -240 0 -240 0 0 -255 0 -255 640 0 640 0 0 255
0 255 -234 0 -234 0 -5 13 -4 12 84 1 85 0 6 11 7 11 28 7 27 7 0 8 0 8 20 5
20 5 0 14 0 13 -11 -15 -11 -15 -5 13 -5 13 -25 -27 -24 -26 -6 6 -7 6 20 15
19 15 -20 15 -20 16 14 8 13 9 -13 4 -13 4 23 23 23 23 6 -6 6 -6 -16 -13 -16
-12 1 -25 2 -25 47 -2 48 -2 14 15 15 14 7 0 7 0 49 50 49 50 6 55 6 55 8 0 9
0 0 35 0 35 -9 0 -8 0 -7 41 -7 41 -73 74 -73 73 -27 7 -26 6 0 8 0 8 -30 7
-30 7 0 8 0 8 -30 7 -30 7 0 8 0 8 -65 7 -65 7 0 9 0 9 -160 0 -160 0 0 -9z
m300 -28 l11 -18 5 13 6 12 29 0 29 0 0 -10 0 -10 -12 -1 -13 -1 -15 1 -15 0
13 -5 12 -6 0 -9 0 -9 -17 -20 -17 -20 -28 0 -27 0 -15 15 -15 15 -13 0 -13 0
13 9 14 8 1 27 2 26 27 0 27 0 11 -17z m-426 -38 l5 -15 -14 0 -15 0 0 -10 0
-10 11 0 10 0 -15 -16 -16 -16 6 -10 6 -10 -21 -19 -21 -20 0 -14 0 -15 -10 0
-10 0 0 -29 0 -29 16 -6 16 -6 -5 -14 -6 -14 25 -27 25 -27 39 -5 40 -6 0 -7
0 -8 26 -6 26 -7 21 -20 22 -20 -20 -15 -20 -15 15 -9 15 -10 -12 0 -13 0 0
-10 0 -10 25 -6 25 -6 0 -8 0 -8 21 -5 22 -6 -6 -15 -6 -15 15 -16 15 -15 -10
0 -11 0 0 -9 0 -9 26 -6 26 -7 20 -19 20 -18 -6 -10 -6 -10 14 -14 14 -14 -94
1 -95 2 -6 7 -6 6 8 8 8 7 5 -14 4 -13 10 13 10 14 5 -14 5 -13 10 13 10 14 5
-14 5 -13 10 13 10 14 5 -14 5 -13 9 13 9 14 10 -15 10 -15 0 10 0 10 -26 25
-26 24 -15 -19 -14 -20 -10 18 -10 17 -12 0 -12 0 15 -10 15 -10 -15 -10 -15
-9 -3 14 -3 15 -9 0 -9 0 -3 -15 -3 -14 -15 9 -15 10 15 10 15 10 -12 0 -12 0
-11 -17 -10 -18 -10 18 -11 17 -12 0 -12 0 15 -10 15 -10 -15 -10 -15 -9 -3
14 -3 15 -9 0 -8 0 -5 -12 -5 -13 -1 18 -1 17 -10 0 -10 0 -1 -17 -1 -18 -5
13 -5 12 -38 6 -39 6 -5 14 -5 14 -16 0 -15 0 0 9 0 9 -26 6 -26 7 -49 48 -49
48 0 22 0 21 -10 0 -10 0 0 15 0 15 13 0 12 0 -15 10 -15 10 15 10 15 10 -17
0 -18 0 0 29 0 30 15 14 15 15 -13 6 -12 6 13 6 12 6 0 25 0 26 49 48 49 48
26 7 26 6 0 8 0 8 30 7 30 7 0 8 0 9 35 7 35 6 0 9 0 9 9 0 9 0 6 -15z m602
-80 l6 -15 25 0 24 0 16 15 15 16 38 -5 37 -4 36 -36 37 -36 -41 -40 -41 -40
-4 0 -4 0 0 5 0 4 37 36 36 35 -36 35 -35 35 -6 -13 -6 -12 -6 13 -6 13 -25
-27 -25 -27 -8 13 -8 12 -5 -13 -5 -14 -10 14 -9 13 0 -27 0 -27 7 12 8 13 25
-26 24 -27 -3 -31 -4 -30 15 15 16 15 14 -5 15 -6 1 -7 1 -6 1 -69 2 -68 -24
-27 -24 -26 -4 12 -4 12 -21 -19 -20 -18 5 -9 6 -9 -10 -14 -9 -15 -9 13 -8
14 1 -56 1 -57 14 -8 13 -9 -22 -22 -22 -22 -6 6 -6 6 20 15 19 15 -20 15 -20
16 15 10 15 11 -17 -6 -17 -5 -18 17 -17 17 6 -17 7 -16 -26 -29 -26 -28 -5
13 -4 12 -45 -45 -45 -45 -15 0 -15 0 41 40 41 40 0 47 0 48 25 23 24 24 11
-7 10 -6 -6 15 -6 16 15 0 15 0 5 -12 4 -13 0 30 0 30 -4 -12 -5 -13 -15 0
-15 0 5 13 4 12 -40 3 -41 3 -6 8 -5 7 -19 7 -18 7 5 13 5 12 -64 -3 -64 -4 6
16 6 16 -17 0 -16 0 -16 -16 -16 -15 -31 3 -31 3 1 15 1 15 -31 0 -31 0 -3 23
-4 23 26 26 25 25 71 -7 71 -7 -5 -13 -5 -13 18 5 18 5 15 -16 16 -15 28 -7
29 -7 -27 26 -28 26 0 19 0 20 16 6 16 6 19 0 19 0 20 20 20 20 0 20 0 21 18
6 17 7 13 13 13 13 30 0 30 0 5 -15z m183 -44 l21 -21 -36 -35 -36 -36 -5 5
-5 5 33 30 33 31 -21 20 -22 19 -5 -12 -6 -12 -6 12 -5 12 -22 -20 -22 -20 19
-15 20 -14 -7 -6 -6 -6 -25 27 -26 28 0 4 0 4 11 -6 11 -7 18 20 18 19 25 -2
25 -3 21 -21z m-12 -14 l4 -5 -36 -37 -37 -36 -6 5 -6 6 20 15 19 15 -20 15
-20 16 13 8 13 8 26 -3 25 -2 5 -5z m18 -203 l24 -26 -6 -14 -5 -14 -9 0 -9 0
0 10 0 10 11 0 12 0 -27 25 -26 24 0 6 0 5 5 0 6 0 24 -26z m-14 -16 l1 -13
-2 -10 -1 -9 17 -13 18 -13 -7 -7 -7 -7 -15 20 -14 19 -32 -35 -32 -35 -5 14
-4 13 -9 -13 -8 -13 -8 7 -7 8 14 9 14 9 9 -6 8 -5 35 36 35 36 -11 0 -10 0 0
10 0 10 10 0 10 0 1 -12z m24 -84 l36 -36 -5 -5 -5 -5 -30 33 -31 33 -31 -33
-31 -34 -9 14 -9 14 0 -12 0 -12 12 -7 11 -7 15 19 14 19 5 -14 5 -13 8 12 8
13 24 -26 24 -25 22 25 23 26 5 -6 6 -6 -27 -25 -27 -25 -13 5 -13 6 -6 13 -5
14 -26 -2 -26 -2 -9 -15 -9 -15 -16 20 -15 20 -15 -19 -15 -20 -6 7 -6 6 27
25 27 25 12 -5 12 -4 24 29 25 30 2 1 2 0 36 -36z m-10 -20 l25 -27 0 -3 0 -3
-14 5 -14 6 -6 15 -6 15 -15 -5 -14 -6 6 15 5 14 5 0 4 0 24 -26z m-185 -114
l20 -20 -36 -35 -36 -36 -5 5 -5 5 33 30 33 31 -12 12 -12 12 -32 -34 -31 -35
-5 13 -4 13 -25 -27 -24 -26 -6 5 -5 6 27 25 27 25 12 -5 12 -4 24 29 25 30 3
1 2 0 20 -20z m-10 -15 l0 -4 -37 -37 -37 -37 -4 13 -4 12 -9 -13 -8 -13 -8 7
-7 8 13 9 14 8 11 -4 12 -4 24 29 25 30 8 1 7 0 0 -5z m-357 -38 l5 -13 -18 0
-18 0 5 13 5 13 8 0 8 0 5 -13z m-125 -21 l5 -6 -7 -7 -7 -7 -9 14 -10 15 0
-12 0 -13 -9 0 -9 0 -5 14 -5 13 25 -3 25 -2 6 -6z"/>
<path d="M720 1210 l0 -10 10 0 10 0 0 10 0 10 -10 0 -10 0 0 -10z"/>
<path d="M780 1210 l0 -10 10 0 10 0 0 10 0 10 -10 0 -10 0 0 -10z"/>
<path d="M780 1180 l0 -10 10 0 10 0 0 10 0 10 -10 0 -10 0 0 -10z"/>
<path d="M240 1150 l0 -10 10 0 10 0 0 10 0 10 -10 0 -10 0 0 -10z"/>
<path d="M180 1120 l0 -10 10 0 10 0 0 10 0 10 -10 0 -10 0 0 -10z"/>
<path d="M240 1120 l0 -10 10 0 10 0 0 10 0 10 -10 0 -10 0 0 -10z"/>
<path d="M120 1090 l0 -10 10 0 10 0 0 10 0 10 -10 0 -10 0 0 -10z"/>
<path d="M180 1090 l0 -10 10 0 10 0 0 10 0 10 -10 0 -10 0 0 -10z"/>
<path d="M240 1090 l0 -10 10 0 10 0 0 10 0 10 -10 0 -10 0 0 -10z"/>
<path d="M120 1060 l0 -10 10 0 10 0 0 10 0 10 -10 0 -10 0 0 -10z"/>
<path d="M180 1060 l0 -10 10 0 10 0 0 10 0 10 -10 0 -10 0 0 -10z"/>
<path d="M60 1030 l0 -10 10 0 10 0 0 10 0 10 -10 0 -10 0 0 -10z"/>
<path d="M120 1030 l0 -10 10 0 10 0 0 10 0 10 -10 0 -10 0 0 -10z"/>
<path d="M180 1030 l0 -10 10 0 10 0 0 10 0 10 -10 0 -10 0 0 -10z"/>
<path d="M60 1000 l0 -10 10 0 10 0 0 10 0 10 -10 0 -10 0 0 -10z"/>
<path d="M120 1000 l0 -10 10 0 10 0 0 10 0 10 -10 0 -10 0 0 -10z"/>
<path d="M180 1000 l0 -10 10 0 10 0 0 10 0 10 -10 0 -10 0 0 -10z"/>
<path d="M60 970 l0 -10 10 0 10 0 0 10 0 10 -10 0 -10 0 0 -10z"/>
<path d="M120 970 l0 -10 10 0 10 0 0 10 0 10 -10 0 -10 0 0 -10z"/>
<path d="M180 970 l0 -10 10 0 10 0 0 10 0 10 -10 0 -10 0 0 -10z"/>
<path d="M240 970 l0 -10 10 0 10 0 0 10 0 10 -10 0 -10 0 0 -10z"/>
<path d="M60 940 l0 -10 10 0 10 0 0 10 0 10 -10 0 -10 0 0 -10z"/>
<path d="M120 940 l0 -10 10 0 10 0 0 10 0 10 -10 0 -10 0 0 -10z"/>
<path d="M180 940 l0 -10 10 0 10 0 0 10 0 10 -10 0 -10 0 0 -10z"/>
<path d="M240 940 l0 -10 10 0 10 0 0 10 0 10 -10 0 -10 0 0 -10z"/>
<path d="M60 910 l0 -10 10 0 10 0 0 10 0 10 -10 0 -10 0 0 -10z"/>
<path d="M120 910 l0 -10 10 0 10 0 0 10 0 10 -10 0 -10 0 0 -10z"/>
<path d="M180 910 l0 -10 10 0 10 0 0 10 0 10 -10 0 -10 0 0 -10z"/>
<path d="M240 910 l0 -10 10 0 10 0 0 10 0 10 -10 0 -10 0 0 -10z"/>
<path d="M60 880 l0 -10 10 0 10 0 0 10 0 10 -10 0 -10 0 0 -10z"/>
<path d="M120 880 l0 -10 10 0 10 0 0 10 0 10 -10 0 -10 0 0 -10z"/>
<path d="M180 880 l0 -10 10 0 10 0 0 10 0 10 -10 0 -10 0 0 -10z"/>
<path d="M240 880 l0 -10 10 0 10 0 0 10 0 10 -10 0 -10 0 0 -10z"/>
<path d="M300 880 l0 -10 10 0 10 0 0 10 0 10 -10 0 -10 0 0 -10z"/>
<path d="M60 850 l0 -10 10 0 10 0 0 10 0 10 -10 0 -10 0 0 -10z"/>
<path d="M120 850 l0 -10 10 0 10 0 0 10 0 10 -10 0 -10 0 0 -10z"/>
<path d="M180 850 l0 -10 10 0 10 0 0 10 0 10 -10 0 -10 0 0 -10z"/>
<path d="M240 850 l0 -10 10 0 10 0 0 10 0 10 -10 0 -10 0 0 -10z"/>
<path d="M300 850 l0 -10 10 0 10 0 0 10 0 10 -10 0 -10 0 0 -10z"/>
<path d="M360 850 l0 -10 10 0 10 0 0 10 0 10 -10 0 -10 0 0 -10z"/>
<path d="M60 820 l0 -10 10 0 10 0 0 10 0 10 -10 0 -10 0 0 -10z"/>
<path d="M120 820 l0 -10 10 0 10 0 0 10 0 10 -10 0 -10 0 0 -10z"/>
<path d="M180 820 l0 -10 10 0 10 0 0 10 0 10 -10 0 -10 0 0 -10z"/>
<path d="M240 820 l0 -10 10 0 10 0 0 10 0 10 -10 0 -10 0 0 -10z"/>
<path d="M300 820 l0 -10 10 0 10 0 0 10 0 10 -10 0 -10 0 0 -10z"/>
<path d="M360 820 l0 -10 10 0 10 0 0 10 0 10 -10 0 -10 0 0 -10z"/>
<path d="M420 820 l0 -10 10 0 10 0 0 10 0 10 -10 0 -10 0 0 -10z"/>
<path d="M60 790 l0 -10 10 0 10 0 0 10 0 10 -10 0 -10 0 0 -10z"/>
<path d="M120 790 l0 -10 10 0 10 0 0 10 0 10 -10 0 -10 0 0 -10z"/>
<path d="M180 790 l0 -10 10 0 10 0 0 10 0 10 -10 0 -10 0 0 -10z"/>
<path d="M240 790 l0 -10 10 0 10 0 0 10 0 10 -10 0 -10 0 0 -10z"/>
<path d="M300 790 l0 -10 10 0 10 0 0 10 0 10 -10 0 -10 0 0 -10z"/>
<path d="M360 790 l0 -10 10 0 10 0 0 10 0 10 -10 0 -10 0 0 -10z"/>
<path d="M420 790 l0 -10 10 0 10 0 0 10 0 10 -10 0 -10 0 0 -10z"/>
<path d="M60 760 l0 -10 10 0 10 0 0 10 0 10 -10 0 -10 0 0 -10z"/>
<path d="M120 760 l0 -10 10 0 10 0 0 10 0 10 -10 0 -10 0 0 -10z"/>
<path d="M180 760 l0 -10 10 0 10 0 0 10 0 10 -10 0 -10 0 0 -10z"/>
<path d="M240 760 l0 -10 10 0 10 0 0 10 0 10 -10 0 -10 0 0 -10z"/>
<path d="M300 760 l0 -10 10 0 10 0 0 10 0 10 -10 0 -10 0 0 -10z"/>
<path d="M360 760 l0 -10 10 0 10 0 0 10 0 10 -10 0 -10 0 0 -10z"/>
<path d="M420 760 l0 -10 10 0 10 0 0 10 0 10 -10 0 -10 0 0 -10z"/>
<path d="M120 730 l0 -10 10 0 10 0 0 10 0 10 -10 0 -10 0 0 -10z"/>
<path d="M180 730 l0 -10 10 0 10 0 0 10 0 10 -10 0 -10 0 0 -10z"/>
<path d="M240 730 l0 -10 10 0 10 0 0 10 0 10 -10 0 -10 0 0 -10z"/>
<path d="M300 730 l0 -10 10 0 10 0 0 10 0 10 -10 0 -10 0 0 -10z"/>
<path d="M360 730 l0 -10 10 0 10 0 0 10 0 10 -10 0 -10 0 0 -10z"/>
<path d="M420 730 l0 -10 10 0 10 0 0 10 0 10 -10 0 -10 0 0 -10z"/>
<path d="M120 700 l0 -10 10 0 10 0 0 10 0 10 -10 0 -10 0 0 -10z"/>
<path d="M180 700 l0 -10 10 0 10 0 0 10 0 10 -10 0 -10 0 0 -10z"/>
<path d="M240 700 l0 -10 10 0 10 0 0 10 0 10 -10 0 -10 0 0 -10z"/>
<path d="M300 700 l0 -10 10 0 10 0 0 10 0 10 -10 0 -10 0 0 -10z"/>
<path d="M360 700 l0 -10 10 0 10 0 0 10 0 10 -10 0 -10 0 0 -10z"/>
<path d="M420 700 l0 -10 10 0 10 0 0 10 0 10 -10 0 -10 0 0 -10z"/>
<path d="M480 700 l0 -10 10 0 10 0 0 10 0 10 -10 0 -10 0 0 -10z"/>
<path d="M180 670 l0 -10 10 0 10 0 0 10 0 10 -10 0 -10 0 0 -10z"/>
<path d="M240 670 l0 -10 10 0 10 0 0 10 0 10 -10 0 -10 0 0 -10z"/>
<path d="M300 670 l0 -10 10 0 10 0 0 10 0 10 -10 0 -10 0 0 -10z"/>
<path d="M360 670 l0 -10 10 0 10 0 0 10 0 10 -10 0 -10 0 0 -10z"/>
<path d="M420 670 l0 -10 10 0 10 0 0 10 0 10 -10 0 -10 0 0 -10z"/>
<path d="M480 670 l0 -10 10 0 10 0 0 10 0 10 -10 0 -10 0 0 -10z"/>
<path d="M240 640 l0 -10 10 0 10 0 0 10 0 10 -10 0 -10 0 0 -10z"/>
<path d="M300 640 l0 -10 10 0 10 0 0 10 0 10 -10 0 -10 0 0 -10z"/>
<path d="M360 640 l0 -10 10 0 10 0 0 10 0 10 -10 0 -10 0 0 -10z"/>
<path d="M420 640 l0 -10 10 0 10 0 0 10 0 10 -10 0 -10 0 0 -10z"/>
<path d="M480 640 l0 -10 10 0 10 0 0 10 0 10 -10 0 -10 0 0 -10z"/>
<path d="M300 610 l0 -10 10 0 10 0 0 10 0 10 -10 0 -10 0 0 -10z"/>
<path d="M360 610 l0 -10 10 0 10 0 0 10 0 10 -10 0 -10 0 0 -10z"/>
<path d="M420 610 l0 -10 10 0 10 0 0 10 0 10 -10 0 -10 0 0 -10z"/>
<path d="M480 610 l0 -10 10 0 10 0 0 10 0 10 -10 0 -10 0 0 -10z"/>
<path d="M540 610 l0 -10 10 0 10 0 0 10 0 10 -10 0 -10 0 0 -10z"/>
<path d="M951 1084 l1 -19 5 13 5 13 -6 6 -6 6 1 -19z"/>
<path d="M1073 1060 l4 -15 13 0 13 0 4 15 5 15 -11 -15 -11 -15 -11 15 -11
15 5 -15z"/>
</g>
</svg>
