<?xml version="1.0" standalone="no"?>
<!DOCTYPE svg PUBLIC "-//W3C//DTD SVG 20010904//EN"
 "http://www.w3.org/TR/2001/REC-SVG-20010904/DTD/svg10.dtd">
<svg version="1.0" xmlns="http://www.w3.org/2000/svg"
 width="468pt" height="468pt" viewBox="0 0 468 468"
 preserveAspectRatio="xMidYMid meet">
<metadata>
Created by potrace 1.8, written by Peter Selinger 2001-2007
</metadata>
<g transform="translate(0,468) scale(0.365625,-0.365625)"
fill="#000000" stroke="none">
<path d="M0 940 l0 -340 80 0 80 0 0 -20 0 -20 -80 0 -80 0 0 -20 0 -20 80 0
80 0 0 -20 0 -20 -80 0 -80 0 0 -240 0 -240 220 0 220 0 0 20 0 20 20 0 20 0
0 -20 0 -20 20 0 20 0 0 20 0 20 20 0 20 0 0 -20 0 -20 60 0 60 0 0 20 0 20
20 0 20 0 0 -20 0 -20 20 0 20 0 0 20 0 20 20 0 20 0 0 -20 0 -20 240 0 240 0
0 240 0 240 -100 0 -100 0 0 20 0 20 100 0 100 0 0 20 0 20 -100 0 -100 0 0
20 0 20 100 0 100 0 0 60 0 60 -20 0 -20 0 0 20 0 20 20 0 20 0 0 20 0 20 -20
0 -20 0 0 20 0 20 20 0 20 0 0 220 0 220 -240 0 -240 0 0 -80 0 -80 -20 0 -20
0 0 80 0 80 -20 0 -20 0 0 -80 0 -80 -20 0 -20 0 0 80 0 80 -60 0 -60 0 0 -80
0 -80 -20 0 -20 0 0 80 0 80 -20 0 -20 0 0 -80 0 -80 -20 0 -20 0 0 80 0 80
-220 0 -220 0 0 -340z m640 240 l0 -60 -20 0 -20 0 0 60 0 60 20 0 20 0 0 -60z
m-240 0 l0 -20 -20 0 -20 0 0 -40 0 -40 -20 0 -20 0 0 -20 0 -20 -20 0 -20 0
0 -20 0 -20 -20 0 -20 0 0 -40 0 -40 -20 0 -20 0 0 -40 0 -40 -20 0 -20 0 0
-100 0 -100 -60 0 -60 0 0 100 0 100 20 0 20 0 0 40 0 40 20 0 20 0 0 40 0 40
20 0 20 0 0 20 0 20 20 0 20 0 0 20 0 20 20 0 20 0 0 20 0 20 20 0 20 0 0 20
0 20 40 0 40 0 0 20 0 20 20 0 20 0 0 -20z m480 0 l0 -20 40 0 40 0 0 -20 0
-20 20 0 20 0 0 -20 0 -20 20 0 20 0 0 -20 0 -20 20 0 20 0 0 -20 0 -20 20 0
20 0 0 -40 0 -40 20 0 20 0 0 -40 0 -40 20 0 20 0 0 -100 0 -100 -60 0 -60 0
0 100 0 100 -20 0 -20 0 0 40 0 40 -20 0 -20 0 0 40 0 40 -20 0 -20 0 0 20 0
20 -20 0 -20 0 0 20 0 20 -20 0 -20 0 0 40 0 40 -20 0 -20 0 0 20 0 20 20 0
20 0 0 -20z m-440 -100 l0 -40 20 0 20 0 0 40 0 40 20 0 20 0 0 -40 0 -40 -20
0 -20 0 0 -40 0 -40 -20 0 -20 0 0 -20 0 -20 -20 0 -20 0 0 -20 0 -20 -20 0
-20 0 0 -20 0 -20 -20 0 -20 0 0 -20 0 -20 -40 0 -40 0 0 -20 0 -20 -20 0 -20
0 0 20 0 20 20 0 20 0 0 20 0 20 40 0 40 0 0 20 0 20 -20 0 -20 0 0 20 0 20
20 0 20 0 0 20 0 20 20 0 20 0 0 40 0 40 20 0 20 0 0 40 0 40 20 0 20 0 0 -40z
m320 0 l0 -40 20 0 20 0 0 40 0 40 20 0 20 0 0 -40 0 -40 20 0 20 0 0 -40 0
-40 20 0 20 0 0 -20 0 -20 20 0 20 0 0 -20 0 -20 -20 0 -20 0 0 -20 0 -20 40
0 40 0 0 -20 0 -20 20 0 20 0 0 -20 0 -20 -20 0 -20 0 0 20 0 20 -40 0 -40 0
0 20 0 20 -20 0 -20 0 0 20 0 20 -20 0 -20 0 0 20 0 20 -20 0 -20 0 0 20 0 20
-20 0 -20 0 0 40 0 40 -20 0 -20 0 0 40 0 40 20 0 20 0 0 -40z m-520 -540 l0
-20 40 0 40 0 0 -20 0 -20 20 0 20 0 0 -20 0 -20 20 0 20 0 0 -20 0 -20 20 0
20 0 0 -20 0 -20 20 0 20 0 0 -40 0 -40 20 0 20 0 0 -20 0 -20 -20 0 -20 0 0
20 0 20 -20 0 -20 0 0 40 0 40 -20 0 -20 0 0 -20 0 -20 -20 0 -20 0 0 20 0 20
-20 0 -20 0 0 20 0 20 -40 0 -40 0 0 20 0 20 -40 0 -40 0 0 20 0 20 40 0 40 0
0 20 0 20 -40 0 -40 0 0 20 0 20 40 0 40 0 0 -20z m840 0 l0 -20 -40 0 -40 0
0 -20 0 -20 40 0 40 0 0 -20 0 -20 -40 0 -40 0 0 -20 0 -20 -40 0 -40 0 0 -20
0 -20 -20 0 -20 0 0 -20 0 -20 -20 0 -20 0 0 20 0 20 -20 0 -20 0 0 -40 0 -40
-20 0 -20 0 0 -20 0 -20 -20 0 -20 0 0 20 0 20 20 0 20 0 0 40 0 40 20 0 20 0
0 20 0 20 20 0 20 0 0 20 0 20 20 0 20 0 0 20 0 20 20 0 20 0 0 20 0 20 40 0
40 0 0 20 0 20 40 0 40 0 0 -20z m-960 -120 l0 -20 40 0 40 0 0 -20 0 -20 20
0 20 0 0 -20 0 -20 20 0 20 0 0 -20 0 -20 40 0 40 0 0 -20 0 -20 40 0 40 0 0
-20 0 -20 180 0 180 0 0 20 0 20 40 0 40 0 0 20 0 20 40 0 40 0 0 20 0 20 20
0 20 0 0 20 0 20 20 0 20 0 0 20 0 20 40 0 40 0 0 20 0 20 20 0 20 0 0 -20 0
-20 -20 0 -20 0 0 -40 0 -40 -20 0 -20 0 0 -20 0 -20 -20 0 -20 0 0 -20 0 -20
-20 0 -20 0 0 -20 0 -20 -20 0 -20 0 0 -20 0 -20 -40 0 -40 0 0 -20 0 -20 -40
0 -40 0 0 -20 0 -20 -180 0 -180 0 0 20 0 20 -40 0 -40 0 0 20 0 20 -40 0 -40
0 0 20 0 20 -20 0 -20 0 0 20 0 20 -20 0 -20 0 0 20 0 20 -20 0 -20 0 0 20 0
20 -20 0 -20 0 0 40 0 40 -20 0 -20 0 0 20 0 20 20 0 20 0 0 -20z"/>
<path d="M400 1000 l0 -40 -20 0 -20 0 0 -20 0 -20 -20 0 -20 0 0 -20 0 -20
20 0 20 0 0 20 0 20 20 0 20 0 0 20 0 20 20 0 20 0 0 40 0 40 -20 0 -20 0 0
-40z"/>
<path d="M800 1000 l0 -40 20 0 20 0 0 -20 0 -20 20 0 20 0 0 -20 0 -20 20 0
20 0 0 20 0 20 -20 0 -20 0 0 20 0 20 -20 0 -20 0 0 40 0 40 -20 0 -20 0 0
-40z"/>
<path d="M240 460 l0 -20 40 0 40 0 0 -20 0 -20 20 0 20 0 0 -20 0 -20 20 0
20 0 0 20 0 20 -20 0 -20 0 0 20 0 20 -20 0 -20 0 0 20 0 20 -40 0 -40 0 0
-20z"/>
<path d="M920 460 l0 -20 -20 0 -20 0 0 -20 0 -20 -20 0 -20 0 0 -20 0 -20 20
0 20 0 0 20 0 20 20 0 20 0 0 20 0 20 40 0 40 0 0 20 0 20 -40 0 -40 0 0 -20z"/>
</g>
</svg>
