<?xml version="1.0" standalone="no"?>
<!DOCTYPE svg PUBLIC "-//W3C//DTD SVG 20010904//EN"
 "http://www.w3.org/TR/2001/REC-SVG-20010904/DTD/svg10.dtd">
<svg version="1.0" xmlns="http://www.w3.org/2000/svg"
 width="468pt" height="468pt" viewBox="0 0 468 468"
 preserveAspectRatio="xMidYMid meet">
<metadata>
Created by potrace 1.8, written by Peter Selinger 2001-2007
</metadata>
<g transform="translate(0,468) scale(0.365625,-0.365625)"
fill="#000000" stroke="none">
<path d="M0 1260 l0 -20 20 0 20 0 0 -20 0 -20 -20 0 -20 0 0 -20 0 -20 20 0
20 0 0 -20 0 -20 -20 0 -20 0 0 -60 0 -60 20 0 20 0 0 -20 0 -20 -20 0 -20 0
0 -20 0 -20 20 0 20 0 0 -20 0 -20 -20 0 -20 0 0 -60 0 -60 20 0 20 0 0 -20 0
-20 -20 0 -20 0 0 -100 0 -100 20 0 20 0 0 -20 0 -20 -20 0 -20 0 0 -20 0 -20
20 0 20 0 0 -20 0 -20 -20 0 -20 0 0 -60 0 -60 20 0 20 0 0 -20 0 -20 -20 0
-20 0 0 -20 0 -20 20 0 20 0 0 -20 0 -20 -20 0 -20 0 0 -80 0 -80 20 0 20 0 0
20 0 20 40 0 40 0 0 -20 0 -20 40 0 40 0 0 40 0 40 20 0 20 0 0 -40 0 -40 20
0 20 0 0 20 0 20 20 0 20 0 0 20 0 20 20 0 20 0 0 -40 0 -40 40 0 40 0 0 20 0
20 20 0 20 0 0 -20 0 -20 40 0 40 0 0 20 0 20 20 0 20 0 0 -20 0 -20 20 0 20
0 0 20 0 20 20 0 20 0 0 -20 0 -20 20 0 20 0 0 20 0 20 20 0 20 0 0 -20 0 -20
80 0 80 0 0 20 0 20 20 0 20 0 0 -20 0 -20 40 0 40 0 0 20 0 20 20 0 20 0 0
-20 0 -20 100 0 100 0 0 20 0 20 -40 0 -40 0 0 20 0 20 40 0 40 0 0 460 0 460
-20 0 -20 0 0 20 0 20 20 0 20 0 0 60 0 60 -20 0 -20 0 0 20 0 20 20 0 20 0 0
20 0 20 -20 0 -20 0 0 20 0 20 -20 0 -20 0 0 -20 0 -20 -20 0 -20 0 0 20 0 20
-40 0 -40 0 0 -20 0 -20 -20 0 -20 0 0 20 0 20 -20 0 -20 0 0 -20 0 -20 -20 0
-20 0 0 20 0 20 -20 0 -20 0 0 -20 0 -20 -20 0 -20 0 0 20 0 20 -40 0 -40 0 0
-60 0 -60 -20 0 -20 0 0 20 0 20 -20 0 -20 0 0 20 0 20 20 0 20 0 0 20 0 20
-20 0 -20 0 0 -20 0 -20 -20 0 -20 0 0 20 0 20 -20 0 -20 0 0 -20 0 -20 -20 0
-20 0 0 20 0 20 -40 0 -40 0 0 -20 0 -20 -20 0 -20 0 0 20 0 20 -20 0 -20 0 0
-40 0 -40 -20 0 -20 0 0 40 0 40 -20 0 -20 0 0 -40 0 -40 -20 0 -20 0 0 40 0
40 -20 0 -20 0 0 -20 0 -20 -20 0 -20 0 0 20 0 20 -20 0 -20 0 0 -20 0 -20
-40 0 -40 0 0 -20 0 -20 -20 0 -20 0 0 40 0 40 -40 0 -40 0 0 -20z m240 -60
l0 -40 -20 0 -20 0 0 40 0 40 20 0 20 0 0 -40z m360 0 l0 -40 -20 0 -20 0 0
20 0 20 -20 0 -20 0 0 -20 0 -20 -20 0 -20 0 0 20 0 20 20 0 20 0 0 20 0 20
40 0 40 0 0 -40z m80 20 l0 -20 20 0 20 0 0 -20 0 -20 -20 0 -20 0 0 20 0 20
-20 0 -20 0 0 20 0 20 20 0 20 0 0 -20z m200 0 l0 -20 -20 0 -20 0 0 20 0 20
20 0 20 0 0 -20z m80 0 l0 -20 -20 0 -20 0 0 20 0 20 20 0 20 0 0 -20z m200 0
l0 -20 -20 0 -20 0 0 20 0 20 20 0 20 0 0 -20z m80 0 l0 -20 -20 0 -20 0 0 20
0 20 20 0 20 0 0 -20z m-1160 -40 l0 -20 20 0 20 0 0 20 0 20 20 0 20 0 0 -20
0 -20 -20 0 -20 0 0 -20 0 -20 -20 0 -20 0 0 20 0 20 -20 0 -20 0 0 20 0 20
20 0 20 0 0 -20z m960 -80 l0 -20 20 0 20 0 0 20 0 20 20 0 20 0 0 -20 0 -20
20 0 20 0 0 -20 0 -20 20 0 20 0 0 20 0 20 20 0 20 0 0 -20 0 -20 -20 0 -20 0
0 -20 0 -20 20 0 20 0 0 -40 0 -40 -40 0 -40 0 0 -20 0 -20 -20 0 -20 0 0 20
0 20 -20 0 -20 0 0 -20 0 -20 -20 0 -20 0 0 20 0 20 20 0 20 0 0 20 0 20 20 0
20 0 0 20 0 20 -20 0 -20 0 0 20 0 20 -20 0 -20 0 0 -40 0 -40 -20 0 -20 0 0
-20 0 -20 -20 0 -20 0 0 20 0 20 -20 0 -20 0 0 20 0 20 -20 0 -20 0 0 -40 0
-40 20 0 20 0 0 -20 0 -20 -20 0 -20 0 0 20 0 20 -20 0 -20 0 0 40 0 40 -20 0
-20 0 0 -40 0 -40 -20 0 -20 0 0 20 0 20 -20 0 -20 0 0 -20 0 -20 -20 0 -20 0
0 20 0 20 -40 0 -40 0 0 -20 0 -20 -20 0 -20 0 0 20 0 20 -20 0 -20 0 0 -40 0
-40 -20 0 -20 0 0 40 0 40 -20 0 -20 0 0 -20 0 -20 -40 0 -40 0 0 20 0 20 -40
0 -40 0 0 20 0 20 40 0 40 0 0 -20 0 -20 20 0 20 0 0 20 0 20 40 0 40 0 0 -20
0 -20 20 0 20 0 0 40 0 40 20 0 20 0 0 -40 0 -40 20 0 20 0 0 40 0 40 20 0 20
0 0 -20 0 -20 20 0 20 0 0 20 0 20 20 0 20 0 0 -20 0 -20 20 0 20 0 0 40 0 40
20 0 20 0 0 -20 0 -20 20 0 20 0 0 20 0 20 20 0 20 0 0 -20 0 -20 20 0 20 0 0
20 0 20 40 0 40 0 0 20 0 20 20 0 20 0 0 -20z m-920 -120 l0 -20 20 0 20 0 0
-20 0 -20 20 0 20 0 0 40 0 40 20 0 20 0 0 -40 0 -40 -20 0 -20 0 0 -20 0 -20
-20 0 -20 0 0 20 0 20 -20 0 -20 0 0 -20 0 -20 -20 0 -20 0 0 20 0 20 -20 0
-20 0 0 20 0 20 20 0 20 0 0 20 0 20 20 0 20 0 0 -20z m200 -80 l0 -20 -20 0
-20 0 0 20 0 20 20 0 20 0 0 -20z m320 -80 l0 -20 -20 0 -20 0 0 -20 0 -20 40
0 40 0 0 40 0 40 40 0 40 0 0 -20 0 -20 60 0 60 0 0 -60 0 -60 20 0 20 0 0 40
0 40 20 0 20 0 0 -20 0 -20 20 0 20 0 0 20 0 20 20 0 20 0 0 -20 0 -20 -20 0
-20 0 0 -20 0 -20 40 0 40 0 0 20 0 20 20 0 20 0 0 20 0 20 20 0 20 0 0 -20 0
-20 20 0 20 0 0 20 0 20 20 0 20 0 0 -40 0 -40 -40 0 -40 0 0 -20 0 -20 -20 0
-20 0 0 -20 0 -20 -20 0 -20 0 0 20 0 20 -40 0 -40 0 0 -20 0 -20 -20 0 -20 0
0 20 0 20 -40 0 -40 0 0 20 0 20 -20 0 -20 0 0 -20 0 -20 -20 0 -20 0 0 20 0
20 -20 0 -20 0 0 -20 0 -20 -20 0 -20 0 0 20 0 20 -20 0 -20 0 0 20 0 20 -40
0 -40 0 0 -20 0 -20 20 0 20 0 0 -20 0 -20 -20 0 -20 0 0 20 0 20 -20 0 -20 0
0 20 0 20 -20 0 -20 0 0 -20 0 -20 -20 0 -20 0 0 20 0 20 20 0 20 0 0 20 0 20
-40 0 -40 0 0 -40 0 -40 -40 0 -40 0 0 20 0 20 -20 0 -20 0 0 -20 0 -20 -20 0
-20 0 0 20 0 20 20 0 20 0 0 40 0 40 20 0 20 0 0 -40 0 -40 20 0 20 0 0 40 0
40 60 0 60 0 0 -20 0 -20 20 0 20 0 0 20 0 20 20 0 20 0 0 20 0 20 20 0 20 0
0 -20z m-440 -40 l0 -20 20 0 20 0 0 20 0 20 20 0 20 0 0 -20 0 -20 -20 0 -20
0 0 -40 0 -40 -20 0 -20 0 0 40 0 40 -20 0 -20 0 0 20 0 20 20 0 20 0 0 -20z
m-80 -40 l0 -20 20 0 20 0 0 -20 0 -20 -20 0 -20 0 0 20 0 20 -20 0 -20 0 0
20 0 20 20 0 20 0 0 -20z m1120 -120 l0 -20 -20 0 -20 0 0 20 0 20 20 0 20 0
0 -20z m-960 -40 l0 -20 20 0 20 0 0 20 0 20 20 0 20 0 0 -20 0 -20 40 0 40 0
0 -20 0 -20 20 0 20 0 0 20 0 20 20 0 20 0 0 -20 0 -20 20 0 20 0 0 20 0 20
20 0 20 0 0 -20 0 -20 -20 0 -20 0 0 -20 0 -20 20 0 20 0 0 -40 0 -40 20 0 20
0 0 20 0 20 20 0 20 0 0 20 0 20 -20 0 -20 0 0 20 0 20 20 0 20 0 0 -20 0 -20
20 0 20 0 0 20 0 20 40 0 40 0 0 -60 0 -60 -20 0 -20 0 0 40 0 40 -20 0 -20 0
0 -20 0 -20 -20 0 -20 0 0 -20 0 -20 20 0 20 0 0 -20 0 -20 -20 0 -20 0 0 20
0 20 -20 0 -20 0 0 -20 0 -20 -20 0 -20 0 0 20 0 20 -40 0 -40 0 0 -20 0 -20
-20 0 -20 0 0 60 0 60 -20 0 -20 0 0 -20 0 -20 -40 0 -40 0 0 20 0 20 -20 0
-20 0 0 20 0 20 -20 0 -20 0 0 -20 0 -20 -20 0 -20 0 0 -20 0 -20 -20 0 -20 0
0 -20 0 -20 -20 0 -20 0 0 20 0 20 -20 0 -20 0 0 -20 0 -20 -20 0 -20 0 0 20
0 20 -20 0 -20 0 0 20 0 20 20 0 20 0 0 20 0 20 20 0 20 0 0 20 0 20 40 0 40
0 0 -20 0 -20 40 0 40 0 0 20 0 20 -20 0 -20 0 0 20 0 20 20 0 20 0 0 -20z
m600 -100 l0 -40 20 0 20 0 0 -20 0 -20 -20 0 -20 0 0 20 0 20 -20 0 -20 0 0
40 0 40 20 0 20 0 0 -40z m160 20 l0 -20 -60 0 -60 0 0 20 0 20 60 0 60 0 0
-20z m120 0 l0 -20 20 0 20 0 0 20 0 20 20 0 20 0 0 -20 0 -20 -20 0 -20 0 0
-20 0 -20 -20 0 -20 0 0 20 0 20 -20 0 -20 0 0 -20 0 -20 -20 0 -20 0 0 20 0
20 20 0 20 0 0 20 0 20 20 0 20 0 0 -20z m-840 -80 l0 -20 -20 0 -20 0 0 20 0
20 20 0 20 0 0 -20z m120 -40 l0 -20 -20 0 -20 0 0 20 0 20 20 0 20 0 0 -20z
m720 -40 l0 -20 20 0 20 0 0 20 0 20 20 0 20 0 0 -20 0 -20 -20 0 -20 0 0 -20
0 -20 20 0 20 0 0 -20 0 -20 -20 0 -20 0 0 -20 0 -20 -20 0 -20 0 0 20 0 20
-20 0 -20 0 0 -20 0 -20 -20 0 -20 0 0 20 0 20 20 0 20 0 0 20 0 20 20 0 20 0
0 20 0 20 -20 0 -20 0 0 20 0 20 20 0 20 0 0 -20z m-1080 -40 l0 -20 20 0 20
0 0 20 0 20 20 0 20 0 0 -20 0 -20 -20 0 -20 0 0 -20 0 -20 20 0 20 0 0 -20 0
-20 -20 0 -20 0 0 20 0 20 -20 0 -20 0 0 20 0 20 -20 0 -20 0 0 20 0 20 20 0
20 0 0 -20z m920 0 l0 -20 20 0 20 0 0 20 0 20 20 0 20 0 0 -20 0 -20 -20 0
-20 0 0 -20 0 -20 -20 0 -20 0 0 -20 0 -20 -20 0 -20 0 0 20 0 20 -20 0 -20 0
0 20 0 20 20 0 20 0 0 20 0 20 20 0 20 0 0 -20z m-760 -60 l0 -40 -20 0 -20 0
0 40 0 40 20 0 20 0 0 -40z m120 20 l0 -20 20 0 20 0 0 20 0 20 20 0 20 0 0
-40 0 -40 -40 0 -40 0 0 20 0 20 -20 0 -20 0 0 20 0 20 20 0 20 0 0 -20z m200
0 l0 -20 40 0 40 0 0 20 0 20 20 0 20 0 0 -20 0 -20 20 0 20 0 0 20 0 20 40 0
40 0 0 -40 0 -40 -20 0 -20 0 0 20 0 20 -20 0 -20 0 0 -40 0 -40 -20 0 -20 0
0 40 0 40 -20 0 -20 0 0 -20 0 -20 -20 0 -20 0 0 -20 0 -20 -20 0 -20 0 0 40
0 40 -20 0 -20 0 0 -40 0 -40 -20 0 -20 0 0 40 0 40 20 0 20 0 0 20 0 20 20 0
20 0 0 -20z m320 -20 l0 -40 -20 0 -20 0 0 40 0 40 20 0 20 0 0 -40z m-600
-140 l0 -20 -20 0 -20 0 0 20 0 20 20 0 20 0 0 -20z m-120 -40 l0 -20 -20 0
-20 0 0 20 0 20 20 0 20 0 0 -20z m280 0 l0 -20 -20 0 -20 0 0 20 0 20 20 0
20 0 0 -20z m400 0 l0 -20 -20 0 -20 0 0 20 0 20 20 0 20 0 0 -20z m80 0 l0
-20 -20 0 -20 0 0 20 0 20 20 0 20 0 0 -20z m120 0 l0 -20 -20 0 -20 0 0 20 0
20 20 0 20 0 0 -20z m120 0 l0 -20 -20 0 -20 0 0 20 0 20 20 0 20 0 0 -20z"/>
<path d="M1000 1060 l0 -20 -40 0 -40 0 0 -20 0 -20 20 0 20 0 0 -20 0 -20 20
0 20 0 0 40 0 40 20 0 20 0 0 20 0 20 -20 0 -20 0 0 -20z"/>
<path d="M1080 1060 l0 -20 20 0 20 0 0 -20 0 -20 20 0 20 0 0 -20 0 -20 -20
0 -20 0 0 -20 0 -20 20 0 20 0 0 20 0 20 20 0 20 0 0 20 0 20 -20 0 -20 0 0
20 0 20 -20 0 -20 0 0 20 0 20 -20 0 -20 0 0 -20z"/>
<path d="M840 1020 l0 -20 20 0 20 0 0 20 0 20 -20 0 -20 0 0 -20z"/>
<path d="M680 980 l0 -20 20 0 20 0 0 20 0 20 -20 0 -20 0 0 -20z"/>
<path d="M80 940 l0 -20 20 0 20 0 0 20 0 20 -20 0 -20 0 0 -20z"/>
<path d="M720 780 l0 -20 -20 0 -20 0 0 -20 0 -20 20 0 20 0 0 -20 0 -20 20 0
20 0 0 20 0 20 -20 0 -20 0 0 20 0 20 20 0 20 0 0 20 0 20 -20 0 -20 0 0 -20z"/>
<path d="M560 740 l0 -20 20 0 20 0 0 20 0 20 -20 0 -20 0 0 -20z"/>
<path d="M800 720 l0 -40 20 0 20 0 0 40 0 40 -20 0 -20 0 0 -40z"/>
<path d="M1120 700 l0 -20 -20 0 -20 0 0 -20 0 -20 20 0 20 0 0 20 0 20 20 0
20 0 0 20 0 20 -20 0 -20 0 0 -20z"/>
<path d="M960 660 l0 -20 20 0 20 0 0 20 0 20 -20 0 -20 0 0 -20z"/>
<path d="M320 540 l0 -20 20 0 20 0 0 -20 0 -20 20 0 20 0 0 20 0 20 -20 0
-20 0 0 20 0 20 -20 0 -20 0 0 -20z"/>
<path d="M120 500 l0 -20 -20 0 -20 0 0 -20 0 -20 20 0 20 0 0 20 0 20 20 0
20 0 0 -20 0 -20 20 0 20 0 0 40 0 40 -40 0 -40 0 0 -20z"/>
<path d="M480 500 l0 -20 20 0 20 0 0 -20 0 -20 20 0 20 0 0 20 0 20 -20 0
-20 0 0 20 0 20 -20 0 -20 0 0 -20z"/>
<path d="M1160 260 l0 -20 20 0 20 0 0 20 0 20 -20 0 -20 0 0 -20z"/>
<path d="M960 260 l0 -20 20 0 20 0 0 20 0 20 -20 0 -20 0 0 -20z"/>
</g>
</svg>
