<?xml version="1.0" standalone="no"?>
<!DOCTYPE svg PUBLIC "-//W3C//DTD SVG 20010904//EN"
 "http://www.w3.org/TR/2001/REC-SVG-20010904/DTD/svg10.dtd">
<svg version="1.0" xmlns="http://www.w3.org/2000/svg"
 width="468pt" height="468pt" viewBox="0 0 468 468"
 preserveAspectRatio="xMidYMid meet">
<metadata>
Created by potrace 1.8, written by Peter Selinger 2001-2007
</metadata>
<g transform="translate(0,468) scale(0.365625,-0.365625)"
fill="#000000" stroke="none">
<path d="M0 640 l0 -640 640 0 640 0 0 640 0 640 -326 0 -325 0 5 -9 6 -8 29
3 30 4 -5 -18 -6 -17 12 18 11 17 19 0 19 0 10 -17 11 -18 10 15 10 15 0 -13
0 -13 18 6 19 5 24 -18 24 -19 11 4 11 4 27 -26 27 -25 8 3 9 2 31 -23 32 -23
-7 -11 -7 -11 10 6 11 7 26 -21 27 -21 -5 -5 -5 -6 24 -19 25 -19 0 -14 0 -13
16 -6 16 -6 -6 -15 -5 -15 9 0 9 0 16 -30 16 -30 -7 0 -6 0 12 -15 12 -15 -11
0 -12 0 6 -10 6 -10 9 5 8 5 8 -42 9 -43 -3 -18 -2 -18 10 6 10 6 0 -83 0 -83
-10 15 -10 15 0 -11 0 -10 10 -10 11 -11 -7 -16 -6 -17 -8 5 -7 5 3 -30 4 -30
-11 0 -10 0 6 10 6 10 -15 -6 -15 -6 14 -15 15 -14 0 -7 0 -7 -10 -15 -9 -14
-8 7 -7 8 14 9 15 9 -25 18 -25 18 -22 2 -23 2 -5 -8 -5 -8 29 3 29 3 12 -14
12 -15 -11 -14 -11 -13 -25 0 -26 0 -12 16 -12 16 -25 20 -25 20 20 -25 20
-24 20 -17 20 -17 -8 -8 -8 -8 -10 14 -11 15 -5 -12 -5 -13 -10 0 -10 0 7 17
6 18 -19 -20 -18 -20 10 -11 11 -12 7 11 7 11 8 -7 7 -8 -14 -9 -14 -9 7 -7 7
-7 20 24 21 23 9 -14 9 -14 8 7 7 8 -11 7 -11 7 13 12 14 12 5 -12 4 -12 11
15 11 15 9 -15 10 -15 -15 -17 -16 -17 6 -9 6 -9 -29 3 -29 3 -12 -14 -12 -14
5 -9 6 -8 -10 -14 -9 -15 -9 14 -9 14 4 12 5 12 -15 12 -15 13 4 -33 4 -33
-15 -18 -16 -17 5 -8 6 -9 -19 0 -19 0 6 9 5 8 -11 13 -11 14 -25 -1 -25 0
-11 -13 -11 -13 7 -10 6 -11 -15 6 -14 6 -6 14 -6 15 11 -6 10 -7 15 13 15 12
-6 16 -6 15 18 -16 18 -16 12 13 11 13 -11 13 -12 13 17 -13 17 -12 -5 -13 -5
-13 16 -13 15 -12 14 11 13 11 1 25 0 25 -8 0 -8 0 -5 -12 -4 -13 -9 8 -8 8
14 10 15 9 -15 11 -15 11 13 5 12 5 0 10 0 10 -16 -6 -17 -6 32 32 31 32 0 9
0 9 -19 -23 -19 -24 -8 8 -8 8 13 9 14 8 -16 16 -16 17 5 14 6 15 9 0 9 0 0
11 0 11 -15 -6 -15 -5 0 75 0 76 16 -6 17 -6 -13 15 -12 15 11 0 12 0 -6 10
-6 10 -8 -4 -7 -5 0 19 0 19 6 -1 5 0 10 1 10 1 -15 10 -15 10 14 9 13 9 -13
5 -14 5 15 11 15 11 -10 1 -10 1 -8 -1 -8 -1 9 16 9 16 -15 44 -14 44 -9 0 -9
0 0 15 0 15 -16 0 -16 0 5 14 6 15 -14 11 -13 11 -6 -9 -6 -10 13 -24 12 -25
13 5 12 4 0 -11 0 -11 -11 0 -11 0 13 -17 14 -16 -12 -4 -12 -4 12 -13 12 -13
15 4 15 5 -15 -11 -15 -11 14 -9 15 -9 -13 -15 -12 -15 13 -5 13 -5 -14 -10
-13 -10 13 -6 14 -6 -13 -6 -13 -6 12 -15 13 -15 -15 -9 -14 -9 15 -10 15 -10
-10 -1 -10 -1 -28 -2 -28 -2 -12 9 -12 9 17 -5 17 -6 -2 19 -1 18 -18 -9 -18
-10 0 5 0 5 17 16 16 17 -14 9 -14 9 14 9 13 9 -13 5 -14 5 15 11 15 11 -10 1
-10 1 -5 0 -6 -1 0 19 0 19 6 -1 5 0 9 1 10 1 -20 16 -19 15 11 -5 10 -5 -10
49 -10 49 -7 -5 -8 -5 5 -13 5 -14 -8 -5 -9 -5 2 36 2 37 1 15 1 15 10 -15 10
-15 10 15 9 15 -16 9 -16 9 -19 -23 -19 -23 -7 7 -7 8 18 9 17 10 0 9 0 9 -17
-6 -16 -6 7 11 7 12 -18 1 -18 1 -17 3 -18 3 0 -9 0 -9 19 0 20 0 7 -12 7 -11
-11 7 -12 7 0 -10 0 -11 10 0 10 0 0 -25 0 -24 15 5 15 6 0 -11 0 -11 -12 0
-13 0 14 -9 15 -9 -13 -15 -12 -15 13 -6 13 -6 -13 -6 -13 -6 12 -14 11 -14
-12 0 -12 0 10 -12 10 -13 7 -48 7 -47 9 -6 9 -5 0 -12 0 -12 -10 15 -10 15 0
-28 0 -28 13 7 12 7 -12 -14 -13 -13 0 -82 0 -83 -10 -6 -11 -7 -15 13 -15 12
5 13 5 13 -15 -6 -14 -5 0 11 0 11 15 0 15 0 0 30 0 29 -15 -5 -15 -6 0 10 0
10 13 5 12 4 -8 9 -8 8 -9 -14 -10 -15 -3 -10 -4 -10 -9 9 -9 9 13 4 12 5 0 8
0 8 -14 5 -15 6 5 -13 5 -13 -16 -13 -15 -12 -15 12 -16 13 5 14 6 14 -11 -6
-10 -7 7 -21 7 -22 -17 14 -17 14 5 13 5 13 -13 -5 -13 -5 -12 15 -13 15 5 9
6 8 -9 14 -9 14 -8 -7 -7 -8 13 -8 13 -9 -13 -4 -14 -5 25 -21 25 -20 -8 -8
-8 -8 -9 14 -9 14 -8 -7 -7 -8 14 -10 15 -9 -15 -10 -15 -10 14 -9 13 -9 -13
-5 -14 -5 15 -11 15 -11 -15 -9 -14 -10 7 -8 8 -7 9 14 9 14 8 -7 7 -8 -14
-10 -15 -9 14 -9 13 -9 -13 -4 -14 -5 8 -9 8 -8 10 14 9 15 9 -15 10 -14 8 7
7 8 -14 9 -15 10 -10 3 -10 4 7 8 8 8 14 -12 14 -12 6 16 5 15 -5 15 -6 15 12
0 11 0 -6 -9 -5 -10 11 -7 11 -7 -13 -8 -13 -8 7 -7 7 -7 15 13 15 12 0 -10 0
-11 -20 -6 -20 -6 0 -10 0 -9 8 0 8 0 12 12 12 12 0 -11 0 -11 -12 -6 -13 -6
13 -6 12 -6 0 -10 0 -10 -15 12 -15 13 -21 -27 -20 -26 -7 0 -7 1 -24 20 -25
20 15 10 14 9 -15 10 -15 10 14 9 13 9 -13 4 -13 4 -3 177 -3 176 15 -5 15 -6
0 11 0 11 -12 0 -13 0 15 10 15 10 -15 10 -15 10 15 10 15 10 -15 10 -15 10
14 9 13 9 -13 5 -14 5 15 12 15 12 -12 5 -13 5 0 10 0 10 15 -6 15 -5 0 9 0 9
18 -6 17 -7 -13 16 -13 16 16 6 15 5 0 -13 0 -14 15 -12 15 -12 0 -19 0 -18
15 5 15 6 0 -11 0 -11 -12 0 -13 0 14 -9 15 -9 -15 -18 -14 -18 12 7 12 7 7
-22 8 -23 -2 -12 -3 -11 10 -6 10 -6 6 10 6 10 -12 0 -11 0 11 14 12 14 -11 4
-11 3 -5 60 -5 60 -4 12 -4 11 -19 -5 -20 -5 -7 13 -8 12 11 -7 12 -7 0 9 0
10 -14 11 -15 12 -22 -11 -21 -12 6 11 7 11 -8 0 -8 0 -15 -11 -15 -11 12 -4
11 -5 -24 -26 -24 -26 6 -20 6 -20 -11 7 -11 7 0 -10 0 -10 -14 5 -14 5 -7
-10 -6 -11 15 6 16 6 0 -10 0 -10 -12 -5 -13 -5 14 -10 13 -9 -10 -7 -11 -6
-13 18 -13 18 -10 6 -11 7 0 -19 0 -19 9 6 8 5 13 -11 14 -11 0 -25 -1 -25
-13 -11 -13 -11 -11 7 -10 6 0 -5 0 -5 16 -16 16 -16 -6 -7 -7 -6 -9 14 -10
15 0 -13 0 -13 -11 7 -11 7 13 8 14 9 -14 9 -13 9 10 6 9 6 1 25 0 25 -10 6
-10 7 13 9 14 10 -13 5 -12 5 6 9 5 9 17 0 17 0 28 25 27 26 0 2 0 3 -19 0
-19 0 5 -12 4 -11 -16 -13 -15 -13 -7 7 -7 7 14 9 14 8 -13 15 -12 15 13 5 13
5 -15 12 -15 12 18 -6 17 -5 0 9 0 9 15 -5 15 -6 0 10 0 10 -12 4 -13 5 18 17
17 17 0 5 0 5 -11 -6 -10 -7 -17 15 -17 14 -20 0 -20 0 -17 -15 -18 -15 -15
13 -15 12 0 -13 0 -14 -10 15 -9 14 -8 -7 -7 -8 14 -9 14 -9 -24 -21 -24 -21
13 -8 13 -9 -13 -4 -14 -5 25 -22 24 -22 -14 -9 -14 -9 7 -8 8 -7 9 14 10 15
0 -14 0 -13 15 12 15 13 8 -8 7 -8 -13 -4 -13 -5 12 -14 11 -14 -11 0 -11 0 0
10 0 10 -9 0 -9 0 0 -22 -1 -23 -4 -22 -3 -21 -12 -15 -12 -14 5 -15 6 -15
-16 -16 -15 -16 10 -6 10 -6 -22 -19 -23 -18 20 -24 20 -23 -25 20 -25 20 -4
3 -5 2 21 15 21 14 0 26 0 25 -14 11 -13 11 -10 -6 -10 -6 -7 11 -7 12 13 -8
13 -8 -6 16 -6 16 13 -5 13 -5 14 17 14 17 -25 -8 -25 -8 25 21 25 20 -24 26
-24 26 13 0 14 0 -11 11 -12 12 22 17 21 18 -13 16 -13 15 -29 -3 -29 -3 6 8
5 9 35 -5 36 -4 -12 14 -12 14 -27 -3 -27 -3 0 17 0 17 27 -3 27 -3 9 12 9 12
2 22 1 23 -22 15 -21 15 8 0 9 0 19 -17 18 -16 7 7 7 7 -14 9 -14 9 8 8 9 8 4
-12 5 -13 10 0 10 0 -6 16 -6 15 12 -7 11 -7 -7 18 -7 19 21 -19 21 -19 17 18
17 18 -22 -6 -21 -7 -7 10 -6 11 14 -6 15 -5 7 11 8 12 8 -13 9 -14 10 15 9
15 44 1 44 1 -3 -28 -4 -28 9 -5 8 -6 -3 30 -4 29 18 10 17 10 -312 1 -313 0
0 -640z m310 520 l0 -10 -10 0 -10 0 0 10 0 10 10 0 10 0 0 -10z m30 0 l0 -10
-10 0 -10 0 0 10 0 10 10 0 10 0 0 -10z m-70 -30 l0 -10 -4 0 -5 0 -6 10 -6
10 10 0 11 0 0 -10z m40 0 l0 -10 -10 0 -10 0 0 10 0 10 10 0 10 0 0 -10z m30
0 l0 -10 -10 0 -10 0 0 10 0 10 10 0 10 0 0 -10z m191 -6 l11 -14 -11 -14 -11
-13 -25 0 -25 0 -11 13 -11 13 14 14 13 15 22 0 23 0 11 -14z m-101 -13 l0 -9
-11 -4 -11 -4 -4 -31 -4 -32 16 -16 16 -16 -7 -7 -8 -7 -4 13 -5 12 -12 13
-12 12 -1 23 -2 22 9 0 9 0 6 20 6 20 10 0 9 0 0 -9z m-160 -21 l0 -10 -10 0
-10 0 0 10 0 10 10 0 10 0 0 -10z m187 -1 l11 -11 -5 -18 -5 -19 -14 6 -14 5
0 -10 0 -10 13 -5 12 -4 -7 -8 -8 -8 -14 12 -15 12 1 22 2 22 9 13 9 12 7 0 7
0 11 -11z m-187 -69 l0 -10 -10 0 -10 0 0 10 0 10 10 0 10 0 0 -10z m40 6 l0
-5 -10 -6 -10 -6 0 10 0 11 10 0 10 0 0 -4z m180 -6 l0 -10 -4 0 -5 0 -6 10
-6 10 10 0 11 0 0 -10z m250 0 l0 -10 -10 0 -10 0 0 10 0 10 10 0 10 0 0 -10z
m-470 -40 l0 -10 -10 0 -10 0 0 10 0 10 10 0 10 0 0 -10z m220 0 l0 -10 -11 0
-10 0 6 10 6 10 5 0 4 0 0 -10z m-220 -24 l0 -5 -10 -6 -10 -6 0 10 0 11 10 0
10 0 0 -4z m720 -47 l0 -9 -9 0 -9 0 -5 14 -6 15 15 -6 14 -5 0 -9z m-725 1
l6 -10 -10 0 -11 0 0 10 0 10 4 0 5 0 6 -10z m75 0 l0 -10 -11 0 -10 0 6 10 6
10 5 0 4 0 0 -10z m100 -5 l-12 -14 6 -9 6 -10 -14 -11 -13 -11 2 -72 2 -73
-23 -27 -22 -27 -6 6 -5 6 24 19 25 19 0 11 0 10 -17 -13 -18 -14 13 17 14 17
-8 12 -7 12 10 -6 10 -6 -2 52 -2 52 11 14 11 14 1 11 1 11 1 13 2 12 11 0 11
0 -12 -15z m434 -75 l-10 -10 0 20 0 20 10 -10 10 -10 -10 -10z m-429 10 l6
-10 -10 0 -11 0 0 10 0 10 4 0 5 0 6 -10z m104 -11 l-14 -9 14 -9 13 -8 -10
-7 -10 -6 -12 15 -12 15 12 15 12 15 10 -6 10 -6 -13 -9z m-209 -29 l0 -10
-10 0 -10 0 0 10 0 10 10 0 10 0 0 -10z m110 6 l0 -5 -10 -6 -10 -6 0 10 0 11
10 0 10 0 0 -4z m107 -29 l6 -7 -6 -6 -7 -7 -12 11 -13 10 0 -118 0 -118 20
-24 20 -23 -27 24 -27 23 -9 -6 -10 -6 -11 14 -12 14 13 6 13 6 -14 6 -13 6
13 10 14 10 -13 5 -13 5 12 14 11 14 -11 14 -12 14 13 6 13 6 -14 6 -13 6 13
10 14 10 -13 5 -13 5 12 14 11 14 -11 14 -12 14 13 4 13 5 27 -2 28 -2 7 -6z
m-217 -7 l0 -10 -10 0 -10 0 0 10 0 10 10 0 10 0 0 -10z m40 -34 l0 -5 -10 -6
-10 -6 0 10 0 11 10 0 10 0 0 -4z m175 -6 l6 -10 -10 0 -11 0 0 10 0 10 4 0 5
0 6 -10z m-139 -70 l0 -20 -9 9 -9 9 6 11 7 11 2 0 3 0 0 -20z m-76 0 l0 -10
-10 0 -10 0 0 10 0 10 10 0 10 0 0 -10z m220 6 l0 -5 -10 -6 -10 -6 0 10 0 11
10 0 10 0 0 -4z m360 -6 l0 -10 -10 0 -10 0 0 10 0 10 10 0 10 0 0 -10z m40 0
l0 -10 -10 0 -10 0 0 10 0 10 10 0 10 0 0 -10z m30 0 l0 -10 -10 0 -10 0 0 10
0 10 10 0 10 0 0 -10z m-586 -50 l-10 -10 0 20 0 20 10 -10 10 -10 -10 -10z
m-24 10 l0 -10 -11 0 -10 0 6 10 6 10 5 0 4 0 0 -10z m175 0 l6 -10 -10 0 -11
0 0 10 0 10 4 0 5 0 6 -10z m123 -30 l3 -33 -10 -10 -10 -10 -15 12 -15 12 1
22 2 22 9 13 10 13 11 -4 11 -4 3 -33z m242 31 l0 -9 -14 -5 -15 -6 6 15 5 14
9 0 9 0 0 -9z m40 0 l0 -9 -12 -6 -13 -6 14 -6 13 -6 -13 -9 -14 -9 15 -10 15
-10 -15 -10 -15 -10 15 -10 15 -10 -14 -9 -13 -9 13 -4 13 -4 -27 -29 -26 -29
-8 8 -7 7 14 10 15 11 -12 5 -13 5 0 10 0 10 18 -6 17 -6 -17 14 -18 13 0 8 0
7 13 -5 13 -5 0 18 0 18 -13 -5 -13 -5 0 10 0 10 13 5 12 5 -15 12 -15 12 18
-6 17 -5 0 18 0 18 7 6 6 7 9 0 8 0 0 -9z m30 -1 l0 -10 -10 0 -10 0 0 10 0
10 10 0 10 0 0 -10z m-610 -70 l0 -10 -4 0 -5 0 -6 10 -6 10 10 0 11 0 0 -10z
m360 0 l0 -10 -10 0 -10 0 0 10 0 10 10 0 10 0 0 -10z m40 0 l0 -10 -10 0 -10
0 0 10 0 10 10 0 10 0 0 -10z m210 0 l0 -10 -10 0 -10 0 0 10 0 10 10 0 10 0
0 -10z m-300 -20 l0 -10 -10 0 -10 0 0 10 0 10 10 0 10 0 0 -10z m144 -35 l20
-15 -7 -7 -7 -6 -19 17 -18 17 -9 -2 -9 -1 -12 1 -13 1 0 10 0 9 17 -6 16 -6
-8 12 -7 13 18 -11 19 -11 19 -15z m-454 15 l0 -10 -11 0 -10 0 6 10 6 10 5 0
4 0 0 -10z m110 0 l0 -10 -11 0 -10 0 6 10 6 10 5 0 4 0 0 -10z m30 0 l0 -10
-10 0 -10 0 0 10 0 10 10 0 10 0 0 -10z m470 0 l0 -10 -10 0 -10 0 0 10 0 10
10 0 10 0 0 -10z m-441 -24 l12 -14 -14 -5 -13 -5 0 19 0 19 2 0 2 0 11 -14z
m-59 -6 l0 -10 -11 0 -10 0 6 10 6 10 5 0 4 0 0 -10z m30 0 l0 -10 -10 0 -10
0 0 10 0 10 10 0 10 0 0 -10z m301 -7 l12 -12 -12 -14 -11 -14 -25 0 -25 0 0
7 0 8 13 6 12 6 -12 6 -13 6 0 7 0 7 25 -1 24 0 12 -12z m169 7 l0 -10 -10 0
-10 0 0 10 0 10 10 0 10 0 0 -10z m-500 -40 l0 -10 -4 0 -5 0 -6 10 -6 10 10
0 11 0 0 -10z m30 0 l0 -10 -10 0 -10 0 0 10 0 10 10 0 10 0 0 -10z m40 6 l0
-5 -10 -6 -10 -6 0 10 0 11 10 0 10 0 0 -4z m290 -5 l0 -9 -12 -6 -13 -6 14
-6 13 -6 -13 -10 -14 -10 13 -5 13 -5 -13 -16 -13 -15 13 -4 12 -5 0 -11 0
-10 -24 22 -25 23 -9 -6 -10 -6 -12 15 -12 15 13 1 14 1 13 -1 12 -2 0 11 0
10 -12 1 -13 1 -14 -1 -13 -2 13 14 14 15 7 -12 7 -11 18 22 18 23 8 0 7 0 0
-9z m110 0 l0 -9 -12 -6 -13 -6 14 -6 13 -6 -13 -10 -14 -10 13 -5 13 -5 -13
-16 -13 -15 13 -4 12 -5 0 -10 0 -10 -16 13 -16 13 -8 -14 -9 -14 -8 8 -8 9
13 4 12 5 0 10 0 10 -15 -6 -15 -5 0 4 0 4 17 17 18 17 -12 4 -12 4 22 24 22
24 8 0 7 1 0 -9z m30 -1 l0 -10 -4 0 -5 0 -6 10 -6 10 10 0 11 0 0 -10z m-288
-32 l-12 -12 0 -9 0 -8 8 5 8 5 0 -20 0 -20 -12 15 -11 16 -8 0 -7 0 5 -13 5
-13 -17 0 -17 0 0 17 0 17 11 -4 11 -5 19 21 18 20 6 0 5 0 -12 -12z m-182
-38 l0 -10 -11 0 -10 0 6 10 6 10 5 0 4 0 0 -10z m40 0 l0 -10 -10 0 -10 0 0
10 0 10 10 0 10 0 0 -10z m70 0 l0 -10 -11 0 -10 0 6 10 6 10 5 0 4 0 0 -10z
m360 0 l0 -10 -11 0 -10 0 6 10 6 10 5 0 4 0 0 -10z m-470 -40 l0 -10 -4 0 -5
0 -6 10 -6 10 10 0 11 0 0 -10z m40 6 l0 -5 -10 -6 -10 -6 0 10 0 11 10 0 10
0 0 -4z m110 -6 l0 -10 -10 0 -10 0 0 10 0 10 10 0 10 0 0 -10z m110 0 l0 -10
-10 0 -10 0 0 10 0 10 10 0 10 0 0 -10z m30 0 l0 -10 -10 0 -10 0 0 10 0 10
10 0 10 0 0 -10z m330 0 l0 -10 -10 0 -10 0 0 10 0 10 10 0 10 0 0 -10z m-470
-24 l0 -5 -10 -6 -10 -6 0 10 0 11 10 0 10 0 0 -4z m110 -6 l0 -10 -10 0 -10
0 0 10 0 10 10 0 10 0 0 -10z m30 6 l0 -5 -10 -6 -10 -6 0 10 0 11 10 0 10 0
0 -4z m110 -6 l0 -10 -10 0 -10 0 0 10 0 10 10 0 10 0 0 -10z m110 0 l0 -10
-10 0 -10 0 0 10 0 10 10 0 10 0 0 -10z m110 6 l0 -5 -10 -6 -10 -6 0 10 0 11
10 0 10 0 0 -4z m-336 -55 l-7 -6 -5 14 -4 13 -9 -13 -8 -13 -8 7 -7 8 14 9
14 9 13 -11 13 -11 -6 -6z m259 14 l-5 -16 -5 5 -5 5 7 10 6 11 4 0 4 0 -6
-15z m-393 -5 l0 -10 -4 0 -5 0 -6 10 -6 10 10 0 11 0 0 -10z m70 0 l0 -10
-11 0 -10 0 6 10 6 10 5 0 4 0 0 -10z m110 0 l0 -10 -11 0 -10 0 6 10 6 10 5
0 4 0 0 -10z m21 -13 l-12 -12 7 18 6 18 6 -6 6 -5 -13 -13z m89 13 l0 -10
-10 0 -10 0 0 10 0 10 10 0 10 0 0 -10z m30 0 l0 -10 -10 0 -10 0 0 10 0 10
10 0 10 0 0 -10z m110 0 l0 -10 -10 0 -10 0 0 10 0 10 10 0 10 0 0 -10z m-320
-64 l0 -5 -10 -6 -10 -6 0 10 0 11 10 0 10 0 0 -4z m70 -6 l0 -10 -4 0 -5 0
-6 10 -6 10 10 0 11 0 0 -10z m70 6 l0 -5 -10 -6 -10 -6 0 10 0 11 10 0 10 0
0 -4z m40 -6 l0 -10 -4 0 -5 0 -6 10 -6 10 10 0 11 0 0 -10z m30 0 l0 -10 -4
0 -5 0 -6 10 -6 10 10 0 11 0 0 -10z"/>
<path d="M470 1110 l0 -10 10 0 10 0 0 10 0 10 -10 0 -10 0 0 -10z"/>
<path d="M500 1110 l0 -10 10 0 10 0 0 10 0 10 -10 0 -10 0 0 -10z"/>
<path d="M430 1070 l0 -10 10 0 10 0 0 10 0 10 -10 0 -10 0 0 -10z"/>
<path d="M495 660 l0 -116 14 14 14 14 -13 8 -12 8 13 5 14 5 -15 11 -15 11
15 10 15 10 -15 10 -15 10 15 11 15 11 -14 5 -13 5 13 9 14 9 -15 10 -15 10
14 9 14 9 -14 14 -14 15 0 -117z"/>
<path d="M650 600 l0 -10 10 0 10 0 0 10 0 10 -10 0 -10 0 0 -10z"/>
<path d="M650 570 l0 -10 10 0 10 0 0 10 0 10 -10 0 -10 0 0 -10z"/>
<path d="M790 460 l0 -10 10 0 10 0 0 10 0 10 -10 0 -10 0 0 -10z"/>
<path d="M810 370 l0 -10 10 0 10 0 0 10 0 10 -10 0 -10 0 0 -10z"/>
<path d="M920 370 l0 -10 10 0 10 0 0 10 0 10 -10 0 -10 0 0 -10z"/>
<path d="M472 1222 l-34 -35 -9 14 -8 14 -16 -22 -15 -22 -14 -14 -14 -13 43
1 43 1 15 13 16 13 10 -7 10 -6 23 26 22 26 12 -5 11 -4 -3 25 -2 25 -7 6 -6
6 -10 -14 -11 -15 -5 13 -5 12 -6 -1 -7 -1 -33 -36z m55 -18 l-32 -32 -7 11
-7 11 -20 -25 -21 -24 -10 15 -10 15 -10 -15 -10 -15 0 10 0 10 10 15 10 15 9
-15 10 -14 32 35 31 36 28 0 28 0 -31 -33z"/>
<path d="M496 1214 l-6 -16 0 -5 0 -4 15 15 15 15 0 5 0 6 -9 0 -9 0 -6 -16z"/>
<path d="M610 1250 l0 -10 10 0 10 0 0 10 0 10 -10 0 -10 0 0 -10z"/>
<path d="M650 1251 l0 -9 13 -5 12 -5 -12 -1 -13 -1 0 -11 0 -11 14 12 15 11
-6 15 -5 14 -9 0 -9 0 0 -9z"/>
<path d="M720 1250 l0 -10 10 0 10 0 0 10 0 10 -10 0 -10 0 0 -10z"/>
<path d="M610 1220 l0 -10 10 0 10 0 0 10 0 10 -10 0 -10 0 0 -10z"/>
<path d="M725 1220 l6 -10 5 0 4 0 0 10 0 10 -11 0 -10 0 6 -10z"/>
<path d="M760 1219 l0 -10 10 6 10 6 0 5 0 4 -10 0 -10 0 0 -11z"/>
<path d="M790 1219 l0 -10 10 6 10 6 0 5 0 4 -10 0 -10 0 0 -11z"/>
<path d="M835 1220 l6 -10 5 0 4 0 0 10 0 10 -11 0 -10 0 6 -10z"/>
<path d="M540 1180 l0 -10 10 0 10 0 0 10 0 10 -10 0 -10 0 0 -10z"/>
<path d="M610 1180 l0 -10 10 0 10 0 0 10 0 10 -10 0 -10 0 0 -10z"/>
<path d="M650 1180 l0 -10 10 0 10 0 0 10 0 10 -10 0 -10 0 0 -10z"/>
<path d="M725 1180 l-6 -10 10 0 11 0 0 10 0 10 -4 0 -5 0 -6 -10z"/>
<path d="M537 1149 l13 -13 5 6 6 6 -18 6 -18 7 12 -12z"/>
<path d="M351 1104 l-13 -15 6 -6 5 -5 16 15 15 16 0 5 0 6 -7 0 -8 -1 -14
-15z"/>
<path d="M615 1110 l6 -10 5 0 4 0 0 10 0 10 -11 0 -10 0 6 -10z"/>
<path d="M650 1109 l0 -10 10 6 10 6 0 5 0 4 -10 0 -10 0 0 -11z"/>
<path d="M725 1070 l-6 -10 10 0 11 0 0 10 0 10 -4 0 -5 0 -6 -10z"/>
<path d="M540 1040 l0 -10 10 0 10 0 0 10 0 10 -10 0 -10 0 0 -10z"/>
<path d="M350 993 l-14 -17 13 -4 13 -4 -13 -9 -13 -8 24 -21 24 -21 -14 -10
-15 -11 13 -5 12 -5 -22 -18 -22 -17 17 -18 18 -17 7 6 6 7 -14 9 -14 9 22 19
23 20 -13 5 -13 5 14 10 14 10 2 30 2 30 -11 -4 -11 -4 -15 11 -15 11 13 5 12
5 0 9 0 9 -7 0 -8 -1 -15 -16z m37 -48 l15 -16 -5 -6 -6 -5 -16 15 -15 16 0 5
0 6 6 0 5 0 16 -15z"/>
<path d="M650 999 l0 -10 10 6 10 6 0 5 0 4 -10 0 -10 0 0 -11z"/>
<path d="M650 930 l0 -10 11 0 10 0 -6 10 -6 10 -5 0 -4 0 0 -10z"/>
<path d="M500 890 l0 -10 10 0 10 0 0 10 0 10 -10 0 -10 0 0 -10z"/>
<path d="M650 889 l0 -10 10 6 10 6 0 5 0 4 -10 0 -10 0 0 -11z"/>
<path d="M725 890 l6 -10 5 0 4 0 0 10 0 10 -11 0 -10 0 6 -10z"/>
<path d="M500 860 l0 -10 10 0 10 0 0 10 0 10 -10 0 -10 0 0 -10z"/>
<path d="M650 860 l0 -10 10 0 10 0 0 10 0 10 -10 0 -10 0 0 -10z"/>
<path d="M610 820 l0 -10 10 0 10 0 0 10 0 10 -10 0 -10 0 0 -10z"/>
<path d="M650 820 l0 -10 11 0 10 0 -6 10 -6 10 -5 0 -4 0 0 -10z"/>
<path d="M725 820 l-6 -10 10 0 11 0 0 10 0 10 -4 0 -5 0 -6 -10z"/>
<path d="M760 820 l0 -10 11 0 10 0 -6 10 -6 10 -5 0 -4 0 0 -10z"/>
<path d="M1195 820 l-6 -10 10 0 11 0 0 10 0 10 -4 0 -5 0 -6 -10z"/>
<path d="M644 751 l0 -17 17 0 17 0 -5 12 -5 12 -12 5 -12 5 0 -17z"/>
<path d="M610 750 l0 -10 10 0 10 0 0 10 0 10 -10 0 -10 0 0 -10z"/>
<path d="M720 750 l0 -10 10 0 10 0 0 10 0 10 -10 0 -10 0 0 -10z"/>
<path d="M760 750 l0 -10 10 0 10 0 0 10 0 10 -10 0 -10 0 0 -10z"/>
<path d="M1195 750 l6 -10 5 0 4 0 0 10 0 10 -11 0 -10 0 6 -10z"/>
<path d="M650 710 l0 -10 10 0 10 0 0 10 0 10 -10 0 -10 0 0 -10z"/>
<path d="M720 710 l0 -10 10 0 10 0 0 10 0 10 -10 0 -10 0 0 -10z"/>
<path d="M760 710 l0 -10 11 0 10 0 -6 10 -6 10 -5 0 -4 0 0 -10z"/>
<path d="M790 710 l0 -10 11 0 10 0 -6 10 -6 10 -5 0 -4 0 0 -10z"/>
<path d="M1195 710 l-6 -10 10 0 11 0 0 10 0 10 -4 0 -5 0 -6 -10z"/>
<path d="M650 680 l0 -10 10 0 10 0 0 10 0 10 -10 0 -10 0 0 -10z"/>
<path d="M720 680 l0 -10 10 0 10 0 0 10 0 10 -10 0 -10 0 0 -10z"/>
<path d="M760 680 l0 -10 10 0 10 0 0 10 0 10 -10 0 -10 0 0 -10z"/>
<path d="M790 680 l0 -10 11 0 10 0 -6 10 -6 10 -5 0 -4 0 0 -10z"/>
<path d="M830 680 l0 -10 10 0 10 0 0 10 0 10 -10 0 -10 0 0 -10z"/>
<path d="M1120 680 l0 -10 11 0 10 0 -6 10 -6 10 -5 0 -4 0 0 -10z"/>
<path d="M1195 680 l-6 -10 10 0 11 0 0 10 0 10 -4 0 -5 0 -6 -10z"/>
<path d="M720 640 l0 -10 10 0 10 0 0 10 0 10 -10 0 -10 0 0 -10z"/>
<path d="M830 640 l0 -10 10 0 10 0 0 10 0 10 -10 0 -10 0 0 -10z"/>
<path d="M1085 640 l6 -10 5 0 4 0 0 10 0 10 -11 0 -10 0 6 -10z"/>
<path d="M1150 639 l0 -10 10 6 10 6 0 5 0 4 -10 0 -10 0 0 -11z"/>
<path d="M1195 640 l6 -10 5 0 4 0 0 10 0 10 -11 0 -10 0 6 -10z"/>
<path d="M1226 633 l-7 -18 12 12 13 13 -6 5 -6 6 -6 -18z"/>
<path d="M830 600 l0 -10 10 0 10 0 0 10 0 10 -10 0 -10 0 0 -10z"/>
<path d="M1010 600 l0 -10 11 0 10 0 -6 10 -6 10 -5 0 -4 0 0 -10z"/>
<path d="M1085 600 l-6 -10 10 0 11 0 0 10 0 10 -4 0 -5 0 -6 -10z"/>
<path d="M1120 600 l0 -10 11 0 10 0 -6 10 -6 10 -5 0 -4 0 0 -10z"/>
<path d="M1150 600 l0 -10 11 0 10 0 -6 10 -6 10 -5 0 -4 0 0 -10z"/>
<path d="M1190 600 l0 -10 10 0 10 0 0 10 0 10 -10 0 -10 0 0 -10z"/>
<path d="M830 570 l0 -10 10 0 10 0 0 10 0 10 -10 0 -10 0 0 -10z"/>
<path d="M1010 570 l0 -10 11 0 10 0 -6 10 -6 10 -5 0 -4 0 0 -10z"/>
<path d="M1085 570 l-6 -10 10 0 11 0 0 10 0 10 -4 0 -5 0 -6 -10z"/>
<path d="M1120 570 l0 -10 11 0 10 0 -6 10 -6 10 -5 0 -4 0 0 -10z"/>
<path d="M1150 570 l0 -10 10 0 10 0 0 10 0 10 -10 0 -10 0 0 -10z"/>
<path d="M1190 570 l0 -10 10 0 10 0 0 10 0 10 -10 0 -10 0 0 -10z"/>
<path d="M830 530 l0 -10 10 0 10 0 0 10 0 10 -10 0 -10 0 0 -10z"/>
<path d="M1050 531 l0 -10 10 -6 10 -6 -6 15 -6 16 -4 0 -4 0 0 -9z"/>
<path d="M1080 530 l0 -10 10 0 10 0 0 10 0 10 -10 0 -10 0 0 -10z"/>
<path d="M1117 528 l-4 -13 32 0 32 0 -4 13 -5 12 -8 0 -8 0 -5 -12 -5 -13 -1
13 -1 12 -9 0 -9 0 -5 -12z"/>
<path d="M1190 530 l0 -10 10 0 10 0 0 10 0 10 -10 0 -10 0 0 -10z"/>
<path d="M1010 496 l0 -4 16 -6 15 -6 -6 10 -6 10 -10 0 -9 0 0 -4z"/>
<path d="M640 454 l-13 -15 17 -17 17 -17 20 24 19 23 0 12 0 11 -9 -14 -8
-13 -7 11 -7 11 -8 0 -9 0 -12 -16z m30 -14 l0 -10 -10 0 -10 0 0 10 0 10 10
0 10 0 0 -10z"/>
<path d="M1120 460 l0 -10 10 0 10 0 0 10 0 10 -10 0 -10 0 0 -10z"/>
<path d="M1150 460 l0 -10 10 0 10 0 0 10 0 10 -10 0 -10 0 0 -10z"/>
<path d="M1144 384 l-2 -22 24 21 24 21 0 2 0 2 -23 -2 -22 -1 -1 -21z"/>
<path d="M1030 370 l0 -10 10 0 10 0 0 10 0 10 -10 0 -10 0 0 -10z"/>
<path d="M1091 364 l-13 -15 6 -6 5 -5 16 15 15 16 0 5 0 6 -7 0 -8 -1 -14
-15z"/>
</g>
</svg>
