<?xml version="1.0" standalone="no"?>
<!DOCTYPE svg PUBLIC "-//W3C//DTD SVG 20010904//EN"
 "http://www.w3.org/TR/2001/REC-SVG-20010904/DTD/svg10.dtd">
<svg version="1.0" xmlns="http://www.w3.org/2000/svg"
 width="468pt" height="468pt" viewBox="0 0 468 468"
 preserveAspectRatio="xMidYMid meet">
<metadata>
Created by potrace 1.8, written by Peter Selinger 2001-2007
</metadata>
<g transform="translate(0,468) scale(0.365625,-0.365625)"
fill="#000000" stroke="none">
<path d="M620 1260 l0 -20 -19 0 -19 0 -6 13 -6 12 -6 -12 -6 -13 -79 0 -79 0
0 -10 0 -10 -16 0 -15 0 -16 -15 -15 -16 7 -7 8 -7 4 13 5 12 29 0 29 0 0 -39
0 -39 13 -6 12 -6 -12 -6 -13 -6 0 -45 0 -44 14 -15 15 -14 15 0 16 0 0 -10 0
-10 -10 0 -10 0 0 -16 0 -15 15 -16 16 -15 7 6 6 7 -14 9 -14 9 6 7 7 6 25
-25 26 -26 0 -11 0 -11 14 -15 15 -14 15 0 16 0 0 -10 0 -10 40 0 40 0 0 -10
0 -10 16 0 16 0 28 -30 28 -30 6 0 6 0 0 40 0 40 -30 0 -30 0 0 20 0 20 10 0
10 0 0 10 0 10 -18 0 -18 0 -14 -20 -14 -20 -14 0 -13 0 -15 14 -14 15 0 31 0
31 14 15 15 14 52 0 52 0 18 -22 19 -21 8 8 7 8 -12 4 -13 5 0 17 0 17 20 14
20 14 0 24 0 23 14 15 15 14 15 0 16 0 0 9 0 9 -12 4 -13 5 18 18 19 18 8 -14
9 -13 7 6 6 7 -15 16 -16 15 -23 0 -24 0 -14 20 -14 20 -16 0 -16 0 -14 20
-14 20 -18 0 -18 0 0 -10 0 -10 10 0 10 0 0 -20 0 -20 10 0 10 0 0 -10 0 -10
-30 0 -30 0 0 10 0 10 -20 0 -20 0 0 20 0 20 10 0 10 0 0 20 0 20 30 0 30 0 0
10 0 10 -60 0 -60 0 0 -20z"/>
<path d="M780 1250 l0 -10 20 0 20 0 0 -10 0 -10 19 0 19 0 5 -12 4 -13 8 7 7
7 -25 25 -26 26 -26 0 -25 0 0 -10z"/>
<path d="M820 870 l0 -10 10 0 10 0 0 10 0 10 -10 0 -10 0 0 -10z"/>
<path d="M880 850 l0 -10 20 0 20 0 0 10 0 10 -20 0 -20 0 0 -10z"/>
<path d="M1240 810 l0 -10 10 0 10 0 0 10 0 10 -10 0 -10 0 0 -10z"/>
<path d="M853 745 l-13 -14 0 -36 0 -35 -10 0 -10 0 0 -30 0 -30 -10 0 -10 0
0 -18 0 -18 20 -14 20 -14 0 -18 0 -18 10 0 10 0 0 -20 0 -20 20 0 20 0 0 -50
0 -50 -10 0 -10 0 0 -30 0 -30 -10 0 -10 0 0 -20 0 -20 -10 0 -10 0 0 -18 0
-18 -20 -14 -20 -14 0 -18 0 -18 -10 0 -10 0 0 -20 0 -20 15 0 16 0 34 35 35
34 0 16 0 15 20 0 20 0 0 10 0 10 18 0 18 0 14 20 14 20 14 0 13 0 24 25 25
24 0 11 0 11 25 24 24 25 16 0 15 0 0 20 0 20 10 0 10 0 0 30 0 30 10 0 10 0
0 20 0 20 10 0 10 0 0 15 0 16 -25 24 -24 25 -11 0 -11 0 -15 14 -14 15 0 11
0 11 -14 15 -15 14 -11 0 -12 0 -28 30 -28 30 -64 0 -63 -1 -12 -14z"/>
<path d="M800 730 l0 -10 10 0 10 0 0 10 0 10 -10 0 -10 0 0 -10z"/>
<path d="M700 30 l0 -10 -70 0 -70 0 0 -10 0 -10 80 0 80 0 0 10 0 10 20 0 20
0 0 10 0 10 -30 0 -30 0 0 -10z"/>
</g>
</svg>
