<?xml version="1.0" standalone="no"?>
<!DOCTYPE svg PUBLIC "-//W3C//DTD SVG 20010904//EN"
 "http://www.w3.org/TR/2001/REC-SVG-20010904/DTD/svg10.dtd">
<svg version="1.0" xmlns="http://www.w3.org/2000/svg"
 width="468pt" height="468pt" viewBox="0 0 468 468"
 preserveAspectRatio="xMidYMid meet">
<metadata>
Created by potrace 1.8, written by Peter Selinger 2001-2007
</metadata>
<g transform="translate(0,468) scale(0.365625,-0.365625)"
fill="#000000" stroke="none">
<path d="M410 1270 l15 -12 -12 -5 -13 -5 0 -14 0 -14 25 0 26 0 5 -15 6 -15
9 0 9 0 0 15 0 15 -10 0 -10 0 0 13 0 12 -8 11 -7 11 -25 7 -25 7 15 -11z"/>
<path d="M498 1266 l-17 -17 5 -14 6 -15 8 0 8 0 5 13 5 12 1 -12 1 -13 15 0
15 0 -1 28 -1 27 -5 -12 -5 -13 -8 0 -9 0 -3 17 -3 17 -17 -18z"/>
<path d="M604 1265 l-6 -15 -15 0 -14 0 3 -17 3 -16 12 -4 11 -4 7 30 6 30 17
4 17 5 -18 1 -18 1 -5 -15z"/>
<path d="M651 1261 l-24 -21 -9 0 -8 0 0 -15 0 -15 10 0 11 0 5 15 6 15 14 0
14 0 0 -10 0 -10 15 0 15 0 0 10 0 10 -9 0 -10 0 -3 21 -3 21 -24 -21z"/>
<path d="M780 1270 l15 -10 -15 -10 -15 -10 -15 1 -15 1 13 5 12 5 0 9 0 9
-10 0 -11 0 -13 -12 -13 -12 19 -21 19 -20 13 18 13 17 8 0 8 0 23 -25 23 -25
11 0 10 0 0 15 0 15 14 0 15 0 15 -15 15 -15 10 0 11 0 0 15 0 15 15 0 15 0 0
15 0 15 -24 -6 -24 -6 -12 19 -11 18 -5 -12 -6 -13 -14 15 -15 14 -17 -6 -17
-7 -8 -10 -7 -11 -11 18 -10 17 -12 0 -12 0 15 -10z m75 -29 l-6 -21 -15 0
-14 0 0 7 0 6 18 17 17 17 3 -3 4 -2 -7 -21z m65 -16 l0 -14 -15 5 -15 6 0 9
0 9 15 0 15 0 0 -15z"/>
<path d="M983 1273 l17 -4 0 -10 0 -10 -15 -15 -15 -15 0 -15 0 -14 15 0 15 0
0 9 0 9 -7 5 -8 4 12 -3 12 -3 15 15 15 15 -5 13 -5 14 -22 6 -22 6 -10 -1
-10 -1 18 -5z"/>
<path d="M187 1256 l-6 -14 20 5 19 5 0 -13 0 -14 -6 -23 -6 -23 -21 7 -20 6
-21 23 -21 23 -13 -14 -12 -13 0 -11 0 -10 9 0 9 0 4 9 3 9 14 -15 13 -14 -13
2 -14 1 -11 -1 -12 -1 -6 -25 -6 -25 -10 0 -10 0 0 9 0 9 13 5 12 5 -24 1 -24
1 -13 18 -13 17 -12 -12 -13 -13 22 -20 22 -21 0 -13 0 -14 15 -6 15 -5 0 -12
0 -12 -25 27 -24 26 -6 0 -5 0 0 -15 0 -15 9 0 9 0 5 -14 6 -14 -17 5 -17 4 0
-132 0 -132 13 -4 12 -5 0 -10 0 -10 39 -39 39 -39 7 0 8 0 22 -24 22 -24 36
-13 37 -13 0 -7 0 -7 30 -7 30 -7 0 -8 0 -9 45 -7 45 -6 0 -8 0 -8 35 -6 35
-7 0 -9 0 -9 43 -4 42 -4 -272 -1 -273 -2 0 -255 0 -255 640 0 640 0 0 253 0
254 -361 6 -362 5 -7 13 -8 12 5 16 5 16 -10 -14 -10 -14 -32 0 -32 0 -6 10
-7 10 -27 7 -28 6 0 13 0 12 -10 -15 -9 -15 -14 19 -14 19 -11 -7 -10 -6 -15
15 -15 15 -6 -13 -5 -12 -10 17 -11 16 -30 7 -30 7 0 8 0 9 -22 6 -21 7 -22
24 -22 24 -8 0 -7 0 -24 23 -24 22 0 13 0 12 -9 0 -9 0 -5 22 -6 21 22 23 22
24 12 0 11 0 4 11 4 12 66 1 66 1 26 -27 25 -28 10 0 10 0 14 -14 15 -15 -1
27 0 27 -4 -12 -5 -13 -8 0 -8 0 -5 13 -5 13 76 3 75 2 -17 -16 -17 -17 3 -17
3 -16 19 -3 18 -4 -6 11 -7 11 6 20 6 20 39 6 39 6 5 14 5 14 11 0 11 0 15 14
14 15 0 10 0 11 40 0 40 0 0 -10 0 -10 17 -20 17 -20 23 0 23 0 0 -9 0 -8 31
-7 30 -6 15 -15 15 -15 -10 0 -11 0 0 -10 0 -10 11 0 10 0 13 13 13 13 -16 14
-16 15 60 3 60 3 7 12 8 12 0 -13 0 -13 -15 -5 -15 -6 0 -9 0 -9 10 0 10 0 20
17 20 17 0 9 0 8 16 17 16 16 89 1 89 1 0 -13 0 -13 9 0 9 0 5 13 5 12 -2 -69
-1 -69 -13 -5 -12 -4 0 -14 0 -15 -14 -5 -14 -5 -7 -26 -6 -26 -28 -27 -28
-28 -41 -13 -42 -12 0 -8 0 -8 -35 -7 -35 -6 0 -8 0 -8 -60 -7 -60 -7 0 -9 0
-9 -25 0 -25 0 0 11 0 10 -16 -15 -15 -16 -15 0 -14 0 0 -10 0 -10 30 0 30 0
0 9 0 8 72 7 72 7 6 8 5 9 43 7 42 7 0 8 0 8 30 7 30 7 0 8 0 9 23 7 22 7 33
33 32 33 0 11 0 11 14 5 14 5 7 27 7 27 11 7 12 7 2 129 1 130 -18 -5 -19 -5
6 21 5 21 9 0 9 0 0 15 0 15 -10 0 -11 0 -5 -14 -6 -14 -14 -6 -14 -5 0 4 0 3
32 33 32 32 -24 -8 -25 -8 -7 -11 -8 -11 0 17 0 17 15 15 15 15 0 10 0 11 -5
0 -6 0 -23 -25 -23 -25 -12 0 -12 0 15 -16 16 -16 -4 -46 -4 -47 5 13 5 12 14
0 14 0 0 -10 0 -10 -14 0 -14 0 -5 -19 -5 -19 7 -10 6 -10 25 -5 25 -4 -92 -2
-91 -1 -5 -12 -4 -13 -9 8 -8 8 13 8 13 9 -13 4 -13 4 21 21 20 20 14 7 14 6
-27 -5 -28 -5 -25 6 -25 6 0 9 0 9 20 0 20 0 0 15 0 15 -14 0 -14 0 -5 -12 -5
-13 -1 18 -1 17 -9 0 -10 0 -4 -17 -5 -18 -1 28 -1 27 -9 0 -9 0 -6 -15 -5
-15 -11 0 -10 0 0 16 0 15 -17 -17 -18 -18 -3 17 -3 17 -9 0 -8 0 -4 -12 -4
-12 -53 -1 -52 -1 -7 -10 -7 -10 -17 -7 -18 -6 1 -13 1 -13 5 13 5 12 24 0 24
0 0 -10 0 -10 -40 -6 -40 -7 0 -8 0 -9 -40 0 -40 0 0 10 0 10 -40 6 -40 7 0 8
0 8 -17 4 -18 5 50 -4 50 -4 -15 6 -15 7 -8 13 -7 12 -45 -2 -45 -2 0 13 0 13
49 0 49 0 5 -12 4 -13 97 0 97 1 8 12 7 12 92 6 92 7 0 8 0 9 -65 0 -65 0 0
-9 0 -8 -72 -7 -73 -7 -3 -9 -4 -10 -18 0 -18 0 -4 12 -5 13 -159 1 -159 2 18
-5 18 -5 -4 -11 -4 -12 -28 0 -28 0 -4 12 -4 11 18 4 18 4 -45 0 -45 0 18 -4
17 -3 0 -27 0 -27 -10 15 -10 15 -10 -15 -9 -15 14 -3 15 -3 0 -9 0 -9 -22 -7
-21 -6 -12 16 -12 16 -7 0 -6 0 0 -11 0 -10 17 -17 17 -17 -17 -3 -17 -3 0
-10 0 -9 24 0 24 0 5 13 4 12 0 -30 0 -30 -4 13 -5 12 -86 1 -87 2 30 4 30 5
8 11 9 12 5 -12 5 -13 14 0 14 0 0 9 0 9 -24 6 -24 6 -6 15 -5 15 14 0 15 0 0
24 0 24 -12 5 -13 6 45 -4 45 -4 -12 5 -13 6 0 14 0 14 10 0 10 0 0 14 0 14
-12 5 -13 4 8 8 7 9 15 -20 15 -19 15 20 16 20 9 -15 10 -15 0 13 0 12 15 0
15 0 0 15 0 15 9 0 9 0 5 -14 6 -14 37 3 37 4 8 13 9 13 0 -12 0 -13 10 0 10
0 0 10 0 10 -25 6 -25 6 0 9 0 9 -15 0 -15 0 0 -9 0 -9 15 -6 15 -5 0 -11 0
-11 -21 20 -21 19 7 11 6 11 25 0 24 0 0 10 0 10 -26 0 -27 0 -23 -25 -23 -25
-22 -3 -22 -2 -3 13 -2 13 5 -11 5 -10 9 0 9 0 0 15 0 15 -15 0 -15 0 0 10 0
10 -24 0 -24 0 -5 -14z m-157 -86 l0 -10 -10 0 -10 0 0 10 0 10 10 0 10 0 0
-10z m30 -30 l0 -10 -10 0 -10 0 0 10 0 10 10 0 10 0 0 -10z m30 -30 l0 -10
-10 0 -10 0 0 10 0 10 10 0 10 0 0 -10z m340 0 l0 -10 -12 -1 -13 -1 -22 -2
-23 -3 0 14 0 13 35 0 35 0 0 -10z m-336 -55 l-6 -15 -9 0 -9 0 0 9 0 9 13 5
12 5 2 1 2 1 -5 -15z m176 -5 l0 -10 -10 0 -10 0 0 10 0 10 10 0 10 0 0 -10z
m190 1 l0 -8 39 -7 39 -6 6 -16 6 -16 0 -22 0 -22 -22 -19 -23 -20 -114 0
-114 0 -4 13 -5 12 -14 0 -14 0 0 33 0 32 8 12 7 11 28 7 27 7 0 9 0 9 75 0
75 0 0 -9z m490 -1 l0 -10 23 0 23 0 17 -20 17 -20 0 -20 0 -20 -22 -22 -23
-23 -118 0 -118 0 -9 15 -10 15 0 30 0 30 8 12 7 11 28 7 27 7 0 9 0 9 75 0
75 0 0 -10z m-860 -29 l0 -9 -14 -5 -15 -6 6 15 5 14 9 0 9 0 0 -9z m510 -36
l0 -15 -15 0 -14 0 5 15 6 15 9 0 9 0 0 -15z m70 5 l0 -10 -30 0 -30 0 0 10 0
10 30 0 30 0 0 -10z m34 -5 l5 -15 -14 0 -15 0 0 15 0 15 9 0 9 0 6 -15z
m-581 -52 l-5 -13 -9 0 -9 0 0 10 0 10 -15 0 -15 0 0 -10 0 -10 13 -1 12 -1
-14 -5 -14 -6 -18 -16 -19 -15 0 -13 0 -13 -10 0 -10 0 0 14 0 14 15 6 15 5 0
13 0 13 -10 -15 -9 -14 -8 7 -7 8 13 9 14 8 12 -4 12 -5 6 20 5 20 30 -2 29
-2 -4 -12z m60 10 l-13 -5 -12 5 -13 5 25 0 25 0 -12 -5z"/>
<path d="M288 1011 l-18 -18 1 -24 1 -24 5 15 6 14 18 19 18 19 77 -4 78 -4 4
-12 4 -12 15 0 14 0 -13 -13 -13 -13 -17 -7 -18 -6 1 -13 1 -13 5 13 5 12 22
0 22 0 15 18 15 18 -16 17 -17 17 -11 0 -12 0 0 10 0 10 -87 -1 -88 0 -17 -18z"/>
<path d="M323 985 l-13 -14 0 -11 0 -10 9 0 9 0 6 15 5 15 18 -1 18 -1 -17 -5
-18 -4 0 -9 0 -9 19 -6 19 -6 26 7 26 6 0 8 0 8 -6 16 -6 16 -42 0 -41 -1 -12
-14z"/>
<path d="M800 1020 l0 -10 -13 0 -13 0 -15 -18 -15 -18 11 -11 12 -11 19 24
19 23 68 1 67 0 0 -9 0 -9 19 -5 20 -5 -5 13 -5 13 -25 6 -24 6 0 10 0 10 -60
0 -60 0 0 -10z"/>
<path d="M819 962 l-15 -18 12 -12 13 -12 41 0 41 0 15 14 14 15 0 9 0 10 -16
6 -16 6 -37 0 -37 0 -15 -18z m61 -7 l0 -15 -15 0 -14 0 5 15 6 15 9 0 9 0 0
-15z"/>
<path d="M1040 1260 l0 -10 15 0 15 0 0 10 0 10 -15 0 -15 0 0 -10z"/>
<path d="M1088 1243 l-18 -4 0 -10 0 -9 -17 0 -18 0 -15 -10 -14 -9 7 -8 8 -7
9 14 10 15 0 -12 0 -13 11 0 12 0 22 24 21 23 15 6 14 5 -15 0 -15 0 -17 -5z"/>
<path d="M1150 1231 l0 -9 -26 -6 -26 -7 -14 -14 -14 -14 0 -10 0 -11 9 0 9 0
5 13 5 12 1 -17 1 -18 16 0 16 0 -5 -14 -6 -15 15 6 14 5 0 -16 0 -16 -12 0
-13 0 15 -11 15 -11 -12 -5 -13 -5 0 -14 0 -14 5 0 5 0 21 21 21 21 -13 9 -14
9 13 0 12 0 0 15 0 15 -9 0 -9 0 -6 15 -5 14 14 15 15 15 0 10 0 11 -9 0 -9 0
-6 -15 -5 -15 -13 0 -13 0 11 8 11 7 7 23 7 22 -5 0 -6 0 0 -9z"/>
<path d="M70 1201 l0 -9 14 -5 15 -6 -6 15 -5 14 -9 0 -9 0 0 -9z"/>
<path d="M1023 1183 l-13 -5 0 -9 0 -9 15 0 15 0 0 15 0 15 -2 -1 -3 -1 -12
-5z"/>
<path d="M767 1168 l-4 -13 -169 0 -169 1 78 -3 77 -4 0 -9 0 -10 64 0 64 0 4
10 3 10 83 7 82 6 0 8 0 9 -54 0 -54 0 -5 -12z"/>
<path d="M890 1170 l0 -10 15 0 15 0 0 10 0 10 -15 0 -15 0 0 -10z"/>
<path d="M338 1153 l12 -5 13 5 12 5 -25 0 -25 0 13 -5z"/>
<path d="M970 1140 l0 -9 35 -7 35 -6 0 -9 0 -9 10 0 10 0 0 10 0 10 -25 6
-25 6 0 9 0 9 -20 0 -20 0 0 -10z"/>
<path d="M1070 1140 l0 -10 10 0 10 0 0 10 0 10 -10 0 -10 0 0 -10z"/>
<path d="M130 1080 l0 -10 10 0 10 0 0 10 0 10 -10 0 -10 0 0 -10z"/>
<path d="M1157 1033 l-7 -6 0 -9 0 -8 15 0 15 0 0 15 0 15 -8 0 -9 0 -6 -7z"/>
<path d="M1060 990 l0 -10 20 0 20 0 0 10 0 10 -20 0 -20 0 0 -10z"/>
<path d="M1046 904 l-16 -15 0 -4 0 -3 20 5 20 5 0 9 0 9 25 0 25 0 0 -9 0 -8
30 -6 30 -6 0 -46 0 -45 -10 0 -10 0 -6 -24 -6 -25 -14 -5 -14 -5 0 -11 0 -11
35 34 35 34 0 12 0 11 10 0 10 0 0 40 0 40 -10 0 -10 0 0 14 0 14 -22 6 -23 6
-42 0 -42 0 -15 -16z"/>
<path d="M118 884 l-17 -5 -4 -17 -4 -17 -2 -34 -2 -34 18 -17 18 -16 18 -7
17 -6 0 4 0 4 -21 20 -22 20 5 25 5 26 -13 0 -14 0 0 10 0 10 25 6 25 6 0 9 0
9 20 0 20 0 0 -9 0 -8 39 -7 39 -6 5 -12 5 -13 1 13 1 13 -17 6 -18 7 -6 9 -7
10 -48 3 -49 3 -17 -5z"/>
<path d="M688 861 l-18 -18 0 -11 0 -11 18 6 17 7 8 10 7 11 10 -15 10 -15 0
13 0 12 15 0 15 0 0 -10 0 -10 15 0 15 0 0 9 0 9 -6 16 -6 16 -42 -1 -41 0
-17 -18z"/>
<path d="M1060 871 l0 -9 -55 -7 -55 -6 0 -8 0 -8 -49 -7 -49 -6 -5 -13 -4
-12 -262 0 -262 0 -7 11 -7 11 -39 6 -39 6 -6 10 -6 9 -30 4 -30 3 -3 -40 -3
-39 14 -11 14 -10 7 -22 7 -22 21 -7 21 -6 22 -24 21 -23 70 -12 69 -12 7 -11
7 -11 226 0 226 0 7 10 7 10 50 13 50 13 8 15 8 14 14 0 15 0 0 10 0 10 14 0
14 0 31 31 31 31 0 13 0 13 15 6 15 5 0 25 0 24 -6 16 -6 16 -44 0 -44 0 0 -9z
m37 -33 l-5 -13 -1 19 -1 19 6 -6 6 -6 -5 -13z m-67 -13 l0 -25 -16 0 -16 0 6
16 6 16 0 9 0 9 10 0 10 0 0 -25z m40 10 l0 -15 -15 0 -16 0 13 15 13 14 3 1
2 0 0 -15z m-855 -16 l7 -10 -3 -4 -4 -3 -13 14 -13 14 10 0 10 0 6 -11z m765
-9 l0 -20 -15 0 -15 0 0 14 0 14 13 5 12 5 3 1 2 1 0 -20z m-733 -12 l-5 -13
-1 19 -1 19 6 -6 6 -6 -5 -13z m693 -2 l0 -24 -16 -6 -16 -6 -8 0 -9 0 -4 18
-5 17 -1 -26 -1 -27 -16 -6 -16 -6 -14 0 -14 0 0 15 0 15 -10 0 -10 0 0 14 0
13 52 5 52 5 4 12 4 11 14 0 14 0 0 -24z m-630 -23 l0 -14 -17 3 -18 3 -3 17
-3 16 20 -5 21 -5 0 -15z m796 11 l-16 -15 0 -15 0 -14 -9 0 -9 0 -5 13 -5 12
-1 -18 -1 -19 -12 4 -12 4 -4 13 -4 12 21 6 21 5 0 8 0 9 18 4 17 5 8 1 8 1
-15 -16z m-896 -4 l0 -10 18 -1 17 -1 -12 -5 -13 -5 0 -8 0 -7 40 -7 40 -6 0
-9 0 -9 36 -6 35 -7 -3 -11 -4 -12 -12 -4 -12 -4 -1 19 -1 18 -5 -17 -4 -18
-11 0 -10 0 -5 20 -5 20 -27 -5 -26 -5 13 6 12 6 0 9 0 9 -15 0 -15 0 0 -10 0
-10 -9 0 -9 0 -7 30 -7 30 -9 0 -9 0 0 10 0 10 10 0 10 0 0 -10z m154 -6 l6
-16 0 -9 0 -9 -14 0 -14 0 -6 16 -6 16 0 9 0 9 14 0 14 0 6 -16z m94 -21 l-3
-18 -30 0 -30 0 -3 18 -3 17 36 0 36 0 -3 -17z m142 1 l0 -15 -14 -15 -15 -14
-26 0 -26 0 -15 14 -14 15 0 15 0 16 55 0 55 0 0 -16z m170 2 l0 -14 -6 -16
-6 -16 -40 0 -39 0 -15 14 -14 15 0 15 0 16 60 0 60 0 0 -14z m260 -31 l0 -15
-15 0 -15 0 0 -15 0 -15 -9 0 -9 0 -5 13 -5 12 -1 -18 -1 -17 -25 6 -25 6 0
-15 0 -15 -20 -5 -20 -5 0 13 0 13 -12 5 -13 5 28 1 27 1 0 9 0 9 35 6 35 7 0
14 0 15 25 0 25 0 0 -15z m-617 -52 l-13 -5 0 -14 0 -13 -15 5 -15 6 0 14 0
14 28 -1 27 -1 -12 -5z m65 0 l-18 -4 0 -19 0 -19 -15 5 -15 6 0 13 0 13 13 5
12 5 20 0 20 0 -17 -5z m92 -19 l0 -15 -14 -15 -15 -14 -11 0 -11 0 -15 15
-15 15 13 14 13 15 28 1 27 0 0 -16z m104 1 l5 -15 -5 -15 -6 -15 -34 0 -34 0
0 14 0 14 6 16 6 16 28 0 28 0 6 -15z m102 0 l15 -15 -15 -15 -15 -15 -11 0
-11 0 -15 15 -15 15 13 14 13 15 13 1 13 0 15 -15z m74 11 l0 -4 6 -16 6 -16
-31 0 -31 0 0 20 0 20 25 0 25 0 0 -4z"/>
<path d="M487 854 l-7 -7 0 -12 0 -11 65 1 65 0 -2 15 -3 15 -55 3 -56 3 -7
-7z"/>
</g>
</svg>
