<?xml version="1.0" standalone="no"?>
<!DOCTYPE svg PUBLIC "-//W3C//DTD SVG 20010904//EN"
 "http://www.w3.org/TR/2001/REC-SVG-20010904/DTD/svg10.dtd">
<svg version="1.0" xmlns="http://www.w3.org/2000/svg"
 width="468pt" height="468pt" viewBox="0 0 468 468"
 preserveAspectRatio="xMidYMid meet">
<metadata>
Created by potrace 1.8, written by Peter Selinger 2001-2007
</metadata>
<g transform="translate(0,468) scale(0.365625,-0.365625)"
fill="#000000" stroke="none">
<path d="M130 1265 l0 -15 15 0 15 0 0 15 0 15 -15 0 -15 0 0 -15z"/>
<path d="M720 1265 l0 -15 15 0 15 0 0 15 0 15 -15 0 -15 0 0 -15z"/>
<path d="M850 1265 l0 -15 -10 0 -10 0 0 -25 0 -25 10 0 10 0 0 -15 0 -15 -10
0 -10 0 0 -25 0 -25 10 0 10 0 0 -25 0 -25 26 0 25 0 15 14 14 15 0 10 0 11
30 0 30 0 0 14 0 14 13 5 12 4 -9 9 -9 9 -4 -12 -5 -13 -29 0 -29 0 0 -15 0
-15 -10 0 -10 0 0 -15 0 -15 -15 0 -15 0 0 15 0 15 -15 0 -15 0 0 25 0 25 15
0 15 0 0 -25 0 -25 15 0 15 0 0 15 0 15 10 0 10 0 0 10 0 10 -25 0 -25 0 0 15
0 15 15 0 15 0 0 14 0 14 13 5 12 4 -9 9 -9 9 -4 -12 -5 -13 -14 0 -14 0 0
-15 0 -15 -15 0 -15 0 0 25 0 25 15 0 15 0 0 15 0 15 -15 0 -15 0 0 -15z"/>
<path d="M240 1240 l0 -10 -15 0 -15 0 0 -40 0 -40 15 0 15 0 0 10 0 10 25 0
25 0 0 -10 0 -10 15 0 15 0 0 -15 0 -15 -15 0 -15 0 0 15 0 15 -25 0 -25 0 0
-15 0 -15 25 0 25 0 0 -15 0 -15 15 0 15 0 0 15 0 15 15 0 15 0 0 -15 0 -15
10 0 10 0 0 15 0 15 15 0 15 0 0 40 0 40 -25 0 -25 0 0 15 0 15 -15 0 -15 0 0
10 0 10 -40 0 -40 0 0 -10z m80 -40 l0 -30 25 0 25 0 0 -25 0 -25 -10 0 -10 0
0 15 0 15 -15 0 -15 0 0 10 0 10 -15 0 -15 0 0 15 0 15 -25 0 -25 0 0 15 0 15
40 0 40 0 0 -30z"/>
<path d="M400 1240 l0 -10 15 0 15 0 0 10 0 10 -15 0 -15 0 0 -10z"/>
<path d="M510 1240 l0 -10 -15 0 -15 0 0 -15 0 -15 -15 0 -15 0 0 -25 0 -25
-10 0 -10 0 0 -40 0 -40 -15 0 -15 0 0 10 0 10 -15 0 -15 0 0 -10 0 -10 -25 0
-25 0 0 -30 0 -30 11 0 10 0 15 -14 14 -15 0 -10 0 -11 15 0 15 0 0 -15 0 -15
15 0 15 0 0 15 0 15 10 0 10 0 0 -25 0 -25 -25 0 -25 0 0 -15 0 -15 -25 0 -25
0 0 -15 0 -15 -30 0 -30 0 0 -10 0 -10 -25 0 -25 0 0 -15 0 -15 -25 0 -25 0 0
-15 0 -15 -15 0 -15 0 0 -65 0 -65 15 0 15 0 0 -25 0 -25 10 0 10 0 0 -30 0
-30 15 0 15 0 0 -50 0 -50 15 0 15 0 0 -95 0 -95 -15 0 -15 0 0 -15 0 -15 -15
0 -15 0 0 -10 0 -10 -25 0 -25 0 0 -15 0 -15 -25 0 -25 0 0 -15 0 -15 -15 0
-15 0 0 -10 0 -10 -40 0 -40 0 0 -55 0 -55 615 0 615 0 0 55 0 55 -30 0 -30 0
0 10 0 10 -40 0 -40 0 0 15 0 15 -40 0 -40 0 0 25 0 25 15 0 15 0 0 15 0 15
15 0 15 0 0 15 0 15 -15 0 -15 0 0 25 0 25 15 0 15 0 0 15 0 15 -26 0 -25 0
-15 14 -14 15 0 10 0 11 10 0 10 0 0 25 0 25 -10 0 -10 0 0 15 0 15 10 0 10 0
0 25 0 25 -10 0 -10 0 0 15 0 15 -15 0 -15 0 0 25 0 25 -15 0 -15 0 0 40 0 40
15 0 15 0 0 15 0 15 15 0 15 0 0 65 0 65 25 0 25 0 0 15 0 15 -25 0 -25 0 0
-15 0 -15 -15 0 -15 0 0 15 0 15 -15 0 -15 0 0 15 0 15 -25 0 -25 0 0 10 0 10
-15 0 -15 0 0 15 0 15 40 0 40 0 0 15 0 15 -25 0 -25 0 0 25 0 25 -15 0 -15 0
0 -25 0 -25 -25 0 -25 0 0 10 0 10 15 0 15 0 0 40 0 40 -15 0 -15 0 0 -10 0
-10 -25 0 -25 0 0 -15 0 -15 -30 0 -30 0 0 25 0 25 15 0 15 0 0 15 0 15 15 0
15 0 0 14 0 14 13 5 12 4 -9 9 -9 9 -4 -12 -5 -13 -14 0 -14 0 0 10 0 10 -25
0 -25 0 0 15 0 15 -15 0 -15 0 0 15 0 15 -15 0 -15 0 0 10 0 10 -50 0 -50 0 0
-10z m100 -25 l0 -15 15 0 15 0 0 -40 0 -40 -40 0 -40 0 0 15 0 15 -15 0 -15
0 0 -40 0 -40 -10 0 -10 0 0 36 0 35 14 15 15 14 24 0 25 0 5 -12 4 -13 9 9 9
9 -12 4 -13 5 0 14 0 14 -30 0 -30 0 0 -11 0 -10 -14 -15 -15 -14 -10 0 -11 0
0 -15 0 -15 -15 0 -15 0 0 15 0 15 15 0 15 0 0 25 0 25 15 0 15 0 0 15 0 15
50 0 50 0 0 -15z m110 -80 l0 -15 -15 0 -15 0 0 -15 0 -15 -10 0 -10 0 0 -25
0 -25 10 0 10 0 0 -15 0 -15 30 0 30 0 0 -10 0 -10 -26 0 -25 0 -15 14 -14 15
0 10 0 11 -15 0 -15 0 0 -15 0 -15 -15 0 -15 0 0 -10 0 -10 -10 0 -10 0 0 25
0 25 -15 0 -15 0 0 -15 0 -15 -25 0 -25 0 0 -25 0 -25 10 0 10 0 0 -15 0 -15
-25 0 -25 0 0 40 0 40 -14 0 -14 0 -5 -12 -4 -13 -9 9 -9 9 13 4 12 5 0 29 0
29 15 0 15 0 0 -30 0 -30 15 0 15 0 0 15 0 15 25 0 25 0 0 25 0 25 25 0 25 0
0 -25 0 -25 15 0 15 0 0 40 0 40 15 0 15 0 0 15 0 15 25 0 25 0 0 -15z m-320
-120 l0 -25 -15 0 -15 0 0 25 0 25 15 0 15 0 0 -25z m350 -70 l0 -15 -15 0
-15 0 0 15 0 15 15 0 15 0 0 -15z m-240 -50 l0 -15 10 0 10 0 0 -15 0 -15 -10
0 -10 0 0 -65 0 -65 -15 0 -15 0 0 65 0 65 15 0 15 0 0 15 0 15 -15 0 -15 0 0
-15 0 -15 -15 0 -15 0 0 -25 0 -25 -50 0 -50 0 0 11 0 10 14 15 15 14 25 0 26
0 0 15 0 15 25 0 25 0 0 15 0 15 15 0 15 0 0 -15z m290 0 l0 -15 15 0 15 0 0
-15 0 -15 -15 0 -15 0 0 -50 0 -50 -15 0 -15 0 0 50 0 50 15 0 15 0 0 15 0 15
-15 0 -15 0 0 -11 0 -10 -14 -15 -15 -14 -21 0 -21 0 -15 14 -14 15 0 10 0 11
-15 0 -15 0 0 15 0 15 80 0 80 0 0 -15z m-160 -30 l0 -15 15 0 15 0 0 -65 0
-65 -15 0 -15 0 0 -15 0 -15 -40 0 -40 0 0 15 0 15 -15 0 -15 0 0 -15 0 -15
-10 0 -10 0 0 15 0 15 10 0 10 0 0 65 0 65 15 0 15 0 0 15 0 15 40 0 40 0 0
-15z m290 0 l0 -15 15 0 15 0 0 -65 0 -65 -15 0 -15 0 0 -15 0 -15 -40 0 -40
0 0 15 0 15 -10 0 -10 0 0 65 0 65 10 0 10 0 0 15 0 15 40 0 40 0 0 -15z
m-180 -90 l0 -25 10 0 10 0 0 -30 0 -30 15 0 15 0 0 -25 0 -25 15 0 15 0 0 15
0 15 40 0 40 0 0 -40 0 -40 -40 0 -40 0 0 10 0 10 -15 0 -15 0 0 -10 0 -10
-55 0 -55 0 0 10 0 10 -25 0 -25 0 0 15 0 15 15 0 15 0 0 15 0 15 10 0 10 0 0
65 0 65 30 0 30 0 0 -25z m-300 -30 l0 -25 15 0 15 0 0 -15 0 -15 15 0 15 0 0
-10 0 -10 50 0 50 0 0 -40 0 -40 -10 0 -10 0 0 -15 0 -15 -15 0 -15 0 0 -15 0
-15 -25 0 -25 0 0 -25 0 -25 -15 0 -15 0 0 15 0 15 -15 0 -15 0 0 -15 0 -15
-10 0 -10 0 0 25 0 25 -15 0 -15 0 0 30 0 30 -15 0 -15 0 0 40 0 40 -10 0 -10
0 0 50 0 50 50 0 50 0 0 -25z m-210 -40 l0 -15 -15 0 -15 0 0 -25 0 -25 15 0
15 0 0 -25 0 -25 15 0 15 0 0 25 0 25 -15 0 -15 0 0 25 0 25 15 0 15 0 0 15 0
15 10 0 10 0 0 -25 0 -25 15 0 15 0 0 -40 0 -40 -15 0 -15 0 0 -30 0 -30 -25
0 -25 0 0 30 0 30 -15 0 -15 0 0 25 0 25 -10 0 -10 0 0 40 0 40 25 0 25 0 0
-15z m320 -210 l0 -15 -15 0 -15 0 0 15 0 15 15 0 15 0 0 -15z m210 0 l0 -15
-10 0 -10 0 0 -15 0 -15 -15 0 -15 0 0 -10 0 -10 -40 0 -40 0 0 10 0 10 25 0
25 0 0 15 0 15 15 0 15 0 0 15 0 15 25 0 25 0 0 -15z m-340 -55 l0 -10 -15 0
-15 0 0 10 0 10 15 0 15 0 0 -10z m50 0 l0 -10 -15 0 -15 0 0 10 0 10 15 0 15
0 0 -10z m50 0 l0 -10 -10 0 -10 0 0 10 0 10 10 0 10 0 0 -10z m-210 -95 l0
-25 25 0 25 0 0 -14 0 -14 -12 -6 -13 -6 13 -6 12 -6 0 -14 0 -14 -10 0 -10 0
0 -11 0 -10 14 -15 15 -14 10 0 11 0 0 -15 0 -15 -15 0 -15 0 0 -15 0 -15 -10
0 -10 0 0 15 0 15 -15 0 -15 0 0 15 0 15 -11 0 -10 0 -15 14 -14 15 0 10 0 11
10 0 10 0 0 65 0 65 15 0 15 0 0 -25z m670 -65 l0 -10 -15 0 -15 0 0 10 0 10
15 0 15 0 0 -10z m0 -135 l0 -15 -15 0 -15 0 0 15 0 15 15 0 15 0 0 -15z
m-190 -25 l0 -10 -15 0 -15 0 0 10 0 10 15 0 15 0 0 -10z m110 -25 l0 -15 -15
0 -15 0 0 15 0 15 15 0 15 0 0 -15z m-60 -55 l0 -10 -10 0 -10 0 0 10 0 10 10
0 10 0 0 -10z"/>
<path d="M670 1240 l0 -10 10 0 10 0 0 10 0 10 -10 0 -10 0 0 -10z"/>
<path d="M960 1225 l0 -25 -15 0 -15 0 0 -15 0 -15 15 0 15 0 0 15 0 15 15 0
15 0 0 25 0 25 -15 0 -15 0 0 -25z"/>
<path d="M1040 1240 l0 -10 15 0 15 0 0 10 0 10 -15 0 -15 0 0 -10z"/>
<path d="M110 1215 l0 -15 10 0 10 0 0 -15 0 -15 15 0 15 0 0 15 0 15 -15 0
-15 0 0 15 0 15 -10 0 -10 0 0 -15z"/>
<path d="M750 1215 l0 -15 10 0 10 0 0 15 0 15 -10 0 -10 0 0 -15z"/>
<path d="M1150 1215 l0 -15 10 0 10 0 0 15 0 15 -10 0 -10 0 0 -15z"/>
<path d="M1090 1185 l0 -15 15 0 15 0 0 15 0 15 -15 0 -15 0 0 -15z"/>
<path d="M50 1145 l0 -25 15 0 15 0 0 -15 0 -15 15 0 15 0 0 15 0 15 10 0 10
0 0 15 0 15 -10 0 -10 0 0 -15 0 -15 -15 0 -15 0 0 25 0 25 -15 0 -15 0 0 -25z"/>
<path d="M1040 1160 l0 -10 15 0 15 0 0 10 0 10 -15 0 -15 0 0 -10z"/>
<path d="M1170 1160 l0 -10 15 0 15 0 0 -15 0 -15 -15 0 -15 0 0 -15 0 -15 15
0 15 0 0 -10 0 -10 15 0 15 0 0 10 0 10 25 0 25 0 0 30 0 30 -14 0 -14 0 -6
13 -6 12 -6 -12 -6 -13 -14 0 -14 0 0 10 0 10 -15 0 -15 0 0 -10z m80 -25 l0
-15 -10 0 -10 0 0 -15 0 -15 -15 0 -15 0 0 15 0 15 15 0 15 0 0 15 0 15 10 0
10 0 0 -15z"/>
<path d="M770 1105 l0 -15 15 0 15 0 0 15 0 15 -15 0 -15 0 0 -15z"/>
<path d="M160 1080 l0 -10 -15 0 -15 0 0 -15 0 -15 -10 0 -10 0 0 -25 0 -25
10 0 10 0 0 -15 0 -15 15 0 15 0 0 15 0 15 15 0 15 0 0 -15 0 -15 10 0 10 0 0
-15 0 -15 -25 0 -25 0 0 -25 0 -25 -15 0 -15 0 0 -15 0 -15 15 0 15 0 0 -10 0
-10 11 0 10 0 15 14 14 15 0 10 0 11 -10 0 -10 0 0 15 0 15 25 0 25 0 0 10 0
10 25 0 25 0 0 40 0 40 -10 0 -10 0 0 30 0 30 -30 0 -30 0 0 10 0 10 -25 0
-25 0 0 -10z m50 -25 l0 -15 -10 0 -10 0 0 -15 0 -15 -15 0 -15 0 0 -10 0 -10
-15 0 -15 0 0 25 0 25 15 0 15 0 0 15 0 15 25 0 25 0 0 -15z m30 -40 l0 -25
-25 0 -25 0 0 10 0 10 10 0 10 0 0 15 0 15 15 0 15 0 0 -25z"/>
<path d="M1003 1075 l-13 -14 0 -11 0 -10 -15 0 -15 0 0 -25 0 -25 55 0 55 0
0 -15 0 -15 10 0 10 0 0 -15 0 -15 30 0 30 0 0 15 0 15 -30 0 -30 0 0 15 0 15
15 0 15 0 0 10 0 10 15 0 15 0 0 30 0 30 -30 0 -30 0 0 10 0 10 -37 0 -38 -1
-12 -14z m67 -20 l0 -15 25 0 25 0 0 -15 0 -15 -15 0 -15 0 0 -10 0 -10 -10 0
-10 0 0 25 0 25 -15 0 -15 0 0 -15 0 -15 -25 0 -25 0 0 15 0 15 10 0 10 0 0
15 0 15 30 0 30 0 0 -15z"/>
<path d="M0 1055 l0 -15 25 0 25 0 0 15 0 15 -25 0 -25 0 0 -15z"/>
<path d="M50 975 l0 -15 15 0 15 0 0 15 0 15 -15 0 -15 0 0 -15z"/>
<path d="M320 945 l0 -15 14 0 14 0 5 -12 4 -13 9 9 9 9 -12 4 -13 5 0 14 0
14 -15 0 -15 0 0 -15z"/>
<path d="M960 945 l0 -15 40 0 40 0 0 15 0 15 -40 0 -40 0 0 -15z"/>
<path d="M1170 945 l0 -15 15 0 15 0 0 15 0 15 -15 0 -15 0 0 -15z"/>
<path d="M1230 945 l0 -15 25 0 25 0 0 15 0 15 -25 0 -25 0 0 -15z"/>
<path d="M0 895 l0 -15 15 0 15 0 0 15 0 15 -15 0 -15 0 0 -15z"/>
<path d="M50 895 l0 -15 15 0 15 0 0 15 0 15 -15 0 -15 0 0 -15z"/>
<path d="M240 865 l0 -15 15 0 15 0 0 15 0 15 -15 0 -15 0 0 -15z"/>
<path d="M50 810 l0 -40 15 0 15 0 0 -10 0 -10 11 0 10 0 15 14 14 15 0 21 0
21 -14 15 -15 14 -25 0 -26 0 0 -40z m60 -10 l0 -30 -15 0 -15 0 0 30 0 30 15
0 15 0 0 -30z"/>
<path d="M1070 840 l0 -10 -15 0 -15 0 0 -30 0 -30 15 0 15 0 0 -10 0 -10 25
0 25 0 0 -15 0 -15 15 0 15 0 0 15 0 15 -15 0 -15 0 0 10 0 10 -25 0 -25 0 0
30 0 30 10 0 10 0 0 -15 0 -15 15 0 15 0 0 15 0 15 15 0 15 0 0 10 0 10 -15 0
-15 0 0 -10 0 -10 -15 0 -15 0 0 10 0 10 -10 0 -10 0 0 -10z"/>
<path d="M1200 815 l0 -15 15 0 15 0 0 -15 0 -15 25 0 25 0 0 15 0 15 -25 0
-25 0 0 15 0 15 -15 0 -15 0 0 -15z"/>
<path d="M0 785 l0 -15 15 0 15 0 0 15 0 15 -15 0 -15 0 0 -15z"/>
<path d="M1150 785 l0 -15 10 0 10 0 0 15 0 15 -10 0 -10 0 0 -15z"/>
<path d="M0 680 l0 -40 15 0 15 0 0 25 0 25 10 0 10 0 0 15 0 15 -25 0 -25 0
0 -40z"/>
<path d="M1200 705 l0 -15 15 0 15 0 0 15 0 15 -15 0 -15 0 0 -15z"/>
<path d="M50 650 l0 -40 15 0 15 0 0 40 0 40 -15 0 -15 0 0 -40z"/>
<path d="M1070 680 l0 -10 10 0 10 0 0 10 0 10 -10 0 -10 0 0 -10z"/>
<path d="M1120 680 l0 -10 15 0 15 0 0 10 0 10 -15 0 -15 0 0 -10z"/>
<path d="M1250 680 l0 -10 15 0 15 0 0 10 0 10 -15 0 -15 0 0 -10z"/>
<path d="M110 655 l0 -15 10 0 10 0 0 15 0 15 -10 0 -10 0 0 -15z"/>
<path d="M1170 625 l0 -15 15 0 15 0 0 15 0 15 -15 0 -15 0 0 -15z"/>
<path d="M1120 585 l0 -25 15 0 15 0 0 25 0 25 -15 0 -15 0 0 -25z"/>
<path d="M1243 595 l-13 -14 0 -11 0 -10 10 0 10 0 0 15 0 15 15 0 15 0 0 10
0 10 -12 0 -13 -1 -12 -14z"/>
<path d="M50 575 l0 -15 30 0 30 0 0 15 0 15 -30 0 -30 0 0 -15z"/>
<path d="M0 520 l0 -10 15 0 15 0 0 -15 0 -15 10 0 10 0 0 11 0 10 -14 15 -15
14 -10 0 -11 0 0 -10z"/>
<path d="M1170 495 l0 -15 15 0 15 0 0 15 0 15 -15 0 -15 0 0 -15z"/>
<path d="M1250 495 l0 -15 15 0 15 0 0 15 0 15 -15 0 -15 0 0 -15z"/>
<path d="M80 385 l0 -15 15 0 15 0 0 15 0 15 -15 0 -15 0 0 -15z"/>
<path d="M1200 360 l0 -10 15 0 15 0 0 10 0 10 -15 0 -15 0 0 -10z"/>
<path d="M30 305 l0 -15 10 0 10 0 0 15 0 15 -10 0 -10 0 0 -15z"/>
</g>
</svg>
