<?xml version="1.0" standalone="no"?>
<!DOCTYPE svg PUBLIC "-//W3C//DTD SVG 20010904//EN"
 "http://www.w3.org/TR/2001/REC-SVG-20010904/DTD/svg10.dtd">
<svg version="1.0" xmlns="http://www.w3.org/2000/svg"
 width="468pt" height="468pt" viewBox="0 0 468 468"
 preserveAspectRatio="xMidYMid meet">
<metadata>
Created by potrace 1.8, written by Peter Selinger 2001-2007
</metadata>
<g transform="translate(0,468) scale(0.365625,-0.365625)"
fill="#000000" stroke="none">
<path d="M130 1255 l0 -25 -25 0 -25 0 0 -30 0 -30 -15 0 -15 0 0 -10 0 -10
15 0 15 0 0 -40 0 -40 15 0 15 0 0 -30 0 -30 25 0 25 0 0 -25 0 -25 25 0 25 0
0 -25 0 -25 -10 0 -10 0 0 -15 0 -15 10 0 10 0 0 -15 0 -15 -10 0 -10 0 0 -25
0 -25 -15 0 -15 0 0 15 0 15 -25 0 -25 0 0 -30 0 -30 -30 0 -30 0 0 15 0 15
-10 0 -10 0 0 15 0 15 -15 0 -15 0 0 -55 0 -55 25 0 25 0 0 -15 0 -15 40 0 40
0 0 15 0 15 -10 0 -10 0 0 25 0 25 25 0 25 0 0 -25 0 -25 40 0 40 0 0 -25 0
-25 15 0 15 0 0 40 0 40 10 0 10 0 0 -40 0 -40 15 0 15 0 0 -15 0 -15 25 0 25
0 0 -15 0 -15 15 0 15 0 0 -10 0 -10 25 0 25 0 0 -15 0 -15 15 0 15 0 0 15 0
15 15 0 15 0 0 10 0 10 -15 0 -15 0 0 15 0 15 15 0 15 0 0 11 0 10 14 15 15
14 10 0 11 0 0 15 0 15 -15 0 -15 0 0 -11 0 -10 -14 -15 -15 -14 -10 0 -11 0
0 10 0 10 15 0 15 0 0 30 0 30 10 0 10 0 0 25 0 25 -10 0 -10 0 0 -15 0 -15
-15 0 -15 0 0 15 0 15 -15 0 -15 0 0 15 0 15 -25 0 -25 0 0 25 0 25 15 0 15 0
0 -15 0 -15 10 0 10 0 0 15 0 15 -10 0 -10 0 0 15 0 15 -15 0 -15 0 0 -15 0
-15 -25 0 -25 0 0 15 0 15 -15 0 -15 0 0 10 0 10 -25 0 -25 0 0 30 0 30 10 0
10 0 0 -15 0 -15 15 0 15 0 0 15 0 15 -15 0 -15 0 0 10 0 10 -25 0 -25 0 0 15
0 15 -15 0 -15 0 0 25 0 25 -10 0 -10 0 0 15 0 15 10 0 10 0 0 -15 0 -15 15 0
15 0 0 -10 0 -10 25 0 25 0 0 10 0 10 15 0 15 0 0 -10 0 -10 15 0 15 0 0 50 0
50 -15 0 -15 0 0 15 0 15 15 0 15 0 0 -15 0 -15 10 0 10 0 0 -25 0 -25 15 0
15 0 0 -15 0 -15 -15 0 -15 0 0 -25 0 -25 15 0 15 0 0 -15 0 -15 15 0 15 0 0
15 0 15 -15 0 -15 0 0 15 0 15 25 0 25 0 0 -15 0 -15 15 0 15 0 0 -15 0 -15
-15 0 -15 0 0 -10 0 -10 15 0 15 0 0 10 0 10 15 0 15 0 0 -10 0 -10 -15 0 -15
0 0 -15 0 -15 -15 0 -15 0 0 -25 0 -25 15 0 15 0 0 10 0 10 14 0 14 0 6 -12 6
-13 6 13 6 12 14 0 14 0 0 15 0 15 15 0 15 0 0 11 0 10 14 15 15 14 25 0 26 0
0 15 0 15 10 0 10 0 0 -15 0 -15 15 0 15 0 0 30 0 30 15 0 15 0 0 -15 0 -15
10 0 10 0 0 15 0 15 55 0 55 0 0 -15 0 -15 40 0 40 0 0 -15 0 -15 25 0 25 0 0
15 0 15 15 0 15 0 0 15 0 15 15 0 15 0 0 -15 0 -15 10 0 10 0 0 25 0 25 -25 0
-25 0 0 15 0 15 -40 0 -40 0 0 -15 0 -15 -15 0 -15 0 0 15 0 15 15 0 15 0 0
15 0 15 40 0 40 0 0 10 0 10 -15 0 -15 0 0 15 0 15 -25 0 -25 0 0 15 0 15 -15
0 -15 0 0 25 0 25 -25 0 -25 0 0 -15 0 -15 -15 0 -15 0 0 -25 0 -25 -10 0 -10
0 0 -15 0 -15 -15 0 -15 0 0 -10 0 -10 -25 0 -25 0 0 -15 0 -15 -70 0 -70 0 0
-11 0 -10 -14 -15 -15 -14 -21 0 -21 0 -15 14 -14 15 0 10 0 11 10 0 10 0 0
15 0 15 15 0 15 0 0 -30 0 -30 15 0 15 0 0 30 0 30 25 0 25 0 0 10 0 10 15 0
15 0 0 -10 0 -10 36 0 35 0 15 14 14 15 0 10 0 11 15 0 15 0 0 40 0 40 -15 0
-15 0 0 -11 0 -10 -14 -15 -15 -14 -10 0 -11 0 0 -15 0 -15 -55 0 -55 0 0 -15
0 -15 -10 0 -10 0 0 15 0 15 -15 0 -15 0 0 -15 0 -15 -55 0 -55 0 0 -10 0 -10
-10 0 -10 0 0 25 0 25 -15 0 -15 0 0 15 0 15 -25 0 -25 0 0 10 0 10 -29 0 -29
0 -5 -12 -4 -13 -9 9 -9 9 13 4 12 5 0 14 0 14 -80 0 -80 0 0 -25z m780 -40
l0 -15 -15 0 -15 0 0 15 0 15 15 0 15 0 0 -15z m-30 -55 l0 -10 -15 0 -15 0 0
10 0 10 15 0 15 0 0 -10z m-560 -25 l0 -15 -15 0 -15 0 0 15 0 15 15 0 15 0 0
-15z m190 0 l0 -15 -15 0 -15 0 0 -15 0 -15 11 0 10 0 15 -14 14 -15 0 -10 0
-11 -25 0 -25 0 0 15 0 15 -15 0 -15 0 0 25 0 25 15 0 15 0 0 15 0 15 15 0 15
0 0 -15z m-220 -295 l0 -10 30 0 30 0 0 -15 0 -15 25 0 25 0 0 -15 0 -15 25 0
25 0 0 -10 0 -10 15 0 15 0 0 -15 0 -15 -15 0 -15 0 0 15 0 15 -10 0 -10 0 0
-30 0 -30 -15 0 -15 0 0 40 0 40 -15 0 -15 0 0 -25 0 -25 -10 0 -10 0 0 25 0
25 -30 0 -30 0 0 15 0 15 -10 0 -10 0 0 15 0 15 -15 0 -15 0 0 10 0 10 25 0
25 0 0 -10z m80 -160 l0 -10 -10 0 -10 0 0 10 0 10 10 0 10 0 0 -10z m80 -25
l0 -15 -10 0 -10 0 0 15 0 15 10 0 10 0 0 -15z"/>
<path d="M1070 1200 l0 -50 10 0 10 0 0 10 0 10 15 0 15 0 0 -10 0 -10 15 0
15 0 0 10 0 10 -15 0 -15 0 0 15 0 15 15 0 15 0 0 15 0 15 -15 0 -15 0 0 10 0
10 -25 0 -25 0 0 -50z m50 15 l0 -15 -15 0 -15 0 0 15 0 15 15 0 15 0 0 -15z"/>
<path d="M1170 1200 l0 -50 15 0 15 0 0 10 0 10 15 0 15 0 0 -10 0 -10 10 0
10 0 0 50 0 50 -10 0 -10 0 0 -25 0 -25 -15 0 -15 0 0 25 0 25 -15 0 -15 0 0
-50z"/>
<path d="M290 1055 l0 -15 15 0 15 0 0 15 0 15 -15 0 -15 0 0 -15z"/>
<path d="M830 1025 l0 -15 -15 0 -15 0 0 -10 0 -10 -14 0 -14 0 -5 13 -4 12
-9 -9 -9 -9 13 -4 12 -5 0 -14 0 -14 -10 0 -10 0 0 -15 0 -15 -15 0 -15 0 0
30 0 30 -15 0 -15 0 0 -40 0 -40 -10 0 -10 0 0 10 0 10 -15 0 -15 0 0 15 0 15
15 0 15 0 0 15 0 15 -15 0 -15 0 0 -15 0 -15 -15 0 -15 0 0 -15 0 -15 15 0 15
0 0 -50 0 -50 -25 0 -25 0 0 -15 0 -15 -15 0 -15 0 0 -15 0 -15 15 0 15 0 0
15 0 15 40 0 40 0 0 11 0 10 14 15 15 14 10 0 11 0 0 15 0 15 15 0 15 0 0 15
0 15 105 0 105 0 0 -15 0 -15 55 0 55 0 0 -15 0 -15 -15 0 -15 0 0 -10 0 -10
25 0 25 0 0 -55 0 -55 15 0 15 0 0 -15 0 -15 -25 0 -25 0 0 -10 0 -10 25 0 25
0 0 -15 0 -15 15 0 15 0 0 40 0 40 -15 0 -15 0 0 15 0 15 11 0 10 0 15 14 14
15 0 35 0 36 -10 0 -10 0 0 15 0 15 -15 0 -15 0 0 15 0 15 -15 0 -15 0 0 10 0
10 -25 0 -25 0 0 15 0 15 -15 0 -15 0 0 15 0 15 -10 0 -10 0 0 -15 0 -15 -15
0 -15 0 0 25 0 25 -15 0 -15 0 0 -25 0 -25 -10 0 -10 0 0 25 0 25 -15 0 -15 0
0 -10 0 -10 -25 0 -25 0 0 10 0 10 10 0 10 0 0 15 0 15 -10 0 -10 0 0 -15z m0
-50 l0 -15 -15 0 -15 0 0 15 0 15 15 0 15 0 0 -15z"/>
<path d="M350 1000 l0 -10 10 0 10 0 0 10 0 10 -10 0 -10 0 0 -10z"/>
<path d="M400 975 l0 -15 15 0 15 0 0 15 0 15 -15 0 -15 0 0 -15z"/>
<path d="M1040 975 l0 -15 25 0 25 0 0 -15 0 -15 15 0 15 0 0 15 0 15 -15 0
-15 0 0 15 0 15 -25 0 -25 0 0 -15z"/>
<path d="M350 945 l0 -15 10 0 10 0 0 15 0 15 -10 0 -10 0 0 -15z"/>
<path d="M560 905 l0 -25 15 0 15 0 0 -15 0 -15 10 0 10 0 0 15 0 15 -10 0
-10 0 0 25 0 25 -15 0 -15 0 0 -25z"/>
<path d="M480 895 l0 -15 15 0 15 0 0 15 0 15 -15 0 -15 0 0 -15z"/>
<path d="M480 840 l0 -10 15 0 15 0 0 10 0 10 -15 0 -15 0 0 -10z"/>
<path d="M530 840 l0 -10 15 0 15 0 0 10 0 10 -15 0 -15 0 0 -10z"/>
<path d="M0 665 l0 -25 15 0 15 0 0 -15 0 -15 10 0 10 0 0 -25 0 -25 -10 0
-10 0 0 -14 0 -14 13 -6 12 -6 -13 -6 -12 -6 0 -29 0 -29 -15 0 -15 0 0 -80 0
-80 15 0 15 0 0 30 0 30 10 0 10 0 0 40 0 40 15 0 15 0 0 -30 0 -30 15 0 15 0
0 30 0 30 10 0 10 0 0 10 0 10 -25 0 -25 0 0 15 0 15 15 0 15 0 0 25 0 25 10
0 10 0 0 15 0 15 -10 0 -10 0 0 25 0 25 -15 0 -15 0 0 30 0 30 -15 0 -15 0 0
10 0 10 -25 0 -25 0 0 -25z"/>
<path d="M1070 625 l0 -15 10 0 10 0 0 -50 0 -50 -25 0 -25 0 0 -55 0 -55 15
0 15 0 0 15 0 15 25 0 25 0 0 25 0 25 15 0 15 0 0 -14 0 -14 13 -6 12 -6 -12
-6 -13 -6 0 -14 0 -14 10 0 10 0 0 15 0 15 15 0 15 0 0 10 0 10 -15 0 -15 0 0
15 0 15 -10 0 -10 0 0 15 0 15 -15 0 -15 0 0 10 0 10 15 0 15 0 0 15 0 15 -15
0 -15 0 0 15 0 15 15 0 15 0 0 10 0 10 -15 0 -15 0 0 15 0 15 -25 0 -25 0 0
-15z"/>
<path d="M720 560 l0 -30 -15 0 -15 0 0 -25 0 -25 15 0 15 0 0 -15 0 -15 15 0
15 0 0 15 0 15 10 0 10 0 0 25 0 25 15 0 15 0 0 30 0 30 -40 0 -40 0 0 -30z"/>
<path d="M910 545 l0 -15 -15 0 -15 0 0 -10 0 -10 -15 0 -15 0 0 -30 0 -30 15
0 15 0 0 -10 0 -10 11 0 10 0 15 14 14 15 0 50 0 51 -10 0 -10 0 0 -15z"/>
<path d="M450 465 l0 -15 -25 0 -25 0 0 -10 0 -10 -15 0 -15 0 0 -15 0 -15 15
0 15 0 0 -40 0 -40 -15 0 -15 0 0 -15 0 -15 15 0 15 0 0 -10 0 -10 -15 0 -15
0 0 -15 0 -15 15 0 15 0 0 -55 0 -55 11 0 10 0 15 -14 14 -15 0 -10 0 -11 15
0 15 0 0 15 0 15 15 0 15 0 0 -15 0 -15 10 0 10 0 0 15 0 15 15 0 15 0 0 10 0
10 15 0 15 0 0 30 0 30 -30 0 -30 0 0 25 0 25 -10 0 -10 0 0 15 0 15 -15 0
-15 0 0 25 0 25 -15 0 -15 0 0 25 0 25 -10 0 -10 0 0 26 0 25 14 15 15 14 10
0 11 0 0 15 0 15 -15 0 -15 0 0 -15z m30 -265 l0 -10 15 0 15 0 0 -30 0 -30
-30 0 -30 0 0 30 0 30 -10 0 -10 0 0 10 0 10 25 0 25 0 0 -10z"/>
<path d="M1090 386 l0 -14 -12 -5 -13 -4 9 -9 9 -9 4 13 5 12 14 0 14 0 0 -25
0 -25 -40 0 -40 0 0 -15 0 -15 25 0 25 0 0 -10 0 -10 -25 0 -25 0 0 10 0 10
-25 0 -25 0 0 30 0 30 -40 0 -40 0 0 10 0 10 -120 0 -120 0 0 -10 0 -10 -15 0
-15 0 0 -15 0 -15 -15 0 -15 0 0 -65 0 -65 30 0 30 0 0 -30 0 -30 40 0 40 0 0
-10 0 -10 65 0 65 0 0 -30 0 -30 15 0 15 0 0 15 0 15 10 0 10 0 0 15 0 15 69
0 69 0 6 13 6 12 6 -12 6 -13 94 0 94 0 0 80 0 80 -15 0 -15 0 0 10 0 10 15 0
15 0 0 30 0 30 -14 0 -14 0 -6 13 -6 12 -6 -12 -6 -13 -14 0 -14 0 0 10 0 10
-40 0 -40 0 0 15 0 15 -15 0 -15 0 0 -14z m-290 -51 l0 -15 -15 0 -15 0 0 15
0 15 15 0 15 0 0 -15z m50 0 l0 -15 30 0 30 0 0 -15 0 -15 -30 0 -30 0 0 15 0
15 -10 0 -10 0 0 15 0 15 10 0 10 0 0 -15z m-100 -30 l0 -15 -30 0 -30 0 0
-10 0 -10 -10 0 -10 0 0 25 0 25 40 0 40 0 0 -15z m420 0 l0 -15 15 0 15 0 0
15 0 15 25 0 25 0 0 -14 0 -14 -12 -6 -13 -6 13 -6 12 -6 0 -14 0 -14 -10 0
-10 0 0 -14 0 -14 13 -6 12 -6 -12 -6 -13 -6 0 -14 0 -14 -30 0 -30 0 0 14 0
14 -12 6 -13 6 13 6 12 6 0 14 0 14 -10 0 -10 0 0 14 0 14 13 6 12 6 -12 6
-13 6 0 14 0 14 10 0 10 0 0 -15z m-210 -25 l0 -10 -15 0 -15 0 0 10 0 10 15
0 15 0 0 -10z m30 -55 l0 -15 -15 0 -15 0 0 -25 0 -25 -15 0 -15 0 0 -15 0
-15 -25 0 -25 0 0 15 0 15 25 0 25 0 0 25 0 25 15 0 15 0 0 15 0 15 15 0 15 0
0 -15z m100 0 l0 -15 -10 0 -10 0 0 -25 0 -25 -15 0 -15 0 0 -15 0 -15 -25 0
-25 0 0 15 0 15 25 0 25 0 0 40 0 40 25 0 25 0 0 -15z"/>
<path d="M1170 255 l0 -15 15 0 15 0 0 15 0 15 -15 0 -15 0 0 -15z"/>
<path d="M1200 200 l0 -10 15 0 15 0 0 10 0 10 -15 0 -15 0 0 -10z"/>
<path d="M50 335 l0 -15 40 0 40 0 0 -15 0 -15 -25 0 -25 0 0 -10 0 -10 -15 0
-15 0 0 -15 0 -15 55 0 55 0 0 -15 0 -15 -25 0 -25 0 0 -10 0 -10 25 0 25 0 0
10 0 10 40 0 40 0 0 -65 0 -65 15 0 15 0 0 -15 0 -15 25 0 25 0 0 -10 0 -10
15 0 15 0 0 -15 0 -15 80 0 80 0 0 15 0 15 10 0 10 0 0 -15 0 -15 15 0 15 0 0
15 0 15 -14 0 -14 0 -6 13 -6 12 -6 -12 -6 -13 -65 0 -64 0 -15 14 -14 15 0
10 0 11 -30 0 -30 0 0 40 0 40 -10 0 -10 0 0 25 0 25 -15 0 -15 0 0 15 0 15
-25 0 -25 0 0 14 0 14 13 5 12 4 -9 9 -9 9 -4 -12 -5 -13 -14 0 -14 0 0 25 0
25 15 0 15 0 0 15 0 15 -15 0 -15 0 0 -15 0 -15 -15 0 -15 0 0 15 0 15 -40 0
-40 0 0 -15z"/>
<path d="M610 120 l0 -10 15 0 15 0 0 -15 0 -15 15 0 15 0 0 15 0 15 -15 0
-15 0 0 10 0 10 -15 0 -15 0 0 -10z"/>
<path d="M690 95 l0 -15 15 0 15 0 0 -15 0 -15 15 0 15 0 0 15 0 15 -15 0 -15
0 0 15 0 15 -15 0 -15 0 0 -15z"/>
<path d="M770 65 l0 -15 40 0 40 0 0 15 0 15 -40 0 -40 0 0 -15z"/>
</g>
</svg>
