<?xml version="1.0" standalone="no"?>
<!DOCTYPE svg PUBLIC "-//W3C//DTD SVG 20010904//EN"
 "http://www.w3.org/TR/2001/REC-SVG-20010904/DTD/svg10.dtd">
<svg version="1.0" xmlns="http://www.w3.org/2000/svg"
 width="468pt" height="468pt" viewBox="0 0 468 468"
 preserveAspectRatio="xMidYMid meet">
<metadata>
Created by potrace 1.8, written by Peter Selinger 2001-2007
</metadata>
<g transform="translate(0,468) scale(0.365625,-0.365625)"
fill="#000000" stroke="none">
<path d="M110 1225 l0 -55 10 0 10 0 0 -25 0 -25 15 0 15 0 0 -15 0 -15 15 0
15 0 0 -10 0 -10 -15 0 -15 0 0 10 0 10 -15 0 -15 0 0 15 0 15 -10 0 -10 0 0
15 0 15 -15 0 -15 0 0 25 0 25 -15 0 -15 0 0 25 0 25 -10 0 -10 0 0 -50 0 -50
10 0 10 0 0 -30 0 -30 15 0 15 0 0 -10 0 -10 15 0 15 0 0 -15 0 -15 10 0 10 0
0 -11 0 -10 -14 -15 -15 -14 -50 0 -51 0 0 -15 0 -15 15 0 15 0 0 -15 0 -15
-15 0 -15 0 0 -25 0 -25 15 0 15 0 0 -25 0 -25 10 0 10 0 0 10 0 10 40 0 40 0
0 15 0 15 15 0 15 0 0 15 0 15 15 0 15 0 0 10 0 10 25 0 25 0 0 -10 0 -10 -15
0 -15 0 0 -15 0 -15 -10 0 -10 0 0 -15 0 -15 -15 0 -15 0 0 -10 0 -10 -15 0
-15 0 0 -15 0 -15 -10 0 -10 0 0 15 0 15 -15 0 -15 0 0 -30 0 -30 40 0 40 0 0
-10 0 -10 15 0 15 0 0 25 0 25 10 0 10 0 0 15 0 15 15 0 15 0 0 10 0 10 15 0
15 0 0 15 0 15 25 0 25 0 0 40 0 40 -15 0 -15 0 0 15 0 15 15 0 15 0 0 -15 0
-15 15 0 15 0 0 15 0 15 25 0 25 0 0 -15 0 -15 15 0 15 0 0 -15 0 -15 10 0 10
0 0 -40 0 -40 -10 0 -10 0 0 15 0 15 -15 0 -15 0 0 15 0 15 15 0 15 0 0 10 0
10 -15 0 -15 0 0 15 0 15 -25 0 -25 0 0 -15 0 -15 10 0 10 0 0 -50 0 -50 -10
0 -10 0 0 -30 0 -30 -15 0 -15 0 0 -25 0 -25 -15 0 -15 0 0 -40 0 -40 -10 0
-10 0 0 -15 0 -15 -15 0 -15 0 0 -10 0 -10 15 0 15 0 0 -15 0 -15 40 0 40 0 0
25 0 25 -30 0 -30 0 0 15 0 15 40 0 40 0 0 -40 0 -40 -10 0 -10 0 0 -15 0 -15
-40 0 -40 0 0 15 0 15 -15 0 -15 0 0 -40 0 -40 -15 0 -15 0 0 15 0 15 -25 0
-25 0 0 10 0 10 -15 0 -15 0 0 15 0 15 -10 0 -10 0 0 15 0 15 -30 0 -30 0 0
-15 0 -15 -10 0 -10 0 0 -15 0 -15 25 0 25 0 0 -10 0 -10 -25 0 -25 0 0 -15 0
-15 -15 0 -15 0 0 -25 0 -25 15 0 15 0 0 10 0 10 25 0 25 0 0 -10 0 -10 -15 0
-15 0 0 -40 0 -40 15 0 15 0 0 -15 0 -15 25 0 25 0 0 15 0 15 -10 0 -10 0 0
10 0 10 40 0 40 0 0 -10 0 -10 25 0 25 0 0 10 0 10 25 0 25 0 0 15 0 15 -10 0
-10 0 0 15 0 15 -15 0 -15 0 0 10 0 10 15 0 15 0 0 15 0 15 10 0 10 0 0 -15 0
-15 40 0 40 0 0 40 0 40 15 0 15 0 0 15 0 15 15 0 15 0 0 11 0 10 14 15 15 14
25 0 26 0 0 -10 0 -10 -30 0 -30 0 0 -15 0 -15 -10 0 -10 0 0 -15 0 -15 -15 0
-15 0 0 -25 0 -25 15 0 15 0 0 -15 0 -15 10 0 10 0 0 -25 0 -25 -10 0 -10 0 0
-15 0 -15 -30 0 -30 0 0 15 0 15 30 0 30 0 0 25 0 25 -30 0 -30 0 0 -10 0 -10
-40 0 -40 0 0 -15 0 -15 30 0 30 0 0 -11 0 -10 14 -15 15 -14 35 0 36 0 0 10
0 10 15 0 15 0 0 -10 0 -10 -15 0 -15 0 0 -26 0 -25 -14 -15 -15 -14 -24 0
-25 0 -6 13 -6 12 -6 -12 -6 -13 -14 0 -14 0 0 -15 0 -15 -15 0 -15 0 0 -40 0
-40 15 0 15 0 0 15 0 15 15 0 15 0 0 -15 0 -15 10 0 10 0 0 15 0 15 30 0 30 0
0 -15 0 -15 25 0 25 0 0 15 0 15 15 0 15 0 0 -15 0 -15 25 0 25 0 0 15 0 15
15 0 15 0 0 40 0 40 10 0 10 0 0 25 0 25 15 0 15 0 0 -25 0 -25 25 0 25 0 0
10 0 10 15 0 15 0 0 -10 0 -10 40 0 40 0 0 10 0 10 15 0 15 0 0 -10 0 -10 25
0 25 0 0 10 0 10 11 0 10 0 15 -14 14 -15 0 -10 0 -11 15 0 15 0 0 -25 0 -25
-15 0 -15 0 0 -30 0 -30 15 0 15 0 0 -50 0 -50 25 0 25 0 0 10 0 10 30 0 30 0
0 -10 0 -10 25 0 25 0 0 -15 0 -15 15 0 15 0 0 15 0 15 10 0 10 0 0 -15 0 -15
15 0 15 0 0 15 0 15 25 0 25 0 0 25 0 25 15 0 15 0 0 145 0 145 -15 0 -15 0 0
30 0 30 15 0 15 0 0 10 0 10 -40 0 -40 0 0 15 0 15 15 0 15 0 0 15 0 15 -55 0
-55 0 0 10 0 10 25 0 25 0 0 15 0 15 -50 0 -50 0 0 15 0 15 10 0 10 0 0 10 0
10 -40 0 -40 0 0 15 0 15 15 0 15 0 0 15 0 15 -25 0 -25 0 0 -15 0 -15 -30 0
-30 0 0 -15 0 -15 -10 0 -10 0 0 15 0 15 10 0 10 0 0 25 0 25 15 0 15 0 0 15
0 15 25 0 25 0 0 11 0 10 -14 15 -15 14 -10 0 -11 0 0 30 0 30 25 0 25 0 0
-15 0 -15 15 0 15 0 0 -15 0 -15 15 0 15 0 0 -25 0 -25 10 0 10 0 0 40 0 40
-10 0 -10 0 0 15 0 15 -15 0 -15 0 0 10 0 10 15 0 15 0 0 15 0 15 10 0 10 0 0
-15 0 -15 15 0 15 0 0 -25 0 -25 15 0 15 0 0 -55 0 -55 10 0 10 0 0 95 0 95
15 0 15 0 0 -15 0 -15 11 0 10 0 15 -14 14 -15 0 -75 0 -76 -10 0 -10 0 0 -15
0 -15 10 0 10 0 0 15 0 15 15 0 15 0 0 120 0 120 -15 0 -15 0 0 25 0 25 -10 0
-10 0 0 15 0 15 -15 0 -15 0 0 10 0 10 25 0 25 0 0 -10 0 -10 15 0 15 0 0 10
0 10 -15 0 -15 0 0 15 0 15 -25 0 -25 0 0 15 0 15 -55 0 -55 0 0 10 0 10 -170
0 -170 0 0 15 0 15 -30 0 -30 0 0 -15 0 -15 15 0 15 0 0 -10 0 -10 -15 0 -15
0 0 -15 0 -15 -10 0 -10 0 0 -15 0 -15 -30 0 -30 0 0 -40 0 -40 15 0 15 0 0
15 0 15 25 0 25 0 0 -25 0 -25 15 0 15 0 0 -15 0 -15 25 0 25 0 0 -25 0 -25
15 0 15 0 0 -55 0 -55 -15 0 -15 0 0 -25 0 -25 -10 0 -10 0 0 10 0 10 -30 0
-30 0 0 30 0 30 -10 0 -10 0 0 -15 0 -15 -15 0 -15 0 0 -25 0 -25 -25 0 -25 0
0 10 0 10 -15 0 -15 0 0 30 0 30 -15 0 -15 0 0 25 0 25 15 0 15 0 0 -15 0 -15
15 0 15 0 0 30 0 30 -15 0 -15 0 0 10 0 10 -15 0 -15 0 0 15 0 15 30 0 30 0 0
15 0 15 -15 0 -15 0 0 10 0 10 -15 0 -15 0 0 15 0 15 -10 0 -10 0 0 15 0 15
25 0 25 0 0 10 0 10 -15 0 -15 0 0 15 0 15 -25 0 -25 0 0 15 0 15 15 0 15 0 0
10 0 10 -30 0 -30 0 0 -10 0 -10 -25 0 -25 0 0 10 0 10 15 0 15 0 0 15 0 15
-30 0 -30 0 0 -15 0 -15 -10 0 -10 0 0 30 0 30 -15 0 -15 0 0 -15 0 -15 -15 0
-15 0 0 -15 0 -15 -10 0 -10 0 0 15 0 15 -30 0 -30 0 0 11 0 10 -14 15 -15 14
-10 0 -11 0 0 15 0 15 -15 0 -15 0 0 40 0 40 -10 0 -10 0 0 -55z m130 -185 l0
-30 -25 0 -25 0 0 15 0 15 10 0 10 0 0 15 0 15 15 0 15 0 0 -30z m910 -120 l0
-10 -15 0 -15 0 0 10 0 10 15 0 15 0 0 -10z m-140 -25 l0 -15 -10 0 -10 0 0
15 0 15 10 0 10 0 0 -15z m-610 -80 l0 -15 15 0 15 0 0 15 0 15 10 0 10 0 0
-15 0 -15 -10 0 -10 0 0 -25 0 -25 -15 0 -15 0 0 -30 0 -30 -15 0 -15 0 0 -10
0 -10 -25 0 -25 0 0 10 0 10 25 0 25 0 0 15 0 15 -10 0 -10 0 0 15 0 15 25 0
25 0 0 25 0 25 -15 0 -15 0 0 15 0 15 15 0 15 0 0 -15z m160 -150 l0 -25 -15
0 -15 0 0 15 0 15 -10 0 -10 0 0 10 0 10 25 0 25 0 0 -25z m50 -65 l0 -10 -10
0 -10 0 0 10 0 10 10 0 10 0 0 -10z m60 -25 l0 -15 -15 0 -15 0 0 15 0 15 15
0 15 0 0 -15z m-110 -30 l0 -15 -15 0 -15 0 0 15 0 15 15 0 15 0 0 -15z m-370
-80 l0 -15 -30 0 -30 0 0 15 0 15 30 0 30 0 0 -15z m800 0 l0 -15 -15 0 -15 0
0 -10 0 -10 -25 0 -25 0 0 -15 0 -15 -15 0 -15 0 0 -55 0 -55 -15 0 -15 0 0
70 0 70 30 0 30 0 0 10 0 10 25 0 25 0 0 15 0 15 15 0 15 0 0 -15z m-380 -25
l0 -10 15 0 15 0 0 -15 0 -15 -15 0 -15 0 0 15 0 15 -10 0 -10 0 0 10 0 10 10
0 10 0 0 -10z m380 -55 l0 -15 -15 0 -15 0 0 15 0 15 15 0 15 0 0 -15z m-60
-25 l0 -10 -10 0 -10 0 0 10 0 10 10 0 10 0 0 -10z m-180 -40 l0 -30 -15 0
-15 0 0 30 0 30 15 0 15 0 0 -30z m450 -65 l0 -15 -15 0 -15 0 0 15 0 15 15 0
15 0 0 -15z m-190 -30 l0 -15 -10 0 -10 0 0 15 0 15 10 0 10 0 0 -15z m110 0
l0 -15 -25 0 -25 0 0 -25 0 -25 40 0 40 0 0 15 0 15 25 0 25 0 0 -40 0 -40
-15 0 -15 0 0 -15 0 -15 -10 0 -10 0 0 -15 0 -15 -15 0 -15 0 0 15 0 15 -25 0
-25 0 0 25 0 25 -40 0 -40 0 0 30 0 30 25 0 25 0 0 10 0 10 15 0 15 0 0 15 0
15 25 0 25 0 0 -15z"/>
<path d="M270 440 l0 -10 10 0 10 0 0 10 0 10 -10 0 -10 0 0 -10z"/>
<path d="M750 225 l0 -15 -15 0 -15 0 0 -50 0 -50 11 0 10 0 15 14 14 15 0 10
0 11 15 0 15 0 0 -25 0 -25 15 0 15 0 0 10 0 10 40 0 40 0 0 30 0 30 10 0 10
0 0 25 0 25 -25 0 -25 0 0 -15 0 -15 -25 0 -25 0 0 15 0 15 -40 0 -40 0 0 -15z"/>
</g>
</svg>
