<?xml version="1.0" standalone="no"?>
<!DOCTYPE svg PUBLIC "-//W3C//DTD SVG 20010904//EN"
 "http://www.w3.org/TR/2001/REC-SVG-20010904/DTD/svg10.dtd">
<svg version="1.0" xmlns="http://www.w3.org/2000/svg"
 width="468pt" height="468pt" viewBox="0 0 468 468"
 preserveAspectRatio="xMidYMid meet">
<metadata>
Created by potrace 1.8, written by Peter Selinger 2001-2007
</metadata>
<g transform="translate(0,468) scale(0.365625,-0.365625)"
fill="#000000" stroke="none">
<path d="M230 1255 l0 -25 -45 0 -45 0 0 -20 0 -20 -25 0 -25 0 0 -45 0 -45
-20 0 -20 0 0 -45 0 -45 -25 0 -25 0 0 -140 0 -140 25 0 25 0 0 -45 0 -45 20
0 20 0 0 -25 0 -25 25 0 25 0 0 -110 0 -110 -25 0 -25 0 0 -50 0 -50 -20 0
-20 0 0 -90 0 -90 -25 0 -25 0 0 -45 0 -45 90 0 90 0 0 25 0 25 25 0 25 0 0
20 0 20 20 0 20 0 0 -20 0 -20 25 0 25 0 0 -25 0 -25 70 0 70 0 0 25 0 25 20
0 20 0 0 20 0 20 25 0 25 0 0 25 0 25 45 0 45 0 0 -25 0 -25 25 0 25 0 0 -45
0 -45 45 0 45 0 0 70 0 70 20 0 20 0 0 -25 0 -25 25 0 25 0 0 -20 0 -20 20 0
20 0 0 -25 0 -25 50 0 50 0 0 70 0 70 20 0 20 0 0 160 0 160 25 0 25 0 0 20 0
20 20 0 20 0 0 25 0 25 25 0 25 0 0 20 0 20 20 0 20 0 0 25 0 25 25 0 25 0 0
90 0 90 -25 0 -25 0 0 45 0 45 -20 0 -20 0 0 50 0 50 -25 0 -25 0 0 45 0 45
-20 0 -20 0 0 -45 0 -45 -25 0 -25 0 0 -25 0 -25 -20 0 -20 0 0 25 0 25 -25 0
-25 0 0 45 0 45 -25 0 -25 0 0 -115 0 -115 -20 0 -20 0 0 -25 0 -25 -25 0 -25
0 0 -65 0 -65 -20 0 -20 0 0 20 0 20 -45 0 -45 0 0 25 0 25 -50 0 -50 0 0 20
0 20 -90 0 -90 0 0 -20 0 -20 -45 0 -45 0 0 -25 0 -25 -45 0 -45 0 0 25 0 25
-25 0 -25 0 0 20 0 20 -20 0 -20 0 0 95 0 95 20 0 20 0 0 45 0 45 25 0 25 0 0
20 0 20 70 0 70 0 0 -20 0 -20 20 0 20 0 0 -25 0 -25 25 0 25 0 0 90 0 90 -25
0 -25 0 0 25 0 25 -90 0 -90 0 0 -25z m780 -480 l0 -45 -25 0 -25 0 0 45 0 45
25 0 25 0 0 -45z m130 0 l0 -45 -20 0 -20 0 0 45 0 45 20 0 20 0 0 -45z"/>
</g>
</svg>
