<?xml version="1.0" standalone="no"?>
<!DOCTYPE svg PUBLIC "-//W3C//DTD SVG 20010904//EN"
 "http://www.w3.org/TR/2001/REC-SVG-20010904/DTD/svg10.dtd">
<svg version="1.0" xmlns="http://www.w3.org/2000/svg"
 width="468pt" height="468pt" viewBox="0 0 468 468"
 preserveAspectRatio="xMidYMid meet">
<metadata>
Created by potrace 1.8, written by Peter Selinger 2001-2007
</metadata>
<g transform="translate(0,468) scale(0.365625,-0.365625)"
fill="#000000" stroke="none">
<path d="M386 1231 l-18 -20 -26 -3 -26 -3 -28 -40 -27 -40 -1 -16 0 -16 -20
-18 -20 -18 5 -8 5 -8 -9 -6 -10 -5 -14 -28 -14 -27 -28 -50 -27 -49 -19 -27
-19 -27 0 -13 0 -12 -31 -48 -31 -48 7 -11 6 -10 -13 -2 -13 -1 65 -6 65 -6
-27 -14 -26 -13 -9 -37 -10 -36 2 -30 2 -30 11 -27 12 -28 12 -1 13 -1 30 -4
30 -5 35 0 35 0 40 0 40 1 18 -1 17 0 -7 -12 -7 -12 16 13 16 12 95 -2 95 -3
-1 -17 -1 -18 -11 -1 -10 -1 -14 1 -13 2 13 -14 14 -15 7 11 7 11 7 -7 7 -7
-16 -18 -16 -18 24 0 25 0 -10 10 -9 9 10 19 10 19 8 -6 9 -5 10 13 11 13 -20
1 -19 2 0 -10 0 -10 -10 6 -9 6 5 12 4 12 38 -1 37 -2 18 -7 17 -7 13 10 13
11 26 -13 27 -14 6 6 6 6 35 -2 36 -3 14 11 13 12 12 -8 12 -7 -7 11 -7 11 18
10 18 9 8 1 7 1 9 0 9 0 5 13 5 14 -14 0 -13 0 5 -8 4 -8 -11 -7 -12 -7 7 11
6 11 -10 6 -10 6 0 -13 0 -13 -10 15 -9 14 10 12 9 11 -6 16 -6 16 -16 -6 -17
-6 20 17 20 17 -21 -10 -21 -10 -9 7 -8 7 12 -17 13 -16 -13 -4 -13 -5 -1 -31
0 -32 18 17 18 16 7 -6 6 -7 -18 -20 -18 -20 -14 11 -13 11 0 29 0 28 10 25
10 26 20 0 21 0 -5 9 -5 8 25 24 26 24 6 -2 7 -2 -1 14 -2 15 9 -6 9 -5 20 33
20 33 0 15 -1 15 -14 -19 -15 -20 0 10 0 11 -15 0 -15 0 0 -7 0 -6 11 -11 12
-12 -52 3 -51 3 -8 8 -7 8 13 -7 12 -7 0 14 0 14 -18 -2 -17 -1 -13 -8 -12 -7
-1 13 -1 13 1 8 1 7 -8 0 -8 0 -22 -20 -22 -21 0 9 0 8 -42 0 -43 -1 -1 13 -1
12 -2 6 -1 6 -12 -9 -13 -9 -12 0 -13 1 0 7 1 8 6 16 6 16 8 -14 9 -13 0 15 0
15 10 -15 10 -15 0 15 0 15 10 -15 10 -15 10 15 10 15 1 -15 1 -15 -2 -14 -2
-15 16 13 16 13 -4 7 -5 7 39 0 39 0 -6 -9 -6 -9 21 6 20 7 7 -11 6 -10 10 0
10 0 -6 10 -6 10 15 -6 16 -6 0 -10 0 -10 14 11 14 12 7 -11 6 -10 13 0 13 0
0 15 0 15 -6 0 -6 1 -54 4 -55 3 -45 13 -46 13 -6 8 -6 9 -67 2 -67 1 -7 -11
-7 -10 -22 -7 -23 -7 -1 18 -1 18 -5 -15 -5 -15 -15 -12 -14 -11 -32 16 -32
17 -7 10 -7 9 -53 0 -53 0 -15 -5 -15 -4 -5 -6 -5 -6 -57 -10 -58 -10 0 14 0
14 16 27 16 27 -20 -25 -21 -25 -5 -17 -4 -18 9 0 9 0 -2 -12 -3 -13 -15 -12
-15 -12 19 2 19 2 4 -11 4 -11 -13 -1 -13 -1 -34 -6 -33 -5 -9 6 -9 5 7 12 7
12 2 13 2 14 16 17 16 18 0 10 0 11 15 12 15 12 0 18 0 18 15 12 15 12 -6 9
-5 9 10 0 10 0 6 23 7 22 24 32 24 32 0 7 0 6 36 59 35 59 -7 12 -7 13 8 -7 8
-7 28 15 29 15 0 -8 0 -7 15 21 15 22 38 4 37 4 -41 1 -41 2 -17 -19z m16
-420 l7 -1 -5 -15 -6 -15 11 0 11 0 0 13 0 12 8 -11 7 -11 18 3 17 2 -6 -9 -5
-9 -9 5 -9 5 -5 -8 -5 -8 -66 2 -66 3 6 -8 5 -8 -18 0 -17 0 -13 -2 -13 -1 5
-8 5 -8 -32 1 -32 0 -12 8 -11 7 2 18 3 17 54 0 54 0 14 9 14 9 -7 -11 -7 -12
20 0 21 0 0 10 0 10 -12 1 -13 0 20 8 20 8 20 -2 20 -2 7 -2z m228 -21 l0 -10
-16 0 -15 0 6 -9 5 -10 -10 -6 -10 -6 2 13 3 13 -22 -1 -23 -1 5 8 5 8 20 -4
20 -4 0 10 0 9 15 0 15 0 0 -10z m257 -116 l-6 -6 -13 5 -13 5 19 1 19 1 -6
-6z m-547 -37 l75 -3 10 -6 10 -6 36 2 36 2 -2 -20 -2 -21 -2 -8 -1 -8 -10 6
-11 7 11 13 11 13 -16 6 -15 5 4 -26 5 -26 -12 -21 -11 -21 -1 -9 0 -9 -15 -4
-15 -5 15 11 15 11 -12 0 -13 0 0 19 0 20 -11 6 -11 7 -17 -19 -18 -19 3 -17
2 -16 -6 0 -7 1 -5 -2 -5 -2 -43 -2 -43 -2 -6 9 -6 10 11 -7 11 -6 5 9 6 9 35
-3 34 -2 -6 10 -6 10 14 -8 14 -8 -8 9 -8 8 -39 1 -39 1 5 -8 5 -8 -16 0 -16
0 6 9 5 10 -11 7 -12 7 7 -11 6 -11 -11 -7 -12 -7 7 34 6 34 10 3 10 4 -5 9
-6 9 15 -6 16 -6 0 10 0 11 -18 5 -17 6 -22 -4 -23 -5 -5 8 -5 8 -25 -2 -25
-3 0 8 0 8 58 -4 57 -4 75 -3z m205 -17 l6 -10 -16 0 -16 0 6 10 6 10 4 0 4 0
6 -10z m69 -12 l-6 -10 -9 13 -9 14 0 -19 0 -19 -6 6 -6 6 5 15 6 16 16 -6 15
-6 -6 -10z m-474 2 l1 15 14 -19 15 -19 -12 -14 -11 -14 -3 -27 -2 -27 -1 -4
-1 -3 -15 12 -14 12 -10 -7 -11 -6 6 16 6 16 13 -11 12 -10 0 14 0 14 -22 -4
-21 -4 4 35 4 34 17 3 16 4 7 -11 8 -10 0 15z m71 -44 l-18 -49 -5 9 -4 9 1
22 2 21 7 17 6 16 10 -6 10 -6 0 12 0 12 5 -4 5 -5 -19 -48z m444 46 l-11 -7
1 -15 0 -15 17 3 16 2 -3 -17 -3 -18 -2 -2 -2 -3 -2 -12 -1 -11 -14 -5 -14 -5
6 10 6 10 -14 0 -15 0 16 -18 15 -17 -12 -8 -12 -7 7 11 7 12 -10 0 -11 0 -1
-12 -1 -13 -5 13 -5 12 -14 0 -14 0 -1 -12 -1 -13 -5 13 -5 13 -14 -12 -14
-11 0 10 0 11 -20 -4 -20 -4 0 3 0 4 17 13 17 14 -9 -14 -8 -14 14 9 14 8 18
3 18 3 -7 -12 -7 -13 13 12 14 13 15 -13 16 -12 -13 16 -13 17 -49 -3 -50 -3
0 17 0 17 14 20 15 21 18 -2 18 -1 10 -6 10 -6 23 9 22 8 0 11 0 10 18 0 17 0
-10 -8z m190 -13 l-30 -7 13 -1 13 -1 -2 -65 -2 -65 -13 11 -13 11 -10 -7 -11
-6 6 16 7 17 -19 -4 -19 -3 3 25 3 25 17 13 17 13 1 9 2 10 2 8 2 7 0 6 -1 5
32 -5 32 -5 -30 -7z m-142 -9 l-5 -20 -8 -5 -8 -5 2 12 2 13 7 13 8 12 4 0 3
0 -5 -20z m40 8 l-7 -13 -4 -25 -3 -25 -4 -13 -5 -13 -12 7 -13 8 12 -15 13
-16 -13 0 -13 0 -2 25 -2 25 25 34 26 33 5 0 5 0 -8 -12z m177 -67 l0 -9 -23
-15 -24 -15 0 16 0 17 11 7 11 8 13 0 12 0 0 -9z"/>
<path d="M348 794 l-5 -20 27 1 27 0 -5 17 -4 18 -9 0 -9 0 -1 -17 0 -18 -8
19 -8 20 -5 -20z"/>
<path d="M187 766 l-6 -15 16 6 16 6 -6 -10 -6 -10 17 2 17 1 21 12 21 11 6
-5 5 -5 5 8 5 8 -38 0 -38 0 4 -7 5 -8 -8 0 -9 0 -11 11 -10 10 -6 -15z"/>
<path d="M297 614 l4 -12 50 2 49 1 0 8 0 7 -12 1 -13 1 -41 1 -42 2 5 -11z"/>
<path d="M413 625 l7 -8 -14 -16 -15 -16 25 -12 24 -11 0 20 0 19 8 -5 9 -5 0
14 0 15 -19 -17 -19 -17 6 16 6 16 -13 8 -13 7 8 -8z"/>
<path d="M625 589 l-7 -10 5 -5 5 -5 5 16 6 15 -4 0 -4 0 -6 -11z"/>
<path d="M816 497 l6 -18 6 6 6 5 -13 13 -12 12 7 -18z"/>
<path d="M885 520 l-6 -10 15 6 16 6 0 4 0 4 -9 0 -10 0 -6 -10z"/>
<path d="M640 1239 l25 -10 22 -21 23 -21 0 10 0 11 -34 21 -33 21 -14 -1 -14
0 25 -10z"/>
<path d="M915 1210 l70 -7 30 -6 30 -7 -40 14 -40 14 -60 0 -60 -1 70 -7z"/>
<path d="M784 1198 l-4 -7 27 5 28 5 4 5 4 4 -27 -2 -28 -2 -4 -8z"/>
<path d="M1130 1184 l0 -15 -23 -42 -23 -42 -14 -35 -14 -35 -17 -23 -18 -23
6 -15 5 -14 -10 0 -10 0 -7 -22 -8 -23 -2 -20 -3 -20 5 -12 5 -13 9 6 9 5 -7
-17 -6 -17 19 6 19 7 -18 -14 -18 -14 3 -8 3 -9 -10 0 -10 0 2 30 2 29 -9 -14
-9 -14 3 39 4 39 -14 -19 -14 -19 5 -15 6 -14 -13 -9 -13 -8 17 -10 17 -10 -4
-19 -3 -19 16 3 17 3 3 2 2 3 9 1 9 1 8 8 8 8 2 12 2 12 11 28 11 27 3 0 3 0
1 -21 2 -21 -24 -38 -24 -38 -6 -24 -6 -24 -31 -30 -32 -29 -6 0 -6 0 -18 -18
-17 -17 11 0 12 0 -5 -12 -4 -13 9 -18 9 -18 -11 -13 -10 -14 30 3 31 3 23 21
22 21 8 0 8 0 -8 -13 -9 -13 27 31 27 30 -5 18 -5 17 11 0 11 0 -7 -11 -7 -11
20 6 20 6 52 48 51 47 0 8 0 7 -15 0 -15 0 -1 23 -1 22 2 35 2 35 24 32 24 32
0 3 0 4 -52 2 -53 2 -18 -6 -19 -6 6 -5 5 -5 -12 -13 -12 -12 -12 16 -12 16 2
-20 2 -20 -20 3 -20 3 14 -9 13 -9 -8 -6 -9 -5 -13 14 -13 14 13 0 13 0 -15
10 -15 10 13 0 13 0 -2 18 -1 17 1 15 1 15 9 -14 9 -14 -5 -14 -5 -13 10 0 11
0 7 12 7 11 -13 -8 -13 -8 7 12 7 11 11 -6 10 -6 -11 20 -11 21 0 5 0 5 18 -6
17 -6 -19 15 -19 15 7 12 8 12 14 -5 13 -5 4 7 4 7 -8 20 -8 20 0 -17 -1 -18
-10 0 -10 0 0 15 0 15 13 1 12 2 24 -1 24 -1 -6 6 -6 6 18 26 18 26 -8 20 -9
20 3 -25 2 -25 -15 -1 -15 -1 -13 -1 -13 -2 7 -11 7 -11 8 13 8 13 7 -7 7 -7
-5 -5 -5 -6 -20 -3 -20 -4 0 15 0 15 24 11 23 10 0 15 0 14 -17 -13 -17 -14
19 26 20 26 15 -21 14 -21 20 -16 19 -16 -11 -7 -12 -7 0 16 0 16 -10 -6 -10
-6 6 -11 7 -11 -11 7 -12 7 0 -20 0 -20 -10 -6 -10 -6 -10 -19 -10 -19 9 -5 9
-6 22 45 22 45 8 -5 9 -5 25 33 26 34 0 15 0 14 -30 -2 -30 -2 -24 19 -24 19
-6 0 -6 0 0 -16z m98 -64 l-12 -20 -9 9 -9 9 6 11 7 11 15 0 14 0 -12 -20z
m-166 -123 l-11 -13 4 -33 4 -34 -3 4 -3 4 -11 21 -11 21 15 21 15 22 6 0 5 0
-10 -13z m113 -214 l-1 -28 -7 -13 -8 -12 -10 6 -9 5 5 9 5 8 -17 -2 -17 -3
-7 -19 -8 -19 0 15 -1 15 -8 -10 -7 -10 -12 -2 -13 -3 0 10 0 10 16 0 15 0 -6
10 -6 10 17 -7 17 -6 -6 10 -7 11 15 12 15 12 0 -8 0 -8 16 22 15 22 8 -4 7
-5 -1 -28z m-185 6 l0 -10 -10 6 -10 6 0 10 0 10 10 -6 10 -6 0 -10z m178 -65
l9 5 -1 -24 -2 -25 -6 2 -6 3 -26 -24 -25 -24 5 -8 5 -8 -22 4 -23 5 -13 -11
-13 -11 5 -9 6 -8 -23 -12 -22 -12 -18 -21 -17 -21 -1 9 0 9 -18 -16 -18 -16
-1 17 -1 17 -5 27 -4 27 7 11 7 12 6 -17 7 -16 -12 7 -11 7 7 -12 8 -12 14 12
14 11 0 12 0 11 -10 -15 -10 -15 0 9 0 10 21 22 21 23 16 -6 15 -6 -6 17 -7
17 11 -7 11 -7 -7 22 -6 21 11 0 11 0 -7 12 -7 11 14 -9 14 -8 24 -2 24 -1 5
19 5 19 18 -17 18 -16 9 6z"/>
<path d="M1150 790 l-11 -21 -9 6 -9 5 -5 -9 -6 -8 23 1 22 1 -3 -15 -4 -15 8
8 8 8 1 30 1 29 -3 0 -2 0 -11 -20z"/>
<path d="M1132 718 l3 -12 -20 -1 -20 0 -12 -8 -12 -7 -6 10 -6 10 -8 -5 -8
-5 2 -24 3 -25 -15 -5 -15 -6 -8 5 -8 5 -11 -14 -12 -14 10 -6 10 -6 6 10 6
10 12 0 12 0 -15 -10 -15 -9 13 -13 12 -12 0 17 0 17 13 -2 12 -3 -2 18 -1 18
16 -6 17 -6 9 -2 9 -2 3 13 3 13 -5 -10 -5 -10 -15 6 -16 6 14 9 13 9 -22 -6
-23 -6 6 14 5 15 17 -3 17 -3 5 -2 5 -2 8 1 7 1 0 -12 0 -11 18 16 19 17 5 -5
5 -5 0 14 0 13 -19 12 -18 11 2 -12z m13 -27 l-6 -11 -19 3 -19 3 -7 7 -6 6
26 -5 26 -4 0 11 0 12 6 -6 6 -6 -7 -10z m-95 -61 l0 -10 -4 0 -5 0 -6 10 -6
10 10 0 11 0 0 -10z"/>
<path d="M980 585 l-12 -15 -17 -1 -16 -1 13 -5 12 -5 -6 -9 -5 -9 10 0 11 0
0 16 0 15 10 -6 10 -6 -6 -12 -7 -12 9 8 9 9 0 6 0 7 8 12 7 12 -9 5 -9 6 -12
-15z"/>
<path d="M345 1144 l-27 -46 4 -3 4 -4 27 50 28 49 -4 0 -5 0 -27 -46z"/>
<path d="M726 1178 l5 -7 14 6 15 5 0 3 0 4 -19 -2 -20 -1 5 -8z"/>
<path d="M721 1144 l1 -19 5 13 5 13 -6 6 -6 6 1 -19z"/>
<path d="M687 1097 l-17 -32 20 24 20 23 0 9 0 9 -2 0 -3 0 -18 -33z"/>
<path d="M302 1068 l-12 -12 0 -12 0 -12 -15 -12 -15 -12 0 -11 0 -10 18 24
17 24 13 23 12 22 -3 0 -3 0 -12 -12z"/>
<path d="M643 1013 l-17 -28 -10 -14 -11 -15 11 7 12 7 21 35 20 35 -4 0 -5 0
-17 -27z"/>
<path d="M1111 1024 l1 -19 5 13 5 13 -6 6 -6 6 1 -19z"/>
<path d="M1166 1015 l-16 -25 5 0 6 0 -15 -16 -16 -15 0 -11 0 -11 19 24 19
24 2 10 2 10 9 18 10 17 -4 0 -5 0 -16 -25z"/>
<path d="M1106 991 l-7 -10 -14 6 -15 5 0 -13 0 -12 7 6 6 7 14 -12 14 -11
-17 -18 -17 -19 8 0 7 0 -12 -15 -12 -15 11 0 12 0 5 15 6 15 11 -7 10 -6 -7
11 -6 11 12 26 11 26 -10 10 -11 11 -6 -11z"/>
<path d="M227 935 l-27 -45 5 0 5 0 26 41 25 41 -3 3 -4 4 -27 -44z"/>
<path d="M592 918 l-12 -23 -16 -22 -16 -23 4 0 5 0 28 40 28 40 -5 5 -5 5
-11 -22z"/>
<path d="M1038 873 l13 -5 6 6 6 6 -19 -1 -19 -1 13 -5z"/>
<path d="M105 750 l-29 -30 8 0 7 0 32 30 32 30 -11 0 -10 0 -29 -30z"/>
<path d="M635 769 l-5 -7 15 2 14 2 6 5 5 6 -15 0 -16 0 -4 -8z"/>
<path d="M690 764 l10 -11 -5 -5 -5 -5 13 0 13 0 0 17 0 16 -18 0 -17 0 9 -12z"/>
<path d="M744 759 l-15 -17 29 3 30 2 11 7 11 7 -5 9 -5 9 -21 -2 -20 -1 -15
-17z m53 5 l-4 -5 -22 -4 -22 -4 5 7 4 8 22 1 22 2 -5 -5z"/>
<path d="M839 761 l13 -9 -13 -5 -14 -6 33 3 33 3 14 -20 15 -21 0 14 0 15 9
-14 9 -13 6 11 7 11 -10 0 -11 0 1 8 1 7 -1 9 -1 8 -14 -11 -14 -12 -6 10 -7
10 -13 -5 -14 -5 -7 10 -6 11 -12 0 -12 0 14 -9z"/>
<path d="M1184 594 l-19 -15 25 12 25 12 4 3 4 4 -9 0 -10 0 -20 -16z"/>
<path d="M1109 513 l-14 -18 20 15 20 14 4 3 4 3 -10 0 -11 0 -13 -17z"/>
<path d="M1060 496 l10 -10 -13 -14 -12 -15 22 14 22 13 -11 7 -10 7 13 5 14
5 -22 -1 -23 -1 10 -10z"/>
<path d="M1015 486 l-18 -13 12 -8 13 -7 15 15 15 15 -10 5 -9 6 -18 -13z m20
-6 l-6 -10 -12 0 -12 0 15 10 15 10 3 0 3 0 -6 -10z"/>
<path d="M879 473 l-14 -18 18 14 17 13 0 4 0 4 -4 0 -4 0 -13 -17z"/>
<path d="M974 448 l5 -17 -17 -10 -17 -10 11 -1 12 0 10 13 11 13 -11 14 -10
15 6 -17z"/>
<path d="M996 447 l6 -18 6 6 6 5 -13 13 -12 12 7 -18z"/>
<path d="M931 427 l-13 -22 18 17 18 18 -5 4 -5 5 -13 -22z"/>
<path d="M455 421 l-5 -10 -19 4 -18 3 0 -14 0 -14 12 10 12 10 5 -5 5 -5 13
15 12 15 -5 0 -6 0 -6 -9z"/>
<path d="M654 418 l-7 -11 11 7 11 6 6 -10 6 -10 -13 -1 -13 -1 -8 1 -8 1 6
-10 6 -10 20 11 20 10 -12 15 -11 14 -4 0 -3 0 -7 -12z"/>
<path d="M883 417 l2 -12 -13 3 -13 2 6 -10 7 -11 16 13 17 12 3 2 3 2 -15 5
-16 6 3 -12z"/>
<path d="M330 411 l-14 -10 -6 4 -7 4 0 -14 0 -13 24 15 23 15 0 4 0 4 -2 0
-3 0 -15 -9z"/>
<path d="M720 415 l0 -3 15 -5 14 -6 5 7 5 8 -20 1 -19 2 0 -4z"/>
<path d="M195 401 l-5 -10 8 -5 9 -5 0 14 0 15 -3 0 -3 0 -6 -9z"/>
<path d="M485 389 l-5 -7 15 2 14 2 6 5 5 6 -15 0 -16 0 -4 -8z"/>
<path d="M760 391 l0 -12 -12 7 -11 7 8 -12 7 -13 11 11 11 11 -7 7 -7 6 0
-12z"/>
<path d="M788 383 l13 -5 6 6 6 6 -19 -1 -19 -1 13 -5z"/>
<path d="M825 380 l6 -10 5 0 4 0 0 10 0 10 -11 0 -10 0 6 -10z"/>
<path d="M916 378 l5 -8 10 5 9 6 0 3 0 3 -15 0 -14 0 5 -9z"/>
<path d="M674 358 l18 -10 8 8 9 9 -27 2 -26 1 18 -10z"/>
<path d="M636 352 l-5 -9 14 0 14 0 -5 9 -5 8 -4 0 -4 0 -5 -8z"/>
<path d="M0 160 l0 -160 640 0 640 0 0 160 0 160 -640 0 -640 0 0 -160z"/>
</g>
</svg>
