<?xml version="1.0" standalone="no"?>
<!DOCTYPE svg PUBLIC "-//W3C//DTD SVG 20010904//EN"
 "http://www.w3.org/TR/2001/REC-SVG-20010904/DTD/svg10.dtd">
<svg version="1.0" xmlns="http://www.w3.org/2000/svg"
 width="468pt" height="468pt" viewBox="0 0 468 468"
 preserveAspectRatio="xMidYMid meet">
<metadata>
Created by potrace 1.8, written by Peter Selinger 2001-2007
</metadata>
<g transform="translate(0,468) scale(0.365625,-0.365625)"
fill="#000000" stroke="none">
<path d="M240 1030 l0 -10 10 0 10 0 0 10 0 10 -10 0 -10 0 0 -10z"/>
<path d="M160 990 l0 -10 10 0 10 0 0 -20 0 -20 -19 0 -19 0 -5 13 -4 12 -9
-9 -9 -9 13 -4 12 -5 0 -18 0 -18 -12 -6 -13 -6 13 -6 12 -6 0 -9 0 -9 -19 0
-19 0 -5 13 -4 12 -9 -9 -9 -9 13 -4 12 -5 0 -9 0 -9 -20 0 -20 0 0 -19 0 -19
-12 -5 -13 -4 25 -22 24 -22 -14 -10 -15 -9 15 -10 15 -10 -15 -10 -15 -10 15
-10 15 -10 -15 -10 -15 -10 15 -9 14 -10 -24 -22 -25 -22 13 -4 12 -5 0 -19 0
-19 9 0 9 0 5 13 4 12 9 -9 9 -9 -12 -4 -13 -5 0 -14 0 -15 26 -26 25 -25 6 6
6 6 -23 20 -23 20 6 6 6 6 25 -25 26 -26 0 -16 0 -15 6 0 7 0 18 22 19 21 7
-7 7 -7 -14 -9 -14 -9 7 -8 8 -7 10 14 9 15 11 -15 11 -15 5 13 5 12 35 0 35
0 38 -40 38 -40 16 0 16 0 0 -10 0 -10 50 0 50 0 0 -10 0 -10 36 0 35 0 15 15
15 15 -15 15 -15 15 -45 0 -46 0 0 -10 0 -10 -40 0 -40 0 0 10 0 10 -20 0 -20
0 0 20 0 20 -20 0 -20 0 0 6 0 5 16 16 16 16 9 -14 9 -14 10 15 10 15 9 -15
10 -14 8 7 7 8 -14 10 -15 9 15 9 14 10 -7 8 -8 7 -10 -14 -9 -15 -10 15 -10
15 -10 -15 -10 -15 -9 15 -10 14 -8 -7 -7 -8 13 -9 14 -8 -16 -17 -17 -16 -17
16 -16 17 14 8 13 9 -8 8 -9 8 -4 -12 -5 -13 -9 0 -9 0 0 30 0 30 9 0 9 0 5
-12 4 -13 9 8 8 8 -13 9 -14 8 17 18 18 17 9 -14 9 -14 10 15 10 15 10 -15 10
-15 10 15 10 15 10 -15 10 -15 10 15 10 15 10 -15 10 -15 9 14 9 14 18 -17 17
-18 -14 -8 -13 -9 7 -8 8 -7 9 13 8 14 18 -17 17 -18 -14 -8 -13 -9 8 -8 9 -8
4 13 5 12 9 0 9 0 0 -20 0 -20 -20 0 -20 0 0 -20 0 -20 -19 0 -19 0 -5 -12 -5
-13 -11 15 -11 15 -11 -15 -11 -15 -5 13 -5 12 -19 0 -19 0 0 -10 0 -10 20 0
20 0 0 -10 0 -10 30 0 30 0 0 10 0 10 18 0 18 0 14 20 14 20 28 0 28 0 0 -10
0 -10 19 0 19 0 5 13 4 12 20 -22 20 -23 17 0 16 0 0 -10 0 -10 18 0 18 0 14
-20 14 -20 18 0 18 0 0 -10 0 -10 30 0 30 0 0 8 0 8 -20 14 -20 14 0 24 0 23
14 15 15 14 15 0 16 0 0 10 0 10 20 0 20 0 0 10 0 10 50 0 50 0 0 10 0 10 76
0 75 0 15 15 15 15 -15 15 -15 15 -15 0 -16 0 0 10 0 10 -16 0 -16 0 -28 30
-28 30 -16 0 -16 0 0 10 0 10 -20 0 -20 0 0 -5 0 -6 26 -26 26 -26 8 13 8 14
30 -32 30 -32 16 0 16 0 0 -10 0 -10 20 0 20 0 0 -10 0 -10 -80 0 -80 0 0 -10
0 -10 -59 0 -59 0 -5 -12 -5 -13 -11 15 -10 14 -8 -8 -8 -9 13 -4 12 -5 0 -9
0 -9 -29 0 -29 0 -6 -12 -6 -13 -6 13 -6 12 -9 0 -9 0 0 -20 0 -20 10 0 10 0
0 -30 0 -30 -16 0 -15 0 -16 16 -16 16 14 8 13 9 -7 8 -8 7 -9 -13 -8 -14 -18
17 -17 18 14 9 14 9 -15 10 -15 10 15 9 14 10 -8 8 -9 8 -4 -12 -5 -13 -9 0
-9 0 0 30 0 30 -10 0 -10 0 0 -50 0 -50 -9 0 -9 0 -5 13 -5 12 -12 -15 -12
-15 -5 13 -5 12 -19 0 -19 0 0 39 0 39 -12 5 -13 5 15 11 14 10 -7 8 -8 7 -10
-14 -9 -15 -10 15 -10 15 -9 -14 -9 -14 -18 17 -17 18 14 8 13 9 -7 8 -8 7
-10 -14 -9 -15 -10 15 -10 15 -9 -14 -9 -14 -17 16 -16 17 16 17 17 16 9 -14
9 -14 10 15 10 15 10 -15 10 -15 9 14 9 14 18 -17 17 -18 -14 -8 -13 -9 7 -8
8 -7 10 14 9 15 9 -15 10 -14 8 7 7 8 -13 9 -14 8 17 18 18 17 9 -14 9 -14 10
15 10 15 10 -15 10 -15 10 15 10 15 10 -15 10 -15 9 14 9 14 17 -16 16 -17
-16 -17 -17 -16 -8 14 -9 13 -8 -7 -7 -8 14 -10 15 -9 -15 -9 -14 -10 7 -8 8
-7 10 14 9 15 9 -15 10 -14 8 7 7 8 -13 9 -14 8 17 18 18 17 9 -14 9 -14 10
15 10 15 10 -15 10 -15 10 15 10 15 9 -14 9 -14 17 17 17 17 -6 7 -7 6 -9 -14
-9 -14 -7 6 -6 7 18 18 17 18 5 -13 4 -12 9 0 9 0 0 20 0 20 -30 0 -30 0 0
-10 0 -10 -30 0 -30 0 0 10 0 10 -20 0 -20 0 0 10 0 10 -30 0 -30 0 0 10 0 10
-50 0 -50 0 0 10 0 10 -70 0 -70 0 0 -10 0 -10 -20 0 -20 0 0 -10 0 -10 -15 0
-16 0 -44 -45 -45 -44 0 -16 0 -15 -10 0 -10 0 0 -20 0 -20 -10 0 -10 0 0 -16
0 -15 -15 -16 -16 -15 -7 7 -7 8 13 4 12 5 0 9 0 9 -15 0 -16 0 -46 46 -46 46
14 9 14 9 -15 10 -15 10 15 10 15 10 -15 10 -15 10 15 9 14 10 -6 7 -7 6 -17
-17 -17 -17 14 -9 14 -9 -15 -10 -15 -10 15 -10 15 -10 -15 -9 -14 -10 24 -21
24 -21 -14 -9 -14 -9 7 -8 8 -7 9 13 8 14 17 -17 17 -17 -6 -7 -7 -6 -10 14
-9 15 -9 -14 -9 -14 -18 17 -17 18 14 8 13 9 -24 21 -24 21 14 10 15 9 -15 10
-15 10 15 10 15 10 -14 9 -14 9 43 42 43 42 -14 9 -14 9 15 9 14 10 -8 8 -9 8
-4 -12 -5 -13 -25 0 -26 0 -18 -22 -19 -21 -6 6 -6 6 25 25 26 26 16 0 15 0 0
10 0 10 20 0 20 0 0 9 0 9 -12 4 -13 5 18 18 19 18 8 -14 9 -13 8 8 8 9 -12 4
-13 5 0 19 0 19 10 0 10 0 0 10 0 10 -20 0 -20 0 0 10 0 10 -10 0 -10 0 0 -10z
m0 -200 l0 -10 -10 0 -10 0 0 10 0 10 10 0 10 0 0 -10z m343 -62 l5 -13 11 15
11 15 10 -15 10 -15 10 15 10 15 10 -15 10 -15 9 15 10 14 21 -24 21 -24 10
14 9 15 10 -15 10 -15 9 14 9 14 17 -17 17 -17 -6 -7 -7 -6 -10 14 -9 15 -10
-15 -10 -15 -10 15 -10 15 -10 -15 -10 -15 -9 15 -10 14 -20 -23 -21 -24 -21
24 -20 23 -10 -14 -9 -15 -10 15 -10 15 -10 -15 -10 -15 -9 14 -9 14 -27 -27
-27 -27 23 -20 22 -19 -7 -7 -7 -7 -10 14 -9 15 -9 -15 -10 -14 -8 7 -7 8 13
9 14 8 -16 17 -17 16 -17 -16 -16 -17 14 -8 13 -9 -6 -7 -7 -6 -16 16 -16 16
37 36 36 37 8 -14 9 -13 28 32 28 31 7 1 6 0 5 -12z m294 -54 l25 -25 -5 -6
-6 -5 -25 25 -26 26 0 6 0 5 5 0 6 0 26 -26z m63 -24 l0 -10 -10 0 -10 0 0 10
0 10 10 0 10 0 0 -10z m-360 -40 l0 -10 -10 0 -10 0 0 10 0 10 10 0 10 0 0
-10z m-420 -20 l0 -10 -10 0 -10 0 0 10 0 10 10 0 10 0 0 -10z m507 -25 l15
-16 -5 -6 -6 -5 -16 15 -15 16 0 5 0 6 6 0 5 0 16 -15z m-407 -55 l0 -10 -10
0 -10 0 0 10 0 10 10 0 10 0 0 -10z m40 0 l0 -10 -10 0 -10 0 0 10 0 10 10 0
10 0 0 -10z m200 -20 l0 -10 -10 0 -10 0 0 10 0 10 10 0 10 0 0 -10z m-160
-20 l0 -10 -10 0 -10 0 0 10 0 10 10 0 10 0 0 -10z m500 4 l0 -5 -15 -16 -16
-15 -5 5 -6 6 13 15 14 15 8 1 7 0 0 -6z m-140 -104 l0 -10 -40 0 -40 0 0 10
0 10 40 0 40 0 0 -10z m260 0 l0 -10 -10 0 -10 0 0 10 0 10 10 0 10 0 0 -10z"/>
<path d="M480 710 l0 -10 10 0 10 0 0 10 0 10 -10 0 -10 0 0 -10z"/>
<path d="M520 710 l0 -10 10 0 10 0 0 10 0 10 -10 0 -10 0 0 -10z"/>
<path d="M560 714 l0 -5 15 -15 15 -15 16 16 16 16 -6 7 -7 6 -10 -14 -11 -15
-5 13 -5 12 -9 0 -9 0 0 -6z"/>
<path d="M400 670 l0 -10 10 0 10 0 0 10 0 10 -10 0 -10 0 0 -10z"/>
<path d="M240 990 l0 -10 10 0 10 0 0 10 0 10 -10 0 -10 0 0 -10z"/>
<path d="M1080 885 l0 -16 -70 -69 -70 -69 0 -16 0 -15 10 0 10 0 0 -20 0 -20
-10 0 -10 0 0 -16 0 -15 -14 -15 -15 -14 -15 0 -16 0 0 -10 0 -10 18 0 18 0
14 -20 14 -20 17 0 17 0 5 13 5 12 11 -15 10 -14 8 7 7 8 -14 10 -15 11 13 5
12 5 0 19 0 19 -10 0 -10 0 0 20 0 20 -9 0 -9 0 -5 -12 -4 -13 -8 7 -7 7 16
16 16 16 36 -37 37 -36 -14 -9 -13 -8 7 -8 8 -7 9 14 9 14 19 -22 19 -22 17 0
16 0 0 16 0 15 -16 16 -16 16 -8 -13 -8 -13 -38 38 -38 39 12 4 12 4 0 29 0
29 10 0 10 0 0 20 0 20 10 0 10 0 0 20 0 20 10 0 10 0 0 40 0 40 -10 0 -10 0
0 -15z m0 -53 l0 -8 -20 -14 -20 -14 0 -24 0 -23 -25 -25 -25 -25 -16 15 -15
15 53 55 53 55 8 0 7 1 0 -8z m-100 -252 l0 -20 -20 0 -20 0 0 20 0 20 20 0
20 0 0 -20z"/>
<path d="M1000 750 l0 -10 10 0 10 0 0 10 0 10 -10 0 -10 0 0 -10z"/>
<path d="M31 744 l-14 -16 14 -9 14 -9 -15 -10 -15 -10 15 -10 15 -10 -14 -9
-14 -9 17 -17 17 -17 7 6 6 7 -14 10 -15 9 15 10 15 10 -15 10 -15 10 15 10
15 10 -15 11 -15 11 13 5 12 5 0 9 0 9 -7 0 -8 -1 -14 -15z"/>
<path d="M640 630 l0 -10 10 0 10 0 0 10 0 10 -10 0 -10 0 0 -10z"/>
<path d="M680 630 l0 -10 10 0 10 0 0 10 0 10 -10 0 -10 0 0 -10z"/>
<path d="M640 590 l0 -10 10 0 10 0 0 10 0 10 -10 0 -10 0 0 -10z"/>
<path d="M680 590 l0 -10 10 0 10 0 0 10 0 10 -10 0 -10 0 0 -10z"/>
<path d="M800 590 l0 -10 10 0 10 0 0 10 0 10 -10 0 -10 0 0 -10z"/>
<path d="M840 590 l0 -10 10 0 10 0 0 10 0 10 -10 0 -10 0 0 -10z"/>
<path d="M360 550 l0 -10 10 0 10 0 0 10 0 10 -10 0 -10 0 0 -10z"/>
<path d="M400 550 l0 -10 10 0 10 0 0 10 0 10 -10 0 -10 0 0 -10z"/>
<path d="M440 550 l0 -10 10 0 10 0 0 10 0 10 -10 0 -10 0 0 -10z"/>
<path d="M480 550 l0 -10 10 0 10 0 0 10 0 10 -10 0 -10 0 0 -10z"/>
<path d="M640 550 l0 -10 10 0 10 0 0 10 0 10 -10 0 -10 0 0 -10z"/>
<path d="M680 550 l0 -10 10 0 10 0 0 10 0 10 -10 0 -10 0 0 -10z"/>
<path d="M760 550 l0 -10 30 0 30 0 0 10 0 10 -30 0 -30 0 0 -10z"/>
<path d="M840 551 l0 -9 13 -5 12 -5 -15 -11 -14 -10 7 -8 8 -7 10 14 9 15 9
-15 10 -14 8 7 7 8 -14 10 -15 9 15 9 14 10 -7 8 -8 7 -10 -14 -11 -15 -5 13
-5 12 -9 0 -9 0 0 -9z"/>
<path d="M480 510 l0 -10 10 0 10 0 0 10 0 10 -10 0 -10 0 0 -10z"/>
<path d="M520 510 l0 -10 10 0 10 0 0 10 0 10 -10 0 -10 0 0 -10z"/>
<path d="M640 510 l0 -10 10 0 10 0 0 10 0 10 -10 0 -10 0 0 -10z"/>
<path d="M680 510 l0 -10 10 0 10 0 0 10 0 10 -10 0 -10 0 0 -10z"/>
<path d="M800 510 l0 -10 10 0 10 0 0 10 0 10 -10 0 -10 0 0 -10z"/>
<path d="M480 470 l0 -10 10 0 10 0 0 10 0 10 -10 0 -10 0 0 -10z"/>
<path d="M520 470 l0 -10 10 0 10 0 0 10 0 10 -10 0 -10 0 0 -10z"/>
<path d="M800 470 l0 -10 10 0 10 0 0 10 0 10 -10 0 -10 0 0 -10z"/>
<path d="M1000 430 l0 -10 10 0 10 0 0 10 0 10 -10 0 -10 0 0 -10z"/>
<path d="M1040 430 l0 -10 10 0 10 0 0 10 0 10 -10 0 -10 0 0 -10z"/>
<path d="M1120 430 l0 -10 10 0 10 0 0 10 0 10 -10 0 -10 0 0 -10z"/>
<path d="M1160 430 l0 -10 10 0 10 0 0 10 0 10 -10 0 -10 0 0 -10z"/>
<path d="M1220 430 l0 -10 10 0 10 0 0 10 0 10 -10 0 -10 0 0 -10z"/>
<path d="M0 390 l0 -10 10 0 10 0 0 10 0 10 -10 0 -10 0 0 -10z"/>
<path d="M40 390 l0 -10 10 0 10 0 0 10 0 10 -10 0 -10 0 0 -10z"/>
<path d="M1140 390 l0 -10 10 0 10 0 0 10 0 10 -10 0 -10 0 0 -10z"/>
<path d="M0 350 l0 -10 10 0 10 0 0 10 0 10 -10 0 -10 0 0 -10z"/>
<path d="M40 350 l0 -10 10 0 10 0 0 10 0 10 -10 0 -10 0 0 -10z"/>
<path d="M80 350 l0 -10 10 0 10 0 0 10 0 10 -10 0 -10 0 0 -10z"/>
<path d="M1040 350 l0 -10 10 0 10 0 0 10 0 10 -10 0 -10 0 0 -10z"/>
<path d="M1080 350 l0 -10 10 0 10 0 0 10 0 10 -10 0 -10 0 0 -10z"/>
<path d="M1120 350 l0 -10 10 0 10 0 0 10 0 10 -10 0 -10 0 0 -10z"/>
<path d="M1160 350 l0 -10 10 0 10 0 0 10 0 10 -10 0 -10 0 0 -10z"/>
<path d="M1200 350 l0 -10 10 0 10 0 0 10 0 10 -10 0 -10 0 0 -10z"/>
<path d="M1240 350 l0 -10 10 0 10 0 0 10 0 10 -10 0 -10 0 0 -10z"/>
<path d="M0 310 l0 -10 10 0 10 0 0 10 0 10 -10 0 -10 0 0 -10z"/>
<path d="M40 310 l0 -10 10 0 10 0 0 10 0 10 -10 0 -10 0 0 -10z"/>
<path d="M80 310 l0 -10 10 0 10 0 0 10 0 10 -10 0 -10 0 0 -10z"/>
<path d="M120 310 l0 -10 10 0 10 0 0 10 0 10 -10 0 -10 0 0 -10z"/>
<path d="M160 310 l0 -10 10 0 10 0 0 10 0 10 -10 0 -10 0 0 -10z"/>
<path d="M200 310 l0 -10 10 0 10 0 0 10 0 10 -10 0 -10 0 0 -10z"/>
<path d="M360 310 l0 -10 10 0 10 0 0 10 0 10 -10 0 -10 0 0 -10z"/>
<path d="M400 310 l0 -10 10 0 10 0 0 10 0 10 -10 0 -10 0 0 -10z"/>
<path d="M680 310 l0 -10 10 0 10 0 0 10 0 10 -10 0 -10 0 0 -10z"/>
<path d="M720 310 l0 -10 10 0 10 0 0 10 0 10 -10 0 -10 0 0 -10z"/>
<path d="M760 310 l0 -10 10 0 10 0 0 10 0 10 -10 0 -10 0 0 -10z"/>
<path d="M800 310 l0 -10 10 0 10 0 0 10 0 10 -10 0 -10 0 0 -10z"/>
<path d="M1000 310 l0 -10 10 0 10 0 0 10 0 10 -10 0 -10 0 0 -10z"/>
<path d="M1040 310 l0 -10 10 0 10 0 0 10 0 10 -10 0 -10 0 0 -10z"/>
<path d="M1080 310 l0 -10 10 0 10 0 0 10 0 10 -10 0 -10 0 0 -10z"/>
<path d="M1120 310 l0 -10 10 0 10 0 0 10 0 10 -10 0 -10 0 0 -10z"/>
<path d="M1160 310 l0 -10 10 0 10 0 0 10 0 10 -10 0 -10 0 0 -10z"/>
<path d="M1200 310 l0 -10 10 0 10 0 0 10 0 10 -10 0 -10 0 0 -10z"/>
<path d="M1240 310 l0 -10 10 0 10 0 0 10 0 10 -10 0 -10 0 0 -10z"/>
<path d="M0 270 l0 -10 10 0 10 0 0 10 0 10 -10 0 -10 0 0 -10z"/>
<path d="M40 270 l0 -10 10 0 10 0 0 10 0 10 -10 0 -10 0 0 -10z"/>
<path d="M80 270 l0 -10 10 0 10 0 0 10 0 10 -10 0 -10 0 0 -10z"/>
<path d="M120 270 l0 -10 10 0 10 0 0 10 0 10 -10 0 -10 0 0 -10z"/>
<path d="M160 270 l0 -10 10 0 10 0 0 10 0 10 -10 0 -10 0 0 -10z"/>
<path d="M200 270 l0 -10 10 0 10 0 0 10 0 10 -10 0 -10 0 0 -10z"/>
<path d="M240 270 l0 -10 10 0 10 0 0 10 0 10 -10 0 -10 0 0 -10z"/>
<path d="M360 270 l0 -10 10 0 10 0 0 10 0 10 -10 0 -10 0 0 -10z"/>
<path d="M400 270 l0 -10 10 0 10 0 0 10 0 10 -10 0 -10 0 0 -10z"/>
<path d="M440 270 l0 -10 10 0 10 0 0 10 0 10 -10 0 -10 0 0 -10z"/>
<path d="M480 270 l0 -10 10 0 10 0 0 10 0 10 -10 0 -10 0 0 -10z"/>
<path d="M520 270 l0 -10 10 0 10 0 0 10 0 10 -10 0 -10 0 0 -10z"/>
<path d="M760 270 l0 -10 10 0 10 0 0 10 0 10 -10 0 -10 0 0 -10z"/>
<path d="M920 270 l0 -10 10 0 10 0 0 10 0 10 -10 0 -10 0 0 -10z"/>
<path d="M960 270 l0 -10 10 0 10 0 0 10 0 10 -10 0 -10 0 0 -10z"/>
<path d="M1040 270 l0 -10 10 0 10 0 0 10 0 10 -10 0 -10 0 0 -10z"/>
<path d="M1080 270 l0 -10 10 0 10 0 0 10 0 10 -10 0 -10 0 0 -10z"/>
<path d="M1120 270 l0 -10 10 0 10 0 0 10 0 10 -10 0 -10 0 0 -10z"/>
<path d="M1160 270 l0 -10 10 0 10 0 0 10 0 10 -10 0 -10 0 0 -10z"/>
<path d="M1200 270 l0 -10 10 0 10 0 0 10 0 10 -10 0 -10 0 0 -10z"/>
<path d="M0 230 l0 -10 10 0 10 0 0 10 0 10 -10 0 -10 0 0 -10z"/>
<path d="M40 230 l0 -10 10 0 10 0 0 10 0 10 -10 0 -10 0 0 -10z"/>
<path d="M80 230 l0 -10 10 0 10 0 0 10 0 10 -10 0 -10 0 0 -10z"/>
<path d="M120 230 l0 -10 10 0 10 0 0 10 0 10 -10 0 -10 0 0 -10z"/>
<path d="M160 230 l0 -10 10 0 10 0 0 10 0 10 -10 0 -10 0 0 -10z"/>
<path d="M200 230 l0 -10 10 0 10 0 0 10 0 10 -10 0 -10 0 0 -10z"/>
<path d="M240 230 l0 -10 10 0 10 0 0 10 0 10 -10 0 -10 0 0 -10z"/>
<path d="M280 230 l0 -10 10 0 10 0 0 10 0 10 -10 0 -10 0 0 -10z"/>
<path d="M320 230 l0 -10 10 0 10 0 0 10 0 10 -10 0 -10 0 0 -10z"/>
<path d="M360 230 l0 -10 10 0 10 0 0 10 0 10 -10 0 -10 0 0 -10z"/>
<path d="M600 230 l0 -10 10 0 10 0 0 10 0 10 -10 0 -10 0 0 -10z"/>
<path d="M640 230 l0 -10 10 0 10 0 0 10 0 10 -10 0 -10 0 0 -10z"/>
<path d="M680 230 l0 -10 10 0 10 0 0 10 0 10 -10 0 -10 0 0 -10z"/>
<path d="M720 230 l0 -10 10 0 10 0 0 10 0 10 -10 0 -10 0 0 -10z"/>
<path d="M760 230 l0 -10 10 0 10 0 0 10 0 10 -10 0 -10 0 0 -10z"/>
<path d="M960 230 l0 -10 10 0 10 0 0 10 0 10 -10 0 -10 0 0 -10z"/>
<path d="M1080 230 l0 -10 10 0 10 0 0 10 0 10 -10 0 -10 0 0 -10z"/>
<path d="M1120 230 l0 -10 10 0 10 0 0 10 0 10 -10 0 -10 0 0 -10z"/>
<path d="M1160 230 l0 -10 10 0 10 0 0 10 0 10 -10 0 -10 0 0 -10z"/>
<path d="M0 100 l0 -100 640 0 640 0 0 100 0 100 -640 0 -640 0 0 -100z"/>
</g>
</svg>
