<?xml version="1.0" standalone="no"?>
<!DOCTYPE svg PUBLIC "-//W3C//DTD SVG 20010904//EN"
 "http://www.w3.org/TR/2001/REC-SVG-20010904/DTD/svg10.dtd">
<svg version="1.0" xmlns="http://www.w3.org/2000/svg"
 width="468pt" height="468pt" viewBox="0 0 468 468"
 preserveAspectRatio="xMidYMid meet">
<metadata>
Created by potrace 1.8, written by Peter Selinger 2001-2007
</metadata>
<g transform="translate(0,468) scale(0.365625,-0.365625)"
fill="#000000" stroke="none">
<path d="M0 1255 l0 -25 105 0 105 0 0 -30 0 -30 30 0 30 0 0 30 0 30 25 0 25
0 0 -110 0 -110 -160 0 -160 0 0 -25 0 -25 345 0 345 0 0 -105 0 -105 -25 0
-25 0 0 25 0 25 -25 0 -25 0 0 -25 0 -25 -295 0 -295 0 0 -30 0 -30 105 0 105
0 0 -105 0 -105 -25 0 -25 0 0 25 0 25 -25 0 -25 0 0 -25 0 -25 -55 0 -55 0 0
-25 0 -25 215 0 215 0 0 -30 0 -30 25 0 25 0 0 30 0 30 25 0 25 0 0 -110 0
-110 -265 0 -265 0 0 -25 0 -25 455 0 455 0 0 -25 0 -25 25 0 25 0 0 25 0 25
25 0 25 0 0 -80 0 -80 30 0 30 0 0 80 0 80 25 0 25 0 0 -25 0 -25 25 0 25 0 0
25 0 25 55 0 55 0 0 25 0 25 -295 0 -295 0 0 30 0 30 -25 0 -25 0 0 -30 0 -30
-25 0 -25 0 0 110 0 110 345 0 345 0 0 25 0 25 -455 0 -455 0 0 25 0 25 -25 0
-25 0 0 -25 0 -25 -25 0 -25 0 0 105 0 105 505 0 505 0 0 30 0 30 -215 0 -215
0 0 25 0 25 -25 0 -25 0 0 -25 0 -25 -25 0 -25 0 0 105 0 105 265 0 265 0 0
25 0 25 -400 0 -400 0 0 30 0 30 -25 0 -25 0 0 -30 0 -30 -30 0 -30 0 0 110 0
110 455 0 455 0 0 25 0 25 -640 0 -640 0 0 -25z"/>
<path d="M430 1145 l0 -25 25 0 25 0 0 25 0 25 -25 0 -25 0 0 -25z"/>
<path d="M210 1095 l0 -25 30 0 30 0 0 25 0 25 -30 0 -30 0 0 -25z"/>
<path d="M590 880 l0 -30 25 0 25 0 0 30 0 30 -25 0 -25 0 0 -30z"/>
<path d="M800 880 l0 -30 25 0 25 0 0 30 0 30 -25 0 -25 0 0 -30z"/>
<path d="M110 615 l0 -25 25 0 25 0 0 25 0 25 -25 0 -25 0 0 -25z"/>
<path d="M320 615 l0 -25 25 0 25 0 0 25 0 25 -25 0 -25 0 0 -25z"/>
<path d="M640 345 l0 -25 25 0 25 0 0 25 0 25 -25 0 -25 0 0 -25z"/>
<path d="M430 295 l0 -25 25 0 25 0 0 25 0 25 -25 0 -25 0 0 -25z"/>
<path d="M910 25 l0 -25 25 0 25 0 0 25 0 25 -25 0 -25 0 0 -25z"/>
<path d="M1120 25 l0 -25 25 0 25 0 0 25 0 25 -25 0 -25 0 0 -25z"/>
</g>
</svg>
