<?xml version="1.0" standalone="no"?>
<!DOCTYPE svg PUBLIC "-//W3C//DTD SVG 20010904//EN"
 "http://www.w3.org/TR/2001/REC-SVG-20010904/DTD/svg10.dtd">
<svg version="1.0" xmlns="http://www.w3.org/2000/svg"
 width="468pt" height="468pt" viewBox="0 0 468 468"
 preserveAspectRatio="xMidYMid meet">
<metadata>
Created by potrace 1.8, written by Peter Selinger 2001-2007
</metadata>
<g transform="translate(0,468) scale(0.365625,-0.365625)"
fill="#000000" stroke="none">
<path d="M700 1270 l0 -10 -50 0 -50 0 0 -10 0 -10 -70 0 -70 0 0 -10 0 -10
-110 0 -110 0 0 -10 0 -10 -60 0 -60 0 0 -10 0 -10 -30 0 -30 0 0 -10 0 -10
-20 0 -20 0 0 -20 0 -20 -10 0 -10 0 0 -30 0 -30 10 0 10 0 0 -16 0 -15 14
-15 15 -14 15 0 16 0 0 -10 0 -10 40 0 40 0 0 10 0 10 20 0 20 0 0 10 0 10 18
0 18 0 14 20 14 20 8 0 8 0 0 -20 0 -20 10 0 10 0 0 -40 0 -40 10 0 10 0 0
-40 0 -40 10 0 10 0 0 -26 0 -25 15 -16 16 -15 7 7 7 8 -12 4 -13 5 0 29 0 29
-10 0 -10 0 0 40 0 40 -10 0 -10 0 0 50 0 50 -10 0 -10 0 0 25 0 26 -35 34
-34 35 -16 0 -15 0 0 -6 0 -6 30 -28 30 -28 0 -12 0 -11 -14 -15 -15 -14 -5 0
-6 0 0 15 0 16 -35 34 -34 35 -31 0 -31 0 -15 -14 -14 -15 0 -21 0 -21 25 -24
24 -25 11 0 11 0 15 14 14 15 0 15 0 16 -20 0 -20 0 0 -10 0 -10 10 0 10 0 0
-10 0 -10 -16 0 -15 0 -15 14 -14 15 0 11 0 11 14 15 15 14 15 0 16 0 0 -10 0
-10 16 0 15 0 15 -14 14 -15 0 -11 0 -11 -25 -24 -24 -25 -36 0 -35 0 0 10 0
10 -20 0 -20 0 0 20 0 20 -10 0 -10 0 0 25 0 26 25 24 24 25 66 0 65 0 0 10 0
10 20 0 20 0 0 10 0 10 110 0 110 0 0 10 0 10 70 0 70 0 0 10 0 10 50 0 50 0
0 10 0 10 85 0 86 0 24 -25 25 -24 0 -36 0 -35 -10 0 -10 0 0 -20 0 -20 10 0
10 0 0 -10 0 -10 -20 0 -20 0 0 -10 0 -10 -20 0 -20 0 0 -10 0 -10 -18 0 -18
0 -14 -20 -14 -20 -16 0 -16 0 -14 -20 -14 -20 -18 0 -18 0 0 -10 0 -10 -16 0
-16 0 -28 -30 -28 -30 -14 0 -14 0 -14 -20 -14 -20 -18 0 -18 0 0 -10 0 -10
-20 0 -20 0 0 -10 0 -10 -18 0 -18 0 -14 -20 -14 -20 -16 0 -16 0 -14 -20 -14
-20 -18 0 -18 0 0 -10 0 -10 -16 0 -16 0 -28 -30 -28 -30 -26 0 -26 0 0 -10 0
-10 -18 0 -18 0 -14 -20 -14 -20 -14 0 -13 0 -35 -36 -36 -35 7 -7 8 -7 4 13
5 12 29 0 29 0 0 10 0 10 20 0 20 0 0 10 0 10 30 0 30 0 0 10 0 10 20 0 20 0
0 15 0 16 35 34 34 35 16 0 15 0 0 -10 0 -10 40 0 40 0 0 -20 0 -20 10 0 10 0
0 -40 0 -40 10 0 10 0 0 -40 0 -40 10 0 10 0 0 -25 0 -26 35 -34 34 -35 16 0
15 0 0 -10 0 -10 60 0 60 0 0 10 0 10 20 0 20 0 0 10 0 10 40 0 40 0 0 10 0
10 50 0 50 0 0 10 0 10 40 0 40 0 0 10 0 10 50 0 50 0 0 10 0 10 20 0 20 0 0
10 0 10 35 0 36 0 24 25 25 24 0 41 0 41 -35 34 -34 35 -16 0 -15 0 0 10 0 10
-16 0 -17 0 -18 -21 -18 -21 -26 26 -25 25 0 26 0 25 -10 0 -10 0 0 30 0 30
-10 0 -10 0 0 50 0 50 18 0 18 0 14 20 14 20 14 0 14 0 28 30 28 30 16 0 16 0
0 16 0 16 30 28 30 28 0 16 0 16 10 0 10 0 0 30 0 30 -80 0 -80 0 0 -10 0 -10
-30 0 -30 0 0 -10 0 -10 -20 0 -20 0 0 -10 0 -10 -20 0 -20 0 0 -10 0 -10 -10
0 -10 0 0 20 0 20 10 0 10 0 0 35 0 36 -35 34 -34 35 -86 0 -85 0 0 -10z m520
-126 l0 -15 -14 -15 -15 -14 -15 0 -16 0 0 10 0 10 -50 0 -50 0 0 -10 0 -10
-40 0 -40 0 0 -10 0 -10 40 0 40 0 0 10 0 10 40 0 40 0 0 -10 0 -10 20 0 20 0
0 -6 0 -5 -14 -15 -15 -14 -25 0 -26 0 0 10 0 10 -80 0 -80 0 0 -10 0 -10 -30
0 -30 0 0 -10 0 -10 30 0 30 0 0 10 0 10 70 0 70 0 0 -10 0 -10 20 0 20 0 0
-6 0 -5 -14 -15 -15 -14 -35 0 -36 0 0 10 0 10 -80 0 -80 0 0 -10 0 -10 -40 0
-40 0 0 6 0 5 14 15 15 14 15 0 16 0 0 10 0 10 20 0 20 0 0 10 0 10 18 0 18 0
14 20 14 20 18 0 18 0 0 10 0 10 20 0 20 0 0 10 0 10 30 0 30 0 0 10 0 10 70
0 70 0 0 -16z m-440 -174 l0 -10 40 0 40 0 0 10 0 10 70 0 70 0 0 -10 0 -10
20 0 20 0 0 -6 0 -5 -14 -15 -15 -14 -35 0 -36 0 0 10 0 10 -80 0 -80 0 0 -10
0 -10 -50 0 -50 0 0 -10 0 -10 50 0 50 0 0 10 0 10 70 0 70 0 0 -10 0 -10 20
0 20 0 0 -10 0 -10 -20 0 -20 0 0 -10 0 -10 -50 0 -50 0 0 10 0 10 -70 0 -70
0 0 -10 0 -10 -40 0 -40 0 0 5 0 6 25 24 24 25 16 0 15 0 0 10 0 10 18 0 18 0
14 20 14 20 18 0 18 0 0 -10z m-180 -120 l0 -10 40 0 40 0 0 10 0 10 60 0 60
0 0 -10 0 -10 20 0 20 0 0 -10 0 -10 20 0 20 0 0 10 0 10 20 0 20 0 0 10 0 10
20 0 20 0 0 -6 0 -7 -22 -19 -22 -19 14 -10 15 -9 -15 -10 -15 -10 15 -10 15
-10 -15 -10 -15 -10 15 -10 15 -10 -15 -10 -15 -10 14 -9 14 -9 -56 -56 -57
-56 -15 0 -15 0 0 -10 0 -10 -110 0 -110 0 0 -10 0 -10 -20 0 -20 0 0 -10 0
-10 -20 0 -20 0 0 -35 0 -36 25 -24 24 -25 21 0 21 0 25 25 25 25 -25 25 -25
25 -11 0 -11 0 -15 -15 -15 -15 15 -15 15 -15 5 0 6 0 0 20 0 20 6 0 5 0 15
-15 15 -15 -15 -15 -15 -15 -21 0 -21 0 -15 14 -14 15 0 21 0 21 14 15 15 14
35 0 36 0 0 10 0 10 90 0 90 0 0 10 0 10 60 0 60 0 0 10 0 10 30 0 30 0 0 10
0 10 20 0 20 0 0 10 0 10 16 0 16 0 28 30 28 30 11 0 12 0 46 -46 46 -46 -14
-9 -14 -9 14 -9 14 -9 -28 -27 -27 -28 -8 14 -9 13 -20 -23 -21 -24 -20 23
-19 22 -17 -16 -16 -17 6 -7 7 -6 9 14 9 14 7 -6 6 -7 -17 -17 -17 -17 -9 14
-9 14 -9 -15 -10 -14 -8 7 -7 8 14 9 14 9 -6 7 -7 7 -31 -33 -32 -34 -8 14 -9
14 -19 -22 -19 -22 -47 0 -46 0 0 -10 0 -10 -40 0 -40 0 0 -10 0 -10 -20 0
-20 0 0 -10 0 -10 -20 0 -20 0 0 6 0 6 30 28 30 28 0 21 0 22 -25 24 -24 25
-16 0 -15 0 0 -8 0 -8 20 -14 20 -14 0 -24 0 -23 -35 -34 -34 -35 -16 0 -15 0
0 10 0 10 -15 0 -16 0 -24 25 -25 24 0 26 0 25 -10 0 -10 0 0 50 0 50 -10 0
-10 0 0 30 0 30 -10 0 -10 0 0 16 0 15 14 15 15 14 25 0 26 0 0 10 0 10 50 0
50 0 0 10 0 10 30 0 30 0 0 10 0 10 20 0 20 0 0 10 0 10 28 0 28 0 14 20 14
20 28 0 28 0 0 10 0 10 -30 0 -30 0 0 -10 0 -10 -40 0 -40 0 0 10 0 10 -60 0
-60 0 0 -10 0 -10 -40 0 -40 0 0 -10 0 -10 40 0 40 0 0 10 0 10 60 0 60 0 0
-20 0 -20 -30 0 -30 0 0 -10 0 -10 -40 0 -40 0 0 -10 0 -10 -30 0 -30 0 0 -10
0 -10 -30 0 -30 0 0 -10 0 -10 -60 0 -60 0 0 5 0 6 25 24 24 25 16 0 15 0 0
-10 0 -10 30 0 30 0 0 10 0 10 50 0 50 0 0 10 0 10 -50 0 -50 0 0 -10 0 -10
-30 0 -30 0 0 6 0 5 14 15 15 14 15 0 16 0 0 10 0 10 20 0 20 0 0 10 0 10 18
0 18 0 14 20 14 20 18 0 18 0 0 -10z m367 -46 l16 -16 -14 -8 -13 -9 24 -21
24 -21 -14 -9 -14 -9 24 -21 24 -21 -14 -10 -15 -9 14 -9 14 -9 -28 -27 -27
-28 -8 14 -9 13 -21 -24 -21 -24 -10 14 -9 15 -9 -15 -10 -14 -7 6 -6 7 52 51
53 52 -14 9 -14 9 15 10 15 10 -15 10 -15 10 15 10 15 10 -15 10 -15 10 15 11
15 11 -12 5 -13 5 0 9 0 9 6 0 5 0 16 -16z"/>
<path d="M1142 534 l-44 -45 6 -6 6 -6 20 24 21 23 9 -13 8 -14 18 17 17 18
-14 10 -14 10 13 5 12 5 0 9 0 9 -7 -1 -8 0 -43 -45z m38 -4 l0 -10 -10 0 -10
0 0 10 0 10 10 0 10 0 0 -10z"/>
<path d="M960 730 l0 -10 10 0 10 0 0 10 0 10 -10 0 -10 0 0 -10z"/>
<path d="M960 691 l0 -9 13 -5 12 -4 -44 -42 -43 -42 6 -6 6 -6 20 24 21 23 9
-13 8 -14 18 17 17 18 -14 9 -14 9 14 9 14 9 -16 16 -16 16 -5 0 -6 0 0 -9z
m20 -61 l0 -10 -10 0 -10 0 0 10 0 10 10 0 10 0 0 -10z"/>
<path d="M427 1077 l-18 -22 -9 15 -9 14 -7 -6 -6 -7 18 -18 17 -18 5 13 4 12
25 0 24 0 16 15 15 16 -6 7 -7 6 -10 -14 -11 -15 -5 13 -5 12 -6 0 -7 0 -18
-23z"/>
<path d="M800 1090 l0 -10 10 0 10 0 0 10 0 10 -10 0 -10 0 0 -10z"/>
<path d="M520 1070 l0 -10 10 0 10 0 0 10 0 10 -10 0 -10 0 0 -10z"/>
<path d="M660 1060 l0 -20 -9 0 -9 0 -5 13 -4 12 -8 -7 -7 -7 16 -16 16 -16
15 15 15 15 0 15 0 16 -10 0 -10 0 0 -20z"/>
<path d="M700 1070 l0 -10 10 0 10 0 0 10 0 10 -10 0 -10 0 0 -10z"/>
<path d="M751 1064 l-13 -15 6 -6 5 -5 16 15 15 16 0 5 0 6 -7 0 -8 -1 -14
-15z"/>
<path d="M560 1034 l0 -5 14 -15 15 -14 5 0 6 0 0 20 0 20 -20 0 -20 0 0 -6z"/>
<path d="M472 944 l-13 -14 15 -15 15 -15 13 0 14 0 14 20 14 20 18 0 18 0 0
10 0 10 -18 0 -18 0 -14 -20 -14 -20 -18 0 -18 0 0 10 0 10 10 0 10 0 0 10 0
10 -7 0 -8 -1 -13 -15z"/>
<path d="M400 924 l0 -15 15 -16 16 -15 7 6 6 7 -14 10 -15 11 13 5 12 5 0 9
0 9 -20 0 -20 0 0 -16z"/>
<path d="M180 550 l0 -10 -16 0 -15 0 -15 -14 -14 -15 0 -15 0 -16 10 0 10 0
0 -15 0 -16 -35 -34 -34 -35 -16 0 -15 0 0 -50 0 -50 20 0 20 0 0 -10 0 -10
20 0 20 0 0 -10 0 -10 110 0 110 0 0 10 0 10 20 0 20 0 0 10 0 10 20 0 20 0 0
46 0 45 -14 15 -15 14 -11 0 -11 0 -15 14 -14 15 0 14 0 15 -12 6 -13 6 13 6
12 6 0 15 0 14 -14 15 -15 14 -15 0 -16 0 0 10 0 10 -50 0 -50 0 0 -10z m100
-20 l0 -10 -50 0 -50 0 0 10 0 10 50 0 50 0 0 -10z m-120 -20 l0 -10 70 0 70
0 0 10 0 10 10 0 10 0 0 -20 0 -20 -19 0 -19 0 -6 -12 -6 -13 -6 13 -6 12 -18
0 -18 0 -6 -12 -6 -13 -6 13 -6 12 -15 0 -14 0 -15 14 -14 15 0 5 0 6 10 0 10
0 0 -10z m40 -65 l0 -16 -25 -24 -24 -25 -16 0 -15 0 0 -10 0 -10 -20 0 -20 0
0 5 0 5 43 45 42 44 18 0 17 1 0 -15z m60 -3 l0 -18 20 -14 20 -14 0 -8 0 -8
-60 0 -60 0 0 8 0 8 20 14 20 14 0 18 0 18 20 0 20 0 0 -18z m60 3 l0 -16 25
-24 24 -25 16 0 15 0 0 -10 0 -10 -25 0 -26 0 -34 35 -35 34 0 16 0 15 20 0
20 0 0 -15z"/>
<path d="M0 100 l0 -100 640 0 640 0 0 100 0 100 -640 0 -640 0 0 -100z"/>
</g>
</svg>
