<?xml version="1.0" standalone="no"?>
<!DOCTYPE svg PUBLIC "-//W3C//DTD SVG 20010904//EN"
 "http://www.w3.org/TR/2001/REC-SVG-20010904/DTD/svg10.dtd">
<svg version="1.0" xmlns="http://www.w3.org/2000/svg"
 width="468pt" height="468pt" viewBox="0 0 468 468"
 preserveAspectRatio="xMidYMid meet">
<metadata>
Created by potrace 1.8, written by Peter Selinger 2001-2007
</metadata>
<g transform="translate(0,468) scale(0.365625,-0.365625)"
fill="#000000" stroke="none">
<path d="M1080 1200 l0 -40 -40 0 -40 0 0 -20 0 -20 40 0 40 0 0 -20 0 -20
-40 0 -40 0 0 -20 0 -20 40 0 40 0 0 -20 0 -20 -20 0 -20 0 0 -20 0 -20 -20 0
-20 0 0 -20 0 -20 20 0 20 0 0 20 0 20 20 0 20 0 0 -80 0 -80 20 0 20 0 0 100
0 100 40 0 40 0 0 40 0 40 -20 0 -20 0 0 20 0 20 20 0 20 0 0 20 0 20 -40 0
-40 0 0 40 0 40 -20 0 -20 0 0 -40z"/>
<path d="M920 1100 l0 -20 20 0 20 0 0 20 0 20 -20 0 -20 0 0 -20z"/>
<path d="M840 1060 l0 -20 20 0 20 0 0 20 0 20 -20 0 -20 0 0 -20z"/>
<path d="M760 1020 l0 -20 20 0 20 0 0 20 0 20 -20 0 -20 0 0 -20z"/>
<path d="M920 1020 l0 -20 20 0 20 0 0 20 0 20 -20 0 -20 0 0 -20z"/>
<path d="M680 980 l0 -20 20 0 20 0 0 20 0 20 -20 0 -20 0 0 -20z"/>
<path d="M840 980 l0 -20 20 0 20 0 0 20 0 20 -20 0 -20 0 0 -20z"/>
<path d="M600 940 l0 -20 20 0 20 0 0 20 0 20 -20 0 -20 0 0 -20z"/>
<path d="M760 940 l0 -20 -20 0 -20 0 0 -20 0 -20 20 0 20 0 0 20 0 20 20 0
20 0 0 20 0 20 -20 0 -20 0 0 -20z"/>
<path d="M480 900 l0 -20 -40 0 -40 0 0 -20 0 -20 -40 0 -40 0 0 -20 0 -20
-40 0 -40 0 0 -20 0 -20 -60 0 -60 0 0 -20 0 -20 -20 0 -20 0 0 -20 0 -20 -40
0 -40 0 0 -40 0 -40 60 0 60 0 0 -20 0 -20 -20 0 -20 0 0 -20 0 -20 -40 0 -40
0 0 -40 0 -40 80 0 80 0 0 -220 0 -220 40 0 40 0 0 220 0 220 80 0 80 0 0 60
0 60 40 0 40 0 0 20 0 20 20 0 20 0 0 20 0 20 20 0 20 0 0 20 0 20 -20 0 -20
0 0 -20 0 -20 -20 0 -20 0 0 -20 0 -20 -40 0 -40 0 0 40 0 40 -20 0 -20 0 0
20 0 20 -20 0 -20 0 0 -20 0 -20 -40 0 -40 0 0 40 0 40 40 0 40 0 0 20 0 20
40 0 40 0 0 20 0 20 40 0 40 0 0 20 0 20 40 0 40 0 0 20 0 20 -40 0 -40 0 0
-20z m-320 -200 l0 -20 -20 0 -20 0 0 20 0 20 20 0 20 0 0 -20z m240 -120 l0
-20 -40 0 -40 0 0 -20 0 -20 -40 0 -40 0 0 40 0 40 80 0 80 0 0 -20z m-240
-40 l0 -20 -20 0 -20 0 0 20 0 20 20 0 20 0 0 -20z"/>
<path d="M920 900 l0 -20 20 0 20 0 0 20 0 20 -20 0 -20 0 0 -20z"/>
<path d="M640 860 l0 -20 20 0 20 0 0 20 0 20 -20 0 -20 0 0 -20z"/>
<path d="M840 860 l0 -20 -20 0 -20 0 0 -20 0 -20 20 0 20 0 0 20 0 20 20 0
20 0 0 20 0 20 -20 0 -20 0 0 -20z"/>
<path d="M560 820 l0 -20 20 0 20 0 0 20 0 20 -20 0 -20 0 0 -20z"/>
<path d="M480 780 l0 -20 20 0 20 0 0 20 0 20 -20 0 -20 0 0 -20z"/>
<path d="M720 780 l0 -20 -20 0 -20 0 0 -20 0 -20 20 0 20 0 0 20 0 20 20 0
20 0 0 20 0 20 -20 0 -20 0 0 -20z"/>
<path d="M400 740 l0 -20 20 0 20 0 0 20 0 20 -20 0 -20 0 0 -20z"/>
<path d="M600 700 l0 -20 20 0 20 0 0 20 0 20 -20 0 -20 0 0 -20z"/>
<path d="M640 580 l0 -20 -20 0 -20 0 0 -20 0 -20 -20 0 -20 0 0 -20 0 -20
-20 0 -20 0 0 -40 0 -40 20 0 20 0 0 -20 0 -20 40 0 40 0 0 -20 0 -20 -20 0
-20 0 0 -20 0 -20 -20 0 -20 0 0 -80 0 -80 20 0 20 0 0 -20 0 -20 20 0 20 0 0
-20 0 -20 20 0 20 0 0 -20 0 -20 60 0 60 0 0 20 0 20 120 0 120 0 0 -20 0 -20
60 0 60 0 0 20 0 20 20 0 20 0 0 20 0 20 20 0 20 0 0 20 0 20 20 0 20 0 0 80
0 80 -20 0 -20 0 0 20 0 20 -20 0 -20 0 0 20 0 20 20 0 20 0 0 20 0 20 20 0
20 0 0 40 0 40 -20 0 -20 0 0 20 0 20 -20 0 -20 0 0 20 0 20 -20 0 -20 0 0 20
0 20 -260 0 -260 0 0 -20z m520 -40 l0 -20 20 0 20 0 0 -20 0 -20 20 0 20 0 0
-40 0 -40 -60 0 -60 0 0 -20 0 -20 20 0 20 0 0 -20 0 -20 20 0 20 0 0 -20 0
-20 20 0 20 0 0 -80 0 -80 -20 0 -20 0 0 -20 0 -20 -280 0 -280 0 0 20 0 20
-20 0 -20 0 0 80 0 80 20 0 20 0 0 20 0 20 20 0 20 0 0 40 0 40 -60 0 -60 0 0
40 0 40 20 0 20 0 0 20 0 20 20 0 20 0 0 20 0 20 260 0 260 0 0 -20z"/>
<path d="M720 500 l0 -20 -20 0 -20 0 0 -40 0 -40 20 0 20 0 0 40 0 40 40 0
40 0 0 -40 0 -40 100 0 100 0 0 40 0 40 40 0 40 0 0 -40 0 -40 20 0 20 0 0 40
0 40 -20 0 -20 0 0 20 0 20 -40 0 -40 0 0 -20 0 -20 -20 0 -20 0 0 -20 0 -20
-60 0 -60 0 0 20 0 20 -20 0 -20 0 0 20 0 20 -40 0 -40 0 0 -20z"/>
<path d="M800 340 l0 -20 -20 0 -20 0 0 -80 0 -80 20 0 20 0 0 -20 0 -20 100
0 100 0 0 20 0 20 20 0 20 0 0 80 0 80 -20 0 -20 0 0 20 0 20 -100 0 -100 0 0
-20z m200 -100 l0 -80 -100 0 -100 0 0 80 0 80 100 0 100 0 0 -80z"/>
</g>
</svg>
