<?xml version="1.0" standalone="no"?>
<!DOCTYPE svg PUBLIC "-//W3C//DTD SVG 20010904//EN"
 "http://www.w3.org/TR/2001/REC-SVG-20010904/DTD/svg10.dtd">
<svg version="1.0" xmlns="http://www.w3.org/2000/svg"
 width="468pt" height="468pt" viewBox="0 0 468 468"
 preserveAspectRatio="xMidYMid meet">
<metadata>
Created by potrace 1.8, written by Peter Selinger 2001-2007
</metadata>
<g transform="translate(0,468) scale(0.365625,-0.365625)"
fill="#000000" stroke="none">
<path d="M0 655 l0 -625 11 0 10 0 15 14 14 15 0 10 0 11 15 0 15 0 0 15 0 15
-15 0 -15 0 0 10 0 10 15 0 15 0 0 15 0 15 -15 0 -15 0 0 15 0 15 15 0 15 0 0
10 0 10 -15 0 -15 0 0 15 0 15 15 0 15 0 0 15 0 15 -15 0 -15 0 0 10 0 10 15
0 15 0 0 15 0 15 -15 0 -15 0 0 15 0 15 15 0 15 0 0 10 0 10 -15 0 -15 0 0 15
0 15 15 0 15 0 0 15 0 15 -15 0 -15 0 0 10 0 10 15 0 15 0 0 15 0 15 -15 0
-15 0 0 15 0 15 15 0 15 0 0 10 0 10 -15 0 -15 0 0 15 0 15 15 0 15 0 0 15 0
15 -15 0 -15 0 0 10 0 10 15 0 15 0 0 15 0 15 -15 0 -15 0 0 15 0 15 15 0 15
0 0 10 0 10 -15 0 -15 0 0 15 0 15 15 0 15 0 0 15 0 15 -15 0 -15 0 0 10 0 10
15 0 15 0 0 15 0 15 -15 0 -15 0 0 15 0 15 15 0 15 0 0 10 0 10 -15 0 -15 0 0
15 0 15 15 0 15 0 0 15 0 15 -15 0 -15 0 0 10 0 10 15 0 15 0 0 15 0 15 -15 0
-15 0 0 15 0 15 15 0 15 0 0 10 0 10 -15 0 -15 0 0 15 0 15 15 0 15 0 0 15 0
15 -15 0 -15 0 0 10 0 10 15 0 15 0 0 15 0 15 -15 0 -15 0 0 15 0 15 15 0 15
0 0 10 0 10 -15 0 -15 0 0 15 0 15 15 0 15 0 0 15 0 15 15 0 15 0 0 -15 0 -15
10 0 10 0 0 15 0 15 15 0 15 0 0 -15 0 -15 15 0 15 0 0 15 0 15 10 0 10 0 0
-15 0 -15 15 0 15 0 0 15 0 15 15 0 15 0 0 -15 0 -15 10 0 10 0 0 15 0 15 15
0 15 0 0 -15 0 -15 15 0 15 0 0 15 0 15 10 0 10 0 0 -15 0 -15 15 0 15 0 0 15
0 15 15 0 15 0 0 -15 0 -15 -15 0 -15 0 0 -15 0 -15 -14 0 -14 0 -6 -12 -6
-13 -6 13 -6 12 -14 0 -14 0 0 -10 0 -10 -15 0 -15 0 0 -15 0 -15 -10 0 -10 0
0 -15 0 -15 -15 0 -15 0 0 -10 0 -10 15 0 15 0 0 -15 0 -15 -15 0 -15 0 0 -15
0 -15 -11 0 -10 0 -15 -14 -14 -15 0 -10 0 -11 10 0 10 0 0 -14 0 -14 -12 -6
-13 -6 13 -6 12 -6 0 -14 0 -14 -10 0 -10 0 0 -14 0 -14 13 -6 12 -6 -12 -6
-13 -6 0 -14 0 -14 10 0 10 0 0 -15 0 -15 15 0 15 0 0 -10 0 -10 -15 0 -15 0
0 -15 0 -15 15 0 15 0 0 -15 0 -15 11 0 10 0 15 -14 14 -15 0 -10 0 -11 15 0
15 0 0 -15 0 -15 15 0 15 0 0 -10 0 -10 -15 0 -15 0 0 -15 0 -15 15 0 15 0 0
-15 0 -15 -15 0 -15 0 0 -10 0 -10 15 0 15 0 0 -15 0 -15 10 0 10 0 0 -14 0
-14 -12 -6 -13 -6 13 -6 12 -6 0 -14 0 -14 15 0 15 0 0 -15 0 -15 11 0 10 0
15 -14 14 -15 0 -10 0 -11 15 0 15 0 0 -15 0 -15 -15 0 -15 0 0 15 0 15 -10 0
-10 0 0 -15 0 -15 -15 0 -15 0 0 15 0 15 15 0 15 0 0 15 0 15 -15 0 -15 0 0
-15 0 -15 -15 0 -15 0 0 15 0 15 15 0 15 0 0 10 0 10 -15 0 -15 0 0 15 0 15
-10 0 -10 0 0 -15 0 -15 -15 0 -15 0 0 15 0 15 15 0 15 0 0 15 0 15 -15 0 -15
0 0 10 0 10 15 0 15 0 0 15 0 15 -15 0 -15 0 0 -15 0 -15 -15 0 -15 0 0 15 0
15 15 0 15 0 0 15 0 15 -15 0 -15 0 0 -15 0 -15 -10 0 -10 0 0 15 0 15 -15 0
-15 0 0 10 0 10 15 0 15 0 0 15 0 15 10 0 10 0 0 -15 0 -15 15 0 15 0 0 15 0
15 -15 0 -15 0 0 15 0 15 15 0 15 0 0 10 0 10 -15 0 -15 0 0 15 0 15 -10 0
-10 0 0 -15 0 -15 -15 0 -15 0 0 15 0 15 15 0 15 0 0 15 0 15 -15 0 -15 0 0
-15 0 -15 -15 0 -15 0 0 15 0 15 15 0 15 0 0 10 0 10 -15 0 -15 0 0 15 0 15
-10 0 -10 0 0 15 0 15 -15 0 -15 0 0 10 0 10 15 0 15 0 0 15 0 15 -15 0 -15 0
0 15 0 15 15 0 15 0 0 10 0 10 -15 0 -15 0 0 15 0 15 15 0 15 0 0 15 0 15 -15
0 -15 0 0 10 0 10 15 0 15 0 0 15 0 15 -15 0 -15 0 0 15 0 15 11 0 10 0 15 14
14 15 0 10 0 11 -10 0 -10 0 0 15 0 15 -15 0 -15 0 0 10 0 10 15 0 15 0 0 15
0 15 10 0 10 0 0 -15 0 -15 15 0 15 0 0 15 0 15 -15 0 -15 0 0 15 0 15 15 0
15 0 0 -15 0 -15 15 0 15 0 0 15 0 15 -15 0 -15 0 0 10 0 10 15 0 15 0 0 15 0
15 -15 0 -15 0 0 -15 0 -15 -15 0 -15 0 0 15 0 15 -10 0 -10 0 0 -15 0 -15
-15 0 -15 0 0 15 0 15 -15 0 -15 0 0 -15 0 -15 15 0 15 0 0 -10 0 -10 -15 0
-15 0 0 -15 0 -15 -10 0 -10 0 0 15 0 15 -15 0 -15 0 0 -15 0 -15 15 0 15 0 0
-15 0 -15 -15 0 -15 0 0 -10 0 -10 15 0 15 0 0 -15 0 -15 -15 0 -15 0 0 -15 0
-15 15 0 15 0 0 15 0 15 10 0 10 0 0 -15 0 -15 15 0 15 0 0 -10 0 -10 -15 0
-15 0 0 -15 0 -15 -10 0 -10 0 0 15 0 15 -15 0 -15 0 0 -15 0 -15 15 0 15 0 0
-15 0 -15 -15 0 -15 0 0 -10 0 -10 15 0 15 0 0 -15 0 -15 -15 0 -15 0 0 -15 0
-15 15 0 15 0 0 15 0 15 10 0 10 0 0 -15 0 -15 15 0 15 0 0 -10 0 -10 -15 0
-15 0 0 -15 0 -15 -10 0 -10 0 0 15 0 15 -15 0 -15 0 0 -15 0 -15 15 0 15 0 0
-15 0 -15 -15 0 -15 0 0 -10 0 -10 15 0 15 0 0 -15 0 -15 -15 0 -15 0 0 -15 0
-15 15 0 15 0 0 15 0 15 10 0 10 0 0 -15 0 -15 15 0 15 0 0 -10 0 -10 -15 0
-15 0 0 -15 0 -15 -10 0 -10 0 0 15 0 15 -15 0 -15 0 0 -15 0 -15 15 0 15 0 0
-15 0 -15 -15 0 -15 0 0 -10 0 -10 15 0 15 0 0 -15 0 -15 -15 0 -15 0 0 -15 0
-15 15 0 15 0 0 15 0 15 10 0 10 0 0 -15 0 -15 15 0 15 0 0 -10 0 -10 -15 0
-15 0 0 -15 0 -15 -10 0 -10 0 0 15 0 15 -15 0 -15 0 0 -15 0 -15 15 0 15 0 0
-15 0 -15 -15 0 -15 0 0 -10 0 -10 15 0 15 0 0 -15 0 -15 -15 0 -15 0 0 -15 0
-15 15 0 15 0 0 15 0 15 10 0 10 0 0 -15 0 -15 15 0 15 0 0 -10 0 -10 -15 0
-15 0 0 -15 0 -15 -10 0 -10 0 0 15 0 15 -15 0 -15 0 0 -15 0 -15 15 0 15 0 0
-15 0 -15 -15 0 -15 0 0 -10 0 -10 15 0 15 0 0 -15 0 -15 -15 0 -15 0 0 -15 0
-15 15 0 15 0 0 15 0 15 10 0 10 0 0 -15 0 -15 15 0 15 0 0 -10 0 -10 -15 0
-15 0 0 -15 0 -15 -10 0 -10 0 0 15 0 15 -15 0 -15 0 0 -15 0 -15 15 0 15 0 0
-15 0 -15 -15 0 -15 0 0 -10 0 -10 15 0 15 0 0 -15 0 -15 -15 0 -15 0 0 -15 0
-15 15 0 15 0 0 15 0 15 10 0 10 0 0 -15 0 -15 15 0 15 0 0 15 0 15 15 0 15 0
0 -15 0 -15 10 0 10 0 0 15 0 15 15 0 15 0 0 -15 0 -15 15 0 15 0 0 15 0 15
10 0 10 0 0 -15 0 -15 15 0 15 0 0 15 0 15 15 0 15 0 0 -15 0 -15 10 0 10 0 0
15 0 15 15 0 15 0 0 -15 0 -15 15 0 15 0 0 15 0 15 10 0 10 0 0 -15 0 -15 15
0 15 0 0 15 0 15 15 0 15 0 0 -15 0 -15 10 0 10 0 0 15 0 15 15 0 15 0 0 15 0
15 -15 0 -15 0 0 -15 0 -15 -10 0 -10 0 0 15 0 15 -15 0 -15 0 0 10 0 10 15 0
15 0 0 15 0 15 -15 0 -15 0 0 -15 0 -15 -15 0 -15 0 0 15 0 15 15 0 15 0 0 15
0 15 -15 0 -15 0 0 -15 0 -15 -10 0 -10 0 0 15 0 15 -15 0 -15 0 0 10 0 10 15
0 15 0 0 15 0 15 10 0 10 0 0 15 0 15 15 0 15 0 0 -15 0 -15 15 0 15 0 0 -15
0 -15 -15 0 -15 0 0 -10 0 -10 15 0 15 0 0 -15 0 -15 10 0 10 0 0 -15 0 -15
15 0 15 0 0 -10 0 -10 15 0 15 0 0 -15 0 -15 10 0 10 0 0 15 0 15 15 0 15 0 0
-15 0 -15 15 0 15 0 0 -15 0 -15 10 0 10 0 0 15 0 15 15 0 15 0 0 -15 0 -15
15 0 15 0 0 15 0 15 10 0 10 0 0 -15 0 -15 15 0 15 0 0 15 0 15 15 0 15 0 0
-15 0 -15 10 0 10 0 0 15 0 15 15 0 15 0 0 -15 0 -15 15 0 15 0 0 15 0 15 10
0 10 0 0 15 0 15 15 0 15 0 0 -15 0 -15 15 0 15 0 0 11 0 10 14 15 15 14 10 0
11 0 0 15 0 15 15 0 15 0 0 14 0 14 13 6 12 6 -12 6 -13 6 0 14 0 14 10 0 10
0 0 15 0 15 15 0 15 0 0 10 0 10 -15 0 -15 0 0 15 0 15 15 0 15 0 0 15 0 15
15 0 15 0 0 -15 0 -15 10 0 10 0 0 -15 0 -15 15 0 15 0 0 -10 0 -10 -15 0 -15
0 0 -15 0 -15 -10 0 -10 0 0 15 0 15 -15 0 -15 0 0 -15 0 -15 15 0 15 0 0 -15
0 -15 -15 0 -15 0 0 15 0 15 -15 0 -15 0 0 -15 0 -15 15 0 15 0 0 -10 0 -10
-15 0 -15 0 0 -15 0 -15 15 0 15 0 0 -15 0 -15 -15 0 -15 0 0 15 0 15 -10 0
-10 0 0 -15 0 -15 -15 0 -15 0 0 -10 0 -10 15 0 15 0 0 -15 0 -15 -15 0 -15 0
0 15 0 15 -15 0 -15 0 0 -15 0 -15 15 0 15 0 0 -15 0 -15 15 0 15 0 0 15 0 15
10 0 10 0 0 -15 0 -15 15 0 15 0 0 15 0 15 15 0 15 0 0 -15 0 -15 10 0 10 0 0
15 0 15 15 0 15 0 0 -15 0 -15 15 0 15 0 0 15 0 15 -15 0 -15 0 0 15 0 15 15
0 15 0 0 10 0 10 -15 0 -15 0 0 15 0 15 15 0 15 0 0 15 0 15 -15 0 -15 0 0 10
0 10 15 0 15 0 0 15 0 15 -15 0 -15 0 0 15 0 15 15 0 15 0 0 10 0 10 -15 0
-15 0 0 15 0 15 15 0 15 0 0 15 0 15 -15 0 -15 0 0 10 0 10 15 0 15 0 0 15 0
15 -15 0 -15 0 0 15 0 15 15 0 15 0 0 10 0 10 -15 0 -15 0 0 15 0 15 15 0 15
0 0 15 0 15 -15 0 -15 0 0 10 0 10 15 0 15 0 0 15 0 15 -15 0 -15 0 0 15 0 15
15 0 15 0 0 10 0 10 -15 0 -15 0 0 15 0 15 15 0 15 0 0 15 0 15 -15 0 -15 0 0
10 0 10 15 0 15 0 0 15 0 15 -15 0 -15 0 0 15 0 15 15 0 15 0 0 10 0 10 -15 0
-15 0 0 15 0 15 15 0 15 0 0 15 0 15 -15 0 -15 0 0 10 0 10 15 0 15 0 0 15 0
15 -15 0 -15 0 0 15 0 15 15 0 15 0 0 10 0 10 -15 0 -15 0 0 15 0 15 15 0 15
0 0 15 0 15 -15 0 -15 0 0 10 0 10 15 0 15 0 0 15 0 15 -15 0 -15 0 0 15 0 15
15 0 15 0 0 10 0 10 -15 0 -15 0 0 15 0 15 15 0 15 0 0 15 0 15 -15 0 -15 0 0
10 0 10 15 0 15 0 0 15 0 15 -15 0 -15 0 0 -15 0 -15 -15 0 -15 0 0 15 0 15
-10 0 -10 0 0 -15 0 -15 -15 0 -15 0 0 15 0 15 -15 0 -15 0 0 -15 0 -15 15 0
15 0 0 -10 0 -10 -15 0 -15 0 0 -15 0 -15 -10 0 -10 0 0 15 0 15 -15 0 -15 0
0 10 0 10 15 0 15 0 0 15 0 15 -15 0 -15 0 0 -15 0 -15 -15 0 -15 0 0 15 0 15
-10 0 -10 0 0 -15 0 -15 -15 0 -15 0 0 15 0 15 -15 0 -15 0 0 -15 0 -15 15 0
15 0 0 -10 0 -10 -15 0 -15 0 0 -15 0 -15 -10 0 -10 0 0 15 0 15 -15 0 -15 0
0 10 0 10 15 0 15 0 0 15 0 15 -15 0 -15 0 0 -15 0 -15 -15 0 -15 0 0 15 0 15
-10 0 -10 0 0 -15 0 -15 -15 0 -15 0 0 -10 0 -10 15 0 15 0 0 -15 0 -15 10 0
10 0 0 15 0 15 15 0 15 0 0 -15 0 -15 -15 0 -15 0 0 -15 0 -15 15 0 15 0 0
-10 0 -10 -15 0 -15 0 0 -15 0 -15 15 0 15 0 0 15 0 15 15 0 15 0 0 -15 0 -15
-15 0 -15 0 0 -15 0 -15 15 0 15 0 0 15 0 15 10 0 10 0 0 -15 0 -15 15 0 15 0
0 -10 0 -10 -15 0 -15 0 0 -15 0 -15 -10 0 -10 0 0 -15 0 -15 -15 0 -15 0 0
15 0 15 15 0 15 0 0 15 0 15 -15 0 -15 0 0 10 0 10 -15 0 -15 0 0 15 0 15 -10
0 -10 0 0 14 0 14 13 6 12 6 -12 6 -13 6 0 14 0 14 -15 0 -15 0 0 15 0 15 -14
0 -14 0 -6 13 -6 12 -6 -12 -6 -13 -14 0 -14 0 0 10 0 10 -15 0 -15 0 0 15 0
15 -10 0 -10 0 0 15 0 15 10 0 10 0 0 -15 0 -15 15 0 15 0 0 15 0 15 15 0 15
0 0 -15 0 -15 10 0 10 0 0 15 0 15 15 0 15 0 0 -15 0 -15 15 0 15 0 0 15 0 15
10 0 10 0 0 -15 0 -15 15 0 15 0 0 15 0 15 15 0 15 0 0 -15 0 -15 10 0 10 0 0
15 0 15 15 0 15 0 0 -15 0 -15 15 0 15 0 0 15 0 15 10 0 10 0 0 -15 0 -15 15
0 15 0 0 15 0 15 15 0 15 0 0 -15 0 -15 10 0 10 0 0 15 0 15 15 0 15 0 0 -15
0 -15 15 0 15 0 0 15 0 15 10 0 10 0 0 -15 0 -15 15 0 15 0 0 15 0 15 11 0 10
0 15 14 14 15 0 10 0 11 -625 0 -625 0 0 -625z m480 560 l0 -15 -15 0 -15 0 0
15 0 15 15 0 15 0 0 -15z m50 0 l0 -15 -10 0 -10 0 0 15 0 15 10 0 10 0 0 -15z
m60 0 l0 -15 -15 0 -15 0 0 15 0 15 15 0 15 0 0 -15z m50 0 l0 -15 -15 0 -15
0 0 15 0 15 15 0 15 0 0 -15z m-430 -55 l0 -10 -10 0 -10 0 0 -15 0 -15 -15 0
-15 0 0 -15 0 -15 -15 0 -15 0 0 -10 0 -10 15 0 15 0 0 -15 0 -15 15 0 15 0 0
-15 0 -15 -15 0 -15 0 0 15 0 15 -15 0 -15 0 0 14 0 14 -12 6 -13 6 13 6 12 6
0 14 0 14 15 0 15 0 0 15 0 15 15 0 15 0 0 10 0 10 10 0 10 0 0 -10z m640 0
l0 -10 -10 0 -10 0 0 10 0 10 10 0 10 0 0 -10z m160 0 l0 -10 15 0 15 0 0 -15
0 -15 15 0 15 0 0 -15 0 -15 -15 0 -15 0 0 -10 0 -10 15 0 15 0 0 -15 0 -15
10 0 10 0 0 15 0 15 15 0 15 0 0 10 0 10 -15 0 -15 0 0 15 0 15 15 0 15 0 0
15 0 15 14 0 14 0 6 13 6 12 6 -12 6 -13 14 0 14 0 0 -15 0 -15 -15 0 -15 0 0
-15 0 -15 15 0 15 0 0 -10 0 -10 -15 0 -15 0 0 -15 0 -15 15 0 15 0 0 -15 0
-15 -15 0 -15 0 0 15 0 15 -10 0 -10 0 0 -15 0 -15 -15 0 -15 0 0 -10 0 -10
15 0 15 0 0 -15 0 -15 10 0 10 0 0 15 0 15 15 0 15 0 0 -15 0 -15 -15 0 -15 0
0 -15 0 -15 15 0 15 0 0 -10 0 -10 -15 0 -15 0 0 -15 0 -15 15 0 15 0 0 -15 0
-15 -15 0 -15 0 0 15 0 15 -10 0 -10 0 0 -15 0 -15 -15 0 -15 0 0 -10 0 -10
15 0 15 0 0 -15 0 -15 10 0 10 0 0 15 0 15 15 0 15 0 0 -15 0 -15 -15 0 -15 0
0 -15 0 -15 15 0 15 0 0 -10 0 -10 -15 0 -15 0 0 -15 0 -15 15 0 15 0 0 -15 0
-15 -15 0 -15 0 0 15 0 15 -10 0 -10 0 0 -15 0 -15 -15 0 -15 0 0 -10 0 -10
15 0 15 0 0 -15 0 -15 10 0 10 0 0 15 0 15 15 0 15 0 0 -15 0 -15 -15 0 -15 0
0 -15 0 -15 15 0 15 0 0 -10 0 -10 -15 0 -15 0 0 -15 0 -15 15 0 15 0 0 -15 0
-15 -15 0 -15 0 0 15 0 15 -10 0 -10 0 0 -15 0 -15 -15 0 -15 0 0 -10 0 -10
15 0 15 0 0 -15 0 -15 10 0 10 0 0 15 0 15 15 0 15 0 0 -15 0 -15 -15 0 -15 0
0 -15 0 -15 15 0 15 0 0 -10 0 -10 -15 0 -15 0 0 -15 0 -15 15 0 15 0 0 -15 0
-15 -15 0 -15 0 0 15 0 15 -10 0 -10 0 0 -11 0 -10 14 -15 15 -14 10 0 11 0 0
-15 0 -15 -15 0 -15 0 0 11 0 10 -14 15 -15 14 -10 0 -11 0 0 15 0 15 15 0 15
0 0 15 0 15 -15 0 -15 0 0 10 0 10 15 0 15 0 0 15 0 15 -15 0 -15 0 0 15 0 15
-15 0 -15 0 0 10 0 10 15 0 15 0 0 15 0 15 -15 0 -15 0 0 11 0 10 -14 15 -15
14 -10 0 -11 0 0 15 0 15 -15 0 -15 0 0 15 0 15 15 0 15 0 0 10 0 10 -15 0
-15 0 0 15 0 15 -10 0 -10 0 0 14 0 14 13 6 12 6 -12 6 -13 6 0 14 0 14 -15 0
-15 0 0 15 0 15 -11 0 -10 0 -15 14 -14 15 0 10 0 11 -15 0 -15 0 0 15 0 15
11 0 10 0 15 14 14 15 0 10 0 11 15 0 15 0 0 15 0 15 15 0 15 0 0 -15 0 -15
10 0 10 0 0 15 0 15 15 0 15 0 0 10 0 10 -15 0 -15 0 0 15 0 15 -10 0 -10 0 0
-15 0 -15 -15 0 -15 0 0 15 0 15 -15 0 -15 0 0 11 0 10 -14 15 -15 14 -10 0
-11 0 0 15 0 15 15 0 15 0 0 -11 0 -10 14 -15 15 -14 10 0 11 0 0 10 0 10 -15
0 -15 0 0 15 0 15 15 0 15 0 0 15 0 15 15 0 15 0 0 10 0 10 10 0 10 0 0 -10z
m-420 -25 l0 -15 50 0 50 0 0 -15 0 -15 15 0 15 0 0 -10 0 -10 15 0 15 0 0
-15 0 -15 10 0 10 0 0 -15 0 -15 15 0 15 0 0 -40 0 -40 15 0 15 0 0 -50 0 -50
-15 0 -15 0 0 -40 0 -40 -15 0 -15 0 0 -30 0 -30 -25 0 -25 0 0 -10 0 -10 -15
0 -15 0 0 -15 0 -15 -50 0 -50 0 0 -15 0 -15 -30 0 -30 0 0 15 0 15 -65 0 -65
0 0 15 0 15 -15 0 -15 0 0 10 0 10 -25 0 -25 0 0 30 0 30 -15 0 -15 0 0 40 0
40 -10 0 -10 0 0 50 0 50 10 0 10 0 0 40 0 40 15 0 15 0 0 15 0 15 15 0 15 0
0 11 0 10 14 15 15 14 10 0 11 0 0 15 0 15 40 0 40 0 0 15 0 15 55 0 55 0 0
-15z m500 -55 l0 -10 -10 0 -10 0 0 10 0 10 10 0 10 0 0 -10z m-80 -80 l0 -10
-10 0 -10 0 0 10 0 10 10 0 10 0 0 -10z m160 0 l0 -10 -10 0 -10 0 0 10 0 10
10 0 10 0 0 -10z m-1010 -55 l0 -15 -15 0 -15 0 0 -10 0 -10 15 0 15 0 0 -15
0 -15 -15 0 -15 0 0 14 0 14 -12 6 -13 6 13 6 12 6 0 14 0 14 15 0 15 0 0 -15z
m1010 -105 l0 -10 -10 0 -10 0 0 10 0 10 10 0 10 0 0 -10z m-1010 -55 l0 -15
-15 0 -15 0 0 -10 0 -10 15 0 15 0 0 -15 0 -15 15 0 15 0 0 -14 0 -14 13 -6
12 -6 -12 -6 -13 -6 0 -14 0 -14 10 0 10 0 0 -15 0 -15 15 0 15 0 0 -10 0 -10
14 0 14 0 5 13 4 12 9 -9 9 -9 -12 -4 -13 -5 0 -14 0 -14 -15 0 -15 0 0 -15 0
-15 -15 0 -15 0 0 15 0 15 -10 0 -10 0 0 -15 0 -15 -15 0 -15 0 0 15 0 15 -15
0 -15 0 0 14 0 14 -12 6 -13 6 13 6 12 6 0 14 0 14 15 0 15 0 0 15 0 15 15 0
15 0 0 10 0 10 -15 0 -15 0 0 15 0 15 -15 0 -15 0 0 14 0 14 -12 6 -13 6 13 6
12 6 0 14 0 14 15 0 15 0 0 -15z m756 -29 l14 -15 0 -35 0 -36 15 0 15 0 0
-55 0 -55 -15 0 -15 0 0 -40 0 -40 -10 0 -10 0 0 -25 0 -25 -15 0 -15 0 0 -15
0 -15 -25 0 -25 0 0 -15 0 -15 -40 0 -40 0 0 -10 0 -10 -70 0 -70 0 0 10 0 10
-50 0 -50 0 0 15 0 15 -15 0 -15 0 0 15 0 15 -11 0 -10 0 -15 14 -14 15 0 50
0 51 65 0 65 0 0 -15 0 -15 -11 0 -10 0 -15 -14 -14 -15 0 -25 0 -26 25 0 25
0 0 15 0 15 15 0 15 0 0 11 0 10 14 15 15 14 10 0 11 0 0 30 0 30 25 0 25 0 0
-15 0 -15 15 0 15 0 0 -15 0 -15 15 0 15 0 0 -10 0 -10 25 0 25 0 0 25 0 25
-15 0 -15 0 0 14 0 14 -12 6 -13 6 13 6 12 6 0 14 0 14 15 0 15 0 0 15 0 15
11 0 10 0 15 14 14 15 0 35 0 36 26 0 25 0 15 -14z m254 -76 l0 -10 -10 0 -10
0 0 10 0 10 10 0 10 0 0 -10z m-960 -160 l0 -10 15 0 15 0 0 -15 0 -15 15 0
15 0 0 -11 0 -10 14 -15 15 -14 10 0 11 0 0 -15 0 -15 -15 0 -15 0 0 -15 0
-15 15 0 15 0 0 -10 0 -10 14 0 14 0 5 13 4 12 9 -9 9 -9 -12 -4 -13 -5 0 -14
0 -14 10 0 10 0 0 -15 0 -15 15 0 15 0 0 -10 0 -10 14 0 14 0 5 13 4 12 9 -9
9 -9 -13 -4 -12 -5 0 -14 0 -14 -15 0 -15 0 0 -15 0 -15 -15 0 -15 0 0 15 0
15 -10 0 -10 0 0 -15 0 -15 -15 0 -15 0 0 -10 0 -10 15 0 15 0 0 -15 0 -15 10
0 10 0 0 15 0 15 15 0 15 0 0 -15 0 -15 15 0 15 0 0 -11 0 -10 14 -15 15 -14
10 0 11 0 0 -15 0 -15 -15 0 -15 0 0 11 0 10 -14 15 -15 14 -10 0 -11 0 0 -10
0 -10 15 0 15 0 0 -15 0 -15 -15 0 -15 0 0 15 0 15 -15 0 -15 0 0 -15 0 -15
-10 0 -10 0 0 15 0 15 -15 0 -15 0 0 -15 0 -15 -15 0 -15 0 0 15 0 15 15 0 15
0 0 10 0 10 -15 0 -15 0 0 15 0 15 -10 0 -10 0 0 -15 0 -15 -15 0 -15 0 0 -10
0 -10 15 0 15 0 0 -15 0 -15 -15 0 -15 0 0 15 0 15 -15 0 -15 0 0 -15 0 -15
-10 0 -10 0 0 15 0 15 -15 0 -15 0 0 -15 0 -15 -15 0 -15 0 0 14 0 14 -12 6
-13 6 13 6 12 6 0 14 0 14 15 0 15 0 0 15 0 15 15 0 15 0 0 -15 0 -15 10 0 10
0 0 15 0 15 15 0 15 0 0 10 0 10 -15 0 -15 0 0 15 0 15 -10 0 -10 0 0 -15 0
-15 -15 0 -15 0 0 15 0 15 -15 0 -15 0 0 14 0 14 -12 6 -13 6 13 6 12 6 0 14
0 14 15 0 15 0 0 15 0 15 15 0 15 0 0 -15 0 -15 10 0 10 0 0 15 0 15 15 0 15
0 0 10 0 10 -15 0 -15 0 0 15 0 15 -10 0 -10 0 0 -15 0 -15 -15 0 -15 0 0 15
0 15 -15 0 -15 0 0 14 0 14 -12 6 -13 6 13 6 12 6 0 14 0 14 15 0 15 0 0 15 0
15 15 0 15 0 0 10 0 10 10 0 10 0 0 -10z m800 0 l0 -10 15 0 15 0 0 -30 0 -30
15 0 15 0 0 -50 0 -50 -15 0 -15 0 0 -40 0 -40 -15 0 -15 0 0 -15 0 -15 -10 0
-10 0 0 -15 0 -15 -15 0 -15 0 0 -10 0 -10 -25 0 -25 0 0 -15 0 -15 -55 0 -55
0 0 -15 0 -15 -15 0 -15 0 0 15 0 15 -65 0 -65 0 0 15 0 15 -25 0 -25 0 0 10
0 10 -15 0 -15 0 0 30 0 30 -15 0 -15 0 0 10 0 10 30 0 30 0 0 15 0 15 10 0
10 0 0 -15 0 -15 80 0 80 0 0 -40 0 -40 30 0 30 0 0 55 0 55 10 0 10 0 0 15 0
15 26 0 25 0 15 14 14 15 0 10 0 11 15 0 15 0 0 25 0 25 15 0 15 0 0 40 0 40
10 0 10 0 0 -10z m160 0 l0 -10 -10 0 -10 0 0 10 0 10 10 0 10 0 0 -10z m-960
-160 l0 -10 -10 0 -10 0 0 10 0 10 10 0 10 0 0 -10z m990 -135 l0 -15 -11 0
-10 0 -15 -14 -14 -15 0 -10 0 -11 10 0 10 0 0 15 0 15 15 0 15 0 0 -15 0 -15
-15 0 -15 0 0 -15 0 -15 15 0 15 0 0 -10 0 -10 -15 0 -15 0 0 -15 0 -15 -10 0
-10 0 0 15 0 15 -15 0 -15 0 0 -15 0 -15 -15 0 -15 0 0 14 0 14 -12 5 -13 4 9
9 9 9 4 -12 5 -13 14 0 14 0 0 10 0 10 15 0 15 0 0 15 0 15 -15 0 -15 0 0 15
0 15 11 0 10 0 15 14 14 15 0 10 0 11 15 0 15 0 0 -15z m-990 -25 l0 -10 -10
0 -10 0 0 10 0 10 10 0 10 0 0 -10z m160 0 l0 -10 -10 0 -10 0 0 10 0 10 10 0
10 0 0 -10z m-80 -80 l0 -10 -10 0 -10 0 0 10 0 10 10 0 10 0 0 -10z"/>
<path d="M990 1135 l0 -15 -15 0 -15 0 0 -15 0 -15 15 0 15 0 0 15 0 15 10 0
10 0 0 -15 0 -15 15 0 15 0 0 15 0 15 -15 0 -15 0 0 15 0 15 -10 0 -10 0 0
-15z"/>
<path d="M1150 1135 l0 -15 -15 0 -15 0 0 -15 0 -15 15 0 15 0 0 -10 0 -10
-15 0 -15 0 0 -15 0 -15 -15 0 -15 0 0 -15 0 -15 15 0 15 0 0 15 0 15 15 0 15
0 0 14 0 14 13 6 12 6 -12 6 -13 6 0 14 0 14 10 0 10 0 0 15 0 15 -10 0 -10 0
0 -15z"/>
<path d="M990 1080 l0 -10 -15 0 -15 0 0 -15 0 -15 15 0 15 0 0 15 0 15 10 0
10 0 0 -15 0 -15 15 0 15 0 0 -15 0 -15 11 0 10 0 15 -14 14 -15 0 -10 0 -11
-10 0 -10 0 0 15 0 15 -15 0 -15 0 0 -15 0 -15 -15 0 -15 0 0 -15 0 -15 15 0
15 0 0 -10 0 -10 -15 0 -15 0 0 -15 0 -15 -10 0 -10 0 0 15 0 15 -15 0 -15 0
0 10 0 10 15 0 15 0 0 15 0 15 -15 0 -15 0 0 -15 0 -15 -11 0 -10 0 -15 -14
-14 -15 0 -10 0 -11 10 0 10 0 0 -15 0 -15 15 0 15 0 0 -10 0 -10 15 0 15 0 0
-15 0 -15 10 0 10 0 0 -15 0 -15 15 0 15 0 0 -10 0 -10 -15 0 -15 0 0 -15 0
-15 15 0 15 0 0 -15 0 -15 15 0 15 0 0 15 0 15 10 0 10 0 0 -15 0 -15 15 0 15
0 0 15 0 15 15 0 15 0 0 14 0 14 13 6 12 6 -12 6 -13 6 0 14 0 14 -15 0 -15 0
0 15 0 15 -15 0 -15 0 0 -15 0 -15 -10 0 -10 0 0 15 0 15 -15 0 -15 0 0 10 0
10 15 0 15 0 0 15 0 15 10 0 10 0 0 -15 0 -15 15 0 15 0 0 15 0 15 15 0 15 0
0 14 0 14 13 6 12 6 -12 6 -13 6 0 14 0 14 -15 0 -15 0 0 15 0 15 -11 0 -10 0
-15 14 -14 15 0 10 0 11 -15 0 -15 0 0 15 0 15 -15 0 -15 0 0 10 0 10 -10 0
-10 0 0 -10z m80 -135 l0 -15 -15 0 -15 0 0 15 0 15 15 0 15 0 0 -15z m50 0
l0 -15 15 0 15 0 0 -10 0 -10 -15 0 -15 0 0 -15 0 -15 -15 0 -15 0 0 15 0 15
15 0 15 0 0 10 0 10 -11 0 -10 0 -15 -14 -14 -15 0 -10 0 -11 -15 0 -15 0 0
-15 0 -15 -15 0 -15 0 0 15 0 15 15 0 15 0 0 15 0 15 11 0 10 0 15 14 14 15 0
10 0 11 15 0 15 0 0 -15z m-160 -50 l0 -15 15 0 15 0 0 -11 0 -10 14 -15 15
-14 10 0 11 0 0 -15 0 -15 15 0 15 0 0 -15 0 -15 -15 0 -15 0 0 15 0 15 -15 0
-15 0 0 11 0 10 -14 15 -15 14 -10 0 -11 0 0 15 0 15 -15 0 -15 0 0 15 0 15
15 0 15 0 0 -15z m160 -110 l0 -15 15 0 15 0 0 -10 0 -10 -15 0 -15 0 0 -15 0
-15 -15 0 -15 0 0 15 0 15 15 0 15 0 0 10 0 10 -11 0 -10 0 -15 -14 -14 -15 0
-10 0 -11 -15 0 -15 0 0 15 0 15 11 0 10 0 15 14 14 15 0 10 0 11 15 0 15 0 0
-15z"/>
<path d="M990 920 l0 -10 10 0 10 0 0 10 0 10 -10 0 -10 0 0 -10z"/>
<path d="M1070 840 l0 -10 10 0 10 0 0 10 0 10 -10 0 -10 0 0 -10z"/>
<path d="M1070 680 l0 -10 -15 0 -15 0 0 -15 0 -15 15 0 15 0 0 -11 0 -10 14
-15 15 -14 10 0 11 0 0 -15 0 -15 15 0 15 0 0 14 0 14 13 6 12 6 -12 6 -13 6
0 14 0 14 -15 0 -15 0 0 15 0 15 -15 0 -15 0 0 10 0 10 -10 0 -10 0 0 -10z
m20 -25 l0 -15 15 0 15 0 0 -15 0 -15 15 0 15 0 0 -10 0 -10 -15 0 -15 0 0 10
0 10 -15 0 -15 0 0 15 0 15 -10 0 -10 0 0 15 0 15 10 0 10 0 0 -15z"/>
<path d="M1150 440 l0 -10 10 0 10 0 0 10 0 10 -10 0 -10 0 0 -10z"/>
<path d="M370 1000 l0 -40 15 0 15 0 0 -15 0 -15 11 0 10 0 15 -14 14 -15 0
-10 0 -11 15 0 15 0 0 -15 0 -15 11 0 10 0 15 -14 14 -15 0 -10 0 -11 30 0 30
0 0 15 0 15 10 0 10 0 0 25 0 25 15 0 15 0 0 15 0 15 11 0 10 0 15 14 14 15 0
25 0 26 -25 0 -25 0 0 -15 0 -15 -15 0 -15 0 0 -15 0 -15 -10 0 -10 0 0 -25 0
-25 -30 0 -30 0 0 11 0 10 -14 15 -15 14 -10 0 -11 0 0 15 0 15 -15 0 -15 0 0
11 0 10 -14 15 -15 14 -10 0 -11 0 0 15 0 15 -15 0 -15 0 0 -40z"/>
<path d="M160 625 l0 -15 -15 0 -15 0 0 -10 0 -10 15 0 15 0 0 -15 0 -15 15 0
15 0 0 15 0 15 -15 0 -15 0 0 10 0 10 11 0 10 0 15 -14 14 -15 0 -10 0 -11 15
0 15 0 0 15 0 15 -11 0 -10 0 -15 14 -14 15 0 10 0 11 -15 0 -15 0 0 -15z"/>
<path d="M190 495 l0 -15 -15 0 -15 0 0 -15 0 -15 -15 0 -15 0 0 -10 0 -10 15
0 15 0 0 -15 0 -15 15 0 15 0 0 15 0 15 -15 0 -15 0 0 10 0 10 15 0 15 0 0 15
0 15 10 0 10 0 0 -15 0 -15 15 0 15 0 0 -10 0 -10 -15 0 -15 0 0 -15 0 -15 15
0 15 0 0 -15 0 -15 11 0 10 0 15 -14 14 -15 0 -10 0 -11 -10 0 -10 0 0 15 0
15 -15 0 -15 0 0 -15 0 -15 -15 0 -15 0 0 -15 0 -15 15 0 15 0 0 -10 0 -10
-15 0 -15 0 0 -15 0 -15 15 0 15 0 0 -15 0 -15 15 0 15 0 0 15 0 15 10 0 10 0
0 -15 0 -15 15 0 15 0 0 15 0 15 15 0 15 0 0 15 0 15 -15 0 -15 0 0 10 0 10
11 0 10 0 15 -14 14 -15 0 -10 0 -11 15 0 15 0 0 15 0 15 -11 0 -10 0 -15 14
-14 15 0 10 0 11 -15 0 -15 0 0 15 0 15 -11 0 -10 0 -15 14 -14 15 0 10 0 11
10 0 10 0 0 11 0 10 -14 15 -15 14 -10 0 -11 0 0 15 0 15 -15 0 -15 0 0 15 0
15 -10 0 -10 0 0 -15z m80 -80 l0 -15 -15 0 -15 0 0 15 0 15 15 0 15 0 0 -15z
m0 -110 l0 -15 -15 0 -15 0 0 15 0 15 15 0 15 0 0 -15z m50 0 l0 -15 -11 0
-10 0 -15 -14 -14 -15 0 -10 0 -11 -15 0 -15 0 0 15 0 15 11 0 10 0 15 14 14
15 0 10 0 11 15 0 15 0 0 -15z m0 -50 l0 -15 -15 0 -15 0 0 15 0 15 15 0 15 0
0 -15z"/>
<path d="M190 440 l0 -10 10 0 10 0 0 10 0 10 -10 0 -10 0 0 -10z"/>
<path d="M160 305 l0 -15 -15 0 -15 0 0 -10 0 -10 15 0 15 0 0 -15 0 -15 15 0
15 0 0 14 0 14 13 6 12 6 -12 6 -13 6 0 14 0 14 -15 0 -15 0 0 -15z m30 -25
l0 -10 -15 0 -15 0 0 10 0 10 15 0 15 0 0 -10z"/>
<path d="M270 200 l0 -10 -15 0 -15 0 0 -15 0 -15 -15 0 -15 0 0 -15 0 -15
-10 0 -10 0 0 15 0 15 -15 0 -15 0 0 -15 0 -15 -15 0 -15 0 0 -10 0 -10 15 0
15 0 0 10 0 10 14 0 14 0 6 -12 6 -13 6 13 6 12 14 0 14 0 0 15 0 15 15 0 15
0 0 15 0 15 10 0 10 0 0 -15 0 -15 15 0 15 0 0 -15 0 -15 14 0 14 0 6 -12 6
-13 6 13 6 12 14 0 14 0 0 15 0 15 -15 0 -15 0 0 -15 0 -15 -10 0 -10 0 0 15
0 15 -15 0 -15 0 0 15 0 15 -15 0 -15 0 0 10 0 10 -10 0 -10 0 0 -10z"/>
<path d="M1150 120 l0 -10 10 0 10 0 0 10 0 10 -10 0 -10 0 0 -10z"/>
<path d="M1243 1235 l-13 -14 0 -11 0 -10 10 0 10 0 0 -14 0 -14 -12 -6 -13
-6 13 -6 12 -6 0 -14 0 -14 -10 0 -10 0 0 -14 0 -14 13 -6 12 -6 -12 -6 -13
-6 0 -14 0 -14 10 0 10 0 0 -14 0 -14 -12 -6 -13 -6 13 -6 12 -6 0 -14 0 -14
-10 0 -10 0 0 -14 0 -14 13 -6 12 -6 -12 -6 -13 -6 0 -14 0 -14 10 0 10 0 0
-14 0 -14 -12 -6 -13 -6 13 -6 12 -6 0 -14 0 -14 -10 0 -10 0 0 -14 0 -14 13
-6 12 -6 -12 -6 -13 -6 0 -14 0 -14 10 0 10 0 0 -14 0 -14 -12 -6 -13 -6 13
-6 12 -6 0 -14 0 -14 -10 0 -10 0 0 -14 0 -14 13 -6 12 -6 -12 -6 -13 -6 0
-14 0 -14 10 0 10 0 0 -14 0 -14 -12 -6 -13 -6 13 -6 12 -6 0 -14 0 -14 -10 0
-10 0 0 -14 0 -14 13 -6 12 -6 -12 -6 -13 -6 0 -14 0 -14 10 0 10 0 0 -14 0
-14 -12 -6 -13 -6 13 -6 12 -6 0 -14 0 -14 -10 0 -10 0 0 -14 0 -14 13 -6 12
-6 -12 -6 -13 -6 0 -14 0 -14 10 0 10 0 0 -14 0 -14 -12 -6 -13 -6 13 -6 12
-6 0 -14 0 -14 -10 0 -10 0 0 -14 0 -14 13 -6 12 -6 -12 -6 -13 -6 0 -14 0
-14 10 0 10 0 0 -11 0 -10 -14 -15 -15 -14 -10 0 -11 0 0 10 0 10 -14 0 -14 0
-6 -12 -6 -13 -6 13 -6 12 -14 0 -14 0 0 -10 0 -10 -14 0 -14 0 -6 13 -6 12
-6 -12 -6 -13 -14 0 -14 0 0 10 0 10 -14 0 -14 0 -6 -12 -6 -13 -6 13 -6 12
-14 0 -14 0 0 -10 0 -10 -14 0 -14 0 -6 13 -6 12 -6 -12 -6 -13 -14 0 -14 0 0
10 0 10 -14 0 -14 0 -6 -12 -6 -13 -6 13 -6 12 -14 0 -14 0 0 -10 0 -10 -14 0
-14 0 -6 13 -6 12 -6 -12 -6 -13 -14 0 -14 0 0 10 0 10 -14 0 -14 0 -6 -12 -6
-13 -6 13 -6 12 -14 0 -14 0 0 -10 0 -10 -14 0 -14 0 -6 13 -6 12 -6 -12 -6
-13 -14 0 -14 0 0 10 0 10 -14 0 -14 0 -6 -12 -6 -13 -6 13 -6 12 -14 0 -14 0
0 -10 0 -10 -14 0 -14 0 -6 13 -6 12 -6 -12 -6 -13 -14 0 -14 0 0 10 0 10 -14
0 -14 0 -6 -12 -6 -13 -6 13 -6 12 -14 0 -14 0 0 -10 0 -10 -14 0 -14 0 -6 13
-6 12 -6 -12 -6 -13 -14 0 -14 0 0 10 0 10 -14 0 -14 0 -6 -12 -6 -13 -6 12
-6 13 -14 0 -14 0 0 -10 0 -10 -14 0 -14 0 -6 13 -6 12 -6 -12 -6 -13 -14 0
-14 0 0 10 0 10 -11 0 -10 0 -15 -14 -14 -15 0 -10 0 -11 625 0 625 0 0 625 0
625 -12 0 -13 -1 -12 -14z"/>
<path d="M80 1185 l0 -15 14 0 14 0 5 -12 4 -13 9 9 9 9 -12 4 -13 5 0 14 0
14 -15 0 -15 0 0 -15z"/>
<path d="M290 1186 l0 -14 -12 -5 -13 -4 9 -9 9 -9 4 13 5 12 14 0 14 0 0 15
0 15 -15 0 -15 0 0 -14z"/>
<path d="M350 1185 l0 -15 10 0 10 0 0 15 0 15 -10 0 -10 0 0 -15z"/>
<path d="M720 1185 l0 -15 15 0 15 0 0 15 0 15 -15 0 -15 0 0 -15z"/>
<path d="M770 1185 l0 -15 15 0 15 0 0 15 0 15 -15 0 -15 0 0 -15z"/>
<path d="M910 1160 l0 -10 10 0 10 0 0 10 0 10 -10 0 -10 0 0 -10z"/>
<path d="M1070 1160 l0 -10 10 0 10 0 0 10 0 10 -10 0 -10 0 0 -10z"/>
<path d="M190 1080 l0 -10 10 0 10 0 0 -15 0 -15 15 0 15 0 0 15 0 15 -15 0
-15 0 0 10 0 10 -10 0 -10 0 0 -10z"/>
<path d="M110 1000 l0 -10 10 0 10 0 0 10 0 10 -10 0 -10 0 0 -10z"/>
<path d="M910 1000 l0 -10 10 0 10 0 0 10 0 10 -10 0 -10 0 0 -10z"/>
<path d="M110 840 l0 -10 10 0 10 0 0 10 0 10 -10 0 -10 0 0 -10z"/>
<path d="M190 760 l0 -10 10 0 10 0 0 10 0 10 -10 0 -10 0 0 -10z"/>
<path d="M110 680 l0 -10 10 0 10 0 0 10 0 10 -10 0 -10 0 0 -10z"/>
<path d="M110 520 l0 -10 10 0 10 0 0 10 0 10 -10 0 -10 0 0 -10z"/>
<path d="M270 520 l0 -10 10 0 10 0 0 10 0 10 -10 0 -10 0 0 -10z"/>
<path d="M110 360 l0 -10 10 0 10 0 0 10 0 10 -10 0 -10 0 0 -10z"/>
<path d="M1120 305 l0 -15 14 0 14 0 5 -12 4 -13 9 9 9 9 -12 4 -13 5 0 14 0
14 -15 0 -15 0 0 -15z"/>
<path d="M450 226 l0 -14 -12 -5 -13 -4 9 -9 9 -9 4 13 5 12 14 0 14 0 0 15 0
15 -15 0 -15 0 0 -14z"/>
<path d="M110 200 l0 -10 10 0 10 0 0 10 0 10 -10 0 -10 0 0 -10z"/>
<path d="M510 120 l0 -10 10 0 10 0 0 10 0 10 -10 0 -10 0 0 -10z"/>
<path d="M560 65 l0 -15 15 0 15 0 0 15 0 15 -15 0 -15 0 0 -15z"/>
<path d="M610 65 l0 -15 15 0 15 0 0 15 0 15 -15 0 -15 0 0 -15z"/>
<path d="M930 65 l0 -15 15 0 15 0 0 15 0 15 -15 0 -15 0 0 -15z"/>
<path d="M990 65 l0 -15 10 0 10 0 0 15 0 15 -10 0 -10 0 0 -15z"/>
</g>
</svg>
