<?xml version="1.0" standalone="no"?>
<!DOCTYPE svg PUBLIC "-//W3C//DTD SVG 20010904//EN"
 "http://www.w3.org/TR/2001/REC-SVG-20010904/DTD/svg10.dtd">
<svg version="1.0" xmlns="http://www.w3.org/2000/svg"
 width="468pt" height="468pt" viewBox="0 0 468 468"
 preserveAspectRatio="xMidYMid meet">
<metadata>
Created by potrace 1.8, written by Peter Selinger 2001-2007
</metadata>
<g transform="translate(0,468) scale(0.365625,-0.365625)"
fill="#000000" stroke="none">
<path d="M380 1265 l0 -15 -15 0 -15 0 0 -35 0 -35 -15 0 -15 0 0 -205 0 -205
15 0 15 0 0 -15 0 -15 65 0 65 0 0 -20 0 -20 -240 0 -240 0 0 -350 0 -350 640
0 640 0 0 350 0 350 -50 0 -50 0 0 20 0 20 35 0 35 0 0 15 0 15 15 0 15 0 0
160 0 160 -15 0 -15 0 0 45 0 45 -15 0 -15 0 0 20 0 20 -35 0 -35 0 0 15 0 15
-30 0 -30 0 0 15 0 15 -15 0 -15 0 0 -15 0 -15 15 0 15 0 0 -15 0 -15 15 0 15
0 0 -180 0 -180 15 0 15 0 0 -15 0 -15 -365 0 -365 0 0 35 0 35 15 0 15 0 0
15 0 15 255 0 255 0 0 15 0 15 -255 0 -255 0 0 145 0 145 285 0 285 0 0 15 0
15 -320 0 -320 0 0 -15z m840 -260 l0 -175 -20 0 -20 0 0 15 0 15 -15 0 -15 0
0 160 0 160 35 0 35 0 0 -175z m-840 20 l0 -95 -15 0 -15 0 0 95 0 95 15 0 15
0 0 -95z m800 -240 l0 -15 -400 0 -400 0 0 15 0 15 400 0 400 0 0 -15z"/>
<path d="M480 1120 l0 -100 80 0 80 0 0 100 0 100 -80 0 -80 0 0 -100z m60 0
l0 -60 -15 0 -15 0 0 60 0 60 15 0 15 0 0 -60z"/>
<path d="M1060 1085 l0 -95 15 0 15 0 0 95 0 95 -15 0 -15 0 0 -95z"/>
<path d="M260 1135 l0 -15 -65 0 -65 0 0 -15 0 -15 -65 0 -65 0 0 -15 0 -15
80 0 80 0 0 15 0 15 15 0 15 0 0 -35 0 -35 15 0 15 0 0 35 0 35 20 0 20 0 0
-35 0 -35 15 0 15 0 0 65 0 65 -15 0 -15 0 0 -15z"/>
<path d="M1020 945 l0 -15 20 0 20 0 0 -15 0 -15 15 0 15 0 0 15 0 15 -15 0
-15 0 0 15 0 15 -20 0 -20 0 0 -15z"/>
</g>
</svg>
