<?xml version="1.0" standalone="no"?>
<!DOCTYPE svg PUBLIC "-//W3C//DTD SVG 20010904//EN"
 "http://www.w3.org/TR/2001/REC-SVG-20010904/DTD/svg10.dtd">
<svg version="1.0" xmlns="http://www.w3.org/2000/svg"
 width="468pt" height="468pt" viewBox="0 0 468 468"
 preserveAspectRatio="xMidYMid meet">
<metadata>
Created by potrace 1.8, written by Peter Selinger 2001-2007
</metadata>
<g transform="translate(0,468) scale(0.365625,-0.365625)"
fill="#000000" stroke="none">
<path d="M0 905 l0 -375 25 0 25 0 0 -80 0 -80 30 0 30 0 0 -160 0 -160 -55 0
-55 0 0 -25 0 -25 80 0 80 0 0 25 0 25 135 0 135 0 0 30 0 30 160 0 160 0 0
-30 0 -30 185 0 185 0 0 -25 0 -25 80 0 80 0 0 25 0 25 -55 0 -55 0 0 215 0
215 30 0 30 0 0 55 0 55 25 0 25 0 0 345 0 345 -640 0 -640 0 0 -375z m750
-130 l0 -25 25 0 25 0 0 -240 0 -240 25 0 25 0 0 240 0 240 30 0 30 0 0 25 0
25 80 0 80 0 0 -25 0 -25 25 0 25 0 0 -30 0 -30 25 0 25 0 0 -80 0 -80 -25 0
-25 0 0 -80 0 -80 -25 0 -25 0 0 -50 0 -50 25 0 25 0 0 -80 0 -80 -160 0 -160
0 0 80 0 80 -25 0 -25 0 0 -55 0 -55 -80 0 -80 0 0 80 0 80 -30 0 -30 0 0 -80
0 -80 -50 0 -50 0 0 135 0 135 25 0 25 0 0 25 0 25 -25 0 -25 0 0 55 0 55 -30
0 -30 0 0 50 0 50 80 0 80 0 0 30 0 30 30 0 30 0 0 25 0 25 80 0 80 0 0 -25z
m-430 -135 l0 -110 25 0 25 0 0 -210 0 -210 -105 0 -105 0 0 130 0 130 -25 0
-25 0 0 80 0 80 -30 0 -30 0 0 55 0 55 30 0 30 0 0 25 0 25 50 0 50 0 0 -50 0
-50 30 0 30 0 0 80 0 80 25 0 25 0 0 -110z"/>
<path d="M910 695 l0 -55 25 0 25 0 0 -55 0 -55 25 0 25 0 0 -80 0 -80 30 0
30 0 0 80 0 80 -30 0 -30 0 0 55 0 55 -25 0 -25 0 0 55 0 55 -25 0 -25 0 0
-55z"/>
<path d="M1010 720 l0 -30 30 0 30 0 0 30 0 30 -30 0 -30 0 0 -30z"/>
<path d="M530 640 l0 -50 30 0 30 0 0 -55 0 -55 25 0 25 0 0 -55 0 -55 25 0
25 0 0 -50 0 -50 -25 0 -25 0 0 -30 0 -30 25 0 25 0 0 30 0 30 30 0 30 0 0 50
0 50 -30 0 -30 0 0 55 0 55 -25 0 -25 0 0 55 0 55 -25 0 -25 0 0 50 0 50 -30
0 -30 0 0 -50z"/>
<path d="M640 665 l0 -25 25 0 25 0 0 25 0 25 -25 0 -25 0 0 -25z"/>
<path d="M430 615 l0 -25 25 0 25 0 0 25 0 25 -25 0 -25 0 0 -25z"/>
<path d="M690 560 l0 -30 30 0 30 0 0 30 0 30 -30 0 -30 0 0 -30z"/>
<path d="M480 505 l0 -25 25 0 25 0 0 25 0 25 -25 0 -25 0 0 -25z"/>
<path d="M910 455 l0 -25 25 0 25 0 0 25 0 25 -25 0 -25 0 0 -25z"/>
<path d="M480 375 l0 -55 25 0 25 0 0 55 0 55 -25 0 -25 0 0 -55z"/>
<path d="M910 345 l0 -25 25 0 25 0 0 25 0 25 -25 0 -25 0 0 -25z"/>
<path d="M1010 240 l0 -30 30 0 30 0 0 30 0 30 -30 0 -30 0 0 -30z"/>
<path d="M910 185 l0 -25 25 0 25 0 0 25 0 25 -25 0 -25 0 0 -25z"/>
<path d="M160 480 l0 -110 25 0 25 0 0 110 0 110 -25 0 -25 0 0 -110z"/>
<path d="M270 455 l0 -25 25 0 25 0 0 25 0 25 -25 0 -25 0 0 -25z"/>
<path d="M270 240 l0 -30 25 0 25 0 0 30 0 30 -25 0 -25 0 0 -30z"/>
<path d="M1230 400 l0 -30 25 0 25 0 0 30 0 30 -25 0 -25 0 0 -30z"/>
<path d="M0 185 l0 -25 25 0 25 0 0 25 0 25 -25 0 -25 0 0 -25z"/>
</g>
</svg>
