<?xml version="1.0" standalone="no"?>
<!DOCTYPE svg PUBLIC "-//W3C//DTD SVG 20010904//EN"
 "http://www.w3.org/TR/2001/REC-SVG-20010904/DTD/svg10.dtd">
<svg version="1.0" xmlns="http://www.w3.org/2000/svg"
 width="468pt" height="468pt" viewBox="0 0 468 468"
 preserveAspectRatio="xMidYMid meet">
<metadata>
Created by potrace 1.8, written by Peter Selinger 2001-2007
</metadata>
<g transform="translate(0,468) scale(0.365625,-0.365625)"
fill="#000000" stroke="none">
<path d="M720 1130 l0 -10 -150 0 -150 0 0 -10 0 -10 -130 0 -130 0 0 -30 0
-30 -40 0 -40 0 0 -10 0 -10 10 0 10 0 0 -18 0 -18 20 -14 20 -14 0 -8 0 -8
-70 0 -70 0 0 -40 0 -40 10 0 10 0 0 -30 0 -30 10 0 10 0 0 -30 0 -30 10 0 10
0 0 -30 0 -30 10 0 10 0 0 -20 0 -20 10 0 10 0 0 -30 0 -30 10 0 10 0 0 -30 0
-30 10 0 10 0 0 -30 0 -30 10 0 10 0 0 -30 0 -30 10 0 10 0 0 -30 0 -30 20 0
20 0 0 -10 0 -10 140 0 140 0 0 10 0 10 100 0 100 0 0 10 0 10 100 0 100 0 0
10 0 10 100 0 100 0 0 10 0 10 35 0 36 0 44 45 45 44 0 56 0 55 -10 0 -10 0 0
30 0 30 -10 0 -10 0 0 20 0 20 -10 0 -10 0 0 30 0 30 -10 0 -10 0 0 20 0 20
-10 0 -10 0 0 30 0 30 -10 0 -10 0 0 30 0 30 -10 0 -10 0 0 20 0 20 -10 0 -10
0 0 30 0 30 -10 0 -10 0 0 20 0 20 -10 0 -10 0 0 26 0 25 -14 15 -15 14 -155
0 -156 0 0 -10z m295 -35 l25 -24 0 -16 0 -15 10 0 10 0 0 -20 0 -20 10 0 10
0 0 -30 0 -30 10 0 10 0 0 -20 0 -20 10 0 10 0 0 -30 0 -30 10 0 10 0 0 -30 0
-30 10 0 10 0 0 -20 0 -20 10 0 10 0 0 -30 0 -30 10 0 10 0 0 -30 0 -30 10 0
10 0 0 -30 0 -30 10 0 10 0 0 -20 0 -20 -10 0 -10 0 0 -20 0 -20 -10 0 -10 0
0 30 0 30 -50 0 -50 0 0 -10 0 -10 -40 0 -40 0 0 -35 0 -36 -25 -24 -24 -25
-16 0 -15 0 0 10 0 10 10 0 10 0 0 70 0 70 -10 0 -10 0 0 20 0 20 -10 0 -10 0
0 20 0 20 -100 0 -100 0 0 -30 0 -30 10 0 10 0 0 -20 0 -20 10 0 10 0 0 -66 0
-65 -14 -15 -15 -14 -15 0 -16 0 0 30 0 30 10 0 10 0 0 50 0 50 -9 0 -9 0 -5
-12 -4 -13 -9 9 -9 9 13 4 12 5 0 19 0 19 -10 0 -10 0 0 20 0 20 -9 0 -9 0 -5
-12 -4 -13 -9 9 -9 9 13 4 12 5 0 29 0 29 -20 0 -20 0 0 30 0 30 -9 0 -9 0 -4
-12 -5 -13 -17 18 -18 18 7 7 8 7 4 -12 5 -13 9 0 9 0 0 16 0 15 -14 15 -15
14 -35 0 -36 0 0 -10 0 -10 -70 0 -70 0 0 -10 0 -10 10 0 10 0 0 -20 0 -20 10
0 10 0 0 -18 0 -18 20 -14 20 -14 0 -28 0 -28 10 0 10 0 0 -20 0 -20 10 0 10
0 0 -30 0 -30 10 0 10 0 0 -40 0 -40 -10 0 -10 0 0 -30 0 -30 -50 0 -50 0 0
10 0 10 10 0 10 0 0 20 0 20 10 0 10 0 0 40 0 40 -10 0 -10 0 0 30 0 30 -10 0
-10 0 0 20 0 20 -10 0 -10 0 0 30 0 30 -10 0 -10 0 0 30 0 30 -10 0 -10 0 0
20 0 20 -10 0 -10 0 0 30 0 30 -10 0 -10 0 0 30 0 30 -10 0 -10 0 0 30 0 30
-10 0 -10 0 0 30 0 30 -10 0 -10 0 0 20 0 20 -10 0 -10 0 0 10 0 10 40 0 40 0
0 10 0 10 110 0 110 0 0 10 0 10 160 0 160 0 0 10 0 10 85 0 86 0 24 -25z
m-869 -189 l14 -15 0 -25 0 -26 10 0 10 0 0 -30 0 -30 10 0 10 0 0 -30 0 -30
10 0 10 0 0 -20 0 -20 10 0 10 0 0 -30 0 -30 10 0 10 0 0 -30 0 -30 10 0 10 0
0 -30 0 -30 10 0 10 0 0 -30 0 -30 -6 0 -5 0 -15 14 -14 15 0 15 0 16 -10 0
-10 0 0 30 0 30 -10 0 -10 0 0 30 0 30 -10 0 -10 0 0 30 0 30 -10 0 -10 0 0
30 0 30 -10 0 -10 0 0 20 0 20 -10 0 -10 0 0 30 0 30 -10 0 -10 0 0 30 0 30
-10 0 -10 0 0 10 0 10 16 0 15 0 15 -14z m334 -151 l0 -6 -26 -26 -25 -25 -6
5 -5 6 23 25 24 25 8 0 7 1 0 -5z m60 -5 l0 -10 -10 0 -10 0 0 10 0 10 10 0
10 0 0 -10z m-60 -60 l0 -10 -10 0 -10 0 0 10 0 10 10 0 10 0 0 -10z m40 -20
l0 -10 -10 0 -10 0 0 10 0 10 10 0 10 0 0 -10z m40 0 l0 -10 -10 0 -10 0 0 10
0 10 10 0 10 0 0 -10z m80 -20 l0 -10 -10 0 -10 0 0 10 0 10 10 0 10 0 0 -10z
m-100 -25 l0 -16 26 -26 26 -26 8 13 8 13 17 -17 17 -17 -6 -7 -7 -6 -10 14
-9 15 -9 -14 -9 -14 -36 36 -36 36 0 16 0 15 10 0 10 0 0 -15z m60 5 l0 -10
-10 0 -10 0 0 10 0 10 10 0 10 0 0 -10z m180 -20 l0 -10 -10 0 -10 0 0 10 0
10 10 0 10 0 0 -10z m80 0 l0 -10 -10 0 -10 0 0 10 0 10 10 0 10 0 0 -10z m40
0 l0 -10 -10 0 -10 0 0 10 0 10 10 0 10 0 0 -10z m-80 -16 l0 -5 -15 -16 -16
-15 -5 5 -6 6 13 15 14 15 8 1 7 0 0 -6z m100 -20 l0 -5 -15 -16 -16 -15 -5 5
-6 6 13 15 14 15 8 1 7 0 0 -6z m-400 -34 l0 -20 -10 0 -10 0 0 20 0 20 10 0
10 0 0 -20z m40 -10 l0 -10 -10 0 -10 0 0 10 0 10 10 0 10 0 0 -10z m380 0 l0
-10 -10 0 -10 0 0 10 0 10 10 0 10 0 0 -10z m-320 -20 l0 -10 -10 0 -10 0 0
10 0 10 10 0 10 0 0 -10z m260 0 l0 -10 -10 0 -10 0 0 10 0 10 10 0 10 0 0
-10z m300 -15 l0 -26 -25 -24 -24 -25 -46 0 -45 0 0 40 0 40 40 0 40 0 0 10 0
10 30 0 30 0 0 -25z m-600 -5 l0 -10 -10 0 -10 0 0 10 0 10 10 0 10 0 0 -10z
m240 0 l0 -10 -10 0 -10 0 0 10 0 10 10 0 10 0 0 -10z m-200 -19 l0 -9 -12 -5
-13 -5 15 -11 14 -10 -7 -8 -8 -7 -10 14 -11 15 -5 -12 -5 -13 -19 0 -19 0 0
10 0 10 18 0 18 0 14 20 14 20 8 0 8 0 0 -9z m80 -1 l0 -10 -20 0 -20 0 0 10
0 10 20 0 20 0 0 -10z m200 0 l0 -10 -10 0 -10 0 0 10 0 10 10 0 10 0 0 -10z
m-40 -40 l0 -10 -20 0 -20 0 0 10 0 10 20 0 20 0 0 -10z m-340 -40 l0 -10 -10
0 -10 0 0 10 0 10 10 0 10 0 0 -10z m60 0 l0 -10 -10 0 -10 0 0 10 0 10 10 0
10 0 0 -10z"/>
<path d="M880 1084 l0 -15 14 -15 15 -14 25 0 26 0 0 -10 0 -10 -30 0 -30 0 0
-6 0 -5 14 -15 15 -14 21 0 21 0 15 14 14 15 0 25 0 26 -40 0 -40 0 0 10 0 10
20 0 20 0 0 10 0 10 -40 0 -40 0 0 -16z"/>
<path d="M520 1061 l0 -19 13 -5 12 -4 -9 -9 -9 -9 -4 13 -5 12 -19 0 -19 0 0
10 0 10 -20 0 -20 0 0 -20 0 -20 10 0 10 0 0 -20 0 -20 10 0 10 0 0 -20 0 -20
20 0 20 0 0 -10 0 -10 140 0 140 0 0 -10 0 -10 -150 0 -150 0 0 10 0 10 -80 0
-80 0 0 -10 0 -10 80 0 80 0 0 -10 0 -10 -80 0 -80 0 0 -10 0 -10 80 0 80 0 0
10 0 10 150 0 150 0 0 10 0 10 100 0 100 0 0 10 0 10 -100 0 -100 0 0 10 0 10
100 0 100 0 0 10 0 10 -100 0 -100 0 0 -10 0 -10 -140 0 -140 0 0 20 0 20 -10
0 -10 0 0 10 0 10 18 0 18 0 14 -20 14 -20 18 0 18 0 0 20 0 20 -10 0 -10 0 0
20 0 20 -10 0 -10 0 0 20 0 20 -20 0 -20 0 0 -19z"/>
<path d="M600 1060 l0 -20 10 0 10 0 0 -16 0 -15 14 -15 15 -14 35 0 36 0 0
10 0 10 -30 0 -30 0 0 10 0 10 10 0 10 0 0 10 0 10 -20 0 -20 0 0 10 0 10 20
0 20 0 0 10 0 10 -40 0 -40 0 0 -20z"/>
<path d="M700 1070 l0 -10 10 0 10 0 0 -15 0 -16 25 -24 24 -25 16 0 15 0 0
10 0 10 20 0 20 0 0 -10 0 -10 20 0 20 0 0 30 0 30 -10 0 -10 0 0 20 0 20 -20
0 -20 0 0 -10 0 -10 10 0 10 0 0 -20 0 -20 -6 0 -5 0 -15 14 -14 15 0 15 0 16
-20 0 -20 0 0 -10 0 -10 10 0 10 0 0 -20 0 -20 -10 0 -10 0 0 16 0 15 -14 15
-15 14 -15 0 -16 0 0 -10z"/>
<path d="M290 1023 l-14 -17 12 -4 12 -4 0 -19 0 -19 19 0 19 0 6 13 6 12 6
-12 6 -13 9 0 9 0 0 20 0 20 10 0 10 0 0 10 0 10 -19 0 -19 0 -5 13 -5 12 -12
-15 -12 -15 -5 13 -5 12 -6 0 -7 -1 -15 -16z"/>
<path d="M1020 850 l0 -10 -56 0 -55 0 -16 -15 -15 -16 21 -18 21 -18 0 -17 0
-16 10 0 10 0 0 -20 0 -20 30 0 30 0 0 -10 0 -10 -20 0 -20 0 0 -20 0 -20 10
0 10 0 0 -20 0 -20 10 0 10 0 0 -30 0 -30 40 0 40 0 0 10 0 10 46 0 45 0 17
17 17 16 -13 5 -12 4 0 19 0 19 -10 0 -10 0 0 30 0 30 -10 0 -10 0 0 30 0 30
-10 0 -10 0 0 20 0 20 -10 0 -10 0 0 16 0 15 -14 15 -15 14 -25 0 -26 0 0 -10z
m20 -40 l0 -10 -10 0 -10 0 0 10 0 10 10 0 10 0 0 -10z m-80 -20 l0 -10 -10 0
-10 0 0 10 0 10 10 0 10 0 0 -10z m60 -40 l0 -10 -10 0 -10 0 0 10 0 10 10 0
10 0 0 -10z m60 0 l0 -10 -10 0 -10 0 0 10 0 10 10 0 10 0 0 -10z m-20 -40 l0
-10 -10 0 -10 0 0 10 0 10 10 0 10 0 0 -10z m80 -20 l0 -10 -20 0 -20 0 0 10
0 10 20 0 20 0 0 -10z m-60 -60 l0 -10 -30 0 -30 0 0 10 0 10 30 0 30 0 0 -10z
m40 0 l0 -10 -10 0 -10 0 0 10 0 10 10 0 10 0 0 -10z m0 -40 l0 -10 -10 0 -10
0 0 10 0 10 10 0 10 0 0 -10z"/>
<path d="M720 810 l0 -10 -50 0 -50 0 0 -20 0 -20 10 0 10 0 0 -18 0 -18 20
-14 20 -14 0 -18 0 -18 70 0 70 0 0 10 0 10 50 0 50 0 0 10 0 10 -10 0 -10 0
0 20 0 20 -10 0 -10 0 0 20 0 20 -10 0 -10 0 0 20 0 20 -70 0 -70 0 0 -10z
m126 -24 l14 -15 0 -15 0 -16 10 0 10 0 0 -20 0 -20 -40 0 -40 0 0 -10 0 -10
-50 0 -50 0 0 18 0 18 -20 14 -20 14 0 18 0 18 40 0 40 0 0 10 0 10 46 0 45 0
15 -14z"/>
<path d="M0 100 l0 -100 640 0 640 0 0 100 0 100 -640 0 -640 0 0 -100z"/>
</g>
</svg>
