<?xml version="1.0" standalone="no"?>
<!DOCTYPE svg PUBLIC "-//W3C//DTD SVG 20010904//EN"
 "http://www.w3.org/TR/2001/REC-SVG-20010904/DTD/svg10.dtd">
<svg version="1.0" xmlns="http://www.w3.org/2000/svg"
 width="468pt" height="468pt" viewBox="0 0 468 468"
 preserveAspectRatio="xMidYMid meet">
<metadata>
Created by potrace 1.8, written by Peter Selinger 2001-2007
</metadata>
<g transform="translate(0,468) scale(0.365625,-0.365625)"
fill="#000000" stroke="none">
<path d="M938 1273 l12 -5 0 -9 0 -9 -25 0 -25 0 0 10 0 10 -34 0 -34 0 -4
-11 -4 -11 -69 -1 -69 -1 -4 12 -4 12 -19 0 -19 0 0 -9 0 -8 -30 -6 -29 -6 -7
-26 -6 -25 -13 0 -14 0 -16 -16 -17 -17 5 -17 5 -18 -19 -16 -19 -16 0 -14 0
-14 26 -6 27 -7 19 21 20 22 18 -5 17 -4 -4 18 -5 19 -12 -1 -11 -1 -12 1 -13
1 17 20 17 20 14 0 14 0 -6 15 -5 15 13 0 14 0 6 16 6 16 -19 -5 -20 -5 6 14
5 14 14 0 14 0 1 -12 1 -13 -1 -12 -1 -11 30 -7 30 -7 0 -8 0 -8 30 -7 30 -7
0 -8 0 -9 -39 -12 -39 -12 -25 7 -26 6 -15 15 -15 15 -10 0 -11 0 0 -8 0 -8
35 -13 35 -12 0 -9 0 -9 15 -3 14 -3 -8 -13 -8 -13 -58 -3 -59 -3 -4 -11 -4
-12 -49 0 -49 0 0 10 0 9 -82 3 -82 3 17 17 17 17 0 7 0 7 -17 13 -18 13 18 1
17 0 0 13 0 12 9 -14 9 -14 -9 -30 -9 -31 5 -5 5 -4 0 10 0 11 19 5 19 4 -2
47 -1 47 -14 8 -13 9 20 20 19 19 14 7 14 6 -29 -5 -28 -6 -14 -14 -14 -13
-12 -6 -13 -5 18 -11 17 -11 0 -12 0 -12 -8 11 -7 11 -22 7 -23 7 0 15 0 14
11 0 10 0 17 17 17 16 -30 -7 -30 -7 -3 -10 -4 -9 -11 0 -12 0 -14 -9 -13 -9
20 -20 20 -20 19 -5 18 -5 -37 3 -37 3 -16 15 -15 16 0 9 0 10 15 6 15 5 0 11
0 10 -11 0 -10 0 -14 -12 -14 -13 -15 -13 -15 -12 5 -14 6 -15 29 -6 29 -7 0
-13 0 -14 13 3 12 3 -7 -4 -8 -5 0 -12 0 -12 -20 -17 -20 -17 0 10 0 11 15 5
15 6 0 9 0 9 -21 21 -20 20 -42 2 -41 2 -4 -16 -3 -16 21 -6 20 -5 -6 9 -5 9
18 0 19 0 18 -13 18 -14 -6 -21 -7 -22 -27 -7 -26 -6 -48 -47 -48 -47 0 -9 0
-10 22 -19 23 -20 50 2 51 2 12 -28 12 -28 -5 -15 -6 -15 -32 -10 -32 -9 -3
-17 -3 -17 15 0 16 0 0 -10 0 -10 12 0 11 0 29 -32 28 -32 0 -17 0 -17 25 -6
25 -6 0 -10 0 -10 -125 0 -125 0 0 -305 0 -305 640 0 640 0 0 305 0 305 -135
0 -136 0 -28 29 -28 29 -23 7 -23 7 -24 26 -23 25 0 3 0 3 16 15 15 16 34 0
33 0 6 15 5 15 -5 14 -5 14 -25 6 -25 7 -21 21 -21 21 17 9 16 9 0 14 0 15 10
0 10 0 0 20 0 20 -10 0 -10 0 0 20 0 19 35 36 36 35 14 0 15 0 0 -9 0 -9 30
-7 30 -7 0 -9 0 -9 15 0 15 0 0 9 0 9 -30 7 -30 7 0 8 0 9 -34 7 -35 6 -5 14
-5 14 6 18 7 17 -17 -17 -17 -17 0 -14 0 -15 8 -5 7 -4 -12 3 -12 3 -30 -29
-29 -30 -4 12 -5 13 -26 -28 -26 -29 5 -12 5 -13 25 -13 24 -13 0 -9 0 -8 -7
-1 -8 -1 -22 -2 -21 -3 5 14 5 13 8 0 8 0 5 -10 6 -11 -3 13 -3 13 -15 -1 -15
-1 -1 13 -2 14 0 18 0 17 1 20 0 20 8 -14 8 -13 37 37 37 37 -5 5 -5 5 -26
-28 -27 -29 -17 0 -16 0 -1 -24 -1 -23 -13 -8 -12 -8 13 -5 14 -5 -13 -10 -14
-9 17 -7 16 -6 -7 -22 -7 -23 -11 -8 -11 -8 15 2 15 1 18 -1 17 -1 0 -9 0 -9
-20 -5 -20 -5 0 -24 0 -24 25 -22 25 -22 10 0 10 0 0 -15 0 -15 -10 0 -11 0
34 -35 34 -35 12 0 11 0 0 -15 0 -15 -30 0 -31 0 -6 18 -7 17 -25 26 -26 27
-17 21 -18 21 0 9 0 9 -17 6 -18 6 -15 7 -14 6 28 -26 29 -27 -17 0 -16 0 0
-10 0 -10 -25 0 -25 0 0 -30 0 -30 15 0 15 0 0 9 0 9 25 6 25 6 0 10 0 10 15
0 16 0 24 -26 25 -27 0 -13 0 -12 30 -14 30 -13 0 -7 0 -8 -269 0 -269 0 -5
20 -5 20 -16 0 -16 0 0 10 0 10 -15 0 -16 0 -5 15 -6 15 -13 0 -13 0 -33 32
-32 32 14 5 14 4 5 7 5 7 53 7 53 7 -10 -19 -10 -18 7 -11 7 -10 33 -8 32 -7
0 -8 0 -8 25 -6 25 -6 0 -10 0 -10 15 0 15 0 0 -15 0 -15 50 0 50 0 0 10 0 10
-25 6 -25 6 0 8 0 8 -35 6 -35 7 0 9 0 10 -13 0 -13 0 -15 18 -15 18 10 10 11
9 28 14 27 14 0 14 0 14 103 -7 102 -7 7 -11 7 -10 6 6 7 6 -22 22 -21 21 -21
4 -21 4 -5 6 -5 5 8 8 8 7 4 -12 4 -12 20 20 21 21 -7 6 -6 6 -9 -14 -10 -15
0 13 0 13 -16 -15 -16 -16 -33 3 -34 4 -12 -8 -13 -8 7 -8 8 -7 8 13 9 13 6
-13 6 -14 6 12 5 12 20 -17 19 -16 0 -11 0 -10 -9 14 -9 14 -66 1 -66 2 -13
18 -14 19 -9 -6 -10 -6 -14 10 -15 9 14 9 13 9 -11 3 -11 4 -5 24 -4 24 -5 4
-4 5 -19 -19 -19 -19 29 -28 28 -29 -6 -24 -6 -24 -18 -18 -19 -19 -91 -12
-91 -13 0 -5 0 -5 49 -48 50 -49 8 0 9 0 16 -19 16 -19 -24 -6 -24 -6 -20 10
-20 11 0 10 0 10 -35 36 -35 36 0 9 0 8 -16 0 -15 0 3 17 3 17 32 10 33 9 6
20 6 20 -13 11 -14 11 -13 17 -13 17 12 40 12 41 21 6 21 7 7 11 7 11 126 0
126 0 9 -15 10 -15 10 15 10 15 0 -12 0 -13 11 0 10 0 15 15 15 15 20 0 19 0
0 10 0 10 28 0 28 0 25 29 25 28 37 14 37 13 0 7 0 7 34 6 35 7 3 9 3 10 51 2
51 3 -10 22 -10 22 13 16 14 17 -15 9 -14 9 -10 -1 -10 -1 13 -5z m-208 -42
l0 -8 28 -6 27 -6 13 -22 14 -22 -14 -8 -13 -9 -12 0 -12 0 -13 14 -14 14 -32
7 -32 7 0 9 0 9 15 0 15 0 0 -10 0 -10 20 0 20 0 0 10 0 11 -15 5 -15 6 0 9 0
9 10 0 10 0 0 -9z m160 -3 l0 -13 10 15 10 15 9 -14 9 -14 -5 -13 -4 -12 -37
-4 -37 -5 -17 5 -18 4 0 13 0 13 27 0 27 0 4 11 4 11 9 0 9 0 0 -12z m-626
-114 l16 -6 0 -9 0 -9 -14 0 -15 0 -13 -13 -13 -13 -17 -7 -18 -6 0 -11 0 -10
15 0 15 0 0 10 0 10 15 0 15 0 0 -9 0 -9 -26 -6 -26 -7 -18 -17 -18 -17 -7
-28 -7 -27 -24 -6 -24 -6 0 -9 0 -9 -20 0 -20 0 0 10 0 9 18 10 17 10 -19 14
-19 14 7 27 7 27 29 6 30 6 0 8 0 9 28 0 27 0 23 24 22 24 0 11 0 11 9 0 9 0
16 -6z m-194 -173 l0 -9 -17 -4 -18 -5 -12 4 -13 5 0 13 0 13 13 5 12 4 18 -9
17 -9 0 -8z m300 19 l-15 -10 11 0 12 0 6 -15 5 -15 -4 0 -4 0 -15 16 -16 16
5 9 6 9 12 0 12 0 -15 -10z m70 -80 l0 -10 -10 0 -10 0 0 10 0 10 10 0 10 0 0
-10z m418 -61 l4 -9 16 -1 17 0 -20 -9 -20 -9 -11 0 -10 -1 -19 13 -18 14 7
12 8 12 21 -7 22 -7 3 -8z"/>
<path d="M149 1023 l-17 -4 -5 -21 -6 -21 5 -9 5 -8 12 0 12 0 -14 9 -13 9 20
20 20 20 13 5 14 5 -15 0 -15 0 -16 -5z"/>
<path d="M1025 1270 l8 -13 -19 -14 -19 -14 15 -9 15 -10 -13 0 -14 0 -5 20
-5 20 -9 0 -9 0 0 -10 0 -10 21 -21 21 -21 9 13 9 14 0 13 0 12 9 0 9 0 16 6
16 6 0 -11 0 -12 -27 -26 -28 -26 17 6 17 6 16 -15 15 -15 0 -15 0 -14 20 -20
20 -20 -4 -12 -3 -13 4 8 5 7 9 0 9 0 0 -15 0 -15 -20 0 -20 0 0 -10 0 -10 19
0 20 0 6 21 7 20 -26 26 -26 26 0 18 0 17 -12 6 -13 6 13 6 12 6 14 13 14 14
26 7 26 6 0 8 0 8 30 7 30 7 0 8 0 9 13 4 12 4 -30 -5 -30 -5 -5 -7 -5 -7 -40
-7 -39 -8 -11 -15 -12 -16 -13 5 -13 4 15 15 15 15 -13 12 -14 12 -31 7 -32 6
8 -13z m58 -74 l6 -15 -15 6 -14 5 0 9 0 9 9 0 9 0 5 -14z"/>
<path d="M1058 1123 l13 -5 6 6 6 6 -19 -1 -19 -1 13 -5z"/>
<path d="M889 1091 l-16 -18 -7 -11 -7 -12 4 0 4 0 27 25 26 24 0 6 0 5 -7 -1
-8 -1 -16 -17z"/>
<path d="M1080 1101 l0 -10 11 -6 10 -7 4 3 3 4 -14 13 -14 13 0 -10z"/>
<path d="M490 880 l0 -10 10 0 10 0 0 10 0 10 -10 0 -10 0 0 -10z"/>
</g>
</svg>
