<?xml version="1.0" standalone="no"?>
<!DOCTYPE svg PUBLIC "-//W3C//DTD SVG 20010904//EN"
 "http://www.w3.org/TR/2001/REC-SVG-20010904/DTD/svg10.dtd">
<svg version="1.0" xmlns="http://www.w3.org/2000/svg"
 width="468pt" height="468pt" viewBox="0 0 468 468"
 preserveAspectRatio="xMidYMid meet">
<metadata>
Created by potrace 1.8, written by Peter Selinger 2001-2007
</metadata>
<g transform="translate(0,468) scale(0.365625,-0.365625)"
fill="#000000" stroke="none">
<path d="M580 1230 l0 -10 -50 0 -50 0 0 -10 0 -10 -30 0 -30 0 0 -10 0 -10
-20 0 -20 0 0 -10 0 -10 -15 0 -15 0 -55 -55 -55 -55 0 -13 0 -13 -20 -14 -20
-14 0 -18 0 -18 -10 0 -10 0 0 -30 0 -30 -10 0 -10 0 0 -40 0 -40 -10 0 -10 0
0 -70 0 -70 10 0 10 0 0 -40 0 -40 10 0 10 0 0 -30 0 -30 10 0 10 0 0 -20 0
-20 10 0 10 0 0 -15 0 -15 65 -65 65 -65 13 0 13 0 14 -20 14 -20 18 0 18 0 0
-10 0 -10 20 0 20 0 0 -10 0 -10 30 0 30 0 0 -10 0 -10 110 0 110 0 0 10 0 10
40 0 40 0 0 10 0 10 20 0 20 0 0 10 0 10 20 0 20 0 0 10 0 10 15 0 15 0 65 65
65 65 0 15 0 15 10 0 10 0 0 20 0 20 10 0 10 0 0 20 0 20 10 0 10 0 0 30 0 30
10 0 10 0 0 110 0 110 -10 0 -10 0 0 30 0 30 -10 0 -10 0 0 30 0 30 -10 0 -10
0 0 20 0 20 -10 0 -10 0 0 15 0 15 -75 75 -75 75 -15 0 -15 0 0 10 0 10 -30 0
-30 0 0 10 0 10 -40 0 -40 0 0 10 0 10 -90 0 -90 0 0 -10z m-33 -45 l15 -16
-7 -7 -8 -7 -4 13 -5 12 -29 0 -29 0 0 -10 0 -10 -20 0 -20 0 0 -10 0 -10 20
0 20 0 0 10 0 10 20 0 20 0 0 -5 0 -6 -25 -25 -25 -25 -25 25 -25 25 0 16 0
15 30 0 30 0 0 10 0 10 26 0 25 0 16 -15z m93 5 l0 -10 -10 0 -10 0 0 10 0 10
10 0 10 0 0 -10z m43 -2 l5 -13 11 15 11 15 10 -15 10 -15 9 15 10 14 8 -7 7
-8 -13 -9 -14 -8 17 -18 18 -17 8 13 8 13 18 -17 17 -18 -14 -9 -14 -9 15 -9
14 -10 -7 -8 -8 -7 -10 14 -9 15 -9 -15 -10 -14 -21 24 -21 24 -9 -14 -9 -14
-7 7 -7 7 22 20 23 19 -16 17 -17 16 -19 -23 -20 -22 -7 7 -7 7 14 10 15 11
-12 5 -13 5 0 9 0 9 9 0 9 0 5 -12z m197 -38 l0 -10 -10 0 -10 0 0 10 0 10 10
0 10 0 0 -10z m-490 -30 l14 -20 18 0 18 0 0 -15 0 -16 -45 -44 -44 -45 -16 0
-15 0 0 16 0 17 -22 20 -23 20 13 4 12 5 0 14 0 15 23 24 22 24 15 0 16 1 14
-20z m237 5 l15 -16 -6 -7 -7 -6 -9 13 -8 14 -27 -27 -26 -26 16 -16 16 -16
20 23 20 23 10 -14 9 -15 10 15 10 15 10 -15 10 -15 9 14 9 14 17 -17 17 -17
-22 -19 -23 -20 33 -30 32 -30 -16 -16 -17 -16 -19 22 -19 22 -16 -16 -16 -16
26 -26 27 -27 8 14 9 13 7 -7 7 -7 -24 -20 -23 -21 13 -9 14 -8 -28 -27 -27
-28 -9 14 -9 14 -9 -14 -9 -15 -32 34 -32 34 -9 -15 -9 -14 -9 14 -9 14 -37
-38 -38 -37 14 -9 13 -8 -6 -7 -7 -6 -17 17 -17 17 14 9 14 9 -14 9 -14 9 17
18 18 17 8 -13 8 -13 17 16 16 17 -26 26 -27 27 -8 -14 -9 -13 -8 7 -7 8 14
10 15 9 -14 9 -14 9 37 37 37 37 6 -6 6 -6 -22 -20 -23 -19 16 -16 16 -16 26
26 27 27 -14 8 -13 9 7 8 8 7 9 -13 8 -14 17 16 16 17 -16 17 -17 16 -8 -13
-8 -13 -26 27 -27 26 27 26 26 27 9 -14 8 -14 18 22 18 23 3 0 3 0 16 -15z
m260 -20 l15 -16 -6 -7 -7 -6 -10 14 -9 15 -9 -15 -10 -14 -6 6 -7 7 13 15 14
15 3 1 3 0 16 -15z m53 5 l0 -10 -10 0 -10 0 0 10 0 10 10 0 10 0 0 -10z m20
-60 l0 -30 -20 0 -20 0 0 30 0 30 20 0 20 0 0 -30z m-480 0 l0 -10 -10 0 -10
0 0 -18 0 -18 -20 -14 -20 -14 0 -28 0 -28 -20 0 -20 0 0 30 0 30 10 0 10 0 0
15 0 16 23 24 22 24 18 0 17 1 0 -10z m540 -10 l0 -20 10 0 10 0 0 -10 0 -10
-16 0 -15 0 -15 14 -14 15 0 15 0 16 20 0 20 0 0 -20z m-220 -16 l0 -15 -14
-15 -15 -14 -5 0 -6 0 0 30 0 30 20 0 20 0 0 -16z m-520 -22 l0 -18 -20 -14
-20 -14 0 -26 0 -26 -20 -14 -20 -14 0 -68 0 -68 -10 0 -10 0 0 -20 0 -20 -10
0 -10 0 0 29 0 29 13 6 12 6 -12 6 -13 6 0 19 0 19 10 0 10 0 0 30 0 30 10 0
10 0 0 40 0 40 10 0 10 0 0 15 0 16 13 14 12 14 18 1 17 0 0 -18z m600 -12 l0
-30 -26 0 -25 0 -15 15 -15 15 13 14 13 15 28 1 27 0 0 -30z m86 -4 l14 -15 0
-14 0 -15 -12 -5 -13 -4 7 -8 7 -7 16 15 15 16 0 15 0 16 10 0 10 0 0 -20 0
-20 -10 0 -10 0 0 -40 0 -40 -36 0 -35 0 -15 14 -14 15 0 41 0 41 13 14 12 14
13 1 13 0 15 -14z m-640 -20 l14 -15 0 -15 0 -16 -10 0 -10 0 0 -30 0 -30 -10
0 -10 0 0 -16 0 -15 -14 -15 -15 -14 -5 0 -6 0 0 20 0 20 -10 0 -10 0 0 30 0
30 10 0 10 0 0 20 0 20 10 0 10 0 0 20 0 20 16 0 15 0 15 -14z m754 -15 l0 -9
-12 -5 -13 -4 34 -32 35 -33 -15 -9 -14 -9 15 -9 14 -10 -6 -6 -7 -7 -37 37
-37 37 14 9 14 9 -14 9 -14 9 14 16 14 15 8 1 7 0 0 -9z m-220 -31 l0 -20 -40
0 -40 0 0 20 0 20 40 0 40 0 0 -20z m-480 -30 l0 -10 20 0 20 0 0 -30 0 -30
-10 0 -10 0 0 -30 0 -30 10 0 10 0 0 -18 0 -18 20 -14 20 -14 0 -8 0 -8 -16 0
-15 0 -15 14 -14 15 0 25 0 26 -10 0 -10 0 0 -10 0 -10 -16 0 -15 0 -15 14
-14 15 0 45 0 46 10 0 10 0 0 20 0 20 20 0 20 0 0 -10z m440 -30 l0 -20 -10 0
-10 0 0 10 0 10 -20 0 -20 0 0 10 0 10 30 0 30 0 0 -20z m100 -10 l0 -10 40 0
40 0 0 -55 0 -56 -37 -36 -37 -37 -4 12 -4 12 -29 0 -29 0 0 50 0 50 10 0 10
0 0 25 0 26 13 14 12 14 8 1 7 0 0 -10z m-60 -40 l0 -30 -10 0 -10 0 0 -40 0
-40 -20 0 -20 0 0 10 0 10 -26 0 -25 0 -15 14 -14 15 0 11 0 11 25 24 24 25
36 0 35 0 0 10 0 10 10 0 10 0 0 -30z m207 15 l15 -16 -5 -6 -6 -5 -16 15 -15
16 0 5 0 6 6 0 5 0 16 -15z m-809 -32 l26 -27 -12 -4 -12 -4 0 -49 0 -49 -10
0 -10 0 0 -20 0 -20 10 0 10 0 0 -39 0 -39 -12 -6 -13 -6 13 -6 12 -6 0 -19 0
-19 -10 0 -10 0 0 20 0 20 -10 0 -10 0 0 20 0 20 10 0 10 0 0 10 0 10 -20 0
-20 0 0 10 0 10 10 0 10 0 0 29 0 29 13 6 12 6 -12 6 -13 6 0 69 0 69 5 0 6 0
27 -27z m302 -33 l0 -20 10 0 10 0 0 -16 0 -15 14 -15 15 -14 15 0 16 0 0 -10
0 -10 -30 0 -30 0 0 -10 0 -10 -20 0 -20 0 0 10 0 10 -30 0 -30 0 0 30 0 30
10 0 10 0 0 30 0 30 30 0 30 0 0 -20z m540 10 l0 -10 -20 0 -20 0 0 -10 0 -10
-20 0 -20 0 0 5 0 6 13 14 12 14 28 1 27 0 0 -10z m-780 -40 l0 -10 20 0 20 0
0 -40 0 -40 -10 0 -10 0 0 -30 0 -30 -5 0 -6 0 -24 25 -25 24 0 56 0 55 20 0
20 0 0 -10z m340 -10 l0 -20 -10 0 -10 0 0 20 0 20 10 0 10 0 0 -20z m80 -10
l0 -10 26 0 25 0 17 -17 17 -16 -13 -5 -12 -4 0 -29 0 -29 -10 0 -10 0 0 -20
0 -20 -30 0 -30 0 0 10 0 10 -20 0 -20 0 0 20 0 20 -10 0 -10 0 0 20 0 20 9 0
9 0 4 -12 5 -13 16 17 17 17 0 15 0 16 -20 0 -20 0 0 10 0 10 30 0 30 0 0 -10z
m303 -2 l5 -13 11 15 10 14 8 -7 7 -8 -14 -10 -15 -9 14 -9 14 -9 -16 -17 -17
-16 -17 16 -16 17 14 10 14 10 -12 5 -13 5 0 9 0 9 9 0 9 0 5 -12z m77 -18 l0
-10 -10 0 -10 0 0 10 0 10 10 0 10 0 0 -10z m-900 -20 l0 -10 -10 0 -10 0 0
-20 0 -20 -10 0 -10 0 0 30 0 30 20 0 20 0 0 -10z m207 -5 l15 -15 -31 -29
-31 -29 0 -16 0 -16 -10 0 -10 0 0 20 0 20 10 0 10 0 0 40 0 40 16 0 15 0 16
-15z m433 5 l0 -10 26 0 25 0 15 -14 14 -15 0 -24 0 -25 13 -6 12 -6 -12 -6
-13 -6 0 -19 0 -19 -40 0 -40 0 0 10 0 10 -30 0 -30 0 0 30 0 30 10 0 10 0 0
25 0 26 13 14 12 14 8 1 7 0 0 -10z m140 0 l0 -10 -10 0 -10 0 0 10 0 10 10 0
10 0 0 -10z m-537 -62 l5 -13 11 15 10 14 21 -24 21 -24 9 13 8 14 17 -17 17
-17 -23 -20 -23 -20 13 -9 14 -8 -27 -27 -27 -26 -30 32 -31 33 -8 -14 -9 -14
-8 7 -7 8 14 10 15 9 -15 10 -15 10 15 10 15 10 -14 9 -14 9 14 16 14 15 7 1
6 0 5 -12z m137 2 l0 -10 -10 0 -10 0 0 10 0 10 10 0 10 0 0 -10z m380 0 l0
-10 -10 0 -10 0 0 10 0 10 10 0 10 0 0 -10z m46 -5 l15 -15 -16 -16 -16 -16
-7 6 -6 7 14 10 15 11 -12 5 -13 5 0 9 0 9 6 0 5 0 15 -15z m54 5 l0 -10 -10
0 -10 0 0 10 0 10 10 0 10 0 0 -10z m-765 -55 l25 -24 0 -15 0 -14 -12 -6 -13
-6 13 -6 12 -6 0 -18 0 -18 -12 -5 -13 -5 15 -11 14 -10 -6 -7 -7 -6 -25 25
-26 26 0 15 0 14 13 6 12 6 -12 6 -13 6 0 39 0 39 5 0 6 0 24 -25z m328 -7 l5
-13 10 14 10 14 36 -37 37 -36 -46 -46 -46 -46 -20 23 -20 23 -9 -13 -8 -14
-17 17 -17 17 23 20 23 20 -13 9 -14 8 24 25 24 26 7 0 6 1 5 -12z m417 -8 l0
-20 -10 0 -10 0 0 20 0 20 10 0 10 0 0 -20z m-53 -15 l15 -16 -5 -6 -6 -5 -16
15 -15 16 0 5 0 6 6 0 5 0 16 -15z m-612 -30 l25 -24 0 -16 0 -15 10 0 10 0 0
-19 0 -19 -12 -6 -13 -6 13 -6 12 -6 0 -19 0 -19 -9 0 -9 0 -5 13 -5 12 -10
-14 -10 -14 -17 17 -17 17 23 19 22 20 -8 8 -8 7 -4 -12 -5 -13 -9 0 -9 0 0
60 0 60 5 0 6 0 24 -25z m465 15 l0 -10 30 0 30 0 0 -10 0 -10 29 0 29 0 5
-12 5 -13 10 14 10 14 17 -16 16 -17 -36 -36 -36 -36 -20 23 -19 22 -8 -8 -7
-8 13 -4 12 -5 0 -9 0 -9 -30 0 -30 0 0 10 0 10 10 0 10 0 0 20 0 20 10 0 10
0 0 20 0 20 -10 0 -10 0 0 -20 0 -20 -10 0 -10 0 0 -16 0 -15 -14 -15 -15 -14
-35 0 -36 0 0 10 0 10 -40 0 -40 0 0 6 0 6 40 38 40 38 0 16 0 16 40 0 40 0 0
-10z m-374 -85 l15 -15 -16 -16 -16 -16 -7 6 -6 7 14 10 15 11 -12 5 -13 5 0
9 0 9 6 0 5 0 15 -15z m66 -27 l19 -22 9 14 9 14 6 -6 7 -7 -47 -46 -46 -47
-7 7 -6 6 14 10 15 9 -15 9 -14 10 24 22 25 22 -12 4 -13 5 0 9 0 9 6 0 7 0
19 -22z m235 -33 l15 -16 -21 -18 -21 -18 0 -7 0 -6 16 0 16 0 30 32 30 32 9
-15 9 -14 10 15 10 15 10 -15 10 -15 9 15 10 14 7 -6 6 -7 -17 -17 -17 -17 -8
13 -8 14 -32 -34 -32 -34 -10 15 -10 14 -5 -12 -5 -13 -18 0 -18 0 -6 13 -6
12 -6 -12 -6 -13 -18 0 -18 0 -5 -12 -4 -13 -9 8 -8 8 14 9 14 9 -7 7 -7 7
-19 -21 -18 -22 -17 0 -16 0 0 15 0 15 43 45 42 44 33 0 33 1 16 -15z m-307
-15 l0 -10 -10 0 -10 0 0 10 0 10 10 0 10 0 0 -10z m180 5 l0 -6 -45 -44 -44
-45 -6 0 -5 0 0 20 0 20 10 0 10 0 0 15 0 16 13 14 12 14 28 1 27 0 0 -5z"/>
<path d="M740 1134 l0 -5 15 -15 15 -15 16 16 16 16 -6 7 -7 6 -10 -14 -11
-15 -5 13 -5 12 -9 0 -9 0 0 -6z"/>
<path d="M360 1080 l0 -20 -20 0 -20 0 0 -20 0 -20 5 0 6 0 34 35 35 34 0 6 0
5 -20 0 -20 0 0 -20z"/>
<path d="M532 1084 l-13 -14 16 -16 16 -16 7 6 6 7 -14 10 -15 11 13 5 12 5 0
9 0 9 -7 0 -8 -1 -13 -15z"/>
<path d="M611 1044 l-14 -16 13 -8 13 -8 -57 -57 -57 -57 -20 23 -19 22 -6 -6
-6 -6 47 -47 47 -47 8 14 8 13 32 -34 32 -34 9 15 9 14 9 -14 9 -14 18 17 17
18 -14 9 -14 9 14 9 15 9 -33 31 -32 30 26 27 26 26 20 -23 19 -22 6 6 7 6
-33 31 -33 30 23 20 23 20 -7 7 -7 7 -10 -14 -9 -15 -10 15 -10 15 -11 -15
-11 -15 -5 13 -5 12 -6 0 -7 -1 -14 -15z m32 -16 l5 -13 11 15 10 14 8 -7 7
-8 -14 -10 -15 -9 14 -9 14 -9 -16 -17 -17 -16 -17 16 -16 17 14 10 14 10 -12
5 -13 5 0 9 0 9 9 0 9 0 5 -12z m-6 -114 l46 -46 -14 -9 -14 -9 15 -9 14 -10
-7 -8 -8 -7 -10 14 -9 15 -9 -14 -9 -15 -32 34 -32 34 -8 -14 -8 -13 -17 16
-16 17 33 34 33 35 3 0 3 1 46 -46z"/>
<path d="M640 990 l0 -10 10 0 10 0 0 10 0 10 -10 0 -10 0 0 -10z"/>
<path d="M561 914 l-23 -25 7 -7 6 -6 9 14 8 14 31 -33 31 -33 15 16 16 16
-35 35 -35 35 -3 -1 -3 0 -24 -25z m56 -20 l25 -25 -5 -6 -6 -5 -25 25 -26 26
0 6 0 5 5 0 6 0 26 -26z"/>
<path d="M460 810 l0 -10 10 0 10 0 0 10 0 10 -10 0 -10 0 0 -10z"/>
<path d="M960 890 l0 -10 10 0 10 0 0 10 0 10 -10 0 -10 0 0 -10z"/>
<path d="M1060 894 l0 -5 15 -16 16 -15 6 5 5 6 -15 16 -16 15 -5 0 -6 0 0 -6z"/>
<path d="M960 790 l0 -10 10 0 10 0 0 10 0 10 -10 0 -10 0 0 -10z"/>
<path d="M940 730 l0 -10 10 0 10 0 0 10 0 10 -10 0 -10 0 0 -10z"/>
<path d="M1040 670 l0 -10 10 0 10 0 0 10 0 10 -10 0 -10 0 0 -10z"/>
<path d="M440 591 l0 -9 13 -5 12 -5 -14 -10 -14 -10 37 -36 36 -37 17 16 16
17 -14 8 -13 9 23 21 24 20 -7 7 -7 7 -9 -14 -9 -14 -21 24 -21 24 -10 -14
-11 -15 -5 13 -5 12 -9 0 -9 0 0 -9z m67 -27 l16 -16 -14 -9 -14 -9 15 -9 14
-10 -6 -7 -7 -6 -26 26 -26 26 13 15 13 14 3 1 3 0 16 -16z"/>
<path d="M480 550 l0 -10 10 0 10 0 0 10 0 10 -10 0 -10 0 0 -10z"/>
<path d="M300 450 l0 -10 10 0 10 0 0 10 0 10 -10 0 -10 0 0 -10z"/>
<path d="M611 524 l-14 -16 14 -8 13 -9 -23 -21 -24 -20 7 -7 7 -7 9 14 9 14
20 -23 20 -23 36 36 36 36 -27 27 -26 26 -10 -14 -10 -14 -5 13 -5 12 -6 0 -7
-1 -14 -15z m32 -16 l5 -13 10 14 10 14 17 -16 16 -17 -26 -25 -25 -26 -17 16
-16 17 14 10 14 10 -12 5 -13 5 0 9 0 9 9 0 9 0 5 -12z"/>
<path d="M651 484 l-13 -15 6 -6 5 -5 16 15 15 16 0 5 0 6 -7 0 -8 -1 -14 -15z"/>
<path d="M380 370 l0 -10 10 0 10 0 0 10 0 10 -10 0 -10 0 0 -10z"/>
<path d="M860 470 l0 -10 10 0 10 0 0 10 0 10 -10 0 -10 0 0 -10z"/>
<path d="M940 450 l0 -10 10 0 10 0 0 10 0 10 -10 0 -10 0 0 -10z"/>
<path d="M981 434 l-23 -25 5 -6 6 -5 25 25 26 26 0 6 0 5 -7 -1 -8 0 -24 -25z"/>
<path d="M820 410 l0 -10 10 0 10 0 0 10 0 10 -10 0 -10 0 0 -10z"/>
<path d="M531 364 l-13 -15 6 -6 5 -5 16 15 15 16 0 5 0 6 -7 0 -8 -1 -14 -15z"/>
<path d="M720 330 l0 -10 10 0 10 0 0 10 0 10 -10 0 -10 0 0 -10z"/>
<path d="M831 324 l-13 -15 6 -6 5 -5 16 15 15 16 0 5 0 6 -7 0 -8 -1 -14 -15z"/>
<path d="M0 100 l0 -100 640 0 640 0 0 100 0 100 -640 0 -640 0 0 -100z"/>
</g>
</svg>
