<?xml version="1.0" standalone="no"?>
<!DOCTYPE svg PUBLIC "-//W3C//DTD SVG 20010904//EN"
 "http://www.w3.org/TR/2001/REC-SVG-20010904/DTD/svg10.dtd">
<svg version="1.0" xmlns="http://www.w3.org/2000/svg"
 width="468pt" height="468pt" viewBox="0 0 468 468"
 preserveAspectRatio="xMidYMid meet">
<metadata>
Created by potrace 1.8, written by Peter Selinger 2001-2007
</metadata>
<g transform="translate(0,468) scale(0.365625,-0.365625)"
fill="#000000" stroke="none">
<path d="M300 1255 l0 -25 -25 0 -25 0 0 -25 0 -25 -25 0 -25 0 0 -270 0 -270
-25 0 -25 0 0 25 0 25 -50 0 -50 0 0 -25 0 -25 -25 0 -25 0 0 -320 0 -320 640
0 640 0 0 320 0 320 -25 0 -25 0 0 25 0 25 -25 0 -25 0 0 25 0 25 -25 0 -25 0
0 -25 0 -25 -50 0 -50 0 0 -25 0 -25 -45 0 -45 0 0 245 0 245 70 0 70 0 0 50
0 50 -25 0 -25 0 0 25 0 25 -365 0 -365 0 0 -25z m640 -50 l0 -25 -25 0 -25 0
0 -270 0 -270 -320 0 -320 0 0 270 0 270 25 0 25 0 0 25 0 25 320 0 320 0 0
-25z m90 0 l0 -25 -25 0 -25 0 0 25 0 25 25 0 25 0 0 -25z m-930 -640 l0 -75
465 0 465 0 0 75 0 75 100 0 100 0 0 -150 0 -150 -590 0 -590 0 0 150 0 150
25 0 25 0 0 -75z m880 0 l0 -25 -415 0 -415 0 0 25 0 25 415 0 415 0 0 -25z"/>
<path d="M300 1055 l0 -25 20 0 20 0 0 25 0 25 -20 0 -20 0 0 -25z"/>
<path d="M390 1055 l0 -25 75 0 75 0 0 25 0 25 -75 0 -75 0 0 -25z"/>
<path d="M590 1055 l0 -25 25 0 25 0 0 25 0 25 -25 0 -25 0 0 -25z"/>
<path d="M690 1055 l0 -25 75 0 75 0 0 25 0 25 -75 0 -75 0 0 -25z"/>
<path d="M300 960 l0 -20 45 0 45 0 0 20 0 20 -45 0 -45 0 0 -20z"/>
<path d="M440 960 l0 -20 25 0 25 0 0 20 0 20 -25 0 -25 0 0 -20z"/>
<path d="M540 960 l0 -20 25 0 25 0 0 20 0 20 -25 0 -25 0 0 -20z"/>
<path d="M640 960 l0 -20 25 0 25 0 0 20 0 20 -25 0 -25 0 0 -20z"/>
<path d="M740 960 l0 -20 50 0 50 0 0 20 0 20 -50 0 -50 0 0 -20z"/>
<path d="M300 865 l0 -25 20 0 20 0 0 25 0 25 -20 0 -20 0 0 -25z"/>
<path d="M390 865 l0 -25 50 0 50 0 0 25 0 25 -50 0 -50 0 0 -25z"/>
<path d="M540 865 l0 -25 25 0 25 0 0 25 0 25 -25 0 -25 0 0 -25z"/>
<path d="M640 865 l0 -25 25 0 25 0 0 25 0 25 -25 0 -25 0 0 -25z"/>
<path d="M740 865 l0 -25 25 0 25 0 0 25 0 25 -25 0 -25 0 0 -25z"/>
<path d="M300 765 l0 -25 20 0 20 0 0 25 0 25 -20 0 -20 0 0 -25z"/>
<path d="M390 765 l0 -25 25 0 25 0 0 25 0 25 -25 0 -25 0 0 -25z"/>
<path d="M490 765 l0 -25 50 0 50 0 0 25 0 25 -50 0 -50 0 0 -25z"/>
<path d="M640 765 l0 -25 50 0 50 0 0 25 0 25 -50 0 -50 0 0 -25z"/>
<path d="M790 765 l0 -25 25 0 25 0 0 25 0 25 -25 0 -25 0 0 -25z"/>
<path d="M1130 565 l0 -25 25 0 25 0 0 25 0 25 -25 0 -25 0 0 -25z"/>
</g>
</svg>
