<?xml version="1.0" standalone="no"?>
<!DOCTYPE svg PUBLIC "-//W3C//DTD SVG 20010904//EN"
 "http://www.w3.org/TR/2001/REC-SVG-20010904/DTD/svg10.dtd">
<svg version="1.0" xmlns="http://www.w3.org/2000/svg"
 width="468pt" height="468pt" viewBox="0 0 468 468"
 preserveAspectRatio="xMidYMid meet">
<metadata>
Created by potrace 1.8, written by Peter Selinger 2001-2007
</metadata>
<g transform="translate(0,468) scale(0.365625,-0.365625)"
fill="#000000" stroke="none">
<path d="M320 1260 l0 -20 -90 0 -90 0 0 -15 0 -15 -15 0 -15 0 0 -20 0 -20
-20 0 -20 0 0 -15 0 -15 -15 0 -15 0 0 -35 0 -35 -20 0 -20 0 0 -55 0 -55 20
0 20 0 0 -20 0 -20 15 0 15 0 0 -15 0 -15 105 0 105 0 0 -20 0 -20 -15 0 -15
0 0 -70 0 -70 -20 0 -20 0 0 -55 0 -55 -15 0 -15 0 0 -120 0 -120 15 0 15 0 0
-20 0 -20 -105 0 -105 0 0 -160 0 -160 640 0 640 0 0 160 0 160 -105 0 -105 0
0 20 0 20 15 0 15 0 0 120 0 120 -15 0 -15 0 0 55 0 55 -20 0 -20 0 0 70 0 70
-15 0 -15 0 0 20 0 20 105 0 105 0 0 15 0 15 15 0 15 0 0 20 0 20 20 0 20 0 0
55 0 55 -20 0 -20 0 0 35 0 35 -15 0 -15 0 0 15 0 15 -20 0 -20 0 0 20 0 20
-15 0 -15 0 0 15 0 15 -90 0 -90 0 0 20 0 20 -320 0 -320 0 0 -20z m640 -35
l0 -15 90 0 90 0 0 -20 0 -20 15 0 15 0 0 -15 0 -15 20 0 20 0 0 -35 0 -35 15
0 15 0 0 -20 0 -20 -70 0 -70 0 0 -15 0 -15 70 0 70 0 0 -20 0 -20 -15 0 -15
0 0 -20 0 -20 -70 0 -70 0 0 20 0 20 -35 0 -35 0 0 20 0 20 -20 0 -20 0 0 35
0 35 20 0 20 0 0 -20 0 -20 35 0 35 0 0 20 0 20 -35 0 -35 0 0 15 0 15 -40 0
-40 0 0 20 0 20 20 0 20 0 0 15 0 15 -70 0 -70 0 0 -50 0 -50 -20 0 -20 0 0
-20 0 -20 35 0 35 0 0 -15 0 -15 35 0 35 0 0 -20 0 -20 20 0 20 0 0 -55 0 -55
20 0 20 0 0 -70 0 -70 15 0 15 0 0 -55 0 -55 20 0 20 0 0 -120 0 -120 -90 0
-90 0 0 -20 0 -20 -250 0 -250 0 0 20 0 20 -90 0 -90 0 0 120 0 120 20 0 20 0
0 55 0 55 15 0 15 0 0 70 0 70 20 0 20 0 0 55 0 55 -70 0 -70 0 0 -20 0 -20
-55 0 -55 0 0 20 0 20 -15 0 -15 0 0 20 0 20 70 0 70 0 0 15 0 15 50 0 50 0 0
20 0 20 20 0 20 0 0 -55 0 -55 20 0 20 0 0 20 0 20 35 0 35 0 0 15 0 15 35 0
35 0 0 20 0 20 -20 0 -20 0 0 50 0 50 -70 0 -70 0 0 -15 0 -15 20 0 20 0 0
-20 0 -20 -40 0 -40 0 0 -15 0 -15 -50 0 -50 0 0 -20 0 -20 -70 0 -70 0 0 20
0 20 15 0 15 0 0 35 0 35 20 0 20 0 0 15 0 15 15 0 15 0 0 20 0 20 90 0 90 0
0 15 0 15 320 0 320 0 0 -15z m-530 -160 l0 -35 -35 0 -35 0 0 20 0 20 15 0
15 0 0 15 0 15 20 0 20 0 0 -35z m460 20 l0 -15 15 0 15 0 0 -20 0 -20 -35 0
-35 0 0 35 0 35 20 0 20 0 0 -15z"/>
<path d="M460 1190 l0 -20 35 0 35 0 0 -70 0 -70 110 0 110 0 0 70 0 70 35 0
35 0 0 20 0 20 -35 0 -35 0 0 -20 0 -20 -110 0 -110 0 0 20 0 20 -35 0 -35 0
0 -20z m250 -105 l0 -15 -70 0 -70 0 0 15 0 15 70 0 70 0 0 -15z"/>
<path d="M530 980 l0 -20 -35 0 -35 0 0 -20 0 -20 -35 0 -35 0 0 -15 0 -15
-15 0 -15 0 0 -90 0 -90 15 0 15 0 0 -15 0 -15 35 0 35 0 0 -20 0 -20 35 0 35
0 0 -20 0 -20 110 0 110 0 0 20 0 20 35 0 35 0 0 20 0 20 35 0 35 0 0 15 0 15
15 0 15 0 0 90 0 90 -15 0 -15 0 0 15 0 15 -35 0 -35 0 0 20 0 20 -35 0 -35 0
0 20 0 20 -110 0 -110 0 0 -20z m220 -40 l0 -20 35 0 35 0 0 -15 0 -15 15 0
15 0 0 -20 0 -20 20 0 20 0 0 -50 0 -50 -20 0 -20 0 0 -20 0 -20 -35 0 -35 0
0 -15 0 -15 -140 0 -140 0 0 15 0 15 -35 0 -35 0 0 20 0 20 -20 0 -20 0 0 50
0 50 20 0 20 0 0 20 0 20 15 0 15 0 0 15 0 15 35 0 35 0 0 20 0 20 110 0 110
0 0 -20z"/>
<path d="M570 905 l0 -15 -20 0 -20 0 0 -20 0 -20 -15 0 -15 0 0 -35 0 -35 15
0 15 0 0 -15 0 -15 110 0 110 0 0 15 0 15 15 0 15 0 0 35 0 35 -15 0 -15 0 0
20 0 20 -20 0 -20 0 0 15 0 15 -70 0 -70 0 0 -15z m140 -50 l0 -35 -70 0 -70
0 0 35 0 35 70 0 70 0 0 -35z"/>
<path d="M280 605 l0 -35 40 0 40 0 0 15 0 15 -20 0 -20 0 0 20 0 20 -20 0
-20 0 0 -35z"/>
<path d="M960 620 l0 -20 -20 0 -20 0 0 -15 0 -15 40 0 40 0 0 35 0 35 -20 0
-20 0 0 -20z"/>
<path d="M390 550 l0 -20 250 0 250 0 0 20 0 20 -250 0 -250 0 0 -20z"/>
<path d="M250 410 l0 -20 55 0 55 0 0 20 0 20 -55 0 -55 0 0 -20z"/>
<path d="M390 395 l0 -35 250 0 250 0 0 35 0 35 -250 0 -250 0 0 -35z"/>
<path d="M920 410 l0 -20 55 0 55 0 0 20 0 20 -55 0 -55 0 0 -20z"/>
</g>
</svg>
