<?xml version="1.0" standalone="no"?>
<!DOCTYPE svg PUBLIC "-//W3C//DTD SVG 20010904//EN"
 "http://www.w3.org/TR/2001/REC-SVG-20010904/DTD/svg10.dtd">
<svg version="1.0" xmlns="http://www.w3.org/2000/svg"
 width="468pt" height="468pt" viewBox="0 0 468 468"
 preserveAspectRatio="xMidYMid meet">
<metadata>
Created by potrace 1.8, written by Peter Selinger 2001-2007
</metadata>
<g transform="translate(0,468) scale(0.365625,-0.365625)"
fill="#000000" stroke="none">
<path d="M430 1070 l0 -70 -75 0 -75 0 0 -75 0 -75 -70 0 -70 0 0 -355 0 -355
70 0 70 0 0 -70 0 -70 145 0 145 0 0 70 0 70 70 0 70 0 0 -70 0 -70 70 0 70 0
0 70 0 70 75 0 75 0 0 70 0 70 -75 0 -75 0 0 75 0 75 75 0 75 0 0 70 0 70 -75
0 -75 0 0 70 0 70 75 0 75 0 0 70 0 70 -75 0 -75 0 0 75 0 75 -70 0 -70 0 0
70 0 70 -140 0 -140 0 0 -70z m280 -145 l0 -75 70 0 70 0 0 -70 0 -70 -70 0
-70 0 0 -70 0 -70 70 0 70 0 0 -70 0 -70 -70 0 -70 0 0 -75 0 -75 70 0 70 0 0
-70 0 -70 -70 0 -70 0 0 70 0 70 -70 0 -70 0 0 -70 0 -70 -70 0 -70 0 0 70 0
70 -75 0 -75 0 0 75 0 75 75 0 75 0 0 70 0 70 -75 0 -75 0 0 70 0 70 75 0 75
0 0 70 0 70 70 0 70 0 0 75 0 75 70 0 70 0 0 -75z"/>
<path d="M570 780 l0 -70 -70 0 -70 0 0 -70 0 -70 70 0 70 0 0 -70 0 -70 -70
0 -70 0 0 -75 0 -75 70 0 70 0 0 75 0 75 70 0 70 0 0 70 0 70 -70 0 -70 0 0
70 0 70 70 0 70 0 0 70 0 70 -70 0 -70 0 0 -70z"/>
</g>
</svg>
