<?xml version="1.0" standalone="no"?>
<!DOCTYPE svg PUBLIC "-//W3C//DTD SVG 20010904//EN"
 "http://www.w3.org/TR/2001/REC-SVG-20010904/DTD/svg10.dtd">
<svg version="1.0" xmlns="http://www.w3.org/2000/svg"
 width="468pt" height="468pt" viewBox="0 0 468 468"
 preserveAspectRatio="xMidYMid meet">
<metadata>
Created by potrace 1.8, written by Peter Selinger 2001-2007
</metadata>
<g transform="translate(0,468) scale(0.365625,-0.365625)"
fill="#000000" stroke="none">
<path d="M750 1265 l0 -15 -15 0 -15 0 0 -20 0 -20 15 0 15 0 0 -15 0 -15 20
0 20 0 0 15 0 15 15 0 15 0 0 20 0 20 -15 0 -15 0 0 15 0 15 -20 0 -20 0 0
-15z m40 -35 l0 -20 -20 0 -20 0 0 20 0 20 20 0 20 0 0 -20z"/>
<path d="M560 1135 l0 -15 -15 0 -15 0 0 -20 0 -20 15 0 15 0 0 -15 0 -15 15
0 15 0 0 15 0 15 15 0 15 0 0 20 0 20 -15 0 -15 0 0 15 0 15 -15 0 -15 0 0
-15z m30 -35 l0 -20 -15 0 -15 0 0 20 0 20 15 0 15 0 0 -20z"/>
<path d="M30 965 l0 -15 -15 0 -15 0 0 -80 0 -80 15 0 15 0 0 -35 0 -35 20 0
20 0 0 -15 0 -15 15 0 15 0 0 -15 0 -15 15 0 15 0 0 -20 0 -20 15 0 15 0 0
-15 0 -15 35 0 35 0 0 -15 0 -15 35 0 35 0 0 -15 0 -15 45 0 45 0 0 -20 0 -20
50 0 50 0 0 -15 0 -15 35 0 35 0 0 -15 0 -15 15 0 15 0 0 -215 0 -215 15 0 15
0 0 215 0 215 -15 0 -15 0 0 15 0 15 -15 0 -15 0 0 15 0 15 -35 0 -35 0 0 20
0 20 -50 0 -50 0 0 15 0 15 -45 0 -45 0 0 15 0 15 -35 0 -35 0 0 15 0 15 -35
0 -35 0 0 20 0 20 -15 0 -15 0 0 15 0 15 -15 0 -15 0 0 15 0 15 -15 0 -15 0 0
35 0 35 -20 0 -20 0 0 80 0 80 610 0 610 0 0 -80 0 -80 -20 0 -20 0 0 -35 0
-35 -15 0 -15 0 0 -15 0 -15 -15 0 -15 0 0 -15 0 -15 -15 0 -15 0 0 -20 0 -20
-35 0 -35 0 0 -15 0 -15 -35 0 -35 0 0 -15 0 -15 -45 0 -45 0 0 -15 0 -15 -50
0 -50 0 0 -20 0 -20 -35 0 -35 0 0 -15 0 -15 -15 0 -15 0 0 -15 0 -15 -15 0
-15 0 0 -215 0 -215 15 0 15 0 0 215 0 215 15 0 15 0 0 15 0 15 35 0 35 0 0
15 0 15 50 0 50 0 0 20 0 20 45 0 45 0 0 15 0 15 35 0 35 0 0 15 0 15 35 0 35
0 0 15 0 15 15 0 15 0 0 20 0 20 15 0 15 0 0 15 0 15 15 0 15 0 0 15 0 15 20
0 20 0 0 35 0 35 15 0 15 0 0 95 0 95 -625 0 -625 0 0 -15z"/>
<path d="M100 770 l0 -20 15 0 15 0 0 20 0 20 -15 0 -15 0 0 -20z"/>
<path d="M160 770 l0 -20 100 0 100 0 0 20 0 20 -100 0 -100 0 0 -20z"/>
<path d="M430 770 l0 -20 15 0 15 0 0 20 0 20 -15 0 -15 0 0 -20z"/>
<path d="M530 770 l0 -20 15 0 15 0 0 20 0 20 -15 0 -15 0 0 -20z"/>
<path d="M620 770 l0 -20 100 0 100 0 0 20 0 20 -100 0 -100 0 0 -20z"/>
<path d="M890 770 l0 -20 15 0 15 0 0 20 0 20 -15 0 -15 0 0 -20z"/>
<path d="M980 770 l0 -20 20 0 20 0 0 20 0 20 -20 0 -20 0 0 -20z"/>
<path d="M1080 770 l0 -20 20 0 20 0 0 20 0 20 -20 0 -20 0 0 -20z"/>
<path d="M1150 770 l0 -20 15 0 15 0 0 20 0 20 -15 0 -15 0 0 -20z"/>
<path d="M360 705 l0 -15 15 0 15 0 0 15 0 15 -15 0 -15 0 0 -15z"/>
<path d="M920 705 l0 -15 15 0 15 0 0 15 0 15 -15 0 -15 0 0 -15z"/>
<path d="M260 675 l0 -15 20 0 20 0 0 15 0 15 -20 0 -20 0 0 -15z"/>
<path d="M560 675 l0 -15 15 0 15 0 0 15 0 15 -15 0 -15 0 0 -15z"/>
<path d="M690 675 l0 -15 15 0 15 0 0 15 0 15 -15 0 -15 0 0 -15z"/>
<path d="M1020 675 l0 -15 15 0 15 0 0 15 0 15 -15 0 -15 0 0 -15z"/>
<path d="M430 640 l0 -20 15 0 15 0 0 20 0 20 -15 0 -15 0 0 -20z"/>
<path d="M790 640 l0 -20 15 0 15 0 0 20 0 20 -15 0 -15 0 0 -20z"/>
<path d="M620 575 l0 -15 20 0 20 0 0 15 0 15 -20 0 -20 0 0 -15z"/>
</g>
</svg>
