<?xml version="1.0" standalone="no"?>
<!DOCTYPE svg PUBLIC "-//W3C//DTD SVG 20010904//EN"
 "http://www.w3.org/TR/2001/REC-SVG-20010904/DTD/svg10.dtd">
<svg version="1.0" xmlns="http://www.w3.org/2000/svg"
 width="468pt" height="468pt" viewBox="0 0 468 468"
 preserveAspectRatio="xMidYMid meet">
<metadata>
Created by potrace 1.8, written by Peter Selinger 2001-2007
</metadata>
<g transform="translate(0,468) scale(0.365625,-0.365625)"
fill="#000000" stroke="none">
<path d="M300 1265 l0 -15 -15 0 -15 0 0 -25 0 -25 15 0 15 0 0 -15 0 -15 25
0 25 0 0 -15 0 -15 15 0 15 0 0 -10 0 -10 15 0 15 0 0 40 0 40 -15 0 -15 0 0
25 0 25 -15 0 -15 0 0 15 0 15 -25 0 -25 0 0 -15z m50 -40 l0 -25 15 0 15 0 0
-15 0 -15 -15 0 -15 0 0 15 0 15 -25 0 -25 0 0 25 0 25 25 0 25 0 0 -25z"/>
<path d="M570 1225 l0 -55 15 0 15 0 0 55 0 55 -15 0 -15 0 0 -55z"/>
<path d="M820 1265 l0 -15 -15 0 -15 0 0 -10 0 -10 -15 0 -15 0 0 -15 0 -15
-10 0 -10 0 0 -30 0 -30 25 0 25 0 0 15 0 15 15 0 15 0 0 15 0 15 55 0 55 0 0
15 0 15 10 0 10 0 0 25 0 25 -10 0 -10 0 0 -25 0 -25 -30 0 -30 0 0 10 0 10
-11 0 -10 0 -15 -14 -14 -15 0 -10 0 -11 -15 0 -15 0 0 15 0 15 11 0 10 0 15
14 14 15 0 10 0 11 -10 0 -10 0 0 -15z m-30 -80 l0 -15 -15 0 -15 0 0 15 0 15
15 0 15 0 0 -15z"/>
<path d="M490 1225 l0 -25 15 0 15 0 0 -30 0 -30 10 0 10 0 0 30 0 30 -10 0
-10 0 0 25 0 25 -15 0 -15 0 0 -25z"/>
<path d="M680 1240 l0 -10 -15 0 -15 0 0 -15 0 -15 15 0 15 0 0 15 0 15 15 0
15 0 0 10 0 10 -15 0 -15 0 0 -10z"/>
<path d="M650 1155 l0 -15 15 0 15 0 0 15 0 15 -15 0 -15 0 0 -15z"/>
<path d="M570 1130 l0 -10 15 0 15 0 0 10 0 10 -15 0 -15 0 0 -10z"/>
<path d="M840 1105 l0 -15 -10 0 -10 0 0 -55 0 -55 10 0 10 0 0 -165 0 -165
-245 0 -245 0 0 165 0 165 15 0 15 0 0 15 0 15 -40 0 -40 0 0 25 0 25 -15 0
-15 0 0 15 0 15 -25 0 -25 0 0 -15 0 -15 -15 0 -15 0 0 15 0 15 -25 0 -25 0 0
-15 0 -15 -15 0 -15 0 0 -25 0 -25 -15 0 -15 0 0 -110 0 -110 15 0 15 0 0 -40
0 -40 -15 0 -15 0 0 -15 0 -15 -15 0 -15 0 0 -11 0 -10 -14 -15 -15 -14 -10 0
-11 0 0 -45 0 -45 15 0 15 0 0 -10 0 -10 25 0 25 0 0 -15 0 -15 40 0 40 0 0
-15 0 -15 30 0 30 0 0 -65 0 -65 15 0 15 0 0 -15 0 -15 65 0 65 0 0 15 0 15
15 0 15 0 0 -30 0 -30 -15 0 -15 0 0 -10 0 -10 -15 0 -15 0 0 -15 0 -15 -25 0
-25 0 0 -40 0 -40 15 0 15 0 0 -70 0 -70 25 0 25 0 0 80 0 80 15 0 15 0 0 15
0 15 15 0 15 0 0 15 0 15 10 0 10 0 0 15 0 15 15 0 15 0 0 10 0 10 15 0 15 0
0 15 0 15 80 0 80 0 0 -15 0 -15 15 0 15 0 0 -10 0 -10 15 0 15 0 0 -15 0 -15
10 0 10 0 0 -15 0 -15 15 0 15 0 0 -15 0 -15 15 0 15 0 0 -65 0 -65 -15 0 -15
0 0 -15 0 -15 70 0 70 0 0 15 0 15 -30 0 -30 0 0 55 0 55 15 0 15 0 0 40 0 40
-30 0 -30 0 0 11 0 10 -14 15 -15 14 -10 0 -11 0 0 15 0 15 -15 0 -15 0 0 15
0 15 40 0 40 0 0 -15 0 -15 55 0 55 0 0 15 0 15 15 0 15 0 0 105 0 105 40 0
40 0 0 15 0 15 55 0 55 0 0 15 0 15 40 0 40 0 0 15 0 15 15 0 15 0 0 25 0 25
-15 0 -15 0 0 15 0 15 -25 0 -25 0 0 15 0 15 -26 0 -25 0 -15 14 -14 15 0 10
0 11 10 0 10 0 0 110 0 110 -10 0 -10 0 0 25 0 25 -15 0 -15 0 0 15 0 15 -30
0 -30 0 0 -15 0 -15 -10 0 -10 0 0 15 0 15 -30 0 -30 0 0 -15 0 -15 -10 0 -10
0 0 -25 0 -25 -30 0 -30 0 0 25 0 25 -15 0 -15 0 0 15 0 15 15 0 15 0 0 -15 0
-15 15 0 15 0 0 30 0 30 -30 0 -30 0 0 -15z m-650 -60 l0 -15 -15 0 -15 0 0
-10 0 -10 -10 0 -10 0 0 25 0 25 25 0 25 0 0 -15z m80 -10 l0 -25 -10 0 -10 0
0 -15 0 -15 -30 0 -30 0 0 -15 0 -15 -15 0 -15 0 0 30 0 30 15 0 15 0 0 10 0
10 15 0 15 0 0 15 0 15 25 0 25 0 0 -25z m740 14 l0 -10 14 -15 15 -14 10 0
11 0 0 -30 0 -30 -15 0 -15 0 0 15 0 15 -40 0 -40 0 0 40 0 40 30 0 30 0 0
-11z m80 -14 l0 -25 15 0 15 0 0 -30 0 -30 -15 0 -15 0 0 30 0 30 -15 0 -15 0
0 10 0 10 -15 0 -15 0 0 15 0 15 30 0 30 0 0 -25z m-950 -55 l0 -30 10 0 10 0
0 -25 0 -25 -10 0 -10 0 0 -30 0 -30 10 0 10 0 0 30 0 30 15 0 15 0 0 25 0 25
40 0 40 0 0 15 0 15 30 0 30 0 0 -175 0 -175 270 0 270 0 0 175 0 175 30 0 30
0 0 -70 0 -70 10 0 10 0 0 -255 0 -255 -55 0 -55 0 0 120 0 120 -10 0 -10 0 0
15 0 15 -190 0 -190 0 0 -15 0 -15 -15 0 -15 0 0 -110 0 -110 -30 0 -30 0 0
-10 0 -10 -50 0 -50 0 0 175 0 175 10 0 10 0 0 95 0 95 15 0 15 0 0 40 0 40
-15 0 -15 0 0 -40 0 -40 -10 0 -10 0 0 -15 0 -15 -15 0 -15 0 0 -25 0 -25 15
0 15 0 0 -40 0 -40 -15 0 -15 0 0 -15 0 -15 -15 0 -15 0 0 15 0 15 -15 0 -15
0 0 15 0 15 -10 0 -10 0 0 25 0 25 -15 0 -15 0 0 70 0 70 15 0 15 0 0 10 0 10
-15 0 -15 0 0 30 0 30 15 0 15 0 0 -30z m890 -55 l0 -25 15 0 15 0 0 -30 0
-30 15 0 15 0 0 30 0 30 -15 0 -15 0 0 25 0 25 15 0 15 0 0 -10 0 -10 15 0 15
0 0 -70 0 -70 -15 0 -15 0 0 -25 0 -25 -15 0 -15 0 0 -15 0 -15 -15 0 -15 0 0
-15 0 -15 -10 0 -10 0 0 15 0 15 -15 0 -15 0 0 40 0 40 15 0 15 0 0 25 0 25
-15 0 -15 0 0 15 0 15 -15 0 -15 0 0 40 0 40 40 0 40 0 0 -25z m-840 -260 l0
-15 15 0 15 0 0 -65 0 -65 -30 0 -30 0 0 10 0 10 -40 0 -40 0 0 15 0 15 -15 0
-15 0 0 15 0 15 15 0 15 0 0 15 0 15 15 0 15 0 0 10 0 10 15 0 15 0 0 15 0 15
25 0 25 0 0 -15z m950 0 l0 -15 15 0 15 0 0 -10 0 -10 -55 0 -55 0 0 -15 0
-15 -40 0 -40 0 0 25 0 25 40 0 40 0 0 15 0 15 40 0 40 0 0 -15z m-400 -215
l0 -120 -150 0 -150 0 0 120 0 120 150 0 150 0 0 -120z m80 10 l0 -110 -30 0
-30 0 0 110 0 110 30 0 30 0 0 -110z m-470 -285 l0 -15 -10 0 -10 0 0 15 0 15
10 0 10 0 0 -15z m520 0 l0 -15 -15 0 -15 0 0 15 0 15 15 0 15 0 0 -15z"/>
<path d="M460 460 l0 -80 55 0 55 0 0 80 0 80 -55 0 -55 0 0 -80z m80 -10 l0
-40 -10 0 -10 0 0 40 0 40 10 0 10 0 0 -40z"/>
<path d="M440 1045 l0 -15 -15 0 -15 0 0 -40 0 -40 15 0 15 0 0 26 0 25 14 15
15 14 25 0 26 0 0 15 0 15 -40 0 -40 0 0 -15z"/>
<path d="M680 1045 l0 -15 26 0 25 0 15 -14 14 -15 0 -25 0 -26 15 0 15 0 0
40 0 40 -15 0 -15 0 0 15 0 15 -40 0 -40 0 0 -15z"/>
<path d="M460 995 l0 -15 125 0 125 0 0 15 0 15 -125 0 -125 0 0 -15z"/>
<path d="M453 935 l-13 -14 0 -51 0 -50 10 0 10 0 0 -15 0 -15 40 0 40 0 0 15
0 15 15 0 15 0 0 55 0 55 -15 0 -15 0 0 10 0 10 -37 0 -38 -1 -12 -14z m67
-20 l0 -15 -15 0 -15 0 0 -40 0 -40 -15 0 -15 0 0 55 0 55 30 0 30 0 0 -15z
m20 -60 l0 -15 -10 0 -10 0 0 15 0 15 10 0 10 0 0 -15z"/>
<path d="M643 935 l-13 -14 0 -51 0 -50 10 0 10 0 0 -15 0 -15 45 0 45 0 0 15
0 15 10 0 10 0 0 51 0 50 -14 15 -15 14 -38 0 -38 -1 -12 -14z m97 -60 l0 -55
-15 0 -15 0 0 40 0 40 -15 0 -15 0 0 15 0 15 30 0 30 0 0 -55z m-60 -20 l0
-15 -15 0 -15 0 0 15 0 15 15 0 15 0 0 -15z"/>
<path d="M520 750 l0 -10 25 0 25 0 0 -15 0 -15 30 0 30 0 0 15 0 15 25 0 25
0 0 10 0 10 -25 0 -25 0 0 -10 0 -10 -30 0 -30 0 0 10 0 10 -25 0 -25 0 0 -10z"/>
<path d="M1030 355 l0 -55 -10 0 -10 0 0 -15 0 -15 -15 0 -15 0 0 -10 0 -10
25 0 25 0 0 25 0 25 15 0 15 0 0 55 0 55 -15 0 -15 0 0 -55z"/>
<path d="M160 310 l0 -40 15 0 15 0 0 -10 0 -10 30 0 30 0 0 10 0 10 -15 0
-15 0 0 15 0 15 -15 0 -15 0 0 25 0 25 -15 0 -15 0 0 -40z"/>
<path d="M1120 310 l0 -40 -15 0 -15 0 0 -10 0 -10 -15 0 -15 0 0 -15 0 -15
30 0 30 0 0 15 0 15 10 0 10 0 0 50 0 50 -10 0 -10 0 0 -40z"/>
<path d="M80 285 l0 -15 15 0 15 0 0 -25 0 -25 25 0 25 0 0 11 0 10 -14 15
-15 14 -10 0 -11 0 0 15 0 15 -15 0 -15 0 0 -15z"/>
</g>
</svg>
