<?xml version="1.0" standalone="no"?>
<!DOCTYPE svg PUBLIC "-//W3C//DTD SVG 20010904//EN"
 "http://www.w3.org/TR/2001/REC-SVG-20010904/DTD/svg10.dtd">
<svg version="1.0" xmlns="http://www.w3.org/2000/svg"
 width="468pt" height="468pt" viewBox="0 0 468 468"
 preserveAspectRatio="xMidYMid meet">
<metadata>
Created by potrace 1.8, written by Peter Selinger 2001-2007
</metadata>
<g transform="translate(0,468) scale(0.365625,-0.365625)"
fill="#000000" stroke="none">
<path d="M0 1051 l0 -229 13 -5 12 -5 -15 -11 -15 -11 15 -11 15 -11 -12 -5
-13 -5 0 -128 0 -128 13 -5 12 -5 -15 -12 -15 -12 13 -5 12 -5 0 -13 0 -13
-13 -5 -12 -5 15 -11 15 -11 -15 -10 -15 -10 15 -10 15 -10 -15 -11 -15 -11
13 -5 12 -5 0 -13 0 -13 -13 -5 -12 -5 15 -11 15 -11 -15 -10 -15 -10 15 -10
15 -10 -15 -11 -15 -11 13 -5 12 -5 0 -13 0 -13 -12 -5 -13 -5 15 -11 15 -11
-15 -10 -15 -10 15 -10 15 -10 -15 -11 -15 -11 12 -5 13 -5 0 -14 0 -14 -10 0
-10 0 0 -20 0 -20 195 0 195 0 0 8 0 8 -20 14 -20 14 0 12 0 12 -12 5 -13 4 7
8 7 7 16 -15 15 -16 0 -6 0 -6 27 -27 27 -26 4 12 4 12 13 0 13 0 5 -12 5 -13
12 15 12 15 5 -12 5 -13 128 0 128 0 5 13 5 12 11 -15 11 -15 11 15 11 15 5
-12 5 -13 13 0 13 0 5 13 5 12 11 -15 11 -15 10 15 10 15 10 -15 10 -15 11 15
11 15 5 -12 5 -13 13 0 13 0 5 13 5 12 11 -15 11 -15 10 15 10 15 10 -15 10
-15 11 15 11 15 5 -12 5 -13 13 0 13 0 5 13 5 12 11 -15 11 -15 10 15 10 15
10 -15 10 -15 11 15 11 15 5 -12 5 -13 13 0 13 0 5 13 5 12 11 -15 10 -14 8 7
7 8 -14 10 -15 11 12 5 13 5 0 13 0 13 -12 5 -13 5 15 11 15 11 -15 10 -15 10
15 10 15 10 -15 11 -15 11 12 5 13 5 0 13 0 13 -12 5 -13 5 15 11 15 11 -15
10 -15 10 15 10 15 10 -15 11 -15 11 13 5 12 5 0 13 0 13 -12 5 -13 5 15 11
15 11 -15 10 -15 10 15 10 15 10 -15 11 -15 11 12 5 13 5 0 13 0 13 -12 5 -13
5 15 11 15 11 -15 11 -15 11 13 5 12 5 0 128 0 128 -12 5 -13 5 15 12 15 12
-13 5 -12 5 0 13 0 13 12 4 12 4 -26 27 -27 27 -6 0 -6 0 -16 15 -15 16 7 7 8
7 4 -12 5 -13 12 0 12 0 14 -20 14 -20 8 0 8 0 0 195 0 195 -20 0 -20 0 0 -10
0 -10 -14 0 -14 0 -5 13 -5 12 -11 -15 -11 -15 -10 15 -10 15 -10 -15 -10 -15
-11 15 -11 15 -5 -12 -5 -13 -13 0 -13 0 -5 13 -5 12 -11 -15 -11 -15 -10 15
-10 15 -10 -15 -10 -15 -11 15 -11 15 -5 -12 -5 -13 -13 0 -13 0 -5 13 -5 12
-11 -15 -11 -15 -10 15 -10 15 -10 -15 -10 -15 -11 15 -11 15 -5 -12 -5 -13
-13 0 -13 0 -5 13 -5 12 -12 -15 -12 -15 -5 13 -5 12 -128 0 -128 0 -5 -12 -5
-13 -11 15 -11 15 -11 -15 -11 -15 -5 13 -5 12 -229 0 -229 0 0 -229z m760
199 l0 -10 44 0 44 0 5 13 4 12 9 -9 9 -9 -12 -4 -13 -5 0 -14 0 -14 20 0 20
0 0 -10 0 -10 20 0 20 0 0 -10 0 -10 25 0 25 0 0 -10 0 -10 20 0 20 0 0 5 0 6
-25 24 -24 25 -10 0 -9 0 -4 -12 -5 -13 -16 17 -17 17 0 9 0 10 -12 5 -13 4 8
9 8 8 10 -14 9 -15 11 15 11 15 5 -12 5 -13 13 0 13 0 5 13 5 12 11 -15 11
-15 10 15 10 15 10 -15 10 -15 11 15 11 15 5 -12 5 -13 13 0 13 0 5 13 5 12
11 -15 11 -15 10 15 10 15 10 -15 10 -15 9 15 10 14 8 -8 8 -9 -12 -4 -13 -5
0 -10 0 -9 -16 -16 -16 -16 -8 14 -9 13 -19 -22 -19 -22 -11 0 -10 0 -5 -12
-5 -13 -10 14 -10 14 -17 -17 -17 -17 21 -18 21 -18 0 -7 0 -7 14 -15 15 -14
6 0 6 0 24 -25 25 -24 0 -16 0 -15 10 0 10 0 0 -25 0 -25 10 0 10 0 0 -20 0
-20 10 0 10 0 0 -20 0 -20 14 0 14 0 5 13 4 12 9 -9 9 -9 -12 -4 -13 -5 0 -44
0 -44 10 0 10 0 0 -120 0 -120 -10 0 -10 0 0 -45 0 -45 -15 0 -15 0 0 -20 0
-20 -10 0 -10 0 0 -20 0 -20 -10 0 -10 0 0 -25 0 -25 -10 0 -10 0 0 -15 0 -16
-25 -24 -24 -25 -6 0 -6 0 -15 -14 -14 -15 0 -6 0 -6 -25 -24 -24 -25 -16 0
-15 0 0 -10 0 -10 -25 0 -25 0 0 -10 0 -10 -20 0 -20 0 0 -10 0 -10 -20 0 -20
0 0 -15 0 -15 -45 0 -45 0 0 -10 0 -10 -120 0 -120 0 0 10 0 10 -44 0 -44 0
-5 -12 -4 -13 -9 9 -9 9 13 4 12 5 0 14 0 14 -20 0 -20 0 0 10 0 10 -20 0 -20
0 0 10 0 10 -25 0 -25 0 0 10 0 10 -15 0 -16 0 -24 25 -25 24 0 6 0 6 -14 15
-15 14 -7 0 -7 0 -18 21 -18 21 -17 -17 -17 -17 14 -10 14 -10 -12 -5 -13 -5
0 -10 0 -11 -22 -19 -22 -19 13 -9 14 -8 -16 -16 -16 -16 -9 0 -10 0 -5 -12
-4 -13 -9 8 -8 8 14 10 15 9 -15 10 -15 10 15 10 15 10 -15 11 -15 11 13 5 12
5 0 13 0 13 -12 5 -13 5 15 11 15 11 -15 10 -15 10 15 10 15 10 -15 11 -15 11
13 5 12 5 0 13 0 13 -12 5 -13 5 15 11 15 11 -15 9 -14 10 8 8 9 8 4 -12 5
-13 10 0 9 0 17 -17 17 -16 -13 -5 -12 -4 0 -9 0 -10 25 -24 24 -25 6 0 5 0 0
20 0 20 -10 0 -10 0 0 25 0 25 -10 0 -10 0 0 20 0 20 -10 0 -10 0 0 20 0 20
-14 0 -14 0 -5 -12 -4 -13 -9 9 -9 9 13 4 12 5 0 44 0 44 -10 0 -10 0 0 120 0
120 10 0 10 0 0 30 0 30 -10 0 -10 0 0 15 0 15 10 0 10 0 0 -15 0 -15 15 0 15
0 0 35 0 35 10 0 10 0 0 20 0 20 10 0 10 0 0 25 0 25 10 0 10 0 0 15 0 16 25
24 24 25 6 0 6 0 15 14 14 15 0 6 0 6 25 24 24 25 16 0 15 0 0 10 0 10 25 0
25 0 0 10 0 10 20 0 20 0 0 10 0 10 20 0 20 0 0 15 0 15 45 0 45 0 0 10 0 10
120 0 120 0 0 -10z m500 -849 l0 -9 -12 -5 -13 -5 15 -11 15 -11 -15 -11 -15
-11 13 -5 12 -5 0 -13 0 -13 -12 -5 -13 -5 15 -11 15 -11 -15 -10 -15 -10 15
-10 15 -10 -15 -11 -15 -11 13 -5 12 -5 0 -13 0 -13 -12 -5 -13 -5 15 -11 15
-11 -15 -10 -15 -10 15 -10 15 -10 -15 -11 -15 -11 13 -5 12 -5 0 -10 0 -9
-14 -15 -15 -14 -9 0 -10 0 -5 13 -5 12 -11 -15 -11 -15 -10 15 -10 15 -10
-15 -10 -15 -11 15 -11 15 -5 -13 -5 -12 -13 0 -13 0 -5 13 -5 12 -11 -15 -11
-15 -10 15 -10 15 -10 -15 -10 -15 -11 15 -11 15 -5 -12 -5 -13 -13 0 -13 0
-5 13 -5 12 -11 -15 -11 -15 -10 15 -10 15 -9 -15 -10 -14 -8 8 -8 9 13 4 12
5 0 14 0 14 10 0 10 0 0 -15 0 -15 10 0 10 0 0 11 0 10 14 15 15 14 9 0 10 0
5 13 5 12 10 -14 10 -14 40 41 40 42 11 0 11 0 0 11 0 11 42 40 41 40 -14 10
-14 10 13 5 12 5 0 10 0 9 14 15 15 14 10 0 11 0 0 10 0 10 -15 0 -15 0 0 10
0 10 15 0 15 0 0 10 0 10 10 0 10 0 0 -9z"/>
<path d="M930 1225 l0 -15 10 0 10 0 0 15 0 15 -10 0 -10 0 0 -15z"/>
<path d="M980 1230 l0 -11 26 -26 26 -26 9 14 9 14 11 -15 11 -15 5 13 5 12
10 0 9 0 15 14 14 15 0 10 0 11 -10 0 -10 0 0 -15 0 -15 -15 0 -15 0 0 15 0
15 -10 0 -10 0 0 -15 0 -15 -10 0 -10 0 0 15 0 15 -10 0 -10 0 0 -15 0 -15
-10 0 -10 0 0 15 0 15 -10 0 -10 0 0 -10z m60 -30 l0 -10 -10 0 -10 0 0 10 0
10 10 0 10 0 0 -10z m40 0 l0 -10 -10 0 -10 0 0 10 0 10 10 0 10 0 0 -10z"/>
<path d="M1150 1225 l0 -15 10 0 10 0 0 15 0 15 -10 0 -10 0 0 -15z"/>
<path d="M520 1200 l0 -10 -30 0 -30 0 0 -10 0 -10 -35 0 -35 0 0 -10 0 -10
-18 0 -18 0 -14 -20 -14 -20 -23 0 -23 0 0 -10 0 -11 -45 -44 -44 -45 -11 0
-10 0 0 -23 0 -23 -20 -14 -20 -14 0 -18 0 -18 -10 0 -10 0 0 -35 0 -35 -10 0
-10 0 0 -30 0 -30 -10 0 -10 0 0 -120 0 -120 10 0 10 0 0 -30 0 -30 10 0 10 0
0 -35 0 -35 10 0 10 0 0 -18 0 -18 20 -14 20 -14 0 -23 0 -23 10 0 11 0 44
-45 45 -44 0 -11 0 -10 23 0 23 0 14 -20 14 -20 28 0 28 0 0 -10 0 -10 25 0
25 0 0 -10 0 -10 30 0 30 0 0 -10 0 -10 120 0 120 0 0 10 0 10 30 0 30 0 0 10
0 10 35 0 35 0 0 10 0 10 18 0 18 0 14 20 14 20 23 0 23 0 0 10 0 11 45 44 44
45 11 0 10 0 0 23 0 23 20 14 20 14 0 18 0 18 10 0 10 0 0 35 0 35 10 0 10 0
0 30 0 30 10 0 10 0 0 120 0 120 -10 0 -10 0 0 30 0 30 -10 0 -10 0 0 25 0 25
-10 0 -10 0 0 28 0 28 -20 14 -20 14 0 23 0 23 -10 0 -11 0 -44 45 -45 44 0
11 0 10 -23 0 -23 0 -14 20 -14 20 -18 0 -18 0 0 10 0 10 -35 0 -35 0 0 10 0
10 -30 0 -30 0 0 10 0 10 -120 0 -120 0 0 -10z m24 -22 l6 -13 6 13 6 12 13 0
13 0 5 -12 5 -13 11 15 11 15 10 -15 10 -15 10 15 10 15 11 -15 11 -15 5 13 5
12 13 0 13 0 5 -12 5 -13 11 15 10 14 21 -24 21 -24 10 14 11 15 5 -12 5 -13
13 0 13 0 5 -12 5 -13 10 14 10 14 26 -26 26 -26 0 -6 0 -6 14 -15 15 -14 9 0
10 0 4 12 4 12 49 -49 49 -49 -12 -4 -12 -4 0 -10 0 -9 14 -15 15 -14 6 0 6 0
16 -15 15 -16 -7 -7 -8 -7 -4 13 -5 12 -13 0 -13 0 -5 13 -5 12 -11 -15 -11
-15 -10 15 -10 15 -10 -15 -10 -15 -11 15 -11 15 -5 -12 -5 -13 -13 0 -13 0
-5 -12 -5 -13 -11 15 -11 15 -10 -15 -10 -15 -9 15 -10 14 -19 -22 -19 -22
-11 0 -10 0 -5 13 -4 12 -22 -25 -22 -24 -9 13 -8 14 -16 -16 -16 -16 0 -10 0
-11 -11 0 -12 0 -19 -22 -19 -22 -9 14 -8 14 -30 -32 -30 -32 -7 0 -6 0 -15
-14 -14 -15 0 -6 0 -7 -32 -30 -32 -30 14 -8 14 -9 -22 -19 -22 -19 0 -12 0
-11 -11 0 -10 0 -16 -16 -16 -16 14 -8 13 -9 -24 -22 -25 -22 13 -4 12 -5 0
-10 0 -11 -22 -19 -22 -19 14 -10 15 -9 -15 -10 -15 -10 15 -11 15 -11 -12 -5
-13 -5 0 -13 0 -13 -12 -5 -13 -5 15 -11 15 -11 -15 -10 -15 -10 15 -10 15
-10 -15 -11 -15 -11 13 -5 12 -5 0 -13 0 -13 13 -5 12 -4 -7 -8 -7 -7 -16 15
-15 16 0 6 0 6 -14 15 -15 14 -9 0 -10 0 -4 -12 -4 -12 -49 49 -49 49 12 4 12
4 0 10 0 9 -14 15 -15 14 -6 0 -6 0 -26 26 -26 26 14 10 14 10 -12 5 -13 5 0
13 0 13 -12 5 -13 5 15 11 14 10 -24 21 -24 21 14 10 15 11 -12 5 -13 5 0 13
0 13 13 5 12 5 -15 11 -15 11 15 10 15 10 -15 10 -15 10 15 11 15 11 -12 5
-13 5 0 13 0 13 13 5 12 5 -15 11 -14 10 24 21 24 21 -14 10 -15 11 13 5 12 5
0 13 0 13 13 5 12 5 -14 10 -14 10 26 26 26 26 6 0 6 0 15 14 14 15 0 9 0 10
-12 4 -12 4 49 49 49 49 4 -12 4 -12 10 0 9 0 15 14 14 15 0 6 0 6 26 26 26
26 10 -14 10 -14 5 13 5 12 13 0 13 0 5 13 5 12 11 -15 10 -15 18 22 18 23 7
0 6 0 6 -12z"/>
<path d="M507 1147 l-18 -22 -10 15 -11 15 -5 -12 -5 -13 -13 0 -13 0 -5 -12
-5 -13 -10 14 -10 14 -16 -16 -16 -16 0 -6 0 -6 -25 -24 -24 -25 -10 0 -9 0
-4 12 -4 12 -39 -39 -39 -39 12 -4 12 -4 0 -9 0 -10 -25 -24 -24 -25 -6 0 -6
0 -16 -16 -16 -16 14 -10 14 -10 -12 -5 -13 -5 0 -13 0 -13 -12 -5 -13 -5 15
-11 14 -10 -24 -21 -24 -21 14 -10 15 -11 -12 -5 -13 -5 0 -13 0 -13 13 -5 12
-5 -15 -11 -15 -11 15 -10 15 -10 -15 -10 -15 -10 15 -11 15 -11 -12 -5 -13
-5 0 -13 0 -13 13 -5 12 -5 -15 -11 -14 -10 24 -21 24 -21 -14 -10 -15 -11 13
-5 12 -5 0 -13 0 -13 13 -5 12 -5 -14 -10 -14 -10 16 -16 16 -16 6 0 6 0 24
-25 25 -24 0 -10 0 -9 -12 -4 -12 -4 39 -39 39 -39 4 12 4 12 13 0 13 0 5 -12
4 -13 9 8 8 8 -14 10 -15 9 15 10 15 10 -15 11 -15 11 13 5 12 5 0 13 0 13 13
5 12 5 -15 11 -15 11 15 10 15 10 -15 9 -14 10 22 19 22 19 0 11 0 10 -12 5
-13 4 25 22 24 22 -14 9 -14 9 22 19 22 19 0 12 0 11 11 0 10 0 16 16 16 16
-13 8 -14 8 32 30 32 30 0 6 0 7 25 24 24 25 7 0 6 0 30 32 30 32 8 -14 8 -13
16 16 16 16 0 10 0 11 11 0 12 0 19 22 19 22 9 -14 9 -14 22 24 22 25 4 -12 5
-13 10 0 11 0 19 22 19 22 10 -14 9 -15 10 15 10 15 11 -15 11 -15 5 13 5 12
13 0 13 0 5 13 5 12 11 -15 11 -15 10 15 10 15 9 -15 10 -14 8 8 8 9 -12 4
-13 5 0 13 0 13 12 4 12 4 -39 39 -39 39 -4 -12 -4 -12 -9 0 -10 0 -24 25 -25
24 0 6 0 6 -16 16 -16 16 -10 -14 -10 -14 -5 13 -5 12 -13 0 -13 0 -5 13 -5
12 -11 -15 -10 -14 -21 24 -21 24 -10 -14 -11 -15 -5 13 -5 12 -13 0 -13 0 -5
-12 -5 -13 -11 15 -11 15 -10 -15 -10 -15 -10 15 -10 15 -11 -15 -11 -15 -5
13 -5 12 -13 0 -13 0 -6 -12 -6 -13 -6 13 -6 12 -6 0 -7 0 -18 -23z m37 -9 l6
-13 6 13 6 12 13 0 13 0 5 -12 5 -13 11 15 11 15 10 -15 10 -15 10 15 10 15
11 -15 11 -15 5 13 5 12 13 0 13 0 5 -12 5 -13 11 15 10 14 21 -24 21 -24 10
14 11 15 5 -12 5 -13 14 0 14 0 0 -15 0 -15 -15 0 -15 0 0 15 0 15 -10 0 -10
0 0 -11 0 -10 14 -15 15 -14 6 0 6 0 15 14 14 15 0 10 0 11 10 0 10 0 0 -10 0
-11 35 -34 34 -35 10 0 9 0 4 12 4 12 29 -29 29 -29 -12 -4 -12 -4 0 -14 0
-14 -10 0 -10 0 0 11 0 10 -14 15 -15 14 -6 0 -6 0 -15 -14 -14 -15 0 -10 0
-11 10 0 10 0 0 15 0 15 15 0 15 0 0 -15 0 -15 -14 0 -14 0 -5 -12 -5 -13 -11
15 -11 15 -10 -15 -10 -15 -9 15 -10 14 -19 -22 -19 -22 -11 0 -10 0 -5 13 -4
12 -22 -25 -22 -24 -9 14 -9 14 -19 -22 -19 -22 -7 0 -7 0 -15 -14 -14 -15 0
-10 0 -11 -10 0 -10 0 0 15 0 15 -10 0 -10 0 0 -10 0 -11 -25 -24 -24 -25 -6
0 -6 0 -34 -35 -35 -34 0 -6 0 -6 -25 -24 -24 -25 -11 0 -10 0 0 -10 0 -10 15
0 15 0 0 -10 0 -10 -11 0 -10 0 -15 -14 -14 -15 0 -7 0 -7 -22 -19 -22 -19 14
-9 14 -9 -24 -22 -25 -22 13 -4 12 -5 0 -10 0 -11 -22 -19 -22 -19 14 -10 15
-9 -15 -10 -15 -10 15 -11 15 -11 -12 -5 -13 -5 0 -14 0 -14 -15 0 -15 0 0 15
0 15 15 0 15 0 0 10 0 10 -11 0 -10 0 -15 -14 -14 -15 0 -6 0 -6 14 -15 15
-14 10 0 11 0 0 -10 0 -10 -14 0 -14 0 -4 -12 -4 -12 -29 29 -29 29 12 4 12 4
0 9 0 10 -35 34 -34 35 -11 0 -10 0 0 10 0 10 11 0 10 0 15 14 14 15 0 6 0 6
-14 15 -15 14 -10 0 -11 0 0 -10 0 -10 15 0 15 0 0 -15 0 -15 -15 0 -15 0 0
14 0 14 -12 5 -13 5 15 11 14 10 -24 21 -24 21 14 10 15 11 -12 5 -13 5 0 13
0 13 13 5 12 5 -15 11 -15 11 15 10 15 10 -15 10 -15 10 15 11 15 11 -12 5
-13 5 0 13 0 13 13 5 12 5 -15 11 -14 10 24 21 24 21 -14 10 -15 11 13 5 12 5
0 14 0 14 15 0 15 0 0 -15 0 -15 -15 0 -15 0 0 -10 0 -10 11 0 10 0 15 14 14
15 0 6 0 6 -14 15 -15 14 -10 0 -11 0 0 10 0 10 10 0 11 0 34 35 35 34 0 10 0
9 -12 4 -12 4 29 29 29 29 4 -12 4 -12 9 0 10 0 34 35 35 34 0 11 0 10 10 0
10 0 0 -11 0 -10 14 -15 15 -14 6 0 6 0 15 14 14 15 0 10 0 11 -10 0 -10 0 0
-15 0 -15 -15 0 -15 0 0 15 0 15 14 0 14 0 5 13 5 12 11 -15 10 -15 18 22 18
23 7 0 6 0 6 -12z"/>
<path d="M513 1115 l-13 -14 0 -6 0 -6 -25 -24 -24 -25 -7 0 -7 0 -18 21 -18
21 -40 -41 -39 -41 -10 0 -10 0 -4 12 -5 13 -19 -19 -19 -19 13 -5 12 -4 0
-10 0 -10 -41 -39 -41 -40 21 -18 21 -18 0 -7 0 -7 -25 -24 -24 -25 -6 0 -6 0
-16 -16 -16 -16 14 -10 14 -10 -12 -5 -13 -5 0 -13 0 -13 13 -5 12 -5 -15 -11
-15 -11 15 -10 15 -10 -15 -10 -15 -10 15 -11 15 -11 -12 -5 -13 -5 0 -13 0
-13 13 -5 12 -5 -14 -10 -14 -10 16 -16 16 -16 6 0 6 0 24 -25 25 -24 0 -7 0
-7 -21 -18 -21 -18 37 -36 36 -37 18 21 18 21 12 0 11 0 0 10 0 10 -15 0 -15
0 0 10 0 10 11 0 10 0 15 14 14 15 0 9 0 10 -12 5 -13 4 25 22 24 22 -14 9
-14 9 22 19 22 19 0 8 0 8 22 19 22 19 -13 9 -14 8 16 16 16 16 6 0 6 0 15 14
14 15 0 6 0 6 45 44 44 45 6 0 6 0 15 14 14 15 0 6 0 6 16 16 16 16 8 -14 9
-13 19 22 19 22 8 0 8 0 19 22 19 22 9 -14 9 -14 22 24 22 25 4 -12 5 -13 10
0 9 0 15 14 14 15 0 10 0 11 10 0 10 0 0 -15 0 -15 10 0 10 0 0 11 0 12 21 18
21 18 -37 36 -36 37 -18 -21 -18 -21 -7 0 -7 0 -24 25 -25 24 0 6 0 6 -16 16
-16 16 -10 -14 -10 -14 -5 13 -5 12 -13 0 -13 0 -5 -12 -5 -13 -11 15 -11 15
-10 -15 -10 -15 -10 15 -10 15 -11 -15 -11 -15 -5 13 -5 12 -13 0 -13 0 -6
-12 -6 -13 -6 13 -6 12 -6 0 -7 -1 -12 -14z m27 -16 l0 -10 14 -15 15 -14 6 0
6 0 15 14 14 15 0 10 0 11 10 0 10 0 0 -15 0 -15 10 0 10 0 0 15 0 15 10 0 10
0 0 -11 0 -10 14 -15 15 -14 6 0 6 0 15 14 14 15 0 10 0 11 10 0 10 0 0 -10 0
-11 35 -34 34 -35 7 0 7 0 18 21 18 21 26 -26 26 -26 -16 -17 -17 -16 -8 13
-8 13 -16 -16 -16 -16 0 -10 0 -11 -15 0 -15 0 0 15 0 15 15 0 15 0 0 10 0 10
-11 0 -10 0 -15 -14 -14 -15 0 -6 0 -6 -16 -16 -16 -16 -8 14 -9 13 -19 -22
-19 -22 -8 0 -8 0 -19 -22 -19 -22 -9 13 -8 14 -26 -26 -26 -26 0 -11 0 -10
-10 0 -10 0 -55 -55 -55 -55 0 -10 0 -10 -10 0 -11 0 -26 -26 -26 -26 14 -8
13 -9 -22 -19 -22 -19 0 -8 0 -8 -22 -19 -22 -19 13 -9 14 -8 -16 -16 -16 -16
-6 0 -6 0 -15 -14 -14 -15 0 -10 0 -11 10 0 10 0 0 15 0 15 15 0 15 0 0 -15 0
-15 -11 0 -10 0 -16 -16 -16 -16 13 -8 13 -8 -16 -17 -17 -16 -26 26 -26 26
21 18 21 18 0 7 0 7 -35 34 -34 35 -11 0 -10 0 0 10 0 10 11 0 10 0 15 14 14
15 0 6 0 6 -14 15 -15 14 -10 0 -11 0 0 10 0 10 15 0 15 0 0 10 0 10 -15 0
-15 0 0 10 0 10 11 0 10 0 15 14 14 15 0 6 0 6 -14 15 -15 14 -10 0 -11 0 0
10 0 10 10 0 11 0 34 35 35 34 0 7 0 7 -21 18 -21 18 41 40 41 39 0 10 0 10
-12 5 -13 4 9 9 9 9 4 -12 5 -13 10 0 10 0 39 41 40 41 18 -21 18 -21 7 0 7 0
34 35 35 34 0 11 0 10 10 0 10 0 0 -11z m50 -4 l0 -15 -15 0 -15 0 0 15 0 15
15 0 15 0 0 -15z m130 0 l0 -15 -15 0 -15 0 0 15 0 15 15 0 15 0 0 -15z m-520
-390 l0 -15 -15 0 -15 0 0 15 0 15 15 0 15 0 0 -15z m0 -130 l0 -15 -15 0 -15
0 0 15 0 15 15 0 15 0 0 -15z"/>
<path d="M490 1040 l-35 -39 -9 -1 -9 0 -18 21 -18 21 -35 -36 -36 -35 0 -11
0 -10 -10 0 -11 0 -35 -36 -36 -35 21 -18 21 -18 0 -7 0 -8 -41 -39 -41 -40
21 -18 21 -18 0 -8 0 -8 -22 -19 -22 -19 14 -10 15 -9 -15 -9 -14 -10 22 -19
22 -19 0 -8 0 -8 -21 -18 -21 -18 37 -36 36 -37 18 21 18 21 12 0 11 0 0 10 0
10 -15 0 -15 0 0 10 0 10 11 0 10 0 15 14 14 15 0 7 0 7 22 19 22 19 -14 9
-14 8 32 30 32 30 0 11 0 11 10 0 10 0 55 55 55 55 0 10 0 10 11 0 11 0 30 32
30 32 8 -14 9 -14 19 22 19 22 7 0 7 0 15 14 14 15 0 10 0 11 10 0 10 0 0 -15
0 -15 10 0 10 0 0 11 0 12 21 18 21 18 -37 36 -36 37 -18 -21 -18 -21 -8 0 -8
0 -19 22 -19 22 -10 -14 -9 -15 -9 15 -10 14 -19 -22 -19 -22 -9 0 -10 0 -14
20 -14 20 -6 0 -5 -1 -35 -39z m60 0 l14 -20 10 0 9 0 19 22 19 22 10 -14 9
-15 9 15 10 14 19 -22 19 -22 8 0 8 0 18 21 18 21 26 -26 26 -26 -16 -17 -17
-16 -8 13 -8 13 -16 -16 -16 -16 0 -10 0 -11 -11 0 -12 0 -19 -22 -19 -22 -9
14 -8 14 -30 -32 -30 -32 -7 0 -6 0 -15 -14 -14 -15 0 -6 0 -6 -45 -44 -44
-45 -6 0 -6 0 -15 -14 -14 -15 0 -6 0 -7 -32 -30 -32 -30 14 -8 14 -9 -22 -19
-22 -19 0 -12 0 -11 -11 0 -10 0 -16 -16 -16 -16 13 -8 13 -8 -16 -17 -17 -16
-26 26 -26 26 21 18 21 18 0 8 0 8 -22 19 -22 19 14 10 15 9 -15 9 -14 10 22
19 22 19 0 8 0 8 -21 18 -21 18 41 40 41 39 0 8 0 7 -21 18 -21 18 26 26 25
25 6 0 6 0 15 14 14 15 0 6 0 6 25 25 26 26 18 -21 18 -21 9 0 9 1 35 39 35
39 5 1 6 0 14 -20z"/>
<path d="M493 1005 l-33 -34 0 -11 0 -10 -15 0 -15 0 0 11 0 10 -15 15 -15 15
-15 -15 -15 -15 0 -6 0 -6 -25 -24 -24 -25 -6 0 -6 0 -15 -15 -15 -15 15 -15
15 -15 10 0 11 0 0 -15 0 -15 -10 0 -11 0 -35 -36 -36 -35 21 -18 21 -18 0 -8
0 -8 -22 -19 -22 -19 14 -10 15 -9 -15 -9 -14 -10 22 -19 22 -19 0 -8 0 -8
-21 -18 -21 -18 16 -17 17 -16 7 6 6 7 -14 9 -14 9 22 19 22 19 0 12 0 11 11
0 10 0 16 16 16 16 -13 8 -14 8 32 30 32 30 0 6 0 7 25 24 24 25 6 0 6 0 34
35 35 34 0 6 0 6 25 24 24 25 7 0 6 0 30 32 30 32 8 -14 8 -13 16 16 16 16 0
10 0 11 11 0 12 0 19 22 19 22 9 -14 9 -14 7 6 6 7 -16 17 -17 16 -18 -21 -18
-21 -8 0 -8 0 -19 22 -19 22 -10 -14 -9 -15 -9 15 -10 14 -19 -22 -19 -22 -9
0 -10 0 -14 20 -14 20 -6 -1 -5 0 -32 -34z m57 -5 l14 -20 10 0 9 0 19 22 19
22 10 -14 9 -15 9 14 9 14 19 -18 18 -18 -13 -5 -12 -4 0 -14 0 -14 -10 0 -10
0 0 15 0 15 -10 0 -10 0 0 -10 0 -11 -25 -24 -24 -25 -6 0 -6 0 -34 -35 -35
-34 0 -6 0 -6 -25 -24 -24 -25 -6 0 -6 0 -34 -35 -35 -34 0 -6 0 -6 -25 -24
-24 -25 -11 0 -10 0 0 -10 0 -10 15 0 15 0 0 -10 0 -10 -14 0 -14 0 -4 -12 -5
-13 -18 18 -18 19 14 9 14 9 -15 9 -14 10 22 19 22 19 0 8 0 8 -21 18 -21 18
26 26 25 25 6 0 6 0 15 14 14 15 0 6 0 6 -14 15 -15 14 -10 0 -11 0 0 10 0 10
10 0 11 0 34 35 35 34 0 11 0 10 10 0 10 0 0 -11 0 -10 14 -15 15 -14 6 0 6 0
15 14 14 15 0 6 0 6 23 24 22 24 5 0 6 1 14 -20z"/>
<path d="M513 985 l-13 -14 0 -6 0 -6 -25 -24 -24 -25 -7 0 -7 0 -18 21 -18
21 -36 -37 -37 -36 21 -18 21 -18 0 -7 0 -7 -25 -24 -24 -25 -6 0 -6 0 -15
-15 -15 -15 15 -15 15 -15 10 0 11 0 0 -15 0 -15 -11 0 -10 0 -16 -15 -15 -16
7 -7 8 -7 4 13 5 12 10 0 9 0 15 14 14 15 0 6 0 6 45 44 44 45 6 0 6 0 15 14
14 15 0 6 0 6 45 44 44 45 6 0 6 0 15 14 14 15 0 9 0 10 13 5 12 4 -7 8 -7 7
-16 -15 -15 -16 0 -10 0 -11 -15 0 -15 0 0 11 0 10 -14 15 -15 14 -3 0 -3 -1
-12 -14z m27 -19 l0 -14 12 -4 13 -5 -53 -51 -52 -51 0 -10 0 -11 -11 0 -10 0
-51 -52 -51 -53 -5 13 -4 12 -14 0 -14 0 0 10 0 10 10 0 11 0 34 35 35 34 0 7
0 7 -21 18 -21 18 27 26 26 27 18 -21 18 -21 7 0 7 0 34 35 35 34 0 11 0 10
10 0 10 0 0 -14z"/>
<path d="M490 910 l-35 -39 -9 -1 -9 0 -18 21 -18 21 -17 -16 -16 -17 21 -18
21 -18 0 -7 0 -8 -41 -39 -41 -40 5 -5 6 -6 45 46 46 45 0 11 0 10 10 0 11 0
44 45 45 44 0 6 0 5 -7 0 -8 -1 -35 -39z m-73 -35 l15 -16 -5 -6 -6 -5 -16 15
-15 16 0 5 0 6 6 0 5 0 16 -15z"/>
<path d="M650 990 l0 -10 10 0 10 0 0 10 0 10 -10 0 -10 0 0 -10z"/>
<path d="M280 620 l0 -10 10 0 10 0 0 10 0 10 -10 0 -10 0 0 -10z"/>
<path d="M861 1024 l-13 -15 7 -7 6 -6 10 14 9 15 9 -15 10 -14 7 6 6 7 -15
16 -16 15 -3 0 -3 -1 -14 -15z"/>
<path d="M252 414 l-13 -14 16 -16 16 -16 7 6 6 7 -14 10 -15 11 13 5 12 5 0
9 0 9 -7 0 -8 -1 -13 -15z"/>
<path d="M980 1014 l0 -5 15 -16 16 -15 6 5 5 6 -15 16 -16 15 -5 0 -6 0 0 -6z"/>
<path d="M260 294 l0 -5 15 -16 16 -15 6 5 5 6 -15 16 -16 15 -5 0 -6 0 0 -6z"/>
<path d="M40 340 l0 -10 15 0 15 0 0 10 0 10 -15 0 -15 0 0 -10z"/>
<path d="M40 290 l0 -10 15 0 15 0 0 -10 0 -10 -15 0 -15 0 0 -10 0 -10 15 0
15 0 0 -10 0 -10 -15 0 -15 0 0 -10 0 -10 15 0 15 0 0 -15 0 -15 -15 0 -15 0
0 -10 0 -10 11 0 10 0 15 14 14 15 0 9 0 10 13 5 12 5 -15 11 -15 11 14 9 14
9 -26 26 -26 26 -11 0 -10 0 0 -10z m50 -40 l0 -10 -10 0 -10 0 0 10 0 10 10
0 10 0 0 -10z m0 -40 l0 -10 -10 0 -10 0 0 10 0 10 10 0 10 0 0 -10z"/>
<path d="M40 120 l0 -10 15 0 15 0 0 10 0 10 -15 0 -15 0 0 -10z"/>
<path d="M1210 316 l0 -14 -12 -5 -13 -5 14 -10 14 -10 -41 -40 -42 -40 0 -7
0 -6 -14 -15 -15 -14 -6 0 -7 0 -40 -42 -40 -41 -10 14 -10 14 -5 -12 -5 -13
-14 0 -14 0 0 -15 0 -15 15 0 15 0 0 15 0 15 10 0 10 0 0 -15 0 -15 10 0 10 0
0 15 0 15 10 0 10 0 0 -15 0 -15 10 0 10 0 0 11 0 10 14 15 15 14 6 0 6 0 15
-14 14 -15 0 -10 0 -11 10 0 10 0 0 15 0 15 10 0 10 0 0 -15 0 -15 10 0 10 0
0 11 0 10 14 15 15 14 10 0 11 0 0 10 0 10 -15 0 -15 0 0 10 0 10 15 0 15 0 0
10 0 10 -11 0 -10 0 -15 14 -14 15 0 6 0 6 14 15 15 14 10 0 11 0 0 10 0 10
-15 0 -15 0 0 10 0 10 15 0 15 0 0 10 0 10 -15 0 -15 0 0 10 0 10 15 0 15 0 0
15 0 15 -15 0 -15 0 0 -14z m0 -84 l0 -8 -20 -14 -20 -14 0 -10 0 -9 22 -19
22 -19 -14 -10 -15 -9 14 -9 14 -9 -17 -18 -18 -17 -9 14 -9 14 -9 -15 -10
-14 -19 22 -19 22 -8 0 -8 0 -18 -22 -19 -21 -6 6 -6 6 25 25 26 26 6 0 6 0
24 25 25 24 0 6 0 6 23 24 22 24 8 0 7 1 0 -8z"/>
<path d="M1132 144 l-23 -24 16 -17 17 -16 9 14 9 14 9 -15 10 -14 8 7 7 8
-14 10 -15 9 14 9 14 9 -16 16 -16 16 -3 -1 -3 0 -23 -25z m38 0 l0 -5 -15
-16 -16 -15 -5 5 -6 6 13 15 14 15 8 1 7 0 0 -6z"/>
<path d="M1210 185 l0 -15 15 0 15 0 0 15 0 15 -15 0 -15 0 0 -15z"/>
<path d="M1080 55 l0 -15 15 0 15 0 0 15 0 15 -15 0 -15 0 0 -15z"/>
<path d="M1210 55 l0 -15 15 0 15 0 0 15 0 15 -15 0 -15 0 0 -15z"/>
</g>
</svg>
