<?xml version="1.0" standalone="no"?>
<!DOCTYPE svg PUBLIC "-//W3C//DTD SVG 20010904//EN"
 "http://www.w3.org/TR/2001/REC-SVG-20010904/DTD/svg10.dtd">
<svg version="1.0" xmlns="http://www.w3.org/2000/svg"
 width="468pt" height="468pt" viewBox="0 0 468 468"
 preserveAspectRatio="xMidYMid meet">
<metadata>
Created by potrace 1.8, written by Peter Selinger 2001-2007
</metadata>
<g transform="translate(0,468) scale(0.365625,-0.365625)"
fill="#000000" stroke="none">
<path d="M30 1265 l0 -15 -15 0 -15 0 0 -610 0 -610 15 0 15 0 0 -15 0 -15
610 0 610 0 0 15 0 15 15 0 15 0 0 610 0 610 -15 0 -15 0 0 15 0 15 -610 0
-610 0 0 -15z m660 -345 l0 -10 15 0 15 0 0 -15 0 -15 15 0 15 0 0 -11 0 -10
14 -15 15 -14 10 0 11 0 0 -15 0 -15 15 0 15 0 0 -25 0 -25 -26 0 -25 0 -15
14 -14 15 0 10 0 11 -15 0 -15 0 0 15 0 15 -14 0 -14 0 -6 13 -6 12 -6 -12 -6
-13 -14 0 -14 0 0 -15 0 -15 -15 0 -15 0 0 -11 0 -10 -14 -15 -15 -14 -10 0
-11 0 0 -15 0 -15 -15 0 -15 0 0 15 0 15 -10 0 -10 0 0 25 0 25 10 0 10 0 0
15 0 15 15 0 15 0 0 10 0 10 15 0 15 0 0 15 0 15 10 0 10 0 0 15 0 15 15 0 15
0 0 10 0 10 25 0 25 0 0 -10z m-180 -215 l0 -15 10 0 10 0 0 -25 0 -25 -160 0
-160 0 0 25 0 25 15 0 15 0 0 15 0 15 135 0 135 0 0 -15z m160 0 l0 -15 10 0
10 0 0 -25 0 -25 -65 0 -65 0 0 25 0 25 15 0 15 0 0 15 0 15 40 0 40 0 0 -15z
m260 -25 l0 -10 15 0 15 0 0 -15 0 -15 15 0 15 0 0 -11 0 -10 14 -15 15 -14
10 0 11 0 0 -15 0 -15 15 0 15 0 0 -25 0 -25 -26 0 -25 0 -15 14 -14 15 0 10
0 11 -15 0 -15 0 0 15 0 15 -14 0 -14 0 -6 13 -6 12 -6 -12 -6 -13 -14 0 -14
0 0 -15 0 -15 -15 0 -15 0 0 -11 0 -10 -14 -15 -15 -14 -10 0 -11 0 0 -15 0
-15 -15 0 -15 0 0 15 0 15 -10 0 -10 0 0 25 0 25 10 0 10 0 0 15 0 15 15 0 15
0 0 10 0 10 15 0 15 0 0 15 0 15 10 0 10 0 0 15 0 15 15 0 15 0 0 10 0 10 25
0 25 0 0 -10z m-180 -215 l0 -15 10 0 10 0 0 -25 0 -25 -160 0 -160 0 0 25 0
25 15 0 15 0 0 15 0 15 135 0 135 0 0 -15z m160 0 l0 -15 10 0 10 0 0 -25 0
-25 -65 0 -65 0 0 25 0 25 15 0 15 0 0 15 0 15 40 0 40 0 0 -15z"/>
</g>
</svg>
