<?xml version="1.0" standalone="no"?>
<!DOCTYPE svg PUBLIC "-//W3C//DTD SVG 20010904//EN"
 "http://www.w3.org/TR/2001/REC-SVG-20010904/DTD/svg10.dtd">
<svg version="1.0" xmlns="http://www.w3.org/2000/svg"
 width="468pt" height="468pt" viewBox="0 0 468 468"
 preserveAspectRatio="xMidYMid meet">
<metadata>
Created by potrace 1.8, written by Peter Selinger 2001-2007
</metadata>
<g transform="translate(0,468) scale(0.365625,-0.365625)"
fill="#000000" stroke="none">
<path d="M0 640 l0 -640 640 0 640 0 0 640 0 640 -640 0 -640 0 0 -640z m600
585 l0 -15 -15 0 -15 0 0 -20 0 -20 -20 0 -20 0 0 -50 0 -50 -50 0 -50 0 0 15
0 15 -20 0 -20 0 0 20 0 20 -70 0 -70 0 0 -20 0 -20 -20 0 -20 0 0 -15 0 -15
-15 0 -15 0 0 -20 0 -20 -20 0 -20 0 0 -105 0 -105 -15 0 -15 0 0 -35 0 -35
15 0 15 0 0 -20 0 -20 35 0 35 0 0 20 0 20 -35 0 -35 0 0 35 0 35 20 0 20 0 0
15 0 15 15 0 15 0 0 20 0 20 20 0 20 0 0 15 0 15 55 0 55 0 0 -15 0 -15 35 0
35 0 0 -90 0 -90 -20 0 -20 0 0 -15 0 -15 -35 0 -35 0 0 -20 0 -20 35 0 35 0
0 20 0 20 20 0 20 0 0 15 0 15 15 0 15 0 0 55 0 55 110 0 110 0 0 -20 0 -20
35 0 35 0 0 -15 0 -15 15 0 15 0 0 -20 0 -20 20 0 20 0 0 -70 0 -70 15 0 15 0
0 15 0 15 20 0 20 0 0 20 0 20 35 0 35 0 0 -20 0 -20 20 0 20 0 0 -50 0 -50
-20 0 -20 0 0 -20 0 -20 -35 0 -35 0 0 -15 0 -15 35 0 35 0 0 15 0 15 20 0 20
0 0 20 0 20 15 0 15 0 0 50 0 50 -15 0 -15 0 0 40 0 40 15 0 15 0 0 120 0 120
20 0 20 0 0 20 0 20 35 0 35 0 0 -20 0 -20 -20 0 -20 0 0 -15 0 -15 20 0 20 0
0 -20 0 -20 15 0 15 0 0 -15 0 -15 35 0 35 0 0 -270 0 -270 -15 0 -15 0 0 -15
0 -15 -145 0 -145 0 0 35 0 35 55 0 55 0 0 20 0 20 -90 0 -90 0 0 15 0 15 20
0 20 0 0 20 0 20 -35 0 -35 0 0 -20 0 -20 -35 0 -35 0 0 -15 0 -15 -55 0 -55
0 0 -20 0 -20 -70 0 -70 0 0 20 0 20 -20 0 -20 0 0 35 0 35 35 0 35 0 0 15 0
15 35 0 35 0 0 20 0 20 20 0 20 0 0 15 0 15 -20 0 -20 0 0 -15 0 -15 -35 0
-35 0 0 -20 0 -20 -50 0 -50 0 0 35 0 35 15 0 15 0 0 20 0 20 20 0 20 0 0 15
0 15 -20 0 -20 0 0 -15 0 -15 -125 0 -125 0 0 15 0 15 55 0 55 0 0 20 0 20
-55 0 -55 0 0 -20 0 -20 -15 0 -15 0 0 -15 0 -15 15 0 15 0 0 -20 0 -20 90 0
90 0 0 -50 0 -50 20 0 20 0 0 -55 0 -55 -55 0 -55 0 0 -20 0 -20 -90 0 -90 0
0 -15 0 -15 -50 0 -50 0 0 495 0 495 280 0 280 0 0 -15z m220 0 l0 -15 -20 0
-20 0 0 15 0 15 20 0 20 0 0 -15z m420 -125 l0 -140 -15 0 -15 0 0 35 0 35
-20 0 -20 0 0 20 0 20 -35 0 -35 0 0 15 0 15 -70 0 -70 0 0 -15 0 -15 -70 0
-70 0 0 15 0 15 -20 0 -20 0 0 35 0 35 35 0 35 0 0 -15 0 -15 35 0 35 0 0 50
0 50 160 0 160 0 0 -140z m-350 90 l0 -20 -20 0 -20 0 0 20 0 20 20 0 20 0 0
-20z m350 -305 l0 -35 -35 0 -35 0 0 35 0 35 35 0 35 0 0 -35z m-390 -600 l0
-35 20 0 20 0 0 -20 0 -20 15 0 15 0 0 -15 0 -15 20 0 20 0 0 -35 0 -35 20 0
20 0 0 -20 0 -20 -40 0 -40 0 0 20 0 20 -35 0 -35 0 0 15 0 15 -15 0 -15 0 0
20 0 20 -20 0 -20 0 0 15 0 15 -15 0 -15 0 0 35 0 35 -20 0 -20 0 0 20 0 20
70 0 70 0 0 -35z m-390 -20 l0 -15 -35 0 -35 0 0 -20 0 -20 -105 0 -105 0 0
20 0 20 70 0 70 0 0 15 0 15 70 0 70 0 0 -15z m140 -20 l0 -35 -15 0 -15 0 0
-35 0 -35 -20 0 -20 0 0 -15 0 -15 -35 0 -35 0 0 50 0 50 20 0 20 0 0 35 0 35
50 0 50 0 0 -35z"/>
<path d="M180 800 l0 -20 15 0 15 0 0 -15 0 -15 20 0 20 0 0 35 0 35 -35 0
-35 0 0 -20z"/>
<path d="M530 765 l0 -15 -15 0 -15 0 0 -20 0 -20 15 0 15 0 0 -15 0 -15 55 0
55 0 0 15 0 15 20 0 20 0 0 20 0 20 -20 0 -20 0 0 15 0 15 -55 0 -55 0 0 -15z
m40 -35 l0 -20 -20 0 -20 0 0 20 0 20 20 0 20 0 0 -20z m70 0 l0 -20 -20 0
-20 0 0 20 0 20 20 0 20 0 0 -20z"/>
<path d="M890 535 l0 -35 -20 0 -20 0 0 -20 0 -20 20 0 20 0 0 20 0 20 35 0
35 0 0 35 0 35 -35 0 -35 0 0 -35z"/>
<path d="M1030 300 l0 -20 90 0 90 0 0 20 0 20 -90 0 -90 0 0 -20z"/>
</g>
</svg>
