<?xml version="1.0" standalone="no"?>
<!DOCTYPE svg PUBLIC "-//W3C//DTD SVG 20010904//EN"
 "http://www.w3.org/TR/2001/REC-SVG-20010904/DTD/svg10.dtd">
<svg version="1.0" xmlns="http://www.w3.org/2000/svg"
 width="468pt" height="468pt" viewBox="0 0 468 468"
 preserveAspectRatio="xMidYMid meet">
<metadata>
Created by potrace 1.8, written by Peter Selinger 2001-2007
</metadata>
<g transform="translate(0,468) scale(0.365625,-0.365625)"
fill="#000000" stroke="none">
<path d="M140 910 l0 -350 90 0 90 0 0 -40 0 -40 310 0 310 0 0 40 0 40 90 0
90 0 0 350 0 350 -490 0 -490 0 0 -350z m43 318 l5 -13 11 15 11 15 10 -15 10
-15 10 15 10 15 10 -15 10 -15 10 15 10 15 10 -15 10 -15 10 15 10 15 10 -15
10 -15 10 15 10 15 10 -15 10 -15 10 15 10 15 10 -15 10 -15 10 15 10 15 10
-15 10 -15 10 15 10 15 10 -15 10 -15 10 15 10 15 10 -15 10 -15 10 15 10 15
10 -15 10 -15 10 15 10 15 10 -15 10 -15 10 15 10 15 10 -15 10 -15 10 15 10
15 10 -15 10 -15 10 15 10 15 10 -15 10 -15 10 15 10 15 10 -15 10 -15 10 15
10 15 10 -15 10 -15 10 15 10 15 10 -15 10 -15 10 15 10 15 10 -15 10 -15 10
15 10 15 10 -15 10 -15 10 15 10 15 10 -15 10 -15 10 15 10 15 10 -15 10 -15
10 15 10 15 10 -15 10 -15 9 15 10 14 8 -7 7 -8 -14 -10 -15 -9 15 -10 15 -10
-15 -10 -15 -10 15 -10 15 -10 -15 -10 -15 -10 15 -10 15 -10 -15 -10 -15 -10
15 -10 15 -10 -15 -10 -15 -10 15 -10 15 -10 -15 -10 -15 -10 15 -10 15 -10
-15 -10 -15 -10 15 -10 15 -10 -15 -10 -15 -10 15 -10 15 -10 -15 -10 -15 -10
15 -10 15 -10 -15 -10 -15 -10 15 -10 15 -10 -15 -10 -15 -10 15 -10 15 -10
-15 -10 -15 -10 15 -10 15 -10 -15 -10 -15 -10 15 -10 15 -10 -15 -10 -15 -10
15 -10 15 -10 -15 -10 -15 -10 15 -10 15 -10 -15 -10 -15 -10 15 -9 14 -10 -7
-8 -8 -7 -10 14 -9 15 -10 -15 -10 -15 -10 15 -10 15 -10 -15 -10 -15 -10 15
-10 15 -10 -15 -10 -15 -10 15 -10 15 -10 -15 -10 -15 -10 15 -10 15 -10 -15
-10 -15 -10 15 -10 15 -10 -15 -10 -15 -10 15 -10 15 -10 -15 -10 -15 -10 15
-10 15 -10 -15 -10 -15 -10 15 -10 15 -10 -15 -10 -15 -10 15 -10 15 -10 -15
-10 -15 -10 15 -10 15 -10 -15 -10 -15 -10 15 -10 15 -10 -15 -10 -15 -10 15
-10 15 -10 -15 -10 -15 -10 15 -10 15 -10 -15 -10 -15 -10 15 -10 15 -10 -15
-10 -15 -10 15 -10 15 -10 -15 -10 -15 -10 15 -10 15 -10 -15 -10 -15 -10 15
-10 15 -10 -15 -10 -15 -10 15 -10 15 -10 -15 -10 -15 -10 15 -10 15 -10 -15
-10 -15 -10 15 -10 15 -10 -15 -10 -15 -10 15 -10 15 -10 -15 -10 -15 -10 15
-10 15 -9 -15 -10 -14 -8 7 -7 8 14 10 15 9 -15 10 -15 10 15 10 15 10 -15 10
-15 10 15 10 15 10 -15 10 -15 10 15 10 15 10 -15 10 -15 10 15 10 15 10 -15
10 -15 10 15 10 15 10 -15 10 -15 10 15 10 15 10 -15 10 -15 10 15 10 15 10
-15 10 -15 10 15 10 15 10 -15 10 -15 10 15 10 15 10 -15 10 -15 10 15 10 15
10 -15 10 -15 10 15 10 15 10 -15 10 -15 10 15 10 15 10 -15 10 -15 10 15 10
15 10 -15 10 -15 10 15 10 15 10 -15 10 -15 10 15 11 15 11 -12 5 -13 5 0 9 0
9 9 0 9 0 5 -12z m620 -680 l5 -13 11 15 11 15 10 -15 10 -15 9 15 10 14 8 -7
7 -8 -14 -10 -15 -9 15 -9 14 -10 -7 -8 -8 -7 -10 14 -9 15 -10 -15 -10 -15
-10 15 -10 15 -9 -15 -10 -14 -8 7 -7 8 14 10 15 11 -12 5 -13 5 0 9 0 9 9 0
9 0 5 -12z"/>
<path d="M191 1204 l-14 -16 14 -9 14 -9 -15 -10 -15 -10 15 -10 15 -10 -15
-10 -15 -10 15 -10 15 -10 -15 -10 -15 -10 15 -10 15 -10 -15 -10 -15 -10 15
-10 15 -10 -15 -10 -15 -10 15 -10 15 -10 -15 -10 -15 -10 15 -10 15 -10 -15
-10 -15 -10 15 -10 15 -10 -15 -10 -15 -10 15 -10 15 -10 -15 -10 -15 -10 15
-10 15 -10 -15 -10 -15 -10 15 -10 15 -10 -15 -10 -15 -10 15 -10 15 -10 -15
-10 -15 -10 15 -10 15 -10 -15 -10 -15 -10 15 -10 15 -10 -14 -9 -14 -9 17
-18 18 -17 9 14 9 14 10 -15 10 -15 10 15 10 15 10 -15 10 -15 10 15 10 15 10
-15 10 -15 10 15 10 15 10 -15 10 -15 10 15 10 15 10 -15 10 -15 10 15 10 15
10 -15 10 -15 10 15 10 15 10 -15 10 -15 10 15 10 15 10 -15 10 -15 10 15 10
15 10 -15 10 -15 10 15 10 15 10 -15 10 -15 10 15 10 15 10 -15 10 -15 10 15
10 15 10 -15 10 -15 10 15 10 15 10 -15 10 -15 10 15 10 15 10 -15 10 -15 10
15 10 15 10 -15 10 -15 10 15 10 15 10 -15 10 -15 10 15 10 15 10 -15 10 -15
10 15 10 15 10 -15 10 -15 10 15 10 15 10 -15 10 -15 10 15 10 15 10 -15 10
-15 10 15 10 15 9 -14 9 -14 18 17 17 18 -14 9 -14 9 15 10 15 10 -15 10 -15
10 15 10 15 10 -15 10 -15 10 15 10 15 10 -15 10 -15 10 15 10 15 10 -15 10
-15 10 15 10 15 10 -15 10 -15 10 15 10 15 10 -15 10 -15 10 15 10 15 10 -15
10 -15 10 15 10 15 10 -15 10 -15 10 15 10 15 10 -15 10 -15 10 15 10 15 10
-15 10 -15 10 15 10 15 10 -15 10 -15 10 15 10 15 10 -15 10 -15 10 15 10 15
10 -15 10 -15 10 14 9 14 9 -17 18 -18 17 -9 -14 -9 -14 -10 15 -10 15 -10
-15 -10 -15 -10 15 -10 15 -10 -15 -10 -15 -10 15 -10 15 -10 -15 -10 -15 -10
15 -10 15 -10 -15 -10 -15 -10 15 -10 15 -10 -15 -10 -15 -10 15 -10 15 -10
-15 -10 -15 -10 15 -10 15 -10 -15 -10 -15 -10 15 -10 15 -10 -15 -10 -15 -10
15 -10 15 -10 -15 -10 -15 -10 15 -10 15 -10 -15 -10 -15 -10 15 -10 15 -10
-15 -10 -15 -10 15 -10 15 -10 -15 -10 -15 -10 15 -10 15 -10 -15 -10 -15 -10
15 -10 15 -10 -15 -10 -15 -10 15 -10 15 -10 -15 -10 -15 -10 15 -10 15 -10
-15 -10 -15 -10 15 -10 15 -10 -15 -10 -15 -10 15 -10 15 -10 -15 -10 -15 -10
15 -10 15 -10 -15 -10 -15 -10 15 -10 15 -11 -15 -11 -15 -5 13 -5 12 -6 0 -7
-1 -14 -15z m29 -14 l0 -10 409 0 409 0 5 13 4 12 9 -9 9 -9 -12 -4 -13 -5 0
-268 0 -268 13 -5 12 -4 -9 -9 -9 -9 -4 13 -5 12 -408 0 -408 0 -5 -12 -4 -13
-9 9 -9 9 13 4 12 5 0 269 0 269 -10 0 -10 0 0 10 0 10 10 0 10 0 0 -10z"/>
<path d="M253 1145 l-13 -14 0 -221 0 -221 14 -15 15 -14 361 0 361 0 15 14
14 15 0 221 0 221 -14 15 -15 14 -363 0 -363 -1 -12 -14z m307 -85 l0 -60 200
0 200 0 0 -140 0 -140 -230 0 -230 0 0 80 0 80 -110 0 -110 0 0 120 0 120 140
0 140 0 0 -60z m-220 -330 l0 -30 -30 0 -30 0 0 30 0 30 30 0 30 0 0 -30z m80
0 l0 -30 -30 0 -30 0 0 30 0 30 30 0 30 0 0 -30z"/>
<path d="M300 1090 l0 -10 120 0 120 0 0 10 0 10 -120 0 -120 0 0 -10z"/>
<path d="M300 980 l0 -80 120 0 120 0 0 80 0 80 -120 0 -120 0 0 -80z"/>
<path d="M560 970 l0 -10 190 0 190 0 0 10 0 10 -190 0 -190 0 0 -10z"/>
<path d="M560 931 l0 -9 13 -5 12 -4 -34 -32 -35 -33 15 -9 14 -9 -15 -10 -15
-10 15 -10 15 -10 -14 -9 -14 -9 17 -18 18 -17 9 14 9 14 10 -15 10 -15 10 15
10 15 10 -15 10 -15 10 15 10 15 10 -15 10 -15 10 15 10 15 10 -15 10 -15 10
15 10 15 10 -15 10 -15 10 15 10 15 10 -15 10 -15 10 15 10 15 10 -15 10 -15
10 15 10 15 10 -15 10 -15 10 15 10 15 9 -14 9 -14 18 17 17 18 -14 9 -14 9
15 10 15 10 -15 10 -15 10 15 10 15 10 -15 10 -15 10 15 10 15 10 -15 10 -15
10 15 9 14 10 -7 8 -8 7 -10 -14 -9 -15 -10 15 -10 15 -10 -15 -10 -15 -10 15
-10 15 -10 -15 -10 -15 -10 15 -10 15 -10 -15 -10 -15 -10 15 -10 15 -10 -15
-10 -15 -10 15 -10 15 -10 -15 -10 -15 -10 15 -10 15 -10 -15 -10 -15 -10 15
-10 15 -10 -15 -10 -15 -10 15 -10 15 -11 -15 -11 -15 -5 13 -5 12 -9 0 -9 0
0 -9z m63 -23 l5 -13 11 15 11 15 10 -15 10 -15 10 15 10 15 10 -15 10 -15 10
15 10 15 10 -15 10 -15 10 15 10 15 10 -15 10 -15 10 15 10 15 10 -15 10 -15
10 15 10 15 10 -15 10 -15 9 14 9 14 18 -17 17 -18 -14 -9 -14 -9 15 -10 15
-10 -15 -10 -15 -10 15 -10 15 -10 -15 -10 -15 -10 15 -9 14 -10 -7 -8 -8 -7
-10 14 -9 15 -10 -15 -10 -15 -10 15 -10 15 -10 -15 -10 -15 -10 15 -10 15
-10 -15 -10 -15 -10 15 -10 15 -10 -15 -10 -15 -10 15 -10 15 -10 -15 -10 -15
-10 15 -10 15 -10 -15 -10 -15 -10 15 -10 15 -10 -15 -10 -15 -10 15 -10 15
-10 -15 -10 -15 -10 15 -10 15 -9 -15 -10 -14 -8 7 -7 8 14 10 15 9 -15 10
-15 10 15 10 15 10 -14 9 -14 9 34 35 34 36 7 0 6 1 5 -12z"/>
<path d="M581 873 l-24 -25 14 -9 14 -9 -14 -9 -14 -9 17 -18 18 -17 9 14 9
14 10 -15 10 -15 10 15 10 15 10 -15 10 -15 10 15 10 15 10 -15 10 -15 10 15
10 15 10 -15 10 -15 10 15 10 15 10 -15 10 -15 10 15 10 15 10 -15 10 -15 10
15 10 15 9 -14 9 -14 18 17 17 18 -14 9 -14 9 15 10 15 10 -15 10 -15 10 15 9
14 10 -7 8 -8 7 -10 -14 -9 -15 -10 15 -10 15 -10 -15 -10 -15 -10 15 -10 15
-10 -15 -10 -15 -10 15 -10 15 -10 -15 -10 -15 -10 15 -10 15 -10 -15 -10 -15
-10 15 -10 15 -10 -15 -10 -15 -10 15 -10 15 -11 -15 -11 -15 -5 13 -5 12 -6
-1 -7 0 -24 -26z m42 -5 l5 -13 11 15 11 15 10 -15 10 -15 10 15 10 15 10 -15
10 -15 10 15 10 15 10 -15 10 -15 10 15 10 15 10 -15 10 -15 10 15 10 15 10
-15 10 -15 9 14 9 14 18 -17 17 -18 -14 -9 -14 -9 15 -9 14 -10 -7 -8 -8 -7
-10 14 -9 15 -10 -15 -10 -15 -10 15 -10 15 -10 -15 -10 -15 -10 15 -10 15
-10 -15 -10 -15 -10 15 -10 15 -10 -15 -10 -15 -10 15 -10 15 -10 -15 -10 -15
-10 15 -10 15 -10 -15 -10 -15 -10 15 -10 15 -9 -15 -10 -14 -8 7 -7 8 14 10
15 9 -14 9 -14 9 14 16 14 15 7 1 6 0 5 -12z"/>
<path d="M600 854 l0 -5 16 -16 16 -16 9 14 9 14 10 -15 10 -15 10 15 10 15
10 -15 10 -15 10 15 10 15 10 -15 10 -15 10 15 10 15 10 -15 10 -15 10 15 10
15 9 -14 9 -14 17 17 17 17 -6 7 -7 6 -10 -14 -9 -15 -10 15 -10 15 -10 -15
-10 -15 -10 15 -10 15 -10 -15 -10 -15 -10 15 -10 15 -10 -15 -10 -15 -10 15
-10 15 -10 -15 -10 -15 -10 15 -10 15 -11 -15 -11 -15 -5 13 -5 12 -9 0 -9 0
0 -6z"/>
<path d="M300 730 l0 -10 10 0 10 0 0 10 0 10 -10 0 -10 0 0 -10z"/>
<path d="M380 730 l0 -10 10 0 10 0 0 10 0 10 -10 0 -10 0 0 -10z"/>
<path d="M820 530 l0 -10 10 0 10 0 0 10 0 10 -10 0 -10 0 0 -10z"/>
<path d="M133 445 l-13 -14 0 -16 0 -15 -10 0 -10 0 0 -20 0 -20 -10 0 -10 0
0 -16 0 -16 -30 -28 -30 -28 0 -26 0 -26 6 0 5 0 16 16 16 16 -13 8 -13 8 47
47 47 47 7 -7 6 -6 -13 -9 -14 -8 17 -18 18 -17 9 14 9 14 10 -15 10 -15 10
15 10 15 10 -15 10 -15 10 15 10 15 9 -14 9 -14 18 17 17 18 -14 8 -13 9 8 8
9 8 4 -12 5 -13 9 0 9 0 0 30 0 30 10 0 10 0 0 -29 0 -29 -12 -4 -13 -5 18
-18 19 -18 10 14 10 14 5 -12 5 -13 9 0 9 0 0 29 0 29 13 5 12 5 -15 11 -14
10 7 8 8 7 9 -13 8 -14 18 17 17 18 -14 8 -13 9 7 8 8 7 10 -14 9 -15 9 15 10
14 8 -7 7 -8 -14 -10 -15 -9 15 -9 14 -10 -7 -8 -8 -7 -9 13 -8 14 -18 -17
-17 -18 14 -8 13 -9 -8 -8 -9 -8 -4 13 -5 12 -9 0 -9 0 0 -30 0 -30 9 0 9 0 5
13 5 12 10 -14 10 -14 18 17 17 18 -14 8 -13 9 8 8 9 8 4 -12 5 -13 9 0 9 0 0
30 0 30 10 0 10 0 0 -29 0 -29 -12 -4 -13 -5 18 -18 19 -18 10 14 10 14 5 -12
5 -13 9 0 9 0 0 30 0 30 10 0 10 0 0 -30 0 -30 6 0 5 0 16 16 16 16 -14 8 -13
9 8 8 9 8 4 -12 5 -13 9 0 9 0 0 30 0 30 10 0 10 0 0 -29 0 -29 -12 -4 -13 -5
18 -18 19 -18 10 14 10 14 5 -12 5 -13 9 0 9 0 0 29 0 29 13 5 12 5 -15 11
-14 10 7 8 8 7 9 -13 8 -14 18 17 17 18 -14 8 -13 9 7 8 8 7 10 -14 9 -15 9
15 10 14 8 -7 7 -8 -14 -10 -15 -9 15 -9 14 -10 -7 -8 -8 -7 -9 13 -8 14 -18
-17 -17 -18 14 -8 13 -9 -8 -8 -9 -8 -4 13 -5 12 -9 0 -9 0 0 -30 0 -30 9 0 9
0 5 13 5 12 10 -14 10 -14 18 17 17 18 -14 8 -13 9 8 8 9 8 4 -12 5 -13 9 0 9
0 0 30 0 30 10 0 10 0 0 -29 0 -29 -12 -4 -13 -5 18 -18 19 -18 10 14 10 14 5
-12 5 -13 9 0 9 0 0 29 0 29 13 5 12 5 -15 11 -14 10 7 8 8 7 9 -13 8 -14 18
17 17 18 -14 8 -13 9 7 8 8 7 10 -14 9 -15 9 15 10 14 8 -7 7 -8 -14 -10 -15
-9 15 -9 14 -10 -7 -8 -8 -7 -9 13 -8 14 -18 -17 -17 -18 14 -8 13 -9 -8 -8
-9 -8 -4 13 -5 12 -9 0 -9 0 0 -30 0 -30 9 0 9 0 5 13 5 12 10 -14 10 -14 18
17 17 18 -14 8 -13 9 7 8 8 7 9 -13 8 -14 18 17 17 18 -14 9 -14 9 15 10 15
10 -15 9 -14 10 6 7 7 6 27 -27 27 -27 -13 -8 -13 -8 53 -52 53 -52 -13 -8
-13 -8 16 -16 16 -16 5 0 6 0 0 26 0 26 -30 28 -30 28 0 16 0 16 -10 0 -10 0
0 20 0 20 -10 0 -10 0 0 16 0 15 -14 15 -15 14 -483 0 -483 -1 -12 -14z m47
-14 l0 -9 -12 -5 -13 -5 15 -11 14 -10 -7 -8 -8 -7 -10 14 -9 15 -9 -15 -10
-14 -6 6 -7 7 23 25 24 25 8 0 7 1 0 -9z m40 -1 l0 -10 -10 0 -10 0 0 10 0 10
10 0 10 0 0 -10z m43 -2 l5 -13 11 15 10 14 8 -7 7 -8 -14 -10 -15 -9 15 -9
14 -10 -7 -8 -8 -7 -9 13 -8 14 -18 -17 -17 -18 14 -8 13 -9 -7 -8 -8 -7 -10
14 -9 15 -9 -15 -10 -14 -8 7 -7 8 14 10 15 9 -15 9 -14 10 7 8 8 7 9 -13 8
-14 19 18 18 18 -13 5 -12 4 0 9 0 9 9 0 9 0 5 -12z m77 2 l0 -10 -10 0 -10 0
0 10 0 10 10 0 10 0 0 -10z m40 -20 l0 -30 -10 0 -10 0 0 30 0 30 10 0 10 0 0
-30z m40 20 l0 -10 -10 0 -10 0 0 10 0 10 10 0 10 0 0 -10z m120 0 l0 -10 -10
0 -10 0 0 10 0 10 10 0 10 0 0 -10z m40 -20 l0 -30 -10 0 -10 0 0 30 0 30 10
0 10 0 0 -30z m43 18 l5 -13 11 15 10 14 8 -7 7 -8 -14 -10 -15 -9 15 -9 14
-10 -7 -8 -8 -7 -10 14 -9 15 -9 -15 -10 -14 -8 7 -7 8 14 10 15 11 -12 5 -13
5 0 9 0 9 9 0 9 0 5 -12z m77 2 l0 -10 -10 0 -10 0 0 10 0 10 10 0 10 0 0 -10z
m40 -20 l0 -30 -10 0 -10 0 0 30 0 30 10 0 10 0 0 -30z m40 20 l0 -10 -10 0
-10 0 0 10 0 10 10 0 10 0 0 -10z m120 0 l0 -10 -10 0 -10 0 0 10 0 10 10 0
10 0 0 -10z m40 -20 l0 -30 -10 0 -10 0 0 30 0 30 10 0 10 0 0 -30z m40 20 l0
-10 -10 0 -10 0 0 10 0 10 10 0 10 0 0 -10z m-800 -80 l0 -10 -10 0 -10 0 0
10 0 10 10 0 10 0 0 -10z m200 0 l0 -10 -10 0 -10 0 0 10 0 10 10 0 10 0 0
-10z m200 0 l0 -10 -10 0 -10 0 0 10 0 10 10 0 10 0 0 -10z m160 0 l0 -10 -10
0 -10 0 0 10 0 10 10 0 10 0 0 -10z m200 0 l0 -10 -10 0 -10 0 0 10 0 10 10 0
10 0 0 -10z"/>
<path d="M1100 390 l0 -10 10 0 10 0 0 10 0 10 -10 0 -10 0 0 -10z"/>
<path d="M1067 318 l-39 -42 -9 15 -9 14 -10 -15 -10 -15 -10 15 -10 15 -10
-15 -10 -15 -10 15 -10 15 -9 -15 -10 -14 -20 23 -21 24 -21 -24 -20 -23 -10
14 -9 15 -10 -15 -10 -15 -10 15 -10 15 -10 -15 -10 -15 -10 15 -10 15 -9 -15
-10 -14 -20 23 -21 24 -21 -24 -20 -23 -10 14 -9 15 -10 -15 -10 -15 -10 15
-10 15 -9 -15 -10 -14 -20 23 -21 24 -21 -24 -20 -23 -10 14 -9 15 -10 -15
-10 -15 -10 15 -10 15 -10 -15 -10 -15 -10 15 -10 15 -9 -15 -10 -14 -20 23
-21 24 -21 -24 -20 -23 -10 14 -9 15 -10 -15 -10 -15 -10 15 -10 15 -10 -15
-10 -15 -10 15 -10 15 -9 -15 -10 -14 -20 23 -20 23 -26 -26 -26 -26 16 -17
17 -16 9 14 9 14 10 -15 10 -15 10 15 10 15 10 -15 10 -15 10 15 10 15 10 -15
10 -15 10 15 10 15 10 -15 10 -15 10 15 10 15 10 -15 10 -15 10 15 10 15 10
-15 10 -15 10 15 10 15 10 -15 10 -15 10 15 10 15 10 -15 10 -15 10 15 10 15
10 -15 10 -15 10 15 10 15 10 -15 10 -15 10 15 10 15 10 -15 10 -15 10 15 10
15 10 -15 10 -15 10 15 10 15 10 -15 10 -15 10 15 10 15 10 -15 10 -15 10 15
10 15 10 -15 10 -15 10 15 10 15 10 -15 10 -15 10 15 10 15 10 -15 10 -15 10
15 10 15 10 -15 10 -15 10 15 10 15 10 -15 10 -15 10 15 10 15 10 -15 10 -15
10 15 10 15 10 -15 10 -15 10 15 10 15 10 -15 10 -15 10 15 10 15 10 -15 10
-15 10 15 10 15 10 -15 10 -15 10 15 10 15 10 -15 10 -15 10 15 10 15 10 -15
10 -15 10 15 10 15 9 -14 9 -14 17 16 16 17 -45 45 -45 45 -3 -1 -3 0 -38 -41z
m36 -10 l5 -13 10 14 10 14 17 -17 17 -17 -6 -7 -7 -6 -10 14 -9 15 -10 -15
-10 -15 -10 15 -10 15 -9 -15 -10 -14 -6 6 -7 7 13 15 14 15 7 1 6 0 5 -12z
m-983 -18 l0 -10 -10 0 -10 0 0 10 0 10 10 0 10 0 0 -10z m200 0 l0 -10 -10 0
-10 0 0 10 0 10 10 0 10 0 0 -10z m200 0 l0 -10 -10 0 -10 0 0 10 0 10 10 0
10 0 0 -10z m160 0 l0 -10 -10 0 -10 0 0 10 0 10 10 0 10 0 0 -10z m200 0 l0
-10 -10 0 -10 0 0 10 0 10 10 0 10 0 0 -10z"/>
<path d="M50 220 l-14 -20 -18 0 -18 0 0 -100 0 -100 640 0 640 0 0 100 0 100
-26 0 -27 0 -19 22 -19 22 -10 -14 -9 -15 -10 15 -10 15 -10 -15 -10 -15 -10
15 -10 15 -10 -15 -10 -15 -10 15 -10 15 -10 -15 -10 -15 -10 15 -10 15 -10
-15 -10 -15 -10 15 -10 15 -10 -15 -10 -15 -10 15 -10 15 -10 -15 -10 -15 -10
15 -10 15 -10 -15 -10 -15 -10 15 -10 15 -10 -15 -10 -15 -10 15 -10 15 -10
-15 -10 -15 -10 15 -10 15 -10 -15 -10 -15 -10 15 -10 15 -10 -15 -10 -15 -10
15 -10 15 -10 -15 -10 -15 -10 15 -10 15 -10 -15 -10 -15 -10 15 -10 15 -10
-15 -10 -15 -10 15 -10 15 -10 -15 -10 -15 -10 15 -10 15 -10 -15 -10 -15 -10
15 -10 15 -10 -15 -10 -15 -10 15 -10 15 -10 -15 -10 -15 -10 15 -10 15 -10
-15 -10 -15 -10 15 -10 15 -10 -15 -10 -15 -10 15 -10 15 -10 -15 -10 -15 -10
15 -10 15 -10 -15 -10 -15 -10 15 -10 15 -10 -15 -10 -15 -10 15 -10 15 -10
-15 -10 -15 -10 15 -10 15 -10 -15 -10 -15 -10 15 -10 15 -10 -15 -10 -15 -10
15 -10 15 -11 -15 -11 -15 -5 13 -5 12 -7 0 -7 0 -14 -20z"/>
</g>
</svg>
