<?xml version="1.0" standalone="no"?>
<!DOCTYPE svg PUBLIC "-//W3C//DTD SVG 20010904//EN"
 "http://www.w3.org/TR/2001/REC-SVG-20010904/DTD/svg10.dtd">
<svg version="1.0" xmlns="http://www.w3.org/2000/svg"
 width="468pt" height="468pt" viewBox="0 0 468 468"
 preserveAspectRatio="xMidYMid meet">
<metadata>
Created by potrace 1.8, written by Peter Selinger 2001-2007
</metadata>
<g transform="translate(0,468) scale(0.365625,-0.365625)"
fill="#000000" stroke="none">
<path d="M520 1210 l0 -10 -20 0 -20 0 0 -10 0 -10 -18 0 -18 0 -14 -20 -14
-20 -16 0 -16 0 -14 -20 -14 -20 -16 0 -16 0 -14 -20 -14 -20 -18 0 -18 0 0
-10 0 -10 -18 0 -18 0 -14 -20 -14 -20 -18 0 -18 0 0 -26 0 -25 14 -15 15 -14
13 0 14 0 14 -20 14 -20 18 0 18 0 0 -10 0 -10 20 0 20 0 0 -10 0 -10 20 0 20
0 0 -10 0 -10 20 0 20 0 0 -10 0 -10 18 0 18 0 14 -20 14 -20 18 0 18 0 0 -10
0 -10 20 0 20 0 0 -10 0 -10 20 0 20 0 0 -10 0 -10 20 0 20 0 0 -10 0 -10 30
0 30 0 0 10 0 10 18 0 18 0 14 20 14 20 18 0 18 0 0 10 0 10 20 0 20 0 0 10 0
10 20 0 20 0 0 10 0 10 20 0 20 0 0 10 0 10 20 0 20 0 0 10 0 10 20 0 20 0 0
10 0 10 20 0 20 0 0 10 0 10 20 0 20 0 0 10 0 10 15 0 16 0 24 25 25 24 0 21
0 21 -25 24 -24 25 -16 0 -15 0 0 10 0 10 -18 0 -18 0 -14 20 -14 20 -18 0
-18 0 0 10 0 10 -20 0 -20 0 0 10 0 10 -20 0 -20 0 0 10 0 10 -20 0 -20 0 0
10 0 10 -20 0 -20 0 0 10 0 10 -20 0 -20 0 0 10 0 10 -40 0 -40 0 0 -200 0
-200 8 0 8 0 14 20 14 20 14 0 13 0 15 14 14 15 0 95 0 96 10 0 10 0 0 -10 0
-10 20 0 20 0 0 -10 0 -10 20 0 20 0 0 -10 0 -10 20 0 20 0 0 -10 0 -10 16 0
15 0 15 -15 15 -15 -15 -15 -15 -15 -15 0 -16 0 0 -10 0 -10 -20 0 -20 0 0
-10 0 -10 -20 0 -20 0 0 -10 0 -10 -18 0 -18 0 -14 -20 -14 -20 -18 0 -18 0 0
-10 0 -10 -18 0 -18 0 -14 -20 -14 -20 -26 0 -26 0 -14 20 -14 20 -18 0 -18 0
0 10 0 10 -18 0 -18 0 -14 20 -14 20 -18 0 -18 0 0 10 0 10 -20 0 -20 0 0 10
0 10 -15 0 -16 0 -25 25 -25 25 25 25 25 25 13 0 14 0 14 20 14 20 18 0 18 0
0 10 0 10 20 0 20 0 0 -96 0 -95 14 -15 15 -14 13 0 14 0 14 -20 14 -20 8 0 8
0 0 186 0 185 -14 15 -15 14 -35 0 -36 0 0 -10z"/>
<path d="M93 885 l-13 -14 0 -231 0 -231 14 -15 15 -14 15 0 16 0 0 10 0 10
20 0 20 0 0 10 0 10 20 0 20 0 0 10 0 10 20 0 20 0 0 10 0 10 20 0 20 0 0 10
0 10 18 0 18 0 14 20 14 20 18 0 18 0 0 10 0 10 20 0 20 0 0 16 0 15 -14 15
-15 14 -15 0 -16 0 0 10 0 10 -18 0 -18 0 -14 -20 -14 -20 -18 0 -18 0 0 -10
0 -10 -20 0 -20 0 0 -10 0 -10 -20 0 -20 0 0 -10 0 -10 -10 0 -10 0 0 110 0
110 20 0 20 0 0 -10 0 -10 20 0 20 0 0 -10 0 -10 20 0 20 0 0 -10 0 -10 18 0
18 0 14 -20 14 -20 18 0 18 0 0 -10 0 -10 15 0 16 0 44 -45 45 -44 0 -166 0
-165 -8 0 -8 0 -14 20 -14 20 -16 0 -16 0 -14 20 -14 20 -18 0 -18 0 0 10 0
10 -20 0 -20 0 0 20 0 20 20 0 20 0 0 10 0 10 20 0 20 0 0 10 0 10 15 0 16 0
24 25 25 24 0 46 0 45 -30 0 -30 0 0 -10 0 -10 -20 0 -20 0 0 -10 0 -10 -18 0
-18 0 -14 -20 -14 -20 -18 0 -18 0 0 -10 0 -10 -20 0 -20 0 0 -10 0 -10 -20 0
-20 0 0 -10 0 -10 -15 0 -16 0 -24 -25 -25 -24 0 -11 0 -11 14 -15 15 -14 13
0 14 0 14 -20 14 -20 16 0 16 0 14 -20 14 -20 16 0 16 0 14 -20 14 -20 16 0
16 0 14 -20 14 -20 18 0 18 0 0 -10 0 -10 18 0 18 0 14 -20 14 -20 44 0 43 0
15 14 14 15 0 262 0 262 -22 19 -22 19 13 9 14 8 -16 16 -16 16 -15 0 -16 0 0
10 0 10 -19 0 -19 0 -6 13 -6 12 -6 -12 -6 -13 -17 0 -17 0 -14 20 -14 20 -18
0 -18 0 0 10 0 10 -20 0 -20 0 0 10 0 10 -20 0 -20 0 0 10 0 10 -18 0 -18 0
-14 20 -14 20 -18 0 -18 0 0 10 0 10 -20 0 -20 0 0 10 0 10 -27 0 -28 -1 -12
-14z m407 -175 l0 -10 20 0 20 0 0 -10 0 -10 20 0 20 0 0 -10 0 -10 -20 0 -20
0 0 10 0 10 -16 0 -15 0 -15 14 -14 15 0 5 0 6 10 0 10 0 0 -10z"/>
<path d="M1120 890 l0 -10 -20 0 -20 0 0 -10 0 -10 -20 0 -20 0 0 -10 0 -10
-18 0 -18 0 -14 -20 -14 -20 -18 0 -18 0 0 -10 0 -10 -18 0 -18 0 -14 -20 -14
-20 -18 0 -18 0 0 -10 0 -10 -19 0 -19 0 -6 13 -6 12 -6 -12 -6 -13 -17 0 -17
0 -14 -20 -14 -20 -18 0 -18 0 0 -20 0 -20 6 0 6 0 28 30 28 30 15 0 15 0 5
13 4 12 8 -7 7 -7 -15 -16 -16 -15 -11 0 -11 0 -34 -35 -35 -34 0 -261 0 -261
14 -15 15 -14 25 0 26 0 0 10 0 10 20 0 20 0 0 10 0 10 20 0 20 0 0 10 0 10
18 0 18 0 14 20 14 20 18 0 18 0 0 10 0 10 18 0 18 0 14 20 14 20 18 0 18 0 0
10 0 10 20 0 20 0 0 10 0 10 16 0 15 0 15 14 14 15 0 21 0 21 -35 34 -34 35
-16 0 -15 0 0 10 0 10 -18 0 -18 0 -14 20 -14 20 -18 0 -18 0 0 10 0 10 -18 0
-18 0 -14 20 -14 20 -18 0 -18 0 0 10 0 10 -20 0 -20 0 0 -56 0 -55 14 -15 15
-14 15 0 16 0 0 -10 0 -10 20 0 20 0 0 -10 0 -10 16 0 15 0 15 -14 14 -15 0
-11 0 -11 -14 -15 -15 -14 -13 0 -14 0 -14 -20 -14 -20 -18 0 -18 0 0 -10 0
-10 -30 0 -30 0 0 175 0 176 25 24 24 25 13 0 14 0 14 20 14 20 18 0 18 0 0
10 0 10 20 0 20 0 0 10 0 10 20 0 20 0 0 10 0 10 18 0 18 0 14 20 14 20 18 0
18 0 0 -110 0 -110 -18 0 -18 0 -14 20 -14 20 -18 0 -18 0 0 10 0 10 -20 0
-20 0 0 10 0 10 -19 0 -19 0 -5 13 -4 12 -20 -22 -20 -23 -12 0 -12 0 -15 -14
-14 -15 0 -5 0 -6 20 0 20 0 0 -10 0 -10 18 0 18 0 14 -20 14 -20 18 0 18 0 0
-10 0 -10 20 0 20 0 0 -10 0 -10 20 0 20 0 0 -10 0 -10 18 0 18 0 14 -20 14
-20 18 0 18 0 0 -10 0 -10 30 0 30 0 0 246 0 245 -14 15 -15 14 -25 0 -26 0 0
-10z"/>
<path d="M640 560 l0 -60 10 0 10 0 0 60 0 60 -10 0 -10 0 0 -60z"/>
</g>
</svg>
