<?xml version="1.0" standalone="no"?>
<!DOCTYPE svg PUBLIC "-//W3C//DTD SVG 20010904//EN"
 "http://www.w3.org/TR/2001/REC-SVG-20010904/DTD/svg10.dtd">
<svg version="1.0" xmlns="http://www.w3.org/2000/svg"
 width="468pt" height="468pt" viewBox="0 0 468 468"
 preserveAspectRatio="xMidYMid meet">
<metadata>
Created by potrace 1.8, written by Peter Selinger 2001-2007
</metadata>
<g transform="translate(0,468) scale(0.365625,-0.365625)"
fill="#000000" stroke="none">
<path d="M120 660 l0 -620 20 0 20 0 0 -20 0 -20 500 0 500 0 0 500 0 500 -20
0 -20 0 0 20 0 20 -20 0 -20 0 0 20 0 20 -20 0 -20 0 0 20 0 20 -20 0 -20 0 0
20 0 20 -20 0 -20 0 0 20 0 20 -20 0 -20 0 0 20 0 20 -20 0 -20 0 0 20 0 20
-380 0 -380 0 0 -620z m720 440 l0 -140 120 0 120 0 0 -260 0 -260 -40 0 -40
0 0 -20 0 -20 40 0 40 0 0 -160 0 -160 -460 0 -460 0 0 580 0 580 340 0 340 0
0 -140z m80 80 l0 -20 20 0 20 0 0 -20 0 -20 20 0 20 0 0 -20 0 -20 20 0 20 0
0 -20 0 -20 20 0 20 0 0 -20 0 -20 -100 0 -100 0 0 100 0 100 20 0 20 0 0 -20z"/>
<path d="M320 940 l0 -20 -20 0 -20 0 0 -300 0 -300 240 0 240 0 0 20 0 20 20
0 20 0 0 -20 0 -20 60 0 60 0 0 20 0 20 40 0 40 0 0 20 0 20 -40 0 -40 0 0 20
0 20 -60 0 -60 0 0 -20 0 -20 -20 0 -20 0 0 260 0 260 -20 0 -20 0 0 20 0 20
-200 0 -200 0 0 -20z m400 -260 l0 -240 -200 0 -200 0 0 240 0 240 200 0 200
0 0 -240z"/>
<path d="M400 860 l0 -20 -20 0 -20 0 0 -120 0 -120 20 0 20 0 0 -20 0 -20
120 0 120 0 0 20 0 20 20 0 20 0 0 120 0 120 -20 0 -20 0 0 20 0 20 -120 0
-120 0 0 -20z m240 -40 l0 -20 -80 0 -80 0 0 -80 0 -80 -40 0 -40 0 0 100 0
100 120 0 120 0 0 -20z"/>
<path d="M520 500 l0 -20 80 0 80 0 0 20 0 20 -80 0 -80 0 0 -20z"/>
</g>
</svg>
