<?xml version="1.0" standalone="no"?>
<!DOCTYPE svg PUBLIC "-//W3C//DTD SVG 20010904//EN"
 "http://www.w3.org/TR/2001/REC-SVG-20010904/DTD/svg10.dtd">
<svg version="1.0" xmlns="http://www.w3.org/2000/svg"
 width="468pt" height="468pt" viewBox="0 0 468 468"
 preserveAspectRatio="xMidYMid meet">
<metadata>
Created by potrace 1.8, written by Peter Selinger 2001-2007
</metadata>
<g transform="translate(0,468) scale(0.365625,-0.365625)"
fill="#000000" stroke="none">
<path d="M520 1220 l0 -20 -20 0 -20 0 0 -40 0 -40 20 0 20 0 0 -20 0 -20 40
0 40 0 0 -20 0 -20 -40 0 -40 0 0 -20 0 -20 -40 0 -40 0 0 -40 0 -40 40 0 40
0 0 20 0 20 40 0 40 0 0 20 0 20 40 0 40 0 0 -60 0 -60 -40 0 -40 0 0 -20 0
-20 -40 0 -40 0 0 20 0 20 -40 0 -40 0 0 -20 0 -20 -20 0 -20 0 0 -20 0 -20
-60 0 -60 0 0 -20 0 -20 -20 0 -20 0 0 -20 0 -20 -20 0 -20 0 0 -40 0 -40 -20
0 -20 0 0 -120 0 -120 20 0 20 0 0 -100 0 -100 20 0 20 0 0 -100 0 -100 320 0
320 0 0 80 0 80 20 0 20 0 0 40 0 40 20 0 20 0 0 20 0 20 20 0 20 0 0 40 0 40
20 0 20 0 0 40 0 40 20 0 20 0 0 20 0 20 40 0 40 0 0 20 0 20 20 0 20 0 0 40
0 40 -20 0 -20 0 0 20 0 20 -60 0 -60 0 0 -20 0 -20 -40 0 -40 0 0 -20 0 -20
-20 0 -20 0 0 -20 0 -20 -20 0 -20 0 0 220 0 220 20 0 20 0 0 -20 0 -20 20 0
20 0 0 -20 0 -20 20 0 20 0 0 -20 0 -20 40 0 40 0 0 40 0 40 -20 0 -20 0 0 20
0 20 -40 0 -40 0 0 20 0 20 40 0 40 0 0 20 0 20 20 0 20 0 0 40 0 40 -20 0
-20 0 0 20 0 20 -60 0 -60 0 0 -20 0 -20 -20 0 -20 0 0 40 0 40 -20 0 -20 0 0
20 0 20 -40 0 -40 0 0 -20 0 -20 -60 0 -60 0 0 20 0 20 -60 0 -60 0 0 -20z
m320 -60 l0 -40 -40 0 -40 0 0 40 0 40 40 0 40 0 0 -40z m-160 -20 l0 -20 -60
0 -60 0 0 20 0 20 60 0 60 0 0 -20z m120 -80 l0 -20 20 0 20 0 0 -280 0 -280
-20 0 -20 0 0 -20 0 -20 40 0 40 0 0 20 0 20 20 0 20 0 0 20 0 20 20 0 20 0 0
20 0 20 40 0 40 0 0 20 0 20 60 0 60 0 0 -40 0 -40 -40 0 -40 0 0 -20 0 -20
-20 0 -20 0 0 -20 0 -20 -20 0 -20 0 0 -40 0 -40 -20 0 -20 0 0 -40 0 -40 -20
0 -20 0 0 -20 0 -20 -20 0 -20 0 0 -40 0 -40 -20 0 -20 0 0 -40 0 -40 -260 0
-260 0 0 20 0 20 -20 0 -20 0 0 40 0 40 -20 0 -20 0 0 100 0 100 -20 0 -20 0
0 60 0 60 20 0 20 0 0 20 0 20 60 0 60 0 0 -20 0 -20 20 0 20 0 0 20 0 20 60
0 60 0 0 -20 0 -20 20 0 20 0 0 20 0 20 60 0 60 0 0 -20 0 -20 20 0 20 0 0
260 0 260 20 0 20 0 0 20 0 20 20 0 20 0 0 -20z m200 0 l0 -20 -40 0 -40 0 0
20 0 20 40 0 40 0 0 -20z m-480 -340 l0 -120 -60 0 -60 0 0 100 0 100 20 0 20
0 0 20 0 20 40 0 40 0 0 -120z m160 0 l0 -120 -60 0 -60 0 0 100 0 100 20 0
20 0 0 20 0 20 40 0 40 0 0 -120z m-320 -40 l0 -80 -60 0 -60 0 0 60 0 60 20
0 20 0 0 20 0 20 40 0 40 0 0 -80z"/>
<path d="M240 500 l0 -20 60 0 60 0 0 20 0 20 -60 0 -60 0 0 -20z"/>
<path d="M400 500 l0 -20 60 0 60 0 0 20 0 20 -60 0 -60 0 0 -20z"/>
<path d="M560 500 l0 -20 60 0 60 0 0 20 0 20 -60 0 -60 0 0 -20z"/>
<path d="M760 420 l0 -20 20 0 20 0 0 20 0 20 -20 0 -20 0 0 -20z"/>
</g>
</svg>
