<?xml version="1.0" standalone="no"?>
<!DOCTYPE svg PUBLIC "-//W3C//DTD SVG 20010904//EN"
 "http://www.w3.org/TR/2001/REC-SVG-20010904/DTD/svg10.dtd">
<svg version="1.0" xmlns="http://www.w3.org/2000/svg"
 width="468pt" height="468pt" viewBox="0 0 468 468"
 preserveAspectRatio="xMidYMid meet">
<metadata>
Created by potrace 1.8, written by Peter Selinger 2001-2007
</metadata>
<g transform="translate(0,468) scale(0.365625,-0.365625)"
fill="#000000" stroke="none">
<path d="M560 1250 l0 -10 -40 0 -40 0 0 -10 0 -10 -30 0 -30 0 0 -10 0 -10
-15 0 -15 0 -85 -85 -85 -85 0 -15 0 -15 -10 0 -10 0 0 -20 0 -20 -10 0 -10 0
0 -20 0 -20 -10 0 -10 0 0 -40 0 -40 -10 0 -10 0 0 -100 0 -100 10 0 10 0 0
-40 0 -40 10 0 10 0 0 -20 0 -20 10 0 10 0 0 -20 0 -20 10 0 10 0 0 -15 0 -15
75 -75 75 -75 15 0 15 0 0 -10 0 -10 20 0 20 0 0 -10 0 -10 20 0 20 0 0 -10 0
-10 40 0 40 0 0 -10 0 -10 90 0 90 0 0 10 0 10 40 0 40 0 0 10 0 10 20 0 20 0
0 10 0 10 20 0 20 0 0 10 0 10 15 0 15 0 75 75 75 75 0 15 0 15 10 0 10 0 0
20 0 20 10 0 10 0 0 20 0 20 10 0 10 0 0 40 0 40 10 0 10 0 0 100 0 100 -10 0
-10 0 0 40 0 40 -10 0 -10 0 0 20 0 20 -10 0 -10 0 0 20 0 20 -10 0 -10 0 0
15 0 15 -75 75 -75 75 -15 0 -15 0 0 10 0 10 -20 0 -20 0 0 10 0 10 -20 0 -20
0 0 10 0 10 -40 0 -40 0 0 10 0 10 -90 0 -90 0 0 -10z m180 -18 l0 -8 -20 -14
-20 -14 0 -18 0 -18 18 0 18 0 14 20 14 20 8 0 8 0 0 -26 0 -25 -17 -17 -16
-17 -5 13 -4 12 -9 0 -9 0 0 -16 0 -16 -30 -28 -30 -28 0 -16 0 -16 -30 0 -30
0 0 -40 0 -40 36 0 35 0 15 14 14 15 0 15 0 16 36 0 35 0 17 -17 17 -16 -13
-5 -12 -4 0 -9 0 -9 20 0 20 0 0 28 0 28 20 14 20 14 0 18 0 18 20 0 20 0 0
-6 0 -7 -22 -20 -23 -20 13 -4 12 -5 0 -27 0 -27 -20 -14 -20 -14 0 -18 0 -18
-48 0 -48 0 -14 20 -14 20 -34 0 -33 0 -24 -25 -25 -24 0 -16 0 -15 -10 0 -10
0 0 -66 0 -65 14 -15 15 -14 41 0 41 0 15 -14 14 -15 0 -15 0 -16 10 0 10 0 0
-50 0 -50 -10 0 -10 0 0 -56 0 -55 14 -15 15 -14 31 0 31 0 44 45 45 44 0 46
0 45 10 0 10 0 0 20 0 20 10 0 10 0 0 29 0 29 13 5 12 5 -14 10 -15 10 32 30
32 30 0 16 0 16 10 0 10 0 0 10 0 10 -20 0 -20 0 0 -10 0 -10 -16 0 -15 0 -15
14 -14 15 0 35 0 36 -16 0 -15 0 -15 14 -14 15 0 5 0 6 15 0 16 0 24 -25 25
-24 0 -26 0 -25 25 0 26 0 34 35 35 34 0 11 0 11 -17 17 -16 17 -5 -13 -4 -12
-14 0 -15 0 -35 36 -36 35 7 7 8 7 4 -12 5 -13 19 0 19 0 0 -20 0 -20 19 0 19
0 6 13 6 12 6 -12 6 -13 19 0 19 0 0 9 0 9 -12 5 -13 4 7 8 7 7 16 -15 15 -16
0 -15 0 -16 10 0 10 0 0 -40 0 -40 10 0 10 0 0 -100 0 -100 -10 0 -10 0 0 -40
0 -40 -10 0 -10 0 0 -20 0 -20 -10 0 -10 0 0 -20 0 -20 -10 0 -10 0 0 -15 0
-15 -65 -65 -65 -65 -15 0 -15 0 0 -10 0 -10 -20 0 -20 0 0 -10 0 -10 -20 0
-20 0 0 -10 0 -10 -20 0 -20 0 0 10 0 10 -70 0 -70 0 0 10 0 10 -39 0 -39 0
-6 -12 -6 -13 -6 13 -6 12 -19 0 -19 0 0 -10 0 -10 -30 0 -30 0 0 10 0 10 -20
0 -20 0 0 28 0 28 -20 14 -20 14 0 18 0 18 -10 0 -10 0 0 20 0 20 -10 0 -10 0
0 30 0 30 10 0 10 0 0 50 0 50 10 0 10 0 0 16 0 15 -50 49 -50 49 0 15 0 16
-20 0 -20 0 0 18 0 18 -20 14 -20 14 0 18 0 18 20 0 20 0 0 10 0 10 -10 0 -10
0 0 30 0 30 20 0 20 0 0 -16 0 -15 14 -15 15 -14 5 0 6 0 0 46 0 45 14 15 15
14 15 0 16 0 0 28 0 28 20 14 20 14 0 28 0 28 16 0 17 0 18 -21 18 -21 16 15
15 16 0 11 0 11 25 24 24 25 16 0 15 0 0 10 0 10 90 0 90 0 0 -8z m200 -192
l0 -20 -10 0 -10 0 0 20 0 20 10 0 10 0 0 -20z"/>
<path d="M580 1200 l0 -20 6 0 5 0 15 14 14 15 0 5 0 6 -20 0 -20 0 0 -20z"/>
<path d="M653 1165 l-13 -14 0 -16 0 -15 -10 0 -10 0 0 -20 0 -20 16 0 15 0
15 14 14 15 0 35 0 36 -7 0 -8 -1 -12 -14z"/>
<path d="M933 525 l-13 -14 0 -36 0 -35 10 0 10 0 0 20 0 20 10 0 10 0 0 30 0
30 -7 0 -8 -1 -12 -14z"/>
<path d="M0 100 l0 -100 640 0 640 0 0 100 0 100 -640 0 -640 0 0 -100z"/>
</g>
</svg>
