<?xml version="1.0" standalone="no"?>
<!DOCTYPE svg PUBLIC "-//W3C//DTD SVG 20010904//EN"
 "http://www.w3.org/TR/2001/REC-SVG-20010904/DTD/svg10.dtd">
<svg version="1.0" xmlns="http://www.w3.org/2000/svg"
 width="468pt" height="468pt" viewBox="0 0 468 468"
 preserveAspectRatio="xMidYMid meet">
<metadata>
Created by potrace 1.8, written by Peter Selinger 2001-2007
</metadata>
<g transform="translate(0,468) scale(0.365625,-0.365625)"
fill="#000000" stroke="none">
<path d="M438 1273 l-18 -4 0 -10 0 -9 34 0 35 0 15 -15 15 -15 13 0 13 0 -15
-10 -15 -10 15 -10 15 -10 15 1 15 1 -18 5 -18 5 5 14 5 13 -14 15 -15 15 0
10 0 11 18 1 17 1 -14 5 -14 6 -14 -19 -14 -19 -10 18 -10 17 -12 -1 -12 -1
-17 -5z"/>
<path d="M593 1273 l27 -4 28 4 27 4 -55 0 -55 0 28 -4z"/>
<path d="M692 1267 l17 -17 24 0 25 0 5 8 4 7 -3 -12 -3 -13 13 0 13 0 13 -40
13 -40 8 0 7 0 5 13 4 12 -3 -75 -3 -75 -10 -3 -11 -4 0 -19 0 -19 10 0 10 0
0 -10 0 -10 -16 0 -15 0 6 -10 6 -10 -8 0 -9 0 0 -36 0 -35 -13 -8 -13 -9 13
-5 14 -5 -13 -9 -12 -9 -4 -59 -4 -59 -11 -4 -11 -4 0 -14 0 -15 18 -19 17
-18 35 2 35 3 7 2 7 1 4 13 4 12 -3 -18 -2 -17 36 4 37 5 34 0 33 1 -5 13 -5
14 8 14 9 13 8 -7 7 -8 -14 -10 -15 -11 65 6 65 6 3 10 4 10 28 0 29 0 15 16
16 15 0 12 0 13 -19 16 -19 16 -20 6 -20 7 -56 3 -56 3 0 -8 0 -7 13 -5 12 -4
-9 -9 -9 -9 -4 13 -5 13 -25 10 -24 9 -22 -11 -22 -12 -7 -11 -8 -11 0 12 0
12 18 10 17 10 -12 1 -13 0 0 25 0 25 10 0 10 0 0 15 0 15 -12 0 -13 0 13 9
14 8 3 44 4 43 -9 -14 -9 -14 -8 7 -7 8 14 9 15 10 10 3 10 4 -14 17 -14 16 7
7 6 6 0 -12 0 -12 15 15 15 15 0 9 0 10 -12 5 -13 5 13 1 12 1 0 14 0 14 -12
5 -13 5 13 1 12 1 0 15 0 15 -10 0 -9 0 -10 -17 -10 -18 -1 11 0 10 11 11 11
11 -7 21 -6 21 -15 0 -15 0 -5 14 -5 14 -27 7 -27 7 -6 9 -6 10 -89 6 -89 6
17 -16z m138 -67 l0 -10 -10 0 -10 0 0 10 0 10 10 0 10 0 0 -10z m57 -46 l-6
-6 -13 5 -13 5 19 1 19 1 -6 -6z m-22 -63 l-6 -11 -10 0 -10 0 13 14 13 14 4
-3 3 -4 -7 -10z m25 -20 l0 -9 -14 -5 -15 -6 6 15 5 14 9 0 9 0 0 -9z m30 -1
l0 -10 -10 0 -10 0 0 10 0 10 10 0 10 0 0 -10z m3 -34 l6 -15 -15 6 -14 5 0 9
0 9 9 0 9 0 5 -14z m-50 -26 l17 -20 -8 0 -8 0 -17 20 -17 20 8 0 8 0 17 -20z
m-13 -34 l0 -14 -14 -5 -14 -6 5 20 5 19 9 0 9 0 0 -14z m60 4 l0 -10 -8 0 -8
0 -22 -20 -22 -21 0 7 0 7 23 22 22 23 8 1 7 1 0 -10z m-36 -81 l8 -6 -25 0
-25 0 11 12 12 13 5 -6 5 -7 9 -6z m-54 -49 l0 -10 -10 0 -10 0 0 10 0 10 10
0 10 0 0 -10z m-5 -49 l-4 -3 -10 7 -11 6 0 10 0 10 14 -13 14 -13 -3 -4z m65
19 l0 -10 -10 0 -10 0 0 10 0 10 10 0 10 0 0 -10z m-60 -40 l0 -10 -10 0 -10
0 0 10 0 10 10 0 10 0 0 -10z m285 -21 l7 -10 -3 -4 -4 -3 -13 14 -13 14 10 0
10 0 6 -11z m-245 -41 l0 -8 -20 17 -20 17 0 8 0 8 20 -17 20 -17 0 -8z m55
23 l-6 -11 -10 0 -10 0 13 14 13 14 4 -3 3 -4 -7 -10z m95 9 l0 -10 -10 0 -10
0 0 10 0 10 10 0 10 0 0 -10z m130 0 l0 -10 -10 0 -10 0 0 10 0 10 10 0 10 0
0 -10z m-160 -30 l0 -10 -10 0 -10 0 0 10 0 10 10 0 10 0 0 -10z m90 0 l0 -10
-10 0 -10 0 0 -17 0 -16 -6 6 -6 5 7 21 6 21 10 0 9 0 0 -10z m35 -9 l-6 -11
-10 0 -10 0 13 14 13 14 4 -3 3 -4 -7 -10z m-305 -23 l0 12 10 0 10 0 0 -25 0
-25 -10 0 -10 0 0 13 0 12 -9 -14 -8 -13 0 27 0 27 8 -13 9 -14 0 13z m98 -22
l-13 -14 -4 3 -3 4 7 10 6 11 10 0 10 0 -13 -14z"/>
<path d="M371 1243 l-14 -6 -19 -16 -19 -16 -6 -37 -6 -38 -7 0 -7 0 -7 -70
-7 -70 -9 0 -8 0 -7 -65 -7 -65 -9 0 -9 0 0 -35 0 -34 -12 3 -13 3 8 -4 7 -5
0 -29 0 -29 -8 0 -8 0 -17 20 -17 20 10 0 10 0 0 10 0 10 -9 0 -9 0 -6 -15 -5
-15 20 -19 21 -20 -4 -12 -4 -12 -21 23 -22 22 5 -19 6 -20 -28 3 -27 3 -8 13
-9 13 0 -12 0 -12 14 -8 13 -8 6 -15 5 -15 1 18 1 17 10 0 10 0 1 -12 1 -13
-1 -15 0 -15 5 12 5 12 22 -19 21 -20 10 1 11 1 -12 5 -13 5 0 13 0 13 -20 5
-20 5 0 11 0 11 15 0 15 0 0 -12 0 -13 10 15 10 15 10 -15 10 -15 0 13 0 12 9
0 9 0 7 -30 7 -30 8 0 8 0 5 19 5 20 -14 -6 -14 -5 0 16 0 16 11 0 10 0 16
-15 15 -15 9 5 9 6 0 24 0 23 13 5 12 5 -13 1 -14 1 -5 -20 -5 -20 -14 0 -14
0 0 14 0 14 14 5 14 5 0 25 0 25 -13 -11 -13 -12 10 -6 10 -7 -21 -21 -21 -21
-5 0 -5 0 0 15 0 15 10 0 10 0 0 9 0 9 -14 5 -14 5 1 -11 0 -12 -1 -17 -2 -18
-14 0 -15 0 6 38 6 37 8 5 7 5 7 68 7 67 8 0 8 0 7 60 7 60 9 0 9 0 0 30 0 29
11 51 11 50 24 6 24 6 0 8 0 9 18 4 17 5 -15 0 -15 0 -14 -5z"/>
<path d="M390 1200 l0 -10 10 0 10 0 0 10 0 10 -10 0 -10 0 0 -10z"/>
<path d="M627 1170 l17 -20 4 0 3 0 -11 20 -11 20 -9 0 -10 0 17 -20z"/>
<path d="M420 1170 l0 -10 10 0 10 0 0 10 0 10 -10 0 -10 0 0 -10z"/>
<path d="M502 1164 l-13 -14 10 0 10 0 6 11 7 10 -3 4 -4 3 -13 -14z"/>
<path d="M417 1136 l-6 -15 15 6 14 5 0 9 0 9 -9 0 -9 0 -5 -14z"/>
<path d="M330 1100 l0 -10 10 0 10 0 0 -15 0 -15 -9 0 -8 0 -6 -27 -6 -28 -6
-17 -7 -18 21 0 21 0 0 9 0 9 -12 5 -13 5 13 1 12 1 0 15 0 15 20 0 20 0 0
-15 0 -15 10 0 10 0 0 25 0 25 14 0 15 0 6 11 7 11 -21 19 -20 19 -41 0 -40 0
0 -10z m85 -30 l0 -15 -27 -3 -28 -3 0 15 0 14 13 5 12 6 15 -2 15 -2 0 -15z"/>
<path d="M520 1100 l0 -10 16 0 16 0 -7 -32 -8 -33 -7 -5 -7 -5 -7 -22 -7 -23
30 0 31 0 0 10 0 10 -14 0 -14 0 5 20 5 20 9 0 9 0 0 26 0 26 20 5 20 5 0 9 0
9 -45 0 -45 0 0 -10z"/>
<path d="M670 1100 l0 -10 15 0 15 0 0 -15 0 -15 -9 0 -9 0 -6 -35 -7 -35 -14
0 -15 0 0 -10 0 -10 35 0 35 0 -6 30 -6 30 31 0 31 0 0 10 0 10 14 0 15 0 6
11 7 11 -21 19 -20 19 -46 0 -45 0 0 -10z m95 -30 l0 -15 -27 -3 -28 -3 0 15
0 14 13 5 12 6 15 -2 15 -2 0 -15z"/>
<path d="M740 1010 l0 -10 10 0 10 0 0 10 0 10 -10 0 -10 0 0 -10z"/>
<path d="M403 993 l-13 -5 0 -9 0 -9 25 0 25 0 0 9 0 9 -12 4 -13 5 -12 -4z"/>
<path d="M450 980 l0 -10 15 0 15 0 0 10 0 10 -15 0 -15 0 0 -10z"/>
<path d="M580 980 l0 -10 15 0 15 0 0 10 0 10 -15 0 -15 0 0 -10z"/>
<path d="M740 980 l0 -10 9 0 9 0 19 -7 18 -7 -17 17 -17 17 -10 0 -11 0 0
-10z"/>
<path d="M520 940 l0 -10 10 0 10 0 0 10 0 10 -10 0 -10 0 0 -10z"/>
<path d="M767 906 l-6 -15 15 6 14 5 0 9 0 9 -9 0 -9 0 -5 -14z"/>
<path d="M450 880 l0 -10 10 0 10 0 0 10 0 10 -10 0 -10 0 0 -10z"/>
<path d="M710 880 l0 -10 10 0 10 0 0 10 0 10 -10 0 -10 0 0 -10z"/>
<path d="M1080 853 l0 -13 -15 0 -14 0 5 -15 6 -15 9 0 9 0 0 14 0 14 16 -2
17 -1 4 15 5 15 -11 -15 -11 -15 -10 15 -10 15 0 -12z"/>
<path d="M1130 850 l0 -10 10 0 10 0 0 -14 0 -15 11 -6 11 -7 17 19 18 19 -14
13 -14 13 2 -13 1 -14 -1 -12 -1 -13 -9 0 -9 0 -6 25 -6 25 -10 0 -10 0 0 -10z"/>
<path d="M1220 850 l0 -10 10 0 10 0 0 -17 0 -16 6 6 6 5 -7 21 -6 21 -10 0
-9 0 0 -10z"/>
<path d="M23 832 l-23 -3 0 -10 0 -9 18 -1 17 -1 35 -3 35 -3 -17 5 -18 4 0 9
0 9 18 4 17 4 -30 -1 -30 0 -22 -4z m37 -12 l0 -10 -10 0 -10 0 0 10 0 10 10
0 10 0 0 -10z"/>
<path d="M128 833 l13 -5 6 6 6 6 -19 -1 -19 -1 13 -5z"/>
<path d="M164 820 l0 -16 28 4 28 4 0 8 0 8 -28 4 -28 4 0 -16z"/>
<path d="M950 826 l0 -16 10 0 10 0 0 9 0 10 -10 6 -10 6 0 -15z"/>
<path d="M997 833 l-7 -6 0 -9 0 -8 14 0 14 0 6 15 5 15 -13 0 -13 0 -6 -7z"/>
<path d="M128 804 l-6 -5 5 -20 5 -19 9 0 9 0 0 15 0 15 -12 0 -13 0 15 10 15
10 -11 0 -11 0 -5 -6z"/>
<path d="M26 783 l18 -18 12 -12 11 -12 1 26 0 25 -9 -13 -9 -14 -11 18 -10
17 -10 0 -10 0 17 -17z"/>
<path d="M580 780 l0 -10 10 0 10 0 0 10 0 10 -10 0 -10 0 0 -10z"/>
<path d="M373 745 l-13 -14 0 -10 0 -9 13 -5 12 -5 -16 -1 -16 -1 0 -25 0 -26
19 -10 20 -11 -5 9 -6 9 8 13 9 13 21 -21 21 -21 0 -9 0 -9 -12 -5 -13 -5 13
-1 13 -1 6 18 7 17 10 7 11 8 -12 0 -13 0 0 15 0 15 10 0 11 0 6 -16 6 -16 9
14 10 13 5 -12 5 -13 14 14 14 15 0 10 0 11 -7 1 -8 1 -22 2 -21 3 5 -14 5
-13 -10 0 -10 0 -5 13 -5 12 -11 -15 -11 -15 0 12 0 12 17 10 18 9 -7 7 -7 7
-24 -26 -24 -26 -16 0 -17 0 4 40 4 40 -1 0 -2 -1 -12 -14z m144 -67 l-5 -13
-1 19 -1 19 6 -6 6 -6 -5 -13z m-74 -17 l5 -20 -14 6 -14 5 0 14 0 14 9 0 9 0
5 -19z m-63 -1 l0 -10 -10 0 -10 0 0 10 0 10 10 0 10 0 0 -10z"/>
<path d="M520 750 l0 -10 10 0 10 0 0 10 0 10 -10 0 -10 0 0 -10z"/>
<path d="M40 721 l0 -9 15 -6 15 -5 0 -16 0 -15 10 0 10 0 0 10 0 10 -20 20
-20 20 -5 0 -5 0 0 -9z"/>
<path d="M645 710 l8 -25 11 -8 11 -9 -25 6 -25 6 -7 0 -7 0 -4 13 -4 12 3
-18 2 -18 -16 2 -17 1 -17 -1 -18 -1 0 -14 0 -14 21 5 20 6 24 -13 24 -13 4
-16 5 -16 1 18 1 18 -15 5 -15 6 0 14 0 14 15 0 15 0 0 -9 0 -9 21 -5 21 -6
-6 30 -6 30 -16 17 -17 16 8 -24z"/>
<path d="M550 695 l0 -15 10 0 10 0 0 15 0 15 -10 0 -10 0 0 -15z"/>
<path d="M705 674 l0 -34 13 0 12 0 0 14 0 14 -12 5 -13 5 13 1 12 1 0 9 0 9
-12 5 -13 4 0 -33z"/>
<path d="M220 663 l0 -8 10 -15 9 -14 7 6 6 7 -16 16 -16 16 0 -8z"/>
<path d="M290 660 l0 -10 10 0 10 0 0 10 0 10 -10 0 -10 0 0 -10z"/>
<path d="M320 643 l0 -8 10 -15 9 -14 7 6 6 7 -16 16 -16 16 0 -8z"/>
<path d="M740 630 l0 -20 10 0 10 0 0 -17 0 -16 5 5 5 5 -6 31 -6 32 -9 0 -9
0 0 -20z"/>
<path d="M1023 628 l-2 -20 7 8 7 9 8 6 9 6 -14 6 -14 5 -1 -20z"/>
<path d="M502 626 l13 -14 4 3 3 4 -7 10 -6 11 -10 0 -10 0 13 -14z"/>
<path d="M577 624 l5 -14 9 0 9 0 0 9 0 9 -14 5 -15 6 6 -15z"/>
<path d="M991 624 l1 -19 5 13 5 13 -6 6 -6 6 1 -19z"/>
<path d="M170 625 l0 -5 21 -21 21 -21 5 5 5 5 -21 21 -21 21 -5 0 -5 0 0 -5z"/>
<path d="M670 621 l0 -10 11 -6 10 -7 4 3 3 4 -14 13 -14 13 0 -10z"/>
<path d="M802 605 l0 -30 5 18 5 17 -5 13 -5 12 0 -30z"/>
<path d="M470 598 l0 -16 -12 -5 -13 -5 13 -1 13 -1 6 15 5 16 -6 6 -6 6 0
-15z"/>
<path d="M533 603 l-13 -5 0 -14 0 -14 9 0 9 0 5 20 5 20 -1 -1 -2 -1 -12 -5z"/>
<path d="M710 595 l0 -15 10 0 10 0 0 15 0 15 -10 0 -10 0 0 -15z"/>
<path d="M924 565 l-6 -15 -459 0 -459 0 0 -275 0 -275 640 0 640 0 0 275 0
275 -175 0 -175 0 0 9 0 9 13 5 12 5 -13 1 -13 1 -5 -15z"/>
</g>
</svg>
