<?xml version="1.0" standalone="no"?>
<!DOCTYPE svg PUBLIC "-//W3C//DTD SVG 20010904//EN"
 "http://www.w3.org/TR/2001/REC-SVG-20010904/DTD/svg10.dtd">
<svg version="1.0" xmlns="http://www.w3.org/2000/svg"
 width="468pt" height="468pt" viewBox="0 0 468 468"
 preserveAspectRatio="xMidYMid meet">
<metadata>
Created by potrace 1.8, written by Peter Selinger 2001-2007
</metadata>
<g transform="translate(0,468) scale(0.365625,-0.365625)"
fill="#000000" stroke="none">
<path d="M0 640 l0 -640 15 0 15 0 0 625 0 625 610 0 610 0 0 -625 0 -625 15
0 15 0 0 640 0 640 -640 0 -640 0 0 -640z"/>
<path d="M100 1120 l0 -60 60 0 60 0 0 -50 0 -50 -45 0 -45 0 0 15 0 15 -15 0
-15 0 0 -15 0 -15 15 0 15 0 0 -15 0 -15 45 0 45 0 0 15 0 15 20 0 20 0 0 50
0 50 -20 0 -20 0 0 15 0 15 -45 0 -45 0 0 30 0 30 65 0 65 0 0 15 0 15 -80 0
-80 0 0 -60z"/>
<path d="M420 755 l0 -15 -20 0 -20 0 0 -20 0 -20 -15 0 -15 0 0 -15 0 -15
-15 0 -15 0 0 -15 0 -15 15 0 15 0 0 -15 0 -15 15 0 15 0 0 -15 0 -15 20 0 20
0 0 -20 0 -20 15 0 15 0 0 20 0 20 15 0 15 0 0 15 0 15 15 0 15 0 0 15 0 15
15 0 15 0 0 15 0 15 -15 0 -15 0 0 15 0 15 -15 0 -15 0 0 20 0 20 -15 0 -15 0
0 15 0 15 -15 0 -15 0 0 -15z"/>
<path d="M860 755 l0 -15 -15 0 -15 0 0 -20 0 -20 -15 0 -15 0 0 -15 0 -15
-15 0 -15 0 0 -15 0 -15 15 0 15 0 0 -15 0 -15 15 0 15 0 0 -15 0 -15 15 0 15
0 0 -20 0 -20 20 0 20 0 0 20 0 20 15 0 15 0 0 15 0 15 15 0 15 0 0 15 0 15
15 0 15 0 0 15 0 15 -15 0 -15 0 0 15 0 15 -15 0 -15 0 0 20 0 20 -15 0 -15 0
0 15 0 15 -20 0 -20 0 0 -15z"/>
<path d="M640 400 l0 -20 -15 0 -15 0 0 -15 0 -15 -15 0 -15 0 0 -15 0 -15
-20 0 -20 0 0 -15 0 -15 20 0 20 0 0 -15 0 -15 15 0 15 0 0 -20 0 -20 15 0 15
0 0 -15 0 -15 15 0 15 0 0 15 0 15 15 0 15 0 0 20 0 20 20 0 20 0 0 15 0 15
15 0 15 0 0 15 0 15 -15 0 -15 0 0 15 0 15 -20 0 -20 0 0 15 0 15 -15 0 -15 0
0 20 0 20 -15 0 -15 0 0 -20z"/>
<path d="M420 80 l0 -20 -20 0 -20 0 0 -15 0 -15 -15 0 -15 0 0 -15 0 -15 80
0 80 0 0 15 0 15 -15 0 -15 0 0 15 0 15 -15 0 -15 0 0 20 0 20 -15 0 -15 0 0
-20z"/>
<path d="M860 80 l0 -20 -15 0 -15 0 0 -15 0 -15 -15 0 -15 0 0 -15 0 -15 80
0 80 0 0 15 0 15 -15 0 -15 0 0 15 0 15 -15 0 -15 0 0 20 0 20 -20 0 -20 0 0
-20z"/>
</g>
</svg>
