<?xml version="1.0" standalone="no"?>
<!DOCTYPE svg PUBLIC "-//W3C//DTD SVG 20010904//EN"
 "http://www.w3.org/TR/2001/REC-SVG-20010904/DTD/svg10.dtd">
<svg version="1.0" xmlns="http://www.w3.org/2000/svg"
 width="468pt" height="468pt" viewBox="0 0 468 468"
 preserveAspectRatio="xMidYMid meet">
<metadata>
Created by potrace 1.8, written by Peter Selinger 2001-2007
</metadata>
<g transform="translate(0,468) scale(0.365625,-0.365625)"
fill="#000000" stroke="none">
<path d="M40 1260 l0 -20 -20 0 -20 0 0 -175 0 -175 20 0 20 0 0 -20 0 -20
-20 0 -20 0 0 -425 0 -425 640 0 640 0 0 425 0 425 -20 0 -20 0 0 20 0 20 20
0 20 0 0 175 0 175 -20 0 -20 0 0 20 0 20 -600 0 -600 0 0 -20z m1200 -195 l0
-175 -600 0 -600 0 0 175 0 175 600 0 600 0 0 -175z"/>
<path d="M390 1180 l0 -20 -20 0 -20 0 0 -55 0 -55 20 0 20 0 0 -20 0 -20 20
0 20 0 0 -20 0 -20 20 0 20 0 0 -20 0 -20 170 0 170 0 0 20 0 20 20 0 20 0 0
20 0 20 20 0 20 0 0 20 0 20 20 0 20 0 0 55 0 55 -20 0 -20 0 0 20 0 20 -250
0 -250 0 0 -20z m500 -75 l0 -55 -20 0 -20 0 0 -20 0 -20 -20 0 -20 0 0 -20 0
-20 -170 0 -170 0 0 20 0 20 -20 0 -20 0 0 20 0 20 -20 0 -20 0 0 55 0 55 250
0 250 0 0 -55z"/>
<path d="M470 1105 l0 -15 15 0 15 0 0 15 0 15 -15 0 -15 0 0 -15z"/>
<path d="M540 1105 l0 -15 20 0 20 0 0 15 0 15 -20 0 -20 0 0 -15z"/>
<path d="M620 1105 l0 -15 20 0 20 0 0 15 0 15 -20 0 -20 0 0 -15z"/>
<path d="M700 1105 l0 -15 20 0 20 0 0 15 0 15 -20 0 -20 0 0 -15z"/>
<path d="M780 1105 l0 -15 15 0 15 0 0 15 0 15 -15 0 -15 0 0 -15z"/>
<path d="M500 1030 l0 -20 20 0 20 0 0 20 0 20 -20 0 -20 0 0 -20z"/>
<path d="M580 1030 l0 -20 20 0 20 0 0 20 0 20 -20 0 -20 0 0 -20z"/>
<path d="M660 1030 l0 -20 20 0 20 0 0 20 0 20 -20 0 -20 0 0 -20z"/>
<path d="M740 1030 l0 -20 20 0 20 0 0 20 0 20 -20 0 -20 0 0 -20z"/>
<path d="M160 1140 l0 -20 -20 0 -20 0 0 -35 0 -35 20 0 20 0 0 -20 0 -20 35
0 35 0 0 20 0 20 20 0 20 0 0 35 0 35 -20 0 -20 0 0 20 0 20 -35 0 -35 0 0
-20z m70 -55 l0 -35 -35 0 -35 0 0 35 0 35 35 0 35 0 0 -35z"/>
<path d="M1050 1140 l0 -20 -20 0 -20 0 0 -35 0 -35 20 0 20 0 0 -20 0 -20 35
0 35 0 0 20 0 20 20 0 20 0 0 35 0 35 -20 0 -20 0 0 20 0 20 -35 0 -35 0 0
-20z m70 -55 l0 -35 -35 0 -35 0 0 35 0 35 35 0 35 0 0 -35z"/>
</g>
</svg>
