<?xml version="1.0" standalone="no"?>
<!DOCTYPE svg PUBLIC "-//W3C//DTD SVG 20010904//EN"
 "http://www.w3.org/TR/2001/REC-SVG-20010904/DTD/svg10.dtd">
<svg version="1.0" xmlns="http://www.w3.org/2000/svg"
 width="468pt" height="468pt" viewBox="0 0 468 468"
 preserveAspectRatio="xMidYMid meet">
<metadata>
Created by potrace 1.8, written by Peter Selinger 2001-2007
</metadata>
<g transform="translate(0,468) scale(0.365625,-0.365625)"
fill="#000000" stroke="none">
<path d="M30 1265 l0 -15 -15 0 -15 0 0 -15 0 -15 15 0 15 0 0 -20 0 -20 -15
0 -15 0 0 -15 0 -15 15 0 15 0 0 -15 0 -15 -15 0 -15 0 0 -15 0 -15 15 0 15 0
0 -15 0 -15 -15 0 -15 0 0 -20 0 -20 15 0 15 0 0 -15 0 -15 -15 0 -15 0 0 -15
0 -15 15 0 15 0 0 -15 0 -15 -15 0 -15 0 0 -15 0 -15 15 0 15 0 0 -20 0 -20
-15 0 -15 0 0 -15 0 -15 15 0 15 0 0 15 0 15 15 0 15 0 0 20 0 20 20 0 20 0 0
15 0 15 -20 0 -20 0 0 15 0 15 20 0 20 0 0 -15 0 -15 15 0 15 0 0 15 0 15 -15
0 -15 0 0 15 0 15 15 0 15 0 0 -15 0 -15 15 0 15 0 0 15 0 15 -15 0 -15 0 0
15 0 15 15 0 15 0 0 -15 0 -15 15 0 15 0 0 15 0 15 -15 0 -15 0 0 20 0 20 15
0 15 0 0 -20 0 -20 15 0 15 0 0 20 0 20 20 0 20 0 0 -20 0 -20 15 0 15 0 0 20
0 20 15 0 15 0 0 -20 0 -20 -15 0 -15 0 0 -15 0 -15 15 0 15 0 0 15 0 15 15 0
15 0 0 -15 0 -15 -15 0 -15 0 0 -15 0 -15 15 0 15 0 0 15 0 15 15 0 15 0 0
-15 0 -15 -15 0 -15 0 0 -15 0 -15 15 0 15 0 0 15 0 15 20 0 20 0 0 15 0 15
-20 0 -20 0 0 15 0 15 -15 0 -15 0 0 20 0 20 15 0 15 0 0 15 0 15 20 0 20 0 0
-15 0 -15 15 0 15 0 0 -20 0 -20 15 0 15 0 0 20 0 20 15 0 15 0 0 15 0 15 -15
0 -15 0 0 15 0 15 15 0 15 0 0 -15 0 -15 15 0 15 0 0 15 0 15 20 0 20 0 0 15
0 15 15 0 15 0 0 -15 0 -15 15 0 15 0 0 15 0 15 15 0 15 0 0 -15 0 -15 -15 0
-15 0 0 -15 0 -15 15 0 15 0 0 15 0 15 15 0 15 0 0 -15 0 -15 -15 0 -15 0 0
-15 0 -15 15 0 15 0 0 15 0 15 20 0 20 0 0 -15 0 -15 15 0 15 0 0 -20 0 -20
-15 0 -15 0 0 -15 0 -15 15 0 15 0 0 15 0 15 15 0 15 0 0 -15 0 -15 -15 0 -15
0 0 -15 0 -15 15 0 15 0 0 15 0 15 15 0 15 0 0 -15 0 -15 -15 0 -15 0 0 -15 0
-15 15 0 15 0 0 15 0 15 15 0 15 0 0 -15 0 -15 -15 0 -15 0 0 -15 0 -15 15 0
15 0 0 15 0 15 20 0 20 0 0 -15 0 -15 15 0 15 0 0 15 0 15 -15 0 -15 0 0 15 0
15 15 0 15 0 0 -15 0 -15 15 0 15 0 0 15 0 15 -15 0 -15 0 0 15 0 15 15 0 15
0 0 -15 0 -15 15 0 15 0 0 15 0 15 -15 0 -15 0 0 15 0 15 15 0 15 0 0 -15 0
-15 15 0 15 0 0 15 0 15 -15 0 -15 0 0 20 0 20 15 0 15 0 0 15 0 15 20 0 20 0
0 -15 0 -15 15 0 15 0 0 -20 0 -20 15 0 15 0 0 20 0 20 15 0 15 0 0 -20 0 -20
-15 0 -15 0 0 -15 0 -15 15 0 15 0 0 15 0 15 15 0 15 0 0 -15 0 -15 -15 0 -15
0 0 -15 0 -15 15 0 15 0 0 15 0 15 20 0 20 0 0 -15 0 -15 -20 0 -20 0 0 -15 0
-15 20 0 20 0 0 -15 0 -15 15 0 15 0 0 -20 0 -20 15 0 15 0 0 20 0 20 -15 0
-15 0 0 15 0 15 15 0 15 0 0 15 0 15 -15 0 -15 0 0 15 0 15 15 0 15 0 0 15 0
15 -15 0 -15 0 0 20 0 20 15 0 15 0 0 15 0 15 -15 0 -15 0 0 15 0 15 15 0 15
0 0 15 0 15 -15 0 -15 0 0 15 0 15 15 0 15 0 0 20 0 20 -15 0 -15 0 0 15 0 15
15 0 15 0 0 15 0 15 -15 0 -15 0 0 -15 0 -15 -15 0 -15 0 0 15 0 15 -20 0 -20
0 0 -15 0 -15 -15 0 -15 0 0 15 0 15 -15 0 -15 0 0 -15 0 -15 -15 0 -15 0 0
15 0 15 -15 0 -15 0 0 -15 0 -15 -20 0 -20 0 0 15 0 15 -15 0 -15 0 0 -15 0
-15 -15 0 -15 0 0 15 0 15 -15 0 -15 0 0 -15 0 -15 -15 0 -15 0 0 15 0 15 -20
0 -20 0 0 -15 0 -15 -15 0 -15 0 0 15 0 15 -15 0 -15 0 0 -15 0 -15 -15 0 -15
0 0 15 0 15 -15 0 -15 0 0 -15 0 -15 -20 0 -20 0 0 15 0 15 -15 0 -15 0 0 -15
0 -15 -15 0 -15 0 0 15 0 15 -15 0 -15 0 0 -15 0 -15 -15 0 -15 0 0 15 0 15
-20 0 -20 0 0 -15 0 -15 -15 0 -15 0 0 15 0 15 -15 0 -15 0 0 -15 0 -15 -15 0
-15 0 0 15 0 15 -15 0 -15 0 0 -15 0 -15 -20 0 -20 0 0 15 0 15 -15 0 -15 0 0
-15 0 -15 -15 0 -15 0 0 15 0 15 -15 0 -15 0 0 -15 0 -15 -15 0 -15 0 0 15 0
15 -20 0 -20 0 0 -15 0 -15 -15 0 -15 0 0 15 0 15 -15 0 -15 0 0 -15 0 -15
-15 0 -15 0 0 15 0 15 -15 0 -15 0 0 -15 0 -15 -20 0 -20 0 0 15 0 15 -15 0
-15 0 0 -15z m30 -30 l0 -15 20 0 20 0 0 15 0 15 15 0 15 0 0 -15 0 -15 15 0
15 0 0 15 0 15 15 0 15 0 0 -15 0 -15 15 0 15 0 0 15 0 15 20 0 20 0 0 -15 0
-15 15 0 15 0 0 15 0 15 15 0 15 0 0 -15 0 -15 15 0 15 0 0 15 0 15 15 0 15 0
0 -15 0 -15 20 0 20 0 0 15 0 15 15 0 15 0 0 -15 0 -15 15 0 15 0 0 15 0 15
15 0 15 0 0 -15 0 -15 15 0 15 0 0 15 0 15 20 0 20 0 0 -15 0 -15 15 0 15 0 0
15 0 15 15 0 15 0 0 -15 0 -15 15 0 15 0 0 15 0 15 15 0 15 0 0 -15 0 -15 20
0 20 0 0 15 0 15 15 0 15 0 0 -15 0 -15 15 0 15 0 0 15 0 15 15 0 15 0 0 -15
0 -15 15 0 15 0 0 15 0 15 20 0 20 0 0 -15 0 -15 15 0 15 0 0 15 0 15 15 0 15
0 0 -15 0 -15 15 0 15 0 0 15 0 15 15 0 15 0 0 -15 0 -15 20 0 20 0 0 15 0 15
15 0 15 0 0 -15 0 -15 15 0 15 0 0 15 0 15 15 0 15 0 0 -15 0 -15 15 0 15 0 0
15 0 15 20 0 20 0 0 -15 0 -15 15 0 15 0 0 -20 0 -20 -15 0 -15 0 0 -15 0 -15
15 0 15 0 0 -15 0 -15 -15 0 -15 0 0 -15 0 -15 15 0 15 0 0 -15 0 -15 -15 0
-15 0 0 -20 0 -20 15 0 15 0 0 -15 0 -15 -15 0 -15 0 0 15 0 15 -20 0 -20 0 0
20 0 20 -15 0 -15 0 0 15 0 15 -15 0 -15 0 0 -15 0 -15 -15 0 -15 0 0 15 0 15
-15 0 -15 0 0 15 0 15 -20 0 -20 0 0 -15 0 -15 -15 0 -15 0 0 -15 0 -15 -15 0
-15 0 0 -20 0 -20 -15 0 -15 0 0 -15 0 -15 -15 0 -15 0 0 -15 0 -15 -20 0 -20
0 0 15 0 15 -15 0 -15 0 0 15 0 15 -15 0 -15 0 0 20 0 20 -15 0 -15 0 0 15 0
15 -15 0 -15 0 0 15 0 15 -20 0 -20 0 0 15 0 15 -15 0 -15 0 0 15 0 15 -15 0
-15 0 0 -15 0 -15 -15 0 -15 0 0 15 0 15 -15 0 -15 0 0 -15 0 -15 -20 0 -20 0
0 -15 0 -15 -15 0 -15 0 0 15 0 15 -15 0 -15 0 0 -15 0 -15 -15 0 -15 0 0 -15
0 -15 15 0 15 0 0 -15 0 -15 -15 0 -15 0 0 15 0 15 -15 0 -15 0 0 15 0 15 -20
0 -20 0 0 -15 0 -15 -15 0 -15 0 0 -15 0 -15 -15 0 -15 0 0 15 0 15 -15 0 -15
0 0 -15 0 -15 -15 0 -15 0 0 15 0 15 -20 0 -20 0 0 -15 0 -15 -15 0 -15 0 0
15 0 15 -15 0 -15 0 0 -15 0 -15 -15 0 -15 0 0 -20 0 -20 -15 0 -15 0 0 -15 0
-15 -20 0 -20 0 0 -15 0 -15 -15 0 -15 0 0 15 0 15 15 0 15 0 0 15 0 15 -15 0
-15 0 0 20 0 20 15 0 15 0 0 15 0 15 -15 0 -15 0 0 15 0 15 15 0 15 0 0 15 0
15 -15 0 -15 0 0 15 0 15 15 0 15 0 0 20 0 20 -15 0 -15 0 0 15 0 15 15 0 15
0 0 -15z m1190 -290 l0 -15 -15 0 -15 0 0 15 0 15 15 0 15 0 0 -15z m-1190
-30 l0 -15 -15 0 -15 0 0 15 0 15 15 0 15 0 0 -15z"/>
<path d="M100 1200 l0 -20 -20 0 -20 0 0 -15 0 -15 20 0 20 0 0 -15 0 -15 -20
0 -20 0 0 -15 0 -15 20 0 20 0 0 -15 0 -15 -20 0 -20 0 0 -20 0 -20 20 0 20 0
0 20 0 20 15 0 15 0 0 15 0 15 15 0 15 0 0 15 0 15 15 0 15 0 0 -15 0 -15 15
0 15 0 0 15 0 15 20 0 20 0 0 -15 0 -15 15 0 15 0 0 15 0 15 15 0 15 0 0 -15
0 -15 15 0 15 0 0 15 0 15 15 0 15 0 0 15 0 15 20 0 20 0 0 -15 0 -15 15 0 15
0 0 15 0 15 15 0 15 0 0 15 0 15 15 0 15 0 0 -15 0 -15 15 0 15 0 0 15 0 15
20 0 20 0 0 20 0 20 -20 0 -20 0 0 -20 0 -20 -15 0 -15 0 0 20 0 20 -15 0 -15
0 0 -20 0 -20 -15 0 -15 0 0 20 0 20 -15 0 -15 0 0 -20 0 -20 -20 0 -20 0 0
20 0 20 -15 0 -15 0 0 -20 0 -20 -15 0 -15 0 0 20 0 20 -15 0 -15 0 0 -20 0
-20 -15 0 -15 0 0 -15 0 -15 -20 0 -20 0 0 15 0 15 -15 0 -15 0 0 20 0 20 -15
0 -15 0 0 -20 0 -20 -15 0 -15 0 0 20 0 20 -15 0 -15 0 0 -20z m30 -35 l0 -15
15 0 15 0 0 15 0 15 15 0 15 0 0 -15 0 -15 15 0 15 0 0 -15 0 -15 -15 0 -15 0
0 15 0 15 -15 0 -15 0 0 -15 0 -15 -15 0 -15 0 0 -15 0 -15 -15 0 -15 0 0 15
0 15 15 0 15 0 0 15 0 15 -15 0 -15 0 0 15 0 15 15 0 15 0 0 -15z m190 0 l0
-15 15 0 15 0 0 15 0 15 15 0 15 0 0 -15 0 -15 -15 0 -15 0 0 -15 0 -15 -15 0
-15 0 0 15 0 15 -15 0 -15 0 0 -15 0 -15 -15 0 -15 0 0 15 0 15 15 0 15 0 0
15 0 15 15 0 15 0 0 -15z m130 0 l0 -15 -15 0 -15 0 0 15 0 15 15 0 15 0 0
-15z"/>
<path d="M220 1200 l0 -20 20 0 20 0 0 20 0 20 -20 0 -20 0 0 -20z"/>
<path d="M610 1200 l0 -20 15 0 15 0 0 20 0 20 -15 0 -15 0 0 -20z"/>
<path d="M670 1200 l0 -20 15 0 15 0 0 -15 0 -15 20 0 20 0 0 -15 0 -15 15 0
15 0 0 -15 0 -15 15 0 15 0 0 -15 0 -15 15 0 15 0 0 -20 0 -20 15 0 15 0 0
-15 0 -15 20 0 20 0 0 15 0 15 15 0 15 0 0 20 0 20 15 0 15 0 0 15 0 15 15 0
15 0 0 15 0 15 15 0 15 0 0 15 0 15 20 0 20 0 0 -15 0 -15 15 0 15 0 0 -15 0
-15 15 0 15 0 0 15 0 15 15 0 15 0 0 -15 0 -15 15 0 15 0 0 -15 0 -15 20 0 20
0 0 15 0 15 -20 0 -20 0 0 15 0 15 20 0 20 0 0 15 0 15 -20 0 -20 0 0 15 0 15
-15 0 -15 0 0 20 0 20 -15 0 -15 0 0 -20 0 -20 -15 0 -15 0 0 20 0 20 -15 0
-15 0 0 -20 0 -20 -20 0 -20 0 0 20 0 20 -15 0 -15 0 0 -20 0 -20 -15 0 -15 0
0 20 0 20 -15 0 -15 0 0 -20 0 -20 -15 0 -15 0 0 -15 0 -15 -20 0 -20 0 0 15
0 15 -15 0 -15 0 0 20 0 20 -15 0 -15 0 0 -20 0 -20 -15 0 -15 0 0 20 0 20
-15 0 -15 0 0 -20 0 -20 -20 0 -20 0 0 20 0 20 -15 0 -15 0 0 -20z m100 -35
l0 -15 15 0 15 0 0 15 0 15 15 0 15 0 0 -15 0 -15 15 0 15 0 0 -15 0 -15 20 0
20 0 0 15 0 15 15 0 15 0 0 15 0 15 15 0 15 0 0 -15 0 -15 15 0 15 0 0 15 0
15 15 0 15 0 0 -15 0 -15 -15 0 -15 0 0 -15 0 -15 -15 0 -15 0 0 -15 0 -15
-15 0 -15 0 0 -15 0 -15 -15 0 -15 0 0 -20 0 -20 -20 0 -20 0 0 20 0 20 -15 0
-15 0 0 15 0 15 -15 0 -15 0 0 15 0 15 -15 0 -15 0 0 15 0 15 -15 0 -15 0 0
15 0 15 15 0 15 0 0 -15z m320 0 l0 -15 15 0 15 0 0 15 0 15 15 0 15 0 0 -15
0 -15 15 0 15 0 0 -15 0 -15 -15 0 -15 0 0 15 0 15 -15 0 -15 0 0 -15 0 -15
-15 0 -15 0 0 15 0 15 -15 0 -15 0 0 15 0 15 15 0 15 0 0 -15z"/>
<path d="M800 1135 l0 -15 15 0 15 0 0 -15 0 -15 15 0 15 0 0 -15 0 -15 20 0
20 0 0 15 0 15 15 0 15 0 0 15 0 15 15 0 15 0 0 15 0 15 -15 0 -15 0 0 -15 0
-15 -15 0 -15 0 0 -15 0 -15 -20 0 -20 0 0 15 0 15 -15 0 -15 0 0 15 0 15 -15
0 -15 0 0 -15z"/>
<path d="M860 1200 l0 -20 20 0 20 0 0 20 0 20 -20 0 -20 0 0 -20z"/>
<path d="M1180 1200 l0 -20 20 0 20 0 0 20 0 20 -20 0 -20 0 0 -20z"/>
<path d="M580 1105 l0 -15 -20 0 -20 0 0 -15 0 -15 -15 0 -15 0 0 -20 0 -20
-15 0 -15 0 0 -15 0 -15 -15 0 -15 0 0 15 0 15 -15 0 -15 0 0 20 0 20 -20 0
-20 0 0 -20 0 -20 20 0 20 0 0 -15 0 -15 15 0 15 0 0 -15 0 -15 -15 0 -15 0 0
-15 0 -15 -20 0 -20 0 0 -15 0 -15 -15 0 -15 0 0 15 0 15 -15 0 -15 0 0 15 0
15 -15 0 -15 0 0 15 0 15 -15 0 -15 0 0 15 0 15 -20 0 -20 0 0 -15 0 -15 -15
0 -15 0 0 -15 0 -15 -15 0 -15 0 0 -15 0 -15 -15 0 -15 0 0 -15 0 -15 -15 0
-15 0 0 -20 0 -20 -20 0 -20 0 0 -15 0 -15 -15 0 -15 0 0 -15 0 -15 -15 0 -15
0 0 -30 0 -30 15 0 15 0 0 15 0 15 15 0 15 0 0 15 0 15 20 0 20 0 0 15 0 15
15 0 15 0 0 15 0 15 15 0 15 0 0 20 0 20 15 0 15 0 0 15 0 15 15 0 15 0 0 15
0 15 20 0 20 0 0 -15 0 -15 15 0 15 0 0 -15 0 -15 15 0 15 0 0 -20 0 -20 15 0
15 0 0 -15 0 -15 15 0 15 0 0 15 0 15 20 0 20 0 0 20 0 20 15 0 15 0 0 15 0
15 15 0 15 0 0 15 0 15 15 0 15 0 0 15 0 15 15 0 15 0 0 15 0 15 20 0 20 0 0
20 0 20 15 0 15 0 0 -20 0 -20 15 0 15 0 0 -15 0 -15 15 0 15 0 0 -15 0 -15
15 0 15 0 0 -15 0 -15 20 0 20 0 0 -15 0 -15 15 0 15 0 0 -20 0 -20 15 0 15 0
0 -15 0 -15 15 0 15 0 0 -15 0 -15 15 0 15 0 0 -15 0 -15 20 0 20 0 0 15 0 15
15 0 15 0 0 15 0 15 15 0 15 0 0 15 0 15 15 0 15 0 0 20 0 20 15 0 15 0 0 15
0 15 20 0 20 0 0 15 0 15 15 0 15 0 0 -15 0 -15 15 0 15 0 0 -15 0 -15 15 0
15 0 0 -20 0 -20 15 0 15 0 0 -15 0 -15 20 0 20 0 0 -15 0 -15 15 0 15 0 0
-15 0 -15 15 0 15 0 0 30 0 30 -15 0 -15 0 0 15 0 15 -15 0 -15 0 0 20 0 20
-20 0 -20 0 0 15 0 15 -15 0 -15 0 0 15 0 15 -15 0 -15 0 0 15 0 15 -15 0 -15
0 0 15 0 15 -15 0 -15 0 0 -15 0 -15 -20 0 -20 0 0 -15 0 -15 -15 0 -15 0 0
-15 0 -15 -15 0 -15 0 0 -15 0 -15 -15 0 -15 0 0 -20 0 -20 -15 0 -15 0 0 -15
0 -15 -20 0 -20 0 0 15 0 15 -15 0 -15 0 0 20 0 20 -15 0 -15 0 0 15 0 15 -15
0 -15 0 0 15 0 15 -15 0 -15 0 0 15 0 15 -20 0 -20 0 0 15 0 15 -15 0 -15 0 0
20 0 20 -15 0 -15 0 0 15 0 15 -15 0 -15 0 0 15 0 15 -15 0 -15 0 0 -15z"/>
<path d="M700 1040 l0 -20 20 0 20 0 0 20 0 20 -20 0 -20 0 0 -20z"/>
<path d="M1020 1040 l0 -20 20 0 20 0 0 20 0 20 -20 0 -20 0 0 -20z"/>
<path d="M580 880 l0 -20 -20 0 -20 0 0 -15 0 -15 -15 0 -15 0 0 -15 0 -15
-15 0 -15 0 0 -15 0 -15 -15 0 -15 0 0 -15 0 -15 -15 0 -15 0 0 -20 0 -20 -20
0 -20 0 0 -15 0 -15 -15 0 -15 0 0 15 0 15 -15 0 -15 0 0 20 0 20 -15 0 -15 0
0 15 0 15 -15 0 -15 0 0 15 0 15 -20 0 -20 0 0 -15 0 -15 -15 0 -15 0 0 -15 0
-15 -15 0 -15 0 0 -20 0 -20 -15 0 -15 0 0 -15 0 -15 -15 0 -15 0 0 -15 0 -15
-20 0 -20 0 0 -15 0 -15 -15 0 -15 0 0 -15 0 -15 -15 0 -15 0 0 -35 0 -35 15
0 15 0 0 -15 0 -15 -15 0 -15 0 0 -15 0 -15 15 0 15 0 0 -15 0 -15 -15 0 -15
0 0 -20 0 -20 15 0 15 0 0 -15 0 -15 -15 0 -15 0 0 -15 0 -15 15 0 15 0 0 -15
0 -15 -15 0 -15 0 0 -15 0 -15 15 0 15 0 0 -20 0 -20 -15 0 -15 0 0 -15 0 -15
15 0 15 0 0 -15 0 -15 -15 0 -15 0 0 -15 0 -15 15 0 15 0 0 -15 0 -15 -15 0
-15 0 0 -20 0 -20 15 0 15 0 0 -15 0 -15 -15 0 -15 0 0 -15 0 -15 15 0 15 0 0
15 0 15 15 0 15 0 0 -15 0 -15 20 0 20 0 0 15 0 15 15 0 15 0 0 -15 0 -15 15
0 15 0 0 15 0 15 15 0 15 0 0 -15 0 -15 15 0 15 0 0 15 0 15 20 0 20 0 0 -15
0 -15 15 0 15 0 0 15 0 15 15 0 15 0 0 -15 0 -15 15 0 15 0 0 15 0 15 15 0 15
0 0 -15 0 -15 20 0 20 0 0 15 0 15 15 0 15 0 0 -15 0 -15 15 0 15 0 0 15 0 15
15 0 15 0 0 -15 0 -15 15 0 15 0 0 15 0 15 20 0 20 0 0 -15 0 -15 15 0 15 0 0
15 0 15 15 0 15 0 0 -15 0 -15 15 0 15 0 0 15 0 15 15 0 15 0 0 -15 0 -15 20
0 20 0 0 15 0 15 15 0 15 0 0 -15 0 -15 15 0 15 0 0 15 0 15 15 0 15 0 0 -15
0 -15 15 0 15 0 0 15 0 15 20 0 20 0 0 -15 0 -15 15 0 15 0 0 15 0 15 15 0 15
0 0 -15 0 -15 15 0 15 0 0 15 0 15 15 0 15 0 0 -15 0 -15 20 0 20 0 0 15 0 15
15 0 15 0 0 -15 0 -15 15 0 15 0 0 15 0 15 15 0 15 0 0 -15 0 -15 15 0 15 0 0
15 0 15 20 0 20 0 0 -15 0 -15 15 0 15 0 0 15 0 15 15 0 15 0 0 15 0 15 -15 0
-15 0 0 20 0 20 15 0 15 0 0 15 0 15 -15 0 -15 0 0 15 0 15 15 0 15 0 0 15 0
15 -15 0 -15 0 0 15 0 15 15 0 15 0 0 20 0 20 -15 0 -15 0 0 15 0 15 15 0 15
0 0 15 0 15 -15 0 -15 0 0 15 0 15 15 0 15 0 0 15 0 15 -15 0 -15 0 0 20 0 20
15 0 15 0 0 15 0 15 -15 0 -15 0 0 15 0 15 15 0 15 0 0 15 0 15 -15 0 -15 0 0
15 0 15 15 0 15 0 0 35 0 35 -15 0 -15 0 0 15 0 15 -15 0 -15 0 0 15 0 15 -20
0 -20 0 0 15 0 15 -15 0 -15 0 0 20 0 20 -15 0 -15 0 0 15 0 15 -15 0 -15 0 0
15 0 15 -15 0 -15 0 0 -15 0 -15 -20 0 -20 0 0 -15 0 -15 -15 0 -15 0 0 -20 0
-20 -15 0 -15 0 0 -15 0 -15 -15 0 -15 0 0 -15 0 -15 -15 0 -15 0 0 -15 0 -15
-20 0 -20 0 0 15 0 15 -15 0 -15 0 0 15 0 15 -15 0 -15 0 0 15 0 15 -15 0 -15
0 0 20 0 20 -15 0 -15 0 0 15 0 15 -20 0 -20 0 0 15 0 15 -15 0 -15 0 0 15 0
15 -15 0 -15 0 0 15 0 15 -15 0 -15 0 0 20 0 20 -15 0 -15 0 0 -20z m30 -65
l0 -15 15 0 15 0 0 -15 0 -15 15 0 15 0 0 -15 0 -15 15 0 15 0 0 -20 0 -20 20
0 20 0 0 -15 0 -15 15 0 15 0 0 -15 0 -15 15 0 15 0 0 -15 0 -15 15 0 15 0 0
-15 0 -15 15 0 15 0 0 -20 0 -20 20 0 20 0 0 20 0 20 15 0 15 0 0 15 0 15 15
0 15 0 0 15 0 15 15 0 15 0 0 15 0 15 15 0 15 0 0 15 0 15 20 0 20 0 0 20 0
20 15 0 15 0 0 -20 0 -20 15 0 15 0 0 -15 0 -15 15 0 15 0 0 -15 0 -15 15 0
15 0 0 -15 0 -15 20 0 20 0 0 -15 0 -15 15 0 15 0 0 -20 0 -20 -15 0 -15 0 0
-15 0 -15 15 0 15 0 0 -15 0 -15 -15 0 -15 0 0 -15 0 -15 15 0 15 0 0 -15 0
-15 -15 0 -15 0 0 -20 0 -20 15 0 15 0 0 -15 0 -15 -15 0 -15 0 0 -15 0 -15
15 0 15 0 0 -15 0 -15 -15 0 -15 0 0 -15 0 -15 15 0 15 0 0 -20 0 -20 -15 0
-15 0 0 -15 0 -15 15 0 15 0 0 -15 0 -15 -15 0 -15 0 0 -15 0 -15 15 0 15 0 0
-15 0 -15 -15 0 -15 0 0 -20 0 -20 15 0 15 0 0 -15 0 -15 -15 0 -15 0 0 15 0
15 -20 0 -20 0 0 -15 0 -15 -15 0 -15 0 0 15 0 15 -15 0 -15 0 0 -15 0 -15
-15 0 -15 0 0 15 0 15 -15 0 -15 0 0 -15 0 -15 -20 0 -20 0 0 15 0 15 -15 0
-15 0 0 -15 0 -15 -15 0 -15 0 0 15 0 15 -15 0 -15 0 0 -15 0 -15 -15 0 -15 0
0 15 0 15 -20 0 -20 0 0 -15 0 -15 -15 0 -15 0 0 15 0 15 -15 0 -15 0 0 -15 0
-15 -15 0 -15 0 0 15 0 15 -15 0 -15 0 0 -15 0 -15 -20 0 -20 0 0 15 0 15 -15
0 -15 0 0 -15 0 -15 -15 0 -15 0 0 15 0 15 -15 0 -15 0 0 -15 0 -15 -15 0 -15
0 0 15 0 15 -20 0 -20 0 0 -15 0 -15 -15 0 -15 0 0 15 0 15 -15 0 -15 0 0 -15
0 -15 -15 0 -15 0 0 15 0 15 -15 0 -15 0 0 -15 0 -15 -20 0 -20 0 0 15 0 15
-15 0 -15 0 0 -15 0 -15 -15 0 -15 0 0 15 0 15 -15 0 -15 0 0 -15 0 -15 -15 0
-15 0 0 15 0 15 -20 0 -20 0 0 -15 0 -15 -15 0 -15 0 0 15 0 15 -15 0 -15 0 0
-15 0 -15 -15 0 -15 0 0 15 0 15 -15 0 -15 0 0 -15 0 -15 -20 0 -20 0 0 15 0
15 -15 0 -15 0 0 20 0 20 15 0 15 0 0 15 0 15 -15 0 -15 0 0 15 0 15 15 0 15
0 0 15 0 15 -15 0 -15 0 0 15 0 15 15 0 15 0 0 20 0 20 -15 0 -15 0 0 15 0 15
15 0 15 0 0 15 0 15 -15 0 -15 0 0 15 0 15 15 0 15 0 0 15 0 15 -15 0 -15 0 0
20 0 20 15 0 15 0 0 15 0 15 -15 0 -15 0 0 15 0 15 15 0 15 0 0 15 0 15 -15 0
-15 0 0 15 0 15 15 0 15 0 0 20 0 20 20 0 20 0 0 15 0 15 15 0 15 0 0 15 0 15
15 0 15 0 0 15 0 15 15 0 15 0 0 15 0 15 15 0 15 0 0 20 0 20 20 0 20 0 0 -20
0 -20 15 0 15 0 0 -15 0 -15 15 0 15 0 0 -15 0 -15 15 0 15 0 0 -15 0 -15 15
0 15 0 0 15 0 15 20 0 20 0 0 15 0 15 15 0 15 0 0 15 0 15 15 0 15 0 0 20 0
20 15 0 15 0 0 15 0 15 15 0 15 0 0 15 0 15 20 0 20 0 0 15 0 15 15 0 15 0 0
-15z"/>
<path d="M580 785 l0 -15 -20 0 -20 0 0 -15 0 -15 -15 0 -15 0 0 -20 0 -20
-15 0 -15 0 0 -15 0 -15 -15 0 -15 0 0 -15 0 -15 -15 0 -15 0 0 -15 0 -15 -20
0 -20 0 0 -15 0 -15 -15 0 -15 0 0 15 0 15 -15 0 -15 0 0 15 0 15 -15 0 -15 0
0 15 0 15 -15 0 -15 0 0 15 0 15 -20 0 -20 0 0 -15 0 -15 -15 0 -15 0 0 -15 0
-15 -15 0 -15 0 0 -15 0 -15 -15 0 -15 0 0 -15 0 -15 -15 0 -15 0 0 -20 0 -20
-20 0 -20 0 0 -15 0 -15 20 0 20 0 0 -15 0 -15 -20 0 -20 0 0 -15 0 -15 20 0
20 0 0 -15 0 -15 15 0 15 0 0 -20 0 -20 -15 0 -15 0 0 -15 0 -15 -20 0 -20 0
0 -15 0 -15 20 0 20 0 0 -15 0 -15 -20 0 -20 0 0 -15 0 -15 20 0 20 0 0 -20 0
-20 -20 0 -20 0 0 -15 0 -15 20 0 20 0 0 -15 0 -15 -20 0 -20 0 0 -15 0 -15
20 0 20 0 0 -15 0 -15 15 0 15 0 0 -20 0 -20 15 0 15 0 0 20 0 20 15 0 15 0 0
-20 0 -20 15 0 15 0 0 20 0 20 20 0 20 0 0 -20 0 -20 15 0 15 0 0 20 0 20 15
0 15 0 0 -20 0 -20 15 0 15 0 0 20 0 20 15 0 15 0 0 15 0 15 20 0 20 0 0 -15
0 -15 15 0 15 0 0 -20 0 -20 15 0 15 0 0 20 0 20 15 0 15 0 0 -20 0 -20 15 0
15 0 0 20 0 20 20 0 20 0 0 -20 0 -20 15 0 15 0 0 20 0 20 15 0 15 0 0 -20 0
-20 15 0 15 0 0 20 0 20 15 0 15 0 0 15 0 15 20 0 20 0 0 -15 0 -15 15 0 15 0
0 -20 0 -20 15 0 15 0 0 20 0 20 15 0 15 0 0 -20 0 -20 15 0 15 0 0 20 0 20
20 0 20 0 0 -20 0 -20 15 0 15 0 0 20 0 20 15 0 15 0 0 -20 0 -20 15 0 15 0 0
20 0 20 15 0 15 0 0 15 0 15 20 0 20 0 0 -15 0 -15 15 0 15 0 0 -20 0 -20 15
0 15 0 0 20 0 20 15 0 15 0 0 -20 0 -20 15 0 15 0 0 20 0 20 20 0 20 0 0 15 0
15 -20 0 -20 0 0 15 0 15 20 0 20 0 0 15 0 15 -20 0 -20 0 0 15 0 15 -15 0
-15 0 0 20 0 20 15 0 15 0 0 15 0 15 20 0 20 0 0 15 0 15 -20 0 -20 0 0 15 0
15 20 0 20 0 0 15 0 15 -20 0 -20 0 0 20 0 20 20 0 20 0 0 15 0 15 -20 0 -20
0 0 15 0 15 20 0 20 0 0 15 0 15 -20 0 -20 0 0 15 0 15 -15 0 -15 0 0 20 0 20
15 0 15 0 0 -20 0 -20 20 0 20 0 0 20 0 20 -20 0 -20 0 0 15 0 15 -15 0 -15 0
0 15 0 15 -15 0 -15 0 0 15 0 15 -15 0 -15 0 0 15 0 15 -15 0 -15 0 0 -15 0
-15 -20 0 -20 0 0 -15 0 -15 -15 0 -15 0 0 -15 0 -15 -15 0 -15 0 0 -15 0 -15
-15 0 -15 0 0 -20 0 -20 -15 0 -15 0 0 -15 0 -15 -20 0 -20 0 0 15 0 15 -15 0
-15 0 0 20 0 20 -15 0 -15 0 0 15 0 15 -15 0 -15 0 0 15 0 15 -15 0 -15 0 0
15 0 15 -20 0 -20 0 0 15 0 15 -15 0 -15 0 0 20 0 20 -15 0 -15 0 0 15 0 15
-15 0 -15 0 0 15 0 15 -15 0 -15 0 0 -15z m30 -30 l0 -15 15 0 15 0 0 -20 0
-20 15 0 15 0 0 -15 0 -15 15 0 15 0 0 -15 0 -15 20 0 20 0 0 -15 0 -15 15 0
15 0 0 -15 0 -15 15 0 15 0 0 -20 0 -20 15 0 15 0 0 -15 0 -15 15 0 15 0 0
-15 0 -15 20 0 20 0 0 15 0 15 15 0 15 0 0 15 0 15 15 0 15 0 0 20 0 20 15 0
15 0 0 15 0 15 15 0 15 0 0 15 0 15 20 0 20 0 0 15 0 15 15 0 15 0 0 -15 0
-15 15 0 15 0 0 -15 0 -15 15 0 15 0 0 -15 0 -15 -15 0 -15 0 0 -20 0 -20 15
0 15 0 0 -15 0 -15 15 0 15 0 0 -15 0 -15 -15 0 -15 0 0 -15 0 -15 15 0 15 0
0 -15 0 -15 -15 0 -15 0 0 -20 0 -20 15 0 15 0 0 -15 0 -15 -15 0 -15 0 0 -15
0 -15 15 0 15 0 0 -15 0 -15 -15 0 -15 0 0 -15 0 -15 -15 0 -15 0 0 -20 0 -20
15 0 15 0 0 -15 0 -15 15 0 15 0 0 -15 0 -15 -15 0 -15 0 0 -15 0 -15 15 0 15
0 0 -15 0 -15 -15 0 -15 0 0 15 0 15 -15 0 -15 0 0 -15 0 -15 -15 0 -15 0 0
15 0 15 -15 0 -15 0 0 15 0 15 -20 0 -20 0 0 -15 0 -15 -15 0 -15 0 0 -15 0
-15 -15 0 -15 0 0 15 0 15 -15 0 -15 0 0 -15 0 -15 -15 0 -15 0 0 15 0 15 -20
0 -20 0 0 -15 0 -15 -15 0 -15 0 0 15 0 15 -15 0 -15 0 0 -15 0 -15 -15 0 -15
0 0 15 0 15 -15 0 -15 0 0 15 0 15 -20 0 -20 0 0 -15 0 -15 -15 0 -15 0 0 -15
0 -15 -15 0 -15 0 0 15 0 15 -15 0 -15 0 0 -15 0 -15 -15 0 -15 0 0 15 0 15
-20 0 -20 0 0 -15 0 -15 -15 0 -15 0 0 15 0 15 -15 0 -15 0 0 -15 0 -15 -15 0
-15 0 0 15 0 15 -15 0 -15 0 0 15 0 15 -20 0 -20 0 0 -15 0 -15 -15 0 -15 0 0
-15 0 -15 -15 0 -15 0 0 15 0 15 -15 0 -15 0 0 -15 0 -15 -15 0 -15 0 0 15 0
15 -20 0 -20 0 0 -15 0 -15 -15 0 -15 0 0 15 0 15 -15 0 -15 0 0 -15 0 -15
-15 0 -15 0 0 15 0 15 -15 0 -15 0 0 15 0 15 15 0 15 0 0 15 0 15 -15 0 -15 0
0 15 0 15 15 0 15 0 0 20 0 20 -15 0 -15 0 0 15 0 15 15 0 15 0 0 15 0 15 -15
0 -15 0 0 15 0 15 15 0 15 0 0 15 0 15 15 0 15 0 0 20 0 20 -15 0 -15 0 0 15
0 15 -15 0 -15 0 0 15 0 15 15 0 15 0 0 15 0 15 -15 0 -15 0 0 15 0 15 15 0
15 0 0 20 0 20 15 0 15 0 0 15 0 15 15 0 15 0 0 15 0 15 15 0 15 0 0 15 0 15
20 0 20 0 0 -15 0 -15 15 0 15 0 0 -15 0 -15 15 0 15 0 0 -15 0 -15 15 0 15 0
0 -20 0 -20 15 0 15 0 0 -15 0 -15 20 0 20 0 0 15 0 15 15 0 15 0 0 20 0 20
-15 0 -15 0 0 -20 0 -20 -20 0 -20 0 0 20 0 20 20 0 20 0 0 15 0 15 15 0 15 0
0 15 0 15 15 0 15 0 0 15 0 15 15 0 15 0 0 15 0 15 15 0 15 0 0 20 0 20 20 0
20 0 0 15 0 15 15 0 15 0 0 -15z"/>
<path d="M580 720 l0 -20 -20 0 -20 0 0 -15 0 -15 -15 0 -15 0 0 -15 0 -15
-15 0 -15 0 0 -15 0 -15 -15 0 -15 0 0 -15 0 -15 15 0 15 0 0 -20 0 -20 -15 0
-15 0 0 -15 0 -15 -15 0 -15 0 0 -15 0 -15 -20 0 -20 0 0 15 0 15 -15 0 -15 0
0 15 0 15 -15 0 -15 0 0 20 0 20 -15 0 -15 0 0 15 0 15 -15 0 -15 0 0 15 0 15
-20 0 -20 0 0 -15 0 -15 -15 0 -15 0 0 -15 0 -15 -15 0 -15 0 0 -20 0 -20 -15
0 -15 0 0 -15 0 -15 15 0 15 0 0 -15 0 -15 -15 0 -15 0 0 -15 0 -15 15 0 15 0
0 -15 0 -15 15 0 15 0 0 -20 0 -20 -15 0 -15 0 0 -15 0 -15 -15 0 -15 0 0 -15
0 -15 15 0 15 0 0 -15 0 -15 -15 0 -15 0 0 -15 0 -15 15 0 15 0 0 -20 0 -20
-15 0 -15 0 0 -15 0 -15 15 0 15 0 0 -15 0 -15 -15 0 -15 0 0 -15 0 -15 15 0
15 0 0 15 0 15 15 0 15 0 0 -15 0 -15 15 0 15 0 0 15 0 15 20 0 20 0 0 -15 0
-15 15 0 15 0 0 15 0 15 15 0 15 0 0 -15 0 -15 15 0 15 0 0 15 0 15 15 0 15 0
0 15 0 15 20 0 20 0 0 -15 0 -15 15 0 15 0 0 -15 0 -15 15 0 15 0 0 15 0 15
15 0 15 0 0 -15 0 -15 15 0 15 0 0 15 0 15 20 0 20 0 0 -15 0 -15 15 0 15 0 0
15 0 15 15 0 15 0 0 -15 0 -15 15 0 15 0 0 15 0 15 15 0 15 0 0 15 0 15 20 0
20 0 0 -15 0 -15 15 0 15 0 0 -15 0 -15 15 0 15 0 0 15 0 15 15 0 15 0 0 -15
0 -15 15 0 15 0 0 15 0 15 20 0 20 0 0 -15 0 -15 15 0 15 0 0 15 0 15 15 0 15
0 0 -15 0 -15 15 0 15 0 0 15 0 15 15 0 15 0 0 15 0 15 20 0 20 0 0 -15 0 -15
15 0 15 0 0 -15 0 -15 15 0 15 0 0 15 0 15 15 0 15 0 0 15 0 15 -15 0 -15 0 0
15 0 15 -15 0 -15 0 0 20 0 20 15 0 15 0 0 15 0 15 15 0 15 0 0 15 0 15 -15 0
-15 0 0 15 0 15 15 0 15 0 0 15 0 15 -15 0 -15 0 0 20 0 20 15 0 15 0 0 15 0
15 -15 0 -15 0 0 15 0 15 15 0 15 0 0 15 0 15 -15 0 -15 0 0 15 0 15 -15 0
-15 0 0 20 0 20 15 0 15 0 0 15 0 15 -15 0 -15 0 0 15 0 15 -15 0 -15 0 0 -15
0 -15 -20 0 -20 0 0 -15 0 -15 -15 0 -15 0 0 -20 0 -20 -15 0 -15 0 0 -15 0
-15 -15 0 -15 0 0 -15 0 -15 -15 0 -15 0 0 -15 0 -15 -20 0 -20 0 0 15 0 15
-15 0 -15 0 0 15 0 15 -15 0 -15 0 0 15 0 15 -15 0 -15 0 0 20 0 20 -15 0 -15
0 0 15 0 15 -20 0 -20 0 0 15 0 15 -15 0 -15 0 0 15 0 15 -15 0 -15 0 0 15 0
15 -15 0 -15 0 0 20 0 20 -15 0 -15 0 0 -20z m30 -35 l0 -15 15 0 15 0 0 -15
0 -15 15 0 15 0 0 -15 0 -15 15 0 15 0 0 -15 0 -15 20 0 20 0 0 -20 0 -20 15
0 15 0 0 -15 0 -15 15 0 15 0 0 -15 0 -15 15 0 15 0 0 -15 0 -15 15 0 15 0 0
-15 0 -15 20 0 20 0 0 15 0 15 15 0 15 0 0 15 0 15 15 0 15 0 0 15 0 15 15 0
15 0 0 15 0 15 15 0 15 0 0 20 0 20 20 0 20 0 0 15 0 15 15 0 15 0 0 -15 0
-15 -15 0 -15 0 0 -20 0 -20 15 0 15 0 0 -15 0 -15 15 0 15 0 0 -15 0 -15 -15
0 -15 0 0 -15 0 -15 15 0 15 0 0 -15 0 -15 -15 0 -15 0 0 -20 0 -20 15 0 15 0
0 -15 0 -15 -15 0 -15 0 0 -15 0 -15 15 0 15 0 0 -15 0 -15 -15 0 -15 0 0 -15
0 -15 -15 0 -15 0 0 -20 0 -20 15 0 15 0 0 -15 0 -15 15 0 15 0 0 -15 0 -15
-15 0 -15 0 0 15 0 15 -15 0 -15 0 0 15 0 15 -20 0 -20 0 0 -15 0 -15 -15 0
-15 0 0 -15 0 -15 -15 0 -15 0 0 15 0 15 -15 0 -15 0 0 -15 0 -15 -15 0 -15 0
0 15 0 15 -20 0 -20 0 0 -15 0 -15 -15 0 -15 0 0 15 0 15 -15 0 -15 0 0 -15 0
-15 -15 0 -15 0 0 15 0 15 -15 0 -15 0 0 15 0 15 -20 0 -20 0 0 -15 0 -15 -15
0 -15 0 0 -15 0 -15 -15 0 -15 0 0 15 0 15 -15 0 -15 0 0 -15 0 -15 -15 0 -15
0 0 15 0 15 -20 0 -20 0 0 -15 0 -15 -15 0 -15 0 0 15 0 15 -15 0 -15 0 0 -15
0 -15 -15 0 -15 0 0 15 0 15 -15 0 -15 0 0 15 0 15 -20 0 -20 0 0 -15 0 -15
-15 0 -15 0 0 -15 0 -15 -15 0 -15 0 0 15 0 15 -15 0 -15 0 0 -15 0 -15 -15 0
-15 0 0 15 0 15 -20 0 -20 0 0 -15 0 -15 -15 0 -15 0 0 15 0 15 -15 0 -15 0 0
15 0 15 15 0 15 0 0 20 0 20 -15 0 -15 0 0 15 0 15 15 0 15 0 0 15 0 15 -15 0
-15 0 0 15 0 15 15 0 15 0 0 15 0 15 15 0 15 0 0 20 0 20 -15 0 -15 0 0 15 0
15 -15 0 -15 0 0 15 0 15 15 0 15 0 0 15 0 15 -15 0 -15 0 0 15 0 15 15 0 15
0 0 20 0 20 15 0 15 0 0 15 0 15 20 0 20 0 0 -15 0 -15 15 0 15 0 0 -20 0 -20
15 0 15 0 0 -15 0 -15 15 0 15 0 0 -15 0 -15 15 0 15 0 0 -15 0 -15 20 0 20 0
0 15 0 15 15 0 15 0 0 15 0 15 15 0 15 0 0 15 0 15 15 0 15 0 0 20 0 20 -15 0
-15 0 0 15 0 15 15 0 15 0 0 15 0 15 15 0 15 0 0 15 0 15 20 0 20 0 0 15 0 15
15 0 15 0 0 -15z"/>
<path d="M580 655 l0 -15 -20 0 -20 0 0 -15 0 -15 -15 0 -15 0 0 -15 0 -15 15
0 15 0 0 -20 0 -20 -15 0 -15 0 0 -15 0 -15 -15 0 -15 0 0 -15 0 -15 -15 0
-15 0 0 -15 0 -15 -15 0 -15 0 0 -15 0 -15 -20 0 -20 0 0 15 0 15 -15 0 -15 0
0 15 0 15 -15 0 -15 0 0 15 0 15 -15 0 -15 0 0 15 0 15 -15 0 -15 0 0 20 0 20
-20 0 -20 0 0 -20 0 -20 -15 0 -15 0 0 -15 0 -15 15 0 15 0 0 -15 0 -15 -15 0
-15 0 0 -15 0 -15 15 0 15 0 0 -15 0 -15 20 0 20 0 0 -20 0 -20 -20 0 -20 0 0
-15 0 -15 -15 0 -15 0 0 -15 0 -15 15 0 15 0 0 -15 0 -15 -15 0 -15 0 0 -15 0
-15 15 0 15 0 0 -20 0 -20 -15 0 -15 0 0 -15 0 -15 15 0 15 0 0 15 0 15 20 0
20 0 0 -15 0 -15 15 0 15 0 0 15 0 15 15 0 15 0 0 -15 0 -15 15 0 15 0 0 15 0
15 15 0 15 0 0 20 0 20 20 0 20 0 0 -20 0 -20 15 0 15 0 0 -15 0 -15 15 0 15
0 0 15 0 15 15 0 15 0 0 -15 0 -15 15 0 15 0 0 15 0 15 20 0 20 0 0 -15 0 -15
15 0 15 0 0 15 0 15 15 0 15 0 0 -15 0 -15 15 0 15 0 0 15 0 15 15 0 15 0 0
20 0 20 20 0 20 0 0 -20 0 -20 15 0 15 0 0 -15 0 -15 15 0 15 0 0 15 0 15 15
0 15 0 0 -15 0 -15 15 0 15 0 0 15 0 15 20 0 20 0 0 -15 0 -15 15 0 15 0 0 15
0 15 15 0 15 0 0 -15 0 -15 15 0 15 0 0 15 0 15 15 0 15 0 0 20 0 20 20 0 20
0 0 15 0 15 15 0 15 0 0 15 0 15 -15 0 -15 0 0 15 0 15 15 0 15 0 0 15 0 15
-15 0 -15 0 0 20 0 20 15 0 15 0 0 15 0 15 -15 0 -15 0 0 15 0 15 15 0 15 0 0
15 0 15 -15 0 -15 0 0 15 0 15 -20 0 -20 0 0 -15 0 -15 -15 0 -15 0 0 -15 0
-15 -15 0 -15 0 0 -15 0 -15 -15 0 -15 0 0 -15 0 -15 -15 0 -15 0 0 -20 0 -20
-20 0 -20 0 0 20 0 20 -15 0 -15 0 0 15 0 15 -15 0 -15 0 0 15 0 15 -15 0 -15
0 0 15 0 15 -15 0 -15 0 0 15 0 15 -20 0 -20 0 0 20 0 20 -15 0 -15 0 0 15 0
15 -15 0 -15 0 0 15 0 15 -15 0 -15 0 0 15 0 15 -15 0 -15 0 0 -15z m30 -30
l0 -15 15 0 15 0 0 -15 0 -15 15 0 15 0 0 -20 0 -20 15 0 15 0 0 -15 0 -15 20
0 20 0 0 -15 0 -15 15 0 15 0 0 -15 0 -15 15 0 15 0 0 -15 0 -15 15 0 15 0 0
-20 0 -20 15 0 15 0 0 -15 0 -15 20 0 20 0 0 15 0 15 15 0 15 0 0 20 0 20 15
0 15 0 0 15 0 15 15 0 15 0 0 15 0 15 15 0 15 0 0 15 0 15 20 0 20 0 0 -15 0
-15 -20 0 -20 0 0 -15 0 -15 20 0 20 0 0 -15 0 -15 -20 0 -20 0 0 -20 0 -20
20 0 20 0 0 -15 0 -15 -20 0 -20 0 0 -15 0 -15 20 0 20 0 0 -15 0 -15 -20 0
-20 0 0 -15 0 -15 -15 0 -15 0 0 -20 0 -20 -15 0 -15 0 0 20 0 20 -15 0 -15 0
0 -20 0 -20 -15 0 -15 0 0 20 0 20 -20 0 -20 0 0 -20 0 -20 -15 0 -15 0 0 20
0 20 -15 0 -15 0 0 -20 0 -20 -15 0 -15 0 0 20 0 20 -15 0 -15 0 0 15 0 15
-20 0 -20 0 0 -15 0 -15 -15 0 -15 0 0 -20 0 -20 -15 0 -15 0 0 20 0 20 -15 0
-15 0 0 -20 0 -20 -15 0 -15 0 0 20 0 20 -20 0 -20 0 0 -20 0 -20 -15 0 -15 0
0 20 0 20 -15 0 -15 0 0 -20 0 -20 -15 0 -15 0 0 20 0 20 -15 0 -15 0 0 15 0
15 -20 0 -20 0 0 -15 0 -15 -15 0 -15 0 0 -20 0 -20 -15 0 -15 0 0 20 0 20
-15 0 -15 0 0 -20 0 -20 -15 0 -15 0 0 20 0 20 -20 0 -20 0 0 15 0 15 20 0 20
0 0 15 0 15 -20 0 -20 0 0 15 0 15 20 0 20 0 0 15 0 15 15 0 15 0 0 20 0 20
-15 0 -15 0 0 15 0 15 -20 0 -20 0 0 15 0 15 20 0 20 0 0 15 0 15 -20 0 -20 0
0 15 0 15 20 0 20 0 0 -15 0 -15 15 0 15 0 0 -15 0 -15 15 0 15 0 0 -15 0 -15
15 0 15 0 0 -15 0 -15 15 0 15 0 0 -20 0 -20 20 0 20 0 0 20 0 20 15 0 15 0 0
15 0 15 15 0 15 0 0 15 0 15 15 0 15 0 0 15 0 15 15 0 15 0 0 15 0 15 20 0 20
0 0 20 0 20 -20 0 -20 0 0 15 0 15 20 0 20 0 0 15 0 15 15 0 15 0 0 -15z"/>
<path d="M580 595 l0 -15 15 0 15 0 0 -20 0 -20 -15 0 -15 0 0 -15 0 -15 -20
0 -20 0 0 -15 0 -15 -15 0 -15 0 0 -15 0 -15 -15 0 -15 0 0 -15 0 -15 -15 0
-15 0 0 -20 0 -20 -15 0 -15 0 0 -15 0 -15 -20 0 -20 0 0 15 0 15 -15 0 -15 0
0 20 0 20 -15 0 -15 0 0 15 0 15 -15 0 -15 0 0 15 0 15 -15 0 -15 0 0 -15 0
-15 15 0 15 0 0 -15 0 -15 15 0 15 0 0 -20 0 -20 -15 0 -15 0 0 -15 0 -15 -15
0 -15 0 0 -15 0 -15 15 0 15 0 0 -15 0 -15 -15 0 -15 0 0 -15 0 -15 15 0 15 0
0 15 0 15 15 0 15 0 0 -15 0 -15 15 0 15 0 0 15 0 15 15 0 15 0 0 15 0 15 20
0 20 0 0 -15 0 -15 15 0 15 0 0 -15 0 -15 15 0 15 0 0 15 0 15 15 0 15 0 0
-15 0 -15 15 0 15 0 0 15 0 15 20 0 20 0 0 -15 0 -15 15 0 15 0 0 15 0 15 15
0 15 0 0 -15 0 -15 15 0 15 0 0 15 0 15 15 0 15 0 0 15 0 15 20 0 20 0 0 -15
0 -15 15 0 15 0 0 -15 0 -15 15 0 15 0 0 15 0 15 15 0 15 0 0 -15 0 -15 15 0
15 0 0 15 0 15 20 0 20 0 0 -15 0 -15 15 0 15 0 0 15 0 15 15 0 15 0 0 -15 0
-15 15 0 15 0 0 15 0 15 15 0 15 0 0 15 0 15 -15 0 -15 0 0 15 0 15 15 0 15 0
0 15 0 15 -15 0 -15 0 0 20 0 20 15 0 15 0 0 15 0 15 -15 0 -15 0 0 -15 0 -15
-15 0 -15 0 0 -20 0 -20 -15 0 -15 0 0 -15 0 -15 -15 0 -15 0 0 -15 0 -15 -20
0 -20 0 0 15 0 15 -15 0 -15 0 0 15 0 15 -15 0 -15 0 0 20 0 20 -15 0 -15 0 0
15 0 15 -15 0 -15 0 0 15 0 15 -20 0 -20 0 0 15 0 15 -15 0 -15 0 0 15 0 15
-15 0 -15 0 0 20 0 20 -15 0 -15 0 0 15 0 15 -15 0 -15 0 0 -15z m60 -70 l0
-15 15 0 15 0 0 -15 0 -15 15 0 15 0 0 -15 0 -15 20 0 20 0 0 -15 0 -15 15 0
15 0 0 -20 0 -20 15 0 15 0 0 -15 0 -15 15 0 15 0 0 -15 0 -15 15 0 15 0 0
-15 0 -15 -15 0 -15 0 0 15 0 15 -15 0 -15 0 0 -15 0 -15 -15 0 -15 0 0 15 0
15 -15 0 -15 0 0 15 0 15 -20 0 -20 0 0 -15 0 -15 -15 0 -15 0 0 -15 0 -15
-15 0 -15 0 0 15 0 15 -15 0 -15 0 0 -15 0 -15 -15 0 -15 0 0 15 0 15 -20 0
-20 0 0 -15 0 -15 -15 0 -15 0 0 15 0 15 -15 0 -15 0 0 -15 0 -15 -15 0 -15 0
0 15 0 15 -15 0 -15 0 0 15 0 15 15 0 15 0 0 15 0 15 15 0 15 0 0 20 0 20 15
0 15 0 0 15 0 15 15 0 15 0 0 15 0 15 20 0 20 0 0 15 0 15 15 0 15 0 0 15 0
15 15 0 15 0 0 -15z m-290 -160 l0 -15 15 0 15 0 0 -15 0 -15 -15 0 -15 0 0
-15 0 -15 -15 0 -15 0 0 15 0 15 -15 0 -15 0 0 15 0 15 15 0 15 0 0 15 0 15
15 0 15 0 0 -15z m640 0 l0 -15 -15 0 -15 0 0 -15 0 -15 15 0 15 0 0 -15 0
-15 -15 0 -15 0 0 15 0 15 -15 0 -15 0 0 -15 0 -15 -15 0 -15 0 0 15 0 15 15
0 15 0 0 15 0 15 15 0 15 0 0 15 0 15 15 0 15 0 0 -15z"/>
<path d="M610 495 l0 -15 -15 0 -15 0 0 -15 0 -15 -20 0 -20 0 0 -15 0 -15
-15 0 -15 0 0 -20 0 -20 -15 0 -15 0 0 -15 0 -15 -15 0 -15 0 0 -15 0 -15 15
0 15 0 0 15 0 15 15 0 15 0 0 -15 0 -15 15 0 15 0 0 15 0 15 20 0 20 0 0 -15
0 -15 15 0 15 0 0 15 0 15 15 0 15 0 0 -15 0 -15 15 0 15 0 0 15 0 15 15 0 15
0 0 15 0 15 20 0 20 0 0 -15 0 -15 15 0 15 0 0 -15 0 -15 15 0 15 0 0 15 0 15
-15 0 -15 0 0 15 0 15 -15 0 -15 0 0 20 0 20 -20 0 -20 0 0 15 0 15 -15 0 -15
0 0 15 0 15 -15 0 -15 0 0 15 0 15 -15 0 -15 0 0 -15z m30 -30 l0 -15 15 0 15
0 0 -15 0 -15 15 0 15 0 0 -20 0 -20 -15 0 -15 0 0 -15 0 -15 -15 0 -15 0 0
15 0 15 -15 0 -15 0 0 -15 0 -15 -15 0 -15 0 0 15 0 15 -20 0 -20 0 0 -15 0
-15 -15 0 -15 0 0 15 0 15 15 0 15 0 0 20 0 20 20 0 20 0 0 15 0 15 15 0 15 0
0 15 0 15 15 0 15 0 0 -15z"/>
<path d="M610 435 l0 -15 -15 0 -15 0 0 -20 0 -20 15 0 15 0 0 20 0 20 15 0
15 0 0 -20 0 -20 15 0 15 0 0 20 0 20 -15 0 -15 0 0 15 0 15 -15 0 -15 0 0
-15z"/>
<path d="M320 335 l0 -15 15 0 15 0 0 15 0 15 -15 0 -15 0 0 -15z"/>
<path d="M60 400 l0 -20 20 0 20 0 0 20 0 20 -20 0 -20 0 0 -20z"/>
<path d="M1180 240 l0 -20 20 0 20 0 0 20 0 20 -20 0 -20 0 0 -20z"/>
<path d="M60 80 l0 -20 20 0 20 0 0 20 0 20 -20 0 -20 0 0 -20z"/>
<path d="M380 80 l0 -20 20 0 20 0 0 20 0 20 -20 0 -20 0 0 -20z"/>
<path d="M700 80 l0 -20 20 0 20 0 0 20 0 20 -20 0 -20 0 0 -20z"/>
<path d="M1020 80 l0 -20 20 0 20 0 0 20 0 20 -20 0 -20 0 0 -20z"/>
<path d="M860 880 l0 -20 20 0 20 0 0 20 0 20 -20 0 -20 0 0 -20z"/>
</g>
</svg>
