<?xml version="1.0" standalone="no"?>
<!DOCTYPE svg PUBLIC "-//W3C//DTD SVG 20010904//EN"
 "http://www.w3.org/TR/2001/REC-SVG-20010904/DTD/svg10.dtd">
<svg version="1.0" xmlns="http://www.w3.org/2000/svg"
 width="468pt" height="468pt" viewBox="0 0 468 468"
 preserveAspectRatio="xMidYMid meet">
<metadata>
Created by potrace 1.8, written by Peter Selinger 2001-2007
</metadata>
<g transform="translate(0,468) scale(0.365625,-0.365625)"
fill="#000000" stroke="none">
<path d="M0 640 l0 -640 640 0 640 0 0 640 0 640 -640 0 -640 0 0 -640z m1190
0 l0 -550 -505 0 -505 0 0 45 0 45 -45 0 -45 0 0 505 0 505 550 0 550 0 0
-550z"/>
<path d="M640 1055 l0 -45 -45 0 -45 0 0 -50 0 -50 -90 0 -90 0 0 -45 0 -45
-50 0 -50 0 0 -45 0 -45 -45 0 -45 0 0 -135 0 -135 45 0 45 0 0 -95 0 -95 -45
0 -45 0 0 -45 0 -45 45 0 45 0 0 45 0 45 95 0 95 0 0 -45 0 -45 135 0 135 0 0
45 0 45 45 0 45 0 0 50 0 50 45 0 45 0 0 90 0 90 50 0 50 0 0 45 0 45 45 0 45
0 0 135 0 135 -45 0 -45 0 0 50 0 50 -50 0 -50 0 0 45 0 45 -135 0 -135 0 0
-45z m270 -95 l0 -50 50 0 50 0 0 -135 0 -135 -50 0 -50 0 0 -45 0 -45 -135 0
-135 0 0 -45 0 -45 90 0 90 0 0 -45 0 -45 -45 0 -45 0 0 -50 0 -50 -135 0
-135 0 0 50 0 50 -45 0 -45 0 0 45 0 45 -50 0 -50 0 0 135 0 135 50 0 50 0 0
45 0 45 45 0 45 0 0 -90 0 -90 45 0 45 0 0 135 0 135 45 0 45 0 0 50 0 50 135
0 135 0 0 -50z"/>
<path d="M550 595 l0 -45 45 0 45 0 0 45 0 45 -45 0 -45 0 0 -45z"/>
</g>
</svg>
