<?xml version="1.0" standalone="no"?>
<!DOCTYPE svg PUBLIC "-//W3C//DTD SVG 20010904//EN"
 "http://www.w3.org/TR/2001/REC-SVG-20010904/DTD/svg10.dtd">
<svg version="1.0" xmlns="http://www.w3.org/2000/svg"
 width="468pt" height="468pt" viewBox="0 0 468 468"
 preserveAspectRatio="xMidYMid meet">
<metadata>
Created by potrace 1.8, written by Peter Selinger 2001-2007
</metadata>
<g transform="translate(0,468) scale(0.365625,-0.365625)"
fill="#000000" stroke="none">
<path d="M0 1215 l0 -65 48 -1 47 -1 15 2 15 2 2 2 3 2 1 30 2 29 -2 31 -1 32
-65 1 -65 1 0 -65z"/>
<path d="M259 1268 l-1 -13 0 -40 0 -40 -9 -11 -10 -12 -49 1 -50 0 -6 -6 -7
-6 -1 -53 -1 -53 -10 0 -10 0 3 8 2 8 -10 -6 -10 -6 5 -9 5 -8 -13 -5 -14 -5
-12 7 -12 8 -23 -4 -23 -5 -2 -59 -2 -59 45 0 46 0 0 13 0 12 8 -11 7 -11 15
-5 15 -5 0 -26 1 -26 -8 6 -9 5 7 -28 7 -27 -13 8 -12 7 11 -21 12 -21 27 -1
27 -1 35 2 35 2 -19 -21 -19 -21 9 0 9 -1 -19 -14 -18 -14 19 2 20 1 -1 21 -1
20 13 -3 13 -2 -6 10 -6 10 13 0 13 0 13 -21 13 -21 -6 -6 -7 -7 -11 0 -12 0
0 -35 0 -34 55 0 55 0 6 42 5 43 -21 24 -21 25 -42 0 -43 0 6 10 6 10 -11 0
-11 0 11 21 12 21 -23 -12 -22 -12 8 18 8 19 0 23 -1 22 12 2 11 1 10 2 10 3
13 1 13 1 -5 9 -6 9 33 -12 32 -11 12 -8 11 -7 -5 -20 -5 -20 -9 6 -9 5 6 11
7 11 -12 -8 -13 -7 11 -11 11 -11 -13 -15 -12 -16 18 14 17 13 0 -24 0 -24
-11 -11 -11 -11 11 -6 11 -7 0 11 0 11 53 -2 52 -1 13 1 13 1 -2 59 -2 58 7
12 7 11 14 -7 14 -8 45 3 44 4 4 38 3 38 -5 21 -5 22 -7 0 -8 -1 -55 0 -55 0
0 -36 0 -35 10 6 10 6 0 -10 0 -11 -10 0 -10 0 1 -7 1 -8 -1 -12 -1 -13 -65 0
-65 0 -1 23 -1 22 1 42 1 42 -28 -4 -27 -4 -5 -1 -5 -2 -27 2 -28 2 -1 -39 -1
-38 2 -22 1 -23 -25 -1 -26 -2 -12 -1 -13 -1 -7 -10 -8 -10 0 13 0 13 -17 -3
-17 -3 -4 18 -4 18 8 17 7 17 3 13 2 12 -9 -6 -9 -5 0 10 0 11 13 0 12 0 -15
10 -15 10 33 0 33 0 -7 -12 -7 -13 14 13 13 12 28 0 28 0 0 18 0 18 13 13 12
14 -13 -7 -13 -8 3 34 2 34 -7 11 -7 11 20 -5 20 -5 -7 -12 -7 -11 16 13 17
13 33 -3 33 -3 2 -54 2 -54 8 -8 9 -9 29 -2 30 -2 8 -4 8 -4 -13 -16 -13 -17
17 14 18 13 -5 8 -5 9 22 3 23 3 -2 44 -2 45 12 15 12 15 -11 -7 -12 -7 -6 15
-5 15 -17 -7 -17 -6 6 10 6 10 -14 0 -14 0 4 -7 4 -7 -40 -1 -40 -2 6 10 6 10
-22 8 -23 9 20 5 20 5 -4 42 -4 41 -59 0 -59 0 -1 -12z m19 -93 l-6 -6 -6 18
-7 18 12 -12 13 -13 -6 -5z m137 -125 l6 -10 -10 0 -11 0 0 10 0 10 4 0 5 0 6
-10z m-45 -50 l0 -10 -4 0 -5 0 -6 10 -6 10 10 0 11 0 0 -10z m-260 -19 l0
-10 -10 -6 -10 -6 0 15 0 16 10 0 10 0 0 -9z m470 -62 l0 -7 -15 -6 -15 -5 0
13 0 13 15 0 15 0 0 -8z m-395 -59 l15 0 0 10 0 10 15 0 15 0 0 -16 0 -15 -9
6 -10 5 -6 -9 -5 -10 -20 4 -19 4 6 -17 6 -17 -11 10 -10 10 -2 15 -2 15 1 15
2 15 10 -17 10 -18 14 0z m304 -4 l-1 -11 -5 13 -5 12 -7 -4 -8 -5 0 14 0 15
14 -11 13 -11 -1 -12z m-169 -171 l0 -15 -10 0 -9 0 5 15 6 15 4 0 4 0 0 -15z"/>
<path d="M465 1272 l5 -5 -17 -21 -18 -21 28 24 27 24 0 2 0 2 -15 0 -15 0 5
-5z"/>
<path d="M509 1268 l-1 -13 2 -19 2 -19 14 -14 14 -14 0 -5 0 -4 -25 4 -24 5
10 -17 11 -17 24 -12 24 -11 -5 8 -5 7 45 1 45 1 0 -55 0 -56 13 5 14 5 14
-10 14 -10 -17 6 -17 5 -6 -9 -6 -10 51 0 51 0 -7 -12 -7 -11 11 7 12 7 10 -6
10 -6 -11 -20 -11 -21 20 11 20 11 -3 -18 -3 -17 -10 2 -10 2 -18 -22 -19 -22
18 14 18 14 -3 -14 -3 -14 33 -3 32 -3 0 11 0 11 -10 -6 -10 -6 0 14 0 14 15
0 15 0 0 -19 0 -18 10 0 10 0 -3 22 -2 23 -20 17 -20 17 13 1 13 0 -6 10 -6
10 4 0 4 0 22 -19 21 -19 -6 -16 -6 -16 10 0 11 0 7 23 8 22 -3 21 -2 21 57 2
58 1 5 9 6 9 -3 56 -4 56 -25 0 -25 0 13 18 14 17 -19 -15 -18 -14 -14 -3 -14
-3 -17 -4 -18 -3 -7 4 -7 4 31 28 31 28 -13 8 -13 8 6 -10 7 -11 -15 -12 -15
-12 0 49 0 49 -65 2 -65 1 -1 -12 -1 -12 2 -10 3 -10 -1 -19 -1 -18 -18 -21
-18 -22 18 14 17 13 0 -13 1 -14 10 18 10 17 8 0 9 0 6 -16 6 -16 -15 6 -15 5
0 -8 0 -9 25 -4 24 -5 -4 6 -3 7 30 17 31 18 -13 -16 -13 -15 17 -18 16 -19 0
-18 0 -17 -14 11 -14 12 -8 -12 -7 -12 11 7 11 6 8 -12 7 -13 4 -23 3 -24 -20
-5 -21 -5 6 -10 6 -10 -28 18 -28 19 9 -15 8 -15 -22 19 -22 20 6 -16 7 -16
-19 3 -18 3 -5 1 -6 1 2 28 2 27 2 0 2 0 3 17 3 17 -16 6 -17 6 20 15 20 16
-15 -2 -15 -2 -38 1 -38 1 7 13 8 12 -17 -14 -17 -13 -6 17 -7 16 13 12 13 12
-8 -14 -8 -14 12 7 11 7 -6 10 -5 9 -11 -6 -10 -7 4 42 4 41 -68 0 -68 0 -1
-12z m299 -50 l-4 -12 -12 -4 -12 -4 6 16 6 16 10 0 10 0 -4 -12z m37 -38 l6
-10 -10 0 -11 0 0 10 0 10 4 0 5 0 6 -10z m-104 -94 l9 5 0 -8 0 -8 -9 -13 -8
-14 -7 17 -6 17 1 11 1 12 5 -13 5 -12 9 6z"/>
<path d="M990 1271 l0 -10 10 -6 10 -6 -6 15 -6 16 -4 0 -4 0 0 -9z"/>
<path d="M1018 1213 l4 -63 64 0 64 0 0 -37 0 -36 -17 -21 -18 -21 18 14 17
13 0 -21 0 -21 65 0 65 0 0 65 0 65 -17 1 -18 1 -48 -1 -49 -1 2 32 2 33 -1
32 -1 31 -67 -1 -68 -1 3 -63z"/>
<path d="M414 1258 l-5 -8 -12 7 -12 7 12 -16 13 -15 -8 -9 -7 -9 28 24 27 24
0 2 0 2 -15 0 -16 0 -5 -9z"/>
<path d="M704 1228 l-19 -23 21 18 21 17 8 -7 8 -8 -7 13 -7 12 -3 0 -3 0 -19
-22z"/>
<path d="M935 1241 l-5 -10 8 -5 9 -5 0 14 0 15 -3 0 -3 0 -6 -9z"/>
<path d="M1189 1213 l-14 -18 18 14 17 13 0 4 0 4 -4 0 -4 0 -13 -17z"/>
<path d="M449 1193 l-14 -18 18 14 17 13 0 4 0 4 -4 0 -4 0 -13 -17z"/>
<path d="M725 1201 l-5 -10 8 -5 9 -5 0 14 0 15 -3 0 -3 0 -6 -9z"/>
<path d="M294 1113 l6 -11 -12 -5 -13 -5 15 -2 15 -2 16 -3 17 -3 -6 22 -6 21
-4 -18 -4 -18 -15 18 -14 18 5 -12z"/>
<path d="M546 1108 l5 -8 10 5 9 6 0 3 0 3 -15 0 -14 0 5 -9z"/>
<path d="M561 1086 l-12 -14 11 -7 10 -6 1 3 1 3 3 18 3 17 -3 0 -3 0 -11 -14z"/>
<path d="M529 1078 l-1 -3 -3 -17 -3 -18 7 -4 7 -5 0 25 0 24 -3 0 -3 0 -1 -2z"/>
<path d="M815 1070 l-6 -10 10 0 11 0 0 10 0 10 -4 0 -5 0 -6 -10z"/>
<path d="M15 1040 l-6 -10 15 6 16 6 0 4 0 4 -9 0 -10 0 -6 -10z"/>
<path d="M1030 1026 l-13 -25 0 -50 0 -50 -14 -6 -15 -5 6 15 6 16 -11 -7 -11
-6 5 -32 6 -31 -6 13 -5 12 -13 0 -14 0 -7 12 -7 11 16 -6 17 -6 0 17 0 17
-11 15 -10 15 6 -23 6 -22 -18 3 -18 3 -13 8 -13 8 12 14 11 14 -8 0 -9 -1
-19 -26 -19 -26 20 5 20 5 -1 -16 -1 -16 -10 -7 -10 -7 -1 -11 -1 -10 -2 -11
-1 -10 -12 7 -11 7 8 -13 8 -13 11 15 11 15 30 -21 31 -21 -2 -15 -1 -15 -2
-5 -3 -5 -3 -16 -3 -16 14 0 14 0 -10 12 -10 11 12 12 12 12 23 0 22 0 3 63 3
62 63 3 62 3 1 -23 1 -23 -2 -42 -2 -43 42 0 41 0 -7 -12 -7 -11 14 9 14 9 8
1 7 2 10 1 10 1 0 65 0 65 -11 0 -10 0 7 12 7 11 -14 -9 -14 -8 -23 -4 -24 -3
8 13 8 13 -15 -11 -14 -10 -15 0 -15 1 -1 13 -1 12 -2 45 -1 45 -55 0 -54 0 5
15 6 15 -4 0 -5 0 -13 -24z"/>
<path d="M1216 991 l-6 -10 9 -5 10 -6 5 9 6 10 -9 5 -10 6 -5 -9z"/>
<path d="M221 956 l-23 -25 16 3 15 2 8 7 7 8 2 14 2 15 -2 0 -3 0 -22 -24z"/>
<path d="M183 955 l0 -14 9 5 8 5 -5 10 -6 9 -3 0 -3 0 0 -15z"/>
<path d="M458 941 l-17 -20 18 2 17 1 0 18 0 18 -1 0 -1 0 -16 -19z"/>
<path d="M1229 933 l-14 -18 18 14 17 13 0 4 0 4 -4 0 -4 0 -13 -17z"/>
<path d="M668 902 l-28 -3 -1 -27 -1 -27 2 -35 2 -35 3 -3 3 -4 58 0 58 -1 6
24 6 24 11 0 11 0 7 7 7 6 -19 -2 -18 -3 -5 40 -5 40 -35 1 -35 1 -27 -3z"/>
<path d="M91 884 l1 -19 5 13 5 13 -6 6 -6 6 1 -19z"/>
<path d="M321 884 l1 -19 5 13 5 13 -6 6 -6 6 1 -19z"/>
<path d="M69 888 l-1 -3 -3 -18 -3 -19 6 6 6 7 2 14 2 15 -4 0 -4 0 -1 -2z"/>
<path d="M260 854 l0 -15 10 6 10 6 0 10 0 9 -10 0 -10 0 0 -16z"/>
<path d="M299 857 l11 -14 -8 -8 -7 -8 13 7 13 8 -12 14 -11 14 -5 0 -5 0 11
-13z"/>
<path d="M551 852 l-1 -13 -12 7 -13 7 12 -13 13 -14 6 7 6 6 -5 13 -5 13 -1
-13z"/>
<path d="M290 805 l-11 -13 8 -5 8 -5 18 13 18 13 -15 5 -15 6 -11 -14z"/>
<path d="M897 804 l-6 -6 5 -13 5 -13 -62 -1 -62 -1 -3 -2 -2 -3 -4 -58 -4
-58 8 -5 9 -5 59 -3 60 -2 3 -5 4 -4 16 -32 15 -33 -7 0 -8 0 -10 22 -10 22
-5 -22 -6 -22 9 5 9 6 -7 -31 -6 -32 23 4 23 3 5 14 5 14 -12 -7 -11 -7 0 10
0 11 8 0 7 0 13 -9 14 -8 -1 -9 -1 -9 27 0 28 0 -4 44 -3 45 15 -13 15 -12 7
11 6 10 -12 -2 -13 -3 -11 23 -10 22 -18 0 -18 0 7 13 8 12 -15 -12 -15 -12
-32 1 -32 1 11 14 12 13 -18 -6 -18 -7 8 14 9 13 -3 39 -3 38 21 6 21 5 0 9 0
8 -19 10 -18 10 -6 -5z"/>
<path d="M1079 788 l13 -18 -35 0 -35 0 -4 -55 -3 -55 3 -10 4 -10 50 0 50 0
-6 -17 -6 -18 14 18 13 17 6 0 6 0 -1 -22 -1 -23 -16 -20 -16 -20 18 15 19 14
-4 -35 -4 -34 -59 -3 -59 -3 -2 -2 -3 -2 -5 -30 -4 -30 -2 -5 -2 -5 0 -6 1 -6
-25 -24 -25 -23 -28 2 -28 2 -12 -14 -12 -14 23 4 23 4 -12 -6 -13 -6 0 -44 0
-44 16 0 15 0 -5 -9 -6 -9 12 2 13 3 15 6 15 6 20 3 19 3 3 53 3 53 -21 7 -20
8 20 18 21 19 -7 10 -6 10 11 -7 12 -7 0 -13 0 -14 21 -23 21 -24 -6 11 -6 12
43 -2 42 -1 0 -32 0 -31 6 4 7 4 6 -16 6 -15 -9 5 -9 6 2 -18 1 -17 -20 0 -20
0 3 -18 3 -17 -10 -17 -9 -18 -7 28 -7 27 13 18 14 17 -22 -19 -23 -19 7 -10
6 -10 -12 7 -11 7 5 9 5 8 -13 5 -14 5 -13 -8 -13 -8 5 -56 5 -56 -11 0 -11 0
15 -10 15 -9 -22 2 -22 1 5 8 5 8 -10 0 -11 0 0 -7 0 -8 -68 -1 -67 0 28 4 27
3 1 20 1 19 0 40 1 40 -5 6 -6 5 -61 1 -61 1 -1 21 -1 21 2 38 2 37 -32 0 -31
0 7 13 7 12 -14 -12 -13 -13 -27 0 -27 0 -4 -50 -3 -50 3 -10 4 -10 39 0 40 0
-5 9 -6 9 16 6 16 6 4 0 4 0 0 -15 0 -15 10 0 10 0 0 -65 0 -65 37 0 36 0 -6
-6 -6 -6 -56 7 -55 6 6 11 7 11 -14 -9 -14 -8 -19 -3 -19 -3 14 17 14 17 -30
-23 -30 -23 -91 4 -92 3 5 10 6 10 -14 -12 -13 -13 -9 0 -8 0 5 23 6 22 -6
-13 -6 -12 -10 6 -11 7 8 -13 8 -13 -14 5 -14 5 -2 48 -3 49 -4 13 -5 13 -55
0 -56 0 1 60 1 61 12 -4 11 -4 -3 -12 -2 -12 10 6 10 6 -5 10 -6 9 41 0 41 0
6 16 6 16 -14 9 -14 9 13 0 12 0 0 20 0 20 10 0 10 0 -17 20 -17 20 -53 0 -53
0 0 8 0 8 12 13 13 14 -13 -7 -12 -7 0 50 0 51 -12 1 -13 1 -39 -2 -38 -2 7
12 7 11 -21 -13 -21 -13 0 -33 0 -33 -9 5 -9 6 11 -32 12 -33 8 -6 9 -6 39 4
40 5 16 -6 16 -7 -11 -11 -12 -12 0 -10 0 -11 10 15 10 15 -2 -50 -3 -50 -60
0 -60 0 -1 30 -1 30 11 14 11 15 -12 -7 -12 -7 -3 27 -3 28 -17 -1 -18 -1 -45
-2 -44 -1 0 -65 1 -65 36 -1 37 -1 25 1 26 2 1 -23 2 -22 -17 -21 -17 -20 16
13 17 13 5 -15 6 -15 -9 -3 -9 -3 8 -14 9 -14 61 2 61 2 0 -66 0 -65 28 -1 27
-2 -21 -4 -20 -4 -30 12 -29 12 -10 2 -10 1 -10 -7 -11 -8 -19 3 -20 3 -3 60
-3 61 -37 3 -37 4 -27 -3 -27 -3 0 -130 0 -129 639 0 640 0 0 65 0 65 -16 0
-15 0 5 8 5 9 -14 0 -14 0 5 -9 5 -8 -20 0 -19 0 -18 -7 -17 -6 8 12 7 13 -21
-12 -22 -11 -17 4 -17 5 23 1 22 1 0 8 0 9 -20 18 -20 18 5 5 5 6 16 -20 15
-19 -5 10 -5 11 9 14 8 13 -9 26 -10 25 23 -19 23 -20 -18 21 -18 21 18 14 17
14 -6 -10 -6 -10 14 -13 14 -13 0 11 0 10 31 0 30 0 -7 -12 -8 -13 17 14 17
13 0 59 0 59 -64 0 -64 0 2 13 2 12 8 13 7 12 -12 -2 -13 -3 1 18 1 17 1 25 1
25 48 0 47 0 18 2 17 1 0 64 0 63 -21 0 -20 0 5 8 5 9 -14 0 -14 0 5 -9 5 -8
-22 0 -21 0 13 18 14 17 -22 -18 -22 -19 -10 7 -11 6 0 20 0 20 13 -7 12 -8
-14 18 -15 18 0 31 -1 32 -24 -3 -23 -4 8 14 7 13 -8 -7 -8 -8 -16 13 -16 12
14 -17z m61 -299 l0 -10 -9 5 -9 6 -4 -12 -4 -12 -6 15 -6 15 19 1 19 2 0 -10z
m-406 -164 l-6 -15 -10 6 -10 7 13 8 14 9 2 0 2 0 -5 -15z m259 -20 l4 -25 -5
-4 -5 -5 -30 21 -30 21 18 13 17 13 13 -5 13 -5 5 -24z m-823 -35 l0 -10 -4 0
-5 0 -6 10 -6 10 10 0 11 0 0 -10z m880 -20 l0 -10 -11 0 -10 0 6 10 6 10 5 0
4 0 0 -10z m90 -40 l0 -10 -11 0 -10 0 6 10 6 10 5 0 4 0 0 -10z m-1020 -86
l0 -4 -26 0 -25 0 5 9 6 9 20 -5 20 -5 0 -4z m100 10 l0 -3 -9 -6 -10 -5 -5 8
-5 9 14 0 15 0 0 -3z m880 -10 l0 -4 -30 0 -30 0 0 8 0 9 30 -5 30 -4 0 -4z
m-1047 -1 l-13 -5 -12 5 -13 5 25 0 25 0 -12 -5z m315 0 l-18 -4 -17 4 -18 5
35 0 35 0 -17 -5z"/>
<path d="M7 783 l-7 -6 0 -69 0 -68 19 0 19 0 5 13 5 12 1 -15 1 -16 39 4 40
4 3 21 3 22 -4 43 -3 43 -14 -5 -13 -5 -6 10 -6 9 -10 -6 -9 -5 5 -9 6 -9 -22
-11 -21 -12 -6 6 -5 6 11 0 12 0 0 15 0 15 -21 0 -20 0 6 10 6 10 -4 0 -4 0
-6 -7z m58 -72 l5 -10 -10 -6 -10 -6 0 15 0 16 4 0 5 0 6 -9z m39 -26 l-6 -15
-4 0 -4 0 0 15 0 15 10 0 9 0 -5 -15z"/>
<path d="M509 737 l-1 -32 2 -20 2 -20 1 -10 2 -10 30 -5 30 -5 33 4 32 3 0
50 0 49 11 -6 10 -7 -12 20 -13 21 -63 0 -63 0 -1 -32z m46 -27 l6 -10 -10 0
-11 0 0 10 0 10 4 0 5 0 6 -10z"/>
<path d="M1266 743 l-7 -18 12 12 13 13 -6 5 -6 6 -6 -18z"/>
<path d="M701 734 l11 -14 10 6 9 6 -6 6 -6 6 -15 2 -15 2 12 -14z"/>
<path d="M1184 718 l-5 -8 -12 6 -12 7 8 -9 8 -8 23 -2 23 -1 0 12 0 12 -14 0
-14 0 -5 -9z"/>
<path d="M449 697 l11 -14 -8 -8 -7 -8 13 7 13 8 -12 14 -11 14 -5 0 -5 0 11
-13z"/>
<path d="M215 681 l-5 -10 8 -5 9 -5 0 14 0 15 -3 0 -3 0 -6 -9z"/>
<path d="M660 675 l-12 -15 8 0 8 0 -12 -12 -12 -12 0 -63 0 -63 41 0 40 0 -7
-12 -8 -13 17 14 17 14 5 -5 5 -5 -21 -29 -21 -29 34 38 33 37 0 55 -1 54 -7
7 -7 8 -49 -3 -49 -2 2 13 2 13 7 13 8 12 -4 0 -5 0 -12 -15z"/>
<path d="M493 640 l5 -19 -13 -11 -12 -10 -14 17 -14 17 14 -9 14 -8 -8 12 -7
13 -19 -5 -19 -5 -5 9 -6 8 -14 -5 -14 -6 -3 -41 -3 -42 -12 0 -11 0 -8 -7 -7
-7 22 4 21 4 0 -18 0 -17 41 -3 41 -2 -7 11 -6 10 27 -10 27 -11 13 -17 12
-17 -5 -9 -6 -9 -3 -39 -3 -40 14 6 15 5 0 -8 0 -8 31 5 32 5 -7 -11 -6 -11
11 -7 12 -7 -7 12 -8 12 21 6 21 5 0 22 0 21 -20 13 -21 13 -12 -7 -12 -7 8 9
9 9 21 0 22 0 3 28 3 27 -65 0 -66 0 0 15 0 15 -7 1 -8 1 -18 3 -19 3 -6 6 -5
6 14 0 14 0 -11 8 -12 7 25 19 25 19 -7 -24 -8 -24 15 12 15 13 6 -7 7 -6 0
11 0 12 -11 0 -11 0 13 17 14 17 -12 -8 -13 -7 -1 13 -1 13 1 8 1 7 -11 0 -11
0 5 -20z m-36 -46 l-6 -6 -13 5 -13 5 19 1 19 1 -6 -6z m-30 -39 l0 -14 -9 5
-8 5 5 10 6 9 3 0 3 0 0 -15z"/>
<path d="M823 615 l0 -15 5 5 5 5 16 -12 16 -13 -19 23 -19 22 -2 0 -2 0 0
-15z"/>
<path d="M79 603 l-14 -18 18 14 17 13 0 4 0 4 -4 0 -4 0 -13 -17z"/>
<path d="M343 603 l0 -13 14 11 13 11 0 3 0 2 -13 0 -14 0 0 -14z"/>
<path d="M554 558 l-19 -23 23 19 22 19 0 4 0 3 -3 0 -4 0 -19 -22z"/>
<path d="M794 558 l-19 -23 23 19 22 19 0 4 0 3 -3 0 -4 0 -19 -22z"/>
<path d="M789 523 l-14 -18 -13 -24 -13 -23 10 7 11 6 0 -45 0 -46 45 -1 45
-1 18 -2 17 -1 3 25 4 25 11 14 12 15 -11 -7 -11 -6 -1 31 -1 31 -11 7 -11 7
-46 -5 -46 -4 7 11 7 11 11 -6 11 -7 -7 11 -7 12 -3 0 -3 0 -14 -17z"/>
<path d="M676 488 l5 -8 10 5 9 6 0 3 0 3 -15 0 -14 0 5 -9z"/>
<path d="M964 488 l-7 -13 8 7 8 8 16 -13 16 -12 -14 18 -13 17 -4 0 -3 0 -7
-12z"/>
<path d="M425 480 l-6 -10 10 0 11 0 0 10 0 10 -4 0 -5 0 -6 -10z"/>
<path d="M1265 471 l-5 -10 8 -5 9 -5 0 14 0 15 -3 0 -3 0 -6 -9z"/>
<path d="M480 463 l0 -12 10 -6 11 -7 -11 -13 -11 -13 13 -8 13 -7 -7 8 -8 8
9 11 9 11 -14 19 -14 20 0 -11z"/>
<path d="M190 436 l0 -4 18 -13 17 -14 -14 18 -13 17 -4 0 -4 0 0 -4z"/>
<path d="M1186 421 l-17 -19 11 -7 12 -7 12 13 11 14 -9 -7 -10 -8 -10 0 -9 0
18 20 18 20 -5 0 -5 0 -17 -19z"/>
<path d="M443 410 l3 -11 9 0 10 0 3 13 4 13 -10 -14 -10 -13 -5 11 -5 12 1
-11z"/>
<path d="M426 383 l-7 -7 -22 -1 -22 0 3 -19 3 -19 -6 -24 -6 -24 -11 7 -11 7
7 -12 8 -12 12 10 13 11 6 -7 7 -6 -18 -13 -17 -13 18 -1 18 0 -7 -12 -7 -13
14 13 13 12 48 0 49 0 -2 55 -2 56 -17 9 -16 9 -15 -10 -14 -9 18 -11 17 -10
0 -10 0 -10 -11 7 -11 7 -9 -14 -9 -14 0 18 0 17 -10 0 -11 0 11 20 11 20 -4
0 -4 0 -7 -7z"/>
<path d="M51 335 l-25 -24 -2 -17 -2 -16 6 7 7 7 0 11 1 12 13 -3 12 -2 -6 10
-6 10 9 0 9 0 6 -7 7 -6 -11 -13 -10 -12 11 -7 10 -6 1 3 1 3 3 17 3 18 -8 5
-9 6 6 14 5 15 -3 -1 -4 0 -24 -24z"/>
<path d="M566 352 l-5 -9 14 0 14 0 -5 9 -5 8 -4 0 -4 0 -5 -8z"/>
<path d="M1039 333 l-14 -18 18 14 17 13 0 4 0 4 -4 0 -4 0 -13 -17z"/>
<path d="M535 322 l5 -5 -12 -16 -13 -16 23 19 22 19 0 2 0 2 -15 0 -15 0 5
-5z"/>
<path d="M853 313 l0 -13 14 11 13 11 0 3 0 2 -13 0 -14 0 0 -14z"/>
<path d="M1063 313 l0 -13 14 11 13 11 0 3 0 2 -13 0 -14 0 0 -14z"/>
<path d="M565 311 l-5 -10 8 -5 9 -5 0 14 0 15 -3 0 -3 0 -6 -9z"/>
<path d="M529 262 l-15 -3 -13 -20 -12 -21 10 7 11 6 -1 -38 -2 -38 2 -12 1
-13 65 0 65 0 0 31 0 30 13 -7 12 -8 -12 15 -11 14 -4 29 -3 29 -46 1 -46 1
-14 -3z"/>
<path d="M1259 223 l-14 -18 18 14 17 13 0 4 0 4 -4 0 -4 0 -13 -17z"/>
<path d="M213 213 l0 -13 14 11 13 11 0 3 0 2 -13 0 -14 0 0 -14z"/>
<path d="M965 220 l-6 -10 13 2 13 3 -3 -13 -2 -13 10 6 11 7 -12 14 -11 14
-4 0 -3 0 -6 -10z"/>
<path d="M416 212 l-5 -9 14 0 14 0 -5 9 -5 8 -4 0 -4 0 -5 -8z"/>
<path d="M465 199 l-5 -7 15 2 14 2 6 5 5 6 -15 0 -16 0 -4 -8z"/>
<path d="M233 179 l-2 -19 4 0 3 0 5 15 6 14 -7 5 -8 5 -1 -20z"/>
<path d="M1001 164 l1 -19 5 13 5 13 -6 6 -6 6 1 -19z"/>
<path d="M1190 170 l15 -10 8 0 7 0 0 8 0 8 -22 1 -23 2 15 -9z"/>
<path d="M1243 166 l-6 -11 8 7 8 8 12 -10 12 -10 0 13 0 14 -14 0 -14 0 -6
-11z"/>
<path d="M156 148 l5 -8 10 5 9 6 0 3 0 3 -15 0 -14 0 5 -9z"/>
</g>
</svg>
