<?xml version="1.0" standalone="no"?>
<!DOCTYPE svg PUBLIC "-//W3C//DTD SVG 20010904//EN"
 "http://www.w3.org/TR/2001/REC-SVG-20010904/DTD/svg10.dtd">
<svg version="1.0" xmlns="http://www.w3.org/2000/svg"
 width="468pt" height="468pt" viewBox="0 0 468 468"
 preserveAspectRatio="xMidYMid meet">
<metadata>
Created by potrace 1.8, written by Peter Selinger 2001-2007
</metadata>
<g transform="translate(0,468) scale(0.365625,-0.365625)"
fill="#000000" stroke="none">
<path d="M603 1155 l-13 -14 0 -11 0 -10 -15 0 -15 0 0 -15 0 -15 -11 0 -10 0
-15 -14 -14 -15 0 -10 0 -11 -15 0 -15 0 0 -15 0 -15 -11 0 -10 0 -15 -14 -14
-15 0 -10 0 -11 -15 0 -15 0 0 -15 0 -15 -11 0 -10 0 -15 -14 -14 -15 0 -10 0
-11 -15 0 -15 0 0 -15 0 -15 -11 0 -10 0 -15 -14 -14 -15 0 -10 0 -11 -15 0
-15 0 0 -15 0 -15 -11 0 -10 0 -15 -14 -14 -15 0 -10 0 -11 -15 0 -15 0 0 -15
0 -15 -11 0 -10 0 -15 -14 -14 -15 0 -10 0 -11 -15 0 -15 0 0 -15 0 -15 11 0
10 0 15 -14 14 -15 0 -10 0 -11 15 0 15 0 0 -15 0 -15 11 0 10 0 15 -14 14
-15 0 -10 0 -11 15 0 15 0 0 -15 0 -15 11 0 10 0 15 -14 14 -15 0 -10 0 -11
15 0 15 0 0 -15 0 -15 11 0 10 0 15 -14 14 -15 0 -10 0 -11 15 0 15 0 0 -15 0
-15 11 0 10 0 15 -14 14 -15 0 -10 0 -11 15 0 15 0 0 -15 0 -15 11 0 10 0 15
-14 14 -15 0 -10 0 -11 15 0 15 0 0 -15 0 -15 11 0 10 0 15 -14 14 -15 0 -10
0 -11 15 0 15 0 0 15 0 15 15 0 15 0 0 -15 0 -15 10 0 10 0 0 15 0 15 15 0 15
0 0 10 0 10 15 0 15 0 0 15 0 15 10 0 10 0 0 15 0 15 15 0 15 0 0 10 0 10 15
0 15 0 0 15 0 15 10 0 10 0 0 15 0 15 15 0 15 0 0 10 0 10 15 0 15 0 0 15 0
15 10 0 10 0 0 15 0 15 15 0 15 0 0 10 0 10 15 0 15 0 0 15 0 15 10 0 10 0 0
15 0 15 15 0 15 0 0 10 0 10 15 0 15 0 0 15 0 15 10 0 10 0 0 15 0 15 15 0 15
0 0 10 0 10 15 0 15 0 0 15 0 15 10 0 10 0 0 14 0 14 -12 6 -13 6 13 6 12 6 0
14 0 14 -10 0 -10 0 0 15 0 15 -15 0 -15 0 0 10 0 10 -15 0 -15 0 0 15 0 15
-10 0 -10 0 0 15 0 15 -15 0 -15 0 0 10 0 10 15 0 15 0 0 15 0 15 10 0 10 0 0
15 0 15 15 0 15 0 0 10 0 10 15 0 15 0 0 15 0 15 10 0 10 0 0 11 0 10 -14 15
-15 14 -10 0 -11 0 0 -10 0 -10 -15 0 -15 0 0 -15 0 -15 -10 0 -10 0 0 -15 0
-15 -15 0 -15 0 0 -10 0 -10 -15 0 -15 0 0 -15 0 -15 -10 0 -10 0 0 -11 0 -10
14 -15 15 -14 10 0 11 0 0 -15 0 -15 15 0 15 0 0 -11 0 -10 14 -15 15 -14 10
0 11 0 0 -15 0 -15 15 0 15 0 0 -15 0 -15 -15 0 -15 0 0 -10 0 -10 15 0 15 0
0 -15 0 -15 -15 0 -15 0 0 15 0 15 -15 0 -15 0 0 -15 0 -15 15 0 15 0 0 -15 0
-15 -15 0 -15 0 0 15 0 15 -10 0 -10 0 0 -15 0 -15 -15 0 -15 0 0 -10 0 -10
15 0 15 0 0 -15 0 -15 -15 0 -15 0 0 15 0 15 -15 0 -15 0 0 -15 0 -15 15 0 15
0 0 -15 0 -15 -15 0 -15 0 0 15 0 15 -10 0 -10 0 0 -15 0 -15 -15 0 -15 0 0
-10 0 -10 15 0 15 0 0 -15 0 -15 -15 0 -15 0 0 15 0 15 -15 0 -15 0 0 -15 0
-15 15 0 15 0 0 -15 0 -15 -15 0 -15 0 0 15 0 15 -10 0 -10 0 0 -15 0 -15 -15
0 -15 0 0 -10 0 -10 15 0 15 0 0 -15 0 -15 -15 0 -15 0 0 15 0 15 -15 0 -15 0
0 -15 0 -15 15 0 15 0 0 -15 0 -15 -15 0 -15 0 0 15 0 15 -10 0 -10 0 0 -15 0
-15 -15 0 -15 0 0 -10 0 -10 15 0 15 0 0 -15 0 -15 -15 0 -15 0 0 15 0 15 -15
0 -15 0 0 -15 0 -15 15 0 15 0 0 -15 0 -15 -15 0 -15 0 0 15 0 15 -10 0 -10 0
0 -15 0 -15 -15 0 -15 0 0 -10 0 -10 15 0 15 0 0 -15 0 -15 -15 0 -15 0 0 15
0 15 -15 0 -15 0 0 -15 0 -15 15 0 15 0 0 -15 0 -15 -15 0 -15 0 0 15 0 15
-10 0 -10 0 0 -15 0 -15 -15 0 -15 0 0 -10 0 -10 -11 0 -10 0 -15 14 -14 15 0
10 0 11 -15 0 -15 0 0 15 0 15 -11 0 -10 0 -15 14 -14 15 0 10 0 11 -15 0 -15
0 0 15 0 15 -11 0 -10 0 -15 14 -14 15 0 10 0 11 -15 0 -15 0 0 15 0 15 -11 0
-10 0 -15 14 -14 15 0 10 0 11 -15 0 -15 0 0 15 0 15 -11 0 -10 0 -15 14 -14
15 0 10 0 11 -15 0 -15 0 0 15 0 15 -11 0 -10 0 -15 14 -14 15 0 10 0 11 -15
0 -15 0 0 15 0 15 -11 0 -10 0 -15 14 -14 15 0 10 0 11 10 0 10 0 0 15 0 15
15 0 15 0 0 10 0 10 15 0 15 0 0 15 0 15 10 0 10 0 0 15 0 15 15 0 15 0 0 10
0 10 15 0 15 0 0 15 0 15 10 0 10 0 0 15 0 15 15 0 15 0 0 10 0 10 15 0 15 0
0 15 0 15 10 0 10 0 0 15 0 15 15 0 15 0 0 10 0 10 15 0 15 0 0 15 0 15 10 0
10 0 0 15 0 15 15 0 15 0 0 10 0 10 15 0 15 0 0 15 0 15 10 0 10 0 0 15 0 15
15 0 15 0 0 10 0 10 15 0 15 0 0 15 0 15 10 0 10 0 0 15 0 15 15 0 15 0 0 -15
0 -15 15 0 15 0 0 -11 0 -10 14 -15 15 -14 10 0 11 0 0 -15 0 -15 15 0 15 0 0
-11 0 -10 14 -15 15 -14 10 0 11 0 0 -15 0 -15 15 0 15 0 0 -11 0 -10 14 -15
15 -14 10 0 11 0 0 -15 0 -15 15 0 15 0 0 11 0 10 14 15 15 14 10 0 11 0 0 15
0 15 15 0 15 0 0 11 0 10 14 15 15 14 10 0 11 0 0 15 0 15 15 0 15 0 0 -15 0
-15 -15 0 -15 0 0 -10 0 -10 -15 0 -15 0 0 -15 0 -15 -10 0 -10 0 0 -15 0 -15
-15 0 -15 0 0 -10 0 -10 -15 0 -15 0 0 -15 0 -15 -10 0 -10 0 0 -15 0 -15 -15
0 -15 0 0 -10 0 -10 -15 0 -15 0 0 -15 0 -15 -10 0 -10 0 0 -15 0 -15 -15 0
-15 0 0 -10 0 -10 -15 0 -15 0 0 -15 0 -15 -10 0 -10 0 0 -25 0 -25 10 0 10 0
0 -15 0 -15 -10 0 -10 0 0 15 0 15 -15 0 -15 0 0 -15 0 -15 -15 0 -15 0 0 -15
0 -15 15 0 15 0 0 -10 0 -10 -11 0 -10 0 -15 14 -14 15 0 21 0 21 14 15 15 14
10 0 11 0 0 15 0 15 15 0 15 0 0 15 0 15 -15 0 -15 0 0 -15 0 -15 -15 0 -15 0
0 -11 0 -10 -14 -15 -15 -14 -10 0 -11 0 0 -30 0 -30 -25 0 -25 0 0 -10 0 -10
-15 0 -15 0 0 -15 0 -15 -15 0 -15 0 0 -40 0 -40 -10 0 -10 0 0 -15 0 -15 -15
0 -15 0 0 -10 0 -10 -11 0 -10 0 -15 14 -14 15 0 10 0 11 10 0 10 0 0 15 0 15
15 0 15 0 0 10 0 10 15 0 15 0 0 15 0 15 10 0 10 0 0 15 0 15 15 0 15 0 0 10
0 10 15 0 15 0 0 15 0 15 10 0 10 0 0 15 0 15 15 0 15 0 0 10 0 10 15 0 15 0
0 15 0 15 10 0 10 0 0 15 0 15 15 0 15 0 0 10 0 10 15 0 15 0 0 15 0 15 10 0
10 0 0 -15 0 -15 15 0 15 0 0 15 0 15 -15 0 -15 0 0 15 0 15 15 0 15 0 0 10 0
10 15 0 15 0 0 15 0 15 10 0 10 0 0 11 0 10 -14 15 -15 14 -10 0 -11 0 0 15 0
15 -15 0 -15 0 0 11 0 10 -14 15 -15 14 -10 0 -11 0 0 15 0 15 -15 0 -15 0 0
11 0 10 -14 15 -15 14 -10 0 -11 0 0 15 0 15 -15 0 -15 0 0 -11 0 -10 -14 -15
-15 -14 -10 0 -11 0 0 -15 0 -15 -15 0 -15 0 0 -11 0 -10 -14 -15 -15 -14 -10
0 -11 0 0 -15 0 -15 -15 0 -15 0 0 -11 0 -10 -14 -15 -15 -14 -10 0 -11 0 0
-15 0 -15 -15 0 -15 0 0 -11 0 -10 -14 -15 -15 -14 -10 0 -11 0 0 -15 0 -15
-15 0 -15 0 0 -11 0 -10 -14 -15 -15 -14 -10 0 -11 0 0 -15 0 -15 -15 0 -15 0
0 -11 0 -10 -14 -15 -15 -14 -10 0 -11 0 0 -15 0 -15 -15 0 -15 0 0 -15 0 -15
15 0 15 0 0 -10 0 -10 15 0 15 0 0 -15 0 -15 10 0 10 0 0 -15 0 -15 15 0 15 0
0 -10 0 -10 15 0 15 0 0 -15 0 -15 10 0 10 0 0 -15 0 -15 15 0 15 0 0 -10 0
-10 15 0 15 0 0 -15 0 -15 10 0 10 0 0 -15 0 -15 15 0 15 0 0 -10 0 -10 15 0
15 0 0 -15 0 -15 10 0 10 0 0 -15 0 -15 15 0 15 0 0 -10 0 -10 15 0 15 0 0
-15 0 -15 10 0 10 0 0 -15 0 -15 15 0 15 0 0 -10 0 -10 15 0 15 0 0 -15 0 -15
10 0 10 0 0 -15 0 -15 15 0 15 0 0 15 0 15 15 0 15 0 0 11 0 10 14 15 15 14
10 0 11 0 0 15 0 15 15 0 15 0 0 11 0 10 14 15 15 14 10 0 11 0 0 15 0 15 15
0 15 0 0 11 0 10 14 15 15 14 10 0 11 0 0 15 0 15 15 0 15 0 0 11 0 10 14 15
15 14 10 0 11 0 0 15 0 15 15 0 15 0 0 11 0 10 14 15 15 14 10 0 11 0 0 15 0
15 15 0 15 0 0 11 0 10 14 15 15 14 10 0 11 0 0 15 0 15 -15 0 -15 0 0 11 0
10 -14 15 -15 14 -10 0 -11 0 0 15 0 15 -15 0 -15 0 0 11 0 10 -14 15 -15 14
-21 0 -21 0 -15 -14 -14 -15 0 -21 0 -21 14 -15 15 -14 10 0 11 0 0 -15 0 -15
15 0 15 0 0 -15 0 -15 -15 0 -15 0 0 -10 0 -10 -11 0 -10 0 -15 14 -14 15 0
10 0 11 10 0 10 0 0 11 0 10 -14 15 -15 14 -10 0 -11 0 0 -10 0 -10 -15 0 -15
0 0 -15 0 -15 -10 0 -10 0 0 -15 0 -15 -15 0 -15 0 0 -10 0 -10 -15 0 -15 0 0
-15 0 -15 -10 0 -10 0 0 -15 0 -15 -15 0 -15 0 0 -10 0 -10 -15 0 -15 0 0 -15
0 -15 15 0 15 0 0 15 0 15 15 0 15 0 0 -15 0 -15 10 0 10 0 0 15 0 15 15 0 15
0 0 -15 0 -15 15 0 15 0 0 15 0 15 -15 0 -15 0 0 10 0 10 15 0 15 0 0 15 0 15
10 0 10 0 0 -15 0 -15 15 0 15 0 0 15 0 15 -15 0 -15 0 0 15 0 15 15 0 15 0 0
10 0 10 11 0 10 0 15 -14 14 -15 0 -10 0 -11 -10 0 -10 0 0 -15 0 -15 -15 0
-15 0 0 -10 0 -10 -15 0 -15 0 0 -15 0 -15 -10 0 -10 0 0 -15 0 -15 -15 0 -15
0 0 -10 0 -10 -14 0 -14 0 -5 13 -4 12 -9 -9 -9 -9 13 -4 12 -5 0 -14 0 -14
-10 0 -10 0 0 -15 0 -15 -15 0 -15 0 0 -10 0 -10 -15 0 -15 0 0 -15 0 -15 -10
0 -10 0 0 -15 0 -15 -15 0 -15 0 0 -10 0 -10 -11 0 -10 0 -15 14 -14 15 0 10
0 11 10 0 10 0 0 15 0 15 15 0 15 0 0 10 0 10 15 0 15 0 0 15 0 15 10 0 10 0
0 15 0 15 15 0 15 0 0 10 0 10 -25 0 -25 0 0 -10 0 -10 -15 0 -15 0 0 25 0 25
15 0 15 0 0 15 0 15 10 0 10 0 0 25 0 25 15 0 15 0 0 15 0 15 11 0 10 0 15 14
14 15 0 10 0 11 15 0 15 0 0 15 0 15 11 0 10 0 15 14 14 15 0 10 0 11 15 0 15
0 0 15 0 15 11 0 10 0 15 14 14 15 0 10 0 11 15 0 15 0 0 15 0 15 11 0 10 0
15 14 14 15 0 10 0 11 15 0 15 0 0 15 0 15 11 0 10 0 15 14 14 15 0 10 0 11
15 0 15 0 0 40 0 40 -15 0 -15 0 0 15 0 15 -25 0 -25 0 0 -15 0 -15 -15 0 -15
0 0 -11 0 -10 -14 -15 -15 -14 -10 0 -11 0 0 -15 0 -15 -15 0 -15 0 0 -11 0
-10 -14 -15 -15 -14 -10 0 -11 0 0 10 0 10 -15 0 -15 0 0 15 0 15 -10 0 -10 0
0 15 0 15 -15 0 -15 0 0 10 0 10 -15 0 -15 0 0 15 0 15 -10 0 -10 0 0 15 0 15
-15 0 -15 0 0 10 0 10 -15 0 -15 0 0 15 0 15 -10 0 -10 0 0 15 0 15 -15 0 -15
0 0 10 0 10 -12 0 -13 -1 -12 -14z m37 -180 l0 -15 15 0 15 0 0 -15 0 -15 -15
0 -15 0 0 -10 0 -10 -11 0 -10 0 -15 14 -14 15 0 10 0 11 10 0 10 0 0 15 0 15
15 0 15 0 0 -15z m-44 -59 l14 -15 0 -10 0 -11 -10 0 -10 0 0 -15 0 -15 -15 0
-15 0 0 -10 0 -10 -15 0 -15 0 0 -15 0 -15 -10 0 -10 0 0 -15 0 -15 -15 0 -15
0 0 -10 0 -10 -11 0 -10 0 -15 14 -14 15 0 10 0 11 10 0 10 0 0 15 0 15 15 0
15 0 0 10 0 10 15 0 15 0 0 15 0 15 10 0 10 0 0 15 0 15 15 0 15 0 0 10 0 10
11 0 10 0 15 -14z m94 4 l0 -10 15 0 15 0 0 -15 0 -15 15 0 15 0 0 -14 0 -14
13 -6 12 -6 -12 -6 -13 -6 0 -14 0 -14 -15 0 -15 0 0 15 0 15 -11 0 -10 0 -15
14 -14 15 0 10 0 11 -15 0 -15 0 0 15 0 15 15 0 15 0 0 10 0 10 10 0 10 0 0
-10z m460 -25 l0 -15 -15 0 -15 0 0 -15 0 -15 -11 0 -10 0 -15 -14 -14 -15 0
-10 0 -11 -15 0 -15 0 0 -15 0 -15 -15 0 -15 0 0 15 0 15 15 0 15 0 0 15 0 15
11 0 10 0 15 14 14 15 0 10 0 11 15 0 15 0 0 15 0 15 15 0 15 0 0 -15z m-714
-139 l14 -15 0 -10 0 -11 -10 0 -10 0 0 -15 0 -15 -15 0 -15 0 0 -10 0 -10
-15 0 -15 0 0 -15 0 -15 -10 0 -10 0 0 -15 0 -15 -15 0 -15 0 0 -10 0 -10 -11
0 -10 0 -15 14 -14 15 0 10 0 11 10 0 10 0 0 15 0 15 15 0 15 0 0 10 0 10 15
0 15 0 0 15 0 15 10 0 10 0 0 15 0 15 15 0 15 0 0 10 0 10 11 0 10 0 15 -14z
m94 4 l0 -10 15 0 15 0 0 -15 0 -15 15 0 15 0 0 -14 0 -14 13 -6 12 -6 -12 -6
-13 -6 0 -14 0 -14 -15 0 -15 0 0 15 0 15 -11 0 -10 0 -15 14 -14 15 0 10 0
11 -15 0 -15 0 0 15 0 15 15 0 15 0 0 10 0 10 10 0 10 0 0 -10z m380 -105 l0
-15 -15 0 -15 0 0 -15 0 -15 -11 0 -10 0 -15 -14 -14 -15 0 -10 0 -11 -15 0
-15 0 0 -15 0 -15 -14 0 -14 0 -5 -12 -4 -13 -9 9 -9 9 13 4 12 5 0 14 0 14
15 0 15 0 0 15 0 15 11 0 10 0 15 14 14 15 0 10 0 11 15 0 15 0 0 15 0 15 15
0 15 0 0 -15z m-160 -30 l0 -15 -15 0 -15 0 0 15 0 15 15 0 15 0 0 -15z m-380
-25 l0 -10 15 0 15 0 0 -15 0 -15 15 0 15 0 0 -14 0 -14 13 -6 12 -6 -12 -6
-13 -6 0 -14 0 -14 -15 0 -15 0 0 15 0 15 -11 0 -10 0 -15 14 -14 15 0 10 0
11 -15 0 -15 0 0 15 0 15 15 0 15 0 0 10 0 10 10 0 10 0 0 -10z m270 -25 l0
-15 -15 0 -15 0 0 -15 0 -15 -10 0 -10 0 0 -25 0 -25 -15 0 -15 0 0 25 0 25
15 0 15 0 0 15 0 15 10 0 10 0 0 15 0 15 15 0 15 0 0 -15z m450 -55 l0 -10
-10 0 -10 0 0 10 0 10 10 0 10 0 0 -10z m-560 -80 l0 -10 15 0 15 0 0 -15 0
-15 15 0 15 0 0 -14 0 -14 13 -6 12 -6 -12 -6 -13 -6 0 -14 0 -14 -15 0 -15 0
0 15 0 15 -11 0 -10 0 -15 14 -14 15 0 10 0 11 -15 0 -15 0 0 15 0 15 15 0 15
0 0 10 0 10 10 0 10 0 0 -10z m480 0 l0 -10 -10 0 -10 0 0 10 0 10 10 0 10 0
0 -10z m-80 -80 l0 -10 -10 0 -10 0 0 10 0 10 10 0 10 0 0 -10z m-80 -80 l0
-10 -10 0 -10 0 0 10 0 10 10 0 10 0 0 -10z m-80 -80 l0 -10 -10 0 -10 0 0 10
0 10 10 0 10 0 0 -10z m-80 -80 l0 -10 -10 0 -10 0 0 10 0 10 10 0 10 0 0 -10z"/>
<path d="M530 865 l0 -15 15 0 15 0 0 15 0 15 -15 0 -15 0 0 -15z"/>
<path d="M480 815 l0 -15 15 0 15 0 0 15 0 15 -15 0 -15 0 0 -15z"/>
<path d="M690 865 l0 -15 15 0 15 0 0 15 0 15 -15 0 -15 0 0 -15z"/>
<path d="M370 705 l0 -15 15 0 15 0 0 15 0 15 -15 0 -15 0 0 -15z"/>
<path d="M320 655 l0 -15 15 0 15 0 0 15 0 15 -15 0 -15 0 0 -15z"/>
<path d="M530 705 l0 -15 15 0 15 0 0 15 0 15 -15 0 -15 0 0 -15z"/>
<path d="M370 545 l0 -15 15 0 15 0 0 15 0 15 -15 0 -15 0 0 -15z"/>
<path d="M530 385 l0 -15 15 0 15 0 0 15 0 15 -15 0 -15 0 0 -15z"/>
<path d="M850 869 l0 -10 -14 -15 -15 -14 -10 0 -11 0 0 -15 0 -15 15 0 15 0
0 11 0 10 14 15 15 14 10 0 11 0 0 15 0 15 -15 0 -15 0 0 -11z"/>
<path d="M750 760 l0 -10 10 0 10 0 0 10 0 10 -10 0 -10 0 0 -10z"/>
<path d="M480 495 l0 -15 15 0 15 0 0 15 0 15 -15 0 -15 0 0 -15z"/>
<path d="M690 385 l0 -15 15 0 15 0 0 15 0 15 -15 0 -15 0 0 -15z"/>
<path d="M640 335 l0 -15 15 0 15 0 0 15 0 15 -15 0 -15 0 0 -15z"/>
</g>
</svg>
