<?xml version="1.0" standalone="no"?>
<!DOCTYPE svg PUBLIC "-//W3C//DTD SVG 20010904//EN"
 "http://www.w3.org/TR/2001/REC-SVG-20010904/DTD/svg10.dtd">
<svg version="1.0" xmlns="http://www.w3.org/2000/svg"
 width="468pt" height="468pt" viewBox="0 0 468 468"
 preserveAspectRatio="xMidYMid meet">
<metadata>
Created by potrace 1.8, written by Peter Selinger 2001-2007
</metadata>
<g transform="translate(0,468) scale(0.365625,-0.365625)"
fill="#000000" stroke="none">
<path d="M430 1200 l0 -80 25 0 25 0 0 -25 0 -25 -25 0 -25 0 0 -135 0 -135
130 0 130 0 0 25 0 25 30 0 30 0 0 55 0 55 25 0 25 0 0 25 0 25 25 0 25 0 0
55 0 55 30 0 30 0 0 80 0 80 -30 0 -30 0 0 -25 0 -25 -80 0 -80 0 0 25 0 25
-130 0 -130 0 0 -80z m420 -55 l0 -25 -50 0 -50 0 0 -25 0 -25 25 0 25 0 0
-30 0 -30 -25 0 -25 0 0 -25 0 -25 -30 0 -30 0 0 -55 0 -55 -105 0 -105 0 0
30 0 30 25 0 25 0 0 25 0 25 30 0 30 0 0 25 0 25 25 0 25 0 0 55 0 55 25 0 25
0 0 25 0 25 80 0 80 0 0 -25z"/>
<path d="M430 720 l0 -30 25 0 25 0 0 30 0 30 -25 0 -25 0 0 -30z"/>
<path d="M640 720 l0 -30 25 0 25 0 0 30 0 30 -25 0 -25 0 0 -30z"/>
<path d="M430 615 l0 -25 25 0 25 0 0 25 0 25 -25 0 -25 0 0 -25z"/>
<path d="M640 615 l0 -25 25 0 25 0 0 25 0 25 -25 0 -25 0 0 -25z"/>
<path d="M430 505 l0 -25 25 0 25 0 0 25 0 25 -25 0 -25 0 0 -25z"/>
<path d="M640 505 l0 -25 25 0 25 0 0 -25 0 -25 -25 0 -25 0 0 -55 0 -55 -25
0 -25 0 0 -55 0 -55 -30 0 -30 0 0 -50 0 -50 -25 0 -25 0 0 -55 0 -55 105 0
105 0 0 105 0 105 30 0 30 0 0 30 0 30 -30 0 -30 0 0 80 0 80 80 0 80 0 0
-135 0 -135 -25 0 -25 0 0 -25 0 -25 25 0 25 0 0 -55 0 -55 30 0 30 0 0 55 0
55 -30 0 -30 0 0 25 0 25 30 0 30 0 0 160 0 160 -110 0 -110 0 0 25 0 25 -25
0 -25 0 0 -25z m50 -265 l0 -30 -25 0 -25 0 0 30 0 30 25 0 25 0 0 -30z"/>
<path d="M430 400 l0 -30 25 0 25 0 0 30 0 30 -25 0 -25 0 0 -30z"/>
<path d="M430 295 l0 -25 25 0 25 0 0 25 0 25 -25 0 -25 0 0 -25z"/>
<path d="M430 185 l0 -25 25 0 25 0 0 25 0 25 -25 0 -25 0 0 -25z"/>
</g>
</svg>
