<?xml version="1.0" standalone="no"?>
<!DOCTYPE svg PUBLIC "-//W3C//DTD SVG 20010904//EN"
 "http://www.w3.org/TR/2001/REC-SVG-20010904/DTD/svg10.dtd">
<svg version="1.0" xmlns="http://www.w3.org/2000/svg"
 width="468pt" height="468pt" viewBox="0 0 468 468"
 preserveAspectRatio="xMidYMid meet">
<metadata>
Created by potrace 1.8, written by Peter Selinger 2001-2007
</metadata>
<g transform="translate(0,468) scale(0.365625,-0.365625)"
fill="#000000" stroke="none">
<path d="M0 1270 l0 -10 10 0 10 0 0 -19 0 -19 -13 -5 -12 -5 15 -12 15 -12
-13 -5 -12 -5 0 -123 0 -123 13 -6 12 -6 -12 -6 -13 -6 0 -18 0 -18 13 -5 12
-5 -14 -10 -14 -10 16 -16 16 -16 23 0 24 0 14 20 14 20 8 0 8 0 0 -20 0 -20
-20 0 -20 0 0 -11 0 -12 21 -18 22 -19 -34 -31 -33 -31 14 -8 14 -9 -6 -7 -7
-6 -17 16 -16 17 21 18 21 18 0 7 0 6 -16 0 -15 0 -16 15 -15 16 7 7 8 7 4
-12 5 -13 19 0 19 0 0 6 0 5 -14 15 -15 14 -11 0 -11 0 -17 -17 -17 -16 13 -5
12 -4 0 -18 0 -18 -12 -5 -13 -5 15 -12 15 -12 -12 -5 -13 -5 0 -28 0 -28 13
-6 12 -6 -12 -6 -13 -6 0 -73 0 -73 13 -5 12 -5 -15 -11 -15 -11 15 -11 15
-11 -13 -5 -12 -5 0 -18 0 -18 13 -6 12 -6 -12 -6 -13 -6 0 -19 0 -19 10 0 10
0 0 20 0 20 29 0 29 0 5 13 4 12 9 -8 8 -8 -14 -9 -14 -9 7 -8 8 -7 10 14 9
15 9 -15 10 -14 8 7 7 8 -14 9 -14 9 7 8 8 7 9 -14 9 -14 8 8 8 9 -12 4 -13 5
0 9 0 9 15 0 15 0 0 -19 0 -20 -15 -15 -15 -15 0 -5 0 -6 10 0 11 0 27 27 26
27 -12 4 -12 4 0 15 0 15 33 31 32 30 -12 4 -13 5 0 9 0 9 19 0 19 0 4 -12 5
-13 17 18 17 17 -37 0 -37 0 -18 22 -19 21 -7 -7 -7 -7 14 -10 15 -9 -12 -8
-13 -8 20 -14 20 -14 0 -8 0 -8 -20 0 -20 0 0 20 0 20 -9 0 -10 0 -3 -18 -3
-19 -23 24 -23 24 23 -6 23 -5 15 10 15 10 -14 9 -14 9 18 19 18 18 5 -13 4
-12 9 0 9 0 0 16 0 17 -22 18 -21 19 6 7 7 6 20 -23 20 -23 19 21 18 22 17 0
16 0 0 10 0 10 20 0 20 0 0 9 0 9 -12 5 -13 4 7 8 7 7 27 -27 27 -27 -14 -9
-14 -9 15 -9 14 -10 -7 -7 -7 -7 -19 21 -18 22 -17 0 -16 0 0 -6 0 -5 14 -15
15 -14 12 0 12 0 20 -23 20 -22 4 13 5 12 18 0 18 0 5 13 5 12 11 -15 11 -15
0 -5 0 -5 -11 -15 -11 -15 -5 13 -5 12 -19 0 -19 0 0 -9 0 -9 13 -5 12 -4 -9
-9 -9 -9 -4 13 -5 12 -15 0 -16 0 -18 21 -18 21 -16 -15 -15 -16 0 -15 0 -16
10 0 10 0 0 10 0 10 16 0 15 0 13 -13 14 -13 -35 -1 -34 -1 -18 -21 -18 -21
-12 0 -12 0 -17 -17 -17 -16 13 -5 12 -4 0 -9 0 -9 -20 0 -20 0 0 -6 0 -7 22
-18 21 -19 -7 -7 -7 -7 -9 14 -8 14 -30 -32 -30 -32 -7 0 -8 0 -20 22 -20 23
-4 -12 -5 -13 -18 0 -18 0 -5 13 -4 12 -9 -9 -9 -9 13 -4 12 -5 0 -9 0 -9 -30
0 -30 0 0 -135 0 -135 640 0 640 0 0 155 0 155 -20 0 -20 0 0 10 0 10 20 0 20
0 0 9 0 9 -12 6 -13 6 12 6 13 6 0 53 0 53 -12 6 -13 6 13 6 12 6 0 54 0 55
-36 36 -36 36 -9 -14 -8 -13 -7 6 -6 7 17 17 17 17 8 -14 9 -13 7 6 6 7 -16
17 -17 16 -18 -21 -18 -21 -7 0 -6 0 0 15 0 16 25 25 25 25 15 -15 15 -15 0
-14 0 -15 12 -5 13 -5 -14 -10 -14 -10 16 -16 16 -16 5 0 6 0 0 29 0 29 -12 6
-13 6 13 6 12 6 0 9 0 9 -16 0 -15 0 -15 14 -14 15 0 5 0 6 19 0 19 0 5 -12 4
-13 9 9 9 9 -12 4 -13 5 0 13 0 13 12 5 13 5 -15 11 -15 11 15 9 14 10 -7 8
-8 7 -9 -14 -9 -14 -7 7 -7 7 21 19 22 18 0 66 0 65 -12 6 -13 6 13 6 12 6 0
33 0 33 -13 5 -12 5 14 10 14 10 -16 16 -16 16 -15 0 -16 0 0 10 0 10 20 0 20
0 0 -10 0 -10 10 0 10 0 0 20 0 20 -30 0 -30 0 0 19 0 19 13 5 12 4 -8 9 -8 8
-10 -14 -11 -15 -5 13 -5 12 -38 0 -38 0 -5 -12 -5 -13 -1 13 -1 12 -19 0 -19
0 -6 -12 -6 -13 -6 13 -6 12 -38 0 -38 0 -6 -12 -6 -13 -6 13 -6 12 -28 0 -28
0 -6 -12 -6 -13 -6 13 -6 12 -28 0 -28 0 -5 -12 -5 -13 -1 13 -1 12 -10 0 -10
0 0 -16 0 -15 -16 -16 -16 -16 -9 14 -9 14 -10 -15 -10 -15 -9 14 -9 14 -16
-16 -16 -16 0 -5 0 -6 20 0 20 0 0 -19 0 -19 -12 -5 -13 -5 15 -11 14 -10 -7
-7 -7 -7 -19 22 -20 23 -25 -25 -25 -25 -13 -5 -13 -5 15 -11 14 -10 -8 -8 -9
-8 -4 13 -5 12 -19 0 -19 0 0 9 0 9 12 6 13 6 -22 -6 -23 -5 0 15 0 16 -20 0
-20 0 0 20 0 20 10 0 10 0 0 -10 0 -10 20 0 20 0 0 -10 0 -10 19 0 19 0 5 -12
4 -13 9 8 8 8 -14 10 -15 11 13 5 12 5 0 9 0 9 -20 0 -20 0 0 -10 0 -10 -10 0
-10 0 0 19 0 19 12 5 13 4 -24 22 -24 21 6 6 6 6 51 -52 50 -51 16 15 15 16
-16 17 -17 16 -8 -13 -8 -13 -16 16 -16 16 0 25 0 26 -74 0 -74 0 -6 -12 -6
-13 -6 13 -6 12 -68 0 -68 0 -6 -12 -6 -13 -6 13 -6 12 -39 0 -39 0 0 -9 0 -9
13 -5 12 -4 -8 -9 -8 -8 -8 13 -9 13 -4 -13 -5 -14 -9 9 -9 9 13 4 12 5 0 9 0
9 -40 0 -40 0 0 -9 0 -9 13 -5 12 -4 -7 -8 -8 -8 -20 24 -21 23 -10 -14 -11
-15 -5 13 -5 12 -9 0 -9 0 0 -10z m60 -29 l0 -19 -12 -5 -13 -5 14 -10 14 -10
-17 -17 -17 -17 -7 6 -6 7 14 10 15 9 -15 11 -15 11 13 5 12 5 0 19 0 19 10 0
10 0 0 -19z m170 9 l0 -10 -10 0 -10 0 0 10 0 10 10 0 10 0 0 -10z m140 0 l0
-10 -10 0 -10 0 0 10 0 10 10 0 10 0 0 -10z m100 0 l0 -10 -10 0 -10 0 0 10 0
10 10 0 10 0 0 -10z m460 0 l0 -10 -10 0 -10 0 0 10 0 10 10 0 10 0 0 -10z
m270 0 l0 -10 -10 0 -10 0 0 -10 0 -10 20 0 20 0 0 -6 0 -7 -22 -18 -21 -19 7
-7 7 -7 9 13 8 14 17 -17 17 -17 -6 -7 -7 -6 -9 13 -8 14 -18 -17 -17 -18 14
-9 14 -9 -7 0 -6 0 -16 6 -16 6 0 19 0 19 -19 0 -19 0 -5 13 -5 12 -1 -12 -1
-12 15 -15 15 -15 0 -5 0 -6 -14 0 -14 0 -4 12 -5 13 -15 -16 -15 -15 39 -1
38 -2 16 -16 16 -16 -7 -7 -8 -7 -4 13 -5 12 -23 0 -23 0 -4 12 -5 13 -16 -17
-17 -17 0 -12 0 -12 22 -18 21 -19 -7 -7 -7 -7 -10 14 -9 15 -9 -15 -10 -14
-8 7 -7 8 13 9 14 8 -16 17 -17 16 -17 -16 -16 -17 13 -8 14 -8 -32 -30 -32
-30 0 -15 0 -15 12 -4 13 -5 -18 -17 -18 -18 -7 6 -6 7 14 10 15 11 -12 5 -13
5 0 19 0 19 -6 0 -5 0 -16 -16 -16 -16 13 -8 13 -8 -18 -19 -18 -18 -5 13 -4
12 -9 0 -9 0 0 -20 0 -20 -10 0 -10 0 0 10 0 10 -20 0 -20 0 0 8 0 9 -20 23
-20 23 -7 -6 -6 -7 23 -20 23 -20 -7 -7 -7 -7 -9 14 -8 14 -32 -34 -31 -33 -7
8 -7 8 13 4 12 5 0 15 0 16 -22 18 -21 19 6 7 7 6 19 -21 18 -22 17 0 16 0 0
6 0 7 -22 18 -21 19 7 7 7 7 10 -14 9 -15 11 15 11 15 5 -12 5 -13 14 0 14 0
0 9 0 10 -16 16 -16 16 7 7 8 7 4 -12 5 -13 14 0 14 0 0 9 0 9 -12 4 -12 4 28
29 28 28 9 -14 9 -14 10 15 10 15 9 -15 10 -14 19 22 19 22 26 0 25 0 5 13 4
12 9 -8 8 -8 -14 -9 -14 -9 8 -8 9 -8 4 13 5 12 19 0 19 0 0 10 0 10 -22 2
-23 1 -17 -1 -18 -2 0 15 0 15 30 0 30 0 0 -10 0 -10 10 0 10 0 0 19 0 19 -12
5 -13 4 8 9 8 8 9 -13 8 -14 16 16 16 16 0 5 0 6 -20 0 -20 0 0 10 0 10 19 0
20 0 6 -20 6 -20 15 0 15 0 16 15 15 16 -6 7 -7 6 -9 -13 -8 -14 -17 17 -17
17 6 7 7 6 9 -14 9 -15 18 22 18 23 8 0 7 0 0 -10z m-870 -20 l0 -10 -10 0
-10 0 0 10 0 10 10 0 10 0 0 -10z m520 0 l0 -10 -10 0 -10 0 0 10 0 10 10 0
10 0 0 -10z m40 0 l0 -10 -10 0 -10 0 0 10 0 10 10 0 10 0 0 -10z m100 0 l0
-10 -10 0 -10 0 0 10 0 10 10 0 10 0 0 -10z m-720 -20 l0 -10 -10 0 -10 0 0
10 0 10 10 0 10 0 0 -10z m180 0 l0 -10 -10 0 -10 0 0 10 0 10 10 0 10 0 0
-10z m70 -10 l0 -20 -10 0 -10 0 0 10 0 10 -9 0 -10 0 -6 -20 -6 -20 -20 0
-19 0 0 10 0 10 19 0 20 0 6 20 6 20 20 0 19 0 0 -20z m410 14 l0 -5 -15 -16
-16 -15 -5 5 -6 6 13 15 14 15 8 1 7 0 0 -6z m100 -4 l0 -10 -10 0 -10 0 0 10
0 10 10 0 10 0 0 -10z m-680 -20 l0 -10 -10 0 -10 0 0 10 0 10 10 0 10 0 0
-10z m390 0 l0 -10 -10 0 -10 0 0 10 0 10 10 0 10 0 0 -10z m40 0 l0 -10 -10
0 -10 0 0 10 0 10 10 0 10 0 0 -10z m-470 -20 l0 -10 -10 0 -10 0 0 10 0 10
10 0 10 0 0 -10z m720 0 l0 -10 -10 0 -10 0 0 10 0 10 10 0 10 0 0 -10z m-910
-20 l0 -10 -10 0 -10 0 0 10 0 10 10 0 10 0 0 -10z m70 0 l0 -10 -10 0 -10 0
0 10 0 10 10 0 10 0 0 -10z m180 4 l0 -5 -15 -16 -16 -15 -5 5 -6 6 13 15 14
15 8 1 7 0 0 -6z m370 -4 l0 -10 -10 0 -10 0 0 10 0 10 10 0 10 0 0 -10z m210
0 l0 -10 -10 0 -10 0 0 10 0 10 10 0 10 0 0 -10z m-904 -25 l15 -15 -4 0 -5 0
-16 6 -16 6 0 9 0 9 6 0 5 0 15 -15z m364 0 l0 -15 9 0 10 0 16 16 16 16 7 -6
6 -7 -14 -10 -15 -10 26 6 26 6 42 -40 43 -41 -17 -16 -16 -16 -7 6 -6 7 13 9
14 8 -16 16 -16 16 -5 0 -6 0 0 -20 0 -20 -10 0 -10 0 0 16 0 15 -14 15 -15
14 -10 0 -11 0 0 -6 0 -5 15 -15 15 -15 0 -12 0 -12 -10 15 -9 14 -19 -22 -19
-22 -17 0 -16 0 0 -9 0 -9 13 -5 12 -4 -9 -9 -9 -9 -4 13 -5 12 -9 0 -9 0 0
-19 0 -19 -12 -5 -13 -5 15 -11 14 -10 -7 -8 -8 -7 -10 14 -11 15 -5 -12 -5
-13 -19 0 -19 0 0 6 0 5 14 15 15 14 15 0 16 0 0 20 0 20 -9 0 -9 0 -5 -12 -5
-13 -10 14 -10 14 -18 -17 -17 -18 14 -9 14 -9 -14 -9 -15 -9 34 -32 33 -31
-7 -6 -6 -6 -19 21 -18 22 -17 0 -16 0 0 10 0 10 -10 0 -10 0 0 -19 0 -19 13
-5 12 -4 -9 -9 -9 -9 -4 13 -5 12 -29 0 -29 0 0 -7 0 -8 -10 -15 -9 -14 -20
23 -21 24 -19 -21 -18 -22 -27 0 -26 0 0 9 0 9 13 5 12 5 -14 10 -14 10 27 27
27 27 7 -7 7 -8 -12 -4 -13 -5 0 -9 0 -9 30 0 30 0 0 9 0 9 -12 5 -13 4 8 9 8
8 10 -14 11 -15 5 13 5 12 14 0 14 0 0 10 0 10 -15 0 -15 0 0 10 0 10 11 0 10
0 15 14 14 15 0 15 0 16 9 0 9 0 5 -12 5 -13 11 15 11 15 9 -14 9 -14 17 17
17 17 -22 19 -23 20 23 20 23 20 11 0 11 0 -14 -9 -14 -9 16 -16 16 -16 11 0
11 0 15 14 14 15 0 6 0 6 13 14 12 14 8 1 7 0 0 -15z m480 5 l0 -10 -10 0 -10
0 0 10 0 10 10 0 10 0 0 -10z m-30 -20 l14 -9 -6 -7 -7 -6 -16 16 -16 16 8 0
8 0 15 -10z m-740 -10 l0 -10 -10 0 -10 0 0 10 0 10 10 0 10 0 0 -10z m70 0
l0 -10 -10 0 -10 0 0 10 0 10 10 0 10 0 0 -10z m450 -20 l0 -10 -10 0 -10 0 0
10 0 10 10 0 10 0 0 -10z m60 0 l0 -10 -10 0 -10 0 0 10 0 10 10 0 10 0 0 -10z
m104 -5 l5 -15 -5 -15 -6 -15 -9 0 -9 0 0 9 0 9 13 6 12 6 -12 6 -13 6 0 9 0
9 9 0 9 0 6 -15z m436 5 l0 -10 -10 0 -10 0 0 10 0 10 10 0 10 0 0 -10z
m-1133 -25 l15 -16 -5 -6 -6 -5 -16 15 -15 16 0 5 0 6 6 0 5 0 16 -15z m123 5
l0 -10 -10 0 -10 0 0 10 0 10 10 0 10 0 0 -10z m450 -20 l0 -10 -10 0 -10 0 0
10 0 10 10 0 10 0 0 -10z m-640 -20 l0 -10 -10 0 -10 0 0 10 0 10 10 0 10 0 0
-10z m700 0 l0 -10 -10 0 -10 0 0 10 0 10 10 0 10 0 0 -10z m420 0 l0 -10 -10
0 -10 0 0 10 0 10 10 0 10 0 0 -10z m-1080 -20 l0 -10 -10 0 -10 0 0 10 0 10
10 0 10 0 0 -10z m80 0 l0 -10 -10 0 -10 0 0 10 0 10 10 0 10 0 0 -10z m314
-6 l6 -16 0 -6 0 -7 -10 15 -10 15 -9 -15 -10 -14 -6 6 -7 7 13 15 14 15 6 1
7 0 6 -16z m-434 -14 l0 -10 -10 0 -10 0 0 10 0 10 10 0 10 0 0 -10z m80 4 l0
-5 -15 -16 -16 -15 -5 5 -6 6 13 15 14 15 8 1 7 0 0 -6z m460 -4 l0 -10 -10 0
-10 0 0 10 0 10 10 0 10 0 0 -10z m470 0 l0 -10 -10 0 -10 0 0 10 0 10 10 0
10 0 0 -10z m47 -5 l15 -16 -5 -6 -6 -5 -16 15 -15 16 0 5 0 6 6 0 5 0 16 -15z
m43 5 l0 -10 -10 0 -10 0 0 10 0 10 10 0 10 0 0 -10z m60 0 l0 -10 -10 0 -10
0 0 10 0 10 10 0 10 0 0 -10z m40 0 l0 -10 -10 0 -10 0 0 10 0 10 10 0 10 0 0
-10z m-700 -20 l0 -10 -10 0 -10 0 0 10 0 10 10 0 10 0 0 -10z m100 0 l0 -10
-10 0 -10 0 0 10 0 10 10 0 10 0 0 -10z m-223 -25 l15 -16 -5 -6 -6 -5 -16 15
-15 16 0 5 0 6 6 0 5 0 16 -15z m183 5 l0 -10 -10 0 -10 0 0 10 0 10 10 0 10
0 0 -10z m607 -5 l15 -16 -5 -6 -6 -5 -16 15 -15 16 0 5 0 6 6 0 5 0 16 -15z
m-647 -15 l0 -10 -10 0 -10 0 0 10 0 10 10 0 10 0 0 -10z m80 0 l0 -10 -10 0
-10 0 0 10 0 10 10 0 10 0 0 -10z m450 0 l0 -10 -10 0 -10 0 0 10 0 10 10 0
10 0 0 -10z m50 0 l0 -10 -10 0 -10 0 0 10 0 10 10 0 10 0 0 -10z m-453 -26
l16 -16 -14 -9 -14 -9 15 -9 14 -10 -23 -20 -24 -21 -19 0 -18 0 0 -10 0 -10
19 0 19 0 4 12 5 13 16 -17 17 -17 0 -5 0 -6 -19 0 -19 0 -5 -12 -4 -13 -29
31 -30 32 -14 5 -15 4 26 -3 27 -3 23 21 24 21 -12 4 -13 5 0 9 0 9 20 0 20 0
0 10 0 10 -10 0 -10 0 0 10 0 10 6 0 5 0 16 -16z m-297 -14 l0 -10 -10 0 -10
0 0 10 0 10 10 0 10 0 0 -10z m130 0 l0 -10 -10 0 -10 0 0 10 0 10 10 0 10 0
0 -10z m80 4 l0 -5 -15 -16 -16 -15 -5 5 -6 6 13 15 14 15 8 1 7 0 0 -6z m230
-28 l0 -6 -35 0 -35 0 0 -8 0 -7 25 -19 25 -19 0 -11 0 -11 -10 15 -10 15 -9
-15 -10 -14 -8 8 -8 9 12 4 13 5 -16 15 -16 16 -6 -10 -7 -10 -28 -7 -29 -7
26 26 25 25 16 0 15 0 0 10 0 10 20 0 20 0 0 11 0 10 15 -15 15 -15 0 -5z
m200 24 l0 -10 -10 0 -10 0 0 10 0 10 10 0 10 0 0 -10z m110 0 l0 -10 -10 0
-10 0 0 10 0 10 10 0 10 0 0 -10z m80 0 l0 -10 -10 0 -10 0 0 10 0 10 10 0 10
0 0 -10z m-750 -20 l0 -10 -10 0 -10 0 0 10 0 10 10 0 10 0 0 -10z m480 0 l0
-10 -10 0 -10 0 0 10 0 10 10 0 10 0 0 -10z m230 0 l0 -10 -10 0 -10 0 0 10 0
10 10 0 10 0 0 -10z m-970 -20 l0 -10 -20 0 -20 0 0 10 0 10 20 0 20 0 0 -10z
m80 0 l0 -10 -10 0 -10 0 0 10 0 10 10 0 10 0 0 -10z m120 0 l0 -10 -10 0 -10
0 0 10 0 10 10 0 10 0 0 -10z m130 0 l0 -10 -10 0 -10 0 0 10 0 10 10 0 10 0
0 -10z m80 0 l0 -10 -10 0 -10 0 0 10 0 10 10 0 10 0 0 -10z m270 0 l0 -10
-10 0 -10 0 0 10 0 10 10 0 10 0 0 -10z m100 0 l0 -10 -10 0 -10 0 0 10 0 10
10 0 10 0 0 -10z m-734 -25 l15 -15 -4 0 -5 0 -16 6 -16 6 0 9 0 9 6 0 5 0 15
-15z m194 5 l0 -10 -10 0 -10 0 0 10 0 10 10 0 10 0 0 -10z m56 -2 l15 -13 14
-12 14 -13 15 0 16 0 0 -10 0 -10 15 0 16 0 26 -26 25 -25 -6 -7 -7 -6 -10 14
-11 15 -5 -12 -5 -13 -19 0 -19 0 0 -9 0 -9 13 -5 12 -4 -8 -9 -8 -8 -10 14
-11 15 -5 -12 -5 -13 -18 0 -18 0 -6 13 -6 12 -6 -12 -6 -13 -10 0 -9 0 -15
-15 -15 -15 15 -15 15 -15 20 0 21 0 0 10 0 10 -20 0 -20 0 0 6 0 5 14 15 15
14 5 0 6 0 0 -20 0 -20 9 0 9 0 5 13 4 12 8 -7 8 -7 -33 -31 -34 -32 14 -8 14
-9 -7 -7 -7 -7 -19 22 -20 23 -4 11 -4 12 -32 -34 -32 -34 -7 7 -6 7 14 10 15
9 -15 10 -15 10 15 11 15 11 -12 5 -13 5 0 18 0 18 -12 5 -13 4 8 9 8 8 9 -14
9 -14 19 22 19 22 16 0 15 0 5 -12 5 -13 1 35 1 35 -10 -15 -9 -14 -7 6 -6 7
16 17 17 16 -7 21 -7 21 19 -19 19 -18 -13 -5 -12 -4 0 -9 0 -9 20 0 20 0 0
-10 0 -10 -10 0 -10 0 0 -10 0 -10 19 0 19 0 5 -12 4 -13 9 9 9 9 -12 4 -13 5
0 19 0 19 10 0 10 0 0 -20 0 -20 6 0 5 0 15 15 15 15 -15 15 -15 15 -25 0 -26
0 0 19 0 20 -20 6 -20 6 0 10 0 9 5 0 6 0 15 -12z m324 2 l0 -10 -10 0 -10 0
0 10 0 10 10 0 10 0 0 -10z m220 0 l0 -10 -4 0 -4 0 -18 -7 -18 -7 14 17 15
16 8 1 7 0 0 -10z m133 -2 l5 -13 11 15 11 15 10 -15 10 -15 9 15 10 14 8 -8
8 -9 -13 -4 -14 -5 -46 -46 -46 -46 -4 12 -4 12 -9 0 -9 0 0 -15 0 -16 35 -34
34 -35 16 0 15 0 0 -10 0 -10 -20 0 -20 0 0 10 0 10 -30 0 -30 0 0 -20 0 -20
9 0 9 0 5 13 4 12 22 -25 22 -24 9 14 9 14 7 -6 6 -7 -27 -26 -26 -27 -7 6 -6
7 13 9 14 8 -16 17 -17 16 -15 -15 -15 -15 0 -18 0 -18 -9 14 -9 14 -18 -17
-17 -18 14 -8 13 -9 -7 -8 -8 -7 -10 14 -9 15 -10 -15 -10 -15 -10 15 -10 15
-10 -15 -10 -15 -10 15 -10 15 -10 -15 -10 -15 -9 15 -10 14 -7 -6 -6 -7 15
-16 16 -15 14 0 14 0 23 -20 23 -20 -6 -7 -7 -6 -19 21 -18 22 -17 0 -16 0 0
-16 0 -17 21 -18 21 -18 -16 -17 -17 -16 -7 6 -6 7 14 9 14 9 -22 19 -22 19 0
16 0 15 13 5 12 6 -32 -6 -33 -5 0 12 0 13 21 18 21 18 -42 41 -42 41 5 6 6 6
31 -33 30 -32 16 17 17 17 -14 8 -13 9 7 7 7 7 19 -21 18 -22 17 0 16 0 0 6 0
6 -31 29 -32 30 6 5 6 6 37 -38 38 -38 -12 -4 -12 -4 0 -19 0 -19 -6 0 -7 0
-18 22 -19 21 -7 -7 -7 -7 14 -10 15 -9 -15 -9 -14 -10 7 -8 8 -7 10 14 9 15
10 -15 10 -15 10 15 10 15 9 -14 9 -15 30 32 30 32 11 0 11 0 0 10 0 10 -15 0
-15 0 0 9 0 9 13 5 12 5 -15 11 -15 11 15 9 14 10 -6 7 -7 6 -17 -17 -17 -17
14 -8 13 -9 -7 -8 -8 -7 -9 14 -9 14 -7 -7 -7 -7 22 -19 23 -20 -26 -26 -25
-25 -6 0 -5 0 0 20 0 20 10 0 10 0 0 19 0 19 -12 6 -13 6 13 6 12 6 0 9 0 9
-20 0 -20 0 0 10 0 10 19 0 19 0 4 -12 4 -12 27 26 27 27 0 16 0 15 -6 0 -7 0
-18 -22 -19 -21 -7 7 -7 7 14 10 15 9 -15 9 -14 10 7 8 8 7 10 -14 9 -15 10
15 10 15 9 -14 9 -13 5 13 5 14 10 -14 10 -14 27 28 28 27 -14 9 -14 9 -7 0
-8 0 0 10 0 10 9 0 9 0 5 -12z m-1003 -18 l14 -9 -8 -8 -9 -8 -4 13 -5 12 -14
0 -14 0 0 -5 0 -6 13 -15 12 -15 14 -15 13 -15 -7 -7 -8 -7 -4 13 -5 13 -25
26 -26 25 14 9 14 9 10 0 10 0 15 -10z m130 -10 l0 -10 -10 0 -10 0 0 10 0 10
10 0 10 0 0 -10z m430 0 l0 -10 -10 0 -10 0 0 10 0 10 10 0 10 0 0 -10z m350
0 l0 -10 -10 0 -10 0 0 10 0 10 10 0 10 0 0 -10z m70 0 l0 -10 -20 0 -20 0 0
10 0 10 20 0 20 0 0 -10z m-923 -25 l15 -16 -5 -6 -6 -5 -16 15 -15 16 0 5 0
6 6 0 5 0 16 -15z m153 5 l0 -10 -10 0 -10 0 0 10 0 10 10 0 10 0 0 -10z m580
0 l0 -10 -10 0 -10 0 0 10 0 10 10 0 10 0 0 -10z m-190 -20 l0 -10 -10 0 -10
0 0 10 0 10 10 0 10 0 0 -10z m90 0 l0 -10 -10 0 -10 0 0 10 0 10 10 0 10 0 0
-10z m-440 -20 l0 -10 -10 0 -10 0 0 10 0 10 10 0 10 0 0 -10z m310 0 l0 -10
-10 0 -10 0 0 10 0 10 10 0 10 0 0 -10z m290 0 l0 -10 -10 0 -10 0 0 10 0 10
10 0 10 0 0 -10z m-866 -26 l6 -16 0 -5 0 -4 -15 15 -15 15 0 5 0 6 9 0 9 0 6
-16z m86 6 l0 -10 -10 0 -10 0 0 10 0 10 10 0 10 0 0 -10z m60 0 l0 -10 -10 0
-10 0 0 10 0 10 10 0 10 0 0 -10z m60 0 l0 -10 -10 0 -10 0 0 10 0 10 10 0 10
0 0 -10z m600 0 l0 -10 -10 0 -10 0 0 10 0 10 10 0 10 0 0 -10z m-270 -20 l0
-10 -10 0 -10 0 0 10 0 10 10 0 10 0 0 -10z m80 0 l0 -10 -10 0 -10 0 0 10 0
10 10 0 10 0 0 -10z m50 0 l0 -10 -10 0 -10 0 0 10 0 10 10 0 10 0 0 -10z m87
-5 l15 -16 -5 -6 -6 -5 -16 15 -15 16 0 5 0 6 6 0 5 0 16 -15z m-797 -15 l0
-10 -10 0 -10 0 0 10 0 10 10 0 10 0 0 -10z m547 -5 l15 -16 -5 -6 -6 -5 -16
15 -15 16 0 5 0 6 6 0 5 0 16 -15z m133 -15 l0 -10 -10 0 -10 0 0 10 0 10 10
0 10 0 0 -10z m90 0 l0 -10 -10 0 -10 0 0 10 0 10 10 0 10 0 0 -10z m-790 -20
l0 -10 -10 0 -10 0 0 10 0 10 10 0 10 0 0 -10z m110 0 l0 -10 -10 0 -10 0 0
10 0 10 10 0 10 0 0 -10z m80 0 l0 -10 -10 0 -10 0 0 10 0 10 10 0 10 0 0 -10z
m310 0 l0 -10 -10 0 -10 0 0 10 0 10 10 0 10 0 0 -10z m140 0 l0 -10 -10 0
-10 0 0 10 0 10 10 0 10 0 0 -10z m90 0 l0 -10 -10 0 -10 0 0 10 0 10 10 0 10
0 0 -10z m-690 -20 l0 -10 -10 0 -10 0 0 10 0 10 10 0 10 0 0 -10z m110 0 l0
-10 -10 0 -10 0 0 10 0 10 10 0 10 0 0 -10z m450 -20 l0 -10 -10 0 -10 0 0 10
0 10 10 0 10 0 0 -10z m560 0 l0 -10 -10 0 -10 0 0 10 0 10 10 0 10 0 0 -10z
m-1200 -16 l0 -5 -15 -16 -16 -15 -5 5 -6 6 13 15 14 15 8 1 7 0 0 -6z m60 -4
l0 -10 -10 0 -10 0 0 10 0 10 10 0 10 0 0 -10z m640 0 l0 -10 -10 0 -10 0 0
10 0 10 10 0 10 0 0 -10z m105 -15 l25 -24 0 -16 0 -15 -10 0 -10 0 0 -13 0
-13 20 -14 20 -14 0 -17 0 -17 13 -5 12 -4 -25 -22 -24 -22 14 -9 14 -9 -6 -7
-7 -6 -18 18 -18 17 13 5 12 4 0 9 0 9 -16 0 -15 0 -16 -15 -15 -16 23 -19 22
-20 -7 -7 -7 -7 -9 13 -8 14 -18 -17 -17 -18 14 -8 13 -9 -8 -8 -9 -8 -5 14
-4 13 -9 -13 -8 -13 -8 7 -7 8 13 8 14 9 -37 37 -37 37 -7 -7 -7 -8 13 -4 12
-5 0 -18 0 -18 12 -4 13 -5 -19 -19 -19 -19 -5 13 -4 12 -29 0 -29 0 0 -10 0
-10 -19 0 -19 0 -5 13 -5 12 -11 -15 -10 -14 -7 6 -6 7 15 16 16 15 15 0 16 0
0 9 0 9 -12 5 -13 4 7 8 8 8 20 -24 21 -23 9 14 9 14 21 -23 20 -24 7 6 6 7
-21 19 -22 18 0 17 0 16 -9 0 -9 0 -5 -12 -4 -13 -8 7 -7 7 17 17 17 17 8 -13
8 -13 18 17 17 18 -14 9 -14 9 15 10 15 10 -15 9 -14 10 6 7 7 7 31 -33 32
-34 9 15 9 14 0 8 0 7 -11 0 -10 0 -13 13 -13 13 33 0 34 0 0 -13 0 -13 20 0
20 0 0 10 0 10 -10 0 -10 0 0 14 0 14 -12 5 -13 4 9 9 9 9 4 -12 5 -13 9 0 9
0 0 18 0 18 -20 14 -20 14 0 8 0 8 5 0 6 0 24 -25z m-165 -1 l0 -5 -15 -16
-16 -15 -5 5 -6 6 13 15 14 15 8 1 7 0 0 -6z m540 -4 l0 -10 -10 0 -10 0 0 10
0 10 10 0 10 0 0 -10z m-1160 -20 l0 -10 -10 0 -10 0 0 10 0 10 10 0 10 0 0
-10z m520 0 l0 -10 -10 0 -10 0 0 10 0 10 10 0 10 0 0 -10z m-460 -20 l0 -10
-10 0 -10 0 0 10 0 10 10 0 10 0 0 -10z m420 0 l0 -10 -10 0 -10 0 0 10 0 10
10 0 10 0 0 -10z m600 0 l0 -10 -20 0 -20 0 0 10 0 10 20 0 20 0 0 -10z
m-1120 -20 l0 -10 -10 0 -10 0 0 10 0 10 10 0 10 0 0 -10z m460 0 l0 -10 -10
0 -10 0 0 10 0 10 10 0 10 0 0 -10z m100 0 l0 -10 -10 0 -10 0 0 10 0 10 10 0
10 0 0 -10z m60 0 l0 -10 -10 0 -10 0 0 10 0 10 10 0 10 0 0 -10z m440 -20
l14 -9 -6 -7 -7 -6 -16 16 -16 16 8 0 8 0 15 -10z m-630 -10 l0 -10 -10 0 -10
0 0 10 0 10 10 0 10 0 0 -10z m90 0 l0 -10 -10 0 -10 0 0 10 0 10 10 0 10 0 0
-10z m80 0 l0 -10 -10 0 -10 0 0 10 0 10 10 0 10 0 0 -10z m560 0 l0 -10 -10
0 -10 0 0 10 0 10 10 0 10 0 0 -10z m-1120 -19 l0 -9 -12 -4 -13 -5 18 -18 19
-18 8 13 8 13 17 -16 16 -17 -16 -16 -16 -16 -19 22 -20 23 -19 -21 -18 -22
-7 0 -6 0 0 20 0 20 20 0 20 0 0 9 0 9 -12 4 -12 4 14 17 15 16 8 1 7 0 0 -9z
m40 -1 l0 -10 20 0 20 0 1 -12 1 -13 5 13 5 12 9 0 9 0 0 -20 0 -20 -20 0 -21
0 -24 25 -25 24 0 6 0 5 10 0 10 0 0 -10z m400 0 l0 -10 -10 0 -10 0 0 10 0
10 10 0 10 0 0 -10z m550 0 l0 -10 -10 0 -10 0 0 10 0 10 10 0 10 0 0 -10z
m170 0 l0 -10 -10 0 -10 0 0 10 0 10 10 0 10 0 0 -10z m-870 -20 l0 -10 -10 0
-10 0 0 10 0 10 10 0 10 0 0 -10z m80 0 l0 -10 -10 0 -10 0 0 10 0 10 10 0 10
0 0 -10z m150 0 l0 -10 -10 0 -10 0 0 10 0 10 10 0 10 0 0 -10z m80 5 l0 -6
-26 -26 -25 -25 -6 5 -5 6 23 25 24 25 8 0 7 1 0 -5z m480 -5 l0 -10 -10 0
-10 0 0 10 0 10 10 0 10 0 0 -10z m-850 -20 l0 -10 -10 0 -10 0 0 10 0 10 10
0 10 0 0 -10z m210 0 l0 -10 -10 0 -10 0 0 10 0 10 10 0 10 0 0 -10z m550 0
l0 -10 -10 0 -10 0 0 10 0 10 10 0 10 0 0 -10z m150 0 l0 -10 -10 0 -10 0 0
10 0 10 10 0 10 0 0 -10z m-810 -20 l0 -10 -10 0 -10 0 0 10 0 10 10 0 10 0 0
-10z m60 0 l0 -10 -10 0 -10 0 0 10 0 10 10 0 10 0 0 -10z m640 0 l0 -10 -10
0 -10 0 0 10 0 10 10 0 10 0 0 -10z m50 0 l0 -10 -10 0 -10 0 0 10 0 10 10 0
10 0 0 -10z m-150 -20 l0 -10 -10 0 -10 0 0 10 0 10 10 0 10 0 0 -10z m40 0
l0 -10 -10 0 -10 0 0 10 0 10 10 0 10 0 0 -10z m170 0 l0 -10 -10 0 -10 0 0
10 0 10 10 0 10 0 0 -10z m-620 -20 l0 -10 -10 0 -10 0 0 10 0 10 10 0 10 0 0
-10z m350 0 l0 -10 -10 0 -10 0 0 10 0 10 10 0 10 0 0 -10z m190 0 l0 -10 -10
0 -10 0 0 10 0 10 10 0 10 0 0 -10z m-790 -20 l0 -10 -10 0 -10 0 0 10 0 10
10 0 10 0 0 -10z m80 0 l0 -10 -10 0 -10 0 0 10 0 10 10 0 10 0 0 -10z m90 0
l0 -10 -10 0 -10 0 0 10 0 10 10 0 10 0 0 -10z m590 0 l0 -10 -10 0 -10 0 0
10 0 10 10 0 10 0 0 -10z m70 0 l0 -10 -10 0 -10 0 0 10 0 10 10 0 10 0 0 -10z
m-870 -20 l0 -10 -10 0 -10 0 0 10 0 10 10 0 10 0 0 -10z m620 0 l0 -10 -10 0
-10 0 0 10 0 10 10 0 10 0 0 -10z m140 0 l0 -10 -10 0 -10 0 0 10 0 10 10 0
10 0 0 -10z m150 4 l0 -5 -15 -16 -16 -15 -5 5 -6 6 13 15 14 15 8 1 7 0 0 -6z
m-830 -24 l0 -10 -10 0 -10 0 0 10 0 10 10 0 10 0 0 -10z m500 0 l0 -10 -10 0
-10 0 0 10 0 10 10 0 10 0 0 -10z m120 0 l0 -10 -10 0 -10 0 0 10 0 10 10 0
10 0 0 -10z m250 0 l0 -10 -10 0 -10 0 0 10 0 10 10 0 10 0 0 -10z"/>
<path d="M940 1053 l-14 -17 12 -4 12 -4 0 -9 0 -9 -26 0 -25 0 -16 -16 -16
-16 13 -8 13 -8 -16 -16 -16 -16 -15 0 -16 0 0 10 0 10 20 0 20 0 0 9 0 9 -12
6 -13 6 13 6 12 6 0 29 0 29 -6 0 -5 0 -16 -16 -16 -16 14 -10 14 -10 -12 -5
-13 -5 0 -18 0 -18 -12 -4 -13 -5 17 -16 17 -17 14 0 15 0 5 13 5 12 11 -15
10 -14 8 7 7 8 -13 9 -14 8 28 27 27 28 8 -13 8 -13 27 27 27 27 -6 7 -7 6 -9
-13 -8 -14 -16 16 -16 16 0 5 0 6 30 0 30 0 0 10 0 10 -27 0 -28 -1 -15 -16z
m30 -53 l0 -10 -10 0 -10 0 0 10 0 10 10 0 10 0 0 -10z m-60 -20 l0 -10 -10 0
-10 0 0 10 0 10 10 0 10 0 0 -10z"/>
<path d="M890 1040 l0 -10 10 0 10 0 0 10 0 10 -10 0 -10 0 0 -10z"/>
<path d="M373 1085 l-23 -24 0 -15 0 -14 13 -5 12 -4 -7 -8 -7 -7 -41 42 -41
42 -6 -6 -6 -6 22 -19 23 -20 -27 -27 -27 -27 -10 14 -10 14 -5 -12 -5 -13
-15 0 -14 0 -16 -16 -16 -16 13 -8 13 -8 -14 -16 -14 -15 -14 -16 -13 -16 7
-7 8 -7 4 13 5 12 24 0 24 0 0 10 0 10 -10 0 -10 0 0 10 0 10 16 0 16 0 40 42
40 41 9 -14 9 -14 10 15 10 15 9 -14 9 -14 16 16 16 16 0 14 0 15 -12 4 -13 5
18 17 17 17 17 -16 16 -17 -14 -8 -13 -9 6 -7 7 -6 17 17 17 17 -14 9 -14 9
15 9 14 10 -7 8 -8 7 -10 -14 -11 -15 -5 13 -5 12 -6 -1 -7 0 -22 -24z m-43
-65 l0 -10 -10 0 -10 0 0 10 0 10 10 0 10 0 0 -10z m-80 -36 l0 -5 -14 -15
-15 -14 -15 0 -16 0 0 10 0 10 20 0 20 0 0 10 0 10 10 0 10 0 0 -6z"/>
<path d="M480 1104 l0 -5 15 -16 16 -15 6 5 5 6 -15 16 -16 15 -5 0 -6 0 0 -6z"/>
<path d="M40 884 l0 -5 15 -16 16 -15 6 5 5 6 -15 16 -16 15 -5 0 -6 0 0 -6z"/>
<path d="M430 661 l0 -19 -12 -5 -13 -5 15 -11 15 -11 -15 -9 -14 -10 6 -7 7
-6 17 17 17 17 -14 10 -14 10 13 5 12 5 0 19 0 19 -10 0 -10 0 0 -19z"/>
<path d="M1110 693 l0 -8 10 -15 9 -14 7 6 6 7 -16 16 -16 16 0 -8z"/>
<path d="M930 550 l0 -10 10 0 10 0 0 10 0 10 -10 0 -10 0 0 -10z"/>
<path d="M857 427 l-18 -22 -9 15 -9 14 -8 -7 -7 -8 13 -8 14 -9 -14 -15 -14
-14 -28 30 -28 30 -7 -7 -6 -7 14 -10 15 -9 -14 -9 -14 -9 35 -34 34 -35 13
15 14 14 -13 8 -13 8 26 26 26 26 15 0 14 0 5 -12 4 -13 9 9 9 9 -12 4 -13 5
0 19 0 19 -7 0 -8 0 -18 -23z m-66 -59 l19 -21 0 -9 0 -9 -25 25 -25 25 0 6 0
5 6 0 7 0 18 -22z"/>
<path d="M640 300 l0 -10 10 0 10 0 0 10 0 10 -10 0 -10 0 0 -10z"/>
<path d="M640 1270 l0 -10 -20 0 -20 0 0 -10 0 -10 19 0 19 0 5 -12 4 -13 22
25 22 24 10 -14 9 -15 10 15 10 15 9 -15 10 -14 7 6 6 7 -17 17 -17 17 -9 -14
-9 -14 -10 15 -10 15 -11 -15 -11 -15 -5 13 -5 12 -9 0 -9 0 0 -10z m20 -20
l0 -10 -10 0 -10 0 0 10 0 10 10 0 10 0 0 -10z"/>
<path d="M1260 1250 l0 -10 10 0 10 0 0 10 0 10 -10 0 -10 0 0 -10z"/>
<path d="M660 1170 l0 -10 10 0 10 0 0 10 0 10 -10 0 -10 0 0 -10z"/>
<path d="M600 1150 l0 -10 10 0 10 0 0 10 0 10 -10 0 -10 0 0 -10z"/>
<path d="M80 750 l0 -10 10 0 10 0 0 10 0 10 -10 0 -10 0 0 -10z"/>
<path d="M350 610 l0 -10 10 0 10 0 0 10 0 10 -10 0 -10 0 0 -10z"/>
<path d="M263 565 l-13 -14 0 -16 0 -15 -10 0 -10 0 0 -10 0 -10 25 0 26 0 25
25 25 25 -15 15 -15 15 -13 0 -13 -1 -12 -14z m47 -11 l0 -5 -15 -16 -16 -15
-5 5 -6 6 13 15 14 15 8 1 7 0 0 -6z"/>
<path d="M450 530 l0 -10 10 0 10 0 0 10 0 10 -10 0 -10 0 0 -10z"/>
</g>
</svg>
