<?xml version="1.0" standalone="no"?>
<!DOCTYPE svg PUBLIC "-//W3C//DTD SVG 20010904//EN"
 "http://www.w3.org/TR/2001/REC-SVG-20010904/DTD/svg10.dtd">
<svg version="1.0" xmlns="http://www.w3.org/2000/svg"
 width="468pt" height="468pt" viewBox="0 0 468 468"
 preserveAspectRatio="xMidYMid meet">
<metadata>
Created by potrace 1.8, written by Peter Selinger 2001-2007
</metadata>
<g transform="translate(0,468) scale(0.365625,-0.365625)"
fill="#000000" stroke="none">
<path d="M370 1190 l0 -90 -95 0 -95 0 0 -95 0 -95 -90 0 -90 0 0 -270 0 -270
90 0 90 0 0 -95 0 -95 95 0 95 0 0 -90 0 -90 270 0 270 0 0 90 0 90 95 0 95 0
0 95 0 95 90 0 90 0 0 270 0 270 -90 0 -90 0 0 95 0 95 -95 0 -95 0 0 90 0 90
-270 0 -270 0 0 -90z m540 -185 l0 -95 -270 0 -270 0 0 -90 0 -90 -95 0 -95 0
0 90 0 90 95 0 95 0 0 95 0 95 270 0 270 0 0 -95z"/>
</g>
</svg>
