<?xml version="1.0" standalone="no"?>
<!DOCTYPE svg PUBLIC "-//W3C//DTD SVG 20010904//EN"
 "http://www.w3.org/TR/2001/REC-SVG-20010904/DTD/svg10.dtd">
<svg version="1.0" xmlns="http://www.w3.org/2000/svg"
 width="468pt" height="468pt" viewBox="0 0 468 468"
 preserveAspectRatio="xMidYMid meet">
<metadata>
Created by potrace 1.8, written by Peter Selinger 2001-2007
</metadata>
<g transform="translate(0,468) scale(0.365625,-0.365625)"
fill="#000000" stroke="none">
<path d="M500 1170 l0 -10 10 0 10 0 0 10 0 10 -10 0 -10 0 0 -10z"/>
<path d="M520 1120 l0 -20 10 0 10 0 0 20 0 20 -10 0 -10 0 0 -20z"/>
<path d="M700 1121 l0 -19 -12 -6 -13 -6 13 -6 12 -6 0 -37 0 -37 20 -14 20
-14 0 -38 0 -38 10 0 10 0 0 20 0 20 10 0 10 0 0 20 0 20 -10 0 -10 0 0 20 0
20 -10 0 -10 0 0 20 0 20 -10 0 -10 0 0 40 0 40 -10 0 -10 0 0 -19z"/>
<path d="M360 1094 l0 -5 15 -16 16 -15 6 5 5 6 -15 16 -16 15 -5 0 -6 0 0 -6z"/>
<path d="M540 1070 l0 -10 10 0 10 0 0 10 0 10 -10 0 -10 0 0 -10z"/>
<path d="M400 1034 l0 -5 15 -16 16 -15 6 5 5 6 -15 16 -16 15 -5 0 -6 0 0 -6z"/>
<path d="M540 1030 l0 -10 -20 0 -20 0 0 -10 0 -10 -20 0 -20 0 0 -9 0 -9 13
-5 12 -5 -15 -11 -14 -10 8 -8 9 -8 4 13 5 12 9 0 9 0 0 -20 0 -20 8 0 8 0 14
20 14 20 14 0 13 0 16 16 16 16 -14 9 -14 9 15 9 14 10 -7 8 -8 7 -10 -14 -11
-15 -5 13 -5 12 -9 0 -9 0 0 -10z"/>
<path d="M620 970 l0 -10 -20 0 -20 0 0 -10 0 -10 -16 0 -15 0 -15 -14 -14
-15 0 -12 0 -12 -22 -20 -23 -20 13 -4 12 -5 0 -19 0 -19 50 0 50 0 0 10 0 10
20 0 20 0 0 10 0 10 16 0 15 0 15 14 14 15 0 14 0 15 13 6 12 6 -12 6 -13 6 0
15 0 14 -14 15 -15 14 -25 0 -26 0 0 -10z"/>
<path d="M840 940 l0 -20 -10 0 -10 0 0 -40 0 -40 -30 0 -30 0 0 20 0 20 -15
0 -16 0 -34 -35 -35 -34 0 -16 0 -15 10 0 10 0 0 -18 0 -18 20 -14 20 -14 0
-18 0 -18 10 0 10 0 0 -18 0 -18 20 -14 20 -14 0 -16 0 -16 20 -14 20 -14 0
-18 0 -18 10 0 10 0 0 -16 0 -15 14 -15 15 -14 11 0 11 0 15 14 14 15 0 25 0
26 -10 0 -10 0 0 30 0 30 -10 0 -10 0 0 30 0 30 -10 0 -10 0 0 29 0 29 -12 5
-13 4 7 8 7 7 60 -61 60 -61 35 0 36 0 0 10 0 10 -25 0 -26 0 -69 70 -69 70
-26 0 -25 0 0 20 0 20 20 0 20 0 0 30 0 30 10 0 10 0 0 19 0 19 12 4 13 5 -17
16 -17 17 -5 0 -6 0 0 -20z"/>
<path d="M300 934 l0 -5 14 -15 15 -14 11 0 11 0 15 -14 14 -15 0 -13 0 -14
20 -14 20 -14 0 -14 0 -13 14 -15 15 -14 35 0 36 0 0 -20 0 -20 10 0 10 0 0
-20 0 -20 -20 0 -20 0 0 10 0 10 -29 0 -29 0 -4 12 -5 13 -16 -17 -17 -17 0
-5 0 -6 20 0 20 0 0 -10 0 -10 70 0 70 0 0 -29 0 -29 -12 -6 -13 -6 13 -6 12
-6 0 -39 0 -39 10 0 10 0 0 -20 0 -20 10 0 10 0 0 -30 0 -30 -10 0 -10 0 0
-30 0 -30 10 0 10 0 0 20 0 20 10 0 10 0 0 20 0 20 10 0 10 0 0 18 0 18 -20
14 -20 14 0 18 0 18 -10 0 -10 0 0 40 0 40 5 0 6 0 24 -25 25 -24 0 -13 0 -14
20 -14 20 -14 0 -14 0 -13 14 -15 15 -14 15 0 16 0 0 -10 0 -10 40 0 40 0 0
20 0 20 -10 0 -10 0 0 20 0 20 -10 0 -10 0 0 18 0 18 -20 14 -20 14 0 18 0 18
-10 0 -10 0 0 20 0 20 -10 0 -10 0 0 18 0 18 -20 14 -20 14 0 18 0 18 -10 0
-10 0 0 16 0 15 -14 15 -15 14 -15 0 -16 0 0 -10 0 -10 -70 0 -70 0 0 18 0 18
-20 14 -20 14 0 14 0 13 -25 24 -24 25 -26 0 -25 0 0 10 0 10 -10 0 -10 0 0
-6z"/>
<path d="M0 100 l0 -100 640 0 640 0 0 100 0 100 -640 0 -640 0 0 -100z"/>
</g>
</svg>
