<?xml version="1.0" standalone="no"?>
<!DOCTYPE svg PUBLIC "-//W3C//DTD SVG 20010904//EN"
 "http://www.w3.org/TR/2001/REC-SVG-20010904/DTD/svg10.dtd">
<svg version="1.0" xmlns="http://www.w3.org/2000/svg"
 width="468pt" height="468pt" viewBox="0 0 468 468"
 preserveAspectRatio="xMidYMid meet">
<metadata>
Created by potrace 1.8, written by Peter Selinger 2001-2007
</metadata>
<g transform="translate(0,468) scale(0.365625,-0.365625)"
fill="#000000" stroke="none">
<path d="M0 640 l0 -640 640 0 640 0 0 640 0 640 -640 0 -640 0 0 -640z m688
563 l17 -16 -13 -5 -12 -4 0 -19 0 -19 -10 0 -10 0 0 -20 0 -20 16 0 15 0 15
14 14 15 0 35 0 36 10 0 10 0 0 -20 0 -20 10 0 10 0 0 -30 0 -30 -10 0 -10 0
0 -10 0 -10 18 0 18 0 14 20 14 20 34 0 33 0 15 14 14 15 0 15 0 16 10 0 10 0
0 -48 0 -48 -20 -14 -20 -14 0 -28 0 -28 50 0 50 0 0 -10 0 -10 20 0 20 0 0
-10 0 -10 -40 0 -40 0 0 -30 0 -30 49 0 49 0 4 12 5 13 16 -17 17 -17 0 -5 0
-6 -30 0 -30 0 0 -20 0 -20 -15 0 -16 0 -24 -25 -25 -24 0 -11 0 -11 14 -15
15 -14 15 0 16 0 0 -10 0 -10 20 0 20 0 0 -10 0 -10 20 0 20 0 0 -10 0 -10
-90 0 -90 0 0 -20 0 -20 10 0 10 0 0 -36 0 -35 14 -15 15 -14 15 0 16 0 0 -20
0 -20 -10 0 -10 0 0 10 0 10 -40 0 -40 0 0 10 0 10 -19 0 -19 0 -4 12 -4 12
-27 -26 -27 -27 0 -16 0 -15 -9 0 -9 0 -5 13 -5 12 -11 -15 -11 -15 -11 15
-11 15 -5 -12 -5 -13 -14 0 -15 0 -24 -25 -25 -24 0 -46 0 -45 -10 0 -10 0 0
10 0 10 -20 0 -20 0 0 20 0 20 -10 0 -10 0 0 50 0 50 -20 0 -20 0 0 10 0 10
-18 0 -18 0 -14 20 -14 20 -18 0 -18 0 0 -25 0 -26 25 -24 24 -25 6 0 5 0 0
20 0 20 20 0 20 0 0 -8 0 -8 -20 -14 -20 -14 0 -38 0 -38 -10 0 -10 0 0 20 0
20 -20 0 -20 0 0 -9 0 -9 13 -5 12 -4 -7 -8 -7 -7 -16 15 -15 16 0 15 0 16 20
0 20 0 0 20 0 20 -20 0 -20 0 0 30 0 30 -10 0 -10 0 0 -30 0 -30 -20 0 -20 0
0 -20 0 -20 -10 0 -10 0 0 38 0 38 20 14 20 14 0 18 0 18 10 0 10 0 0 20 0 20
-20 0 -20 0 0 10 0 10 -30 0 -30 0 0 -10 0 -10 -10 0 -10 0 0 20 0 20 15 0 16
0 24 25 25 24 0 36 0 35 -19 0 -19 0 -5 13 -4 12 -9 -9 -9 -9 13 -4 12 -5 0
-9 0 -9 -20 0 -20 0 0 -10 0 -10 -10 0 -10 0 0 20 0 20 10 0 10 0 0 20 0 20
19 0 19 0 6 13 6 12 6 -12 6 -13 9 0 9 0 0 30 0 30 -10 0 -10 0 0 20 0 20 -10
0 -10 0 0 20 0 20 -10 0 -10 0 0 25 0 26 27 27 27 26 4 -12 4 -12 17 0 17 0
14 -20 14 -20 8 0 8 0 0 28 0 28 -20 14 -20 14 0 38 0 38 5 0 6 0 24 -25 25
-24 0 -26 0 -25 9 0 9 0 5 13 5 12 11 -15 10 -14 8 7 7 8 -14 10 -15 11 13 5
12 5 0 19 0 19 10 0 10 0 0 30 0 30 10 0 10 0 0 -40 0 -40 -10 0 -10 0 0 -20
0 -20 30 0 30 0 0 20 0 20 -10 0 -10 0 0 30 0 30 8 0 8 0 14 -20 14 -20 18 0
18 0 0 10 0 10 20 0 20 0 0 30 0 30 6 0 5 0 17 -17z m72 -733 l0 -10 20 0 20
0 0 -40 0 -40 -30 0 -30 0 0 10 0 10 10 0 10 0 0 20 0 20 -10 0 -10 0 0 20 0
20 10 0 10 0 0 -10z"/>
<path d="M613 1125 l-13 -14 0 -6 0 -5 20 0 20 0 0 20 0 20 -7 0 -8 -1 -12
-14z"/>
<path d="M380 1110 l0 -10 10 0 10 0 0 10 0 10 -10 0 -10 0 0 -10z"/>
<path d="M813 1085 l-13 -14 0 -16 0 -15 10 0 10 0 0 20 0 20 10 0 10 0 0 -30
0 -30 10 0 10 0 0 20 0 20 10 0 10 0 0 20 0 20 -9 0 -9 0 -6 -12 -6 -13 -6 13
-6 12 -6 0 -7 -1 -12 -14z"/>
<path d="M300 1004 l0 -35 14 -15 15 -14 15 0 16 0 0 10 0 10 -10 0 -10 0 0
26 0 25 -14 15 -15 14 -5 0 -6 0 0 -36z"/>
<path d="M523 955 l-23 -24 0 -26 0 -25 10 0 10 0 0 -20 0 -20 25 0 26 0 24
25 25 24 0 21 0 21 -14 15 -15 14 -15 0 -16 0 0 10 0 10 -7 -1 -8 0 -22 -24z
m52 -20 l25 -24 0 -6 0 -5 -30 0 -30 0 0 -10 0 -10 -10 0 -10 0 0 20 0 20 10
0 10 0 0 20 0 20 5 0 6 0 24 -25z"/>
<path d="M683 955 l-23 -24 0 -31 0 -31 14 -15 15 -14 11 0 11 0 24 25 25 24
0 21 0 21 -25 24 -24 25 -3 -1 -3 0 -22 -24z m57 -35 l0 -20 -30 0 -30 0 0 20
0 20 30 0 30 0 0 -20z"/>
<path d="M900 970 l0 -10 10 0 10 0 0 10 0 10 -10 0 -10 0 0 -10z"/>
<path d="M900 930 l0 -10 10 0 10 0 0 10 0 10 -10 0 -10 0 0 -10z"/>
<path d="M320 910 l0 -10 10 0 10 0 0 10 0 10 -10 0 -10 0 0 -10z"/>
<path d="M920 874 l0 -5 14 -15 15 -14 11 0 11 0 15 14 14 15 0 5 0 6 -40 0
-40 0 0 -6z"/>
<path d="M620 800 l0 -20 -10 0 -10 0 0 -20 0 -20 30 0 30 0 0 20 0 20 -10 0
-10 0 0 20 0 20 -10 0 -10 0 0 -20z"/>
<path d="M753 805 l-13 -14 0 -46 0 -45 -20 0 -20 0 0 -10 0 -10 -20 0 -20 0
0 -10 0 -10 -20 0 -20 0 0 10 0 10 -30 0 -30 0 0 10 0 10 -20 0 -20 0 0 9 0 9
13 6 12 6 -12 6 -13 6 0 15 0 14 -14 15 -15 14 -25 0 -26 0 0 -10 0 -10 30 0
30 0 0 -19 0 -19 12 -4 13 -5 -17 -16 -17 -17 -22 0 -22 0 -18 22 -19 21 -8
-8 -7 -8 13 -4 12 -5 0 -19 0 -19 40 0 40 0 0 10 0 10 10 0 10 0 0 -20 0 -20
16 0 16 0 28 -30 28 -30 32 0 31 0 51 52 50 51 10 -14 10 -14 5 13 5 12 15 0
14 0 15 14 14 15 0 5 0 6 -16 0 -17 0 -18 -21 -18 -21 -16 15 -15 16 0 21 0
21 14 15 15 14 15 0 16 0 0 -10 0 -10 10 0 10 0 0 20 0 20 -37 0 -38 -1 -12
-14z"/>
<path d="M933 725 l-13 -14 0 -6 0 -5 40 0 40 0 0 10 0 10 -20 0 -20 0 0 10 0
10 -7 0 -8 -1 -12 -14z"/>
<path d="M320 660 l0 -20 20 0 20 0 0 6 0 5 -14 15 -15 14 -5 0 -6 0 0 -20z"/>
<path d="M380 590 l0 -10 10 0 10 0 0 10 0 10 -10 0 -10 0 0 -10z"/>
<path d="M320 510 l0 -10 10 0 10 0 0 10 0 10 -10 0 -10 0 0 -10z"/>
<path d="M560 450 l0 -30 10 0 10 0 0 -20 0 -20 10 0 10 0 0 30 0 30 10 0 10
0 0 20 0 20 -30 0 -30 0 0 -30z"/>
</g>
</svg>
