<?xml version="1.0" standalone="no"?>
<!DOCTYPE svg PUBLIC "-//W3C//DTD SVG 20010904//EN"
 "http://www.w3.org/TR/2001/REC-SVG-20010904/DTD/svg10.dtd">
<svg version="1.0" xmlns="http://www.w3.org/2000/svg"
 width="468pt" height="468pt" viewBox="0 0 468 468"
 preserveAspectRatio="xMidYMid meet">
<metadata>
Created by potrace 1.8, written by Peter Selinger 2001-2007
</metadata>
<g transform="translate(0,468) scale(0.365625,-0.365625)"
fill="#000000" stroke="none">
<path d="M13 1265 l-13 -14 0 -626 0 -625 10 0 10 0 0 615 0 615 11 0 10 0 15
-14 14 -15 0 -80 0 -81 -10 0 -10 0 0 -10 0 -10 35 0 35 0 0 10 0 10 -15 0
-15 0 0 35 0 35 25 0 25 0 0 -10 0 -10 15 0 15 0 0 -21 0 -20 15 -16 16 -15 7
7 7 8 -12 4 -13 5 0 20 0 19 -14 15 -15 14 -10 0 -11 0 0 25 0 25 15 0 15 0 0
15 0 15 -15 0 -15 0 0 -11 0 -10 -14 -15 -15 -14 -10 0 -11 0 0 35 0 35 15 0
15 0 0 10 0 10 -35 0 -35 0 0 15 0 15 155 0 155 0 0 -23 0 -23 20 -14 20 -14
0 -13 0 -13 11 0 10 0 15 -14 14 -15 0 -10 0 -11 10 0 10 0 0 -80 0 -80 15 0
15 0 0 70 0 70 140 0 140 0 0 -10 0 -10 -35 0 -35 0 0 -11 0 -10 -14 -15 -15
-14 -10 0 -11 0 0 -35 0 -35 15 0 15 0 0 -15 0 -15 -25 0 -25 0 0 -10 0 -10
-35 0 -35 0 0 -10 0 -10 35 0 35 0 0 10 0 10 35 0 35 0 0 -10 0 -10 35 0 35 0
0 10 0 10 15 0 15 0 0 60 0 60 -40 0 -40 0 0 -25 0 -25 25 0 25 0 0 -35 0 -35
-35 0 -35 0 0 25 0 25 -10 0 -10 0 0 31 0 30 14 15 15 14 45 0 46 0 0 48 0 48
20 14 20 14 0 13 0 13 10 0 11 0 24 25 25 24 0 11 0 10 145 0 145 0 0 -11 0
-10 14 -15 15 -14 10 0 11 0 0 -605 0 -605 10 0 10 0 0 615 0 615 -10 0 -10 0
0 15 0 15 -15 0 -15 0 0 10 0 10 -602 0 -603 -1 -12 -14z m487 -20 l0 -15 -11
0 -10 0 -15 -14 -14 -15 0 -5 0 -6 25 0 25 0 0 -15 0 -15 -14 0 -14 0 -4 -12
-5 -13 -16 17 -17 17 0 20 0 21 -11 0 -10 0 -15 14 -14 15 0 10 0 11 60 0 60
0 0 -15z m140 4 l0 -10 -14 -15 -15 -14 -10 0 -11 0 0 -10 0 -10 25 0 25 0 0
-11 0 -10 -14 -15 -15 -14 -30 0 -31 0 0 10 0 10 -15 0 -15 0 0 15 0 15 25 0
25 0 0 6 0 5 -14 15 -15 14 -10 0 -11 0 0 15 0 15 60 0 60 0 0 -11z m140 0 l0
-10 -14 -15 -15 -14 -10 0 -11 0 0 -10 0 -10 25 0 25 0 0 -11 0 -10 -14 -15
-15 -14 -30 0 -31 0 0 10 0 10 -15 0 -15 0 0 15 0 15 25 0 25 0 0 6 0 5 -14
15 -15 14 -10 0 -11 0 0 15 0 15 60 0 60 0 0 -11z m120 0 l0 -10 -14 -15 -15
-14 -16 0 -16 0 -15 14 -14 15 0 10 0 11 45 0 45 0 0 -11z m-70 -74 l0 -15
-10 0 -10 0 0 15 0 15 10 0 10 0 0 -15z"/>
<path d="M140 1220 l0 -10 14 0 14 0 4 -12 5 -13 16 17 17 17 0 5 0 6 -35 0
-35 0 0 -10z"/>
<path d="M970 1200 l0 -10 15 0 15 0 0 10 0 10 -15 0 -15 0 0 -10z"/>
<path d="M950 1150 l0 -10 -15 0 -15 0 0 -225 0 -225 -8 0 -8 0 -14 20 -14 20
-23 0 -23 0 0 -10 0 -10 -25 0 -25 0 0 -10 0 -10 -25 0 -25 0 0 -15 0 -15 11
0 10 0 15 -14 14 -15 0 -51 0 -51 -14 -15 -15 -14 -10 0 -11 0 0 -15 0 -15 25
0 25 0 0 15 0 15 15 0 15 0 0 -10 0 -11 25 -24 24 -25 11 0 10 0 0 -15 0 -15
-60 0 -60 0 0 -10 0 -10 -11 0 -10 0 -15 14 -14 15 0 10 0 11 -10 0 -10 0 0
-15 0 -15 10 0 10 0 0 -56 0 -55 -14 -15 -15 -14 -10 0 -11 0 0 -10 0 -10 35
0 35 0 0 -11 0 -10 -17 -17 -16 -17 -5 13 -4 12 -13 0 -13 0 -4 -12 -5 -13
-16 17 -17 17 0 18 0 19 20 14 20 14 0 13 0 13 15 0 15 0 0 25 0 25 -14 0 -14
0 -6 13 -6 12 -6 -12 -6 -13 -9 0 -9 0 0 20 0 20 10 0 10 0 0 15 0 15 -35 0
-35 0 0 -15 0 -15 10 0 10 0 0 -20 0 -20 -9 0 -9 0 -6 13 -6 12 -6 -12 -6 -13
-14 0 -14 0 0 -25 0 -25 15 0 15 0 0 -13 0 -13 20 -14 20 -14 0 -23 0 -23 11
0 12 0 20 -22 20 -23 4 13 5 12 13 0 13 0 5 -12 4 -13 20 23 20 22 22 0 21 0
0 -10 0 -10 15 0 15 0 0 -10 0 -10 33 0 33 0 14 20 14 20 48 0 48 0 0 15 0 15
20 0 20 0 0 115 0 115 -60 0 -60 0 0 15 0 15 -10 0 -10 0 0 45 0 45 10 0 10 0
0 15 0 15 40 0 40 0 0 -15 0 -15 20 0 20 0 0 271 0 270 -15 16 -16 15 -7 -7
-7 -8 13 -4 12 -5 0 -249 0 -249 -35 0 -35 0 0 250 0 250 10 0 10 0 0 10 0 10
-10 0 -10 0 0 -10z m-40 -770 l14 -20 13 0 13 0 0 -11 0 -10 14 -15 15 -14 10
0 11 0 0 -15 0 -15 10 0 10 0 0 -10 0 -10 -59 0 -59 0 -6 -12 -6 -13 -6 13 -6
12 -10 0 -9 0 -15 14 -14 15 0 6 0 6 -14 15 -15 14 -10 0 -11 0 0 15 0 15 -10
0 -10 0 0 10 0 10 60 0 60 0 0 10 0 10 8 0 8 0 14 -20z"/>
<path d="M810 345 l0 -15 55 0 55 0 0 15 0 15 -55 0 -55 0 0 -15z"/>
<path d="M850 295 l0 -15 60 0 60 0 0 15 0 15 -60 0 -60 0 0 -15z"/>
<path d="M550 1055 l0 -15 -15 0 -15 0 0 -10 0 -10 15 0 15 0 0 10 0 10 35 0
35 0 0 -10 0 -10 -25 0 -25 0 0 -25 0 -25 25 0 25 0 0 24 0 24 13 6 12 6 -12
6 -13 6 0 14 0 14 -35 0 -35 0 0 -15z"/>
<path d="M120 910 l0 -10 -11 0 -10 0 -15 -14 -14 -15 0 -9 0 -10 -12 -4 -13
-5 17 -16 17 -17 20 0 21 0 0 -15 0 -15 -15 0 -15 0 0 -10 0 -10 40 0 40 0 0
10 0 10 -15 0 -15 0 0 15 0 15 21 0 20 0 17 17 17 16 -13 5 -12 4 0 10 0 9
-14 15 -15 14 -10 0 -11 0 0 10 0 10 -10 0 -10 0 0 -10z"/>
<path d="M460 903 l-14 -17 12 -4 12 -4 0 -13 0 -13 -12 -5 -13 -4 9 -9 9 -9
4 13 5 12 14 0 14 0 0 15 0 15 -15 0 -15 0 0 10 0 10 15 0 15 0 0 10 0 10 -12
0 -13 -1 -15 -16z"/>
<path d="M633 835 l-13 -14 0 -6 0 -5 55 0 55 0 0 6 0 5 -14 15 -15 14 -28 0
-28 -1 -12 -14z"/>
<path d="M810 840 l0 -10 10 0 10 0 0 10 0 10 -10 0 -10 0 0 -10z"/>
<path d="M500 820 l0 -10 -15 0 -15 0 0 -25 0 -25 15 0 15 0 0 -15 0 -15 10 0
10 0 0 15 0 15 11 0 10 0 15 14 14 15 0 10 0 11 -10 0 -10 0 0 -15 0 -15 -15
0 -15 0 0 -10 0 -10 -10 0 -10 0 0 25 0 25 10 0 10 0 0 10 0 10 -10 0 -10 0 0
-10z"/>
<path d="M810 795 l0 -15 -15 0 -15 0 0 -25 0 -25 15 0 15 0 0 25 0 25 10 0
10 0 0 15 0 15 -10 0 -10 0 0 -15z"/>
<path d="M400 749 l0 -10 -14 -15 -15 -14 -45 0 -46 0 0 -10 0 -10 -20 0 -20
0 0 -120 0 -120 56 0 55 0 15 -14 14 -15 0 -41 0 -41 -14 -15 -15 -14 -35 0
-36 0 0 10 0 10 -20 0 -20 0 0 -165 0 -165 10 0 10 0 0 140 0 140 35 0 35 0 0
-140 0 -140 15 0 15 0 0 120 0 120 10 0 10 0 0 -11 0 -10 14 -15 15 -14 20 0
21 0 0 10 0 10 25 0 25 0 0 15 0 15 25 0 25 0 0 10 0 10 -11 0 -10 0 -15 14
-14 15 0 55 0 56 10 0 10 0 0 15 0 15 15 0 15 0 0 10 0 10 55 0 55 0 0 -10 0
-10 14 0 14 0 6 13 6 12 6 -12 6 -13 59 0 59 0 0 10 0 10 -50 0 -50 0 0 10 0
10 -55 0 -55 0 0 15 0 15 -11 0 -10 0 -15 14 -14 15 0 51 0 51 14 15 15 14 10
0 11 0 0 15 0 15 -35 0 -35 0 0 6 0 5 17 17 16 17 5 -13 4 -12 13 0 13 0 4 12
5 13 16 -17 17 -17 0 -16 0 -16 -25 -24 -24 -25 -11 0 -10 0 0 -25 0 -25 14 0
14 0 6 -12 6 -13 6 13 6 12 9 0 9 0 0 -25 0 -25 -10 0 -10 0 0 -10 0 -10 35 0
35 0 0 10 0 10 -10 0 -10 0 0 25 0 25 9 0 9 0 6 -12 6 -13 6 13 6 12 14 0 14
0 0 25 0 25 -10 0 -11 0 -24 25 -25 24 0 21 0 20 -11 0 -10 0 -15 14 -14 15 0
10 0 11 -10 0 -10 0 0 -15 0 -15 -15 0 -15 0 0 15 0 15 -10 0 -10 0 0 -11 0
-10 -14 -15 -15 -14 -20 0 -21 0 0 10 0 10 -15 0 -15 0 0 15 0 15 -35 0 -35 0
0 -11z m0 -74 l0 -15 10 0 11 0 24 -25 25 -24 0 -11 0 -10 -55 0 -55 0 0 -10
0 -10 -11 0 -10 0 -15 14 -14 15 0 10 0 11 60 0 60 0 0 10 0 10 -60 0 -60 0 0
-10 0 -10 -11 0 -10 0 -15 14 -14 15 0 5 0 6 60 0 60 0 0 15 0 15 10 0 10 0 0
-15z m110 -105 l14 -20 13 0 13 0 0 -13 0 -13 20 -14 20 -14 0 -13 0 -13 -10
0 -10 0 0 15 0 15 -60 0 -60 0 0 -15 0 -15 50 0 50 0 0 -10 0 -10 -25 0 -25 0
0 -10 0 -10 -10 0 -11 0 -24 25 -25 24 0 11 0 10 -11 0 -10 0 -15 14 -14 15 0
10 0 11 -10 0 -10 0 0 10 0 10 55 0 55 0 0 10 0 10 13 0 13 0 14 -20z"/>
<path d="M400 535 l0 -15 60 0 60 0 0 15 0 15 -60 0 -60 0 0 -15z"/>
<path d="M690 749 l0 -10 14 -15 15 -14 20 0 21 0 0 10 0 10 -25 0 -25 0 0 15
0 15 -10 0 -10 0 0 -11z"/>
<path d="M970 560 l0 -10 35 0 35 0 0 10 0 10 -35 0 -35 0 0 -10z"/>
<path d="M970 510 l0 -10 35 0 35 0 0 10 0 10 -35 0 -35 0 0 -10z"/>
<path d="M240 415 l0 -15 35 0 35 0 0 15 0 15 -35 0 -35 0 0 -15z"/>
<path d="M240 370 l0 -10 35 0 35 0 0 10 0 10 -35 0 -35 0 0 -10z"/>
<path d="M520 200 l0 -10 24 0 24 0 5 -12 4 -13 8 7 7 7 -15 16 -16 15 -20 0
-21 0 0 -10z"/>
<path d="M470 166 l0 -24 -12 -5 -13 -4 9 -9 9 -9 4 13 5 12 14 0 14 0 0 25 0
25 -15 0 -15 0 0 -24z"/>
<path d="M760 180 l0 -10 -15 0 -15 0 0 -14 0 -14 -12 -5 -13 -4 9 -9 9 -9 4
13 5 12 14 0 14 0 0 15 0 15 10 0 10 0 0 -25 0 -25 -10 0 -10 0 0 -15 0 -15
10 0 10 0 0 15 0 15 15 0 15 0 0 25 0 25 -15 0 -15 0 0 10 0 10 -10 0 -10 0 0
-10z"/>
<path d="M1110 155 l0 -15 15 0 15 0 0 -10 0 -10 -25 0 -25 0 0 -14 0 -14 -12
-5 -13 -4 23 -20 22 -20 0 -12 0 -11 14 0 14 0 6 -12 6 -13 6 13 6 12 14 0 14
0 0 11 0 12 23 20 22 20 -12 4 -13 5 0 14 0 14 -25 0 -25 0 0 10 0 10 15 0 15
0 0 15 0 15 -40 0 -40 0 0 -15z"/>
<path d="M550 109 l0 -10 14 -15 15 -14 26 0 26 0 15 14 14 15 0 10 0 11 -55
0 -55 0 0 -11z"/>
<path d="M450 80 l0 -10 10 0 10 0 0 10 0 10 -10 0 -10 0 0 -10z"/>
<path d="M810 80 l0 -10 -15 0 -15 0 0 -10 0 -10 15 0 15 0 0 -15 0 -15 -15 0
-15 0 0 -10 0 -10 11 0 10 0 15 14 14 15 0 9 0 10 -12 6 -13 6 13 6 12 6 0 9
0 9 -10 0 -10 0 0 -10z"/>
<path d="M500 35 l0 -15 -15 0 -15 0 0 -10 0 -10 15 0 15 0 0 10 0 10 35 0 35
0 0 -10 0 -10 35 0 35 0 0 10 0 10 35 0 35 0 0 15 0 15 -35 0 -35 0 0 -15 0
-15 -35 0 -35 0 0 15 0 15 -35 0 -35 0 0 -15z"/>
</g>
</svg>
