<?xml version="1.0" standalone="no"?>
<!DOCTYPE svg PUBLIC "-//W3C//DTD SVG 20010904//EN"
 "http://www.w3.org/TR/2001/REC-SVG-20010904/DTD/svg10.dtd">
<svg version="1.0" xmlns="http://www.w3.org/2000/svg"
 width="468pt" height="468pt" viewBox="0 0 468 468"
 preserveAspectRatio="xMidYMid meet">
<metadata>
Created by potrace 1.8, written by Peter Selinger 2001-2007
</metadata>
<g transform="translate(0,468) scale(0.365625,-0.365625)"
fill="#000000" stroke="none">
<path d="M230 1265 l0 -15 -15 0 -15 0 0 -15 0 -15 -15 0 -15 0 0 -25 0 -25
-15 0 -15 0 0 -100 0 -100 -15 0 -15 0 0 -15 0 -15 -10 0 -10 0 0 -15 0 -15
-15 0 -15 0 0 -15 0 -15 -15 0 -15 0 0 -15 0 -15 -15 0 -15 0 0 -425 0 -425
640 0 640 0 0 300 0 300 -170 0 -170 0 0 15 0 15 30 0 30 0 0 25 0 25 -15 0
-15 0 0 -15 0 -15 -15 0 -15 0 0 15 0 15 15 0 15 0 0 15 0 15 -15 0 -15 0 0
15 0 15 15 0 15 0 0 15 0 15 -15 0 -15 0 0 15 0 15 15 0 15 0 0 10 0 10 -15 0
-15 0 0 15 0 15 15 0 15 0 0 -15 0 -15 15 0 15 0 0 15 0 15 10 0 10 0 0 -15 0
-15 15 0 15 0 0 15 0 15 -15 0 -15 0 0 15 0 15 15 0 15 0 0 15 0 15 -15 0 -15
0 0 15 0 15 15 0 15 0 0 15 0 15 -15 0 -15 0 0 -15 0 -15 -10 0 -10 0 0 -15 0
-15 -15 0 -15 0 0 -15 0 -15 -15 0 -15 0 0 -15 0 -15 -440 0 -440 0 0 15 0 15
15 0 15 0 0 15 0 15 10 0 10 0 0 15 0 15 15 0 15 0 0 -30 0 -30 370 0 370 0 0
15 0 15 15 0 15 0 0 15 0 15 15 0 15 0 0 15 0 15 -30 0 -30 0 0 15 0 15 85 0
85 0 0 -15 0 -15 15 0 15 0 0 -15 0 -15 -15 0 -15 0 0 -15 0 -15 15 0 15 0 0
-15 0 -15 -15 0 -15 0 0 -15 0 -15 15 0 15 0 0 -15 0 -15 -15 0 -15 0 0 -10 0
-10 15 0 15 0 0 -15 0 -15 -15 0 -15 0 0 -15 0 -15 30 0 30 0 0 140 0 140
-115 0 -115 0 0 45 0 45 85 0 85 0 0 30 0 30 -15 0 -15 0 0 25 0 25 -10 0 -10
0 0 15 0 15 -15 0 -15 0 0 15 0 15 -370 0 -370 0 0 -15z m680 -30 l0 -15 -15
0 -15 0 0 -25 0 -25 -30 0 -30 0 0 -15 0 -15 15 0 15 0 0 -115 0 -115 -40 0
-40 0 0 15 0 15 15 0 15 0 0 15 0 15 -15 0 -15 0 0 -15 0 -15 -15 0 -15 0 0
-15 0 -15 -55 0 -55 0 0 15 0 15 -15 0 -15 0 0 -15 0 -15 -30 0 -30 0 0 15 0
15 15 0 15 0 0 15 0 15 -15 0 -15 0 0 -15 0 -15 -15 0 -15 0 0 -15 0 -15 -40
0 -40 0 0 15 0 15 -15 0 -15 0 0 15 0 15 -15 0 -15 0 0 -15 0 -15 15 0 15 0 0
-15 0 -15 -70 0 -70 0 0 15 0 15 10 0 10 0 0 15 0 15 -10 0 -10 0 0 -15 0 -15
-15 0 -15 0 0 -15 0 -15 -30 0 -30 0 0 130 0 130 15 0 15 0 0 -15 0 -15 15 0
15 0 0 15 0 15 -15 0 -15 0 0 25 0 25 15 0 15 0 0 15 0 15 340 0 340 0 0 -15z
m60 0 l0 -15 15 0 15 0 0 -25 0 -25 10 0 10 0 0 -15 0 -15 -70 0 -70 0 0 15 0
15 15 0 15 0 0 25 0 25 15 0 15 0 0 15 0 15 15 0 15 0 0 -15z m50 -340 l0 -15
-10 0 -10 0 0 -15 0 -15 -15 0 -15 0 0 15 0 15 15 0 15 0 0 15 0 15 10 0 10 0
0 -15z m-110 -170 l0 -95 -440 0 -440 0 0 95 0 95 440 0 440 0 0 -95z"/>
<path d="M260 1155 l0 -15 10 0 10 0 0 15 0 15 -10 0 -10 0 0 -15z"/>
<path d="M310 1155 l0 -15 15 0 15 0 0 15 0 15 -15 0 -15 0 0 -15z"/>
<path d="M370 1155 l0 -15 15 0 15 0 0 15 0 15 -15 0 -15 0 0 -15z"/>
<path d="M430 1155 l0 -15 15 0 15 0 0 15 0 15 -15 0 -15 0 0 -15z"/>
<path d="M480 1155 l0 -15 15 0 15 0 0 15 0 15 -15 0 -15 0 0 -15z"/>
<path d="M540 1155 l0 -15 15 0 15 0 0 15 0 15 -15 0 -15 0 0 -15z"/>
<path d="M600 1155 l0 -15 15 0 15 0 0 15 0 15 -15 0 -15 0 0 -15z"/>
<path d="M650 1155 l0 -15 15 0 15 0 0 15 0 15 -15 0 -15 0 0 -15z"/>
<path d="M710 1155 l0 -15 15 0 15 0 0 15 0 15 -15 0 -15 0 0 -15z"/>
<path d="M770 1155 l0 -15 15 0 15 0 0 15 0 15 -15 0 -15 0 0 -15z"/>
<path d="M230 1025 l0 -25 15 0 15 0 0 25 0 25 -15 0 -15 0 0 -25z"/>
<path d="M280 1025 l0 -25 15 0 15 0 0 25 0 25 -15 0 -15 0 0 -25z"/>
<path d="M430 1035 l0 -15 14 0 14 0 5 -12 4 -13 9 9 9 9 -12 4 -13 5 0 14 0
14 -15 0 -15 0 0 -15z"/>
<path d="M510 1025 l0 -25 15 0 15 0 0 25 0 25 -15 0 -15 0 0 -25z"/>
<path d="M650 1036 l0 -14 -12 -5 -13 -4 9 -9 9 -9 4 13 5 12 14 0 14 0 0 -10
0 -10 30 0 30 0 0 10 0 10 -30 0 -30 0 0 15 0 15 -15 0 -15 0 0 -14z"/>
<path d="M340 1010 l0 -10 30 0 30 0 0 10 0 10 -30 0 -30 0 0 -10z"/>
<path d="M570 1010 l0 -10 15 0 15 0 0 10 0 10 -15 0 -15 0 0 -10z"/>
<path d="M770 1010 l0 -10 15 0 15 0 0 10 0 10 -15 0 -15 0 0 -10z"/>
<path d="M310 955 l0 -15 15 0 15 0 0 15 0 15 -15 0 -15 0 0 -15z"/>
<path d="M460 955 l0 -15 10 0 10 0 0 15 0 15 -10 0 -10 0 0 -15z"/>
<path d="M650 955 l0 -15 30 0 30 0 0 15 0 15 -30 0 -30 0 0 -15z"/>
<path d="M60 755 l0 -45 100 0 100 0 0 45 0 45 -100 0 -100 0 0 -45z m50 0 l0
-15 -10 0 -10 0 0 15 0 15 10 0 10 0 0 -15z m120 0 l0 -15 -45 0 -45 0 0 15 0
15 45 0 45 0 0 -15z"/>
<path d="M310 785 l0 -15 -15 0 -15 0 0 -15 0 -15 15 0 15 0 0 -15 0 -15 15 0
15 0 0 15 0 15 15 0 15 0 0 15 0 15 -15 0 -15 0 0 15 0 15 -15 0 -15 0 0 -15z
m30 -30 l0 -15 -15 0 -15 0 0 15 0 15 15 0 15 0 0 -15z"/>
<path d="M570 770 l0 -30 30 0 30 0 0 30 0 30 -30 0 -30 0 0 -30z"/>
<path d="M650 770 l0 -30 30 0 30 0 0 30 0 30 -30 0 -30 0 0 -30z"/>
<path d="M740 770 l0 -30 30 0 30 0 0 30 0 30 -30 0 -30 0 0 -30z"/>
<path d="M1140 865 l0 -15 15 0 15 0 0 15 0 15 -15 0 -15 0 0 -15z"/>
<path d="M1190 865 l0 -15 15 0 15 0 0 15 0 15 -15 0 -15 0 0 -15z"/>
<path d="M1250 865 l0 -15 15 0 15 0 0 15 0 15 -15 0 -15 0 0 -15z"/>
<path d="M1000 810 l0 -10 -15 0 -15 0 0 -15 0 -15 15 0 15 0 0 -15 0 -15 -15
0 -15 0 0 -15 0 -15 15 0 15 0 0 15 0 15 10 0 10 0 0 -15 0 -15 -10 0 -10 0 0
-15 0 -15 25 0 25 0 0 30 0 30 -15 0 -15 0 0 15 0 15 15 0 15 0 0 15 0 15 -15
0 -15 0 0 10 0 10 -10 0 -10 0 0 -10z m20 -25 l0 -15 -10 0 -10 0 0 15 0 15
10 0 10 0 0 -15z"/>
<path d="M1140 810 l0 -10 15 0 15 0 0 10 0 10 -15 0 -15 0 0 -10z"/>
<path d="M1190 810 l0 -10 15 0 15 0 0 10 0 10 -15 0 -15 0 0 -10z"/>
<path d="M1140 755 l0 -15 15 0 15 0 0 15 0 15 -15 0 -15 0 0 -15z"/>
<path d="M1080 695 l0 -15 15 0 15 0 0 15 0 15 -15 0 -15 0 0 -15z"/>
<path d="M1020 640 l0 -10 15 0 15 0 0 10 0 10 -15 0 -15 0 0 -10z"/>
</g>
</svg>
