<?xml version="1.0" standalone="no"?>
<!DOCTYPE svg PUBLIC "-//W3C//DTD SVG 20010904//EN"
 "http://www.w3.org/TR/2001/REC-SVG-20010904/DTD/svg10.dtd">
<svg version="1.0" xmlns="http://www.w3.org/2000/svg"
 width="468pt" height="468pt" viewBox="0 0 468 468"
 preserveAspectRatio="xMidYMid meet">
<metadata>
Created by potrace 1.8, written by Peter Selinger 2001-2007
</metadata>
<g transform="translate(0,468) scale(0.365625,-0.365625)"
fill="#000000" stroke="none">
<path d="M540 1270 l0 -10 -40 0 -40 0 0 -10 0 -10 -30 0 -30 0 0 -10 0 -10
-20 0 -20 0 0 -10 0 -10 -18 0 -18 0 -14 -20 -14 -20 -13 0 -13 0 -75 -75 -75
-75 0 -13 0 -13 -20 -14 -20 -14 0 -18 0 -18 -10 0 -10 0 0 -20 0 -20 -10 0
-10 0 0 -30 0 -30 -10 0 -10 0 0 -40 0 -40 -10 0 -10 0 0 -100 0 -100 10 0 10
0 0 -40 0 -40 10 0 10 0 0 -30 0 -30 10 0 10 0 0 -20 0 -20 10 0 10 0 0 -18 0
-18 20 -14 20 -14 0 -13 0 -13 75 -75 75 -75 13 0 13 0 14 -20 14 -20 18 0 18
0 0 -10 0 -10 20 0 20 0 0 -10 0 -10 30 0 30 0 0 -10 0 -10 40 0 40 0 0 -10 0
-10 100 0 100 0 0 10 0 10 40 0 40 0 0 10 0 10 30 0 30 0 0 10 0 10 20 0 20 0
0 10 0 10 18 0 18 0 14 20 14 20 13 0 13 0 75 75 75 75 0 13 0 13 20 14 20 14
0 18 0 18 10 0 10 0 0 20 0 20 10 0 10 0 0 30 0 30 10 0 10 0 0 40 0 40 10 0
10 0 0 100 0 100 -10 0 -10 0 0 40 0 40 -10 0 -10 0 0 30 0 30 -10 0 -10 0 0
20 0 20 -10 0 -10 0 0 18 0 18 -20 14 -20 14 0 13 0 13 -75 75 -75 75 -13 0
-13 0 -14 20 -14 20 -18 0 -18 0 0 10 0 10 -20 0 -20 0 0 10 0 10 -30 0 -30 0
0 10 0 10 -40 0 -40 0 0 10 0 10 -100 0 -100 0 0 -10z m200 -20 l0 -10 40 0
40 0 0 -10 0 -10 30 0 30 0 0 -10 0 -10 20 0 20 0 0 -10 0 -10 18 0 18 0 14
-20 14 -20 13 0 13 0 65 -65 65 -65 0 -13 0 -13 20 -14 20 -14 0 -18 0 -18 10
0 10 0 0 -20 0 -20 10 0 10 0 0 -30 0 -30 10 0 10 0 0 -40 0 -40 10 0 10 0 0
-100 0 -100 -10 0 -10 0 0 -40 0 -40 -10 0 -10 0 0 -30 0 -30 -10 0 -10 0 0
-20 0 -20 -10 0 -10 0 0 -18 0 -18 -20 -14 -20 -14 0 -13 0 -13 -65 -65 -65
-65 -13 0 -13 0 -14 -20 -14 -20 -18 0 -18 0 0 -10 0 -10 -20 0 -20 0 0 -10 0
-10 -30 0 -30 0 0 -10 0 -10 -40 0 -40 0 0 -10 0 -10 -100 0 -100 0 0 10 0 10
-40 0 -40 0 0 10 0 10 -30 0 -30 0 0 10 0 10 -20 0 -20 0 0 10 0 10 -18 0 -18
0 -14 20 -14 20 -13 0 -13 0 -65 65 -65 65 0 13 0 13 -20 14 -20 14 0 18 0 18
-10 0 -10 0 0 20 0 20 -10 0 -10 0 0 30 0 30 -10 0 -10 0 0 40 0 40 -10 0 -10
0 0 100 0 100 10 0 10 0 0 40 0 40 10 0 10 0 0 30 0 30 10 0 10 0 0 20 0 20
10 0 10 0 0 18 0 18 20 14 20 14 0 13 0 13 65 65 65 65 13 0 13 0 14 20 14 20
18 0 18 0 0 10 0 10 20 0 20 0 0 10 0 10 30 0 30 0 0 10 0 10 40 0 40 0 0 10
0 10 100 0 100 0 0 -10z"/>
</g>
</svg>
