<?xml version="1.0" standalone="no"?>
<!DOCTYPE svg PUBLIC "-//W3C//DTD SVG 20010904//EN"
 "http://www.w3.org/TR/2001/REC-SVG-20010904/DTD/svg10.dtd">
<svg version="1.0" xmlns="http://www.w3.org/2000/svg"
 width="468pt" height="468pt" viewBox="0 0 468 468"
 preserveAspectRatio="xMidYMid meet">
<metadata>
Created by potrace 1.8, written by Peter Selinger 2001-2007
</metadata>
<g transform="translate(0,468) scale(0.365625,-0.365625)"
fill="#000000" stroke="none">
<path d="M0 1271 l0 -9 13 -5 12 -5 -15 -11 -15 -11 15 -10 15 -10 -15 -10
-15 -10 15 -10 15 -10 -15 -10 -15 -10 15 -10 15 -10 -15 -10 -15 -10 15 -10
15 -10 -15 -10 -15 -10 15 -10 15 -10 -15 -10 -15 -10 15 -10 15 -10 -15 -10
-15 -10 15 -10 15 -10 -15 -10 -15 -10 15 -10 15 -10 -15 -10 -15 -10 15 -10
15 -10 -15 -10 -15 -10 15 -10 15 -10 -14 -9 -14 -9 16 -16 16 -16 15 0 16 0
0 -10 0 -10 20 0 20 0 0 -10 0 -10 20 0 20 0 0 -10 0 -10 20 0 20 0 0 -10 0
-10 20 0 20 0 0 -10 0 -10 20 0 20 0 0 -10 0 -10 20 0 20 0 0 -10 0 -10 20 0
20 0 0 5 0 6 -26 26 -26 26 -8 -13 -8 -14 -32 34 -32 34 -8 -14 -8 -14 -32 34
-32 34 -8 -14 -8 -14 -32 34 -32 34 -8 -14 -9 -14 -7 6 -6 7 42 41 43 42 -14
8 -13 9 7 8 8 7 8 -13 9 -14 37 38 38 37 -14 9 -13 8 7 8 8 7 8 -13 9 -14 37
38 38 37 -14 9 -14 9 14 9 14 9 -38 37 -37 38 -9 -14 -8 -13 -8 7 -7 8 14 9
14 8 -34 32 -33 31 7 7 7 6 10 -14 9 -15 9 15 10 14 8 -7 7 -8 -14 -9 -14 -9
7 -8 8 -7 9 14 9 14 8 -7 7 -8 -13 -9 -14 -8 17 -18 18 -17 8 14 9 13 8 -7 7
-8 -14 -9 -14 -9 7 -8 8 -7 9 14 9 14 8 -7 7 -8 -14 -9 -14 -9 7 -8 8 -7 9 14
9 14 8 -7 7 -8 -14 -9 -14 -9 7 -8 8 -7 9 14 9 14 7 -7 7 -7 -22 -19 -23 -20
26 -26 26 -26 27 27 27 28 -12 4 -12 4 0 9 0 9 19 0 19 0 5 -12 4 -13 9 9 9 9
-12 4 -13 5 0 19 0 19 6 0 7 0 18 -22 19 -21 8 8 7 8 -12 4 -13 5 0 9 0 9 19
0 19 0 5 -12 4 -13 9 9 9 9 -12 4 -13 5 0 19 0 19 6 0 7 0 18 -22 19 -21 8 8
7 8 -12 4 -13 5 0 9 0 9 19 0 19 0 5 -12 4 -13 9 9 9 9 -12 4 -13 5 0 19 0 19
6 0 7 0 18 -22 19 -21 8 8 7 8 -12 4 -13 5 0 9 0 9 19 0 19 0 5 -12 4 -13 9 9
9 9 -13 4 -12 5 0 9 0 9 20 0 20 0 0 -10 0 -10 20 0 20 0 0 -10 0 -10 20 0 20
0 0 -10 0 -10 20 0 20 0 0 -10 0 -10 20 0 20 0 0 -10 0 -10 20 0 20 0 0 -10 0
-10 20 0 20 0 0 -10 0 -10 20 0 20 0 0 -10 0 -10 20 0 20 0 0 5 0 6 -26 26
-26 26 -8 -13 -8 -14 -32 34 -32 34 -8 -14 -8 -14 -32 34 -32 34 -8 -14 -8
-13 -17 17 -17 17 6 7 7 6 10 -14 9 -15 10 15 10 15 10 -15 10 -15 9 15 10 14
8 -7 7 -8 -14 -9 -14 -9 7 -8 8 -7 9 14 9 14 8 -7 7 -8 -14 -9 -14 -9 7 -8 8
-7 10 14 9 15 10 -15 10 -15 9 15 10 14 8 -7 7 -8 -14 -9 -14 -9 7 -8 8 -7 9
14 9 14 8 -7 7 -8 -14 -9 -14 -9 7 -8 8 -7 10 14 9 15 10 -15 10 -15 9 15 10
14 8 -7 7 -8 -14 -9 -14 -9 7 -8 8 -7 10 14 9 15 9 -14 9 -14 18 17 17 18 -14
8 -13 9 7 8 8 7 9 -14 9 -14 8 7 7 8 -14 9 -14 9 7 8 8 7 9 -14 9 -14 8 7 7 8
-14 9 -14 9 7 8 8 7 9 -14 9 -14 21 23 20 24 7 -7 7 -7 -14 -10 -15 -9 15 -9
14 -10 -7 -8 -8 -7 -8 13 -9 14 -37 -38 -38 -37 14 -9 13 -8 -7 -8 -8 -7 -9
13 -8 14 -26 -27 -27 -26 27 -26 26 -27 8 14 9 13 8 -7 7 -8 -13 -8 -14 -9 38
-37 37 -38 9 14 8 13 8 -7 7 -8 -13 -8 -14 -9 38 -37 37 -38 9 14 8 13 8 -7 7
-8 -14 -9 -14 -9 23 -20 23 -20 -16 -17 -17 -16 -7 6 -6 7 14 9 14 9 -7 8 -8
7 -9 -14 -9 -14 -8 7 -7 8 13 9 14 8 -17 18 -18 17 -8 -14 -9 -13 -8 7 -7 8
14 9 14 9 -7 8 -8 7 -9 -14 -9 -14 -8 7 -7 8 14 9 14 9 -7 8 -8 7 -9 -14 -9
-14 -8 7 -7 8 13 9 14 8 -17 18 -18 17 -8 -14 -9 -13 -8 7 -7 8 14 9 14 9 -7
8 -8 7 -9 -14 -9 -14 -8 7 -7 8 14 9 14 9 -7 8 -8 7 -9 -14 -9 -14 -8 7 -7 8
13 9 14 8 -17 18 -18 17 -9 -14 -9 -14 -9 15 -10 14 -8 -7 -7 -8 14 -9 14 -9
-7 -8 -8 -7 -10 14 -9 15 -10 -15 -10 -15 -9 15 -10 14 -8 -7 -7 -8 14 -9 14
-9 -7 -8 -8 -7 -9 14 -9 14 -8 -7 -7 -8 14 -9 14 -9 -7 -8 -8 -7 -10 14 -9 15
-10 -15 -10 -15 -9 15 -10 14 -8 -7 -7 -8 14 -9 14 -9 -7 -8 -8 -7 -9 14 -9
14 -8 -7 -7 -8 14 -9 14 -9 -7 -8 -8 -7 -10 14 -9 15 -10 -15 -10 -15 -9 15
-10 14 -8 -7 -7 -8 14 -9 14 -9 -7 -8 -8 -7 -9 14 -9 14 -8 -7 -7 -8 14 -10
15 -9 -15 -9 -14 -10 7 -8 8 -7 9 14 9 14 8 -7 7 -8 -13 -9 -14 -8 17 -18 18
-17 8 14 9 13 8 -7 7 -8 -14 -9 -14 -9 7 -8 8 -7 9 14 9 14 8 -7 7 -8 -14 -9
-14 -9 7 -8 8 -7 9 14 9 14 8 -7 7 -8 -13 -9 -14 -8 17 -18 18 -17 8 14 9 13
8 -7 7 -8 -14 -9 -14 -9 7 -8 8 -7 9 14 9 14 8 -7 7 -8 -14 -9 -14 -9 7 -8 8
-7 9 14 9 14 8 -7 7 -8 -14 -9 -14 -9 7 -8 8 -7 9 14 9 14 7 -7 7 -7 -22 -19
-23 -20 26 -26 26 -26 27 27 27 28 -12 4 -12 4 0 9 0 9 19 0 19 0 5 -12 4 -13
9 9 9 9 -12 4 -13 5 0 19 0 19 6 0 7 0 18 -22 19 -21 8 8 7 8 -12 4 -13 5 0 9
0 9 19 0 19 0 5 -12 4 -13 9 9 9 9 -12 4 -13 5 0 19 0 19 6 0 7 0 18 -22 19
-21 8 8 7 8 -12 4 -13 5 0 9 0 9 19 0 19 0 5 -12 4 -13 9 9 9 9 -12 4 -13 5 0
19 0 19 6 0 7 0 18 -22 19 -21 8 8 7 8 -12 4 -13 5 0 9 0 9 19 0 19 0 5 -12 4
-13 9 8 8 8 -14 10 -15 11 13 5 12 5 0 229 0 229 -9 0 -9 0 -6 -12 -6 -13 -6
13 -6 12 -38 0 -38 0 -5 -12 -5 -13 -11 15 -11 15 -10 -15 -10 -15 -10 15 -10
15 -10 -15 -10 -15 -10 15 -10 15 -10 -15 -10 -15 -10 15 -10 15 -10 -15 -10
-15 -10 15 -10 15 -10 -15 -10 -15 -10 15 -10 15 -10 -15 -10 -15 -10 15 -10
15 -10 -15 -10 -15 -10 15 -10 15 -10 -15 -10 -15 -10 15 -10 15 -10 -15 -10
-15 -10 15 -10 15 -10 -15 -10 -15 -10 15 -10 15 -10 -15 -10 -15 -10 15 -10
15 -11 -15 -11 -15 -5 13 -5 12 -28 0 -28 0 -5 -12 -5 -13 -11 15 -11 15 -10
-15 -10 -15 -10 15 -10 15 -10 -15 -10 -15 -10 15 -10 15 -10 -15 -10 -15 -10
15 -10 15 -10 -15 -10 -15 -10 15 -10 15 -10 -15 -10 -15 -10 15 -10 15 -10
-15 -10 -15 -10 15 -10 15 -10 -15 -10 -15 -10 15 -10 15 -10 -15 -10 -15 -10
15 -10 15 -10 -15 -10 -15 -10 15 -10 15 -10 -15 -10 -15 -10 15 -10 15 -10
-15 -10 -15 -9 15 -10 14 -21 -23 -20 -24 -8 8 -7 8 13 4 12 5 0 9 0 9 -19 0
-19 0 -6 -12 -6 -13 -6 13 -6 12 -19 0 -19 0 0 -9z m223 -23 l5 -13 11 15 11
15 10 -15 10 -15 10 15 10 15 10 -15 10 -15 10 15 10 15 10 -15 10 -15 10 15
10 15 10 -15 10 -15 10 15 10 15 10 -15 10 -15 10 15 10 15 10 -15 10 -15 10
15 10 15 10 -15 10 -15 9 15 10 14 7 -6 6 -7 -27 -27 -27 -27 -8 13 -8 14 -32
-34 -32 -34 -8 14 -8 13 -38 -38 -38 -39 12 -4 12 -4 0 -9 0 -9 -20 0 -20 0 0
19 0 19 12 4 12 4 -48 49 -48 48 -9 -14 -8 -13 -8 7 -7 8 14 10 15 11 -12 5
-13 5 0 9 0 9 9 0 9 0 5 -12z m357 2 l0 -10 -10 0 -10 0 0 10 0 10 10 0 10 0
0 -10z m283 -2 l5 -13 11 15 11 15 10 -15 10 -15 10 15 10 15 10 -15 10 -15
10 15 10 15 10 -15 10 -15 10 15 10 15 10 -15 10 -15 9 15 10 14 7 -6 7 -7
-33 -31 -34 -32 14 -8 14 -9 -7 -7 -7 -7 -20 24 -21 23 -9 -14 -8 -14 -32 34
-32 34 -8 -14 -8 -13 -16 16 -16 16 0 5 0 6 9 0 9 0 5 -12z m237 2 l0 -10 -10
0 -10 0 0 10 0 10 10 0 10 0 0 -10z m120 0 l0 -10 -10 0 -10 0 0 10 0 10 10 0
10 0 0 -10z m-1160 -20 l0 -10 -10 0 -10 0 0 10 0 10 10 0 10 0 0 -10z m1120
0 l0 -10 -10 0 -10 0 0 10 0 10 10 0 10 0 0 -10z m80 0 l0 -10 -10 0 -10 0 0
10 0 10 10 0 10 0 0 -10z m-1160 -20 l0 -10 -10 0 -10 0 0 10 0 10 10 0 10 0
0 -10z m1120 0 l0 -10 -10 0 -10 0 0 10 0 10 10 0 10 0 0 -10z m-1160 -20 l0
-10 -10 0 -10 0 0 10 0 10 10 0 10 0 0 -10z m80 0 l0 -10 -10 0 -10 0 0 10 0
10 10 0 10 0 0 -10z m1040 0 l0 -10 -10 0 -10 0 0 10 0 10 10 0 10 0 0 -10z
m80 0 l0 -10 -10 0 -10 0 0 10 0 10 10 0 10 0 0 -10z m-1160 -20 l0 -10 -10 0
-10 0 0 10 0 10 10 0 10 0 0 -10z m1040 0 l0 -10 -10 0 -10 0 0 10 0 10 10 0
10 0 0 -10z m80 0 l0 -10 -10 0 -10 0 0 10 0 10 10 0 10 0 0 -10z m-1160 -20
l0 -10 -10 0 -10 0 0 10 0 10 10 0 10 0 0 -10z m80 0 l0 -10 -10 0 -10 0 0 10
0 10 10 0 10 0 0 -10z m960 0 l0 -10 -10 0 -10 0 0 10 0 10 10 0 10 0 0 -10z
m80 0 l0 -10 -10 0 -10 0 0 10 0 10 10 0 10 0 0 -10z m80 0 l0 -10 -10 0 -10
0 0 10 0 10 10 0 10 0 0 -10z m-1160 -20 l0 -10 -10 0 -10 0 0 10 0 10 10 0
10 0 0 -10z m80 0 l0 -10 -10 0 -10 0 0 10 0 10 10 0 10 0 0 -10z m960 0 l0
-10 -10 0 -10 0 0 10 0 10 10 0 10 0 0 -10z m80 0 l0 -10 -10 0 -10 0 0 10 0
10 10 0 10 0 0 -10z m-1160 -20 l0 -10 -10 0 -10 0 0 10 0 10 10 0 10 0 0 -10z
m80 0 l0 -10 -10 0 -10 0 0 10 0 10 10 0 10 0 0 -10z m80 0 l0 -10 -10 0 -10
0 0 10 0 10 10 0 10 0 0 -10z m880 0 l0 -10 -10 0 -10 0 0 10 0 10 10 0 10 0
0 -10z m80 0 l0 -10 -10 0 -10 0 0 10 0 10 10 0 10 0 0 -10z m80 0 l0 -10 -10
0 -10 0 0 10 0 10 10 0 10 0 0 -10z m-1160 -20 l0 -10 -10 0 -10 0 0 10 0 10
10 0 10 0 0 -10z m80 0 l0 -10 -10 0 -10 0 0 10 0 10 10 0 10 0 0 -10z m880 0
l0 -10 -10 0 -10 0 0 10 0 10 10 0 10 0 0 -10z m80 0 l0 -10 -10 0 -10 0 0 10
0 10 10 0 10 0 0 -10z m80 0 l0 -10 -10 0 -10 0 0 10 0 10 10 0 10 0 0 -10z
m-1160 -20 l0 -10 -10 0 -10 0 0 10 0 10 10 0 10 0 0 -10z m80 0 l0 -10 -10 0
-10 0 0 10 0 10 10 0 10 0 0 -10z m80 0 l0 -10 -10 0 -10 0 0 10 0 10 10 0 10
0 0 -10z m880 0 l0 -10 -10 0 -10 0 0 10 0 10 10 0 10 0 0 -10z m80 0 l0 -10
-10 0 -10 0 0 10 0 10 10 0 10 0 0 -10z m80 0 l0 -10 -10 0 -10 0 0 10 0 10
10 0 10 0 0 -10z m-1160 -20 l0 -10 -10 0 -10 0 0 10 0 10 10 0 10 0 0 -10z
m80 0 l0 -10 -10 0 -10 0 0 10 0 10 10 0 10 0 0 -10z m960 0 l0 -10 -10 0 -10
0 0 10 0 10 10 0 10 0 0 -10z m80 0 l0 -10 -10 0 -10 0 0 10 0 10 10 0 10 0 0
-10z m-1160 -20 l0 -10 -10 0 -10 0 0 10 0 10 10 0 10 0 0 -10z m80 0 l0 -10
-10 0 -10 0 0 10 0 10 10 0 10 0 0 -10z m960 0 l0 -10 -10 0 -10 0 0 10 0 10
10 0 10 0 0 -10z m80 0 l0 -10 -10 0 -10 0 0 10 0 10 10 0 10 0 0 -10z m80 0
l0 -10 -10 0 -10 0 0 10 0 10 10 0 10 0 0 -10z m-1160 -20 l0 -10 -10 0 -10 0
0 10 0 10 10 0 10 0 0 -10z m920 1 l0 -9 -12 -4 -12 -4 38 -39 38 -38 9 14 8
13 8 -7 7 -8 -13 -8 -14 -9 38 -37 37 -38 9 14 8 13 8 -7 7 -8 -14 -10 -15 -9
14 -9 14 -9 -28 -27 -27 -28 -8 13 -8 14 -32 -34 -32 -34 -8 14 -8 13 -38 -38
-38 -39 12 -4 12 -4 0 -9 0 -9 -20 0 -20 0 0 19 0 19 12 4 12 4 -48 49 -48 48
-9 -14 -8 -13 -8 7 -7 8 13 8 14 9 -38 37 -37 38 -9 -14 -8 -13 -8 7 -7 8 14
10 15 9 -14 9 -14 9 17 18 18 17 8 -13 8 -14 32 34 32 34 8 -14 8 -14 32 34
32 34 8 -15 9 -14 18 22 18 23 8 0 7 0 0 -9z m120 -1 l0 -10 -10 0 -10 0 0 10
0 10 10 0 10 0 0 -10z m80 0 l0 -10 -10 0 -10 0 0 10 0 10 10 0 10 0 0 -10z
m-1160 -20 l0 -10 -10 0 -10 0 0 10 0 10 10 0 10 0 0 -10z m80 0 l0 -10 -10 0
-10 0 0 10 0 10 10 0 10 0 0 -10z m1040 0 l0 -10 -10 0 -10 0 0 10 0 10 10 0
10 0 0 -10z m80 0 l0 -10 -10 0 -10 0 0 10 0 10 10 0 10 0 0 -10z m-1160 -20
l0 -10 -10 0 -10 0 0 10 0 10 10 0 10 0 0 -10z m1120 0 l0 -10 -10 0 -10 0 0
10 0 10 10 0 10 0 0 -10z m-1160 -20 l0 -10 -10 0 -10 0 0 10 0 10 10 0 10 0
0 -10z m1120 0 l0 -10 -10 0 -10 0 0 10 0 10 10 0 10 0 0 -10z m80 0 l0 -10
-10 0 -10 0 0 10 0 10 10 0 10 0 0 -10z m-40 -20 l0 -10 -10 0 -10 0 0 10 0
10 10 0 10 0 0 -10z m-1160 -20 l0 -10 -10 0 -10 0 0 10 0 10 10 0 10 0 0 -10z
m1200 0 l0 -10 -10 0 -10 0 0 10 0 10 10 0 10 0 0 -10z m0 -40 l0 -10 -10 0
-10 0 0 10 0 10 10 0 10 0 0 -10z"/>
<path d="M240 1235 l0 -6 45 -45 46 -45 30 32 31 33 8 -14 8 -13 27 27 27 27
-6 7 -7 6 -10 -14 -9 -15 -10 15 -10 15 -10 -15 -10 -15 -10 15 -10 15 -10
-15 -10 -15 -10 15 -10 15 -10 -15 -10 -15 -10 15 -10 15 -11 -15 -11 -15 -5
13 -5 12 -9 0 -9 0 0 -5z m63 -27 l5 -13 11 15 11 15 10 -15 10 -15 9 15 10
14 7 -6 6 -7 -26 -26 -26 -26 -25 25 -25 25 0 6 0 5 9 0 9 0 5 -12z m117 2 l0
-10 -10 0 -10 0 0 10 0 10 10 0 10 0 0 -10z"/>
<path d="M320 1190 l0 -10 10 0 10 0 0 10 0 10 -10 0 -10 0 0 -10z"/>
<path d="M480 1230 l0 -10 10 0 10 0 0 10 0 10 -10 0 -10 0 0 -10z"/>
<path d="M920 1234 l0 -5 16 -16 16 -16 9 14 9 14 9 -14 9 -14 17 17 17 17 -6
7 -7 6 -10 -14 -9 -15 -10 15 -10 15 -11 -15 -11 -15 -5 13 -5 12 -9 0 -9 0 0
-6z"/>
<path d="M917 948 l-28 -32 -9 14 -8 14 -32 -34 -32 -34 -8 14 -9 14 -6 -6 -7
-6 97 -97 96 -96 30 32 31 33 8 -14 8 -14 32 34 32 34 8 -14 8 -13 17 16 16
16 -87 87 -86 87 -10 -14 -10 -14 -5 13 -5 12 -6 0 -7 -1 -28 -31z m46 0 l5
-13 10 14 10 14 77 -77 77 -78 -7 -6 -6 -6 -9 14 -8 14 -32 -34 -32 -34 -8 14
-8 14 -31 -33 -30 -32 -76 76 -76 75 27 27 26 26 8 -14 9 -13 28 32 28 31 7 1
6 0 5 -12z"/>
<path d="M917 908 l-28 -32 -9 14 -8 13 -17 -16 -16 -16 66 -66 66 -66 30 32
31 33 8 -14 8 -13 26 26 27 27 -57 56 -56 57 -10 -14 -10 -14 -5 13 -5 12 -6
0 -7 -1 -28 -31z m46 0 l5 -13 10 14 10 14 46 -47 47 -46 -16 -17 -17 -16 -8
13 -8 14 -31 -33 -30 -32 -57 56 -56 56 7 7 6 6 9 -14 9 -14 28 32 28 31 7 1
6 0 5 -12z"/>
<path d="M922 874 l-23 -24 36 -36 36 -35 30 32 31 33 8 -14 9 -14 6 6 7 7
-37 37 -37 37 -10 -14 -10 -14 -5 13 -5 12 -6 -1 -7 0 -23 -25z m41 -6 l5 -13
10 14 10 14 17 -16 16 -17 -25 -25 -26 -26 -25 26 -26 25 13 15 13 14 7 1 6 0
5 -12z"/>
<path d="M940 854 l0 -5 15 -15 15 -15 16 16 16 16 -6 7 -7 6 -10 -14 -11 -15
-5 13 -5 12 -9 0 -9 0 0 -6z"/>
<path d="M660 1210 l0 -10 10 0 10 0 0 10 0 10 -10 0 -10 0 0 -10z"/>
<path d="M620 1190 l0 -10 10 0 10 0 0 10 0 10 -10 0 -10 0 0 -10z"/>
<path d="M700 1190 l0 -10 10 0 10 0 0 10 0 10 -10 0 -10 0 0 -10z"/>
<path d="M580 1170 l0 -10 10 0 10 0 0 10 0 10 -10 0 -10 0 0 -10z"/>
<path d="M660 1170 l0 -10 10 0 10 0 0 10 0 10 -10 0 -10 0 0 -10z"/>
<path d="M740 1170 l0 -10 10 0 10 0 0 10 0 10 -10 0 -10 0 0 -10z"/>
<path d="M540 1150 l0 -10 10 0 10 0 0 10 0 10 -10 0 -10 0 0 -10z"/>
<path d="M620 1150 l0 -10 10 0 10 0 0 10 0 10 -10 0 -10 0 0 -10z"/>
<path d="M700 1150 l0 -10 10 0 10 0 0 10 0 10 -10 0 -10 0 0 -10z"/>
<path d="M780 1150 l0 -10 10 0 10 0 0 10 0 10 -10 0 -10 0 0 -10z"/>
<path d="M500 1130 l0 -10 10 0 10 0 0 10 0 10 -10 0 -10 0 0 -10z"/>
<path d="M580 1130 l0 -10 10 0 10 0 0 10 0 10 -10 0 -10 0 0 -10z"/>
<path d="M660 1130 l0 -10 10 0 10 0 0 10 0 10 -10 0 -10 0 0 -10z"/>
<path d="M740 1130 l0 -10 10 0 10 0 0 10 0 10 -10 0 -10 0 0 -10z"/>
<path d="M820 1130 l0 -10 10 0 10 0 0 10 0 10 -10 0 -10 0 0 -10z"/>
<path d="M980 1130 l0 -10 10 0 10 0 0 10 0 10 -10 0 -10 0 0 -10z"/>
<path d="M460 1110 l0 -10 10 0 10 0 0 10 0 10 -10 0 -10 0 0 -10z"/>
<path d="M540 1110 l0 -10 10 0 10 0 0 10 0 10 -10 0 -10 0 0 -10z"/>
<path d="M620 1110 l0 -10 10 0 10 0 0 10 0 10 -10 0 -10 0 0 -10z"/>
<path d="M700 1110 l0 -10 10 0 10 0 0 10 0 10 -10 0 -10 0 0 -10z"/>
<path d="M780 1110 l0 -10 10 0 10 0 0 10 0 10 -10 0 -10 0 0 -10z"/>
<path d="M860 1110 l0 -10 10 0 10 0 0 10 0 10 -10 0 -10 0 0 -10z"/>
<path d="M420 1090 l0 -10 10 0 10 0 0 10 0 10 -10 0 -10 0 0 -10z"/>
<path d="M500 1090 l0 -10 10 0 10 0 0 10 0 10 -10 0 -10 0 0 -10z"/>
<path d="M580 1090 l0 -10 10 0 10 0 0 10 0 10 -10 0 -10 0 0 -10z"/>
<path d="M660 1090 l0 -10 10 0 10 0 0 10 0 10 -10 0 -10 0 0 -10z"/>
<path d="M740 1090 l0 -10 10 0 10 0 0 10 0 10 -10 0 -10 0 0 -10z"/>
<path d="M820 1090 l0 -10 10 0 10 0 0 10 0 10 -10 0 -10 0 0 -10z"/>
<path d="M900 1090 l0 -10 10 0 10 0 0 10 0 10 -10 0 -10 0 0 -10z"/>
<path d="M380 1070 l0 -10 -16 0 -17 0 -18 -22 -19 -21 -19 22 -20 23 -106
-106 -106 -106 27 -27 26 -26 8 13 8 14 32 -34 32 -34 8 14 8 14 32 -34 32
-34 8 14 8 14 31 -33 30 -32 27 26 27 27 -14 8 -13 9 7 8 8 7 9 -14 9 -14 8 7
7 8 -14 9 -14 9 7 8 8 7 9 -14 9 -14 8 7 7 8 -14 9 -14 9 7 8 8 7 9 -13 8 -14
18 17 17 18 -14 8 -13 9 7 8 8 7 9 -14 9 -14 8 7 7 8 -14 9 -14 9 7 8 8 7 9
-14 9 -14 8 7 7 8 -14 9 -14 9 7 8 8 7 9 -13 8 -14 17 16 16 17 -16 17 -17 16
-8 -14 -9 -13 -8 7 -7 8 14 9 14 9 -7 8 -8 7 -9 -14 -9 -14 -8 7 -7 8 14 9 14
9 -7 8 -8 7 -10 -14 -9 -15 -10 15 -10 15 -9 -15 -10 -14 -8 7 -7 8 14 9 14 9
-7 8 -8 7 -9 -14 -9 -14 -8 7 -7 8 14 9 14 9 -7 8 -8 7 -10 -14 -9 -15 -10 15
-10 15 -9 -15 -10 -14 -8 7 -7 8 14 10 15 9 -15 9 -14 10 7 7 7 7 19 -22 20
-23 27 27 26 26 -7 7 -8 7 -4 -12 -5 -13 -19 0 -19 0 0 10 0 10 10 0 10 0 0
10 0 10 -10 0 -10 0 0 -10z m-88 -52 l19 -22 9 14 9 14 8 -7 7 -8 -13 -9 -14
-8 17 -18 18 -17 8 13 8 14 32 -34 32 -34 8 14 8 13 27 -27 26 -27 -32 -30
-33 -31 14 -8 14 -9 -7 -8 -8 -7 -8 13 -9 14 -37 -38 -38 -37 13 -8 13 -8 -17
-17 -16 -17 -31 33 -31 33 -8 -14 -8 -14 -32 34 -32 34 -8 -14 -8 -14 -32 34
-32 34 -8 -14 -8 -13 -17 16 -16 16 93 95 93 94 4 1 4 1 19 -22z m248 -128 l0
-10 -10 0 -10 0 0 10 0 10 10 0 10 0 0 -10z"/>
<path d="M182 933 l-84 -85 7 -6 6 -6 9 14 8 14 32 -34 32 -34 8 14 8 14 32
-34 32 -34 8 14 8 14 32 -34 31 -33 7 7 6 7 -13 9 -14 8 72 71 72 71 -16 17
-17 16 -8 -13 -8 -14 -32 34 -32 34 -8 -14 -8 -13 -40 41 -40 42 -4 -1 -3 -1
-83 -85z m130 25 l40 -41 8 13 8 14 32 -34 32 -34 8 14 9 14 6 -6 7 -7 -67
-66 -66 -67 -20 23 -20 23 -9 -14 -8 -14 -32 34 -32 34 -8 -14 -8 -13 -26 26
-27 27 63 64 63 64 3 1 4 1 40 -42z"/>
<path d="M212 924 l-53 -55 16 -16 17 -16 8 13 8 14 32 -34 32 -34 8 14 9 14
20 -23 20 -23 46 46 46 46 -27 27 -26 26 -8 -13 -8 -13 -40 41 -40 42 -4 -1
-3 0 -53 -55z m100 -6 l40 -41 8 13 8 13 17 -16 16 -17 -36 -36 -36 -36 -20
23 -20 23 -9 -14 -8 -14 -32 34 -32 34 -8 -14 -9 -14 -6 6 -7 7 44 45 43 45 3
0 4 1 40 -42z"/>
<path d="M242 914 l-23 -24 27 -27 26 -26 8 14 9 13 20 -23 20 -23 27 27 26
26 -6 7 -7 6 -9 -13 -8 -14 -40 41 -40 42 -4 -1 -3 0 -23 -25z m64 -30 l36
-35 -6 -6 -6 -6 -20 24 -21 23 -9 -13 -8 -14 -17 16 -16 17 13 14 13 15 3 1 3
0 35 -36z"/>
<path d="M260 890 l0 -10 10 0 10 0 0 10 0 10 -10 0 -10 0 0 -10z"/>
<path d="M460 1070 l0 -10 10 0 10 0 0 10 0 10 -10 0 -10 0 0 -10z"/>
<path d="M540 1070 l0 -10 10 0 10 0 0 10 0 10 -10 0 -10 0 0 -10z"/>
<path d="M620 1070 l0 -10 10 0 10 0 0 10 0 10 -10 0 -10 0 0 -10z"/>
<path d="M700 1070 l0 -10 10 0 10 0 0 10 0 10 -10 0 -10 0 0 -10z"/>
<path d="M780 1070 l0 -10 10 0 10 0 0 10 0 10 -10 0 -10 0 0 -10z"/>
<path d="M860 1070 l0 -10 10 0 10 0 0 10 0 10 -10 0 -10 0 0 -10z"/>
<path d="M940 1070 l0 -10 -20 0 -20 0 0 -10 0 -10 -20 0 -20 0 0 -10 0 -10
-20 0 -20 0 0 -10 0 -10 -20 0 -20 0 0 -10 0 -10 -20 0 -20 0 0 -10 0 -10 -20
0 -20 0 0 -10 0 -10 -20 0 -20 0 0 -10 0 -10 -20 0 -20 0 0 9 0 9 13 5 12 4
-9 9 -9 9 -4 -12 -5 -13 -19 0 -19 0 0 -9 0 -9 13 -5 12 -4 -25 -22 -24 -22
14 -9 14 -9 -7 -8 -8 -7 -8 13 -9 14 -37 -38 -38 -37 14 -9 13 -8 -7 -8 -8 -7
-8 13 -9 14 -37 -38 -38 -37 14 -9 13 -8 -7 -8 -8 -7 -9 14 -8 14 -30 -32 -30
-32 -16 0 -16 0 0 -10 0 -10 -20 0 -20 0 0 -10 0 -10 -20 0 -20 0 0 -10 0 -10
-20 0 -20 0 0 -10 0 -10 -20 0 -20 0 0 -10 0 -10 -20 0 -20 0 0 -10 0 -10 -20
0 -20 0 0 -10 0 -10 -16 0 -15 0 -16 -16 -16 -16 14 -9 14 -9 -15 -10 -15 -10
15 -11 15 -11 -12 -5 -13 -5 0 -199 0 -199 640 0 640 0 0 239 0 239 -12 5 -13
5 15 11 14 10 -8 8 -9 8 -4 -12 -5 -13 -19 0 -19 0 0 -9 0 -9 13 -5 12 -4 -25
-22 -24 -22 14 -9 14 -9 -7 -8 -8 -7 -10 14 -9 15 -10 -15 -10 -15 -10 15 -10
15 -10 -15 -10 -15 -10 15 -10 15 -10 -15 -10 -15 -10 15 -10 15 -10 -15 -10
-15 -10 15 -10 15 -10 -15 -10 -15 -10 15 -10 15 -10 -15 -10 -15 -10 15 -10
15 -10 -15 -10 -15 -10 15 -10 15 -10 -15 -10 -15 -10 15 -10 15 -10 -15 -10
-15 -10 15 -10 15 -10 -15 -10 -15 -10 15 -10 15 -10 -15 -10 -15 -10 15 -10
15 -10 -15 -10 -15 -10 15 -10 15 -9 -15 -10 -14 -7 6 -7 7 33 31 34 32 -14 8
-14 9 7 8 8 7 8 -13 9 -14 37 38 38 37 -14 9 -13 8 7 8 8 7 9 -14 8 -14 32 34
31 33 7 -7 6 -7 -14 -10 -15 -9 15 -9 14 -10 -7 -8 -8 -7 -9 14 -9 14 -8 -7
-7 -8 14 -9 14 -9 -7 -8 -8 -7 -9 13 -8 14 -18 -17 -17 -18 14 -8 13 -9 -7 -8
-8 -7 -9 14 -9 14 -8 -7 -7 -8 14 -9 14 -9 -7 -8 -8 -7 -9 14 -9 14 -8 -7 -7
-8 14 -9 14 -9 -7 -8 -8 -7 -9 13 -8 14 -17 -16 -16 -17 16 -17 17 -16 9 14 9
14 10 -15 10 -15 10 15 10 15 10 -15 10 -15 10 15 10 15 10 -15 10 -15 10 15
10 15 10 -15 10 -15 10 15 10 15 10 -15 10 -15 10 15 10 15 10 -15 10 -15 10
15 10 15 10 -15 10 -15 10 15 10 15 10 -15 10 -15 10 15 10 15 10 -15 10 -15
10 15 10 15 9 -14 9 -14 17 16 16 17 -16 17 -17 16 -8 -14 -9 -13 -8 7 -7 8
14 9 14 9 -7 8 -8 7 -9 -14 -9 -14 -8 7 -7 8 14 9 14 9 -7 8 -8 7 -10 -14 -9
-15 -10 15 -10 15 -9 -15 -10 -14 -8 7 -7 8 14 9 14 9 -7 8 -8 7 -9 -14 -9
-14 -8 7 -7 8 14 9 14 9 -7 8 -8 7 -10 -14 -9 -15 -10 15 -10 15 -9 -15 -10
-14 -8 7 -7 8 14 10 15 9 -15 9 -14 10 7 7 7 7 19 -22 20 -23 27 27 26 26 -7
7 -8 7 -4 -12 -5 -13 -19 0 -19 0 0 9 0 9 13 5 12 4 -9 9 -9 9 -4 -12 -5 -13
-15 0 -16 0 -18 -21 -18 -21 -37 37 -37 37 13 8 13 8 -38 37 -37 38 -9 -14 -8
-13 -8 7 -7 8 13 8 14 9 -38 37 -37 38 -9 -14 -8 -13 -8 7 -7 8 13 8 14 9 -38
37 -37 38 -9 -14 -8 -13 -7 6 -6 7 16 17 17 16 19 -23 20 -22 7 7 7 7 -13 9
-14 8 28 27 27 28 8 -13 8 -14 32 34 32 34 8 -14 8 -14 32 34 32 34 8 -14 9
-14 21 24 21 24 9 -14 9 -14 7 6 6 7 -15 16 -16 15 -15 0 -16 0 0 -10z m-320
-200 l0 -10 -10 0 -10 0 0 10 0 10 10 0 10 0 0 -10z m40 -20 l0 -10 -10 0 -10
0 0 10 0 10 10 0 10 0 0 -10z m-40 -20 l0 -10 -10 0 -10 0 0 10 0 10 10 0 10
0 0 -10z m80 0 l0 -10 -10 0 -10 0 0 10 0 10 10 0 10 0 0 -10z m-120 -20 l0
-10 -10 0 -10 0 0 10 0 10 10 0 10 0 0 -10z m80 0 l0 -10 -10 0 -10 0 0 10 0
10 10 0 10 0 0 -10z m-120 -20 l0 -10 -10 0 -10 0 0 10 0 10 10 0 10 0 0 -10z
m80 0 l0 -10 -10 0 -10 0 0 10 0 10 10 0 10 0 0 -10z m80 0 l0 -10 -10 0 -10
0 0 10 0 10 10 0 10 0 0 -10z m-120 -20 l0 -10 -10 0 -10 0 0 10 0 10 10 0 10
0 0 -10z m80 0 l0 -10 -10 0 -10 0 0 10 0 10 10 0 10 0 0 -10z m80 0 l0 -10
-10 0 -10 0 0 10 0 10 10 0 10 0 0 -10z m-200 -20 l0 -10 -10 0 -10 0 0 10 0
10 10 0 10 0 0 -10z m80 0 l0 -10 -10 0 -10 0 0 10 0 10 10 0 10 0 0 -10z m80
0 l0 -10 -10 0 -10 0 0 10 0 10 10 0 10 0 0 -10z m80 0 l0 -10 -10 0 -10 0 0
10 0 10 10 0 10 0 0 -10z m-280 -20 l0 -10 -10 0 -10 0 0 10 0 10 10 0 10 0 0
-10z m80 0 l0 -10 -10 0 -10 0 0 10 0 10 10 0 10 0 0 -10z m80 0 l0 -10 -10 0
-10 0 0 10 0 10 10 0 10 0 0 -10z m80 0 l0 -10 -10 0 -10 0 0 10 0 10 10 0 10
0 0 -10z m-280 -20 l0 -10 -10 0 -10 0 0 10 0 10 10 0 10 0 0 -10z m80 0 l0
-10 -10 0 -10 0 0 10 0 10 10 0 10 0 0 -10z m80 0 l0 -10 -10 0 -10 0 0 10 0
10 10 0 10 0 0 -10z m80 0 l0 -10 -10 0 -10 0 0 10 0 10 10 0 10 0 0 -10z m80
0 l0 -10 -10 0 -10 0 0 10 0 10 10 0 10 0 0 -10z m-280 -20 l0 -10 -10 0 -10
0 0 10 0 10 10 0 10 0 0 -10z m80 0 l0 -10 -10 0 -10 0 0 10 0 10 10 0 10 0 0
-10z m80 0 l0 -10 -10 0 -10 0 0 10 0 10 10 0 10 0 0 -10z m80 0 l0 -10 -10 0
-10 0 0 10 0 10 10 0 10 0 0 -10z m80 0 l0 -10 -10 0 -10 0 0 10 0 10 10 0 10
0 0 -10z m-360 -20 l0 -10 -10 0 -10 0 0 10 0 10 10 0 10 0 0 -10z m80 0 l0
-10 -10 0 -10 0 0 10 0 10 10 0 10 0 0 -10z m80 0 l0 -10 -10 0 -10 0 0 10 0
10 10 0 10 0 0 -10z m80 0 l0 -10 -10 0 -10 0 0 10 0 10 10 0 10 0 0 -10z m80
0 l0 -10 -10 0 -10 0 0 10 0 10 10 0 10 0 0 -10z m80 0 l0 -10 -10 0 -10 0 0
10 0 10 10 0 10 0 0 -10z m-440 -20 l0 -10 -10 0 -10 0 0 10 0 10 10 0 10 0 0
-10z m80 0 l0 -10 -10 0 -10 0 0 10 0 10 10 0 10 0 0 -10z m80 0 l0 -10 -10 0
-10 0 0 10 0 10 10 0 10 0 0 -10z m80 0 l0 -10 -10 0 -10 0 0 10 0 10 10 0 10
0 0 -10z m80 0 l0 -10 -10 0 -10 0 0 10 0 10 10 0 10 0 0 -10z m80 0 l0 -10
-10 0 -10 0 0 10 0 10 10 0 10 0 0 -10z m-448 -32 l19 -22 9 14 9 14 8 -7 7
-8 -13 -8 -14 -9 38 -37 37 -38 9 14 8 13 8 -7 7 -8 -13 -8 -14 -9 38 -37 37
-38 9 14 8 13 8 -7 7 -8 -14 -10 -15 -9 15 -9 14 -10 -7 -8 -8 -7 -10 14 -9
15 -10 -15 -10 -15 -10 15 -10 15 -10 -15 -10 -15 -10 15 -10 15 -10 -15 -10
-15 -10 15 -10 15 -10 -15 -10 -15 -10 15 -10 15 -10 -15 -10 -15 -10 15 -10
15 -10 -15 -10 -15 -10 15 -10 15 -10 -15 -10 -15 -10 15 -10 15 -10 -15 -10
-15 -10 15 -10 15 -10 -15 -10 -15 -10 15 -10 15 -10 -15 -10 -15 -10 15 -10
15 -10 -15 -10 -15 -10 15 -10 15 -9 -14 -9 -14 -37 37 -37 37 7 7 6 6 9 -14
8 -14 32 34 32 34 8 -14 8 -14 32 34 32 34 8 -14 8 -14 32 34 32 34 8 -14 9
-14 28 32 28 31 4 1 4 0 19 -22z m88 12 l0 -10 -10 0 -10 0 0 10 0 10 10 0 10
0 0 -10z m80 0 l0 -10 -10 0 -10 0 0 10 0 10 10 0 10 0 0 -10z m80 0 l0 -10
-10 0 -10 0 0 10 0 10 10 0 10 0 0 -10z m80 0 l0 -10 -10 0 -10 0 0 10 0 10
10 0 10 0 0 -10z m80 0 l0 -10 -10 0 -10 0 0 10 0 10 10 0 10 0 0 -10z m80 0
l0 -10 -10 0 -10 0 0 10 0 10 10 0 10 0 0 -10z m-360 -20 l0 -10 -10 0 -10 0
0 10 0 10 10 0 10 0 0 -10z m80 0 l0 -10 -10 0 -10 0 0 10 0 10 10 0 10 0 0
-10z m80 0 l0 -10 -10 0 -10 0 0 10 0 10 10 0 10 0 0 -10z m80 0 l0 -10 -10 0
-10 0 0 10 0 10 10 0 10 0 0 -10z m80 0 l0 -10 -10 0 -10 0 0 10 0 10 10 0 10
0 0 -10z m-360 -20 l0 -10 -10 0 -10 0 0 10 0 10 10 0 10 0 0 -10z m80 0 l0
-10 -10 0 -10 0 0 10 0 10 10 0 10 0 0 -10z m80 0 l0 -10 -10 0 -10 0 0 10 0
10 10 0 10 0 0 -10z m80 0 l0 -10 -10 0 -10 0 0 10 0 10 10 0 10 0 0 -10z m80
0 l0 -10 -10 0 -10 0 0 10 0 10 10 0 10 0 0 -10z m152 -12 l19 -22 9 14 9 14
8 -7 7 -8 -13 -9 -14 -8 17 -18 18 -17 8 13 8 14 32 -34 32 -34 8 14 8 13 27
-27 27 -27 -6 -7 -7 -6 -10 14 -9 15 -10 -15 -10 -15 -10 15 -10 15 -10 -15
-10 -15 -10 15 -10 15 -10 -15 -10 -15 -10 15 -10 15 -10 -15 -10 -15 -10 15
-10 15 -10 -15 -10 -15 -10 15 -10 15 -10 -15 -10 -15 -10 15 -10 15 -10 -15
-10 -15 -10 15 -10 15 -9 -15 -10 -14 -7 6 -7 7 33 31 34 32 -14 8 -14 9 7 8
8 7 9 -13 8 -14 28 28 28 29 -12 4 -12 4 0 9 0 9 6 0 7 0 19 -22z m-432 -8 l0
-10 -10 0 -10 0 0 10 0 10 10 0 10 0 0 -10z m80 0 l0 -10 -10 0 -10 0 0 10 0
10 10 0 10 0 0 -10z m80 0 l0 -10 -10 0 -10 0 0 10 0 10 10 0 10 0 0 -10z m80
0 l0 -10 -10 0 -10 0 0 10 0 10 10 0 10 0 0 -10z m-200 -20 l0 -10 -10 0 -10
0 0 10 0 10 10 0 10 0 0 -10z m80 0 l0 -10 -10 0 -10 0 0 10 0 10 10 0 10 0 0
-10z m80 0 l0 -10 -10 0 -10 0 0 10 0 10 10 0 10 0 0 -10z m80 0 l0 -10 -10 0
-10 0 0 10 0 10 10 0 10 0 0 -10z m-200 -20 l0 -10 -10 0 -10 0 0 10 0 10 10
0 10 0 0 -10z m80 0 l0 -10 -10 0 -10 0 0 10 0 10 10 0 10 0 0 -10z m80 0 l0
-10 -10 0 -10 0 0 10 0 10 10 0 10 0 0 -10z m-200 -20 l0 -10 -10 0 -10 0 0
10 0 10 10 0 10 0 0 -10z m80 0 l0 -10 -10 0 -10 0 0 10 0 10 10 0 10 0 0 -10z
m80 0 l0 -10 -10 0 -10 0 0 10 0 10 10 0 10 0 0 -10z m-120 -20 l0 -10 -10 0
-10 0 0 10 0 10 10 0 10 0 0 -10z m80 0 l0 -10 -10 0 -10 0 0 10 0 10 10 0 10
0 0 -10z m-40 -20 l0 -10 -10 0 -10 0 0 10 0 10 10 0 10 0 0 -10z m80 0 l0
-10 -10 0 -10 0 0 10 0 10 10 0 10 0 0 -10z m-40 -20 l0 -10 -10 0 -10 0 0 10
0 10 10 0 10 0 0 -10z m120 0 l0 -10 -10 0 -10 0 0 10 0 10 10 0 10 0 0 -10z
m400 0 l0 -10 -10 0 -10 0 0 10 0 10 10 0 10 0 0 -10z m-560 -20 l0 -10 -10 0
-10 0 0 10 0 10 10 0 10 0 0 -10z m640 0 l0 -10 -10 0 -10 0 0 10 0 10 10 0
10 0 0 -10z m-600 -20 l0 -10 -10 0 -10 0 0 10 0 10 10 0 10 0 0 -10z"/>
<path d="M317 588 l-28 -32 -9 14 -8 14 -32 -34 -32 -34 -8 14 -8 14 -32 -34
-32 -34 -8 14 -8 13 -27 -27 -26 -26 16 -17 17 -16 9 14 9 14 10 -15 10 -15
10 15 10 15 10 -15 10 -15 10 15 10 15 10 -15 10 -15 10 15 10 15 10 -15 10
-15 10 15 10 15 10 -15 10 -15 10 15 10 15 10 -15 10 -15 10 15 10 15 10 -15
10 -15 10 15 10 15 10 -15 10 -15 10 15 10 15 10 -15 10 -15 10 15 10 15 10
-15 10 -15 10 15 10 15 9 -15 10 -14 6 6 7 6 -96 96 -96 96 -2 0 -3 -1 -28
-31z m109 -64 l76 -76 -7 -6 -6 -6 -10 14 -9 15 -10 -15 -10 -15 -10 15 -10
15 -10 -15 -10 -15 -10 15 -10 15 -10 -15 -10 -15 -10 15 -10 15 -10 -15 -10
-15 -10 15 -10 15 -10 -15 -10 -15 -10 15 -10 15 -10 -15 -10 -15 -10 15 -10
15 -10 -15 -10 -15 -10 15 -10 15 -10 -15 -10 -15 -10 15 -10 15 -10 -15 -10
-15 -10 15 -10 15 -9 -15 -10 -14 -7 6 -6 7 17 17 17 17 8 -13 8 -14 32 34 32
34 8 -14 8 -14 32 34 32 34 8 -14 9 -14 28 32 28 31 3 1 2 0 76 -76z"/>
<path d="M317 548 l-28 -32 -9 14 -8 14 -32 -34 -32 -34 -8 14 -8 13 -17 -17
-17 -17 6 -7 7 -6 10 14 9 15 10 -15 10 -15 10 15 10 15 10 -15 10 -15 10 15
10 15 10 -15 10 -15 10 15 10 15 10 -15 10 -15 10 15 10 15 10 -15 10 -15 10
15 10 15 10 -15 10 -15 10 15 10 15 9 -15 10 -14 6 6 7 7 -56 55 -56 56 -2 0
-3 -1 -28 -31z m69 -24 l36 -35 -7 -7 -6 -6 -10 14 -9 15 -10 -15 -10 -15 -10
15 -10 15 -10 -15 -10 -15 -10 15 -10 15 -10 -15 -10 -15 -10 15 -10 15 -9
-15 -10 -14 -7 6 -6 7 17 17 17 17 8 -13 9 -14 28 32 28 31 3 1 3 0 35 -36z"/>
<path d="M331 524 l-13 -15 7 -7 6 -6 10 14 9 15 9 -15 10 -14 7 6 6 7 -15 16
-16 15 -3 0 -3 -1 -14 -15z"/>
<path d="M882 514 l-44 -45 7 -7 6 -6 10 14 9 15 10 -15 10 -15 10 15 10 15
10 -15 10 -15 10 15 10 15 10 -15 10 -15 10 15 10 15 10 -15 10 -15 10 15 10
15 9 -15 10 -14 7 6 6 7 -27 27 -27 27 -8 -13 -8 -14 -30 32 -30 32 -4 -1 -3
0 -43 -45z m75 0 l25 -25 -6 -7 -7 -6 -10 14 -9 15 -10 -15 -10 -15 -10 15
-10 15 -9 -15 -10 -14 -6 6 -7 7 23 25 24 25 3 0 3 1 26 -26z m63 -24 l0 -10
-10 0 -10 0 0 10 0 10 10 0 10 0 0 -10z"/>
<path d="M920 510 l0 -10 10 0 10 0 0 10 0 10 -10 0 -10 0 0 -10z"/>
<path d="M1080 470 l0 -10 10 0 10 0 0 10 0 10 -10 0 -10 0 0 -10z"/>
<path d="M500 1050 l0 -10 10 0 10 0 0 10 0 10 -10 0 -10 0 0 -10z"/>
<path d="M580 1050 l0 -10 10 0 10 0 0 10 0 10 -10 0 -10 0 0 -10z"/>
<path d="M660 1050 l0 -10 10 0 10 0 0 10 0 10 -10 0 -10 0 0 -10z"/>
<path d="M740 1050 l0 -10 10 0 10 0 0 10 0 10 -10 0 -10 0 0 -10z"/>
<path d="M820 1050 l0 -10 10 0 10 0 0 10 0 10 -10 0 -10 0 0 -10z"/>
<path d="M460 1030 l0 -10 -20 0 -20 0 0 -5 0 -6 26 -26 26 -26 8 13 8 13 42
-43 41 -42 7 6 6 7 -14 9 -14 9 23 21 24 20 -8 8 -8 7 -4 -12 -5 -13 -19 0
-19 0 0 9 0 9 13 5 12 4 -9 9 -9 9 -4 -12 -5 -13 -19 0 -19 0 0 9 0 9 13 5 12
4 -9 9 -9 9 -4 -12 -5 -13 -19 0 -19 0 0 10 0 10 10 0 10 0 0 10 0 10 -10 0
-10 0 0 -10z"/>
<path d="M540 1030 l0 -10 10 0 10 0 0 10 0 10 -10 0 -10 0 0 -10z"/>
<path d="M620 1030 l0 -10 10 0 10 0 0 10 0 10 -10 0 -10 0 0 -10z"/>
<path d="M700 1030 l0 -10 10 0 10 0 0 10 0 10 -10 0 -10 0 0 -10z"/>
<path d="M780 1030 l0 -10 10 0 10 0 0 10 0 10 -10 0 -10 0 0 -10z"/>
<path d="M580 1010 l0 -10 10 0 10 0 0 10 0 10 -10 0 -10 0 0 -10z"/>
<path d="M660 1010 l0 -10 10 0 10 0 0 10 0 10 -10 0 -10 0 0 -10z"/>
<path d="M740 1010 l0 -10 10 0 10 0 0 10 0 10 -10 0 -10 0 0 -10z"/>
<path d="M620 990 l0 -10 10 0 10 0 0 10 0 10 -10 0 -10 0 0 -10z"/>
<path d="M700 990 l0 -10 10 0 10 0 0 10 0 10 -10 0 -10 0 0 -10z"/>
<path d="M660 970 l0 -10 10 0 10 0 0 10 0 10 -10 0 -10 0 0 -10z"/>
<path d="M20 770 l0 -10 10 0 10 0 0 10 0 10 -10 0 -10 0 0 -10z"/>
<path d="M60 750 l0 -10 10 0 10 0 0 10 0 10 -10 0 -10 0 0 -10z"/>
<path d="M1260 750 l0 -10 10 0 10 0 0 10 0 10 -10 0 -10 0 0 -10z"/>
<path d="M20 730 l0 -10 10 0 10 0 0 10 0 10 -10 0 -10 0 0 -10z"/>
<path d="M100 730 l0 -10 10 0 10 0 0 10 0 10 -10 0 -10 0 0 -10z"/>
<path d="M1220 730 l0 -10 10 0 10 0 0 10 0 10 -10 0 -10 0 0 -10z"/>
<path d="M60 710 l0 -10 10 0 10 0 0 10 0 10 -10 0 -10 0 0 -10z"/>
<path d="M140 710 l0 -10 10 0 10 0 0 10 0 10 -10 0 -10 0 0 -10z"/>
<path d="M1180 710 l0 -10 10 0 10 0 0 10 0 10 -10 0 -10 0 0 -10z"/>
<path d="M1260 710 l0 -10 10 0 10 0 0 10 0 10 -10 0 -10 0 0 -10z"/>
<path d="M20 690 l0 -10 10 0 10 0 0 10 0 10 -10 0 -10 0 0 -10z"/>
<path d="M100 690 l0 -10 10 0 10 0 0 10 0 10 -10 0 -10 0 0 -10z"/>
<path d="M180 690 l0 -10 10 0 10 0 0 10 0 10 -10 0 -10 0 0 -10z"/>
<path d="M1140 690 l0 -10 10 0 10 0 0 10 0 10 -10 0 -10 0 0 -10z"/>
<path d="M1220 690 l0 -10 10 0 10 0 0 10 0 10 -10 0 -10 0 0 -10z"/>
<path d="M60 670 l0 -10 10 0 10 0 0 10 0 10 -10 0 -10 0 0 -10z"/>
<path d="M140 670 l0 -10 10 0 10 0 0 10 0 10 -10 0 -10 0 0 -10z"/>
<path d="M220 670 l0 -10 10 0 10 0 0 10 0 10 -10 0 -10 0 0 -10z"/>
<path d="M1100 670 l0 -10 10 0 10 0 0 10 0 10 -10 0 -10 0 0 -10z"/>
<path d="M1180 670 l0 -10 10 0 10 0 0 10 0 10 -10 0 -10 0 0 -10z"/>
<path d="M1260 670 l0 -10 10 0 10 0 0 10 0 10 -10 0 -10 0 0 -10z"/>
<path d="M20 650 l0 -10 10 0 10 0 0 10 0 10 -10 0 -10 0 0 -10z"/>
<path d="M100 650 l0 -10 10 0 10 0 0 10 0 10 -10 0 -10 0 0 -10z"/>
<path d="M180 650 l0 -10 10 0 10 0 0 10 0 10 -10 0 -10 0 0 -10z"/>
<path d="M260 650 l0 -10 10 0 10 0 0 10 0 10 -10 0 -10 0 0 -10z"/>
<path d="M1060 650 l0 -10 10 0 10 0 0 10 0 10 -10 0 -10 0 0 -10z"/>
<path d="M1140 650 l0 -10 10 0 10 0 0 10 0 10 -10 0 -10 0 0 -10z"/>
<path d="M1220 650 l0 -10 10 0 10 0 0 10 0 10 -10 0 -10 0 0 -10z"/>
<path d="M60 630 l0 -10 10 0 10 0 0 10 0 10 -10 0 -10 0 0 -10z"/>
<path d="M140 630 l0 -10 10 0 10 0 0 10 0 10 -10 0 -10 0 0 -10z"/>
<path d="M220 630 l0 -10 10 0 10 0 0 10 0 10 -10 0 -10 0 0 -10z"/>
<path d="M1100 630 l0 -10 10 0 10 0 0 10 0 10 -10 0 -10 0 0 -10z"/>
<path d="M1180 630 l0 -10 10 0 10 0 0 10 0 10 -10 0 -10 0 0 -10z"/>
<path d="M1260 630 l0 -10 10 0 10 0 0 10 0 10 -10 0 -10 0 0 -10z"/>
<path d="M20 610 l0 -10 10 0 10 0 0 10 0 10 -10 0 -10 0 0 -10z"/>
<path d="M100 610 l0 -10 10 0 10 0 0 10 0 10 -10 0 -10 0 0 -10z"/>
<path d="M180 610 l0 -10 10 0 10 0 0 10 0 10 -10 0 -10 0 0 -10z"/>
<path d="M1140 610 l0 -10 10 0 10 0 0 10 0 10 -10 0 -10 0 0 -10z"/>
<path d="M1220 610 l0 -10 10 0 10 0 0 10 0 10 -10 0 -10 0 0 -10z"/>
<path d="M60 590 l0 -10 10 0 10 0 0 10 0 10 -10 0 -10 0 0 -10z"/>
<path d="M140 590 l0 -10 10 0 10 0 0 10 0 10 -10 0 -10 0 0 -10z"/>
<path d="M1100 590 l0 -10 -20 0 -20 0 0 -5 0 -6 26 -26 26 -26 8 13 8 13 42
-43 41 -42 7 6 6 7 -14 9 -14 9 23 21 24 20 -8 8 -8 7 -4 -12 -5 -13 -19 0
-19 0 0 9 0 9 13 5 12 4 -9 9 -9 9 -4 -12 -5 -13 -19 0 -19 0 0 9 0 9 13 5 12
4 -9 9 -9 9 -4 -12 -5 -13 -19 0 -19 0 0 10 0 10 10 0 10 0 0 10 0 10 -10 0
-10 0 0 -10z"/>
<path d="M1180 590 l0 -10 10 0 10 0 0 10 0 10 -10 0 -10 0 0 -10z"/>
<path d="M1260 590 l0 -10 10 0 10 0 0 10 0 10 -10 0 -10 0 0 -10z"/>
<path d="M20 570 l0 -10 10 0 10 0 0 10 0 10 -10 0 -10 0 0 -10z"/>
<path d="M100 570 l0 -10 10 0 10 0 0 10 0 10 -10 0 -10 0 0 -10z"/>
<path d="M1220 570 l0 -10 10 0 10 0 0 10 0 10 -10 0 -10 0 0 -10z"/>
<path d="M60 550 l0 -10 10 0 10 0 0 10 0 10 -10 0 -10 0 0 -10z"/>
<path d="M1260 550 l0 -10 10 0 10 0 0 10 0 10 -10 0 -10 0 0 -10z"/>
<path d="M20 530 l0 -10 10 0 10 0 0 10 0 10 -10 0 -10 0 0 -10z"/>
<path d="M720 430 l0 -10 10 0 10 0 0 10 0 10 -10 0 -10 0 0 -10z"/>
</g>
</svg>
