<?xml version="1.0" standalone="no"?>
<!DOCTYPE svg PUBLIC "-//W3C//DTD SVG 20010904//EN"
 "http://www.w3.org/TR/2001/REC-SVG-20010904/DTD/svg10.dtd">
<svg version="1.0" xmlns="http://www.w3.org/2000/svg"
 width="468pt" height="468pt" viewBox="0 0 468 468"
 preserveAspectRatio="xMidYMid meet">
<metadata>
Created by potrace 1.8, written by Peter Selinger 2001-2007
</metadata>
<g transform="translate(0,468) scale(0.365625,-0.365625)"
fill="#000000" stroke="none">
<path d="M350 1270 l0 -10 -20 0 -20 0 0 -10 0 -10 -25 0 -25 0 0 -10 0 -11
-45 -44 -44 -45 -11 0 -10 0 0 -15 0 -15 -10 0 -10 0 0 -40 0 -40 10 0 10 0 0
10 0 10 15 0 15 0 0 10 0 10 20 0 20 0 0 10 0 10 20 0 20 0 0 10 0 10 45 0 45
0 0 15 0 15 45 0 45 0 0 10 0 10 21 0 20 0 15 14 14 15 0 15 0 16 -10 0 -10 0
0 25 0 25 -15 0 -15 0 0 10 0 10 -55 0 -55 0 0 -10z m110 -20 l0 -10 -20 0
-20 0 0 -15 0 -15 35 0 35 0 0 -20 0 -20 -25 0 -25 0 0 -10 0 -10 -45 0 -45 0
0 -10 0 -10 -45 0 -45 0 0 -15 0 -15 -19 0 -19 0 -6 -12 -6 -13 -6 13 -6 12
-9 0 -9 0 0 -20 0 -20 -15 0 -15 0 0 20 0 20 15 0 15 0 0 10 0 11 45 44 44 45
21 0 20 0 0 15 0 15 20 0 20 0 0 10 0 10 55 0 55 0 0 -10z"/>
<path d="M350 1200 l0 -10 25 0 25 0 0 10 0 10 -25 0 -25 0 0 -10z"/>
<path d="M310 1180 l0 -10 10 0 10 0 0 10 0 10 -10 0 -10 0 0 -10z"/>
<path d="M260 1160 l0 -10 15 0 15 0 0 10 0 10 -15 0 -15 0 0 -10z"/>
<path d="M213 1135 l-13 -14 0 -11 0 -10 10 0 10 0 0 15 0 15 10 0 10 0 0 10
0 10 -7 0 -8 -1 -12 -14z"/>
<path d="M510 1250 l0 -10 10 0 10 0 0 -45 0 -45 -20 0 -20 0 0 -10 0 -10 -15
0 -15 0 0 -13 0 -13 -20 -14 -20 -14 0 -18 0 -18 -45 0 -45 0 0 -10 0 -10 -35
0 -35 0 0 -14 0 -14 -12 -5 -13 -4 9 -9 9 -9 4 13 5 12 33 0 33 0 5 -12 4 -13
9 9 9 9 -12 4 -13 5 0 14 0 14 45 0 45 0 0 10 0 10 45 0 45 0 0 -10 0 -10 44
0 44 0 5 13 4 12 9 -9 9 -9 -12 -4 -13 -5 0 -14 0 -14 10 0 10 0 0 -20 0 -20
-10 0 -10 0 0 10 0 10 -15 0 -15 0 0 10 0 10 -55 0 -55 0 0 -10 0 -10 -30 0
-30 0 0 -10 0 -10 -31 0 -30 0 -15 -14 -14 -15 0 -10 0 -11 -21 0 -21 0 -40
-42 -41 -43 -4 13 -5 12 -14 0 -14 0 0 30 0 30 15 0 15 0 0 11 0 12 22 18 21
19 -6 7 -7 6 -19 -21 -18 -22 -12 0 -11 0 0 -15 0 -15 -10 0 -10 0 0 -26 0
-25 14 -15 15 -14 10 0 11 0 0 -15 0 -15 10 0 10 0 0 15 0 15 18 0 18 0 14 20
14 20 21 0 21 0 14 20 14 20 33 0 33 0 0 15 0 15 30 0 30 0 0 10 0 10 25 0 25
0 0 10 0 10 30 0 30 0 0 -10 0 -10 15 0 15 0 0 -10 0 -10 -25 0 -25 0 0 -15 0
-15 -30 0 -30 0 0 -10 0 -10 -25 0 -25 0 0 -10 0 -10 -16 0 -15 0 -15 -14 -14
-15 0 -20 0 -21 -15 0 -15 0 0 -10 0 -10 -30 0 -30 0 0 -10 0 -10 30 0 30 0 0
-45 0 -45 15 0 15 0 0 -18 0 -18 20 -14 20 -14 0 -13 0 -13 10 0 10 0 0 -30 0
-30 10 0 10 0 0 10 0 10 13 0 13 0 14 20 14 20 18 0 18 0 0 14 0 14 13 5 12 4
-9 9 -9 9 -4 -12 -5 -13 -19 0 -19 0 0 -11 0 -10 -14 -15 -15 -14 -6 0 -6 0
-15 14 -14 15 0 8 0 9 -20 14 -20 14 0 18 0 18 -10 0 -10 0 0 41 0 40 14 15
15 14 15 0 16 0 0 10 0 10 -10 0 -10 0 0 15 0 15 10 0 10 0 0 -15 0 -15 45 0
45 0 0 -16 0 -17 -22 -18 -21 -19 6 -6 6 -7 30 32 29 31 17 0 16 0 15 14 14
15 0 10 0 11 -10 0 -10 0 0 30 0 30 10 0 10 0 0 35 0 35 10 0 10 0 0 43 0 43
-20 14 -20 14 0 32 0 32 12 4 13 5 -17 16 -17 17 -6 0 -6 0 -15 14 -14 15 0
16 0 16 -14 15 -15 14 -5 0 -6 0 0 -10z m40 -135 l0 -15 -10 0 -10 0 0 15 0
15 10 0 10 0 0 -15z m-40 -45 l0 -10 -10 0 -10 0 0 10 0 10 10 0 10 0 0 -10z
m90 -20 l0 -10 -25 0 -25 0 0 10 0 10 25 0 25 0 0 -10z m-50 -180 l0 -10 -10
0 -10 0 0 10 0 10 10 0 10 0 0 -10z m-60 -20 l0 -10 -15 0 -15 0 0 10 0 10 15
0 15 0 0 -10z m60 -20 l0 -10 -10 0 -10 0 0 10 0 10 10 0 10 0 0 -10z"/>
<path d="M600 1250 l0 -10 -15 0 -15 0 0 -15 0 -15 15 0 15 0 0 15 0 15 10 0
10 0 0 10 0 10 -10 0 -10 0 0 -10z"/>
<path d="M640 1250 l0 -10 55 0 55 0 0 -15 0 -15 45 0 45 0 0 -6 0 -5 -14 -15
-15 -14 -10 0 -11 0 0 -10 0 -10 13 0 13 0 14 20 14 20 28 0 28 0 0 -10 0 -10
25 0 25 0 0 -9 0 -9 -12 -5 -13 -4 8 -9 8 -8 9 13 8 14 16 -16 16 -16 0 -9 0
-10 -12 -5 -13 -4 9 -9 9 -9 4 13 5 12 14 0 14 0 0 -20 0 -20 -11 0 -10 0 -16
-15 -15 -16 7 -7 8 -7 4 13 5 12 10 0 9 0 15 14 14 15 0 15 0 16 -10 0 -10 0
0 15 0 15 -11 0 -11 0 -28 30 -28 30 -21 0 -21 0 0 10 0 10 -30 0 -30 0 0 15
0 15 -45 0 -45 0 0 10 0 10 -55 0 -55 0 0 -10z"/>
<path d="M660 1200 l0 -10 25 0 25 0 0 10 0 10 -25 0 -25 0 0 -10z"/>
<path d="M730 1180 l0 -10 10 0 10 0 0 10 0 10 -10 0 -10 0 0 -10z"/>
<path d="M660 1160 l0 -10 10 0 10 0 0 10 0 10 -10 0 -10 0 0 -10z"/>
<path d="M730 1140 l0 -10 10 0 10 0 0 10 0 10 -10 0 -10 0 0 -10z"/>
<path d="M860 1140 l0 -10 10 0 10 0 0 -11 0 -10 14 -15 15 -14 10 0 11 0 0
-30 0 -30 -15 0 -15 0 0 10 0 10 -20 0 -20 0 0 -10 0 -10 20 0 20 0 0 -15 0
-15 25 0 25 0 0 41 0 40 -14 15 -15 14 -10 0 -11 0 0 11 0 10 -14 15 -15 14
-5 0 -6 0 0 -10z"/>
<path d="M620 1115 l0 -15 10 0 10 0 0 -20 0 -20 10 0 10 0 0 -20 0 -20 10 0
10 0 0 -25 0 -25 -10 0 -10 0 0 -35 0 -35 -10 0 -10 0 0 -65 0 -65 -10 0 -10
0 0 -10 0 -10 16 0 15 0 15 14 14 15 0 20 0 21 -10 0 -10 0 0 40 0 40 10 0 10
0 0 15 0 15 15 0 15 0 0 -25 0 -25 20 0 20 0 0 -9 0 -9 -12 -4 -13 -5 18 -17
18 -18 18 21 18 21 41 0 40 0 6 13 6 12 6 -12 6 -13 24 0 24 0 0 -10 0 -10 45
0 45 0 0 -10 0 -10 -10 0 -10 0 0 -15 0 -15 10 0 10 0 0 15 0 15 30 0 30 0 0
-15 0 -15 35 0 35 0 0 -10 0 -10 20 0 20 0 0 -10 0 -10 25 0 25 0 0 -20 0 -20
-10 0 -10 0 0 10 0 10 -15 0 -15 0 0 -10 0 -10 15 0 15 0 0 -15 0 -15 -15 0
-15 0 0 -10 0 -10 -10 0 -10 0 0 24 0 24 -12 5 -13 5 15 11 14 10 -8 8 -9 8
-4 -12 -5 -13 -19 0 -19 0 0 20 0 20 -15 0 -15 0 0 -10 0 -10 -20 0 -20 0 0 9
0 9 13 5 12 4 -9 9 -9 9 -4 -12 -5 -13 -89 0 -89 0 0 10 0 10 -65 0 -65 0 0
11 0 10 -14 15 -15 14 -20 0 -21 0 0 -10 0 -10 15 0 15 0 0 -15 0 -15 20 0 20
0 0 -10 0 -10 65 0 65 0 0 -10 0 -10 70 0 70 0 0 -10 0 -10 40 0 40 0 0 -10 0
-10 25 0 25 0 0 -10 0 -11 27 -27 27 -26 4 12 4 12 10 0 9 0 15 14 14 15 0 10
0 11 10 0 10 0 0 16 0 15 -14 15 -15 14 -20 0 -21 0 0 10 0 10 -20 0 -20 0 0
15 0 15 -35 0 -35 0 0 10 0 10 -26 0 -25 0 -15 14 -14 15 0 15 0 16 -15 0 -15
0 0 11 0 10 -14 15 -15 14 -30 0 -31 0 0 10 0 10 -30 0 -30 0 0 10 0 10 -55 0
-55 0 0 -10 0 -10 -10 0 -10 0 0 25 0 25 -15 0 -15 0 0 20 0 20 -10 0 -10 0 0
35 0 35 -20 0 -20 0 0 -15z m170 -175 l0 -10 -10 0 -10 0 0 10 0 10 10 0 10 0
0 -10z m70 0 l0 -10 -10 0 -10 0 0 10 0 10 10 0 10 0 0 -10z m70 -25 l0 -15
-15 0 -15 0 0 15 0 15 15 0 15 0 0 -15z m-70 -25 l0 -10 -10 0 -10 0 0 10 0
10 10 0 10 0 0 -10z m110 0 l0 -10 -10 0 -10 0 0 10 0 10 10 0 10 0 0 -10z"/>
<path d="M680 1090 l0 -10 15 0 15 0 0 10 0 10 -15 0 -15 0 0 -10z"/>
<path d="M840 1090 l0 -10 10 0 10 0 0 10 0 10 -10 0 -10 0 0 -10z"/>
<path d="M730 1070 l0 -10 20 0 20 0 0 10 0 10 -20 0 -20 0 0 -10z"/>
<path d="M790 1050 l0 -10 25 0 25 0 0 10 0 10 -25 0 -25 0 0 -10z"/>
<path d="M290 960 l0 -10 10 0 10 0 0 10 0 10 -10 0 -10 0 0 -10z"/>
<path d="M240 940 l0 -10 10 0 10 0 0 10 0 10 -10 0 -10 0 0 -10z"/>
<path d="M790 830 l0 -10 25 0 25 0 0 10 0 10 -25 0 -25 0 0 -10z"/>
<path d="M860 830 l0 -10 20 0 20 0 0 10 0 10 -20 0 -20 0 0 -10z"/>
<path d="M950 805 l0 -15 20 0 20 0 0 15 0 15 -20 0 -20 0 0 -15z"/>
<path d="M460 760 l0 -10 15 0 15 0 0 10 0 10 -15 0 -15 0 0 -10z"/>
<path d="M673 755 l-13 -14 0 -27 0 -26 -32 -30 -32 -30 15 -10 14 -10 -12 -5
-13 -5 0 -34 0 -34 -15 0 -15 0 0 -20 0 -20 -30 0 -30 0 0 -11 0 -10 16 -16
16 -16 10 14 10 14 5 -12 5 -13 14 0 14 0 0 -10 0 -10 -79 0 -79 0 -6 13 -6
12 -6 -12 -6 -13 -78 0 -78 0 -6 13 -6 12 -6 -12 -6 -13 -9 0 -9 0 0 20 0 20
20 0 20 0 0 15 0 15 -20 0 -20 0 0 -15 0 -15 -10 0 -10 0 0 -18 0 -18 20 -14
20 -14 0 -33 0 -33 10 0 10 0 0 -35 0 -35 15 0 15 0 0 -30 0 -30 -25 0 -25 0
0 -10 0 -10 10 0 10 0 0 -15 0 -15 15 0 15 0 0 15 0 15 65 0 65 0 0 -15 0 -15
-65 0 -65 0 0 -10 0 -10 -145 0 -145 0 0 -65 0 -65 640 0 640 0 0 65 0 65
-130 0 -130 0 0 10 0 10 10 0 10 0 0 15 0 15 10 0 10 0 0 10 0 10 -20 0 -20 0
0 30 0 30 10 0 10 0 0 35 0 35 10 0 10 0 0 33 0 33 20 14 20 14 0 18 0 18 -10
0 -10 0 0 15 0 15 -173 0 -173 0 -14 20 -14 20 -13 0 -13 0 0 45 0 45 -10 0
-10 0 0 -35 0 -35 -10 0 -10 0 0 -10 0 -10 20 0 20 0 0 -10 0 -10 15 0 15 0 0
-10 0 -10 -31 0 -30 0 -15 14 -14 15 0 25 0 26 10 0 10 0 0 24 0 24 -12 4 -13
5 18 18 19 18 8 -14 9 -13 8 7 7 8 -14 10 -15 11 13 5 12 5 0 14 0 14 25 0 25
0 0 -10 0 -11 25 -24 24 -25 21 0 20 0 0 -10 0 -10 40 0 40 0 0 -10 0 -10 25
0 25 0 0 -13 0 -13 20 -14 20 -14 0 -18 0 -18 10 0 11 0 34 35 35 34 0 16 0
16 -26 26 -25 25 -6 -6 -6 -6 21 -19 22 -18 0 -17 0 -17 -14 -15 -15 -14 -5 0
-6 0 0 35 0 35 -15 0 -15 0 0 10 0 10 -30 0 -30 0 0 10 0 10 -35 0 -35 0 0 10
0 10 -35 0 -35 0 0 10 0 11 -25 24 -24 25 -16 0 -15 0 0 10 0 10 -12 0 -13 -1
-12 -14z m37 -15 l0 -10 -15 0 -15 0 0 10 0 10 15 0 15 0 0 -10z m-46 -292 l6
-13 6 13 6 12 13 0 13 0 5 -12 5 -13 11 15 11 15 10 -15 10 -15 9 15 10 14 7
-6 6 -7 -17 -17 -17 -17 -9 14 -9 14 -11 -15 -11 -15 -5 13 -5 12 -13 0 -13 0
-5 -12 -5 -13 -12 15 -12 15 -5 -12 -5 -13 -9 0 -9 0 0 20 0 20 19 0 19 0 6
-12z m183 -3 l15 -16 -5 -6 -6 -5 -16 15 -15 16 0 5 0 6 6 0 5 0 16 -15z m53
-5 l0 -20 -10 0 -10 0 0 20 0 20 10 0 10 0 0 -20z m127 5 l15 -16 -7 -7 -8 -7
-4 13 -5 12 -13 0 -13 0 -5 -12 -4 -13 -8 7 -7 7 13 15 14 15 8 1 8 0 16 -15z
m53 -5 l0 -20 -10 0 -10 0 0 20 0 20 10 0 10 0 0 -20z m-130 -10 l0 -10 -10 0
-10 0 0 10 0 10 10 0 10 0 0 -10z m-660 -40 l0 -10 19 0 19 0 6 13 6 12 6 -12
6 -13 13 0 13 0 6 13 6 12 6 -12 6 -13 18 0 18 0 6 13 6 12 6 -12 6 -13 13 0
13 0 6 13 6 12 6 -12 6 -13 18 0 18 0 6 13 6 12 6 -12 6 -13 13 0 13 0 5 13 4
12 9 -9 9 -9 -13 -4 -12 -5 0 -14 0 -14 10 0 10 0 0 11 0 10 17 17 16 17 5
-13 4 -12 34 0 34 0 0 -11 0 -10 -14 -15 -15 -14 -10 0 -11 0 0 10 0 10 -10 0
-10 0 0 -20 0 -20 25 0 25 0 0 10 0 10 20 0 20 0 0 -8 0 -8 -20 -14 -20 -14 0
-9 0 -8 14 -15 15 -14 14 0 15 0 5 -12 4 -13 9 9 9 9 -12 4 -13 5 0 34 0 34
10 0 10 0 0 -35 0 -35 15 0 15 0 0 -10 0 -10 -15 0 -15 0 0 -10 0 -10 -19 0
-19 0 -5 13 -5 12 -12 -15 -12 -15 -5 13 -5 12 -14 0 -14 0 0 -10 0 -10 -29 0
-29 0 -6 13 -6 12 -6 -12 -6 -13 -98 0 -98 0 -6 13 -6 12 -6 -12 -6 -13 -34 0
-34 0 0 30 0 30 -10 0 -10 0 0 35 0 35 -15 0 -15 0 0 35 0 35 15 0 15 0 0 -10z
m480 -24 l0 -14 13 -5 12 -4 -7 -8 -7 -7 -16 15 -15 16 0 10 0 11 10 0 10 0 0
-14z m90 3 l0 -10 -15 -16 -16 -15 -7 7 -7 8 13 4 12 5 0 14 0 14 10 0 10 0 0
-11z m40 -4 l0 -15 -10 0 -10 0 0 15 0 15 10 0 10 0 0 -15z m70 0 l0 -15 10 0
10 0 0 15 0 15 15 0 15 0 0 -14 0 -14 13 -5 12 -4 -9 -9 -9 -9 -4 13 -5 12 -9
0 -10 0 -27 -27 -26 -27 12 -4 12 -4 0 -14 0 -14 -10 0 -10 0 0 -20 0 -20 9 0
9 0 5 13 4 12 8 -7 7 -7 -16 -16 -16 -16 -15 15 -15 15 0 15 0 16 -15 0 -15 0
0 15 0 15 10 0 11 0 27 27 26 27 -12 4 -12 4 0 14 0 14 10 0 10 0 0 -15z m-70
-43 l0 -8 -20 -14 -20 -14 0 -12 0 -12 13 -6 12 -6 -12 -6 -13 -6 0 -19 0 -19
-10 0 -10 0 0 19 0 19 13 6 12 6 -12 6 -13 6 0 13 0 13 -12 5 -13 4 8 9 8 8 9
-14 9 -15 18 22 18 23 8 0 7 0 0 -8z m120 -37 l0 -25 -15 0 -15 0 0 25 0 25
15 0 15 0 0 -25z m-270 -10 l0 -15 -10 0 -10 0 0 15 0 15 10 0 10 0 0 -15z
m150 -65 l0 -10 -10 0 -10 0 0 10 0 10 10 0 10 0 0 -10z m-390 -45 l0 -15 -35
0 -35 0 0 15 0 15 35 0 35 0 0 -15z m110 0 l0 -15 -45 0 -45 0 0 15 0 15 45 0
45 0 0 -15z m110 0 l0 -15 -45 0 -45 0 0 15 0 15 45 0 45 0 0 -15z m90 0 l0
-15 -35 0 -35 0 0 15 0 15 35 0 35 0 0 -15z m60 0 l0 -15 -10 0 -10 0 0 15 0
15 10 0 10 0 0 -15z m70 0 l0 -15 -10 0 -10 0 0 15 0 15 10 0 10 0 0 -15z m40
0 l0 -15 -10 0 -10 0 0 15 0 15 10 0 10 0 0 -15z"/>
<path d="M330 365 l0 -15 10 0 10 0 0 15 0 15 -10 0 -10 0 0 -15z"/>
<path d="M490 365 l0 -15 10 0 10 0 0 15 0 15 -10 0 -10 0 0 -15z"/>
<path d="M380 320 l0 -10 10 0 10 0 0 10 0 10 -10 0 -10 0 0 -10z"/>
<path d="M440 320 l0 -10 10 0 10 0 0 10 0 10 -10 0 -10 0 0 -10z"/>
<path d="M510 300 l0 -10 10 0 10 0 0 10 0 10 -10 0 -10 0 0 -10z"/>
<path d="M600 300 l0 -10 10 0 10 0 0 10 0 10 -10 0 -10 0 0 -10z"/>
<path d="M440 275 l0 -15 10 0 10 0 0 15 0 15 -10 0 -10 0 0 -15z"/>
<path d="M350 250 l0 -10 15 0 15 0 0 10 0 10 -15 0 -15 0 0 -10z"/>
<path d="M550 250 l0 -10 10 0 10 0 0 10 0 10 -10 0 -10 0 0 -10z"/>
<path d="M640 250 l0 -10 10 0 10 0 0 10 0 10 -10 0 -10 0 0 -10z"/>
<path d="M490 230 l0 -10 10 0 10 0 0 10 0 10 -10 0 -10 0 0 -10z"/>
<path d="M930 275 l0 -15 10 0 10 0 0 15 0 15 -10 0 -10 0 0 -15z"/>
<path d="M220 740 l0 -10 20 0 20 0 0 10 0 10 -20 0 -20 0 0 -10z"/>
<path d="M770 740 l0 -10 45 0 45 0 0 10 0 10 -45 0 -45 0 0 -10z"/>
<path d="M150 720 l0 -10 25 0 25 0 0 10 0 10 -25 0 -25 0 0 -10z"/>
<path d="M290 720 l0 -10 10 0 10 0 0 10 0 10 -10 0 -10 0 0 -10z"/>
<path d="M420 720 l0 -10 10 0 10 0 0 10 0 10 -10 0 -10 0 0 -10z"/>
<path d="M880 720 l0 -10 25 0 25 0 0 -15 0 -15 19 0 19 0 5 -12 4 -13 9 9 9
9 -12 4 -13 5 0 14 0 14 -20 0 -20 0 0 10 0 10 -25 0 -25 0 0 -10z"/>
<path d="M110 695 l0 -15 10 0 10 0 0 15 0 15 -10 0 -10 0 0 -15z"/>
<path d="M220 695 l0 -15 10 0 10 0 0 15 0 15 -10 0 -10 0 0 -15z"/>
<path d="M570 695 l0 -15 15 0 15 0 0 15 0 15 -15 0 -15 0 0 -15z"/>
<path d="M70 670 l0 -10 -10 0 -11 0 -24 -25 -25 -24 0 -26 0 -26 17 -17 16
-17 5 13 4 12 14 0 14 0 0 10 0 10 20 0 20 0 0 15 0 15 20 0 20 0 0 10 0 10
25 0 25 0 0 10 0 10 30 0 30 0 0 10 0 10 35 0 35 0 0 10 0 10 -35 0 -35 0 0
-10 0 -10 -30 0 -30 0 0 -10 0 -10 -25 0 -25 0 0 -10 0 -10 -19 0 -19 0 -5 13
-4 12 -9 -9 -9 -9 13 -4 12 -5 0 -9 0 -9 -20 0 -20 0 0 10 0 10 -15 0 -15 0 0
10 0 10 11 0 10 0 15 14 14 15 0 5 0 6 -10 0 -10 0 0 -10z m-30 -60 l0 -10 15
0 15 0 0 -15 0 -15 -15 0 -15 0 0 -10 0 -10 -10 0 -10 0 0 35 0 35 10 0 10 0
0 -10z"/>
<path d="M150 670 l0 -10 15 0 15 0 0 10 0 10 -15 0 -15 0 0 -10z"/>
<path d="M460 670 l0 -10 25 0 25 0 0 10 0 10 -25 0 -25 0 0 -10z"/>
<path d="M460 620 l0 -20 15 0 15 0 0 20 0 20 -15 0 -15 0 0 -20z"/>
<path d="M290 475 l0 -15 10 0 10 0 0 15 0 15 -10 0 -10 0 0 -15z"/>
<path d="M330 465 l0 -25 10 0 10 0 0 10 0 10 25 0 25 0 0 15 0 15 -35 0 -35
0 0 -25z"/>
<path d="M420 475 l0 -15 35 0 35 0 0 15 0 15 -35 0 -35 0 0 -15z"/>
</g>
</svg>
