<?xml version="1.0" standalone="no"?>
<!DOCTYPE svg PUBLIC "-//W3C//DTD SVG 20010904//EN"
 "http://www.w3.org/TR/2001/REC-SVG-20010904/DTD/svg10.dtd">
<svg version="1.0" xmlns="http://www.w3.org/2000/svg"
 width="468pt" height="468pt" viewBox="0 0 468 468"
 preserveAspectRatio="xMidYMid meet">
<metadata>
Created by potrace 1.8, written by Peter Selinger 2001-2007
</metadata>
<g transform="translate(0,468) scale(0.365625,-0.365625)"
fill="#000000" stroke="none">
<path d="M920 1140 l0 -20 -20 0 -20 0 0 -20 0 -20 -20 0 -20 0 0 -40 0 -40
-20 0 -20 0 0 -60 0 -60 -20 0 -20 0 0 -40 0 -40 -40 0 -40 0 0 -20 0 -20
-100 0 -100 0 0 20 0 20 -40 0 -40 0 0 20 0 20 -20 0 -20 0 0 20 0 20 -20 0
-20 0 0 20 0 20 -60 0 -60 0 0 -20 0 -20 -20 0 -20 0 0 -20 0 -20 -20 0 -20 0
0 -40 0 -40 -20 0 -20 0 0 -140 0 -140 20 0 20 0 0 -40 0 -40 20 0 20 0 0 -20
0 -20 20 0 20 0 0 -20 0 -20 20 0 20 0 0 -20 0 -20 20 0 20 0 0 -20 0 -20 40
0 40 0 0 -20 0 -20 60 0 60 0 0 -20 0 -20 160 0 160 0 0 20 0 20 60 0 60 0 0
20 0 20 40 0 40 0 0 20 0 20 20 0 20 0 0 20 0 20 20 0 20 0 0 20 0 20 20 0 20
0 0 20 0 20 20 0 20 0 0 60 0 60 20 0 20 0 0 180 0 180 -20 0 -20 0 0 60 0 60
-20 0 -20 0 0 40 0 40 -20 0 -20 0 0 20 0 20 -20 0 -20 0 0 20 0 20 -60 0 -60
0 0 -20z m40 -40 l0 -20 20 0 20 0 0 20 0 20 20 0 20 0 0 -40 0 -40 20 0 20 0
0 -20 0 -20 20 0 20 0 0 -80 0 -80 20 0 20 0 0 -20 0 -20 -20 0 -20 0 0 -20 0
-20 20 0 20 0 0 -20 0 -20 -20 0 -20 0 0 -20 0 -20 20 0 20 0 0 -20 0 -20 -20
0 -20 0 0 -20 0 -20 20 0 20 0 0 -20 0 -20 -20 0 -20 0 0 -80 0 -80 -20 0 -20
0 0 -20 0 -20 -20 0 -20 0 0 -20 0 -20 -40 0 -40 0 0 -20 0 -20 -40 0 -40 0 0
-20 0 -20 -40 0 -40 0 0 -20 0 -20 -60 0 -60 0 0 20 0 20 -20 0 -20 0 0 -20 0
-20 -60 0 -60 0 0 20 0 20 -40 0 -40 0 0 20 0 20 -20 0 -20 0 0 -20 0 -20 -20
0 -20 0 0 40 0 40 -20 0 -20 0 0 -20 0 -20 -20 0 -20 0 0 40 0 40 -40 0 -40 0
0 20 0 20 -20 0 -20 0 0 20 0 20 20 0 20 0 0 20 0 20 -40 0 -40 0 0 140 0 140
40 0 40 0 0 20 0 20 -20 0 -20 0 0 20 0 20 20 0 20 0 0 20 0 20 60 0 60 0 0
-20 0 -20 20 0 20 0 0 -20 0 -20 20 0 20 0 0 -40 0 -40 20 0 20 0 0 20 0 20
20 0 20 0 0 -40 0 -40 20 0 20 0 0 20 0 20 60 0 60 0 0 -20 0 -20 20 0 20 0 0
40 0 40 20 0 20 0 0 -20 0 -20 20 0 20 0 0 40 0 40 20 0 20 0 0 20 0 20 20 0
20 0 0 80 0 80 20 0 20 0 0 20 0 20 20 0 20 0 0 40 0 40 20 0 20 0 0 -20z"/>
<path d="M960 1020 l0 -20 20 0 20 0 0 20 0 20 -20 0 -20 0 0 -20z"/>
<path d="M880 980 l0 -20 20 0 20 0 0 20 0 20 -20 0 -20 0 0 -20z"/>
<path d="M1040 980 l0 -20 20 0 20 0 0 20 0 20 -20 0 -20 0 0 -20z"/>
<path d="M960 940 l0 -20 20 0 20 0 0 20 0 20 -20 0 -20 0 0 -20z"/>
<path d="M880 900 l0 -20 20 0 20 0 0 20 0 20 -20 0 -20 0 0 -20z"/>
<path d="M1040 900 l0 -20 20 0 20 0 0 20 0 20 -20 0 -20 0 0 -20z"/>
<path d="M960 860 l0 -20 20 0 20 0 0 20 0 20 -20 0 -20 0 0 -20z"/>
<path d="M240 820 l0 -20 20 0 20 0 0 20 0 20 -20 0 -20 0 0 -20z"/>
<path d="M880 820 l0 -20 20 0 20 0 0 20 0 20 -20 0 -20 0 0 -20z"/>
<path d="M1040 820 l0 -20 20 0 20 0 0 20 0 20 -20 0 -20 0 0 -20z"/>
<path d="M320 780 l0 -20 20 0 20 0 0 20 0 20 -20 0 -20 0 0 -20z"/>
<path d="M800 780 l0 -20 20 0 20 0 0 20 0 20 -20 0 -20 0 0 -20z"/>
<path d="M960 780 l0 -20 20 0 20 0 0 20 0 20 -20 0 -20 0 0 -20z"/>
<path d="M240 740 l0 -20 20 0 20 0 0 20 0 20 -20 0 -20 0 0 -20z"/>
<path d="M880 740 l0 -20 20 0 20 0 0 20 0 20 -20 0 -20 0 0 -20z"/>
<path d="M1040 740 l0 -20 20 0 20 0 0 20 0 20 -20 0 -20 0 0 -20z"/>
<path d="M160 700 l0 -20 20 0 20 0 0 20 0 20 -20 0 -20 0 0 -20z"/>
<path d="M320 700 l0 -20 20 0 20 0 0 20 0 20 -20 0 -20 0 0 -20z"/>
<path d="M800 700 l0 -20 20 0 20 0 0 20 0 20 -20 0 -20 0 0 -20z"/>
<path d="M960 700 l0 -20 20 0 20 0 0 20 0 20 -20 0 -20 0 0 -20z"/>
<path d="M240 660 l0 -20 20 0 20 0 0 20 0 20 -20 0 -20 0 0 -20z"/>
<path d="M400 660 l0 -20 20 0 20 0 0 20 0 20 -20 0 -20 0 0 -20z"/>
<path d="M560 660 l0 -20 20 0 20 0 0 20 0 20 -20 0 -20 0 0 -20z"/>
<path d="M720 660 l0 -20 20 0 20 0 0 20 0 20 -20 0 -20 0 0 -20z"/>
<path d="M880 660 l0 -20 20 0 20 0 0 20 0 20 -20 0 -20 0 0 -20z"/>
<path d="M1040 660 l0 -20 20 0 20 0 0 20 0 20 -20 0 -20 0 0 -20z"/>
<path d="M160 620 l0 -20 20 0 20 0 0 20 0 20 -20 0 -20 0 0 -20z"/>
<path d="M320 620 l0 -20 20 0 20 0 0 20 0 20 -20 0 -20 0 0 -20z"/>
<path d="M480 620 l0 -20 20 0 20 0 0 20 0 20 -20 0 -20 0 0 -20z"/>
<path d="M640 620 l0 -20 20 0 20 0 0 20 0 20 -20 0 -20 0 0 -20z"/>
<path d="M800 620 l0 -20 20 0 20 0 0 20 0 20 -20 0 -20 0 0 -20z"/>
<path d="M960 620 l0 -20 20 0 20 0 0 20 0 20 -20 0 -20 0 0 -20z"/>
<path d="M240 580 l0 -20 20 0 20 0 0 20 0 20 -20 0 -20 0 0 -20z"/>
<path d="M400 580 l0 -20 20 0 20 0 0 20 0 20 -20 0 -20 0 0 -20z"/>
<path d="M560 580 l0 -20 20 0 20 0 0 20 0 20 -20 0 -20 0 0 -20z"/>
<path d="M720 580 l0 -20 20 0 20 0 0 20 0 20 -20 0 -20 0 0 -20z"/>
<path d="M880 580 l0 -20 20 0 20 0 0 20 0 20 -20 0 -20 0 0 -20z"/>
<path d="M1040 580 l0 -20 20 0 20 0 0 20 0 20 -20 0 -20 0 0 -20z"/>
<path d="M160 540 l0 -20 20 0 20 0 0 20 0 20 -20 0 -20 0 0 -20z"/>
<path d="M320 540 l0 -20 20 0 20 0 0 20 0 20 -20 0 -20 0 0 -20z"/>
<path d="M480 540 l0 -20 20 0 20 0 0 20 0 20 -20 0 -20 0 0 -20z"/>
<path d="M640 540 l0 -20 20 0 20 0 0 20 0 20 -20 0 -20 0 0 -20z"/>
<path d="M800 540 l0 -20 20 0 20 0 0 20 0 20 -20 0 -20 0 0 -20z"/>
<path d="M960 540 l0 -20 20 0 20 0 0 20 0 20 -20 0 -20 0 0 -20z"/>
<path d="M240 500 l0 -20 20 0 20 0 0 20 0 20 -20 0 -20 0 0 -20z"/>
<path d="M400 500 l0 -20 20 0 20 0 0 20 0 20 -20 0 -20 0 0 -20z"/>
<path d="M560 500 l0 -20 20 0 20 0 0 20 0 20 -20 0 -20 0 0 -20z"/>
<path d="M720 500 l0 -20 20 0 20 0 0 20 0 20 -20 0 -20 0 0 -20z"/>
<path d="M880 500 l0 -20 20 0 20 0 0 20 0 20 -20 0 -20 0 0 -20z"/>
<path d="M1040 500 l0 -20 20 0 20 0 0 20 0 20 -20 0 -20 0 0 -20z"/>
<path d="M320 460 l0 -20 20 0 20 0 0 20 0 20 -20 0 -20 0 0 -20z"/>
<path d="M480 460 l0 -20 20 0 20 0 0 20 0 20 -20 0 -20 0 0 -20z"/>
<path d="M640 460 l0 -20 20 0 20 0 0 20 0 20 -20 0 -20 0 0 -20z"/>
<path d="M800 460 l0 -20 20 0 20 0 0 20 0 20 -20 0 -20 0 0 -20z"/>
<path d="M960 460 l0 -20 20 0 20 0 0 20 0 20 -20 0 -20 0 0 -20z"/>
<path d="M240 420 l0 -20 20 0 20 0 0 20 0 20 -20 0 -20 0 0 -20z"/>
<path d="M400 420 l0 -20 20 0 20 0 0 20 0 20 -20 0 -20 0 0 -20z"/>
<path d="M560 420 l0 -20 20 0 20 0 0 20 0 20 -20 0 -20 0 0 -20z"/>
<path d="M720 420 l0 -20 20 0 20 0 0 20 0 20 -20 0 -20 0 0 -20z"/>
<path d="M880 420 l0 -20 20 0 20 0 0 20 0 20 -20 0 -20 0 0 -20z"/>
<path d="M1040 420 l0 -20 20 0 20 0 0 20 0 20 -20 0 -20 0 0 -20z"/>
<path d="M320 380 l0 -20 20 0 20 0 0 20 0 20 -20 0 -20 0 0 -20z"/>
<path d="M480 380 l0 -20 20 0 20 0 0 20 0 20 -20 0 -20 0 0 -20z"/>
<path d="M640 380 l0 -20 20 0 20 0 0 20 0 20 -20 0 -20 0 0 -20z"/>
<path d="M800 380 l0 -20 20 0 20 0 0 20 0 20 -20 0 -20 0 0 -20z"/>
<path d="M960 380 l0 -20 20 0 20 0 0 20 0 20 -20 0 -20 0 0 -20z"/>
<path d="M400 340 l0 -20 20 0 20 0 0 20 0 20 -20 0 -20 0 0 -20z"/>
<path d="M560 340 l0 -20 20 0 20 0 0 20 0 20 -20 0 -20 0 0 -20z"/>
<path d="M720 340 l0 -20 20 0 20 0 0 20 0 20 -20 0 -20 0 0 -20z"/>
<path d="M880 340 l0 -20 20 0 20 0 0 20 0 20 -20 0 -20 0 0 -20z"/>
<path d="M480 300 l0 -20 20 0 20 0 0 20 0 20 -20 0 -20 0 0 -20z"/>
<path d="M640 300 l0 -20 20 0 20 0 0 20 0 20 -20 0 -20 0 0 -20z"/>
<path d="M800 300 l0 -20 20 0 20 0 0 20 0 20 -20 0 -20 0 0 -20z"/>
<path d="M560 260 l0 -20 20 0 20 0 0 20 0 20 -20 0 -20 0 0 -20z"/>
<path d="M720 260 l0 -20 20 0 20 0 0 20 0 20 -20 0 -20 0 0 -20z"/>
</g>
</svg>
