<?xml version="1.0" standalone="no"?>
<!DOCTYPE svg PUBLIC "-//W3C//DTD SVG 20010904//EN"
 "http://www.w3.org/TR/2001/REC-SVG-20010904/DTD/svg10.dtd">
<svg version="1.0" xmlns="http://www.w3.org/2000/svg"
 width="468pt" height="468pt" viewBox="0 0 468 468"
 preserveAspectRatio="xMidYMid meet">
<metadata>
Created by potrace 1.8, written by Peter Selinger 2001-2007
</metadata>
<g transform="translate(0,468) scale(0.365625,-0.365625)"
fill="#000000" stroke="none">
<path d="M880 1230 l0 -10 -20 0 -20 0 0 -20 0 -20 -29 0 -29 0 -5 -12 -5 -13
-12 15 -12 15 -5 -12 -5 -13 -17 0 -17 0 -14 -20 -14 -20 -18 0 -18 0 0 -10 0
-10 -30 0 -30 0 0 -20 0 -20 -20 0 -20 0 0 -20 0 -20 -28 0 -28 0 -14 -20 -14
-20 -28 0 -28 0 0 -10 0 -10 -16 0 -16 0 -28 -30 -28 -30 -46 0 -46 0 0 -10 0
-10 -45 0 -46 0 -24 -25 -25 -24 0 -31 0 -31 25 -24 24 -25 36 0 35 0 0 -10 0
-10 20 0 20 0 0 -10 0 -10 30 0 30 0 0 -10 0 -10 -10 0 -10 0 0 -25 0 -26 25
-24 24 -25 26 0 25 0 0 -10 0 -10 15 0 16 0 26 -26 26 -26 -14 -9 -14 -9 15
-11 15 -11 -12 -5 -13 -5 0 -17 0 -17 -20 -14 -20 -14 0 -17 0 -17 -12 -6 -13
-6 13 -6 12 -6 0 -39 0 -39 10 0 10 0 0 -20 0 -20 -210 0 -210 0 0 -100 0
-100 640 0 640 0 0 100 0 100 -329 0 -329 0 -6 13 -6 12 -6 -12 -6 -13 -48 0
-48 0 -5 13 -5 12 -10 -14 -10 -14 -17 17 -17 17 6 7 7 6 10 -14 11 -15 5 13
5 12 45 0 44 0 15 14 14 15 0 15 0 16 30 0 30 0 0 -10 0 -10 26 0 25 0 15 14
14 15 0 31 0 32 30 28 30 28 0 16 0 16 -10 0 -10 0 0 -16 0 -15 -15 -15 -15
-15 -16 15 -15 16 25 25 25 25 36 0 35 0 0 -9 0 -9 -12 -5 -13 -4 9 -9 9 -9 4
13 5 12 19 0 19 0 0 -10 0 -10 20 0 20 0 0 -10 0 -10 20 0 20 0 0 -10 0 -10
20 0 20 0 0 -10 0 -10 20 0 20 0 0 -10 0 -10 36 0 35 0 15 14 14 15 0 25 0 26
-10 0 -10 0 0 16 0 15 -14 15 -15 14 -15 0 -16 0 0 40 0 40 -10 0 -10 0 0 16
0 17 -22 20 -23 20 13 4 12 5 0 19 0 19 10 0 10 0 0 49 0 49 13 5 12 5 -14 10
-15 10 32 30 32 30 0 16 0 16 20 0 20 0 0 9 0 9 -12 5 -13 5 15 12 15 12 -12
5 -13 5 0 28 0 28 13 6 12 6 -12 6 -13 6 0 19 0 19 40 0 40 0 0 10 0 10 -10 0
-10 0 0 20 0 20 -70 0 -70 0 0 -10 0 -10 -10 0 -10 0 0 20 0 20 20 0 20 0 0 6
0 5 -14 15 -15 14 -34 0 -35 0 -5 -12 -5 -13 -12 15 -12 15 -5 -12 -5 -13 -9
0 -9 0 0 20 0 20 -10 0 -10 0 0 -10z m-40 -120 l0 -10 -10 0 -10 0 0 10 0 10
10 0 10 0 0 -10z m-120 -20 l0 -10 -10 0 -10 0 0 10 0 10 10 0 10 0 0 -10z
m80 -20 l0 -10 -10 0 -10 0 0 10 0 10 10 0 10 0 0 -10z m40 0 l0 -10 -10 0
-10 0 0 10 0 10 10 0 10 0 0 -10z m-140 -20 l0 -10 -10 0 -10 0 0 10 0 10 10
0 10 0 0 -10z m40 0 l0 -10 -10 0 -10 0 0 10 0 10 10 0 10 0 0 -10z m-100 -40
l0 -10 -10 0 -10 0 0 10 0 10 10 0 10 0 0 -10z m-40 -40 l0 -10 -10 0 -10 0 0
10 0 10 10 0 10 0 0 -10z m460 0 l0 -10 -10 0 -10 0 0 10 0 10 10 0 10 0 0
-10z m0 -40 l0 -10 -10 0 -10 0 0 10 0 10 10 0 10 0 0 -10z m-280 -20 l0 -10
-10 0 -10 0 0 10 0 10 10 0 10 0 0 -10z m240 0 l0 -10 -10 0 -10 0 0 10 0 10
10 0 10 0 0 -10z m-600 -40 l0 -10 90 0 90 0 0 -10 0 -10 60 0 60 0 0 -30 0
-30 10 0 10 0 0 -10 0 -10 -20 0 -20 0 0 -10 0 -10 -50 0 -50 0 0 10 0 10 -15
0 -16 0 -24 25 -25 24 0 16 0 15 -10 0 -10 0 0 -15 0 -16 35 -34 34 -35 16 0
15 0 0 -9 0 -9 -12 -6 -13 -6 13 -6 12 -6 0 -14 0 -15 25 -24 24 -25 66 0 65
0 0 -10 0 -10 60 0 60 0 0 -10 0 -10 20 0 20 0 0 -10 0 -10 20 0 20 0 0 -10 0
-10 16 0 16 0 28 -30 28 -30 16 0 16 0 0 -20 0 -20 10 0 10 0 0 -30 0 -30 -40
0 -40 0 0 10 0 10 -20 0 -20 0 0 10 0 10 -20 0 -20 0 0 10 0 10 -20 0 -20 0 0
10 0 10 -20 0 -20 0 0 10 0 10 -20 0 -20 0 0 10 0 10 -50 0 -50 0 0 10 0 10
-10 0 -10 0 0 -20 0 -20 -10 0 -10 0 0 20 0 20 -9 0 -9 0 -5 -12 -5 -13 -11
15 -10 14 -21 -23 -20 -24 -8 8 -7 8 13 4 12 5 0 9 0 9 -40 0 -40 0 0 10 0 10
-50 0 -50 0 0 10 0 10 -30 0 -30 0 0 10 0 10 -26 0 -25 0 -15 14 -14 15 0 25
0 26 16 0 16 0 28 30 28 30 12 0 11 0 15 14 14 15 0 21 0 21 -14 15 -15 14
-45 0 -46 0 0 -10 0 -10 50 0 50 0 0 -30 0 -30 -16 0 -16 0 -31 -32 -30 -33
-4 13 -5 12 -39 0 -39 0 0 10 0 10 -20 0 -20 0 0 10 0 10 -36 0 -35 0 -15 14
-14 15 0 31 0 31 14 15 15 14 45 0 46 0 0 10 0 10 100 0 100 0 0 -10z m400 0
l0 -10 -10 0 -10 0 0 10 0 10 10 0 10 0 0 -10z m200 0 l0 -10 -10 0 -10 0 0
10 0 10 10 0 10 0 0 -10z m0 -40 l0 -10 -10 0 -10 0 0 10 0 10 10 0 10 0 0
-10z m-200 -70 l0 -20 46 0 45 0 15 -14 14 -15 0 -11 0 -11 -14 -15 -15 -14
-11 0 -11 0 -44 45 -45 44 0 16 0 15 10 0 10 0 0 -20z m20 -70 l49 -50 15 0
16 0 0 10 0 10 20 0 20 0 0 -10 0 -10 16 0 15 0 15 -14 14 -15 0 -15 0 -16 10
0 10 0 0 -20 0 -20 -10 0 -10 0 0 10 0 10 -20 0 -20 0 0 10 0 10 -20 0 -20 0
0 10 0 10 -20 0 -20 0 0 10 0 10 -60 0 -60 0 0 10 0 10 -66 0 -65 0 -15 14
-14 15 0 15 0 16 -10 0 -10 0 0 10 0 10 50 0 50 0 0 10 0 10 46 0 45 0 49 -50z
m140 10 l0 -20 -10 0 -10 0 0 20 0 20 10 0 10 0 0 -20z m-434 -194 l14 -15 0
-45 0 -46 10 0 10 0 0 -18 0 -18 20 -14 20 -14 0 -8 0 -8 -26 0 -25 0 -15 14
-14 15 0 15 0 16 -10 0 -10 0 0 30 0 30 -10 0 -10 0 0 30 0 30 -10 0 -10 0 0
10 0 10 26 0 25 0 15 -14z m120 -41 l15 -15 -15 -16 -16 -15 -16 15 -15 16 13
14 13 15 3 1 3 0 15 -15z m-66 -35 l0 -10 -10 0 -10 0 0 10 0 10 10 0 10 0 0
-10z m100 -20 l0 -10 -10 0 -10 0 0 10 0 10 10 0 10 0 0 -10z"/>
<path d="M640 450 l0 -10 10 0 10 0 0 10 0 10 -10 0 -10 0 0 -10z"/>
</g>
</svg>
