<?xml version="1.0" standalone="no"?>
<!DOCTYPE svg PUBLIC "-//W3C//DTD SVG 20010904//EN"
 "http://www.w3.org/TR/2001/REC-SVG-20010904/DTD/svg10.dtd">
<svg version="1.0" xmlns="http://www.w3.org/2000/svg"
 width="468pt" height="468pt" viewBox="0 0 468 468"
 preserveAspectRatio="xMidYMid meet">
<metadata>
Created by potrace 1.8, written by Peter Selinger 2001-2007
</metadata>
<g transform="translate(0,468) scale(0.365625,-0.365625)"
fill="#000000" stroke="none">
<path d="M0 1200 l0 -80 20 0 20 0 0 -20 0 -20 -20 0 -20 0 0 -20 0 -20 40 0
40 0 0 -20 0 -20 -40 0 -40 0 0 -20 0 -20 40 0 40 0 0 -20 0 -20 -40 0 -40 0
0 -20 0 -20 20 0 20 0 0 -20 0 -20 -20 0 -20 0 0 -140 0 -140 60 0 60 0 0 -20
0 -20 -60 0 -60 0 0 -20 0 -20 340 0 340 0 0 -20 0 -20 -340 0 -340 0 0 -20 0
-20 360 0 360 0 0 -20 0 -20 -360 0 -360 0 0 -20 0 -20 360 0 360 0 0 -20 0
-20 -360 0 -360 0 0 -20 0 -20 340 0 340 0 0 -20 0 -20 -340 0 -340 0 0 -20 0
-20 60 0 60 0 0 -20 0 -20 -60 0 -60 0 0 -60 0 -60 40 0 40 0 0 20 0 20 20 0
20 0 0 -20 0 -20 20 0 20 0 0 40 0 40 20 0 20 0 0 -40 0 -40 20 0 20 0 0 60 0
60 20 0 20 0 0 -60 0 -60 20 0 20 0 0 60 0 60 20 0 20 0 0 -60 0 -60 20 0 20
0 0 40 0 40 20 0 20 0 0 -40 0 -40 20 0 20 0 0 20 0 20 20 0 20 0 0 -20 0 -20
100 0 100 0 0 80 0 80 20 0 20 0 0 -80 0 -80 20 0 20 0 0 360 0 360 20 0 20 0
0 -360 0 -360 20 0 20 0 0 380 0 380 20 0 20 0 0 -380 0 -380 20 0 20 0 0 380
0 380 20 0 20 0 0 -380 0 -380 20 0 20 0 0 360 0 360 20 0 20 0 0 -360 0 -360
20 0 20 0 0 80 0 80 20 0 20 0 0 -80 0 -80 60 0 60 0 0 60 0 60 -20 0 -20 0 0
20 0 20 20 0 20 0 0 20 0 20 -40 0 -40 0 0 20 0 20 40 0 40 0 0 20 0 20 -60 0
-60 0 0 20 0 20 60 0 60 0 0 20 0 20 -60 0 -60 0 0 20 0 20 60 0 60 0 0 20 0
20 -40 0 -40 0 0 20 0 20 40 0 40 0 0 20 0 20 -20 0 -20 0 0 20 0 20 20 0 20
0 0 100 0 100 -80 0 -80 0 0 20 0 20 80 0 80 0 0 20 0 20 -360 0 -360 0 0 20
0 20 360 0 360 0 0 20 0 20 -380 0 -380 0 0 20 0 20 380 0 380 0 0 20 0 20
-380 0 -380 0 0 20 0 20 380 0 380 0 0 20 0 20 -360 0 -360 0 0 20 0 20 360 0
360 0 0 20 0 20 -80 0 -80 0 0 20 0 20 80 0 80 0 0 40 0 40 -100 0 -100 0 0
-20 0 -20 -20 0 -20 0 0 20 0 20 -20 0 -20 0 0 -40 0 -40 -20 0 -20 0 0 40 0
40 -20 0 -20 0 0 -40 0 -40 -20 0 -20 0 0 40 0 40 -20 0 -20 0 0 -20 0 -20
-20 0 -20 0 0 20 0 20 -140 0 -140 0 0 -60 0 -60 -20 0 -20 0 0 60 0 60 -20 0
-20 0 0 -340 0 -340 -20 0 -20 0 0 340 0 340 -20 0 -20 0 0 -360 0 -360 -20 0
-20 0 0 360 0 360 -20 0 -20 0 0 -360 0 -360 -20 0 -20 0 0 360 0 360 -20 0
-20 0 0 -340 0 -340 -20 0 -20 0 0 340 0 340 -20 0 -20 0 0 -60 0 -60 -20 0
-20 0 0 60 0 60 -40 0 -40 0 0 -80z m760 -20 l0 -20 -80 0 -80 0 0 20 0 20 80
0 80 0 0 -20z m-640 -460 l0 -80 -20 0 -20 0 0 80 0 80 20 0 20 0 0 -80z m400
0 l0 -80 -20 0 -20 0 0 80 0 80 20 0 20 0 0 -80z m240 60 l0 -20 -80 0 -80 0
0 20 0 20 80 0 80 0 0 -20z m0 -180 l0 -80 -20 0 -20 0 0 80 0 80 20 0 20 0 0
-80z m400 0 l0 -80 -20 0 -20 0 0 80 0 80 20 0 20 0 0 -80z m-520 -60 l0 -20
-80 0 -80 0 0 20 0 20 80 0 80 0 0 -20z m0 -400 l0 -20 -80 0 -80 0 0 20 0 20
80 0 80 0 0 -20z"/>
</g>
</svg>
