<?xml version="1.0" standalone="no"?>
<!DOCTYPE svg PUBLIC "-//W3C//DTD SVG 20010904//EN"
 "http://www.w3.org/TR/2001/REC-SVG-20010904/DTD/svg10.dtd">
<svg version="1.0" xmlns="http://www.w3.org/2000/svg"
 width="468pt" height="468pt" viewBox="0 0 468 468"
 preserveAspectRatio="xMidYMid meet">
<metadata>
Created by potrace 1.8, written by Peter Selinger 2001-2007
</metadata>
<g transform="translate(0,468) scale(0.365625,-0.365625)"
fill="#000000" stroke="none">
<path d="M620 1250 l0 -10 -20 0 -20 0 0 -10 0 -10 -20 0 -20 0 0 -10 0 -10
-20 0 -20 0 0 -10 0 -10 -20 0 -20 0 0 -10 0 -10 -20 0 -20 0 0 -10 0 -10 -20
0 -20 0 0 -10 0 -10 -20 0 -20 0 0 -10 0 -10 -20 0 -20 0 0 -10 0 -10 -20 0
-20 0 0 -10 0 -10 -20 0 -20 0 0 -10 0 -10 -20 0 -20 0 0 -10 0 -10 -20 0 -20
0 0 -10 0 -10 -20 0 -20 0 0 -10 0 -10 -16 0 -15 0 -15 -14 -14 -15 0 -211 0
-211 14 -15 15 -14 15 0 16 0 0 -10 0 -10 20 0 20 0 0 -10 0 -10 20 0 20 0 0
-10 0 -10 20 0 20 0 0 -10 0 -10 20 0 20 0 0 -10 0 -10 20 0 20 0 0 -10 0 -10
20 0 20 0 0 -10 0 -10 20 0 20 0 0 -10 0 -10 20 0 20 0 0 -10 0 -10 20 0 20 0
0 -10 0 -10 20 0 20 0 0 -10 0 -10 20 0 20 0 0 -10 0 -10 20 0 20 0 0 -10 0
-10 20 0 20 0 0 -10 0 -10 20 0 20 0 0 10 0 10 20 0 20 0 0 10 0 10 20 0 20 0
0 10 0 10 20 0 20 0 0 10 0 10 20 0 20 0 0 10 0 10 20 0 20 0 0 10 0 10 20 0
20 0 0 10 0 10 20 0 20 0 0 10 0 10 20 0 20 0 0 10 0 10 20 0 20 0 0 10 0 10
20 0 20 0 0 10 0 10 20 0 20 0 0 10 0 10 20 0 20 0 0 10 0 10 20 0 20 0 0 10
0 10 16 0 15 0 15 14 14 15 0 211 0 211 -14 15 -15 14 -15 0 -16 0 0 10 0 10
-20 0 -20 0 0 10 0 10 -20 0 -20 0 0 10 0 10 -20 0 -20 0 0 10 0 10 -20 0 -20
0 0 10 0 10 -20 0 -20 0 0 10 0 10 -20 0 -20 0 0 10 0 10 -20 0 -20 0 0 10 0
10 -20 0 -20 0 0 10 0 10 -20 0 -20 0 0 10 0 10 -20 0 -20 0 0 10 0 10 -20 0
-20 0 0 10 0 10 -20 0 -20 0 0 10 0 10 -20 0 -20 0 0 10 0 10 -20 0 -20 0 0
-10z m40 -40 l0 -10 20 0 20 0 0 -10 0 -10 20 0 20 0 0 -10 0 -10 20 0 20 0 0
-10 0 -10 20 0 20 0 0 -10 0 -10 20 0 20 0 0 -10 0 -10 20 0 20 0 0 -10 0 -10
20 0 20 0 0 -10 0 -10 20 0 20 0 0 -10 0 -10 20 0 20 0 0 -10 0 -10 20 0 20 0
0 -10 0 -10 20 0 20 0 0 -10 0 -10 20 0 20 0 0 -10 0 -10 16 0 15 0 15 -14 14
-15 0 -165 0 -166 -70 0 -70 0 0 10 0 10 10 0 10 0 0 20 0 20 15 0 16 0 24 25
25 24 0 56 0 55 -100 0 -100 0 0 60 0 60 -40 0 -40 0 0 60 0 60 -20 0 -20 0 0
-60 0 -60 -20 0 -20 0 0 30 0 30 -20 0 -20 0 0 -30 0 -30 -88 0 -88 0 -14 -20
-14 -20 -26 0 -26 0 -14 -20 -14 -20 -178 0 -178 0 0 -20 0 -20 180 0 180 0 0
-20 0 -20 -55 0 -56 0 -24 -25 -25 -24 0 -36 0 -35 20 0 20 0 0 -20 0 -20 10
0 10 0 0 -10 0 -10 -150 0 -150 0 0 166 0 165 14 15 15 14 15 0 16 0 0 10 0
10 20 0 20 0 0 10 0 10 20 0 20 0 0 10 0 10 20 0 20 0 0 10 0 10 20 0 20 0 0
10 0 10 20 0 20 0 0 10 0 10 20 0 20 0 0 10 0 10 20 0 20 0 0 10 0 10 20 0 20
0 0 10 0 10 20 0 20 0 0 10 0 10 20 0 20 0 0 10 0 10 20 0 20 0 0 10 0 10 20
0 20 0 0 10 0 10 20 0 20 0 0 -10z m260 -325 l0 -16 -25 -24 -24 -25 -176 0
-175 0 0 20 0 20 38 0 38 0 14 20 14 20 148 0 148 0 0 -15z m200 -145 l0 -40
-360 0 -360 0 0 20 0 20 270 0 270 0 0 10 0 10 20 0 20 0 0 10 0 10 70 0 70 0
0 -40z m-640 -100 l0 -20 -20 0 -20 0 0 20 0 20 20 0 20 0 0 -20z m80 0 l0
-20 -20 0 -20 0 0 20 0 20 20 0 20 0 0 -20z m80 0 l0 -20 -20 0 -20 0 0 20 0
20 20 0 20 0 0 -20z m80 0 l0 -20 -20 0 -20 0 0 20 0 20 20 0 20 0 0 -20z m80
0 l0 -20 -20 0 -20 0 0 20 0 20 20 0 20 0 0 -20z m80 0 l0 -20 -20 0 -20 0 0
20 0 20 20 0 20 0 0 -20z m120 0 l0 -20 -40 0 -40 0 0 20 0 20 40 0 40 0 0
-20z m-839 -111 l30 -32 6 7 6 6 -21 19 -22 18 0 7 0 6 16 0 15 0 60 -61 60
-61 6 5 5 6 -51 50 -51 50 0 5 0 6 15 0 16 0 90 -91 90 -91 6 5 5 6 -81 80
-81 80 0 6 0 5 15 0 16 0 120 -121 120 -121 6 5 5 6 -111 110 -111 110 0 6 0
5 15 0 16 0 140 -141 140 -141 6 5 5 6 -131 130 -131 130 0 6 0 5 15 0 16 0
130 -131 130 -131 6 5 5 6 -121 120 -121 120 0 6 0 5 15 0 16 0 120 -121 120
-121 6 5 5 6 -111 110 -111 110 0 6 0 5 15 0 16 0 110 -111 110 -111 6 5 5 6
-101 100 -101 100 0 6 0 5 15 0 16 0 100 -101 100 -101 6 5 5 6 -91 90 -91 90
0 6 0 5 15 0 16 0 90 -91 90 -91 6 5 5 6 -81 80 -81 80 0 6 0 5 15 0 16 0 80
-81 80 -81 6 5 5 6 -71 70 -71 70 0 6 0 5 15 0 16 0 70 -71 70 -71 6 5 5 6
-61 60 -61 60 0 5 0 6 16 0 15 0 60 -61 60 -61 6 5 5 6 -51 50 -51 50 0 5 0 6
16 0 15 0 50 -51 50 -51 6 5 5 6 -41 40 -41 39 0 6 0 6 16 0 16 0 39 -41 40
-41 6 5 6 6 -32 30 -31 29 0 6 0 6 16 0 16 0 29 -31 30 -32 6 7 6 6 -21 19
-22 18 0 7 0 6 16 0 17 0 18 -22 19 -21 8 8 7 8 -12 4 -13 5 0 9 0 9 19 0 19
0 5 -12 5 -13 11 15 10 14 7 -6 6 -7 -15 -16 -16 -15 -15 0 -16 0 0 -10 0 -10
-20 0 -20 0 0 -10 0 -10 -20 0 -20 0 0 -10 0 -10 -20 0 -20 0 0 -10 0 -10 -20
0 -20 0 0 -10 0 -10 -20 0 -20 0 0 -10 0 -10 -20 0 -20 0 0 -10 0 -10 -20 0
-20 0 0 -10 0 -10 -20 0 -20 0 0 -10 0 -10 -20 0 -20 0 0 -10 0 -10 -20 0 -20
0 0 -10 0 -10 -20 0 -20 0 0 -10 0 -10 -20 0 -20 0 0 -10 0 -10 -16 0 -16 0
-30 32 -30 32 -10 -15 -10 -14 -5 13 -5 12 -15 0 -15 0 -30 32 -30 32 -10 -15
-10 -14 -5 13 -5 12 -15 0 -15 0 -30 32 -30 32 -10 -15 -10 -14 -5 13 -5 12
-15 0 -15 0 -30 32 -30 32 -10 -15 -10 -14 -5 13 -5 12 -14 0 -15 0 -24 25
-25 24 0 6 0 5 16 0 16 0 29 -31z"/>
<path d="M0 100 l0 -100 640 0 640 0 0 100 0 100 -640 0 -640 0 0 -100z"/>
</g>
</svg>
