<?xml version="1.0" standalone="no"?>
<!DOCTYPE svg PUBLIC "-//W3C//DTD SVG 20010904//EN"
 "http://www.w3.org/TR/2001/REC-SVG-20010904/DTD/svg10.dtd">
<svg version="1.0" xmlns="http://www.w3.org/2000/svg"
 width="468pt" height="468pt" viewBox="0 0 468 468"
 preserveAspectRatio="xMidYMid meet">
<metadata>
Created by potrace 1.8, written by Peter Selinger 2001-2007
</metadata>
<g transform="translate(0,468) scale(0.365625,-0.365625)"
fill="#000000" stroke="none">
<path d="M350 1215 l0 -65 -30 0 -30 0 0 -30 0 -30 -10 0 -10 0 0 30 0 30 -40
0 -40 0 0 -30 0 -30 -15 0 -15 0 0 30 0 30 -40 0 -40 0 0 -15 0 -15 -15 0 -15
0 0 15 0 15 -10 0 -10 0 0 -400 0 -400 10 0 10 0 0 -15 0 -15 15 0 15 0 0 -15
0 -15 11 0 10 0 15 -14 14 -15 0 -10 0 -11 15 0 15 0 0 -15 0 -15 11 0 10 0
15 -14 14 -15 0 -10 0 -11 15 0 15 0 0 -15 0 -15 11 0 10 0 15 -14 14 -15 0
-10 0 -11 15 0 15 0 0 -15 0 -15 15 0 15 0 0 -10 0 -10 170 0 170 0 0 10 0 10
120 0 120 0 0 -10 0 -10 160 0 160 0 0 396 0 395 -14 15 -15 14 -10 0 -11 0 0
-10 0 -10 -15 0 -15 0 0 40 0 40 -10 0 -10 0 0 -15 0 -15 -15 0 -15 0 0 40 0
40 -15 0 -15 0 0 -14 0 -14 -12 -6 -13 -6 13 -6 12 -6 0 -14 0 -14 15 0 15 0
0 -15 0 -15 15 0 15 0 0 -10 0 -10 -15 0 -15 0 0 -30 0 -30 -15 0 -15 0 0 30
0 30 -40 0 -40 0 0 -30 0 -30 -10 0 -10 0 0 30 0 30 -40 0 -40 0 0 -30 0 -30
-15 0 -15 0 0 30 0 30 -40 0 -40 0 0 -30 0 -30 -15 0 -15 0 0 30 0 30 -40 0
-40 0 0 -30 0 -30 -10 0 -10 0 0 30 0 30 -40 0 -40 0 0 -30 0 -30 -15 0 -15 0
0 30 0 30 -40 0 -40 0 0 -30 0 -30 -15 0 -15 0 0 30 0 30 -40 0 -40 0 0 -30 0
-30 -10 0 -10 0 0 40 0 40 -15 0 -15 0 0 -10 0 -10 -15 0 -15 0 0 40 0 40 -10
0 -10 0 0 -15 0 -15 -15 0 -15 0 0 40 0 40 -15 0 -15 0 0 -15 0 -15 -10 0 -10
0 0 40 0 40 -15 0 -15 0 0 -10 0 -10 -15 0 -15 0 0 40 0 40 40 0 40 0 0 25 0
25 15 0 15 0 0 -25 0 -25 40 0 40 0 0 25 0 25 15 0 15 0 0 -80 0 -80 10 0 10
0 0 55 0 55 30 0 30 0 0 25 0 25 10 0 10 0 0 -25 0 -25 40 0 40 0 0 25 0 25
15 0 15 0 0 -25 0 -25 40 0 40 0 0 25 0 25 15 0 15 0 0 -25 0 -25 40 0 40 0 0
25 0 25 10 0 10 0 0 -25 0 -25 40 0 40 0 0 25 0 25 15 0 15 0 0 -25 0 -25 25
0 25 0 0 -15 0 -15 15 0 15 0 0 -15 0 -15 11 0 10 0 15 -14 14 -15 0 -10 0
-11 15 0 15 0 0 -15 0 -15 15 0 15 0 0 40 0 40 -15 0 -15 0 0 -10 0 -10 -15 0
-15 0 0 40 0 40 -10 0 -10 0 0 -15 0 -15 -15 0 -15 0 0 40 0 40 -15 0 -15 0 0
-15 0 -15 -10 0 -10 0 0 30 0 30 -40 0 -40 0 0 -30 0 -30 -15 0 -15 0 0 30 0
30 -40 0 -40 0 0 -30 0 -30 -15 0 -15 0 0 30 0 30 -40 0 -40 0 0 -30 0 -30
-10 0 -10 0 0 30 0 30 -40 0 -40 0 0 -30 0 -30 -15 0 -15 0 0 30 0 30 -40 0
-40 0 0 -30 0 -30 -15 0 -15 0 0 55 0 55 30 0 30 0 0 -15 0 -15 40 0 40 0 0
15 0 15 -15 0 -15 0 0 15 0 15 -25 0 -25 0 0 10 0 10 -30 0 -30 0 0 15 0 15
-10 0 -10 0 0 -65z m-220 -120 l0 -25 -10 0 -10 0 0 -15 0 -15 -15 0 -15 0 0
15 0 15 15 0 15 0 0 25 0 25 10 0 10 0 0 -25z m300 -320 l0 -25 40 0 40 0 0
25 0 25 10 0 10 0 0 -25 0 -25 40 0 40 0 0 25 0 25 15 0 15 0 0 -25 0 -25 40
0 40 0 0 25 0 25 15 0 15 0 0 -25 0 -25 40 0 40 0 0 25 0 25 10 0 10 0 0 -25
0 -25 40 0 40 0 0 25 0 25 15 0 15 0 0 -25 0 -25 40 0 40 0 0 25 0 25 15 0 15
0 0 -25 0 -25 40 0 40 0 0 25 0 25 10 0 10 0 0 -25 0 -25 30 0 30 0 0 -30 0
-30 -15 0 -15 0 0 -10 0 -10 15 0 15 0 0 -30 0 -30 -15 0 -15 0 0 -10 0 -10
15 0 15 0 0 -30 0 -30 -15 0 -15 0 0 -10 0 -10 15 0 15 0 0 -30 0 -30 -15 0
-15 0 0 -10 0 -10 15 0 15 0 0 -30 0 -30 -15 0 -15 0 0 -10 0 -10 15 0 15 0 0
-30 0 -30 -15 0 -15 0 0 -10 0 -10 15 0 15 0 0 -30 0 -30 -15 0 -15 0 0 -10 0
-10 15 0 15 0 0 -30 0 -30 -15 0 -15 0 0 -10 0 -10 15 0 15 0 0 -30 0 -30
-120 0 -120 0 0 95 0 95 -15 0 -15 0 0 25 0 25 -15 0 -15 0 0 15 0 15 -10 0
-10 0 0 15 0 15 -80 0 -80 0 0 -15 0 -15 -15 0 -15 0 0 -15 0 -15 -15 0 -15 0
0 -25 0 -25 -10 0 -10 0 0 -95 0 -95 -150 0 -150 0 0 30 0 30 15 0 15 0 0 10
0 10 -15 0 -15 0 0 30 0 30 15 0 15 0 0 10 0 10 -15 0 -15 0 0 30 0 30 15 0
15 0 0 10 0 10 -15 0 -15 0 0 30 0 30 15 0 15 0 0 10 0 10 -15 0 -15 0 0 30 0
30 15 0 15 0 0 10 0 10 -15 0 -15 0 0 30 0 30 15 0 15 0 0 10 0 10 -15 0 -15
0 0 30 0 30 15 0 15 0 0 10 0 10 -15 0 -15 0 0 30 0 30 15 0 15 0 0 10 0 10
-15 0 -15 0 0 30 0 30 15 0 15 0 0 25 0 25 15 0 15 0 0 -25z m370 -575 l0
-120 -55 0 -55 0 0 80 0 80 15 0 15 0 0 25 0 25 15 0 15 0 0 15 0 15 25 0 25
0 0 -120z m80 105 l0 -15 15 0 15 0 0 -25 0 -25 10 0 10 0 0 -80 0 -80 -50 0
-50 0 0 120 0 120 25 0 25 0 0 -15z"/>
<path d="M510 655 l0 -15 10 0 10 0 0 -15 0 -15 -10 0 -10 0 0 15 0 15 -15 0
-15 0 0 -40 0 -40 55 0 55 0 0 40 0 40 -15 0 -15 0 0 15 0 15 -25 0 -25 0 0
-15z"/>
<path d="M770 655 l0 -15 -10 0 -10 0 0 -40 0 -40 50 0 50 0 0 40 0 40 -10 0
-10 0 0 15 0 15 -30 0 -30 0 0 -15z m30 -30 l0 -15 -15 0 -15 0 0 15 0 15 15
0 15 0 0 -15z"/>
<path d="M1040 655 l0 -15 -15 0 -15 0 0 -40 0 -40 55 0 55 0 0 40 0 40 -15 0
-15 0 0 15 0 15 -25 0 -25 0 0 -15z m30 -30 l0 -15 -15 0 -15 0 0 15 0 15 15
0 15 0 0 -15z"/>
<path d="M610 425 l0 -25 15 0 15 0 0 25 0 25 -15 0 -15 0 0 -25z"/>
<path d="M690 425 l0 -25 15 0 15 0 0 25 0 25 -15 0 -15 0 0 -25z"/>
<path d="M770 425 l0 -25 15 0 15 0 0 25 0 25 -15 0 -15 0 0 -25z"/>
<path d="M850 425 l0 -25 15 0 15 0 0 25 0 25 -15 0 -15 0 0 -25z"/>
<path d="M930 425 l0 -25 15 0 15 0 0 25 0 25 -15 0 -15 0 0 -25z"/>
<path d="M1010 425 l0 -25 15 0 15 0 0 25 0 25 -15 0 -15 0 0 -25z"/>
<path d="M850 175 l0 -15 15 0 15 0 0 15 0 15 -15 0 -15 0 0 -15z"/>
<path d="M610 1000 l0 -10 15 0 15 0 0 -15 0 -15 15 0 15 0 0 -11 0 -10 14
-15 15 -14 115 0 116 0 0 10 0 10 -10 0 -10 0 0 15 0 15 -15 0 -15 0 0 15 0
15 -15 0 -15 0 0 10 0 10 -120 0 -120 0 0 -10z m240 -25 l0 -15 15 0 15 0 0
-15 0 -15 -15 0 -15 0 0 15 0 15 -10 0 -10 0 0 -15 0 -15 -15 0 -15 0 0 15 0
15 15 0 15 0 0 15 0 15 10 0 10 0 0 -15z"/>
</g>
</svg>
