<?xml version="1.0" standalone="no"?>
<!DOCTYPE svg PUBLIC "-//W3C//DTD SVG 20010904//EN"
 "http://www.w3.org/TR/2001/REC-SVG-20010904/DTD/svg10.dtd">
<svg version="1.0" xmlns="http://www.w3.org/2000/svg"
 width="468pt" height="468pt" viewBox="0 0 468 468"
 preserveAspectRatio="xMidYMid meet">
<metadata>
Created by potrace 1.8, written by Peter Selinger 2001-2007
</metadata>
<g transform="translate(0,468) scale(0.365625,-0.365625)"
fill="#000000" stroke="none">
<path d="M253 1273 l-33 -4 0 -9 0 -8 -25 -6 -25 -6 0 -11 0 -11 29 -28 28
-29 27 -7 26 -6 0 -9 0 -9 15 0 15 0 0 10 0 10 -9 0 -9 0 -6 23 -5 22 6 38 6
37 13 0 14 0 0 -10 0 -10 15 0 15 0 0 -14 0 -14 -10 -4 -10 -3 -9 -47 -8 -48
31 -32 32 -33 6 -17 7 -17 -106 1 -106 0 -6 -10 -6 -10 -47 -7 -48 -7 0 -9 0
-9 -13 0 -13 0 -23 -21 -23 -21 7 -27 6 -26 10 -3 9 -4 0 -11 0 -12 23 -22 24
-22 26 -6 27 -7 0 -8 0 -9 47 -7 47 -7 11 -11 11 -11 7 -17 6 -18 -29 0 -30 0
0 -9 0 -10 43 -4 42 -4 -75 1 -75 1 -23 -21 -23 -21 6 -26 7 -26 29 -6 29 -7
0 -8 0 -8 26 -6 27 -7 53 7 54 6 0 8 0 7 -50 7 -50 7 0 8 0 9 -25 6 -25 6 0 9
0 9 31 11 32 11 16 -1 16 -1 -32 -9 -33 -10 0 -10 0 -10 30 -5 30 -6 0 -9 0
-9 25 0 25 0 0 9 0 9 -30 7 -30 7 0 8 0 8 21 5 22 6 -6 42 -5 42 -14 8 -13 9
52 0 51 0 -5 -20 -5 -20 -9 0 -9 0 0 -29 0 -29 16 -6 15 -6 -6 10 -6 10 28 0
28 0 40 -10 40 -9 3 -10 4 -11 9 0 9 0 0 8 0 9 -25 11 -26 12 -19 0 -20 0 0 9
0 10 -32 4 -33 4 59 -2 59 -3 9 -15 8 -15 25 -6 25 -6 0 -10 0 -10 -17 -20
-17 -20 -17 0 -17 0 -4 -11 -4 -11 -102 -5 -102 -6 0 -8 0 -9 -130 0 -130 0 0
-260 0 -260 640 0 640 0 0 260 0 260 -175 0 -175 0 0 9 0 8 62 6 63 6 3 10 3
10 35 7 34 6 0 8 0 8 25 6 25 6 0 9 0 10 17 17 18 17 -13 5 -12 4 0 12 0 12
-20 17 -20 17 -6 0 -5 0 -49 50 -49 50 -10 0 -10 0 -36 37 -35 36 0 8 0 9 -25
6 -25 6 0 9 0 9 84 0 83 0 54 10 53 10 6 9 5 9 28 7 27 7 0 9 0 9 -27 1 -28 1
18 5 17 4 0 10 0 9 -15 0 -15 0 0 -10 0 -10 -20 0 -20 0 0 9 0 10 13 4 12 4
-20 -3 -20 -3 -37 6 -38 6 0 8 0 8 18 4 17 4 -33 0 -34 0 -7 11 -6 11 -28 10
-27 11 0 10 0 10 15 0 15 0 0 -10 0 -10 21 0 22 0 38 -12 39 -11 0 -8 0 -7 40
-7 40 -7 0 -9 0 -9 23 0 23 0 17 -20 17 -20 0 -10 0 -10 -14 0 -13 0 -25 -23
-25 -23 13 -12 13 -12 11 0 11 0 15 15 16 15 1 45 2 46 -11 7 -11 7 -7 23 -7
22 -8 0 -9 0 -40 40 -40 40 -11 0 -11 0 0 9 0 9 -30 7 -30 7 0 8 0 8 -27 7
-28 7 -6 10 -7 11 -60 1 -60 1 -56 -58 -56 -59 0 -14 0 -14 -10 0 -10 0 0 -31
0 -32 16 -12 17 -12 -5 -13 -4 -13 -18 18 -17 18 -45 5 -44 5 0 7 0 7 -50 7
-50 7 0 9 0 10 -15 0 -14 0 -30 29 -29 28 -7 24 -8 23 -28 29 -28 28 -48 3
-48 4 -32 -5z m697 -12 l0 -8 40 -7 40 -6 0 -9 0 -9 30 -7 30 -7 0 -9 0 -9 15
0 16 0 5 -15 6 -15 13 0 13 0 43 -41 43 -41 -39 8 -40 7 -5 8 -5 8 -48 11 -47
12 0 9 0 8 -45 7 -45 6 0 9 0 9 -19 0 -19 0 -16 6 -16 6 0 9 0 9 25 0 25 0 0
-9 0 -9 40 -7 40 -7 0 -8 0 -7 39 -7 39 -6 5 -12 5 -13 1 13 1 14 -20 5 -20 5
0 8 0 7 -42 7 -42 7 -7 11 -7 10 -46 2 -46 1 0 12 0 11 6 16 6 16 24 0 24 0 0
-9z m-670 -26 l0 -15 -10 0 -10 0 0 15 0 15 10 0 10 0 0 -15z m135 -16 l6 -19
-6 -10 -6 -10 -12 1 -12 1 13 5 12 5 0 15 0 15 -14 -5 -15 -6 6 17 7 16 -16
-14 -16 -15 9 -3 9 -4 0 -10 0 -9 -14 -15 -15 -14 -10 0 -11 0 0 15 0 15 10 0
10 0 0 14 0 15 15 15 16 15 14 -5 14 -6 6 -19z m-159 -6 l7 -28 11 -7 10 -7
-7 -7 -7 -8 -14 19 -13 18 -11 -7 -10 -6 -16 15 -15 16 5 14 6 15 24 0 24 0 6
-27z m641 -39 l26 -24 8 0 9 0 28 -29 28 -30 26 -6 27 -7 5 -14 5 -14 16 0 15
0 0 -10 0 -9 50 -7 50 -7 0 -9 0 -9 -17 -6 -18 -7 -6 -9 -7 -10 -167 -6 -166
-7 -7 -11 -7 -11 -28 -7 -27 -7 0 -8 0 -8 -20 -5 -20 -5 0 -16 0 -15 36 -35
36 -35 -6 -17 -6 -17 -51 7 -51 7 -14 14 -14 13 -30 7 -30 7 0 9 0 9 -15 0
-15 0 0 15 0 16 15 5 15 6 0 24 0 24 -10 0 -10 0 0 15 0 15 14 0 14 0 4 -12 5
-13 42 0 42 0 7 11 7 11 38 14 37 13 0 7 0 7 20 5 20 5 0 15 0 16 -17 17 -18
18 0 41 0 40 23 25 22 24 0 7 0 7 25 6 25 6 1 13 2 12 4 -24 5 -24 25 -23z
m-454 -7 l5 -14 -6 -9 -7 -9 -41 -11 -40 -10 -12 4 -12 4 0 13 0 14 34 6 34 7
24 -6 23 -6 -12 6 -13 6 0 9 0 9 9 0 9 0 5 -13z m25 -186 l4 -11 20 0 21 0 -7
-7 -8 -8 -169 0 -170 0 -7 -11 -7 -11 -34 -6 -34 -7 -12 -17 -12 -16 -11 7
-12 7 0 14 0 14 22 21 22 20 23 0 23 0 0 9 0 10 28 5 27 4 145 -3 144 -3 4
-11z m777 -21 l-6 -10 -17 1 -17 0 20 9 20 9 3 0 3 1 -6 -10z m-700 -41 l7
-41 -10 -10 -10 -10 -19 6 -18 6 -13 21 -13 20 6 19 6 19 22 4 22 4 7 2 6 1 7
-41z m-195 21 l0 -10 50 0 50 0 0 -10 0 -10 20 -20 20 -20 0 -14 0 -15 -55 -6
-55 -7 0 -9 0 -9 -90 0 -90 0 0 9 0 9 -50 7 -50 7 0 8 0 8 -20 5 -20 5 0 11 0
11 15 0 16 0 5 14 5 14 50 7 49 7 0 9 0 9 75 0 75 0 0 -10z m-280 -90 l0 -9
38 -7 37 -7 7 -11 7 -11 136 0 136 0 7 11 7 11 38 7 39 7 -4 -17 -3 -17 -30
-10 -30 -10 -7 -11 -7 -11 -131 0 -131 0 -8 13 -8 13 -42 10 -41 9 -20 20 -20
20 0 5 0 5 15 0 15 0 0 -10z m501 -52 l34 -12 56 -58 55 -58 8 0 7 0 13 -12
13 -12 -25 -23 -25 -23 -3 0 -3 0 -96 96 -95 96 6 9 5 9 8 0 8 0 34 -12z m52
-133 l124 -125 12 0 11 0 0 -10 0 -10 -180 0 -180 0 0 9 0 8 50 7 50 7 0 9 0
10 14 0 14 0 6 26 7 26 -27 24 -26 25 -29 6 -29 6 0 8 0 9 -42 1 -43 1 13 5
12 5 0 14 0 14 15 0 15 0 0 9 0 9 35 6 35 7 0 9 0 10 10 0 9 0 124 -125z m500
38 l-13 -5 -17 5 -18 5 30 0 30 0 -12 -5z m-93 -13 l0 -9 -37 -7 -38 -7 -6 -9
-6 -10 -49 -9 -49 -9 -3 -10 -4 -10 -19 0 -19 0 0 -15 0 -15 -15 0 -15 0 0
-15 0 -15 -15 0 -15 0 0 10 0 11 33 34 33 34 27 6 27 7 0 9 0 8 50 7 50 7 0 8
0 9 35 0 35 0 0 -10z m-840 -28 l0 -8 -32 -9 -32 -10 -4 -13 -4 -13 21 -6 21
-5 0 -8 0 -9 13 -4 12 -4 -23 4 -23 4 -19 19 -20 20 0 10 0 10 25 6 25 6 0 9
0 9 20 0 20 0 0 -8z m60 -102 l0 -10 -25 0 -25 0 0 10 0 10 25 0 25 0 0 -10z"/>
<path d="M225 1209 l-7 -10 3 -4 4 -3 13 14 13 14 -10 0 -10 0 -6 -11z"/>
<path d="M818 1177 l-28 -32 0 -12 0 -13 -10 0 -10 0 0 -15 0 -15 8 0 7 0 13
-30 13 -29 22 -7 22 -7 6 -9 6 -9 51 -6 52 -6 0 -8 0 -9 45 0 45 0 0 9 0 10
38 3 37 3 -113 0 -113 1 -7 10 -7 11 -28 7 -29 7 -21 20 -21 19 0 35 0 35 32
30 32 29 0 5 0 6 -7 -1 -8 0 -27 -32z"/>
<path d="M854 1105 l15 -16 51 -6 50 -6 0 -8 0 -9 15 0 15 0 0 9 0 9 -22 6
-23 6 -27 0 -26 0 -4 8 -3 9 -29 7 -28 7 16 -16z"/>
<path d="M840 1070 l0 -10 25 -6 25 -6 0 -8 0 -7 50 -7 50 -7 0 -9 0 -10 15 0
15 0 0 9 0 10 18 3 17 4 -48 0 -49 1 -6 10 -7 10 -40 6 -40 7 -3 10 -4 10 -9
0 -9 0 0 -10z"/>
<path d="M620 889 l-15 -11 13 -5 12 -5 13 -13 13 -12 24 -8 24 -8 -14 15 -15
14 -19 7 -18 7 6 15 5 15 -7 0 -7 0 -15 -11z"/>
<path d="M580 851 l0 -9 30 -7 30 -7 0 -7 0 -8 45 -13 46 -13 5 5 5 6 -36 6
-35 7 0 9 0 8 -30 7 -30 7 0 9 0 9 -15 0 -15 0 0 -9z"/>
<path d="M492 923 l18 -4 6 -25 6 -24 9 0 9 0 0 10 0 10 -17 20 -17 20 -16 -1
-15 -1 17 -5z"/>
<path d="M200 911 l0 -10 -22 -3 -21 -3 -4 -15 -5 -15 10 13 9 13 56 6 57 6 0
8 0 9 -40 0 -40 0 0 -9z"/>
<path d="M318 908 l-5 -13 4 -12 5 -13 13 0 13 0 4 13 5 12 -4 13 -5 12 -13 0
-13 0 -4 -12z m29 -14 l-6 -6 -13 5 -13 5 19 1 19 1 -6 -6z"/>
<path d="M380 910 l0 -10 20 0 20 0 0 -15 0 -14 -35 -7 -35 -6 0 -9 0 -9 -35
0 -35 0 0 10 0 10 -40 0 -40 0 0 -9 0 -8 63 -7 64 -6 31 6 32 7 0 8 0 9 24 0
25 0 6 11 7 11 -21 19 -20 19 -16 0 -15 0 0 -10z"/>
<path d="M54 1257 l-11 -13 13 -12 13 -12 10 0 9 0 4 13 5 12 -4 13 -5 12 -11
0 -12 -1 -11 -12z m33 -13 l-6 -6 -13 5 -13 5 19 1 19 1 -6 -6z"/>
<path d="M1128 1258 l-5 -13 4 -12 5 -13 9 0 10 0 13 12 13 12 -13 13 -13 13
-9 0 -10 0 -4 -12z m29 -14 l-6 -6 -13 5 -13 5 19 1 19 1 -6 -6z"/>
<path d="M1218 1258 l-5 -13 4 -12 5 -13 9 0 10 0 13 12 13 12 -13 13 -13 13
-9 0 -10 0 -4 -12z m29 -14 l-6 -6 -13 5 -13 5 19 1 19 1 -6 -6z"/>
<path d="M518 1228 l-5 -13 4 -12 5 -13 9 0 10 0 13 12 13 12 -13 13 -13 13
-9 0 -10 0 -4 -12z m29 -14 l-6 -6 -13 5 -13 5 19 1 19 1 -6 -6z"/>
<path d="M128 1168 l-5 -13 4 -12 5 -13 13 0 13 0 4 13 5 12 -4 13 -5 12 -13
0 -13 0 -4 -12z m29 -14 l-6 -6 -13 5 -13 5 19 1 19 1 -6 -6z"/>
<path d="M1218 1168 l-5 -13 4 -12 5 -13 9 0 10 0 13 12 13 12 -13 13 -13 13
-9 0 -10 0 -4 -12z m29 -14 l-6 -6 -13 5 -13 5 19 1 19 1 -6 -6z"/>
<path d="M530 1150 l-15 -10 15 -10 15 -10 15 3 15 2 0 15 0 15 -15 2 -15 3
-15 -10z m40 -10 l0 -10 -15 0 -15 0 0 10 0 10 15 0 15 0 0 -10z"/>
<path d="M84 1097 l-11 -13 13 -12 13 -12 10 0 9 0 4 13 5 12 -4 13 -5 12 -11
0 -12 -1 -11 -12z m33 -13 l-6 -6 -13 5 -13 5 19 1 19 1 -6 -6z"/>
<path d="M1110 1070 l0 -10 10 0 10 0 0 10 0 10 -10 0 -10 0 0 -10z"/>
<path d="M255 1049 l-7 -10 6 -6 6 -6 0 11 0 12 14 0 14 0 5 -12 4 -13 9 8 8
8 -14 9 -15 10 -12 0 -12 0 -6 -11z"/>
</g>
</svg>
