<?xml version="1.0" standalone="no"?>
<!DOCTYPE svg PUBLIC "-//W3C//DTD SVG 20010904//EN"
 "http://www.w3.org/TR/2001/REC-SVG-20010904/DTD/svg10.dtd">
<svg version="1.0" xmlns="http://www.w3.org/2000/svg"
 width="468pt" height="468pt" viewBox="0 0 468 468"
 preserveAspectRatio="xMidYMid meet">
<metadata>
Created by potrace 1.8, written by Peter Selinger 2001-2007
</metadata>
<g transform="translate(0,468) scale(0.365625,-0.365625)"
fill="#000000" stroke="none">
<path d="M558 1273 l12 -5 0 -9 0 -9 -15 0 -15 0 0 10 0 10 -36 0 -36 0 5 -12
4 -13 24 2 24 2 -17 -5 -18 -5 0 -12 -1 -12 -10 18 -10 17 -24 0 -23 0 -5 13
-5 12 -1 -13 -1 -13 -12 -13 -12 -13 -14 13 -13 13 -14 -5 -15 -6 0 -9 0 -9 9
0 9 0 5 -19 5 -19 -9 -13 -8 -13 -8 8 -8 9 12 4 13 5 -16 15 -16 16 -6 -10 -7
-10 -15 -6 -15 -5 18 -1 17 -1 0 -10 0 -10 -10 0 -10 0 0 -15 0 -15 -16 0 -15
0 27 -25 27 -25 -142 0 -141 0 0 -54 0 -54 -15 -6 -15 -5 0 -81 0 -81 15 -5
15 -6 0 -54 0 -54 189 0 190 0 6 -11 7 -10 -6 -23 -6 -23 -127 -7 -127 -7 -6
-8 -5 -8 -22 -7 -23 -7 0 -15 0 -14 10 0 10 0 0 -10 0 -10 -60 0 -60 0 0 -260
0 -260 640 0 640 0 0 260 0 260 -50 0 -50 0 6 25 6 25 -18 7 -19 7 -6 8 -6 9
-137 6 -136 6 -6 23 -6 23 7 10 6 11 190 0 189 0 0 59 0 59 15 6 15 5 0 80 0
80 -15 15 -15 15 0 40 0 41 -112 0 -113 0 -15 10 -14 9 7 8 8 7 9 -14 10 -15
-4 58 -4 58 -7 7 -7 7 -9 -18 -10 -17 -9 0 -10 0 0 14 0 14 13 5 12 5 -17 1
-17 1 -10 -17 -9 -18 -9 9 -8 9 13 4 12 5 10 19 10 18 -34 -1 -35 -1 -4 -11
-4 -11 4 23 3 22 -10 0 -11 0 -26 -27 -26 -28 6 18 6 17 -14 0 -15 0 0 10 0
10 14 0 14 0 5 -12 4 -13 9 8 8 8 -13 9 -14 8 -33 0 -34 0 -1 -16 -1 -17 -5
13 -5 12 -13 0 -13 0 -4 -9 -3 -8 -25 -8 -24 -8 17 18 18 17 -5 5 -5 5 -30 -7
-31 -7 0 -8 0 -8 -19 -5 -20 -5 5 13 5 12 -23 7 -23 6 -10 -1 -10 -1 13 -5z
m236 -38 l-6 -15 -9 0 -9 0 0 9 0 9 13 5 12 5 2 1 2 1 -5 -15z m-354 -5 l0
-10 -10 0 -10 0 0 10 0 10 10 0 10 0 0 -10z m230 0 l0 -10 -10 0 -10 0 0 10 0
10 10 0 10 0 0 -10z m-101 -32 l3 -10 7 10 6 9 23 7 22 7 6 -15 6 -16 18 0 18
0 4 12 4 12 68 -1 68 -1 9 -13 9 -14 0 13 0 12 15 0 15 0 0 -9 0 -9 25 -6 25
-6 0 -10 0 -10 14 0 14 0 7 -30 6 -30 -6 -10 -6 -10 -27 0 -27 0 15 10 15 9
-20 15 -20 15 -10 1 -10 0 15 -10 15 -10 -92 0 -93 0 0 -9 0 -10 18 -5 17 -5
-20 2 -20 3 1 22 1 22 -14 0 -13 0 0 -25 0 -25 -25 0 -25 0 0 24 0 24 -25 0
-25 0 16 -13 17 -12 -7 -11 -7 -12 -17 1 -17 1 18 5 17 4 0 10 0 9 -107 0
-108 0 15 10 15 10 -12 0 -12 0 -6 -9 -5 -9 16 -17 17 -17 -29 4 -29 3 -3 21
-3 21 31 32 32 31 13 0 13 0 5 14 5 13 59 -4 58 -4 4 -11z m451 -28 l0 -10
-10 0 -10 0 0 10 0 10 10 0 10 0 0 -10z m0 -30 l0 -10 -10 0 -10 0 0 10 0 10
10 0 10 0 0 -10z m-553 -56 l-6 -6 -13 5 -13 5 19 1 19 1 -6 -6z m400 0 l-6
-6 -13 5 -13 5 19 1 19 1 -6 -6z m353 -59 l0 -35 -30 0 -30 0 0 -10 0 -10 39
0 39 0 16 -6 16 -6 0 -60 0 -59 -14 -15 -15 -14 -24 0 -25 0 -6 15 -5 15 29 0
30 0 0 10 0 10 -29 0 -30 0 -15 15 -15 15 -10 0 -11 0 0 -15 0 -15 15 0 15 0
-6 -24 -6 -25 36 -6 36 -7 0 -49 0 -49 -580 0 -580 0 0 44 0 44 36 7 36 6 -5
20 -5 19 14 0 14 0 0 15 0 15 -14 0 -15 0 -14 -14 -14 -15 -34 -4 -34 -4 38
-1 39 -2 -4 -12 -5 -13 -17 -3 -18 -4 -24 6 -24 6 0 69 0 69 16 6 16 6 40 0
39 0 -15 -15 -15 -15 -27 0 -27 0 6 -6 6 -6 50 7 51 7 0 13 0 13 -16 6 -16 6
-29 0 -29 0 0 45 0 45 580 0 580 0 0 -35z m-747 -362 l-6 -18 14 17 14 16 25
-1 25 -2 1 -44 0 -43 17 -10 17 -9 0 -14 0 -15 10 0 10 0 0 20 0 20 -9 0 -10
0 -6 20 -6 20 6 30 7 30 58 0 58 0 7 -30 6 -30 -6 -20 -6 -20 -10 0 -9 0 0
-20 0 -20 10 0 10 0 0 15 0 14 17 9 17 10 0 43 1 44 25 2 25 1 14 -16 14 -17
-6 17 -6 17 15 -6 14 -5 0 -18 0 -19 16 -15 15 -16 94 0 93 0 4 -11 4 -11 49
-2 50 -1 3 -17 3 -18 -15 6 -16 6 0 9 0 9 -11 0 -11 0 6 -15 5 -15 -19 0 -20
0 0 15 0 15 -17 2 -18 1 -49 2 -48 1 11 -4 11 -4 0 -13 0 -13 13 -5 12 -4 -9
-9 -9 -9 -4 13 -5 12 -21 0 -22 0 -15 10 -15 10 15 10 15 10 -15 0 -15 0 -15
-10 -15 -10 13 -8 13 -9 -93 -2 -93 -2 -3 -9 -4 -10 -58 0 -58 0 -4 10 -3 10
-123 1 -124 2 -10 -14 -10 -14 6 18 6 19 0 8 0 9 18 4 17 4 -58 -2 -59 -1 -9
-17 -10 -17 -14 0 -14 0 5 15 6 15 -16 0 -16 0 -1 -12 -1 -13 1 -15 0 -15 -5
13 -6 12 -14 0 -14 0 0 15 0 15 22 4 23 5 34 -1 35 -1 4 11 4 12 83 0 84 0 15
16 16 15 0 19 0 18 13 5 12 5 2 1 2 1 -6 -17z m-183 -108 l0 -15 -19 0 -19 0
-5 -12 -4 -13 -7 7 -8 6 19 20 18 20 13 1 12 1 0 -15z m752 -5 l22 -20 -7 -7
-7 -6 0 11 0 12 -25 0 -25 0 0 15 0 15 10 0 11 0 21 -20z"/>
<path d="M450 1200 l0 -10 10 0 10 0 0 10 0 10 -10 0 -10 0 0 -10z"/>
<path d="M450 1171 l0 -10 -17 -3 -18 -3 99 0 99 0 -16 3 -17 3 0 10 0 9 -65
0 -65 0 0 -9z"/>
<path d="M740 1171 l0 -10 -16 -3 -17 -3 94 0 94 -1 -17 4 -18 3 0 10 0 9 -60
0 -60 0 0 -9z"/>
<path d="M1130 961 l0 -11 25 0 25 0 0 -10 0 -10 30 0 30 0 0 9 0 9 -32 5 -33
5 -22 7 -23 7 0 -11z"/>
<path d="M1130 916 l0 -14 51 -7 50 -7 6 6 6 6 -27 0 -27 0 -15 15 -15 15 -15
0 -14 0 0 -14z"/>
<path d="M112 905 l-13 -15 -34 0 -35 0 0 -10 0 -10 35 0 35 0 0 10 0 10 25 0
25 0 0 15 0 15 -12 0 -13 -1 -13 -14z"/>
<path d="M511 593 l-1 -11 6 -16 6 -16 24 0 24 0 0 10 0 10 -24 0 -25 0 -4 18
-5 17 -1 -12z"/>
<path d="M760 587 l0 -17 -25 0 -25 0 0 -10 0 -10 24 0 25 0 6 21 7 21 -6 5
-6 6 0 -16z"/>
<path d="M396 573 l9 -8 7 -10 8 -10 0 18 0 17 -17 0 -16 0 9 -7z"/>
</g>
</svg>
