<?xml version="1.0" standalone="no"?>
<!DOCTYPE svg PUBLIC "-//W3C//DTD SVG 20010904//EN"
 "http://www.w3.org/TR/2001/REC-SVG-20010904/DTD/svg10.dtd">
<svg version="1.0" xmlns="http://www.w3.org/2000/svg"
 width="468pt" height="468pt" viewBox="0 0 468 468"
 preserveAspectRatio="xMidYMid meet">
<metadata>
Created by potrace 1.8, written by Peter Selinger 2001-2007
</metadata>
<g transform="translate(0,468) scale(0.365625,-0.365625)"
fill="#000000" stroke="none">
<path d="M140 1130 l0 -90 -60 0 -60 0 0 -10 0 -10 60 0 60 0 0 -50 0 -50 -15
0 -16 0 -24 -25 -25 -24 0 -16 0 -15 -20 0 -20 0 0 -10 0 -10 20 0 20 0 0 -15
0 -16 25 -24 24 -25 16 0 15 0 0 -10 0 -10 -15 0 -16 0 -24 -25 -25 -24 0 -16
0 -15 -20 0 -20 0 0 -10 0 -10 20 0 20 0 0 -15 0 -16 25 -24 24 -25 16 0 15 0
0 -50 0 -50 -60 0 -60 0 0 -10 0 -10 60 0 60 0 0 -76 0 -75 -14 -15 -15 -14
-45 0 -46 0 0 -10 0 -10 46 0 45 0 15 -14 14 -15 0 -65 0 -66 10 0 10 0 0 66
0 65 14 15 15 14 35 0 36 0 0 -15 0 -16 25 -24 24 -25 16 0 15 0 0 -40 0 -40
10 0 10 0 0 40 0 40 15 0 16 0 24 25 25 24 0 16 0 15 10 0 10 0 0 -15 0 -16
25 -24 24 -25 16 0 15 0 0 -40 0 -40 10 0 10 0 0 40 0 40 15 0 16 0 24 25 25
24 0 16 0 15 50 0 50 0 0 -80 0 -80 10 0 10 0 0 80 0 80 90 0 90 0 0 -80 0
-80 10 0 10 0 0 80 0 80 50 0 50 0 0 -15 0 -16 25 -24 24 -25 16 0 15 0 0 -40
0 -40 10 0 10 0 0 40 0 40 15 0 16 0 24 25 25 24 0 15 0 14 13 6 12 6 -12 6
-13 6 0 14 0 15 -25 24 -24 25 -16 0 -15 0 0 50 0 50 50 0 50 0 0 10 0 10 -50
0 -50 0 0 90 0 90 50 0 50 0 0 10 0 10 -50 0 -50 0 0 90 0 90 50 0 50 0 0 10
0 10 -50 0 -50 0 0 90 0 90 50 0 50 0 0 10 0 10 -50 0 -50 0 0 90 0 90 -10 0
-10 0 0 -90 0 -90 -90 0 -90 0 0 90 0 90 -10 0 -10 0 0 -90 0 -90 -50 0 -50 0
0 15 0 16 -25 24 -24 25 -16 0 -15 0 0 50 0 50 -10 0 -10 0 0 -50 0 -50 -15 0
-16 0 -24 -25 -25 -24 0 -16 0 -15 -50 0 -50 0 0 90 0 90 -10 0 -10 0 0 -90 0
-90 -90 0 -90 0 0 90 0 90 -10 0 -10 0 0 -90 0 -90 -90 0 -90 0 0 90 0 90 -10
0 -10 0 0 -90z m200 -160 l0 -50 -15 0 -16 0 -24 -25 -25 -24 0 -16 0 -15 -10
0 -10 0 0 15 0 16 -25 24 -24 25 -16 0 -15 0 0 50 0 50 90 0 90 0 0 -50z m200
0 l0 -50 -15 0 -16 0 -24 -25 -25 -24 0 -16 0 -15 -10 0 -10 0 0 15 0 16 -25
24 -24 25 -16 0 -15 0 0 50 0 50 90 0 90 0 0 -50z m120 35 l0 -16 25 -24 24
-25 16 0 15 0 0 -10 0 -10 -15 0 -16 0 -24 -25 -25 -24 0 -16 0 -15 -10 0 -10
0 0 15 0 16 -25 24 -24 25 -16 0 -15 0 0 50 0 50 50 0 50 0 0 -15z m140 9 l0
-5 -14 -15 -15 -14 -15 0 -16 0 0 10 0 10 20 0 20 0 0 10 0 10 10 0 10 0 0 -6z
m140 -84 l0 -90 -50 0 -50 0 0 15 0 16 -25 24 -24 25 -16 0 -15 0 0 10 0 10
15 0 16 0 24 25 25 24 0 16 0 15 50 0 50 0 0 -90z m200 0 l0 -90 -90 0 -90 0
0 90 0 90 90 0 90 0 0 -90z m-934 -44 l14 -15 0 -41 0 -41 -14 -15 -15 -14
-41 0 -41 0 -15 14 -14 15 0 41 0 41 13 14 12 14 43 1 43 0 15 -14z m200 0
l14 -15 0 -41 0 -41 -14 -15 -15 -14 -41 0 -41 0 -15 14 -14 15 0 41 0 41 13
14 12 14 43 1 43 0 15 -14z m200 0 l14 -15 0 -41 0 -41 -14 -15 -15 -14 -41 0
-41 0 -15 14 -14 15 0 41 0 41 13 14 12 14 43 1 43 0 15 -14z m-346 -81 l0
-16 25 -24 24 -25 16 0 15 0 0 -10 0 -10 -15 0 -16 0 -24 -25 -25 -24 0 -16 0
-15 -10 0 -10 0 0 15 0 16 -25 24 -24 25 -16 0 -15 0 0 10 0 10 15 0 16 0 24
25 25 24 0 16 0 15 10 0 10 0 0 -15z m200 0 l0 -16 25 -24 24 -25 16 0 15 0 0
-10 0 -10 -15 0 -16 0 -24 -25 -25 -24 0 -16 0 -15 -10 0 -10 0 0 15 0 16 -25
24 -24 25 -16 0 -15 0 0 10 0 10 15 0 16 0 24 25 25 24 0 16 0 15 10 0 10 0 0
-15z m200 0 l0 -16 25 -24 24 -25 16 0 15 0 0 -10 0 -10 -15 0 -16 0 -24 -25
-25 -24 0 -16 0 -15 -10 0 -10 0 0 15 0 16 -25 24 -24 25 -16 0 -15 0 0 10 0
10 15 0 16 0 24 25 25 24 0 16 0 15 10 0 10 0 0 -15z m140 9 l0 -5 -14 -15
-15 -14 -15 0 -16 0 0 10 0 10 20 0 20 0 0 10 0 10 10 0 10 0 0 -6z m140 -44
l0 -50 -15 0 -16 0 -24 -25 -25 -24 0 -16 0 -15 -10 0 -10 0 0 15 0 16 -25 24
-24 25 -16 0 -15 0 0 10 0 10 15 0 16 0 24 25 25 24 0 16 0 15 50 0 50 0 0
-50z m200 -40 l0 -90 -50 0 -50 0 0 15 0 16 -25 24 -24 25 -16 0 -15 0 0 50 0
50 90 0 90 0 0 -90z m-934 -44 l14 -15 0 -41 0 -41 -14 -15 -15 -14 -41 0 -41
0 -15 14 -14 15 0 41 0 41 13 14 12 14 43 1 43 0 15 -14z m600 0 l14 -15 0
-41 0 -41 -14 -15 -15 -14 -41 0 -41 0 -15 14 -14 15 0 41 0 41 13 14 12 14
43 1 43 0 15 -14z m-546 -81 l0 -16 25 -24 24 -25 16 0 15 0 0 -50 0 -50 -90
0 -90 0 0 50 0 50 15 0 16 0 24 25 25 24 0 16 0 15 10 0 10 0 0 -15z m140 9
l0 -5 -14 -15 -15 -14 -15 0 -16 0 0 10 0 10 20 0 20 0 0 10 0 10 10 0 10 0 0
-6z m60 -9 l0 -16 25 -24 24 -25 16 0 15 0 0 -50 0 -50 -90 0 -90 0 0 50 0 50
15 0 16 0 24 25 25 24 0 16 0 15 10 0 10 0 0 -15z m140 9 l0 -5 -14 -15 -15
-14 -15 0 -16 0 0 10 0 10 20 0 20 0 0 10 0 10 10 0 10 0 0 -6z m60 -9 l0 -16
25 -24 24 -25 16 0 15 0 0 -10 0 -10 -15 0 -16 0 -24 -25 -25 -24 0 -16 0 -15
-50 0 -50 0 0 50 0 50 15 0 16 0 24 25 25 24 0 16 0 15 10 0 10 0 0 -15z m200
0 l0 -16 25 -24 24 -25 16 0 15 0 0 -50 0 -50 -50 0 -50 0 0 15 0 16 -25 24
-24 25 -16 0 -15 0 0 10 0 10 15 0 16 0 24 25 25 24 0 16 0 15 10 0 10 0 0
-15z m140 9 l0 -5 -14 -15 -15 -14 -15 0 -16 0 0 10 0 10 20 0 20 0 0 10 0 10
10 0 10 0 0 -6z m140 -84 l0 -90 -90 0 -90 0 0 50 0 50 15 0 16 0 24 25 25 24
0 16 0 15 50 0 50 0 0 -90z m-334 -44 l14 -15 0 -41 0 -41 -14 -15 -15 -14
-41 0 -41 0 -15 14 -14 15 0 41 0 41 13 14 12 14 43 1 43 0 15 -14z m-466
-116 l0 -50 -15 0 -16 0 -24 -25 -25 -24 0 -16 0 -15 -36 0 -35 0 -15 14 -14
15 0 75 0 76 90 0 90 0 0 -50z m200 0 l0 -50 -15 0 -16 0 -24 -25 -25 -24 0
-16 0 -15 -10 0 -10 0 0 15 0 16 -25 24 -24 25 -16 0 -15 0 0 50 0 50 90 0 90
0 0 -50z m120 35 l0 -16 25 -24 24 -25 16 0 15 0 0 -50 0 -50 -50 0 -50 0 0
15 0 16 -25 24 -24 25 -16 0 -15 0 0 50 0 50 50 0 50 0 0 -15z m280 -75 l0
-90 -90 0 -90 0 0 50 0 50 15 0 16 0 24 25 25 24 0 16 0 15 50 0 50 0 0 -90z
m200 40 l0 -50 -15 0 -16 0 -24 -25 -25 -24 0 -16 0 -15 -50 0 -50 0 0 90 0
90 90 0 90 0 0 -50z m-740 -156 l0 -5 -14 -15 -15 -14 -15 0 -16 0 0 10 0 10
20 0 20 0 0 10 0 10 10 0 10 0 0 -6z m200 0 l0 -5 -14 -15 -15 -14 -15 0 -16
0 0 10 0 10 20 0 20 0 0 10 0 10 10 0 10 0 0 -6z m600 0 l0 -5 -14 -15 -15
-14 -15 0 -16 0 0 10 0 10 20 0 20 0 0 10 0 10 10 0 10 0 0 -6z"/>
<path d="M180 810 l0 -10 -20 0 -20 0 0 -10 0 -10 16 0 15 0 15 14 14 15 0 5
0 6 -10 0 -10 0 0 -10z"/>
<path d="M380 810 l0 -10 -20 0 -20 0 0 -10 0 -10 16 0 15 0 15 14 14 15 0 5
0 6 -10 0 -10 0 0 -10z"/>
<path d="M580 810 l0 -10 -20 0 -20 0 0 -10 0 -10 16 0 15 0 15 14 14 15 0 5
0 6 -10 0 -10 0 0 -10z"/>
<path d="M180 610 l0 -10 -20 0 -20 0 0 -10 0 -10 16 0 15 0 15 14 14 15 0 5
0 6 -10 0 -10 0 0 -10z"/>
<path d="M780 610 l0 -10 -20 0 -20 0 0 -10 0 -10 16 0 15 0 15 14 14 15 0 5
0 6 -10 0 -10 0 0 -10z"/>
<path d="M780 410 l0 -10 -20 0 -20 0 0 -10 0 -10 16 0 15 0 15 14 14 15 0 5
0 6 -10 0 -10 0 0 -10z"/>
</g>
</svg>
