<?xml version="1.0" standalone="no"?>
<!DOCTYPE svg PUBLIC "-//W3C//DTD SVG 20010904//EN"
 "http://www.w3.org/TR/2001/REC-SVG-20010904/DTD/svg10.dtd">
<svg version="1.0" xmlns="http://www.w3.org/2000/svg"
 width="468pt" height="468pt" viewBox="0 0 468 468"
 preserveAspectRatio="xMidYMid meet">
<metadata>
Created by potrace 1.8, written by Peter Selinger 2001-2007
</metadata>
<g transform="translate(0,468) scale(0.365625,-0.365625)"
fill="#000000" stroke="none">
<path d="M473 1204 l-73 -74 0 -15 0 -15 -10 0 -10 0 0 -18 0 -18 -20 -14 -20
-14 0 -16 0 -16 -20 -14 -20 -14 0 -18 0 -18 -10 0 -10 0 0 -20 0 -20 -10 0
-10 0 0 -20 0 -20 -10 0 -10 0 0 -20 0 -20 -10 0 -10 0 0 -16 0 -15 -15 -16
-16 -15 -18 21 -18 21 -7 0 -6 0 0 -40 0 -40 10 0 10 0 0 -20 0 -20 -10 0 -10
0 0 -20 0 -20 -10 0 -10 0 0 -20 0 -20 -16 0 -15 0 -15 -14 -14 -15 0 -21 0
-21 25 -24 24 -25 31 0 31 0 15 14 14 15 0 15 0 16 16 0 16 0 38 -40 38 -40
14 0 14 0 14 -20 14 -20 14 0 14 0 28 -30 28 -30 52 0 51 0 15 14 14 15 0 15
0 16 10 0 10 0 0 -80 0 -80 -10 0 -10 0 0 -30 0 -30 -290 0 -290 0 0 -100 0
-100 640 0 640 0 0 105 0 106 -25 24 -24 25 -13 0 -14 0 -14 20 -14 20 -14 0
-13 0 -24 25 -25 24 0 16 0 15 9 0 9 0 4 -12 4 -12 67 67 67 67 0 15 0 15 10
0 10 0 0 19 0 19 -12 5 -13 5 15 11 15 11 -15 11 -15 11 13 5 12 5 0 19 0 19
-20 0 -20 0 0 -9 0 -9 13 -5 12 -5 -15 -11 -15 -11 15 -9 14 -10 -7 -8 -8 -7
-9 14 -9 14 -7 -7 -7 -7 22 -20 23 -19 -16 -16 -16 -16 -36 36 -36 36 7 7 6 6
9 -13 8 -14 27 27 26 26 -16 16 -16 16 -20 -23 -20 -23 -10 14 -9 15 -9 -14
-9 -15 -32 34 -32 34 -9 -15 -9 -14 -10 15 -10 15 -10 -15 -10 -15 -10 15 -10
15 -10 -15 -10 -15 -9 15 -10 14 -20 -23 -20 -23 -36 36 -36 37 32 30 33 31
-14 8 -13 8 26 26 26 26 26 0 25 0 0 -6 0 -5 -16 -16 -16 -16 -8 13 -8 13 -18
-17 -17 -18 14 -9 14 -9 -15 -10 -15 -10 15 -9 14 -10 -7 -8 -8 -7 -9 14 -9
14 -8 -7 -7 -8 14 -10 15 -9 -15 -9 -14 -10 7 -8 8 -7 10 14 9 15 10 -15 10
-15 10 15 10 15 10 -15 10 -15 10 15 10 15 10 -15 10 -15 10 15 10 15 10 -15
10 -15 10 15 10 15 10 -15 10 -15 9 15 10 14 8 -7 7 -8 -14 -9 -14 -9 7 -8 8
-7 9 14 9 14 8 -7 7 -8 -14 -9 -14 -9 7 -8 8 -7 10 14 9 15 9 -15 10 -14 8 7
7 8 -14 9 -14 9 7 8 8 7 10 -14 9 -15 10 15 10 15 9 -15 10 -14 7 6 6 7 -27
27 -27 27 -8 -13 -8 -13 -17 16 -16 17 15 16 16 16 29 -31 29 -31 15 0 15 0 5
-12 4 -13 8 7 7 7 -36 35 -35 36 -13 0 -14 0 -14 20 -14 20 -18 0 -18 0 0 10
0 10 -40 0 -40 0 0 10 0 10 -26 0 -26 0 -28 30 -28 30 -16 0 -16 0 0 10 0 10
-40 0 -40 0 0 20 0 20 10 0 10 0 0 30 0 30 10 0 10 0 0 45 0 45 -65 65 -65 65
-5 0 -5 0 0 -20 0 -20 -40 0 -40 0 0 -10 0 -10 -20 0 -20 0 0 -10 0 -10 -20 0
-20 0 0 -10 0 -10 -10 0 -10 0 0 30 0 30 10 0 10 0 0 20 0 20 10 0 10 0 0 20
0 20 -17 -1 -18 -1 -72 -74z m87 46 l0 -10 -10 0 -10 0 0 -20 0 -20 -10 0 -10
0 0 -60 0 -60 -20 0 -20 0 0 10 0 10 -16 0 -15 0 -15 -14 -14 -15 0 -44 0 -45
13 -6 12 -6 -12 -6 -13 -6 0 -17 0 -17 -20 -14 -20 -14 0 -14 0 -13 -16 -16
-16 -16 -8 13 -8 13 -26 -26 -26 -26 0 -13 0 -14 -20 -14 -20 -14 0 -18 0 -18
-6 0 -5 0 -16 15 -15 16 21 18 21 18 0 17 0 16 10 0 10 0 0 20 0 20 10 0 10 0
0 20 0 20 10 0 10 0 0 20 0 20 10 0 10 0 0 18 0 18 20 14 20 14 0 16 0 16 20
14 20 14 0 18 0 18 10 0 10 0 0 15 0 15 63 64 62 64 8 1 7 1 0 -10z m206 -64
l14 -15 0 -15 0 -16 10 0 10 0 0 -40 0 -40 -10 0 -10 0 0 -16 0 -17 -22 -19
-22 -19 14 -10 15 -9 -15 -10 -15 -10 15 -9 14 -10 -24 -21 -24 -21 13 -9 14
-8 -27 -27 -26 -26 -15 15 -15 15 0 13 0 14 20 14 20 14 0 18 0 18 -8 0 -8 0
-14 -20 -14 -20 -36 0 -36 0 -14 -20 -14 -20 -24 0 -23 0 -15 14 -14 15 0 15
0 16 9 0 9 0 6 -12 6 -13 6 13 6 12 14 0 15 0 24 25 25 24 0 6 0 5 -60 0 -60
0 0 -10 0 -10 40 0 40 0 0 -10 0 -10 -40 0 -40 0 0 10 0 10 -10 0 -10 0 0 -35
0 -36 25 -24 24 -25 23 0 24 0 14 20 14 20 14 0 13 0 16 -15 15 -15 -31 -29
-31 -29 0 -26 0 -26 -10 0 -10 0 0 -50 0 -50 -10 0 -10 0 0 -25 0 -26 -37 -36
-37 -37 -4 12 -4 12 -19 0 -19 0 0 10 0 10 -20 0 -20 0 0 10 0 10 -26 0 -25 0
-15 14 -14 15 0 14 0 15 13 5 12 5 -15 11 -14 10 7 8 8 7 9 -13 8 -14 16 16
16 16 0 15 0 16 -10 0 -10 0 0 -10 0 -10 -20 0 -20 0 0 20 0 20 10 0 10 0 0
18 0 18 20 14 20 14 0 16 0 16 20 14 20 14 0 16 0 16 20 14 20 14 0 18 0 18
10 0 10 0 0 20 0 20 -10 0 -10 0 0 16 0 15 14 15 15 14 54 0 55 0 5 13 4 12 9
-9 9 -9 -12 -4 -13 -5 0 -9 0 -9 30 0 30 0 0 -10 0 -10 10 0 10 0 0 26 0 25
-14 15 -15 14 -35 0 -36 0 0 -10 0 -10 -10 0 -10 0 0 16 0 15 14 15 15 14 14
0 15 0 4 12 4 12 27 -26 27 -27 0 -16 0 -15 10 0 10 0 0 16 0 17 -21 18 -21
18 16 17 17 16 18 -21 18 -21 7 0 6 0 0 15 0 16 13 14 12 14 3 1 3 0 15 -14z
m74 -96 l0 -10 -10 0 -10 0 0 10 0 10 10 0 10 0 0 -10z m0 -36 l0 -5 -15 -16
-16 -15 -5 5 -6 6 13 15 14 15 8 1 7 0 0 -6z m-57 -66 l5 -13 11 15 10 14 7
-7 7 -7 -24 -20 -23 -21 13 -9 14 -8 -27 -27 -27 -27 -6 6 -6 6 24 20 23 21
-14 10 -15 9 15 11 15 11 -12 5 -13 5 0 9 0 9 9 0 9 0 5 -12z m123 -103 l16
-15 -41 -39 -41 -39 0 -16 0 -16 -10 0 -10 0 0 -40 0 -40 10 0 10 0 0 -15 0
-16 25 -24 24 -25 36 0 35 0 0 10 0 10 20 0 20 0 0 -30 0 -30 10 0 10 0 0 -20
0 -20 10 0 10 0 0 -26 0 -27 -22 -18 -21 -19 7 -7 7 -7 9 14 9 14 20 -23 20
-23 17 16 16 17 -22 19 -22 19 46 46 46 46 35 -35 35 -35 0 -6 0 -5 -15 0 -16
0 -26 -26 -25 -25 6 -7 7 -6 9 14 9 14 7 -6 6 -7 -15 -16 -16 -15 -14 0 -15 0
-4 12 -5 13 -16 -17 -17 -17 0 -11 0 -11 -25 -24 -24 -25 -11 0 -11 0 -16 16
-16 16 14 9 14 9 -15 10 -15 10 14 9 14 9 -16 16 -16 16 -11 0 -11 0 -15 -14
-14 -15 0 -15 0 -16 9 0 9 0 5 13 4 12 9 -9 9 -9 -12 -4 -13 -5 0 -24 0 -25
25 -24 24 -25 16 0 15 0 0 -10 0 -10 20 0 20 0 0 -30 0 -30 -166 0 -166 0 -38
40 -38 40 -6 0 -6 0 0 -29 0 -29 13 -5 12 -4 -8 -9 -8 -8 -10 14 -11 15 -5
-12 -5 -13 -9 0 -9 0 0 30 0 30 10 0 10 0 0 130 0 130 -10 0 -10 0 0 30 0 30
-6 0 -5 0 -16 -15 -15 -16 23 -20 23 -20 -14 -10 -15 -9 15 -9 14 -10 -7 -8
-8 -7 -9 13 -8 14 -18 -17 -17 -18 14 -8 13 -9 -7 -8 -8 -7 -9 14 -9 14 -20
-23 -20 -23 -42 43 -41 42 -8 -13 -8 -13 -47 47 -47 47 6 6 6 6 20 -24 21 -23
9 14 9 14 21 -24 21 -24 9 14 9 14 20 -23 20 -23 55 56 56 56 0 75 0 75 10 0
10 0 0 26 0 25 14 15 15 14 5 0 6 0 0 -20 0 -20 -10 0 -10 0 0 -30 0 -30 -10
0 -10 0 0 -20 0 -20 9 0 9 0 6 13 6 12 6 -12 6 -13 9 0 9 0 0 16 0 15 15 16
16 15 7 -6 6 -7 -14 -9 -14 -9 6 -7 7 -6 18 18 18 17 -13 5 -12 4 0 17 0 17
20 14 20 14 0 14 0 13 25 24 24 25 16 0 15 0 0 10 0 10 36 0 35 0 15 -15z
m-566 -63 l0 -18 -20 -14 -20 -14 0 -18 0 -18 -10 0 -10 0 0 -19 0 -19 -12 -5
-13 -5 15 -11 15 -11 -15 -11 -15 -11 13 -5 12 -5 0 -25 0 -24 -14 -15 -15
-14 -15 0 -16 0 0 8 0 8 20 14 20 14 0 17 0 17 -12 5 -13 5 15 11 15 11 -15
11 -15 11 13 5 12 5 0 19 0 19 10 0 10 0 0 18 0 18 20 14 20 14 0 18 0 18 10
0 10 0 0 -18z m343 -14 l5 -13 11 15 10 14 7 -6 6 -7 -15 -16 -16 -15 -15 0
-16 0 0 20 0 20 9 0 9 0 5 -12z m337 -8 l0 -20 10 0 10 0 0 10 0 10 30 0 30 0
0 -10 0 -10 30 0 30 0 0 -6 0 -7 -22 -18 -21 -19 23 -20 23 -20 -6 -7 -7 -6
-20 24 -21 23 -10 -14 -9 -15 -10 15 -10 15 -10 -15 -10 -15 -10 15 -10 15
-10 -15 -10 -15 -10 15 -10 15 -10 -15 -10 -15 -10 15 -10 15 -9 -15 -10 -14
-8 7 -7 8 14 10 15 9 -15 10 -15 10 15 10 15 10 -15 9 -14 10 7 8 8 7 9 -14 9
-15 18 22 18 23 18 0 17 0 0 -20z m-833 -75 l15 -16 -5 -6 -6 -5 -16 15 -15
16 0 5 0 6 6 0 5 0 16 -15z m1013 -35 l0 -10 -10 0 -10 0 0 10 0 10 10 0 10 0
0 -10z m-1017 -22 l5 -13 11 15 10 14 8 -8 8 -9 -12 -4 -13 -5 0 -15 0 -16
-22 -19 -22 -19 14 -10 15 -11 -12 -5 -13 -5 0 -29 0 -29 -15 0 -16 0 -25 25
-25 25 15 15 15 15 11 0 11 0 16 16 16 16 -14 8 -13 9 8 8 9 8 4 -12 5 -13 9
0 9 0 0 20 0 20 -10 0 -10 0 0 10 0 10 9 0 9 0 5 -12z m897 -58 l0 -10 30 0
30 0 0 -10 0 -10 -10 0 -10 0 0 -15 0 -16 -25 -25 -25 -25 -15 15 -15 15 0 15
0 16 -10 0 -10 0 0 30 0 30 30 0 30 0 0 -10z m40 -300 l28 -30 14 0 14 0 14
-20 14 -20 14 0 13 0 15 -14 14 -15 0 -5 0 -6 -40 0 -40 0 0 10 0 10 -20 0
-20 0 0 -10 0 -10 -30 0 -30 0 0 19 0 19 13 5 12 4 -22 20 -23 20 0 12 0 12
13 14 12 14 3 1 4 0 28 -30z"/>
<path d="M360 930 l0 -10 10 0 10 0 0 10 0 10 -10 0 -10 0 0 -10z"/>
<path d="M340 890 l0 -10 10 0 10 0 0 10 0 10 -10 0 -10 0 0 -10z"/>
<path d="M740 1164 l0 -15 -15 -16 -16 -15 -19 23 -20 22 -7 -6 -6 -7 21 -19
22 -18 0 -17 0 -16 -10 0 -10 0 0 -30 0 -30 6 0 5 0 15 14 14 15 0 13 0 14 20
14 20 14 0 38 0 38 -10 0 -10 0 0 -16z"/>
<path d="M620 630 l0 -50 10 0 10 0 0 -20 0 -20 19 0 19 0 6 13 6 12 6 -12 6
-13 9 0 9 0 0 20 0 20 -10 0 -10 0 0 50 0 50 -10 0 -10 0 0 -30 0 -30 -10 0
-10 0 0 16 0 15 -14 15 -15 14 -5 0 -6 0 0 -50z"/>
<path d="M507 498 l-38 -40 -19 22 -20 23 -6 -6 -6 -6 36 -36 36 -36 45 46 46
45 -15 15 -15 15 -3 -1 -3 0 -38 -41z m53 17 l0 -6 -36 -35 -35 -36 -6 5 -5 6
34 35 33 35 8 0 7 1 0 -5z"/>
<path d="M680 530 l0 -10 -20 0 -20 0 0 -10 0 -10 10 0 10 0 0 -89 0 -89 -12
-4 -12 -4 26 -27 27 -27 6 0 5 0 0 16 0 15 15 16 16 15 7 -7 7 -8 -12 -4 -13
-5 0 -39 0 -39 10 0 10 0 0 40 0 40 10 0 10 0 0 36 0 35 -15 16 -16 15 -18
-21 -18 -21 -7 0 -6 0 0 20 0 20 16 0 15 0 15 14 14 15 0 14 0 15 -12 6 -13 6
13 6 12 6 0 19 0 19 -10 0 -10 0 0 -10 0 -10 -10 0 -10 0 0 20 0 20 -10 0 -10
0 0 -10z m20 -100 l0 -10 -10 0 -10 0 0 10 0 10 10 0 10 0 0 -10z"/>
<path d="M360 514 l0 -5 15 -16 16 -15 6 5 5 6 -15 16 -16 15 -5 0 -6 0 0 -6z"/>
<path d="M1011 404 l-13 -15 7 -7 8 -7 4 13 5 12 9 0 9 0 0 -20 0 -20 -20 0
-20 0 0 -10 0 -10 16 0 15 0 15 14 14 15 0 11 0 11 -14 15 -15 14 -3 0 -3 -1
-14 -15z"/>
<path d="M980 791 l0 -9 12 -4 13 -5 -18 -18 -19 -18 -8 14 -9 13 -7 -6 -6 -7
17 -17 17 -17 9 14 9 14 9 -15 10 -14 20 23 21 24 20 -23 19 -22 16 16 16 16
-16 17 -17 16 -9 -14 -9 -14 -10 15 -10 15 -9 -15 -10 -14 -19 22 -19 22 -7 0
-6 0 0 -9z m40 -41 l0 -10 -10 0 -10 0 0 10 0 10 10 0 10 0 0 -10z m80 0 l0
-10 -10 0 -10 0 0 10 0 10 10 0 10 0 0 -10z"/>
<path d="M140 570 l0 -10 10 0 10 0 0 10 0 10 -10 0 -10 0 0 -10z"/>
<path d="M100 554 l0 -5 15 -16 16 -15 6 5 5 6 -15 16 -16 15 -5 0 -6 0 0 -6z"/>
<path d="M1080 304 l0 -15 14 -15 15 -14 15 0 16 0 0 -10 0 -10 -20 0 -20 0 0
-10 0 -10 16 0 15 0 15 15 15 15 -35 35 -35 35 -6 0 -5 0 0 -16z"/>
<path d="M860 710 l0 -10 10 0 10 0 0 10 0 10 -10 0 -10 0 0 -10z"/>
<path d="M900 670 l0 -10 10 0 10 0 0 10 0 10 -10 0 -10 0 0 -10z"/>
<path d="M1200 574 l0 -5 15 -16 16 -15 6 5 5 6 -15 16 -16 15 -5 0 -6 0 0 -6z"/>
</g>
</svg>
