<?xml version="1.0" standalone="no"?>
<!DOCTYPE svg PUBLIC "-//W3C//DTD SVG 20010904//EN"
 "http://www.w3.org/TR/2001/REC-SVG-20010904/DTD/svg10.dtd">
<svg version="1.0" xmlns="http://www.w3.org/2000/svg"
 width="468pt" height="468pt" viewBox="0 0 468 468"
 preserveAspectRatio="xMidYMid meet">
<metadata>
Created by potrace 1.8, written by Peter Selinger 2001-2007
</metadata>
<g transform="translate(0,468) scale(0.365625,-0.365625)"
fill="#000000" stroke="none">
<path d="M935 1270 l-6 -10 6 -10 6 -10 -58 0 -58 -1 -25 -31 -25 -31 -17 -16
-18 -15 0 -8 0 -8 25 0 25 0 0 -20 0 -20 10 0 10 0 0 -25 0 -25 20 0 20 0 0 9
0 10 -17 4 -18 5 18 1 17 1 0 10 0 10 -17 0 -16 0 4 5 5 4 37 -6 37 -6 0 -8 0
-9 -27 -1 -28 -1 18 -5 17 -4 0 -10 0 -9 -17 -1 -18 -1 33 -10 32 -11 0 -8 0
-9 15 0 15 0 0 9 0 9 -20 5 -20 5 1 19 1 18 5 -12 5 -13 14 0 14 0 0 10 0 11
-15 5 -15 6 0 14 0 14 -15 0 -15 0 0 10 0 10 10 0 10 0 0 16 0 15 -14 15 -15
14 -11 0 -10 0 -6 -30 -6 -30 -14 0 -13 0 -15 16 -16 15 0 4 0 3 18 -2 17 -1
-1 16 -1 16 16 -1 16 -1 -1 18 -2 17 3 0 3 0 41 -40 41 -40 1 -22 1 -23 5 16
4 15 95 0 94 -1 -6 -45 -7 -45 -8 -3 -9 -4 0 -28 0 -28 10 -4 11 -3 6 -94 6
-94 -12 7 -12 8 -12 -10 -12 -10 -43 3 -42 3 0 -16 0 -17 -10 15 -9 15 -14
-19 -14 -19 -11 7 -10 6 -16 -16 -16 -15 0 25 0 26 -9 0 -9 0 -7 40 -7 40 -8
0 -8 0 -6 25 -6 25 -59 0 -59 0 -6 -15 -5 -15 6 -30 6 -30 8 0 8 0 3 17 3 17
2 -65 2 -64 -101 1 -100 1 -8 12 -8 13 -5 -13 -5 -14 -11 15 -11 15 0 -15 0
-15 -9 14 -9 14 -62 2 -62 3 -8 12 -8 12 -5 -13 -5 -14 -9 11 -8 12 -13 -14
-13 -14 31 0 30 0 0 -10 0 -10 49 0 48 0 32 -6 31 -6 0 -9 0 -9 -20 0 -20 0 0
9 0 8 -87 6 -87 5 -4 11 -4 11 -34 0 -34 0 0 -10 0 -10 -15 0 -15 0 0 9 0 10
15 3 14 3 -10 15 -11 15 -5 -12 -5 -13 -14 14 -14 15 0 30 0 31 9 0 9 0 5 30
6 29 26 7 25 6 0 9 0 9 -11 0 -11 0 -31 -32 -32 -31 1 -70 0 -69 17 -10 17 -9
0 -9 0 -10 -10 0 -10 0 -22 22 -22 22 12 4 12 4 -14 14 -15 14 -10 0 -11 0 0
-11 0 -10 15 -15 14 -15 -6 -17 -7 -17 -12 -12 -13 -13 -10 0 -11 0 0 6 0 7
16 12 16 12 -6 20 -7 21 -15 6 -15 6 7 -12 7 -11 -16 -12 -17 -12 -2 -24 -3
-23 40 -3 39 -4 8 -12 7 -12 26 -2 25 -2 0 20 0 19 -10 0 -10 0 0 10 0 10 15
0 15 0 0 -15 0 -15 10 0 10 0 0 15 0 15 -11 0 -10 0 15 15 15 15 9 0 10 0 6
-15 5 -15 18 6 18 6 -15 -11 -15 -11 15 -10 15 -10 -11 0 -12 0 -6 -15 -5 -15
14 0 14 0 7 36 7 36 35 -5 34 -6 6 -6 6 -6 -14 -9 -15 -9 -3 14 -3 15 -10 0
-9 0 0 -14 0 -15 -13 -13 -13 -13 -7 -17 -6 -18 13 0 14 0 6 -12 6 -13 -6 23
-5 22 6 20 6 20 10 0 9 0 0 -14 0 -14 -12 -6 -13 -6 13 -6 12 -6 0 -14 0 -14
15 0 15 0 0 13 0 12 10 -15 9 -14 8 7 7 8 -11 7 -11 7 -2 15 -2 15 1 13 1 12
9 0 10 0 3 -27 3 -26 13 -5 13 -4 6 21 5 21 9 0 9 0 0 10 0 10 -10 0 -10 0 -6
-25 -6 -25 -9 0 -9 0 0 15 0 15 10 0 10 0 0 15 0 15 -10 0 -10 0 0 10 0 10 15
0 15 0 0 -9 0 -10 22 -7 21 -6 14 18 13 18 0 -27 0 -27 10 0 10 0 0 25 0 25
15 0 15 0 0 -10 0 -10 -12 0 -13 0 15 -10 15 -10 -15 -10 -15 -10 -12 0 -13 0
0 -15 0 -15 8 0 7 0 23 24 22 24 0 7 0 6 14 15 14 14 5 -13 5 -12 10 14 10 13
5 -13 5 -14 10 14 10 13 6 -13 6 -14 6 13 6 12 13 0 14 0 3 -17 3 -17 17 17
17 17 10 0 11 0 0 -9 0 -9 -12 -5 -13 -5 13 -1 12 -1 0 -15 0 -15 -37 5 -38 5
-3 10 -4 10 -14 0 -14 0 0 -10 0 -10 15 0 14 0 -5 -15 -6 -15 -10 0 -10 0 -30
30 -30 30 -4 0 -4 0 0 -5 0 -4 21 -20 21 -19 -7 -12 -8 -12 -39 6 -39 6 -5
-15 -6 -15 -13 0 -14 0 -6 20 -6 20 6 10 6 10 -16 -6 -15 -6 -6 -25 -6 -24
-29 -6 -29 -5 0 -9 0 -8 -12 -4 -13 -4 30 5 30 5 5 7 5 8 83 7 83 7 20 -21 20
-21 47 2 47 1 -44 4 -43 4 -21 20 -21 19 5 4 4 5 81 3 81 3 -4 13 -5 12 23 2
24 1 11 0 11 0 -4 18 -5 19 -9 0 -9 0 0 10 0 10 60 0 60 0 0 -10 0 -10 15 0
15 0 0 -21 0 -21 -19 5 -20 5 6 -14 5 -13 -36 -7 -36 -6 0 -9 0 -9 -25 0 -25
0 0 12 0 11 -7 -7 -8 -8 20 -14 20 -15 -15 -9 -15 -10 12 0 12 0 10 18 11 17
11 -15 11 -15 -6 18 -5 17 13 0 14 0 5 -20 5 -20 10 0 10 0 5 20 5 20 10 0 11
0 4 -17 5 -18 1 17 1 17 -17 17 -18 17 30 -6 30 -6 -12 5 -13 6 0 9 0 9 14 0
14 0 5 -12 4 -13 5 5 6 5 6 25 7 25 -10 -15 -10 -14 -6 6 -7 6 21 21 20 20 3
-8 3 -8 22 -7 21 -7 5 18 5 18 1 -18 1 -19 13 5 12 4 -1 16 -2 15 14 -5 14 -5
0 -10 0 -9 -14 -15 -15 -14 -10 0 -11 0 0 11 0 10 -15 -15 -15 -15 0 -9 0 -10
15 -6 15 -5 0 14 0 15 9 0 9 0 5 -12 5 -13 1 18 1 17 10 0 9 0 10 -18 11 -17
9 14 9 14 -5 14 -5 13 16 0 16 0 0 -11 0 -10 15 15 15 15 0 9 0 10 -15 6 -16
6 -16 -20 -17 -20 -8 0 -8 0 0 14 0 14 15 6 15 5 0 13 0 13 -10 -15 -9 -14 -8
7 -7 8 14 9 14 9 8 -5 8 -5 19 6 19 6 5 13 5 13 -26 -3 -27 -3 -17 5 -16 5 -6
14 -5 14 15 -6 14 -5 0 -10 0 -9 15 15 15 15 0 6 0 7 -15 -6 -14 -5 -16 15
-15 15 1 17 1 17 5 -18 5 -18 11 4 12 4 -1 16 -2 15 14 -5 14 -5 0 -8 0 -8
-15 -6 -15 -5 0 -12 0 -12 26 28 25 27 7 -7 7 -7 -18 -9 -17 -10 0 -9 0 -10
18 0 17 0 -15 -11 -15 -11 15 5 15 4 -3 20 -3 21 17 -2 17 -1 3 13 3 12 -6
-10 -5 -10 -9 0 -9 0 0 15 0 15 10 0 10 0 0 10 0 10 -54 0 -54 0 -5 -12 -5
-13 -1 32 -1 31 -12 4 -12 4 0 83 0 83 10 6 10 7 7 18 6 17 16 0 15 0 0 6 0 7
-49 48 -49 48 -48 3 -47 3 -4 15 -5 15 11 -15 10 -14 7 7 7 7 -5 6 -6 5 -35 5
-36 4 -6 -10z m-55 -130 l0 -20 -15 0 -15 0 0 20 0 20 15 0 15 0 0 -20z m-130
-275 l0 -15 -15 0 -15 0 0 15 0 15 15 0 15 0 0 -15z m40 0 l0 -15 -10 0 -10 0
0 15 0 15 10 0 10 0 0 -15z m55 -17 l8 -33 8 -5 8 -6 7 -42 7 -42 -16 0 -15 0
-7 65 -7 65 -9 0 -9 0 0 15 0 15 9 0 9 0 7 -32z m-55 -23 l0 -15 -10 0 -10 0
0 15 0 15 10 0 10 0 0 -15z m340 -79 l0 -23 -46 -7 -47 -6 -23 0 -24 0 0 14 0
14 31 6 32 6 23 0 24 0 0 10 0 10 15 0 15 0 0 -24z m-1040 -36 l0 -10 -21 -21
-21 -21 -6 7 -6 6 10 7 10 7 7 18 6 17 11 0 10 0 0 -10z m62 -12 l4 -11 -4
-29 -4 -28 -8 0 -8 0 -6 16 -6 16 6 24 6 24 8 0 8 0 4 -12z m650 -36 l-12 -4
0 -16 0 -17 -10 15 -9 14 12 8 12 7 -13 13 -12 12 0 8 0 8 22 -22 22 -22 -12
-4z m8 38 l0 -10 -10 0 -10 0 0 10 0 10 10 0 10 0 0 -10z m100 0 l0 -10 -45 0
-45 0 0 10 0 10 45 0 45 0 0 -10z m50 0 l0 -10 -10 0 -10 0 0 10 0 10 10 0 10
0 0 -10z m35 -21 l7 -10 -3 -4 -4 -3 -13 14 -13 14 10 0 10 0 6 -11z m-595 -4
l0 -5 -21 -21 -21 -21 -5 5 -5 5 19 20 18 20 8 1 7 1 0 -5z m90 -5 l0 -10 -10
0 -10 0 0 10 0 10 10 0 10 0 0 -10z m727 -12 l-5 -13 -1 19 -1 19 6 -6 6 -6
-5 -13z m-42 -37 l-4 -3 -10 7 -11 6 0 10 0 10 14 -13 14 -13 -3 -4z m-805
-17 l0 -16 -12 4 -12 4 -4 12 -4 12 16 0 16 0 0 -16z m350 6 l0 -10 -15 0 -15
0 0 10 0 10 15 0 15 0 0 -10z m-230 -30 l0 -10 -10 0 -10 0 0 10 0 10 10 0 10
0 0 -10z m448 -2 l-4 -12 -12 -4 -12 -4 0 16 0 16 16 0 16 0 -4 -12z"/>
<path d="M983 1075 l-13 -14 0 -46 0 -45 9 0 9 0 5 13 5 12 1 -12 1 -13 31 0
30 0 15 15 15 15 -10 0 -11 0 0 29 0 29 -6 16 -6 16 -32 0 -31 -1 -12 -14z
m37 -20 l0 -15 -15 0 -15 0 0 15 0 15 15 0 15 0 0 -15z m40 0 l0 -15 -15 0
-15 0 0 15 0 15 15 0 15 0 0 -15z m-40 -40 l0 -15 -15 0 -15 0 0 15 0 15 15 0
15 0 0 -15z m40 0 l0 -15 -15 0 -15 0 0 15 0 15 15 0 15 0 0 -15z"/>
<path d="M789 1033 l-2 -8 -2 -23 -2 -23 -5 -5 -6 -5 -38 -6 -39 -6 -6 -10 -6
-9 -104 0 -104 1 -3 10 -4 11 -94 0 -94 0 0 -9 0 -10 -17 -4 -18 -5 18 -1 17
-1 0 -16 0 -16 -16 6 -16 6 -5 -20 -5 -20 -9 0 -9 0 0 -15 0 -15 9 0 10 0 4
13 4 12 -4 -22 -3 -23 51 0 50 0 13 13 13 12 7 28 6 27 11 0 10 0 -14 14 -14
15 -44 4 -44 5 140 -4 140 -4 3 -10 4 -10 59 0 59 0 0 10 0 10 15 0 15 0 0
-10 0 -10 15 0 16 0 -2 13 -1 12 1 11 1 12 20 5 20 5 0 -13 0 -14 -17 -4 -18
-4 32 4 31 4 15 -16 16 -15 10 0 11 0 0 5 0 6 -24 22 -25 23 -6 27 -7 27 16 0
16 0 0 -9 0 -10 18 -4 17 -5 -17 -1 -18 -1 0 -15 0 -15 11 0 12 0 12 -16 12
-17 13 5 13 4 -17 16 -16 17 0 10 0 11 10 0 10 0 0 -10 0 -10 15 0 15 0 0 10
0 10 -14 0 -15 0 -13 14 -14 13 -24 7 -25 8 -17 4 -18 5 -1 -8z m-416 -139
l-5 -14 -13 0 -13 0 -6 13 -6 12 -6 -12 -6 -13 -19 0 -19 0 0 8 0 9 6 6 7 6
42 -1 43 -1 -5 -13z m-87 -24 l24 0 0 -15 0 -15 -25 0 -25 0 0 8 0 7 -4 20 -3
20 4 -12 4 -13 25 0z m64 -15 l0 -15 -15 0 -15 0 0 15 0 15 15 0 15 0 0 -15z"/>
<path d="M539 888 l-1 -13 2 -29 2 -29 13 -14 14 -13 55 0 56 0 0 30 0 30 -9
0 -9 0 -6 25 -6 25 -55 0 -55 0 -1 -12z m31 -25 l0 -18 -8 10 -7 10 -9 8 -9 7
16 0 17 0 0 -17z m50 2 l0 -15 -15 0 -15 0 0 15 0 15 15 0 15 0 0 -15z m35
-16 l7 -30 -6 -6 -6 -6 0 21 0 22 -10 0 -10 0 0 15 0 15 9 0 9 0 7 -31z m-65
-24 l0 -15 -15 0 -15 0 0 15 0 15 15 0 15 0 0 -15z m40 0 l0 -15 -15 0 -15 0
0 15 0 15 15 0 15 0 0 -15z"/>
<path d="M990 890 l0 -10 -31 0 -31 0 6 -32 6 -32 6 -5 6 -6 12 18 13 17 12 0
11 0 0 -15 0 -15 -20 0 -20 0 0 -10 0 -10 20 0 20 0 0 9 0 9 30 6 30 6 0 25 0
25 -10 0 -10 0 0 15 0 15 -25 0 -25 0 0 -10z m44 -32 l6 -23 0 -7 0 -8 -11 0
-11 0 6 15 5 15 -14 0 -15 0 0 15 0 15 14 0 14 0 6 -22z m-44 3 l0 -9 -16 -6
-16 -6 -9 0 -9 0 0 15 0 15 25 0 25 0 0 -9z"/>
<path d="M32 813 l-32 -4 0 -19 0 -19 15 5 15 6 0 -16 0 -16 14 0 14 0 6 16 6
16 0 4 0 3 -17 -6 -17 -7 14 16 15 16 8 -12 7 -11 10 15 10 15 0 -11 0 -12 13
-5 13 -5 0 19 0 19 -31 -2 -30 -1 -33 -4z"/>
<path d="M83 774 l-13 -13 0 -6 0 -5 9 0 9 0 6 16 6 17 -2 2 -3 3 -12 -14z"/>
<path d="M233 773 l-13 -5 0 -9 0 -9 36 0 36 0 -4 13 -5 12 -19 1 -19 1 -12
-4z"/>
<path d="M7 734 l5 -14 14 0 14 0 0 9 0 9 -19 5 -20 5 6 -14z"/>
<path d="M220 675 l0 -15 10 0 10 0 0 15 0 15 -10 0 -10 0 0 -15z"/>
<path d="M215 634 l-27 -25 7 -7 7 -7 9 18 10 17 13 0 14 0 6 15 5 15 -8 0 -8
0 -28 -26z"/>
<path d="M643 653 l-13 -5 0 -9 0 -9 9 0 9 0 6 15 5 15 -2 -1 -2 -1 -12 -5z"/>
<path d="M1035 611 l0 -46 19 -3 19 -4 -6 23 -7 24 0 21 0 22 -12 5 -13 4 0
-46z m25 -31 l0 -10 -10 0 -10 0 0 10 0 10 10 0 10 0 0 -10z"/>
<path d="M78 623 l13 -5 6 6 6 6 -19 -1 -19 -1 13 -5z"/>
<path d="M220 610 l0 -10 10 0 10 0 0 10 0 10 -10 0 -10 0 0 -10z"/>
<path d="M570 610 l0 -10 10 0 10 0 0 10 0 10 -10 0 -10 0 0 -10z"/>
<path d="M995 569 l-7 -21 6 -5 6 -6 0 16 0 17 10 0 10 0 0 10 0 10 -9 0 -10
0 -6 -21z"/>
<path d="M750 551 l0 -9 16 -6 16 -6 14 0 14 0 0 15 0 15 -30 0 -30 0 0 -9z"/>
<path d="M620 520 l0 -10 -310 0 -310 0 0 -255 0 -255 640 0 640 0 0 255 0
255 -315 0 -315 0 0 10 0 10 -15 0 -15 0 0 -10z"/>
</g>
</svg>
