<?xml version="1.0" standalone="no"?>
<!DOCTYPE svg PUBLIC "-//W3C//DTD SVG 20010904//EN"
 "http://www.w3.org/TR/2001/REC-SVG-20010904/DTD/svg10.dtd">
<svg version="1.0" xmlns="http://www.w3.org/2000/svg"
 width="468pt" height="468pt" viewBox="0 0 468 468"
 preserveAspectRatio="xMidYMid meet">
<metadata>
Created by potrace 1.8, written by Peter Selinger 2001-2007
</metadata>
<g transform="translate(0,468) scale(0.365625,-0.365625)"
fill="#000000" stroke="none">
<path d="M0 1255 l0 -25 25 0 25 0 0 25 0 25 -25 0 -25 0 0 -25z"/>
<path d="M210 1255 l0 -25 30 0 30 0 0 -30 0 -30 25 0 25 0 0 30 0 30 25 0 25
0 0 25 0 25 -25 0 -25 0 0 -25 0 -25 -25 0 -25 0 0 25 0 25 -30 0 -30 0 0 -25z"/>
<path d="M530 1255 l0 -25 30 0 30 0 0 -30 0 -30 25 0 25 0 0 30 0 30 25 0 25
0 0 25 0 25 -25 0 -25 0 0 -25 0 -25 -25 0 -25 0 0 25 0 25 -30 0 -30 0 0 -25z"/>
<path d="M850 1255 l0 -25 30 0 30 0 0 -30 0 -30 25 0 25 0 0 30 0 30 25 0 25
0 0 25 0 25 -25 0 -25 0 0 -25 0 -25 -25 0 -25 0 0 25 0 25 -30 0 -30 0 0 -25z"/>
<path d="M1170 1255 l0 -25 30 0 30 0 0 -30 0 -30 25 0 25 0 0 30 0 30 -25 0
-25 0 0 25 0 25 -30 0 -30 0 0 -25z"/>
<path d="M110 1200 l0 -30 -30 0 -30 0 0 -25 0 -25 -25 0 -25 0 0 -25 0 -25
25 0 25 0 0 -30 0 -30 30 0 30 0 0 -25 0 -25 25 0 25 0 0 25 0 25 25 0 25 0 0
30 0 30 30 0 30 0 0 25 0 25 -30 0 -30 0 0 25 0 25 -25 0 -25 0 0 30 0 30 -25
0 -25 0 0 -30z m50 -55 l0 -25 25 0 25 0 0 -25 0 -25 -25 0 -25 0 0 -30 0 -30
-25 0 -25 0 0 30 0 30 -30 0 -30 0 0 25 0 25 30 0 30 0 0 25 0 25 25 0 25 0 0
-25z"/>
<path d="M430 1200 l0 -30 -30 0 -30 0 0 -25 0 -25 -25 0 -25 0 0 -25 0 -25
25 0 25 0 0 -30 0 -30 30 0 30 0 0 -25 0 -25 25 0 25 0 0 25 0 25 25 0 25 0 0
30 0 30 30 0 30 0 0 25 0 25 -30 0 -30 0 0 25 0 25 -25 0 -25 0 0 30 0 30 -25
0 -25 0 0 -30z m50 -55 l0 -25 25 0 25 0 0 -25 0 -25 -25 0 -25 0 0 -30 0 -30
-25 0 -25 0 0 30 0 30 -30 0 -30 0 0 25 0 25 30 0 30 0 0 25 0 25 25 0 25 0 0
-25z"/>
<path d="M750 1200 l0 -30 -30 0 -30 0 0 -25 0 -25 -25 0 -25 0 0 -25 0 -25
25 0 25 0 0 -30 0 -30 30 0 30 0 0 -25 0 -25 25 0 25 0 0 25 0 25 25 0 25 0 0
30 0 30 30 0 30 0 0 25 0 25 -30 0 -30 0 0 25 0 25 -25 0 -25 0 0 30 0 30 -25
0 -25 0 0 -30z m50 -55 l0 -25 25 0 25 0 0 -25 0 -25 -25 0 -25 0 0 -30 0 -30
-25 0 -25 0 0 30 0 30 -30 0 -30 0 0 25 0 25 30 0 30 0 0 25 0 25 25 0 25 0 0
-25z"/>
<path d="M1070 1200 l0 -30 -30 0 -30 0 0 -25 0 -25 -25 0 -25 0 0 -25 0 -25
25 0 25 0 0 -30 0 -30 30 0 30 0 0 -25 0 -25 25 0 25 0 0 25 0 25 25 0 25 0 0
30 0 30 30 0 30 0 0 25 0 25 -30 0 -30 0 0 25 0 25 -25 0 -25 0 0 30 0 30 -25
0 -25 0 0 -30z m50 -55 l0 -25 25 0 25 0 0 -25 0 -25 -25 0 -25 0 0 -30 0 -30
-25 0 -25 0 0 30 0 30 -30 0 -30 0 0 25 0 25 30 0 30 0 0 25 0 25 25 0 25 0 0
-25z"/>
<path d="M270 985 l0 -25 -30 0 -30 0 0 -25 0 -25 30 0 30 0 0 -30 0 -30 25 0
25 0 0 30 0 30 25 0 25 0 0 25 0 25 -25 0 -25 0 0 25 0 25 -25 0 -25 0 0 -25z
m50 -50 l0 -25 -25 0 -25 0 0 25 0 25 25 0 25 0 0 -25z"/>
<path d="M590 985 l0 -25 -30 0 -30 0 0 -25 0 -25 30 0 30 0 0 -30 0 -30 25 0
25 0 0 30 0 30 25 0 25 0 0 25 0 25 -25 0 -25 0 0 25 0 25 -25 0 -25 0 0 -25z
m50 -50 l0 -25 -25 0 -25 0 0 25 0 25 25 0 25 0 0 -25z"/>
<path d="M910 985 l0 -25 -30 0 -30 0 0 -25 0 -25 30 0 30 0 0 -30 0 -30 25 0
25 0 0 30 0 30 25 0 25 0 0 25 0 25 -25 0 -25 0 0 25 0 25 -25 0 -25 0 0 -25z
m50 -50 l0 -25 -25 0 -25 0 0 25 0 25 25 0 25 0 0 -25z"/>
<path d="M1230 985 l0 -25 -30 0 -30 0 0 -25 0 -25 30 0 30 0 0 -30 0 -30 25
0 25 0 0 30 0 30 -25 0 -25 0 0 25 0 25 25 0 25 0 0 25 0 25 -25 0 -25 0 0
-25z"/>
<path d="M0 935 l0 -25 25 0 25 0 0 25 0 25 -25 0 -25 0 0 -25z"/>
<path d="M110 880 l0 -30 -30 0 -30 0 0 -25 0 -25 -25 0 -25 0 0 -25 0 -25 25
0 25 0 0 -30 0 -30 30 0 30 0 0 -25 0 -25 25 0 25 0 0 25 0 25 25 0 25 0 0 30
0 30 30 0 30 0 0 25 0 25 -30 0 -30 0 0 25 0 25 -25 0 -25 0 0 30 0 30 -25 0
-25 0 0 -30z m50 -55 l0 -25 25 0 25 0 0 -25 0 -25 -25 0 -25 0 0 -30 0 -30
-25 0 -25 0 0 30 0 30 -30 0 -30 0 0 25 0 25 30 0 30 0 0 25 0 25 25 0 25 0 0
-25z"/>
<path d="M430 880 l0 -30 -30 0 -30 0 0 -25 0 -25 -25 0 -25 0 0 -25 0 -25 25
0 25 0 0 -30 0 -30 30 0 30 0 0 -25 0 -25 25 0 25 0 0 25 0 25 25 0 25 0 0 30
0 30 30 0 30 0 0 25 0 25 -30 0 -30 0 0 25 0 25 -25 0 -25 0 0 30 0 30 -25 0
-25 0 0 -30z m50 -55 l0 -25 25 0 25 0 0 -25 0 -25 -25 0 -25 0 0 -30 0 -30
-25 0 -25 0 0 30 0 30 -30 0 -30 0 0 25 0 25 30 0 30 0 0 25 0 25 25 0 25 0 0
-25z"/>
<path d="M750 880 l0 -30 -30 0 -30 0 0 -25 0 -25 -25 0 -25 0 0 -25 0 -25 25
0 25 0 0 -30 0 -30 30 0 30 0 0 -25 0 -25 25 0 25 0 0 25 0 25 25 0 25 0 0 30
0 30 30 0 30 0 0 25 0 25 -30 0 -30 0 0 25 0 25 -25 0 -25 0 0 30 0 30 -25 0
-25 0 0 -30z m50 -55 l0 -25 25 0 25 0 0 -25 0 -25 -25 0 -25 0 0 -30 0 -30
-25 0 -25 0 0 30 0 30 -30 0 -30 0 0 25 0 25 30 0 30 0 0 25 0 25 25 0 25 0 0
-25z"/>
<path d="M1070 880 l0 -30 -30 0 -30 0 0 -25 0 -25 -25 0 -25 0 0 -25 0 -25
25 0 25 0 0 -30 0 -30 30 0 30 0 0 -25 0 -25 25 0 25 0 0 25 0 25 25 0 25 0 0
30 0 30 30 0 30 0 0 25 0 25 -30 0 -30 0 0 25 0 25 -25 0 -25 0 0 30 0 30 -25
0 -25 0 0 -30z m50 -55 l0 -25 25 0 25 0 0 -25 0 -25 -25 0 -25 0 0 -30 0 -30
-25 0 -25 0 0 30 0 30 -30 0 -30 0 0 25 0 25 30 0 30 0 0 25 0 25 25 0 25 0 0
-25z"/>
<path d="M270 665 l0 -25 -30 0 -30 0 0 -25 0 -25 30 0 30 0 0 -30 0 -30 25 0
25 0 0 30 0 30 25 0 25 0 0 25 0 25 -25 0 -25 0 0 25 0 25 -25 0 -25 0 0 -25z
m50 -50 l0 -25 -25 0 -25 0 0 25 0 25 25 0 25 0 0 -25z"/>
<path d="M590 665 l0 -25 -30 0 -30 0 0 -25 0 -25 30 0 30 0 0 -30 0 -30 25 0
25 0 0 30 0 30 25 0 25 0 0 25 0 25 -25 0 -25 0 0 25 0 25 -25 0 -25 0 0 -25z
m50 -50 l0 -25 -25 0 -25 0 0 25 0 25 25 0 25 0 0 -25z"/>
<path d="M910 665 l0 -25 -30 0 -30 0 0 -25 0 -25 30 0 30 0 0 -30 0 -30 25 0
25 0 0 30 0 30 25 0 25 0 0 25 0 25 -25 0 -25 0 0 25 0 25 -25 0 -25 0 0 -25z
m50 -50 l0 -25 -25 0 -25 0 0 25 0 25 25 0 25 0 0 -25z"/>
<path d="M1230 665 l0 -25 -30 0 -30 0 0 -25 0 -25 30 0 30 0 0 -30 0 -30 25
0 25 0 0 30 0 30 -25 0 -25 0 0 25 0 25 25 0 25 0 0 25 0 25 -25 0 -25 0 0
-25z"/>
<path d="M0 615 l0 -25 25 0 25 0 0 25 0 25 -25 0 -25 0 0 -25z"/>
<path d="M110 560 l0 -30 -30 0 -30 0 0 -25 0 -25 -25 0 -25 0 0 -25 0 -25 25
0 25 0 0 -30 0 -30 30 0 30 0 0 -25 0 -25 25 0 25 0 0 25 0 25 25 0 25 0 0 30
0 30 30 0 30 0 0 25 0 25 -30 0 -30 0 0 25 0 25 -25 0 -25 0 0 30 0 30 -25 0
-25 0 0 -30z m50 -55 l0 -25 25 0 25 0 0 -25 0 -25 -25 0 -25 0 0 -30 0 -30
-25 0 -25 0 0 30 0 30 -30 0 -30 0 0 25 0 25 30 0 30 0 0 25 0 25 25 0 25 0 0
-25z"/>
<path d="M430 560 l0 -30 -30 0 -30 0 0 -25 0 -25 -25 0 -25 0 0 -25 0 -25 25
0 25 0 0 -30 0 -30 30 0 30 0 0 -25 0 -25 25 0 25 0 0 25 0 25 25 0 25 0 0 30
0 30 30 0 30 0 0 25 0 25 -30 0 -30 0 0 25 0 25 -25 0 -25 0 0 30 0 30 -25 0
-25 0 0 -30z m50 -55 l0 -25 25 0 25 0 0 -25 0 -25 -25 0 -25 0 0 -30 0 -30
-25 0 -25 0 0 30 0 30 -30 0 -30 0 0 25 0 25 30 0 30 0 0 25 0 25 25 0 25 0 0
-25z"/>
<path d="M750 560 l0 -30 -30 0 -30 0 0 -25 0 -25 -25 0 -25 0 0 -25 0 -25 25
0 25 0 0 -30 0 -30 30 0 30 0 0 -25 0 -25 25 0 25 0 0 25 0 25 25 0 25 0 0 30
0 30 30 0 30 0 0 25 0 25 -30 0 -30 0 0 25 0 25 -25 0 -25 0 0 30 0 30 -25 0
-25 0 0 -30z m50 -55 l0 -25 25 0 25 0 0 -25 0 -25 -25 0 -25 0 0 -30 0 -30
-25 0 -25 0 0 30 0 30 -30 0 -30 0 0 25 0 25 30 0 30 0 0 25 0 25 25 0 25 0 0
-25z"/>
<path d="M1070 560 l0 -30 -30 0 -30 0 0 -25 0 -25 -25 0 -25 0 0 -25 0 -25
25 0 25 0 0 -30 0 -30 30 0 30 0 0 -25 0 -25 25 0 25 0 0 25 0 25 25 0 25 0 0
30 0 30 30 0 30 0 0 25 0 25 -30 0 -30 0 0 25 0 25 -25 0 -25 0 0 30 0 30 -25
0 -25 0 0 -30z m50 -55 l0 -25 25 0 25 0 0 -25 0 -25 -25 0 -25 0 0 -30 0 -30
-25 0 -25 0 0 30 0 30 -30 0 -30 0 0 25 0 25 30 0 30 0 0 25 0 25 25 0 25 0 0
-25z"/>
<path d="M270 345 l0 -25 -30 0 -30 0 0 -25 0 -25 30 0 30 0 0 -30 0 -30 25 0
25 0 0 30 0 30 25 0 25 0 0 25 0 25 -25 0 -25 0 0 25 0 25 -25 0 -25 0 0 -25z
m50 -50 l0 -25 -25 0 -25 0 0 25 0 25 25 0 25 0 0 -25z"/>
<path d="M590 345 l0 -25 -30 0 -30 0 0 -25 0 -25 30 0 30 0 0 -30 0 -30 25 0
25 0 0 30 0 30 25 0 25 0 0 25 0 25 -25 0 -25 0 0 25 0 25 -25 0 -25 0 0 -25z
m50 -50 l0 -25 -25 0 -25 0 0 25 0 25 25 0 25 0 0 -25z"/>
<path d="M910 345 l0 -25 -30 0 -30 0 0 -25 0 -25 30 0 30 0 0 -30 0 -30 25 0
25 0 0 30 0 30 25 0 25 0 0 25 0 25 -25 0 -25 0 0 25 0 25 -25 0 -25 0 0 -25z
m50 -50 l0 -25 -25 0 -25 0 0 25 0 25 25 0 25 0 0 -25z"/>
<path d="M1230 345 l0 -25 -30 0 -30 0 0 -25 0 -25 30 0 30 0 0 -30 0 -30 25
0 25 0 0 30 0 30 -25 0 -25 0 0 25 0 25 25 0 25 0 0 25 0 25 -25 0 -25 0 0
-25z"/>
<path d="M0 295 l0 -25 25 0 25 0 0 25 0 25 -25 0 -25 0 0 -25z"/>
<path d="M110 240 l0 -30 -30 0 -30 0 0 -25 0 -25 -25 0 -25 0 0 -25 0 -25 25
0 25 0 0 -30 0 -30 30 0 30 0 0 -25 0 -25 25 0 25 0 0 25 0 25 25 0 25 0 0 30
0 30 30 0 30 0 0 25 0 25 -30 0 -30 0 0 25 0 25 -25 0 -25 0 0 30 0 30 -25 0
-25 0 0 -30z m50 -55 l0 -25 25 0 25 0 0 -25 0 -25 -25 0 -25 0 0 -30 0 -30
-25 0 -25 0 0 30 0 30 -30 0 -30 0 0 25 0 25 30 0 30 0 0 25 0 25 25 0 25 0 0
-25z"/>
<path d="M430 240 l0 -30 -30 0 -30 0 0 -25 0 -25 -25 0 -25 0 0 -25 0 -25 25
0 25 0 0 -30 0 -30 30 0 30 0 0 -25 0 -25 25 0 25 0 0 25 0 25 25 0 25 0 0 30
0 30 30 0 30 0 0 25 0 25 -30 0 -30 0 0 25 0 25 -25 0 -25 0 0 30 0 30 -25 0
-25 0 0 -30z m50 -55 l0 -25 25 0 25 0 0 -25 0 -25 -25 0 -25 0 0 -30 0 -30
-25 0 -25 0 0 30 0 30 -30 0 -30 0 0 25 0 25 30 0 30 0 0 25 0 25 25 0 25 0 0
-25z"/>
<path d="M750 240 l0 -30 -30 0 -30 0 0 -25 0 -25 -25 0 -25 0 0 -25 0 -25 25
0 25 0 0 -30 0 -30 30 0 30 0 0 -25 0 -25 25 0 25 0 0 25 0 25 25 0 25 0 0 30
0 30 30 0 30 0 0 25 0 25 -30 0 -30 0 0 25 0 25 -25 0 -25 0 0 30 0 30 -25 0
-25 0 0 -30z m50 -55 l0 -25 25 0 25 0 0 -25 0 -25 -25 0 -25 0 0 -30 0 -30
-25 0 -25 0 0 30 0 30 -30 0 -30 0 0 25 0 25 30 0 30 0 0 25 0 25 25 0 25 0 0
-25z"/>
<path d="M1070 240 l0 -30 -30 0 -30 0 0 -25 0 -25 -25 0 -25 0 0 -25 0 -25
25 0 25 0 0 -30 0 -30 30 0 30 0 0 -25 0 -25 25 0 25 0 0 25 0 25 25 0 25 0 0
30 0 30 30 0 30 0 0 25 0 25 -30 0 -30 0 0 25 0 25 -25 0 -25 0 0 30 0 30 -25
0 -25 0 0 -30z m50 -55 l0 -25 25 0 25 0 0 -25 0 -25 -25 0 -25 0 0 -30 0 -30
-25 0 -25 0 0 30 0 30 -30 0 -30 0 0 25 0 25 30 0 30 0 0 25 0 25 25 0 25 0 0
-25z"/>
<path d="M270 25 l0 -25 25 0 25 0 0 25 0 25 -25 0 -25 0 0 -25z"/>
<path d="M590 25 l0 -25 25 0 25 0 0 25 0 25 -25 0 -25 0 0 -25z"/>
<path d="M910 25 l0 -25 25 0 25 0 0 25 0 25 -25 0 -25 0 0 -25z"/>
<path d="M1230 25 l0 -25 25 0 25 0 0 25 0 25 -25 0 -25 0 0 -25z"/>
</g>
</svg>
