<?xml version="1.0" standalone="no"?>
<!DOCTYPE svg PUBLIC "-//W3C//DTD SVG 20010904//EN"
 "http://www.w3.org/TR/2001/REC-SVG-20010904/DTD/svg10.dtd">
<svg version="1.0" xmlns="http://www.w3.org/2000/svg"
 width="468pt" height="468pt" viewBox="0 0 468 468"
 preserveAspectRatio="xMidYMid meet">
<metadata>
Created by potrace 1.8, written by Peter Selinger 2001-2007
</metadata>
<g transform="translate(0,468) scale(0.365625,-0.365625)"
fill="#000000" stroke="none">
<path d="M400 1170 l0 -10 -20 0 -20 0 0 -10 0 -10 -20 0 -20 0 0 -16 0 -15
-14 -15 -15 -14 -13 0 -14 0 -14 -20 -14 -20 -18 0 -18 0 0 -28 0 -28 -20 -14
-20 -14 0 -16 0 -16 -20 -14 -20 -14 0 -28 0 -28 -10 0 -10 0 0 -40 0 -40 -10
0 -10 0 0 -110 0 -110 10 0 10 0 0 -48 0 -48 20 -14 20 -14 0 -18 0 -18 10 0
10 0 0 -16 0 -16 30 -28 30 -28 0 -11 0 -12 25 -24 24 -25 12 0 11 0 28 -30
28 -30 16 0 16 0 0 -10 0 -10 20 0 20 0 0 -10 0 -10 20 0 20 0 0 -10 0 -10 30
0 30 0 0 -6 0 -6 -30 -28 -30 -28 0 -16 0 -16 46 0 46 0 38 40 38 40 32 0 32
0 28 -30 28 -30 16 0 16 0 0 -10 0 -10 20 0 20 0 0 10 0 10 -18 0 -18 0 -14
20 -14 20 -18 0 -18 0 0 10 0 10 20 0 20 0 0 -10 0 -10 26 0 26 0 29 -31 30
-32 7 8 7 8 -12 4 -13 5 0 19 0 19 -20 0 -20 0 0 10 0 10 -20 0 -20 0 0 10 0
10 30 0 30 0 0 10 0 10 20 0 20 0 0 10 0 10 20 0 20 0 0 10 0 10 16 0 16 0 28
30 28 30 11 0 12 0 34 35 35 34 0 13 0 14 20 14 20 14 0 18 0 18 10 0 10 0 0
20 0 20 10 0 10 0 0 20 0 20 10 0 10 0 0 40 0 40 10 0 10 0 0 120 0 120 -10 0
-10 0 0 30 0 30 -10 0 -10 0 0 20 0 20 -10 0 -10 0 0 20 0 20 -10 0 -10 0 0
16 0 16 -30 28 -30 28 0 11 0 12 -25 24 -24 25 -12 0 -11 0 -28 30 -28 30 -16
0 -16 0 0 10 0 10 -20 0 -20 0 0 10 0 10 -20 0 -20 0 0 -10 0 -10 20 0 20 0 0
-10 0 -10 -16 0 -17 0 -20 23 -20 22 -4 -12 -5 -13 -29 0 -29 0 0 -39 0 -39
13 -5 12 -4 -9 -9 -9 -9 -4 13 -5 12 -99 0 -99 0 0 -10 0 -10 -20 0 -20 0 0
20 0 20 10 0 10 0 0 30 0 30 -30 0 -30 0 0 10 0 10 -30 0 -30 0 0 -10z m40
-20 l0 -10 30 0 30 0 0 -10 0 -10 -10 0 -10 0 0 -20 0 -20 -30 0 -30 0 0 -10
0 -10 18 0 18 0 14 -20 14 -20 28 0 28 0 0 10 0 10 100 0 100 0 0 -10 0 -10
30 0 30 0 0 -10 0 -10 18 0 18 0 14 20 14 20 18 0 18 0 0 10 0 10 16 0 15 0
15 -14 14 -15 0 -15 0 -16 10 0 10 0 0 -10 0 -10 -20 0 -20 0 0 -20 0 -20 -6
0 -6 0 -28 30 -28 30 -16 0 -16 0 0 -6 0 -5 14 -15 15 -14 11 0 11 0 15 -14
14 -15 0 -15 0 -16 16 0 15 0 15 -14 14 -15 0 -15 0 -16 10 0 10 0 0 18 0 18
-20 14 -20 14 0 28 0 28 19 0 19 0 5 -12 4 -13 9 9 9 9 -12 4 -13 5 0 19 0 19
-10 0 -10 0 0 16 0 15 14 15 15 14 11 0 11 0 15 -14 14 -15 0 -25 0 -26 -10 0
-10 0 0 -40 0 -40 10 0 10 0 0 -10 0 -10 -20 0 -20 0 0 -20 0 -20 -10 0 -10 0
0 -20 0 -20 10 0 10 0 0 -19 0 -19 -12 -5 -13 -4 23 -20 22 -20 0 -77 0 -76
-10 0 -10 0 0 -18 0 -18 -20 -14 -20 -14 0 -33 0 -33 -55 -55 -55 -55 -15 0
-15 0 0 -10 0 -10 -20 0 -20 0 0 -10 0 -10 -19 0 -19 0 -5 13 -4 12 -20 -23
-20 -22 -77 0 -76 0 0 10 0 10 -30 0 -30 0 0 10 0 10 -20 0 -20 0 0 10 0 10
-15 0 -16 0 -34 35 -35 34 0 16 0 15 -20 0 -20 0 0 20 0 20 -10 0 -10 0 0 20
0 20 -10 0 -10 0 0 16 0 15 15 16 16 15 7 -6 6 -7 -13 -8 -14 -9 87 -86 86
-87 90 91 90 91 45 -46 46 -45 -51 -50 -51 -50 36 -36 36 -36 7 7 6 6 -14 10
-15 9 15 9 14 10 -7 8 -8 7 -9 -14 -9 -14 -8 7 -7 8 14 10 15 9 -15 9 -14 10
7 8 8 7 9 -14 9 -14 8 7 7 8 -14 9 -14 9 7 8 8 7 9 -14 9 -14 8 7 7 8 -14 9
-14 9 7 8 8 7 9 -14 9 -14 8 7 7 8 -14 10 -15 9 15 10 15 10 -15 10 -15 10 15
9 14 10 -7 8 -8 7 -9 -14 -9 -14 -8 7 -7 8 14 9 14 9 -7 8 -8 7 -9 -14 -9 -14
-8 7 -7 8 14 9 14 9 -7 8 -8 7 -9 -14 -9 -14 -8 7 -7 8 14 9 14 9 -7 8 -8 7
-10 -14 -9 -15 -10 15 -10 15 -10 -15 -10 -15 -9 15 -10 14 -8 -7 -7 -8 14 -9
14 -9 -7 -8 -8 -7 -9 14 -9 14 -8 -7 -7 -8 14 -9 14 -9 -7 -8 -8 -7 -9 14 -9
14 -8 -7 -7 -8 14 -9 14 -9 -7 -8 -8 -7 -9 14 -9 14 -8 -7 -7 -8 14 -9 14 -9
-7 -8 -8 -7 -9 14 -9 14 -8 -7 -7 -8 14 -9 14 -9 -7 -8 -8 -7 -9 14 -9 14 -8
-7 -7 -8 14 -9 14 -9 -7 -8 -8 -7 -9 14 -9 14 -8 -7 -7 -8 14 -9 14 -9 -7 -8
-8 -7 -10 14 -9 15 -9 -15 -10 -14 -8 7 -7 8 14 9 14 9 -7 8 -8 7 -9 -14 -9
-14 -8 7 -7 8 14 9 14 9 -7 8 -8 7 -9 -14 -9 -14 -8 7 -7 8 14 9 14 9 -7 8 -8
7 -9 -14 -9 -14 -8 7 -7 8 14 9 14 9 -7 8 -8 7 -9 -14 -9 -14 -8 7 -7 8 14 9
14 9 -7 8 -8 7 -9 -14 -9 -14 -8 7 -7 8 14 9 14 9 -7 8 -8 7 -9 -14 -9 -14 -8
7 -7 8 14 10 15 9 -15 9 -14 10 7 8 8 7 9 -14 9 -14 8 7 7 8 -14 9 -14 9 7 8
8 7 10 -14 9 -15 9 15 10 14 8 -7 7 -8 -14 -9 -14 -9 7 -8 8 -7 9 14 9 14 8
-7 7 -8 -14 -9 -14 -9 7 -8 8 -7 9 14 9 14 8 -7 7 -8 -14 -9 -14 -9 7 -8 8 -7
10 14 9 15 10 -15 10 -15 10 15 10 15 9 -15 10 -14 8 7 7 8 -14 9 -14 9 7 8 8
7 9 -14 9 -14 8 7 7 8 -14 9 -14 9 7 8 8 7 9 -14 9 -14 8 7 7 8 -14 9 -14 9 7
8 8 7 9 -14 9 -14 8 7 7 8 -14 10 -15 9 15 10 15 10 -15 10 -15 10 15 9 14 10
-7 8 -8 7 -9 -14 -9 -14 -8 7 -7 8 14 9 14 9 -7 8 -8 7 -9 -14 -9 -14 -8 7 -7
8 14 9 14 9 -7 8 -8 7 -9 -14 -9 -14 -8 7 -7 8 14 9 14 9 -7 8 -8 7 -9 -14 -9
-14 -8 7 -7 8 14 9 14 9 -7 8 -8 7 -9 -14 -9 -14 -8 7 -7 8 14 9 14 9 -7 8 -8
7 -9 -14 -9 -14 -8 7 -7 8 14 9 14 9 -7 8 -8 7 -9 -14 -9 -14 -8 7 -7 8 14 9
14 9 -7 8 -8 7 -9 -14 -9 -14 -8 7 -7 8 14 10 15 9 -15 9 -14 10 7 8 8 7 9
-14 9 -14 8 7 7 8 -14 9 -14 9 7 8 8 7 9 -14 9 -14 8 7 7 8 -14 9 -14 9 7 8 8
7 9 -14 9 -14 8 7 7 8 -14 9 -14 9 7 8 8 7 9 -14 9 -14 8 7 7 8 -14 9 -14 9 7
8 8 7 9 -14 9 -14 8 7 7 8 -14 9 -14 9 7 8 8 7 9 -14 9 -14 8 7 7 8 -14 9 -14
9 7 8 8 7 10 -14 9 -15 9 15 10 14 8 -7 7 -8 -14 -9 -14 -9 7 -8 8 -7 9 14 9
14 8 -7 7 -8 -14 -10 -15 -9 15 -9 14 -10 -7 -8 -8 -7 -9 14 -9 14 -8 -7 -7
-8 14 -9 14 -9 -7 -8 -8 -7 -9 14 -9 14 -8 -7 -7 -8 14 -9 14 -9 -7 -8 -8 -7
-9 14 -9 14 -8 -7 -7 -8 14 -10 15 -9 -15 -10 -15 -10 15 -10 15 -10 -15 -9
-14 -10 7 -8 8 -7 9 14 9 14 8 -7 7 -8 -14 -9 -14 -9 7 -8 8 -7 9 14 9 14 8
-7 7 -8 -14 -9 -14 -9 7 -8 8 -7 9 14 9 14 8 -7 7 -8 -14 -9 -14 -9 7 -8 8 -7
9 14 9 14 8 -7 7 -8 -14 -9 -14 -9 7 -8 8 -7 10 14 9 15 10 -15 10 -15 10 15
10 15 9 -15 10 -14 8 7 7 8 -14 9 -14 9 7 8 8 7 9 -14 9 -14 8 7 7 8 -14 9
-14 9 7 8 8 7 9 -14 9 -14 8 7 7 8 -14 9 -14 9 7 8 8 7 9 -14 9 -14 8 7 7 8
-14 9 -14 9 7 8 8 7 9 -14 9 -14 8 7 7 8 -14 9 -14 9 7 8 8 7 9 -14 9 -14 8 7
7 8 -14 9 -14 9 7 8 8 7 9 -14 9 -14 8 7 7 8 -14 9 -14 9 7 8 8 7 9 -14 9 -14
8 7 7 8 -14 9 -14 9 7 8 8 7 10 -14 9 -15 9 15 10 14 8 -7 7 -8 -14 -9 -14 -9
7 -8 8 -7 9 14 9 14 8 -7 7 -8 -14 -9 -14 -9 7 -8 8 -7 9 14 9 14 8 -7 7 -8
-14 -9 -14 -9 7 -8 8 -7 9 14 9 14 8 -7 7 -8 -14 -9 -14 -9 7 -8 8 -7 9 14 9
14 8 -7 7 -8 -14 -9 -14 -9 7 -8 8 -7 9 14 9 14 8 -7 7 -8 -14 -9 -14 -9 6 -7
7 -6 16 16 16 15 -76 76 -75 76 -100 -101 -100 -101 -55 56 -56 55 51 50 51
50 -45 45 -46 45 -95 -95 -95 -95 100 -100 101 -100 -46 -45 -45 -46 -50 51
-50 51 -39 -40 -39 -41 -16 0 -16 0 0 90 0 90 10 0 10 0 0 30 0 30 10 0 10 0
0 20 0 20 10 0 10 0 0 15 0 15 65 65 65 65 15 0 15 0 0 6 0 5 -14 15 -15 14
-15 0 -16 0 0 -20 0 -20 -20 0 -20 0 0 29 0 29 13 5 12 4 -7 8 -7 7 -16 -15
-15 -16 0 -15 0 -16 -30 0 -30 0 0 25 0 26 25 24 24 25 16 0 15 0 0 -10 0 -10
10 0 10 0 0 15 0 16 13 14 12 14 8 1 7 0 0 -10z m340 -20 l0 -10 20 0 20 0 0
-9 0 -9 -12 -5 -13 -4 23 -20 22 -20 0 -7 0 -6 -15 0 -16 0 -24 25 -25 24 0
26 0 25 10 0 10 0 0 -10z m143 -22 l5 -13 11 15 10 14 7 -6 6 -7 -15 -16 -16
-15 -15 0 -16 0 0 -10 0 -10 -20 0 -20 0 0 10 0 10 10 0 10 0 0 10 0 10 -20 0
-20 0 0 10 0 10 39 0 39 0 5 -12z m57 -38 l0 -10 -10 0 -10 0 0 10 0 10 10 0
10 0 0 -10z m-700 -90 l0 -60 -19 0 -19 0 -4 -12 -4 -12 -28 27 -27 28 30 28
31 29 0 16 0 16 20 0 20 0 0 -60z m86 6 l14 -15 0 -11 0 -11 -14 -15 -15 -14
-25 0 -26 0 0 40 0 40 26 0 25 0 15 -14z m194 4 l0 -10 -10 0 -10 0 0 10 0 10
10 0 10 0 0 -10z m535 -55 l25 -24 0 -16 0 -15 20 0 20 0 0 -20 0 -20 10 0 10
0 0 -20 0 -20 -30 0 -30 0 0 16 0 15 -14 15 -15 14 -15 0 -16 0 0 -10 0 -10
20 0 20 0 0 -20 0 -20 10 0 10 0 0 -40 0 -40 -26 0 -25 0 -15 14 -14 15 0 52
0 52 23 20 22 20 -12 4 -13 5 0 29 0 29 5 0 6 0 24 -25z m-475 -5 l0 -10 -10
0 -10 0 0 10 0 10 10 0 10 0 0 -10z m-420 -80 l0 -70 -10 0 -10 0 0 -19 0 -19
-12 -5 -13 -4 7 -8 7 -7 16 15 15 16 0 15 0 16 20 0 20 0 0 -70 0 -70 -10 0
-10 0 0 10 0 10 -30 0 -30 0 0 16 0 16 -32 31 -33 30 13 4 12 5 0 39 0 39 10
0 10 0 0 15 0 16 23 24 22 24 8 0 7 1 0 -70z m120 40 l0 -10 -10 0 -10 0 0
-20 0 -20 -10 0 -10 0 0 -20 0 -20 -30 0 -30 0 0 35 0 36 13 14 12 14 38 1 37
0 0 -10z m540 0 l0 -10 -10 0 -10 0 0 10 0 10 10 0 10 0 0 -10z m-460 -60 l0
-10 -10 0 -10 0 0 10 0 10 10 0 10 0 0 -10z m775 -75 l25 -24 0 -65 0 -64 -12
-5 -13 -5 14 -10 14 -10 -26 -26 -26 -26 -16 0 -15 0 0 16 0 15 16 16 16 16 8
-14 9 -13 8 8 8 9 -12 4 -13 5 0 49 0 49 -10 0 -10 0 0 50 0 50 5 0 6 0 24
-25z m-1049 -49 l14 -15 0 -15 0 -16 10 0 10 0 0 -66 0 -65 -14 -15 -15 -14
-5 0 -6 0 0 20 0 20 -10 0 -10 0 0 90 0 90 6 0 5 0 15 -14z m989 -31 l25 -24
0 -26 0 -25 -10 0 -10 0 0 -20 0 -20 -16 0 -15 0 -15 14 -14 15 0 55 0 56 15
0 16 0 24 -25z m-900 -60 l25 -24 0 -36 0 -35 -10 0 -10 0 0 -20 0 -20 -30 0
-30 0 0 20 0 20 10 0 10 0 0 60 0 60 5 0 6 0 24 -25z m165 -5 l0 -10 -10 0
-10 0 0 10 0 10 10 0 10 0 0 -10z m706 -64 l14 -15 0 -35 0 -36 -10 0 -10 0 0
-20 0 -20 -10 0 -10 0 0 -20 0 -20 -30 0 -30 0 0 40 0 40 10 0 10 0 0 20 0 20
10 0 10 0 0 15 0 16 13 14 12 14 3 1 3 0 15 -14z m94 -56 l0 -30 -10 0 -10 0
0 -20 0 -20 -10 0 -10 0 0 -20 0 -20 -30 0 -30 0 0 20 0 20 10 0 10 0 0 20 0
20 10 0 10 0 0 20 0 20 20 0 20 0 0 10 0 10 10 0 10 0 0 -30z m-900 -10 l0
-20 10 0 10 0 0 -50 0 -50 -29 0 -29 0 -5 13 -4 12 -20 -22 -20 -23 -7 0 -6 0
0 20 0 20 -10 0 -10 0 0 20 0 20 -10 0 -10 0 0 20 0 20 -10 0 -10 0 0 10 0 10
20 0 20 0 0 -10 0 -10 30 0 30 0 0 -16 0 -15 15 -16 16 -15 7 7 7 8 -12 4 -13
5 0 39 0 39 20 0 20 0 0 -20z m200 -90 l0 -10 -10 0 -10 0 0 10 0 10 10 0 10
0 0 -10z m506 -4 l14 -15 0 -11 0 -11 -25 -24 -24 -25 -26 0 -25 0 0 15 0 16
33 34 32 34 3 0 3 1 15 -14z m-608 -33 l26 -27 -12 -4 -12 -4 0 -9 0 -9 40 0
40 0 0 -10 0 -10 20 0 20 0 0 -10 0 -10 30 0 30 0 0 -6 0 -5 -14 -15 -15 -14
-15 0 -16 0 0 -10 0 -10 -15 0 -16 0 -24 25 -25 24 0 16 0 15 -10 0 -10 0 0
-10 0 -10 -20 0 -20 0 0 -10 0 -10 -19 0 -19 0 -6 -12 -6 -13 -6 13 -6 12 -15
0 -14 0 -15 14 -14 15 0 15 0 16 -10 0 -10 0 0 20 0 20 36 0 35 0 15 -14 14
-15 0 -11 0 -11 14 -15 15 -14 5 0 6 0 0 20 0 20 -10 0 -10 0 0 20 0 20 -10 0
-10 0 0 20 0 20 15 0 16 0 27 -27z m302 -3 l0 -10 -10 0 -10 0 0 10 0 10 10 0
10 0 0 -10z m420 0 l0 -10 -10 0 -10 0 0 -20 0 -20 -10 0 -10 0 0 -16 0 -15
-14 -15 -15 -14 -5 0 -6 0 0 20 0 20 -20 0 -20 0 0 -9 0 -9 12 -4 12 -4 -37
-37 -36 -37 -13 0 -14 0 -14 -20 -14 -20 -8 0 -8 0 0 60 0 60 20 0 20 0 0 10
0 10 36 0 35 0 15 14 14 15 0 11 0 11 13 14 12 14 38 1 37 0 0 -10z m-240 -60
l0 -10 -10 0 -10 0 0 -50 0 -50 -10 0 -10 0 0 -30 0 -30 -30 0 -30 0 0 -10 0
-10 -66 0 -66 0 -38 -40 -38 -40 -36 0 -36 0 0 6 0 5 14 15 15 14 15 0 16 0 0
10 0 10 18 0 18 0 14 20 14 20 14 0 13 0 24 25 25 24 0 16 0 15 50 0 50 0 0
-10 0 -10 20 0 20 0 0 10 0 10 -20 0 -20 0 0 10 0 10 -30 0 -30 0 0 6 0 5 14
15 15 14 25 0 26 0 0 10 0 10 20 0 20 0 0 10 0 10 10 0 10 0 0 -10z m-405 -95
l45 -44 0 -16 0 -15 -20 0 -20 0 0 10 0 10 -20 0 -20 0 0 10 0 10 -20 0 -20 0
0 20 0 20 -20 0 -20 0 0 10 0 10 20 0 20 0 0 10 0 10 15 0 16 0 44 -45z m180
20 l25 -24 0 -11 0 -11 -14 -15 -15 -14 -13 0 -14 0 -14 -20 -14 -20 -18 0
-18 0 0 20 0 20 -10 0 -10 0 0 26 0 25 14 15 15 14 15 0 16 0 0 10 0 10 15 0
16 0 24 -25z m45 15 l0 -10 -20 0 -20 0 0 10 0 10 20 0 20 0 0 -10z"/>
<path d="M492 884 l-53 -54 82 -81 82 -81 -14 -9 -14 -9 15 -10 15 -10 -15
-10 -15 -10 14 -9 14 -9 -48 -47 -47 -48 -9 14 -9 14 -10 -15 -10 -15 -10 15
-10 15 -9 -14 -9 -15 -32 34 -31 33 -5 -6 -6 -6 56 -56 56 -56 71 72 71 72 9
-14 9 -14 10 15 10 15 10 -15 10 -15 9 14 9 14 47 -48 48 -47 -14 -9 -14 -9
15 -10 15 -10 -15 -10 -15 -10 14 -9 15 -9 -34 -32 -34 -32 15 -9 14 -9 -15
-9 -14 -10 7 -8 8 -7 10 14 9 15 9 -14 9 -14 76 77 77 76 -91 90 -91 90 56 55
55 56 50 -51 50 -51 35 36 36 35 -16 17 -17 16 -8 -13 -8 -13 -61 62 -61 62
-81 -82 -81 -82 -9 14 -9 14 -10 -15 -10 -15 -10 15 -10 15 -9 -14 -9 -14 -57
58 -58 57 14 9 14 9 -15 10 -15 10 15 10 15 10 -14 9 -15 9 32 30 32 30 0 6 0
6 -7 -1 -8 0 -53 -55z m8 -33 l0 -9 -12 -5 -13 -5 15 -11 14 -10 -6 -7 -7 -6
-16 16 -16 16 13 14 13 15 8 1 7 0 0 -9z m412 -93 l60 -61 8 14 9 13 7 -6 6
-7 -26 -26 -26 -26 -50 51 -50 51 -65 -66 -66 -65 91 -90 91 -90 -66 -65 -66
-66 -15 16 -16 15 33 31 33 31 -15 9 -14 9 15 10 15 10 -15 10 -15 10 14 9 14
9 -58 57 -57 58 -9 -14 -9 -14 -10 15 -10 15 -9 -14 -9 -14 -18 17 -17 18 14
9 14 9 -14 9 -14 9 17 18 18 17 9 -14 9 -14 10 15 10 15 9 -14 9 -14 78 81 79
81 3 0 3 1 61 -62z m-449 -270 l5 -13 11 15 10 14 7 -6 6 -7 -16 -16 -16 -16
-15 15 -15 15 0 5 0 6 9 0 9 0 5 -12z"/>
<path d="M766 718 l-78 -81 -9 14 -9 14 -10 -15 -10 -15 -9 15 -10 14 -8 -7
-7 -8 14 -10 15 -9 -15 -9 -14 -10 7 -8 8 -7 10 14 9 15 10 -15 10 -15 9 14 9
14 67 -68 68 -67 -14 -9 -14 -9 15 -10 15 -10 -15 -10 -15 -10 14 -9 15 -9
-34 -32 -33 -31 6 -5 6 -6 56 56 56 56 -91 90 -91 90 76 75 75 76 51 -52 50
-51 5 5 6 6 -56 55 -56 56 -2 -1 -3 0 -79 -81z m-86 -88 l0 -10 -10 0 -10 0 0
10 0 10 10 0 10 0 0 -10z m166 -165 l15 -15 -16 -16 -16 -16 -7 6 -6 7 14 10
15 11 -12 5 -13 5 0 9 0 9 6 0 5 0 15 -15z"/>
</g>
</svg>
