<?xml version="1.0" standalone="no"?>
<!DOCTYPE svg PUBLIC "-//W3C//DTD SVG 20010904//EN"
 "http://www.w3.org/TR/2001/REC-SVG-20010904/DTD/svg10.dtd">
<svg version="1.0" xmlns="http://www.w3.org/2000/svg"
 width="468pt" height="468pt" viewBox="0 0 468 468"
 preserveAspectRatio="xMidYMid meet">
<metadata>
Created by potrace 1.8, written by Peter Selinger 2001-2007
</metadata>
<g transform="translate(0,468) scale(0.365625,-0.365625)"
fill="#000000" stroke="none">
<path d="M120 1220 l0 -20 -20 0 -20 0 0 -360 0 -360 20 0 20 0 0 -20 0 -20
-40 0 -40 0 0 -160 0 -160 -20 0 -20 0 0 -40 0 -40 640 0 640 0 0 40 0 40 -20
0 -20 0 0 160 0 160 -40 0 -40 0 0 20 0 20 20 0 20 0 0 360 0 360 -20 0 -20 0
0 20 0 20 -520 0 -520 0 0 -20z m1040 -380 l0 -360 -520 0 -520 0 0 360 0 360
520 0 520 0 0 -360z m40 -540 l0 -100 -20 0 -20 0 0 -20 0 -20 20 0 20 0 0
-20 0 -20 -20 0 -20 0 0 -20 0 -20 -20 0 -20 0 0 20 0 20 -20 0 -20 0 0 -20 0
-20 -20 0 -20 0 0 20 0 20 -20 0 -20 0 0 -20 0 -20 -20 0 -20 0 0 20 0 20 -20
0 -20 0 0 -20 0 -20 -20 0 -20 0 0 20 0 20 -20 0 -20 0 0 -20 0 -20 -20 0 -20
0 0 20 0 20 -20 0 -20 0 0 -20 0 -20 -20 0 -20 0 0 20 0 20 -20 0 -20 0 0 -20
0 -20 -20 0 -20 0 0 20 0 20 -20 0 -20 0 0 -20 0 -20 -20 0 -20 0 0 20 0 20
-20 0 -20 0 0 -20 0 -20 -20 0 -20 0 0 20 0 20 -20 0 -20 0 0 -20 0 -20 -20 0
-20 0 0 20 0 20 -20 0 -20 0 0 -20 0 -20 -20 0 -20 0 0 20 0 20 -20 0 -20 0 0
-20 0 -20 -20 0 -20 0 0 20 0 20 -20 0 -20 0 0 -20 0 -20 -20 0 -20 0 0 20 0
20 -20 0 -20 0 0 -20 0 -20 -20 0 -20 0 0 20 0 20 20 0 20 0 0 20 0 20 20 0
20 0 0 20 0 20 20 0 20 0 0 -20 0 -20 20 0 20 0 0 20 0 20 20 0 20 0 0 -20 0
-20 20 0 20 0 0 20 0 20 20 0 20 0 0 -20 0 -20 20 0 20 0 0 20 0 20 20 0 20 0
0 -20 0 -20 20 0 20 0 0 20 0 20 20 0 20 0 0 -20 0 -20 20 0 20 0 0 20 0 20
20 0 20 0 0 -20 0 -20 20 0 20 0 0 20 0 20 20 0 20 0 0 -20 0 -20 20 0 20 0 0
20 0 20 20 0 20 0 0 -20 0 -20 20 0 20 0 0 20 0 20 20 0 20 0 0 -20 0 -20 20
0 20 0 0 20 0 20 20 0 20 0 0 -20 0 -20 20 0 20 0 0 20 0 20 20 0 20 0 0 -20
0 -20 20 0 20 0 0 20 0 20 20 0 20 0 0 -20 0 -20 20 0 20 0 0 20 0 20 20 0 20
0 0 20 0 20 -520 0 -520 0 0 -20 0 -20 -20 0 -20 0 0 100 0 100 560 0 560 0 0
-100z"/>
<path d="M200 1140 l0 -20 -20 0 -20 0 0 -280 0 -280 20 0 20 0 0 -20 0 -20
440 0 440 0 0 20 0 20 20 0 20 0 0 280 0 280 -20 0 -20 0 0 20 0 20 -440 0
-440 0 0 -20z m480 -80 l0 -20 -240 0 -240 0 0 20 0 20 240 0 240 0 0 -20z
m-200 -80 l0 -20 -140 0 -140 0 0 20 0 20 140 0 140 0 0 -20z m-80 -80 l0 -20
-60 0 -60 0 0 20 0 20 60 0 60 0 0 -20z m200 0 l0 -20 -60 0 -60 0 0 20 0 20
60 0 60 0 0 -20z m200 0 l0 -20 -60 0 -60 0 0 20 0 20 60 0 60 0 0 -20z m200
0 l0 -20 -60 0 -60 0 0 20 0 20 60 0 60 0 0 -20z m-600 -80 l0 -20 -60 0 -60
0 0 20 0 20 60 0 60 0 0 -20z m200 0 l0 -20 -60 0 -60 0 0 20 0 20 60 0 60 0
0 -20z m200 0 l0 -20 -60 0 -60 0 0 20 0 20 60 0 60 0 0 -20z m200 0 l0 -20
-60 0 -60 0 0 20 0 20 60 0 60 0 0 -20z m-680 -80 l0 -20 -60 0 -60 0 0 20 0
20 60 0 60 0 0 -20z m80 0 l0 -20 -20 0 -20 0 0 20 0 20 20 0 20 0 0 -20z"/>
<path d="M880 300 l0 -20 140 0 140 0 0 20 0 20 -140 0 -140 0 0 -20z"/>
<path d="M160 140 l0 -20 20 0 20 0 0 20 0 20 -20 0 -20 0 0 -20z"/>
<path d="M240 140 l0 -20 20 0 20 0 0 20 0 20 -20 0 -20 0 0 -20z"/>
<path d="M320 140 l0 -20 20 0 20 0 0 20 0 20 -20 0 -20 0 0 -20z"/>
<path d="M400 140 l0 -20 20 0 20 0 0 20 0 20 -20 0 -20 0 0 -20z"/>
<path d="M480 140 l0 -20 20 0 20 0 0 20 0 20 -20 0 -20 0 0 -20z"/>
<path d="M560 140 l0 -20 20 0 20 0 0 20 0 20 -20 0 -20 0 0 -20z"/>
<path d="M640 140 l0 -20 20 0 20 0 0 20 0 20 -20 0 -20 0 0 -20z"/>
<path d="M720 140 l0 -20 20 0 20 0 0 20 0 20 -20 0 -20 0 0 -20z"/>
<path d="M800 140 l0 -20 20 0 20 0 0 20 0 20 -20 0 -20 0 0 -20z"/>
<path d="M880 140 l0 -20 20 0 20 0 0 20 0 20 -20 0 -20 0 0 -20z"/>
<path d="M960 140 l0 -20 20 0 20 0 0 20 0 20 -20 0 -20 0 0 -20z"/>
<path d="M1040 140 l0 -20 20 0 20 0 0 20 0 20 -20 0 -20 0 0 -20z"/>
<path d="M1120 140 l0 -20 20 0 20 0 0 20 0 20 -20 0 -20 0 0 -20z"/>
</g>
</svg>
