<?xml version="1.0" standalone="no"?>
<!DOCTYPE svg PUBLIC "-//W3C//DTD SVG 20010904//EN"
 "http://www.w3.org/TR/2001/REC-SVG-20010904/DTD/svg10.dtd">
<svg version="1.0" xmlns="http://www.w3.org/2000/svg"
 width="468pt" height="468pt" viewBox="0 0 468 468"
 preserveAspectRatio="xMidYMid meet">
<metadata>
Created by potrace 1.8, written by Peter Selinger 2001-2007
</metadata>
<g transform="translate(0,468) scale(0.365625,-0.365625)"
fill="#000000" stroke="none">
<path d="M590 1260 l-14 -20 -17 0 -17 0 -6 13 -6 12 -6 -12 -6 -13 -59 0 -59
0 0 -10 0 -10 -26 0 -25 0 -16 -15 -15 -16 7 -7 8 -7 4 13 5 12 19 0 19 0 0
-10 0 -10 -10 0 -10 0 0 -40 0 -40 -10 0 -10 0 0 -20 0 -20 -10 0 -10 0 0 -30
0 -30 10 0 10 0 0 -20 0 -20 20 0 20 0 0 -18 0 -18 20 -14 20 -14 0 -28 0 -28
20 0 20 0 0 -10 0 -10 40 0 40 0 0 -10 0 -10 20 0 20 0 0 -10 0 -10 20 0 20 0
0 -20 0 -20 19 0 19 0 5 -12 4 -13 8 7 8 8 -21 19 -22 18 0 27 0 26 -20 0 -20
0 0 30 0 30 -8 0 -8 0 -14 -20 -14 -20 -14 0 -13 0 -15 14 -14 15 0 31 0 31
14 15 15 14 34 0 35 0 5 13 4 12 32 -34 32 -34 7 8 7 8 -12 4 -13 5 0 15 0 15
30 28 30 28 0 11 0 12 26 26 26 26 8 -14 9 -13 8 7 7 8 -13 9 -14 8 17 18 18
17 8 -14 9 -13 7 6 6 7 -15 16 -16 15 -12 0 -12 0 -20 23 -20 22 -4 -12 -5
-13 -9 0 -9 0 0 30 0 30 -20 0 -20 0 0 -9 0 -9 13 -6 12 -6 -12 -6 -13 -6 0
-29 0 -29 -10 0 -10 0 0 10 0 10 -20 0 -20 0 0 10 0 10 -20 0 -20 0 0 6 0 5
14 15 15 14 13 0 14 0 14 20 14 20 36 0 36 0 14 -20 14 -20 18 0 18 0 0 -10 0
-10 20 0 20 0 0 16 0 15 -14 15 -15 14 -35 0 -36 0 0 10 0 10 -68 0 -68 0 -14
-20z"/>
<path d="M980 1170 l0 -10 10 0 10 0 0 10 0 10 -10 0 -10 0 0 -10z"/>
<path d="M1020 1150 l0 -10 10 0 10 0 0 10 0 10 -10 0 -10 0 0 -10z"/>
<path d="M1100 1074 l0 -5 15 -16 16 -15 6 5 5 6 -15 16 -16 15 -5 0 -6 0 0
-6z"/>
<path d="M1160 990 l0 -10 10 0 10 0 0 10 0 10 -10 0 -10 0 0 -10z"/>
<path d="M1180 920 l0 -40 10 0 10 0 0 -20 0 -20 10 0 10 0 0 -40 0 -40 10 0
10 0 0 -16 0 -15 15 -16 16 -15 7 7 7 8 -12 4 -13 5 0 49 0 49 -10 0 -10 0 0
30 0 30 -10 0 -10 0 0 26 0 25 -14 15 -15 14 -5 0 -6 0 0 -40z"/>
<path d="M700 870 l0 -10 10 0 10 0 0 10 0 10 -10 0 -10 0 0 -10z"/>
<path d="M740 850 l0 -10 30 0 30 0 0 10 0 10 -30 0 -30 0 0 -10z"/>
<path d="M750 760 l-14 -20 -18 0 -18 0 0 -10 0 -10 10 0 10 0 0 -18 0 -18
-20 -14 -20 -14 0 -48 0 -48 10 0 10 0 0 -20 0 -20 10 0 10 0 0 -16 0 -16 30
-28 30 -28 0 -46 0 -46 -10 0 -10 0 0 -30 0 -30 -10 0 -10 0 0 -30 0 -30 -10
0 -10 0 0 -20 0 -20 -10 0 -10 0 0 -30 0 -30 15 0 16 0 24 25 25 24 0 11 0 11
25 24 24 25 26 0 25 0 0 20 0 20 15 0 16 0 34 35 35 34 0 16 0 15 20 0 20 0 0
10 0 10 20 0 20 0 0 30 0 30 10 0 10 0 0 18 0 18 20 14 20 14 0 24 0 23 -14
15 -15 14 -15 0 -16 0 0 10 0 10 -16 0 -15 0 -15 14 -14 15 0 11 0 11 -14 15
-15 14 -21 0 -22 0 -28 30 -28 30 -46 0 -46 0 0 10 0 10 -8 0 -8 0 -14 -20z"/>
<path d="M660 30 l0 -10 -50 0 -50 0 0 -10 0 -10 66 0 65 0 15 14 14 15 0 5 0
6 -30 0 -30 0 0 -10z"/>
</g>
</svg>
