<?xml version="1.0" standalone="no"?>
<!DOCTYPE svg PUBLIC "-//W3C//DTD SVG 20010904//EN"
 "http://www.w3.org/TR/2001/REC-SVG-20010904/DTD/svg10.dtd">
<svg version="1.0" xmlns="http://www.w3.org/2000/svg"
 width="468pt" height="468pt" viewBox="0 0 468 468"
 preserveAspectRatio="xMidYMid meet">
<metadata>
Created by potrace 1.8, written by Peter Selinger 2001-2007
</metadata>
<g transform="translate(0,468) scale(0.365625,-0.365625)"
fill="#000000" stroke="none">
<path d="M540 1115 l0 -35 35 0 35 0 0 35 0 35 -35 0 -35 0 0 -35z"/>
<path d="M670 1115 l0 -35 35 0 35 0 0 35 0 35 -35 0 -35 0 0 -35z"/>
<path d="M740 975 l0 -35 35 0 35 0 0 -30 0 -30 35 0 35 0 0 30 0 30 -35 0
-35 0 0 35 0 35 -35 0 -35 0 0 -35z"/>
<path d="M400 910 l0 -30 35 0 35 0 0 30 0 30 -35 0 -35 0 0 -30z"/>
<path d="M1010 910 l0 -30 35 0 35 0 0 30 0 30 -35 0 -35 0 0 -30z"/>
<path d="M270 845 l0 -35 -35 0 -35 0 0 -35 0 -35 35 0 35 0 0 35 0 35 35 0
35 0 0 35 0 35 -35 0 -35 0 0 -35z"/>
<path d="M1010 705 l0 -35 35 0 35 0 0 35 0 35 -35 0 -35 0 0 -35z"/>
<path d="M200 575 l0 -35 35 0 35 0 0 -35 0 -35 35 0 35 0 0 35 0 35 -35 0
-35 0 0 35 0 35 -35 0 -35 0 0 -35z"/>
<path d="M1080 575 l0 -35 35 0 35 0 0 35 0 35 -35 0 -35 0 0 -35z"/>
<path d="M940 505 l0 -35 35 0 35 0 0 35 0 35 -35 0 -35 0 0 -35z"/>
<path d="M400 435 l0 -35 35 0 35 0 0 35 0 35 -35 0 -35 0 0 -35z"/>
<path d="M740 435 l0 -35 35 0 35 0 0 35 0 35 -35 0 -35 0 0 -35z"/>
<path d="M270 370 l0 -30 35 0 35 0 0 30 0 30 -35 0 -35 0 0 -30z"/>
<path d="M540 370 l0 -30 35 0 35 0 0 30 0 30 -35 0 -35 0 0 -30z"/>
<path d="M940 370 l0 -30 35 0 35 0 0 30 0 30 -35 0 -35 0 0 -30z"/>
<path d="M540 235 l0 -35 35 0 35 0 0 35 0 35 -35 0 -35 0 0 -35z"/>
<path d="M670 235 l0 -35 35 0 35 0 0 -35 0 -35 35 0 35 0 0 35 0 35 -35 0
-35 0 0 35 0 35 -35 0 -35 0 0 -35z"/>
<path d="M940 235 l0 -35 -30 0 -30 0 0 -35 0 -35 30 0 30 0 0 35 0 35 35 0
35 0 0 35 0 35 -35 0 -35 0 0 -35z"/>
<path d="M400 165 l0 -35 35 0 35 0 0 35 0 35 -35 0 -35 0 0 -35z"/>
</g>
</svg>
