<?xml version="1.0" standalone="no"?>
<!DOCTYPE svg PUBLIC "-//W3C//DTD SVG 20010904//EN"
 "http://www.w3.org/TR/2001/REC-SVG-20010904/DTD/svg10.dtd">
<svg version="1.0" xmlns="http://www.w3.org/2000/svg"
 width="468pt" height="468pt" viewBox="0 0 468 468"
 preserveAspectRatio="xMidYMid meet">
<metadata>
Created by potrace 1.8, written by Peter Selinger 2001-2007
</metadata>
<g transform="translate(0,468) scale(0.365625,-0.365625)"
fill="#000000" stroke="none">
<path d="M590 1105 l0 -15 10 0 10 0 0 15 0 15 -10 0 -10 0 0 -15z"/>
<path d="M640 1105 l0 -15 15 0 15 0 0 15 0 15 -15 0 -15 0 0 -15z"/>
<path d="M690 1105 l0 -15 15 0 15 0 0 15 0 15 -15 0 -15 0 0 -15z"/>
<path d="M750 1105 l0 -15 10 0 10 0 0 15 0 15 -10 0 -10 0 0 -15z"/>
<path d="M800 1105 l0 -15 15 0 15 0 0 15 0 15 -15 0 -15 0 0 -15z"/>
<path d="M850 1105 l0 -15 15 0 15 0 0 15 0 15 -15 0 -15 0 0 -15z"/>
<path d="M910 1105 l0 -15 10 0 10 0 0 15 0 15 -10 0 -10 0 0 -15z"/>
<path d="M960 1105 l0 -15 15 0 15 0 0 15 0 15 -15 0 -15 0 0 -15z"/>
<path d="M1010 1105 l0 -15 15 0 15 0 0 15 0 15 -15 0 -15 0 0 -15z"/>
<path d="M1070 1105 l0 -15 10 0 10 0 0 15 0 15 -10 0 -10 0 0 -15z"/>
<path d="M1120 1105 l0 -15 15 0 15 0 0 15 0 15 -15 0 -15 0 0 -15z"/>
<path d="M1170 1105 l0 -15 -10 0 -10 0 0 -465 0 -465 -270 0 -270 0 0 15 0
15 -10 0 -10 0 0 -26 0 -25 14 -15 15 -14 290 0 291 0 0 505 0 505 -15 0 -15
0 0 -15z"/>
<path d="M110 1080 l0 -10 -15 0 -15 0 0 -15 0 -15 -15 0 -15 0 0 -15 0 -15
-10 0 -10 0 0 -25 0 -25 -15 0 -15 0 0 -105 0 -105 15 0 15 0 0 -26 0 -25 14
-15 15 -14 10 0 11 0 0 -15 0 -15 15 0 15 0 0 -15 0 -15 200 0 200 0 0 15 0
15 10 0 10 0 0 25 0 25 -10 0 -10 0 0 15 0 15 10 0 10 0 0 -15 0 -15 15 0 15
0 0 15 0 15 15 0 15 0 0 -15 0 -15 10 0 10 0 0 15 0 15 55 0 55 0 0 -25 0 -25
15 0 15 0 0 25 0 25 25 0 25 0 0 25 0 25 -160 0 -160 0 0 15 0 15 -15 0 -15 0
0 -40 0 -40 15 0 15 0 0 -40 0 -40 -40 0 -40 0 0 25 0 25 -15 0 -15 0 0 160 0
160 15 0 15 0 0 15 0 15 40 0 40 0 0 -15 0 -15 25 0 25 0 0 -25 0 -25 15 0 15
0 0 25 0 25 -15 0 -15 0 0 26 0 25 -14 15 -15 14 -195 0 -196 0 0 -10z m240
-55 l0 -15 -15 0 -15 0 0 -10 0 -10 -80 0 -80 0 0 -15 0 -15 -25 0 -25 0 0
-15 0 -15 -15 0 -15 0 0 15 0 15 15 0 15 0 0 11 0 10 14 15 15 14 10 0 11 0 0
15 0 15 95 0 95 0 0 -15z m-270 -200 l0 -25 15 0 15 0 0 -11 0 -10 14 -15 15
-14 90 0 91 0 0 -15 0 -15 -95 0 -95 0 0 11 0 10 -14 15 -15 14 -10 0 -11 0 0
15 0 15 -15 0 -15 0 0 25 0 25 15 0 15 0 0 -25z m30 -90 l0 -15 -15 0 -15 0 0
15 0 15 15 0 15 0 0 -15z"/>
<path d="M590 1055 l0 -15 10 0 10 0 0 15 0 15 -10 0 -10 0 0 -15z"/>
<path d="M590 1000 l0 -10 10 0 10 0 0 10 0 10 -10 0 -10 0 0 -10z"/>
<path d="M750 975 l0 -15 10 0 10 0 0 15 0 15 -10 0 -10 0 0 -15z"/>
<path d="M990 960 l0 -30 10 0 10 0 0 -105 0 -105 -10 0 -10 0 0 -25 0 -25
-95 0 -95 0 0 10 0 10 -11 0 -10 0 -15 -14 -14 -15 0 -10 0 -11 120 0 120 0 0
15 0 15 10 0 10 0 0 25 0 25 15 0 15 0 0 105 0 105 -15 0 -15 0 0 30 0 30 -10
0 -10 0 0 -30z"/>
<path d="M450 905 l0 -55 15 0 15 0 0 -10 0 -10 15 0 15 0 0 -15 0 -15 25 0
25 0 0 40 0 40 15 0 15 0 0 -15 0 -15 10 0 10 0 0 15 0 15 40 0 40 0 0 -40 0
-40 15 0 15 0 0 40 0 40 25 0 25 0 0 -40 0 -40 30 0 30 0 0 80 0 80 -15 0 -15
0 0 -15 0 -15 -160 0 -160 0 0 15 0 15 -15 0 -15 0 0 -55z m80 -40 l0 -15 -10
0 -10 0 0 15 0 15 10 0 10 0 0 -15z"/>
<path d="M910 865 l0 -95 25 0 25 0 0 95 0 95 -25 0 -25 0 0 -95z"/>
<path d="M590 815 l0 -15 10 0 10 0 0 15 0 15 -10 0 -10 0 0 -15z"/>
<path d="M830 720 l0 -30 40 0 40 0 0 30 0 30 -40 0 -40 0 0 -30z"/>
<path d="M590 655 l0 -15 10 0 10 0 0 15 0 15 -10 0 -10 0 0 -15z"/>
<path d="M590 600 l0 -10 10 0 10 0 0 10 0 10 -10 0 -10 0 0 -10z"/>
<path d="M720 560 l0 -30 -15 0 -15 0 0 -105 0 -105 15 0 15 0 0 -25 0 -25 15
0 15 0 0 25 0 25 -15 0 -15 0 0 105 0 105 15 0 15 0 0 30 0 30 -15 0 -15 0 0
-30z"/>
<path d="M990 560 l0 -30 10 0 10 0 0 -105 0 -105 -10 0 -10 0 0 -25 0 -25
-95 0 -95 0 0 10 0 10 -11 0 -10 0 -15 -14 -14 -15 0 -10 0 -11 120 0 120 0 0
15 0 15 10 0 10 0 0 25 0 25 15 0 15 0 0 105 0 105 -15 0 -15 0 0 30 0 30 -10
0 -10 0 0 -30z"/>
<path d="M590 545 l0 -15 10 0 10 0 0 15 0 15 -10 0 -10 0 0 -15z"/>
<path d="M770 465 l0 -95 30 0 30 0 0 95 0 95 -30 0 -30 0 0 -95z"/>
<path d="M910 465 l0 -95 25 0 25 0 0 95 0 95 -25 0 -25 0 0 -95z"/>
<path d="M590 495 l0 -15 10 0 10 0 0 15 0 15 -10 0 -10 0 0 -15z"/>
<path d="M590 440 l0 -10 10 0 10 0 0 10 0 10 -10 0 -10 0 0 -10z"/>
<path d="M590 385 l0 -15 10 0 10 0 0 15 0 15 -10 0 -10 0 0 -15z"/>
<path d="M590 335 l0 -15 10 0 10 0 0 15 0 15 -10 0 -10 0 0 -15z"/>
<path d="M830 320 l0 -30 40 0 40 0 0 30 0 30 -40 0 -40 0 0 -30z"/>
<path d="M590 280 l0 -10 10 0 10 0 0 10 0 10 -10 0 -10 0 0 -10z"/>
<path d="M590 225 l0 -15 10 0 10 0 0 15 0 15 -10 0 -10 0 0 -15z"/>
</g>
</svg>
