<?xml version="1.0" standalone="no"?>
<!DOCTYPE svg PUBLIC "-//W3C//DTD SVG 20010904//EN"
 "http://www.w3.org/TR/2001/REC-SVG-20010904/DTD/svg10.dtd">
<svg version="1.0" xmlns="http://www.w3.org/2000/svg"
 width="468pt" height="468pt" viewBox="0 0 468 468"
 preserveAspectRatio="xMidYMid meet">
<metadata>
Created by potrace 1.8, written by Peter Selinger 2001-2007
</metadata>
<g transform="translate(0,468) scale(0.365625,-0.365625)"
fill="#000000" stroke="none">
<path d="M160 660 l0 -620 20 0 20 0 0 -20 0 -20 480 0 480 0 0 520 0 520 -20
0 -20 0 0 20 0 20 -20 0 -20 0 0 20 0 20 -20 0 -20 0 0 20 0 20 -20 0 -20 0 0
20 0 20 -20 0 -20 0 0 20 0 20 -20 0 -20 0 0 20 0 20 -380 0 -380 0 0 -620z
m720 460 l0 -120 100 0 100 0 0 -460 0 -460 -440 0 -440 0 0 580 0 580 340 0
340 0 0 -120z m80 60 l0 -20 20 0 20 0 0 -20 0 -20 20 0 20 0 0 -20 0 -20 20
0 20 0 0 -20 0 -20 -80 0 -80 0 0 80 0 80 20 0 20 0 0 -20z"/>
<path d="M240 1140 l0 -20 60 0 60 0 0 20 0 20 -60 0 -60 0 0 -20z"/>
<path d="M600 1140 l0 -20 60 0 60 0 0 20 0 20 -60 0 -60 0 0 -20z"/>
<path d="M280 1060 l0 -20 100 0 100 0 0 20 0 20 -100 0 -100 0 0 -20z"/>
<path d="M360 980 l0 -20 40 0 40 0 0 20 0 20 -40 0 -40 0 0 -20z"/>
<path d="M480 980 l0 -20 60 0 60 0 0 20 0 20 -60 0 -60 0 0 -20z"/>
<path d="M640 980 l0 -20 100 0 100 0 0 20 0 20 -100 0 -100 0 0 -20z"/>
<path d="M280 900 l0 -20 80 0 80 0 0 20 0 20 -80 0 -80 0 0 -20z"/>
<path d="M360 740 l0 -100 100 0 100 0 0 60 0 60 20 0 20 0 0 -60 0 -60 20 0
20 0 0 20 0 20 20 0 20 0 0 -20 0 -20 40 0 40 0 0 80 0 80 20 0 20 0 0 -80 0
-80 40 0 40 0 0 60 0 60 20 0 20 0 0 -60 0 -60 40 0 40 0 0 40 0 40 -20 0 -20
0 0 20 0 20 20 0 20 0 0 40 0 40 -60 0 -60 0 0 -40 0 -40 -20 0 -20 0 0 40 0
40 -40 0 -40 0 0 -20 0 -20 -20 0 -20 0 0 20 0 20 -60 0 -60 0 0 -20 0 -20
-20 0 -20 0 0 20 0 20 -20 0 -20 0 0 -20 0 -20 -20 0 -20 0 0 20 0 20 -60 0
-60 0 0 -100z m80 40 l0 -20 -20 0 -20 0 0 20 0 20 20 0 20 0 0 -20z m120 0
l0 -20 -20 0 -20 0 0 20 0 20 20 0 20 0 0 -20z m120 -20 l0 -40 20 0 20 0 0
-20 0 -20 -20 0 -20 0 0 20 0 20 -20 0 -20 0 0 40 0 40 20 0 20 0 0 -40z
m-200 -60 l0 -20 -20 0 -20 0 0 20 0 20 20 0 20 0 0 -20z"/>
<path d="M280 580 l0 -20 100 0 100 0 0 20 0 20 -100 0 -100 0 0 -20z"/>
<path d="M360 340 l0 -180 40 0 40 0 0 20 0 20 20 0 20 0 0 -20 0 -20 100 0
100 0 0 20 0 20 20 0 20 0 0 -20 0 -20 40 0 40 0 0 20 0 20 20 0 20 0 0 -20 0
-20 80 0 80 0 0 20 0 20 -20 0 -20 0 0 20 0 20 20 0 20 0 0 40 0 40 -20 0 -20
0 0 20 0 20 20 0 20 0 0 80 0 80 -20 0 -20 0 0 -20 0 -20 -20 0 -20 0 0 20 0
20 -60 0 -60 0 0 -20 0 -20 -20 0 -20 0 0 20 0 20 -60 0 -60 0 0 -20 0 -20
-20 0 -20 0 0 20 0 20 -60 0 -60 0 0 -20 0 -20 -20 0 -20 0 0 20 0 20 -40 0
-40 0 0 -180z m80 120 l0 -20 -20 0 -20 0 0 20 0 20 20 0 20 0 0 -20z m120 0
l0 -20 -20 0 -20 0 0 -20 0 -20 -20 0 -20 0 0 -40 0 -40 20 0 20 0 0 -20 0
-20 -20 0 -20 0 0 20 0 20 -20 0 -20 0 0 40 0 40 20 0 20 0 0 20 0 20 20 0 20
0 0 20 0 20 20 0 20 0 0 -20z m160 0 l0 -20 -20 0 -20 0 0 20 0 20 20 0 20 0
0 -20z m-80 -60 l0 -40 -20 0 -20 0 0 -20 0 -20 -20 0 -20 0 0 20 0 20 20 0
20 0 0 40 0 40 20 0 20 0 0 -40z m160 20 l0 -20 -20 0 -20 0 0 20 0 20 20 0
20 0 0 -20z m120 0 l0 -20 -20 0 -20 0 0 20 0 20 20 0 20 0 0 -20z m-160 -80
l0 -20 -20 0 -20 0 0 -40 0 -40 -20 0 -20 0 0 -20 0 -20 -20 0 -20 0 0 20 0
20 20 0 20 0 0 40 0 40 20 0 20 0 0 20 0 20 20 0 20 0 0 -20z m120 -40 l0 -60
20 0 20 0 0 -20 0 -20 -20 0 -20 0 0 20 0 20 -20 0 -20 0 0 60 0 60 20 0 20 0
0 -60z m-440 -40 l0 -20 -20 0 -20 0 0 20 0 20 20 0 20 0 0 -20z m160 0 l0
-20 -20 0 -20 0 0 20 0 20 20 0 20 0 0 -20z m-80 -40 l0 -20 -20 0 -20 0 0 20
0 20 20 0 20 0 0 -20z m280 0 l0 -20 -20 0 -20 0 0 20 0 20 20 0 20 0 0 -20z"/>
</g>
</svg>
