<?xml version="1.0" standalone="no"?>
<!DOCTYPE svg PUBLIC "-//W3C//DTD SVG 20010904//EN"
 "http://www.w3.org/TR/2001/REC-SVG-20010904/DTD/svg10.dtd">
<svg version="1.0" xmlns="http://www.w3.org/2000/svg"
 width="468pt" height="468pt" viewBox="0 0 468 468"
 preserveAspectRatio="xMidYMid meet">
<metadata>
Created by potrace 1.8, written by Peter Selinger 2001-2007
</metadata>
<g transform="translate(0,468) scale(0.365625,-0.365625)"
fill="#000000" stroke="none">
<path d="M0 1175 l0 -55 295 0 295 0 0 -25 0 -25 -30 0 -30 0 0 -30 0 -30 30
0 30 0 0 30 0 30 50 0 50 0 0 25 0 25 160 0 160 0 0 -25 0 -25 30 0 30 0 0
-160 0 -160 -30 0 -30 0 0 25 0 25 -25 0 -25 0 0 -80 0 -80 25 0 25 0 0 25 0
25 30 0 30 0 0 30 0 30 25 0 25 0 0 -55 0 -55 -25 0 -25 0 0 -105 0 -105 -30
0 -30 0 0 -30 0 -30 -80 0 -80 0 0 30 0 30 -25 0 -25 0 0 -30 0 -30 -185 0
-185 0 0 55 0 55 -55 0 -55 0 0 -25 0 -25 25 0 25 0 0 -30 0 -30 30 0 30 0 0
-25 0 -25 -55 0 -55 0 0 25 0 25 -160 0 -160 0 0 -25 0 -25 160 0 160 0 0 -25
0 -25 55 0 55 0 0 25 0 25 185 0 185 0 0 25 0 25 25 0 25 0 0 -25 0 -25 80 0
80 0 0 25 0 25 30 0 30 0 0 -50 0 -50 25 0 25 0 0 -55 0 -55 25 0 25 0 0 -25
0 -25 -25 0 -25 0 0 -30 0 -30 -105 0 -105 0 0 30 0 30 25 0 25 0 0 25 0 25
-25 0 -25 0 0 -25 0 -25 -30 0 -30 0 0 -30 0 -30 -105 0 -105 0 0 55 0 55 -25
0 -25 0 0 -25 0 -25 -30 0 -30 0 0 -30 0 -30 -105 0 -105 0 0 80 0 80 -25 0
-25 0 0 -25 0 -25 -30 0 -30 0 0 -25 0 -25 -25 0 -25 0 0 -30 0 -30 -80 0 -80
0 0 -25 0 -25 80 0 80 0 0 25 0 25 80 0 80 0 0 -25 0 -25 105 0 105 0 0 25 0
25 55 0 55 0 0 -25 0 -25 105 0 105 0 0 25 0 25 30 0 30 0 0 -25 0 -25 105 0
105 0 0 25 0 25 25 0 25 0 0 30 0 30 30 0 30 0 0 505 0 505 -30 0 -30 0 0 25
0 25 -25 0 -25 0 0 30 0 30 -560 0 -560 0 0 -55z m690 -30 l0 -25 -50 0 -50 0
0 25 0 25 50 0 50 0 0 -25z"/>
<path d="M270 1040 l0 -30 50 0 50 0 0 30 0 30 -50 0 -50 0 0 -30z"/>
<path d="M110 985 l0 -25 25 0 25 0 0 25 0 25 -25 0 -25 0 0 -25z"/>
<path d="M800 985 l0 -25 80 0 80 0 0 25 0 25 -80 0 -80 0 0 -25z"/>
<path d="M480 880 l0 -30 -25 0 -25 0 0 -25 0 -25 25 0 25 0 0 25 0 25 25 0
25 0 0 30 0 30 -25 0 -25 0 0 -30z"/>
<path d="M640 825 l0 -25 55 0 55 0 0 25 0 25 -55 0 -55 0 0 -25z"/>
<path d="M270 775 l0 -25 -30 0 -30 0 0 -30 0 -30 30 0 30 0 0 30 0 30 50 0
50 0 0 25 0 25 -50 0 -50 0 0 -25z"/>
<path d="M110 615 l0 -25 25 0 25 0 0 -30 0 -30 25 0 25 0 0 30 0 30 -25 0
-25 0 0 25 0 25 -25 0 -25 0 0 -25z"/>
<path d="M530 480 l0 -50 30 0 30 0 0 25 0 25 50 0 50 0 0 25 0 25 -80 0 -80
0 0 -50z"/>
</g>
</svg>
