<?xml version="1.0" standalone="no"?>
<!DOCTYPE svg PUBLIC "-//W3C//DTD SVG 20010904//EN"
 "http://www.w3.org/TR/2001/REC-SVG-20010904/DTD/svg10.dtd">
<svg version="1.0" xmlns="http://www.w3.org/2000/svg"
 width="468pt" height="468pt" viewBox="0 0 468 468"
 preserveAspectRatio="xMidYMid meet">
<metadata>
Created by potrace 1.8, written by Peter Selinger 2001-2007
</metadata>
<g transform="translate(0,468) scale(0.365625,-0.365625)"
fill="#000000" stroke="none">
<path d="M30 640 l0 -610 610 0 610 0 0 10 0 10 -10 0 -10 0 0 15 0 15 -15 0
-15 0 0 15 0 15 -11 0 -10 0 -15 14 -14 15 0 10 0 11 -15 0 -15 0 0 15 0 15
-11 0 -10 0 -15 14 -14 15 0 10 0 11 -15 0 -15 0 0 15 0 15 -11 0 -10 0 -15
14 -14 15 0 10 0 11 -15 0 -15 0 0 15 0 15 -11 0 -10 0 -15 14 -14 15 0 10 0
11 -15 0 -15 0 0 15 0 15 -11 0 -10 0 -15 14 -14 15 0 10 0 11 -15 0 -15 0 0
15 0 15 -11 0 -10 0 -15 14 -14 15 0 10 0 11 -15 0 -15 0 0 15 0 15 -11 0 -10
0 -15 14 -14 15 0 10 0 11 -15 0 -15 0 0 15 0 15 -11 0 -10 0 -15 14 -14 15 0
10 0 11 -15 0 -15 0 0 15 0 15 -11 0 -10 0 -15 14 -14 15 0 10 0 11 -15 0 -15
0 0 15 0 15 -11 0 -10 0 -15 14 -14 15 0 10 0 11 -15 0 -15 0 0 15 0 15 -11 0
-10 0 -15 14 -14 15 0 10 0 11 -15 0 -15 0 0 15 0 15 -11 0 -10 0 -15 14 -14
15 0 10 0 11 -15 0 -15 0 0 15 0 15 -11 0 -10 0 -15 14 -14 15 0 10 0 11 -15
0 -15 0 0 15 0 15 -11 0 -10 0 -15 14 -14 15 0 10 0 11 -15 0 -15 0 0 15 0 15
-15 0 -15 0 0 10 0 10 -10 0 -10 0 0 -610z m160 390 l0 -40 -30 0 -30 0 0 25
0 25 -10 0 -10 0 0 15 0 15 40 0 40 0 0 -40z m-80 -30 l0 -10 -15 0 -15 0 0
10 0 10 15 0 15 0 0 -10z m210 -190 l0 -120 -15 0 -15 0 0 15 0 15 -10 0 -10
0 0 15 0 15 -15 0 -15 0 0 10 0 10 -15 0 -15 0 0 15 0 15 -10 0 -10 0 0 15 0
15 -15 0 -15 0 0 10 0 10 -15 0 -15 0 0 15 0 15 -10 0 -10 0 0 15 0 15 -15 0
-15 0 0 10 0 10 120 0 120 0 0 -120z m-210 30 l0 -10 -15 0 -15 0 0 10 0 10
15 0 15 0 0 -10z m80 -120 l0 -50 -15 0 -15 0 0 25 0 25 -25 0 -25 0 0 15 0
15 -15 0 -15 0 0 10 0 10 55 0 55 0 0 -50z m290 10 l0 -40 -15 0 -15 0 0 15 0
15 -25 0 -25 0 0 25 0 25 40 0 40 0 0 -40z m160 -370 l0 -280 -15 0 -15 0 0
11 0 10 -14 15 -15 14 -10 0 -11 0 0 15 0 15 -15 0 -15 0 0 11 0 10 -14 15
-15 14 -10 0 -11 0 0 15 0 15 -15 0 -15 0 0 11 0 10 -14 15 -15 14 -10 0 -11
0 0 15 0 15 -15 0 -15 0 0 11 0 10 -14 15 -15 14 -10 0 -11 0 0 15 0 15 -15 0
-15 0 0 11 0 10 -14 15 -15 14 -10 0 -11 0 0 15 0 15 -15 0 -15 0 0 11 0 10
-14 15 -15 14 -10 0 -11 0 0 15 0 15 -15 0 -15 0 0 11 0 10 -14 15 -15 14 -10
0 -11 0 0 15 0 15 280 0 280 0 0 -280z m-530 185 l0 -15 -15 0 -15 0 0 15 0
15 15 0 15 0 0 -15z m80 -120 l0 -55 -15 0 -15 0 0 15 0 15 -15 0 -15 0 0 11
0 10 -14 15 -15 14 -10 0 -11 0 0 15 0 15 55 0 55 0 0 -55z m580 15 l0 -40
-10 0 -10 0 0 15 0 15 -15 0 -15 0 0 10 0 10 -15 0 -15 0 0 15 0 15 40 0 40 0
0 -40z m-660 -55 l0 -15 -15 0 -15 0 0 15 0 15 15 0 15 0 0 -15z m210 -185 l0
-120 -15 0 -15 0 0 11 0 10 -14 15 -15 14 -10 0 -11 0 0 15 0 15 -15 0 -15 0
0 25 0 25 -25 0 -25 0 0 15 0 15 -15 0 -15 0 0 11 0 10 -14 15 -15 14 -10 0
-11 0 0 15 0 15 120 0 120 0 0 -120z m610 0 l0 -120 -10 0 -10 0 0 15 0 15
-15 0 -15 0 0 10 0 10 -15 0 -15 0 0 15 0 15 -10 0 -10 0 0 15 0 15 -15 0 -15
0 0 10 0 10 -15 0 -15 0 0 15 0 15 -10 0 -10 0 0 15 0 15 -15 0 -15 0 0 10 0
10 -15 0 -15 0 0 15 0 15 120 0 120 0 0 -120z m-740 -65 l0 -55 -15 0 -15 0 0
15 0 15 -11 0 -10 0 -15 14 -14 15 0 10 0 11 -15 0 -15 0 0 15 0 15 55 0 55 0
0 -55z m290 0 l0 -55 -15 0 -15 0 0 11 0 10 -14 15 -15 14 -10 0 -11 0 0 15 0
15 -15 0 -15 0 0 15 0 15 55 0 55 0 0 -55z m290 0 l0 -55 -10 0 -10 0 0 15 0
15 -15 0 -15 0 0 10 0 10 -15 0 -15 0 0 15 0 15 -10 0 -10 0 0 15 0 15 50 0
50 0 0 -55z m300 15 l0 -40 -15 0 -15 0 0 10 0 10 -15 0 -15 0 0 15 0 15 -10
0 -10 0 0 15 0 15 40 0 40 0 0 -40z m-960 -55 l0 -15 -15 0 -15 0 0 15 0 15
15 0 15 0 0 -15z m130 0 l0 -15 -15 0 -15 0 0 15 0 15 15 0 15 0 0 -15z m160
0 l0 -15 -15 0 -15 0 0 15 0 15 15 0 15 0 0 -15z m160 0 l0 -15 -15 0 -15 0 0
15 0 15 15 0 15 0 0 -15z m290 0 l0 -15 -10 0 -10 0 0 15 0 15 10 0 10 0 0
-15z m160 0 l0 -15 -10 0 -10 0 0 15 0 15 10 0 10 0 0 -15z m140 0 l0 -15 -15
0 -15 0 0 15 0 15 15 0 15 0 0 -15z"/>
</g>
</svg>
