<?xml version="1.0" standalone="no"?>
<!DOCTYPE svg PUBLIC "-//W3C//DTD SVG 20010904//EN"
 "http://www.w3.org/TR/2001/REC-SVG-20010904/DTD/svg10.dtd">
<svg version="1.0" xmlns="http://www.w3.org/2000/svg"
 width="468pt" height="468pt" viewBox="0 0 468 468"
 preserveAspectRatio="xMidYMid meet">
<metadata>
Created by potrace 1.8, written by Peter Selinger 2001-2007
</metadata>
<g transform="translate(0,468) scale(0.365625,-0.365625)"
fill="#000000" stroke="none">
<path d="M30 774 l0 -475 14 -15 15 -14 10 0 11 0 0 -15 0 -15 15 0 15 0 0
-15 0 -15 25 0 25 0 0 -25 0 -25 15 0 15 0 0 -11 0 -10 14 -15 15 -14 10 0 11
0 0 -15 0 -15 15 0 15 0 0 -11 0 -10 14 -15 15 -14 50 0 51 0 0 10 0 10 15 0
15 0 0 -10 0 -10 120 0 120 0 0 10 0 10 120 0 120 0 0 -10 0 -10 79 0 79 0 6
13 6 12 6 -12 6 -13 79 0 79 0 0 50 0 50 -10 0 -10 0 0 15 0 15 10 0 10 0 0
280 0 280 -10 0 -10 0 0 15 0 15 10 0 10 0 0 156 0 155 -14 15 -15 14 -10 0
-11 0 0 -10 0 -10 -11 0 -10 0 -15 14 -14 15 0 10 0 11 10 0 10 0 0 15 0 15
-80 0 -80 0 0 25 0 25 -10 0 -10 0 0 15 0 15 -15 0 -15 0 0 10 0 10 -120 0
-120 0 0 -145 0 -145 -15 0 -15 0 0 40 0 40 -40 0 -40 0 0 -15 0 -15 -10 0
-10 0 0 -25 0 -25 -15 0 -15 0 0 55 0 55 -14 0 -14 0 -6 13 -6 12 -6 -12 -6
-13 -14 0 -14 0 0 10 0 10 -15 0 -15 0 0 15 0 15 15 0 15 0 0 -15 0 -15 15 0
15 0 0 15 0 15 -15 0 -15 0 0 15 0 15 -80 0 -80 0 0 25 0 25 -15 0 -15 0 0 11
0 10 -14 15 -15 14 -115 0 -116 0 0 -476z m80 441 l0 -15 -15 0 -15 0 0 15 0
15 15 0 15 0 0 -15z m100 0 l0 -15 -40 0 -40 0 0 15 0 15 40 0 40 0 0 -15z
m60 0 l0 -15 -15 0 -15 0 0 15 0 15 15 0 15 0 0 -15z m530 0 l0 -15 -15 0 -15
0 0 15 0 15 15 0 15 0 0 -15z m110 0 l0 -15 -40 0 -40 0 0 15 0 15 40 0 40 0
0 -15z m50 0 l0 -15 -15 0 -15 0 0 15 0 15 15 0 15 0 0 -15z m-670 -55 l0 -10
-40 0 -40 0 0 -135 0 -135 -40 0 -40 0 0 105 0 105 -10 0 -10 0 0 15 0 15 10
0 10 0 0 25 0 25 80 0 80 0 0 -10z m700 0 l0 -10 -40 0 -40 0 0 -70 0 -70 -30
0 -30 0 0 -65 0 -65 -10 0 -10 0 0 94 0 94 13 6 12 6 -12 6 -13 6 0 39 0 39
80 0 80 0 0 -10z m-700 -55 l0 -15 15 0 15 0 0 -10 0 -10 -11 0 -10 0 -15 14
-14 15 0 10 0 11 10 0 10 0 0 -15z m700 1 l0 -14 13 -5 12 -4 -9 -9 -9 -9 -4
13 -5 12 -14 0 -14 0 0 15 0 15 15 0 15 0 0 -14z m-560 -26 l0 -10 -40 0 -40
0 0 10 0 10 40 0 40 0 0 -10z m400 0 l0 -10 -15 0 -15 0 0 10 0 10 15 0 15 0
0 -10z m290 0 l0 -10 -40 0 -40 0 0 10 0 10 40 0 40 0 0 -10z m-590 -225 l0
-185 55 0 55 0 0 10 0 10 -15 0 -15 0 0 30 0 30 30 0 30 0 0 -40 0 -40 50 0
50 0 0 10 0 10 -10 0 -10 0 0 30 0 30 25 0 25 0 0 -40 0 -40 55 0 55 0 0 10 0
10 -15 0 -15 0 0 30 0 30 25 0 25 0 0 -40 0 -40 40 0 40 0 0 50 0 50 -10 0
-10 0 0 15 0 15 10 0 10 0 0 120 0 120 110 0 110 0 0 -25 0 -25 -15 0 -15 0 0
-15 0 -15 15 0 15 0 0 -105 0 -105 -15 0 -15 0 0 -15 0 -15 15 0 15 0 0 -120
0 -120 -15 0 -15 0 0 -15 0 -15 15 0 15 0 0 -145 0 -145 -15 0 -15 0 0 -15 0
-15 15 0 15 0 0 -40 0 -40 -55 0 -55 0 0 15 0 15 -25 0 -25 0 0 -15 0 -15 -30
0 -30 0 0 15 0 15 -10 0 -10 0 0 -15 0 -15 -30 0 -30 0 0 95 0 95 -10 0 -10 0
0 15 0 15 10 0 10 0 0 40 0 40 -145 0 -145 0 0 -55 0 -55 -15 0 -15 0 0 -15 0
-15 15 0 15 0 0 -80 0 -80 -105 0 -105 0 0 15 0 15 -15 0 -15 0 0 -15 0 -15
-40 0 -40 0 0 40 0 40 15 0 15 0 0 15 0 15 -15 0 -15 0 0 40 0 40 -15 0 -15 0
0 15 0 15 15 0 15 0 0 105 0 105 -15 0 -15 0 0 15 0 15 15 0 15 0 0 90 0 90
15 0 15 0 0 15 0 15 -15 0 -15 0 0 65 0 65 -15 0 -15 0 0 15 0 15 15 0 15 0 0
40 0 40 15 0 15 0 0 15 0 15 -15 0 -15 0 0 25 0 25 105 0 105 0 0 -185z m140
115 l0 -40 36 0 35 0 15 -14 14 -15 0 -10 0 -11 15 0 15 0 0 -15 0 -15 55 0
55 0 0 -40 0 -40 -30 0 -30 0 0 -40 0 -40 -10 0 -10 0 0 40 0 40 -40 0 -40 0
0 -10 0 -10 -15 0 -15 0 0 -30 0 -30 -15 0 -15 0 0 40 0 40 -50 0 -50 0 0 -40
0 -40 -15 0 -15 0 0 120 0 120 40 0 40 0 0 15 0 15 -15 0 -15 0 0 25 0 25 30
0 30 0 0 -40z m240 -35 l0 -55 -15 0 -15 0 0 55 0 55 15 0 15 0 0 -55z m-700
-110 l0 -25 -10 0 -10 0 0 15 0 15 -15 0 -15 0 0 10 0 10 25 0 25 0 0 -25z
m670 -520 l0 -15 -15 0 -15 0 0 -10 0 -10 15 0 15 0 0 -15 0 -15 -15 0 -15 0
0 -15 0 -15 15 0 15 0 0 -10 0 -10 -15 0 -15 0 0 -15 0 -15 15 0 15 0 0 -15 0
-15 -15 0 -15 0 0 -10 0 -10 15 0 15 0 0 -15 0 -15 -105 0 -105 0 0 120 0 120
105 0 105 0 0 -15z"/>
<path d="M130 1105 l0 -15 15 0 15 0 0 15 0 15 -15 0 -15 0 0 -15z"/>
<path d="M400 945 l0 -15 -15 0 -15 0 0 -50 0 -50 55 0 55 0 0 50 0 50 -15 0
-15 0 0 15 0 15 -25 0 -25 0 0 -15z m50 -55 l0 -40 -25 0 -25 0 0 40 0 40 25
0 25 0 0 -40z"/>
<path d="M1090 945 l0 -15 -10 0 -10 0 0 -50 0 -50 50 0 50 0 0 50 0 50 -10 0
-10 0 0 15 0 15 -30 0 -30 0 0 -15z m60 -55 l0 -40 -30 0 -30 0 0 40 0 40 30
0 30 0 0 -40z"/>
<path d="M320 865 l0 -15 15 0 15 0 0 15 0 15 -15 0 -15 0 0 -15z"/>
<path d="M1010 785 l0 -15 15 0 15 0 0 15 0 15 -15 0 -15 0 0 -15z"/>
<path d="M400 705 l0 -15 -15 0 -15 0 0 -65 0 -65 55 0 55 0 0 65 0 65 -15 0
-15 0 0 15 0 15 -25 0 -25 0 0 -15z m50 -65 l0 -50 -25 0 -25 0 0 50 0 50 25
0 25 0 0 -50z"/>
<path d="M1090 705 l0 -15 -10 0 -10 0 0 -65 0 -65 50 0 50 0 0 65 0 65 -10 0
-10 0 0 15 0 15 -30 0 -30 0 0 -15z m60 -65 l0 -50 -30 0 -30 0 0 50 0 50 30
0 30 0 0 -50z"/>
<path d="M590 600 l0 -10 -15 0 -15 0 0 -40 0 -40 55 0 55 0 0 40 0 40 -15 0
-15 0 0 10 0 10 -25 0 -25 0 0 -10z m50 -40 l0 -30 -25 0 -25 0 0 30 0 30 25
0 25 0 0 -30z"/>
<path d="M750 600 l0 -10 -15 0 -15 0 0 -40 0 -40 55 0 55 0 0 40 0 40 -15 0
-15 0 0 10 0 10 -25 0 -25 0 0 -10z m50 -40 l0 -30 -25 0 -25 0 0 30 0 30 25
0 25 0 0 -30z"/>
<path d="M910 600 l0 -10 -15 0 -15 0 0 -40 0 -40 55 0 55 0 0 40 0 40 -15 0
-15 0 0 10 0 10 -25 0 -25 0 0 -10z m50 -40 l0 -30 -25 0 -25 0 0 30 0 30 25
0 25 0 0 -30z"/>
<path d="M320 495 l0 -15 15 0 15 0 0 15 0 15 -15 0 -15 0 0 -15z"/>
<path d="M610 425 l0 -25 15 0 15 0 0 25 0 25 -15 0 -15 0 0 -25z"/>
<path d="M690 425 l0 -25 15 0 15 0 0 25 0 25 -15 0 -15 0 0 -25z"/>
<path d="M770 425 l0 -25 15 0 15 0 0 25 0 25 -15 0 -15 0 0 -25z"/>
<path d="M850 425 l0 -25 15 0 15 0 0 25 0 25 -15 0 -15 0 0 -25z"/>
<path d="M930 425 l0 -25 15 0 15 0 0 25 0 25 -15 0 -15 0 0 -25z"/>
<path d="M320 255 l0 -15 15 0 15 0 0 15 0 15 -15 0 -15 0 0 -15z"/>
<path d="M930 255 l0 -15 15 0 15 0 0 15 0 15 -15 0 -15 0 0 -15z"/>
<path d="M1170 225 l0 -15 15 0 15 0 0 15 0 15 -15 0 -15 0 0 -15z"/>
<path d="M510 95 l0 -15 10 0 10 0 0 15 0 15 -10 0 -10 0 0 -15z"/>
<path d="M690 280 l0 -10 15 0 15 0 0 10 0 10 -15 0 -15 0 0 -10z"/>
<path d="M750 280 l0 -10 10 0 10 0 0 10 0 10 -10 0 -10 0 0 -10z"/>
<path d="M800 280 l0 -10 15 0 15 0 0 10 0 10 -15 0 -15 0 0 -10z"/>
<path d="M690 225 l0 -15 15 0 15 0 0 15 0 15 -15 0 -15 0 0 -15z"/>
<path d="M750 225 l0 -15 10 0 10 0 0 15 0 15 -10 0 -10 0 0 -15z"/>
<path d="M800 225 l0 -15 15 0 15 0 0 15 0 15 -15 0 -15 0 0 -15z"/>
<path d="M690 175 l0 -15 15 0 15 0 0 15 0 15 -15 0 -15 0 0 -15z"/>
<path d="M750 175 l0 -15 10 0 10 0 0 15 0 15 -10 0 -10 0 0 -15z"/>
<path d="M800 175 l0 -15 15 0 15 0 0 15 0 15 -15 0 -15 0 0 -15z"/>
<path d="M690 120 l0 -10 15 0 15 0 0 10 0 10 -15 0 -15 0 0 -10z"/>
<path d="M750 120 l0 -10 10 0 10 0 0 10 0 10 -10 0 -10 0 0 -10z"/>
<path d="M800 120 l0 -10 15 0 15 0 0 10 0 10 -15 0 -15 0 0 -10z"/>
<path d="M1170 1105 l0 -15 15 0 15 0 0 15 0 15 -15 0 -15 0 0 -15z"/>
</g>
</svg>
