<?xml version="1.0" standalone="no"?>
<!DOCTYPE svg PUBLIC "-//W3C//DTD SVG 20010904//EN"
 "http://www.w3.org/TR/2001/REC-SVG-20010904/DTD/svg10.dtd">
<svg version="1.0" xmlns="http://www.w3.org/2000/svg"
 width="468pt" height="468pt" viewBox="0 0 468 468"
 preserveAspectRatio="xMidYMid meet">
<metadata>
Created by potrace 1.8, written by Peter Selinger 2001-2007
</metadata>
<g transform="translate(0,468) scale(0.365625,-0.365625)"
fill="#000000" stroke="none">
<path d="M330 1250 l0 -30 60 0 60 0 0 -25 0 -25 80 0 80 0 0 -30 0 -30 -80 0
-80 0 0 -25 0 -25 -30 0 -30 0 0 -30 0 -30 -85 0 -85 0 0 55 0 55 30 0 30 0 0
-25 0 -25 25 0 25 0 0 25 0 25 30 0 30 0 0 30 0 30 -85 0 -85 0 0 -30 0 -30
-80 0 -80 0 0 -25 0 -25 55 0 55 0 0 -30 0 -30 -30 0 -30 0 0 -25 0 -25 -25 0
-25 0 0 -30 0 -30 -30 0 -30 0 0 -30 0 -30 30 0 30 0 0 30 0 30 25 0 25 0 0
-55 0 -55 -25 0 -25 0 0 -30 0 -30 25 0 25 0 0 -25 0 -25 -25 0 -25 0 0 -30 0
-30 25 0 25 0 0 30 0 30 30 0 30 0 0 25 0 25 55 0 55 0 0 30 0 30 25 0 25 0 0
-30 0 -30 30 0 30 0 0 -25 0 -25 30 0 30 0 0 25 0 25 55 0 55 0 0 -25 0 -25
25 0 25 0 0 -85 0 -85 -305 0 -305 0 0 -250 0 -250 640 0 640 0 0 250 0 250
-280 0 -280 0 0 85 0 85 30 0 30 0 0 25 0 25 25 0 25 0 0 30 0 30 60 0 60 0 0
-30 0 -30 25 0 25 0 0 -25 0 -25 30 0 30 0 0 25 0 25 25 0 25 0 0 30 0 30 30
0 30 0 0 -30 0 -30 25 0 25 0 0 -25 0 -25 30 0 30 0 0 25 0 25 -30 0 -30 0 0
30 0 30 30 0 30 0 0 25 0 25 -30 0 -30 0 0 30 0 30 -25 0 -25 0 0 30 0 30 -55
0 -55 0 0 25 0 25 25 0 25 0 0 30 0 30 30 0 30 0 0 -30 0 -30 25 0 25 0 0 30
0 30 -25 0 -25 0 0 25 0 25 -30 0 -30 0 0 30 0 30 -80 0 -80 0 0 25 0 25 -85
0 -85 0 0 30 0 30 -85 0 -85 0 0 -30 0 -30 -80 0 -80 0 0 30 0 30 -60 0 -60 0
0 -30z m390 -55 l0 -25 85 0 85 0 0 -30 0 -30 55 0 55 0 0 -25 0 -25 30 0 30
0 0 -30 0 -30 -55 0 -55 0 0 -25 0 -25 25 0 25 0 0 -30 0 -30 30 0 30 0 0 -30
0 -30 25 0 25 0 0 -25 0 -25 -25 0 -25 0 0 -30 0 -30 -30 0 -30 0 0 30 0 30
-25 0 -25 0 0 25 0 25 25 0 25 0 0 30 0 30 -25 0 -25 0 0 30 0 30 -60 0 -60 0
0 -30 0 -30 30 0 30 0 0 -30 0 -30 -30 0 -30 0 0 -25 0 -25 -25 0 -25 0 0 25
0 25 -30 0 -30 0 0 30 0 30 -25 0 -25 0 0 -55 0 -55 25 0 25 0 0 -30 0 -30
-55 0 -55 0 0 30 0 30 -55 0 -55 0 0 25 0 25 30 0 30 0 0 30 0 30 -30 0 -30 0
0 30 0 30 -55 0 -55 0 0 25 0 25 55 0 55 0 0 -25 0 -25 30 0 30 0 0 -30 0 -30
55 0 55 0 0 30 0 30 -30 0 -30 0 0 25 0 25 -25 0 -25 0 0 30 0 30 25 0 25 0 0
25 0 25 55 0 55 0 0 30 0 30 -55 0 -55 0 0 25 0 25 55 0 55 0 0 -25z m-500
-220 l0 -25 30 0 30 0 0 -30 0 -30 -30 0 -30 0 0 30 0 30 -25 0 -25 0 0 -30 0
-30 -30 0 -30 0 0 30 0 30 30 0 30 0 0 25 0 25 25 0 25 0 0 -25z m230 -115 l0
-30 -30 0 -30 0 0 -25 0 -25 30 0 30 0 0 -30 0 -30 -30 0 -30 0 0 30 0 30 -30
0 -30 0 0 25 0 25 30 0 30 0 0 30 0 30 30 0 30 0 0 -30z m-170 -55 l0 -25 -30
0 -30 0 0 25 0 25 30 0 30 0 0 -25z m940 0 l0 -25 -25 0 -25 0 0 25 0 25 25 0
25 0 0 -25z m-1050 -55 l0 -30 -30 0 -30 0 0 30 0 30 30 0 30 0 0 -30z"/>
<path d="M720 1085 l0 -25 -55 0 -55 0 0 -30 0 -30 55 0 55 0 0 -25 0 -25 55
0 55 0 0 25 0 25 -55 0 -55 0 0 30 0 30 55 0 55 0 0 25 0 25 -55 0 -55 0 0
-25z"/>
<path d="M890 1030 l0 -30 30 0 30 0 0 30 0 30 -30 0 -30 0 0 -30z"/>
<path d="M1000 805 l0 -25 30 0 30 0 0 25 0 25 -30 0 -30 0 0 -25z"/>
</g>
</svg>
