<?xml version="1.0" standalone="no"?>
<!DOCTYPE svg PUBLIC "-//W3C//DTD SVG 20010904//EN"
 "http://www.w3.org/TR/2001/REC-SVG-20010904/DTD/svg10.dtd">
<svg version="1.0" xmlns="http://www.w3.org/2000/svg"
 width="468pt" height="468pt" viewBox="0 0 468 468"
 preserveAspectRatio="xMidYMid meet">
<metadata>
Created by potrace 1.8, written by Peter Selinger 2001-2007
</metadata>
<g transform="translate(0,468) scale(0.365625,-0.365625)"
fill="#000000" stroke="none">
<path d="M1 1258 l-1 -28 25 0 25 0 0 -20 0 -20 -25 0 -25 0 0 -30 0 -30 25 0
25 0 0 -20 0 -20 -25 0 -25 0 0 -35 0 -35 25 0 25 0 0 -15 0 -15 -25 0 -25 0
0 -35 0 -35 25 0 25 0 0 -20 0 -20 -25 0 -25 0 0 -30 0 -30 25 0 25 0 0 -20 0
-20 -25 0 -25 0 0 -30 0 -30 25 0 25 0 0 -20 0 -20 -25 0 -25 0 0 -35 0 -35
25 0 25 0 0 -15 0 -15 -25 0 -25 0 0 -35 0 -35 25 0 25 0 0 -20 0 -20 -25 0
-25 0 0 -30 0 -30 25 0 25 0 0 -20 0 -20 -25 0 -25 0 0 -30 0 -30 25 0 25 0 0
-20 0 -20 -25 0 -25 0 0 -35 0 -35 25 0 25 0 0 -15 0 -15 -25 0 -25 0 0 -35 0
-35 25 0 25 0 0 -20 0 -20 -25 0 -25 0 0 -30 0 -30 280 0 280 0 0 175 0 175
24 0 23 0 49 7 48 6 -17 -26 -17 -26 17 6 18 7 -18 -27 -17 -26 16 6 16 6 -17
-27 -18 -26 18 6 17 7 -17 -27 -18 -26 19 7 19 6 -17 -20 -18 -20 0 -9 0 -9
10 15 9 14 7 -7 7 -7 -18 -20 -19 -21 20 8 19 7 -18 -27 -17 -26 17 6 18 7
-18 -27 -17 -26 16 6 16 6 -16 -26 -17 -25 308 0 308 0 -22 5 -23 4 0 19 0 19
23 4 22 4 -47 2 -48 1 0 20 0 20 45 0 45 0 0 10 0 10 -20 0 -20 0 0 15 0 15
20 0 20 0 0 10 0 10 -45 0 -45 0 0 15 0 15 45 0 45 0 0 10 0 10 -20 0 -20 0 0
19 0 20 23 4 22 4 -47 2 -48 1 0 20 0 20 48 1 47 2 -22 4 -23 4 0 19 0 19 23
4 22 4 -47 2 -48 1 0 20 0 20 48 1 47 2 -22 4 -23 4 0 19 0 19 22 4 23 4 -47
2 -48 1 0 20 0 20 48 1 47 2 -22 4 -23 4 0 20 0 19 20 0 20 0 0 10 0 10 -45 0
-45 0 0 15 0 15 45 0 45 0 0 10 0 10 -20 0 -20 0 0 19 0 20 23 4 22 4 -47 2
-48 1 0 20 0 20 48 1 47 2 -22 4 -23 4 0 19 0 19 23 4 22 4 -47 2 -48 1 0 20
0 20 48 1 47 2 -22 4 -23 4 0 19 0 19 23 4 22 4 -47 2 -48 1 0 20 0 20 48 1
47 2 -22 4 -23 4 0 20 0 19 20 0 20 0 0 10 0 10 -45 0 -45 0 0 15 0 15 45 0
45 0 0 10 0 10 -20 0 -20 0 0 19 0 20 23 4 22 4 -47 2 -48 1 0 20 0 20 48 1
47 2 -22 4 -23 4 0 19 0 19 23 4 22 4 -47 2 -48 1 0 20 0 20 48 1 47 2 -22 4
-22 4 -4 22 -4 22 -2 -22 -1 -23 -44 0 -45 0 -4 23 -4 22 -2 -22 -1 -23 -45 0
-45 0 0 20 0 20 -10 0 -10 0 0 -20 0 -20 -44 0 -45 0 -4 23 -4 22 -2 -22 -1
-23 -44 0 -45 0 -4 23 -4 22 -2 -22 -1 -23 -44 0 -45 0 -4 23 -4 22 -2 -22 -1
-23 -45 0 -45 0 0 20 0 20 -10 0 -10 0 0 -20 0 -20 -44 0 -45 0 -4 23 -4 22
-2 -22 -1 -23 -44 0 -45 0 -4 23 -4 22 -2 -22 -1 -23 -44 0 -45 0 -4 23 -4 22
-2 -22 -1 -23 -45 0 -45 0 0 20 0 20 -10 0 -10 0 0 -20 0 -20 -40 0 -40 0 0
20 0 20 -10 0 -10 0 0 -20 0 -20 -44 0 -45 0 -4 23 -4 22 -2 -27z m149 -48 l0
-20 -45 0 -45 0 0 20 0 20 45 0 45 0 0 -20z m110 0 l0 -20 -45 0 -45 0 0 20 0
20 45 0 45 0 0 -20z m100 0 l0 -20 -45 0 -45 0 0 20 0 20 45 0 45 0 0 -20z
m100 0 l0 -20 -45 0 -45 0 0 20 0 20 45 0 45 0 0 -20z m100 0 l0 -20 -45 0
-45 0 0 20 0 20 45 0 45 0 0 -20z m110 0 l0 -20 -45 0 -45 0 0 20 0 20 45 0
45 0 0 -20z m100 0 l0 -20 -45 0 -45 0 0 20 0 20 45 0 45 0 0 -20z m100 0 l0
-20 -45 0 -45 0 0 20 0 20 45 0 45 0 0 -20z m100 0 l0 -20 -45 0 -45 0 0 20 0
20 45 0 45 0 0 -20z m110 0 l0 -20 -45 0 -45 0 0 20 0 20 45 0 45 0 0 -20z
m100 0 l0 -20 -45 0 -45 0 0 20 0 20 45 0 45 0 0 -20z m-1080 -50 l0 -20 -45
0 -45 0 0 20 0 20 45 0 45 0 0 -20z m100 0 l0 -20 -40 0 -40 0 0 20 0 20 40 0
40 0 0 -20z m110 0 l0 -20 -45 0 -45 0 0 20 0 20 45 0 45 0 0 -20z m100 0 l0
-20 -45 0 -45 0 0 20 0 20 45 0 45 0 0 -20z m100 0 l0 -20 -45 0 -45 0 0 20 0
20 45 0 45 0 0 -20z m100 0 l0 -20 -45 0 -45 0 0 20 0 20 45 0 45 0 0 -20z
m110 6 l0 -14 -22 -6 -23 -6 -22 0 -23 0 0 20 0 20 45 0 45 0 0 -14z m50 4 l0
-10 -20 0 -20 0 0 10 0 10 20 0 20 0 0 -10z m250 -10 l0 -20 -6 0 -7 0 -38 12
-39 11 0 9 0 8 45 0 45 0 0 -20z m110 0 l0 -20 -45 0 -45 0 0 20 0 20 45 0 45
0 0 -20z m100 0 l0 -20 -45 0 -45 0 0 20 0 20 45 0 45 0 0 -20z m-1080 -50 l0
-20 -45 0 -45 0 0 20 0 20 45 0 45 0 0 -20z m110 0 l0 -20 -45 0 -45 0 0 20 0
20 45 0 45 0 0 -20z m100 0 l0 -20 -45 0 -45 0 0 20 0 20 45 0 45 0 0 -20z
m100 0 l0 -20 -45 0 -45 0 0 20 0 20 45 0 45 0 0 -20z m100 6 l0 -14 -16 -6
-16 -6 -29 0 -29 0 0 20 0 20 45 0 45 0 0 -14z m50 4 l0 -10 -15 0 -15 0 0 10
0 10 15 0 15 0 0 -10z m150 0 l0 -10 -10 0 -10 0 0 10 0 10 10 0 10 0 0 -10z
m50 0 l0 -10 -10 0 -10 0 0 10 0 10 10 0 10 0 0 -10z m50 0 l0 -10 -10 0 -10
0 0 10 0 10 10 0 10 0 0 -10z m220 -10 l0 -20 -16 0 -15 0 -20 10 -19 11 0 9
0 10 35 0 35 0 0 -20z m100 0 l0 -20 -45 0 -45 0 0 20 0 20 45 0 45 0 0 -20z
m-1080 -50 l0 -20 -45 0 -45 0 0 20 0 20 45 0 45 0 0 -20z m100 0 l0 -20 -40
0 -40 0 0 20 0 20 40 0 40 0 0 -20z m110 11 l0 -9 -27 -4 -28 -5 -17 -8 -18
-7 0 21 0 21 45 0 45 0 0 -9z m100 -6 l0 -15 -22 0 -23 0 -22 6 -23 6 0 9 0 9
45 0 45 0 0 -15z m40 5 l0 -10 -15 0 -15 0 0 10 0 10 15 0 15 0 0 -10z m130 0
l0 -10 -10 0 -10 0 0 10 0 10 10 0 10 0 0 -10z m50 0 l0 -10 -10 0 -10 0 0 10
0 10 10 0 10 0 0 -10z m130 0 l0 -10 -10 0 -10 0 0 10 0 10 10 0 10 0 0 -10z
m50 0 l0 -10 -10 0 -10 0 0 10 0 10 10 0 10 0 0 -10z m50 0 l0 -10 -10 0 -10
0 0 10 0 10 10 0 10 0 0 -10z m130 0 l0 -10 -10 0 -10 0 0 10 0 10 10 0 10 0
0 -10z m140 -10 l0 -20 -19 0 -19 0 -16 6 -16 6 0 14 0 14 35 0 35 0 0 -20z
m100 0 l0 -20 -45 0 -45 0 0 20 0 20 45 0 45 0 0 -20z m-1080 -55 l0 -15 -45
0 -45 0 0 15 0 15 45 0 45 0 0 -15z m98 6 l14 -8 -17 -7 -17 -6 -29 0 -29 0 0
15 0 15 33 0 32 0 13 -9z m256 -14 l30 -11 33 -36 34 -35 6 -22 5 -23 9 0 9 0
0 -250 0 -250 -240 0 -240 0 0 235 0 235 9 0 8 0 7 33 6 32 50 47 50 47 37 7
36 7 18 -12 19 -11 11 0 10 0 15 15 15 14 17 -5 17 -6 29 -11z m676 8 l0 -15
-45 0 -45 0 0 15 0 15 45 0 45 0 0 -15z m-1080 -55 l0 -20 -45 0 -45 0 0 20 0
20 45 0 45 0 0 -20z m100 16 l0 -4 -6 -16 -6 -16 -34 0 -34 0 0 20 0 20 40 0
40 0 0 -4z m930 -16 l0 -20 -15 0 -15 0 0 20 0 20 15 0 15 0 0 -20z m100 0 l0
-20 -45 0 -45 0 0 20 0 20 45 0 45 0 0 -20z m-150 -11 l0 -9 -12 0 -13 0 15
-10 15 -10 -15 0 -15 0 15 -10 15 -10 -15 -10 -15 -10 15 0 15 0 -15 -11 -15
-11 14 -5 13 -5 -13 -9 -14 -9 15 0 15 0 -15 -11 -15 -11 14 -5 13 -5 -13 -9
-14 -9 15 0 15 0 -15 -10 -15 -10 15 -10 15 -10 -15 0 -15 0 15 -11 15 -11
-14 -5 -13 -5 13 -9 14 -9 -15 0 -15 0 15 -10 15 -10 -15 -10 -15 -10 15 0 15
0 -15 -11 -15 -11 14 -5 13 -5 -13 -9 -14 -9 15 0 15 0 -15 -10 -15 -10 15
-10 15 -10 -15 0 -15 0 15 -11 15 -11 -12 -5 -12 -5 -7 2 -7 2 -6 -11 -7 -11
-37 -2 -37 -3 0 -12 0 -13 -27 -1 -28 -1 -8 1 -8 1 -15 -15 -16 -15 -23 4 -24
4 6 -14 5 -14 -23 -1 -24 -2 -22 0 -22 -1 5 -8 5 -8 -20 0 -21 0 0 -12 0 -13
-9 13 -8 14 -6 -16 -6 -16 -13 0 -13 0 15 10 15 10 -15 10 -15 10 15 0 15 0
-15 11 -15 11 14 5 13 5 -13 9 -14 9 15 0 15 0 -15 11 -15 11 14 5 13 5 -13 9
-14 9 15 0 15 0 -15 10 -15 10 15 10 15 10 -15 0 -15 0 15 11 15 11 -14 5 -13
5 13 9 14 9 -15 0 -15 0 15 10 15 10 -15 10 -15 10 15 0 15 0 -15 10 -15 10
15 10 15 10 -15 0 -15 0 14 9 13 9 -13 5 -14 5 15 11 15 11 -15 0 -15 0 15 11
15 11 -14 5 -13 5 13 9 14 9 -15 0 -15 0 15 10 15 10 -15 10 -15 10 13 1 12 2
8 2 7 3 22 7 21 7 -3 39 -3 39 116 1 117 0 23 2 22 1 0 12 0 13 28 3 27 4 13
-4 12 -4 0 -9z m-450 1 l0 -10 -10 0 -10 0 0 10 0 10 10 0 10 0 0 -10z m130 0
l0 -10 -10 0 -10 0 0 10 0 10 10 0 10 0 0 -10z m50 0 l0 -10 -10 0 -10 0 0 10
0 10 10 0 10 0 0 -10z m50 0 l0 -10 -10 0 -10 0 0 10 0 10 10 0 10 0 0 -10z
m-710 -40 l0 -20 -45 0 -45 0 0 20 0 20 45 0 45 0 0 -20z m1030 0 l0 -20 -40
0 -40 0 0 20 0 20 40 0 40 0 0 -20z m-1080 -50 l0 -20 -45 0 -45 0 0 20 0 20
45 0 45 0 0 -20z m40 6 l0 -15 -10 -6 -10 -6 0 20 0 21 10 0 10 0 0 -14z m990
-6 l0 -20 -15 0 -15 0 0 20 0 20 15 0 15 0 0 -20z m100 0 l0 -20 -45 0 -45 0
0 20 0 20 45 0 45 0 0 -20z m-1100 -50 l0 -20 -35 0 -35 0 0 20 0 20 35 0 35
0 0 -20z m1050 0 l0 -20 -40 0 -40 0 0 20 0 20 40 0 40 0 0 -20z m-1080 -50
l0 -20 -45 0 -45 0 0 20 0 20 45 0 45 0 0 -20z m27 -12 l-5 -13 0 25 0 25 5
-12 5 -13 -5 -12z m1003 12 l0 -20 -15 0 -15 0 0 20 0 20 15 0 15 0 0 -20z
m100 0 l0 -20 -45 0 -45 0 0 20 0 20 45 0 45 0 0 -20z m-1100 -50 l0 -20 -35
0 -35 0 0 20 0 20 35 0 35 0 0 -20z m1050 0 l0 -20 -40 0 -40 0 0 20 0 20 40
0 40 0 0 -20z m-1080 -50 l0 -20 -45 0 -45 0 0 20 0 20 45 0 45 0 0 -20z m27
-12 l-5 -13 0 25 0 25 5 -12 5 -13 -5 -12z m1003 12 l0 -20 -15 0 -15 0 0 20
0 20 15 0 15 0 0 -20z m100 0 l0 -20 -45 0 -45 0 0 20 0 20 45 0 45 0 0 -20z
m-1100 -55 l0 -15 -35 0 -35 0 0 15 0 15 35 0 35 0 0 -15z m1050 0 l0 -15 -40
0 -40 0 0 15 0 15 40 0 40 0 0 -15z m-1080 -55 l0 -20 -45 0 -45 0 0 20 0 20
45 0 45 0 0 -20z m27 -12 l-5 -13 0 25 0 25 5 -12 5 -13 -5 -12z m1003 12 l0
-20 -15 0 -15 0 0 20 0 20 15 0 15 0 0 -20z m100 0 l0 -20 -45 0 -45 0 0 20 0
20 45 0 45 0 0 -20z m-1100 -50 l0 -20 -35 0 -35 0 0 20 0 20 35 0 35 0 0 -20z
m1050 0 l0 -20 -45 0 -45 0 0 13 0 14 7 6 6 7 39 0 38 0 0 -20z m-100 -10 l0
-10 -20 0 -20 0 0 10 0 10 20 0 20 0 0 -10z m-980 -40 l0 -20 -45 0 -45 0 0
20 0 20 45 0 45 0 0 -20z m27 -12 l-5 -13 0 25 0 25 5 -12 5 -13 -5 -12z m893
12 l0 -20 -45 0 -45 0 0 14 0 15 18 4 17 5 28 1 27 1 0 -20z m110 0 l0 -20
-45 0 -45 0 0 20 0 20 45 0 45 0 0 -20z m100 0 l0 -20 -45 0 -45 0 0 20 0 20
45 0 45 0 0 -20z m-310 -10 l0 -10 -20 0 -20 0 0 10 0 10 20 0 20 0 0 -10z
m-790 -40 l0 -20 -35 0 -35 0 0 20 0 20 35 0 35 0 0 -20z m740 0 l0 -20 -45 0
-45 0 0 14 0 15 23 4 22 4 23 2 22 1 0 -20z m100 0 l0 -20 -45 0 -45 0 0 20 0
20 45 0 45 0 0 -20z m110 0 l0 -20 -45 0 -45 0 0 20 0 20 45 0 45 0 0 -20z
m100 0 l0 -20 -45 0 -45 0 0 20 0 20 45 0 45 0 0 -20z m-413 -16 l-6 -6 -13 5
-13 5 19 1 19 1 -6 -6z m-667 -34 l0 -20 -45 0 -45 0 0 20 0 20 45 0 45 0 0
-20z m83 10 l17 0 0 -15 0 -15 -40 0 -40 0 0 21 0 21 23 -6 22 -6 18 0z m637
-10 l0 -20 -45 0 -45 0 0 20 0 20 45 0 45 0 0 -20z m100 0 l0 -20 -45 0 -45 0
0 20 0 20 45 0 45 0 0 -20z m100 0 l0 -20 -45 0 -45 0 0 20 0 20 45 0 45 0 0
-20z m110 0 l0 -20 -45 0 -45 0 0 20 0 20 45 0 45 0 0 -20z m100 0 l0 -20 -45
0 -45 0 0 20 0 20 45 0 45 0 0 -20z m-920 -5 l0 -15 -45 0 -45 0 0 15 0 15 45
0 45 0 0 -15z m100 0 l0 -15 -45 0 -45 0 0 15 0 15 45 0 45 0 0 -15z m100 0
l0 -15 -45 0 -45 0 0 15 0 15 45 0 45 0 0 -15z m30 0 l0 -15 -10 0 -10 0 0 15
0 15 10 0 10 0 0 -15z m-390 -45 l0 -20 -45 0 -45 0 0 20 0 20 45 0 45 0 0
-20z m110 0 l0 -20 -45 0 -45 0 0 20 0 20 45 0 45 0 0 -20z m100 0 l0 -20 -45
0 -45 0 0 20 0 20 45 0 45 0 0 -20z m100 0 l0 -20 -45 0 -45 0 0 20 0 20 45 0
45 0 0 -20z m80 0 l0 -20 -35 0 -35 0 0 20 0 20 35 0 35 0 0 -20z m230 0 l0
-20 -20 0 -20 0 0 20 0 20 20 0 20 0 0 -20z m100 0 l0 -20 -45 0 -45 0 0 20 0
20 45 0 45 0 0 -20z m100 0 l0 -20 -45 0 -45 0 0 20 0 20 45 0 45 0 0 -20z
m110 0 l0 -20 -45 0 -45 0 0 20 0 20 45 0 45 0 0 -20z m100 0 l0 -20 -45 0
-45 0 0 20 0 20 45 0 45 0 0 -20z m-1080 -50 l0 -20 -45 0 -45 0 0 20 0 20 45
0 45 0 0 -20z m100 0 l0 -20 -40 0 -40 0 0 20 0 20 40 0 40 0 0 -20z m110 0
l0 -20 -45 0 -45 0 0 20 0 20 45 0 45 0 0 -20z m100 0 l0 -20 -45 0 -45 0 0
20 0 20 45 0 45 0 0 -20z m100 0 l0 -20 -45 0 -45 0 0 20 0 20 45 0 45 0 0
-20z m30 0 l0 -20 -10 0 -10 0 0 20 0 20 10 0 10 0 0 -20z m280 0 l0 -20 -45
0 -45 0 0 20 0 20 45 0 45 0 0 -20z m100 0 l0 -20 -45 0 -45 0 0 20 0 20 45 0
45 0 0 -20z m100 0 l0 -20 -45 0 -45 0 0 20 0 20 45 0 45 0 0 -20z m110 0 l0
-20 -45 0 -45 0 0 20 0 20 45 0 45 0 0 -20z m100 0 l0 -20 -45 0 -45 0 0 20 0
20 45 0 45 0 0 -20z m-1080 -55 l0 -15 -45 0 -45 0 0 15 0 15 45 0 45 0 0 -15z
m110 0 l0 -15 -45 0 -45 0 0 15 0 15 45 0 45 0 0 -15z m100 0 l0 -15 -45 0
-45 0 0 15 0 15 45 0 45 0 0 -15z m100 0 l0 -15 -45 0 -45 0 0 15 0 15 45 0
45 0 0 -15z m80 0 l0 -15 -35 0 -35 0 0 15 0 15 35 0 35 0 0 -15z m230 0 l0
-15 -20 0 -20 0 0 15 0 15 20 0 20 0 0 -15z m100 0 l0 -15 -45 0 -45 0 0 15 0
15 45 0 45 0 0 -15z m100 0 l0 -15 -45 0 -45 0 0 15 0 15 45 0 45 0 0 -15z
m110 0 l0 -15 -45 0 -45 0 0 15 0 15 45 0 45 0 0 -15z m100 0 l0 -15 -45 0
-45 0 0 15 0 15 45 0 45 0 0 -15z m-1080 -50 l0 -15 -45 0 -45 0 0 15 0 15 45
0 45 0 0 -15z m100 0 l0 -15 -40 0 -40 0 0 15 0 15 40 0 40 0 0 -15z m110 0
l0 -15 -45 0 -45 0 0 15 0 15 45 0 45 0 0 -15z m100 0 l0 -15 -45 0 -45 0 0
15 0 15 45 0 45 0 0 -15z m100 0 l0 -15 -45 0 -45 0 0 15 0 15 45 0 45 0 0
-15z m30 0 l0 -15 -10 0 -10 0 0 15 0 15 10 0 10 0 0 -15z m280 0 l0 -15 -45
0 -45 0 0 15 0 15 45 0 45 0 0 -15z m100 0 l0 -15 -45 0 -45 0 0 15 0 15 45 0
45 0 0 -15z m100 0 l0 -15 -45 0 -45 0 0 15 0 15 45 0 45 0 0 -15z m110 0 l0
-15 -45 0 -45 0 0 15 0 15 45 0 45 0 0 -15z m100 0 l0 -15 -45 0 -45 0 0 15 0
15 45 0 45 0 0 -15z m-1080 -55 l0 -20 -45 0 -45 0 0 20 0 20 45 0 45 0 0 -20z
m110 0 l0 -20 -45 0 -45 0 0 20 0 20 45 0 45 0 0 -20z m100 0 l0 -20 -45 0
-45 0 0 20 0 20 45 0 45 0 0 -20z m100 0 l0 -20 -45 0 -45 0 0 20 0 20 45 0
45 0 0 -20z m80 0 l0 -20 -35 0 -35 0 0 20 0 20 35 0 35 0 0 -20z m230 0 l0
-20 -20 0 -20 0 0 20 0 20 20 0 20 0 0 -20z m100 0 l0 -20 -45 0 -45 0 0 20 0
20 45 0 45 0 0 -20z m100 0 l0 -20 -45 0 -45 0 0 20 0 20 45 0 45 0 0 -20z
m110 0 l0 -20 -45 0 -45 0 0 20 0 20 45 0 45 0 0 -20z m100 0 l0 -20 -45 0
-45 0 0 20 0 20 45 0 45 0 0 -20z m-1080 -50 l0 -20 -45 0 -45 0 0 20 0 20 45
0 45 0 0 -20z m100 0 l0 -20 -40 0 -40 0 0 20 0 20 40 0 40 0 0 -20z m110 0
l0 -20 -45 0 -45 0 0 20 0 20 45 0 45 0 0 -20z m100 0 l0 -20 -45 0 -45 0 0
20 0 20 45 0 45 0 0 -20z m100 0 l0 -20 -45 0 -45 0 0 20 0 20 45 0 45 0 0
-20z m30 0 l0 -20 -10 0 -10 0 0 20 0 20 10 0 10 0 0 -20z m280 0 l0 -20 -45
0 -45 0 0 20 0 20 45 0 45 0 0 -20z m100 0 l0 -20 -45 0 -45 0 0 20 0 20 45 0
45 0 0 -20z m100 0 l0 -20 -45 0 -45 0 0 20 0 20 45 0 45 0 0 -20z m110 0 l0
-20 -45 0 -45 0 0 20 0 20 45 0 45 0 0 -20z m100 0 l0 -20 -45 0 -45 0 0 20 0
20 45 0 45 0 0 -20z"/>
<path d="M251 665 l24 -25 109 0 109 0 23 25 23 25 -156 0 -155 0 23 -25z m63
0 l-6 -15 -9 0 -9 0 0 9 0 9 13 5 12 5 2 1 2 1 -5 -15z m40 0 l-6 -15 -9 0 -9
0 0 9 0 9 13 5 12 5 2 1 2 1 -5 -15z m34 1 l-13 -14 -4 3 -3 4 7 10 6 11 10 0
10 0 -13 -14z m40 0 l-13 -14 -4 3 -3 4 7 10 6 11 10 0 10 0 -13 -14z m35 -1
l-5 -16 -5 5 -5 5 7 10 6 11 4 0 4 0 -6 -15z"/>
<path d="M208 553 l12 -5 0 -38 0 -38 -12 -5 -13 -5 21 -1 21 -1 -3 33 -3 32
5 -17 5 -18 10 0 9 0 1 -17 0 -18 9 20 9 20 0 13 1 13 -10 -6 -10 -6 0 25 0
26 -32 -1 -33 -1 13 -5z"/>
<path d="M283 510 l2 -50 38 0 37 0 0 20 0 20 20 0 20 0 0 -20 0 -20 23 0 22
0 -11 8 -11 7 -9 40 -10 40 -17 3 -17 3 -12 -45 -12 -46 -14 0 -14 0 4 45 3
45 -22 0 -22 0 2 -50z m94 8 l-5 -13 -1 19 -1 19 6 -6 6 -6 -5 -13z"/>
<path d="M455 510 l0 -50 20 0 20 0 0 50 0 50 -20 0 -20 0 0 -50z"/>
<path d="M515 510 l0 -50 38 0 37 0 -1 23 -1 22 -5 -17 -4 -18 -16 0 -15 0 4
45 3 45 -20 0 -20 0 0 -50z"/>
<path d="M740 804 l0 -105 14 -15 15 -14 6 0 6 0 15 14 14 15 0 40 0 41 45 0
45 0 0 65 0 65 -80 0 -80 0 0 -106z"/>
<path d="M930 850 l0 -10 10 0 10 0 0 10 0 10 -10 0 -10 0 0 -10z"/>
<path d="M700 800 l0 -10 10 0 10 0 0 10 0 10 -10 0 -10 0 0 -10z"/>
<path d="M930 800 l0 -10 10 0 10 0 0 10 0 10 -10 0 -10 0 0 -10z"/>
<path d="M700 750 l0 -10 10 0 10 0 0 10 0 10 -10 0 -10 0 0 -10z"/>
<path d="M880 750 l0 -10 10 0 10 0 0 10 0 10 -10 0 -10 0 0 -10z"/>
<path d="M930 750 l0 -10 10 0 10 0 0 10 0 10 -10 0 -10 0 0 -10z"/>
<path d="M734 636 l-1 -42 42 0 42 0 -1 43 0 43 -3 0 -2 0 -20 -22 -20 -21 -6
16 -7 15 -12 5 -12 5 0 -42z m29 -12 l-2 -19 6 14 5 13 10 -13 9 -14 -3 19 -3
19 13 4 12 5 0 -20 0 -20 -16 -6 -17 -6 -18 5 -19 6 0 21 0 20 13 -5 12 -4 -2
-19z"/>
<path d="M700 620 l0 -10 10 0 10 0 0 10 0 10 -10 0 -10 0 0 -10z"/>
<path d="M880 620 l0 -10 10 0 10 0 0 10 0 10 -10 0 -10 0 0 -10z"/>
<path d="M930 620 l0 -10 10 0 10 0 0 10 0 10 -10 0 -10 0 0 -10z"/>
<path d="M700 570 l0 -10 10 0 10 0 0 10 0 10 -10 0 -10 0 0 -10z"/>
<path d="M880 570 l0 -10 10 0 10 0 0 10 0 10 -10 0 -10 0 0 -10z"/>
<path d="M930 570 l0 -10 10 0 10 0 0 10 0 10 -10 0 -10 0 0 -10z"/>
</g>
</svg>
