<?xml version="1.0" standalone="no"?>
<!DOCTYPE svg PUBLIC "-//W3C//DTD SVG 20010904//EN"
 "http://www.w3.org/TR/2001/REC-SVG-20010904/DTD/svg10.dtd">
<svg version="1.0" xmlns="http://www.w3.org/2000/svg"
 width="468pt" height="468pt" viewBox="0 0 468 468"
 preserveAspectRatio="xMidYMid meet">
<metadata>
Created by potrace 1.8, written by Peter Selinger 2001-2007
</metadata>
<g transform="translate(0,468) scale(0.365625,-0.365625)"
fill="#000000" stroke="none">
<path d="M120 1220 l0 -20 -20 0 -20 0 0 -540 0 -540 40 0 40 0 0 -20 0 -20
20 0 20 0 0 -20 0 -20 540 0 540 0 0 580 0 580 -20 0 -20 0 0 20 0 20 -560 0
-560 0 0 -20z m80 -140 l0 -40 -20 0 -20 0 0 40 0 40 20 0 20 0 0 -40z m880
-260 l0 -260 -400 0 -400 0 0 260 0 260 400 0 400 0 0 -260z m-80 -440 l0 -20
20 0 20 0 0 -140 0 -140 -380 0 -380 0 0 140 0 140 20 0 20 0 0 20 0 20 340 0
340 0 0 -20z"/>
<path d="M320 240 l0 -120 100 0 100 0 0 120 0 120 -100 0 -100 0 0 -120z"/>
</g>
</svg>
