<?xml version="1.0" standalone="no"?>
<!DOCTYPE svg PUBLIC "-//W3C//DTD SVG 20010904//EN"
 "http://www.w3.org/TR/2001/REC-SVG-20010904/DTD/svg10.dtd">
<svg version="1.0" xmlns="http://www.w3.org/2000/svg"
 width="468pt" height="468pt" viewBox="0 0 468 468"
 preserveAspectRatio="xMidYMid meet">
<metadata>
Created by potrace 1.8, written by Peter Selinger 2001-2007
</metadata>
<g transform="translate(0,468) scale(0.365625,-0.365625)"
fill="#000000" stroke="none">
<path d="M0 960 l0 -320 20 0 20 0 0 60 0 60 40 0 40 0 0 40 0 40 20 0 20 0 0
20 0 20 20 0 20 0 0 20 0 20 20 0 20 0 0 20 0 20 20 0 20 0 0 20 0 20 20 0 20
0 0 -20 0 -20 20 0 20 0 0 -20 0 -20 20 0 20 0 0 -20 0 -20 20 0 20 0 0 20 0
20 -20 0 -20 0 0 20 0 20 20 0 20 0 0 20 0 20 20 0 20 0 0 -20 0 -20 20 0 20
0 0 20 0 20 40 0 40 0 0 -20 0 -20 20 0 20 0 0 20 0 20 -20 0 -20 0 0 20 0 20
-40 0 -40 0 0 20 0 20 -20 0 -20 0 0 20 0 20 -60 0 -60 0 0 -20 0 -20 -40 0
-40 0 0 20 0 20 20 0 20 0 0 20 0 20 20 0 20 0 0 20 0 20 80 0 80 0 0 -20 0
-20 60 0 60 0 0 -20 0 -20 -20 0 -20 0 0 -20 0 -20 20 0 20 0 0 20 0 20 20 0
20 0 0 -20 0 -20 20 0 20 0 0 -20 0 -20 -20 0 -20 0 0 -20 0 -20 20 0 20 0 0
20 0 20 20 0 20 0 0 -20 0 -20 20 0 20 0 0 20 0 20 -20 0 -20 0 0 60 0 60 20
0 20 0 0 -40 0 -40 20 0 20 0 0 -20 0 -20 20 0 20 0 0 -20 0 -20 -20 0 -20 0
0 -20 0 -20 20 0 20 0 0 -20 0 -20 20 0 20 0 0 -20 0 -20 20 0 20 0 0 20 0 20
-20 0 -20 0 0 20 0 20 20 0 20 0 0 80 0 80 -40 0 -40 0 0 20 0 20 -20 0 -20 0
0 20 0 20 20 0 20 0 0 20 0 20 20 0 20 0 0 -20 0 -20 20 0 20 0 0 -20 0 -20
60 0 60 0 0 -40 0 -40 -20 0 -20 0 0 20 0 20 -20 0 -20 0 0 -20 0 -20 20 0 20
0 0 -20 0 -20 20 0 20 0 0 -60 0 -60 -20 0 -20 0 0 -20 0 -20 20 0 20 0 0 -40
0 -40 -20 0 -20 0 0 -20 0 -20 20 0 20 0 0 -20 0 -20 -40 0 -40 0 0 -40 0 -40
-20 0 -20 0 0 20 0 20 -40 0 -40 0 0 20 0 20 20 0 20 0 0 40 0 40 -20 0 -20 0
0 20 0 20 -20 0 -20 0 0 -20 0 -20 -20 0 -20 0 0 -20 0 -20 20 0 20 0 0 20 0
20 20 0 20 0 0 -40 0 -40 -20 0 -20 0 0 -20 0 -20 20 0 20 0 0 -40 0 -40 -20
0 -20 0 0 -20 0 -20 20 0 20 0 0 -20 0 -20 -20 0 -20 0 0 -20 0 -20 -20 0 -20
0 0 -20 0 -20 40 0 40 0 0 20 0 20 20 0 20 0 0 40 0 40 -20 0 -20 0 0 20 0 20
40 0 40 0 0 -20 0 -20 20 0 20 0 0 20 0 20 40 0 40 0 0 20 0 20 20 0 20 0 0
20 0 20 20 0 20 0 0 40 0 40 20 0 20 0 0 20 0 20 20 0 20 0 0 -40 0 -40 -20 0
-20 0 0 -40 0 -40 -20 0 -20 0 0 -20 0 -20 -20 0 -20 0 0 -20 0 -20 -20 0 -20
0 0 -20 0 -20 -20 0 -20 0 0 -40 0 -40 -20 0 -20 0 0 -20 0 -20 -20 0 -20 0 0
20 0 20 -20 0 -20 0 0 -40 0 -40 -60 0 -60 0 0 20 0 20 -20 0 -20 0 0 -20 0
-20 20 0 20 0 0 -20 0 -20 60 0 60 0 0 -20 0 -20 -20 0 -20 0 0 -20 0 -20 -20
0 -20 0 0 -20 0 -20 -20 0 -20 0 0 40 0 40 -20 0 -20 0 0 20 0 20 -20 0 -20 0
0 20 0 20 -20 0 -20 0 0 -20 0 -20 -60 0 -60 0 0 20 0 20 -20 0 -20 0 0 -20 0
-20 20 0 20 0 0 -40 0 -40 -20 0 -20 0 0 20 0 20 -20 0 -20 0 0 40 0 40 -20 0
-20 0 0 20 0 20 20 0 20 0 0 40 0 40 20 0 20 0 0 -40 0 -40 40 0 40 0 0 20 0
20 -20 0 -20 0 0 20 0 20 -20 0 -20 0 0 20 0 20 -20 0 -20 0 0 -20 0 -20 -20
0 -20 0 0 -20 0 -20 -20 0 -20 0 0 20 0 20 -20 0 -20 0 0 20 0 20 -20 0 -20 0
0 -40 0 -40 -20 0 -20 0 0 -20 0 -20 20 0 20 0 0 -20 0 -20 -20 0 -20 0 0 -80
0 -80 -20 0 -20 0 0 20 0 20 -20 0 -20 0 0 20 0 20 20 0 20 0 0 20 0 20 -40 0
-40 0 0 20 0 20 40 0 40 0 0 40 0 40 -20 0 -20 0 0 20 0 20 20 0 20 0 0 20 0
20 -40 0 -40 0 0 20 0 20 40 0 40 0 0 40 0 40 20 0 20 0 0 20 0 20 -20 0 -20
0 0 40 0 40 20 0 20 0 0 -20 0 -20 20 0 20 0 0 -20 0 -20 20 0 20 0 0 -40 0
-40 20 0 20 0 0 -20 0 -20 20 0 20 0 0 20 0 20 -20 0 -20 0 0 20 0 20 20 0 20
0 0 40 0 40 -60 0 -60 0 0 20 0 20 20 0 20 0 0 20 0 20 -20 0 -20 0 0 -20 0
-20 -20 0 -20 0 0 40 0 40 20 0 20 0 0 20 0 20 -20 0 -20 0 0 -20 0 -20 -40 0
-40 0 0 -20 0 -20 -20 0 -20 0 0 -40 0 -40 -40 0 -40 0 0 -20 0 -20 20 0 20 0
0 -20 0 -20 -20 0 -20 0 0 -60 0 -60 -40 0 -40 0 0 -20 0 -20 20 0 20 0 0 -20
0 -20 -20 0 -20 0 0 -220 0 -220 640 0 640 0 0 640 0 640 -640 0 -640 0 0
-320z m840 260 l0 -20 -20 0 -20 0 0 20 0 20 20 0 20 0 0 -20z m-640 -40 l0
-20 20 0 20 0 0 20 0 20 40 0 40 0 0 -20 0 -20 -20 0 -20 0 0 -20 0 -20 -40 0
-40 0 0 -20 0 -20 -20 0 -20 0 0 20 0 20 -20 0 -20 0 0 40 0 40 40 0 40 0 0
-20z m-120 -40 l0 -20 -20 0 -20 0 0 20 0 20 20 0 20 0 0 -20z m400 -80 l0
-20 -20 0 -20 0 0 -20 0 -20 -20 0 -20 0 0 -20 0 -20 -20 0 -20 0 0 20 0 20
-20 0 -20 0 0 20 0 20 40 0 40 0 0 20 0 20 40 0 40 0 0 -20z m440 -80 l0 -20
-20 0 -20 0 0 20 0 20 20 0 20 0 0 -20z m240 -160 l0 -60 -20 0 -20 0 0 60 0
60 20 0 20 0 0 -60z m-920 -40 l0 -20 -20 0 -20 0 0 20 0 20 20 0 20 0 0 -20z
m960 -220 l0 -40 -40 0 -40 0 0 20 0 20 20 0 20 0 0 20 0 20 20 0 20 0 0 -40z
m-80 -100 l0 -20 -20 0 -20 0 0 20 0 20 20 0 20 0 0 -20z m-920 -40 l0 -20
-20 0 -20 0 0 20 0 20 20 0 20 0 0 -20z m1000 0 l0 -20 -20 0 -20 0 0 20 0 20
20 0 20 0 0 -20z m-160 -100 l0 -40 20 0 20 0 0 -20 0 -20 20 0 20 0 0 20 0
20 20 0 20 0 0 -20 0 -20 -20 0 -20 0 0 -20 0 -20 -40 0 -40 0 0 -20 0 -20
-20 0 -20 0 0 -20 0 -20 -60 0 -60 0 0 20 0 20 20 0 20 0 0 20 0 20 -20 0 -20
0 0 20 0 20 20 0 20 0 0 20 0 20 20 0 20 0 0 20 0 20 20 0 20 0 0 20 0 20 20
0 20 0 0 -40z m80 20 l0 -20 -20 0 -20 0 0 20 0 20 20 0 20 0 0 -20z m80 0 l0
-20 -20 0 -20 0 0 20 0 20 20 0 20 0 0 -20z m-840 -60 l0 -40 20 0 20 0 0 -40
0 -40 -20 0 -20 0 0 20 0 20 -20 0 -20 0 0 60 0 60 20 0 20 0 0 -40z m160 -60
l0 -20 -20 0 -20 0 0 20 0 20 20 0 20 0 0 -20z m120 0 l0 -20 20 0 20 0 0 20
0 20 40 0 40 0 0 -40 0 -40 -20 0 -20 0 0 20 0 20 -20 0 -20 0 0 -20 0 -20
-20 0 -20 0 0 -20 0 -20 20 0 20 0 0 -20 0 -20 -20 0 -20 0 0 20 0 20 -20 0
-20 0 0 20 0 20 -20 0 -20 0 0 -20 0 -20 -40 0 -40 0 0 20 0 20 40 0 40 0 0
40 0 40 40 0 40 0 0 -20z m-400 -40 l0 -20 -20 0 -20 0 0 20 0 20 20 0 20 0 0
-20z m80 -40 l0 -20 -20 0 -20 0 0 -20 0 -20 -20 0 -20 0 0 20 0 20 20 0 20 0
0 20 0 20 20 0 20 0 0 -20z m520 0 l0 -20 -20 0 -20 0 0 20 0 20 20 0 20 0 0
-20z"/>
<path d="M960 260 l0 -20 20 0 20 0 0 20 0 20 -20 0 -20 0 0 -20z"/>
<path d="M960 180 l0 -20 20 0 20 0 0 20 0 20 -20 0 -20 0 0 -20z"/>
<path d="M600 180 l0 -20 20 0 20 0 0 20 0 20 -20 0 -20 0 0 -20z"/>
<path d="M1000 980 l0 -20 20 0 20 0 0 20 0 20 -20 0 -20 0 0 -20z"/>
<path d="M680 940 l0 -20 -40 0 -40 0 0 -20 0 -20 60 0 60 0 0 -20 0 -20 20 0
20 0 0 20 0 20 -20 0 -20 0 0 40 0 40 -20 0 -20 0 0 -20z"/>
<path d="M480 900 l0 -20 20 0 20 0 0 -20 0 -20 -40 0 -40 0 0 -20 0 -20 -20
0 -20 0 0 -20 0 -20 40 0 40 0 0 20 0 20 20 0 20 0 0 20 0 20 20 0 20 0 0 20
0 20 -20 0 -20 0 0 20 0 20 -20 0 -20 0 0 -20z"/>
<path d="M960 780 l0 -20 20 0 20 0 0 20 0 20 -20 0 -20 0 0 -20z"/>
<path d="M560 740 l0 -20 -20 0 -20 0 0 -60 0 -60 20 0 20 0 0 -40 0 -40 80 0
80 0 0 20 0 20 20 0 20 0 0 80 0 80 -20 0 -20 0 0 20 0 20 -80 0 -80 0 0 -20z"/>
<path d="M0 580 l0 -20 20 0 20 0 0 20 0 20 -20 0 -20 0 0 -20z"/>
</g>
</svg>
