<?xml version="1.0" standalone="no"?>
<!DOCTYPE svg PUBLIC "-//W3C//DTD SVG 20010904//EN"
 "http://www.w3.org/TR/2001/REC-SVG-20010904/DTD/svg10.dtd">
<svg version="1.0" xmlns="http://www.w3.org/2000/svg"
 width="468pt" height="468pt" viewBox="0 0 468 468"
 preserveAspectRatio="xMidYMid meet">
<metadata>
Created by potrace 1.8, written by Peter Selinger 2001-2007
</metadata>
<g transform="translate(0,468) scale(0.365625,-0.365625)"
fill="#000000" stroke="none">
<path d="M890 1270 l0 -10 -20 0 -20 0 0 -25 0 -25 -21 0 -20 0 -15 -14 -14
-15 0 -11 0 -11 -15 -16 -16 -15 -18 21 -18 21 -12 0 -11 0 0 10 0 10 -10 0
-10 0 0 -16 0 -15 14 -15 15 -14 20 0 21 0 0 -10 0 -10 -10 0 -10 0 0 -25 0
-25 -15 0 -15 0 0 10 0 10 -40 0 -40 0 0 15 0 15 40 0 40 0 0 5 0 6 -25 25
-25 25 -15 -15 -15 -15 0 -15 0 -16 -10 0 -10 0 0 -15 0 -15 -25 0 -25 0 0
-20 0 -20 10 0 10 0 0 -10 0 -10 -20 0 -20 0 0 -20 0 -20 10 0 10 0 0 -24 0
-24 -12 -5 -13 -5 15 -11 14 -10 -6 -7 -7 -6 -26 27 -27 26 6 7 7 6 9 -14 9
-14 8 8 8 9 -12 4 -13 5 0 13 0 13 -12 5 -13 5 15 12 15 12 -12 5 -13 5 0 9 0
9 20 0 20 0 0 10 0 10 -19 0 -19 0 -6 -12 -6 -13 -6 13 -6 12 -19 0 -20 0 -25
-25 -25 -25 17 -18 17 -17 5 13 4 12 23 0 23 0 5 13 4 12 9 -8 8 -8 -14 -10
-15 -11 13 -5 12 -5 0 -14 0 -14 -25 0 -25 0 0 15 0 15 -10 0 -10 0 0 -15 0
-15 10 0 10 0 0 -10 0 -10 -20 0 -20 0 0 21 0 20 -14 15 -15 14 -5 0 -6 0 0
-23 0 -23 20 -14 20 -14 0 -15 0 -14 23 -20 22 -20 -12 -4 -13 -5 0 -14 0 -14
-10 0 -10 0 0 35 0 35 -30 0 -30 0 0 10 0 10 20 0 20 0 0 6 0 5 -17 17 -16 17
-5 -13 -4 -12 -10 0 -11 0 -19 -22 -19 -22 -9 13 -8 14 -16 -16 -16 -16 0 -5
0 -6 19 0 19 0 6 -12 6 -13 6 13 6 12 9 0 9 0 0 -21 0 -20 -17 -17 -16 -17 -5
13 -4 12 -19 0 -19 0 0 15 0 15 -25 0 -25 0 0 -15 0 -15 15 0 15 0 0 -10 0
-10 30 0 30 0 0 -10 0 -10 -30 0 -30 0 0 10 0 10 -11 0 -10 0 -15 14 -14 15 0
6 0 6 14 15 15 14 10 0 11 0 0 10 0 10 -11 0 -12 0 -20 -22 -20 -23 -4 13 -5
12 -15 0 -14 0 -15 -14 -14 -15 0 -7 0 -7 22 -18 21 -19 -6 -7 -7 -6 -19 21
-18 22 -11 0 -10 0 -5 -12 -4 -13 -9 9 -9 9 13 4 12 5 0 14 0 14 -10 0 -10 0
0 -14 0 -14 -12 -5 -13 -5 15 -11 15 -11 -14 -9 -14 -9 16 -16 16 -16 30 0 31
0 0 10 0 10 10 0 10 0 0 -20 0 -20 9 0 9 0 5 13 4 12 9 -9 9 -9 -12 -4 -13 -5
0 -14 0 -14 20 0 20 0 0 15 0 15 25 0 25 0 0 -15 0 -15 40 0 40 0 0 11 0 10
-16 16 -16 16 -8 -14 -9 -13 -7 6 -6 7 18 18 17 18 5 -13 4 -12 34 0 34 0 0
40 0 40 10 0 10 0 0 -10 0 -10 19 0 19 0 6 13 6 12 6 -12 6 -13 24 0 24 0 0
-6 0 -5 -14 -15 -15 -14 -40 0 -41 0 0 -10 0 -10 55 0 55 0 0 -10 0 -10 10 0
10 0 0 20 0 20 -10 0 -10 0 0 10 0 10 30 0 30 0 0 -20 0 -20 -10 0 -10 0 0
-25 0 -25 10 0 10 0 0 15 0 15 10 0 10 0 0 65 0 65 -10 0 -10 0 0 -25 0 -25
-30 0 -30 0 0 10 0 10 10 0 10 0 0 15 0 15 -10 0 -10 0 0 -15 0 -15 -25 0 -25
0 0 15 0 15 13 0 13 0 14 20 14 20 17 0 17 0 6 -12 6 -13 6 13 6 12 89 0 89 0
0 -20 0 -20 10 0 10 0 0 -15 0 -15 -10 0 -10 0 0 15 0 15 -25 0 -25 0 0 -23 0
-23 -20 -14 -20 -14 0 -8 0 -8 30 0 30 0 0 10 0 10 15 0 15 0 0 -10 0 -10 -11
0 -10 0 -15 -14 -14 -15 0 -30 0 -31 -10 0 -10 0 0 10 0 10 -20 0 -20 0 0 15
0 15 -25 0 -25 0 0 -10 0 -11 -25 -24 -24 -25 -6 0 -5 0 0 20 0 20 -10 0 -10
0 0 -16 0 -15 -14 -15 -15 -14 -6 0 -6 0 -24 -25 -25 -24 0 -20 0 -19 13 -5
12 -4 -8 -9 -8 -8 -10 14 -11 15 -5 -12 -5 -13 -34 0 -34 0 0 -20 0 -20 -150
0 -150 0 0 -240 0 -240 640 0 640 0 0 240 0 240 -321 0 -322 0 -18 22 -19 21
-7 -7 -7 -7 14 -9 14 -9 -8 -8 -9 -8 -4 13 -5 12 -9 0 -10 0 -34 35 -35 34 0
10 0 9 -12 4 -13 5 17 16 17 17 15 0 16 0 0 10 0 10 63 0 63 0 14 20 14 20 13
0 13 0 0 15 0 15 40 0 40 0 0 -15 0 -15 24 0 24 0 6 -12 6 -13 6 13 6 12 39 0
39 0 0 15 0 15 -10 0 -10 0 0 26 0 25 -15 16 -15 15 -29 -31 -29 -31 -10 0
-10 0 -6 13 -6 12 -6 -12 -6 -13 -19 0 -19 0 0 10 0 10 20 0 20 0 0 9 0 9 -12
5 -13 4 8 9 8 8 10 -14 11 -15 5 13 5 12 10 0 9 0 15 14 14 15 0 20 0 21 54 0
54 0 4 -12 5 -13 19 19 19 19 -13 5 -12 4 0 29 0 29 20 0 20 0 0 10 0 11 -35
34 -34 35 -20 0 -19 0 -5 -12 -4 -13 -8 7 -7 7 15 16 16 15 40 0 41 0 0 -30 0
-30 9 0 9 0 5 13 4 12 9 -9 9 -9 -12 -4 -13 -5 0 -9 0 -9 20 0 20 0 0 10 0 10
24 0 24 0 4 -12 5 -13 17 18 18 18 -7 7 -8 7 -4 -12 -5 -13 -9 0 -9 0 0 29 0
29 -12 6 -13 6 13 6 12 6 0 14 0 14 10 0 10 0 0 -14 0 -14 13 -5 12 -4 -8 -9
-8 -8 -9 14 -9 14 -7 -6 -6 -7 16 -17 17 -16 19 23 20 22 8 -8 7 -8 -12 -4
-13 -5 0 -9 0 -9 35 0 35 0 0 10 0 10 -10 0 -10 0 0 35 0 35 -15 0 -15 0 0 10
0 10 25 0 25 0 0 10 0 10 -25 0 -25 0 0 10 0 10 -30 0 -30 0 0 -9 0 -9 13 -5
12 -4 -7 -8 -7 -8 -30 32 -29 31 -10 0 -10 0 -5 -12 -5 -13 -11 15 -11 15 -9
-14 -9 -14 -16 16 -16 16 0 6 0 6 -14 15 -15 14 -9 0 -10 0 -5 -12 -4 -13 -20
23 -20 22 -7 0 -6 0 0 -10z m20 -40 l0 -11 25 -24 24 -25 11 0 10 0 0 10 0 10
-15 0 -15 0 0 10 0 10 10 0 10 0 55 -55 55 -55 0 -10 0 -10 -10 0 -10 0 0 15
0 15 -10 0 -10 0 0 -15 0 -15 -20 0 -20 0 0 15 0 15 20 0 20 0 0 6 0 5 -14 15
-15 14 -5 0 -6 0 0 -20 0 -20 -10 0 -10 0 0 10 0 10 -21 0 -20 0 -15 14 -14
15 0 25 0 26 -10 0 -10 0 0 15 0 15 10 0 10 0 0 -10z m-90 -50 l0 -10 -10 0
-10 0 0 10 0 10 10 0 10 0 0 -10z m70 0 l0 -10 -20 0 -20 0 0 10 0 10 20 0 20
0 0 -10z m220 -30 l0 -20 -15 0 -15 0 0 20 0 20 15 0 15 0 0 -20z m-290 -10
l0 -10 14 0 14 0 5 13 4 12 8 -7 7 -7 -15 -16 -16 -15 -10 0 -11 0 0 10 0 10
-20 0 -20 0 0 -23 0 -23 -20 -14 -20 -14 0 -18 0 -18 10 0 10 0 0 10 0 10 20
0 20 0 0 -6 0 -5 -14 -15 -15 -14 -14 0 -15 0 -6 13 -6 12 -6 -12 -6 -13 -20
0 -19 0 -15 15 -15 15 15 15 15 15 5 0 6 0 0 -20 0 -20 15 0 15 0 0 20 0 20
10 0 10 0 0 20 0 21 23 24 22 24 18 0 17 1 0 -10z m96 -24 l14 -15 0 -6 0 -6
-26 -26 -25 -25 -7 6 -6 7 14 10 15 11 -12 5 -13 5 0 9 0 10 13 14 12 14 3 1
3 0 15 -14z m274 4 l0 -10 -10 0 -10 0 0 10 0 10 10 0 10 0 0 -10z m-210 -25
l0 -15 -15 0 -15 0 0 15 0 15 15 0 15 0 0 -15z m-363 -30 l15 -16 -23 -20 -23
-20 14 -10 15 -11 -12 -5 -13 -5 0 -14 0 -14 -15 0 -15 0 0 14 0 14 -12 4 -13
5 17 16 17 17 10 0 11 0 0 10 0 10 -15 0 -15 0 0 10 0 10 15 0 15 0 0 10 0 10
6 0 5 0 16 -15z m233 -15 l0 -10 -15 0 -15 0 0 10 0 10 15 0 15 0 0 -10z m230
0 l0 -10 15 0 15 0 0 -10 0 -10 -11 0 -10 0 -15 14 -14 15 0 5 0 6 10 0 10 0
0 -10z m-210 -36 l0 -5 -14 -15 -15 -14 -10 0 -11 0 0 10 0 10 15 0 15 0 0 10
0 10 10 0 10 0 0 -6z m116 -8 l14 -15 0 -16 0 -16 -14 -15 -15 -14 -6 0 -6 0
-15 14 -14 15 0 10 0 11 -20 0 -20 0 0 -25 0 -25 -10 0 -10 0 0 21 0 20 14 15
15 14 15 0 16 0 0 10 0 10 21 0 20 0 15 -14z m-246 -41 l0 -15 -10 0 -10 0 0
15 0 15 10 0 10 0 0 -15z m40 0 l0 -15 -10 0 -10 0 0 15 0 15 10 0 10 0 0 -15z
m-130 -21 l0 -5 -14 -15 -15 -14 -30 0 -31 0 0 10 0 10 35 0 35 0 0 10 0 10
10 0 10 0 0 -6z m170 -4 l0 -10 24 0 24 0 5 -12 4 -13 21 24 21 23 16 -15 15
-16 0 -15 0 -16 -10 0 -10 0 0 10 0 10 -18 0 -18 0 -14 -20 -14 -20 -23 0 -23
0 0 -10 0 -10 -20 0 -20 0 0 10 0 10 -16 0 -15 0 -15 15 -15 15 15 15 15 15 5
0 6 0 0 -20 0 -20 10 0 10 0 0 15 0 16 13 14 12 14 8 1 7 0 0 -10z m-354 -25
l15 -15 -15 -15 -15 -15 -6 0 -6 0 -15 15 -15 15 13 14 13 15 8 1 8 0 15 -15z
m224 5 l0 -10 -10 0 -10 0 0 10 0 10 10 0 10 0 0 -10z m310 -40 l0 -10 -10 0
-10 0 0 10 0 10 10 0 10 0 0 -10z m-870 -45 l0 -15 -10 0 -10 0 0 15 0 15 10
0 10 0 0 -15z m200 -25 l0 -10 -15 0 -15 0 0 -10 0 -10 15 0 15 0 0 -10 0 -10
-11 0 -10 0 -15 15 -15 15 13 14 13 15 13 1 12 0 0 -10z m-173 -25 l15 -16 -5
-6 -6 -5 -16 15 -15 16 0 5 0 6 6 0 5 0 16 -15z m-87 -15 l0 -10 -25 0 -25 0
0 10 0 10 25 0 25 0 0 -10z m820 -40 l0 -10 -10 0 -10 0 0 -15 0 -15 -10 0
-10 0 0 10 0 11 13 14 12 14 8 1 7 0 0 -10z m-460 -155 l0 -15 -10 0 -10 0 0
15 0 15 10 0 10 0 0 -15z m90 -55 l0 -20 -9 0 -9 0 -6 13 -6 12 -6 -12 -6 -13
-23 0 -23 0 -5 -12 -4 -13 -8 7 -7 7 15 16 16 15 10 0 11 0 0 10 0 10 30 0 30
0 0 -20z m-170 -30 l0 -10 -10 0 -10 0 0 10 0 10 10 0 10 0 0 -10z m40 0 l0
-10 -10 0 -10 0 0 10 0 10 10 0 10 0 0 -10z"/>
<path d="M890 1095 l0 -15 10 0 10 0 0 15 0 15 -10 0 -10 0 0 -15z"/>
<path d="M590 1050 l0 -10 10 0 10 0 0 10 0 10 -10 0 -10 0 0 -10z"/>
<path d="M560 990 l0 -10 15 0 15 0 0 10 0 10 -15 0 -15 0 0 -10z"/>
<path d="M800 910 l0 -20 10 0 10 0 0 20 0 20 -10 0 -10 0 0 -20z"/>
<path d="M430 900 l0 -10 15 0 15 0 0 10 0 10 -15 0 -15 0 0 -10z"/>
<path d="M340 1060 l-14 -20 -21 0 -21 0 -14 -20 -14 -20 -17 0 -17 0 -5 13
-4 12 -9 -8 -8 -8 14 -10 15 -11 -12 -5 -13 -5 0 -20 0 -19 16 -16 16 -16 9
14 9 14 9 -15 10 -14 19 22 19 22 12 0 11 0 0 25 0 25 -15 0 -15 0 0 10 0 10
14 0 14 0 4 -12 4 -12 28 27 27 27 -15 15 -15 15 -3 0 -4 0 -14 -20z m30 -10
l0 -10 -10 0 -10 0 0 10 0 10 10 0 10 0 0 -10z m-110 -81 l0 -10 -15 -16 -16
-15 -7 7 -7 8 13 4 12 5 0 14 0 14 10 0 10 0 0 -11z"/>
<path d="M850 790 l0 -10 -15 0 -15 0 0 -10 0 -10 11 0 10 0 15 14 14 15 0 5
0 6 -10 0 -10 0 0 -10z"/>
</g>
</svg>
