<?xml version="1.0" standalone="no"?>
<!DOCTYPE svg PUBLIC "-//W3C//DTD SVG 20010904//EN"
 "http://www.w3.org/TR/2001/REC-SVG-20010904/DTD/svg10.dtd">
<svg version="1.0" xmlns="http://www.w3.org/2000/svg"
 width="468pt" height="468pt" viewBox="0 0 468 468"
 preserveAspectRatio="xMidYMid meet">
<metadata>
Created by potrace 1.8, written by Peter Selinger 2001-2007
</metadata>
<g transform="translate(0,468) scale(0.365625,-0.365625)"
fill="#000000" stroke="none">
<path d="M0 640 l0 -640 640 0 640 0 0 640 0 640 -640 0 -640 0 0 -640z m510
340 l0 -210 -210 0 -210 0 0 210 0 210 210 0 210 0 0 -210z m340 -170 l0 -380
-380 0 -380 0 0 125 0 125 255 0 255 0 0 255 0 255 125 0 125 0 0 -380z m340
-170 l0 -550 -550 0 -550 0 0 125 0 125 425 0 425 0 0 425 0 425 125 0 125 0
0 -550z"/>
</g>
</svg>
