<?xml version="1.0" standalone="no"?>
<!DOCTYPE svg PUBLIC "-//W3C//DTD SVG 20010904//EN"
 "http://www.w3.org/TR/2001/REC-SVG-20010904/DTD/svg10.dtd">
<svg version="1.0" xmlns="http://www.w3.org/2000/svg"
 width="468pt" height="468pt" viewBox="0 0 468 468"
 preserveAspectRatio="xMidYMid meet">
<metadata>
Created by potrace 1.8, written by Peter Selinger 2001-2007
</metadata>
<g transform="translate(0,468) scale(0.365625,-0.365625)"
fill="#000000" stroke="none">
<path d="M367 1268 l-11 -7 7 -8 8 -7 8 13 9 13 5 -13 5 -14 10 14 10 13 5
-13 5 -14 10 14 10 13 5 -13 5 -14 12 15 12 15 -6 -18 -6 -18 10 6 10 6 -7
-16 -6 -17 -8 14 -9 13 -9 -14 -9 -13 -5 13 -5 14 -14 -19 -15 -19 -11 7 -10
6 -16 -15 -15 -16 5 -14 6 -15 12 0 11 0 -15 -10 -15 -10 18 -11 17 -10 -6
-11 -7 -11 15 -11 14 -11 7 -18 7 -19 -6 -23 -6 -23 -96 1 -97 0 18 4 17 4 0
9 0 8 -15 6 -14 5 -15 -14 -14 -15 -5 13 -5 12 -14 -19 -15 -19 3 -61 3 -60
-10 14 -9 15 -10 -15 -9 -15 19 -3 20 -3 0 -24 0 -24 -31 -32 -30 -31 6 -6 6
-6 7 10 7 10 18 7 17 6 0 -13 0 -13 56 -7 57 -7 3 3 2 3 7 25 6 26 -21 24 -21
24 3 15 3 14 15 4 15 5 -15 -11 -14 -10 7 -8 8 -7 9 13 8 14 -5 14 -5 13 21 0
21 0 0 -25 0 -26 15 -5 15 -6 0 -14 0 -15 18 -6 17 -7 26 -26 26 -26 316 1
316 1 8 7 7 8 -13 8 -13 9 13 5 14 5 -15 11 -15 11 15 1 15 1 14 2 14 1 4 12
5 13 -16 6 -16 6 0 9 0 9 8 0 9 0 13 -25 13 -25 14 0 13 0 0 -10 0 -9 -14 5
-14 5 -8 -12 -8 -13 0 -65 -1 -66 -75 0 -75 0 1 32 0 32 -8 -5 -8 -5 6 18 6
18 -11 -15 -11 -15 -9 14 -9 13 -5 -13 -5 -14 -10 14 -10 13 -5 -13 -5 -14
-10 14 -10 13 -5 -13 -5 -14 -10 14 -10 13 -5 -13 -5 -14 -12 15 -12 15 6 -18
6 -18 -8 5 -8 5 0 -32 1 -32 -69 -1 -69 0 -11 -16 -11 -15 -12 13 -13 13 -17
10 -18 9 8 8 7 8 14 -20 15 -19 11 11 11 11 3 26 3 26 -8 -5 -9 -5 6 18 6 18
-11 -15 -11 -15 -9 14 -9 13 -5 -13 -5 -14 -10 14 -10 13 -5 -13 -5 -14 -10
14 -10 13 -5 -13 -5 -14 -10 14 -10 13 -5 -13 -5 -14 -10 13 -9 13 0 -41 0
-41 9 13 8 13 9 -14 9 -13 4 13 5 14 9 -8 8 -8 -12 -8 -13 -8 -22 2 -22 2 -1
36 -1 37 -6 7 -7 6 -4 -4 -3 -4 -7 -42 -6 -43 16 0 15 0 -14 -15 -15 -14 -28
-7 -29 -7 -5 -7 -5 -7 -23 -7 -22 -7 -6 15 -6 15 -29 6 -29 7 0 7 0 8 -42 12
-41 13 -14 14 -14 14 -14 0 -14 0 5 -15 6 -15 7 -1 6 -1 20 -3 19 -4 14 -18
14 -18 5 12 4 12 20 -17 19 -16 0 -11 0 -10 -10 15 -10 15 -9 -14 -9 -13 -4
13 -5 14 -9 -8 -8 -8 12 -8 12 -7 42 2 43 2 22 -25 23 -24 0 -5 0 -4 -175 0
-175 0 0 -260 0 -260 640 0 640 0 0 260 0 260 -284 0 -284 0 -6 16 -6 15 -22
-7 -23 -7 -3 -8 -4 -9 -49 0 -49 0 0 9 0 8 49 7 49 6 5 13 5 12 10 -14 10 -13
4 13 5 14 182 0 182 0 9 15 10 15 9 -14 9 -13 6 13 6 14 6 -12 5 -12 20 20 21
21 -7 6 -6 6 -10 -14 -11 -15 5 15 4 15 29 2 29 2 -15 -9 -14 -9 6 -6 6 -6 42
40 42 40 -5 8 -6 9 10 14 9 15 10 -15 10 -15 0 17 0 17 -16 15 -15 16 15 0 16
0 0 13 0 14 -32 -4 -33 -3 25 12 25 12 7 11 8 10 0 15 0 15 -8 -12 -7 -11 -28
-7 -27 -7 0 -9 0 -9 -15 0 -15 0 0 15 0 15 15 0 15 0 0 9 0 9 29 7 29 6 6 16
6 15 -27 -7 -28 -7 -5 -8 -5 -8 -28 -7 -27 -7 0 -9 0 -9 -14 0 -14 0 -6 15 -5
15 14 0 15 0 0 9 0 9 30 7 30 7 0 8 0 8 29 7 29 6 6 14 5 14 -17 11 -17 10 14
9 13 9 -13 5 -14 5 14 10 13 10 -13 6 -14 6 12 6 13 6 -15 14 -14 15 5 14 6
13 -19 11 -19 10 -15 -10 -14 -9 13 0 12 0 0 -9 0 -9 -14 -5 -15 -6 6 14 5 15
-17 6 -17 7 12 7 12 8 -21 21 -21 21 -4 0 -4 0 -5 -14 -6 -14 20 -23 19 -22 0
-14 0 -13 9 0 8 0 6 -35 6 -35 25 -24 26 -23 0 -7 0 -6 -15 0 -15 0 0 -9 0 -9
-30 -7 -30 -7 0 -9 0 -9 -10 0 -11 0 -24 26 -24 26 -60 11 -61 12 0 7 0 8 -19
0 -19 0 -31 31 -31 31 0 13 0 14 -22 7 -21 6 -11 10 -11 9 -19 13 -19 13 8 13
8 12 40 -5 40 -6 9 -15 9 -16 14 0 14 0 13 -13 13 -13 18 -7 17 -6 14 5 15 6
7 31 7 32 10 7 11 7 -8 8 -9 8 -4 -12 -5 -13 -12 13 -13 12 -6 15 -5 15 -1
-12 -1 -12 -50 -7 -50 -7 0 -8 0 -9 -15 0 -15 0 0 24 0 24 23 6 22 6 23 0 22
0 0 9 0 10 46 7 45 6 20 -21 20 -21 14 0 15 0 6 -25 6 -25 14 0 14 0 0 10 0 9
-17 10 -18 9 8 8 8 8 9 -14 10 -15 0 15 0 15 10 -15 9 -14 6 6 7 6 -21 21 -20
20 -5 -12 -4 -12 -11 15 -10 15 -28 2 -28 2 -3 11 -4 10 -33 0 -33 0 -5 -12
-5 -13 -11 15 -11 15 0 -11 0 -12 -15 -6 -14 -5 -15 14 -14 15 -5 -13 -5 -12
-11 15 -10 15 -226 0 -227 0 -11 -7z m143 -8 l0 -10 -10 0 -10 0 0 10 0 10 10
0 10 0 0 -10z m30 5 l0 -5 -21 -21 -21 -21 -5 5 -5 5 19 20 18 20 8 1 7 1 0
-5z m30 -7 l0 -13 11 15 11 15 5 -14 5 -13 9 13 9 14 10 -15 10 -15 0 15 0 15
10 -15 10 -15 11 15 11 15 -5 -15 -4 -15 -62 0 -62 0 -9 -15 -9 -14 -6 6 -7 6
19 20 18 20 8 1 7 1 0 -12z m264 -4 l6 -16 15 5 14 6 -6 -15 -5 -14 -4 0 -4 0
-20 20 -20 20 0 5 0 5 9 0 9 0 6 -16z m-24 -44 l0 -30 -24 0 -24 0 -4 -10 -3
-10 -62 -6 -63 -7 0 -8 0 -9 40 0 40 0 0 10 0 10 10 0 10 0 21 -17 21 -18 20
-17 21 -18 14 0 13 0 0 -15 0 -15 9 0 8 0 7 -40 6 -40 10 0 10 0 0 -10 0 -10
-45 0 -45 0 0 -10 0 -10 -32 -1 -33 -1 18 -5 17 -4 0 -8 0 -8 -31 -7 -32 -6
-81 2 -81 1 33 4 32 4 0 10 0 9 -30 0 -30 0 0 -10 0 -10 -29 0 -29 0 -12 35
-12 35 -8 0 -9 0 -6 -10 -6 -10 15 0 16 0 0 -16 0 -15 -22 7 -23 7 -7 11 -8
11 0 -12 0 -13 -10 0 -10 0 0 13 0 12 -32 0 -31 0 -4 -11 -4 -11 61 -7 60 -7
0 -9 0 -9 55 -6 55 -7 0 -8 0 -7 -50 -7 -50 -7 0 -9 0 -8 -30 -7 -30 -7 -29 7
-30 6 -3 27 -3 27 -32 -1 -32 -2 -16 -15 -15 -16 0 -11 0 -11 13 -14 12 -14
12 -15 13 -15 0 -11 0 -10 -55 0 -55 0 0 104 0 103 44 -1 44 -1 -5 -7 -4 -8
35 0 36 0 0 9 0 10 48 -1 47 0 19 1 19 1 -7 42 -7 42 -9 6 -8 5 -8 30 -7 30
-8 5 -7 5 -7 28 -7 27 30 0 30 0 4 9 3 10 118 7 117 7 0 8 0 9 65 0 65 0 0
-30z m273 16 l6 -15 -15 6 -14 5 0 9 0 9 9 0 9 0 5 -14z m-107 -60 l14 -15 0
-10 0 -11 -20 0 -20 0 0 16 0 16 -12 -4 -12 -4 -3 -11 -4 -10 23 -6 22 -6 -7
-7 -7 -7 -39 13 -40 13 -5 13 -5 14 29 0 30 0 0 10 0 10 21 0 20 0 15 -14z
m264 -62 l0 -4 -21 -21 -21 -21 -6 6 -6 6 19 14 18 13 -7 11 -7 12 15 -6 16
-6 0 -4z m1 -31 l1 -8 2 -37 2 -38 -2 0 -1 0 -27 25 -26 25 17 19 18 19 8 1 7
1 1 -7z m-801 -68 l0 -15 -10 0 -10 0 0 15 0 15 10 0 10 0 0 -15z m-133 -41
l-6 -6 -13 5 -13 5 19 1 19 1 -6 -6z m736 -14 l7 0 0 -89 0 -89 -16 -6 -16 -6
-298 0 -299 0 -8 14 -8 15 -25 10 -25 10 43 0 42 1 0 9 0 9 33 7 32 8 7 11 7
11 117 0 117 0 4 -12 5 -13 49 -6 49 -7 0 -8 0 -9 20 0 20 0 45 -12 45 -12 0
-8 0 -8 20 0 20 0 0 8 0 9 -40 12 -40 12 0 8 0 9 -60 7 -60 7 0 8 0 7 -50 7
-50 7 0 8 0 9 40 7 40 7 0 8 0 9 38 7 37 7 5 7 5 7 30 10 29 9 41 -7 40 -8 8
-1z m71 -46 l5 -14 -22 -21 -22 -20 19 -15 20 -14 -6 -6 -6 -6 -21 21 -21 21
24 23 24 22 -13 12 -14 12 -4 -12 -4 -12 -9 8 -8 8 13 9 14 8 13 -5 12 -5 6
-14z m-30 -19 l-6 -15 -9 0 -9 0 0 9 0 9 13 5 12 5 2 1 2 1 -5 -15z m-4 -65
l0 -10 -10 0 -10 0 0 10 0 10 10 0 10 0 0 -10z m139 -50 l30 -31 -6 -14 -5
-15 -9 0 -9 0 0 10 0 10 11 0 10 0 -28 29 -28 28 -7 -10 -7 -11 -8 7 -7 8 14
9 15 10 2 0 1 0 31 -30z m-65 4 l6 -16 15 6 14 5 16 -15 15 -16 -6 -10 -7 -11
18 -13 17 -13 -26 -24 -26 -24 -29 3 -29 3 -12 -14 -12 -14 6 -9 6 -9 -30 3
-29 4 -10 -18 -9 -17 -9 8 -8 9 18 9 17 10 0 12 0 12 -11 -15 -11 -15 -5 14
-5 13 -10 -13 -10 -14 -5 14 -5 13 -9 -13 -9 -14 -10 15 -11 15 2 -15 1 -15
-1 -15 -1 -15 -11 15 -11 15 -5 -14 -5 -13 -10 13 -10 14 -5 -14 -5 -13 -10
13 -10 14 -5 -14 -5 -13 -10 13 -10 14 -5 -14 -5 -13 -9 13 -9 14 -10 -15 -10
-15 -1 15 -1 15 1 15 2 15 -11 -15 -12 -15 -5 14 -5 13 -10 -13 -10 -14 -5 14
-5 13 -10 -13 -10 -14 -5 14 -5 13 -9 -13 -9 -14 -8 12 -8 12 -24 -29 -25 -30
-22 0 -23 0 0 -9 0 -10 -45 -7 -45 -6 0 -9 0 -9 -25 0 -25 0 0 10 0 9 35 7 35
6 0 8 0 8 27 7 28 7 6 10 7 11 28 -1 29 0 16 17 16 17 61 -2 61 -2 12 14 11
13 -6 10 -6 9 13 14 14 14 58 -2 57 -1 8 -13 8 -13 -5 -13 -4 -12 13 -8 13 -9
68 -1 68 -1 7 11 7 11 1 55 2 55 1 13 1 12 9 0 9 0 6 -16z m-533 -73 l7 -1 5
-13 5 -14 -9 -14 -8 -14 -16 20 -15 20 -15 -19 -15 -20 -13 19 -14 18 -9 -6
-10 -6 -14 10 -15 9 12 8 11 7 54 -1 53 -2 6 -1z m-41 -75 l0 -14 -35 -6 -35
-7 0 -9 0 -8 -32 -7 -33 -8 -6 -9 -6 -9 -39 -6 -39 -6 16 16 17 16 26 7 26 6
0 8 0 8 35 6 35 7 0 9 0 9 18 4 17 5 18 1 17 1 0 -14z m207 -30 l6 -6 -8 -7
-8 -8 -5 14 -4 13 -10 -13 -10 -14 -5 14 -5 13 -9 -13 -9 -14 -10 15 -10 15 0
-11 0 -12 -13 -5 -14 -5 -14 9 -14 9 12 8 12 8 56 -2 55 -1 7 -7z m236 -3 l-5
-13 -9 0 -9 0 0 13 0 12 -10 -15 -9 -14 -8 7 -7 8 11 7 12 8 19 0 20 0 -5 -13z"/>
<path d="M680 1200 l0 -10 55 0 55 0 0 10 0 10 -55 0 -55 0 0 -10z"/>
<path d="M580 1170 l0 -10 45 0 45 0 0 10 0 10 -45 0 -45 0 0 -10z"/>
<path d="M463 1153 l27 -4 28 4 27 4 -55 0 -55 0 28 -4z"/>
<path d="M538 1123 l22 -4 23 4 22 4 -45 0 -45 0 23 -4z"/>
<path d="M463 1113 l17 -4 18 4 17 5 -35 0 -35 0 18 -5z"/>
<path d="M698 1113 l22 -4 23 4 22 4 -45 0 -45 0 23 -4z"/>
<path d="M570 1100 l0 -10 50 0 50 0 0 10 0 10 -50 0 -50 0 0 -10z"/>
<path d="M493 1083 l17 -4 18 4 17 5 -35 0 -35 0 18 -5z"/>
<path d="M710 1070 l0 -10 45 0 45 0 0 10 0 10 -45 0 -45 0 0 -10z"/>
<path d="M618 1053 l22 -4 23 4 22 4 -45 0 -45 0 23 -4z"/>
<path d="M490 1040 l0 -10 45 0 45 0 0 10 0 10 -45 0 -45 0 0 -10z"/>
<path d="M760 1040 l0 -10 35 0 35 0 0 10 0 10 -35 0 -35 0 0 -10z"/>
<path d="M668 1023 l22 -4 23 4 22 4 -45 0 -45 0 23 -4z"/>
<path d="M490 1010 l0 -10 60 0 60 0 0 10 0 10 -60 0 -60 0 0 -10z"/>
<path d="M808 993 l12 -5 13 5 12 5 -25 0 -25 0 13 -5z"/>
<path d="M650 980 l0 -10 60 0 60 0 0 10 0 10 -60 0 -60 0 0 -10z"/>
<path d="M537 963 l33 -4 37 4 38 4 -70 0 -70 0 32 -4z"/>
<path d="M813 963 l17 -4 18 4 17 5 -35 0 -35 0 18 -5z"/>
<path d="M703 953 l27 -4 23 4 22 4 -50 0 -50 0 28 -4z"/>
<path d="M520 940 l0 -10 55 0 55 0 0 10 0 10 -55 0 -55 0 0 -10z"/>
<path d="M640 940 l0 -10 15 0 15 0 0 10 0 10 -15 0 -15 0 0 -10z"/>
<path d="M640 910 l0 -10 35 0 35 0 0 10 0 10 -35 0 -35 0 0 -10z"/>
<path d="M1215 1050 l-6 -10 6 -10 6 -10 12 0 12 0 -15 10 -15 10 15 10 15 10
-12 0 -12 0 -6 -10z"/>
<path d="M1140 760 l15 -10 -14 -9 -13 -9 13 -5 14 -5 -14 -10 -13 -10 13 -5
14 -5 -11 -9 -12 -8 13 -12 14 -12 5 12 6 12 6 -12 5 -12 22 20 22 20 -20 15
-20 15 11 7 12 7 -13 12 -14 12 -5 -12 -5 -12 -11 18 -11 17 -12 0 -12 0 15
-10z m43 -34 l-6 -9 18 -13 19 -14 -6 -6 -6 -6 -24 -2 -23 -3 0 32 0 31 17 0
17 0 -6 -10z"/>
<path d="M1172 696 l13 -14 4 3 3 4 -7 10 -6 11 -10 0 -10 0 13 -14z"/>
<path d="M823 685 l-12 -14 12 -5 12 -4 -14 -10 -15 -10 -1 -19 -1 -18 76 0
76 0 -1 18 -1 19 -15 10 -14 10 12 4 12 5 -12 14 -12 13 -7 -12 -8 -11 -9 14
-9 13 -6 -13 -6 -14 -6 14 -6 13 -9 -13 -9 -14 -7 11 -8 12 -12 -13z m100 -22
l-5 -13 16 -6 15 -6 -12 -13 -12 -13 -8 12 -9 11 -5 -14 -5 -13 -10 13 -10 14
-5 -14 -5 -13 -9 13 -9 14 -7 -11 -8 -12 -12 13 -12 13 15 6 16 6 -5 13 -4 12
47 0 47 0 -4 -12z"/>
<path d="M848 651 l-16 -16 48 0 48 0 -16 16 -17 16 -7 -11 -8 -11 -7 11 -8
11 -17 -16z"/>
<path d="M543 690 l4 -15 13 0 13 0 4 15 5 15 -11 -15 -11 -15 -11 15 -11 15
5 -15z"/>
<path d="M600 691 l0 -10 11 -6 10 -7 4 3 3 4 -14 13 -14 13 0 -10z"/>
<path d="M218 1260 l-4 -12 -37 -2 -37 -3 -7 -6 -6 -7 7 -7 7 -7 8 13 8 13 -1
-59 -1 -58 -73 -1 -73 -1 13 8 12 8 -7 8 -8 7 -8 -12 -8 -13 2 -165 1 -166 15
-10 14 -10 -12 -5 -13 -5 0 -9 0 -9 21 -21 21 -21 6 6 6 6 -18 13 -18 14 6 21
7 22 7 0 8 0 33 31 33 30 -5 6 -6 5 -26 -28 -27 -29 -26 -2 -27 -2 15 9 15 10
-14 9 -13 9 13 5 14 5 -14 10 -13 10 13 5 14 5 -14 10 -13 10 13 5 14 5 -14
10 -13 10 13 5 14 5 -13 10 -14 9 59 -1 58 -2 13 4 14 5 -12 7 -12 7 26 28 25
27 8 -5 9 -6 14 9 14 9 -8 8 -9 8 -5 -14 -4 -13 -9 13 -9 14 -9 -14 -9 -14 2
44 1 44 73 1 73 1 10 -18 9 -19 -20 -20 -20 -20 0 -5 0 -5 15 0 15 0 0 9 0 9
35 6 35 7 0 9 0 9 -17 10 -18 11 13 8 14 9 -17 7 -17 6 5 13 5 14 -8 14 -9 13
-8 -7 -7 -8 13 -8 13 -9 -13 -5 -14 -5 15 -12 15 -12 -15 5 -15 4 -1 59 -2 59
-1 15 -1 15 -10 -15 -10 -15 -9 14 -9 13 -5 -13 -5 -14 -10 14 -10 13 -5 -13
-5 -14 -10 14 -10 13 -4 -12z m96 -72 l-2 -57 14 -12 13 -11 9 6 9 5 -3 -25
-2 -26 -6 -6 -6 -5 -7 8 -8 8 12 4 12 4 -20 22 -20 22 -67 1 -67 1 -12 -9 -11
-9 2 -46 2 -46 -19 -17 -19 -18 5 -9 5 -8 -54 1 -54 1 -7 7 -6 6 8 8 8 7 5
-14 4 -13 10 13 10 14 5 -14 5 -13 9 13 9 14 8 -11 7 -11 27 27 28 28 -13 6
-12 6 14 6 13 6 -13 9 -14 9 11 8 12 7 -13 12 -14 12 -5 -12 -6 -12 -6 14 -6
13 -10 -13 -10 -14 -5 14 -5 13 -10 -13 -10 -14 -5 14 -5 13 -9 -13 -8 -13 -8
7 -7 8 11 7 12 8 60 -2 60 -2 10 12 9 11 -2 43 -2 42 7 12 8 12 8 -7 7 -8 -13
-8 -13 -9 13 -6 14 -6 -14 -6 -13 -6 13 -9 14 -9 -11 -7 -12 -8 13 -12 14 -12
5 12 6 12 6 -14 6 -13 9 13 9 14 9 -14 9 -13 6 13 6 14 6 -12 5 -12 14 12 13
12 -12 8 -11 9 14 5 13 5 -13 9 -14 9 11 8 12 7 -13 12 -14 12 -5 -12 -6 -12
-6 14 -6 13 -10 -13 -10 -14 -5 14 -5 13 -9 -13 -8 -13 -8 7 -7 8 11 7 11 7
49 0 49 0 -2 -57z m-29 -3 l0 -30 -45 0 -45 0 0 30 0 30 45 0 45 0 0 -30z
m-161 -139 l-2 -38 -11 -7 -11 -7 -40 2 -41 1 -6 7 -6 6 8 8 8 7 5 -14 4 -13
10 13 10 14 5 -14 5 -13 10 13 10 14 4 -12 5 -12 14 12 13 12 -12 8 -11 7 11
8 12 7 -13 12 -14 12 -5 -12 -6 -12 -6 14 -6 13 -10 -13 -10 -14 -5 14 -5 13
-9 -13 -8 -13 -8 7 -7 8 11 7 11 7 49 0 49 0 -2 -39z m-28 -6 l0 -16 -39 2
-38 1 -7 7 -6 7 11 7 11 7 34 0 34 0 0 -15z"/>
<path d="M214 1196 l-11 -12 13 -12 13 -11 5 12 4 12 9 -11 8 -12 11 12 11 12
-13 12 -13 11 -5 -12 -4 -12 -9 11 -8 12 -11 -12z"/>
<path d="M330 1264 l0 -7 18 -13 17 -14 -19 -15 -20 -15 7 -6 6 -6 25 27 26
28 0 -12 0 -11 9 0 9 0 5 14 5 13 -29 -3 -30 -4 -5 15 -6 15 -9 0 -9 0 0 -6z"/>
<path d="M96 1224 l-6 -16 -14 5 -14 6 -26 -24 -26 -25 21 -21 21 -21 6 6 6 6
-20 14 -19 15 22 20 22 20 4 -12 5 -12 16 20 16 20 15 -19 15 -20 6 6 6 6 -21
21 -21 21 -4 0 -4 0 -6 -16z"/>
<path d="M330 1230 l0 -10 10 0 10 0 0 10 0 10 -10 0 -10 0 0 -10z"/>
<path d="M96 1194 l-6 -16 -13 5 -14 5 -13 -8 -12 -8 22 -22 22 -22 6 7 7 7
-18 9 -17 10 0 12 0 12 10 -15 9 -15 16 20 15 20 15 -19 15 -20 6 6 6 6 -21
21 -21 21 -4 0 -4 0 -6 -16z"/>
<path d="M1156 1195 l-5 -15 20 -19 21 -19 -6 -11 -7 -11 15 6 16 6 0 5 0 4
-26 24 -27 25 9 0 10 0 27 -31 28 -32 5 6 5 5 -36 36 -36 36 -3 0 -4 0 -6 -15z"/>
<path d="M97 1167 l-5 -14 8 -14 9 -13 8 7 7 8 -14 9 -15 10 12 0 12 0 10 -17
9 -18 7 7 7 6 -21 21 -21 21 -4 0 -4 0 -5 -13z"/>
<path d="M790 1141 l0 -10 10 -6 10 -6 -6 15 -6 16 -4 0 -4 0 0 -9z"/>
<path d="M170 1100 l0 -10 10 0 10 0 0 10 0 10 -10 0 -10 0 0 -10z"/>
<path d="M186 1088 l-18 -20 13 -9 13 -8 10 6 9 6 13 -18 14 -19 6 6 6 6 -22
22 -22 22 -9 -13 -9 -14 0 13 0 13 15 5 15 6 0 9 0 9 -7 -1 -8 -1 -19 -20z"/>
<path d="M226 1095 l-5 -15 20 -19 21 -19 -5 -9 -6 -9 10 -14 9 -15 9 15 10
14 -6 9 -5 9 21 19 20 19 -5 15 -6 15 -9 0 -9 0 0 -10 0 -10 10 0 11 0 -21
-22 -20 -22 -20 22 -21 22 11 0 10 0 0 10 0 10 -9 0 -9 0 -6 -15z"/>
<path d="M257 1097 l-5 -14 9 -14 9 -14 9 14 9 14 -5 14 -5 13 -8 0 -8 0 -5
-13z"/>
<path d="M39 943 l-1 -8 -2 -53 -1 -54 6 -10 6 -10 52 52 52 52 -5 5 -5 5 -44
-46 -44 -46 -9 0 -9 0 15 11 15 11 -14 5 -13 5 13 9 14 9 -14 9 -13 9 13 5 14
5 -15 11 -15 11 13 0 12 0 0 10 0 10 -10 0 -10 0 -1 -7z"/>
<path d="M69 943 l-1 -8 -2 -37 -2 -38 2 0 2 0 42 41 42 41 -6 5 -5 6 -28 -32
-27 -31 -11 0 -10 0 15 10 15 10 -15 10 -15 10 13 0 12 0 0 10 0 10 -10 0 -10
0 -1 -7z"/>
<path d="M97 936 l-6 -15 15 6 14 5 0 9 0 9 -9 0 -9 0 -5 -14z"/>
<path d="M130 820 l0 -10 10 0 10 0 0 10 0 10 -10 0 -10 0 0 -10z"/>
<path d="M1115 799 l-7 -10 -13 4 -12 5 3 -28 4 -29 -18 -10 -17 -9 7 -7 6 -7
22 22 22 22 -13 9 -14 9 10 0 10 0 13 20 12 20 -4 0 -5 0 -6 -11z"/>
<path d="M10 721 l0 -9 16 -6 16 -6 -6 -15 -5 -14 13 -13 14 -13 20 -17 21
-17 4 12 5 12 14 -19 15 -19 12 7 11 7 6 -15 6 -16 8 0 8 0 5 13 5 14 -7 12
-7 11 -25 5 -24 5 -12 17 -13 17 -7 -8 -7 -7 14 -9 15 -9 -25 2 -26 2 -15 15
-16 14 11 12 10 11 14 -13 13 -13 14 5 15 6 0 8 0 8 -24 6 -24 6 -16 -6 -16
-6 -6 16 -6 16 -9 0 -9 0 0 -9z m140 -102 l0 -9 -9 0 -9 0 -5 14 -6 15 15 -6
14 -5 0 -9z m35 -18 l-4 -3 -10 7 -11 6 0 10 0 10 14 -13 14 -13 -3 -4z"/>
<path d="M197 716 l-6 -15 15 6 14 5 0 9 0 9 -9 0 -9 0 -5 -14z"/>
<path d="M650 720 l0 -10 10 0 10 0 0 10 0 10 -10 0 -10 0 0 -10z"/>
<path d="M667 708 l-19 -20 5 -5 5 -5 21 21 21 21 0 5 0 5 -7 -1 -8 -1 -18
-20z"/>
<path d="M675 684 l-40 -45 -5 -6 -5 -7 19 14 20 15 33 33 33 33 0 4 0 5 -7
-1 -8 0 -40 -45z"/>
<path d="M712 693 l-33 -35 4 -5 5 -4 36 36 36 36 0 4 0 5 -7 -1 -8 -1 -33
-35z"/>
<path d="M742 693 l-33 -35 4 -5 5 -4 36 36 36 36 0 4 0 5 -7 -1 -8 -1 -33
-35z"/>
<path d="M970 720 l0 -10 10 0 10 0 0 10 0 10 -10 0 -10 0 0 -10z"/>
<path d="M987 708 l-19 -20 5 -5 5 -5 21 21 21 21 0 5 0 5 -7 -1 -8 -1 -18
-20z"/>
<path d="M1002 693 l-33 -35 5 -5 5 -5 31 33 31 34 14 -18 13 -19 22 22 22 22
-6 6 -6 6 -15 -20 -15 -19 -14 18 -13 17 -4 -1 -4 -1 -33 -35z"/>
<path d="M757 678 l-19 -20 5 -5 5 -5 21 21 21 21 0 5 0 5 -7 -1 -8 -1 -18
-20z"/>
<path d="M1017 678 l-19 -20 6 -6 6 -6 15 20 15 19 14 -18 14 -19 22 22 22 22
-6 6 -6 6 -15 -20 -15 -19 -14 18 -13 17 -4 -1 -4 -1 -18 -20z"/>
<path d="M67 664 l5 -14 9 0 9 0 0 9 0 9 -14 5 -15 6 6 -15z"/>
<path d="M770 660 l0 -10 10 0 10 0 0 10 0 10 -10 0 -10 0 0 -10z"/>
<path d="M1030 660 l0 -10 10 0 10 0 0 10 0 10 -10 0 -10 0 0 -10z"/>
<path d="M1090 660 l0 -10 10 0 10 0 0 10 0 10 -10 0 -10 0 0 -10z"/>
</g>
</svg>
