<?xml version="1.0" standalone="no"?>
<!DOCTYPE svg PUBLIC "-//W3C//DTD SVG 20010904//EN"
 "http://www.w3.org/TR/2001/REC-SVG-20010904/DTD/svg10.dtd">
<svg version="1.0" xmlns="http://www.w3.org/2000/svg"
 width="468pt" height="468pt" viewBox="0 0 468 468"
 preserveAspectRatio="xMidYMid meet">
<metadata>
Created by potrace 1.8, written by Peter Selinger 2001-2007
</metadata>
<g transform="translate(0,468) scale(0.365625,-0.365625)"
fill="#000000" stroke="none">
<path d="M553 1198 l4 -22 10 -3 11 -4 7 10 6 11 -10 0 -11 0 0 15 0 15 -10 0
-10 0 3 -22z"/>
<path d="M530 1170 l0 -15 -27 -17 -28 -17 22 2 22 1 -5 8 -5 7 24 6 23 6 10
-2 9 -1 59 1 59 1 -5 5 -5 6 -69 0 -69 1 -7 11 -8 12 0 -15z"/>
<path d="M710 1141 l0 -8 -83 -5 -83 -6 -50 -30 -49 -31 -24 -31 -23 -32 -10
10 -9 9 12 26 12 27 28 12 29 13 5 12 4 13 -8 0 -9 0 -4 -8 -3 -8 -48 -33 -47
-32 -20 -21 -19 -21 6 -11 6 -11 -8 7 -8 8 -19 -23 -20 -22 -23 -45 -22 -45
-14 -40 -13 -40 3 -17 2 -18 -30 0 -31 0 0 10 0 10 12 0 11 0 -5 5 -6 6 -25
-6 -26 -7 -26 -24 -25 -23 0 -24 0 -25 32 -31 32 -31 18 0 18 0 0 -16 0 -15
11 6 10 7 -6 -35 -7 -35 19 -19 18 -19 3 -19 4 -20 9 -9 9 -10 6 7 7 6 2 25 3
25 -14 12 -14 11 0 19 0 18 -20 -4 -21 -4 6 10 6 9 11 -6 11 -7 -7 29 -7 29
16 -23 16 -22 2 -20 1 -20 7 0 8 0 7 -22 8 -23 -2 -7 -2 -8 8 0 8 0 11 11 12
12 -6 -22 -6 -22 42 -49 42 -50 -10 0 -11 0 -7 0 -8 0 0 10 0 9 -13 13 -12 12
0 -12 0 -12 13 0 12 0 -15 -9 -14 -10 -8 5 -8 5 10 19 10 19 0 7 0 7 -21 -18
-20 -19 9 25 10 25 -14 19 -14 19 -15 -20 -14 -19 20 -18 21 -17 -8 0 -8 0 29
-30 28 -29 7 4 8 5 5 -21 6 -22 15 6 16 6 0 -14 0 -15 10 0 10 0 3 3 2 2 29
-22 28 -23 8 5 8 5 36 -21 36 -21 34 6 34 7 7 -32 7 -31 -13 -24 -12 -24 -11
1 -11 1 -14 -1 -13 -1 6 -15 5 -15 -11 3 -11 2 -19 -32 -20 -33 59 1 58 1 18
16 18 16 -7 -17 -6 -17 41 2 42 1 -11 11 -10 10 0 8 0 8 12 0 11 0 -6 -6 -6
-6 14 -14 14 -14 5 0 6 0 0 18 0 17 -31 38 -30 37 16 0 16 0 29 -30 30 -31 0
-23 0 -22 54 -2 54 -1 -14 29 -15 29 -29 25 -29 24 -36 12 -35 12 0 8 0 8 -5
14 -6 14 40 22 39 22 18 0 19 1 17 13 17 13 -10 10 -10 10 16 0 15 0 0 -9 0
-8 11 0 10 0 -6 10 -6 10 16 0 17 0 -5 14 -6 15 13 -5 12 -5 47 41 47 42 0 13
0 13 -16 13 -16 13 -9 -17 -10 -17 -24 -26 -25 -27 6 -8 5 -8 14 5 15 6 -4 7
-4 6 13 18 13 18 5 -16 6 -15 -11 3 -12 2 -1 -13 0 -13 -15 -9 -14 -9 -13 11
-12 10 -33 -24 -33 -23 -38 -17 -38 -17 -52 -5 -52 -5 40 9 40 9 35 13 35 13
45 30 45 30 17 14 17 15 -5 8 -5 8 12 -2 12 -3 30 55 30 55 9 6 10 6 -2 9 -2
9 18 57 17 57 9 -5 9 -6 -8 -11 -9 -12 -3 -28 -3 -28 -19 -44 -20 -44 -9 -6
-10 -6 0 -16 0 -15 15 12 15 13 7 -7 6 -6 -10 0 -10 0 0 -15 0 -15 7 0 7 0 12
24 13 24 -7 13 -8 12 10 -6 10 -6 12 26 12 26 -12 11 -12 11 8 -14 8 -14 -12
7 -11 7 6 10 5 9 9 -5 9 -6 10 18 9 18 8 40 7 39 21 18 21 17 12 1 12 0 21 30
21 30 -3 22 -3 22 -40 23 -40 23 -52 0 -53 0 -6 28 -7 27 -23 35 -22 35 -27
28 -26 27 -9 -5 -10 -6 5 13 5 13 -50 33 -51 33 -22 -6 -22 -6 14 9 14 10 -8
12 -7 11 -16 -6 -16 -6 7 7 7 7 -18 13 -17 13 -12 1 -13 0 0 -9z m35 -11 l6
-10 -10 0 -10 0 -6 10 -6 10 10 0 10 0 6 -10z m-60 -20 l6 -9 14 6 15 5 1 -23
0 -24 9 20 9 20 1 -15 2 -15 -1 -7 -1 -7 14 5 13 5 -5 -28 -5 -28 -13 -20 -14
-19 -1 24 -1 25 1 16 2 16 -22 -1 -22 -1 -4 -15 -5 -15 11 15 10 14 5 -4 4 -5
7 -37 7 -38 -11 0 -10 0 5 18 6 17 -12 -19 -12 -18 10 -7 10 -6 5 -25 4 -25 2
28 1 27 23 23 22 22 7 -2 6 -2 6 15 6 15 -13 -7 -12 -7 12 13 12 13 16 -13 15
-12 0 16 0 16 -20 0 -20 0 0 12 0 11 7 -6 6 -7 14 12 14 11 -2 -9 -2 -9 7 -17
8 -18 27 -1 26 0 -23 -10 -24 -9 -9 6 -9 5 0 -10 0 -10 -17 6 -16 6 6 -15 6
-16 12 -41 12 -41 9 0 8 0 0 9 0 10 -10 6 -11 7 7 20 6 21 -11 -7 -11 -7 0 8
0 8 9 14 9 14 11 -7 11 -7 0 10 0 10 17 -6 16 -6 -22 -8 -22 -9 18 -27 17 -28
5 -5 4 -5 -6 18 -6 17 19 0 19 0 6 -10 6 -10 -18 -1 -18 -1 18 -5 17 -4 0 -8
0 -8 -34 2 -35 3 -4 -12 -5 -11 50 2 49 3 -6 -10 -6 -10 -21 0 -20 0 6 -27 7
-28 6 -19 5 -19 -17 6 -17 7 -14 0 -15 0 6 10 6 9 12 -3 12 -3 -7 4 -7 4 6 17
6 17 -17 -20 -16 -20 6 17 6 18 -16 6 -16 6 -15 -12 -15 -13 -8 7 -7 8 -6 61
-6 62 -1 -57 -2 -58 -19 0 -20 0 -5 9 -6 9 -20 -5 -20 -5 6 -10 6 -10 -19 11
-20 10 -8 -7 -7 -7 6 35 6 35 -13 -33 -12 -33 -7 6 -6 6 -34 5 -33 5 15 -10
15 -11 -17 0 -18 0 0 -10 0 -11 -20 11 -21 11 6 10 6 9 -16 0 -16 0 5 -9 6 -9
-16 -6 -17 -6 -5 5 -5 5 12 0 12 0 -6 10 -6 10 13 0 13 1 -25 14 -25 14 17 1
17 0 7 -11 6 -11 27 6 26 7 -15 -11 -15 -10 10 0 10 0 22 6 23 6 -5 8 -4 7 26
12 26 12 5 -5 5 -6 -23 -8 -23 -9 18 -7 18 -7 10 10 9 9 -6 20 -7 20 -22 -4
-22 -5 23 11 23 10 -6 9 -5 10 11 7 12 7 -20 11 -19 11 17 17 17 16 6 -14 6
-15 -9 6 -10 5 -6 -10 -6 -10 5 0 4 0 16 -6 16 -6 -4 33 -4 34 -10 -2 -11 -3
-35 15 -36 15 0 6 0 5 10 -6 10 -6 0 11 0 12 15 -6 15 -5 -1 7 -1 7 1 6 1 7
40 0 40 1 5 -9z m-148 -23 l-5 -14 33 -12 34 -12 -5 -14 -6 -14 -15 6 -15 6
14 9 13 10 -28 -7 -29 -6 8 12 7 12 -9 -5 -9 -6 -13 14 -13 14 16 0 15 0 0 10
0 10 6 0 6 0 -5 -13z m-8 -51 l13 -15 -26 -7 -26 -6 7 -11 6 -10 -17 6 -18 7
-6 1 -7 0 20 10 20 9 -35 -5 -34 -5 19 14 20 14 17 -9 17 -9 13 0 13 0 -15 10
-15 10 9 0 10 0 -20 16 -19 15 21 -10 21 -10 12 -15z m36 -26 l-6 -10 23 -9
23 -10 -17 0 -18 -1 0 -10 0 -10 -8 0 -8 0 -20 15 -19 15 30 -6 30 -7 -8 9 -9
9 -9 1 -9 2 -7 1 -8 1 15 10 15 10 8 0 8 0 -6 -10z m-179 -14 l6 -14 -15 -24
-15 -23 -6 -28 -7 -28 -19 -19 -20 -20 10 0 10 0 0 -20 0 -20 -12 0 -13 0 12
-8 12 -8 -8 -36 -9 -37 6 -5 5 -6 -20 0 -21 0 -6 15 -6 16 15 5 15 6 -5 9 -6
8 12 68 11 68 10 12 10 13 -4 18 -5 19 18 12 19 11 0 15 0 15 10 0 11 0 5 -14z
m76 -14 l-12 -4 5 -8 5 -9 -20 2 -21 1 15 12 16 11 -7 7 -7 7 19 -7 19 -8 -12
-4z m55 -19 l5 -13 -24 -9 -23 -8 -25 -7 -25 -6 28 13 27 13 -7 8 -8 8 25 -7
25 -7 -20 16 -20 17 19 -3 19 -3 4 -12z m423 13 l0 -4 -25 -4 -24 -5 5 8 5 9
20 0 19 0 0 -4z m-379 -34 l-13 -4 -10 10 -11 11 24 -6 23 -7 -13 -4z m-253
-15 l3 -17 -14 5 -14 6 0 15 0 15 11 -4 11 -4 3 -16z m117 13 l-6 -10 -17 1
-17 0 20 9 20 9 3 0 3 1 -6 -10z m535 -10 l0 -10 -17 0 -18 0 15 10 15 10 3 0
2 0 0 -10z m-450 -10 l0 -10 -4 0 -5 0 -6 10 -6 10 10 0 11 0 0 -10z m31 -13
l-12 -12 7 18 6 18 6 -6 6 -5 -13 -13z m442 -4 l-13 -5 -12 5 -13 5 25 0 25 0
-12 -5z m-563 -18 l0 -3 -19 -5 -20 -5 6 14 5 13 14 -6 14 -5 0 -3z m570 -5
l-15 -10 -12 0 -13 0 0 10 0 10 28 0 27 0 -15 -10z m-705 -10 l6 -10 -15 6
-16 6 -1 -13 -1 -14 1 -7 1 -7 -14 5 -14 6 16 19 16 19 8 0 7 0 6 -10z m149
-5 l-6 -15 -8 0 -9 0 -14 -14 -14 -14 -14 9 -14 9 16 0 16 0 23 20 23 20 3 0
3 0 -5 -15z m506 -14 l0 -9 -15 2 -14 2 -7 7 -7 7 21 0 22 0 0 -9z m-325 -27
l0 -19 -17 1 -18 2 5 -8 5 -8 49 -7 49 -7 -5 -21 -5 -22 11 15 11 15 0 -12 0
-13 10 0 10 0 0 14 0 15 28 4 27 4 -39 2 -38 1 6 23 6 22 0 14 0 13 13 -9 12
-10 18 2 17 3 1 -21 0 -22 8 19 7 18 16 -16 17 -16 16 6 16 6 -3 -12 -3 -13
25 -7 25 -7 60 3 60 3 -15 -9 -15 -10 8 -1 7 -1 10 -3 10 -2 7 -2 7 -1 -12
-12 -12 -12 -15 -2 -15 -2 0 10 0 10 17 -7 18 -6 -20 19 -20 19 -7 -4 -7 -4 9
-23 9 -24 -18 -5 -18 -4 -18 10 -18 10 7 -11 6 -10 -26 -6 -25 -7 -9 6 -10 6
0 -11 0 -11 38 3 37 4 45 13 45 12 26 8 27 8 13 -8 13 -8 -4 -3 -5 -4 -25 -12
-25 -12 25 6 25 7 15 1 14 1 4 -16 3 -16 -93 -16 -93 -16 -127 -17 -127 -17
-18 14 -17 14 7 -12 7 -11 -96 -7 -96 -8 -151 10 -152 10 -47 21 -48 21 0 40
0 39 16 6 16 6 21 0 22 0 -22 -18 -23 -17 26 -2 27 -1 8 -14 9 -13 0 13 0 12
10 0 10 0 0 -14 0 -14 42 -11 43 -12 13 -4 12 -4 -10 6 -10 5 0 19 0 19 19 0
19 0 -5 -20 -5 -20 111 0 111 0 0 -12 0 -13 8 11 7 11 35 6 35 6 86 4 87 4 10
7 11 7 -10 23 -11 23 12 24 11 24 -15 -19 -16 -20 0 -9 0 -8 11 -21 11 -20
-19 4 -18 3 2 25 3 25 -9 -20 -8 -20 4 -7 4 -8 -45 0 -44 0 -19 -6 -18 -6 15
11 15 11 -5 1 -5 1 -25 2 -25 3 -22 7 -22 7 6 15 5 14 -15 0 -16 0 -9 17 -10
17 15 23 15 23 14 0 14 0 -1 8 -1 7 1 7 1 6 18 -2 17 -3 0 -19z m83 0 l2 -1
-6 -17 -6 -16 -18 0 -18 0 -15 6 -14 5 4 23 5 24 31 -12 32 -11 3 -1z m-253 6
l6 -10 -13 0 -13 -1 19 -11 19 -11 -24 -13 -24 -13 15 -1 15 0 -15 -11 -15
-10 20 4 20 3 -3 12 -2 12 31 7 31 6 -12 7 -12 7 21 6 21 5 -11 -19 -10 -19
-19 0 -20 0 2 -7 3 -8 -20 -22 -19 -23 -8 0 -8 0 3 12 2 12 -19 4 -18 4 7 -12
7 -11 -21 -6 -21 -5 0 -8 0 -8 -14 -5 -15 -6 5 14 6 14 18 6 18 6 6 14 5 15
-9 0 -9 0 -16 -16 -16 -16 -5 5 -6 6 30 29 31 30 -6 6 -6 6 11 0 11 0 5 -9 6
-9 -12 -5 -13 -5 15 -1 15 -1 15 10 14 9 -16 6 -17 7 6 14 5 14 8 0 9 0 6 -10z
m60 0 l6 -10 -10 0 -9 0 -18 -7 -18 -7 14 17 15 16 7 1 7 0 6 -10z m334 -7
l-11 -13 -9 6 -9 5 4 8 5 8 15 0 16 0 -11 -14z m154 10 l-13 -5 -12 5 -13 5
25 0 25 0 -12 -5z m-50 -22 l5 -19 -17 3 -16 2 -3 16 -3 17 14 0 15 0 5 -19z
m73 2 l-19 -5 14 -9 14 -9 -27 0 -28 0 0 15 0 15 33 -1 32 -1 -19 -5z m95 0
l-14 -6 24 -18 24 -19 -27 0 -27 0 -11 18 -12 17 6 -17 5 -18 -8 0 -9 0 -4 25
-5 25 36 -1 36 -1 -14 -5z m68 -14 l31 -11 0 -9 0 -9 -28 0 -28 0 -12 12 -12
12 0 8 0 8 9 0 8 0 32 -11z m-664 -51 l-6 -15 -22 -12 -22 -12 18 6 19 5 14 0
15 0 -6 10 -6 10 16 -7 17 -6 -12 -7 -12 -7 2 -9 2 -8 -14 -4 -13 -4 15 12 15
11 -36 -5 -35 -6 -7 6 -6 6 32 29 31 28 3 -3 3 -3 -5 -15z m640 13 l5 -10 -22
-21 -23 -21 18 7 18 6 10 19 10 19 19 0 20 0 0 -17 0 -17 -27 -23 -26 -23 -8
0 -7 0 -31 25 -30 26 5 14 6 14 26 4 27 4 2 2 2 1 6 -9z m-75 -11 l0 -10 -10
0 -10 0 0 10 0 10 10 0 10 0 0 -10z m-823 -17 l-7 -6 13 -16 12 -16 -17 14
-18 13 6 9 5 9 6 0 6 0 -6 -7z m160 -10 l0 -18 -11 -8 -11 -9 30 6 30 7 -15
-11 -15 -10 10 0 10 0 -15 -10 -15 -10 -15 0 -15 0 15 10 14 9 -17 7 -18 7
-14 -19 -13 -19 -7 7 -6 6 16 13 16 14 21 23 22 22 1 0 2 0 0 -17z m-227 -2
l0 -9 -12 -5 -13 -4 -12 5 -13 4 6 9 5 9 20 0 19 0 0 -9z m301 -46 l1 -9 -10
-4 -10 -3 -6 16 -6 16 16 -3 15 -3 0 -10z m114 6 l-10 -8 -26 -6 -26 -7 0 15
0 15 36 0 35 0 -9 -9z m323 -83 l-3 -13 23 -3 22 -3 -1 -17 -1 -17 -5 13 -5
12 -16 0 -17 0 15 -10 15 -10 -7 0 -6 0 -18 -7 -17 -6 8 14 9 14 -18 -14 -17
-14 13 -8 13 -9 -18 0 -18 0 7 23 7 22 -20 -17 -19 -18 -12 12 -12 12 0 -20 0
-21 61 -2 61 -2 -8 13 -7 13 13 -12 14 -13 -5 -4 -4 -4 -68 -3 -69 -2 -9 14
-9 14 0 -10 0 -10 8 -11 7 -11 15 -6 15 -5 -17 -1 -17 -1 -6 10 -6 10 -10 0
-10 0 5 -9 6 -9 -32 -11 -31 -11 -16 0 -16 0 15 11 15 11 -30 -5 -30 -6 -20
-6 -20 -6 25 16 25 16 -23 -4 -22 -5 5 8 5 9 -11 6 -10 7 22 16 22 15 -17 13
-18 12 22 12 22 12 25 -7 25 -6 16 13 17 13 -14 -18 -15 -18 -22 5 -22 6 -16
-6 -17 -6 12 -14 11 -14 47 0 47 0 13 -12 14 -13 -7 12 -7 12 21 -4 20 -4 0
14 0 14 -18 -4 -19 -3 -14 9 -14 10 20 -3 20 -3 -3 15 -3 15 12 -12 13 -13 18
17 18 16 30 -1 30 -1 5 10 6 9 5 0 4 0 -2 -12z m-358 -30 l0 12 15 0 15 0 1
-32 2 -33 2 -30 2 -30 8 -37 7 -38 13 0 13 0 6 15 5 15 12 0 12 0 -28 -26 -28
-25 6 -50 6 -49 17 -35 16 -35 9 0 8 0 -6 18 -7 17 17 -17 17 -17 0 -5 0 -6
-42 3 -43 2 -12 8 -13 8 0 15 0 14 15 0 15 0 0 10 0 10 -20 0 -19 0 -7 34 -6
35 -11 -3 -12 -3 8 4 7 5 0 44 0 44 18 1 17 1 -17 5 -18 4 0 11 0 10 15 -6 15
-5 0 9 0 10 -16 0 -16 0 6 16 6 15 -10 -6 -10 -6 0 24 0 25 -6 33 -6 34 11
-15 11 -15 0 13z m515 3 l5 -10 -8 -5 -9 -5 0 14 0 15 3 0 3 0 6 -9z m-761
-17 l6 -16 0 -14 0 -14 -15 0 -15 0 0 30 0 30 9 0 9 0 6 -16z m191 -14 l-4
-20 15 0 14 0 0 -9 0 -9 -30 11 -29 11 12 8 12 8 -15 0 -15 0 15 10 15 10 7 0
7 0 -4 -20z m205 4 l0 -4 -21 0 -20 0 6 10 6 9 14 -6 15 -5 0 -4z m-450 -4 l0
-10 -10 0 -10 0 0 10 0 10 10 0 10 0 0 -10z m117 -35 l0 -36 -8 12 -7 12 3 16
3 16 1 8 1 7 3 0 4 0 0 -35z m248 25 l6 -10 -10 0 -11 0 0 10 0 10 4 0 5 0 6
-10z m372 4 l-6 -6 -13 5 -13 5 19 1 19 1 -6 -6z m-807 -29 l0 -15 -4 0 -4 0
-6 15 -5 15 9 0 10 0 0 -15z m71 -2 l14 -18 -17 14 -18 13 0 4 0 4 4 0 4 0 13
-17z m158 -6 l-1 -12 -5 13 -5 12 -10 -6 -11 -7 7 12 7 11 10 -5 9 -6 -1 -12z
m-93 -11 l14 -15 7 -33 6 -33 14 -22 15 -22 -7 -11 -6 -10 -8 0 -8 0 -13 28
-14 27 -13 35 -13 35 0 18 0 17 6 0 5 0 15 -14z m734 10 l0 -5 -10 -6 -10 -6
0 10 0 11 10 0 10 0 0 -4z m-851 -27 l-14 -9 13 0 13 0 -7 -11 -6 -11 -8 13
-8 12 5 14 5 13 10 -6 10 -6 -13 -9z m323 -6 l-12 -5 7 -11 7 -12 2 -12 2 -12
-15 6 -15 6 12 7 13 8 -23 7 -23 7 14 9 14 9 15 -1 15 -1 -13 -5z m398 -3 l0
-9 17 6 16 6 -6 -10 -6 -10 -47 -2 -47 -1 -16 -13 -15 -12 7 18 6 17 -12 0
-12 0 15 10 15 10 43 0 42 0 0 -10z m-264 -15 l-20 -15 -15 0 -16 1 30 14 30
13 5 1 5 0 -19 -14z m141 9 l-6 -6 -13 5 -13 5 19 1 19 1 -6 -6z m-319 -28
l-13 -14 -4 3 -3 4 7 10 6 11 10 0 10 0 -13 -14z m223 7 l-13 -5 12 -8 12 -7
-21 -6 -21 -5 6 9 5 9 -18 1 -18 1 25 8 25 8 10 0 10 0 -14 -5z m102 -9 l-6
-16 -18 5 -19 5 0 -8 0 -9 16 -15 15 -16 -15 0 -16 0 0 15 0 15 -12 0 -11 0
18 20 18 20 18 0 18 0 -6 -16z m-562 -27 l-11 -11 -6 7 -6 6 7 10 6 11 11 -6
10 -6 -11 -11z m209 9 l0 -4 -16 -6 -15 -6 6 10 6 10 10 0 9 0 0 -4z m52 -5
l-14 -8 18 -7 17 -6 -6 -7 -7 -6 11 -13 10 -12 -12 -8 -12 -7 7 11 6 11 -8 5
-8 5 -28 -14 -27 -14 7 10 7 11 -22 -7 -21 -6 0 10 0 10 10 6 11 7 12 -10 12
-10 24 12 24 13 -29 8 -29 7 20 8 20 9 10 0 10 1 -13 -9z m222 -13 l-6 -23 -2
-20 -3 -20 -19 3 -19 4 -4 4 -4 4 16 0 16 0 6 20 6 20 -5 9 -6 9 12 5 13 5 2
1 2 1 -5 -22z m173 14 l-17 -4 6 -11 7 -12 -14 13 -13 12 -15 0 -16 0 15 -10
15 -10 -17 0 -18 0 0 14 0 15 43 -1 42 -2 -18 -4z m-77 -11 l0 -10 -8 -5 -9
-5 0 14 0 15 9 0 8 0 0 -9z m-137 -23 l4 -13 -23 0 -24 0 17 13 17 12 2 0 2 0
5 -12z m94 -14 l-6 -6 -13 5 -13 5 19 1 19 1 -6 -6z m-391 -32 l-16 -4 5 -9 6
-9 -15 6 -15 6 6 -22 6 -21 5 5 5 5 18 -10 19 -10 0 -10 0 -10 -16 15 -16 16
-9 -6 -10 -6 -6 21 -5 21 -12 -2 -12 -3 -1 10 -1 10 9 -2 9 -3 0 10 0 9 15 -6
16 -5 -2 8 -1 9 1 9 1 8 17 -13 16 -14 -17 -3z m424 21 l0 -8 -23 -11 -24 -11
0 13 0 13 8 -5 8 -4 6 10 6 10 10 0 9 0 0 -7z m-165 -13 l6 -10 -16 0 -16 0 6
10 6 10 4 0 4 0 6 -10z m-198 -50 l13 0 0 -8 0 -9 27 -12 26 -12 11 11 10 10
10 0 10 0 -20 -16 -19 -15 21 4 22 5 -3 -17 -2 -16 -19 -2 -19 -3 20 10 20 10
-35 -5 -35 -5 13 9 14 8 -29 11 -28 11 -29 24 -29 25 8 13 9 13 9 -22 10 -22
14 0z m301 28 l-5 -13 -21 -3 -22 -3 0 -9 0 -8 -22 -5 -23 -6 17 13 18 13 -8
7 -7 8 10 -2 10 -2 25 1 25 1 -15 10 -15 10 18 0 19 0 -4 -12z m-258 -28 l0
-10 -11 0 -10 0 6 10 6 10 5 0 4 0 0 -10z m60 0 l0 -10 -11 0 -10 0 6 10 6 10
5 0 4 0 0 -10z m264 -29 l6 -9 -15 -5 -14 -6 6 15 5 14 3 0 4 0 5 -9z m-74
-32 l0 -10 -10 6 -10 6 0 -10 0 -11 -11 0 -11 0 12 15 12 15 9 0 9 0 0 -11z
m-53 -79 l-1 -20 -23 0 -23 0 0 20 0 20 24 0 25 0 -2 -20z m53 -40 l0 -9 13 5
14 5 13 -18 14 -18 -14 13 -14 12 -9 0 -8 0 6 -10 6 -10 -4 0 -4 0 -18 20 -18
20 11 0 12 0 0 -10z m-130 -22 l11 -23 -15 19 -15 19 -15 -12 -15 -12 6 -15 5
-14 17 -1 16 -1 -13 -5 -12 -5 4 -7 5 -7 -20 -1 -19 -2 0 10 0 9 10 0 9 0 -5
15 -6 15 -9 -6 -9 -5 0 10 0 11 1 8 0 7 14 -3 13 -3 7 11 6 10 9 0 9 0 11 -22z
m-15 -18 l6 -10 -10 0 -11 0 0 10 0 10 4 0 5 0 6 -10z"/>
<path d="M626 1096 l17 -13 -13 -8 -13 -8 7 11 7 12 -15 0 -15 0 -5 -9 -6 -9
15 -6 15 -5 16 6 15 6 -5 13 -5 13 19 -2 19 -1 -10 -12 -10 -12 10 -6 10 -6 3
7 4 8 0 15 -1 15 -38 2 -38 1 17 -12z"/>
<path d="M662 980 l-12 -20 0 -12 0 -13 15 29 15 29 -3 3 -3 3 -12 -19z"/>
<path d="M624 955 l2 -14 7 -7 7 -7 0 16 0 16 -9 5 -9 6 2 -15z"/>
<path d="M838 863 l13 -5 6 6 6 6 -19 -1 -19 -1 13 -5z"/>
<path d="M540 776 l0 -4 16 -6 15 -6 -6 10 -6 10 -10 0 -9 0 0 -4z"/>
<path d="M580 776 l0 -4 15 -6 15 -5 0 9 0 10 -15 0 -15 0 0 -4z"/>
<path d="M838 745 l4 -35 8 0 8 0 -2 32 -2 32 -10 3 -10 3 4 -35z"/>
<path d="M621 750 l-1 -25 -10 15 -10 15 0 -10 0 -10 10 -15 10 -15 0 12 0 11
22 -6 21 -5 -7 12 -7 11 -9 -5 -9 -5 -4 22 -4 23 -2 -25z"/>
<path d="M655 760 l-6 -10 10 0 11 0 0 10 0 10 -4 0 -5 0 -6 -10z"/>
<path d="M750 750 l0 -10 9 0 10 0 6 10 6 10 -15 0 -16 0 0 -10z"/>
<path d="M94 666 l-12 -13 34 1 33 2 8 8 8 9 -12 -7 -13 -7 -17 9 -18 10 -11
-12z"/>
<path d="M956 673 l-6 -7 -43 -7 -42 -7 45 1 45 1 25 13 25 13 -21 0 -21 0 -7
-7z"/>
<path d="M170 644 l15 -7 5 -6 5 -7 30 7 30 7 -25 1 -25 1 -25 5 -25 5 15 -6z"/>
<path d="M675 640 l-50 -7 40 -1 40 0 50 8 50 7 -40 0 -40 0 -50 -7z"/>
<path d="M399 613 l-14 -18 18 14 17 13 0 4 0 4 -4 0 -4 0 -13 -17z"/>
<path d="M380 770 l15 -10 15 1 15 0 -20 9 -20 9 -10 0 -10 1 15 -10z"/>
<path d="M854 579 l-22 -8 -8 -13 -8 -13 17 14 17 13 1 -8 1 -9 -1 -10 -1 -10
12 16 13 16 14 5 15 4 -15 6 -14 5 -21 -8z"/>
<path d="M712 500 l0 -25 5 13 5 12 -5 13 -5 12 0 -25z"/>
<path d="M590 300 l0 -10 15 0 15 0 0 10 0 10 -15 0 -15 0 0 -10z"/>
<path d="M600 270 l0 -10 15 0 15 0 0 10 0 10 -15 0 -15 0 0 -10z"/>
<path d="M615 210 l6 -10 17 0 17 0 -15 10 -15 10 -8 0 -8 0 6 -10z"/>
<path d="M883 453 l17 -4 18 4 17 5 -35 0 -35 0 18 -5z"/>
</g>
</svg>
