<?xml version="1.0" standalone="no"?>
<!DOCTYPE svg PUBLIC "-//W3C//DTD SVG 20010904//EN"
 "http://www.w3.org/TR/2001/REC-SVG-20010904/DTD/svg10.dtd">
<svg version="1.0" xmlns="http://www.w3.org/2000/svg"
 width="468pt" height="468pt" viewBox="0 0 468 468"
 preserveAspectRatio="xMidYMid meet">
<metadata>
Created by potrace 1.8, written by Peter Selinger 2001-2007
</metadata>
<g transform="translate(0,468) scale(0.365625,-0.365625)"
fill="#000000" stroke="none">
<path d="M240 1140 l0 -100 -40 0 -40 0 0 -40 0 -40 -20 0 -20 0 0 -60 0 -60
20 0 20 0 0 -20 0 -20 20 0 20 0 0 -40 0 -40 -20 0 -20 0 0 -20 0 -20 20 0 20
0 0 -20 0 -20 20 0 20 0 0 -100 0 -100 -20 0 -20 0 0 20 0 20 -20 0 -20 0 0
-20 0 -20 -20 0 -20 0 0 -60 0 -60 20 0 20 0 0 -20 0 -20 20 0 20 0 0 20 0 20
40 0 40 0 0 -160 0 -160 20 0 20 0 0 160 0 160 20 0 20 0 0 -20 0 -20 20 0 20
0 0 -20 0 -20 20 0 20 0 0 -20 0 -20 20 0 20 0 0 -60 0 -60 20 0 20 0 0 -20 0
-20 60 0 60 0 0 20 0 20 20 0 20 0 0 -20 0 -20 60 0 60 0 0 20 0 20 20 0 20 0
0 60 0 60 20 0 20 0 0 20 0 20 20 0 20 0 0 20 0 20 20 0 20 0 0 20 0 20 20 0
20 0 0 -160 0 -160 20 0 20 0 0 160 0 160 40 0 40 0 0 -20 0 -20 20 0 20 0 0
20 0 20 20 0 20 0 0 60 0 60 -20 0 -20 0 0 20 0 20 -20 0 -20 0 0 -20 0 -20
-20 0 -20 0 0 100 0 100 20 0 20 0 0 20 0 20 20 0 20 0 0 20 0 20 -20 0 -20 0
0 40 0 40 20 0 20 0 0 20 0 20 20 0 20 0 0 60 0 60 -20 0 -20 0 0 40 0 40 -40
0 -40 0 0 100 0 100 -20 0 -20 0 0 -180 0 -180 -20 0 -20 0 0 -100 0 -100 20
0 20 0 0 -140 0 -140 -20 0 -20 0 0 -20 0 -20 -20 0 -20 0 0 -20 0 -20 -20 0
-20 0 0 -20 0 -20 -20 0 -20 0 0 -20 0 -20 -20 0 -20 0 0 -20 0 -20 -20 0 -20
0 0 -60 0 -60 -60 0 -60 0 0 20 0 20 -20 0 -20 0 0 -20 0 -20 -60 0 -60 0 0
60 0 60 -20 0 -20 0 0 20 0 20 -20 0 -20 0 0 20 0 20 -20 0 -20 0 0 20 0 20
-20 0 -20 0 0 20 0 20 -20 0 -20 0 0 20 0 20 -20 0 -20 0 0 140 0 140 20 0 20
0 0 100 0 100 -20 0 -20 0 0 180 0 180 -20 0 -20 0 0 -100z m0 -200 l0 -60 20
0 20 0 0 -100 0 -100 -40 0 -40 0 0 20 0 20 20 0 20 0 0 40 0 40 -20 0 -20 0
0 20 0 20 -20 0 -20 0 0 60 0 60 20 0 20 0 0 20 0 20 20 0 20 0 0 -60z m880
40 l0 -20 20 0 20 0 0 -60 0 -60 -20 0 -20 0 0 -20 0 -20 -20 0 -20 0 0 -40 0
-40 20 0 20 0 0 -20 0 -20 -40 0 -40 0 0 100 0 100 20 0 20 0 0 60 0 60 20 0
20 0 0 -20z m-920 -600 l0 -60 -20 0 -20 0 0 60 0 60 20 0 20 0 0 -60z m960 0
l0 -60 -20 0 -20 0 0 60 0 60 20 0 20 0 0 -60z m-880 0 l0 -20 -20 0 -20 0 0
20 0 20 20 0 20 0 0 -20z m800 0 l0 -20 -20 0 -20 0 0 20 0 20 20 0 20 0 0
-20z"/>
<path d="M320 1220 l0 -20 20 0 20 0 0 20 0 20 -20 0 -20 0 0 -20z"/>
<path d="M400 1220 l0 -20 20 0 20 0 0 20 0 20 -20 0 -20 0 0 -20z"/>
<path d="M480 1220 l0 -20 20 0 20 0 0 20 0 20 -20 0 -20 0 0 -20z"/>
<path d="M560 1220 l0 -20 20 0 20 0 0 20 0 20 -20 0 -20 0 0 -20z"/>
<path d="M640 1220 l0 -20 20 0 20 0 0 20 0 20 -20 0 -20 0 0 -20z"/>
<path d="M720 1220 l0 -20 20 0 20 0 0 20 0 20 -20 0 -20 0 0 -20z"/>
<path d="M800 1220 l0 -20 20 0 20 0 0 20 0 20 -20 0 -20 0 0 -20z"/>
<path d="M880 1220 l0 -20 20 0 20 0 0 20 0 20 -20 0 -20 0 0 -20z"/>
<path d="M960 1220 l0 -20 20 0 20 0 0 20 0 20 -20 0 -20 0 0 -20z"/>
<path d="M320 1120 l0 -40 40 0 40 0 0 -20 0 -20 -20 0 -20 0 0 -120 0 -120
80 0 80 0 0 20 0 20 20 0 20 0 0 100 0 100 20 0 20 0 0 -140 0 -140 -40 0 -40
0 0 -20 0 -20 -20 0 -20 0 0 -60 0 -60 20 0 20 0 0 -20 0 -20 40 0 40 0 0 -20
0 -20 60 0 60 0 0 20 0 20 40 0 40 0 0 20 0 20 20 0 20 0 0 60 0 60 -20 0 -20
0 0 20 0 20 -40 0 -40 0 0 140 0 140 20 0 20 0 0 -100 0 -100 20 0 20 0 0 -20
0 -20 80 0 80 0 0 120 0 120 -20 0 -20 0 0 20 0 20 40 0 40 0 0 40 0 40 -120
0 -120 0 0 -20 0 -20 -20 0 -20 0 0 -20 0 -20 -20 0 -20 0 0 -20 0 -20 -20 0
-20 0 0 20 0 20 -20 0 -20 0 0 20 0 20 -20 0 -20 0 0 20 0 20 -120 0 -120 0 0
-40z m240 -60 l0 -20 -20 0 -20 0 0 -100 0 -100 -20 0 -20 0 0 80 0 80 -20 0
-20 0 0 -80 0 -80 -20 0 -20 0 0 100 0 100 60 0 60 0 0 20 0 20 20 0 20 0 0
-20z m240 0 l0 -20 60 0 60 0 0 -100 0 -100 -20 0 -20 0 0 80 0 80 -20 0 -20
0 0 -80 0 -80 -20 0 -20 0 0 100 0 100 -20 0 -20 0 0 20 0 20 20 0 20 0 0 -20z
m-120 -240 l0 -140 20 0 20 0 0 20 0 20 40 0 40 0 0 -60 0 -60 -40 0 -40 0 0
-20 0 -20 -60 0 -60 0 0 20 0 20 -40 0 -40 0 0 60 0 60 40 0 40 0 0 -20 0 -20
20 0 20 0 0 140 0 140 20 0 20 0 0 -140z"/>
<path d="M480 460 l0 -20 -20 0 -20 0 0 -40 0 -40 20 0 20 0 0 40 0 40 180 0
180 0 0 -40 0 -40 20 0 20 0 0 40 0 40 -20 0 -20 0 0 20 0 20 -180 0 -180 0 0
-20z"/>
<path d="M640 380 l0 -20 20 0 20 0 0 20 0 20 -20 0 -20 0 0 -20z"/>
<path d="M600 300 l0 -20 60 0 60 0 0 20 0 20 -60 0 -60 0 0 -20z"/>
</g>
</svg>
