<?xml version="1.0" standalone="no"?>
<!DOCTYPE svg PUBLIC "-//W3C//DTD SVG 20010904//EN"
 "http://www.w3.org/TR/2001/REC-SVG-20010904/DTD/svg10.dtd">
<svg version="1.0" xmlns="http://www.w3.org/2000/svg"
 width="468pt" height="468pt" viewBox="0 0 468 468"
 preserveAspectRatio="xMidYMid meet">
<metadata>
Created by potrace 1.8, written by Peter Selinger 2001-2007
</metadata>
<g transform="translate(0,468) scale(0.365625,-0.365625)"
fill="#000000" stroke="none">
<path d="M30 1265 l0 -15 25 0 25 0 0 -10 0 -10 -25 0 -25 0 0 10 0 10 -15 0
-15 0 0 -25 0 -25 15 0 15 0 0 -10 0 -10 -15 0 -15 0 0 -40 0 -40 15 0 15 0 0
-10 0 -10 25 0 25 0 0 -15 0 -15 -25 0 -25 0 0 15 0 15 -15 0 -15 0 0 -25 0
-25 15 0 15 0 0 -15 0 -15 -15 0 -15 0 0 -25 0 -25 15 0 15 0 0 15 0 15 25 0
25 0 0 -15 0 -15 -25 0 -25 0 0 -10 0 -10 -15 0 -15 0 0 -40 0 -40 15 0 15 0
0 -10 0 -10 -15 0 -15 0 0 -25 0 -25 15 0 15 0 0 10 0 10 25 0 25 0 0 -10 0
-10 24 0 24 0 6 13 6 12 6 -12 6 -13 24 0 24 0 0 -15 0 -15 -25 0 -25 0 0 15
0 15 -10 0 -10 0 0 -15 0 -15 -25 0 -25 0 0 15 0 15 -25 0 -25 0 0 -15 0 -15
-15 0 -15 0 0 -35 0 -35 15 0 15 0 0 -15 0 -15 25 0 25 0 0 -10 0 -10 -25 0
-25 0 0 10 0 10 -15 0 -15 0 0 -25 0 -25 15 0 15 0 0 -10 0 -10 -15 0 -15 0 0
-25 0 -25 15 0 15 0 0 10 0 10 25 0 25 0 0 -10 0 -10 -25 0 -25 0 0 -15 0 -15
-15 0 -15 0 0 -35 0 -35 15 0 15 0 0 -15 0 -15 -15 0 -15 0 0 -25 0 -25 15 0
15 0 0 15 0 15 25 0 25 0 0 -15 0 -15 -25 0 -25 0 0 -10 0 -10 -15 0 -15 0 0
-40 0 -40 15 0 15 0 0 -10 0 -10 25 0 25 0 0 -15 0 -15 -25 0 -25 0 0 15 0 15
-15 0 -15 0 0 -25 0 -25 15 0 15 0 0 -15 0 -15 -15 0 -15 0 0 -75 0 -75 640 0
640 0 0 100 0 100 -25 0 -25 0 0 15 0 15 25 0 25 0 0 25 0 25 -40 0 -40 0 0
10 0 10 40 0 40 0 0 25 0 25 -25 0 -25 0 0 -10 0 -10 -25 0 -25 0 0 10 0 10
-25 0 -25 0 0 -10 0 -10 -25 0 -25 0 0 25 0 25 10 0 10 0 0 -15 0 -15 15 0 15
0 0 15 0 15 25 0 25 0 0 -15 0 -15 25 0 25 0 0 15 0 15 25 0 25 0 0 10 0 10
-15 0 -15 0 0 15 0 15 15 0 15 0 0 10 0 10 -40 0 -40 0 0 15 0 15 40 0 40 0 0
35 0 35 -15 0 -15 0 0 -25 0 -25 -10 0 -10 0 0 15 0 15 -15 0 -15 0 0 -15 0
-15 -10 0 -10 0 0 15 0 15 -25 0 -25 0 0 -15 0 -15 -40 0 -40 0 0 15 0 15 -25
0 -25 0 0 -15 0 -15 15 0 15 0 0 -10 0 -10 -15 0 -15 0 0 -15 0 -15 -25 0 -25
0 0 15 0 15 25 0 25 0 0 10 0 10 -25 0 -25 0 0 15 0 15 -21 0 -20 0 -15 14
-14 15 0 10 0 11 -15 0 -15 0 0 -11 0 -10 -14 -15 -15 -14 -10 0 -11 0 0 10 0
10 15 0 15 0 0 15 0 15 -25 0 -25 0 0 10 0 10 24 0 24 0 6 -12 6 -13 6 13 6
12 13 0 13 0 6 -12 6 -13 6 13 6 12 39 0 39 0 0 -10 0 -10 -40 0 -40 0 0 -15
0 -15 25 0 25 0 0 -10 0 -10 25 0 25 0 0 10 0 10 25 0 25 0 0 -10 0 -10 40 0
40 0 0 10 0 10 24 0 24 0 6 -12 6 -13 6 13 6 12 24 0 24 0 0 15 0 15 15 0 15
0 0 25 0 25 -15 0 -15 0 0 10 0 10 15 0 15 0 0 25 0 25 -40 0 -40 0 0 15 0 15
40 0 40 0 0 25 0 25 -25 0 -25 0 0 -15 0 -15 -25 0 -25 0 0 15 0 15 -25 0 -25
0 0 -15 0 -15 -25 0 -25 0 0 25 0 25 10 0 10 0 0 -10 0 -10 15 0 15 0 0 10 0
10 25 0 25 0 0 -10 0 -10 25 0 25 0 0 10 0 10 25 0 25 0 0 40 0 40 -40 0 -40
0 0 10 0 10 40 0 40 0 0 25 0 25 -25 0 -25 0 0 -10 0 -10 -25 0 -25 0 0 10 0
10 -15 0 -15 0 0 15 0 15 15 0 15 0 0 -15 0 -15 25 0 25 0 0 15 0 15 25 0 25
0 0 10 0 10 -25 0 -25 0 0 15 0 15 -15 0 -15 0 0 -15 0 -15 -25 0 -25 0 0 15
0 15 25 0 25 0 0 10 0 10 15 0 15 0 0 -10 0 -10 25 0 25 0 0 25 0 25 -15 0
-15 0 0 10 0 10 15 0 15 0 0 15 0 15 -25 0 -25 0 0 10 0 10 25 0 25 0 0 50 0
50 -15 0 -15 0 0 15 0 15 -10 0 -10 0 0 -25 0 -25 -14 0 -14 0 -6 13 -6 12 -6
-12 -6 -13 -24 0 -24 0 0 10 0 10 -15 0 -15 0 0 -10 0 -10 -10 0 -10 0 0 25 0
25 -15 0 -15 0 0 -15 0 -15 -25 0 -25 0 0 15 0 15 -10 0 -10 0 0 -15 0 -15 10
0 10 0 0 -10 0 -10 -25 0 -25 0 0 25 0 25 -35 0 -35 0 0 -15 0 -15 25 0 25 0
0 -10 0 -10 -25 0 -25 0 0 10 0 10 -15 0 -15 0 0 15 0 15 -10 0 -10 0 0 -15 0
-15 -25 0 -25 0 0 -10 0 -10 -25 0 -25 0 0 10 0 10 -15 0 -15 0 0 -10 0 -10
-10 0 -10 0 0 25 0 25 -15 0 -15 0 0 -25 0 -25 -10 0 -10 0 0 10 0 10 -15 0
-15 0 0 15 0 15 -10 0 -10 0 0 -15 0 -15 10 0 10 0 0 -10 0 -10 -25 0 -25 0 0
25 0 25 -35 0 -35 0 0 -15 0 -15 25 0 25 0 0 -10 0 -10 -25 0 -25 0 0 10 0 10
-25 0 -25 0 0 15 0 15 -25 0 -25 0 0 -25 0 -25 -14 0 -14 0 -6 13 -6 12 -6
-12 -6 -13 -24 0 -24 0 0 10 0 10 -15 0 -15 0 0 -10 0 -10 -10 0 -10 0 0 25 0
25 -15 0 -15 0 0 -15 0 -15 -25 0 -25 0 0 15 0 15 -10 0 -10 0 0 -15 0 -15 10
0 10 0 0 -10 0 -10 -25 0 -25 0 0 25 0 25 -35 0 -35 0 0 -15z m820 -40 l0 -25
15 0 15 0 0 -10 0 -10 -14 0 -14 0 -6 13 -6 12 -6 -12 -6 -13 -24 0 -24 0 0
10 0 10 25 0 25 0 0 25 0 25 10 0 10 0 0 -25z m-420 -10 l0 -15 25 0 25 0 0
-10 0 -10 -25 0 -25 0 0 10 0 10 -15 0 -15 0 0 -10 0 -10 -35 0 -35 0 0 10 0
10 35 0 35 0 0 15 0 15 15 0 15 0 0 -15z m-300 -25 l0 -10 -40 0 -40 0 0 10 0
10 40 0 40 0 0 -10z m70 0 l0 -10 -25 0 -25 0 0 10 0 10 25 0 25 0 0 -10z m80
0 l0 -10 -25 0 -25 0 0 10 0 10 25 0 25 0 0 -10z m300 0 l0 -10 -40 0 -40 0 0
10 0 10 40 0 40 0 0 -10z m70 0 l0 -10 -25 0 -25 0 0 10 0 10 25 0 25 0 0 -10z
m80 0 l0 -10 -25 0 -25 0 0 10 0 10 25 0 25 0 0 -10z m250 0 l0 -10 -40 0 -40
0 0 10 0 10 40 0 40 0 0 -10z m70 0 l0 -10 -25 0 -25 0 0 10 0 10 25 0 25 0 0
-10z m80 0 l0 -10 -25 0 -25 0 0 10 0 10 25 0 25 0 0 -10z m120 0 l0 -10 -35
0 -35 0 0 10 0 10 35 0 35 0 0 -10z m-1170 -50 l0 -10 -25 0 -25 0 0 10 0 10
25 0 25 0 0 -10z m100 0 l0 -10 -40 0 -40 0 0 10 0 10 40 0 40 0 0 -10z m100
0 l0 -10 -25 0 -25 0 0 10 0 10 25 0 25 0 0 -10z m70 0 l0 -10 -25 0 -25 0 0
10 0 10 25 0 25 0 0 -10z m80 0 l0 -10 -25 0 -25 0 0 10 0 10 25 0 25 0 0 -10z
m100 0 l0 -10 -25 0 -25 0 0 10 0 10 25 0 25 0 0 -10z m70 0 l0 -10 -25 0 -25
0 0 10 0 10 25 0 25 0 0 -10z m100 0 l0 -10 -25 0 -25 0 0 10 0 10 25 0 25 0
0 -10z m80 0 l0 -10 -25 0 -25 0 0 10 0 10 25 0 25 0 0 -10z m70 -15 l0 -25
-10 0 -10 0 0 15 0 15 -15 0 -15 0 0 10 0 10 25 0 25 0 0 -25z m80 15 l0 -10
-25 0 -25 0 0 10 0 10 25 0 25 0 0 -10z m70 0 l0 -10 -25 0 -25 0 0 10 0 10
25 0 25 0 0 -10z m50 0 l0 -10 -10 0 -10 0 0 10 0 10 10 0 10 0 0 -10z m80 0
l0 -10 -25 0 -25 0 0 10 0 10 25 0 25 0 0 -10z m70 0 l0 -10 -25 0 -25 0 0 10
0 10 25 0 25 0 0 -10z m-1066 -52 l6 -13 6 13 6 12 24 0 24 0 0 -10 0 -10 15
0 15 0 0 10 0 10 25 0 25 0 0 -10 0 -10 25 0 25 0 0 10 0 10 25 0 25 0 0 -10
0 -10 25 0 25 0 0 10 0 10 25 0 25 0 0 -10 0 -10 25 0 25 0 0 10 0 10 24 0 24
0 6 -12 6 -13 6 13 6 12 24 0 24 0 0 -10 0 -10 25 0 25 0 0 10 0 10 14 0 14 0
6 -12 6 -13 6 13 6 12 14 0 14 0 0 -25 0 -25 -25 0 -25 0 0 15 0 15 -15 0 -15
0 0 -15 0 -15 -25 0 -25 0 0 15 0 15 -25 0 -25 0 0 -15 0 -15 -10 0 -10 0 0
15 0 15 -25 0 -25 0 0 -15 0 -15 -25 0 -25 0 0 15 0 15 -25 0 -25 0 0 -25 0
-25 25 0 25 0 0 -15 0 -15 -25 0 -25 0 0 15 0 15 -11 0 -10 0 -15 14 -14 15 0
10 0 11 -25 0 -25 0 0 -15 0 -15 -25 0 -25 0 0 15 0 15 -25 0 -25 0 0 -15 0
-15 -15 0 -15 0 0 15 0 15 -25 0 -25 0 0 -15 0 -15 -25 0 -25 0 0 25 0 25 14
0 14 0 6 -12z m850 0 l6 -13 6 13 6 12 24 0 24 0 0 -10 0 -10 25 0 25 0 0 10
0 10 15 0 15 0 0 -10 0 -10 25 0 25 0 0 10 0 10 25 0 25 0 0 -10 0 -10 -25 0
-25 0 0 -15 0 -15 -25 0 -25 0 0 15 0 15 -15 0 -15 0 0 -15 0 -15 -25 0 -25 0
0 15 0 15 -25 0 -25 0 0 -15 0 -15 -25 0 -25 0 0 25 0 25 14 0 14 0 6 -12z
m-134 -23 l0 -15 -25 0 -25 0 0 15 0 15 25 0 25 0 0 -15z m80 0 l0 -15 -25 0
-25 0 0 15 0 15 25 0 25 0 0 -15z m-800 -50 l0 -15 -40 0 -40 0 0 15 0 15 40
0 40 0 0 -15z m70 0 l0 -15 -25 0 -25 0 0 15 0 15 25 0 25 0 0 -15z m100 0 l0
-15 -35 0 -35 0 0 15 0 15 35 0 35 0 0 -15z m80 0 l0 -15 -25 0 -25 0 0 15 0
15 25 0 25 0 0 -15z m150 0 l0 -15 -15 0 -15 0 0 15 0 15 15 0 15 0 0 -15z
m50 0 l0 -15 -15 0 -15 0 0 15 0 15 15 0 15 0 0 -15z m70 0 l0 -15 -25 0 -25
0 0 15 0 15 25 0 25 0 0 -15z m80 0 l0 -15 -25 0 -25 0 0 15 0 15 25 0 25 0 0
-15z m100 0 l0 -15 -25 0 -25 0 0 15 0 15 25 0 25 0 0 -15z m50 -10 l0 -25
-15 0 -15 0 0 25 0 25 15 0 15 0 0 -25z m50 10 l0 -15 -15 0 -15 0 0 15 0 15
15 0 15 0 0 -15z m50 0 l0 -15 -15 0 -15 0 0 15 0 15 15 0 15 0 0 -15z m70 0
l0 -15 -25 0 -25 0 0 15 0 15 25 0 25 0 0 -15z m80 0 l0 -15 -25 0 -25 0 0 15
0 15 25 0 25 0 0 -15z m-980 -50 l0 -15 25 0 25 0 0 15 0 15 25 0 25 0 0 -15
0 -15 15 0 15 0 0 -10 0 -10 -15 0 -15 0 0 -25 0 -25 -25 0 -25 0 0 10 0 10
15 0 15 0 0 15 0 15 10 0 10 0 0 10 0 10 -25 0 -25 0 0 -10 0 -10 -24 0 -24 0
-6 13 -6 12 -6 -12 -6 -13 -14 0 -14 0 0 25 0 25 25 0 25 0 0 -15z m180 0 l0
-15 25 0 25 0 0 15 0 15 25 0 25 0 0 -15 0 -15 25 0 25 0 0 15 0 15 25 0 25 0
0 -11 0 -10 14 -15 15 -14 10 0 11 0 0 -15 0 -15 10 0 10 0 0 -10 0 -10 -25 0
-25 0 0 21 0 20 -14 15 -15 14 -20 0 -21 0 0 -10 0 -10 -25 0 -25 0 0 10 0 10
-25 0 -25 0 0 -10 0 -10 -25 0 -25 0 0 10 0 10 -15 0 -15 0 0 15 0 15 15 0 15
0 0 -15z m270 0 l0 -15 25 0 25 0 0 -10 0 -10 -25 0 -25 0 0 10 0 10 -25 0
-25 0 0 15 0 15 25 0 25 0 0 -15z m100 0 l0 -15 15 0 15 0 0 15 0 15 25 0 25
0 0 -15 0 -15 10 0 10 0 0 15 0 15 15 0 15 0 0 -15 0 -15 25 0 25 0 0 15 0 15
25 0 25 0 0 -11 0 -10 14 -15 15 -14 10 0 11 0 0 -15 0 -15 10 0 10 0 0 -10 0
-10 -25 0 -25 0 0 21 0 20 -14 15 -15 14 -20 0 -21 0 0 -10 0 -10 -25 0 -25 0
0 10 0 10 -14 0 -14 0 -6 -12 -6 -13 -6 13 -6 12 -24 0 -24 0 0 -10 0 -10 -25
0 -25 0 0 25 0 25 10 0 10 0 0 -15z m300 0 l0 -15 25 0 25 0 0 15 0 15 25 0
25 0 0 -15 0 -15 11 0 10 0 15 -14 14 -15 0 -10 0 -11 15 0 15 0 0 -10 0 -10
-25 0 -25 0 0 25 0 25 -15 0 -15 0 0 10 0 10 -25 0 -25 0 0 -10 0 -10 -25 0
-25 0 0 10 0 10 -25 0 -25 0 0 15 0 15 25 0 25 0 0 -15z m-920 -75 l0 -10 -25
0 -25 0 0 10 0 10 25 0 25 0 0 -10z m70 0 l0 -10 -25 0 -25 0 0 10 0 10 25 0
25 0 0 -10z m180 0 l0 -10 -25 0 -25 0 0 10 0 10 25 0 25 0 0 -10z m70 0 l0
-10 -25 0 -25 0 0 10 0 10 25 0 25 0 0 -10z m50 0 l0 -10 -10 0 -10 0 0 10 0
10 10 0 10 0 0 -10z m80 0 l0 -10 -25 0 -25 0 0 10 0 10 25 0 25 0 0 -10z
m170 0 l0 -10 -35 0 -35 0 0 10 0 10 35 0 35 0 0 -10z m80 0 l0 -10 -15 0 -15
0 0 -11 0 -10 -14 -15 -15 -14 -20 0 -21 0 0 10 0 10 25 0 25 0 0 25 0 25 25
0 25 0 0 -10z m70 0 l0 -10 -25 0 -25 0 0 10 0 10 25 0 25 0 0 -10z m80 0 l0
-10 -25 0 -25 0 0 10 0 10 25 0 25 0 0 -10z m170 0 l0 -10 -25 0 -25 0 0 10 0
10 25 0 25 0 0 -10z m-970 -50 l0 -10 -25 0 -25 0 0 10 0 10 25 0 25 0 0 -10z
m70 0 l0 -10 -25 0 -25 0 0 10 0 10 25 0 25 0 0 -10z m80 0 l0 -10 -25 0 -25
0 0 10 0 10 25 0 25 0 0 -10z m100 0 l0 -10 -25 0 -25 0 0 10 0 10 25 0 25 0
0 -10z m100 0 l0 -10 -25 0 -25 0 0 -11 0 -10 14 -15 15 -14 10 0 11 0 0 -15
0 -15 -25 0 -25 0 0 25 0 25 -11 0 -10 0 -15 -14 -14 -15 0 -10 0 -11 -25 0
-25 0 0 15 0 15 -25 0 -25 0 0 -15 0 -15 -25 0 -25 0 0 25 0 25 10 0 10 0 0
-10 0 -10 15 0 15 0 0 10 0 10 25 0 25 0 0 -10 0 -10 21 0 20 0 15 14 14 15 0
10 0 11 15 0 15 0 0 10 0 10 25 0 25 0 0 -10z m50 0 l0 -10 -15 0 -15 0 0 10
0 10 15 0 15 0 0 -10z m50 -11 l0 -20 14 -15 15 -14 20 0 21 0 0 -15 0 -15
-25 0 -25 0 0 11 0 10 -14 15 -15 14 -10 0 -11 0 0 25 0 25 15 0 15 0 0 -21z
m70 11 l0 -10 -25 0 -25 0 0 10 0 10 25 0 25 0 0 -10z m180 0 l0 -10 -25 0
-25 0 0 10 0 10 25 0 25 0 0 -10z m50 -15 l0 -25 -15 0 -15 0 0 25 0 25 15 0
15 0 0 -25z m100 15 l0 -10 -25 0 -25 0 0 10 0 10 25 0 25 0 0 -10z m70 0 l0
-10 -10 0 -10 0 0 -15 0 -15 -11 0 -10 0 -15 -14 -14 -15 0 -10 0 -11 -15 0
-15 0 0 15 0 15 -10 0 -10 0 0 -15 0 -15 -15 0 -15 0 0 15 0 15 -10 0 -10 0 0
-15 0 -15 -25 0 -25 0 0 15 0 15 -25 0 -25 0 0 -15 0 -15 -15 0 -15 0 0 15 0
15 -10 0 -10 0 0 -15 0 -15 -25 0 -25 0 0 25 0 25 10 0 10 0 0 -10 0 -10 14 0
14 0 6 13 6 12 6 -12 6 -13 14 0 14 0 0 10 0 10 25 0 25 0 0 -10 0 -10 25 0
25 0 0 10 0 10 35 0 35 0 0 -10 0 -10 11 0 10 0 15 14 14 15 0 20 0 21 25 0
25 0 0 -10z m80 0 l0 -10 -25 0 -25 0 0 10 0 10 25 0 25 0 0 -10z m100 0 l0
-10 -25 0 -25 0 0 10 0 10 25 0 25 0 0 -10z m-700 -65 l0 -25 -15 0 -15 0 0
25 0 25 15 0 15 0 0 -25z m50 -10 l0 -15 -15 0 -15 0 0 15 0 15 15 0 15 0 0
-15z m470 0 l0 -15 -25 0 -25 0 0 15 0 15 25 0 25 0 0 -15z m-970 -50 l0 -15
-25 0 -25 0 0 15 0 15 25 0 25 0 0 -15z m70 0 l0 -15 -25 0 -25 0 0 15 0 15
25 0 25 0 0 -15z m100 0 l0 -15 -25 0 -25 0 0 15 0 15 25 0 25 0 0 -15z m80 0
l0 -15 -25 0 -25 0 0 15 0 15 25 0 25 0 0 -15z m70 0 l0 -15 -25 0 -25 0 0 15
0 15 25 0 25 0 0 -15z m50 0 l0 -15 -10 0 -10 0 0 15 0 15 10 0 10 0 0 -15z
m80 0 l0 -15 -25 0 -25 0 0 15 0 15 25 0 25 0 0 -15z m70 0 l0 -15 -25 0 -25
0 0 15 0 15 25 0 25 0 0 -15z m100 0 l0 -15 -35 0 -35 0 0 15 0 15 35 0 35 0
0 -15z m80 0 l0 -15 -25 0 -25 0 0 15 0 15 25 0 25 0 0 -15z m70 0 l0 -15 -25
0 -25 0 0 15 0 15 25 0 25 0 0 -15z m80 0 l0 -15 -25 0 -25 0 0 15 0 15 25 0
25 0 0 -15z m70 0 l0 -15 -25 0 -25 0 0 15 0 15 25 0 25 0 0 -15z m100 0 l0
-15 -25 0 -25 0 0 15 0 15 25 0 25 0 0 -15z m80 0 l0 -15 -25 0 -25 0 0 15 0
15 25 0 25 0 0 -15z m-1050 -50 l0 -15 10 0 10 0 0 15 0 15 25 0 25 0 0 -15 0
-15 25 0 25 0 0 15 0 15 15 0 15 0 0 -15 0 -15 25 0 25 0 0 15 0 15 25 0 25 0
0 -15 0 -15 -25 0 -25 0 0 -10 0 -10 -25 0 -25 0 0 10 0 10 -15 0 -15 0 0 -10
0 -10 -25 0 -25 0 0 10 0 10 -25 0 -25 0 0 -10 0 -10 -25 0 -25 0 0 25 0 25
15 0 15 0 0 -15z m300 -10 l0 -25 -15 0 -15 0 0 25 0 25 15 0 15 0 0 -25z m50
10 l0 -15 25 0 25 0 0 -10 0 -10 -25 0 -25 0 0 10 0 10 -15 0 -15 0 0 15 0 15
15 0 15 0 0 -15z m100 0 l0 -15 10 0 10 0 0 15 0 15 25 0 25 0 0 -15 0 -15
-25 0 -25 0 0 -10 0 -10 -25 0 -25 0 0 25 0 25 15 0 15 0 0 -15z m150 0 l0
-15 25 0 25 0 0 15 0 15 25 0 25 0 0 -15 0 -15 10 0 10 0 0 15 0 15 15 0 15 0
0 -15 0 -15 25 0 25 0 0 15 0 15 10 0 10 0 0 -15 0 -15 25 0 25 0 0 15 0 15
25 0 25 0 0 -15 0 -15 25 0 25 0 0 15 0 15 15 0 15 0 0 -15 0 -15 25 0 25 0 0
15 0 15 25 0 25 0 0 -25 0 -25 -14 0 -14 0 -6 13 -6 12 -6 -12 -6 -13 -24 0
-24 0 0 10 0 10 -15 0 -15 0 0 -10 0 -10 -25 0 -25 0 0 10 0 10 -25 0 -25 0 0
-10 0 -10 -24 0 -24 0 -6 13 -6 12 -6 -12 -6 -13 -24 0 -24 0 0 10 0 10 -14 0
-14 0 -6 -12 -6 -13 -6 13 -6 12 -24 0 -24 0 0 -10 0 -10 -25 0 -25 0 0 10 0
10 -15 0 -15 0 0 -10 0 -10 -10 0 -10 0 0 25 0 25 25 0 25 0 0 -15z m-600 -75
l0 -10 -40 0 -40 0 0 10 0 10 40 0 40 0 0 -10z m70 0 l0 -10 -25 0 -25 0 0 10
0 10 25 0 25 0 0 -10z m80 0 l0 -10 -25 0 -25 0 0 10 0 10 25 0 25 0 0 -10z
m100 0 l0 -10 -25 0 -25 0 0 10 0 10 25 0 25 0 0 -10z m100 0 l0 -10 -40 0
-40 0 0 10 0 10 40 0 40 0 0 -10z m100 0 l0 -10 -40 0 -40 0 0 10 0 10 40 0
40 0 0 -10z m70 0 l0 -10 -25 0 -25 0 0 10 0 10 25 0 25 0 0 -10z m80 0 l0
-10 -25 0 -25 0 0 10 0 10 25 0 25 0 0 -10z m320 0 l0 -10 -25 0 -25 0 0 10 0
10 25 0 25 0 0 -10z m80 0 l0 -10 -15 0 -15 0 0 -15 0 -15 -10 0 -10 0 0 25 0
25 25 0 25 0 0 -10z m100 0 l0 -10 -40 0 -40 0 0 10 0 10 40 0 40 0 0 -10z
m-1080 -50 l0 -10 25 0 25 0 0 10 0 10 25 0 25 0 0 -10 0 -10 15 0 15 0 0 10
0 10 24 0 24 0 6 -12 6 -13 6 13 6 12 24 0 24 0 0 -10 0 -10 25 0 25 0 0 10 0
10 25 0 25 0 0 -10 0 -10 25 0 25 0 0 10 0 10 25 0 25 0 0 -10 0 -10 25 0 25
0 0 10 0 10 25 0 25 0 0 -10 0 -10 15 0 15 0 0 10 0 10 25 0 25 0 0 -25 0 -25
-15 0 -15 0 0 15 0 15 -10 0 -10 0 0 -15 0 -15 -15 0 -15 0 0 15 0 15 -25 0
-25 0 0 -15 0 -15 -25 0 -25 0 0 15 0 15 -25 0 -25 0 0 -15 0 -15 -25 0 -25 0
0 15 0 15 -25 0 -25 0 0 -15 0 -15 -25 0 -25 0 0 15 0 15 -25 0 -25 0 0 -15 0
-15 -10 0 -10 0 0 15 0 15 -25 0 -25 0 0 -15 0 -15 -15 0 -15 0 0 15 0 15 -25
0 -25 0 0 -15 0 -15 -25 0 -25 0 0 15 0 15 -10 0 -10 0 0 -15 0 -15 -15 0 -15
0 0 15 0 15 15 0 15 0 0 10 0 10 10 0 10 0 0 -10z m730 -25 l0 -15 -15 0 -15
0 0 15 0 15 15 0 15 0 0 -15z m-44 -29 l14 -15 0 -10 0 -11 -25 0 -25 0 0 25
0 25 11 0 10 0 15 -14z m94 -11 l0 -25 -25 0 -25 0 0 10 0 11 13 14 12 14 13
1 12 0 0 -25z m-850 -10 l0 -15 -25 0 -25 0 0 15 0 15 25 0 25 0 0 -15z m70 0
l0 -15 -25 0 -25 0 0 15 0 15 25 0 25 0 0 -15z m100 0 l0 -15 -25 0 -25 0 0
15 0 15 25 0 25 0 0 -15z m80 0 l0 -15 -25 0 -25 0 0 15 0 15 25 0 25 0 0 -15z
m70 0 l0 -15 -25 0 -25 0 0 15 0 15 25 0 25 0 0 -15z m50 0 l0 -15 -10 0 -10
0 0 15 0 15 10 0 10 0 0 -15z m80 0 l0 -15 -25 0 -25 0 0 15 0 15 25 0 25 0 0
-15z m70 0 l0 -15 -25 0 -25 0 0 15 0 15 25 0 25 0 0 -15z m100 0 l0 -15 -25
0 -25 0 0 15 0 15 25 0 25 0 0 -15z m80 0 l0 -15 -25 0 -25 0 0 15 0 15 25 0
25 0 0 -15z m320 0 l0 -15 -25 0 -25 0 0 15 0 15 25 0 25 0 0 -15z m80 0 l0
-15 -11 0 -10 0 -15 -14 -14 -15 0 -10 0 -11 -25 0 -25 0 0 15 0 15 25 0 25 0
0 25 0 25 25 0 25 0 0 -15z m-1050 -50 l0 -15 -40 0 -40 0 0 15 0 15 40 0 40
0 0 -15z m70 0 l0 -15 -25 0 -25 0 0 15 0 15 25 0 25 0 0 -15z m80 0 l0 -15
-25 0 -25 0 0 15 0 15 25 0 25 0 0 -15z m100 0 l0 -15 -25 0 -25 0 0 15 0 15
25 0 25 0 0 -15z m100 0 l0 -15 -25 0 -25 0 0 -10 0 -10 10 0 10 0 0 -15 0
-15 15 0 15 0 0 15 0 15 25 0 25 0 0 -15 0 -15 10 0 10 0 0 15 0 15 25 0 25 0
0 -15 0 -15 25 0 25 0 0 -10 0 -10 -25 0 -25 0 0 10 0 10 -24 0 -24 0 -6 -12
-6 -13 -6 13 -6 12 -24 0 -24 0 0 -10 0 -10 -11 0 -10 0 -15 14 -14 15 0 10 0
11 -15 0 -15 0 0 -11 0 -10 -14 -15 -15 -14 -20 0 -21 0 0 10 0 10 -25 0 -25
0 0 -10 0 -10 -25 0 -25 0 0 25 0 25 10 0 10 0 0 -15 0 -15 15 0 15 0 0 15 0
15 25 0 25 0 0 -15 0 -15 25 0 25 0 0 11 0 10 14 15 15 14 10 0 11 0 0 15 0
15 25 0 25 0 0 -15z m100 0 l0 -15 -40 0 -40 0 0 15 0 15 40 0 40 0 0 -15z
m70 0 l0 -15 -25 0 -25 0 0 15 0 15 25 0 25 0 0 -15z m80 0 l0 -15 -25 0 -25
0 0 15 0 15 25 0 25 0 0 -15z m100 0 l0 -15 -25 0 -25 0 0 15 0 15 25 0 25 0
0 -15z m50 0 l0 -15 -15 0 -15 0 0 15 0 15 15 0 15 0 0 -15z m50 0 l0 -15 -15
0 -15 0 0 15 0 15 15 0 15 0 0 -15z m50 0 l0 -15 -15 0 -15 0 0 15 0 15 15 0
15 0 0 -15z m70 0 l0 -15 -25 0 -25 0 0 15 0 15 25 0 25 0 0 -15z m180 0 l0
-15 -25 0 -25 0 0 15 0 15 25 0 25 0 0 -15z m-1080 -50 l0 -15 25 0 25 0 0
-10 0 -10 -24 0 -24 0 -6 13 -6 12 -6 -12 -6 -13 -14 0 -14 0 0 25 0 25 25 0
25 0 0 -15z m550 0 l0 -15 15 0 15 0 0 15 0 15 25 0 25 0 0 -15 0 -15 25 0 25
0 0 15 0 15 10 0 10 0 0 -15 0 -15 15 0 15 0 0 15 0 15 35 0 35 0 0 -15 0 -15
15 0 15 0 0 15 0 15 10 0 10 0 0 -15 0 -15 25 0 25 0 0 -10 0 -10 -24 0 -24 0
-6 13 -6 12 -6 -12 -6 -13 -14 0 -14 0 0 10 0 10 -35 0 -35 0 0 -10 0 -10 -14
0 -14 0 -6 13 -6 12 -6 -12 -6 -13 -24 0 -24 0 0 10 0 10 -25 0 -25 0 0 -10 0
-10 -25 0 -25 0 0 25 0 25 10 0 10 0 0 -15z m-270 -49 l0 -14 13 -5 12 -4 -9
-9 -9 -9 -4 13 -5 12 -14 0 -14 0 0 -10 0 -10 -25 0 -25 0 0 10 0 10 25 0 25
0 0 15 0 15 15 0 15 0 0 -14z m-350 -26 l0 -10 -25 0 -25 0 0 10 0 10 25 0 25
0 0 -10z m70 0 l0 -10 -25 0 -25 0 0 10 0 10 25 0 25 0 0 -10z m100 0 l0 -10
-35 0 -35 0 0 10 0 10 35 0 35 0 0 -10z m80 0 l0 -10 -25 0 -25 0 0 10 0 10
25 0 25 0 0 -10z m200 0 l0 -10 -25 0 -25 0 0 10 0 10 25 0 25 0 0 -10z m70 0
l0 -10 -25 0 -25 0 0 10 0 10 25 0 25 0 0 -10z m100 0 l0 -10 -35 0 -35 0 0
10 0 10 35 0 35 0 0 -10z m80 0 l0 -10 -25 0 -25 0 0 10 0 10 25 0 25 0 0 -10z
m70 0 l0 -10 -25 0 -25 0 0 10 0 10 25 0 25 0 0 -10z m80 0 l0 -10 -25 0 -25
0 0 10 0 10 25 0 25 0 0 -10z m70 0 l0 -10 -25 0 -25 0 0 10 0 10 25 0 25 0 0
-10z m100 0 l0 -10 -35 0 -35 0 0 10 0 10 35 0 35 0 0 -10z m80 0 l0 -10 -25
0 -25 0 0 10 0 10 25 0 25 0 0 -10z m-1046 -52 l6 -13 6 13 6 12 24 0 24 0 0
-10 0 -10 -25 0 -25 0 0 -15 0 -15 -25 0 -25 0 0 25 0 25 14 0 14 0 6 -12z
m146 2 l0 -10 24 0 24 0 5 13 4 12 9 -9 9 -9 -12 -4 -13 -5 0 -14 0 -14 -25 0
-25 0 0 15 0 15 -15 0 -15 0 0 -15 0 -15 -10 0 -10 0 0 25 0 25 25 0 25 0 0
-10z m120 -15 l0 -25 -10 0 -10 0 0 25 0 25 10 0 10 0 0 -25z m80 15 l0 -10
25 0 25 0 0 -15 0 -15 -25 0 -25 0 0 15 0 15 -25 0 -25 0 0 10 0 10 25 0 25 0
0 -10z m104 -2 l6 -13 6 13 6 12 24 0 24 0 0 -10 0 -10 -25 0 -25 0 0 -15 0
-15 -25 0 -25 0 0 25 0 25 14 0 14 0 6 -12z m146 2 l0 -10 25 0 25 0 0 10 0
10 24 0 24 0 6 -12 6 -13 6 13 6 12 14 0 14 0 0 -10 0 -10 25 0 25 0 0 -15 0
-15 -25 0 -25 0 0 15 0 15 -15 0 -15 0 0 -15 0 -15 -10 0 -10 0 0 15 0 15 -25
0 -25 0 0 -15 0 -15 -25 0 -25 0 0 15 0 15 -15 0 -15 0 0 -15 0 -15 -10 0 -10
0 0 25 0 25 25 0 25 0 0 -10z m254 -2 l6 -13 6 13 6 12 24 0 24 0 0 -10 0 -10
-25 0 -25 0 0 -15 0 -15 -25 0 -25 0 0 25 0 25 14 0 14 0 6 -12z m146 2 l0
-10 24 0 24 0 5 13 4 12 9 -9 9 -9 -12 -4 -13 -5 0 -14 0 -14 -25 0 -25 0 0
15 0 15 -15 0 -15 0 0 -15 0 -15 -10 0 -10 0 0 25 0 25 25 0 25 0 0 -10z
m-1000 -75 l0 -15 -40 0 -40 0 0 15 0 15 40 0 40 0 0 -15z m70 0 l0 -15 -25 0
-25 0 0 15 0 15 25 0 25 0 0 -15z m80 0 l0 -15 -25 0 -25 0 0 15 0 15 25 0 25
0 0 -15z m120 0 l0 -15 -35 0 -35 0 0 15 0 15 35 0 35 0 0 -15z m80 0 l0 -15
-25 0 -25 0 0 15 0 15 25 0 25 0 0 -15z m70 0 l0 -15 -25 0 -25 0 0 15 0 15
25 0 25 0 0 -15z m100 0 l0 -15 -25 0 -25 0 0 15 0 15 25 0 25 0 0 -15z m80 0
l0 -15 -25 0 -25 0 0 15 0 15 25 0 25 0 0 -15z m100 0 l0 -15 -25 0 -25 0 0
15 0 15 25 0 25 0 0 -15z m50 0 l0 -15 -15 0 -15 0 0 15 0 15 15 0 15 0 0 -15z
m100 0 l0 -15 -40 0 -40 0 0 15 0 15 40 0 40 0 0 -15z m70 0 l0 -15 -25 0 -25
0 0 15 0 15 25 0 25 0 0 -15z m80 0 l0 -15 -25 0 -25 0 0 15 0 15 25 0 25 0 0
-15z m100 0 l0 -15 -25 0 -25 0 0 15 0 15 25 0 25 0 0 -15z"/>
<path d="M280 1265 l0 -15 25 0 25 0 0 15 0 15 -25 0 -25 0 0 -15z"/>
<path d="M730 1265 l0 -15 25 0 25 0 0 15 0 15 -25 0 -25 0 0 -15z"/>
<path d="M1130 1265 l0 -15 25 0 25 0 0 15 0 15 -25 0 -25 0 0 -15z"/>
</g>
</svg>
