<?xml version="1.0" standalone="no"?>
<!DOCTYPE svg PUBLIC "-//W3C//DTD SVG 20010904//EN"
 "http://www.w3.org/TR/2001/REC-SVG-20010904/DTD/svg10.dtd">
<svg version="1.0" xmlns="http://www.w3.org/2000/svg"
 width="468pt" height="468pt" viewBox="0 0 468 468"
 preserveAspectRatio="xMidYMid meet">
<metadata>
Created by potrace 1.8, written by Peter Selinger 2001-2007
</metadata>
<g transform="translate(0,468) scale(0.365625,-0.365625)"
fill="#000000" stroke="none">
<path d="M638 1241 l-6 -44 -14 -8 -13 -9 -10 -4 -10 -3 13 -14 12 -13 0 17 0
17 24 6 25 6 10 -7 11 -6 0 -13 0 -13 -22 2 -23 2 -12 -5 -13 -4 0 -19 0 -19
10 0 10 0 1 23 1 22 8 -25 8 -25 1 22 1 22 20 -2 20 -1 0 -11 0 -10 9 14 9 14
11 -7 11 -7 0 -13 0 -14 24 -16 24 -15 7 -31 7 -30 9 0 9 0 0 -51 0 -50 -102
6 -103 6 -50 -10 -50 -10 73 6 72 5 69 -7 69 -7 -6 -20 -5 -21 -14 19 -14 19
-9 -15 -10 -15 0 15 0 15 -10 -15 -10 -15 -10 15 -9 15 -46 0 -45 0 0 -15 0
-15 -9 14 -9 13 -5 -13 -5 -14 -10 14 -10 13 -5 -13 -5 -14 -1 13 -1 12 -10 0
-10 0 0 -16 0 -16 78 6 77 6 50 -7 49 -8 -24 -23 -24 -22 -87 0 -88 0 -6 20
-6 20 -10 0 -9 0 -15 36 -15 36 0 36 0 35 12 38 11 39 24 15 23 15 0 16 0 16
20 -5 20 -5 0 7 0 8 -6 6 -7 6 -18 -10 -19 -10 0 -13 0 -14 -24 -16 -24 -15
-7 -31 -7 -30 -9 0 -9 0 0 -50 0 -50 9 0 9 0 10 -28 10 -28 18 -19 19 -18 -13
-5 -12 -4 0 -14 0 -14 -15 0 -15 0 6 24 6 25 -21 18 -21 17 -1 16 -1 15 -9
-32 -10 -33 -9 0 -10 0 0 -15 0 -15 10 0 10 0 0 -35 0 -35 -9 0 -9 0 -6 25 -7
26 -14 -15 -15 -15 0 -15 0 -16 10 0 10 0 0 -105 0 -105 -35 0 -35 0 0 55 0
55 10 0 10 0 0 20 0 20 -10 0 -10 0 0 49 0 49 13 6 12 6 -12 6 -13 6 0 53 0
53 13 6 12 6 -12 6 -13 6 0 19 0 19 13 0 12 0 -11 8 -11 7 -14 38 -13 37 -6 0
-6 0 -14 -37 -13 -38 1 -229 0 -229 -26 -26 -27 -26 -19 -15 -19 -15 5 88 4
87 -8 0 -8 0 2 216 1 216 -9 6 -10 7 -10 25 -11 25 -8 -25 -8 -25 -10 -7 -10
-6 1 -216 2 -216 -8 0 -8 0 4 -103 4 -103 -16 -17 -16 -16 0 -30 0 -31 -30 0
-30 0 0 -155 0 -155 640 0 640 0 0 155 0 155 -44 0 -44 0 -7 76 -8 76 5 74 5
74 -14 0 -13 0 0 79 0 79 13 6 12 6 -12 6 -13 6 0 78 0 78 13 6 12 6 -12 6
-13 6 0 19 0 19 13 0 12 0 -11 8 -11 7 -12 37 -13 38 -12 -13 -13 -13 -8 -24
-8 -25 2 -207 1 -208 -7 0 -8 0 2 -103 1 -102 -453 0 -453 0 11 15 12 15 18
13 18 14 19 21 20 21 59 2 58 1 -16 -16 -16 -17 -12 15 -11 16 -24 -25 -23
-25 23 -25 24 -25 12 17 12 16 11 -16 11 -17 13 13 14 13 -25 20 -25 19 20 -6
20 -6 -15 11 -14 10 8 8 8 8 9 -18 10 -17 10 5 9 6 13 -8 12 -8 43 -1 42 -1 0
11 0 11 9 -14 9 -14 -5 -13 -4 -12 11 -7 12 -7 11 12 12 11 -16 13 -17 12 127
-1 126 -1 10 5 9 5 28 1 28 1 7 8 7 7 -14 9 -15 10 10 1 10 1 57 2 57 2 -5 -8
-5 -8 -10 6 -10 6 -22 -24 -22 -23 23 -25 24 -25 12 17 12 16 11 -16 11 -17
24 26 24 25 -32 30 -33 29 1 230 1 230 -13 38 -14 37 -6 0 -6 0 -13 -37 -14
-38 -11 -7 -11 -8 13 0 12 0 0 -19 0 -19 -12 -6 -13 -6 13 -6 12 -6 0 -53 0
-53 -12 -6 -13 -6 13 -6 12 -6 0 -49 0 -49 -10 0 -10 0 0 -20 0 -20 10 0 10 0
0 -55 0 -55 -35 0 -35 0 0 103 0 102 -4 20 -3 20 4 -12 4 -13 10 0 9 0 0 11 0
10 -15 15 -14 15 -7 -26 -6 -25 -9 0 -9 0 0 35 0 35 10 0 10 0 0 15 0 15 -10
0 -9 0 -10 33 -9 32 -1 -15 -1 -16 -21 -17 -21 -18 6 -25 6 -24 -15 0 -15 0 0
15 0 15 -10 0 -9 0 24 26 25 27 0 9 0 9 16 17 16 16 -4 60 -5 60 -11 4 -12 4
0 13 0 14 -25 19 -25 20 0 10 0 10 -35 28 -35 28 0 13 0 13 -9 0 -10 0 -3 33
-3 32 -7 -44z m-495 -181 l5 -20 -13 0 -13 0 5 20 5 20 3 0 3 0 5 -20z m1000
0 l5 -20 -21 1 -22 1 13 5 12 5 0 14 0 14 4 0 4 0 5 -20z m-980 -47 l-13 -5 0
-18 0 -18 13 -5 12 -5 -40 0 -40 0 13 5 12 5 0 18 0 18 -12 5 -13 5 40 0 40 0
-12 -5z m151 -8 l5 -15 -19 0 -19 0 5 15 6 15 8 0 8 0 6 -15z m680 0 l5 -15
-19 0 -19 0 5 15 6 15 8 0 8 0 6 -15z m161 -15 l0 -30 -25 0 -25 0 0 30 0 30
25 0 25 0 0 -30z m-830 -50 l0 -30 -25 0 -25 0 0 30 0 30 25 0 25 0 0 -30z
m680 0 l0 -30 -25 0 -25 0 0 30 0 30 25 0 25 0 0 -30z m-855 -69 l0 -79 13 -5
12 -4 -40 0 -40 0 13 4 12 5 0 79 0 79 15 0 15 0 0 -79z m1002 -5 l3 -83 -25
-1 -25 -1 3 85 3 84 19 0 19 0 3 -84z m-830 -26 l3 -60 -25 0 -25 0 3 60 4 60
18 0 18 0 4 -60z m680 0 l3 -60 -25 0 -25 0 3 60 4 60 18 0 18 0 4 -60z m-526
5 l15 -15 -25 0 -25 0 5 15 6 15 5 0 4 0 15 -15z m358 0 l5 -15 -25 0 -25 0
13 15 13 14 6 1 7 0 6 -15z m-358 -40 l-15 -15 -4 0 -5 0 -6 15 -5 15 25 0 25
0 -15 -15z m358 0 l-6 -15 -5 0 -4 0 -15 15 -15 15 25 0 25 0 -5 -15z m-94
-10 l0 -15 46 0 47 0 -7 -31 -6 -32 0 -123 0 -124 -40 0 -40 0 0 150 0 150
-95 0 -95 0 0 -134 0 -134 -6 -16 -6 -16 -39 0 -39 0 0 124 0 124 -6 31 -6 31
46 0 46 0 0 15 0 15 100 0 100 0 0 -15z m-590 -105 l0 -80 -15 0 -15 0 0 80 0
80 15 0 15 0 0 -80z m170 30 l0 -50 -20 0 -20 0 0 50 0 50 20 0 20 0 0 -50z
m87 28 l-5 -13 -1 19 -1 19 6 -6 6 -6 -5 -13z m593 -28 l0 -50 -20 0 -20 0 0
50 0 50 20 0 20 0 0 -50z m150 -30 l0 -80 -20 0 -20 0 0 80 0 80 20 0 20 0 0
-80z m-420 -75 l0 -145 -15 0 -15 0 0 10 0 10 10 0 10 0 0 80 0 80 -9 0 -9 0
-5 21 -6 20 -20 6 -21 5 -1 17 -1 16 -5 -16 -4 -17 -19 -5 -20 -5 -11 -29 -11
-28 4 -83 3 -82 -19 0 -18 0 6 16 6 16 0 129 0 129 85 0 85 0 0 -145z m-283
65 l-2 -50 -15 0 -15 0 -2 50 -1 50 18 0 18 0 -1 -50z m420 0 l-2 -50 -15 0
-15 0 -2 50 -1 50 18 0 18 0 -1 -50z m-182 -10 l6 -10 5 -28 4 -27 -10 15 -10
15 0 -15 0 -15 -11 15 -11 15 -5 -13 -5 -13 -14 18 -14 18 -16 -20 -15 -20 5
30 5 30 23 16 22 17 18 -9 17 -9 6 -10z m-367 -27 l-18 -4 -17 4 -18 5 35 0
35 0 -17 -5z m680 0 l-18 -4 -17 4 -18 5 35 0 35 0 -17 -5z m-678 -68 l0 -55
-20 0 -20 0 0 55 0 55 20 0 20 0 0 -55z m310 45 l0 -10 -10 0 -10 0 0 10 0 10
10 0 10 0 0 -10z m370 -45 l0 -55 -20 0 -20 0 0 55 0 55 20 0 20 0 0 -55z
m-550 7 l0 -28 -20 0 -20 0 0 28 0 28 20 0 20 0 0 -28z m420 0 l0 -28 -20 0
-20 0 0 28 0 28 20 0 20 0 0 -28z m-707 11 l-23 -4 -27 4 -28 4 50 0 50 0 -22
-4z m537 -42 l0 -49 -6 -16 -6 -16 -43 0 -43 0 -6 16 -6 16 0 49 0 49 55 0 55
0 0 -49z m463 42 l-23 -4 -27 4 -28 4 50 0 50 0 -22 -4z m-993 -103 l0 -90
-35 0 -35 0 0 90 0 90 35 0 35 0 0 -90z m990 0 l0 -90 -30 0 -30 0 0 90 0 90
30 0 30 0 0 -90z m-715 29 l0 -24 -14 0 -14 0 -3 19 -3 20 6 8 5 9 11 -4 12
-4 0 -24z m420 0 l0 -24 -14 0 -14 0 -3 19 -3 20 6 8 5 9 11 -4 12 -4 0 -24z
m182 -47 l11 -18 -14 -19 -14 -19 -14 19 -13 18 -11 -19 -11 -19 -14 20 -15
19 12 18 11 18 7 0 8 0 0 -9 0 -9 -12 -5 -13 -5 12 -1 12 -1 11 20 10 19 13
-5 12 -4 12 -18z m-677 -13 l31 -31 -6 -6 -5 -6 -14 19 -13 18 -11 -19 -11
-19 -14 20 -15 19 12 18 11 18 2 0 1 0 32 -31z m210 -29 l0 -10 -10 0 -10 0 0
10 0 10 10 0 10 0 0 -10z m-480 -85 l0 -35 -10 0 -10 0 0 35 0 35 10 0 10 0 0
-35z m40 0 l0 -35 -10 0 -10 0 0 35 0 35 10 0 10 0 0 -35z m40 0 l0 -35 -15 0
-15 0 0 35 0 35 15 0 15 0 0 -35z m372 0 l-4 -35 -179 0 -179 0 0 35 0 35 183
0 183 0 -4 -35z m178 0 l0 -35 -75 0 -75 0 0 35 0 35 75 0 75 0 0 -35z m330 0
l0 -35 -150 0 -150 0 0 29 0 29 -12 5 -13 5 163 1 162 1 0 -35z m40 0 l0 -35
-10 0 -10 0 0 35 0 35 10 0 10 0 0 -35z m40 0 l0 -35 -15 0 -15 0 0 35 0 35
15 0 15 0 0 -35z m40 0 l0 -35 -15 0 -15 0 0 35 0 35 15 0 15 0 0 -35z"/>
<path d="M132 990 l0 -25 5 13 5 12 -5 13 -5 12 0 -25z"/>
<path d="M1132 990 l0 -25 5 13 5 12 -5 13 -5 12 0 -25z"/>
<path d="M290 940 l0 -20 10 0 10 0 0 20 0 20 -10 0 -10 0 0 -20z"/>
<path d="M970 940 l0 -20 10 0 10 0 0 20 0 20 -10 0 -10 0 0 -20z"/>
<path d="M487 725 l-17 -12 0 -52 0 -51 35 0 35 0 0 53 0 52 -18 11 -18 12
-17 -13z m33 -51 l0 -44 -15 0 -15 0 0 43 0 44 6 6 7 6 8 -5 9 -5 0 -45z"/>
<path d="M767 723 l-7 -6 0 -54 0 -53 25 0 25 0 0 54 0 54 -16 6 -16 6 -2 0
-3 0 -6 -7z m23 -48 l0 -45 -10 0 -10 0 0 45 0 45 10 0 10 0 0 -45z"/>
<path d="M487 570 l-17 -20 0 -30 0 -30 35 0 35 0 0 30 0 31 -18 19 -18 19
-17 -19z m33 -42 l0 -28 -15 0 -15 0 0 24 0 24 6 17 7 17 8 -14 9 -13 0 -27z"/>
<path d="M766 564 l-6 -16 0 -29 0 -29 25 0 25 0 0 31 0 30 -14 15 -15 14 -4
0 -5 0 -6 -16z m24 -34 l0 -30 -10 0 -10 0 0 30 0 30 10 0 10 0 0 -30z"/>
<path d="M420 710 l0 -10 10 0 10 0 0 10 0 10 -10 0 -10 0 0 -10z"/>
<path d="M840 710 l0 -10 10 0 10 0 0 10 0 10 -10 0 -10 0 0 -10z"/>
<path d="M621 669 l-21 -20 0 -5 0 -5 10 6 11 7 12 -9 12 -8 20 0 20 0 -2 8
-3 7 0 10 0 9 -19 10 -18 10 -22 -20z m52 -13 l5 -13 -19 2 -19 1 -6 6 -6 7 6
10 7 10 14 -5 13 -6 5 -12z"/>
<path d="M628 571 l-15 -18 -5 -30 -4 -30 41 1 42 1 -3 15 -3 15 -5 26 -6 27
-13 5 -14 5 -15 -17z m30 -32 l-13 -9 15 -10 15 -9 -21 1 -20 2 2 20 2 21 1 2
1 2 16 -6 16 -6 -14 -8z"/>
<path d="M1001 468 l-12 -20 -17 7 -17 6 12 -12 12 -12 14 11 13 12 12 -12 12
-12 10 10 10 10 -19 15 -18 16 -12 -19z m34 -16 l-5 -6 -13 13 -12 12 18 -7
18 -6 -6 -6z"/>
<path d="M325 461 l-5 -10 10 -6 10 -6 10 6 10 6 -5 10 -6 9 -9 0 -9 0 -6 -9z"/>
<path d="M243 455 l-41 -41 58 0 57 1 -4 12 -5 11 -15 7 -16 6 21 20 22 20 0
2 0 3 -18 0 -18 0 -41 -41z m38 11 l-12 -14 11 -7 10 -6 0 -12 0 -12 -10 15
-10 15 0 -15 0 -15 -10 15 -10 15 -10 -15 -10 -15 0 9 0 8 28 27 27 26 4 -2 4
-3 -12 -14z"/>
<path d="M907 484 l4 -12 -12 -8 -13 -8 -26 -1 -26 -1 -9 -5 -10 -5 -110 1
-111 0 0 -15 0 -15 183 0 183 0 0 2 0 2 -22 20 -21 20 16 6 15 7 5 11 4 12
-27 0 -28 1 5 -12z m14 -18 l-12 -14 11 -7 10 -6 0 -12 0 -12 -10 15 -10 15 0
-15 0 -15 -10 15 -10 15 -10 -15 -10 -15 0 15 0 15 -10 -15 -10 -15 -9 14 -9
13 -5 -11 -5 -12 2 12 2 12 34 2 34 2 15 20 16 21 4 -4 4 -4 -12 -14z m-291
-36 l0 -10 -10 0 -10 0 0 10 0 10 10 0 10 0 0 -10z m130 0 l0 -10 -10 0 -10 0
0 10 0 10 10 0 10 0 0 -10z m50 0 l0 -10 -10 0 -10 0 0 10 0 10 10 0 10 0 0
-10z"/>
<path d="M411 444 l11 -13 -5 -8 -5 -8 67 0 67 0 0 15 0 15 -46 -1 -45 -1 -10
7 -10 7 -17 0 -18 0 11 -13z m34 -5 l7 -10 -3 -4 -4 -3 -13 14 -13 14 10 0 10
0 6 -11z"/>
<path d="M1057 426 l-6 -15 15 6 14 5 0 9 0 9 -9 0 -9 0 -5 -14z"/>
</g>
</svg>
