<?xml version="1.0" standalone="no"?>
<!DOCTYPE svg PUBLIC "-//W3C//DTD SVG 20010904//EN"
 "http://www.w3.org/TR/2001/REC-SVG-20010904/DTD/svg10.dtd">
<svg version="1.0" xmlns="http://www.w3.org/2000/svg"
 width="468pt" height="468pt" viewBox="0 0 468 468"
 preserveAspectRatio="xMidYMid meet">
<metadata>
Created by potrace 1.8, written by Peter Selinger 2001-2007
</metadata>
<g transform="translate(0,468) scale(0.365625,-0.365625)"
fill="#000000" stroke="none">
<path d="M0 640 l0 -640 640 0 640 0 0 220 0 220 -30 0 -30 0 0 10 0 10 -20 0
-20 0 0 10 0 10 -16 0 -15 0 -15 14 -14 15 0 5 0 6 18 0 18 0 14 -20 14 -20
18 0 18 0 0 -10 0 -10 30 0 30 0 0 30 0 30 -20 0 -20 0 0 10 0 10 20 0 20 0 0
30 0 30 -20 0 -20 0 0 10 0 10 20 0 20 0 0 40 0 40 -9 0 -9 0 -6 -12 -6 -13
-6 13 -6 12 -19 0 -19 0 0 10 0 10 -20 0 -20 0 0 10 0 10 -30 0 -30 0 0 -10 0
-10 -30 0 -30 0 0 10 0 10 -30 0 -30 0 0 10 0 10 -20 0 -20 0 0 10 0 10 -26 0
-26 0 -38 40 -38 40 -14 0 -14 0 -14 20 -14 20 -28 0 -28 0 0 10 0 10 30 0 30
0 0 10 0 10 50 0 50 0 0 -10 0 -10 -50 0 -50 0 0 -6 0 -5 14 -15 15 -14 11 0
12 0 28 -30 28 -30 16 0 16 0 0 -10 0 -10 20 0 20 0 0 -10 0 -10 20 0 20 0 0
-10 0 -10 30 0 30 0 0 -10 0 -10 30 0 30 0 0 10 0 10 30 0 30 0 0 -10 0 -10
20 0 20 0 0 -10 0 -10 40 0 40 0 0 10 0 10 -20 0 -20 0 0 10 0 10 -18 0 -18 0
-14 20 -14 20 -18 0 -18 0 0 10 0 10 -20 0 -20 0 0 10 0 10 20 0 20 0 0 -10 0
-10 18 0 18 0 14 -20 14 -20 18 0 18 0 0 -10 0 -10 20 0 20 0 0 260 0 260
-640 0 -640 0 0 -640z m480 530 l0 -10 30 0 30 0 0 -10 0 -10 38 0 38 0 14
-20 14 -20 98 0 98 0 0 -10 0 -10 20 0 20 0 0 -10 0 -10 30 0 30 0 0 -10 0
-10 -30 0 -30 0 0 10 0 10 -20 0 -20 0 0 10 0 10 -98 0 -98 0 -14 20 -14 20
-38 0 -38 0 0 10 0 10 -30 0 -30 0 0 10 0 10 -20 0 -20 0 0 -10 0 -10 -15 0
-16 0 -24 -25 -25 -24 0 -6 0 -5 20 0 20 0 0 10 0 10 20 0 20 0 0 -10 0 -10
-20 0 -20 0 0 -10 0 -10 -19 0 -19 0 -6 13 -6 12 -6 -12 -6 -13 -19 0 -19 0 0
-10 0 -10 -20 0 -20 0 0 -10 0 -10 -30 0 -30 0 0 10 0 10 30 0 30 0 0 10 0 10
20 0 20 0 0 10 0 10 16 0 16 0 38 40 38 40 16 0 16 0 0 10 0 10 20 0 20 0 0
-10z m-120 -20 l0 -10 -10 0 -10 0 0 10 0 10 10 0 10 0 0 -10z m300 0 l0 -10
-10 0 -10 0 0 10 0 10 10 0 10 0 0 -10z m-340 -20 l0 -10 -30 0 -30 0 0 10 0
10 30 0 30 0 0 -10z m420 0 l0 -10 -20 0 -20 0 0 10 0 10 20 0 20 0 0 -10z
m-500 -20 l0 -10 -40 0 -40 0 0 -10 0 -10 -16 0 -15 0 -15 -15 -15 -15 15 -15
15 -15 14 0 15 0 5 13 4 12 8 -7 7 -7 -15 -16 -16 -15 -21 0 -21 0 -15 14 -14
15 0 21 0 21 14 15 15 14 15 0 16 0 0 10 0 10 50 0 50 0 0 -10z m240 0 l0 -10
-10 0 -10 0 0 10 0 10 10 0 10 0 0 -10z m-200 -20 l0 -10 -10 0 -10 0 0 10 0
10 10 0 10 0 0 -10z m-40 -20 l0 -10 -20 0 -20 0 0 10 0 10 20 0 20 0 0 -10z
m340 -20 l0 -10 130 0 130 0 0 -10 0 -10 -79 0 -79 0 -6 -12 -6 -13 -6 13 -6
12 -39 0 -39 0 0 10 0 10 -18 0 -18 0 -14 -20 -14 -20 -18 0 -18 0 0 10 0 10
-30 0 -30 0 0 -10 0 -10 -19 0 -19 0 -6 -12 -6 -13 -6 13 -6 12 -39 0 -39 0 0
-10 0 -10 40 0 40 0 0 -20 0 -20 8 0 8 0 14 20 14 20 48 0 48 0 0 -10 0 -10
20 0 20 0 0 10 0 10 20 0 20 0 0 -10 0 -10 50 0 50 0 0 10 0 10 30 0 30 0 0
10 0 10 30 0 30 0 0 -10 0 -10 50 0 50 0 0 -10 0 -10 40 0 40 0 0 -10 0 -10
-40 0 -40 0 0 10 0 10 -50 0 -50 0 0 10 0 10 -30 0 -30 0 0 -10 0 -10 -30 0
-30 0 0 -10 0 -10 -50 0 -50 0 0 10 0 10 -20 0 -20 0 0 -10 0 -10 -20 0 -20 0
0 10 0 10 -46 0 -45 0 -15 -14 -14 -15 0 -15 0 -16 -9 0 -9 0 -5 13 -4 12 -8
-7 -8 -8 21 -19 22 -18 0 -27 0 -26 10 0 10 0 0 -30 0 -30 25 0 26 0 24 25 25
24 0 6 0 5 -19 0 -19 0 -4 -12 -4 -12 -27 26 -27 27 0 16 0 15 10 0 10 0 0
-16 0 -15 17 -17 16 -17 5 13 4 12 19 0 19 0 0 10 0 10 20 0 20 0 0 -10 0 -10
-20 0 -20 0 0 -10 0 -10 40 0 40 0 0 -10 0 -10 -36 0 -36 0 -28 -30 -28 -30
-22 0 -21 0 -15 14 -14 15 0 15 0 16 -10 0 -10 0 0 -36 0 -35 14 -15 15 -14
33 0 34 0 14 20 14 20 18 0 18 0 0 10 0 10 20 0 20 0 0 10 0 10 19 0 19 0 5
13 4 12 20 -22 20 -23 17 0 16 0 0 10 0 10 40 0 40 0 0 -10 0 -10 30 0 30 0 0
10 0 10 -20 0 -20 0 0 10 0 10 -66 0 -65 0 -51 52 -51 53 -5 -13 -4 -12 -49 0
-49 0 0 10 0 10 -20 0 -20 0 0 10 0 10 20 0 20 0 0 -10 0 -10 50 0 50 0 0 10
0 10 16 0 15 0 49 -50 49 -50 25 0 26 0 0 6 0 5 -14 15 -15 14 -11 0 -11 0
-26 26 -25 25 6 6 6 6 19 -21 18 -22 14 0 15 0 14 -20 14 -20 16 0 16 0 14
-20 14 -20 14 0 14 0 28 -30 28 -30 16 0 16 0 0 -10 0 -10 -16 0 -17 0 -20 23
-20 22 -4 -12 -5 -13 -29 0 -29 0 0 10 0 10 -40 0 -40 0 0 -10 0 -10 -16 0
-17 0 -20 23 -20 22 -4 -12 -5 -13 -19 0 -19 0 0 -10 0 -10 -20 0 -20 0 0 -10
0 -10 -18 0 -18 0 -14 -20 -14 -20 -38 0 -38 0 0 -6 0 -5 14 -15 15 -14 15 0
16 0 0 10 0 10 20 0 20 0 0 10 0 10 20 0 20 0 0 10 0 10 20 0 20 0 0 10 0 10
30 0 30 0 0 -10 0 -10 30 0 30 0 0 -10 0 -10 -30 0 -30 0 0 10 0 10 -30 0 -30
0 0 -10 0 -10 -20 0 -20 0 0 -10 0 -10 -20 0 -20 0 0 -10 0 -10 -20 0 -20 0 0
-10 0 -10 10 0 10 0 0 -20 0 -20 -10 0 -10 0 0 20 0 20 -15 0 -16 0 -36 36
-36 36 14 10 14 10 -12 5 -13 5 0 49 0 49 10 0 10 0 0 16 0 15 -14 15 -15 14
-31 0 -31 0 -34 -35 -35 -34 0 -11 0 -11 -50 -49 -50 -49 0 -15 0 -16 -10 0
-10 0 0 -20 0 -20 16 0 15 0 16 16 16 16 -14 8 -13 9 6 7 7 6 16 -16 16 -16
-25 -25 -25 -25 -26 0 -25 0 0 40 0 40 10 0 10 0 0 20 0 20 10 0 10 0 0 18 0
18 -20 14 -20 14 0 26 0 26 20 14 20 14 0 18 0 18 10 0 10 0 0 40 0 40 20 0
20 0 0 -10 0 -10 40 0 40 0 0 -10 0 -10 20 0 20 0 0 20 0 20 -50 0 -50 0 0 10
0 10 50 0 50 0 0 10 0 10 39 0 39 0 5 -12 4 -13 20 23 20 22 37 0 36 0 0 -10
0 -10 20 0 20 0 0 20 0 20 30 0 30 0 0 -10z m420 -60 l0 -10 20 0 20 0 0 -10
0 -10 30 0 30 0 0 -10 0 -10 -30 0 -30 0 0 10 0 10 -20 0 -20 0 0 10 0 10 -30
0 -30 0 0 10 0 10 30 0 30 0 0 -10z m27 -85 l15 -16 -7 -7 -8 -7 -4 13 -5 12
-59 0 -59 0 0 10 0 10 56 0 55 0 16 -15z m93 5 l0 -10 20 0 20 0 0 -10 0 -10
20 0 20 0 0 -10 0 -10 -20 0 -20 0 0 10 0 10 -20 0 -20 0 0 10 0 10 -20 0 -20
0 0 10 0 10 20 0 20 0 0 -10z m-160 -40 l0 -10 -40 0 -40 0 0 10 0 10 40 0 40
0 0 -10z m120 -20 l0 -10 -30 0 -30 0 0 10 0 10 30 0 30 0 0 -10z m-774 -24
l14 -15 0 -5 0 -6 -19 0 -19 0 -5 13 -5 12 -11 -15 -10 -14 -6 6 -7 7 13 15
14 15 13 1 13 0 15 -14z m684 -6 l14 -20 18 0 18 0 0 -10 0 -10 -18 0 -18 0
-14 20 -14 20 -28 0 -28 0 0 10 0 10 28 0 28 0 14 -20z m270 10 l0 -10 -20 0
-20 0 0 10 0 10 20 0 20 0 0 -10z m-160 -40 l0 -10 -20 0 -20 0 0 10 0 10 20
0 20 0 0 -10z m-780 -20 l0 -10 -25 0 -26 0 -26 -26 -25 -25 6 -7 7 -6 10 14
9 15 10 -15 10 -15 9 14 9 14 19 -18 18 -18 -13 -5 -12 -4 0 -19 0 -19 9 0 9
0 5 13 4 12 8 -7 7 -7 -41 -40 -41 -39 0 -16 0 -16 6 0 6 0 28 30 28 30 15 0
15 0 5 13 4 12 8 -7 7 -7 -15 -16 -16 -15 -11 0 -11 0 -24 -25 -25 -24 0 -16
0 -15 -9 0 -9 0 -5 13 -4 12 -20 -22 -20 -23 -32 0 -32 0 -15 14 -14 15 0 31
0 31 35 34 34 35 16 0 15 0 0 10 0 10 20 0 20 0 0 -10 0 -10 10 0 10 0 0 16 0
15 -17 17 -16 17 -5 -13 -4 -12 -15 0 -14 0 -15 15 -15 15 33 34 33 35 38 0
37 1 0 -10z m440 -60 l0 -10 20 0 20 0 0 -10 0 -10 20 0 20 0 0 -10 0 -10 20
0 20 0 0 -10 0 -10 20 0 20 0 0 -10 0 -10 -20 0 -20 0 0 10 0 10 -20 0 -20 0
0 10 0 10 -20 0 -20 0 0 -5 0 -6 45 -44 44 -45 12 0 11 0 29 31 30 32 5 -6 6
-6 -36 -35 -35 -36 -11 0 -11 0 -51 52 -51 53 -5 -13 -4 -12 -29 0 -29 0 0 10
0 10 -20 0 -20 0 0 10 0 10 20 0 20 0 0 -10 0 -10 26 0 25 0 15 14 14 15 0 5
0 6 -20 0 -20 0 0 10 0 10 -30 0 -30 0 0 10 0 10 30 0 30 0 0 -10z m200 0 l0
-10 -20 0 -20 0 0 10 0 10 20 0 20 0 0 -10z m80 -20 l0 -10 -30 0 -30 0 0 10
0 10 30 0 30 0 0 -10z m-100 -20 l0 -10 40 0 40 0 0 -10 0 -10 -40 0 -40 0 0
10 0 10 -20 0 -20 0 0 10 0 10 20 0 20 0 0 -10z m-300 -20 l0 -10 -50 0 -50 0
0 10 0 10 50 0 50 0 0 -10z m440 0 l0 -10 -20 0 -20 0 0 10 0 10 20 0 20 0 0
-10z m80 0 l0 -10 -30 0 -30 0 0 10 0 10 30 0 30 0 0 -10z m-640 -30 l0 -20
10 0 10 0 0 -20 0 -20 10 0 10 0 0 -16 0 -15 14 -15 15 -14 15 0 16 0 0 20 0
20 -20 0 -20 0 0 10 0 10 46 0 47 0 20 -22 20 -23 4 13 5 12 55 0 55 0 28 -30
28 -30 16 0 16 0 0 -18 0 -18 20 -14 20 -14 0 -17 0 -17 -12 -5 -13 -4 8 -9 8
-8 9 14 9 14 19 -22 19 -22 14 0 15 0 14 -20 14 -20 13 0 14 0 44 -45 45 -44
0 -6 0 -5 -20 0 -20 0 0 10 0 10 -20 0 -20 0 0 10 0 10 -16 0 -15 0 -49 50
-49 50 -11 0 -11 0 -15 14 -14 15 0 25 0 26 -10 0 -10 0 0 -10 0 -10 -10 0
-10 0 0 20 0 20 -18 0 -18 0 -14 20 -14 20 -8 0 -8 0 0 -20 0 -20 -10 0 -10 0
0 20 0 20 -30 0 -30 0 0 -30 0 -30 -10 0 -10 0 0 -15 0 -16 -25 -24 -24 -25
-11 0 -11 0 -24 -25 -25 -24 0 -16 0 -15 -10 0 -10 0 0 19 0 19 13 5 12 4 -7
8 -7 7 -16 -15 -15 -16 0 -45 0 -46 -9 0 -9 0 -5 13 -5 12 -11 -15 -10 -14 -7
7 -7 7 21 19 22 18 0 27 0 26 10 0 10 0 0 19 0 19 13 5 12 5 -15 11 -14 10 7
8 8 7 9 -14 8 -14 32 34 31 33 6 -6 6 -6 -32 -30 -31 -29 0 -16 0 -16 8 0 8 0
14 20 14 20 14 0 13 0 15 14 14 15 0 44 0 45 12 4 12 4 -26 27 -27 27 -6 0 -5
0 0 -20 0 -20 10 0 10 0 0 -16 0 -15 -15 -16 -16 -15 -7 7 -7 8 13 4 12 5 0
19 0 19 -10 0 -10 0 0 -10 0 -10 -15 0 -16 0 -24 25 -25 24 0 16 0 15 -10 0
-10 0 0 20 0 20 -10 0 -10 0 0 20 0 20 10 0 10 0 0 -20z m700 10 l0 -10 -20 0
-20 0 0 10 0 10 20 0 20 0 0 -10z m-560 -20 l0 -10 -20 0 -20 0 0 10 0 10 20
0 20 0 0 -10z m60 -20 l0 -10 -20 0 -20 0 0 10 0 10 20 0 20 0 0 -10z m80 0
l0 -10 -30 0 -30 0 0 10 0 10 30 0 30 0 0 -10z m220 -20 l0 -10 20 0 20 0 0
10 0 10 20 0 20 0 0 -10 0 -10 -20 0 -20 0 0 -10 0 -10 -20 0 -20 0 0 10 0 10
-20 0 -20 0 0 10 0 10 20 0 20 0 0 -10z m120 0 l0 -10 -10 0 -10 0 0 10 0 10
10 0 10 0 0 -10z m57 -16 l25 -25 -5 -6 -6 -5 -25 25 -26 26 0 6 0 5 5 0 6 0
26 -26z m-717 -44 l0 -30 -10 0 -10 0 0 30 0 30 10 0 10 0 0 -30z m507 -5 l15
-16 -7 -7 -8 -7 -4 13 -5 12 -19 0 -19 0 0 10 0 10 16 0 15 0 16 -15z m-647
-15 l0 -10 -10 0 -10 0 0 10 0 10 10 0 10 0 0 -10z m720 0 l0 -10 -20 0 -20 0
0 10 0 10 20 0 20 0 0 -10z m-660 -40 l0 -10 -10 0 -10 0 0 10 0 10 10 0 10 0
0 -10z m730 -10 l14 -20 18 0 18 0 0 -10 0 -10 -18 0 -18 0 -14 20 -14 20 -18
0 -18 0 0 10 0 10 18 0 18 0 14 -20z m-710 -30 l0 -10 -10 0 -10 0 0 10 0 10
10 0 10 0 0 -10z m60 0 l0 -10 -10 0 -10 0 0 10 0 10 10 0 10 0 0 -10z m767
-25 l15 -16 -7 -7 -8 -7 -4 13 -5 12 -19 0 -19 0 0 10 0 10 16 0 15 0 16 -15z
m-860 -20 l15 -16 -21 -18 -21 -18 0 -36 0 -35 -12 -5 -13 -5 15 -11 14 -10
-6 -7 -7 -6 -16 15 -15 16 0 35 0 36 10 0 10 0 0 20 0 20 20 0 20 0 0 10 0 10
-10 0 -10 0 0 10 0 10 6 0 5 0 16 -15z m53 5 l0 -10 -10 0 -10 0 0 10 0 10 10
0 10 0 0 -10z m0 -50 l0 -20 -10 0 -10 0 0 20 0 20 10 0 10 0 0 -20z m280 10
l0 -10 -10 0 -10 0 0 -20 0 -20 -10 0 -10 0 0 15 0 16 13 14 12 14 8 1 7 0 0
-10z m266 -24 l14 -15 0 -15 0 -16 -30 0 -30 0 0 10 0 10 20 0 20 0 0 10 0 10
-10 0 -10 0 0 10 0 10 6 0 5 0 15 -14z m-586 -56 l0 -50 -10 0 -10 0 0 50 0
50 10 0 10 0 0 -50z m260 10 l0 -20 -10 0 -10 0 0 20 0 20 10 0 10 0 0 -20z
m120 10 l0 -10 -20 0 -20 0 0 -20 0 -20 -20 0 -20 0 0 -10 0 -10 -20 0 -20 0
0 10 0 10 18 0 17 1 25 29 25 29 18 1 17 0 0 -10z m-180 -40 l0 -10 -10 0 -10
0 0 10 0 10 10 0 10 0 0 -10z m380 -10 l0 -20 -20 0 -20 0 0 5 0 6 13 14 12
14 8 1 7 0 0 -20z"/>
<path d="M140 930 l0 -10 40 0 40 0 0 10 0 10 -40 0 -40 0 0 -10z"/>
<path d="M240 910 l0 -10 10 0 10 0 0 10 0 10 -10 0 -10 0 0 -10z"/>
<path d="M180 890 l0 -10 20 0 20 0 0 10 0 10 -20 0 -20 0 0 -10z"/>
<path d="M91 844 l-14 -16 14 -9 14 -9 -14 -9 -14 -9 18 -19 18 -18 5 13 4 12
15 0 14 0 15 14 14 15 0 11 0 11 -14 15 -15 14 -23 0 -23 -1 -14 -15z m29 -14
l0 -10 20 0 20 0 0 -10 0 -10 -16 0 -15 0 -15 14 -14 15 0 5 0 6 10 0 10 0 0
-10z"/>
<path d="M360 690 l0 -10 10 0 10 0 0 10 0 10 -10 0 -10 0 0 -10z"/>
<path d="M280 690 l0 -10 10 0 10 0 0 10 0 10 -10 0 -10 0 0 -10z"/>
<path d="M210 620 l-14 -20 -14 0 -13 0 -15 -14 -14 -15 0 -5 0 -6 26 0 26 0
30 32 30 32 8 -14 8 -13 17 17 17 17 -6 7 -7 6 -10 -14 -11 -15 -5 13 -5 12
-17 0 -17 0 -14 -20z"/>
<path d="M151 524 l-13 -15 7 -7 6 -6 10 14 9 15 9 -14 9 -14 17 17 17 17 -6
7 -7 6 -10 -14 -11 -15 -5 13 -5 12 -6 0 -7 -1 -14 -15z"/>
</g>
</svg>
