<?xml version="1.0" standalone="no"?>
<!DOCTYPE svg PUBLIC "-//W3C//DTD SVG 20010904//EN"
 "http://www.w3.org/TR/2001/REC-SVG-20010904/DTD/svg10.dtd">
<svg version="1.0" xmlns="http://www.w3.org/2000/svg"
 width="468pt" height="468pt" viewBox="0 0 468 468"
 preserveAspectRatio="xMidYMid meet">
<metadata>
Created by potrace 1.8, written by Peter Selinger 2001-2007
</metadata>
<g transform="translate(0,468) scale(0.365625,-0.365625)"
fill="#000000" stroke="none">
<path d="M40 740 l0 -500 600 0 600 0 0 500 0 500 -600 0 -600 0 0 -500z
m1180 330 l0 -150 -366 0 -365 0 -15 14 -14 15 0 25 0 26 -10 0 -10 0 0 25 0
26 -25 24 -24 25 -6 0 -5 0 0 -20 0 -20 -10 0 -10 0 0 -20 0 -20 -10 0 -10 0
0 -20 0 -20 -10 0 -10 0 0 -16 0 -15 -14 -15 -15 -14 -115 0 -116 0 0 150 0
150 580 0 580 0 0 -150z m-920 -180 l0 -10 -10 0 -10 0 0 -20 0 -20 -10 0 -10
0 0 -20 0 -20 -10 0 -10 0 0 -20 0 -20 -6 0 -5 0 -15 14 -14 15 0 11 0 11 -14
15 -15 14 -5 0 -6 0 0 -18 0 -18 -20 -14 -20 -14 0 -28 0 -28 -10 0 -10 0 0
-40 0 -40 -10 0 -10 0 0 -40 0 -40 -10 0 -10 0 0 170 0 170 120 0 120 0 0 -10z
m920 -140 l0 -150 -320 0 -320 0 0 30 0 30 -10 0 -10 0 0 30 0 30 -10 0 -10 0
0 30 0 30 -10 0 -10 0 0 30 0 30 -10 0 -10 0 0 20 0 20 -10 0 -10 0 0 10 0 10
370 0 370 0 0 -150z m0 -180 l0 -10 -10 0 -10 0 0 -30 0 -30 -10 0 -10 0 0
-15 0 -16 -36 -35 -35 -36 -21 24 -21 23 -4 -12 -5 -13 -15 0 -16 0 -18 22
-19 21 -19 -21 -18 -22 -12 0 -12 0 -15 14 -14 15 0 15 0 16 -10 0 -10 0 0
-10 0 -10 -10 0 -10 0 0 20 0 20 -6 0 -5 0 -15 -14 -14 -15 0 -11 0 -11 -15
-16 -15 -15 -30 32 -30 32 -15 -15 -15 -16 0 -15 0 -16 -5 0 -6 0 -24 25 -25
24 0 16 0 15 -10 0 -10 0 0 20 0 20 -10 0 -10 0 0 20 0 20 310 0 310 0 0 -10z"/>
<path d="M0 100 l0 -100 640 0 640 0 0 100 0 100 -640 0 -640 0 0 -100z"/>
</g>
</svg>
