<?xml version="1.0" standalone="no"?>
<!DOCTYPE svg PUBLIC "-//W3C//DTD SVG 20010904//EN"
 "http://www.w3.org/TR/2001/REC-SVG-20010904/DTD/svg10.dtd">
<svg version="1.0" xmlns="http://www.w3.org/2000/svg"
 width="468pt" height="468pt" viewBox="0 0 468 468"
 preserveAspectRatio="xMidYMid meet">
<metadata>
Created by potrace 1.8, written by Peter Selinger 2001-2007
</metadata>
<g transform="translate(0,468) scale(0.365625,-0.365625)"
fill="#000000" stroke="none">
<path d="M320 1271 l0 -9 13 -4 12 -5 13 4 12 5 0 9 0 9 -25 0 -25 0 0 -9z"/>
<path d="M390 1270 l0 -10 15 0 15 0 0 10 0 10 -15 0 -15 0 0 -10z"/>
<path d="M430 1270 l0 -11 20 -21 20 -22 7 7 6 7 -10 0 -11 0 -6 25 -6 25 -10
0 -10 0 0 -10z"/>
<path d="M460 1270 l0 -10 10 0 10 0 0 10 0 10 -10 0 -10 0 0 -10z"/>
<path d="M490 1275 l0 -5 21 -21 21 -21 6 8 7 7 -12 4 -13 5 0 14 0 14 -15 0
-15 0 0 -5z"/>
<path d="M540 1270 l0 -10 9 0 9 0 16 -6 16 -6 0 16 0 16 -25 0 -25 0 0 -10z"/>
<path d="M233 1253 l-33 -4 0 -8 0 -8 -40 -7 -40 -6 0 -10 0 -10 -11 0 -11 0
-39 -39 -39 -39 0 -16 0 -16 -10 0 -10 0 0 -45 0 -45 10 0 10 0 0 -19 0 -20
15 -15 16 -15 17 5 17 6 -14 -10 -14 -10 31 -31 30 -31 12 0 11 0 -13 -13 -13
-14 -39 -6 -39 -6 -6 -9 -6 -9 -15 -6 -15 -5 18 -1 17 -1 0 -10 0 -10 24 0 24
0 5 13 5 13 -32 -2 -31 -3 17 5 18 5 0 10 0 9 31 0 31 0 -5 -14 -6 -14 20 5
19 5 0 8 0 9 -17 4 -18 4 39 -1 39 0 -12 -4 -11 -4 0 -9 0 -9 15 0 15 0 0 10
0 10 15 0 15 0 0 -9 0 -10 48 -4 47 -3 -62 -2 -63 -2 0 -10 0 -10 -39 0 -38 0
-62 -6 -61 -7 0 -378 0 -379 640 0 640 0 0 380 0 380 -517 2 -518 2 103 3 102
4 0 8 0 8 131 5 131 5 6 11 7 10 75 8 75 7 7 11 7 11 81 3 80 4 0 9 0 9 -10 0
-10 0 0 11 0 10 14 14 14 14 26 7 26 6 0 9 0 9 40 6 40 7 0 9 0 9 18 6 17 7
18 17 19 17 -7 20 -6 21 -29 6 -30 7 0 8 0 8 43 44 44 43 -17 18 -17 17 -7 0
-7 0 17 -17 18 -18 -17 -3 -16 -3 -4 -17 -5 -17 -1 18 -1 17 -10 0 -10 0 0 14
0 14 10 5 11 6 -13 -3 -13 -3 0 -37 0 -37 -15 -9 -15 -10 -12 0 -13 0 0 -10 0
-10 -15 0 -15 0 0 -10 0 -10 -24 0 -24 0 -6 15 -5 15 6 17 6 16 18 18 17 17
18 4 19 3 2 15 3 15 -9 15 -10 14 -8 -8 -8 -9 13 -4 12 -5 0 -13 0 -13 -24 -4
-25 -5 -13 9 -13 8 18 11 17 10 0 10 0 10 -21 -20 -21 -19 6 -11 7 -10 -21
-18 -20 -17 0 -13 0 -13 -10 0 -10 0 0 -20 0 -20 9 0 9 0 6 35 7 35 9 0 10 0
0 -15 0 -15 -10 0 -10 0 0 -20 0 -20 25 -6 25 -6 0 -10 0 -9 16 15 15 16 15 0
14 0 0 10 0 10 11 0 10 0 15 -14 14 -14 -13 -5 -12 -4 9 -9 9 -9 4 13 5 12 14
0 14 0 0 -10 0 -10 16 0 15 0 -14 -15 -15 -14 -28 -7 -29 -7 -8 -11 -9 -11 -5
12 -5 13 -15 -15 -14 -15 -10 0 -9 0 0 15 0 15 12 0 11 0 -6 7 -7 7 -20 -22
-20 -21 -14 5 -14 5 -5 34 -5 33 -21 21 -21 21 -10 0 -10 0 0 9 0 9 -47 7 -46
7 -26 29 -25 29 -9 0 -8 0 15 -16 16 -15 0 -15 0 -14 10 0 10 0 0 -14 0 -15
16 -15 15 -16 27 1 27 1 -20 5 -20 5 -7 12 -8 11 0 8 0 7 15 0 15 0 0 -10 0
-10 25 0 25 0 1 -12 1 -13 2 -14 1 -14 13 -3 13 -2 -11 5 -10 5 0 9 0 9 10 0
10 0 6 -25 6 -25 9 0 9 0 0 -31 0 -31 -29 -29 -29 -29 -4 -9 -3 -8 -22 -7 -23
-7 0 15 0 16 -9 0 -9 0 -5 -12 -5 -13 -1 10 -1 10 11 15 11 15 5 -12 5 -13 9
0 9 0 20 17 20 17 0 8 0 8 -11 0 -12 0 -11 -16 -12 -15 -17 7 -17 6 0 9 0 9
10 0 10 0 0 15 0 15 12 0 11 0 -4 5 -5 4 -22 -5 -21 -6 3 -30 3 -29 -16 3 -16
4 2 18 1 18 -18 -5 -18 -5 -11 8 -12 7 -4 33 -4 33 -7 6 -7 6 -4 -12 -5 -13
-14 0 -14 0 0 9 0 9 13 5 12 5 -12 1 -13 1 0 15 0 15 -9 0 -9 0 -5 -19 -5 -20
17 7 16 6 -17 -18 -18 -17 0 -12 0 -11 27 -23 26 -23 -11 0 -12 0 0 -10 0 -10
13 0 12 0 1 -24 2 -25 -25 25 -24 24 -4 0 -4 0 5 -15 6 -15 9 0 9 0 0 -14 0
-14 13 -5 12 -4 -7 -8 -7 -8 -30 -3 -29 -3 -5 19 -5 20 -16 0 -16 0 0 10 0 10
-15 0 -15 0 0 10 0 11 15 5 15 6 0 25 0 25 20 5 20 5 0 13 0 13 13 6 12 6 -12
6 -13 6 0 13 0 13 13 5 12 5 -12 1 -13 1 0 10 0 10 15 0 15 0 0 15 0 14 -15
-5 -15 -6 0 -12 0 -11 -10 15 -9 14 -8 -7 -7 -8 14 -9 14 -9 -7 -8 -8 -7 -9
14 -10 15 0 -11 0 -12 -15 -6 -15 -5 0 14 0 15 10 0 10 0 22 22 21 21 0 29 0
28 -18 14 -18 13 5 9 6 9 -29 2 -30 2 15 -14 15 -15 10 0 11 0 0 -15 0 -15 -9
0 -9 0 -4 9 -3 9 -13 -14 -12 -14 31 4 31 4 -7 -27 -7 -26 -10 -6 -11 -7 -12
5 -13 4 -6 -25 -6 -26 -10 0 -10 0 0 13 0 12 -10 -15 -10 -15 -10 15 -10 15
-10 -15 -10 -15 0 10 0 10 10 15 10 15 9 -15 10 -14 8 7 7 8 -13 8 -13 9 13 5
14 5 -15 11 -15 11 -10 0 -10 0 15 -10 15 -10 -14 -9 -14 -9 -13 5 -13 5 -4
-29 -4 -28 -2 28 -1 27 -10 0 -10 0 0 14 0 14 -30 30 -30 30 13 5 12 4 -9 9
-9 9 -4 -12 -5 -13 -13 0 -13 0 -6 13 -6 12 -6 -12 -6 -13 -15 15 -14 15 -27
-2 -27 -1 -32 -4z m47 -13 l0 -10 -10 0 -10 0 0 10 0 10 10 0 10 0 0 -10z m32
0 l3 -11 30 -3 30 -4 13 -1 12 -1 0 -11 0 -10 14 -15 15 -14 10 0 11 0 0 -39
0 -39 -12 -5 -13 -4 -12 5 -13 4 0 19 0 19 18 1 17 1 -15 5 -15 6 -6 9 -6 9
-1 -36 -1 -36 -17 -16 -16 -17 -10 17 -9 17 -9 0 -10 0 0 -15 0 -15 25 -6 25
-6 0 -9 0 -9 10 0 10 0 0 14 0 13 30 -3 30 -4 1 18 1 17 5 -17 4 -18 10 0 9 0
0 18 0 17 10 -15 10 -15 10 15 10 15 0 -19 0 -18 32 6 32 6 9 13 9 12 -6 -19
-6 -18 20 5 20 5 15 -15 15 -14 0 10 0 11 10 0 10 0 0 -11 0 -10 -12 -13 -13
-12 -17 -7 -18 -6 0 14 0 15 -9 0 -9 0 -5 -12 -5 -13 -1 16 -1 16 -90 -2 -90
-1 -7 -7 -6 -7 8 -7 8 -8 4 13 5 12 14 0 14 0 0 -9 0 -9 -27 -7 -28 -7 -8 -11
-9 -12 -5 13 -5 12 -9 0 -9 0 0 -9 0 -10 20 -6 20 -6 6 -25 6 -24 9 0 9 0 0
10 0 10 23 1 22 1 -17 5 -16 4 -5 13 -5 13 9 14 8 14 74 0 73 0 17 -17 17 -17
0 -5 0 -6 -21 -21 -22 -22 -9 17 -9 16 -9 0 -10 0 0 -14 0 -14 13 -5 12 -4 -8
-9 -8 -8 -10 14 -11 15 -5 -14 -5 -13 -10 13 -10 14 -5 -14 -5 -13 -9 13 -9
14 -9 -14 -9 -13 -6 13 -6 14 -6 -12 -6 -13 -13 0 -14 0 -6 20 -6 20 -10 0 -9
0 0 -10 0 -10 -10 0 -10 0 0 15 0 14 -22 21 -22 20 22 20 21 20 -5 14 -6 14
-14 6 -14 5 0 15 0 14 -12 5 -13 5 15 11 14 10 -5 6 -6 6 -34 4 -34 4 -3 10
-3 10 -20 -18 -20 -18 7 -16 6 -17 9 0 9 0 0 10 0 10 -10 0 -10 0 0 10 0 10
25 0 25 0 0 -9 0 -10 15 -14 14 -15 6 -28 5 -29 -6 15 -7 14 -18 19 -17 19
-11 -6 -11 -7 4 -29 3 -28 -8 -14 -9 -13 -9 14 -9 14 6 16 6 15 -16 -14 -16
-15 11 -7 11 -7 -4 -5 -5 -4 -36 -7 -36 -7 -16 16 -16 16 2 -26 2 -27 -13 -3
-12 -2 10 5 10 5 0 15 0 15 -15 -6 -14 -5 -16 15 -15 16 6 51 5 52 4 3 3 4 59
3 58 4 18 1 17 0 0 10 0 10 -20 0 -20 0 -1 -12 -1 -13 -5 13 -5 12 -29 0 -29
0 0 -10 0 -10 -10 0 -10 0 0 9 0 10 22 7 23 7 12 16 13 16 15 -19 15 -20 7 9
8 8 -12 4 -13 5 0 14 0 14 9 0 9 0 6 -12 5 -13 11 17 11 18 40 -4 40 -4 6 14
5 14 8 0 8 0 4 -10z m768 -59 l0 -9 -14 -5 -15 -6 6 15 5 14 9 0 9 0 0 -9z
m140 -26 l0 -5 -21 -21 -21 -21 -5 5 -5 5 19 20 18 20 8 1 7 1 0 -5z m-940
-35 l0 -10 -10 0 -10 0 0 10 0 10 10 0 10 0 0 -10z m403 -47 l-5 -13 -14 0
-14 0 0 13 0 13 19 0 19 0 -5 -13z m-432 0 l1 -8 2 -22 3 -21 -14 5 -13 5 0 9
0 9 13 1 12 1 -12 5 -13 5 0 9 0 9 10 0 10 0 1 -7z m309 -3 l0 -10 -10 0 -10
0 0 10 0 10 10 0 10 0 0 -10z m-255 -76 l-17 -13 28 -27 29 -27 -25 8 -25 7
-2 2 -1 1 -7 26 -6 26 17 18 18 18 4 -13 5 -13 -18 -13z m470 0 l25 -27 0 -13
0 -14 12 0 11 0 -6 -7 -7 -7 -20 22 -20 21 0 11 0 11 -15 5 -15 6 0 9 0 9 5 0
6 0 24 -26z m15 16 l0 -10 -10 0 -10 0 0 10 0 10 10 0 10 0 0 -10z m-539 -34
l1 -11 -1 -17 -2 -18 15 6 16 6 0 -16 0 -16 -9 0 -9 0 -6 -25 -6 -25 -10 0
-10 0 0 10 0 10 10 0 10 0 0 15 0 15 -9 0 -9 0 -6 -15 -5 -15 -13 1 -13 1 13
5 12 5 0 19 0 19 -10 0 -10 0 -6 -25 -6 -25 -9 0 -9 0 0 15 0 15 10 0 10 0 0
9 0 9 -26 5 -25 4 -15 -14 -15 -15 6 28 7 29 -11 -15 -10 -14 -8 7 -7 8 14 9
15 10 18 0 17 0 0 9 0 10 38 3 37 3 13 -3 12 -4 1 -12z m883 9 l-6 -15 -9 0
-9 0 0 9 0 9 13 5 12 5 2 1 2 1 -5 -15z m-279 -77 l1 -26 -13 5 -13 5 0 25 0
25 13 -4 12 -5 0 -25z m-540 2 l6 -20 14 0 14 0 -5 -15 -6 -15 -9 0 -9 0 0 15
0 14 -14 -5 -14 -5 -6 9 -6 10 6 16 6 16 8 0 9 0 6 -20z m328 -28 l17 -2 0
-14 0 -14 13 -5 12 -4 -8 -9 -9 -9 -9 18 -10 17 -14 0 -13 0 -5 13 -5 12 -10
-14 -10 -13 -27 0 -27 0 13 -9 13 -8 -7 -8 -8 -7 -9 14 -8 14 -36 2 -36 3 0
-14 0 -13 13 -5 12 -5 -13 -1 -14 -1 -5 20 -5 20 -12 -1 -11 -1 -17 1 -18 1 0
10 0 10 30 0 30 0 1 -12 1 -13 5 13 5 12 28 0 28 0 4 -12 5 -13 15 15 15 16
34 -1 34 -2 18 -1z m-252 -39 l1 -18 5 13 5 12 9 0 9 0 0 -9 0 -9 -14 -5 -14
-6 -23 20 -22 19 21 0 22 0 1 -17z m229 2 l0 -15 -9 0 -9 0 -17 -7 -17 -6 18
21 18 22 8 0 8 0 0 -15z m-110 -5 l0 -10 -10 0 -10 0 0 10 0 10 10 0 10 0 0
-10z"/>
<path d="M290 1150 l0 -10 10 0 10 0 0 10 0 10 -10 0 -10 0 0 -10z"/>
<path d="M60 1095 l0 -15 10 0 10 0 0 15 0 15 -10 0 -10 0 0 -15z"/>
<path d="M342 1098 l4 -12 12 -4 12 -4 0 16 0 16 -16 0 -16 0 4 -12z"/>
<path d="M30 1070 l0 -10 10 0 10 0 0 10 0 10 -10 0 -10 0 0 -10z"/>
<path d="M150 1070 l0 -10 10 0 10 0 0 10 0 10 -10 0 -10 0 0 -10z"/>
<path d="M30 1039 l0 -10 15 -15 15 -15 0 9 0 10 -6 16 -6 16 -9 0 -9 0 0 -11z"/>
<path d="M370 1010 l0 -10 10 0 10 0 0 10 0 10 -10 0 -10 0 0 -10z"/>
<path d="M460 980 l0 -10 10 0 10 0 0 10 0 10 -10 0 -10 0 0 -10z"/>
<path d="M490 980 l0 -10 10 0 10 0 0 -15 0 -15 -9 0 -9 0 -5 13 -5 12 -1 -17
-1 -18 19 0 20 0 17 17 17 18 5 -13 4 -12 14 0 14 0 0 10 0 10 -17 2 -18 1
-18 -1 -18 -2 -5 15 -6 15 -9 0 -9 0 0 -10z"/>
<path d="M214 976 l-10 -11 -6 -17 -7 -17 15 6 14 5 0 14 0 13 18 -5 17 -6
-10 9 -10 8 -5 7 -5 6 -11 -12z"/>
<path d="M150 950 l0 -10 10 0 10 0 0 10 0 10 -10 0 -10 0 0 -10z"/>
<path d="M290 900 l0 -10 10 0 10 0 0 10 0 10 -10 0 -10 0 0 -10z"/>
<path d="M680 1240 l0 -10 15 0 15 0 0 10 0 10 -15 0 -15 0 0 -10z"/>
<path d="M565 1219 l-7 -10 6 -6 6 -6 0 11 0 11 18 4 17 5 -17 1 -17 1 -6 -11z"/>
<path d="M738 1223 l22 -4 1 -12 1 -12 -2 -14 -2 -14 16 16 16 16 0 9 0 10
-22 6 -23 6 -15 -1 -15 -2 23 -4z"/>
<path d="M567 1147 l-5 -14 8 -14 9 -13 8 7 7 8 -14 9 -15 10 13 0 12 0 0 10
0 10 -9 0 -9 0 -5 -13z"/>
<path d="M740 1150 l0 -10 10 0 10 0 0 10 0 10 -10 0 -10 0 0 -10z"/>
<path d="M800 1150 l0 -10 10 0 10 0 0 10 0 10 -10 0 -10 0 0 -10z"/>
<path d="M770 1120 l0 -10 10 0 10 0 0 10 0 10 -10 0 -10 0 0 -10z"/>
<path d="M781 1081 l-13 -9 21 -21 21 -21 10 0 10 0 0 10 0 10 16 0 15 0 -3
18 -3 17 -15 0 -15 0 1 -18 2 -18 -17 3 -16 4 1 17 2 17 -2 0 -1 0 -14 -9z
m69 -11 l0 -10 -10 0 -10 0 0 10 0 10 10 0 10 0 0 -10z"/>
<path d="M1030 1070 l0 -10 10 0 10 0 0 10 0 10 -10 0 -10 0 0 -10z"/>
<path d="M890 1040 l0 -10 10 0 10 0 0 10 0 10 -10 0 -10 0 0 -10z"/>
<path d="M850 1012 l0 -12 -15 0 -15 0 0 -15 0 -16 22 21 22 20 -7 7 -7 6 0
-11z"/>
<path d="M958 999 l-18 -19 0 -5 0 -5 15 0 15 0 0 15 0 15 10 0 10 0 0 10 0
10 -7 -1 -8 -1 -17 -19z"/>
<path d="M717 874 l5 -14 9 0 9 0 0 9 0 9 -14 5 -15 6 6 -15z"/>
</g>
</svg>
