<?xml version="1.0" standalone="no"?>
<!DOCTYPE svg PUBLIC "-//W3C//DTD SVG 20010904//EN"
 "http://www.w3.org/TR/2001/REC-SVG-20010904/DTD/svg10.dtd">
<svg version="1.0" xmlns="http://www.w3.org/2000/svg"
 width="468pt" height="468pt" viewBox="0 0 468 468"
 preserveAspectRatio="xMidYMid meet">
<metadata>
Created by potrace 1.8, written by Peter Selinger 2001-2007
</metadata>
<g transform="translate(0,468) scale(0.365625,-0.365625)"
fill="#000000" stroke="none">
<path d="M13 1265 l-13 -14 0 -626 0 -625 10 0 10 0 0 615 0 615 15 0 15 0 0
15 0 15 140 0 140 0 0 -15 0 -15 10 0 11 0 24 -25 25 -24 0 -11 0 -10 11 0 10
0 15 -14 14 -15 0 -20 0 -21 10 0 10 0 0 10 0 10 60 0 60 0 0 -10 0 -10 35 0
35 0 0 -25 0 -25 25 0 25 0 0 -80 0 -80 -25 0 -25 0 0 -35 0 -35 -70 0 -70 0
0 -15 0 -15 145 0 145 0 0 -35 0 -35 10 0 10 0 0 10 0 10 10 0 10 0 0 -20 0
-20 15 0 15 0 0 -25 0 -25 -15 0 -15 0 0 -10 0 -10 -20 0 -20 0 0 -15 0 -15
-25 0 -25 0 0 -10 0 -10 -25 0 -25 0 0 -10 0 -10 -60 0 -60 0 0 10 0 10 -20 0
-20 0 0 10 0 10 -25 0 -25 0 0 15 0 15 -21 0 -20 0 -15 14 -14 15 0 20 0 21
10 0 10 0 0 20 0 20 10 0 10 0 0 -10 0 -10 15 0 15 0 0 35 0 35 -15 0 -15 0 0
-10 0 -10 -35 0 -35 0 0 -15 0 -15 -20 0 -20 0 0 -10 0 -10 -14 0 -14 0 -6
-12 -6 -13 -6 13 -6 12 -34 0 -34 0 0 -10 0 -10 10 0 10 0 0 -345 0 -345 10 0
10 0 0 345 0 345 15 0 15 0 0 -236 0 -235 14 -15 15 -14 20 0 21 0 0 -10 0
-10 25 0 25 0 0 -15 0 -15 10 0 10 0 0 -34 0 -34 -13 -6 -12 -6 13 -6 12 -6 0
-10 0 -9 14 -15 15 -14 20 0 21 0 0 60 0 60 15 0 15 0 0 -60 0 -60 10 0 10 0
0 25 0 25 25 0 25 0 0 35 0 35 70 0 70 0 0 10 0 10 -145 0 -145 0 0 35 0 35
-10 0 -10 0 0 -10 0 -10 -10 0 -10 0 0 25 0 25 -15 0 -15 0 0 20 0 20 15 0 15
0 0 15 0 15 20 0 20 0 0 10 0 10 25 0 25 0 0 15 0 15 25 0 25 0 0 10 0 10 60
0 60 0 0 -10 0 -10 20 0 20 0 0 -15 0 -15 25 0 25 0 0 -10 0 -10 25 0 25 0 0
-15 0 -15 10 0 10 0 0 -20 0 -20 -10 0 -10 0 0 -25 0 -25 -10 0 -10 0 0 10 0
10 -15 0 -15 0 0 -35 0 -35 15 0 15 0 0 15 0 15 35 0 35 0 0 10 0 10 20 0 20
0 0 10 0 10 15 0 15 0 0 15 0 15 10 0 10 0 0 231 0 230 -14 15 -15 14 -20 0
-21 0 0 15 0 15 -21 0 -20 0 -15 14 -14 15 0 30 0 31 10 0 10 0 0 10 0 11 -25
24 -24 25 -11 0 -10 0 0 85 0 85 15 0 15 0 0 23 0 23 20 14 20 14 0 13 0 13
10 0 11 0 24 25 25 24 0 11 0 10 145 0 145 0 0 -11 0 -10 14 -15 15 -14 10 0
11 0 0 -605 0 -605 10 0 10 0 0 615 0 615 -10 0 -10 0 0 15 0 15 -15 0 -15 0
0 10 0 10 -602 0 -603 -1 -12 -14z m437 -20 l0 -15 10 0 10 0 0 15 0 15 15 0
15 0 0 -14 0 -14 13 -5 12 -4 -9 -9 -9 -9 -4 13 -5 12 -13 0 -13 0 -4 -12 -5
-13 -16 17 -17 17 0 10 0 11 10 0 10 0 0 -15z m190 1 l0 -14 13 -5 12 -4 -8
-9 -8 -8 -10 14 -11 15 -5 -12 -5 -13 -14 0 -14 0 0 10 0 10 15 0 15 0 0 15 0
15 10 0 10 0 0 -14z m140 -1 l0 -15 15 0 15 0 0 15 0 15 10 0 10 0 0 -11 0
-10 -14 -15 -15 -14 -9 0 -10 0 -6 13 -6 12 -6 -12 -6 -13 -14 0 -14 0 0 10 0
10 15 0 15 0 0 15 0 15 10 0 10 0 0 -15z m-70 -165 l0 -10 -10 0 -10 0 0 10 0
10 10 0 10 0 0 -10z m50 -130 l0 -140 -15 0 -15 0 0 140 0 140 15 0 15 0 0
-140z m50 -95 l0 -45 -15 0 -15 0 0 45 0 45 15 0 15 0 0 -45z m-100 -25 l0
-20 -10 0 -10 0 0 20 0 20 10 0 10 0 0 -20z m-210 -760 l0 -50 -15 0 -15 0 0
50 0 50 15 0 15 0 0 -50z m90 25 l0 -25 -10 0 -10 0 0 25 0 25 10 0 10 0 0
-25z"/>
<path d="M90 1220 l0 -10 25 0 25 0 0 -85 0 -85 -35 0 -35 0 0 35 0 35 -10 0
-10 0 0 -31 0 -30 14 -15 15 -14 30 0 31 0 0 10 0 10 15 0 15 0 0 85 0 85 20
0 20 0 0 10 0 10 -60 0 -60 0 0 -10z"/>
<path d="M893 1095 l-13 -14 0 -51 0 -51 14 -15 15 -14 16 0 16 0 15 14 14 15
0 10 0 11 -35 0 -35 0 0 35 0 35 35 0 35 0 0 6 0 5 -14 15 -15 14 -18 0 -18
-1 -12 -14z"/>
<path d="M1000 675 l0 -435 -15 0 -15 0 0 -15 0 -15 35 0 35 0 0 15 0 15 -10
0 -10 0 0 435 0 435 -10 0 -10 0 0 -435z"/>
<path d="M470 1046 l0 -24 -12 -5 -13 -4 9 -9 9 -9 4 13 5 12 14 0 14 0 0 10
0 10 45 0 45 0 0 15 0 15 -60 0 -60 0 0 -24z"/>
<path d="M950 1030 l0 -10 10 0 10 0 0 10 0 10 -10 0 -10 0 0 -10z"/>
<path d="M520 995 l0 -25 25 0 25 0 0 25 0 25 -25 0 -25 0 0 -25z"/>
<path d="M430 960 l0 -10 20 0 20 0 0 -35 0 -35 15 0 15 0 0 10 0 10 31 0 30
0 15 14 14 15 0 10 0 11 -10 0 -10 0 0 -15 0 -15 -35 0 -35 0 0 15 0 15 -15 0
-15 0 0 10 0 10 -20 0 -20 0 0 -10z"/>
<path d="M60 903 l-14 -17 12 -4 12 -4 0 -13 0 -13 -12 -5 -13 -4 23 -20 22
-20 0 -12 0 -11 14 0 14 0 6 -12 6 -13 6 13 6 12 14 0 14 0 0 11 0 12 23 20
22 20 -12 4 -13 5 0 13 0 13 12 4 13 5 -19 19 -19 19 -5 -13 -4 -12 -13 0 -13
0 -6 -12 -6 -13 -6 13 -6 12 -14 0 -14 0 0 10 0 10 -7 0 -8 -1 -15 -16z m30
-13 l0 -10 15 0 15 0 0 -15 0 -15 -15 0 -15 0 0 -10 0 -10 14 0 14 0 6 13 6
12 6 -12 6 -13 14 0 14 0 0 10 0 10 -15 0 -15 0 0 15 0 15 14 0 14 0 5 13 4
12 9 -9 9 -9 -12 -4 -13 -5 0 -13 0 -13 12 -4 13 -5 -17 -16 -17 -17 -10 0
-11 0 0 -15 0 -15 -10 0 -10 0 0 15 0 15 -11 0 -10 0 -17 17 -17 16 13 5 12 4
0 14 0 14 -10 0 -10 0 0 10 0 10 10 0 10 0 0 -10z"/>
<path d="M120 820 l0 -10 10 0 10 0 0 10 0 10 -10 0 -10 0 0 -10z"/>
<path d="M500 865 l0 -15 -15 0 -15 0 0 -10 0 -10 15 0 15 0 0 10 0 10 25 0
25 0 0 15 0 15 -25 0 -25 0 0 -15z"/>
<path d="M850 815 l0 -35 15 0 15 0 0 35 0 35 -15 0 -15 0 0 -35z"/>
<path d="M570 745 l0 -15 -10 0 -10 0 0 -20 0 -20 10 0 10 0 0 -11 0 -10 14
-15 15 -14 6 0 6 0 15 -14 14 -15 0 -10 0 -11 10 0 10 0 0 15 0 15 10 0 11 0
24 25 25 24 0 11 0 10 15 0 15 0 0 20 0 20 -15 0 -15 0 0 15 0 15 -20 0 -20 0
0 -15 0 -15 -14 0 -14 0 -4 -12 -5 -13 -16 17 -17 17 0 10 0 11 -25 0 -25 0 0
-15z"/>
<path d="M620 320 l0 -10 -15 0 -15 0 0 -10 0 -11 -25 -24 -24 -25 -11 0 -10
0 0 -25 0 -25 15 0 15 0 0 -10 0 -10 20 0 20 0 0 10 0 10 14 0 14 0 5 13 4 12
20 -22 20 -23 17 0 17 0 15 14 14 15 0 16 0 16 -25 24 -24 25 -11 0 -10 0 0
11 0 10 -14 15 -15 14 -5 0 -6 0 0 -10z"/>
<path d="M1140 155 l0 -15 -11 0 -10 0 -15 -14 -14 -15 0 -9 0 -10 -12 -5 -13
-5 15 -12 15 -12 -12 -5 -13 -5 0 -10 0 -9 17 -17 16 -17 5 13 4 12 14 0 14 0
0 15 0 15 -15 0 -15 0 0 -15 0 -15 -10 0 -10 0 0 11 0 10 14 15 15 14 9 0 10
0 6 -12 6 -13 6 13 6 12 10 0 9 0 15 -14 14 -15 0 -10 0 -11 -10 0 -10 0 0 15
0 15 -15 0 -15 0 0 -15 0 -15 14 0 14 0 4 -12 5 -13 16 17 17 17 0 9 0 10 -12
5 -13 5 15 12 15 12 -12 5 -13 5 0 10 0 9 -14 15 -15 14 -10 0 -11 0 0 15 0
15 -10 0 -10 0 0 -15z m20 -25 l0 -10 15 0 15 0 0 -14 0 -14 13 -5 12 -4 -9
-9 -9 -9 -4 13 -5 12 -13 0 -13 0 -6 -12 -6 -13 -6 13 -6 12 -13 0 -13 0 -5
-12 -4 -13 -9 9 -9 9 13 4 12 5 0 14 0 14 15 0 15 0 0 10 0 10 10 0 10 0 0
-10z"/>
<path d="M1140 105 l0 -15 10 0 10 0 0 15 0 15 -10 0 -10 0 0 -15z"/>
<path d="M400 105 l0 -35 15 0 15 0 0 35 0 35 -15 0 -15 0 0 -35z"/>
<path d="M780 80 l0 -10 -25 0 -25 0 0 -10 0 -10 25 0 25 0 0 -15 0 -15 -35 0
-35 0 0 -10 0 -10 50 0 50 0 0 25 0 25 -15 0 -15 0 0 10 0 10 15 0 15 0 0 10
0 10 -15 0 -15 0 0 -10z"/>
</g>
</svg>
