<?xml version="1.0" standalone="no"?>
<!DOCTYPE svg PUBLIC "-//W3C//DTD SVG 20010904//EN"
 "http://www.w3.org/TR/2001/REC-SVG-20010904/DTD/svg10.dtd">
<svg version="1.0" xmlns="http://www.w3.org/2000/svg"
 width="468pt" height="468pt" viewBox="0 0 468 468"
 preserveAspectRatio="xMidYMid meet">
<metadata>
Created by potrace 1.8, written by Peter Selinger 2001-2007
</metadata>
<g transform="translate(0,468) scale(0.365625,-0.365625)"
fill="#000000" stroke="none">
<path d="M620 1250 l0 -10 -80 0 -80 0 0 -10 0 -10 -20 0 -20 0 0 -9 0 -9 13
-5 12 -4 -9 -9 -9 -9 -4 13 -5 12 -17 0 -17 0 -14 -20 -14 -20 -17 0 -17 0 -4
12 -5 13 -16 -17 -17 -17 0 -11 0 -11 -25 -24 -24 -25 -11 0 -11 0 -24 -25
-25 -24 0 -12 0 -11 -30 -28 -30 -28 0 -14 0 -14 -20 -14 -20 -14 0 -28 0 -28
-10 0 -10 0 0 -70 0 -70 30 0 30 0 0 10 0 10 10 0 10 0 0 -20 0 -20 20 0 20 0
0 -10 0 -10 -10 0 -10 0 0 -28 0 -28 20 -14 20 -14 0 -68 0 -68 10 0 10 0 0
-20 0 -20 10 0 10 0 0 -18 0 -18 20 -14 20 -14 0 -14 0 -13 14 -15 15 -14 35
0 36 0 0 20 0 20 10 0 10 0 0 48 0 48 20 14 20 14 0 84 0 83 50 49 50 49 0 15
0 16 10 0 10 0 0 10 0 10 -40 0 -40 0 0 10 0 10 20 0 20 0 0 10 0 10 20 0 20
0 0 10 0 10 20 0 20 0 0 10 0 10 20 0 20 0 0 20 0 20 10 0 10 0 0 10 0 10 -19
0 -19 0 -5 13 -5 12 -10 -14 -10 -14 -26 26 -26 26 0 6 0 5 20 0 20 0 0 -10 0
-10 20 0 20 0 0 -10 0 -10 48 0 48 0 14 -20 14 -20 14 0 13 0 15 -14 14 -15 0
-25 0 -26 10 0 10 0 0 -16 0 -15 15 -15 15 -15 15 15 15 15 0 21 0 21 35 34
34 35 11 0 11 0 34 -35 35 -34 0 -16 0 -15 16 0 17 0 18 -21 18 -21 18 18 18
17 -13 5 -12 4 0 29 0 29 -10 0 -10 0 0 20 0 20 30 0 30 0 0 40 0 40 -10 0
-10 0 0 16 0 17 -22 19 -22 19 14 10 15 9 -15 10 -15 10 14 9 14 9 -26 26 -26
26 -13 0 -14 0 -14 20 -14 20 -16 0 -16 0 -14 20 -14 20 -28 0 -28 0 0 10 0
10 -20 0 -20 0 0 10 0 10 -70 0 -70 0 0 -10 0 -10 -30 0 -30 0 0 10 0 10 -10
0 -10 0 0 -10z m-220 -80 l0 -10 -10 0 -10 0 0 10 0 10 10 0 10 0 0 -10z
m-116 -102 l6 -13 6 13 6 12 9 0 9 0 0 -30 0 -30 10 0 10 0 0 20 0 20 10 0 10
0 0 -20 0 -20 30 0 30 0 0 -20 0 -20 -69 0 -69 0 -4 -12 -5 -13 -16 17 -17 17
0 15 0 16 -20 0 -20 0 0 5 0 6 23 24 22 24 17 0 16 1 6 -12z m122 -142 l14
-15 0 -15 0 -16 10 0 10 0 0 -20 0 -20 10 0 10 0 0 -20 0 -20 -20 0 -20 0 0
20 0 20 -10 0 -10 0 0 40 0 40 -10 0 -10 0 0 10 0 10 6 0 5 0 15 -14z"/>
<path d="M1140 1000 l0 -20 10 0 10 0 0 20 0 20 -10 0 -10 0 0 -20z"/>
<path d="M1180 790 l0 -10 10 0 10 0 0 10 0 10 -10 0 -10 0 0 -10z"/>
<path d="M1200 740 l0 -20 10 0 10 0 0 20 0 20 -10 0 -10 0 0 -20z"/>
<path d="M860 730 l0 -10 10 0 10 0 0 10 0 10 -10 0 -10 0 0 -10z"/>
<path d="M1040 730 l0 -10 10 0 10 0 0 10 0 10 -10 0 -10 0 0 -10z"/>
<path d="M1020 690 l0 -10 10 0 10 0 0 -20 0 -20 10 0 10 0 0 -16 0 -15 15
-15 15 -15 15 15 15 15 0 5 0 6 -20 0 -20 0 0 40 0 40 -9 0 -9 0 -6 -12 -6
-13 -6 13 -6 12 -9 0 -9 0 0 -10z"/>
<path d="M1140 673 l-24 -27 12 -4 12 -4 0 -19 0 -19 20 0 20 0 0 50 0 50 -7
-1 -8 0 -25 -26z"/>
<path d="M1240 620 l0 -20 10 0 10 0 0 -20 0 -20 10 0 10 0 0 26 0 25 -14 15
-15 14 -5 0 -6 0 0 -20z"/>
<path d="M1140 550 l0 -10 10 0 10 0 0 10 0 10 -10 0 -10 0 0 -10z"/>
<path d="M1203 475 l-23 -24 0 -16 0 -15 -16 0 -15 0 -15 -14 -14 -15 0 -15 0
-16 -10 0 -10 0 0 -30 0 -30 -10 0 -10 0 0 -10 0 -10 20 0 20 0 0 10 0 10 20
0 20 0 0 -9 0 -9 -12 -5 -13 -4 7 -8 7 -7 16 15 15 16 0 13 0 14 20 14 20 14
0 28 0 28 10 0 10 0 0 29 0 29 12 4 13 5 -17 16 -17 17 -3 -1 -3 0 -22 -24z"/>
<path d="M493 465 l-13 -14 0 -46 0 -45 6 0 5 0 15 14 14 15 0 35 0 36 10 0
10 0 0 10 0 10 -17 0 -18 -1 -12 -14z"/>
<path d="M780 50 l0 -10 -160 0 -160 0 0 -10 0 -10 50 0 50 0 0 -10 0 -10 90
0 90 0 0 10 0 10 46 0 45 0 15 14 14 15 0 5 0 6 -19 0 -19 0 -6 -12 -6 -13 -6
13 -6 12 -9 0 -9 0 0 -10z"/>
</g>
</svg>
