<?xml version="1.0" standalone="no"?>
<!DOCTYPE svg PUBLIC "-//W3C//DTD SVG 20010904//EN"
 "http://www.w3.org/TR/2001/REC-SVG-20010904/DTD/svg10.dtd">
<svg version="1.0" xmlns="http://www.w3.org/2000/svg"
 width="468pt" height="468pt" viewBox="0 0 468 468"
 preserveAspectRatio="xMidYMid meet">
<metadata>
Created by potrace 1.8, written by Peter Selinger 2001-2007
</metadata>
<g transform="translate(0,468) scale(0.365625,-0.365625)"
fill="#000000" stroke="none">
<path d="M0 924 l0 -357 22 -18 21 -19 -8 -8 -8 -7 -4 13 -5 12 -9 0 -9 0 0
-109 0 -109 13 -5 12 -5 -15 -11 -15 -11 15 -11 15 -11 -13 -5 -12 -5 0 -129
0 -129 640 0 640 0 0 139 0 139 -12 6 -13 6 13 6 12 6 0 128 0 128 -12 6 -13
6 13 6 12 6 0 349 0 349 -109 0 -109 0 -6 -12 -6 -13 -6 13 -6 12 -118 0 -118
0 -6 -12 -6 -13 -6 13 -6 12 -85 0 -86 0 -18 -22 -19 -21 -8 8 -7 8 12 4 13 5
0 9 0 9 -109 0 -109 0 -5 -12 -5 -13 -11 15 -11 15 -11 -15 -11 -15 -5 13 -5
12 -105 0 -106 0 -18 -22 -19 -21 -8 8 -7 8 13 4 12 5 0 9 0 9 -30 0 -30 0 0
-356z m840 326 l0 -10 -10 0 -10 0 0 10 0 10 10 0 10 0 0 -10z m260 0 l0 -10
-10 0 -10 0 0 10 0 10 10 0 10 0 0 -10z m-1000 -16 l0 -5 -15 -16 -16 -15 -5
5 -6 6 13 15 14 15 8 1 7 0 0 -6z m280 0 l0 -5 -15 -16 -16 -15 -5 5 -6 6 13
15 14 15 8 1 7 0 0 -6z m240 -3 l0 -9 -12 -5 -13 -5 15 -11 14 -10 -24 -21
-24 -21 14 -9 14 -9 -7 -8 -8 -7 -10 14 -9 15 -9 -15 -10 -14 -7 6 -7 7 33 31
34 32 -14 8 -13 8 14 16 14 15 8 1 7 0 0 -9z m440 -1 l0 -10 -10 0 -10 0 0 10
0 10 10 0 10 0 0 -10z m-240 -20 l0 -10 -10 0 -10 0 0 10 0 10 10 0 10 0 0
-10z m280 0 l0 -10 -10 0 -10 0 0 10 0 10 10 0 10 0 0 -10z m-740 -35 l0 -6
-26 -26 -25 -25 -6 5 -5 6 23 25 24 25 8 0 7 1 0 -5z m447 -11 l16 -16 -14 -9
-14 -9 15 -9 14 -10 -6 -7 -7 -6 -17 17 -17 17 14 10 14 10 -12 5 -13 5 0 9 0
9 6 0 5 0 16 -16z m279 1 l15 -15 -26 -26 -26 -26 -6 6 -6 6 24 21 24 22 -12
4 -13 5 0 9 0 9 6 0 5 0 15 -15z m-986 -11 l0 -5 -15 -16 -16 -15 -5 5 -6 6
13 15 14 15 8 1 7 0 0 -6z m20 -44 l0 -10 -10 0 -10 0 0 10 0 10 10 0 10 0 0
-10z m-34 -25 l15 -15 -16 -16 -16 -16 -7 6 -6 7 14 10 15 11 -12 5 -13 5 0 9
0 9 6 0 5 0 15 -15z m241 -1 l16 -16 -14 -9 -14 -9 15 -9 14 -10 -6 -7 -7 -6
-26 26 -26 26 13 15 13 14 3 1 3 0 16 -16z m253 6 l0 -10 -10 0 -10 0 0 10 0
10 10 0 10 0 0 -10z m520 1 l0 -9 -12 -5 -13 -4 24 -22 24 -21 -6 -6 -6 -6
-26 26 -26 26 13 15 13 14 8 1 7 0 0 -9z m-553 -26 l15 -16 -5 -6 -6 -5 -16
15 -15 16 0 5 0 6 6 0 5 0 16 -15z m273 9 l0 -5 -15 -16 -16 -15 -5 5 -6 6 13
15 14 15 8 1 7 0 0 -6z m-720 -64 l0 -10 -10 0 -10 0 0 -20 0 -20 -10 0 -10 0
0 15 0 16 13 14 12 14 8 1 7 0 0 -10z m460 0 l0 -10 -10 0 -10 0 0 10 0 10 10
0 10 0 0 -10z m57 -16 l25 -25 -5 -6 -6 -5 -25 25 -26 26 0 6 0 5 5 0 6 0 26
-26z m223 16 l0 -10 -10 0 -10 0 0 10 0 10 10 0 10 0 0 -10z m320 0 l0 -10
-10 0 -10 0 0 10 0 10 10 0 10 0 0 -10z m-794 -46 l36 -35 -5 -6 -6 -5 -35 36
-36 35 0 6 0 5 5 0 6 0 35 -36z m534 30 l0 -5 -15 -16 -16 -15 -5 5 -6 6 13
15 14 15 8 1 7 0 0 -6z m57 -40 l26 -26 -14 -9 -14 -9 15 -9 14 -10 -6 -7 -7
-6 -17 17 -17 17 14 8 13 9 -22 19 -22 19 0 7 0 6 5 0 6 0 26 -26z m219 1 l25
-25 -16 -16 -16 -16 -7 6 -6 7 14 9 14 9 -22 19 -22 19 0 7 0 6 5 0 6 0 25
-25z m-469 -31 l36 -36 -14 -9 -14 -9 15 -9 14 -10 -6 -7 -7 -6 -17 17 -17 17
13 8 14 8 -32 30 -32 30 0 6 0 6 5 0 6 0 36 -36z m-620 1 l15 -16 -5 -6 -6 -5
-16 15 -15 16 0 5 0 6 6 0 5 0 16 -15z m833 5 l0 -10 -10 0 -10 0 0 10 0 10
10 0 10 0 0 -10z m-480 -20 l0 -10 -10 0 -10 0 0 10 0 10 10 0 10 0 0 -10z
m40 0 l0 -10 -10 0 -10 0 0 10 0 10 10 0 10 0 0 -10z m-380 -40 l0 -10 -10 0
-10 0 0 10 0 10 10 0 10 0 0 -10z m40 0 l0 -10 -10 0 -10 0 0 10 0 10 10 0 10
0 0 -10z m367 -5 l15 -16 -5 -6 -6 -5 -16 15 -15 16 0 5 0 6 6 0 5 0 16 -15z
m673 9 l0 -7 -22 -19 -22 -19 14 -10 15 -9 -15 -9 -14 -10 24 -21 24 -21 -14
-10 -15 -9 15 -9 14 -10 -6 -7 -7 -6 -17 17 -17 17 14 8 13 9 -24 21 -24 21
14 10 15 9 -14 9 -14 9 24 25 24 26 8 0 7 1 0 -6z m-980 -24 l0 -10 -10 0 -10
0 0 10 0 10 10 0 10 0 0 -10z m780 1 l0 -9 -12 -5 -13 -5 15 -11 14 -10 -6 -7
-7 -6 -16 16 -16 16 13 14 13 15 8 1 7 0 0 -9z m-820 -21 l0 -10 -10 0 -10 0
0 10 0 10 10 0 10 0 0 -10z m80 -16 l0 -5 -15 -16 -16 -15 -5 5 -6 6 13 15 14
15 8 1 7 0 0 -6z m263 -6 l5 -13 11 15 10 14 7 -6 6 -7 -16 -16 -16 -16 -15
15 -15 15 0 5 0 6 9 0 9 0 5 -12z m197 3 l0 -9 -12 -5 -13 -5 15 -11 14 -10
-6 -7 -7 -6 -16 16 -16 16 13 14 13 15 8 1 7 0 0 -9z m40 -1 l0 -10 -10 0 -10
0 0 10 0 10 10 0 10 0 0 -10z m-560 -20 l0 -10 -10 0 -10 0 0 10 0 10 10 0 10
0 0 -10z m760 0 l0 -10 -10 0 -10 0 0 10 0 10 10 0 10 0 0 -10z m-680 -20 l0
-10 -10 0 -10 0 0 10 0 10 10 0 10 0 0 -10z m220 0 l0 -10 -10 0 -10 0 0 10 0
10 10 0 10 0 0 -10z m420 0 l0 -10 -10 0 -10 0 0 10 0 10 10 0 10 0 0 -10z
m-680 -20 l0 -10 -10 0 -10 0 0 10 0 10 10 0 10 0 0 -10z m447 -5 l15 -16 -5
-6 -6 -5 -16 15 -15 16 0 5 0 6 6 0 5 0 16 -15z m280 0 l15 -16 -6 -7 -7 -6
-10 14 -9 15 -9 -15 -10 -14 -6 6 -7 7 13 15 14 15 3 1 3 0 16 -15z m-467 -14
l0 -9 -12 -5 -13 -5 15 -11 14 -10 -6 -7 -7 -6 -16 16 -16 16 13 14 13 15 8 1
7 0 0 -9z m-280 -21 l0 -10 -10 0 -10 0 0 10 0 10 10 0 10 0 0 -10z m520 0 l0
-10 -10 0 -10 0 0 10 0 10 10 0 10 0 0 -10z m-40 -20 l0 -10 -10 0 -10 0 0 10
0 10 10 0 10 0 0 -10z m246 -5 l15 -15 -16 -16 -16 -16 -7 6 -6 7 14 10 15 11
-12 5 -13 5 0 9 0 9 6 0 5 0 15 -15z m310 -10 l25 -25 -16 -16 -16 -16 -7 6
-6 7 13 9 14 8 -17 18 -18 17 -8 -14 -9 -13 -6 6 -7 7 13 15 14 15 3 1 3 0 25
-25z m-1049 -10 l15 -16 -5 -6 -6 -5 -16 15 -15 16 0 5 0 6 6 0 5 0 16 -15z
m533 6 l0 -9 -12 -5 -13 -4 34 -32 34 -32 -6 -5 -6 -6 -36 36 -36 36 13 15 13
14 8 1 7 0 0 -9z m-223 -37 l25 -25 -6 -7 -7 -6 -10 14 -9 15 -9 -15 -10 -14
-8 7 -7 8 14 10 15 11 -12 5 -13 5 0 9 0 9 5 0 6 0 26 -26z m-337 -4 l0 -10
-10 0 -10 0 0 10 0 10 10 0 10 0 0 -10z m800 0 l0 -10 -10 0 -10 0 0 10 0 10
10 0 10 0 0 -10z m-753 -25 l15 -16 -5 -6 -6 -5 -16 15 -15 16 0 5 0 6 6 0 5
0 16 -15z m810 -11 l25 -25 -5 -6 -6 -5 -25 25 -26 26 0 6 0 5 5 0 6 0 26 -26z
m-757 -4 l0 -10 -10 0 -10 0 0 10 0 10 10 0 10 0 0 -10z m566 -26 l36 -35 -6
-6 -6 -6 -20 24 -21 23 -9 -14 -9 -14 -8 7 -7 8 14 10 15 11 -12 5 -13 5 0 9
0 9 5 0 6 0 35 -36z m-289 -10 l25 -25 -5 -6 -6 -5 -25 25 -26 26 0 6 0 5 5 0
6 0 26 -26z m-250 -9 l15 -16 -5 -6 -6 -5 -16 15 -15 16 0 5 0 6 6 0 5 0 16
-15z m800 0 l15 -16 -5 -6 -6 -5 -16 15 -15 16 0 5 0 6 6 0 5 0 16 -15z m53
-15 l0 -10 -10 0 -10 0 0 10 0 10 10 0 10 0 0 -10z m-537 -22 l5 -13 10 14 10
14 27 -27 27 -27 -6 -6 -6 -6 -20 24 -21 23 -9 -13 -8 -14 -16 16 -16 16 0 5
0 6 9 0 9 0 5 -12z m-523 -18 l0 -10 -10 0 -10 0 0 10 0 10 10 0 10 0 0 -10z
m220 0 l0 -10 -10 0 -10 0 0 10 0 10 10 0 10 0 0 -10z m40 0 l0 -10 -10 0 -10
0 0 10 0 10 10 0 10 0 0 -10z m566 -5 l15 -15 -16 -16 -16 -16 -7 6 -6 7 14
10 15 11 -12 5 -13 5 0 9 0 9 6 0 5 0 15 -15z m234 5 l0 -10 -10 0 -10 0 0 10
0 10 10 0 10 0 0 -10z m-1100 -20 l0 -10 -10 0 -10 0 0 10 0 10 10 0 10 0 0
-10z m340 0 l0 -10 -10 0 -10 0 0 10 0 10 10 0 10 0 0 -10z m40 0 l0 -10 -10
0 -10 0 0 10 0 10 10 0 10 0 0 -10z m767 -5 l15 -16 -5 -6 -6 -5 -16 15 -15
16 0 5 0 6 6 0 5 0 16 -15z m-1047 -11 l0 -5 -15 -16 -16 -15 -5 5 -6 6 13 15
14 15 8 1 7 0 0 -6z m606 -30 l36 -35 -5 -6 -6 -5 -35 36 -36 35 0 6 0 5 5 0
6 0 35 -36z m-286 6 l0 -10 -10 0 -10 0 0 10 0 10 10 0 10 0 0 -10z m480 0 l0
-10 -10 0 -10 0 0 10 0 10 10 0 10 0 0 -10z m40 -20 l0 -10 -10 0 -10 0 0 10
0 10 10 0 10 0 0 -10z m220 0 l0 -10 -10 0 -10 0 0 10 0 10 10 0 10 0 0 -10z
m-1020 -20 l0 -10 -10 0 -10 0 0 10 0 10 10 0 10 0 0 -10z m327 -5 l15 -16 -5
-6 -6 -5 -16 15 -15 16 0 5 0 6 6 0 5 0 16 -15z m733 9 l0 -5 -15 -16 -16 -15
-5 5 -6 6 13 15 14 15 8 1 7 0 0 -6z m-680 -24 l0 -10 -10 0 -10 0 0 10 0 10
10 0 10 0 0 -10z m400 0 l0 -10 -10 0 -10 0 0 10 0 10 10 0 10 0 0 -10z m-740
-20 l0 -10 -10 0 -10 0 0 10 0 10 10 0 10 0 0 -10z m47 -5 l15 -16 -5 -6 -6
-5 -16 15 -15 16 0 5 0 6 6 0 5 0 16 -15z m493 5 l0 -10 -10 0 -10 0 0 10 0
10 10 0 10 0 0 -10z m246 -5 l15 -15 -16 -16 -16 -16 -7 6 -6 7 14 10 15 11
-12 5 -13 5 0 9 0 9 6 0 5 0 15 -15z m254 5 l0 -10 -10 0 -10 0 0 10 0 10 10
0 10 0 0 -10z m-673 -25 l15 -16 -5 -6 -6 -5 -16 15 -15 16 0 5 0 6 6 0 5 0
16 -15z m213 9 l0 -5 -15 -16 -16 -15 -5 5 -6 6 13 15 14 15 8 1 7 0 0 -6z
m-480 -40 l0 -5 -15 -16 -16 -15 -5 5 -6 6 13 15 14 15 8 1 7 0 0 -6z m720 -4
l0 -10 -10 0 -10 0 0 10 0 10 10 0 10 0 0 -10z m-460 -20 l0 -10 -10 0 -10 0
0 10 0 10 10 0 10 0 0 -10z m220 0 l0 -10 -10 0 -10 0 0 10 0 10 10 0 10 0 0
-10z m280 0 l0 -10 -10 0 -10 0 0 10 0 10 10 0 10 0 0 -10z m-1020 -20 l0 -10
-10 0 -10 0 0 10 0 10 10 0 10 0 0 -10z m280 0 l0 -10 -10 0 -10 0 0 10 0 10
10 0 10 0 0 -10z"/>
<path d="M300 1070 l0 -10 10 0 10 0 0 10 0 10 -10 0 -10 0 0 -10z"/>
</g>
</svg>
