<?xml version="1.0" standalone="no"?>
<!DOCTYPE svg PUBLIC "-//W3C//DTD SVG 20010904//EN"
 "http://www.w3.org/TR/2001/REC-SVG-20010904/DTD/svg10.dtd">
<svg version="1.0" xmlns="http://www.w3.org/2000/svg"
 width="468pt" height="468pt" viewBox="0 0 468 468"
 preserveAspectRatio="xMidYMid meet">
<metadata>
Created by potrace 1.8, written by Peter Selinger 2001-2007
</metadata>
<g transform="translate(0,468) scale(0.365625,-0.365625)"
fill="#000000" stroke="none">
<path d="M440 1140 l0 -140 -20 0 -20 0 0 -40 0 -40 -20 0 -20 0 0 -40 0 -40
-20 0 -20 0 0 -40 0 -40 -80 0 -80 0 0 -20 0 -20 -20 0 -20 0 0 -20 0 -20 -20
0 -20 0 0 -20 0 -20 -20 0 -20 0 0 -40 0 -40 -20 0 -20 0 0 -160 0 -160 20 0
20 0 0 -20 0 -20 20 0 20 0 0 -20 0 -20 20 0 20 0 0 -20 0 -20 20 0 20 0 0
-20 0 -20 20 0 20 0 0 -20 0 -20 20 0 20 0 0 -20 0 -20 160 0 160 0 0 20 0 20
20 0 20 0 0 20 0 20 20 0 20 0 0 20 0 20 20 0 20 0 0 20 0 20 20 0 20 0 0 20
0 20 20 0 20 0 0 20 0 20 20 0 20 0 0 -60 0 -60 100 0 100 0 0 20 0 20 20 0
20 0 0 -20 0 -20 120 0 120 0 0 580 0 580 -140 0 -140 0 0 -80 0 -80 -100 0
-100 0 0 80 0 80 -180 0 -180 0 0 -140z m320 20 l0 -80 -20 0 -20 0 0 -20 0
-20 20 0 20 0 0 -20 0 -20 -20 0 -20 0 0 -20 0 -20 20 0 20 0 0 -220 0 -220
-20 0 -20 0 0 20 0 20 -20 0 -20 0 0 40 0 40 -20 0 -20 0 0 20 0 20 -20 0 -20
0 0 60 0 60 20 0 20 0 0 40 0 40 20 0 20 0 0 60 0 60 20 0 20 0 0 20 0 20 -40
0 -40 0 0 20 0 20 -20 0 -20 0 0 20 0 20 -40 0 -40 0 0 -20 0 -20 -20 0 -20 0
0 80 0 80 140 0 140 0 0 -80z m480 -20 l0 -100 -20 0 -20 0 0 -20 0 -20 20 0
20 0 0 -20 0 -20 -20 0 -20 0 0 -20 0 -20 20 0 20 0 0 -380 0 -380 -100 0
-100 0 0 380 0 380 20 0 20 0 0 20 0 20 -20 0 -20 0 0 20 0 20 20 0 20 0 0 20
0 20 -20 0 -20 0 0 100 0 100 100 0 100 0 0 -100z m-240 -160 l0 -100 -20 0
-20 0 0 -20 0 -20 20 0 20 0 0 -20 0 -20 -20 0 -20 0 0 -20 0 -20 20 0 20 0 0
-300 0 -300 -80 0 -80 0 0 40 0 40 -20 0 -20 0 0 20 0 20 20 0 20 0 0 60 0 60
-20 0 -20 0 0 20 0 20 -20 0 -20 0 0 20 0 20 20 0 20 0 0 140 0 140 20 0 20 0
0 20 0 20 -20 0 -20 0 0 20 0 20 20 0 20 0 0 20 0 20 -20 0 -20 0 0 100 0 100
100 0 100 0 0 -100z m-400 -20 l0 -80 -20 0 -20 0 0 -40 0 -40 -20 0 -20 0 0
-40 0 -40 -20 0 -20 0 0 -40 0 -40 60 0 60 0 0 -60 0 -60 40 0 40 0 0 -60 0
-60 40 0 40 0 0 -60 0 -60 -20 0 -20 0 0 -20 0 -20 -20 0 -20 0 0 -20 0 -20
-20 0 -20 0 0 -20 0 -20 -20 0 -20 0 0 -20 0 -20 -20 0 -20 0 0 -20 0 -20
-140 0 -140 0 0 20 0 20 -20 0 -20 0 0 20 0 20 -20 0 -20 0 0 20 0 20 -20 0
-20 0 0 20 0 20 -20 0 -20 0 0 20 0 20 -20 0 -20 0 0 140 0 140 20 0 20 0 0
40 0 40 20 0 20 0 0 20 0 20 60 0 60 0 0 -40 0 -40 20 0 20 0 0 40 0 40 20 0
20 0 0 40 0 40 20 0 20 0 0 40 0 40 20 0 20 0 0 40 0 40 20 0 20 0 0 40 0 40
20 0 20 0 0 20 0 20 40 0 40 0 0 -80z"/>
<path d="M1080 1060 l0 -20 20 0 20 0 0 -20 0 -20 -20 0 -20 0 0 -20 0 -20 20
0 20 0 0 -20 0 -20 20 0 20 0 0 20 0 20 20 0 20 0 0 20 0 20 -20 0 -20 0 0 20
0 20 20 0 20 0 0 20 0 20 -20 0 -20 0 0 -20 0 -20 -20 0 -20 0 0 20 0 20 -20
0 -20 0 0 -20z m80 -80 l0 -20 -20 0 -20 0 0 20 0 20 20 0 20 0 0 -20z"/>
<path d="M840 900 l0 -20 20 0 20 0 0 -20 0 -20 -20 0 -20 0 0 -20 0 -20 20 0
20 0 0 -20 0 -20 20 0 20 0 0 20 0 20 20 0 20 0 0 20 0 20 -20 0 -20 0 0 20 0
20 20 0 20 0 0 20 0 20 -20 0 -20 0 0 -20 0 -20 -20 0 -20 0 0 20 0 20 -20 0
-20 0 0 -20z m80 -80 l0 -20 -20 0 -20 0 0 20 0 20 20 0 20 0 0 -20z"/>
<path d="M440 600 l0 -40 20 0 20 0 0 40 0 40 -20 0 -20 0 0 -40z"/>
<path d="M240 560 l0 -40 20 0 20 0 0 40 0 40 -20 0 -20 0 0 -40z"/>
<path d="M560 500 l0 -20 20 0 20 0 0 20 0 20 -20 0 -20 0 0 -20z"/>
<path d="M640 380 l0 -20 20 0 20 0 0 20 0 20 -20 0 -20 0 0 -20z"/>
</g>
</svg>
