<?xml version="1.0" standalone="no"?>
<!DOCTYPE svg PUBLIC "-//W3C//DTD SVG 20010904//EN"
 "http://www.w3.org/TR/2001/REC-SVG-20010904/DTD/svg10.dtd">
<svg version="1.0" xmlns="http://www.w3.org/2000/svg"
 width="468pt" height="468pt" viewBox="0 0 468 468"
 preserveAspectRatio="xMidYMid meet">
<metadata>
Created by potrace 1.8, written by Peter Selinger 2001-2007
</metadata>
<g transform="translate(0,468) scale(0.365625,-0.365625)"
fill="#000000" stroke="none">
<path d="M480 1180 l0 -20 -20 0 -20 0 0 -20 0 -20 -20 0 -20 0 0 -20 0 -20
-20 0 -20 0 0 -20 0 -20 -20 0 -20 0 0 -20 0 -20 -20 0 -20 0 0 -20 0 -20 -20
0 -20 0 0 -20 0 -20 -20 0 -20 0 0 -20 0 -20 -20 0 -20 0 0 -20 0 -20 -20 0
-20 0 0 -20 0 -20 -20 0 -20 0 0 -80 0 -80 80 0 80 0 0 20 0 20 20 0 20 0 0
20 0 20 20 0 20 0 0 20 0 20 20 0 20 0 0 -240 0 -240 20 0 20 0 0 -20 0 -20
20 0 20 0 0 -20 0 -20 20 0 20 0 0 -20 0 -20 20 0 20 0 0 -20 0 -20 20 0 20 0
0 -20 0 -20 20 0 20 0 0 -20 0 -20 180 0 180 0 0 20 0 20 20 0 20 0 0 20 0 20
20 0 20 0 0 20 0 20 20 0 20 0 0 20 0 20 20 0 20 0 0 20 0 20 20 0 20 0 0 20
0 20 20 0 20 0 0 140 0 140 -20 0 -20 0 0 -20 0 -20 -20 0 -20 0 0 -20 0 -20
-20 0 -20 0 0 -20 0 -20 -20 0 -20 0 0 20 0 20 -20 0 -20 0 0 20 0 20 -20 0
-20 0 0 20 0 20 -20 0 -20 0 0 -120 0 -120 -140 0 -140 0 0 220 0 220 20 0 20
0 0 -20 0 -20 20 0 20 0 0 -20 0 -20 20 0 20 0 0 -20 0 -20 80 0 80 0 0 80 0
80 -20 0 -20 0 0 20 0 20 -20 0 -20 0 0 20 0 20 -20 0 -20 0 0 20 0 20 -20 0
-20 0 0 20 0 20 -20 0 -20 0 0 20 0 20 -20 0 -20 0 0 20 0 20 -20 0 -20 0 0
20 0 20 -20 0 -20 0 0 20 0 20 -20 0 -20 0 0 20 0 20 -20 0 -20 0 0 20 0 20
-20 0 -20 0 0 -20z m40 -120 l0 -20 20 0 20 0 0 -20 0 -20 20 0 20 0 0 -20 0
-20 20 0 20 0 0 -20 0 -20 20 0 20 0 0 -20 0 -20 20 0 20 0 0 -20 0 -20 20 0
20 0 0 -20 0 -20 20 0 20 0 0 -20 0 -20 20 0 20 0 0 -20 0 -20 -20 0 -20 0 0
20 0 20 -20 0 -20 0 0 20 0 20 -20 0 -20 0 0 20 0 20 -20 0 -20 0 0 20 0 20
-20 0 -20 0 0 20 0 20 -20 0 -20 0 0 -20 0 -20 -20 0 -20 0 0 -20 0 -20 -20 0
-20 0 0 -20 0 -20 20 0 20 0 0 -20 0 -20 -20 0 -20 0 0 -20 0 -20 20 0 20 0 0
-20 0 -20 -20 0 -20 0 0 -20 0 -20 20 0 20 0 0 -20 0 -20 -20 0 -20 0 0 -20 0
-20 20 0 20 0 0 -20 0 -20 -20 0 -20 0 0 -20 0 -20 20 0 20 0 0 -20 0 -20 -20
0 -20 0 0 -20 0 -20 20 0 20 0 0 -20 0 -20 -20 0 -20 0 0 -20 0 -20 20 0 20 0
0 -20 0 -20 -20 0 -20 0 0 -20 0 -20 20 0 20 0 0 -20 0 -20 -20 0 -20 0 0 20
0 20 -20 0 -20 0 0 20 0 20 -20 0 -20 0 0 20 0 20 20 0 20 0 0 20 0 20 -20 0
-20 0 0 20 0 20 20 0 20 0 0 20 0 20 -20 0 -20 0 0 20 0 20 20 0 20 0 0 20 0
20 -20 0 -20 0 0 20 0 20 20 0 20 0 0 20 0 20 -20 0 -20 0 0 20 0 20 20 0 20
0 0 20 0 20 -20 0 -20 0 0 20 0 20 20 0 20 0 0 20 0 20 -20 0 -20 0 0 20 0 20
20 0 20 0 0 20 0 20 -20 0 -20 0 0 20 0 20 -20 0 -20 0 0 20 0 20 -20 0 -20 0
0 -20 0 -20 -20 0 -20 0 0 -20 0 -20 -20 0 -20 0 0 -20 0 -20 -20 0 -20 0 0
-20 0 -20 -20 0 -20 0 0 -20 0 -20 -20 0 -20 0 0 20 0 20 20 0 20 0 0 20 0 20
20 0 20 0 0 20 0 20 20 0 20 0 0 20 0 20 20 0 20 0 0 20 0 20 20 0 20 0 0 20
0 20 20 0 20 0 0 20 0 20 20 0 20 0 0 20 0 20 20 0 20 0 0 20 0 20 20 0 20 0
0 -20z m520 -680 l0 -20 20 0 20 0 0 20 0 20 20 0 20 0 0 -20 0 -20 -20 0 -20
0 0 -20 0 -20 20 0 20 0 0 -20 0 -20 -20 0 -20 0 0 -20 0 -20 -20 0 -20 0 0
-20 0 -20 -20 0 -20 0 0 20 0 20 20 0 20 0 0 20 0 20 -20 0 -20 0 0 20 0 20
20 0 20 0 0 20 0 20 -20 0 -20 0 0 20 0 20 20 0 20 0 0 -20z m-360 -160 l0
-20 20 0 20 0 0 20 0 20 20 0 20 0 0 -20 0 -20 20 0 20 0 0 20 0 20 20 0 20 0
0 -20 0 -20 20 0 20 0 0 20 0 20 20 0 20 0 0 -20 0 -20 -20 0 -20 0 0 -20 0
-20 20 0 20 0 0 -20 0 -20 -20 0 -20 0 0 20 0 20 -20 0 -20 0 0 -20 0 -20 -20
0 -20 0 0 20 0 20 -20 0 -20 0 0 -20 0 -20 -20 0 -20 0 0 20 0 20 -20 0 -20 0
0 -20 0 -20 -20 0 -20 0 0 20 0 20 20 0 20 0 0 20 0 20 -20 0 -20 0 0 20 0 20
20 0 20 0 0 -20z"/>
<path d="M480 1020 l0 -20 -20 0 -20 0 0 -20 0 -20 -20 0 -20 0 0 -20 0 -20
20 0 20 0 0 -20 0 -20 20 0 20 0 0 -20 0 -20 20 0 20 0 0 20 0 20 20 0 20 0 0
20 0 20 20 0 20 0 0 20 0 20 -20 0 -20 0 0 20 0 20 -20 0 -20 0 0 20 0 20 -20
0 -20 0 0 -20z m40 -40 l0 -20 20 0 20 0 0 -20 0 -20 -20 0 -20 0 0 -20 0 -20
-20 0 -20 0 0 20 0 20 -20 0 -20 0 0 20 0 20 20 0 20 0 0 20 0 20 20 0 20 0 0
-20z"/>
<path d="M480 940 l0 -20 20 0 20 0 0 20 0 20 -20 0 -20 0 0 -20z"/>
<path d="M480 780 l0 -20 20 0 20 0 0 20 0 20 -20 0 -20 0 0 -20z"/>
<path d="M480 700 l0 -20 20 0 20 0 0 20 0 20 -20 0 -20 0 0 -20z"/>
<path d="M480 620 l0 -20 20 0 20 0 0 20 0 20 -20 0 -20 0 0 -20z"/>
<path d="M480 540 l0 -20 20 0 20 0 0 20 0 20 -20 0 -20 0 0 -20z"/>
<path d="M480 460 l0 -20 20 0 20 0 0 20 0 20 -20 0 -20 0 0 -20z"/>
<path d="M480 380 l0 -20 20 0 20 0 0 20 0 20 -20 0 -20 0 0 -20z"/>
<path d="M480 300 l0 -20 20 0 20 0 0 20 0 20 -20 0 -20 0 0 -20z"/>
<path d="M1040 300 l0 -20 20 0 20 0 0 20 0 20 -20 0 -20 0 0 -20z"/>
<path d="M720 180 l0 -20 20 0 20 0 0 20 0 20 -20 0 -20 0 0 -20z"/>
<path d="M800 180 l0 -20 20 0 20 0 0 20 0 20 -20 0 -20 0 0 -20z"/>
</g>
</svg>
