<?xml version="1.0" standalone="no"?>
<!DOCTYPE svg PUBLIC "-//W3C//DTD SVG 20010904//EN"
 "http://www.w3.org/TR/2001/REC-SVG-20010904/DTD/svg10.dtd">
<svg version="1.0" xmlns="http://www.w3.org/2000/svg"
 width="468pt" height="468pt" viewBox="0 0 468 468"
 preserveAspectRatio="xMidYMid meet">
<metadata>
Created by potrace 1.8, written by Peter Selinger 2001-2007
</metadata>
<g transform="translate(0,468) scale(0.365625,-0.365625)"
fill="#000000" stroke="none">
<path d="M380 1204 l0 -15 14 -15 15 -14 11 0 11 0 15 -14 14 -15 0 -15 0 -16
-10 0 -10 0 0 10 0 10 -18 0 -18 0 -14 20 -14 20 -8 0 -8 0 0 -20 0 -20 -10 0
-10 0 0 10 0 10 -20 0 -20 0 0 -20 0 -20 10 0 10 0 0 -10 0 -10 -20 0 -20 0 0
50 0 50 30 0 30 0 0 10 0 10 -26 0 -25 0 -15 -14 -14 -15 0 -45 0 -46 10 0 10
0 0 -20 0 -20 10 0 10 0 0 -18 0 -18 20 -14 20 -14 0 -18 0 -18 -15 0 -16 0
-24 -25 -25 -24 0 -26 0 -25 20 0 20 0 0 -39 0 -39 13 -5 12 -4 -22 -20 -23
-20 0 -17 0 -16 -10 0 -10 0 0 -30 0 -30 -10 0 -10 0 0 -20 0 -20 -10 0 -10 0
0 -18 0 -18 -20 -14 -20 -14 0 -18 0 -18 -30 0 -30 0 0 -10 0 -10 40 0 40 0 0
-10 0 -10 30 0 30 0 0 10 0 10 -30 0 -30 0 0 26 0 26 30 28 30 28 0 26 0 26
10 0 10 0 0 30 0 30 10 0 10 0 0 16 0 17 23 20 22 20 -12 4 -13 5 0 49 0 49
-10 0 -10 0 0 10 0 10 20 0 20 0 0 20 0 20 10 0 10 0 0 29 0 29 -12 6 -13 6
13 6 12 6 0 19 0 19 20 0 20 0 0 -10 0 -10 20 0 20 0 0 20 0 20 -30 0 -30 0 0
6 0 5 14 15 15 14 11 0 11 0 15 -14 14 -15 0 -15 0 -16 10 0 10 0 0 15 0 16
35 34 34 35 16 0 15 0 0 -10 0 -10 30 0 30 0 0 -6 0 -7 -21 -18 -21 -18 15
-16 16 -15 13 0 14 0 14 20 14 20 18 0 18 0 0 6 0 5 -14 15 -15 14 -23 0 -24
0 -14 20 -14 20 -38 0 -38 0 0 -10 0 -10 -10 0 -10 0 0 26 0 25 -15 15 -15 15
-16 -15 -16 -16 31 -29 31 -29 0 -6 0 -6 -15 0 -16 0 -24 25 -25 24 0 11 0 11
-14 15 -15 14 -15 0 -16 0 0 -16z m-20 -134 l0 -30 -10 0 -10 0 0 -20 0 -20
-10 0 -10 0 0 19 0 19 -12 4 -12 4 24 27 25 26 8 0 7 1 0 -30z"/>
<path d="M680 1200 l0 -20 10 0 10 0 0 -16 0 -15 14 -15 15 -14 5 0 6 0 0 36
0 35 -14 15 -15 14 -15 0 -16 0 0 -20z"/>
<path d="M780 1154 l0 -46 -30 -28 -30 -28 0 -12 0 -11 15 -15 15 -15 15 15
15 15 0 33 0 34 20 14 20 14 0 24 0 23 -14 15 -15 14 -5 0 -6 0 0 -46z"/>
<path d="M940 1170 l-25 -29 -27 -1 -28 0 0 -30 0 -30 -16 0 -15 0 -15 -15
-15 -15 15 -16 16 -15 25 25 25 25 0 11 0 11 45 44 44 45 36 0 35 0 0 -20 0
-20 10 0 10 0 0 -35 0 -35 -55 -55 -55 -55 -15 0 -15 0 0 -6 0 -5 14 -15 15
-14 15 0 16 0 0 10 0 10 -10 0 -10 0 0 10 0 10 30 0 30 0 0 10 0 10 30 0 30 0
0 -10 0 -10 -16 0 -15 0 -15 -15 -15 -15 15 -15 15 -15 15 0 16 0 0 -10 0 -10
-20 0 -20 0 0 -10 0 -10 20 0 20 0 0 -9 0 -9 -12 -4 -13 -5 17 -16 17 -17 15
0 16 0 0 -50 0 -50 10 0 10 0 0 -30 0 -30 -20 0 -20 0 0 9 0 9 12 4 13 5 -17
16 -17 17 -15 0 -16 0 0 10 0 10 -20 0 -20 0 0 10 0 10 -20 0 -20 0 0 10 0 10
-20 0 -20 0 0 -10 0 -10 20 0 20 0 0 -10 0 -10 20 0 20 0 0 -10 0 -10 20 0 20
0 0 -30 0 -30 20 0 20 0 0 -10 0 -10 15 0 16 0 24 -25 25 -24 0 -76 0 -75 -6
0 -6 0 -29 31 -30 32 -6 -7 -6 -6 21 -19 22 -18 0 -17 0 -16 10 0 10 0 0 -10
0 -10 -20 0 -20 0 0 -10 0 -10 10 0 10 0 0 -20 0 -20 -6 0 -5 0 -15 14 -14 15
0 15 0 16 -10 0 -10 0 0 19 0 19 -12 5 -13 5 15 11 14 10 -8 8 -9 8 -4 -12 -5
-13 -9 0 -9 0 0 25 0 26 -45 45 -45 45 -16 -16 -15 -15 16 -17 17 -16 8 13 8
13 26 -26 26 -26 0 -16 0 -15 -6 0 -7 0 -19 22 -19 22 -10 -14 -9 -15 -9 14
-9 14 -19 -18 -18 -18 13 -5 12 -4 0 -39 0 -39 10 0 10 0 0 -30 0 -30 -10 0
-10 0 0 20 0 20 -10 0 -10 0 0 16 0 15 -15 16 -16 15 -7 -7 -7 -8 13 -4 12 -5
0 -19 0 -19 10 0 10 0 0 -20 0 -20 10 0 10 0 0 -60 0 -60 10 0 10 0 0 60 0 60
6 0 5 0 15 -14 14 -15 0 -15 0 -16 10 0 10 0 0 -20 0 -20 -10 0 -10 0 0 -15 0
-16 -45 -44 -44 -45 -6 0 -5 0 0 36 0 35 -14 15 -15 14 -5 0 -6 0 0 -30 0 -30
10 0 10 0 0 -30 0 -30 15 0 15 0 55 55 55 55 0 15 0 15 10 0 10 0 0 16 0 15
15 15 15 15 15 -15 15 -15 0 -11 0 -11 15 -15 15 -15 15 15 15 15 0 35 0 36
10 0 10 0 0 40 0 40 10 0 10 0 0 20 0 20 10 0 10 0 0 78 0 78 -20 14 -20 14 0
48 0 48 -10 0 -10 0 0 86 0 85 -14 15 -15 14 -15 0 -16 0 0 10 0 10 -20 0 -20
0 0 10 0 10 16 0 15 0 15 15 15 15 -15 15 -15 15 -25 0 -26 0 0 6 0 6 30 28
30 28 0 36 0 36 -10 0 -10 0 0 16 0 15 -14 15 -15 14 -33 0 -33 -1 -25 -29z
m180 -320 l0 -30 -20 0 -20 0 0 9 0 9 13 6 12 6 -12 6 -13 6 0 9 0 9 20 0 20
0 0 -30z m-20 -180 l0 -10 -10 0 -10 0 0 10 0 10 10 0 10 0 0 -10z m-140 -120
l0 -10 -10 0 -10 0 0 10 0 10 10 0 10 0 0 -10z m30 -90 l14 -20 14 0 13 0 15
-14 14 -15 0 -15 0 -16 10 0 10 0 0 -18 0 -18 20 -14 20 -14 0 -48 0 -48 -10
0 -10 0 0 18 0 18 -20 14 -20 14 0 18 0 18 -10 0 -10 0 0 -16 0 -15 -14 -15
-15 -14 -5 0 -6 0 0 18 0 18 -20 14 -20 14 0 28 0 28 -10 0 -10 0 0 35 0 36
13 14 12 14 5 1 6 0 14 -20z"/>
<path d="M960 450 l0 -10 10 0 10 0 0 10 0 10 -10 0 -10 0 0 -10z"/>
<path d="M980 380 l0 -20 10 0 10 0 0 20 0 20 -10 0 -10 0 0 -20z"/>
<path d="M1020 370 l0 -30 10 0 10 0 0 30 0 30 -10 0 -10 0 0 -30z"/>
<path d="M990 1120 l-14 -20 -14 0 -13 0 -15 -14 -14 -15 0 -15 0 -16 -10 0
-10 0 0 -20 0 -20 -10 0 -10 0 0 -10 0 -10 15 0 15 0 55 55 55 55 0 25 0 25
-8 0 -8 0 -14 -20z"/>
<path d="M513 1085 l-13 -14 0 -16 0 -15 5 0 6 0 24 25 25 24 0 6 0 5 -17 0
-18 -1 -12 -14z"/>
<path d="M440 990 l0 -10 29 0 29 0 5 -12 4 -13 8 7 7 7 -15 16 -16 15 -25 0
-26 0 0 -10z"/>
<path d="M600 990 l0 -10 50 0 50 0 0 10 0 10 -50 0 -50 0 0 -10z"/>
<path d="M570 920 l-35 -39 -7 -1 -8 0 0 16 0 15 -14 15 -15 14 -21 0 -21 0
-34 -35 -35 -34 0 -16 0 -15 -10 0 -10 0 0 -26 0 -27 23 -20 22 -20 -12 -4
-13 -5 0 -15 0 -16 -22 -18 -21 -19 6 -6 6 -6 35 36 36 35 0 11 0 12 40 38 40
38 0 12 0 11 -15 15 -15 15 -15 -15 -15 -15 0 -14 0 -15 12 -4 13 -5 -17 -16
-17 -17 -25 0 -26 0 0 30 0 30 10 0 10 0 0 15 0 16 25 24 24 25 26 0 25 0 0
-20 0 -20 10 0 10 0 0 -56 0 -55 14 -15 15 -14 31 0 31 0 24 25 25 24 0 25 0
24 12 4 13 5 -17 16 -17 17 -11 0 -11 0 -25 -25 -25 -25 17 -18 17 -17 5 13 4
12 9 0 9 0 0 -16 0 -15 -14 -15 -15 -14 -35 0 -36 0 0 55 0 56 35 34 34 35 36
0 35 0 0 -30 0 -30 10 0 10 0 0 26 0 25 -14 15 -15 14 -33 0 -33 -1 -35 -39z"/>
<path d="M940 890 l0 -10 30 0 30 0 0 10 0 10 -30 0 -30 0 0 -10z"/>
<path d="M960 830 l0 -10 20 0 20 0 0 -10 0 -10 16 0 17 0 18 -22 19 -21 6 6
6 6 -25 25 -26 26 -16 0 -15 0 0 10 0 10 -20 0 -20 0 0 -10z"/>
<path d="M960 674 l0 -5 15 -16 16 -15 6 5 5 6 -15 16 -16 15 -5 0 -6 0 0 -6z"/>
<path d="M940 635 l0 -6 26 -26 25 -25 6 5 5 6 -25 25 -26 26 -6 0 -5 0 0 -5z"/>
<path d="M513 585 l-13 -14 0 -11 0 -11 -14 -15 -15 -14 -95 0 -96 0 0 -15 0
-16 25 -24 24 -25 16 0 15 0 0 -30 0 -30 10 0 10 0 0 30 0 30 16 0 16 0 38 40
38 40 16 0 16 0 0 30 0 30 10 0 10 0 0 10 0 10 -7 0 -8 -1 -12 -14z"/>
<path d="M1040 595 l0 -6 26 -26 25 -25 6 5 5 6 -25 25 -26 26 -6 0 -5 0 0 -5z"/>
<path d="M800 510 l0 -30 -20 0 -20 0 0 -10 0 -10 -40 0 -40 0 0 -10 0 -10
-16 0 -15 0 -15 -14 -14 -15 0 -15 0 -16 -10 0 -10 0 0 10 0 10 -20 0 -20 0 0
-10 0 -10 20 0 20 0 0 -10 0 -10 -30 0 -30 0 0 -10 0 -10 -70 0 -70 0 0 10 0
10 -20 0 -20 0 0 -10 0 -10 -19 0 -19 0 -6 -12 -6 -13 -6 13 -6 12 -24 0 -25
0 -24 25 -25 24 0 16 0 15 -5 0 -6 0 -26 -26 -25 -25 7 -7 8 -7 4 13 5 12 14
0 15 0 24 -25 25 -24 0 -21 0 -22 40 -38 40 -38 0 -46 0 -46 -10 0 -10 0 0
-16 0 -15 15 -16 16 -15 19 22 19 22 40 -41 39 -41 16 0 16 0 0 10 0 10 18 0
18 0 14 -20 14 -20 18 0 18 0 0 10 0 10 40 0 40 0 0 10 0 10 39 0 39 0 6 13 6
12 6 -12 6 -13 14 0 15 0 24 25 25 24 0 26 0 25 -10 0 -10 0 0 30 0 30 -15 0
-16 0 -24 25 -25 24 0 26 0 25 20 0 20 0 0 -26 0 -25 15 -16 16 -15 7 7 7 8
-12 4 -13 5 0 25 0 24 -14 15 -15 14 -15 0 -16 0 0 -10 0 -10 -26 0 -25 0 -49
-50 -49 -50 -15 0 -16 0 0 -10 0 -10 -38 0 -38 0 -14 20 -14 20 -28 0 -28 0 0
-10 0 -10 -25 0 -26 0 -44 45 -45 44 0 16 0 15 10 0 10 0 0 -10 0 -10 20 0 20
0 0 10 0 10 20 0 20 0 0 10 0 10 20 0 20 0 0 -10 0 -10 30 0 30 0 0 -10 0 -10
20 0 20 0 0 10 0 10 20 0 20 0 0 10 0 10 25 0 26 0 24 25 25 24 0 16 0 15 20
0 20 0 0 10 0 10 40 0 40 0 0 10 0 10 16 0 15 0 15 14 14 15 0 25 0 26 -10 0
-10 0 0 -30z m-80 -246 l0 -16 40 -38 40 -38 0 -26 0 -26 10 0 10 0 0 -16 0
-15 -14 -15 -15 -14 -15 0 -16 0 0 20 0 20 -10 0 -10 0 0 15 0 16 -46 45 -45
46 -7 -7 -6 -6 14 -10 15 -9 -15 -9 -14 -10 7 -8 8 -7 9 14 9 14 8 -8 8 -9
-12 -4 -13 -5 0 -29 0 -29 10 0 10 0 0 30 0 30 6 0 5 0 15 -14 14 -15 0 -15 0
-16 10 0 10 0 0 -20 0 -20 -40 0 -40 0 0 -10 0 -10 -49 0 -49 0 -5 -12 -4 -13
-20 22 -20 23 -17 0 -16 0 0 10 0 10 -10 0 -10 0 0 -20 0 -20 -6 0 -6 0 -40
42 -41 43 -4 -12 -5 -13 -19 0 -19 0 0 10 0 10 10 0 10 0 0 30 0 30 16 0 15 0
15 -14 14 -15 0 -15 0 -16 10 0 10 0 0 30 0 30 -10 0 -10 0 0 10 0 10 30 0 30
0 0 -10 0 -10 -10 0 -10 0 0 -16 0 -15 15 -16 16 -15 7 7 7 8 -12 4 -13 5 0 9
0 9 20 0 20 0 0 -26 0 -25 15 -16 16 -15 7 7 7 8 -12 4 -13 5 0 29 0 29 10 0
10 0 0 -20 0 -20 10 0 10 0 0 30 0 30 18 1 17 0 45 49 45 49 18 0 17 1 0 -16z"/>
<path d="M603 175 l-23 -24 0 -31 0 -31 15 -16 16 -15 7 7 7 8 -12 4 -13 5 0
39 0 39 10 0 10 0 0 -20 0 -20 10 0 10 0 0 19 0 19 -12 6 -13 6 13 6 12 6 0 9
0 9 -7 -1 -8 0 -22 -24z"/>
<path d="M620 490 l0 -10 -30 0 -30 0 0 -10 0 -10 26 0 25 0 15 14 14 15 0 5
0 6 -10 0 -10 0 0 -10z"/>
<path d="M520 430 l0 -10 10 0 10 0 0 10 0 10 -10 0 -10 0 0 -10z"/>
<path d="M800 350 l0 -10 10 0 10 0 0 -20 0 -20 10 0 10 0 0 -20 0 -20 10 0
10 0 0 20 0 20 10 0 10 0 0 16 0 15 -16 16 -16 16 -10 -14 -10 -14 -5 13 -5
12 -9 0 -9 0 0 -10z m60 -30 l0 -20 -10 0 -10 0 0 20 0 20 10 0 10 0 0 -20z"/>
</g>
</svg>
