<?xml version="1.0" standalone="no"?>
<!DOCTYPE svg PUBLIC "-//W3C//DTD SVG 20010904//EN"
 "http://www.w3.org/TR/2001/REC-SVG-20010904/DTD/svg10.dtd">
<svg version="1.0" xmlns="http://www.w3.org/2000/svg"
 width="468pt" height="468pt" viewBox="0 0 468 468"
 preserveAspectRatio="xMidYMid meet">
<metadata>
Created by potrace 1.8, written by Peter Selinger 2001-2007
</metadata>
<g transform="translate(0,468) scale(0.365625,-0.365625)"
fill="#000000" stroke="none">
<path d="M380 1215 l0 -25 -20 0 -20 0 0 -105 0 -105 -170 0 -170 0 0 -20 0
-20 170 0 170 0 0 -45 0 -45 -20 0 -20 0 0 -20 0 -20 -150 0 -150 0 0 -20 0
-20 105 0 105 0 0 -20 0 -20 -20 0 -20 0 0 -25 0 -25 -20 0 -20 0 0 -20 0 -20
-65 0 -65 0 0 -20 0 -20 65 0 65 0 0 -65 0 -65 -65 0 -65 0 0 -20 0 -20 65 0
65 0 0 -25 0 -25 20 0 20 0 0 -20 0 -20 20 0 20 0 0 -20 0 -20 -105 0 -105 0
0 -20 0 -20 235 0 235 0 0 -65 0 -65 -20 0 -20 0 0 -20 0 -20 -25 0 -25 0 0
40 0 40 -20 0 -20 0 0 20 0 20 -40 0 -40 0 0 -20 0 -20 -25 0 -25 0 0 -40 0
-40 25 0 25 0 0 -25 0 -25 85 0 85 0 0 25 0 25 20 0 20 0 0 20 0 20 20 0 20 0
0 65 0 65 385 0 385 0 0 20 0 20 -365 0 -365 0 0 20 0 20 25 0 25 0 0 45 0 45
340 0 340 0 0 20 0 20 -340 0 -340 0 0 40 0 40 -25 0 -25 0 0 25 0 25 365 0
365 0 0 20 0 20 -425 0 -425 0 0 65 0 65 425 0 425 0 0 20 0 20 -405 0 -405 0
0 45 0 45 20 0 20 0 0 20 0 20 385 0 385 0 0 20 0 20 -385 0 -385 0 0 105 0
105 -20 0 -20 0 0 25 0 25 -45 0 -45 0 0 -25z m90 -130 l0 -65 -20 0 -20 0 0
-20 0 -20 -25 0 -25 0 0 65 0 65 25 0 25 0 0 20 0 20 20 0 20 0 0 -65z m-90
-400 l0 -45 -40 0 -40 0 0 20 0 20 20 0 20 0 0 25 0 25 20 0 20 0 0 -45z m-80
-110 l0 -25 -20 0 -20 0 0 -40 0 -40 -25 0 -25 0 0 40 0 40 25 0 25 0 0 25 0
25 20 0 20 0 0 -25z m130 -85 l0 -20 -25 0 -25 0 0 20 0 20 25 0 25 0 0 -20z
m80 0 l0 -20 -20 0 -20 0 0 20 0 20 20 0 20 0 0 -20z m-210 -85 l0 -25 20 0
20 0 0 -20 0 -20 20 0 20 0 0 45 0 45 25 0 25 0 0 -65 0 -65 -65 0 -65 0 0 20
0 20 -20 0 -20 0 0 20 0 20 -25 0 -25 0 0 25 0 25 45 0 45 0 0 -25z m250 0 l0
-25 -20 0 -20 0 0 -20 0 -20 -20 0 -20 0 0 45 0 45 40 0 40 0 0 -25z"/>
</g>
</svg>
