<?xml version="1.0" standalone="no"?>
<!DOCTYPE svg PUBLIC "-//W3C//DTD SVG 20010904//EN"
 "http://www.w3.org/TR/2001/REC-SVG-20010904/DTD/svg10.dtd">
<svg version="1.0" xmlns="http://www.w3.org/2000/svg"
 width="468pt" height="468pt" viewBox="0 0 468 468"
 preserveAspectRatio="xMidYMid meet">
<metadata>
Created by potrace 1.8, written by Peter Selinger 2001-2007
</metadata>
<g transform="translate(0,468) scale(0.365625,-0.365625)"
fill="#000000" stroke="none">
<path d="M410 1260 l0 -20 -60 0 -60 0 0 -20 0 -20 -40 0 -40 0 0 -105 0 -105
40 0 40 0 0 20 0 20 40 0 40 0 0 -20 0 -20 20 0 20 0 0 -20 0 -20 -20 0 -20 0
0 -20 0 -20 -20 0 -20 0 0 20 0 20 -20 0 -20 0 0 -20 0 -20 -20 0 -20 0 0 -20
0 -20 -65 0 -65 0 0 -45 0 -45 -40 0 -40 0 0 -20 0 -20 -20 0 -20 0 0 -20 0
-20 20 0 20 0 0 -20 0 -20 20 0 20 0 0 -20 0 -20 -20 0 -20 0 0 -20 0 -20 -20
0 -20 0 0 -65 0 -65 40 0 40 0 0 -20 0 -20 -20 0 -20 0 0 -60 0 -60 40 0 40 0
0 -20 0 -20 25 0 25 0 0 20 0 20 20 0 20 0 0 20 0 20 20 0 20 0 0 20 0 20 20
0 20 0 0 20 0 20 20 0 20 0 0 -40 0 -40 -20 0 -20 0 0 -40 0 -40 20 0 20 0 0
40 0 40 40 0 40 0 0 -20 0 -20 20 0 20 0 0 -20 0 -20 25 0 25 0 0 -20 0 -20
-105 0 -105 0 0 -45 0 -45 -20 0 -20 0 0 -40 0 -40 20 0 20 0 0 20 0 20 40 0
40 0 0 20 0 20 40 0 40 0 0 -20 0 -20 25 0 25 0 0 -20 0 -20 -25 0 -25 0 0
-20 0 -20 145 0 145 0 0 20 0 20 20 0 20 0 0 -20 0 -20 25 0 25 0 0 20 0 20
20 0 20 0 0 -20 0 -20 40 0 40 0 0 40 0 40 -20 0 -20 0 0 20 0 20 20 0 20 0 0
25 0 25 20 0 20 0 0 -25 0 -25 20 0 20 0 0 85 0 85 20 0 20 0 0 -20 0 -20 20
0 20 0 0 20 0 20 45 0 45 0 0 60 0 60 -20 0 -20 0 0 65 0 65 -25 0 -25 0 0 40
0 40 -20 0 -20 0 0 20 0 20 -60 0 -60 0 0 20 0 20 40 0 40 0 0 20 0 20 -20 0
-20 0 0 20 0 20 -20 0 -20 0 0 -40 0 -40 -20 0 -20 0 0 20 0 20 -20 0 -20 0 0
20 0 20 20 0 20 0 0 65 0 65 20 0 20 0 0 40 0 40 -40 0 -40 0 0 20 0 20 40 0
40 0 0 65 0 65 20 0 20 0 0 -25 0 -25 20 0 20 0 0 25 0 25 -20 0 -20 0 0 20 0
20 -60 0 -60 0 0 20 0 20 -20 0 -20 0 0 20 0 20 -25 0 -25 0 0 -20 0 -20 -40
0 -40 0 0 20 0 20 -20 0 -20 0 0 -20 0 -20 -40 0 -40 0 0 20 0 20 -85 0 -85 0
0 -20z m90 -40 l0 -20 20 0 20 0 0 20 0 20 20 0 20 0 0 -125 0 -125 20 0 20 0
0 -20 0 -20 20 0 20 0 0 -20 0 -20 -40 0 -40 0 0 -20 0 -20 20 0 20 0 0 -20 0
-20 20 0 20 0 0 -25 0 -25 -20 0 -20 0 0 25 0 25 -20 0 -20 0 0 20 0 20 -20 0
-20 0 0 20 0 20 20 0 20 0 0 40 0 40 -20 0 -20 0 0 -20 0 -20 -20 0 -20 0 0
20 0 20 20 0 20 0 0 20 0 20 -20 0 -20 0 0 20 0 20 -25 0 -25 0 0 20 0 20 -20
0 -20 0 0 25 0 25 -20 0 -20 0 0 20 0 20 20 0 20 0 0 -20 0 -20 20 0 20 0 0
-25 0 -25 25 0 25 0 0 -20 0 -20 20 0 20 0 0 45 0 45 -20 0 -20 0 0 20 0 20
-25 0 -25 0 0 20 0 20 25 0 25 0 0 -20z m330 0 l0 -20 -25 0 -25 0 0 20 0 20
25 0 25 0 0 -20z m-130 -40 l0 -20 -20 0 -20 0 0 -25 0 -25 20 0 20 0 0 -20 0
-20 -20 0 -20 0 0 20 0 20 -20 0 -20 0 0 25 0 25 20 0 20 0 0 20 0 20 20 0 20
0 0 -20z m-370 -90 l0 -20 -20 0 -20 0 0 -20 0 -20 -20 0 -20 0 0 20 0 20 20
0 20 0 0 20 0 20 20 0 20 0 0 -20z m450 -20 l0 -40 25 0 25 0 0 -20 0 -20 20
0 20 0 0 -80 0 -80 -20 0 -20 0 0 -25 0 -25 -25 0 -25 0 0 -40 0 -40 25 0 25
0 0 20 0 20 20 0 20 0 0 -20 0 -20 -20 0 -20 0 0 -20 0 -20 -25 0 -25 0 0 -20
0 -20 -60 0 -60 0 0 40 0 40 -20 0 -20 0 0 20 0 20 20 0 20 0 0 -20 0 -20 20
0 20 0 0 -20 0 -20 20 0 20 0 0 60 0 60 20 0 20 0 0 45 0 45 -20 0 -20 0 0 20
0 20 20 0 20 0 0 20 0 20 -20 0 -20 0 0 80 0 80 20 0 20 0 0 -40z m-370 -20
l0 -20 20 0 20 0 0 -20 0 -20 -20 0 -20 0 0 20 0 20 -20 0 -20 0 0 20 0 20 20
0 20 0 0 -20z m-40 -200 l0 -20 20 0 20 0 0 20 0 20 45 0 45 0 0 -20 0 -20
-25 0 -25 0 0 -25 0 -25 25 0 25 0 0 -20 0 -20 20 0 20 0 0 -20 0 -20 20 0 20
0 0 -40 0 -40 20 0 20 0 0 -125 0 -125 -20 0 -20 0 0 20 0 20 -20 0 -20 0 0
65 0 65 -20 0 -20 0 0 40 0 40 20 0 20 0 0 40 0 40 -20 0 -20 0 0 -20 0 -20
-25 0 -25 0 0 20 0 20 25 0 25 0 0 20 0 20 -45 0 -45 0 0 20 0 20 -20 0 -20 0
0 25 0 25 -20 0 -20 0 0 20 0 20 20 0 20 0 0 -20z m-80 -45 l0 -25 -40 0 -40
0 0 -20 0 -20 -45 0 -45 0 0 20 0 20 45 0 45 0 0 25 0 25 40 0 40 0 0 -25z
m-210 -85 l0 -20 -20 0 -20 0 0 20 0 20 20 0 20 0 0 -20z m130 -100 l0 -40 20
0 20 0 0 -20 0 -20 -20 0 -20 0 0 20 0 20 -20 0 -20 0 0 20 0 20 -25 0 -25 0
0 20 0 20 45 0 45 0 0 -40z m160 20 l0 -20 -20 0 -20 0 0 20 0 20 20 0 20 0 0
-20z m700 -60 l0 -40 -20 0 -20 0 0 20 0 20 -20 0 -20 0 0 -20 0 -20 -20 0
-20 0 0 20 0 20 20 0 20 0 0 20 0 20 40 0 40 0 0 -40z m-990 -20 l0 -20 -20 0
-20 0 0 20 0 20 20 0 20 0 0 -20z m620 0 l0 -20 20 0 20 0 0 -20 0 -20 -20 0
-20 0 0 -25 0 -25 -20 0 -20 0 0 25 0 25 20 0 20 0 0 20 0 20 -20 0 -20 0 0
20 0 20 20 0 20 0 0 -20z m-530 -85 l0 -25 -25 0 -25 0 0 25 0 25 25 0 25 0 0
-25z m280 0 l0 -25 25 0 25 0 0 -20 0 -20 -25 0 -25 0 0 20 0 20 -20 0 -20 0
0 -20 0 -20 -20 0 -20 0 0 20 0 20 -20 0 -20 0 0 25 0 25 60 0 60 0 0 -25z
m330 -45 l0 -20 25 0 25 0 0 -20 0 -20 -25 0 -25 0 0 -60 0 -60 45 0 45 0 0
20 0 20 20 0 20 0 0 -20 0 -20 40 0 40 0 0 -20 0 -20 -20 0 -20 0 0 -20 0 -20
-85 0 -85 0 0 40 0 40 -20 0 -20 0 0 20 0 20 -20 0 -20 0 0 20 0 20 -20 0 -20
0 0 40 0 40 20 0 20 0 0 -40 0 -40 20 0 20 0 0 60 0 60 20 0 20 0 0 -20z m330
0 l0 -20 25 0 25 0 0 -40 0 -40 -45 0 -45 0 0 20 0 20 20 0 20 0 0 20 0 20
-20 0 -20 0 0 20 0 20 20 0 20 0 0 -20z m-900 -80 l0 -20 -20 0 -20 0 0 20 0
20 20 0 20 0 0 -20z m330 0 l0 -20 -65 0 -65 0 0 20 0 20 65 0 65 0 0 -20z
m490 0 l0 -20 -40 0 -40 0 0 20 0 20 40 0 40 0 0 -20z m-370 -80 l0 -20 -20 0
-20 0 0 20 0 20 20 0 20 0 0 -20z m-80 -105 l0 -85 -20 0 -20 0 0 45 0 45 -20
0 -20 0 0 20 0 20 20 0 20 0 0 20 0 20 20 0 20 0 0 -85z m200 -65 l0 -20 -20
0 -20 0 0 20 0 20 20 0 20 0 0 -20z"/>
<path d="M780 970 l0 -20 25 0 25 0 0 20 0 20 -25 0 -25 0 0 -20z"/>
</g>
</svg>
