<?xml version="1.0" standalone="no"?>
<!DOCTYPE svg PUBLIC "-//W3C//DTD SVG 20010904//EN"
 "http://www.w3.org/TR/2001/REC-SVG-20010904/DTD/svg10.dtd">
<svg version="1.0" xmlns="http://www.w3.org/2000/svg"
 width="468pt" height="468pt" viewBox="0 0 468 468"
 preserveAspectRatio="xMidYMid meet">
<metadata>
Created by potrace 1.8, written by Peter Selinger 2001-2007
</metadata>
<g transform="translate(0,468) scale(0.365625,-0.365625)"
fill="#000000" stroke="none">
<path d="M0 640 l0 -640 640 0 640 0 0 640 0 640 -640 0 -640 0 0 -640z m105
550 l0 -65 -45 0 -45 0 -3 54 -3 54 5 14 6 14 42 -3 43 -3 0 -65z m263 31 l3
-33 -13 4 -13 5 0 25 1 24 -22 -4 -22 -4 -19 11 -18 11 50 -2 50 -3 3 -34z
m122 -31 l0 -70 -47 0 -48 1 18 10 19 11 21 -4 22 -4 0 56 0 56 -22 -4 -21 -4
-19 11 -18 10 48 1 47 0 0 -70z m245 60 l-6 -10 -30 0 -29 0 0 -20 0 -20 28 0
27 0 13 -9 14 -8 -4 -29 -3 -29 -43 -3 -44 -3 7 10 6 11 30 0 29 0 0 20 0 20
-24 0 -24 0 -16 6 -16 6 0 27 0 28 7 6 6 7 39 0 39 0 -6 -10z m122 -1 l-19
-11 -21 4 -22 4 0 -55 0 -56 30 0 30 0 0 24 0 24 13 5 13 4 -3 -33 -3 -34 -45
0 -45 0 -3 54 -3 54 5 13 5 14 43 0 43 -1 -18 -10z m151 -58 l3 -63 -13 4 -13
5 0 54 0 55 -22 -4 -21 -4 -19 11 -18 11 50 -2 50 -3 3 -64z m122 -2 l0 -70
-47 3 -48 3 -3 54 -3 54 5 13 5 14 46 0 45 0 0 -71z m125 1 l0 -65 -45 -3 -45
-2 18 11 19 11 21 -4 22 -4 0 55 0 56 -30 0 -30 0 0 -24 0 -24 -12 -4 -13 -5
0 30 0 29 7 7 7 7 41 -3 40 -3 0 -65z m-1015 -1 l0 -61 -12 4 -13 5 -2 44 -1
44 3 13 4 12 11 0 10 0 0 -61z m305 31 l0 -23 -12 -4 -13 -5 0 32 0 32 13 -4
12 -5 0 -23z m75 -31 l0 -60 -9 5 -9 6 0 48 1 47 4 8 4 7 5 0 4 0 0 -61z
m-280 1 l0 -10 -25 0 -25 0 0 10 0 10 25 0 25 0 0 -10z m130 0 l0 -10 -25 0
-25 0 0 10 0 10 25 0 25 0 0 -10z m130 0 l0 -10 -25 0 -25 0 0 10 0 10 25 0
25 0 0 -10z m250 0 l0 -10 -25 0 -25 0 0 10 0 10 25 0 25 0 0 -10z m390 0 l0
-10 -25 0 -25 0 0 10 0 10 25 0 25 0 0 -10z m-955 -32 l-1 -24 22 4 22 4 19
-11 18 -11 -50 2 -50 3 -3 34 -3 33 13 -4 13 -5 0 -25z"/>
<path d="M30 1190 l0 -50 30 0 30 0 0 50 0 50 -30 0 -30 0 0 -50z"/>
<path d="M1055 1190 l0 -55 30 0 30 0 0 55 0 55 -30 0 -30 0 0 -55z m55 0 l0
-10 -25 0 -25 0 0 10 0 10 25 0 25 0 0 -10z"/>
</g>
</svg>
