<?xml version="1.0" standalone="no"?>
<!DOCTYPE svg PUBLIC "-//W3C//DTD SVG 20010904//EN"
 "http://www.w3.org/TR/2001/REC-SVG-20010904/DTD/svg10.dtd">
<svg version="1.0" xmlns="http://www.w3.org/2000/svg"
 width="468pt" height="468pt" viewBox="0 0 468 468"
 preserveAspectRatio="xMidYMid meet">
<metadata>
Created by potrace 1.8, written by Peter Selinger 2001-2007
</metadata>
<g transform="translate(0,468) scale(0.365625,-0.365625)"
fill="#000000" stroke="none">
<path d="M480 1200 l0 -30 -80 0 -80 0 0 -25 0 -25 -25 0 -25 0 0 -25 0 -25
-30 0 -30 0 0 -55 0 -55 -25 0 -25 0 0 -55 0 -55 -25 0 -25 0 0 -50 0 -50 -30
0 -30 0 0 -110 0 -110 30 0 30 0 0 -25 0 -25 50 0 50 0 0 55 0 55 30 0 30 0 0
50 0 50 25 0 25 0 0 -130 0 -130 -25 0 -25 0 0 -135 0 -135 25 0 25 0 0 -25 0
-25 80 0 80 0 0 50 0 50 25 0 25 0 0 30 0 30 80 0 80 0 0 -30 0 -30 30 0 30 0
0 -50 0 -50 80 0 80 0 0 25 0 25 25 0 25 0 0 135 0 135 -25 0 -25 0 0 130 0
130 25 0 25 0 0 -50 0 -50 25 0 25 0 0 -55 0 -55 55 0 55 0 0 25 0 25 25 0 25
0 0 110 0 110 -25 0 -25 0 0 50 0 50 -25 0 -25 0 0 55 0 55 -30 0 -30 0 0 55
0 55 -25 0 -25 0 0 25 0 25 -25 0 -25 0 0 25 0 25 -80 0 -80 0 0 30 0 30 -135
0 -135 0 0 -30z m110 -295 l0 -215 -30 0 -30 0 0 -210 0 -210 -25 0 -25 0 0
210 0 210 25 0 25 0 0 190 0 190 -25 0 -25 0 0 25 0 25 55 0 55 0 0 -215z
m160 190 l0 -25 -30 0 -30 0 0 -190 0 -190 30 0 30 0 0 -210 0 -210 -30 0 -30
0 0 210 0 210 -25 0 -25 0 0 215 0 215 55 0 55 0 0 -25z m-380 -350 l0 -55
-25 0 -25 0 0 55 0 55 25 0 25 0 0 -55z m540 0 l0 -55 -30 0 -30 0 0 55 0 55
30 0 30 0 0 -55z"/>
</g>
</svg>
