<?xml version="1.0" standalone="no"?>
<!DOCTYPE svg PUBLIC "-//W3C//DTD SVG 20010904//EN"
 "http://www.w3.org/TR/2001/REC-SVG-20010904/DTD/svg10.dtd">
<svg version="1.0" xmlns="http://www.w3.org/2000/svg"
 width="468pt" height="468pt" viewBox="0 0 468 468"
 preserveAspectRatio="xMidYMid meet">
<metadata>
Created by potrace 1.8, written by Peter Selinger 2001-2007
</metadata>
<g transform="translate(0,468) scale(0.365625,-0.365625)"
fill="#000000" stroke="none">
<path d="M480 1220 l0 -20 -20 0 -20 0 0 -20 0 -20 -140 0 -140 0 0 -20 0 -20
-20 0 -20 0 0 -60 0 -60 20 0 20 0 0 -480 0 -480 20 0 20 0 0 -20 0 -20 440 0
440 0 0 20 0 20 20 0 20 0 0 480 0 480 20 0 20 0 0 60 0 60 -20 0 -20 0 0 20
0 20 -140 0 -140 0 0 20 0 20 -20 0 -20 0 0 20 0 20 -160 0 -160 0 0 -20z
m320 -40 l0 -20 -160 0 -160 0 0 20 0 20 160 0 160 0 0 -20z m320 -100 l0 -40
-480 0 -480 0 0 40 0 40 480 0 480 0 0 -40z m-40 -560 l0 -480 -440 0 -440 0
0 20 0 20 40 0 40 0 0 20 0 20 -40 0 -40 0 0 440 0 440 440 0 440 0 0 -480z"/>
<path d="M280 540 l0 -420 20 0 20 0 0 420 0 420 -20 0 -20 0 0 -420z"/>
<path d="M400 540 l0 -420 20 0 20 0 0 -20 0 -20 40 0 40 0 0 20 0 20 20 0 20
0 0 420 0 420 -20 0 -20 0 0 -420 0 -420 -40 0 -40 0 0 420 0 420 -20 0 -20 0
0 -420z"/>
<path d="M640 540 l0 -420 20 0 20 0 0 -20 0 -20 40 0 40 0 0 20 0 20 20 0 20
0 0 420 0 420 -20 0 -20 0 0 -420 0 -420 -40 0 -40 0 0 420 0 420 -20 0 -20 0
0 -420z"/>
<path d="M880 540 l0 -420 20 0 20 0 0 -20 0 -20 40 0 40 0 0 20 0 20 20 0 20
0 0 420 0 420 -20 0 -20 0 0 -420 0 -420 -40 0 -40 0 0 420 0 420 -20 0 -20 0
0 -420z"/>
</g>
</svg>
