<?xml version="1.0" standalone="no"?>
<!DOCTYPE svg PUBLIC "-//W3C//DTD SVG 20010904//EN"
 "http://www.w3.org/TR/2001/REC-SVG-20010904/DTD/svg10.dtd">
<svg version="1.0" xmlns="http://www.w3.org/2000/svg"
 width="468pt" height="468pt" viewBox="0 0 468 468"
 preserveAspectRatio="xMidYMid meet">
<metadata>
Created by potrace 1.8, written by Peter Selinger 2001-2007
</metadata>
<g transform="translate(0,468) scale(0.365625,-0.365625)"
fill="#000000" stroke="none">
<path d="M523 1265 l-13 -14 0 -81 0 -80 -8 0 -8 0 -14 20 -14 20 -18 0 -18 0
0 10 0 10 -45 0 -45 0 0 10 0 10 -49 0 -49 0 -5 13 -5 12 -1 -21 -1 -22 29
-31 29 -31 16 0 16 0 0 -10 0 -10 26 0 27 0 23 -25 23 -25 26 0 25 0 0 10 0
10 -19 0 -20 0 -15 15 -15 15 -10 0 -11 0 0 10 0 10 -20 0 -20 0 0 10 0 10
-16 0 -15 0 -15 14 -14 15 0 5 0 6 30 0 30 0 0 -10 0 -10 35 0 35 0 0 -10 0
-10 18 0 18 0 14 -20 14 -20 14 0 13 0 15 -15 15 -15 10 0 9 0 0 15 0 15 -10
0 -10 0 0 85 0 85 10 0 11 0 22 -20 22 -20 53 -49 52 -50 0 -15 0 -16 13 0 13
0 1 37 1 37 11 4 11 4 0 18 0 18 15 6 15 5 15 -5 15 -6 0 -19 0 -19 10 0 10 0
0 -20 0 -20 10 0 10 0 0 -20 0 -20 10 0 9 0 7 50 7 50 8 0 9 0 0 -30 0 -30 10
0 10 0 0 -20 0 -20 10 0 10 0 0 20 0 20 -10 0 -10 0 0 26 0 25 -16 16 -16 16
-9 -14 -9 -14 0 -27 0 -28 -10 0 -10 0 0 20 0 20 -10 0 -10 0 0 20 0 20 -10 0
-10 0 0 11 0 10 -15 15 -15 15 -15 -15 -15 -15 0 -10 0 -11 -9 0 -9 0 -7 -40
-7 -40 -4 0 -5 0 -44 43 -44 42 -30 25 -31 25 -5 18 -6 17 -7 0 -7 -1 -12 -14z"/>
<path d="M960 1124 l0 -45 -14 -15 -15 -14 -15 0 -16 0 0 -15 0 -15 -9 0 -8 0
-7 -70 -7 -70 -10 0 -9 0 0 -11 0 -10 -14 -15 -15 -14 -25 0 -26 0 0 -10 0
-10 -25 0 -25 0 0 -10 0 -10 -30 0 -30 0 0 -10 0 -10 -30 0 -30 0 0 -10 0 -10
-20 0 -20 0 0 10 0 10 -63 0 -63 0 -14 -20 -14 -20 -13 0 -13 0 0 -15 0 -15
-10 0 -10 0 0 10 0 10 -40 0 -40 0 0 -10 0 -10 30 0 30 0 0 -10 0 -10 -26 0
-25 0 -15 14 -14 15 0 10 0 11 -10 0 -10 0 0 75 0 75 60 0 60 0 0 10 0 10 -59
0 -59 0 -5 13 -5 12 -1 -12 -1 -13 -20 0 -20 0 0 -10 0 -9 -52 -4 -53 -4 72 1
73 1 0 -65 0 -65 6 -21 6 -21 -16 -16 -16 -16 0 -35 0 -36 10 0 10 0 0 -20 0
-21 15 -5 15 -6 0 -69 0 -69 10 0 10 0 0 -15 0 -15 26 0 25 0 16 -15 15 -15
-31 -29 -31 -29 0 -16 0 -16 -6 0 -5 0 -15 14 -14 15 0 15 0 16 -9 0 -9 0 -7
40 -7 39 -19 6 -19 6 0 10 0 9 -55 0 -55 0 0 -10 0 -10 -24 0 -24 0 -16 -6
-16 -6 0 -28 0 -28 13 -6 12 -6 -12 -6 -13 -6 0 -25 0 -24 14 -15 15 -14 25 0
26 0 0 10 0 10 15 0 15 0 0 -10 0 -10 18 0 18 0 14 20 14 20 8 0 8 0 0 -25 0
-25 10 0 10 0 0 -16 0 -15 14 -15 14 -14 4 -12 4 -12 28 27 28 28 -6 6 -6 6
-20 -24 -21 -23 -9 14 -10 15 0 18 0 17 -10 0 -10 0 0 25 0 25 -10 0 -10 0 0
30 0 30 -10 0 -10 0 0 -26 0 -25 -14 -15 -15 -14 -15 0 -16 0 0 36 0 37 22 18
21 19 -6 6 -6 6 -25 -25 -25 -25 -6 -36 -7 -36 -29 0 -29 0 0 25 0 26 25 24
24 25 11 0 10 0 0 10 0 10 -15 0 -15 0 0 -10 0 -10 -20 0 -20 0 0 19 0 19 56
7 55 7 40 -7 39 -7 0 -19 0 -19 9 0 9 0 7 -36 6 -36 24 -24 24 -24 16 0 15 0
0 30 0 30 10 0 10 0 0 -30 0 -30 -10 0 -10 0 0 -35 0 -35 -10 0 -10 0 0 -85 0
-85 10 0 10 0 0 30 0 30 65 0 65 0 0 -10 0 -10 95 0 95 0 0 -10 0 -10 30 0 30
0 0 -10 0 -10 25 0 25 0 0 95 0 95 10 0 10 0 0 25 0 25 10 0 10 0 0 30 0 30
10 0 10 0 0 28 0 28 20 14 20 14 0 19 0 18 13 15 12 15 13 14 12 14 0 13 0 14
20 14 20 14 0 13 0 13 10 0 10 0 0 18 0 18 20 14 20 14 0 18 0 18 10 0 10 0 0
10 0 10 -30 0 -30 0 0 8 0 8 20 14 20 14 0 39 0 38 -14 15 -15 14 -15 0 -16 0
0 20 0 20 10 0 10 0 0 21 0 20 14 15 15 14 5 0 6 0 0 -20 0 -20 20 0 20 0 0 8
0 8 -20 14 -20 14 0 14 0 13 -14 15 -15 14 -5 0 -6 0 0 -40 0 -40 -10 0 -10 0
0 -25 0 -25 -10 0 -10 0 0 -30 0 -30 -10 0 -10 0 0 -39 0 -39 -15 -6 -16 -6
-74 6 -75 6 0 -16 0 -16 -10 0 -10 0 0 -30 0 -30 -10 0 -10 0 0 -40 0 -40 -10
0 -10 0 0 -25 0 -25 -10 0 -10 0 0 -30 0 -30 -10 0 -10 0 0 -10 0 -10 20 0 20
0 0 -9 0 -10 45 -7 45 -6 0 -9 0 -9 20 0 20 0 0 -40 0 -40 -20 0 -20 0 0 10 0
10 -15 0 -15 0 0 10 0 10 -20 0 -20 0 0 10 0 10 -30 0 -30 0 0 10 0 10 -30 0
-30 0 0 9 0 10 28 4 27 4 -70 -5 -70 -5 -3 -8 -4 -9 -64 0 -64 0 0 9 0 9 -30
6 -30 6 0 70 0 70 14 0 14 0 16 6 16 6 0 -26 0 -26 20 0 20 0 0 -10 0 -10 25
0 25 0 0 10 0 10 20 0 20 0 0 10 0 10 -20 0 -20 0 0 -10 0 -10 -21 0 -20 0
-15 14 -14 15 0 16 0 16 14 15 15 14 20 0 21 0 0 -10 0 -10 48 0 48 0 14 21
15 21 13 14 12 13 0 34 0 35 16 6 16 6 24 0 24 0 0 10 0 10 30 0 30 0 0 10 0
10 24 0 24 0 5 13 4 12 9 -9 9 -9 -12 -4 -13 -5 0 -9 0 -9 20 0 20 0 0 10 0
10 10 0 10 0 0 -20 0 -20 10 0 10 0 0 40 0 40 9 0 9 0 7 65 7 65 9 0 9 0 0 36
0 35 15 15 14 15 58 3 57 3 4 12 4 11 19 0 19 0 0 10 0 10 20 0 20 0 0 -25 0
-25 -30 0 -30 0 0 -10 0 -10 20 0 20 0 0 -10 0 -10 39 0 39 0 6 -16 6 -16 0
-14 0 -14 -15 0 -15 0 0 10 0 10 -29 0 -29 0 -5 13 -4 12 -8 -7 -8 -8 21 -19
22 -18 0 -27 0 -26 -30 0 -30 0 0 30 0 30 -10 0 -10 0 0 22 0 21 -6 -6 -6 -6
6 -45 7 -46 25 -6 24 -6 25 6 25 6 0 30 0 30 10 0 10 0 0 -10 0 -10 11 0 10 0
15 14 14 15 0 25 0 26 -15 0 -15 0 0 10 0 10 -20 0 -20 0 0 31 0 30 -14 15
-15 14 -15 0 -16 0 0 -10 0 -10 -20 0 -20 0 0 -10 0 -10 -14 0 -14 0 -4 -12
-5 -13 -16 17 -17 17 0 45 0 46 -10 0 -10 0 0 -46z m20 -359 l0 -45 -20 0 -20
0 0 -10 0 -10 -20 0 -20 0 0 15 0 15 10 0 10 0 0 40 0 40 30 0 30 0 0 -45z
m-430 -25 l0 -10 -44 0 -44 0 -18 -7 -18 -7 14 17 15 16 48 1 47 0 0 -10z
m240 -30 l0 -10 45 0 45 0 0 -10 0 -10 36 0 35 0 15 -14 14 -15 0 -11 0 -11
-14 -15 -15 -14 -25 0 -26 0 0 10 0 10 -35 0 -35 0 0 10 0 10 -40 0 -40 0 0
10 0 10 -15 0 -15 0 0 14 0 14 6 16 6 16 29 0 29 0 0 -10z m-300 -40 l0 -30
-30 0 -30 0 0 30 0 30 30 0 30 0 0 -30z m-230 0 l0 -10 -15 0 -15 0 0 10 0 10
15 0 15 0 0 -10z m80 -40 l0 -30 -20 0 -20 0 0 15 0 16 13 14 12 14 8 1 7 0 0
-30z m60 10 l0 -20 -10 0 -10 0 0 20 0 20 10 0 10 0 0 -20z m350 -10 l0 -10
40 0 40 0 0 -10 0 -10 35 0 35 0 0 -10 0 -10 20 0 20 0 0 -10 0 -10 -10 0 -10
0 0 -11 0 -10 -14 -15 -15 -14 -10 0 -11 0 0 10 0 10 -30 0 -30 0 0 9 0 9 -42
7 -42 7 -13 13 -13 14 0 25 0 26 25 0 25 0 0 -10z m18 -91 l4 -9 19 0 19 0 0
-10 0 -10 29 0 29 0 6 -15 5 -15 -5 -15 -6 -15 -19 0 -19 0 0 10 0 10 -20 0
-20 0 0 10 0 10 -30 0 -30 0 0 10 0 10 -11 0 -10 0 -15 14 -14 15 0 11 0 12
43 -7 42 -7 3 -9z m-68 -39 l0 -10 15 0 15 0 0 -10 0 -10 30 0 30 0 0 -10 0
-10 20 0 20 0 0 -35 0 -35 -20 0 -20 0 0 9 0 10 -45 7 -45 6 0 9 0 9 -20 0
-20 0 0 40 0 40 20 0 20 0 0 -10z m-140 -130 l0 -10 30 0 30 0 0 -10 0 -10 30
0 30 0 0 -10 0 -10 20 0 20 0 0 -10 0 -10 11 0 10 0 15 -14 14 -15 0 -15 0
-16 -20 0 -20 0 0 10 0 10 -35 0 -35 0 0 10 0 10 -30 0 -30 0 0 10 0 10 -25 0
-25 0 0 10 0 10 -40 0 -40 0 0 10 0 10 -30 0 -30 0 0 -10 0 -10 30 0 30 0 0
-10 0 -10 40 0 40 0 0 -10 0 -10 25 0 25 0 0 -10 0 -10 30 0 30 0 0 -10 0 -10
29 0 29 0 16 -6 16 -6 0 -15 0 -14 -15 -15 -15 -15 0 10 0 11 -20 0 -20 0 0
10 0 10 -65 0 -65 0 0 10 0 10 -95 0 -95 0 0 34 0 34 -12 4 -13 5 17 16 17 17
20 0 21 0 0 10 0 10 30 0 30 0 0 10 0 10 45 0 45 0 0 -10z m-10 -170 l0 -10
55 0 55 0 0 -10 0 -10 20 0 20 0 0 -10 0 -10 15 0 15 0 0 -36 0 -36 -32 7 -33
7 -3 9 -4 9 -29 0 -29 0 0 10 0 10 -35 0 -35 0 0 10 0 10 -105 0 -105 0 0 10
0 10 10 0 10 0 0 20 0 20 105 0 105 0 0 -10z m-40 -80 l0 -10 35 0 35 0 0 -9
0 -8 50 -7 50 -7 0 -9 0 -10 25 0 25 0 0 -20 0 -20 -15 0 -15 0 0 10 0 10 -30
0 -30 0 0 10 0 10 -95 0 -95 0 0 10 0 10 -65 0 -65 0 0 25 0 25 95 0 95 0 0
-10z"/>
<path d="M360 310 l0 -10 10 0 10 0 0 10 0 10 -10 0 -10 0 0 -10z"/>
<path d="M600 1010 l0 -10 -55 0 -55 0 0 -10 0 -10 55 0 55 0 0 10 0 10 40 0
40 0 0 10 0 10 -40 0 -40 0 0 -10z"/>
<path d="M240 990 l0 -10 -80 0 -80 0 0 -10 0 -10 80 0 80 0 0 10 0 10 80 0
80 0 0 -10 0 -10 15 0 15 0 0 6 0 5 -14 15 -15 14 -80 0 -81 0 0 -10z"/>
<path d="M730 930 l0 -10 30 0 30 0 0 -10 0 -10 20 0 20 0 0 10 0 10 -20 0
-20 0 0 10 0 10 -30 0 -30 0 0 -10z"/>
<path d="M755 873 l30 -5 7 -11 7 -11 8 7 7 8 -14 9 -15 10 -30 -2 -30 -1 30
-4z"/>
<path d="M560 570 l0 -10 10 0 10 0 0 -25 0 -25 -9 0 -10 0 -6 -20 -6 -20 -20
0 -19 0 0 -10 0 -10 -50 0 -50 0 0 -10 0 -10 50 0 50 0 0 10 0 10 20 0 20 0 0
10 0 9 25 25 25 25 0 31 0 30 -20 0 -20 0 0 -10z"/>
</g>
</svg>
