<?xml version="1.0" standalone="no"?>
<!DOCTYPE svg PUBLIC "-//W3C//DTD SVG 20010904//EN"
 "http://www.w3.org/TR/2001/REC-SVG-20010904/DTD/svg10.dtd">
<svg version="1.0" xmlns="http://www.w3.org/2000/svg"
 width="468pt" height="468pt" viewBox="0 0 468 468"
 preserveAspectRatio="xMidYMid meet">
<metadata>
Created by potrace 1.8, written by Peter Selinger 2001-2007
</metadata>
<g transform="translate(0,468) scale(0.365625,-0.365625)"
fill="#000000" stroke="none">
<path d="M720 1170 l0 -10 -16 0 -15 0 -15 -14 -14 -15 0 -25 0 -26 -10 0 -10
0 0 10 0 10 -20 0 -20 0 0 10 0 10 -30 0 -30 0 0 -10 0 -10 -16 0 -15 0 -15
-14 -14 -15 0 -15 0 -16 -10 0 -10 0 0 -40 0 -40 10 0 10 0 0 -15 0 -16 45
-44 44 -45 16 0 15 0 0 -10 0 -10 20 0 20 0 0 -10 0 -10 20 0 20 0 0 -10 0
-10 36 0 35 0 15 14 14 15 0 11 0 12 30 28 30 28 0 26 0 26 10 0 10 0 0 80 0
80 -10 0 -10 0 0 20 0 20 -18 0 -18 0 -14 20 -14 20 -28 0 -28 0 0 -10z m75
-55 l25 -24 0 -6 0 -5 -18 0 -18 0 -14 20 -14 20 -18 0 -18 0 0 10 0 10 25 0
26 0 24 -25z m-189 -49 l14 -15 0 -5 0 -6 -20 0 -20 0 0 10 0 10 -20 0 -20 0
0 10 0 10 26 0 25 0 15 -14z"/>
<path d="M153 685 l-33 -34 0 -56 0 -55 10 0 10 0 0 -15 0 -15 85 -85 85 -85
85 85 85 85 0 15 0 15 10 0 10 0 0 55 0 56 -35 34 -34 35 -36 0 -35 0 0 -10 0
-10 -19 0 -19 0 -6 -12 -6 -13 -6 13 -6 12 -19 0 -19 0 0 10 0 10 -37 -1 -38
0 -32 -34z m87 5 l0 -10 16 0 15 0 15 -14 14 -15 0 -15 0 -16 -6 0 -6 0 -28
30 -28 30 -16 0 -16 0 0 10 0 10 20 0 20 0 0 -10z m195 -15 l25 -24 0 -6 0 -5
-15 0 -16 0 -24 25 -25 24 0 6 0 5 15 0 16 0 24 -25z m45 -71 l0 -15 -14 -15
-15 -14 -5 0 -6 0 0 15 0 16 13 14 12 14 8 1 7 0 0 -16z"/>
<path d="M810 680 l-14 -20 -18 0 -18 0 0 -20 0 -20 -10 0 -10 0 0 -80 0 -80
10 0 10 0 0 -26 0 -26 30 -28 30 -28 0 -12 0 -11 14 -15 15 -14 35 0 36 0 0
10 0 10 20 0 20 0 0 10 0 10 20 0 20 0 0 10 0 10 15 0 16 0 44 45 45 44 0 16
0 15 10 0 10 0 0 40 0 40 -10 0 -10 0 0 16 0 15 -14 15 -15 14 -15 0 -16 0 0
10 0 10 -30 0 -30 0 0 -10 0 -10 -20 0 -20 0 0 -10 0 -10 -10 0 -10 0 0 26 0
25 -14 15 -15 14 -15 0 -16 0 0 10 0 10 -28 0 -28 0 -14 -20z m70 -30 l0 -10
-20 0 -20 0 0 -10 0 -10 -20 0 -20 0 0 5 0 6 13 14 12 14 28 1 27 0 0 -10z
m180 -56 l0 -5 -14 -15 -15 -14 -25 0 -26 0 0 5 0 6 13 14 12 14 28 1 27 0 0
-6z m40 -30 l0 -15 -14 -15 -15 -14 -5 0 -6 0 0 15 0 16 13 14 12 14 8 1 7 0
0 -16z"/>
<path d="M0 100 l0 -100 640 0 640 0 0 100 0 100 -640 0 -640 0 0 -100z"/>
</g>
</svg>
