<?xml version="1.0" standalone="no"?>
<!DOCTYPE svg PUBLIC "-//W3C//DTD SVG 20010904//EN"
 "http://www.w3.org/TR/2001/REC-SVG-20010904/DTD/svg10.dtd">
<svg version="1.0" xmlns="http://www.w3.org/2000/svg"
 width="468pt" height="468pt" viewBox="0 0 468 468"
 preserveAspectRatio="xMidYMid meet">
<metadata>
Created by potrace 1.8, written by Peter Selinger 2001-2007
</metadata>
<g transform="translate(0,468) scale(0.365625,-0.365625)"
fill="#000000" stroke="none">
<path d="M0 640 l0 -640 640 0 640 0 0 640 0 640 -640 0 -640 0 0 -640z m390
395 l0 -145 -145 0 -145 0 0 145 0 145 145 0 145 0 0 -145z m400 -200 l0 -345
-345 0 -345 0 0 150 0 150 195 0 195 0 0 195 0 195 150 0 150 0 0 -345z m390
-195 l0 -540 -540 0 -540 0 0 145 0 145 395 0 395 0 0 395 0 395 145 0 145 0
0 -540z"/>
</g>
</svg>
