<?xml version="1.0" standalone="no"?>
<!DOCTYPE svg PUBLIC "-//W3C//DTD SVG 20010904//EN"
 "http://www.w3.org/TR/2001/REC-SVG-20010904/DTD/svg10.dtd">
<svg version="1.0" xmlns="http://www.w3.org/2000/svg"
 width="468pt" height="468pt" viewBox="0 0 468 468"
 preserveAspectRatio="xMidYMid meet">
<metadata>
Created by potrace 1.8, written by Peter Selinger 2001-2007
</metadata>
<g transform="translate(0,468) scale(0.365625,-0.365625)"
fill="#000000" stroke="none">
<path d="M210 1189 l0 -10 -14 -15 -15 -14 -10 0 -11 0 0 -15 0 -15 -15 0 -15
0 0 -11 0 -10 -14 -15 -15 -14 -10 0 -11 0 0 -15 0 -15 -15 0 -15 0 0 -11 0
-10 -14 -15 -15 -14 -10 0 -11 0 0 -495 0 -495 55 0 55 0 0 80 0 80 50 0 50 0
0 -15 0 -15 55 0 55 0 0 15 0 15 320 0 320 0 0 -80 0 -80 55 0 55 0 0 105 0
105 10 0 10 0 0 15 0 15 15 0 15 0 0 15 0 15 15 0 15 0 0 10 0 10 10 0 10 0 0
-65 0 -65 55 0 55 0 0 520 0 520 -535 0 -535 0 0 -11z m960 -444 l0 -105 -50
0 -50 0 0 65 0 65 10 0 10 0 0 15 0 15 15 0 15 0 0 15 0 15 15 0 15 0 0 10 0
10 10 0 10 0 0 -105z m-960 -90 l0 -65 -10 0 -10 0 0 -15 0 -15 -15 0 -15 0 0
-15 0 -15 -15 0 -15 0 0 -10 0 -10 -10 0 -10 0 0 105 0 105 50 0 50 0 0 -65z
m750 25 l0 -40 -320 0 -320 0 0 40 0 40 320 0 320 0 0 -40z"/>
</g>
</svg>
