<?xml version="1.0" standalone="no"?>
<!DOCTYPE svg PUBLIC "-//W3C//DTD SVG 20010904//EN"
 "http://www.w3.org/TR/2001/REC-SVG-20010904/DTD/svg10.dtd">
<svg version="1.0" xmlns="http://www.w3.org/2000/svg"
 width="468pt" height="468pt" viewBox="0 0 468 468"
 preserveAspectRatio="xMidYMid meet">
<metadata>
Created by potrace 1.8, written by Peter Selinger 2001-2007
</metadata>
<g transform="translate(0,468) scale(0.365625,-0.365625)"
fill="#000000" stroke="none">
<path d="M460 1230 l0 -10 10 0 10 0 0 -20 0 -20 -100 0 -100 0 0 -10 0 -10
-35 0 -35 0 -65 -65 -65 -65 0 -35 0 -35 -10 0 -10 0 0 -70 0 -70 -10 0 -10 0
0 -20 0 -20 -10 0 -10 0 0 -19 0 -19 13 -6 12 -6 -12 -6 -13 -6 0 -119 0 -119
10 0 10 0 0 -25 0 -25 55 -55 55 -55 13 0 13 0 14 -20 14 -20 18 0 18 0 0 -16
0 -15 -14 -15 -15 -14 -15 0 -16 0 0 -10 0 -10 -90 0 -90 0 0 -100 0 -100 640
0 640 0 0 100 0 100 -200 0 -200 0 0 10 0 10 10 0 10 0 0 30 0 30 10 0 10 0 0
40 0 40 10 0 10 0 0 36 0 35 14 15 15 14 11 0 11 0 34 35 35 34 0 15 0 14 -12
4 -13 5 17 16 17 17 35 0 36 0 0 -10 0 -10 20 0 20 0 0 10 0 10 -20 0 -20 0 0
10 0 10 -40 0 -40 0 0 -10 0 -10 -20 0 -20 0 0 10 0 10 -20 0 -20 0 0 10 0 10
90 0 90 0 0 -10 0 -10 15 0 16 0 24 -25 25 -24 0 -11 0 -11 -14 -15 -15 -14
-25 0 -26 0 0 -10 0 -10 -20 0 -20 0 0 9 0 9 13 5 12 4 -7 8 -8 8 -19 -21 -18
-22 -27 0 -26 0 0 -10 0 -10 60 0 60 0 0 10 0 10 25 0 26 0 24 25 25 24 0 16
0 15 -10 0 -10 0 0 20 0 20 -20 0 -20 0 0 10 0 10 -20 0 -20 0 0 10 0 10 -79
0 -79 0 -4 12 -5 13 -16 -17 -17 -17 0 -11 0 -10 -56 -57 -56 -56 -10 14 -10
14 -5 -12 -5 -13 -19 0 -19 0 0 10 0 10 -20 0 -20 0 0 10 0 10 20 0 20 0 0
-10 0 -10 20 0 20 0 0 9 0 9 -12 4 -12 4 29 29 29 29 4 -12 4 -12 9 0 9 0 0
20 0 20 -10 0 -10 0 0 20 0 20 10 0 10 0 0 -20 0 -20 10 0 10 0 0 15 0 15 65
65 65 65 5 0 5 0 0 -20 0 -20 6 0 5 0 15 14 14 15 0 11 0 11 14 15 15 14 5 0
6 0 0 -20 0 -20 -10 0 -10 0 0 -16 0 -15 -14 -15 -15 -14 -14 0 -15 0 -6 13
-6 12 -6 -12 -6 -13 -19 0 -19 0 0 -16 0 -16 -40 -38 -40 -38 0 -16 0 -16 6 0
5 0 15 14 14 15 0 11 0 11 36 35 35 36 7 -7 6 -6 -14 -9 -14 -9 7 -7 7 -7 19
21 18 22 12 0 12 0 24 25 25 24 0 16 0 15 10 0 10 0 0 16 0 15 -16 16 -16 16
-8 -14 -9 -13 -19 22 -19 22 -16 0 -15 0 -5 -12 -5 -13 -10 14 -10 14 -19 -18
-18 -18 13 -5 12 -4 0 -9 0 -9 -16 0 -15 0 -16 -16 -16 -16 14 -9 14 -9 -15
-10 -15 -10 14 -9 14 -9 -16 -16 -16 -16 -35 0 -36 0 0 10 0 10 10 0 10 0 0
40 0 40 10 0 10 0 0 40 0 40 -10 0 -10 0 0 20 0 20 -20 0 -20 0 0 10 0 10 -20
0 -20 0 0 10 0 10 -66 0 -65 0 -15 14 -14 15 0 15 0 16 -10 0 -10 0 0 20 0 20
-10 0 -10 0 0 20 0 20 -10 0 -10 0 0 20 0 20 -10 0 -10 0 0 20 0 20 -10 0 -10
0 0 16 0 15 -14 15 -15 14 -15 0 -16 0 0 -10z m60 -70 l0 -20 10 0 10 0 0 -20
0 -20 10 0 10 0 0 -20 0 -20 10 0 10 0 0 -20 0 -20 10 0 10 0 0 -20 0 -20 10
0 10 0 0 -20 0 -20 -15 0 -16 0 -24 -25 -25 -24 0 -15 0 -14 13 -6 12 -6 -12
-6 -13 -6 0 -18 0 -18 12 -4 13 -5 -17 -16 -17 -17 -25 0 -26 0 0 10 0 10 -50
0 -50 0 0 10 0 10 -70 0 -70 0 0 10 0 10 -50 0 -50 0 0 30 0 30 10 0 10 0 0
40 0 40 10 0 10 0 0 30 0 30 10 0 10 0 0 15 0 16 35 34 34 35 36 0 35 0 0 10
0 10 40 0 40 0 0 10 0 10 40 0 40 0 0 10 0 10 10 0 10 0 0 -20z m-280 -30 l0
-10 -15 0 -16 0 -44 -45 -45 -44 0 -36 0 -35 -10 0 -10 0 0 -70 0 -70 -10 0
-10 0 0 70 0 70 10 0 10 0 0 35 0 35 53 54 52 55 18 0 17 1 0 -10z m386 -284
l14 -15 0 -14 0 -15 -12 -4 -12 -4 26 -27 27 -27 16 0 15 0 0 10 0 10 20 0 20
0 0 -19 0 -19 -12 -5 -13 -5 15 -11 15 -11 -15 -9 -14 -10 7 -7 7 -7 20 24 21
23 10 -14 11 -15 5 13 5 12 9 0 9 0 0 -16 0 -15 -14 -15 -15 -14 -15 0 -16 0
0 -10 0 -10 -66 0 -65 0 -15 14 -14 15 0 5 0 6 16 0 15 0 16 15 15 16 -7 7 -8
7 -4 -12 -5 -13 -29 0 -29 0 0 16 0 17 -21 18 -21 18 18 18 17 18 5 -13 4 -12
9 0 9 0 0 20 0 20 -20 0 -20 0 0 10 0 10 10 0 10 0 0 20 0 20 16 0 15 0 15
-14z m374 4 l0 -10 19 0 19 0 4 12 5 13 17 -18 17 -17 -16 -17 -17 -16 -8 13
-8 14 -31 -33 -31 -33 -15 15 -15 16 0 5 0 6 16 0 15 0 17 17 17 16 -13 5 -12
4 0 9 0 9 10 0 10 0 0 -10z m-300 -36 l0 -25 -14 -15 -15 -14 -5 0 -6 0 0 19
0 19 13 6 12 6 -12 6 -13 6 0 9 0 9 20 0 20 0 0 -26z m-620 -24 l0 -10 30 0
30 0 0 10 0 10 30 0 30 0 0 -10 0 -10 70 0 70 0 0 -10 0 -10 60 0 60 0 0 -10
0 -10 30 0 30 0 0 -10 0 -10 20 0 20 0 0 -20 0 -20 -110 0 -110 0 0 10 0 10
-30 0 -30 0 0 10 0 10 -46 0 -45 0 -15 14 -14 15 0 15 0 16 -10 0 -10 0 0 -20
0 -20 -10 0 -10 0 0 -10 0 -10 30 0 30 0 0 -10 0 -10 50 0 50 0 0 -9 0 -9 -12
-5 -13 -4 9 -9 9 -9 4 13 5 12 29 0 29 0 0 -10 0 -10 30 0 30 0 0 -10 0 -10
-10 0 -10 0 0 -40 0 -40 -20 0 -20 0 0 10 0 10 -30 0 -30 0 0 10 0 10 -20 0
-20 0 0 10 0 10 -20 0 -20 0 0 10 0 10 -16 0 -16 0 -28 30 -28 30 -26 0 -26 0
0 -9 0 -9 13 -6 12 -6 -12 -6 -13 -6 0 -89 0 -89 10 0 10 0 0 -25 0 -26 35
-34 34 -35 11 0 11 0 26 -26 25 -25 -6 -6 -6 -6 -19 21 -18 22 -12 0 -12 0
-44 45 -45 44 0 26 0 25 -10 0 -10 0 0 89 0 89 13 6 12 6 -12 6 -13 6 0 18 0
18 13 6 12 6 -12 6 -13 6 0 14 0 15 13 14 12 14 8 1 7 0 0 -10z m70 -150 l14
-20 18 0 18 0 0 -10 0 -10 20 0 20 0 0 -10 0 -10 20 0 20 0 0 -10 0 -10 30 0
30 0 0 -10 0 -10 19 0 19 0 5 13 4 12 20 -22 20 -23 37 0 36 0 0 -19 0 -19 12
-4 12 -4 -47 -47 -46 -47 -12 0 -11 0 -28 -30 -28 -30 -12 0 -13 0 -18 -21
-18 -21 -26 26 -25 25 0 16 0 15 -16 0 -15 0 -15 14 -14 15 0 13 0 14 -20 14
-20 14 0 28 0 28 -10 0 -10 0 0 30 0 30 -10 0 -10 0 0 35 0 36 13 14 12 14 5
1 6 0 14 -20z m410 -40 l0 -60 10 0 10 0 0 -28 0 -28 20 -14 20 -14 0 -34 0
-34 30 -28 30 -28 0 -6 0 -6 -20 0 -20 0 0 -20 0 -20 -9 0 -9 0 -5 13 -4 12
-8 -7 -8 -8 21 -19 22 -18 0 -17 0 -16 10 0 10 0 0 20 0 20 -10 0 -10 0 0 10
0 10 19 0 19 0 5 -12 4 -13 9 9 9 9 -12 4 -13 5 0 19 0 19 10 0 10 0 0 20 0
20 10 0 10 0 0 -10 0 -10 10 0 10 0 0 20 0 20 6 0 5 0 15 -14 14 -15 0 -24 0
-25 -12 -6 -13 -6 13 -6 12 -6 0 -19 0 -19 -20 0 -20 0 0 -10 0 -10 10 0 10 0
0 -10 0 -10 -100 0 -100 0 0 20 0 20 10 0 10 0 0 28 0 28 20 14 20 14 0 18 0
18 -10 0 -10 0 0 28 0 28 -20 14 -20 14 0 28 0 28 -10 0 -10 0 0 30 0 30 -10
0 -10 0 0 35 0 36 13 14 12 14 8 1 7 0 0 -60z m160 -56 l0 -15 16 -16 16 -16
10 14 10 14 5 -12 5 -13 59 0 59 0 0 -25 0 -26 -25 -24 -24 -25 -56 0 -55 0 0
-10 0 -10 -20 0 -20 0 0 18 0 18 -20 14 -20 14 0 28 0 28 6 0 5 0 15 -14 14
-15 0 -15 0 -16 10 0 10 0 0 16 0 16 -31 29 -30 28 13 15 13 15 18 1 17 0 0
-16z m-200 -224 l0 -120 -140 0 -140 0 0 5 0 6 45 44 44 45 12 0 11 0 28 30
28 30 14 0 13 1 35 39 35 39 8 1 7 0 0 -120z m160 91 l0 -9 -12 -5 -13 -5 15
-11 14 -10 -6 -7 -7 -6 -16 15 -15 16 0 15 0 16 20 0 20 0 0 -9z m160 -47 l0
-15 -14 -15 -15 -14 -5 0 -6 0 0 20 0 20 -10 0 -10 0 0 10 0 10 30 0 30 0 0
-16z m-40 -74 l0 -10 20 0 20 0 0 -10 0 -10 20 0 20 0 0 -10 0 -10 -25 0 -26
0 -24 25 -25 24 0 6 0 5 10 0 10 0 0 -10z"/>
<path d="M1040 830 l0 -10 10 0 10 0 0 10 0 10 -10 0 -10 0 0 -10z"/>
<path d="M60 770 l0 -10 10 0 10 0 0 10 0 10 -10 0 -10 0 0 -10z"/>
<path d="M260 630 l0 -10 10 0 10 0 0 10 0 10 -10 0 -10 0 0 -10z"/>
<path d="M720 290 l0 -10 10 0 10 0 0 10 0 10 -10 0 -10 0 0 -10z"/>
<path d="M700 230 l0 -10 10 0 10 0 0 10 0 10 -10 0 -10 0 0 -10z"/>
<path d="M800 470 l0 -10 10 0 10 0 0 10 0 10 -10 0 -10 0 0 -10z"/>
<path d="M840 474 l0 -5 15 -16 16 -15 6 5 5 6 -15 16 -16 15 -5 0 -6 0 0 -6z"/>
<path d="M731 424 l-13 -15 6 -6 5 -5 16 15 15 16 0 5 0 6 -7 0 -8 -1 -14 -15z"/>
<path d="M832 584 l-13 -14 15 -16 16 -15 26 26 26 26 -6 7 -7 6 -10 -14 -11
-15 -5 13 -5 12 -6 0 -7 -1 -13 -15z m28 -14 l0 -10 -10 0 -10 0 0 10 0 10 10
0 10 0 0 -10z"/>
</g>
</svg>
