<?xml version="1.0" standalone="no"?>
<!DOCTYPE svg PUBLIC "-//W3C//DTD SVG 20010904//EN"
 "http://www.w3.org/TR/2001/REC-SVG-20010904/DTD/svg10.dtd">
<svg version="1.0" xmlns="http://www.w3.org/2000/svg"
 width="468pt" height="468pt" viewBox="0 0 468 468"
 preserveAspectRatio="xMidYMid meet">
<metadata>
Created by potrace 1.8, written by Peter Selinger 2001-2007
</metadata>
<g transform="translate(0,468) scale(0.365625,-0.365625)"
fill="#000000" stroke="none">
<path d="M556 1217 l6 -18 6 6 6 5 -13 13 -12 12 7 -18z"/>
<path d="M606 1203 l-7 -18 12 12 13 13 -6 5 -6 6 -6 -18z"/>
<path d="M566 1178 l5 -8 10 5 9 6 0 3 0 3 -15 0 -14 0 5 -9z"/>
<path d="M586 1133 l5 -25 -10 6 -9 6 -26 -30 -25 -30 -18 -8 -18 -7 -52 -35
-53 -35 5 -13 5 -14 -20 -5 -20 -5 0 -14 0 -14 -14 0 -15 0 -20 -26 -21 -27 0
7 0 7 -13 -13 -14 -13 -46 -29 -47 -30 0 -13 0 -13 -14 0 -15 0 -13 -18 -13
-19 -26 -16 -26 -17 -8 7 -9 8 12 -16 13 -17 32 -13 32 -13 33 -33 33 -33 10
0 11 0 26 -18 27 -18 26 -2 26 -2 28 -14 29 -15 53 6 53 5 0 -16 0 -16 20 0
20 0 0 9 0 9 26 5 25 5 24 -26 24 -26 -6 -9 -6 -10 11 7 11 6 27 -23 27 -24
-7 -12 -7 -11 -8 4 -8 5 0 -13 0 -13 13 0 13 0 -6 10 -6 10 11 -7 12 -7 -10
-20 -11 -20 -9 6 -8 5 2 -15 2 -14 8 -8 8 -8 -4 10 -3 10 8 3 7 2 7 0 6 0 -19
-21 -18 -21 -1 -32 -1 -33 13 0 13 0 -8 11 -8 11 2 23 2 22 1 8 2 7 8 -20 9
-20 -10 -12 -9 -11 11 -7 10 -6 -10 -20 -11 -20 -9 6 -8 5 2 -15 2 -14 9 -8 8
-8 -7 12 -6 12 9 5 10 6 5 -9 6 -10 -8 -5 -9 -6 4 -25 5 -25 -6 -25 -6 -25
-25 0 -25 0 0 13 0 12 -8 -11 -7 -12 -20 -5 -20 -5 75 -2 75 -2 45 0 45 -1 -3
24 -3 24 16 -19 15 -20 0 14 0 14 13 -18 13 -17 0 19 0 19 -21 -1 -20 -1 0 32
0 31 -7 7 -6 7 2 -19 3 -18 -5 -9 -4 -8 -10 13 -10 14 -5 -13 -5 -12 -11 7
-12 6 8 -9 8 -9 17 0 17 0 -3 -20 -4 -20 -4 -5 -5 -4 -9 14 -10 15 0 -12 0
-13 -10 0 -11 0 3 69 2 70 16 -12 15 -12 -13 17 -14 17 6 10 6 10 -9 5 -8 6 2
37 3 38 1 17 1 16 21 -5 21 -6 -14 -9 -13 -10 17 5 16 6 19 -21 18 -21 -12 6
-12 7 -5 -9 -6 -8 23 1 22 1 -2 -12 -3 -13 8 1 7 1 13 -1 13 -1 -7 -12 -7 -11
11 7 10 6 15 -15 16 -15 11 0 12 0 -5 -14 -6 -14 20 -18 20 -18 16 -2 16 -3 8
-12 8 -13 -6 -10 -6 -9 10 6 10 6 36 -33 36 -33 -5 -6 -6 -5 16 2 15 2 7 7 7
7 -11 0 -12 0 0 13 0 13 -27 16 -28 16 -72 69 -71 68 -35 25 -35 25 10 13 11
12 -18 -6 -18 -7 8 13 8 13 -11 -7 -11 -6 -27 25 -27 25 24 1 24 1 8 -1 8 -1
-5 9 -6 10 20 6 20 6 0 10 0 10 8 -5 8 -5 -1 62 -2 62 10 13 9 12 38 0 37 0
17 19 18 20 38 6 38 6 23 34 23 33 8 -4 8 -5 22 24 23 25 21 23 21 24 13 25
13 25 -24 -20 -24 -20 -10 -11 -10 -11 -52 -31 -53 -32 0 7 0 6 16 18 16 17 4
29 5 28 4 60 5 60 -11 28 -11 27 -14 0 -14 0 0 9 0 9 -14 5 -15 6 5 -14 6 -14
18 -6 19 -6 7 -32 7 -32 3 -34 2 -35 -5 -12 -4 -12 -44 -12 -45 -13 -54 5 -55
5 -55 56 -56 57 0 10 0 10 -10 0 -11 0 -30 35 -31 35 -12 -7 -11 -7 15 19 15
19 -11 -7 -12 -7 -13 16 -13 16 -2 16 -3 16 12 15 12 15 -12 -7 -12 -7 -6 9
-6 10 -13 -5 -14 -5 -7 10 -6 11 -10 -6 -10 -6 5 25 4 24 -13 0 -13 0 4 -24z
m-12 -35 l-7 -11 16 6 16 6 6 -10 6 -9 -8 1 -8 1 -11 -1 -12 -1 -5 -19 -5 -20
16 6 15 6 -6 -17 -7 -17 33 22 32 23 4 3 4 2 -20 18 -19 18 12 -8 12 -8 12 3
13 3 2 -22 2 -22 -6 3 -6 4 -25 -27 -25 -26 9 7 8 6 17 -5 16 -5 -15 11 -15
11 13 0 12 0 8 -2 7 -3 -2 -8 -3 -7 8 2 7 3 25 -25 25 -25 -2 -7 -3 -8 8 1 7
1 13 -1 13 -1 -5 -22 -6 -23 6 12 6 13 48 -47 49 -47 -6 -10 -6 -9 11 6 10 7
27 -32 27 -31 49 2 49 2 -6 -15 -6 -14 -15 -6 -14 -6 -15 14 -14 15 -27 -14
-28 -13 -35 -6 -35 -6 -72 -6 -73 -5 0 3 -1 3 -6 58 -5 57 10 0 9 0 40 -14 39
-14 59 -7 60 -7 7 -11 8 -12 0 12 0 12 -7 4 -8 5 -55 7 -55 7 -52 18 -52 18
-4 -4 -4 -4 -1 13 -2 12 -2 40 -3 40 -25 -1 -25 -2 -10 -1 -10 -1 15 -11 15
-11 -14 -5 -13 -5 10 -7 11 -7 -8 -13 -8 -13 -54 23 -54 23 -5 7 -5 6 -29 15
-29 15 24 23 24 23 -14 -8 -14 -8 7 11 7 11 12 -4 12 -5 25 21 25 21 -30 -17
-30 -17 16 16 15 16 22 5 22 4 10 6 10 6 0 12 0 12 -10 -15 -10 -15 0 9 0 9
17 19 16 18 4 0 4 0 -7 -12z m-159 -128 l-6 -10 -12 0 -12 0 15 10 15 10 3 0
3 0 -6 -10z m43 -57 l13 -13 15 0 15 0 41 -21 42 -21 19 11 18 12 -12 -23 -12
-23 14 12 15 12 -2 -45 -2 -44 17 -10 16 -10 -28 4 -29 5 12 -14 11 -14 17 6
17 5 -15 -11 -15 -11 15 -10 15 -10 -10 0 -11 0 -10 10 -11 11 -13 -16 -13
-15 112 6 113 5 21 5 22 4 30 5 30 6 18 5 17 5 -6 12 -7 12 26 -24 26 -24 -4
-8 -5 -8 11 -7 12 -7 -7 11 -7 12 13 0 13 0 -14 9 -13 9 13 8 14 9 43 11 42
11 0 -3 0 -2 -52 -38 -52 -38 -10 -2 -11 -3 -54 -10 -55 -11 -8 -13 -8 -12 0
15 0 15 -8 -12 -8 -12 -39 -5 -40 -6 -60 -7 -60 -8 -165 0 -165 0 -47 8 -48 8
-17 6 -18 7 -5 6 -5 7 -55 21 -55 21 15 1 15 1 30 25 30 26 -14 -7 -14 -8 7
12 7 11 9 -5 8 -5 30 30 30 30 9 0 8 0 52 44 52 44 -7 7 -7 7 10 -3 10 -2 20
8 20 9 13 18 13 18 22 -12 22 -11 13 -14z m402 -408 l0 -55 -32 0 -33 0 15 10
15 10 -15 0 -15 0 12 8 12 8 -9 13 -8 14 5 13 5 13 14 -6 14 -5 6 16 6 16 4 0
4 0 0 -55z m-80 4 l-15 -11 13 -5 12 -5 0 -10 0 -9 -13 -14 -14 -13 -12 8 -13
7 16 32 17 31 12 0 12 0 -15 -11z m25 -104 l-49 -24 -8 12 -8 12 0 13 0 12 58
0 57 -1 -50 -24z m160 -225 l18 -20 -5 0 -5 0 -18 20 -18 20 5 0 5 0 18 -20z"/>
<path d="M604 799 l-2 -30 4 4 5 4 4 21 4 22 -7 4 -7 4 -1 -29z"/>
<path d="M866 690 l-90 -30 -25 -4 -26 -4 -12 -1 -13 -1 0 -10 0 -10 15 0 15
0 0 13 0 12 9 -14 9 -13 3 9 4 9 75 23 75 23 15 2 15 2 20 12 20 11 -10 0 -10
0 -89 -29z"/>
<path d="M94 687 l-7 -12 7 7 8 6 37 -13 37 -13 44 -6 44 -6 8 -12 8 -13 0 15
0 15 8 -12 7 -11 35 -7 35 -6 120 -3 120 -2 45 5 45 6 -168 0 -168 0 -9 15
-10 15 0 -15 0 -15 -8 12 -7 11 -35 6 -35 6 -40 6 -39 6 -38 14 -37 13 -7 -12z"/>
<path d="M694 1078 l-6 -9 6 -6 6 -6 0 14 0 14 9 -13 8 -14 6 14 5 15 -14 0
-15 0 -5 -9z"/>
<path d="M736 1063 l-7 -18 12 12 13 13 -6 5 -6 6 -6 -18z"/>
<path d="M778 1048 l-13 -8 22 3 22 3 6 5 5 6 -15 0 -14 0 -13 -9z"/>
<path d="M819 1033 l-14 -18 18 14 17 13 0 4 0 4 -4 0 -4 0 -13 -17z"/>
<path d="M860 1025 l-9 -11 23 0 23 0 0 11 0 12 -14 0 -13 0 -10 -12z"/>
<path d="M910 1025 l0 -3 15 -5 14 -6 5 7 5 8 -20 1 -19 2 0 -4z"/>
<path d="M1018 1003 l13 -5 6 6 6 6 -19 -1 -19 -1 13 -5z"/>
<path d="M200 920 l0 -10 10 0 10 0 0 10 0 10 -10 0 -10 0 0 -10z"/>
<path d="M849 398 l0 -3 -5 -22 -4 -22 8 -5 7 -4 0 29 1 29 -3 0 -3 0 -1 -2z"/>
<path d="M846 224 l5 -29 5 -5 5 -5 -3 27 -4 27 -7 7 -6 6 5 -28z"/>
<path d="M845 171 l-5 -10 8 -5 9 -5 0 14 0 15 -3 0 -3 0 -6 -9z"/>
<path d="M758 152 l-5 -19 19 5 20 5 -9 6 -8 6 -6 8 -6 8 -5 -19z"/>
<path d="M654 115 l0 -34 5 5 5 5 2 25 1 25 -6 4 -7 4 0 -34z"/>
<path d="M0 15 l0 -15 640 0 640 0 0 15 0 15 -640 0 -640 0 0 -15z"/>
</g>
</svg>
