<?xml version="1.0" standalone="no"?>
<!DOCTYPE svg PUBLIC "-//W3C//DTD SVG 20010904//EN"
 "http://www.w3.org/TR/2001/REC-SVG-20010904/DTD/svg10.dtd">
<svg version="1.0" xmlns="http://www.w3.org/2000/svg"
 width="468pt" height="468pt" viewBox="0 0 468 468"
 preserveAspectRatio="xMidYMid meet">
<metadata>
Created by potrace 1.8, written by Peter Selinger 2001-2007
</metadata>
<g transform="translate(0,468) scale(0.365625,-0.365625)"
fill="#000000" stroke="none">
<path d="M558 1274 l-18 -5 0 -10 0 -9 -12 0 -13 0 -15 -10 -15 -10 12 -8 13
-8 4 -31 3 -31 -6 -10 -6 -9 -23 -12 -23 -12 -21 7 -21 6 14 9 13 8 -7 8 -8 7
-9 -14 -9 -14 19 -18 19 -18 10 0 9 0 4 10 3 10 75 9 75 10 80 -10 80 -10 3
-10 4 -9 10 0 10 0 -5 14 -5 13 18 16 18 15 23 7 23 8 25 28 25 29 13 0 13 0
0 -13 0 -13 -20 -17 -20 -17 0 -13 0 -14 -25 -13 -25 -13 0 -9 0 -8 -15 0 -15
0 0 6 0 7 18 14 17 14 -22 -11 -23 -11 0 -14 0 -15 10 0 10 0 40 -41 40 -41 0
-11 0 -10 16 -11 15 -12 -6 -27 -7 -27 -9 0 -9 0 0 -15 0 -14 -17 -10 -18 -9
9 -9 9 -8 4 13 5 12 14 0 14 0 0 -9 0 -9 46 -7 45 -6 20 -20 19 -19 0 -9 0 -9
20 -5 20 -5 0 -11 0 -11 -20 0 -20 0 0 10 0 10 -14 0 -15 0 -13 13 -13 13 -49
13 -48 12 -14 14 -15 14 -17 -6 -17 -7 -12 -12 -12 -12 -38 -7 -38 -7 -7 -11
-7 -12 -126 0 -126 0 -7 12 -7 11 -38 7 -38 7 -14 14 -14 14 -8 0 -8 0 -22 23
-22 24 -6 26 -7 27 -9 0 -9 0 0 15 0 15 11 0 10 0 10 29 10 29 15 6 14 5 0 10
0 9 -35 6 -35 7 0 9 0 10 -15 0 -14 0 -8 14 -8 13 -25 8 -24 8 14 -15 15 -14
18 -7 17 -6 0 -10 0 -9 29 -7 29 -6 5 -13 5 -13 -9 -14 -9 -14 0 12 0 13 -25
6 -25 6 0 9 0 9 -11 0 -11 0 -40 40 -40 40 6 24 6 25 36 7 35 6 37 -6 37 -6 3
-10 4 -10 14 0 14 0 0 11 0 12 -22 19 -23 20 -63 -6 -63 -5 -14 -13 -14 -13
-16 -13 -15 -13 0 -20 0 -20 14 -5 14 -6 6 -13 5 -14 -14 5 -13 6 -6 15 -6 16
-41 -7 -40 -6 -21 -19 -20 -19 7 -21 6 -21 25 -6 24 -6 0 -8 0 -9 23 -4 22 -4
-22 -2 -23 -1 0 -10 0 -10 -11 0 -10 0 -15 -14 -14 -15 0 -15 0 -16 21 -21 21
-21 58 -2 58 -1 -8 -14 -8 -15 -40 -2 -39 -2 -22 -18 -21 -18 0 -11 0 -11 23
-19 22 -20 58 0 58 0 7 11 7 11 23 7 22 7 0 -15 0 -14 6 -15 5 -14 -30 -6 -29
-6 -7 -20 -6 -21 6 -10 6 -10 40 -6 39 -7 0 -8 0 -9 35 0 35 0 0 8 0 7 31 14
30 13 6 -6 6 -6 -17 -6 -16 -6 0 -10 0 -9 17 -17 17 -17 -212 -3 -212 -2 0
-285 0 -285 640 0 640 0 0 285 0 285 -327 2 -328 3 22 22 23 23 6 40 7 40 8 0
9 0 0 -10 0 -11 17 -6 17 -7 19 -15 19 -16 20 -17 21 -18 28 0 28 0 18 19 18
19 43 7 42 7 0 8 0 8 20 5 20 5 0 26 0 25 -17 10 -18 9 8 8 8 8 7 -11 7 -11
37 -7 38 -7 25 6 25 6 0 15 0 15 14 0 14 0 6 15 5 15 14 0 14 0 27 25 26 24 0
11 0 10 -9 0 -9 0 -6 25 -6 25 -18 1 -17 1 13 5 13 5 25 23 24 22 0 23 0 22
-20 5 -20 5 0 9 0 8 -60 7 -60 7 0 13 0 14 15 0 15 0 0 10 0 10 15 0 16 0 6
16 6 15 -24 22 -24 22 -70 0 -71 0 -15 -15 -14 -16 -11 -19 -10 -19 -12 -2
-12 -2 10 5 10 5 0 12 0 12 19 21 20 21 1 13 2 14 -1 19 -1 19 -31 -7 -30 -6
-15 -15 -15 -15 -4 0 -3 0 -32 31 -31 32 -45 5 -45 5 -6 -22 -5 -21 -9 0 -8 0
-9 17 -10 17 -58 2 -59 3 -17 -5z m120 -30 l22 -6 0 -10 0 -9 -14 -15 -15 -14
-10 0 -11 0 0 10 0 10 11 0 10 0 -15 15 -15 15 -14 0 -15 0 -5 -13 -5 -14 6
-10 7 -9 18 -7 19 -7 -4 -13 -5 -12 -31 -3 -32 -3 0 -10 0 -9 -20 0 -20 0 0
15 0 15 15 0 15 0 0 11 0 10 -15 15 -14 15 5 14 6 14 16 4 17 5 35 1 35 1 23
-6z m167 -18 l15 -15 0 -10 0 -11 -17 -20 -17 -20 -12 0 -12 0 -6 -15 -5 -15
-16 0 -15 0 0 15 0 15 13 0 14 0 21 19 22 18 0 12 0 11 -10 0 -10 0 0 -11 0
-10 -13 -13 -13 -13 -22 -7 -22 -7 0 -10 0 -9 -15 0 -15 0 0 15 0 15 15 0 15
0 0 10 0 10 14 0 15 0 15 15 15 16 -5 14 -6 14 -16 5 -17 5 38 -4 37 -4 15
-15z m-88 -12 l-6 -6 -13 5 -13 5 19 1 19 1 -6 -6z m371 -60 l22 -6 0 -13 0
-13 -22 -6 -23 -6 -10 0 -10 0 15 10 15 10 -12 0 -11 0 -16 -6 -16 -6 0 -22 0
-21 -6 -23 -6 -22 -24 -6 -24 -6 0 -9 0 -9 -35 0 -35 0 0 9 0 9 26 6 26 7 24
26 24 26 0 18 0 17 10 5 11 6 -13 -3 -13 -3 -3 -17 -4 -18 -16 -19 -16 -19
-13 0 -13 0 0 -10 0 -10 -29 0 -29 0 -6 15 -5 15 19 0 20 0 0 10 0 10 12 0 12
0 23 27 23 26 0 8 0 8 18 4 17 5 35 1 35 1 23 -6z m-1032 -81 l-1 -18 53 -3
52 -3 0 -8 0 -8 40 -7 40 -6 0 -10 0 -10 15 0 15 0 0 -15 0 -15 -29 0 -29 0
-4 11 -4 11 -47 5 -47 6 0 7 0 7 -40 6 -39 5 -16 15 -15 16 0 9 0 10 13 5 12
5 16 1 17 1 -2 -17z m1146 -66 l8 -12 0 -13 0 -12 -26 -10 -25 -10 -27 1 -27
0 23 10 24 9 -4 12 -5 13 -24 3 -25 3 -23 -20 -23 -20 -29 -6 -29 -7 0 -9 0
-9 -30 0 -30 0 0 9 0 8 45 13 45 13 0 8 0 8 13 4 12 4 -25 -4 -25 -5 -5 -9 -6
-9 -32 -6 -32 -7 6 17 6 16 39 6 39 7 0 8 0 8 33 4 32 5 59 -4 60 -4 8 -13z
m-1042 -26 l0 -8 39 -7 39 -6 7 -27 7 -28 11 -8 12 -9 -39 6 -40 5 -8 16 -9
15 -14 0 -15 0 0 10 0 10 -29 0 -29 0 -6 -16 -6 -16 22 5 23 6 15 -9 15 -10
-15 -10 -15 -10 -17 0 -18 0 0 -12 0 -13 -8 12 -7 11 -28 7 -28 7 3 27 3 26
33 10 32 9 0 8 0 8 35 0 35 0 0 -9z m988 -70 l4 -11 14 0 14 0 0 -15 0 -15 10
0 10 0 0 -10 0 -10 -18 -18 -19 -19 -32 -11 -32 -11 -14 5 -14 6 14 14 14 14
11 0 11 0 -3 18 -4 17 -98 0 -99 0 -4 13 -5 12 11 0 11 0 0 -10 0 -10 29 0 29
0 4 11 3 10 56 2 56 1 17 -17 17 -17 5 0 4 0 0 15 0 14 -35 7 -35 6 0 9 0 9
-14 0 -14 0 -4 -10 -3 -9 -59 -3 -59 -3 -4 12 -4 12 53 4 53 4 60 -3 60 -3 3
-10z m-869 -50 l14 -9 -7 -11 -7 -11 -20 0 -19 0 0 -8 0 -9 -40 -12 -40 -12 0
-9 0 -8 -31 -7 -31 -7 -34 6 -34 7 0 13 0 14 16 6 16 6 14 0 15 0 -6 -10 -6
-10 16 0 16 0 6 18 6 17 17 16 16 16 14 6 15 5 40 1 40 1 14 -9z m46 -45 l14
-14 -24 -6 -24 -6 -6 -21 -7 -21 21 -19 20 -19 -6 -17 -7 -17 16 14 16 15 -8
5 -7 5 -7 23 -7 22 -10 0 -10 0 17 17 17 17 33 0 33 0 7 -6 6 -7 -27 -25 -28
-26 12 0 11 0 0 -20 0 -20 -21 -21 -21 -21 -64 -1 -65 -2 -8 14 -9 14 5 14 5
13 10 0 9 0 16 -15 15 -16 17 3 16 3 3 17 3 17 -20 18 -21 17 0 23 0 23 25 12
25 11 0 9 0 8 11 0 10 0 14 -14z m546 -31 l24 -25 13 0 12 0 0 -9 0 -9 20 -5
20 -5 0 -15 0 -16 -16 -16 -16 -16 -52 3 -51 3 0 15 0 15 35 -2 35 -1 -17 5
-18 4 0 9 0 8 -42 7 -42 7 -12 13 -12 12 6 9 7 9 30 12 30 11 11 1 12 1 23
-25z m-397 -50 l6 -23 -7 -19 -7 -18 -18 -19 -18 -20 0 -12 0 -12 -16 -6 -16
-6 -9 0 -9 0 0 14 0 14 13 4 12 5 0 44 1 44 18 22 19 21 13 -5 12 -4 6 -24z
m272 -1 l24 -25 0 -10 0 -10 25 -23 25 -23 0 -7 0 -6 -23 0 -23 0 -22 25 -22
25 -10 0 -11 0 -26 28 -25 27 21 3 21 3 0 10 0 9 11 0 12 0 23 -26z m-176 -29
l0 -35 10 0 10 0 0 36 0 35 23 -3 22 -3 -3 -25 -2 -24 -9 -6 -9 -5 -9 -35 -9
-35 -15 0 -14 0 -3 23 -3 22 -9 0 -8 0 -7 27 -7 28 -11 7 -12 8 15 10 15 10
18 0 17 0 0 -35z m-64 -30 l6 -25 9 0 9 0 0 -20 0 -21 14 -5 14 -6 6 -14 5
-14 -79 0 -80 0 18 21 17 21 11 12 12 12 7 32 7 32 9 0 9 0 6 -25z"/>
<path d="M168 963 l13 -5 6 6 6 6 -19 -1 -19 -1 13 -5z"/>
<path d="M210 953 l15 -6 13 -14 13 -13 17 1 17 1 -15 5 -15 6 -13 14 -13 13
-17 -1 -17 -1 15 -5z"/>
<path d="M250 851 l0 -9 -24 -6 -24 -6 -5 -14 -6 -15 17 6 17 7 13 13 13 13
15 0 14 0 0 10 0 10 -15 0 -15 0 0 -9z"/>
<path d="M840 780 l0 -10 25 -6 25 -6 0 -8 0 -8 19 -5 20 -5 -6 14 -5 13 -29
6 -29 7 0 9 0 9 -10 0 -10 0 0 -10z"/>
<path d="M407 1230 l-17 -20 0 -7 0 -7 -41 -38 -41 -38 -8 0 -8 0 -16 6 -16 6
0 9 0 9 14 0 14 0 5 -12 4 -13 9 8 8 8 -14 10 -15 9 -30 -2 -30 -3 0 -15 0
-14 33 -10 32 -9 0 -7 0 -8 27 -7 27 -6 13 -17 13 -17 13 16 12 16 15 5 14 4
-22 19 -22 19 0 11 0 11 20 17 20 17 9 0 9 0 6 -15 5 -15 15 0 15 0 -5 14 -5
14 -25 6 -24 6 0 15 0 15 10 0 9 0 8 -14 8 -14 25 -5 25 -4 -12 4 -13 4 0 10
0 9 -14 0 -14 0 -5 20 -5 20 -9 0 -9 0 -17 -20z m-37 -120 l14 -9 -7 -8 -8 -7
-7 11 -7 11 -20 5 -20 5 20 1 20 1 15 -10z"/>
<path d="M533 1083 l-23 -4 0 -10 0 -9 20 0 20 0 0 9 0 10 18 4 17 5 -15 -1
-15 0 -22 -4z"/>
<path d="M688 1083 l12 -4 0 -10 0 -9 20 0 20 0 0 10 0 10 -12 0 -13 0 -20 4
-20 3 13 -4z"/>
<path d="M510 1041 l0 -9 -20 -5 -20 -5 0 -14 0 -13 10 15 9 15 43 -1 43 0
-17 4 -18 3 0 10 0 9 -15 0 -15 0 0 -9z"/>
<path d="M710 1041 l0 -10 -17 -3 -18 -4 44 0 44 1 5 -13 4 -12 9 0 9 0 0 10
0 10 -25 6 -25 6 0 9 0 9 -15 0 -15 0 0 -9z"/>
<path d="M604 986 l-6 -15 -30 -10 -30 -11 4 -12 5 -13 78 0 78 0 5 13 4 12
-30 11 -30 10 -6 15 -5 14 -16 0 -16 0 -5 -14z m40 -11 l5 -15 -5 -15 -6 -15
-13 0 -13 0 -6 15 -5 15 5 15 6 15 13 0 13 0 6 -15z m-44 -35 l0 -10 -25 0
-25 0 0 10 0 10 25 0 25 0 0 -10z m100 0 l0 -10 -25 0 -25 0 0 10 0 10 25 0
25 0 0 -10z"/>
<path d="M440 980 l0 -10 -15 0 -15 0 0 -10 0 -10 15 0 15 0 0 -10 0 -10 -11
0 -12 0 37 -35 37 -35 24 0 23 0 5 -12 4 -13 77 0 77 0 7 11 7 11 38 7 37 7 0
8 0 9 25 23 25 24 0 18 0 17 -15 0 -15 0 0 10 0 10 -21 0 -20 0 -15 -15 -15
-15 15 -15 15 -15 21 0 21 0 -11 -20 -11 -20 -14 0 -15 0 0 -9 0 -9 -45 -6
-45 -7 0 -10 0 -9 -45 0 -45 0 0 9 0 9 -42 7 -41 7 -14 12 -14 11 -16 15 -17
15 22 3 22 3 0 10 0 9 15 0 15 0 0 10 0 10 -15 0 -15 0 0 10 0 10 -20 0 -20 0
0 -10z m390 -40 l0 -10 -10 0 -10 0 0 10 0 10 10 0 10 0 0 -10z"/>
<path d="M883 953 l19 -5 -7 -25 -6 -25 16 15 15 16 0 9 0 10 -16 6 -16 6 -11
-1 -12 -1 18 -5z"/>
<path d="M343 935 l-13 -14 0 -10 0 -9 13 -5 12 -4 1 28 1 29 -1 0 -1 -1 -12
-14z"/>
<path d="M385 920 l-6 -10 6 -10 6 -10 12 0 12 0 -15 10 -15 10 15 10 15 10
-12 0 -12 0 -6 -10z"/>
<path d="M853 923 l-13 -5 0 -9 0 -9 9 0 9 0 6 15 5 15 -2 -1 -2 -1 -12 -5z"/>
<path d="M587 801 l-18 -7 56 0 56 0 -18 7 -18 8 -20 0 -20 0 -18 -8z"/>
</g>
</svg>
