<?xml version="1.0" standalone="no"?>
<!DOCTYPE svg PUBLIC "-//W3C//DTD SVG 20010904//EN"
 "http://www.w3.org/TR/2001/REC-SVG-20010904/DTD/svg10.dtd">
<svg version="1.0" xmlns="http://www.w3.org/2000/svg"
 width="468pt" height="468pt" viewBox="0 0 468 468"
 preserveAspectRatio="xMidYMid meet">
<metadata>
Created by potrace 1.8, written by Peter Selinger 2001-2007
</metadata>
<g transform="translate(0,468) scale(0.365625,-0.365625)"
fill="#000000" stroke="none">
<path d="M720 1100 l0 -20 -60 0 -60 0 0 -20 0 -20 -20 0 -20 0 0 20 0 20
-100 0 -100 0 0 -20 0 -20 -20 0 -20 0 0 -20 0 -20 -20 0 -20 0 0 -20 0 -20
-20 0 -20 0 0 -20 0 -20 -20 0 -20 0 0 -20 0 -20 -20 0 -20 0 0 -20 0 -20 20
0 20 0 0 -20 0 -20 20 0 20 0 0 -20 0 -20 40 0 40 0 0 -20 0 -20 300 0 300 0
0 20 0 20 60 0 60 0 0 20 0 20 20 0 20 0 0 60 0 60 -20 0 -20 0 0 20 0 20 -20
0 -20 0 0 20 0 20 -40 0 -40 0 0 20 0 20 -20 0 -20 0 0 20 0 20 -20 0 -20 0 0
20 0 20 -60 0 -60 0 0 -20z m80 -40 l0 -20 20 0 20 0 0 -20 0 -20 20 0 20 0 0
-20 0 -20 20 0 20 0 0 -20 0 -20 20 0 20 0 0 -20 0 -20 20 0 20 0 0 20 0 20
20 0 20 0 0 -20 0 -20 -20 0 -20 0 0 -20 0 -20 20 0 20 0 0 -20 0 -20 -20 0
-20 0 0 20 0 20 -20 0 -20 0 0 -20 0 -20 -20 0 -20 0 0 -20 0 -20 -20 0 -20 0
0 20 0 20 -20 0 -20 0 0 -20 0 -20 -20 0 -20 0 0 20 0 20 -20 0 -20 0 0 -20 0
-20 -20 0 -20 0 0 20 0 20 -20 0 -20 0 0 -20 0 -20 -20 0 -20 0 0 20 0 20 -20
0 -20 0 0 -20 0 -20 -20 0 -20 0 0 20 0 20 -20 0 -20 0 0 -20 0 -20 -100 0
-100 0 0 20 0 20 -40 0 -40 0 0 20 0 20 -20 0 -20 0 0 20 0 20 20 0 20 0 0 20
0 20 20 0 20 0 0 20 0 20 20 0 20 0 0 20 0 20 20 0 20 0 0 20 0 20 80 0 80 0
0 -20 0 -20 20 0 20 0 0 -20 0 -20 20 0 20 0 0 -20 0 -20 20 0 20 0 0 -20 0
-20 20 0 20 0 0 40 0 40 -20 0 -20 0 0 20 0 20 -20 0 -20 0 0 20 0 20 60 0 60
0 0 20 0 20 40 0 40 0 0 -20z"/>
<path d="M840 940 l0 -20 -20 0 -20 0 0 -20 0 -20 -20 0 -20 0 0 -20 0 -20
-20 0 -20 0 0 20 0 20 -20 0 -20 0 0 -20 0 -20 -20 0 -20 0 0 20 0 20 -20 0
-20 0 0 -20 0 -20 -20 0 -20 0 0 20 0 20 -20 0 -20 0 0 -20 0 -20 -20 0 -20 0
0 20 0 20 -20 0 -20 0 0 -20 0 -20 -20 0 -20 0 0 20 0 20 -20 0 -20 0 0 -20 0
-20 20 0 20 0 0 -20 0 -20 20 0 20 0 0 20 0 20 20 0 20 0 0 -20 0 -20 20 0 20
0 0 20 0 20 20 0 20 0 0 -20 0 -20 20 0 20 0 0 20 0 20 20 0 20 0 0 -20 0 -20
20 0 20 0 0 20 0 20 20 0 20 0 0 -20 0 -20 20 0 20 0 0 20 0 20 20 0 20 0 0
-20 0 -20 20 0 20 0 0 20 0 20 20 0 20 0 0 -20 0 -20 20 0 20 0 0 20 0 20 20
0 20 0 0 20 0 20 -20 0 -20 0 0 20 0 20 -20 0 -20 0 0 20 0 20 -20 0 -20 0 0
-20z m40 -40 l0 -20 20 0 20 0 0 -20 0 -20 -20 0 -20 0 0 20 0 20 -20 0 -20 0
0 -20 0 -20 -20 0 -20 0 0 20 0 20 20 0 20 0 0 20 0 20 20 0 20 0 0 -20z"/>
<path d="M240 660 l0 -20 20 0 20 0 0 20 0 20 -20 0 -20 0 0 -20z"/>
<path d="M360 640 l0 -40 20 0 20 0 0 40 0 40 -20 0 -20 0 0 -40z"/>
<path d="M480 660 l0 -20 20 0 20 0 0 20 0 20 -20 0 -20 0 0 -20z"/>
<path d="M600 640 l0 -40 20 0 20 0 0 40 0 40 -20 0 -20 0 0 -40z"/>
<path d="M720 660 l0 -20 20 0 20 0 0 20 0 20 -20 0 -20 0 0 -20z"/>
<path d="M840 640 l0 -40 20 0 20 0 0 40 0 40 -20 0 -20 0 0 -40z"/>
<path d="M960 660 l0 -20 20 0 20 0 0 20 0 20 -20 0 -20 0 0 -20z"/>
<path d="M240 580 l0 -20 20 0 20 0 0 20 0 20 -20 0 -20 0 0 -20z"/>
<path d="M480 580 l0 -20 20 0 20 0 0 20 0 20 -20 0 -20 0 0 -20z"/>
<path d="M720 580 l0 -20 20 0 20 0 0 20 0 20 -20 0 -20 0 0 -20z"/>
<path d="M960 580 l0 -20 20 0 20 0 0 20 0 20 -20 0 -20 0 0 -20z"/>
<path d="M360 540 l0 -20 20 0 20 0 0 20 0 20 -20 0 -20 0 0 -20z"/>
<path d="M600 540 l0 -20 20 0 20 0 0 20 0 20 -20 0 -20 0 0 -20z"/>
<path d="M840 540 l0 -20 20 0 20 0 0 20 0 20 -20 0 -20 0 0 -20z"/>
<path d="M360 420 l0 -20 -20 0 -20 0 0 -20 0 -20 -20 0 -20 0 0 -60 0 -60 60
0 60 0 0 -20 0 -20 -20 0 -20 0 0 -80 0 -80 260 0 260 0 0 80 0 80 -20 0 -20
0 0 20 0 20 60 0 60 0 0 60 0 60 -20 0 -20 0 0 20 0 20 -20 0 -20 0 0 20 0 20
-260 0 -260 0 0 -20z m520 -40 l0 -20 20 0 20 0 0 -40 0 -40 -60 0 -60 0 0 40
0 40 -180 0 -180 0 0 -40 0 -40 -60 0 -60 0 0 40 0 40 20 0 20 0 0 20 0 20
260 0 260 0 0 -20z m-120 -100 l0 -40 20 0 20 0 0 -20 0 -20 20 0 20 0 0 -60
0 -60 -220 0 -220 0 0 60 0 60 20 0 20 0 0 20 0 20 20 0 20 0 0 40 0 40 140 0
140 0 0 -40z"/>
<path d="M520 220 l0 -20 -20 0 -20 0 0 -20 0 -20 20 0 20 0 0 -20 0 -20 20 0
20 0 0 20 0 20 20 0 20 0 0 -20 0 -20 20 0 20 0 0 20 0 20 20 0 20 0 0 -20 0
-20 20 0 20 0 0 20 0 20 20 0 20 0 0 20 0 20 -20 0 -20 0 0 20 0 20 -20 0 -20
0 0 -20 0 -20 -20 0 -20 0 0 20 0 20 -20 0 -20 0 0 -20 0 -20 -20 0 -20 0 0
20 0 20 -20 0 -20 0 0 -20z m40 -40 l0 -20 -20 0 -20 0 0 20 0 20 20 0 20 0 0
-20z m80 0 l0 -20 -20 0 -20 0 0 20 0 20 20 0 20 0 0 -20z m80 0 l0 -20 -20 0
-20 0 0 20 0 20 20 0 20 0 0 -20z"/>
</g>
</svg>
