<?xml version="1.0" standalone="no"?>
<!DOCTYPE svg PUBLIC "-//W3C//DTD SVG 20010904//EN"
 "http://www.w3.org/TR/2001/REC-SVG-20010904/DTD/svg10.dtd">
<svg version="1.0" xmlns="http://www.w3.org/2000/svg"
 width="468pt" height="468pt" viewBox="0 0 468 468"
 preserveAspectRatio="xMidYMid meet">
<metadata>
Created by potrace 1.8, written by Peter Selinger 2001-2007
</metadata>
<g transform="translate(0,468) scale(0.365625,-0.365625)"
fill="#000000" stroke="none">
<path d="M560 1165 l0 -115 10 0 10 0 0 10 0 10 15 0 15 0 0 12 0 12 27 23 26
23 19 0 18 0 0 -45 0 -45 11 0 10 0 15 14 14 15 0 10 0 11 11 0 11 0 24 23 24
22 0 20 0 20 -24 23 -24 22 -11 0 -11 0 0 11 0 10 -14 15 -15 14 -10 0 -11 0
0 -45 0 -45 -18 0 -19 0 -26 23 -27 23 0 12 0 12 -15 0 -15 0 0 10 0 10 -10 0
-10 0 0 -115z"/>
<path d="M12 1223 l18 -4 0 -60 0 -59 -15 0 -15 0 0 -10 0 -10 60 0 60 0 0 15
0 15 30 0 30 0 0 10 0 10 -14 0 -15 0 -7 45 -6 45 -14 0 -14 0 0 -15 0 -15
-10 0 -10 0 0 -24 0 -24 13 -5 12 -4 -27 0 -28 0 0 42 0 43 12 5 13 5 -45 0
-45 0 17 -5z m75 -119 l-6 -6 -13 5 -13 5 19 1 19 1 -6 -6z"/>
<path d="M150 1200 l0 -30 9 0 9 0 6 25 6 25 15 0 15 0 0 -60 0 -60 -15 0 -15
0 0 -10 0 -10 45 0 45 0 0 10 0 10 -15 0 -15 0 0 60 0 60 15 0 15 0 0 -14 0
-14 13 -5 12 -5 -15 -11 -15 -11 18 0 17 0 0 -60 0 -60 -15 0 -15 0 0 -10 0
-10 -135 0 -135 0 0 -510 0 -510 640 0 640 0 0 535 0 535 -15 0 -15 0 0 -15 0
-15 -16 0 -17 0 6 60 5 60 -49 0 -49 0 0 -25 0 -25 -10 0 -10 0 0 25 0 25 -75
0 -75 0 0 -25 0 -25 15 0 15 0 0 10 0 10 10 0 10 0 0 -45 0 -45 -15 0 -15 0 0
-10 0 -10 -20 0 -20 0 -6 26 -7 25 7 45 6 44 -19 0 -19 0 -6 -12 -6 -13 -6 13
-6 12 -19 0 -19 0 6 -44 7 -45 -7 -25 -6 -26 -221 0 -221 0 6 16 6 16 0 14 0
14 25 0 25 0 0 9 0 9 -12 5 -13 4 -17 -5 -18 -4 0 -23 0 -23 -16 -6 -16 -6
-14 0 -14 0 0 20 0 19 15 -5 15 -6 0 31 0 31 -9 0 -10 0 -4 -17 -5 -18 -1 33
-1 32 10 0 11 0 26 -27 26 -28 -6 25 -7 25 0 8 0 7 -49 0 -49 0 -7 30 -7 30
-69 0 -69 0 0 -30z m750 -85 l0 -15 -10 0 -10 0 0 15 0 15 10 0 10 0 0 -15z
m140 5 l0 -10 14 0 14 0 5 13 5 12 1 -45 1 -45 -11 -15 -11 -15 -5 13 -5 12
-14 0 -14 0 0 45 0 45 10 0 10 0 0 -10z m150 -35 l0 -45 -15 0 -15 0 0 45 0
45 15 0 15 0 0 -45z m-290 -25 l0 -20 -10 0 -10 0 0 20 0 20 10 0 10 0 0 -20z
m230 0 l10 15 0 -15 0 -15 -10 -15 -10 -15 -10 15 -10 15 0 15 0 15 10 -15 10
-15 10 15z"/>
<path d="M406 1216 l6 -14 14 -6 14 -5 0 -15 0 -14 13 -6 12 -6 -12 -6 -13 -6
0 -14 0 -14 10 0 10 0 0 10 0 11 14 -13 14 -13 -9 -3 -9 -4 0 -9 0 -9 40 0 40
0 0 10 0 10 -15 0 -15 0 0 11 0 12 -16 11 -15 12 6 27 7 27 8 0 8 0 6 15 5 15
-64 0 -64 0 5 -14z m84 -12 l0 -16 -12 4 -12 4 -4 12 -4 12 16 0 16 0 0 -16z"/>
</g>
</svg>
