<?xml version="1.0" standalone="no"?>
<!DOCTYPE svg PUBLIC "-//W3C//DTD SVG 20010904//EN"
 "http://www.w3.org/TR/2001/REC-SVG-20010904/DTD/svg10.dtd">
<svg version="1.0" xmlns="http://www.w3.org/2000/svg"
 width="468pt" height="468pt" viewBox="0 0 468 468"
 preserveAspectRatio="xMidYMid meet">
<metadata>
Created by potrace 1.8, written by Peter Selinger 2001-2007
</metadata>
<g transform="translate(0,468) scale(0.365625,-0.365625)"
fill="#000000" stroke="none">
<path d="M600 1270 l0 -10 -19 0 -19 0 -6 -12 -6 -13 -6 13 -6 12 -19 0 -19 0
0 -10 0 -10 -50 0 -50 0 0 -10 0 -10 -28 0 -28 0 -14 -20 -14 -20 -16 0 -16 0
-14 -20 -14 -20 -13 0 -13 0 -55 -55 -55 -55 0 -21 0 -21 -30 -28 -30 -28 0
-26 0 -26 -10 0 -10 0 0 -20 0 -20 -10 0 -10 0 0 -50 0 -50 -10 0 -10 0 0
-100 0 -100 10 0 10 0 0 -50 0 -50 10 0 10 0 0 -20 0 -20 10 0 10 0 0 -26 0
-25 15 -16 16 -15 7 7 7 8 -12 4 -13 5 0 29 0 29 -10 0 -10 0 0 70 0 70 -10 0
-10 0 0 40 0 40 10 0 10 0 0 20 0 20 10 0 10 0 0 30 0 30 10 0 10 0 0 20 0 20
-20 0 -20 0 0 10 0 10 16 0 16 0 28 30 28 30 16 0 16 0 0 20 0 20 10 0 10 0 0
10 0 10 -20 0 -20 0 0 30 0 30 10 0 10 0 0 -20 0 -20 40 0 40 0 0 -18 0 -18
20 -14 20 -14 0 -58 0 -58 19 0 19 0 5 -12 4 -13 9 9 9 9 -12 4 -13 5 0 24 0
25 45 44 44 45 26 0 25 0 0 -16 0 -15 14 -15 15 -14 15 0 16 0 0 -20 0 -20 16
0 17 0 18 -21 18 -21 16 15 15 16 0 34 0 35 -12 4 -13 5 17 16 17 17 31 0 31
0 36 37 37 37 -12 4 -12 4 0 19 0 19 -10 0 -10 0 0 30 0 30 18 0 18 0 14 -20
14 -20 8 0 8 0 0 30 0 30 20 0 20 0 0 19 0 19 12 4 13 5 -17 16 -17 17 -15 0
-16 0 0 20 0 20 40 0 40 0 0 -16 0 -15 14 -15 15 -14 5 0 6 0 0 20 0 20 -10 0
-10 0 0 20 0 20 -20 0 -20 0 0 10 0 10 -60 0 -60 0 0 10 0 10 -19 0 -19 0 -6
-12 -6 -13 -6 13 -6 12 -29 0 -29 0 0 10 0 10 -20 0 -20 0 0 -10z m-500 -380
l0 -10 -10 0 -10 0 0 10 0 10 10 0 10 0 0 -10z m-20 -60 l0 -30 -10 0 -10 0 0
30 0 30 10 0 10 0 0 -30z"/>
<path d="M900 1050 l0 -30 -10 0 -10 0 0 -10 0 -10 20 0 20 0 0 40 0 40 -10 0
-10 0 0 -30z"/>
<path d="M840 990 l0 -10 10 0 10 0 0 10 0 10 -10 0 -10 0 0 -10z"/>
<path d="M800 740 l0 -20 20 0 20 0 0 20 0 20 -20 0 -20 0 0 -20z"/>
<path d="M540 730 l0 -10 10 0 10 0 0 -19 0 -19 13 -5 12 -4 -7 -8 -8 -8 -19
21 -18 22 -17 0 -16 0 0 -6 0 -6 30 -28 30 -28 0 -12 0 -11 14 -15 15 -14 15
0 16 0 0 16 0 17 -22 19 -22 19 14 10 15 11 -12 5 -13 5 0 15 0 14 -14 15 -15
14 -5 0 -6 0 0 -10z"/>
<path d="M693 685 l-33 -34 0 -11 0 -11 14 -15 15 -14 25 0 26 0 0 19 0 19 13
5 12 5 -15 11 -15 11 14 9 14 9 -16 16 -16 16 -3 -1 -3 0 -32 -34z"/>
<path d="M900 620 l0 -20 10 0 10 0 0 20 0 20 -10 0 -10 0 0 -20z"/>
<path d="M760 610 l0 -10 20 0 20 0 0 10 0 10 -20 0 -20 0 0 -10z"/>
<path d="M940 605 l0 -16 25 -24 24 -25 26 0 25 0 0 16 0 15 -14 15 -15 14
-15 0 -16 0 0 10 0 10 -20 0 -20 0 0 -15z"/>
<path d="M880 490 l0 -10 -26 0 -26 0 -28 -30 -28 -30 -16 0 -16 0 0 -10 0
-10 -20 0 -20 0 0 -40 0 -40 10 0 10 0 0 -20 0 -20 40 0 40 0 0 10 0 10 40 0
40 0 0 -20 0 -20 20 0 20 0 0 -10 0 -10 25 0 26 0 34 35 35 34 0 56 0 55 -10
0 -10 0 0 30 0 30 -20 0 -20 0 0 -20 0 -20 -6 0 -5 0 -15 14 -14 15 0 15 0 16
-30 0 -30 0 0 -10z"/>
<path d="M100 430 l0 -50 10 0 10 0 0 50 0 50 -10 0 -10 0 0 -50z"/>
<path d="M1100 250 l0 -10 10 0 10 0 0 10 0 10 -10 0 -10 0 0 -10z"/>
<path d="M1040 190 l0 -10 10 0 10 0 0 10 0 10 -10 0 -10 0 0 -10z"/>
<path d="M420 50 l0 -10 10 0 10 0 0 10 0 10 -10 0 -10 0 0 -10z"/>
<path d="M560 50 l0 -10 -50 0 -50 0 0 -10 0 -10 50 0 50 0 0 -10 0 -10 90 0
90 0 0 10 0 10 40 0 40 0 0 10 0 10 -89 0 -89 0 -6 13 -6 12 -6 -12 -6 -13
-19 0 -19 0 0 10 0 10 -10 0 -10 0 0 -10z"/>
</g>
</svg>
