<?xml version="1.0" standalone="no"?>
<!DOCTYPE svg PUBLIC "-//W3C//DTD SVG 20010904//EN"
 "http://www.w3.org/TR/2001/REC-SVG-20010904/DTD/svg10.dtd">
<svg version="1.0" xmlns="http://www.w3.org/2000/svg"
 width="468pt" height="468pt" viewBox="0 0 468 468"
 preserveAspectRatio="xMidYMid meet">
<metadata>
Created by potrace 1.8, written by Peter Selinger 2001-2007
</metadata>
<g transform="translate(0,468) scale(0.365625,-0.365625)"
fill="#000000" stroke="none">
<path d="M640 1235 l0 -15 15 0 15 0 0 15 0 15 -15 0 -15 0 0 -15z"/>
<path d="M290 1200 l0 -20 15 0 15 0 0 20 0 20 -15 0 -15 0 0 -20z"/>
<path d="M960 1200 l0 -20 15 0 15 0 0 20 0 20 -15 0 -15 0 0 -20z"/>
<path d="M640 1165 l0 -15 15 0 15 0 0 15 0 15 -15 0 -15 0 0 -15z"/>
<path d="M350 1135 l0 -15 15 0 15 0 0 -15 0 -15 20 0 20 0 0 15 0 15 -20 0
-20 0 0 15 0 15 -15 0 -15 0 0 -15z"/>
<path d="M900 1135 l0 -15 -20 0 -20 0 0 -15 0 -15 20 0 20 0 0 15 0 15 15 0
15 0 0 15 0 15 -15 0 -15 0 0 -15z"/>
<path d="M60 1105 l0 -15 20 0 20 0 0 15 0 15 -20 0 -20 0 0 -15z"/>
<path d="M540 1105 l0 -15 -30 0 -30 0 0 -15 0 -15 -15 0 -15 0 0 -20 0 -20
-15 0 -15 0 0 -15 0 -15 -20 0 -20 0 0 -15 0 -15 -15 0 -15 0 0 -30 0 -30 -15
0 -15 0 0 -115 0 -115 15 0 15 0 0 -30 0 -30 15 0 15 0 0 -15 0 -15 20 0 20 0
0 -35 0 -35 15 0 15 0 0 -30 0 -30 15 0 15 0 0 -35 0 -35 15 0 15 0 0 -140 0
-140 15 0 15 0 0 -20 0 -20 20 0 20 0 0 -15 0 -15 80 0 80 0 0 15 0 15 15 0
15 0 0 160 0 160 15 0 15 0 0 35 0 35 15 0 15 0 0 30 0 30 15 0 15 0 0 35 0
35 20 0 20 0 0 15 0 15 15 0 15 0 0 30 0 30 15 0 15 0 0 115 0 115 -15 0 -15
0 0 30 0 30 -15 0 -15 0 0 15 0 15 -20 0 -20 0 0 15 0 15 -15 0 -15 0 0 20 0
20 -15 0 -15 0 0 15 0 15 -30 0 -30 0 0 15 0 15 -100 0 -100 0 0 -15z m200
-30 l0 -15 30 0 30 0 0 -20 0 -20 15 0 15 0 0 -15 0 -15 15 0 15 0 0 -15 0
-15 20 0 20 0 0 -30 0 -30 15 0 15 0 0 -115 0 -115 -15 0 -15 0 0 -30 0 -30
-20 0 -20 0 0 -15 0 -15 -15 0 -15 0 0 -35 0 -35 -15 0 -15 0 0 -30 0 -30 -15
0 -15 0 0 -35 0 -35 -15 0 -15 0 0 -15 0 -15 -100 0 -100 0 0 15 0 15 -15 0
-15 0 0 35 0 35 -15 0 -15 0 0 30 0 30 -15 0 -15 0 0 35 0 35 -15 0 -15 0 0
15 0 15 -20 0 -20 0 0 30 0 30 -15 0 -15 0 0 115 0 115 15 0 15 0 0 30 0 30
20 0 20 0 0 15 0 15 15 0 15 0 0 15 0 15 15 0 15 0 0 20 0 20 30 0 30 0 0 15
0 15 100 0 100 0 0 -15z m-70 -770 l0 -15 35 0 35 0 0 -15 0 -15 -35 0 -35 0
0 -20 0 -20 35 0 35 0 0 -15 0 -15 -35 0 -35 0 0 -15 0 -15 35 0 35 0 0 -15 0
-15 -35 0 -35 0 0 -15 0 -15 -65 0 -65 0 0 15 0 15 65 0 65 0 0 15 0 15 -65 0
-65 0 0 15 0 15 65 0 65 0 0 15 0 15 -65 0 -65 0 0 20 0 20 65 0 65 0 0 15 0
15 -65 0 -65 0 0 15 0 15 65 0 65 0 0 -15z"/>
<path d="M700 975 l0 -15 20 0 20 0 0 15 0 15 -20 0 -20 0 0 -15z"/>
<path d="M640 945 l0 -15 15 0 15 0 0 15 0 15 -15 0 -15 0 0 -15z"/>
<path d="M770 945 l0 -15 15 0 15 0 0 15 0 15 -15 0 -15 0 0 -15z"/>
<path d="M700 915 l0 -15 20 0 20 0 0 15 0 15 -20 0 -20 0 0 -15z"/>
<path d="M770 880 l0 -20 15 0 15 0 0 20 0 20 -15 0 -15 0 0 -20z"/>
<path d="M700 845 l0 -15 20 0 20 0 0 15 0 15 -20 0 -20 0 0 -15z"/>
<path d="M830 845 l0 -15 15 0 15 0 0 15 0 15 -15 0 -15 0 0 -15z"/>
<path d="M770 815 l0 -15 15 0 15 0 0 15 0 15 -15 0 -15 0 0 -15z"/>
<path d="M830 785 l0 -15 15 0 15 0 0 15 0 15 -15 0 -15 0 0 -15z"/>
<path d="M770 755 l0 -15 15 0 15 0 0 15 0 15 -15 0 -15 0 0 -15z"/>
<path d="M830 720 l0 -20 15 0 15 0 0 20 0 20 -15 0 -15 0 0 -20z"/>
<path d="M770 685 l0 -15 15 0 15 0 0 15 0 15 -15 0 -15 0 0 -15z"/>
<path d="M700 655 l0 -15 20 0 20 0 0 15 0 15 -20 0 -20 0 0 -15z"/>
<path d="M770 625 l0 -15 15 0 15 0 0 15 0 15 -15 0 -15 0 0 -15z"/>
<path d="M700 595 l0 -15 20 0 20 0 0 15 0 15 -20 0 -20 0 0 -15z"/>
<path d="M1180 1105 l0 -15 20 0 20 0 0 15 0 15 -20 0 -20 0 0 -15z"/>
<path d="M130 1040 l0 -20 30 0 30 0 0 -15 0 -15 15 0 15 0 0 -15 0 -15 35 0
35 0 0 15 0 15 -35 0 -35 0 0 15 0 15 -15 0 -15 0 0 20 0 20 -30 0 -30 0 0
-20z"/>
<path d="M1090 1040 l0 -20 -15 0 -15 0 0 -15 0 -15 -35 0 -35 0 0 -15 0 -15
35 0 35 0 0 15 0 15 15 0 15 0 0 15 0 15 30 0 30 0 0 20 0 20 -30 0 -30 0 0
-20z"/>
<path d="M30 755 l0 -15 15 0 15 0 0 15 0 15 -15 0 -15 0 0 -15z"/>
<path d="M100 755 l0 -15 15 0 15 0 0 15 0 15 -15 0 -15 0 0 -15z"/>
<path d="M160 755 l0 -15 50 0 50 0 0 15 0 15 -50 0 -50 0 0 -15z"/>
<path d="M1020 755 l0 -15 50 0 50 0 0 15 0 15 -50 0 -50 0 0 -15z"/>
<path d="M1150 755 l0 -15 15 0 15 0 0 15 0 15 -15 0 -15 0 0 -15z"/>
<path d="M1220 755 l0 -15 15 0 15 0 0 15 0 15 -15 0 -15 0 0 -15z"/>
<path d="M260 595 l0 -15 -35 0 -35 0 0 -20 0 -20 -30 0 -30 0 0 -15 0 -15 30
0 30 0 0 15 0 15 35 0 35 0 0 20 0 20 15 0 15 0 0 15 0 15 -15 0 -15 0 0 -15z"/>
<path d="M990 595 l0 -15 15 0 15 0 0 -20 0 -20 35 0 35 0 0 -15 0 -15 30 0
30 0 0 15 0 15 -30 0 -30 0 0 20 0 20 -35 0 -35 0 0 15 0 15 -15 0 -15 0 0
-15z"/>
<path d="M60 495 l0 -15 20 0 20 0 0 15 0 15 -20 0 -20 0 0 -15z"/>
<path d="M1180 495 l0 -15 20 0 20 0 0 15 0 15 -20 0 -20 0 0 -15z"/>
<path d="M320 435 l0 -15 -15 0 -15 0 0 -20 0 -20 -15 0 -15 0 0 -15 0 -15
-20 0 -20 0 0 -15 0 -15 -15 0 -15 0 0 -15 0 -15 15 0 15 0 0 15 0 15 20 0 20
0 0 15 0 15 15 0 15 0 0 15 0 15 15 0 15 0 0 20 0 20 15 0 15 0 0 15 0 15 -15
0 -15 0 0 -15z"/>
<path d="M930 435 l0 -15 15 0 15 0 0 -20 0 -20 15 0 15 0 0 -15 0 -15 15 0
15 0 0 -15 0 -15 20 0 20 0 0 -15 0 -15 15 0 15 0 0 15 0 15 -15 0 -15 0 0 15
0 15 -20 0 -20 0 0 15 0 15 -15 0 -15 0 0 20 0 20 -15 0 -15 0 0 15 0 15 -15
0 -15 0 0 -15z"/>
<path d="M130 240 l0 -20 15 0 15 0 0 20 0 20 -15 0 -15 0 0 -20z"/>
<path d="M1120 240 l0 -20 15 0 15 0 0 20 0 20 -15 0 -15 0 0 -20z"/>
</g>
</svg>
