<?xml version="1.0" standalone="no"?>
<!DOCTYPE svg PUBLIC "-//W3C//DTD SVG 20010904//EN"
 "http://www.w3.org/TR/2001/REC-SVG-20010904/DTD/svg10.dtd">
<svg version="1.0" xmlns="http://www.w3.org/2000/svg"
 width="468pt" height="468pt" viewBox="0 0 468 468"
 preserveAspectRatio="xMidYMid meet">
<metadata>
Created by potrace 1.8, written by Peter Selinger 2001-2007
</metadata>
<g transform="translate(0,468) scale(0.365625,-0.365625)"
fill="#000000" stroke="none">
<path d="M160 1260 l0 -20 -40 0 -40 0 0 -20 0 -20 -20 0 -20 0 0 -40 0 -40
-20 0 -20 0 0 -340 0 -340 280 0 280 0 0 -220 0 -220 160 0 160 0 0 220 0 220
200 0 200 0 0 360 0 360 -20 0 -20 0 0 20 0 20 -20 0 -20 0 0 20 0 20 -20 0
-20 0 0 20 0 20 -500 0 -500 0 0 -20z m120 -80 l0 -20 20 0 20 0 0 -20 0 -20
20 0 20 0 0 40 0 40 20 0 20 0 0 -40 0 -40 20 0 20 0 0 40 0 40 340 0 340 0 0
-20 0 -20 20 0 20 0 0 -20 0 -20 20 0 20 0 0 -300 0 -300 -360 0 -360 0 0 300
0 300 -20 0 -20 0 0 -300 0 -300 -20 0 -20 0 0 300 0 300 -20 0 -20 0 0 -300
0 -300 -140 0 -140 0 0 300 0 300 20 0 20 0 0 20 0 20 20 0 20 0 0 20 0 20 60
0 60 0 0 -20z m480 -800 l0 -20 40 0 40 0 0 -140 0 -140 -120 0 -120 0 0 140
0 140 40 0 40 0 0 20 0 20 40 0 40 0 0 -20z"/>
<path d="M600 960 l0 -40 120 0 120 0 0 -120 0 -120 120 0 120 0 0 160 0 160
-240 0 -240 0 0 -40z"/>
</g>
</svg>
