<?xml version="1.0" standalone="no"?>
<!DOCTYPE svg PUBLIC "-//W3C//DTD SVG 20010904//EN"
 "http://www.w3.org/TR/2001/REC-SVG-20010904/DTD/svg10.dtd">
<svg version="1.0" xmlns="http://www.w3.org/2000/svg"
 width="468pt" height="468pt" viewBox="0 0 468 468"
 preserveAspectRatio="xMidYMid meet">
<metadata>
Created by potrace 1.8, written by Peter Selinger 2001-2007
</metadata>
<g transform="translate(0,468) scale(0.365625,-0.365625)"
fill="#000000" stroke="none">
<path d="M0 640 l0 -640 640 0 640 0 0 640 0 640 -640 0 -640 0 0 -640z m1260
250 l0 -370 -10 0 -10 0 0 -19 0 -19 13 -5 12 -5 -15 -12 -15 -12 13 -5 12 -5
0 -18 0 -18 -13 -5 -12 -5 15 -11 15 -11 -15 -10 -15 -10 15 -9 14 -10 -6 -7
-7 -6 -61 62 -62 63 -8 -14 -9 -13 -21 24 -21 24 -9 -14 -9 -14 -21 24 -21 24
-9 -13 -8 -14 -17 16 -16 17 16 16 16 16 20 -23 20 -23 9 14 8 14 32 -34 32
-34 9 15 9 14 9 -14 9 -14 17 17 17 17 -6 7 -7 6 -10 -14 -9 -15 -10 15 -10
15 -9 -14 -9 -14 -18 17 -17 18 14 8 13 9 -7 8 -8 7 -10 -14 -9 -15 -10 15
-10 15 -9 -14 -9 -14 -17 16 -16 17 16 17 17 16 9 -14 9 -14 10 15 10 15 10
-15 10 -15 11 15 11 15 5 -12 5 -13 29 0 29 0 0 -9 0 -9 -13 -5 -12 -4 8 -9 8
-8 10 14 9 15 9 -14 9 -14 16 16 16 16 0 5 0 6 -30 0 -30 0 0 10 0 10 -30 0
-30 0 0 10 0 10 -45 0 -46 0 -44 -45 -45 -44 0 -16 0 -15 -30 0 -30 0 0 10 0
10 -89 0 -89 0 -4 -12 -5 -13 -16 17 -17 17 0 11 0 12 -40 38 -40 38 0 55 0
55 -12 6 -13 6 13 6 12 6 0 18 0 18 -12 6 -13 6 13 6 12 6 0 39 0 39 -10 0
-10 0 0 30 0 30 -10 0 -10 0 0 20 0 20 9 0 9 0 5 -12 4 -13 8 7 8 7 -32 30
-31 29 0 26 0 26 9 0 9 0 5 -12 4 -13 8 7 8 8 -21 19 -22 18 0 27 0 26 -10 0
-10 0 0 15 0 16 -25 24 -24 25 -61 0 -61 0 -24 -25 -25 -24 0 -12 0 -12 -22
-18 -21 -19 8 -8 8 -7 4 13 5 12 9 0 9 0 0 -20 0 -20 -10 0 -10 0 0 -26 0 -27
-22 -18 -21 -19 6 -7 7 -6 19 21 18 22 7 0 6 0 0 -20 0 -20 9 0 9 0 5 13 4 12
8 -7 7 -7 -27 -26 -26 -27 -7 6 -6 7 14 9 14 9 -6 7 -7 6 -16 -15 -15 -16 0
-11 0 -11 -14 -15 -15 -14 -11 0 -11 0 -24 -25 -25 -24 0 -16 0 -15 -10 0 -10
0 0 -50 0 -50 -10 0 -10 0 0 -30 0 -30 -10 0 -10 0 0 -40 0 -40 -10 0 -10 0 0
-36 0 -35 14 -15 15 -14 15 0 16 0 0 -10 0 -10 50 0 50 0 0 10 0 10 -19 0 -19
0 -5 13 -5 12 -11 -15 -10 -14 -21 24 -21 24 -9 -14 -9 -14 -8 7 -7 8 14 10
15 9 -15 11 -15 11 12 5 13 5 0 49 0 49 10 0 10 0 0 30 0 30 10 0 10 0 0 50 0
50 10 0 10 0 0 16 0 15 14 15 15 14 15 0 16 0 0 10 0 10 19 0 19 0 4 12 5 13
16 -17 17 -17 0 -14 0 -15 -13 -5 -12 -4 7 -8 7 -7 16 15 15 16 0 24 0 25 -12
5 -13 4 9 9 9 9 4 -12 5 -13 9 0 9 0 0 39 0 39 -12 5 -13 5 15 11 14 10 -8 8
-9 8 -4 -12 -5 -13 -19 0 -19 0 0 30 0 30 10 0 10 0 0 46 0 45 14 15 15 14 65
0 66 0 0 -18 0 -18 -20 -14 -20 -14 0 -38 0 -38 -10 0 -10 0 0 -20 0 -20 -10
0 -10 0 0 -40 0 -40 -10 0 -10 0 0 -39 0 -39 -12 -5 -13 -4 9 -9 9 -9 4 13 5
12 9 0 9 0 0 -26 0 -25 15 -16 16 -15 7 7 7 8 -12 4 -13 5 0 28 0 28 -12 4
-12 4 37 37 36 37 16 0 15 0 0 -10 0 -10 30 0 30 0 0 -30 0 -30 10 0 10 0 0
-40 0 -40 -6 0 -5 0 -15 14 -14 15 0 15 0 16 -10 0 -10 0 0 -16 0 -16 30 -28
30 -28 0 -12 0 -11 -14 -15 -15 -14 -11 0 -11 0 -15 -14 -14 -15 0 -65 0 -66
-20 0 -20 0 0 -10 0 -10 -20 0 -20 0 0 -10 0 -10 -36 0 -37 0 -19 22 -19 22
-10 -14 -11 -15 -5 13 -5 12 -19 0 -19 0 0 10 0 10 -20 0 -20 0 0 20 0 20 10
0 10 0 0 36 0 36 41 39 41 39 -16 16 -16 15 -25 -25 -25 -25 0 -26 0 -25 -10
0 -10 0 0 -40 0 -40 -10 0 -10 0 0 -16 0 -15 14 -15 15 -14 15 0 16 0 0 -10 0
-10 20 0 20 0 0 -10 0 -10 30 0 30 0 0 -10 0 -10 40 0 40 0 0 10 0 10 20 0 20
0 0 10 0 10 40 0 40 0 0 -10 0 -10 -28 0 -28 0 -14 -20 -14 -20 -18 0 -18 0 0
-10 0 -10 -40 0 -40 0 0 10 0 10 -50 0 -50 0 0 -10 0 -10 -60 0 -60 0 0 -10 0
-10 -40 0 -40 0 0 420 0 420 620 0 620 0 0 -370z m-774 256 l14 -15 0 -24 0
-25 -12 -6 -13 -6 13 -6 12 -6 0 -28 0 -28 13 -5 12 -5 -15 -11 -15 -11 15 -9
14 -10 -6 -7 -7 -6 -17 17 -17 17 14 10 14 10 -12 5 -13 5 0 29 0 29 -6 0 -5
0 -17 -17 -17 -16 13 -5 12 -4 0 -9 0 -9 -30 0 -30 0 0 10 0 10 10 0 10 0 0
20 0 20 10 0 10 0 0 20 0 20 10 0 10 0 0 -10 0 -10 10 0 10 0 0 30 0 30 -9 0
-9 0 -5 -12 -4 -13 -8 7 -7 7 13 15 14 15 3 1 3 0 15 -14z m-63 -178 l5 -13
11 15 10 14 6 -6 7 -7 -37 -36 -36 -37 -6 6 -6 6 24 21 24 22 -12 4 -13 5 0 9
0 9 9 0 9 0 5 -12z m-163 -218 l0 -10 -10 0 -10 0 0 10 0 10 10 0 10 0 0 -10z
m300 -106 l0 -56 40 -38 40 -38 0 -11 0 -11 55 -55 55 -55 35 0 35 0 0 10 0
10 -40 0 -40 0 0 20 0 20 -20 0 -20 0 0 10 0 10 90 0 90 0 0 -20 0 -20 9 0 9
0 5 13 5 12 12 -15 12 -15 5 13 5 12 29 0 29 0 0 -10 0 -10 40 0 40 0 0 -20 0
-20 9 0 9 0 6 13 6 12 6 -12 6 -13 19 0 19 0 0 -20 0 -20 20 0 20 0 0 -20 0
-20 20 0 20 0 0 -19 0 -19 13 -5 12 -5 -15 -12 -15 -12 13 -5 12 -5 0 -18 0
-18 -12 -5 -13 -5 15 -11 15 -11 -15 -11 -15 -11 13 -5 12 -5 0 -18 0 -18 -12
-5 -13 -5 14 -10 14 -10 -17 -18 -18 -17 -9 14 -9 14 -10 -15 -10 -15 -10 15
-10 15 -10 -15 -10 -15 -10 15 -10 15 -9 -14 -9 -14 -41 42 -41 43 -30 -32
-30 -33 -20 23 -20 23 -8 -8 -7 -8 13 -4 12 -5 0 -9 0 -9 -29 0 -29 0 -5 -12
-5 -13 -11 15 -11 15 -10 -15 -10 -15 -10 15 -10 15 -10 -15 -10 -15 -10 15
-10 15 -10 -15 -10 -15 -10 15 -10 15 -10 -15 -10 -15 -10 15 -10 15 -10 -15
-10 -15 -10 15 -10 15 -10 -15 -10 -15 -10 15 -10 15 -10 -15 -10 -15 -10 15
-10 15 -10 -15 -10 -15 -10 15 -10 15 -10 -15 -10 -15 -10 15 -10 15 -10 -15
-10 -15 -10 15 -10 15 -10 -15 -10 -15 -10 15 -10 15 -10 -15 -10 -15 -10 15
-10 15 -10 -15 -10 -15 -10 15 -10 15 -10 -15 -10 -15 -10 15 -10 15 -9 -15
-10 -14 -7 6 -6 7 27 27 27 27 9 -14 9 -14 10 15 10 15 10 -15 10 -15 10 15
10 15 10 -15 10 -15 10 15 10 15 10 -15 10 -15 10 15 10 15 10 -15 10 -15 10
15 10 15 9 -15 10 -14 21 24 21 24 10 -14 9 -15 10 15 10 15 10 -15 10 -15 10
15 10 15 10 -15 10 -15 10 15 10 15 10 -15 10 -15 10 15 10 15 10 -15 10 -15
9 15 10 14 21 -23 20 -24 7 7 7 7 -13 9 -14 8 17 18 18 17 9 -14 9 -14 10 15
10 15 10 -15 10 -15 10 15 10 15 9 -15 10 -14 8 7 7 8 -13 9 -14 8 17 18 18
17 8 -14 9 -13 8 7 7 8 -14 10 -15 9 15 9 14 10 -6 7 -7 6 -41 -42 -40 -42
-16 16 -15 16 16 17 17 16 8 -13 8 -13 37 38 38 37 -14 9 -14 9 14 9 14 9 -16
17 -17 16 -17 -16 -16 -17 13 -8 13 -8 -27 -27 -27 -27 -7 6 -6 7 14 10 15 9
-15 9 -14 10 7 8 8 7 9 -14 9 -14 7 6 6 7 -27 27 -27 27 -10 -14 -10 -14 -5
13 -5 12 -29 0 -29 0 0 10 0 10 -66 0 -65 0 -15 14 -14 15 0 5 0 6 50 0 50 0
0 -10 0 -10 70 0 70 0 0 -10 0 -10 20 0 20 0 0 -10 0 -10 19 0 19 0 4 12 4 12
48 -48 48 -47 -23 -20 -23 -20 14 -10 15 -11 -12 -5 -13 -5 0 -29 0 -29 10 0
10 0 0 20 0 20 10 0 10 0 0 30 0 30 10 0 10 0 0 40 0 40 -16 0 -16 0 -28 30
-28 30 -16 0 -16 0 0 16 0 15 14 15 15 14 15 0 16 0 0 -25 0 -26 37 -36 37
-37 4 12 4 12 19 0 19 0 0 -10 0 -10 16 0 16 0 29 -31 29 -31 16 17 16 16 -6
7 -7 6 -9 -13 -8 -14 -40 41 -40 42 -25 0 -25 0 -4 -12 -4 -12 -27 26 -27 27
0 21 0 21 -14 15 -15 14 -15 0 -16 0 0 -10 0 -10 -20 0 -20 0 0 -30 0 -30 10
0 10 0 0 -10 0 -10 -20 0 -20 0 0 20 0 20 -9 0 -9 0 -4 -12 -5 -13 -18 18 -18
19 14 8 13 9 -7 7 -7 7 -19 -21 -18 -22 -47 0 -46 0 0 10 0 10 -20 0 -20 0 0
10 0 10 -20 0 -20 0 0 30 0 30 -10 0 -10 0 0 20 0 20 -20 0 -20 0 0 10 0 10
-20 0 -20 0 0 20 0 20 -9 0 -9 0 -5 -12 -4 -13 -9 8 -8 8 14 10 15 9 -15 10
-15 10 15 10 15 10 -15 10 -15 10 15 11 15 11 -12 5 -13 5 0 9 0 9 20 0 20 0
0 10 0 10 10 0 10 0 0 -56z m35 -169 l25 -24 0 -36 0 -35 -10 0 -10 0 0 -19 0
-19 -12 -5 -13 -5 14 -10 14 -10 -16 -16 -16 -16 -44 0 -45 0 -5 13 -5 12 -10
-14 -10 -14 -17 17 -17 17 6 7 7 6 9 -13 8 -14 18 17 17 18 -14 8 -13 9 22 19
22 19 0 17 0 16 -19 0 -19 0 -5 -12 -4 -13 -9 8 -8 8 14 10 15 9 -14 9 -14 9
16 16 16 16 25 0 26 0 0 10 0 10 25 0 26 0 24 -25z m-312 -47 l5 -13 12 15 12
15 5 -12 5 -13 39 0 39 0 0 10 0 10 10 0 10 0 0 -30 0 -30 10 0 10 0 0 -20 0
-20 -30 0 -30 0 0 -10 0 -10 -16 0 -15 0 -16 -15 -15 -16 7 -7 8 -7 4 13 5 12
18 0 18 0 5 13 4 12 42 -44 42 -43 7 6 6 7 -14 9 -14 9 6 7 7 6 16 -15 15 -16
0 -15 0 -16 -80 0 -80 0 0 10 0 10 -25 0 -26 0 -36 36 -36 36 14 9 14 9 -14 9
-15 9 34 32 33 31 -7 7 -7 6 -9 -14 -9 -14 -6 6 -7 7 13 15 14 15 7 1 6 0 5
-12z m-63 -18 l0 -10 -10 0 -10 0 0 -70 0 -70 9 0 9 0 5 13 4 12 30 -32 31
-33 26 0 26 0 0 -10 0 -10 80 0 80 0 0 10 0 10 110 0 110 0 0 -10 0 -10 19 0
19 0 5 -12 4 -13 8 7 7 7 -15 16 -16 15 -15 0 -16 0 0 10 0 10 -19 0 -19 0 -5
13 -5 12 -11 -15 -11 -15 -10 15 -10 15 -10 -15 -10 -15 -10 15 -10 15 -9 -15
-10 -14 -6 6 -7 7 38 37 38 38 4 -12 4 -12 69 0 69 0 0 -10 0 -10 20 0 20 0 0
-10 0 -10 19 0 19 0 5 13 4 12 9 -9 9 -9 -12 -4 -13 -5 0 -48 0 -48 -12 -5
-13 -5 15 -11 14 -10 -8 -8 -9 -8 -4 13 -5 12 -28 0 -28 0 -5 -12 -5 -13 -11
15 -11 15 -10 -15 -10 -15 -10 15 -10 15 -10 -15 -10 -15 -10 15 -10 15 -10
-15 -10 -15 -10 15 -10 15 -10 -15 -10 -15 -10 15 -10 15 -9 -15 -10 -14 -21
24 -21 24 -10 -14 -9 -15 -10 15 -10 15 -10 -15 -10 -15 -10 15 -10 15 -10
-15 -10 -15 -10 15 -10 15 -10 -15 -10 -15 -9 14 -9 14 -17 -16 -16 -17 16
-17 17 -16 9 14 9 14 10 -15 10 -15 10 15 10 15 10 -15 10 -15 10 15 10 15 10
-15 10 -15 9 14 9 14 17 -17 17 -17 -6 -7 -7 -6 -10 14 -9 15 -10 -15 -10 -15
-10 15 -10 15 -10 -15 -10 -15 -10 15 -10 15 -10 -15 -10 -15 -10 15 -10 15
-10 -15 -10 -15 -10 15 -10 15 -9 -15 -10 -14 -8 8 -8 9 13 4 12 5 0 9 0 9
-16 0 -16 0 -28 -30 -28 -30 -16 0 -16 0 0 30 0 30 10 0 10 0 0 18 0 18 20 14
20 14 0 14 0 13 -25 25 -25 25 -15 -15 -15 -15 0 -5 0 -6 20 0 20 0 0 -30 0
-30 -20 0 -20 0 0 -9 0 -9 13 -6 12 -6 -12 -6 -13 -6 0 -25 0 -26 22 -18 21
-19 -8 -8 -8 -7 -4 13 -5 12 -29 0 -29 0 0 -10 0 -10 -15 0 -16 0 -35 36 -36
35 6 6 5 6 30 -32 29 -31 12 0 11 0 16 15 15 16 -7 7 -8 7 -4 -12 -5 -13 -14
0 -15 0 -34 35 -35 34 0 15 0 14 -12 5 -13 5 15 11 15 11 -15 10 -15 10 15 9
14 10 -23 20 -24 21 23 20 23 20 -8 8 -8 7 -4 -12 -5 -13 -9 0 -9 0 0 50 0 50
9 0 9 0 5 -12 5 -13 12 15 12 15 5 -12 5 -13 9 0 9 0 0 20 0 20 60 0 60 0 0
-10z m320 -160 l0 -10 -10 0 -10 0 0 10 0 10 10 0 10 0 0 -10z m-500 -140 l0
-10 -10 0 -10 0 0 10 0 10 10 0 10 0 0 -10z m0 -80 l0 -10 -10 0 -10 0 0 10 0
10 10 0 10 0 0 -10z m1000 0 l0 -10 -10 0 -10 0 0 10 0 10 10 0 10 0 0 -10z"/>
<path d="M360 1141 l0 -19 -12 -5 -13 -4 7 -8 7 -7 16 15 15 16 0 15 0 16 -10
0 -10 0 0 -19z"/>
<path d="M420 714 l0 -25 -14 -15 -15 -14 -21 0 -21 0 -15 14 -14 15 0 15 0
16 -9 0 -9 0 -5 -12 -5 -13 -10 14 -10 14 -16 -16 -16 -16 0 -35 0 -36 10 0
10 0 0 -40 0 -40 6 0 5 0 16 16 16 16 -14 8 -13 9 23 21 24 20 -7 7 -7 7 -9
-13 -8 -14 -18 17 -17 18 14 9 14 9 -15 9 -14 10 6 7 7 6 41 -42 42 -43 10 14
10 14 5 -12 5 -13 9 0 9 0 0 18 0 18 20 14 20 14 0 28 0 28 -10 0 -10 0 0 -26z"/>
<path d="M360 690 l0 -10 10 0 10 0 0 10 0 10 -10 0 -10 0 0 -10z"/>
<path d="M280 650 l0 -10 10 0 10 0 0 10 0 10 -10 0 -10 0 0 -10z"/>
<path d="M1120 510 l0 -10 10 0 10 0 0 10 0 10 -10 0 -10 0 0 -10z"/>
<path d="M1040 470 l0 -10 10 0 10 0 0 10 0 10 -10 0 -10 0 0 -10z"/>
<path d="M1200 470 l0 -10 10 0 10 0 0 10 0 10 -10 0 -10 0 0 -10z"/>
<path d="M1200 431 l0 -9 13 -5 12 -5 -14 -10 -14 -10 17 -17 17 -17 7 6 6 7
-14 10 -15 9 14 9 14 9 -16 16 -16 16 -5 0 -6 0 0 -9z"/>
<path d="M760 430 l0 -10 10 0 10 0 0 10 0 10 -10 0 -10 0 0 -10z"/>
<path d="M800 430 l0 -10 10 0 10 0 0 10 0 10 -10 0 -10 0 0 -10z"/>
<path d="M840 430 l0 -10 10 0 10 0 0 10 0 10 -10 0 -10 0 0 -10z"/>
<path d="M880 390 l0 -10 10 0 10 0 0 10 0 10 -10 0 -10 0 0 -10z"/>
<path d="M1040 390 l0 -10 10 0 10 0 0 10 0 10 -10 0 -10 0 0 -10z"/>
<path d="M1080 350 l0 -10 10 0 10 0 0 10 0 10 -10 0 -10 0 0 -10z"/>
<path d="M1120 350 l0 -10 10 0 10 0 0 10 0 10 -10 0 -10 0 0 -10z"/>
<path d="M1080 240 l0 -40 -10 0 -10 0 0 -30 0 -30 -10 0 -10 0 0 -15 0 -16
35 -35 35 -35 16 16 16 16 -6 7 -7 6 -9 -13 -8 -14 -16 16 -16 16 0 5 0 6 49
0 49 0 5 13 5 12 11 -15 10 -14 8 7 7 8 -14 10 -15 11 13 5 12 5 0 19 0 19 10
0 10 0 0 20 0 20 -10 0 -10 0 0 -10 0 -10 -20 0 -20 0 0 10 0 10 -16 0 -16 0
-28 30 -28 30 -6 0 -6 0 0 -40z m50 -20 l14 -20 18 0 18 0 0 -16 0 -15 -14
-15 -15 -14 -15 0 -16 0 0 30 0 30 -10 0 -10 0 0 20 0 20 8 0 8 0 14 -20z
m-30 -86 l0 -5 -14 -15 -15 -14 -5 0 -6 0 0 20 0 20 20 0 20 0 0 -6z"/>
<path d="M1000 230 l0 -10 10 0 10 0 0 10 0 10 -10 0 -10 0 0 -10z"/>
<path d="M880 150 l0 -10 10 0 10 0 0 10 0 10 -10 0 -10 0 0 -10z"/>
<path d="M960 111 l0 -9 13 -5 12 -5 -15 -11 -14 -10 6 -7 7 -6 16 16 16 16
-15 15 -15 15 -5 0 -6 0 0 -9z"/>
<path d="M560 70 l0 -10 10 0 10 0 0 10 0 10 -10 0 -10 0 0 -10z"/>
<path d="M600 70 l0 -10 10 0 10 0 0 10 0 10 -10 0 -10 0 0 -10z"/>
<path d="M640 70 l0 -10 10 0 10 0 0 10 0 10 -10 0 -10 0 0 -10z"/>
<path d="M680 70 l0 -10 10 0 10 0 0 10 0 10 -10 0 -10 0 0 -10z"/>
<path d="M720 70 l0 -10 10 0 10 0 0 10 0 10 -10 0 -10 0 0 -10z"/>
<path d="M760 70 l0 -10 10 0 10 0 0 10 0 10 -10 0 -10 0 0 -10z"/>
<path d="M840 70 l0 -10 10 0 10 0 0 10 0 10 -10 0 -10 0 0 -10z"/>
<path d="M880 70 l0 -10 10 0 10 0 0 10 0 10 -10 0 -10 0 0 -10z"/>
<path d="M1160 70 l0 -10 10 0 10 0 0 10 0 10 -10 0 -10 0 0 -10z"/>
<path d="M1200 70 l0 -10 10 0 10 0 0 10 0 10 -10 0 -10 0 0 -10z"/>
<path d="M560 400 l0 -20 20 0 20 0 0 20 0 20 -20 0 -20 0 0 -20z"/>
<path d="M513 365 l-13 -14 0 -6 0 -5 30 0 30 0 0 6 0 5 -14 15 -15 14 -3 0
-3 -1 -12 -14z"/>
<path d="M500 310 l0 -10 30 0 30 0 0 10 0 10 -30 0 -30 0 0 -10z"/>
<path d="M300 410 l0 -10 10 0 10 0 0 10 0 10 -10 0 -10 0 0 -10z"/>
<path d="M120 390 l0 -10 10 0 10 0 0 10 0 10 -10 0 -10 0 0 -10z"/>
<path d="M160 390 l0 -10 10 0 10 0 0 10 0 10 -10 0 -10 0 0 -10z"/>
<path d="M40 350 l0 -10 10 0 10 0 0 10 0 10 -10 0 -10 0 0 -10z"/>
<path d="M80 350 l0 -10 10 0 10 0 0 10 0 10 -10 0 -10 0 0 -10z"/>
<path d="M120 350 l0 -10 10 0 10 0 0 10 0 10 -10 0 -10 0 0 -10z"/>
<path d="M160 350 l0 -10 10 0 10 0 0 10 0 10 -10 0 -10 0 0 -10z"/>
<path d="M80 310 l0 -10 10 0 10 0 0 10 0 10 -10 0 -10 0 0 -10z"/>
<path d="M120 310 l0 -10 10 0 10 0 0 10 0 10 -10 0 -10 0 0 -10z"/>
<path d="M160 310 l0 -10 10 0 10 0 0 10 0 10 -10 0 -10 0 0 -10z"/>
<path d="M40 270 l0 -10 10 0 10 0 0 10 0 10 -10 0 -10 0 0 -10z"/>
<path d="M80 270 l0 -10 10 0 10 0 0 10 0 10 -10 0 -10 0 0 -10z"/>
<path d="M120 270 l0 -10 10 0 10 0 0 10 0 10 -10 0 -10 0 0 -10z"/>
<path d="M160 270 l0 -10 10 0 10 0 0 10 0 10 -10 0 -10 0 0 -10z"/>
<path d="M80 230 l0 -10 10 0 10 0 0 10 0 10 -10 0 -10 0 0 -10z"/>
<path d="M120 230 l0 -10 10 0 10 0 0 10 0 10 -10 0 -10 0 0 -10z"/>
<path d="M160 230 l0 -10 10 0 10 0 0 10 0 10 -10 0 -10 0 0 -10z"/>
<path d="M80 190 l0 -10 10 0 10 0 0 10 0 10 -10 0 -10 0 0 -10z"/>
<path d="M120 190 l0 -10 10 0 10 0 0 10 0 10 -10 0 -10 0 0 -10z"/>
<path d="M160 190 l0 -10 10 0 10 0 0 10 0 10 -10 0 -10 0 0 -10z"/>
<path d="M200 190 l0 -10 10 0 10 0 0 10 0 10 -10 0 -10 0 0 -10z"/>
<path d="M80 150 l0 -10 10 0 10 0 0 10 0 10 -10 0 -10 0 0 -10z"/>
<path d="M120 150 l0 -10 10 0 10 0 0 10 0 10 -10 0 -10 0 0 -10z"/>
<path d="M160 150 l0 -10 10 0 10 0 0 10 0 10 -10 0 -10 0 0 -10z"/>
<path d="M120 110 l0 -10 10 0 10 0 0 10 0 10 -10 0 -10 0 0 -10z"/>
<path d="M160 110 l0 -10 10 0 10 0 0 10 0 10 -10 0 -10 0 0 -10z"/>
</g>
</svg>
