<?xml version="1.0" standalone="no"?>
<!DOCTYPE svg PUBLIC "-//W3C//DTD SVG 20010904//EN"
 "http://www.w3.org/TR/2001/REC-SVG-20010904/DTD/svg10.dtd">
<svg version="1.0" xmlns="http://www.w3.org/2000/svg"
 width="468pt" height="468pt" viewBox="0 0 468 468"
 preserveAspectRatio="xMidYMid meet">
<metadata>
Created by potrace 1.8, written by Peter Selinger 2001-2007
</metadata>
<g transform="translate(0,468) scale(0.365625,-0.365625)"
fill="#000000" stroke="none">
<path d="M540 1210 l0 -10 20 0 20 0 0 -10 0 -10 -20 0 -20 0 0 -16 0 -15 -14
-15 -15 -14 -15 0 -16 0 0 10 0 10 -20 0 -20 0 0 -10 0 -10 -20 0 -20 0 0 -16
0 -15 -14 -15 -15 -14 -25 0 -26 0 0 -25 0 -26 -35 -34 -34 -35 -26 0 -25 0 0
-10 0 -10 -20 0 -20 0 0 -10 0 -10 -15 0 -16 0 -24 -25 -25 -24 0 -25 0 -24
13 -6 12 -6 -12 -6 -13 -6 0 -17 0 -17 20 -14 20 -14 0 -18 0 -18 10 0 10 0 0
-28 0 -28 20 -14 20 -14 0 -27 0 -27 -12 -4 -13 -5 17 -16 17 -17 33 0 34 0
14 20 14 20 58 0 58 0 0 20 0 20 20 0 20 0 0 10 0 10 40 0 40 0 0 10 0 10 40
0 40 0 0 -10 0 -10 30 0 30 0 0 -20 0 -20 10 0 10 0 0 -20 0 -20 18 0 18 0 14
20 14 20 8 0 8 0 0 -18 0 -18 -20 -14 -20 -14 0 -8 0 -8 20 0 20 0 0 20 0 20
10 0 10 0 0 -20 0 -20 10 0 10 0 0 -15 0 -16 25 -24 24 -25 26 0 25 0 0 10 0
10 16 0 17 0 20 -22 20 -23 4 13 5 12 19 0 19 0 0 10 0 10 20 0 20 0 0 20 0
20 10 0 10 0 0 16 0 16 40 38 40 38 0 16 0 16 10 0 10 0 0 20 0 20 10 0 10 0
0 40 0 40 -10 0 -10 0 0 30 0 30 -10 0 -10 0 0 20 0 20 -10 0 -10 0 0 30 0 30
-20 0 -20 0 0 15 0 16 -25 24 -24 25 -16 0 -15 0 0 40 0 40 -10 0 -10 0 0 40
0 40 -20 0 -20 0 0 36 0 35 -14 15 -15 14 -5 0 -6 0 0 -40 0 -40 -10 0 -10 0
0 -35 0 -36 -25 -25 -26 -26 -18 21 -18 21 -17 0 -16 0 0 10 0 10 -16 0 -15 0
-16 15 -15 16 22 19 22 19 -15 16 -16 15 -15 0 -16 0 0 10 0 10 -20 0 -20 0 0
10 0 10 -20 0 -20 0 0 -10 0 -10 -20 0 -20 0 0 10 0 10 -20 0 -20 0 0 -10z
m120 -20 l0 -10 16 0 15 0 17 -17 17 -16 -13 -5 -12 -4 0 -14 0 -15 25 -24 24
-25 16 0 15 0 0 -10 0 -10 16 0 17 0 18 -22 19 -21 19 21 18 22 17 0 16 0 0
50 0 50 5 0 6 0 24 -25 25 -24 0 -26 0 -25 10 0 10 0 0 -36 0 -35 14 -15 15
-14 11 0 11 0 15 -14 14 -15 0 -13 0 -14 20 -14 20 -14 0 -18 0 -18 10 0 10 0
0 -20 0 -20 10 0 10 0 0 -30 0 -30 10 0 10 0 0 -40 0 -40 -10 0 -10 0 0 -20 0
-20 -10 0 -10 0 0 -16 0 -16 -40 -38 -40 -38 0 -12 0 -11 -25 -24 -24 -25 -15
0 -14 0 -5 -13 -4 -12 -20 22 -20 23 -17 0 -16 0 0 -10 0 -10 -26 0 -25 0 -15
14 -14 15 0 15 0 16 -10 0 -10 0 0 20 0 20 -10 0 -10 0 0 16 0 15 -15 16 -16
15 -19 -22 -19 -22 -16 15 -15 16 0 11 0 11 -14 15 -15 14 -25 0 -26 0 0 10 0
10 -40 0 -40 0 0 -10 0 -10 -40 0 -40 0 0 -10 0 -10 -18 0 -18 0 -14 -20 -14
-20 -46 0 -46 0 -14 -20 -14 -20 -38 0 -38 0 0 10 0 10 10 0 10 0 0 28 0 28
-20 14 -20 14 0 28 0 28 -10 0 -10 0 0 20 0 20 -10 0 -10 0 0 40 0 40 -10 0
-10 0 0 26 0 25 14 15 15 14 15 0 16 0 0 10 0 10 20 0 20 0 0 10 0 10 40 0 40
0 0 16 0 16 30 28 30 28 0 16 0 16 16 0 16 0 39 41 40 41 19 -22 19 -22 50 51
50 51 15 0 16 0 0 10 0 10 20 0 20 0 0 -10z"/>
<path d="M920 294 l0 -25 14 -15 15 -14 15 0 16 0 0 20 0 20 10 0 10 0 0 20 0
20 -40 0 -40 0 0 -26z m60 0 l0 -5 -14 -15 -15 -14 -5 0 -6 0 0 20 0 20 20 0
20 0 0 -6z"/>
<path d="M0 100 l0 -100 640 0 640 0 0 100 0 100 -640 0 -640 0 0 -100z"/>
</g>
</svg>
