<?xml version="1.0" standalone="no"?>
<!DOCTYPE svg PUBLIC "-//W3C//DTD SVG 20010904//EN"
 "http://www.w3.org/TR/2001/REC-SVG-20010904/DTD/svg10.dtd">
<svg version="1.0" xmlns="http://www.w3.org/2000/svg"
 width="468pt" height="468pt" viewBox="0 0 468 468"
 preserveAspectRatio="xMidYMid meet">
<metadata>
Created by potrace 1.8, written by Peter Selinger 2001-2007
</metadata>
<g transform="translate(0,468) scale(0.365625,-0.365625)"
fill="#000000" stroke="none">
<path d="M200 1201 l0 -80 -20 -6 -20 -6 0 -60 0 -59 13 0 12 -1 -16 -9 -17
-10 -70 -6 -70 -7 -4 -53 -3 -54 53 0 52 0 0 55 0 55 50 0 50 0 0 160 0 160
-5 0 -5 0 0 -79z"/>
<path d="M312 1228 l-2 -58 60 0 60 0 0 55 0 55 -50 0 -50 0 -2 -52 -1 -53 -7
55 -7 55 -1 -57z m71 35 l-13 -5 -12 5 -13 5 25 0 25 0 -12 -5z"/>
<path d="M630 1230 l0 -50 -55 0 -55 0 0 -25 0 -26 -25 -24 -24 -25 -76 0 -75
0 0 10 0 10 -37 2 -38 1 35 4 35 5 11 9 11 9 6 -6 6 -6 69 -1 70 -2 -4 7 -4 6
12 5 13 5 -12 1 -13 1 0 10 0 10 18 1 17 1 -35 13 -35 13 18 1 17 1 0 33 -1
32 -14 -19 -15 -20 0 9 0 8 17 19 16 18 -21 0 -22 0 0 -55 0 -55 -60 0 -60 0
0 -10 0 -10 -22 -1 -23 -1 25 -8 25 -8 -42 -1 -43 -1 0 72 0 71 -4 -4 -3 -4
-6 -92 -6 -93 100 0 99 0 0 -55 0 -55 -9 0 -10 0 -4 23 -4 22 -2 -22 -1 -23
-30 0 -30 0 0 -54 0 -54 -6 -16 -6 -16 -36 0 -35 0 5 -5 5 -5 74 -5 74 -5 8 0
7 0 0 -20 0 -20 -50 0 -50 0 0 20 0 20 -50 0 -50 0 0 -80 0 -80 50 0 50 0 0
55 0 55 110 0 110 0 0 -55 0 -55 35 0 35 0 1 33 1 32 9 -40 8 -40 0 -42 1 -43
-55 0 -55 0 0 -24 0 -24 -6 -16 -6 -15 -14 14 -14 14 0 70 0 71 -20 0 -20 0 0
-72 0 -73 10 -15 10 -15 0 13 0 12 10 0 10 0 0 -20 0 -20 -25 0 -25 0 0 100 0
100 50 0 50 0 0 51 0 52 -37 -7 -38 -6 -57 0 -58 0 1 -17 1 -18 5 13 5 12 64
0 64 0 0 -14 0 -14 13 -5 12 -5 -12 -1 -13 -1 0 -14 0 -13 -46 -7 -47 -6 -28
0 -28 0 -8 -14 -8 -15 -55 -4 -55 -3 58 -2 57 -2 0 -9 0 -10 18 -4 17 -5 -17
-1 -18 -1 0 -15 0 -15 -82 1 -83 2 23 4 22 4 -2 37 -1 37 -4 -33 -4 -32 -15 0
-14 0 0 30 0 30 -17 1 -18 1 27 9 27 10 4 22 4 22 2 -22 1 -23 10 0 10 0 0 50
0 50 -25 0 -25 0 0 -20 0 -20 9 0 9 0 5 13 5 12 1 -17 1 -18 -15 0 -15 0 0
-25 0 -25 -19 0 -20 0 -4 -52 -3 -53 -4 105 -4 105 -3 -52 -4 -53 -25 0 -24 0
0 22 0 21 -7 -6 -6 -7 -7 -92 -7 -93 -1 77 -2 77 -8 4 -7 5 -1 -84 0 -84 48 0
48 0 0 -19 0 -20 -52 -4 -53 -3 113 -2 112 -2 0 -55 0 -55 10 0 10 0 0 13 0
13 33 30 32 29 -27 -31 -28 -30 0 -12 0 -12 20 0 20 0 0 -22 0 -21 -17 -21
-18 -21 22 19 22 18 4 27 4 26 2 -52 1 -53 -55 0 -55 0 -2 -32 -1 -33 -7 45
-7 45 -1 -39 -2 -39 -22 -18 -21 -19 14 -1 14 -1 -25 -8 -25 -8 48 -1 47 -1 0
50 0 50 108 -2 107 -2 -52 -3 -53 -4 0 -15 0 -14 40 0 40 0 1 13 0 12 9 -20 9
-20 0 -17 1 -18 -50 0 -50 0 0 14 0 15 48 4 47 3 -72 2 -73 2 0 -30 0 -30 -17
1 -18 1 13 5 12 5 0 24 0 24 -20 0 -20 0 0 -29 0 -30 -32 -4 -33 -4 75 -3 75
-4 -75 -5 -75 -6 2 -32 3 -32 -83 -4 -82 -3 163 -2 162 -2 0 55 0 55 55 0 55
0 2 58 1 57 4 -32 4 -33 20 0 19 0 0 -74 0 -75 -32 -4 -33 -4 58 -1 57 -2 0
160 0 160 50 0 50 0 0 -49 0 -49 6 -31 7 -31 -21 0 -21 0 -4 23 -4 22 -2 -22
-1 -23 -15 0 -15 0 0 13 0 12 -10 -15 -10 -15 0 -22 0 -23 100 0 99 0 4 -57 3
-58 2 58 2 57 50 0 50 0 0 50 0 50 55 0 55 0 1 55 2 55 0 15 0 15 -2 35 -1 35
-50 0 -50 0 0 -50 0 -50 45 0 45 0 0 -50 0 -50 -55 0 -55 0 0 -30 0 -30 -20 0
-20 0 0 55 0 55 70 0 70 0 -1 18 -1 17 -5 -12 -5 -13 -64 0 -64 0 0 15 0 15
-20 0 -20 0 0 -55 0 -55 -62 2 -63 2 58 3 57 4 0 54 0 55 50 0 50 0 0 160 0
160 50 0 49 0 3 -62 3 -63 85 -2 85 -2 -12 5 -13 6 2 46 1 47 7 -45 7 -45 1
43 2 42 72 0 71 0 -4 4 -4 3 -87 6 -88 5 0 -54 0 -54 -62 2 -63 2 58 3 57 4 0
54 0 55 50 0 50 0 -2 158 -2 157 -3 -77 -4 -78 -14 0 -15 0 0 50 0 50 -24 0
-24 0 -5 -12 -5 -13 -1 18 -1 17 25 0 25 0 0 10 0 10 18 1 17 0 -20 9 -20 9
-72 0 -72 1 -4 -47 -3 -48 -2 53 -2 52 155 0 154 0 4 -57 3 -58 2 138 2 137
-10 0 -9 0 -4 -57 -3 -58 -2 58 -2 57 -35 0 -35 0 0 -30 0 -30 -30 0 -30 0 0
-35 0 -35 58 -2 57 -1 -65 -7 -65 -8 -72 -1 -73 -1 -1 98 -1 97 -8 -25 -8 -25
-1 -47 -1 -48 -14 0 -15 0 -4 -17 -5 -18 -1 23 -1 22 15 0 15 0 0 45 0 45 -65
0 -65 0 0 20 0 20 -20 0 -20 0 0 -20 0 -20 20 0 20 0 0 -20 0 -20 -25 0 -25 0
0 45 0 45 158 -2 157 -2 -47 -3 -47 -4 6 -72 6 -72 3 -4 4 -4 0 56 0 57 35 0
35 0 0 -27 0 -28 55 3 55 4 0 49 0 49 55 0 55 0 -2 58 -2 57 -3 -52 -4 -53
-55 0 -54 0 -2 -32 -1 -33 -7 45 -7 45 -1 -38 -2 -38 -14 -15 -15 -14 -13 -1
-13 0 20 -9 20 -9 -27 0 -28 -1 0 100 0 100 -15 0 -15 0 0 -35 0 -35 -40 0
-40 0 0 -15 0 -15 -80 0 -80 0 0 14 0 14 -12 5 -13 5 13 1 12 1 0 30 0 30 -19
0 -20 0 -4 -52 -3 -53 -2 53 -2 52 -25 0 -25 0 0 -80 0 -80 20 0 20 0 0 -21 0
-21 -60 4 -60 4 0 -53 0 -53 -17 1 -18 1 13 5 12 5 0 54 0 54 15 0 15 0 0 10
0 10 25 0 25 0 0 80 0 80 -20 0 -19 0 -3 -62 -3 -63 -32 -3 -32 -3 -6 -32 -5
-32 -3 -55 -3 -55 -2 73 -2 72 -10 0 -10 0 0 -80 0 -80 50 0 50 0 0 55 0 55
110 0 110 0 0 -55 0 -55 35 0 35 0 1 18 0 17 9 -20 9 -20 0 -47 1 -48 -55 0
-55 0 0 -24 0 -24 -6 -16 -6 -15 -14 14 -14 14 0 70 0 71 -20 0 -20 0 0 -72 0
-73 10 -15 10 -15 0 13 0 12 10 0 10 0 0 -20 0 -20 -25 0 -25 0 0 100 0 100
50 0 50 0 0 50 0 50 -25 0 -25 0 0 -19 0 -19 -6 -16 -6 -16 18 0 19 -1 -16 -9
-15 -9 -75 -8 -74 -8 -1 -12 -1 -13 -2 -26 -1 -26 -90 4 -90 3 -4 -10 -4 -10
-1 18 -1 17 18 0 17 0 -15 10 -15 10 13 0 12 0 0 20 0 20 25 0 25 0 0 50 0 50
-25 0 -25 0 0 -44 0 -44 -19 -5 -20 -5 -4 -53 -3 -54 -2 108 -2 107 50 0 50 0
0 50 0 50 55 0 55 0 0 55 0 55 -5 0 -5 0 0 -50z m10 -100 l0 -10 -25 0 -25 0
0 10 0 10 25 0 25 0 0 -10z m-133 -127 l-5 -18 0 30 0 30 5 -12 5 -13 -5 -17z
m206 -90 l-13 -5 -17 5 -18 5 30 0 30 0 -12 -5z m-5 -20 l-18 -4 -22 4 -23 4
40 0 40 1 -17 -5z m-105 -30 l-43 -4 -42 4 -43 4 85 0 85 0 -42 -4z m486 -105
l1 -27 -52 -4 -53 -3 58 -2 57 -2 0 40 0 40 10 0 10 0 0 -74 0 -73 -46 -7 -47
-6 -28 0 -28 0 -4 -52 -3 -53 -2 108 -2 107 55 0 55 0 1 58 1 57 9 -40 8 -40
0 -27z m-391 85 l-48 -4 0 -22 0 -22 10 15 10 15 0 -12 0 -13 35 0 35 0 0 -27
0 -28 55 3 55 4 0 49 0 49 108 -2 107 -1 -55 -7 -55 -7 30 -3 30 -3 -28 -4
-28 -4 4 -12 4 -12 19 3 19 4 20 16 20 17 -14 -17 -13 -18 21 0 21 0 0 -20 0
-20 -50 0 -51 0 3 18 3 17 -37 3 -38 3 0 -40 0 -41 -45 0 -45 0 0 -15 0 -15
13 -1 12 -1 -12 -5 -13 -5 0 -14 0 -14 -80 0 -80 0 -1 98 -2 97 -5 -25 -4 -25
-9 20 -8 20 0 -17 -1 -18 -65 0 -65 0 0 20 0 20 -20 0 -20 0 1 -22 0 -23 9 20
9 20 0 -17 1 -18 10 0 10 0 0 -20 0 -20 -25 0 -25 0 0 45 0 45 158 -2 157 -2
-47 -3z m142 -283 l0 -80 -19 0 -19 0 0 -35 0 -35 17 -1 16 -1 -17 -5 -18 -4
0 -15 0 -14 18 -1 17 -1 -17 -5 -18 -4 0 -14 0 -13 -35 -4 -35 -4 -1 11 -1 10
-5 -12 -5 -13 -14 0 -14 0 -2 33 -1 32 -4 -32 -4 -33 -14 0 -14 0 -4 -52 -3
-53 -2 108 -2 107 55 0 55 0 2 58 1 57 4 -32 4 -33 19 0 19 0 3 18 4 17 -4 18
-4 17 -17 1 -16 0 24 10 23 9 -13 16 -12 15 23 6 24 6 -20 8 -19 8 -72 0 -72
1 -4 -47 -3 -48 -2 53 -2 52 100 0 100 0 0 -80z m-450 26 l0 -4 -17 -13 -18
-14 14 18 13 17 4 0 4 0 0 -4z m633 -23 l-13 -5 -12 5 -13 5 25 0 25 0 -12 -5z
m-645 -40 l-48 -4 0 -20 0 -19 18 0 17 0 -15 -10 -15 -10 16 0 17 0 6 16 6 15
10 -6 10 -6 1 -32 2 -32 7 35 7 35 2 -30 1 -30 55 3 55 4 0 49 0 49 108 -2
107 -2 -52 -3 -53 -4 0 -15 0 -14 -24 0 -24 0 -16 -6 -16 -6 -2 -52 -1 -51 -7
55 -7 55 -1 -32 -2 -33 -32 -1 -33 -2 35 -7 35 -7 -32 -2 -33 -1 0 -15 0 -15
13 -1 12 -1 -12 -5 -13 -5 0 -14 0 -14 -80 0 -79 0 -3 98 -3 97 -9 -52 -8 -52
-32 -28 -31 -28 27 31 28 30 0 27 0 27 -11 0 -11 0 8 13 9 13 -25 -26 -25 -26
9 13 8 13 -7 0 -7 0 8 13 9 13 -25 -26 -25 -26 9 13 8 13 -7 0 -7 0 8 13 9 13
-25 -26 -25 -26 9 13 8 13 -7 0 -7 0 12 15 12 15 -3 0 -4 0 -30 -32 -30 -32
13 8 12 7 0 -10 0 -11 -25 0 -25 0 0 45 0 45 158 -2 157 -2 -47 -3z m343 -60
l0 -18 9 20 9 20 0 -22 1 -23 -50 0 -50 0 0 15 0 15 -19 0 -20 0 -4 -27 -4
-28 -2 33 -1 32 65 0 65 0 1 -17z m-204 -115 l-5 -13 0 25 0 25 5 -12 5 -13
-5 -12z m80 0 l-5 -13 0 25 0 25 5 -12 5 -13 -5 -12z m-77 -108 l0 -80 -4 0
-4 0 -16 6 -16 6 0 34 0 34 13 1 12 1 -12 5 -13 5 0 29 0 29 -74 0 -75 0 -4
-47 -3 -48 -2 53 -2 52 100 0 100 0 0 -80z m257 -17 l-4 -28 0 55 0 55 4 -27
4 -28 -4 -27z m-330 35 l-5 -13 0 25 0 25 5 -12 5 -13 -5 -12z m353 -118 l0
-20 -80 0 -80 0 0 20 0 20 80 0 80 0 0 -20z m-523 -107 l-5 -18 0 30 0 30 5
-12 5 -13 -5 -17z"/>
<path d="M860 771 l0 -30 -32 -4 -33 -4 43 -1 42 -2 0 35 0 35 -10 0 -10 0 0
-29z"/>
<path d="M993 773 l17 -4 18 4 17 5 -35 0 -35 0 18 -5z"/>
<path d="M120 500 l0 -20 14 0 14 0 11 13 11 14 -7 6 -6 7 -19 0 -18 0 0 -20z"/>
<path d="M960 1250 l0 -30 35 0 35 0 0 30 0 30 -35 0 -35 0 0 -30z"/>
<path d="M1213 1273 l17 -4 18 4 17 5 -35 0 -35 0 18 -5z"/>
<path d="M8 1220 l-3 -50 50 -2 50 -1 -55 -7 -55 -6 45 -5 45 -6 -42 -1 -43
-2 0 -10 0 -10 50 0 50 0 0 -19 0 -20 -52 -4 -53 -3 58 -2 57 -2 2 58 1 57 4
-32 4 -33 20 0 19 0 0 65 0 65 13 0 12 0 -15 10 -15 10 -72 0 -71 0 -4 -50z"/>
<path d="M1082 1193 l2 -78 3 72 4 72 17 4 17 5 -22 1 -23 1 2 -77z"/>
<path d="M502 1230 l0 -35 5 18 4 17 -4 18 -5 17 0 -35z"/>
<path d="M568 1225 l-4 -35 8 0 8 0 0 35 0 35 -4 0 -4 0 -4 -35z"/>
<path d="M258 1243 l12 -5 13 5 12 5 -25 0 -25 0 13 -5z"/>
<path d="M1100 1185 l0 -65 10 0 10 0 0 65 0 65 -10 0 -10 0 0 -65z"/>
<path d="M1225 1231 l-10 -10 -45 -4 -45 -4 46 -1 47 -2 12 15 12 15 -4 0 -4
0 -9 -9z"/>
<path d="M1239 1213 l-14 -18 18 14 17 13 0 4 0 4 -4 0 -4 0 -13 -17z"/>
<path d="M1213 1143 l17 -4 18 4 17 5 -35 0 -35 0 18 -5z"/>
<path d="M18 1093 l22 -4 23 4 22 4 -45 0 -45 0 23 -4z"/>
<path d="M220 1010 l0 -50 53 0 53 0 -4 35 -4 35 -33 0 -34 0 -4 -22 -4 -23
-2 28 -1 27 40 0 40 0 0 10 0 10 -50 0 -50 0 0 -50z"/>
<path d="M58 1033 l32 -4 28 4 27 4 -60 0 -60 0 33 -4z"/>
<path d="M452 1015 l0 -30 5 18 5 17 -5 13 -5 12 0 -30z"/>
<path d="M354 1008 l-19 -23 23 19 22 19 0 4 0 3 -3 0 -4 0 -19 -22z"/>
<path d="M120 895 l0 -55 -60 0 -60 0 0 -20 0 -20 44 0 44 0 5 13 5 12 1 -12
1 -13 26 0 25 0 15 -15 15 -14 -23 -6 -23 -5 -70 -3 -70 -3 108 -2 107 -2 0
50 0 50 55 0 55 0 -2 53 -2 52 -3 -47 -4 -48 -55 0 -54 0 0 -30 0 -30 -20 0
-20 0 0 75 0 75 -20 0 -20 0 0 -55z"/>
<path d="M228 883 l22 -4 23 4 22 4 -45 0 -45 0 23 -4z"/>
<path d="M1180 775 l0 -25 50 0 50 0 0 25 0 25 -29 0 -29 0 -5 -12 -5 -13 -1
13 -1 12 -15 0 -15 0 0 -25z"/>
<path d="M1180 690 l0 -50 45 0 45 0 0 -50 0 -50 -55 0 -55 0 0 -32 0 -33 -8
12 -8 13 -14 -20 -14 -20 -83 0 -83 0 0 10 0 10 -29 0 -29 0 -5 -12 -5 -13 -1
13 -1 12 -10 0 -10 0 0 -25 0 -25 155 0 155 0 0 50 0 50 55 0 55 0 0 74 0 75
-32 4 -33 4 33 1 32 2 0 25 0 25 -50 0 -50 0 0 -50z m-97 -247 l-43 -4 -42 4
-43 4 85 0 85 0 -42 -4z"/>
<path d="M8 663 l13 -5 6 6 6 6 -19 -1 -19 -1 13 -5z"/>
<path d="M491 593 l2 -28 4 22 4 22 32 4 32 4 -37 1 -38 2 1 -27z"/>
<path d="M878 593 l13 -5 6 6 6 6 -19 -1 -19 -1 13 -5z"/>
<path d="M918 593 l13 -5 6 6 6 6 -19 -1 -19 -1 13 -5z"/>
<path d="M1168 563 l32 -4 28 4 27 4 -60 0 -60 0 33 -4z"/>
<path d="M878 553 l13 -5 6 6 6 6 -19 -1 -19 -1 13 -5z"/>
<path d="M918 553 l13 -5 6 6 6 6 -19 -1 -19 -1 13 -5z"/>
<path d="M878 513 l13 -5 6 6 6 6 -19 -1 -19 -1 13 -5z"/>
<path d="M918 513 l13 -5 6 6 6 6 -19 -1 -19 -1 13 -5z"/>
<path d="M960 490 l0 -10 80 0 80 0 0 10 0 10 -80 0 -80 0 0 -10z"/>
<path d="M1244 479 l-6 -11 -29 6 -29 6 0 -80 0 -80 50 0 50 0 0 75 0 75 -17
1 -18 0 20 9 20 9 -17 0 -17 1 -7 -11z m-4 -54 l0 -25 -9 0 -8 0 5 25 4 25 4
0 4 0 0 -25z m3 -62 l-13 -5 -17 5 -18 5 30 0 30 0 -12 -5z"/>
<path d="M18 453 l22 -4 23 4 22 4 -45 0 -45 0 23 -4z"/>
<path d="M100 410 l-65 -7 63 -1 62 -2 0 -11 0 -11 18 13 17 14 -17 -21 -18
-21 0 -16 0 -17 -22 0 -23 0 -22 -6 -23 -6 0 -39 0 -39 -35 0 -35 0 0 -15 0
-15 53 -2 52 -2 -47 -3 -48 -4 0 -20 0 -19 35 0 35 0 2 -42 1 -43 7 45 6 45 6
-30 5 -30 2 108 1 107 50 0 50 0 0 50 0 50 -22 -2 -23 -1 -65 -7z"/>
<path d="M1056 318 l-8 -107 6 -46 7 -45 -53 1 -53 2 28 4 27 4 0 15 0 14 15
0 15 0 0 80 0 80 -25 0 -25 0 -1 43 -1 42 -4 -15 -4 -15 -8 -92 -8 -93 8 0 8
0 0 20 0 20 9 0 8 0 -5 -25 -4 -25 -13 0 -13 0 -4 -10 -3 -10 -47 -1 -48 -2 0
-79 0 -78 50 0 50 0 0 55 0 55 110 0 110 0 0 -55 0 -55 50 0 50 0 -1 103 -2
102 -4 -24 -5 -24 -8 13 -8 14 -11 -35 -11 -34 4 27 3 28 -13 0 -13 0 -6 -10
-6 -10 -14 0 -14 0 5 18 5 17 -15 -25 -15 -25 -1 18 0 17 -10 0 -11 0 -5 -15
-6 -15 -17 -1 -16 0 20 -9 20 -9 -27 0 -28 -1 0 45 0 45 108 2 107 2 -82 3
-83 4 0 9 0 9 -17 4 -18 5 16 1 16 1 -8 46 -9 46 6 9 5 9 7 0 8 0 -4 -42 -4
-43 6 6 7 7 8 63 8 64 2 -47 1 -47 10 -6 10 -6 0 55 0 56 -17 0 -18 0 -22 -6
-23 -6 1 -22 1 -21 5 18 4 17 10 0 9 0 0 -12 0 -11 -17 -19 -17 -19 -5 -62 -6
-62 -5 105 -5 105 -9 -107z m-43 -75 l-13 -5 -12 5 -13 5 25 0 25 0 -12 -5z
m-13 -93 l0 -10 -20 0 -20 0 0 10 0 10 20 0 20 0 0 -10z"/>
<path d="M130 376 l-11 -15 -27 -4 -27 -4 26 -2 26 -1 18 20 18 20 -5 0 -6 0
-12 -14z"/>
<path d="M7 313 l-7 -6 0 -29 0 -28 30 0 30 0 0 35 0 35 -23 0 -24 0 -6 -7z"/>
<path d="M122 233 l2 -78 3 52 4 51 14 12 15 12 0 14 0 14 -20 0 -20 0 2 -77z"/>
<path d="M553 250 l0 -55 4 28 4 27 -4 28 -4 27 0 -55z"/>
<path d="M1214 268 l-19 -23 23 19 22 19 0 4 0 3 -3 0 -4 0 -19 -22z"/>
<path d="M147 263 l-7 -6 0 -49 0 -48 10 0 10 0 0 55 0 55 -3 0 -4 0 -6 -7z"/>
<path d="M930 251 l0 -10 -52 -4 -53 -3 58 -2 57 -2 0 15 0 15 -5 0 -5 0 0 -9z"/>
<path d="M578 213 l13 -5 6 6 6 6 -19 -1 -19 -1 13 -5z"/>
<path d="M1080 180 l0 -20 20 0 20 0 0 20 0 20 -20 0 -20 0 0 -20z"/>
<path d="M540 50 l0 -50 56 0 55 0 -6 10 -6 10 -40 0 -39 0 0 30 0 30 40 0 40
0 0 10 0 10 -50 0 -50 0 0 -50z"/>
<path d="M800 81 l0 -19 -15 -12 -15 -12 1 -22 1 -21 5 20 5 20 9 10 9 9 0
-27 0 -27 25 0 25 0 0 50 0 50 -25 0 -25 0 0 -19z"/>
<path d="M1113 85 l-13 -14 1 -23 1 -23 8 25 8 25 1 -32 1 -32 -27 -4 -28 -4
53 -2 52 -1 0 50 0 50 -22 0 -23 -1 -12 -14z m34 -47 l-5 -13 0 25 0 25 5 -12
5 -13 -5 -12z"/>
<path d="M121 64 l1 -19 5 13 5 13 -6 6 -6 6 1 -19z"/>
<path d="M1010 60 l0 -20 -15 0 -15 0 1 -22 1 -23 5 18 4 17 15 0 14 0 0 19 0
20 33 4 32 4 -37 1 -38 2 0 -20z"/>
<path d="M570 50 l0 -20 34 0 34 0 5 13 5 12 11 -15 11 -15 0 16 0 17 -22 6
-23 6 -27 0 -28 0 0 -20z"/>
<path d="M713 35 l0 -40 4 23 4 22 -4 18 -5 17 1 -40z"/>
</g>
</svg>
