<?xml version="1.0" standalone="no"?>
<!DOCTYPE svg PUBLIC "-//W3C//DTD SVG 20010904//EN"
 "http://www.w3.org/TR/2001/REC-SVG-20010904/DTD/svg10.dtd">
<svg version="1.0" xmlns="http://www.w3.org/2000/svg"
 width="468pt" height="468pt" viewBox="0 0 468 468"
 preserveAspectRatio="xMidYMid meet">
<metadata>
Created by potrace 1.8, written by Peter Selinger 2001-2007
</metadata>
<g transform="translate(0,468) scale(0.365625,-0.365625)"
fill="#000000" stroke="none">
<path d="M330 1271 l0 -10 -55 -6 -55 -7 0 -8 0 -8 -45 -6 -45 -7 0 -10 0 -9
-16 0 -17 0 -34 -37 -35 -36 -5 -34 -6 -33 -8 0 -9 0 0 -11 0 -11 28 -28 27
-29 11 -13 10 -13 7 -17 6 -18 11 0 10 0 0 -10 0 -10 -25 0 -25 0 0 -9 0 -9
-20 -5 -20 -5 0 -25 0 -25 30 -7 30 -7 0 -9 0 -9 20 0 20 0 19 -19 19 -19 7
-21 6 -21 12 -1 12 -2 50 3 50 2 5 8 5 7 48 7 47 7 0 9 0 8 29 7 30 6 3 22 3
22 23 3 22 3 0 -25 0 -26 -25 -6 -25 -6 0 -8 0 -8 -30 -7 -30 -7 0 -8 0 -8
-90 -8 -90 -7 0 -8 0 -9 25 0 25 0 0 -9 0 -9 -16 -6 -16 -6 -38 6 -39 6 -26
-6 -25 -6 0 -15 0 -15 9 0 10 0 7 -22 7 -23 34 -33 34 -32 4 0 4 0 -5 15 -6
14 -19 6 -19 6 0 9 0 8 39 7 39 6 36 -6 36 -7 0 -23 0 -24 -20 -6 -20 -6 0
-10 0 -9 -15 0 -15 0 0 12 0 11 -5 -5 -5 -5 6 -16 6 -16 16 -4 17 -5 -142 -1
-143 -1 0 -230 0 -230 640 0 640 0 0 230 0 230 -302 1 -303 1 -165 -1 -165 -1
15 7 15 6 17 20 17 19 80 3 80 2 18 -23 18 -24 13 0 12 0 -5 22 -5 23 9 14 9
13 44 5 45 5 8 -12 8 -13 -18 -13 -19 -14 6 -6 6 -6 21 21 21 21 0 9 0 10 16
15 15 16 24 0 24 0 6 19 6 20 30 6 31 7 19 19 19 19 0 19 0 20 15 15 15 15 0
5 0 6 20 20 20 20 10 0 10 0 0 9 0 10 28 4 27 4 -27 2 -28 1 0 25 0 25 -32 2
-33 1 -27 -2 -28 -2 0 5 0 5 30 31 30 31 0 16 0 16 -25 23 -25 23 0 20 0 20
28 4 27 4 -28 2 -29 1 -5 -20 -5 -19 -32 6 -31 6 -7 10 -6 10 -39 -1 -38 -2
-3 -10 -4 -10 -12 0 -13 0 -27 -25 -26 -24 0 -14 0 -15 14 -5 14 -6 -5 20 -6
20 24 22 24 22 71 -1 72 0 31 -31 31 -31 0 -16 0 -16 -20 -20 -20 -20 -11 0
-10 0 -28 -30 -27 -30 -20 1 -19 2 -16 -1 -16 -2 1 -45 0 -44 -8 -8 -7 -7 -10
14 -10 15 2 -15 1 -15 -1 -12 -1 -12 -35 -7 -35 -6 0 -9 0 -9 -15 0 -15 0 0
-9 0 -9 -30 -7 -30 -7 0 -9 0 -9 -25 0 -25 0 0 11 0 10 -17 -16 -17 -17 -38 5
-38 5 0 -16 0 -17 -11 15 -11 15 -5 -12 -5 -13 -23 0 -23 0 -6 -12 -6 -13 5
22 6 21 -31 7 -30 7 0 13 0 14 13 -3 12 -3 -7 4 -8 5 0 9 0 9 19 0 19 0 6 -12
6 -13 -6 23 -5 22 15 0 16 0 0 -12 0 -13 8 11 7 11 33 8 32 7 0 8 0 8 25 6 25
6 20 17 20 17 0 17 0 17 -6 16 -6 16 -49 6 -49 7 0 7 0 7 -40 7 -40 6 0 21 0
20 14 14 14 14 26 7 26 6 0 9 0 9 25 0 25 0 0 9 0 10 -20 6 -20 6 -20 -6 -20
-6 0 -20 0 -19 -9 0 -10 0 -6 19 -5 18 6 17 6 16 35 0 36 0 23 -25 23 -25 6 0
5 0 0 11 0 10 -16 16 -15 16 -45 5 -45 5 -19 -21 -20 -21 0 -11 0 -10 10 0 10
0 0 -11 0 -10 -15 -15 -15 -15 0 -26 0 -25 20 -5 20 -5 0 -9 0 -9 20 0 20 0 0
-14 0 -15 -20 -6 -20 -6 0 -10 0 -9 -14 0 -14 0 -4 -10 -3 -9 -67 -7 -66 -7
-26 7 -26 6 0 10 0 10 25 0 25 0 0 10 0 10 23 0 23 0 17 20 17 20 0 15 0 15
-9 0 -10 0 -6 20 -6 20 -42 1 -42 1 18 5 17 4 0 15 0 14 -9 0 -10 0 -6 20 -6
20 -35 0 -34 0 0 -10 0 -10 -14 0 -14 0 -4 13 -5 12 4 12 4 12 34 7 34 6 5 15
6 15 -26 -6 -26 -7 -15 -14 -14 -15 -20 0 -19 0 0 16 0 16 20 5 20 5 0 9 0 9
15 0 15 0 0 9 0 9 35 6 35 7 0 9 0 10 -15 0 -15 0 0 -9 0 -9 -35 -6 -35 -7 0
-9 0 -10 -15 0 -15 0 0 10 0 10 10 0 10 0 0 15 0 15 14 0 13 0 18 24 18 24 39
6 38 6 0 9 0 8 42 7 42 7 8 12 7 12 216 0 216 -1 7 -11 7 -11 40 -8 40 -7 5
-8 5 -7 26 -7 26 -6 16 15 16 16 35 0 36 0 0 -10 0 -10 -10 0 -10 0 0 -11 0
-12 22 -18 21 -19 -26 0 -27 0 0 -9 0 -8 -47 -6 -47 -5 -4 -11 -4 -11 -14 0
-14 0 0 -10 0 -10 15 0 15 0 0 10 0 10 15 0 15 0 0 10 0 10 49 0 50 0 15 15
15 16 -5 14 -6 15 -9 0 -9 0 0 15 0 15 15 0 15 0 0 10 0 10 50 0 50 0 0 -9 0
-10 18 -4 17 -5 -17 -1 -18 -1 0 -10 0 -10 -15 0 -15 0 -20 -20 -20 -20 0 -16
0 -15 14 -15 15 -14 10 0 11 0 0 10 0 10 -16 0 -15 0 3 28 3 27 23 3 22 3 0
10 0 9 45 0 45 0 0 -9 0 -9 25 -6 25 -6 0 -11 0 -10 -14 -15 -15 -14 -34 0
-35 0 -4 13 -5 12 4 13 5 12 18 0 18 0 5 -12 5 -13 1 12 1 12 -10 6 -10 6 -30
-6 -30 -7 0 -14 0 -14 9 0 10 0 6 -19 6 -19 31 -6 32 -6 23 26 23 27 0 11 0
12 -20 17 -20 17 -10 0 -10 0 0 10 0 10 -14 0 -15 0 -17 18 -18 17 -179 2
-180 1 -7 12 -7 12 -67 5 -66 6 0 8 0 9 -150 0 -150 0 0 -9z m-170 -300 l0 -9
-16 -6 -16 -6 6 -15 5 -15 -8 0 -9 0 -16 6 -16 6 0 24 0 24 35 0 35 0 0 -9z
m-50 -110 l0 -9 -16 -6 -16 -6 -14 0 -14 0 0 15 0 15 30 0 30 0 0 -9z m920
-26 l0 -15 -9 0 -9 0 -6 -24 -6 -25 -20 -6 -20 -6 0 -14 0 -14 -14 -14 -14
-14 -4 -24 -3 -24 -20 -4 -20 -3 -8 -12 -9 -11 6 25 6 25 0 12 0 12 20 6 20 6
0 15 0 14 20 17 20 17 0 17 0 17 10 5 11 6 -13 -3 -13 -3 -4 -18 -3 -18 -24
-22 -24 -22 0 -11 0 -10 -15 -6 -15 -5 0 -21 0 -20 -9 0 -8 0 -6 -30 -6 -30
-11 0 -10 0 0 30 0 30 9 0 8 0 6 36 6 36 26 23 25 24 0 16 0 15 -10 0 -10 0 0
-18 0 -18 -20 -17 -20 -17 0 -15 0 -15 -9 0 -10 0 -6 -55 -7 -55 -9 0 -9 0 0
25 0 25 -10 0 -10 0 0 14 0 15 -16 15 -15 16 9 0 10 0 6 25 6 25 10 0 10 0 0
30 0 30 40 0 40 0 0 9 0 10 33 4 32 4 48 1 47 2 0 -15z m-570 -10 l0 -15 -9 0
-10 0 -6 -19 -6 -20 -32 -7 -32 -7 -6 -9 -6 -9 -89 -3 -89 -3 48 4 47 4 0 8 0
8 51 7 51 7 13 12 12 13 7 22 7 22 25 0 24 0 0 -15z m308 -197 l3 -28 -15 0
-16 0 0 -10 0 -10 -30 0 -30 0 0 10 0 10 -11 0 -10 0 -15 14 -14 15 0 10 0 10
18 4 17 5 50 -1 50 -2 3 -27z m-578 12 l0 -10 15 0 14 0 -5 -15 -6 -15 -33 0
-33 0 -6 16 -6 16 0 9 0 9 30 0 30 0 0 -10z m356 -52 l-3 -33 4 19 5 19 13 14
14 13 7 0 7 0 18 -21 18 -21 -6 -14 -5 -14 -19 -1 -19 -1 -20 0 -20 0 -10 1
-10 1 0 20 0 21 13 14 12 14 2 1 2 0 -3 -32z m-56 -12 l0 -24 15 -6 15 -5 0
-11 0 -10 -40 0 -40 0 0 10 0 10 -15 0 -15 0 0 15 0 16 30 6 30 6 0 8 0 9 10
0 10 0 0 -24z m-97 -3 l-13 -5 0 -13 0 -13 13 -5 12 -4 -7 -8 -7 -7 -16 15
-15 16 0 9 0 10 13 5 12 5 10 0 10 0 -12 -5z"/>
<path d="M880 1180 l0 -10 19 0 19 0 6 -15 5 -15 11 0 10 0 0 15 0 15 -15 0
-15 0 0 10 0 10 -20 0 -20 0 0 -10z"/>
<path d="M330 1161 l0 -10 -42 -3 -43 -3 103 0 103 0 7 -11 7 -11 43 -7 44 -7
34 7 34 6 0 9 0 9 -20 0 -20 0 0 -10 0 -10 -30 0 -30 0 0 10 0 9 -60 7 -60 7
0 8 0 9 -35 0 -35 0 0 -9z"/>
<path d="M300 1100 l0 -10 29 0 29 0 4 -9 3 -8 65 -6 65 -5 -17 5 -18 4 0 10
0 9 -30 0 -30 0 0 10 0 10 -50 0 -50 0 0 -10z"/>
<path d="M980 1100 l0 -10 11 0 10 0 15 -14 14 -15 0 -10 0 -11 -40 -6 -40 -7
0 -8 0 -9 25 0 25 0 0 10 0 10 15 0 15 0 0 -10 0 -10 -10 0 -10 0 0 -24 0 -24
15 -6 15 -5 0 -16 0 -15 -15 0 -15 0 0 -10 0 -10 -15 0 -15 0 0 -10 0 -10 15
0 15 0 0 10 0 10 15 0 15 0 0 10 0 10 49 0 49 0 6 -16 6 -16 -6 -9 -5 -9 -37
1 -37 2 23 4 22 4 0 10 0 9 -19 0 -19 0 -5 -12 -4 -13 5 -12 4 -13 29 0 29 0
20 20 20 20 -17 20 -17 20 -33 0 -33 0 0 9 0 9 -20 5 -20 5 0 24 0 23 8 12 7
11 28 7 27 7 45 -6 45 -7 0 -25 0 -24 -20 0 -20 0 0 -10 0 -10 -26 0 -25 0
-15 14 -14 15 0 5 0 5 25 4 25 4 -27 -1 -26 -1 -4 -11 -4 -12 16 -16 16 -16
30 0 29 0 0 -10 0 -10 19 0 19 0 16 -6 16 -6 0 -19 0 -19 -10 0 -10 0 0 -14 0
-14 -30 -7 -30 -7 0 -8 0 -9 -17 -5 -18 -5 39 5 38 5 24 26 24 26 0 24 0 24
-15 5 -15 6 0 9 0 9 25 6 24 6 6 19 6 19 10 0 9 0 0 10 0 10 -20 20 -20 20
-10 0 -10 0 0 -10 0 -10 14 0 15 0 6 -10 6 -10 -6 -20 -6 -20 -10 0 -10 0 -15
-15 -15 -15 -27 1 -27 2 22 4 23 4 6 25 6 24 -6 15 -5 15 -20 0 -19 0 -4 9 -3
10 -26 6 -26 6 -16 -15 -16 -16 -10 0 -11 0 0 13 0 14 -19 21 -18 22 -12 0
-11 0 0 -10z"/>
<path d="M558 1033 l-18 -4 0 -10 0 -9 15 0 15 0 0 9 0 10 18 4 17 5 -15 0
-15 0 -17 -5z"/>
<path d="M517 1003 l-7 -6 0 -19 0 -18 21 0 21 0 -6 16 -6 16 0 9 0 9 -8 0 -9
0 -6 -7z"/>
<path d="M578 1003 l-28 -4 0 -10 0 -9 25 0 25 0 0 9 0 10 18 4 17 5 -15 -1
-15 0 -27 -4z"/>
<path d="M756 989 l-18 -22 13 -8 14 -9 9 0 9 0 24 -27 25 -26 7 12 8 12 -3
22 -2 22 -1 8 -1 7 -25 0 -25 0 0 -10 0 -10 -16 0 -16 0 6 16 6 16 0 4 0 4 36
0 35 0 15 -14 14 -15 0 -9 0 -10 -12 -5 -13 -4 8 -9 8 -8 9 14 10 15 0 12 0
12 -16 15 -15 16 -37 0 -38 0 -18 -21z"/>
<path d="M583 953 l17 -5 13 5 12 5 -30 0 -30 0 18 -5z"/>
<path d="M660 940 l0 -10 10 0 10 0 0 10 0 10 -10 0 -10 0 0 -10z"/>
<path d="M660 910 l0 -10 10 0 10 0 0 10 0 10 -10 0 -10 0 0 -10z"/>
<path d="M760 913 l0 -8 9 -14 9 -14 16 16 16 16 0 5 0 6 -25 0 -25 0 0 -7z"/>
<path d="M630 860 l0 -10 10 0 10 0 0 10 0 10 -10 0 -10 0 0 -10z"/>
<path d="M630 830 l0 -10 10 0 10 0 0 10 0 10 -10 0 -10 0 0 -10z"/>
<path d="M630 800 l0 -10 10 0 10 0 0 10 0 10 -10 0 -10 0 0 -10z"/>
<path d="M600 780 l0 -10 10 0 10 0 0 10 0 10 -10 0 -10 0 0 -10z"/>
<path d="M660 780 l0 -10 10 0 10 0 0 10 0 10 -10 0 -10 0 0 -10z"/>
<path d="M600 750 l0 -10 10 0 10 0 0 10 0 10 -10 0 -10 0 0 -10z"/>
<path d="M660 750 l0 -10 10 0 10 0 0 10 0 10 -10 0 -10 0 0 -10z"/>
<path d="M470 720 l0 -10 10 0 10 0 0 10 0 10 -10 0 -10 0 0 -10z"/>
<path d="M600 720 l0 -10 10 0 10 0 0 10 0 10 -10 0 -10 0 0 -10z"/>
<path d="M660 720 l0 -10 10 0 10 0 0 10 0 10 -10 0 -10 0 0 -10z"/>
<path d="M410 690 l0 -10 10 0 10 0 0 10 0 10 -10 0 -10 0 0 -10z"/>
<path d="M470 690 l0 -10 10 0 10 0 0 10 0 10 -10 0 -10 0 0 -10z"/>
<path d="M600 690 l0 -10 10 0 10 0 0 10 0 10 -10 0 -10 0 0 -10z"/>
<path d="M380 670 l0 -10 10 0 10 0 0 10 0 10 -10 0 -10 0 0 -10z"/>
<path d="M440 670 l0 -10 10 0 10 0 0 10 0 10 -10 0 -10 0 0 -10z"/>
<path d="M380 640 l0 -10 10 0 10 0 0 10 0 10 -10 0 -10 0 0 -10z"/>
<path d="M440 640 l0 -10 10 0 10 0 0 10 0 10 -10 0 -10 0 0 -10z"/>
<path d="M680 480 l0 -10 10 0 10 0 0 10 0 10 -10 0 -10 0 0 -10z"/>
</g>
</svg>
