<?xml version="1.0" standalone="no"?>
<!DOCTYPE svg PUBLIC "-//W3C//DTD SVG 20010904//EN"
 "http://www.w3.org/TR/2001/REC-SVG-20010904/DTD/svg10.dtd">
<svg version="1.0" xmlns="http://www.w3.org/2000/svg"
 width="468pt" height="468pt" viewBox="0 0 468 468"
 preserveAspectRatio="xMidYMid meet">
<metadata>
Created by potrace 1.8, written by Peter Selinger 2001-2007
</metadata>
<g transform="translate(0,468) scale(0.365625,-0.365625)"
fill="#000000" stroke="none">
<path d="M690 1271 l0 -8 65 -6 64 -6 21 -21 20 -20 0 -44 0 -44 -16 -6 -16
-6 -14 0 -14 0 -28 30 -29 30 -12 0 -11 0 0 10 0 10 15 0 15 0 0 -10 0 -10 15
0 15 0 0 -15 0 -15 9 0 9 0 4 12 4 11 -4 29 -4 28 -24 6 -24 6 0 9 0 9 -25 0
-25 0 0 -15 0 -15 15 0 15 0 0 -9 0 -9 -17 -4 -18 -4 -17 4 -18 3 0 10 0 9 15
0 15 0 0 14 0 14 -16 6 -17 6 -18 -5 -19 -6 -1 -12 -1 -12 1 -12 2 -13 -16 0
-16 0 -5 -15 -6 -15 -8 0 -9 0 -6 21 -7 21 -19 19 -19 19 -80 0 -80 0 -21 -21
-21 -21 -5 -38 -5 -39 6 -35 7 -36 24 -6 25 -6 0 -9 0 -9 -11 0 -10 0 -15 -15
-15 -15 -14 0 -13 0 -7 27 -6 27 -21 18 -21 18 -73 0 -72 0 -31 -31 -31 -31 0
-14 0 -14 -10 0 -10 0 0 -40 0 -40 10 0 10 0 0 -15 0 -15 20 -17 20 -17 0 -8
0 -8 -30 0 -30 0 0 -420 0 -420 640 0 640 0 0 420 0 420 -135 0 -135 0 0 10 0
10 9 0 10 0 15 16 16 15 0 25 0 24 10 0 10 0 0 30 0 30 -10 0 -10 0 0 22 0 22
-27 23 -26 23 -14 0 -13 0 0 10 0 10 10 0 11 0 12 -10 12 -10 28 -25 27 -24 0
-15 0 -14 6 -16 6 -16 65 0 65 0 29 29 29 29 0 72 0 71 -26 24 -27 25 -66 0
-67 0 -18 -21 -18 -22 -5 -38 -6 -39 -8 0 -9 0 0 30 0 30 10 0 10 0 0 24 0 24
-34 6 -35 7 -3 9 -3 10 -53 7 -52 6 0 8 0 9 -90 0 -90 0 0 -9z m-30 -31 l0
-10 -4 0 -4 0 -18 -7 -18 -7 14 17 15 16 8 1 7 0 0 -10z m-160 -85 l0 -33 -12
-5 -13 -4 -12 5 -13 4 0 24 0 24 10 0 10 0 0 15 0 14 15 -5 15 -6 0 -33z m170
25 l0 -10 -15 0 -15 0 0 10 0 10 15 0 15 0 0 -10z m555 -40 l7 -30 -7 -30 -7
-30 -8 0 -8 0 -7 30 -7 30 7 30 7 30 8 0 8 0 7 -30z m-615 10 l0 -10 -15 0
-15 0 0 10 0 10 15 0 15 0 0 -10z m80 0 l0 -10 -25 0 -25 0 0 10 0 10 25 0 25
0 0 -10z m62 -40 l30 -30 -9 0 -9 0 -17 20 -17 20 -15 0 -15 0 0 10 0 10 11 0
11 0 30 -30z m-307 -19 l-6 -11 -10 0 -10 0 13 14 13 14 4 -3 3 -4 -7 -10z
m179 7 l13 -12 -13 -13 -13 -13 -30 -6 -31 -6 0 -9 0 -9 -49 0 -49 0 -6 15 -5
15 14 0 15 0 0 9 0 9 30 7 30 7 0 9 0 9 40 0 41 0 13 -12z m316 2 l0 -10 -25
0 -25 0 0 10 0 10 25 0 25 0 0 -10z m30 0 l0 -10 -10 0 -10 0 0 10 0 10 10 0
10 0 0 -10z m-136 -24 l-6 -14 -14 -6 -14 -5 0 -21 0 -20 -10 0 -10 0 0 -19 0
-19 13 -6 12 -6 -12 -6 -13 -6 0 -14 0 -14 10 0 10 0 0 -15 0 -15 20 -17 20
-17 0 -8 0 -8 -305 0 -305 0 0 9 0 10 20 6 20 6 1 22 1 22 5 -12 5 -13 24 0
24 0 0 -10 0 -10 125 0 125 0 0 10 0 10 20 0 20 0 0 9 0 9 40 7 40 7 0 8 0 9
28 4 27 4 -33 -1 -33 -2 4 15 3 16 32 -3 32 -2 0 26 0 25 36 35 37 34 3 0 3 0
-5 -14z m-424 -6 l0 -10 -4 0 -4 0 -18 -7 -18 -7 14 17 15 16 8 1 7 0 0 -10z
m560 0 l0 -10 -10 0 -10 0 0 10 0 10 10 0 10 0 0 -10z m-30 -30 l0 -10 -10 0
-10 0 0 10 0 10 10 0 10 0 0 -10z m66 -15 l6 -25 9 0 9 0 0 -30 0 -30 -9 0 -9
0 -6 -25 -6 -25 -10 0 -10 0 -6 25 -6 25 -9 0 -9 0 0 30 0 30 9 0 9 0 6 25 6
25 10 0 10 0 6 -25z m-782 -11 l6 -16 0 -8 0 -8 -21 -5 -21 -6 4 -13 5 -13 16
-3 17 -3 -6 15 -6 16 27 0 28 0 25 -27 26 -28 125 0 124 0 5 13 4 12 15 0 14
0 -15 15 -15 15 -30 6 -31 7 0 8 0 9 -90 0 -90 0 0 -9 0 -9 -19 -5 -20 -5 6
14 5 14 23 6 24 6 107 -4 107 -3 5 -12 4 -13 12 0 12 0 15 -18 15 -18 -13 -12
-13 -12 -30 -6 -30 -6 0 -9 0 -9 -110 0 -110 0 0 9 0 9 -25 6 -25 6 0 15 0 15
-15 0 -15 0 0 -15 0 -15 -9 0 -9 0 -6 -25 -6 -25 -10 0 -10 0 -6 25 -6 25 -9
0 -9 0 0 30 0 30 9 0 9 0 6 25 6 25 9 0 9 0 6 -16z m746 -134 l0 -10 -10 0
-10 0 0 10 0 10 10 0 10 0 0 -10z"/>
<path d="M538 1083 l-18 -4 0 -9 0 -9 -22 -4 -23 -4 27 -2 27 -1 13 13 13 14
15 6 15 5 -15 0 -15 0 -17 -5z"/>
<path d="M806 1144 l-6 -16 0 -5 0 -4 15 15 15 15 0 5 0 6 -9 0 -9 0 -6 -16z"/>
</g>
</svg>
