<?xml version="1.0" standalone="no"?>
<!DOCTYPE svg PUBLIC "-//W3C//DTD SVG 20010904//EN"
 "http://www.w3.org/TR/2001/REC-SVG-20010904/DTD/svg10.dtd">
<svg version="1.0" xmlns="http://www.w3.org/2000/svg"
 width="468pt" height="468pt" viewBox="0 0 468 468"
 preserveAspectRatio="xMidYMid meet">
<metadata>
Created by potrace 1.8, written by Peter Selinger 2001-2007
</metadata>
<g transform="translate(0,468) scale(0.365625,-0.365625)"
fill="#000000" stroke="none">
<path d="M0 1070 l0 -210 30 0 30 0 0 -15 0 -15 20 0 20 0 0 -15 0 -15 15 0
15 0 0 15 0 15 30 0 30 0 0 -15 0 -15 -15 0 -15 0 0 -15 0 -15 15 0 15 0 0 15
0 15 35 0 35 0 0 -30 0 -30 30 0 30 0 0 -20 0 -20 30 0 30 0 0 -30 0 -30 -15
0 -15 0 0 15 0 15 -15 0 -15 0 0 -15 0 -15 15 0 15 0 0 -15 0 -15 -15 0 -15 0
0 -15 0 -15 -15 0 -15 0 0 30 0 30 -15 0 -15 0 0 15 0 15 15 0 15 0 0 15 0 15
-15 0 -15 0 0 -15 0 -15 -35 0 -35 0 0 -15 0 -15 -15 0 -15 0 0 15 0 15 -15 0
-15 0 0 -15 0 -15 15 0 15 0 0 -15 0 -15 15 0 15 0 0 -15 0 -15 -45 0 -45 0 0
15 0 15 -20 0 -20 0 0 -15 0 -15 -30 0 -30 0 0 -225 0 -225 30 0 30 0 0 -15 0
-15 20 0 20 0 0 15 0 15 15 0 15 0 0 -15 0 -15 45 0 45 0 0 -35 0 -35 20 0 20
0 0 -15 0 -15 285 0 285 0 0 15 0 15 35 0 35 0 0 -15 0 -15 15 0 15 0 0 15 0
15 30 0 30 0 0 15 0 15 15 0 15 0 0 20 0 20 20 0 20 0 0 15 0 15 45 0 45 0 0
-35 0 -35 15 0 15 0 0 -15 0 -15 20 0 20 0 0 15 0 15 -20 0 -20 0 0 50 0 50
50 0 50 0 0 225 0 225 -15 0 -15 0 0 15 0 15 -15 0 -15 0 0 -15 0 -15 15 0 15
0 0 -15 0 -15 -50 0 -50 0 0 30 0 30 15 0 15 0 0 15 0 15 -15 0 -15 0 0 -15 0
-15 -15 0 -15 0 0 -15 0 -15 -50 0 -50 0 0 15 0 15 -80 0 -80 0 0 15 0 15 -15
0 -15 0 0 35 0 35 35 0 35 0 0 15 0 15 45 0 45 0 0 15 0 15 35 0 35 0 0 15 0
15 30 0 30 0 0 -15 0 -15 -15 0 -15 0 0 -15 0 -15 15 0 15 0 0 15 0 15 15 0
15 0 0 15 0 15 15 0 15 0 0 15 0 15 50 0 50 0 0 210 0 210 -240 0 -240 0 0
-15 0 -15 15 0 15 0 0 -35 0 -35 -15 0 -15 0 0 -30 0 -30 -15 0 -15 0 0 -15 0
-15 -15 0 -15 0 0 -15 0 -15 15 0 15 0 0 15 0 15 15 0 15 0 0 15 0 15 15 0 15
0 0 30 0 30 15 0 15 0 0 35 0 35 35 0 35 0 0 -15 0 -15 45 0 45 0 0 -20 0 -20
65 0 65 0 0 -15 0 -15 15 0 15 0 0 -15 0 -15 -15 0 -15 0 0 -15 0 -15 -15 0
-15 0 0 30 0 30 -15 0 -15 0 0 -30 0 -30 15 0 15 0 0 -15 0 -15 15 0 15 0 0
15 0 15 15 0 15 0 0 15 0 15 20 0 20 0 0 -30 0 -30 15 0 15 0 0 -20 0 -20 -15
0 -15 0 0 -15 0 -15 -20 0 -20 0 0 -15 0 -15 -45 0 -45 0 0 15 0 15 -15 0 -15
0 0 15 0 15 15 0 15 0 0 20 0 20 -15 0 -15 0 0 -20 0 -20 -20 0 -20 0 0 20 0
20 -15 0 -15 0 0 15 0 15 -15 0 -15 0 0 30 0 30 -15 0 -15 0 0 -30 0 -30 15 0
15 0 0 -15 0 -15 15 0 15 0 0 -20 0 -20 15 0 15 0 0 -15 0 -15 -15 0 -15 0 0
-30 0 -30 -45 0 -45 0 0 30 0 30 -20 0 -20 0 0 15 0 15 -15 0 -15 0 0 -15 0
-15 15 0 15 0 0 -30 0 -30 -15 0 -15 0 0 15 0 15 -15 0 -15 0 0 30 0 30 -15 0
-15 0 0 -30 0 -30 15 0 15 0 0 -15 0 -15 -50 0 -50 0 0 15 0 15 -15 0 -15 0 0
-15 0 -15 -15 0 -15 0 0 30 0 30 -15 0 -15 0 0 -30 0 -30 -80 0 -80 0 0 15 0
15 15 0 15 0 0 15 0 15 15 0 15 0 0 -15 0 -15 15 0 15 0 0 15 0 15 -15 0 -15
0 0 15 0 15 -15 0 -15 0 0 -15 0 -15 -15 0 -15 0 0 15 0 15 -15 0 -15 0 0 20
0 20 -20 0 -20 0 0 -20 0 -20 20 0 20 0 0 -15 0 -15 15 0 15 0 0 -15 0 -15
-15 0 -15 0 0 -15 0 -15 -35 0 -35 0 0 15 0 15 15 0 15 0 0 15 0 15 -15 0 -15
0 0 -15 0 -15 -30 0 -30 0 0 15 0 15 15 0 15 0 0 15 0 15 -15 0 -15 0 0 -15 0
-15 -35 0 -35 0 0 15 0 15 -30 0 -30 0 0 50 0 50 15 0 15 0 0 15 0 15 35 0 35
0 0 -15 0 -15 15 0 15 0 0 30 0 30 65 0 65 0 0 -15 0 -15 15 0 15 0 0 -15 0
-15 15 0 15 0 0 30 0 30 -15 0 -15 0 0 35 0 35 15 0 15 0 0 15 0 15 -240 0
-240 0 0 -210z m1060 -95 l0 -15 -20 0 -20 0 0 15 0 15 20 0 20 0 0 -15z
m-800 -365 l0 -30 -20 0 -20 0 0 15 0 15 -15 0 -15 0 0 15 0 15 35 0 35 0 0
-30z m380 -85 l0 -15 30 0 30 0 0 15 0 15 35 0 35 0 0 -15 0 -15 15 0 15 0 0
-15 0 -15 30 0 30 0 0 -15 0 -15 20 0 20 0 0 -15 0 -15 15 0 15 0 0 15 0 15
45 0 45 0 0 -15 0 -15 20 0 20 0 0 -20 0 -20 -20 0 -20 0 0 -15 0 -15 -15 0
-15 0 0 -15 0 -15 15 0 15 0 0 -15 0 -15 20 0 20 0 0 15 0 15 -20 0 -20 0 0
15 0 15 35 0 35 0 0 -30 0 -30 -15 0 -15 0 0 -15 0 -15 -35 0 -35 0 0 15 0 15
-15 0 -15 0 0 -15 0 -15 15 0 15 0 0 -20 0 -20 -95 0 -95 0 0 20 0 20 15 0 15
0 0 30 0 30 -15 0 -15 0 0 -30 0 -30 -15 0 -15 0 0 15 0 15 -15 0 -15 0 0 15
0 15 -20 0 -20 0 0 -15 0 -15 20 0 20 0 0 -15 0 -15 -20 0 -20 0 0 -20 0 -20
-30 0 -30 0 0 20 0 20 15 0 15 0 0 30 0 30 -15 0 -15 0 0 15 0 15 -15 0 -15 0
0 -15 0 -15 15 0 15 0 0 -30 0 -30 -15 0 -15 0 0 15 0 15 -15 0 -15 0 0 -15 0
-15 15 0 15 0 0 -20 0 -20 -35 0 -35 0 0 20 0 20 -15 0 -15 0 0 15 0 15 -15 0
-15 0 0 -15 0 -15 -15 0 -15 0 0 -20 0 -20 -80 0 -80 0 0 20 0 20 -35 0 -35 0
0 15 0 15 -45 0 -45 0 0 15 0 15 -15 0 -15 0 0 15 0 15 -20 0 -20 0 0 15 0 15
20 0 20 0 0 20 0 20 15 0 15 0 0 15 0 15 30 0 30 0 0 -35 0 -35 15 0 15 0 0
-15 0 -15 20 0 20 0 0 15 0 15 -20 0 -20 0 0 35 0 35 35 0 35 0 0 15 0 15 45
0 45 0 0 -15 0 -15 20 0 20 0 0 -35 0 -35 15 0 15 0 0 -15 0 -15 15 0 15 0 0
-15 0 -15 30 0 30 0 0 15 0 15 -30 0 -30 0 0 15 0 15 -15 0 -15 0 0 50 0 50
15 0 15 0 0 15 0 15 30 0 30 0 0 15 0 15 50 0 50 0 0 -15z m-130 -285 l0 -20
-15 0 -15 0 0 20 0 20 15 0 15 0 0 -20z"/>
<path d="M610 480 l0 -30 30 0 30 0 0 -15 0 -15 15 0 15 0 0 15 0 15 -15 0
-15 0 0 15 0 15 -15 0 -15 0 0 15 0 15 -15 0 -15 0 0 -30z"/>
<path d="M860 385 l0 -35 20 0 20 0 0 -15 0 -15 15 0 15 0 0 15 0 15 -15 0
-15 0 0 35 0 35 -20 0 -20 0 0 -35z"/>
<path d="M320 365 l0 -15 15 0 15 0 0 -15 0 -15 15 0 15 0 0 15 0 15 -15 0
-15 0 0 15 0 15 -15 0 -15 0 0 -15z"/>
<path d="M670 365 l0 -15 15 0 15 0 0 15 0 15 -15 0 -15 0 0 -15z"/>
<path d="M740 365 l0 -15 15 0 15 0 0 15 0 15 -15 0 -15 0 0 -15z"/>
<path d="M290 305 l0 -15 15 0 15 0 0 15 0 15 -15 0 -15 0 0 -15z"/>
<path d="M380 275 l0 -15 20 0 20 0 0 15 0 15 -20 0 -20 0 0 -15z"/>
<path d="M860 275 l0 -15 35 0 35 0 0 15 0 15 -35 0 -35 0 0 -15z"/>
<path d="M580 1265 l0 -15 15 0 15 0 0 15 0 15 -15 0 -15 0 0 -15z"/>
<path d="M670 1165 l0 -15 15 0 15 0 0 15 0 15 -15 0 -15 0 0 -15z"/>
<path d="M510 1105 l0 -15 15 0 15 0 0 15 0 15 -15 0 -15 0 0 -15z"/>
<path d="M610 1105 l0 -15 -15 0 -15 0 0 -15 0 -15 15 0 15 0 0 15 0 15 15 0
15 0 0 15 0 15 -15 0 -15 0 0 -15z"/>
<path d="M1020 1105 l0 -15 20 0 20 0 0 15 0 15 -20 0 -20 0 0 -15z"/>
<path d="M860 1075 l0 -15 20 0 20 0 0 15 0 15 -20 0 -20 0 0 -15z"/>
<path d="M1180 1040 l0 -20 -30 0 -30 0 0 -15 0 -15 30 0 30 0 0 15 0 15 20 0
20 0 0 20 0 20 -20 0 -20 0 0 -20z"/>
<path d="M930 990 l0 -30 15 0 15 0 0 30 0 30 -15 0 -15 0 0 -30z"/>
<path d="M1150 755 l0 -15 15 0 15 0 0 -20 0 -20 20 0 20 0 0 20 0 20 -20 0
-20 0 0 15 0 15 -15 0 -15 0 0 -15z"/>
<path d="M190 720 l0 -20 15 0 15 0 0 20 0 20 -15 0 -15 0 0 -20z"/>
<path d="M30 685 l0 -15 -15 0 -15 0 0 -15 0 -15 15 0 15 0 0 15 0 15 15 0 15
0 0 15 0 15 -15 0 -15 0 0 -15z"/>
<path d="M1250 685 l0 -15 15 0 15 0 0 15 0 15 -15 0 -15 0 0 -15z"/>
<path d="M1060 655 l0 -15 15 0 15 0 0 15 0 15 -15 0 -15 0 0 -15z"/>
<path d="M60 45 l0 -15 -30 0 -30 0 0 -15 0 -15 30 0 30 0 0 15 0 15 20 0 20
0 0 15 0 15 -20 0 -20 0 0 -15z"/>
</g>
</svg>
