<?xml version="1.0" standalone="no"?>
<!DOCTYPE svg PUBLIC "-//W3C//DTD SVG 20010904//EN"
 "http://www.w3.org/TR/2001/REC-SVG-20010904/DTD/svg10.dtd">
<svg version="1.0" xmlns="http://www.w3.org/2000/svg"
 width="468pt" height="468pt" viewBox="0 0 468 468"
 preserveAspectRatio="xMidYMid meet">
<metadata>
Created by potrace 1.8, written by Peter Selinger 2001-2007
</metadata>
<g transform="translate(0,468) scale(0.365625,-0.365625)"
fill="#000000" stroke="none">
<path d="M700 1270 l0 -10 -25 0 -25 0 0 -11 0 -10 -14 -15 -15 -14 -10 0 -11
0 0 10 0 10 -20 0 -20 0 0 -10 0 -10 -25 0 -25 0 0 10 0 10 -15 0 -15 0 0 15
0 15 -45 0 -45 0 0 -11 0 -10 17 -17 16 -17 5 13 4 12 10 0 9 0 15 -14 14 -15
0 -10 0 -11 14 0 14 0 6 -12 6 -13 6 13 6 12 14 0 14 0 0 15 0 15 10 0 10 0 0
-11 0 -10 14 -15 15 -14 6 0 6 0 15 14 14 15 0 10 0 11 11 0 10 0 15 14 14 15
0 10 0 11 10 0 10 0 0 -15 0 -15 15 0 15 0 0 15 0 15 10 0 10 0 0 -15 0 -15
15 0 15 0 0 15 0 15 10 0 10 0 0 -15 0 -15 11 0 10 0 15 -14 14 -15 0 -6 0 -6
14 -15 15 -14 6 0 6 0 15 14 14 15 0 10 0 11 15 0 15 0 0 -15 0 -15 -15 0 -15
0 0 -10 0 -10 11 0 10 0 15 -14 14 -15 0 -9 0 -10 -12 -6 -13 -6 13 -6 12 -6
0 -13 0 -13 -12 -6 -13 -6 13 -6 12 -6 0 -10 0 -9 14 -15 15 -14 9 0 10 0 5
13 4 12 9 -8 8 -8 -14 -9 -14 -9 8 -8 9 -8 4 13 5 12 13 0 13 0 6 -12 6 -13 6
13 6 12 10 0 9 0 15 -14 14 -15 0 -10 0 -11 10 0 10 0 0 15 0 15 15 0 15 0 0
-15 0 -15 -11 0 -10 0 -15 -14 -14 -15 0 -6 0 -6 14 -15 15 -14 6 0 6 0 15 14
14 15 0 66 0 66 -14 15 -15 14 -10 0 -11 0 0 11 0 10 -14 15 -15 14 -20 0 -21
0 0 25 0 25 -10 0 -10 0 0 25 0 25 -25 0 -25 0 0 10 0 10 -60 0 -60 0 0 -10 0
-10 -21 0 -20 0 -15 14 -14 15 0 10 0 11 -15 0 -15 0 0 10 0 10 -60 0 -60 0 0
-10z m310 -75 l0 -15 13 0 13 0 14 -20 14 -20 13 0 13 0 0 -11 0 -10 14 -15
15 -14 10 0 11 0 0 -13 0 -13 20 -14 20 -14 0 -13 0 -13 15 0 15 0 0 -10 0
-10 -14 0 -14 0 -5 -12 -4 -13 -20 23 -20 22 -11 0 -10 0 -6 -12 -6 -13 -6 13
-6 12 -14 0 -14 0 0 15 0 15 15 0 15 0 0 -15 0 -15 10 0 10 0 0 15 0 15 15 0
15 0 0 -15 0 -15 10 0 10 0 0 11 0 10 -14 15 -15 14 -10 0 -11 0 0 11 0 10
-14 15 -15 14 -10 0 -11 0 0 11 0 10 -14 15 -15 14 -10 0 -11 0 0 -10 0 -10
15 0 15 0 0 -15 0 -15 -15 0 -15 0 0 -10 0 -10 15 0 15 0 0 -15 0 -15 -15 0
-15 0 0 -10 0 -10 15 0 15 0 0 -15 0 -15 -15 0 -15 0 0 14 0 14 -12 6 -13 6
13 6 12 6 0 13 0 13 -12 6 -13 6 13 6 12 6 0 10 0 11 -22 20 -23 20 13 4 12 5
0 14 0 14 10 0 10 0 0 -15z m50 -95 l0 -10 15 0 15 0 0 -14 0 -14 13 -5 12 -4
-9 -9 -9 -9 -4 13 -5 12 -13 0 -13 0 -5 -12 -4 -13 -9 9 -9 9 13 4 12 5 0 14
0 14 -10 0 -10 0 0 10 0 10 10 0 10 0 0 -10z"/>
<path d="M990 1170 l0 -10 10 0 10 0 0 10 0 10 -10 0 -10 0 0 -10z"/>
<path d="M1160 1000 l0 -10 10 0 10 0 0 10 0 10 -10 0 -10 0 0 -10z"/>
<path d="M353 1215 l-13 -14 0 -56 0 -55 10 0 10 0 0 -15 0 -15 15 0 15 0 0
15 0 15 -15 0 -15 0 0 10 0 10 15 0 15 0 0 15 0 15 -15 0 -15 0 0 10 0 10 14
0 14 0 5 13 4 12 9 -8 8 -8 -14 -9 -14 -9 7 -8 8 -7 9 14 9 14 8 -8 8 -9 -12
-4 -13 -5 0 -13 0 -13 -12 -6 -13 -6 13 -6 12 -6 0 -10 0 -9 -14 -15 -15 -14
-10 0 -11 0 0 -21 0 -20 -14 -15 -15 -14 -10 0 -11 0 0 -15 0 -15 -10 0 -10 0
0 -25 0 -25 -25 0 -25 0 0 -10 0 -10 -21 0 -20 0 -15 -14 -14 -15 0 -10 0 -11
-11 0 -10 0 -15 -14 -14 -15 0 -31 0 -31 14 -15 15 -14 10 0 11 0 0 -60 0 -60
-11 0 -10 0 -15 -14 -14 -15 0 -6 0 -6 -14 -15 -15 -14 -10 0 -11 0 0 -11 0
-10 -14 -15 -15 -14 -10 0 -11 0 0 -15 0 -15 -10 0 -10 0 0 -45 0 -45 25 0 25
0 0 -15 0 -15 190 0 190 0 0 -20 0 -20 15 0 15 0 0 -15 0 -15 25 0 25 0 0 -10
0 -10 25 0 25 0 0 -25 0 -25 10 0 10 0 0 -25 0 -25 10 0 10 0 0 -25 0 -25 15
0 15 0 0 25 0 25 -15 0 -15 0 0 25 0 25 -10 0 -10 0 0 21 0 20 -14 15 -15 14
-20 0 -21 0 0 15 0 15 -25 0 -25 0 0 20 0 20 170 0 170 0 0 -10 0 -10 35 0 35
0 0 10 0 10 -35 0 -35 0 0 15 0 15 -375 0 -375 0 0 10 0 10 -15 0 -15 0 0 35
0 35 15 0 15 0 0 11 0 10 14 15 15 14 10 0 11 0 0 13 0 13 20 14 20 14 0 13 0
13 13 0 13 0 14 20 14 20 58 0 58 0 0 -10 0 -10 15 0 15 0 0 10 0 10 -15 0
-15 0 0 15 0 15 -60 0 -60 0 0 25 0 25 15 0 15 0 0 10 0 10 -15 0 -15 0 0 25
0 25 15 0 15 0 0 -25 0 -25 25 0 25 0 0 10 0 10 60 0 60 0 0 -10 0 -10 -15 0
-15 0 0 -10 0 -10 -70 0 -70 0 0 -15 0 -15 45 0 45 0 0 -10 0 -10 11 0 10 0
15 14 14 15 0 10 0 11 75 0 75 0 0 10 0 10 24 0 24 0 6 -12 6 -13 6 13 6 12
24 0 24 0 0 -10 0 -10 23 0 23 0 14 20 14 20 23 0 23 0 0 -10 0 -10 24 0 24 0
6 -12 6 -13 6 13 6 12 24 0 24 0 0 10 0 10 -60 0 -60 0 0 15 0 15 -60 0 -60 0
0 -15 0 -15 -85 0 -85 0 0 -10 0 -10 -25 0 -25 0 0 10 0 10 25 0 25 0 0 15 0
15 -15 0 -15 0 0 25 0 25 25 0 25 0 0 10 0 10 15 0 15 0 0 11 0 10 14 15 15
14 10 0 11 0 0 10 0 10 -13 0 -13 0 -14 -20 -14 -20 -13 0 -13 0 0 -15 0 -15
-21 0 -20 0 -15 -14 -14 -15 0 -20 0 -21 -70 0 -70 0 0 10 0 10 -50 0 -50 0 0
-25 0 -25 -15 0 -15 0 0 40 0 40 11 0 10 0 15 14 14 15 0 10 0 11 25 0 25 0 0
10 0 10 21 0 20 0 15 14 14 15 0 20 0 21 15 0 15 0 0 11 0 10 14 15 15 14 10
0 11 0 0 21 0 20 17 17 16 17 5 -13 4 -12 24 0 24 0 0 -15 0 -15 50 0 50 0 0
11 0 10 -14 15 -15 14 -9 0 -10 0 -6 -12 -6 -13 -6 13 -6 12 -14 0 -14 0 0 15
0 15 15 0 15 0 0 -15 0 -15 10 0 10 0 0 15 0 15 15 0 15 0 0 -15 0 -15 10 0
10 0 0 14 0 14 13 6 12 6 -12 6 -13 6 0 14 0 14 10 0 10 0 0 -15 0 -15 15 0
15 0 0 11 0 10 14 15 15 14 6 0 6 0 15 -14 14 -15 0 -9 0 -10 -12 -6 -13 -6
13 -6 12 -6 0 -14 0 -14 10 0 10 0 0 15 0 15 15 0 15 0 0 -15 0 -15 10 0 10 0
0 15 0 15 15 0 15 0 0 -11 0 -10 14 -15 15 -14 10 0 11 0 0 -15 0 -15 -15 0
-15 0 0 11 0 10 -14 15 -15 14 -9 0 -10 0 -6 -12 -6 -13 -6 13 -6 12 -10 0 -9
0 -15 -14 -14 -15 0 -10 0 -11 -10 0 -10 0 0 15 0 15 -14 0 -14 0 -6 13 -6 12
-6 -12 -6 -13 -14 0 -14 0 0 -15 0 -15 25 0 25 0 0 -10 0 -10 35 0 35 0 0 10
0 10 40 0 40 0 0 -10 0 -10 25 0 25 0 0 -10 0 -10 70 0 70 0 0 -25 0 -25 -10
0 -10 0 0 -35 0 -35 6 0 5 0 17 17 17 16 -13 5 -12 4 0 10 0 9 14 15 15 14 10
0 11 0 0 15 0 15 -11 0 -12 0 -20 23 -20 22 -4 -12 -5 -13 -13 0 -13 0 -6 13
-6 12 -6 -12 -6 -13 -13 0 -13 0 -5 13 -5 12 -11 -15 -10 -14 -8 8 -8 9 13 4
12 5 0 13 0 13 13 6 12 6 -12 6 -13 6 0 13 0 13 13 6 12 6 -12 6 -13 6 0 14 0
14 10 0 10 0 0 -15 0 -15 15 0 15 0 0 15 0 15 10 0 10 0 0 -15 0 -15 15 0 15
0 0 15 0 15 -14 0 -14 0 -6 13 -6 12 -6 -12 -6 -13 -9 0 -10 0 -24 25 -25 24
0 11 0 10 -14 0 -14 0 -6 13 -6 12 -6 -12 -6 -13 -13 0 -13 0 -6 13 -6 12 -6
-12 -6 -13 -13 0 -13 0 -4 12 -5 13 -16 -17 -17 -17 0 -10 0 -11 -13 0 -13 0
-14 -20 -14 -20 -10 0 -9 0 -20 23 -20 22 -4 -12 -5 -13 -13 0 -13 0 -6 -12
-6 -13 -6 13 -6 12 -10 0 -9 0 -15 14 -14 15 0 10 0 11 -15 0 -15 0 0 -15 0
-15 15 0 15 0 0 -10 0 -10 -11 0 -10 0 -15 14 -14 15 0 6 0 6 -14 15 -15 14
-8 0 -8 -1 -12 -14z m37 -20 l0 -15 -15 0 -15 0 0 15 0 15 15 0 15 0 0 -15z
m330 0 l0 -15 15 0 15 0 0 15 0 15 10 0 10 0 0 -15 0 -15 15 0 15 0 0 15 0 15
10 0 10 0 0 -15 0 -15 11 0 10 0 17 -17 17 -16 -13 -5 -12 -4 0 -13 0 -13 13
-6 12 -6 -12 -6 -13 -6 0 -13 0 -13 13 -5 12 -4 -9 -9 -9 -9 -4 13 -5 12 -14
0 -14 0 0 11 0 10 -14 15 -15 14 -9 0 -10 0 -6 -12 -6 -13 -6 13 -6 12 -13 0
-13 0 -5 -12 -4 -13 -9 9 -9 9 13 4 12 5 0 10 0 11 -22 20 -23 20 13 4 12 5 0
14 0 14 10 0 10 0 0 -15z m-240 -45 l0 -10 15 0 15 0 0 -15 0 -15 10 0 10 0 0
15 0 15 14 0 14 0 5 13 4 12 9 -9 9 -9 -12 -4 -13 -5 0 -13 0 -13 13 -5 12 -4
-9 -9 -9 -9 -4 13 -5 12 -13 0 -13 0 -6 -12 -6 -13 -6 13 -6 12 -10 0 -9 0
-15 -14 -14 -15 0 -10 0 -11 -15 0 -15 0 0 15 0 15 11 0 10 0 15 14 14 15 0
10 0 11 -10 0 -10 0 0 -15 0 -15 -15 0 -15 0 0 15 0 15 15 0 15 0 0 10 0 10
10 0 10 0 0 -10z"/>
<path d="M700 1174 l0 -5 14 -15 15 -14 10 0 11 0 0 -15 0 -15 10 0 10 0 0 15
0 15 15 0 15 0 0 -11 0 -10 14 -15 15 -14 10 0 11 0 0 10 0 10 -15 0 -15 0 0
15 0 15 15 0 15 0 0 10 0 10 -14 0 -14 0 -6 13 -6 12 -6 -12 -6 -13 -13 0 -13
0 -6 13 -6 12 -6 -12 -6 -13 -14 0 -14 0 0 10 0 10 -10 0 -10 0 0 -6z m70 -24
l0 -10 -10 0 -10 0 0 10 0 10 10 0 10 0 0 -10z m50 0 l0 -10 -10 0 -10 0 0 10
0 10 10 0 10 0 0 -10z"/>
<path d="M650 1129 l0 -10 -14 -15 -15 -14 -10 0 -11 0 0 -14 0 -14 -12 -5
-13 -4 9 -9 9 -9 4 13 5 12 14 0 14 0 0 11 0 10 14 15 15 14 10 0 11 0 0 15 0
15 -15 0 -15 0 0 -11z"/>
<path d="M920 1100 l0 -10 -15 0 -15 0 0 -15 0 -15 15 0 15 0 0 15 0 15 10 0
10 0 0 -15 0 -15 15 0 15 0 0 15 0 15 -15 0 -15 0 0 10 0 10 -10 0 -10 0 0
-10z"/>
<path d="M650 1075 l0 -15 14 0 14 0 5 -12 4 -13 9 9 9 9 -12 4 -13 5 0 14 0
14 -15 0 -15 0 0 -15z"/>
<path d="M920 1050 l0 -10 -15 0 -15 0 0 -15 0 -15 15 0 15 0 0 15 0 15 10 0
10 0 0 -15 0 -15 15 0 15 0 0 15 0 15 -15 0 -15 0 0 10 0 10 -10 0 -10 0 0
-10z"/>
<path d="M1060 959 l0 -10 -14 -15 -15 -14 -10 0 -11 0 0 -15 0 -15 15 0 15 0
0 11 0 10 14 15 15 14 10 0 11 0 0 15 0 15 -15 0 -15 0 0 -11z"/>
<path d="M1110 959 l0 -10 -14 -15 -15 -14 -10 0 -11 0 0 -11 0 -10 -14 -15
-15 -14 -6 0 -6 0 -15 -14 -14 -15 0 -6 0 -6 14 -15 15 -14 10 0 11 0 0 -15 0
-15 -15 0 -15 0 0 -10 0 -10 15 0 15 0 0 -15 0 -15 -15 0 -15 0 0 14 0 14 -12
6 -13 6 13 6 12 6 0 12 0 12 -20 14 -20 14 0 13 0 13 -15 0 -15 0 0 -25 0 -25
15 0 15 0 0 -40 0 -40 10 0 10 0 0 -60 0 -60 -10 0 -10 0 0 -35 0 -35 -15 0
-15 0 0 -25 0 -25 -10 0 -10 0 0 -35 0 -35 25 0 25 0 0 -10 0 -10 20 0 20 0 0
20 0 20 15 0 15 0 0 25 0 25 10 0 10 0 0 36 0 35 -14 15 -15 14 -10 0 -11 0 0
-10 0 -10 15 0 15 0 0 -15 0 -15 -11 0 -10 0 -15 -14 -14 -15 0 -10 0 -11 10
0 10 0 0 15 0 15 15 0 15 0 0 -15 0 -15 -11 0 -10 0 -15 -14 -14 -15 0 -10 0
-11 -10 0 -10 0 0 15 0 15 -15 0 -15 0 0 10 0 10 15 0 15 0 0 13 0 13 20 14
20 14 0 12 0 12 -12 4 -13 5 17 16 17 17 10 0 11 0 0 15 0 15 -15 0 -15 0 0
10 0 10 15 0 15 0 0 15 0 15 -15 0 -15 0 0 10 0 10 14 0 14 0 5 13 4 12 9 -8
8 -8 -14 -9 -14 -9 8 -8 9 -8 4 13 5 12 13 0 13 0 6 -12 6 -13 6 13 6 12 10 0
9 0 15 -14 14 -15 0 -6 0 -6 14 -15 15 -14 10 0 11 0 0 -15 0 -15 -15 0 -15 0
0 11 0 10 -17 17 -16 17 -5 -13 -4 -12 -13 0 -13 0 -6 13 -6 12 -6 -12 -6 -13
-14 0 -14 0 0 -14 0 -14 -12 -4 -13 -5 17 -16 17 -17 10 0 11 0 0 20 0 20 35
0 35 0 0 -20 0 -20 10 0 10 0 0 10 0 10 14 0 14 0 6 13 6 12 6 -12 6 -13 14 0
14 0 0 -10 0 -10 -15 0 -15 0 0 -15 0 -15 -10 0 -10 0 0 15 0 15 -15 0 -15 0
0 -50 0 -50 -10 0 -10 0 0 -25 0 -25 -35 0 -35 0 0 -10 0 -10 10 0 10 0 0 -25
0 -25 -10 0 -10 0 0 -25 0 -25 -11 0 -10 0 -15 -14 -14 -15 0 -20 0 -21 -15 0
-15 0 0 -25 0 -25 -10 0 -10 0 0 -15 0 -15 -10 0 -10 0 0 -20 0 -20 -15 0 -15
0 0 -15 0 -15 -25 0 -25 0 0 -10 0 -10 -20 0 -20 0 0 10 0 10 -50 0 -50 0 0
-10 0 -10 -49 0 -49 0 -6 13 -6 12 -6 -12 -6 -13 -24 0 -24 0 0 10 0 10 -46 0
-45 0 -15 -14 -14 -15 0 -20 0 -21 70 0 70 0 0 10 0 10 15 0 15 0 0 -10 0 -10
34 0 34 0 6 13 6 12 6 -12 6 -13 70 0 69 0 15 14 14 15 0 10 0 11 25 0 25 0 0
10 0 10 15 0 15 0 0 15 0 15 10 0 10 0 0 20 0 20 10 0 10 0 0 15 0 15 15 0 15
0 0 25 0 25 10 0 10 0 0 25 0 25 11 0 10 0 15 14 14 15 0 20 0 21 25 0 25 0 0
-25 0 -25 10 0 10 0 0 -35 0 -35 -10 0 -10 0 0 -25 0 -25 -10 0 -10 0 0 -25 0
-25 -15 0 -15 0 0 -25 0 -25 -10 0 -10 0 0 -25 0 -25 -15 0 -15 0 0 -10 0 -10
11 0 10 0 15 14 14 15 0 20 0 21 15 0 15 0 0 25 0 25 10 0 10 0 0 25 0 25 10
0 10 0 0 25 0 25 15 0 15 0 0 35 0 35 -15 0 -15 0 0 25 0 25 -10 0 -10 0 0 25
0 25 21 0 20 0 15 14 14 15 0 20 0 21 15 0 15 0 0 35 0 35 10 0 10 0 0 95 0
95 -10 0 -10 0 0 25 0 25 10 0 10 0 0 46 0 45 -14 15 -15 14 -8 0 -9 0 -14
-20 -14 -20 -9 0 -8 0 -24 25 -25 24 0 10 0 9 13 6 12 6 -12 6 -13 6 0 14 0
14 -15 0 -15 0 0 -11z m30 -29 l0 -10 -15 0 -15 0 0 -15 0 -15 10 0 11 0 24
-25 25 -24 0 -11 0 -10 15 0 15 0 0 11 0 10 14 15 15 14 10 0 11 0 0 -10 0
-10 -15 0 -15 0 0 -15 0 -15 15 0 15 0 0 -10 0 -10 -15 0 -15 0 0 -14 0 -14
-12 -6 -13 -6 13 -6 12 -6 0 -14 0 -14 15 0 15 0 0 -10 0 -10 -14 0 -14 0 -6
-12 -6 -13 -6 13 -6 12 -14 0 -14 0 0 -10 0 -10 15 0 15 0 0 -11 0 -10 14 -15
15 -14 10 0 11 0 0 -15 0 -15 -15 0 -15 0 0 11 0 10 -14 15 -15 14 -10 0 -11
0 0 10 0 11 -25 24 -24 25 -10 0 -9 0 -6 -12 -6 -13 -6 13 -6 12 -14 0 -14 0
0 14 0 14 -12 6 -13 6 13 6 12 6 0 10 0 9 -14 15 -15 14 -10 0 -11 0 0 15 0
15 13 0 13 0 14 20 14 20 13 0 13 0 0 10 0 11 13 14 12 14 13 1 12 0 0 -10z
m120 -265 l0 -15 -15 0 -15 0 0 15 0 15 15 0 15 0 0 -15z m-30 -170 l0 -15
-10 0 -10 0 0 15 0 15 10 0 10 0 0 -15z m-20 -50 l0 -15 -15 0 -15 0 0 15 0
15 15 0 15 0 0 -15z"/>
<path d="M1090 880 l0 -10 -11 0 -10 0 -15 -14 -14 -15 0 -6 0 -6 14 -15 15
-14 10 0 11 0 0 -15 0 -15 -15 0 -15 0 0 -10 0 -10 15 0 15 0 0 -15 0 -15 10
0 10 0 0 15 0 15 15 0 15 0 0 -11 0 -10 17 -17 16 -17 5 13 4 12 13 0 13 0 5
-12 4 -13 9 9 9 9 -12 4 -13 5 0 14 0 14 -15 0 -15 0 0 -15 0 -15 -10 0 -10 0
0 14 0 14 13 6 12 6 -12 6 -13 6 0 14 0 14 10 0 10 0 0 -15 0 -15 15 0 15 0 0
14 0 14 13 5 12 4 -9 9 -9 9 -4 -12 -5 -13 -10 0 -9 0 -15 14 -14 15 0 6 0 6
-14 15 -15 14 -10 0 -11 0 0 10 0 10 -10 0 -10 0 0 -10z m20 -20 l0 -10 15 0
15 0 0 -14 0 -14 13 -6 12 -6 -12 -6 -13 -6 0 -13 0 -13 13 -5 12 -4 -9 -9 -9
-9 -4 13 -5 12 -13 0 -13 0 -5 -12 -4 -13 -9 9 -9 9 13 4 12 5 0 10 0 9 -14
15 -15 14 -10 0 -11 0 0 15 0 15 15 0 15 0 0 10 0 10 10 0 10 0 0 -10z"/>
<path d="M1090 839 l0 -10 14 -15 15 -14 10 0 11 0 0 10 0 10 -15 0 -15 0 0
15 0 15 -10 0 -10 0 0 -11z"/>
<path d="M510 665 l0 -15 25 0 25 0 0 15 0 15 -25 0 -25 0 0 -15z"/>
<path d="M580 665 l0 -15 -10 0 -10 0 0 -45 0 -45 10 0 10 0 0 20 0 20 10 0
10 0 0 14 0 14 -12 5 -13 4 9 9 9 9 4 -12 5 -13 14 0 14 0 0 -15 0 -15 -15 0
-15 0 0 -10 0 -10 15 0 15 0 0 -10 0 -10 85 0 85 0 0 10 0 10 -85 0 -85 0 0
10 0 10 60 0 60 0 0 15 0 15 25 0 25 0 0 25 0 25 -15 0 -15 0 0 -11 0 -10 -14
-15 -15 -14 -55 0 -56 0 0 10 0 10 -15 0 -15 0 0 15 0 15 -10 0 -10 0 0 -15z"/>
<path d="M1060 666 l0 -14 -12 -5 -13 -4 9 -9 9 -9 4 13 5 12 14 0 14 0 0 15
0 15 -15 0 -15 0 0 -14z"/>
<path d="M1110 665 l0 -15 15 0 15 0 0 15 0 15 -15 0 -15 0 0 -15z"/>
<path d="M360 570 l0 -10 15 0 15 0 0 10 0 10 -15 0 -15 0 0 -10z"/>
<path d="M480 570 l0 -10 15 0 15 0 0 10 0 10 -15 0 -15 0 0 -10z"/>
<path d="M1210 570 l0 -10 10 0 10 0 0 10 0 10 -10 0 -10 0 0 -10z"/>
<path d="M1110 546 l0 -14 -12 -5 -13 -4 9 -9 9 -9 4 13 5 12 14 0 14 0 0 -25
0 -25 -15 0 -15 0 0 -10 0 -10 11 0 10 0 15 14 14 15 0 35 0 36 -25 0 -25 0 0
-14z"/>
<path d="M970 470 l0 -10 10 0 10 0 0 10 0 10 -10 0 -10 0 0 -10z"/>
<path d="M890 325 l0 -15 15 0 15 0 0 -20 0 -20 -15 0 -15 0 0 -15 0 -15 15 0
15 0 0 15 0 15 10 0 10 0 0 20 0 20 -10 0 -10 0 0 15 0 15 -15 0 -15 0 0 -15z"/>
</g>
</svg>
