<?xml version="1.0" standalone="no"?>
<!DOCTYPE svg PUBLIC "-//W3C//DTD SVG 20010904//EN"
 "http://www.w3.org/TR/2001/REC-SVG-20010904/DTD/svg10.dtd">
<svg version="1.0" xmlns="http://www.w3.org/2000/svg"
 width="468pt" height="468pt" viewBox="0 0 468 468"
 preserveAspectRatio="xMidYMid meet">
<metadata>
Created by potrace 1.8, written by Peter Selinger 2001-2007
</metadata>
<g transform="translate(0,468) scale(0.365625,-0.365625)"
fill="#000000" stroke="none">
<path d="M470 1240 l-14 -20 -14 0 -13 0 -15 -14 -14 -15 0 -25 0 -26 -10 0
-10 0 0 -40 0 -40 20 0 20 0 0 -10 0 -10 -10 0 -10 0 0 -30 0 -30 -10 0 -10 0
0 -20 0 -20 -10 0 -10 0 0 -18 0 -18 -20 -14 -20 -14 0 -33 0 -33 55 -55 55
-55 10 0 11 0 15 -14 14 -15 0 -21 0 -21 -15 -16 -15 -15 -29 31 -29 31 -25 0
-25 0 -6 -12 -6 -13 -6 13 -6 12 -15 0 -14 0 -15 14 -14 15 0 65 0 66 -20 0
-20 0 0 10 0 10 -20 0 -20 0 0 -20 0 -20 10 0 10 0 0 -18 0 -18 20 -14 20 -14
0 -18 0 -18 -16 0 -16 0 -28 30 -28 30 -16 0 -16 0 0 -15 0 -16 25 -24 24 -25
16 0 15 0 0 -6 0 -5 -17 -17 -16 -17 -5 13 -4 12 -17 0 -17 0 -14 20 -14 20
-18 0 -18 0 0 -20 0 -20 10 0 10 0 0 -20 0 -20 60 0 60 0 0 10 0 10 18 0 18 0
14 -20 14 -20 18 0 18 0 0 -50 0 -50 10 0 10 0 0 -16 0 -15 14 -15 15 -14 14
0 15 0 6 13 6 12 6 -12 6 -13 19 0 19 0 0 -8 0 -8 -20 -14 -20 -14 0 -28 0
-28 10 0 10 0 0 -29 0 -29 13 -5 12 -4 -22 -20 -23 -20 0 -12 0 -12 -14 -15
-15 -14 -45 0 -46 0 0 -10 0 -10 -15 0 -16 0 -24 -25 -25 -24 0 -11 0 -11 14
-15 15 -14 55 0 56 0 0 -10 0 -10 20 0 20 0 0 -10 0 -10 50 0 50 0 0 10 0 10
50 0 50 0 0 10 0 10 30 0 30 0 0 10 0 10 25 0 26 0 24 25 25 24 0 16 0 15 -10
0 -10 0 0 20 0 20 -10 0 -10 0 0 30 0 30 10 0 10 0 0 -10 0 -10 40 0 40 0 0
-10 0 -10 20 0 20 0 0 -10 0 -10 80 0 80 0 0 -10 0 -10 20 0 20 0 0 -10 0 -10
19 0 19 0 5 13 4 12 9 -8 8 -8 -14 -10 -15 -9 14 -9 14 -9 -17 -17 -17 -17 -7
7 -7 8 13 4 12 5 0 9 0 9 -19 0 -19 0 -5 -12 -5 -13 -12 15 -12 15 -5 -12 -5
-13 -29 0 -29 0 0 -20 0 -20 -20 0 -20 0 0 -10 0 -10 -20 0 -20 0 0 -10 0 -10
78 0 78 0 14 20 14 20 18 0 18 0 0 10 0 10 20 0 20 0 0 10 0 10 20 0 20 0 0
15 0 16 -25 24 -24 25 -23 0 -24 0 -14 20 -14 20 -37 0 -37 0 -5 -12 -4 -13
-9 9 -9 9 13 4 12 5 0 9 0 9 -60 0 -60 0 0 10 0 10 -16 0 -16 0 -28 30 -28 30
-16 0 -16 0 0 -9 0 -9 13 -5 12 -4 -7 -8 -7 -7 -17 17 -17 17 14 10 14 10 -12
5 -13 5 0 69 0 69 10 0 10 0 0 30 0 30 -9 0 -9 0 -5 -12 -4 -13 -9 9 -9 9 13
4 12 5 0 68 0 68 -12 4 -13 5 18 17 18 18 7 -7 7 -8 -12 -4 -13 -5 0 -9 0 -9
15 0 16 0 24 25 25 24 0 16 0 15 10 0 10 0 0 30 0 30 10 0 10 0 0 26 0 25 14
15 15 14 15 0 16 0 0 9 0 9 -12 5 -13 4 9 9 9 9 4 -12 5 -13 14 0 15 0 24 25
25 24 0 16 0 15 10 0 10 0 0 25 0 26 -25 24 -24 25 -13 0 -14 0 -14 20 -14 20
-8 0 -8 0 0 -20 0 -20 10 0 10 0 0 -19 0 -19 12 -4 13 -5 -17 -16 -17 -17 -15
0 -16 0 0 -10 0 -10 -26 0 -25 0 -15 14 -14 15 0 15 0 16 -20 0 -20 0 0 20 0
20 -30 0 -30 0 0 10 0 10 -30 0 -30 0 0 10 0 10 -38 0 -38 0 -14 -20 -14 -20
-18 0 -18 0 0 20 0 20 10 0 10 0 0 20 0 20 10 0 10 0 0 30 0 30 -8 0 -8 0 -14
-20z m10 -28 l0 -8 -20 -14 -20 -14 0 -28 0 -28 -10 0 -10 0 0 -20 0 -20 9 0
9 0 5 13 5 12 11 -15 10 -14 19 22 19 22 26 0 25 0 6 13 6 12 6 -12 6 -13 19
0 19 0 0 -10 0 -10 19 0 19 0 6 -12 6 -13 6 13 6 12 9 0 9 0 0 -26 0 -25 17
-17 16 -17 5 13 4 12 9 0 9 0 0 -20 0 -20 40 0 40 0 0 10 0 10 30 0 30 0 0 19
0 19 13 5 12 5 -15 11 -14 10 6 7 7 6 16 -15 15 -16 0 -12 0 -12 -22 -19 -22
-19 14 -9 14 -9 -7 -8 -8 -7 -10 14 -11 15 -5 -12 -5 -13 -19 0 -19 0 0 -20 0
-20 -25 0 -26 0 -26 -26 -25 -25 7 -7 8 -7 4 13 5 12 9 0 9 0 0 -20 0 -20 -20
0 -20 0 0 -19 0 -19 -12 -5 -13 -5 14 -10 14 -10 -56 -56 -57 -56 -15 0 -15 0
0 -10 0 -10 19 0 19 0 4 12 5 13 17 -18 18 -18 -7 -7 -8 -7 -4 13 -5 12 -9 0
-9 0 0 -16 0 -17 23 -20 22 -20 -12 -4 -13 -5 0 -38 0 -38 13 -6 12 -6 -12 -6
-13 -6 0 -18 0 -18 13 -5 12 -5 -15 -11 -15 -11 15 -9 14 -10 -6 -7 -7 -6 -16
15 -15 16 0 15 0 16 -10 0 -10 0 0 -10 0 -10 -20 0 -20 0 0 -10 0 -10 -40 0
-40 0 0 10 0 10 -20 0 -20 0 0 8 0 8 20 14 20 14 0 28 0 28 40 0 40 0 0 -20 0
-20 16 0 15 0 16 15 15 16 -7 7 -8 7 -4 -12 -5 -13 -9 0 -9 0 0 20 0 20 -49 0
-49 0 -5 -12 -5 -13 -10 14 -10 14 -16 -16 -16 -16 0 -15 0 -16 10 0 10 0 0
10 0 10 10 0 10 0 0 -20 0 -20 -40 0 -40 0 0 10 0 10 10 0 10 0 0 20 0 20 10
0 10 0 0 20 0 20 -10 0 -10 0 0 -18 0 -18 -20 -14 -20 -14 0 -18 0 -18 -20 0
-20 0 0 16 0 16 30 28 30 28 0 16 0 16 -6 0 -5 0 -15 -14 -14 -15 0 -11 0 -11
-14 -15 -15 -14 -5 0 -6 0 0 40 0 40 20 0 20 0 0 9 0 9 -12 4 -13 5 17 16 17
17 11 0 12 0 29 -31 28 -30 26 25 25 25 0 21 0 21 -25 24 -24 25 -11 0 -11 0
-24 25 -25 24 0 16 0 15 -20 0 -20 0 0 38 0 38 20 14 20 14 0 18 0 18 10 0 10
0 0 20 0 20 10 0 10 0 0 20 0 20 10 0 10 0 0 18 0 18 -20 14 -20 14 0 28 0 28
10 0 10 0 0 30 0 30 20 0 20 0 0 10 0 10 10 0 10 0 0 -8z m300 -392 l0 -20
-20 0 -20 0 0 5 0 6 13 14 12 14 8 1 7 0 0 -20z m-20 -70 l0 -10 -10 0 -10 0
0 10 0 10 10 0 10 0 0 -10z m-280 -360 l0 -10 56 0 56 0 28 -30 28 -30 16 0
16 0 0 -10 0 -10 -20 0 -20 0 0 10 0 10 -20 0 -20 0 0 -20 0 -20 -30 0 -30 0
0 -40 0 -40 -20 0 -20 0 0 -10 0 -10 -10 0 -10 0 0 19 0 19 13 5 12 4 -9 9 -9
9 -4 -12 -5 -13 -19 0 -19 0 0 -19 0 -19 13 -5 12 -4 -9 -9 -9 -9 -4 13 -5 12
-19 0 -19 0 0 -20 0 -20 -10 0 -10 0 0 16 0 16 40 38 40 38 0 16 0 16 -10 0
-10 0 0 30 0 30 -10 0 -10 0 0 30 0 30 30 0 30 0 0 -10z m200 -119 l0 -9 -12
-6 -13 -6 13 -6 12 -6 0 -19 0 -19 10 0 10 0 0 -29 0 -29 -12 -5 -13 -5 15
-11 14 -10 -8 -8 -9 -8 -4 13 -5 12 -19 0 -19 0 0 -10 0 -10 -18 0 -18 0 -14
-20 -14 -20 -24 0 -23 0 -17 17 -17 16 13 5 12 4 0 19 0 19 -6 0 -5 0 -15 -14
-14 -15 0 -14 0 -15 12 -4 13 -5 -17 -16 -17 -17 -45 0 -46 0 0 10 0 10 -20 0
-20 0 0 10 0 10 -60 0 -60 0 0 16 0 15 14 15 15 14 15 0 16 0 0 10 0 10 40 0
40 0 0 -30 0 -30 -10 0 -10 0 0 -10 0 -10 20 0 20 0 0 20 0 20 19 0 19 0 5 13
5 12 12 -15 12 -15 5 13 5 12 19 0 19 0 0 10 0 10 20 0 20 0 0 10 0 10 20 0
20 0 0 9 0 9 -12 5 -13 4 7 8 7 7 16 -16 16 -16 -15 -15 -15 -15 -15 0 -16 0
0 -20 0 -20 5 0 6 0 35 35 35 36 -30 28 -31 29 0 6 0 6 30 0 30 0 0 10 0 10
30 0 30 0 0 -9z m80 -1 l0 -10 -10 0 -10 0 0 10 0 10 10 0 10 0 0 -10z m120
-40 l0 -10 -10 0 -10 0 0 10 0 10 10 0 10 0 0 -10z m40 0 l0 -10 -10 0 -10 0
0 10 0 10 10 0 10 0 0 -10z m120 -20 l0 -10 -10 0 -10 0 0 10 0 10 10 0 10 0
0 -10z m100 -60 l0 -10 -10 0 -10 0 0 10 0 10 10 0 10 0 0 -10z m-114 -45 l15
-15 -15 -15 -15 -15 -11 0 -11 0 -15 14 -14 15 0 5 0 6 20 0 20 0 0 10 0 10 6
0 5 0 15 -15z"/>
<path d="M473 1025 l-13 -14 0 -16 0 -15 -10 0 -10 0 0 -46 0 -47 22 -18 21
-19 -22 -20 -23 -19 26 -26 25 -25 36 0 35 0 0 20 0 20 -10 0 -10 0 0 -10 0
-10 -26 0 -25 0 -15 15 -15 15 15 15 15 15 15 0 16 0 0 9 0 9 -12 6 -13 6 13
6 12 6 0 19 0 19 10 0 10 0 0 30 0 30 10 0 10 0 0 16 0 15 -14 15 -15 14 -23
0 -23 -1 -12 -14z m67 -25 l0 -20 -10 0 -10 0 0 -30 0 -30 -10 0 -10 0 0 20 0
20 -20 0 -20 0 0 10 0 10 10 0 10 0 0 20 0 20 30 0 30 0 0 -20z m-60 -70 l0
-10 -10 0 -10 0 0 10 0 10 10 0 10 0 0 -10z"/>
<path d="M593 985 l-13 -14 0 -26 0 -25 -10 0 -10 0 0 -36 0 -35 14 -15 15
-14 21 0 21 0 24 25 25 24 0 51 0 51 -14 15 -15 14 -23 0 -23 -1 -12 -14z m67
-65 l0 -60 -6 0 -5 0 -15 14 -14 15 0 15 0 16 -10 0 -10 0 0 30 0 30 30 0 30
0 0 -60z m-60 -30 l0 -10 -10 0 -10 0 0 10 0 10 10 0 10 0 0 -10z"/>
<path d="M400 795 l0 -6 45 -44 44 -45 36 0 35 0 0 10 0 10 26 0 25 0 16 15
15 16 -7 7 -8 7 -4 -12 -5 -13 -29 0 -29 0 0 -10 0 -10 -20 0 -20 0 0 10 0 10
-20 0 -20 0 0 10 0 10 -18 0 -18 0 -14 20 -14 20 -8 0 -8 0 0 -5z"/>
<path d="M560 670 l0 -10 10 0 10 0 0 10 0 10 -10 0 -10 0 0 -10z"/>
<path d="M380 610 l0 -10 10 0 10 0 0 10 0 10 -10 0 -10 0 0 -10z"/>
<path d="M620 590 l0 -10 10 0 10 0 0 10 0 10 -10 0 -10 0 0 -10z"/>
<path d="M620 550 l0 -10 10 0 10 0 0 10 0 10 -10 0 -10 0 0 -10z"/>
<path d="M480 280 l0 -20 20 0 20 0 0 6 0 5 -14 15 -15 14 -5 0 -6 0 0 -20z"/>
<path d="M620 230 l0 -10 10 0 10 0 0 10 0 10 -10 0 -10 0 0 -10z"/>
<path d="M560 90 l0 -10 10 0 10 0 0 10 0 10 -10 0 -10 0 0 -10z"/>
<path d="M1000 90 l0 -10 10 0 10 0 0 10 0 10 -10 0 -10 0 0 -10z"/>
</g>
</svg>
