<?xml version="1.0" standalone="no"?>
<!DOCTYPE svg PUBLIC "-//W3C//DTD SVG 20010904//EN"
 "http://www.w3.org/TR/2001/REC-SVG-20010904/DTD/svg10.dtd">
<svg version="1.0" xmlns="http://www.w3.org/2000/svg"
 width="468pt" height="468pt" viewBox="0 0 468 468"
 preserveAspectRatio="xMidYMid meet">
<metadata>
Created by potrace 1.8, written by Peter Selinger 2001-2007
</metadata>
<g transform="translate(0,468) scale(0.365625,-0.365625)"
fill="#000000" stroke="none">
<path d="M420 1050 l0 -30 40 0 40 0 0 -18 0 -18 -20 -14 -20 -14 0 -13 0 -14
-45 -44 -44 -45 -16 0 -15 0 0 10 0 10 -20 0 -20 0 0 10 0 10 -70 0 -70 0 0
-10 0 -10 -18 0 -18 0 -14 -20 -14 -20 -18 0 -18 0 0 -18 0 -18 -20 -14 -20
-14 0 -18 0 -18 -10 0 -10 0 0 -70 0 -70 10 0 10 0 0 -18 0 -18 20 -14 20 -14
0 -18 0 -18 18 0 18 0 14 -20 14 -20 18 0 18 0 0 -10 0 -10 70 0 70 0 0 10 0
10 18 0 18 0 14 20 14 20 18 0 18 0 0 15 0 16 25 24 24 25 16 0 15 0 0 -20 0
-20 -20 0 -20 0 0 -10 0 -10 50 0 50 0 0 10 0 10 -20 0 -20 0 0 20 0 20 45 0
46 0 24 25 25 24 0 46 0 45 15 0 16 0 89 90 89 90 12 0 11 0 28 30 28 30 16 0
16 0 0 -30 0 -30 10 0 10 0 0 -10 0 -10 -18 0 -18 0 -14 -20 -14 -20 -18 0
-18 0 0 -18 0 -18 -20 -14 -20 -14 0 -18 0 -18 -10 0 -10 0 0 -70 0 -70 10 0
10 0 0 -18 0 -18 20 -14 20 -14 0 -18 0 -18 18 0 18 0 14 -20 14 -20 18 0 18
0 0 -10 0 -10 70 0 70 0 0 10 0 10 18 0 18 0 14 20 14 20 18 0 18 0 0 18 0 18
20 14 20 14 0 18 0 18 10 0 10 0 0 70 0 70 -10 0 -10 0 0 18 0 18 -20 14 -20
14 0 18 0 18 -18 0 -18 0 -14 20 -14 20 -18 0 -18 0 0 10 0 10 -70 0 -70 0 0
30 0 30 -10 0 -10 0 0 40 0 40 19 0 19 0 6 -12 6 -13 6 13 6 12 15 0 14 0 15
-14 14 -15 0 -15 0 -16 -40 0 -40 0 0 -10 0 -10 40 0 40 0 0 10 0 10 19 0 19
0 5 -12 4 -13 9 9 9 9 -12 4 -13 5 0 19 0 19 -18 0 -18 0 -14 20 -14 20 -48 0
-48 0 0 10 0 10 -10 0 -10 0 0 -40 0 -40 -210 0 -210 0 0 20 0 20 50 0 50 0 0
5 0 6 -25 24 -24 25 -76 0 -75 0 0 -30z m86 -104 l14 -15 0 -55 0 -56 10 0 10
0 0 -50 0 -50 -50 0 -50 0 0 18 0 18 -20 14 -20 14 0 17 0 17 -12 4 -13 5 53
51 52 51 0 15 0 16 6 0 5 0 15 -14z m414 9 l0 -6 -25 -24 -24 -25 -11 0 -11 0
-89 -90 -89 -90 -16 0 -15 0 0 -10 0 -10 -10 0 -10 0 0 20 0 20 10 0 10 0 0
20 0 20 20 0 20 0 0 10 0 10 -50 0 -50 0 0 -10 0 -10 20 0 20 0 0 -16 0 -15
-14 -15 -15 -14 -15 0 -16 0 0 50 0 50 -10 0 -10 0 0 60 0 60 -10 0 -10 0 0
10 0 10 200 0 200 0 0 -5z m-700 -175 l0 -80 -15 0 -16 0 -44 45 -45 44 0 11
0 11 14 15 15 14 15 0 16 0 0 10 0 10 30 0 30 0 0 -80z m80 70 l0 -10 16 0 15
0 15 -15 15 -15 -55 -55 -56 -55 -5 0 -5 0 0 80 0 80 30 0 30 0 0 -10z m740
-50 l0 -60 -10 0 -10 0 0 -20 0 -20 -5 0 -6 0 -44 45 -45 44 0 11 0 11 14 15
15 14 11 0 11 0 15 -14 14 -15 0 -35 0 -36 10 0 10 0 0 40 0 40 -10 0 -10 0 0
20 0 20 20 0 20 0 0 -60z m80 50 l0 -10 16 0 15 0 15 -14 14 -15 0 -11 0 -11
-51 -50 -51 -50 5 -6 6 -5 50 51 50 51 11 0 11 0 15 -14 14 -15 0 -15 0 -16
10 0 10 0 0 -30 0 -30 -90 0 -90 0 0 -10 0 -10 90 0 90 0 0 -30 0 -30 -10 0
-10 0 0 -16 0 -15 -14 -15 -15 -14 -11 0 -11 0 -61 62 -60 61 -9 -14 -9 -14
-9 14 -9 14 -60 -61 -61 -62 -11 0 -11 0 -15 14 -14 15 0 15 0 16 -10 0 -10 0
0 30 0 30 90 0 90 0 0 10 0 10 -90 0 -90 0 0 30 0 30 10 0 10 0 0 16 0 15 14
15 15 14 11 0 11 0 70 -71 69 -70 18 17 17 17 -13 5 -12 4 0 89 0 89 30 0 30
0 0 -10z m-985 -115 l45 -44 0 -16 0 -15 -80 0 -80 0 0 30 0 30 10 0 10 0 0
15 0 16 13 14 12 14 13 1 13 0 44 -45z m271 31 l14 -15 0 -25 0 -26 10 0 10 0
0 -20 0 -20 -80 0 -80 0 0 10 0 10 70 0 70 0 0 10 0 10 -60 0 -60 0 0 5 0 6
33 34 32 34 13 0 13 1 15 -14z m94 -76 l0 -10 -10 0 -10 0 0 -40 0 -40 10 0
10 0 0 36 0 35 14 15 15 14 15 0 16 0 0 -20 0 -20 -10 0 -10 0 0 -15 0 -16
-25 -24 -24 -25 -16 0 -15 0 0 60 0 60 20 0 20 0 0 -10z m120 -56 l0 -25 -14
-15 -15 -14 -25 0 -26 0 0 20 0 20 18 0 18 0 14 20 14 20 8 0 8 0 0 -26z
m-440 -9 l0 -16 -45 -44 -44 -45 -11 0 -11 0 -15 14 -14 15 0 15 0 16 -10 0
-10 0 0 30 0 30 80 0 80 0 0 -15z m260 -5 l0 -20 -60 0 -60 0 0 10 0 10 -20 0
-20 0 0 10 0 10 80 0 80 0 0 -20z m600 -90 l0 -90 -30 0 -30 0 0 10 0 10 -16
0 -15 0 -15 14 -14 15 0 10 0 11 53 54 52 55 8 0 7 1 0 -90z m85 35 l55 -55 0
-10 0 -11 -14 -15 -15 -14 -15 0 -16 0 0 -10 0 -10 -30 0 -30 0 0 90 0 90 5 0
5 0 55 -55z m-905 -45 l0 -80 -30 0 -30 0 0 10 0 10 -16 0 -15 0 -15 14 -14
15 0 11 0 10 43 45 42 44 18 0 17 1 0 -80z m95 35 l45 -44 0 -11 0 -11 -14
-15 -15 -14 -15 0 -16 0 0 -10 0 -10 -30 0 -30 0 0 80 0 80 15 0 16 0 44 -45z
m5 35 l0 -10 50 0 50 0 0 -16 0 -15 -14 -15 -15 -14 -11 0 -11 0 -34 35 -35
34 0 6 0 5 10 0 10 0 0 -10z"/>
<path d="M0 100 l0 -100 640 0 640 0 0 100 0 100 -640 0 -640 0 0 -100z"/>
</g>
</svg>
