<?xml version="1.0" standalone="no"?>
<!DOCTYPE svg PUBLIC "-//W3C//DTD SVG 20010904//EN"
 "http://www.w3.org/TR/2001/REC-SVG-20010904/DTD/svg10.dtd">
<svg version="1.0" xmlns="http://www.w3.org/2000/svg"
 width="468pt" height="468pt" viewBox="0 0 468 468"
 preserveAspectRatio="xMidYMid meet">
<metadata>
Created by potrace 1.8, written by Peter Selinger 2001-2007
</metadata>
<g transform="translate(0,468) scale(0.365625,-0.365625)"
fill="#000000" stroke="none">
<path d="M360 1140 l0 -20 -60 0 -60 0 0 -20 0 -20 -20 0 -20 0 0 -20 0 -20
-20 0 -20 0 0 -20 0 -20 -20 0 -20 0 0 -20 0 -20 -20 0 -20 0 0 -20 0 -20 -20
0 -20 0 0 -20 0 -20 -20 0 -20 0 0 -260 0 -260 20 0 20 0 0 -20 0 -20 20 0 20
0 0 -20 0 -20 20 0 20 0 0 -20 0 -20 20 0 20 0 0 -20 0 -20 20 0 20 0 0 -20 0
-20 20 0 20 0 0 -20 0 -20 400 0 400 0 0 20 0 20 20 0 20 0 0 20 0 20 20 0 20
0 0 20 0 20 20 0 20 0 0 20 0 20 20 0 20 0 0 20 0 20 20 0 20 0 0 20 0 20 20
0 20 0 0 140 0 140 -20 0 -20 0 0 20 0 20 -20 0 -20 0 0 20 0 20 -180 0 -180
0 0 20 0 20 -20 0 -20 0 0 20 0 20 20 0 20 0 0 20 0 20 20 0 20 0 0 60 0 60
-20 0 -20 0 0 20 0 20 -40 0 -40 0 0 20 0 20 -40 0 -40 0 0 20 0 20 -20 0 -20
0 0 20 0 20 -60 0 -60 0 0 20 0 20 -80 0 -80 0 0 -20z m40 -80 l0 -20 -20 0
-20 0 0 -20 0 -20 -20 0 -20 0 0 20 0 20 20 0 20 0 0 20 0 20 20 0 20 0 0 -20z
m120 0 l0 -20 20 0 20 0 0 -20 0 -20 -20 0 -20 0 0 20 0 20 -40 0 -40 0 0 20
0 20 40 0 40 0 0 -20z m-240 -40 l0 -20 -20 0 -20 0 0 -20 0 -20 -20 0 -20 0
0 -20 0 -20 -20 0 -20 0 0 -20 0 -20 -20 0 -20 0 0 -20 0 -20 -20 0 -20 0 0
-20 0 -20 -20 0 -20 0 0 20 0 20 20 0 20 0 0 20 0 20 20 0 20 0 0 20 0 20 20
0 20 0 0 20 0 20 20 0 20 0 0 20 0 20 20 0 20 0 0 20 0 20 20 0 20 0 0 -20z
m360 0 l0 -20 20 0 20 0 0 -20 0 -20 20 0 20 0 0 -20 0 -20 20 0 20 0 0 20 0
20 20 0 20 0 0 -20 0 -20 -20 0 -20 0 0 -20 0 -20 20 0 20 0 0 -20 0 -20 -20
0 -20 0 0 20 0 20 -20 0 -20 0 0 20 0 20 -20 0 -20 0 0 20 0 20 -20 0 -20 0 0
20 0 20 -20 0 -20 0 0 20 0 20 20 0 20 0 0 -20z m-560 -280 l0 -20 -20 0 -20
0 0 20 0 20 20 0 20 0 0 -20z m400 0 l0 -20 20 0 20 0 0 -20 0 -20 20 0 20 0
0 -40 0 -40 -20 0 -20 0 0 -20 0 -20 -20 0 -20 0 0 -20 0 -20 -40 0 -40 0 0
20 0 20 -20 0 -20 0 0 20 0 20 -20 0 -20 0 0 40 0 40 20 0 20 0 0 20 0 20 20
0 20 0 0 20 0 20 40 0 40 0 0 -20z m360 -40 l0 -20 120 0 120 0 0 -20 0 -20
-20 0 -20 0 0 -40 0 -40 20 0 20 0 0 20 0 20 20 0 20 0 0 -20 0 -20 20 0 20 0
0 40 0 40 20 0 20 0 0 -40 0 -40 -20 0 -20 0 0 -20 0 -20 20 0 20 0 0 -20 0
-20 -20 0 -20 0 0 -20 0 -20 20 0 20 0 0 -20 0 -20 -20 0 -20 0 0 -20 0 -20
-20 0 -20 0 0 -20 0 -20 -20 0 -20 0 0 -20 0 -20 -20 0 -20 0 0 -20 0 -20 -20
0 -20 0 0 -20 0 -20 -20 0 -20 0 0 20 0 20 -20 0 -20 0 0 -20 0 -20 -20 0 -20
0 0 20 0 20 -20 0 -20 0 0 -20 0 -20 -20 0 -20 0 0 20 0 20 -20 0 -20 0 0 -20
0 -20 -20 0 -20 0 0 20 0 20 -20 0 -20 0 0 -20 0 -20 -20 0 -20 0 0 20 0 20
-20 0 -20 0 0 -20 0 -20 -20 0 -20 0 0 20 0 20 -20 0 -20 0 0 -20 0 -20 -40 0
-40 0 0 20 0 20 40 0 40 0 0 20 0 20 20 0 20 0 0 -20 0 -20 20 0 20 0 0 20 0
20 20 0 20 0 0 20 0 20 20 0 20 0 0 20 0 20 20 0 20 0 0 20 0 20 20 0 20 0 0
20 0 20 20 0 20 0 0 20 0 20 20 0 20 0 0 20 0 20 -20 0 -20 0 0 20 0 20 20 0
20 0 0 -20 0 -20 20 0 20 0 0 20 0 20 20 0 20 0 0 -20 0 -20 20 0 20 0 0 20 0
20 20 0 20 0 0 20 0 20 -80 0 -80 0 0 40 0 40 -20 0 -20 0 0 20 0 20 20 0 20
0 0 -20z m-760 -160 l0 -20 -20 0 -20 0 0 20 0 20 20 0 20 0 0 -20z m0 -80 l0
-20 20 0 20 0 0 -20 0 -20 20 0 20 0 0 -20 0 -20 20 0 20 0 0 -20 0 -20 20 0
20 0 0 -20 0 -20 20 0 20 0 0 -20 0 -20 20 0 20 0 0 20 0 20 20 0 20 0 0 -20
0 -20 20 0 20 0 0 -20 0 -20 -20 0 -20 0 0 20 0 20 -20 0 -20 0 0 -20 0 -20
-20 0 -20 0 0 20 0 20 -20 0 -20 0 0 20 0 20 -20 0 -20 0 0 20 0 20 -20 0 -20
0 0 20 0 20 -20 0 -20 0 0 20 0 20 -20 0 -20 0 0 20 0 20 -20 0 -20 0 0 20 0
20 20 0 20 0 0 -20z"/>
<path d="M1000 540 l0 -20 -20 0 -20 0 0 -20 0 -20 -20 0 -20 0 0 20 0 20 -20
0 -20 0 0 -20 0 -20 -20 0 -20 0 0 -20 0 -20 -20 0 -20 0 0 -20 0 -20 -20 0
-20 0 0 -20 0 -20 -20 0 -20 0 0 -20 0 -20 -20 0 -20 0 0 -20 0 -20 -20 0 -20
0 0 -20 0 -20 20 0 20 0 0 20 0 20 20 0 20 0 0 -20 0 -20 20 0 20 0 0 20 0 20
20 0 20 0 0 -20 0 -20 20 0 20 0 0 20 0 20 20 0 20 0 0 -20 0 -20 20 0 20 0 0
20 0 20 20 0 20 0 0 -20 0 -20 20 0 20 0 0 20 0 20 20 0 20 0 0 20 0 20 20 0
20 0 0 20 0 20 20 0 20 0 0 20 0 20 20 0 20 0 0 20 0 20 -20 0 -20 0 0 20 0
20 20 0 20 0 0 20 0 20 -20 0 -20 0 0 20 0 20 -20 0 -20 0 0 -20 0 -20 -20 0
-20 0 0 20 0 20 -20 0 -20 0 0 -20z m40 -40 l0 -20 20 0 20 0 0 20 0 20 20 0
20 0 0 -20 0 -20 -20 0 -20 0 0 -20 0 -20 20 0 20 0 0 -20 0 -20 -20 0 -20 0
0 -20 0 -20 -20 0 -20 0 0 -20 0 -20 -20 0 -20 0 0 -20 0 -20 -20 0 -20 0 0
20 0 20 -20 0 -20 0 0 -20 0 -20 -20 0 -20 0 0 20 0 20 -20 0 -20 0 0 -20 0
-20 -20 0 -20 0 0 20 0 20 -20 0 -20 0 0 -20 0 -20 -20 0 -20 0 0 20 0 20 20
0 20 0 0 20 0 20 20 0 20 0 0 20 0 20 20 0 20 0 0 20 0 20 20 0 20 0 0 20 0
20 20 0 20 0 0 -20 0 -20 20 0 20 0 0 20 0 20 20 0 20 0 0 20 0 20 20 0 20 0
0 -20z"/>
<path d="M1000 460 l0 -20 -20 0 -20 0 0 -20 0 -20 -20 0 -20 0 0 20 0 20 -20
0 -20 0 0 -20 0 -20 -20 0 -20 0 0 -20 0 -20 -20 0 -20 0 0 -20 0 -20 20 0 20
0 0 20 0 20 20 0 20 0 0 -20 0 -20 20 0 20 0 0 20 0 20 20 0 20 0 0 -20 0 -20
20 0 20 0 0 20 0 20 20 0 20 0 0 20 0 20 20 0 20 0 0 20 0 20 -20 0 -20 0 0
20 0 20 -20 0 -20 0 0 -20z m40 -40 l0 -20 -20 0 -20 0 0 -20 0 -20 -20 0 -20
0 0 20 0 20 20 0 20 0 0 20 0 20 20 0 20 0 0 -20z m-120 -40 l0 -20 -20 0 -20
0 0 20 0 20 20 0 20 0 0 -20z"/>
</g>
</svg>
