<?xml version="1.0" standalone="no"?>
<!DOCTYPE svg PUBLIC "-//W3C//DTD SVG 20010904//EN"
 "http://www.w3.org/TR/2001/REC-SVG-20010904/DTD/svg10.dtd">
<svg version="1.0" xmlns="http://www.w3.org/2000/svg"
 width="468pt" height="468pt" viewBox="0 0 468 468"
 preserveAspectRatio="xMidYMid meet">
<metadata>
Created by potrace 1.8, written by Peter Selinger 2001-2007
</metadata>
<g transform="translate(0,468) scale(0.365625,-0.365625)"
fill="#000000" stroke="none">
<path d="M990 1205 l0 -15 -30 0 -30 0 0 -15 0 -15 -45 0 -45 0 0 -15 0 -15
-40 0 -40 0 0 -10 0 -10 -15 0 -15 0 0 -45 0 -45 15 0 15 0 0 -60 0 -60 -15 0
-15 0 0 -45 0 -45 -30 0 -30 0 0 -40 0 -40 15 0 15 0 0 -45 0 -45 15 0 15 0 0
-15 0 -15 30 0 30 0 0 -45 0 -45 10 0 10 0 0 -25 0 -25 30 0 30 0 0 -30 0 -30
15 0 15 0 0 -15 0 -15 -15 0 -15 0 0 -15 0 -15 -15 0 -15 0 0 -15 0 -15 -55 0
-55 0 0 15 0 15 -15 0 -15 0 0 15 0 15 -15 0 -15 0 0 55 0 55 -15 0 -15 0 0
15 0 15 -15 0 -15 0 0 15 0 15 -15 0 -15 0 0 15 0 15 -15 0 -15 0 0 15 0 15
-15 0 -15 0 0 30 0 30 -15 0 -15 0 0 30 0 30 -10 0 -10 0 0 15 0 15 -15 0 -15
0 0 15 0 15 -15 0 -15 0 0 10 0 10 -15 0 -15 0 0 15 0 15 -75 0 -75 0 0 -15 0
-15 -26 0 -25 0 -15 -14 -14 -15 0 -10 0 -11 -15 0 -15 0 0 -30 0 -30 -15 0
-15 0 0 -30 0 -30 -15 0 -15 0 0 -145 0 -145 15 0 15 0 0 -15 0 -15 -15 0 -15
0 0 -15 0 -15 -15 0 -15 0 0 -15 0 -15 -15 0 -15 0 0 -30 0 -30 15 0 15 0 0
-55 0 -55 15 0 15 0 0 85 0 85 30 0 30 0 0 -30 0 -30 40 0 40 0 0 -15 0 -15
-15 0 -15 0 0 -10 0 -10 15 0 15 0 0 -15 0 -15 15 0 15 0 0 -15 0 -15 15 0 15
0 0 -15 0 -15 15 0 15 0 0 15 0 15 -15 0 -15 0 0 15 0 15 -15 0 -15 0 0 25 0
25 15 0 15 0 0 15 0 15 15 0 15 0 0 -15 0 -15 15 0 15 0 0 -55 0 -55 -15 0
-15 0 0 -15 0 -15 -60 0 -60 0 0 30 0 30 -10 0 -10 0 0 30 0 30 -15 0 -15 0 0
10 0 10 -15 0 -15 0 0 -10 0 -10 15 0 15 0 0 -30 0 -30 15 0 15 0 0 -30 0 -30
-75 0 -75 0 0 -15 0 -15 640 0 640 0 0 30 0 30 -15 0 -15 0 0 -15 0 -15 -30 0
-30 0 0 30 0 30 15 0 15 0 0 30 0 30 15 0 15 0 0 25 0 25 15 0 15 0 0 30 0 30
-15 0 -15 0 0 -15 0 -15 -15 0 -15 0 0 -30 0 -30 -15 0 -15 0 0 30 0 30 -15 0
-15 0 0 30 0 30 -15 0 -15 0 0 30 0 30 30 0 30 0 0 15 0 15 15 0 15 0 0 15 0
15 15 0 15 0 0 15 0 15 15 0 15 0 0 25 0 25 -15 0 -15 0 0 -10 0 -10 -15 0
-15 0 0 -15 0 -15 -15 0 -15 0 0 -15 0 -15 -15 0 -15 0 0 -15 0 -15 -40 0 -40
0 0 15 0 15 -15 0 -15 0 0 15 0 15 -75 0 -75 0 0 25 0 25 -30 0 -30 0 0 15 0
15 30 0 30 0 0 15 0 15 -45 0 -45 0 0 15 0 15 15 0 15 0 0 15 0 15 30 0 30 0
0 -15 0 -15 15 0 15 0 0 15 0 15 -15 0 -15 0 0 15 0 15 -30 0 -30 0 0 -15 0
-15 -15 0 -15 0 0 15 0 15 -40 0 -40 0 0 15 0 15 15 0 15 0 0 45 0 45 15 0 15
0 0 -30 0 -30 10 0 10 0 0 -15 0 -15 30 0 30 0 0 15 0 15 30 0 30 0 0 55 0 55
15 0 15 0 0 15 0 15 45 0 45 0 0 -15 0 -15 15 0 15 0 0 -55 0 -55 25 0 25 0 0
15 0 15 15 0 15 0 0 30 0 30 15 0 15 0 0 10 0 10 15 0 15 0 0 -25 0 -25 -15 0
-15 0 0 -15 0 -15 15 0 15 0 0 -15 0 -15 -30 0 -30 0 0 -15 0 -15 30 0 30 0 0
15 0 15 15 0 15 0 0 -45 0 -45 15 0 15 0 0 75 0 75 -15 0 -15 0 0 25 0 25 -15
0 -15 0 0 15 0 15 -15 0 -15 0 0 -15 0 -15 -15 0 -15 0 0 15 0 15 15 0 15 0 0
15 0 15 30 0 30 0 0 -15 0 -15 15 0 15 0 0 160 0 160 -15 0 -15 0 0 15 0 15
-30 0 -30 0 0 15 0 15 -100 0 -100 0 0 -15z m0 -185 l0 -30 -15 0 -15 0 0 -45
0 -45 15 0 15 0 0 -15 0 -15 -15 0 -15 0 0 -15 0 -15 -85 0 -85 0 0 -15 0 -15
55 0 55 0 0 -40 0 -40 -30 0 -30 0 0 15 0 15 15 0 15 0 0 15 0 15 -40 0 -40 0
0 10 0 10 -15 0 -15 0 0 45 0 45 15 0 15 0 0 45 0 45 25 0 25 0 0 15 0 15 45
0 45 0 0 15 0 15 30 0 30 0 0 -30z m-640 -220 l0 -10 30 0 30 0 0 -15 0 -15
15 0 15 0 0 -15 0 -15 15 0 15 0 0 -15 0 -15 -15 0 -15 0 0 15 0 15 -30 0 -30
0 0 15 0 15 -15 0 -15 0 0 -15 0 -15 15 0 15 0 0 -15 0 -15 15 0 15 0 0 -15 0
-15 -45 0 -45 0 0 -15 0 -15 -15 0 -15 0 0 45 0 45 -15 0 -15 0 0 -30 0 -30
-15 0 -15 0 0 -15 0 -15 -15 0 -15 0 0 -15 0 -15 15 0 15 0 0 15 0 15 15 0 15
0 0 -15 0 -15 15 0 15 0 0 -15 0 -15 30 0 30 0 0 -15 0 -15 15 0 15 0 0 -15 0
-15 15 0 15 0 0 15 0 15 15 0 15 0 0 15 0 15 -30 0 -30 0 0 15 0 15 30 0 30 0
0 -15 0 -15 15 0 15 0 0 -30 0 -30 10 0 10 0 0 -15 0 -15 -10 0 -10 0 0 -55 0
-55 -15 0 -15 0 0 -15 0 -15 -15 0 -15 0 0 -15 0 -15 -15 0 -15 0 0 15 0 15
-30 0 -30 0 0 15 0 15 -15 0 -15 0 0 15 0 15 -15 0 -15 0 0 15 0 15 -15 0 -15
0 0 15 0 15 -15 0 -15 0 0 25 0 25 15 0 15 0 0 -15 0 -15 15 0 15 0 0 15 0 15
15 0 15 0 0 -15 0 -15 15 0 15 0 0 -25 0 -25 15 0 15 0 0 15 0 15 15 0 15 0 0
10 0 10 -15 0 -15 0 0 30 0 30 -45 0 -45 0 0 30 0 30 -15 0 -15 0 0 -15 0 -15
-15 0 -15 0 0 15 0 15 -15 0 -15 0 0 -30 0 -30 -10 0 -10 0 0 30 0 30 10 0 10
0 0 30 0 30 15 0 15 0 0 15 0 15 -15 0 -15 0 0 -15 0 -15 -10 0 -10 0 0 -15 0
-15 -15 0 -15 0 0 -15 0 -15 -15 0 -15 0 0 15 0 15 15 0 15 0 0 30 0 30 15 0
15 0 0 15 0 15 10 0 10 0 0 15 0 15 30 0 30 0 0 15 0 15 15 0 15 0 0 10 0 10
45 0 45 0 0 -10z m380 -40 l0 -30 -15 0 -15 0 0 30 0 30 15 0 15 0 0 -30z
m520 -15 l0 -15 -15 0 -15 0 0 15 0 15 15 0 15 0 0 -15z m-700 -210 l0 -15 15
0 15 0 0 -15 0 -15 15 0 15 0 0 -10 0 -10 15 0 15 0 0 -30 0 -30 -15 0 -15 0
0 30 0 30 -30 0 -30 0 0 10 0 10 -15 0 -15 0 0 30 0 30 15 0 15 0 0 -15z
m-430 -100 l0 -55 15 0 15 0 0 -15 0 -15 10 0 10 0 0 -15 0 -15 15 0 15 0 0
-15 0 -15 30 0 30 0 0 -15 0 -15 -45 0 -45 0 0 15 0 15 -10 0 -10 0 0 15 0 15
-15 0 -15 0 0 30 0 30 -15 0 -15 0 0 55 0 55 15 0 15 0 0 -55z m80 -40 l0 -15
15 0 15 0 0 -15 0 -15 30 0 30 0 0 -15 0 -15 -30 0 -30 0 0 15 0 15 -15 0 -15
0 0 15 0 15 -15 0 -15 0 0 15 0 15 15 0 15 0 0 -15z m820 0 l0 -15 15 0 15 0
0 -15 0 -15 -30 0 -30 0 0 -30 0 -30 -15 0 -15 0 0 60 0 60 30 0 30 0 0 -15z
m-470 -120 l0 -105 -15 0 -15 0 0 -10 0 -10 -15 0 -15 0 0 -15 0 -15 15 0 15
0 0 -15 0 -15 15 0 15 0 0 -15 0 -15 15 0 15 0 0 30 0 30 -15 0 -15 0 0 15 0
15 15 0 15 0 0 100 0 100 45 0 45 0 0 -15 0 -15 15 0 15 0 0 -15 0 -15 45 0
45 0 0 -15 0 -15 10 0 10 0 0 -15 0 -15 -10 0 -10 0 0 -15 0 -15 -15 0 -15 0
0 -25 0 -25 -15 0 -15 0 0 -15 0 -15 -15 0 -15 0 0 -15 0 -15 -15 0 -15 0 0
-15 0 -15 -45 0 -45 0 0 -15 0 -15 -70 0 -70 0 0 15 0 15 15 0 15 0 0 55 0 55
10 0 10 0 0 60 0 60 15 0 15 0 0 45 0 45 15 0 15 0 0 -105z m380 15 l0 -60
-15 0 -15 0 0 -15 0 -15 -15 0 -15 0 0 -15 0 -15 -15 0 -15 0 0 -10 0 -10 15
0 15 0 0 -15 0 -15 15 0 15 0 0 -15 0 -15 -15 0 -15 0 0 -15 0 -15 -15 0 -15
0 0 -15 0 -15 -40 0 -40 0 0 45 0 45 15 0 15 0 0 25 0 25 10 0 10 0 0 15 0 15
15 0 15 0 0 15 0 15 15 0 15 0 0 45 0 45 15 0 15 0 0 15 0 15 15 0 15 0 0 -60z
m-460 -15 l0 -15 -15 0 -15 0 0 15 0 15 15 0 15 0 0 -15z m-120 -30 l0 -15
-15 0 -15 0 0 15 0 15 15 0 15 0 0 -15z m60 0 l0 -15 -15 0 -15 0 0 15 0 15
15 0 15 0 0 -15z m550 -115 l0 -100 -45 0 -45 0 0 15 0 15 30 0 30 0 0 45 0
45 -15 0 -15 0 0 25 0 25 15 0 15 0 0 15 0 15 15 0 15 0 0 -100z m200 0 l0
-100 -40 0 -40 0 0 45 0 45 -15 0 -15 0 0 15 0 15 15 0 15 0 0 10 0 10 15 0
15 0 0 15 0 15 10 0 10 0 0 15 0 15 15 0 15 0 0 -100z m-430 -70 l0 -30 -30 0
-30 0 0 15 0 15 15 0 15 0 0 15 0 15 15 0 15 0 0 -30z"/>
<path d="M260 775 l0 -15 15 0 15 0 0 15 0 15 -15 0 -15 0 0 -15z"/>
<path d="M350 425 l0 -15 -15 0 -15 0 0 -15 0 -15 45 0 45 0 0 15 0 15 15 0
15 0 0 15 0 15 -45 0 -45 0 0 -15z"/>
<path d="M670 275 l0 -15 -15 0 -15 0 0 -30 0 -30 15 0 15 0 0 15 0 15 15 0
15 0 0 30 0 30 -15 0 -15 0 0 -15z"/>
<path d="M1160 595 l0 -45 -15 0 -15 0 0 -15 0 -15 15 0 15 0 0 15 0 15 15 0
15 0 0 45 0 45 -15 0 -15 0 0 -45z"/>
<path d="M1080 505 l0 -15 15 0 15 0 0 15 0 15 -15 0 -15 0 0 -15z"/>
<path d="M1020 480 l0 -10 15 0 15 0 0 10 0 10 -15 0 -15 0 0 -10z"/>
</g>
</svg>
