<?xml version="1.0" standalone="no"?>
<!DOCTYPE svg PUBLIC "-//W3C//DTD SVG 20010904//EN"
 "http://www.w3.org/TR/2001/REC-SVG-20010904/DTD/svg10.dtd">
<svg version="1.0" xmlns="http://www.w3.org/2000/svg"
 width="468pt" height="468pt" viewBox="0 0 468 468"
 preserveAspectRatio="xMidYMid meet">
<metadata>
Created by potrace 1.8, written by Peter Selinger 2001-2007
</metadata>
<g transform="translate(0,468) scale(0.365625,-0.365625)"
fill="#000000" stroke="none">
<path d="M320 640 l0 -640 25 0 25 0 0 640 0 640 -25 0 -25 0 0 -640z"/>
<path d="M640 1065 l0 -215 -25 0 -25 0 0 -50 0 -50 -30 0 -30 0 0 -30 0 -30
-25 0 -25 0 0 -25 0 -25 25 0 25 0 0 25 0 25 30 0 30 0 0 -25 0 -25 25 0 25 0
0 -320 0 -320 25 0 25 0 0 25 0 25 30 0 30 0 0 30 0 30 -30 0 -30 0 0 25 0 25
30 0 30 0 0 25 0 25 -30 0 -30 0 0 30 0 30 30 0 30 0 0 25 0 25 -30 0 -30 0 0
25 0 25 30 0 30 0 0 30 0 30 -30 0 -30 0 0 25 0 25 30 0 30 0 0 25 0 25 -30 0
-30 0 0 30 0 30 80 0 80 0 0 -295 0 -295 55 0 55 0 0 25 0 25 -25 0 -25 0 0
30 0 30 25 0 25 0 0 25 0 25 -25 0 -25 0 0 25 0 25 25 0 25 0 0 30 0 30 -25 0
-25 0 0 25 0 25 25 0 25 0 0 25 0 25 -25 0 -25 0 0 30 0 30 25 0 25 0 0 25 0
25 -25 0 -25 0 0 25 0 25 25 0 25 0 0 30 0 30 -25 0 -25 0 0 50 0 50 -30 0
-30 0 0 30 0 30 30 0 30 0 0 50 0 50 25 0 25 0 0 30 0 30 -25 0 -25 0 0 25 0
25 25 0 25 0 0 25 0 25 -25 0 -25 0 0 30 0 30 25 0 25 0 0 25 0 25 -25 0 -25
0 0 25 0 25 25 0 25 0 0 30 0 30 -25 0 -25 0 0 25 0 25 -30 0 -30 0 0 -215 0
-215 -80 0 -80 0 0 30 0 30 30 0 30 0 0 25 0 25 -30 0 -30 0 0 25 0 25 30 0
30 0 0 30 0 30 -30 0 -30 0 0 25 0 25 30 0 30 0 0 25 0 25 -30 0 -30 0 0 30 0
30 30 0 30 0 0 25 0 25 -55 0 -55 0 0 -215z m210 -290 l0 -25 -25 0 -25 0 0
-30 0 -30 -25 0 -25 0 0 30 0 30 -55 0 -55 0 0 25 0 25 105 0 105 0 0 -25z"/>
<path d="M530 1145 l0 -25 -25 0 -25 0 0 -25 0 -25 25 0 25 0 0 25 0 25 30 0
30 0 0 25 0 25 -30 0 -30 0 0 -25z"/>
<path d="M530 935 l0 -25 -25 0 -25 0 0 -30 0 -30 25 0 25 0 0 30 0 30 30 0
30 0 0 25 0 25 -30 0 -30 0 0 -25z"/>
<path d="M110 825 l0 -25 25 0 25 0 0 25 0 25 -25 0 -25 0 0 -25z"/>
<path d="M1070 825 l0 -25 25 0 25 0 0 25 0 25 -25 0 -25 0 0 -25z"/>
<path d="M210 775 l0 -25 30 0 30 0 0 25 0 25 -30 0 -30 0 0 -25z"/>
<path d="M1010 720 l0 -30 30 0 30 0 0 30 0 30 -30 0 -30 0 0 -30z"/>
<path d="M160 665 l0 -25 25 0 25 0 0 25 0 25 -25 0 -25 0 0 -25z"/>
<path d="M210 560 l0 -30 30 0 30 0 0 30 0 30 -30 0 -30 0 0 -30z"/>
<path d="M1070 560 l0 -30 25 0 25 0 0 30 0 30 -25 0 -25 0 0 -30z"/>
<path d="M530 505 l0 -25 -25 0 -25 0 0 -25 0 -25 25 0 25 0 0 25 0 25 30 0
30 0 0 25 0 25 -30 0 -30 0 0 -25z"/>
<path d="M530 295 l0 -25 -25 0 -25 0 0 -30 0 -30 25 0 25 0 0 30 0 30 30 0
30 0 0 25 0 25 -30 0 -30 0 0 -25z"/>
<path d="M530 80 l0 -30 -25 0 -25 0 0 -25 0 -25 25 0 25 0 0 25 0 25 30 0 30
0 0 30 0 30 -30 0 -30 0 0 -30z"/>
</g>
</svg>
