<?xml version="1.0" standalone="no"?>
<!DOCTYPE svg PUBLIC "-//W3C//DTD SVG 20010904//EN"
 "http://www.w3.org/TR/2001/REC-SVG-20010904/DTD/svg10.dtd">
<svg version="1.0" xmlns="http://www.w3.org/2000/svg"
 width="468pt" height="468pt" viewBox="0 0 468 468"
 preserveAspectRatio="xMidYMid meet">
<metadata>
Created by potrace 1.8, written by Peter Selinger 2001-2007
</metadata>
<g transform="translate(0,468) scale(0.365625,-0.365625)"
fill="#000000" stroke="none">
<path d="M860 1150 l0 -10 -15 0 -16 0 -24 -25 -25 -24 0 -36 0 -35 10 0 10 0
0 -18 0 -18 20 -14 20 -14 0 -28 0 -28 10 0 10 0 0 -16 0 -15 -14 -15 -15 -14
-35 0 -36 0 0 10 0 10 -59 0 -59 0 -6 -12 -6 -13 -6 13 -6 12 -15 0 -16 0 -20
-22 -20 -23 -4 13 -5 12 -19 0 -19 0 0 10 0 10 19 0 19 0 4 -12 5 -13 16 17
17 17 0 5 0 6 -45 0 -46 0 -24 -25 -25 -24 0 -6 0 -5 30 0 30 0 0 -10 0 -10
-19 0 -19 0 -5 -12 -4 -13 -20 23 -20 22 -27 0 -26 0 0 10 0 10 -60 0 -60 0 0
-10 0 -10 -15 0 -16 0 -24 -25 -25 -24 0 -6 0 -5 20 0 20 0 0 10 0 10 38 0 38
0 14 -20 14 -20 18 0 18 0 0 10 0 10 -10 0 -10 0 0 20 0 20 -9 0 -9 0 -6 -12
-6 -13 -6 13 -6 12 -19 0 -19 0 0 10 0 10 19 0 19 0 5 -12 5 -13 11 15 11 15
10 -15 10 -15 9 15 10 14 21 -24 21 -24 9 13 8 14 17 -17 17 -17 -6 -7 -7 -6
-9 14 -9 14 -19 -22 -19 -22 -12 0 -11 0 -55 -55 -55 -55 0 -15 0 -15 -10 0
-10 0 0 -18 0 -18 -20 -14 -20 -14 0 -14 0 -14 -32 -30 -32 -30 14 -8 14 -9
-8 -8 -9 -8 -4 13 -5 12 -19 0 -19 0 0 -10 0 -10 -20 0 -20 0 0 -10 0 -10 50
0 50 0 0 10 0 10 16 0 16 0 38 40 38 40 16 0 16 0 0 10 0 10 20 0 20 0 0 10 0
10 36 0 37 0 19 22 19 22 10 -14 9 -15 9 15 10 14 7 -6 6 -7 -15 -16 -16 -15
-15 0 -16 0 0 -15 0 -16 -35 -34 -34 -35 -16 0 -15 0 0 -6 0 -5 14 -15 15 -14
5 0 6 0 0 16 0 15 15 15 15 15 25 -25 25 -25 0 -6 0 -5 -19 0 -19 0 -4 12 -5
13 -17 -18 -17 -17 15 -15 15 -15 11 0 10 0 55 55 55 55 0 15 0 15 20 0 20 0
0 26 0 25 17 17 16 17 5 -13 4 -12 18 0 18 0 5 13 5 12 11 -15 10 -14 8 8 8 9
-12 4 -13 5 0 9 0 9 20 0 20 0 0 -20 0 -20 10 0 10 0 0 20 0 20 9 0 9 0 5 -12
4 -13 23 25 23 25 4 -12 5 -13 9 0 9 0 0 20 0 20 -20 0 -20 0 0 20 0 20 -10 0
-10 0 0 -16 0 -15 -16 -16 -16 -16 -8 14 -9 13 -8 -7 -7 -8 14 -9 14 -9 -6 -7
-7 -6 -16 16 -16 16 17 17 17 18 5 -13 4 -12 9 0 9 0 0 20 0 20 -16 0 -17 0
-19 -22 -19 -22 -9 14 -9 14 -20 -23 -21 -24 -20 23 -20 23 -8 -8 -7 -8 13 -4
12 -5 0 -9 0 -9 -19 0 -19 0 -5 13 -4 12 -9 -9 -9 -9 13 -4 12 -5 0 -9 0 -9
-19 0 -19 0 -5 13 -5 12 -11 -15 -11 -15 -9 15 -10 14 -19 -22 -19 -22 -16 0
-15 0 -5 13 -4 12 -22 -25 -22 -24 -9 14 -8 14 -30 -32 -30 -32 -16 0 -16 0 0
-20 0 -20 -20 0 -20 0 0 10 0 10 10 0 10 0 0 18 0 18 20 14 20 14 0 18 0 18
10 0 10 0 0 15 0 16 35 34 34 35 16 0 15 0 0 10 0 10 20 0 20 0 0 10 0 10 18
0 18 0 14 20 14 20 18 0 18 0 0 10 0 10 40 0 40 0 0 10 0 10 30 0 30 0 0 10 0
10 60 0 60 0 0 -10 0 -10 35 0 36 0 24 25 25 24 0 16 0 15 -10 0 -10 0 0 28 0
28 -20 14 -20 14 0 18 0 18 -10 0 -10 0 0 36 0 35 14 15 15 14 15 0 16 0 0 10
0 10 70 0 70 0 0 -10 0 -10 20 0 20 0 0 -10 0 -10 20 0 20 0 0 -20 0 -20 20 0
20 0 0 -6 0 -5 -15 -15 -15 -16 -39 41 -39 41 -16 0 -16 0 0 10 0 10 -50 0
-50 0 0 -10 0 -10 -16 0 -15 0 -15 -14 -14 -15 0 -15 0 -16 10 0 10 0 0 -18 0
-18 20 -14 20 -14 0 -18 0 -18 10 0 10 0 0 -29 0 -29 13 -5 12 -5 -15 -11 -15
-11 15 -9 14 -10 -24 -22 -25 -22 13 -4 12 -5 0 -19 0 -19 -9 0 -9 0 -4 12 -5
13 -16 -17 -17 -17 0 -12 0 -12 -21 -18 -21 -18 16 -16 16 -16 17 16 16 17
-14 10 -14 10 13 5 12 5 0 19 0 19 10 0 10 0 0 -19 0 -19 -12 -5 -13 -5 15
-11 14 -10 -24 -22 -25 -22 13 -4 12 -5 0 -18 0 -18 13 -5 12 -4 -22 -20 -23
-20 0 -27 0 -26 -10 0 -10 0 0 -90 0 -90 5 0 6 0 34 35 35 34 0 16 0 15 10 0
10 0 0 18 0 18 20 14 20 14 0 48 0 48 -10 0 -10 0 0 29 0 29 -12 6 -13 6 13 6
12 6 0 49 0 49 -10 0 -10 0 0 20 0 20 10 0 10 0 0 60 0 60 -10 0 -10 0 0 20 0
20 -10 0 -10 0 0 18 0 18 -20 14 -20 14 0 18 0 18 -10 0 -10 0 0 20 0 20 20 0
20 0 0 10 0 10 50 0 50 0 0 -10 0 -10 16 0 16 0 38 -40 38 -40 15 0 15 0 5
-12 4 -13 9 9 9 9 -12 4 -13 5 0 9 0 9 20 0 20 0 0 5 0 6 -45 44 -44 45 -16 0
-15 0 0 10 0 10 -20 0 -20 0 0 10 0 10 -70 0 -70 0 0 -10z m60 -360 l0 -10
-10 0 -10 0 0 10 0 10 10 0 10 0 0 -10z m0 -69 l0 -19 -12 -6 -13 -6 13 -6 12
-6 0 -19 0 -19 -10 0 -10 0 0 -19 0 -19 13 -5 12 -4 -7 -8 -7 -7 -26 26 -27
27 23 20 23 20 -14 10 -15 11 13 5 12 5 0 19 0 19 10 0 10 0 0 -19z m-260 -97
l0 -15 -14 -15 -15 -14 -14 0 -15 0 -4 12 -4 12 -27 -26 -27 -27 0 -11 0 -12
-40 -38 -40 -38 0 -16 0 -16 -5 0 -6 0 -26 26 -25 25 7 7 8 7 4 -12 5 -13 9 0
9 0 0 16 0 15 14 15 15 14 15 0 16 0 0 9 0 9 -12 5 -13 5 15 11 15 11 -15 9
-14 10 7 7 7 7 19 -21 18 -22 7 0 6 0 0 20 0 20 19 0 19 0 6 13 6 12 6 -12 6
-13 19 0 19 0 0 20 0 20 10 0 10 0 0 -16z m120 10 l0 -5 -15 -16 -16 -15 -5 5
-6 6 13 15 14 15 8 1 7 0 0 -6z m-320 -44 l0 -10 -10 0 -10 0 0 10 0 10 10 0
10 0 0 -10z m-80 -20 l0 -10 -10 0 -10 0 0 10 0 10 10 0 10 0 0 -10z m-60 -20
l0 -10 -10 0 -10 0 0 10 0 10 10 0 10 0 0 -10z m607 -6 l16 -16 -14 -9 -14 -9
15 -11 15 -11 -12 -5 -13 -5 0 -17 0 -17 -20 -14 -20 -14 0 -18 0 -18 -10 0
-10 0 0 19 0 19 -12 5 -13 5 15 11 15 11 -15 11 -15 11 13 5 12 5 0 14 0 15
23 24 22 24 3 0 3 1 16 -16z m-747 -84 l0 -20 -10 0 -10 0 0 20 0 20 10 0 10
0 0 -20z"/>
<path d="M460 490 l0 -10 10 0 10 0 0 10 0 10 -10 0 -10 0 0 -10z"/>
<path d="M890 523 l-14 -17 12 -4 12 -4 0 -9 0 -9 -20 0 -20 0 0 -9 0 -9 13
-5 12 -5 -15 -11 -14 -10 6 -7 7 -6 16 15 15 16 0 14 0 15 13 5 12 5 -15 12
-15 12 13 5 12 5 0 9 0 9 -7 0 -8 -1 -15 -16z"/>
<path d="M20 930 l0 -10 390 0 390 0 0 10 0 10 -390 0 -390 0 0 -10z"/>
<path d="M960 930 l0 -10 150 0 150 0 0 10 0 10 -150 0 -150 0 0 -10z"/>
<path d="M40 870 l0 -10 70 0 70 0 0 10 0 10 -70 0 -70 0 0 -10z"/>
<path d="M1020 810 l0 -10 70 0 70 0 0 10 0 10 -70 0 -70 0 0 -10z"/>
<path d="M340 780 l0 -20 20 0 20 0 0 6 0 5 -14 15 -15 14 -5 0 -6 0 0 -20z"/>
<path d="M1100 710 l0 -10 70 0 70 0 0 10 0 10 -70 0 -70 0 0 -10z"/>
<path d="M120 690 l0 -10 50 0 50 0 0 10 0 10 -50 0 -50 0 0 -10z"/>
<path d="M0 610 l0 -10 60 0 60 0 0 10 0 10 -60 0 -60 0 0 -10z"/>
<path d="M820 570 l0 -10 -20 0 -20 0 0 -10 0 -10 -40 0 -40 0 0 -10 0 -10
-60 0 -60 0 0 -10 0 -10 60 0 60 0 0 10 0 10 40 0 40 0 0 10 0 10 20 0 20 0 0
10 0 10 20 0 20 0 0 10 0 10 -20 0 -20 0 0 -10z"/>
<path d="M1020 570 l0 -10 50 0 50 0 0 10 0 10 -50 0 -50 0 0 -10z"/>
<path d="M1160 530 l0 -10 60 0 60 0 0 10 0 10 -60 0 -60 0 0 -10z"/>
<path d="M1040 430 l0 -10 90 0 90 0 0 10 0 10 -90 0 -90 0 0 -10z"/>
<path d="M263 395 l-23 -24 0 -11 0 -11 14 -15 15 -14 41 0 41 0 15 15 15 15
-35 35 -35 35 -13 -1 -13 0 -22 -24z m37 -25 l0 -10 -10 0 -10 0 0 10 0 10 10
0 10 0 0 -10z m40 -10 l0 -20 -10 0 -10 0 0 20 0 20 10 0 10 0 0 -20z"/>
<path d="M580 370 l0 -10 70 0 70 0 0 10 0 10 -70 0 -70 0 0 -10z"/>
<path d="M100 330 l0 -10 40 0 40 0 0 10 0 10 -40 0 -40 0 0 -10z"/>
<path d="M960 330 l0 -10 70 0 70 0 0 10 0 10 -70 0 -70 0 0 -10z"/>
<path d="M280 270 l0 -10 180 0 180 0 0 10 0 10 -180 0 -180 0 0 -10z"/>
<path d="M1000 250 l0 -10 130 0 130 0 0 10 0 10 -130 0 -130 0 0 -10z"/>
<path d="M40 230 l0 -10 60 0 60 0 0 10 0 10 -60 0 -60 0 0 -10z"/>
<path d="M0 100 l0 -100 640 0 640 0 0 100 0 100 -640 0 -640 0 0 -100z"/>
</g>
</svg>
