<?xml version="1.0" standalone="no"?>
<!DOCTYPE svg PUBLIC "-//W3C//DTD SVG 20010904//EN"
 "http://www.w3.org/TR/2001/REC-SVG-20010904/DTD/svg10.dtd">
<svg version="1.0" xmlns="http://www.w3.org/2000/svg"
 width="468pt" height="468pt" viewBox="0 0 468 468"
 preserveAspectRatio="xMidYMid meet">
<metadata>
Created by potrace 1.8, written by Peter Selinger 2001-2007
</metadata>
<g transform="translate(0,468) scale(0.365625,-0.365625)"
fill="#000000" stroke="none">
<path d="M470 1265 l0 -15 10 0 10 0 0 15 0 15 -10 0 -10 0 0 -15z"/>
<path d="M717 1264 l5 -14 9 0 9 0 0 13 0 12 8 -13 8 -12 24 -5 24 -5 8 -15 9
-15 12 0 12 0 -15 10 -15 10 15 11 15 11 -17 -6 -17 -5 -16 15 -15 15 0 -13 0
-13 -9 13 -8 13 -26 3 -25 3 5 -13z"/>
<path d="M436 1254 l-6 -16 -15 6 -14 5 -31 -30 -30 -30 -105 -4 -105 -5 -14
-12 -13 -12 15 -16 16 -15 -17 -3 -17 -3 0 -8 0 -8 -30 -7 -30 -6 -21 -19 -22
-20 6 -15 6 -16 16 0 15 0 0 -9 0 -8 51 -5 51 -5 7 -10 6 -10 40 -6 40 -7 3
-10 4 -10 18 0 19 0 7 -11 7 -11 -28 -24 -28 -24 -24 0 -23 0 0 -9 0 -8 -46
-6 -46 -5 -7 -10 -6 -10 -25 -3 -25 -4 0 -35 0 -35 33 -3 32 -3 0 -10 0 -9 24
0 25 0 7 -12 7 -11 -19 -14 -19 -14 15 -9 15 -10 13 0 12 0 0 -9 0 -9 48 -4
47 -5 11 13 11 14 71 6 72 7 0 7 0 8 60 7 60 7 0 9 0 8 50 7 50 7 0 7 0 8 45
6 45 7 0 9 0 9 46 7 46 7 4 12 5 13 40 6 39 6 0 10 0 10 31 0 30 0 13 -12 14
-13 19 -14 20 -14 -17 -17 -17 -17 -103 -6 -103 -5 -6 -10 -6 -9 -47 -7 -48
-7 0 -9 0 -8 -60 -7 -60 -7 0 -8 0 -8 -45 -6 -45 -7 0 -10 0 -9 -30 0 -29 0
-9 -16 -9 -17 -51 -5 -52 -5 -6 17 -6 16 -14 0 -14 0 0 -11 0 -11 20 -5 20 -5
0 -9 0 -9 -160 0 -160 0 0 -285 0 -285 640 0 640 0 0 285 0 285 -300 0 -300 0
0 9 0 9 63 6 62 5 73 -2 73 -2 7 11 7 10 18 7 17 6 0 11 0 11 -15 5 -15 6 0 8
0 8 60 7 60 7 0 8 0 7 41 6 42 5 6 10 6 10 28 7 27 7 0 9 0 9 15 0 15 0 0 20
0 20 -25 6 -25 6 0 8 0 9 -45 7 -45 6 0 8 0 8 -35 6 -35 7 0 8 0 9 -21 5 -21
6 4 13 5 13 31 3 32 3 0 8 0 8 60 7 60 7 0 8 0 9 30 5 29 6 7 26 6 25 -23 25
-24 25 -12 0 -13 0 0 9 0 9 -30 7 -30 7 0 8 0 8 -45 6 -45 7 0 9 0 8 -77 8
-78 7 -23 24 -23 25 -6 -6 -7 -6 19 -14 18 -13 -7 -11 -7 -12 14 0 15 0 6 -22
6 -23 -18 -13 -17 -13 15 -9 15 -10 -11 0 -12 0 -6 -22 -6 -23 23 -17 22 -17
-22 -20 -21 -20 -25 -6 -26 -7 -5 -14 -6 -14 -26 4 -27 5 -23 -22 -24 -22 0
-12 0 -13 -15 0 -15 0 0 15 0 15 -10 0 -10 0 0 -15 0 -15 -14 0 -15 0 -4 18
-5 17 -1 -17 -1 -18 -15 0 -15 0 0 15 0 15 -10 0 -10 0 0 -15 0 -15 -15 0 -15
0 0 13 0 13 -22 19 -23 19 -17 1 -17 2 -13 -8 -12 -8 7 -8 8 -7 8 13 9 13 5
-13 5 -14 10 14 10 13 0 -27 0 -27 -9 13 -9 14 -9 -14 -9 -13 -4 13 -5 14 -9
-8 -8 -8 14 -9 14 -9 10 6 9 6 14 -18 13 -19 0 12 0 12 10 0 10 0 6 -25 6 -25
8 0 9 0 4 18 5 17 1 -17 1 -18 10 0 10 0 0 15 0 15 14 0 15 0 4 -17 5 -18 1
18 1 17 15 0 15 0 0 -15 0 -15 10 0 10 0 0 15 0 15 14 0 15 0 4 -17 5 -18 1
19 1 18 14 -5 14 -6 22 19 22 19 11 4 12 4 -8 9 -8 8 -8 -13 -8 -13 -6 17 -7
16 10 -6 10 -6 -6 18 -6 18 11 -15 11 -15 11 18 10 17 12 0 12 0 -15 -10 -15
-10 14 -9 13 -9 -13 -6 -14 -6 12 -6 12 -5 -17 -20 -16 -19 -12 0 -12 0 -6
-15 -5 -15 -16 0 -15 0 0 -10 0 -10 -90 0 -90 0 0 9 0 9 -45 6 -45 7 0 10 0 9
-15 0 -15 0 -2 18 -1 17 -3 30 -2 30 -1 13 -1 12 -23 0 -23 0 -17 20 -17 20 0
7 0 6 16 12 17 12 -36 34 -35 34 2 20 1 20 20 23 19 22 11 0 10 0 -15 -10 -14
-9 7 -7 7 -7 6 6 7 6 1 23 1 23 21 1 21 1 22 22 21 21 0 5 0 5 -9 0 -9 0 -6
-16z m334 -333 l0 -9 -15 -6 -15 -5 0 -16 0 -15 -10 0 -10 0 0 10 0 10 18 19
17 19 8 1 7 1 0 -9z m-240 -31 l0 -8 -13 -5 -13 -5 0 18 0 18 13 -5 13 -5 0
-8z m240 0 l0 -10 -10 0 -10 0 0 10 0 10 10 0 10 0 0 -10z m-458 -64 l9 -16
14 0 15 0 0 -8 0 -8 80 -13 80 -13 0 -9 0 -9 28 -1 27 -2 -27 -4 -28 -4 0 -10
0 -9 -20 0 -20 0 0 10 0 9 -50 7 -50 7 0 7 0 7 -72 7 -73 7 -22 6 -23 5 0 13
0 14 17 16 17 17 44 -5 45 -5 9 -16z m526 -158 l4 -8 41 0 42 0 23 -6 22 -6 0
-10 0 -10 -20 -5 -20 -5 0 -9 0 -9 -40 0 -40 0 0 10 0 9 -35 7 -35 6 0 9 0 8
-45 7 -45 6 0 9 0 8 33 4 32 3 40 -4 40 -5 3 -9z m-294 -74 l46 -7 0 -8 0 -9
-95 0 -95 0 0 9 0 10 18 4 17 5 31 1 31 1 47 -6z"/>
<path d="M846 1195 l-5 -15 20 -19 21 -19 -7 -11 -6 -11 -12 1 -12 1 13 5 12
5 0 9 0 9 -9 0 -9 0 -6 -15 -5 -14 14 -15 15 -14 -13 -5 -12 -4 8 -9 8 -8 9
14 9 14 -6 10 -6 9 18 13 17 13 -27 25 -28 26 12 0 11 0 0 10 0 10 -9 0 -9 0
-6 -15z"/>
<path d="M330 1150 l-14 -9 7 -8 8 -7 7 11 7 10 28 -28 28 -29 -10 0 -11 0 0
-10 0 -10 9 0 9 0 5 15 6 14 -30 31 -31 30 -1 0 -2 0 -15 -10z"/>
<path d="M331 1120 l-13 -7 37 -37 37 -37 6 5 6 6 -18 13 -17 13 1 9 2 10 -1
11 -1 12 -13 5 -14 5 -12 -8z m34 -29 l-4 -3 -10 7 -11 6 0 10 0 10 14 -13 14
-13 -3 -4z"/>
<path d="M479 1119 l-13 -8 7 -8 8 -7 9 14 10 15 0 -15 0 -15 10 15 10 15 11
-15 11 -15 -5 15 -4 15 -21 1 -20 1 -13 -8z"/>
<path d="M697 1118 l-11 -7 7 -8 8 -7 8 13 9 13 5 -13 5 -14 10 14 10 13 5
-13 5 -14 10 14 10 13 5 -11 6 -11 -3 12 -2 12 -38 1 -37 1 -12 -8z"/>
<path d="M440 1110 l0 -10 10 0 10 0 0 10 0 10 -10 0 -10 0 0 -10z"/>
<path d="M470 1081 l0 -9 -20 -5 -20 -5 0 -20 0 -21 17 -16 16 -17 46 7 46 7
3 9 4 9 14 0 14 0 0 20 0 20 -25 6 -25 6 0 9 0 9 -35 0 -35 0 0 -9z"/>
<path d="M678 1069 l-18 -19 0 -15 0 -15 24 0 24 0 4 -9 3 -10 50 -3 50 -3 3
33 3 34 -20 5 -21 5 0 9 0 9 -42 -1 -43 -1 -17 -19z"/>
<path d="M600 981 l0 -9 -21 -5 -21 -6 4 -13 5 -13 15 -3 16 -3 15 15 15 16 4
-10 3 -9 24 -3 24 -3 4 13 5 13 -21 6 -21 5 0 9 0 9 -25 0 -25 0 0 -9z"/>
</g>
</svg>
