<?xml version="1.0" standalone="no"?>
<!DOCTYPE svg PUBLIC "-//W3C//DTD SVG 20010904//EN"
 "http://www.w3.org/TR/2001/REC-SVG-20010904/DTD/svg10.dtd">
<svg version="1.0" xmlns="http://www.w3.org/2000/svg"
 width="468pt" height="468pt" viewBox="0 0 468 468"
 preserveAspectRatio="xMidYMid meet">
<metadata>
Created by potrace 1.8, written by Peter Selinger 2001-2007
</metadata>
<g transform="translate(0,468) scale(0.365625,-0.365625)"
fill="#000000" stroke="none">
<path d="M960 1220 l0 -20 -100 0 -100 0 0 -20 0 -20 -60 0 -60 0 0 -20 0 -20
-20 0 -20 0 0 -40 0 -40 -20 0 -20 0 0 -40 0 -40 -20 0 -20 0 0 -40 0 -40 -20
0 -20 0 0 -40 0 -40 -20 0 -20 0 0 -20 0 -20 -200 0 -200 0 0 -220 0 -220 20
0 20 0 0 -20 0 -20 120 0 120 0 0 -20 0 -20 20 0 20 0 0 -40 0 -40 20 0 20 0
0 -20 0 -20 60 0 60 0 0 -20 0 -20 360 0 360 0 0 200 0 200 -20 0 -20 0 0 40
0 40 -100 0 -100 0 0 40 0 40 -20 0 -20 0 0 40 0 40 -20 0 -20 0 0 40 0 40 20
0 20 0 0 20 0 20 40 0 40 0 0 20 0 20 20 0 20 0 0 20 0 20 20 0 20 0 0 20 0
20 20 0 20 0 0 20 0 20 20 0 20 0 0 80 0 80 -20 0 -20 0 0 20 0 20 -20 0 -20
0 0 20 0 20 -80 0 -80 0 0 -20z m160 -40 l0 -20 20 0 20 0 0 -80 0 -80 -20 0
-20 0 0 -20 0 -20 -20 0 -20 0 0 -20 0 -20 -20 0 -20 0 0 -20 0 -20 -40 0 -40
0 0 -20 0 -20 -20 0 -20 0 0 -20 0 -20 -40 0 -40 0 0 -20 0 -20 20 0 20 0 0
-20 0 -20 20 0 20 0 0 -40 0 -40 20 0 20 0 0 -40 0 -40 -260 0 -260 0 0 -200
0 -200 -20 0 -20 0 0 40 0 40 -20 0 -20 0 0 40 0 40 -20 0 -20 0 0 40 0 40
-20 0 -20 0 0 -20 0 -20 -100 0 -100 0 0 180 0 180 160 0 160 0 0 -40 0 -40
60 0 60 0 0 20 0 20 40 0 40 0 0 20 0 20 40 0 40 0 0 -40 0 -40 40 0 40 0 0
20 0 20 -20 0 -20 0 0 40 0 40 20 0 20 0 0 40 0 40 -20 0 -20 0 0 60 0 60 20
0 20 0 0 -60 0 -60 20 0 20 0 0 20 0 20 20 0 20 0 0 40 0 40 -20 0 -20 0 0 40
0 40 -20 0 -20 0 0 -20 0 -20 -40 0 -40 0 0 -40 0 -40 -20 0 -20 0 0 -20 0
-20 -20 0 -20 0 0 -40 0 -40 20 0 20 0 0 20 0 20 20 0 20 0 0 -20 0 -20 -20 0
-20 0 0 -20 0 -20 -20 0 -20 0 0 20 0 20 -20 0 -20 0 0 -20 0 -20 -20 0 -20 0
0 -20 0 -20 -20 0 -20 0 0 -20 0 -20 -20 0 -20 0 0 20 0 20 20 0 20 0 0 40 0
40 20 0 20 0 0 40 0 40 20 0 20 0 0 40 0 40 20 0 20 0 0 40 0 40 20 0 20 0 0
40 0 40 60 0 60 0 0 20 0 20 100 0 100 0 0 20 0 20 80 0 80 0 0 -20z m40 -840
l0 -180 -340 0 -340 0 0 180 0 180 340 0 340 0 0 -180z"/>
<path d="M840 980 l0 -20 20 0 20 0 0 20 0 20 -20 0 -20 0 0 -20z"/>
<path d="M800 740 l0 -20 -20 0 -20 0 0 -20 0 -20 20 0 20 0 0 20 0 20 20 0
20 0 0 20 0 20 -20 0 -20 0 0 -20z"/>
<path d="M320 620 l0 -20 -40 0 -40 0 0 -20 0 -20 -20 0 -20 0 0 -40 0 -40 20
0 20 0 0 -40 0 -40 20 0 20 0 0 40 0 40 -20 0 -20 0 0 40 0 40 40 0 40 0 0 20
0 20 40 0 40 0 0 20 0 20 -40 0 -40 0 0 -20z"/>
</g>
</svg>
