<?xml version="1.0" standalone="no"?>
<!DOCTYPE svg PUBLIC "-//W3C//DTD SVG 20010904//EN"
 "http://www.w3.org/TR/2001/REC-SVG-20010904/DTD/svg10.dtd">
<svg version="1.0" xmlns="http://www.w3.org/2000/svg"
 width="468pt" height="468pt" viewBox="0 0 468 468"
 preserveAspectRatio="xMidYMid meet">
<metadata>
Created by potrace 1.8, written by Peter Selinger 2001-2007
</metadata>
<g transform="translate(0,468) scale(0.365625,-0.365625)"
fill="#000000" stroke="none">
<path d="M130 1105 l0 -15 -10 0 -10 0 0 -36 0 -35 14 -15 15 -14 25 0 26 0 0
-15 0 -15 10 0 10 0 0 -15 0 -15 15 0 15 0 0 -10 0 -10 15 0 15 0 0 -15 0 -15
10 0 10 0 0 -25 0 -25 15 0 15 0 0 -15 0 -15 15 0 15 0 0 -11 0 -10 14 -15 15
-14 10 0 11 0 0 -30 0 -30 -15 0 -15 0 0 -40 0 -40 15 0 15 0 0 -25 0 -25 -15
0 -15 0 0 -11 0 -10 -14 -15 -15 -14 -10 0 -11 0 0 -15 0 -15 -15 0 -15 0 0
-25 0 -25 -10 0 -10 0 0 -15 0 -15 -15 0 -15 0 0 -15 0 -15 15 0 15 0 0 -10 0
-10 -15 0 -15 0 0 10 0 10 -11 0 -10 0 -15 -14 -14 -15 0 -10 0 -11 -30 0 -30
0 0 -15 0 -15 -10 0 -10 0 0 -36 0 -35 14 -15 15 -14 35 0 36 0 0 10 0 10 15
0 15 0 0 40 0 40 -15 0 -15 0 0 15 0 15 30 0 30 0 0 15 0 15 25 0 25 0 0 10 0
10 25 0 25 0 0 -10 0 -10 -10 0 -10 0 0 -15 0 -15 -15 0 -15 0 0 -15 0 -15
-15 0 -15 0 0 -40 0 -40 15 0 15 0 0 -10 0 -10 40 0 40 0 0 10 0 10 15 0 15 0
0 40 0 40 -15 0 -15 0 0 15 0 15 15 0 15 0 0 15 0 15 25 0 25 0 0 10 0 10 11
0 10 0 15 -14 14 -15 0 -10 0 -11 -10 0 -10 0 0 -15 0 -15 -15 0 -15 0 0 -40
0 -40 15 0 15 0 0 -10 0 -10 36 0 35 0 15 14 14 15 0 35 0 36 -10 0 -10 0 0
26 0 25 14 15 15 14 21 0 21 0 15 -14 14 -15 0 -25 0 -26 -10 0 -10 0 0 -36 0
-35 14 -15 15 -14 35 0 36 0 0 10 0 10 15 0 15 0 0 40 0 40 -15 0 -15 0 0 15
0 15 -10 0 -10 0 0 11 0 10 14 15 15 14 10 0 11 0 0 -10 0 -10 25 0 25 0 0
-15 0 -15 15 0 15 0 0 -15 0 -15 -15 0 -15 0 0 -40 0 -40 15 0 15 0 0 -10 0
-10 40 0 40 0 0 10 0 10 15 0 15 0 0 40 0 40 -15 0 -15 0 0 15 0 15 -15 0 -15
0 0 15 0 15 -10 0 -10 0 0 10 0 10 25 0 25 0 0 -10 0 -10 25 0 25 0 0 -15 0
-15 30 0 30 0 0 -15 0 -15 -15 0 -15 0 0 -40 0 -40 15 0 15 0 0 -10 0 -10 36
0 35 0 15 14 14 15 0 35 0 36 -10 0 -10 0 0 15 0 15 -30 0 -30 0 0 11 0 10
-14 15 -15 14 -10 0 -11 0 0 -10 0 -10 -15 0 -15 0 0 10 0 10 15 0 15 0 0 15
0 15 -15 0 -15 0 0 15 0 15 -10 0 -10 0 0 25 0 25 -15 0 -15 0 0 15 0 15 -11
0 -10 0 -15 14 -14 15 0 10 0 11 -15 0 -15 0 0 25 0 25 15 0 15 0 0 40 0 40
-15 0 -15 0 0 30 0 30 11 0 10 0 15 14 14 15 0 10 0 11 15 0 15 0 0 15 0 15
15 0 15 0 0 25 0 25 10 0 10 0 0 15 0 15 15 0 15 0 0 10 0 10 15 0 15 0 0 15
0 15 10 0 10 0 0 15 0 15 26 0 25 0 15 14 14 15 0 35 0 36 -10 0 -10 0 0 15 0
15 -40 0 -40 0 0 -15 0 -15 -15 0 -15 0 0 -40 0 -40 15 0 15 0 0 40 0 40 40 0
40 0 0 -40 0 -40 -40 0 -40 0 0 -10 0 -10 -30 0 -30 0 0 -15 0 -15 -25 0 -25
0 0 -15 0 -15 -25 0 -25 0 0 15 0 15 10 0 10 0 0 15 0 15 15 0 15 0 0 10 0 10
15 0 15 0 0 40 0 40 -15 0 -15 0 0 15 0 15 -40 0 -40 0 0 -15 0 -15 -15 0 -15
0 0 -40 0 -40 15 0 15 0 0 40 0 40 40 0 40 0 0 -40 0 -40 -40 0 -40 0 0 -10 0
-10 -15 0 -15 0 0 -15 0 -15 -25 0 -25 0 0 -15 0 -15 -15 0 -15 0 0 15 0 15
-10 0 -10 0 0 11 0 10 14 15 15 14 10 0 11 0 0 40 0 40 -15 0 -15 0 0 15 0 15
-40 0 -40 0 0 -15 0 -15 -10 0 -10 0 0 -40 0 -40 10 0 10 0 0 -25 0 -25 -10 0
-10 0 0 -15 0 -15 -30 0 -30 0 0 15 0 15 -10 0 -10 0 0 25 0 25 10 0 10 0 0
40 0 40 -10 0 -10 0 0 15 0 15 -40 0 -40 0 0 -15 0 -15 -15 0 -15 0 0 -40 0
-40 11 0 10 0 15 -14 14 -15 0 -10 0 -11 -10 0 -10 0 0 -15 0 -15 -15 0 -15 0
0 15 0 15 -25 0 -25 0 0 15 0 15 -15 0 -15 0 0 10 0 10 -40 0 -40 0 0 40 0 40
40 0 40 0 0 -40 0 -40 15 0 15 0 0 40 0 40 -15 0 -15 0 0 15 0 15 -40 0 -40 0
0 -15 0 -15 -15 0 -15 0 0 -40 0 -40 15 0 15 0 0 -10 0 -10 15 0 15 0 0 -15 0
-15 10 0 10 0 0 -15 0 -15 -25 0 -25 0 0 15 0 15 -25 0 -25 0 0 15 0 15 -30 0
-30 0 0 10 0 10 -40 0 -40 0 0 40 0 40 40 0 40 0 0 -40 0 -40 15 0 15 0 0 40
0 40 -15 0 -15 0 0 15 0 15 -40 0 -40 0 0 -15z m460 -55 l0 -40 -40 0 -40 0 0
40 0 40 40 0 40 0 0 -40z m180 0 l0 -40 -40 0 -40 0 0 40 0 40 40 0 40 0 0
-40z m-500 -105 l0 -15 25 0 25 0 0 -10 0 -10 25 0 25 0 0 -30 0 -30 15 0 15
0 0 -40 0 -40 -15 0 -15 0 0 15 0 15 -10 0 -10 0 0 15 0 15 -15 0 -15 0 0 25
0 25 -15 0 -15 0 0 11 0 10 -14 15 -15 14 -10 0 -11 0 0 15 0 15 15 0 15 0 0
-15z m160 0 l0 -15 25 0 25 0 0 -10 0 -10 15 0 15 0 0 -15 0 -15 25 0 25 0 0
15 0 15 -15 0 -15 0 0 25 0 25 30 0 30 0 0 -15 0 -15 10 0 10 0 0 -25 0 -25
30 0 30 0 0 25 0 25 10 0 10 0 0 15 0 15 30 0 30 0 0 -25 0 -25 -15 0 -15 0 0
-15 0 -15 25 0 25 0 0 15 0 15 15 0 15 0 0 10 0 10 25 0 25 0 0 15 0 15 15 0
15 0 0 -25 0 -25 -25 0 -25 0 0 -15 0 -15 -30 0 -30 0 0 -15 0 -15 -25 0 -25
0 0 15 0 15 -25 0 -25 0 0 -14 0 -14 13 -5 12 -4 -9 -9 -9 -9 -4 13 -5 12 -28
0 -28 0 -5 -12 -4 -13 -9 9 -9 9 13 4 12 5 0 14 0 14 -25 0 -25 0 0 -15 0 -15
-25 0 -25 0 0 15 0 15 -30 0 -30 0 0 15 0 15 -25 0 -25 0 0 25 0 25 15 0 15 0
0 -15z m610 0 l0 -15 -11 0 -10 0 -15 -14 -14 -15 0 -10 0 -11 -15 0 -15 0 0
-25 0 -25 -15 0 -15 0 0 -15 0 -15 -10 0 -10 0 0 -15 0 -15 -15 0 -15 0 0 40
0 40 15 0 15 0 0 30 0 30 25 0 25 0 0 10 0 10 25 0 25 0 0 15 0 15 15 0 15 0
0 -15z m-590 -80 l0 -15 15 0 15 0 0 -10 0 -10 25 0 25 0 0 -15 0 -15 -10 0
-10 0 0 -15 0 -15 -15 0 -15 0 0 30 0 30 -15 0 -15 0 0 -40 0 -40 -10 0 -10 0
0 50 0 50 -15 0 -15 0 0 15 0 15 25 0 25 0 0 -15z m430 0 l0 -15 -15 0 -15 0
0 -50 0 -50 -10 0 -10 0 0 40 0 40 -15 0 -15 0 0 -30 0 -30 -15 0 -15 0 0 15
0 15 -10 0 -10 0 0 15 0 15 25 0 25 0 0 10 0 10 15 0 15 0 0 15 0 15 25 0 25
0 0 -15z m-320 -80 l0 -15 -15 0 -15 0 0 15 0 15 15 0 15 0 0 -15z m190 0 l0
-15 -15 0 -15 0 0 15 0 15 15 0 15 0 0 -15z m-60 -25 l0 -10 30 0 30 0 0 -15
0 -15 25 0 25 0 0 -15 0 -15 40 0 40 0 0 -40 0 -40 -40 0 -40 0 0 -10 0 -10
-25 0 -25 0 0 -15 0 -15 -30 0 -30 0 0 -15 0 -15 -50 0 -50 0 0 15 0 15 -30 0
-30 0 0 15 0 15 -25 0 -25 0 0 10 0 10 -40 0 -40 0 0 40 0 40 40 0 40 0 0 15
0 15 25 0 25 0 0 15 0 15 30 0 30 0 0 10 0 10 50 0 50 0 0 -10z m-240 -240 l0
-40 15 0 15 0 0 -15 0 -15 -15 0 -15 0 0 -10 0 -10 -25 0 -25 0 0 10 0 10 -15
0 -15 0 0 -25 0 -25 -25 0 -25 0 0 -15 0 -15 -25 0 -25 0 0 15 0 15 10 0 10 0
0 15 0 15 15 0 15 0 0 25 0 25 15 0 15 0 0 11 0 10 14 15 15 14 10 0 11 0 0
-40 0 -40 15 0 15 0 0 55 0 55 10 0 10 0 0 -40z m400 -15 l0 -55 15 0 15 0 0
40 0 40 11 0 10 0 15 -14 14 -15 0 -10 0 -11 15 0 15 0 0 -25 0 -25 15 0 15 0
0 -15 0 -15 10 0 10 0 0 -15 0 -15 -25 0 -25 0 0 15 0 15 -25 0 -25 0 0 25 0
25 -15 0 -15 0 0 -10 0 -10 -25 0 -25 0 0 10 0 10 -15 0 -15 0 0 15 0 15 15 0
15 0 0 40 0 40 10 0 10 0 0 -55z m-336 13 l6 -13 6 13 6 12 14 0 14 0 0 -10 0
-10 -15 0 -15 0 0 -15 0 -15 -25 0 -25 0 0 25 0 25 14 0 14 0 6 -12z m240 0
l6 -13 6 13 6 12 14 0 14 0 0 -25 0 -25 -25 0 -25 0 0 15 0 15 -15 0 -15 0 0
10 0 10 14 0 14 0 6 -12z m-144 -53 l0 -15 30 0 30 0 0 15 0 15 10 0 10 0 0
-15 0 -15 -10 0 -10 0 0 -10 0 -10 25 0 25 0 0 10 0 10 25 0 25 0 0 -10 0 -10
30 0 30 0 0 -15 0 -15 25 0 25 0 0 -25 0 -25 -15 0 -15 0 0 10 0 10 -25 0 -25
0 0 15 0 15 -15 0 -15 0 0 15 0 15 -25 0 -25 0 0 -15 0 -15 15 0 15 0 0 -25 0
-25 -26 0 -25 0 -15 14 -14 15 0 25 0 26 -30 0 -30 0 0 -26 0 -25 -14 -15 -15
-14 -25 0 -26 0 0 25 0 25 15 0 15 0 0 15 0 15 -25 0 -25 0 0 -15 0 -15 -15 0
-15 0 0 -15 0 -15 -25 0 -25 0 0 -10 0 -10 -15 0 -15 0 0 25 0 25 25 0 25 0 0
15 0 15 30 0 30 0 0 10 0 10 25 0 25 0 0 -10 0 -10 25 0 25 0 0 10 0 10 -10 0
-10 0 0 15 0 15 10 0 10 0 0 -15z m-400 -215 l0 -40 -40 0 -40 0 0 40 0 40 40
0 40 0 0 -40z m190 0 l0 -40 -40 0 -40 0 0 40 0 40 40 0 40 0 0 -40z m190 0
l0 -40 -40 0 -40 0 0 40 0 40 40 0 40 0 0 -40z m180 0 l0 -40 -40 0 -40 0 0
40 0 40 40 0 40 0 0 -40z m190 0 l0 -40 -40 0 -40 0 0 40 0 40 40 0 40 0 0
-40z m190 0 l0 -40 -40 0 -40 0 0 40 0 40 40 0 40 0 0 -40z"/>
<path d="M480 650 l0 -40 15 0 15 0 0 40 0 40 -15 0 -15 0 0 -40z"/>
<path d="M770 650 l0 -40 15 0 15 0 0 40 0 40 -15 0 -15 0 0 -40z"/>
</g>
</svg>
