<?xml version="1.0" standalone="no"?>
<!DOCTYPE svg PUBLIC "-//W3C//DTD SVG 20010904//EN"
 "http://www.w3.org/TR/2001/REC-SVG-20010904/DTD/svg10.dtd">
<svg version="1.0" xmlns="http://www.w3.org/2000/svg"
 width="468pt" height="468pt" viewBox="0 0 468 468"
 preserveAspectRatio="xMidYMid meet">
<metadata>
Created by potrace 1.8, written by Peter Selinger 2001-2007
</metadata>
<g transform="translate(0,468) scale(0.365625,-0.365625)"
fill="#000000" stroke="none">
<path d="M60 835 l0 -385 35 0 35 0 0 -35 0 -35 575 0 575 0 0 385 0 385 -30
0 -30 0 0 35 0 35 -580 0 -580 0 0 -385z m1090 -5 l0 -320 -510 0 -510 0 0
320 0 320 510 0 510 0 0 -320z"/>
<path d="M190 835 l0 -255 65 0 65 0 0 95 0 95 30 0 30 0 0 65 0 65 -30 0 -30
0 0 30 0 30 30 0 30 0 0 65 0 65 -95 0 -95 0 0 -255z"/>
<path d="M450 1025 l0 -65 30 0 30 0 0 -190 0 -190 65 0 65 0 0 190 0 190 30
0 30 0 0 65 0 65 -125 0 -125 0 0 -65z"/>
<path d="M770 835 l0 -255 65 0 65 0 0 60 0 60 60 0 60 0 0 35 0 35 35 0 35 0
0 125 0 125 -35 0 -35 0 0 35 0 35 -125 0 -125 0 0 -255z m190 60 l0 -65 -30
0 -30 0 0 65 0 65 30 0 30 0 0 -65z"/>
<path d="M130 290 l0 -30 -35 0 -35 0 0 -35 0 -35 -30 0 -30 0 0 -30 0 -30 30
0 30 0 0 -35 0 -35 35 0 35 0 0 -30 0 -30 30 0 30 0 0 30 0 30 450 0 450 0 0
-30 0 -30 30 0 30 0 0 30 0 30 35 0 35 0 0 35 0 35 30 0 30 0 0 30 0 30 -30 0
-30 0 0 35 0 35 -35 0 -35 0 0 30 0 30 -30 0 -30 0 0 -30 0 -30 -450 0 -450 0
0 30 0 30 -30 0 -30 0 0 -30z"/>
</g>
</svg>
