<?xml version="1.0" standalone="no"?>
<!DOCTYPE svg PUBLIC "-//W3C//DTD SVG 20010904//EN"
 "http://www.w3.org/TR/2001/REC-SVG-20010904/DTD/svg10.dtd">
<svg version="1.0" xmlns="http://www.w3.org/2000/svg"
 width="468pt" height="468pt" viewBox="0 0 468 468"
 preserveAspectRatio="xMidYMid meet">
<metadata>
Created by potrace 1.8, written by Peter Selinger 2001-2007
</metadata>
<g transform="translate(0,468) scale(0.365625,-0.365625)"
fill="#000000" stroke="none">
<path d="M130 1175 l0 -105 15 0 15 0 0 65 0 65 15 0 15 0 0 -25 0 -25 10 0
10 0 0 -40 0 -40 15 0 15 0 0 40 0 40 15 0 15 0 0 25 0 25 -15 0 -15 0 0 -25
0 -25 -15 0 -15 0 0 25 0 25 -10 0 -10 0 0 25 0 25 -15 0 -15 0 0 15 0 15 -15
0 -15 0 0 -105z"/>
<path d="M290 1265 l0 -15 -10 0 -10 0 0 -25 0 -25 10 0 10 0 0 -65 0 -65 15
0 15 0 0 105 0 105 -15 0 -15 0 0 -15z"/>
<path d="M480 1185 l0 -95 -15 0 -15 0 0 55 0 55 -10 0 -10 0 0 15 0 15 -40 0
-40 0 0 -15 0 -15 40 0 40 0 0 -15 0 -15 -26 0 -25 0 -15 -14 -14 -15 0 -21 0
-21 14 -15 15 -14 24 0 25 0 6 13 6 12 6 -12 6 -13 29 0 29 0 0 105 0 105 -15
0 -15 0 0 -95z m-50 -65 l0 -30 -30 0 -30 0 0 30 0 30 30 0 30 0 0 -30z"/>
<path d="M930 1265 l0 -15 15 0 15 0 0 15 0 15 -15 0 -15 0 0 -15z"/>
<path d="M530 1215 l0 -15 40 0 40 0 0 -15 0 -15 -25 0 -25 0 0 -10 0 -10 -15
0 -15 0 0 -30 0 -30 15 0 15 0 0 -10 0 -10 25 0 25 0 0 10 0 10 15 0 15 0 0
-10 0 -10 15 0 15 0 0 10 0 10 -15 0 -15 0 0 55 0 55 -15 0 -15 0 0 15 0 15
-40 0 -40 0 0 -15z m80 -95 l0 -30 -25 0 -25 0 0 30 0 30 25 0 25 0 0 -30z"/>
<path d="M670 1175 l0 -55 10 0 10 0 0 -40 0 -40 -10 0 -10 0 0 -15 0 -15 10
0 10 0 0 15 0 15 15 0 15 0 0 25 0 25 15 0 15 0 0 40 0 40 10 0 10 0 0 30 0
30 -10 0 -10 0 0 -30 0 -30 -15 0 -15 0 0 -25 0 -25 -15 0 -15 0 0 55 0 55
-10 0 -10 0 0 -55z"/>
<path d="M830 1215 l0 -15 -15 0 -15 0 0 -15 0 -15 15 0 15 0 0 -10 0 -10 25
0 25 0 0 -30 0 -30 -25 0 -25 0 0 15 0 15 -15 0 -15 0 0 -15 0 -15 15 0 15 0
0 -10 0 -10 25 0 25 0 0 10 0 10 15 0 15 0 0 30 0 30 -15 0 -15 0 0 10 0 10
15 0 15 0 0 15 0 15 -15 0 -15 0 0 15 0 15 -25 0 -25 0 0 -15z m50 -30 l0 -15
-25 0 -25 0 0 15 0 15 25 0 25 0 0 -15z"/>
<path d="M930 1150 l0 -80 15 0 15 0 0 80 0 80 -15 0 -15 0 0 -80z"/>
<path d="M990 1215 l0 -15 40 0 40 0 0 -15 0 -15 -26 0 -25 0 -15 -14 -14 -15
0 -21 0 -21 14 -15 15 -14 24 0 25 0 6 13 6 12 6 -12 6 -13 14 0 14 0 0 10 0
10 -15 0 -15 0 0 55 0 55 -10 0 -10 0 0 15 0 15 -40 0 -40 0 0 -15z m80 -95
l0 -30 -30 0 -30 0 0 30 0 30 30 0 30 0 0 -30z"/>
<path d="M0 680 l0 -230 14 0 14 0 6 -12 6 -13 6 13 6 12 14 0 14 0 0 -10 0
-10 14 0 14 0 6 13 6 12 6 -12 6 -13 14 0 14 0 0 10 0 10 14 0 14 0 6 -12 6
-13 6 13 6 12 14 0 14 0 0 -10 0 -10 14 0 14 0 6 13 6 12 6 -12 6 -13 14 0 14
0 0 10 0 10 14 0 14 0 6 -12 6 -13 6 13 6 12 14 0 14 0 0 -10 0 -10 14 0 14 0
6 13 6 12 6 -12 6 -13 14 0 14 0 0 10 0 10 14 0 14 0 6 -12 6 -13 6 13 6 12
14 0 14 0 0 -10 0 -10 14 0 14 0 6 13 6 12 6 -12 6 -13 14 0 14 0 0 10 0 10
14 0 14 0 6 -12 6 -13 6 13 6 12 14 0 14 0 0 -10 0 -10 14 0 14 0 6 13 6 12 6
-12 6 -13 14 0 14 0 0 10 0 10 14 0 14 0 6 -12 6 -13 6 13 6 12 14 0 14 0 0
-10 0 -10 14 0 14 0 6 12 6 13 6 -12 6 -13 14 0 14 0 0 10 0 10 14 0 14 0 6
-12 6 -13 6 13 6 12 14 0 14 0 0 -10 0 -10 14 0 14 0 6 13 6 12 6 -12 6 -13
14 0 14 0 0 10 0 10 14 0 14 0 6 -12 6 -13 6 13 6 12 14 0 14 0 0 -10 0 -10
14 0 14 0 6 13 6 12 6 -12 6 -13 14 0 14 0 0 10 0 10 -15 0 -15 0 0 15 0 15
-10 0 -10 0 0 -15 0 -15 -15 0 -15 0 0 15 0 15 -15 0 -15 0 0 -15 0 -15 -10 0
-10 0 0 15 0 15 -15 0 -15 0 0 -15 0 -15 -15 0 -15 0 0 15 0 15 -10 0 -10 0 0
-15 0 -15 -15 0 -15 0 0 15 0 15 -15 0 -15 0 0 -15 0 -15 -10 0 -10 0 0 15 0
15 -15 0 -15 0 0 -15 0 -15 -15 0 -15 0 0 15 0 15 -10 0 -10 0 0 -15 0 -15
-15 0 -15 0 0 15 0 15 -15 0 -15 0 0 -15 0 -15 -10 0 -10 0 0 15 0 15 -15 0
-15 0 0 -15 0 -15 -15 0 -15 0 0 15 0 15 -10 0 -10 0 0 -15 0 -15 -15 0 -15 0
0 15 0 15 -15 0 -15 0 0 -15 0 -15 -10 0 -10 0 0 15 0 15 -15 0 -15 0 0 40 0
40 15 0 15 0 0 -15 0 -15 10 0 10 0 0 15 0 15 15 0 15 0 0 -15 0 -15 15 0 15
0 0 15 0 15 10 0 10 0 0 -15 0 -15 15 0 15 0 0 15 0 15 15 0 15 0 0 -15 0 -15
10 0 10 0 0 15 0 15 15 0 15 0 0 -15 0 -15 15 0 15 0 0 15 0 15 10 0 10 0 0
-15 0 -15 15 0 15 0 0 15 0 15 15 0 15 0 0 -15 0 -15 10 0 10 0 0 15 0 15 15
0 15 0 0 -15 0 -15 15 0 15 0 0 15 0 15 10 0 10 0 0 -15 0 -15 15 0 15 0 0 15
0 15 15 0 15 0 0 -15 0 -15 10 0 10 0 0 15 0 15 15 0 15 0 0 -15 0 -15 15 0
15 0 0 15 0 15 10 0 10 0 0 -15 0 -15 15 0 15 0 0 15 0 15 -15 0 -15 0 0 15 0
15 -10 0 -10 0 0 -15 0 -15 -15 0 -15 0 0 15 0 15 -15 0 -15 0 0 -15 0 -15
-10 0 -10 0 0 15 0 15 -15 0 -15 0 0 -15 0 -15 -15 0 -15 0 0 15 0 15 -10 0
-10 0 0 -15 0 -15 -15 0 -15 0 0 15 0 15 -15 0 -15 0 0 -15 0 -15 -10 0 -10 0
0 15 0 15 -15 0 -15 0 0 -15 0 -15 -15 0 -15 0 0 15 0 15 -10 0 -10 0 0 -15 0
-15 -15 0 -15 0 0 15 0 15 -15 0 -15 0 0 -15 0 -15 -10 0 -10 0 0 15 0 15 -15
0 -15 0 0 -15 0 -15 -15 0 -15 0 0 15 0 15 -10 0 -10 0 0 -15 0 -15 -15 0 -15
0 0 15 0 15 -15 0 -15 0 0 -15 0 -15 -10 0 -10 0 0 15 0 15 -15 0 -15 0 0 40
0 40 15 0 15 0 0 -15 0 -15 10 0 10 0 0 15 0 15 15 0 15 0 0 -15 0 -15 15 0
15 0 0 15 0 15 10 0 10 0 0 -15 0 -15 15 0 15 0 0 15 0 15 15 0 15 0 0 -15 0
-15 10 0 10 0 0 15 0 15 15 0 15 0 0 -15 0 -15 15 0 15 0 0 15 0 15 10 0 10 0
0 -15 0 -15 15 0 15 0 0 15 0 15 15 0 15 0 0 -15 0 -15 10 0 10 0 0 15 0 15
15 0 15 0 0 -15 0 -15 15 0 15 0 0 15 0 15 10 0 10 0 0 -15 0 -15 15 0 15 0 0
15 0 15 15 0 15 0 0 -15 0 -15 10 0 10 0 0 15 0 15 15 0 15 0 0 -15 0 -15 15
0 15 0 0 15 0 15 10 0 10 0 0 -15 0 -15 15 0 15 0 0 15 0 15 -14 0 -14 0 -6
13 -6 12 -6 -12 -6 -13 -14 0 -14 0 0 10 0 10 -14 0 -14 0 -6 -12 -6 -13 -6
13 -6 12 -14 0 -14 0 0 -10 0 -10 -14 0 -14 0 -6 13 -6 12 -6 -12 -6 -13 -14
0 -14 0 0 10 0 10 -14 0 -14 0 -6 -12 -6 -13 -6 13 -6 12 -14 0 -14 0 0 -10 0
-10 -14 0 -14 0 -6 13 -6 12 -6 -12 -6 -13 -14 0 -14 0 0 10 0 10 -14 0 -14 0
-6 -12 -6 -13 -6 13 -6 12 -14 0 -14 0 0 -10 0 -10 -14 0 -14 0 -6 13 -6 12
-6 -12 -6 -13 -14 0 -14 0 0 10 0 10 -14 0 -14 0 -6 -12 -6 -13 -6 13 -6 12
-14 0 -14 0 0 40 0 40 14 0 14 0 6 -12 6 -13 6 13 6 12 14 0 14 0 0 -10 0 -10
14 0 14 0 6 13 6 12 6 -12 6 -13 14 0 14 0 0 10 0 10 14 0 14 0 6 -12 6 -13 6
13 6 12 14 0 14 0 0 -10 0 -10 14 0 14 0 6 13 6 12 6 -12 6 -13 14 0 14 0 0
10 0 10 14 0 14 0 6 -12 6 -13 6 13 6 12 14 0 14 0 0 -10 0 -10 14 0 14 0 6
13 6 12 6 -12 6 -13 14 0 14 0 0 10 0 10 14 0 14 0 6 -12 6 -13 6 13 6 12 14
0 14 0 0 -10 0 -10 14 0 14 0 6 13 6 12 6 -12 6 -13 14 0 14 0 0 10 0 10 -15
0 -15 0 0 15 0 15 -10 0 -10 0 0 -15 0 -15 -15 0 -15 0 0 15 0 15 -15 0 -15 0
0 -15 0 -15 -10 0 -10 0 0 15 0 15 -15 0 -15 0 0 -15 0 -15 -15 0 -15 0 0 15
0 15 -10 0 -10 0 0 -15 0 -15 -15 0 -15 0 0 15 0 15 -15 0 -15 0 0 -15 0 -15
-10 0 -10 0 0 15 0 15 -15 0 -15 0 0 -15 0 -15 -15 0 -15 0 0 15 0 15 -10 0
-10 0 0 -15 0 -15 -15 0 -15 0 0 15 0 15 -15 0 -15 0 0 -15 0 -15 -10 0 -10 0
0 15 0 15 -15 0 -15 0 0 -15 0 -15 -15 0 -15 0 0 15 0 15 -10 0 -10 0 0 -15 0
-15 -15 0 -15 0 0 15 0 15 -15 0 -15 0 0 -15 0 -15 -10 0 -10 0 0 15 0 15 -15
0 -15 0 0 40 0 40 15 0 15 0 0 -15 0 -15 10 0 10 0 0 15 0 15 15 0 15 0 0 -15
0 -15 15 0 15 0 0 15 0 15 10 0 10 0 0 -15 0 -15 15 0 15 0 0 15 0 15 15 0 15
0 0 -15 0 -15 10 0 10 0 0 15 0 15 15 0 15 0 0 -15 0 -15 15 0 15 0 0 15 0 15
10 0 10 0 0 -15 0 -15 15 0 15 0 0 15 0 15 15 0 15 0 0 -15 0 -15 10 0 10 0 0
15 0 15 15 0 15 0 0 -15 0 -15 15 0 15 0 0 15 0 15 10 0 10 0 0 -15 0 -15 15
0 15 0 0 15 0 15 15 0 15 0 0 -15 0 -15 10 0 10 0 0 15 0 15 15 0 15 0 0 -15
0 -15 15 0 15 0 0 15 0 15 10 0 10 0 0 -15 0 -15 15 0 15 0 0 15 0 15 -15 0
-15 0 0 15 0 15 -10 0 -10 0 0 -15 0 -15 -15 0 -15 0 0 15 0 15 -15 0 -15 0 0
-15 0 -15 -10 0 -10 0 0 15 0 15 -15 0 -15 0 0 -15 0 -15 -15 0 -15 0 0 15 0
15 -10 0 -10 0 0 -15 0 -15 -15 0 -15 0 0 15 0 15 -15 0 -15 0 0 -15 0 -15
-10 0 -10 0 0 15 0 15 -15 0 -15 0 0 -15 0 -15 -15 0 -15 0 0 15 0 15 -10 0
-10 0 0 -15 0 -15 -15 0 -15 0 0 15 0 15 -15 0 -15 0 0 -15 0 -15 -10 0 -10 0
0 15 0 15 -15 0 -15 0 0 -15 0 -15 -15 0 -15 0 0 15 0 15 -10 0 -10 0 0 -15 0
-15 -15 0 -15 0 0 15 0 15 -15 0 -15 0 0 -15 0 -15 -10 0 -10 0 0 15 0 15
-335 0 -335 0 0 -230z m320 185 l0 -15 15 0 15 0 0 -10 0 -10 -15 0 -15 0 0
10 0 10 -51 0 -50 0 -15 -14 -14 -15 0 -25 0 -26 -15 0 -15 0 0 -65 0 -65 15
0 15 0 0 -25 0 -25 10 0 10 0 0 -15 0 -15 55 0 55 0 0 15 0 15 15 0 15 0 0
-15 0 -15 -15 0 -15 0 0 -15 0 -15 -65 0 -65 0 0 15 0 15 -30 0 -30 0 0 15 0
15 -10 0 -10 0 0 25 0 25 -15 0 -15 0 0 65 0 65 15 0 15 0 0 26 0 25 14 15 15
14 25 0 26 0 0 15 0 15 65 0 65 0 0 -15z m80 -50 l0 -15 15 0 15 0 0 15 0 15
10 0 10 0 0 -15 0 -15 15 0 15 0 0 15 0 15 15 0 15 0 0 -15 0 -15 10 0 10 0 0
-15 0 -15 15 0 15 0 0 -10 0 -10 -15 0 -15 0 0 -15 0 -15 15 0 15 0 0 -15 0
-15 -15 0 -15 0 0 15 0 15 -10 0 -10 0 0 15 0 15 -15 0 -15 0 0 10 0 10 15 0
15 0 0 15 0 15 -15 0 -15 0 0 -15 0 -15 -15 0 -15 0 0 15 0 15 -10 0 -10 0 0
-15 0 -15 -15 0 -15 0 0 15 0 15 -15 0 -15 0 0 -15 0 -15 15 0 15 0 0 -10 0
-10 -15 0 -15 0 0 -15 0 -15 -10 0 -10 0 0 -15 0 -15 -15 0 -15 0 0 15 0 15
15 0 15 0 0 15 0 15 -15 0 -15 0 0 10 0 10 15 0 15 0 0 15 0 15 10 0 10 0 0
15 0 15 15 0 15 0 0 -15z m50 -55 l0 -10 15 0 15 0 0 -15 0 -15 15 0 15 0 0
-11 0 -10 14 -15 15 -14 10 0 11 0 0 -15 0 -15 -15 0 -15 0 0 -11 0 -10 -14
-15 -15 -14 -10 0 -11 0 0 10 0 10 -14 0 -14 0 -6 -12 -6 -13 -6 13 -6 12 -14
0 -14 0 0 -10 0 -10 -11 0 -10 0 -15 14 -14 15 0 10 0 11 -15 0 -15 0 0 15 0
15 11 0 10 0 15 14 14 15 0 10 0 11 15 0 15 0 0 15 0 15 15 0 15 0 0 10 0 10
10 0 10 0 0 -10z m-400 -295 l0 -15 -10 0 -10 0 0 15 0 15 10 0 10 0 0 -15z
m60 0 l0 -15 -15 0 -15 0 0 15 0 15 15 0 15 0 0 -15z m50 0 l0 -15 -15 0 -15
0 0 15 0 15 15 0 15 0 0 -15z m50 0 l0 -15 -10 0 -10 0 0 15 0 15 10 0 10 0 0
-15z m60 0 l0 -15 -15 0 -15 0 0 15 0 15 15 0 15 0 0 -15z m50 0 l0 -15 -15 0
-15 0 0 15 0 15 15 0 15 0 0 -15z m50 0 l0 -15 -10 0 -10 0 0 15 0 15 10 0 10
0 0 -15z m60 0 l0 -15 -15 0 -15 0 0 15 0 15 15 0 15 0 0 -15z m50 0 l0 -15
-15 0 -15 0 0 15 0 15 15 0 15 0 0 -15z m50 0 l0 -15 -10 0 -10 0 0 15 0 15
10 0 10 0 0 -15z m60 0 l0 -15 -15 0 -15 0 0 15 0 15 15 0 15 0 0 -15z m50 0
l0 -15 -15 0 -15 0 0 15 0 15 15 0 15 0 0 -15z"/>
<path d="M350 760 l0 -10 10 0 10 0 0 10 0 10 -10 0 -10 0 0 -10z"/>
<path d="M510 760 l0 -10 10 0 10 0 0 10 0 10 -10 0 -10 0 0 -10z"/>
<path d="M363 675 l-13 -14 0 -11 0 -10 10 0 10 0 0 -15 0 -15 15 0 15 0 0 15
0 15 15 0 15 0 0 -15 0 -15 10 0 10 0 0 15 0 15 15 0 15 0 0 -15 0 -15 15 0
15 0 0 15 0 15 10 0 10 0 0 11 0 10 -14 15 -15 14 -10 0 -11 0 0 -10 0 -10
-15 0 -15 0 0 -15 0 -15 -10 0 -10 0 0 15 0 15 -15 0 -15 0 0 10 0 10 -12 0
-13 -1 -12 -14z m37 -20 l0 -15 -15 0 -15 0 0 15 0 15 15 0 15 0 0 -15z m110
0 l0 -15 -15 0 -15 0 0 15 0 15 15 0 15 0 0 -15z"/>
<path d="M0 360 l0 -10 15 0 15 0 0 -15 0 -15 10 0 10 0 0 15 0 15 15 0 15 0
0 -15 0 -15 15 0 15 0 0 15 0 15 10 0 10 0 0 -15 0 -15 15 0 15 0 0 15 0 15
15 0 15 0 0 -15 0 -15 10 0 10 0 0 15 0 15 15 0 15 0 0 -15 0 -15 15 0 15 0 0
15 0 15 10 0 10 0 0 -15 0 -15 15 0 15 0 0 15 0 15 15 0 15 0 0 -15 0 -15 10
0 10 0 0 15 0 15 15 0 15 0 0 -15 0 -15 15 0 15 0 0 15 0 15 10 0 10 0 0 -15
0 -15 15 0 15 0 0 15 0 15 15 0 15 0 0 -15 0 -15 10 0 10 0 0 15 0 15 15 0 15
0 0 -15 0 -15 15 0 15 0 0 15 0 15 10 0 10 0 0 -15 0 -15 15 0 15 0 0 15 0 15
15 0 15 0 0 -15 0 -15 10 0 10 0 0 15 0 15 15 0 15 0 0 -15 0 -15 15 0 15 0 0
15 0 15 10 0 10 0 0 -15 0 -15 15 0 15 0 0 15 0 15 15 0 15 0 0 -15 0 -15 10
0 10 0 0 15 0 15 15 0 15 0 0 -15 0 -15 15 0 15 0 0 15 0 15 10 0 10 0 0 -15
0 -15 15 0 15 0 0 15 0 15 15 0 15 0 0 -15 0 -15 10 0 10 0 0 15 0 15 15 0 15
0 0 -15 0 -15 15 0 15 0 0 15 0 15 10 0 10 0 0 -15 0 -15 15 0 15 0 0 15 0 15
15 0 15 0 0 -15 0 -15 10 0 10 0 0 15 0 15 15 0 15 0 0 -15 0 -15 15 0 15 0 0
15 0 15 10 0 10 0 0 -15 0 -15 15 0 15 0 0 15 0 15 -14 0 -14 0 -6 13 -6 12
-6 -12 -6 -13 -14 0 -14 0 0 10 0 10 -14 0 -14 0 -6 -12 -6 -13 -6 13 -6 12
-14 0 -14 0 0 -10 0 -10 -14 0 -14 0 -6 13 -6 12 -6 -12 -6 -13 -14 0 -14 0 0
10 0 10 -14 0 -14 0 -6 -12 -6 -13 -6 13 -6 12 -14 0 -14 0 0 -10 0 -10 -14 0
-14 0 -6 13 -6 12 -6 -12 -6 -13 -14 0 -14 0 0 10 0 10 -14 0 -14 0 -6 -12 -6
-13 -6 13 -6 12 -14 0 -14 0 0 -10 0 -10 -14 0 -14 0 -6 13 -6 12 -6 -12 -6
-13 -14 0 -14 0 0 10 0 10 -14 0 -14 0 -6 -12 -6 -13 -6 13 -6 12 -14 0 -14 0
0 -10 0 -10 -14 0 -14 0 -6 13 -6 12 -6 -12 -6 -13 -14 0 -14 0 0 10 0 10 -14
0 -14 0 -6 -12 -6 -13 -6 13 -6 12 -14 0 -14 0 0 -10 0 -10 -14 0 -14 0 -6 13
-6 12 -6 -12 -6 -13 -14 0 -14 0 0 10 0 10 -14 0 -14 0 -6 -12 -6 -13 -6 13
-6 12 -14 0 -14 0 0 -10 0 -10 -14 0 -14 0 -6 13 -6 12 -6 -12 -6 -13 -14 0
-14 0 0 10 0 10 -14 0 -14 0 -6 -12 -6 -13 -6 13 -6 12 -14 0 -14 0 0 -10 0
-10 -14 0 -14 0 -6 13 -6 12 -6 -12 -6 -13 -14 0 -14 0 0 10 0 10 -14 0 -14 0
-6 -12 -6 -13 -6 13 -6 12 -14 0 -14 0 0 -10z"/>
<path d="M0 255 l0 -15 15 0 15 0 0 -15 0 -15 10 0 10 0 0 15 0 15 15 0 15 0
0 -15 0 -15 15 0 15 0 0 15 0 15 10 0 10 0 0 -15 0 -15 15 0 15 0 0 15 0 15
15 0 15 0 0 -15 0 -15 10 0 10 0 0 15 0 15 15 0 15 0 0 -15 0 -15 15 0 15 0 0
15 0 15 10 0 10 0 0 -15 0 -15 15 0 15 0 0 15 0 15 15 0 15 0 0 -15 0 -15 10
0 10 0 0 15 0 15 15 0 15 0 0 -15 0 -15 15 0 15 0 0 15 0 15 10 0 10 0 0 -15
0 -15 15 0 15 0 0 15 0 15 15 0 15 0 0 -15 0 -15 10 0 10 0 0 15 0 15 15 0 15
0 0 -15 0 -15 15 0 15 0 0 15 0 15 10 0 10 0 0 -15 0 -15 15 0 15 0 0 15 0 15
15 0 15 0 0 -15 0 -15 10 0 10 0 0 15 0 15 15 0 15 0 0 -15 0 -15 15 0 15 0 0
15 0 15 10 0 10 0 0 -15 0 -15 15 0 15 0 0 15 0 15 15 0 15 0 0 -15 0 -15 10
0 10 0 0 15 0 15 15 0 15 0 0 -15 0 -15 15 0 15 0 0 15 0 15 10 0 10 0 0 -15
0 -15 15 0 15 0 0 15 0 15 15 0 15 0 0 -15 0 -15 10 0 10 0 0 15 0 15 15 0 15
0 0 -15 0 -15 15 0 15 0 0 15 0 15 10 0 10 0 0 -15 0 -15 15 0 15 0 0 15 0 15
15 0 15 0 0 -15 0 -15 10 0 10 0 0 15 0 15 15 0 15 0 0 -15 0 -15 15 0 15 0 0
15 0 15 10 0 10 0 0 -15 0 -15 15 0 15 0 0 15 0 15 -15 0 -15 0 0 15 0 15 -10
0 -10 0 0 -15 0 -15 -15 0 -15 0 0 15 0 15 -15 0 -15 0 0 -15 0 -15 -10 0 -10
0 0 15 0 15 -15 0 -15 0 0 -15 0 -15 -15 0 -15 0 0 15 0 15 -10 0 -10 0 0 -15
0 -15 -15 0 -15 0 0 15 0 15 -15 0 -15 0 0 -15 0 -15 -10 0 -10 0 0 15 0 15
-15 0 -15 0 0 -15 0 -15 -15 0 -15 0 0 15 0 15 -10 0 -10 0 0 -15 0 -15 -15 0
-15 0 0 15 0 15 -15 0 -15 0 0 -15 0 -15 -10 0 -10 0 0 15 0 15 -15 0 -15 0 0
-15 0 -15 -15 0 -15 0 0 15 0 15 -10 0 -10 0 0 -15 0 -15 -15 0 -15 0 0 15 0
15 -15 0 -15 0 0 -15 0 -15 -10 0 -10 0 0 15 0 15 -15 0 -15 0 0 -15 0 -15
-15 0 -15 0 0 15 0 15 -10 0 -10 0 0 -15 0 -15 -15 0 -15 0 0 15 0 15 -15 0
-15 0 0 -15 0 -15 -10 0 -10 0 0 15 0 15 -15 0 -15 0 0 -15 0 -15 -15 0 -15 0
0 15 0 15 -10 0 -10 0 0 -15 0 -15 -15 0 -15 0 0 15 0 15 -15 0 -15 0 0 -15 0
-15 -10 0 -10 0 0 15 0 15 -15 0 -15 0 0 -15 0 -15 -15 0 -15 0 0 15 0 15 -10
0 -10 0 0 -15 0 -15 -15 0 -15 0 0 15 0 15 -15 0 -15 0 0 -15 0 -15 -10 0 -10
0 0 15 0 15 -15 0 -15 0 0 -15 0 -15 -15 0 -15 0 0 15 0 15 -10 0 -10 0 0 -15
0 -15 -15 0 -15 0 0 15 0 15 -15 0 -15 0 0 -15 0 -15 -10 0 -10 0 0 15 0 15
-15 0 -15 0 0 -15z"/>
</g>
</svg>
