<?xml version="1.0" standalone="no"?>
<!DOCTYPE svg PUBLIC "-//W3C//DTD SVG 20010904//EN"
 "http://www.w3.org/TR/2001/REC-SVG-20010904/DTD/svg10.dtd">
<svg version="1.0" xmlns="http://www.w3.org/2000/svg"
 width="468pt" height="468pt" viewBox="0 0 468 468"
 preserveAspectRatio="xMidYMid meet">
<metadata>
Created by potrace 1.8, written by Peter Selinger 2001-2007
</metadata>
<g transform="translate(0,468) scale(0.365625,-0.365625)"
fill="#000000" stroke="none">
<path d="M410 1271 l0 -9 -85 -7 -85 -7 0 -8 0 -7 -41 -6 -42 -5 -6 -10 -6 -9
-32 -8 -33 -7 0 -9 0 -9 -25 -6 -25 -6 -6 -24 -6 -24 -9 0 -9 0 17 -20 17 -20
9 0 8 0 50 -49 49 -48 0 -12 0 -11 9 0 9 0 7 -27 7 -28 10 -6 10 -7 -20 -20
-20 -20 -23 -7 -23 -8 -11 -11 -11 -11 -6 -15 -6 -16 34 4 34 4 0 8 0 8 45 6
45 7 0 8 0 9 45 6 45 7 0 8 0 9 45 6 45 7 0 8 0 9 45 6 45 7 0 8 0 9 45 6 45
7 0 8 0 9 45 6 45 7 0 10 0 9 24 0 23 0 7 80 7 80 8 0 8 0 7 39 6 39 -6 16 -6
15 -54 7 -54 6 0 9 0 9 -125 0 -125 0 0 -9z m213 -108 l-33 -4 0 -9 0 -8 -60
-7 -60 -7 0 -8 0 -8 -100 -7 -100 -8 0 -7 0 -7 -86 -6 -85 -5 -19 5 -19 5 -4
12 -5 11 74 -1 74 -1 11 16 10 16 6 -14 5 -13 10 13 10 14 5 -12 5 -13 13 14
14 14 31 -4 31 -4 5 15 6 15 28 0 28 0 5 -12 5 -13 9 11 8 11 13 4 13 4 92 1
92 1 -32 -4z m-393 -15 l0 -13 11 15 11 15 5 -14 5 -13 9 13 8 13 8 -7 7 -8
-13 -8 -13 -8 -28 3 -29 4 -11 -18 -11 -17 -6 14 -5 13 -9 -13 -8 -13 -8 7 -7
8 13 9 14 8 14 -5 13 -5 6 16 6 16 9 0 9 0 0 -12z m90 2 l0 -10 -10 0 -10 0 0
10 0 10 10 0 10 0 0 -10z m30 0 l0 -10 -10 0 -10 0 0 10 0 10 10 0 10 0 0 -10z
m-210 -30 l0 -10 -10 0 -10 0 0 10 0 10 10 0 10 0 0 -10z"/>
<path d="M1043 1103 l-33 -4 0 -8 0 -8 -41 -7 -40 -6 -13 -12 -13 -12 16 -18
17 -17 22 6 22 5 0 9 0 8 45 7 45 6 0 9 0 9 45 0 45 0 0 -10 0 -10 15 0 15 0
0 -15 0 -15 -30 -6 -30 -6 0 -9 0 -9 -15 0 -14 0 5 -15 6 -15 39 0 39 0 0 10
0 10 19 0 18 0 27 25 26 24 0 6 0 7 -31 30 -31 31 -71 3 -72 2 -32 -5z"/>
<path d="M840 1030 l0 -10 10 0 10 0 0 10 0 10 -10 0 -10 0 0 -10z"/>
<path d="M808 1013 l13 -5 6 6 6 6 -19 -1 -19 -1 13 -5z"/>
<path d="M750 1000 l0 -10 15 0 15 0 0 10 0 10 -15 0 -15 0 0 -10z"/>
<path d="M870 1000 l0 -10 15 0 15 0 0 10 0 10 -15 0 -15 0 0 -10z"/>
<path d="M838 983 l13 -5 6 6 6 6 -19 -1 -19 -1 13 -5z"/>
<path d="M780 970 l0 -10 15 0 15 0 0 10 0 10 -15 0 -15 0 0 -10z"/>
<path d="M718 953 l-28 -4 0 -9 0 -9 -45 -7 -45 -6 0 -9 0 -8 -45 -7 -45 -6 0
-9 0 -8 -45 -7 -45 -6 0 -9 0 -8 -45 -7 -45 -6 0 -9 0 -8 -45 -7 -45 -6 0 -9
0 -8 -44 -6 -45 -7 -5 -14 -5 -14 13 0 14 0 4 -10 3 -9 73 -7 72 -7 0 -8 0 -9
20 0 19 0 -6 -17 -7 -18 -7 -5 -7 -5 -5 -25 -4 -25 4 13 4 12 9 0 8 0 7 30 7
30 21 4 22 4 60 0 59 0 4 11 4 11 28 0 28 0 5 -12 5 -13 1 18 1 17 40 0 40 0
0 11 0 10 16 -15 15 -16 17 1 17 1 -17 5 -18 4 0 9 0 9 35 7 35 6 0 8 0 7 39
7 39 6 4 12 4 11 50 0 49 0 -32 4 -33 4 0 9 0 8 15 6 15 5 0 26 0 26 -17 6
-18 7 -6 8 -5 8 -67 7 -67 6 0 8 0 7 13 5 12 5 -15 0 -15 -1 -27 -4z m92 -43
l0 -10 40 -6 40 -7 0 -22 0 -23 -30 -7 -30 -7 0 -8 0 -9 -37 -7 -38 -7 -6 -9
-6 -9 -39 -6 -39 -6 -5 -8 -5 -8 -100 -4 -100 -4 58 4 57 4 0 8 0 8 70 7 70 7
0 9 0 9 35 7 35 6 0 8 0 8 25 6 25 6 0 11 0 10 -13 13 -12 13 -28 7 -27 6 0
10 0 10 30 0 30 0 0 -10z"/>
<path d="M980 790 l0 -10 15 0 15 0 0 10 0 10 -15 0 -15 0 0 -10z"/>
<path d="M903 773 l17 -4 0 -10 0 -9 15 0 15 0 0 9 0 9 -22 6 -23 6 -10 -1
-10 -1 18 -5z"/>
<path d="M1038 773 l12 -4 0 -10 0 -9 14 0 14 0 41 -40 41 -40 0 -10 0 -10 -7
0 -6 0 -44 46 -44 46 -6 -5 -5 -6 46 -44 46 -44 0 -21 0 -22 11 0 10 0 -15
-16 -16 -15 0 -4 0 -4 15 5 15 6 1 7 0 6 3 45 3 45 -48 47 -47 47 -23 4 -24 4
13 -4z"/>
<path d="M20 760 l0 -10 20 0 20 0 0 10 0 10 -20 0 -20 0 0 -10z"/>
<path d="M830 761 l0 -9 26 -6 26 -7 6 6 5 5 -16 0 -17 0 0 10 0 10 -15 0 -15
0 0 -9z"/>
<path d="M98 743 l13 -5 6 6 6 6 -19 -1 -19 -1 13 -5z"/>
<path d="M1019 689 l61 -61 0 -14 0 -14 10 0 10 0 0 -29 0 -29 -10 -5 -10 -5
12 2 13 3 -1 40 -1 41 -65 66 -66 66 -7 0 -7 0 61 -61z"/>
<path d="M30 730 l0 -10 -17 0 -16 0 4 -5 5 -4 37 6 37 6 0 8 0 9 -25 0 -25 0
0 -10z"/>
<path d="M851 678 l43 -42 -12 -4 -12 -4 0 -19 0 -19 -17 0 -18 0 -12 8 -11 7
-7 28 -7 27 -8 0 -8 0 -6 25 -6 25 -10 0 -10 0 0 -10 0 -10 9 0 9 0 7 -30 7
-30 9 0 9 0 0 -13 0 -13 20 -17 20 -17 11 0 10 0 15 14 14 15 0 15 0 15 15 -5
14 -6 7 -20 6 -21 26 -24 25 -23 28 0 29 0 0 31 0 30 -64 65 -64 64 -7 0 -7 0
61 -61 61 -61 0 -29 0 -29 -15 0 -15 0 -20 17 -20 17 0 9 0 8 -64 65 -64 64
-7 0 -7 0 43 -42z"/>
<path d="M538 667 l-26 -24 -7 -24 -8 -24 -8 -5 -7 -5 -5 -25 -4 -25 4 13 4
12 9 0 8 0 7 30 7 30 9 0 9 0 0 15 0 16 14 5 14 6 6 14 5 14 -3 0 -3 0 -25
-23z"/>
<path d="M621 659 l-31 -31 0 -13 0 -13 -15 -6 -15 -5 0 -16 0 -15 -10 0 -10
0 0 -15 0 -15 -20 0 -20 0 0 -10 0 -10 -25 0 -25 0 0 10 0 10 -15 0 -15 0 0
-10 0 -10 -210 0 -210 0 0 -255 0 -255 640 0 640 0 0 255 0 255 -105 0 -105 0
0 10 0 10 -15 0 -15 0 0 -10 0 -10 -250 0 -250 0 0 10 0 10 9 0 9 0 7 29 6 29
15 6 14 5 0 16 0 15 9 0 9 0 6 -30 6 -30 10 0 11 0 34 34 35 33 0 12 0 11 10
0 10 0 0 15 0 15 -9 0 -9 0 -6 -26 -7 -26 -26 -24 -26 -24 -12 0 -13 0 -5 28
-5 27 19 18 19 18 0 4 0 5 -4 0 -4 0 -31 -31z"/>
<path d="M398 660 l-18 -17 0 -11 0 -10 -11 -4 -11 -4 -2 -39 -1 -40 27 -3 26
-3 7 30 7 31 8 0 8 0 7 29 6 29 15 6 14 5 0 11 0 10 -20 -17 -20 -17 0 -13 0
-13 -9 0 -9 0 -6 -26 -7 -26 -14 -14 -14 -14 -10 0 -11 0 0 25 0 25 9 0 9 0 7
27 6 27 17 12 17 12 -5 5 -5 4 -17 -17z"/>
</g>
</svg>
