<?xml version="1.0" standalone="no"?>
<!DOCTYPE svg PUBLIC "-//W3C//DTD SVG 20010904//EN"
 "http://www.w3.org/TR/2001/REC-SVG-20010904/DTD/svg10.dtd">
<svg version="1.0" xmlns="http://www.w3.org/2000/svg"
 width="468pt" height="468pt" viewBox="0 0 468 468"
 preserveAspectRatio="xMidYMid meet">
<metadata>
Created by potrace 1.8, written by Peter Selinger 2001-2007
</metadata>
<g transform="translate(0,468) scale(0.365625,-0.365625)"
fill="#000000" stroke="none">
<path d="M900 1040 l0 -140 -20 0 -20 0 0 10 0 10 -20 0 -20 0 0 10 0 10 -120
0 -120 0 0 -10 0 -10 -36 0 -36 0 -39 -41 -39 -41 -15 16 -15 15 0 15 0 16
-10 0 -10 0 0 20 0 20 -10 0 -10 0 0 30 0 30 -10 0 -10 0 0 30 0 30 -10 0 -10
0 0 16 0 15 -15 15 -15 15 -15 -15 -15 -15 0 -145 0 -146 10 0 10 0 0 -60 0
-60 10 0 10 0 0 -50 0 -50 10 0 10 0 0 -40 0 -40 10 0 10 0 0 -50 0 -50 10 0
10 0 0 -39 0 -39 13 -5 12 -4 -9 -9 -9 -9 -4 13 -5 12 -19 0 -19 0 0 10 0 10
-16 0 -16 0 -28 30 -28 30 -16 0 -16 0 0 10 0 10 -20 0 -20 0 0 10 0 10 -20 0
-20 0 0 10 0 10 -40 0 -40 0 0 -10 0 -10 30 0 30 0 0 -10 0 -10 28 0 28 0 14
-20 14 -20 16 0 16 0 14 -20 14 -20 18 0 18 0 0 -10 0 -10 18 0 18 0 14 -20
14 -20 18 0 18 0 0 -10 0 -10 20 0 20 0 0 -10 0 -10 20 0 20 0 0 -10 0 -10 18
0 18 0 14 -20 14 -20 14 0 13 0 49 -50 49 -50 23 0 24 0 14 -20 14 -20 158 0
158 0 0 16 0 16 30 28 30 28 0 96 0 96 10 0 10 0 0 28 0 28 20 14 20 14 0 28
0 28 10 0 10 0 0 28 0 28 20 14 20 14 0 18 0 18 10 0 10 0 0 20 0 20 -5 0 -6
0 -44 -45 -45 -44 0 -11 0 -11 -14 -15 -15 -14 -5 0 -6 0 0 50 0 50 -10 0 -10
0 0 80 0 80 -10 0 -10 0 0 40 0 40 -10 0 -10 0 0 20 0 20 -10 0 -10 0 0 30 0
30 -10 0 -10 0 0 40 0 40 -10 0 -10 0 0 20 0 20 -10 0 -10 0 0 40 0 40 -10 0
-10 0 0 16 0 15 -14 15 -15 14 -5 0 -6 0 0 -140z m-600 20 l0 -20 10 0 10 0 0
-20 0 -20 10 0 10 0 0 -30 0 -30 10 0 10 0 0 -20 0 -20 10 0 10 0 0 -25 0 -26
25 -24 24 -25 6 0 5 0 0 16 0 15 14 15 15 14 13 0 14 0 14 20 14 20 38 0 38 0
0 10 0 10 20 0 20 0 0 -6 0 -5 -14 -15 -15 -14 -13 0 -14 0 -14 -20 -14 -20
-18 0 -18 0 0 -10 0 -10 -16 0 -15 0 -15 -14 -14 -15 0 -81 0 -82 31 -29 32
-29 -22 -19 -21 -18 0 -27 0 -26 10 0 10 0 0 -50 0 -50 10 0 10 0 0 -20 0 -20
10 0 10 0 0 -18 0 -18 20 -14 20 -14 0 -25 0 -24 22 -18 21 -19 -8 -8 -8 -7
-4 13 -5 12 -27 0 -27 0 -14 20 -14 20 -26 0 -26 0 -14 20 -14 20 -18 0 -18 0
0 20 0 20 -10 0 -10 0 0 40 0 40 -10 0 -10 0 0 50 0 50 -10 0 -10 0 0 40 0 40
-10 0 -10 0 0 50 0 50 -10 0 -10 0 0 70 0 70 -10 0 -10 0 0 130 0 130 10 0 10
0 0 -20z m640 -110 l0 -50 -10 0 -10 0 0 50 0 50 10 0 10 0 0 -50z m100 -380
l0 -10 -10 0 -10 0 0 -16 0 -15 -14 -15 -15 -14 -15 0 -16 0 0 -10 0 -10 -20
0 -20 0 0 5 0 6 25 24 24 25 13 0 14 0 14 20 14 20 8 0 8 0 0 -10z m-420 -60
l0 -10 40 0 40 0 0 -10 0 -10 20 0 20 0 0 -10 0 -10 -50 0 -50 0 0 10 0 10
-16 0 -15 0 -15 14 -14 15 0 5 0 6 20 0 20 0 0 -10z m240 -48 l0 -18 20 -14
20 -14 0 -18 0 -18 10 0 10 0 0 -20 0 -20 10 0 10 0 0 -20 0 -20 -20 0 -20 0
0 10 0 10 -20 0 -20 0 0 10 0 10 -36 0 -35 0 -15 14 -14 15 0 15 0 16 10 0 10
0 0 15 0 16 23 24 22 24 18 0 17 1 0 -18z m-240 -72 l0 -10 20 0 20 0 0 -10 0
-10 30 0 30 0 0 -10 0 -10 20 0 20 0 0 -10 0 -10 40 0 40 0 0 -10 0 -10 30 0
30 0 0 -10 0 -10 16 0 15 0 59 60 59 60 5 0 6 0 0 -29 0 -29 13 -6 12 -6 -12
-6 -13 -6 0 -84 0 -85 -35 -34 -34 -35 -86 0 -85 0 0 10 0 10 -30 0 -30 0 0
10 0 10 -25 0 -26 0 -34 35 -35 34 0 26 0 25 -10 0 -10 0 0 16 0 16 -30 28
-30 28 0 16 0 16 -10 0 -10 0 0 20 0 20 40 0 40 0 0 -10z"/>
<path d="M300 910 l0 -50 10 0 10 0 0 -20 0 -20 10 0 10 0 0 -36 0 -35 14 -15
15 -14 5 0 6 0 0 19 0 19 -12 5 -13 5 15 11 14 10 -22 19 -22 19 0 52 0 52
-14 15 -15 14 -5 0 -6 0 0 -50z"/>
<path d="M620 330 l0 -10 10 0 10 0 0 -20 0 -20 40 0 40 0 0 6 0 5 -16 16 -16
16 -8 -14 -9 -13 -19 22 -19 22 -7 0 -6 0 0 -10z"/>
<path d="M1031 324 l-13 -15 6 -6 5 -5 16 15 15 16 0 5 0 6 -7 0 -8 -1 -14
-15z"/>
<path d="M880 230 l0 -10 -30 0 -30 0 0 -20 0 -20 70 0 70 0 0 10 0 10 20 0
20 0 0 20 0 20 -60 0 -60 0 0 -10z m80 -20 l0 -10 -40 0 -40 0 0 10 0 10 40 0
40 0 0 -10z"/>
<path d="M940 150 l0 -10 -20 0 -20 0 0 -10 0 -10 30 0 30 0 0 10 0 10 20 0
20 0 0 10 0 10 -30 0 -30 0 0 -10z"/>
<path d="M1213 345 l-13 -14 0 -16 0 -15 -10 0 -10 0 0 -20 0 -20 -10 0 -10 0
0 -20 0 -20 -10 0 -10 0 0 -19 0 -19 -12 -5 -13 -4 7 -8 7 -7 16 15 15 16 0
15 0 16 10 0 10 0 0 20 0 20 10 0 10 0 0 18 0 18 20 14 20 14 0 18 0 18 -7 0
-8 -1 -12 -14z"/>
<path d="M140 230 l0 -10 -50 0 -50 0 0 -10 0 -10 60 0 60 0 0 10 0 10 30 0
30 0 0 -10 0 -10 40 0 40 0 0 -10 0 -10 20 0 20 0 0 -10 0 -10 10 0 10 0 0 20
0 20 -30 0 -30 0 0 10 0 10 -40 0 -40 0 0 10 0 10 -40 0 -40 0 0 -10z"/>
<path d="M380 170 l0 -10 20 0 20 0 0 -10 0 -10 20 0 20 0 0 -10 0 -10 26 0
25 0 15 -14 14 -15 0 -5 0 -6 -30 0 -30 0 0 10 0 10 -30 0 -30 0 0 10 0 10
-170 0 -170 0 0 -10 0 -10 -20 0 -20 0 0 -20 0 -20 10 0 10 0 0 10 0 10 20 0
20 0 0 10 0 10 150 0 150 0 0 -10 0 -10 40 0 40 0 0 -10 0 -10 50 0 50 0 0
-10 0 -10 20 0 20 0 0 16 0 15 -14 15 -15 14 -15 0 -16 0 0 10 0 10 -20 0 -20
0 0 10 0 10 -20 0 -20 0 0 10 0 10 -30 0 -30 0 0 10 0 10 -20 0 -20 0 0 -10z"/>
<path d="M1220 130 l0 -10 -25 0 -26 0 -34 -35 -35 -34 0 -6 0 -5 16 0 16 0
28 30 28 30 12 0 11 0 15 14 14 15 0 5 0 6 -10 0 -10 0 0 -10z"/>
<path d="M640 50 l0 -10 10 0 10 0 0 10 0 10 -10 0 -10 0 0 -10z"/>
</g>
</svg>
