<?xml version="1.0" standalone="no"?>
<!DOCTYPE svg PUBLIC "-//W3C//DTD SVG 20010904//EN"
 "http://www.w3.org/TR/2001/REC-SVG-20010904/DTD/svg10.dtd">
<svg version="1.0" xmlns="http://www.w3.org/2000/svg"
 width="468pt" height="468pt" viewBox="0 0 468 468"
 preserveAspectRatio="xMidYMid meet">
<metadata>
Created by potrace 1.8, written by Peter Selinger 2001-2007
</metadata>
<g transform="translate(0,468) scale(0.365625,-0.365625)"
fill="#000000" stroke="none">
<path d="M670 1271 l0 -9 -30 -7 -30 -7 0 -8 0 -8 -30 -7 -30 -7 0 -9 0 -9
-14 0 -14 0 -4 11 -4 11 -55 2 -55 1 -17 -17 -17 -17 0 -10 0 -10 -45 -7 -45
-6 0 -9 0 -9 -24 0 -24 0 -6 -15 -5 -15 -16 0 -15 0 0 -10 0 -10 -13 0 -14 0
-20 -17 -20 -18 -7 -22 -7 -22 -29 -6 -30 -7 0 -9 0 -9 -12 0 -13 0 -14 -9
-13 -9 21 -21 20 -20 26 -7 25 -6 0 -9 0 -9 15 0 15 0 0 -9 0 -9 34 -6 34 -7
6 -14 5 -15 16 0 15 0 0 -9 0 -9 35 -6 35 -7 0 -9 0 -10 10 0 9 0 91 -90 90
-89 0 -6 0 -5 -24 0 -24 0 -5 13 -4 12 -189 0 -189 0 -24 -22 -23 -21 7 -11 6
-11 24 0 23 0 4 -9 3 -9 163 -8 162 -7 0 -8 0 -9 70 0 70 0 0 -10 0 -9 63 -4
62 -3 -337 -2 -338 -2 0 -235 0 -235 640 0 640 0 0 234 0 233 -46 7 -47 6
-163 0 -164 0 0 10 0 10 -70 0 -70 0 0 9 0 9 -50 7 -50 7 0 9 0 9 -15 0 -16 0
-5 15 -6 15 -13 0 -13 0 -101 100 -101 100 -10 0 -10 0 0 9 0 9 -30 7 -30 7 0
9 0 9 -20 0 -21 0 -5 14 -6 15 -29 6 -29 7 0 9 0 9 -20 0 -20 0 0 9 0 9 -25 6
-26 7 -20 20 -21 21 13 9 14 9 13 0 12 0 0 9 0 9 20 5 20 5 0 -13 0 -14 20 -6
20 -6 0 -9 0 -8 26 -6 26 -7 22 -24 23 -25 12 0 11 0 0 -9 0 -9 30 -7 30 -7 0
-8 0 -9 35 -7 35 -6 0 -8 0 -8 30 -7 29 -6 6 -19 6 -19 19 -6 20 -6 6 -25 6
-24 9 0 9 0 0 -15 0 -16 15 -5 14 -6 6 -18 6 -19 32 -7 32 -7 5 -7 5 -8 25 -5
25 -4 -12 4 -13 4 0 9 0 9 -35 7 -35 6 0 9 0 9 -10 0 -10 0 -19 19 -19 19 -7
23 -7 22 -43 44 -43 43 -11 0 -11 0 0 10 0 9 -35 7 -35 6 0 8 0 8 -30 7 -30 7
0 9 0 9 -15 0 -15 0 0 9 0 9 -24 6 -24 6 -6 15 -5 15 14 0 15 0 0 9 0 9 26 6
27 7 31 31 31 31 0 59 0 58 3 -10 4 -10 19 0 19 0 0 10 0 10 -11 0 -10 0 28
28 28 29 13 -13 13 -13 17 5 17 6 -15 -12 -15 -12 12 -4 12 -5 -12 -14 -12
-13 -7 12 -8 11 -9 -14 -9 -13 -5 13 -5 14 -11 -15 -11 -15 0 -7 0 -8 29 0 29
0 5 -29 6 -29 20 -7 20 -6 6 -19 6 -20 25 -6 24 -6 0 -8 0 -8 43 -7 42 -7 7
-11 7 -11 87 -2 88 -1 4 -12 4 -11 14 0 14 0 0 10 0 10 -25 6 -25 6 0 8 0 8
22 5 22 6 5 -4 4 -5 -11 0 -12 0 0 -10 0 -10 20 0 20 0 0 -15 0 -15 -25 -6
-25 -6 0 -9 0 -9 -15 0 -15 0 0 -10 0 -10 -15 0 -15 0 0 10 0 10 -34 0 -34 0
-4 -12 -5 -13 4 -12 5 -13 34 0 34 0 0 9 0 10 45 7 45 6 0 9 0 9 15 0 15 0 0
10 0 10 15 0 15 0 0 -10 0 -10 -15 0 -15 0 0 -10 0 -10 10 0 10 0 0 -14 0 -14
-32 -7 -33 -8 -7 -10 -6 -10 -34 1 -33 1 -17 -5 -18 -5 0 -10 0 -9 20 0 20 0
0 -10 0 -10 20 0 20 0 0 10 0 10 15 0 15 0 0 9 0 9 34 6 33 6 17 -6 16 -6 0
-9 0 -9 -25 0 -25 0 0 -10 0 -9 -37 -7 -38 -7 -7 -10 -6 -10 5 -14 5 -13 34 0
34 0 1 13 1 12 -1 11 -1 11 40 6 40 5 20 -5 20 -5 0 -8 0 -7 -39 -7 -39 -6 -4
-12 -5 -13 4 -12 5 -13 25 0 24 0 15 15 15 15 -10 0 -11 0 0 10 0 10 35 0 35
0 0 -10 0 -10 15 0 15 0 0 9 0 9 -30 7 -30 7 0 8 0 9 -22 7 -22 7 -31 33 -32
33 5 31 4 30 14 0 14 0 0 -10 0 -10 25 -6 25 -6 0 -9 0 -9 25 0 25 0 0 9 0 9
37 7 38 7 7 11 8 12 0 12 0 12 -16 15 -15 16 -30 0 -29 0 0 10 0 10 -37 1 -38
2 28 4 27 4 0 10 0 9 40 6 40 7 0 8 0 9 11 0 10 0 15 14 14 15 0 9 0 10 -14 5
-14 5 2 -16 1 -17 -22 -3 -23 -3 0 -10 0 -9 -20 0 -20 0 0 -10 0 -9 -35 -7
-35 -6 0 -9 0 -9 -20 0 -20 0 0 10 0 10 -26 0 -25 0 15 16 16 15 0 10 0 9 25
6 25 6 0 8 0 8 30 7 30 7 0 9 0 9 15 0 15 0 0 13 0 12 -8 11 -7 12 -66 7 -66
7 -16 -16 -16 -16 -10 0 -11 0 0 -9 0 -9 -30 -7 -30 -7 0 -8 0 -9 -35 -7 -35
-6 0 -8 0 -7 -30 -6 -30 -6 -15 5 -15 6 0 8 0 7 40 7 40 6 0 9 0 9 30 7 30 7
0 9 0 9 14 0 14 0 4 11 4 11 47 5 47 6 0 7 0 8 -50 7 -50 7 0 8 0 8 -30 7 -30
7 0 9 0 9 -25 6 -25 6 0 9 0 9 -30 0 -30 0 0 -9z m95 -35 l16 -16 10 0 9 0 0
-9 0 -9 -35 -6 -35 -7 0 -9 0 -8 -30 -7 -30 -7 0 -9 0 -9 -15 0 -15 0 0 -9 0
-9 -45 -6 -45 -7 0 -8 0 -9 -21 -5 -21 -6 -14 6 -14 5 0 8 0 8 35 6 35 7 0 9
0 10 15 0 15 0 0 9 0 9 30 7 30 7 0 9 0 9 14 0 15 0 13 13 13 13 18 7 17 6 0
13 0 13 -8 -11 -7 -11 -22 -7 -23 -7 0 -9 0 -8 -30 -7 -30 -7 0 -8 0 -8 -30
-7 -30 -7 0 -9 0 -9 -14 0 -14 0 -5 -12 -4 -13 -8 7 -7 7 16 16 16 16 0 15 0
14 25 6 25 6 0 8 0 8 30 7 30 7 0 8 0 9 18 5 17 5 37 -4 37 -3 16 -16z m83
-42 l22 -6 0 -8 0 -8 -30 -7 -30 -7 0 -9 0 -9 -15 0 -15 0 0 -9 0 -9 -30 -7
-30 -7 0 -8 0 -8 -50 -7 -50 -7 0 -8 0 -8 -30 -7 -30 -7 0 -9 0 -9 15 0 15 0
0 9 0 9 25 6 25 6 25 -6 25 -6 0 -9 0 -9 -14 0 -14 0 -4 -11 -4 -11 -44 0 -45
1 -4 12 -3 11 -19 16 -19 16 0 8 0 7 35 7 35 6 0 8 0 7 40 7 40 6 0 10 0 10
15 0 15 0 0 9 0 9 30 7 30 7 0 8 0 9 23 4 22 4 10 2 10 1 23 -6z m162 -41 l0
-8 -8 -11 -7 -11 -22 -7 -23 -7 0 -9 0 -8 -30 -7 -30 -7 0 -9 0 -9 -40 -6 -40
-7 0 -8 0 -9 -14 0 -14 0 -6 -12 -6 -13 -6 13 -6 12 -19 0 -19 0 0 -10 0 -10
23 -1 22 -2 -22 -4 -23 -4 0 -10 0 -9 20 0 20 0 0 10 0 10 25 0 25 0 0 -9 0
-10 -10 -6 -11 -7 -74 7 -75 7 0 9 0 9 25 6 25 6 0 9 0 9 15 0 15 0 0 9 0 9
40 7 40 7 0 8 0 8 30 7 30 7 0 8 0 8 30 7 30 7 0 9 0 9 15 0 15 0 0 10 0 10
30 0 30 0 0 -7z m-684 -26 l5 12 14 -12 13 -12 -12 -8 -11 -9 12 -5 13 -5 -15
-14 -14 -15 5 -13 5 -13 -16 -17 -17 -16 -10 6 -11 7 -13 -18 -13 -18 -28 -3
-28 -3 -3 -10 -4 -11 -29 29 -29 29 -12 4 -13 5 39 36 38 37 11 -7 10 -6 13
18 13 18 28 3 28 3 4 12 3 11 10 -13 10 -14 4 12z m734 -2 l0 -15 -15 0 -15 0
0 -9 0 -9 -30 -7 -30 -7 0 -8 0 -8 -24 -6 -25 -6 -6 -20 -6 -19 -20 -6 -19 -6
-30 6 -30 7 0 9 0 9 25 0 25 0 0 9 0 9 30 7 30 7 0 8 0 8 25 6 25 6 0 9 0 9
30 7 30 7 0 9 0 9 15 0 15 0 0 -15z m-50 -164 l0 -8 50 -6 50 -6 13 -13 14
-12 -13 -13 -13 -13 -10 0 -11 0 0 9 0 9 -40 7 -40 7 0 8 0 8 -30 7 -30 7 0 9
0 9 30 0 30 0 0 -9z m-40 -32 l5 -7 28 -7 27 -7 0 -9 0 -9 25 0 25 0 0 -16 0
-16 -22 6 -23 6 -12 0 -12 0 -6 19 -6 19 -39 6 -40 6 0 16 0 15 23 -7 22 -7 5
-8z m-193 -65 l-6 -6 -13 5 -13 5 19 1 19 1 -6 -6z m53 -74 l0 -10 -15 0 -15
0 0 10 0 10 15 0 15 0 0 -10z m57 -66 l-6 -6 -13 5 -13 5 19 1 19 1 -6 -6z
m110 -30 l-6 -6 -13 5 -13 5 19 1 19 1 -6 -6z"/>
<path d="M287 1108 l-11 -7 8 -8 9 -8 4 12 4 12 14 -12 13 -12 -11 -7 -11 -7
7 -7 7 -7 6 5 6 6 2 24 3 24 -19 0 -19 0 -12 -8z"/>
<path d="M231 1082 l-24 -27 -4 12 -5 13 -29 -30 -30 -30 26 -24 27 -25 14 6
14 5 0 9 0 9 -10 0 -10 0 0 -10 0 -10 -20 17 -20 17 0 11 0 10 10 -15 10 -15
9 14 9 13 6 -13 6 -14 6 12 5 12 14 -12 13 -12 -11 -7 -11 -7 7 -7 7 -7 27 29
26 29 5 -13 4 -12 15 16 15 15 -17 13 -18 13 7 11 7 12 -15 -6 -16 -6 -6 16
-6 16 -7 0 -6 0 -24 -28z m55 -14 l24 -23 0 -10 0 -10 -11 15 -11 15 -4 -10
-4 -10 -9 -14 -9 -14 -18 17 -17 18 14 9 14 9 -12 0 -12 0 -11 -17 -11 -18 -6
14 -5 13 -9 -13 -8 -13 -8 7 -7 8 14 9 14 9 9 -6 9 -5 19 21 20 21 5 0 6 0 24
-22z"/>
<path d="M250 1070 l0 -10 13 0 12 0 -15 -10 -14 -9 7 -8 8 -7 9 13 8 14 -5
14 -5 13 -9 0 -9 0 0 -10z"/>
<path d="M425 1184 l-15 -15 0 -2 0 -2 34 0 33 0 -4 12 -5 11 -13 6 -14 5 -16
-15z"/>
<path d="M432 967 l14 -14 24 -8 25 -8 34 -36 34 -36 -15 -3 -16 -3 -6 -14 -5
-13 24 -26 24 -26 11 0 10 0 0 -10 0 -10 13 0 14 0 24 -21 24 -20 4 12 4 12
-17 12 -16 12 0 13 0 13 -16 12 -16 12 6 21 7 22 25 6 24 6 0 7 0 6 -8 11 -7
11 -32 8 -33 7 0 8 0 8 -42 7 -43 7 -5 8 -5 7 -39 7 -39 7 15 -14z"/>
<path d="M1097 692 l-18 -4 4 -11 4 -12 24 -1 24 -2 12 5 13 5 0 8 0 8 -22 4
-23 4 -18 -4z"/>
<path d="M1060 656 l0 -14 13 -5 12 -5 -15 -11 -15 -11 -22 0 -23 0 0 -10 0
-10 -50 0 -50 0 0 9 0 9 -65 7 -65 7 -29 -7 -28 -6 0 -24 0 -25 33 -6 33 -6
10 3 10 4 -10 15 -11 15 -5 -12 -5 -13 -8 0 -8 0 -5 13 -5 14 9 14 9 14 10
-15 10 -15 9 14 9 13 5 -13 5 -14 10 14 10 13 3 -11 4 -12 26 -3 26 -3 22 -22
23 -23 -7 -6 -7 -7 -9 16 -9 16 -45 -2 -46 -3 -6 -6 -6 -6 7 -7 7 -7 171 -1
171 0 4 13 5 12 13 0 14 0 15 16 16 15 0 18 0 18 -23 26 -23 27 -11 0 -12 0
-16 -17 -17 -16 -8 13 -8 12 -5 -13 -6 -14 -11 18 -11 17 -9 0 -10 0 0 -14z
m138 -78 l-21 -21 -56 -2 -55 -2 -4 -13 -4 -12 -9 13 -9 14 -9 -15 -10 -14 -8
8 -8 9 14 5 13 4 -13 9 -13 8 7 8 8 7 9 -14 9 -15 14 19 14 19 9 -6 10 -6 14
10 15 9 -11 8 -12 7 13 12 14 12 4 -12 5 -12 18 21 17 21 29 -29 28 -28 -22
-22z m-247 -19 l21 -21 -5 -5 -5 -5 -21 21 -21 21 0 5 0 5 5 0 5 0 21 -21z
m23 6 l5 -15 13 1 13 1 -12 5 -13 5 0 9 0 9 9 0 9 0 5 -13 5 -14 -8 -13 -8
-12 -21 21 -21 21 0 5 0 5 9 0 9 0 6 -15z"/>
<path d="M1151 623 l-13 -14 -15 5 -14 6 7 -12 7 -11 -18 -13 -19 -14 8 -7 8
-8 9 18 10 17 12 0 12 0 -15 -10 -14 -9 7 -8 8 -7 10 14 11 15 4 -12 5 -12 22
19 21 20 -20 18 -20 19 -13 -14z m39 -23 l0 -8 -13 -5 -14 -5 -14 9 -14 9 14
9 14 9 14 -5 13 -5 0 -8z"/>
<path d="M1057 566 l-6 -15 15 6 14 5 0 9 0 9 -9 0 -9 0 -5 -14z"/>
<path d="M807 574 l5 -14 9 0 9 0 0 13 0 12 10 -15 9 -14 7 7 7 7 -5 6 -6 6
-25 2 -25 3 5 -13z"/>
<path d="M870 570 l0 -10 10 0 10 0 0 10 0 10 -10 0 -10 0 0 -10z"/>
<path d="M1200 541 l0 -9 25 -6 25 -6 0 -10 0 -10 -15 0 -15 0 0 -10 0 -10 16
0 15 0 15 14 14 15 0 4 0 5 -25 6 -25 6 0 10 0 10 -15 0 -15 0 0 -9z"/>
</g>
</svg>
