<?xml version="1.0" standalone="no"?>
<!DOCTYPE svg PUBLIC "-//W3C//DTD SVG 20010904//EN"
 "http://www.w3.org/TR/2001/REC-SVG-20010904/DTD/svg10.dtd">
<svg version="1.0" xmlns="http://www.w3.org/2000/svg"
 width="468pt" height="468pt" viewBox="0 0 468 468"
 preserveAspectRatio="xMidYMid meet">
<metadata>
Created by potrace 1.8, written by Peter Selinger 2001-2007
</metadata>
<g transform="translate(0,468) scale(0.365625,-0.365625)"
fill="#000000" stroke="none">
<path d="M540 1270 l0 -10 -40 0 -40 0 0 -10 0 -10 -30 0 -30 0 0 -10 0 -10
-20 0 -20 0 0 -10 0 -10 -18 0 -18 0 -14 -20 -14 -20 -13 0 -13 0 -75 -75 -75
-75 0 -13 0 -13 -20 -14 -20 -14 0 -18 0 -18 -10 0 -10 0 0 -20 0 -20 -10 0
-10 0 0 -30 0 -30 -10 0 -10 0 0 -40 0 -40 -10 0 -10 0 0 -100 0 -100 10 0 10
0 0 -40 0 -40 10 0 10 0 0 -30 0 -30 10 0 10 0 0 -20 0 -20 10 0 10 0 0 -18 0
-18 20 -14 20 -14 0 -13 0 -13 75 -75 75 -75 13 0 13 0 14 -20 14 -20 18 0 18
0 0 -10 0 -10 20 0 20 0 0 -10 0 -10 30 0 30 0 0 -10 0 -10 40 0 40 0 0 -10 0
-10 100 0 100 0 0 10 0 10 40 0 40 0 0 10 0 10 30 0 30 0 0 10 0 10 20 0 20 0
0 10 0 10 18 0 18 0 14 20 14 20 13 0 13 0 75 75 75 75 0 13 0 13 20 14 20 14
0 18 0 18 10 0 10 0 0 20 0 20 10 0 10 0 0 30 0 30 10 0 10 0 0 40 0 40 10 0
10 0 0 100 0 100 -10 0 -10 0 0 40 0 40 -10 0 -10 0 0 30 0 30 -10 0 -10 0 0
20 0 20 -10 0 -10 0 0 18 0 18 -20 14 -20 14 0 13 0 13 -75 75 -75 75 -13 0
-13 0 -14 20 -14 20 -18 0 -18 0 0 10 0 10 -20 0 -20 0 0 10 0 10 -30 0 -30 0
0 10 0 10 -40 0 -40 0 0 10 0 10 -100 0 -100 0 0 -10z m200 -20 l0 -10 40 0
40 0 0 -10 0 -10 30 0 30 0 0 -10 0 -10 20 0 20 0 0 -10 0 -10 18 0 18 0 14
-20 14 -20 13 0 13 0 65 -65 65 -65 0 -13 0 -13 20 -14 20 -14 0 -18 0 -18 10
0 10 0 0 -20 0 -20 10 0 10 0 0 -30 0 -30 10 0 10 0 0 -40 0 -40 10 0 10 0 0
-100 0 -100 -10 0 -10 0 0 -40 0 -40 -10 0 -10 0 0 -30 0 -30 -10 0 -10 0 0
-20 0 -20 -10 0 -10 0 0 -18 0 -18 -20 -14 -20 -14 0 -13 0 -13 -65 -65 -65
-65 -13 0 -13 0 -14 -20 -14 -20 -18 0 -18 0 0 -10 0 -10 -20 0 -20 0 0 -10 0
-10 -30 0 -30 0 0 -10 0 -10 -40 0 -40 0 0 -10 0 -10 -100 0 -100 0 0 10 0 10
-40 0 -40 0 0 10 0 10 -30 0 -30 0 0 10 0 10 -20 0 -20 0 0 10 0 10 -18 0 -18
0 -14 20 -14 20 -13 0 -13 0 -65 65 -65 65 0 13 0 13 -20 14 -20 14 0 18 0 18
-10 0 -10 0 0 20 0 20 -10 0 -10 0 0 30 0 30 -10 0 -10 0 0 40 0 40 -10 0 -10
0 0 100 0 100 10 0 10 0 0 40 0 40 10 0 10 0 0 30 0 30 10 0 10 0 0 20 0 20
10 0 10 0 0 18 0 18 20 14 20 14 0 13 0 13 65 65 65 65 13 0 13 0 14 20 14 20
18 0 18 0 0 10 0 10 20 0 20 0 0 10 0 10 30 0 30 0 0 10 0 10 40 0 40 0 0 10
0 10 100 0 100 0 0 -10z"/>
<path d="M540 1230 l0 -10 -40 0 -40 0 0 -10 0 -10 -30 0 -30 0 0 -10 0 -10
-20 0 -20 0 0 -10 0 -10 -15 0 -16 0 -45 -45 -45 -45 35 -35 35 -35 16 0 15 0
0 10 0 10 40 0 40 0 0 10 0 10 20 0 20 0 0 10 0 10 16 0 16 0 28 30 28 30 11
0 12 0 24 25 25 24 0 36 0 35 -40 0 -40 0 0 -10z"/>
<path d="M660 1205 l0 -36 25 -24 24 -25 12 0 11 0 28 -30 28 -30 16 0 16 0 0
-10 0 -10 20 0 20 0 0 -10 0 -10 40 0 40 0 0 -10 0 -10 15 0 16 0 35 35 35 35
-45 45 -45 45 -16 0 -15 0 0 10 0 10 -20 0 -20 0 0 10 0 10 -30 0 -30 0 0 10
0 10 -40 0 -40 0 0 10 0 10 -40 0 -40 0 0 -35z"/>
<path d="M380 990 l0 -10 -35 0 -36 0 -24 -25 -25 -24 0 -16 0 -15 -10 0 -10
0 0 -20 0 -20 -10 0 -10 0 0 -20 0 -20 -10 0 -10 0 0 -50 0 -50 10 0 10 0 0
-40 0 -40 100 0 100 0 0 20 0 20 10 0 10 0 0 20 0 20 10 0 10 0 0 20 0 20 10
0 10 0 0 18 0 18 20 14 20 14 0 18 0 18 -10 0 -10 0 0 20 0 20 -10 0 -10 0 0
30 0 30 -10 0 -10 0 0 20 0 20 -40 0 -40 0 0 -10z"/>
<path d="M820 980 l0 -20 -10 0 -10 0 0 -30 0 -30 -10 0 -10 0 0 -20 0 -20
-10 0 -10 0 0 -18 0 -18 20 -14 20 -14 0 -18 0 -18 10 0 10 0 0 -20 0 -20 10
0 10 0 0 -20 0 -20 10 0 10 0 0 -20 0 -20 100 0 100 0 0 40 0 40 10 0 10 0 0
50 0 50 -10 0 -10 0 0 20 0 20 -10 0 -10 0 0 20 0 20 -10 0 -10 0 0 15 0 16
-25 24 -24 25 -36 0 -35 0 0 10 0 10 -40 0 -40 0 0 -20z"/>
<path d="M523 795 l-23 -24 0 -16 0 -15 -10 0 -10 0 0 -20 0 -20 -10 0 -10 0
0 -30 0 -30 -10 0 -10 0 0 -30 0 -30 10 0 10 0 0 -30 0 -30 10 0 10 0 0 -20 0
-20 10 0 10 0 0 -20 0 -20 140 0 140 0 0 20 0 20 10 0 10 0 0 20 0 20 10 0 10
0 0 30 0 30 10 0 10 0 0 30 0 30 -10 0 -10 0 0 30 0 30 -10 0 -10 0 0 20 0 20
-10 0 -10 0 0 15 0 16 -25 24 -24 25 -93 -1 -93 0 -22 -24z"/>
<path d="M60 760 l0 -20 -10 0 -10 0 0 -100 0 -100 10 0 10 0 0 -40 0 -40 10
0 10 0 0 -30 0 -30 10 0 10 0 0 -16 0 -15 14 -15 15 -14 11 0 11 0 15 14 14
15 0 45 0 46 10 0 10 0 0 110 0 110 -10 0 -10 0 0 30 0 30 -10 0 -10 0 0 20 0
20 -50 0 -50 0 0 -20z"/>
<path d="M1120 760 l0 -20 -10 0 -10 0 0 -30 0 -30 -10 0 -10 0 0 -110 0 -110
10 0 10 0 0 -46 0 -45 14 -15 15 -14 11 0 11 0 15 14 14 15 0 15 0 16 10 0 10
0 0 30 0 30 10 0 10 0 0 40 0 40 10 0 10 0 0 100 0 100 -10 0 -10 0 0 20 0 20
-50 0 -50 0 0 -20z"/>
<path d="M493 365 l-33 -34 0 -16 0 -15 -10 0 -10 0 0 -16 0 -16 30 -28 30
-28 0 -12 0 -11 14 -15 15 -14 111 0 111 0 15 14 14 15 0 11 0 12 30 28 30 28
0 16 0 16 -10 0 -10 0 0 15 0 16 -35 34 -34 35 -113 -1 -113 0 -32 -34z"/>
<path d="M173 325 l-13 -14 0 -16 0 -15 10 0 10 0 0 -15 0 -16 35 -34 34 -35
12 0 11 0 28 -30 28 -30 16 0 16 0 0 -10 0 -10 20 0 20 0 0 -10 0 -10 26 0 25
0 15 14 14 15 0 14 0 15 13 5 12 4 -22 20 -23 20 0 13 0 12 -30 28 -30 28 0
16 0 16 -30 0 -30 0 0 10 0 10 -30 0 -30 0 0 10 0 10 -47 0 -48 -1 -12 -14z"/>
<path d="M1000 330 l0 -10 -30 0 -30 0 0 -10 0 -10 -30 0 -30 0 0 -16 0 -16
-30 -28 -30 -28 0 -12 0 -13 -22 -20 -23 -20 13 -4 12 -5 0 -15 0 -14 14 -15
15 -14 25 0 26 0 0 10 0 10 20 0 20 0 0 10 0 10 16 0 16 0 28 30 28 30 11 0
12 0 34 35 35 34 0 16 0 15 10 0 10 0 0 16 0 15 -14 15 -15 14 -45 0 -46 0 0
-10z"/>
</g>
</svg>
