<?xml version="1.0" standalone="no"?>
<!DOCTYPE svg PUBLIC "-//W3C//DTD SVG 20010904//EN"
 "http://www.w3.org/TR/2001/REC-SVG-20010904/DTD/svg10.dtd">
<svg version="1.0" xmlns="http://www.w3.org/2000/svg"
 width="468pt" height="468pt" viewBox="0 0 468 468"
 preserveAspectRatio="xMidYMid meet">
<metadata>
Created by potrace 1.8, written by Peter Selinger 2001-2007
</metadata>
<g transform="translate(0,468) scale(0.365625,-0.365625)"
fill="#000000" stroke="none">
<path d="M553 1224 l-53 -54 0 -5 0 -5 110 0 110 0 0 5 0 5 -55 55 -55 55 -2
-1 -3 0 -52 -55z m93 0 l36 -35 -7 -7 -6 -6 -10 14 -9 15 -10 -15 -10 -15 -10
15 -10 15 -10 -15 -10 -15 -10 15 -10 15 -9 -15 -10 -14 -6 6 -7 7 34 35 33
35 3 0 3 1 35 -36z"/>
<path d="M591 1224 l-13 -15 7 -7 6 -6 10 14 9 15 9 -15 10 -14 7 6 6 7 -15
16 -16 15 -3 0 -3 -1 -14 -15z"/>
<path d="M540 1130 l0 -10 -40 0 -40 0 0 -10 0 -10 -20 0 -20 0 0 -10 0 -10
-20 0 -20 0 0 -10 0 -10 -15 0 -15 0 -65 -65 -65 -65 0 -15 0 -15 -10 0 -10 0
0 -20 0 -20 -10 0 -10 0 0 -20 0 -20 -10 0 -10 0 0 -40 0 -40 -10 0 -10 0 0
-110 0 -110 10 0 10 0 0 -40 0 -40 10 0 10 0 0 -20 0 -20 10 0 10 0 0 -15 0
-15 85 -85 85 -85 15 0 15 0 0 -10 0 -10 20 0 20 0 0 -10 0 -10 20 0 20 0 0
-10 0 -10 130 0 130 0 0 10 0 10 40 0 40 0 0 10 0 10 20 0 20 0 0 10 0 10 20
0 20 0 0 10 0 10 15 0 15 0 65 65 65 65 0 15 0 15 10 0 10 0 0 20 0 20 10 0
10 0 0 20 0 20 10 0 10 0 0 50 0 50 10 0 10 0 0 90 0 90 -10 0 -10 0 0 40 0
40 -10 0 -10 0 0 20 0 20 -10 0 -10 0 0 20 0 20 -10 0 -10 0 0 15 0 15 -65 65
-65 65 -15 0 -15 0 0 10 0 10 -20 0 -20 0 0 10 0 10 -20 0 -20 0 0 10 0 10
-40 0 -40 0 0 10 0 10 -100 0 -100 0 0 -10z m23 -22 l5 -13 11 15 11 15 10
-15 10 -15 10 15 10 15 10 -15 10 -15 10 15 10 15 10 -15 10 -15 11 15 11 15
5 -12 5 -13 29 0 29 0 0 -6 0 -5 -16 -16 -16 -16 -8 14 -9 13 -8 -7 -7 -8 14
-10 15 -9 -15 -9 -14 -10 7 -8 8 -7 9 13 8 14 17 -16 16 -17 -16 -17 -17 -16
-8 14 -9 13 -8 -7 -7 -8 14 -10 15 -9 -15 -9 -14 -10 7 -8 8 -7 9 13 8 14 17
-16 16 -17 -16 -17 -17 -16 -8 14 -9 13 -8 -7 -7 -8 14 -10 15 -9 -15 -9 -14
-10 7 -8 8 -7 9 13 8 14 17 -16 16 -17 -16 -17 -17 -16 -8 14 -9 13 -8 -7 -7
-8 14 -10 15 -9 -15 -9 -14 -10 7 -8 8 -7 9 13 8 14 17 -16 16 -17 -16 -17
-17 -16 -8 14 -9 13 -8 -7 -7 -8 14 -10 15 -9 -15 -9 -14 -10 7 -8 8 -7 9 13
8 14 17 -16 16 -17 -16 -17 -17 -16 -8 14 -9 13 -8 -7 -7 -8 14 -10 15 -9 -15
-9 -14 -10 7 -8 8 -7 9 13 8 14 17 -16 16 -17 -16 -17 -17 -16 -8 14 -9 13 -8
-7 -7 -8 14 -10 15 -9 -15 -9 -14 -10 7 -8 8 -7 9 13 8 14 17 -16 16 -17 -16
-17 -17 -16 -8 14 -9 13 -8 -7 -7 -8 14 -10 15 -9 -15 -9 -14 -10 7 -8 8 -7 9
13 8 14 17 -16 16 -17 -16 -17 -17 -16 -8 14 -9 13 -8 -7 -7 -8 14 -10 15 -9
-15 -9 -14 -10 7 -8 8 -7 9 13 8 14 17 -16 16 -17 -16 -17 -17 -16 -8 14 -9
13 -8 -7 -7 -8 14 -10 15 -9 -15 -9 -14 -10 7 -8 8 -7 9 13 8 14 17 -16 16
-17 -16 -17 -17 -16 -8 14 -9 13 -8 -7 -7 -8 14 -10 15 -9 -15 -9 -14 -10 7
-8 8 -7 9 14 9 14 20 -23 21 -24 21 24 20 23 9 -14 9 -14 8 7 7 8 -14 10 -15
9 15 9 14 10 -7 8 -8 7 -9 -13 -8 -14 -17 16 -16 17 16 17 17 16 8 -14 9 -13
8 7 7 8 -14 10 -15 9 15 9 14 10 -7 8 -8 7 -9 -13 -8 -14 -17 16 -16 17 16 17
17 16 8 -14 9 -13 8 7 7 8 -14 10 -15 9 15 9 14 10 -7 8 -8 7 -9 -13 -8 -14
-17 16 -16 17 16 17 17 16 8 -14 9 -13 8 7 7 8 -14 10 -15 9 15 9 14 10 -7 8
-8 7 -9 -13 -8 -14 -17 16 -16 17 16 17 17 16 8 -14 9 -13 8 7 7 8 -14 10 -15
9 15 9 14 10 -7 8 -8 7 -9 -13 -8 -14 -17 16 -16 17 16 17 17 16 8 -14 9 -13
8 7 7 8 -14 10 -15 9 15 9 14 10 -7 8 -8 7 -9 -13 -8 -14 -17 16 -16 17 16 17
17 16 8 -14 9 -13 8 7 7 8 -14 10 -15 9 15 9 14 10 -7 8 -8 7 -9 -13 -8 -14
-17 16 -16 17 16 17 17 16 8 -14 9 -13 8 7 7 8 -14 10 -15 9 15 9 14 10 -7 8
-8 7 -9 -13 -8 -14 -17 16 -16 17 16 17 17 16 8 -14 9 -13 8 7 7 8 -14 10 -15
9 15 9 14 10 -7 8 -8 7 -9 -13 -8 -14 -17 16 -16 17 16 17 17 16 8 -14 9 -13
8 7 7 8 -14 10 -15 9 15 9 14 10 -7 8 -8 7 -9 -13 -8 -14 -17 16 -16 17 16 17
17 16 8 -14 9 -13 7 6 6 7 -27 26 -26 27 -7 -6 -6 -7 13 -9 14 -8 -16 -17 -17
-16 -16 15 -15 16 26 26 26 26 18 -21 18 -21 22 0 22 0 59 -60 59 -60 15 0 16
0 0 -19 0 -19 13 -6 12 -6 -12 -6 -13 -6 0 -9 0 -9 20 0 20 0 0 -19 0 -19 13
-5 12 -5 -15 -11 -15 -11 14 -9 14 -9 -17 -18 -18 -17 -8 14 -9 13 -8 -7 -7
-8 14 -10 15 -9 -15 -9 -14 -10 7 -8 8 -7 9 13 8 14 17 -16 16 -17 -16 -17
-17 -16 -8 14 -9 13 -8 -7 -7 -8 14 -10 15 -9 -15 -9 -14 -10 7 -8 8 -7 9 13
8 14 17 -16 16 -17 -16 -17 -17 -16 -8 14 -9 13 -8 -7 -7 -8 14 -10 15 -9 -15
-9 -14 -10 7 -8 8 -7 9 13 8 14 18 -17 17 -18 -14 -9 -14 -9 15 -11 15 -11
-12 -5 -13 -5 0 -27 0 -27 -20 -14 -20 -14 0 -23 0 -23 -56 -56 -55 -56 -20
23 -19 22 -7 -7 -7 -7 13 -9 14 -8 -26 -26 -26 -26 -25 0 -24 0 -5 -12 -5 -13
-11 15 -10 14 -19 -22 -19 -22 -27 0 -26 0 0 9 0 9 13 5 12 4 -8 9 -8 8 -9
-13 -8 -14 -17 16 -16 17 16 17 17 16 8 -14 9 -13 8 7 7 8 -14 10 -15 9 15 9
14 10 -7 8 -8 7 -9 -13 -8 -14 -17 16 -16 17 16 17 17 16 8 -14 9 -13 8 7 7 8
-14 10 -15 9 15 9 14 10 -7 8 -8 7 -9 -13 -8 -14 -17 16 -16 17 16 17 17 16 8
-14 9 -13 8 7 7 8 -14 10 -15 9 15 9 14 10 -7 8 -8 7 -9 -13 -8 -14 -17 16
-16 17 16 17 17 16 8 -14 9 -13 8 7 7 8 -14 10 -15 9 15 9 14 10 -7 8 -8 7 -9
-13 -8 -14 -17 16 -16 17 16 17 17 16 8 -14 9 -13 8 7 7 8 -14 10 -15 9 15 9
14 10 -7 8 -8 7 -9 -13 -8 -14 -17 16 -16 17 16 17 17 16 8 -14 9 -13 8 7 7 8
-14 10 -15 9 15 9 14 10 -7 8 -8 7 -9 -13 -8 -14 -17 16 -16 17 16 17 17 16 8
-14 9 -13 8 7 7 8 -14 10 -15 9 15 9 14 10 -7 8 -8 7 -9 -13 -8 -14 -17 16
-16 17 16 17 17 16 8 -14 9 -13 8 7 7 8 -14 10 -15 9 15 9 14 10 -7 8 -8 7 -9
-13 -8 -14 -17 16 -16 17 16 17 17 16 8 -14 9 -13 8 7 7 8 -14 10 -15 9 15 9
14 10 -7 8 -8 7 -9 -13 -8 -14 -17 16 -16 17 16 17 17 16 8 -14 9 -13 8 7 7 8
-14 10 -15 9 15 9 14 10 -7 8 -8 7 -9 -13 -8 -14 -17 16 -16 17 16 17 17 16 8
-14 9 -13 8 7 7 8 -14 10 -15 9 15 9 14 10 -7 8 -8 7 -9 -14 -9 -14 -20 23
-21 24 -21 -24 -20 -23 -9 14 -9 14 -8 -7 -7 -8 14 -10 15 -9 -15 -9 -14 -10
7 -8 8 -7 9 13 8 14 17 -16 16 -17 -16 -17 -17 -16 -8 14 -9 13 -8 -7 -7 -8
14 -10 15 -9 -15 -9 -14 -10 7 -8 8 -7 9 13 8 14 17 -16 16 -17 -16 -17 -17
-16 -8 14 -9 13 -8 -7 -7 -8 14 -10 15 -9 -15 -9 -14 -10 7 -8 8 -7 9 13 8 14
17 -16 16 -17 -16 -17 -17 -16 -8 14 -9 13 -8 -7 -7 -8 14 -10 15 -9 -15 -9
-14 -10 7 -8 8 -7 9 13 8 14 17 -16 16 -17 -16 -17 -17 -16 -8 14 -9 13 -8 -7
-7 -8 14 -10 15 -9 -15 -9 -14 -10 7 -8 8 -7 9 13 8 14 17 -16 16 -17 -16 -17
-17 -16 -8 14 -9 13 -8 -7 -7 -8 14 -10 15 -9 -15 -9 -14 -10 7 -8 8 -7 9 13
8 14 17 -16 16 -17 -16 -17 -17 -16 -8 14 -9 13 -8 -7 -7 -8 14 -10 15 -9 -15
-9 -14 -10 7 -8 8 -7 9 13 8 14 17 -16 16 -17 -16 -17 -17 -16 -8 14 -9 13 -8
-7 -7 -8 14 -10 15 -9 -15 -9 -14 -10 7 -8 8 -7 9 13 8 14 17 -16 16 -17 -16
-17 -17 -16 -8 14 -9 13 -8 -7 -7 -8 14 -10 15 -9 -15 -9 -14 -10 7 -8 8 -7 9
13 8 14 17 -16 16 -17 -16 -17 -17 -16 -8 14 -9 13 -8 -7 -7 -8 14 -10 15 -9
-15 -9 -14 -10 7 -8 8 -7 9 13 8 14 17 -16 16 -17 -16 -17 -17 -16 -8 14 -9
13 -8 -7 -7 -8 14 -10 15 -9 -15 -9 -14 -10 7 -8 8 -7 9 13 8 14 17 -16 16
-17 -16 -17 -17 -16 -8 14 -9 13 -8 -8 -8 -9 13 -4 12 -5 0 -9 0 -9 -20 0 -20
0 0 20 0 20 -9 0 -9 0 -5 -12 -5 -13 -11 15 -11 15 -11 -15 -11 -15 -5 13 -5
12 -19 0 -19 0 0 20 0 20 6 0 7 0 18 -22 19 -21 21 24 20 23 9 -14 9 -14 8 7
7 8 -14 10 -15 9 15 9 14 10 -7 8 -8 7 -9 -13 -8 -14 -17 16 -16 17 16 17 17
16 8 -14 9 -13 8 7 7 8 -14 10 -15 9 15 9 14 10 -7 8 -8 7 -9 -13 -8 -14 -17
16 -16 17 16 17 17 16 8 -14 9 -13 8 7 7 8 -14 10 -15 9 15 9 14 10 -7 8 -8 7
-9 -13 -8 -14 -17 16 -16 17 16 17 17 16 8 -14 9 -13 8 7 7 8 -14 10 -15 9 15
9 14 10 -7 8 -8 7 -9 -13 -8 -14 -17 16 -16 17 16 17 17 16 8 -14 9 -13 8 7 7
8 -14 10 -15 9 15 9 14 10 -7 8 -8 7 -9 -13 -8 -14 -17 16 -16 17 16 17 17 16
8 -14 9 -13 8 7 7 8 -14 10 -15 9 15 9 14 10 -7 8 -8 7 -9 -13 -8 -14 -17 16
-16 17 16 17 17 16 8 -14 9 -13 8 7 7 8 -14 10 -15 9 15 9 14 10 -7 8 -8 7 -9
-13 -8 -14 -17 16 -16 17 16 17 17 16 8 -14 9 -13 8 7 7 8 -14 10 -15 9 15 9
14 10 -7 8 -8 7 -9 -13 -8 -14 -17 16 -16 17 16 17 17 16 8 -14 9 -13 8 7 7 8
-14 10 -15 9 15 9 14 10 -7 8 -8 7 -9 -13 -8 -14 -17 16 -16 17 16 17 17 16 8
-14 9 -13 8 7 7 8 -14 10 -15 9 15 9 14 10 -7 8 -8 7 -9 -13 -8 -14 -17 16
-16 17 16 17 17 16 8 -14 9 -13 8 7 7 8 -14 10 -15 9 15 9 14 10 -7 8 -8 7
-10 -14 -9 -15 -9 15 -10 14 -8 -7 -7 -8 13 -9 14 -8 -17 -17 -17 -17 -19 22
-19 22 -17 -16 -16 -17 6 -7 7 -6 9 13 8 14 17 -16 16 -17 -16 -17 -17 -16 -8
14 -9 13 -8 -7 -7 -8 14 -10 15 -9 -15 -9 -14 -10 7 -8 8 -7 9 13 8 14 17 -16
16 -17 -16 -17 -17 -16 -8 14 -9 13 -8 -7 -7 -8 14 -10 15 -9 -15 -9 -14 -10
7 -8 8 -7 9 13 8 14 17 -16 16 -17 -16 -17 -17 -16 -8 14 -9 13 -8 -7 -7 -8
14 -10 15 -9 -15 -9 -14 -10 7 -8 8 -7 9 13 8 14 17 -16 16 -17 -16 -17 -17
-16 -8 14 -9 13 -8 -7 -7 -8 14 -10 15 -9 -15 -9 -14 -10 7 -8 8 -7 9 13 8 14
17 -16 16 -17 -16 -17 -17 -16 -8 14 -9 13 -8 -7 -7 -8 14 -10 15 -9 -15 -9
-14 -10 7 -8 8 -7 9 13 8 14 17 -16 16 -17 -16 -17 -17 -16 -8 14 -9 13 -8 -7
-7 -8 14 -10 15 -9 -15 -9 -14 -10 7 -8 8 -7 9 13 8 14 17 -16 16 -17 -16 -17
-17 -16 -8 14 -9 13 -8 -7 -7 -8 14 -10 15 -9 -15 -9 -14 -10 7 -8 8 -7 9 13
8 14 17 -16 16 -17 -16 -17 -17 -16 -8 14 -9 13 -8 -7 -7 -8 14 -10 15 -9 -15
-9 -14 -10 7 -8 8 -7 9 13 8 14 17 -16 16 -17 -16 -17 -17 -16 -8 14 -9 13 -8
-7 -7 -8 14 -10 15 -9 -15 -9 -14 -10 7 -8 8 -7 9 13 8 14 17 -16 16 -17 -16
-17 -17 -16 -8 14 -9 13 -8 -7 -7 -8 13 -9 14 -8 -16 -17 -17 -16 -17 16 -16
17 14 8 13 9 -7 8 -8 7 -8 -13 -9 -14 -66 67 -66 66 0 21 0 22 -22 18 -21 19
23 20 23 20 -8 8 -8 7 -4 -12 -5 -13 -9 0 -9 0 0 29 0 29 -12 5 -13 5 15 11
15 11 -15 10 -15 10 15 10 15 10 -15 10 -15 10 15 10 15 10 -15 10 -15 10 15
10 15 10 -15 11 -15 11 13 5 12 5 0 25 0 26 22 19 22 19 -14 10 -15 11 13 5
12 5 0 19 0 19 20 0 20 0 0 -9 0 -9 -12 -5 -13 -4 8 -9 8 -8 9 13 8 14 17 -16
16 -17 -16 -17 -17 -16 -8 14 -9 13 -8 -7 -7 -8 14 -10 15 -9 -15 -9 -14 -10
7 -8 8 -7 9 13 8 14 17 -16 16 -17 -16 -17 -17 -16 -8 14 -9 13 -8 -7 -7 -8
14 -10 15 -9 -15 -9 -14 -10 7 -8 8 -7 9 13 8 14 17 -16 16 -17 -16 -17 -17
-16 -8 14 -9 13 -8 -7 -7 -8 14 -10 15 -9 -15 -9 -14 -10 7 -8 8 -7 9 13 8 14
17 -16 16 -17 -16 -17 -17 -16 -8 14 -9 13 -8 -7 -7 -8 14 -10 15 -9 -15 -9
-14 -10 7 -8 8 -7 9 13 8 14 17 -16 16 -17 -16 -17 -17 -16 -8 14 -9 13 -8 -7
-7 -8 14 -10 15 -9 -15 -9 -14 -10 7 -8 8 -7 9 13 8 14 17 -16 16 -17 -16 -17
-17 -16 -8 14 -9 13 -8 -7 -7 -8 14 -10 15 -9 -15 -9 -14 -10 7 -8 8 -7 9 13
8 14 18 -17 17 -18 -14 -8 -13 -9 7 -8 8 -7 9 13 8 14 18 -17 17 -18 -14 -8
-13 -9 7 -8 8 -7 10 14 9 15 9 -15 10 -14 8 7 7 8 -14 10 -15 9 15 9 14 10 -7
8 -8 7 -9 -13 -8 -14 -17 16 -16 17 16 17 17 16 8 -14 9 -13 8 7 7 8 -14 10
-15 9 15 9 14 10 -7 8 -8 7 -9 -13 -8 -14 -17 16 -16 17 16 17 17 16 8 -14 9
-13 8 7 7 8 -14 10 -15 9 15 9 14 10 -7 8 -8 7 -9 -13 -8 -14 -17 16 -16 17
16 17 17 16 8 -14 9 -13 8 7 7 8 -14 10 -15 9 15 9 14 10 -7 8 -8 7 -9 -13 -8
-14 -17 16 -16 17 16 17 17 16 8 -14 9 -13 8 7 7 8 -14 10 -15 9 15 9 14 10
-7 8 -8 7 -9 -13 -8 -14 -17 16 -16 17 16 17 17 16 8 -14 9 -13 8 7 7 8 -14
10 -15 9 15 9 14 10 -7 8 -8 7 -9 -13 -8 -14 -17 16 -16 17 16 17 17 16 8 -14
9 -13 8 7 7 8 -14 10 -15 9 15 9 14 10 -7 8 -8 7 -9 -13 -8 -14 -17 16 -16 17
16 17 17 16 8 -14 9 -13 8 7 7 8 -14 10 -15 9 15 9 14 10 -7 8 -8 7 -9 -13 -8
-14 -17 16 -16 17 16 17 17 16 8 -14 9 -13 8 7 7 8 -14 10 -15 9 15 9 14 10
-7 8 -8 7 -10 -14 -9 -15 -9 15 -10 14 -8 -7 -7 -8 13 -9 14 -8 -17 -18 -18
-17 -8 14 -9 13 -8 -7 -7 -8 13 -9 14 -8 -16 -17 -17 -16 -15 15 -16 16 57 57
58 57 4 -12 4 -12 9 0 9 0 0 20 0 20 19 0 19 0 5 13 5 12 11 -15 10 -14 19 22
19 22 27 0 26 0 0 10 0 10 9 0 9 0 5 -12z m83 -43 l15 -15 -15 -16 -16 -15
-16 15 -15 16 13 14 13 15 3 1 3 0 15 -15z m-160 -80 l15 -15 -15 -16 -16 -15
-16 15 -15 16 13 14 13 15 3 1 3 0 15 -15z m160 0 l15 -15 -15 -16 -16 -15
-16 15 -15 16 13 14 13 15 3 1 3 0 15 -15z m160 0 l15 -15 -15 -16 -16 -15
-16 15 -15 16 13 14 13 15 3 1 3 0 15 -15z m-480 -80 l15 -15 -15 -16 -16 -15
-16 15 -15 16 13 14 13 15 3 1 3 0 15 -15z m160 0 l15 -15 -15 -16 -16 -15
-16 15 -15 16 13 14 13 15 3 1 3 0 15 -15z m160 0 l15 -15 -15 -16 -16 -15
-16 15 -15 16 13 14 13 15 3 1 3 0 15 -15z m160 0 l15 -15 -15 -16 -16 -15
-16 15 -15 16 13 14 13 15 3 1 3 0 15 -15z m-480 -80 l15 -15 -15 -16 -16 -15
-16 15 -15 16 13 14 13 15 3 1 3 0 15 -15z m160 0 l15 -15 -15 -16 -16 -15
-16 15 -15 16 13 14 13 15 3 1 3 0 15 -15z m160 0 l15 -15 -15 -16 -16 -15
-16 15 -15 16 13 14 13 15 3 1 3 0 15 -15z m160 0 l15 -15 -15 -16 -16 -15
-16 15 -15 16 13 14 13 15 3 1 3 0 15 -15z m-480 -80 l15 -15 -15 -16 -16 -15
-16 15 -15 16 13 14 13 15 3 1 3 0 15 -15z m160 0 l15 -15 -15 -16 -16 -15
-16 15 -15 16 13 14 13 15 3 1 3 0 15 -15z m160 0 l15 -15 -15 -16 -16 -15
-16 15 -15 16 13 14 13 15 3 1 3 0 15 -15z m160 0 l15 -15 -15 -16 -16 -15
-16 15 -15 16 13 14 13 15 3 1 3 0 15 -15z m314 -25 l0 -20 -6 0 -5 0 -15 14
-14 15 0 5 0 6 20 0 20 0 0 -20z m-794 -55 l15 -15 -15 -16 -16 -15 -16 15
-15 16 13 14 13 15 3 1 3 0 15 -15z m160 0 l15 -15 -15 -16 -16 -15 -16 15
-15 16 13 14 13 15 3 1 3 0 15 -15z m160 0 l15 -15 -15 -16 -16 -15 -16 15
-15 16 13 14 13 15 3 1 3 0 15 -15z m160 0 l15 -15 -15 -16 -16 -15 -16 15
-15 16 13 14 13 15 3 1 3 0 15 -15z m314 -15 l0 -30 -6 0 -5 0 -15 15 -15 15
13 14 13 15 8 1 7 0 0 -30z m-794 -65 l15 -15 -15 -16 -16 -15 -16 15 -15 16
13 14 13 15 3 1 3 0 15 -15z m160 0 l15 -15 -15 -16 -16 -15 -16 15 -15 16 13
14 13 15 3 1 3 0 15 -15z m160 0 l15 -15 -15 -16 -16 -15 -16 15 -15 16 13 14
13 15 3 1 3 0 15 -15z m160 0 l15 -15 -15 -16 -16 -15 -16 15 -15 16 13 14 13
15 3 1 3 0 15 -15z m314 -5 l0 -20 -20 0 -20 0 0 5 0 6 13 14 12 14 8 1 7 0 0
-20z m-794 -75 l15 -15 -15 -16 -16 -15 -16 15 -15 16 13 14 13 15 3 1 3 0 15
-15z m160 0 l15 -15 -15 -16 -16 -15 -16 15 -15 16 13 14 13 15 3 1 3 0 15
-15z m160 0 l15 -15 -15 -16 -16 -15 -16 15 -15 16 13 14 13 15 3 1 3 0 15
-15z m160 0 l15 -15 -15 -16 -16 -15 -16 15 -15 16 13 14 13 15 3 1 3 0 15
-15z m-480 -80 l15 -15 -15 -16 -16 -15 -16 15 -15 16 13 14 13 15 3 1 3 0 15
-15z m160 0 l15 -15 -15 -16 -16 -15 -16 15 -15 16 13 14 13 15 3 1 3 0 15
-15z m160 0 l15 -15 -15 -16 -16 -15 -16 15 -15 16 13 14 13 15 3 1 3 0 15
-15z m160 0 l15 -15 -15 -16 -16 -15 -16 15 -15 16 13 14 13 15 3 1 3 0 15
-15z m-320 -80 l15 -15 -15 -16 -16 -15 -16 15 -15 16 13 14 13 15 3 1 3 0 15
-15z m160 0 l15 -15 -15 -16 -16 -15 -16 15 -15 16 13 14 13 15 3 1 3 0 15
-15z m160 0 l15 -15 -15 -16 -16 -15 -16 15 -15 16 13 14 13 15 3 1 3 0 15
-15z m-320 -80 l15 -15 -15 -16 -16 -15 -16 15 -15 16 13 14 13 15 3 1 3 0 15
-15z m160 0 l15 -15 -15 -16 -16 -15 -16 15 -15 16 13 14 13 15 3 1 3 0 15
-15z m160 0 l15 -15 -15 -16 -16 -15 -16 15 -15 16 13 14 13 15 3 1 3 0 15
-15z m-160 -79 l14 -15 0 -5 0 -6 -30 0 -30 0 0 5 0 6 13 14 12 14 3 1 3 0 15
-14z"/>
<path d="M880 1030 l0 -10 10 0 10 0 0 10 0 10 -10 0 -10 0 0 -10z"/>
<path d="M880 991 l0 -9 13 -5 12 -5 -15 -11 -14 -10 7 -8 8 -7 9 13 8 14 17
-16 16 -17 -16 -17 -17 -16 -8 14 -9 13 -8 -7 -7 -8 14 -10 15 -9 -15 -9 -14
-10 7 -8 8 -7 9 13 8 14 17 -16 16 -17 -16 -17 -17 -16 -8 14 -9 13 -8 -7 -7
-8 14 -10 15 -9 -15 -9 -14 -10 7 -8 8 -7 9 13 8 14 17 -16 16 -17 -16 -17
-17 -16 -8 14 -9 13 -8 -7 -7 -8 14 -10 15 -9 -15 -9 -14 -10 7 -8 8 -7 9 13
8 14 17 -16 16 -17 -16 -17 -17 -16 -8 14 -9 13 -8 -7 -7 -8 14 -10 15 -9 -15
-9 -14 -10 7 -8 8 -7 9 13 8 14 17 -16 16 -17 -16 -17 -17 -16 -8 14 -9 13 -8
-7 -7 -8 14 -10 15 -9 -15 -9 -14 -10 7 -8 8 -7 9 13 8 14 17 -16 16 -17 -16
-17 -17 -16 -8 14 -9 13 -8 -7 -7 -8 14 -10 15 -9 -15 -9 -14 -10 7 -8 8 -7 9
13 8 14 17 -16 16 -17 -16 -17 -17 -16 -8 14 -9 13 -8 -7 -7 -8 14 -10 15 -9
-15 -9 -14 -10 7 -8 8 -7 9 13 8 14 17 -16 16 -17 -16 -17 -17 -16 -8 14 -9
13 -8 -7 -7 -8 14 -10 15 -9 -15 -9 -14 -10 7 -8 8 -7 9 13 8 14 18 -17 17
-18 -14 -8 -13 -9 6 -6 7 -7 46 47 47 46 -7 7 -6 6 -9 -13 -8 -14 -17 16 -16
17 16 17 17 16 8 -14 9 -13 8 7 7 8 -14 10 -15 9 15 9 14 10 -7 8 -8 7 -9 -13
-8 -14 -17 16 -16 17 16 17 17 16 8 -14 9 -13 8 7 7 8 -14 10 -15 9 15 9 14
10 -7 8 -8 7 -9 -13 -8 -14 -17 16 -16 17 16 17 17 16 8 -14 9 -13 8 7 7 8
-14 10 -15 9 15 9 14 10 -7 8 -8 7 -9 -13 -8 -14 -17 16 -16 17 16 17 17 16 8
-14 9 -13 8 7 7 8 -14 10 -15 9 15 9 14 10 -7 8 -8 7 -9 -13 -8 -14 -17 16
-16 17 16 17 17 16 8 -14 9 -13 8 7 7 8 -14 10 -15 9 15 9 14 10 -7 8 -8 7 -9
-13 -8 -14 -17 16 -16 17 16 17 17 16 8 -14 9 -13 8 7 7 8 -14 10 -15 9 15 9
14 10 -7 8 -8 7 -9 -13 -8 -14 -17 16 -16 17 16 17 17 16 8 -14 9 -13 8 7 7 8
-14 10 -15 9 15 9 14 10 -7 8 -8 7 -9 -13 -8 -14 -18 17 -17 18 14 8 13 9 -7
8 -8 7 -9 -13 -8 -14 -18 17 -17 18 14 8 13 9 -7 8 -8 7 -10 -14 -11 -15 -5
13 -5 12 -9 0 -9 0 0 -9z m86 -86 l15 -15 -15 -16 -16 -15 -16 15 -15 16 13
14 13 15 3 1 3 0 15 -15z m0 -80 l15 -15 -15 -16 -16 -15 -16 15 -15 16 13 14
13 15 3 1 3 0 15 -15z m0 -80 l15 -15 -15 -16 -16 -15 -16 15 -15 16 13 14 13
15 3 1 3 0 15 -15z m0 -80 l15 -15 -15 -16 -16 -15 -16 15 -15 16 13 14 13 15
3 1 3 0 15 -15z m0 -80 l15 -15 -15 -16 -16 -15 -16 15 -15 16 13 14 13 15 3
1 3 0 15 -15z m0 -80 l15 -15 -15 -16 -16 -15 -16 15 -15 16 13 14 13 15 3 1
3 0 15 -15z m0 -80 l15 -15 -15 -16 -16 -15 -16 15 -15 16 13 14 13 15 3 1 3
0 15 -15z m0 -80 l15 -15 -15 -16 -16 -15 -16 15 -15 16 13 14 13 15 3 1 3 0
15 -15z"/>
<path d="M1040 831 l0 -9 13 -5 12 -5 -15 -11 -14 -10 6 -7 7 -6 16 16 16 16
-15 15 -15 15 -5 0 -6 0 0 -9z"/>
<path d="M200 790 l0 -10 10 0 10 0 0 10 0 10 -10 0 -10 0 0 -10z"/>
<path d="M192 744 l-13 -14 16 -16 16 -16 7 6 6 7 -14 10 -15 11 13 5 12 5 0
9 0 9 -7 0 -8 -1 -13 -15z"/>
<path d="M192 664 l-13 -14 16 -16 16 -16 7 6 6 7 -14 10 -15 11 13 5 12 5 0
9 0 9 -7 0 -8 -1 -13 -15z"/>
<path d="M192 584 l-13 -14 16 -16 16 -16 7 6 6 7 -14 10 -15 11 13 5 12 5 0
9 0 9 -7 0 -8 -1 -13 -15z"/>
<path d="M1040 511 l0 -9 13 -5 12 -5 -15 -11 -14 -10 6 -7 7 -6 16 16 16 16
-15 15 -15 15 -5 0 -6 0 0 -9z"/>
<path d="M200 470 l0 -10 10 0 10 0 0 10 0 10 -10 0 -10 0 0 -10z"/>
<path d="M1040 430 l0 -10 10 0 10 0 0 10 0 10 -10 0 -10 0 0 -10z"/>
<path d="M720 190 l0 -10 10 0 10 0 0 10 0 10 -10 0 -10 0 0 -10z"/>
<path d="M160 1030 l0 -90 5 0 5 0 86 86 86 86 -7 6 -6 6 -10 -14 -9 -15 -10
15 -10 15 -10 -15 -10 -15 -10 15 -10 15 -10 -15 -10 -15 -10 15 -10 15 -11
-15 -11 -15 -5 13 -5 12 -9 0 -9 0 0 -90z m63 58 l5 -13 11 15 11 15 10 -15
10 -15 9 15 10 14 6 -6 7 -7 -57 -56 -56 -57 -7 7 -6 6 14 10 15 9 -15 10 -15
10 15 10 15 10 -14 9 -14 9 14 16 14 15 7 1 6 0 5 -12z"/>
<path d="M200 1071 l0 -9 13 -5 12 -5 -15 -11 -14 -10 6 -7 7 -6 26 27 27 26
-6 7 -7 6 -10 -14 -11 -15 -5 13 -5 12 -9 0 -9 0 0 -9z"/>
<path d="M940 1095 l0 -5 75 -75 75 -75 5 0 5 0 0 19 0 19 -12 5 -13 5 15 11
15 11 -15 10 -15 10 15 10 15 10 -15 10 -15 10 15 9 14 10 -7 8 -8 7 -10 -14
-9 -15 -10 15 -10 15 -10 -15 -10 -15 -10 15 -10 15 -11 -15 -11 -15 -5 13 -5
12 -19 0 -19 0 0 -5z m83 -27 l5 -13 10 14 10 14 18 -17 17 -18 -14 -9 -14 -9
15 -9 14 -10 -6 -6 -7 -7 -35 36 -36 35 0 6 0 5 9 0 9 0 5 -12z"/>
<path d="M1040 1050 l0 -10 10 0 10 0 0 10 0 10 -10 0 -10 0 0 -10z"/>
<path d="M1160 660 l0 -100 15 0 16 0 44 45 45 44 0 11 0 11 -45 44 -44 45
-16 0 -15 0 0 -100z m66 45 l35 -35 -36 -36 -36 -36 -7 7 -6 6 14 10 15 9 -15
10 -15 10 15 10 15 10 -15 10 -15 10 15 11 15 11 -12 5 -13 5 0 9 0 9 5 0 6 0
35 -35z"/>
<path d="M1200 691 l0 -9 13 -5 12 -5 -15 -11 -14 -10 6 -7 7 -6 16 16 16 16
-15 15 -15 15 -5 0 -6 0 0 -9z"/>
<path d="M70 700 l-35 -39 -17 -1 -18 0 0 -5 0 -5 55 -55 55 -55 5 0 5 0 0 19
0 19 -12 5 -13 5 15 11 15 11 -15 10 -15 10 15 10 15 10 -15 10 -15 10 15 10
15 10 -15 11 -15 11 13 5 12 5 0 9 0 9 -7 0 -8 -1 -35 -39z m30 -9 l0 -9 -12
-5 -13 -5 15 -11 15 -11 -15 -10 -15 -10 15 -9 14 -10 -6 -7 -7 -6 -26 26 -26
26 23 24 23 25 8 0 7 1 0 -9z"/>
<path d="M60 650 l0 -10 10 0 10 0 0 10 0 10 -10 0 -10 0 0 -10z"/>
<path d="M153 325 l-13 -14 0 -86 0 -85 86 0 85 0 15 15 15 14 -85 86 -86 85
-2 0 -3 -1 -12 -14z m93 -81 l76 -76 -7 -6 -6 -6 -10 14 -9 15 -10 -15 -10
-15 -10 15 -10 15 -10 -15 -10 -15 -10 15 -10 15 -9 -14 -9 -14 -18 17 -17 18
14 9 14 9 -15 10 -15 10 15 10 15 10 -15 10 -15 10 15 11 15 11 -12 5 -13 5 0
9 0 9 5 0 5 0 76 -76z"/>
<path d="M180 271 l0 -9 13 -5 12 -5 -15 -11 -15 -11 15 -10 15 -10 -15 -9
-14 -10 7 -8 8 -7 10 14 9 15 10 -15 10 -15 10 15 10 15 9 -15 10 -14 6 6 7 7
-46 45 -45 46 -6 0 -5 0 0 -9z m47 -46 l15 -16 -5 -6 -6 -5 -16 15 -15 16 0 5
0 6 6 0 5 0 16 -15z"/>
<path d="M1012 244 l-54 -55 7 -7 6 -6 10 14 9 15 10 -15 10 -15 9 14 9 14 17
-17 17 -17 -6 -7 -7 -6 -10 14 -9 15 -10 -15 -10 -15 -10 15 -10 15 -11 -15
-11 -15 -5 13 -5 12 -15 0 -14 0 -15 -14 -14 -15 0 -5 0 -6 90 0 90 0 0 19 0
19 -12 5 -13 5 15 11 15 11 -15 10 -15 10 15 10 15 10 -15 11 -15 11 13 5 12
5 0 9 0 9 -7 -1 -8 0 -53 -55z m48 7 l0 -9 -12 -5 -13 -5 15 -11 14 -10 -7 -8
-8 -7 -10 14 -9 15 -9 -15 -10 -14 -6 6 -7 7 23 25 24 25 8 0 7 1 0 -9z"/>
<path d="M500 115 l0 -6 45 -44 44 -45 11 0 11 0 45 46 46 45 -7 7 -6 6 -10
-14 -9 -15 -10 15 -10 15 -10 -15 -10 -15 -10 15 -10 15 -10 -15 -10 -15 -10
15 -10 15 -11 -15 -11 -15 -5 13 -5 12 -19 0 -19 0 0 -5z m83 -27 l5 -13 11
15 11 15 10 -15 10 -15 9 15 10 14 7 -6 6 -7 -26 -26 -26 -26 -25 25 -25 25 0
6 0 5 9 0 9 0 5 -12z"/>
<path d="M600 70 l0 -10 10 0 10 0 0 10 0 10 -10 0 -10 0 0 -10z"/>
</g>
</svg>
