<?xml version="1.0" standalone="no"?>
<!DOCTYPE svg PUBLIC "-//W3C//DTD SVG 20010904//EN"
 "http://www.w3.org/TR/2001/REC-SVG-20010904/DTD/svg10.dtd">
<svg version="1.0" xmlns="http://www.w3.org/2000/svg"
 width="468pt" height="468pt" viewBox="0 0 468 468"
 preserveAspectRatio="xMidYMid meet">
<metadata>
Created by potrace 1.8, written by Peter Selinger 2001-2007
</metadata>
<g transform="translate(0,468) scale(0.365625,-0.365625)"
fill="#000000" stroke="none">
<path d="M530 1145 l0 -25 -25 0 -25 0 0 -55 0 -55 -25 0 -25 0 0 -25 0 -25
-30 0 -30 0 0 -25 0 -25 -25 0 -25 0 0 -30 0 -30 -25 0 -25 0 0 -25 0 -25 -30
0 -30 0 0 -25 0 -25 -25 0 -25 0 0 -30 0 -30 -25 0 -25 0 0 -25 0 -25 -30 0
-30 0 0 -55 0 -55 30 0 30 0 0 -25 0 -25 25 0 25 0 0 -55 0 -55 -25 0 -25 0 0
-80 0 -80 -30 0 -30 0 0 -50 0 -50 30 0 30 0 0 -30 0 -30 505 0 505 0 0 30 0
30 25 0 25 0 0 50 0 50 -25 0 -25 0 0 80 0 80 -25 0 -25 0 0 55 0 55 25 0 25
0 0 25 0 25 25 0 25 0 0 55 0 55 -25 0 -25 0 0 25 0 25 -25 0 -25 0 0 30 0 30
25 0 25 0 0 105 0 105 -25 0 -25 0 0 25 0 25 -110 0 -110 0 0 -25 0 -25 -25 0
-25 0 0 25 0 25 -25 0 -25 0 0 55 0 55 -30 0 -30 0 0 25 0 25 -80 0 -80 0 0
-25z m160 -80 l0 -55 30 0 30 0 0 -25 0 -25 25 0 25 0 0 -25 0 -25 25 0 25 0
0 25 0 25 110 0 110 0 0 -105 0 -105 -30 0 -30 0 0 -30 0 -30 30 0 30 0 0 -25
0 -25 25 0 25 0 0 -55 0 -55 -375 0 -375 0 0 30 0 30 -80 0 -80 0 0 25 0 25
55 0 55 0 0 25 0 25 -25 0 -25 0 0 30 0 30 80 0 80 0 0 25 0 25 -30 0 -30 0 0
25 0 25 55 0 55 0 0 80 0 80 25 0 25 0 0 55 0 55 80 0 80 0 0 -55z m220 -610
l0 -25 25 0 25 0 0 25 0 25 25 0 25 0 0 -55 0 -55 30 0 30 0 0 -80 0 -80 25 0
25 0 0 -50 0 -50 -105 0 -105 0 0 130 0 130 -30 0 -30 0 0 -130 0 -130 -130 0
-130 0 0 130 0 130 -30 0 -30 0 0 -130 0 -130 -210 0 -210 0 0 50 0 50 50 0
50 0 0 30 0 30 -25 0 -25 0 0 25 0 25 55 0 55 0 0 25 0 25 -30 0 -30 0 0 30 0
30 30 0 30 0 0 -30 0 -30 25 0 25 0 0 30 0 30 25 0 25 0 0 -55 0 -55 30 0 30
0 0 55 0 55 25 0 25 0 0 25 0 25 215 0 215 0 0 -25z"/>
<path d="M530 985 l0 -25 30 0 30 0 0 25 0 25 -30 0 -30 0 0 -25z"/>
<path d="M640 985 l0 -25 25 0 25 0 0 25 0 25 -25 0 -25 0 0 -25z"/>
<path d="M530 880 l0 -30 30 0 30 0 0 30 0 30 -30 0 -30 0 0 -30z"/>
<path d="M850 880 l0 -30 30 0 30 0 0 -25 0 -25 25 0 25 0 0 -25 0 -25 25 0
25 0 0 25 0 25 -25 0 -25 0 0 25 0 25 -25 0 -25 0 0 30 0 30 -30 0 -30 0 0
-30z"/>
<path d="M480 775 l0 -25 80 0 80 0 0 25 0 25 -80 0 -80 0 0 -25z"/>
<path d="M690 775 l0 -25 30 0 30 0 0 25 0 25 -30 0 -30 0 0 -25z"/>
<path d="M370 665 l0 -25 30 0 30 0 0 25 0 25 -30 0 -30 0 0 -25z"/>
<path d="M480 665 l0 -25 55 0 55 0 0 25 0 25 -55 0 -55 0 0 -25z"/>
<path d="M640 665 l0 -25 25 0 25 0 0 25 0 25 -25 0 -25 0 0 -25z"/>
<path d="M590 400 l0 -30 130 0 130 0 0 30 0 30 -130 0 -130 0 0 -30z"/>
<path d="M270 295 l0 -25 25 0 25 0 0 25 0 25 -25 0 -25 0 0 -25z"/>
<path d="M640 265 l0 -55 80 0 80 0 0 55 0 55 -80 0 -80 0 0 -55z"/>
</g>
</svg>
