<?xml version="1.0" standalone="no"?>
<!DOCTYPE svg PUBLIC "-//W3C//DTD SVG 20010904//EN"
 "http://www.w3.org/TR/2001/REC-SVG-20010904/DTD/svg10.dtd">
<svg version="1.0" xmlns="http://www.w3.org/2000/svg"
 width="468pt" height="468pt" viewBox="0 0 468 468"
 preserveAspectRatio="xMidYMid meet">
<metadata>
Created by potrace 1.8, written by Peter Selinger 2001-2007
</metadata>
<g transform="translate(0,468) scale(0.365625,-0.365625)"
fill="#000000" stroke="none">
<path d="M630 1265 l0 -15 -30 0 -30 0 0 -15 0 -15 -30 0 -30 0 0 -15 0 -15
-25 0 -25 0 0 -10 0 -10 -30 0 -30 0 0 -15 0 -15 -30 0 -30 0 0 -15 0 -15 -30
0 -30 0 0 -15 0 -15 -25 0 -25 0 0 -15 0 -15 -30 0 -30 0 0 -15 0 -15 -30 0
-30 0 0 -10 0 -10 -25 0 -25 0 0 -15 0 -15 -30 0 -30 0 0 -30 0 -30 15 0 15 0
0 -15 0 -15 -15 0 -15 0 0 -40 0 -40 15 0 15 0 0 -30 0 -30 15 0 15 0 0 -30 0
-30 15 0 15 0 0 -25 0 -25 -15 0 -15 0 0 -30 0 -30 -15 0 -15 0 0 -30 0 -30
-15 0 -15 0 0 -125 0 -125 15 0 15 0 0 -30 0 -30 15 0 15 0 0 -15 0 -15 15 0
15 0 0 -15 0 -15 -45 0 -45 0 0 -70 0 -70 640 0 640 0 0 70 0 70 -30 0 -30 0
0 15 0 15 15 0 15 0 0 15 0 15 15 0 15 0 0 155 0 155 -15 0 -15 0 0 30 0 30
-15 0 -15 0 0 30 0 30 -15 0 -15 0 0 25 0 25 -10 0 -10 0 0 30 0 30 -15 0 -15
0 0 30 0 30 -15 0 -15 0 0 10 0 10 -30 0 -30 0 0 30 0 30 -15 0 -15 0 0 45 0
45 -10 0 -10 0 0 40 0 40 -15 0 -15 0 0 15 0 15 -15 0 -15 0 0 15 0 15 -45 0
-45 0 0 15 0 15 -15 0 -15 0 0 15 0 15 -25 0 -25 0 0 10 0 10 -15 0 -15 0 0
30 0 30 -15 0 -15 0 0 15 0 15 -40 0 -40 0 0 -15z"/>
</g>
</svg>
