<?xml version="1.0" standalone="no"?>
<!DOCTYPE svg PUBLIC "-//W3C//DTD SVG 20010904//EN"
 "http://www.w3.org/TR/2001/REC-SVG-20010904/DTD/svg10.dtd">
<svg version="1.0" xmlns="http://www.w3.org/2000/svg"
 width="468pt" height="468pt" viewBox="0 0 468 468"
 preserveAspectRatio="xMidYMid meet">
<metadata>
Created by potrace 1.8, written by Peter Selinger 2001-2007
</metadata>
<g transform="translate(0,468) scale(0.365625,-0.365625)"
fill="#000000" stroke="none">
<path d="M0 1160 l0 -120 40 0 40 0 0 40 0 40 40 0 40 0 0 40 0 40 40 0 40 0
0 40 0 40 -120 0 -120 0 0 -120z"/>
<path d="M480 1240 l0 -40 40 0 40 0 0 -40 0 -40 40 0 40 0 0 -40 0 -40 40 0
40 0 0 -40 0 -40 -40 0 -40 0 0 -40 0 -40 40 0 40 0 0 40 0 40 40 0 40 0 0 40
0 40 40 0 40 0 0 40 0 40 40 0 40 0 0 40 0 40 40 0 40 0 0 -40 0 -40 40 0 40
0 0 -40 0 -40 40 0 40 0 0 -40 0 -40 40 0 40 0 0 160 0 160 -400 0 -400 0 0
-40z"/>
<path d="M0 920 l0 -40 40 0 40 0 0 -40 0 -40 -40 0 -40 0 0 -40 0 -40 40 0
40 0 0 40 0 40 40 0 40 0 0 40 0 40 40 0 40 0 0 -40 0 -40 40 0 40 0 0 -40 0
-40 40 0 40 0 0 -40 0 -40 -40 0 -40 0 0 -280 0 -280 320 0 320 0 0 280 0 280
-40 0 -40 0 0 40 0 40 -40 0 -40 0 0 40 0 40 -160 0 -160 0 0 -40 0 -40 -40 0
-40 0 0 40 0 40 -40 0 -40 0 0 40 0 40 -40 0 -40 0 0 40 0 40 -40 0 -40 0 0
-40 0 -40 -40 0 -40 0 0 40 0 40 -40 0 -40 0 0 -40z"/>
<path d="M960 760 l0 -40 40 0 40 0 0 -120 0 -120 40 0 40 0 0 -40 0 -40 -40
0 -40 0 0 -40 0 -40 40 0 40 0 0 -40 0 -40 40 0 40 0 0 -40 0 -40 40 0 40 0 0
120 0 120 -40 0 -40 0 0 40 0 40 -40 0 -40 0 0 40 0 40 40 0 40 0 0 40 0 40
40 0 40 0 0 80 0 80 -160 0 -160 0 0 -40z"/>
<path d="M160 440 l0 -40 -80 0 -80 0 0 -80 0 -80 40 0 40 0 0 40 0 40 40 0
40 0 0 40 0 40 40 0 40 0 0 40 0 40 -40 0 -40 0 0 -40z"/>
<path d="M0 120 l0 -40 40 0 40 0 0 -40 0 -40 80 0 80 0 0 40 0 40 -80 0 -80
0 0 40 0 40 -40 0 -40 0 0 -40z"/>
</g>
</svg>
