<?xml version="1.0" standalone="no"?>
<!DOCTYPE svg PUBLIC "-//W3C//DTD SVG 20010904//EN"
 "http://www.w3.org/TR/2001/REC-SVG-20010904/DTD/svg10.dtd">
<svg version="1.0" xmlns="http://www.w3.org/2000/svg"
 width="468pt" height="468pt" viewBox="0 0 468 468"
 preserveAspectRatio="xMidYMid meet">
<metadata>
Created by potrace 1.8, written by Peter Selinger 2001-2007
</metadata>
<g transform="translate(0,468) scale(0.365625,-0.365625)"
fill="#000000" stroke="none">
<path d="M430 1250 l0 -30 -65 0 -65 0 0 -60 0 -60 -60 0 -60 0 0 30 0 30 -90
0 -90 0 0 -60 0 -60 30 0 30 0 0 -30 0 -30 90 0 90 0 0 -35 0 -35 30 0 30 0 0
-30 0 -30 35 0 35 0 0 -30 0 -30 -35 0 -35 0 0 -30 0 -30 -60 0 -60 0 0 -30 0
-30 -90 0 -90 0 0 -335 0 -335 640 0 640 0 0 335 0 335 -120 0 -120 0 0 30 0
30 30 0 30 0 0 60 0 60 -30 0 -30 0 0 30 0 30 30 0 30 0 0 35 0 35 30 0 30 0
0 -35 0 -35 60 0 60 0 0 35 0 35 -60 0 -60 0 0 30 0 30 -30 0 -30 0 0 30 0 30
-30 0 -30 0 0 60 0 60 -65 0 -65 0 0 30 0 30 -240 0 -240 0 0 -30z m60 -60 l0
-30 30 0 30 0 0 30 0 30 90 0 90 0 0 -30 0 -30 30 0 30 0 0 30 0 30 60 0 60 0
0 -60 0 -60 65 0 65 0 0 -60 0 -60 -30 0 -30 0 0 -35 0 -35 -35 0 -35 0 0 -30
0 -30 -120 0 -120 0 0 65 0 65 90 0 90 0 0 30 0 30 -90 0 -90 0 0 30 0 30 30
0 30 0 0 30 0 30 -90 0 -90 0 0 -30 0 -30 30 0 30 0 0 -30 0 -30 -90 0 -90 0
0 -65 0 -65 30 0 30 0 0 35 0 35 60 0 60 0 0 -65 0 -65 -90 0 -90 0 0 30 0 30
-65 0 -65 0 0 95 0 95 35 0 35 0 0 30 0 30 30 0 30 0 0 30 0 30 30 0 30 0 0
-30z m-370 -120 l0 -30 -30 0 -30 0 0 30 0 30 30 0 30 0 0 -30z m860 -310 l0
-30 -35 0 -35 0 0 -30 0 -30 -240 0 -240 0 0 30 0 30 30 0 30 0 0 30 0 30 245
0 245 0 0 -30z"/>
<path d="M430 1130 l0 -30 -30 0 -30 0 0 -30 0 -30 30 0 30 0 0 30 0 30 30 0
30 0 0 30 0 30 -30 0 -30 0 0 -30z"/>
<path d="M790 1130 l0 -30 30 0 30 0 0 -30 0 -30 30 0 30 0 0 30 0 30 -30 0
-30 0 0 30 0 30 -30 0 -30 0 0 -30z"/>
<path d="M850 945 l0 -35 30 0 30 0 0 35 0 35 -30 0 -30 0 0 -35z"/>
</g>
</svg>
