<?xml version="1.0" standalone="no"?>
<!DOCTYPE svg PUBLIC "-//W3C//DTD SVG 20010904//EN"
 "http://www.w3.org/TR/2001/REC-SVG-20010904/DTD/svg10.dtd">
<svg version="1.0" xmlns="http://www.w3.org/2000/svg"
 width="468pt" height="468pt" viewBox="0 0 468 468"
 preserveAspectRatio="xMidYMid meet">
<metadata>
Created by potrace 1.8, written by Peter Selinger 2001-2007
</metadata>
<g transform="translate(0,468) scale(0.365625,-0.365625)"
fill="#000000" stroke="none">
<path d="M248 1273 l-38 -4 0 -9 0 -8 -30 -7 -30 -7 0 -8 0 -8 -26 -6 -26 -7
-34 -33 -34 -33 0 -11 0 -10 -12 -4 -13 -5 0 -59 0 -59 44 -43 43 -42 13 0 13
0 6 -15 5 -15 16 0 15 0 0 -9 0 -9 30 -7 30 -7 0 -8 0 -8 30 -7 30 -7 0 -8 0
-8 30 -7 30 -7 0 -8 0 -8 30 -7 30 -7 0 -8 0 -8 25 -6 25 -6 0 -10 0 -10 15 0
16 0 5 -15 6 -15 13 0 14 0 13 -13 13 -13 33 -15 32 -14 0 -7 0 -8 -305 0
-305 0 0 -305 0 -305 640 0 640 0 0 305 0 305 -305 0 -305 0 0 10 0 10 14 0
15 0 5 8 5 8 -8 13 -9 13 -21 -21 -22 -22 -8 6 -9 5 6 23 6 22 4 -17 3 -18 9
0 8 0 6 15 5 15 17 0 16 0 -5 13 -4 12 -29 -2 -29 -2 15 9 15 10 -14 9 -13 9
13 5 14 5 -15 12 -15 12 18 -6 18 -6 16 20 17 20 9 0 8 0 -15 -15 -15 -16 5
-14 6 -15 9 0 9 0 0 -15 0 -15 -9 0 -9 0 -6 25 -6 25 -9 0 -9 0 -6 -15 -5 -15
9 0 10 0 22 -22 22 -22 -12 -4 -12 -4 0 -14 0 -14 15 0 15 0 0 10 0 10 24 6
25 6 5 14 5 14 16 0 15 0 0 10 0 10 25 6 25 6 0 8 0 8 30 7 30 7 0 8 0 8 30 7
30 7 0 8 0 8 30 7 30 7 0 8 0 8 30 7 30 7 0 9 0 9 15 0 16 0 5 15 6 15 13 0
13 0 43 42 44 43 0 58 0 58 -11 7 -10 7 -6 16 -6 17 -26 0 -26 0 0 -14 0 -14
13 -1 12 -1 14 2 14 2 -17 -17 -16 -16 0 -15 0 -15 16 15 15 16 2 0 2 0 1 -47
1 -48 -4 13 -5 12 -9 0 -9 0 0 -14 0 -14 13 -5 12 -5 -14 -10 -14 -10 -14 5
-13 5 0 9 0 9 10 0 10 0 0 14 0 14 -25 6 -25 6 0 9 0 9 15 6 15 5 0 -13 0 -14
13 -4 12 -5 13 4 12 5 0 15 0 15 -15 -6 -14 -5 -13 13 -14 13 -14 -16 -15 -16
-1 -10 -2 -10 -1 -12 -1 -13 -10 0 -10 0 0 15 0 15 -15 0 -15 0 0 10 0 10 14
0 15 0 15 15 15 16 -5 13 -5 14 12 8 12 7 13 -18 14 -19 6 6 6 6 -23 23 -22
22 -9 -17 -9 -16 -9 0 -10 0 17 20 17 20 12 0 12 0 5 13 5 12 11 -15 11 -15 0
10 0 11 -22 18 -21 19 -23 0 -23 0 -4 11 -4 11 4 -23 3 -22 -15 -6 -15 -6 0
-14 0 -14 9 0 9 0 5 21 6 22 15 -6 15 -6 -6 17 -7 16 16 -14 15 -14 -26 -26
-26 -26 -17 -7 -18 -6 0 -12 0 -11 20 -5 20 -5 0 -9 0 -9 -15 0 -16 0 -5 -15
-6 -15 -10 0 -10 0 -31 32 -32 32 16 -6 17 -7 -5 20 -5 19 5 0 6 0 15 -16 16
-15 0 14 0 15 13 5 12 5 -11 9 -11 8 -7 15 -6 15 5 -27 5 -28 -15 0 -15 0 -1
13 -1 12 1 15 1 15 -9 15 -10 14 -8 -7 -7 -8 14 -9 15 -10 -12 0 -12 0 -3 -15
-3 -14 -15 10 -15 11 12 4 12 5 -19 21 -18 20 -9 -5 -9 -6 -14 10 -15 9 11 8
11 7 6 15 5 15 1 -19 1 -18 15 6 14 5 15 -14 15 -15 10 0 11 0 0 10 0 10 -12
0 -13 0 15 10 14 9 -8 8 -8 8 -134 0 -135 0 -7 -11 -7 -11 -23 -8 -24 -7 -19
-19 -19 -19 0 -12 0 -12 -29 31 -29 32 -26 7 -26 6 0 -5 0 -6 15 -14 15 -15 5
-42 5 -41 -16 15 -15 16 -6 0 -5 0 5 -19 5 -19 -9 -13 -8 -13 -8 7 -7 8 14 9
15 10 -17 0 -18 0 0 15 0 15 -10 0 -10 0 0 -14 0 -14 11 -4 11 -4 3 -34 4 -35
0 -7 1 -8 14 0 14 0 -5 -20 -5 -20 5 0 6 0 15 16 16 15 0 -10 0 -10 -17 -11
-18 -11 12 -5 12 -5 -19 -21 -18 -20 -11 7 -11 6 0 15 0 16 -29 -7 -29 -6 -16
17 -17 17 -24 0 -23 0 11 12 12 13 3 -9 4 -9 14 0 14 0 0 10 0 9 -17 10 -18 9
8 9 9 8 9 -18 10 -17 10 0 10 0 15 -15 15 -14 14 5 15 6 0 -16 0 -16 15 0 15
0 0 9 0 9 -16 6 -16 6 6 15 5 14 -14 15 -15 14 13 5 12 4 -7 8 -8 8 -6 -6 -7
-6 -1 -22 -1 -22 -12 -5 -13 -4 0 30 0 30 16 6 15 6 -7 22 -7 23 -8 3 -9 4 0
13 0 13 15 6 15 5 0 13 0 13 -10 -15 -10 -15 -10 15 -10 15 0 -12 0 -13 -10 0
-10 0 0 14 0 15 -13 13 -14 14 14 12 13 13 0 -16 0 -15 14 0 14 0 5 -12 4 -13
9 8 9 9 -18 9 -17 10 0 9 0 10 15 0 15 0 0 -14 0 -13 26 3 26 2 6 6 5 6 -7 7
-7 7 -122 2 -122 2 -37 -5z m82 -13 l10 15 0 -17 0 -18 10 0 11 0 5 15 6 15 8
0 8 0 6 -25 6 -25 9 0 9 0 7 -30 7 -30 11 0 12 0 -15 -10 -15 -10 15 -10 15
-10 13 0 12 0 0 -9 0 -9 -30 -7 -30 -7 0 -9 0 -9 15 0 15 0 0 -15 0 -15 -5 0
-5 0 -22 22 -22 22 -2 30 -2 29 -16 9 -16 9 0 10 0 10 -15 15 -14 15 5 14 6
15 -15 0 -16 0 -3 -17 -3 -17 -17 17 -16 17 -5 -13 -4 -12 -9 8 -8 8 13 8 13
9 19 -5 19 -5 -6 18 -6 19 11 -15 11 -15 10 15z m503 -2 l5 -13 11 15 11 15 0
-12 0 -12 18 -3 17 -4 -22 -19 -23 -19 0 -11 0 -10 10 15 9 15 14 -19 14 -19
11 7 12 7 0 10 0 9 -15 0 -15 0 0 15 0 15 13 0 12 0 -15 10 -14 9 7 8 8 7 9
-13 8 -14 -5 -14 -5 -13 16 -6 16 -6 0 -14 0 -14 -15 0 -15 0 0 -10 0 -10 15
0 15 0 0 10 0 10 18 0 17 0 -15 10 -14 9 7 8 8 7 9 -13 8 -14 -6 -16 -6 -16
-10 -7 -11 -8 15 -11 15 -11 -19 6 -18 6 5 -19 4 -18 -18 4 -19 5 1 12 1 11
-1 18 -1 17 -15 0 -15 0 0 16 0 16 -13 -5 -14 -5 -14 9 -14 8 19 14 19 14 -5
13 -4 13 -21 -22 -21 -23 -21 7 -21 6 0 12 0 12 -8 -12 -7 -11 -25 -5 -25 -4
13 4 12 4 0 9 0 9 35 7 35 6 0 9 0 9 14 0 14 0 5 -12z m167 2 l0 -10 -10 0
-10 0 0 10 0 10 10 0 10 0 0 -10z m-755 -51 l7 -11 -21 -19 -21 -20 0 10 0 10
18 10 17 11 -15 10 -15 10 12 0 12 0 6 -11z m-35 -9 l0 -10 -10 0 -10 0 0 10
0 10 10 0 10 0 0 -10z m104 -14 l14 5 8 -12 7 -12 -19 -14 -19 -14 15 -10 15
-11 -15 5 -15 4 -1 23 -1 23 -17 9 -16 9 0 10 0 10 15 -15 16 -15 13 5z m289
10 l6 -15 -15 6 -14 5 0 9 0 9 9 0 9 0 5 -14z m157 4 l0 -10 -10 0 -10 0 0 10
0 10 10 0 10 0 0 -10z m-580 -30 l0 -10 -10 0 -10 0 0 10 0 10 10 0 10 0 0
-10z m93 -4 l6 -15 -15 6 -14 5 0 9 0 9 9 0 9 0 5 -14z m457 4 l0 -10 -10 0
-10 0 0 10 0 10 10 0 10 0 0 -10z m55 -19 l-4 -3 -10 7 -11 6 0 10 0 10 14
-13 14 -13 -3 -4z m-155 -12 l0 -9 -9 0 -9 0 -5 14 -6 15 15 -6 14 -5 0 -9z
m224 6 l-6 -15 -9 0 -9 0 0 9 0 9 13 5 12 5 2 1 2 1 -5 -15z m-644 -5 l0 -10
-10 0 -10 0 0 10 0 10 10 0 10 0 0 -10z m151 3 l1 -8 2 -22 3 -21 -14 5 -13 5
0 9 0 9 13 1 12 1 -12 5 -13 5 0 9 0 9 10 0 10 0 1 -7z m394 -22 l-4 -3 -10 7
-11 6 0 10 0 10 14 -13 14 -13 -3 -4z m65 19 l0 -10 -10 0 -10 0 0 10 0 10 10
0 10 0 0 -10z m180 0 l0 -10 -10 0 -10 0 0 10 0 10 10 0 10 0 0 -10z m30 0 l0
-10 -10 0 -10 0 0 -15 0 -15 -17 -1 -18 -1 18 -5 17 -4 0 -14 0 -14 -14 5 -14
6 -6 13 -5 13 22 26 22 25 8 0 7 1 0 -10z m-727 -34 l5 -13 -8 -14 -9 -13 -8
7 -7 8 14 9 15 10 -11 0 -12 0 -5 14 -6 15 14 -5 13 -6 5 -12z m-183 4 l0 -10
-10 0 -10 0 0 10 0 10 10 0 10 0 0 -10z m90 0 l0 -10 -10 0 -10 0 0 10 0 10
10 0 10 0 0 -10z m367 -31 l0 -40 -6 9 -6 9 -15 6 -15 5 18 1 17 1 0 10 0 10
-10 0 -11 0 13 15 13 14 1 1 1 0 0 -41z m153 31 l0 -10 -10 0 -10 0 0 10 0 10
10 0 10 0 0 -10z m153 -4 l6 -14 -25 -27 -25 -27 -6 5 -5 6 27 25 28 26 -12 0
-11 0 0 10 0 10 9 0 9 0 5 -14z m255 -3 l17 -17 -18 7 -19 7 -9 0 -9 0 0 10 0
10 11 0 10 0 17 -17z m-928 -23 l0 -10 -10 0 -10 0 0 10 0 10 10 0 10 0 0 -10z
m415 -19 l-4 -3 -10 7 -11 6 0 10 0 10 14 -13 14 -13 -3 -4z m105 20 l0 -9
-14 -5 -15 -6 6 15 5 14 9 0 9 0 0 -9z m90 -2 l0 -10 -17 -17 -17 -17 7 18 7
19 0 9 0 9 10 0 10 0 0 -11z m95 -8 l-6 -11 -10 0 -10 0 13 14 13 14 4 -3 3
-4 -7 -10z m-525 -16 l0 -15 -10 0 -10 0 0 15 0 15 10 0 10 0 0 -15z m600 5
l14 -9 -7 -8 -8 -7 -10 14 -11 15 6 -17 5 -18 -13 0 -14 0 -6 -12 -5 -13 6 30
6 30 -14 -15 -15 -15 -7 -17 -6 -18 -18 1 -18 1 18 5 17 4 0 10 0 9 -12 1 -13
1 15 5 15 6 13 14 13 13 17 0 17 0 15 -10z m-685 -19 l-6 -11 -10 0 -10 0 13
14 13 14 4 -3 3 -4 -7 -10z m365 9 l0 -10 -10 0 -10 0 0 10 0 10 10 0 10 0 0
-10z m360 0 l0 -10 15 0 15 0 0 -14 0 -14 -22 -5 -22 -6 -5 4 -4 5 11 0 12 0
0 16 0 16 -12 -4 -13 -5 -3 -15 -3 -16 18 -18 18 -18 3 17 3 17 15 0 14 0 0
-25 0 -25 10 0 10 0 1 8 0 7 4 35 3 35 -5 -17 -4 -18 -10 0 -9 0 0 14 0 14 13
5 12 4 13 -5 12 -4 0 -13 0 -13 -12 -5 -13 -5 15 -11 15 -10 4 11 4 10 19 20
20 20 4 -5 5 -5 4 -39 4 -39 -9 -14 -9 -14 -8 8 -8 9 13 4 12 5 0 14 0 14 -6
0 -7 0 -13 -17 -14 -18 -14 18 -13 17 -7 0 -6 0 0 -15 0 -15 10 0 10 0 0 -10
0 -10 -16 0 -15 0 6 -11 7 -11 -21 -19 -21 -20 0 16 0 15 -16 0 -16 0 5 -19 4
-18 -18 4 -19 5 3 -13 4 -14 -4 8 -5 7 -9 0 -9 0 0 -15 0 -15 -13 0 -13 0 -15
18 -15 18 -7 17 -6 17 -12 0 -11 0 -5 -20 -5 -20 -9 0 -9 0 0 -15 0 -15 -11 0
-12 0 -34 35 -34 35 10 0 10 0 9 -16 9 -17 22 22 21 21 0 10 0 10 15 0 15 0 0
9 0 9 -12 5 -13 5 12 1 12 1 6 -11 7 -11 -21 -19 -21 -20 0 -14 0 -15 -15 0
-14 0 5 -15 6 -15 8 0 9 0 7 22 6 21 32 29 31 29 -19 14 -20 15 8 7 8 8 9 -18
10 -17 9 0 8 0 7 30 7 30 9 0 9 0 0 -14 0 -14 -12 -5 -13 -5 15 -11 15 -11
-17 0 -18 0 0 -10 0 -10 20 0 20 0 0 14 0 14 13 6 12 6 -12 6 -13 6 0 24 0 24
18 19 17 19 8 1 7 1 0 -10z m-760 -30 l0 -10 -10 0 -10 0 0 10 0 10 10 0 10 0
0 -10z m90 0 l0 -10 -10 0 -10 0 0 10 0 10 10 0 10 0 0 -10z m281 -13 l-12
-12 7 18 6 18 6 -6 6 -5 -13 -13z m59 13 l0 -10 -10 0 -10 0 0 10 0 10 10 0
10 0 0 -10z m153 -4 l6 -15 -15 6 -14 5 0 9 0 9 9 0 9 0 5 -14z m-247 -25 l0
-19 -13 5 -13 5 0 8 0 8 13 5 12 5 0 1 1 1 0 -19z m-246 -1 l0 -10 -10 0 -10
0 0 10 0 10 10 0 10 0 0 -10z m325 -16 l24 -26 -6 -14 -5 -14 -9 0 -9 0 -1 13
-1 12 1 13 2 12 -16 6 -15 6 0 9 0 9 5 0 6 0 24 -26z m15 16 l0 -10 -10 0 -10
0 0 10 0 10 10 0 10 0 0 -10z m90 0 l0 -10 -10 0 -10 0 0 10 0 10 10 0 10 0 0
-10z m60 -29 l0 -11 -14 0 -13 0 0 24 0 25 13 -14 14 -14 0 -10z m90 29 l0
-10 -10 0 -10 0 0 10 0 10 10 0 10 0 0 -10z m-150 -30 l0 -10 -10 0 -10 0 0
10 0 10 10 0 10 0 0 -10z m-59 -41 l-31 -31 0 -14 0 -14 -10 0 -10 0 0 10 0
11 33 34 32 35 8 0 9 0 -31 -31z m-221 11 l0 -10 -10 0 -10 0 0 10 0 10 10 0
10 0 0 -10z m60 1 l0 -9 -14 -5 -15 -6 6 15 5 14 9 0 9 0 0 -9z m48 -25 l-13
-14 -4 3 -3 4 7 10 6 11 10 0 10 0 -13 -14z m520 0 l-13 -14 -4 3 -3 4 7 10 6
11 10 0 10 0 -13 -14z m-658 -6 l0 -10 -10 0 -10 0 0 10 0 10 10 0 10 0 0 -10z
m33 -4 l6 -15 -15 6 -14 5 0 9 0 9 9 0 9 0 5 -14z m62 -15 l-6 -21 -10 0 -9 0
0 10 0 10 10 0 10 0 0 17 0 16 6 -6 6 -5 -7 -21z m255 19 l0 -10 -15 0 -15 0
0 10 0 10 15 0 15 0 0 -10z m-96 -25 l-6 -15 -9 0 -9 0 0 9 0 9 13 5 12 5 2 1
2 1 -5 -15z m-144 -25 l-15 -10 15 -10 15 -10 -12 0 -12 0 -6 10 -6 10 6 10 6
10 12 0 12 0 -15 -10z m44 -5 l-6 -15 -9 0 -9 0 0 9 0 9 13 5 12 5 2 1 2 1 -5
-15z m276 0 l0 -16 15 -5 15 -6 0 -8 0 -8 -14 -5 -15 -6 6 15 6 15 -22 6 -21
5 0 7 0 8 7 6 6 7 9 0 8 0 0 -15z m-430 -5 l0 -10 -10 0 -10 0 0 10 0 10 10 0
10 0 0 -10z m60 0 l0 -10 -10 0 -10 0 0 10 0 10 10 0 10 0 0 -10z m130 0 l0
-10 -10 0 -10 0 0 10 0 10 10 0 10 0 0 -10z m30 -2 l0 -13 10 15 9 14 8 -7 7
-8 -13 -9 -14 -8 -14 5 -13 5 0 9 0 9 10 0 10 0 0 -12z m106 -15 l26 -28 24
-2 24 -2 0 16 0 16 6 -6 6 -5 -6 -20 -7 -20 -14 -6 -15 -5 -20 21 -20 22 -7
-7 -6 -7 11 0 12 0 0 -25 0 -25 -9 0 -9 0 -5 13 -5 12 -1 -27 -1 -28 -9 0 -9
0 -5 13 -4 12 5 18 4 17 14 0 14 0 0 10 0 10 -13 0 -13 0 -17 20 -17 20 15 0
15 0 0 10 0 10 5 0 6 0 25 -27z m-266 -13 l0 -10 -10 0 -10 0 0 10 0 10 10 0
10 0 0 -10z m98 -14 l0 -24 -13 11 -12 11 11 13 11 12 1 1 2 0 0 -24z m37 5
l-6 -11 -10 0 -10 0 13 14 13 14 4 -3 3 -4 -7 -10z m85 -21 l0 -10 -12 -1 -13
-1 13 -5 12 -5 0 -9 0 -9 -15 0 -15 0 0 9 0 9 6 16 6 16 9 0 9 0 0 -10z m-220
-30 l0 -10 -10 0 -10 0 0 10 0 10 10 0 10 0 0 -10z m90 0 l0 -10 -10 0 -10 0
0 10 0 10 10 0 10 0 0 -10z m3 -33 l5 -14 -8 -14 -9 -13 -8 7 -7 8 14 9 15 10
-12 0 -13 0 0 10 0 10 9 0 9 0 5 -13z m127 -2 l0 -15 -15 0 -14 0 5 15 6 15 9
0 9 0 0 -15z m-160 -55 l0 -10 -10 0 -10 0 0 10 0 10 10 0 10 0 0 -10z"/>
<path d="M355 1204 l15 -15 0 -10 0 -10 25 -23 25 -23 0 -11 0 -10 -12 -6 -13
-6 25 6 25 6 4 4 5 4 -19 14 -18 13 7 11 7 12 -15 -6 -16 -6 0 16 0 16 11 0
10 0 -17 18 -18 17 -23 2 -23 2 15 -15z m38 -8 l6 -15 -15 6 -14 5 0 9 0 9 9
0 9 0 5 -14z"/>
<path d="M797 1243 l-7 -6 0 -9 0 -8 15 0 15 0 0 15 0 15 -8 0 -9 0 -6 -7z"/>
<path d="M933 1153 l-13 -5 0 -9 0 -9 9 0 9 0 6 15 5 15 -2 -1 -2 -1 -12 -5z"/>
<path d="M310 1170 l0 -10 10 0 10 0 0 10 0 10 -10 0 -10 0 0 -10z"/>
<path d="M1155 999 l-7 -10 3 -4 4 -3 13 14 13 14 -10 0 -10 0 -6 -11z"/>
<path d="M1007 961 l5 -18 -29 -29 -29 -29 -6 -16 -6 -16 8 -13 8 -12 40 41
40 41 13 0 14 0 14 9 13 9 -22 22 -22 22 -9 -13 -9 -14 0 11 0 12 -14 5 -14 6
5 -18z m53 -31 l0 -10 -15 0 -14 0 -34 -35 -34 -35 -7 0 -7 0 43 44 43 45 13
0 12 1 0 -10z"/>
<path d="M1130 960 l0 -10 10 0 10 0 0 10 0 10 -10 0 -10 0 0 -10z"/>
<path d="M914 909 l-6 -11 11 -11 11 -11 11 11 11 11 -6 11 -7 11 -9 0 -9 0
-7 -11z"/>
<path d="M1070 900 l0 -10 10 0 10 0 0 10 0 10 -10 0 -10 0 0 -10z"/>
<path d="M770 816 l0 -16 16 0 16 0 -4 12 -4 12 -12 4 -12 4 0 -16z"/>
<path d="M1040 1246 l0 -25 23 -7 22 -7 6 -9 6 -9 1 30 1 31 -17 0 -17 0 15
-10 14 -9 -7 -8 -8 -7 -9 13 -8 14 5 14 5 13 -16 0 -16 0 0 -24z"/>
<path d="M490 1230 l0 -10 10 0 10 0 0 10 0 10 -10 0 -10 0 0 -10z"/>
<path d="M517 1218 l-6 -22 4 -5 5 -4 0 11 0 12 15 0 14 0 -5 15 -6 15 -8 0
-8 0 -5 -22z"/>
<path d="M529 1180 l-13 -9 7 -8 8 -7 9 14 10 15 0 -12 0 -13 10 0 10 0 0 9 0
9 -13 5 -14 5 -14 -8z"/>
<path d="M1040 1081 l0 -9 13 -5 14 -5 14 8 13 9 -7 8 -8 7 -9 -14 -10 -15 0
13 0 12 -10 0 -10 0 0 -9z"/>
<path d="M444 995 l15 -15 10 0 11 0 0 9 0 9 -16 6 -16 6 -10 0 -9 0 15 -15z"/>
<path d="M533 973 l-13 -5 0 -9 0 -9 9 0 9 0 6 15 5 15 -2 -1 -2 -1 -12 -5z"/>
</g>
</svg>
