<?xml version="1.0" standalone="no"?>
<!DOCTYPE svg PUBLIC "-//W3C//DTD SVG 20010904//EN"
 "http://www.w3.org/TR/2001/REC-SVG-20010904/DTD/svg10.dtd">
<svg version="1.0" xmlns="http://www.w3.org/2000/svg"
 width="468pt" height="468pt" viewBox="0 0 468 468"
 preserveAspectRatio="xMidYMid meet">
<metadata>
Created by potrace 1.8, written by Peter Selinger 2001-2007
</metadata>
<g transform="translate(0,468) scale(0.365625,-0.365625)"
fill="#000000" stroke="none">
<path d="M510 1205 l0 -75 15 0 15 0 0 -15 0 -15 -11 0 -10 0 -15 -14 -14 -15
0 -10 0 -11 -15 0 -15 0 0 -11 0 -10 -14 -15 -15 -14 -10 0 -11 0 0 -15 0 -15
-11 0 -10 0 -15 -14 -14 -15 0 -10 0 -11 -11 0 -10 0 -15 -14 -14 -15 0 -10 0
-11 -15 0 -15 0 0 -11 0 -10 -14 -15 -15 -14 -10 0 -11 0 0 -15 0 -15 -11 0
-10 0 -15 -14 -14 -15 0 -10 0 -11 -15 0 -15 0 0 -10 0 -10 -75 0 -75 0 0 -25
0 -25 14 0 14 0 6 13 6 12 6 -12 6 -13 13 0 13 0 6 13 6 12 6 -12 6 -13 13 0
13 0 6 13 6 12 6 -12 6 -13 13 0 13 0 6 13 6 12 6 -12 6 -13 14 0 14 0 0 10 0
10 14 0 14 0 6 -12 6 -13 6 13 6 12 13 0 13 0 6 -12 6 -13 6 13 6 12 13 0 13
0 6 -12 6 -13 6 13 6 12 14 0 14 0 0 -10 0 -10 14 0 14 0 6 13 6 12 6 -12 6
-13 13 0 13 0 6 13 6 12 6 -12 6 -13 13 0 13 0 6 13 6 12 6 -12 6 -13 13 0 13
0 6 13 6 12 6 -12 6 -13 14 0 14 0 0 10 0 10 14 0 14 0 6 -12 6 -13 6 13 6 12
14 0 14 0 0 -25 0 -25 -15 0 -15 0 0 -15 0 -15 -10 0 -10 0 0 15 0 15 -15 0
-15 0 0 -15 0 -15 -15 0 -15 0 0 15 0 15 -10 0 -10 0 0 -15 0 -15 -15 0 -15 0
0 15 0 15 -10 0 -10 0 0 -15 0 -15 -15 0 -15 0 0 15 0 15 -10 0 -10 0 0 -15 0
-15 -15 0 -15 0 0 15 0 15 -10 0 -10 0 0 -15 0 -15 -15 0 -15 0 0 15 0 15 -15
0 -15 0 0 -15 0 -15 -10 0 -10 0 0 15 0 15 -15 0 -15 0 0 -15 0 -15 -10 0 -10
0 0 15 0 15 -15 0 -15 0 0 -15 0 -15 -10 0 -10 0 0 15 0 15 -15 0 -15 0 0 -15
0 -15 -15 0 -15 0 0 15 0 15 -10 0 -10 0 0 -15 0 -15 -15 0 -15 0 0 15 0 15
-10 0 -10 0 0 -15 0 -15 -15 0 -15 0 0 15 0 15 -10 0 -10 0 0 -15 0 -15 -15 0
-15 0 0 15 0 15 -10 0 -10 0 0 -15 0 -15 -15 0 -15 0 0 -25 0 -25 11 0 10 0
15 -14 14 -15 0 -10 0 -11 11 0 10 0 15 -14 14 -15 0 -10 0 -11 11 0 10 0 15
-14 14 -15 0 -10 0 -11 15 0 15 0 0 -11 0 -10 14 -15 15 -14 10 0 11 0 0 -15
0 -15 11 0 10 0 15 -14 14 -15 0 -10 0 -11 11 0 10 0 15 -14 14 -15 0 -10 0
-11 15 0 15 0 0 -11 0 -10 14 -15 15 -14 10 0 11 0 0 -15 0 -15 11 0 10 0 15
-14 14 -15 0 -10 0 -11 15 0 15 0 0 15 0 15 -11 0 -10 0 -15 14 -14 15 0 10 0
11 -15 0 -15 0 0 10 0 10 11 0 10 0 15 -14 14 -15 0 -10 0 -11 15 0 15 0 0 15
0 15 -11 0 -10 0 -15 14 -14 15 0 10 0 11 -15 0 -15 0 0 15 0 15 -11 0 -10 0
-15 14 -14 15 0 10 0 11 -15 0 -15 0 0 -15 0 -15 11 0 10 0 15 -14 14 -15 0
-10 0 -11 -10 0 -10 0 0 15 0 15 -11 0 -10 0 -15 14 -14 15 0 10 0 11 -11 0
-10 0 -15 14 -14 15 0 10 0 11 -15 0 -15 0 0 10 0 10 11 0 10 0 15 -14 14 -15
0 -10 0 -11 15 0 15 0 0 15 0 15 10 0 10 0 0 -15 0 -15 90 0 90 0 0 -89 0 -89
-12 -6 -13 -6 13 -6 12 -6 0 -13 0 -13 -12 -6 -13 -6 13 -6 12 -6 0 -39 0 -39
15 0 15 0 0 280 0 280 -15 0 -15 0 0 -50 0 -50 -140 0 -140 0 0 -10 0 -10 -11
0 -10 0 -15 14 -14 15 0 10 0 11 -11 0 -10 0 -15 14 -14 15 0 6 0 6 14 15 15
14 10 0 11 0 0 15 0 15 270 0 270 0 0 -50 0 -50 10 0 10 0 0 305 0 305 -10 0
-10 0 0 11 0 10 14 15 15 14 10 0 11 0 0 15 0 15 -15 0 -15 0 0 -11 0 -10 -14
-15 -15 -14 -10 0 -11 0 0 -11 0 -10 -14 -15 -15 -14 -10 0 -11 0 0 10 0 10
15 0 15 0 0 11 0 10 14 15 15 14 10 0 11 0 0 11 0 10 14 15 15 14 10 0 11 0 0
11 0 10 14 15 15 14 10 0 11 0 0 15 0 15 -15 0 -15 0 0 -11 0 -10 -14 -15 -15
-14 -10 0 -11 0 0 -11 0 -10 -14 -15 -15 -14 -10 0 -11 0 0 -11 0 -10 -14 -15
-15 -14 -10 0 -11 0 0 -15 0 -15 -11 0 -10 0 -15 -14 -14 -15 0 -10 0 -11 -15
0 -15 0 0 -11 0 -10 -14 -15 -15 -14 -10 0 -11 0 0 -11 0 -10 -14 -15 -15 -14
-10 0 -11 0 0 -11 0 -10 -14 -15 -15 -14 -10 0 -11 0 0 -15 0 -15 -15 0 -15 0
0 -11 0 -10 -14 -15 -15 -14 -10 0 -11 0 0 -11 0 -10 -14 -15 -15 -14 -10 0
-11 0 0 -15 0 -15 15 0 15 0 0 11 0 10 14 15 15 14 10 0 11 0 0 11 0 10 14 15
15 14 10 0 11 0 0 -10 0 -10 -15 0 -15 0 0 -11 0 -10 -14 -15 -15 -14 -10 0
-11 0 0 -15 0 -15 15 0 15 0 0 11 0 10 14 15 15 14 10 0 11 0 0 15 0 15 11 0
10 0 15 14 14 15 0 10 0 11 15 0 15 0 0 15 0 15 -15 0 -15 0 0 -15 0 -15 -10
0 -10 0 0 11 0 10 14 15 15 14 10 0 11 0 0 11 0 10 14 15 15 14 10 0 11 0 0
11 0 10 14 15 15 14 10 0 11 0 0 15 0 15 10 0 10 0 0 -15 0 -15 15 0 15 0 0
15 0 15 15 0 15 0 0 11 0 10 14 15 15 14 10 0 11 0 0 -190 0 -190 -40 0 -40 0
0 10 0 10 -15 0 -15 0 0 15 0 15 15 0 15 0 0 10 0 10 -15 0 -15 0 0 15 0 15
15 0 15 0 0 10 0 10 -15 0 -15 0 0 15 0 15 15 0 15 0 0 15 0 15 -15 0 -15 0 0
10 0 10 15 0 15 0 0 15 0 15 -15 0 -15 0 0 10 0 10 15 0 15 0 0 15 0 15 -14 0
-14 0 -6 13 -6 12 -6 -12 -6 -13 -14 0 -14 0 0 -11 0 -10 -14 -15 -15 -14 -10
0 -11 0 0 -15 0 -15 15 0 15 0 0 11 0 10 14 15 15 14 10 0 11 0 0 -125 0 -125
-25 0 -25 0 0 90 0 90 -15 0 -15 0 0 -90 0 -90 -89 0 -89 0 -6 13 -6 12 -6
-12 -6 -13 -13 0 -13 0 -6 13 -6 12 -6 -12 -6 -13 -39 0 -39 0 0 10 0 10 10 0
10 0 0 15 0 15 15 0 15 0 0 10 0 10 15 0 15 0 0 11 0 10 14 15 15 14 10 0 11
0 0 15 0 15 10 0 10 0 0 15 0 15 11 0 10 0 15 14 14 15 0 10 0 11 15 0 15 0 0
10 0 10 15 0 15 0 0 11 0 10 14 15 15 14 10 0 11 0 0 15 0 15 10 0 10 0 0 15
0 15 11 0 10 0 15 14 14 15 0 10 0 11 11 0 10 0 15 14 14 15 0 10 0 11 15 0
15 0 0 10 0 10 15 0 15 0 0 11 0 10 14 15 15 14 10 0 11 0 0 15 0 15 -15 0
-15 0 0 -11 0 -10 -14 -15 -15 -14 -10 0 -11 0 0 10 0 10 -15 0 -15 0 0 15 0
15 -10 0 -10 0 0 -65 0 -65 -15 0 -15 0 0 -10 0 -10 -10 0 -10 0 0 75 0 75
-15 0 -15 0 0 -75z m130 10 l0 -15 -15 0 -15 0 0 15 0 15 15 0 15 0 0 -15z m0
-150 l0 -15 -15 0 -15 0 0 15 0 15 15 0 15 0 0 -15z m-200 -210 l0 -15 -15 0
-15 0 0 15 0 15 15 0 15 0 0 -15z m-390 -280 l0 -15 15 0 15 0 0 15 0 15 10 0
10 0 0 -15 0 -15 15 0 15 0 0 15 0 15 10 0 10 0 0 -11 0 -10 -14 -15 -15 -14
-10 0 -11 0 0 -15 0 -15 11 0 10 0 15 -14 14 -15 0 -10 0 -11 11 0 10 0 15
-14 14 -15 0 -10 0 -11 15 0 15 0 0 15 0 15 25 0 25 0 0 -15 0 -15 15 0 15 0
0 15 0 15 10 0 10 0 0 -15 0 -15 15 0 15 0 0 15 0 15 10 0 10 0 0 -15 0 -15
15 0 15 0 0 15 0 15 15 0 15 0 0 -15 0 -15 10 0 10 0 0 15 0 15 15 0 15 0 0
-15 0 -15 10 0 10 0 0 -25 0 -25 -10 0 -10 0 0 10 0 10 -14 0 -14 0 -6 -12 -6
-13 -6 13 -6 12 -14 0 -14 0 0 -10 0 -10 -14 0 -14 0 -6 13 -6 12 -6 -12 -6
-13 -13 0 -13 0 -6 13 -6 12 -6 -12 -6 -13 -10 0 -9 0 -15 14 -14 15 0 10 0
11 -15 0 -15 0 0 -15 0 -15 -15 0 -15 0 0 15 0 15 -10 0 -10 0 0 15 0 15 -11
0 -10 0 -15 14 -14 15 0 10 0 11 -11 0 -10 0 -15 14 -14 15 0 10 0 11 -11 0
-10 0 -15 14 -14 15 0 10 0 11 10 0 10 0 0 -15z m360 -360 l0 -15 -15 0 -15 0
0 15 0 15 15 0 15 0 0 -15z"/>
<path d="M80 550 l0 -10 10 0 10 0 0 10 0 10 -10 0 -10 0 0 -10z"/>
<path d="M840 1269 l0 -10 -14 -15 -15 -14 -10 0 -11 0 0 -14 0 -14 -12 -6
-13 -6 13 -6 12 -6 0 -344 0 -344 25 0 25 0 0 10 0 10 -10 0 -10 0 0 14 0 14
13 6 12 6 -12 6 -13 6 0 13 0 13 13 6 12 6 -12 6 -13 6 0 14 0 14 10 0 10 0 0
14 0 14 -12 6 -13 6 13 6 12 6 0 13 0 13 -12 6 -13 6 13 6 12 6 0 13 0 13 -12
6 -13 6 13 6 12 6 0 13 0 13 -12 6 -13 6 13 6 12 6 0 14 0 14 -10 0 -10 0 0
14 0 14 13 6 12 6 -12 6 -13 6 0 13 0 13 13 6 12 6 -12 6 -13 6 0 13 0 13 13
6 12 6 -12 6 -13 6 0 14 0 14 10 0 10 0 0 14 0 14 -12 6 -13 6 13 6 12 6 0 13
0 13 -12 6 -13 6 13 6 12 6 0 14 0 14 -25 0 -25 0 0 10 0 10 15 0 15 0 0 11 0
10 14 15 15 14 10 0 11 0 0 15 0 15 -15 0 -15 0 0 -11z"/>
<path d="M870 1035 l0 -15 11 0 10 0 15 -14 14 -15 0 -10 0 -11 11 0 10 0 15
-14 14 -15 0 -10 0 -11 11 0 10 0 15 -14 14 -15 0 -10 0 -11 -10 0 -10 0 0 15
0 15 -11 0 -10 0 -15 14 -14 15 0 10 0 11 -11 0 -10 0 -15 14 -14 15 0 10 0
11 -15 0 -15 0 0 -15 0 -15 11 0 10 0 15 -14 14 -15 0 -10 0 -11 11 0 10 0 15
-14 14 -15 0 -10 0 -11 15 0 15 0 0 -11 0 -10 14 -15 15 -14 10 0 11 0 0 -15
0 -15 11 0 10 0 15 -14 14 -15 0 -10 0 -11 11 0 10 0 15 -14 14 -15 0 -10 0
-11 11 0 10 0 15 -14 14 -15 0 -10 0 -11 15 0 15 0 0 -11 0 -10 14 -15 15 -14
10 0 11 0 0 10 0 10 -15 0 -15 0 0 15 0 15 15 0 15 0 0 15 0 15 -15 0 -15 0 0
-15 0 -15 -10 0 -10 0 0 15 0 15 -11 0 -10 0 -15 14 -14 15 0 10 0 11 -11 0
-10 0 -15 14 -14 15 0 10 0 11 -11 0 -10 0 -15 14 -14 15 0 10 0 11 -15 0 -15
0 0 10 0 10 11 0 10 0 15 -14 14 -15 0 -10 0 -11 11 0 10 0 15 -14 14 -15 0
-10 0 -11 11 0 10 0 15 -14 14 -15 0 -10 0 -11 14 0 14 0 6 -12 6 -13 6 13 6
12 14 0 14 0 0 15 0 15 -36 0 -35 0 -15 14 -14 15 0 10 0 11 -11 0 -10 0 -15
14 -14 15 0 10 0 11 -11 0 -10 0 -15 14 -14 15 0 10 0 11 -15 0 -15 0 0 15 0
15 -11 0 -10 0 -15 14 -14 15 0 10 0 11 -11 0 -10 0 -15 14 -14 15 0 10 0 11
-11 0 -10 0 -15 14 -14 15 0 10 0 11 -15 0 -15 0 0 -15z m180 -180 l0 -15 -15
0 -15 0 0 15 0 15 15 0 15 0 0 -15z"/>
<path d="M490 910 l0 -10 10 0 10 0 0 10 0 10 -10 0 -10 0 0 -10z"/>
<path d="M870 885 l0 -15 15 0 15 0 0 -11 0 -10 14 -15 15 -14 10 0 11 0 0
-11 0 -10 14 -15 15 -14 10 0 11 0 0 -15 0 -15 10 0 10 0 0 -10 0 -10 -75 0
-75 0 0 -15 0 -15 14 0 14 0 6 -12 6 -13 6 13 6 12 13 0 13 0 6 -12 6 -13 6
13 6 12 14 0 14 0 0 -10 0 -10 10 0 10 0 0 25 0 25 15 0 15 0 0 -15 0 -15 11
0 10 0 15 -14 14 -15 0 -10 0 -11 -10 0 -10 0 0 -15 0 -15 -15 0 -15 0 0 15 0
15 -15 0 -15 0 0 -15 0 -15 -10 0 -10 0 0 15 0 15 -15 0 -15 0 0 -15 0 -15
-10 0 -10 0 0 15 0 15 -15 0 -15 0 0 -15 0 -15 -10 0 -10 0 0 15 0 15 -15 0
-15 0 0 -25 0 -25 129 0 129 0 6 13 6 12 6 -12 6 -13 14 0 14 0 0 -11 0 -10
14 -15 15 -14 10 0 11 0 0 -15 0 -15 -11 0 -10 0 -15 -14 -14 -15 0 -10 0 -11
-255 0 -255 0 0 -10 0 -10 10 0 10 0 0 -15 0 -15 15 0 15 0 0 15 0 15 10 0 10
0 0 -15 0 -15 15 0 15 0 0 15 0 15 10 0 10 0 0 -15 0 -15 15 0 15 0 0 15 0 15
10 0 10 0 0 -15 0 -15 15 0 15 0 0 15 0 15 15 0 15 0 0 -15 0 -15 10 0 10 0 0
15 0 15 15 0 15 0 0 -15 0 -15 10 0 10 0 0 15 0 15 15 0 15 0 0 -15 0 -15 10
0 10 0 0 15 0 15 15 0 15 0 0 -15 0 -15 15 0 15 0 0 15 0 15 10 0 10 0 0 -15
0 -15 15 0 15 0 0 15 0 15 10 0 10 0 0 -15 0 -15 15 0 15 0 0 15 0 15 10 0 10
0 0 -15 0 -15 15 0 15 0 0 15 0 15 10 0 10 0 0 -15 0 -15 15 0 15 0 0 25 0 25
-40 0 -40 0 0 15 0 15 14 0 14 0 6 13 6 12 6 -12 6 -13 14 0 14 0 0 10 0 10
-15 0 -15 0 0 11 0 10 -14 15 -15 14 -10 0 -11 0 0 11 0 10 -14 15 -15 14 -10
0 -11 0 0 15 0 15 -10 0 -10 0 0 15 0 15 -11 0 -10 0 -15 14 -14 15 0 10 0 11
-15 0 -15 0 0 10 0 10 -15 0 -15 0 0 11 0 10 -14 15 -15 14 -10 0 -11 0 0 11
0 10 -14 15 -15 14 -10 0 -11 0 0 15 0 15 -10 0 -10 0 0 15 0 15 -15 0 -15 0
0 -15z m260 -260 l0 -15 -15 0 -15 0 0 15 0 15 15 0 15 0 0 -15z"/>
<path d="M590 280 l0 -280 25 0 25 0 0 15 0 15 -15 0 -15 0 0 10 0 10 15 0 15
0 0 15 0 15 -15 0 -15 0 0 10 0 10 15 0 15 0 0 15 0 15 -15 0 -15 0 0 10 0 10
15 0 15 0 0 15 0 15 -15 0 -15 0 0 10 0 10 15 0 15 0 0 15 0 15 -15 0 -15 0 0
15 0 15 15 0 15 0 0 10 0 10 -15 0 -15 0 0 15 0 15 15 0 15 0 0 10 0 10 -15 0
-15 0 0 15 0 15 15 0 15 0 0 10 0 10 -15 0 -15 0 0 15 0 15 15 0 15 0 0 15 0
15 -15 0 -15 0 0 10 0 10 15 0 15 0 0 15 0 15 -15 0 -15 0 0 10 0 10 15 0 15
0 0 15 0 15 -15 0 -15 0 0 10 0 10 -10 0 -10 0 0 -280z"/>
<path d="M0 465 l0 -25 15 0 15 0 0 -15 0 -15 25 0 25 0 0 -11 0 -10 14 -15
15 -14 10 0 11 0 0 -11 0 -10 14 -15 15 -14 10 0 11 0 0 -11 0 -10 14 -15 15
-14 10 0 11 0 0 -15 0 -15 15 0 15 0 0 -11 0 -10 14 -15 15 -14 10 0 11 0 0
-11 0 -10 14 -15 15 -14 10 0 11 0 0 -11 0 -10 14 -15 15 -14 10 0 11 0 0 -15
0 -15 11 0 10 0 15 -14 14 -15 0 -10 0 -11 15 0 15 0 0 15 0 15 -11 0 -10 0
-15 14 -14 15 0 10 0 11 -15 0 -15 0 0 10 0 10 -15 0 -15 0 0 11 0 10 -14 15
-15 14 -10 0 -11 0 0 11 0 10 -14 15 -15 14 -10 0 -11 0 0 15 0 15 -10 0 -10
0 0 15 0 15 -15 0 -15 0 0 10 0 10 -15 0 -15 0 0 11 0 10 -14 15 -15 14 -10 0
-11 0 0 11 0 10 -14 15 -15 14 -10 0 -11 0 0 15 0 15 -10 0 -10 0 0 15 0 15
-11 0 -10 0 -15 14 -14 15 0 10 0 11 -15 0 -15 0 0 -25z"/>
<path d="M0 355 l0 -25 50 0 50 0 0 11 0 10 -14 15 -15 14 -9 0 -10 0 -6 -12
-6 -13 -6 13 -6 12 -14 0 -14 0 0 -25z"/>
<path d="M670 355 l0 -25 25 0 25 0 0 -139 0 -139 13 -6 12 -6 -12 -6 -13 -6
0 -14 0 -14 10 0 10 0 0 15 0 15 11 0 10 0 15 14 14 15 0 10 0 11 11 0 10 0
15 14 14 15 0 10 0 11 15 0 15 0 0 10 0 10 15 0 15 0 0 11 0 10 14 15 15 14
10 0 11 0 0 15 0 15 10 0 10 0 0 15 0 15 11 0 10 0 15 14 14 15 0 10 0 11 15
0 15 0 0 10 0 10 39 0 39 0 6 -12 6 -13 6 13 6 12 13 0 13 0 6 -12 6 -13 6 13
6 12 39 0 39 0 0 15 0 15 -14 0 -14 0 -6 13 -6 12 -6 -12 -6 -13 -13 0 -13 0
-6 13 -6 12 -6 -12 -6 -13 -13 0 -13 0 -6 13 -6 12 -6 -12 -6 -13 -13 0 -13 0
-6 13 -6 12 -6 -12 -6 -13 -14 0 -14 0 0 10 0 10 -14 0 -14 0 -6 -12 -6 -13
-6 13 -6 12 -13 0 -13 0 -6 -12 -6 -13 -6 13 -6 12 -13 0 -13 0 -6 -12 -6 -13
-6 13 -6 12 -14 0 -14 0 0 -10 0 -10 -14 0 -14 0 -6 13 -6 12 -6 -12 -6 -13
-13 0 -13 0 -6 13 -6 12 -6 -12 -6 -13 -13 0 -13 0 -6 13 -6 12 -6 -12 -6 -13
-14 0 -14 0 0 10 0 10 -10 0 -10 0 0 -25z m120 -125 l0 -100 15 0 15 0 0 24 0
24 13 6 12 6 -12 6 -13 6 0 14 0 14 10 0 10 0 0 14 0 14 -12 6 -13 6 13 6 12
6 0 14 0 14 -10 0 -10 0 0 10 0 10 100 0 100 0 0 -10 0 -10 -10 0 -10 0 0 -15
0 -15 -11 0 -10 0 -15 -14 -14 -15 0 -10 0 -11 -15 0 -15 0 0 -11 0 -10 -14
-15 -15 -14 -10 0 -11 0 0 -15 0 -15 -11 0 -10 0 -15 -14 -14 -15 0 -10 0 -11
-11 0 -10 0 -15 -14 -14 -15 0 -10 0 -11 -15 0 -15 0 0 140 0 140 25 0 25 0 0
-100z"/>
<path d="M310 320 l0 -10 10 0 10 0 0 10 0 10 -10 0 -10 0 0 -10z"/>
<path d="M1100 299 l0 -10 -14 -15 -15 -14 -10 0 -11 0 0 -15 0 -15 -15 0 -15
0 0 -11 0 -10 -14 -15 -15 -14 -10 0 -11 0 0 -11 0 -10 -14 -15 -15 -14 -10 0
-11 0 0 -11 0 -10 -14 -15 -15 -14 -10 0 -11 0 0 -15 0 -15 -11 0 -10 0 -15
-14 -14 -15 0 -10 0 -11 10 0 10 0 0 15 0 15 15 0 15 0 0 -15 0 -15 15 0 15 0
0 11 0 10 14 15 15 14 10 0 11 0 0 11 0 10 14 15 15 14 10 0 11 0 0 11 0 10
14 15 15 14 10 0 11 0 0 15 0 15 11 0 10 0 15 14 14 15 0 10 0 11 15 0 15 0 0
11 0 10 14 15 15 14 10 0 11 0 0 15 0 15 -15 0 -15 0 0 -11 0 -10 -14 -15 -15
-14 -10 0 -11 0 0 -15 0 -15 -10 0 -10 0 0 11 0 10 14 15 15 14 10 0 11 0 0
15 0 15 -15 0 -15 0 0 -11z m-20 -84 l0 -15 -15 0 -15 0 0 -10 0 -10 -15 0
-15 0 0 -11 0 -10 -14 -15 -15 -14 -10 0 -11 0 0 -11 0 -10 -14 -15 -15 -14
-10 0 -11 0 0 -11 0 -10 -14 -15 -15 -14 -10 0 -11 0 0 10 0 10 15 0 15 0 0
11 0 10 14 15 15 14 10 0 11 0 0 11 0 10 14 15 15 14 10 0 11 0 0 11 0 10 14
15 15 14 10 0 11 0 0 15 0 15 15 0 15 0 0 -15z"/>
</g>
</svg>
