<?xml version="1.0" standalone="no"?>
<!DOCTYPE svg PUBLIC "-//W3C//DTD SVG 20010904//EN"
 "http://www.w3.org/TR/2001/REC-SVG-20010904/DTD/svg10.dtd">
<svg version="1.0" xmlns="http://www.w3.org/2000/svg"
 width="468pt" height="468pt" viewBox="0 0 468 468"
 preserveAspectRatio="xMidYMid meet">
<metadata>
Created by potrace 1.8, written by Peter Selinger 2001-2007
</metadata>
<g transform="translate(0,468) scale(0.365625,-0.365625)"
fill="#000000" stroke="none">
<path d="M590 1230 l0 -50 -50 0 -50 0 0 -50 0 -50 50 0 50 0 0 -95 0 -95 -50
0 -50 0 0 -50 0 -50 100 0 100 0 0 -50 0 -50 -50 0 -50 0 0 -50 0 -50 -50 0
-50 0 0 -50 0 -50 50 0 50 0 0 50 0 50 50 0 50 0 0 50 0 50 50 0 50 0 0 -100
0 -100 145 0 145 0 0 -50 0 -50 -540 0 -540 0 0 -195 0 -195 640 0 640 0 0
195 0 195 -50 0 -50 0 0 50 0 50 50 0 50 0 0 50 0 50 -50 0 -50 0 0 195 0 195
-50 0 -50 0 0 50 0 50 50 0 50 0 0 50 0 50 50 0 50 0 0 50 0 50 -50 0 -50 0 0
-50 0 -50 -50 0 -50 0 0 -50 0 -50 -50 0 -50 0 0 -50 0 -50 -45 0 -45 0 0 -45
0 -45 -100 0 -100 0 0 195 0 195 -50 0 -50 0 0 -50z m490 -295 l0 -45 -50 0
-50 0 0 -50 0 -50 50 0 50 0 0 -100 0 -100 -95 0 -95 0 0 50 0 50 -50 0 -50 0
0 50 0 50 50 0 50 0 0 50 0 50 45 0 45 0 0 45 0 45 50 0 50 0 0 -45z"/>
<path d="M890 740 l0 -50 45 0 45 0 0 50 0 50 -45 0 -45 0 0 -50z"/>
<path d="M0 935 l0 -45 195 0 195 0 0 45 0 45 -195 0 -195 0 0 -45z"/>
</g>
</svg>
