<?xml version="1.0" standalone="no"?>
<!DOCTYPE svg PUBLIC "-//W3C//DTD SVG 20010904//EN"
 "http://www.w3.org/TR/2001/REC-SVG-20010904/DTD/svg10.dtd">
<svg version="1.0" xmlns="http://www.w3.org/2000/svg"
 width="468pt" height="468pt" viewBox="0 0 468 468"
 preserveAspectRatio="xMidYMid meet">
<metadata>
Created by potrace 1.8, written by Peter Selinger 2001-2007
</metadata>
<g transform="translate(0,468) scale(0.365625,-0.365625)"
fill="#000000" stroke="none">
<path d="M2 1190 l-1 -90 11 0 10 0 -4 30 -5 31 9 5 8 5 0 -35 0 -34 13 -5 12
-5 -27 -1 -28 -1 0 -50 0 -50 11 0 11 0 -4 30 -5 31 9 5 8 5 0 -35 0 -34 13
-5 12 -5 -26 -1 -25 -1 -1 -165 -2 -165 11 0 10 0 -4 30 -5 31 9 5 8 5 0 -35
0 -34 12 -5 13 -5 -26 -1 -26 -1 0 -105 -1 -105 10 0 10 0 -4 30 -5 30 9 0 8
0 0 -29 0 -29 13 -5 12 -5 -25 -1 -26 -1 -1 -210 -1 -210 639 0 639 0 0 638 0
639 -120 0 -120 0 -1 -36 -2 -36 -4 28 -4 27 -12 -7 -12 -7 13 16 13 16 -60 0
-60 0 -4 -36 -4 -37 -1 38 -2 37 -29 0 -30 0 -4 -37 -4 -38 -1 36 -2 37 -229
-1 -230 0 -4 -36 -4 -36 -1 38 -2 37 -29 0 -30 0 -4 -37 -4 -38 -1 36 -2 37
-94 0 -95 0 -4 -37 -4 -36 -1 38 -2 37 -29 0 -30 0 -4 -37 -4 -38 -1 38 -2 37
-9 0 -9 0 0 -90z m140 51 l4 -30 -8 5 -8 5 0 25 0 24 4 0 4 0 4 -29z m41 -22
l-10 -10 6 33 5 33 4 -24 4 -23 -9 -9z m29 22 l4 -30 -8 5 -8 5 0 25 0 24 4 0
4 0 4 -29z m200 0 l4 -30 -8 5 -8 5 0 25 0 24 4 0 4 0 4 -29z m41 -22 l-10
-10 6 33 5 33 4 -24 4 -23 -9 -9z m29 22 l4 -30 -8 5 -8 5 0 25 0 24 4 0 4 0
4 -29z m65 -8 l-5 -18 0 30 0 30 5 -12 5 -13 -5 -17z m40 0 l-5 -18 0 30 0 30
5 -12 5 -13 -5 -17z m66 -14 l-10 -10 6 33 5 33 4 -24 4 -23 -9 -9z m99 22 l4
-30 -8 5 -8 5 0 25 0 24 4 0 4 0 4 -29z m200 0 l4 -30 -8 5 -8 5 0 25 0 24 4
0 4 0 4 -29z m41 -22 l-10 -10 6 33 5 33 4 -24 4 -23 -9 -9z m94 14 l-5 -18 0
30 0 30 5 -12 5 -13 -5 -17z m40 0 l-5 -18 0 30 0 30 5 -12 5 -13 -5 -17z m66
-14 l-10 -10 6 33 5 33 4 -24 4 -23 -9 -9z m29 22 l4 -30 -8 5 -8 5 0 25 0 24
4 0 4 0 4 -29z m41 -22 l-10 -10 6 33 5 33 4 -24 4 -23 -9 -9z m-1150 -121
l12 -8 -30 0 -30 0 13 9 14 8 -2 24 -2 24 2 10 3 10 4 -35 5 -35 11 -7z m65
60 l12 -12 0 -17 0 -17 -15 -12 -15 -12 -15 12 -15 12 0 17 0 17 12 12 12 12
6 0 6 0 12 -12z m66 3 l6 -9 -18 2 -17 1 0 -25 0 -25 19 2 18 1 -11 -11 -10
-10 -16 13 -15 12 0 17 0 17 12 12 12 12 7 0 8 0 5 -9z m69 -63 l12 -8 -30 1
-30 1 13 5 12 5 0 24 0 25 -12 -7 -13 -8 15 19 15 18 3 -34 4 -34 11 -7z m70
0 l12 -8 -30 0 -30 0 13 9 14 8 -2 24 -2 24 2 10 3 10 4 -35 5 -35 11 -7z m65
60 l12 -12 0 -17 0 -17 -15 -12 -15 -12 -15 12 -15 12 0 17 0 17 12 12 12 12
6 0 6 0 12 -12z m65 -60 l12 -8 -30 1 -30 1 13 5 12 5 2 36 1 37 4 -35 5 -35
11 -7z m70 0 l12 -8 -30 1 -30 1 13 5 12 5 0 24 0 25 -12 -7 -13 -8 15 19 15
18 3 -34 4 -34 11 -7z m70 0 l12 -8 -30 0 -30 0 13 9 14 8 -2 24 -2 24 2 10 3
10 4 -35 5 -35 11 -7z m65 60 l12 -12 0 -17 0 -17 -15 -12 -15 -12 -15 12 -15
12 0 17 0 17 12 12 12 12 6 0 6 0 12 -12z m66 3 l6 -9 -18 2 -17 1 0 -25 0
-25 19 2 18 1 -11 -11 -10 -10 -16 13 -15 12 0 17 0 17 12 12 12 12 7 0 8 0 5
-9z m63 3 l-6 -6 -13 5 -13 5 19 1 19 1 -6 -6z m76 -66 l12 -8 -30 0 -30 0 13
9 14 8 -2 24 -2 24 2 10 3 10 4 -35 5 -35 11 -7z m131 63 l6 -9 -18 2 -17 1 0
-25 0 -25 19 2 18 1 -11 -11 -10 -10 -16 13 -15 12 0 17 0 17 12 12 12 12 7 0
8 0 5 -9z m69 -63 l12 -8 -30 1 -30 1 13 5 12 5 0 24 0 25 -12 -7 -13 -8 15
19 15 18 3 -34 4 -34 11 -7z m65 60 l12 -12 0 -17 0 -17 -15 -12 -16 -13 -10
10 -11 11 18 -1 19 -2 0 25 0 25 -17 -1 -18 -2 6 9 5 9 8 0 7 0 12 -12z m70 0
l12 -12 0 -17 0 -17 -15 -12 -15 -12 -15 12 -15 12 0 17 0 17 12 12 12 12 6 0
6 0 12 -12z m-441 -40 l-5 -13 0 25 0 25 5 -12 5 -13 -5 -12z m40 0 l-5 -13 0
25 0 25 5 -12 5 -13 -5 -12z m-10 -24 l-6 -6 -13 5 -13 5 19 1 19 1 -6 -6z
m141 -1 l-18 -4 -17 4 -18 5 35 0 35 0 -17 -5z m-880 -45 l12 -12 0 -17 0 -17
-15 -12 -16 -13 -10 10 -11 11 18 -1 19 -2 0 25 0 25 -17 -1 -18 -2 6 9 5 9 8
0 7 0 12 -12z m70 0 l12 -12 0 -17 0 -17 -15 -12 -15 -12 -15 12 -15 12 0 17
0 17 12 12 12 12 6 0 6 0 12 -12z m66 3 l6 -9 -18 2 -17 1 0 -25 0 -25 19 2
18 1 -11 -11 -10 -10 -16 13 -15 12 0 17 0 17 12 12 12 12 7 0 8 0 5 -9z m69
-63 l12 -8 -30 0 -30 0 13 9 14 8 -2 24 -2 24 2 10 3 10 4 -35 5 -35 11 -7z
m65 60 l12 -12 0 -17 0 -17 -15 -12 -16 -13 -10 10 -11 11 18 -1 19 -2 0 25 0
25 -17 -1 -18 -2 6 9 5 9 8 0 7 0 12 -12z m70 0 l12 -12 0 -17 0 -17 -15 -12
-15 -12 -15 12 -15 12 0 17 0 17 12 12 12 12 6 0 6 0 12 -12z m65 -60 l12 -8
-30 0 -30 0 13 9 14 8 -2 19 -2 19 2 15 3 15 4 -35 5 -35 11 -7z m70 0 l12 -8
-30 0 -30 0 13 9 14 8 -2 24 -2 24 2 10 3 10 4 -35 5 -35 11 -7z m70 0 l12 -8
-30 1 -30 1 13 5 12 5 0 24 0 25 -12 -7 -13 -8 15 19 15 18 3 -34 4 -34 11 -7z
m65 60 l12 -12 0 -17 0 -17 -15 -12 -15 -12 -15 12 -15 12 0 17 0 17 12 12 12
12 6 0 6 0 12 -12z m66 3 l6 -9 -18 2 -17 1 0 -25 0 -25 19 2 18 1 -11 -11
-10 -10 -16 13 -15 12 0 17 0 17 12 12 12 12 7 0 8 0 5 -9z m63 3 l-6 -6 -13
5 -13 5 19 1 19 1 -6 -6z m76 -66 l12 -8 -30 1 -30 1 13 5 12 5 0 24 0 25 -12
-7 -13 -8 15 19 15 18 3 -34 4 -34 11 -7z m130 0 l12 -8 -30 0 -30 0 13 9 14
8 -2 19 -2 19 2 15 3 15 4 -35 5 -35 11 -7z m64 66 l-6 -6 -13 5 -13 5 19 1
19 1 -6 -6z m71 -6 l12 -12 0 -17 0 -17 -15 -12 -16 -13 -10 10 -11 11 18 -1
19 -2 0 25 0 25 -17 -1 -18 -2 6 9 5 9 8 0 7 0 12 -12z m-371 -40 l-5 -13 0
25 0 25 5 -12 5 -13 -5 -12z m40 0 l-5 -13 0 25 0 25 5 -12 5 -13 -5 -12z
m230 0 l-5 -13 0 25 0 25 5 -12 5 -13 -5 -12z m40 0 l-5 -13 0 25 0 25 5 -12
5 -13 -5 -12z m-280 -24 l-6 -6 -13 5 -13 5 19 1 19 1 -6 -6z m141 -1 l-18 -4
-17 4 -18 5 35 0 35 0 -17 -5z m129 1 l-6 -6 -13 5 -13 5 19 1 19 1 -6 -6z
m141 -1 l-18 -4 -17 4 -18 5 35 0 35 0 -17 -5z m-1140 -84 l-4 -24 -5 33 -6
33 10 -10 9 -9 -4 -23z m23 9 l-5 -33 -4 18 -4 18 6 15 5 14 4 0 4 0 -6 -32z
m47 -9 l-4 -24 -5 33 -6 33 10 -10 9 -9 -4 -23z m55 -21 l12 -8 -30 1 -30 1
13 5 12 5 0 19 0 20 -12 -7 -13 -8 15 19 15 18 3 -29 4 -29 11 -7z m57 33 l0
-29 13 -5 12 -5 -30 -1 -30 -1 14 9 14 9 -5 26 -5 26 8 0 9 0 0 -29z m70 0 l0
-29 13 -5 12 -5 -30 0 -30 0 13 5 12 5 0 24 0 25 -12 -7 -11 -7 7 11 7 12 10
0 9 0 0 -29z m41 -3 l-5 -33 -4 18 -4 18 6 15 5 14 4 0 4 0 -6 -32z m47 -9
l-4 -24 -5 33 -6 33 10 -10 9 -9 -4 -23z m55 -21 l12 -8 -30 1 -30 1 13 5 12
5 0 19 0 20 -12 -7 -13 -8 15 19 15 18 3 -29 4 -29 11 -7z m127 33 l0 -29 13
-5 12 -5 -30 0 -30 0 13 5 12 5 0 24 0 25 -12 -7 -11 -7 7 11 7 12 10 0 9 0 0
-29z m60 25 l0 -4 -17 -13 -18 -14 14 18 13 17 4 0 4 0 0 -4z m51 -28 l-5 -33
-4 18 -4 18 6 15 5 14 4 0 4 0 -6 -32z m177 -9 l-4 -24 -5 33 -6 33 10 -10 9
-9 -4 -23z m23 9 l-5 -33 -4 18 -4 18 6 15 5 14 4 0 4 0 -6 -32z m47 -9 l-4
-24 -5 33 -6 33 10 -10 9 -9 -4 -23z m55 -21 l12 -8 -30 1 -30 1 13 5 12 5 0
19 0 20 -12 -7 -13 -8 15 19 15 18 3 -29 4 -29 11 -7z m57 33 l0 -29 13 -5 12
-5 -30 -1 -30 -1 14 9 14 9 -5 26 -5 26 8 0 9 0 0 -29z m70 0 l0 -29 13 -5 12
-5 -30 0 -30 0 13 5 12 5 0 24 0 25 -12 -7 -11 -7 7 11 7 12 10 0 9 0 0 -29z
m41 -3 l-5 -33 -4 18 -4 18 6 15 5 14 4 0 4 0 -6 -32z m47 -9 l-4 -24 -5 33
-6 33 10 -10 9 -9 -4 -23z m-1222 -15 l-5 -14 -18 1 -18 1 18 5 17 4 1 27 1
27 5 -18 5 -18 -6 -15z m519 -4 l14 0 4 23 4 22 -1 -25 -1 -25 -20 0 -20 0 -1
25 -1 25 4 -22 4 -23 14 0z m270 0 l14 0 4 23 4 22 -1 -25 -1 -25 -20 0 -20 0
-1 25 -1 25 4 -22 4 -23 14 0z m-117 -7 l-18 -4 -17 4 -18 5 35 0 35 0 -17 -5z
m-691 -95 l-4 -23 0 40 -1 40 5 -17 4 -18 -4 -22z m70 0 l-4 -23 0 40 -1 40 5
-17 4 -18 -4 -22z m132 15 l-2 -38 -4 28 -4 27 -12 -7 -12 -7 14 17 13 17 4 0
4 0 -1 -37z m87 4 l1 -27 -4 25 -4 25 -15 0 -14 0 -1 -27 -1 -28 -5 18 -5 18
6 15 6 15 17 -3 18 -3 1 -28z m270 0 l1 -27 -4 25 -4 25 -15 0 -14 0 -1 -27
-1 -28 -5 18 -5 18 6 15 6 15 17 -3 18 -3 1 -28z m183 -4 l-2 -38 -4 28 -4 27
-12 -7 -12 -7 14 17 13 17 4 0 4 0 -1 -37z m87 4 l1 -27 -4 25 -4 25 -15 0
-14 0 -1 -27 -1 -28 -5 18 -5 18 6 15 6 15 17 -3 18 -3 1 -28z m183 -4 l-2
-38 -4 28 -4 27 -12 -7 -12 -7 14 17 13 17 4 0 4 0 -1 -37z m87 4 l1 -27 -4
25 -4 25 -15 0 -14 0 -1 -27 -1 -28 -5 18 -5 18 6 15 6 15 17 -3 18 -3 1 -28z
m-984 -6 l4 -30 -8 5 -8 5 0 25 0 24 4 0 4 0 4 -29z m41 -22 l-10 -10 6 33 5
33 4 -24 4 -23 -9 -9z m200 0 l-10 -10 6 33 5 33 4 -24 4 -23 -9 -9z m29 22
l4 -30 -8 5 -8 5 0 25 0 24 4 0 4 0 4 -29z m41 -22 l-10 -10 6 33 5 33 4 -24
4 -23 -9 -9z m29 22 l4 -30 -8 5 -8 5 0 25 0 24 4 0 4 0 4 -29z m171 -22 l-10
-10 6 33 5 33 4 -24 4 -23 -9 -9z m29 22 l4 -30 -8 5 -8 5 0 25 0 24 4 0 4 0
4 -29z m41 -22 l-10 -10 6 33 5 33 4 -24 4 -23 -9 -9z m200 0 l-10 -10 6 33 5
33 4 -24 4 -23 -9 -9z m270 0 l-10 -10 6 33 5 33 4 -24 4 -23 -9 -9z m29 22
l4 -30 -8 5 -8 5 0 25 0 24 4 0 4 0 4 -29z m41 -22 l-10 -10 6 33 5 33 4 -24
4 -23 -9 -9z m-1155 -61 l12 -12 0 -17 0 -17 -15 -12 -16 -13 -10 10 -11 11
18 -1 19 -2 0 25 0 25 -17 -1 -18 -2 6 9 5 9 8 0 7 0 12 -12z m136 3 l6 -9
-18 2 -17 1 0 -25 0 -25 19 2 18 1 -11 -11 -10 -10 -16 13 -15 12 0 17 0 17
12 12 12 12 7 0 8 0 5 -9z m69 -63 l12 -8 -30 1 -30 1 13 5 12 5 0 24 0 25
-12 -7 -13 -8 15 19 15 18 3 -34 4 -34 11 -7z m70 0 l12 -8 -30 0 -30 0 13 9
14 8 -2 24 -2 24 2 10 3 10 4 -35 5 -35 11 -7z m131 63 l6 -9 -18 2 -17 1 0
-25 0 -25 19 2 18 1 -11 -11 -10 -10 -16 13 -15 12 0 17 0 17 12 12 12 12 7 0
8 0 5 -9z m69 -63 l12 -8 -30 1 -30 1 13 5 12 5 0 24 0 25 -12 -7 -13 -8 15
19 15 18 3 -34 4 -34 11 -7z m70 0 l12 -8 -30 0 -30 0 13 9 14 8 -2 24 -2 24
2 10 3 10 4 -35 5 -35 11 -7z m65 60 l12 -12 0 -17 0 -17 -15 -12 -15 -12 -15
12 -15 12 0 17 0 17 12 12 12 12 6 0 6 0 12 -12z m66 3 l6 -9 -18 2 -17 1 0
-25 0 -25 19 2 18 1 -11 -11 -10 -10 -16 13 -15 12 0 17 0 17 12 12 12 12 7 0
8 0 5 -9z m63 3 l-6 -6 -13 5 -13 5 19 1 19 1 -6 -6z m76 -66 l12 -8 -30 0
-30 0 13 9 14 8 -2 24 -2 24 2 10 3 10 4 -35 5 -35 11 -7z m130 0 l12 -8 -30
1 -30 1 13 5 12 5 2 36 1 37 4 -35 5 -35 11 -7z m70 0 l12 -8 -30 1 -30 1 13
5 12 5 0 24 0 25 -12 -7 -13 -8 15 19 15 18 3 -34 4 -34 11 -7z m65 60 l12
-12 0 -17 0 -17 -15 -12 -16 -13 -10 10 -11 11 18 -1 19 -2 0 25 0 25 -17 -1
-18 -2 6 9 5 9 8 0 7 0 12 -12z m-371 -40 l-5 -13 0 25 0 25 5 -12 5 -13 -5
-12z m40 0 l-5 -13 0 25 0 25 5 -12 5 -13 -5 -12z m-679 -25 l-18 -4 -17 4
-18 5 35 0 35 0 -17 -5z m270 0 l-18 -4 -17 4 -18 5 35 0 35 0 -17 -5z m399 1
l-6 -6 -13 5 -13 5 19 1 19 1 -6 -6z m141 -1 l-18 -4 -17 4 -18 5 35 0 35 0
-17 -5z m270 0 l-18 -4 -17 4 -18 5 35 0 35 0 -17 -5z m-1221 -39 l-6 -6 -13
5 -13 5 19 1 19 1 -6 -6z m71 -6 l12 -12 0 -17 0 -17 -15 -12 -16 -13 -10 10
-11 11 18 -1 19 -2 0 25 0 25 -17 -1 -18 -2 6 9 5 9 8 0 7 0 12 -12z m70 0
l12 -12 0 -17 0 -17 -15 -12 -15 -12 -15 12 -15 12 0 17 0 17 12 12 12 12 6 0
6 0 12 -12z m66 3 l6 -9 -18 2 -17 1 0 -25 0 -25 19 2 18 1 -11 -11 -10 -10
-16 13 -15 12 0 17 0 17 12 12 12 12 7 0 8 0 5 -9z m69 -63 l12 -8 -30 0 -30
0 13 9 14 8 -2 24 -2 24 2 10 3 10 4 -35 5 -35 11 -7z m65 60 l12 -12 0 -17 0
-17 -15 -12 -16 -13 -10 10 -11 11 18 -1 19 -2 0 25 0 25 -17 -1 -18 -2 6 9 5
9 8 0 7 0 12 -12z m135 -60 l12 -8 -30 0 -30 0 13 9 14 8 -2 19 -2 19 2 15 3
15 4 -35 5 -35 11 -7z m70 0 l12 -8 -30 0 -30 0 13 9 14 8 -2 24 -2 24 2 10 3
10 4 -35 5 -35 11 -7z m70 0 l12 -8 -30 1 -30 1 13 5 12 5 0 24 0 25 -12 -7
-13 -8 15 19 15 18 3 -34 4 -34 11 -7z m65 60 l12 -12 0 -17 0 -17 -15 -12
-15 -12 -15 12 -15 12 0 17 0 17 12 12 12 12 6 0 6 0 12 -12z m65 -60 l12 -8
-30 0 -30 0 13 9 14 8 -2 19 -2 19 2 15 3 15 4 -35 5 -35 11 -7z m70 0 l12 -8
-30 0 -30 0 13 9 14 8 -2 24 -2 24 2 10 3 10 4 -35 5 -35 11 -7z m65 60 l12
-12 0 -17 0 -17 -15 -12 -16 -13 -10 10 -11 11 18 -1 19 -2 0 25 0 25 -17 -1
-18 -2 6 9 5 9 8 0 7 0 12 -12z m136 3 l6 -9 -18 2 -17 1 0 -25 0 -25 19 2 18
1 -11 -11 -10 -10 -16 13 -15 12 0 17 0 17 12 12 12 12 7 0 8 0 5 -9z m63 3
l-6 -6 -13 5 -13 5 19 1 19 1 -6 -6z m71 -6 l12 -12 0 -17 0 -17 -15 -12 -16
-13 -10 10 -11 11 18 -1 19 -2 0 25 0 25 -17 -1 -18 -2 6 9 5 9 8 0 7 0 12
-12z m-1141 -40 l-5 -13 0 25 0 25 5 -12 5 -13 -5 -12z m1040 0 l-5 -13 0 25
0 25 5 -12 5 -13 -5 -12z m40 0 l-5 -13 0 25 0 25 5 -12 5 -13 -5 -12z m-1090
-24 l-6 -6 -13 5 -13 5 19 1 19 1 -6 -6z m411 -1 l-18 -4 -17 4 -18 5 35 0 35
0 -17 -5z m540 0 l-18 -4 -17 4 -18 5 35 0 35 0 -17 -5z m129 1 l-6 -6 -13 5
-13 5 19 1 19 1 -6 -6z m141 -1 l-18 -4 -17 4 -18 5 35 0 35 0 -17 -5z m-1140
-84 l-4 -24 -5 33 -6 33 10 -10 9 -9 -4 -23z m42 37 l0 -4 -17 -13 -18 -14 14
18 13 17 4 0 4 0 0 -4z m51 -28 l-5 -33 -4 18 -4 18 6 15 5 14 4 0 4 0 -6 -32z
m177 -9 l-4 -24 -5 33 -6 33 10 -10 9 -9 -4 -23z m23 9 l-5 -33 -4 18 -4 18 6
15 5 14 4 0 4 0 -6 -32z m47 -9 l-4 -24 -5 33 -6 33 10 -10 9 -9 -4 -23z m23
9 l-5 -33 -4 18 -4 18 6 15 5 14 4 0 4 0 -6 -32z m89 3 l0 -29 13 -5 12 -5
-30 -1 -30 -1 14 9 14 9 -5 26 -5 26 8 0 9 0 0 -29z m88 -12 l-4 -24 -5 33 -6
33 10 -10 9 -9 -4 -23z m23 9 l-5 -33 -4 18 -4 18 6 15 5 14 4 0 4 0 -6 -32z
m47 -9 l-4 -24 -5 33 -6 33 10 -10 9 -9 -4 -23z m55 -21 l12 -8 -30 1 -30 1
13 5 12 5 0 19 0 20 -12 -7 -13 -8 15 19 15 18 3 -29 4 -29 11 -7z m57 33 l0
-29 13 -5 12 -5 -30 -1 -30 -1 14 9 14 9 -5 26 -5 26 8 0 9 0 0 -29z m70 0 l0
-29 13 -5 12 -5 -30 0 -30 0 13 5 12 5 0 24 0 25 -12 -7 -11 -7 7 11 7 12 10
0 9 0 0 -29z m41 -3 l-5 -33 -4 18 -4 18 6 15 5 14 4 0 4 0 -6 -32z m47 -9
l-4 -24 -5 33 -6 33 10 -10 9 -9 -4 -23z m23 9 l-5 -33 -4 18 -4 18 6 15 5 14
4 0 4 0 -6 -32z m89 3 l0 -29 13 -5 12 -5 -30 -1 -30 -1 14 9 14 9 -5 26 -5
26 8 0 9 0 0 -29z m88 -12 l-4 -24 -5 33 -6 33 10 -10 9 -9 -4 -23z m42 37 l0
-4 -17 -13 -18 -14 14 18 13 17 4 0 4 0 0 -4z m-945 -56 l14 0 4 23 4 22 -1
-25 -1 -25 -20 0 -20 0 -1 25 -1 25 4 -22 4 -23 14 0z m-117 -7 l-18 -4 -17 4
-18 5 35 0 35 0 -17 -5z m1080 0 l-18 -4 -17 4 -18 5 35 0 35 0 -17 -5z
m-1212 -76 l1 -27 -4 24 -4 25 -17 5 -17 5 20 -2 20 -2 1 -28z m51 -19 l-4
-23 0 40 -1 40 5 -17 4 -18 -4 -22z m200 0 l-4 -23 0 40 -1 40 5 -17 4 -18 -4
-22z m202 15 l-2 -38 -4 28 -4 27 -12 -7 -12 -7 14 17 13 17 4 0 4 0 -1 -37z
m87 4 l1 -27 -4 25 -4 25 -15 0 -14 0 -1 -27 -1 -28 -5 18 -5 18 6 15 6 15 17
-3 18 -3 1 -28z m251 -19 l-4 -23 0 40 -1 40 5 -17 4 -18 -4 -22z m202 15 l-2
-38 -4 28 -4 27 -12 -7 -12 -7 14 17 13 17 4 0 4 0 -1 -37z m87 4 l1 -27 -4
25 -4 25 -15 0 -14 0 -1 -27 -1 -28 -5 18 -5 18 6 15 6 15 17 -3 18 -3 1 -28z
m51 -19 l-4 -23 0 40 -1 40 5 -17 4 -18 -4 -22z m-1035 13 l4 -30 -8 5 -8 5 0
25 0 24 4 0 4 0 4 -29z m41 -22 l-10 -10 6 33 5 33 4 -24 4 -23 -9 -9z m29 22
l4 -30 -8 5 -8 5 0 25 0 24 4 0 4 0 4 -29z m171 -22 l-10 -10 6 33 5 33 4 -24
4 -23 -9 -9z m270 0 l-10 -10 6 33 5 33 4 -24 4 -23 -9 -9z m29 22 l4 -30 -8
5 -8 5 0 25 0 24 4 0 4 0 4 -29z m41 -22 l-10 -10 6 33 5 33 4 -24 4 -23 -9
-9z m29 22 l4 -30 -8 5 -8 5 0 25 0 24 4 0 4 0 4 -29z m171 -22 l-10 -10 6 33
5 33 4 -24 4 -23 -9 -9z m299 22 l4 -30 -8 5 -8 5 0 25 0 24 4 0 4 0 4 -29z
m41 -22 l-10 -10 6 33 5 33 4 -24 4 -23 -9 -9z m-1226 -55 l-6 -6 -13 5 -13 5
19 1 19 1 -6 -6z m71 -6 l12 -12 0 -17 0 -17 -15 -12 -16 -13 -10 10 -11 11
18 -1 19 -2 0 25 0 25 -17 -1 -18 -2 6 9 5 9 8 0 7 0 12 -12z m70 0 l12 -12 0
-17 0 -17 -15 -12 -15 -12 -15 12 -15 12 0 17 0 17 12 12 12 12 6 0 6 0 12
-12z m65 -60 l12 -8 -30 1 -30 1 13 5 12 5 2 36 1 37 4 -35 5 -35 11 -7z m70
0 l12 -8 -30 1 -30 1 13 5 12 5 0 24 0 25 -12 -7 -13 -8 15 19 15 18 3 -34 4
-34 11 -7z m70 0 l12 -8 -30 0 -30 0 13 9 14 8 -2 24 -2 24 2 10 3 10 4 -35 5
-35 11 -7z m131 63 l6 -9 -18 2 -17 1 0 -25 0 -25 19 2 18 1 -11 -11 -10 -10
-16 13 -15 12 0 17 0 17 12 12 12 12 7 0 8 0 5 -9z m63 3 l-6 -6 -13 5 -13 5
19 1 19 1 -6 -6z m76 -66 l12 -8 -30 0 -30 0 13 9 14 8 -2 24 -2 24 2 10 3 10
4 -35 5 -35 11 -7z m65 60 l12 -12 0 -17 0 -17 -15 -12 -15 -12 -15 12 -15 12
0 17 0 17 12 12 12 12 6 0 6 0 12 -12z m65 -60 l12 -8 -30 1 -30 1 13 5 12 5
2 36 1 37 4 -35 5 -35 11 -7z m64 66 l-6 -6 -13 5 -13 5 19 1 19 1 -6 -6z m71
-6 l12 -12 0 -17 0 -17 -15 -12 -16 -13 -10 10 -11 11 18 -1 19 -2 0 25 0 25
-17 -1 -18 -2 6 9 5 9 8 0 7 0 12 -12z m135 -60 l12 -8 -30 1 -30 1 13 5 12 5
2 36 1 37 4 -35 5 -35 11 -7z m64 66 l-6 -6 -13 5 -13 5 19 1 19 1 -6 -6z m76
-66 l12 -8 -30 0 -30 0 13 9 14 8 -2 24 -2 24 2 10 3 10 4 -35 5 -35 11 -7z
m65 60 l12 -12 0 -17 0 -17 -15 -12 -15 -12 -15 12 -15 12 0 17 0 17 12 12 12
12 6 0 6 0 12 -12z m-1211 -40 l-5 -13 0 25 0 25 5 -12 5 -13 -5 -12z m500 0
l-5 -13 0 25 0 25 5 -12 5 -13 -5 -12z m40 0 l-5 -13 0 25 0 25 5 -12 5 -13
-5 -12z m230 0 l-5 -13 0 25 0 25 5 -12 5 -13 -5 -12z m40 0 l-5 -13 0 25 0
25 5 -12 5 -13 -5 -12z m230 0 l-5 -13 0 25 0 25 5 -12 5 -13 -5 -12z m40 0
l-5 -13 0 25 0 25 5 -12 5 -13 -5 -12z m-1090 -24 l-6 -6 -13 5 -13 5 19 1 19
1 -6 -6z m411 -1 l-18 -4 -17 4 -18 5 35 0 35 0 -17 -5z m129 1 l-6 -6 -13 5
-13 5 19 1 19 1 -6 -6z m270 0 l-6 -6 -13 5 -13 5 19 1 19 1 -6 -6z m141 -1
l-18 -4 -17 4 -18 5 35 0 35 0 -17 -5z m129 1 l-6 -6 -13 5 -13 5 19 1 19 1
-6 -6z m-1080 -40 l-6 -6 -13 5 -13 5 19 1 19 1 -6 -6z m71 -6 l12 -12 0 -17
0 -17 -15 -12 -16 -13 -10 10 -11 11 18 -1 19 -2 0 25 0 25 -17 -1 -18 -2 6 9
5 9 8 0 7 0 12 -12z m136 3 l6 -9 -18 2 -17 1 0 -25 0 -25 19 2 18 1 -11 -11
-10 -10 -16 13 -15 12 0 17 0 17 12 12 12 12 7 0 8 0 5 -9z m69 -63 l12 -8
-30 0 -30 0 13 9 14 8 -2 24 -2 24 2 10 3 10 4 -35 5 -35 11 -7z m65 60 l12
-12 0 -17 0 -17 -15 -12 -16 -13 -10 10 -11 11 18 -1 19 -2 0 25 0 25 -17 -1
-18 -2 6 9 5 9 8 0 7 0 12 -12z m135 -60 l12 -8 -30 0 -30 0 13 9 14 8 -2 19
-2 19 2 15 3 15 4 -35 5 -35 11 -7z m70 0 l12 -8 -30 0 -30 0 13 9 14 8 -2 24
-2 24 2 10 3 10 4 -35 5 -35 11 -7z m70 0 l12 -8 -30 1 -30 1 13 5 12 5 0 24
0 25 -12 -7 -13 -8 15 19 15 18 3 -34 4 -34 11 -7z m131 63 l6 -9 -18 2 -17 1
0 -25 0 -25 19 2 18 1 -11 -11 -10 -10 -16 13 -15 12 0 17 0 17 12 12 12 12 7
0 8 0 5 -9z m63 3 l-6 -6 -13 5 -13 5 19 1 19 1 -6 -6z m76 -66 l12 -8 -30 1
-30 1 13 5 12 5 0 24 0 25 -12 -7 -13 -8 15 19 15 18 3 -34 4 -34 11 -7z m131
63 l6 -9 -18 2 -17 1 0 -25 0 -25 19 2 18 1 -11 -11 -10 -10 -16 13 -15 12 0
17 0 17 12 12 12 12 7 0 8 0 5 -9z m63 3 l-6 -6 -13 5 -13 5 19 1 19 1 -6 -6z
m71 -6 l12 -12 0 -17 0 -17 -15 -12 -16 -13 -10 10 -11 11 18 -1 19 -2 0 25 0
25 -17 -1 -18 -2 6 9 5 9 8 0 7 0 12 -12z m70 0 l12 -12 0 -17 0 -17 -15 -12
-15 -12 -15 12 -15 12 0 17 0 17 12 12 12 12 6 0 6 0 12 -12z m-1211 -40 l-5
-13 0 25 0 25 5 -12 5 -13 -5 -12z m770 0 l-5 -13 0 25 0 25 5 -12 5 -13 -5
-12z m40 0 l-5 -13 0 25 0 25 5 -12 5 -13 -5 -12z m230 0 l-5 -13 0 25 0 25 5
-12 5 -13 -5 -12z m40 0 l-5 -13 0 25 0 25 5 -12 5 -13 -5 -12z m-1090 -24
l-6 -6 -13 5 -13 5 19 1 19 1 -6 -6z m141 -1 l-18 -4 -17 4 -18 5 35 0 35 0
-17 -5z m270 0 l-18 -4 -17 4 -18 5 35 0 35 0 -17 -5z m270 0 l-18 -4 -17 4
-18 5 35 0 35 0 -17 -5z m129 1 l-6 -6 -13 5 -13 5 19 1 19 1 -6 -6z m141 -1
l-18 -4 -17 4 -18 5 35 0 35 0 -17 -5z m129 1 l-6 -6 -13 5 -13 5 19 1 19 1
-6 -6z"/>
<path d="M144 1146 l-6 -16 6 -16 6 -16 13 5 12 4 0 23 0 23 -12 4 -13 5 -6
-16z"/>
<path d="M414 1146 l-6 -16 6 -16 6 -16 13 5 12 4 0 23 0 23 -12 4 -13 5 -6
-16z"/>
<path d="M684 1146 l-6 -16 6 -16 6 -16 13 5 12 4 0 23 0 23 -12 4 -13 5 -6
-16z"/>
<path d="M1224 1146 l-6 -16 6 -16 6 -16 13 5 12 4 0 23 0 23 -12 4 -13 5 -6
-16z"/>
<path d="M144 1036 l-6 -16 6 -16 6 -16 13 5 12 4 0 23 0 23 -12 4 -13 5 -6
-16z"/>
<path d="M414 1036 l-6 -16 6 -16 6 -16 13 5 12 4 0 23 0 23 -12 4 -13 5 -6
-16z"/>
<path d="M684 1036 l-6 -16 6 -16 6 -16 13 5 12 4 0 23 0 23 -12 4 -13 5 -6
-16z"/>
<path d="M684 696 l-6 -16 6 -16 6 -16 13 5 12 4 0 23 0 23 -12 4 -13 5 -6
-16z"/>
<path d="M144 586 l-6 -16 6 -16 6 -16 13 5 12 4 0 23 0 23 -12 4 -13 5 -6
-16z"/>
<path d="M684 586 l-6 -16 6 -16 6 -16 13 5 12 4 0 23 0 23 -12 4 -13 5 -6
-16z"/>
<path d="M144 246 l-6 -16 6 -16 6 -16 13 5 12 4 0 23 0 23 -12 4 -13 5 -6
-16z"/>
<path d="M684 246 l-6 -16 6 -16 6 -16 13 5 12 4 0 23 0 23 -12 4 -13 5 -6
-16z"/>
<path d="M1224 246 l-6 -16 6 -16 6 -16 13 5 12 4 0 23 0 23 -12 4 -13 5 -6
-16z"/>
<path d="M1224 136 l-6 -16 6 -16 6 -16 13 5 12 4 0 23 0 23 -12 4 -13 5 -6
-16z"/>
</g>
</svg>
