<?xml version="1.0" standalone="no"?>
<!DOCTYPE svg PUBLIC "-//W3C//DTD SVG 20010904//EN"
 "http://www.w3.org/TR/2001/REC-SVG-20010904/DTD/svg10.dtd">
<svg version="1.0" xmlns="http://www.w3.org/2000/svg"
 width="468pt" height="468pt" viewBox="0 0 468 468"
 preserveAspectRatio="xMidYMid meet">
<metadata>
Created by potrace 1.8, written by Peter Selinger 2001-2007
</metadata>
<g transform="translate(0,468) scale(0.365625,-0.365625)"
fill="#000000" stroke="none">
<path d="M20 1250 l0 -10 10 0 10 0 0 10 0 10 -10 0 -10 0 0 -10z"/>
<path d="M1223 1235 l-23 -24 0 -16 0 -15 -9 0 -9 0 -5 13 -5 12 -11 -15 -11
-15 -10 15 -10 15 -10 -15 -10 -15 -10 15 -10 15 -10 -15 -10 -15 -10 15 -10
15 -10 -15 -10 -15 -10 15 -10 15 -10 -15 -10 -15 -10 15 -10 15 -10 -15 -10
-15 -10 15 -10 15 -10 -15 -10 -15 -10 15 -10 15 -10 -15 -10 -15 -10 15 -10
15 -10 -15 -10 -15 -10 15 -10 15 -10 -15 -10 -15 -10 15 -10 15 -10 -15 -10
-15 -10 15 -10 15 -10 -15 -10 -15 -10 15 -10 15 -10 -15 -10 -15 -10 15 -10
15 -10 -15 -10 -15 -10 15 -10 15 -10 -15 -10 -15 -10 15 -10 15 -10 -15 -10
-15 -10 15 -10 15 -10 -15 -10 -15 -10 15 -10 15 -10 -15 -10 -15 -10 15 -10
15 -10 -15 -10 -15 -10 15 -10 15 -10 -15 -10 -15 -10 15 -10 15 -10 -15 -10
-15 -10 15 -10 15 -10 -15 -10 -15 -10 15 -10 15 -10 -15 -10 -15 -10 15 -10
15 -10 -15 -10 -15 -10 15 -10 15 -10 -15 -10 -15 -10 15 -10 15 -10 -15 -10
-15 -10 15 -10 15 -9 -15 -10 -14 -21 23 -20 24 -7 -6 -6 -7 24 -20 23 -21
-14 -10 -15 -9 15 -10 15 -10 -15 -10 -15 -10 15 -10 15 -10 -15 -10 -15 -10
15 -10 15 -10 -15 -10 -15 -10 15 -10 15 -10 -15 -10 -15 -10 15 -10 15 -10
-15 -11 -15 -11 13 -5 12 -5 0 -9 0 -9 -15 0 -16 0 -24 -25 -25 -24 0 -6 0 -5
140 0 140 0 0 -10 0 -10 -10 0 -10 0 0 -15 0 -16 140 -139 140 -139 0 -11 0
-11 -14 -15 -15 -14 -5 0 -6 0 0 20 0 20 -210 0 -210 0 0 -125 0 -126 26 -26
26 -26 9 14 9 14 9 -15 10 -14 21 23 20 24 7 -7 7 -7 -14 -10 -15 -11 13 -5
12 -5 0 -109 0 -109 10 0 10 0 0 109 0 109 13 5 12 5 -15 11 -14 10 7 7 7 7
20 -24 21 -23 10 14 9 15 10 -15 10 -15 10 15 10 15 10 -15 10 -15 10 15 10
15 9 -15 10 -14 21 23 20 24 7 -7 7 -7 -14 -10 -15 -11 13 -5 12 -5 0 -109 0
-109 6 0 5 0 16 16 16 16 -14 9 -14 9 15 10 15 10 -15 10 -15 10 15 10 15 10
-15 10 -15 10 15 10 15 10 -15 10 -15 10 15 10 15 10 -15 10 -15 10 15 10 15
10 -14 9 -14 9 17 17 17 17 7 -6 6 -7 -13 -9 -14 -8 17 -17 17 -17 7 6 6 7
-14 10 -15 9 15 9 14 10 -23 21 -24 20 8 8 8 7 4 -12 5 -13 14 0 15 0 70 -71
70 -71 28 31 29 31 11 0 12 0 69 -70 70 -71 165 166 165 165 -125 125 -125
126 -60 -61 -60 -61 -17 16 -16 17 13 8 13 8 -41 40 -42 40 0 11 0 11 85 85
85 85 145 0 145 0 0 200 0 200 -7 -1 -8 0 -22 -24z m-1083 -64 l0 -9 -12 -5
-13 -4 7 -8 8 -8 20 24 21 23 10 -14 9 -15 10 15 10 15 10 -15 10 -15 10 15
10 15 10 -15 10 -15 10 15 10 15 10 -15 10 -15 10 15 10 15 10 -15 10 -15 10
15 10 15 10 -15 10 -15 10 15 10 15 10 -15 10 -15 10 15 10 15 10 -15 10 -15
10 15 10 15 10 -15 10 -15 10 15 10 15 10 -15 10 -15 10 15 10 15 10 -15 10
-15 10 15 10 15 10 -15 10 -15 10 15 10 15 10 -15 10 -15 10 15 10 15 10 -15
10 -15 10 15 10 15 10 -15 10 -15 10 15 10 15 10 -15 10 -15 10 15 10 15 10
-15 10 -15 10 15 10 15 10 -15 10 -15 10 15 10 15 10 -15 10 -15 10 15 10 15
10 -15 10 -15 10 15 10 15 10 -15 10 -15 10 15 10 15 10 -15 10 -15 10 15 10
15 10 -15 10 -15 10 15 10 15 10 -15 10 -15 10 15 10 15 10 -15 10 -15 9 14 9
14 18 -17 17 -18 -14 -9 -14 -9 15 -10 15 -10 -15 -10 -15 -10 15 -10 15 -10
-15 -10 -15 -10 15 -10 15 -10 -15 -10 -15 -10 15 -10 15 -10 -15 -10 -15 -10
14 -9 14 -9 -17 -18 -18 -17 -9 14 -9 14 -10 -15 -10 -15 -10 15 -10 15 -10
-15 -10 -15 -10 15 -10 15 -10 -15 -10 -15 -10 15 -10 15 -10 -15 -10 -15 -10
15 -10 15 -10 -15 -10 -15 -9 14 -9 14 -91 -92 -90 -91 -16 0 -15 0 0 16 0 15
51 50 51 50 -5 6 -6 5 -50 -51 -50 -51 -11 0 -11 0 -15 14 -14 15 0 11 0 12
41 39 41 40 -5 6 -6 5 -40 -41 -39 -41 -12 0 -11 0 -24 25 -25 24 0 16 0 15
-9 0 -9 0 -4 -12 -5 -13 -17 18 -18 18 6 7 7 6 10 -14 9 -15 10 15 10 15 9
-14 9 -15 30 32 30 32 32 0 33 0 18 -22 19 -21 19 21 18 22 53 0 52 0 30 -32
30 -32 9 15 9 14 10 -15 10 -15 10 15 10 15 10 -15 10 -15 10 15 10 15 10 -15
10 -15 10 15 10 15 9 -14 9 -14 18 17 17 18 -14 9 -14 9 15 10 15 10 -15 10
-15 10 15 10 15 10 -15 10 -15 10 15 10 15 10 -15 10 -15 10 14 9 14 9 -16 16
-16 16 -5 0 -6 0 0 -70 0 -70 -486 0 -485 0 -15 -15 -15 -15 26 -26 27 -27 9
14 9 14 10 -15 10 -15 10 15 10 15 10 -15 10 -15 10 15 10 15 10 -15 10 -15
10 15 10 15 10 -15 10 -15 10 15 10 15 10 -15 10 -15 9 15 10 14 7 -6 6 -7
-17 -17 -17 -17 -9 14 -9 14 -10 -15 -10 -15 -10 15 -10 15 -10 -15 -10 -15
-10 15 -10 15 -10 -15 -10 -15 -10 15 -10 15 -10 -15 -10 -15 -10 15 -10 15
-10 -15 -10 -15 -10 15 -10 15 -9 -14 -9 -14 -18 17 -17 18 14 9 14 9 -15 10
-15 10 15 10 15 10 -15 10 -15 10 15 10 15 10 -15 10 -15 10 15 10 15 10 -15
10 -15 10 15 10 15 10 -14 9 -14 9 14 16 14 15 8 1 7 0 0 -9z m470 -311 l140
-141 71 72 71 72 9 -14 9 -14 9 15 10 14 6 -6 7 -6 -78 -78 -78 -78 -4 12 -4
12 -9 0 -9 0 0 -15 0 -15 -85 -85 -85 -85 -145 145 -145 145 0 10 0 10 83 84
82 84 3 1 3 1 139 -140z m206 -226 l46 -45 -6 -6 -6 -6 -20 23 -20 23 -6 -6
-6 -6 41 -40 42 -40 -77 -77 -76 -77 -8 13 -8 13 -47 -47 -47 -47 6 -6 6 -6
20 22 19 23 16 -15 15 -16 0 -12 0 -12 -22 -18 -21 -19 6 -7 7 -6 19 22 20 23
26 -26 26 -26 -25 -25 -26 -26 -115 116 -115 115 45 45 44 45 13 1 13 0 85 89
85 89 3 0 3 1 45 -46z m309 -109 l115 -115 -155 -155 -155 -155 -125 125 -126
126 16 15 16 16 7 -6 6 -7 -14 -9 -14 -9 6 -6 7 -7 148 150 148 151 3 0 2 1
115 -115z m-625 -55 l0 -30 -10 0 -10 0 0 20 0 20 -30 0 -30 0 0 -30 0 -30 15
0 16 0 24 -25 25 -24 0 -46 0 -45 -190 0 -190 0 0 110 0 110 190 0 190 0 0
-30z m-340 -220 l0 -10 -10 0 -10 0 0 10 0 10 10 0 10 0 0 -10z m40 0 l0 -10
-10 0 -10 0 0 10 0 10 10 0 10 0 0 -10z m120 0 l0 -10 -10 0 -10 0 0 10 0 10
10 0 10 0 0 -10z m40 0 l0 -10 -10 0 -10 0 0 10 0 10 10 0 10 0 0 -10z m40 0
l0 -10 -10 0 -10 0 0 10 0 10 10 0 10 0 0 -10z m40 0 l0 -10 -10 0 -10 0 0 10
0 10 10 0 10 0 0 -10z"/>
<path d="M1160 1150 l0 -10 10 0 10 0 0 10 0 10 -10 0 -10 0 0 -10z"/>
<path d="M180 1090 l0 -50 20 0 20 0 0 30 0 30 9 0 9 0 6 -12 6 -13 6 13 6 12
9 0 9 0 0 -30 0 -30 20 0 20 0 0 50 0 50 -16 0 -17 0 -18 -22 -19 -21 -19 21
-18 22 -17 0 -16 0 0 -50z"/>
<path d="M353 1125 l-13 -14 0 -36 0 -35 20 0 20 0 0 20 0 20 20 0 20 0 0 -20
0 -20 20 0 20 0 0 36 0 35 -14 15 -15 14 -33 0 -33 -1 -12 -14z m67 -15 l0
-10 -20 0 -20 0 0 10 0 10 20 0 20 0 0 -10z"/>
<path d="M480 1090 l0 -50 20 0 20 0 0 50 0 50 -20 0 -20 0 0 -50z"/>
<path d="M540 1090 l0 -50 60 0 60 0 0 10 0 10 -40 0 -40 0 0 40 0 40 -20 0
-20 0 0 -50z"/>
<path d="M680 1090 l0 -50 46 0 45 0 16 16 16 16 -14 9 -14 9 14 9 14 9 -16
16 -16 16 -45 0 -46 0 0 -50z m80 20 l0 -10 -20 0 -20 0 0 10 0 10 20 0 20 0
0 -10z m0 -40 l0 -10 -20 0 -20 0 0 10 0 10 20 0 20 0 0 -10z"/>
<path d="M833 1125 l-13 -14 0 -21 0 -21 14 -15 15 -14 31 0 31 0 15 14 14 15
0 21 0 21 -14 15 -15 14 -33 0 -33 -1 -12 -14z m67 -35 l0 -30 -20 0 -20 0 0
30 0 30 20 0 20 0 0 -30z"/>
<path d="M960 1120 l0 -20 16 0 16 0 28 -30 28 -30 16 0 16 0 0 20 0 20 -16 0
-16 0 -28 30 -28 30 -16 0 -16 0 0 -20z"/>
<path d="M1040 1120 l0 -20 20 0 20 0 0 20 0 20 -20 0 -20 0 0 -20z"/>
<path d="M120 1110 l0 -10 10 0 10 0 0 10 0 10 -10 0 -10 0 0 -10z"/>
<path d="M1160 1110 l0 -10 10 0 10 0 0 10 0 10 -10 0 -10 0 0 -10z"/>
<path d="M120 1070 l0 -10 10 0 10 0 0 10 0 10 -10 0 -10 0 0 -10z"/>
<path d="M960 1060 l0 -20 20 0 20 0 0 20 0 20 -20 0 -20 0 0 -20z"/>
<path d="M1160 1070 l0 -10 10 0 10 0 0 10 0 10 -10 0 -10 0 0 -10z"/>
<path d="M120 1030 l0 -10 10 0 10 0 0 10 0 10 -10 0 -10 0 0 -10z"/>
<path d="M1160 1030 l0 -10 10 0 10 0 0 10 0 10 -10 0 -10 0 0 -10z"/>
<path d="M1160 990 l0 -10 10 0 10 0 0 10 0 10 -10 0 -10 0 0 -10z"/>
<path d="M120 950 l0 -10 10 0 10 0 0 10 0 10 -10 0 -10 0 0 -10z"/>
<path d="M1160 950 l0 -10 10 0 10 0 0 10 0 10 -10 0 -10 0 0 -10z"/>
<path d="M732 864 l-34 -35 5 -6 6 -5 35 36 36 35 0 6 0 5 -7 -1 -8 0 -33 -35z"/>
<path d="M420 875 l0 -6 46 -45 45 -46 6 5 5 6 -46 45 -45 46 -6 0 -5 0 0 -5z"/>
<path d="M400 835 l0 -5 76 -76 76 -76 5 5 5 5 -76 76 -76 76 -5 0 -5 0 0 -5z"/>
<path d="M832 784 l-54 -55 5 -6 6 -5 55 56 56 56 0 5 0 5 -7 -1 -8 0 -53 -55z"/>
<path d="M360 815 l0 -6 46 -45 45 -46 6 5 5 6 -46 45 -45 46 -6 0 -5 0 0 -5z"/>
<path d="M540 755 l0 -6 26 -26 25 -25 6 5 5 6 -25 25 -26 26 -6 0 -5 0 0 -5z"/>
<path d="M642 734 l-23 -24 26 -26 25 -25 25 26 26 25 -25 25 -25 25 -3 -1 -3
0 -23 -25z"/>
<path d="M480 695 l0 -6 26 -26 25 -25 6 5 5 6 -25 25 -26 26 -6 0 -5 0 0 -5z"/>
<path d="M682 574 l-83 -85 15 -15 16 -15 36 37 37 36 -14 9 -13 8 7 7 7 7 19
-22 20 -23 36 37 37 36 -23 20 -22 19 7 7 7 7 9 -14 9 -14 7 6 6 7 -15 16 -16
15 -3 -1 -3 -1 -83 -84z m-2 -39 l0 -6 -26 -26 -25 -25 -6 5 -5 6 23 25 24 25
8 0 7 1 0 -5z"/>
<path d="M652 404 l-54 -55 5 -6 6 -5 55 56 56 56 0 5 0 5 -7 -1 -8 0 -53 -55z"/>
<path d="M692 244 l-13 -14 15 -16 16 -15 16 15 15 16 -15 15 -15 15 -3 0 -3
-1 -13 -15z m28 -14 l0 -10 -10 0 -10 0 0 10 0 10 10 0 10 0 0 -10z"/>
<path d="M973 565 l-13 -14 0 -11 0 -11 15 -15 15 -15 25 26 26 25 -15 15 -15
15 -13 0 -13 -1 -12 -14z"/>
<path d="M1002 334 l-142 -144 35 -35 35 -35 145 145 145 145 -34 35 -35 35
-3 -1 -3 -1 -143 -144z m174 101 l25 -25 -136 -135 -135 -136 -25 26 -26 25
133 134 133 134 3 1 3 1 25 -25z"/>
<path d="M1022 314 l-123 -125 15 -15 15 -15 126 126 126 126 -15 14 -15 15
-3 -1 -3 -1 -123 -124z m138 101 l0 -5 -116 -116 -116 -116 -5 5 -5 5 114 115
113 115 8 1 7 1 0 -5z"/>
<path d="M1012 424 l-34 -35 5 -6 6 -5 35 36 36 35 0 6 0 5 -7 -1 -8 0 -33
-35z"/>
<path d="M852 384 l-54 -55 5 -6 6 -5 55 56 56 56 0 5 0 5 -7 -1 -8 0 -53 -55z"/>
<path d="M902 373 l-64 -64 5 -6 6 -5 65 66 66 66 0 5 0 5 -7 -1 -8 -1 -63
-65z"/>
<path d="M902 314 l-44 -45 5 -6 6 -5 45 46 46 45 0 6 0 5 -7 -1 -8 0 -43 -45z"/>
<path d="M160 390 l0 -10 80 0 80 0 0 10 0 10 -80 0 -80 0 0 -10z"/>
<path d="M160 350 l0 -10 50 0 50 0 0 10 0 10 -50 0 -50 0 0 -10z"/>
<path d="M280 350 l0 -10 40 0 40 0 0 10 0 10 -40 0 -40 0 0 -10z"/>
<path d="M160 310 l0 -10 110 0 110 0 0 10 0 10 -110 0 -110 0 0 -10z"/>
<path d="M280 90 l0 -70 10 0 10 0 0 70 0 70 -10 0 -10 0 0 -70z"/>
<path d="M320 100 l0 -60 10 0 10 0 0 60 0 60 -10 0 -10 0 0 -60z"/>
<path d="M360 120 l0 -40 10 0 10 0 0 40 0 40 -10 0 -10 0 0 -40z"/>
<path d="M732 64 l-54 -55 6 -6 5 -5 50 51 50 51 11 0 11 0 50 -51 50 -51 5 5
6 6 -56 55 -56 56 -12 -1 -13 0 -53 -55z"/>
<path d="M961 34 l-23 -25 6 -6 6 -6 19 21 18 22 13 0 13 0 18 -22 19 -21 6 6
6 6 -25 25 -26 26 -13 -1 -13 0 -24 -25z"/>
<path d="M771 24 l-13 -15 6 -6 5 -5 16 15 15 16 0 5 0 6 -7 0 -8 -1 -14 -15z"/>
</g>
</svg>
