<?xml version="1.0" standalone="no"?>
<!DOCTYPE svg PUBLIC "-//W3C//DTD SVG 20010904//EN"
 "http://www.w3.org/TR/2001/REC-SVG-20010904/DTD/svg10.dtd">
<svg version="1.0" xmlns="http://www.w3.org/2000/svg"
 width="468pt" height="468pt" viewBox="0 0 468 468"
 preserveAspectRatio="xMidYMid meet">
<metadata>
Created by potrace 1.8, written by Peter Selinger 2001-2007
</metadata>
<g transform="translate(0,468) scale(0.365625,-0.365625)"
fill="#000000" stroke="none">
<path d="M520 1250 l0 -10 -30 0 -30 0 0 -10 0 -10 -30 0 -30 0 0 -9 0 -9 13
-5 12 -4 -9 -9 -9 -9 -4 13 -5 12 -17 0 -17 0 -14 -20 -14 -20 -13 0 -13 0
-55 -55 -55 -55 0 -13 0 -13 -20 -14 -20 -14 0 -18 0 -18 -10 0 -10 0 0 -40 0
-40 -10 0 -10 0 0 -50 0 -50 -10 0 -10 0 0 -50 0 -50 10 0 10 0 0 -30 0 -30
10 0 10 0 0 -20 0 -20 10 0 10 0 0 -18 0 -18 20 -14 20 -14 0 -18 0 -18 10 0
10 0 0 -20 0 -20 10 0 10 0 0 -20 0 -20 10 0 10 0 0 -15 0 -16 25 -24 24 -25
16 0 15 0 0 -10 0 -10 16 0 15 0 15 14 14 15 0 5 0 6 -40 0 -40 0 0 30 0 30
-10 0 -10 0 0 30 0 30 5 0 5 0 65 -65 65 -65 0 -5 0 -5 -16 0 -15 0 -15 -14
-14 -15 0 -5 0 -6 20 0 20 0 0 -10 0 -10 19 0 19 0 5 13 4 12 9 -9 9 -9 -12
-4 -13 -5 0 -9 0 -9 20 0 20 0 0 -10 0 -10 148 0 148 0 14 20 14 20 18 0 18 0
0 9 0 9 -12 5 -13 4 9 9 9 9 4 -12 5 -13 19 0 19 0 0 10 0 10 20 0 20 0 0 10
0 10 15 0 15 0 65 65 65 65 0 14 0 14 13 5 12 4 -25 22 -24 22 14 9 14 9 -22
19 -22 19 0 17 0 16 -10 0 -10 0 0 30 0 30 -10 0 -10 0 0 20 0 20 16 0 16 0
28 30 28 30 6 0 6 0 0 -30 0 -30 -10 0 -10 0 0 -40 0 -40 -10 0 -10 0 0 -30 0
-30 10 0 10 0 0 30 0 30 10 0 10 0 0 40 0 40 10 0 10 0 0 -56 0 -57 -23 -20
-22 -20 13 -4 12 -5 0 -19 0 -19 10 0 10 0 0 30 0 30 10 0 10 0 0 150 0 150
-10 0 -10 0 0 20 0 20 -10 0 -10 0 0 26 0 26 -30 28 -30 28 0 11 0 11 -75 75
-75 75 -15 0 -15 0 0 10 0 10 -20 0 -20 0 0 10 0 10 -20 0 -20 0 0 10 0 10
-140 0 -140 0 0 -10z m60 -20 l0 -10 20 0 20 0 0 10 0 10 40 0 40 0 0 -6 0 -5
-17 -17 -16 -17 -5 13 -4 12 -19 0 -19 0 0 -10 0 -10 -36 0 -35 0 -15 14 -14
15 0 5 0 6 30 0 30 0 0 -10z m200 -20 l0 -30 10 0 10 0 0 -20 0 -20 -20 0 -20
0 0 10 0 10 -20 0 -20 0 0 10 0 10 -20 0 -20 0 0 -10 0 -10 20 0 20 0 0 -10 0
-10 20 0 20 0 0 -10 0 -10 30 0 30 0 0 -10 0 -10 -50 0 -50 0 0 -10 0 -10 -40
0 -40 0 0 -10 0 -10 40 0 40 0 0 10 0 10 50 0 50 0 0 -30 0 -30 -10 0 -10 0 0
-20 0 -20 -30 0 -30 0 0 10 0 10 -20 0 -20 0 0 10 0 10 -18 0 -18 0 -14 20
-14 20 -18 0 -18 0 0 10 0 10 -15 0 -16 0 -44 45 -45 44 0 6 0 5 80 0 80 0 0
-10 0 -10 -10 0 -10 0 0 -20 0 -20 -10 0 -10 0 0 -20 0 -20 10 0 10 0 0 20 0
20 10 0 10 0 0 15 0 16 35 34 34 35 16 0 15 0 0 10 0 10 20 0 20 0 0 -30z
m-280 0 l0 -10 -20 0 -20 0 0 10 0 10 20 0 20 0 0 -10z m360 -20 l0 -10 20 0
20 0 0 -20 0 -20 -20 0 -20 0 0 -10 0 -10 20 0 20 0 0 10 0 10 16 0 15 0 15
-14 14 -15 0 -25 0 -26 10 0 10 0 0 -20 0 -20 -6 0 -6 0 -28 30 -28 30 -11 0
-12 0 -34 35 -35 34 0 16 0 15 -10 0 -10 0 0 10 0 10 30 0 30 0 0 -10z m-355
-65 l55 -55 0 -5 0 -5 -40 0 -40 0 0 -10 0 -10 -50 0 -50 0 0 20 0 20 10 0 10
0 0 20 0 20 10 0 10 0 0 15 0 16 13 14 12 14 3 1 2 0 55 -55z m-105 15 l0 -20
-10 0 -10 0 0 -16 0 -15 -15 -16 -16 -15 -19 23 -20 22 -7 -6 -6 -7 21 -19 22
-18 0 -16 0 -15 13 -5 12 -4 -8 -9 -8 -8 -10 14 -11 15 -5 -12 -5 -13 -17 0
-17 0 -14 -20 -14 -20 -15 0 -14 0 -18 -21 -18 -21 -16 15 -15 16 0 5 0 6 20
0 20 0 0 10 0 10 -10 0 -10 0 0 10 0 10 16 0 15 0 15 14 14 15 0 15 0 16 10 0
10 0 0 16 0 15 14 15 15 14 15 0 16 0 0 10 0 10 30 0 30 0 0 10 0 10 10 0 10
0 0 -20z m615 -65 l25 -24 0 -13 0 -14 20 -14 20 -14 0 -8 0 -8 -26 0 -25 0
-15 14 -14 15 0 25 0 26 -10 0 -10 0 0 20 0 20 5 0 6 0 24 -25z m-135 -5 l0
-10 15 0 16 0 24 -25 25 -24 0 -16 0 -15 10 0 10 0 0 -50 0 -50 10 0 10 0 0
-70 0 -70 -6 0 -5 0 -15 14 -14 15 0 10 0 11 -66 66 -65 66 -7 -7 -7 -8 13 -4
12 -5 0 -14 0 -15 70 -69 70 -69 0 -16 0 -15 -40 0 -40 0 0 -10 0 -10 -30 0
-30 0 0 -10 0 -10 -40 0 -40 0 0 -10 0 -10 40 0 40 0 0 10 0 10 30 0 30 0 0
10 0 10 40 0 40 0 0 -20 0 -20 -10 0 -10 0 0 -20 0 -20 -10 0 -10 0 0 -20 0
-20 -10 0 -10 0 0 -20 0 -20 -10 0 -10 0 0 -20 0 -20 -20 0 -20 0 0 15 0 16
-45 44 -44 45 -6 0 -5 0 0 -16 0 -15 50 -49 50 -49 0 -15 0 -16 -40 0 -40 0 0
-10 0 -10 -40 0 -40 0 0 20 0 20 10 0 10 0 0 58 0 58 20 14 20 14 0 18 0 18
-10 0 -10 0 0 20 0 20 10 0 10 0 0 50 0 50 10 0 10 0 0 55 0 56 35 34 34 35
56 0 55 0 0 10 0 10 -60 0 -60 0 0 -10 0 -10 -10 0 -10 0 0 30 0 30 10 0 10 0
0 30 0 30 20 0 20 0 0 -10z m-300 -40 l0 -10 30 0 30 0 0 -10 0 -10 20 0 20 0
0 -10 0 -10 20 0 20 0 0 -10 0 -10 16 0 15 0 15 -14 14 -15 0 -15 0 -16 -10 0
-10 0 0 -50 0 -50 -10 0 -10 0 0 -55 0 -56 -25 -24 -24 -25 -96 0 -95 0 0 20
0 20 10 0 10 0 0 56 0 55 15 15 15 15 15 -15 15 -15 0 -11 0 -10 56 -56 55
-56 7 7 7 8 -12 4 -13 5 0 14 0 15 -60 59 -60 59 0 15 0 14 -12 5 -13 4 9 9 9
9 4 -12 5 -13 19 0 19 0 0 10 0 10 30 0 30 0 0 10 0 10 30 0 30 0 0 10 0 10
20 0 20 0 0 10 0 10 -20 0 -20 0 0 -10 0 -10 -30 0 -30 0 0 -10 0 -10 -30 0
-30 0 0 -10 0 -10 -20 0 -20 0 0 30 0 30 10 0 10 0 0 40 0 40 -10 0 -10 0 0
-30 0 -30 -10 0 -10 0 0 -40 0 -40 -16 0 -15 0 -50 51 -50 51 -6 -5 -5 -6 61
-60 61 -60 0 -5 0 -6 -20 0 -20 0 0 -10 0 -10 -20 0 -20 0 0 -10 0 -10 -18 0
-18 0 -14 -20 -14 -20 -18 0 -18 0 0 -10 0 -10 -20 0 -20 0 0 30 0 30 10 0 10
0 0 30 0 30 10 0 10 0 0 40 0 40 10 0 10 0 0 26 0 25 14 15 15 14 45 0 46 0 0
10 0 10 50 0 50 0 0 -10z m-240 -60 l0 -30 -10 0 -10 0 0 -40 0 -40 -10 0 -10
0 0 -30 0 -30 -10 0 -10 0 0 -20 0 -20 -5 0 -6 0 -34 35 -35 34 0 16 0 15 -10
0 -10 0 0 16 0 15 14 15 15 14 11 0 12 0 28 30 28 30 16 0 16 0 0 10 0 10 10
0 10 0 0 -30z m695 -35 l25 -24 0 -13 0 -14 20 -14 20 -14 0 -17 0 -17 12 -4
12 -4 -37 -37 -36 -37 -16 0 -15 0 0 70 0 70 -10 0 -10 0 0 40 0 40 5 0 6 0
24 -25z m65 5 l0 -20 10 0 10 0 0 -30 0 -30 -6 0 -5 0 -15 14 -14 15 0 13 0
14 -20 14 -20 14 0 8 0 8 30 0 30 0 0 -20z m-895 -135 l35 -34 0 -12 0 -11 30
-28 30 -28 0 -36 0 -36 -10 0 -10 0 0 -50 0 -50 -6 0 -6 0 -38 40 -38 40 -16
0 -16 0 0 10 0 10 18 0 18 0 14 20 14 20 14 0 13 0 15 14 14 15 0 5 0 6 -18 0
-18 0 -14 -20 -14 -20 -18 0 -18 0 0 -10 0 -10 -10 0 -10 0 0 100 0 100 5 0 6
0 34 -35z m315 5 l0 -10 -10 0 -10 0 0 -60 0 -60 -10 0 -10 0 0 -20 0 -20 -20
0 -20 0 0 10 0 10 -20 0 -20 0 0 10 0 10 -20 0 -20 0 0 10 0 10 -20 0 -20 0 0
6 0 5 14 15 15 14 15 0 16 0 0 10 0 10 18 0 18 0 14 20 14 20 18 0 18 0 0 10
0 10 20 0 20 0 0 -10z m-380 -90 l0 -40 -10 0 -10 0 0 40 0 40 10 0 10 0 0
-40z m220 -50 l0 -10 20 0 20 0 0 -10 0 -10 20 0 20 0 0 -16 0 -15 -14 -15
-15 -14 -13 0 -14 0 -14 -20 -14 -20 -18 0 -18 0 0 -10 0 -10 -10 0 -10 0 0
50 0 50 10 0 10 0 0 30 0 30 20 0 20 0 0 -10z m660 -20 l0 -30 10 0 10 0 0
-30 0 -30 10 0 10 0 0 -10 0 -10 -18 0 -18 0 -14 -20 -14 -20 -18 0 -18 0 0
-10 0 -10 -20 0 -20 0 0 20 0 20 10 0 10 0 0 20 0 20 10 0 10 0 0 20 0 20 10
0 10 0 0 20 0 20 10 0 10 0 0 20 0 20 10 0 10 0 0 -30z m-300 -50 l0 -20 -10
0 -10 0 0 -56 0 -55 -15 -15 -15 -15 -55 55 -55 56 0 10 0 11 -14 15 -15 14
-5 0 -6 0 0 -16 0 -16 30 -28 30 -28 0 -12 0 -12 30 -28 30 -28 0 -6 0 -6 -80
0 -80 0 0 50 0 50 10 0 10 0 0 35 0 36 13 14 12 14 98 1 97 0 0 -20z m-240
-30 l0 -30 -10 0 -10 0 0 -50 0 -50 -30 0 -30 0 0 10 0 10 -20 0 -20 0 0 10 0
10 -20 0 -20 0 0 5 0 6 25 24 24 25 13 0 14 0 14 20 14 20 18 0 18 0 0 10 0
10 10 0 10 0 0 -30z m-260 -40 l0 -10 16 0 15 0 15 -14 14 -15 0 -45 0 -46 10
0 10 0 0 -20 0 -20 -10 0 -10 0 0 20 0 20 -10 0 -10 0 0 20 0 20 -10 0 -10 0
0 20 0 20 -10 0 -10 0 0 20 0 20 -10 0 -10 0 0 10 0 10 10 0 10 0 0 -10z m840
-20 l0 -10 20 0 20 0 0 -10 0 -10 -10 0 -10 0 0 -15 0 -16 -25 -24 -24 -25
-16 0 -15 0 0 -16 0 -15 -14 -15 -15 -14 -35 0 -36 0 0 -10 0 -10 -30 0 -30 0
0 -10 0 -10 -40 0 -40 0 0 5 0 5 65 66 66 65 40 -42 40 -41 6 5 6 6 -32 30
-31 29 0 16 0 16 20 0 20 0 0 10 0 10 20 0 20 0 0 10 0 10 20 0 20 0 0 10 0
10 10 0 10 0 0 -10z m-700 -60 l0 -10 20 0 20 0 0 -10 0 -10 16 0 15 0 15 -14
14 -15 0 -15 0 -16 10 0 10 0 0 -15 0 -16 -26 -26 -25 -25 -6 6 -6 6 22 19 23
20 -61 60 -61 60 0 5 0 6 10 0 10 0 0 -10z m480 -36 l0 -5 -51 -50 -50 -49 15
-15 15 -15 25 0 26 0 0 -10 0 -10 -20 0 -20 0 0 -10 0 -10 -20 0 -20 0 0 9 0
9 13 5 12 4 -22 20 -23 20 0 17 0 16 -10 0 -10 0 0 30 0 30 40 0 40 0 0 10 0
10 30 0 30 0 0 -6z m-200 -24 l0 -10 20 0 20 0 0 -20 0 -20 10 0 10 0 0 -30 0
-30 -86 0 -85 0 -15 14 -14 15 0 25 0 26 -10 0 -10 0 0 20 0 20 80 0 80 0 0
-10z m-40 -140 l0 -10 -40 0 -40 0 0 10 0 10 40 0 40 0 0 -10z m120 0 l0 -10
-30 0 -30 0 0 10 0 10 30 0 30 0 0 -10z"/>
<path d="M1040 470 l0 -10 10 0 10 0 0 10 0 10 -10 0 -10 0 0 -10z"/>
<path d="M1020 430 l0 -10 10 0 10 0 0 10 0 10 -10 0 -10 0 0 -10z"/>
<path d="M580 350 l-25 -29 -17 -1 -18 0 0 -10 0 -10 16 0 16 0 28 30 28 30
16 0 16 0 0 10 0 10 -17 0 -18 -1 -25 -29z"/>
<path d="M0 100 l0 -100 640 0 640 0 0 100 0 100 -640 0 -640 0 0 -100z"/>
</g>
</svg>
