<?xml version="1.0" standalone="no"?>
<!DOCTYPE svg PUBLIC "-//W3C//DTD SVG 20010904//EN"
 "http://www.w3.org/TR/2001/REC-SVG-20010904/DTD/svg10.dtd">
<svg version="1.0" xmlns="http://www.w3.org/2000/svg"
 width="468pt" height="468pt" viewBox="0 0 468 468"
 preserveAspectRatio="xMidYMid meet">
<metadata>
Created by potrace 1.8, written by Peter Selinger 2001-2007
</metadata>
<g transform="translate(0,468) scale(0.365625,-0.365625)"
fill="#000000" stroke="none">
<path d="M0 1240 l0 -40 20 0 20 0 0 -20 0 -20 -20 0 -20 0 0 -120 0 -120 20
0 20 0 0 -20 0 -20 -20 0 -20 0 0 -60 0 -60 20 0 20 0 0 20 0 20 80 0 80 0 0
-20 0 -20 -20 0 -20 0 0 -20 0 -20 -20 0 -20 0 0 -20 0 -20 -40 0 -40 0 0 20
0 20 -20 0 -20 0 0 -80 0 -80 20 0 20 0 0 -20 0 -20 -20 0 -20 0 0 -20 0 -20
20 0 20 0 0 -20 0 -20 -20 0 -20 0 0 -20 0 -20 60 0 60 0 0 -60 0 -60 -20 0
-20 0 0 20 0 20 -40 0 -40 0 0 -60 0 -60 20 0 20 0 0 -20 0 -20 20 0 20 0 0
-40 0 -40 40 0 40 0 0 -20 0 -20 20 0 20 0 0 20 0 20 40 0 40 0 0 20 0 20 100
0 100 0 0 -20 0 -20 20 0 20 0 0 -20 0 -20 -40 0 -40 0 0 20 0 20 -20 0 -20 0
0 -20 0 -20 -60 0 -60 0 0 -20 0 -20 140 0 140 0 0 20 0 20 20 0 20 0 0 -20 0
-20 20 0 20 0 0 20 0 20 -20 0 -20 0 0 20 0 20 -20 0 -20 0 0 40 0 40 -20 0
-20 0 0 20 0 20 20 0 20 0 0 20 0 20 -20 0 -20 0 0 20 0 20 -20 0 -20 0 0 20
0 20 -20 0 -20 0 0 20 0 20 20 0 20 0 0 20 0 20 20 0 20 0 0 -20 0 -20 20 0
20 0 0 20 0 20 40 0 40 0 0 -20 0 -20 20 0 20 0 0 20 0 20 20 0 20 0 0 -40 0
-40 20 0 20 0 0 -20 0 -20 -20 0 -20 0 0 -40 0 -40 -40 0 -40 0 0 20 0 20 20
0 20 0 0 20 0 20 -20 0 -20 0 0 -20 0 -20 -20 0 -20 0 0 -20 0 -20 20 0 20 0
0 -20 0 -20 -20 0 -20 0 0 -20 0 -20 20 0 20 0 0 -20 0 -20 20 0 20 0 0 -20 0
-20 20 0 20 0 0 -20 0 -20 40 0 40 0 0 40 0 40 -20 0 -20 0 0 60 0 60 20 0 20
0 0 20 0 20 20 0 20 0 0 40 0 40 40 0 40 0 0 40 0 40 20 0 20 0 0 -20 0 -20
40 0 40 0 0 20 0 20 40 0 40 0 0 -20 0 -20 -20 0 -20 0 0 -20 0 -20 -40 0 -40
0 0 -20 0 -20 -40 0 -40 0 0 -20 0 -20 -20 0 -20 0 0 -60 0 -60 -20 0 -20 0 0
20 0 20 -20 0 -20 0 0 -20 0 -20 20 0 20 0 0 -20 0 -20 20 0 20 0 0 -20 0 -20
40 0 40 0 0 -20 0 -20 40 0 40 0 0 20 0 20 -20 0 -20 0 0 20 0 20 -20 0 -20 0
0 60 0 60 40 0 40 0 0 20 0 20 20 0 20 0 0 20 0 20 40 0 40 0 0 -20 0 -20 20
0 20 0 0 20 0 20 20 0 20 0 0 -20 0 -20 20 0 20 0 0 40 0 40 -20 0 -20 0 0 20
0 20 20 0 20 0 0 180 0 180 -20 0 -20 0 0 20 0 20 20 0 20 0 0 220 0 220 -20
0 -20 0 0 20 0 20 20 0 20 0 0 20 0 20 -80 0 -80 0 0 -20 0 -20 20 0 20 0 0
-20 0 -20 -40 0 -40 0 0 20 0 20 -40 0 -40 0 0 20 0 20 -40 0 -40 0 0 -20 0
-20 -20 0 -20 0 0 20 0 20 -80 0 -80 0 0 -20 0 -20 -20 0 -20 0 0 20 0 20 -20
0 -20 0 0 -20 0 -20 -20 0 -20 0 0 20 0 20 -20 0 -20 0 0 -20 0 -20 -20 0 -20
0 0 20 0 20 -40 0 -40 0 0 -20 0 -20 40 0 40 0 0 -20 0 -20 -60 0 -60 0 0 -20
0 -20 -20 0 -20 0 0 -20 0 -20 -40 0 -40 0 0 -20 0 -20 -20 0 -20 0 0 20 0 20
-20 0 -20 0 0 -20 0 -20 -20 0 -20 0 0 20 0 20 -20 0 -20 0 0 -20 0 -20 -20 0
-20 0 0 20 0 20 -20 0 -20 0 0 20 0 20 40 0 40 0 0 20 0 20 20 0 20 0 0 -20 0
-20 20 0 20 0 0 20 0 20 20 0 20 0 0 -20 0 -20 20 0 20 0 0 20 0 20 40 0 40 0
0 20 0 20 20 0 20 0 0 20 0 20 -140 0 -140 0 0 -20 0 -20 -20 0 -20 0 0 20 0
20 -40 0 -40 0 0 -40z m760 -20 l0 -20 -20 0 -20 0 0 20 0 20 20 0 20 0 0 -20z
m200 0 l0 -20 40 0 40 0 0 -20 0 -20 -20 0 -20 0 0 -20 0 -20 -40 0 -40 0 0
20 0 20 20 0 20 0 0 20 0 20 -20 0 -20 0 0 20 0 20 20 0 20 0 0 -20z m-80 -40
l0 -20 -40 0 -40 0 0 20 0 20 40 0 40 0 0 -20z m320 0 l0 -20 20 0 20 0 0 -60
0 -60 -20 0 -20 0 0 -20 0 -20 -40 0 -40 0 0 -20 0 -20 -20 0 -20 0 0 20 0 20
-20 0 -20 0 0 -20 0 -20 -20 0 -20 0 0 20 0 20 -20 0 -20 0 0 -20 0 -20 -20 0
-20 0 0 20 0 20 -20 0 -20 0 0 20 0 20 -40 0 -40 0 0 20 0 20 -20 0 -20 0 0
20 0 20 -20 0 -20 0 0 -20 0 -20 -20 0 -20 0 0 20 0 20 -20 0 -20 0 0 -20 0
-20 -20 0 -20 0 0 20 0 20 -20 0 -20 0 0 -20 0 -20 -40 0 -40 0 0 -20 0 -20
-40 0 -40 0 0 -20 0 -20 -20 0 -20 0 0 -20 0 -20 -20 0 -20 0 0 -20 0 -20 -60
0 -60 0 0 20 0 20 -60 0 -60 0 0 -20 0 -20 -20 0 -20 0 0 40 0 40 20 0 20 0 0
20 0 20 40 0 40 0 0 -20 0 -20 40 0 40 0 0 20 0 20 40 0 40 0 0 20 0 20 40 0
40 0 0 20 0 20 40 0 40 0 0 20 0 20 20 0 20 0 0 -20 0 -20 20 0 20 0 0 20 0
20 20 0 20 0 0 -20 0 -20 20 0 20 0 0 20 0 20 60 0 60 0 0 -20 0 -20 60 0 60
0 0 -20 0 -20 120 0 120 0 0 20 0 20 20 0 20 0 0 40 0 40 20 0 20 0 0 -20z
m-440 -200 l0 -20 40 0 40 0 0 -20 0 -20 20 0 20 0 0 -40 0 -40 20 0 20 0 0
20 0 20 20 0 20 0 0 -40 0 -40 -40 0 -40 0 0 -20 0 -20 -20 0 -20 0 0 20 0 20
-20 0 -20 0 0 40 0 40 -20 0 -20 0 0 -40 0 -40 -20 0 -20 0 0 40 0 40 -20 0
-20 0 0 -20 0 -20 -20 0 -20 0 0 20 0 20 -20 0 -20 0 0 -20 0 -20 -20 0 -20 0
0 20 0 20 -20 0 -20 0 0 -20 0 -20 -40 0 -40 0 0 -20 0 -20 -40 0 -40 0 0 -20
0 -20 -20 0 -20 0 0 -20 0 -20 -60 0 -60 0 0 -20 0 -20 -20 0 -20 0 0 -20 0
-20 -20 0 -20 0 0 20 0 20 20 0 20 0 0 20 0 20 20 0 20 0 0 20 0 20 20 0 20 0
0 20 0 20 -20 0 -20 0 0 20 0 20 20 0 20 0 0 -20 0 -20 20 0 20 0 0 20 0 20
20 0 20 0 0 20 0 20 20 0 20 0 0 -20 0 -20 20 0 20 0 0 20 0 20 20 0 20 0 0
20 0 20 20 0 20 0 0 20 0 20 40 0 40 0 0 20 0 20 100 0 100 0 0 -20z m480
-120 l0 -20 -20 0 -20 0 0 20 0 20 20 0 20 0 0 -20z m-200 -40 l0 -20 -20 0
-20 0 0 20 0 20 20 0 20 0 0 -20z m80 0 l0 -20 -20 0 -20 0 0 20 0 20 20 0 20
0 0 -20z m-480 -80 l0 -20 40 0 40 0 0 -20 0 -20 20 0 20 0 0 -20 0 -20 20 0
20 0 0 20 0 20 20 0 20 0 0 -20 0 -20 20 0 20 0 0 -20 0 -20 -20 0 -20 0 0 20
0 20 -20 0 -20 0 0 -20 0 -20 -40 0 -40 0 0 20 0 20 -60 0 -60 0 0 20 0 20
-20 0 -20 0 0 -20 0 -20 -20 0 -20 0 0 20 0 20 -20 0 -20 0 0 -20 0 -20 -20 0
-20 0 0 -20 0 -20 -40 0 -40 0 0 -20 0 -20 -20 0 -20 0 0 -20 0 -20 40 0 40 0
0 20 0 20 40 0 40 0 0 20 0 20 80 0 80 0 0 -20 0 -20 40 0 40 0 0 -20 0 -20
20 0 20 0 0 20 0 20 40 0 40 0 0 -20 0 -20 60 0 60 0 0 -20 0 -20 20 0 20 0 0
20 0 20 20 0 20 0 0 -20 0 -20 20 0 20 0 0 20 0 20 40 0 40 0 0 -40 0 -40 -20
0 -20 0 0 20 0 20 -20 0 -20 0 0 -20 0 -20 -20 0 -20 0 0 20 0 20 -20 0 -20 0
0 -20 0 -20 -20 0 -20 0 0 20 0 20 -20 0 -20 0 0 -20 0 -20 -20 0 -20 0 0 20
0 20 -20 0 -20 0 0 -20 0 -20 -60 0 -60 0 0 20 0 20 -100 0 -100 0 0 -20 0
-20 -40 0 -40 0 0 -20 0 -20 -20 0 -20 0 0 -20 0 -20 -100 0 -100 0 0 20 0 20
-20 0 -20 0 0 20 0 20 -40 0 -40 0 0 20 0 20 -20 0 -20 0 0 20 0 20 20 0 20 0
0 -20 0 -20 40 0 40 0 0 -20 0 -20 60 0 60 0 0 20 0 20 20 0 20 0 0 20 0 20
-20 0 -20 0 0 20 0 20 20 0 20 0 0 20 0 20 20 0 20 0 0 20 0 20 20 0 20 0 0
20 0 20 20 0 20 0 0 20 0 20 20 0 20 0 0 20 0 20 80 0 80 0 0 -20z m600 -40
l0 -20 -20 0 -20 0 0 20 0 20 20 0 20 0 0 -20z m-80 -40 l0 -20 -20 0 -20 0 0
20 0 20 20 0 20 0 0 -20z m-200 -40 l0 -20 -20 0 -20 0 0 20 0 20 20 0 20 0 0
-20z m80 0 l0 -20 -20 0 -20 0 0 20 0 20 20 0 20 0 0 -20z m-880 -40 l0 -20
-40 0 -40 0 0 20 0 20 40 0 40 0 0 -20z m80 -40 l0 -20 -20 0 -20 0 0 20 0 20
20 0 20 0 0 -20z m1000 -60 l0 -40 -20 0 -20 0 0 40 0 40 20 0 20 0 0 -40z m0
-100 l0 -20 -20 0 -20 0 0 -20 0 -20 -40 0 -40 0 0 20 0 20 20 0 20 0 0 20 0
20 40 0 40 0 0 -20z m-400 -40 l0 -20 -20 0 -20 0 0 20 0 20 20 0 20 0 0 -20z
m-400 -40 l0 -20 20 0 20 0 0 -20 0 -20 -20 0 -20 0 0 -20 0 -20 -20 0 -20 0
0 20 0 20 -20 0 -20 0 0 -20 0 -20 -60 0 -60 0 0 -20 0 -20 -40 0 -40 0 0 20
0 20 -20 0 -20 0 0 40 0 40 20 0 20 0 0 -20 0 -20 60 0 60 0 0 20 0 20 20 0
20 0 0 -20 0 -20 20 0 20 0 0 20 0 20 20 0 20 0 0 20 0 20 20 0 20 0 0 -20z"/>
<path d="M800 900 l0 -20 20 0 20 0 0 20 0 20 -20 0 -20 0 0 -20z"/>
<path d="M320 820 l0 -20 20 0 20 0 0 20 0 20 -20 0 -20 0 0 -20z"/>
<path d="M840 820 l0 -20 20 0 20 0 0 20 0 20 -20 0 -20 0 0 -20z"/>
<path d="M800 500 l0 -20 20 0 20 0 0 20 0 20 -20 0 -20 0 0 -20z"/>
<path d="M400 260 l0 -20 20 0 20 0 0 20 0 20 -20 0 -20 0 0 -20z"/>
<path d="M1080 100 l0 -60 20 0 20 0 0 -20 0 -20 80 0 80 0 0 40 0 40 -20 0
-20 0 0 40 0 40 -80 0 -80 0 0 -60z"/>
<path d="M0 40 l0 -40 40 0 40 0 0 20 0 20 -20 0 -20 0 0 20 0 20 -20 0 -20 0
0 -40z"/>
</g>
</svg>
