<?xml version="1.0" standalone="no"?>
<!DOCTYPE svg PUBLIC "-//W3C//DTD SVG 20010904//EN"
 "http://www.w3.org/TR/2001/REC-SVG-20010904/DTD/svg10.dtd">
<svg version="1.0" xmlns="http://www.w3.org/2000/svg"
 width="468pt" height="468pt" viewBox="0 0 468 468"
 preserveAspectRatio="xMidYMid meet">
<metadata>
Created by potrace 1.8, written by Peter Selinger 2001-2007
</metadata>
<g transform="translate(0,468) scale(0.365625,-0.365625)"
fill="#000000" stroke="none">
<path d="M590 1265 l0 -15 -30 0 -30 0 0 -10 0 -10 -25 0 -25 0 0 10 0 10 -11
0 -10 0 -15 -14 -14 -15 0 -10 0 -11 -30 0 -30 0 0 -11 0 -10 -14 -15 -15 -14
-25 0 -26 0 0 -15 0 -15 -10 0 -10 0 0 -15 0 -15 -15 0 -15 0 0 -10 0 -10 -25
0 -25 0 0 -15 0 -15 -15 0 -15 0 0 -55 0 -55 -15 0 -15 0 0 -65 0 -65 15 0 15
0 0 -15 0 -15 25 0 25 0 0 -10 0 -10 55 0 55 0 0 -15 0 -15 55 0 55 0 0 15 0
15 25 0 25 0 0 10 0 10 25 0 25 0 0 -50 0 -50 -10 0 -10 0 0 -30 0 -30 -15 0
-15 0 0 -10 0 -10 -15 0 -15 0 0 -30 0 -30 -10 0 -10 0 0 -25 0 -25 50 0 50 0
0 15 0 15 30 0 30 0 0 -15 0 -15 -30 0 -30 0 0 -55 0 -55 -10 0 -10 0 0 -50 0
-50 -15 0 -15 0 0 -15 0 -15 -15 0 -15 0 0 -11 0 -10 -14 -15 -15 -14 -10 0
-11 0 0 -15 0 -15 15 0 15 0 0 -15 0 -15 -15 0 -15 0 0 15 0 15 -65 0 -65 0 0
-15 0 -15 -15 0 -15 0 0 -10 0 -10 -14 0 -14 0 -6 13 -6 12 -6 -12 -6 -13 -14
0 -14 0 0 -15 0 -15 -15 0 -15 0 0 -15 0 -15 15 0 15 0 0 -10 0 -10 -25 0 -25
0 0 -15 0 -15 80 0 80 0 0 15 0 15 25 0 25 0 0 -15 0 -15 15 0 15 0 0 25 0 25
-15 0 -15 0 0 15 0 15 15 0 15 0 0 15 0 15 50 0 50 0 0 25 0 25 15 0 15 0 0
25 0 25 15 0 15 0 0 -25 0 -25 -15 0 -15 0 0 -15 0 -15 40 0 40 0 0 15 0 15
-15 0 -15 0 0 40 0 40 30 0 30 0 0 -40 0 -40 10 0 10 0 0 40 0 40 15 0 15 0 0
15 0 15 -15 0 -15 0 0 25 0 25 -10 0 -10 0 0 15 0 15 25 0 25 0 0 10 0 10 -15
0 -15 0 0 30 0 30 -25 0 -25 0 0 10 0 10 15 0 15 0 0 15 0 15 40 0 40 0 0 -80
0 -80 10 0 10 0 0 -15 0 -15 15 0 15 0 0 -10 0 -10 -15 0 -15 0 0 -30 0 -30
-10 0 -10 0 0 -10 0 -10 25 0 25 0 0 -30 0 -30 -15 0 -15 0 0 15 0 15 -25 0
-25 0 0 -15 0 -15 15 0 15 0 0 -10 0 -10 40 0 40 0 0 25 0 25 10 0 10 0 0 -15
0 -15 15 0 15 0 0 -10 0 -10 55 0 55 0 0 -15 0 -15 40 0 40 0 0 15 0 15 10 0
10 0 0 -15 0 -15 30 0 30 0 0 -15 0 -15 10 0 10 0 0 -25 0 -25 30 0 30 0 0 15
0 15 -15 0 -15 0 0 25 0 25 -15 0 -15 0 0 15 0 15 -25 0 -25 0 0 10 0 10 -40
0 -40 0 0 -10 0 -10 -15 0 -15 0 0 10 0 10 -50 0 -50 0 0 15 0 15 -15 0 -15 0
0 15 0 15 -14 0 -14 0 -6 13 -6 12 -6 -12 -6 -13 -14 0 -14 0 0 25 0 25 25 0
25 0 0 15 0 15 -10 0 -10 0 0 25 0 25 -15 0 -15 0 0 15 0 15 -15 0 -15 0 0 65
0 65 15 0 15 0 0 -15 0 -15 25 0 25 0 0 15 0 15 15 0 15 0 0 15 0 15 -15 0
-15 0 0 25 0 25 -10 0 -10 0 0 25 0 25 -15 0 -15 0 0 40 0 40 -15 0 -15 0 0
15 0 15 15 0 15 0 0 -15 0 -15 25 0 25 0 0 15 0 15 -10 0 -10 0 0 15 0 15 -15
0 -15 0 0 10 0 10 25 0 25 0 0 -10 0 -10 30 0 30 0 0 -15 0 -15 25 0 25 0 0
-15 0 -15 40 0 40 0 0 15 0 15 40 0 40 0 0 15 0 15 11 0 10 0 15 14 14 15 0
10 0 11 15 0 15 0 0 15 0 15 15 0 15 0 0 40 0 40 -15 0 -15 0 0 10 0 10 -15 0
-15 0 0 26 0 25 -14 15 -15 14 -10 0 -11 0 0 30 0 30 15 0 15 0 0 10 0 10 -15
0 -15 0 0 15 0 15 -15 0 -15 0 0 15 0 15 -25 0 -25 0 0 25 0 25 -40 0 -40 0 0
15 0 15 -14 0 -14 0 -6 13 -6 12 -6 -12 -6 -13 -14 0 -14 0 0 10 0 10 -25 0
-25 0 0 15 0 15 -80 0 -80 0 0 -15z m84 -27 l6 -13 6 13 6 12 14 0 14 0 0 -10
0 -10 15 0 15 0 0 -15 0 -15 10 0 10 0 0 -15 0 -15 -25 0 -25 0 0 -10 0 -10
25 0 25 0 0 10 0 10 15 0 15 0 0 -10 0 -10 15 0 15 0 0 -15 0 -15 10 0 10 0 0
11 0 10 -14 15 -15 14 -10 0 -11 0 0 15 0 15 -15 0 -15 0 0 15 0 15 15 0 15 0
0 -15 0 -15 25 0 25 0 0 -15 0 -15 40 0 40 0 0 -10 0 -10 15 0 15 0 0 -15 0
-15 15 0 15 0 0 -15 0 -15 25 0 25 0 0 -10 0 -10 -25 0 -25 0 0 -15 0 -15 10
0 10 0 0 -25 0 -25 15 0 15 0 0 -15 0 -15 15 0 15 0 0 -15 0 -15 10 0 10 0 0
-25 0 -25 -10 0 -10 0 0 -15 0 -15 -15 0 -15 0 0 -10 0 -10 15 0 15 0 0 -15 0
-15 -15 0 -15 0 0 -15 0 -15 -14 0 -14 0 -6 -12 -6 -13 -6 13 -6 12 -39 0 -39
0 0 -10 0 -10 -30 0 -30 0 0 10 0 10 30 0 30 0 0 15 0 15 50 0 50 0 0 15 0 15
-10 0 -10 0 0 50 0 50 -30 0 -30 0 0 -10 0 -10 15 0 15 0 0 -40 0 -40 -40 0
-40 0 0 -15 0 -15 -25 0 -25 0 0 -15 0 -15 -15 0 -15 0 0 15 0 15 -55 0 -55 0
0 15 0 15 15 0 15 0 0 10 0 10 15 0 15 0 0 40 0 40 -15 0 -15 0 0 -25 0 -25
-15 0 -15 0 0 -15 0 -15 -25 0 -25 0 0 -10 0 -10 -14 0 -14 0 -6 13 -6 12 -6
-12 -6 -13 -14 0 -14 0 0 10 0 10 -15 0 -15 0 0 -10 0 -10 15 0 15 0 0 -15 0
-15 -25 0 -25 0 0 15 0 15 -15 0 -15 0 0 10 0 10 -51 0 -50 0 -15 -14 -14 -15
0 -10 0 -11 -15 0 -15 0 0 -15 0 -15 15 0 15 0 0 -10 0 -10 -15 0 -15 0 0 10
0 10 -15 0 -15 0 0 15 0 15 -10 0 -10 0 0 -15 0 -15 -15 0 -15 0 0 15 0 15 15
0 15 0 0 15 0 15 10 0 10 0 0 -15 0 -15 15 0 15 0 0 15 0 15 11 0 10 0 15 14
14 15 0 25 0 26 15 0 15 0 0 -15 0 -15 15 0 15 0 0 15 0 15 -15 0 -15 0 0 10
0 10 -11 0 -10 0 -15 -14 -14 -15 0 -25 0 -26 -30 0 -30 0 0 15 0 15 15 0 15
0 0 15 0 15 -15 0 -15 0 0 25 0 25 15 0 15 0 0 15 0 15 -25 0 -25 0 0 -55 0
-55 -15 0 -15 0 0 25 0 25 -15 0 -15 0 0 -50 0 -50 -25 0 -25 0 0 10 0 10 15
0 15 0 0 15 0 15 -15 0 -15 0 0 15 0 15 11 0 10 0 15 14 14 15 0 10 0 11 15 0
15 0 0 15 0 15 -25 0 -25 0 0 10 0 10 10 0 10 0 0 15 0 15 30 0 30 0 0 11 0
10 14 15 15 14 10 0 11 0 0 15 0 15 25 0 25 0 0 -15 0 -15 15 0 15 0 0 15 0
15 -15 0 -15 0 0 15 0 15 15 0 15 0 0 10 0 10 11 0 10 0 15 -14 14 -15 0 -10
0 -11 -10 0 -10 0 0 -25 0 -25 -30 0 -30 0 0 -15 0 -15 40 0 40 0 0 -14 0 -14
-12 -5 -13 -4 9 -9 9 -9 4 13 5 12 14 0 14 0 0 -10 0 -10 15 0 15 0 0 -15 0
-15 10 0 10 0 0 -15 0 -15 30 0 30 0 0 15 0 15 -15 0 -15 0 0 15 0 15 -25 0
-25 0 0 40 0 40 -30 0 -30 0 0 10 0 10 15 0 15 0 0 30 0 30 -15 0 -15 0 0 25
0 25 15 0 15 0 0 -15 0 -15 14 0 14 0 5 -12 4 -13 9 9 9 9 -12 4 -13 5 0 14 0
14 25 0 25 0 0 15 0 15 15 0 15 0 0 -15 0 -15 10 0 10 0 0 15 0 15 15 0 15 0
0 10 0 10 14 0 14 0 6 -12z m446 -383 l0 -25 -25 0 -25 0 0 10 0 10 10 0 10 0
0 15 0 15 15 0 15 0 0 -25z m-690 -40 l0 -15 10 0 10 0 0 15 0 15 15 0 15 0 0
-15 0 -15 -15 0 -15 0 0 -15 0 -15 -10 0 -10 0 0 15 0 15 -15 0 -15 0 0 -15 0
-15 -15 0 -15 0 0 15 0 15 15 0 15 0 0 15 0 15 15 0 15 0 0 -15z m160 -55 l0
-10 -15 0 -15 0 0 10 0 10 15 0 15 0 0 -10z m50 -25 l0 -15 15 0 15 0 0 -25 0
-25 10 0 10 0 0 -40 0 -40 15 0 15 0 0 -30 0 -30 15 0 15 0 0 -10 0 -10 -29 0
-29 0 -6 13 -6 12 -6 -12 -6 -13 -29 0 -29 0 0 10 0 10 -25 0 -25 0 0 30 0 30
15 0 15 0 0 25 0 25 10 0 10 0 0 25 0 25 -10 0 -10 0 0 15 0 15 10 0 10 0 0
15 0 15 15 0 15 0 0 -15z m-50 -80 l0 -15 -15 0 -15 0 0 -15 0 -15 -15 0 -15
0 0 15 0 15 15 0 15 0 0 15 0 15 15 0 15 0 0 -15z m-60 -91 l0 -25 -14 -15
-15 -14 -10 0 -11 0 0 10 0 10 15 0 15 0 0 30 0 30 10 0 10 0 0 -26z m60 -179
l0 -15 -15 0 -15 0 0 15 0 15 15 0 15 0 0 -15z m-30 -65 l0 -30 -15 0 -15 0 0
30 0 30 15 0 15 0 0 -30z m-240 -200 l0 -10 -15 0 -15 0 0 -26 0 -25 -14 -15
-15 -14 -35 0 -36 0 0 10 0 10 25 0 25 0 0 15 0 15 15 0 15 0 0 10 0 11 13 14
12 14 13 1 12 0 0 -10z m-110 -25 l0 -15 -10 0 -10 0 0 15 0 15 10 0 10 0 0
-15z"/>
<path d="M910 1135 l0 -15 10 0 10 0 0 15 0 15 -10 0 -10 0 0 -15z"/>
<path d="M770 1065 l0 -25 15 0 15 0 0 25 0 25 -15 0 -15 0 0 -25z"/>
<path d="M910 1080 l0 -10 10 0 10 0 0 -15 0 -15 15 0 15 0 0 15 0 15 -15 0
-15 0 0 10 0 10 -10 0 -10 0 0 -10z"/>
<path d="M290 1055 l0 -15 -10 0 -10 0 0 -15 0 -15 25 0 25 0 0 30 0 30 -15 0
-15 0 0 -15z"/>
<path d="M770 1000 l0 -10 -25 0 -25 0 0 -15 0 -15 25 0 25 0 0 15 0 15 30 0
30 0 0 10 0 10 -30 0 -30 0 0 -10z"/>
<path d="M480 945 l0 -15 15 0 15 0 0 15 0 15 -15 0 -15 0 0 -15z"/>
<path d="M670 945 l0 -15 10 0 10 0 0 15 0 15 -10 0 -10 0 0 -15z"/>
<path d="M530 895 l0 -15 15 0 15 0 0 15 0 15 -15 0 -15 0 0 -15z"/>
<path d="M640 575 l0 -15 15 0 15 0 0 15 0 15 -15 0 -15 0 0 -15z"/>
<path d="M480 95 l0 -15 -15 0 -15 0 0 -15 0 -15 -25 0 -25 0 0 15 0 15 -15 0
-15 0 0 -40 0 -40 15 0 15 0 0 15 0 15 40 0 40 0 0 -15 0 -15 15 0 15 0 0 25
0 25 -15 0 -15 0 0 15 0 15 25 0 25 0 0 15 0 15 -25 0 -25 0 0 -15z"/>
<path d="M560 55 l0 -25 15 0 15 0 0 -15 0 -15 65 0 65 0 0 15 0 15 -51 0 -50
0 -15 14 -14 15 0 10 0 11 -15 0 -15 0 0 -25z"/>
<path d="M690 65 l0 -15 30 0 30 0 0 15 0 15 -30 0 -30 0 0 -15z"/>
<path d="M830 15 l0 -15 10 0 10 0 0 15 0 15 -10 0 -10 0 0 -15z"/>
<path d="M910 15 l0 -15 40 0 40 0 0 15 0 15 -40 0 -40 0 0 -15z"/>
</g>
</svg>
