<?xml version="1.0" standalone="no"?>
<!DOCTYPE svg PUBLIC "-//W3C//DTD SVG 20010904//EN"
 "http://www.w3.org/TR/2001/REC-SVG-20010904/DTD/svg10.dtd">
<svg version="1.0" xmlns="http://www.w3.org/2000/svg"
 width="468pt" height="468pt" viewBox="0 0 468 468"
 preserveAspectRatio="xMidYMid meet">
<metadata>
Created by potrace 1.8, written by Peter Selinger 2001-2007
</metadata>
<g transform="translate(0,468) scale(0.365625,-0.365625)"
fill="#000000" stroke="none">
<path d="M580 1270 l0 -10 -60 0 -60 0 0 -10 0 -10 -30 0 -30 0 0 -10 0 -10
-28 0 -28 0 -14 -20 -14 -20 -16 0 -16 0 -14 -20 -14 -20 -13 0 -14 0 -44 -45
-45 -44 0 -14 0 -13 -20 -14 -20 -14 0 -16 0 -16 -20 -14 -20 -14 0 -28 0 -28
-10 0 -10 0 0 -20 0 -20 -10 0 -10 0 0 -30 0 -30 5 0 6 0 44 45 45 44 0 25 0
24 -12 5 -13 4 9 9 9 9 4 -12 5 -13 15 0 14 0 15 -14 14 -15 0 -15 0 -16 10 0
10 0 0 -60 0 -60 6 0 5 0 15 14 14 15 0 25 0 26 16 0 16 0 28 30 28 30 12 0
11 0 15 -14 14 -15 0 -15 0 -16 20 0 20 0 0 -20 0 -20 16 0 17 0 18 -21 18
-21 16 15 15 16 0 22 0 22 -21 18 -21 18 15 16 16 15 35 0 36 0 0 10 0 10 15
0 16 0 24 25 25 24 0 16 0 15 -10 0 -10 0 0 29 0 29 -12 5 -13 4 8 9 8 8 10
-14 9 -15 9 14 9 14 16 -16 16 -16 0 -15 0 -16 10 0 10 0 0 40 0 40 16 0 15 0
15 14 14 15 0 15 0 16 10 0 10 0 0 10 0 10 -30 0 -30 0 0 6 0 5 14 15 15 14
45 0 46 0 0 -30 0 -30 10 0 10 0 0 50 0 50 -70 0 -70 0 0 10 0 10 -20 0 -20 0
0 -10 0 -10 -20 0 -20 0 0 10 0 10 -30 0 -30 0 0 10 0 10 -10 0 -10 0 0 -10z"/>
<path d="M980 1170 l0 -10 10 0 10 0 0 10 0 10 -10 0 -10 0 0 -10z"/>
<path d="M800 1070 l0 -10 10 0 10 0 0 10 0 10 -10 0 -10 0 0 -10z"/>
<path d="M791 1024 l-13 -15 6 -6 5 -5 16 15 15 16 0 5 0 6 -7 0 -8 -1 -14
-15z"/>
<path d="M740 990 l0 -10 10 0 10 0 0 10 0 10 -10 0 -10 0 0 -10z"/>
<path d="M640 890 l0 -10 10 0 10 0 0 10 0 10 -10 0 -10 0 0 -10z"/>
<path d="M520 850 l0 -10 10 0 10 0 0 10 0 10 -10 0 -10 0 0 -10z"/>
<path d="M640 825 l0 -16 26 -26 25 -25 6 6 6 6 -21 19 -22 18 0 17 0 16 -10
0 -10 0 0 -15z"/>
<path d="M13 745 l-13 -14 0 -56 0 -55 10 0 10 0 0 40 0 40 10 0 10 0 0 30 0
30 -7 0 -8 -1 -12 -14z"/>
<path d="M400 730 l0 -10 10 0 10 0 0 -19 0 -19 13 -6 12 -6 -12 -6 -13 -6 0
-14 0 -15 25 -24 24 -25 6 0 5 0 0 20 0 20 -10 0 -10 0 0 35 0 36 -25 24 -24
25 -6 0 -5 0 0 -10z"/>
<path d="M660 730 l0 -10 20 0 20 0 0 10 0 10 -20 0 -20 0 0 -10z"/>
<path d="M580 690 l-25 -29 -17 -1 -18 0 0 -16 0 -15 14 -15 15 -14 25 0 26 0
0 20 0 20 10 0 10 0 0 40 0 40 -7 0 -8 -1 -25 -29z"/>
<path d="M380 694 l0 -5 15 -16 16 -15 6 5 5 6 -15 16 -16 15 -5 0 -6 0 0 -6z"/>
<path d="M720 650 l0 -10 10 0 10 0 0 10 0 10 -10 0 -10 0 0 -10z"/>
<path d="M760 634 l0 -5 14 -15 15 -14 5 0 6 0 0 20 0 20 -20 0 -20 0 0 -6z"/>
<path d="M640 614 l0 -5 15 -16 16 -15 6 5 5 6 -15 16 -16 15 -5 0 -6 0 0 -6z"/>
<path d="M820 605 l0 -16 25 -24 24 -25 15 0 14 0 5 13 4 12 22 -24 21 -24 8
8 7 8 -12 4 -13 5 0 15 0 14 -14 15 -15 14 -25 0 -26 0 0 10 0 10 -20 0 -20 0
0 -15z"/>
<path d="M760 490 l0 -10 -30 0 -30 0 0 -10 0 -10 -20 0 -20 0 0 -20 0 -20
-20 0 -20 0 0 -10 0 -10 -20 0 -20 0 0 -40 0 -40 10 0 10 0 0 -20 0 -20 40 0
40 0 0 10 0 10 50 0 50 0 0 -20 0 -20 20 0 20 0 0 -10 0 -10 25 0 26 0 34 35
35 34 0 15 0 14 13 6 12 6 -12 6 -13 6 0 19 0 19 -10 0 -10 0 0 20 0 20 -10 0
-10 0 0 30 0 30 -10 0 -10 0 0 -16 0 -15 -15 -15 -15 -15 -15 15 -15 15 0 15
0 16 -30 0 -30 0 0 -10z"/>
<path d="M60 390 l0 -10 10 0 10 0 0 10 0 10 -10 0 -10 0 0 -10z"/>
<path d="M1040 230 l0 -10 10 0 10 0 0 10 0 10 -10 0 -10 0 0 -10z"/>
<path d="M840 210 l0 -10 10 0 10 0 0 10 0 10 -10 0 -10 0 0 -10z"/>
<path d="M400 50 l0 -10 10 0 10 0 0 10 0 10 -10 0 -10 0 0 -10z"/>
<path d="M500 50 l0 -10 -20 0 -20 0 0 -10 0 -10 50 0 50 0 0 -10 0 -10 90 0
90 0 0 10 0 10 20 0 20 0 0 10 0 10 -99 0 -99 0 -6 13 -6 12 -6 -12 -6 -13
-19 0 -19 0 0 10 0 10 -10 0 -10 0 0 -10z"/>
</g>
</svg>
