<?xml version="1.0" standalone="no"?>
<!DOCTYPE svg PUBLIC "-//W3C//DTD SVG 20010904//EN"
 "http://www.w3.org/TR/2001/REC-SVG-20010904/DTD/svg10.dtd">
<svg version="1.0" xmlns="http://www.w3.org/2000/svg"
 width="468pt" height="468pt" viewBox="0 0 468 468"
 preserveAspectRatio="xMidYMid meet">
<metadata>
Created by potrace 1.8, written by Peter Selinger 2001-2007
</metadata>
<g transform="translate(0,468) scale(0.365625,-0.365625)"
fill="#000000" stroke="none">
<path d="M160 1270 l0 -10 10 0 10 0 0 -16 0 -15 52 -51 53 -51 -13 -5 -12 -4
0 -19 0 -19 -10 0 -10 0 0 -30 0 -30 -10 0 -10 0 0 -60 0 -60 -10 0 -10 0 0
-20 0 -20 10 0 10 0 0 -20 0 -20 -10 0 -10 0 0 -26 0 -27 22 -19 22 -19 -14
-9 -14 -9 7 -8 8 -7 9 13 8 14 16 -16 16 -16 0 -24 0 -25 -13 -6 -12 -6 13 -6
12 -6 0 -9 0 -9 -30 0 -30 0 0 -10 0 -10 25 0 26 0 34 -35 35 -34 0 -36 0 -35
10 0 10 0 0 -20 0 -20 20 0 20 0 0 -10 0 -10 -10 0 -10 0 0 -40 0 -40 -10 0
-10 0 0 -50 0 -50 -180 0 -180 0 0 -100 0 -100 640 0 640 0 0 100 0 100 -50 0
-50 0 0 20 0 20 -10 0 -10 0 0 18 0 18 -20 14 -20 14 0 18 0 18 -20 0 -20 0 0
10 0 10 15 0 16 0 34 -35 35 -34 0 -11 0 -11 14 -15 15 -14 15 0 16 0 0 6 0 6
-30 28 -30 28 0 12 0 11 -14 15 -15 14 -15 0 -16 0 0 10 0 10 -16 0 -15 0 -16
-15 -15 -15 31 -29 31 -29 0 -14 0 -14 20 -14 20 -14 0 -18 0 -18 -140 0 -140
0 0 20 0 20 40 0 40 0 0 -10 0 -10 10 0 10 0 0 30 0 30 8 0 8 0 14 -20 14 -20
8 0 8 0 0 30 0 30 -10 0 -10 0 0 16 0 15 -14 15 -15 14 -5 0 -6 0 0 -16 0 -17
-22 -19 -22 -19 14 -9 14 -9 -8 -8 -9 -8 -4 13 -5 12 -29 0 -29 0 0 -20 0 -20
-26 0 -27 0 -18 22 -19 21 -8 -8 -7 -8 13 -4 12 -5 0 -15 0 -14 -14 -15 -15
-14 -195 0 -196 0 0 30 0 30 20 0 20 0 0 -20 0 -20 30 0 30 0 0 10 0 10 -10 0
-10 0 0 10 0 10 30 0 30 0 0 -10 0 -10 20 0 20 0 0 -10 0 -10 10 0 10 0 0 20
0 20 30 0 30 0 0 -10 0 -10 36 0 35 0 15 14 14 15 0 11 0 12 30 28 30 28 0 16
0 16 10 0 10 0 0 20 0 20 10 0 10 0 0 30 0 30 10 0 10 0 0 -20 0 -20 10 0 10
0 0 40 0 40 10 0 10 0 0 30 0 30 -10 0 -10 0 0 -10 0 -10 -10 0 -10 0 0 19 0
19 -12 6 -13 6 13 6 12 6 0 9 0 9 -60 0 -60 0 0 -20 0 -20 -20 0 -20 0 0 -15
0 -16 -25 -24 -24 -25 -16 0 -15 0 0 20 0 20 -20 0 -20 0 0 10 0 10 -10 0 -10
0 0 -20 0 -20 -10 0 -10 0 0 -10 0 -10 19 0 19 0 5 13 4 12 8 -7 8 -8 -24 -21
-24 -22 13 -4 12 -5 0 -9 0 -9 -30 0 -30 0 0 10 0 10 -16 0 -15 0 -15 14 -14
15 0 13 0 14 20 14 20 14 0 18 0 18 30 0 30 0 0 10 0 10 16 0 15 0 15 14 14
15 0 15 0 16 10 0 10 0 0 50 0 50 10 0 10 0 0 20 0 20 10 0 10 0 0 20 0 20 -6
0 -5 0 -15 -14 -14 -15 0 -15 0 -16 -10 0 -10 0 0 -20 0 -20 -10 0 -10 0 0
-16 0 -15 -14 -15 -15 -14 -35 0 -36 0 0 10 0 10 -50 0 -50 0 0 10 0 10 -20 0
-20 0 0 25 0 26 35 34 34 35 16 0 15 0 0 10 0 10 19 0 19 0 5 -12 4 -13 9 9 9
9 -12 4 -13 5 0 59 0 59 -10 0 -10 0 0 25 0 26 -25 24 -24 25 -46 0 -45 0 0
-20 0 -20 10 0 10 0 0 -20 0 -20 10 0 10 0 0 -20 0 -20 10 0 10 0 0 28 0 28
-20 14 -20 14 0 8 0 8 16 0 15 0 15 -14 14 -15 0 -41 0 -41 17 -17 16 -17 5
13 4 12 9 0 9 0 0 -15 0 -16 -25 -25 -26 -25 -28 30 -29 31 -16 0 -16 0 0 20
0 20 -10 0 -10 0 0 -10 0 -10 -10 0 -10 0 0 20 0 20 -10 0 -10 0 0 -15 0 -16
45 -44 44 -45 26 0 25 0 0 -6 0 -5 -17 -17 -16 -17 -5 13 -4 12 -18 0 -18 0
-5 -12 -5 -13 -11 15 -10 14 -7 -6 -6 -7 18 -18 17 -18 5 13 4 12 9 0 9 0 0
-20 0 -20 -10 0 -10 0 0 -18 0 -18 -20 -14 -20 -14 0 -18 0 -18 -6 0 -5 0 -15
14 -14 15 0 22 0 22 -22 20 -23 20 13 4 12 5 0 19 0 19 -10 0 -10 0 0 20 0 20
10 0 10 0 0 -16 0 -15 14 -15 15 -14 5 0 6 0 0 18 0 18 -20 14 -20 14 0 58 0
58 10 0 10 0 0 20 0 20 10 0 10 0 0 18 0 18 20 14 20 14 0 16 0 16 20 14 20
14 0 28 0 28 -10 0 -10 0 0 20 0 20 -30 0 -30 0 0 -10 0 -10 16 0 15 0 17 -17
17 -16 -13 -5 -12 -4 0 -19 0 -19 -10 0 -10 0 0 10 0 10 -20 0 -20 0 0 9 0 9
13 5 12 4 -9 9 -9 9 -4 -12 -5 -13 -15 0 -15 0 -28 30 -28 30 -6 0 -6 0 0 -10z
m100 -80 l0 -10 20 0 20 0 0 -20 0 -20 -5 0 -6 0 -24 25 -25 24 0 6 0 5 10 0
10 0 0 -10z m200 -200 l0 -10 -10 0 -10 0 0 10 0 10 10 0 10 0 0 -10z m-120
-280 l0 -30 10 0 10 0 0 -36 0 -36 30 -28 30 -28 0 -16 0 -16 -30 0 -30 0 0
10 0 10 -20 0 -20 0 0 20 0 20 19 0 19 0 5 -12 4 -13 8 7 7 7 -15 16 -16 15
-25 0 -26 0 0 20 0 20 10 0 10 0 0 -10 0 -10 10 0 10 0 0 20 0 20 -20 0 -20 0
0 20 0 20 10 0 10 0 0 20 0 20 10 0 10 0 0 -30z m80 -60 l0 -30 -10 0 -10 0 0
30 0 30 10 0 10 0 0 -30z m100 14 l0 -15 -14 -15 -15 -14 -5 0 -6 0 0 15 0 16
13 14 12 14 8 1 7 0 0 -16z m300 -144 l0 -60 -10 0 -10 0 0 -20 0 -20 -10 0
-10 0 0 -20 0 -20 -10 0 -10 0 0 -20 0 -20 -10 0 -10 0 0 -15 0 -16 -27 -27
-27 -26 -4 12 -4 12 -28 0 -28 0 -5 13 -5 12 -11 -15 -10 -14 -8 8 -8 9 13 4
12 5 0 9 0 9 -20 0 -20 0 0 -20 0 -20 -30 0 -30 0 0 10 0 10 -16 0 -17 0 -19
22 -19 22 -9 -14 -9 -14 -8 7 -7 8 14 10 15 9 -15 11 -15 11 13 5 12 5 0 49 0
49 10 0 10 0 0 -10 0 -10 18 0 18 0 14 -20 14 -20 28 0 28 0 0 -20 0 -20 -16
0 -15 0 -15 -14 -14 -15 0 -25 0 -26 10 0 10 0 0 16 0 15 14 15 15 14 13 0 14
0 14 -20 14 -20 28 0 28 0 0 36 0 35 14 15 15 14 15 0 16 0 0 10 0 10 16 0 15
0 15 14 14 15 0 5 0 6 -20 0 -20 0 0 -10 0 -10 -20 0 -20 0 0 -10 0 -10 -19 0
-19 0 -5 -12 -4 -13 -9 9 -9 9 13 4 12 5 0 29 0 29 9 0 9 0 4 -12 4 -12 37 37
37 36 0 16 0 15 30 0 30 0 0 -60z m-420 -70 l0 -30 -6 0 -5 0 -15 14 -14 15 0
15 0 16 20 0 20 0 0 -30z m220 -39 l0 -49 13 -5 12 -4 -7 -8 -7 -7 -25 25 -26
26 0 21 0 21 13 14 12 14 8 1 7 0 0 -49z"/>
<path d="M580 1274 l0 -5 14 -15 15 -14 25 0 26 0 0 -5 0 -6 -25 -25 -26 -26
-18 21 -18 21 -17 0 -16 0 0 10 0 10 -20 0 -20 0 0 -10 0 -10 20 0 20 0 0 -20
0 -20 20 0 20 0 0 -10 0 -10 20 0 20 0 0 -10 0 -10 -20 0 -20 0 0 -19 0 -19
-12 -6 -13 -6 13 -6 12 -6 0 -9 0 -9 -19 0 -19 0 -5 13 -4 12 -9 -9 -9 -9 13
-4 12 -5 0 -14 0 -15 26 -26 26 -26 9 14 9 14 11 -15 11 -15 5 13 5 12 19 0
19 0 0 20 0 20 -9 0 -9 0 -5 -12 -4 -13 -8 7 -8 8 21 19 22 18 0 27 0 26 50 0
50 0 0 -10 0 -10 20 0 20 0 0 -10 0 -10 20 0 20 0 0 10 0 10 -18 0 -18 0 -14
20 -14 20 -18 0 -18 0 0 10 0 10 -30 0 -30 0 0 20 0 20 -10 0 -10 0 0 10 0 10
19 0 19 0 6 13 6 12 6 -12 6 -13 19 0 19 0 0 -10 0 -10 20 0 20 0 0 -10 0 -10
20 0 20 0 0 20 0 20 -30 0 -30 0 0 10 0 10 30 0 30 0 0 -10 0 -10 29 0 29 0 5
-12 4 -13 8 7 7 7 -25 25 -26 26 -16 0 -15 0 0 10 0 10 -59 0 -59 0 -6 -12 -6
-13 -6 13 -6 12 -19 0 -19 0 0 -10 0 -10 -40 0 -40 0 0 10 0 10 -10 0 -10 0 0
-6z m100 -144 l0 -10 -10 0 -10 0 0 -20 0 -20 -10 0 -10 0 0 30 0 30 20 0 20
0 0 -10z m-100 -100 l0 -10 -10 0 -10 0 0 10 0 10 10 0 10 0 0 -10z"/>
<path d="M960 1260 l0 -20 20 0 20 0 0 20 0 20 -20 0 -20 0 0 -20z"/>
<path d="M1020 1260 l0 -20 10 0 10 0 0 20 0 20 -10 0 -10 0 0 -20z"/>
<path d="M1060 1270 l0 -10 10 0 10 0 0 10 0 10 -10 0 -10 0 0 -10z"/>
<path d="M1100 1270 l0 -10 20 0 20 0 0 10 0 10 -20 0 -20 0 0 -10z"/>
<path d="M1220 1270 l0 -10 10 0 10 0 0 10 0 10 -10 0 -10 0 0 -10z"/>
<path d="M400 1252 l0 -8 20 -14 20 -14 0 -18 0 -18 20 0 20 0 0 6 0 7 -22 20
-23 20 13 4 12 5 0 9 0 9 -30 0 -30 0 0 -8z"/>
<path d="M1173 1245 l-13 -14 0 -33 0 -34 -20 -14 -20 -14 0 -8 0 -8 18 0 18
0 14 -20 14 -20 28 0 28 0 0 10 0 10 -20 0 -20 0 0 20 0 20 -20 0 -20 0 0 10
0 10 10 0 10 0 0 30 0 30 10 0 10 0 0 20 0 20 -7 0 -8 -1 -12 -14z"/>
<path d="M960 1210 l0 -10 60 0 60 0 0 10 0 10 -60 0 -60 0 0 -10z"/>
<path d="M340 1150 l0 -10 20 0 20 0 0 10 0 10 -20 0 -20 0 0 -10z"/>
<path d="M400 1155 l0 -6 25 -24 24 -25 16 0 15 0 0 -10 0 -10 10 0 10 0 0 26
0 25 -17 17 -16 17 -5 -13 -4 -12 -19 0 -19 0 0 10 0 10 -10 0 -10 0 0 -5z
m80 -25 l0 -10 -10 0 -10 0 0 10 0 10 10 0 10 0 0 -10z"/>
<path d="M880 1150 l0 -10 10 0 10 0 0 10 0 10 -10 0 -10 0 0 -10z"/>
<path d="M1060 1130 l0 -10 20 0 20 0 0 10 0 10 -20 0 -20 0 0 -10z"/>
<path d="M960 1110 l0 -10 -30 0 -30 0 0 -19 0 -19 -12 -5 -13 -4 7 -8 8 -8
19 21 18 22 27 0 26 0 0 20 0 20 -10 0 -10 0 0 -10z"/>
<path d="M1000 1110 l0 -10 20 0 20 0 0 10 0 10 -20 0 -20 0 0 -10z"/>
<path d="M1060 1090 l0 -10 10 0 10 0 0 10 0 10 -10 0 -10 0 0 -10z"/>
<path d="M1100 1050 l0 -10 10 0 10 0 0 10 0 10 -10 0 -10 0 0 -10z"/>
<path d="M711 1024 l-13 -15 7 -7 8 -7 4 13 5 12 18 0 18 0 4 -12 5 -13 17 18
18 18 -6 7 -7 6 -10 -14 -11 -15 -5 13 -5 12 -16 0 -17 -1 -14 -15z"/>
<path d="M840 1030 l0 -10 10 0 10 0 0 10 0 10 -10 0 -10 0 0 -10z"/>
<path d="M920 1030 l0 -10 -20 0 -20 0 0 -10 0 -10 -30 0 -30 0 0 -20 0 -20
-10 0 -10 0 0 10 0 10 -10 0 -10 0 0 -16 0 -16 -40 -38 -40 -38 0 -16 0 -16
10 0 10 0 0 10 0 10 19 0 19 0 5 13 5 12 11 -15 11 -15 11 15 11 15 5 -12 5
-13 37 0 37 0 14 20 14 20 14 0 13 0 15 14 14 15 0 55 0 56 -9 0 -9 0 -6 -12
-6 -13 -6 13 -6 12 -9 0 -9 0 0 -10z m40 -66 l0 -15 -14 -15 -15 -14 -5 0 -6
0 0 20 0 20 -10 0 -10 0 0 10 0 10 30 0 30 0 0 -16z m-94 -18 l14 -15 0 -15 0
-16 -20 0 -20 0 0 30 0 30 6 0 5 0 15 -14z m-66 -46 l0 -20 -10 0 -10 0 0 20
0 20 10 0 10 0 0 -20z"/>
<path d="M1000 1030 l0 -10 10 0 10 0 0 10 0 10 -10 0 -10 0 0 -10z"/>
<path d="M1060 1030 l0 -10 10 0 10 0 0 10 0 10 -10 0 -10 0 0 -10z"/>
<path d="M1140 1030 l0 -10 10 0 10 0 0 10 0 10 -10 0 -10 0 0 -10z"/>
<path d="M1180 1030 l0 -10 10 0 10 0 0 -20 0 -20 10 0 10 0 0 -50 0 -50 10 0
10 0 0 -20 0 -20 10 0 10 0 0 49 0 49 -12 6 -13 6 13 6 12 6 0 39 0 39 -10 0
-10 0 0 -10 0 -10 -20 0 -20 0 0 10 0 10 -10 0 -10 0 0 -10z"/>
<path d="M1090 980 l-14 -20 -14 0 -13 0 -15 -14 -14 -15 0 -25 0 -26 -9 0 -9
0 -4 12 -5 13 -17 -18 -18 -18 21 -18 21 -18 0 -17 0 -16 20 0 20 0 0 -10 0
-10 40 0 40 0 0 -26 0 -25 14 -15 15 -14 15 0 16 0 0 10 0 10 -10 0 -10 0 0
39 0 39 -12 5 -13 5 15 11 14 10 -8 8 -9 8 -4 -12 -5 -13 -29 0 -29 0 0 10 0
10 -20 0 -20 0 0 20 0 20 20 0 20 0 0 10 0 10 -20 0 -20 0 0 20 0 20 20 0 20
0 0 10 0 10 20 0 20 0 0 20 0 20 -8 0 -8 0 -14 -20z"/>
<path d="M40 910 l0 -10 10 0 10 0 0 10 0 10 -10 0 -10 0 0 -10z"/>
<path d="M540 911 l0 -9 13 -5 12 -5 -14 -10 -14 -10 26 -26 26 -26 16 0 15 0
0 10 0 10 -10 0 -10 0 0 15 0 16 -25 24 -24 25 -6 0 -5 0 0 -9z m40 -41 l0
-10 -10 0 -10 0 0 10 0 10 10 0 10 0 0 -10z"/>
<path d="M120 870 l0 -10 10 0 10 0 0 10 0 10 -10 0 -10 0 0 -10z"/>
<path d="M160 830 l0 -10 10 0 10 0 0 10 0 10 -10 0 -10 0 0 -10z"/>
<path d="M1200 835 l0 -6 26 -26 25 -25 6 5 5 6 -25 25 -26 26 -6 0 -5 0 0 -5z"/>
<path d="M920 812 l0 -8 20 -14 20 -14 0 -14 0 -13 14 -15 15 -14 13 0 14 0
14 -20 14 -20 28 0 28 0 0 5 0 6 -25 24 -24 25 -36 0 -35 0 0 15 0 16 -25 24
-24 25 -6 0 -5 0 0 -8z"/>
<path d="M700 790 l0 -10 20 0 20 0 0 -20 0 -20 19 0 19 0 5 -12 5 -13 12 15
12 15 5 -12 5 -13 18 0 18 0 5 -12 5 -13 10 14 10 15 30 -32 30 -32 26 0 26 0
0 6 0 5 -16 16 -16 16 -8 -13 -8 -14 -30 32 -30 32 -16 0 -16 0 0 10 0 10 -19
0 -19 0 -5 13 -5 12 -12 -15 -12 -15 -5 13 -5 12 -19 0 -19 0 0 10 0 10 -20 0
-20 0 0 -10z"/>
<path d="M1240 750 l0 -10 10 0 10 0 0 10 0 10 -10 0 -10 0 0 -10z"/>
<path d="M40 730 l0 -10 40 0 40 0 0 10 0 10 -40 0 -40 0 0 -10z"/>
<path d="M140 730 l0 -10 10 0 10 0 0 10 0 10 -10 0 -10 0 0 -10z"/>
<path d="M180 730 l0 -10 10 0 10 0 0 10 0 10 -10 0 -10 0 0 -10z"/>
<path d="M1220 700 l0 -20 6 0 5 0 15 14 14 15 0 5 0 6 -20 0 -20 0 0 -20z"/>
<path d="M660 670 l0 -10 10 0 10 0 0 10 0 10 -10 0 -10 0 0 -10z"/>
<path d="M1140 670 l0 -10 10 0 10 0 0 10 0 10 -10 0 -10 0 0 -10z"/>
<path d="M180 650 l0 -10 10 0 10 0 0 10 0 10 -10 0 -10 0 0 -10z"/>
<path d="M100 630 l0 -10 10 0 10 0 0 10 0 10 -10 0 -10 0 0 -10z"/>
<path d="M700 630 l0 -10 10 0 10 0 0 10 0 10 -10 0 -10 0 0 -10z"/>
<path d="M880 630 l0 -10 10 0 10 0 0 10 0 10 -10 0 -10 0 0 -10z"/>
<path d="M920 630 l0 -10 10 0 10 0 0 10 0 10 -10 0 -10 0 0 -10z"/>
<path d="M980 630 l0 -10 10 0 10 0 0 10 0 10 -10 0 -10 0 0 -10z"/>
<path d="M1160 630 l0 -10 10 0 10 0 0 10 0 10 -10 0 -10 0 0 -10z"/>
<path d="M600 600 l0 -20 20 0 20 0 0 10 0 10 20 0 20 0 0 10 0 10 -40 0 -40
0 0 -20z"/>
<path d="M1040 610 l0 -10 19 0 19 0 5 -12 4 -13 8 7 7 7 -15 16 -16 15 -15 0
-16 0 0 -10z"/>
<path d="M130 580 l-14 -20 -24 0 -23 0 -15 -14 -14 -15 0 -5 0 -6 20 0 20 0
0 10 0 10 15 0 16 0 24 25 25 24 0 6 0 5 -8 0 -8 0 -14 -20z"/>
<path d="M180 590 l0 -10 10 0 10 0 0 10 0 10 -10 0 -10 0 0 -10z"/>
<path d="M651 564 l-13 -15 6 -6 5 -5 16 15 15 16 0 5 0 6 -7 0 -8 -1 -14 -15z"/>
<path d="M1240 570 l0 -10 10 0 10 0 0 10 0 10 -10 0 -10 0 0 -10z"/>
<path d="M1080 554 l0 -5 14 -15 15 -14 5 0 6 0 0 20 0 20 -20 0 -20 0 0 -6z"/>
<path d="M500 530 l0 -10 10 0 10 0 0 10 0 10 -10 0 -10 0 0 -10z"/>
<path d="M1200 520 l0 -20 9 0 9 0 5 13 4 12 8 -7 7 -7 -18 -18 -17 -18 -5 13
-4 12 -18 0 -18 0 -5 13 -4 12 -9 -9 -9 -9 13 -4 12 -5 0 -9 0 -9 -20 0 -20 0
0 -20 0 -20 -30 0 -30 0 0 -10 0 -10 -30 0 -30 0 0 -9 0 -9 13 -5 12 -4 -9 -9
-9 -9 -4 13 -5 12 -29 0 -29 0 0 -10 0 -10 26 0 27 0 18 -21 18 -21 26 26 25
25 0 16 0 15 16 0 17 0 18 -22 19 -21 8 8 7 8 -12 4 -13 5 0 15 0 14 14 15 15
14 14 0 15 0 4 -12 5 -13 16 17 17 17 0 15 0 16 10 0 10 0 0 20 0 20 -30 0
-30 0 0 -20z"/>
<path d="M920 510 l0 -10 10 0 10 0 0 10 0 10 -10 0 -10 0 0 -10z"/>
<path d="M980 510 l0 -10 10 0 10 0 0 -10 0 -10 -20 0 -20 0 0 -20 0 -20 -10
0 -10 0 0 -10 0 -10 26 0 25 0 15 14 14 15 0 35 0 36 -20 0 -20 0 0 -10z m20
-60 l0 -10 -10 0 -10 0 0 10 0 10 10 0 10 0 0 -10z"/>
<path d="M900 450 l0 -10 10 0 10 0 0 10 0 10 -10 0 -10 0 0 -10z"/>
<path d="M840 390 l0 -10 10 0 10 0 0 10 0 10 -10 0 -10 0 0 -10z"/>
<path d="M900 390 l0 -10 10 0 10 0 0 10 0 10 -10 0 -10 0 0 -10z"/>
<path d="M920 350 l0 -10 10 0 10 0 0 10 0 10 -10 0 -10 0 0 -10z"/>
</g>
</svg>
