<?xml version="1.0" standalone="no"?>
<!DOCTYPE svg PUBLIC "-//W3C//DTD SVG 20010904//EN"
 "http://www.w3.org/TR/2001/REC-SVG-20010904/DTD/svg10.dtd">
<svg version="1.0" xmlns="http://www.w3.org/2000/svg"
 width="468pt" height="468pt" viewBox="0 0 468 468"
 preserveAspectRatio="xMidYMid meet">
<metadata>
Created by potrace 1.8, written by Peter Selinger 2001-2007
</metadata>
<g transform="translate(0,468) scale(0.365625,-0.365625)"
fill="#000000" stroke="none">
<path d="M0 640 l0 -640 640 0 640 0 0 640 0 640 -640 0 -640 0 0 -640z m400
495 l0 -15 -135 0 -135 0 0 15 0 15 135 0 135 0 0 -15z m750 -135 l0 -150 -30
0 -30 0 0 26 0 25 -14 15 -15 14 -10 0 -11 0 0 30 0 30 -11 0 -10 0 -15 14
-14 15 0 10 0 11 -15 0 -15 0 0 15 0 15 -40 0 -40 0 0 10 0 10 -105 0 -105 0
0 -10 0 -10 -30 0 -30 0 0 -15 0 -15 -10 0 -10 0 0 -15 0 -15 -15 0 -15 0 0
-10 0 -10 -40 0 -40 0 0 50 0 50 15 0 15 0 0 15 0 15 10 0 10 0 0 15 0 15 310
0 310 0 0 -150z m-750 65 l0 -25 -135 0 -135 0 0 25 0 25 135 0 135 0 0 -25z
m0 -80 l0 -25 -135 0 -135 0 0 25 0 25 135 0 135 0 0 -25z m560 -50 l0 -25 15
0 15 0 0 -30 0 -30 -15 0 -15 0 0 -50 0 -50 -15 0 -15 0 0 -40 0 -40 -10 0
-10 0 0 -15 0 -15 -30 0 -30 0 0 -15 0 -15 30 0 30 0 0 -25 0 -25 10 0 10 0 0
-15 0 -15 -25 0 -25 0 0 30 0 30 -15 0 -15 0 0 10 0 10 -25 0 -25 0 0 -25 0
-25 15 0 15 0 0 -40 0 -40 -30 0 -30 0 0 40 0 40 -10 0 -10 0 0 25 0 25 10 0
10 0 0 15 0 15 -10 0 -10 0 0 25 0 25 -40 0 -40 0 0 -10 0 -10 25 0 25 0 0
-15 0 -15 -15 0 -15 0 0 -15 0 -15 -25 0 -25 0 0 -10 0 -10 -25 0 -25 0 0 50
0 50 -15 0 -15 0 0 70 0 70 -15 0 -15 0 0 40 0 40 15 0 15 0 0 10 0 10 40 0
40 0 0 15 0 15 160 0 160 0 0 -25z m-524 -19 l14 -15 0 -10 0 -11 -160 0 -160
0 0 25 0 25 146 0 145 0 15 -14z m14 -76 l0 -10 15 0 15 0 0 -15 0 -15 -175 0
-175 0 0 25 0 25 160 0 160 0 0 -10z m590 -25 l0 -15 15 0 15 0 0 -15 0 -15
25 0 25 0 0 -10 0 -10 15 0 15 0 0 -15 0 -15 -15 0 -15 0 0 15 0 15 -25 0 -25
0 0 10 0 10 -30 0 -30 0 0 30 0 30 15 0 15 0 0 -15z m-524 -59 l14 -15 0 -10
0 -11 -200 0 -200 0 0 25 0 25 186 0 185 0 15 -14z m14 -106 l0 -40 -200 0
-200 0 0 40 0 40 200 0 200 0 0 -40z m546 26 l14 -15 0 -10 0 -11 15 0 15 0 0
-15 0 -15 15 0 15 0 0 -50 0 -50 -15 0 -15 0 0 10 0 10 -15 0 -15 0 0 30 0 30
-25 0 -25 0 0 10 0 10 -15 0 -15 0 0 40 0 40 26 0 25 0 15 -14z m-116 -21 l0
-15 -15 0 -15 0 0 15 0 15 15 0 15 0 0 -15z m-430 -95 l0 -30 -200 0 -200 0 0
30 0 30 200 0 200 0 0 -30z m190 -15 l0 -15 15 0 15 0 0 -10 0 -10 -30 0 -30
0 0 -15 0 -15 -10 0 -10 0 0 25 0 25 10 0 10 0 0 15 0 15 15 0 15 0 0 -15z
m320 -10 l0 -25 15 0 15 0 0 -15 0 -15 10 0 10 0 0 -15 0 -15 15 0 15 0 0 -10
0 -10 15 0 15 0 0 -135 0 -135 -15 0 -15 0 0 25 0 25 -15 0 -15 0 0 30 0 30
-10 0 -10 0 0 25 0 25 -15 0 -15 0 0 15 0 15 -15 0 -15 0 0 25 0 25 -10 0 -10
0 0 15 0 15 -15 0 -15 0 0 25 0 25 15 0 15 0 0 -11 0 -10 14 -15 15 -14 10 0
11 0 0 25 0 25 -15 0 -15 0 0 40 0 40 15 0 15 0 0 -25z m-430 -55 l0 -30 -240
0 -240 0 0 30 0 30 240 0 240 0 0 -30z m0 -65 l0 -15 -10 0 -10 0 0 -15 0 -15
-230 0 -230 0 0 30 0 30 240 0 240 0 0 -15z m110 0 l0 -15 -15 0 -15 0 0 -15
0 -15 -10 0 -10 0 0 -120 0 -120 -30 0 -30 0 0 110 0 110 15 0 15 0 0 10 0 10
15 0 15 0 0 15 0 15 10 0 10 0 0 15 0 15 15 0 15 0 0 -15z m160 0 l0 -15 25 0
25 0 0 -15 0 -15 15 0 15 0 0 -40 0 -40 11 0 10 0 15 -14 14 -15 0 -25 0 -26
15 0 15 0 0 -10 0 -10 15 0 15 0 0 -30 0 -30 -40 0 -40 0 0 40 0 40 -15 0 -15
0 0 30 0 30 -15 0 -15 0 0 25 0 25 -10 0 -10 0 0 25 0 25 -30 0 -30 0 0 -25 0
-25 15 0 15 0 0 -40 0 -40 15 0 15 0 0 -25 0 -25 10 0 10 0 0 -30 0 -30 -65 0
-65 0 0 15 0 15 15 0 15 0 0 15 0 15 10 0 10 0 0 65 0 65 -10 0 -10 0 0 25 0
25 -15 0 -15 0 0 30 0 30 40 0 40 0 0 -15z m-320 -95 l0 -30 -215 0 -215 0 0
30 0 30 215 0 215 0 0 -30z m190 0 l0 -30 10 0 10 0 0 -80 0 -80 -25 0 -25 0
0 110 0 110 15 0 15 0 0 -30z m-190 -90 l0 -40 -215 0 -215 0 0 40 0 40 215 0
215 0 0 -40z m-30 -85 l0 -15 -200 0 -200 0 0 15 0 15 200 0 200 0 0 -15z"/>
<path d="M670 920 l0 -10 -30 0 -30 0 0 -15 0 -15 -10 0 -10 0 0 -25 0 -25 10
0 10 0 0 -15 0 -15 15 0 15 0 0 -15 0 -15 -15 0 -15 0 0 -10 0 -10 70 0 70 0
0 -15 0 -15 25 0 25 0 0 -15 0 -15 15 0 15 0 0 15 0 15 -15 0 -15 0 0 15 0 15
40 0 40 0 0 10 0 10 -15 0 -15 0 0 30 0 30 -10 0 -10 0 0 -15 0 -15 -30 0 -30
0 0 15 0 15 15 0 15 0 0 10 0 10 15 0 15 0 0 40 0 40 -80 0 -80 0 0 -10z m80
-55 l0 -15 -15 0 -15 0 0 15 0 15 15 0 15 0 0 -15z"/>
</g>
</svg>
