<?xml version="1.0" standalone="no"?>
<!DOCTYPE svg PUBLIC "-//W3C//DTD SVG 20010904//EN"
 "http://www.w3.org/TR/2001/REC-SVG-20010904/DTD/svg10.dtd">
<svg version="1.0" xmlns="http://www.w3.org/2000/svg"
 width="468pt" height="468pt" viewBox="0 0 468 468"
 preserveAspectRatio="xMidYMid meet">
<metadata>
Created by potrace 1.8, written by Peter Selinger 2001-2007
</metadata>
<g transform="translate(0,468) scale(0.365625,-0.365625)"
fill="#000000" stroke="none">
<path d="M0 640 l0 -640 640 0 640 0 0 640 0 640 -640 0 -640 0 0 -640z m1260
185 l0 -435 -620 0 -620 0 0 435 0 435 620 0 620 0 0 -435z"/>
<path d="M50 820 l0 -410 590 0 590 0 0 410 0 410 -590 0 -590 0 0 -410z m60
380 l0 -10 14 0 14 0 5 13 5 12 12 -15 12 -15 5 13 5 12 13 0 13 0 5 -12 5
-13 11 15 11 15 11 -15 11 -15 5 13 5 12 13 0 13 0 5 -12 5 -13 11 15 10 14 7
-7 7 -7 -21 -19 -22 -18 0 -11 0 -10 13 -5 12 -5 -15 -12 -15 -12 13 -5 12 -5
0 -13 0 -13 -12 -5 -13 -5 15 -11 15 -11 -15 -11 -15 -11 13 -5 12 -5 0 -13 0
-13 -12 -5 -13 -5 15 -12 15 -12 -12 -5 -13 -5 0 -10 0 -11 22 -18 21 -19 -7
-7 -7 -7 -10 14 -11 15 -5 -12 -5 -13 -13 0 -13 0 -5 13 -4 12 -23 -25 -23
-25 -4 13 -5 12 -10 0 -9 0 -15 -14 -14 -15 0 -6 0 -6 14 -15 15 -14 6 0 6 0
15 14 14 15 0 10 0 11 420 0 420 0 0 6 0 5 -16 16 -16 16 -10 -14 -10 -14 -5
13 -5 12 -13 0 -13 0 -5 -12 -4 -13 -9 8 -8 8 14 10 15 11 -12 5 -13 5 0 13 0
13 13 5 12 5 -15 12 -15 12 13 5 12 5 0 13 0 13 -12 5 -13 5 15 11 15 11 -15
11 -15 11 13 5 12 5 0 13 0 13 -12 5 -13 5 15 12 15 12 -12 5 -13 5 0 13 0 13
13 5 12 5 -15 11 -14 10 8 8 9 8 4 -12 5 -13 13 0 13 0 5 13 5 12 11 -15 11
-15 11 15 11 15 5 -12 5 -13 13 0 13 0 5 13 5 12 12 -15 12 -15 5 13 5 12 13
0 13 0 5 -12 5 -13 11 15 10 14 8 -7 7 -8 -14 -10 -15 -11 13 -5 12 -5 0 -13
0 -13 -12 -5 -13 -5 15 -12 15 -12 -12 -5 -13 -5 0 -13 0 -13 13 -5 12 -5 -15
-11 -15 -11 15 -11 15 -11 -12 -5 -13 -5 0 -13 0 -13 13 -5 12 -5 -15 -12 -15
-12 13 -5 12 -5 0 -13 0 -13 -12 -5 -13 -5 15 -11 15 -11 -15 -11 -15 -11 13
-5 12 -5 0 -13 0 -13 -13 -5 -12 -5 15 -12 15 -12 -12 -5 -13 -5 0 -13 0 -13
13 -5 12 -5 -15 -11 -15 -11 15 -11 15 -11 -12 -5 -13 -5 0 -13 0 -13 13 -5
12 -5 -15 -12 -15 -12 13 -5 12 -5 0 -13 0 -13 -12 -5 -13 -5 15 -11 15 -11
-15 -11 -15 -11 13 -5 12 -5 0 -13 0 -13 -12 -5 -13 -5 15 -12 15 -12 -12 -5
-13 -5 0 -14 0 -14 -10 0 -10 0 0 15 0 15 -15 0 -15 0 0 -15 0 -15 -10 0 -10
0 0 11 0 10 -14 15 -15 14 -6 0 -6 0 -15 -14 -14 -15 0 -10 0 -11 -10 0 -10 0
0 11 0 10 -14 15 -15 14 -6 0 -6 0 -15 -14 -14 -15 0 -10 0 -11 -10 0 -10 0 0
10 0 11 25 24 24 25 10 0 9 0 4 -12 5 -13 16 17 17 17 0 10 0 11 10 0 10 0 0
-15 0 -15 15 0 15 0 0 11 0 10 17 17 16 17 5 -13 4 -12 10 0 9 0 16 16 16 16
-14 10 -14 10 13 5 12 5 0 10 0 9 -14 15 -15 14 -6 0 -6 0 -15 14 -14 15 0 9
0 10 12 5 13 5 -14 10 -14 10 16 16 16 16 10 0 11 0 0 15 0 15 -14 0 -14 0 -6
13 -6 12 -6 -12 -6 -13 -468 0 -468 0 -4 12 -5 13 -16 -17 -17 -17 0 -6 0 -6
25 -24 24 -25 11 0 10 0 0 -10 0 -10 -15 0 -15 0 0 -15 0 -15 15 0 15 0 0 -10
0 -10 -11 0 -10 0 -15 -14 -14 -15 0 -10 0 -11 10 0 10 0 0 15 0 15 15 0 15 0
0 -15 0 -15 -10 0 -11 0 -27 -27 -26 -27 12 -4 12 -4 0 -10 0 -9 14 -15 15
-14 6 0 6 0 15 14 14 15 0 10 0 11 -25 0 -25 0 0 10 0 10 15 0 15 0 0 20 0 20
10 0 10 0 0 23 0 23 20 14 20 14 0 13 0 13 14 0 14 0 5 13 5 12 12 -15 12 -15
5 13 5 12 13 0 13 0 5 -12 5 -13 11 15 10 14 8 -8 8 -9 -12 -4 -13 -5 0 -13 0
-13 13 -6 12 -6 -12 -6 -13 -6 0 -24 0 -24 -10 0 -10 0 0 -20 0 -20 10 0 10 0
0 20 0 20 10 0 10 0 0 21 0 20 14 15 15 14 10 0 11 0 0 15 0 15 -15 0 -15 0 0
10 0 10 14 0 14 0 5 -12 5 -13 12 15 12 15 5 -12 5 -13 13 0 13 0 5 13 4 12 9
-9 9 -9 -12 -4 -13 -5 0 -14 0 -14 10 0 10 0 0 -20 0 -20 -10 0 -10 0 0 -60 0
-60 -15 0 -15 0 0 -20 0 -20 -35 0 -35 0 0 10 0 10 -45 0 -45 0 0 10 0 10 -55
0 -55 0 0 -6 0 -5 17 -17 16 -17 5 13 4 12 13 0 13 0 5 -12 5 -13 11 15 10 14
8 -8 8 -9 -12 -4 -13 -5 0 -14 0 -14 -10 0 -10 0 0 15 0 15 -15 0 -15 0 0 -15
0 -15 -10 0 -10 0 0 15 0 15 -10 0 -10 0 0 -15 0 -15 -10 0 -10 0 0 15 0 15
-15 0 -15 0 0 -15 0 -15 -10 0 -10 0 0 11 0 10 -14 15 -15 14 -6 0 -6 0 -15
-14 -14 -15 0 -10 0 -11 -10 0 -10 0 0 14 0 14 12 5 13 5 -15 12 -15 12 13 5
12 5 0 13 0 13 -12 5 -13 5 15 11 15 11 -15 11 -15 11 13 5 12 5 0 13 0 13
-12 5 -13 5 15 12 15 12 -12 5 -13 5 0 13 0 13 12 5 13 5 -15 11 -15 11 15 11
15 11 -12 5 -13 5 0 13 0 13 13 5 12 5 -15 12 -15 12 12 5 13 5 0 13 0 13 -12
5 -13 5 15 11 15 11 -15 11 -15 11 13 5 12 5 0 13 0 13 -12 5 -13 5 15 12 15
12 -12 5 -13 5 0 13 0 13 13 5 12 5 -15 11 -15 11 15 11 15 11 -12 5 -13 5 0
13 0 13 13 5 12 5 -15 12 -15 12 13 5 12 5 0 13 0 13 -12 4 -12 4 14 17 15 16
8 1 7 0 0 -10z m280 0 l0 -10 -10 0 -10 0 0 10 0 10 10 0 10 0 0 -10z m40 0
l0 -10 -10 0 -10 0 0 10 0 10 10 0 10 0 0 -10z m50 0 l0 -10 -10 0 -10 0 0 10
0 10 10 0 10 0 0 -10z m50 0 l0 -10 -15 0 -15 0 0 10 0 10 15 0 15 0 0 -10z
m40 0 l0 -10 -10 0 -10 0 0 10 0 10 10 0 10 0 0 -10z m50 0 l0 -10 -15 0 -15
0 0 10 0 10 15 0 15 0 0 -10z m40 0 l0 -10 -10 0 -10 0 0 10 0 10 10 0 10 0 0
-10z m50 0 l0 -10 -10 0 -10 0 0 10 0 10 10 0 10 0 0 -10z m40 0 l0 -10 -10 0
-10 0 0 10 0 10 10 0 10 0 0 -10z m50 0 l0 -10 -10 0 -10 0 0 10 0 10 10 0 10
0 0 -10z m50 0 l0 -10 -15 0 -15 0 0 10 0 10 15 0 15 0 0 -10z m40 0 l0 -10
-10 0 -10 0 0 10 0 10 10 0 10 0 0 -10z m50 0 l0 -10 -15 0 -15 0 0 10 0 10
15 0 15 0 0 -10z m0 -160 l0 -130 -300 0 -300 0 0 130 0 130 300 0 300 0 0
-130z m-550 -160 l0 -10 -10 0 -10 0 0 10 0 10 10 0 10 0 0 -10z m40 0 l0 -10
-10 0 -10 0 0 10 0 10 10 0 10 0 0 -10z m50 0 l0 -10 -10 0 -10 0 0 10 0 10
10 0 10 0 0 -10z m50 0 l0 -10 -15 0 -15 0 0 10 0 10 15 0 15 0 0 -10z m40 0
l0 -10 -10 0 -10 0 0 10 0 10 10 0 10 0 0 -10z m50 0 l0 -10 -15 0 -15 0 0 10
0 10 15 0 15 0 0 -10z m40 0 l0 -10 -10 0 -10 0 0 10 0 10 10 0 10 0 0 -10z
m50 0 l0 -10 -10 0 -10 0 0 10 0 10 10 0 10 0 0 -10z m40 0 l0 -10 -10 0 -10
0 0 10 0 10 10 0 10 0 0 -10z m50 0 l0 -10 -10 0 -10 0 0 10 0 10 10 0 10 0 0
-10z m50 0 l0 -10 -15 0 -15 0 0 10 0 10 15 0 15 0 0 -10z m40 0 l0 -10 -10 0
-10 0 0 10 0 10 10 0 10 0 0 -10z m50 0 l0 -10 -15 0 -15 0 0 10 0 10 15 0 15
0 0 -10z m-730 -45 l0 -15 -15 0 -15 0 0 15 0 15 15 0 15 0 0 -15z m413 -137
l5 -13 12 15 12 15 5 -12 5 -13 13 0 13 0 5 13 5 12 11 -15 11 -15 11 15 11
15 5 -12 5 -13 13 0 13 0 5 13 5 12 12 -15 12 -15 5 13 5 12 10 0 9 0 15 -14
14 -15 0 -30 0 -31 10 0 10 0 0 -25 0 -25 -20 0 -20 0 0 10 0 10 -14 0 -14 0
-5 -12 -4 -13 -9 9 -9 9 13 4 12 5 0 14 0 14 15 0 15 0 0 -15 0 -15 10 0 10 0
0 11 0 10 -14 15 -15 14 -9 0 -10 0 -5 -12 -5 -13 -11 15 -10 14 -8 -8 -8 -9
13 -4 12 -5 0 -14 0 -14 -10 0 -10 0 0 -30 0 -30 10 0 10 0 0 -15 0 -15 45 0
45 0 0 25 0 25 10 0 10 0 0 -35 0 -35 -100 0 -100 0 0 -10 0 -10 -90 0 -90 0
0 20 0 20 10 0 10 0 0 60 0 60 10 0 10 0 0 30 0 31 13 14 12 14 12 1 11 0 5
-12z m287 2 l0 -10 14 0 14 0 5 13 5 12 12 -15 12 -15 5 13 5 12 13 0 13 0 5
-12 5 -13 10 14 10 14 16 -16 16 -16 0 -10 0 -11 11 0 10 0 15 -14 14 -15 0
-20 0 -21 10 0 10 0 0 -10 0 -10 -20 0 -20 0 0 -10 0 -10 -35 0 -35 0 0 -10 0
-10 -31 0 -30 0 -15 14 -14 15 0 30 0 31 -15 0 -15 0 0 35 0 35 -10 0 -10 0 0
10 0 10 10 0 10 0 0 -10z m-770 -255 l0 -15 -15 0 -15 0 0 15 0 15 15 0 15 0
0 -15z m230 0 l0 -15 -15 0 -15 0 0 15 0 15 15 0 15 0 0 -15z m40 0 l0 -15
-10 0 -10 0 0 15 0 15 10 0 10 0 0 -15z m370 0 l0 -15 -15 0 -15 0 0 15 0 15
15 0 15 0 0 -15z m40 0 l0 -15 -10 0 -10 0 0 15 0 15 10 0 10 0 0 -15z m50 0
l0 -15 -10 0 -10 0 0 15 0 15 10 0 10 0 0 -15z m40 0 l0 -15 -10 0 -10 0 0 15
0 15 10 0 10 0 0 -15z m100 0 l0 -15 -15 0 -15 0 0 15 0 15 15 0 15 0 0 -15z
m90 0 l0 -15 -15 0 -15 0 0 15 0 15 15 0 15 0 0 -15z"/>
<path d="M90 1180 l0 -10 10 0 10 0 0 -14 0 -14 -12 -5 -13 -5 15 -12 15 -12
-12 -5 -13 -5 0 -13 0 -13 13 -5 12 -5 -15 -11 -15 -11 15 -11 15 -11 -12 -5
-13 -5 0 -13 0 -13 13 -5 12 -5 -15 -12 -15 -12 13 -5 12 -5 0 -13 0 -13 -12
-5 -13 -5 15 -11 15 -11 -15 -11 -15 -11 13 -5 12 -5 0 -13 0 -13 -12 -5 -13
-5 15 -12 15 -12 -12 -5 -13 -5 0 -13 0 -13 13 -5 12 -5 -15 -11 -15 -11 15
-11 15 -11 -12 -5 -13 -5 0 -13 0 -13 13 -5 12 -5 -15 -12 -15 -12 13 -5 12
-5 0 -13 0 -13 -13 -5 -12 -5 15 -11 15 -11 -15 -11 -15 -11 13 -5 12 -5 0
-13 0 -13 -13 -5 -12 -4 9 -9 9 -9 4 13 5 12 10 0 11 0 18 -22 19 -21 7 6 6 7
-21 19 -22 18 0 12 0 11 -15 0 -15 0 0 10 0 10 11 0 10 0 17 17 17 16 -13 5
-12 4 0 10 0 11 23 20 22 20 -12 4 -13 5 0 13 0 13 12 4 12 4 -26 27 -27 27
-11 0 -10 0 0 15 0 15 11 0 10 0 17 17 17 16 -13 5 -12 4 0 9 0 10 25 24 24
25 10 0 9 0 5 -12 4 -13 23 25 23 25 4 -12 5 -13 14 0 14 0 0 10 0 10 -15 0
-15 0 0 15 0 15 15 0 15 0 0 10 0 10 -11 0 -10 0 -15 14 -14 15 0 6 0 6 14 15
15 14 10 0 11 0 0 10 0 10 -11 0 -10 0 -15 14 -14 15 0 6 0 6 14 15 15 14 10
0 11 0 0 10 0 10 -15 0 -15 0 0 15 0 15 15 0 15 0 0 10 0 10 -14 0 -14 0 -5
-12 -5 -13 -11 15 -11 15 -11 -15 -11 -15 -5 13 -5 12 -13 0 -13 0 -5 -12 -5
-13 -12 15 -12 15 -5 -12 -5 -13 -14 0 -14 0 0 10 0 10 -10 0 -10 0 0 -10z
m70 -21 l0 -10 14 -15 15 -14 6 0 6 0 15 14 14 15 0 10 0 11 10 0 10 0 0 -14
0 -14 13 -5 12 -4 -22 -20 -23 -20 0 -8 0 -8 22 -18 21 -19 -21 -19 -22 -18 0
-8 0 -8 23 -20 22 -20 -12 -4 -13 -5 0 -10 0 -9 -17 -17 -16 -17 -5 13 -4 12
-10 0 -10 0 -28 -30 -28 -30 -11 0 -11 0 0 10 0 10 15 0 15 0 0 10 0 10 -15 0
-15 0 0 10 0 10 15 0 15 0 0 15 0 15 -15 0 -15 0 0 10 0 10 11 0 10 0 15 14
14 15 0 6 0 6 -14 15 -15 14 -10 0 -11 0 0 10 0 10 11 0 10 0 15 14 14 15 0 6
0 6 -14 15 -15 14 -10 0 -11 0 0 10 0 10 15 0 15 0 0 15 0 15 10 0 10 0 0 -11z
m50 -4 l0 -15 -15 0 -15 0 0 15 0 15 15 0 15 0 0 -15z m-70 -70 l0 -15 -15 0
-15 0 0 15 0 15 15 0 15 0 0 -15z m0 -90 l0 -15 -15 0 -15 0 0 15 0 15 15 0
15 0 0 -15z m0 -185 l0 -10 -15 0 -15 0 0 10 0 10 15 0 15 0 0 -10z m8 -97
l17 -16 -13 -5 -12 -4 0 -13 0 -13 12 -4 13 -5 -17 -16 -17 -17 -10 0 -11 0 0
10 0 10 15 0 15 0 0 10 0 10 -15 0 -15 0 0 15 0 15 15 0 15 0 0 10 0 10 -15 0
-15 0 0 10 0 10 11 0 10 0 17 -17z m-8 -133 l0 -10 -15 0 -15 0 0 10 0 10 15
0 15 0 0 -10z"/>
<path d="M140 1132 l0 -8 20 -14 20 -14 0 -10 0 -9 -22 -18 -21 -19 21 -19 22
-18 0 -8 0 -8 -22 -20 -23 -20 13 -4 12 -5 0 -13 0 -13 -12 -5 -13 -4 7 -8 7
-7 16 15 15 16 0 10 0 11 15 0 15 0 0 -15 0 -15 10 0 10 0 0 14 0 14 13 5 12
4 -22 20 -23 20 0 8 0 8 22 18 21 19 -21 19 -22 18 0 8 0 8 22 18 21 19 -6 7
-7 6 -19 -21 -18 -22 -9 0 -10 0 -14 20 -14 20 -8 0 -8 0 0 -8z m76 -77 l15
-15 -15 -15 -15 -15 -6 0 -6 0 -15 15 -15 15 13 14 13 15 8 1 8 0 15 -15z m1
-90 l15 -16 -7 -7 -8 -7 -4 13 -5 12 -13 0 -13 0 -5 -12 -4 -13 -8 7 -7 7 13
15 14 15 8 1 8 0 16 -15z"/>
<path d="M180 1040 l0 -10 15 0 15 0 0 10 0 10 -15 0 -15 0 0 -10z"/>
<path d="M1010 1180 l0 -10 -15 0 -15 0 0 -15 0 -15 15 0 15 0 0 15 0 15 10 0
10 0 0 -11 0 -10 -14 -15 -15 -14 -10 0 -11 0 0 -10 0 -10 15 0 15 0 0 -15 0
-15 -15 0 -15 0 0 -10 0 -10 15 0 15 0 0 -10 0 -10 -15 0 -15 0 0 -10 0 -10
15 0 15 0 0 -15 0 -15 -15 0 -15 0 0 -10 0 -10 11 0 10 0 15 -14 14 -15 0 -10
0 -11 -10 0 -10 0 0 15 0 15 -15 0 -15 0 0 -15 0 -15 14 0 14 0 5 -12 5 -13
11 15 10 14 19 -22 19 -22 7 0 7 0 15 -14 14 -15 0 -10 0 -11 -10 0 -10 0 0
15 0 15 -15 0 -15 0 0 -15 0 -15 14 0 14 0 5 -12 5 -13 12 15 12 15 5 -12 5
-13 13 0 13 0 5 -12 4 -13 9 8 8 8 -14 10 -15 11 13 5 12 5 0 13 0 13 -12 5
-13 5 15 11 15 11 -15 11 -15 11 13 5 12 5 0 13 0 13 -12 5 -13 5 15 12 15 12
-12 5 -13 5 0 13 0 13 13 5 12 5 -15 11 -15 11 15 11 15 11 -12 5 -13 5 0 13
0 13 13 5 12 5 -15 12 -15 12 13 5 12 5 0 10 0 9 -14 15 -15 14 -9 0 -10 0 -5
-12 -5 -13 -12 15 -12 15 -5 -12 -5 -13 -13 0 -13 0 -5 13 -5 12 -12 -15 -12
-15 -5 13 -5 12 -9 0 -9 0 0 -10z m60 -25 l0 -15 15 0 15 0 0 15 0 15 10 0 10
0 0 -11 0 -10 14 -15 15 -14 10 0 11 0 0 -10 0 -10 -15 0 -15 0 0 -15 0 -15
15 0 15 0 0 -10 0 -10 -15 0 -15 0 0 -10 0 -10 15 0 15 0 0 -10 0 -10 -15 0
-15 0 0 -15 0 -15 15 0 15 0 0 -10 0 -10 -11 0 -10 0 -15 -14 -14 -15 0 -6 0
-6 14 -15 15 -14 10 0 11 0 0 -10 0 -10 -15 0 -15 0 0 -10 0 -10 15 0 15 0 0
-15 0 -15 -15 0 -15 0 0 10 0 11 -25 24 -24 25 -6 0 -6 0 -15 14 -14 15 0 7 0
7 -22 20 -23 20 13 4 12 5 0 13 0 13 -12 5 -13 5 15 11 15 11 -15 11 -15 11
13 5 12 5 0 13 0 13 -12 5 -13 4 23 20 22 20 0 12 0 11 10 0 10 0 0 -15z m100
0 l0 -15 -15 0 -15 0 0 15 0 15 15 0 15 0 0 -15z m0 -230 l0 -15 -15 0 -15 0
0 15 0 15 15 0 15 0 0 -15z"/>
<path d="M1040 1123 l-14 -17 12 -4 12 -4 0 -13 0 -13 -12 -5 -13 -5 15 -11
15 -11 -15 -11 -15 -11 13 -5 12 -5 0 -13 0 -13 -12 -5 -13 -4 23 -20 22 -20
0 -12 0 -11 11 0 12 0 18 -22 19 -21 7 6 6 7 -21 19 -22 18 0 8 0 8 23 20 22
20 -12 4 -13 5 0 13 0 13 13 5 12 5 -15 11 -15 11 15 11 15 11 -12 5 -13 5 0
13 0 13 12 4 13 5 -19 19 -19 19 -5 -13 -4 -12 -14 0 -14 0 0 10 0 10 -7 0 -8
-1 -15 -16z m30 -13 l0 -10 14 0 14 0 5 13 4 12 9 -9 9 -9 -12 -4 -13 -5 0
-13 0 -13 13 -5 12 -5 -15 -11 -15 -11 15 -11 15 -11 -12 -5 -13 -5 0 -13 0
-13 12 -4 13 -5 -17 -16 -17 -17 -6 0 -6 0 -17 17 -17 16 13 5 12 4 0 13 0 13
-12 5 -13 5 15 11 15 11 -15 11 -15 11 13 5 12 5 0 14 0 14 -10 0 -10 0 0 10
0 10 10 0 10 0 0 -10z"/>
<path d="M1070 1060 l0 -10 15 0 15 0 0 10 0 10 -15 0 -15 0 0 -10z"/>
<path d="M1070 1020 l0 -10 15 0 15 0 0 10 0 10 -15 0 -15 0 0 -10z"/>
<path d="M1070 970 l0 -10 15 0 15 0 0 10 0 10 -15 0 -15 0 0 -10z"/>
<path d="M270 1085 l0 -15 15 0 15 0 0 15 0 15 -15 0 -15 0 0 -15z"/>
<path d="M270 995 l0 -15 15 0 15 0 0 15 0 15 -15 0 -15 0 0 -15z"/>
<path d="M1170 740 l0 -10 -15 0 -15 0 0 -10 0 -10 15 0 15 0 0 -10 0 -10 -15
0 -15 0 0 -15 0 -15 14 0 14 0 5 -12 4 -13 9 9 9 9 -12 4 -13 5 0 13 0 13 13
5 12 5 -15 12 -15 12 13 5 12 5 0 9 0 9 -10 0 -10 0 0 -10z"/>
<path d="M300 675 l0 -15 10 0 10 0 0 15 0 15 -10 0 -10 0 0 -15z"/>
<path d="M340 665 l0 -25 15 0 15 0 0 25 0 25 -15 0 -15 0 0 -25z"/>
<path d="M480 675 l0 -15 10 0 10 0 0 15 0 15 -10 0 -10 0 0 -15z"/>
<path d="M320 605 l0 -15 -10 0 -10 0 0 -20 0 -20 6 0 5 0 15 14 14 15 0 20 0
21 -10 0 -10 0 0 -15z"/>
<path d="M1120 516 l0 -14 -12 -4 -13 -5 19 -19 19 -19 5 13 4 12 13 0 13 0 5
-12 4 -13 9 8 8 8 -14 10 -15 11 13 5 12 5 0 14 0 14 -10 0 -10 0 0 -15 0 -15
-15 0 -15 0 0 15 0 15 -10 0 -10 0 0 -14z m20 -26 l0 -10 -10 0 -10 0 0 10 0
10 10 0 10 0 0 -10z"/>
<path d="M1041 484 l-13 -15 6 -6 5 -5 16 15 15 16 0 5 0 6 -7 0 -8 -1 -14
-15z"/>
<path d="M210 470 l0 -10 10 0 10 0 0 10 0 10 -10 0 -10 0 0 -10z"/>
<path d="M383 1105 l-13 -14 0 -66 0 -65 20 0 20 0 0 55 0 55 10 0 10 0 0 -10
0 -10 25 0 25 0 0 10 0 10 10 0 10 0 0 -55 0 -55 25 0 25 0 0 66 0 65 -14 15
-15 14 -63 0 -63 -1 -12 -14z"/>
<path d="M583 1105 l-13 -14 0 -66 0 -65 25 0 25 0 0 25 0 25 20 0 20 0 0 -25
0 -25 25 0 25 0 0 66 0 65 -14 15 -15 14 -43 0 -43 -1 -12 -14z m77 -45 l0
-10 -20 0 -20 0 0 10 0 10 20 0 20 0 0 -10z"/>
<path d="M730 1040 l0 -80 25 0 25 0 0 80 0 80 -25 0 -25 0 0 -80z"/>
<path d="M800 1054 l0 -65 14 -15 15 -14 40 0 41 0 0 25 0 25 -30 0 -30 0 0
55 0 55 -25 0 -25 0 0 -66z"/>
<path d="M590 675 l0 -15 15 0 15 0 0 15 0 15 -15 0 -15 0 0 -15z"/>
<path d="M640 675 l0 -15 10 0 10 0 0 15 0 15 -10 0 -10 0 0 -15z"/>
<path d="M690 675 l0 -15 10 0 10 0 0 15 0 15 -10 0 -10 0 0 -15z"/>
<path d="M730 675 l0 -15 10 0 10 0 0 15 0 15 -10 0 -10 0 0 -15z"/>
<path d="M780 675 l0 -15 10 0 10 0 0 15 0 15 -10 0 -10 0 0 -15z"/>
<path d="M820 675 l0 -15 15 0 15 0 0 15 0 15 -15 0 -15 0 0 -15z"/>
<path d="M660 605 l0 -35 15 0 15 0 0 35 0 35 -15 0 -15 0 0 -35z"/>
<path d="M710 605 l0 -35 10 0 10 0 0 35 0 35 -10 0 -10 0 0 -35z"/>
<path d="M640 525 l0 -25 10 0 10 0 0 25 0 25 -10 0 -10 0 0 -25z"/>
<path d="M940 675 l0 -15 10 0 10 0 0 15 0 15 -10 0 -10 0 0 -15z"/>
<path d="M980 675 l0 -15 15 0 15 0 0 15 0 15 -15 0 -15 0 0 -15z"/>
<path d="M1030 675 l0 -15 10 0 10 0 0 15 0 15 -10 0 -10 0 0 -15z"/>
<path d="M980 630 l0 -10 15 0 15 0 0 -15 0 -15 10 0 10 0 0 15 0 15 10 0 10
0 0 -15 0 -15 10 0 10 0 0 11 0 10 -16 16 -16 16 -10 -14 -10 -14 -5 13 -5 12
-14 0 -14 0 0 -10z"/>
</g>
</svg>
