<?xml version="1.0" standalone="no"?>
<!DOCTYPE svg PUBLIC "-//W3C//DTD SVG 20010904//EN"
 "http://www.w3.org/TR/2001/REC-SVG-20010904/DTD/svg10.dtd">
<svg version="1.0" xmlns="http://www.w3.org/2000/svg"
 width="468pt" height="468pt" viewBox="0 0 468 468"
 preserveAspectRatio="xMidYMid meet">
<metadata>
Created by potrace 1.8, written by Peter Selinger 2001-2007
</metadata>
<g transform="translate(0,468) scale(0.365625,-0.365625)"
fill="#000000" stroke="none">
<path d="M690 1240 l0 -10 -50 0 -50 0 0 -15 0 -15 10 0 10 0 0 -15 0 -15 -10
0 -10 0 0 15 0 15 -15 0 -15 0 0 15 0 15 -55 0 -55 0 0 -15 0 -15 -25 0 -25 0
0 -15 0 -15 -15 0 -15 0 0 15 0 15 -10 0 -10 0 0 -25 0 -25 10 0 10 0 0 -15 0
-15 -10 0 -10 0 0 15 0 15 -15 0 -15 0 0 10 0 10 -15 0 -15 0 0 -10 0 -10 -25
0 -25 0 0 -30 0 -30 -15 0 -15 0 0 -39 0 -39 -12 -6 -13 -6 13 -6 12 -6 0 -14
0 -14 -10 0 -10 0 0 -54 0 -54 13 -6 12 -6 -12 -6 -13 -6 0 -14 0 -14 10 0 10
0 0 -95 0 -95 15 0 15 0 0 -90 0 -90 15 0 15 0 0 -15 0 -15 10 0 10 0 0 -15 0
-15 30 0 30 0 0 -10 0 -10 -15 0 -15 0 0 -15 0 -15 -15 0 -15 0 0 -15 0 -15
15 0 15 0 0 -10 0 -10 -25 0 -25 0 0 -40 0 -40 -15 0 -15 0 0 -40 0 -40 -15 0
-15 0 0 -26 0 -25 -14 -15 -15 -14 -10 0 -11 0 0 -15 0 -15 135 0 135 0 0 15
0 15 -15 0 -15 0 0 10 0 10 15 0 15 0 0 30 0 30 -15 0 -15 0 0 10 0 10 14 0
14 0 6 -12 6 -13 6 13 6 12 14 0 14 0 0 -25 0 -25 -15 0 -15 0 0 -15 0 -15 15
0 15 0 0 -10 0 -10 -15 0 -15 0 0 -15 0 -15 15 0 15 0 0 15 0 15 15 0 15 0 0
10 0 10 -15 0 -15 0 0 15 0 15 25 0 25 0 0 -25 0 -25 15 0 15 0 0 -15 0 -15
25 0 25 0 0 25 0 25 55 0 55 0 0 15 0 15 15 0 15 0 0 -15 0 -15 25 0 25 0 0
15 0 15 15 0 15 0 0 -40 0 -40 10 0 10 0 0 40 0 40 15 0 15 0 0 25 0 25 15 0
15 0 0 -25 0 -25 -15 0 -15 0 0 -40 0 -40 15 0 15 0 0 40 0 40 10 0 10 0 0 25
0 25 -10 0 -10 0 0 15 0 15 10 0 10 0 0 15 0 15 15 0 15 0 0 -95 0 -95 95 0
95 0 0 15 0 15 -30 0 -30 0 0 36 0 35 -14 15 -15 14 -10 0 -11 0 0 30 0 30
-15 0 -15 0 0 25 0 25 -10 0 -10 0 0 25 0 25 10 0 10 0 0 15 0 15 -10 0 -10 0
0 -15 0 -15 -15 0 -15 0 0 15 0 15 -15 0 -15 0 0 -15 0 -15 15 0 15 0 0 -25 0
-25 -25 0 -25 0 0 -15 0 -15 -15 0 -15 0 0 -10 0 -10 -15 0 -15 0 0 -26 0 -25
-14 -15 -15 -14 -10 0 -11 0 0 10 0 10 -15 0 -15 0 0 30 0 30 -10 0 -10 0 0
-40 0 -40 -15 0 -15 0 0 25 0 25 -15 0 -15 0 0 -25 0 -25 -10 0 -10 0 0 25 0
25 -15 0 -15 0 0 25 0 25 -14 0 -14 0 -6 -12 -6 -13 -6 13 -6 12 -14 0 -14 0
0 -10 0 -10 -15 0 -15 0 0 10 0 10 15 0 15 0 0 15 0 15 -15 0 -15 0 0 15 0 15
-10 0 -10 0 0 36 0 35 14 15 15 14 10 0 11 0 0 15 0 15 -15 0 -15 0 0 -11 0
-10 -14 -15 -15 -14 -10 0 -11 0 0 -15 0 -15 -15 0 -15 0 0 -15 0 -15 15 0 15
0 0 -10 0 -10 -11 0 -10 0 -15 14 -14 15 0 10 0 11 10 0 10 0 0 11 0 10 -14
15 -15 14 -10 0 -11 0 0 15 0 15 15 0 15 0 0 -11 0 -10 14 -15 15 -14 10 0 11
0 0 10 0 10 15 0 15 0 0 15 0 15 -15 0 -15 0 0 -15 0 -15 -15 0 -15 0 0 15 0
15 -10 0 -10 0 0 14 0 14 13 6 12 6 -12 6 -13 6 0 14 0 14 -15 0 -15 0 0 15 0
15 40 0 40 0 0 -15 0 -15 15 0 15 0 0 15 0 15 25 0 25 0 0 -15 0 -15 15 0 15
0 0 15 0 15 40 0 40 0 0 25 0 25 10 0 10 0 0 40 0 40 15 0 15 0 0 15 0 15 25
0 25 0 0 -30 0 -30 15 0 15 0 0 -25 0 -25 15 0 15 0 0 -11 0 -10 14 -15 15
-14 10 0 11 0 0 -15 0 -15 15 0 15 0 0 15 0 15 25 0 25 0 0 -15 0 -15 15 0 15
0 0 -15 0 -15 -15 0 -15 0 0 -10 0 -10 -14 0 -14 0 -5 13 -4 12 -9 -9 -9 -9
13 -4 12 -5 0 -14 0 -14 -10 0 -10 0 0 -11 0 -10 14 -15 15 -14 10 0 11 0 0
10 0 10 -15 0 -15 0 0 15 0 15 40 0 40 0 0 14 0 14 -12 6 -13 6 13 6 12 6 0
14 0 14 15 0 15 0 0 25 0 25 15 0 15 0 0 120 0 120 -15 0 -15 0 0 95 0 95 15
0 15 0 0 80 0 80 -15 0 -15 0 0 15 0 15 -25 0 -25 0 0 10 0 10 -15 0 -15 0 0
15 0 15 -25 0 -25 0 0 15 0 15 -55 0 -55 0 0 10 0 10 -25 0 -25 0 0 -10 0 -10
10 0 10 0 0 -15 0 -15 -10 0 -10 0 0 15 0 15 -15 0 -15 0 0 10 0 10 -15 0 -15
0 0 -10z m-160 -51 l0 -10 -14 -15 -15 -14 -10 0 -11 0 0 10 0 10 15 0 15 0 0
15 0 15 10 0 10 0 0 -11z m190 -4 l0 -15 -15 0 -15 0 0 15 0 15 15 0 15 0 0
-15z m160 0 l0 -15 15 0 15 0 0 -10 0 -10 -15 0 -15 0 0 10 0 10 -15 0 -15 0
0 -25 0 -25 -10 0 -10 0 0 25 0 25 10 0 10 0 0 15 0 15 15 0 15 0 0 -15z
m-430 -25 l0 -10 -10 0 -10 0 0 10 0 10 10 0 10 0 0 -10z m350 -25 l0 -15 -15
0 -15 0 0 15 0 15 15 0 15 0 0 -15z m190 0 l0 -15 10 0 10 0 0 -15 0 -15 -10
0 -10 0 0 15 0 15 -15 0 -15 0 0 -15 0 -15 -15 0 -15 0 0 15 0 15 15 0 15 0 0
15 0 15 15 0 15 0 0 -15z m-700 -30 l0 -15 -10 0 -10 0 0 15 0 15 10 0 10 0 0
-15z m510 -25 l0 -10 -15 0 -15 0 0 -15 0 -15 55 0 55 0 0 -15 0 -15 11 0 10
0 15 -14 14 -15 0 -10 0 -11 15 0 15 0 0 -15 0 -15 -15 0 -15 0 0 -10 0 -10
15 0 15 0 0 -30 0 -30 -15 0 -15 0 0 -10 0 -10 30 0 30 0 0 -30 0 -30 -55 0
-55 0 0 -10 0 -10 -15 0 -15 0 0 10 0 10 -25 0 -25 0 0 -10 0 -10 -55 0 -55 0
0 10 0 10 -40 0 -40 0 0 -10 0 -10 -25 0 -25 0 0 10 0 10 -65 0 -65 0 0 70 0
70 -15 0 -15 0 0 25 0 25 15 0 15 0 0 25 0 25 25 0 25 0 0 15 0 15 55 0 55 0
0 15 0 15 90 0 90 0 0 10 0 10 15 0 15 0 0 -10z m50 0 l0 -10 -10 0 -10 0 0
10 0 10 10 0 10 0 0 -10z m-530 -80 l0 -10 15 0 15 0 0 -15 0 -15 -15 0 -15 0
0 15 0 15 -15 0 -15 0 0 10 0 10 15 0 15 0 0 -10z m-50 -55 l0 -15 -15 0 -15
0 0 15 0 15 15 0 15 0 0 -15z m130 -130 l0 -15 -15 0 -15 0 0 15 0 15 15 0 15
0 0 -15z m0 -55 l0 -10 -15 0 -15 0 0 10 0 10 15 0 15 0 0 -10z m190 -105 l0
-15 -30 0 -30 0 0 15 0 15 30 0 30 0 0 -15z m-300 -175 l0 -30 -10 0 -10 0 0
30 0 30 10 0 10 0 0 -30z m140 -40 l0 -10 -15 0 -15 0 0 10 0 10 15 0 15 0 0
-10z m-80 -25 l0 -15 -15 0 -15 0 0 15 0 15 15 0 15 0 0 -15z m80 -240 l0 -15
-15 0 -15 0 0 15 0 15 15 0 15 0 0 -15z m210 -55 l0 -10 -15 0 -15 0 0 10 0
10 15 0 15 0 0 -10z"/>
<path d="M610 465 l0 -15 15 0 15 0 0 15 0 15 -15 0 -15 0 0 -15z"/>
<path d="M690 465 l0 -15 -10 0 -10 0 0 -10 0 -10 25 0 25 0 0 10 0 10 15 0
15 0 0 15 0 15 -30 0 -30 0 0 -15z"/>
<path d="M770 469 l0 -10 -14 -15 -15 -14 -10 0 -11 0 0 -15 0 -15 25 0 25 0
0 25 0 25 15 0 15 0 0 -10 0 -10 25 0 25 0 0 10 0 10 -10 0 -10 0 0 15 0 15
-30 0 -30 0 0 -11z"/>
<path d="M530 440 l0 -10 15 0 15 0 0 10 0 10 -15 0 -15 0 0 -10z"/>
<path d="M640 360 l0 -10 15 0 15 0 0 -15 0 -15 10 0 10 0 0 15 0 15 15 0 15
0 0 -15 0 -15 15 0 15 0 0 -15 0 -15 10 0 10 0 0 15 0 15 15 0 15 0 0 15 0 15
15 0 15 0 0 -15 0 -15 10 0 10 0 0 11 0 10 -14 15 -15 14 -90 0 -91 0 0 -10z
m130 -25 l0 -15 -10 0 -10 0 0 15 0 15 10 0 10 0 0 -15z"/>
<path d="M990 360 l0 -10 10 0 10 0 0 10 0 10 -10 0 -10 0 0 -10z"/>
<path d="M670 225 l0 -15 10 0 10 0 0 15 0 15 -10 0 -10 0 0 -15z"/>
<path d="M850 225 l0 -15 15 0 15 0 0 15 0 15 -15 0 -15 0 0 -15z"/>
<path d="M800 145 l0 -15 15 0 15 0 0 15 0 15 -15 0 -15 0 0 -15z"/>
</g>
</svg>
