<?xml version="1.0" standalone="no"?>
<!DOCTYPE svg PUBLIC "-//W3C//DTD SVG 20010904//EN"
 "http://www.w3.org/TR/2001/REC-SVG-20010904/DTD/svg10.dtd">
<svg version="1.0" xmlns="http://www.w3.org/2000/svg"
 width="468pt" height="468pt" viewBox="0 0 468 468"
 preserveAspectRatio="xMidYMid meet">
<metadata>
Created by potrace 1.8, written by Peter Selinger 2001-2007
</metadata>
<g transform="translate(0,468) scale(0.365625,-0.365625)"
fill="#000000" stroke="none">
<path d="M560 1270 l0 -10 -50 0 -50 0 0 -10 0 -10 -30 0 -30 0 0 -10 0 -10
-28 0 -28 0 -14 -20 -14 -20 -16 0 -16 0 -14 -20 -14 -20 -13 0 -14 0 -44 -45
-45 -44 0 -14 0 -13 -20 -14 -20 -14 0 -16 0 -16 -20 -14 -20 -14 0 -28 0 -28
-10 0 -10 0 0 -19 0 -19 -12 -5 -13 -4 7 -8 7 -7 16 15 15 16 0 15 0 16 10 0
10 0 0 20 0 20 6 0 5 0 15 -14 14 -15 0 -75 0 -76 10 0 10 0 0 25 0 26 45 44
44 45 16 0 15 0 0 -30 0 -30 20 0 20 0 0 -20 0 -20 20 0 20 0 0 -20 0 -20 10
0 10 0 0 10 0 10 20 0 20 0 0 26 0 27 -21 18 -21 18 15 16 16 15 5 0 6 0 0
-20 0 -20 10 0 10 0 0 20 0 20 20 0 20 0 0 10 0 10 15 0 16 0 24 25 25 24 0
26 0 25 -10 0 -10 0 0 30 0 30 30 0 30 0 0 -20 0 -20 20 0 20 0 0 9 0 9 -12 4
-13 5 17 16 17 17 21 0 21 0 15 14 14 15 0 15 0 16 10 0 10 0 0 10 0 10 -20 0
-20 0 0 6 0 5 14 15 15 14 45 0 46 0 0 -9 0 -9 -12 -4 -13 -5 17 -16 17 -17 5
0 6 0 0 30 0 30 16 0 15 0 15 14 14 15 0 5 0 6 -90 0 -90 0 0 10 0 10 -20 0
-20 0 0 -10 0 -10 -20 0 -20 0 0 10 0 10 -20 0 -20 0 0 10 0 10 -10 0 -10 0 0
-10z"/>
<path d="M900 1210 l0 -10 19 0 19 0 5 -12 4 -13 8 7 7 7 -15 16 -16 15 -15 0
-16 0 0 -10z"/>
<path d="M711 1084 l-13 -15 6 -6 5 -5 16 15 15 16 0 5 0 6 -7 0 -8 -1 -14
-15z"/>
<path d="M700 1030 l0 -10 -20 0 -20 0 0 -10 0 -10 16 0 15 0 15 14 14 15 0 5
0 6 -10 0 -10 0 0 -10z"/>
<path d="M620 990 l0 -10 10 0 10 0 0 10 0 10 -10 0 -10 0 0 -10z"/>
<path d="M520 830 l0 -10 10 0 10 0 0 10 0 10 -10 0 -10 0 0 -10z"/>
<path d="M540 740 l0 -20 20 0 20 0 0 6 0 5 -14 15 -15 14 -5 0 -6 0 0 -20z"/>
<path d="M300 700 l0 -20 -9 0 -9 0 -5 13 -4 12 -8 -7 -8 -8 21 -19 22 -18 0
-17 0 -16 10 0 10 0 0 -20 0 -20 20 0 20 0 0 20 0 20 -10 0 -10 0 0 30 0 30
-10 0 -10 0 0 20 0 20 -10 0 -10 0 0 -20z"/>
<path d="M433 685 l-33 -34 0 -26 0 -25 26 0 25 0 15 14 14 15 0 45 0 46 -7
-1 -8 0 -32 -34z"/>
<path d="M540 650 l0 -10 10 0 10 0 0 10 0 10 -10 0 -10 0 0 -10z"/>
<path d="M500 610 l0 -30 20 0 20 0 0 10 0 10 -10 0 -10 0 0 20 0 20 -10 0
-10 0 0 -30z"/>
<path d="M640 620 l0 -20 20 0 20 0 0 -10 0 -10 20 0 20 0 0 -20 0 -20 50 0
50 0 0 5 0 6 -25 24 -24 25 -16 0 -15 0 0 10 0 10 -40 0 -40 0 0 10 0 10 -10
0 -10 0 0 -20z"/>
<path d="M620 490 l0 -10 -26 0 -26 0 -28 -30 -28 -30 -12 0 -11 0 -15 -14
-14 -15 0 -25 0 -26 10 0 10 0 0 -16 0 -15 14 -15 15 -14 35 0 36 0 0 10 0 10
38 0 38 0 14 -20 14 -20 18 0 18 0 0 -10 0 -10 40 0 40 0 0 18 0 18 20 14 20
14 0 38 0 38 -10 0 -10 0 0 18 0 18 -20 14 -20 14 0 14 0 13 -14 15 -15 14 -5
0 -6 0 0 -30 0 -30 -10 0 -10 0 0 10 0 10 -20 0 -20 0 0 20 0 20 -30 0 -30 0
0 -10z"/>
<path d="M980 240 l0 -20 10 0 10 0 0 20 0 20 -10 0 -10 0 0 -20z"/>
<path d="M760 210 l0 -10 10 0 10 0 0 10 0 10 -10 0 -10 0 0 -10z"/>
<path d="M920 190 l0 -10 10 0 10 0 0 10 0 10 -10 0 -10 0 0 -10z"/>
<path d="M460 40 l0 -20 50 0 50 0 0 -10 0 -10 80 0 80 0 0 10 0 10 20 0 20 0
0 10 0 10 -119 0 -119 0 -5 13 -5 12 -12 -15 -12 -15 -5 13 -5 12 -9 0 -9 0 0
-20z"/>
</g>
</svg>
