<?xml version="1.0" standalone="no"?>
<!DOCTYPE svg PUBLIC "-//W3C//DTD SVG 20010904//EN"
 "http://www.w3.org/TR/2001/REC-SVG-20010904/DTD/svg10.dtd">
<svg version="1.0" xmlns="http://www.w3.org/2000/svg"
 width="468pt" height="468pt" viewBox="0 0 468 468"
 preserveAspectRatio="xMidYMid meet">
<metadata>
Created by potrace 1.8, written by Peter Selinger 2001-2007
</metadata>
<g transform="translate(0,468) scale(0.365625,-0.365625)"
fill="#000000" stroke="none">
<path d="M30 1255 l0 -25 10 0 10 0 0 -40 0 -40 15 0 15 0 0 -30 0 -30 14 0
14 0 6 -12 6 -13 6 13 6 12 14 0 14 0 0 30 0 30 15 0 15 0 0 40 0 40 10 0 10
0 0 25 0 25 -10 0 -10 0 0 -25 0 -25 -15 0 -15 0 0 -40 0 -40 -15 0 -15 0 0
-30 0 -30 -10 0 -10 0 0 30 0 30 -15 0 -15 0 0 40 0 40 -15 0 -15 0 0 25 0 25
-10 0 -10 0 0 -25z"/>
<path d="M1040 1175 l0 -105 15 0 15 0 0 105 0 105 -15 0 -15 0 0 -105z"/>
<path d="M240 1215 l0 -15 -15 0 -15 0 0 -55 0 -55 15 0 15 0 0 -10 0 -10 25
0 25 0 0 10 0 10 15 0 15 0 0 15 0 15 -15 0 -15 0 0 -15 0 -15 -25 0 -25 0 0
30 0 30 40 0 40 0 0 25 0 25 -15 0 -15 0 0 15 0 15 -25 0 -25 0 0 -15z m50
-30 l0 -15 -25 0 -25 0 0 15 0 15 25 0 25 0 0 -15z"/>
<path d="M350 1150 l0 -80 10 0 10 0 0 50 0 50 15 0 15 0 0 15 0 15 25 0 25 0
0 -65 0 -65 15 0 15 0 0 65 0 65 -15 0 -15 0 0 15 0 15 -25 0 -25 0 0 -15 0
-15 -15 0 -15 0 0 15 0 15 -10 0 -10 0 0 -80z"/>
<path d="M530 1215 l0 -15 -10 0 -10 0 0 -51 0 -50 14 -15 15 -14 21 0 21 0
15 14 14 15 0 10 0 11 -10 0 -10 0 0 -15 0 -15 -30 0 -30 0 0 30 0 30 40 0 40
0 0 25 0 25 -10 0 -10 0 0 15 0 15 -30 0 -30 0 0 -15z m60 -30 l0 -15 -30 0
-30 0 0 15 0 15 30 0 30 0 0 -15z"/>
<path d="M640 1215 l0 -15 40 0 40 0 0 -15 0 -15 -11 0 -10 0 -15 -14 -14 -15
0 -10 0 -11 -15 0 -15 0 0 -25 0 -25 55 0 55 0 0 10 0 10 -40 0 -40 0 0 15 0
15 10 0 10 0 0 15 0 15 15 0 15 0 0 10 0 10 15 0 15 0 0 30 0 30 -55 0 -55 0
0 -15z"/>
<path d="M770 1160 l0 -70 15 0 15 0 0 -10 0 -10 40 0 40 0 0 80 0 80 -15 0
-15 0 0 -70 0 -70 -25 0 -25 0 0 70 0 70 -15 0 -15 0 0 -70z"/>
<path d="M930 1215 l0 -15 -10 0 -10 0 0 -51 0 -50 14 -15 15 -14 21 0 21 0
15 14 14 15 0 10 0 11 -10 0 -10 0 0 -15 0 -15 -30 0 -30 0 0 30 0 30 40 0 40
0 0 25 0 25 -10 0 -10 0 0 15 0 15 -30 0 -30 0 0 -15z m60 -30 l0 -15 -30 0
-30 0 0 15 0 15 30 0 30 0 0 -15z"/>
<path d="M1090 1215 l0 -15 40 0 40 0 0 -15 0 -15 -25 0 -25 0 0 -10 0 -10
-15 0 -15 0 0 -30 0 -30 15 0 15 0 0 -10 0 -10 25 0 25 0 0 10 0 10 15 0 15 0
0 -10 0 -10 15 0 15 0 0 10 0 10 -15 0 -15 0 0 55 0 55 -15 0 -15 0 0 15 0 15
-40 0 -40 0 0 -15z m80 -95 l0 -30 -25 0 -25 0 0 30 0 30 25 0 25 0 0 -30z"/>
<path d="M0 535 l0 -425 640 0 640 0 0 425 0 425 -640 0 -640 0 0 -425z m130
370 l0 -25 -10 0 -10 0 0 -15 0 -15 -15 0 -15 0 0 -65 0 -65 15 0 15 0 0 -15
0 -15 40 0 40 0 0 -10 0 -10 -40 0 -40 0 0 10 0 10 -15 0 -15 0 0 -10 0 -10
-25 0 -25 0 0 10 0 10 10 0 10 0 0 15 0 15 -10 0 -10 0 0 14 0 14 13 6 12 6
-12 6 -13 6 0 14 0 14 10 0 10 0 0 14 0 14 -12 6 -13 6 13 6 12 6 0 14 0 14
-10 0 -10 0 0 10 0 11 13 14 12 14 38 1 37 0 0 -25z m110 15 l0 -10 15 0 15 0
0 10 0 10 39 0 39 0 6 -12 6 -13 6 13 6 12 39 0 39 0 0 -10 0 -10 15 0 15 0 0
10 0 10 40 0 40 0 0 -10 0 -10 15 0 15 0 0 10 0 10 39 0 39 0 6 -12 6 -13 6
13 6 12 39 0 39 0 0 -10 0 -10 15 0 15 0 0 10 0 10 40 0 40 0 0 -10 0 -10 15
0 15 0 0 10 0 10 39 0 39 0 6 -12 6 -13 6 13 6 12 39 0 39 0 0 -10 0 -10 15 0
15 0 0 10 0 10 40 0 40 0 0 -10 0 -10 15 0 15 0 0 10 0 10 10 0 10 0 0 -130 0
-130 -39 0 -39 0 -6 13 -6 12 -6 -12 -6 -13 -39 0 -39 0 0 10 0 10 -15 0 -15
0 0 -10 0 -10 -40 0 -40 0 0 10 0 10 -15 0 -15 0 0 -10 0 -10 -39 0 -39 0 -6
13 -6 12 -6 -12 -6 -13 -39 0 -39 0 0 10 0 10 -15 0 -15 0 0 -10 0 -10 -40 0
-40 0 0 10 0 10 -15 0 -15 0 0 -10 0 -10 -39 0 -39 0 -6 13 -6 12 -6 -12 -6
-13 -39 0 -39 0 0 10 0 10 -15 0 -15 0 0 -10 0 -10 -40 0 -40 0 0 10 0 10 -15
0 -15 0 0 -10 0 -10 -40 0 -40 0 0 25 0 25 15 0 15 0 0 -15 0 -15 15 0 15 0 0
15 0 15 -15 0 -15 0 0 15 0 15 15 0 15 0 0 10 0 10 -15 0 -15 0 0 15 0 15 15
0 15 0 0 15 0 15 -15 0 -15 0 0 10 0 10 -15 0 -15 0 0 30 0 30 -25 0 -25 0 0
10 0 10 40 0 40 0 0 -10z m-50 -80 l0 -10 -15 0 -15 0 0 10 0 10 15 0 15 0 0
-10z m-60 -55 l0 -15 -10 0 -10 0 0 15 0 15 10 0 10 0 0 -15z m60 1 l0 -14 13
-6 12 -6 -12 -6 -13 -6 0 -14 0 -14 -15 0 -15 0 0 15 0 15 15 0 15 0 0 10 0
10 -15 0 -15 0 0 15 0 15 15 0 15 0 0 -14z m450 -161 l0 -15 15 0 15 0 0 -10
0 -10 -15 0 -15 0 0 -15 0 -15 -15 0 -15 0 0 14 0 14 -12 6 -13 6 13 6 12 6 0
14 0 14 15 0 15 0 0 -15z m-110 -25 l0 -10 15 0 15 0 0 -15 0 -15 -15 0 -15 0
0 -15 0 -15 -10 0 -10 0 0 15 0 15 -15 0 -15 0 0 15 0 15 15 0 15 0 0 10 0 10
10 0 10 0 0 -10z m226 -4 l14 -15 0 -10 0 -11 -10 0 -10 0 0 -15 0 -15 -15 0
-15 0 0 15 0 15 -15 0 -15 0 0 15 0 15 15 0 15 0 0 10 0 10 11 0 10 0 15 -14z
m-306 -51 l0 -15 15 0 15 0 0 -10 0 -10 -15 0 -15 0 0 -15 0 -15 -10 0 -10 0
0 15 0 15 -15 0 -15 0 0 10 0 10 15 0 15 0 0 15 0 15 10 0 10 0 0 -15z m380 1
l0 -14 13 -6 12 -6 -12 -6 -13 -6 0 -14 0 -14 -15 0 -15 0 0 15 0 15 -15 0
-15 0 0 10 0 10 15 0 15 0 0 15 0 15 15 0 15 0 0 -14z m-460 -51 l0 -15 15 0
15 0 0 -15 0 -15 -14 0 -14 0 -6 -12 -6 -13 -6 13 -6 12 -14 0 -14 0 0 15 0
15 15 0 15 0 0 15 0 15 10 0 10 0 0 -15z m540 0 l0 -15 10 0 10 0 0 -11 0 -10
-14 -15 -15 -14 -10 0 -11 0 0 10 0 10 -15 0 -15 0 0 15 0 15 15 0 15 0 0 15
0 15 15 0 15 0 0 -15z m-830 -110 l0 -15 15 0 15 0 0 15 0 15 10 0 10 0 0 -15
0 -15 15 0 15 0 0 15 0 15 15 0 15 0 0 -15 0 -15 -15 0 -15 0 0 -10 0 -10 15
0 15 0 0 -15 0 -15 10 0 10 0 0 15 0 15 15 0 15 0 0 10 0 10 -15 0 -15 0 0 15
0 15 15 0 15 0 0 -15 0 -15 15 0 15 0 0 15 0 15 10 0 10 0 0 -15 0 -15 15 0
15 0 0 15 0 15 15 0 15 0 0 -15 0 -15 -15 0 -15 0 0 -10 0 -10 15 0 15 0 0
-15 0 -15 10 0 10 0 0 15 0 15 15 0 15 0 0 10 0 10 -15 0 -15 0 0 15 0 15 15
0 15 0 0 -15 0 -15 15 0 15 0 0 15 0 15 10 0 10 0 0 -15 0 -15 15 0 15 0 0 15
0 15 15 0 15 0 0 -15 0 -15 -15 0 -15 0 0 -10 0 -10 15 0 15 0 0 -15 0 -15 10
0 10 0 0 15 0 15 15 0 15 0 0 10 0 10 -15 0 -15 0 0 15 0 15 15 0 15 0 0 -15
0 -15 15 0 15 0 0 15 0 15 10 0 10 0 0 -15 0 -15 15 0 15 0 0 15 0 15 15 0 15
0 0 -15 0 -15 -15 0 -15 0 0 -10 0 -10 15 0 15 0 0 -15 0 -15 10 0 10 0 0 15
0 15 15 0 15 0 0 10 0 10 -15 0 -15 0 0 15 0 15 15 0 15 0 0 -15 0 -15 15 0
15 0 0 15 0 15 10 0 10 0 0 -15 0 -15 15 0 15 0 0 15 0 15 15 0 15 0 0 -15 0
-15 -15 0 -15 0 0 -10 0 -10 15 0 15 0 0 -15 0 -15 10 0 10 0 0 15 0 15 15 0
15 0 0 10 0 10 -15 0 -15 0 0 15 0 15 15 0 15 0 0 -15 0 -15 15 0 15 0 0 15 0
15 10 0 10 0 0 -15 0 -15 15 0 15 0 0 15 0 15 15 0 15 0 0 -15 0 -15 -15 0
-15 0 0 -10 0 -10 15 0 15 0 0 -15 0 -15 10 0 10 0 0 15 0 15 15 0 15 0 0 10
0 10 -15 0 -15 0 0 15 0 15 15 0 15 0 0 -15 0 -15 15 0 15 0 0 15 0 15 10 0
10 0 0 -15 0 -15 15 0 15 0 0 15 0 15 15 0 15 0 0 -15 0 -15 -15 0 -15 0 0
-10 0 -10 15 0 15 0 0 -15 0 -15 10 0 10 0 0 15 0 15 15 0 15 0 0 10 0 10 -15
0 -15 0 0 15 0 15 15 0 15 0 0 -15 0 -15 15 0 15 0 0 15 0 15 10 0 10 0 0 -14
0 -14 -12 -6 -13 -6 12 -6 13 -6 0 -14 0 -14 -10 0 -10 0 0 -14 0 -14 12 -6
13 -6 -13 -6 -12 -6 0 -14 0 -14 10 0 10 0 0 -14 0 -14 -12 -6 -13 -6 13 -6
12 -6 0 -14 0 -14 -10 0 -10 0 0 -15 0 -15 -15 0 -15 0 0 15 0 15 -15 0 -15 0
0 -15 0 -15 -10 0 -10 0 0 15 0 15 -15 0 -15 0 0 -15 0 -15 -15 0 -15 0 0 15
0 15 -10 0 -10 0 0 -15 0 -15 -15 0 -15 0 0 15 0 15 -15 0 -15 0 0 -15 0 -15
-10 0 -10 0 0 15 0 15 -15 0 -15 0 0 -15 0 -15 -15 0 -15 0 0 15 0 15 -10 0
-10 0 0 -15 0 -15 -15 0 -15 0 0 15 0 15 -15 0 -15 0 0 -15 0 -15 -10 0 -10 0
0 15 0 15 -15 0 -15 0 0 -15 0 -15 -15 0 -15 0 0 15 0 15 -10 0 -10 0 0 -15 0
-15 -15 0 -15 0 0 15 0 15 -15 0 -15 0 0 -15 0 -15 -10 0 -10 0 0 15 0 15 -15
0 -15 0 0 -15 0 -15 -15 0 -15 0 0 15 0 15 -10 0 -10 0 0 -15 0 -15 -15 0 -15
0 0 15 0 15 -15 0 -15 0 0 -15 0 -15 -10 0 -10 0 0 15 0 15 -15 0 -15 0 0 -15
0 -15 -15 0 -15 0 0 15 0 15 -10 0 -10 0 0 -15 0 -15 -15 0 -15 0 0 15 0 15
-15 0 -15 0 0 -15 0 -15 -10 0 -10 0 0 15 0 15 -15 0 -15 0 0 -15 0 -15 -15 0
-15 0 0 15 0 15 -10 0 -10 0 0 -15 0 -15 -15 0 -15 0 0 15 0 15 -15 0 -15 0 0
-15 0 -15 -10 0 -10 0 0 15 0 15 -15 0 -15 0 0 -15 0 -15 -15 0 -15 0 0 15 0
15 -10 0 -10 0 0 -15 0 -15 -15 0 -15 0 0 15 0 15 -15 0 -15 0 0 -15 0 -15
-10 0 -10 0 0 15 0 15 10 0 10 0 0 14 0 14 -12 6 -13 6 12 6 13 6 0 14 0 14
-10 0 -10 0 0 14 0 14 13 6 12 6 -12 6 -13 6 0 14 0 14 10 0 10 0 0 14 0 14
-12 6 -13 6 13 6 12 6 0 14 0 14 15 0 15 0 0 -15z m130 -25 l0 -10 -10 0 -10
0 0 10 0 10 10 0 10 0 0 -10z m160 0 l0 -10 -10 0 -10 0 0 10 0 10 10 0 10 0
0 -10z m160 0 l0 -10 -10 0 -10 0 0 10 0 10 10 0 10 0 0 -10z m160 0 l0 -10
-10 0 -10 0 0 10 0 10 10 0 10 0 0 -10z m160 0 l0 -10 -10 0 -10 0 0 10 0 10
10 0 10 0 0 -10z m160 0 l0 -10 -10 0 -10 0 0 10 0 10 10 0 10 0 0 -10z m160
0 l0 -10 -10 0 -10 0 0 10 0 10 10 0 10 0 0 -10z"/>
<path d="M80 895 l0 -15 15 0 15 0 0 15 0 15 -15 0 -15 0 0 -15z"/>
<path d="M290 895 l0 -15 15 0 15 0 0 15 0 15 -15 0 -15 0 0 -15z"/>
<path d="M400 895 l0 -15 15 0 15 0 0 15 0 15 -15 0 -15 0 0 -15z"/>
<path d="M510 895 l0 -15 10 0 10 0 0 15 0 15 -10 0 -10 0 0 -15z"/>
<path d="M610 895 l0 -15 15 0 15 0 0 15 0 15 -15 0 -15 0 0 -15z"/>
<path d="M720 895 l0 -15 15 0 15 0 0 15 0 15 -15 0 -15 0 0 -15z"/>
<path d="M830 895 l0 -15 10 0 10 0 0 15 0 15 -10 0 -10 0 0 -15z"/>
<path d="M930 895 l0 -15 15 0 15 0 0 15 0 15 -15 0 -15 0 0 -15z"/>
<path d="M1040 895 l0 -15 15 0 15 0 0 15 0 15 -15 0 -15 0 0 -15z"/>
<path d="M1150 895 l0 -15 10 0 10 0 0 15 0 15 -10 0 -10 0 0 -15z"/>
<path d="M240 865 l0 -15 15 0 15 0 0 15 0 15 -15 0 -15 0 0 -15z"/>
<path d="M350 865 l0 -15 10 0 10 0 0 15 0 15 -10 0 -10 0 0 -15z"/>
<path d="M450 865 l0 -15 15 0 15 0 0 15 0 15 -15 0 -15 0 0 -15z"/>
<path d="M560 865 l0 -15 15 0 15 0 0 15 0 15 -15 0 -15 0 0 -15z"/>
<path d="M670 865 l0 -15 10 0 10 0 0 15 0 15 -10 0 -10 0 0 -15z"/>
<path d="M770 865 l0 -15 15 0 15 0 0 15 0 15 -15 0 -15 0 0 -15z"/>
<path d="M880 865 l0 -15 15 0 15 0 0 15 0 15 -15 0 -15 0 0 -15z"/>
<path d="M990 865 l0 -15 10 0 10 0 0 15 0 15 -10 0 -10 0 0 -15z"/>
<path d="M1090 865 l0 -15 15 0 15 0 0 15 0 15 -15 0 -15 0 0 -15z"/>
<path d="M1200 865 l0 -15 15 0 15 0 0 15 0 15 -15 0 -15 0 0 -15z"/>
<path d="M290 840 l0 -10 15 0 15 0 0 10 0 10 -15 0 -15 0 0 -10z"/>
<path d="M400 840 l0 -10 15 0 15 0 0 10 0 10 -15 0 -15 0 0 -10z"/>
<path d="M510 840 l0 -10 10 0 10 0 0 10 0 10 -10 0 -10 0 0 -10z"/>
<path d="M610 840 l0 -10 15 0 15 0 0 10 0 10 -15 0 -15 0 0 -10z"/>
<path d="M720 840 l0 -10 15 0 15 0 0 10 0 10 -15 0 -15 0 0 -10z"/>
<path d="M830 840 l0 -10 10 0 10 0 0 10 0 10 -10 0 -10 0 0 -10z"/>
<path d="M930 840 l0 -10 15 0 15 0 0 10 0 10 -15 0 -15 0 0 -10z"/>
<path d="M1040 840 l0 -10 15 0 15 0 0 10 0 10 -15 0 -15 0 0 -10z"/>
<path d="M1150 840 l0 -10 10 0 10 0 0 10 0 10 -10 0 -10 0 0 -10z"/>
<path d="M350 815 l0 -15 10 0 10 0 0 15 0 15 -10 0 -10 0 0 -15z"/>
<path d="M450 815 l0 -15 15 0 15 0 0 15 0 15 -15 0 -15 0 0 -15z"/>
<path d="M560 815 l0 -15 15 0 15 0 0 15 0 15 -15 0 -15 0 0 -15z"/>
<path d="M670 815 l0 -15 10 0 10 0 0 15 0 15 -10 0 -10 0 0 -15z"/>
<path d="M770 815 l0 -15 15 0 15 0 0 15 0 15 -15 0 -15 0 0 -15z"/>
<path d="M880 815 l0 -15 15 0 15 0 0 15 0 15 -15 0 -15 0 0 -15z"/>
<path d="M990 815 l0 -15 10 0 10 0 0 15 0 15 -10 0 -10 0 0 -15z"/>
<path d="M1090 815 l0 -15 15 0 15 0 0 15 0 15 -15 0 -15 0 0 -15z"/>
<path d="M1200 815 l0 -15 15 0 15 0 0 15 0 15 -15 0 -15 0 0 -15z"/>
<path d="M290 785 l0 -15 15 0 15 0 0 15 0 15 -15 0 -15 0 0 -15z"/>
<path d="M400 785 l0 -15 15 0 15 0 0 15 0 15 -15 0 -15 0 0 -15z"/>
<path d="M510 785 l0 -15 10 0 10 0 0 15 0 15 -10 0 -10 0 0 -15z"/>
<path d="M610 785 l0 -15 15 0 15 0 0 15 0 15 -15 0 -15 0 0 -15z"/>
<path d="M720 785 l0 -15 15 0 15 0 0 15 0 15 -15 0 -15 0 0 -15z"/>
<path d="M830 785 l0 -15 10 0 10 0 0 15 0 15 -10 0 -10 0 0 -15z"/>
<path d="M930 785 l0 -15 15 0 15 0 0 15 0 15 -15 0 -15 0 0 -15z"/>
<path d="M1040 785 l0 -15 15 0 15 0 0 15 0 15 -15 0 -15 0 0 -15z"/>
<path d="M1150 785 l0 -15 10 0 10 0 0 15 0 15 -10 0 -10 0 0 -15z"/>
<path d="M350 760 l0 -10 10 0 10 0 0 10 0 10 -10 0 -10 0 0 -10z"/>
<path d="M450 760 l0 -10 15 0 15 0 0 10 0 10 -15 0 -15 0 0 -10z"/>
<path d="M560 760 l0 -10 15 0 15 0 0 10 0 10 -15 0 -15 0 0 -10z"/>
<path d="M670 760 l0 -10 10 0 10 0 0 10 0 10 -10 0 -10 0 0 -10z"/>
<path d="M770 760 l0 -10 15 0 15 0 0 10 0 10 -15 0 -15 0 0 -10z"/>
<path d="M880 760 l0 -10 15 0 15 0 0 10 0 10 -15 0 -15 0 0 -10z"/>
<path d="M990 760 l0 -10 10 0 10 0 0 10 0 10 -10 0 -10 0 0 -10z"/>
<path d="M1090 760 l0 -10 15 0 15 0 0 10 0 10 -15 0 -15 0 0 -10z"/>
<path d="M1200 760 l0 -10 15 0 15 0 0 10 0 10 -15 0 -15 0 0 -10z"/>
<path d="M290 735 l0 -15 15 0 15 0 0 15 0 15 -15 0 -15 0 0 -15z"/>
<path d="M400 735 l0 -15 15 0 15 0 0 15 0 15 -15 0 -15 0 0 -15z"/>
<path d="M510 735 l0 -15 10 0 10 0 0 15 0 15 -10 0 -10 0 0 -15z"/>
<path d="M610 735 l0 -15 15 0 15 0 0 15 0 15 -15 0 -15 0 0 -15z"/>
<path d="M720 735 l0 -15 15 0 15 0 0 15 0 15 -15 0 -15 0 0 -15z"/>
<path d="M830 735 l0 -15 10 0 10 0 0 15 0 15 -10 0 -10 0 0 -15z"/>
<path d="M930 735 l0 -15 15 0 15 0 0 15 0 15 -15 0 -15 0 0 -15z"/>
<path d="M1040 735 l0 -15 15 0 15 0 0 15 0 15 -15 0 -15 0 0 -15z"/>
<path d="M1150 735 l0 -15 10 0 10 0 0 15 0 15 -10 0 -10 0 0 -15z"/>
<path d="M350 705 l0 -15 10 0 10 0 0 15 0 15 -10 0 -10 0 0 -15z"/>
<path d="M450 705 l0 -15 15 0 15 0 0 15 0 15 -15 0 -15 0 0 -15z"/>
<path d="M560 705 l0 -15 15 0 15 0 0 15 0 15 -15 0 -15 0 0 -15z"/>
<path d="M670 705 l0 -15 10 0 10 0 0 15 0 15 -10 0 -10 0 0 -15z"/>
<path d="M770 705 l0 -15 15 0 15 0 0 15 0 15 -15 0 -15 0 0 -15z"/>
<path d="M880 705 l0 -15 15 0 15 0 0 15 0 15 -15 0 -15 0 0 -15z"/>
<path d="M990 705 l0 -15 10 0 10 0 0 15 0 15 -10 0 -10 0 0 -15z"/>
<path d="M1090 705 l0 -15 15 0 15 0 0 15 0 15 -15 0 -15 0 0 -15z"/>
<path d="M1200 705 l0 -15 15 0 15 0 0 15 0 15 -15 0 -15 0 0 -15z"/>
<path d="M50 360 l0 -10 15 0 15 0 0 -15 0 -15 -15 0 -15 0 0 -15 0 -15 15 0
15 0 0 -10 0 -10 -15 0 -15 0 0 -15 0 -15 15 0 15 0 0 -15 0 -15 -15 0 -15 0
0 -10 0 -10 15 0 15 0 0 -15 0 -15 15 0 15 0 0 15 0 15 -15 0 -15 0 0 10 0 10
15 0 15 0 0 15 0 15 10 0 10 0 0 -15 0 -15 15 0 15 0 0 -10 0 -10 -15 0 -15 0
0 -15 0 -15 15 0 15 0 0 15 0 15 15 0 15 0 0 -15 0 -15 10 0 10 0 0 15 0 15
15 0 15 0 0 -15 0 -15 15 0 15 0 0 15 0 15 -15 0 -15 0 0 10 0 10 15 0 15 0 0
15 0 15 10 0 10 0 0 -15 0 -15 15 0 15 0 0 -10 0 -10 -15 0 -15 0 0 -15 0 -15
15 0 15 0 0 15 0 15 15 0 15 0 0 -15 0 -15 10 0 10 0 0 15 0 15 15 0 15 0 0
-15 0 -15 15 0 15 0 0 15 0 15 -15 0 -15 0 0 10 0 10 15 0 15 0 0 15 0 15 10
0 10 0 0 -15 0 -15 15 0 15 0 0 -10 0 -10 -15 0 -15 0 0 -15 0 -15 15 0 15 0
0 15 0 15 15 0 15 0 0 -15 0 -15 10 0 10 0 0 15 0 15 15 0 15 0 0 -15 0 -15
15 0 15 0 0 15 0 15 -15 0 -15 0 0 10 0 10 15 0 15 0 0 15 0 15 10 0 10 0 0
-15 0 -15 15 0 15 0 0 -10 0 -10 -15 0 -15 0 0 -15 0 -15 15 0 15 0 0 15 0 15
15 0 15 0 0 -15 0 -15 10 0 10 0 0 15 0 15 15 0 15 0 0 -15 0 -15 15 0 15 0 0
15 0 15 -15 0 -15 0 0 10 0 10 15 0 15 0 0 15 0 15 10 0 10 0 0 -15 0 -15 15
0 15 0 0 -10 0 -10 -15 0 -15 0 0 -15 0 -15 15 0 15 0 0 15 0 15 15 0 15 0 0
-15 0 -15 10 0 10 0 0 15 0 15 15 0 15 0 0 -15 0 -15 15 0 15 0 0 15 0 15 -15
0 -15 0 0 10 0 10 15 0 15 0 0 15 0 15 10 0 10 0 0 -15 0 -15 15 0 15 0 0 -10
0 -10 -15 0 -15 0 0 -15 0 -15 15 0 15 0 0 15 0 15 15 0 15 0 0 -15 0 -15 10
0 10 0 0 15 0 15 15 0 15 0 0 -15 0 -15 15 0 15 0 0 15 0 15 -15 0 -15 0 0 10
0 10 15 0 15 0 0 15 0 15 10 0 10 0 0 -15 0 -15 15 0 15 0 0 -10 0 -10 -15 0
-15 0 0 -15 0 -15 15 0 15 0 0 15 0 15 15 0 15 0 0 -15 0 -15 10 0 10 0 0 15
0 15 15 0 15 0 0 -15 0 -15 15 0 15 0 0 15 0 15 -15 0 -15 0 0 10 0 10 15 0
15 0 0 15 0 15 -15 0 -15 0 0 15 0 15 15 0 15 0 0 10 0 10 -15 0 -15 0 0 15 0
15 15 0 15 0 0 15 0 15 -15 0 -15 0 0 -15 0 -15 -15 0 -15 0 0 -15 0 -15 15 0
15 0 0 -10 0 -10 -15 0 -15 0 0 -15 0 -15 -10 0 -10 0 0 15 0 15 -15 0 -15 0
0 10 0 10 15 0 15 0 0 15 0 15 -15 0 -15 0 0 15 0 15 -14 0 -14 0 -6 13 -6 12
-6 -12 -6 -13 -14 0 -14 0 0 -15 0 -15 -15 0 -15 0 0 -15 0 -15 15 0 15 0 0
-10 0 -10 -15 0 -15 0 0 -15 0 -15 -10 0 -10 0 0 15 0 15 -15 0 -15 0 0 10 0
10 15 0 15 0 0 15 0 15 -15 0 -15 0 0 15 0 15 -14 0 -14 0 -6 13 -6 12 -6 -12
-6 -13 -14 0 -14 0 0 -15 0 -15 -15 0 -15 0 0 -15 0 -15 15 0 15 0 0 -10 0
-10 -15 0 -15 0 0 -15 0 -15 -10 0 -10 0 0 15 0 15 -15 0 -15 0 0 10 0 10 15
0 15 0 0 15 0 15 -15 0 -15 0 0 15 0 15 -14 0 -14 0 -6 13 -6 12 -6 -12 -6
-13 -14 0 -14 0 0 -15 0 -15 -15 0 -15 0 0 -15 0 -15 15 0 15 0 0 -10 0 -10
-15 0 -15 0 0 -15 0 -15 -10 0 -10 0 0 15 0 15 -15 0 -15 0 0 10 0 10 15 0 15
0 0 15 0 15 -15 0 -15 0 0 15 0 15 -14 0 -14 0 -6 13 -6 12 -6 -12 -6 -13 -14
0 -14 0 0 -15 0 -15 -15 0 -15 0 0 -15 0 -15 15 0 15 0 0 -10 0 -10 -15 0 -15
0 0 -15 0 -15 -10 0 -10 0 0 15 0 15 -15 0 -15 0 0 10 0 10 15 0 15 0 0 15 0
15 -15 0 -15 0 0 15 0 15 -14 0 -14 0 -6 13 -6 12 -6 -12 -6 -13 -14 0 -14 0
0 -15 0 -15 -15 0 -15 0 0 -15 0 -15 15 0 15 0 0 -10 0 -10 -15 0 -15 0 0 -15
0 -15 -10 0 -10 0 0 15 0 15 -15 0 -15 0 0 10 0 10 15 0 15 0 0 15 0 15 -15 0
-15 0 0 15 0 15 -14 0 -14 0 -6 13 -6 12 -6 -12 -6 -13 -14 0 -14 0 0 -15 0
-15 -15 0 -15 0 0 -15 0 -15 15 0 15 0 0 -10 0 -10 -15 0 -15 0 0 -15 0 -15
-10 0 -10 0 0 15 0 15 -15 0 -15 0 0 10 0 10 15 0 15 0 0 15 0 15 -15 0 -15 0
0 15 0 15 -14 0 -14 0 -6 13 -6 12 -6 -12 -6 -13 -14 0 -14 0 0 10 0 10 -15 0
-15 0 0 -10z m80 -25 l0 -15 15 0 15 0 0 -15 0 -15 -15 0 -15 0 0 15 0 15 -10
0 -10 0 0 -15 0 -15 -15 0 -15 0 0 15 0 15 15 0 15 0 0 15 0 15 10 0 10 0 0
-15z m160 0 l0 -15 15 0 15 0 0 -15 0 -15 -15 0 -15 0 0 15 0 15 -10 0 -10 0
0 -15 0 -15 -15 0 -15 0 0 15 0 15 15 0 15 0 0 15 0 15 10 0 10 0 0 -15z m160
0 l0 -15 15 0 15 0 0 -15 0 -15 -15 0 -15 0 0 15 0 15 -10 0 -10 0 0 -15 0
-15 -15 0 -15 0 0 15 0 15 15 0 15 0 0 15 0 15 10 0 10 0 0 -15z m160 0 l0
-15 15 0 15 0 0 -15 0 -15 -15 0 -15 0 0 15 0 15 -10 0 -10 0 0 -15 0 -15 -15
0 -15 0 0 15 0 15 15 0 15 0 0 15 0 15 10 0 10 0 0 -15z m160 0 l0 -15 15 0
15 0 0 -15 0 -15 -15 0 -15 0 0 15 0 15 -10 0 -10 0 0 -15 0 -15 -15 0 -15 0
0 15 0 15 15 0 15 0 0 15 0 15 10 0 10 0 0 -15z m160 0 l0 -15 15 0 15 0 0
-15 0 -15 -15 0 -15 0 0 15 0 15 -10 0 -10 0 0 -15 0 -15 -15 0 -15 0 0 15 0
15 15 0 15 0 0 15 0 15 10 0 10 0 0 -15z m160 0 l0 -15 15 0 15 0 0 -15 0 -15
-15 0 -15 0 0 15 0 15 -10 0 -10 0 0 -15 0 -15 -15 0 -15 0 0 15 0 15 15 0 15
0 0 15 0 15 10 0 10 0 0 -15z m-960 -55 l0 -10 15 0 15 0 0 -15 0 -15 15 0 15
0 0 -15 0 -15 10 0 10 0 0 15 0 15 15 0 15 0 0 15 0 15 14 0 14 0 6 13 6 12 6
-12 6 -13 14 0 14 0 0 -15 0 -15 15 0 15 0 0 -15 0 -15 10 0 10 0 0 15 0 15
15 0 15 0 0 15 0 15 14 0 14 0 6 13 6 12 6 -12 6 -13 14 0 14 0 0 -15 0 -15
15 0 15 0 0 -15 0 -15 10 0 10 0 0 15 0 15 15 0 15 0 0 15 0 15 14 0 14 0 6
13 6 12 6 -12 6 -13 14 0 14 0 0 -15 0 -15 15 0 15 0 0 -15 0 -15 10 0 10 0 0
15 0 15 15 0 15 0 0 15 0 15 14 0 14 0 6 13 6 12 6 -12 6 -13 14 0 14 0 0 -15
0 -15 15 0 15 0 0 -15 0 -15 10 0 10 0 0 15 0 15 15 0 15 0 0 15 0 15 14 0 14
0 6 13 6 12 6 -12 6 -13 14 0 14 0 0 -15 0 -15 15 0 15 0 0 -15 0 -15 10 0 10
0 0 15 0 15 15 0 15 0 0 15 0 15 14 0 14 0 6 13 6 12 6 -12 6 -13 14 0 14 0 0
-15 0 -15 15 0 15 0 0 -15 0 -15 10 0 10 0 0 15 0 15 15 0 15 0 0 -15 0 -15
-14 0 -14 0 -6 -12 -6 -13 -6 13 -6 12 -14 0 -14 0 0 15 0 15 -15 0 -15 0 0
15 0 15 -10 0 -10 0 0 -15 0 -15 -15 0 -15 0 0 -15 0 -15 -14 0 -14 0 -6 -12
-6 -13 -6 13 -6 12 -14 0 -14 0 0 15 0 15 -15 0 -15 0 0 15 0 15 -10 0 -10 0
0 -15 0 -15 -15 0 -15 0 0 -15 0 -15 -14 0 -14 0 -6 -12 -6 -13 -6 13 -6 12
-14 0 -14 0 0 15 0 15 -15 0 -15 0 0 15 0 15 -10 0 -10 0 0 -15 0 -15 -15 0
-15 0 0 -15 0 -15 -14 0 -14 0 -6 -12 -6 -13 -6 13 -6 12 -14 0 -14 0 0 15 0
15 -15 0 -15 0 0 15 0 15 -10 0 -10 0 0 -15 0 -15 -15 0 -15 0 0 -15 0 -15
-14 0 -14 0 -6 -12 -6 -13 -6 13 -6 12 -14 0 -14 0 0 15 0 15 -15 0 -15 0 0
15 0 15 -10 0 -10 0 0 -15 0 -15 -15 0 -15 0 0 -15 0 -15 -14 0 -14 0 -6 -12
-6 -13 -6 13 -6 12 -14 0 -14 0 0 15 0 15 -15 0 -15 0 0 15 0 15 -10 0 -10 0
0 -15 0 -15 -15 0 -15 0 0 -15 0 -15 -14 0 -14 0 -6 -12 -6 -13 -6 13 -6 12
-14 0 -14 0 0 15 0 15 -15 0 -15 0 0 15 0 15 -10 0 -10 0 0 -15 0 -15 -15 0
-15 0 0 15 0 15 15 0 15 0 0 10 0 10 10 0 10 0 0 -10z"/>
<path d="M190 280 l0 -10 10 0 10 0 0 10 0 10 -10 0 -10 0 0 -10z"/>
<path d="M350 280 l0 -10 10 0 10 0 0 10 0 10 -10 0 -10 0 0 -10z"/>
<path d="M510 280 l0 -10 10 0 10 0 0 10 0 10 -10 0 -10 0 0 -10z"/>
<path d="M670 280 l0 -10 10 0 10 0 0 10 0 10 -10 0 -10 0 0 -10z"/>
<path d="M830 280 l0 -10 10 0 10 0 0 10 0 10 -10 0 -10 0 0 -10z"/>
<path d="M990 280 l0 -10 10 0 10 0 0 10 0 10 -10 0 -10 0 0 -10z"/>
<path d="M1150 280 l0 -10 10 0 10 0 0 10 0 10 -10 0 -10 0 0 -10z"/>
<path d="M110 200 l0 -10 10 0 10 0 0 10 0 10 -10 0 -10 0 0 -10z"/>
<path d="M270 200 l0 -10 10 0 10 0 0 10 0 10 -10 0 -10 0 0 -10z"/>
<path d="M430 200 l0 -10 10 0 10 0 0 10 0 10 -10 0 -10 0 0 -10z"/>
<path d="M590 200 l0 -10 10 0 10 0 0 10 0 10 -10 0 -10 0 0 -10z"/>
<path d="M750 200 l0 -10 10 0 10 0 0 10 0 10 -10 0 -10 0 0 -10z"/>
<path d="M910 200 l0 -10 10 0 10 0 0 10 0 10 -10 0 -10 0 0 -10z"/>
<path d="M1070 200 l0 -10 10 0 10 0 0 10 0 10 -10 0 -10 0 0 -10z"/>
</g>
</svg>
