<?xml version="1.0" standalone="no"?>
<!DOCTYPE svg PUBLIC "-//W3C//DTD SVG 20010904//EN"
 "http://www.w3.org/TR/2001/REC-SVG-20010904/DTD/svg10.dtd">
<svg version="1.0" xmlns="http://www.w3.org/2000/svg"
 width="468pt" height="468pt" viewBox="0 0 468 468"
 preserveAspectRatio="xMidYMid meet">
<metadata>
Created by potrace 1.8, written by Peter Selinger 2001-2007
</metadata>
<g transform="translate(0,468) scale(0.365625,-0.365625)"
fill="#000000" stroke="none">
<path d="M100 1155 l0 -6 35 -34 34 -35 16 0 15 0 0 -10 0 -10 16 0 16 0 28
-30 28 -30 12 0 11 0 15 -14 14 -15 0 -15 0 -16 20 0 20 0 0 -10 0 -10 16 0
16 0 28 -30 28 -30 16 0 16 0 0 -10 0 -10 16 0 16 0 28 -30 28 -30 26 0 26 0
0 -10 0 -10 16 0 15 0 15 -14 14 -15 0 -35 0 -36 10 0 10 0 0 -40 0 -40 10 0
10 0 0 -28 0 -28 20 -14 20 -14 0 -28 0 -28 10 0 10 0 0 -20 0 -20 10 0 10 0
0 -26 0 -25 14 -15 15 -14 15 0 16 0 0 40 0 40 -10 0 -10 0 0 20 0 20 -10 0
-10 0 0 10 0 10 75 0 76 0 34 35 35 34 0 21 0 22 40 38 40 38 0 22 0 21 -14
15 -15 14 -15 0 -16 0 0 10 0 10 -50 0 -50 0 0 10 0 10 -20 0 -20 0 0 10 0 10
-26 0 -26 0 -28 30 -28 30 -16 0 -16 0 0 10 0 10 -20 0 -20 0 0 6 0 5 14 15
15 14 15 0 16 0 0 10 0 10 30 0 30 0 0 -10 0 -10 20 0 20 0 0 -10 0 -10 20 0
20 0 0 -10 0 -10 18 0 18 0 14 -20 14 -20 18 0 18 0 0 -10 0 -10 20 0 20 0 0
-10 0 -10 40 0 40 0 0 10 0 10 -20 0 -20 0 0 10 0 10 -15 0 -16 0 -34 35 -35
34 0 6 0 5 16 0 15 0 15 14 14 15 0 21 0 21 -14 15 -15 14 -44 0 -45 0 -6 -12
-6 -13 -6 13 -6 12 -19 0 -19 0 0 10 0 10 -50 0 -50 0 0 -10 0 -10 -30 0 -30
0 0 -10 0 -10 -20 0 -20 0 0 -10 0 -10 -70 0 -70 0 0 10 0 10 -30 0 -30 0 0
10 0 10 -20 0 -20 0 0 10 0 10 -20 0 -20 0 0 10 0 10 -29 0 -29 0 -5 -12 -4
-13 -20 23 -20 22 -17 0 -16 0 0 10 0 10 -18 0 -18 0 -14 20 -14 20 -18 0 -18
0 0 10 0 10 -20 0 -20 0 0 10 0 10 -30 0 -30 0 0 -5z m60 -25 l0 -10 20 0 20
0 0 -10 0 -10 -16 0 -15 0 -15 14 -14 15 0 5 0 6 10 0 10 0 0 -10z m90 -50
l14 -20 18 0 18 0 0 -10 0 -10 18 0 18 0 14 -20 14 -20 18 0 18 0 0 10 0 10
20 0 20 0 0 -10 0 -10 20 0 20 0 0 -10 0 -10 20 0 20 0 0 -10 0 -10 30 0 30 0
0 -10 0 -10 55 0 56 0 24 -25 25 -24 0 -15 0 -14 -12 -5 -13 -4 8 -9 8 -8 10
14 11 15 5 -12 5 -13 19 0 19 0 0 -10 0 -10 16 0 16 0 28 -30 28 -30 26 0 26
0 0 -10 0 -10 16 0 16 0 29 -31 30 -32 7 7 6 7 -14 9 -14 9 7 8 8 7 10 -14 9
-15 9 14 9 14 26 -26 26 -26 0 -11 0 -11 -52 -51 -51 -50 13 -8 13 -8 -26 -26
-26 -26 -15 0 -14 0 -5 13 -5 12 -11 -15 -11 -15 -10 15 -10 15 -10 -15 -10
-15 -10 15 -10 15 -9 -15 -10 -14 -7 6 -6 7 18 18 17 18 5 -13 4 -12 9 0 9 0
0 16 0 15 15 16 15 15 30 -32 31 -33 7 7 6 7 -14 9 -14 9 7 8 8 7 9 -14 9 -14
7 6 6 7 -17 17 -17 17 -8 -13 -8 -13 -16 16 -16 16 0 15 0 16 10 0 10 0 0 19
0 19 -12 5 -13 5 15 11 15 11 -15 10 -15 10 14 9 14 9 -17 18 -18 17 -8 -14
-9 -13 -21 24 -21 24 -9 -14 -9 -14 -21 24 -21 24 -9 -14 -9 -14 -21 24 -21
24 -10 -14 -9 -15 -10 15 -10 15 -9 -15 -10 -14 -21 23 -20 24 -7 -7 -7 -7 14
-9 14 -9 -6 -7 -7 -7 -31 33 -31 33 -7 -7 -6 -7 14 -9 14 -9 -6 -7 -7 -7 -30
32 -29 31 -16 0 -16 0 0 10 0 10 -16 0 -16 0 -28 30 -28 30 -12 0 -11 0 -15
14 -14 15 0 15 0 16 -20 0 -20 0 0 10 0 10 -15 0 -16 0 -34 35 -35 34 0 6 0 5
8 0 8 0 14 -20z m670 -90 l0 -10 20 0 20 0 0 -10 0 -10 19 0 19 0 5 13 5 12
12 -15 12 -15 5 13 5 12 19 0 19 0 0 -6 0 -5 -14 -15 -15 -14 -45 0 -46 0 0
10 0 10 -30 0 -30 0 0 -10 0 -10 -40 0 -40 0 0 -10 0 -10 -19 0 -19 0 -4 -12
-4 -12 -27 26 -27 27 0 6 0 5 20 0 20 0 0 10 0 10 39 0 39 0 5 -12 4 -13 9 9
9 9 -12 4 -13 5 0 9 0 9 40 0 40 0 0 -10z m40 -60 l0 -10 15 0 16 0 45 -46 46
-45 -7 -7 -8 -7 -4 13 -5 12 -17 0 -17 0 -14 20 -14 20 -18 0 -18 0 0 10 0 10
-16 0 -15 0 -15 14 -14 15 0 5 0 6 30 0 30 0 0 -10z m-237 -162 l5 -13 11 15
10 14 21 -24 21 -24 9 14 9 14 21 -24 21 -24 9 14 9 14 21 -24 21 -24 9 14 9
14 8 -7 7 -8 -14 -10 -15 -9 15 -10 15 -10 -15 -11 -15 -11 13 -5 12 -5 0 -19
0 -19 -10 0 -10 0 0 -20 0 -20 -20 0 -20 0 0 -10 0 -10 -19 0 -19 0 -5 13 -4
12 -9 -9 -9 -9 13 -4 12 -5 0 -9 0 -9 -40 0 -40 0 0 30 0 30 -10 0 -10 0 0 40
0 40 -10 0 -10 0 0 40 0 40 -10 0 -10 0 0 20 0 20 9 0 9 0 5 -12z m97 -308 l0
-20 10 0 10 0 0 -20 0 -20 10 0 10 0 0 -30 0 -30 -10 0 -10 0 0 30 0 30 -10 0
-10 0 0 20 0 20 -10 0 -10 0 0 20 0 20 10 0 10 0 0 -20z"/>
<path d="M400 970 l0 -10 10 0 10 0 0 10 0 10 -10 0 -10 0 0 -10z"/>
<path d="M440 950 l0 -10 10 0 10 0 0 10 0 10 -10 0 -10 0 0 -10z"/>
<path d="M480 910 l0 -10 10 0 10 0 0 10 0 10 -10 0 -10 0 0 -10z"/>
<path d="M540 890 l0 -10 10 0 10 0 0 10 0 10 -10 0 -10 0 0 -10z"/>
<path d="M600 890 l0 -10 10 0 10 0 0 10 0 10 -10 0 -10 0 0 -10z"/>
<path d="M660 870 l0 -10 10 0 10 0 0 10 0 10 -10 0 -10 0 0 -10z"/>
<path d="M1060 690 l0 -10 10 0 10 0 0 10 0 10 -10 0 -10 0 0 -10z"/>
<path d="M1000 655 l0 -6 25 -25 25 -25 16 16 16 16 -6 7 -7 6 -9 -14 -9 -14
-19 22 -19 22 -7 0 -6 0 0 -5z"/>
<path d="M980 590 l0 -10 10 0 10 0 0 10 0 10 -10 0 -10 0 0 -10z"/>
<path d="M760 690 l0 -10 10 0 10 0 0 10 0 10 -10 0 -10 0 0 -10z"/>
<path d="M800 630 l0 -10 10 0 10 0 0 10 0 10 -10 0 -10 0 0 -10z"/>
<path d="M800 590 l0 -10 10 0 10 0 0 10 0 10 -10 0 -10 0 0 -10z"/>
<path d="M700 370 l0 -10 -29 0 -29 0 -5 -12 -5 -13 -11 15 -11 15 -10 -15
-10 -15 -9 14 -9 14 -17 -17 -17 -17 6 -7 7 -6 10 14 9 15 10 -15 10 -15 9 14
9 15 32 -34 32 -34 8 14 9 14 19 -22 19 -22 46 0 45 0 5 13 4 12 22 -25 22
-24 10 14 9 15 10 -15 10 -15 10 15 10 15 10 -15 10 -15 10 15 10 15 9 -15 10
-14 20 23 21 24 20 -23 20 -23 7 7 7 7 -14 10 -15 9 15 10 15 10 -15 10 -15
10 15 9 14 10 -7 8 -8 7 -9 -13 -8 -14 -18 17 -17 18 14 8 13 9 -7 8 -8 7 -10
-14 -9 -15 -10 15 -10 15 -10 -15 -10 -15 -10 15 -10 15 -10 -15 -10 -15 -9
15 -10 14 -8 -7 -7 -8 14 -10 15 -9 -14 -9 -14 -9 17 -18 18 -17 8 14 9 13 8
-7 7 -8 -14 -10 -15 -9 15 -9 14 -10 -7 -7 -7 -7 -20 24 -21 23 -10 -14 -9
-15 -10 15 -10 15 -9 -14 -9 -14 -37 38 -38 37 14 9 13 8 -6 7 -7 7 -31 -33
-31 -33 -7 7 -6 7 13 9 14 8 -16 16 -16 16 -5 0 -6 0 0 -10z m260 -20 l0 -10
-10 0 -10 0 0 10 0 10 10 0 10 0 0 -10z m66 -26 l36 -35 -6 -6 -6 -6 -20 24
-21 23 -9 -14 -9 -14 -8 7 -7 8 14 10 15 11 -12 5 -13 5 0 9 0 9 5 0 6 0 35
-36z m-363 4 l5 -13 11 15 10 14 7 -6 6 -7 -16 -16 -16 -16 -15 15 -15 15 0 5
0 6 9 0 9 0 5 -12z m134 -14 l25 -25 -6 -7 -7 -6 -10 14 -9 15 -9 -15 -10 -14
-8 7 -7 8 14 10 15 11 -12 5 -13 5 0 9 0 9 5 0 6 0 26 -26z m-57 -24 l0 -10
-10 0 -10 0 0 10 0 10 10 0 10 0 0 -10z m260 -20 l0 -10 -10 0 -10 0 0 10 0
10 10 0 10 0 0 -10z"/>
<path d="M440 350 l0 -10 10 0 10 0 0 10 0 10 -10 0 -10 0 0 -10z"/>
<path d="M480 354 l0 -5 15 -16 16 -15 6 5 5 6 -15 16 -16 15 -5 0 -6 0 0 -6z"/>
<path d="M1100 290 l0 -10 10 0 10 0 0 10 0 10 -10 0 -10 0 0 -10z"/>
<path d="M0 100 l0 -100 640 0 640 0 0 100 0 100 -640 0 -640 0 0 -100z"/>
</g>
</svg>
