<?xml version="1.0" standalone="no"?>
<!DOCTYPE svg PUBLIC "-//W3C//DTD SVG 20010904//EN"
 "http://www.w3.org/TR/2001/REC-SVG-20010904/DTD/svg10.dtd">
<svg version="1.0" xmlns="http://www.w3.org/2000/svg"
 width="468pt" height="468pt" viewBox="0 0 468 468"
 preserveAspectRatio="xMidYMid meet">
<metadata>
Created by potrace 1.8, written by Peter Selinger 2001-2007
</metadata>
<g transform="translate(0,468) scale(0.365625,-0.365625)"
fill="#000000" stroke="none">
<path d="M172 1105 l1 -160 4 33 4 32 24 0 24 0 4 -32 4 -33 1 33 2 32 24 0
25 0 4 -32 4 -33 1 113 2 112 40 0 39 0 4 -110 3 -110 0 112 -1 113 -42 3 -43
3 0 42 -1 42 -13 -30 -13 -30 7 -30 7 -30 2 -62 2 -63 -26 0 -26 0 2 66 2 66
13 5 14 5 0 10 0 9 -12 -7 -11 -7 5 14 5 14 -13 35 -12 35 -1 -122 -1 -123
-26 0 -25 0 2 63 2 62 5 18 5 19 8 -14 9 -13 0 29 0 29 -7 -7 -8 -7 -11 33
-12 33 0 -160z"/>
<path d="M62 1144 l-2 -102 -15 -6 -15 -5 0 -13 0 -13 10 15 10 15 0 -50 0
-49 10 10 11 11 -4 144 -3 144 -2 -101z"/>
<path d="M100 1216 l0 -4 20 -5 20 -5 0 9 0 9 -20 0 -20 0 0 -4z"/>
<path d="M452 1135 l0 -40 5 17 4 17 17 4 17 5 -17 1 -17 1 -4 18 -5 17 0 -40z"/>
<path d="M661 1140 l12 -35 5 -5 5 -5 -7 30 -7 30 -10 10 -10 10 12 -35z"/>
<path d="M198 1143 l13 -5 6 6 6 6 -19 -1 -19 -1 13 -5z"/>
<path d="M258 1143 l13 -5 6 6 6 6 -19 -1 -19 -1 13 -5z"/>
<path d="M514 1135 l-7 -16 11 -11 11 -11 -6 22 -5 21 10 0 11 0 4 -22 5 -23
-1 24 -2 24 -12 5 -13 4 -6 -17z"/>
<path d="M567 1143 l-4 -8 8 -20 8 -20 0 22 1 21 13 5 12 5 -17 1 -17 1 -4 -7z"/>
<path d="M714 1135 l-6 -14 5 -13 5 -13 1 23 1 22 11 0 11 0 -5 -21 -6 -22 11
11 11 11 -6 15 -6 16 -11 0 -11 0 -5 -15z"/>
<path d="M760 1131 l0 -20 10 -6 10 -6 0 25 0 26 -10 0 -10 0 0 -19z"/>
<path d="M795 1125 l0 -25 8 0 7 0 0 25 0 25 -7 0 -8 0 0 -25z"/>
<path d="M827 1143 l-4 -8 8 -20 8 -20 0 22 1 21 13 5 12 5 -17 1 -17 1 -4 -7z"/>
<path d="M108 1133 l12 -5 13 5 12 5 -25 0 -25 0 13 -5z"/>
<path d="M211 1114 l1 -19 5 13 5 13 -6 6 -6 6 1 -19z"/>
<path d="M326 1111 l-2 -6 2 -20 3 -20 7 -24 7 -24 -11 7 -12 7 0 -9 0 -9 6
-6 6 -6 13 12 12 13 0 45 0 46 -14 0 -14 0 -3 -6z m22 -26 l-6 -6 -6 18 -7 18
12 -12 13 -13 -6 -5z"/>
<path d="M104 1065 l-2 -25 9 0 9 0 0 25 0 25 -7 0 -8 0 -1 -25z"/>
<path d="M445 1033 l-1 -48 -5 -15 -6 -15 4 8 5 7 368 0 368 0 5 -7 4 -8 -5
15 -4 15 -7 30 -7 30 -17 1 -17 2 15 -5 15 -4 0 -25 0 -24 -10 0 -10 0 -7 0
-8 -1 -6 33 -6 33 -2 -33 -1 -33 -14 -5 -14 -6 -22 12 -22 12 6 26 6 27 -11
-19 -12 -19 12 -19 12 -20 -18 4 -18 3 -6 35 -6 35 -4 -35 -4 -35 -15 0 -15 0
-6 45 -6 45 -1 -47 -2 -48 -15 0 -15 0 0 35 0 35 -9 0 -8 0 5 -25 4 -25 -13 0
-14 0 15 -10 15 -10 -12 0 -12 0 -6 10 -7 11 14 17 13 17 -17 -14 -18 -13 0
-16 0 -16 -9 9 -9 10 -4 24 -3 24 -15 4 -15 5 13 -10 14 -9 -4 -24 -3 -24 -10
0 -10 0 -3 33 -3 32 -25 0 -24 0 0 -36 0 -35 -17 3 -18 3 -3 27 -3 26 18 5 18
5 -22 1 -22 1 -3 -32 -3 -33 -55 0 -55 0 -3 44 -3 44 18 -7 18 -7 -12 12 -11
11 -11 -6 -11 -7 0 -40 0 -39 -9 0 -10 0 -3 28 -3 27 -27 3 -27 3 -3 -33 -3
-33 -15 0 -15 0 0 48 0 47 -10 0 -10 0 0 -47z m103 -18 l-3 -26 -10 0 -10 0
-3 26 -3 25 16 0 16 0 -3 -25z m252 0 l0 -25 -10 0 -10 0 0 25 0 25 10 0 10 0
0 -25z"/>
<path d="M637 1043 l-7 -6 0 -24 0 -23 8 0 7 0 1 30 1 30 -2 0 -2 0 -6 -7z"/>
<path d="M679 1018 l5 -33 4 24 4 23 -9 9 -10 10 6 -33z"/>
<path d="M1079 1018 l5 -33 4 24 4 23 -9 9 -10 10 6 -33z"/>
<path d="M1233 965 l0 -50 4 28 4 27 -4 23 -4 22 0 -50z"/>
<path d="M328 968 l10 -10 13 4 13 4 -23 7 -24 6 11 -11z"/>
<path d="M0 440 l0 -440 640 0 640 0 0 440 0 440 -640 0 -640 0 0 -440z"/>
</g>
</svg>
