<?xml version="1.0" standalone="no"?>
<!DOCTYPE svg PUBLIC "-//W3C//DTD SVG 20010904//EN"
 "http://www.w3.org/TR/2001/REC-SVG-20010904/DTD/svg10.dtd">
<svg version="1.0" xmlns="http://www.w3.org/2000/svg"
 width="468pt" height="468pt" viewBox="0 0 468 468"
 preserveAspectRatio="xMidYMid meet">
<metadata>
Created by potrace 1.8, written by Peter Selinger 2001-2007
</metadata>
<g transform="translate(0,468) scale(0.365625,-0.365625)"
fill="#000000" stroke="none">
<path d="M290 1204 l0 -6 30 -28 30 -28 0 -6 0 -6 -18 0 -19 0 -21 -19 -22
-18 0 -17 0 -16 -55 0 -55 0 0 10 0 10 -35 0 -35 0 0 -20 0 -20 -10 0 -10 0 0
-15 0 -15 10 0 10 0 0 -18 0 -18 20 -14 20 -14 0 -49 0 -48 13 -15 12 -15 13
-14 12 -14 0 -6 0 -6 25 -24 24 -25 93 0 94 0 14 20 14 20 18 0 18 0 0 -10 0
-10 -10 0 -10 0 0 -20 0 -20 9 0 10 0 6 20 6 20 10 0 9 0 0 20 0 20 10 0 10 0
0 -16 0 -17 -22 -20 -23 -20 13 -4 12 -5 0 -33 0 -33 -12 -5 -13 -5 15 -11 15
-11 -11 -7 -11 -8 -7 -22 -7 -23 -20 0 -19 0 0 9 0 9 13 5 12 4 -7 8 -8 8 -20
-24 -21 -23 -10 14 -9 15 -10 -15 -10 -15 0 -7 0 -8 54 0 55 0 6 20 6 20 7 0
8 0 14 -20 14 -20 60 0 59 0 18 22 19 21 0 24 0 23 10 0 10 0 0 -35 0 -35 54
0 54 0 6 13 6 12 6 -12 6 -13 94 0 95 0 24 25 25 24 0 11 0 10 10 0 10 0 0 30
0 30 9 0 9 0 7 51 7 51 -28 26 -29 25 13 4 12 5 0 29 0 29 11 0 10 0 15 -14
14 -15 0 -25 0 -26 10 0 10 0 0 -25 0 -25 10 0 10 0 0 -30 0 -30 10 0 10 0 0
-31 0 -30 14 -15 14 -14 5 -12 4 -13 8 7 7 7 -16 16 -16 16 0 35 0 34 -10 0
-10 0 0 40 0 40 -10 0 -10 0 0 25 0 25 -10 0 -10 0 0 30 0 31 -22 25 -23 24
-31 33 -31 32 -22 15 -21 14 -6 18 -5 18 -20 0 -19 0 0 10 0 10 -186 0 -185 0
-15 15 -15 15 -55 0 -54 0 0 6 0 5 15 15 15 15 0 10 0 9 -10 0 -11 0 -35 -35
-35 -35 -9 0 -10 0 0 -24 0 -24 -6 -16 -6 -16 -9 0 -9 0 0 18 0 18 -20 14 -20
14 0 8 0 8 35 0 35 0 0 14 0 14 -29 31 -29 31 -16 0 -16 0 0 -6z m270 -104
l14 -20 198 0 198 0 0 -10 0 -10 19 0 20 0 6 -19 6 -20 20 -6 19 -6 0 -30 0
-29 10 0 10 0 0 -35 0 -35 -10 0 -10 0 0 -40 0 -40 8 0 9 0 24 -21 24 -22 -12
-4 -13 -5 0 -29 0 -29 -10 0 -10 0 0 -25 0 -25 -10 0 -10 0 0 -19 0 -20 -20
-6 -20 -6 0 -10 0 -9 -35 0 -35 0 0 9 0 10 23 4 22 4 -22 2 -22 1 -15 -15 -15
-15 -20 0 -21 0 0 9 0 10 18 4 17 5 -17 1 -17 1 -15 -15 -15 -15 -5 0 -6 0 0
11 0 10 14 15 15 14 40 0 41 0 0 29 0 29 -12 6 -13 6 23 -6 22 -5 0 15 0 16
-18 0 -18 0 -14 21 -15 21 -12 14 -13 13 0 20 0 21 10 0 10 0 0 40 0 40 -10 0
-10 0 0 -30 0 -30 -10 0 -10 0 0 -20 0 -20 -30 0 -30 0 0 10 0 10 -25 0 -25 0
0 45 0 45 -10 0 -10 0 0 20 0 20 -10 0 -10 0 0 -20 0 -20 10 0 10 0 0 -45 0
-45 -10 0 -10 0 0 -65 0 -65 -9 0 -8 0 -7 -56 -6 -56 -14 -14 -15 -14 -25 0
-26 0 0 10 0 10 20 0 20 0 0 10 0 10 -19 0 -20 0 -6 -20 -6 -20 -20 0 -19 0 0
10 0 10 10 0 10 0 0 10 0 10 -20 0 -20 0 0 -10 0 -10 -10 0 -10 0 0 15 0 15
26 0 27 0 18 22 19 21 0 24 0 23 10 0 10 0 0 55 0 55 10 0 10 0 0 116 0 115
-14 15 -15 14 -26 0 -26 0 -15 -14 -14 -15 0 -102 0 -102 -22 -18 -21 -19 -21
0 -22 0 -14 -20 -14 -20 -94 0 -93 0 -15 14 -14 15 0 10 0 11 55 0 55 0 0 10
0 10 30 0 30 0 0 10 0 10 11 0 10 0 16 15 15 16 -7 7 -8 7 -4 -12 -5 -13 -14
0 -14 0 0 -10 0 -10 -30 0 -30 0 0 -10 0 -10 -74 0 -74 0 -6 16 -6 16 0 49 0
49 11 0 10 0 15 14 14 15 0 30 0 31 45 0 45 0 0 -10 0 -10 39 0 38 0 19 -25
19 -25 38 0 38 0 15 14 14 15 0 30 0 31 -9 0 -10 0 -6 20 -6 20 -30 0 -29 0 0
10 0 10 63 0 63 0 14 -20z m-76 -36 l6 -16 0 -29 0 -29 -35 0 -35 0 0 10 0 10
10 0 10 0 0 25 0 25 -20 0 -20 0 0 10 0 10 39 0 39 0 6 -16z m306 -301 l0 -38
6 -22 6 -23 -12 0 -12 0 -28 -30 -28 -30 -6 0 -6 0 0 35 0 35 10 0 10 0 0 55
0 55 30 0 30 0 0 -37z m70 11 l0 -15 14 -15 15 -14 6 0 6 0 17 -16 16 -16 -17
-10 -17 -9 0 -19 0 -20 -15 0 -16 0 -24 -25 -25 -24 0 -11 0 -10 -25 0 -25 0
0 9 0 10 18 4 17 5 -17 1 -17 1 -15 -15 -15 -15 -5 0 -6 0 0 21 0 20 14 15 15
14 15 0 16 0 0 10 0 10 15 0 15 0 0 35 0 35 -10 0 -10 0 0 30 0 30 30 0 30 0
0 -16z m-270 -110 l0 -15 -14 -15 -15 -14 -25 0 -26 0 0 10 0 10 18 0 18 0 14
20 14 20 8 0 8 0 0 -16z m340 -4 l0 -20 -10 0 -10 0 0 20 0 20 10 0 10 0 0
-20z"/>
<path d="M240 980 l0 -10 10 0 10 0 0 10 0 10 -10 0 -10 0 0 -10z"/>
<path d="M240 940 l0 -10 10 0 10 0 0 10 0 10 -10 0 -10 0 0 -10z"/>
<path d="M290 940 l0 -10 10 0 10 0 0 10 0 10 -10 0 -10 0 0 -10z"/>
<path d="M200 920 l0 -10 10 0 10 0 0 10 0 10 -10 0 -10 0 0 -10z"/>
<path d="M220 890 l0 -10 10 0 10 0 0 10 0 10 -10 0 -10 0 0 -10z"/>
<path d="M310 890 l0 -10 10 0 10 0 0 10 0 10 -10 0 -10 0 0 -10z"/>
<path d="M270 870 l0 -10 10 0 10 0 0 10 0 10 -10 0 -10 0 0 -10z"/>
<path d="M460 680 l0 -11 -34 -33 -33 -34 -22 -7 -21 -6 0 -20 0 -19 10 0 10
0 0 20 0 20 14 0 14 0 5 -12 4 -13 9 9 9 9 -12 4 -13 5 14 14 15 14 15 0 16 0
0 20 0 20 10 0 10 0 0 15 0 15 -10 0 -10 0 0 -10z"/>
<path d="M0 200 l0 -200 640 0 640 0 0 200 0 200 -640 0 -640 0 0 -200z"/>
</g>
</svg>
