<?xml version="1.0" standalone="no"?>
<!DOCTYPE svg PUBLIC "-//W3C//DTD SVG 20010904//EN"
 "http://www.w3.org/TR/2001/REC-SVG-20010904/DTD/svg10.dtd">
<svg version="1.0" xmlns="http://www.w3.org/2000/svg"
 width="468pt" height="468pt" viewBox="0 0 468 468"
 preserveAspectRatio="xMidYMid meet">
<metadata>
Created by potrace 1.8, written by Peter Selinger 2001-2007
</metadata>
<g transform="translate(0,468) scale(0.365625,-0.365625)"
fill="#000000" stroke="none">
<path d="M0 1255 l0 -25 11 0 10 0 15 14 14 15 0 10 0 11 -25 0 -25 0 0 -25z"/>
<path d="M230 1265 l0 -15 11 0 10 0 15 -14 14 -15 0 -10 0 -11 11 0 10 0 15
-14 14 -15 0 -10 0 -11 15 0 15 0 0 15 0 15 -11 0 -10 0 -15 14 -14 15 0 10 0
11 -11 0 -10 0 -15 14 -14 15 0 10 0 11 -15 0 -15 0 0 -15z"/>
<path d="M280 1265 l0 -15 11 0 10 0 15 -14 14 -15 0 -10 0 -11 11 0 10 0 15
-14 14 -15 0 -10 0 -11 -10 0 -10 0 0 -65 0 -65 -15 0 -15 0 0 -10 0 -10 65 0
65 0 0 10 0 10 15 0 15 0 0 15 0 15 10 0 10 0 0 15 0 15 15 0 15 0 0 -15 0
-15 10 0 10 0 0 -15 0 -15 15 0 15 0 0 15 0 15 -15 0 -15 0 0 11 0 10 -14 15
-15 14 -10 0 -11 0 0 11 0 10 -14 15 -15 14 -10 0 -11 0 0 15 0 15 -10 0 -10
0 0 50 0 50 -30 0 -30 0 0 -15 0 -15 15 0 15 0 0 -10 0 -10 -15 0 -15 0 0 -15
0 -15 15 0 15 0 0 -10 0 -10 15 0 15 0 0 -15 0 -15 -15 0 -15 0 0 -10 0 -10
15 0 15 0 0 -15 0 -15 -15 0 -15 0 0 -10 0 -10 15 0 15 0 0 -15 0 -15 10 0 10
0 0 15 0 15 15 0 15 0 0 -15 0 -15 -15 0 -15 0 0 -15 0 -15 -10 0 -10 0 0 15
0 15 -15 0 -15 0 0 -15 0 -15 -15 0 -15 0 0 15 0 15 15 0 15 0 0 15 0 15 -15
0 -15 0 0 10 0 10 15 0 15 0 0 15 0 15 -15 0 -15 0 0 10 0 10 15 0 15 0 0 15
0 15 -11 0 -10 0 -15 14 -14 15 0 10 0 11 -11 0 -10 0 -15 14 -14 15 0 10 0
11 -15 0 -15 0 0 -15z m180 -125 l0 -10 15 0 15 0 0 -14 0 -14 13 -5 12 -4 -9
-9 -9 -9 -4 13 -5 12 -13 0 -13 0 -5 -12 -4 -13 -9 9 -9 9 13 4 12 5 0 14 0
14 -10 0 -10 0 0 10 0 10 10 0 10 0 0 -10z"/>
<path d="M330 1265 l0 -15 14 0 14 0 5 -12 4 -13 9 9 9 9 -12 4 -13 5 0 14 0
14 -15 0 -15 0 0 -15z"/>
<path d="M540 1255 l0 -25 10 0 10 0 0 -15 0 -15 11 0 10 0 15 -14 14 -15 0
-10 0 -11 26 0 25 0 15 -14 14 -15 0 -10 0 -11 15 0 15 0 0 15 0 15 -11 0 -10
0 -15 14 -14 15 0 6 0 6 14 15 15 14 10 0 11 0 0 15 0 15 10 0 10 0 0 25 0 25
-10 0 -10 0 0 -15 0 -15 -11 0 -10 0 -15 -14 -14 -15 0 -10 0 -11 -15 0 -15 0
0 -10 0 -10 -11 0 -10 0 -15 14 -14 15 0 10 0 11 -15 0 -15 0 0 10 0 10 15 0
15 0 0 15 0 15 -25 0 -25 0 0 -25z"/>
<path d="M610 1266 l0 -14 -12 -6 -13 -6 13 -6 12 -6 0 -14 0 -14 15 0 15 0 0
15 0 15 11 0 10 0 15 14 14 15 0 10 0 11 -10 0 -10 0 0 -15 0 -15 -15 0 -15 0
0 15 0 15 -15 0 -15 0 0 -14z m30 -26 l0 -10 -15 0 -15 0 0 10 0 10 15 0 15 0
0 -10z"/>
<path d="M840 1244 l0 -35 -14 -15 -15 -14 -10 0 -11 0 0 -11 0 -10 -14 -15
-15 -14 -10 0 -11 0 0 -25 0 -25 11 0 10 0 15 14 14 15 0 10 0 11 11 0 10 0
15 14 14 15 0 10 0 11 15 0 15 0 0 10 0 10 15 0 15 0 0 15 0 15 -15 0 -15 0 0
10 0 10 15 0 15 0 0 15 0 15 -30 0 -30 0 0 -36z"/>
<path d="M920 1266 l0 -14 -12 -6 -13 -6 13 -6 12 -6 0 -10 0 -9 -14 -15 -15
-14 -10 0 -11 0 0 -15 0 -15 -11 0 -10 0 -15 -14 -14 -15 0 -10 0 -11 -11 0
-10 0 -15 -14 -14 -15 0 -10 0 -11 10 0 10 0 0 -15 0 -15 15 0 15 0 0 -10 0
-10 40 0 40 0 0 -15 0 -15 10 0 10 0 0 90 0 90 -10 0 -10 0 0 -10 0 -10 -15 0
-15 0 0 -15 0 -15 15 0 15 0 0 -10 0 -10 -15 0 -15 0 0 -15 0 -15 15 0 15 0 0
-15 0 -15 -15 0 -15 0 0 15 0 15 -15 0 -15 0 0 -15 0 -15 -10 0 -10 0 0 15 0
15 -15 0 -15 0 0 15 0 15 15 0 15 0 0 -15 0 -15 10 0 10 0 0 15 0 15 15 0 15
0 0 10 0 10 -15 0 -15 0 0 15 0 15 15 0 15 0 0 10 0 10 15 0 15 0 0 11 0 10
14 15 15 14 10 0 11 0 0 15 0 15 -15 0 -15 0 0 10 0 10 15 0 15 0 0 15 0 15
-15 0 -15 0 0 -14z m-80 -176 l0 -10 -10 0 -10 0 0 10 0 10 10 0 10 0 0 -10z"/>
<path d="M970 1266 l0 -14 -12 -6 -13 -6 13 -6 12 -6 0 -10 0 -9 -14 -15 -15
-14 -10 0 -11 0 0 -15 0 -15 15 0 15 0 0 11 0 10 14 15 15 14 10 0 11 0 0 11
0 10 14 15 15 14 10 0 11 0 0 15 0 15 -15 0 -15 0 0 -11 0 -10 -14 -15 -15
-14 -10 0 -11 0 0 10 0 10 15 0 15 0 0 15 0 15 -15 0 -15 0 0 -14z"/>
<path d="M1230 1269 l0 -10 14 -15 15 -14 10 0 11 0 0 25 0 25 -25 0 -25 0 0
-11z"/>
<path d="M93 1235 l-13 -14 0 -11 0 -10 -11 0 -10 0 -15 -14 -14 -15 0 -6 0
-6 14 -15 15 -14 10 0 11 0 0 -11 0 -10 14 -15 15 -14 10 0 11 0 0 -15 0 -15
10 0 10 0 0 -15 0 -15 55 0 55 0 0 55 0 55 -15 0 -15 0 0 10 0 10 -15 0 -15 0
0 11 0 10 -14 15 -15 14 -10 0 -11 0 0 11 0 10 -14 15 -15 14 -8 0 -8 -1 -12
-14z m37 -16 l0 -10 14 -15 15 -14 10 0 11 0 0 -11 0 -10 14 -15 15 -14 10 0
11 0 0 -15 0 -15 -15 0 -15 0 0 11 0 10 -14 15 -15 14 -10 0 -11 0 0 11 0 10
-14 15 -15 14 -6 0 -6 0 -15 -14 -14 -15 0 -6 0 -6 14 -15 15 -14 10 0 11 0 0
-11 0 -10 14 -15 15 -14 10 0 11 0 0 -15 0 -15 -15 0 -15 0 0 11 0 10 -14 15
-15 14 -10 0 -11 0 0 11 0 10 -14 15 -15 14 -10 0 -11 0 0 15 0 15 11 0 10 0
15 14 14 15 0 10 0 11 15 0 15 0 0 -11z m0 -50 l0 -10 14 -15 15 -14 10 0 11
0 0 -11 0 -10 14 -15 15 -14 10 0 11 0 0 -15 0 -15 -15 0 -15 0 0 11 0 10 -14
15 -15 14 -10 0 -11 0 0 11 0 10 -14 15 -15 14 -10 0 -11 0 0 15 0 15 15 0 15
0 0 -11z"/>
<path d="M1143 1235 l-13 -14 0 -11 0 -10 -11 0 -10 0 -15 -14 -14 -15 0 -10
0 -11 -15 0 -15 0 0 -10 0 -10 -15 0 -15 0 0 -55 0 -55 55 0 55 0 0 15 0 15
10 0 10 0 0 15 0 15 11 0 10 0 15 14 14 15 0 10 0 11 11 0 10 0 15 14 14 15 0
6 0 6 -14 15 -15 14 -10 0 -11 0 0 11 0 10 -14 15 -15 14 -8 0 -8 -1 -12 -14z
m37 -16 l0 -10 14 -15 15 -14 10 0 11 0 0 -15 0 -15 -11 0 -10 0 -15 -14 -14
-15 0 -10 0 -11 -11 0 -10 0 -15 -14 -14 -15 0 -10 0 -11 -15 0 -15 0 0 15 0
15 11 0 10 0 15 14 14 15 0 10 0 11 11 0 10 0 15 14 14 15 0 6 0 6 -14 15 -15
14 -6 0 -6 0 -15 -14 -14 -15 0 -10 0 -11 -11 0 -10 0 -15 -14 -14 -15 0 -10
0 -11 -15 0 -15 0 0 15 0 15 11 0 10 0 15 14 14 15 0 10 0 11 11 0 10 0 15 14
14 15 0 10 0 11 15 0 15 0 0 -11z m0 -54 l0 -15 -11 0 -10 0 -15 -14 -14 -15
0 -10 0 -11 -11 0 -10 0 -15 -14 -14 -15 0 -10 0 -11 -15 0 -15 0 0 15 0 15
11 0 10 0 15 14 14 15 0 10 0 11 11 0 10 0 15 14 14 15 0 10 0 11 15 0 15 0 0
-15z"/>
<path d="M0 1025 l0 -25 15 0 15 0 0 -11 0 -10 14 -15 15 -14 10 0 11 0 0 -11
0 -10 14 -15 15 -14 10 0 11 0 0 -15 0 -15 10 0 10 0 0 15 0 15 15 0 15 0 0
-15 0 -15 10 0 10 0 0 15 0 15 15 0 15 0 0 -15 0 -15 15 0 15 0 0 -15 0 -15
-15 0 -15 0 0 -10 0 -10 -15 0 -15 0 0 -15 0 -15 -10 0 -10 0 0 15 0 15 -11 0
-10 0 -15 14 -14 15 0 10 0 11 -15 0 -15 0 0 11 0 10 -14 15 -15 14 -10 0 -11
0 0 11 0 10 -14 15 -15 14 -10 0 -11 0 0 -10 0 -10 15 0 15 0 0 -15 0 -15 -15
0 -15 0 0 -10 0 -10 15 0 15 0 0 -15 0 -15 -15 0 -15 0 0 -15 0 -15 50 0 50 0
0 -10 0 -10 15 0 15 0 0 -11 0 -10 14 -15 15 -14 10 0 11 0 0 -15 0 -15 10 0
10 0 0 15 0 15 15 0 15 0 0 10 0 10 15 0 15 0 0 15 0 15 10 0 10 0 0 40 0 40
15 0 15 0 0 10 0 10 -90 0 -90 0 0 15 0 15 -11 0 -10 0 -15 14 -14 15 0 10 0
11 -11 0 -10 0 -15 14 -14 15 0 10 0 11 -15 0 -15 0 0 -25z m50 -115 l0 -10
15 0 15 0 0 -15 0 -15 -15 0 -15 0 0 15 0 15 -10 0 -10 0 0 10 0 10 10 0 10 0
0 -10z"/>
<path d="M1250 1039 l0 -10 -14 -15 -15 -14 -10 0 -11 0 0 -11 0 -10 -14 -15
-15 -14 -10 0 -11 0 0 -15 0 -15 15 0 15 0 0 11 0 10 14 15 15 14 10 0 11 0 0
11 0 10 14 15 15 14 10 0 11 0 0 15 0 15 -15 0 -15 0 0 -11z"/>
<path d="M280 1010 l0 -10 15 0 15 0 0 10 0 10 -15 0 -15 0 0 -10z"/>
<path d="M590 1010 l0 -10 -15 0 -15 0 0 -11 0 -10 -14 -15 -15 -14 -10 0 -11
0 0 -15 0 -15 -90 0 -90 0 0 -10 0 -10 15 0 15 0 0 -65 0 -65 -15 0 -15 0 0
-11 0 -10 -14 -15 -15 -14 -10 0 -11 0 0 -15 0 -15 -10 0 -10 0 0 -25 0 -25
-15 0 -15 0 0 -25 0 -25 -15 0 -15 0 0 -11 0 -10 -14 -15 -15 -14 -10 0 -11 0
0 -11 0 -10 -14 -15 -15 -14 -10 0 -11 0 0 -11 0 -10 -14 -15 -15 -14 -35 0
-36 0 0 -30 0 -30 15 0 15 0 0 15 0 15 10 0 10 0 0 -15 0 -15 15 0 15 0 0 15
0 15 10 0 10 0 0 15 0 15 11 0 10 0 15 14 14 15 0 10 0 11 11 0 10 0 15 14 14
15 0 10 0 11 15 0 15 0 0 10 0 10 15 0 15 0 0 25 0 25 10 0 10 0 0 -10 0 -10
15 0 15 0 0 -11 0 -10 14 -15 15 -14 10 0 11 0 0 -105 0 -105 10 0 10 0 0 15
0 15 80 0 80 0 0 -11 0 -10 14 -15 15 -14 10 0 11 0 0 -11 0 -10 14 -15 15
-14 35 0 36 0 0 10 0 10 15 0 15 0 0 11 0 10 14 15 15 14 10 0 11 0 0 15 0 15
90 0 90 0 0 10 0 10 -15 0 -15 0 0 65 0 65 15 0 15 0 0 11 0 10 14 15 15 14
10 0 11 0 0 15 0 15 10 0 10 0 0 36 0 35 -14 15 -15 14 -10 0 -11 0 0 11 0 10
-14 15 -15 14 -10 0 -11 0 0 105 0 105 -10 0 -10 0 0 -15 0 -15 -80 0 -80 0 0
11 0 10 -14 15 -15 14 -10 0 -11 0 0 11 0 10 -14 15 -15 14 -35 0 -36 0 0 -10z
m50 -25 l0 -15 11 0 10 0 15 -14 14 -15 0 -10 0 -11 11 0 10 0 15 -14 14 -15
0 -10 0 -11 15 0 15 0 0 -15 0 -15 10 0 10 0 0 15 0 15 15 0 15 0 0 -11 0 -10
14 -15 15 -14 10 0 11 0 0 10 0 10 -15 0 -15 0 0 15 0 15 15 0 15 0 0 -15 0
-15 15 0 15 0 0 -10 0 -10 -15 0 -15 0 0 -15 0 -15 15 0 15 0 0 -10 0 -10 -15
0 -15 0 0 -15 0 -15 11 0 10 0 15 -14 14 -15 0 -10 0 -11 11 0 10 0 15 -14 14
-15 0 -10 0 -11 15 0 15 0 0 -15 0 -15 -11 0 -10 0 -15 -14 -14 -15 0 -10 0
-11 -11 0 -10 0 -15 -14 -14 -15 0 -10 0 -11 -15 0 -15 0 0 -10 0 -10 15 0 15
0 0 -15 0 -15 -15 0 -15 0 0 -10 0 -10 15 0 15 0 0 -15 0 -15 -15 0 -15 0 0
-15 0 -15 -15 0 -15 0 0 15 0 15 -10 0 -10 0 0 -15 0 -15 -15 0 -15 0 0 15 0
15 -10 0 -10 0 0 -15 0 -15 -11 0 -10 0 -15 -14 -14 -15 0 -10 0 -11 -11 0
-10 0 -15 -14 -14 -15 0 -10 0 -11 -15 0 -15 0 0 15 0 15 -11 0 -10 0 -15 14
-14 15 0 10 0 11 -11 0 -10 0 -15 14 -14 15 0 10 0 11 -15 0 -15 0 0 -15 0
-15 -10 0 -10 0 0 15 0 15 -15 0 -15 0 0 -15 0 -15 -10 0 -10 0 0 15 0 15 -15
0 -15 0 0 15 0 15 15 0 15 0 0 -15 0 -15 10 0 10 0 0 11 0 10 -14 15 -15 14
-10 0 -11 0 0 15 0 15 15 0 15 0 0 10 0 10 -15 0 -15 0 0 15 0 15 -11 0 -10 0
-15 14 -14 15 0 10 0 11 -11 0 -10 0 -15 14 -14 15 0 10 0 11 -15 0 -15 0 0
15 0 15 11 0 10 0 15 14 14 15 0 10 0 11 11 0 10 0 15 14 14 15 0 10 0 11 15
0 15 0 0 10 0 10 15 0 15 0 0 15 0 15 -15 0 -15 0 0 10 0 10 15 0 15 0 0 15 0
15 10 0 10 0 0 -15 0 -15 15 0 15 0 0 15 0 15 10 0 10 0 0 15 0 15 11 0 10 0
15 14 14 15 0 10 0 11 11 0 10 0 15 14 14 15 0 10 0 11 15 0 15 0 0 -15z"/>
<path d="M603 955 l-13 -14 0 -11 0 -10 -11 0 -10 0 -15 -14 -14 -15 0 -10 0
-11 -15 0 -15 0 0 -15 0 -15 15 0 15 0 0 15 0 15 10 0 10 0 0 15 0 15 11 0 10
0 15 14 14 15 0 10 0 11 15 0 15 0 0 -15 0 -15 11 0 10 0 15 -14 14 -15 0 -10
0 -11 15 0 15 0 0 -15 0 -15 -15 0 -15 0 0 15 0 15 -10 0 -10 0 0 15 0 15 -15
0 -15 0 0 10 0 10 -11 0 -10 0 -15 -14 -14 -15 0 -10 0 -11 -15 0 -15 0 0 -11
0 -10 -14 -15 -15 -14 -9 0 -10 0 -6 13 -6 12 -6 -12 -6 -13 -13 0 -13 0 -5
13 -4 12 -9 -9 -9 -9 13 -4 12 -5 0 -13 0 -13 -12 -6 -13 -6 13 -6 12 -6 0
-10 0 -9 -14 -15 -15 -14 -10 0 -11 0 0 -15 0 -15 -11 0 -10 0 -15 -14 -14
-15 0 -10 0 -11 10 0 10 0 0 -15 0 -15 15 0 15 0 0 -10 0 -10 15 0 15 0 0 -15
0 -15 -15 0 -15 0 0 15 0 15 -11 0 -10 0 -15 14 -14 15 0 10 0 11 -15 0 -15 0
0 15 0 15 11 0 10 0 15 14 14 15 0 10 0 11 15 0 15 0 0 10 0 10 15 0 15 0 0
15 0 15 -15 0 -15 0 0 -15 0 -15 -11 0 -10 0 -15 -14 -14 -15 0 -10 0 -11 -11
0 -10 0 -15 -14 -14 -15 0 -10 0 -11 10 0 10 0 0 -15 0 -15 11 0 10 0 15 -14
14 -15 0 -10 0 -11 15 0 15 0 0 -10 0 -10 11 0 10 0 15 14 14 15 0 10 0 11
-10 0 -10 0 0 25 0 25 10 0 10 0 0 15 0 15 11 0 10 0 15 14 14 15 0 35 0 36
36 0 35 0 15 14 14 15 0 10 0 11 15 0 15 0 0 10 0 10 25 0 25 0 0 -10 0 -10
11 0 10 0 15 14 14 15 0 10 0 11 -10 0 -10 0 0 15 0 15 -11 0 -10 0 -15 14
-14 15 0 10 0 11 -15 0 -15 0 0 10 0 10 -12 0 -13 -1 -12 -14z"/>
<path d="M733 825 l-13 -14 0 -11 0 -10 35 0 35 0 0 -35 0 -35 11 0 10 0 15
14 14 15 0 9 0 10 -12 6 -13 6 13 6 12 6 0 10 0 9 -14 15 -15 14 -9 0 -10 0
-6 -12 -6 -13 -6 13 -6 12 -11 0 -12 -1 -12 -14z"/>
<path d="M840 780 l0 -10 15 0 15 0 0 10 0 10 -15 0 -15 0 0 -10z"/>
<path d="M833 725 l-13 -14 0 -6 0 -6 14 -15 15 -14 10 0 11 0 0 -30 0 -30
-11 0 -10 0 -15 -14 -14 -15 0 -10 0 -11 -15 0 -15 0 0 -35 0 -35 -35 0 -35 0
0 -15 0 -15 -11 0 -10 0 -15 -14 -14 -15 0 -10 0 -11 -30 0 -30 0 0 11 0 10
-14 15 -15 14 -6 0 -6 0 -15 -14 -14 -15 0 -10 0 -11 10 0 10 0 0 -15 0 -15
11 0 10 0 15 -14 14 -15 0 -10 0 -11 15 0 15 0 0 -10 0 -10 11 0 10 0 15 14
14 15 0 10 0 11 11 0 10 0 15 14 14 15 0 10 0 11 15 0 15 0 0 15 0 15 -15 0
-15 0 0 -15 0 -15 -10 0 -10 0 0 -15 0 -15 -11 0 -10 0 -15 -14 -14 -15 0 -10
0 -11 -15 0 -15 0 0 15 0 15 -11 0 -10 0 -15 14 -14 15 0 10 0 11 10 0 10 0 0
-15 0 -15 15 0 15 0 0 -10 0 -10 11 0 10 0 15 14 14 15 0 10 0 11 15 0 15 0 0
11 0 10 14 15 15 14 9 0 10 0 6 -12 6 -13 6 13 6 12 14 0 14 0 0 14 0 14 13 6
12 6 -12 6 -13 6 0 10 0 9 14 15 15 14 10 0 11 0 0 15 0 15 11 0 10 0 15 14
14 15 0 10 0 11 -10 0 -10 0 0 15 0 15 -15 0 -15 0 0 10 0 10 11 0 10 0 15
-14 14 -15 0 -10 0 -11 15 0 15 0 0 -15 0 -15 -11 0 -10 0 -15 -14 -14 -15 0
-10 0 -11 -15 0 -15 0 0 -10 0 -10 -15 0 -15 0 0 -15 0 -15 15 0 15 0 0 15 0
15 11 0 10 0 15 14 14 15 0 10 0 11 11 0 10 0 15 14 14 15 0 10 0 11 -10 0
-10 0 0 15 0 15 -11 0 -10 0 -15 14 -14 15 0 10 0 11 -15 0 -15 0 0 10 0 10
-12 0 -13 -1 -12 -14z m37 -20 l0 -15 -15 0 -15 0 0 15 0 15 15 0 15 0 0 -15z
m-280 -280 l0 -15 -15 0 -15 0 0 15 0 15 15 0 15 0 0 -15z"/>
<path d="M453 545 l-13 -14 0 -10 0 -9 13 -6 12 -6 -12 -6 -13 -6 0 -10 0 -9
14 -15 15 -14 9 0 10 0 6 13 6 12 6 -12 6 -13 10 0 9 0 15 14 14 15 0 10 0 11
-35 0 -35 0 0 35 0 35 -12 0 -13 -1 -12 -14z"/>
<path d="M840 479 l0 -10 -14 -15 -15 -14 -10 0 -11 0 0 -15 0 -15 15 0 15 0
0 11 0 10 14 15 15 14 10 0 11 0 0 15 0 15 -15 0 -15 0 0 -11z"/>
<path d="M490 425 l0 -15 10 0 10 0 0 15 0 15 -10 0 -10 0 0 -15z"/>
<path d="M840 425 l0 -15 15 0 15 0 0 15 0 15 -15 0 -15 0 0 -15z"/>
<path d="M1020 985 l0 -15 15 0 15 0 0 15 0 15 -15 0 -15 0 0 -15z"/>
<path d="M1250 989 l0 -10 -14 -15 -15 -14 -10 0 -11 0 0 -11 0 -10 -14 -15
-15 -14 -10 0 -11 0 0 10 0 10 -50 0 -50 0 0 15 0 15 -15 0 -15 0 0 -15 0 -15
-10 0 -10 0 0 -50 0 -50 10 0 10 0 0 -15 0 -15 15 0 15 0 0 -10 0 -10 15 0 15
0 0 -15 0 -15 -15 0 -15 0 0 -10 0 -10 -15 0 -15 0 0 -15 0 -15 15 0 15 0 0
15 0 15 11 0 10 0 15 14 14 15 0 10 0 11 11 0 10 0 15 14 14 15 0 10 0 11 15
0 15 0 0 10 0 10 50 0 50 0 0 30 0 30 -15 0 -15 0 0 -15 0 -15 -10 0 -10 0 0
15 0 15 -15 0 -15 0 0 -15 0 -15 -10 0 -10 0 0 -15 0 -15 -15 0 -15 0 0 15 0
15 -10 0 -10 0 0 -15 0 -15 -15 0 -15 0 0 15 0 15 -10 0 -10 0 0 -15 0 -15
-15 0 -15 0 0 -10 0 -10 15 0 15 0 0 -15 0 -15 -15 0 -15 0 0 15 0 15 -15 0
-15 0 0 10 0 10 15 0 15 0 0 15 0 15 -15 0 -15 0 0 15 0 15 15 0 15 0 0 -15 0
-15 15 0 15 0 0 15 0 15 10 0 10 0 0 -15 0 -15 15 0 15 0 0 15 0 15 10 0 10 0
0 -15 0 -15 15 0 15 0 0 11 0 10 14 15 15 14 10 0 11 0 0 11 0 10 14 15 15 14
10 0 11 0 0 15 0 15 -15 0 -15 0 0 -11z m-150 -159 l0 -10 14 0 14 0 5 13 4
12 9 -9 9 -9 -12 -4 -13 -5 0 -14 0 -14 -14 0 -14 0 -5 -12 -4 -13 -9 9 -9 9
13 4 12 5 0 14 0 14 -10 0 -10 0 0 10 0 10 10 0 10 0 0 -10z"/>
<path d="M1250 936 l0 -14 -12 -5 -13 -4 9 -9 9 -9 4 13 5 12 14 0 14 0 0 15
0 15 -15 0 -15 0 0 -14z"/>
<path d="M150 855 l0 -15 14 0 14 0 6 -12 6 -13 6 13 6 12 14 0 14 0 0 15 0
15 -15 0 -15 0 0 -15 0 -15 -10 0 -10 0 0 15 0 15 -15 0 -15 0 0 -15z"/>
<path d="M1250 759 l0 -10 -14 -15 -15 -14 -10 0 -11 0 0 -11 0 -10 -14 -15
-15 -14 -10 0 -11 0 0 -15 0 -15 -10 0 -10 0 0 -25 0 -25 -15 0 -15 0 0 -11 0
-10 -14 -15 -15 -14 -10 0 -11 0 0 -15 0 -15 -11 0 -10 0 -15 -14 -14 -15 0
-50 0 -51 -15 0 -15 0 0 -10 0 -10 80 0 80 0 0 -11 0 -10 14 -15 15 -14 10 0
11 0 0 -11 0 -10 14 -15 15 -14 10 0 11 0 0 -15 0 -15 10 0 10 0 0 -15 0 -15
15 0 15 0 0 30 0 30 -11 0 -10 0 -15 14 -14 15 0 10 0 11 -11 0 -10 0 -15 14
-14 15 0 10 0 11 -11 0 -10 0 -15 14 -14 15 0 10 0 11 -15 0 -15 0 0 -15 0
-15 -10 0 -10 0 0 15 0 15 -15 0 -15 0 0 -15 0 -15 -15 0 -15 0 0 15 0 15 15
0 15 0 0 15 0 15 15 0 15 0 0 -15 0 -15 10 0 10 0 0 15 0 15 15 0 15 0 0 -15
0 -15 10 0 10 0 0 15 0 15 15 0 15 0 0 -15 0 -15 10 0 10 0 0 -15 0 -15 15 0
15 0 0 15 0 15 10 0 10 0 0 -15 0 -15 15 0 15 0 0 30 0 30 -50 0 -50 0 0 10 0
10 -15 0 -15 0 0 11 0 10 -14 15 -15 14 -6 0 -6 0 -15 -14 -14 -15 0 -10 0
-11 -15 0 -15 0 0 15 0 15 11 0 10 0 15 14 14 15 0 10 0 11 11 0 10 0 15 14
14 15 0 10 0 11 25 0 25 0 0 10 0 10 -10 0 -10 0 0 15 0 15 10 0 10 0 0 15 0
15 11 0 10 0 15 14 14 15 0 10 0 11 15 0 15 0 0 25 0 25 -15 0 -15 0 0 -11z
m-120 -283 l0 -14 13 -5 12 -4 -9 -9 -9 -9 -4 13 -5 12 -13 0 -13 0 -5 -12 -4
-13 -9 9 -9 9 13 4 12 5 0 14 0 14 15 0 15 0 0 -14z"/>
<path d="M0 730 l0 -10 15 0 15 0 0 -11 0 -10 14 -15 15 -14 10 0 11 0 0 -15
0 -15 10 0 10 0 0 -11 0 -10 -14 -15 -15 -14 -10 0 -11 0 0 -15 0 -15 -10 0
-10 0 0 15 0 15 -15 0 -15 0 0 -25 0 -25 25 0 25 0 0 10 0 10 15 0 15 0 0 11
0 10 14 15 15 14 10 0 11 0 0 26 0 25 14 15 15 14 10 0 11 0 0 15 0 15 -15 0
-15 0 0 -11 0 -10 -14 -15 -15 -14 -6 0 -6 0 -15 14 -14 15 0 10 0 11 -15 0
-15 0 0 10 0 10 -25 0 -25 0 0 -10z"/>
<path d="M0 680 l0 -10 15 0 15 0 0 -15 0 -15 -15 0 -15 0 0 -15 0 -15 14 0
14 0 6 -12 6 -13 6 13 6 12 14 0 14 0 0 15 0 15 -15 0 -15 0 0 11 0 10 -14 15
-15 14 -10 0 -11 0 0 -10z m50 -55 l0 -15 -10 0 -10 0 0 15 0 15 10 0 10 0 0
-15z"/>
<path d="M1243 675 l-13 -14 0 -11 0 -10 -15 0 -15 0 0 -15 0 -15 15 0 15 0 0
15 0 15 10 0 10 0 0 -15 0 -15 15 0 15 0 0 15 0 15 -15 0 -15 0 0 15 0 15 15
0 15 0 0 10 0 10 -12 0 -13 -1 -12 -14z"/>
<path d="M1230 600 l0 -10 -15 0 -15 0 0 -15 0 -15 15 0 15 0 0 -10 0 -10 25
0 25 0 0 25 0 25 -15 0 -15 0 0 10 0 10 -10 0 -10 0 0 -10z m20 -25 l0 -15
-10 0 -10 0 0 15 0 15 10 0 10 0 0 -15z"/>
<path d="M193 495 l-13 -14 0 -11 0 -10 -11 0 -10 0 -15 -14 -14 -15 0 -10 0
-11 -15 0 -15 0 0 -11 0 -10 -14 -15 -15 -14 -9 0 -10 0 -6 13 -6 12 -6 -12
-6 -13 -14 0 -14 0 0 -15 0 -15 15 0 15 0 0 15 0 15 10 0 10 0 0 -15 0 -15 15
0 15 0 0 11 0 10 14 15 15 14 10 0 11 0 0 15 0 15 10 0 10 0 0 15 0 15 15 0
15 0 0 -15 0 -15 10 0 10 0 0 15 0 15 15 0 15 0 0 10 0 10 -15 0 -15 0 0 15 0
15 15 0 15 0 0 -15 0 -15 15 0 15 0 0 -10 0 -10 -15 0 -15 0 0 -15 0 -15 15 0
15 0 0 -15 0 -15 -15 0 -15 0 0 15 0 15 -15 0 -15 0 0 -15 0 -15 -10 0 -10 0
0 15 0 15 -15 0 -15 0 0 -15 0 -15 -10 0 -10 0 0 -10 0 -10 65 0 65 0 0 -15 0
-15 10 0 10 0 0 65 0 65 -10 0 -10 0 0 15 0 15 -15 0 -15 0 0 10 0 10 -12 0
-13 -1 -12 -14z m7 -45 l0 -10 -10 0 -10 0 0 10 0 10 10 0 10 0 0 -10z"/>
<path d="M1150 395 l0 -15 11 0 10 0 15 -14 14 -15 0 -10 0 -11 11 0 10 0 15
-14 14 -15 0 -10 0 -11 15 0 15 0 0 15 0 15 -11 0 -10 0 -15 14 -14 15 0 10 0
11 10 0 10 0 0 -15 0 -15 15 0 15 0 0 15 0 15 -14 0 -14 0 -6 13 -6 12 -6 -12
-6 -13 -10 0 -9 0 -15 14 -14 15 0 10 0 11 -15 0 -15 0 0 -15z"/>
<path d="M100 349 l0 -10 -14 -15 -15 -14 -9 0 -10 0 -6 13 -6 12 -6 -12 -6
-13 -14 0 -14 0 0 -15 0 -15 15 0 15 0 0 15 0 15 10 0 10 0 0 -11 0 -10 -14
-15 -15 -14 -10 0 -11 0 0 -15 0 -15 15 0 15 0 0 11 0 10 14 15 15 14 10 0 11
0 0 11 0 10 14 15 15 14 10 0 11 0 0 15 0 15 -15 0 -15 0 0 -11z"/>
<path d="M260 295 l0 -15 10 0 10 0 0 15 0 15 -10 0 -10 0 0 -15z"/>
<path d="M360 230 l0 -80 -11 0 -10 0 -15 -14 -14 -15 0 -10 0 -11 -11 0 -10
0 -15 -14 -14 -15 0 -10 0 -11 -15 0 -15 0 0 -10 0 -10 -15 0 -15 0 0 -15 0
-15 30 0 30 0 0 11 0 10 14 15 15 14 10 0 11 0 0 11 0 10 14 15 15 14 10 0 11
0 0 11 0 10 14 15 15 14 10 0 11 0 0 15 0 15 -15 0 -15 0 0 10 0 10 15 0 15 0
0 15 0 15 -15 0 -15 0 0 15 0 15 15 0 15 0 0 -15 0 -15 15 0 15 0 0 15 0 15
10 0 10 0 0 -15 0 -15 15 0 15 0 0 -15 0 -15 -15 0 -15 0 0 15 0 15 -10 0 -10
0 0 -15 0 -15 -15 0 -15 0 0 -10 0 -10 15 0 15 0 0 -15 0 -15 -15 0 -15 0 0
-10 0 -10 15 0 15 0 0 -15 0 -15 -15 0 -15 0 0 -10 0 -10 -15 0 -15 0 0 -15 0
-15 15 0 15 0 0 -10 0 -10 -15 0 -15 0 0 -15 0 -15 30 0 30 0 0 50 0 50 10 0
10 0 0 15 0 15 11 0 10 0 15 14 14 15 0 10 0 11 15 0 15 0 0 10 0 10 -15 0
-15 0 0 15 0 15 -10 0 -10 0 0 15 0 15 -15 0 -15 0 0 10 0 10 -40 0 -40 0 0
15 0 15 -10 0 -10 0 0 -80z m100 -40 l0 -10 14 0 14 0 5 13 4 12 9 -9 9 -9
-12 -4 -13 -5 0 -14 0 -14 -14 0 -14 0 -5 -12 -4 -13 -9 9 -9 9 13 4 12 5 0
14 0 14 -10 0 -10 0 0 10 0 10 10 0 10 0 0 -10z"/>
<path d="M783 265 l-13 -14 0 -11 0 -10 -25 0 -25 0 0 15 0 15 -15 0 -15 0 0
-15 0 -15 15 0 15 0 0 -11 0 -10 14 -15 15 -14 6 0 6 0 15 14 14 15 0 10 0 11
15 0 15 0 0 15 0 15 10 0 10 0 0 -15 0 -15 15 0 15 0 0 15 0 15 15 0 15 0 0
-15 0 -15 -15 0 -15 0 0 -15 0 -15 15 0 15 0 0 -10 0 -10 -15 0 -15 0 0 -15 0
-15 15 0 15 0 0 -10 0 -10 10 0 10 0 0 75 0 75 -62 0 -63 -1 -12 -14z"/>
<path d="M950 270 l0 -10 10 0 10 0 0 10 0 10 -10 0 -10 0 0 -10z"/>
<path d="M1000 270 l0 -10 10 0 10 0 0 -55 0 -55 15 0 15 0 0 -10 0 -10 15 0
15 0 0 -11 0 -10 14 -15 15 -14 10 0 11 0 0 -11 0 -10 14 -15 15 -14 20 0 21
0 0 10 0 10 15 0 15 0 0 15 0 15 10 0 10 0 0 21 0 20 -14 15 -15 14 -10 0 -11
0 0 11 0 10 -14 15 -15 14 -10 0 -11 0 0 15 0 15 -10 0 -10 0 0 15 0 15 -55 0
-55 0 0 10 0 10 -10 0 -10 0 0 -10z m80 -55 l0 -15 -15 0 -15 0 0 15 0 15 15
0 15 0 0 -15z m50 4 l0 -10 14 -15 15 -14 10 0 11 0 0 -11 0 -10 14 -15 15
-14 10 0 11 0 0 -15 0 -15 -11 0 -10 0 -15 -14 -14 -15 0 -10 0 -11 -15 0 -15
0 0 11 0 10 -14 15 -15 14 -10 0 -11 0 0 11 0 10 -14 15 -15 14 -10 0 -11 0 0
15 0 15 11 0 10 0 15 14 14 15 0 10 0 11 15 0 15 0 0 -11z"/>
<path d="M1093 185 l-13 -14 0 -6 0 -6 14 -15 15 -14 10 0 11 0 0 -11 0 -10
14 -15 15 -14 6 0 6 0 15 14 14 15 0 6 0 6 -14 15 -15 14 -10 0 -11 0 0 11 0
10 -14 15 -15 14 -8 0 -8 -1 -12 -14z m37 -16 l0 -10 14 -15 15 -14 10 0 11 0
0 -15 0 -15 -15 0 -15 0 0 11 0 10 -14 15 -15 14 -10 0 -11 0 0 15 0 15 15 0
15 0 0 -11z"/>
<path d="M130 245 l0 -15 -15 0 -15 0 0 -11 0 -10 -14 -15 -15 -14 -10 0 -11
0 0 -15 0 -15 -10 0 -10 0 0 -21 0 -20 14 -15 15 -14 10 0 11 0 0 -11 0 -10
14 -15 15 -14 6 0 6 0 15 14 14 15 0 10 0 11 11 0 10 0 15 14 14 15 0 10 0 11
15 0 15 0 0 10 0 10 15 0 15 0 0 55 0 55 -65 0 -65 0 0 -15z m50 -30 l0 -15
-11 0 -10 0 -15 -14 -14 -15 0 -10 0 -11 -11 0 -10 0 -15 -14 -14 -15 0 -6 0
-6 14 -15 15 -14 6 0 6 0 15 14 14 15 0 10 0 11 11 0 10 0 15 14 14 15 0 10 0
11 15 0 15 0 0 -15 0 -15 -11 0 -10 0 -15 -14 -14 -15 0 -10 0 -11 -11 0 -10
0 -15 -14 -14 -15 0 -10 0 -11 -15 0 -15 0 0 11 0 10 -14 15 -15 14 -10 0 -11
0 0 15 0 15 11 0 10 0 15 14 14 15 0 10 0 11 11 0 10 0 15 14 14 15 0 10 0 11
15 0 15 0 0 -15z m50 0 l0 -15 -11 0 -10 0 -15 -14 -14 -15 0 -10 0 -11 -11 0
-10 0 -15 -14 -14 -15 0 -10 0 -11 -15 0 -15 0 0 15 0 15 11 0 10 0 15 14 14
15 0 10 0 11 11 0 10 0 15 14 14 15 0 10 0 11 15 0 15 0 0 -15z"/>
<path d="M820 215 l0 -15 -11 0 -10 0 -15 -14 -14 -15 0 -6 0 -6 14 -15 15
-14 10 0 11 0 0 -15 0 -15 10 0 10 0 0 -50 0 -50 30 0 30 0 0 15 0 15 -15 0
-15 0 0 10 0 10 15 0 15 0 0 15 0 15 -15 0 -15 0 0 10 0 10 -15 0 -15 0 0 15
0 15 15 0 15 0 0 -15 0 -15 15 0 15 0 0 15 0 15 -15 0 -15 0 0 10 0 10 -15 0
-15 0 0 15 0 15 15 0 15 0 0 10 0 10 -15 0 -15 0 0 15 0 15 -10 0 -10 0 0 -15z
m20 -25 l0 -10 -10 0 -10 0 0 -14 0 -14 13 -5 12 -4 -9 -9 -9 -9 -4 13 -5 12
-14 0 -14 0 0 15 0 15 15 0 15 0 0 10 0 10 10 0 10 0 0 -10z"/>
<path d="M560 165 l0 -15 15 0 15 0 0 -21 0 -20 14 -15 15 -14 10 0 11 0 0 10
0 10 11 0 10 0 15 -14 14 -15 0 -10 0 -11 15 0 15 0 0 -10 0 -10 -15 0 -15 0
0 -15 0 -15 25 0 25 0 0 25 0 25 -10 0 -10 0 0 15 0 15 -11 0 -10 0 -15 14
-14 15 0 10 0 11 -26 0 -25 0 -15 14 -14 15 0 10 0 11 -15 0 -15 0 0 -15z"/>
<path d="M380 119 l0 -10 -14 -15 -15 -14 -10 0 -11 0 0 -11 0 -10 -14 -15
-15 -14 -10 0 -11 0 0 -15 0 -15 15 0 15 0 0 11 0 10 14 15 15 14 10 0 11 0 0
-10 0 -10 -15 0 -15 0 0 -15 0 -15 15 0 15 0 0 14 0 14 13 6 12 6 -12 6 -13 6
0 10 0 9 14 15 15 14 10 0 11 0 0 15 0 15 -15 0 -15 0 0 -11z"/>
<path d="M920 116 l0 -14 -12 -6 -13 -6 13 -6 12 -6 0 -13 0 -13 -12 -6 -13
-6 13 -6 12 -6 0 -14 0 -14 15 0 15 0 0 15 0 15 -15 0 -15 0 0 10 0 10 15 0
15 0 0 15 0 15 -15 0 -15 0 0 10 0 10 11 0 10 0 15 -14 14 -15 0 -10 0 -11 11
0 10 0 15 -14 14 -15 0 -10 0 -11 15 0 15 0 0 15 0 15 -11 0 -10 0 -15 14 -14
15 0 10 0 11 -11 0 -10 0 -15 14 -14 15 0 10 0 11 -15 0 -15 0 0 -14z"/>
<path d="M553 85 l-13 -14 0 -36 0 -35 10 0 10 0 0 15 0 15 15 0 15 0 0 -15 0
-15 10 0 10 0 0 15 0 15 15 0 15 0 0 -15 0 -15 15 0 15 0 0 14 0 14 13 6 12 6
-12 6 -13 6 0 14 0 14 -15 0 -15 0 0 -15 0 -15 -15 0 -15 0 0 11 0 10 -14 15
-15 14 -8 0 -8 -1 -12 -14z m37 -19 l0 -14 13 -5 12 -4 -9 -9 -9 -9 -4 13 -5
12 -14 0 -14 0 0 15 0 15 15 0 15 0 0 -14z m80 -26 l0 -10 -15 0 -15 0 0 10 0
10 15 0 15 0 0 -10z"/>
<path d="M0 25 l0 -25 25 0 25 0 0 11 0 10 -14 15 -15 14 -10 0 -11 0 0 -25z"/>
<path d="M950 40 l0 -10 10 0 10 0 0 -15 0 -15 15 0 15 0 0 15 0 15 -15 0 -15
0 0 10 0 10 -10 0 -10 0 0 -10z"/>
<path d="M1243 35 l-13 -14 0 -11 0 -10 25 0 25 0 0 25 0 25 -12 0 -13 -1 -12
-14z"/>
</g>
</svg>
