<?xml version="1.0" standalone="no"?>
<!DOCTYPE svg PUBLIC "-//W3C//DTD SVG 20010904//EN"
 "http://www.w3.org/TR/2001/REC-SVG-20010904/DTD/svg10.dtd">
<svg version="1.0" xmlns="http://www.w3.org/2000/svg"
 width="468pt" height="468pt" viewBox="0 0 468 468"
 preserveAspectRatio="xMidYMid meet">
<metadata>
Created by potrace 1.8, written by Peter Selinger 2001-2007
</metadata>
<g transform="translate(0,468) scale(0.365625,-0.365625)"
fill="#000000" stroke="none">
<path d="M0 640 l0 -640 640 0 640 0 0 640 0 640 -640 0 -640 0 0 -640z m1260
430 l0 -190 -38 0 -38 0 -14 -20 -14 -20 -28 0 -28 0 0 20 0 20 -10 0 -10 0 0
20 0 20 -10 0 -10 0 0 20 0 20 -10 0 -10 0 0 20 0 20 -10 0 -10 0 0 20 0 20
-10 0 -10 0 0 20 0 20 -10 0 -10 0 0 16 0 15 -14 15 -15 14 -311 0 -311 0 -15
-14 -14 -15 0 -15 0 -16 -10 0 -10 0 0 -20 0 -20 -10 0 -10 0 0 -20 0 -20 -10
0 -10 0 0 -20 0 -20 -10 0 -10 0 0 -20 0 -20 -10 0 -10 0 0 -20 0 -20 -10 0
-10 0 0 -20 0 -20 -50 0 -50 0 0 10 0 10 -30 0 -30 0 0 200 0 200 620 0 620 0
0 -190z m-920 30 l0 -20 10 0 10 0 0 -20 0 -20 10 0 10 0 0 -20 0 -20 10 0 10
0 0 -20 0 -20 10 0 10 0 0 -20 0 -20 10 0 10 0 0 -20 0 -20 10 0 10 0 0 -20 0
-20 10 0 10 0 0 -10 0 -10 -150 0 -150 0 0 10 0 10 10 0 10 0 0 20 0 20 10 0
10 0 0 20 0 20 10 0 10 0 0 20 0 20 10 0 10 0 0 20 0 20 10 0 10 0 0 20 0 20
10 0 10 0 0 20 0 20 10 0 10 0 0 20 0 20 10 0 10 0 0 -20z m280 0 l0 -20 -10
0 -10 0 0 -20 0 -20 -10 0 -10 0 0 -18 0 -18 -20 -14 -20 -14 0 -18 0 -18 -10
0 -10 0 0 -20 0 -20 -10 0 -10 0 0 -20 0 -20 -6 0 -5 0 -15 14 -14 15 0 15 0
16 -10 0 -10 0 0 20 0 20 -10 0 -10 0 0 20 0 20 -10 0 -10 0 0 20 0 20 -10 0
-10 0 0 20 0 20 -10 0 -10 0 0 20 0 20 130 0 130 0 0 -20z m335 -5 l25 -24 0
-16 0 -15 10 0 10 0 0 -20 0 -20 10 0 10 0 0 -20 0 -20 10 0 10 0 0 -20 0 -20
10 0 10 0 0 -20 0 -20 10 0 10 0 0 -20 0 -20 10 0 10 0 0 -10 0 -10 -140 0
-140 0 0 20 0 20 10 0 10 0 0 20 0 20 10 0 10 0 0 20 0 20 10 0 10 0 0 20 0
20 10 0 10 0 0 20 0 20 10 0 10 0 0 20 0 20 10 0 10 0 0 20 0 20 -10 0 -10 0
0 -20 0 -20 -10 0 -10 0 0 -20 0 -20 -10 0 -10 0 0 -20 0 -20 -10 0 -10 0 0
-20 0 -20 -10 0 -10 0 0 -20 0 -20 -10 0 -10 0 0 -15 0 -16 -25 -24 -24 -25
-136 0 -135 0 0 20 0 20 10 0 10 0 0 20 0 20 10 0 10 0 0 20 0 20 10 0 10 0 0
18 0 18 20 14 20 14 0 18 0 18 10 0 10 0 0 20 0 20 20 0 20 0 0 -20 0 -20 10
0 10 0 0 -20 0 -20 10 0 10 0 0 -20 0 -20 10 0 10 0 0 -20 0 -20 10 0 10 0 0
-20 0 -20 10 0 10 0 0 -20 0 -20 10 0 10 0 0 20 0 20 -10 0 -10 0 0 20 0 20
-10 0 -10 0 0 20 0 20 -10 0 -10 0 0 20 0 20 -10 0 -10 0 0 20 0 20 -10 0 -10
0 0 20 0 20 -10 0 -10 0 0 20 0 20 135 0 136 0 24 -25z m305 -285 l0 -50 -30
0 -30 0 0 10 0 10 -26 0 -25 0 -15 14 -14 15 0 5 0 6 20 0 20 0 0 10 0 10 20
0 20 0 0 10 0 10 30 0 30 0 0 -50z m-1180 20 l0 -10 40 0 40 0 0 -16 0 -15
-14 -15 -15 -14 -15 0 -16 0 0 -10 0 -10 -20 0 -20 0 0 -10 0 -10 -20 0 -20 0
0 60 0 60 30 0 30 0 0 -10z m1040 -56 l0 -6 -30 -28 -30 -28 0 -12 0 -13 -22
-19 -22 -19 14 -10 15 -11 -12 -5 -13 -5 0 -29 0 -29 -10 0 -10 0 0 -30 0 -30
-9 0 -9 0 -5 13 -4 12 -9 -9 -9 -9 12 -4 13 -5 0 -29 0 -29 -10 0 -10 0 0 -30
0 -30 -10 0 -10 0 0 -40 0 -40 10 0 10 0 0 -20 0 -20 9 0 9 0 6 12 6 13 6 -12
6 -13 19 0 19 0 0 -10 0 -10 20 0 20 0 0 -10 0 -10 30 0 30 0 0 -10 0 -10 60
0 60 0 0 -90 0 -90 -620 0 -620 0 0 126 0 125 14 15 15 14 35 0 36 0 0 10 0
10 20 0 20 0 0 10 0 10 20 0 20 0 0 10 0 10 15 0 16 0 24 25 25 24 0 46 0 45
-10 0 -10 0 0 40 0 40 -10 0 -10 0 0 30 0 30 -10 0 -10 0 0 30 0 30 -10 0 -10
0 0 40 0 40 460 0 460 0 0 -6z m-940 -43 l0 -29 -12 -5 -13 -4 9 -9 9 -9 4 13
5 12 9 0 9 0 0 -30 0 -30 10 0 10 0 0 -40 0 -40 10 0 10 0 0 -30 0 -30 10 0
10 0 0 -30 0 -30 -10 0 -10 0 0 -30 0 -30 -20 0 -20 0 0 -10 0 -10 -20 0 -20
0 0 -10 0 -10 -20 0 -20 0 0 -10 0 -10 -40 0 -40 0 0 -10 0 -10 -10 0 -10 0 0
90 0 90 10 0 10 0 0 29 0 29 -12 6 -13 6 13 6 12 6 0 19 0 19 -10 0 -10 0 0
50 0 50 30 0 30 0 0 10 0 10 18 0 18 0 14 20 14 20 18 0 18 0 0 -29z m1000 19
l0 -10 26 0 25 0 15 -14 14 -15 0 -14 0 -15 -12 -6 -13 -6 13 -6 12 -6 0 -69
0 -69 -10 0 -10 0 0 -39 0 -39 -12 -5 -13 -4 9 -9 9 -9 4 13 5 12 9 0 9 0 0
-110 0 -110 -60 0 -60 0 0 10 0 10 -30 0 -30 0 0 10 0 10 -18 0 -18 0 -14 20
-14 20 -18 0 -18 0 0 20 0 20 -10 0 -10 0 0 20 0 20 10 0 10 0 0 30 0 30 10 0
10 0 0 30 0 30 10 0 10 0 0 30 0 30 10 0 10 0 0 29 0 29 13 5 12 5 -15 11 -14
10 22 19 22 19 0 12 0 12 23 24 22 24 28 0 27 1 0 -10z"/>
<path d="M40 630 l0 -30 10 0 10 0 0 -20 0 -20 10 0 10 0 0 30 0 30 -10 0 -10
0 0 20 0 20 -10 0 -10 0 0 -30z"/>
<path d="M120 640 l0 -20 10 0 10 0 0 -20 0 -20 10 0 10 0 0 10 0 10 10 0 10
0 0 -19 0 -19 -12 -6 -13 -6 13 -6 12 -6 0 -29 0 -29 10 0 10 0 0 56 0 55 -14
15 -15 14 -15 0 -16 0 0 20 0 20 -10 0 -10 0 0 -20z"/>
<path d="M160 650 l0 -10 10 0 10 0 0 10 0 10 -10 0 -10 0 0 -10z"/>
<path d="M120 540 l0 -20 10 0 10 0 0 20 0 20 -10 0 -10 0 0 -20z"/>
<path d="M60 520 l0 -20 10 0 10 0 0 20 0 20 -10 0 -10 0 0 -20z"/>
<path d="M140 460 l0 -40 10 0 10 0 0 40 0 40 -10 0 -10 0 0 -40z"/>
<path d="M60 450 l0 -30 -10 0 -10 0 0 -16 0 -15 15 -16 16 -15 7 7 7 8 -12 4
-13 5 0 19 0 19 10 0 10 0 0 30 0 30 -10 0 -10 0 0 -30z"/>
<path d="M100 370 l0 -30 10 0 10 0 0 30 0 30 -10 0 -10 0 0 -30z"/>
<path d="M1173 705 l-13 -14 0 -36 0 -35 10 0 10 0 0 30 0 30 10 0 10 0 0 20
0 20 -7 0 -8 -1 -12 -14z"/>
<path d="M1120 660 l0 -20 -10 0 -10 0 0 -20 0 -20 10 0 10 0 0 20 0 20 10 0
10 0 0 20 0 20 -10 0 -10 0 0 -20z"/>
<path d="M1213 625 l-13 -14 0 -6 0 -5 20 0 20 0 0 20 0 20 -7 0 -8 -1 -12
-14z"/>
<path d="M1100 570 l0 -10 10 0 10 0 0 10 0 10 -10 0 -10 0 0 -10z"/>
<path d="M1160 551 l0 -29 -12 -5 -13 -4 9 -9 9 -9 4 13 5 12 19 0 19 0 0 16
0 15 -14 15 -15 14 -5 0 -6 0 0 -29z"/>
<path d="M1060 541 l0 -19 13 -6 12 -6 -12 -6 -13 -6 0 -19 0 -19 -10 0 -10 0
0 -20 0 -20 -10 0 -10 0 0 -30 0 -30 10 0 10 0 0 20 0 20 10 0 10 0 0 20 0 20
10 0 10 0 0 30 0 30 10 0 10 0 0 16 0 15 -14 15 -15 14 -5 0 -6 0 0 -19z"/>
<path d="M1180 480 l0 -20 10 0 10 0 0 20 0 20 -10 0 -10 0 0 -20z"/>
<path d="M1140 450 l0 -10 10 0 10 0 0 10 0 10 -10 0 -10 0 0 -10z"/>
<path d="M1180 420 l0 -20 10 0 10 0 0 20 0 20 -10 0 -10 0 0 -20z"/>
<path d="M1120 410 l0 -10 10 0 10 0 0 10 0 10 -10 0 -10 0 0 -10z"/>
<path d="M1080 370 l0 -30 -10 0 -10 0 0 -20 0 -20 6 0 5 0 15 14 14 15 0 35
0 36 -10 0 -10 0 0 -30z"/>
<path d="M1220 360 l0 -20 -10 0 -10 0 0 -40 0 -40 10 0 10 0 0 40 0 40 10 0
10 0 0 20 0 20 -10 0 -10 0 0 -20z"/>
<path d="M1140 310 l0 -30 10 0 10 0 0 30 0 30 -10 0 -10 0 0 -30z"/>
</g>
</svg>
