<?xml version="1.0" standalone="no"?>
<!DOCTYPE svg PUBLIC "-//W3C//DTD SVG 20010904//EN"
 "http://www.w3.org/TR/2001/REC-SVG-20010904/DTD/svg10.dtd">
<svg version="1.0" xmlns="http://www.w3.org/2000/svg"
 width="468pt" height="468pt" viewBox="0 0 468 468"
 preserveAspectRatio="xMidYMid meet">
<metadata>
Created by potrace 1.8, written by Peter Selinger 2001-2007
</metadata>
<g transform="translate(0,468) scale(0.365625,-0.365625)"
fill="#000000" stroke="none">
<path d="M1200 1250 l0 -10 -15 0 -15 0 -415 -415 -415 -415 0 -15 0 -15 -10
0 -10 0 0 -20 0 -20 -10 0 -10 0 0 -20 0 -20 -10 0 -10 0 0 -20 0 -20 -10 0
-10 0 0 -20 0 -20 18 0 18 0 14 20 14 20 16 0 16 0 14 20 14 20 16 0 16 0 14
20 14 20 13 0 13 0 406 406 406 406 -13 9 -14 9 15 10 15 10 -15 11 -15 11 13
5 12 5 0 19 0 19 -40 0 -40 0 0 -10z m23 -22 l5 -13 11 15 10 14 8 -7 7 -8
-14 -10 -15 -9 15 -10 15 -10 -15 -10 -15 -10 15 -9 14 -10 -7 -8 -8 -7 -10
14 -9 15 -9 -15 -10 -14 -21 24 -21 24 -9 -14 -9 -14 -6 6 -7 7 34 35 33 35 7
0 6 1 5 -12z m-83 -98 l0 -10 16 0 15 0 15 -14 14 -15 0 -5 0 -6 -20 0 -20 0
0 10 0 10 -20 0 -20 0 0 10 0 10 -20 0 -20 0 0 10 0 10 30 0 30 0 0 -10z m-40
-35 l0 -5 -331 -331 -331 -331 5 -5 6 -5 140 141 140 141 6 0 5 0 0 -19 0 -19
12 -4 12 -4 -148 -148 -148 -148 -6 7 -7 8 13 4 12 5 0 9 0 9 -30 0 -30 0 0
-10 0 -10 10 0 10 0 0 -16 0 -15 -17 -17 -16 -17 -5 13 -4 12 -9 0 -9 0 0 -16
0 -15 -16 -16 -16 -16 -9 14 -9 14 -9 -15 -10 -14 -8 8 -8 9 13 4 12 5 0 19 0
19 10 0 10 0 0 16 0 15 16 16 16 16 8 -13 8 -13 16 16 16 16 0 15 0 16 -9 0
-9 0 -5 -12 -4 -13 -7 7 -8 6 334 335 333 335 28 1 27 1 0 -5z m46 -30 l15
-14 -95 -96 -96 -95 -14 0 -14 0 -4 12 -5 13 -16 -17 -17 -17 0 -5 0 -6 20 0
20 0 0 -10 0 -10 -20 0 -20 0 0 -20 0 -20 -40 0 -40 0 0 -10 0 -10 20 0 20 0
0 -10 0 -10 -20 0 -20 0 0 -16 0 -15 -14 -15 -15 -14 -11 0 -11 0 -15 15 -15
14 183 185 183 184 13 1 13 1 15 -15z"/>
<path d="M1192 1204 l-13 -14 15 -16 16 -15 16 15 15 16 -15 15 -15 15 -3 0
-3 -1 -13 -15z m28 -14 l0 -10 -10 0 -10 0 0 10 0 10 10 0 10 0 0 -10z"/>
<path d="M720 650 l0 -10 10 0 10 0 0 10 0 10 -10 0 -10 0 0 -10z"/>
<path d="M360 360 l0 -20 -10 0 -10 0 0 -20 0 -20 10 0 10 0 0 20 0 20 10 0
10 0 0 20 0 20 -10 0 -10 0 0 -20z"/>
<path d="M400 360 l0 -20 10 0 10 0 0 20 0 20 -10 0 -10 0 0 -20z"/>
<path d="M871 824 l-13 -15 6 -6 5 -5 16 15 15 16 0 5 0 6 -7 0 -8 -1 -14 -15z"/>
<path d="M793 745 l-13 -14 0 -16 0 -15 10 0 10 0 0 20 0 20 10 0 10 0 0 10 0
10 -7 0 -8 -1 -12 -14z"/>
<path d="M260 1110 l0 -10 20 0 20 0 0 10 0 10 -20 0 -20 0 0 -10z"/>
<path d="M360 1110 l0 -10 10 0 10 0 0 10 0 10 -10 0 -10 0 0 -10z"/>
<path d="M180 1090 l0 -10 20 0 20 0 0 10 0 10 -20 0 -20 0 0 -10z"/>
<path d="M111 1064 l-13 -15 7 -7 8 -7 4 13 5 12 19 0 19 0 0 10 0 10 -17 0
-18 -1 -14 -15z"/>
<path d="M32 1005 l-32 -34 0 -11 0 -11 25 -24 24 -25 16 0 15 0 0 -10 0 -10
30 0 30 0 0 -10 0 -10 90 0 90 0 0 -10 0 -10 60 0 60 0 0 -10 0 -10 36 0 35 0
15 -14 14 -15 0 -21 0 -21 -14 -15 -15 -14 -15 0 -16 0 0 -10 0 -10 -30 0 -30
0 0 -10 0 -10 -40 0 -40 0 0 -10 0 -10 -30 0 -30 0 0 -10 0 -10 -30 0 -30 0 0
-10 0 -10 -15 0 -16 0 -34 -35 -35 -34 0 -11 0 -12 40 -38 40 -38 0 -12 0 -12
-30 -28 -30 -28 0 -21 0 -22 46 -45 45 -46 6 6 5 5 -41 40 -41 39 0 22 0 22
30 28 30 28 0 12 0 12 -40 38 -40 38 0 12 0 11 25 24 24 25 16 0 15 0 0 10 0
10 30 0 30 0 0 10 0 10 30 0 30 0 0 10 0 10 40 0 40 0 0 10 0 10 30 0 30 0 0
10 0 10 15 0 16 0 24 25 25 24 0 21 0 21 -25 24 -24 25 -36 0 -35 0 0 10 0 10
-60 0 -60 0 0 10 0 10 -90 0 -90 0 0 10 0 10 -30 0 -30 0 0 10 0 10 -16 0 -15
0 -15 14 -14 15 0 11 0 12 30 28 30 28 0 6 0 6 -7 -1 -8 0 -33 -34z"/>
<path d="M0 100 l0 -100 640 0 640 0 0 100 0 100 -640 0 -640 0 0 -100z"/>
</g>
</svg>
