<?xml version="1.0" standalone="no"?>
<!DOCTYPE svg PUBLIC "-//W3C//DTD SVG 20010904//EN"
 "http://www.w3.org/TR/2001/REC-SVG-20010904/DTD/svg10.dtd">
<svg version="1.0" xmlns="http://www.w3.org/2000/svg"
 width="468pt" height="468pt" viewBox="0 0 468 468"
 preserveAspectRatio="xMidYMid meet">
<metadata>
Created by potrace 1.8, written by Peter Selinger 2001-2007
</metadata>
<g transform="translate(0,468) scale(0.365625,-0.365625)"
fill="#000000" stroke="none">
<path d="M443 914 l-323 -324 0 -30 0 -30 135 -135 135 -135 20 0 20 0 335
335 335 335 0 20 0 20 -135 135 -135 135 -32 -1 -33 -1 -322 -324z m482 191
l115 -115 0 -20 0 -20 -315 -315 -315 -315 -10 0 -11 0 -110 111 -110 111 -6
-5 -5 -6 122 -121 122 -121 -5 -6 -5 -5 -127 127 -127 127 13 10 14 10 -12 5
-13 5 0 14 0 14 313 314 312 314 23 1 22 1 115 -115z m155 -160 l0 -15 -326
-326 -326 -326 -5 5 -5 5 321 321 321 321 0 15 0 15 10 0 10 0 0 -15z"/>
<path d="M760 1161 l0 -19 -12 -4 -13 -5 17 -16 17 -17 11 0 11 0 15 14 14 15
0 11 0 11 -14 15 -15 14 -15 0 -16 0 0 -19z"/>
<path d="M700 1101 l0 -19 -12 -4 -13 -5 17 -16 17 -17 11 0 11 0 15 14 14 15
0 11 0 11 -14 15 -15 14 -15 0 -16 0 0 -19z"/>
<path d="M820 1101 l0 -19 -12 -4 -13 -5 17 -16 17 -17 11 0 11 0 15 14 14 15
0 11 0 11 -14 15 -15 14 -15 0 -16 0 0 -19z"/>
<path d="M760 1041 l0 -19 -12 -4 -13 -5 17 -16 17 -17 11 0 11 0 15 14 14 15
0 11 0 11 -14 15 -15 14 -15 0 -16 0 0 -19z"/>
<path d="M620 1021 l0 -19 -12 -4 -13 -5 17 -16 17 -17 11 0 11 0 15 14 14 15
0 11 0 11 -14 15 -15 14 -15 0 -16 0 0 -19z"/>
<path d="M860 1001 l0 -19 -12 -5 -13 -4 23 -20 22 -20 0 -16 0 -15 -12 -4
-13 -5 17 -16 17 -17 11 0 11 0 15 14 14 15 0 12 0 12 -22 20 -23 20 13 4 12
5 0 15 0 14 -14 15 -15 14 -15 0 -16 0 0 -19z"/>
<path d="M940 981 l0 -19 -12 -4 -13 -5 17 -16 17 -17 11 0 11 0 15 14 14 15
0 11 0 11 -14 15 -15 14 -15 0 -16 0 0 -19z"/>
<path d="M560 961 l0 -19 -12 -4 -13 -5 17 -16 17 -17 11 0 11 0 15 14 14 15
0 11 0 11 -14 15 -15 14 -15 0 -16 0 0 -19z"/>
<path d="M680 961 l0 -19 -12 -4 -13 -5 17 -16 17 -17 11 0 11 0 15 14 14 15
0 11 0 11 -14 15 -15 14 -15 0 -16 0 0 -19z"/>
<path d="M500 901 l0 -19 -12 -4 -13 -5 17 -16 17 -17 11 0 11 0 15 14 14 15
0 11 0 11 -14 15 -15 14 -15 0 -16 0 0 -19z"/>
<path d="M620 901 l0 -19 -12 -4 -13 -5 17 -16 17 -17 11 0 11 0 15 14 14 15
0 11 0 11 -14 15 -15 14 -15 0 -16 0 0 -19z"/>
<path d="M740 901 l0 -19 -12 -4 -13 -5 17 -16 17 -17 11 0 11 0 15 14 14 15
0 11 0 11 -14 15 -15 14 -15 0 -16 0 0 -19z"/>
<path d="M440 841 l0 -19 -12 -4 -13 -5 17 -16 17 -17 11 0 11 0 15 14 14 15
0 11 0 11 -14 15 -15 14 -15 0 -16 0 0 -19z"/>
<path d="M560 841 l0 -19 -12 -4 -13 -5 17 -16 17 -17 11 0 11 0 15 14 14 15
0 11 0 11 -14 15 -15 14 -15 0 -16 0 0 -19z"/>
<path d="M680 841 l0 -19 -12 -4 -13 -5 17 -16 17 -17 11 0 11 0 15 14 14 15
0 11 0 11 -14 15 -15 14 -15 0 -16 0 0 -19z"/>
<path d="M800 841 l0 -19 -12 -4 -13 -5 17 -16 17 -17 11 0 11 0 15 14 14 15
0 11 0 11 -14 15 -15 14 -15 0 -16 0 0 -19z"/>
<path d="M380 781 l0 -19 -12 -4 -13 -5 17 -16 17 -17 11 0 11 0 15 14 14 15
0 11 0 11 -14 15 -15 14 -15 0 -16 0 0 -19z"/>
<path d="M500 781 l0 -19 -12 -4 -13 -5 17 -16 17 -17 11 0 11 0 15 14 14 15
0 11 0 11 -14 15 -15 14 -15 0 -16 0 0 -19z"/>
<path d="M620 781 l0 -19 -12 -4 -13 -5 17 -16 17 -17 11 0 11 0 15 14 14 15
0 11 0 11 -14 15 -15 14 -15 0 -16 0 0 -19z"/>
<path d="M320 721 l0 -19 -12 -4 -13 -5 17 -16 17 -17 11 0 11 0 15 14 14 15
0 11 0 11 -14 15 -15 14 -15 0 -16 0 0 -19z"/>
<path d="M440 721 l0 -19 -12 -4 -13 -5 17 -16 17 -17 11 0 11 0 15 14 14 15
0 11 0 11 -14 15 -15 14 -15 0 -16 0 0 -19z"/>
<path d="M560 721 l0 -19 -12 -4 -13 -5 17 -16 17 -17 11 0 11 0 15 14 14 15
0 11 0 11 -14 15 -15 14 -15 0 -16 0 0 -19z"/>
<path d="M680 724 l0 -15 -14 -15 -15 -14 -15 0 -16 0 0 -16 0 -15 -14 -15
-15 -14 -15 0 -16 0 0 -16 0 -15 -14 -15 -15 -14 -15 0 -16 0 0 -19 0 -19 -12
-4 -13 -5 17 -16 17 -17 11 0 11 0 15 14 14 15 0 15 0 16 16 0 15 0 15 14 14
15 0 15 0 16 16 0 15 0 15 14 14 15 0 15 0 16 16 0 15 0 15 14 14 15 0 11 0
11 -14 15 -15 14 -15 0 -16 0 0 -16z"/>
<path d="M260 661 l0 -19 -12 -4 -13 -5 17 -16 17 -17 11 0 11 0 15 14 14 15
0 11 0 11 -14 15 -15 14 -15 0 -16 0 0 -19z"/>
<path d="M380 661 l0 -19 -12 -4 -13 -5 17 -16 17 -17 11 0 11 0 15 14 14 15
0 11 0 11 -14 15 -15 14 -15 0 -16 0 0 -19z"/>
<path d="M500 661 l0 -19 -12 -4 -13 -5 17 -16 17 -17 11 0 11 0 15 14 14 15
0 11 0 11 -14 15 -15 14 -15 0 -16 0 0 -19z"/>
<path d="M200 601 l0 -19 -12 -4 -13 -5 17 -16 17 -17 11 0 11 0 15 14 14 15
0 11 0 11 -14 15 -15 14 -15 0 -16 0 0 -19z"/>
<path d="M320 601 l0 -19 -12 -4 -13 -5 17 -16 17 -17 11 0 11 0 15 14 14 15
0 11 0 11 -14 15 -15 14 -15 0 -16 0 0 -19z"/>
<path d="M440 601 l0 -19 -12 -4 -13 -5 17 -16 17 -17 11 0 11 0 15 14 14 15
0 11 0 11 -14 15 -15 14 -15 0 -16 0 0 -19z"/>
<path d="M260 541 l0 -19 -12 -4 -13 -5 17 -16 17 -17 11 0 11 0 15 14 14 15
0 11 0 11 -14 15 -15 14 -15 0 -16 0 0 -19z"/>
<path d="M380 541 l0 -19 -12 -4 -13 -5 17 -16 17 -17 11 0 11 0 15 14 14 15
0 11 0 11 -14 15 -15 14 -15 0 -16 0 0 -19z"/>
<path d="M320 481 l0 -19 -12 -4 -13 -5 17 -16 17 -17 11 0 11 0 15 14 14 15
0 11 0 11 -14 15 -15 14 -15 0 -16 0 0 -19z"/>
<path d="M380 421 l0 -19 -12 -4 -13 -5 17 -16 17 -17 11 0 11 0 15 14 14 15
0 11 0 11 -14 15 -15 14 -15 0 -16 0 0 -19z"/>
<path d="M0 100 l0 -100 640 0 640 0 0 100 0 100 -640 0 -640 0 0 -100z"/>
</g>
</svg>
