<?xml version="1.0" standalone="no"?>
<!DOCTYPE svg PUBLIC "-//W3C//DTD SVG 20010904//EN"
 "http://www.w3.org/TR/2001/REC-SVG-20010904/DTD/svg10.dtd">
<svg version="1.0" xmlns="http://www.w3.org/2000/svg"
 width="468pt" height="468pt" viewBox="0 0 468 468"
 preserveAspectRatio="xMidYMid meet">
<metadata>
Created by potrace 1.8, written by Peter Selinger 2001-2007
</metadata>
<g transform="translate(0,468) scale(0.365625,-0.365625)"
fill="#000000" stroke="none">
<path d="M160 660 l0 -620 20 0 20 0 0 -20 0 -20 480 0 480 0 0 520 0 520 -20
0 -20 0 0 20 0 20 -20 0 -20 0 0 20 0 20 -20 0 -20 0 0 20 0 20 -20 0 -20 0 0
20 0 20 -20 0 -20 0 0 20 0 20 -20 0 -20 0 0 20 0 20 -380 0 -380 0 0 -620z
m80 560 l0 -20 20 0 20 0 0 20 0 20 40 0 40 0 0 -40 0 -40 20 0 20 0 0 -20 0
-20 20 0 20 0 0 -40 0 -40 20 0 20 0 0 -60 0 -60 20 0 20 0 0 -20 0 -20 20 0
20 0 0 -20 0 -20 -60 0 -60 0 0 -20 0 -20 20 0 20 0 0 -60 0 -60 20 0 20 0 0
-20 0 -20 -20 0 -20 0 0 -20 0 -20 20 0 20 0 0 -40 0 -40 20 0 20 0 0 -60 0
-60 -20 0 -20 0 0 -20 0 -20 20 0 20 0 0 -60 0 -60 -20 0 -20 0 0 -20 0 -20
20 0 20 0 0 -60 0 -60 -60 0 -60 0 0 20 0 20 -20 0 -20 0 0 -20 0 -20 -60 0
-60 0 0 20 0 20 -20 0 -20 0 0 -20 0 -20 -20 0 -20 0 0 60 0 60 20 0 20 0 0
20 0 20 -20 0 -20 0 0 60 0 60 20 0 20 0 0 20 0 20 -20 0 -20 0 0 60 0 60 20
0 20 0 0 20 0 20 -20 0 -20 0 0 60 0 60 20 0 20 0 0 20 0 20 -20 0 -20 0 0 60
0 60 20 0 20 0 0 20 0 20 -20 0 -20 0 0 60 0 60 20 0 20 0 0 20 0 20 -20 0
-20 0 0 60 0 60 20 0 20 0 0 20 0 20 -20 0 -20 0 0 20 0 20 20 0 20 0 0 -20z
m640 -20 l0 -40 -20 0 -20 0 0 -20 0 -20 20 0 20 0 0 -20 0 -20 -40 0 -40 0 0
-20 0 -20 20 0 20 0 0 -20 0 -20 -40 0 -40 0 0 -20 0 -20 20 0 20 0 0 -20 0
-20 -40 0 -40 0 0 -20 0 -20 -40 0 -40 0 0 20 0 20 -40 0 -40 0 0 20 0 20 20
0 20 0 0 20 0 20 -40 0 -40 0 0 20 0 20 20 0 20 0 0 20 0 20 -40 0 -40 0 0 20
0 20 20 0 20 0 0 20 0 20 -40 0 -40 0 0 20 0 20 20 0 20 0 0 20 0 20 200 0
200 0 0 -40z m80 -20 l0 -20 20 0 20 0 0 -20 0 -20 20 0 20 0 0 -20 0 -20 20
0 20 0 0 -20 0 -20 -80 0 -80 0 0 80 0 80 20 0 20 0 0 -20z m-40 -200 l0 -20
20 0 20 0 0 20 0 20 60 0 60 0 0 -40 0 -40 -20 0 -20 0 0 -20 0 -20 20 0 20 0
0 -60 0 -60 -20 0 -20 0 0 -20 0 -20 20 0 20 0 0 -60 0 -60 -20 0 -20 0 0 -20
0 -20 20 0 20 0 0 -60 0 -60 -20 0 -20 0 0 -20 0 -20 20 0 20 0 0 -60 0 -60
-20 0 -20 0 0 -20 0 -20 20 0 20 0 0 -60 0 -60 -20 0 -20 0 0 -20 0 -20 -60 0
-60 0 0 20 0 20 -20 0 -20 0 0 -20 0 -20 -40 0 -40 0 0 20 0 20 20 0 20 0 0
20 0 20 -20 0 -20 0 0 60 0 60 20 0 20 0 0 20 0 20 -20 0 -20 0 0 60 0 60 20
0 20 0 0 20 0 20 -20 0 -20 0 0 20 0 20 40 0 40 0 0 20 0 20 -20 0 -20 0 0 60
0 60 20 0 20 0 0 20 0 20 20 0 20 0 0 20 0 20 -20 0 -20 0 0 40 0 40 -40 0
-40 0 0 20 0 20 20 0 20 0 0 40 0 40 20 0 20 0 0 20 0 20 20 0 20 0 0 -20z
m-280 -260 l0 -80 40 0 40 0 0 20 0 20 -20 0 -20 0 0 40 0 40 20 0 20 0 0 20
0 20 40 0 40 0 0 -60 0 -60 -20 0 -20 0 0 -80 0 -80 -80 0 -80 0 0 80 0 80
-20 0 -20 0 0 60 0 60 40 0 40 0 0 -80z m40 -300 l0 -20 40 0 40 0 0 -20 0
-20 -40 0 -40 0 0 -20 0 -20 40 0 40 0 0 -20 0 -20 -40 0 -40 0 0 -20 0 -20
40 0 40 0 0 -20 0 -20 -40 0 -40 0 0 -20 0 -20 40 0 40 0 0 -20 0 -20 -40 0
-40 0 0 -20 0 -20 -40 0 -40 0 0 20 0 20 40 0 40 0 0 20 0 20 -40 0 -40 0 0
20 0 20 40 0 40 0 0 20 0 20 -40 0 -40 0 0 20 0 20 40 0 40 0 0 20 0 20 -40 0
-40 0 0 20 0 20 40 0 40 0 0 20 0 20 -40 0 -40 0 0 20 0 20 40 0 40 0 0 -20z"/>
<path d="M280 1140 l0 -20 20 0 20 0 0 -20 0 -20 20 0 20 0 0 20 0 20 -20 0
-20 0 0 20 0 20 -20 0 -20 0 0 -20z"/>
<path d="M240 1060 l0 -20 20 0 20 0 0 20 0 20 -20 0 -20 0 0 -20z"/>
<path d="M360 1020 l0 -20 20 0 20 0 0 20 0 20 -20 0 -20 0 0 -20z"/>
<path d="M280 980 l0 -20 20 0 20 0 0 -20 0 -20 20 0 20 0 0 20 0 20 -20 0
-20 0 0 20 0 20 -20 0 -20 0 0 -20z"/>
<path d="M240 900 l0 -20 20 0 20 0 0 20 0 20 -20 0 -20 0 0 -20z"/>
<path d="M400 900 l0 -20 -20 0 -20 0 0 -20 0 -20 20 0 20 0 0 20 0 20 20 0
20 0 0 20 0 20 -20 0 -20 0 0 -20z"/>
<path d="M280 820 l0 -20 20 0 20 0 0 -20 0 -20 20 0 20 0 0 20 0 20 -20 0
-20 0 0 20 0 20 -20 0 -20 0 0 -20z"/>
<path d="M240 740 l0 -20 20 0 20 0 0 20 0 20 -20 0 -20 0 0 -20z"/>
<path d="M400 740 l0 -20 -20 0 -20 0 0 -20 0 -20 20 0 20 0 0 20 0 20 20 0
20 0 0 20 0 20 -20 0 -20 0 0 -20z"/>
<path d="M280 660 l0 -20 20 0 20 0 0 -20 0 -20 20 0 20 0 0 20 0 20 -20 0
-20 0 0 20 0 20 -20 0 -20 0 0 -20z"/>
<path d="M440 660 l0 -20 20 0 20 0 0 20 0 20 -20 0 -20 0 0 -20z"/>
<path d="M240 580 l0 -20 20 0 20 0 0 20 0 20 -20 0 -20 0 0 -20z"/>
<path d="M400 580 l0 -20 -20 0 -20 0 0 -20 0 -20 20 0 20 0 0 20 0 20 20 0
20 0 0 20 0 20 -20 0 -20 0 0 -20z"/>
<path d="M280 500 l0 -20 20 0 20 0 0 -20 0 -20 20 0 20 0 0 20 0 20 -20 0
-20 0 0 20 0 20 -20 0 -20 0 0 -20z"/>
<path d="M440 500 l0 -20 20 0 20 0 0 -20 0 -20 20 0 20 0 0 20 0 20 -20 0
-20 0 0 20 0 20 -20 0 -20 0 0 -20z"/>
<path d="M240 420 l0 -20 20 0 20 0 0 20 0 20 -20 0 -20 0 0 -20z"/>
<path d="M400 420 l0 -20 -20 0 -20 0 0 -20 0 -20 20 0 20 0 0 20 0 20 20 0
20 0 0 20 0 20 -20 0 -20 0 0 -20z"/>
<path d="M280 340 l0 -20 20 0 20 0 0 -20 0 -20 20 0 20 0 0 20 0 20 -20 0
-20 0 0 20 0 20 -20 0 -20 0 0 -20z"/>
<path d="M440 340 l0 -20 20 0 20 0 0 -20 0 -20 20 0 20 0 0 20 0 20 -20 0
-20 0 0 20 0 20 -20 0 -20 0 0 -20z"/>
<path d="M240 260 l0 -20 20 0 20 0 0 20 0 20 -20 0 -20 0 0 -20z"/>
<path d="M400 260 l0 -20 -20 0 -20 0 0 -20 0 -20 20 0 20 0 0 20 0 20 20 0
20 0 0 20 0 20 -20 0 -20 0 0 -20z"/>
<path d="M280 180 l0 -20 20 0 20 0 0 -20 0 -20 20 0 20 0 0 20 0 20 -20 0
-20 0 0 20 0 20 -20 0 -20 0 0 -20z"/>
<path d="M440 180 l0 -20 20 0 20 0 0 -20 0 -20 20 0 20 0 0 20 0 20 -20 0
-20 0 0 20 0 20 -20 0 -20 0 0 -20z"/>
<path d="M960 940 l0 -20 20 0 20 0 0 20 0 20 -20 0 -20 0 0 -20z"/>
<path d="M880 900 l0 -20 20 0 20 0 0 20 0 20 -20 0 -20 0 0 -20z"/>
<path d="M1000 860 l0 -20 20 0 20 0 0 20 0 20 -20 0 -20 0 0 -20z"/>
<path d="M920 820 l0 -20 20 0 20 0 0 -20 0 -20 20 0 20 0 0 20 0 20 -20 0
-20 0 0 20 0 20 -20 0 -20 0 0 -20z"/>
<path d="M1000 700 l0 -20 20 0 20 0 0 20 0 20 -20 0 -20 0 0 -20z"/>
<path d="M920 660 l0 -20 20 0 20 0 0 -20 0 -20 20 0 20 0 0 20 0 20 -20 0
-20 0 0 20 0 20 -20 0 -20 0 0 -20z"/>
<path d="M880 580 l0 -20 20 0 20 0 0 20 0 20 -20 0 -20 0 0 -20z"/>
<path d="M1000 540 l0 -20 20 0 20 0 0 20 0 20 -20 0 -20 0 0 -20z"/>
<path d="M920 500 l0 -20 20 0 20 0 0 -20 0 -20 20 0 20 0 0 20 0 20 -20 0
-20 0 0 20 0 20 -20 0 -20 0 0 -20z"/>
<path d="M880 420 l0 -20 -20 0 -20 0 0 -20 0 -20 20 0 20 0 0 20 0 20 20 0
20 0 0 20 0 20 -20 0 -20 0 0 -20z"/>
<path d="M1000 380 l0 -20 20 0 20 0 0 20 0 20 -20 0 -20 0 0 -20z"/>
<path d="M920 340 l0 -20 20 0 20 0 0 -20 0 -20 20 0 20 0 0 20 0 20 -20 0
-20 0 0 20 0 20 -20 0 -20 0 0 -20z"/>
<path d="M880 260 l0 -20 -20 0 -20 0 0 -20 0 -20 20 0 20 0 0 20 0 20 20 0
20 0 0 20 0 20 -20 0 -20 0 0 -20z"/>
<path d="M1000 220 l0 -20 20 0 20 0 0 20 0 20 -20 0 -20 0 0 -20z"/>
<path d="M920 180 l0 -20 20 0 20 0 0 -20 0 -20 20 0 20 0 0 20 0 20 -20 0
-20 0 0 20 0 20 -20 0 -20 0 0 -20z"/>
</g>
</svg>
