<?xml version="1.0" standalone="no"?>
<!DOCTYPE svg PUBLIC "-//W3C//DTD SVG 20010904//EN"
 "http://www.w3.org/TR/2001/REC-SVG-20010904/DTD/svg10.dtd">
<svg version="1.0" xmlns="http://www.w3.org/2000/svg"
 width="468pt" height="468pt" viewBox="0 0 468 468"
 preserveAspectRatio="xMidYMid meet">
<metadata>
Created by potrace 1.8, written by Peter Selinger 2001-2007
</metadata>
<g transform="translate(0,468) scale(0.365625,-0.365625)"
fill="#000000" stroke="none">
<path d="M520 1220 l0 -20 -40 0 -40 0 0 -20 0 -20 -40 0 -40 0 0 -20 0 -20
-20 0 -20 0 0 -20 0 -20 -20 0 -20 0 0 -20 0 -20 -20 0 -20 0 0 -40 0 -40 -20
0 -20 0 0 -260 0 -260 -20 0 -20 0 0 -40 0 -40 -20 0 -20 0 0 20 0 20 -20 0
-20 0 0 40 0 40 -20 0 -20 0 0 -40 0 -40 20 0 20 0 0 -20 0 -20 20 0 20 0 0
-20 0 -20 -20 0 -20 0 0 -20 0 -20 -20 0 -20 0 0 -40 0 -40 -20 0 -20 0 0 -40
0 -40 20 0 20 0 0 20 0 20 20 0 20 0 0 -20 0 -20 20 0 20 0 0 -20 0 -20 20 0
20 0 0 20 0 20 20 0 20 0 0 20 0 20 20 0 20 0 0 -40 0 -40 20 0 20 0 0 -20 0
-20 20 0 20 0 0 40 0 40 40 0 40 0 0 -40 0 -40 20 0 20 0 0 40 0 40 20 0 20 0
0 -40 0 -40 40 0 40 0 0 20 0 20 20 0 20 0 0 20 0 20 20 0 20 0 0 -40 0 -40
20 0 20 0 0 40 0 40 20 0 20 0 0 -40 0 -40 20 0 20 0 0 40 0 40 20 0 20 0 0
-40 0 -40 20 0 20 0 0 40 0 40 20 0 20 0 0 -40 0 -40 100 0 100 0 0 20 0 20
20 0 20 0 0 -20 0 -20 20 0 20 0 0 20 0 20 -20 0 -20 0 0 40 0 40 20 0 20 0 0
-20 0 -20 20 0 20 0 0 -20 0 -20 20 0 20 0 0 20 0 20 -20 0 -20 0 0 20 0 20
20 0 20 0 0 20 0 20 -20 0 -20 0 0 20 0 20 -20 0 -20 0 0 20 0 20 20 0 20 0 0
20 0 20 -40 0 -40 0 0 -20 0 -20 -40 0 -40 0 0 20 0 20 20 0 20 0 0 20 0 20
40 0 40 0 0 40 0 40 20 0 20 0 0 20 0 20 -20 0 -20 0 0 -20 0 -20 -20 0 -20 0
0 -20 0 -20 -20 0 -20 0 0 40 0 40 -20 0 -20 0 0 240 0 240 -20 0 -20 0 0 40
0 40 -20 0 -20 0 0 20 0 20 -20 0 -20 0 0 20 0 20 -20 0 -20 0 0 20 0 20 -40
0 -40 0 0 20 0 20 -40 0 -40 0 0 20 0 20 -100 0 -100 0 0 -20z m40 -40 l0 -20
-20 0 -20 0 0 -20 0 -20 -20 0 -20 0 0 -20 0 -20 20 0 20 0 0 -20 0 -20 20 0
20 0 0 40 0 40 40 0 40 0 0 -20 0 -20 20 0 20 0 0 40 0 40 20 0 20 0 0 -20 0
-20 20 0 20 0 0 20 0 20 20 0 20 0 0 -40 0 -40 20 0 20 0 0 20 0 20 20 0 20 0
0 -20 0 -20 20 0 20 0 0 -40 0 -40 20 0 20 0 0 -40 0 -40 20 0 20 0 0 -20 0
-20 -60 0 -60 0 0 20 0 20 -20 0 -20 0 0 -20 0 -20 -60 0 -60 0 0 20 0 20 -20
0 -20 0 0 -20 0 -20 -60 0 -60 0 0 20 0 20 -20 0 -20 0 0 -20 0 -20 -60 0 -60
0 0 20 0 20 -20 0 -20 0 0 -20 0 -20 -20 0 -20 0 0 -20 0 -20 -20 0 -20 0 0
-20 0 -20 20 0 20 0 0 -20 0 -20 -20 0 -20 0 0 -20 0 -20 20 0 20 0 0 -20 0
-20 -20 0 -20 0 0 -20 0 -20 20 0 20 0 0 -20 0 -20 -20 0 -20 0 0 -20 0 -20
-20 0 -20 0 0 20 0 20 20 0 20 0 0 20 0 20 -20 0 -20 0 0 20 0 20 20 0 20 0 0
20 0 20 -20 0 -20 0 0 20 0 20 20 0 20 0 0 20 0 20 -20 0 -20 0 0 20 0 20 20
0 20 0 0 20 0 20 20 0 20 0 0 20 0 20 20 0 20 0 0 20 0 20 -20 0 -20 0 0 20 0
20 20 0 20 0 0 20 0 20 20 0 20 0 0 -20 0 -20 -20 0 -20 0 0 -20 0 -20 40 0
40 0 0 20 0 20 20 0 20 0 0 40 0 40 -20 0 -20 0 0 20 0 20 20 0 20 0 0 20 0
20 20 0 20 0 0 20 0 20 20 0 20 0 0 -20z m80 0 l0 -20 -20 0 -20 0 0 20 0 20
20 0 20 0 0 -20z m360 -480 l0 -140 -300 0 -300 0 0 140 0 140 300 0 300 0 0
-140z m-720 -200 l0 -20 20 0 20 0 0 -20 0 -20 -20 0 -20 0 0 -20 0 -20 20 0
20 0 0 -20 0 -20 -20 0 -20 0 0 -20 0 -20 -20 0 -20 0 0 20 0 20 20 0 20 0 0
20 0 20 -20 0 -20 0 0 20 0 20 20 0 20 0 0 20 0 20 -20 0 -20 0 0 20 0 20 20
0 20 0 0 -20z m160 0 l0 -20 20 0 20 0 0 20 0 20 60 0 60 0 0 -20 0 -20 20 0
20 0 0 20 0 20 60 0 60 0 0 -20 0 -20 20 0 20 0 0 20 0 20 60 0 60 0 0 -20 0
-20 20 0 20 0 0 20 0 20 20 0 20 0 0 -140 0 -140 20 0 20 0 0 -60 0 -60 20 0
20 0 0 -20 0 -20 -20 0 -20 0 0 20 0 20 -20 0 -20 0 0 -20 0 -20 -40 0 -40 0
0 20 0 20 40 0 40 0 0 20 0 20 -20 0 -20 0 0 20 0 20 20 0 20 0 0 20 0 20 -60
0 -60 0 0 -20 0 -20 20 0 20 0 0 -20 0 -20 -20 0 -20 0 0 20 0 20 -20 0 -20 0
0 -20 0 -20 -20 0 -20 0 0 20 0 20 20 0 20 0 0 20 0 20 -20 0 -20 0 0 20 0 20
-20 0 -20 0 0 -20 0 -20 -20 0 -20 0 0 40 0 40 -20 0 -20 0 0 -40 0 -40 -20 0
-20 0 0 -20 0 -20 20 0 20 0 0 -20 0 -20 -20 0 -20 0 0 20 0 20 -20 0 -20 0 0
20 0 20 -20 0 -20 0 0 -20 0 -20 -20 0 -20 0 0 -20 0 -20 -20 0 -20 0 0 20 0
20 20 0 20 0 0 40 0 40 20 0 20 0 0 20 0 20 -40 0 -40 0 0 -20 0 -20 -20 0
-20 0 0 -20 0 -20 -20 0 -20 0 0 -20 0 -20 20 0 20 0 0 -20 0 -20 -20 0 -20 0
0 20 0 20 -20 0 -20 0 0 40 0 40 20 0 20 0 0 20 0 20 -20 0 -20 0 0 60 0 60
20 0 20 0 0 20 0 20 -20 0 -20 0 0 20 0 20 40 0 40 0 0 -20z m-240 -180 l0
-40 -20 0 -20 0 0 40 0 40 20 0 20 0 0 -40z m-80 -80 l0 -40 20 0 20 0 0 20 0
20 20 0 20 0 0 -20 0 -20 -20 0 -20 0 0 -40 0 -40 -20 0 -20 0 0 20 0 20 -20
0 -20 0 0 60 0 60 20 0 20 0 0 -40z m160 20 l0 -20 -20 0 -20 0 0 20 0 20 20
0 20 0 0 -20z m880 -40 l0 -20 20 0 20 0 0 -20 0 -20 -20 0 -20 0 0 20 0 20
-40 0 -40 0 0 20 0 20 40 0 40 0 0 -20z m-400 -40 l0 -20 -20 0 -20 0 0 20 0
20 20 0 20 0 0 -20z"/>
<path d="M680 1060 l0 -20 20 0 20 0 0 20 0 20 -20 0 -20 0 0 -20z"/>
<path d="M840 1060 l0 -20 20 0 20 0 0 20 0 20 -20 0 -20 0 0 -20z"/>
<path d="M600 1020 l0 -20 -20 0 -20 0 0 -20 0 -20 20 0 20 0 0 20 0 20 20 0
20 0 0 20 0 20 -20 0 -20 0 0 -20z"/>
<path d="M760 1020 l0 -20 -20 0 -20 0 0 -20 0 -20 20 0 20 0 0 20 0 20 20 0
20 0 0 20 0 20 -20 0 -20 0 0 -20z"/>
<path d="M880 980 l0 -20 20 0 20 0 0 20 0 20 -20 0 -20 0 0 -20z"/>
<path d="M480 940 l0 -20 20 0 20 0 0 20 0 20 -20 0 -20 0 0 -20z"/>
<path d="M640 940 l0 -20 20 0 20 0 0 20 0 20 -20 0 -20 0 0 -20z"/>
<path d="M800 940 l0 -20 20 0 20 0 0 20 0 20 -20 0 -20 0 0 -20z"/>
<path d="M480 700 l0 -100 20 0 20 0 0 40 0 40 40 0 40 0 0 -40 0 -40 20 0 20
0 0 40 0 40 -20 0 -20 0 0 20 0 20 20 0 20 0 0 20 0 20 -20 0 -20 0 0 20 0 20
-60 0 -60 0 0 -100z m120 40 l0 -20 -40 0 -40 0 0 20 0 20 40 0 40 0 0 -20z"/>
<path d="M680 700 l0 -100 20 0 20 0 0 100 0 100 -20 0 -20 0 0 -100z"/>
<path d="M760 700 l0 -100 20 0 20 0 0 40 0 40 40 0 40 0 0 20 0 20 20 0 20 0
0 20 0 20 -20 0 -20 0 0 20 0 20 -60 0 -60 0 0 -100z m120 40 l0 -20 -40 0
-40 0 0 20 0 20 40 0 40 0 0 -20z"/>
<path d="M520 460 l0 -20 20 0 20 0 0 20 0 20 -20 0 -20 0 0 -20z"/>
<path d="M680 460 l0 -20 20 0 20 0 0 20 0 20 -20 0 -20 0 0 -20z"/>
<path d="M840 460 l0 -20 20 0 20 0 0 20 0 20 -20 0 -20 0 0 -20z"/>
<path d="M440 420 l0 -20 20 0 20 0 0 -20 0 -20 20 0 20 0 0 20 0 20 -20 0
-20 0 0 20 0 20 -20 0 -20 0 0 -20z"/>
<path d="M600 420 l0 -20 20 0 20 0 0 -20 0 -20 20 0 20 0 0 20 0 20 -20 0
-20 0 0 20 0 20 -20 0 -20 0 0 -20z"/>
<path d="M760 420 l0 -20 20 0 20 0 0 -20 0 -20 20 0 20 0 0 20 0 20 -20 0
-20 0 0 20 0 20 -20 0 -20 0 0 -20z"/>
<path d="M920 420 l0 -20 20 0 20 0 0 20 0 20 -20 0 -20 0 0 -20z"/>
<path d="M400 340 l0 -20 20 0 20 0 0 20 0 20 -20 0 -20 0 0 -20z"/>
<path d="M560 340 l0 -20 20 0 20 0 0 20 0 20 -20 0 -20 0 0 -20z"/>
<path d="M720 340 l0 -20 20 0 20 0 0 20 0 20 -20 0 -20 0 0 -20z"/>
<path d="M880 340 l0 -20 -20 0 -20 0 0 -20 0 -20 20 0 20 0 0 20 0 20 20 0
20 0 0 -20 0 -20 20 0 20 0 0 20 0 20 -20 0 -20 0 0 20 0 20 -20 0 -20 0 0
-20z"/>
<path d="M600 260 l0 -20 20 0 20 0 0 20 0 20 -20 0 -20 0 0 -20z"/>
<path d="M1200 380 l0 -20 20 0 20 0 0 20 0 20 -20 0 -20 0 0 -20z"/>
</g>
</svg>
