<?xml version="1.0" standalone="no"?>
<!DOCTYPE svg PUBLIC "-//W3C//DTD SVG 20010904//EN"
 "http://www.w3.org/TR/2001/REC-SVG-20010904/DTD/svg10.dtd">
<svg version="1.0" xmlns="http://www.w3.org/2000/svg"
 width="468pt" height="468pt" viewBox="0 0 468 468"
 preserveAspectRatio="xMidYMid meet">
<metadata>
Created by potrace 1.8, written by Peter Selinger 2001-2007
</metadata>
<g transform="translate(0,468) scale(0.365625,-0.365625)"
fill="#000000" stroke="none">
<path d="M4 1249 l-2 -29 11 7 10 6 -9 -14 -8 -14 -2 -35 -2 -35 12 -14 11
-15 -12 7 -11 7 2 -12 2 -13 8 -14 9 -14 -11 7 -11 6 -1 -246 -1 -246 13 -16
13 -16 -13 8 -12 7 3 -48 2 -48 9 -14 9 -14 -10 6 -10 6 -2 -63 -2 -64 11 -7
10 -6 0 -12 0 -12 -10 15 -10 15 0 -14 0 -14 17 -21 18 -21 -16 13 -17 13 0
-73 0 -73 11 -14 12 -15 -13 8 -13 8 3 -33 3 -34 22 1 23 1 -5 -8 -5 -8 -20 4
-20 4 0 -15 0 -15 12 7 13 8 -14 -17 -13 -17 15 0 15 0 5 14 6 14 15 -2 15 -2
8 -9 8 -8 -13 7 -12 7 0 -9 0 -9 89 0 88 1 -1 21 -2 20 -11 -2 -11 -2 -11 12
-10 13 24 0 24 0 -2 -10 -2 -11 13 3 13 2 -11 -20 -11 -20 3 -1 3 -2 23 -2 23
-2 -5 16 -6 16 14 -18 13 -17 5 0 5 0 -2 60 -1 59 12 -10 12 -10 -2 -29 -2
-29 -6 -7 -7 -6 6 -14 5 -14 15 0 14 0 -6 9 -5 10 9 5 10 6 7 -11 7 -12 -14 8
-14 8 12 -13 13 -14 5 6 6 6 1 32 1 31 8 -13 9 -13 0 15 0 15 10 -15 10 -15 0
15 0 15 9 -14 9 -13 5 13 5 14 1 -14 1 -13 18 13 17 13 -7 -8 -8 -9 10 -11 9
-12 -8 -13 -8 -13 -7 11 -7 11 12 0 12 0 -7 7 -7 7 -25 2 -26 1 -5 -14 -6 -15
-8 14 -9 13 0 -21 0 -21 64 1 65 1 8 9 8 9 -12 -7 -12 -6 -5 8 -5 8 35 -1 35
-1 8 -12 7 -12 61 2 62 2 -4 6 -4 7 14 0 14 0 -5 -9 -5 -8 15 0 15 0 7 12 7
11 -14 -8 -14 -8 8 9 8 8 25 2 25 1 -5 -12 -4 -12 13 0 13 0 -4 12 -5 11 58
-1 58 -1 11 3 12 4 -3 17 -2 17 4 -12 4 -13 10 0 10 0 -13 -13 -12 -13 -48 1
-48 2 6 -6 5 -5 59 -2 59 -1 4 16 5 16 1 -20 1 -20 9 14 9 14 -5 14 -5 13 -7
-5 -8 -4 0 14 0 15 3 0 3 0 26 -37 25 -38 1 20 0 20 7 -15 7 -15 45 0 45 0 -1
27 -1 26 14 -5 13 -5 7 -26 6 -26 8 19 8 20 1 -20 1 -20 9 20 9 20 1 -20 1
-20 9 20 9 20 0 -16 1 -16 15 0 15 0 -13 16 -12 15 11 -7 11 -6 0 367 1 367
-12 14 -11 15 12 -7 11 -7 0 86 0 87 -9 -14 -9 -14 0 11 0 10 12 12 11 11 -14
17 -14 18 11 -7 11 -6 -1 147 -1 147 -113 2 -113 2 6 -22 6 -22 -10 15 -11 15
0 -15 0 -15 -10 15 -10 15 0 -22 0 -22 19 4 20 4 -6 -17 -7 -16 -4 12 -4 12
-11 -7 -12 -7 -12 -2 -12 -2 0 6 1 7 -1 16 -1 16 -25 -1 -24 -2 -7 -7 -7 -7
11 -1 12 -1 10 -2 10 -1 0 -7 0 -8 -1 -17 0 -18 -7 15 -7 15 -20 0 -20 0 1 25
2 25 1 10 1 10 10 -15 10 -15 0 15 0 15 10 -15 10 -15 0 15 0 15 10 -15 10
-15 0 11 0 12 30 -3 30 -3 0 9 0 8 -270 -1 -270 0 0 -8 0 -8 30 3 30 3 5 -8 5
-8 -17 3 -18 2 -10 -5 -10 -6 -22 -2 -22 -1 1 6 0 6 -1 13 -1 12 -11 0 -11 0
5 -40 4 -41 -6 6 -6 7 -1 9 -1 9 -2 25 -1 25 -55 -1 -55 -2 7 -11 7 -11 -15
12 -14 11 -155 0 -155 0 -1 -29z m51 -9 l4 -23 -6 7 -7 7 -3 21 -3 22 5 -6 6
-5 4 -23z m30 10 l-5 -9 10 -6 10 -6 -7 -12 -7 -12 -1 -15 0 -15 9 -15 10 -15
-14 12 -14 13 -1 49 -1 50 8 -5 8 -5 -5 -9z m88 -36 l-1 -36 11 11 12 12 0 32
0 32 30 0 30 0 2 -35 1 -35 1 -10 1 -10 9 13 8 13 -2 33 -1 33 10 0 11 0 0
-41 0 -41 -8 -13 -9 -13 -12 10 -12 11 -10 -10 -10 -10 -1 37 -1 38 -2 15 -1
15 -8 -20 -8 -20 2 -37 1 -37 -8 5 -8 5 0 -10 0 -11 13 0 12 0 -15 -10 -15
-10 11 0 12 0 -1 -28 -2 -29 -10 0 -11 0 1 36 2 36 -9 17 -9 18 -12 -3 -12 -2
3 24 4 23 -10 -5 -9 -6 0 14 0 15 14 -11 13 -11 0 5 0 6 -11 28 -10 28 12 -12
13 -13 -1 -36z m218 39 l14 -18 -17 14 -18 13 0 4 0 4 4 0 4 0 13 -17z m36 0
l0 -13 -14 11 -13 11 0 3 0 2 13 0 14 0 0 -14z m221 -4 l-13 -9 15 0 15 0 -15
-10 -15 -10 13 0 12 0 0 -10 0 -9 -14 5 -14 5 2 28 1 29 13 -6 14 -5 -14 -8z
m49 6 l0 -12 -12 0 -12 0 0 12 0 12 12 0 12 0 0 -12z m20 -7 l-5 -13 -1 19 -1
19 6 -6 6 -6 -5 -13z m20 0 l-5 -13 -1 19 -1 19 6 -6 6 -6 -5 -13z m118 -34
l0 -49 -52 0 -52 0 4 4 4 4 -9 18 -10 18 -19 -4 -20 -4 -13 17 -13 17 18 -14
17 -13 1 13 1 14 5 -14 5 -13 9 13 9 14 0 -15 0 -15 10 15 10 15 0 -15 0 -15
11 15 10 15 -2 -15 -1 -15 1 -11 1 -11 28 2 27 1 -1 17 -1 17 -2 11 -1 10 -10
-6 -10 -6 5 -9 5 -8 -15 -5 -14 -6 5 13 5 13 -16 13 -15 12 0 -6 0 -7 -10 6
-10 6 4 8 5 7 48 -1 48 -1 0 -50z m39 12 l-1 -41 11 -15 10 -15 -19 18 -20 17
0 38 0 39 10 0 10 0 -1 -41z m203 27 l0 -13 -14 11 -13 11 0 3 0 2 13 0 14 0
0 -14z m47 8 l6 -9 -18 -13 -17 -14 12 16 13 16 -7 6 -6 7 6 0 6 0 5 -9z m37
-8 l14 -18 -17 14 -18 13 0 4 0 4 4 0 4 0 13 -17z m75 -9 l2 -16 -6 6 -6 7 -2
15 -2 16 6 -6 6 -7 2 -15z m-1226 6 l0 -10 -4 0 -5 0 -6 10 -6 10 10 0 11 0 0
-10z m321 -22 l10 2 -5 -9 -6 -9 15 -6 15 -5 0 -18 1 -18 10 18 10 17 -6 9 -5
10 8 5 9 5 1 -12 1 -12 3 -20 3 -20 -29 0 -29 0 -4 15 -5 15 11 -15 11 -15 0
18 0 17 -10 0 -10 0 -7 0 -8 0 0 -19 0 -20 -10 -10 -11 -11 1 60 0 60 13 -17
13 -18 10 3z m265 -14 l2 -16 -6 6 -6 7 -2 15 -2 16 6 -6 6 -7 2 -15z m-189
-6 l-5 -13 -1 19 -1 19 6 -6 6 -6 -5 -13z m72 -1 l-1 -12 -5 13 -5 12 -10 -6
-11 -7 7 12 7 11 10 -5 9 -6 -1 -12z m41 18 l0 -3 -13 -11 -14 -11 0 13 0 14
14 0 13 0 0 -2z m531 -18 l-12 -12 7 18 6 18 6 -6 6 -5 -13 -13z m36 8 l0 -14
-9 5 -8 5 5 10 6 9 3 0 3 0 0 -15z m62 1 l12 -14 -13 -8 -13 -7 7 8 8 8 -11
14 -11 13 5 0 5 0 11 -14z m82 -3 l14 -18 -17 14 -18 13 0 4 0 4 4 0 4 0 13
-17z m-1196 -56 l-2 -42 9 -12 9 -11 -11 -7 -10 -6 2 13 3 13 -11 -2 -10 -2 0
44 1 43 7 -4 8 -5 0 8 0 9 -12 14 -13 14 16 -12 16 -12 -2 -43z m633 28 l-3
-14 10 2 10 2 -2 7 -2 6 14 -2 14 -2 8 -9 8 -8 -11 6 -11 7 -15 -18 -14 -17 1
-21 2 -21 -12 0 -12 0 0 13 0 13 9 -5 8 -5 0 10 0 11 -9 0 -8 0 1 34 1 34 8
-5 8 -5 -3 -13z m-195 1 l12 7 -13 -14 -13 -14 -12 0 -12 0 -1 -12 -1 -13 -3
-12 -2 -13 -7 25 -8 25 5 13 5 14 8 -13 8 -13 7 19 8 19 4 -12 4 -12 11 6z
m756 -4 l10 -19 -12 0 -13 0 0 19 0 18 3 0 2 0 10 -18z m-593 -25 l3 -27 -10
5 -9 6 0 15 0 15 -9 -5 -9 -6 -11 14 -11 13 26 -2 27 -1 3 -27z m345 16 l14
-18 -17 14 -18 13 0 4 0 4 4 0 4 0 13 -17z m52 -3 l12 -14 -16 12 -16 12 -5
-6 -6 -5 -6 9 -6 10 15 -2 15 -2 13 -14z m44 3 l0 -13 -14 11 -13 11 0 3 0 2
13 0 14 0 0 -14z m38 -16 l0 -12 21 1 21 1 0 -13 0 -14 -9 0 -8 0 0 -11 0 -10
8 5 9 5 0 -13 0 -13 -13 0 -13 0 2 6 1 6 -8 24 -8 24 -9 -14 -9 -14 -1 10 -1
10 -2 28 -3 28 11 -11 11 -11 0 -12z m40 21 l8 7 -7 -13 -8 -13 -14 12 -14 11
0 5 0 5 13 -11 14 -11 8 8z m68 -38 l6 11 -3 -13 -2 -12 -25 -1 -25 -2 1 28 0
28 21 -25 22 -25 5 11z m-501 6 l11 7 -7 -11 -6 -10 12 -6 13 -5 -20 2 -20 2
-2 8 -3 7 1 13 1 12 5 -13 5 -12 10 6z m-567 -28 l2 -26 -13 2 -13 2 -8 8 -8
8 10 -4 10 -3 2 10 1 10 -7 -2 -8 -2 0 13 0 14 16 -3 15 -2 1 -25z m96 15 l14
-18 -17 14 -18 13 0 4 0 4 4 0 4 0 13 -17z m159 2 l0 -14 -9 -6 -10 -6 -10 19
-9 18 19 1 19 2 0 -14z m59 -11 l-11 -14 8 -1 9 -1 9 1 9 2 -11 -14 -12 -14
-25 1 -25 2 -1 9 0 10 10 3 11 4 0 -13 0 -12 8 7 7 8 1 19 2 19 1 6 1 5 10 -6
11 -7 -12 -14z m322 18 l-13 -4 13 -8 13 -8 -12 -15 -12 -14 5 -5 5 -5 -27 2
-28 2 -13 -10 -13 -10 3 14 3 14 -15 -3 -15 -4 8 9 9 8 39 0 39 0 0 10 0 10
-9 0 -10 0 -10 10 -10 10 32 1 32 1 -14 -5z m36 2 l-6 -7 10 -20 11 -19 -11 6
-11 7 0 -10 0 -10 9 -5 9 -6 -4 -28 -5 -29 16 0 16 0 -5 12 -4 12 13 0 13 0
-11 -24 -10 -24 -8 12 -7 12 -7 -22 -7 -23 6 -5 6 -6 0 11 0 11 18 -2 19 -1 0
-13 0 -12 -9 5 -8 5 0 -10 0 -11 13 -1 12 -1 -12 -5 -13 -5 0 -9 0 -10 12 7
11 7 -5 -9 -6 -9 14 -13 14 -13 0 11 0 10 8 -1 7 -1 12 1 11 1 -3 27 -3 27 13
-17 12 -17 -1 -22 -1 -22 -51 -1 -50 -1 1 31 1 30 -4 12 -4 12 -18 -4 -19 -4
10 25 9 25 0 5 0 5 -8 -5 -8 -5 4 31 5 31 -12 -7 -11 -7 7 -12 7 -12 -17 14
-17 13 -1 -13 -1 -14 -5 14 -5 13 -8 -12 -7 -12 -6 15 -5 14 29 -2 29 -3 7 12
7 11 2 30 2 30 1 3 1 2 7 0 6 0 -6 -6z m239 -11 l-6 18 8 -5 9 -5 -3 -47 -3
-46 -5 -6 -6 -5 -1 14 -1 14 2 27 1 26 -10 7 -11 6 0 12 0 11 16 -20 16 -19
-6 18z m181 -5 l-5 -13 -1 19 -1 19 6 -6 6 -6 -5 -13z m-1016 -5 l14 -18 -17
14 -18 13 0 4 0 4 4 0 4 0 13 -17z m81 -21 l5 -19 -11 0 -11 0 0 23 0 22 6 -4
7 -4 4 -18z m44 12 l-2 -13 -7 -7 -7 -7 13 -15 12 -16 -12 8 -13 7 0 -8 0 -9
9 -9 10 -10 -15 -19 -14 -20 0 15 0 14 -10 -15 -10 -15 0 15 0 15 -11 -15 -11
-15 5 15 4 15 21 1 22 2 6 1 5 1 -8 13 -8 12 0 36 -1 36 12 0 12 0 -2 -13z
m273 0 l8 5 0 -14 0 -15 -14 11 -13 11 1 12 1 11 5 -13 5 -12 7 4z m-397 -23
l-10 -6 12 -10 11 -11 36 1 36 1 0 -11 0 -11 -31 1 -31 1 -12 7 -13 8 0 -12 0
-12 -6 6 -6 6 -3 30 -2 29 14 -5 15 -6 -10 -6z m648 15 l0 -4 -17 -13 -18 -14
14 18 13 17 4 0 4 0 0 -4z m233 -50 l12 7 -8 -8 -8 -9 -15 -2 -16 -2 6 15 6
15 2 21 1 22 4 -33 4 -32 12 6z m4 22 l-5 -13 0 25 0 25 5 -12 5 -13 -5 -12z
m81 -11 l2 -24 -13 0 -13 0 0 33 0 33 11 -9 11 -9 2 -24z m41 15 l0 -17 -9 20
-9 20 0 -28 -1 -28 13 7 12 8 -12 -15 -13 -15 13 -14 12 -14 -15 11 -16 12 -2
31 -2 31 5 10 6 9 10 -5 9 -6 -1 -17z m-797 -17 l37 1 -9 -11 -10 -12 7 -7 7
-7 2 -12 2 -13 -34 1 -34 1 -10 10 -11 11 28 -1 28 -1 0 10 1 10 -13 -3 -13
-3 0 13 0 13 -8 -11 -7 -12 -19 27 -20 26 20 -16 19 -16 37 2z m187 11 l11
-13 -14 -12 -14 -12 -7 11 -6 10 8 -1 8 -1 9 1 8 1 -12 15 -12 15 5 0 5 0 11
-14z m530 -18 l-1 -13 1 -12 1 -12 19 4 20 4 13 -17 13 -17 -17 14 -18 13 -1
-13 -1 -14 -5 13 -5 12 -18 -22 -18 -23 10 -6 10 -6 -35 1 -35 1 5 25 4 24
-20 -18 -21 -19 6 -8 5 -9 -4 0 -3 0 -30 32 -29 33 26 -23 27 -24 6 11 6 10
-10 6 -10 6 4 8 5 8 28 -2 28 -1 0 -15 0 -14 19 0 19 0 5 14 5 14 -11 -7 -11
-6 -7 11 -7 12 11 -7 12 -7 0 8 0 9 -12 13 -13 14 13 -7 12 -7 0 10 0 11 5 0
6 0 -2 -12z m-1129 -4 l0 -3 -9 -6 -10 -5 -5 8 -5 9 14 0 15 0 0 -3z m245 -64
l0 -5 10 -15 9 -15 -17 13 -16 14 2 11 2 12 -12 -2 -12 -3 6 16 6 16 11 -18
10 -19 1 -5z m519 11 l-2 -26 -2 -5 -2 -5 2 -10 2 -10 3 -30 3 -31 -20 -1 -20
-2 7 17 7 17 4 54 3 54 -13 -19 -14 -19 5 -9 6 -9 -11 7 -12 7 -1 -13 -1 -13
-5 13 -5 13 -13 -11 -13 -11 -7 11 -6 10 8 -1 8 -1 8 2 7 3 10 2 10 3 6 1 6 1
-13 18 -14 17 19 -15 20 -15 -6 16 -6 15 22 0 23 0 -3 -25z m-399 -11 l16 -30
-5 0 -5 0 -16 30 -16 30 5 0 5 0 16 -30z m-40 -21 l-3 -17 24 -23 24 -22 0
-11 0 -10 -16 22 -15 22 -10 -6 -9 -5 2 13 3 13 -13 -3 -13 -2 4 7 5 8 -13 12
-14 12 -3 -11 -4 -12 -6 15 -6 15 33 0 33 0 -3 -17z m81 4 l-2 -13 -14 -13
-14 -12 12 16 12 15 -11 11 -10 10 15 0 14 0 -2 -14z m57 -3 l8 0 -5 8 -5 9
16 0 16 0 -28 -23 -28 -22 7 -13 7 -14 -15 19 -16 20 -1 -10 -1 -9 1 -8 1 -8
-10 6 -11 7 17 19 17 19 -7 0 -7 0 7 11 6 11 11 -11 11 -11 9 0z m422 -30 l-2
-15 -9 3 -9 2 1 15 2 15 1 18 2 17 8 -20 8 -20 -2 -15z m36 33 l14 -18 -17 14
-18 13 0 4 0 4 4 0 4 0 13 -17z m80 0 l14 -18 -17 14 -18 13 0 4 0 4 4 0 4 0
13 -17z m193 6 l-4 -7 12 -5 13 -5 -35 3 -35 3 -3 1 -3 1 5 8 5 8 25 0 25 0
-5 -7z m-633 -36 l14 -18 -17 14 -18 13 0 4 0 4 4 0 4 0 13 -17z m411 2 l5 5
0 -14 0 -14 -15 2 -15 3 -3 17 -2 17 12 -10 13 -11 5 5z m-725 -10 l0 -14 -9
5 -8 5 5 10 6 9 3 0 3 0 0 -15z m20 -7 l-5 -13 -1 19 -1 19 6 -6 6 -6 -5 -13z
m20 0 l-5 -13 -1 19 -1 19 6 -6 6 -6 -5 -13z m203 12 l0 15 10 -15 10 -15 0
15 1 15 14 -25 13 -25 14 0 13 0 0 -32 0 -31 8 -9 9 -8 9 0 9 0 0 -10 0 -10
-27 0 -28 0 0 32 0 31 -8 9 -9 8 -11 0 -12 0 -1 13 -1 12 -2 11 -1 10 -10 -6
-10 -6 4 -8 5 -8 -14 0 -15 0 11 14 11 13 -11 0 -12 0 7 11 7 11 8 -13 9 -14
0 15z m233 3 l-13 -5 9 -17 10 -17 -11 -15 -10 -14 5 16 5 16 -8 14 -9 13 -5
-14 -4 -15 -5 -15 -5 -15 -2 25 -2 25 -8 -25 -9 -25 4 35 3 35 1 0 1 0 33 1
32 1 -12 -4z m82 -28 l-2 -32 14 -18 13 -19 0 14 0 13 5 -5 6 -5 4 -23 4 -23
6 -5 5 -5 1 19 0 19 9 -20 9 -20 0 21 1 20 -12 14 -13 14 18 -14 18 -13 -3
-21 -3 -20 -28 -2 -28 -1 -6 10 -6 10 11 -7 12 -7 0 9 0 10 -15 12 -15 12 0
-13 0 -14 -10 15 -10 15 0 -16 0 -15 13 -14 12 -14 -17 13 -18 13 0 14 0 13
-15 -5 -15 -6 1 18 1 19 5 -13 5 -13 13 17 12 18 -3 31 -3 32 13 0 12 0 -1
-32z m213 27 l17 13 -14 -17 -13 -18 -9 6 -9 5 1 12 1 12 5 -13 5 -13 16 13z
m37 -1 l-5 -10 22 -15 22 -16 -11 0 -11 0 -12 15 -12 15 -12 -7 -11 -7 14 17
13 17 5 0 4 0 -6 -9z m29 -7 l6 -15 -10 6 -10 6 0 10 0 9 4 0 4 0 6 -16z m37
6 l1 15 5 -13 5 -13 12 10 13 11 0 -15 0 -15 -5 5 -5 5 -12 -10 -13 -11 3 -32
2 -32 -4 18 -4 17 -9 -5 -9 -6 5 -17 6 -17 -10 15 -11 14 8 11 8 10 -3 35 -3
34 9 -14 10 -15 1 15z m56 -12 l-5 -13 -1 19 -1 19 6 -6 6 -6 -5 -13z m20 0
l-5 -13 -1 19 -1 19 6 -6 6 -6 -5 -13z m-1036 -2 l-12 -14 10 -6 9 -6 -3 -18
-2 -17 9 -12 9 -11 -16 2 -16 2 0 10 -1 9 -10 12 -9 12 -12 -3 -12 -3 8 4 7 5
0 9 0 10 -12 -7 -11 -7 8 13 8 13 14 -18 13 -19 1 7 2 7 1 8 1 7 8 13 8 12 6
0 5 0 -11 -14z m480 -3 l14 -18 -17 14 -18 13 0 4 0 4 4 0 4 0 13 -17z m-410
-18 l16 3 0 -14 0 -13 -9 5 -8 5 0 -10 0 -10 9 -6 10 -5 -3 -25 -3 -25 -5 -5
-5 -5 -1 13 -2 12 -4 25 -4 25 -1 7 -1 7 -18 -4 -19 -3 0 13 0 14 10 -6 10 -6
-6 19 -7 19 12 -16 13 -16 16 2z m174 -14 l-3 -18 9 -14 9 -14 1 18 2 17 1 10
1 10 10 3 10 2 2 -44 2 -45 -10 15 -9 14 -1 -15 -1 -15 2 -10 1 -10 -12 12
-13 13 -11 -10 -12 -10 0 14 0 14 19 -3 19 -4 -4 12 -4 12 -51 0 -52 0 0 10 0
10 30 1 30 2 9 1 9 1 -3 30 -3 30 14 -10 13 -11 -4 -18z m-322 6 l12 6 -8 -8
-8 -9 -14 -2 -14 -2 7 16 6 16 4 -12 4 -12 11 7z m199 -6 l-6 -16 17 14 17 13
0 -7 0 -7 14 11 14 12 7 -11 7 -11 -6 -6 -6 -6 0 13 0 12 -15 -12 -15 -12 0 7
0 7 -14 -11 -15 -12 -10 19 -10 19 14 0 13 0 -6 -16z m722 -6 l-2 -20 -2 -15
-1 -15 -9 23 -9 22 -11 0 -11 0 7 -12 7 -13 -13 12 -14 13 -2 13 -2 13 32 0
32 0 -2 -21z m45 9 l7 5 14 -10 15 -10 -19 3 -20 3 0 -38 0 -39 -13 18 -13 18
4 26 4 25 2 10 2 10 5 -13 5 -12 7 4z m131 -9 l0 -4 -17 6 -18 7 12 -15 12
-15 -9 -14 -10 -15 -1 10 -1 10 -2 27 -3 27 19 -10 18 -10 0 -4z m33 9 l-1 -8
-10 -4 -10 -3 -5 15 -6 14 17 -2 17 -3 -2 -9z m-1164 -43 l-1 -16 -5 18 -5 17
-9 -6 -9 -5 5 -10 6 -9 -4 0 -5 0 -12 16 -13 15 14 -3 14 -3 -2 20 -2 20 15
-19 14 -20 -1 -15z m431 18 l-10 -17 10 -5 11 -5 -12 2 -12 2 -2 20 -1 21 12
0 13 0 -9 -18z m-383 -15 l0 -13 -8 4 -7 5 -5 -14 -5 -14 11 -13 12 -13 -17
13 -18 13 0 -13 0 -14 -9 14 -9 13 -4 -13 -4 -13 -6 16 -6 15 21 -1 22 -1 1
15 2 15 1 6 1 6 13 0 14 0 0 -13z m103 1 l12 -15 -10 0 -10 0 -6 15 -5 15 3 0
4 0 12 -15z m90 -12 l0 -14 -15 15 -15 15 0 5 0 5 15 -5 15 -6 0 -15z m225 7
l18 -20 -5 0 -5 0 -18 20 -18 20 5 0 5 0 18 -20z m155 10 l0 15 9 -15 10 -14
-5 -7 -4 -8 10 -6 10 -6 1 10 2 11 1 9 1 9 7 7 7 7 -5 -27 -5 -27 9 6 9 5 0
-13 0 -13 -21 1 -21 2 -13 7 -12 8 5 9 5 9 -10 6 -10 6 0 12 0 12 10 -15 10
-15 0 15z m67 -12 l-5 -13 -1 19 -1 19 6 -6 6 -6 -5 -13z m171 -3 l-6 -6 -6
18 -7 18 12 -12 13 -13 -6 -5z m59 -23 l2 -20 -17 2 -16 1 -4 -20 -3 -20 10
15 11 15 0 -15 0 -15 11 15 11 15 -4 -15 -4 -14 -62 -1 -62 -2 0 16 0 16 10
-15 10 -15 0 15 0 15 10 -15 10 -15 0 15 0 15 10 -15 10 -15 1 18 2 17 1 13 2
12 11 -2 11 -2 12 13 11 14 -11 7 -10 6 0 -12 0 -12 -6 6 -6 6 7 11 7 11 17
-15 17 -15 1 -19z m118 18 l-3 -5 14 -13 14 -13 0 13 1 13 15 -28 15 -28 9 6
9 5 7 -11 7 -12 -13 8 -12 8 6 -21 7 -20 -12 -8 -12 -7 7 11 7 12 -10 17 -10
18 -1 -11 0 -11 -13 0 -14 0 0 13 0 12 14 -5 13 -5 -5 15 -6 14 -28 -2 -28 -2
3 26 2 26 1 10 1 10 9 -15 10 -14 -4 -6z m130 11 l-3 -16 -11 3 -11 2 0 -8 0
-8 10 -10 11 -11 -16 0 -16 0 5 31 4 31 1 1 1 1 14 0 14 0 -3 -16z m-1091 -47
l4 -49 -6 25 -5 25 -8 -25 -8 -25 4 45 4 45 0 9 1 9 5 -5 5 -5 4 -49z m156 -6
l0 -17 -7 -4 -8 -5 -1 34 -1 35 9 -13 8 -13 0 -17z m-120 22 l7 12 6 -16 6
-16 -7 3 -7 2 0 -10 0 -10 7 2 7 3 -14 -27 -14 -27 6 -9 6 -10 -11 7 -11 7 9
23 9 24 -7 6 -6 7 -2 22 -3 22 6 -14 5 -13 8 12z m53 2 l5 13 1 -12 1 -12 -9
-5 -9 -6 -13 18 -14 17 17 -13 16 -13 5 13z m112 -11 l-6 15 25 0 25 0 -2 -10
-2 -11 -10 -7 -10 -8 11 0 12 0 5 -14 6 -14 -17 2 -17 3 0 11 0 12 -10 -2 -10
-3 1 -18 2 -19 -11 11 -11 11 -2 31 -3 31 15 -19 14 -18 -5 16z m196 2 l14
-18 -17 14 -18 13 0 4 0 4 4 0 4 0 13 -17z m250 0 l14 -18 -17 14 -18 13 0 4
0 4 4 0 4 0 13 -17z m252 -2 l12 -12 -10 1 -10 2 -8 -1 -8 -1 13 -14 13 -14 7
12 8 11 0 -15 0 -15 10 15 10 15 0 -12 0 -12 16 6 15 6 -5 -29 -4 -29 -2 -5
-2 -5 1 -8 1 -8 -10 6 -10 6 5 9 5 9 -10 6 -10 6 0 -10 0 -10 -20 4 -20 4 -1
-12 -2 -12 0 -18 0 -17 -12 10 -12 10 1 27 1 26 18 3 17 2 0 -11 0 -12 9 13 8
14 9 -2 9 -1 3 9 3 9 -39 -2 -38 -2 0 32 0 33 13 -2 13 -2 13 -13z m125 -6
l-6 -6 -6 18 -7 18 12 -12 13 -13 -6 -5z m19 3 l-5 -13 -1 19 -1 19 6 -6 6 -6
-5 -13z m-405 -40 l-12 -12 0 15 0 14 -10 -15 -10 -15 0 13 0 13 -10 -6 -10
-6 5 -9 5 -9 -8 -5 -8 -5 0 23 0 23 21 -1 20 -1 -3 15 -3 15 17 -17 18 -18
-12 -12z m-684 7 l2 -9 -25 -2 -25 -1 -10 12 -9 11 32 -1 32 0 3 -10z m345 -5
l12 -14 -16 12 -16 12 -5 -6 -6 -5 -6 9 -6 10 15 -2 15 -2 13 -14z m25 -5 l-6
-6 -6 18 -7 18 12 -12 13 -13 -6 -5z m19 3 l-5 -13 -1 19 -1 19 6 -6 6 -6 -5
-13z m64 8 l0 19 9 -20 9 -20 1 20 1 20 9 -20 9 -20 1 20 2 20 5 -13 5 -13 -9
-12 -9 -12 2 -22 1 -22 -8 5 -9 5 0 -10 0 -11 13 0 12 0 -15 -10 -15 -10 15 0
15 0 -15 -10 -15 -10 15 0 15 0 -11 -8 -12 -7 14 -13 14 -13 1 18 1 18 5 -19
5 -19 10 14 10 14 -5 -15 -4 -15 -11 -1 -12 -1 -2 -3 -3 -2 -18 -3 -18 -3 12
14 11 14 -9 0 -10 0 1 63 1 62 -10 2 -10 3 0 -35 1 -35 -8 0 -8 0 0 13 0 12
-10 -15 -10 -15 0 14 0 13 -13 -11 -14 -11 0 14 0 14 19 -3 19 -4 -4 12 -4 12
-20 -1 -20 -1 0 13 0 12 18 -3 18 -4 11 14 12 14 -7 13 -6 13 15 -19 16 -20 1
20z m73 -2 l6 -15 -10 6 -10 6 0 10 0 9 4 0 4 0 6 -16z m226 1 l0 -11 -23 0
-24 0 0 11 0 11 24 0 23 0 0 -11z m361 -8 l-12 -12 7 18 6 18 6 -6 6 -5 -13
-13z m-1134 -39 l-5 -13 -1 19 -1 19 6 -6 6 -6 -5 -13z m33 7 l2 20 5 -15 6
-15 10 -14 11 -13 2 -14 2 -14 -10 6 -10 7 7 -23 7 -23 -11 7 -11 7 3 27 2 27
-10 0 -10 0 1 -12 2 -13 -8 5 -7 4 0 33 -1 33 8 -20 9 -20 1 20z m37 0 l0 -14
-9 5 -8 5 5 10 6 9 3 0 3 0 0 -15z m192 1 l12 -14 -13 -8 -13 -7 7 8 8 8 -11
14 -11 13 5 0 5 0 11 -14z m61 1 l0 -12 9 13 8 14 5 -14 6 -14 -32 0 -33 0 0
11 0 11 19 1 18 2 0 -12z m51 -10 l-12 -12 7 18 6 18 6 -6 6 -5 -13 -13z m176
6 l0 -13 -14 11 -13 11 0 3 0 2 13 0 14 0 0 -14z m167 1 l6 -15 -10 6 -10 6 0
10 0 9 4 0 4 0 6 -16z m138 -9 l6 -20 1 21 1 20 23 0 24 0 0 -13 0 -13 -14 0
-14 0 6 13 6 12 -15 -19 -15 -19 5 -11 5 -11 -26 30 -27 30 6 -12 7 -13 -10 0
-11 0 -1 13 -1 12 -5 -14 -5 -13 -10 13 -9 14 5 -31 4 -32 -12 2 -11 2 -14 8
-14 9 6 -17 7 -17 -11 6 -10 7 4 11 4 12 14 0 14 0 3 20 3 20 -10 -15 -11 -15
0 15 0 15 -9 -13 -8 -14 -5 14 -6 14 62 -1 61 0 7 -20z m215 10 l0 -14 -9 5
-8 5 5 10 6 9 3 0 3 0 0 -15z m-368 -19 l12 -14 -13 -8 -13 -7 7 8 8 8 -11 14
-11 13 5 0 5 0 11 -14z m-157 -24 l5 -19 -11 0 -11 0 0 23 0 22 6 -4 7 -4 4
-18z m-442 8 l7 12 6 -15 6 -15 -17 2 -16 3 -2 12 -2 12 5 -12 5 -11 8 12z
m50 4 l0 -3 -9 -6 -10 -5 -5 8 -5 9 14 0 15 0 0 -3z m157 -9 l0 -12 -12 0 -12
0 0 12 0 12 12 0 12 0 0 -12z m34 0 l8 20 -2 -27 -1 -27 -13 11 -13 10 1 17 1
16 6 -20 5 -20 8 20z m44 -45 l1 -50 -11 10 -11 9 2 38 2 38 1 9 1 9 7 -6 6
-7 2 -50z m436 51 l9 14 -4 -25 -5 -25 -1 -5 -2 -5 0 -6 1 -6 -25 1 -24 2 0 7
0 7 3 -2 4 -3 16 13 16 13 -3 12 -3 12 5 -9 4 -8 9 13z m86 -8 l0 -13 -14 11
-13 11 0 3 0 2 13 0 14 0 0 -14z m91 8 l3 -1 -8 -12 -8 -13 2 -20 2 -20 -6 20
-6 20 -7 -20 -8 -20 1 36 2 36 15 -2 15 -3 3 -1z m-408 -7 l0 -3 -9 -6 -10 -5
-5 8 -5 9 14 0 15 0 0 -3z m-561 -48 l-5 -5 -13 22 -13 22 18 -17 18 -18 -5
-4z m876 -16 l1 -30 -8 0 -8 0 0 13 0 12 -10 -15 -10 -15 0 15 0 15 -10 -15
-10 -15 0 13 0 12 -1 8 -1 7 -11 15 -12 15 19 -15 20 -15 -7 18 -7 18 11 -6
10 -7 -5 -14 -5 -13 9 -6 10 -6 1 13 2 13 0 18 -1 19 11 -11 11 -11 1 -30z
m-758 25 l0 -11 -36 2 -36 2 -3 1 -3 1 5 8 5 8 34 0 34 0 0 -11z m188 -5 l18
-20 -5 0 -5 0 -18 20 -18 20 5 0 5 0 18 -20z m83 10 l-3 -10 10 3 10 2 -2 7
-2 6 16 -2 17 -3 3 -10 4 -11 -11 -7 -11 -7 13 -16 13 -16 -12 8 -13 7 0 -6 0
-6 13 -13 12 -13 18 3 17 2 -5 -7 -4 -8 -28 2 -28 1 -1 32 -1 33 8 5 9 5 0 11
0 11 -20 -18 -19 -17 2 -8 2 -8 -10 -1 -10 -1 -1 23 0 22 3 8 4 7 5 0 4 0 -2
-10z m169 -7 l0 -13 -14 11 -13 11 0 3 0 2 13 0 14 0 0 -14z m154 0 l14 -18
-17 14 -18 13 0 4 0 4 4 0 4 0 13 -17z m200 0 l14 -18 -17 14 -18 13 0 4 0 4
4 0 4 0 13 -17z m74 8 l5 -10 -8 -5 -9 -5 0 14 0 15 3 0 3 0 6 -9z m-470 -11
l6 -10 -15 6 -16 6 0 4 0 4 9 0 10 0 6 -10z m88 -3 l7 6 0 -5 0 -6 -17 -13
-18 -13 7 8 8 9 -13 16 -12 16 16 -12 16 -13 6 7z m300 -27 l5 -20 -9 6 -9 5
0 15 0 14 4 0 4 0 5 -20z m-968 1 l5 -10 -8 -5 -9 -5 0 14 0 15 3 0 3 0 6 -9z
m46 0 l1 14 5 -13 5 -12 11 7 12 7 11 2 11 2 -1 -22 -1 -21 21 1 21 1 0 -11 0
-12 -37 0 -37 0 0 13 0 14 11 -11 10 -10 10 0 9 0 -17 19 -17 18 -28 -2 -28
-2 0 13 0 14 14 -11 13 -11 1 13z m86 -13 l-5 -13 -1 19 -1 19 6 -6 6 -6 -5
-13z m33 7 l2 20 5 -15 6 -15 19 -21 19 -21 -28 2 -28 1 0 11 0 11 -7 8 -8 7
1 16 0 16 9 -20 9 -20 1 20z m85 6 l5 -10 -8 -5 -9 -5 0 14 0 15 3 0 3 0 6 -9z
m126 -8 l14 -18 -17 14 -18 13 0 4 0 4 4 0 4 0 13 -17z m237 -8 l-6 -6 -6 18
-7 18 12 -12 13 -13 -6 -5z m26 9 l6 -15 -10 6 -10 6 0 10 0 9 4 0 4 0 6 -16z
m182 -19 l-1 -32 -12 0 -12 0 5 9 6 9 -14 17 -13 17 18 -14 17 -13 0 9 0 9
-10 10 -11 11 14 0 13 0 0 -32z m39 7 l-2 -17 9 -12 9 -11 -18 2 -18 3 -1 24
0 24 4 8 3 7 9 -5 8 -5 -3 -18z m161 14 l-1 -11 10 -2 10 -3 0 9 0 9 8 9 9 8
-2 -10 -2 -10 1 -5 2 -5 3 -65 3 -65 -5 25 -5 25 -8 -25 -8 -25 1 35 1 35 -8
23 -7 22 -13 -17 -13 -17 4 32 4 33 -9 -6 -10 -5 -5 8 -5 8 23 0 23 0 -1 -10z
m155 -3 l14 -18 -17 14 -18 13 0 4 0 4 4 0 4 0 13 -17z m-954 -20 l0 -13 -14
11 -13 11 0 3 0 2 13 0 14 0 0 -14z m496 -6 l7 6 0 -5 0 -6 -17 -13 -18 -13 8
9 7 8 -17 21 -18 21 21 -18 21 -17 6 7z m-462 -1 l-11 -13 15 -13 15 -12 -1
-17 0 -16 -9 23 -9 22 -6 0 -6 0 6 -22 6 -23 -10 15 -11 15 0 -15 0 -15 -10
15 -10 15 0 -15 0 -15 -10 15 -10 15 0 -15 0 -15 -9 14 -8 13 -8 -11 -7 -12
-16 13 -16 13 6 -16 6 -16 -12 0 -12 0 0 17 0 16 58 -1 58 -1 1 8 2 8 1 8 1 7
8 13 8 12 6 0 5 0 -11 -14z m-276 -18 l8 7 -6 -11 -7 -12 15 -12 15 -12 1 13
1 14 5 -14 5 -13 9 13 9 14 0 -15 0 -15 10 15 10 15 0 -15 0 -15 10 15 10 15
0 -15 0 -15 9 13 8 14 5 -14 6 -14 -52 1 -51 0 -12 8 -13 8 0 -12 0 -12 -5 5
-6 5 -4 22 -4 21 -6 13 -6 12 14 -17 14 -18 8 8z m72 5 l0 -13 -14 11 -13 11
0 -13 0 -14 -10 15 -10 15 0 -14 0 -14 -6 6 -6 6 5 8 6 9 24 0 24 0 0 -13z
m409 5 l6 -6 -16 2 -15 2 -7 6 -6 6 16 -2 15 -2 7 -6z m199 -15 l15 -21 -15
-12 -15 -12 0 7 0 7 -15 -12 -15 -12 7 -11 6 -10 -11 7 -12 7 0 -13 0 -13 -10
15 -10 15 -1 -20 -2 -20 0 -12 1 -13 -9 0 -9 0 0 16 0 15 -10 -6 -10 -6 5 -9
5 -8 -17 2 -17 3 -2 31 -2 31 13 -12 13 -12 -10 -6 -10 -6 10 -7 11 -6 6 10 6
10 10 -5 9 -6 0 16 0 16 -12 -7 -11 -7 7 12 7 11 9 -5 8 -5 10 13 10 12 1 8 1
7 3 -2 4 -3 16 14 17 13 0 10 0 10 -12 -9 -13 -10 -17 2 -18 3 0 -18 0 -19 -9
-5 -9 -6 -13 18 -14 17 18 -14 17 -13 0 9 0 10 -7 7 -7 7 -2 12 -2 13 44 -1
44 0 15 -22z m320 -9 l0 -32 -7 5 -8 4 0 27 0 27 -8 -11 -7 -12 -20 2 -20 1 0
-10 0 -10 16 1 16 1 0 -13 0 -14 -12 10 -12 10 -5 -5 -5 -5 -13 15 -12 15 7 0
7 0 -10 13 -11 12 52 0 52 0 0 -31z m116 19 l14 -18 -17 14 -18 13 0 4 0 4 4
0 4 0 13 -17z m-791 1 l0 -3 -9 -6 -10 -5 -5 8 -5 9 14 0 15 0 0 -3z m890 0
l0 -3 -9 -6 -10 -5 -5 8 -5 9 14 0 15 0 0 -3z m-734 -30 l-2 -13 -10 -8 -9 -8
7 9 8 9 -10 12 -10 12 14 0 14 0 -2 -13z m640 -6 l19 -23 -16 13 -16 12 -5 -5
-5 -5 0 15 0 15 2 0 2 0 19 -22z m-1159 -10 l-5 -13 -1 19 -1 19 6 -6 6 -6 -5
-13z m391 5 l-11 -13 -13 11 -14 11 0 -12 0 -13 -6 6 -6 6 5 8 6 9 25 0 25 0
-11 -13z m202 1 l11 -11 -18 0 -18 0 -8 11 -9 11 5 -40 5 -40 -5 13 -5 12 -6
-4 -7 -4 0 32 0 33 22 -2 23 -1 10 -10z m326 -9 l-1 -20 40 1 40 0 -1 -40 -1
-41 11 -15 11 -15 -22 18 -22 19 4 17 3 17 -14 19 -14 19 0 -15 0 -14 -10 15
-10 15 0 -15 0 -15 -10 15 -10 15 0 -12 0 -13 -9 0 -9 0 2 17 3 18 -13 12 -13
13 -6 0 -6 0 7 -12 7 -11 -12 7 -11 7 5 9 5 8 28 -1 29 -2 -1 -20z m157 17 l5
13 1 -12 1 -12 -9 -5 -9 -6 -13 18 -14 17 17 -13 16 -13 5 13z m-583 -8 l0 -3
-9 -6 -10 -5 -5 8 -5 9 14 0 15 0 0 -3z m-50 -20 l0 -3 -9 -6 -10 -5 -5 8 -5
9 14 0 15 0 0 -3z m399 -28 l-5 -5 -13 22 -13 22 18 -17 18 -18 -5 -4z m215
21 l6 6 0 -14 0 -15 -23 0 -23 0 0 17 0 17 17 -8 16 -9 7 6z m-1037 -11 l-2
-11 13 3 13 2 -4 -7 -5 -8 14 -13 14 -13 0 12 0 12 6 -6 7 -6 2 -26 3 -25 -8
0 -9 0 -6 20 -6 20 -10 -6 -9 -5 2 13 3 13 -13 -2 -12 -3 2 13 3 12 -11 -2
-11 -2 0 13 0 13 13 0 13 0 -2 -11z m81 0 l14 -8 -11 -11 -11 -11 13 -15 12
-16 -18 14 -17 14 10 12 11 13 -10 6 -10 6 -6 -10 -6 -10 -10 6 -9 5 5 9 5 8
13 -2 12 -2 13 -8z m129 8 l-6 -7 9 -17 9 -17 -13 0 -12 0 2 21 2 21 1 3 1 2
7 0 6 0 -6 -6z m32 -11 l1 18 10 -6 10 -6 -5 -9 -5 -9 12 -8 13 -8 29 0 30 0
1 -28 2 -28 -21 19 -21 19 -12 -4 -13 -5 0 14 0 13 -10 -15 -10 -15 0 15 0 15
-11 -15 -11 -15 6 17 5 17 -9 6 -10 6 1 17 0 17 9 -20 9 -20 0 18z m61 2 l0
-12 -13 0 -14 0 0 12 0 12 14 0 13 0 0 -12z m55 6 l-5 -4 12 -15 12 -14 2 -15
2 -14 -13 11 -14 12 2 11 2 12 -22 -1 -23 -1 0 11 0 12 25 0 24 0 -4 -5z m29
-7 l6 -15 -10 6 -10 6 0 10 0 9 4 0 4 0 6 -16z m73 1 l0 -14 -9 5 -8 5 5 10 6
9 3 0 3 0 0 -15z m398 -5 l-5 -9 12 -8 13 -8 30 0 29 0 -1 -22 -1 -23 -1 -12
-1 -13 -9 14 -9 14 5 13 4 12 -12 8 -12 7 7 -11 6 -11 -8 -5 -9 -6 3 -26 2
-26 6 -6 6 -5 0 12 0 13 26 -32 26 -31 12 11 13 10 0 -14 0 -14 -18 3 -18 4
-12 -15 -12 -15 26 5 26 4 -6 -15 -6 -15 -8 14 -9 13 0 -12 0 -11 -17 2 -17 3
-1 32 -1 33 12 -17 12 -16 6 9 6 10 -17 13 -16 14 -21 0 -21 0 -1 30 -2 30 -1
20 -1 20 -9 -14 -9 -14 5 -16 5 -16 -10 14 -10 14 -4 -19 -5 -19 3 55 3 55 0
3 1 3 10 -6 10 -6 -5 -9z m202 -2 l-5 -13 -1 19 -1 19 6 -6 6 -6 -5 -13z m67
6 l6 -15 -10 6 -10 6 0 10 0 9 4 0 4 0 6 -16z m-949 -3 l5 -10 -8 -5 -9 -5 0
14 0 15 3 0 3 0 6 -9z m316 -8 l14 -18 -17 14 -18 13 0 4 0 4 4 0 4 0 13 -17z
m305 5 l6 -6 -16 2 -15 2 -7 6 -6 6 16 -2 15 -2 7 -6z m-21 -56 l-3 -17 -1 -6
-1 -6 -25 1 -25 2 -12 14 -13 14 18 -13 17 -13 0 13 0 14 9 -13 8 -14 5 14 5
13 -2 24 -2 24 13 -17 12 -17 -3 -17z m-340 29 l5 -10 -8 -5 -9 -5 0 14 0 15
3 0 3 0 6 -9z m56 -8 l14 -18 -17 14 -18 13 0 4 0 4 4 0 4 0 13 -17z m51 -11
l5 -17 1 -10 2 -10 -17 0 -16 0 -3 18 -2 17 9 -6 9 -5 0 8 0 9 -12 13 -13 12
17 -6 16 -6 4 -17z m105 13 l0 -14 -9 5 -8 5 5 10 6 9 3 0 3 0 0 -15z m163 5
l8 12 -1 -34 -1 -35 -11 0 -11 0 -1 36 0 36 5 -14 4 -13 8 12z m203 -9 l-5
-16 15 18 15 18 6 -18 7 -17 -7 7 -7 7 -13 -11 -13 -10 -10 19 -10 19 14 0 13
0 -5 -16z m80 -1 l12 -14 -16 12 -16 12 -5 -6 -6 -5 -6 9 -6 10 15 -2 15 -2
13 -14z m28 3 l14 -18 -17 14 -18 13 0 4 0 4 4 0 4 0 13 -17z m44 5 l8 7 -7
-13 -8 -13 -14 12 -14 11 0 5 0 5 13 -11 14 -11 8 8z m-950 -32 l-2 -21 -9 0
-9 0 -13 -9 -13 -8 5 -14 5 -14 -9 0 -10 0 -1 18 0 17 -8 -19 -8 -20 -8 13 -7
13 -9 -13 -9 -14 0 13 0 13 -9 -5 -9 -6 -9 13 -9 12 2 13 2 12 1 6 1 6 15 -12
15 -12 1 8 1 9 -2 10 -2 10 8 -8 8 -8 2 -14 2 -14 -6 2 -7 2 -5 -9 -5 -9 17
-3 17 -2 10 11 9 12 4 10 3 10 18 -1 18 -1 -4 12 -5 12 12 0 12 0 -1 -21z
m192 17 l-7 -6 13 -16 12 -16 -17 14 -18 13 6 9 5 9 6 0 6 0 -6 -7z m-406 -18
l16 3 0 -12 0 -12 -22 0 -21 0 -2 20 -1 21 7 -11 7 -11 16 2z m370 -2 l14 -18
-17 14 -18 13 0 4 0 4 4 0 4 0 13 -17z m125 -31 l2 -27 5 -22 5 -21 -16 2 -17
3 0 41 0 40 8 -5 7 -4 0 8 0 9 -10 12 -10 12 13 -10 12 -11 1 -27z m-199 22
l0 -11 -21 1 -21 1 1 -17 2 -18 -9 6 -9 5 0 -8 0 -9 10 -10 11 -11 -15 0 -15
0 1 6 0 6 -1 15 -1 15 -9 -13 -8 -13 2 -38 2 -37 -18 -1 -17 -2 -17 19 -17 19
24 -4 25 -5 -1 38 -1 37 22 -1 23 -1 -4 21 -4 22 32 0 33 0 0 -12z m160 1 l0
-14 -9 5 -8 5 5 10 6 9 3 0 3 0 0 -15z m161 -6 l4 -14 -11 15 -11 15 0 -15 0
-15 -10 15 -10 15 0 -14 0 -14 -6 6 -6 6 6 9 6 10 17 -2 17 -3 4 -14z m552
-30 l9 -16 -14 0 -14 0 5 9 6 9 -23 27 -24 27 23 -20 24 -20 8 -16z m1 34 l14
-18 -17 14 -18 13 0 4 0 4 4 0 4 0 13 -17z m-511 1 l0 -3 -9 -6 -10 -5 -5 8
-5 9 14 0 15 0 0 -3z m-339 -28 l-11 -13 8 -8 7 -8 -13 7 -13 8 10 12 11 13
-8 8 -7 8 13 -7 13 -8 -10 -12z m50 7 l14 -18 -17 14 -18 13 0 4 0 4 4 0 4 0
13 -17z m730 -15 l11 -20 -12 7 -13 8 5 -14 5 -14 21 1 22 1 0 -11 0 -12 -33
0 -33 0 1 27 0 27 7 -5 8 -4 0 8 0 9 -12 13 -13 14 12 -7 13 -7 11 -21z m32
-4 l-5 -15 -5 4 -4 4 -4 23 -4 22 14 -12 14 -11 -6 -15z m-1075 2 l1 -21 -9
15 -10 15 -1 -15 -1 -15 -5 13 -5 12 -8 -5 -9 -5 -7 11 -7 12 11 -7 11 -6 5 8
5 9 14 0 13 0 2 -21z m477 -38 l2 -18 -10 0 -9 0 5 20 5 20 -9 6 -9 5 0 12 1
12 11 -20 12 -20 1 -17z m46 43 l9 14 0 -15 0 -15 9 13 8 14 6 -15 6 -16 -20
4 -19 4 0 -9 0 -9 10 -6 10 -6 0 -12 0 -12 -9 14 -8 13 -7 -11 -7 -11 5 -9 6
-9 -14 -11 -14 -12 -7 11 -7 11 6 6 6 6 0 -12 0 -12 10 6 10 6 -8 17 -8 17 1
15 2 15 2 15 3 15 5 -14 5 -13 9 13z m156 -13 l-5 -13 -1 19 -1 19 6 -6 6 -6
-5 -13z m32 -3 l1 21 43 0 44 0 0 -13 0 -13 -9 0 -9 0 13 -14 13 -14 5 8 5 8
13 -14 13 -14 -13 0 -13 0 15 -10 15 -10 -15 0 -15 0 15 -10 15 -10 -12 0 -13
0 0 -9 0 -10 19 4 20 4 -6 -15 -5 -15 12 3 12 3 3 -17 3 -17 -13 -11 -13 -11
2 18 3 18 -11 17 -10 17 -12 -10 -12 -10 3 36 2 35 -15 13 -15 12 -6 -2 -6 -3
0 9 0 9 -6 6 -6 7 -22 4 -21 4 -1 -12 -1 -12 1 -9 2 -9 -15 13 -16 12 1 22 1
21 8 -25 8 -25 1 20z m182 8 l14 -18 -17 14 -18 13 0 4 0 4 4 0 4 0 13 -17z
m100 0 l14 -18 -17 14 -18 13 0 4 0 4 4 0 4 0 13 -17z m147 -8 l-6 -6 -6 18
-7 18 12 -12 13 -13 -6 -5z m-745 -25 l5 -20 -10 0 -9 0 5 -8 5 -9 39 2 39 2
0 -12 0 -11 -31 1 -31 2 -17 8 -18 7 6 24 6 24 -13 18 -14 17 16 -13 17 -13 5
-19z m-394 -4 l12 -14 -13 -8 -13 -7 7 8 8 8 -11 14 -11 13 5 0 5 0 11 -14z
m51 -1 l0 -14 -10 -6 -10 -6 6 -12 7 -12 -6 5 -5 5 -2 10 -2 10 -8 15 -8 16
19 1 19 2 0 -14z m17 -7 l-5 -13 -1 19 -1 19 6 -6 6 -6 -5 -13z m53 7 l0 -4
-19 2 -20 1 5 8 5 7 14 -6 15 -5 0 -3z m237 0 l0 -14 -9 5 -8 5 5 10 6 9 3 0
3 0 0 -15z m210 0 l0 -14 -9 5 -8 5 5 10 6 9 3 0 3 0 0 -15z m122 2 l11 -14
-13 0 -14 0 0 14 0 13 2 0 3 0 11 -13z m67 -3 l-2 -13 -7 -7 -7 -7 12 -16 12
-16 -14 13 -14 12 -1 23 -2 24 13 0 12 0 -2 -13z m199 -23 l1 -28 -12 0 -12 0
5 21 5 21 0 13 1 12 6 -5 5 -5 1 -29z m39 10 l-2 -26 -1 -9 -1 -9 -6 6 -6 6
-3 29 -2 29 12 0 12 0 -3 -26z m103 7 l-5 -13 -1 19 -1 19 6 -6 6 -6 -5 -13z
m66 7 l2 -9 -27 -1 -28 -2 0 12 0 12 25 -1 25 -2 3 -9z m-963 -11 l0 -3 -9 -6
-10 -5 -5 8 -5 9 14 0 15 0 0 -3z m154 -54 l-5 -28 11 -7 10 -6 0 -17 -1 -17
-19 40 -19 40 -1 -18 0 -18 -16 -6 -16 -6 14 -8 13 -9 -17 0 -17 0 3 25 3 25
8 8 8 7 -7 -12 -6 -12 9 -5 9 -6 7 23 8 22 0 18 0 17 12 -10 13 -11 -4 -29z
m-280 8 l-5 -33 10 15 11 15 0 -13 0 -13 13 8 12 7 20 2 21 1 -1 -29 -1 -28
-9 0 -10 0 -1 8 -1 7 -8 18 -7 18 -14 -12 -14 -11 0 6 0 7 -11 -7 -11 -6 11
-7 12 -7 -15 -35 -15 -34 -1 18 0 18 -10 -6 -10 -6 7 -12 7 -12 -16 12 -15 13
-8 -8 -8 -7 7 13 7 12 9 -5 9 -5 7 12 8 13 2 45 2 45 1 8 1 7 9 0 9 0 -4 -32z
m720 -4 l-2 -29 -3 -14 -4 -13 14 -6 14 -5 -7 11 -6 10 12 -2 13 -1 5 -9 5 -9
-20 -3 -19 -3 -13 11 -13 10 4 7 5 7 -10 14 -9 15 -1 -20 -2 -20 0 -16 0 -16
-11 0 -12 0 0 23 0 23 8 -5 8 -5 0 16 0 16 -12 -7 -11 -7 7 11 6 11 20 -4 20
-4 0 5 0 5 -10 19 -10 18 18 -2 17 -3 -1 -29z m267 9 l24 -28 -21 18 -21 17
-5 -5 -5 -5 0 15 0 15 2 0 2 0 24 -27z m94 -11 l0 -32 -9 0 -10 -1 -2 17 -2
16 -16 17 -16 18 27 -2 28 -1 0 -32z m-43 -8 l3 -12 -9 -3 -9 -4 -2 23 -2 23
8 -8 8 -8 3 -11z m-1075 1 l0 -14 -9 5 -8 5 5 10 6 9 3 0 3 0 0 -15z m157 -1
l6 -15 -10 6 -10 6 0 10 0 9 4 0 4 0 6 -16z m236 -10 l-10 -11 -27 3 -28 2 -3
1 -3 1 5 8 5 8 35 0 35 0 -9 -12z m490 6 l0 15 10 -15 10 -15 0 13 0 12 8 0 9
0 0 -14 0 -14 -18 3 -17 4 -6 -16 -6 -15 6 -9 5 -9 -5 0 -5 0 -11 19 -10 20 6
16 7 17 8 -14 9 -13 0 15z m115 -31 l0 -37 -7 4 -8 5 0 -20 0 -21 13 -1 12 -1
-13 -5 -13 -5 10 -12 11 -13 -13 0 -14 0 0 51 -1 51 -1 13 -1 13 -10 -6 -10
-6 5 -10 6 -9 -10 0 -11 0 -1 8 -1 7 -3 15 -3 16 32 0 31 0 0 -37z m71 -11 l4
2 0 -7 0 -7 -24 -2 -25 -1 -5 13 -5 13 17 -6 17 -6 -20 24 -20 24 28 -25 29
-25 4 3z m-1075 15 l14 -18 -17 14 -18 13 0 4 0 4 4 0 4 0 13 -17z m165 -42
l1 -38 -12 0 -11 0 0 48 1 48 10 -10 10 -10 1 -38z m30 23 l2 -16 -6 6 -6 7
-2 15 -2 16 6 -6 6 -7 2 -15z m-205 -1 l14 -18 -17 14 -18 13 0 4 0 4 4 0 4 0
13 -17z m93 1 l6 -15 -10 6 -10 6 0 -10 0 -11 10 0 10 0 -1 -17 -1 -18 -5 14
-5 13 -9 -13 -8 -14 3 30 4 30 1 8 1 7 4 0 4 0 6 -16z m155 3 l11 -14 -13 0
-14 0 0 14 0 13 2 0 3 0 11 -13z m79 -12 l-6 -6 -6 18 -7 18 12 -12 13 -13 -6
-5z m39 3 l-5 -13 -1 19 -1 19 6 -6 6 -6 -5 -13z m28 13 l5 -10 -8 -5 -9 -5 0
14 0 15 3 0 3 0 6 -9z m302 -29 l1 -34 -9 13 -9 14 0 -12 0 -12 10 -25 10 -26
-13 -1 -12 -1 13 -5 12 -5 0 -13 0 -14 11 -7 11 -6 -4 22 -3 23 18 3 18 2 6
-14 5 -14 9 6 9 5 -2 -13 -3 -13 21 1 21 1 0 -11 0 -12 -32 0 -32 0 0 16 0 15
-2 13 -1 13 -11 -7 -11 -6 6 -27 7 -26 -11 15 -10 15 0 -15 0 -15 -10 15 -10
15 -1 -15 -1 -15 -5 14 -5 13 -7 -11 -7 -11 0 79 1 79 7 -4 8 -5 0 8 0 9 -10
10 -11 11 14 0 13 0 1 -35z m272 12 l8 5 -5 -27 -6 -27 -6 25 -7 25 -11 -2
-11 -3 6 16 6 16 9 -16 9 -16 8 4z m-674 -14 l6 -10 -15 6 -16 6 0 4 0 4 9 0
10 0 6 -10z m121 -16 l2 -15 -14 12 -14 11 6 10 6 9 6 -6 6 -6 2 -15z m-508
-9 l-6 -6 -6 18 -7 18 12 -12 13 -13 -6 -5z m44 14 l3 9 19 -26 20 -27 -20 16
-19 17 -16 -3 -16 -3 0 14 0 14 13 -11 12 -10 4 10z m184 -1 l7 -11 -11 7 -12
7 0 -10 0 -10 10 -6 10 -6 -5 -8 -4 -8 15 -19 15 -19 -4 21 -4 21 11 0 12 0
-2 -36 -2 -36 -1 -15 -1 -15 -13 25 -13 25 -14 0 -15 0 -1 45 -1 45 4 8 4 7 4
0 4 0 7 -12z m119 -15 l-2 -24 -6 -5 -5 -6 -7 21 -6 21 -9 -5 -9 -5 4 -22 5
-22 -12 12 -12 12 -1 23 -2 23 33 0 32 0 -3 -23z m85 15 l0 -13 10 15 10 15 0
-15 0 -15 9 13 8 14 6 -15 5 -14 -16 1 -17 1 0 -10 0 -10 23 2 24 2 -6 -17 -6
-17 14 18 14 18 -2 -30 -1 -30 -18 17 -19 17 -32 0 -31 0 -1 25 0 25 3 8 4 7
10 0 9 0 0 -12z m121 -5 l14 -18 -17 14 -18 13 0 4 0 4 4 0 4 0 13 -17z m50 0
l14 -18 -17 14 -18 13 0 4 0 4 4 0 4 0 13 -17z m145 -39 l4 -29 -10 15 -10 15
0 -13 0 -13 9 -17 8 -17 -8 -20 -8 -20 -1 25 -1 25 -1 42 -1 42 -7 -4 -7 -4 0
15 0 15 14 -14 14 -13 5 -30z m141 40 l0 -12 -20 4 -19 3 4 -24 5 -24 -9 5 -8
5 2 28 2 27 21 0 22 0 0 -12z m268 -4 l-15 -17 7 -8 8 -8 -12 7 -13 7 0 -9 0
-9 8 -7 7 -8 1 -29 0 -29 -10 10 -11 11 -1 52 0 53 23 0 22 0 -14 -16z m-774
-7 l14 -18 -17 14 -18 13 0 4 0 4 4 0 4 0 13 -17z m445 -17 l1 -31 -5 20 -5
20 -8 -20 -7 -20 1 31 2 31 10 0 10 0 1 -31z m-281 -25 l3 -31 -12 0 -11 0 15
-10 15 -10 -14 0 -13 0 11 -13 11 -14 -15 0 -14 0 -33 36 -33 36 31 -28 32
-29 4 9 5 8 -1 47 -1 47 8 -8 9 -9 3 -31z m695 43 l0 -3 -9 -6 -10 -5 -5 8 -5
9 14 0 15 0 0 -3z m-539 -21 l14 -18 -17 14 -18 13 0 4 0 4 4 0 4 0 13 -17z
m-691 -18 l23 -25 -5 0 -5 0 -23 25 -23 25 5 0 5 0 23 -25z m51 8 l14 -18 -17
14 -18 13 0 4 0 4 4 0 4 0 13 -17z m56 0 l0 -13 -14 11 -13 11 0 3 0 2 13 0
14 0 0 -14z m68 -8 l0 -22 -11 0 -11 0 5 21 5 21 -15 -13 -16 -13 -6 9 -5 9 4
5 4 4 23 0 23 0 0 -21z m194 2 l-1 -12 -5 13 -5 12 -10 -6 -11 -7 7 12 7 11
10 -5 9 -6 -1 -12z m206 -16 l-2 -36 9 -18 9 -17 -8 1 -8 1 -9 -1 -8 -1 13
-17 13 -18 -14 13 -15 13 0 58 -1 58 11 0 11 0 -1 -36z m480 20 l-3 -16 -2 -5
-2 -5 2 -10 2 -10 4 -19 4 -20 -12 12 -12 12 -1 38 -1 39 12 0 12 0 -3 -16z
m-438 -16 l0 -14 -9 5 -8 5 5 10 6 9 3 0 3 0 0 -15z m79 -19 l2 -14 -17 3 -16
3 -4 1 -3 1 11 13 11 14 -4 5 -3 6 10 -9 11 -9 2 -14z m475 7 l14 -18 -17 14
-18 13 0 4 0 4 4 0 4 0 13 -17z m-784 -9 l0 -11 -16 0 -16 0 -12 -2 -12 -1 4
-18 3 -19 -12 0 -12 0 0 32 0 31 36 0 37 0 0 -12z m41 8 l17 13 -14 -17 -13
-18 -9 6 -9 5 1 12 1 12 5 -13 5 -13 16 13z m668 -4 l7 -11 -11 7 -12 7 0 -10
0 -11 13 0 12 0 -15 -10 -15 -10 12 0 12 0 -2 -19 -1 -20 -6 1 -5 0 -5 -2 -5
-2 -17 -3 -18 -3 -5 8 -5 7 23 -1 22 -1 -2 43 -2 42 9 0 9 0 7 -12z m-76 -4
l0 -3 -9 -6 -10 -5 -5 8 -5 9 14 0 15 0 0 -3z m170 -39 l0 -10 10 15 10 15 0
-15 0 -15 11 15 11 15 -5 -15 -4 -15 -14 -1 -14 0 -12 9 -13 9 0 -12 0 -13 -5
5 -6 5 -4 21 -4 21 20 -12 19 -12 0 -10z m-484 -2 l-2 -12 -9 -8 -8 -8 7 12 6
12 -10 6 -10 6 -1 -18 -1 -18 -5 19 -5 19 -9 -14 -9 -14 0 13 0 13 -12 -7 -11
-7 6 9 6 10 34 0 35 0 -2 -13z m327 -3 l12 -14 -17 12 -16 13 -4 -13 -4 -12
-6 16 -7 16 15 -2 14 -2 13 -14z m-988 -10 l18 -20 -5 0 -5 0 -18 20 -18 20 5
0 5 0 18 -20z m369 -18 l5 -9 -14 0 -14 0 5 9 5 8 4 0 4 0 5 -8z m246 2 l0 -3
-9 -6 -10 -5 -5 8 -5 9 14 0 15 0 0 -3z"/>
<path d="M201 1244 l1 -19 5 13 5 13 -6 6 -6 6 1 -19z"/>
<path d="M241 1214 l1 -19 5 13 5 13 -6 6 -6 6 1 -19z"/>
<path d="M276 1183 l-7 -18 12 12 13 13 -6 5 -6 6 -6 -18z"/>
<path d="M186 1181 l-6 -10 9 -5 10 -6 5 9 6 10 -9 5 -10 6 -5 -9z"/>
<path d="M791 1243 l12 -13 13 10 12 11 11 -18 10 -18 1 18 0 17 -7 1 -8 1
-27 2 -28 3 11 -14z"/>
<path d="M760 1190 l11 -20 5 0 5 0 -11 20 -11 20 -5 0 -5 0 11 -20z"/>
<path d="M323 1215 l0 -14 9 5 8 5 -5 10 -6 9 -3 0 -3 0 0 -15z"/>
<path d="M1086 1008 l5 -8 10 5 9 6 0 3 0 3 -15 0 -14 0 5 -9z"/>
<path d="M1120 985 l0 -3 15 -5 14 -6 5 7 5 8 -20 1 -19 2 0 -4z"/>
<path d="M797 911 l-6 -24 11 11 10 10 -4 13 -4 13 -7 -23z"/>
<path d="M483 965 l0 -14 9 5 8 5 -5 10 -6 9 -3 0 -3 0 0 -15z"/>
<path d="M563 912 l1 -21 5 4 4 5 17 -15 17 -15 0 15 0 14 -8 -5 -8 -4 -15 21
-15 22 2 -21z"/>
<path d="M603 827 l0 -14 14 0 13 0 -11 14 -11 13 -3 0 -2 0 0 -13z"/>
<path d="M726 928 l5 -8 10 5 9 6 0 3 0 3 -15 0 -14 0 5 -9z"/>
<path d="M835 869 l-7 -10 6 -6 6 -6 0 14 0 14 10 -15 10 -15 0 12 0 12 -9 6
-10 5 -6 -11z"/>
<path d="M195 891 l-5 -10 8 -5 9 -5 0 14 0 15 -3 0 -3 0 -6 -9z"/>
<path d="M477 861 l-6 -24 11 11 10 10 -4 13 -4 13 -7 -23z"/>
<path d="M1030 891 l0 -10 10 -6 10 -6 -6 15 -6 16 -4 0 -4 0 0 -9z"/>
<path d="M1081 854 l1 -19 5 13 5 13 -6 6 -6 6 1 -19z"/>
<path d="M990 825 l-12 -15 -7 4 -7 5 -1 -27 -2 -27 6 15 6 15 20 23 20 22 -5
0 -6 0 -12 -15z"/>
<path d="M1117 755 l-6 -14 7 -5 8 -5 1 20 2 19 -4 0 -3 0 -5 -15z"/>
<path d="M1041 724 l1 -19 5 13 5 13 -6 6 -6 6 1 -19z"/>
<path d="M551 746 l-11 -13 13 -11 13 -11 0 24 0 25 -2 0 -2 0 -11 -14z"/>
<path d="M909 663 l-14 -18 18 14 17 13 0 4 0 4 -4 0 -4 0 -13 -17z"/>
<path d="M243 587 l0 -14 14 0 13 0 -11 14 -11 13 -3 0 -2 0 0 -13z"/>
<path d="M1113 584 l-6 -15 9 -9 9 -9 0 25 0 24 -3 0 -3 0 -6 -16z"/>
<path d="M710 545 l-12 -15 -12 7 -11 6 7 -8 8 -8 -12 -16 -12 -16 24 22 25
22 8 0 9 -1 4 5 5 5 -9 6 -10 6 -12 -15z"/>
<path d="M990 491 l0 -10 10 -6 10 -6 -6 15 -6 16 -4 0 -4 0 0 -9z"/>
<path d="M340 455 l0 -3 13 -11 14 -11 0 13 0 14 -14 0 -13 0 0 -2z"/>
<path d="M921 444 l1 -19 5 13 5 13 -6 6 -6 6 1 -19z"/>
<path d="M566 422 l-5 -9 14 0 14 0 -5 9 -5 8 -4 0 -4 0 -5 -8z"/>
<path d="M124 406 l2 -15 6 -7 6 -6 -2 16 -2 15 -6 7 -6 6 2 -16z"/>
<path d="M203 403 l0 -13 14 11 13 11 0 3 0 2 -13 0 -14 0 0 -14z"/>
<path d="M520 349 l0 -20 10 6 9 6 -6 14 -5 15 -4 0 -4 0 0 -21z"/>
<path d="M220 296 l10 -10 10 10 10 10 -20 0 -20 0 10 -10z"/>
<path d="M603 351 l1 -20 8 5 7 5 -6 14 -5 15 -3 0 -4 0 2 -19z"/>
<path d="M230 251 l0 -10 10 -6 10 -6 -6 15 -6 16 -4 0 -4 0 0 -9z"/>
<path d="M163 209 l-2 -19 4 0 3 0 5 15 6 14 -7 5 -8 5 -1 -20z"/>
<path d="M1232 281 l12 -16 3 -4 2 -3 -2 19 -1 20 -13 0 -13 0 12 -16z"/>
<path d="M800 81 l0 -10 10 -6 10 -6 -6 15 -6 16 -4 0 -4 0 0 -9z"/>
<path d="M243 112 l1 -21 5 4 4 5 17 -15 17 -15 0 15 0 14 -8 -5 -8 -4 -15 21
-15 22 2 -21z"/>
<path d="M356 167 l6 -18 6 6 6 5 -13 13 -12 12 7 -18z"/>
<path d="M444 156 l0 -23 13 0 13 0 -10 12 -10 12 6 5 5 6 -8 5 -9 6 0 -23z"/>
<path d="M365 90 l-6 -10 15 6 16 6 0 4 0 4 -9 0 -10 0 -6 -10z"/>
<path d="M480 1271 l0 -10 10 -6 10 -6 -6 15 -6 16 -4 0 -4 0 0 -9z"/>
<path d="M1000 1241 l0 -20 9 -5 8 -5 -5 24 -4 25 -4 0 -4 0 0 -19z"/>
<path d="M1164 19 l0 -19 8 0 8 0 0 14 0 15 -8 5 -8 5 0 -20z"/>
</g>
</svg>
