<?xml version="1.0" standalone="no"?>
<!DOCTYPE svg PUBLIC "-//W3C//DTD SVG 20010904//EN"
 "http://www.w3.org/TR/2001/REC-SVG-20010904/DTD/svg10.dtd">
<svg version="1.0" xmlns="http://www.w3.org/2000/svg"
 width="468pt" height="468pt" viewBox="0 0 468 468"
 preserveAspectRatio="xMidYMid meet">
<metadata>
Created by potrace 1.8, written by Peter Selinger 2001-2007
</metadata>
<g transform="translate(0,468) scale(0.365625,-0.365625)"
fill="#000000" stroke="none">
<path d="M0 880 l0 -30 400 0 400 0 0 -425 0 -425 25 0 25 0 0 455 0 455 -425
0 -425 0 0 -30z"/>
<path d="M0 560 l0 -240 215 0 215 0 0 -160 0 -160 160 0 160 0 0 400 0 400
-375 0 -375 0 0 -240z m690 135 l0 -55 -25 0 -25 0 0 -55 0 -55 -25 0 -25 0 0
-50 0 -50 -30 0 -30 0 0 -55 0 -55 -25 0 -25 0 0 55 0 55 25 0 25 0 0 50 0 50
30 0 30 0 0 55 0 55 25 0 25 0 0 55 0 55 25 0 25 0 0 -55z"/>
</g>
</svg>
