<?xml version="1.0" standalone="no"?>
<!DOCTYPE svg PUBLIC "-//W3C//DTD SVG 20010904//EN"
 "http://www.w3.org/TR/2001/REC-SVG-20010904/DTD/svg10.dtd">
<svg version="1.0" xmlns="http://www.w3.org/2000/svg"
 width="468pt" height="468pt" viewBox="0 0 468 468"
 preserveAspectRatio="xMidYMid meet">
<metadata>
Created by potrace 1.8, written by Peter Selinger 2001-2007
</metadata>
<g transform="translate(0,468) scale(0.365625,-0.365625)"
fill="#000000" stroke="none">
<path d="M550 1190 l0 -30 30 0 30 0 0 30 0 30 -30 0 -30 0 0 -30z"/>
<path d="M1100 1190 l0 -30 30 0 30 0 0 -30 0 -30 -60 0 -60 0 0 -30 0 -30
-30 0 -30 0 0 -95 0 -95 -35 0 -35 0 0 95 0 95 -30 0 -30 0 0 30 0 30 -90 0
-90 0 0 -155 0 -155 -30 0 -30 0 0 155 0 155 -120 0 -120 0 0 -60 0 -60 -35 0
-35 0 0 -35 0 -35 -30 0 -30 0 0 65 0 65 30 0 30 0 0 30 0 30 -60 0 -60 0 0
-95 0 -95 -30 0 -30 0 0 35 0 35 -30 0 -30 0 0 30 0 30 30 0 30 0 0 30 0 30
-60 0 -60 0 0 -60 0 -60 30 0 30 0 0 -65 0 -65 30 0 30 0 0 -30 0 -30 -60 0
-60 0 0 -395 0 -395 640 0 640 0 0 425 0 425 -30 0 -30 0 0 185 0 185 -60 0
-60 0 0 -30z m-550 -275 l0 -125 -125 0 -125 0 0 30 0 30 35 0 35 0 0 65 0 65
30 0 30 0 0 30 0 30 60 0 60 0 0 -125z m300 0 l0 -125 -30 0 -30 0 0 30 0 30
-30 0 -30 0 0 95 0 95 60 0 60 0 0 -125z m310 30 l0 -95 30 0 30 0 0 -30 0
-30 -30 0 -30 0 0 30 0 30 -60 0 -60 0 0 -30 0 -30 -30 0 -30 0 0 30 0 30 30
0 30 0 0 95 0 95 60 0 60 0 0 -95z m-920 -95 l0 -60 -30 0 -30 0 0 60 0 60 30
0 30 0 0 -60z"/>
</g>
</svg>
