<?xml version="1.0" standalone="no"?>
<!DOCTYPE svg PUBLIC "-//W3C//DTD SVG 20010904//EN"
 "http://www.w3.org/TR/2001/REC-SVG-20010904/DTD/svg10.dtd">
<svg version="1.0" xmlns="http://www.w3.org/2000/svg"
 width="468pt" height="468pt" viewBox="0 0 468 468"
 preserveAspectRatio="xMidYMid meet">
<metadata>
Created by potrace 1.8, written by Peter Selinger 2001-2007
</metadata>
<g transform="translate(0,468) scale(0.365625,-0.365625)"
fill="#000000" stroke="none">
<path d="M32 1244 l-34 -35 5 -6 6 -5 35 36 36 35 0 6 0 5 -7 -1 -8 0 -33 -35z"/>
<path d="M72 1203 l-74 -75 6 -5 5 -5 70 71 70 71 6 0 5 0 0 -25 0 -26 -45
-44 -44 -45 -11 0 -11 0 -24 -25 -25 -24 0 -16 0 -15 5 0 5 0 115 115 115 115
0 5 0 5 -29 0 -29 0 -6 -12 -6 -13 -6 13 -6 12 -6 -1 -7 -1 -73 -75z"/>
<path d="M213 1224 l-53 -54 0 -25 0 -25 -15 0 -15 0 -65 -65 -65 -65 0 -15 0
-15 5 0 5 0 155 155 155 155 0 5 0 5 -27 -1 -28 0 -52 -55z"/>
<path d="M350 1260 l-14 -20 -13 0 -13 0 -55 -55 -55 -55 0 -10 0 -11 -100
-99 -100 -99 0 -16 0 -15 5 0 5 0 195 195 195 195 0 5 0 5 -18 0 -18 0 -14
-20z"/>
<path d="M390 1220 l-55 -59 -13 0 -13 -1 -15 -14 -14 -15 0 -11 0 -11 -140
-139 -140 -139 0 -16 0 -15 5 0 5 0 235 235 235 235 0 5 0 5 -17 -1 -18 0 -55
-59z"/>
<path d="M373 1124 l-153 -154 0 -10 0 -11 -25 -24 -24 -25 -11 0 -11 0 -44
-45 -45 -44 0 -12 0 -11 -31 -29 -32 -30 6 -5 5 -6 276 276 276 276 0 5 0 5
-17 -1 -18 -1 -152 -154z"/>
<path d="M453 1124 l-153 -154 0 -10 0 -10 -65 -65 -65 -65 -15 0 -15 0 0 -15
0 -16 -71 -70 -72 -71 14 -10 14 -10 -12 -5 -13 -5 0 -29 0 -29 5 0 5 0 355
355 355 355 0 5 0 5 -15 0 -15 0 -75 -75 -75 -75 0 -10 0 -11 -25 -24 -24 -25
-11 0 -11 0 -49 -50 -49 -50 -11 0 -11 0 -15 -14 -14 -15 0 -21 0 -21 -45 -44
-44 -45 -21 0 -21 0 -15 -14 -14 -15 0 -21 0 -21 -45 -44 -44 -45 -26 0 -25 0
0 5 0 5 310 310 310 310 0 5 0 5 -17 -1 -18 -1 -152 -154z"/>
<path d="M693 1204 l-73 -74 0 -10 0 -10 -65 -65 -65 -65 -15 0 -15 0 0 -10 0
-10 -15 0 -15 0 -55 -55 -55 -55 0 -25 0 -25 -25 0 -25 0 -55 -55 -55 -55 0
-25 0 -25 -25 0 -25 0 -55 -55 -55 -55 0 -25 0 -25 5 0 5 0 395 395 395 395 0
5 0 5 -17 -1 -18 -1 -72 -74z"/>
<path d="M840 1250 l-25 -29 -13 -1 -13 0 -49 -50 -49 -50 -11 0 -11 0 -15
-14 -14 -15 0 -21 0 -21 -45 -44 -44 -45 -14 0 -13 0 -14 -20 -14 -20 -13 0
-13 0 -55 -55 -55 -55 0 -10 0 -11 -14 -15 -15 -14 -11 0 -10 0 -55 -55 -55
-55 0 -10 0 -11 -14 -15 -15 -14 -11 0 -10 0 -55 -55 -55 -55 0 -13 0 -13 -20
-14 -20 -14 0 -18 0 -18 5 0 5 0 435 435 435 435 0 5 0 5 -7 0 -8 -1 -25 -29z"/>
<path d="M880 1210 l-65 -69 -17 0 -18 -1 0 -10 0 -10 -15 0 -15 0 -55 -55
-55 -55 0 -25 0 -25 -16 0 -15 0 -59 -60 -59 -60 -11 0 -11 0 -15 -14 -14 -15
0 -11 0 -10 -55 -55 -55 -55 -10 0 -11 0 -15 -14 -14 -15 0 -11 0 -10 -55 -55
-55 -55 -10 0 -11 0 -15 -14 -14 -15 0 -11 0 -11 -60 -59 -60 -59 0 -15 0 -16
5 0 5 0 470 470 470 470 5 0 5 0 0 -25 0 -26 -45 -44 -44 -45 -14 0 -13 0 -14
-20 -14 -20 -13 0 -13 0 -57 -56 -56 -56 13 -8 13 -8 -26 -26 -26 -26 -11 0
-10 0 -125 -125 -125 -125 0 -10 0 -11 -25 -24 -24 -25 -11 0 -11 0 -44 -45
-45 -44 0 -11 0 -11 -25 -24 -24 -25 -11 0 -10 0 -75 -75 -75 -75 0 -15 0 -15
5 0 5 0 515 515 515 515 0 5 0 5 -29 0 -29 0 -6 -12 -6 -13 -6 13 -6 12 -6 -1
-7 0 -65 -69z"/>
<path d="M1013 1224 l-53 -54 0 -25 0 -25 -16 0 -15 0 -59 -60 -59 -60 -11 0
-11 0 -16 -16 -16 -16 13 -8 13 -8 -67 -66 -66 -66 -10 0 -10 0 -85 -85 -85
-85 0 -10 0 -10 -65 -65 -65 -65 -15 0 -15 0 0 -15 0 -15 -65 -65 -65 -65 -10
0 -10 0 -75 -75 -75 -75 0 -15 0 -15 5 0 5 0 555 555 555 555 0 5 0 5 -27 -1
-28 0 -52 -55z"/>
<path d="M1150 1260 l-14 -20 -13 0 -13 0 -57 -56 -56 -56 13 -8 13 -8 -26
-26 -26 -26 -11 0 -11 0 -49 -50 -49 -50 -11 0 -11 0 -15 -14 -14 -15 0 -21 0
-21 -45 -44 -44 -45 -11 0 -11 0 -79 -80 -79 -80 -11 0 -11 0 -15 -14 -14 -15
0 -21 0 -21 -45 -44 -44 -45 -21 0 -21 0 -15 -14 -14 -15 0 -21 0 -21 -45 -44
-44 -45 -11 0 -11 0 -79 -80 -79 -80 -11 0 -11 0 -15 -14 -14 -15 0 -25 0 -26
5 0 5 0 595 595 595 595 0 5 0 5 -18 0 -18 0 -14 -20z"/>
<path d="M1190 1220 l-55 -59 -13 0 -13 -1 -16 -16 -16 -16 13 -8 13 -8 -67
-66 -66 -66 -15 0 -15 0 0 -10 0 -10 -15 0 -15 0 -55 -55 -55 -55 0 -25 0 -25
-15 0 -16 0 -79 -80 -79 -80 -11 0 -10 0 -55 -55 -55 -55 0 -25 0 -25 -25 0
-25 0 -55 -55 -55 -55 0 -25 0 -25 -15 0 -16 0 -79 -80 -79 -80 -11 0 -10 0
-55 -55 -55 -55 0 -25 0 -25 5 0 5 0 635 635 635 635 0 5 0 5 -17 -1 -18 0
-55 -59z"/>
<path d="M1220 1170 l-45 -49 -13 0 -13 -1 -15 -14 -14 -15 0 -21 0 -21 -45
-44 -44 -45 -14 0 -13 0 -14 -20 -14 -20 -13 0 -13 0 -57 -56 -56 -56 13 -8
13 -8 -26 -26 -26 -26 -11 0 -11 0 -69 -70 -69 -70 -11 0 -10 0 -55 -55 -55
-55 0 -10 0 -11 -14 -15 -15 -14 -11 0 -10 0 -55 -55 -55 -55 0 -10 0 -10 -95
-95 -95 -95 -10 0 -10 0 -55 -55 -55 -55 0 -5 0 -5 25 0 25 0 595 595 595 595
0 15 0 15 -7 -1 -8 0 -45 -49z"/>
<path d="M1260 1130 l0 -10 -15 0 -15 0 -55 -55 -55 -55 0 -25 0 -25 -16 0
-15 0 -59 -60 -59 -60 -11 0 -11 0 -16 -16 -16 -16 13 -8 13 -8 -67 -66 -66
-66 -10 0 -11 0 -69 -70 -69 -70 -11 0 -11 0 -15 -14 -14 -15 0 -11 0 -10 -55
-55 -55 -55 -10 0 -11 0 -15 -14 -14 -15 0 -10 0 -11 -135 -135 -135 -135 -11
0 -10 0 -15 -14 -14 -15 0 -5 0 -6 25 0 25 0 555 555 555 555 0 15 0 15 -10 0
-10 0 0 -10z"/>
<path d="M1213 1024 l-53 -54 0 -10 0 -10 -75 -75 -75 -75 -11 0 -10 0 -15
-14 -14 -15 0 -21 0 -21 -45 -44 -44 -45 -11 0 -10 0 -75 -75 -75 -75 0 -10 0
-11 -25 -24 -24 -25 -11 0 -11 0 -44 -45 -45 -44 0 -11 0 -11 -25 -24 -24 -25
-11 0 -11 0 -44 -45 -45 -44 0 -11 0 -11 -25 -24 -24 -25 -11 0 -11 0 -44 -45
-45 -44 0 -6 0 -5 15 0 15 0 515 515 515 515 0 25 0 25 -7 -1 -8 0 -52 -55z"/>
<path d="M1253 985 l-13 -14 0 -11 0 -10 -75 -75 -75 -75 -10 0 -10 0 -55 -55
-55 -55 0 -25 0 -25 -15 0 -15 0 -75 -75 -75 -75 0 -10 0 -10 -65 -65 -65 -65
-15 0 -15 0 0 -15 0 -15 -65 -65 -65 -65 -15 0 -15 0 0 -15 0 -15 -65 -65 -65
-65 -15 0 -15 0 0 -10 0 -10 15 0 15 0 475 475 475 475 0 25 0 25 -7 0 -8 -1
-12 -14z"/>
<path d="M1200 830 l-65 -69 -13 0 -12 -1 -55 -55 -55 -55 0 -10 0 -10 -75
-75 -75 -75 -11 0 -10 0 -15 -14 -14 -15 0 -21 0 -21 -45 -44 -44 -45 -21 0
-21 0 -15 -14 -14 -15 0 -21 0 -21 -45 -44 -44 -45 -21 0 -21 0 -15 -14 -14
-15 0 -21 0 -22 -41 -39 -41 -40 5 -5 5 -6 436 436 436 436 0 15 0 15 -7 -1
-8 0 -65 -69z"/>
<path d="M1200 750 l-65 -69 -13 0 -13 -1 -15 -14 -14 -15 0 -10 0 -11 -75
-75 -75 -75 -10 0 -10 0 -55 -55 -55 -55 0 -25 0 -25 -25 0 -25 0 -55 -55 -55
-55 0 -25 0 -25 -25 0 -25 0 -55 -55 -55 -55 0 -25 0 -25 5 0 5 0 395 395 395
395 0 15 0 15 -7 -1 -8 0 -65 -69z"/>
<path d="M1223 695 l-43 -45 0 -10 0 -11 -25 -24 -24 -25 -11 0 -11 0 -69 -70
-69 -70 -11 0 -10 0 -55 -55 -55 -55 0 -10 0 -11 -14 -15 -15 -14 -11 0 -10 0
-55 -55 -55 -55 0 -10 0 -11 -14 -15 -15 -14 -11 0 -10 0 -55 -55 -55 -55 0
-5 0 -5 25 0 25 0 355 355 355 355 0 15 0 15 -7 -1 -8 0 -42 -44z"/>
<path d="M1260 645 l0 -15 -65 -65 -65 -65 -10 0 -11 0 -69 -70 -69 -70 -11 0
-11 0 -15 -14 -14 -15 0 -11 0 -10 -55 -55 -55 -55 -10 0 -11 0 -15 -14 -14
-15 0 -11 0 -10 -55 -55 -55 -55 -10 0 -11 0 -15 -14 -14 -15 0 -5 0 -6 25 0
25 0 315 315 315 315 0 15 0 15 -10 0 -10 0 0 -15z"/>
<path d="M1230 520 l-35 -39 -13 -1 -12 0 -75 -75 -75 -75 0 -10 0 -11 -25
-24 -24 -25 -11 0 -10 0 -125 -125 -125 -125 0 -5 0 -5 15 0 15 0 275 275 275
275 0 5 0 5 -7 0 -8 -1 -35 -39z"/>
<path d="M1173 404 l-73 -74 0 -10 0 -10 -65 -65 -65 -65 -10 0 -10 0 -85 -85
-85 -85 0 -5 0 -5 15 0 15 0 235 235 235 235 0 5 0 5 -17 -1 -18 -1 -72 -74z"/>
<path d="M1220 370 l-45 -49 -13 0 -13 -1 -15 -14 -14 -15 0 -21 0 -21 -45
-44 -44 -45 -11 0 -10 0 -75 -75 -75 -75 0 -5 0 -5 15 0 15 0 195 195 195 195
0 15 0 15 -7 -1 -8 0 -45 -49z"/>
<path d="M1260 330 l0 -10 -15 0 -15 0 -55 -55 -55 -55 0 -25 0 -25 -15 0 -15
0 -75 -75 -75 -75 0 -5 0 -5 15 0 15 0 155 155 155 155 0 15 0 15 -10 0 -10 0
0 -10z"/>
<path d="M1211 223 l-54 -55 13 -8 13 -8 -26 -26 -26 -26 -11 0 -11 0 -44 -45
-45 -44 0 -6 0 -5 15 0 15 0 115 115 115 115 0 25 0 25 -7 -1 -8 0 -54 -56z"/>
<path d="M1251 184 l-14 -16 13 -8 13 -8 -67 -66 -66 -66 -15 0 -15 0 0 -10 0
-10 15 0 15 0 75 75 75 75 0 25 0 25 -7 0 -8 -1 -14 -15z"/>
<path d="M1232 44 l-34 -35 5 -6 6 -5 35 36 36 35 0 6 0 5 -7 -1 -8 0 -33 -35z"/>
</g>
</svg>
