<?xml version="1.0" standalone="no"?>
<!DOCTYPE svg PUBLIC "-//W3C//DTD SVG 20010904//EN"
 "http://www.w3.org/TR/2001/REC-SVG-20010904/DTD/svg10.dtd">
<svg version="1.0" xmlns="http://www.w3.org/2000/svg"
 width="468pt" height="468pt" viewBox="0 0 468 468"
 preserveAspectRatio="xMidYMid meet">
<metadata>
Created by potrace 1.8, written by Peter Selinger 2001-2007
</metadata>
<g transform="translate(0,468) scale(0.365625,-0.365625)"
fill="#000000" stroke="none">
<path d="M853 1125 l-33 -34 0 -76 0 -75 10 0 10 0 0 -120 0 -120 -10 0 -10 0
0 -16 0 -15 -14 -15 -15 -14 -45 0 -46 0 0 10 0 10 -90 0 -90 0 0 10 0 10 -80
0 -80 0 0 10 0 10 -40 0 -40 0 0 10 0 10 -30 0 -30 0 0 10 0 10 -20 0 -20 0 0
10 0 10 -20 0 -20 0 0 10 0 10 -20 0 -20 0 0 10 0 10 -15 0 -16 0 -24 -25 -25
-24 0 -11 0 -11 61 -60 61 -60 -21 -18 -21 -18 0 -12 0 -11 155 -155 155 -155
65 0 65 0 0 -10 0 -10 180 0 180 0 0 10 0 10 45 0 46 0 34 35 35 34 0 176 0
175 -10 0 -10 0 0 88 0 88 20 14 20 14 0 8 0 8 -19 0 -19 0 -5 -12 -5 -13 -11
15 -11 15 -9 -14 -9 -14 -18 17 -17 18 14 8 13 9 -6 7 -7 6 -17 -17 -17 -17
14 -9 14 -9 -14 -9 -14 -9 17 -18 18 -17 8 13 8 13 18 -17 17 -18 -14 -9 -14
-9 15 -10 15 -10 -15 -10 -15 -10 15 -10 15 -10 -15 -10 -15 -10 15 -11 15
-11 -12 -5 -13 -5 0 -9 0 -9 20 0 20 0 0 -160 0 -160 -9 0 -9 0 -5 13 -4 12
-9 -9 -9 -9 13 -4 12 -5 0 -25 0 -24 -14 -15 -15 -14 -45 0 -46 0 0 10 0 10
20 0 20 0 0 5 0 6 -45 44 -44 45 -16 0 -15 0 0 10 0 10 -30 0 -30 0 0 10 0 10
-30 0 -30 0 0 10 0 10 -80 0 -80 0 0 10 0 10 -120 0 -120 0 0 -16 0 -16 31
-29 31 -29 -16 -15 -16 -16 -46 47 -47 46 13 8 13 8 -17 18 -18 17 -8 -13 -8
-13 -18 17 -17 18 14 8 13 9 -8 8 -9 8 -4 -12 -5 -13 -9 0 -9 0 0 16 0 15 16
16 16 16 10 -14 10 -14 5 13 5 12 19 0 19 0 0 -9 0 -9 -12 -5 -13 -4 9 -9 9
-9 4 13 5 12 19 0 19 0 0 -10 0 -10 30 0 30 0 0 -10 0 -10 40 0 40 0 0 -10 0
-10 80 0 80 0 0 -10 0 -10 90 0 90 0 0 -10 0 -10 45 0 46 0 24 25 25 24 0 16
0 15 10 0 10 0 0 119 0 119 -12 5 -13 5 15 11 15 11 -15 10 -15 10 15 10 15
10 -15 10 -15 10 15 10 15 10 -15 11 -15 11 13 5 12 5 0 19 0 19 16 0 17 0 18
22 19 21 19 -21 18 -22 17 0 16 0 0 -10 0 -10 -20 0 -20 0 0 -10 0 -10 20 0
20 0 0 -10 0 -10 56 0 55 0 15 15 15 15 -15 15 -15 15 -45 0 -46 0 0 10 0 10
-18 0 -18 0 -14 20 -14 20 -18 0 -18 0 0 -10 0 -10 -20 0 -20 0 0 -10 0 -10
-10 0 -10 0 0 26 0 25 14 15 15 14 15 0 16 0 0 10 0 10 46 0 45 0 15 15 15 15
-15 15 -15 15 -35 0 -36 0 0 10 0 10 -20 0 -20 0 0 10 0 10 -47 -1 -48 0 -32
-34z m137 -5 l14 -20 48 0 48 0 0 -10 0 -10 -50 0 -50 0 0 -10 0 -10 -15 0
-16 0 -24 -25 -25 -24 0 -46 0 -45 -10 0 -10 0 0 -80 0 -80 10 0 10 0 0 -120
0 -120 -10 0 -10 0 0 -16 0 -15 -14 -15 -15 -14 -15 0 -16 0 0 15 0 16 -35 34
-34 35 -16 0 -15 0 0 10 0 10 -40 0 -40 0 0 10 0 10 -30 0 -30 0 0 10 0 10
-70 0 -70 0 0 10 0 10 -120 0 -120 0 0 -20 0 -20 9 0 9 0 5 13 5 12 11 -15 11
-15 10 15 10 15 10 -15 10 -15 9 15 10 14 21 -23 20 -24 8 8 7 8 -12 4 -13 5
0 9 0 9 50 0 50 0 0 -9 0 -9 -12 -5 -13 -4 9 -9 9 -9 4 13 5 12 69 0 69 0 0
-10 0 -10 30 0 30 0 0 -10 0 -10 40 0 40 0 0 -10 0 -10 15 0 16 0 24 -25 25
-24 0 -16 0 -15 -20 0 -20 0 0 10 0 10 -90 0 -90 0 0 10 0 10 -80 0 -80 0 0
10 0 10 -36 0 -37 0 -19 22 -19 22 -9 -14 -8 -14 -31 33 -31 34 -20 -23 -20
-23 -8 8 -7 8 13 4 12 5 0 9 0 9 -20 0 -20 0 0 10 0 10 -15 0 -15 0 -55 55
-55 55 0 10 0 11 14 15 15 14 15 0 16 0 0 -10 0 -10 20 0 20 0 0 -10 0 -10 20
0 20 0 0 -9 0 -9 -12 -5 -13 -4 9 -9 9 -9 4 13 5 12 19 0 19 0 0 -10 0 -10 30
0 30 0 0 -10 0 -10 40 0 40 0 0 -10 0 -10 80 0 80 0 0 -10 0 -10 90 0 90 0 0
-10 0 -10 45 0 46 0 24 25 25 24 0 16 0 15 10 0 10 0 0 120 0 120 -10 0 -10 0
0 75 0 76 23 24 22 24 45 0 46 1 14 -20z m-10 -270 l0 -10 -10 0 -10 0 0 10 0
10 10 0 10 0 0 -10z m40 0 l0 -10 -10 0 -10 0 0 10 0 10 10 0 10 0 0 -10z
m-854 -265 l15 -15 -15 -16 -16 -15 -16 15 -15 16 13 14 13 15 3 1 3 0 15 -15z
m74 -135 l0 -10 -10 0 -10 0 0 10 0 10 10 0 10 0 0 -10z m203 -22 l5 -13 11
15 11 15 10 -15 10 -15 11 15 11 15 5 -12 5 -13 85 0 86 0 19 -22 19 -22 10
14 11 15 5 -12 5 -13 27 0 27 0 14 -20 14 -20 18 0 18 0 0 -19 0 -19 13 -5 12
-5 -15 -12 -15 -12 13 -5 12 -5 0 -9 0 -9 -180 0 -180 0 0 10 0 10 20 0 20 0
0 10 0 10 -30 0 -30 0 0 -10 0 -10 -20 0 -20 0 0 10 0 10 16 0 15 0 16 15 15
16 -6 7 -7 6 -10 -14 -9 -15 -9 14 -9 14 -16 -16 -16 -16 0 -15 0 -16 -9 0 -9
0 -5 13 -5 12 -10 -14 -10 -14 -36 37 -37 36 15 16 16 15 17 -16 16 -17 -14
-8 -13 -9 7 -8 8 -7 10 14 11 15 5 -12 5 -13 19 0 19 0 0 6 0 6 -41 39 -40 39
23 24 23 25 7 0 6 1 5 -12z"/>
<path d="M940 1110 l0 -10 10 0 10 0 0 10 0 10 -10 0 -10 0 0 -10z"/>
<path d="M980 1090 l0 -10 10 0 10 0 0 10 0 10 -10 0 -10 0 0 -10z"/>
<path d="M60 754 l0 -5 15 -16 16 -15 6 5 5 6 -15 16 -16 15 -5 0 -6 0 0 -6z"/>
<path d="M120 674 l0 -5 15 -16 16 -15 6 5 5 6 -15 16 -16 15 -5 0 -6 0 0 -6z"/>
<path d="M280 594 l0 -5 15 -15 15 -15 16 16 16 16 -6 7 -7 6 -10 -14 -11 -15
-5 13 -5 12 -9 0 -9 0 0 -6z"/>
<path d="M400 590 l0 -10 10 0 10 0 0 10 0 10 -10 0 -10 0 0 -10z"/>
<path d="M360 550 l0 -10 10 0 10 0 0 10 0 10 -10 0 -10 0 0 -10z"/>
<path d="M400 550 l0 -10 10 0 10 0 0 10 0 10 -10 0 -10 0 0 -10z"/>
<path d="M140 570 l0 -10 10 0 10 0 0 10 0 10 -10 0 -10 0 0 -10z"/>
<path d="M412 405 l-13 -15 36 -35 35 -36 17 16 16 17 -13 8 -13 8 17 18 18
17 8 -14 9 -13 7 6 6 7 -17 17 -17 17 -9 -14 -9 -14 -10 15 -10 15 -11 -15
-11 -15 -5 13 -5 12 -6 0 -7 -1 -13 -14z m31 -17 l5 -13 11 15 10 14 8 -7 7
-8 -14 -10 -15 -9 15 -9 14 -10 -6 -7 -7 -6 -25 25 -26 26 0 6 0 5 9 0 9 0 5
-12z"/>
<path d="M560 390 l0 -10 10 0 10 0 0 10 0 10 -10 0 -10 0 0 -10z"/>
<path d="M600 390 l0 -10 10 0 10 0 0 10 0 10 -10 0 -10 0 0 -10z"/>
<path d="M640 390 l0 -10 10 0 10 0 0 10 0 10 -10 0 -10 0 0 -10z"/>
<path d="M680 390 l0 -10 10 0 10 0 0 10 0 10 -10 0 -10 0 0 -10z"/>
<path d="M520 350 l0 -10 10 0 10 0 0 10 0 10 -10 0 -10 0 0 -10z"/>
<path d="M560 350 l0 -10 10 0 10 0 0 10 0 10 -10 0 -10 0 0 -10z"/>
<path d="M600 350 l0 -10 10 0 10 0 0 10 0 10 -10 0 -10 0 0 -10z"/>
<path d="M640 350 l0 -10 10 0 10 0 0 10 0 10 -10 0 -10 0 0 -10z"/>
<path d="M680 350 l0 -10 10 0 10 0 0 10 0 10 -10 0 -10 0 0 -10z"/>
<path d="M720 350 l0 -10 10 0 10 0 0 10 0 10 -10 0 -10 0 0 -10z"/>
<path d="M760 350 l0 -10 10 0 10 0 0 10 0 10 -10 0 -10 0 0 -10z"/>
<path d="M800 350 l0 -10 10 0 10 0 0 10 0 10 -10 0 -10 0 0 -10z"/>
<path d="M560 310 l0 -10 10 0 10 0 0 10 0 10 -10 0 -10 0 0 -10z"/>
<path d="M600 310 l0 -10 10 0 10 0 0 10 0 10 -10 0 -10 0 0 -10z"/>
<path d="M640 310 l0 -10 10 0 10 0 0 10 0 10 -10 0 -10 0 0 -10z"/>
<path d="M680 310 l0 -10 10 0 10 0 0 10 0 10 -10 0 -10 0 0 -10z"/>
<path d="M720 310 l0 -10 10 0 10 0 0 10 0 10 -10 0 -10 0 0 -10z"/>
<path d="M760 310 l0 -10 10 0 10 0 0 10 0 10 -10 0 -10 0 0 -10z"/>
<path d="M800 310 l0 -10 10 0 10 0 0 10 0 10 -10 0 -10 0 0 -10z"/>
<path d="M840 310 l0 -10 10 0 10 0 0 10 0 10 -10 0 -10 0 0 -10z"/>
<path d="M600 270 l0 -10 10 0 10 0 0 10 0 10 -10 0 -10 0 0 -10z"/>
<path d="M640 270 l0 -10 10 0 10 0 0 10 0 10 -10 0 -10 0 0 -10z"/>
<path d="M680 270 l0 -10 10 0 10 0 0 10 0 10 -10 0 -10 0 0 -10z"/>
<path d="M720 270 l0 -10 10 0 10 0 0 10 0 10 -10 0 -10 0 0 -10z"/>
<path d="M760 270 l0 -10 10 0 10 0 0 10 0 10 -10 0 -10 0 0 -10z"/>
<path d="M800 270 l0 -10 10 0 10 0 0 10 0 10 -10 0 -10 0 0 -10z"/>
<path d="M840 270 l0 -10 10 0 10 0 0 10 0 10 -10 0 -10 0 0 -10z"/>
<path d="M1000 930 l0 -10 10 0 10 0 0 10 0 10 -10 0 -10 0 0 -10z"/>
<path d="M960 790 l0 -10 10 0 10 0 0 10 0 10 -10 0 -10 0 0 -10z"/>
<path d="M960 750 l0 -10 10 0 10 0 0 10 0 10 -10 0 -10 0 0 -10z"/>
<path d="M960 710 l0 -10 10 0 10 0 0 10 0 10 -10 0 -10 0 0 -10z"/>
<path d="M960 670 l0 -10 10 0 10 0 0 10 0 10 -10 0 -10 0 0 -10z"/>
<path d="M1000 630 l0 -10 10 0 10 0 0 10 0 10 -10 0 -10 0 0 -10z"/>
<path d="M1000 590 l0 -10 10 0 10 0 0 10 0 10 -10 0 -10 0 0 -10z"/>
<path d="M1000 550 l0 -10 10 0 10 0 0 10 0 10 -10 0 -10 0 0 -10z"/>
<path d="M1000 510 l0 -10 10 0 10 0 0 10 0 10 -10 0 -10 0 0 -10z"/>
<path d="M1000 470 l0 -10 10 0 10 0 0 10 0 10 -10 0 -10 0 0 -10z"/>
<path d="M1000 430 l0 -10 10 0 10 0 0 10 0 10 -10 0 -10 0 0 -10z"/>
<path d="M1000 390 l0 -10 10 0 10 0 0 10 0 10 -10 0 -10 0 0 -10z"/>
<path d="M120 370 l0 -10 10 0 10 0 0 10 0 10 -10 0 -10 0 0 -10z"/>
<path d="M180 370 l0 -10 10 0 10 0 0 10 0 10 -10 0 -10 0 0 -10z"/>
<path d="M960 290 l0 -10 10 0 10 0 0 10 0 10 -10 0 -10 0 0 -10z"/>
<path d="M260 274 l0 -5 14 -15 15 -14 15 0 16 0 0 10 0 10 -20 0 -20 0 0 10
0 10 -10 0 -10 0 0 -6z"/>
<path d="M140 250 l0 -10 10 0 10 0 0 10 0 10 -10 0 -10 0 0 -10z"/>
<path d="M240 230 l0 -10 10 0 10 0 0 10 0 10 -10 0 -10 0 0 -10z"/>
<path d="M360 230 l0 -10 -20 0 -20 0 0 -10 0 -10 -20 0 -20 0 0 -10 0 -10 20
0 20 0 0 10 0 10 16 0 15 0 15 14 14 15 0 5 0 6 -10 0 -10 0 0 -10z"/>
<path d="M1020 230 l0 -10 10 0 10 0 0 -15 0 -16 -25 -24 -24 -25 -16 0 -15 0
0 -10 0 -10 -20 0 -20 0 0 -10 0 -10 20 0 20 0 0 10 0 10 15 0 16 0 34 35 35
34 0 11 0 11 -14 15 -15 14 -5 0 -6 0 0 -10z"/>
<path d="M140 210 l0 -10 20 0 20 0 0 10 0 10 -20 0 -20 0 0 -10z"/>
<path d="M240 170 l0 -10 10 0 10 0 0 10 0 10 -10 0 -10 0 0 -10z"/>
<path d="M180 150 l0 -10 10 0 10 0 0 10 0 10 -10 0 -10 0 0 -10z"/>
<path d="M880 110 l0 -10 -50 0 -50 0 0 -10 0 -10 -40 0 -40 0 0 -10 0 -10 40
0 40 0 0 10 0 10 46 0 45 0 15 14 14 15 0 5 0 6 -10 0 -10 0 0 -10z"/>
<path d="M640 70 l0 -10 -30 0 -30 0 0 -10 0 -10 30 0 30 0 0 10 0 10 20 0 20
0 0 10 0 10 -20 0 -20 0 0 -10z"/>
<path d="M420 50 l0 -10 -20 0 -20 0 0 -10 0 -10 16 0 15 0 15 14 14 15 0 5 0
6 -10 0 -10 0 0 -10z"/>
<path d="M500 50 l0 -10 10 0 10 0 0 10 0 10 -10 0 -10 0 0 -10z"/>
<path d="M540 50 l0 -10 10 0 10 0 0 10 0 10 -10 0 -10 0 0 -10z"/>
<path d="M160 30 l0 -10 10 0 10 0 0 10 0 10 -10 0 -10 0 0 -10z"/>
<path d="M200 30 l0 -10 10 0 10 0 0 10 0 10 -10 0 -10 0 0 -10z"/>
<path d="M240 30 l0 -10 20 0 20 0 0 10 0 10 -20 0 -20 0 0 -10z"/>
<path d="M300 30 l0 -10 30 0 30 0 0 10 0 10 -30 0 -30 0 0 -10z"/>
</g>
</svg>
