<?xml version="1.0" standalone="no"?>
<!DOCTYPE svg PUBLIC "-//W3C//DTD SVG 20010904//EN"
 "http://www.w3.org/TR/2001/REC-SVG-20010904/DTD/svg10.dtd">
<svg version="1.0" xmlns="http://www.w3.org/2000/svg"
 width="468pt" height="468pt" viewBox="0 0 468 468"
 preserveAspectRatio="xMidYMid meet">
<metadata>
Created by potrace 1.8, written by Peter Selinger 2001-2007
</metadata>
<g transform="translate(0,468) scale(0.365625,-0.365625)"
fill="#000000" stroke="none">
<path d="M120 660 l0 -620 20 0 20 0 0 -20 0 -20 500 0 500 0 0 500 0 500 -20
0 -20 0 0 20 0 20 -20 0 -20 0 0 20 0 20 -20 0 -20 0 0 20 0 20 -20 0 -20 0 0
20 0 20 -20 0 -20 0 0 20 0 20 -20 0 -20 0 0 20 0 20 -20 0 -20 0 0 20 0 20
-380 0 -380 0 0 -620z m720 440 l0 -140 120 0 120 0 0 -440 0 -440 -460 0
-460 0 0 580 0 580 340 0 340 0 0 -140z m80 80 l0 -20 20 0 20 0 0 -20 0 -20
20 0 20 0 0 -20 0 -20 20 0 20 0 0 -20 0 -20 20 0 20 0 0 -20 0 -20 -100 0
-100 0 0 100 0 100 20 0 20 0 0 -20z"/>
<path d="M280 1140 l0 -20 140 0 140 0 0 20 0 20 -140 0 -140 0 0 -20z"/>
<path d="M680 1140 l0 -20 60 0 60 0 0 20 0 20 -60 0 -60 0 0 -20z"/>
<path d="M280 1060 l0 -20 140 0 140 0 0 20 0 20 -140 0 -140 0 0 -20z"/>
<path d="M680 1060 l0 -20 60 0 60 0 0 20 0 20 -60 0 -60 0 0 -20z"/>
<path d="M280 980 l0 -20 140 0 140 0 0 20 0 20 -140 0 -140 0 0 -20z"/>
<path d="M680 980 l0 -20 60 0 60 0 0 20 0 20 -60 0 -60 0 0 -20z"/>
<path d="M280 900 l0 -20 140 0 140 0 0 20 0 20 -140 0 -140 0 0 -20z"/>
<path d="M680 900 l0 -20 80 0 80 0 0 20 0 20 -80 0 -80 0 0 -20z"/>
<path d="M280 820 l0 -20 140 0 140 0 0 20 0 20 -140 0 -140 0 0 -20z"/>
<path d="M680 820 l0 -20 140 0 140 0 0 20 0 20 -140 0 -140 0 0 -20z"/>
<path d="M280 740 l0 -20 140 0 140 0 0 20 0 20 -140 0 -140 0 0 -20z"/>
<path d="M680 740 l0 -20 140 0 140 0 0 20 0 20 -140 0 -140 0 0 -20z"/>
<path d="M280 660 l0 -20 140 0 140 0 0 20 0 20 -140 0 -140 0 0 -20z"/>
<path d="M680 660 l0 -20 140 0 140 0 0 20 0 20 -140 0 -140 0 0 -20z"/>
<path d="M280 580 l0 -20 140 0 140 0 0 20 0 20 -140 0 -140 0 0 -20z"/>
<path d="M680 580 l0 -20 140 0 140 0 0 20 0 20 -140 0 -140 0 0 -20z"/>
<path d="M280 500 l0 -20 140 0 140 0 0 20 0 20 -140 0 -140 0 0 -20z"/>
<path d="M680 500 l0 -20 140 0 140 0 0 20 0 20 -140 0 -140 0 0 -20z"/>
<path d="M280 420 l0 -20 140 0 140 0 0 20 0 20 -140 0 -140 0 0 -20z"/>
<path d="M680 420 l0 -20 140 0 140 0 0 20 0 20 -140 0 -140 0 0 -20z"/>
<path d="M280 340 l0 -20 140 0 140 0 0 20 0 20 -140 0 -140 0 0 -20z"/>
<path d="M680 340 l0 -20 140 0 140 0 0 20 0 20 -140 0 -140 0 0 -20z"/>
<path d="M280 260 l0 -20 140 0 140 0 0 20 0 20 -140 0 -140 0 0 -20z"/>
<path d="M680 260 l0 -20 140 0 140 0 0 20 0 20 -140 0 -140 0 0 -20z"/>
<path d="M280 180 l0 -20 140 0 140 0 0 20 0 20 -140 0 -140 0 0 -20z"/>
<path d="M680 180 l0 -20 140 0 140 0 0 20 0 20 -140 0 -140 0 0 -20z"/>
</g>
</svg>
