<?xml version="1.0" standalone="no"?>
<!DOCTYPE svg PUBLIC "-//W3C//DTD SVG 20010904//EN"
 "http://www.w3.org/TR/2001/REC-SVG-20010904/DTD/svg10.dtd">
<svg version="1.0" xmlns="http://www.w3.org/2000/svg"
 width="468pt" height="468pt" viewBox="0 0 468 468"
 preserveAspectRatio="xMidYMid meet">
<metadata>
Created by potrace 1.8, written by Peter Selinger 2001-2007
</metadata>
<g transform="translate(0,468) scale(0.365625,-0.365625)"
fill="#000000" stroke="none">
<path d="M0 640 l0 -640 100 0 100 0 0 20 0 20 -80 0 -80 0 0 230 0 230 5 0 5
0 215 -215 215 -215 0 -5 0 -5 -30 0 -30 0 0 -30 0 -30 120 0 120 0 0 30 0 30
-80 0 -80 0 0 5 0 5 295 295 295 295 65 -65 66 -65 -82 -81 -81 -80 5 -6 6 -5
80 81 80 81 6 0 5 0 0 -240 0 -240 -80 0 -80 0 0 -20 0 -20 100 0 100 0 0 640
0 640 -640 0 -640 0 0 -640z m1240 570 l0 -30 -600 0 -600 0 0 30 0 30 600 0
600 0 0 -30z m-980 -70 l0 -20 -40 0 -40 0 0 20 0 20 40 0 40 0 0 -20z m120 0
l0 -20 -40 0 -40 0 0 20 0 20 40 0 40 0 0 -20z m100 14 l0 -5 -15 -16 -16 -15
-5 5 -6 6 13 15 14 15 8 1 7 0 0 -6z m103 -6 l5 -13 11 15 10 14 7 -6 6 -7
-17 -17 -17 -17 -9 14 -9 14 -9 -15 -10 -14 -6 6 -7 7 13 15 14 15 7 1 6 0 5
-12z m157 -8 l0 -20 -40 0 -40 0 0 20 0 20 40 0 40 0 0 -20z m87 5 l15 -16 -5
-6 -6 -5 -16 15 -15 16 0 5 0 6 6 0 5 0 16 -15z m153 -5 l0 -20 -40 0 -40 0 0
20 0 20 40 0 40 0 0 -20z m120 0 l0 -20 -40 0 -40 0 0 20 0 20 40 0 40 0 0
-20z m-960 -60 l0 -20 -40 0 -40 0 0 20 0 20 40 0 40 0 0 -20z m240 0 l0 -20
-40 0 -40 0 0 20 0 20 40 0 40 0 0 -20z m100 14 l0 -5 -15 -16 -16 -15 -5 5
-6 6 13 15 14 15 8 1 7 0 0 -6z m140 -14 l0 -20 -40 0 -40 0 0 20 0 20 40 0
40 0 0 -20z m83 8 l5 -13 11 15 10 14 7 -6 6 -7 -17 -17 -17 -17 -9 14 -9 14
-9 -15 -10 -14 -6 6 -7 7 13 15 14 15 7 1 6 0 5 -12z m124 -3 l15 -16 -5 -6
-6 -5 -16 15 -15 16 0 5 0 6 6 0 5 0 16 -15z m153 -5 l0 -20 -40 0 -40 0 0 20
0 20 40 0 40 0 0 -20z m240 0 l0 -20 -40 0 -40 0 0 20 0 20 40 0 40 0 0 -20z
m20 -60 l0 -20 -600 0 -600 0 0 20 0 20 600 0 600 0 0 -20z m-1100 -60 l0 -20
-40 0 -40 0 0 20 0 20 40 0 40 0 0 -20z m84 8 l6 -13 6 13 6 12 9 0 9 0 0 -20
0 -20 -19 0 -19 0 -6 13 -6 12 -6 -12 -6 -13 -9 0 -9 0 0 20 0 20 19 0 19 0 6
-12z m120 0 l6 -13 6 13 6 12 9 0 9 0 0 -20 0 -20 -19 0 -19 0 -6 13 -6 12 -6
-12 -6 -13 -9 0 -9 0 0 20 0 20 19 0 19 0 6 -12z m156 -8 l0 -20 -40 0 -40 0
0 20 0 20 40 0 40 0 0 -20z m83 8 l5 -13 11 15 10 14 7 -6 6 -7 -17 -17 -17
-17 -9 14 -9 14 -9 -15 -10 -14 -6 6 -7 7 13 15 14 15 7 1 6 0 5 -12z m157 -8
l0 -20 -40 0 -40 0 0 20 0 20 40 0 40 0 0 -20z m120 0 l0 -20 -40 0 -40 0 0
20 0 20 40 0 40 0 0 -20z m64 8 l6 -13 6 13 6 12 19 0 19 0 0 -20 0 -20 -9 0
-9 0 -6 13 -6 12 -6 -12 -6 -13 -19 0 -19 0 0 20 0 20 9 0 9 0 6 -12z m120 0
l6 -13 6 13 6 12 19 0 19 0 0 -20 0 -20 -9 0 -9 0 -6 13 -6 12 -6 -12 -6 -13
-19 0 -19 0 0 20 0 20 9 0 9 0 6 -12z m176 -8 l0 -20 -40 0 -40 0 0 20 0 20
40 0 40 0 0 -20z m-1137 -52 l5 -13 10 14 10 14 17 -17 17 -17 -6 -7 -7 -6
-10 14 -9 15 -9 -14 -9 -14 -16 16 -16 16 0 5 0 6 9 0 9 0 5 -12z m261 0 l6
-13 6 13 6 12 9 0 9 0 0 -20 0 -20 -19 0 -19 0 -6 13 -6 12 -6 -12 -6 -13 -9
0 -9 0 0 20 0 20 19 0 19 0 6 -12z m156 -8 l0 -20 -40 0 -40 0 0 20 0 20 40 0
40 0 0 -20z m120 0 l0 -20 -40 0 -40 0 0 20 0 20 40 0 40 0 0 -20z m83 8 l5
-13 11 15 10 14 7 -6 6 -7 -17 -17 -17 -17 -9 14 -9 14 -9 -15 -10 -14 -6 6
-7 7 13 15 14 15 7 1 6 0 5 -12z m157 -8 l0 -20 -40 0 -40 0 0 20 0 20 40 0
40 0 0 -20z m64 8 l6 -13 6 13 6 12 19 0 19 0 0 -20 0 -20 -9 0 -9 0 -6 13 -6
12 -6 -12 -6 -13 -19 0 -19 0 0 20 0 20 9 0 9 0 6 -12z m259 0 l5 -13 11 15
10 14 7 -6 6 -7 -17 -17 -17 -17 -9 14 -9 14 -9 -15 -10 -14 -6 6 -7 7 13 15
14 15 7 1 6 0 5 -12z m-1043 -68 l0 -20 -40 0 -40 0 0 20 0 20 40 0 40 0 0
-20z m120 0 l0 -20 -40 0 -40 0 0 20 0 20 40 0 40 0 0 -20z m240 0 l0 -20 -40
0 -40 0 0 20 0 20 40 0 40 0 0 -20z m83 8 l5 -13 11 15 10 14 7 -6 6 -7 -17
-17 -17 -17 -9 14 -9 14 -9 -15 -10 -14 -6 6 -7 7 13 15 14 15 7 1 6 0 5 -12z
m157 -8 l0 -20 -40 0 -40 0 0 20 0 20 40 0 40 0 0 -20z m120 0 l0 -20 -40 0
-40 0 0 20 0 20 40 0 40 0 0 -20z m240 0 l0 -20 -40 0 -40 0 0 20 0 20 40 0
40 0 0 -20z m120 0 l0 -20 -40 0 -40 0 0 20 0 20 40 0 40 0 0 -20z m-1137 -52
l5 -13 10 14 10 14 17 -17 17 -17 -6 -7 -7 -6 -10 14 -9 15 -9 -14 -9 -14 -16
16 -16 16 0 5 0 6 9 0 9 0 5 -12z m177 -8 l0 -20 -40 0 -40 0 0 20 0 20 40 0
40 0 0 -20z m84 8 l6 -13 6 13 6 12 9 0 9 0 0 -20 0 -20 -19 0 -19 0 -6 13 -6
12 -6 -12 -6 -13 -9 0 -9 0 0 20 0 20 19 0 19 0 6 -12z m276 -8 l0 -20 -40 0
-40 0 0 20 0 20 40 0 40 0 0 -20z m83 8 l5 -13 11 15 10 14 7 -6 6 -7 -17 -17
-17 -17 -9 14 -9 14 -9 -15 -10 -14 -6 6 -7 7 13 15 14 15 7 1 6 0 5 -12z
m221 0 l6 -13 6 13 6 12 19 0 19 0 0 -20 0 -20 -9 0 -9 0 -6 13 -6 12 -6 -12
-6 -13 -19 0 -19 0 0 20 0 20 9 0 9 0 6 -12z m176 -8 l0 -20 -40 0 -40 0 0 20
0 20 40 0 40 0 0 -20z m83 8 l5 -13 11 15 10 14 7 -6 6 -7 -17 -17 -17 -17 -9
14 -9 14 -9 -15 -10 -14 -6 6 -7 7 13 15 14 15 7 1 6 0 5 -12z m-1043 -68 l0
-20 -40 0 -40 0 0 20 0 20 40 0 40 0 0 -20z m120 0 l0 -20 -40 0 -40 0 0 20 0
20 40 0 40 0 0 -20z m84 8 l6 -13 6 13 6 12 9 0 9 0 0 -20 0 -20 -19 0 -19 0
-6 13 -6 12 -6 -12 -6 -13 -9 0 -9 0 0 20 0 20 19 0 19 0 6 -12z m156 -8 l0
-20 -40 0 -40 0 0 20 0 20 40 0 40 0 0 -20z m83 8 l5 -13 11 15 10 14 7 -6 6
-7 -17 -17 -17 -17 -9 14 -9 14 -9 -15 -10 -14 -6 6 -7 7 13 15 14 15 7 1 6 0
5 -12z m157 -8 l0 -20 -40 0 -40 0 0 20 0 20 40 0 40 0 0 -20z m120 0 l0 -20
-40 0 -40 0 0 20 0 20 40 0 40 0 0 -20z m64 8 l6 -13 6 13 6 12 19 0 19 0 0
-20 0 -20 -9 0 -9 0 -6 13 -6 12 -6 -12 -6 -13 -19 0 -19 0 0 20 0 20 9 0 9 0
6 -12z m176 -8 l0 -20 -40 0 -40 0 0 20 0 20 40 0 40 0 0 -20z m120 0 l0 -20
-40 0 -40 0 0 20 0 20 40 0 40 0 0 -20z m-1020 -45 l0 -6 -71 -70 -71 -70 5
-6 6 -5 71 72 71 72 20 -23 19 -22 7 6 6 7 -21 19 -22 18 0 7 0 6 430 0 430 0
0 -5 0 -5 -295 -295 -295 -295 -225 225 -225 225 0 75 0 75 80 0 80 0 0 -5z
m1040 -65 l0 -70 -5 0 -5 0 -65 65 -65 65 0 5 0 5 70 0 70 0 0 -70z m-600
-580 l0 -10 -100 0 -100 0 0 10 0 10 100 0 100 0 0 -10z"/>
<path d="M280 590 l0 -10 10 0 10 0 0 10 0 10 -10 0 -10 0 0 -10z"/>
<path d="M320 550 l0 -10 10 0 10 0 0 10 0 10 -10 0 -10 0 0 -10z"/>
<path d="M360 510 l0 -10 10 0 10 0 0 10 0 10 -10 0 -10 0 0 -10z"/>
<path d="M1012 344 l-13 -14 15 -16 16 -15 16 15 15 16 -15 15 -15 15 -3 0 -3
-1 -13 -15z"/>
</g>
</svg>
