<?xml version="1.0" standalone="no"?>
<!DOCTYPE svg PUBLIC "-//W3C//DTD SVG 20010904//EN"
 "http://www.w3.org/TR/2001/REC-SVG-20010904/DTD/svg10.dtd">
<svg version="1.0" xmlns="http://www.w3.org/2000/svg"
 width="468pt" height="468pt" viewBox="0 0 468 468"
 preserveAspectRatio="xMidYMid meet">
<metadata>
Created by potrace 1.8, written by Peter Selinger 2001-2007
</metadata>
<g transform="translate(0,468) scale(0.365625,-0.365625)"
fill="#000000" stroke="none">
<path d="M32 1244 l-34 -35 5 -6 6 -5 35 36 36 35 0 6 0 5 -7 -1 -8 0 -33 -35z"/>
<path d="M72 1203 l-74 -75 6 -5 5 -5 70 71 70 71 6 0 5 0 0 -25 0 -26 -45
-44 -44 -45 -11 0 -11 0 -24 -25 -25 -24 0 -16 0 -15 5 0 5 0 115 115 115 115
0 5 0 5 -29 0 -29 0 -6 -12 -6 -13 -6 13 -6 12 -6 -1 -7 -1 -73 -75z"/>
<path d="M213 1224 l-53 -54 0 -25 0 -25 -15 0 -15 0 -65 -65 -65 -65 0 -14 0
-14 12 -5 13 -5 -15 -11 -15 -11 15 -10 15 -10 -15 -10 -15 -10 15 -10 15 -10
-15 -10 -15 -10 15 -10 15 -10 -15 -9 -14 -10 7 -8 8 -7 9 13 8 14 17 -17 17
-16 -32 -30 -33 -31 6 -5 6 -6 51 52 50 51 16 -15 15 -16 -72 -71 -72 -71 14
-10 14 -10 -12 -5 -13 -5 0 -29 0 -29 5 0 5 0 195 195 196 196 -15 15 -16 15
-25 -25 -25 -25 0 -21 0 -21 -45 -44 -44 -45 -21 0 -21 0 -15 -14 -14 -15 0
-21 0 -21 -45 -44 -44 -45 -26 0 -25 0 0 5 0 6 71 70 72 71 -14 8 -13 9 7 8 8
7 8 -13 9 -14 77 78 78 77 -14 9 -13 8 7 8 8 7 9 -14 9 -14 8 7 7 8 -14 9 -14
9 7 8 8 7 10 -14 9 -15 10 15 10 15 10 -15 10 -15 10 15 10 15 10 -15 10 -15
9 14 9 14 27 -28 28 -27 -14 -8 -13 -9 7 -8 8 -7 9 14 9 14 8 -7 7 -8 -14 -10
-15 -9 15 -10 15 -10 -15 -10 -15 -10 15 -10 15 -10 -15 -11 -15 -11 13 -5 12
-5 0 -14 0 -15 -70 -69 -70 -69 0 -6 0 -5 15 0 16 0 89 90 89 90 6 0 5 0 0
-15 0 -16 -70 -69 -70 -69 0 -15 0 -14 -12 -5 -13 -4 9 -9 9 -9 4 13 5 12 9 0
9 0 0 -70 0 -70 20 0 20 0 0 -6 0 -5 -14 -15 -15 -14 -5 0 -6 0 0 20 0 20 -70
0 -70 0 0 9 0 9 13 5 12 4 -9 9 -9 9 -4 -12 -5 -13 -19 0 -19 0 0 -19 0 -19
-12 -5 -13 -4 9 -9 9 -9 4 13 5 12 9 0 9 0 0 -70 0 -70 -16 0 -15 0 -59 -60
-59 -60 -15 0 -16 0 0 6 0 5 50 49 50 49 0 5 0 6 -18 0 -18 0 -14 -20 -14 -20
-18 0 -18 0 0 6 0 6 31 29 32 30 -8 7 -8 7 -4 -12 -5 -13 -19 0 -19 0 0 -20 0
-20 -9 0 -9 0 -5 13 -4 12 -22 -24 -21 -24 -6 6 -6 6 51 50 51 50 0 15 0 16
-5 0 -6 0 -44 -45 -45 -44 0 -16 0 -15 -6 0 -5 0 -15 15 -15 15 60 59 61 60 0
25 0 26 25 0 25 0 155 155 156 156 -16 15 -15 15 -15 -15 -15 -15 0 -11 0 -10
-55 -55 -55 -55 -10 0 -11 0 -15 -14 -14 -15 0 -11 0 -10 -55 -55 -55 -55 -10
0 -11 0 -15 -14 -14 -15 0 -11 0 -11 -60 -59 -60 -59 0 -15 0 -14 13 -5 12 -5
-15 -11 -15 -11 15 -10 15 -10 -15 -10 -15 -10 15 -10 15 -10 -15 -10 -15 -10
15 -11 15 -11 -13 -5 -12 -5 0 -49 0 -49 6 0 6 0 29 31 30 32 6 -6 5 -6 -41
-40 -41 -39 0 -26 0 -26 5 0 5 0 76 75 75 76 -16 16 -17 16 -9 -14 -9 -14 -10
15 -10 15 -10 -15 -10 -15 -10 15 -10 15 -9 -15 -10 -14 -7 6 -6 7 17 17 17
17 9 -14 9 -14 10 15 10 15 10 -15 10 -15 9 14 9 14 27 -28 28 -27 -14 -8 -13
-9 7 -8 8 -7 9 14 9 14 8 -7 7 -8 -14 -10 -15 -9 15 -10 15 -10 -15 -10 -15
-10 14 -9 14 -9 -17 -18 -18 -17 -8 13 -8 13 -16 -16 -16 -16 0 -5 0 -6 29 0
29 0 5 13 5 12 11 -15 11 -15 10 15 10 15 10 -15 10 -15 10 15 10 15 10 -15
10 -15 10 15 10 15 9 -14 9 -13 246 246 246 246 0 5 0 5 -20 0 -20 0 0 -15 0
-15 -65 -65 -65 -65 -15 0 -15 0 0 -15 0 -15 -65 -65 -65 -65 -15 0 -15 0 0
-15 0 -15 -65 -66 -66 -65 -15 15 -15 15 266 267 267 266 5 -6 6 -6 -22 -20
-23 -19 17 -17 17 -17 9 14 9 14 10 -15 10 -15 10 15 10 15 10 -15 10 -15 10
15 10 15 10 -15 10 -15 9 15 10 14 8 -7 7 -8 -14 -10 -15 -9 15 -10 15 -10
-15 -9 -14 -10 7 -8 8 -7 9 14 9 14 8 -7 7 -8 -14 -10 -15 -9 15 -10 15 -10
-15 -10 -15 -10 14 -9 14 -9 -17 -18 -18 -17 -8 13 -8 13 -18 -17 -17 -18 13
-8 13 -8 -17 -18 -18 -17 -9 14 -9 14 -10 -15 -10 -15 -9 14 -9 14 -18 -17
-17 -18 14 -9 14 -9 -15 -10 -15 -10 15 -10 15 -10 -15 -11 -15 -11 13 -5 12
-5 0 -15 0 -14 -14 -15 -15 -14 -14 0 -15 0 -5 13 -5 12 -11 -15 -11 -15 -10
15 -10 15 -10 -15 -10 -15 -9 14 -9 14 -18 -17 -17 -18 14 -9 14 -9 -15 -10
-15 -10 14 -9 14 -9 -17 -18 -18 -17 -8 13 -8 13 -16 -16 -16 -16 0 -5 0 -6
29 0 29 0 5 13 5 12 11 -15 11 -15 10 15 10 15 10 -15 10 -15 10 15 10 15 10
-15 10 -15 10 15 10 15 9 -14 9 -13 147 147 147 147 -6 5 -5 5 -61 -62 -60
-61 -16 15 -15 15 67 67 66 67 10 -14 10 -14 5 13 5 12 9 0 9 0 0 -45 0 -46
-45 -44 -44 -45 -11 0 -10 0 -75 -75 -75 -75 0 -5 0 -5 15 0 15 0 145 145 145
145 0 25 0 25 10 0 10 0 0 -26 0 -26 -40 -38 -40 -38 0 -26 0 -26 -15 0 -15 0
-75 -75 -75 -75 0 -5 0 -5 15 0 15 0 156 156 156 156 -13 9 -14 9 15 10 15 10
-15 10 -15 10 15 10 15 10 -15 10 -15 10 15 10 15 10 -15 10 -15 10 15 9 14
10 -7 8 -8 7 -9 -13 -8 -14 -17 17 -17 16 32 30 33 31 -6 5 -6 6 -51 -52 -50
-51 -16 15 -15 16 72 71 72 71 -14 9 -14 9 15 10 15 10 -15 10 -15 10 15 10
15 10 -15 10 -15 10 15 10 15 10 -15 11 -15 11 13 5 12 5 0 19 0 19 -10 0 -10
0 0 -20 0 -20 -9 0 -9 0 -5 13 -4 12 -22 -24 -21 -24 -6 6 -6 6 51 50 51 50 0
15 0 16 -5 0 -6 0 -44 -45 -45 -44 0 -16 0 -15 -9 0 -9 0 -4 12 -5 13 -17 -18
-18 -18 6 -7 7 -6 9 14 9 14 8 -7 7 -8 -14 -10 -15 -9 15 -10 15 -10 -15 -10
-15 -10 14 -9 14 -9 -17 -18 -18 -17 -8 13 -8 13 -18 -17 -17 -18 13 -8 13 -8
-17 -18 -18 -17 -9 14 -9 14 -10 -15 -10 -15 -10 15 -10 15 -9 -15 -10 -14 -8
7 -7 8 14 9 14 9 -7 8 -8 7 -9 -14 -9 -14 -6 6 -7 7 161 160 161 161 0 25 0
25 -6 0 -5 0 -15 -14 -14 -15 0 -10 0 -11 -75 -75 -75 -75 -10 0 -10 0 -55
-55 -55 -55 0 -20 0 -21 -15 -15 -15 -15 -15 15 -16 15 191 191 190 190 0 25
0 25 -5 0 -5 0 -55 -55 -55 -55 0 -10 0 -10 -75 -75 -75 -75 -11 0 -10 0 -15
-14 -14 -15 0 -21 0 -20 -55 -56 -55 -55 -16 15 -15 15 231 231 230 230 0 15
0 15 -10 0 -10 0 0 -10 0 -10 -15 0 -15 0 -55 -55 -55 -55 0 -25 0 -25 -16 0
-15 0 -59 -60 -59 -60 -11 0 -11 0 -16 -16 -16 -16 13 -8 13 -8 -67 -66 -67
-67 -15 15 -15 15 251 251 250 250 0 15 0 15 -6 0 -5 0 -49 -50 -49 -50 -11 0
-11 0 -15 -14 -14 -15 0 -21 0 -21 -45 -44 -44 -45 -14 0 -13 0 -14 -20 -14
-20 -13 0 -13 0 -57 -56 -56 -56 13 -8 13 -8 -27 -27 -26 -26 -16 15 -15 16
90 89 91 90 0 16 0 15 -10 0 -10 0 0 -10 0 -10 -15 0 -15 0 -55 -55 -55 -55 0
-20 0 -21 -15 -15 -15 -15 -15 15 -16 15 231 231 230 230 0 5 0 5 -18 0 -18 0
-14 -20 -14 -20 -13 0 -13 0 -57 -56 -56 -56 13 -8 13 -8 -26 -26 -26 -26 -11
0 -11 0 -49 -50 -49 -50 -11 0 -11 0 -15 -14 -14 -15 0 -21 0 -20 -55 -56 -55
-55 -16 15 -15 15 231 231 230 230 0 5 0 5 -25 0 -25 0 -55 -55 -55 -55 0 -25
0 -25 -16 0 -15 0 -59 -60 -59 -60 -11 0 -11 0 -16 -16 -16 -16 13 -8 13 -8
-67 -66 -67 -67 -15 15 -15 15 211 211 210 210 0 5 0 5 -26 0 -25 0 -15 -14
-14 -15 0 -21 0 -21 -45 -44 -44 -45 -14 0 -13 0 -14 -20 -14 -20 -13 0 -13 0
-57 -56 -56 -56 13 -8 13 -8 -27 -27 -26 -26 -16 15 -15 16 90 89 91 90 0 16
0 15 -10 0 -10 0 0 -10 0 -10 -15 0 -15 0 -55 -55 -55 -55 0 -20 0 -21 -15
-15 -15 -15 -15 15 -16 16 151 150 152 151 -6 6 -5 6 -30 -32 -29 -31 -12 0
-11 0 -49 -50 -49 -50 -11 0 -11 0 -15 -14 -14 -15 0 -21 0 -20 -55 -56 -55
-55 -16 15 -15 16 72 71 72 71 -14 8 -13 9 7 8 8 7 8 -13 9 -14 76 77 76 76 0
5 0 5 -16 0 -15 0 -59 -60 -59 -60 -15 0 -16 0 0 6 0 5 50 49 50 49 0 5 0 6
-18 0 -18 0 -14 -20 -14 -20 -18 0 -18 0 0 9 0 9 13 5 12 4 -8 9 -8 8 -10 -14
-9 -15 -10 15 -10 15 -10 -15 -10 -15 -10 15 -10 15 -10 -15 -10 -15 -10 15
-10 15 -10 -15 -10 -15 -10 15 -10 15 -10 -15 -10 -15 -10 15 -10 15 -10 -15
-10 -15 -10 15 -10 15 -10 -15 -10 -15 -10 15 -10 15 -11 -15 -11 -15 -5 13
-5 12 -26 -1 -27 0 -52 -55z m110 24 l5 -13 11 15 11 15 10 -15 10 -15 10 15
10 15 10 -15 10 -15 10 15 10 15 10 -15 10 -15 10 15 10 15 10 -15 10 -15 10
15 10 15 10 -15 10 -15 10 15 10 15 10 -15 10 -15 9 14 9 14 27 -27 27 -27
-23 -20 -23 -20 14 -10 15 -9 -15 -10 -15 -10 14 -9 14 -9 -67 -67 -67 -67
-20 23 -20 23 -10 -14 -9 -15 -10 15 -10 15 -10 -15 -10 -15 -10 15 -10 15
-10 -15 -10 -15 -9 14 -9 14 -27 -28 -28 -27 13 -8 13 -8 -68 -67 -67 -68 -9
14 -9 14 -10 -15 -10 -15 -9 15 -10 14 -20 -23 -20 -23 -27 27 -27 27 14 9 14
9 -15 10 -15 10 15 10 15 10 -15 10 -15 10 15 10 15 10 -14 9 -13 9 143 145
144 145 7 1 6 1 5 -12z m283 -324 l36 -35 -22 -19 -22 -19 47 -46 46 -47 19
22 19 22 36 -37 37 -36 -22 -19 -22 -19 47 -46 46 -47 20 23 19 22 21 -24 20
-23 9 14 9 14 21 -24 21 -24 10 14 9 15 10 -15 10 -15 10 15 10 15 9 -14 9
-14 57 58 58 57 -14 9 -14 9 15 10 15 10 -15 9 -14 10 7 8 8 7 9 -14 9 -14 20
23 20 23 17 -17 17 -17 -14 -9 -14 -9 15 -10 15 -10 -15 -10 -15 -10 15 -10
15 -10 -15 -10 -15 -10 14 -9 14 -9 -72 -71 -72 -71 26 -26 26 -26 19 22 19
22 27 -27 27 -27 -14 -9 -14 -9 15 -10 15 -10 -15 -10 -15 -10 15 -11 15 -11
-12 -5 -13 -5 0 -19 0 -19 -10 0 -10 0 0 16 0 15 -15 15 -15 15 -15 -15 -15
-15 0 -15 0 -16 -10 0 -10 0 0 16 0 15 -16 16 -16 16 -9 -14 -9 -14 -9 14 -9
14 -77 -77 -77 -77 23 -20 22 -19 -8 -8 -8 -7 -4 12 -5 13 -9 0 -9 0 0 -15 0
-15 -55 -55 -55 -55 -14 0 -14 0 -5 -12 -5 -13 -11 15 -11 15 -10 -15 -10 -15
-10 15 -10 15 -9 -15 -10 -14 -8 7 -7 8 14 10 15 9 -15 10 -15 10 15 10 15 10
-15 9 -14 10 7 8 8 7 10 -14 9 -15 10 15 10 15 10 -15 10 -15 9 14 9 14 17
-17 17 -17 -23 -19 -22 -20 6 -6 5 -6 77 77 77 77 -6 5 -6 6 -20 -22 -19 -23
-17 17 -17 17 14 9 14 9 -15 10 -15 10 15 10 15 10 -15 9 -14 10 7 8 8 7 10
-14 9 -15 10 15 10 15 9 -14 9 -14 57 58 58 57 -14 9 -14 9 15 10 15 10 -15
10 -15 10 15 9 14 10 -24 21 -24 21 13 9 14 8 -17 18 -18 17 -9 -14 -9 -14
-10 15 -10 15 -10 -15 -10 -15 -10 15 -10 15 -10 -15 -10 -15 -10 15 -10 15
-9 -15 -10 -14 -7 7 -7 7 22 20 23 19 -18 18 -17 18 -5 -13 -4 -12 -14 0 -15
0 -44 -45 -45 -44 0 -11 0 -11 -25 -24 -24 -25 -11 0 -11 0 -44 -45 -45 -44 0
-11 0 -11 -25 -24 -24 -25 -11 0 -11 0 -44 -45 -45 -44 0 -11 0 -11 -52 -51
-51 -50 14 -8 13 -9 -7 -8 -8 -7 -10 14 -9 15 -10 -15 -10 -15 -10 15 -10 15
-9 -15 -10 -14 -8 7 -7 8 14 10 15 9 -15 10 -15 10 15 10 15 10 -15 10 -15 10
15 9 14 10 -23 20 -23 20 76 75 76 76 15 0 15 0 0 -5 0 -6 -70 -69 -70 -69 0
-16 0 -15 5 0 6 0 89 90 89 90 16 0 15 0 0 -5 0 -6 -70 -69 -70 -69 0 -16 0
-15 -9 0 -9 0 -5 13 -4 12 -8 -7 -7 -7 27 -26 26 -27 7 6 6 7 -13 8 -14 9 252
251 252 252 -15 14 -15 15 -5 0 -6 0 0 -15 0 -15 -55 -55 -55 -55 -5 0 -5 0 0
16 0 15 61 60 61 60 -6 6 -6 6 -21 -24 -22 -24 -4 13 -5 12 -9 0 -9 0 0 -16 0
-15 -14 -15 -15 -14 -5 0 -6 0 0 16 0 17 21 18 21 18 -16 17 -17 16 -7 -7 -7
-8 13 -4 12 -5 0 -9 0 -9 -20 0 -20 0 0 -10 0 -10 -20 0 -20 0 0 6 0 6 40 38
40 38 0 6 0 6 -16 0 -15 0 -49 -50 -49 -50 -15 0 -16 0 0 5 0 6 70 69 71 70
-26 26 -26 26 -19 -22 -19 -22 -17 17 -17 17 14 9 14 9 -15 10 -15 10 15 10
15 10 -14 9 -14 9 24 25 24 26 3 0 3 1 35 -36z m-6 -449 l0 -5 -55 -55 -55
-55 -5 0 -5 0 0 15 0 15 43 45 42 44 18 0 17 1 0 -5z m-549 -197 l19 -21 20
22 19 23 26 -26 26 -26 -27 -26 -26 -27 -9 14 -9 14 -10 -15 -10 -15 -10 15
-10 15 -9 -15 -10 -14 -8 7 -7 8 14 10 15 9 -15 10 -15 10 15 11 15 11 -12 5
-13 5 0 9 0 9 6 0 7 0 18 -22z"/>
<path d="M231 1162 l-75 -76 12 -4 12 -4 0 -9 0 -9 -15 0 -16 0 -44 -45 -45
-44 0 -15 0 -14 -12 -5 -13 -5 15 -11 15 -11 -15 -10 -15 -10 15 -10 15 -10
-14 -9 -14 -9 17 -17 17 -17 20 23 20 23 9 -13 8 -14 102 103 102 103 9 -14 9
-14 10 15 10 15 10 -15 10 -15 10 15 10 15 10 -15 10 -15 10 15 10 15 9 -14 9
-14 67 68 68 67 -14 9 -13 8 23 20 23 20 -17 17 -17 17 -9 -14 -9 -14 -10 15
-10 15 -10 -15 -10 -15 -10 15 -10 15 -10 -15 -10 -15 -10 15 -10 15 -10 -15
-10 -15 -10 15 -10 15 -10 -15 -10 -15 -10 15 -10 15 -10 -15 -10 -15 -10 15
-10 15 -11 -15 -11 -15 -5 13 -5 12 -6 -1 -7 -1 -74 -76z m132 46 l5 -13 11
15 11 15 10 -15 10 -15 10 15 10 15 10 -15 10 -15 10 15 10 15 10 -15 10 -15
10 15 10 15 10 -15 10 -15 10 15 10 15 10 -15 10 -15 9 15 10 14 7 -7 7 -7
-24 -20 -23 -21 13 -8 14 -9 -58 -57 -57 -58 -9 14 -9 14 -10 -15 -10 -15 -10
15 -10 15 -10 -15 -10 -15 -10 15 -10 15 -10 -15 -10 -15 -9 14 -9 14 -102
-103 -102 -103 -8 14 -9 13 -21 -23 -20 -24 -7 7 -7 7 14 10 15 9 -15 10 -15
10 15 10 15 10 -14 9 -14 9 73 72 73 72 -13 8 -13 8 17 18 18 17 8 -13 8 -13
59 61 58 61 7 0 6 1 5 -12z"/>
<path d="M287 1138 l-59 -61 -8 14 -9 13 -8 -7 -7 -8 14 -9 14 -8 -35 -33 -34
-32 13 -4 12 -5 0 -9 0 -9 -20 0 -20 0 0 -20 0 -20 -9 0 -9 0 -4 12 -5 13 -18
-18 -18 -19 14 -9 14 -9 -15 -9 -14 -10 7 -8 8 -7 10 14 9 15 9 -14 9 -14 18
17 17 18 -13 8 -13 8 28 27 27 28 8 -13 8 -13 62 63 62 63 9 -14 9 -14 10 15
10 15 10 -15 10 -15 10 15 10 15 10 -15 10 -15 10 15 10 15 9 -15 10 -14 8 7
7 8 -13 9 -14 8 28 27 27 28 8 -13 8 -13 18 17 17 18 -14 9 -14 9 15 9 14 10
-7 8 -8 7 -10 -14 -9 -15 -10 15 -10 15 -10 -15 -10 -15 -10 15 -10 15 -10
-15 -10 -15 -10 15 -10 15 -10 -15 -10 -15 -10 15 -10 15 -11 -15 -11 -15 -5
13 -5 12 -6 -1 -7 0 -58 -61z m76 30 l5 -13 11 15 11 15 10 -15 10 -15 10 15
10 15 10 -15 10 -15 10 15 10 15 10 -15 10 -15 9 14 9 14 17 -17 17 -17 -6 -7
-7 -6 -9 13 -8 14 -42 -43 -42 -43 -9 14 -9 14 -10 -15 -10 -15 -10 15 -10 15
-10 -15 -10 -15 -9 14 -9 14 -61 -62 -61 -62 -16 15 -15 16 57 56 56 57 8 -13
8 -13 18 17 17 18 -13 8 -13 8 14 16 14 15 7 1 6 0 5 -12z m-236 -243 l15 -16
-5 -6 -6 -5 -16 15 -15 16 0 5 0 6 6 0 5 0 16 -15z"/>
<path d="M340 1151 l0 -9 13 -5 12 -5 -15 -11 -14 -10 7 -8 8 -7 10 14 9 15
10 -15 10 -15 10 15 10 15 9 -14 9 -14 27 27 27 27 -6 7 -7 6 -10 -14 -9 -15
-10 15 -10 15 -10 -15 -10 -15 -10 15 -10 15 -11 -15 -11 -15 -5 13 -5 12 -9
0 -9 0 0 -9z m60 -21 l0 -10 -10 0 -10 0 0 10 0 10 10 0 10 0 0 -10z m40 0 l0
-10 -10 0 -10 0 0 10 0 10 10 0 10 0 0 -10z"/>
<path d="M242 1054 l-44 -45 5 -6 6 -5 45 46 46 45 0 6 0 5 -7 -1 -8 0 -43
-45z"/>
<path d="M551 924 l-14 -16 14 -9 14 -9 -15 -10 -15 -10 15 -10 15 -10 -15 -9
-14 -10 6 -6 7 -7 36 36 36 36 -25 25 -25 25 -3 0 -3 -1 -14 -15z m35 -19 l15
-15 -16 -16 -16 -16 -7 6 -6 7 14 10 15 11 -12 5 -13 5 0 9 0 9 6 0 5 0 15
-15z"/>
<path d="M640 774 l0 -7 22 -19 22 -19 -13 -9 -14 -8 26 -26 27 -27 35 36 36
35 -26 26 -26 26 -19 -23 -20 -22 -19 21 -18 22 -7 0 -6 0 0 -6z m106 -29 l15
-15 -26 -25 -25 -26 -16 15 -15 16 23 24 23 25 3 0 3 1 15 -15z"/>
<path d="M711 724 l-13 -15 6 -6 5 -5 16 15 15 16 0 5 0 6 -7 0 -8 -1 -14 -15z"/>
<path d="M1201 733 l-24 -25 14 -8 13 -9 -24 -21 -24 -21 13 -9 14 -8 -28 -27
-27 -28 -8 14 -9 13 -21 -24 -21 -24 -10 14 -9 15 -10 -15 -10 -15 -10 15 -10
15 -9 -15 -10 -14 -21 24 -21 24 -9 -14 -9 -14 -20 23 -20 23 -17 -17 -17 -17
14 -9 14 -9 -15 -9 -14 -10 7 -8 8 -7 10 14 9 15 10 -15 10 -15 10 15 10 15
10 -15 10 -15 9 14 9 14 27 -28 28 -27 -14 -8 -13 -9 24 -21 24 -21 -14 -10
-15 -9 15 -10 15 -10 -15 -10 -15 -10 15 -9 14 -10 -23 -21 -24 -20 6 -6 6 -7
31 33 32 34 9 -15 9 -14 9 15 10 14 20 -23 21 -24 20 23 20 23 20 -23 20 -23
7 7 7 7 -14 10 -15 9 15 10 15 10 -15 10 -15 10 14 9 14 9 -17 17 -17 17 -19
-22 -19 -22 -37 37 -37 37 14 9 14 9 -14 9 -14 9 73 72 73 72 -14 9 -14 9 15
10 15 10 -15 11 -15 11 13 5 12 5 0 9 0 9 -7 -1 -8 0 -24 -26z m19 -23 l0 -10
-10 0 -10 0 0 10 0 10 10 0 10 0 0 -10z m0 -36 l0 -5 -15 -16 -16 -15 -5 5 -6
6 13 15 14 15 8 1 7 0 0 -6z m-313 -89 l15 -16 -5 -6 -6 -5 -16 15 -15 16 0 5
0 6 6 0 5 0 16 -15z m53 -15 l0 -10 -10 0 -10 0 0 10 0 10 10 0 10 0 0 -10z
m160 4 l0 -7 -22 -19 -22 -19 14 -10 15 -9 -14 -9 -14 -9 47 -47 47 -47 20 23
19 22 7 -7 7 -7 -14 -10 -15 -9 15 -9 14 -10 -7 -8 -8 -7 -9 14 -9 14 -20 -23
-21 -24 -21 24 -20 23 -10 -14 -9 -15 -10 15 -10 15 -9 -15 -10 -14 -8 7 -7 8
14 10 15 9 -15 10 -15 10 15 9 14 10 -24 21 -24 21 14 9 14 9 -23 21 -24 20 7
7 7 7 10 -14 9 -15 10 15 10 15 10 -15 9 -15 18 22 18 23 8 0 7 0 0 -6z"/>
<path d="M1040 531 l0 -9 13 -5 12 -5 -15 -11 -14 -10 24 -21 24 -21 -13 -9
-14 -8 17 -18 18 -17 8 14 9 13 21 -23 20 -24 6 6 6 6 -52 51 -53 52 13 8 13
8 -16 16 -16 16 -5 0 -6 0 0 -9z m60 -101 l0 -10 -10 0 -10 0 0 10 0 10 10 0
10 0 0 -10z"/>
<path d="M800 610 l0 -10 10 0 10 0 0 10 0 10 -10 0 -10 0 0 -10z"/>
<path d="M927 257 l-18 -22 -8 14 -9 14 -18 -17 -17 -18 14 -9 14 -9 -15 -9
-14 -10 6 -6 7 -7 45 46 46 45 0 6 0 5 -7 0 -8 0 -18 -23z m-27 -27 l0 -10
-10 0 -10 0 0 10 0 10 10 0 10 0 0 -10z"/>
<path d="M231 124 l-14 -16 14 -9 14 -9 -14 -9 -14 -9 16 -17 17 -16 25 25 26
26 -25 25 -25 25 -3 0 -3 -1 -14 -15z m35 -19 l15 -15 -16 -16 -16 -16 -7 6
-6 7 14 10 15 11 -12 5 -13 5 0 9 0 9 6 0 5 0 15 -15z"/>
<path d="M712 84 l-13 -14 15 -16 16 -15 26 26 26 26 -6 7 -7 6 -10 -14 -11
-15 -5 13 -5 12 -6 0 -7 -1 -13 -15z m28 -14 l0 -10 -10 0 -10 0 0 10 0 10 10
0 10 0 0 -10z"/>
<path d="M87 257 l-18 -22 -9 15 -9 14 -7 -6 -6 -7 17 -17 17 -17 9 14 9 14 9
-14 9 -14 17 16 16 17 -15 15 -15 15 -3 0 -3 0 -18 -23z m33 -7 l0 -10 -10 0
-10 0 0 10 0 10 10 0 10 0 0 -10z"/>
<path d="M1190 1220 l-55 -59 -13 0 -13 -1 -15 -14 -14 -15 0 -5 0 -6 25 0 25
0 75 75 75 75 0 5 0 5 -17 -1 -18 0 -55 -59z"/>
<path d="M400 971 l0 -9 12 -4 13 -5 -53 -51 -52 -51 0 -25 0 -26 -25 0 -25 0
-55 -55 -55 -55 0 -25 0 -25 -25 0 -25 0 -55 -55 -55 -55 0 -25 0 -25 5 0 5 0
235 235 236 236 -17 16 -16 16 -10 -14 -10 -14 -5 13 -5 12 -9 0 -9 0 0 -9z"/>
<path d="M413 864 l-53 -54 0 -11 0 -10 -14 -15 -15 -14 -11 0 -10 0 -55 -55
-55 -55 0 -10 0 -11 -14 -15 -15 -14 -11 0 -10 0 -55 -55 -55 -55 0 -13 0 -13
-20 -14 -20 -14 0 -18 0 -18 5 0 5 0 231 231 231 232 9 -14 8 -13 8 7 7 8 -14
10 -15 9 14 9 14 9 -16 16 -16 16 -3 -1 -3 0 -52 -55z"/>
<path d="M1052 704 l-53 -55 16 -16 17 -16 9 14 9 14 9 -15 10 -14 8 7 7 8
-13 9 -14 8 28 27 27 28 8 -14 9 -13 8 7 7 8 -14 10 -15 9 14 9 14 9 -16 16
-16 16 -3 -1 -3 0 -53 -55z"/>
<path d="M263 535 l-43 -45 0 -5 0 -5 15 0 16 0 34 35 35 34 0 16 0 15 -7 -1
-8 0 -42 -44z"/>
<path d="M823 475 l-23 -24 0 -21 0 -21 -45 -44 -44 -45 -21 0 -21 0 -15 -14
-14 -15 0 -21 0 -21 -45 -44 -44 -45 -21 0 -21 0 -15 -14 -14 -15 0 -21 0 -22
-41 -39 -41 -40 5 -5 5 -6 247 247 247 247 -7 6 -6 6 -10 -14 -11 -15 -5 13
-5 12 -6 -1 -7 0 -22 -24z"/>
<path d="M863 434 l-63 -64 0 -25 0 -25 -25 0 -25 0 -55 -55 -55 -55 0 -25 0
-25 -25 0 -25 0 -55 -55 -55 -55 0 -25 0 -25 5 0 6 0 70 71 71 72 8 -13 8 -13
18 17 17 18 -13 8 -13 8 68 67 67 68 8 -13 8 -13 18 17 17 18 -13 8 -13 8 72
71 72 71 -15 15 -15 15 -3 -1 -3 -1 -62 -64z m-43 -124 l0 -10 -10 0 -10 0 0
10 0 10 10 0 10 0 0 -10z m-160 -160 l0 -10 -10 0 -10 0 0 10 0 10 10 0 10 0
0 -10z"/>
<path d="M892 384 l-53 -55 16 -16 17 -16 9 14 9 14 9 -15 10 -14 8 7 7 8 -13
9 -14 8 28 27 27 28 8 -14 9 -13 8 7 7 8 -14 10 -15 9 14 9 14 9 -16 16 -16
16 -3 -1 -3 0 -53 -55z"/>
<path d="M732 224 l-53 -55 15 -15 16 -15 55 56 56 55 -15 15 -15 15 -3 -1 -3
0 -53 -55z"/>
<path d="M1211 223 l-54 -55 13 -8 13 -8 -26 -26 -26 -26 -11 0 -11 0 -44 -45
-45 -44 0 -6 0 -5 15 0 15 0 115 115 115 115 0 25 0 25 -7 -1 -8 0 -54 -56z"/>
<path d="M772 184 l-34 -35 7 -7 6 -6 10 14 9 15 9 -14 9 -14 18 17 17 18 -14
10 -14 10 13 5 12 5 0 9 0 9 -7 -1 -8 0 -33 -35z"/>
<path d="M1251 184 l-14 -16 13 -8 13 -8 -67 -66 -66 -66 -15 0 -15 0 0 -10 0
-10 15 0 15 0 75 75 75 75 0 25 0 25 -7 0 -8 -1 -14 -15z"/>
<path d="M93 64 l-53 -54 0 -5 0 -5 26 0 26 0 30 32 30 32 8 -14 9 -14 8 7 7
8 -14 10 -15 9 14 9 14 9 -16 16 -16 16 -3 -1 -3 0 -52 -55z"/>
<path d="M573 64 l-53 -54 0 -5 0 -5 26 0 26 0 30 32 30 32 8 -14 9 -14 8 7 7
8 -14 10 -15 9 14 9 14 9 -16 16 -16 16 -3 -1 -3 0 -52 -55z"/>
<path d="M1232 44 l-34 -35 5 -6 6 -5 35 36 36 35 0 6 0 5 -7 -1 -8 0 -33 -35z"/>
</g>
</svg>
