<?xml version="1.0" standalone="no"?>
<!DOCTYPE svg PUBLIC "-//W3C//DTD SVG 20010904//EN"
 "http://www.w3.org/TR/2001/REC-SVG-20010904/DTD/svg10.dtd">
<svg version="1.0" xmlns="http://www.w3.org/2000/svg"
 width="468pt" height="468pt" viewBox="0 0 468 468"
 preserveAspectRatio="xMidYMid meet">
<metadata>
Created by potrace 1.8, written by Peter Selinger 2001-2007
</metadata>
<g transform="translate(0,468) scale(0.365625,-0.365625)"
fill="#000000" stroke="none">
<path d="M0 640 l0 -640 640 0 640 0 0 640 0 640 -640 0 -640 0 0 -640z m1260
220 l0 -400 -80 0 -80 0 0 -10 0 -10 -30 0 -30 0 0 -10 0 -10 -30 0 -30 0 0
-10 0 -10 -18 0 -18 0 -14 -20 -14 -20 -28 0 -28 0 0 -10 0 -10 -30 0 -30 0 0
-10 0 -10 -30 0 -30 0 0 -10 0 -10 -40 0 -40 0 0 -10 0 -10 -90 0 -90 0 0 10
0 10 -50 0 -50 0 0 10 0 10 -50 0 -50 0 0 10 0 10 -50 0 -50 0 0 10 0 10 -30
0 -30 0 0 10 0 10 -20 0 -20 0 0 10 0 10 -30 0 -30 0 0 430 0 430 620 0 620 0
0 -400z m-160 -530 l0 -10 40 0 40 0 0 -10 0 -10 20 0 20 0 0 -10 0 -10 20 0
20 0 0 -130 0 -130 -620 0 -620 0 0 80 0 80 40 0 40 0 0 -10 0 -10 70 0 70 0
0 -10 0 -10 110 0 110 0 0 10 0 10 40 0 40 0 0 10 0 10 30 0 30 0 0 10 0 10
30 0 30 0 0 10 0 10 30 0 30 0 0 10 0 10 20 0 20 0 0 10 0 10 20 0 20 0 0 10
0 10 20 0 20 0 0 10 0 10 30 0 30 0 0 10 0 10 30 0 30 0 0 10 0 10 70 0 70 0
0 -10z"/>
<path d="M143 1175 l-23 -24 0 -16 0 -15 -10 0 -10 0 0 -20 0 -20 -10 0 -10 0
0 -110 0 -110 10 0 10 0 0 -25 0 -26 35 -34 34 -35 51 0 51 0 34 35 35 34 0 6
0 5 -18 0 -18 0 -14 -20 -14 -20 -44 0 -43 0 -15 14 -14 15 0 15 0 16 -10 0
-10 0 0 130 0 130 10 0 10 0 0 16 0 15 14 15 15 14 51 0 51 0 15 -14 14 -15 0
-11 0 -11 14 -15 15 -14 5 0 6 0 0 50 0 50 -9 0 -9 0 -5 -12 -4 -13 -20 23
-20 22 -64 -1 -64 0 -22 -24z"/>
<path d="M600 1110 l0 -10 10 0 10 0 0 -170 0 -170 -10 0 -10 0 0 -10 0 -10
40 0 40 0 0 70 0 70 5 0 5 0 57 -57 57 -57 -12 -4 -12 -4 0 -9 0 -9 50 0 50 0
0 5 0 6 -70 69 -70 69 0 11 0 11 70 69 70 69 0 6 0 5 -50 0 -50 0 0 -9 0 -9
12 -4 12 -4 -57 -57 -57 -57 -5 0 -5 0 0 100 0 100 -40 0 -40 0 0 -10z"/>
<path d="M383 1035 l-23 -24 0 -16 0 -15 -10 0 -10 0 0 -80 0 -80 10 0 10 0 0
-15 0 -16 25 -24 24 -25 51 0 51 0 24 25 25 24 0 16 0 15 10 0 10 0 0 80 0 80
-10 0 -10 0 0 15 0 16 -25 24 -24 25 -53 -1 -53 0 -22 -24z m103 -9 l14 -15 0
-111 0 -111 -14 -15 -15 -14 -11 0 -11 0 -15 14 -14 15 0 111 0 111 13 14 12
14 13 1 13 0 15 -14z"/>
<path d="M943 1035 l-23 -24 0 -16 0 -15 -10 0 -10 0 0 -80 0 -80 10 0 10 0 0
-15 0 -16 25 -24 24 -25 51 0 51 0 34 35 35 34 0 16 0 15 -16 0 -15 0 -15 -14
-14 -15 0 -15 0 -16 -20 0 -20 0 0 -10 0 -10 -16 0 -15 0 -15 14 -14 15 0 65
0 66 80 0 80 0 0 20 0 20 -10 0 -10 0 0 25 0 26 -25 24 -24 25 -53 -1 -53 0
-22 -24z m103 -9 l14 -15 0 -35 0 -36 -40 0 -40 0 0 35 0 36 13 14 12 14 13 1
13 0 15 -14z"/>
<path d="M253 645 l-13 -14 0 -61 0 -61 14 -15 15 -14 21 0 21 0 16 15 15 16
-7 7 -8 7 -4 -12 -5 -13 -29 0 -29 0 0 70 0 70 29 0 29 0 5 -12 4 -13 8 7 7 7
-15 16 -16 15 -23 0 -23 -1 -12 -14z"/>
<path d="M360 570 l0 -90 40 0 40 0 0 10 0 10 -30 0 -30 0 0 80 0 80 -10 0
-10 0 0 -90z"/>
<path d="M513 645 l-13 -14 0 -16 0 -15 -10 0 -10 0 0 -40 0 -40 -10 0 -10 0
0 -20 0 -20 10 0 10 0 0 20 0 20 10 0 10 0 0 20 0 20 30 0 30 0 0 -20 0 -20
10 0 10 0 0 -20 0 -20 10 0 10 0 0 20 0 20 -10 0 -10 0 0 40 0 40 -10 0 -10 0
0 16 0 15 -14 15 -15 14 -3 0 -3 -1 -12 -14z m27 -25 l0 -20 10 0 10 0 0 -10
0 -10 -30 0 -30 0 0 10 0 10 10 0 10 0 0 20 0 20 10 0 10 0 0 -20z"/>
<path d="M633 645 l-13 -14 0 -21 0 -21 14 -15 15 -14 25 0 26 0 0 -30 0 -30
-29 0 -29 0 -5 13 -4 12 -8 -7 -7 -7 15 -16 16 -15 21 0 21 0 15 14 14 15 0
21 0 21 -14 15 -15 14 -25 0 -26 0 0 30 0 30 29 0 29 0 5 -12 4 -13 8 7 7 7
-15 16 -16 15 -23 0 -23 -1 -12 -14z"/>
<path d="M753 645 l-13 -14 0 -21 0 -21 14 -15 15 -14 25 0 26 0 0 -30 0 -30
-29 0 -29 0 -5 13 -4 12 -8 -7 -7 -7 15 -16 16 -15 21 0 21 0 15 14 14 15 0
21 0 21 -14 15 -15 14 -25 0 -26 0 0 30 0 30 29 0 29 0 5 -12 4 -13 8 7 7 7
-15 16 -16 15 -23 0 -23 -1 -12 -14z"/>
<path d="M860 570 l0 -90 10 0 10 0 0 90 0 90 -10 0 -10 0 0 -90z"/>
<path d="M913 645 l-13 -14 0 -61 0 -61 14 -15 15 -14 21 0 21 0 16 15 15 16
-7 7 -8 7 -4 -12 -5 -13 -29 0 -29 0 0 70 0 70 29 0 29 0 5 -12 4 -13 8 7 7 7
-15 16 -16 15 -23 0 -23 -1 -12 -14z"/>
</g>
</svg>
