<?xml version="1.0" standalone="no"?>
<!DOCTYPE svg PUBLIC "-//W3C//DTD SVG 20010904//EN"
 "http://www.w3.org/TR/2001/REC-SVG-20010904/DTD/svg10.dtd">
<svg version="1.0" xmlns="http://www.w3.org/2000/svg"
 width="468pt" height="468pt" viewBox="0 0 468 468"
 preserveAspectRatio="xMidYMid meet">
<metadata>
Created by potrace 1.8, written by Peter Selinger 2001-2007
</metadata>
<g transform="translate(0,468) scale(0.365625,-0.365625)"
fill="#000000" stroke="none">
<path d="M110 865 l0 -255 -55 0 -55 0 0 -65 0 -65 55 0 55 0 0 -25 0 -25 -55
0 -55 0 0 -40 0 -40 55 0 55 0 0 -30 0 -30 10 0 10 0 0 -25 0 -25 15 0 15 0 0
-15 0 -15 15 0 15 0 0 -10 0 -10 40 0 40 0 0 10 0 10 345 0 345 0 0 -10 0 -10
40 0 40 0 0 10 0 10 40 0 40 0 0 15 0 15 15 0 15 0 0 25 0 25 10 0 10 0 0 80
0 80 55 0 55 0 0 15 0 15 -55 0 -55 0 0 15 0 15 55 0 55 0 0 25 0 25 -65 0
-65 0 0 11 0 10 14 15 15 14 10 0 11 0 0 15 0 15 15 0 15 0 0 11 0 10 14 15
15 14 10 0 11 0 0 200 0 200 -15 0 -15 0 0 15 0 15 -570 0 -570 0 0 -255z
m1140 145 l0 -80 -560 0 -560 0 0 80 0 80 560 0 560 0 0 -80z m-1060 -235 l0
-135 -30 0 -30 0 0 135 0 135 30 0 30 0 0 -135z m240 0 l0 -135 -110 0 -110 0
0 135 0 135 110 0 110 0 0 -135z m560 0 l0 -135 -270 0 -270 0 0 135 0 135
270 0 270 0 0 -135z m260 29 l0 -105 -14 -15 -15 -14 -10 0 -11 0 0 -15 0 -15
-15 0 -15 0 0 -11 0 -10 -14 -15 -15 -14 -35 0 -36 0 0 10 0 10 -15 0 -15 0 0
15 0 15 -15 0 -15 0 0 135 0 135 120 0 120 0 0 -106z m-1140 -254 l0 -40 -40
0 -40 0 0 40 0 40 40 0 40 0 0 -40z m900 25 l0 -15 30 0 30 0 0 -25 0 -25 -70
0 -70 0 0 -15 0 -15 70 0 70 0 0 15 0 15 40 0 40 0 0 -95 0 -95 -510 0 -510 0
0 135 0 135 440 0 440 0 0 -15z m-900 -190 l0 -15 -40 0 -40 0 0 15 0 15 40 0
40 0 0 -15z m1010 -120 l0 -25 -480 0 -480 0 0 25 0 25 480 0 480 0 0 -25z"/>
<path d="M270 865 l0 -15 -15 0 -15 0 0 -80 0 -80 15 0 15 0 0 -10 0 -10 50 0
50 0 0 10 0 10 15 0 15 0 0 80 0 80 -15 0 -15 0 0 15 0 15 -50 0 -50 0 0 -15z
m100 -55 l0 -40 -50 0 -50 0 0 40 0 40 50 0 50 0 0 -40z m-80 -75 l0 -15 30 0
30 0 0 15 0 15 10 0 10 0 0 -30 0 -30 -50 0 -50 0 0 30 0 30 10 0 10 0 0 -15z"/>
<path d="M640 770 l0 -80 135 0 135 0 0 80 0 80 -135 0 -135 0 0 -80z m240 30
l0 -30 -105 0 -105 0 0 30 0 30 105 0 105 0 0 -30z m0 -65 l0 -15 -105 0 -105
0 0 15 0 15 105 0 105 0 0 -15z"/>
<path d="M350 495 l0 -15 80 0 80 0 0 15 0 15 -80 0 -80 0 0 -15z"/>
<path d="M530 495 l0 -15 80 0 80 0 0 15 0 15 -80 0 -80 0 0 -15z"/>
<path d="M720 495 l0 -15 80 0 80 0 0 15 0 15 -80 0 -80 0 0 -15z"/>
<path d="M350 440 l0 -10 80 0 80 0 0 10 0 10 -80 0 -80 0 0 -10z"/>
<path d="M530 440 l0 -10 80 0 80 0 0 10 0 10 -80 0 -80 0 0 -10z"/>
<path d="M720 440 l0 -10 80 0 80 0 0 10 0 10 -80 0 -80 0 0 -10z"/>
<path d="M930 440 l0 -10 70 0 70 0 0 10 0 10 -70 0 -70 0 0 -10z"/>
<path d="M350 385 l0 -15 80 0 80 0 0 15 0 15 -80 0 -80 0 0 -15z"/>
<path d="M530 385 l0 -15 80 0 80 0 0 15 0 15 -80 0 -80 0 0 -15z"/>
<path d="M720 385 l0 -15 80 0 80 0 0 15 0 15 -80 0 -80 0 0 -15z"/>
<path d="M930 385 l0 -15 70 0 70 0 0 15 0 15 -70 0 -70 0 0 -15z"/>
</g>
</svg>
