<?xml version="1.0" standalone="no"?>
<!DOCTYPE svg PUBLIC "-//W3C//DTD SVG 20010904//EN"
 "http://www.w3.org/TR/2001/REC-SVG-20010904/DTD/svg10.dtd">
<svg version="1.0" xmlns="http://www.w3.org/2000/svg"
 width="468pt" height="468pt" viewBox="0 0 468 468"
 preserveAspectRatio="xMidYMid meet">
<metadata>
Created by potrace 1.8, written by Peter Selinger 2001-2007
</metadata>
<g transform="translate(0,468) scale(0.365625,-0.365625)"
fill="#000000" stroke="none">
<path d="M720 1240 l0 -40 -20 0 -20 0 0 20 0 20 -60 0 -60 0 0 -20 0 -20 -60
0 -60 0 0 -60 0 -60 -40 0 -40 0 0 -20 0 -20 -20 0 -20 0 0 -20 0 -20 -20 0
-20 0 0 -20 0 -20 -20 0 -20 0 0 -20 0 -20 -20 0 -20 0 0 -40 0 -40 -20 0 -20
0 0 -20 0 -20 -20 0 -20 0 0 -40 0 -40 -20 0 -20 0 0 -80 0 -80 20 0 20 0 0
-20 0 -20 -20 0 -20 0 0 -20 0 -20 20 0 20 0 0 -20 0 -20 -40 0 -40 0 0 -20 0
-20 20 0 20 0 0 -20 0 -20 -20 0 -20 0 0 -20 0 -20 -20 0 -20 0 0 -20 0 -20
20 0 20 0 0 -40 0 -40 40 0 40 0 0 -20 0 -20 -20 0 -20 0 0 -80 0 -80 40 0 40
0 0 20 0 20 20 0 20 0 0 -20 0 -20 140 0 140 0 0 20 0 20 20 0 20 0 0 -20 0
-20 140 0 140 0 0 20 0 20 20 0 20 0 0 -20 0 -20 120 0 120 0 0 40 0 40 20 0
20 0 0 -20 0 -20 20 0 20 0 0 -20 0 -20 40 0 40 0 0 40 0 40 -20 0 -20 0 0 80
0 80 20 0 20 0 0 20 0 20 -20 0 -20 0 0 20 0 20 -20 0 -20 0 0 20 0 20 -20 0
-20 0 0 20 0 20 20 0 20 0 0 60 0 60 20 0 20 0 0 -20 0 -20 20 0 20 0 0 -20 0
-20 20 0 20 0 0 20 0 20 -20 0 -20 0 0 20 0 20 20 0 20 0 0 40 0 40 -80 0 -80
0 0 40 0 40 40 0 40 0 0 20 0 20 20 0 20 0 0 20 0 20 -20 0 -20 0 0 40 0 40
-20 0 -20 0 0 20 0 20 -20 0 -20 0 0 60 0 60 -20 0 -20 0 0 20 0 20 -20 0 -20
0 0 40 0 40 -20 0 -20 0 0 20 0 20 -20 0 -20 0 0 40 0 40 -40 0 -40 0 0 20 0
20 -80 0 -80 0 0 -40z m160 -40 l0 -40 -20 0 -20 0 0 40 0 40 20 0 20 0 0 -40z
m-280 -20 l0 -20 -20 0 -20 0 0 20 0 20 20 0 20 0 0 -20z m160 -40 l0 -20 -20
0 -20 0 0 20 0 20 20 0 20 0 0 -20z m-160 -40 l0 -20 -20 0 -20 0 0 20 0 20
20 0 20 0 0 -20z m280 0 l0 -20 -20 0 -20 0 0 20 0 20 20 0 20 0 0 -20z m120
-20 l0 -40 20 0 20 0 0 -20 0 -20 -20 0 -20 0 0 20 0 20 -20 0 -20 0 0 40 0
40 20 0 20 0 0 -40z m-200 -20 l0 -20 -20 0 -20 0 0 20 0 20 20 0 20 0 0 -20z
m-400 -40 l0 -20 -20 0 -20 0 0 20 0 20 20 0 20 0 0 -20z m80 0 l0 -20 -20 0
-20 0 0 20 0 20 20 0 20 0 0 -20z m160 0 l0 -20 20 0 20 0 0 -60 0 -60 -20 0
-20 0 0 60 0 60 -20 0 -20 0 0 20 0 20 20 0 20 0 0 -20z m200 -80 l0 -20 -20
0 -20 0 0 20 0 20 20 0 20 0 0 -20z m80 -20 l0 -40 -20 0 -20 0 0 -20 0 -20
20 0 20 0 0 -20 0 -20 -20 0 -20 0 0 -20 0 -20 -20 0 -20 0 0 20 0 20 20 0 20
0 0 20 0 20 -40 0 -40 0 0 -60 0 -60 -20 0 -20 0 0 -20 0 -20 -20 0 -20 0 0
-80 0 -80 20 0 20 0 0 40 0 40 20 0 20 0 0 -20 0 -20 20 0 20 0 0 60 0 60 20
0 20 0 0 -40 0 -40 20 0 20 0 0 40 0 40 20 0 20 0 0 -40 0 -40 20 0 20 0 0
-20 0 -20 20 0 20 0 0 -20 0 -20 -20 0 -20 0 0 -40 0 -40 -60 0 -60 0 0 -20 0
-20 -20 0 -20 0 0 20 0 20 20 0 20 0 0 40 0 40 -20 0 -20 0 0 -20 0 -20 -20 0
-20 0 0 -40 0 -40 -20 0 -20 0 0 -20 0 -20 -20 0 -20 0 0 40 0 40 20 0 20 0 0
20 0 20 -20 0 -20 0 0 20 0 20 -20 0 -20 0 0 -20 0 -20 -20 0 -20 0 0 40 0 40
20 0 20 0 0 20 0 20 -20 0 -20 0 0 20 0 20 -20 0 -20 0 0 20 0 20 20 0 20 0 0
-20 0 -20 20 0 20 0 0 60 0 60 -20 0 -20 0 0 20 0 20 20 0 20 0 0 -20 0 -20
20 0 20 0 0 40 0 40 40 0 40 0 0 20 0 20 40 0 40 0 0 40 0 40 20 0 20 0 0 -40z
m80 20 l0 -20 20 0 20 0 0 -40 0 -40 -20 0 -20 0 0 -20 0 -20 -20 0 -20 0 0
40 0 40 20 0 20 0 0 20 0 20 -20 0 -20 0 0 20 0 20 20 0 20 0 0 -20z m-720
-40 l0 -20 -20 0 -20 0 0 20 0 20 20 0 20 0 0 -20z m120 0 l0 -20 -20 0 -20 0
0 20 0 20 20 0 20 0 0 -20z m120 -40 l0 -20 20 0 20 0 0 20 0 20 20 0 20 0 0
-80 0 -80 -20 0 -20 0 0 40 0 40 -20 0 -20 0 0 20 0 20 -20 0 -20 0 0 20 0 20
20 0 20 0 0 -20z m640 -40 l0 -20 -20 0 -20 0 0 20 0 20 20 0 20 0 0 -20z
m-960 -40 l0 -20 -20 0 -20 0 0 20 0 20 20 0 20 0 0 -20z m80 0 l0 -20 -20 0
-20 0 0 20 0 20 20 0 20 0 0 -20z m120 0 l0 -20 -20 0 -20 0 0 -20 0 -20 -20
0 -20 0 0 20 0 20 20 0 20 0 0 20 0 20 20 0 20 0 0 -20z m80 -20 l0 -40 20 0
20 0 0 -20 0 -20 20 0 20 0 0 -60 0 -60 -20 0 -20 0 0 -20 0 -20 20 0 20 0 0
-20 0 -20 -20 0 -20 0 0 20 0 20 -20 0 -20 0 0 60 0 60 20 0 20 0 0 20 0 20
-20 0 -20 0 0 20 0 20 -20 0 -20 0 0 -40 0 -40 -20 0 -20 0 0 -40 0 -40 20 0
20 0 0 -40 0 -40 20 0 20 0 0 -40 0 -40 -20 0 -20 0 0 -20 0 -20 -20 0 -20 0
0 20 0 20 20 0 20 0 0 20 0 20 -20 0 -20 0 0 40 0 40 -20 0 -20 0 0 20 0 20
-20 0 -20 0 0 -20 0 -20 -20 0 -20 0 0 60 0 60 -20 0 -20 0 0 -20 0 -20 -20 0
-20 0 0 20 0 20 20 0 20 0 0 20 0 20 20 0 20 0 0 -20 0 -20 20 0 20 0 0 20 0
20 20 0 20 0 0 -20 0 -20 20 0 20 0 0 40 0 40 20 0 20 0 0 40 0 40 20 0 20 0
0 -40z m520 -20 l0 -20 -20 0 -20 0 0 20 0 20 20 0 20 0 0 -20z m120 0 l0 -20
-20 0 -20 0 0 -60 0 -60 20 0 20 0 0 -20 0 -20 20 0 20 0 0 -20 0 -20 -20 0
-20 0 0 -60 0 -60 -40 0 -40 0 0 20 0 20 20 0 20 0 0 80 0 80 -20 0 -20 0 0
20 0 20 -20 0 -20 0 0 20 0 20 20 0 20 0 0 20 0 20 20 0 20 0 0 20 0 20 20 0
20 0 0 -20z m80 0 l0 -20 -20 0 -20 0 0 20 0 20 20 0 20 0 0 -20z m-1000 -40
l0 -20 -20 0 -20 0 0 20 0 20 20 0 20 0 0 -20z m-40 -80 l0 -20 -20 0 -20 0 0
20 0 20 20 0 20 0 0 -20z m1080 -80 l0 -20 -20 0 -20 0 0 20 0 20 20 0 20 0 0
-20z m-1080 -40 l0 -20 -20 0 -20 0 0 20 0 20 20 0 20 0 0 -20z m160 -40 l0
-20 -20 0 -20 0 0 20 0 20 20 0 20 0 0 -20z m-120 -40 l0 -20 -20 0 -20 0 0
20 0 20 20 0 20 0 0 -20z m480 0 l0 -20 -20 0 -20 0 0 20 0 20 20 0 20 0 0
-20z m-120 -40 l0 -20 -20 0 -20 0 0 20 0 20 20 0 20 0 0 -20z m440 0 l0 -20
20 0 20 0 0 -20 0 -20 -20 0 -20 0 0 20 0 20 -20 0 -20 0 0 20 0 20 20 0 20 0
0 -20z m-120 -40 l0 -20 -40 0 -40 0 0 -40 0 -40 20 0 20 0 0 -20 0 -20 20 0
20 0 0 -20 0 -20 20 0 20 0 0 -20 0 -20 20 0 20 0 0 -40 0 -40 -20 0 -20 0 0
40 0 40 -20 0 -20 0 0 20 0 20 -20 0 -20 0 0 -20 0 -20 -20 0 -20 0 0 20 0 20
20 0 20 0 0 20 0 20 -20 0 -20 0 0 20 0 20 -20 0 -20 0 0 40 0 40 20 0 20 0 0
20 0 20 40 0 40 0 0 -20z m-800 -40 l0 -20 -20 0 -20 0 0 20 0 20 20 0 20 0 0
-20z m120 -20 l0 -40 -20 0 -20 0 0 40 0 40 20 0 20 0 0 -40z m120 20 l0 -20
-20 0 -20 0 0 20 0 20 20 0 20 0 0 -20z m160 0 l0 -20 -20 0 -20 0 0 20 0 20
20 0 20 0 0 -20z m120 0 l0 -20 -20 0 -20 0 0 20 0 20 20 0 20 0 0 -20z m360
0 l0 -20 -20 0 -20 0 0 20 0 20 20 0 20 0 0 -20z m200 -80 l0 -60 -20 0 -20 0
0 -20 0 -20 -20 0 -20 0 0 20 0 20 20 0 20 0 0 40 0 40 -20 0 -20 0 0 20 0 20
40 0 40 0 0 -60z m-840 -20 l0 -40 20 0 20 0 0 -20 0 -20 20 0 20 0 0 -20 0
-20 -20 0 -20 0 0 -20 0 -20 -40 0 -40 0 0 20 0 20 40 0 40 0 0 20 0 20 -20 0
-20 0 0 20 0 20 -20 0 -20 0 0 40 0 40 20 0 20 0 0 -40z m80 20 l0 -20 -20 0
-20 0 0 20 0 20 20 0 20 0 0 -20z m240 0 l0 -20 -20 0 -20 0 0 20 0 20 20 0
20 0 0 -20z m-400 -40 l0 -20 -20 0 -20 0 0 20 0 20 20 0 20 0 0 -20z m280 0
l0 -20 -20 0 -20 0 0 20 0 20 20 0 20 0 0 -20z m240 0 l0 -20 -20 0 -20 0 0
20 0 20 20 0 20 0 0 -20z m280 -20 l0 -40 -20 0 -20 0 0 20 0 20 -20 0 -20 0
0 20 0 20 40 0 40 0 0 -40z m-280 -60 l0 -20 -20 0 -20 0 0 20 0 20 20 0 20 0
0 -20z m-120 -40 l0 -20 -20 0 -20 0 0 20 0 20 20 0 20 0 0 -20z"/>
<path d="M920 580 l0 -20 -20 0 -20 0 0 -20 0 -20 20 0 20 0 0 20 0 20 20 0
20 0 0 20 0 20 -20 0 -20 0 0 -20z"/>
<path d="M760 500 l0 -20 20 0 20 0 0 20 0 20 -20 0 -20 0 0 -20z"/>
</g>
</svg>
