<?xml version="1.0" standalone="no"?>
<!DOCTYPE svg PUBLIC "-//W3C//DTD SVG 20010904//EN"
 "http://www.w3.org/TR/2001/REC-SVG-20010904/DTD/svg10.dtd">
<svg version="1.0" xmlns="http://www.w3.org/2000/svg"
 width="468pt" height="468pt" viewBox="0 0 468 468"
 preserveAspectRatio="xMidYMid meet">
<metadata>
Created by potrace 1.8, written by Peter Selinger 2001-2007
</metadata>
<g transform="translate(0,468) scale(0.365625,-0.365625)"
fill="#000000" stroke="none">
<path d="M840 1265 l0 -15 -25 0 -25 0 0 -10 0 -10 -25 0 -25 0 0 -15 0 -15
-30 0 -30 0 0 -15 0 -15 -25 0 -25 0 0 -15 0 -15 -30 0 -30 0 0 -10 0 -10 -25
0 -25 0 0 -15 0 -15 -30 0 -30 0 0 -15 0 -15 -25 0 -25 0 0 -15 0 -15 -30 0
-30 0 0 -10 0 -10 -25 0 -25 0 0 -15 0 -15 -25 0 -25 0 0 -15 0 -15 -30 0 -30
0 0 -10 0 -10 -25 0 -25 0 0 -15 0 -15 -15 0 -15 0 0 -40 0 -40 15 0 15 0 0
-30 0 -30 10 0 10 0 0 -25 0 -25 15 0 15 0 0 -30 0 -30 15 0 15 0 0 -25 0 -25
15 0 15 0 0 -30 0 -30 10 0 10 0 0 -25 0 -25 15 0 15 0 0 -25 0 -25 15 0 15 0
0 -30 0 -30 10 0 10 0 0 -25 0 -25 15 0 15 0 0 -30 0 -30 15 0 15 0 0 -25 0
-25 15 0 15 0 0 -30 0 -30 10 0 10 0 0 -25 0 -25 30 0 30 0 0 15 0 15 25 0 25
0 0 10 0 10 30 0 30 0 0 15 0 15 25 0 25 0 0 15 0 15 30 0 30 0 0 15 0 15 25
0 25 0 0 10 0 10 25 0 25 0 0 15 0 15 30 0 30 0 0 15 0 15 25 0 25 0 0 10 0
10 30 0 30 0 0 15 0 15 25 0 25 0 0 15 0 15 30 0 30 0 0 15 0 15 25 0 25 0 0
10 0 10 30 0 30 0 0 15 0 15 10 0 10 0 0 40 0 40 -10 0 -10 0 0 30 0 30 -15 0
-15 0 0 25 0 25 -15 0 -15 0 0 30 0 30 -15 0 -15 0 0 25 0 25 -10 0 -10 0 0
25 0 25 -15 0 -15 0 0 30 0 30 -15 0 -15 0 0 25 0 25 -15 0 -15 0 0 30 0 30
-10 0 -10 0 0 25 0 25 -15 0 -15 0 0 30 0 30 -15 0 -15 0 0 25 0 25 -10 0 -10
0 0 30 0 30 -15 0 -15 0 0 25 0 25 -30 0 -30 0 0 -15z m0 -110 l0 -15 30 0 30
0 0 -10 0 -10 15 0 15 0 0 -15 0 -15 10 0 10 0 0 -26 0 -25 -14 -15 -15 -14
-25 0 -26 0 0 -15 0 -15 -25 0 -25 0 0 -15 0 -15 -30 0 -30 0 0 -10 0 -10 -25
0 -25 0 0 -15 0 -15 -15 0 -15 0 0 -15 0 -15 30 0 30 0 0 -15 0 -15 50 0 50 0
0 15 0 15 15 0 15 0 0 15 0 15 15 0 15 0 0 15 0 15 15 0 15 0 0 10 0 10 25 0
25 0 0 -25 0 -25 -15 0 -15 0 0 -15 0 -15 -10 0 -10 0 0 -15 0 -15 -15 0 -15
0 0 -10 0 -10 -30 0 -30 0 0 -15 0 -15 -50 0 -50 0 0 15 0 15 -30 0 -30 0 0
10 0 10 -15 0 -15 0 0 15 0 15 -10 0 -10 0 0 15 0 15 -15 0 -15 0 0 80 0 80
15 0 15 0 0 26 0 25 14 15 15 14 25 0 26 0 0 15 0 15 65 0 65 0 0 -15z m-350
-160 l0 -15 15 0 15 0 0 -25 0 -25 10 0 10 0 0 -30 0 -30 15 0 15 0 0 -25 0
-25 15 0 15 0 0 -30 0 -30 15 0 15 0 0 -25 0 -25 10 0 10 0 0 -15 0 -15 -55 0
-55 0 0 15 0 15 -25 0 -25 0 0 15 0 15 -25 0 -25 0 0 10 0 10 -30 0 -30 0 0
15 0 15 -25 0 -25 0 0 15 0 15 -30 0 -30 0 0 -30 0 -30 15 0 15 0 0 -25 0 -25
15 0 15 0 0 -30 0 -30 10 0 10 0 0 -25 0 -25 15 0 15 0 0 -15 0 -15 -15 0 -15
0 0 -15 0 -15 -10 0 -10 0 0 30 0 30 -15 0 -15 0 0 25 0 25 -15 0 -15 0 0 30
0 30 -10 0 -10 0 0 25 0 25 -15 0 -15 0 0 30 0 30 -15 0 -15 0 0 25 0 25 -15
0 -15 0 0 15 0 15 55 0 55 0 0 -15 0 -15 30 0 30 0 0 -15 0 -15 25 0 25 0 0
-10 0 -10 30 0 30 0 0 -15 0 -15 25 0 25 0 0 -15 0 -15 25 0 25 0 0 -10 0 -10
15 0 15 0 0 10 0 10 -15 0 -15 0 0 30 0 30 -10 0 -10 0 0 25 0 25 -15 0 -15 0
0 30 0 30 -15 0 -15 0 0 25 0 25 -10 0 -10 0 0 15 0 15 25 0 25 0 0 -15z m570
-190 l0 -15 -15 0 -15 0 0 -15 0 -15 -25 0 -25 0 0 -10 0 -10 -25 0 -25 0 0
-30 0 -30 10 0 10 0 0 -25 0 -25 15 0 15 0 0 -30 0 -30 15 0 15 0 0 -25 0 -25
10 0 10 0 0 -30 0 -30 15 0 15 0 0 -10 0 -10 -25 0 -25 0 0 10 0 10 -15 0 -15
0 0 30 0 30 -15 0 -15 0 0 25 0 25 -10 0 -10 0 0 30 0 30 -15 0 -15 0 0 25 0
25 -40 0 -40 0 0 -15 0 -15 -29 0 -29 0 -6 -12 -6 -13 -6 13 -6 12 -14 0 -14
0 0 15 0 15 25 0 25 0 0 15 0 15 30 0 30 0 0 15 0 15 25 0 25 0 0 10 0 10 30
0 30 0 0 15 0 15 25 0 25 0 0 15 0 15 40 0 40 0 0 -15z m-350 -190 l0 -15 -15
0 -15 0 0 -40 0 -40 -15 0 -15 0 0 -40 0 -40 15 0 15 0 0 -15 0 -15 30 0 30 0
0 -15 0 -15 40 0 40 0 0 -15 0 -15 10 0 10 0 0 -10 0 -10 -40 0 -40 0 0 10 0
10 -40 0 -40 0 0 15 0 15 -25 0 -25 0 0 -15 0 -15 -15 0 -15 0 0 -40 0 -40
-15 0 -15 0 0 -40 0 -40 -25 0 -25 0 0 40 0 40 10 0 10 0 0 40 0 40 15 0 15 0
0 30 0 30 -25 0 -25 0 0 15 0 15 -40 0 -40 0 0 10 0 10 -30 0 -30 0 0 30 0 30
30 0 30 0 0 -15 0 -15 25 0 25 0 0 -15 0 -15 40 0 40 0 0 -10 0 -10 15 0 15 0
0 40 0 40 15 0 15 0 0 40 0 40 10 0 10 0 0 15 0 15 30 0 30 0 0 -15z"/>
<path d="M710 1105 l0 -15 -15 0 -15 0 0 -15 0 -15 -15 0 -15 0 0 -55 0 -55
30 0 30 0 0 15 0 15 25 0 25 0 0 15 0 15 30 0 30 0 0 10 0 10 25 0 25 0 0 15
0 15 15 0 15 0 0 15 0 15 -15 0 -15 0 0 15 0 15 -80 0 -80 0 0 -15z"/>
<path d="M50 790 l0 -50 -10 0 -10 0 0 -85 0 -85 -15 0 -15 0 0 -80 0 -80 15
0 15 0 0 -30 0 -30 10 0 10 0 0 -25 0 -25 15 0 15 0 0 -25 0 -25 15 0 15 0 0
-30 0 -30 15 0 15 0 0 -25 0 -25 10 0 10 0 0 -30 0 -30 15 0 15 0 0 -25 0 -25
15 0 15 0 0 -15 0 -15 110 0 110 0 0 15 0 15 10 0 10 0 0 40 0 40 -10 0 -10 0
0 25 0 25 -15 0 -15 0 0 30 0 30 -15 0 -15 0 0 25 0 25 -15 0 -15 0 0 30 0 30
-10 0 -10 0 0 25 0 25 -15 0 -15 0 0 30 0 30 -15 0 -15 0 0 25 0 25 -10 0 -10
0 0 25 0 25 -15 0 -15 0 0 30 0 30 -15 0 -15 0 0 25 0 25 -15 0 -15 0 0 30 0
30 -10 0 -10 0 0 25 0 25 -15 0 -15 0 0 30 0 30 -15 0 -15 0 0 10 0 10 -15 0
-15 0 0 -50z"/>
<path d="M1250 450 l0 -10 -25 0 -25 0 0 -15 0 -15 -30 0 -30 0 0 -15 0 -15
-25 0 -25 0 0 -15 0 -15 -30 0 -30 0 0 -10 0 -10 -25 0 -25 0 0 -15 0 -15 -25
0 -25 0 0 -15 0 -15 -30 0 -30 0 0 -10 0 -10 -25 0 -25 0 0 -15 0 -15 -30 0
-30 0 0 -15 0 -15 -25 0 -25 0 0 -15 0 -15 -30 0 -30 0 0 -10 0 -10 -25 0 -25
0 0 -15 0 -15 -30 0 -30 0 0 -15 0 -15 -10 0 -10 0 0 -15 0 -15 -15 0 -15 0 0
-25 0 -25 245 0 245 0 0 15 0 15 25 0 25 0 0 10 0 10 30 0 30 0 0 15 0 15 15
0 15 0 0 30 0 30 10 0 10 0 0 25 0 25 15 0 15 0 0 30 0 30 15 0 15 0 0 25 0
25 15 0 15 0 0 25 0 25 10 0 10 0 0 30 0 30 15 0 15 0 0 25 0 25 -15 0 -15 0
0 -10z"/>
</g>
</svg>
