<?xml version="1.0" standalone="no"?>
<!DOCTYPE svg PUBLIC "-//W3C//DTD SVG 20010904//EN"
 "http://www.w3.org/TR/2001/REC-SVG-20010904/DTD/svg10.dtd">
<svg version="1.0" xmlns="http://www.w3.org/2000/svg"
 width="468pt" height="468pt" viewBox="0 0 468 468"
 preserveAspectRatio="xMidYMid meet">
<metadata>
Created by potrace 1.8, written by Peter Selinger 2001-2007
</metadata>
<g transform="translate(0,468) scale(0.365625,-0.365625)"
fill="#000000" stroke="none">
<path d="M410 1220 l0 -10 -50 0 -50 0 0 -15 0 -15 15 0 15 0 0 -10 0 -10 -15
0 -15 0 0 10 0 10 -35 0 -35 0 0 -10 0 -10 15 0 15 0 0 -10 0 -10 -15 0 -15 0
0 10 0 10 -25 0 -25 0 0 -10 0 -10 -25 0 -25 0 0 -13 0 -13 -20 -14 -20 -14 0
-13 0 -13 -11 0 -10 0 -15 -14 -14 -15 0 -20 0 -21 -15 0 -15 0 0 -290 0 -290
11 0 10 0 15 -14 14 -15 0 -20 0 -21 15 0 15 0 0 -10 0 -11 25 -24 24 -25 21
0 20 0 0 -15 0 -15 15 0 15 0 0 -10 0 -10 35 0 35 0 0 -15 0 -15 50 0 50 0 0
-10 0 -10 60 0 60 0 0 -15 0 -15 145 0 145 0 0 15 0 15 60 0 60 0 0 10 0 10
45 0 45 0 0 15 0 15 40 0 40 0 0 10 0 10 25 0 25 0 0 10 0 11 25 24 24 25 11
0 10 0 0 11 0 10 14 15 15 14 10 0 11 0 0 325 0 325 -15 0 -15 0 0 25 0 25
-10 0 -10 0 0 15 0 15 -15 0 -15 0 0 10 0 10 -20 0 -20 0 0 -10 0 -10 10 0 10
0 0 -11 0 -10 14 -15 15 -14 10 0 11 0 0 -15 0 -15 -15 0 -15 0 0 15 0 15 -10
0 -10 0 0 -14 0 -14 -12 -5 -13 -4 8 -9 8 -8 10 14 11 15 5 -12 5 -13 10 0 9
0 15 -14 14 -15 0 -9 0 -10 -12 -6 -13 -6 13 -6 12 -6 0 -10 0 -9 -14 -15 -15
-14 -6 0 -6 0 -15 14 -14 15 0 6 0 6 14 15 15 14 10 0 11 0 0 15 0 15 -14 0
-14 0 -5 13 -5 12 -12 -15 -12 -15 -5 13 -5 12 -13 0 -13 0 -6 13 -6 12 -6
-12 -6 -13 -13 0 -13 0 -6 -12 -6 -13 -6 13 -6 12 -13 0 -13 0 -5 -12 -5 -13
-12 15 -12 15 -5 -12 -5 -13 -13 0 -13 0 -6 13 -6 12 -6 -12 -6 -13 -10 0 -9
0 -16 15 -15 16 7 7 8 7 4 -12 5 -13 13 0 13 0 6 13 6 12 6 -12 6 -13 13 0 13
0 5 13 5 12 11 -15 10 -14 8 8 8 9 -12 4 -13 5 0 10 0 9 -14 15 -15 14 -6 0
-6 0 -15 -14 -14 -15 0 -10 0 -11 -15 0 -15 0 0 13 0 13 -20 14 -20 14 0 13 0
13 -15 0 -15 0 0 -15 0 -15 11 0 10 0 15 -14 14 -15 0 -9 0 -10 -12 -6 -13 -6
13 -6 12 -6 0 -24 0 -24 -25 0 -25 0 0 15 0 15 -10 0 -10 0 0 -15 0 -15 -15 0
-15 0 0 11 0 10 -14 15 -15 14 -9 0 -10 0 -6 -12 -6 -13 -6 13 -6 12 -34 0
-34 0 0 10 0 10 -11 0 -12 0 -18 -22 -19 -21 -7 7 -7 7 14 10 15 11 -12 5 -13
5 0 14 0 14 -11 0 -10 0 -15 14 -14 15 0 10 0 11 -15 0 -15 0 0 10 0 10 -25 0
-25 0 0 24 0 24 -12 6 -13 6 13 6 12 6 0 14 0 14 40 0 40 0 0 -15 0 -15 10 0
10 0 0 15 0 15 15 0 15 0 0 10 0 10 -75 0 -75 0 0 -10z m-20 -50 l0 -10 -15 0
-15 0 0 10 0 10 15 0 15 0 0 -10z m-220 -70 l0 -10 -15 0 -15 0 0 -13 0 -13
-20 -14 -20 -14 0 -13 0 -13 -15 0 -15 0 0 15 0 15 11 0 10 0 15 14 14 15 0 6
0 6 13 14 12 14 13 1 12 0 0 -10z m800 -75 l0 -15 -15 0 -15 0 0 15 0 15 15 0
15 0 0 -15z m-780 -45 l0 -10 -10 0 -10 0 0 10 0 10 10 0 10 0 0 -10z m-120
-25 l0 -15 11 0 10 0 15 -14 14 -15 0 -9 0 -10 13 -5 12 -5 -15 -11 -14 -10 8
-8 9 -8 4 13 5 12 13 0 13 0 6 13 6 12 6 -12 6 -13 10 0 9 0 15 -14 14 -15 0
-10 0 -11 15 0 15 0 0 15 0 15 -11 0 -10 0 -17 17 -17 16 13 5 12 4 0 14 0 14
15 0 15 0 0 -11 0 -12 23 -20 22 -20 -12 -4 -13 -5 0 -14 0 -14 10 0 10 0 0
15 0 15 13 0 13 0 14 20 14 20 12 0 12 0 5 -12 5 -13 12 15 12 15 5 -12 5 -13
10 0 9 0 15 14 14 15 0 10 0 11 -10 0 -10 0 0 -15 0 -15 -15 0 -15 0 0 15 0
15 15 0 15 0 0 10 0 10 35 0 35 0 0 -10 0 -10 15 0 15 0 0 -15 0 -15 -15 0
-15 0 0 15 0 15 -10 0 -10 0 0 -11 0 -10 14 -15 15 -14 9 0 10 0 6 13 6 12 6
-12 6 -13 49 0 49 0 0 10 0 10 20 0 20 0 0 -8 0 -8 -20 -14 -20 -14 0 -12 0
-12 13 -6 12 -6 -12 -6 -13 -6 0 -14 0 -14 -15 0 -15 0 0 -10 0 -10 14 0 14 0
5 13 5 12 12 -15 12 -15 5 13 5 12 13 0 13 0 6 -12 6 -13 6 13 6 12 10 0 9 0
15 -14 14 -15 0 -10 0 -11 15 0 15 0 0 15 0 15 -11 0 -10 0 -15 14 -14 15 0
10 0 11 -15 0 -15 0 0 -15 0 -15 -10 0 -10 0 0 15 0 15 -15 0 -15 0 0 -15 0
-15 -10 0 -10 0 0 14 0 14 13 6 12 6 -12 6 -13 6 0 10 0 9 14 15 15 14 9 0 10
0 6 -12 6 -13 6 13 6 12 10 0 9 0 15 -14 14 -15 0 -10 0 -11 14 0 14 0 5 -12
5 -13 12 15 12 15 5 -12 5 -13 14 0 14 0 0 -11 0 -10 14 -15 15 -14 9 0 10 0
5 13 4 12 9 -9 9 -9 -12 -4 -13 -5 0 -13 0 -13 12 -4 13 -5 -17 -16 -17 -17
-34 0 -35 0 -4 12 -5 13 -16 -17 -17 -17 0 -10 0 -11 -15 0 -15 0 0 15 0 15
15 0 15 0 0 10 0 10 -11 0 -10 0 -15 -14 -14 -15 0 -10 0 -11 -15 0 -15 0 0
15 0 15 -10 0 -10 0 0 -15 0 -15 -14 0 -14 0 -5 -12 -5 -13 -12 15 -12 15 -5
-12 -5 -13 -13 0 -13 0 -6 13 -6 12 -6 -12 -6 -13 -13 0 -13 0 -5 13 -5 12
-12 -15 -12 -15 -5 13 -5 12 -14 0 -14 0 0 15 0 15 15 0 15 0 0 10 0 10 -11 0
-10 0 -15 -14 -14 -15 0 -10 0 -11 -15 0 -15 0 0 11 0 10 -14 15 -15 14 -9 0
-10 0 -5 -12 -5 -13 -12 15 -12 15 -5 -12 -5 -13 -13 0 -13 0 -6 13 -6 12 -6
-12 -6 -13 -10 0 -9 0 -17 17 -17 16 13 5 12 4 0 14 0 14 -10 0 -10 0 0 -11 0
-10 -14 -15 -15 -14 -6 0 -6 0 -15 -14 -14 -15 0 -10 0 -11 -15 0 -15 0 0 11
0 10 -14 15 -15 14 -10 0 -11 0 0 10 0 10 15 0 15 0 0 14 0 14 13 6 12 6 -12
6 -13 6 0 14 0 14 -15 0 -15 0 0 -15 0 -15 -10 0 -10 0 0 14 0 14 13 6 12 6
-12 6 -13 6 0 10 0 9 -14 15 -15 14 -6 0 -6 0 -15 14 -14 15 0 9 0 10 13 6 12
6 -12 6 -13 6 0 14 0 14 10 0 10 0 0 -15z m70 0 l0 -15 -10 0 -10 0 0 15 0 15
10 0 10 0 0 -15z m130 4 l0 -10 14 -15 15 -14 30 0 31 0 0 -11 0 -10 -14 -15
-15 -14 -6 0 -6 0 -15 14 -14 15 0 6 0 6 -14 15 -15 14 -6 0 -6 0 -15 -14 -14
-15 0 -10 0 -11 -15 0 -15 0 0 15 0 15 -10 0 -10 0 0 -15 0 -15 -15 0 -15 0 0
15 0 15 14 0 14 0 6 13 6 12 6 -12 6 -13 10 0 9 0 15 14 14 15 0 10 0 11 15 0
15 0 0 -11z m120 -4 l0 -15 -40 0 -40 0 0 15 0 15 40 0 40 0 0 -15z m360 0 l0
-15 -15 0 -15 0 0 15 0 15 15 0 15 0 0 -15z m-340 -50 l0 -15 -10 0 -10 0 0
15 0 15 10 0 10 0 0 -15z m340 0 l0 -15 -15 0 -15 0 0 15 0 15 15 0 15 0 0
-15z m460 -70 l0 -15 -11 0 -10 0 -15 -14 -14 -15 0 -6 0 -6 -14 -15 -15 -14
-10 0 -11 0 0 10 0 10 15 0 15 0 0 13 0 13 20 14 20 14 0 13 0 13 15 0 15 0 0
-15z m-150 -96 l0 -10 -14 -15 -15 -14 -10 0 -11 0 0 25 0 25 25 0 25 0 0 -11z
m-890 -70 l0 -10 14 -15 15 -14 6 0 6 0 15 14 14 15 0 10 0 11 15 0 15 0 0
-14 0 -14 13 -5 12 -4 -9 -9 -9 -9 -4 13 -5 12 -10 0 -9 0 -15 -14 -14 -15 0
-10 0 -11 -15 0 -15 0 0 11 0 10 -14 15 -15 14 -10 0 -11 0 0 15 0 15 15 0 15
0 0 -11z m290 -4 l0 -15 -15 0 -15 0 0 15 0 15 15 0 15 0 0 -15z m-100 -25 l0
-10 25 0 25 0 0 -14 0 -14 13 -5 12 -5 -15 -12 -15 -12 13 -5 12 -5 0 -13 0
-13 -12 -6 -13 -6 13 -6 12 -6 0 -13 0 -13 -12 -6 -13 -6 13 -6 12 -6 0 -13 0
-13 -12 -5 -13 -5 15 -12 15 -12 -12 -5 -13 -5 0 -13 0 -13 13 -6 12 -6 -12
-6 -13 -6 0 -13 0 -13 13 -5 12 -5 -15 -12 -15 -12 13 -5 12 -5 0 -14 0 -14
15 0 15 0 0 15 0 15 -15 0 -15 0 0 10 0 10 14 0 14 0 6 13 6 12 6 -12 6 -13
13 0 13 0 6 13 6 12 6 -12 6 -13 10 0 9 0 15 14 14 15 0 9 0 10 -12 6 -13 6
13 6 12 6 0 10 0 9 -14 15 -15 14 -9 0 -10 0 -6 -12 -6 -13 -6 13 -6 12 -13 0
-13 0 -6 -12 -6 -13 -6 13 -6 12 -14 0 -14 0 0 10 0 10 15 0 15 0 0 15 0 15
-15 0 -15 0 0 10 0 10 15 0 15 0 0 15 0 15 -15 0 -15 0 0 10 0 10 15 0 15 0 0
15 0 15 -15 0 -15 0 0 10 0 10 14 0 14 0 6 13 6 12 6 -12 6 -13 14 0 14 0 0
10 0 10 -15 0 -15 0 0 15 0 15 15 0 15 0 0 -11 0 -10 14 -15 15 -14 9 0 10 0
5 13 5 12 12 -15 12 -15 5 13 5 12 13 0 13 0 6 -12 6 -13 6 13 6 12 13 0 13 0
5 -12 5 -13 12 15 12 15 5 -12 5 -13 13 0 13 0 5 13 4 12 9 -8 8 -8 -14 -10
-15 -11 13 -5 12 -5 0 -13 0 -13 -12 -6 -13 -6 13 -6 12 -6 0 -13 0 -13 -12
-6 -13 -6 13 -6 12 -6 0 -13 0 -13 -12 -5 -13 -5 15 -12 15 -12 -12 -5 -13 -5
0 -13 0 -13 13 -6 12 -6 -12 -6 -13 -6 0 -13 0 -13 13 -5 12 -5 -15 -12 -15
-12 13 -5 12 -5 0 -13 0 -13 -12 -6 -13 -6 13 -6 12 -6 0 -14 0 -14 -10 0 -10
0 0 15 0 15 -15 0 -15 0 0 -15 0 -15 -10 0 -10 0 0 14 0 14 -12 6 -13 6 13 6
12 6 0 10 0 9 -14 15 -15 14 -9 0 -10 0 -6 -12 -6 -13 -6 13 -6 12 -10 0 -9 0
-15 -14 -14 -15 0 -9 0 -10 13 -6 12 -6 -12 -6 -13 -6 0 -14 0 -14 -10 0 -10
0 0 15 0 15 -15 0 -15 0 0 -15 0 -15 -10 0 -10 0 0 15 0 15 -14 0 -14 0 -6 13
-6 12 -6 -12 -6 -13 -13 0 -13 0 -6 13 -6 12 -6 -12 -6 -13 -24 0 -24 0 0 10
0 10 -25 0 -25 0 0 14 0 14 -12 5 -13 5 15 12 15 12 -12 5 -13 5 0 13 0 13 13
6 12 6 -12 6 -13 6 0 13 0 13 13 5 12 5 -15 12 -15 12 13 5 12 5 0 13 0 13
-12 6 -13 6 13 6 12 6 0 13 0 13 -12 6 -13 6 13 6 12 6 0 13 0 13 -12 5 -13 5
15 12 15 12 -12 5 -13 5 0 9 0 10 13 14 12 14 23 1 22 0 0 -10z m-190 -21 l0
-10 14 -15 15 -14 6 0 6 0 15 14 14 15 0 10 0 11 15 0 15 0 0 -14 0 -14 13 -5
12 -5 -15 -12 -15 -12 13 -5 12 -5 0 -13 0 -13 -12 -6 -13 -6 13 -6 12 -6 0
-13 0 -13 -12 -6 -13 -6 13 -6 12 -6 0 -13 0 -13 -12 -5 -13 -5 15 -12 15 -12
-12 -5 -13 -5 0 -13 0 -13 13 -6 12 -6 -12 -6 -13 -6 0 -13 0 -13 12 -4 13 -5
-17 -16 -17 -17 -8 0 -9 0 -14 20 -14 20 -13 0 -13 0 0 11 0 10 -14 15 -15 14
-10 0 -11 0 0 15 0 15 15 0 15 0 0 -11 0 -10 14 -15 15 -14 10 0 11 0 0 -11 0
-10 14 -15 15 -14 10 0 11 0 0 10 0 10 -15 0 -15 0 0 15 0 15 15 0 15 0 0 10
0 10 -15 0 -15 0 0 15 0 15 15 0 15 0 0 10 0 10 -14 0 -14 0 -6 -12 -6 -13 -6
13 -6 12 -13 0 -13 0 -6 -12 -6 -13 -6 13 -6 12 -14 0 -14 0 0 10 0 10 15 0
15 0 0 15 0 15 -15 0 -15 0 0 10 0 10 15 0 15 0 0 15 0 15 -15 0 -15 0 0 10 0
10 15 0 15 0 0 15 0 15 -15 0 -15 0 0 10 0 10 15 0 15 0 0 10 0 10 -15 0 -15
0 0 15 0 15 15 0 15 0 0 -11z m290 -4 l0 -15 -15 0 -15 0 0 15 0 15 15 0 15 0
0 -15z m480 0 l0 -15 15 0 15 0 0 15 0 15 10 0 10 0 0 -14 0 -14 -12 -5 -13
-5 15 -12 15 -12 -12 -5 -13 -5 0 -13 0 -13 13 -6 12 -6 -12 -6 -13 -6 0 -13
0 -13 13 -6 12 -6 -12 -6 -13 -6 0 -13 0 -13 13 -5 12 -5 -15 -12 -15 -12 13
-5 12 -5 0 -13 0 -13 -12 -6 -13 -6 13 -6 12 -6 0 -13 0 -13 -12 -5 -13 -5 15
-12 15 -12 -12 -5 -13 -5 0 -14 0 -14 -15 0 -15 0 0 15 0 15 15 0 15 0 0 10 0
10 -15 0 -15 0 0 10 0 10 15 0 15 0 0 15 0 15 -15 0 -15 0 0 10 0 10 15 0 15
0 0 15 0 15 -15 0 -15 0 0 10 0 10 15 0 15 0 0 10 0 10 -15 0 -15 0 0 15 0 15
15 0 15 0 0 10 0 10 -15 0 -15 0 0 15 0 15 15 0 15 0 0 10 0 10 -15 0 -15 0 0
15 0 15 15 0 15 0 0 10 0 10 -11 0 -10 0 -15 14 -14 15 0 10 0 11 10 0 10 0 0
-15z m-62 -32 l17 -16 -13 -5 -12 -4 0 -13 0 -13 13 -6 12 -6 -12 -6 -13 -6 0
-13 0 -13 13 -6 12 -6 -12 -6 -13 -6 0 -13 0 -13 13 -5 12 -5 -15 -12 -15 -12
13 -5 12 -5 0 -13 0 -13 -12 -6 -13 -6 13 -6 12 -6 0 -13 0 -13 -12 -5 -13 -5
15 -12 15 -12 -12 -5 -13 -5 0 -13 0 -13 13 -5 12 -4 -7 -8 -7 -7 -16 15 -15
16 0 9 0 10 13 5 12 5 -15 12 -15 12 13 5 12 5 0 13 0 13 -12 6 -13 6 13 6 12
6 0 13 0 13 -12 5 -13 5 15 12 15 12 -12 5 -13 5 0 13 0 13 13 6 12 6 -12 6
-13 6 0 13 0 13 13 6 12 6 -12 6 -13 6 0 13 0 13 13 6 12 6 -12 6 -13 6 0 9 0
9 6 0 5 0 17 -17z m-658 -207 l0 -14 13 -5 12 -4 -9 -9 -9 -9 -4 13 -5 12 -14
0 -14 0 0 15 0 15 15 0 15 0 0 -14z m240 -1 l0 -15 -15 0 -15 0 0 15 0 15 15
0 15 0 0 -15z m50 0 l0 -15 -11 0 -10 0 -15 -14 -14 -15 0 -10 0 -11 -15 0
-15 0 0 15 0 15 11 0 10 0 15 14 14 15 0 10 0 11 15 0 15 0 0 -15z m50 0 l0
-15 -11 0 -10 0 -15 -14 -14 -15 0 -10 0 -11 -15 0 -15 0 0 15 0 15 11 0 10 0
15 14 14 15 0 10 0 11 15 0 15 0 0 -15z m0 -50 l0 -15 -15 0 -15 0 0 15 0 15
15 0 15 0 0 -15z m70 -70 l0 -15 -15 0 -15 0 0 15 0 15 15 0 15 0 0 -15z m50
0 l0 -15 -11 0 -10 0 -15 -14 -14 -15 0 -10 0 -11 -15 0 -15 0 0 15 0 15 11 0
10 0 15 14 14 15 0 10 0 11 15 0 15 0 0 -15z m0 -50 l0 -15 -15 0 -15 0 0 15
0 15 15 0 15 0 0 -15z"/>
<path d="M70 905 l0 -15 14 0 14 0 5 -12 4 -13 9 9 9 9 -12 4 -13 5 0 14 0 14
-15 0 -15 0 0 -15z"/>
<path d="M140 835 l0 -15 15 0 15 0 0 15 0 15 -15 0 -15 0 0 -15z"/>
<path d="M190 835 l0 -15 15 0 15 0 0 15 0 15 -15 0 -15 0 0 -15z"/>
<path d="M390 835 l0 -15 10 0 10 0 0 15 0 15 -10 0 -10 0 0 -15z"/>
<path d="M720 835 l0 -15 15 0 15 0 0 15 0 15 -15 0 -15 0 0 -15z"/>
<path d="M770 835 l0 -15 11 0 10 0 15 -14 14 -15 0 -10 0 -11 15 0 15 0 0 15
0 15 -11 0 -10 0 -15 14 -14 15 0 10 0 11 -15 0 -15 0 0 -15z"/>
<path d="M190 785 l0 -15 15 0 15 0 0 15 0 15 -15 0 -15 0 0 -15z"/>
<path d="M240 785 l0 -15 15 0 15 0 0 15 0 15 -15 0 -15 0 0 -15z"/>
<path d="M870 786 l0 -14 13 -6 12 -6 -12 -6 -13 -6 0 -13 0 -13 -12 -5 -13
-4 8 -9 8 -8 10 14 11 15 5 -12 5 -13 13 0 13 0 6 13 6 12 6 -12 6 -13 14 0
14 0 0 10 0 10 -15 0 -15 0 0 11 0 10 -14 15 -15 14 -10 0 -11 0 0 15 0 15
-10 0 -10 0 0 -14z m50 -51 l0 -15 -15 0 -15 0 0 15 0 15 15 0 15 0 0 -15z"/>
<path d="M360 760 l0 -10 15 0 15 0 0 10 0 10 -15 0 -15 0 0 -10z"/>
<path d="M560 760 l0 -10 10 0 10 0 0 10 0 10 -10 0 -10 0 0 -10z"/>
<path d="M600 760 l0 -10 15 0 15 0 0 10 0 10 -15 0 -15 0 0 -10z"/>
<path d="M190 736 l0 -14 -12 -4 -13 -5 17 -16 17 -17 6 0 6 0 17 17 17 16
-13 5 -12 4 0 14 0 14 -15 0 -15 0 0 -14z"/>
<path d="M240 735 l0 -15 15 0 15 0 0 15 0 15 -15 0 -15 0 0 -15z"/>
<path d="M510 735 l0 -15 10 0 10 0 0 15 0 15 -10 0 -10 0 0 -15z"/>
<path d="M700 710 l0 -10 10 0 10 0 0 10 0 10 -10 0 -10 0 0 -10z"/>
<path d="M750 710 l0 -10 10 0 10 0 0 10 0 10 -10 0 -10 0 0 -10z"/>
<path d="M460 570 l0 -10 10 0 10 0 0 -14 0 -14 -12 -6 -13 -6 13 -6 12 -6 0
-13 0 -13 -12 -6 -13 -6 13 -6 12 -6 0 -13 0 -13 -12 -5 -13 -4 9 -9 9 -9 4
13 5 12 13 0 13 0 6 -12 6 -13 6 13 6 12 9 0 10 0 24 -25 25 -24 0 -10 0 -9
-12 -6 -13 -6 13 -6 12 -6 0 -9 0 -10 -25 -24 -24 -25 -10 0 -9 0 -6 13 -6 12
-6 -12 -6 -13 -13 0 -13 0 -5 13 -4 12 -9 -9 -9 -9 13 -4 12 -5 0 -14 0 -14
14 0 14 0 6 -12 6 -13 6 13 6 12 13 0 13 0 5 -12 4 -13 9 9 9 9 -12 4 -13 5 0
9 0 10 25 24 24 25 10 0 9 0 6 -12 6 -13 6 13 6 12 9 0 10 0 24 -25 25 -24 0
-10 0 -9 -12 -5 -13 -4 9 -9 9 -9 4 13 5 12 14 0 14 0 0 15 0 15 -15 0 -15 0
0 10 0 10 15 0 15 0 0 10 0 10 -15 0 -15 0 0 15 0 15 15 0 15 0 0 10 0 10 -15
0 -15 0 0 15 0 15 15 0 15 0 0 10 0 10 -11 0 -10 0 -15 14 -14 15 0 9 0 10 13
6 12 6 -12 6 -13 6 0 13 0 13 13 6 12 6 -12 6 -13 6 0 14 0 14 10 0 10 0 0
-15 0 -15 15 0 15 0 0 15 0 15 -14 0 -14 0 -5 13 -5 12 -12 -15 -12 -15 -5 13
-5 12 -13 0 -13 0 -6 -12 -6 -13 -6 13 -6 12 -13 0 -13 0 -5 -12 -5 -13 -12
15 -12 15 -5 -12 -5 -13 -13 0 -13 0 -6 13 -6 12 -6 -12 -6 -13 -14 0 -14 0 0
10 0 10 -10 0 -10 0 0 -10z m70 -25 l0 -15 15 0 15 0 0 15 0 15 10 0 10 0 0
-14 0 -14 13 -6 12 -6 -12 -6 -13 -6 0 -13 0 -13 13 -6 12 -6 -12 -6 -13 -6 0
-10 0 -9 14 -15 15 -14 9 0 10 0 6 13 6 12 6 -12 6 -13 14 0 14 0 0 10 0 10
-15 0 -15 0 0 15 0 15 15 0 15 0 0 10 0 10 -15 0 -15 0 0 15 0 15 15 0 15 0 0
10 0 10 -15 0 -15 0 0 15 0 15 15 0 15 0 0 -14 0 -14 13 -6 12 -6 -12 -6 -13
-6 0 -13 0 -13 13 -6 12 -6 -12 -6 -13 -6 0 -10 0 -11 23 -20 22 -20 -12 -4
-13 -5 0 -13 0 -13 13 -6 12 -6 -12 -6 -13 -6 0 -13 0 -13 13 -5 12 -4 -7 -8
-7 -7 -16 15 -15 16 0 10 0 11 -15 0 -15 0 0 -15 0 -15 -10 0 -10 0 0 15 0 15
-15 0 -15 0 0 10 0 10 15 0 15 0 0 15 0 15 -10 0 -11 0 -24 25 -25 24 0 11 0
10 -15 0 -15 0 0 -15 0 -15 -10 0 -10 0 0 15 0 15 -15 0 -15 0 0 10 0 10 15 0
15 0 0 15 0 15 -15 0 -15 0 0 10 0 10 15 0 15 0 0 15 0 15 10 0 10 0 0 -15z
m100 1 l0 -14 13 -6 12 -6 -12 -6 -13 -6 0 -13 0 -13 13 -6 12 -6 -12 -6 -13
-6 0 -14 0 -14 -15 0 -15 0 0 15 0 15 15 0 15 0 0 10 0 10 -15 0 -15 0 0 15 0
15 15 0 15 0 0 10 0 10 -15 0 -15 0 0 15 0 15 15 0 15 0 0 -14z m-100 -291 l0
-15 -10 0 -10 0 0 15 0 15 10 0 10 0 0 -15z"/>
<path d="M510 520 l0 -10 10 0 10 0 0 -14 0 -14 -12 -5 -13 -4 9 -9 9 -9 4 13
5 12 13 0 13 0 5 -12 4 -13 9 9 9 9 -12 4 -13 5 0 13 0 13 13 5 12 4 -9 9 -9
9 -4 -12 -5 -13 -14 0 -14 0 0 10 0 10 -10 0 -10 0 0 -10z"/>
<path d="M630 400 l0 -10 10 0 10 0 0 -14 0 -14 -12 -5 -13 -4 9 -9 9 -9 4 13
5 12 13 0 13 0 5 -12 4 -13 9 9 9 9 -12 4 -13 5 0 13 0 13 13 5 12 4 -9 9 -9
9 -4 -12 -5 -13 -14 0 -14 0 0 10 0 10 -10 0 -10 0 0 -10z"/>
<path d="M720 495 l0 -15 15 0 15 0 0 15 0 15 -15 0 -15 0 0 -15z"/>
<path d="M720 445 l0 -15 15 0 15 0 0 15 0 15 -15 0 -15 0 0 -15z"/>
<path d="M230 580 l-14 -20 -12 0 -12 0 -5 13 -4 12 -9 -9 -9 -9 13 -4 12 -5
0 -13 0 -13 -12 -6 -13 -6 13 -6 12 -6 0 -13 0 -13 -12 -6 -13 -6 13 -6 12 -6
0 -13 0 -13 -12 -5 -13 -4 9 -9 9 -9 4 13 5 12 13 0 13 0 6 -12 6 -13 6 13 6
12 14 0 14 0 0 15 0 15 -15 0 -15 0 0 -15 0 -15 -10 0 -10 0 0 15 0 15 -15 0
-15 0 0 10 0 10 15 0 15 0 0 15 0 15 -15 0 -15 0 0 10 0 10 15 0 15 0 0 11 0
10 14 15 15 14 10 0 11 0 0 10 0 10 -13 0 -13 0 -14 -20z"/>
<path d="M240 546 l0 -14 -12 -6 -13 -6 13 -6 12 -6 0 -13 0 -13 -12 -5 -13
-4 9 -9 9 -9 4 13 5 12 14 0 14 0 0 15 0 15 -15 0 -15 0 0 10 0 10 15 0 15 0
0 15 0 15 -15 0 -15 0 0 -14z"/>
<path d="M580 1220 l0 -10 10 0 10 0 0 10 0 10 -10 0 -10 0 0 -10z"/>
<path d="M630 1220 l0 -10 10 0 10 0 0 -15 0 -15 15 0 15 0 0 14 0 14 13 5 12
4 -9 9 -9 9 -4 -12 -5 -13 -14 0 -14 0 0 10 0 10 -10 0 -10 0 0 -10z"/>
<path d="M720 1220 l0 -10 40 0 40 0 0 -15 0 -15 10 0 10 0 0 15 0 15 25 0 25
0 0 -15 0 -15 24 0 24 0 6 -12 6 -13 6 13 6 12 10 0 11 0 20 -22 20 -23 4 13
5 12 10 0 9 0 15 -14 14 -15 0 -10 0 -11 40 0 40 0 0 15 0 15 -25 0 -25 0 0
10 0 10 -25 0 -25 0 0 10 0 10 -35 0 -35 0 0 15 0 15 -50 0 -50 0 0 10 0 10
-75 0 -75 0 0 -10z"/>
<path d="M430 1170 l0 -10 11 0 10 0 15 -14 14 -15 0 -10 0 -11 15 0 15 0 0
15 0 15 -13 0 -13 0 -14 20 -14 20 -13 0 -13 0 0 -10z"/>
<path d="M580 1174 l0 -5 14 -15 15 -14 10 0 11 0 0 10 0 10 -15 0 -15 0 0 10
0 10 -10 0 -10 0 0 -6z"/>
<path d="M530 1125 l0 -15 11 0 10 0 15 -14 14 -15 0 -10 0 -11 -10 0 -10 0 0
15 0 15 -15 0 -15 0 0 -15 0 -15 11 0 10 0 15 -14 14 -15 0 -10 0 -11 10 0 10
0 0 14 0 14 -12 6 -13 6 13 6 12 6 0 12 0 12 -20 14 -20 14 0 13 0 13 -15 0
-15 0 0 -15z"/>
<path d="M650 1100 l0 -10 15 0 15 0 0 10 0 10 -15 0 -15 0 0 -10z"/>
<path d="M990 1100 l0 -10 10 0 10 0 0 -15 0 -15 15 0 15 0 0 15 0 15 -15 0
-15 0 0 10 0 10 -10 0 -10 0 0 -10z"/>
<path d="M770 1075 l0 -15 15 0 15 0 0 15 0 15 -15 0 -15 0 0 -15z"/>
<path d="M1060 1075 l0 -15 15 0 15 0 0 15 0 15 -15 0 -15 0 0 -15z"/>
<path d="M1110 1079 l0 -10 -14 -15 -15 -14 -10 0 -11 0 0 -15 0 -15 -10 0
-10 0 0 15 0 15 -15 0 -15 0 0 -15 0 -15 14 0 14 0 6 -12 6 -13 6 13 6 12 14
0 14 0 0 11 0 10 14 15 15 14 10 0 11 0 0 -10 0 -10 -15 0 -15 0 0 -15 0 -15
15 0 15 0 0 14 0 14 13 6 12 6 -12 6 -13 6 0 14 0 14 -15 0 -15 0 0 -11z"/>
<path d="M1180 905 l0 -15 15 0 15 0 0 15 0 15 -15 0 -15 0 0 -15z"/>
<path d="M0 60 l0 -60 640 0 640 0 0 60 0 60 -640 0 -640 0 0 -60z"/>
</g>
</svg>
