<?xml version="1.0" standalone="no"?>
<!DOCTYPE svg PUBLIC "-//W3C//DTD SVG 20010904//EN"
 "http://www.w3.org/TR/2001/REC-SVG-20010904/DTD/svg10.dtd">
<svg version="1.0" xmlns="http://www.w3.org/2000/svg"
 width="468pt" height="468pt" viewBox="0 0 468 468"
 preserveAspectRatio="xMidYMid meet">
<metadata>
Created by potrace 1.8, written by Peter Selinger 2001-2007
</metadata>
<g transform="translate(0,468) scale(0.365625,-0.365625)"
fill="#000000" stroke="none">
<path d="M820 1255 l0 -25 -50 0 -50 0 0 -25 0 -25 -25 0 -25 0 0 -50 0 -50
-30 0 -30 0 0 -55 0 -55 -25 0 -25 0 0 -25 0 -25 -25 0 -25 0 0 -50 0 -50 -75
0 -75 0 0 -25 0 -25 50 0 50 0 0 -50 0 -50 205 0 205 0 0 50 0 50 25 0 25 0 0
-25 0 -25 25 0 25 0 0 25 0 25 -25 0 -25 0 0 50 0 50 25 0 25 0 0 50 0 50 25
0 25 0 0 55 0 55 30 0 30 0 0 75 0 75 -30 0 -30 0 0 25 0 25 -100 0 -100 0 0
-25z m200 -100 l0 -75 -25 0 -25 0 0 -55 0 -55 -25 0 -25 0 0 -50 0 -50 -25 0
-25 0 0 -50 0 -50 -180 0 -180 0 0 25 0 25 25 0 25 0 0 50 0 50 25 0 25 0 0
25 0 25 30 0 30 0 0 55 0 55 25 0 25 0 0 50 0 50 50 0 50 0 0 25 0 25 100 0
100 0 0 -75z"/>
<path d="M870 1155 l0 -25 -25 0 -25 0 0 -25 0 -25 -25 0 -25 0 0 -80 0 -80
25 0 25 0 0 80 0 80 25 0 25 0 0 25 0 25 50 0 50 0 0 25 0 25 -50 0 -50 0 0
-25z"/>
<path d="M1180 795 l0 -25 -80 0 -80 0 0 -25 0 -25 105 0 105 0 0 -25 0 -25
-50 0 -50 0 0 -30 0 -30 -55 0 -55 0 0 -25 0 -25 80 0 80 0 0 25 0 25 25 0 25
0 0 30 0 30 25 0 25 0 0 75 0 75 -50 0 -50 0 0 -25z"/>
<path d="M200 745 l0 -25 -25 0 -25 0 0 -25 0 -25 25 0 25 0 0 25 0 25 55 0
55 0 0 25 0 25 -55 0 -55 0 0 -25z"/>
<path d="M50 640 l0 -30 -25 0 -25 0 0 -25 0 -25 25 0 25 0 0 -25 0 -25 -25 0
-25 0 0 -255 0 -255 640 0 640 0 0 255 0 255 -540 0 -540 0 0 25 0 25 105 0
105 0 0 25 0 25 -105 0 -105 0 0 -25 0 -25 -75 0 -75 0 0 25 0 25 25 0 25 0 0
30 0 30 -25 0 -25 0 0 -30z"/>
<path d="M460 585 l0 -25 255 0 255 0 0 25 0 25 -255 0 -255 0 0 -25z"/>
</g>
</svg>
