<?xml version="1.0" standalone="no"?>
<!DOCTYPE svg PUBLIC "-//W3C//DTD SVG 20010904//EN"
 "http://www.w3.org/TR/2001/REC-SVG-20010904/DTD/svg10.dtd">
<svg version="1.0" xmlns="http://www.w3.org/2000/svg"
 width="468pt" height="468pt" viewBox="0 0 468 468"
 preserveAspectRatio="xMidYMid meet">
<metadata>
Created by potrace 1.8, written by Peter Selinger 2001-2007
</metadata>
<g transform="translate(0,468) scale(0.365625,-0.365625)"
fill="#000000" stroke="none">
<path d="M50 1255 l0 -25 -25 0 -25 0 0 -30 0 -30 25 0 25 0 0 30 0 30 30 0
30 0 0 -30 0 -30 25 0 25 0 0 30 0 30 -25 0 -25 0 0 25 0 25 -30 0 -30 0 0
-25z"/>
<path d="M270 1255 l0 -25 25 0 25 0 0 25 0 25 -25 0 -25 0 0 -25z"/>
<path d="M690 1255 l0 -25 30 0 30 0 0 25 0 25 -30 0 -30 0 0 -25z"/>
<path d="M800 1255 l0 -25 25 0 25 0 0 -30 0 -30 30 0 30 0 0 30 0 30 -30 0
-30 0 0 25 0 25 -25 0 -25 0 0 -25z"/>
<path d="M480 1200 l0 -30 -25 0 -25 0 0 -25 0 -25 25 0 25 0 0 25 0 25 25 0
25 0 0 -25 0 -25 30 0 30 0 0 25 0 25 -30 0 -30 0 0 30 0 30 -25 0 -25 0 0
-30z"/>
<path d="M690 1145 l0 -25 30 0 30 0 0 25 0 25 -30 0 -30 0 0 -25z"/>
<path d="M1170 1145 l0 -25 30 0 30 0 0 25 0 25 -30 0 -30 0 0 -25z"/>
<path d="M0 1095 l0 -25 25 0 25 0 0 -30 0 -30 55 0 55 0 0 30 0 30 25 0 25 0
0 -55 0 -55 30 0 30 0 0 -25 0 -25 -30 0 -30 0 0 -55 0 -55 30 0 30 0 0 25 0
25 25 0 25 0 0 -25 0 -25 25 0 25 0 0 25 0 25 -25 0 -25 0 0 80 0 80 -25 0
-25 0 0 30 0 30 -30 0 -30 0 0 25 0 25 -50 0 -50 0 0 -25 0 -25 -30 0 -30 0 0
25 0 25 -25 0 -25 0 0 -25z"/>
<path d="M960 1015 l0 -55 -25 0 -25 0 0 -80 0 -80 80 0 80 0 0 25 0 25 25 0
25 0 0 -25 0 -25 25 0 25 0 0 25 0 25 30 0 30 0 0 30 0 30 25 0 25 0 0 25 0
25 -25 0 -25 0 0 -25 0 -25 -30 0 -30 0 0 -30 0 -30 -25 0 -25 0 0 30 0 30
-25 0 -25 0 0 -30 0 -30 -55 0 -55 0 0 30 0 30 25 0 25 0 0 25 0 25 80 0 80 0
0 25 0 25 -80 0 -80 0 0 30 0 30 -25 0 -25 0 0 -55z"/>
<path d="M480 985 l0 -25 25 0 25 0 0 25 0 25 -25 0 -25 0 0 -25z"/>
<path d="M640 985 l0 -25 -25 0 -25 0 0 -25 0 -25 25 0 25 0 0 25 0 25 25 0
25 0 0 -25 0 -25 30 0 30 0 0 25 0 25 -30 0 -30 0 0 25 0 25 -25 0 -25 0 0
-25z"/>
<path d="M0 935 l0 -25 25 0 25 0 0 -30 0 -30 55 0 55 0 0 30 0 30 -25 0 -25
0 0 25 0 25 -55 0 -55 0 0 -25z"/>
<path d="M750 825 l0 -25 25 0 25 0 0 25 0 25 -25 0 -25 0 0 -25z"/>
<path d="M0 720 l0 -30 25 0 25 0 0 30 0 30 -25 0 -25 0 0 -30z"/>
<path d="M590 720 l0 -30 -55 0 -55 0 0 -50 0 -50 -25 0 -25 0 0 25 0 25 -30
0 -30 0 0 -25 0 -25 30 0 30 0 0 -30 0 -30 25 0 25 0 0 -50 0 -50 25 0 25 0 0
50 0 50 -25 0 -25 0 0 30 0 30 25 0 25 0 0 25 0 25 55 0 55 0 0 -55 0 -55 55
0 55 0 0 55 0 55 -30 0 -30 0 0 25 0 25 -25 0 -25 0 0 30 0 30 -25 0 -25 0 0
-30z"/>
<path d="M910 720 l0 -30 25 0 25 0 0 30 0 30 -25 0 -25 0 0 -30z"/>
<path d="M270 665 l0 -25 25 0 25 0 0 25 0 25 -25 0 -25 0 0 -25z"/>
<path d="M910 560 l0 -30 -30 0 -30 0 0 -25 0 -25 30 0 30 0 0 -80 0 -80 25 0
25 0 0 105 0 105 55 0 55 0 0 30 0 30 -80 0 -80 0 0 -30z"/>
<path d="M1120 535 l0 -55 -25 0 -25 0 0 -25 0 -25 -30 0 -30 0 0 -30 0 -30
30 0 30 0 0 30 0 30 25 0 25 0 0 -30 0 -30 25 0 25 0 0 55 0 55 30 0 30 0 0
25 0 25 -30 0 -30 0 0 30 0 30 -25 0 -25 0 0 -55z"/>
<path d="M50 455 l0 -25 30 0 30 0 0 25 0 25 -30 0 -30 0 0 -25z"/>
<path d="M270 455 l0 -25 -30 0 -30 0 0 -30 0 -30 30 0 30 0 0 30 0 30 25 0
25 0 0 -30 0 -30 55 0 55 0 0 30 0 30 -30 0 -30 0 0 25 0 25 -50 0 -50 0 0
-25z"/>
<path d="M590 455 l0 -25 25 0 25 0 0 25 0 25 -25 0 -25 0 0 -25z"/>
<path d="M160 240 l0 -30 25 0 25 0 0 30 0 30 -25 0 -25 0 0 -30z"/>
<path d="M320 240 l0 -30 -25 0 -25 0 0 -50 0 -50 25 0 25 0 0 -30 0 -30 25 0
25 0 0 80 0 80 30 0 30 0 0 -25 0 -25 25 0 25 0 0 55 0 55 -80 0 -80 0 0 -30z"/>
<path d="M960 240 l0 -30 -25 0 -25 0 0 -25 0 -25 25 0 25 0 0 25 0 25 25 0
25 0 0 -80 0 -80 -25 0 -25 0 0 -25 0 -25 25 0 25 0 0 25 0 25 30 0 30 0 0
-25 0 -25 25 0 25 0 0 105 0 105 25 0 25 0 0 -50 0 -50 55 0 55 0 0 25 0 25
-25 0 -25 0 0 55 0 55 -80 0 -80 0 0 -30 0 -30 -30 0 -30 0 0 30 0 30 -25 0
-25 0 0 -30z"/>
<path d="M750 185 l0 -25 25 0 25 0 0 25 0 25 -25 0 -25 0 0 -25z"/>
<path d="M0 80 l0 -30 25 0 25 0 0 -25 0 -25 30 0 30 0 0 25 0 25 -30 0 -30 0
0 30 0 30 -25 0 -25 0 0 -30z"/>
<path d="M210 25 l0 -25 30 0 30 0 0 25 0 25 -30 0 -30 0 0 -25z"/>
<path d="M750 25 l0 -25 25 0 25 0 0 25 0 25 -25 0 -25 0 0 -25z"/>
<path d="M1230 25 l0 -25 25 0 25 0 0 25 0 25 -25 0 -25 0 0 -25z"/>
</g>
</svg>
