<?xml version="1.0" standalone="no"?>
<!DOCTYPE svg PUBLIC "-//W3C//DTD SVG 20010904//EN"
 "http://www.w3.org/TR/2001/REC-SVG-20010904/DTD/svg10.dtd">
<svg version="1.0" xmlns="http://www.w3.org/2000/svg"
 width="468pt" height="468pt" viewBox="0 0 468 468"
 preserveAspectRatio="xMidYMid meet">
<metadata>
Created by potrace 1.8, written by Peter Selinger 2001-2007
</metadata>
<g transform="translate(0,468) scale(0.365625,-0.365625)"
fill="#000000" stroke="none">
<path d="M150 1249 l0 -30 -14 -15 -15 -14 -6 0 -7 0 -39 -39 -39 -39 0 -10 0
-10 -12 -4 -13 -5 0 -57 0 -57 11 -7 11 -7 7 -22 7 -23 25 -6 24 -6 0 -8 0 -8
30 -7 30 -7 0 -164 0 -164 -75 0 -75 0 0 -270 0 -270 640 0 640 0 0 270 0 270
-30 0 -30 0 0 120 0 120 -60 0 -60 0 0 44 0 43 40 7 40 6 0 10 0 10 13 0 13 0
17 20 17 20 0 10 0 9 18 10 17 10 0 63 0 63 -38 37 -37 38 -25 6 -25 6 0 8 0
8 -25 6 -25 6 0 30 0 30 -15 0 -15 0 0 -105 0 -105 -40 0 -40 0 0 105 0 105
-90 0 -90 0 0 -250 0 -250 -45 0 -45 0 0 250 0 250 -95 0 -95 0 0 -105 0 -105
-45 0 -45 0 0 105 0 105 -90 0 -90 0 0 -370 0 -370 -40 0 -40 0 0 370 0 370
-15 0 -15 0 0 -31z m454 -141 l13 -12 -13 -13 -13 -13 -15 0 -16 0 0 25 0 25
15 0 16 0 13 -12z m356 -13 l0 -25 -24 0 -24 0 -5 13 -4 12 5 13 4 12 24 0 24
0 0 -25z m-360 -50 l0 -14 -72 -4 -73 -3 88 -2 87 -2 0 -15 0 -15 -85 0 -85 0
0 -10 0 -10 80 0 80 0 0 -15 0 -15 -82 -2 -83 -2 73 -3 72 -4 0 -15 0 -16
-122 4 -123 3 -22 20 -23 19 0 39 0 39 30 11 30 11 0 8 0 8 115 0 115 0 0 -15z
m520 7 l0 -7 30 -13 30 -14 0 -34 0 -34 -22 -22 -23 -23 -127 -3 -128 -4 0 16
0 15 63 4 62 3 -77 2 -78 2 0 15 0 15 75 0 75 0 0 10 0 10 -75 0 -75 0 0 15 0
15 78 2 77 2 -62 3 -63 4 0 14 0 15 120 0 120 0 0 -8z m-590 -342 l0 -170 -45
0 -45 0 0 170 0 170 45 0 45 0 0 -170z m540 120 l0 -50 -40 0 -40 0 0 50 0 50
40 0 40 0 0 -50z m-110 -5 l0 -45 -30 0 -30 0 0 45 0 45 30 0 30 0 0 -45z
m230 -160 l0 -105 -240 0 -240 0 0 105 0 105 240 0 240 0 0 -105z"/>
<path d="M860 743 l-15 -6 -12 -13 -13 -13 0 -10 0 -11 25 -6 25 -6 0 -14 0
-14 -9 0 -9 0 -7 -30 -7 -30 -9 0 -9 0 0 -10 0 -10 70 0 70 0 0 10 0 10 -9 0
-9 0 -7 30 -7 30 -9 0 -9 0 0 14 0 14 25 6 25 6 0 11 0 10 -14 15 -15 14 -28
5 -28 4 -15 -6z"/>
</g>
</svg>
