<?xml version="1.0" standalone="no"?>
<!DOCTYPE svg PUBLIC "-//W3C//DTD SVG 20010904//EN"
 "http://www.w3.org/TR/2001/REC-SVG-20010904/DTD/svg10.dtd">
<svg version="1.0" xmlns="http://www.w3.org/2000/svg"
 width="468pt" height="468pt" viewBox="0 0 468 468"
 preserveAspectRatio="xMidYMid meet">
<metadata>
Created by potrace 1.8, written by Peter Selinger 2001-2007
</metadata>
<g transform="translate(0,468) scale(0.365625,-0.365625)"
fill="#000000" stroke="none">
<path d="M80 860 l0 -340 20 0 20 0 0 -20 0 -20 20 0 20 0 0 -200 0 -200 20 0
20 0 0 -20 0 -20 520 0 520 0 0 380 0 380 -20 0 -20 0 0 20 0 20 -20 0 -20 0
0 160 0 160 -20 0 -20 0 0 20 0 20 -520 0 -520 0 0 -340z m1000 140 l0 -160
-460 0 -460 0 0 -140 0 -140 -20 0 -20 0 0 300 0 300 480 0 480 0 0 -160z m80
-540 l0 -340 -480 0 -480 0 0 40 0 40 60 0 60 0 0 20 0 20 -60 0 -60 0 0 60 0
60 40 0 40 0 0 20 0 20 -40 0 -40 0 0 20 0 20 40 0 40 0 0 100 0 100 -20 0
-20 0 0 -40 0 -40 -20 0 -20 0 0 120 0 120 480 0 480 0 0 -340z"/>
<path d="M200 1100 l0 -20 20 0 20 0 0 20 0 20 -20 0 -20 0 0 -20z"/>
<path d="M320 1100 l0 -20 20 0 20 0 0 20 0 20 -20 0 -20 0 0 -20z"/>
<path d="M440 1100 l0 -20 20 0 20 0 0 20 0 20 -20 0 -20 0 0 -20z"/>
<path d="M560 1100 l0 -20 80 0 80 0 0 20 0 20 -80 0 -80 0 0 -20z"/>
<path d="M760 1100 l0 -20 80 0 80 0 0 20 0 20 -80 0 -80 0 0 -20z"/>
<path d="M160 1020 l0 -20 40 0 40 0 0 20 0 20 -40 0 -40 0 0 -20z"/>
<path d="M320 1020 l0 -20 20 0 20 0 0 20 0 20 -20 0 -20 0 0 -20z"/>
<path d="M440 1020 l0 -20 40 0 40 0 0 20 0 20 -40 0 -40 0 0 -20z"/>
<path d="M560 1020 l0 -20 20 0 20 0 0 20 0 20 -20 0 -20 0 0 -20z"/>
<path d="M640 1020 l0 -20 40 0 40 0 0 20 0 20 -40 0 -40 0 0 -20z"/>
<path d="M800 1020 l0 -20 20 0 20 0 0 20 0 20 -20 0 -20 0 0 -20z"/>
<path d="M920 1020 l0 -20 20 0 20 0 0 20 0 20 -20 0 -20 0 0 -20z"/>
<path d="M160 940 l0 -20 40 0 40 0 0 20 0 20 -40 0 -40 0 0 -20z"/>
<path d="M320 940 l0 -20 40 0 40 0 0 20 0 20 -40 0 -40 0 0 -20z"/>
<path d="M480 940 l0 -20 60 0 60 0 0 20 0 20 -60 0 -60 0 0 -20z"/>
<path d="M680 940 l0 -20 60 0 60 0 0 20 0 20 -60 0 -60 0 0 -20z"/>
<path d="M880 940 l0 -20 60 0 60 0 0 20 0 20 -60 0 -60 0 0 -20z"/>
<path d="M680 720 l0 -40 -20 0 -20 0 0 -20 0 -20 20 0 20 0 0 -20 0 -20 -20
0 -20 0 0 -20 0 -20 20 0 20 0 0 -40 0 -40 -20 0 -20 0 0 -20 0 -20 20 0 20 0
0 -20 0 -20 20 0 20 0 0 20 0 20 40 0 40 0 0 -20 0 -20 20 0 20 0 0 20 0 20
40 0 40 0 0 -20 0 -20 20 0 20 0 0 20 0 20 40 0 40 0 0 -20 0 -20 20 0 20 0 0
20 0 20 20 0 20 0 0 20 0 20 -200 0 -200 0 0 140 0 140 -20 0 -20 0 0 -40z"/>
<path d="M1040 720 l0 -40 -20 0 -20 0 0 20 0 20 -20 0 -20 0 0 -20 0 -20 -40
0 -40 0 0 -20 0 -20 -60 0 -60 0 0 -20 0 -20 60 0 60 0 0 -20 0 -20 -60 0 -60
0 0 -20 0 -20 60 0 60 0 0 20 0 20 20 0 20 0 0 -20 0 -20 40 0 40 0 0 20 0 20
20 0 20 0 0 20 0 20 40 0 40 0 0 20 0 20 -40 0 -40 0 0 20 0 20 20 0 20 0 0
20 0 20 20 0 20 0 0 20 0 20 -40 0 -40 0 0 -40z m-40 -60 l0 -20 20 0 20 0 0
-20 0 -20 -20 0 -20 0 0 -20 0 -20 -40 0 -40 0 0 20 0 20 -20 0 -20 0 0 20 0
20 40 0 40 0 0 20 0 20 20 0 20 0 0 -20z"/>
<path d="M560 680 l0 -40 -20 0 -20 0 0 -100 0 -100 40 0 40 0 0 140 0 140
-20 0 -20 0 0 -40z"/>
<path d="M400 620 l0 -60 -20 0 -20 0 0 -60 0 -60 40 0 40 0 0 120 0 120 -20
0 -20 0 0 -60z"/>
<path d="M360 380 l0 -20 40 0 40 0 0 20 0 20 -40 0 -40 0 0 -20z"/>
<path d="M520 380 l0 -20 40 0 40 0 0 20 0 20 -40 0 -40 0 0 -20z"/>
<path d="M400 220 l0 -20 60 0 60 0 0 20 0 20 -60 0 -60 0 0 -20z"/>
<path d="M560 220 l0 -20 40 0 40 0 0 20 0 20 -40 0 -40 0 0 -20z"/>
<path d="M760 220 l0 -20 60 0 60 0 0 20 0 20 -60 0 -60 0 0 -20z"/>
<path d="M920 220 l0 -20 20 0 20 0 0 20 0 20 -20 0 -20 0 0 -20z"/>
<path d="M1040 220 l0 -20 20 0 20 0 0 20 0 20 -20 0 -20 0 0 -20z"/>
</g>
</svg>
