<?xml version="1.0" standalone="no"?>
<!DOCTYPE svg PUBLIC "-//W3C//DTD SVG 20010904//EN"
 "http://www.w3.org/TR/2001/REC-SVG-20010904/DTD/svg10.dtd">
<svg version="1.0" xmlns="http://www.w3.org/2000/svg"
 width="468pt" height="468pt" viewBox="0 0 468 468"
 preserveAspectRatio="xMidYMid meet">
<metadata>
Created by potrace 1.8, written by Peter Selinger 2001-2007
</metadata>
<g transform="translate(0,468) scale(0.365625,-0.365625)"
fill="#000000" stroke="none">
<path d="M530 1189 l0 -10 -14 -15 -15 -14 -10 0 -11 0 0 -15 0 -15 -15 0 -15
0 0 -11 0 -10 -14 -15 -15 -14 -10 0 -11 0 0 -30 0 -30 -15 0 -15 0 0 -25 0
-25 -10 0 -10 0 0 -25 0 -25 -15 0 -15 0 0 -30 0 -30 -15 0 -15 0 0 -25 0 -25
-10 0 -10 0 0 -40 0 -40 10 0 10 0 0 -15 0 -15 15 0 15 0 0 -10 0 -10 15 0 15
0 0 -40 0 -40 -15 0 -15 0 0 -70 0 -70 -15 0 -15 0 0 -50 0 -50 -10 0 -10 0 0
-15 0 -15 -15 0 -15 0 0 -55 0 -55 -15 0 -15 0 0 -65 0 -65 -10 0 -10 0 0 -40
0 -40 65 0 65 0 0 25 0 25 15 0 15 0 0 80 0 80 25 0 25 0 0 30 0 30 -15 0 -15
0 0 -15 0 -15 -10 0 -10 0 0 11 0 10 14 15 15 14 10 0 11 0 0 15 0 15 40 0 40
0 0 15 0 15 25 0 25 0 0 10 0 10 110 0 110 0 0 15 0 15 10 0 10 0 0 -15 0 -15
40 0 40 0 0 -10 0 -10 -10 0 -10 0 0 -15 0 -15 40 0 40 0 0 -11 0 -10 14 -15
15 -14 10 0 11 0 0 10 0 10 15 0 15 0 0 -36 0 -35 14 -15 15 -14 10 0 11 0 0
-15 0 -15 -15 0 -15 0 0 -15 0 -15 15 0 15 0 0 15 0 15 15 0 15 0 0 -25 0 -25
10 0 10 0 0 -30 0 -30 15 0 15 0 0 -10 0 -10 15 0 15 0 0 -15 0 -15 25 0 25 0
0 25 0 25 -15 0 -15 0 0 15 0 15 -10 0 -10 0 0 25 0 25 -15 0 -15 0 0 15 0 15
-15 0 -15 0 0 25 0 25 -10 0 -10 0 0 40 0 40 -15 0 -15 0 0 30 0 30 -15 0 -15
0 0 25 0 25 -10 0 -10 0 0 95 0 95 -26 0 -25 0 -15 14 -14 15 0 25 0 26 -15 0
-15 0 0 25 0 25 25 0 25 0 0 15 0 15 -10 0 -10 0 0 25 0 25 -15 0 -15 0 0 15
0 15 -25 0 -25 0 0 10 0 10 -15 0 -15 0 0 15 0 15 -15 0 -15 0 0 11 0 10 -14
15 -15 14 -10 0 -11 0 0 15 0 15 -25 0 -25 0 0 -11 0 -10 14 -15 15 -14 10 0
11 0 0 -15 0 -15 15 0 15 0 0 -11 0 -10 14 -15 15 -14 10 0 11 0 0 -15 0 -15
15 0 15 0 0 -15 0 -15 10 0 10 0 0 15 0 15 15 0 15 0 0 -15 0 -15 -14 0 -14 0
-6 -12 -6 -13 -6 13 -6 12 -14 0 -14 0 0 -10 0 -10 -15 0 -15 0 0 -15 0 -15
-10 0 -10 0 0 15 0 15 -15 0 -15 0 0 -15 0 -15 -15 0 -15 0 0 -15 0 -15 -10 0
-10 0 0 -10 0 -10 25 0 25 0 0 10 0 10 40 0 40 0 0 15 0 15 25 0 25 0 0 -40 0
-40 -10 0 -10 0 0 -15 0 -15 -15 0 -15 0 0 -10 0 -10 -15 0 -15 0 0 -15 0 -15
-10 0 -10 0 0 -15 0 -15 -110 0 -110 0 0 15 0 15 -50 0 -50 0 0 15 0 15 -30 0
-30 0 0 40 0 40 -10 0 -10 0 0 10 0 10 40 0 40 0 0 -10 0 -10 65 0 65 0 0 -15
0 -15 55 0 55 0 0 15 0 15 -15 0 -15 0 0 10 0 10 -14 0 -14 0 -6 -12 -6 -13
-6 13 -6 12 -14 0 -14 0 0 15 0 15 -15 0 -15 0 0 -15 0 -15 -10 0 -10 0 0 15
0 15 -15 0 -15 0 0 -15 0 -15 -15 0 -15 0 0 15 0 15 -10 0 -10 0 0 15 0 15
-15 0 -15 0 0 -15 0 -15 -15 0 -15 0 0 15 0 15 15 0 15 0 0 10 0 10 -15 0 -15
0 0 15 0 15 15 0 15 0 0 -15 0 -15 15 0 15 0 0 15 0 15 10 0 10 0 0 15 0 15
15 0 15 0 0 10 0 10 15 0 15 0 0 15 0 15 -15 0 -15 0 0 -15 0 -15 -15 0 -15 0
0 15 0 15 15 0 15 0 0 15 0 15 15 0 15 0 0 -15 0 -15 10 0 10 0 0 -15 0 -15
15 0 15 0 0 -10 0 -10 -15 0 -15 0 0 -15 0 -15 15 0 15 0 0 -15 0 -15 -11 0
-10 0 -15 -14 -14 -15 0 -10 0 -11 10 0 10 0 0 15 0 15 15 0 15 0 0 -15 0 -15
15 0 15 0 0 15 0 15 -15 0 -15 0 0 10 0 10 15 0 15 0 0 15 0 15 10 0 10 0 0
-15 0 -15 15 0 15 0 0 -10 0 -10 -15 0 -15 0 0 -15 0 -15 -10 0 -10 0 0 -15 0
-15 10 0 10 0 0 15 0 15 15 0 15 0 0 -15 0 -15 15 0 15 0 0 15 0 15 -15 0 -15
0 0 15 0 15 15 0 15 0 0 -15 0 -15 10 0 10 0 0 11 0 10 -14 15 -15 14 -10 0
-11 0 0 15 0 15 15 0 15 0 0 15 0 15 -15 0 -15 0 0 10 0 10 15 0 15 0 0 15 0
15 10 0 10 0 0 11 0 10 -14 15 -15 14 -10 0 -11 0 0 -10 0 -10 -15 0 -15 0 0
-15 0 -15 -10 0 -10 0 0 15 0 15 -15 0 -15 0 0 10 0 10 -15 0 -15 0 0 15 0 15
15 0 15 0 0 -15 0 -15 15 0 15 0 0 15 0 15 10 0 10 0 0 -15 0 -15 15 0 15 0 0
15 0 15 15 0 15 0 0 25 0 25 -15 0 -15 0 0 -10 0 -10 -40 0 -40 0 0 10 0 10
-15 0 -15 0 0 -25 0 -25 -10 0 -10 0 0 -15 0 -15 -40 0 -40 0 0 15 0 15 -15 0
-15 0 0 15 0 15 15 0 15 0 0 36 0 35 14 15 15 14 10 0 11 0 0 15 0 15 15 0 15
0 0 11 0 10 14 15 15 14 25 0 26 0 0 -10 0 -10 25 0 25 0 0 10 0 10 15 0 15 0
0 -10 0 -10 25 0 25 0 0 -30 0 -30 11 0 10 0 15 -14 14 -15 0 -25 0 -26 15 0
15 0 0 -25 0 -25 -25 0 -25 0 0 -15 0 -15 36 0 35 0 15 -14 14 -15 0 -10 0
-11 15 0 15 0 0 -15 0 -15 11 0 10 0 15 -14 14 -15 0 -35 0 -36 15 0 15 0 0
40 0 40 -11 0 -10 0 -15 14 -14 15 0 25 0 26 -15 0 -15 0 0 10 0 10 -15 0 -15
0 0 26 0 25 -14 15 -15 14 -10 0 -11 0 0 30 0 30 -15 0 -15 0 0 25 0 25 -10 0
-10 0 0 15 0 15 -15 0 -15 0 0 10 0 10 -25 0 -25 0 0 15 0 15 -70 0 -70 0 0
-11z m-94 -273 l14 -15 0 -10 0 -11 -10 0 -10 0 0 -14 0 -14 13 -6 12 -6 -12
-6 -13 -6 0 -14 0 -14 -15 0 -15 0 0 15 0 15 15 0 15 0 0 10 0 10 -15 0 -15 0
0 -10 0 -10 -15 0 -15 0 0 -15 0 -15 -10 0 -10 0 0 -55 0 -55 -15 0 -15 0 0
15 0 15 -15 0 -15 0 0 40 0 40 15 0 15 0 0 25 0 25 15 0 15 0 0 25 0 26 13 14
12 14 23 1 23 0 15 -14z m94 4 l0 -10 15 0 15 0 0 -15 0 -15 15 0 15 0 0 -15
0 -15 -15 0 -15 0 0 15 0 15 -15 0 -15 0 0 15 0 15 -10 0 -10 0 0 10 0 10 10
0 10 0 0 -10z m140 -25 l0 -15 -15 0 -15 0 0 -15 0 -15 -11 0 -10 0 -15 -14
-14 -15 0 -10 0 -11 -15 0 -15 0 0 15 0 15 11 0 10 0 15 14 14 15 0 10 0 11
15 0 15 0 0 15 0 15 15 0 15 0 0 -15z m-30 -80 l0 -15 -15 0 -15 0 0 15 0 15
15 0 15 0 0 -15z m240 -215 l0 -40 -15 0 -15 0 0 -15 0 -15 15 0 15 0 0 15 0
15 40 0 40 0 0 -65 0 -65 -40 0 -40 0 0 10 0 10 -55 0 -55 0 0 15 0 15 -10 0
-10 0 0 -15 0 -15 -40 0 -40 0 0 30 0 30 39 0 39 0 6 13 6 12 6 -12 6 -13 29
0 29 0 0 10 0 10 -30 0 -30 0 0 15 0 15 15 0 15 0 0 15 0 15 11 0 10 0 15 14
14 15 0 10 0 11 15 0 15 0 0 -40z m-510 -40 l0 -30 15 0 15 0 0 15 0 15 15 0
15 0 0 -15 0 -15 50 0 50 0 0 -10 0 -10 55 0 55 0 0 -30 0 -30 -91 0 -90 0
-15 -14 -14 -15 0 -10 0 -11 -30 0 -30 0 0 55 0 55 -10 0 -10 0 0 40 0 40 10
0 10 0 0 -30z"/>
<path d="M590 920 l0 -10 10 0 10 0 0 10 0 10 -10 0 -10 0 0 -10z"/>
<path d="M690 866 l0 -14 -12 -6 -13 -6 13 -6 12 -6 0 -14 0 -14 -10 0 -10 0
0 -11 0 -10 14 -15 15 -14 10 0 11 0 0 10 0 10 14 0 14 0 6 -12 6 -13 6 13 6
12 14 0 14 0 0 15 0 15 -15 0 -15 0 0 11 0 10 -14 15 -15 14 -10 0 -11 0 0 15
0 15 -15 0 -15 0 0 -14z m30 -26 l0 -10 15 0 15 0 0 -15 0 -15 10 0 10 0 0
-15 0 -15 -10 0 -10 0 0 15 0 15 -15 0 -15 0 0 15 0 15 -15 0 -15 0 0 10 0 10
15 0 15 0 0 -10z"/>
<path d="M510 840 l0 -10 -15 0 -15 0 0 -15 0 -15 -15 0 -15 0 0 -14 0 -14
-12 -6 -13 -6 13 -6 12 -6 0 -14 0 -14 15 0 15 0 0 15 0 15 -15 0 -15 0 0 10
0 10 15 0 15 0 0 -10 0 -10 11 0 10 0 15 14 14 15 0 10 0 11 -10 0 -10 0 0 15
0 15 10 0 10 0 0 10 0 10 -10 0 -10 0 0 -10z"/>
<path d="M590 760 l0 -10 10 0 10 0 0 10 0 10 -10 0 -10 0 0 -10z"/>
<path d="M1010 95 l0 -15 15 0 15 0 0 15 0 15 -15 0 -15 0 0 -15z"/>
</g>
</svg>
