<?xml version="1.0" standalone="no"?>
<!DOCTYPE svg PUBLIC "-//W3C//DTD SVG 20010904//EN"
 "http://www.w3.org/TR/2001/REC-SVG-20010904/DTD/svg10.dtd">
<svg version="1.0" xmlns="http://www.w3.org/2000/svg"
 width="468pt" height="468pt" viewBox="0 0 468 468"
 preserveAspectRatio="xMidYMid meet">
<metadata>
Created by potrace 1.8, written by Peter Selinger 2001-2007
</metadata>
<g transform="translate(0,468) scale(0.365625,-0.365625)"
fill="#000000" stroke="none">
<path d="M260 1215 l0 -65 -65 0 -65 0 0 -65 0 -65 -65 0 -65 0 0 -320 0 -320
65 0 65 0 0 -60 0 -60 65 0 65 0 0 -65 0 -65 60 0 60 0 0 -65 0 -65 260 0 260
0 0 65 0 65 60 0 60 0 0 65 0 65 65 0 65 0 0 60 0 60 65 0 65 0 0 320 0 320
-65 0 -65 0 0 65 0 65 -65 0 -65 0 0 65 0 65 -380 0 -380 0 0 -65z m640 -130
l0 -65 60 0 60 0 0 -60 0 -60 65 0 65 0 0 -65 0 -65 -510 0 -510 0 0 65 0 65
65 0 65 0 0 60 0 60 60 0 60 0 0 65 0 65 260 0 260 0 0 -65z m250 -510 l0 -65
-65 0 -65 0 0 -125 0 -125 -125 0 -125 0 0 -65 0 -65 -130 0 -130 0 0 65 0 65
-125 0 -125 0 0 125 0 125 -65 0 -65 0 0 65 0 65 510 0 510 0 0 -65z"/>
</g>
</svg>
