<?xml version="1.0" standalone="no"?>
<!DOCTYPE svg PUBLIC "-//W3C//DTD SVG 20010904//EN"
 "http://www.w3.org/TR/2001/REC-SVG-20010904/DTD/svg10.dtd">
<svg version="1.0" xmlns="http://www.w3.org/2000/svg"
 width="468pt" height="468pt" viewBox="0 0 468 468"
 preserveAspectRatio="xMidYMid meet">
<metadata>
Created by potrace 1.8, written by Peter Selinger 2001-2007
</metadata>
<g transform="translate(0,468) scale(0.365625,-0.365625)"
fill="#000000" stroke="none">
<path d="M210 1260 l0 -20 -40 0 -40 0 0 -25 0 -25 -20 0 -20 0 0 -20 0 -20
-25 0 -25 0 0 -20 0 -20 -20 0 -20 0 0 -65 0 -65 20 0 20 0 0 -20 0 -20 25 0
25 0 0 -20 0 -20 20 0 20 0 0 -25 0 -25 20 0 20 0 0 -20 0 -20 20 0 20 0 0
-20 0 -20 -20 0 -20 0 0 -20 0 -20 -20 0 -20 0 0 -25 0 -25 40 0 40 0 0 45 0
45 25 0 25 0 0 -110 0 -110 -25 0 -25 0 0 -20 0 -20 45 0 45 0 0 65 0 65 20 0
20 0 0 -65 0 -65 45 0 45 0 0 20 0 20 -25 0 -25 0 0 110 0 110 25 0 25 0 0
-45 0 -45 40 0 40 0 0 25 0 25 -20 0 -20 0 0 20 0 20 -20 0 -20 0 0 20 0 20
20 0 20 0 0 20 0 20 20 0 20 0 0 25 0 25 20 0 20 0 0 20 0 20 25 0 25 0 0 20
0 20 20 0 20 0 0 65 0 65 -20 0 -20 0 0 20 0 20 -25 0 -25 0 0 20 0 20 -20 0
-20 0 0 25 0 25 -40 0 -40 0 0 20 0 20 -110 0 -110 0 0 -20z m50 -105 l0 -85
-25 0 -25 0 0 85 0 85 25 0 25 0 0 -85z m80 0 l0 -85 -20 0 -20 0 0 85 0 85
20 0 20 0 0 -85z m90 0 l0 -85 -25 0 -25 0 0 85 0 85 25 0 25 0 0 -85z m-260
-25 l0 -60 -20 0 -20 0 0 60 0 60 20 0 20 0 0 -60z m340 0 l0 -60 -20 0 -20 0
0 60 0 60 20 0 20 0 0 -60z m-420 -40 l0 -20 -25 0 -25 0 0 20 0 20 25 0 25 0
0 -20z m510 0 l0 -20 -25 0 -25 0 0 20 0 20 25 0 25 0 0 -20z m0 -90 l0 -20
-25 0 -25 0 0 -20 0 -20 -20 0 -20 0 0 -20 0 -20 -20 0 -20 0 0 -25 0 -25 -20
0 -20 0 0 -20 0 -20 -45 0 -45 0 0 20 0 20 20 0 20 0 0 45 0 45 -20 0 -20 0 0
20 0 20 -20 0 -20 0 0 -20 0 -20 -20 0 -20 0 0 -45 0 -45 20 0 20 0 0 -20 0
-20 -45 0 -45 0 0 20 0 20 -20 0 -20 0 0 25 0 25 -20 0 -20 0 0 20 0 20 -20 0
-20 0 0 20 0 20 -25 0 -25 0 0 20 0 20 280 0 280 0 0 -20z"/>
<path d="M850 960 l0 -20 -40 0 -40 0 0 -20 0 -20 -20 0 -20 0 0 -25 0 -25
-25 0 -25 0 0 -20 0 -20 -20 0 -20 0 0 -65 0 -65 20 0 20 0 0 -20 0 -20 25 0
25 0 0 -20 0 -20 20 0 20 0 0 -25 0 -25 20 0 20 0 0 -20 0 -20 20 0 20 0 0
-20 0 -20 -20 0 -20 0 0 -20 0 -20 -20 0 -20 0 0 -25 0 -25 40 0 40 0 0 45 0
45 25 0 25 0 0 -105 0 -105 -25 0 -25 0 0 -25 0 -25 -425 0 -425 0 0 -105 0
-105 640 0 640 0 0 105 0 105 -105 0 -105 0 0 25 0 25 -25 0 -25 0 0 105 0
105 25 0 25 0 0 -45 0 -45 40 0 40 0 0 25 0 25 -20 0 -20 0 0 20 0 20 -20 0
-20 0 0 20 0 20 20 0 20 0 0 20 0 20 20 0 20 0 0 25 0 25 20 0 20 0 0 20 0 20
25 0 25 0 0 20 0 20 20 0 20 0 0 65 0 65 -20 0 -20 0 0 20 0 20 -25 0 -25 0 0
25 0 25 -20 0 -20 0 0 20 0 20 -40 0 -40 0 0 20 0 20 -110 0 -110 0 0 -20z
m50 -105 l0 -85 -25 0 -25 0 0 85 0 85 25 0 25 0 0 -85z m80 0 l0 -85 -20 0
-20 0 0 85 0 85 20 0 20 0 0 -85z m90 0 l0 -85 -25 0 -25 0 0 85 0 85 25 0 25
0 0 -85z m-260 -20 l0 -65 -20 0 -20 0 0 65 0 65 20 0 20 0 0 -65z m340 0 l0
-65 -20 0 -20 0 0 65 0 65 20 0 20 0 0 -65z m-420 -45 l0 -20 -25 0 -25 0 0
20 0 20 25 0 25 0 0 -20z m510 0 l0 -20 -25 0 -25 0 0 20 0 20 25 0 25 0 0
-20z m0 -85 l0 -25 -25 0 -25 0 0 -20 0 -20 -20 0 -20 0 0 -20 0 -20 -20 0
-20 0 0 -25 0 -25 -20 0 -20 0 0 -20 0 -20 -45 0 -45 0 0 20 0 20 20 0 20 0 0
45 0 45 -20 0 -20 0 0 20 0 20 -20 0 -20 0 0 -20 0 -20 -20 0 -20 0 0 -45 0
-45 20 0 20 0 0 -20 0 -20 -45 0 -45 0 0 20 0 20 -20 0 -20 0 0 25 0 25 -20 0
-20 0 0 20 0 20 -20 0 -20 0 0 20 0 20 -25 0 -25 0 0 25 0 25 280 0 280 0 0
-25z m-260 -430 l0 -65 -20 0 -20 0 0 65 0 65 20 0 20 0 0 -65z"/>
</g>
</svg>
