<?xml version="1.0" standalone="no"?>
<!DOCTYPE svg PUBLIC "-//W3C//DTD SVG 20010904//EN"
 "http://www.w3.org/TR/2001/REC-SVG-20010904/DTD/svg10.dtd">
<svg version="1.0" xmlns="http://www.w3.org/2000/svg"
 width="468pt" height="468pt" viewBox="0 0 468 468"
 preserveAspectRatio="xMidYMid meet">
<metadata>
Created by potrace 1.8, written by Peter Selinger 2001-2007
</metadata>
<g transform="translate(0,468) scale(0.365625,-0.365625)"
fill="#000000" stroke="none">
<path d="M160 1095 l0 -25 25 0 25 0 0 25 0 25 -25 0 -25 0 0 -25z"/>
<path d="M270 1040 l0 -30 -30 0 -30 0 0 -50 0 -50 30 0 30 0 0 -55 0 -55 25
0 25 0 0 -80 0 -80 25 0 25 0 0 -80 0 -80 30 0 30 0 0 80 0 80 -30 0 -30 0 0
80 0 80 -25 0 -25 0 0 55 0 55 -25 0 -25 0 0 50 0 50 50 0 50 0 0 -25 0 -25
55 0 55 0 0 -25 0 -25 -25 0 -25 0 0 -30 0 -30 25 0 25 0 0 30 0 30 80 0 80 0
0 -30 0 -30 80 0 80 0 0 30 0 30 -80 0 -80 0 0 25 0 25 -80 0 -80 0 0 25 0 25
-55 0 -55 0 0 30 0 30 -50 0 -50 0 0 -30z"/>
<path d="M960 825 l0 -25 25 0 25 0 0 25 0 25 -25 0 -25 0 0 -25z"/>
<path d="M690 775 l0 -25 -50 0 -50 0 0 -30 0 -30 -30 0 -30 0 0 -50 0 -50
-25 0 -25 0 0 -80 0 -80 25 0 25 0 0 -55 0 -55 30 0 30 0 0 -25 0 -25 50 0 50
0 0 -30 0 -30 80 0 80 0 0 30 0 30 55 0 55 0 0 25 0 25 25 0 25 0 0 55 0 55
30 0 30 0 0 80 0 80 -30 0 -30 0 0 50 0 50 -25 0 -25 0 0 30 0 30 -55 0 -55 0
0 25 0 25 -80 0 -80 0 0 -25z m160 -55 l0 -30 30 0 30 0 0 -50 0 -50 25 0 25
0 0 -110 0 -110 -25 0 -25 0 0 -25 0 -25 -30 0 -30 0 0 -25 0 -25 -80 0 -80 0
0 25 0 25 -50 0 -50 0 0 55 0 55 -30 0 -30 0 0 80 0 80 30 0 30 0 0 50 0 50
50 0 50 0 0 30 0 30 80 0 80 0 0 -30z"/>
<path d="M800 505 l0 -25 -25 0 -25 0 0 -25 0 -25 25 0 25 0 0 -30 0 -30 25 0
25 0 0 30 0 30 30 0 30 0 0 50 0 50 -55 0 -55 0 0 -25z m50 -50 l0 -25 -25 0
-25 0 0 25 0 25 25 0 25 0 0 -25z"/>
<path d="M1070 720 l0 -30 25 0 25 0 0 30 0 30 -25 0 -25 0 0 -30z"/>
<path d="M1120 615 l0 -25 25 0 25 0 0 25 0 25 -25 0 -25 0 0 -25z"/>
<path d="M1120 455 l0 -25 25 0 25 0 0 25 0 25 -25 0 -25 0 0 -25z"/>
<path d="M430 295 l0 -25 25 0 25 0 0 25 0 25 -25 0 -25 0 0 -25z"/>
<path d="M1070 295 l0 -25 25 0 25 0 0 25 0 25 -25 0 -25 0 0 -25z"/>
<path d="M590 185 l0 -25 25 0 25 0 0 25 0 25 -25 0 -25 0 0 -25z"/>
<path d="M960 185 l0 -25 25 0 25 0 0 25 0 25 -25 0 -25 0 0 -25z"/>
<path d="M750 135 l0 -25 25 0 25 0 0 25 0 25 -25 0 -25 0 0 -25z"/>
</g>
</svg>
