<?xml version="1.0" standalone="no"?>
<!DOCTYPE svg PUBLIC "-//W3C//DTD SVG 20010904//EN"
 "http://www.w3.org/TR/2001/REC-SVG-20010904/DTD/svg10.dtd">
<svg version="1.0" xmlns="http://www.w3.org/2000/svg"
 width="468pt" height="468pt" viewBox="0 0 468 468"
 preserveAspectRatio="xMidYMid meet">
<metadata>
Created by potrace 1.8, written by Peter Selinger 2001-2007
</metadata>
<g transform="translate(0,468) scale(0.365625,-0.365625)"
fill="#000000" stroke="none">
<path d="M120 1270 l0 -10 40 0 40 0 0 -10 0 -10 30 0 30 0 0 -10 0 -10 26 0
26 0 28 -30 28 -30 26 0 26 0 0 10 0 10 20 0 20 0 0 10 0 10 40 0 40 0 0 40 0
40 -210 0 -210 0 0 -10z"/>
<path d="M560 1230 l0 -50 -10 0 -10 0 0 -40 0 -40 -10 0 -10 0 0 -40 0 -40
10 0 10 0 0 -20 0 -20 10 0 10 0 0 20 0 20 10 0 10 0 0 30 0 30 10 0 10 0 0
40 0 40 10 0 10 0 0 60 0 60 -30 0 -30 0 0 -50z"/>
<path d="M660 1220 l0 -60 10 0 10 0 0 -40 0 -40 10 0 10 0 0 -30 0 -30 10 0
10 0 0 -20 0 -20 10 0 10 0 0 20 0 20 10 0 10 0 0 40 0 40 -10 0 -10 0 0 40 0
40 -10 0 -10 0 0 50 0 50 -30 0 -30 0 0 -60z"/>
<path d="M740 1251 l0 -29 13 -5 12 -5 -15 -12 -15 -12 13 -5 12 -5 0 -29 0
-29 40 0 40 0 0 -10 0 -10 20 0 20 0 0 -10 0 -10 16 0 16 0 28 -30 28 -30 11
0 12 0 24 -25 25 -24 0 -16 0 -15 16 0 15 0 15 14 14 15 0 10 0 11 -65 65 -65
65 -15 0 -15 0 0 10 0 10 -30 0 -30 0 0 10 0 10 -20 0 -20 0 0 10 0 10 -40 0
-40 0 0 10 0 10 40 0 40 0 0 -10 0 -10 20 0 20 0 0 -10 0 -10 16 0 16 0 28 30
28 30 26 0 26 0 0 10 0 10 30 0 30 0 0 10 0 10 40 0 40 0 0 -10 0 -10 -40 0
-40 0 0 -10 0 -10 -30 0 -30 0 0 -10 0 -10 -20 0 -20 0 0 -10 0 -10 -20 0 -20
0 0 -20 0 -20 19 0 19 0 6 -12 6 -13 6 13 6 12 19 0 19 0 0 10 0 10 30 0 30 0
0 10 0 10 26 0 25 0 15 14 14 15 0 21 0 21 -14 15 -15 14 -205 0 -206 0 0 -29z"/>
<path d="M1200 1220 l0 -60 -10 0 -10 0 0 -30 0 -30 -10 0 -10 0 0 -30 0 -30
-10 0 -10 0 0 -20 0 -20 -10 0 -10 0 0 -15 0 -16 -71 -70 -70 -69 15 -15 15
-15 21 0 21 0 24 25 25 24 0 16 0 15 20 0 20 0 0 18 0 18 20 14 20 14 0 18 0
18 10 0 10 0 0 20 0 20 10 0 10 0 0 30 0 30 10 0 10 0 0 40 0 40 10 0 10 0 0
-40 0 -40 -10 0 -10 0 0 -30 0 -30 -10 0 -10 0 0 -26 0 -26 -32 -31 -33 -30
13 -4 12 -5 0 -19 0 -19 10 0 10 0 0 -20 0 -20 10 0 10 0 0 -40 0 -40 30 0 30
0 0 210 0 210 -10 0 -10 0 0 60 0 60 -30 0 -30 0 0 -60z"/>
<path d="M0 1230 l0 -30 60 0 60 0 0 -10 0 -10 30 0 30 0 0 -10 0 -10 30 0 30
0 0 -10 0 -10 20 0 20 0 0 -10 0 -10 26 0 25 0 15 15 15 15 -25 25 -25 25 -26
0 -25 0 0 10 0 10 -30 0 -30 0 0 10 0 10 -50 0 -50 0 0 10 0 10 -50 0 -50 0 0
-30z"/>
<path d="M0 960 l0 -220 40 0 40 0 0 40 0 40 10 0 10 0 0 20 0 20 10 0 10 0 0
19 0 19 13 5 12 4 -22 20 -23 20 0 17 0 16 -10 0 -10 0 0 20 0 20 -10 0 -10 0
0 30 0 30 -10 0 -10 0 0 36 0 35 -14 15 -15 14 -5 0 -6 0 0 -220z"/>
<path d="M40 1170 l0 -10 10 0 10 0 0 -40 0 -40 10 0 10 0 0 -30 0 -30 10 0
10 0 0 -20 0 -20 10 0 10 0 0 -18 0 -18 20 -14 20 -14 0 -13 0 -14 45 -44 44
-45 11 0 11 0 15 14 14 15 0 11 0 11 -60 59 -60 59 0 15 0 16 -10 0 -10 0 0
20 0 20 -10 0 -10 0 0 30 0 30 -10 0 -10 0 0 26 0 25 -14 15 -15 14 -25 0 -26
0 0 -10z"/>
<path d="M460 1170 l0 -10 -20 0 -20 0 0 -10 0 -10 -20 0 -20 0 0 -10 0 -10
-20 0 -20 0 0 -10 0 -10 -15 0 -15 0 -55 -55 -55 -55 0 -10 0 -11 14 -15 15
-14 15 0 16 0 0 15 0 16 25 24 24 25 12 0 11 0 28 30 28 30 16 0 16 0 0 10 0
10 20 0 20 0 0 10 0 10 30 0 30 0 0 30 0 30 -30 0 -30 0 0 -10z"/>
<path d="M1160 1170 l0 -10 -30 0 -30 0 0 -10 0 -10 -30 0 -30 0 0 -10 0 -10
-20 0 -20 0 0 -5 0 -5 55 -55 55 -55 5 0 5 0 0 20 0 20 10 0 10 0 0 30 0 30
10 0 10 0 0 30 0 30 10 0 10 0 0 10 0 10 -10 0 -10 0 0 -10z"/>
<path d="M140 1130 l0 -30 10 0 10 0 0 -30 0 -30 10 0 10 0 0 -20 0 -20 5 0 6
0 44 45 45 44 0 16 0 15 -20 0 -20 0 0 10 0 10 -30 0 -30 0 0 10 0 10 -20 0
-20 0 0 -30z"/>
<path d="M620 1120 l0 -40 -10 0 -10 0 0 -30 0 -30 -10 0 -10 0 0 -20 0 -20
-10 0 -10 0 0 -16 0 -15 14 -15 15 -14 51 0 51 0 15 14 14 15 0 15 0 16 -10 0
-10 0 0 20 0 20 -10 0 -10 0 0 30 0 30 -10 0 -10 0 0 40 0 40 -20 0 -20 0 0
-40z"/>
<path d="M480 1080 l0 -20 10 0 10 0 0 20 0 20 -10 0 -10 0 0 -20z"/>
<path d="M780 1080 l0 -20 6 0 5 0 15 14 14 15 0 5 0 6 -20 0 -20 0 0 -20z"/>
<path d="M413 1065 l-13 -14 0 -12 0 -11 30 -28 30 -28 0 -14 0 -14 20 -14 20
-14 0 -18 0 -18 10 0 10 0 0 10 0 10 20 0 20 0 0 20 0 20 -10 0 -10 0 0 20 0
20 -10 0 -10 0 0 15 0 16 -35 34 -34 35 -13 0 -13 -1 -12 -14z"/>
<path d="M813 1065 l-13 -14 0 -16 0 -15 -20 0 -20 0 0 -20 0 -20 -10 0 -10 0
0 -20 0 -20 -10 0 -10 0 0 -20 0 -20 -10 0 -10 0 0 -30 0 -30 -10 0 -10 0 0
-40 0 -40 -10 0 -10 0 0 40 0 40 -20 0 -20 0 0 -40 0 -40 20 0 20 0 0 -10 0
-10 26 0 25 0 15 14 14 15 0 25 0 26 10 0 10 0 0 38 0 38 20 14 20 14 0 14 0
13 51 50 50 49 -15 15 -15 15 -23 0 -23 -1 -12 -14z"/>
<path d="M350 1020 l-14 -20 -14 0 -13 0 -15 -14 -14 -15 0 -15 0 -16 -10 0
-10 0 0 -15 0 -16 35 -35 35 -35 55 56 55 55 0 10 0 11 -35 34 -34 35 -3 0 -4
0 -14 -20z"/>
<path d="M873 1005 l-33 -34 0 -11 0 -10 55 -55 55 -55 10 0 11 0 34 35 35 34
0 16 0 15 -10 0 -10 0 0 16 0 15 -14 15 -15 14 -13 0 -14 0 -14 20 -14 20 -16
-1 -15 0 -32 -34z"/>
<path d="M390 880 l-55 -59 -15 0 -16 -1 -14 -20 -14 -20 -18 0 -18 0 0 -10 0
-10 -26 0 -25 0 -15 -14 -14 -15 0 -25 0 -26 20 0 20 0 0 10 0 10 30 0 30 0 0
10 0 10 20 0 20 0 0 10 0 10 16 0 16 0 28 30 28 30 11 0 12 0 34 35 35 34 0
21 0 21 -14 15 -15 14 -3 -1 -3 0 -55 -59z"/>
<path d="M813 925 l-13 -14 0 -26 0 -25 -10 0 -10 0 0 -26 0 -26 30 -28 30
-28 0 -16 0 -16 10 0 10 0 0 -60 0 -60 20 0 20 0 0 60 0 60 -10 0 -10 0 0 26
0 26 -40 38 -40 38 0 6 0 6 16 0 15 0 15 -14 14 -15 0 -15 0 -16 16 0 16 0 28
-30 28 -30 16 0 16 0 0 -10 0 -10 20 0 20 0 0 -10 0 -10 30 0 30 0 0 -10 0
-10 30 0 30 0 0 30 0 30 -20 0 -20 0 0 10 0 10 -30 0 -30 0 0 10 0 10 -20 0
-20 0 0 10 0 10 -15 0 -16 0 -69 70 -69 70 -3 0 -3 -1 -12 -14z"/>
<path d="M560 890 l0 -10 -18 0 -18 0 -14 -20 -14 -20 -18 0 -18 0 0 -20 0
-20 -10 0 -10 0 0 -10 0 -10 29 0 29 0 5 -12 4 -13 9 8 8 8 -13 9 -14 8 26 26
26 26 16 0 15 0 0 10 0 10 50 0 50 0 0 20 0 20 -60 0 -60 0 0 -10z"/>
<path d="M133 865 l-13 -14 0 -16 0 -15 -10 0 -10 0 0 -50 0 -50 -10 0 -10 0
0 -100 0 -100 10 0 10 0 0 -40 0 -40 10 0 10 0 0 -20 0 -20 16 0 15 0 15 14
14 15 0 15 0 16 -10 0 -10 0 0 30 0 30 -10 0 -10 0 0 120 0 120 10 0 10 0 0
30 0 30 10 0 10 0 0 16 0 15 -14 15 -15 14 -3 0 -3 -1 -12 -14z"/>
<path d="M1133 865 l-13 -14 0 -16 0 -15 10 0 10 0 0 -30 0 -30 10 0 10 0 0
-120 0 -120 -10 0 -10 0 0 -30 0 -30 -10 0 -10 0 0 -16 0 -15 14 -15 15 -14
15 0 16 0 0 20 0 20 10 0 10 0 0 40 0 40 10 0 10 0 0 110 0 110 -10 0 -10 0 0
40 0 40 -10 0 -10 0 0 16 0 15 -14 15 -15 14 -3 0 -3 -1 -12 -14z"/>
<path d="M580 830 l0 -10 -20 0 -20 0 0 -30 0 -30 10 0 10 0 0 -60 0 -60 30 0
30 0 0 60 0 60 -10 0 -10 0 0 40 0 40 -10 0 -10 0 0 -10z"/>
<path d="M193 805 l-13 -14 0 -6 0 -5 30 0 30 0 0 6 0 5 -14 15 -15 14 -3 0
-3 -1 -12 -14z"/>
<path d="M1073 805 l-13 -14 0 -6 0 -5 20 0 20 0 0 -10 0 -10 10 0 10 0 0 16
0 15 -14 15 -15 14 -3 0 -3 -1 -12 -14z"/>
<path d="M760 781 l0 -19 -12 -5 -13 -4 9 -9 9 -9 4 13 5 12 19 0 19 0 0 6 0
5 -14 15 -15 14 -5 0 -6 0 0 -19z"/>
<path d="M373 765 l-13 -14 0 -16 0 -15 20 0 20 0 0 -10 0 -10 30 0 30 0 0
-10 0 -10 40 0 40 0 0 30 0 30 -40 0 -40 0 0 10 0 10 -30 0 -30 0 0 10 0 10
-7 0 -8 -1 -12 -14z"/>
<path d="M900 740 l0 -20 20 0 20 0 0 -10 0 -10 -10 0 -10 0 0 -56 0 -55 14
-15 15 -14 15 0 16 0 0 10 0 10 20 0 20 0 0 10 0 10 30 0 30 0 0 10 0 10 30 0
30 0 0 20 0 20 -30 0 -30 0 0 10 0 10 -30 0 -30 0 0 10 0 10 -20 0 -20 0 0 10
0 10 -18 0 -18 0 -14 20 -14 20 -8 0 -8 0 0 -20z"/>
<path d="M760 730 l0 -10 -60 0 -60 0 0 -30 0 -30 60 0 60 0 0 10 0 10 40 0
40 0 0 16 0 15 -14 15 -15 14 -25 0 -26 0 0 -10z"/>
<path d="M0 690 l0 -30 30 0 30 0 0 30 0 30 -30 0 -30 0 0 -30z"/>
<path d="M300 710 l0 -10 -20 0 -20 0 0 -10 0 -10 -30 0 -30 0 0 -10 0 -10
-20 0 -20 0 0 -20 0 -20 20 0 20 0 0 -10 0 -10 30 0 30 0 0 -10 0 -10 20 0 20
0 0 -10 0 -10 26 0 25 0 15 14 14 15 0 51 0 51 -14 15 -15 14 -25 0 -26 0 0
-10z"/>
<path d="M1240 690 l0 -30 20 0 20 0 0 30 0 30 -20 0 -20 0 0 -30z"/>
<path d="M400 620 l0 -60 10 0 10 0 0 -25 0 -26 35 -34 34 -35 16 0 15 0 0 26
0 26 -30 28 -30 28 0 16 0 16 -10 0 -10 0 0 50 0 50 -20 0 -20 0 0 -60z"/>
<path d="M460 640 l0 -20 40 0 40 0 0 20 0 20 -40 0 -40 0 0 -20z"/>
<path d="M760 640 l0 -20 40 0 40 0 0 20 0 20 -40 0 -40 0 0 -20z"/>
<path d="M680 550 l0 -90 16 0 15 0 15 14 14 15 0 75 0 76 -30 0 -30 0 0 -90z"/>
<path d="M0 590 l0 -30 30 0 30 0 0 30 0 30 -30 0 -30 0 0 -30z"/>
<path d="M560 610 l0 -10 -50 0 -50 0 0 -10 0 -10 10 0 10 0 0 -20 0 -20 30 0
30 0 0 10 0 10 60 0 60 0 0 30 0 30 -50 0 -50 0 0 -10z"/>
<path d="M1240 590 l0 -30 20 0 20 0 0 30 0 30 -20 0 -20 0 0 -30z"/>
<path d="M160 574 l0 -25 14 -15 15 -14 25 0 26 0 0 -10 0 -10 18 0 18 0 14
-20 14 -20 14 0 13 0 59 -60 59 -60 5 0 6 0 0 20 0 20 10 0 10 0 0 15 0 16
-35 34 -34 35 -12 0 -11 0 -28 30 -28 30 -24 0 -24 0 -14 20 -14 20 -28 0 -28
0 0 10 0 10 -20 0 -20 0 0 -26z"/>
<path d="M760 570 l0 -30 40 0 40 0 0 -10 0 -10 36 0 35 0 15 14 14 15 0 5 0
6 -30 0 -30 0 0 10 0 10 -20 0 -20 0 0 10 0 10 -40 0 -40 0 0 -30z"/>
<path d="M1080 590 l0 -10 -30 0 -30 0 0 -10 0 -10 -20 0 -20 0 0 -10 0 -10
-18 0 -18 0 -14 -20 -14 -20 -13 0 -14 0 -44 -45 -45 -44 0 -16 0 -15 10 0 10
0 0 -20 0 -20 6 0 5 0 59 60 59 60 11 0 12 0 28 30 28 30 36 0 36 0 0 10 0 10
20 0 20 0 0 30 0 30 -30 0 -30 0 0 -10z"/>
<path d="M360 540 l0 -20 20 0 20 0 0 20 0 20 -20 0 -20 0 0 -20z"/>
<path d="M0 330 l0 -210 20 0 20 0 0 40 0 40 10 0 10 0 0 30 0 30 10 0 10 0 0
20 0 20 10 0 10 0 0 20 0 20 10 0 10 0 0 30 0 30 -10 0 -10 0 0 20 0 20 -10 0
-10 0 0 36 0 35 -14 15 -15 14 -25 0 -26 0 0 -210z"/>
<path d="M540 492 l0 -48 -20 -14 -20 -14 0 -18 0 -18 -10 0 -10 0 0 -16 0
-15 -61 -60 -60 -59 15 -15 15 -15 21 0 21 0 34 35 35 34 0 13 0 14 20 14 20
14 0 18 0 18 10 0 10 0 0 20 0 20 10 0 10 0 0 20 0 20 10 0 10 0 0 50 0 50
-30 0 -30 0 0 -48z"/>
<path d="M620 500 l0 -40 20 0 20 0 0 40 0 40 -20 0 -20 0 0 -40z"/>
<path d="M1233 525 l-13 -14 0 -36 0 -35 -10 0 -10 0 0 -20 0 -20 -10 0 -10 0
0 -28 0 -28 20 -14 20 -14 0 -28 0 -28 10 0 10 0 0 -30 0 -30 10 0 10 0 0 -40
0 -40 10 0 10 0 0 210 0 210 -17 0 -18 -1 -12 -14z"/>
<path d="M760 511 l0 -9 12 -4 13 -5 -17 -16 -17 -17 -15 0 -16 0 0 -10 0 -10
-60 0 -60 0 0 -20 0 -20 60 0 60 0 0 10 0 10 28 0 28 0 14 20 14 20 18 0 18 0
0 16 0 15 -16 16 -16 16 -10 -14 -10 -14 -5 13 -5 12 -9 0 -9 0 0 -9z"/>
<path d="M1100 510 l0 -10 -20 0 -20 0 0 -6 0 -5 15 -15 15 -15 15 15 15 15 0
15 0 16 -10 0 -10 0 0 -10z"/>
<path d="M180 494 l0 -5 15 -15 15 -15 15 15 15 15 0 5 0 6 -30 0 -30 0 0 -6z"/>
<path d="M193 424 l-53 -54 0 -15 0 -15 -10 0 -10 0 0 -20 0 -20 -10 0 -10 0
0 -20 0 -20 -10 0 -10 0 0 -30 0 -30 -10 0 -10 0 0 -40 0 -40 -10 0 -10 0 0
-60 0 -60 30 0 30 0 0 60 0 60 10 0 10 0 0 30 0 30 10 0 10 0 0 30 0 30 10 0
10 0 0 25 0 26 70 69 70 69 0 11 0 11 -14 15 -15 14 -13 -1 -13 0 -52 -55z"/>
<path d="M992 465 l-13 -15 81 -80 80 -79 0 -26 0 -25 10 0 10 0 0 -30 0 -30
10 0 10 0 0 -30 0 -30 30 0 30 0 0 40 0 40 -10 0 -10 0 0 30 0 30 -10 0 -10 0
0 20 0 20 -10 0 -10 0 0 20 0 20 -10 0 -10 0 0 15 0 15 -55 55 -55 55 -22 0
-23 -1 -13 -14z"/>
<path d="M263 374 l-63 -64 0 -20 0 -20 55 -55 55 -55 15 0 15 0 0 -10 0 -10
20 0 20 0 0 -10 0 -10 20 0 20 0 0 -10 0 -10 20 0 20 0 0 -10 0 -10 40 0 40 0
0 10 0 10 -10 0 -10 0 0 20 0 20 -30 0 -30 0 0 10 0 10 -20 0 -20 0 0 10 0 10
-16 0 -16 0 -28 30 -28 30 -11 0 -12 0 -24 25 -25 24 0 15 0 14 -12 5 -13 4 7
8 7 7 16 -15 15 -16 0 -11 0 -11 14 -15 15 -14 14 0 15 0 4 -12 4 -12 47 47
47 47 -55 55 -55 55 -2 -1 -3 -1 -62 -64z"/>
<path d="M892 384 l-52 -54 45 -45 44 -45 16 0 15 0 0 10 0 10 16 0 15 0 15
14 14 15 0 11 0 11 15 16 16 15 7 -7 7 -8 -12 -4 -13 -5 0 -14 0 -15 -25 -24
-24 -25 -13 0 -14 0 -14 -20 -14 -20 -16 0 -16 0 -14 -20 -14 -20 -28 0 -28 0
0 -10 0 -10 -30 0 -30 0 0 -20 0 -20 -10 0 -10 0 0 -20 0 -20 10 0 10 0 0 10
0 10 40 0 40 0 0 10 0 10 20 0 20 0 0 10 0 10 20 0 20 0 0 10 0 10 20 0 20 0
0 10 0 10 15 0 15 0 55 55 55 55 0 20 0 20 -65 65 -65 65 -12 -1 -13 0 -53
-55z"/>
<path d="M720 380 l0 -20 10 0 10 0 0 -18 0 -18 20 -14 20 -14 0 -13 0 -14 45
-45 45 -45 26 26 25 25 -60 60 -61 59 0 11 0 11 -14 15 -15 14 -25 0 -26 0 0
-20z"/>
<path d="M573 365 l-13 -14 0 -26 0 -25 10 0 10 0 0 -20 0 -20 10 0 10 0 0
-30 0 -30 10 0 10 0 0 -40 0 -40 20 0 20 0 0 40 0 40 10 0 10 0 0 30 0 30 10
0 10 0 0 20 0 20 10 0 10 0 0 26 0 25 -14 15 -15 14 -53 0 -53 -1 -12 -14z"/>
<path d="M492 244 l-53 -55 15 -14 15 -15 15 0 16 0 0 40 0 40 10 0 10 0 0
-40 0 -40 10 0 10 0 0 -30 0 -30 10 0 10 0 0 -50 0 -50 30 0 30 0 0 60 0 60
-10 0 -10 0 0 40 0 40 -10 0 -10 0 0 30 0 30 -10 0 -10 0 0 20 0 20 -7 -1 -8
0 -53 -55z"/>
<path d="M720 280 l0 -20 -10 0 -10 0 0 -30 0 -30 -10 0 -10 0 0 -40 0 -40
-10 0 -10 0 0 -60 0 -60 30 0 30 0 0 50 0 50 10 0 10 0 0 30 0 30 10 0 10 0 0
40 0 40 10 0 10 0 0 -40 0 -40 16 0 15 0 15 15 15 15 -55 55 -56 55 -5 0 -5 0
0 -20z"/>
<path d="M173 245 l-13 -14 0 -26 0 -25 -10 0 -10 0 0 -20 0 -20 20 0 20 0 0
10 0 10 26 0 25 0 15 15 15 15 -35 35 -35 35 -3 0 -3 -1 -12 -14z"/>
<path d="M1073 225 l-33 -34 0 -16 0 -15 30 0 30 0 0 -10 0 -10 30 0 30 0 0
20 0 20 -10 0 -10 0 0 26 0 25 -14 15 -15 14 -3 -1 -3 0 -32 -34z"/>
<path d="M240 150 l0 -10 -30 0 -30 0 0 -10 0 -10 -30 0 -30 0 0 -30 0 -30 40
0 40 0 0 10 0 10 30 0 30 0 0 10 0 10 20 0 20 0 0 10 0 10 20 0 20 0 0 -10 0
-10 -20 0 -20 0 0 -10 0 -10 -20 0 -20 0 0 -10 0 -10 -30 0 -30 0 0 -10 0 -10
-40 0 -40 0 0 -20 0 -20 210 0 210 0 0 30 0 30 -40 0 -40 0 0 10 0 10 -20 0
-20 0 0 10 0 10 -20 0 -20 0 0 10 0 10 -20 0 -20 0 0 10 0 10 -20 0 -20 0 0
10 0 10 -30 0 -30 0 0 -10z"/>
<path d="M1000 150 l0 -10 -20 0 -20 0 0 -6 0 -5 14 -15 15 -14 15 0 16 0 0
-10 0 -10 30 0 30 0 0 -10 0 -10 40 0 40 0 0 -10 0 -10 60 0 60 0 0 30 0 30
-60 0 -60 0 0 10 0 10 -30 0 -30 0 0 10 0 10 -30 0 -30 0 0 10 0 10 -20 0 -20
0 0 -10z"/>
<path d="M920 110 l0 -10 -20 0 -20 0 0 -10 0 -10 -20 0 -20 0 0 -10 0 -10
-36 0 -35 0 -15 -14 -14 -15 0 -15 0 -16 220 0 220 0 0 6 0 5 -14 15 -15 14
-35 0 -36 0 0 10 0 10 -30 0 -30 0 0 10 0 10 -20 0 -20 0 0 10 0 10 -20 0 -20
0 0 10 0 10 -10 0 -10 0 0 -10z"/>
<path d="M0 70 l0 -30 10 0 10 0 0 30 0 30 -10 0 -10 0 0 -30z"/>
<path d="M0 10 l0 -10 10 0 10 0 0 10 0 10 -10 0 -10 0 0 -10z"/>
<path d="M1200 10 l0 -10 30 0 30 0 0 10 0 10 -30 0 -30 0 0 -10z"/>
</g>
</svg>
