<?xml version="1.0" standalone="no"?>
<!DOCTYPE svg PUBLIC "-//W3C//DTD SVG 20010904//EN"
 "http://www.w3.org/TR/2001/REC-SVG-20010904/DTD/svg10.dtd">
<svg version="1.0" xmlns="http://www.w3.org/2000/svg"
 width="468pt" height="468pt" viewBox="0 0 468 468"
 preserveAspectRatio="xMidYMid meet">
<metadata>
Created by potrace 1.8, written by Peter Selinger 2001-2007
</metadata>
<g transform="translate(0,468) scale(0.365625,-0.365625)"
fill="#000000" stroke="none">
<path d="M651 1263 l-14 -15 21 6 20 7 26 -7 26 -6 0 -9 0 -9 -20 0 -20 0 0
10 0 10 -16 0 -16 0 5 -12 4 -13 -54 0 -54 0 -7 -11 -7 -11 -22 -7 -23 -7 0
-9 0 -9 21 -6 21 -7 29 31 28 31 11 0 10 0 -6 -24 -6 -24 19 -10 18 -10 -8 -8
-8 -8 -7 11 -7 11 -28 7 -27 7 0 -16 0 -16 25 0 25 0 0 -10 0 -10 30 0 29 0
20 -21 19 -21 23 7 23 8 14 13 13 14 -10 0 -11 0 0 19 0 19 16 6 17 6 5 -5 5
-5 -11 0 -12 0 0 -20 0 -20 28 -1 27 -2 -24 -4 -24 -5 -14 -14 -14 -14 -14 0
-13 0 -6 -16 -6 -16 0 -10 0 -9 16 15 15 16 15 0 14 0 0 10 0 10 15 0 15 0 0
-9 0 -9 -26 -6 -26 -7 -16 -15 -15 -16 14 -9 14 -10 -15 2 -15 1 -12 -1 -13
-1 -1 -17 -1 -18 -5 14 -6 14 19 15 19 14 -12 5 -13 5 0 25 0 25 -20 5 -20 5
0 8 0 9 -55 6 -55 7 0 9 0 9 -25 0 -25 0 0 10 0 10 -14 0 -15 0 -15 16 -16 15
0 -10 0 -11 -15 0 -14 0 3 -12 3 -13 -4 8 -5 7 -21 1 -22 1 20 5 20 5 5 9 6 9
39 5 39 5 7 11 7 12 23 2 24 2 13 2 12 1 0 10 0 10 -14 0 -14 0 -5 -12 -5 -13
-10 14 -10 13 -6 -13 -6 -14 -6 13 -6 12 -39 0 -39 0 0 -9 0 -10 28 -4 27 -4
-100 2 -100 2 17 -4 18 -4 0 -10 0 -9 15 0 15 0 0 10 0 10 25 0 25 0 0 -9 0
-8 -40 -7 -40 -6 0 -11 0 -10 14 -15 15 -14 25 0 26 0 0 -9 0 -9 45 -6 45 -7
0 -10 0 -9 -22 0 -23 0 -25 -5 -25 -5 13 6 12 6 0 9 0 9 -19 0 -19 0 -5 -12
-5 -13 -1 18 -1 18 -12 -2 -13 -1 -12 1 -12 1 -6 20 -6 20 -13 0 -13 0 -23 20
-23 20 21 0 22 0 0 10 0 10 -20 0 -20 0 -1 -12 -1 -13 1 -11 1 -11 -31 -7 -32
-6 -20 -23 -20 -22 -4 12 -4 12 -20 -17 -19 -16 0 -23 0 -23 15 0 15 0 0 10 0
10 -10 0 -10 0 0 15 0 15 9 0 10 0 6 -19 6 -19 -2 -8 -1 -9 1 -12 1 -13 25 0
25 0 0 -9 0 -9 24 -6 25 -6 7 -23 7 -22 11 -8 11 -8 -55 6 -55 6 -15 -10 -14
-10 8 -8 9 -8 4 13 5 12 24 0 24 0 0 -10 0 -10 29 0 30 0 15 -16 16 -15 0 -10
0 -9 17 -20 17 -20 13 0 13 0 0 -10 0 -10 24 0 25 0 15 -15 15 -15 15 0 16 0
0 -10 0 -9 37 -7 37 -7 15 -15 15 -15 4 13 5 13 -16 12 -15 11 -7 37 -7 37 -9
0 -9 0 0 50 0 50 -14 0 -14 0 -5 -12 -4 -13 -9 8 -8 8 14 9 15 10 22 0 21 0 4
10 3 11 0 -81 0 -81 11 -7 12 -7 4 -20 4 -20 17 1 17 2 0 -14 0 -14 13 -1 12
-1 14 1 13 2 -13 -14 -13 -14 -14 14 -13 13 -5 0 -4 0 0 -16 0 -16 20 -5 20
-5 0 -9 0 -9 20 0 20 0 0 -16 0 -15 16 15 15 16 5 0 4 0 0 -3 0 -4 -20 -23
-20 -23 0 11 0 12 -20 0 -20 0 0 -10 0 -10 10 0 10 0 -17 -20 -17 -20 -9 0 -8
0 17 17 17 17 -13 4 -13 5 -15 -19 -14 -19 -5 13 -5 12 -37 0 -37 0 -17 20
-17 20 0 10 0 10 10 0 10 0 0 15 0 15 -9 0 -10 0 -3 27 -3 26 -15 4 -15 5 11
-9 12 -8 2 -25 2 -25 -1 -12 -1 -13 -16 0 -15 0 6 19 6 19 -7 26 -6 26 -19 0
-19 0 0 21 0 20 -17 -17 -18 -17 13 -5 12 -4 0 -15 0 -14 -14 -15 -15 -14 -10
0 -11 0 0 9 0 9 13 5 14 5 -1 39 -2 38 -17 3 -17 3 0 -21 0 -21 -26 -24 -27
-25 -13 0 -14 0 0 -9 0 -10 17 -4 18 -5 -26 -1 -27 -1 -6 26 -7 26 6 6 5 5 0
-17 0 -17 21 6 21 7 19 16 19 16 0 17 0 17 -6 16 -6 16 -19 0 -19 0 0 -9 0 -9
13 -5 12 -5 -13 -1 -14 -1 -5 20 -5 20 -12 0 -13 0 2 -27 2 -28 -4 23 -4 22
-10 0 -9 0 0 14 0 14 -22 6 -23 6 -7 0 -7 0 6 -17 7 -17 -16 14 -16 15 11 7
10 6 -16 17 -17 16 0 -20 0 -21 -10 0 -10 0 0 25 0 24 -14 -5 -14 -5 -5 -25
-4 -24 13 0 14 0 0 -9 0 -9 -12 -4 -12 -4 0 -37 0 -37 -15 -1 -16 -1 15 -5 15
-6 13 -14 13 -13 -15 0 -16 0 0 -10 0 -10 33 -1 32 -1 -18 -5 -17 -4 0 -10 0
-9 20 0 20 0 0 10 0 10 15 0 15 0 0 -9 0 -10 23 -4 22 -5 -39 1 -39 2 -4 -12
-5 -13 31 0 31 0 0 -9 0 -9 -12 -5 -13 -5 58 -1 57 -1 0 -10 0 -10 50 0 50 0
0 10 0 10 -12 1 -13 1 -15 2 -15 3 -22 1 -23 2 0 10 0 10 20 0 20 0 0 10 0 10
30 0 30 0 0 -10 0 -10 -10 0 -10 0 0 -10 0 -10 15 0 15 0 0 10 0 10 15 0 15 0
0 10 0 10 -15 0 -15 0 0 14 0 14 15 6 15 5 0 26 0 25 6 0 5 0 15 -14 14 -15 0
-15 0 -16 -26 0 -26 0 4 -12 5 -13 21 -3 22 -3 0 -10 0 -9 -10 0 -10 0 0 -10
0 -10 14 0 14 0 5 13 4 12 8 -7 8 -8 -7 -7 -8 -8 -31 0 -30 0 -4 -12 -5 -13
31 0 31 0 0 10 0 10 25 0 25 0 0 -10 0 -10 28 0 27 0 15 -10 14 -9 -7 -8 -8
-7 -9 14 -10 15 0 -12 0 -13 -25 -6 -25 -6 0 -9 0 -9 -235 0 -235 0 0 -265 0
-265 640 0 640 0 0 265 0 265 -350 0 -350 0 0 11 0 11 20 5 20 5 0 9 0 9 19 0
19 0 5 -12 4 -13 78 0 79 1 4 12 4 12 13 0 13 0 5 -12 4 -13 106 0 106 1 7 7
7 7 -4 5 -5 5 -39 5 -39 5 -5 8 -6 9 -15 6 -15 5 17 1 16 1 5 8 4 7 -3 -12 -3
-13 27 1 27 1 -12 5 -13 5 0 9 0 9 25 0 25 0 0 9 0 9 -12 5 -13 5 26 1 27 1 6
15 6 15 25 -6 25 -6 -6 16 -6 16 21 0 20 0 -6 17 -7 17 16 -14 15 -14 -14 -14
-13 -13 0 -6 0 -5 19 5 20 5 -6 -14 -5 -14 16 0 16 0 1 13 1 12 4 30 3 30 11
3 10 4 0 18 0 18 -12 5 -13 5 13 1 12 1 0 25 0 25 -9 0 -9 0 -6 -15 -5 -15
-16 0 -15 0 0 -10 0 -10 -40 -6 -40 -7 0 -8 0 -9 -40 0 -40 0 0 -10 0 -10 -30
0 -30 0 0 -15 0 -15 -15 0 -15 0 0 -14 0 -14 6 -16 6 -16 17 -1 16 -1 -15 -5
-15 -6 -7 -11 -8 -11 0 28 0 27 -10 0 -10 0 0 20 0 20 10 0 10 0 0 10 0 10
-15 0 -15 0 0 -9 0 -8 -34 -6 -34 -5 -21 -18 -21 -18 0 -13 0 -13 -11 0 -10 0
-15 -14 -14 -15 0 -5 0 -6 13 0 12 0 15 -10 15 -10 -15 -10 -15 -10 -27 0 -28
0 0 -10 0 -10 -10 0 -11 0 -21 20 -22 20 22 20 22 21 0 24 0 24 34 7 34 6 6
23 6 22 50 7 50 7 0 9 0 10 15 0 15 0 0 10 0 10 20 0 20 0 17 20 17 20 14 0
13 0 24 26 24 26 4 11 3 10 36 1 35 1 -4 13 -5 12 -23 0 -23 0 -4 -9 -3 -8
-25 -7 -25 -7 11 8 11 8 8 25 8 24 12 13 13 12 26 7 26 6 0 9 0 9 15 0 15 0 0
9 0 9 24 6 24 6 5 13 5 14 -9 14 -9 14 -10 -15 -10 -15 0 17 0 18 -40 -4 -40
-4 0 10 0 9 15 15 15 15 0 15 0 15 -15 -13 -14 -13 -15 -12 -15 -13 -11 0 -10
0 0 9 0 9 25 6 25 6 0 10 0 9 -32 5 -33 6 -39 -3 -39 -2 -14 13 -14 14 -39 5
-40 6 0 8 0 9 -26 0 -25 0 -15 -14 -14 -15 0 -10 0 -11 10 0 10 0 0 -15 0 -15
-9 0 -10 0 -7 23 -7 22 -11 7 -11 7 -25 -6 -25 -6 17 16 17 17 10 0 11 0 0
-10 0 -10 16 0 16 0 -5 13 -4 12 -38 0 -38 0 -4 13 -5 12 -26 0 -27 -1 -14
-16z m75 -59 l-6 -16 0 -9 0 -9 -25 0 -25 0 0 13 0 12 -10 -15 -9 -14 -8 7 -7
8 14 9 15 10 18 0 17 0 0 10 0 10 16 0 16 0 -6 -16z m164 6 l0 -10 -10 0 -10
0 0 10 0 10 10 0 10 0 0 -10z m54 -5 l5 -15 17 0 16 0 -4 -12 -5 -13 -16 -3
-17 -3 6 15 6 16 -16 6 -16 6 0 9 0 9 9 0 9 0 6 -15z m86 -25 l0 -10 -10 0
-10 0 0 10 0 10 10 0 10 0 0 -10z m80 0 l0 -10 -10 0 -10 0 0 10 0 10 10 0 10
0 0 -10z m-860 -25 l0 -15 -15 0 -15 0 0 -7 0 -7 27 -23 26 -23 -22 0 -22 0
-5 15 -6 15 -8 0 -9 0 -4 -12 -4 -13 4 23 3 22 17 20 17 20 8 0 8 0 0 -15z
m224 -12 l6 -16 -5 -5 -5 -5 0 11 0 12 -15 0 -15 0 0 15 0 14 14 -5 14 -6 6
-15z m256 7 l0 -10 -20 0 -20 0 0 10 0 10 20 0 20 0 0 -10z m190 0 l0 -10 -25
0 -25 0 0 -10 0 -10 -15 0 -15 0 0 10 0 10 15 0 15 0 0 10 0 10 25 0 25 0 0
-10z m-620 -20 l0 -10 -10 0 -10 0 0 10 0 10 10 0 10 0 0 -10z m780 1 l0 -8
-37 -7 -38 -6 -27 0 -28 0 0 -10 0 -10 -20 0 -20 0 0 9 0 9 23 6 22 6 38 0 37
0 0 10 0 10 25 0 25 0 0 -9z m34 -26 l-6 -15 -9 0 -9 0 0 9 0 9 13 5 12 5 2 1
2 1 -5 -15z m-564 -4 l0 -9 55 -7 55 -6 0 -10 0 -9 15 0 15 0 0 -15 0 -15 -10
0 -10 0 0 12 0 11 -21 -24 -22 -24 -4 13 -5 12 -14 14 -14 15 0 10 0 11 -22 0
-23 0 -22 6 -23 6 0 9 0 9 25 0 25 0 0 -9z m340 0 l0 -9 -26 -6 -26 -7 -6 6
-5 5 16 0 17 0 0 10 0 10 15 0 15 0 0 -9z m185 -20 l-4 -3 -10 7 -11 6 0 10 0
10 14 -13 14 -13 -3 -4z m-903 -11 l3 -10 107 -3 107 -2 -10 -3 -9 -4 0 -9 0
-9 50 0 50 0 0 -9 0 -8 40 -7 40 -6 0 -10 0 -10 15 0 16 0 5 -15 6 -15 14 0
14 0 0 -15 0 -15 19 0 19 0 6 15 5 15 12 0 12 0 -37 -34 -36 -35 0 -9 0 -10
13 -5 12 -4 -8 -9 -8 -8 -10 14 -9 15 5 26 6 25 -25 27 -24 26 -26 7 -26 6 0
8 0 7 -90 7 -90 8 0 9 0 9 -34 0 -35 0 2 -26 2 -27 -12 -4 -13 -5 0 16 0 16
-12 1 -13 1 13 5 12 5 0 19 0 19 -39 0 -39 0 -16 6 -16 6 0 9 0 9 14 0 14 0 4
-10z m188 0 l0 -10 -10 0 -10 0 0 10 0 10 10 0 10 0 0 -10z m90 0 l0 -10 -15
0 -15 0 0 10 0 10 15 0 15 0 0 -10z m460 0 l0 -10 -10 0 -10 0 0 10 0 10 10 0
10 0 0 -10z m310 0 l0 -10 -10 0 -10 0 0 10 0 10 10 0 10 0 0 -10z m-723 -16
l-6 -6 -13 5 -13 5 19 1 19 1 -6 -6z m366 -11 l-5 -13 -8 0 -8 0 -5 13 -5 13
18 0 18 0 -5 -13z m313 2 l-15 -15 -10 0 -11 0 0 9 0 10 18 4 17 5 8 1 8 1
-15 -15z m-630 -15 l14 0 0 -9 0 -9 25 -6 25 -6 0 -10 0 -10 -10 0 -10 0 0 9
0 9 -27 7 -28 7 -7 11 -8 12 1 10 1 10 5 -12 5 -13 14 0z m-326 -10 l0 -10
-10 0 -10 0 0 10 0 10 10 0 10 0 0 -10z m560 0 l0 -10 -10 0 -10 0 0 10 0 10
10 0 10 0 0 -10z m250 0 l0 -10 -9 0 -9 0 -18 -7 -18 -7 14 17 15 16 13 1 12
0 0 -10z m47 -2 l5 12 14 0 14 0 0 -9 0 -9 -22 -5 -21 -6 -9 5 -8 5 0 12 0 12
11 -15 11 -15 5 13z m-747 -29 l0 -9 -9 0 -9 0 -5 14 -6 15 15 -6 14 -5 0 -9z
m534 6 l-6 -15 -24 0 -24 0 0 9 0 10 18 4 17 5 12 1 12 1 -5 -15z m53 9 l-6
-6 -13 5 -13 5 19 1 19 1 -6 -6z m50 0 l-6 -6 -13 5 -13 5 19 1 19 1 -6 -6z
m-601 -19 l-5 -15 13 -12 13 -12 -15 -16 -16 -15 17 -3 17 -3 0 -19 0 -18 13
-5 12 -5 -12 -1 -12 -1 -13 16 -13 15 -17 17 -18 16 0 11 0 10 10 -15 10 -15
9 14 9 14 -5 14 -5 13 -9 0 -9 0 0 -12 0 -11 -7 6 -6 7 19 19 19 20 4 0 3 1
-6 -15z m446 -7 l22 -22 -13 -4 -13 -4 13 -9 13 -8 -7 -8 -8 -7 -9 13 -8 14 5
14 5 13 -26 0 -26 0 0 -10 0 -10 10 0 11 0 -21 -22 -20 -22 -7 7 -6 7 10 0 11
0 6 16 6 17 -30 -7 -31 -6 17 18 18 17 20 1 20 1 4 12 4 11 4 0 4 0 22 -22z
m-512 -13 l0 -15 -12 0 -13 0 15 -10 14 -9 -7 -8 -8 -7 -8 13 -9 13 5 19 5 19
9 0 9 0 0 -15z m158 1 l-13 -14 -4 3 -3 4 7 10 6 11 10 0 10 0 -13 -14z m457
3 l7 -10 -3 -4 -4 -3 -13 14 -13 14 10 0 10 0 6 -11z m55 -9 l0 -10 -10 0 -10
0 0 10 0 10 10 0 10 0 0 -10z m-60 -30 l0 -10 -10 0 -10 0 0 10 0 10 10 0 10
0 0 -10z m-360 -31 l0 -22 35 -33 34 -34 10 0 9 0 5 13 4 12 9 -8 8 -8 -14 -9
-15 -10 14 0 14 0 16 -18 16 -18 18 -7 17 -6 0 -13 0 -13 -8 11 -7 11 -22 7
-23 7 0 10 0 9 -15 0 -15 0 0 9 0 9 -26 6 -26 7 -12 12 -12 12 -7 18 -6 17
-11 0 -10 0 0 25 0 25 10 0 10 0 0 -21z m-192 -39 l12 0 0 -9 0 -9 35 -6 35
-7 0 -9 0 -10 -15 0 -15 0 0 9 0 9 -30 6 -31 6 -24 26 -25 27 0 10 0 10 23
-26 23 -27 12 0z m336 26 l-6 -16 -9 0 -9 0 0 5 0 6 13 13 12 14 3 -3 2 -2 -6
-17z m110 0 l-6 -16 -12 0 -11 0 15 -10 14 -9 -6 -6 -7 -7 -14 13 -14 13 21
22 21 21 3 -2 2 -2 -6 -17z m106 14 l0 -10 -10 0 -10 0 0 10 0 10 10 0 10 0 0
-10z m140 4 l0 -7 -22 -18 -21 -19 -4 0 -4 0 7 13 8 12 11 12 10 12 8 1 7 0 0
-6z m-580 -23 l0 -9 -14 -5 -15 -6 6 15 5 14 9 0 9 0 0 -9z m365 -10 l-6 -11
-10 0 -10 0 13 14 13 14 4 -3 3 -4 -7 -10z m-120 -40 l-4 -3 -10 7 -11 6 0 10
0 10 14 -13 14 -13 -3 -4z m-555 -6 l0 -15 -10 0 -10 0 0 15 0 15 10 0 10 0 0
-15z m-39 -16 l21 -21 -5 -5 -5 -5 -21 21 -21 21 0 5 0 5 5 0 5 0 21 -21z
m659 11 l0 -10 -10 0 -10 0 0 10 0 10 10 0 10 0 0 -10z m-290 -20 l14 -9 -7
-8 -8 -7 -7 10 -7 11 -15 6 -15 5 15 1 15 1 15 -10z m340 -10 l0 -10 -10 0
-10 0 0 10 0 10 10 0 10 0 0 -10z m410 -30 l-13 -8 -14 5 -13 5 0 4 0 5 12 13
12 13 15 -14 14 -15 -13 -8z m-1160 10 l0 -10 -15 0 -15 0 0 10 0 10 15 0 15
0 0 -10z m170 1 l0 -9 -14 -5 -15 -6 6 15 5 14 9 0 9 0 0 -9z m550 0 l0 -9
-24 -4 -24 -5 5 14 5 13 19 0 19 0 0 -9z m362 -3 l5 -13 -4 -12 -5 -13 -9 0
-9 0 0 25 0 25 9 0 9 0 4 -12z m-1045 -14 l-6 -6 -13 5 -13 5 19 1 19 1 -6 -6z
m983 -5 l-15 -11 13 -5 12 -5 0 -14 0 -14 -9 0 -10 0 -6 20 -6 20 6 10 6 10
12 0 12 0 -15 -11z m-930 -9 l0 -10 -15 0 -15 0 0 10 0 10 15 0 15 0 0 -10z
m160 0 l0 -10 -10 0 -10 0 0 10 0 10 10 0 10 0 0 -10z m720 0 l0 -10 -10 0
-10 0 0 10 0 10 10 0 10 0 0 -10z m-890 -30 l5 -7 15 -6 15 -6 -50 6 -50 6 -5
7 -5 7 -15 6 -15 6 50 -6 50 -6 5 -7z m882 7 l13 -14 15 -6 15 -5 -17 -1 -16
-1 -4 -12 -5 -13 -16 17 -17 17 0 15 0 16 9 0 10 0 13 -13z m-377 -16 l-6 -11
-10 0 -10 0 13 14 13 14 4 -3 3 -4 -7 -10z m-337 -15 l5 -6 -5 -5 -5 -5 -74
-4 -74 -3 48 4 47 4 0 13 0 13 26 -3 26 -2 6 -6z m622 -37 l0 -9 -20 0 -20 0
0 14 0 14 20 -5 20 -5 0 -9z m-71 -30 l-14 -9 -15 1 -15 1 13 5 12 5 0 20 0
19 17 -16 16 -17 -14 -9z m-659 11 l0 -10 -15 0 -15 0 0 10 0 10 15 0 15 0 0
-10z m726 -24 l6 -15 29 -6 29 -7 0 -9 0 -9 -20 0 -20 0 0 9 0 9 -25 6 -25 6
0 15 0 15 10 0 11 0 5 -14z m-28 -22 l22 -6 0 -9 0 -9 -15 0 -15 0 0 9 0 10
-22 4 -23 4 15 2 15 1 23 -6z"/>
<path d="M616 1045 l6 -15 9 0 9 0 0 15 0 15 -15 0 -14 0 5 -15z"/>
<path d="M598 1253 l13 -5 6 6 6 6 -19 -1 -19 -1 13 -5z"/>
<path d="M280 1185 l0 -15 9 0 9 0 6 15 5 15 -14 0 -15 0 0 -15z"/>
<path d="M477 709 l5 -19 9 0 9 0 0 -15 0 -15 -10 0 -10 0 0 -10 0 -10 20 0
20 0 0 25 0 25 -10 0 -10 0 0 14 0 14 -14 5 -14 6 5 -20z"/>
<path d="M1120 680 l0 -10 10 0 10 0 0 10 0 10 -10 0 -10 0 0 -10z"/>
<path d="M1167 664 l-7 -7 6 -22 5 -22 -33 3 -33 3 18 -5 17 -5 0 -9 0 -9 -17
-5 -18 -5 37 4 38 4 25 27 26 27 -4 11 -4 11 -24 3 -25 3 -7 -7z m33 -14 l0
-10 -15 0 -15 0 0 10 0 10 15 0 15 0 0 -10z"/>
<path d="M1090 650 l0 -10 25 0 25 0 0 10 0 10 -25 0 -25 0 0 -10z"/>
<path d="M1060 605 l0 -15 9 0 9 0 6 15 5 15 -14 0 -15 0 0 -15z"/>
</g>
</svg>
