<?xml version="1.0" standalone="no"?>
<!DOCTYPE svg PUBLIC "-//W3C//DTD SVG 20010904//EN"
 "http://www.w3.org/TR/2001/REC-SVG-20010904/DTD/svg10.dtd">
<svg version="1.0" xmlns="http://www.w3.org/2000/svg"
 width="468pt" height="468pt" viewBox="0 0 468 468"
 preserveAspectRatio="xMidYMid meet">
<metadata>
Created by potrace 1.8, written by Peter Selinger 2001-2007
</metadata>
<g transform="translate(0,468) scale(0.365625,-0.365625)"
fill="#000000" stroke="none">
<path d="M620 1260 l0 -20 -20 0 -20 0 0 -40 0 -40 -20 0 -20 0 0 -45 0 -45
-20 0 -20 0 0 -80 0 -80 -25 0 -25 0 0 20 0 20 -60 0 -60 0 0 -60 0 -60 20 0
20 0 0 -25 0 -25 -80 0 -80 0 0 -20 0 -20 -45 0 -45 0 0 -20 0 -20 -40 0 -40
0 0 -20 0 -20 -20 0 -20 0 0 -20 0 -20 20 0 20 0 0 -20 0 -20 40 0 40 0 0 -20
0 -20 45 0 45 0 0 -20 0 -20 80 0 80 0 0 -25 0 -25 -20 0 -20 0 0 -60 0 -60
60 0 60 0 0 20 0 20 25 0 25 0 0 -80 0 -80 20 0 20 0 0 -45 0 -45 20 0 20 0 0
-40 0 -40 20 0 20 0 0 -20 0 -20 20 0 20 0 0 20 0 20 20 0 20 0 0 40 0 40 20
0 20 0 0 45 0 45 20 0 20 0 0 80 0 80 25 0 25 0 0 -20 0 -20 60 0 60 0 0 60 0
60 -20 0 -20 0 0 25 0 25 80 0 80 0 0 20 0 20 45 0 45 0 0 20 0 20 40 0 40 0
0 20 0 20 20 0 20 0 0 20 0 20 -20 0 -20 0 0 20 0 20 -40 0 -40 0 0 20 0 20
-45 0 -45 0 0 20 0 20 -80 0 -80 0 0 25 0 25 20 0 20 0 0 60 0 60 -60 0 -60 0
0 -20 0 -20 -25 0 -25 0 0 80 0 80 -20 0 -20 0 0 45 0 45 -20 0 -20 0 0 40 0
40 -20 0 -20 0 0 20 0 20 -20 0 -20 0 0 -20z m40 -60 l0 -40 20 0 20 0 0 -45
0 -45 20 0 20 0 0 -80 0 -80 20 0 20 0 0 -20 0 -20 25 0 25 0 0 20 0 20 40 0
40 0 0 -40 0 -40 -20 0 -20 0 0 -25 0 -25 20 0 20 0 0 -20 0 -20 80 0 80 0 0
-20 0 -20 45 0 45 0 0 -20 0 -20 40 0 40 0 0 -20 0 -20 -40 0 -40 0 0 -20 0
-20 -45 0 -45 0 0 -20 0 -20 -80 0 -80 0 0 -20 0 -20 -20 0 -20 0 0 -25 0 -25
20 0 20 0 0 -40 0 -40 -40 0 -40 0 0 20 0 20 -25 0 -25 0 0 -20 0 -20 -20 0
-20 0 0 -80 0 -80 -20 0 -20 0 0 -45 0 -45 -20 0 -20 0 0 -40 0 -40 -20 0 -20
0 0 40 0 40 -20 0 -20 0 0 45 0 45 -20 0 -20 0 0 80 0 80 -20 0 -20 0 0 20 0
20 -25 0 -25 0 0 -20 0 -20 -40 0 -40 0 0 40 0 40 20 0 20 0 0 25 0 25 -20 0
-20 0 0 20 0 20 -80 0 -80 0 0 20 0 20 -45 0 -45 0 0 20 0 20 -40 0 -40 0 0
20 0 20 40 0 40 0 0 20 0 20 45 0 45 0 0 20 0 20 80 0 80 0 0 20 0 20 20 0 20
0 0 25 0 25 -20 0 -20 0 0 40 0 40 40 0 40 0 0 -20 0 -20 25 0 25 0 0 20 0 20
20 0 20 0 0 80 0 80 20 0 20 0 0 45 0 45 20 0 20 0 0 40 0 40 20 0 20 0 0 -40z"/>
<path d="M540 890 l0 -20 -20 0 -20 0 0 -20 0 -20 20 0 20 0 0 -45 0 -45 -45
0 -45 0 0 20 0 20 -20 0 -20 0 0 -20 0 -20 -20 0 -20 0 0 -20 0 -20 20 0 20 0
0 -20 0 -20 20 0 20 0 0 -20 0 -20 -20 0 -20 0 0 -20 0 -20 -20 0 -20 0 0 -20
0 -20 20 0 20 0 0 -20 0 -20 20 0 20 0 0 20 0 20 45 0 45 0 0 -45 0 -45 -20 0
-20 0 0 -20 0 -20 20 0 20 0 0 -20 0 -20 20 0 20 0 0 20 0 20 20 0 20 0 0 20
0 20 20 0 20 0 0 -20 0 -20 20 0 20 0 0 -20 0 -20 20 0 20 0 0 20 0 20 20 0
20 0 0 20 0 20 -20 0 -20 0 0 45 0 45 45 0 45 0 0 -20 0 -20 20 0 20 0 0 20 0
20 20 0 20 0 0 20 0 20 -20 0 -20 0 0 20 0 20 -20 0 -20 0 0 20 0 20 20 0 20
0 0 20 0 20 20 0 20 0 0 20 0 20 -20 0 -20 0 0 20 0 20 -20 0 -20 0 0 -20 0
-20 -45 0 -45 0 0 45 0 45 20 0 20 0 0 20 0 20 -20 0 -20 0 0 20 0 20 -20 0
-20 0 0 -20 0 -20 -20 0 -20 0 0 -20 0 -20 -20 0 -20 0 0 20 0 20 -20 0 -20 0
0 20 0 20 -20 0 -20 0 0 -20z m40 -40 l0 -20 -20 0 -20 0 0 20 0 20 20 0 20 0
0 -20z m160 0 l0 -20 -20 0 -20 0 0 20 0 20 20 0 20 0 0 -20z m-40 -110 l0
-40 40 0 40 0 0 -60 0 -60 -40 0 -40 0 0 -40 0 -40 -60 0 -60 0 0 40 0 40 -40
0 -40 0 0 60 0 60 40 0 40 0 0 40 0 40 60 0 60 0 0 -40z m-250 -20 l0 -20 -20
0 -20 0 0 20 0 20 20 0 20 0 0 -20z m420 0 l0 -20 -20 0 -20 0 0 20 0 20 20 0
20 0 0 -20z m-420 -160 l0 -20 -20 0 -20 0 0 20 0 20 20 0 20 0 0 -20z m420 0
l0 -20 -20 0 -20 0 0 20 0 20 20 0 20 0 0 -20z m-290 -130 l0 -20 -20 0 -20 0
0 20 0 20 20 0 20 0 0 -20z m160 0 l0 -20 -20 0 -20 0 0 20 0 20 20 0 20 0 0
-20z"/>
<path d="M580 640 l0 -60 60 0 60 0 0 60 0 60 -60 0 -60 0 0 -60z m80 0 l0
-20 -20 0 -20 0 0 20 0 20 20 0 20 0 0 -20z"/>
</g>
</svg>
