<?xml version="1.0" standalone="no"?>
<!DOCTYPE svg PUBLIC "-//W3C//DTD SVG 20010904//EN"
 "http://www.w3.org/TR/2001/REC-SVG-20010904/DTD/svg10.dtd">
<svg version="1.0" xmlns="http://www.w3.org/2000/svg"
 width="468pt" height="468pt" viewBox="0 0 468 468"
 preserveAspectRatio="xMidYMid meet">
<metadata>
Created by potrace 1.8, written by Peter Selinger 2001-2007
</metadata>
<g transform="translate(0,468) scale(0.365625,-0.365625)"
fill="#000000" stroke="none">
<path d="M160 1240 l0 -40 40 0 40 0 0 40 0 40 -40 0 -40 0 0 -40z"/>
<path d="M320 1160 l0 -40 40 0 40 0 0 40 0 40 -40 0 -40 0 0 -40z"/>
<path d="M160 1080 l0 -40 40 0 40 0 0 40 0 40 -40 0 -40 0 0 -40z"/>
<path d="M480 1080 l0 -40 40 0 40 0 0 40 0 40 -40 0 -40 0 0 -40z"/>
<path d="M640 1080 l0 -40 40 0 40 0 0 -40 0 -40 -40 0 -40 0 0 -40 0 -40 -40
0 -40 0 0 -440 0 -440 280 0 280 0 0 440 0 440 -40 0 -40 0 0 40 0 40 -40 0
-40 0 0 40 0 40 -40 0 -40 0 0 40 0 40 -40 0 -40 0 0 -40 0 -40 -40 0 -40 0 0
40 0 40 -40 0 -40 0 0 -40z m320 -160 l0 -40 -120 0 -120 0 0 40 0 40 120 0
120 0 0 -40z m80 -160 l0 -40 -120 0 -120 0 0 -240 0 -240 120 0 120 0 0 -80
0 -80 -200 0 -200 0 0 360 0 360 200 0 200 0 0 -40z m0 -160 l0 -40 -80 0 -80
0 0 40 0 40 80 0 80 0 0 -40z m0 -160 l0 -40 -80 0 -80 0 0 40 0 40 80 0 80 0
0 -40z"/>
<path d="M320 1000 l0 -40 40 0 40 0 0 40 0 40 -40 0 -40 0 0 -40z"/>
<path d="M160 920 l0 -40 40 0 40 0 0 40 0 40 -40 0 -40 0 0 -40z"/>
</g>
</svg>
