<?xml version="1.0" standalone="no"?>
<!DOCTYPE svg PUBLIC "-//W3C//DTD SVG 20010904//EN"
 "http://www.w3.org/TR/2001/REC-SVG-20010904/DTD/svg10.dtd">
<svg version="1.0" xmlns="http://www.w3.org/2000/svg"
 width="468pt" height="468pt" viewBox="0 0 468 468"
 preserveAspectRatio="xMidYMid meet">
<metadata>
Created by potrace 1.8, written by Peter Selinger 2001-2007
</metadata>
<g transform="translate(0,468) scale(0.365625,-0.365625)"
fill="#000000" stroke="none">
<path d="M450 1240 l0 -40 -75 0 -75 0 0 -35 0 -35 -35 0 -35 0 0 -40 0 -40
-40 0 -40 0 0 -35 0 -35 -35 0 -35 0 0 -75 0 -75 -40 0 -40 0 0 -190 0 -190
40 0 40 0 0 -75 0 -75 35 0 35 0 0 -35 0 -35 40 0 40 0 0 -40 0 -40 35 0 35 0
0 -35 0 -35 75 0 75 0 0 -40 0 -40 190 0 190 0 0 40 0 40 75 0 75 0 0 35 0 35
35 0 35 0 0 40 0 40 40 0 40 0 0 35 0 35 35 0 35 0 0 75 0 75 40 0 40 0 0 190
0 190 -40 0 -40 0 0 75 0 75 -35 0 -35 0 0 35 0 35 -40 0 -40 0 0 40 0 40 -35
0 -35 0 0 35 0 35 -75 0 -75 0 0 40 0 40 -190 0 -190 0 0 -40z m150 -600 l0
-560 -75 0 -75 0 0 35 0 35 -75 0 -75 0 0 40 0 40 -35 0 -35 0 0 35 0 35 -40
0 -40 0 0 75 0 75 -35 0 -35 0 0 190 0 190 35 0 35 0 0 75 0 75 40 0 40 0 0
35 0 35 35 0 35 0 0 40 0 40 75 0 75 0 0 35 0 35 75 0 75 0 0 -560z"/>
</g>
</svg>
