<?xml version="1.0" standalone="no"?>
<!DOCTYPE svg PUBLIC "-//W3C//DTD SVG 20010904//EN"
 "http://www.w3.org/TR/2001/REC-SVG-20010904/DTD/svg10.dtd">
<svg version="1.0" xmlns="http://www.w3.org/2000/svg"
 width="468pt" height="468pt" viewBox="0 0 468 468"
 preserveAspectRatio="xMidYMid meet">
<metadata>
Created by potrace 1.8, written by Peter Selinger 2001-2007
</metadata>
<g transform="translate(0,468) scale(0.365625,-0.365625)"
fill="#000000" stroke="none">
<path d="M740 1260 l0 -20 -20 0 -20 0 0 -20 0 -20 20 0 20 0 0 20 0 20 20 0
20 0 0 -85 0 -85 -20 0 -20 0 0 -20 0 -20 -20 0 -20 0 0 -20 0 -20 -20 0 -20
0 0 -105 0 -105 20 0 20 0 0 -40 0 -40 -20 0 -20 0 0 20 0 20 -105 0 -105 0 0
-20 0 -20 -40 0 -40 0 0 40 0 40 -20 0 -20 0 0 25 0 25 20 0 20 0 0 60 0 60
20 0 20 0 0 60 0 60 -20 0 -20 0 0 20 0 20 -20 0 -20 0 0 -20 0 -20 20 0 20 0
0 -40 0 -40 -20 0 -20 0 0 -20 0 -20 -20 0 -20 0 0 -20 0 -20 -20 0 -20 0 0
-65 0 -65 20 0 20 0 0 -20 0 -20 20 0 20 0 0 -20 0 -20 -40 0 -40 0 0 -20 0
-20 -40 0 -40 0 0 -20 0 -20 -45 0 -45 0 0 -20 0 -20 -20 0 -20 0 0 -20 0 -20
-20 0 -20 0 0 -185 0 -185 20 0 20 0 0 -45 0 -45 20 0 20 0 0 -40 0 -40 20 0
20 0 0 40 0 40 25 0 25 0 0 -20 0 -20 40 0 40 0 0 20 0 20 60 0 60 0 0 -20 0
-20 20 0 20 0 0 -20 0 -20 85 0 85 0 0 20 0 20 20 0 20 0 0 20 0 20 40 0 40 0
0 -20 0 -20 20 0 20 0 0 -20 0 -20 65 0 65 0 0 20 0 20 20 0 20 0 0 20 0 20
20 0 20 0 0 20 0 20 60 0 60 0 0 -20 0 -20 -40 0 -40 0 0 -20 0 -20 -20 0 -20
0 0 -20 0 -20 20 0 20 0 0 20 0 20 40 0 40 0 0 20 0 20 45 0 45 0 0 20 0 20
20 0 20 0 0 25 0 25 20 0 20 0 0 20 0 20 20 0 20 0 0 80 0 80 -20 0 -20 0 0
20 0 20 -20 0 -20 0 0 20 0 20 -65 0 -65 0 0 45 0 45 -20 0 -20 0 0 20 0 20
-20 0 -20 0 0 20 0 20 -20 0 -20 0 0 20 0 20 -40 0 -40 0 0 20 0 20 -65 0 -65
0 0 125 0 125 20 0 20 0 0 40 0 40 25 0 25 0 0 105 0 105 -25 0 -25 0 0 20 0
20 -20 0 -20 0 0 -20z m-80 -580 l0 -20 105 0 105 0 0 -20 0 -20 20 0 20 0 0
-20 0 -20 40 0 40 0 0 -40 0 -40 20 0 20 0 0 -45 0 -45 85 0 85 0 0 -20 0 -20
20 0 20 0 0 -80 0 -80 -20 0 -20 0 0 -20 0 -20 -20 0 -20 0 0 -25 0 -25 -45 0
-45 0 0 25 0 25 -20 0 -20 0 0 40 0 40 20 0 20 0 0 20 0 20 45 0 45 0 0 -20 0
-20 -25 0 -25 0 0 -20 0 -20 -20 0 -20 0 0 -20 0 -20 45 0 45 0 0 20 0 20 20
0 20 0 0 60 0 60 -20 0 -20 0 0 20 0 20 -45 0 -45 0 0 -20 0 -20 -40 0 -40 0
0 -20 0 -20 -20 0 -20 0 0 -40 0 -40 -20 0 -20 0 0 -45 0 -45 -20 0 -20 0 0
-20 0 -20 -45 0 -45 0 0 20 0 20 -20 0 -20 0 0 25 0 25 -80 0 -80 0 0 -25 0
-25 -20 0 -20 0 0 -20 0 -20 -45 0 -45 0 0 20 0 20 -20 0 -20 0 0 25 0 25 -20
0 -20 0 0 20 0 20 -60 0 -60 0 0 -20 0 -20 -20 0 -20 0 0 -25 0 -25 -20 0 -20
0 0 45 0 45 -25 0 -25 0 0 40 0 40 -20 0 -20 0 0 20 0 20 -20 0 -20 0 0 105 0
105 20 0 20 0 0 20 0 20 45 0 45 0 0 20 0 20 40 0 40 0 0 20 0 20 60 0 60 0 0
-20 0 -20 -40 0 -40 0 0 -20 0 -20 -60 0 -60 0 0 -20 0 -20 -25 0 -25 0 0 -20
0 -20 -20 0 -20 0 0 -65 0 -65 20 0 20 0 0 40 0 40 25 0 25 0 0 -20 0 -20 40
0 40 0 0 -20 0 -20 60 0 60 0 0 -20 0 -20 185 0 185 0 0 20 0 20 85 0 85 0 0
20 0 20 20 0 20 0 0 65 0 65 -20 0 -20 0 0 20 0 20 -65 0 -65 0 0 20 0 20
-185 0 -185 0 0 20 0 20 20 0 20 0 0 20 0 20 105 0 105 0 0 -20z m-250 -120
l0 -20 20 0 20 0 0 -45 0 -45 -20 0 -20 0 0 25 0 25 -20 0 -20 0 0 40 0 40 20
0 20 0 0 -20z m290 -20 l0 -40 -20 0 -20 0 0 -25 0 -25 -20 0 -20 0 0 45 0 45
20 0 20 0 0 20 0 20 20 0 20 0 0 -40z m-620 -350 l0 -20 -20 0 -20 0 0 20 0
20 20 0 20 0 0 -20z m40 -90 l0 -20 -20 0 -20 0 0 20 0 20 20 0 20 0 0 -20z"/>
<path d="M990 390 l0 -20 20 0 20 0 0 20 0 20 -20 0 -20 0 0 -20z"/>
<path d="M170 350 l0 -20 20 0 20 0 0 20 0 20 -20 0 -20 0 0 -20z"/>
<path d="M910 350 l0 -20 20 0 20 0 0 20 0 20 -20 0 -20 0 0 -20z"/>
<path d="M250 310 l0 -20 40 0 40 0 0 20 0 20 -40 0 -40 0 0 -20z"/>
<path d="M780 310 l0 -20 45 0 45 0 0 20 0 20 -45 0 -45 0 0 -20z"/>
<path d="M410 270 l0 -20 165 0 165 0 0 20 0 20 -165 0 -165 0 0 -20z"/>
</g>
</svg>
