<?xml version="1.0" standalone="no"?>
<!DOCTYPE svg PUBLIC "-//W3C//DTD SVG 20010904//EN"
 "http://www.w3.org/TR/2001/REC-SVG-20010904/DTD/svg10.dtd">
<svg version="1.0" xmlns="http://www.w3.org/2000/svg"
 width="468pt" height="468pt" viewBox="0 0 468 468"
 preserveAspectRatio="xMidYMid meet">
<metadata>
Created by potrace 1.8, written by Peter Selinger 2001-2007
</metadata>
<g transform="translate(0,468) scale(0.365625,-0.365625)"
fill="#000000" stroke="none">
<path d="M730 1240 l-14 -20 -24 0 -23 0 -15 -14 -14 -15 0 -32 0 -32 23 -20
22 -20 -12 -4 -13 -5 0 -19 0 -19 -10 0 -10 0 0 -16 0 -15 14 -15 15 -14 15 0
16 0 0 -15 0 -16 25 -24 24 -25 33 0 34 0 14 -20 14 -20 36 0 36 0 14 20 14
20 8 0 8 0 0 -20 0 -20 30 0 30 0 0 10 0 10 30 0 30 0 0 -10 0 -10 20 0 20 0
0 10 0 10 18 0 18 0 14 20 14 20 14 0 13 0 24 25 25 24 0 46 0 45 -10 0 -10 0
0 20 0 20 -10 0 -10 0 0 30 0 30 -10 0 -10 0 0 16 0 15 -14 15 -15 14 -25 0
-26 0 0 -10 0 -10 -16 0 -17 0 -20 23 -20 22 -4 -12 -5 -13 -17 0 -17 0 -14
20 -14 20 -45 0 -44 0 -18 -22 -19 -21 -19 21 -18 22 -34 0 -35 0 -14 -20z
m96 -14 l14 -15 0 -15 0 -16 6 0 5 0 15 14 14 15 0 15 0 16 46 0 45 0 15 -14
14 -15 0 -15 0 -16 6 0 7 0 18 21 19 22 29 -32 29 -31 6 0 6 0 0 20 0 20 16 0
15 0 15 -14 14 -15 0 -14 0 -15 13 -6 12 -6 -12 -6 -13 -6 0 -9 0 -9 20 0 20
0 0 -20 0 -20 10 0 10 0 0 -40 0 -40 -10 0 -10 0 0 -20 0 -20 -20 0 -20 0 0
10 0 10 -10 0 -10 0 0 -30 0 -30 -20 0 -20 0 0 -10 0 -10 -20 0 -20 0 0 20 0
20 -10 0 -10 0 0 -10 0 -10 -20 0 -20 0 0 -10 0 -10 -16 0 -17 0 -18 22 -19
21 -19 -21 -18 -22 -32 0 -32 0 -15 14 -14 15 0 15 0 16 -10 0 -10 0 0 -10 0
-10 -26 0 -25 0 -15 14 -14 15 0 11 0 11 -14 15 -15 14 -15 0 -16 0 0 18 0 18
20 14 20 14 0 26 0 26 -20 14 -20 14 0 14 0 13 14 15 15 14 23 0 24 0 14 20
14 20 24 0 23 0 15 -14z"/>
<path d="M780 1110 l0 -50 10 0 10 0 0 29 0 29 12 4 13 5 -17 16 -17 17 -5 0
-6 0 0 -50z"/>
<path d="M840 1141 l0 -19 -12 -6 -13 -6 13 -6 12 -6 0 -19 0 -19 10 0 10 0 0
50 0 50 -10 0 -10 0 0 -19z"/>
<path d="M893 1145 l-13 -14 0 -36 0 -35 10 0 10 0 0 20 0 20 20 0 20 0 0 -20
0 -20 10 0 10 0 0 36 0 35 -14 15 -15 14 -13 0 -13 -1 -12 -14z m47 -15 l0
-10 -20 0 -20 0 0 10 0 10 20 0 20 0 0 -10z"/>
<path d="M1000 1110 l0 -50 10 0 10 0 0 20 0 20 16 0 15 0 15 15 15 15 -15 15
-15 15 -25 0 -26 0 0 -50z m60 20 l0 -10 -20 0 -20 0 0 10 0 10 20 0 20 0 0
-10z"/>
<path d="M820 1030 l0 -10 10 0 10 0 0 -40 0 -40 10 0 10 0 0 40 0 40 10 0 10
0 0 10 0 10 -30 0 -30 0 0 -10z"/>
<path d="M900 990 l0 -50 10 0 10 0 0 50 0 50 -10 0 -10 0 0 -50z"/>
<path d="M960 990 l0 -50 10 0 10 0 0 30 0 30 9 0 9 0 6 -12 6 -13 6 13 6 12
9 0 9 0 0 -30 0 -30 10 0 10 0 0 50 0 50 -6 0 -7 0 -18 -22 -19 -21 -19 21
-18 22 -7 0 -6 0 0 -50z"/>
<path d="M1080 990 l0 -50 30 0 30 0 0 10 0 10 -20 0 -20 0 0 9 0 9 13 6 12 6
-12 6 -13 6 0 9 0 9 20 0 20 0 0 10 0 10 -30 0 -30 0 0 -50z"/>
<path d="M513 1065 l-13 -14 0 -11 0 -11 14 -15 15 -14 11 0 11 0 15 14 14 15
0 11 0 11 -14 15 -15 14 -13 0 -13 -1 -12 -14z m47 -25 l0 -20 -20 0 -20 0 0
20 0 20 20 0 20 0 0 -20z"/>
<path d="M392 964 l-13 -14 15 -15 15 -15 11 0 11 0 15 15 15 15 -15 15 -15
15 -13 0 -13 -1 -13 -15z m48 -14 l0 -10 -20 0 -20 0 0 10 0 10 20 0 20 0 0
-10z"/>
<path d="M252 864 l-14 -15 21 -18 21 -18 0 -7 0 -6 -30 0 -30 0 0 10 0 10
-46 0 -45 0 -15 -14 -14 -15 0 -13 0 -14 20 -14 20 -14 0 -18 0 -18 -10 0 -10
0 0 -30 0 -30 10 0 10 0 0 25 0 26 35 34 34 35 11 0 11 0 15 -15 15 -15 -15
-15 -15 -15 -11 0 -12 0 -38 -40 -38 -40 -22 0 -21 0 -34 -35 -35 -34 0 -21 0
-21 14 -15 15 -14 13 0 14 0 14 -20 14 -20 28 0 28 0 0 -10 0 -10 19 0 19 0 6
13 6 12 6 -12 6 -13 18 0 18 0 6 13 6 12 6 -12 6 -13 17 0 17 0 14 20 14 20
18 0 18 0 0 -10 0 -10 40 0 40 0 0 -30 0 -30 -10 0 -10 0 0 -40 0 -40 10 0 10
0 0 -16 0 -15 14 -15 15 -14 41 0 41 0 24 25 25 24 0 25 0 24 -12 6 -13 6 13
6 12 6 0 19 0 19 -10 0 -10 0 0 10 0 10 29 0 29 0 6 13 6 12 6 -12 6 -13 29 0
29 0 0 -60 0 -60 10 0 10 0 0 -15 0 -16 25 -24 24 -25 16 0 15 0 0 10 0 10 16
0 15 0 15 14 14 15 0 24 0 25 -12 6 -13 6 13 6 12 6 0 18 0 18 -12 4 -13 5 18
17 18 18 18 -21 18 -21 16 0 15 0 4 12 5 13 16 -17 17 -17 0 -41 0 -41 14 -15
15 -14 15 0 16 0 0 -10 0 -10 20 0 20 0 0 10 0 10 16 0 15 0 15 14 14 15 0 75
0 76 50 0 50 0 0 10 0 10 -50 0 -50 0 0 -10 0 -10 -10 0 -10 0 0 15 0 16 -25
24 -24 25 -16 0 -15 0 0 10 0 10 -39 0 -39 0 -4 -12 -5 -13 -16 17 -17 17 0
65 0 66 -10 0 -10 0 0 30 0 30 -20 0 -20 0 0 15 0 16 -35 34 -34 35 -16 0 -15
0 0 10 0 10 -90 0 -90 0 0 -10 0 -10 -16 0 -15 0 -15 -14 -14 -15 0 -15 0 -16
-20 0 -20 0 0 9 0 9 13 5 12 4 -9 9 -9 9 -4 -12 -5 -13 -9 0 -9 0 0 19 0 19
13 5 12 4 -7 8 -8 8 -20 -23 -20 -23 -19 21 -18 22 -17 0 -16 0 0 10 0 10 -67
0 -68 -1 -13 -15z m148 -14 l0 -10 15 0 16 0 34 -35 35 -34 0 -16 0 -15 9 0 9
0 4 12 4 12 39 -39 39 -39 -12 -4 -12 -4 0 -19 0 -19 20 0 20 0 0 -6 0 -5 -14
-15 -15 -14 -15 0 -16 0 0 -10 0 -10 10 0 10 0 0 -20 0 -20 -10 0 -10 0 0 10
0 10 -20 0 -20 0 0 -20 0 -20 -19 0 -19 0 -4 12 -5 13 -16 -17 -17 -17 0 -5 0
-6 40 0 40 0 0 10 0 10 25 0 26 0 24 25 25 24 0 16 0 15 10 0 10 0 0 40 0 40
-10 0 -10 0 0 18 0 18 -20 14 -20 14 0 18 0 18 5 0 6 0 24 -25 25 -24 0 -16 0
-15 10 0 10 0 0 20 0 20 -10 0 -10 0 0 18 0 18 -20 14 -20 14 0 8 0 8 15 0 16
0 34 -35 35 -34 0 -16 0 -15 10 0 10 0 0 30 0 30 -10 0 -10 0 0 20 0 20 -10 0
-10 0 0 10 0 10 15 0 16 0 24 -25 25 -24 0 -16 0 -15 10 0 10 0 0 -20 0 -20
10 0 10 0 0 50 0 50 5 0 6 0 24 -25 25 -24 0 -16 0 -15 -10 0 -10 0 0 -20 0
-20 6 0 7 0 18 21 18 21 17 -16 16 -17 -21 -18 -21 -18 0 -7 0 -6 20 0 20 0 0
10 0 10 10 0 10 0 0 -18 0 -18 -20 -14 -20 -14 0 -8 0 -8 20 0 20 0 0 -40 0
-40 -10 0 -10 0 0 -10 0 -10 19 0 19 0 5 13 4 12 20 -22 20 -23 7 0 6 0 0 20
0 20 6 0 7 0 19 -22 19 -22 9 13 8 14 28 -28 28 -29 -12 -4 -12 -4 0 -9 0 -9
20 0 20 0 0 -20 0 -20 -20 0 -20 0 0 -8 0 -8 20 -14 20 -14 0 -18 0 -18 -19 0
-19 0 -5 -12 -4 -13 -9 8 -8 8 14 9 14 9 -7 7 -7 7 -19 -21 -18 -22 -7 0 -6 0
0 20 0 20 -10 0 -10 0 0 50 0 50 -9 0 -9 0 -5 -12 -5 -13 -12 15 -12 15 -5
-12 -5 -13 -14 0 -15 0 -24 25 -25 24 0 56 0 55 -10 0 -10 0 0 15 0 16 -35 34
-34 35 -26 0 -25 0 0 -10 0 -10 25 0 26 0 24 -25 25 -24 0 -16 0 -15 10 0 10
0 0 -79 0 -79 -12 -6 -13 -6 13 -6 12 -6 0 -18 0 -18 -12 -6 -13 -6 13 -6 12
-6 0 -29 0 -29 -19 0 -19 0 -5 13 -4 12 -9 -9 -9 -9 13 -4 12 -5 0 -9 0 -9
-16 0 -15 0 -15 14 -14 15 0 15 0 16 -10 0 -10 0 0 60 0 60 16 0 15 0 15 14
14 15 0 15 0 16 -8 0 -8 0 -14 -20 -14 -20 -28 0 -28 0 0 10 0 10 10 0 10 0 0
10 0 10 -30 0 -30 0 0 10 0 10 10 0 10 0 0 10 0 10 -20 0 -20 0 0 20 0 20 -10
0 -10 0 0 -40 0 -40 10 0 10 0 0 -20 0 -20 -40 0 -40 0 0 20 0 20 -10 0 -10 0
0 -28 0 -28 20 -14 20 -14 0 -17 0 -17 -12 -6 -13 -6 13 -6 12 -6 0 -29 0 -29
-6 0 -7 0 -18 22 -19 21 -8 -8 -7 -8 13 -4 12 -5 0 -19 0 -19 -6 0 -7 0 -18
22 -19 21 -8 -8 -7 -8 13 -4 12 -5 0 -9 0 -9 -20 0 -20 0 0 20 0 20 -10 0 -10
0 0 40 0 40 10 0 10 0 0 50 0 50 -10 0 -10 0 0 -10 0 -10 -36 0 -36 0 -28 30
-28 30 -46 0 -46 0 0 10 0 10 -16 0 -15 0 -16 15 -15 16 7 7 8 7 4 -12 5 -13
19 0 19 0 0 10 0 10 19 0 19 0 5 13 4 12 8 -7 7 -7 -15 -16 -16 -15 -15 0 -16
0 0 -10 0 -10 16 0 16 0 38 40 38 40 22 0 22 0 28 30 28 30 26 0 26 0 0 10 0
10 20 0 20 0 0 -29 0 -29 -12 -5 -13 -4 7 -8 7 -7 16 15 15 16 0 21 0 21 -14
15 -15 14 -25 0 -26 0 0 -10 0 -10 -10 0 -10 0 0 30 0 30 -10 0 -10 0 0 15 0
16 -25 24 -24 25 -26 0 -25 0 0 -10 0 -10 -20 0 -20 0 0 5 0 6 13 14 12 14 38
1 37 0 0 -10z m6 -44 l14 -15 0 -15 0 -16 10 0 10 0 0 -20 0 -20 -30 0 -30 0
0 10 0 10 -60 0 -60 0 0 16 0 15 14 15 15 14 25 0 26 0 0 10 0 10 26 0 25 0
15 -14z m-186 -11 l0 -6 -25 -25 -25 -25 -15 15 -15 15 0 5 0 6 20 0 20 0 0
10 0 10 20 0 20 0 0 -5z m160 -85 l0 -10 30 0 30 0 0 -5 0 -6 -25 -24 -24 -25
-35 0 -34 0 -5 -12 -4 -13 -9 9 -9 9 13 4 12 5 0 17 0 17 -20 14 -20 14 0 8 0
8 50 0 50 0 0 -10z m-94 -24 l14 -15 0 -15 0 -16 -10 0 -10 0 0 -20 0 -20 -20
0 -20 0 0 -10 0 -10 -20 0 -20 0 0 10 0 10 -20 0 -20 0 0 10 0 10 10 0 10 0 0
16 0 15 14 15 15 14 15 0 16 0 0 10 0 10 16 0 15 0 15 -14z m-116 -126 l38
-40 16 0 16 0 0 -10 0 -10 50 0 50 0 0 -16 0 -15 -14 -15 -15 -14 -15 0 -16 0
0 9 0 9 13 5 12 4 -7 8 -8 8 -19 -21 -18 -22 -17 0 -16 0 0 9 0 9 13 5 12 4
-7 8 -8 8 -19 -21 -18 -22 -17 0 -16 0 0 10 0 10 -28 0 -28 0 -14 20 -14 20
-18 0 -18 0 0 25 0 26 23 24 22 24 23 0 24 1 38 -40z"/>
<path d="M470 640 l-14 -20 -18 0 -18 0 0 -10 0 -10 -40 0 -40 0 0 -10 0 -10
40 0 40 0 0 10 0 10 15 0 16 0 24 25 25 24 0 6 0 5 -8 0 -8 0 -14 -20z"/>
<path d="M0 450 l0 -10 30 0 30 0 0 10 0 10 -30 0 -30 0 0 -10z"/>
<path d="M0 100 l0 -100 640 0 640 0 0 100 0 100 -640 0 -640 0 0 -100z"/>
</g>
</svg>
