<?xml version="1.0" standalone="no"?>
<!DOCTYPE svg PUBLIC "-//W3C//DTD SVG 20010904//EN"
 "http://www.w3.org/TR/2001/REC-SVG-20010904/DTD/svg10.dtd">
<svg version="1.0" xmlns="http://www.w3.org/2000/svg"
 width="468pt" height="468pt" viewBox="0 0 468 468"
 preserveAspectRatio="xMidYMid meet">
<metadata>
Created by potrace 1.8, written by Peter Selinger 2001-2007
</metadata>
<g transform="translate(0,468) scale(0.365625,-0.365625)"
fill="#000000" stroke="none">
<path d="M160 660 l0 -620 20 0 20 0 0 -20 0 -20 500 0 500 0 0 500 0 500 -20
0 -20 0 0 20 0 20 -20 0 -20 0 0 20 0 20 -20 0 -20 0 0 20 0 20 -20 0 -20 0 0
20 0 20 -20 0 -20 0 0 20 0 20 -20 0 -20 0 0 20 0 20 -20 0 -20 0 0 20 0 20
-380 0 -380 0 0 -620z m720 560 l0 -20 -220 0 -220 0 0 -20 0 -20 -20 0 -20 0
0 -80 0 -80 -20 0 -20 0 0 -40 0 -40 140 0 140 0 0 40 0 40 -20 0 -20 0 0 40
0 40 140 0 140 0 0 -60 0 -60 20 0 20 0 0 -240 0 -240 -20 0 -20 0 0 -20 0
-20 -160 0 -160 0 0 40 0 40 20 0 20 0 0 20 0 20 20 0 20 0 0 40 0 40 -140 0
-140 0 0 -40 0 -40 20 0 20 0 0 -20 0 -20 20 0 20 0 0 -40 0 -40 -40 0 -40 0
0 -60 0 -60 40 0 40 0 0 -60 0 -60 -60 0 -60 0 0 20 0 20 -20 0 -20 0 0 -60 0
-60 20 0 20 0 0 20 0 20 60 0 60 0 0 -20 0 -20 60 0 60 0 0 20 0 20 60 0 60 0
0 -20 0 -20 20 0 20 0 0 60 0 60 -20 0 -20 0 0 -20 0 -20 -60 0 -60 0 0 60 0
60 220 0 220 0 0 20 0 20 20 0 20 0 0 20 0 20 20 0 20 0 0 280 0 280 20 0 20
0 0 -440 0 -440 -460 0 -460 0 0 580 0 580 340 0 340 0 0 -20z m80 -40 l0 -20
20 0 20 0 0 -20 0 -20 20 0 20 0 0 -20 0 -20 20 0 20 0 0 -20 0 -20 20 0 20 0
0 -20 0 -20 -100 0 -100 0 0 100 0 100 20 0 20 0 0 -20z m-440 -700 l0 -40
-20 0 -20 0 0 40 0 40 20 0 20 0 0 -40z m0 -180 l0 -20 -20 0 -20 0 0 20 0 20
20 0 20 0 0 -20z m0 -80 l0 -20 -20 0 -20 0 0 20 0 20 20 0 20 0 0 -20z"/>
</g>
</svg>
