<?xml version="1.0" standalone="no"?>
<!DOCTYPE svg PUBLIC "-//W3C//DTD SVG 20010904//EN"
 "http://www.w3.org/TR/2001/REC-SVG-20010904/DTD/svg10.dtd">
<svg version="1.0" xmlns="http://www.w3.org/2000/svg"
 width="468pt" height="468pt" viewBox="0 0 468 468"
 preserveAspectRatio="xMidYMid meet">
<metadata>
Created by potrace 1.8, written by Peter Selinger 2001-2007
</metadata>
<g transform="translate(0,468) scale(0.365625,-0.365625)"
fill="#000000" stroke="none">
<path d="M40 1260 l0 -20 -20 0 -20 0 0 -600 0 -600 20 0 20 0 0 -20 0 -20
260 0 260 0 0 40 0 40 20 0 20 0 0 -40 0 -40 40 0 40 0 0 40 0 40 20 0 20 0 0
-40 0 -40 260 0 260 0 0 20 0 20 20 0 20 0 0 600 0 600 -20 0 -20 0 0 20 0 20
-260 0 -260 0 0 -40 0 -40 -20 0 -20 0 0 40 0 40 -40 0 -40 0 0 -40 0 -40 -20
0 -20 0 0 40 0 40 -260 0 -260 0 0 -20z m520 -80 l0 -20 20 0 20 0 0 20 0 20
40 0 40 0 0 -20 0 -20 20 0 20 0 0 20 0 20 240 0 240 0 0 -560 0 -560 -240 0
-240 0 0 20 0 20 -20 0 -20 0 0 -20 0 -20 -40 0 -40 0 0 20 0 20 -20 0 -20 0
0 -20 0 -20 -240 0 -240 0 0 560 0 560 240 0 240 0 0 -20z"/>
<path d="M120 640 l0 -520 220 0 220 0 0 20 0 20 20 0 20 0 0 -20 0 -20 40 0
40 0 0 60 0 60 20 0 20 0 0 -20 0 -20 20 0 20 0 0 20 0 20 -20 0 -20 0 0 20 0
20 -20 0 -20 0 0 60 0 60 20 0 20 0 0 -20 0 -20 20 0 20 0 0 20 0 20 -20 0
-20 0 0 20 0 20 -20 0 -20 0 0 80 0 80 20 0 20 0 0 -20 0 -20 20 0 20 0 0 20
0 20 -20 0 -20 0 0 20 0 20 -20 0 -20 0 0 80 0 80 20 0 20 0 0 -20 0 -20 20 0
20 0 0 20 0 20 -20 0 -20 0 0 20 0 20 -20 0 -20 0 0 80 0 80 20 0 20 0 0 -20
0 -20 20 0 20 0 0 20 0 20 -20 0 -20 0 0 20 0 20 -20 0 -20 0 0 60 0 60 -40 0
-40 0 0 -60 0 -60 -20 0 -20 0 0 -20 0 -20 -20 0 -20 0 0 -20 0 -20 20 0 20 0
0 -20 0 -20 20 0 20 0 0 -40 0 -40 -20 0 -20 0 0 -20 0 -20 -20 0 -20 0 0 -20
0 -20 20 0 20 0 0 -20 0 -20 20 0 20 0 0 -40 0 -40 -20 0 -20 0 0 -20 0 -20
-20 0 -20 0 0 -20 0 -20 20 0 20 0 0 -20 0 -20 20 0 20 0 0 -40 0 -40 -20 0
-20 0 0 -20 0 -20 -20 0 -20 0 0 -20 0 -20 20 0 20 0 0 -20 0 -20 20 0 20 0 0
-20 0 -20 -20 0 -20 0 0 -20 0 -20 -20 0 -20 0 0 -20 0 -20 20 0 20 0 0 -20 0
-20 -200 0 -200 0 0 480 0 480 200 0 200 0 0 20 0 20 -220 0 -220 0 0 -520z
m560 380 l0 -20 -40 0 -40 0 0 -20 0 -20 -20 0 -20 0 0 20 0 20 20 0 20 0 0
20 0 20 40 0 40 0 0 -20z m0 -200 l0 -20 -40 0 -40 0 0 -20 0 -20 -20 0 -20 0
0 20 0 20 20 0 20 0 0 20 0 20 40 0 40 0 0 -20z m0 -200 l0 -20 -40 0 -40 0 0
-20 0 -20 -20 0 -20 0 0 20 0 20 20 0 20 0 0 20 0 20 40 0 40 0 0 -20z m0
-200 l0 -20 -40 0 -40 0 0 -20 0 -20 -20 0 -20 0 0 20 0 20 20 0 20 0 0 20 0
20 40 0 40 0 0 -20z m0 -160 l0 -20 -40 0 -40 0 0 -20 0 -20 -20 0 -20 0 0 20
0 20 20 0 20 0 0 20 0 20 40 0 40 0 0 -20z"/>
<path d="M720 1140 l0 -20 100 0 100 0 0 -20 0 -20 20 0 20 0 0 -60 0 -60 -20
0 -20 0 0 -20 0 -20 -20 0 -20 0 0 -40 0 -40 -20 0 -20 0 0 -20 0 -20 -20 0
-20 0 0 -20 0 -20 20 0 20 0 0 -20 0 -20 20 0 20 0 0 -20 0 -20 20 0 20 0 0
-20 0 -20 20 0 20 0 0 -40 0 -40 20 0 20 0 0 -20 0 -20 20 0 20 0 0 -20 0 -20
20 0 20 0 0 -20 0 -20 20 0 20 0 0 -140 0 -140 -200 0 -200 0 0 -20 0 -20 220
0 220 0 0 520 0 520 -100 0 -100 0 0 -20 0 -20 -20 0 -20 0 0 20 0 20 -100 0
-100 0 0 -20z m400 -280 l0 -260 -20 0 -20 0 0 -40 0 -40 -20 0 -20 0 0 20 0
20 -20 0 -20 0 0 40 0 40 -20 0 -20 0 0 20 0 20 -20 0 -20 0 0 20 0 20 -20 0
-20 0 0 20 0 20 -20 0 -20 0 0 20 0 20 20 0 20 0 0 20 0 20 20 0 20 0 0 40 0
40 40 0 40 0 0 80 0 80 -20 0 -20 0 0 20 0 20 80 0 80 0 0 -260z"/>
<path d="M1000 840 l0 -80 20 0 20 0 0 -80 0 -80 20 0 20 0 0 80 0 80 -20 0
-20 0 0 80 0 80 -20 0 -20 0 0 -80z"/>
</g>
</svg>
