<?xml version="1.0" standalone="no"?>
<!DOCTYPE svg PUBLIC "-//W3C//DTD SVG 20010904//EN"
 "http://www.w3.org/TR/2001/REC-SVG-20010904/DTD/svg10.dtd">
<svg version="1.0" xmlns="http://www.w3.org/2000/svg"
 width="468pt" height="468pt" viewBox="0 0 468 468"
 preserveAspectRatio="xMidYMid meet">
<metadata>
Created by potrace 1.8, written by Peter Selinger 2001-2007
</metadata>
<g transform="translate(0,468) scale(0.365625,-0.365625)"
fill="#000000" stroke="none">
<path d="M580 1165 l0 -15 -35 0 -35 0 0 -15 0 -15 -15 0 -15 0 0 -15 0 -15
-15 0 -15 0 0 -50 0 -50 -35 0 -35 0 0 -15 0 -15 -15 0 -15 0 0 -15 0 -15 -15
0 -15 0 0 -35 0 -35 -15 0 -15 0 0 -30 0 -30 -15 0 -15 0 0 -30 0 -30 -20 0
-20 0 0 -80 0 -80 -15 0 -15 0 0 -80 0 -80 -15 0 -15 0 0 -20 0 -20 -15 0 -15
0 0 -30 0 -30 15 0 15 0 0 -15 0 -15 -15 0 -15 0 0 -35 0 -35 -15 0 -15 0 0
-60 0 -60 15 0 15 0 0 -35 0 -35 15 0 15 0 0 -15 0 -15 30 0 30 0 0 15 0 15
115 0 115 0 0 15 0 15 30 0 30 0 0 -15 0 -15 15 0 15 0 0 -15 0 -15 20 0 20 0
0 15 0 15 -20 0 -20 0 0 15 0 15 -15 0 -15 0 0 100 0 100 15 0 15 0 0 30 0 30
20 0 20 0 0 15 0 15 30 0 30 0 0 15 0 15 65 0 65 0 0 -15 0 -15 30 0 30 0 0
-15 0 -15 15 0 15 0 0 -30 0 -30 20 0 20 0 0 -80 0 -80 -20 0 -20 0 0 -35 0
-35 -15 0 -15 0 0 -15 0 -15 15 0 15 0 0 15 0 15 20 0 20 0 0 35 0 35 15 0 15
0 0 80 0 80 -15 0 -15 0 0 30 0 30 -20 0 -20 0 0 15 0 15 -15 0 -15 0 0 15 0
15 -30 0 -30 0 0 20 0 20 -65 0 -65 0 0 -20 0 -20 -30 0 -30 0 0 -15 0 -15
-20 0 -20 0 0 -15 0 -15 -15 0 -15 0 0 15 0 15 -15 0 -15 0 0 15 0 15 -30 0
-30 0 0 20 0 20 -65 0 -65 0 0 -20 0 -20 -35 0 -35 0 0 -15 0 -15 -15 0 -15 0
0 -15 0 -15 -15 0 -15 0 0 30 0 30 15 0 15 0 0 20 0 20 15 0 15 0 0 15 0 15
35 0 35 0 0 15 0 15 -35 0 -35 0 0 50 0 50 20 0 20 0 0 80 0 80 15 0 15 0 0
30 0 30 15 0 15 0 0 30 0 30 15 0 15 0 0 35 0 35 15 0 15 0 0 15 0 15 35 0 35
0 0 -15 0 -15 15 0 15 0 0 30 0 30 15 0 15 0 0 15 0 15 -15 0 -15 0 0 35 0 35
15 0 15 0 0 15 0 15 35 0 35 0 0 15 0 15 60 0 60 0 0 -15 0 -15 -15 0 -15 0 0
-15 0 -15 -15 0 -15 0 0 -15 0 -15 -65 0 -65 0 0 -20 0 -20 50 0 50 0 0 -15 0
-15 15 0 15 0 0 15 0 15 95 0 95 0 0 -15 0 -15 15 0 15 0 0 15 0 15 35 0 35 0
0 20 0 20 -50 0 -50 0 0 15 0 15 -15 0 -15 0 0 15 0 15 -15 0 -15 0 0 15 0 15
65 0 65 0 0 -15 0 -15 15 0 15 0 0 -15 0 -15 15 0 15 0 0 -35 0 -35 -15 0 -15
0 0 -15 0 -15 15 0 15 0 0 -30 0 -30 15 0 15 0 0 15 0 15 15 0 15 0 0 -15 0
-15 20 0 20 0 0 -35 0 -35 15 0 15 0 0 -30 0 -30 15 0 15 0 0 -30 0 -30 15 0
15 0 0 -145 0 -145 -15 0 -15 0 0 -65 0 -65 -15 0 -15 0 0 -65 0 -65 15 0 15
0 0 -15 0 -15 15 0 15 0 0 -50 0 -50 15 0 15 0 0 65 0 65 -30 0 -30 0 0 65 0
65 15 0 15 0 0 65 0 65 15 0 15 0 0 145 0 145 -15 0 -15 0 0 30 0 30 -15 0
-15 0 0 30 0 30 -15 0 -15 0 0 35 0 35 -15 0 -15 0 0 15 0 15 -20 0 -20 0 0
15 0 15 -15 0 -15 0 0 50 0 50 -15 0 -15 0 0 15 0 15 -15 0 -15 0 0 15 0 15
-15 0 -15 0 0 15 0 15 -65 0 -65 0 0 -15 0 -15 -35 0 -35 0 0 15 0 15 -60 0
-60 0 0 -15z m190 -60 l0 -15 15 0 15 0 0 -15 0 -15 -65 0 -65 0 0 15 0 15 15
0 15 0 0 15 0 15 35 0 35 0 0 -15z m-350 -740 l0 -15 30 0 30 0 0 -15 0 -15
15 0 15 0 0 -30 0 -30 -15 0 -15 0 0 -80 0 -80 -15 0 -15 0 0 -20 0 -20 -115
0 -115 0 0 -15 0 -15 -30 0 -30 0 0 35 0 35 -15 0 -15 0 0 60 0 60 15 0 15 0
0 35 0 35 15 0 15 0 0 15 0 15 15 0 15 0 0 15 0 15 35 0 35 0 0 15 0 15 65 0
65 0 0 -15z"/>
<path d="M220 160 l0 -30 35 0 35 0 0 30 0 30 -35 0 -35 0 0 -30z"/>
<path d="M740 495 l0 -15 45 0 45 0 0 -15 0 -15 15 0 15 0 0 15 0 15 -15 0
-15 0 0 15 0 15 -45 0 -45 0 0 -15z"/>
<path d="M1020 205 l0 -15 -15 0 -15 0 0 -30 0 -30 -15 0 -15 0 0 -35 0 -35
15 0 15 0 0 35 0 35 15 0 15 0 0 15 0 15 20 0 20 0 0 -80 0 -80 30 0 30 0 0
15 0 15 -15 0 -15 0 0 35 0 35 15 0 15 0 0 30 0 30 -15 0 -15 0 0 15 0 15 -15
0 -15 0 0 15 0 15 -20 0 -20 0 0 -15z"/>
<path d="M610 160 l0 -30 30 0 30 0 0 30 0 30 -30 0 -30 0 0 -30z"/>
</g>
</svg>
