<?xml version="1.0" standalone="no"?>
<!DOCTYPE svg PUBLIC "-//W3C//DTD SVG 20010904//EN"
 "http://www.w3.org/TR/2001/REC-SVG-20010904/DTD/svg10.dtd">
<svg version="1.0" xmlns="http://www.w3.org/2000/svg"
 width="468pt" height="468pt" viewBox="0 0 468 468"
 preserveAspectRatio="xMidYMid meet">
<metadata>
Created by potrace 1.8, written by Peter Selinger 2001-2007
</metadata>
<g transform="translate(0,468) scale(0.365625,-0.365625)"
fill="#000000" stroke="none">
<path d="M720 1190 l0 -10 -20 0 -20 0 0 -10 0 -10 -20 0 -20 0 0 -20 0 -20
-10 0 -10 0 0 -20 0 -20 -10 0 -10 0 0 -70 0 -70 -10 0 -10 0 0 -160 0 -160
-10 0 -10 0 0 120 0 120 -10 0 -10 0 0 30 0 30 -10 0 -10 0 0 20 0 20 -10 0
-10 0 0 18 0 18 -20 14 -20 14 0 14 0 13 -25 24 -24 25 -16 0 -15 0 0 10 0 10
-60 0 -60 0 0 -10 0 -10 -15 0 -16 0 -36 -36 -36 -36 14 -9 13 -8 -8 -8 -9 -8
-4 13 -5 12 -14 0 -15 0 -24 -25 -25 -24 0 -36 0 -35 10 0 10 0 0 -26 0 -25
14 -15 15 -14 21 0 21 0 15 14 14 15 0 15 0 16 10 0 10 0 0 45 0 46 35 34 34
35 26 0 25 0 0 -10 0 -10 16 0 15 0 15 -14 14 -15 0 -15 0 -16 10 0 10 0 0
-20 0 -20 10 0 10 0 0 -30 0 -30 10 0 10 0 0 -20 0 -20 10 0 10 0 0 -40 0 -40
10 0 10 0 0 -40 0 -40 10 0 10 0 0 -19 0 -19 13 -5 12 -4 -7 -8 -7 -7 -16 15
-15 16 0 15 0 16 -16 0 -16 0 -28 30 -28 30 -16 0 -16 0 0 10 0 10 -20 0 -20
0 0 10 0 10 -70 0 -70 0 0 -10 0 -10 -15 0 -15 0 -76 -76 -76 -75 23 -20 22
-19 -8 -8 -8 -7 -4 13 -5 12 -9 0 -9 0 0 -25 0 -26 25 -24 24 -25 21 0 21 0
24 25 25 24 0 26 0 25 -9 0 -9 0 -5 -12 -4 -13 -8 7 -8 8 22 20 23 19 -15 16
-16 15 -25 0 -26 0 0 10 0 10 30 0 30 0 0 -10 0 -10 18 0 18 0 14 20 14 20 18
0 18 0 0 10 0 10 30 0 30 0 0 -10 0 -10 20 0 20 0 0 -10 0 -10 16 0 16 0 38
-40 38 -40 16 0 16 0 0 -10 0 -10 20 0 20 0 0 -10 0 -10 -20 0 -20 0 0 10 0
10 -20 0 -20 0 0 10 0 10 -20 0 -20 0 0 -30 0 -30 -10 0 -10 0 0 -69 0 -69 13
-6 12 -6 -12 -6 -13 -6 0 -49 0 -49 10 0 10 0 0 -39 0 -39 13 -5 12 -4 -22
-20 -23 -20 0 -17 0 -16 29 0 29 0 6 13 6 12 6 -12 6 -13 19 0 19 0 0 30 0 30
-10 0 -10 0 0 39 0 39 -12 6 -13 6 13 6 12 6 0 49 0 49 10 0 10 0 0 -50 0 -50
-10 0 -10 0 0 -10 0 -10 20 0 20 0 0 -10 0 -10 90 0 90 0 0 10 0 10 20 0 20 0
0 10 0 10 -10 0 -10 0 0 50 0 50 10 0 10 0 0 -49 0 -49 13 -6 12 -6 -12 -6
-13 -6 0 -39 0 -39 -10 0 -10 0 0 -30 0 -30 19 0 19 0 6 13 6 12 6 -12 6 -13
29 0 29 0 0 16 0 17 -22 20 -23 20 13 4 12 5 0 59 0 59 10 0 10 0 0 40 0 40
-10 0 -10 0 0 10 0 10 20 0 20 0 0 -49 0 -49 -12 -4 -13 -5 17 -16 17 -17 15
0 16 0 0 -10 0 -10 20 0 20 0 0 -10 0 -10 20 0 20 0 0 -10 0 -10 29 0 29 0 5
-12 5 -13 11 15 10 14 7 -6 6 -7 -15 -16 -16 -15 -15 0 -16 0 0 10 0 10 -16 0
-15 0 -15 -14 -14 -15 0 -5 0 -6 30 0 30 0 0 -10 0 -10 46 0 45 0 15 14 14 15
0 25 0 26 -10 0 -10 0 0 20 0 20 -20 0 -20 0 0 10 0 10 -20 0 -20 0 0 10 0 10
-20 0 -20 0 0 10 0 10 -15 0 -15 0 -65 65 -65 65 0 45 0 45 -10 0 -10 0 0 26
0 25 -14 15 -15 14 -15 0 -16 0 0 -10 0 -10 -30 0 -30 0 0 10 0 10 30 0 30 0
0 10 0 10 30 0 30 0 0 10 0 10 15 0 16 0 44 45 45 44 0 16 0 15 10 0 10 0 0
30 0 30 10 0 10 0 0 50 0 50 10 0 10 0 0 16 0 15 15 16 16 15 18 -21 18 -21
57 0 56 0 0 10 0 10 -20 0 -20 0 0 10 0 10 36 0 35 0 15 15 15 15 -25 25 -25
25 -16 0 -15 0 0 10 0 10 -68 0 -68 0 -14 -20 -14 -20 -14 0 -13 0 -24 -25
-25 -24 0 -16 0 -15 -10 0 -10 0 0 -30 0 -30 -10 0 -10 0 0 -40 0 -40 -10 0
-10 0 0 -20 0 -20 -10 0 -10 0 0 -16 0 -15 -14 -15 -15 -14 -15 0 -16 0 0 -10
0 -10 -20 0 -20 0 0 -10 0 -10 -30 0 -30 0 0 -9 0 -9 13 -6 12 -6 -12 -6 -13
-6 0 -19 0 -19 -10 0 -10 0 0 19 0 19 13 6 12 6 -12 6 -13 6 0 119 0 119 10 0
10 0 0 90 0 90 10 0 10 0 0 20 0 20 19 0 19 0 5 13 4 12 9 -8 8 -8 -13 -9 -14
-8 16 -16 16 -16 15 0 16 0 0 -10 0 -10 20 0 20 0 0 6 0 7 -22 18 -21 19 8 8
8 7 4 -12 5 -13 19 0 19 0 0 -10 0 -10 16 0 15 0 17 17 17 16 -13 5 -12 4 0
14 0 15 -35 34 -34 35 -56 0 -55 0 0 -10z m126 -44 l14 -15 0 -5 0 -6 -20 0
-20 0 0 20 0 20 6 0 5 0 15 -14z m294 -116 l0 -10 20 0 20 0 0 -10 0 -10 -16
0 -15 0 -15 14 -14 15 0 5 0 6 10 0 10 0 0 -10z m-940 -96 l0 -5 -15 -16 -16
-15 -5 5 -6 6 13 15 14 15 8 1 7 0 0 -6z m-60 -420 l0 -5 -14 -15 -15 -14 -21
0 -21 0 -15 14 -14 15 0 5 0 6 50 0 50 0 0 -6z"/>
<path d="M353 505 l-13 -14 0 -26 0 -25 -10 0 -10 0 0 -70 0 -70 10 0 10 0 0
-40 0 -40 10 0 10 0 0 -20 0 -20 -10 0 -10 0 0 -30 0 -30 20 0 20 0 0 50 0 50
-10 0 -10 0 0 140 0 140 10 0 10 0 0 10 0 10 -7 0 -8 -1 -12 -14z"/>
<path d="M700 190 l0 -10 -16 0 -15 0 -15 -14 -14 -15 0 -15 0 -16 26 0 25 0
15 14 14 15 0 25 0 26 -10 0 -10 0 0 -10z"/>
</g>
</svg>
