<?xml version="1.0" standalone="no"?>
<!DOCTYPE svg PUBLIC "-//W3C//DTD SVG 20010904//EN"
 "http://www.w3.org/TR/2001/REC-SVG-20010904/DTD/svg10.dtd">
<svg version="1.0" xmlns="http://www.w3.org/2000/svg"
 width="468pt" height="468pt" viewBox="0 0 468 468"
 preserveAspectRatio="xMidYMid meet">
<metadata>
Created by potrace 1.8, written by Peter Selinger 2001-2007
</metadata>
<g transform="translate(0,468) scale(0.365625,-0.365625)"
fill="#000000" stroke="none">
<path d="M0 1095 l0 -185 15 0 15 0 0 -370 0 -370 -15 0 -15 0 0 -85 0 -85
135 0 135 0 0 15 0 15 15 0 15 0 0 -15 0 -15 355 0 355 0 0 15 0 15 15 0 15 0
0 -15 0 -15 120 0 120 0 0 65 0 65 -35 0 -35 0 0 -15 0 -15 -15 0 -15 0 0 -15
0 -15 -35 0 -35 0 0 -20 0 -20 -35 0 -35 0 0 20 0 20 35 0 35 0 0 15 0 15 35
0 35 0 0 15 0 15 15 0 15 0 0 20 0 20 35 0 35 0 0 370 0 370 -35 0 -35 0 0 15
0 15 -15 0 -15 0 0 20 0 20 -35 0 -35 0 0 15 0 15 -35 0 -35 0 0 15 0 15 -15
0 -15 0 0 20 0 20 -35 0 -35 0 0 15 0 15 -15 0 -15 0 0 20 0 20 -35 0 -35 0 0
15 0 15 -35 0 -35 0 0 15 0 15 -15 0 -15 0 0 20 0 20 15 0 15 0 0 -20 0 -20
35 0 35 0 0 -15 0 -15 35 0 35 0 0 -15 0 -15 15 0 15 0 0 -20 0 -20 35 0 35 0
0 -15 0 -15 15 0 15 0 0 -20 0 -20 35 0 35 0 0 -15 0 -15 35 0 35 0 0 -15 0
-15 15 0 15 0 0 -20 0 -20 35 0 35 0 0 170 0 170 -270 0 -270 0 0 -15 0 -15
-35 0 -35 0 0 15 0 15 -15 0 -15 0 0 -15 0 -15 -35 0 -35 0 0 15 0 15 -285 0
-285 0 0 -185z m570 135 l0 -20 -15 0 -15 0 0 -15 0 -15 -35 0 -35 0 0 -15 0
-15 -35 0 -35 0 0 -20 0 -20 -15 0 -15 0 0 -15 0 -15 -35 0 -35 0 0 -20 0 -20
-15 0 -15 0 0 -15 0 -15 -35 0 -35 0 0 -15 0 -15 -35 0 -35 0 0 -20 0 -20 -15
0 -15 0 0 -15 0 -15 -35 0 -35 0 0 15 0 15 35 0 35 0 0 20 0 20 15 0 15 0 0
15 0 15 35 0 35 0 0 15 0 15 35 0 35 0 0 20 0 20 15 0 15 0 0 15 0 15 35 0 35
0 0 20 0 20 15 0 15 0 0 15 0 15 35 0 35 0 0 15 0 15 35 0 35 0 0 20 0 20 15
0 15 0 0 -20z m-470 -1080 l0 -20 15 0 15 0 0 -15 0 -15 35 0 35 0 0 -15 0
-15 35 0 35 0 0 -20 0 -20 -35 0 -35 0 0 20 0 20 -35 0 -35 0 0 15 0 15 -15 0
-15 0 0 15 0 15 -35 0 -35 0 0 20 0 20 35 0 35 0 0 -20z"/>
</g>
</svg>
