<?xml version="1.0" standalone="no"?>
<!DOCTYPE svg PUBLIC "-//W3C//DTD SVG 20010904//EN"
 "http://www.w3.org/TR/2001/REC-SVG-20010904/DTD/svg10.dtd">
<svg version="1.0" xmlns="http://www.w3.org/2000/svg"
 width="468pt" height="468pt" viewBox="0 0 468 468"
 preserveAspectRatio="xMidYMid meet">
<metadata>
Created by potrace 1.8, written by Peter Selinger 2001-2007
</metadata>
<g transform="translate(0,468) scale(0.365625,-0.365625)"
fill="#000000" stroke="none">
<path d="M360 1090 l0 -30 26 0 25 0 15 -14 14 -15 0 -14 0 -15 13 -6 12 -6
-12 -6 -13 -6 0 -19 0 -19 -10 0 -10 0 0 -20 0 -20 -10 0 -10 0 0 -15 0 -16
-25 -24 -24 -25 -66 0 -65 0 0 10 0 10 70 0 70 0 0 10 0 10 -70 0 -70 0 0 -10
0 -10 -20 0 -20 0 0 -10 0 -10 -15 0 -16 0 -24 -25 -25 -24 0 -16 0 -15 -10 0
-10 0 0 -20 0 -20 -10 0 -10 0 0 -70 0 -70 10 0 10 0 0 -20 0 -20 10 0 10 0 0
-15 0 -16 25 -24 24 -25 16 0 15 0 0 -10 0 -10 20 0 20 0 0 -10 0 -10 70 0 70
0 0 10 0 10 20 0 20 0 0 10 0 10 15 0 16 0 24 25 25 24 0 16 0 15 10 0 10 0 0
20 0 20 9 0 9 0 5 -12 4 -13 9 9 9 9 -12 4 -13 5 0 69 0 69 -10 0 -10 0 0 20
0 20 -10 0 -10 0 0 15 0 16 -25 24 -24 25 -16 0 -15 0 0 10 0 10 10 0 10 0 0
20 0 20 10 0 10 0 0 20 0 20 20 0 20 0 0 -40 0 -40 10 0 10 0 0 -30 0 -30 10
0 10 0 0 -30 0 -30 10 0 10 0 0 -39 0 -39 13 -5 12 -5 -15 -11 -14 -10 24 -21
24 -21 -14 -9 -14 -9 7 -7 7 -7 19 22 20 23 28 -28 27 -28 -12 -4 -12 -4 0 -9
0 -9 40 0 40 0 0 5 0 6 -35 34 -34 35 -16 0 -15 0 0 9 0 9 13 5 12 4 -7 8 -8
8 -20 -23 -20 -23 -6 6 -6 5 146 146 146 146 5 0 5 0 0 -20 0 -20 10 0 10 0 0
-10 0 -10 -15 0 -16 0 -24 -25 -25 -24 0 -16 0 -15 -10 0 -10 0 0 -20 0 -20
-10 0 -10 0 0 -70 0 -70 10 0 10 0 0 -20 0 -20 10 0 10 0 0 -15 0 -16 25 -24
24 -25 16 0 15 0 0 -10 0 -10 20 0 20 0 0 -10 0 -10 70 0 70 0 0 10 0 10 20 0
20 0 0 10 0 10 15 0 16 0 24 25 25 24 0 16 0 15 10 0 10 0 0 20 0 20 10 0 10
0 0 70 0 70 -10 0 -10 0 0 20 0 20 -10 0 -10 0 0 15 0 16 -25 24 -24 25 -16 0
-15 0 0 10 0 10 -20 0 -20 0 0 10 0 10 -70 0 -70 0 0 -10 0 -10 70 0 70 0 0
-10 0 -10 -66 0 -65 0 -15 14 -14 15 0 25 0 26 -10 0 -10 0 0 40 0 40 -10 0
-10 0 0 40 0 40 -10 0 -10 0 0 20 0 20 10 0 10 0 0 -10 0 -10 29 0 29 0 5 -12
5 -13 10 14 10 14 16 -16 16 -16 0 -15 0 -16 -20 0 -20 0 0 -10 0 -10 -20 0
-20 0 0 -20 0 -20 20 0 20 0 0 10 0 10 26 0 25 0 15 14 14 15 0 31 0 31 -14
15 -15 14 -15 0 -16 0 0 10 0 10 -66 0 -65 0 -15 -14 -14 -15 0 -15 0 -16 10
0 10 0 0 -20 0 -20 10 0 10 0 0 -10 0 -10 -190 0 -190 0 0 20 0 20 -10 0 -10
0 0 10 0 10 50 0 50 0 0 10 0 10 -20 0 -20 0 0 10 0 10 -40 0 -40 0 0 10 0 10
-40 0 -40 0 0 -30z m500 -145 l0 -15 -135 -135 -135 -135 -5 0 -5 0 0 20 0 20
-10 0 -10 0 0 30 0 30 -10 0 -10 0 0 40 0 40 -10 0 -10 0 0 30 0 30 -10 0 -10
0 0 30 0 30 180 0 180 0 0 -15z m-640 -135 l0 -10 70 0 70 0 0 -10 0 -10 -10
0 -10 0 0 -20 0 -20 -10 0 -10 0 0 -20 0 -20 -20 0 -20 0 0 -20 0 -20 -9 0 -9
0 -5 13 -4 12 -8 -7 -7 -7 26 -26 26 -26 25 25 25 25 0 26 0 25 10 0 10 0 0
15 0 16 25 24 24 25 11 0 11 0 15 -14 14 -15 0 -15 0 -16 10 0 10 0 0 -20 0
-20 10 0 10 0 0 -70 0 -70 -10 0 -10 0 0 -20 0 -20 -10 0 -10 0 0 -16 0 -15
-14 -15 -15 -14 -15 0 -16 0 0 -10 0 -10 -20 0 -20 0 0 -10 0 -10 -70 0 -70 0
0 10 0 10 -20 0 -20 0 0 10 0 10 -16 0 -15 0 -15 14 -14 15 0 15 0 16 -10 0
-10 0 0 20 0 20 -10 0 -10 0 0 70 0 70 10 0 10 0 0 20 0 20 10 0 10 0 0 16 0
15 14 15 15 14 15 0 16 0 0 10 0 10 20 0 20 0 0 -10z m900 0 l0 -10 16 0 15 0
15 -14 14 -15 0 -15 0 -16 10 0 10 0 0 -20 0 -20 10 0 10 0 0 -70 0 -70 -10 0
-10 0 0 -20 0 -20 -10 0 -10 0 0 -16 0 -15 -14 -15 -15 -14 -15 0 -16 0 0 -10
0 -10 -20 0 -20 0 0 -10 0 -10 -70 0 -70 0 0 10 0 10 -20 0 -20 0 0 10 0 10
-16 0 -15 0 -15 14 -14 15 0 15 0 16 -10 0 -10 0 0 20 0 20 -10 0 -10 0 0 70
0 70 10 0 10 0 0 20 0 20 10 0 10 0 0 16 0 15 14 15 15 14 15 0 16 0 0 -6 0
-6 -30 -28 -30 -28 0 -16 0 -16 -10 0 -10 0 0 -70 0 -70 10 0 10 0 0 -15 0
-16 35 -34 34 -35 16 0 15 0 0 -10 0 -10 70 0 70 0 0 10 0 10 15 0 16 0 34 35
35 34 0 16 0 15 10 0 10 0 0 70 0 70 -10 0 -10 0 0 15 0 16 -35 34 -34 35 -16
0 -15 0 0 -10 0 -10 15 0 16 0 24 -25 25 -24 0 -16 0 -15 10 0 10 0 0 -70 0
-70 -10 0 -10 0 0 -15 0 -16 -25 -24 -24 -25 -16 0 -15 0 0 -10 0 -10 -70 0
-70 0 0 10 0 10 -15 0 -16 0 -24 25 -25 24 0 16 0 15 -10 0 -10 0 0 70 0 70
10 0 10 0 0 16 0 15 15 15 15 15 35 -35 35 -35 0 -13 0 -14 20 -14 20 -14 0
-18 0 -18 20 0 20 0 0 16 0 16 -30 28 -30 28 0 14 0 14 -20 14 -20 14 0 28 0
28 70 0 70 0 0 10 0 10 20 0 20 0 0 -10z"/>
<path d="M153 765 l-33 -34 0 -16 0 -15 -10 0 -10 0 0 -70 0 -70 10 0 10 0 0
-15 0 -16 35 -34 34 -35 16 0 15 0 0 -10 0 -10 70 0 70 0 0 10 0 10 15 0 16 0
34 35 35 34 0 16 0 15 10 0 10 0 0 70 0 70 -10 0 -10 0 0 15 0 16 -26 26 -25
25 -6 -6 -6 -6 21 -19 22 -18 0 -16 0 -15 13 -5 12 -5 -15 -12 -15 -12 13 -5
12 -5 0 -49 0 -49 -10 0 -10 0 0 -15 0 -16 -25 -24 -24 -25 -16 0 -15 0 0 -10
0 -10 -70 0 -70 0 0 10 0 10 -15 0 -16 0 -24 25 -25 24 0 16 0 15 -10 0 -10 0
0 70 0 70 10 0 10 0 0 15 0 16 25 24 24 25 16 0 15 0 0 10 0 10 -17 -1 -18 0
-32 -34z"/>
<path d="M360 670 l0 -10 10 0 10 0 0 10 0 10 -10 0 -10 0 0 -10z"/>
<path d="M400 670 l0 -10 10 0 10 0 0 10 0 10 -10 0 -10 0 0 -10z"/>
<path d="M220 630 l0 -10 20 0 20 0 0 -9 0 -9 -12 -5 -13 -4 9 -9 9 -9 4 13 5
12 9 0 9 0 0 -19 0 -19 -12 -4 -13 -5 17 -16 17 -17 11 0 11 0 16 15 15 16 -7
7 -8 7 -4 -12 -5 -13 -9 0 -9 0 0 30 0 30 9 0 9 0 5 -12 4 -13 9 9 9 9 -12 4
-13 5 0 9 0 9 20 0 20 0 0 10 0 10 -16 0 -17 0 -18 -22 -19 -21 -19 21 -18 22
-17 0 -16 0 0 -10z"/>
<path d="M360 550 l0 -10 10 0 10 0 0 10 0 10 -10 0 -10 0 0 -10z"/>
<path d="M400 550 l0 -10 10 0 10 0 0 10 0 10 -10 0 -10 0 0 -10z"/>
<path d="M960 1050 l0 -10 -20 0 -20 0 0 -10 0 -10 16 0 15 0 15 14 14 15 0 5
0 6 -10 0 -10 0 0 -10z"/>
<path d="M0 160 l0 -160 640 0 640 0 0 160 0 160 -640 0 -640 0 0 -160z"/>
</g>
</svg>
