<?xml version="1.0" standalone="no"?>
<!DOCTYPE svg PUBLIC "-//W3C//DTD SVG 20010904//EN"
 "http://www.w3.org/TR/2001/REC-SVG-20010904/DTD/svg10.dtd">
<svg version="1.0" xmlns="http://www.w3.org/2000/svg"
 width="468pt" height="468pt" viewBox="0 0 468 468"
 preserveAspectRatio="xMidYMid meet">
<metadata>
Created by potrace 1.8, written by Peter Selinger 2001-2007
</metadata>
<g transform="translate(0,468) scale(0.365625,-0.365625)"
fill="#000000" stroke="none">
<path d="M0 640 l0 -640 640 0 640 0 0 640 0 640 -640 0 -640 0 0 -640z m1170
0 l0 -530 -530 0 -530 0 0 530 0 530 530 0 530 0 0 -530z"/>
<path d="M430 1015 l0 -55 -55 0 -55 0 0 -105 0 -105 105 0 105 0 0 50 0 50
110 0 110 0 0 -50 0 -50 -55 0 -55 0 0 -55 0 -55 -55 0 -55 0 0 -105 0 -105
110 0 110 0 0 50 0 50 50 0 50 0 0 55 0 55 55 0 55 0 0 160 0 160 -55 0 -55 0
0 55 0 55 -210 0 -210 0 0 -55z"/>
<path d="M530 265 l0 -55 110 0 110 0 0 55 0 55 -110 0 -110 0 0 -55z"/>
</g>
</svg>
