<?xml version="1.0" standalone="no"?>
<!DOCTYPE svg PUBLIC "-//W3C//DTD SVG 20010904//EN"
 "http://www.w3.org/TR/2001/REC-SVG-20010904/DTD/svg10.dtd">
<svg version="1.0" xmlns="http://www.w3.org/2000/svg"
 width="468pt" height="468pt" viewBox="0 0 468 468"
 preserveAspectRatio="xMidYMid meet">
<metadata>
Created by potrace 1.8, written by Peter Selinger 2001-2007
</metadata>
<g transform="translate(0,468) scale(0.365625,-0.365625)"
fill="#000000" stroke="none">
<path d="M0 640 l0 -640 640 0 640 0 0 640 0 640 -640 0 -640 0 0 -640z m100
574 l0 -5 -15 -16 -16 -15 -5 5 -6 6 13 15 14 15 8 1 7 0 0 -6z m66 -30 l36
-35 -23 -20 -22 -19 23 -20 23 -20 -23 -20 -23 -20 23 -20 23 -20 -23 -20 -23
-20 23 -20 23 -20 -23 -20 -23 -20 22 -19 23 -20 -36 -36 -36 -36 -36 36 -36
36 23 20 22 19 -23 20 -23 20 23 20 23 20 -23 20 -23 20 23 20 23 20 -23 20
-23 20 23 20 23 20 -22 19 -23 20 34 35 33 35 3 0 3 1 35 -36z m21 21 l15 -16
-5 -6 -6 -5 -16 15 -15 16 0 5 0 6 6 0 5 0 16 -15z m76 3 l5 -13 11 15 11 15
10 -15 10 -15 9 14 9 14 18 -17 17 -18 -14 -9 -14 -9 15 -10 15 -10 -15 -10
-15 -10 15 -10 15 -10 -15 -10 -15 -10 15 -10 15 -10 -15 -10 -15 -10 15 -10
15 -10 -15 -10 -15 -10 15 -10 15 -10 -15 -10 -15 -10 15 -10 15 -10 -15 -10
-15 -10 15 -10 15 -10 -15 -10 -15 -10 15 -10 15 -10 -15 -10 -15 -10 15 -10
15 -10 -15 -10 -15 -10 15 -10 15 -10 -14 -9 -14 -9 16 -17 17 -16 17 16 16
17 -14 9 -14 9 15 10 15 10 -15 10 -15 10 15 10 15 10 -15 10 -15 10 15 10 15
10 -15 10 -15 10 15 10 15 10 -15 10 -15 10 15 10 15 10 -15 9 -14 10 7 7 7 7
19 -21 18 -22 23 0 23 0 18 22 19 21 7 -7 7 -7 -14 -10 -15 -9 15 -10 15 -10
-15 -10 -15 -10 15 -10 15 -10 -15 -10 -15 -10 15 -10 15 -10 -15 -10 -15 -10
15 -10 15 -10 -15 -10 -15 -10 15 -10 15 -10 -14 -9 -14 -9 16 -17 17 -16 17
16 16 17 -14 9 -14 9 15 10 15 10 -15 10 -15 10 15 10 15 10 -15 10 -15 10 15
10 15 10 -15 10 -15 10 15 10 15 10 -15 10 -15 10 15 10 15 10 -15 10 -15 10
15 10 15 10 -15 10 -15 10 15 10 15 10 -15 10 -15 10 15 10 15 10 -15 10 -15
10 15 10 15 10 -15 10 -15 10 15 10 15 10 -14 9 -14 9 16 17 17 16 17 -16 16
-17 -14 -9 -14 -9 15 -10 15 -10 -15 -10 -15 -10 15 -10 15 -10 -15 -10 -15
-10 15 -10 15 -10 -15 -10 -15 -10 15 -10 15 -10 -15 -10 -15 -10 15 -10 15
-10 -15 -10 -15 -10 15 -10 15 -10 -15 -10 -15 -10 15 -10 15 -10 -15 -10 -15
-10 15 -10 15 -10 -15 -10 -15 -10 15 -10 15 -10 -15 -10 -15 -10 15 -10 15
-10 -15 -10 -15 -10 15 -10 15 -10 -15 -10 -15 -10 15 -10 15 -10 -15 -10 -15
-10 15 -10 15 -10 -15 -10 -15 -10 15 -10 15 -10 -15 -10 -15 -10 15 -10 15
-10 -15 -10 -15 -10 15 -10 15 -10 -15 -10 -15 -10 15 -10 15 -10 -15 -10 -15
-10 15 -10 15 -10 -15 -10 -15 -10 15 -10 15 -10 -15 -10 -15 -10 15 -10 15
-10 -15 -10 -15 -10 15 -10 15 -10 -15 -10 -15 -10 15 -10 15 -10 -15 -10 -15
-10 15 -10 15 -10 -15 -10 -15 -10 15 -10 15 -10 -15 -10 -15 -10 15 -10 15
-10 -15 -10 -15 -10 15 -10 15 -10 -15 -10 -15 -10 15 -10 15 -10 -15 -10 -15
-10 15 -9 14 -10 -7 -8 -8 -7 -10 14 -11 15 -5 -12 -5 -13 -29 0 -29 0 0 9 0
9 13 5 12 4 -7 8 -8 8 -19 -21 -18 -22 -23 0 -23 0 -18 22 -19 21 -8 -8 -7 -8
13 -4 12 -5 0 -9 0 -9 -29 0 -29 0 -5 13 -5 12 -11 -15 -10 -14 -8 7 -7 8 14
10 15 9 -15 10 -15 10 15 10 15 10 -15 10 -15 10 15 10 15 10 -15 10 -15 10
15 10 15 10 -15 10 -15 10 15 10 15 10 -15 10 -15 10 15 10 15 10 -15 10 -15
10 15 10 15 10 -15 10 -15 10 15 10 15 10 -15 10 -15 10 15 10 15 10 -15 10
-15 10 15 10 15 10 -15 10 -15 10 14 9 14 9 -16 17 -17 16 -17 -16 -16 -17 14
-9 14 -9 -15 -10 -15 -10 15 -10 15 -10 -15 -10 -15 -10 15 -10 15 -10 -15
-10 -15 -10 15 -10 15 -10 -15 -10 -15 -10 15 -10 15 -10 -15 -10 -15 -10 15
-10 15 -10 -15 -10 -15 -10 15 -10 15 -10 -15 -10 -15 -10 15 -10 15 -10 -15
-10 -15 -10 15 -10 15 -10 -15 -10 -15 -10 15 -10 15 -10 -15 -10 -15 -10 15
-9 14 -10 -7 -8 -8 -7 -10 14 -11 15 -5 -12 -5 -13 -28 0 -28 0 -5 13 -5 12
-11 -15 -10 -14 -7 6 -7 7 33 31 33 30 -23 20 -23 20 23 20 23 20 -23 20 -23
20 23 20 23 20 -23 20 -23 20 23 20 23 20 -23 20 -23 20 22 19 23 20 -36 36
-37 36 -30 -32 -30 -32 -7 7 -6 7 14 10 15 9 -15 10 -15 10 15 10 15 10 -15
10 -15 10 15 10 15 10 -15 10 -15 10 15 10 15 10 -15 10 -15 10 15 10 15 10
-15 10 -15 10 15 10 15 10 -15 10 -15 10 15 10 15 10 -15 10 -15 10 15 10 15
10 -15 9 -14 10 6 7 7 7 31 -33 30 -32 30 32 31 33 7 -7 6 -7 -13 -9 -14 -8
16 -17 17 -16 17 16 16 17 -14 9 -14 9 15 10 15 10 -15 10 -15 10 15 10 15 10
-15 10 -15 10 15 10 15 10 -15 10 -15 10 15 10 15 10 -15 10 -15 10 15 10 15
10 -15 10 -15 10 15 10 15 10 -15 10 -15 10 15 10 15 10 -15 10 -15 10 15 10
15 10 -15 10 -15 10 15 10 15 10 -15 10 -15 10 15 10 15 10 -14 9 -14 9 14 16
14 15 7 1 6 0 5 -12z m157 6 l0 -5 -15 -16 -16 -15 -5 5 -6 6 13 15 14 15 8 1
7 0 0 -6z m87 -9 l15 -16 -5 -6 -6 -5 -16 15 -15 16 0 5 0 6 6 0 5 0 16 -15z
m197 3 l6 -13 6 13 6 12 28 0 28 0 5 -12 5 -13 11 15 10 14 8 -7 7 -8 -14 -10
-15 -9 15 -9 14 -10 -7 -7 -7 -7 -19 21 -18 22 -23 0 -23 0 -18 -22 -19 -21
-7 7 -7 7 14 10 15 11 -12 5 -13 5 0 9 0 9 9 0 9 0 6 -12z m160 0 l6 -13 6 13
6 12 28 0 28 0 5 -12 5 -13 11 15 10 14 8 -7 7 -8 -14 -10 -15 -9 15 -10 15
-10 -15 -10 -15 -10 15 -10 15 -10 -15 -10 -15 -10 15 -10 15 -10 -15 -10 -15
-10 15 -10 15 -10 -15 -10 -15 -10 15 -10 15 -10 -15 -10 -15 -10 15 -10 15
-10 -15 -10 -15 -10 15 -10 15 -10 -15 -10 -15 -10 15 -10 15 -10 -15 -10 -15
-10 15 -10 15 -10 -15 -10 -15 -10 15 -10 15 -10 -14 -9 -14 -9 16 -17 17 -16
17 16 16 17 -14 9 -14 9 15 10 15 10 -15 10 -15 10 15 10 15 10 -15 10 -15 10
15 10 15 10 -15 10 -15 10 15 10 15 10 -15 10 -15 10 15 10 15 10 -15 10 -15
10 15 10 15 10 -15 10 -15 10 15 10 15 10 -15 10 -15 10 15 10 15 10 -15 10
-15 10 15 10 15 10 -15 10 -15 10 15 10 15 10 -15 9 -14 10 7 8 8 7 10 -14 11
-15 5 13 5 12 29 0 29 0 0 -9 0 -9 -12 -5 -13 -4 7 -8 8 -8 19 21 18 22 26 0
25 0 5 -12 5 -13 11 15 10 14 8 -7 7 -8 -14 -10 -15 -9 15 -9 14 -10 -23 -20
-24 -21 22 -20 23 -19 -26 -26 -25 -25 -22 0 -22 0 -18 22 -19 21 -7 -7 -7 -7
14 -10 15 -9 -15 -10 -15 -10 15 -10 15 -10 -15 -10 -15 -10 15 -10 15 -10
-15 -10 -15 -10 15 -10 15 -10 -15 -10 -15 -10 15 -10 15 -10 -15 -10 -15 -10
15 -10 15 -10 -15 -10 -15 -10 15 -10 15 -10 -15 -10 -15 -10 14 -9 14 -9 -16
-17 -17 -16 -17 16 -16 17 14 9 14 9 -15 10 -15 10 15 10 15 10 -15 10 -15 10
15 10 15 10 -15 10 -15 10 15 10 15 10 -15 10 -15 10 15 10 15 10 -15 10 -15
10 15 10 15 10 -15 10 -15 10 15 10 15 10 -15 10 -15 10 15 10 15 10 -15 10
-15 10 15 10 15 10 -15 10 -15 10 15 10 15 10 -15 10 -15 10 15 9 14 10 -6 7
-7 6 -17 -17 -17 -17 14 -9 14 -9 -15 -10 -15 -10 15 -10 15 -10 -15 -10 -15
-10 15 -10 15 -10 -15 -10 -15 -10 15 -10 15 -10 -15 -10 -15 -10 15 -10 15
-10 -15 -10 -15 -10 15 -10 15 -10 -15 -10 -15 -10 15 -10 15 -10 -15 -10 -15
-10 15 -10 15 -10 -15 -10 -15 -10 15 -10 15 -10 -15 -10 -15 -10 15 -10 15
-10 -15 -10 -15 -10 15 -10 15 -10 -15 -9 -14 -10 7 -8 8 -7 10 14 9 15 10
-15 10 -15 10 15 10 15 9 -15 10 -14 8 7 7 8 -14 10 -15 9 15 10 15 10 -15 10
-15 10 15 10 15 10 -15 10 -15 10 15 10 15 10 -15 10 -15 10 15 10 15 10 -15
10 -15 10 15 10 15 10 -15 10 -15 10 15 10 15 10 -15 10 -15 10 15 10 15 10
-15 9 -14 10 6 7 7 6 17 -17 17 -17 -14 -9 -14 -9 15 -10 15 -10 -15 -10 -15
-10 15 -10 15 -10 -15 -10 -15 -10 15 -10 15 -10 -15 -10 -15 -10 15 -10 15
-10 -15 -10 -15 -10 15 -10 15 -10 -14 -9 -14 -9 16 -17 17 -16 17 16 16 17
-14 9 -14 9 15 10 15 10 -15 10 -15 10 15 10 15 10 -15 10 -15 10 15 10 15 10
-15 10 -15 10 15 10 15 10 -15 10 -15 10 15 10 15 10 -14 9 -14 9 27 27 27 27
7 -6 6 -7 -14 -10 -15 -9 15 -10 15 -10 -15 -10 -15 -10 15 -10 15 -10 -15
-10 -15 -10 15 -10 15 -10 -15 -10 -15 -10 15 -10 15 -10 -15 -10 -15 -10 15
-10 15 -10 -15 -10 -15 -10 15 -10 15 -10 -15 -10 -15 -10 15 -10 15 -10 -15
-10 -15 -10 15 -10 15 -10 -15 -10 -15 -10 15 -10 15 -10 -15 -10 -15 -10 15
-10 15 -10 -15 -10 -15 -10 15 -10 15 -10 -15 -10 -15 -10 15 -10 15 -10 -15
-10 -15 -10 15 -10 15 -10 -15 -10 -15 -10 15 -10 15 -10 -15 -10 -15 -10 15
-10 15 -10 -15 -10 -15 -10 15 -10 15 -10 -15 -10 -15 -10 15 -10 15 -10 -15
-10 -15 -10 15 -10 15 -10 -15 -10 -15 -10 15 -10 15 -10 -15 -10 -15 -10 15
-10 15 -10 -15 -10 -15 -10 15 -9 14 -10 -7 -7 -7 -7 -19 21 -18 22 -23 0 -23
0 -18 -22 -19 -21 -7 7 -7 7 14 10 15 9 -15 10 -15 10 15 10 15 10 -15 10 -15
10 15 10 15 10 -15 10 -15 10 15 10 15 10 -15 10 -15 10 15 10 15 10 -15 10
-15 10 15 10 15 10 -15 10 -15 10 15 10 15 10 -15 10 -15 10 14 9 14 9 -16 17
-17 16 -17 -16 -16 -17 14 -9 14 -9 -15 -10 -15 -10 15 -10 15 -10 -15 -10
-15 -10 15 -10 15 -10 -15 -10 -15 -10 15 -10 15 -10 -15 -10 -15 -10 15 -10
15 -10 -15 -10 -15 -10 15 -10 15 -10 -15 -10 -15 -10 15 -10 15 -10 -15 -10
-15 -10 15 -10 15 -10 -15 -10 -15 -10 15 -10 15 -10 -15 -10 -15 -10 15 -10
15 -10 -15 -10 -15 -10 14 -9 14 -9 -17 -18 -18 -17 -9 14 -9 14 -10 -15 -10
-15 -10 15 -10 15 -9 -14 -9 -14 -18 17 -17 18 14 9 14 9 -15 10 -15 10 15 10
15 10 -15 10 -15 10 15 10 15 10 -15 10 -15 10 15 10 15 10 -15 10 -15 10 15
10 15 10 -15 10 -15 10 15 10 15 10 -15 10 -15 10 15 10 15 10 -15 10 -15 10
15 10 15 10 -15 10 -15 10 15 10 15 10 -15 10 -15 10 15 10 15 10 -15 10 -15
10 14 9 14 9 -16 17 -17 16 -17 -16 -16 -17 14 -9 14 -9 -15 -10 -15 -10 15
-10 15 -10 -15 -10 -15 -10 15 -10 15 -10 -15 -10 -15 -10 15 -10 15 -10 -15
-10 -15 -10 15 -10 15 -10 -15 -10 -15 -10 15 -10 15 -10 -15 -10 -15 -10 15
-10 15 -10 -15 -10 -15 -10 15 -10 15 -10 -15 -10 -15 -10 15 -10 15 -10 -15
-10 -15 -10 15 -10 15 -10 -15 -10 -15 -10 14 -9 14 -9 -17 -18 -18 -17 -9 14
-9 14 -10 -15 -10 -15 -10 15 -10 15 -11 -15 -11 -15 -5 13 -5 12 -28 0 -28 0
-4 -12 -5 -13 -17 18 -18 18 6 7 7 6 9 -14 9 -14 7 7 7 7 -23 20 -23 20 23 20
23 20 -23 20 -23 20 23 20 23 20 -23 20 -23 20 23 20 23 20 -23 20 -23 20 23
20 23 20 -22 20 -23 19 26 26 25 25 22 0 22 0 18 -22 19 -21 7 7 7 7 -13 9
-14 8 16 17 17 16 17 -16 16 -17 -14 -9 -14 -9 15 -10 15 -10 -15 -10 -15 -10
15 -10 15 -10 -15 -10 -15 -10 15 -10 15 -10 -15 -10 -15 -10 15 -10 15 -10
-15 -10 -15 -10 15 -10 15 -10 -15 -10 -15 -10 15 -10 15 -10 -15 -10 -15 -10
15 -10 15 -10 -15 -10 -15 -10 15 -10 15 -10 -15 -10 -15 -10 15 -10 15 -10
-14 -9 -14 -9 17 -17 17 -17 7 6 6 7 -14 10 -15 9 15 10 15 10 -15 10 -15 10
15 10 15 10 -15 10 -15 10 15 10 15 10 -15 10 -15 10 15 10 15 10 -15 10 -15
10 15 10 15 10 -15 10 -15 10 15 10 15 10 -15 10 -15 10 15 10 15 10 -15 10
-15 10 15 10 15 10 -15 10 -15 10 15 10 15 10 -15 10 -15 10 15 10 15 10 -15
10 -15 10 15 9 14 10 -7 8 -8 7 -10 -14 -9 -15 -10 15 -10 15 -10 -15 -10 -15
-9 15 -10 14 -8 -7 -7 -8 14 -9 14 -9 -7 -7 -7 -7 -20 23 -20 23 -30 -33 -31
-33 -7 7 -6 7 14 10 15 9 -15 10 -15 10 15 10 15 10 -15 10 -15 10 15 10 15
10 -15 10 -15 10 15 10 15 10 -15 10 -15 10 15 10 15 10 -15 10 -15 10 15 10
15 10 -15 10 -15 10 15 10 15 10 -15 10 -15 10 15 10 15 10 -15 9 -14 10 7 7
7 7 19 -21 18 -22 23 0 23 0 18 22 19 21 7 -7 7 -7 -13 -9 -14 -8 16 -17 17
-16 17 16 16 17 -14 9 -14 9 15 10 15 10 -15 10 -15 10 15 10 15 10 -15 10
-15 10 15 10 15 10 -15 10 -15 10 15 10 15 10 -15 10 -15 10 15 10 15 10 -15
10 -15 10 15 10 15 10 -15 10 -15 10 15 10 15 10 -15 10 -15 10 15 10 15 10
-15 10 -15 10 15 10 15 10 -15 10 -15 10 15 11 15 11 -12 5 -13 5 0 9 0 9 9 0
9 0 6 -12z m-458 -63 l15 -15 -16 -16 -16 -16 -7 6 -6 7 14 10 15 11 -12 5
-13 5 0 9 0 9 6 0 5 0 15 -15z m114 6 l0 -9 -12 -5 -13 -5 15 -11 14 -10 -6
-7 -7 -6 -16 16 -16 16 13 14 13 15 8 1 7 0 0 -9z m186 -26 l15 -15 -16 -16
-16 -16 -7 6 -6 7 14 10 15 11 -12 5 -13 5 0 9 0 9 6 0 5 0 15 -15z m114 6 l0
-9 -12 -5 -13 -5 15 -11 14 -10 -6 -7 -7 -6 -16 16 -16 16 13 14 13 15 8 1 7
0 0 -9z m400 -1 l0 -10 -10 0 -10 0 0 10 0 10 10 0 10 0 0 -10z m-1140 -20 l0
-10 -10 0 -10 0 0 10 0 10 10 0 10 0 0 -10z m120 0 l0 -10 -10 0 -10 0 0 10 0
10 10 0 10 0 0 -10z m206 -45 l15 -15 -16 -16 -16 -16 -7 6 -6 7 14 10 15 11
-12 5 -13 5 0 9 0 9 6 0 5 0 15 -15z m114 6 l0 -9 -12 -5 -13 -5 15 -11 14
-10 -6 -7 -7 -6 -16 16 -16 16 13 14 13 15 8 1 7 0 0 -9z m186 -26 l15 -15
-16 -16 -16 -16 -7 6 -6 7 14 10 15 11 -12 5 -13 5 0 9 0 9 6 0 5 0 15 -15z
m114 6 l0 -9 -12 -5 -13 -5 15 -11 14 -10 -6 -7 -7 -6 -16 16 -16 16 13 14 13
15 8 1 7 0 0 -9z m-740 -21 l0 -10 -10 0 -10 0 0 10 0 10 10 0 10 0 0 -10z
m120 0 l0 -10 -10 0 -10 0 0 10 0 10 10 0 10 0 0 -10z m506 -65 l15 -15 -16
-16 -16 -16 -7 6 -6 7 14 10 15 11 -12 5 -13 5 0 9 0 9 6 0 5 0 15 -15z m114
6 l0 -9 -12 -5 -13 -5 15 -11 14 -10 -6 -7 -7 -6 -16 16 -16 16 13 14 13 15 8
1 7 0 0 -9z m-740 -21 l0 -10 -10 0 -10 0 0 10 0 10 10 0 10 0 0 -10z m120 0
l0 -10 -10 0 -10 0 0 10 0 10 10 0 10 0 0 -10z m506 -65 l15 -15 -16 -16 -16
-16 -7 6 -6 7 14 10 15 11 -12 5 -13 5 0 9 0 9 6 0 5 0 15 -15z m114 6 l0 -9
-12 -5 -13 -5 15 -11 14 -10 -6 -7 -7 -6 -16 16 -16 16 13 14 13 15 8 1 7 0 0
-9z m-740 -21 l0 -10 -10 0 -10 0 0 10 0 10 10 0 10 0 0 -10z m120 0 l0 -10
-10 0 -10 0 0 10 0 10 10 0 10 0 0 -10z m-114 -445 l15 -15 -16 -16 -16 -16
-7 6 -6 7 14 10 15 11 -12 5 -13 5 0 9 0 9 6 0 5 0 15 -15z m614 -15 l0 -10
-10 0 -10 0 0 10 0 10 10 0 10 0 0 -10z m-614 -65 l15 -15 -16 -16 -16 -16 -7
6 -6 7 14 10 15 11 -12 5 -13 5 0 9 0 9 6 0 5 0 15 -15z m614 -15 l0 -10 -10
0 -10 0 0 10 0 10 10 0 10 0 0 -10z m-614 -65 l15 -15 -16 -16 -16 -16 -7 6
-6 7 14 10 15 11 -12 5 -13 5 0 9 0 9 6 0 5 0 15 -15z m614 -15 l0 -10 -10 0
-10 0 0 10 0 10 10 0 10 0 0 -10z m-614 -65 l15 -15 -16 -16 -16 -16 -7 6 -6
7 14 10 15 11 -12 5 -13 5 0 9 0 9 6 0 5 0 15 -15z m614 -15 l0 -10 -10 0 -10
0 0 10 0 10 10 0 10 0 0 -10z m406 -5 l15 -15 -16 -16 -16 -16 -7 6 -6 7 14
10 15 11 -12 5 -13 5 0 9 0 9 6 0 5 0 15 -15z m114 6 l0 -9 -12 -5 -13 -5 15
-11 14 -10 -6 -7 -7 -6 -16 16 -16 16 13 14 13 15 8 1 7 0 0 -9z m-1123 -77
l25 -25 -6 -7 -7 -6 -10 14 -9 15 -9 -15 -10 -14 -8 7 -7 8 14 10 15 11 -12 5
-13 5 0 9 0 9 5 0 6 0 26 -26z m1010 -9 l15 -16 -5 -6 -6 -5 -16 15 -15 16 0
5 0 6 6 0 5 0 16 -15z m113 9 l0 -5 -15 -16 -16 -15 -5 5 -6 6 13 15 14 15 8
1 7 0 0 -6z"/>
<path d="M240 1191 l0 -9 13 -5 12 -5 -15 -11 -15 -11 15 -10 15 -10 -15 -10
-15 -10 15 -10 15 -10 -15 -10 -15 -10 15 -10 15 -10 -15 -10 -15 -10 15 -10
15 -10 -15 -10 -15 -10 15 -10 15 -10 -15 -10 -15 -10 15 -10 15 -10 -15 -10
-15 -10 15 -10 15 -10 -15 -10 -15 -10 15 -10 15 -10 -15 -10 -15 -10 15 -10
15 -10 -15 -10 -15 -10 14 -9 14 -9 -27 -27 -27 -27 -19 23 -20 22 -20 -23
-20 -23 -20 23 -20 23 -7 -7 -7 -7 14 -10 15 -9 -15 -10 -15 -10 15 -10 15
-10 -15 -10 -15 -10 15 -10 15 -10 -15 -10 -15 -10 15 -10 15 -10 -15 -10 -15
-10 15 -10 15 -10 -15 -10 -15 -10 15 -10 15 -10 -15 -9 -14 -10 7 -7 7 -7 20
23 20 23 30 -33 31 -33 7 7 6 7 -13 9 -14 8 16 17 17 16 17 -16 16 -17 -14 -9
-14 -9 15 -10 15 -10 -15 -10 -15 -10 15 -10 15 -10 -15 -10 -15 -10 15 -10
15 -10 -15 -10 -15 -10 15 -10 15 -10 -15 -10 -15 -10 15 -10 15 -10 -15 -10
-15 -10 15 -10 15 -10 -15 -10 -15 -10 15 -10 15 -10 -15 -10 -15 -10 15 -10
15 -10 -15 -10 -15 -10 15 -10 15 -10 -15 -10 -15 -10 15 -10 15 -10 -15 -9
-14 -10 6 -7 7 -6 17 17 17 17 -14 9 -14 9 15 10 15 10 -15 10 -15 10 15 10
15 10 -15 10 -15 10 15 10 15 10 -15 10 -15 10 15 10 15 10 -15 10 -15 10 15
10 15 10 -15 10 -15 10 15 10 15 10 -15 10 -15 10 15 10 15 10 -15 10 -15 10
15 10 15 10 -15 10 -15 10 15 10 15 10 -14 9 -14 9 27 26 26 27 26 -27 27 -26
-14 -9 -14 -9 15 -10 15 -10 -15 -10 -15 -10 15 -10 15 -10 -15 -10 -15 -10
15 -10 15 -10 -15 -10 -15 -10 15 -10 15 -10 -15 -10 -15 -10 15 -10 15 -10
-15 -10 -15 -10 15 -10 15 -10 -15 -10 -15 -10 15 -10 15 -10 -15 -10 -15 -10
15 -10 15 -10 -15 -10 -15 -10 15 -10 15 -10 -14 -9 -14 -9 17 -17 17 -17 7 6
6 7 -14 10 -15 9 15 10 15 10 -15 10 -15 10 15 10 15 10 -15 10 -15 10 15 10
15 10 -15 10 -15 10 15 10 15 10 -15 10 -15 10 15 10 15 10 -15 10 -15 10 15
10 15 10 -15 10 -15 10 15 10 15 10 -15 10 -15 10 15 10 15 10 -15 10 -15 10
15 10 15 10 -15 10 -15 10 15 10 15 10 -14 9 -14 9 16 17 17 16 17 -16 16 -17
-14 -9 -14 -9 15 -10 15 -10 -15 -10 -15 -10 15 -10 15 -10 -15 -10 -15 -10
15 -10 15 -10 -15 -10 -15 -10 15 -10 15 -10 -15 -10 -15 -10 15 -10 15 -10
-15 -9 -14 -10 7 -7 7 -7 19 21 18 22 23 0 23 0 18 -22 19 -21 7 7 7 7 -14 10
-15 9 15 10 15 10 -15 10 -15 10 15 10 15 10 -15 10 -15 10 15 10 15 10 -15
10 -15 10 15 10 15 10 -15 10 -15 10 15 10 15 10 -14 9 -14 9 16 17 17 16 17
-16 16 -17 -14 -9 -14 -9 15 -10 15 -10 -15 -10 -15 -10 15 -10 15 -10 -15
-10 -15 -10 15 -10 15 -10 -15 -10 -15 -10 15 -10 15 -10 -15 -10 -15 -10 15
-10 15 -10 -15 -10 -15 -10 15 -10 15 -10 -15 -10 -15 -10 15 -10 15 -10 -15
-10 -15 -10 15 -10 15 -10 -15 -10 -15 -10 15 -10 15 -10 -15 -10 -15 -10 15
-10 15 -10 -15 -9 -14 -10 6 -7 7 -6 17 17 17 17 -14 9 -14 9 15 10 15 10 -15
10 -15 10 15 10 15 10 -15 10 -15 10 15 10 15 10 -15 10 -15 10 15 10 15 10
-15 10 -15 10 15 10 15 10 -15 10 -15 10 15 10 15 10 -15 10 -15 10 15 10 15
10 -15 10 -15 10 15 10 15 10 -15 10 -15 10 15 10 15 10 -15 10 -15 10 15 10
15 10 -15 10 -15 10 15 10 15 10 -15 10 -15 10 15 10 15 10 -15 10 -15 10 15
10 15 10 -15 10 -15 10 15 10 15 10 -15 10 -15 10 15 10 15 10 -15 10 -15 10
15 9 14 10 -7 7 -7 7 -19 -22 -20 -23 -27 27 -27 27 14 9 14 9 -15 10 -15 10
15 10 15 10 -15 10 -15 10 15 10 15 10 -15 10 -15 10 15 10 15 10 -15 10 -15
10 15 9 14 10 -6 7 -7 6 -17 -17 -17 -17 14 -9 14 -9 -15 -10 -15 -10 15 -10
15 -10 -15 -10 -15 -10 15 -10 15 -10 -15 -10 -15 -10 14 -9 14 -9 -16 -17
-17 -16 -17 16 -16 17 14 9 14 9 -15 10 -15 10 15 10 15 10 -15 10 -15 10 15
10 15 10 -15 10 -15 10 14 9 14 9 -17 17 -17 17 -7 -6 -6 -7 14 -10 15 -9 -15
-10 -15 -10 15 -10 15 -10 -15 -10 -15 -10 15 -10 15 -10 -15 -10 -15 -10 15
-10 15 -10 -15 -10 -15 -10 14 -9 14 -9 -27 -26 -26 -27 -26 27 -27 26 14 9
14 9 -15 10 -15 10 15 10 15 10 -15 10 -15 10 15 10 15 10 -15 10 -15 10 15
10 15 10 -15 10 -15 10 15 10 15 10 -15 10 -15 10 15 10 15 10 -15 10 -15 10
15 10 15 10 -15 10 -15 10 15 10 15 10 -15 10 -15 10 15 10 15 10 -15 10 -15
10 15 10 15 10 -15 10 -15 10 15 9 14 10 -6 7 -7 6 -17 -17 -17 -17 14 -9 14
-9 -15 -10 -15 -10 15 -10 15 -10 -15 -10 -15 -10 15 -10 15 -10 -15 -10 -15
-10 15 -10 15 -10 -15 -10 -15 -10 15 -10 15 -10 -15 -10 -15 -10 15 -10 15
-10 -15 -10 -15 -10 15 -10 15 -10 -15 -10 -15 -10 15 -10 15 -10 -15 -10 -15
-10 15 -10 15 -10 -15 -10 -15 -10 14 -9 14 -9 -16 -17 -17 -16 -17 16 -16 17
14 9 14 9 -15 10 -15 10 15 10 15 10 -15 10 -15 10 15 10 15 10 -15 10 -15 10
15 10 15 10 -15 10 -15 10 15 10 15 10 -15 10 -15 10 15 10 15 10 -15 10 -15
10 15 10 15 10 -15 10 -15 10 15 10 15 10 -15 10 -15 10 15 10 15 10 -15 10
-15 10 14 9 14 9 -16 16 -16 16 -5 0 -6 0 0 -9z m43 -443 l5 -13 10 14 10 15
31 -33 31 -33 31 33 31 33 9 -15 9 -14 9 14 9 15 32 -34 32 -34 8 14 9 14 8
-7 7 -8 -14 -10 -15 -9 15 -10 15 -10 -15 -10 -15 -10 15 -10 15 -10 -15 -10
-15 -10 15 -10 15 -10 -15 -10 -15 -10 15 -9 14 -10 -7 -8 -8 -7 -9 13 -8 14
-27 -28 -28 -27 14 -9 14 -9 -15 -10 -15 -10 15 -10 15 -10 -15 -10 -15 -10
15 -10 15 -10 -15 -10 -15 -10 15 -10 15 -10 -15 -10 -15 -10 15 -9 14 -10 -6
-7 -7 -6 -17 17 -17 17 14 9 14 9 -15 10 -15 10 15 10 15 10 -15 10 -15 10 15
10 15 10 -15 10 -15 10 14 9 14 9 -16 17 -17 16 -17 -16 -16 -17 14 -9 14 -9
-15 -10 -15 -10 15 -10 15 -10 -15 -10 -15 -10 15 -10 15 -10 -15 -10 -15 -10
14 -9 14 -9 -17 -17 -17 -17 -7 6 -6 7 14 10 15 9 -15 10 -15 10 15 10 15 10
-15 10 -15 10 15 10 15 10 -15 10 -15 10 15 10 15 10 -15 10 -15 10 14 9 14 9
-27 27 -27 27 -19 -23 -20 -22 -20 23 -20 23 -20 -23 -20 -23 -20 23 -20 23
-20 -23 -20 -23 -21 24 -20 23 -9 -14 -9 -14 -8 7 -7 8 14 10 15 9 -15 10 -15
10 15 10 15 10 -15 10 -15 10 15 10 15 10 -15 10 -15 10 15 10 15 10 -15 9
-14 10 7 8 8 7 9 -14 9 -14 20 23 20 23 16 -16 16 -16 -16 -17 -17 -16 -8 14
-9 13 -8 -7 -7 -8 14 -10 15 -9 -15 -10 -15 -10 15 -10 15 -10 -15 -9 -14 -10
7 -8 8 -7 9 14 9 14 8 -7 7 -8 -14 -9 -14 -9 7 -8 8 -7 9 14 9 14 8 -7 7 -8
-14 -9 -14 -9 7 -8 8 -7 10 14 9 15 10 -15 10 -15 10 15 10 15 9 -15 10 -14 8
7 7 8 -14 9 -14 9 7 8 8 7 9 -14 9 -14 8 7 7 8 -14 9 -14 9 7 8 8 7 9 -14 9
-14 8 7 7 8 -14 10 -15 9 15 10 15 10 -15 10 -15 10 15 9 14 10 -7 8 -8 7 -9
-14 -9 -14 -8 7 -7 8 14 9 14 9 -7 8 -8 7 -10 -14 -9 -15 -9 15 -10 14 -7 -6
-7 -7 32 -30 32 -30 -35 -36 -36 -36 -35 36 -36 35 53 54 53 55 7 0 6 1 5 -12z"/>
<path d="M260 730 l0 -10 10 0 10 0 0 10 0 10 -10 0 -10 0 0 -10z"/>
<path d="M300 734 l0 -7 22 -19 22 -19 -14 -10 -15 -9 15 -10 15 -10 -15 -10
-15 -10 15 -9 14 -10 -23 -20 -23 -20 16 -17 17 -16 19 22 20 23 31 -34 31
-33 9 15 9 14 9 -14 9 -14 37 38 38 37 -14 9 -14 9 15 10 15 10 -15 10 -15 10
14 9 14 9 -37 37 -37 37 -6 -6 -6 -6 22 -19 23 -20 -36 -36 -36 -36 -60 61
-59 60 -5 0 -6 0 0 -6z m91 -95 l39 -41 40 42 41 42 7 -6 6 -7 -14 -10 -15 -9
15 -10 15 -10 -15 -10 -15 -10 14 -9 14 -9 -28 -27 -27 -28 -9 14 -9 14 -9
-14 -9 -15 -31 33 -31 34 -20 -23 -20 -23 -7 6 -6 7 24 20 23 21 -14 10 -15 9
15 11 15 11 -12 5 -13 5 0 9 0 9 6 0 6 0 39 -41z"/>
<path d="M360 635 l0 -6 36 -36 36 -36 9 14 9 14 9 -14 9 -14 18 17 17 18 -14
9 -14 9 15 9 14 10 -6 7 -7 7 -31 -33 -30 -32 -29 31 -29 31 -6 0 -6 0 0 -5z
m120 -45 l0 -10 -10 0 -10 0 0 10 0 10 10 0 10 0 0 -10z"/>
<path d="M160 710 l0 -10 10 0 10 0 0 10 0 10 -10 0 -10 0 0 -10z"/>
<path d="M412 704 l-13 -14 15 -16 16 -15 16 15 15 16 -15 15 -15 15 -3 0 -3
-1 -13 -15z m28 -14 l0 -10 -10 0 -10 0 0 10 0 10 10 0 10 0 0 -10z"/>
<path d="M120 670 l0 -10 10 0 10 0 0 10 0 10 -10 0 -10 0 0 -10z"/>
<path d="M220 650 l0 -10 10 0 10 0 0 10 0 10 -10 0 -10 0 0 -10z"/>
<path d="M120 630 l0 -10 10 0 10 0 0 10 0 10 -10 0 -10 0 0 -10z"/>
<path d="M120 595 l0 -6 26 -26 25 -25 6 5 5 6 -25 25 -26 26 -6 0 -5 0 0 -5z"/>
<path d="M240 550 l0 -10 10 0 10 0 0 10 0 10 -10 0 -10 0 0 -10z"/>
<path d="M560 1190 l0 -10 10 0 10 0 0 10 0 10 -10 0 -10 0 0 -10z"/>
<path d="M560 1150 l0 -10 10 0 10 0 0 10 0 10 -10 0 -10 0 0 -10z"/>
<path d="M560 1110 l0 -10 10 0 10 0 0 10 0 10 -10 0 -10 0 0 -10z"/>
<path d="M560 1070 l0 -10 10 0 10 0 0 10 0 10 -10 0 -10 0 0 -10z"/>
<path d="M560 1030 l0 -10 10 0 10 0 0 10 0 10 -10 0 -10 0 0 -10z"/>
<path d="M560 990 l0 -10 10 0 10 0 0 10 0 10 -10 0 -10 0 0 -10z"/>
<path d="M560 950 l0 -10 10 0 10 0 0 10 0 10 -10 0 -10 0 0 -10z"/>
<path d="M560 910 l0 -10 10 0 10 0 0 10 0 10 -10 0 -10 0 0 -10z"/>
<path d="M560 870 l0 -10 10 0 10 0 0 10 0 10 -10 0 -10 0 0 -10z"/>
<path d="M560 830 l0 -10 10 0 10 0 0 10 0 10 -10 0 -10 0 0 -10z"/>
<path d="M560 790 l0 -10 10 0 10 0 0 10 0 10 -10 0 -10 0 0 -10z"/>
<path d="M180 410 l0 -10 10 0 10 0 0 10 0 10 -10 0 -10 0 0 -10z"/>
<path d="M180 330 l0 -10 10 0 10 0 0 10 0 10 -10 0 -10 0 0 -10z"/>
<path d="M180 250 l0 -10 10 0 10 0 0 10 0 10 -10 0 -10 0 0 -10z"/>
<path d="M380 251 l0 -9 13 -5 12 -5 -15 -11 -14 -10 6 -7 7 -6 16 16 16 16
-15 15 -15 15 -5 0 -6 0 0 -9z"/>
<path d="M492 244 l-13 -14 16 -16 16 -16 7 6 6 7 -14 10 -15 11 13 5 12 5 0
9 0 9 -7 0 -8 -1 -13 -15z"/>
<path d="M180 170 l0 -10 10 0 10 0 0 10 0 10 -10 0 -10 0 0 -10z"/>
<path d="M380 171 l0 -9 13 -5 12 -5 -15 -11 -14 -10 6 -7 7 -6 16 16 16 16
-15 15 -15 15 -5 0 -6 0 0 -9z"/>
<path d="M492 164 l-13 -14 16 -16 16 -16 7 6 6 7 -14 10 -15 11 13 5 12 5 0
9 0 9 -7 0 -8 -1 -13 -15z"/>
<path d="M180 90 l0 -10 10 0 10 0 0 10 0 10 -10 0 -10 0 0 -10z"/>
<path d="M871 1184 l-14 -16 14 -9 14 -9 -15 -10 -15 -10 15 -10 15 -10 -15
-10 -15 -10 15 -10 15 -10 -15 -10 -15 -10 15 -10 15 -10 -15 -10 -15 -10 15
-10 15 -10 -15 -10 -15 -10 15 -10 15 -10 -15 -10 -15 -10 15 -10 15 -10 -15
-10 -15 -10 15 -10 15 -10 -15 -10 -15 -10 15 -10 15 -10 -15 -10 -15 -10 14
-9 14 -9 -27 -27 -27 -27 -19 23 -20 22 -20 -23 -20 -23 -20 23 -20 23 -7 -7
-7 -7 14 -10 15 -9 -15 -10 -15 -10 15 -10 15 -10 -15 -10 -15 -10 15 -10 15
-10 -15 -10 -15 -10 15 -10 15 -10 -15 -10 -15 -10 15 -10 15 -10 -15 -10 -15
-10 15 -10 15 -10 -15 -9 -14 -10 7 -7 7 -7 20 24 21 23 10 -14 9 -15 10 15
10 15 10 -15 10 -15 10 15 10 15 10 -15 10 -15 10 15 10 15 10 -15 10 -15 9
14 9 14 27 -28 28 -27 -14 -9 -14 -9 15 -10 15 -10 -15 -10 -15 -10 15 -10 15
-10 -15 -10 -15 -10 15 -10 15 -10 -15 -10 -15 -10 15 -10 15 -10 -15 -10 -15
-10 15 -10 15 -10 -15 -10 -15 -10 15 -10 15 -10 -15 -10 -15 -10 15 -10 15
-10 -15 -10 -15 -10 15 -10 15 -10 -15 -10 -15 -10 15 -10 15 -10 -15 -10 -15
-10 15 -10 15 -10 -15 -9 -14 -10 6 -7 7 -6 17 17 17 17 -14 9 -14 9 15 10 15
10 -15 10 -15 10 15 10 15 10 -15 10 -15 10 15 10 15 10 -15 10 -15 10 15 10
15 10 -15 10 -15 10 15 10 15 10 -15 10 -15 10 15 10 15 10 -15 10 -15 10 15
10 15 10 -15 10 -15 10 15 10 15 10 -15 10 -15 10 15 10 15 10 -14 9 -14 9 16
17 17 16 17 -16 16 -17 -14 -9 -14 -9 15 -10 15 -10 -15 -10 -15 -10 15 -10
15 -10 -15 -10 -15 -10 15 -10 15 -10 -15 -10 -15 -10 15 -10 15 -10 -15 -10
-15 -10 15 -10 15 -10 -15 -10 -15 -10 15 -10 15 -10 -15 -10 -15 -10 15 -10
15 -10 -15 -10 -15 -10 15 -10 15 -10 -15 -10 -15 -10 15 -10 15 -10 -14 -9
-14 -9 17 -17 17 -17 7 6 6 7 -14 10 -15 9 15 10 15 10 -15 10 -15 10 15 10
15 10 -15 10 -15 10 15 10 15 10 -15 10 -15 10 15 10 15 10 -15 10 -15 10 15
10 15 10 -15 10 -15 10 15 10 15 10 -15 10 -15 10 15 10 15 10 -15 10 -15 10
15 10 15 10 -15 10 -15 10 15 10 15 10 -15 10 -15 10 15 10 15 10 -14 9 -14 9
27 26 26 27 26 -27 27 -26 -14 -9 -14 -9 15 -10 15 -10 -15 -10 -15 -10 15
-10 15 -10 -15 -10 -15 -10 15 -10 15 -10 -15 -10 -15 -10 15 -10 15 -10 -15
-10 -15 -10 15 -10 15 -10 -15 -10 -15 -10 15 -10 15 -10 -15 -9 -14 -10 6 -7
7 -6 17 17 17 17 -14 9 -14 9 15 10 15 10 -15 10 -15 10 15 10 15 10 -15 10
-15 10 15 10 15 10 -15 10 -15 10 15 10 15 10 -15 10 -15 10 15 10 15 10 -14
9 -14 9 16 17 17 16 17 -16 16 -17 -14 -9 -14 -9 15 -10 15 -10 -15 -10 -15
-10 15 -10 15 -10 -15 -10 -15 -10 15 -10 15 -10 -15 -10 -15 -10 15 -10 15
-10 -15 -10 -15 -10 15 -10 15 -10 -14 -9 -14 -9 17 -17 17 -17 7 6 6 7 -14
10 -15 9 15 10 15 10 -15 10 -15 10 15 10 15 10 -15 10 -15 10 15 10 15 10
-15 10 -15 10 15 10 15 10 -15 10 -15 10 15 10 15 10 -15 10 -15 10 15 10 15
10 -15 10 -15 10 15 10 15 10 -15 10 -15 10 15 10 15 10 -15 10 -15 10 15 10
15 10 -15 10 -15 10 15 10 15 10 -15 10 -15 10 15 10 15 10 -15 10 -15 10 15
10 15 10 -15 10 -15 10 15 9 14 10 -7 7 -7 7 -20 -24 -21 -23 -9 14 -9 14 -8
-7 -7 -8 13 -9 14 -8 -17 -18 -18 -17 -9 14 -9 14 -10 -15 -10 -15 -10 15 -10
15 -9 -14 -9 -14 -18 17 -17 18 14 8 13 9 -7 8 -8 7 -9 -13 -8 -14 -27 28 -28
27 14 9 14 9 -15 10 -15 10 15 10 15 10 -15 10 -15 10 15 10 15 10 -15 10 -15
10 15 10 15 10 -15 10 -15 10 15 10 15 10 -15 10 -15 10 15 10 15 10 -15 10
-15 10 15 10 15 10 -15 10 -15 10 15 10 15 10 -15 10 -15 10 15 10 15 10 -15
10 -15 10 14 9 14 9 -17 17 -17 17 -7 -6 -6 -7 14 -10 15 -9 -15 -10 -15 -10
15 -10 15 -10 -15 -10 -15 -10 15 -10 15 -10 -15 -10 -15 -10 15 -10 15 -10
-15 -10 -15 -10 15 -10 15 -10 -15 -10 -15 -10 15 -10 15 -10 -15 -10 -15 -10
15 -10 15 -10 -15 -10 -15 -10 15 -10 15 -10 -15 -10 -15 -10 15 -10 15 -10
-15 -10 -15 -10 15 -10 15 -10 -15 -10 -15 -10 14 -9 14 -9 -16 -17 -17 -16
-17 16 -16 17 14 9 14 9 -15 10 -15 10 15 10 15 10 -15 10 -15 10 15 10 15 10
-15 10 -15 10 15 10 15 10 -15 10 -15 10 15 10 15 10 -15 10 -15 10 15 10 15
10 -15 10 -15 10 15 10 15 10 -15 10 -15 10 15 10 15 10 -15 10 -15 10 15 10
15 10 -15 10 -15 10 15 10 15 10 -15 11 -15 11 13 5 12 5 0 9 0 9 -7 0 -8 -1
-14 -15z m-60 -446 l19 -21 20 23 20 23 20 -23 20 -23 20 23 19 22 42 -43 41
-42 9 14 9 14 10 -15 10 -15 10 15 10 15 9 -14 9 -15 32 34 31 33 7 -7 6 -7
-14 -10 -15 -9 15 -10 15 -10 -15 -10 -15 -10 15 -10 15 -10 -15 -10 -15 -10
15 -10 15 -10 -15 -10 -15 -10 15 -10 15 -10 -15 -10 -15 -10 15 -9 14 -10 -7
-8 -8 -7 -10 14 -9 15 -9 -14 -9 -15 -31 33 -31 33 -31 -33 -31 -33 -9 15 -9
14 -9 -14 -9 -15 -32 34 -32 34 -9 -15 -9 -14 -10 15 -10 15 -10 -15 -10 -15
-10 15 -10 15 -10 -15 -10 -15 -10 15 -10 15 -10 -15 -10 -15 -10 15 -10 15
-9 -15 -10 -14 -8 7 -7 8 14 10 15 9 -15 10 -15 10 15 10 15 10 -15 10 -15 10
15 10 15 10 -15 10 -15 10 15 10 15 10 -15 9 -14 10 7 8 8 7 9 -14 9 -15 18
22 18 23 4 0 4 0 18 -22z"/>
<path d="M761 713 l-24 -25 14 -9 14 -9 -15 -10 -15 -10 15 -10 15 -10 -14 -9
-14 -9 17 -18 18 -17 9 14 9 14 10 -15 10 -15 10 15 10 15 10 -15 10 -15 10
15 10 15 10 -15 10 -15 9 14 9 15 32 -34 32 -34 9 15 9 14 9 -14 9 -15 31 33
31 33 30 -32 30 -32 16 17 17 17 -14 9 -14 9 15 10 15 10 -15 10 -15 10 15 10
15 10 -15 10 -15 10 15 9 14 10 -7 7 -7 7 -20 -24 -21 -23 -10 14 -9 15 -10
-15 -10 -15 -10 15 -10 15 -9 -14 -9 -14 -41 42 -42 43 -19 -22 -20 -23 -20
23 -20 23 -20 -23 -20 -23 -19 21 -18 22 -4 -1 -4 0 -24 -26z m50 -15 l19 -21
20 23 20 23 20 -23 20 -23 20 23 19 22 42 -43 41 -42 9 14 9 14 10 -15 10 -15
10 15 10 15 10 -15 10 -15 9 15 10 14 8 -7 7 -8 -14 -10 -15 -9 15 -10 15 -10
-15 -10 -15 -10 15 -9 14 -10 -6 -7 -7 -7 -31 33 -30 32 -31 -33 -31 -33 -9
15 -9 14 -9 -14 -9 -15 -32 34 -32 34 -9 -15 -9 -14 -10 15 -10 15 -10 -15
-10 -15 -10 15 -10 15 -10 -15 -10 -15 -10 15 -10 15 -9 -15 -10 -14 -8 7 -7
8 14 10 15 9 -15 10 -15 10 15 10 15 10 -14 9 -14 9 14 16 14 15 4 1 4 0 18
-22z"/>
<path d="M780 691 l0 -9 13 -5 12 -5 -14 -10 -14 -10 17 -18 18 -17 9 14 9 14
10 -15 10 -15 10 15 10 15 10 -15 10 -15 9 14 9 15 32 -34 32 -34 9 15 9 14 9
-14 9 -14 27 27 27 27 -6 7 -7 6 -9 -13 -8 -14 -41 42 -42 43 -19 -22 -20 -23
-20 23 -20 23 -20 -23 -20 -23 -19 21 -18 22 -7 0 -6 0 0 -9z m107 -26 l15
-16 -6 -7 -7 -6 -10 14 -9 15 -9 -15 -10 -14 -6 6 -7 7 13 15 14 15 3 1 3 0
16 -15z m99 -21 l36 -35 -7 -7 -6 -6 -10 14 -9 15 -9 -14 -9 -14 -26 27 -27
26 13 15 13 14 3 1 3 0 35 -36z m-166 6 l0 -10 -10 0 -10 0 0 10 0 10 10 0 10
0 0 -10z"/>
<path d="M940 654 l0 -5 15 -16 16 -15 6 5 5 6 -15 16 -16 15 -5 0 -6 0 0 -6z"/>
<path d="M1080 634 l0 -5 15 -16 16 -15 6 5 5 6 -15 16 -16 15 -5 0 -6 0 0 -6z"/>
<path d="M1080 1151 l0 -9 13 -5 12 -5 -15 -11 -14 -10 6 -7 7 -6 16 16 16 16
-15 15 -15 15 -5 0 -6 0 0 -9z"/>
<path d="M1180 1010 l0 -10 10 0 10 0 0 10 0 10 -10 0 -10 0 0 -10z"/>
<path d="M1180 970 l0 -10 10 0 10 0 0 10 0 10 -10 0 -10 0 0 -10z"/>
<path d="M1180 930 l0 -10 10 0 10 0 0 10 0 10 -10 0 -10 0 0 -10z"/>
<path d="M1180 890 l0 -10 10 0 10 0 0 10 0 10 -10 0 -10 0 0 -10z"/>
<path d="M1180 850 l0 -10 10 0 10 0 0 10 0 10 -10 0 -10 0 0 -10z"/>
<path d="M1180 810 l0 -10 10 0 10 0 0 10 0 10 -10 0 -10 0 0 -10z"/>
<path d="M792 424 l-13 -14 16 -16 16 -16 7 6 6 7 -14 10 -15 11 13 5 12 5 0
9 0 9 -7 0 -8 -1 -13 -15z"/>
<path d="M792 344 l-13 -14 16 -16 16 -16 7 6 6 7 -14 10 -15 11 13 5 12 5 0
9 0 9 -7 0 -8 -1 -13 -15z"/>
<path d="M792 264 l-13 -14 16 -16 16 -16 7 6 6 7 -14 10 -15 11 13 5 12 5 0
9 0 9 -7 0 -8 -1 -13 -15z"/>
<path d="M792 184 l-13 -14 16 -16 16 -16 7 6 6 7 -14 10 -15 11 13 5 12 5 0
9 0 9 -7 0 -8 -1 -13 -15z"/>
<path d="M791 104 l-13 -15 6 -6 5 -5 16 15 15 16 0 5 0 6 -7 0 -8 -1 -14 -15z"/>
</g>
</svg>
