<?xml version="1.0" standalone="no"?>
<!DOCTYPE svg PUBLIC "-//W3C//DTD SVG 20010904//EN"
 "http://www.w3.org/TR/2001/REC-SVG-20010904/DTD/svg10.dtd">
<svg version="1.0" xmlns="http://www.w3.org/2000/svg"
 width="468pt" height="468pt" viewBox="0 0 468 468"
 preserveAspectRatio="xMidYMid meet">
<metadata>
Created by potrace 1.8, written by Peter Selinger 2001-2007
</metadata>
<g transform="translate(0,468) scale(0.365625,-0.365625)"
fill="#000000" stroke="none">
<path d="M0 1271 l0 -9 13 -5 12 -5 -15 -11 -15 -11 15 -10 15 -10 -15 -10
-15 -10 15 -10 15 -10 -15 -10 -15 -10 15 -10 15 -10 -15 -10 -15 -10 15 -10
15 -10 -15 -10 -15 -10 15 -10 15 -10 -15 -10 -15 -10 15 -10 15 -10 -15 -10
-15 -10 15 -10 15 -10 -15 -10 -15 -10 15 -10 15 -10 -15 -10 -15 -10 15 -10
15 -10 -15 -10 -15 -10 15 -10 15 -10 -14 -9 -14 -9 16 -16 16 -16 15 0 16 0
0 -10 0 -10 20 0 20 0 0 -10 0 -10 20 0 20 0 0 -10 0 -10 20 0 20 0 0 -10 0
-10 20 0 20 0 0 -10 0 -10 20 0 20 0 0 -10 0 -10 20 0 20 0 0 -10 0 -10 20 0
20 0 0 -10 0 -10 10 0 10 0 0 20 0 20 20 0 20 0 0 20 0 20 20 0 20 0 0 20 0
20 20 0 20 0 0 20 0 20 20 0 20 0 0 20 0 20 20 0 20 0 0 20 0 20 20 0 20 0 0
16 0 17 22 18 21 19 -8 8 -8 7 -4 -12 -5 -13 -19 0 -19 0 0 9 0 9 13 5 12 4
-9 9 -9 9 -4 -12 -5 -13 -19 0 -19 0 0 9 0 9 13 5 12 4 -9 9 -9 9 -4 -12 -5
-13 -19 0 -19 0 0 9 0 9 13 5 12 4 -9 9 -9 9 -4 -12 -5 -13 -18 0 -18 0 -5
-12 -4 -13 -8 7 -8 8 23 20 23 20 -8 8 -8 7 -4 -12 -5 -13 -19 0 -19 0 0 9 0
9 13 5 12 4 -9 9 -9 9 -4 -12 -5 -13 -19 0 -19 0 0 9 0 9 13 5 12 4 -9 9 -9 9
-4 -12 -5 -13 -19 0 -19 0 0 9 0 9 13 6 12 6 -12 6 -13 6 0 9 0 9 19 0 19 0 5
-12 4 -13 9 9 9 9 -12 4 -13 5 0 19 0 19 6 0 7 0 18 -22 19 -21 8 8 7 8 -12 4
-13 5 0 9 0 9 19 0 19 0 5 -12 4 -13 9 9 9 9 -12 4 -13 5 0 19 0 19 6 0 7 0
18 -22 19 -21 8 8 7 8 -12 4 -13 5 0 9 0 9 19 0 19 0 5 -12 4 -13 9 9 9 9 -12
4 -13 5 0 19 0 19 6 0 7 0 18 -22 19 -21 8 8 7 8 -12 4 -13 5 0 9 0 9 19 0 19
0 5 -12 4 -13 9 9 9 9 -13 4 -12 5 0 9 0 9 20 0 20 0 0 -10 0 -10 20 0 20 0 0
-10 0 -10 20 0 20 0 0 -10 0 -10 20 0 20 0 0 -10 0 -10 20 0 20 0 0 -10 0 -10
20 0 20 0 0 -10 0 -10 20 0 20 0 0 -10 0 -10 20 0 20 0 0 -10 0 -10 20 0 20 0
0 -10 0 -10 10 0 10 0 0 20 0 20 20 0 20 0 0 20 0 20 20 0 20 0 0 20 0 20 20
0 20 0 0 20 0 20 20 0 20 0 0 20 0 20 -29 0 -29 0 -6 -12 -6 -13 -6 13 -6 12
-28 0 -28 0 -6 -12 -6 -13 -6 13 -6 12 -28 0 -28 0 -6 -12 -6 -13 -6 13 -6 12
-28 0 -28 0 -6 -12 -6 -13 -6 13 -6 12 -28 0 -28 0 -6 -12 -6 -13 -6 13 -6 12
-28 0 -28 0 -6 -12 -6 -13 -6 13 -6 12 -38 0 -38 0 -5 -12 -5 -13 -11 15 -11
15 -10 -15 -10 -15 -10 15 -10 15 -10 -15 -10 -15 -10 15 -10 15 -10 -15 -10
-15 -10 15 -10 15 -10 -15 -10 -15 -10 15 -10 15 -10 -15 -10 -15 -10 15 -10
15 -10 -15 -10 -15 -10 15 -10 15 -10 -15 -10 -15 -10 15 -10 15 -10 -15 -10
-15 -10 15 -10 15 -10 -15 -10 -15 -10 15 -10 15 -10 -15 -10 -15 -10 15 -10
15 -10 -15 -10 -15 -9 15 -10 14 -21 -23 -20 -24 -8 8 -7 8 13 4 12 5 0 9 0 9
-19 0 -19 0 -6 -12 -6 -13 -6 13 -6 12 -19 0 -19 0 0 -9z m143 -23 l5 -13 11
15 11 15 10 -15 10 -15 10 15 10 15 10 -15 10 -15 10 15 10 15 10 -15 10 -15
10 15 10 15 10 -15 10 -15 10 15 10 15 10 -15 10 -15 10 15 10 15 10 -15 10
-15 10 15 10 15 10 -15 10 -15 10 15 10 15 10 -15 10 -15 10 15 10 15 10 -15
10 -15 9 15 10 14 7 -6 6 -7 -27 -27 -27 -27 -8 13 -8 14 -32 -34 -32 -34 -8
14 -8 13 -38 -38 -38 -39 12 -4 12 -4 0 -9 0 -9 -19 0 -19 0 -5 -12 -4 -13 -9
9 -9 9 13 4 12 5 0 19 0 19 -6 0 -7 0 -18 -22 -19 -21 -7 7 -7 7 13 8 14 9
-38 37 -37 38 -9 -14 -8 -13 -8 7 -7 8 14 9 14 8 -32 30 -32 30 0 6 0 6 9 0 9
0 5 -12z m437 2 l0 -10 -10 0 -10 0 0 10 0 10 10 0 10 0 0 -10z m-520 -20 l0
-10 -10 0 -10 0 0 10 0 10 10 0 10 0 0 -10z m760 0 l0 -10 -10 0 -10 0 0 10 0
10 10 0 10 0 0 -10z m80 0 l0 -10 -10 0 -10 0 0 10 0 10 10 0 10 0 0 -10z m80
0 l0 -10 -10 0 -10 0 0 10 0 10 10 0 10 0 0 -10z m80 0 l0 -10 -10 0 -10 0 0
10 0 10 10 0 10 0 0 -10z m-960 -20 l0 -10 -10 0 -10 0 0 10 0 10 10 0 10 0 0
-10z m-40 -20 l0 -10 -10 0 -10 0 0 10 0 10 10 0 10 0 0 -10z m80 0 l0 -10
-10 0 -10 0 0 10 0 10 10 0 10 0 0 -10z m720 0 l0 -10 -10 0 -10 0 0 10 0 10
10 0 10 0 0 -10z m80 0 l0 -10 -10 0 -10 0 0 10 0 10 10 0 10 0 0 -10z m80 0
l0 -10 -10 0 -10 0 0 10 0 10 10 0 10 0 0 -10z m-920 -20 l0 -10 -10 0 -10 0
0 10 0 10 10 0 10 0 0 -10z m-40 -20 l0 -10 -10 0 -10 0 0 10 0 10 10 0 10 0
0 -10z m80 0 l0 -10 -10 0 -10 0 0 10 0 10 10 0 10 0 0 -10z m840 0 l0 -10
-10 0 -10 0 0 10 0 10 10 0 10 0 0 -10z m-880 -20 l0 -10 -10 0 -10 0 0 10 0
10 10 0 10 0 0 -10z m80 0 l0 -10 -10 0 -10 0 0 10 0 10 10 0 10 0 0 -10z
m-120 -20 l0 -10 -10 0 -10 0 0 10 0 10 10 0 10 0 0 -10z m80 0 l0 -10 -10 0
-10 0 0 10 0 10 10 0 10 0 0 -10z m80 0 l0 -10 -10 0 -10 0 0 10 0 10 10 0 10
0 0 -10z m-120 -20 l0 -10 -10 0 -10 0 0 10 0 10 10 0 10 0 0 -10z m80 0 l0
-10 -10 0 -10 0 0 10 0 10 10 0 10 0 0 -10z m-120 -20 l0 -10 -10 0 -10 0 0
10 0 10 10 0 10 0 0 -10z m80 0 l0 -10 -10 0 -10 0 0 10 0 10 10 0 10 0 0 -10z
m80 0 l0 -10 -10 0 -10 0 0 10 0 10 10 0 10 0 0 -10z m-120 -20 l0 -10 -10 0
-10 0 0 10 0 10 10 0 10 0 0 -10z m80 0 l0 -10 -10 0 -10 0 0 10 0 10 10 0 10
0 0 -10z m-120 -20 l0 -10 -10 0 -10 0 0 10 0 10 10 0 10 0 0 -10z m80 0 l0
-10 -10 0 -10 0 0 10 0 10 10 0 10 0 0 -10z m120 0 l0 -10 -10 0 -10 0 0 10 0
10 10 0 10 0 0 -10z m80 0 l0 -10 -10 0 -10 0 0 10 0 10 10 0 10 0 0 -10z
m-240 -20 l0 -10 -10 0 -10 0 0 10 0 10 10 0 10 0 0 -10z m80 0 l0 -10 -10 0
-10 0 0 10 0 10 10 0 10 0 0 -10z m-120 -20 l0 -10 -10 0 -10 0 0 10 0 10 10
0 10 0 0 -10z m80 0 l0 -10 -10 0 -10 0 0 10 0 10 10 0 10 0 0 -10z m80 0 l0
-10 -10 0 -10 0 0 10 0 10 10 0 10 0 0 -10z m80 0 l0 -10 -10 0 -10 0 0 10 0
10 10 0 10 0 0 -10z m80 0 l0 -10 -10 0 -10 0 0 10 0 10 10 0 10 0 0 -10z
m-280 -20 l0 -10 -10 0 -10 0 0 10 0 10 10 0 10 0 0 -10z m-40 -20 l0 -10 -10
0 -10 0 0 10 0 10 10 0 10 0 0 -10z m120 0 l0 -10 -10 0 -10 0 0 10 0 10 10 0
10 0 0 -10z m80 0 l0 -10 -10 0 -10 0 0 10 0 10 10 0 10 0 0 -10z m80 0 l0
-10 -10 0 -10 0 0 10 0 10 10 0 10 0 0 -10z m80 0 l0 -10 -10 0 -10 0 0 10 0
10 10 0 10 0 0 -10z m80 0 l0 -10 -10 0 -10 0 0 10 0 10 10 0 10 0 0 -10z
m-400 -20 l0 -10 -10 0 -10 0 0 10 0 10 10 0 10 0 0 -10z m-40 -20 l0 -10 -10
0 -10 0 0 10 0 10 10 0 10 0 0 -10z m80 0 l0 -10 -10 0 -10 0 0 10 0 10 10 0
10 0 0 -10z m80 0 l0 -10 -10 0 -10 0 0 10 0 10 10 0 10 0 0 -10z m80 0 l0
-10 -10 0 -10 0 0 10 0 10 10 0 10 0 0 -10z m80 0 l0 -10 -10 0 -10 0 0 10 0
10 10 0 10 0 0 -10z m80 0 l0 -10 -10 0 -10 0 0 10 0 10 10 0 10 0 0 -10z m80
0 l0 -10 -10 0 -10 0 0 10 0 10 10 0 10 0 0 -10z m-440 -40 l0 -10 -10 0 -10
0 0 10 0 10 10 0 10 0 0 -10z m80 0 l0 -10 -10 0 -10 0 0 10 0 10 10 0 10 0 0
-10z m80 0 l0 -10 -10 0 -10 0 0 10 0 10 10 0 10 0 0 -10z m80 0 l0 -10 -10 0
-10 0 0 10 0 10 10 0 10 0 0 -10z m80 0 l0 -10 -10 0 -10 0 0 10 0 10 10 0 10
0 0 -10z m80 0 l0 -10 -10 0 -10 0 0 10 0 10 10 0 10 0 0 -10z m-440 -40 l0
-10 -10 0 -10 0 0 10 0 10 10 0 10 0 0 -10z m80 0 l0 -10 -10 0 -10 0 0 10 0
10 10 0 10 0 0 -10z m80 0 l0 -10 -10 0 -10 0 0 10 0 10 10 0 10 0 0 -10z m80
0 l0 -10 -10 0 -10 0 0 10 0 10 10 0 10 0 0 -10z m80 0 l0 -10 -10 0 -10 0 0
10 0 10 10 0 10 0 0 -10z m80 0 l0 -10 -10 0 -10 0 0 10 0 10 10 0 10 0 0 -10z
m-280 -40 l0 -10 -10 0 -10 0 0 10 0 10 10 0 10 0 0 -10z m80 0 l0 -10 -10 0
-10 0 0 10 0 10 10 0 10 0 0 -10z m80 0 l0 -10 -10 0 -10 0 0 10 0 10 10 0 10
0 0 -10z m80 0 l0 -10 -10 0 -10 0 0 10 0 10 10 0 10 0 0 -10z m-200 -40 l0
-10 -10 0 -10 0 0 10 0 10 10 0 10 0 0 -10z m80 0 l0 -10 -10 0 -10 0 0 10 0
10 10 0 10 0 0 -10z m80 0 l0 -10 -10 0 -10 0 0 10 0 10 10 0 10 0 0 -10z
m-40 -40 l0 -10 -10 0 -10 0 0 10 0 10 10 0 10 0 0 -10z"/>
<path d="M160 1235 l0 -5 56 -57 56 -56 9 14 9 14 9 -14 9 -14 42 43 42 43 8
-13 8 -13 27 27 27 27 -6 7 -7 6 -10 -14 -9 -15 -10 15 -10 15 -10 -15 -10
-15 -10 15 -10 15 -10 -15 -10 -15 -10 15 -10 15 -10 -15 -10 -15 -10 15 -10
15 -10 -15 -10 -15 -10 15 -10 15 -10 -15 -10 -15 -10 15 -10 15 -11 -15 -11
-15 -5 13 -5 12 -9 0 -9 0 0 -5z m63 -27 l5 -13 11 15 11 15 10 -15 10 -15 10
15 10 15 10 -15 10 -15 10 15 10 15 10 -15 10 -15 9 15 10 14 6 -6 7 -7 -37
-37 -37 -37 -9 14 -9 14 -9 -14 -9 -14 -36 36 -36 36 0 6 0 5 9 0 9 0 5 -12z
m197 2 l0 -10 -10 0 -10 0 0 10 0 10 10 0 10 0 0 -10z"/>
<path d="M240 1194 l0 -5 16 -16 16 -16 9 14 9 14 9 -14 9 -14 17 17 17 17 -6
7 -7 6 -10 -14 -9 -15 -10 15 -10 15 -11 -15 -11 -15 -5 13 -5 12 -9 0 -9 0 0
-6z"/>
<path d="M480 1230 l0 -10 10 0 10 0 0 10 0 10 -10 0 -10 0 0 -10z"/>
<path d="M1193 1265 l-13 -14 0 -16 0 -15 -15 0 -16 0 -24 -25 -25 -24 0 -16
0 -15 -16 0 -15 0 -16 -16 -16 -16 14 -8 13 -9 -7 -8 -8 -7 -9 14 -9 14 -22
-24 -22 -25 -4 13 -5 12 -19 0 -19 0 0 -20 0 -20 -9 0 -9 0 -6 13 -6 12 -6
-12 -6 -13 -19 0 -19 0 0 -20 0 -20 -9 0 -9 0 -6 13 -6 12 -6 -12 -6 -13 -19
0 -19 0 0 -20 0 -20 -9 0 -9 0 -6 13 -6 12 -6 -12 -6 -13 -19 0 -19 0 0 -20 0
-20 -9 0 -9 0 -4 12 -4 12 -27 -26 -27 -27 0 -16 0 -15 -15 0 -16 0 -24 -25
-25 -24 0 -16 0 -15 -15 0 -16 0 -24 -25 -25 -24 0 -16 0 -15 -16 0 -15 0 -16
-16 -16 -16 14 -8 13 -9 -7 -8 -8 -7 -9 14 -9 14 -22 -24 -22 -25 -4 13 -5 12
-19 0 -19 0 0 -20 0 -20 -9 0 -9 0 -6 13 -6 12 -6 -12 -6 -13 -19 0 -19 0 0
-20 0 -20 -9 0 -9 0 -6 13 -6 12 -6 -12 -6 -13 -19 0 -19 0 0 -20 0 -20 -9 0
-9 0 -6 13 -6 12 -6 -12 -6 -13 -19 0 -19 0 0 -20 0 -20 -9 0 -9 0 -4 12 -5
13 -18 -18 -18 -19 14 -9 14 -9 -15 -10 -15 -10 15 -11 15 -11 -12 -5 -13 -5
0 -199 0 -199 640 0 640 0 0 230 0 230 -10 0 -10 0 0 -20 0 -20 -20 0 -20 0 0
-10 0 -10 -10 0 -10 0 0 20 0 20 20 0 20 0 0 16 0 17 22 18 21 19 -8 8 -8 7
-4 -12 -5 -13 -19 0 -19 0 0 9 0 9 13 5 12 4 -9 9 -9 9 -4 -12 -5 -13 -19 0
-19 0 0 9 0 9 13 5 12 4 -9 9 -9 9 -4 -12 -5 -13 -19 0 -19 0 0 9 0 9 13 5 12
4 -9 9 -9 9 -4 -12 -5 -13 -18 0 -18 0 -5 -12 -4 -13 -8 7 -8 8 23 20 23 20
-8 8 -8 7 -4 -12 -5 -13 -19 0 -19 0 0 9 0 9 13 5 12 4 -9 9 -9 9 -4 -12 -5
-13 -19 0 -19 0 0 9 0 9 13 5 12 4 -9 9 -9 9 -4 -12 -5 -13 -19 0 -19 0 0 9 0
9 13 6 12 6 -12 6 -13 6 0 9 0 9 19 0 19 0 5 -12 4 -13 9 9 9 9 -12 4 -13 5 0
19 0 19 6 0 7 0 18 -22 19 -21 8 8 7 8 -12 4 -13 5 0 9 0 9 19 0 19 0 5 -12 4
-13 9 9 9 9 -12 4 -13 5 0 19 0 19 6 0 7 0 18 -22 19 -21 8 8 7 8 -12 4 -13 5
0 9 0 9 19 0 19 0 5 -12 4 -13 9 9 9 9 -12 4 -13 5 0 19 0 19 6 0 7 0 18 -22
19 -21 8 8 7 8 -12 4 -13 5 0 9 0 9 19 0 19 0 5 -12 4 -13 9 8 8 8 -14 10 -15
11 13 5 12 5 0 229 0 229 -9 0 -9 0 -6 -12 -6 -13 -6 13 -6 12 -16 0 -17 -1
-12 -14z m27 -15 l0 -10 -10 0 -10 0 0 10 0 10 10 0 10 0 0 -10z m40 -20 l0
-10 -10 0 -10 0 0 10 0 10 10 0 10 0 0 -10z m-40 -20 l0 -10 -10 0 -10 0 0 10
0 10 10 0 10 0 0 -10z m-40 -20 l0 -10 -10 0 -10 0 0 10 0 10 10 0 10 0 0 -10z
m80 0 l0 -10 -10 0 -10 0 0 10 0 10 10 0 10 0 0 -10z m-120 -20 l0 -10 -10 0
-10 0 0 10 0 10 10 0 10 0 0 -10z m80 0 l0 -10 -10 0 -10 0 0 10 0 10 10 0 10
0 0 -10z m-40 -20 l0 -10 -10 0 -10 0 0 10 0 10 10 0 10 0 0 -10z m80 0 l0
-10 -10 0 -10 0 0 10 0 10 10 0 10 0 0 -10z m-120 -20 l0 -10 -10 0 -10 0 0
10 0 10 10 0 10 0 0 -10z m80 0 l0 -10 -10 0 -10 0 0 10 0 10 10 0 10 0 0 -10z
m-120 -20 l0 -10 -10 0 -10 0 0 10 0 10 10 0 10 0 0 -10z m80 0 l0 -10 -10 0
-10 0 0 10 0 10 10 0 10 0 0 -10z m80 0 l0 -10 -10 0 -10 0 0 10 0 10 10 0 10
0 0 -10z m-120 -20 l0 -10 -10 0 -10 0 0 10 0 10 10 0 10 0 0 -10z m80 0 l0
-10 -10 0 -10 0 0 10 0 10 10 0 10 0 0 -10z m-120 -20 l0 -10 -10 0 -10 0 0
10 0 10 10 0 10 0 0 -10z m80 0 l0 -10 -10 0 -10 0 0 10 0 10 10 0 10 0 0 -10z
m80 0 l0 -10 -10 0 -10 0 0 10 0 10 10 0 10 0 0 -10z m-277 -22 l5 -13 11 15
11 15 10 -15 10 -15 9 15 10 14 8 -7 7 -8 -13 -8 -14 -9 38 -37 37 -38 9 14 8
13 8 -7 7 -8 -13 -8 -14 -9 38 -37 37 -38 9 14 8 13 8 -7 7 -8 -14 -9 -14 -9
23 -20 23 -20 -17 -17 -17 -17 -8 13 -8 14 -32 -34 -32 -34 -8 14 -8 14 -32
-34 -32 -34 -8 14 -8 13 -38 -38 -38 -39 12 -4 12 -4 0 -9 0 -9 -19 0 -19 0
-5 -12 -4 -13 -9 9 -9 9 13 4 12 5 0 19 0 19 -6 0 -7 0 -18 -22 -19 -21 -7 7
-7 7 13 8 14 9 -38 37 -37 38 -9 -14 -8 -13 -8 7 -7 8 13 8 14 9 -38 37 -37
38 -9 -14 -8 -13 -8 7 -7 8 13 8 14 9 -38 37 -37 38 -9 -14 -8 -13 -7 6 -6 7
17 17 17 17 8 -13 8 -14 32 34 32 34 8 -14 8 -14 32 34 32 34 8 -14 8 -14 32
34 32 34 8 -15 9 -14 18 22 18 23 7 0 6 0 5 -12z m157 2 l0 -10 -10 0 -10 0 0
10 0 10 10 0 10 0 0 -10z m80 0 l0 -10 -10 0 -10 0 0 10 0 10 10 0 10 0 0 -10z
m-120 -20 l0 -10 -10 0 -10 0 0 10 0 10 10 0 10 0 0 -10z m80 0 l0 -10 -10 0
-10 0 0 10 0 10 10 0 10 0 0 -10z m80 0 l0 -10 -10 0 -10 0 0 10 0 10 10 0 10
0 0 -10z m-120 -20 l0 -10 -10 0 -10 0 0 10 0 10 10 0 10 0 0 -10z m80 0 l0
-10 -10 0 -10 0 0 10 0 10 10 0 10 0 0 -10z m-40 -20 l0 -10 -10 0 -10 0 0 10
0 10 10 0 10 0 0 -10z m80 0 l0 -10 -10 0 -10 0 0 10 0 10 10 0 10 0 0 -10z
m-40 -20 l0 -10 -10 0 -10 0 0 10 0 10 10 0 10 0 0 -10z m-40 -20 l0 -10 -10
0 -10 0 0 10 0 10 10 0 10 0 0 -10z m80 0 l0 -10 -10 0 -10 0 0 10 0 10 10 0
10 0 0 -10z m-40 -20 l0 -10 -10 0 -10 0 0 10 0 10 10 0 10 0 0 -10z m40 -20
l0 -10 -10 0 -10 0 0 10 0 10 10 0 10 0 0 -10z m0 -40 l0 -10 -10 0 -10 0 0
10 0 10 10 0 10 0 0 -10z m-600 -20 l0 -10 -10 0 -10 0 0 10 0 10 10 0 10 0 0
-10z m-40 -20 l0 -10 -10 0 -10 0 0 10 0 10 10 0 10 0 0 -10z m80 0 l0 -10
-10 0 -10 0 0 10 0 10 10 0 10 0 0 -10z m-120 -20 l0 -10 -10 0 -10 0 0 10 0
10 10 0 10 0 0 -10z m80 0 l0 -10 -10 0 -10 0 0 10 0 10 10 0 10 0 0 -10z
m-40 -20 l0 -10 -10 0 -10 0 0 10 0 10 10 0 10 0 0 -10z m80 0 l0 -10 -10 0
-10 0 0 10 0 10 10 0 10 0 0 -10z m-120 -20 l0 -10 -10 0 -10 0 0 10 0 10 10
0 10 0 0 -10z m80 0 l0 -10 -10 0 -10 0 0 10 0 10 10 0 10 0 0 -10z m80 0 l0
-10 -10 0 -10 0 0 10 0 10 10 0 10 0 0 -10z m-200 -20 l0 -10 -10 0 -10 0 0
10 0 10 10 0 10 0 0 -10z m80 0 l0 -10 -10 0 -10 0 0 10 0 10 10 0 10 0 0 -10z
m80 0 l0 -10 -10 0 -10 0 0 10 0 10 10 0 10 0 0 -10z m80 0 l0 -10 -10 0 -10
0 0 10 0 10 10 0 10 0 0 -10z m-280 -20 l0 -10 -10 0 -10 0 0 10 0 10 10 0 10
0 0 -10z m80 0 l0 -10 -10 0 -10 0 0 10 0 10 10 0 10 0 0 -10z m80 0 l0 -10
-10 0 -10 0 0 10 0 10 10 0 10 0 0 -10z m80 0 l0 -10 -10 0 -10 0 0 10 0 10
10 0 10 0 0 -10z m-200 -20 l0 -10 -10 0 -10 0 0 10 0 10 10 0 10 0 0 -10z
m80 0 l0 -10 -10 0 -10 0 0 10 0 10 10 0 10 0 0 -10z m80 0 l0 -10 -10 0 -10
0 0 10 0 10 10 0 10 0 0 -10z m80 0 l0 -10 -10 0 -10 0 0 10 0 10 10 0 10 0 0
-10z m-280 -20 l0 -10 -10 0 -10 0 0 10 0 10 10 0 10 0 0 -10z m80 0 l0 -10
-10 0 -10 0 0 10 0 10 10 0 10 0 0 -10z m80 0 l0 -10 -10 0 -10 0 0 10 0 10
10 0 10 0 0 -10z m80 0 l0 -10 -10 0 -10 0 0 10 0 10 10 0 10 0 0 -10z m80 0
l0 -10 -10 0 -10 0 0 10 0 10 10 0 10 0 0 -10z m-360 -20 l0 -10 -10 0 -10 0
0 10 0 10 10 0 10 0 0 -10z m80 0 l0 -10 -10 0 -10 0 0 10 0 10 10 0 10 0 0
-10z m80 0 l0 -10 -10 0 -10 0 0 10 0 10 10 0 10 0 0 -10z m80 0 l0 -10 -10 0
-10 0 0 10 0 10 10 0 10 0 0 -10z m80 0 l0 -10 -10 0 -10 0 0 10 0 10 10 0 10
0 0 -10z m80 0 l0 -10 -10 0 -10 0 0 10 0 10 10 0 10 0 0 -10z m-360 -20 l0
-10 -10 0 -10 0 0 10 0 10 10 0 10 0 0 -10z m80 0 l0 -10 -10 0 -10 0 0 10 0
10 10 0 10 0 0 -10z m80 0 l0 -10 -10 0 -10 0 0 10 0 10 10 0 10 0 0 -10z m80
0 l0 -10 -10 0 -10 0 0 10 0 10 10 0 10 0 0 -10z m80 0 l0 -10 -10 0 -10 0 0
10 0 10 10 0 10 0 0 -10z m-360 -20 l0 -10 -10 0 -10 0 0 10 0 10 10 0 10 0 0
-10z m80 0 l0 -10 -10 0 -10 0 0 10 0 10 10 0 10 0 0 -10z m80 0 l0 -10 -10 0
-10 0 0 10 0 10 10 0 10 0 0 -10z m80 0 l0 -10 -10 0 -10 0 0 10 0 10 10 0 10
0 0 -10z m80 0 l0 -10 -10 0 -10 0 0 10 0 10 10 0 10 0 0 -10z m80 0 l0 -10
-10 0 -10 0 0 10 0 10 10 0 10 0 0 -10z m-517 -22 l5 -13 11 15 11 15 10 -15
10 -15 9 15 10 14 8 -7 7 -8 -13 -8 -14 -9 38 -37 37 -38 9 14 8 13 8 -7 7 -8
-13 -8 -14 -9 38 -37 37 -38 9 14 8 13 8 -7 7 -8 -14 -10 -15 -9 15 -9 14 -10
-7 -8 -8 -7 -10 14 -9 15 -10 -15 -10 -15 -10 15 -10 15 -10 -15 -10 -15 -10
15 -10 15 -10 -15 -10 -15 -10 15 -10 15 -10 -15 -10 -15 -10 15 -10 15 -10
-15 -10 -15 -10 15 -10 15 -10 -15 -10 -15 -10 15 -10 15 -10 -15 -10 -15 -10
15 -10 15 -10 -15 -10 -15 -10 15 -10 15 -10 -15 -10 -15 -10 15 -10 15 -10
-15 -10 -15 -10 15 -10 15 -10 -15 -10 -15 -10 15 -10 15 -9 -14 -9 -14 -37
37 -37 37 7 7 6 6 9 -14 8 -14 32 34 32 34 8 -14 8 -14 32 34 32 34 8 -14 8
-14 32 34 32 34 8 -15 9 -14 18 22 18 23 7 0 6 0 5 -12z m157 2 l0 -10 -10 0
-10 0 0 10 0 10 10 0 10 0 0 -10z m80 0 l0 -10 -10 0 -10 0 0 10 0 10 10 0 10
0 0 -10z m80 0 l0 -10 -10 0 -10 0 0 10 0 10 10 0 10 0 0 -10z m80 0 l0 -10
-10 0 -10 0 0 10 0 10 10 0 10 0 0 -10z m80 0 l0 -10 -10 0 -10 0 0 10 0 10
10 0 10 0 0 -10z m-360 -20 l0 -10 -10 0 -10 0 0 10 0 10 10 0 10 0 0 -10z
m80 0 l0 -10 -10 0 -10 0 0 10 0 10 10 0 10 0 0 -10z m80 0 l0 -10 -10 0 -10
0 0 10 0 10 10 0 10 0 0 -10z m80 0 l0 -10 -10 0 -10 0 0 10 0 10 10 0 10 0 0
-10z m80 0 l0 -10 -10 0 -10 0 0 10 0 10 10 0 10 0 0 -10z m120 0 l0 -10 -10
0 -10 0 0 10 0 10 10 0 10 0 0 -10z m80 0 l0 -10 -10 0 -10 0 0 10 0 10 10 0
10 0 0 -10z m-480 -20 l0 -10 -10 0 -10 0 0 10 0 10 10 0 10 0 0 -10z m80 0
l0 -10 -10 0 -10 0 0 10 0 10 10 0 10 0 0 -10z m80 0 l0 -10 -10 0 -10 0 0 10
0 10 10 0 10 0 0 -10z m80 0 l0 -10 -10 0 -10 0 0 10 0 10 10 0 10 0 0 -10z
m80 0 l0 -10 -10 0 -10 0 0 10 0 10 10 0 10 0 0 -10z m-280 -20 l0 -10 -10 0
-10 0 0 10 0 10 10 0 10 0 0 -10z m80 0 l0 -10 -10 0 -10 0 0 10 0 10 10 0 10
0 0 -10z m80 0 l0 -10 -10 0 -10 0 0 10 0 10 10 0 10 0 0 -10z m80 0 l0 -10
-10 0 -10 0 0 10 0 10 10 0 10 0 0 -10z m80 0 l0 -10 -10 0 -10 0 0 10 0 10
10 0 10 0 0 -10z m80 0 l0 -10 -10 0 -10 0 0 10 0 10 10 0 10 0 0 -10z m80 0
l0 -10 -10 0 -10 0 0 10 0 10 10 0 10 0 0 -10z m-440 -20 l0 -10 -10 0 -10 0
0 10 0 10 10 0 10 0 0 -10z m80 0 l0 -10 -10 0 -10 0 0 10 0 10 10 0 10 0 0
-10z m80 0 l0 -10 -10 0 -10 0 0 10 0 10 10 0 10 0 0 -10z m-200 -20 l0 -10
-10 0 -10 0 0 10 0 10 10 0 10 0 0 -10z m80 0 l0 -10 -10 0 -10 0 0 10 0 10
10 0 10 0 0 -10z m80 0 l0 -10 -10 0 -10 0 0 10 0 10 10 0 10 0 0 -10z m120 0
l0 -10 -10 0 -10 0 0 10 0 10 10 0 10 0 0 -10z m80 0 l0 -10 -10 0 -10 0 0 10
0 10 10 0 10 0 0 -10z m80 0 l0 -10 -10 0 -10 0 0 10 0 10 10 0 10 0 0 -10z
m80 0 l0 -10 -10 0 -10 0 0 10 0 10 10 0 10 0 0 -10z m80 0 l0 -10 -10 0 -10
0 0 10 0 10 10 0 10 0 0 -10z m-560 -20 l0 -10 -10 0 -10 0 0 10 0 10 10 0 10
0 0 -10z m80 0 l0 -10 -10 0 -10 0 0 10 0 10 10 0 10 0 0 -10z m80 0 l0 -10
-10 0 -10 0 0 10 0 10 10 0 10 0 0 -10z m-120 -20 l0 -10 -10 0 -10 0 0 10 0
10 10 0 10 0 0 -10z m80 0 l0 -10 -10 0 -10 0 0 10 0 10 10 0 10 0 0 -10z m80
0 l0 -10 -10 0 -10 0 0 10 0 10 10 0 10 0 0 -10z m80 0 l0 -10 -10 0 -10 0 0
10 0 10 10 0 10 0 0 -10z m80 0 l0 -10 -10 0 -10 0 0 10 0 10 10 0 10 0 0 -10z
m80 0 l0 -10 -10 0 -10 0 0 10 0 10 10 0 10 0 0 -10z m80 0 l0 -10 -10 0 -10
0 0 10 0 10 10 0 10 0 0 -10z m80 0 l0 -10 -10 0 -10 0 0 10 0 10 10 0 10 0 0
-10z m-520 -20 l0 -10 -10 0 -10 0 0 10 0 10 10 0 10 0 0 -10z m-40 -20 l0
-10 -10 0 -10 0 0 10 0 10 10 0 10 0 0 -10z m120 0 l0 -10 -10 0 -10 0 0 10 0
10 10 0 10 0 0 -10z m80 0 l0 -10 -10 0 -10 0 0 10 0 10 10 0 10 0 0 -10z m80
0 l0 -10 -10 0 -10 0 0 10 0 10 10 0 10 0 0 -10z m80 0 l0 -10 -10 0 -10 0 0
10 0 10 10 0 10 0 0 -10z m80 0 l0 -10 -10 0 -10 0 0 10 0 10 10 0 10 0 0 -10z
m80 0 l0 -10 -10 0 -10 0 0 10 0 10 10 0 10 0 0 -10z m-480 -20 l0 -10 -10 0
-10 0 0 10 0 10 10 0 10 0 0 -10z"/>
<path d="M947 1017 l-18 -22 -9 14 -8 15 -32 -34 -32 -34 -8 14 -8 14 -32 -34
-32 -34 -8 14 -8 13 -26 -26 -27 -27 107 -106 106 -107 9 14 9 14 9 -14 9 -14
42 43 42 43 8 -13 8 -14 32 34 32 34 8 -14 8 -14 32 34 32 34 8 -14 9 -14 6 6
7 6 -107 107 -107 108 -10 -14 -10 -14 -5 13 -5 12 -6 0 -7 0 -18 -23z m36 -9
l5 -13 10 14 10 14 86 -87 87 -86 -27 -27 -26 -26 -8 13 -8 14 -32 -34 -32
-34 -8 14 -8 13 -42 -43 -42 -43 -9 14 -9 14 -9 -14 -9 -14 -96 97 -97 97 16
16 17 16 8 -13 8 -14 32 34 32 34 8 -14 8 -14 32 34 32 34 8 -15 9 -14 18 22
18 23 7 0 6 0 5 -12z"/>
<path d="M947 977 l-18 -22 -9 14 -8 15 -32 -34 -32 -34 -8 14 -8 14 -32 -34
-32 -34 -8 14 -9 14 -6 -6 -7 -6 87 -88 87 -87 9 14 9 14 9 -14 9 -14 42 43
42 43 8 -13 8 -14 32 34 32 34 8 -14 8 -13 17 16 16 16 -77 77 -76 77 -10 -14
-10 -14 -5 13 -5 12 -6 0 -7 0 -18 -23z m36 -9 l5 -13 10 14 10 14 67 -67 67
-67 -7 -7 -6 -6 -9 14 -8 14 -32 -34 -32 -34 -8 14 -8 13 -42 -43 -42 -43 -9
14 -9 14 -9 -14 -9 -14 -66 67 -67 66 27 27 26 26 8 -13 8 -14 32 34 32 34 8
-15 9 -14 18 22 18 23 7 0 6 0 5 -12z"/>
<path d="M947 937 l-18 -22 -9 14 -8 15 -32 -34 -32 -34 -8 14 -8 13 -17 -16
-16 -17 57 -56 56 -57 9 14 9 14 9 -14 9 -14 42 43 42 43 8 -13 8 -13 26 26
27 27 -47 46 -46 47 -10 -14 -10 -14 -5 13 -5 12 -6 0 -7 0 -18 -23z m36 -9
l5 -13 10 14 10 14 36 -37 37 -36 -16 -17 -17 -16 -8 13 -8 13 -42 -43 -42
-43 -9 14 -9 14 -9 -14 -9 -14 -47 47 -47 47 7 7 6 6 9 -14 8 -14 32 34 32 34
8 -15 9 -14 18 22 18 23 7 0 6 0 5 -12z"/>
<path d="M947 897 l-18 -22 -8 14 -9 14 -26 -27 -27 -26 27 -26 26 -27 9 14 9
14 9 -14 9 -14 42 43 42 43 8 -14 9 -13 7 6 6 7 -27 27 -27 27 -10 -14 -10
-14 -5 13 -5 12 -6 0 -7 0 -18 -23z m36 -9 l5 -13 11 15 10 14 6 -6 7 -7 -37
-37 -37 -37 -9 14 -9 14 -9 -14 -9 -14 -17 16 -16 17 16 17 17 16 9 -14 8 -14
18 22 18 23 7 0 6 0 5 -12z"/>
<path d="M951 864 l-13 -15 6 -6 5 -5 16 15 15 16 0 5 0 6 -7 0 -8 -1 -14 -15z"/>
<path d="M900 850 l0 -10 10 0 10 0 0 10 0 10 -10 0 -10 0 0 -10z"/>
<path d="M307 577 l-18 -22 -9 14 -8 15 -32 -34 -32 -34 -8 14 -8 14 -32 -34
-32 -34 -8 14 -8 13 -27 -27 -26 -26 16 -17 17 -16 9 14 9 14 10 -15 10 -15
10 15 10 15 10 -15 10 -15 10 15 10 15 10 -15 10 -15 10 15 10 15 10 -15 10
-15 10 15 10 15 10 -15 10 -15 10 15 10 15 10 -15 10 -15 10 15 10 15 10 -15
10 -15 10 15 10 15 10 -15 10 -15 10 15 10 15 10 -15 10 -15 10 15 10 15 10
-15 10 -15 10 15 10 15 9 -15 10 -14 6 6 7 6 -87 88 -87 87 -10 -14 -10 -14
-5 13 -5 12 -6 0 -7 0 -18 -23z m36 -9 l5 -13 10 14 10 14 67 -67 67 -67 -7
-7 -6 -6 -10 14 -9 15 -10 -15 -10 -15 -10 15 -10 15 -10 -15 -10 -15 -10 15
-10 15 -10 -15 -10 -15 -10 15 -10 15 -10 -15 -10 -15 -10 15 -10 15 -10 -15
-10 -15 -10 15 -10 15 -10 -15 -10 -15 -10 15 -10 15 -10 -15 -10 -15 -10 15
-10 15 -10 -15 -10 -15 -10 15 -10 15 -10 -15 -10 -15 -10 15 -10 15 -9 -15
-10 -14 -7 6 -6 7 17 17 17 17 8 -13 8 -14 32 34 32 34 8 -14 8 -14 32 34 32
34 8 -15 9 -14 18 22 18 23 7 0 6 0 5 -12z"/>
<path d="M307 537 l-18 -22 -9 14 -8 15 -32 -34 -32 -34 -8 14 -8 13 -17 -17
-17 -17 6 -7 7 -6 10 14 9 15 10 -15 10 -15 10 15 10 15 10 -15 10 -15 10 15
10 15 10 -15 10 -15 10 15 10 15 10 -15 10 -15 10 15 10 15 10 -15 10 -15 10
15 10 15 10 -15 10 -15 10 15 10 15 9 -15 10 -14 6 6 7 7 -47 47 -47 47 -10
-14 -10 -14 -5 13 -5 12 -6 0 -7 0 -18 -23z m36 -9 l5 -13 10 14 10 14 27 -27
27 -27 -6 -7 -7 -6 -10 14 -9 15 -10 -15 -10 -15 -10 15 -10 15 -10 -15 -10
-15 -10 15 -10 15 -10 -15 -10 -15 -10 15 -10 15 -9 -15 -10 -14 -7 6 -6 7 17
17 17 17 9 -14 8 -14 18 22 18 23 7 0 6 0 5 -12z"/>
<path d="M320 510 l0 -10 10 0 10 0 0 10 0 10 -10 0 -10 0 0 -10z"/>
<path d="M360 510 l0 -10 10 0 10 0 0 10 0 10 -10 0 -10 0 0 -10z"/>
<path d="M660 1210 l0 -10 10 0 10 0 0 10 0 10 -10 0 -10 0 0 -10z"/>
<path d="M620 1190 l0 -10 10 0 10 0 0 10 0 10 -10 0 -10 0 0 -10z"/>
<path d="M700 1190 l0 -10 10 0 10 0 0 10 0 10 -10 0 -10 0 0 -10z"/>
<path d="M580 1170 l0 -10 10 0 10 0 0 10 0 10 -10 0 -10 0 0 -10z"/>
<path d="M660 1170 l0 -10 10 0 10 0 0 10 0 10 -10 0 -10 0 0 -10z"/>
<path d="M740 1170 l0 -10 10 0 10 0 0 10 0 10 -10 0 -10 0 0 -10z"/>
<path d="M540 1150 l0 -10 10 0 10 0 0 10 0 10 -10 0 -10 0 0 -10z"/>
<path d="M620 1150 l0 -10 10 0 10 0 0 10 0 10 -10 0 -10 0 0 -10z"/>
<path d="M700 1150 l0 -10 10 0 10 0 0 10 0 10 -10 0 -10 0 0 -10z"/>
<path d="M780 1150 l0 -10 10 0 10 0 0 10 0 10 -10 0 -10 0 0 -10z"/>
<path d="M500 1130 l0 -10 10 0 10 0 0 10 0 10 -10 0 -10 0 0 -10z"/>
<path d="M580 1130 l0 -10 10 0 10 0 0 10 0 10 -10 0 -10 0 0 -10z"/>
<path d="M660 1130 l0 -10 10 0 10 0 0 10 0 10 -10 0 -10 0 0 -10z"/>
<path d="M740 1130 l0 -10 10 0 10 0 0 10 0 10 -10 0 -10 0 0 -10z"/>
<path d="M820 1130 l0 -10 10 0 10 0 0 10 0 10 -10 0 -10 0 0 -10z"/>
<path d="M460 1110 l0 -10 10 0 10 0 0 10 0 10 -10 0 -10 0 0 -10z"/>
<path d="M540 1110 l0 -10 10 0 10 0 0 10 0 10 -10 0 -10 0 0 -10z"/>
<path d="M620 1110 l0 -10 10 0 10 0 0 10 0 10 -10 0 -10 0 0 -10z"/>
<path d="M700 1110 l0 -10 10 0 10 0 0 10 0 10 -10 0 -10 0 0 -10z"/>
<path d="M780 1110 l0 -10 10 0 10 0 0 10 0 10 -10 0 -10 0 0 -10z"/>
<path d="M860 1110 l0 -10 10 0 10 0 0 10 0 10 -10 0 -10 0 0 -10z"/>
<path d="M420 1090 l0 -10 10 0 10 0 0 10 0 10 -10 0 -10 0 0 -10z"/>
<path d="M500 1090 l0 -10 10 0 10 0 0 10 0 10 -10 0 -10 0 0 -10z"/>
<path d="M580 1090 l0 -10 10 0 10 0 0 10 0 10 -10 0 -10 0 0 -10z"/>
<path d="M660 1090 l0 -10 10 0 10 0 0 10 0 10 -10 0 -10 0 0 -10z"/>
<path d="M740 1090 l0 -10 10 0 10 0 0 10 0 10 -10 0 -10 0 0 -10z"/>
<path d="M820 1090 l0 -10 10 0 10 0 0 10 0 10 -10 0 -10 0 0 -10z"/>
<path d="M900 1090 l0 -10 10 0 10 0 0 10 0 10 -10 0 -10 0 0 -10z"/>
<path d="M460 1070 l0 -10 10 0 10 0 0 10 0 10 -10 0 -10 0 0 -10z"/>
<path d="M540 1070 l0 -10 10 0 10 0 0 10 0 10 -10 0 -10 0 0 -10z"/>
<path d="M620 1070 l0 -10 10 0 10 0 0 10 0 10 -10 0 -10 0 0 -10z"/>
<path d="M700 1070 l0 -10 10 0 10 0 0 10 0 10 -10 0 -10 0 0 -10z"/>
<path d="M780 1070 l0 -10 10 0 10 0 0 10 0 10 -10 0 -10 0 0 -10z"/>
<path d="M860 1070 l0 -10 10 0 10 0 0 10 0 10 -10 0 -10 0 0 -10z"/>
<path d="M500 1050 l0 -10 10 0 10 0 0 10 0 10 -10 0 -10 0 0 -10z"/>
<path d="M580 1050 l0 -10 10 0 10 0 0 10 0 10 -10 0 -10 0 0 -10z"/>
<path d="M660 1050 l0 -10 10 0 10 0 0 10 0 10 -10 0 -10 0 0 -10z"/>
<path d="M740 1050 l0 -10 10 0 10 0 0 10 0 10 -10 0 -10 0 0 -10z"/>
<path d="M820 1050 l0 -10 10 0 10 0 0 10 0 10 -10 0 -10 0 0 -10z"/>
<path d="M540 1030 l0 -10 10 0 10 0 0 10 0 10 -10 0 -10 0 0 -10z"/>
<path d="M620 1030 l0 -10 10 0 10 0 0 10 0 10 -10 0 -10 0 0 -10z"/>
<path d="M700 1030 l0 -10 10 0 10 0 0 10 0 10 -10 0 -10 0 0 -10z"/>
<path d="M780 1030 l0 -10 10 0 10 0 0 10 0 10 -10 0 -10 0 0 -10z"/>
<path d="M580 1010 l0 -10 10 0 10 0 0 10 0 10 -10 0 -10 0 0 -10z"/>
<path d="M660 1010 l0 -10 10 0 10 0 0 10 0 10 -10 0 -10 0 0 -10z"/>
<path d="M740 1010 l0 -10 10 0 10 0 0 10 0 10 -10 0 -10 0 0 -10z"/>
<path d="M620 990 l0 -10 10 0 10 0 0 10 0 10 -10 0 -10 0 0 -10z"/>
<path d="M700 990 l0 -10 10 0 10 0 0 10 0 10 -10 0 -10 0 0 -10z"/>
<path d="M660 970 l0 -10 10 0 10 0 0 10 0 10 -10 0 -10 0 0 -10z"/>
<path d="M20 770 l0 -10 10 0 10 0 0 10 0 10 -10 0 -10 0 0 -10z"/>
<path d="M60 750 l0 -10 10 0 10 0 0 10 0 10 -10 0 -10 0 0 -10z"/>
<path d="M1260 750 l0 -10 10 0 10 0 0 10 0 10 -10 0 -10 0 0 -10z"/>
<path d="M20 730 l0 -10 10 0 10 0 0 10 0 10 -10 0 -10 0 0 -10z"/>
<path d="M100 730 l0 -10 10 0 10 0 0 10 0 10 -10 0 -10 0 0 -10z"/>
<path d="M1220 730 l0 -10 10 0 10 0 0 10 0 10 -10 0 -10 0 0 -10z"/>
<path d="M60 710 l0 -10 10 0 10 0 0 10 0 10 -10 0 -10 0 0 -10z"/>
<path d="M140 710 l0 -10 10 0 10 0 0 10 0 10 -10 0 -10 0 0 -10z"/>
<path d="M1180 710 l0 -10 10 0 10 0 0 10 0 10 -10 0 -10 0 0 -10z"/>
<path d="M1260 710 l0 -10 10 0 10 0 0 10 0 10 -10 0 -10 0 0 -10z"/>
<path d="M20 690 l0 -10 10 0 10 0 0 10 0 10 -10 0 -10 0 0 -10z"/>
<path d="M100 690 l0 -10 10 0 10 0 0 10 0 10 -10 0 -10 0 0 -10z"/>
<path d="M180 690 l0 -10 10 0 10 0 0 10 0 10 -10 0 -10 0 0 -10z"/>
<path d="M1140 690 l0 -10 10 0 10 0 0 10 0 10 -10 0 -10 0 0 -10z"/>
<path d="M1220 690 l0 -10 10 0 10 0 0 10 0 10 -10 0 -10 0 0 -10z"/>
<path d="M60 670 l0 -10 10 0 10 0 0 10 0 10 -10 0 -10 0 0 -10z"/>
<path d="M140 670 l0 -10 10 0 10 0 0 10 0 10 -10 0 -10 0 0 -10z"/>
<path d="M220 670 l0 -10 10 0 10 0 0 10 0 10 -10 0 -10 0 0 -10z"/>
<path d="M1100 670 l0 -10 10 0 10 0 0 10 0 10 -10 0 -10 0 0 -10z"/>
<path d="M1180 670 l0 -10 10 0 10 0 0 10 0 10 -10 0 -10 0 0 -10z"/>
<path d="M1260 670 l0 -10 10 0 10 0 0 10 0 10 -10 0 -10 0 0 -10z"/>
<path d="M20 650 l0 -10 10 0 10 0 0 10 0 10 -10 0 -10 0 0 -10z"/>
<path d="M100 650 l0 -10 10 0 10 0 0 10 0 10 -10 0 -10 0 0 -10z"/>
<path d="M180 650 l0 -10 10 0 10 0 0 10 0 10 -10 0 -10 0 0 -10z"/>
<path d="M260 650 l0 -10 10 0 10 0 0 10 0 10 -10 0 -10 0 0 -10z"/>
<path d="M1060 650 l0 -10 10 0 10 0 0 10 0 10 -10 0 -10 0 0 -10z"/>
<path d="M1140 650 l0 -10 10 0 10 0 0 10 0 10 -10 0 -10 0 0 -10z"/>
<path d="M1220 650 l0 -10 10 0 10 0 0 10 0 10 -10 0 -10 0 0 -10z"/>
<path d="M60 630 l0 -10 10 0 10 0 0 10 0 10 -10 0 -10 0 0 -10z"/>
<path d="M140 630 l0 -10 10 0 10 0 0 10 0 10 -10 0 -10 0 0 -10z"/>
<path d="M220 630 l0 -10 10 0 10 0 0 10 0 10 -10 0 -10 0 0 -10z"/>
<path d="M1100 630 l0 -10 10 0 10 0 0 10 0 10 -10 0 -10 0 0 -10z"/>
<path d="M1180 630 l0 -10 10 0 10 0 0 10 0 10 -10 0 -10 0 0 -10z"/>
<path d="M1260 630 l0 -10 10 0 10 0 0 10 0 10 -10 0 -10 0 0 -10z"/>
<path d="M20 610 l0 -10 10 0 10 0 0 10 0 10 -10 0 -10 0 0 -10z"/>
<path d="M100 610 l0 -10 10 0 10 0 0 10 0 10 -10 0 -10 0 0 -10z"/>
<path d="M180 610 l0 -10 10 0 10 0 0 10 0 10 -10 0 -10 0 0 -10z"/>
<path d="M1140 610 l0 -10 10 0 10 0 0 10 0 10 -10 0 -10 0 0 -10z"/>
<path d="M1220 610 l0 -10 10 0 10 0 0 10 0 10 -10 0 -10 0 0 -10z"/>
<path d="M60 590 l0 -10 10 0 10 0 0 10 0 10 -10 0 -10 0 0 -10z"/>
<path d="M140 590 l0 -10 10 0 10 0 0 10 0 10 -10 0 -10 0 0 -10z"/>
<path d="M1180 590 l0 -10 10 0 10 0 0 10 0 10 -10 0 -10 0 0 -10z"/>
<path d="M1260 590 l0 -10 10 0 10 0 0 10 0 10 -10 0 -10 0 0 -10z"/>
<path d="M20 570 l0 -10 10 0 10 0 0 10 0 10 -10 0 -10 0 0 -10z"/>
<path d="M100 570 l0 -10 10 0 10 0 0 10 0 10 -10 0 -10 0 0 -10z"/>
<path d="M1220 570 l0 -10 10 0 10 0 0 10 0 10 -10 0 -10 0 0 -10z"/>
<path d="M60 550 l0 -10 10 0 10 0 0 10 0 10 -10 0 -10 0 0 -10z"/>
<path d="M1260 550 l0 -10 10 0 10 0 0 10 0 10 -10 0 -10 0 0 -10z"/>
<path d="M20 530 l0 -10 10 0 10 0 0 10 0 10 -10 0 -10 0 0 -10z"/>
</g>
</svg>
