<?xml version="1.0" standalone="no"?>
<!DOCTYPE svg PUBLIC "-//W3C//DTD SVG 20010904//EN"
 "http://www.w3.org/TR/2001/REC-SVG-20010904/DTD/svg10.dtd">
<svg version="1.0" xmlns="http://www.w3.org/2000/svg"
 width="468pt" height="468pt" viewBox="0 0 468 468"
 preserveAspectRatio="xMidYMid meet">
<metadata>
Created by potrace 1.8, written by Peter Selinger 2001-2007
</metadata>
<g transform="translate(0,468) scale(0.365625,-0.365625)"
fill="#000000" stroke="none">
<path d="M543 1215 l-23 -24 0 -156 0 -155 -10 0 -10 0 0 -20 0 -20 -10 0 -10
0 0 10 0 10 -20 0 -20 0 0 15 0 16 -25 24 -24 25 -11 0 -11 0 -15 -14 -14 -15
0 -11 0 -11 -14 -15 -15 -14 -11 0 -11 0 -34 -35 -35 -34 0 -26 0 -25 10 0 10
0 0 -30 0 -30 10 0 10 0 0 -20 0 -20 10 0 10 0 0 -30 0 -30 10 0 10 0 0 -30 0
-30 10 0 10 0 0 -40 0 -40 10 0 10 0 0 -50 0 -50 10 0 10 0 0 -30 0 -30 10 0
10 0 0 -20 0 -20 10 0 10 0 0 20 0 20 -10 0 -10 0 0 30 0 30 -10 0 -10 0 0 50
0 50 -10 0 -10 0 0 40 0 40 -10 0 -10 0 0 30 0 30 -10 0 -10 0 0 30 0 30 -10
0 -10 0 0 20 0 20 -10 0 -10 0 0 30 0 30 -10 0 -10 0 0 25 0 26 25 24 24 25
11 0 11 0 24 25 25 24 0 16 0 15 16 0 15 0 15 -14 14 -15 0 -23 0 -24 -20 -14
-20 -14 0 -38 0 -38 -10 0 -10 0 0 -20 0 -20 10 0 10 0 0 -50 0 -50 10 0 10 0
0 106 0 105 14 15 15 14 21 0 21 0 24 -25 25 -24 0 -96 0 -95 10 0 10 0 0 100
0 100 -10 0 -10 0 0 40 0 40 10 0 10 0 0 156 0 155 14 15 15 14 41 0 41 0 15
-14 14 -15 0 -145 0 -146 10 0 10 0 0 -50 0 -50 -10 0 -10 0 0 -110 0 -110 10
0 10 0 0 110 0 110 10 0 10 0 0 20 0 20 36 0 35 0 15 -14 14 -15 0 -95 0 -96
10 0 10 0 0 86 0 85 14 15 15 14 21 0 21 0 15 -14 14 -15 0 -125 0 -126 -10 0
-10 0 0 -50 0 -50 -10 0 -10 0 0 -30 0 -30 -10 0 -10 0 0 -30 0 -30 -10 0 -10
0 0 -29 0 -29 -12 -5 -13 -4 7 -8 7 -7 16 15 15 16 0 25 0 26 10 0 10 0 0 30
0 30 10 0 10 0 0 30 0 30 10 0 10 0 0 50 0 50 10 0 10 0 0 125 0 126 -25 24
-24 25 -26 0 -25 0 0 -10 0 -10 -18 0 -18 0 -14 20 -14 20 -38 0 -38 0 0 20 0
20 -10 0 -10 0 0 145 0 146 -25 24 -24 25 -43 -1 -43 0 -22 -24z"/>
<path d="M573 1185 l-13 -14 0 -36 0 -35 50 0 50 0 0 36 0 35 -14 15 -15 14
-23 0 -23 -1 -12 -14z m67 -35 l0 -30 -30 0 -30 0 0 30 0 30 30 0 30 0 0 -30z"/>
<path d="M580 890 l0 -10 30 0 30 0 0 10 0 10 -30 0 -30 0 0 -10z"/>
<path d="M560 850 l0 -10 60 0 60 0 0 10 0 10 -60 0 -60 0 0 -10z"/>
<path d="M580 810 l0 -10 30 0 30 0 0 10 0 10 -30 0 -30 0 0 -10z"/>
<path d="M760 630 l0 -10 10 0 10 0 0 10 0 10 -10 0 -10 0 0 -10z"/>
<path d="M440 610 l0 -10 20 0 20 0 0 10 0 10 -20 0 -20 0 0 -10z"/>
<path d="M580 610 l0 -10 20 0 20 0 0 10 0 10 -20 0 -20 0 0 -10z"/>
<path d="M740 590 l0 -10 30 0 30 0 0 10 0 10 -30 0 -30 0 0 -10z"/>
<path d="M880 590 l0 -10 20 0 20 0 0 10 0 10 -20 0 -20 0 0 -10z"/>
<path d="M420 570 l0 -10 40 0 40 0 0 10 0 10 -40 0 -40 0 0 -10z"/>
<path d="M560 570 l0 -10 50 0 50 0 0 10 0 10 -50 0 -50 0 0 -10z"/>
<path d="M740 550 l0 -10 30 0 30 0 0 10 0 10 -30 0 -30 0 0 -10z"/>
<path d="M440 530 l0 -10 20 0 20 0 0 10 0 10 -20 0 -20 0 0 -10z"/>
<path d="M580 530 l0 -10 30 0 30 0 0 10 0 10 -30 0 -30 0 0 -10z"/>
<path d="M0 100 l0 -100 640 0 640 0 0 100 0 100 -640 0 -640 0 0 -100z"/>
</g>
</svg>
