<?xml version="1.0" standalone="no"?>
<!DOCTYPE svg PUBLIC "-//W3C//DTD SVG 20010904//EN"
 "http://www.w3.org/TR/2001/REC-SVG-20010904/DTD/svg10.dtd">
<svg version="1.0" xmlns="http://www.w3.org/2000/svg"
 width="468pt" height="468pt" viewBox="0 0 468 468"
 preserveAspectRatio="xMidYMid meet">
<metadata>
Created by potrace 1.8, written by Peter Selinger 2001-2007
</metadata>
<g transform="translate(0,468) scale(0.365625,-0.365625)"
fill="#000000" stroke="none">
<path d="M0 1095 l0 -185 25 0 25 0 0 -365 0 -365 -25 0 -25 0 0 -90 0 -90
135 0 135 0 0 25 0 25 50 0 50 0 0 -25 0 -25 320 0 320 0 0 25 0 25 20 0 20 0
0 -25 0 -25 115 0 115 0 0 70 0 70 -45 0 -45 0 0 20 0 20 45 0 45 0 0 365 0
365 -45 0 -45 0 0 25 0 25 45 0 45 0 0 160 0 160 -250 0 -250 0 0 -25 0 -25
-45 0 -45 0 0 25 0 25 -25 0 -25 0 0 -25 0 -25 -45 0 -45 0 0 25 0 25 -275 0
-275 0 0 -185z m550 115 l0 -20 -25 0 -25 0 0 -25 0 -25 -45 0 -45 0 0 -20 0
-20 -45 0 -45 0 0 -25 0 -25 -25 0 -25 0 0 -20 0 -20 -45 0 -45 0 0 -25 0 -25
-20 0 -20 0 0 -25 0 -25 -45 0 -45 0 0 25 0 25 45 0 45 0 0 25 0 25 20 0 20 0
0 20 0 20 45 0 45 0 0 25 0 25 25 0 25 0 0 20 0 20 45 0 45 0 0 25 0 25 45 0
45 0 0 20 0 20 25 0 25 0 0 -20z m270 0 l0 -20 45 0 45 0 0 -25 0 -25 25 0 25
0 0 -20 0 -20 45 0 45 0 0 -25 0 -25 45 0 45 0 0 -20 0 -20 25 0 25 0 0 -25 0
-25 -25 0 -25 0 0 25 0 25 -45 0 -45 0 0 20 0 20 -45 0 -45 0 0 25 0 25 -25 0
-25 0 0 20 0 20 -45 0 -45 0 0 25 0 25 -20 0 -20 0 0 20 0 20 20 0 20 0 0 -20z
m-680 -1050 l0 -20 20 0 20 0 0 -25 0 -25 45 0 45 0 0 -20 0 -20 -45 0 -45 0
0 20 0 20 -20 0 -20 0 0 25 0 25 -45 0 -45 0 0 20 0 20 45 0 45 0 0 -20z
m1050 -45 l0 -25 -25 0 -25 0 0 -20 0 -20 -45 0 -45 0 0 20 0 20 45 0 45 0 0
25 0 25 25 0 25 0 0 -25z"/>
</g>
</svg>
