<?xml version="1.0" standalone="no"?>
<!DOCTYPE svg PUBLIC "-//W3C//DTD SVG 20010904//EN"
 "http://www.w3.org/TR/2001/REC-SVG-20010904/DTD/svg10.dtd">
<svg version="1.0" xmlns="http://www.w3.org/2000/svg"
 width="468pt" height="468pt" viewBox="0 0 468 468"
 preserveAspectRatio="xMidYMid meet">
<metadata>
Created by potrace 1.8, written by Peter Selinger 2001-2007
</metadata>
<g transform="translate(0,468) scale(0.365625,-0.365625)"
fill="#000000" stroke="none">
<path d="M500 1180 l0 -60 10 0 10 0 0 -60 0 -60 10 0 10 0 0 -80 0 -80 -10 0
-10 0 0 10 0 10 -20 0 -20 0 0 10 0 10 -20 0 -20 0 0 10 0 10 -20 0 -20 0 0
10 0 10 -20 0 -20 0 0 10 0 10 -20 0 -20 0 0 10 0 10 -20 0 -20 0 0 10 0 10
-20 0 -20 0 0 10 0 10 -20 0 -20 0 0 -30 0 -30 -10 0 -10 0 0 -30 0 -30 -10 0
-10 0 0 -30 0 -30 -10 0 -10 0 0 -30 0 -30 50 0 50 0 0 -10 0 -10 50 0 50 0 0
-10 0 -10 50 0 50 0 0 -10 0 -10 50 0 50 0 0 -5 0 -5 -150 -150 -150 -150 75
-75 76 -76 14 15 15 15 0 13 0 14 20 14 20 14 0 16 0 16 20 14 20 14 0 16 0
16 20 14 20 14 0 16 0 16 20 14 20 14 0 14 0 13 25 25 25 25 25 -25 25 -25 0
-13 0 -14 20 -14 20 -14 0 -16 0 -16 20 -14 20 -14 0 -16 0 -16 20 -14 20 -14
0 -16 0 -16 20 -14 20 -14 0 -14 0 -13 15 -15 14 -15 76 76 75 75 -150 150
-150 150 0 5 0 5 50 0 50 0 0 10 0 10 50 0 50 0 0 10 0 10 50 0 50 0 0 10 0
10 50 0 50 0 0 30 0 30 -10 0 -10 0 0 30 0 30 -10 0 -10 0 0 30 0 30 -10 0
-10 0 0 30 0 30 -20 0 -20 0 0 -10 0 -10 -20 0 -20 0 0 -10 0 -10 -20 0 -20 0
0 -10 0 -10 -20 0 -20 0 0 -10 0 -10 -20 0 -20 0 0 -10 0 -10 -20 0 -20 0 0
-10 0 -10 -20 0 -20 0 0 -10 0 -10 -20 0 -20 0 0 -10 0 -10 -10 0 -10 0 0 80
0 80 10 0 10 0 0 60 0 60 10 0 10 0 0 60 0 60 -130 0 -130 0 0 -60z"/>
<path d="M0 100 l0 -100 640 0 640 0 0 100 0 100 -640 0 -640 0 0 -100z"/>
</g>
</svg>
