<?xml version="1.0" standalone="no"?>
<!DOCTYPE svg PUBLIC "-//W3C//DTD SVG 20010904//EN"
 "http://www.w3.org/TR/2001/REC-SVG-20010904/DTD/svg10.dtd">
<svg version="1.0" xmlns="http://www.w3.org/2000/svg"
 width="468pt" height="468pt" viewBox="0 0 468 468"
 preserveAspectRatio="xMidYMid meet">
<metadata>
Created by potrace 1.8, written by Peter Selinger 2001-2007
</metadata>
<g transform="translate(0,468) scale(0.365625,-0.365625)"
fill="#000000" stroke="none">
<path d="M320 1015 l0 -265 25 0 25 0 0 -30 0 -30 110 0 110 0 0 30 0 30 25 0
25 0 0 25 0 25 25 0 25 0 0 25 0 25 30 0 30 0 0 30 0 30 25 0 25 0 0 25 0 25
25 0 25 0 0 25 0 25 30 0 30 0 0 30 0 30 25 0 25 0 0 25 0 25 -25 0 -25 0 0
25 0 25 25 0 25 0 0 30 0 30 -25 0 -25 0 0 25 0 25 -30 0 -30 0 0 -80 0 -80
-25 0 -25 0 0 25 0 25 -55 0 -55 0 0 30 0 30 30 0 30 0 0 25 0 25 -55 0 -55 0
0 -135 0 -135 -25 0 -25 0 0 -25 0 -25 -55 0 -55 0 0 -55 0 -55 -25 0 -25 0 0
-25 0 -25 -30 0 -30 0 0 240 0 240 -25 0 -25 0 0 -265z m480 80 l0 -25 25 0
25 0 0 -30 0 -30 -80 0 -80 0 0 -25 0 -25 30 0 30 0 0 -25 0 -25 -30 0 -30 0
0 -30 0 -30 -80 0 -80 0 0 -25 0 -25 30 0 30 0 0 -25 0 -25 -80 0 -80 0 0 25
0 25 25 0 25 0 0 25 0 25 25 0 25 0 0 30 0 30 30 0 30 0 0 25 0 25 25 0 25 0
0 25 0 25 25 0 25 0 0 30 0 30 30 0 30 0 0 25 0 25 25 0 25 0 0 -25z"/>
<path d="M530 1145 l0 -25 -25 0 -25 0 0 -25 0 -25 25 0 25 0 0 25 0 25 30 0
30 0 0 25 0 25 -30 0 -30 0 0 -25z"/>
<path d="M110 1095 l0 -25 -30 0 -30 0 0 -30 0 -30 30 0 30 0 0 30 0 30 25 0
25 0 0 25 0 25 -25 0 -25 0 0 -25z"/>
<path d="M210 1040 l0 -30 30 0 30 0 0 30 0 30 -30 0 -30 0 0 -30z"/>
<path d="M1120 1040 l0 -30 25 0 25 0 0 30 0 30 -25 0 -25 0 0 -30z"/>
<path d="M50 935 l0 -25 30 0 30 0 0 25 0 25 -30 0 -30 0 0 -25z"/>
<path d="M1010 935 l0 -25 30 0 30 0 0 25 0 25 -30 0 -30 0 0 -25z"/>
<path d="M160 880 l0 -30 -25 0 -25 0 0 -25 0 -25 25 0 25 0 0 25 0 25 25 0
25 0 0 30 0 30 -25 0 -25 0 0 -30z"/>
<path d="M910 880 l0 -30 25 0 25 0 0 30 0 30 -25 0 -25 0 0 -30z"/>
<path d="M800 825 l0 -25 25 0 25 0 0 25 0 25 -25 0 -25 0 0 -25z"/>
<path d="M1070 825 l0 -25 25 0 25 0 0 25 0 25 -25 0 -25 0 0 -25z"/>
<path d="M210 775 l0 -25 30 0 30 0 0 25 0 25 -30 0 -30 0 0 -25z"/>
<path d="M910 775 l0 -25 -30 0 -30 0 0 -30 0 -30 30 0 30 0 0 30 0 30 25 0
25 0 0 25 0 25 -25 0 -25 0 0 -25z"/>
<path d="M110 720 l0 -30 -30 0 -30 0 0 -25 0 -25 30 0 30 0 0 25 0 25 25 0
25 0 0 30 0 30 -25 0 -25 0 0 -30z"/>
<path d="M750 720 l0 -30 25 0 25 0 0 30 0 30 -25 0 -25 0 0 -30z"/>
<path d="M1010 720 l0 -30 30 0 30 0 0 30 0 30 -30 0 -30 0 0 -30z"/>
<path d="M270 665 l0 -25 25 0 25 0 0 25 0 25 -25 0 -25 0 0 -25z"/>
<path d="M1120 665 l0 -25 25 0 25 0 0 25 0 25 -25 0 -25 0 0 -25z"/>
<path d="M160 615 l0 -25 25 0 25 0 0 -30 0 -30 30 0 30 0 0 30 0 30 -30 0
-30 0 0 25 0 25 -25 0 -25 0 0 -25z"/>
<path d="M640 615 l0 -25 25 0 25 0 0 25 0 25 -25 0 -25 0 0 -25z"/>
<path d="M800 615 l0 -25 25 0 25 0 0 25 0 25 -25 0 -25 0 0 -25z"/>
<path d="M910 615 l0 -25 25 0 25 0 0 25 0 25 -25 0 -25 0 0 -25z"/>
<path d="M320 295 l0 -295 25 0 25 0 0 240 0 240 30 0 30 0 0 -55 0 -55 50 0
50 0 0 -50 0 -50 -25 0 -25 0 0 -30 0 -30 25 0 25 0 0 30 0 30 30 0 30 0 0
-30 0 -30 25 0 25 0 0 -105 0 -105 25 0 25 0 0 25 0 25 30 0 30 0 0 30 0 30
-30 0 -30 0 0 25 0 25 80 0 80 0 0 -80 0 -80 55 0 55 0 0 25 0 25 -25 0 -25 0
0 30 0 30 25 0 25 0 0 25 0 25 -25 0 -25 0 0 25 0 25 -30 0 -30 0 0 55 0 55
-25 0 -25 0 0 25 0 25 -25 0 -25 0 0 30 0 30 -55 0 -55 0 0 50 0 50 -25 0 -25
0 0 30 0 30 -135 0 -135 0 0 -295z"/>
<path d="M1070 560 l0 -30 25 0 25 0 0 30 0 30 -25 0 -25 0 0 -30z"/>
<path d="M110 505 l0 -25 25 0 25 0 0 -25 0 -25 25 0 25 0 0 25 0 25 -25 0
-25 0 0 25 0 25 -25 0 -25 0 0 -25z"/>
<path d="M690 505 l0 -25 30 0 30 0 0 25 0 25 -30 0 -30 0 0 -25z"/>
<path d="M800 505 l0 -25 25 0 25 0 0 -25 0 -25 30 0 30 0 0 25 0 25 -30 0
-30 0 0 25 0 25 -25 0 -25 0 0 -25z"/>
<path d="M960 505 l0 -25 25 0 25 0 0 25 0 25 -25 0 -25 0 0 -25z"/>
<path d="M50 400 l0 -30 30 0 30 0 0 -25 0 -25 25 0 25 0 0 25 0 25 -25 0 -25
0 0 30 0 30 -30 0 -30 0 0 -30z"/>
<path d="M1010 400 l0 -30 30 0 30 0 0 30 0 30 -30 0 -30 0 0 -30z"/>
<path d="M1170 400 l0 -30 30 0 30 0 0 30 0 30 -30 0 -30 0 0 -30z"/>
<path d="M210 345 l0 -25 30 0 30 0 0 25 0 25 -30 0 -30 0 0 -25z"/>
<path d="M910 345 l0 -25 25 0 25 0 0 25 0 25 -25 0 -25 0 0 -25z"/>
<path d="M110 240 l0 -30 -30 0 -30 0 0 -25 0 -25 30 0 30 0 0 25 0 25 25 0
25 0 0 30 0 30 -25 0 -25 0 0 -30z"/>
<path d="M1010 240 l0 -30 30 0 30 0 0 30 0 30 -30 0 -30 0 0 -30z"/>
<path d="M210 135 l0 -25 30 0 30 0 0 25 0 25 -30 0 -30 0 0 -25z"/>
<path d="M530 80 l0 -30 -25 0 -25 0 0 -25 0 -25 25 0 25 0 0 25 0 25 30 0 30
0 0 30 0 30 -30 0 -30 0 0 -30z"/>
</g>
</svg>
