<?xml version="1.0" standalone="no"?>
<!DOCTYPE svg PUBLIC "-//W3C//DTD SVG 20010904//EN"
 "http://www.w3.org/TR/2001/REC-SVG-20010904/DTD/svg10.dtd">
<svg version="1.0" xmlns="http://www.w3.org/2000/svg"
 width="468pt" height="468pt" viewBox="0 0 468 468"
 preserveAspectRatio="xMidYMid meet">
<metadata>
Created by potrace 1.8, written by Peter Selinger 2001-2007
</metadata>
<g transform="translate(0,468) scale(0.365625,-0.365625)"
fill="#000000" stroke="none">
<path d="M440 1060 l0 -20 -20 0 -20 0 0 -20 0 -20 -20 0 -20 0 0 -20 0 -20
-20 0 -20 0 0 -20 0 -20 -20 0 -20 0 0 -20 0 -20 -20 0 -20 0 0 -20 0 -20 -20
0 -20 0 0 -20 0 -20 -20 0 -20 0 0 -20 0 -20 -20 0 -20 0 0 -20 0 -20 -20 0
-20 0 0 -160 0 -160 -20 0 -20 0 0 -20 0 -20 -20 0 -20 0 0 -40 0 -40 40 0 40
0 0 -20 0 -20 20 0 20 0 0 -20 0 -20 380 0 380 0 0 20 0 20 20 0 20 0 0 20 0
20 20 0 20 0 0 20 0 20 20 0 20 0 0 20 0 20 20 0 20 0 0 20 0 20 20 0 20 0 0
20 0 20 20 0 20 0 0 20 0 20 20 0 20 0 0 20 0 20 20 0 20 0 0 260 0 260 -20 0
-20 0 0 20 0 20 -200 0 -200 0 0 -20 0 -20 -20 0 -20 0 0 20 0 20 -60 0 -60 0
0 -20 0 -20 -20 0 -20 0 0 20 0 20 -60 0 -60 0 0 -20z m120 -40 l0 -20 -60 0
-60 0 0 20 0 20 60 0 60 0 0 -20z m600 -220 l0 -240 -20 0 -20 0 0 200 0 200
-20 0 -20 0 0 -240 0 -240 -20 0 -20 0 0 200 0 200 -20 0 -20 0 0 -240 0 -240
-20 0 -20 0 0 200 0 200 -20 0 -20 0 0 -240 0 -240 -20 0 -20 0 0 200 0 200
-20 0 -20 0 0 -220 0 -220 -20 0 -20 0 0 20 0 20 -20 0 -20 0 0 20 0 20 -20 0
-20 0 0 20 0 20 -300 0 -300 0 0 160 0 160 360 0 360 0 0 20 0 20 -180 0 -180
0 0 20 0 20 -20 0 -20 0 0 20 0 20 -60 0 -60 0 0 -20 0 -20 -20 0 -20 0 0 -20
0 -20 -40 0 -40 0 0 20 0 20 40 0 40 0 0 40 0 40 120 0 120 0 0 20 0 20 -80 0
-80 0 0 20 0 20 200 0 200 0 0 40 0 40 200 0 200 0 0 -240z"/>
<path d="M800 980 l0 -20 -20 0 -20 0 0 -20 0 -20 -20 0 -20 0 0 -20 0 -20
-20 0 -20 0 0 20 0 20 -60 0 -60 0 0 -20 0 -20 -20 0 -20 0 0 -20 0 -20 -20 0
-20 0 0 -20 0 -20 220 0 220 0 0 20 0 20 -100 0 -100 0 0 20 0 20 140 0 140 0
0 20 0 20 -20 0 -20 0 0 20 0 20 60 0 60 0 0 20 0 20 -60 0 -60 0 0 -20 0 -20
-20 0 -20 0 0 20 0 20 -60 0 -60 0 0 -20z"/>
<path d="M200 660 l0 -20 200 0 200 0 0 20 0 20 -200 0 -200 0 0 -20z"/>
<path d="M200 580 l0 -20 220 0 220 0 0 20 0 20 -220 0 -220 0 0 -20z"/>
<path d="M200 500 l0 -20 180 0 180 0 0 20 0 20 -180 0 -180 0 0 -20z"/>
</g>
</svg>
