<?xml version="1.0" standalone="no"?>
<!DOCTYPE svg PUBLIC "-//W3C//DTD SVG 20010904//EN"
 "http://www.w3.org/TR/2001/REC-SVG-20010904/DTD/svg10.dtd">
<svg version="1.0" xmlns="http://www.w3.org/2000/svg"
 width="468pt" height="468pt" viewBox="0 0 468 468"
 preserveAspectRatio="xMidYMid meet">
<metadata>
Created by potrace 1.8, written by Peter Selinger 2001-2007
</metadata>
<g transform="translate(0,468) scale(0.365625,-0.365625)"
fill="#000000" stroke="none">
<path d="M480 1160 l0 -120 240 0 240 0 0 80 0 80 60 0 60 0 0 -360 0 -360 60
0 60 0 0 -200 0 -200 -380 0 -380 0 0 20 0 20 240 0 240 0 0 20 0 20 20 0 20
0 0 340 0 340 -120 0 -120 0 0 -220 0 -220 -260 0 -260 0 0 -160 0 -160 -60 0
-60 0 0 340 0 340 40 0 40 0 0 -160 0 -160 260 0 260 0 0 220 0 220 -160 0
-160 0 0 160 0 160 -180 0 -180 0 0 -40 0 -40 140 0 140 0 0 -160 0 -160 160
0 160 0 0 -140 0 -140 -180 0 -180 0 0 160 0 160 -120 0 -120 0 0 -420 0 -420
140 0 140 0 0 160 0 160 260 0 260 0 0 220 0 220 40 0 40 0 0 -280 0 -280
-260 0 -260 0 0 -100 0 -100 460 0 460 0 0 280 0 280 -60 0 -60 0 0 360 0 360
-140 0 -140 0 0 -80 0 -80 -160 0 -160 0 0 80 0 80 -40 0 -40 0 0 -120z"/>
</g>
</svg>
