<?xml version="1.0" standalone="no"?>
<!DOCTYPE svg PUBLIC "-//W3C//DTD SVG 20010904//EN"
 "http://www.w3.org/TR/2001/REC-SVG-20010904/DTD/svg10.dtd">
<svg version="1.0" xmlns="http://www.w3.org/2000/svg"
 width="468pt" height="468pt" viewBox="0 0 468 468"
 preserveAspectRatio="xMidYMid meet">
<metadata>
Created by potrace 1.8, written by Peter Selinger 2001-2007
</metadata>
<g transform="translate(0,468) scale(0.365625,-0.365625)"
fill="#000000" stroke="none">
<path d="M0 885 l0 -395 50 0 50 0 0 345 0 345 540 0 540 0 0 -345 0 -345 50
0 50 0 0 395 0 395 -640 0 -640 0 0 -395z"/>
<path d="M200 640 l0 -250 -100 0 -100 0 0 -195 0 -195 640 0 640 0 0 195 0
195 -100 0 -100 0 0 250 0 250 -95 0 -95 0 0 -50 0 -50 -150 0 -150 0 0 50 0
50 -195 0 -195 0 0 -250z m390 100 l0 -50 150 0 150 0 0 50 0 50 45 0 45 0 0
-50 0 -50 -45 0 -45 0 0 -50 0 -50 45 0 45 0 0 -50 0 -50 -45 0 -45 0 0 -50 0
-50 45 0 45 0 0 -45 0 -45 -340 0 -340 0 0 45 0 45 45 0 45 0 0 50 0 50 -45 0
-45 0 0 50 0 50 45 0 45 0 0 50 0 50 -45 0 -45 0 0 50 0 50 145 0 145 0 0 -50z
m-390 -490 l0 -50 440 0 440 0 0 50 0 50 50 0 50 0 0 -100 0 -100 -540 0 -540
0 0 100 0 100 50 0 50 0 0 -50z"/>
</g>
</svg>
