<?xml version="1.0" standalone="no"?>
<!DOCTYPE svg PUBLIC "-//W3C//DTD SVG 20010904//EN"
 "http://www.w3.org/TR/2001/REC-SVG-20010904/DTD/svg10.dtd">
<svg version="1.0" xmlns="http://www.w3.org/2000/svg"
 width="468pt" height="468pt" viewBox="0 0 468 468"
 preserveAspectRatio="xMidYMid meet">
<metadata>
Created by potrace 1.8, written by Peter Selinger 2001-2007
</metadata>
<g transform="translate(0,468) scale(0.365625,-0.365625)"
fill="#000000" stroke="none">
<path d="M720 710 l0 -470 -60 0 -60 0 0 10 0 10 -40 0 -40 0 0 20 0 20 -10 0
-10 0 0 50 0 50 46 0 45 0 15 14 14 15 0 85 0 86 -10 0 -10 0 0 20 0 20 -10 0
-10 0 0 30 0 30 -10 0 -10 0 0 20 0 20 -10 0 -10 0 0 10 0 10 16 0 15 0 15 14
14 15 0 45 0 46 -10 0 -10 0 0 20 0 20 -20 0 -20 0 0 10 0 10 -35 0 -36 0 -27
-27 -26 -27 12 -4 12 -4 0 -15 0 -16 -21 -18 -21 -18 15 -16 16 -15 11 0 11 0
15 -14 14 -15 0 -25 0 -26 -10 0 -10 0 0 -26 0 -25 -14 -15 -15 -14 -44 0 -45
0 -6 -12 -6 -13 -6 13 -6 12 -39 0 -39 0 0 -10 0 -10 -30 0 -30 0 0 -20 0 -20
-10 0 -10 0 0 30 0 30 -80 0 -80 0 0 -310 0 -310 640 0 640 0 0 120 0 120 -20
0 -20 0 0 470 0 470 -260 0 -260 0 0 -470z m500 -10 l0 -460 -10 0 -10 0 0
450 0 450 -220 0 -220 0 0 -450 0 -450 -10 0 -10 0 0 460 0 460 240 0 240 0 0
-460z m-40 -20 l0 -440 -200 0 -200 0 0 440 0 440 200 0 200 0 0 -440z m-634
186 l14 -15 0 -15 0 -16 -10 0 -10 0 0 -29 0 -29 -12 -6 -13 -6 13 -6 12 -6 0
-19 0 -19 10 0 10 0 0 -35 0 -36 -35 -34 -34 -35 -76 0 -75 0 0 20 0 20 60 0
60 0 0 20 0 20 10 0 10 0 0 26 0 27 22 18 21 19 -24 21 -23 20 14 9 14 9 -7 8
-8 7 -10 -14 -11 -15 -5 13 -5 12 -19 0 -19 0 0 6 0 5 16 16 16 16 8 -13 8
-13 16 16 16 16 0 5 0 6 -20 0 -20 0 0 10 0 10 36 0 35 0 15 -14z m-406 -286
l0 -20 -60 0 -60 0 0 20 0 20 60 0 60 0 0 -20z m180 10 l0 -10 -40 0 -40 0 0
-10 0 -10 -20 0 -20 0 0 10 0 10 20 0 20 0 0 10 0 10 40 0 40 0 0 -10z m280
-50 l0 -60 -10 0 -10 0 0 -20 0 -20 -20 0 -20 0 0 10 0 10 -20 0 -20 0 0 -10
0 -10 -96 0 -95 0 -15 -14 -14 -15 0 -11 0 -11 -14 -15 -15 -14 -15 0 -16 0 0
35 0 36 25 24 24 25 86 0 85 0 0 10 0 10 50 0 50 0 0 -20 0 -20 10 0 10 0 0
50 0 50 10 0 10 0 0 20 0 20 10 0 10 0 0 -60z m-60 10 l0 -30 -50 0 -50 0 0
10 0 10 28 0 28 0 14 20 14 20 8 0 8 0 0 -30z m-200 0 l0 -10 40 0 40 0 0 -20
0 -20 -86 0 -85 0 -15 -14 -14 -15 0 -15 0 -16 -10 0 -10 0 0 -49 0 -49 12 -4
13 -5 -17 -16 -17 -17 -21 0 -21 0 -15 -14 -14 -15 0 -15 0 -16 -10 0 -10 0 0
140 0 140 100 0 100 0 0 20 0 20 20 0 20 0 0 -10z m-260 -170 l0 -140 -30 0
-30 0 0 140 0 140 30 0 30 0 0 -140z m260 30 l0 -10 60 0 60 0 0 -50 0 -50
-10 0 -10 0 0 -20 0 -20 -40 0 -40 0 0 -10 0 -10 -30 0 -30 0 0 40 0 40 -10 0
-10 0 0 20 0 20 10 0 10 0 0 15 0 16 13 14 12 14 8 1 7 0 0 -10z m-80 -80 l0
-10 -10 0 -10 0 0 10 0 10 10 0 10 0 0 -10z m20 -50 l0 -20 -70 0 -70 0 0 10
0 10 30 0 30 0 0 10 0 10 40 0 40 0 0 -20z"/>
<path d="M860 820 l0 -120 120 0 120 0 0 120 0 120 -120 0 -120 0 0 -120z
m200 0 l0 -100 -80 0 -80 0 0 100 0 100 80 0 80 0 0 -100z"/>
<path d="M800 590 l0 -70 30 0 30 0 0 20 0 20 30 0 30 0 0 30 0 30 -30 0 -30
0 0 20 0 20 -30 0 -30 0 0 -70z m40 40 l0 -10 -10 0 -10 0 0 10 0 10 10 0 10
0 0 -10z m60 -40 l0 -10 -40 0 -40 0 0 10 0 10 40 0 40 0 0 -10z m-60 -40 l0
-10 -10 0 -10 0 0 10 0 10 10 0 10 0 0 -10z"/>
<path d="M0 740 l0 -100 80 0 80 0 0 20 0 20 10 0 10 0 0 66 0 65 -14 15 -15
14 -75 0 -76 0 0 -100z m140 0 l0 -80 -60 0 -60 0 0 80 0 80 60 0 60 0 0 -80z"/>
</g>
</svg>
