<?xml version="1.0" standalone="no"?>
<!DOCTYPE svg PUBLIC "-//W3C//DTD SVG 20010904//EN"
 "http://www.w3.org/TR/2001/REC-SVG-20010904/DTD/svg10.dtd">
<svg version="1.0" xmlns="http://www.w3.org/2000/svg"
 width="468pt" height="468pt" viewBox="0 0 468 468"
 preserveAspectRatio="xMidYMid meet">
<metadata>
Created by potrace 1.8, written by Peter Selinger 2001-2007
</metadata>
<g transform="translate(0,468) scale(0.365625,-0.365625)"
fill="#000000" stroke="none">
<path d="M180 1220 l0 -60 -30 0 -30 0 0 30 0 30 -30 0 -30 0 0 -30 0 -30 30
0 30 0 0 -30 0 -30 -60 0 -60 0 0 -30 0 -30 60 0 60 0 0 -30 0 -30 30 0 30 0
0 -95 0 -95 -90 0 -90 0 0 -30 0 -30 60 0 60 0 0 -30 0 -30 30 0 30 0 0 -60 0
-60 -30 0 -30 0 0 30 0 30 -30 0 -30 0 0 -30 0 -30 30 0 30 0 0 -30 0 -30 -60
0 -60 0 0 -30 0 -30 60 0 60 0 0 -30 0 -30 -60 0 -60 0 0 -35 0 -35 60 0 60 0
0 -30 0 -30 -60 0 -60 0 0 -30 0 -30 60 0 60 0 0 -30 0 -30 -60 0 -60 0 0 -60
0 -60 640 0 640 0 0 640 0 640 -60 0 -60 0 0 -60 0 -60 -30 0 -30 0 0 60 0 60
-30 0 -30 0 0 -60 0 -60 -30 0 -30 0 0 60 0 60 -35 0 -35 0 0 -60 0 -60 -30 0
-30 0 0 60 0 60 -30 0 -30 0 0 -60 0 -60 -30 0 -30 0 0 60 0 60 -30 0 -30 0 0
-60 0 -60 -30 0 -30 0 0 60 0 60 -30 0 -30 0 0 -60 0 -60 -30 0 -30 0 0 60 0
60 -30 0 -30 0 0 -60 0 -60 -30 0 -30 0 0 60 0 60 -35 0 -35 0 0 -60 0 -60
-30 0 -30 0 0 60 0 60 -30 0 -30 0 0 -60z m0 -150 l0 -30 -30 0 -30 0 0 30 0
30 30 0 30 0 0 -30z m120 0 l0 -30 -30 0 -30 0 0 30 0 30 30 0 30 0 0 -30z
m130 0 l0 -30 -30 0 -30 0 0 30 0 30 30 0 30 0 0 -30z m120 0 l0 -30 -30 0
-30 0 0 30 0 30 30 0 30 0 0 -30z m120 0 l0 -30 -30 0 -30 0 0 30 0 30 30 0
30 0 0 -30z m120 0 l0 -30 -30 0 -30 0 0 30 0 30 30 0 30 0 0 -30z m120 0 l0
-30 -30 0 -30 0 0 30 0 30 30 0 30 0 0 -30z m130 0 l0 -30 -30 0 -30 0 0 30 0
30 30 0 30 0 0 -30z m120 0 l0 -30 -30 0 -30 0 0 30 0 30 30 0 30 0 0 -30z
m-860 -185 l0 -95 -30 0 -30 0 0 95 0 95 30 0 30 0 0 -95z m130 0 l0 -95 -30
0 -30 0 0 95 0 95 30 0 30 0 0 -95z m120 0 l0 -95 -30 0 -30 0 0 95 0 95 30 0
30 0 0 -95z m120 0 l0 -95 -30 0 -30 0 0 95 0 95 30 0 30 0 0 -95z m120 0 l0
-95 -30 0 -30 0 0 95 0 95 30 0 30 0 0 -95z m120 60 l0 -35 -30 0 -30 0 0 35
0 35 30 0 30 0 0 -35z m190 0 l0 -35 -30 0 -30 0 0 35 0 35 30 0 30 0 0 -35z
m-60 -125 l0 -30 -30 0 -30 0 0 30 0 30 30 0 30 0 0 -30z m120 0 l0 -30 -30 0
-30 0 0 30 0 30 30 0 30 0 0 -30z m-920 -120 l0 -30 30 0 30 0 0 30 0 30 35 0
35 0 0 -30 0 -30 30 0 30 0 0 30 0 30 30 0 30 0 0 -30 0 -30 30 0 30 0 0 30 0
30 30 0 30 0 0 -30 0 -30 -30 0 -30 0 0 -60 0 -60 -30 0 -30 0 0 60 0 60 -30
0 -30 0 0 -60 0 -60 -30 0 -30 0 0 60 0 60 -35 0 -35 0 0 -60 0 -60 -30 0 -30
0 0 60 0 60 -30 0 -30 0 0 30 0 30 30 0 30 0 0 -30z m490 0 l0 -30 -30 0 -30
0 0 30 0 30 30 0 30 0 0 -30z m120 0 l0 -30 -30 0 -30 0 0 30 0 30 30 0 30 0
0 -30z m250 0 l0 -30 -30 0 -30 0 0 30 0 30 30 0 30 0 0 -30z m-310 -120 l0
-30 -30 0 -30 0 0 30 0 30 30 0 30 0 0 -30z m250 0 l0 -30 -30 0 -30 0 0 30 0
30 30 0 30 0 0 -30z m120 0 l0 -30 -30 0 -30 0 0 30 0 30 30 0 30 0 0 -30z
m-920 -120 l0 -30 -30 0 -30 0 0 30 0 30 30 0 30 0 0 -30z m130 0 l0 -30 -35
0 -35 0 0 30 0 30 35 0 35 0 0 -30z m120 0 l0 -30 -30 0 -30 0 0 30 0 30 30 0
30 0 0 -30z m240 0 l0 -30 -30 0 -30 0 0 30 0 30 30 0 30 0 0 -30z m120 0 l0
-30 -30 0 -30 0 0 30 0 30 30 0 30 0 0 -30z m250 0 l0 -30 -30 0 -30 0 0 30 0
30 30 0 30 0 0 -30z m-920 -125 l0 -35 -30 0 -30 0 0 35 0 35 30 0 30 0 0 -35z
m120 0 l0 -35 -30 0 -30 0 0 35 0 35 30 0 30 0 0 -35z m130 0 l0 -35 -30 0
-30 0 0 35 0 35 30 0 30 0 0 -35z m120 0 l0 -35 -30 0 -30 0 0 35 0 35 30 0
30 0 0 -35z m240 0 l0 -35 -30 0 -30 0 0 35 0 35 30 0 30 0 0 -35z m250 0 l0
-35 -30 0 -30 0 0 35 0 35 30 0 30 0 0 -35z m120 0 l0 -35 -30 0 -30 0 0 35 0
35 30 0 30 0 0 -35z m-920 -125 l0 -30 -30 0 -30 0 0 30 0 30 30 0 30 0 0 -30z
m130 0 l0 -30 -35 0 -35 0 0 30 0 30 35 0 35 0 0 -30z m120 0 l0 -30 -30 0
-30 0 0 30 0 30 30 0 30 0 0 -30z m240 0 l0 -30 -30 0 -30 0 0 30 0 30 30 0
30 0 0 -30z m120 0 l0 -30 -30 0 -30 0 0 30 0 30 30 0 30 0 0 -30z m250 0 l0
-30 -30 0 -30 0 0 30 0 30 30 0 30 0 0 -30z"/>
<path d="M60 880 l0 -30 30 0 30 0 0 30 0 30 -30 0 -30 0 0 -30z"/>
</g>
</svg>
