<?xml version="1.0" standalone="no"?>
<!DOCTYPE svg PUBLIC "-//W3C//DTD SVG 20010904//EN"
 "http://www.w3.org/TR/2001/REC-SVG-20010904/DTD/svg10.dtd">
<svg version="1.0" xmlns="http://www.w3.org/2000/svg"
 width="468pt" height="468pt" viewBox="0 0 468 468"
 preserveAspectRatio="xMidYMid meet">
<metadata>
Created by potrace 1.8, written by Peter Selinger 2001-2007
</metadata>
<g transform="translate(0,468) scale(0.365625,-0.365625)"
fill="#000000" stroke="none">
<path d="M0 930 l0 -350 8 0 8 0 14 20 14 20 58 0 58 0 0 -10 0 -10 19 0 19 0
5 -12 5 -13 10 14 10 14 17 -16 16 -17 -16 -16 -16 -16 -18 21 -18 21 -17 0
-16 0 0 10 0 10 -55 0 -56 0 -24 -25 -25 -24 0 -276 0 -275 430 0 430 0 0 36
0 35 -14 15 -15 14 -22 0 -22 0 -18 -22 -19 -21 -8 8 -7 8 13 4 12 5 0 34 0
35 -71 70 -72 71 14 8 13 9 -8 8 -9 8 -4 -12 -5 -13 -48 0 -48 0 -5 -12 -4
-13 -8 7 -8 8 21 19 22 18 0 27 0 26 -10 0 -10 0 0 15 0 16 -25 24 -24 25 -16
0 -15 0 0 10 0 10 -20 0 -20 0 0 10 0 10 -20 0 -20 0 0 10 0 10 -38 0 -38 0
-14 -20 -14 -20 -8 0 -8 0 0 25 0 26 26 26 25 25 7 -7 7 -8 -13 -4 -12 -5 0
-9 0 -9 19 0 19 0 5 13 4 12 23 -25 23 -25 4 13 5 12 9 0 9 0 0 -20 0 -20 6 0
5 0 16 16 16 16 -13 8 -13 8 17 17 17 17 7 -6 6 -7 -14 -10 -15 -9 15 -10 15
-10 -14 -9 -14 -9 26 -26 26 -26 15 0 14 0 5 -12 5 -13 12 15 12 15 5 -12 5
-13 9 0 9 0 0 16 0 17 -22 18 -21 19 8 8 8 7 4 -12 5 -13 9 0 9 0 0 15 0 16
25 24 24 25 6 0 5 0 0 -16 0 -16 -31 -29 -31 -29 17 -16 16 -16 7 6 6 7 -14 9
-14 8 32 30 32 30 0 16 0 16 10 0 10 0 0 19 0 19 -12 5 -13 4 23 20 22 20 0
27 0 26 -10 0 -10 0 0 -26 0 -25 -15 -16 -16 -15 -7 7 -7 8 13 4 12 5 0 15 0
15 -31 29 -32 30 7 7 7 6 10 -14 9 -15 9 15 10 14 8 -8 8 -9 -12 -4 -13 -5 0
-9 0 -9 19 0 19 0 6 13 6 12 6 -12 6 -13 19 0 19 0 0 -9 0 -9 -12 -5 -13 -5
15 -11 14 -10 -24 -21 -24 -21 14 -10 15 -11 -12 -5 -13 -5 0 -19 0 -19 -10 0
-10 0 0 -50 0 -50 10 0 10 0 0 -16 0 -17 22 -18 21 -19 -7 -7 -7 -7 -9 13 -8
14 -16 -16 -16 -16 0 -15 0 -16 -9 0 -9 0 -5 13 -4 12 -9 -9 -9 -9 13 -4 12
-5 0 -34 0 -35 60 -59 60 -59 0 -15 0 -16 25 0 26 0 24 -25 25 -24 0 -36 0
-35 200 0 200 0 0 370 0 370 -50 0 -50 0 0 -10 0 -10 -15 0 -16 0 -24 -25 -25
-24 0 -15 0 -14 -12 -6 -13 -6 13 -6 12 -6 0 -29 0 -29 -10 0 -10 0 0 25 0 26
-25 24 -24 25 -16 0 -15 0 0 10 0 10 -35 0 -36 0 -24 -25 -25 -24 0 -12 0 -11
-30 -28 -30 -28 0 -36 0 -36 -10 0 -10 0 0 36 0 37 21 18 21 18 -15 16 -16 15
-45 0 -46 0 0 6 0 5 16 16 16 16 8 -14 9 -13 7 7 7 7 -22 20 -23 19 16 17 17
16 7 -6 6 -7 -13 -9 -14 -8 28 -27 27 -28 8 14 9 13 8 -7 7 -8 -13 -9 -14 -8
16 -16 16 -16 5 0 6 0 0 20 0 20 10 0 10 0 0 20 0 20 20 0 20 0 0 10 0 10 39
0 39 0 5 13 4 12 9 -9 9 -9 -12 -4 -13 -5 0 -9 0 -9 18 0 18 0 14 -20 14 -20
8 0 8 0 0 15 0 16 35 34 34 35 16 0 15 0 0 10 0 10 50 0 50 0 0 260 0 260
-640 0 -640 0 0 -350z m623 178 l5 -13 12 15 12 15 5 -12 5 -13 38 0 38 0 5
-12 5 -13 11 15 10 14 21 -24 21 -24 9 13 8 14 16 -16 16 -16 0 -15 0 -16 9 0
9 0 5 13 4 12 9 -8 8 -8 -13 -9 -14 -8 17 -18 18 -17 8 14 9 13 7 -6 6 -7 -16
-17 -17 -16 -19 22 -20 23 -20 -23 -20 -23 -7 6 -6 7 24 21 24 22 -12 4 -13 5
0 19 0 19 -9 0 -9 0 -5 -12 -4 -13 -22 25 -22 24 -10 -14 -9 -15 -9 15 -10 14
-21 -23 -20 -24 -8 8 -7 8 13 4 12 5 0 9 0 9 -36 0 -35 0 -16 -16 -16 -16 14
-8 13 -9 -6 -7 -7 -6 -18 18 -18 17 13 5 12 4 0 9 0 9 -30 0 -30 0 0 10 0 10
30 0 30 0 0 10 0 10 9 0 9 0 5 -12z m-103 -14 l0 -5 -14 -15 -15 -14 -15 0
-16 0 0 -10 0 -10 16 0 15 0 16 -15 15 -16 -7 -7 -8 -7 -4 13 -5 12 -19 0 -19
0 0 -10 0 -10 -19 0 -19 0 -5 -12 -4 -13 -8 7 -7 7 15 16 16 15 15 0 16 0 0 9
0 9 -12 4 -13 5 17 16 17 17 15 0 16 0 0 10 0 10 10 0 10 0 0 -6z m40 -44 l0
-10 -20 0 -20 0 0 10 0 10 20 0 20 0 0 -10z m100 -10 l0 -20 29 0 29 0 5 13 4
12 9 -9 9 -9 -12 -4 -13 -5 0 -9 0 -9 19 0 19 0 5 13 4 12 8 -7 8 -8 -21 -19
-22 -18 0 -17 0 -16 -10 0 -10 0 0 30 0 30 -9 0 -9 0 -4 -12 -4 -12 -27 26
-27 27 0 16 0 15 10 0 10 0 0 -20z m-260 -10 l0 -10 -10 0 -10 0 0 10 0 10 10
0 10 0 0 -10z m420 -20 l0 -10 -10 0 -10 0 0 10 0 10 10 0 10 0 0 -10z m-460
-20 l0 -10 -10 0 -10 0 0 10 0 10 10 0 10 0 0 -10z m220 0 l0 -10 -10 0 -10 0
0 10 0 10 10 0 10 0 0 -10z m80 -16 l0 -5 -15 -16 -16 -15 -5 5 -6 6 13 15 14
15 8 1 7 0 0 -6z m140 0 l0 -5 -15 -16 -16 -15 -5 5 -6 6 13 15 14 15 8 1 7 0
0 -6z m-480 -24 l0 -10 -10 0 -10 0 0 10 0 10 10 0 10 0 0 -10z m60 0 l0 -10
-10 0 -10 0 0 10 0 10 10 0 10 0 0 -10z m60 0 l0 -10 -10 0 -10 0 0 10 0 10
10 0 10 0 0 -10z m260 0 l0 -10 -10 0 -10 0 0 10 0 10 10 0 10 0 0 -10z m180
0 l0 -10 -10 0 -10 0 0 10 0 10 10 0 10 0 0 -10z m95 -15 l25 -24 0 -12 0 -12
22 -18 21 -19 -6 -7 -7 -6 -19 21 -18 22 -7 0 -6 0 0 -20 0 -20 -10 0 -10 0 0
20 0 20 -10 0 -10 0 0 -30 0 -30 -10 0 -10 0 0 30 0 30 -10 0 -10 0 0 -20 0
-20 -10 0 -10 0 0 16 0 17 -22 18 -21 19 6 7 7 6 20 -22 19 -23 17 17 17 17
-14 8 -13 9 6 7 7 7 30 -32 29 -31 6 0 6 0 0 18 0 18 -20 14 -20 14 0 8 0 8 5
0 6 0 24 -25z m-675 -25 l0 -10 -10 0 -10 0 0 10 0 10 10 0 10 0 0 -10z m40 0
l0 -10 -10 0 -10 0 0 10 0 10 10 0 10 0 0 -10z m160 0 l0 -10 -10 0 -10 0 0
10 0 10 10 0 10 0 0 -10z m80 0 l0 -10 -10 0 -10 0 0 10 0 10 10 0 10 0 0 -10z
m60 0 l0 -10 -10 0 -10 0 0 10 0 10 10 0 10 0 0 -10z m40 0 l0 -10 -10 0 -10
0 0 10 0 10 10 0 10 0 0 -10z m40 0 l0 -10 -10 0 -10 0 0 10 0 10 10 0 10 0 0
-10z m-340 -20 l0 -10 -10 0 -10 0 0 10 0 10 10 0 10 0 0 -10z m60 0 l0 -10
-10 0 -10 0 0 10 0 10 10 0 10 0 0 -10z m-180 -20 l0 -10 -10 0 -10 0 0 10 0
10 10 0 10 0 0 -10z m80 0 l0 -10 -10 0 -10 0 0 10 0 10 10 0 10 0 0 -10z
m260 0 l0 -10 -10 0 -10 0 0 10 0 10 10 0 10 0 0 -10z m43 -2 l5 -13 10 14 10
14 17 -17 17 -17 -6 -7 -7 -6 -9 13 -8 14 -18 -17 -17 -18 14 -8 13 -9 -6 -7
-7 -6 -17 17 -17 17 14 10 14 10 -12 5 -13 5 0 9 0 9 9 0 9 0 5 -12z m-343
-18 l0 -10 -10 0 -10 0 0 10 0 10 10 0 10 0 0 -10z m180 0 l0 -10 -10 0 -10 0
0 10 0 10 10 0 10 0 0 -10z m60 0 l0 -10 -10 0 -10 0 0 10 0 10 10 0 10 0 0
-10z m240 0 l0 -10 -10 0 -10 0 0 10 0 10 10 0 10 0 0 -10z m-540 -20 l0 -10
-10 0 -10 0 0 10 0 10 10 0 10 0 0 -10z m140 0 l0 -10 -10 0 -10 0 0 10 0 10
10 0 10 0 0 -10z m80 -20 l28 -30 6 0 6 0 0 20 0 20 10 0 10 0 0 -19 0 -19 13
-5 12 -4 -9 -9 -9 -9 -4 13 -5 12 -9 0 -9 0 0 -30 0 -30 -10 0 -10 0 0 -20 0
-20 -10 0 -10 0 0 20 0 20 -10 0 -10 0 0 20 0 20 -10 0 -10 0 0 19 0 19 13 6
12 6 -12 6 -13 6 0 9 0 9 6 0 6 0 28 -30z m-120 0 l0 -10 -10 0 -10 0 0 10 0
10 10 0 10 0 0 -10z m220 0 l0 -10 -10 0 -10 0 0 10 0 10 10 0 10 0 0 -10z
m40 0 l0 -10 -10 0 -10 0 0 10 0 10 10 0 10 0 0 -10z m300 0 l0 -10 -10 0 -10
0 0 10 0 10 10 0 10 0 0 -10z m100 -9 l0 -19 -12 -5 -13 -5 15 -11 14 -10 -6
-7 -7 -6 -26 27 -27 26 7 7 8 7 4 -12 5 -13 9 0 9 0 0 20 0 20 10 0 10 0 0
-19z m60 9 l0 -10 -10 0 -10 0 0 10 0 10 10 0 10 0 0 -10z m-820 -20 l0 -10
-10 0 -10 0 0 10 0 10 10 0 10 0 0 -10z m140 0 l0 -10 -10 0 -10 0 0 10 0 10
10 0 10 0 0 -10z m340 0 l0 -10 -10 0 -10 0 0 10 0 10 10 0 10 0 0 -10z m60 0
l0 -10 -10 0 -10 0 0 10 0 10 10 0 10 0 0 -10z m-200 -20 l0 -10 -10 0 -10 0
0 10 0 10 10 0 10 0 0 -10z m-373 -26 l16 -16 -14 -9 -14 -9 15 -10 15 -10
-15 -9 -14 -10 23 -20 23 -20 -16 -16 -16 -16 -17 16 -16 17 14 9 14 9 -15 10
-15 10 15 10 15 10 -15 10 -15 10 15 11 15 11 -12 5 -13 5 0 9 0 9 6 0 5 0 16
-16z m93 6 l0 -10 -10 0 -10 0 0 10 0 10 10 0 10 0 0 -10z m80 -10 l0 -20 -6
0 -5 0 -15 14 -14 15 0 5 0 6 20 0 20 0 0 -20z m380 10 l0 -10 -10 0 -10 0 0
10 0 10 10 0 10 0 0 -10z m-340 -20 l0 -10 -10 0 -10 0 0 10 0 10 10 0 10 0 0
-10z m140 0 l0 -10 -10 0 -10 0 0 10 0 10 10 0 10 0 0 -10z m520 0 l0 -10 -10
0 -10 0 0 10 0 10 10 0 10 0 0 -10z m-800 -40 l0 -10 -10 0 -10 0 0 10 0 10
10 0 10 0 0 -10z m100 0 l0 -10 -10 0 -10 0 0 10 0 10 10 0 10 0 0 -10z m60 0
l0 -10 -10 0 -10 0 0 10 0 10 10 0 10 0 0 -10z m88 -7 l17 -16 -13 -5 -12 -4
0 -18 0 -18 -12 -5 -13 -5 15 -11 14 -10 -6 -7 -7 -6 -18 18 -18 17 13 5 12 4
0 18 0 18 13 6 12 6 -12 6 -13 6 0 9 0 9 6 0 5 0 17 -17z m78 3 l14 -15 0 -13
0 -14 20 -14 20 -14 0 -18 0 -18 -9 0 -9 0 -5 13 -4 12 -21 -24 -21 -23 -18
18 -18 17 13 5 12 4 0 19 0 19 -9 0 -9 0 -5 -12 -4 -13 -8 7 -7 7 18 18 17 18
5 -13 4 -12 9 0 9 0 0 20 0 20 -10 0 -10 0 0 10 0 10 6 0 5 0 15 -14z m-266
-16 l0 -10 -10 0 -10 0 0 10 0 10 10 0 10 0 0 -10z m86 -25 l15 -15 -16 -16
-16 -16 -7 6 -6 7 14 10 15 11 -12 5 -13 5 0 9 0 9 6 0 5 0 15 -15z m54 5 l0
-10 -10 0 -10 0 0 10 0 10 10 0 10 0 0 -10z m-180 -40 l0 -10 -10 0 -10 0 0
10 0 10 10 0 10 0 0 -10z m40 -20 l0 -10 -10 0 -10 0 0 10 0 10 10 0 10 0 0
-10z m40 -20 l0 -10 -10 0 -10 0 0 10 0 10 10 0 10 0 0 -10z m120 -20 l0 -10
-10 0 -10 0 0 10 0 10 10 0 10 0 0 -10z m0 -40 l0 -10 -10 0 -10 0 0 10 0 10
10 0 10 0 0 -10z m706 -184 l14 -15 0 -45 0 -46 -10 0 -10 0 0 -15 0 -16 -45
-44 -44 -45 -41 0 -41 0 -16 15 -15 16 7 7 8 7 4 -12 5 -13 44 0 45 0 34 35
35 34 0 16 0 15 10 0 10 0 0 50 0 50 -10 0 -10 0 0 10 0 10 6 0 5 0 15 -14z"/>
<path d="M600 1090 l0 -10 10 0 10 0 0 10 0 10 -10 0 -10 0 0 -10z"/>
<path d="M920 890 l0 -10 10 0 10 0 0 10 0 10 -10 0 -10 0 0 -10z"/>
<path d="M440 780 l0 -20 10 0 10 0 0 -20 0 -20 10 0 10 0 0 20 0 20 -10 0
-10 0 0 20 0 20 -10 0 -10 0 0 -20z"/>
<path d="M200 630 l0 -10 10 0 10 0 0 10 0 10 -10 0 -10 0 0 -10z"/>
<path d="M600 621 l0 -19 -12 -5 -13 -4 7 -8 7 -7 16 15 15 16 0 15 0 16 -10
0 -10 0 0 -19z"/>
<path d="M640 490 l0 -10 10 0 10 0 0 10 0 10 -10 0 -10 0 0 -10z"/>
<path d="M660 434 l0 -5 15 -16 16 -15 6 5 5 6 -15 16 -16 15 -5 0 -6 0 0 -6z"/>
<path d="M540 410 l0 -10 10 0 10 0 0 10 0 10 -10 0 -10 0 0 -10z"/>
<path d="M600 410 l0 -10 10 0 10 0 0 10 0 10 -10 0 -10 0 0 -10z"/>
<path d="M560 350 l0 -10 10 0 10 0 0 10 0 10 -10 0 -10 0 0 -10z"/>
</g>
</svg>
