<?xml version="1.0" standalone="no"?>
<!DOCTYPE svg PUBLIC "-//W3C//DTD SVG 20010904//EN"
 "http://www.w3.org/TR/2001/REC-SVG-20010904/DTD/svg10.dtd">
<svg version="1.0" xmlns="http://www.w3.org/2000/svg"
 width="468pt" height="468pt" viewBox="0 0 468 468"
 preserveAspectRatio="xMidYMid meet">
<metadata>
Created by potrace 1.8, written by Peter Selinger 2001-2007
</metadata>
<g transform="translate(0,468) scale(0.365625,-0.365625)"
fill="#000000" stroke="none">
<path d="M670 1260 l-14 -20 -27 0 -27 0 -6 13 -6 12 -6 -12 -6 -13 -89 0 -89
0 0 -10 0 -10 -30 0 -30 0 0 -16 0 -15 -14 -15 -15 -14 -25 0 -26 0 0 -10 0
-10 -20 0 -20 0 0 -19 0 -19 -12 -4 -13 -5 18 -18 19 -18 8 14 9 13 8 -8 8 -9
-12 -4 -13 -5 0 -19 0 -19 9 0 9 0 6 13 6 12 6 -12 6 -13 19 0 19 0 0 -20 0
-20 -19 0 -19 0 -6 -12 -6 -13 -6 13 -6 12 -39 0 -39 0 0 20 0 20 -26 0 -25 0
-15 -14 -14 -15 0 -13 0 -14 -20 -14 -20 -14 0 -28 0 -28 -10 0 -10 0 0 -20 0
-20 -10 0 -10 0 0 -50 0 -50 -10 0 -10 0 0 -20 0 -20 26 0 25 0 15 -14 14 -15
0 -45 0 -46 10 0 10 0 0 -60 0 -60 10 0 10 0 0 -28 0 -28 20 -14 20 -14 0 -16
0 -16 20 -14 20 -14 0 -18 0 -18 30 0 30 0 0 20 0 20 10 0 10 0 0 56 0 57 23
20 22 20 -12 4 -13 5 0 65 0 65 40 38 40 38 0 16 0 16 10 0 10 0 0 20 0 20
-30 0 -30 0 0 6 0 5 14 15 15 14 25 0 26 0 0 10 0 10 15 0 16 0 24 25 25 24 0
11 0 11 -16 16 -16 16 -8 -13 -8 -13 -16 16 -16 16 0 15 0 16 10 0 10 0 0 -10
0 -10 20 0 20 0 0 -10 0 -10 48 0 48 0 14 -20 14 -20 14 0 13 0 15 -14 14 -15
0 -25 0 -26 10 0 10 0 0 -30 0 -30 20 0 20 0 0 25 0 26 45 44 44 45 12 0 11 0
28 -30 28 -30 16 0 16 0 0 -20 0 -20 16 0 17 0 18 -21 18 -21 16 15 15 16 0
15 0 16 -10 0 -10 0 0 19 0 19 13 5 12 4 -9 9 -9 9 -4 -12 -5 -13 -9 0 -9 0 0
20 0 20 26 0 25 0 15 14 14 15 0 33 0 34 -20 14 -20 14 0 17 0 17 -12 5 -13 4
9 9 9 9 4 -12 5 -13 9 0 9 0 0 19 0 19 13 6 12 6 -12 6 -13 6 0 19 0 19 -16 0
-16 0 -38 40 -38 40 -26 0 -26 0 0 10 0 10 -20 0 -20 0 0 10 0 10 -70 0 -70 0
0 10 0 10 -8 0 -8 0 -14 -20z m-364 -334 l14 -15 0 -25 0 -26 10 0 10 0 0 -30
0 -30 -6 0 -5 0 -15 14 -14 15 0 35 0 36 -10 0 -10 0 0 20 0 20 6 0 5 0 15
-14z"/>
<path d="M200 1030 l0 -10 10 0 10 0 0 10 0 10 -10 0 -10 0 0 -10z"/>
<path d="M1100 1010 l0 -30 10 0 10 0 0 30 0 30 -10 0 -10 0 0 -30z"/>
<path d="M1060 1010 l0 -10 10 0 10 0 0 10 0 10 -10 0 -10 0 0 -10z"/>
<path d="M920 734 l0 -5 15 -16 16 -15 6 5 5 6 -15 16 -16 15 -5 0 -6 0 0 -6z"/>
<path d="M1140 720 l0 -20 10 0 10 0 0 20 0 20 -10 0 -10 0 0 -20z"/>
<path d="M1073 705 l-13 -14 0 -16 0 -15 -10 0 -10 0 0 -30 0 -30 16 0 15 0
15 14 14 15 0 45 0 46 -7 0 -8 -1 -12 -14z"/>
<path d="M900 692 l0 -8 20 -14 20 -14 0 -14 0 -13 25 -24 24 -25 6 0 5 0 0
20 0 20 -10 0 -10 0 0 30 0 30 -9 0 -9 0 -5 -12 -4 -13 -20 23 -20 22 -7 0 -6
0 0 -8z"/>
<path d="M1200 610 l0 -10 10 0 10 0 0 -30 0 -30 16 0 15 0 15 14 14 15 0 5 0
6 -20 0 -20 0 0 20 0 20 -20 0 -20 0 0 -10z"/>
<path d="M1060 550 l0 -10 10 0 10 0 0 10 0 10 -10 0 -10 0 0 -10z"/>
<path d="M1140 550 l0 -10 10 0 10 0 0 10 0 10 -10 0 -10 0 0 -10z"/>
<path d="M380 480 l0 -20 -10 0 -10 0 0 -50 0 -50 20 0 20 0 0 70 0 70 -10 0
-10 0 0 -20z"/>
<path d="M1180 490 l0 -10 -16 0 -16 0 -28 -30 -28 -30 -11 0 -12 0 -24 -25
-25 -24 0 -46 0 -45 20 0 20 0 0 10 0 10 30 0 30 0 0 -30 0 -30 5 0 6 0 24 25
25 24 0 16 0 15 10 0 10 0 0 20 0 20 10 0 10 0 0 50 0 50 -10 0 -10 0 0 20 0
20 -10 0 -10 0 0 -10z"/>
<path d="M720 50 l0 -10 -130 0 -130 0 0 -10 0 -10 50 0 50 0 0 -10 0 -10 90
0 90 0 0 10 0 10 50 0 50 0 0 6 0 5 -16 16 -16 16 -9 -14 -9 -14 -10 15 -10
15 -11 -15 -11 -15 -5 13 -5 12 -9 0 -9 0 0 -10z"/>
</g>
</svg>
