<?xml version="1.0" standalone="no"?>
<!DOCTYPE svg PUBLIC "-//W3C//DTD SVG 20010904//EN"
 "http://www.w3.org/TR/2001/REC-SVG-20010904/DTD/svg10.dtd">
<svg version="1.0" xmlns="http://www.w3.org/2000/svg"
 width="468pt" height="468pt" viewBox="0 0 468 468"
 preserveAspectRatio="xMidYMid meet">
<metadata>
Created by potrace 1.8, written by Peter Selinger 2001-2007
</metadata>
<g transform="translate(0,468) scale(0.365625,-0.365625)"
fill="#000000" stroke="none">
<path d="M0 640 l0 -640 640 0 640 0 0 640 0 640 -640 0 -640 0 0 -640z m1260
0 l0 -620 -620 0 -620 0 0 620 0 620 620 0 620 0 0 -620z"/>
<path d="M393 1105 l-13 -14 0 -16 0 -15 -10 0 -10 0 0 -20 0 -20 -10 0 -10 0
0 -20 0 -20 -10 0 -10 0 0 -20 0 -20 -10 0 -10 0 0 -20 0 -20 -10 0 -10 0 0
-20 0 -20 -10 0 -10 0 0 -20 0 -20 -10 0 -10 0 0 -20 0 -20 -10 0 -10 0 0 -20
0 -20 -10 0 -10 0 0 -20 0 -20 -10 0 -10 0 0 -20 0 -20 -10 0 -10 0 0 -20 0
-20 -10 0 -10 0 0 -20 0 -20 -10 0 -10 0 0 -20 0 -20 -10 0 -10 0 0 -20 0 -20
-10 0 -10 0 0 -40 0 -40 10 0 10 0 0 -20 0 -20 10 0 10 0 0 -16 0 -15 14 -15
15 -14 13 0 14 0 14 -20 14 -20 28 0 28 0 0 -10 0 -10 300 0 300 0 0 10 0 10
26 0 25 0 15 14 14 15 0 15 0 16 10 0 10 0 0 20 0 20 10 0 10 0 0 20 0 20 10
0 10 0 0 20 0 20 10 0 10 0 0 20 0 20 10 0 10 0 0 20 0 20 10 0 10 0 0 20 0
20 10 0 10 0 0 20 0 20 10 0 10 0 0 20 0 20 10 0 10 0 0 20 0 20 10 0 10 0 0
20 0 20 10 0 10 0 0 20 0 20 10 0 10 0 0 20 0 20 10 0 10 0 0 19 0 19 13 5 12
4 -9 9 -9 9 -4 -12 -5 -13 -9 0 -9 0 0 20 0 20 10 0 10 0 0 19 0 19 13 5 12 4
-9 9 -9 9 -4 -12 -5 -13 -9 0 -9 0 0 20 0 20 10 0 10 0 0 19 0 19 12 5 13 4
-7 8 -7 7 -16 -15 -15 -16 0 -15 0 -16 -10 0 -10 0 0 -20 0 -20 -10 0 -10 0 0
-20 0 -20 -10 0 -10 0 0 -20 0 -20 -10 0 -10 0 0 -20 0 -20 -10 0 -10 0 0 -20
0 -20 -10 0 -10 0 0 -20 0 -20 -10 0 -10 0 0 -20 0 -20 -10 0 -10 0 0 -20 0
-20 -10 0 -10 0 0 -20 0 -20 -10 0 -10 0 0 -20 0 -20 -10 0 -10 0 0 -20 0 -20
-10 0 -10 0 0 -20 0 -20 -10 0 -10 0 0 -20 0 -20 -10 0 -10 0 0 -20 0 -20 -20
0 -20 0 0 -40 0 -40 30 0 30 0 0 -20 0 -20 -26 0 -25 0 -15 14 -14 15 0 51 0
52 30 28 30 28 0 16 0 16 10 0 10 0 0 20 0 20 10 0 10 0 0 20 0 20 10 0 10 0
0 20 0 20 10 0 10 0 0 20 0 20 10 0 10 0 0 20 0 20 10 0 10 0 0 20 0 20 10 0
10 0 0 20 0 20 10 0 10 0 0 20 0 20 10 0 10 0 0 20 0 20 10 0 10 0 0 20 0 20
10 0 10 0 0 20 0 20 10 0 10 0 0 20 0 20 10 0 10 0 0 20 0 20 10 0 10 0 0 20
0 20 10 0 10 0 0 20 0 20 -397 0 -398 -1 -12 -14z m787 -15 l0 -10 -10 0 -10
0 0 -20 0 -20 -10 0 -10 0 0 -20 0 -20 -10 0 -10 0 0 -20 0 -20 -10 0 -10 0 0
-20 0 -20 -10 0 -10 0 0 -20 0 -20 -10 0 -10 0 0 -20 0 -20 -10 0 -10 0 0 -20
0 -20 -10 0 -10 0 0 -20 0 -20 -10 0 -10 0 0 -20 0 -20 -10 0 -10 0 0 -20 0
-20 -10 0 -10 0 0 -20 0 -20 -10 0 -10 0 0 -20 0 -20 -10 0 -10 0 0 -20 0 -20
-10 0 -10 0 0 -20 0 -20 -10 0 -10 0 0 -16 0 -16 -30 -28 -30 -28 0 -54 0 -54
20 -14 20 -14 0 -8 0 -8 -300 0 -300 0 0 10 0 10 -30 0 -30 0 0 20 0 20 -15 0
-16 0 -24 25 -25 24 0 16 0 15 -10 0 -10 0 0 40 0 40 10 0 10 0 0 20 0 20 10
0 10 0 0 20 0 20 10 0 10 0 0 20 0 20 10 0 10 0 0 20 0 20 10 0 10 0 0 20 0
20 10 0 10 0 0 20 0 20 10 0 10 0 0 20 0 20 10 0 10 0 0 20 0 20 10 0 10 0 0
20 0 20 10 0 10 0 0 20 0 20 10 0 10 0 0 20 0 20 10 0 10 0 0 20 0 20 10 0 10
0 0 20 0 20 10 0 10 0 0 20 0 20 10 0 10 0 0 20 0 20 390 0 390 0 0 -10z m0
-170 l0 -20 -10 0 -10 0 0 -20 0 -20 10 0 10 0 0 -20 0 -20 -10 0 -10 0 0 -20
0 -20 -10 0 -10 0 0 -20 0 -20 -10 0 -10 0 0 -20 0 -20 -10 0 -10 0 0 -20 0
-20 -10 0 -10 0 0 -20 0 -20 -10 0 -10 0 0 -20 0 -20 -10 0 -10 0 0 -20 0 -20
-10 0 -10 0 0 -20 0 -20 -10 0 -10 0 0 -20 0 -20 -10 0 -10 0 0 -20 0 -20 -10
0 -10 0 0 -20 0 -20 -10 0 -10 0 0 -20 0 -20 -10 0 -10 0 0 20 0 20 10 0 10 0
0 20 0 20 -10 0 -10 0 0 -16 0 -15 -14 -15 -15 -14 -5 0 -6 0 0 18 0 18 20 14
20 14 0 18 0 18 10 0 10 0 0 20 0 20 10 0 10 0 0 20 0 20 10 0 10 0 0 20 0 20
10 0 10 0 0 20 0 20 10 0 10 0 0 20 0 20 10 0 10 0 0 20 0 20 10 0 10 0 0 20
0 20 10 0 10 0 0 20 0 20 10 0 10 0 0 20 0 20 10 0 10 0 0 20 0 20 10 0 10 0
0 20 0 20 10 0 10 0 0 20 0 20 10 0 10 0 0 -20z"/>
<path d="M413 945 l-13 -14 0 -26 0 -25 10 0 10 0 0 -100 0 -100 10 0 10 0 0
20 0 20 10 0 10 0 0 20 0 20 10 0 10 0 0 20 0 20 10 0 10 0 0 20 0 20 10 0 10
0 0 20 0 20 10 0 10 0 0 20 0 20 10 0 10 0 0 20 0 20 -30 0 -30 0 0 -10 0 -10
10 0 10 0 0 -28 0 -28 -20 -14 -20 -14 0 -18 0 -18 -10 0 -10 0 0 -20 0 -20
-10 0 -10 0 0 90 0 90 -7 0 -8 -1 -12 -14z"/>
<path d="M580 940 l0 -20 -10 0 -10 0 0 -20 0 -20 -10 0 -10 0 0 -30 0 -30
-10 0 -10 0 0 -20 0 -20 -10 0 -10 0 0 -20 0 -20 -10 0 -10 0 0 -30 0 -30 86
0 85 0 15 14 14 15 0 14 0 15 13 6 12 6 -12 6 -13 6 0 39 0 39 10 0 10 0 0 30
0 30 10 0 10 0 0 10 0 10 -40 0 -40 0 0 -10 0 -10 10 0 10 0 0 -80 0 -80 -10
0 -10 0 0 -20 0 -20 -10 0 -10 0 0 10 0 10 -50 0 -50 0 0 20 0 20 10 0 10 0 0
20 0 20 40 0 40 0 0 20 0 20 -30 0 -30 0 0 10 0 10 10 0 10 0 0 15 0 16 25 24
24 25 46 0 45 0 0 10 0 10 -70 0 -70 0 0 -20z"/>
<path d="M780 880 l0 -60 -10 0 -10 0 0 -30 0 -30 10 0 10 0 0 20 0 20 10 0
10 0 0 60 0 60 10 0 10 0 0 10 0 10 -20 0 -20 0 0 -60z"/>
<path d="M853 925 l-13 -14 0 -16 0 -15 -10 0 -10 0 0 -36 0 -35 14 -15 15
-14 15 0 16 0 0 -16 0 -15 -14 -15 -15 -14 -25 0 -26 0 0 10 0 10 -10 0 -10 0
0 -16 0 -15 14 -15 15 -14 21 0 21 0 34 35 35 34 0 21 0 21 -14 15 -15 14 -15
0 -16 0 0 26 0 25 15 16 16 15 18 -21 18 -21 7 0 6 0 0 26 0 25 -14 15 -15 14
-23 0 -23 -1 -12 -14z"/>
<path d="M373 865 l-13 -14 0 -23 0 -24 -20 -14 -20 -14 0 -14 0 -14 -30 -28
-30 -28 0 -6 0 -6 50 0 50 0 0 10 0 10 -10 0 -10 0 0 30 0 30 10 0 10 0 0 20
0 20 10 0 10 0 0 20 0 20 10 0 10 0 0 20 0 20 -7 0 -8 -1 -12 -14z"/>
<path d="M720 830 l0 -30 -10 0 -10 0 0 -20 0 -20 10 0 10 0 0 -30 0 -30 -10
0 -10 0 0 -10 0 -10 30 0 30 0 0 9 0 9 -12 6 -13 6 13 6 12 6 0 19 0 19 -10 0
-10 0 0 50 0 50 -10 0 -10 0 0 -30z"/>
<path d="M272 604 l-13 -14 15 -16 16 -15 16 15 15 16 -15 15 -15 15 -3 0 -3
-1 -13 -15z"/>
<path d="M451 604 l-14 -16 14 -8 13 -9 -23 -20 -23 -20 16 -16 16 -16 17 16
16 17 -14 8 -13 9 23 20 23 20 -15 16 -16 15 -3 0 -3 -1 -14 -15z"/>
<path d="M372 584 l-13 -14 15 -16 16 -15 16 15 15 16 -15 15 -15 15 -3 0 -3
-1 -13 -15z"/>
<path d="M712 564 l-13 -14 15 -16 16 -15 16 15 15 16 -15 15 -15 15 -3 0 -3
-1 -13 -15z"/>
<path d="M1140 840 l0 -20 -10 0 -10 0 0 -20 0 -20 -10 0 -10 0 0 -20 0 -20
-10 0 -10 0 0 -20 0 -20 -10 0 -10 0 0 -20 0 -20 -10 0 -10 0 0 -20 0 -20 -10
0 -10 0 0 -20 0 -20 -10 0 -10 0 0 -20 0 -20 -10 0 -10 0 0 -20 0 -20 -10 0
-10 0 0 -20 0 -20 -10 0 -10 0 0 -20 0 -20 10 0 10 0 0 20 0 20 10 0 10 0 0
20 0 20 10 0 10 0 0 20 0 20 10 0 10 0 0 20 0 20 10 0 10 0 0 20 0 20 10 0 10
0 0 20 0 20 10 0 10 0 0 20 0 20 10 0 10 0 0 20 0 20 10 0 10 0 0 20 0 20 10
0 10 0 0 20 0 20 10 0 10 0 0 20 0 20 -10 0 -10 0 0 -20z"/>
</g>
</svg>
