<?xml version="1.0" standalone="no"?>
<!DOCTYPE svg PUBLIC "-//W3C//DTD SVG 20010904//EN"
 "http://www.w3.org/TR/2001/REC-SVG-20010904/DTD/svg10.dtd">
<svg version="1.0" xmlns="http://www.w3.org/2000/svg"
 width="468pt" height="468pt" viewBox="0 0 468 468"
 preserveAspectRatio="xMidYMid meet">
<metadata>
Created by potrace 1.8, written by Peter Selinger 2001-2007
</metadata>
<g transform="translate(0,468) scale(0.365625,-0.365625)"
fill="#000000" stroke="none">
<path d="M485 1270 l6 -9 -7 -25 -6 -25 -14 6 -14 5 0 13 0 12 -43 -1 -43 -1
-18 -17 -17 -18 -5 0 -5 0 7 11 7 11 -14 9 -14 9 -22 0 -23 0 0 10 0 10 -30 0
-30 0 0 -9 0 -10 -17 -4 -18 -5 28 -1 27 -1 0 -9 0 -8 30 -6 30 -6 0 -11 0
-10 -12 0 -13 0 -14 -9 -13 -9 23 -23 23 -23 4 12 4 12 39 6 39 7 0 8 0 9 55
0 55 0 0 -9 0 -8 40 -7 40 -6 0 -8 0 -9 24 -12 24 -13 23 13 24 12 15 15 15
16 -22 -6 -23 -6 0 12 0 12 12 12 12 12 -8 7 -7 7 -7 -11 -7 -11 -29 -8 -29
-7 6 22 5 21 -13 0 -13 0 -5 13 -5 12 -1 -17 -1 -18 -9 0 -8 0 -6 29 -6 28
-16 7 -16 6 6 -10z m-175 -40 l0 -10 -10 0 -10 0 0 10 0 10 10 0 10 0 0 -10z"/>
<path d="M857 1260 l-17 -20 0 -15 0 -15 -11 0 -12 0 -14 -17 -14 -18 11 23
12 24 -6 14 -5 14 -16 0 -15 0 0 10 0 10 -29 0 -29 0 -6 -16 -6 -16 20 5 20 5
0 -3 0 -4 -16 -15 -15 -16 10 0 11 0 0 -16 0 -16 -14 5 -15 6 1 -30 1 -29 18
0 17 0 4 11 3 10 43 6 42 6 0 8 0 9 49 0 49 0 4 -10 3 -10 47 -6 47 -7 25 7
26 6 0 16 0 16 -14 -5 -14 -6 6 21 5 20 33 -5 34 -6 0 16 0 15 -20 5 -20 5 0
9 0 9 -15 0 -15 0 0 -10 0 -10 -20 0 -19 0 5 -15 6 -15 -11 0 -12 0 -23 25
-23 25 -8 0 -7 0 6 -15 5 -15 -13 0 -14 0 -16 6 -16 6 0 14 0 14 -13 0 -13 0
-17 -20z m63 -30 l0 -10 -10 0 -10 0 0 10 0 10 10 0 10 0 0 -10z m70 1 l0 -9
-14 -5 -15 -6 6 15 5 14 9 0 9 0 0 -9z"/>
<path d="M190 1201 l0 -9 18 -4 17 -5 13 4 12 5 0 9 0 9 -30 0 -30 0 0 -9z"/>
<path d="M1090 1200 l0 -10 10 0 10 0 0 10 0 10 -10 0 -10 0 0 -10z"/>
<path d="M28 1184 l-17 -5 -6 -20 -6 -19 6 -30 7 -30 13 0 13 0 4 -10 3 -10
38 -7 37 -6 0 16 0 15 -26 6 -26 7 -15 14 -14 15 15 15 15 15 25 0 26 0 0 -8
0 -8 33 -12 33 -12 12 0 12 0 20 -20 20 -20 0 -17 0 -18 24 -22 24 -23 10 0
10 0 4 -12 5 -13 88 0 88 0 4 13 5 12 14 0 14 0 0 -6 0 -5 -12 -14 -13 -14
-12 -13 -12 -13 -14 -11 -14 -12 -21 -6 -21 -7 -6 -20 -6 -19 6 -19 5 -18 -42
-7 -43 -7 -12 -1 -13 -1 0 -14 0 -13 -15 0 -15 0 0 -14 0 -14 -13 -5 -12 -5
13 -1 12 -1 0 -15 0 -15 15 0 14 0 11 20 11 20 10 0 10 0 6 -17 7 -18 12 -12
13 -13 10 0 10 0 3 17 3 17 18 -18 17 -17 0 15 0 16 20 0 19 0 -6 -17 -7 -18
17 17 17 16 20 -5 20 -5 0 -9 0 -9 10 0 10 0 6 24 6 25 14 5 14 5 0 -9 0 -10
18 -18 18 -18 12 12 12 13 0 16 0 15 -9 0 -9 0 -5 14 -6 15 15 -6 14 -5 6 -24
6 -24 9 0 9 0 0 -16 0 -15 16 15 15 16 15 0 14 0 0 24 0 24 -10 5 -10 6 12 -3
13 -3 -1 -44 -1 -44 4 13 5 12 12 0 12 0 17 20 17 20 0 15 0 15 -9 0 -9 0 -5
14 -6 15 14 -5 14 -6 6 -19 6 -19 -6 -20 -6 -20 15 -6 16 -6 0 -14 0 -15 -223
1 -222 1 -207 -1 -208 0 0 -335 0 -335 640 0 640 0 0 335 0 335 -207 1 -208 1
13 5 12 5 0 24 0 24 -12 0 -11 0 6 7 7 7 20 -22 20 -21 15 5 14 6 6 19 6 19
-6 11 -7 10 -12 -4 -13 -5 -14 8 -13 9 7 8 8 7 9 -14 10 -15 0 17 0 17 -35 7
-35 6 0 9 0 9 -16 0 -15 0 6 10 7 11 -24 24 -23 25 -12 0 -13 0 0 10 0 10 -14
0 -13 0 -7 31 -6 31 0 9 0 8 18 -6 17 -7 7 -10 7 -11 92 0 92 0 5 13 4 12 12
0 13 0 27 25 26 24 0 21 0 22 20 5 20 5 0 7 0 7 35 14 35 14 0 8 0 8 26 0 25
0 15 -15 15 -15 -13 -13 -13 -13 -18 -7 -19 -7 5 -13 4 -12 22 2 22 3 24 26
25 27 0 19 0 20 -20 5 -20 5 0 9 0 9 -45 0 -45 0 0 -9 0 -9 -27 -7 -28 -7 -7
-11 -7 -11 -51 1 -52 1 -9 13 -8 14 -91 -1 -92 0 -6 -11 -7 -11 -29 -8 -29 -7
-4 -16 -4 -16 -60 0 -59 0 0 13 0 12 -27 13 -28 12 -7 10 -7 10 -91 0 -91 -1
-9 -14 -9 -15 -52 2 -52 1 -6 10 -6 10 -30 8 -30 7 -6 9 -6 10 -39 3 -39 4
-17 -5z m459 -66 l33 -12 0 -13 0 -13 10 0 10 0 0 -20 0 -20 -22 -22 -23 -23
-76 0 -75 0 -18 18 -17 17 -10 0 -9 0 0 26 0 25 14 15 15 14 23 9 23 10 44 0
45 1 33 -12z m464 0 l34 -11 7 -11 8 -11 0 -25 0 -26 -22 -19 -23 -20 -85 0
-85 0 -22 23 -23 22 0 20 0 20 10 0 10 0 0 13 0 13 28 11 27 11 51 1 51 1 34
-12z m-250 -79 l9 -14 0 -32 0 -33 9 0 9 0 5 -29 6 -29 26 -6 26 -7 19 -19 20
-20 -20 -20 -20 -20 -16 0 -15 0 6 20 7 21 -40 39 -40 40 -8 0 -9 0 15 -11 15
-11 -12 -5 -13 -5 15 -14 14 -15 -5 -13 -5 -14 12 -8 12 -7 13 18 14 19 6 -6
6 -6 -22 -22 -22 -22 -31 -9 -32 -9 -45 0 -45 0 -22 6 -21 6 -7 26 -6 26 18
14 18 13 -14 8 -14 9 -11 -4 -11 -4 -14 -21 -13 -21 11 -11 11 -11 0 -8 0 -8
-15 0 -15 0 -20 20 -20 20 0 6 0 5 13 13 13 13 22 7 22 7 0 10 0 9 15 0 15 0
0 14 0 14 15 6 15 5 0 31 0 31 13 13 12 13 15 6 15 6 44 -3 43 -4 9 -13z m32
-163 l5 -13 -8 -14 -9 -13 -8 7 -7 8 14 9 15 10 -11 0 -12 0 -5 14 -6 15 14
-5 13 -6 5 -12z m-231 -16 l-22 -21 0 7 0 7 18 17 17 17 4 -3 5 -4 -22 -20z
m-117 -99 l-6 -21 -15 0 -14 0 0 7 0 6 18 17 17 17 3 -3 4 -2 -7 -21z m155 19
l0 -10 -9 0 -8 0 -6 -30 -6 -30 -11 0 -10 0 0 10 0 10 9 0 9 0 6 30 6 30 10 0
10 0 0 -10z m-230 -60 l0 -10 -10 0 -10 0 0 10 0 10 10 0 10 0 0 -10z m420 0
l0 -10 -10 0 -10 0 0 10 0 10 10 0 10 0 0 -10z"/>
<path d="M450 1100 l0 -10 10 0 10 0 0 -20 0 -20 -9 0 -9 0 -5 -14 -6 -15 14
5 14 6 6 19 6 19 -6 20 -6 20 -10 0 -9 0 0 -10z"/>
<path d="M930 1100 l0 -10 10 0 10 0 0 -20 0 -20 -9 0 -9 0 -5 -14 -6 -15 14
5 14 6 6 19 6 19 -6 20 -6 20 -10 0 -9 0 0 -10z"/>
<path d="M680 980 l0 -10 10 0 10 0 0 10 0 10 -10 0 -10 0 0 -10z"/>
<path d="M550 940 l0 -10 10 0 10 0 0 10 0 10 -10 0 -10 0 0 -10z"/>
</g>
</svg>
