<?xml version="1.0" standalone="no"?>
<!DOCTYPE svg PUBLIC "-//W3C//DTD SVG 20010904//EN"
 "http://www.w3.org/TR/2001/REC-SVG-20010904/DTD/svg10.dtd">
<svg version="1.0" xmlns="http://www.w3.org/2000/svg"
 width="468pt" height="468pt" viewBox="0 0 468 468"
 preserveAspectRatio="xMidYMid meet">
<metadata>
Created by potrace 1.8, written by Peter Selinger 2001-2007
</metadata>
<g transform="translate(0,468) scale(0.365625,-0.365625)"
fill="#000000" stroke="none">
<path d="M110 1080 l0 -10 -15 0 -15 0 0 -15 0 -15 -15 0 -15 0 0 -15 0 -15
-10 0 -10 0 0 -25 0 -25 -15 0 -15 0 0 -95 0 -95 15 0 15 0 0 -80 0 -80 10 0
10 0 0 -40 0 -40 15 0 15 0 0 -10 0 -10 15 0 15 0 0 -15 0 -15 10 0 10 0 0
-15 0 -15 15 0 15 0 0 -25 0 -25 -25 0 -25 0 0 -15 0 -15 -26 0 -25 0 -15 -14
-14 -15 0 -10 0 -11 -15 0 -15 0 0 -15 0 -15 15 0 15 0 0 -10 0 -10 25 0 25 0
0 10 0 10 15 0 15 0 0 -10 0 -10 25 0 25 0 0 10 0 10 15 0 15 0 0 -10 0 -10
25 0 25 0 0 10 0 10 15 0 15 0 0 -10 0 -10 25 0 25 0 0 10 0 10 15 0 15 0 0
15 0 15 10 0 10 0 0 15 0 15 15 0 15 0 0 -30 0 -30 15 0 15 0 0 -10 0 -10 -15
0 -15 0 0 -15 0 -15 -15 0 -15 0 0 -15 0 -15 15 0 15 0 0 -10 0 -10 25 0 25 0
0 10 0 10 15 0 15 0 0 -10 0 -10 25 0 25 0 0 10 0 10 30 0 30 0 0 15 0 15 10
0 10 0 0 25 0 25 30 0 30 0 0 -25 0 -25 10 0 10 0 0 -15 0 -15 30 0 30 0 0
-10 0 -10 25 0 25 0 0 10 0 10 15 0 15 0 0 -10 0 -10 25 0 25 0 0 10 0 10 15
0 15 0 0 15 0 15 -15 0 -15 0 0 25 0 25 40 0 40 0 0 -10 0 -10 25 0 25 0 0 10
0 10 15 0 15 0 0 -10 0 -10 25 0 25 0 0 10 0 10 15 0 15 0 0 -10 0 -10 25 0
25 0 0 10 0 10 15 0 15 0 0 -10 0 -10 25 0 25 0 0 10 0 10 15 0 15 0 0 15 0
15 -15 0 -15 0 0 11 0 10 -14 15 -15 14 -25 0 -26 0 0 15 0 15 -25 0 -25 0 0
25 0 25 15 0 15 0 0 15 0 15 10 0 10 0 0 15 0 15 15 0 15 0 0 10 0 10 15 0 15
0 0 40 0 40 10 0 10 0 0 80 0 80 15 0 15 0 0 95 0 95 -15 0 -15 0 0 25 0 25
-10 0 -10 0 0 15 0 15 -15 0 -15 0 0 15 0 15 -15 0 -15 0 0 10 0 10 -40 0 -40
0 0 -10 0 -10 -25 0 -25 0 0 -15 0 -15 -15 0 -15 0 0 -11 0 -10 -14 -15 -15
-14 -10 0 -11 0 0 -30 0 -30 -11 0 -10 0 -15 -14 -14 -15 0 -25 0 -26 -30 0
-30 0 0 55 0 55 -10 0 -10 0 0 15 0 15 -15 0 -15 0 0 10 0 10 -51 0 -50 0 -15
-14 -14 -15 0 -10 0 -11 -15 0 -15 0 0 15 0 15 -15 0 -15 0 0 10 0 10 -50 0
-50 0 0 -10 0 -10 -15 0 -15 0 0 -15 0 -15 -15 0 -15 0 0 -40 0 -40 -25 0 -25
0 0 -15 0 -15 -15 0 -15 0 0 26 0 25 -14 15 -15 14 -10 0 -11 0 0 30 0 30 -11
0 -10 0 -15 14 -14 15 0 10 0 11 -15 0 -15 0 0 15 0 15 -25 0 -25 0 0 10 0 10
-40 0 -40 0 0 -10z m80 -25 l0 -15 25 0 25 0 0 -15 0 -15 11 0 10 0 15 -14 14
-15 0 -25 0 -26 15 0 15 0 0 -10 0 -10 15 0 15 0 0 -40 0 -40 -15 0 -15 0 0
-15 0 -15 -25 0 -25 0 0 -15 0 -15 -40 0 -40 0 0 -10 0 -10 -15 0 -15 0 0 -15
0 -15 -25 0 -25 0 0 -15 0 -15 -15 0 -15 0 0 -40 0 -40 -15 0 -15 0 0 80 0 80
-10 0 -10 0 0 95 0 95 10 0 10 0 0 25 0 25 15 0 15 0 0 15 0 15 15 0 15 0 0
15 0 15 40 0 40 0 0 -15z m980 0 l0 -15 15 0 15 0 0 -15 0 -15 15 0 15 0 0
-25 0 -25 10 0 10 0 0 -95 0 -95 -10 0 -10 0 0 -80 0 -80 -15 0 -15 0 0 -40 0
-40 -11 0 -10 0 -15 -14 -14 -15 0 -10 0 -11 -15 0 -15 0 0 -15 0 -15 -15 0
-15 0 0 -10 0 -10 -40 0 -40 0 0 -15 0 -15 -40 0 -40 0 0 15 0 15 15 0 15 0 0
10 0 10 -25 0 -25 0 0 -65 0 -65 -15 0 -15 0 0 -15 0 -15 -15 0 -15 0 0 -25 0
-25 15 0 15 0 0 -15 0 -15 -25 0 -25 0 0 15 0 15 -15 0 -15 0 0 -15 0 -15 -25
0 -25 0 0 15 0 15 10 0 10 0 0 15 0 15 -10 0 -10 0 0 -15 0 -15 -30 0 -30 0 0
25 0 25 30 0 30 0 0 70 0 70 -15 0 -15 0 0 -55 0 -55 -80 0 -80 0 0 55 0 55
-15 0 -15 0 0 -70 0 -70 30 0 30 0 0 -25 0 -25 -30 0 -30 0 0 15 0 15 -10 0
-10 0 0 -15 0 -15 10 0 10 0 0 -15 0 -15 -25 0 -25 0 0 15 0 15 -15 0 -15 0 0
-15 0 -15 -25 0 -25 0 0 15 0 15 15 0 15 0 0 14 0 14 13 6 12 6 -12 6 -13 6 0
29 0 29 -15 0 -15 0 0 10 0 10 -15 0 -15 0 0 30 0 30 -10 0 -10 0 0 25 0 25
-15 0 -15 0 0 -25 0 -25 15 0 15 0 0 -15 0 -15 -40 0 -40 0 0 15 0 15 -40 0
-40 0 0 10 0 10 -15 0 -15 0 0 15 0 15 -15 0 -15 0 0 11 0 10 -14 15 -15 14
-10 0 -11 0 0 30 0 30 15 0 15 0 0 50 0 50 25 0 25 0 0 15 0 15 15 0 15 0 0
-40 0 -40 10 0 10 0 0 -15 0 -15 15 0 15 0 0 -10 0 -10 65 0 65 0 0 -15 0 -15
255 0 255 0 0 15 0 15 65 0 65 0 0 10 0 10 15 0 15 0 0 15 0 15 15 0 15 0 0
40 0 40 25 0 25 0 0 -15 0 -15 15 0 15 0 0 -50 0 -50 -30 0 -30 0 0 -15 0 -15
-25 0 -25 0 0 -15 0 -15 -25 0 -25 0 0 -10 0 -10 -55 0 -55 0 0 -15 0 -15
-200 0 -200 0 0 15 0 15 -25 0 -25 0 0 10 0 10 -40 0 -40 0 0 15 0 15 -80 0
-80 0 0 15 0 15 -40 0 -40 0 0 -15 0 -15 40 0 40 0 0 -15 0 -15 80 0 80 0 0
-10 0 -10 40 0 40 0 0 -15 0 -15 25 0 25 0 0 -15 0 -15 200 0 200 0 0 15 0 15
55 0 55 0 0 15 0 15 25 0 25 0 0 10 0 10 25 0 25 0 0 15 0 15 30 0 30 0 0 15
0 15 10 0 10 0 0 50 0 50 -10 0 -10 0 0 15 0 15 -15 0 -15 0 0 15 0 15 -25 0
-25 0 0 10 0 10 -55 0 -55 0 0 15 0 15 -15 0 -15 0 0 14 0 14 -12 6 -13 6 13
6 12 6 0 29 0 29 15 0 15 0 0 10 0 10 15 0 15 0 0 26 0 25 14 15 15 14 10 0
11 0 0 15 0 15 25 0 25 0 0 15 0 15 40 0 40 0 0 -15z m-560 -80 l0 -15 15 0
15 0 0 -55 0 -55 -15 0 -15 0 0 -10 0 -10 -50 0 -50 0 0 10 0 10 -15 0 -15 0
0 55 0 55 15 0 15 0 0 15 0 15 50 0 50 0 0 -15z m190 0 l0 -15 15 0 15 0 0
-55 0 -55 -15 0 -15 0 0 -10 0 -10 -51 0 -50 0 -15 14 -14 15 0 50 0 51 10 0
10 0 0 15 0 15 55 0 55 0 0 -15z m-320 -135 l0 -10 15 0 15 0 0 -15 0 -15 50
0 50 0 0 15 0 15 15 0 15 0 0 10 0 10 11 0 10 0 15 -14 14 -15 0 -10 0 -11 55
0 55 0 0 15 0 15 14 0 14 0 6 13 6 12 6 -12 6 -13 29 0 29 0 0 -15 0 -15 10 0
10 0 0 -15 0 -15 15 0 15 0 0 -10 0 -10 55 0 55 0 0 -15 0 -15 -15 0 -15 0 0
-15 0 -15 -40 0 -40 0 0 15 0 15 -40 0 -40 0 0 15 0 15 -240 0 -240 0 0 -15 0
-15 -40 0 -40 0 0 -15 0 -15 -55 0 -55 0 0 15 0 15 -10 0 -10 0 0 15 0 15 40
0 40 0 0 10 0 10 25 0 25 0 0 15 0 15 15 0 15 0 0 15 0 15 25 0 25 0 0 10 0
10 40 0 40 0 0 -10z m160 -185 l0 -15 15 0 15 0 0 15 0 15 65 0 65 0 0 -15 0
-15 15 0 15 0 0 -15 0 -15 -30 0 -30 0 0 -10 0 -10 -120 0 -120 0 0 10 0 10
-25 0 -25 0 0 15 0 15 15 0 15 0 0 15 0 15 65 0 65 0 0 -15z m-370 -270 l0
-15 40 0 40 0 0 -25 0 -25 -15 0 -15 0 0 -15 0 -15 -25 0 -25 0 0 30 0 30 -15
0 -15 0 0 -30 0 -30 -25 0 -25 0 0 30 0 30 -15 0 -15 0 0 -30 0 -30 -25 0 -25
0 0 15 0 15 10 0 10 0 0 15 0 15 -10 0 -10 0 0 -15 0 -15 -15 0 -15 0 0 -15 0
-15 -25 0 -25 0 0 15 0 15 10 0 10 0 0 15 0 15 30 0 30 0 0 10 0 10 25 0 25 0
0 15 0 15 55 0 55 0 0 -15z m850 0 l0 -15 25 0 25 0 0 -10 0 -10 30 0 30 0 0
-15 0 -15 10 0 10 0 0 -15 0 -15 -25 0 -25 0 0 15 0 15 -15 0 -15 0 0 15 0 15
-10 0 -10 0 0 -15 0 -15 10 0 10 0 0 -15 0 -15 -25 0 -25 0 0 30 0 30 -15 0
-15 0 0 -30 0 -30 -25 0 -25 0 0 30 0 30 -15 0 -15 0 0 -30 0 -30 -25 0 -25 0
0 15 0 15 -15 0 -15 0 0 25 0 25 40 0 40 0 0 15 0 15 55 0 55 0 0 -15z"/>
<path d="M530 945 l0 -15 -10 0 -10 0 0 -25 0 -25 10 0 10 0 0 -15 0 -15 30 0
30 0 0 15 0 15 10 0 10 0 0 25 0 25 -10 0 -10 0 0 15 0 15 -30 0 -30 0 0 -15z
m60 -25 l0 -10 -15 0 -15 0 0 10 0 10 15 0 15 0 0 -10z"/>
<path d="M720 945 l0 -15 -15 0 -15 0 0 -25 0 -25 15 0 15 0 0 -15 0 -15 25 0
25 0 0 15 0 15 15 0 15 0 0 25 0 25 -14 0 -14 0 -5 -12 -4 -13 -9 9 -9 9 13 4
12 5 0 14 0 14 -25 0 -25 0 0 -15z"/>
</g>
</svg>
