<?xml version="1.0" standalone="no"?>
<!DOCTYPE svg PUBLIC "-//W3C//DTD SVG 20010904//EN"
 "http://www.w3.org/TR/2001/REC-SVG-20010904/DTD/svg10.dtd">
<svg version="1.0" xmlns="http://www.w3.org/2000/svg"
 width="468pt" height="468pt" viewBox="0 0 468 468"
 preserveAspectRatio="xMidYMid meet">
<metadata>
Created by potrace 1.8, written by Peter Selinger 2001-2007
</metadata>
<g transform="translate(0,468) scale(0.365625,-0.365625)"
fill="#000000" stroke="none">
<path d="M300 1020 l0 -100 10 0 10 0 0 -20 0 -20 10 0 10 0 0 -10 0 -10 -19
0 -19 0 -4 12 -5 13 -16 -17 -17 -17 0 -31 0 -31 15 -16 16 -15 7 7 7 8 -12 4
-13 5 0 39 0 39 8 0 8 0 14 -20 14 -20 8 0 8 0 0 19 0 19 13 6 12 6 -12 6 -13
6 0 9 0 9 19 0 19 0 5 -12 4 -13 9 9 9 9 -12 4 -13 5 0 19 0 19 -10 0 -10 0 0
19 0 19 -12 6 -13 6 13 6 12 6 0 39 0 39 6 0 5 0 17 -17 17 -16 -13 -5 -12 -4
0 -39 0 -39 10 0 10 0 0 40 0 40 6 0 5 0 15 -14 14 -15 0 -45 0 -46 9 0 9 0 5
13 5 12 12 -15 12 -15 5 13 5 12 18 0 18 0 5 -12 5 -13 12 15 12 15 5 -12 5
-13 19 0 19 0 0 -10 0 -10 56 0 57 0 20 23 20 22 4 -12 5 -13 28 0 28 0 5 -12
4 -13 8 7 7 7 -15 16 -16 15 -15 0 -16 0 0 10 0 10 20 0 20 0 0 10 0 10 29 0
29 0 6 -12 6 -13 6 13 6 12 19 0 19 0 0 -6 0 -7 -22 -18 -21 -19 6 -6 6 -6 50
51 50 51 15 0 16 0 0 10 0 10 20 0 20 0 0 10 0 10 20 0 20 0 0 10 0 10 -20 0
-20 0 0 -10 0 -10 -20 0 -20 0 0 -10 0 -10 -16 0 -16 0 -28 -30 -28 -30 -6 0
-6 0 0 20 0 20 -10 0 -10 0 0 -10 0 -10 -10 0 -10 0 0 20 0 20 -20 0 -20 0 0
-20 0 -20 -20 0 -20 0 0 -10 0 -10 -28 0 -28 0 -14 -20 -14 -20 -17 0 -17 0
-5 -12 -5 -13 -12 15 -12 15 -5 -12 -5 -13 -29 0 -29 0 0 10 0 10 -19 0 -19 0
-5 13 -5 12 -12 -15 -12 -15 -5 13 -5 12 -18 0 -18 0 -4 -12 -5 -13 -19 19
-19 19 13 5 12 4 0 19 0 19 9 0 9 0 5 -12 4 -13 20 23 20 22 7 0 6 0 0 -19 0
-19 -12 -5 -13 -4 7 -8 7 -7 16 15 15 16 0 11 0 11 25 24 24 25 16 0 15 0 0
10 0 10 -19 0 -19 0 -5 -12 -5 -13 -11 15 -10 14 -21 -24 -21 -24 -9 14 -8 14
-30 -32 -30 -32 -12 0 -12 0 -38 40 -38 40 -26 0 -26 0 0 10 0 10 -10 0 -10 0
0 -100z m40 20 l0 -40 -10 0 -10 0 0 40 0 40 10 0 10 0 0 -40z m260 34 l0 -5
-15 -16 -16 -15 -5 5 -6 6 13 15 14 15 8 1 7 0 0 -6z m-60 -20 l0 -5 -15 -16
-16 -15 -5 5 -6 6 13 15 14 15 8 1 7 0 0 -6z m-200 -104 l0 -30 -10 0 -10 0 0
30 0 30 10 0 10 0 0 -30z"/>
<path d="M760 1114 l0 -5 14 -15 15 -14 45 0 46 0 0 -10 0 -10 20 0 20 0 0
-10 0 -10 20 0 20 0 0 10 0 10 -20 0 -20 0 0 10 0 10 -20 0 -20 0 0 10 0 10
-40 0 -40 0 0 10 0 10 -20 0 -20 0 0 -6z"/>
<path d="M1200 1070 l0 -30 -10 0 -10 0 0 -65 0 -65 -55 -55 -55 -55 -25 0
-25 0 0 -20 0 -20 9 0 9 0 5 13 5 12 11 -15 10 -14 19 22 19 22 37 0 36 0 0
-10 0 -10 -15 0 -16 0 -26 -26 -25 -25 6 -6 6 -6 19 21 18 22 17 0 16 0 0 -10
0 -10 -10 0 -10 0 0 -20 0 -20 30 0 30 0 0 10 0 10 -20 0 -20 0 0 10 0 10 10
0 10 0 0 19 0 19 13 5 12 5 -15 12 -15 12 13 5 12 5 0 9 0 9 -19 0 -19 0 -4
-12 -5 -13 -17 18 -18 17 31 29 31 29 0 66 0 66 10 0 10 0 0 30 0 30 -10 0
-10 0 0 -30z"/>
<path d="M681 1034 l-23 -25 5 -6 6 -5 25 25 26 26 0 6 0 5 -7 -1 -8 0 -24
-25z"/>
<path d="M1053 964 l-53 -54 0 -11 0 -10 15 -15 15 -15 35 35 35 35 0 36 0 35
8 0 8 0 14 -20 14 -20 8 0 8 0 0 30 0 30 -27 -1 -28 0 -52 -55z m27 -19 l0
-16 -25 -24 -24 -25 -6 0 -5 0 0 15 0 16 23 24 22 24 8 0 7 1 0 -15z"/>
<path d="M440 830 l0 -10 10 0 10 0 0 10 0 10 -10 0 -10 0 0 -10z"/>
<path d="M740 830 l0 -10 10 0 10 0 0 10 0 10 -10 0 -10 0 0 -10z"/>
<path d="M500 810 l0 -10 10 0 10 0 0 10 0 10 -10 0 -10 0 0 -10z"/>
<path d="M643 795 l-23 -24 0 -16 0 -15 10 0 10 0 0 -30 0 -30 10 0 10 0 0 20
0 20 10 0 10 0 0 -10 0 -10 20 0 20 0 0 -10 0 -10 20 0 20 0 0 10 0 10 19 0
19 0 6 -12 6 -13 6 13 6 12 18 0 18 0 5 13 5 12 11 -15 10 -14 8 8 8 9 -12 4
-13 5 0 19 0 19 -10 0 -10 0 0 -20 0 -20 -6 0 -6 0 -29 31 -30 32 -6 -7 -6 -6
21 -19 22 -18 0 -7 0 -6 -30 0 -30 0 0 10 0 10 -29 0 -29 0 -6 13 -6 12 -6
-12 -6 -13 -19 0 -19 0 0 18 0 18 20 14 20 14 0 8 0 8 -7 -1 -8 0 -22 -24z"/>
<path d="M363 755 l-43 -45 0 -5 0 -5 40 0 40 0 0 10 0 10 18 0 18 0 14 -20
14 -20 18 0 18 0 0 9 0 9 -12 5 -13 4 7 8 8 8 19 -21 18 -22 7 0 6 0 0 20 0
20 10 0 10 0 0 30 0 30 -10 0 -10 0 0 -30 0 -30 -10 0 -10 0 0 10 0 10 -29 0
-29 0 -6 13 -6 12 -6 -12 -6 -13 -19 0 -19 0 0 20 0 20 10 0 10 0 0 10 0 10
-7 -1 -8 0 -42 -44z"/>
<path d="M260 724 l0 -15 15 -16 16 -15 7 7 7 8 -12 4 -13 5 0 19 0 19 -10 0
-10 0 0 -16z"/>
<path d="M1020 710 l0 -10 30 0 30 0 0 10 0 10 -30 0 -30 0 0 -10z"/>
<path d="M1020 670 l0 -10 20 0 20 0 0 -10 0 -10 -20 0 -20 0 0 -6 0 -5 17
-17 16 -17 5 13 4 12 59 0 59 0 0 10 0 10 -10 0 -10 0 0 10 0 10 20 0 20 0 0
10 0 10 -20 0 -20 0 0 -10 0 -10 -50 0 -50 0 0 10 0 10 -20 0 -20 0 0 -10z"/>
<path d="M300 641 l0 -19 -12 -6 -13 -6 13 -6 12 -6 0 -9 0 -9 -20 0 -20 0 0
10 0 10 -50 0 -50 0 0 -10 0 -10 50 0 50 0 0 -10 0 -10 -40 0 -40 0 0 -10 0
-10 -20 0 -20 0 0 -10 0 -10 -60 0 -60 0 0 10 0 10 20 0 20 0 0 10 0 10 -16 0
-15 0 -15 -15 -15 -15 15 -15 15 -15 55 0 56 0 0 10 0 10 20 0 20 0 0 10 0 10
50 0 50 0 0 10 0 10 50 0 50 0 0 10 0 10 -26 0 -25 0 -16 15 -15 16 7 7 8 7 4
-12 5 -13 19 0 19 0 0 10 0 10 -20 0 -20 0 0 20 0 20 -10 0 -10 0 0 -19z"/>
<path d="M711 604 l-13 -15 7 -7 8 -7 4 13 5 12 39 0 39 0 0 -10 0 -10 -30 0
-30 0 0 -10 0 -10 68 0 68 0 14 -20 14 -20 18 0 18 0 0 -10 0 -10 60 0 60 0 0
20 0 20 19 0 19 0 6 -12 6 -13 6 13 6 12 14 0 15 0 24 25 25 24 0 6 0 5 -30 0
-30 0 0 -10 0 -10 10 0 10 0 0 -10 0 -10 -19 0 -19 0 -6 -12 -6 -13 -6 13 -6
12 -19 0 -19 0 0 10 0 10 30 0 30 0 0 10 0 10 -30 0 -30 0 0 -10 0 -10 -19 0
-19 0 -5 13 -4 12 -9 -8 -8 -8 14 -10 15 -9 -15 -9 -14 -10 8 -8 9 -8 4 13 5
12 19 0 19 0 0 -6 0 -5 -14 -15 -15 -14 -45 0 -46 0 0 10 0 10 -16 0 -15 0
-16 15 -15 16 23 19 22 20 -8 8 -8 7 -4 -12 -5 -13 -28 0 -28 0 -5 -12 -4 -13
-20 23 -20 22 -34 0 -34 -1 -14 -15z"/>
<path d="M480 574 l0 -5 14 -15 15 -14 14 0 15 0 5 -12 4 -13 20 23 20 22 17
0 16 0 0 10 0 10 -70 0 -70 0 0 -6z"/>
<path d="M280 530 l0 -10 -36 0 -35 0 -15 -14 -14 -15 0 -15 0 -16 -10 0 -10
0 0 -20 0 -20 10 0 10 0 0 20 0 20 10 0 10 0 0 20 0 20 40 0 40 0 0 -30 0 -30
10 0 10 0 0 -16 0 -15 60 -59 60 -59 0 -25 0 -24 13 -6 12 -6 -12 -6 -13 -6 0
-19 0 -19 10 0 10 0 0 20 0 20 10 0 10 0 0 -29 0 -29 -12 -6 -13 -6 13 -6 12
-6 0 -14 0 -15 35 -34 34 -35 16 0 15 0 0 -10 0 -10 20 0 20 0 0 10 0 10 -20
0 -20 0 0 10 0 10 -15 0 -16 0 -24 25 -25 24 0 11 0 11 15 16 16 15 7 -6 6 -7
-13 -9 -14 -8 26 -26 26 -26 16 0 15 0 0 20 0 20 10 0 10 0 0 -16 0 -15 14
-15 15 -14 45 0 46 0 0 10 0 10 -10 0 -10 0 0 16 0 15 14 15 15 14 5 0 6 0 0
-20 0 -20 26 0 25 0 15 14 14 15 0 14 0 15 -12 5 -13 4 7 8 7 7 16 -15 15 -16
0 -15 0 -16 10 0 10 0 0 30 0 30 -20 0 -20 0 0 10 0 10 20 0 20 0 0 10 0 10
10 0 10 0 0 -30 0 -30 10 0 10 0 0 29 0 29 -12 6 -13 6 13 6 12 6 0 19 0 19
-10 0 -10 0 0 15 0 16 25 24 24 25 26 0 25 0 0 -20 0 -20 -9 0 -9 0 -5 13 -4
12 -8 -7 -7 -7 18 -18 17 -18 5 13 4 12 19 0 19 0 0 6 0 7 -22 18 -21 19 8 8
8 7 4 -12 5 -13 39 0 39 0 0 20 0 20 -29 0 -29 0 -5 13 -4 12 -20 -23 -20 -22
-17 0 -16 0 0 20 0 20 10 0 10 0 0 20 0 20 20 0 20 0 0 -10 0 -10 28 0 28 0
14 -20 14 -20 14 0 13 0 26 26 25 25 -6 7 -7 6 -10 -14 -9 -15 -11 15 -11 15
-5 -12 -5 -13 -19 0 -19 0 0 10 0 10 -30 0 -30 0 0 10 0 10 -16 0 -15 0 -15
-14 -14 -15 0 -15 0 -16 -10 0 -10 0 0 -25 0 -26 -25 -24 -24 -25 -36 0 -35 0
0 -10 0 -10 -20 0 -20 0 0 -10 0 -10 -30 0 -30 0 0 -10 0 -10 -40 0 -40 0 0
-10 0 -10 -20 0 -20 0 0 10 0 10 -38 0 -38 0 -14 20 -14 20 -18 0 -18 0 0 10
0 10 -15 0 -16 0 -44 45 -45 44 0 16 0 15 -10 0 -10 0 0 40 0 40 30 0 30 0 0
10 0 10 -40 0 -40 0 0 -10z m740 -140 l0 -10 -10 0 -10 0 0 10 0 10 10 0 10 0
0 -10z m-180 -110 l0 -20 -16 0 -16 0 -28 -30 -28 -30 -96 0 -96 0 0 10 0 10
-20 0 -20 0 0 -10 0 -10 20 0 20 0 0 -10 0 -10 96 0 96 0 28 30 28 30 14 0 14
0 14 20 14 20 8 0 8 0 0 -16 0 -15 -14 -15 -15 -14 -11 0 -11 0 -27 -27 -26
-27 12 -4 12 -4 0 -19 0 -19 -20 0 -20 0 0 10 0 10 10 0 10 0 0 10 0 10 -90 0
-90 0 0 -10 0 -10 -20 0 -20 0 0 -20 0 -20 -10 0 -10 0 0 26 0 25 -15 16 -16
15 -19 -23 -20 -22 -8 8 -7 8 13 4 12 5 0 27 0 27 -20 14 -20 14 0 18 0 18 20
0 20 0 0 -10 0 -10 -10 0 -10 0 0 -10 0 -10 60 0 60 0 0 -10 0 -10 20 0 20 0
0 10 0 10 40 0 40 0 0 10 0 10 30 0 30 0 0 10 0 10 30 0 30 0 0 10 0 10 10 0
10 0 0 -20z m-140 -150 l0 -10 -10 0 -10 0 0 -20 0 -20 -30 0 -30 0 0 20 0 20
-10 0 -10 0 0 10 0 10 50 0 50 0 0 -10z"/>
<path d="M1140 514 l0 -5 15 -15 15 -15 15 15 15 15 0 5 0 6 -30 0 -30 0 0 -6z"/>
<path d="M440 454 l0 -5 14 -15 15 -14 15 0 16 0 0 -10 0 -10 20 0 20 0 0 -10
0 -10 30 0 30 0 0 10 0 10 20 0 20 0 0 10 0 10 20 0 20 0 0 10 0 10 -39 0 -39
0 -6 13 -6 12 -6 -12 -6 -13 -18 0 -18 0 -6 13 -6 12 -6 -12 -6 -13 -29 0 -29
0 0 10 0 10 -10 0 -10 0 0 -6z m160 -44 l0 -10 -20 0 -20 0 0 10 0 10 20 0 20
0 0 -10z"/>
<path d="M840 90 l0 -10 -20 0 -20 0 0 -10 0 -10 -20 0 -20 0 0 -10 0 -10 -40
0 -40 0 0 -10 0 -10 40 0 40 0 0 10 0 10 20 0 20 0 0 10 0 10 20 0 20 0 0 10
0 10 20 0 20 0 0 10 0 10 -20 0 -20 0 0 -10z"/>
<path d="M620 30 l0 -10 10 0 10 0 0 10 0 10 -10 0 -10 0 0 -10z"/>
</g>
</svg>
