<?xml version="1.0" standalone="no"?>
<!DOCTYPE svg PUBLIC "-//W3C//DTD SVG 20010904//EN"
 "http://www.w3.org/TR/2001/REC-SVG-20010904/DTD/svg10.dtd">
<svg version="1.0" xmlns="http://www.w3.org/2000/svg"
 width="468pt" height="468pt" viewBox="0 0 468 468"
 preserveAspectRatio="xMidYMid meet">
<metadata>
Created by potrace 1.8, written by Peter Selinger 2001-2007
</metadata>
<g transform="translate(0,468) scale(0.365625,-0.365625)"
fill="#000000" stroke="none">
<path d="M0 950 l0 -330 9 0 9 0 5 13 4 12 8 -7 8 -8 -21 -19 -22 -18 0 -77 0
-76 6 0 5 0 17 17 17 16 -13 5 -12 4 0 9 0 9 20 0 20 0 0 -20 0 -20 10 0 10 0
0 30 0 30 -10 0 -10 0 0 20 0 20 10 0 10 0 0 -20 0 -20 10 0 10 0 0 -26 0 -25
-16 -16 -16 -16 -8 13 -8 13 -26 -26 -26 -26 0 -206 0 -205 640 0 640 0 0 206
0 206 -40 38 -40 38 0 26 0 26 10 0 10 0 0 -30 0 -30 9 0 9 0 5 13 4 12 9 -8
8 -8 -13 -9 -14 -8 17 -17 17 -17 7 6 6 7 -14 10 -15 11 12 5 13 5 0 49 0 49
-9 0 -9 0 -4 -12 -4 -12 -27 26 -27 27 0 16 0 15 10 0 10 0 0 -16 0 -15 15
-15 15 -15 15 15 15 15 0 24 0 25 -12 5 -13 5 15 11 14 10 -23 21 -24 20 8 8
8 7 4 -12 5 -13 9 0 9 0 0 89 0 89 -13 6 -12 6 13 6 12 6 0 179 0 179 -640 0
-640 0 0 -330z m520 240 l0 -10 -10 0 -10 0 0 10 0 10 10 0 10 0 0 -10z m-340
-20 l0 -10 -10 0 -10 0 0 10 0 10 10 0 10 0 0 -10z m480 0 l0 -10 -10 0 -10 0
0 10 0 10 10 0 10 0 0 -10z m460 -20 l0 -10 -10 0 -10 0 0 10 0 10 10 0 10 0
0 -10z m-1020 -60 l0 -10 -10 0 -10 0 0 10 0 10 10 0 10 0 0 -10z m120 -20 l0
-10 -10 0 -10 0 0 10 0 10 10 0 10 0 0 -10z m280 0 l0 -10 -10 0 -10 0 0 10 0
10 10 0 10 0 0 -10z m120 0 l0 -10 -10 0 -10 0 0 10 0 10 10 0 10 0 0 -10z
m100 0 l0 -10 -10 0 -10 0 0 10 0 10 10 0 10 0 0 -10z m-238 -62 l50 -51 8 14
9 13 8 -7 7 -8 -13 -8 -14 -9 58 -57 57 -58 9 14 8 13 8 -7 7 -8 -13 -9 -14
-8 28 -27 27 -28 8 14 9 13 8 -7 7 -8 -13 -9 -14 -8 41 -40 42 -40 0 -12 0
-11 25 -24 24 -25 6 0 5 0 0 69 0 69 -12 6 -13 6 13 6 12 6 0 115 0 114 -14
15 -15 14 -25 0 -26 0 0 10 0 10 100 0 100 0 0 -10 0 -10 -16 0 -15 0 -15 -14
-14 -15 0 -74 0 -75 13 -5 12 -5 -15 -11 -15 -11 15 -11 15 -11 -12 -5 -13 -5
0 -129 0 -129 -66 0 -65 0 -60 61 -59 60 -17 -17 -18 -17 13 -5 12 -4 0 -19 0
-19 9 0 9 0 6 13 6 12 6 -12 6 -13 19 0 19 0 0 -10 0 -10 -19 0 -19 0 -5 13
-5 12 -11 -15 -11 -15 -10 15 -10 15 -10 -15 -10 -15 -10 15 -10 15 -10 -15
-10 -15 -11 15 -11 15 -5 -12 -5 -13 -29 0 -29 0 0 19 0 19 -12 5 -13 5 15 11
15 11 -14 9 -14 9 17 17 17 17 7 -6 6 -7 -14 -10 -15 -9 15 -10 15 -10 -14 -9
-14 -9 16 -16 16 -16 15 0 16 0 0 10 0 10 -10 0 -10 0 0 20 0 20 10 0 10 0 0
-20 0 -20 10 0 10 0 0 20 0 20 10 0 10 0 0 -16 0 -15 14 -15 15 -14 5 0 6 0 0
19 0 19 -12 5 -13 4 23 21 24 21 -26 26 -27 26 -30 -32 -30 -32 -6 6 -6 6 32
30 32 30 -36 37 -37 37 -9 -14 -8 -13 -8 7 -7 8 13 8 14 9 -46 46 -46 46 -6 0
-5 0 0 -159 0 -159 13 -6 12 -6 -12 -6 -13 -6 0 -35 0 -34 14 -15 15 -14 35 0
36 0 0 -10 0 -10 -120 0 -120 0 0 10 0 10 26 0 25 0 15 14 14 15 0 24 0 25
-12 5 -13 5 15 11 15 11 -15 11 -15 11 13 5 12 5 0 195 0 194 -14 15 -15 14
-15 0 -16 0 0 10 0 10 -20 0 -20 0 0 10 0 10 86 0 85 0 51 -52z m278 42 l0
-10 -10 0 -10 0 0 10 0 10 10 0 10 0 0 -10z m340 0 l0 -10 -10 0 -10 0 0 10 0
10 10 0 10 0 0 -10z m-960 -20 l0 -10 -10 0 -10 0 0 10 0 10 10 0 10 0 0 -10z
m420 0 l0 -10 -10 0 -10 0 0 10 0 10 10 0 10 0 0 -10z m480 0 l0 -10 -10 0
-10 0 0 10 0 10 10 0 10 0 0 -10z m120 0 l0 -10 -10 0 -10 0 0 10 0 10 10 0
10 0 0 -10z m40 0 l0 -10 -10 0 -10 0 0 10 0 10 10 0 10 0 0 -10z m-1160 -20
l0 -10 -10 0 -10 0 0 10 0 10 10 0 10 0 0 -10z m160 0 l0 -10 -10 0 -10 0 0
10 0 10 10 0 10 0 0 -10z m480 0 l0 -10 -10 0 -10 0 0 10 0 10 10 0 10 0 0
-10z m-580 -20 l0 -10 -10 0 -10 0 0 10 0 10 10 0 10 0 0 -10z m60 0 l0 -10
-10 0 -10 0 0 10 0 10 10 0 10 0 0 -10z m100 0 l0 -10 -10 0 -10 0 0 10 0 10
10 0 10 0 0 -10z m340 0 l0 -10 -10 0 -10 0 0 10 0 10 10 0 10 0 0 -10z m160
0 l0 -10 -10 0 -10 0 0 10 0 10 10 0 10 0 0 -10z m80 0 l0 -10 -10 0 -10 0 0
10 0 10 10 0 10 0 0 -10z m240 0 l0 -10 -10 0 -10 0 0 10 0 10 10 0 10 0 0
-10z m140 0 l0 -10 -10 0 -10 0 0 10 0 10 10 0 10 0 0 -10z m-920 -20 l0 -10
-10 0 -10 0 0 10 0 10 10 0 10 0 0 -10z m380 0 l0 -10 -10 0 -10 0 0 10 0 10
10 0 10 0 0 -10z m340 0 l0 -10 -10 0 -10 0 0 10 0 10 10 0 10 0 0 -10z m120
0 l0 -10 -10 0 -10 0 0 10 0 10 10 0 10 0 0 -10z m-1060 -20 l0 -10 -10 0 -10
0 0 10 0 10 10 0 10 0 0 -10z m140 0 l0 -10 -10 0 -10 0 0 10 0 10 10 0 10 0
0 -10z m400 0 l0 -10 -10 0 -10 0 0 10 0 10 10 0 10 0 0 -10z m100 0 l0 -10
-10 0 -10 0 0 10 0 10 10 0 10 0 0 -10z m100 0 l0 -10 -10 0 -10 0 0 10 0 10
10 0 10 0 0 -10z m140 0 l0 -10 -10 0 -10 0 0 10 0 10 10 0 10 0 0 -10z m226
-5 l15 -15 -16 -16 -16 -16 -7 6 -6 7 14 10 15 11 -12 5 -13 5 0 9 0 9 6 0 5
0 15 -15z m54 5 l0 -10 -10 0 -10 0 0 10 0 10 10 0 10 0 0 -10z m-1100 -20 l0
-10 -10 0 -10 0 0 10 0 10 10 0 10 0 0 -10z m40 0 l0 -10 -10 0 -10 0 0 10 0
10 10 0 10 0 0 -10z m147 -5 l15 -16 -5 -6 -6 -5 -16 15 -15 16 0 5 0 6 6 0 5
0 16 -15z m333 5 l0 -10 -10 0 -10 0 0 10 0 10 10 0 10 0 0 -10z m120 0 l0
-10 -10 0 -10 0 0 10 0 10 10 0 10 0 0 -10z m240 0 l0 -10 -10 0 -10 0 0 10 0
10 10 0 10 0 0 -10z m40 0 l0 -10 -10 0 -10 0 0 10 0 10 10 0 10 0 0 -10z m80
0 l0 -10 -10 0 -10 0 0 10 0 10 10 0 10 0 0 -10z m-1100 -20 l0 -10 -10 0 -10
0 0 10 0 10 10 0 10 0 0 -10z m60 0 l0 -10 -10 0 -10 0 0 10 0 10 10 0 10 0 0
-10z m120 4 l0 -5 -15 -16 -16 -15 -5 5 -6 6 13 15 14 15 8 1 7 0 0 -6z m47
-9 l15 -16 -5 -6 -6 -5 -16 15 -15 16 0 5 0 6 6 0 5 0 16 -15z m453 5 l0 -10
-10 0 -10 0 0 10 0 10 10 0 10 0 0 -10z m380 5 l0 -6 -26 -26 -25 -25 -6 5 -5
6 23 25 24 25 8 0 7 1 0 -5z m-420 -25 l0 -10 -10 0 -10 0 0 10 0 10 10 0 10
0 0 -10z m100 0 l0 -10 -10 0 -10 0 0 10 0 10 10 0 10 0 0 -10z m60 4 l0 -5
-15 -16 -16 -15 -5 5 -6 6 13 15 14 15 8 1 7 0 0 -6z m120 -4 l0 -10 -10 0
-10 0 0 10 0 10 10 0 10 0 0 -10z m60 0 l0 -10 -10 0 -10 0 0 10 0 10 10 0 10
0 0 -10z m200 0 l0 -10 -10 0 -10 0 0 10 0 10 10 0 10 0 0 -10z m-1180 -20 l0
-10 -10 0 -10 0 0 10 0 10 10 0 10 0 0 -10z m40 0 l0 -10 -10 0 -10 0 0 10 0
10 10 0 10 0 0 -10z m40 0 l0 -10 -10 0 -10 0 0 10 0 10 10 0 10 0 0 -10z
m120 0 l0 -10 -10 0 -10 0 0 10 0 10 10 0 10 0 0 -10z m80 0 l0 -10 -10 0 -10
0 0 10 0 10 10 0 10 0 0 -10z m400 0 l0 -10 -10 0 -10 0 0 10 0 10 10 0 10 0
0 -10z m400 0 l0 -10 -10 0 -10 0 0 10 0 10 10 0 10 0 0 -10z m140 0 l0 -10
-10 0 -10 0 0 10 0 10 10 0 10 0 0 -10z m-1100 -16 l0 -5 -15 -16 -16 -15 -5
5 -6 6 13 15 14 15 8 1 7 0 0 -6z m40 -4 l0 -10 -10 0 -10 0 0 10 0 10 10 0
10 0 0 -10z m580 4 l0 -5 -15 -16 -16 -15 -5 5 -6 6 13 15 14 15 8 1 7 0 0 -6z
m200 -4 l0 -10 -10 0 -10 0 0 10 0 10 10 0 10 0 0 -10z m40 0 l0 -10 -10 0
-10 0 0 10 0 10 10 0 10 0 0 -10z m140 0 l0 -10 -10 0 -10 0 0 10 0 10 10 0
10 0 0 -10z m47 -5 l15 -16 -5 -6 -6 -5 -16 15 -15 16 0 5 0 6 6 0 5 0 16 -15z
m-1167 -15 l0 -10 -10 0 -10 0 0 10 0 10 10 0 10 0 0 -10z m57 -16 l25 -25 -5
-6 -6 -5 -25 25 -26 26 0 6 0 5 5 0 6 0 26 -26z m143 16 l0 -10 -10 0 -10 0 0
10 0 10 10 0 10 0 0 -10z m60 4 l0 -5 -15 -16 -16 -15 -5 5 -6 6 13 15 14 15
8 1 7 0 0 -6z m40 -4 l0 -10 -10 0 -10 0 0 10 0 10 10 0 10 0 0 -10z m120 0
l0 -10 -10 0 -10 0 0 10 0 10 10 0 10 0 0 -10z m260 0 l0 -10 -10 0 -10 0 0
10 0 10 10 0 10 0 0 -10z m340 0 l0 -10 -10 0 -10 0 0 10 0 10 10 0 10 0 0
-10z m60 4 l0 -5 -15 -16 -16 -15 -5 5 -6 6 13 15 14 15 8 1 7 0 0 -6z m140
-4 l0 -10 -10 0 -10 0 0 10 0 10 10 0 10 0 0 -10z m-1060 -20 l0 -10 -10 0
-10 0 0 10 0 10 10 0 10 0 0 -10z m603 -2 l5 -13 11 15 10 14 7 -6 6 -7 -16
-16 -16 -16 -15 15 -15 15 0 5 0 6 9 0 9 0 5 -12z m177 2 l0 -10 -10 0 -10 0
0 10 0 10 10 0 10 0 0 -10z m56 -15 l25 -25 -16 -16 -16 -16 -7 6 -6 7 14 9
14 9 -22 19 -22 19 0 7 0 6 5 0 6 0 25 -25z m151 10 l15 -16 -5 -6 -6 -5 -16
15 -15 16 0 5 0 6 6 0 5 0 16 -15z m-1147 -15 l0 -10 -10 0 -10 0 0 10 0 10
10 0 10 0 0 -10z m120 0 l0 -10 -10 0 -10 0 0 10 0 10 10 0 10 0 0 -10z m80 4
l0 -5 -15 -16 -16 -15 -5 5 -6 6 13 15 14 15 8 1 7 0 0 -6z m87 -9 l15 -16 -5
-6 -6 -5 -16 15 -15 16 0 5 0 6 6 0 5 0 16 -15z m153 9 l0 -5 -15 -16 -16 -15
-5 5 -6 6 13 15 14 15 8 1 7 0 0 -6z m667 -9 l15 -16 -5 -6 -6 -5 -16 15 -15
16 0 5 0 6 6 0 5 0 16 -15z m100 0 l15 -16 -5 -6 -6 -5 -16 15 -15 16 0 5 0 6
6 0 5 0 16 -15z m-1160 -20 l15 -16 -5 -6 -6 -5 -16 15 -15 16 0 5 0 6 6 0 5
0 16 -15z m193 9 l0 -5 -15 -16 -16 -15 -5 5 -6 6 13 15 14 15 8 1 7 0 0 -6z
m500 -4 l0 -10 -10 0 -10 0 0 10 0 10 10 0 10 0 0 -10z m180 0 l0 -10 -10 0
-10 0 0 10 0 10 10 0 10 0 0 -10z m40 0 l0 -10 -10 0 -10 0 0 10 0 10 10 0 10
0 0 -10z m107 -5 l15 -16 -5 -6 -6 -5 -16 15 -15 16 0 5 0 6 6 0 5 0 16 -15z
m-1061 -20 l15 -15 -16 -16 -16 -16 -7 6 -6 7 14 10 15 11 -12 5 -13 5 0 9 0
9 6 0 5 0 15 -15z m94 5 l0 -10 -10 0 -10 0 0 10 0 10 10 0 10 0 0 -10z m40 0
l0 -10 -10 0 -10 0 0 10 0 10 10 0 10 0 0 -10z m320 4 l0 -7 -22 -19 -22 -19
14 -9 14 -9 -6 -7 -7 -6 -16 16 -16 16 23 24 23 25 8 0 7 1 0 -6z m47 -9 l15
-16 -5 -6 -6 -5 -16 15 -15 16 0 5 0 6 6 0 5 0 16 -15z m280 0 l15 -16 -5 -6
-6 -5 -16 15 -15 16 0 5 0 6 6 0 5 0 16 -15z m380 0 l15 -16 -5 -6 -6 -5 -16
15 -15 16 0 5 0 6 6 0 5 0 16 -15z m-987 -15 l0 -10 -10 0 -10 0 0 10 0 10 10
0 10 0 0 -10z m80 0 l0 -10 -10 0 -10 0 0 10 0 10 10 0 10 0 0 -10z m40 0 l0
-10 -10 0 -10 0 0 10 0 10 10 0 10 0 0 -10z m620 0 l0 -10 -10 0 -10 0 0 10 0
10 10 0 10 0 0 -10z m46 -5 l15 -15 -16 -16 -16 -16 -7 6 -6 7 14 10 15 11
-12 5 -13 5 0 9 0 9 6 0 5 0 15 -15z m81 0 l15 -16 -5 -6 -6 -5 -16 15 -15 16
0 5 0 6 6 0 5 0 16 -15z m80 0 l15 -16 -5 -6 -6 -5 -16 15 -15 16 0 5 0 6 6 0
5 0 16 -15z m-1067 -11 l0 -5 -15 -16 -16 -15 -5 5 -6 6 13 15 14 15 8 1 7 0
0 -6z m40 -4 l0 -10 -10 0 -10 0 0 10 0 10 10 0 10 0 0 -10z m40 0 l0 -10 -10
0 -10 0 0 10 0 10 10 0 10 0 0 -10z m80 0 l0 -10 -10 0 -10 0 0 10 0 10 10 0
10 0 0 -10z m260 0 l0 -10 -10 0 -10 0 0 10 0 10 10 0 10 0 0 -10z m-300 -19
l0 -9 -12 -5 -13 -5 15 -11 14 -10 -6 -7 -7 -6 -16 16 -16 16 13 14 13 15 8 1
7 0 0 -9z m80 -1 l0 -10 -10 0 -10 0 0 10 0 10 10 0 10 0 0 -10z m40 0 l0 -10
-10 0 -10 0 0 10 0 10 10 0 10 0 0 -10z m500 0 l0 -10 -10 0 -10 0 0 10 0 10
10 0 10 0 0 -10z m120 0 l0 -10 -10 0 -10 0 0 10 0 10 10 0 10 0 0 -10z m107
-5 l15 -16 -7 -7 -8 -7 -4 13 -5 12 -9 0 -9 0 0 -19 0 -19 13 -5 12 -4 -22
-20 -23 -20 0 -17 0 -16 6 0 7 0 18 22 19 21 8 -8 7 -8 -12 -4 -13 -5 0 -9 0
-9 20 0 20 0 0 -10 0 -10 20 0 20 0 0 6 0 7 -21 18 -21 18 16 17 17 16 7 -6 6
-7 -14 -9 -14 -8 32 -30 32 -30 0 -26 0 -26 -8 0 -8 0 -14 20 -14 20 -17 0
-17 0 -5 -12 -4 -13 -9 9 -9 9 13 4 12 5 0 9 0 9 -19 0 -19 0 -5 -12 -5 -13
-11 15 -11 15 -9 -15 -10 -14 -19 22 -19 22 -7 0 -6 0 0 -20 0 -20 -10 0 -10
0 0 19 0 19 13 6 12 6 -12 6 -13 6 0 19 0 19 10 0 10 0 0 -16 0 -15 14 -15 15
-14 5 0 6 0 0 19 0 19 -12 5 -13 4 8 9 8 8 9 -13 8 -14 19 18 18 18 -13 5 -12
4 0 14 0 15 13 14 12 14 3 1 3 0 16 -15z m73 9 l0 -5 -15 -16 -16 -15 -5 5 -6
6 13 15 14 15 8 1 7 0 0 -6z m100 0 l0 -5 -15 -16 -16 -15 -5 5 -6 6 13 15 14
15 8 1 7 0 0 -6z m-1200 -24 l0 -10 -10 0 -10 0 0 10 0 10 10 0 10 0 0 -10z
m80 5 l0 -6 -26 -26 -25 -25 -6 5 -5 6 23 25 24 25 8 0 7 1 0 -5z m40 -5 l0
-10 -10 0 -10 0 0 10 0 10 10 0 10 0 0 -10z m100 0 l0 -10 -10 0 -10 0 0 10 0
10 10 0 10 0 0 -10z m360 0 l0 -10 -10 0 -10 0 0 10 0 10 10 0 10 0 0 -10z
m560 1 l0 -9 -12 -5 -13 -5 15 -11 14 -10 -6 -7 -7 -6 -16 16 -16 16 13 14 13
15 8 1 7 0 0 -9z m-877 -23 l5 -13 11 15 10 14 7 -6 6 -7 -16 -16 -16 -16 -15
15 -15 15 0 5 0 6 9 0 9 0 5 -12z m157 2 l0 -10 -10 0 -10 0 0 10 0 10 10 0
10 0 0 -10z m500 0 l0 -10 -10 0 -10 0 0 10 0 10 10 0 10 0 0 -10z m40 0 l0
-10 -10 0 -10 0 0 10 0 10 10 0 10 0 0 -10z m-860 -29 l0 -19 13 -5 12 -4 -7
-8 -7 -7 -16 15 -15 16 0 15 0 16 10 0 10 0 0 -19z m40 9 l0 -10 -10 0 -10 0
0 10 0 10 10 0 10 0 0 -10z m87 -5 l15 -15 -31 -29 -31 -29 0 -6 0 -6 16 0 16
0 29 31 29 31 16 -17 17 -17 -14 -10 -14 -10 13 -5 12 -5 0 -9 0 -9 -29 0 -29
0 -6 -12 -6 -13 -6 13 -6 12 -19 0 -19 0 0 10 0 10 -10 0 -10 0 0 -20 0 -20
-20 0 -20 0 0 -10 0 -10 -20 0 -20 0 0 36 0 37 -22 18 -21 19 6 6 6 6 25 -25
26 -26 0 -26 0 -25 6 0 5 0 16 16 16 16 -14 8 -13 9 7 8 8 7 8 -13 9 -14 38
38 38 39 -12 4 -12 4 0 9 0 9 6 0 5 0 16 -15z m833 5 l0 -10 -10 0 -10 0 0 10
0 10 10 0 10 0 0 -10z m160 0 l0 -10 -10 0 -10 0 0 10 0 10 10 0 10 0 0 -10z
m-1040 -16 l0 -5 -15 -16 -16 -15 -5 5 -6 6 13 15 14 15 8 1 7 0 0 -6z m240
-14 l0 -20 10 0 10 0 0 -20 0 -20 -10 0 -10 0 0 20 0 20 -10 0 -10 0 0 20 0
20 10 0 10 0 0 -20z m-400 -6 l0 -5 -15 -16 -16 -15 -5 5 -6 6 13 15 14 15 8
1 7 0 0 -6z m1127 -9 l15 -16 -5 -6 -6 -5 -16 15 -15 16 0 5 0 6 6 0 5 0 16
-15z m-1147 -55 l0 -10 -10 0 -10 0 0 10 0 10 10 0 10 0 0 -10z m1220 0 l0
-10 -10 0 -10 0 0 10 0 10 10 0 10 0 0 -10z"/>
<path d="M580 590 l0 -10 10 0 10 0 0 10 0 10 -10 0 -10 0 0 -10z"/>
<path d="M1000 550 l0 -10 10 0 10 0 0 10 0 10 -10 0 -10 0 0 -10z"/>
<path d="M1040 550 l0 -10 10 0 10 0 0 10 0 10 -10 0 -10 0 0 -10z"/>
<path d="M1140 530 l0 -10 10 0 10 0 0 10 0 10 -10 0 -10 0 0 -10z"/>
<path d="M281 554 l-23 -25 5 -6 6 -5 25 25 26 26 0 6 0 5 -7 -1 -8 0 -24 -25z"/>
</g>
</svg>
