<?xml version="1.0" standalone="no"?>
<!DOCTYPE svg PUBLIC "-//W3C//DTD SVG 20010904//EN"
 "http://www.w3.org/TR/2001/REC-SVG-20010904/DTD/svg10.dtd">
<svg version="1.0" xmlns="http://www.w3.org/2000/svg"
 width="468pt" height="468pt" viewBox="0 0 468 468"
 preserveAspectRatio="xMidYMid meet">
<metadata>
Created by potrace 1.8, written by Peter Selinger 2001-2007
</metadata>
<g transform="translate(0,468) scale(0.365625,-0.365625)"
fill="#000000" stroke="none">
<path d="M0 1200 l0 -80 25 0 25 0 0 -135 0 -135 30 0 30 0 0 -160 0 -160 -30
0 -30 0 0 -185 0 -185 -25 0 -25 0 0 -80 0 -80 25 0 25 0 0 55 0 55 215 0 215
0 0 -30 0 -30 55 0 55 0 0 -25 0 -25 345 0 345 0 0 640 0 640 -375 0 -375 0 0
-25 0 -25 -80 0 -80 0 0 -30 0 -30 -160 0 -160 0 0 55 0 55 -25 0 -25 0 0 -80z
m640 0 l0 -30 25 0 25 0 0 -50 0 -50 -50 0 -50 0 0 -30 0 -30 80 0 80 0 0 -25
0 -25 -110 0 -110 0 0 -25 0 -25 -210 0 -210 0 0 105 0 105 130 0 130 0 0 25
0 25 80 0 80 0 0 30 0 30 55 0 55 0 0 -30z m50 -370 l0 -80 30 0 30 0 0 -30 0
-30 25 0 25 0 0 -80 0 -80 -25 0 -25 0 0 -25 0 -25 -240 0 -240 0 0 -25 0 -25
240 0 240 0 0 -30 0 -30 25 0 25 0 0 -80 0 -80 -25 0 -25 0 0 -25 0 -25 -30 0
-30 0 0 -25 0 -25 -80 0 -80 0 0 25 0 25 -80 0 -80 0 0 25 0 25 -50 0 -50 0 0
-25 0 -25 -80 0 -80 0 0 160 0 160 80 0 80 0 0 25 0 25 -55 0 -55 0 0 80 0 80
80 0 80 0 0 30 0 30 -80 0 -80 0 0 50 0 50 135 0 135 0 0 -25 0 -25 25 0 25 0
0 25 0 25 55 0 55 0 0 30 0 30 50 0 50 0 0 -80z"/>
<path d="M370 1095 l0 -25 110 0 110 0 0 25 0 25 -110 0 -110 0 0 -25z"/>
<path d="M210 985 l0 -25 30 0 30 0 0 25 0 25 -30 0 -30 0 0 -25z"/>
<path d="M430 985 l0 -25 25 0 25 0 0 25 0 25 -25 0 -25 0 0 -25z"/>
<path d="M590 825 l0 -25 25 0 25 0 0 25 0 25 -25 0 -25 0 0 -25z"/>
<path d="M320 775 l0 -25 55 0 55 0 0 25 0 25 -55 0 -55 0 0 -25z"/>
<path d="M480 775 l0 -25 25 0 25 0 0 25 0 25 -25 0 -25 0 0 -25z"/>
<path d="M590 720 l0 -30 -55 0 -55 0 0 -25 0 -25 -55 0 -55 0 0 -25 0 -25
-50 0 -50 0 0 25 0 25 -30 0 -30 0 0 -25 0 -25 30 0 30 0 0 -30 0 -30 50 0 50
0 0 30 0 30 55 0 55 0 0 25 0 25 55 0 55 0 0 25 0 25 50 0 50 0 0 30 0 30 -50
0 -50 0 0 -30z"/>
<path d="M640 615 l0 -25 25 0 25 0 0 25 0 25 -25 0 -25 0 0 -25z"/>
<path d="M530 560 l0 -30 30 0 30 0 0 30 0 30 -30 0 -30 0 0 -30z"/>
<path d="M160 345 l0 -25 25 0 25 0 0 25 0 25 -25 0 -25 0 0 -25z"/>
<path d="M320 345 l0 -25 25 0 25 0 0 25 0 25 -25 0 -25 0 0 -25z"/>
<path d="M430 345 l0 -25 25 0 25 0 0 25 0 25 -25 0 -25 0 0 -25z"/>
<path d="M640 345 l0 -25 -55 0 -55 0 0 -25 0 -25 -80 0 -80 0 0 -30 0 -30 80
0 80 0 0 30 0 30 55 0 55 0 0 25 0 25 55 0 55 0 0 25 0 25 -55 0 -55 0 0 -25z"/>
<path d="M210 240 l0 -30 30 0 30 0 0 30 0 30 -30 0 -30 0 0 -30z"/>
<path d="M690 240 l0 -30 30 0 30 0 0 30 0 30 -30 0 -30 0 0 -30z"/>
<path d="M160 1255 l0 -25 25 0 25 0 0 25 0 25 -25 0 -25 0 0 -25z"/>
<path d="M160 25 l0 -25 25 0 25 0 0 25 0 25 -25 0 -25 0 0 -25z"/>
<path d="M370 25 l0 -25 30 0 30 0 0 25 0 25 -30 0 -30 0 0 -25z"/>
</g>
</svg>
