<?xml version="1.0" standalone="no"?>
<!DOCTYPE svg PUBLIC "-//W3C//DTD SVG 20010904//EN"
 "http://www.w3.org/TR/2001/REC-SVG-20010904/DTD/svg10.dtd">
<svg version="1.0" xmlns="http://www.w3.org/2000/svg"
 width="468pt" height="468pt" viewBox="0 0 468 468"
 preserveAspectRatio="xMidYMid meet">
<metadata>
Created by potrace 1.8, written by Peter Selinger 2001-2007
</metadata>
<g transform="translate(0,468) scale(0.365625,-0.365625)"
fill="#000000" stroke="none">
<path d="M120 1160 l0 -60 60 0 60 0 0 -150 0 -150 50 0 50 0 0 150 0 150 60
0 60 0 0 60 0 60 -170 0 -170 0 0 -60z"/>
<path d="M700 1211 l0 -9 13 -6 12 -6 -12 -6 -13 -6 0 -18 0 -18 13 -5 12 -4
-9 -9 -9 -9 -4 13 -5 12 -9 0 -9 0 0 -36 0 -36 -30 -28 -30 -28 0 -62 0 -63
23 -20 22 -20 -12 -4 -13 -5 0 -28 0 -28 13 -5 12 -4 -22 -20 -23 -20 0 -47 0
-46 10 0 10 0 0 -60 0 -60 10 0 10 0 0 -130 0 -130 10 0 10 0 0 59 0 59 13 6
12 6 -12 6 -13 6 0 39 0 39 10 0 10 0 0 28 0 28 20 14 20 14 0 8 0 8 -30 0
-30 0 0 -9 0 -9 12 -4 13 -5 -17 -16 -17 -17 -5 0 -6 0 0 29 0 29 13 6 12 6
-12 6 -13 6 0 18 0 18 13 5 12 4 -9 9 -9 9 -4 -12 -5 -13 -9 0 -9 0 0 50 0 50
10 0 10 0 0 -16 0 -15 14 -15 15 -14 12 0 12 0 18 -22 19 -21 7 7 7 7 -14 9
-14 9 22 19 22 19 0 17 0 16 -10 0 -10 0 0 -20 0 -20 -40 0 -40 0 0 20 0 20
26 0 27 0 19 22 19 22 9 -14 9 -14 8 8 8 9 -12 4 -13 5 0 29 0 29 5 0 6 0 26
-26 26 -26 -14 -10 -14 -10 13 -5 12 -5 0 -37 0 -37 -20 -14 -20 -14 0 -14 0
-13 14 -15 15 -14 41 0 41 0 15 14 14 15 0 13 0 14 -20 14 -20 14 0 78 0 78
10 0 10 0 0 -16 0 -15 14 -15 15 -14 41 0 41 0 15 14 14 15 0 11 0 11 -14 15
-15 14 -44 0 -45 0 -5 -12 -5 -13 -10 14 -10 14 -16 -16 -16 -16 0 -72 0 -72
21 -18 21 -18 -15 -16 -16 -15 -21 0 -21 0 -16 15 -15 16 21 18 21 18 0 52 0
52 -36 36 -36 36 -8 -14 -9 -13 -19 22 -19 22 -26 0 -25 0 -6 13 -6 12 -6 -12
-6 -13 -9 0 -9 0 0 70 0 70 30 0 30 0 0 9 0 9 -12 4 -13 5 17 16 17 17 11 0
11 0 17 17 17 16 -13 5 -12 4 0 9 0 9 19 0 19 0 6 -12 6 -13 6 13 6 12 19 0
19 0 0 -20 0 -20 10 0 10 0 0 20 0 20 40 0 40 0 0 -30 0 -30 10 0 10 0 0 30 0
30 6 0 7 0 18 -22 19 -21 7 7 7 7 -14 9 -14 9 6 7 7 6 18 -18 18 -17 -13 -5
-12 -4 0 -29 0 -29 -10 0 -10 0 0 -20 0 -20 6 0 5 0 15 14 14 15 0 15 0 16 10
0 10 0 0 -19 0 -19 -12 -6 -13 -6 13 -6 12 -6 0 -19 0 -19 -20 0 -20 0 0 -10
0 -10 -20 0 -20 0 0 -10 0 -10 -20 0 -20 0 0 -10 0 -10 -20 0 -20 0 0 -10 0
-10 20 0 20 0 0 10 0 10 40 0 40 0 0 -10 0 -10 16 0 15 0 15 -14 14 -15 0 -35
0 -36 -10 0 -10 0 0 -20 0 -20 -10 0 -10 0 0 -20 0 -20 -19 0 -19 0 -5 -12 -5
-13 -11 15 -10 14 -7 -6 -6 -7 15 -16 16 -15 15 0 16 0 0 -6 0 -7 -22 -18 -21
-19 21 -19 22 -18 0 -16 0 -15 13 -6 12 -6 -12 -6 -13 -6 0 -27 0 -27 -20 -14
-20 -14 0 -34 0 -33 -25 -24 -24 -25 -26 0 -25 0 0 10 0 10 -20 0 -20 0 0 -10
0 -10 -35 0 -36 0 -27 27 -26 27 12 4 12 4 0 19 0 19 -10 0 -10 0 0 20 0 20
-10 0 -10 0 0 -20 0 -20 10 0 10 0 0 -19 0 -19 -12 -4 -12 -4 37 -37 36 -37
36 0 35 0 0 10 0 10 20 0 20 0 0 -10 0 -10 38 0 38 0 14 20 14 20 17 0 17 0 5
13 4 12 9 -9 9 -9 -12 -4 -13 -5 0 -39 0 -39 20 0 20 0 0 130 0 130 10 0 10 0
0 60 0 60 10 0 10 0 0 30 0 30 10 0 10 0 0 90 0 90 -10 0 -10 0 0 59 0 59 -12
6 -13 6 13 6 12 6 0 99 0 99 -9 0 -9 0 -6 -12 -6 -13 -6 13 -6 12 -9 0 -9 0 0
-20 0 -20 10 0 10 0 0 -20 0 -20 -10 0 -10 0 0 20 0 20 -10 0 -10 0 0 20 0 20
-10 0 -10 0 0 -20 0 -20 -10 0 -10 0 0 20 0 20 -9 0 -9 0 -6 -12 -6 -13 -6 13
-6 12 -9 0 -9 0 0 -20 0 -20 -10 0 -10 0 0 20 0 20 -9 0 -9 0 -5 -12 -5 -13
-11 15 -11 15 -11 -15 -11 -15 -5 13 -5 12 -9 0 -9 0 0 -30 0 -30 -10 0 -10 0
0 30 0 30 -10 0 -10 0 0 -20 0 -20 -10 0 -10 0 0 20 0 20 -20 0 -20 0 0 -9z
m380 -101 l0 -10 -10 0 -10 0 0 10 0 10 10 0 10 0 0 -10z m-400 -240 l0 -10
26 0 25 0 15 -14 14 -15 0 -21 0 -21 -14 -15 -15 -14 -24 0 -25 0 -5 -12 -4
-13 -9 8 -8 8 14 10 15 11 -12 5 -13 5 0 28 0 28 13 6 12 6 -12 6 -13 6 0 9 0
9 10 0 10 0 0 -10z m360 -50 l0 -20 -50 0 -50 0 0 20 0 20 50 0 50 0 0 -20z
m40 -150 l0 -10 -20 0 -20 0 0 10 0 10 20 0 20 0 0 -10z m-40 -60 l0 -10 -10
0 -10 0 0 10 0 10 10 0 10 0 0 -10z m0 -196 l0 -5 -15 -16 -16 -15 -5 5 -6 6
13 15 14 15 8 1 7 0 0 -6z"/>
<path d="M692 824 l-13 -14 15 -16 16 -15 16 15 15 16 -15 15 -15 15 -3 0 -3
-1 -13 -15z"/>
<path d="M880 1110 l0 -10 20 0 20 0 0 10 0 10 -20 0 -20 0 0 -10z"/>
<path d="M740 1050 l0 -10 10 0 10 0 0 10 0 10 -10 0 -10 0 0 -10z"/>
<path d="M780 1050 l0 -10 10 0 10 0 0 10 0 10 -10 0 -10 0 0 -10z"/>
<path d="M711 1004 l-13 -15 6 -6 5 -5 16 15 15 16 0 5 0 6 -7 0 -8 -1 -14
-15z"/>
<path d="M660 950 l0 -10 20 0 20 0 0 -10 0 -10 20 0 20 0 0 -10 0 -10 20 0
20 0 0 -10 0 -10 20 0 20 0 0 10 0 10 -20 0 -20 0 0 10 0 10 -20 0 -20 0 0 10
0 10 -20 0 -20 0 0 10 0 10 -20 0 -20 0 0 -10z"/>
<path d="M183 715 l-43 -45 0 -45 0 -45 40 0 40 0 0 15 0 16 25 24 24 25 21 0
21 0 15 -14 14 -15 0 -31 0 -31 -100 -99 -100 -99 0 -46 0 -45 150 0 150 0 0
50 0 50 -70 0 -70 0 0 5 0 6 70 69 70 69 0 71 0 71 -45 44 -44 45 -63 -1 -63
0 -42 -44z"/>
<path d="M700 620 l0 -20 30 0 30 0 0 10 0 10 -20 0 -20 0 0 10 0 10 -10 0
-10 0 0 -20z"/>
<path d="M780 530 l0 -10 -20 0 -20 0 0 -20 0 -20 8 0 8 0 14 20 14 20 76 0
76 0 14 -20 14 -20 8 0 8 0 0 20 0 20 -20 0 -20 0 0 10 0 10 -80 0 -80 0 0
-10z"/>
<path d="M840 430 l0 -10 20 0 20 0 0 10 0 10 -20 0 -20 0 0 -10z"/>
<path d="M0 100 l0 -100 640 0 640 0 0 100 0 100 -640 0 -640 0 0 -100z"/>
</g>
</svg>
