<?xml version="1.0" standalone="no"?>
<!DOCTYPE svg PUBLIC "-//W3C//DTD SVG 20010904//EN"
 "http://www.w3.org/TR/2001/REC-SVG-20010904/DTD/svg10.dtd">
<svg version="1.0" xmlns="http://www.w3.org/2000/svg"
 width="468pt" height="468pt" viewBox="0 0 468 468"
 preserveAspectRatio="xMidYMid meet">
<metadata>
Created by potrace 1.8, written by Peter Selinger 2001-2007
</metadata>
<g transform="translate(0,468) scale(0.365625,-0.365625)"
fill="#000000" stroke="none">
<path d="M80 1080 l0 -120 280 0 280 0 0 120 0 120 -280 0 -280 0 0 -120z"/>
<path d="M720 920 l0 -280 120 0 120 0 0 280 0 280 -120 0 -120 0 0 -280z"/>
<path d="M1040 920 l0 -280 120 0 120 0 0 280 0 280 -120 0 -120 0 0 -280z"/>
<path d="M80 760 l0 -120 280 0 280 0 0 120 0 120 -280 0 -280 0 0 -120z"/>
<path d="M80 280 l0 -280 120 0 120 0 0 280 0 280 -120 0 -120 0 0 -280z"/>
<path d="M400 280 l0 -280 120 0 120 0 0 280 0 280 -120 0 -120 0 0 -280z"/>
<path d="M720 440 l0 -120 280 0 280 0 0 120 0 120 -280 0 -280 0 0 -120z"/>
<path d="M720 120 l0 -120 280 0 280 0 0 120 0 120 -280 0 -280 0 0 -120z"/>
</g>
</svg>
