<?xml version="1.0" standalone="no"?>
<!DOCTYPE svg PUBLIC "-//W3C//DTD SVG 20010904//EN"
 "http://www.w3.org/TR/2001/REC-SVG-20010904/DTD/svg10.dtd">
<svg version="1.0" xmlns="http://www.w3.org/2000/svg"
 width="468pt" height="468pt" viewBox="0 0 468 468"
 preserveAspectRatio="xMidYMid meet">
<metadata>
Created by potrace 1.8, written by Peter Selinger 2001-2007
</metadata>
<g transform="translate(0,468) scale(0.365625,-0.365625)"
fill="#000000" stroke="none">
<path d="M0 1185 l0 -95 40 0 40 0 0 15 0 15 15 0 15 0 0 65 0 65 -15 0 -15 0
0 15 0 15 -40 0 -40 0 0 -95z m80 0 l0 -65 -25 0 -25 0 0 65 0 65 25 0 25 0 0
-65z"/>
<path d="M640 1240 l0 -10 -15 0 -15 0 0 -15 0 -15 -10 0 -10 0 0 -14 0 -14
13 -6 12 -6 -12 -6 -13 -6 0 -14 0 -14 10 0 10 0 0 15 0 15 15 0 15 0 0 10 0
10 14 0 14 0 6 -12 6 -13 6 13 6 12 14 0 14 0 0 -10 0 -10 14 0 14 0 6 13 6
12 6 -12 6 -13 14 0 14 0 0 10 0 10 11 0 10 0 15 -14 14 -15 0 -10 0 -11 15 0
15 0 0 -15 0 -15 11 0 10 0 15 -14 14 -15 0 -10 0 -11 15 0 15 0 0 -15 0 -15
15 0 15 0 0 15 0 15 -15 0 -15 0 0 15 0 15 15 0 15 0 0 10 0 10 -15 0 -15 0 0
15 0 15 15 0 15 0 0 15 0 15 -15 0 -15 0 0 10 0 10 -15 0 -15 0 0 15 0 15 -10
0 -10 0 0 15 0 15 -15 0 -15 0 0 -15 0 -15 -15 0 -15 0 0 11 0 10 -14 15 -15
14 -10 0 -11 0 0 -10 0 -10 -14 0 -14 0 -6 13 -6 12 -6 -12 -6 -13 -14 0 -14
0 0 10 0 10 -14 0 -14 0 -6 -12 -6 -13 -6 13 -6 12 -14 0 -14 0 0 -10z m30
-25 l0 -15 10 0 10 0 0 15 0 15 15 0 15 0 0 -15 0 -15 15 0 15 0 0 15 0 15 10
0 10 0 0 -15 0 -15 15 0 15 0 0 15 0 15 15 0 15 0 0 -15 0 -15 10 0 10 0 0
-15 0 -15 15 0 15 0 0 15 0 15 15 0 15 0 0 -11 0 -10 14 -15 15 -14 10 0 11 0
0 -15 0 -15 -15 0 -15 0 0 -15 0 -15 15 0 15 0 0 -10 0 -10 -11 0 -10 0 -15
14 -14 15 0 10 0 11 -15 0 -15 0 0 15 0 15 -11 0 -10 0 -15 14 -14 15 0 10 0
11 -15 0 -15 0 0 -15 0 -15 -15 0 -15 0 0 15 0 15 -10 0 -10 0 0 -15 0 -15
-15 0 -15 0 0 15 0 15 -15 0 -15 0 0 -15 0 -15 -10 0 -10 0 0 15 0 15 -15 0
-15 0 0 -15 0 -15 -15 0 -15 0 0 15 0 15 15 0 15 0 0 15 0 15 15 0 15 0 0 -15z"/>
<path d="M880 1160 l0 -10 15 0 15 0 0 -15 0 -15 10 0 10 0 0 11 0 10 -14 15
-15 14 -10 0 -11 0 0 -10z"/>
<path d="M130 1145 l0 -55 15 0 15 0 0 30 0 30 15 0 15 0 0 10 0 10 25 0 25 0
0 15 0 15 -55 0 -55 0 0 -55z"/>
<path d="M430 1135 l0 -15 -15 0 -15 0 0 -25 0 -25 15 0 15 0 0 -15 0 -15 25
0 25 0 0 -25 0 -25 -25 0 -25 0 0 10 0 10 -15 0 -15 0 0 -10 0 -10 15 0 15 0
0 -15 0 -15 25 0 25 0 0 15 0 15 15 0 15 0 0 25 0 25 -15 0 -15 0 0 15 0 15
-25 0 -25 0 0 25 0 25 25 0 25 0 0 -15 0 -15 15 0 15 0 0 15 0 15 -15 0 -15 0
0 15 0 15 -25 0 -25 0 0 -15z"/>
<path d="M270 1014 l0 -75 14 -15 15 -14 21 0 21 0 15 14 14 15 0 75 0 76 -10
0 -10 0 0 -80 0 -80 -30 0 -30 0 0 80 0 80 -10 0 -10 0 0 -76z"/>
<path d="M590 1065 l0 -25 10 0 10 0 0 -14 0 -14 -12 -6 -13 -6 13 -6 12 -6 0
-14 0 -14 -10 0 -10 0 0 -15 0 -15 10 0 10 0 0 15 0 15 15 0 15 0 0 15 0 15
15 0 15 0 0 -15 0 -15 10 0 10 0 0 15 0 15 15 0 15 0 0 -15 0 -15 15 0 15 0 0
15 0 15 -15 0 -15 0 0 10 0 10 15 0 15 0 0 15 0 15 10 0 10 0 0 -15 0 -15 15
0 15 0 0 -10 0 -10 -15 0 -15 0 0 -15 0 -15 15 0 15 0 0 -15 0 -15 11 0 10 0
15 -14 14 -15 0 -10 0 -11 15 0 15 0 0 -25 0 -25 15 0 15 0 0 25 0 25 10 0 10
0 0 15 0 15 15 0 15 0 0 10 0 10 -15 0 -15 0 0 15 0 15 -10 0 -10 0 0 15 0 15
-15 0 -15 0 0 10 0 10 -15 0 -15 0 0 15 0 15 -10 0 -10 0 0 15 0 15 -15 0 -15
0 0 -15 0 -15 -15 0 -15 0 0 15 0 15 -10 0 -10 0 0 -15 0 -15 -15 0 -15 0 0
15 0 15 -15 0 -15 0 0 -15 0 -15 -10 0 -10 0 0 15 0 15 -15 0 -15 0 0 -15 0
-15 -15 0 -15 0 0 25 0 25 -10 0 -10 0 0 -25z m80 -40 l0 -15 10 0 10 0 0 15
0 15 15 0 15 0 0 -15 0 -15 -14 0 -14 0 -6 -12 -6 -13 -6 13 -6 12 -14 0 -14
0 0 -10 0 -10 -15 0 -15 0 0 10 0 10 15 0 15 0 0 15 0 15 15 0 15 0 0 -15z
m160 4 l0 -10 14 -15 15 -14 10 0 11 0 0 -15 0 -15 15 0 15 0 0 -14 0 -14 13
-6 12 -6 -12 -6 -13 -6 0 -14 0 -14 -15 0 -15 0 0 15 0 15 -11 0 -10 0 -15 14
-14 15 0 10 0 11 -15 0 -15 0 0 15 0 15 15 0 15 0 0 -15 0 -15 10 0 10 0 0 11
0 10 -14 15 -15 14 -10 0 -11 0 0 15 0 15 15 0 15 0 0 -11z"/>
<path d="M850 945 l0 -15 15 0 15 0 0 -10 0 -10 15 0 15 0 0 10 0 10 -15 0
-15 0 0 15 0 15 -15 0 -15 0 0 -15z"/>
<path d="M30 1025 l0 -15 -15 0 -15 0 0 -25 0 -25 15 0 15 0 0 -15 0 -15 25 0
25 0 0 -25 0 -25 -25 0 -25 0 0 15 0 15 -15 0 -15 0 0 -15 0 -15 15 0 15 0 0
-15 0 -15 25 0 25 0 0 15 0 15 15 0 15 0 0 25 0 25 -15 0 -15 0 0 15 0 15 -25
0 -25 0 0 25 0 25 25 0 25 0 0 -10 0 -10 15 0 15 0 0 10 0 10 -15 0 -15 0 0
15 0 15 -25 0 -25 0 0 -15z"/>
<path d="M130 945 l0 -95 55 0 55 0 0 15 0 15 -40 0 -40 0 0 25 0 25 25 0 25
0 0 15 0 15 -25 0 -25 0 0 25 0 25 40 0 40 0 0 15 0 15 -55 0 -55 0 0 -95z"/>
<path d="M750 1000 l0 -10 10 0 10 0 0 10 0 10 -10 0 -10 0 0 -10z"/>
<path d="M960 975 l0 -15 15 0 15 0 0 15 0 15 -15 0 -15 0 0 -15z"/>
<path d="M590 895 l0 -15 -30 0 -30 0 0 -15 0 -15 30 0 30 0 0 -10 0 -10 40 0
40 0 0 -15 0 -15 10 0 10 0 0 15 0 15 15 0 15 0 0 -15 0 -15 15 0 15 0 0 -11
0 -10 14 -15 15 -14 10 0 11 0 0 -15 0 -15 15 0 15 0 0 -11 0 -10 14 -15 15
-14 10 0 11 0 0 -40 0 -40 -11 0 -10 0 -15 14 -14 15 0 10 0 11 -15 0 -15 0 0
15 0 15 -15 0 -15 0 0 36 0 35 -14 15 -15 14 -10 0 -11 0 0 -10 0 -10 -15 0
-15 0 0 -15 0 -15 -10 0 -10 0 0 -15 0 -15 -15 0 -15 0 0 -10 0 -10 15 0 15 0
0 -15 0 -15 10 0 10 0 0 15 0 15 15 0 15 0 0 10 0 10 15 0 15 0 0 -25 0 -25
10 0 10 0 0 -40 0 -40 -40 0 -40 0 0 -14 0 -14 -12 -5 -13 -4 9 -9 9 -9 4 13
5 12 39 0 39 0 0 -10 0 -10 15 0 15 0 0 10 0 10 15 0 15 0 0 15 0 15 -15 0
-15 0 0 25 0 25 11 0 10 0 15 -14 14 -15 0 -10 0 -11 15 0 15 0 0 15 0 15 15
0 15 0 0 40 0 40 -15 0 -15 0 0 10 0 10 -15 0 -15 0 0 15 0 15 -10 0 -10 0 0
11 0 10 14 15 15 14 10 0 11 0 0 15 0 15 -15 0 -15 0 0 -11 0 -10 -14 -15 -15
-14 -10 0 -11 0 0 10 0 10 15 0 15 0 0 15 0 15 -15 0 -15 0 0 15 0 15 15 0 15
0 0 10 0 10 -15 0 -15 0 0 15 0 15 -15 0 -15 0 0 -15 0 -15 15 0 15 0 0 -10 0
-10 -15 0 -15 0 0 -15 0 -15 -10 0 -10 0 0 15 0 15 -15 0 -15 0 0 10 0 10 15
0 15 0 0 15 0 15 -15 0 -15 0 0 15 0 15 -15 0 -15 0 0 -15 0 -15 -10 0 -10 0
0 15 0 15 -15 0 -15 0 0 -15 0 -15 -15 0 -15 0 0 15 0 15 -10 0 -10 0 0 -15z
m20 -30 l0 -15 -10 0 -10 0 0 15 0 15 10 0 10 0 0 -15z m60 0 l0 -15 10 0 10
0 0 15 0 15 15 0 15 0 0 -15 0 -15 -14 0 -14 0 -6 -12 -6 -13 -6 13 -6 12 -14
0 -14 0 0 15 0 15 15 0 15 0 0 -15z m130 -80 l0 -15 -15 0 -15 0 0 15 0 15 15
0 15 0 0 -15z m-80 -80 l0 -15 -14 0 -14 0 -5 -12 -4 -13 -9 9 -9 9 13 4 12 5
0 14 0 14 15 0 15 0 0 -15z"/>
<path d="M430 865 l0 -15 10 0 10 0 0 15 0 15 -10 0 -10 0 0 -15z"/>
<path d="M480 865 l0 -15 15 0 15 0 0 15 0 15 -15 0 -15 0 0 -15z"/>
<path d="M320 840 l0 -10 15 0 15 0 0 10 0 10 -15 0 -15 0 0 -10z"/>
<path d="M370 840 l0 -10 15 0 15 0 0 10 0 10 -15 0 -15 0 0 -10z"/>
<path d="M750 840 l0 -10 10 0 10 0 0 10 0 10 -10 0 -10 0 0 -10z"/>
<path d="M270 815 l0 -15 -15 0 -15 0 0 -15 0 -15 15 0 15 0 0 15 0 15 10 0
10 0 0 15 0 15 -10 0 -10 0 0 -15z"/>
<path d="M350 786 l0 -14 13 -6 12 -6 -12 -6 -13 -6 0 -14 0 -14 -15 0 -15 0
0 -55 0 -55 -11 0 -10 0 -15 -14 -14 -15 0 -10 0 -11 -15 0 -15 0 0 -15 0 -15
-40 0 -40 0 0 -10 0 -10 40 0 40 0 0 -30 0 -30 -15 0 -15 0 0 -10 0 -10 -25 0
-25 0 0 -15 0 -15 25 0 25 0 0 15 0 15 40 0 40 0 0 -15 0 -15 15 0 15 0 0 -15
0 -15 15 0 15 0 0 -10 0 -10 40 0 40 0 0 -55 0 -55 -15 0 -15 0 0 -25 0 -25
-14 0 -14 0 -6 13 -6 12 -6 -12 -6 -13 -14 0 -14 0 0 10 0 10 -15 0 -15 0 0
15 0 15 -10 0 -10 0 0 -15 0 -15 -15 0 -15 0 0 15 0 15 -15 0 -15 0 0 11 0 10
-14 15 -15 14 -10 0 -11 0 0 -10 0 -10 -14 0 -14 0 -6 13 -6 12 -6 -12 -6 -13
-14 0 -14 0 0 -15 0 -15 15 0 15 0 0 -14 0 -14 13 -6 12 -6 -12 -6 -13 -6 0
-14 0 -14 10 0 10 0 0 -15 0 -15 15 0 15 0 0 -10 0 -10 15 0 15 0 0 -15 0 -15
10 0 10 0 0 15 0 15 15 0 15 0 0 -15 0 -15 15 0 15 0 0 11 0 10 14 15 15 14
10 0 11 0 0 15 0 15 15 0 15 0 0 -25 0 -25 -15 0 -15 0 0 -30 0 -30 -11 0 -10
0 -15 -14 -14 -15 0 -10 0 -11 40 0 40 0 0 11 0 10 14 15 15 14 10 0 11 0 0
15 0 15 -15 0 -15 0 0 15 0 15 30 0 30 0 0 -15 0 -15 10 0 10 0 0 -11 0 -10
-14 -15 -15 -14 -10 0 -11 0 0 -15 0 -15 15 0 15 0 0 11 0 10 14 15 15 14 10
0 11 0 0 -10 0 -10 -15 0 -15 0 0 -15 0 -15 15 0 15 0 0 15 0 15 15 0 15 0 0
-15 0 -15 10 0 10 0 0 11 0 10 -14 15 -15 14 -10 0 -11 0 0 15 0 15 15 0 15 0
0 15 0 15 10 0 10 0 0 25 0 25 15 0 15 0 0 15 0 15 -15 0 -15 0 0 -15 0 -15
-10 0 -10 0 0 -15 0 -15 -15 0 -15 0 0 -25 0 -25 -15 0 -15 0 0 25 0 25 -10 0
-10 0 0 15 0 15 -15 0 -15 0 0 -15 0 -15 -15 0 -15 0 0 15 0 15 -10 0 -10 0 0
15 0 15 10 0 10 0 0 -15 0 -15 15 0 15 0 0 15 0 15 15 0 15 0 0 -15 0 -15 10
0 10 0 0 -15 0 -15 15 0 15 0 0 15 0 15 15 0 15 0 0 11 0 10 14 15 15 14 10 0
11 0 0 -10 0 -10 11 0 10 0 15 14 14 15 0 50 0 51 15 0 15 0 0 15 0 15 11 0
10 0 15 14 14 15 0 10 0 11 15 0 15 0 0 15 0 15 11 0 10 0 15 14 14 15 0 25 0
26 -10 0 -10 0 0 -15 0 -15 -15 0 -15 0 0 -15 0 -15 -15 0 -15 0 0 15 0 15
-10 0 -10 0 0 -14 0 -14 13 -6 12 -6 -12 -6 -13 -6 0 -14 0 -14 -30 0 -30 0 0
-15 0 -15 -25 0 -25 0 0 -10 0 -10 15 0 15 0 0 -15 0 -15 -15 0 -15 0 0 -15 0
-15 15 0 15 0 0 -10 0 -10 -15 0 -15 0 0 -15 0 -15 -15 0 -15 0 0 15 0 15 15
0 15 0 0 10 0 10 -15 0 -15 0 0 15 0 15 -10 0 -10 0 0 -14 0 -14 13 -6 12 -6
-12 -6 -13 -6 0 -14 0 -14 10 0 10 0 0 -11 0 -10 -14 -15 -15 -14 -35 0 -36 0
0 25 0 25 10 0 10 0 0 51 0 50 -14 15 -15 14 -35 0 -36 0 0 15 0 15 65 0 65 0
0 15 0 15 25 0 25 0 0 10 0 10 15 0 15 0 0 15 0 15 25 0 25 0 0 11 0 10 -14
15 -15 14 -10 0 -11 0 0 -25 0 -25 -15 0 -15 0 0 -15 0 -15 -25 0 -25 0 0 -10
0 -10 -91 0 -90 0 -15 14 -14 15 0 25 0 26 -15 0 -15 0 0 10 0 10 11 0 10 0
15 -14 14 -15 0 -10 0 -11 15 0 15 0 0 15 0 15 -11 0 -10 0 -15 14 -14 15 0
10 0 11 10 0 10 0 0 15 0 15 15 0 15 0 0 10 0 10 15 0 15 0 0 40 0 40 10 0 10
0 0 15 0 15 15 0 15 0 0 25 0 25 15 0 15 0 0 15 0 15 -40 0 -40 0 0 -14z
m-220 -531 l0 -15 15 0 15 0 0 15 0 15 15 0 15 0 0 -15 0 -15 10 0 10 0 0 -15
0 -15 15 0 15 0 0 -10 0 -10 14 0 14 0 6 13 6 12 6 -12 6 -13 14 0 14 0 0 -15
0 -15 -15 0 -15 0 0 -11 0 -10 -14 -15 -15 -14 -10 0 -11 0 0 10 0 10 -14 0
-14 0 -6 -12 -6 -13 -6 13 -6 12 -14 0 -14 0 0 15 0 15 -15 0 -15 0 0 15 0 15
15 0 15 0 0 10 0 10 -15 0 -15 0 0 15 0 15 -10 0 -10 0 0 15 0 15 10 0 10 0 0
-15z"/>
<path d="M160 225 l0 -15 11 0 10 0 15 -14 14 -15 0 -10 0 -11 -10 0 -10 0 0
15 0 15 -15 0 -15 0 0 -15 0 -15 15 0 15 0 0 -15 0 -15 10 0 10 0 0 15 0 15
15 0 15 0 0 -15 0 -15 15 0 15 0 0 15 0 15 10 0 10 0 0 15 0 15 -10 0 -10 0 0
-15 0 -15 -15 0 -15 0 0 15 0 15 -11 0 -10 0 -15 14 -14 15 0 10 0 11 -15 0
-15 0 0 -15z"/>
<path d="M450 785 l0 -15 80 0 80 0 0 15 0 15 -80 0 -80 0 0 -15z"/>
<path d="M210 745 l0 -25 30 0 30 0 0 15 0 15 -15 0 -15 0 0 10 0 10 -15 0
-15 0 0 -25z"/>
<path d="M290 760 l0 -10 30 0 30 0 0 10 0 10 -30 0 -30 0 0 -10z"/>
<path d="M640 760 l0 -10 15 0 15 0 0 10 0 10 -15 0 -15 0 0 -10z"/>
<path d="M400 705 l0 -15 -15 0 -15 0 0 -10 0 -10 15 0 15 0 0 -30 0 -30 25 0
25 0 0 30 0 30 30 0 30 0 0 -30 0 -30 25 0 25 0 0 30 0 30 15 0 15 0 0 10 0
10 -15 0 -15 0 0 15 0 15 -25 0 -25 0 0 -15 0 -15 -30 0 -30 0 0 15 0 15 -25
0 -25 0 0 -15z m50 -25 l0 -10 -25 0 -25 0 0 10 0 10 25 0 25 0 0 -10z m110 0
l0 -10 -25 0 -25 0 0 10 0 10 25 0 25 0 0 -10z"/>
<path d="M720 625 l0 -15 15 0 15 0 0 15 0 15 -15 0 -15 0 0 -15z"/>
<path d="M370 505 l0 -55 15 0 15 0 0 30 0 30 15 0 15 0 0 25 0 25 -30 0 -30
0 0 -55z"/>
<path d="M510 545 l0 -15 10 0 10 0 0 15 0 15 -10 0 -10 0 0 -15z"/>
<path d="M480 495 l0 -15 15 0 15 0 0 15 0 15 -15 0 -15 0 0 -15z"/>
<path d="M800 495 l0 -15 15 0 15 0 0 15 0 15 -15 0 -15 0 0 -15z"/>
<path d="M960 495 l0 -15 -15 0 -15 0 0 -40 0 -40 15 0 15 0 0 -15 0 -15 25 0
25 0 0 15 0 15 -25 0 -25 0 0 40 0 40 25 0 25 0 0 15 0 15 -25 0 -25 0 0 -15z"/>
<path d="M1070 495 l0 -15 -15 0 -15 0 0 -55 0 -55 15 0 15 0 0 30 0 30 25 0
25 0 0 -30 0 -30 15 0 15 0 0 55 0 55 -15 0 -15 0 0 15 0 15 -25 0 -25 0 0
-15z m50 -30 l0 -15 -25 0 -25 0 0 15 0 15 25 0 25 0 0 -15z"/>
<path d="M1170 495 l0 -15 15 0 15 0 0 -55 0 -55 15 0 15 0 0 55 0 55 10 0 10
0 0 15 0 15 -40 0 -40 0 0 -15z"/>
<path d="M560 415 l0 -15 15 0 15 0 0 15 0 15 -15 0 -15 0 0 -15z"/>
<path d="M510 360 l0 -10 10 0 10 0 0 10 0 10 -10 0 -10 0 0 -10z"/>
<path d="M930 280 l0 -70 15 0 15 0 0 70 0 70 -15 0 -15 0 0 -70z"/>
<path d="M990 280 l0 -70 10 0 10 0 0 40 0 40 15 0 15 0 0 -10 0 -10 15 0 15
0 0 -15 0 -15 10 0 10 0 0 -15 0 -15 15 0 15 0 0 70 0 70 -15 0 -15 0 0 -40 0
-40 -10 0 -10 0 0 10 0 10 -15 0 -15 0 0 15 0 15 -15 0 -15 0 0 15 0 15 -10 0
-10 0 0 -70z"/>
<path d="M1200 335 l0 -15 -15 0 -15 0 0 -55 0 -55 15 0 15 0 0 30 0 30 25 0
25 0 0 -30 0 -30 15 0 15 0 0 55 0 55 -15 0 -15 0 0 15 0 15 -25 0 -25 0 0
-15z m50 -30 l0 -15 -25 0 -25 0 0 15 0 15 25 0 25 0 0 -15z"/>
<path d="M770 309 l0 -10 -14 -15 -15 -14 -10 0 -11 0 0 -15 0 -15 -15 0 -15
0 0 -15 0 -15 15 0 15 0 0 -10 0 -10 -15 0 -15 0 0 -15 0 -15 -10 0 -10 0 0
15 0 15 -15 0 -15 0 0 10 0 10 15 0 15 0 0 15 0 15 -15 0 -15 0 0 -15 0 -15
-11 0 -10 0 -15 -14 -14 -15 0 -10 0 -11 -15 0 -15 0 0 -15 0 -15 15 0 15 0 0
-10 0 -10 -15 0 -15 0 0 -15 0 -15 15 0 15 0 0 -15 0 -15 -15 0 -15 0 0 -10 0
-10 15 0 15 0 0 10 0 10 10 0 10 0 0 -25 0 -25 30 0 30 0 0 25 0 25 -15 0 -15
0 0 15 0 15 -15 0 -15 0 0 25 0 25 15 0 15 0 0 -10 0 -10 14 0 14 0 6 13 6 12
6 -13 6 -12 14 0 14 0 0 10 0 10 14 0 14 0 6 -12 6 -13 6 13 6 12 14 0 14 0 0
15 0 15 15 0 15 0 0 15 0 15 -15 0 -15 0 0 10 0 10 15 0 15 0 0 15 0 15 10 0
10 0 0 14 0 14 -12 6 -13 6 13 6 12 6 0 14 0 14 -10 0 -10 0 0 -15 0 -15 -15
0 -15 0 0 15 0 15 -15 0 -15 0 0 -11z m30 -29 l0 -10 15 0 15 0 0 -15 0 -15
-15 0 -15 0 0 -15 0 -15 -15 0 -15 0 0 15 0 15 -10 0 -10 0 0 -15 0 -15 -15 0
-15 0 0 15 0 15 15 0 15 0 0 10 0 11 13 14 12 14 13 1 12 0 0 -10z m-30 -80
l0 -10 15 0 15 0 0 -15 0 -15 -15 0 -15 0 0 -15 0 -15 -10 0 -10 0 0 15 0 15
-15 0 -15 0 0 -15 0 -15 -15 0 -15 0 0 15 0 15 15 0 15 0 0 15 0 15 15 0 15 0
0 10 0 10 10 0 10 0 0 -10z m-130 -25 l0 -15 15 0 15 0 0 -15 0 -15 -15 0 -15
0 0 15 0 15 -15 0 -15 0 0 15 0 15 15 0 15 0 0 -15z"/>
<path d="M770 255 l0 -15 15 0 15 0 0 15 0 15 -15 0 -15 0 0 -15z"/>
<path d="M750 175 l0 -15 10 0 10 0 0 15 0 15 -10 0 -10 0 0 -15z"/>
<path d="M670 200 l0 -10 10 0 10 0 0 10 0 10 -10 0 -10 0 0 -10z"/>
<path d="M930 120 l0 -70 15 0 15 0 0 30 0 30 25 0 25 0 0 -30 0 -30 15 0 15
0 0 70 0 70 -15 0 -15 0 0 -30 0 -30 -25 0 -25 0 0 30 0 30 -15 0 -15 0 0 -70z"/>
<path d="M1090 175 l0 -15 -10 0 -10 0 0 -55 0 -55 10 0 10 0 0 30 0 30 30 0
30 0 0 -30 0 -30 10 0 10 0 0 55 0 55 -10 0 -10 0 0 15 0 15 -30 0 -30 0 0
-15z m60 -30 l0 -15 -30 0 -30 0 0 15 0 15 30 0 30 0 0 -15z"/>
<path d="M1200 175 l0 -15 15 0 15 0 0 -55 0 -55 10 0 10 0 0 55 0 55 15 0 15
0 0 15 0 15 -40 0 -40 0 0 -15z"/>
</g>
</svg>
