<?xml version="1.0" standalone="no"?>
<!DOCTYPE svg PUBLIC "-//W3C//DTD SVG 20010904//EN"
 "http://www.w3.org/TR/2001/REC-SVG-20010904/DTD/svg10.dtd">
<svg version="1.0" xmlns="http://www.w3.org/2000/svg"
 width="468pt" height="468pt" viewBox="0 0 468 468"
 preserveAspectRatio="xMidYMid meet">
<metadata>
Created by potrace 1.8, written by Peter Selinger 2001-2007
</metadata>
<g transform="translate(0,468) scale(0.365625,-0.365625)"
fill="#000000" stroke="none">
<path d="M0 1161 l0 -119 13 -6 12 -6 -13 -6 -12 -6 0 -28 0 -28 13 -6 12 -6
-13 -6 -12 -6 0 -28 0 -28 13 -6 12 -6 -13 -6 -12 -6 0 -28 0 -28 13 -6 12 -6
-13 -6 -12 -6 0 -28 0 -28 13 -6 12 -6 -12 -6 -13 -6 0 -308 0 -308 13 -6 12
-6 -12 -6 -13 -6 0 -29 0 -29 29 0 29 0 6 13 6 12 6 -12 6 -13 28 0 28 0 6 13
6 12 6 -12 6 -13 228 0 228 0 6 13 6 12 6 -12 6 -13 28 0 28 0 6 13 6 12 6
-12 6 -13 68 0 68 0 6 13 6 12 6 -12 6 -13 28 0 28 0 6 13 6 12 6 -12 6 -13
28 0 28 0 6 13 6 12 6 -12 6 -13 28 0 28 0 6 13 6 12 6 -12 6 -13 28 0 28 0 6
13 6 12 6 -12 6 -13 39 0 39 0 0 199 0 199 -13 6 -12 6 13 6 12 6 0 108 0 108
-12 6 -13 6 12 6 13 6 0 28 0 28 -12 6 -13 6 12 6 13 6 0 28 0 28 -12 6 -13 6
13 6 12 6 0 28 0 28 -12 6 -13 6 12 6 13 6 0 28 0 28 -12 6 -13 6 13 6 12 6 0
28 0 28 -12 6 -13 6 13 6 12 6 0 109 0 109 -29 0 -29 0 -6 -12 -6 -13 -6 13
-6 12 -28 0 -28 0 -6 -12 -6 -13 -6 13 -6 12 -28 0 -28 0 -6 -12 -6 -13 -6 13
-6 12 -28 0 -28 0 -6 -12 -6 -13 -6 13 -6 12 -28 0 -28 0 -6 -12 -6 -13 -6 13
-6 12 -68 0 -68 0 -6 -12 -6 -13 -6 13 -6 12 -28 0 -28 0 -6 -12 -6 -13 -6 13
-6 12 -319 0 -319 0 0 -119z m620 89 l0 -10 -10 0 -10 0 0 10 0 10 10 0 10 0
0 -10z m80 4 l0 -5 -15 -16 -16 -15 -5 5 -6 6 13 15 14 15 8 1 7 0 0 -6z m80
0 l0 -5 -15 -16 -16 -15 -5 5 -6 6 13 15 14 15 8 1 7 0 0 -6z m80 -4 l0 -10
-10 0 -10 0 0 10 0 10 10 0 10 0 0 -10z m80 4 l0 -5 -15 -16 -16 -15 -5 5 -6
6 13 15 14 15 8 1 7 0 0 -6z m80 0 l0 -5 -15 -16 -16 -15 -5 5 -6 6 13 15 14
15 8 1 7 0 0 -6z m80 0 l0 -5 -15 -16 -16 -15 -5 5 -6 6 13 15 14 15 8 1 7 0
0 -6z m80 0 l0 -5 -15 -16 -16 -15 -5 5 -6 6 13 15 14 15 8 1 7 0 0 -6z m-820
-24 l0 -10 -10 0 -10 0 0 10 0 10 10 0 10 0 0 -10z m-33 -25 l15 -16 -5 -6 -6
-5 -16 15 -15 16 0 5 0 6 6 0 5 0 16 -15z m80 0 l15 -16 -5 -6 -6 -5 -16 15
-15 16 0 5 0 6 6 0 5 0 16 -15z m233 5 l0 -10 -10 0 -10 0 0 10 0 10 10 0 10
0 0 -10z m80 0 l0 -10 -10 0 -10 0 0 10 0 10 10 0 10 0 0 -10z m167 -5 l15
-16 -5 -6 -6 -5 -16 15 -15 16 0 5 0 6 6 0 5 0 16 -15z m80 0 l15 -16 -5 -6
-6 -5 -16 15 -15 16 0 5 0 6 6 0 5 0 16 -15z m80 0 l15 -16 -5 -6 -6 -5 -16
15 -15 16 0 5 0 6 6 0 5 0 16 -15z m80 0 l15 -16 -5 -6 -6 -5 -16 15 -15 16 0
5 0 6 6 0 5 0 16 -15z m73 5 l0 -10 -10 0 -10 0 0 10 0 10 10 0 10 0 0 -10z
m-940 -20 l0 -10 -10 0 -10 0 0 10 0 10 10 0 10 0 0 -10z m40 -16 l0 -5 -15
-16 -16 -15 -5 5 -6 6 13 15 14 15 8 1 7 0 0 -6z m80 0 l0 -5 -15 -16 -16 -15
-5 5 -6 6 13 15 14 15 8 1 7 0 0 -6z m80 0 l0 -5 -15 -16 -16 -15 -5 5 -6 6
13 15 14 15 8 1 7 0 0 -6z m480 0 l0 -5 -15 -16 -16 -15 -5 5 -6 6 13 15 14
15 8 1 7 0 0 -6z m80 0 l0 -5 -15 -16 -16 -15 -5 5 -6 6 13 15 14 15 8 1 7 0
0 -6z m80 0 l0 -5 -15 -16 -16 -15 -5 5 -6 6 13 15 14 15 8 1 7 0 0 -6z m80 0
l0 -5 -15 -16 -16 -15 -5 5 -6 6 13 15 14 15 8 1 7 0 0 -6z m-933 -49 l15 -16
-5 -6 -6 -5 -16 15 -15 16 0 5 0 6 6 0 5 0 16 -15z m80 0 l15 -16 -5 -6 -6 -5
-16 15 -15 16 0 5 0 6 6 0 5 0 16 -15z m80 0 l15 -16 -5 -6 -6 -5 -16 15 -15
16 0 5 0 6 6 0 5 0 16 -15z m80 0 l15 -16 -5 -6 -6 -5 -16 15 -15 16 0 5 0 6
6 0 5 0 16 -15z m480 0 l15 -16 -5 -6 -6 -5 -16 15 -15 16 0 5 0 6 6 0 5 0 16
-15z m80 0 l15 -16 -5 -6 -6 -5 -16 15 -15 16 0 5 0 6 6 0 5 0 16 -15z m73 5
l0 -10 -10 0 -10 0 0 10 0 10 10 0 10 0 0 -10z m-460 -20 l0 -10 -10 0 -10 0
0 10 0 10 10 0 10 0 0 -10z m80 0 l0 -10 -10 0 -10 0 0 10 0 10 10 0 10 0 0
-10z m-680 -16 l0 -5 -15 -16 -16 -15 -5 5 -6 6 13 15 14 15 8 1 7 0 0 -6z
m160 -4 l0 -10 -10 0 -10 0 0 10 0 10 10 0 10 0 0 -10z m80 4 l0 -5 -15 -16
-16 -15 -5 5 -6 6 13 15 14 15 8 1 7 0 0 -6z m80 0 l0 -5 -15 -16 -16 -15 -5
5 -6 6 13 15 14 15 8 1 7 0 0 -6z m80 0 l0 -5 -15 -16 -16 -15 -5 5 -6 6 13
15 14 15 8 1 7 0 0 -6z m160 0 l0 -5 -15 -16 -16 -15 -5 5 -6 6 13 15 14 15 8
1 7 0 0 -6z m80 0 l0 -5 -15 -16 -16 -15 -5 5 -6 6 13 15 14 15 8 1 7 0 0 -6z
m80 0 l0 -5 -15 -16 -16 -15 -5 5 -6 6 13 15 14 15 8 1 7 0 0 -6z m240 -4 l0
-10 -10 0 -10 0 0 10 0 10 10 0 10 0 0 -10z m240 4 l0 -5 -15 -16 -16 -15 -5
5 -6 6 13 15 14 15 8 1 7 0 0 -6z m-1140 -24 l0 -10 -10 0 -10 0 0 10 0 10 10
0 10 0 0 -10z m-33 -25 l15 -16 -5 -6 -6 -5 -16 15 -15 16 0 5 0 6 6 0 5 0 16
-15z m160 0 l15 -16 -5 -6 -6 -5 -16 15 -15 16 0 5 0 6 6 0 5 0 16 -15z m80 0
l15 -16 -5 -6 -6 -5 -16 15 -15 16 0 5 0 6 6 0 5 0 16 -15z m80 0 l15 -16 -5
-6 -6 -5 -16 15 -15 16 0 5 0 6 6 0 5 0 16 -15z m73 5 l0 -10 -10 0 -10 0 0
10 0 10 10 0 10 0 0 -10z m167 -5 l15 -16 -5 -6 -6 -5 -16 15 -15 16 0 5 0 6
6 0 5 0 16 -15z m80 0 l15 -16 -5 -6 -6 -5 -16 15 -15 16 0 5 0 6 6 0 5 0 16
-15z m80 0 l15 -16 -5 -6 -6 -5 -16 15 -15 16 0 5 0 6 6 0 5 0 16 -15z m400 0
l15 -16 -5 -6 -6 -5 -16 15 -15 16 0 5 0 6 6 0 5 0 16 -15z m-1027 -15 l0 -10
-10 0 -10 0 0 10 0 10 10 0 10 0 0 -10z m400 0 l0 -10 -10 0 -10 0 0 10 0 10
10 0 10 0 0 -10z m560 0 l0 -10 -10 0 -10 0 0 10 0 10 10 0 10 0 0 -10z
m-1080 -16 l0 -5 -15 -16 -16 -15 -5 5 -6 6 13 15 14 15 8 1 7 0 0 -6z m80 0
l0 -5 -15 -16 -16 -15 -5 5 -6 6 13 15 14 15 8 1 7 0 0 -6z m160 0 l0 -5 -15
-16 -16 -15 -5 5 -6 6 13 15 14 15 8 1 7 0 0 -6z m80 0 l0 -5 -15 -16 -16 -15
-5 5 -6 6 13 15 14 15 8 1 7 0 0 -6z m80 0 l0 -5 -15 -16 -16 -15 -5 5 -6 6
13 15 14 15 8 1 7 0 0 -6z m160 0 l0 -5 -15 -16 -16 -15 -5 5 -6 6 13 15 14
15 8 1 7 0 0 -6z m80 0 l0 -5 -15 -16 -16 -15 -5 5 -6 6 13 15 14 15 8 1 7 0
0 -6z m80 0 l0 -5 -15 -16 -16 -15 -5 5 -6 6 13 15 14 15 8 1 7 0 0 -6z m400
0 l0 -5 -15 -16 -16 -15 -5 5 -6 6 13 15 14 15 8 1 7 0 0 -6z m80 0 l0 -5 -15
-16 -16 -15 -5 5 -6 6 13 15 14 15 8 1 7 0 0 -6z m-1060 -24 l0 -10 -10 0 -10
0 0 10 0 10 10 0 10 0 0 -10z m640 0 l0 -10 -10 0 -10 0 0 10 0 10 10 0 10 0
0 -10z m-753 -25 l15 -16 -5 -6 -6 -5 -16 15 -15 16 0 5 0 6 6 0 5 0 16 -15z
m80 0 l15 -16 -5 -6 -6 -5 -16 15 -15 16 0 5 0 6 6 0 5 0 16 -15z m160 0 l15
-16 -5 -6 -6 -5 -16 15 -15 16 0 5 0 6 6 0 5 0 16 -15z m73 5 l0 -10 -10 0
-10 0 0 10 0 10 10 0 10 0 0 -10z m167 -5 l15 -16 -5 -6 -6 -5 -16 15 -15 16
0 5 0 6 6 0 5 0 16 -15z m80 0 l15 -16 -5 -6 -6 -5 -16 15 -15 16 0 5 0 6 6 0
5 0 16 -15z m80 0 l15 -16 -5 -6 -6 -5 -16 15 -15 16 0 5 0 6 6 0 5 0 16 -15z
m80 0 l15 -16 -5 -6 -6 -5 -16 15 -15 16 0 5 0 6 6 0 5 0 16 -15z m320 0 l15
-16 -5 -6 -6 -5 -16 15 -15 16 0 5 0 6 6 0 5 0 16 -15z m80 0 l15 -16 -5 -6
-6 -5 -16 15 -15 16 0 5 0 6 6 0 5 0 16 -15z m-1147 -31 l0 -5 -15 -16 -16
-15 -5 5 -6 6 13 15 14 15 8 1 7 0 0 -6z m80 0 l0 -5 -15 -16 -16 -15 -5 5 -6
6 13 15 14 15 8 1 7 0 0 -6z m80 0 l0 -5 -15 -16 -16 -15 -5 5 -6 6 13 15 14
15 8 1 7 0 0 -6z m320 -4 l0 -10 -10 0 -10 0 0 10 0 10 10 0 10 0 0 -10z m80
4 l0 -5 -15 -16 -16 -15 -5 5 -6 6 13 15 14 15 8 1 7 0 0 -6z m80 0 l0 -5 -15
-16 -16 -15 -5 5 -6 6 13 15 14 15 8 1 7 0 0 -6z m80 0 l0 -5 -15 -16 -16 -15
-5 5 -6 6 13 15 14 15 8 1 7 0 0 -6z m80 0 l0 -5 -15 -16 -16 -15 -5 5 -6 6
13 15 14 15 8 1 7 0 0 -6z m240 0 l0 -5 -15 -16 -16 -15 -5 5 -6 6 13 15 14
15 8 1 7 0 0 -6z m80 0 l0 -5 -15 -16 -16 -15 -5 5 -6 6 13 15 14 15 8 1 7 0
0 -6z m80 0 l0 -5 -15 -16 -16 -15 -5 5 -6 6 13 15 14 15 8 1 7 0 0 -6z
m-1173 -49 l15 -16 -5 -6 -6 -5 -16 15 -15 16 0 5 0 6 6 0 5 0 16 -15z m80 0
l15 -16 -5 -6 -6 -5 -16 15 -15 16 0 5 0 6 6 0 5 0 16 -15z m73 5 l0 -10 -10
0 -10 0 0 10 0 10 10 0 10 0 0 -10z m167 -5 l15 -16 -5 -6 -6 -5 -16 15 -15
16 0 5 0 6 6 0 5 0 16 -15z m160 0 l15 -16 -5 -6 -6 -5 -16 15 -15 16 0 5 0 6
6 0 5 0 16 -15z m80 0 l15 -16 -5 -6 -6 -5 -16 15 -15 16 0 5 0 6 6 0 5 0 16
-15z m80 0 l15 -16 -5 -6 -6 -5 -16 15 -15 16 0 5 0 6 6 0 5 0 16 -15z m80 0
l15 -16 -5 -6 -6 -5 -16 15 -15 16 0 5 0 6 6 0 5 0 16 -15z m320 0 l15 -16 -5
-6 -6 -5 -16 15 -15 16 0 5 0 6 6 0 5 0 16 -15z m80 0 l15 -16 -5 -6 -6 -5
-16 15 -15 16 0 5 0 6 6 0 5 0 16 -15z m-867 -15 l0 -10 -10 0 -10 0 0 10 0
10 10 0 10 0 0 -10z m720 0 l0 -10 -10 0 -10 0 0 10 0 10 10 0 10 0 0 -10z
m-1000 -16 l0 -5 -15 -16 -16 -15 -5 5 -6 6 13 15 14 15 8 1 7 0 0 -6z m80 0
l0 -5 -15 -16 -16 -15 -5 5 -6 6 13 15 14 15 8 1 7 0 0 -6z m80 0 l0 -5 -15
-16 -16 -15 -5 5 -6 6 13 15 14 15 8 1 7 0 0 -6z m80 -4 l0 -10 -10 0 -10 0 0
10 0 10 10 0 10 0 0 -10z m80 4 l0 -5 -15 -16 -16 -15 -5 5 -6 6 13 15 14 15
8 1 7 0 0 -6z m80 0 l0 -5 -15 -16 -16 -15 -5 5 -6 6 13 15 14 15 8 1 7 0 0
-6z m160 0 l0 -5 -15 -16 -16 -15 -5 5 -6 6 13 15 14 15 8 1 7 0 0 -6z m80 0
l0 -5 -15 -16 -16 -15 -5 5 -6 6 13 15 14 15 8 1 7 0 0 -6z m80 0 l0 -5 -15
-16 -16 -15 -5 5 -6 6 13 15 14 15 8 1 7 0 0 -6z m320 0 l0 -5 -15 -16 -16
-15 -5 5 -6 6 13 15 14 15 8 1 7 0 0 -6z m80 0 l0 -5 -15 -16 -16 -15 -5 5 -6
6 13 15 14 15 8 1 7 0 0 -6z m80 0 l0 -5 -15 -16 -16 -15 -5 5 -6 6 13 15 14
15 8 1 7 0 0 -6z m-1173 -49 l15 -16 -5 -6 -6 -5 -16 15 -15 16 0 5 0 6 6 0 5
0 16 -15z m80 0 l15 -16 -5 -6 -6 -5 -16 15 -15 16 0 5 0 6 6 0 5 0 16 -15z
m73 5 l0 -10 -10 0 -10 0 0 10 0 10 10 0 10 0 0 -10z m87 -5 l15 -16 -5 -6 -6
-5 -16 15 -15 16 0 5 0 6 6 0 5 0 16 -15z m80 0 l15 -16 -5 -6 -6 -5 -16 15
-15 16 0 5 0 6 6 0 5 0 16 -15z m73 5 l0 -10 -10 0 -10 0 0 10 0 10 10 0 10 0
0 -10z m167 -5 l15 -16 -5 -6 -6 -5 -16 15 -15 16 0 5 0 6 6 0 5 0 16 -15z
m80 0 l15 -16 -5 -6 -6 -5 -16 15 -15 16 0 5 0 6 6 0 5 0 16 -15z m160 0 l15
-16 -5 -6 -6 -5 -16 15 -15 16 0 5 0 6 6 0 5 0 16 -15z m240 0 l15 -16 -5 -6
-6 -5 -16 15 -15 16 0 5 0 6 6 0 5 0 16 -15z m80 0 l15 -16 -5 -6 -6 -5 -16
15 -15 16 0 5 0 6 6 0 5 0 16 -15z m-387 -15 l0 -10 -10 0 -10 0 0 10 0 10 10
0 10 0 0 -10z m-760 -16 l0 -5 -15 -16 -16 -15 -5 5 -6 6 13 15 14 15 8 1 7 0
0 -6z m80 0 l0 -5 -15 -16 -16 -15 -5 5 -6 6 13 15 14 15 8 1 7 0 0 -6z m80 0
l0 -5 -15 -16 -16 -15 -5 5 -6 6 13 15 14 15 8 1 7 0 0 -6z m80 -4 l0 -10 -10
0 -10 0 0 10 0 10 10 0 10 0 0 -10z m80 4 l0 -5 -15 -16 -16 -15 -5 5 -6 6 13
15 14 15 8 1 7 0 0 -6z m80 0 l0 -5 -15 -16 -16 -15 -5 5 -6 6 13 15 14 15 8
1 7 0 0 -6z m320 0 l0 -5 -15 -16 -16 -15 -5 5 -6 6 13 15 14 15 8 1 7 0 0 -6z
m80 0 l0 -5 -15 -16 -16 -15 -5 5 -6 6 13 15 14 15 8 1 7 0 0 -6z m80 0 l0 -5
-15 -16 -16 -15 -5 5 -6 6 13 15 14 15 8 1 7 0 0 -6z m160 -4 l0 -10 -10 0
-10 0 0 10 0 10 10 0 10 0 0 -10z m80 4 l0 -5 -15 -16 -16 -15 -5 5 -6 6 13
15 14 15 8 1 7 0 0 -6z m80 0 l0 -5 -15 -16 -16 -15 -5 5 -6 6 13 15 14 15 8
1 7 0 0 -6z m-1173 -49 l15 -16 -5 -6 -6 -5 -16 15 -15 16 0 5 0 6 6 0 5 0 16
-15z m80 0 l15 -16 -5 -6 -6 -5 -16 15 -15 16 0 5 0 6 6 0 5 0 16 -15z m240 0
l15 -16 -5 -6 -6 -5 -16 15 -15 16 0 5 0 6 6 0 5 0 16 -15z m400 0 l15 -16 -5
-6 -6 -5 -16 15 -15 16 0 5 0 6 6 0 5 0 16 -15z m80 0 l15 -16 -5 -6 -6 -5
-16 15 -15 16 0 5 0 6 6 0 5 0 16 -15z m80 0 l15 -16 -5 -6 -6 -5 -16 15 -15
16 0 5 0 6 6 0 5 0 16 -15z m160 0 l15 -16 -5 -6 -6 -5 -16 15 -15 16 0 5 0 6
6 0 5 0 16 -15z m80 0 l15 -16 -5 -6 -6 -5 -16 15 -15 16 0 5 0 6 6 0 5 0 16
-15z m-467 -15 l0 -10 -10 0 -10 0 0 10 0 10 10 0 10 0 0 -10z m-680 -16 l0
-5 -15 -16 -16 -15 -5 5 -6 6 13 15 14 15 8 1 7 0 0 -6z m80 0 l0 -5 -15 -16
-16 -15 -5 5 -6 6 13 15 14 15 8 1 7 0 0 -6z m640 0 l0 -5 -15 -16 -16 -15 -5
5 -6 6 13 15 14 15 8 1 7 0 0 -6z m80 0 l0 -5 -15 -16 -16 -15 -5 5 -6 6 13
15 14 15 8 1 7 0 0 -6z m80 0 l0 -5 -15 -16 -16 -15 -5 5 -6 6 13 15 14 15 8
1 7 0 0 -6z m240 -4 l0 -10 -10 0 -10 0 0 10 0 10 10 0 10 0 0 -10z m80 4 l0
-5 -15 -16 -16 -15 -5 5 -6 6 13 15 14 15 8 1 7 0 0 -6z m-740 -24 l0 -10 -10
0 -10 0 0 10 0 10 10 0 10 0 0 -10z m-440 -20 l0 -10 -10 0 -10 0 0 10 0 10
10 0 10 0 0 -10z m407 -5 l15 -16 -5 -6 -6 -5 -16 15 -15 16 0 5 0 6 6 0 5 0
16 -15z m80 0 l15 -16 -5 -6 -6 -5 -16 15 -15 16 0 5 0 6 6 0 5 0 16 -15z
m240 0 l15 -16 -5 -6 -6 -5 -16 15 -15 16 0 5 0 6 6 0 5 0 16 -15z m80 0 l15
-16 -5 -6 -6 -5 -16 15 -15 16 0 5 0 6 6 0 5 0 16 -15z m73 5 l0 -10 -10 0
-10 0 0 10 0 10 10 0 10 0 0 -10z m-540 -20 l0 -10 -10 0 -10 0 0 10 0 10 10
0 10 0 0 -10z m40 -16 l0 -5 -15 -16 -16 -15 -5 5 -6 6 13 15 14 15 8 1 7 0 0
-6z m80 0 l0 -5 -15 -16 -16 -15 -5 5 -6 6 13 15 14 15 8 1 7 0 0 -6z m80 0
l0 -5 -15 -16 -16 -15 -5 5 -6 6 13 15 14 15 8 1 7 0 0 -6z m160 -4 l0 -10
-10 0 -10 0 0 10 0 10 10 0 10 0 0 -10z m80 4 l0 -5 -15 -16 -16 -15 -5 5 -6
6 13 15 14 15 8 1 7 0 0 -6z m80 0 l0 -5 -15 -16 -16 -15 -5 5 -6 6 13 15 14
15 8 1 7 0 0 -6z m-533 -49 l15 -16 -5 -6 -6 -5 -16 15 -15 16 0 5 0 6 6 0 5
0 16 -15z m80 0 l15 -16 -5 -6 -6 -5 -16 15 -15 16 0 5 0 6 6 0 5 0 16 -15z
m80 0 l15 -16 -5 -6 -6 -5 -16 15 -15 16 0 5 0 6 6 0 5 0 16 -15z m73 5 l0
-10 -10 0 -10 0 0 10 0 10 10 0 10 0 0 -10z m240 0 l0 -10 -10 0 -10 0 0 10 0
10 10 0 10 0 0 -10z m-660 -36 l0 -5 -15 -16 -16 -15 -5 5 -6 6 13 15 14 15 8
1 7 0 0 -6z m160 -4 l0 -10 -10 0 -10 0 0 10 0 10 10 0 10 0 0 -10z m80 4 l0
-5 -15 -16 -16 -15 -5 5 -6 6 13 15 14 15 8 1 7 0 0 -6z m80 0 l0 -5 -15 -16
-16 -15 -5 5 -6 6 13 15 14 15 8 1 7 0 0 -6z m80 0 l0 -5 -15 -16 -16 -15 -5
5 -6 6 13 15 14 15 8 1 7 0 0 -6z m560 0 l0 -5 -15 -16 -16 -15 -5 5 -6 6 13
15 14 15 8 1 7 0 0 -6z m-900 -24 l0 -10 -10 0 -10 0 0 10 0 10 10 0 10 0 0
-10z m560 0 l0 -10 -10 0 -10 0 0 10 0 10 10 0 10 0 0 -10z m400 0 l0 -10 -10
0 -10 0 0 10 0 10 10 0 10 0 0 -10z m-1073 -25 l15 -16 -5 -6 -6 -5 -16 15
-15 16 0 5 0 6 6 0 5 0 16 -15z m80 0 l15 -16 -5 -6 -6 -5 -16 15 -15 16 0 5
0 6 6 0 5 0 16 -15z m80 0 l15 -16 -5 -6 -6 -5 -16 15 -15 16 0 5 0 6 6 0 5 0
16 -15z m80 0 l15 -16 -5 -6 -6 -5 -16 15 -15 16 0 5 0 6 6 0 5 0 16 -15z m80
0 l15 -16 -5 -6 -6 -5 -16 15 -15 16 0 5 0 6 6 0 5 0 16 -15z m80 0 l15 -16
-5 -6 -6 -5 -16 15 -15 16 0 5 0 6 6 0 5 0 16 -15z m240 0 l15 -16 -5 -6 -6
-5 -16 15 -15 16 0 5 0 6 6 0 5 0 16 -15z m80 0 l15 -16 -5 -6 -6 -5 -16 15
-15 16 0 5 0 6 6 0 5 0 16 -15z m240 0 l15 -16 -5 -6 -6 -5 -16 15 -15 16 0 5
0 6 6 0 5 0 16 -15z m80 0 l15 -16 -5 -6 -6 -5 -16 15 -15 16 0 5 0 6 6 0 5 0
16 -15z m-1107 -15 l0 -10 -10 0 -10 0 0 10 0 10 10 0 10 0 0 -10z m40 -16 l0
-5 -15 -16 -16 -15 -5 5 -6 6 13 15 14 15 8 1 7 0 0 -6z m80 0 l0 -5 -15 -16
-16 -15 -5 5 -6 6 13 15 14 15 8 1 7 0 0 -6z m80 0 l0 -5 -15 -16 -16 -15 -5
5 -6 6 13 15 14 15 8 1 7 0 0 -6z m160 -4 l0 -10 -10 0 -10 0 0 10 0 10 10 0
10 0 0 -10z m80 0 l0 -10 -10 0 -10 0 0 10 0 10 10 0 10 0 0 -10z m240 4 l0
-5 -15 -16 -16 -15 -5 5 -6 6 13 15 14 15 8 1 7 0 0 -6z m80 0 l0 -5 -15 -16
-16 -15 -5 5 -6 6 13 15 14 15 8 1 7 0 0 -6z m80 0 l0 -5 -15 -16 -16 -15 -5
5 -6 6 13 15 14 15 8 1 7 0 0 -6z m160 0 l0 -5 -15 -16 -16 -15 -5 5 -6 6 13
15 14 15 8 1 7 0 0 -6z m80 0 l0 -5 -15 -16 -16 -15 -5 5 -6 6 13 15 14 15 8
1 7 0 0 -6z m80 0 l0 -5 -15 -16 -16 -15 -5 5 -6 6 13 15 14 15 8 1 7 0 0 -6z
m-900 -24 l0 -10 -10 0 -10 0 0 10 0 10 10 0 10 0 0 -10z m-273 -25 l15 -16
-5 -6 -6 -5 -16 15 -15 16 0 5 0 6 6 0 5 0 16 -15z m80 0 l15 -16 -5 -6 -6 -5
-16 15 -15 16 0 5 0 6 6 0 5 0 16 -15z m80 0 l15 -16 -5 -6 -6 -5 -16 15 -15
16 0 5 0 6 6 0 5 0 16 -15z m80 0 l15 -16 -5 -6 -6 -5 -16 15 -15 16 0 5 0 6
6 0 5 0 16 -15z m480 0 l15 -16 -5 -6 -6 -5 -16 15 -15 16 0 5 0 6 6 0 5 0 16
-15z m80 0 l15 -16 -5 -6 -6 -5 -16 15 -15 16 0 5 0 6 6 0 5 0 16 -15z m80 0
l15 -16 -5 -6 -6 -5 -16 15 -15 16 0 5 0 6 6 0 5 0 16 -15z m160 0 l15 -16 -5
-6 -6 -5 -16 15 -15 16 0 5 0 6 6 0 5 0 16 -15z m80 0 l15 -16 -5 -6 -6 -5
-16 15 -15 16 0 5 0 6 6 0 5 0 16 -15z m-467 -15 l0 -10 -10 0 -10 0 0 10 0
10 10 0 10 0 0 -10z m-680 -20 l0 -10 -10 0 -10 0 0 10 0 10 10 0 10 0 0 -10z
m80 4 l0 -5 -15 -16 -16 -15 -5 5 -6 6 13 15 14 15 8 1 7 0 0 -6z m80 0 l0 -5
-15 -16 -16 -15 -5 5 -6 6 13 15 14 15 8 1 7 0 0 -6z m80 0 l0 -5 -15 -16 -16
-15 -5 5 -6 6 13 15 14 15 8 1 7 0 0 -6z m80 0 l0 -5 -15 -16 -16 -15 -5 5 -6
6 13 15 14 15 8 1 7 0 0 -6z m400 0 l0 -5 -15 -16 -16 -15 -5 5 -6 6 13 15 14
15 8 1 7 0 0 -6z m80 0 l0 -5 -15 -16 -16 -15 -5 5 -6 6 13 15 14 15 8 1 7 0
0 -6z m80 0 l0 -5 -15 -16 -16 -15 -5 5 -6 6 13 15 14 15 8 1 7 0 0 -6z m160
-4 l0 -10 -10 0 -10 0 0 10 0 10 10 0 10 0 0 -10z m80 4 l0 -5 -15 -16 -16
-15 -5 5 -6 6 13 15 14 15 8 1 7 0 0 -6z m80 0 l0 -5 -15 -16 -16 -15 -5 5 -6
6 13 15 14 15 8 1 7 0 0 -6z m-1173 -49 l15 -16 -5 -6 -6 -5 -16 15 -15 16 0
5 0 6 6 0 5 0 16 -15z m80 0 l15 -16 -5 -6 -6 -5 -16 15 -15 16 0 5 0 6 6 0 5
0 16 -15z m80 0 l15 -16 -5 -6 -6 -5 -16 15 -15 16 0 5 0 6 6 0 5 0 16 -15z
m80 0 l15 -16 -5 -6 -6 -5 -16 15 -15 16 0 5 0 6 6 0 5 0 16 -15z m73 5 l0
-10 -10 0 -10 0 0 10 0 10 10 0 10 0 0 -10z m407 -5 l15 -16 -5 -6 -6 -5 -16
15 -15 16 0 5 0 6 6 0 5 0 16 -15z m80 0 l15 -16 -5 -6 -6 -5 -16 15 -15 16 0
5 0 6 6 0 5 0 16 -15z m73 5 l0 -10 -10 0 -10 0 0 10 0 10 10 0 10 0 0 -10z
m240 0 l0 -10 -10 0 -10 0 0 10 0 10 10 0 10 0 0 -10z m-1060 -36 l0 -5 -15
-16 -16 -15 -5 5 -6 6 13 15 14 15 8 1 7 0 0 -6z m80 0 l0 -5 -15 -16 -16 -15
-5 5 -6 6 13 15 14 15 8 1 7 0 0 -6z m80 0 l0 -5 -15 -16 -16 -15 -5 5 -6 6
13 15 14 15 8 1 7 0 0 -6z m80 0 l0 -5 -15 -16 -16 -15 -5 5 -6 6 13 15 14 15
8 1 7 0 0 -6z m480 0 l0 -5 -15 -16 -16 -15 -5 5 -6 6 13 15 14 15 8 1 7 0 0
-6z m-340 -24 l0 -10 -10 0 -10 0 0 10 0 10 10 0 10 0 0 -10z m-353 -25 l15
-16 -5 -6 -6 -5 -16 15 -15 16 0 5 0 6 6 0 5 0 16 -15z m80 0 l15 -16 -5 -6
-6 -5 -16 15 -15 16 0 5 0 6 6 0 5 0 16 -15z m80 0 l15 -16 -5 -6 -6 -5 -16
15 -15 16 0 5 0 6 6 0 5 0 16 -15z m160 0 l15 -16 -5 -6 -6 -5 -16 15 -15 16
0 5 0 6 6 0 5 0 16 -15z m80 0 l15 -16 -5 -6 -6 -5 -16 15 -15 16 0 5 0 6 6 0
5 0 16 -15z m-467 -15 l0 -10 -10 0 -10 0 0 10 0 10 10 0 10 0 0 -10z m320 0
l0 -10 -10 0 -10 0 0 10 0 10 10 0 10 0 0 -10z m-280 -20 l0 -10 -10 0 -10 0
0 10 0 10 10 0 10 0 0 -10z m80 4 l0 -5 -15 -16 -16 -15 -5 5 -6 6 13 15 14
15 8 1 7 0 0 -6z m80 0 l0 -5 -15 -16 -16 -15 -5 5 -6 6 13 15 14 15 8 1 7 0
0 -6z m160 0 l0 -5 -15 -16 -16 -15 -5 5 -6 6 13 15 14 15 8 1 7 0 0 -6z m80
0 l0 -5 -15 -16 -16 -15 -5 5 -6 6 13 15 14 15 8 1 7 0 0 -6z m80 0 l0 -5 -15
-16 -16 -15 -5 5 -6 6 13 15 14 15 8 1 7 0 0 -6z m380 -24 l0 -10 -10 0 -10 0
0 10 0 10 10 0 10 0 0 -10z m80 0 l0 -10 -10 0 -10 0 0 10 0 10 10 0 10 0 0
-10z m-840 -20 l0 -10 -10 0 -10 0 0 10 0 10 10 0 10 0 0 -10z m167 -5 l15
-16 -5 -6 -6 -5 -16 15 -15 16 0 5 0 6 6 0 5 0 16 -15z m80 0 l15 -16 -5 -6
-6 -5 -16 15 -15 16 0 5 0 6 6 0 5 0 16 -15z m80 0 l15 -16 -5 -6 -6 -5 -16
15 -15 16 0 5 0 6 6 0 5 0 16 -15z m400 0 l15 -16 -5 -6 -6 -5 -16 15 -15 16
0 5 0 6 6 0 5 0 16 -15z m80 0 l15 -16 -5 -6 -6 -5 -16 15 -15 16 0 5 0 6 6 0
5 0 16 -15z m80 0 l15 -16 -5 -6 -6 -5 -16 15 -15 16 0 5 0 6 6 0 5 0 16 -15z
m-1027 -15 l0 -10 -10 0 -10 0 0 10 0 10 10 0 10 0 0 -10z m-40 -16 l0 -5 -15
-16 -16 -15 -5 5 -6 6 13 15 14 15 8 1 7 0 0 -6z m80 0 l0 -5 -15 -16 -16 -15
-5 5 -6 6 13 15 14 15 8 1 7 0 0 -6z m320 0 l0 -5 -15 -16 -16 -15 -5 5 -6 6
13 15 14 15 8 1 7 0 0 -6z m80 0 l0 -5 -15 -16 -16 -15 -5 5 -6 6 13 15 14 15
8 1 7 0 0 -6z m400 0 l0 -5 -15 -16 -16 -15 -5 5 -6 6 13 15 14 15 8 1 7 0 0
-6z m80 0 l0 -5 -15 -16 -16 -15 -5 5 -6 6 13 15 14 15 8 1 7 0 0 -6z m80 0
l0 -5 -15 -16 -16 -15 -5 5 -6 6 13 15 14 15 8 1 7 0 0 -6z m80 0 l0 -5 -15
-16 -16 -15 -5 5 -6 6 13 15 14 15 8 1 7 0 0 -6z m-1093 -49 l15 -16 -5 -6 -6
-5 -16 15 -15 16 0 5 0 6 6 0 5 0 16 -15z m80 0 l15 -16 -5 -6 -6 -5 -16 15
-15 16 0 5 0 6 6 0 5 0 16 -15z m320 0 l15 -16 -5 -6 -6 -5 -16 15 -15 16 0 5
0 6 6 0 5 0 16 -15z m73 5 l0 -10 -10 0 -10 0 0 10 0 10 10 0 10 0 0 -10z
m327 -5 l15 -16 -5 -6 -6 -5 -16 15 -15 16 0 5 0 6 6 0 5 0 16 -15z m80 0 l15
-16 -5 -6 -6 -5 -16 15 -15 16 0 5 0 6 6 0 5 0 16 -15z m80 0 l15 -16 -5 -6
-6 -5 -16 15 -15 16 0 5 0 6 6 0 5 0 16 -15z m80 0 l15 -16 -5 -6 -6 -5 -16
15 -15 16 0 5 0 6 6 0 5 0 16 -15z m73 5 l0 -10 -10 0 -10 0 0 10 0 10 10 0
10 0 0 -10z m-540 -20 l0 -10 -10 0 -10 0 0 10 0 10 10 0 10 0 0 -10z m80 0
l0 -10 -10 0 -10 0 0 10 0 10 10 0 10 0 0 -10z m-680 -16 l0 -5 -15 -16 -16
-15 -5 5 -6 6 13 15 14 15 8 1 7 0 0 -6z m80 0 l0 -5 -15 -16 -16 -15 -5 5 -6
6 13 15 14 15 8 1 7 0 0 -6z m480 0 l0 -5 -15 -16 -16 -15 -5 5 -6 6 13 15 14
15 8 1 7 0 0 -6z m80 0 l0 -5 -15 -16 -16 -15 -5 5 -6 6 13 15 14 15 8 1 7 0
0 -6z m160 -4 l0 -10 -10 0 -10 0 0 10 0 10 10 0 10 0 0 -10z m80 4 l0 -5 -15
-16 -16 -15 -5 5 -6 6 13 15 14 15 8 1 7 0 0 -6z m80 0 l0 -5 -15 -16 -16 -15
-5 5 -6 6 13 15 14 15 8 1 7 0 0 -6z m80 0 l0 -5 -15 -16 -16 -15 -5 5 -6 6
13 15 14 15 8 1 7 0 0 -6z m80 0 l0 -5 -15 -16 -16 -15 -5 5 -6 6 13 15 14 15
8 1 7 0 0 -6z m-420 -24 l0 -10 -10 0 -10 0 0 10 0 10 10 0 10 0 0 -10z"/>
</g>
</svg>
