<?xml version="1.0" standalone="no"?>
<!DOCTYPE svg PUBLIC "-//W3C//DTD SVG 20010904//EN"
 "http://www.w3.org/TR/2001/REC-SVG-20010904/DTD/svg10.dtd">
<svg version="1.0" xmlns="http://www.w3.org/2000/svg"
 width="468pt" height="468pt" viewBox="0 0 468 468"
 preserveAspectRatio="xMidYMid meet">
<metadata>
Created by potrace 1.8, written by Peter Selinger 2001-2007
</metadata>
<g transform="translate(0,468) scale(0.365625,-0.365625)"
fill="#000000" stroke="none">
<path d="M0 655 l0 -625 11 0 10 0 15 14 14 15 0 25 0 26 15 0 15 0 0 10 0 10
-15 0 -15 0 0 40 0 40 15 0 15 0 0 15 0 15 -15 0 -15 0 0 40 0 40 15 0 15 0 0
15 0 15 -15 0 -15 0 0 40 0 40 15 0 15 0 0 10 0 10 -15 0 -15 0 0 40 0 40 15
0 15 0 0 15 0 15 -15 0 -15 0 0 40 0 40 15 0 15 0 0 15 0 15 -15 0 -15 0 0 40
0 40 15 0 15 0 0 10 0 10 -15 0 -15 0 0 40 0 40 15 0 15 0 0 15 0 15 -15 0
-15 0 0 40 0 40 15 0 15 0 0 15 0 15 -15 0 -15 0 0 40 0 40 15 0 15 0 0 10 0
10 -15 0 -15 0 0 40 0 40 15 0 15 0 0 15 0 15 -15 0 -15 0 0 15 0 15 15 0 15
0 0 -15 0 -15 15 0 15 0 0 15 0 15 40 0 40 0 0 -15 0 -15 10 0 10 0 0 15 0 15
40 0 40 0 0 -15 0 -15 15 0 15 0 0 15 0 15 40 0 40 0 0 -15 0 -15 15 0 15 0 0
15 0 15 40 0 40 0 0 -15 0 -15 10 0 10 0 0 15 0 15 40 0 40 0 0 -15 0 -15 15
0 15 0 0 15 0 15 40 0 40 0 0 -15 0 -15 15 0 15 0 0 15 0 15 40 0 40 0 0 -15
0 -15 10 0 10 0 0 15 0 15 40 0 40 0 0 -15 0 -15 15 0 15 0 0 15 0 15 40 0 40
0 0 -15 0 -15 15 0 15 0 0 15 0 15 40 0 40 0 0 -15 0 -15 10 0 10 0 0 15 0 15
26 0 25 0 15 14 14 15 0 10 0 11 -625 0 -625 0 0 -625z"/>
<path d="M1250 1225 l0 -25 -40 0 -40 0 0 -15 0 -15 -10 0 -10 0 0 15 0 15
-40 0 -40 0 0 -15 0 -15 -15 0 -15 0 0 15 0 15 -40 0 -40 0 0 -15 0 -15 -15 0
-15 0 0 15 0 15 -40 0 -40 0 0 -15 0 -15 -10 0 -10 0 0 15 0 15 -40 0 -40 0 0
-15 0 -15 -15 0 -15 0 0 15 0 15 -40 0 -40 0 0 -15 0 -15 -15 0 -15 0 0 15 0
15 -40 0 -40 0 0 -15 0 -15 -10 0 -10 0 0 15 0 15 -40 0 -40 0 0 -15 0 -15
-15 0 -15 0 0 15 0 15 -40 0 -40 0 0 -15 0 -15 -15 0 -15 0 0 15 0 15 -40 0
-40 0 0 -15 0 -15 -10 0 -10 0 0 15 0 15 -40 0 -40 0 0 -15 0 -15 -15 0 -15 0
0 -40 0 -40 15 0 15 0 0 -10 0 -10 -15 0 -15 0 0 -40 0 -40 15 0 15 0 0 -15 0
-15 -15 0 -15 0 0 -40 0 -40 15 0 15 0 0 -15 0 -15 -15 0 -15 0 0 -40 0 -40
15 0 15 0 0 -10 0 -10 -15 0 -15 0 0 -40 0 -40 15 0 15 0 0 -15 0 -15 -15 0
-15 0 0 -40 0 -40 15 0 15 0 0 -15 0 -15 -15 0 -15 0 0 -40 0 -40 15 0 15 0 0
-10 0 -10 -15 0 -15 0 0 -40 0 -40 15 0 15 0 0 -15 0 -15 -15 0 -15 0 0 -40 0
-40 15 0 15 0 0 -15 0 -15 -15 0 -15 0 0 -40 0 -40 15 0 15 0 0 -10 0 -10 -15
0 -15 0 0 -40 0 -40 -25 0 -25 0 0 -15 0 -15 625 0 625 0 0 625 0 625 -15 0
-15 0 0 -25z m-1060 -95 l0 -40 -40 0 -40 0 0 40 0 40 40 0 40 0 0 -40z m100
0 l0 -40 -36 0 -35 0 -15 -14 -14 -15 0 -35 0 -36 -40 0 -40 0 0 40 0 40 36 0
35 0 15 14 14 15 0 35 0 36 40 0 40 0 0 -40z m110 0 l0 -40 -40 0 -40 0 0 -10
0 -10 -15 0 -15 0 0 -40 0 -40 -25 0 -25 0 0 25 0 25 -15 0 -15 0 0 15 0 15
40 0 40 0 0 10 0 10 15 0 15 0 0 40 0 40 40 0 40 0 0 -40z m110 0 l0 -40 -40
0 -40 0 0 -10 0 -10 -15 0 -15 0 0 -40 0 -40 -40 0 -40 0 0 -15 0 -15 -15 0
-15 0 0 -40 0 -40 -25 0 -25 0 0 40 0 40 25 0 25 0 0 15 0 15 15 0 15 0 0 40
0 40 40 0 40 0 0 10 0 10 15 0 15 0 0 40 0 40 40 0 40 0 0 -40z m100 0 l0 -40
-36 0 -35 0 -15 -14 -14 -15 0 -35 0 -36 -40 0 -40 0 0 -15 0 -15 -15 0 -15 0
0 -40 0 -40 -40 0 -40 0 0 -15 0 -15 -15 0 -15 0 0 -40 0 -40 -25 0 -25 0 0
40 0 40 25 0 25 0 0 15 0 15 15 0 15 0 0 40 0 40 40 0 40 0 0 15 0 15 15 0 15
0 0 40 0 40 36 0 35 0 15 14 14 15 0 35 0 36 40 0 40 0 0 -40z m110 0 l0 -40
-40 0 -40 0 0 -10 0 -10 -15 0 -15 0 0 -40 0 -40 -40 0 -40 0 0 -15 0 -15 -10
0 -10 0 0 -40 0 -40 -40 0 -40 0 0 -15 0 -15 -15 0 -15 0 0 -40 0 -40 -40 0
-40 0 0 -10 0 -10 -15 0 -15 0 0 -40 0 -40 -25 0 -25 0 0 40 0 40 25 0 25 0 0
10 0 10 15 0 15 0 0 40 0 40 40 0 40 0 0 15 0 15 15 0 15 0 0 40 0 40 40 0 40
0 0 15 0 15 10 0 10 0 0 40 0 40 40 0 40 0 0 10 0 10 15 0 15 0 0 40 0 40 40
0 40 0 0 -40z m110 0 l0 -40 -40 0 -40 0 0 -10 0 -10 -15 0 -15 0 0 -40 0 -40
-40 0 -40 0 0 -15 0 -15 -15 0 -15 0 0 -40 0 -40 -40 0 -40 0 0 -15 0 -15 -10
0 -10 0 0 -40 0 -40 -40 0 -40 0 0 -10 0 -10 -15 0 -15 0 0 -40 0 -40 -40 0
-40 0 0 -15 0 -15 -15 0 -15 0 0 -40 0 -40 -25 0 -25 0 0 40 0 40 25 0 25 0 0
15 0 15 15 0 15 0 0 40 0 40 40 0 40 0 0 10 0 10 15 0 15 0 0 40 0 40 40 0 40
0 0 15 0 15 10 0 10 0 0 40 0 40 40 0 40 0 0 15 0 15 15 0 15 0 0 40 0 40 40
0 40 0 0 10 0 10 15 0 15 0 0 40 0 40 40 0 40 0 0 -40z m100 0 l0 -40 -36 0
-35 0 -15 -14 -14 -15 0 -35 0 -36 -40 0 -40 0 0 -15 0 -15 -15 0 -15 0 0 -40
0 -40 -40 0 -40 0 0 -15 0 -15 -15 0 -15 0 0 -40 0 -40 -36 0 -35 0 -15 -14
-14 -15 0 -10 0 -11 -15 0 -15 0 0 -15 0 -15 -11 0 -10 0 -15 -14 -14 -15 0
-10 0 -11 -15 0 -15 0 0 -15 0 -15 -11 0 -10 0 -15 -14 -14 -15 0 -10 0 -11
-15 0 -15 0 0 -15 0 -15 -15 0 -15 0 0 -40 0 -40 -25 0 -25 0 0 40 0 40 25 0
25 0 0 15 0 15 15 0 15 0 0 40 0 40 40 0 40 0 0 15 0 15 15 0 15 0 0 40 0 40
36 0 35 0 15 14 14 15 0 35 0 36 40 0 40 0 0 15 0 15 15 0 15 0 0 40 0 40 40
0 40 0 0 15 0 15 15 0 15 0 0 40 0 40 36 0 35 0 15 14 14 15 0 35 0 36 40 0
40 0 0 -40z m110 0 l0 -40 -40 0 -40 0 0 -10 0 -10 -15 0 -15 0 0 -40 0 -40
-40 0 -40 0 0 -15 0 -15 -10 0 -10 0 0 -40 0 -40 -40 0 -40 0 0 -15 0 -15 -15
0 -15 0 0 -40 0 -40 -40 0 -40 0 0 -10 0 -10 -15 0 -15 0 0 -40 0 -40 15 0 15
0 0 40 0 40 40 0 40 0 0 10 0 10 15 0 15 0 0 40 0 40 40 0 40 0 0 15 0 15 10
0 10 0 0 40 0 40 40 0 40 0 0 -40 0 -40 15 0 15 0 0 -15 0 -15 40 0 40 0 0 15
0 15 15 0 15 0 0 40 0 40 40 0 40 0 0 -40 0 -40 -40 0 -40 0 0 -15 0 -15 -15
0 -15 0 0 -10 0 -10 -15 0 -15 0 0 -15 0 -15 -10 0 -10 0 0 15 0 15 -15 0 -15
0 0 10 0 10 -15 0 -15 0 0 15 0 15 -10 0 -10 0 0 15 0 15 -15 0 -15 0 0 -15 0
-15 -15 0 -15 0 0 -11 0 -10 -14 -15 -15 -14 -10 0 -11 0 0 -15 0 -15 -15 0
-15 0 0 -11 0 -10 -14 -15 -15 -14 -10 0 -11 0 0 -15 0 -15 -15 0 -15 0 0 -11
0 -10 -14 -15 -15 -14 -10 0 -11 0 0 -15 0 -15 -15 0 -15 0 0 11 0 10 -14 15
-15 14 -10 0 -11 0 0 15 0 15 -15 0 -15 0 0 15 0 15 40 0 40 0 0 10 0 10 15 0
15 0 0 40 0 40 40 0 40 0 0 15 0 15 15 0 15 0 0 40 0 40 40 0 40 0 0 15 0 15
10 0 10 0 0 40 0 40 40 0 40 0 0 10 0 10 15 0 15 0 0 40 0 40 40 0 40 0 0 -40z
m110 0 l0 -40 -40 0 -40 0 0 -10 0 -10 -15 0 -15 0 0 -40 0 -40 -40 0 -40 0 0
-15 0 -15 40 0 40 0 0 15 0 15 15 0 15 0 0 40 0 40 40 0 40 0 0 -40 0 -40 10
0 10 0 0 -15 0 -15 40 0 40 0 0 -40 0 -40 -40 0 -40 0 0 -15 0 -15 -10 0 -10
0 0 -40 0 -40 -40 0 -40 0 0 -10 0 -10 -15 0 -15 0 0 -40 0 -40 -40 0 -40 0 0
40 0 40 -15 0 -15 0 0 10 0 10 -36 0 -35 0 -15 -14 -14 -15 0 -35 0 -36 -40 0
-40 0 0 -15 0 -15 -15 0 -15 0 0 -40 0 -40 -40 0 -40 0 0 -15 0 -15 -15 0 -15
0 0 15 0 15 -40 0 -40 0 0 40 0 40 -10 0 -10 0 0 -40 0 -40 -40 0 -40 0 0 -15
0 -15 -15 0 -15 0 0 -40 0 -40 -40 0 -40 0 0 -10 0 -10 -15 0 -15 0 0 -30 0
-30 -25 0 -25 0 0 30 0 30 25 0 25 0 0 10 0 10 15 0 15 0 0 15 0 15 15 0 15 0
0 11 0 10 14 15 15 14 10 0 11 0 0 15 0 15 15 0 15 0 0 11 0 10 14 15 15 14
10 0 11 0 0 15 0 15 15 0 15 0 0 15 0 15 10 0 10 0 0 -15 0 -15 15 0 15 0 0
-15 0 -15 11 0 10 0 15 -14 14 -15 0 -10 0 -11 15 0 15 0 0 15 0 15 11 0 10 0
15 14 14 15 0 10 0 11 15 0 15 0 0 15 0 15 11 0 10 0 15 14 14 15 0 10 0 11
15 0 15 0 0 15 0 15 11 0 10 0 15 14 14 15 0 10 0 11 15 0 15 0 0 15 0 15 15
0 15 0 0 -15 0 -15 10 0 10 0 0 -15 0 -15 15 0 15 0 0 -10 0 -10 15 0 15 0 0
-15 0 -15 10 0 10 0 0 15 0 15 15 0 15 0 0 10 0 10 15 0 15 0 0 15 0 15 10 0
10 0 0 15 0 15 15 0 15 0 0 10 0 10 15 0 15 0 0 15 0 15 10 0 10 0 0 40 0 40
-10 0 -10 0 0 15 0 15 -40 0 -40 0 0 -15 0 -15 -15 0 -15 0 0 -40 0 -40 -40 0
-40 0 0 40 0 40 -15 0 -15 0 0 15 0 15 15 0 15 0 0 40 0 40 40 0 40 0 0 10 0
10 15 0 15 0 0 40 0 40 40 0 40 0 0 -40z m100 0 l0 -40 -40 0 -40 0 0 -10 0
-10 40 0 40 0 0 -40 0 -40 -40 0 -40 0 0 39 0 39 -12 6 -13 6 13 6 12 6 0 39
0 39 40 0 40 0 0 -40z m-1060 -210 l0 -40 -40 0 -40 0 0 40 0 40 40 0 40 0 0
-40z m0 -110 l0 -40 -40 0 -40 0 0 40 0 40 40 0 40 0 0 -40z m1060 0 l0 -40
-36 0 -35 0 -15 -14 -14 -15 0 -35 0 -36 -40 0 -40 0 0 -15 0 -15 -15 0 -15 0
0 -40 0 -40 -40 0 -40 0 0 40 0 40 -15 0 -15 0 0 15 0 15 -40 0 -40 0 0 -15 0
-15 -10 0 -10 0 0 -40 0 -40 -40 0 -40 0 0 -15 0 -15 -15 0 -15 0 0 -40 0 -40
-40 0 -40 0 0 40 0 40 40 0 40 0 0 15 0 15 15 0 15 0 0 40 0 40 40 0 40 0 0
15 0 15 10 0 10 0 0 40 0 40 40 0 40 0 0 -40 0 -40 15 0 15 0 0 -15 0 -15 40
0 40 0 0 15 0 15 15 0 15 0 0 40 0 40 36 0 35 0 15 14 14 15 0 35 0 36 40 0
40 0 0 -40z m-1060 -100 l0 -40 -40 0 -40 0 0 40 0 40 40 0 40 0 0 -40z m1060
0 l0 -40 -40 0 -40 0 0 -15 0 -15 -10 0 -10 0 0 -40 0 -40 -40 0 -40 0 0 -15
0 -15 -15 0 -15 0 0 -40 0 -40 -40 0 -40 0 0 40 0 40 -15 0 -15 0 0 15 0 15
-40 0 -40 0 0 -15 0 -15 -10 0 -10 0 0 -40 0 -40 -40 0 -40 0 0 -10 0 -10 -15
0 -15 0 0 -30 0 -30 -40 0 -40 0 0 30 0 30 -15 0 -15 0 0 10 0 10 -40 0 -40 0
0 40 0 40 -10 0 -10 0 0 -40 0 -40 -40 0 -40 0 0 -10 0 -10 -15 0 -15 0 0 -30
0 -30 -40 0 -40 0 0 30 0 30 40 0 40 0 0 10 0 10 15 0 15 0 0 40 0 40 40 0 40
0 0 15 0 15 10 0 10 0 0 -15 0 -15 40 0 40 0 0 -40 0 -40 15 0 15 0 0 -10 0
-10 40 0 40 0 0 10 0 10 15 0 15 0 0 40 0 40 40 0 40 0 0 15 0 15 10 0 10 0 0
40 0 40 40 0 40 0 0 -40 0 -40 15 0 15 0 0 -15 0 -15 40 0 40 0 0 15 0 15 15
0 15 0 0 40 0 40 40 0 40 0 0 15 0 15 10 0 10 0 0 40 0 40 40 0 40 0 0 -40z
m-1060 -110 l0 -40 -40 0 -40 0 0 40 0 40 40 0 40 0 0 -40z m1060 0 l0 -40
-40 0 -40 0 0 -15 0 -15 -10 0 -10 0 0 -40 0 -40 -40 0 -40 0 0 -10 0 -10 -15
0 -15 0 0 -30 0 -30 -40 0 -40 0 0 30 0 30 -15 0 -15 0 0 10 0 10 -36 0 -35 0
-15 -14 -14 -15 0 -25 0 -26 -40 0 -40 0 0 30 0 30 36 0 35 0 15 14 14 15 0
35 0 36 40 0 40 0 0 -40 0 -40 15 0 15 0 0 -10 0 -10 40 0 40 0 0 10 0 10 15
0 15 0 0 40 0 40 40 0 40 0 0 15 0 15 10 0 10 0 0 40 0 40 40 0 40 0 0 -40z
m-1060 -110 l0 -40 -40 0 -40 0 0 40 0 40 40 0 40 0 0 -40z m1060 0 l0 -40
-36 0 -35 0 -15 -14 -14 -15 0 -35 0 -36 -15 0 -15 0 0 10 0 10 -25 0 -25 0 0
30 0 30 36 0 35 0 15 14 14 15 0 35 0 36 40 0 40 0 0 -40z m-720 -50 l0 -10
40 0 40 0 0 -30 0 -30 -40 0 -40 0 0 30 0 30 -10 0 -10 0 0 -30 0 -30 -40 0
-40 0 0 30 0 30 40 0 40 0 0 10 0 10 10 0 10 0 0 -10z m-340 -50 l0 -40 -40 0
-40 0 0 40 0 40 40 0 40 0 0 -40z m740 10 l0 -30 -40 0 -40 0 0 30 0 30 40 0
40 0 0 -30z m320 -10 l0 -40 -40 0 -40 0 0 -15 0 -15 -10 0 -10 0 0 -40 0 -40
-40 0 -40 0 0 25 0 25 -15 0 -15 0 0 -25 0 -25 -40 0 -40 0 0 25 0 25 -15 0
-15 0 0 -25 0 -25 -40 0 -40 0 0 25 0 25 -10 0 -10 0 0 -25 0 -25 -40 0 -40 0
0 25 0 25 -15 0 -15 0 0 -25 0 -25 -40 0 -40 0 0 25 0 25 -15 0 -15 0 0 -25 0
-25 -40 0 -40 0 0 25 0 25 -10 0 -10 0 0 -25 0 -25 -40 0 -40 0 0 25 0 25 -15
0 -15 0 0 -25 0 -25 -40 0 -40 0 0 25 0 25 -15 0 -15 0 0 -25 0 -25 -40 0 -40
0 0 25 0 25 -10 0 -10 0 0 -25 0 -25 -40 0 -40 0 0 40 0 40 520 0 520 0 0 15
0 15 10 0 10 0 0 40 0 40 40 0 40 0 0 -40z m0 -110 l0 -40 -40 0 -40 0 0 -15
0 -15 -10 0 -10 0 0 -40 0 -40 -40 0 -40 0 0 40 0 40 -15 0 -15 0 0 -40 0 -40
-40 0 -40 0 0 40 0 40 -15 0 -15 0 0 -40 0 -40 -40 0 -40 0 0 40 0 40 -10 0
-10 0 0 -40 0 -40 -40 0 -40 0 0 40 0 40 -15 0 -15 0 0 -40 0 -40 -40 0 -40 0
0 40 0 40 -15 0 -15 0 0 -40 0 -40 -40 0 -40 0 0 40 0 40 -10 0 -10 0 0 -40 0
-40 -40 0 -40 0 0 40 0 40 -15 0 -15 0 0 -40 0 -40 -40 0 -40 0 0 40 0 40 -15
0 -15 0 0 -40 0 -40 -40 0 -40 0 0 40 0 40 -10 0 -10 0 0 -40 0 -40 -40 0 -40
0 0 40 0 40 40 0 40 0 0 15 0 15 10 0 10 0 0 -15 0 -15 40 0 40 0 0 15 0 15
15 0 15 0 0 -15 0 -15 40 0 40 0 0 15 0 15 15 0 15 0 0 -15 0 -15 40 0 40 0 0
15 0 15 10 0 10 0 0 -15 0 -15 40 0 40 0 0 15 0 15 15 0 15 0 0 -15 0 -15 40
0 40 0 0 15 0 15 15 0 15 0 0 -15 0 -15 40 0 40 0 0 15 0 15 10 0 10 0 0 -15
0 -15 40 0 40 0 0 15 0 15 15 0 15 0 0 -15 0 -15 40 0 40 0 0 15 0 15 15 0 15
0 0 -15 0 -15 40 0 40 0 0 15 0 15 10 0 10 0 0 40 0 40 40 0 40 0 0 -40z m0
-110 l0 -40 -36 0 -35 0 -15 -14 -14 -15 0 -35 0 -36 -40 0 -40 0 0 40 0 40
-15 0 -15 0 0 -40 0 -40 -40 0 -40 0 0 40 0 40 -15 0 -15 0 0 -40 0 -40 -40 0
-40 0 0 40 0 40 -10 0 -10 0 0 -40 0 -40 -40 0 -40 0 0 40 0 40 -15 0 -15 0 0
-40 0 -40 -40 0 -40 0 0 40 0 40 -15 0 -15 0 0 -40 0 -40 -40 0 -40 0 0 40 0
40 -10 0 -10 0 0 -40 0 -40 -40 0 -40 0 0 40 0 40 -15 0 -15 0 0 -40 0 -40
-40 0 -40 0 0 40 0 40 -15 0 -15 0 0 -40 0 -40 -40 0 -40 0 0 40 0 40 -10 0
-10 0 0 -40 0 -40 -40 0 -40 0 0 40 0 40 39 0 39 0 6 13 6 12 6 -12 6 -13 39
0 39 0 0 10 0 10 15 0 15 0 0 -10 0 -10 40 0 40 0 0 10 0 10 15 0 15 0 0 -10
0 -10 39 0 39 0 6 13 6 12 6 -12 6 -13 39 0 39 0 0 10 0 10 15 0 15 0 0 -10 0
-10 40 0 40 0 0 10 0 10 15 0 15 0 0 -10 0 -10 39 0 39 0 6 13 6 12 6 -12 6
-13 39 0 39 0 0 10 0 10 15 0 15 0 0 -10 0 -10 40 0 40 0 0 10 0 10 15 0 15 0
0 -10 0 -10 36 0 35 0 15 14 14 15 0 35 0 36 40 0 40 0 0 -40z m0 -100 l0 -40
-40 0 -40 0 0 40 0 40 40 0 40 0 0 -40z"/>
</g>
</svg>
