<?xml version="1.0" standalone="no"?>
<!DOCTYPE svg PUBLIC "-//W3C//DTD SVG 20010904//EN"
 "http://www.w3.org/TR/2001/REC-SVG-20010904/DTD/svg10.dtd">
<svg version="1.0" xmlns="http://www.w3.org/2000/svg"
 width="468pt" height="468pt" viewBox="0 0 468 468"
 preserveAspectRatio="xMidYMid meet">
<metadata>
Created by potrace 1.8, written by Peter Selinger 2001-2007
</metadata>
<g transform="translate(0,468) scale(0.365625,-0.365625)"
fill="#000000" stroke="none">
<path d="M140 1250 l0 -30 16 0 15 0 15 -14 14 -15 0 -13 0 -14 20 -14 20 -14
0 -14 0 -13 35 -34 34 -35 21 0 21 0 17 -17 17 -16 -13 -5 -12 -4 0 -19 0 -19
-10 0 -10 0 0 -20 0 -20 -10 0 -10 0 0 -20 0 -20 -15 0 -16 0 -24 -25 -25 -24
0 -16 0 -15 -10 0 -10 0 0 -20 0 -20 -10 0 -10 0 0 -18 0 -18 -20 -14 -20 -14
0 -18 0 -18 -10 0 -10 0 0 -30 0 -30 30 0 30 0 0 -10 0 -10 60 0 60 0 0 -15 0
-16 25 -24 24 -25 16 0 15 0 0 -30 0 -30 -10 0 -10 0 0 -50 0 -50 -10 0 -10 0
0 -20 0 -20 -10 0 -10 0 0 -20 0 -20 -10 0 -10 0 0 -30 0 -30 -10 0 -10 0 0
-30 0 -30 -10 0 -10 0 0 -30 0 -30 -20 0 -20 0 0 -10 0 -10 -26 0 -25 0 -15
-14 -14 -15 0 -15 0 -16 96 0 95 0 15 14 14 15 0 43 0 44 20 14 20 14 0 38 0
38 10 0 10 0 0 20 0 20 10 0 10 0 0 26 0 26 40 38 40 38 0 16 0 16 60 0 60 0
0 -10 0 -10 40 0 40 0 0 10 0 10 10 0 10 0 0 -16 0 -16 40 -38 40 -38 0 -26 0
-26 10 0 10 0 0 -20 0 -20 10 0 10 0 0 -38 0 -38 20 -14 20 -14 0 -44 0 -43
14 -15 15 -14 95 0 96 0 0 16 0 15 -14 15 -15 14 -25 0 -26 0 0 10 0 10 -20 0
-20 0 0 30 0 30 -10 0 -10 0 0 30 0 30 -10 0 -10 0 0 30 0 30 -10 0 -10 0 0
20 0 20 -10 0 -10 0 0 20 0 20 -10 0 -10 0 0 35 0 36 35 34 34 35 36 0 35 0 0
10 0 10 40 0 40 0 0 18 0 18 -20 14 -20 14 0 28 0 28 -10 0 -10 0 0 18 0 18
-20 14 -20 14 0 26 0 26 -20 14 -20 14 0 16 0 16 -20 14 -20 14 0 16 0 16 -20
14 -20 14 0 28 0 28 -10 0 -10 0 0 26 0 25 14 15 15 14 21 0 21 0 34 35 35 34
0 12 0 11 30 28 30 28 0 14 0 14 20 14 20 14 0 28 0 28 -25 0 -25 0 -55 -55
-55 -55 0 -15 0 -15 -26 0 -27 0 -20 -22 -20 -23 -4 13 -5 12 -47 0 -47 0 -14
-20 -14 -20 -28 0 -28 0 0 28 0 28 20 14 20 14 0 34 0 33 -25 24 -24 25 -41 0
-41 0 -24 -25 -25 -24 0 -33 0 -34 20 -14 20 -14 0 -28 0 -28 -28 0 -28 0 -14
20 -14 20 -47 0 -47 0 -5 -12 -4 -13 -20 23 -20 22 -27 0 -26 0 0 15 0 15 -55
55 -55 55 -35 0 -35 0 0 -30z m115 -35 l45 -44 0 -11 0 -11 14 -15 15 -14 22
0 22 0 20 -22 20 -23 4 13 5 12 47 0 47 0 14 -20 14 -20 18 0 18 0 0 -8 0 -8
-20 -14 -20 -14 0 -13 0 -13 55 -55 55 -55 55 55 55 55 0 13 0 13 -20 14 -20
14 0 8 0 8 18 0 18 0 14 20 14 20 47 0 47 0 5 -12 4 -13 20 23 20 22 22 0 22
0 15 14 14 15 0 11 0 11 45 44 44 45 16 0 15 0 0 -6 0 -5 -14 -15 -15 -14 -15
0 -16 0 0 -10 0 -10 10 0 10 0 0 -16 0 -16 -30 -28 -30 -28 0 -11 0 -12 -25
-24 -24 -25 -21 0 -21 0 -34 -35 -35 -34 0 -31 0 -30 -75 -75 -75 -75 -5 0 -5
0 0 20 0 20 10 0 10 0 0 19 0 19 -12 6 -13 6 13 6 12 6 0 19 0 19 -10 0 -10 0
0 -16 0 -17 -22 -18 -21 -19 8 -8 8 -7 4 13 5 12 9 0 9 0 0 -20 0 -20 -10 0
-10 0 0 -19 0 -19 -12 -5 -13 -4 8 -9 8 -8 10 14 9 15 9 -15 10 -14 19 22 19
22 7 0 6 0 0 -30 0 -30 -110 0 -110 0 0 30 0 30 6 0 7 0 19 -22 19 -22 10 14
9 15 9 -15 10 -14 8 8 8 9 -12 4 -13 5 0 19 0 19 -10 0 -10 0 0 20 0 20 9 0 9
0 5 -12 4 -13 8 7 8 8 -21 19 -22 18 0 17 0 16 -10 0 -10 0 0 -19 0 -19 13 -6
12 -6 -12 -6 -13 -6 0 -19 0 -19 10 0 10 0 0 -20 0 -20 -5 0 -5 0 -75 75 -75
75 0 30 0 31 -45 44 -44 45 -21 0 -21 0 -24 25 -25 24 0 13 0 14 -20 14 -20
14 0 17 0 17 13 5 12 4 -9 9 -9 9 -4 -12 -5 -13 -9 0 -9 0 0 20 0 20 -20 0
-20 0 0 10 0 10 25 0 26 0 44 -45z m445 5 l0 -20 10 0 10 0 0 -15 0 -16 -35
-35 -35 -35 -35 35 -35 35 0 16 0 15 10 0 10 0 0 20 0 20 50 0 50 0 0 -20z
m-57 -132 l5 -13 10 14 10 14 16 -16 16 -16 0 -5 0 -6 -50 0 -50 0 0 5 0 6 13
14 12 14 7 1 6 0 5 -12z m64 -64 l16 -16 -14 -9 -14 -9 14 -9 14 -9 -26 -26
-26 -26 -21 0 -21 0 -15 14 -14 15 0 5 0 6 19 0 19 0 4 -12 5 -13 16 17 17 17
0 5 0 6 -50 0 -50 0 0 15 0 16 13 14 12 14 43 1 43 0 16 -16z m-287 -184 l0
-40 -10 0 -10 0 0 -36 0 -36 -40 -38 -40 -38 0 -26 0 -26 -10 0 -10 0 0 26 0
26 40 38 40 38 0 36 0 36 10 0 10 0 0 40 0 40 10 0 10 0 0 -40z m460 -70 l0
-30 10 0 10 0 0 -30 0 -30 10 0 10 0 0 -16 0 -16 40 -38 40 -38 0 -13 0 -12
22 -18 21 -19 -6 -6 -6 -6 -25 25 -26 26 0 11 0 12 -40 38 -40 38 0 16 0 16
-10 0 -10 0 0 30 0 30 -10 0 -10 0 0 30 0 30 10 0 10 0 0 -30z m-260 -80 l0
-10 -40 0 -40 0 0 10 0 10 40 0 40 0 0 -10z m40 0 l0 -10 -10 0 -10 0 0 10 0
10 10 0 10 0 0 -10z m100 0 l0 -10 -40 0 -40 0 0 10 0 10 40 0 40 0 0 -10z
m-220 -66 l0 -17 -22 -18 -21 -19 6 -7 7 -6 19 21 18 22 12 0 12 0 27 -27 26
-27 -12 -4 -12 -4 0 -15 0 -14 -16 -16 -16 -16 -8 14 -9 13 -8 -7 -7 -8 14
-10 15 -11 -12 -5 -13 -5 0 -19 0 -19 -10 0 -10 0 0 -16 0 -16 -40 -38 -40
-38 0 -26 0 -26 -10 0 -10 0 0 -16 0 -15 -14 -15 -15 -14 -15 0 -16 0 0 -10 0
-10 20 0 20 0 0 -10 0 -10 -16 0 -15 0 -16 16 -16 16 14 10 14 10 -12 5 -13 5
0 19 0 19 10 0 10 0 0 20 0 20 10 0 10 0 0 20 0 20 10 0 10 0 0 50 0 50 10 0
10 0 0 30 0 30 10 0 10 0 0 20 0 20 10 0 10 0 0 15 0 16 33 34 32 34 8 0 7 1
0 -16z m265 -19 l35 -34 0 -16 0 -15 10 0 10 0 0 -20 0 -20 10 0 10 0 0 -30 0
-30 10 0 10 0 0 -50 0 -50 10 0 10 0 0 -20 0 -20 10 0 10 0 0 -20 0 -20 10 0
10 0 0 -19 0 -19 -12 -5 -13 -5 14 -10 14 -10 -16 -16 -16 -16 -15 0 -16 0 0
10 0 10 20 0 20 0 0 10 0 10 -16 0 -15 0 -15 14 -14 15 0 15 0 16 -10 0 -10 0
0 26 0 26 -40 38 -40 38 0 16 0 16 -10 0 -10 0 0 19 0 19 -12 5 -13 5 15 11
14 10 -7 8 -8 7 -9 -13 -8 -14 -16 16 -16 16 0 14 0 15 -12 4 -12 4 44 46 45
47 3 0 3 1 34 -35z m-145 -55 l0 -10 -10 0 -10 0 0 10 0 10 10 0 10 0 0 -10z
m-300 -475 l0 -6 -26 -26 -25 -25 -6 5 -5 6 23 25 24 25 8 0 7 1 0 -5z m617
-21 l25 -25 -5 -6 -6 -5 -25 25 -26 26 0 6 0 5 5 0 6 0 26 -26z"/>
<path d="M460 985 l0 -16 25 -24 24 -25 16 0 15 0 0 10 0 10 -16 0 -15 0 -15
14 -14 15 0 15 0 16 -10 0 -10 0 0 -15z"/>
<path d="M820 984 l0 -15 -14 -15 -15 -14 -15 0 -16 0 0 -10 0 -10 15 0 16 0
24 25 25 24 0 16 0 15 -10 0 -10 0 0 -16z"/>
<path d="M620 1211 l0 -9 13 -5 12 -5 -14 -10 -14 -10 17 -17 17 -17 7 6 6 7
-14 9 -14 9 23 21 24 20 -7 7 -7 7 -10 -14 -11 -15 -5 13 -5 12 -9 0 -9 0 0
-9z"/>
<path d="M620 1010 l0 -10 40 0 40 0 0 10 0 10 -40 0 -40 0 0 -10z"/>
<path d="M540 530 l0 -10 10 0 10 0 0 10 0 10 -10 0 -10 0 0 -10z"/>
<path d="M453 465 l-13 -14 0 -46 0 -45 10 0 10 0 0 50 0 50 10 0 10 0 0 10 0
10 -7 0 -8 -1 -12 -14z"/>
<path d="M740 594 l0 -5 15 -16 16 -15 6 5 5 6 -15 16 -16 15 -5 0 -6 0 0 -6z"/>
<path d="M740 530 l0 -10 10 0 10 0 0 10 0 10 -10 0 -10 0 0 -10z"/>
<path d="M820 470 l0 -10 10 0 10 0 0 -50 0 -50 10 0 10 0 0 46 0 45 -14 15
-15 14 -5 0 -6 0 0 -10z"/>
</g>
</svg>
