<?xml version="1.0" standalone="no"?>
<!DOCTYPE svg PUBLIC "-//W3C//DTD SVG 20010904//EN"
 "http://www.w3.org/TR/2001/REC-SVG-20010904/DTD/svg10.dtd">
<svg version="1.0" xmlns="http://www.w3.org/2000/svg"
 width="468pt" height="468pt" viewBox="0 0 468 468"
 preserveAspectRatio="xMidYMid meet">
<metadata>
Created by potrace 1.8, written by Peter Selinger 2001-2007
</metadata>
<g transform="translate(0,468) scale(0.365625,-0.365625)"
fill="#000000" stroke="none">
<path d="M270 1265 l0 -15 -15 0 -15 0 0 -80 0 -80 15 0 15 0 0 -10 0 -10 50
0 50 0 0 10 0 10 15 0 15 0 0 15 0 15 -15 0 -15 0 0 -15 0 -15 -50 0 -50 0 0
80 0 80 50 0 50 0 0 -10 0 -10 15 0 15 0 0 10 0 10 -15 0 -15 0 0 15 0 15 -50
0 -50 0 0 -15z"/>
<path d="M450 1215 l0 -15 -10 0 -10 0 0 -51 0 -50 14 -15 15 -14 35 0 36 0 0
10 0 10 15 0 15 0 0 55 0 55 -15 0 -15 0 0 15 0 15 -40 0 -40 0 0 -15z m80
-70 l0 -55 -40 0 -40 0 0 55 0 55 40 0 40 0 0 -55z"/>
<path d="M590 1150 l0 -80 10 0 10 0 0 50 0 50 15 0 15 0 0 15 0 15 25 0 25 0
0 -65 0 -65 15 0 15 0 0 65 0 65 -15 0 -15 0 0 15 0 15 -25 0 -25 0 0 -15 0
-15 -15 0 -15 0 0 15 0 15 -10 0 -10 0 0 -80z"/>
<path d="M770 1215 l0 -15 -10 0 -10 0 0 -51 0 -50 14 -15 15 -14 25 0 26 0 0
10 0 10 10 0 10 0 0 -25 0 -25 -40 0 -40 0 0 -15 0 -15 40 0 40 0 0 15 0 15
15 0 15 0 0 95 0 95 -15 0 -15 0 0 -15 0 -15 -10 0 -10 0 0 -15 0 -15 10 0 10
0 0 -25 0 -25 -10 0 -10 0 0 -15 0 -15 -30 0 -30 0 0 55 0 55 30 0 30 0 0 15
0 15 -30 0 -30 0 0 -15z"/>
<path d="M930 1215 l0 -15 -10 0 -10 0 0 -51 0 -50 14 -15 15 -14 35 0 36 0 0
10 0 10 15 0 15 0 0 55 0 55 -15 0 -15 0 0 15 0 15 -40 0 -40 0 0 -15z m80
-70 l0 -55 -40 0 -40 0 0 55 0 55 40 0 40 0 0 -55z"/>
<path d="M0 535 l0 -425 640 0 640 0 0 425 0 425 -640 0 -640 0 0 -425z m50
385 l0 -10 -10 0 -10 0 0 10 0 10 10 0 10 0 0 -10z m110 0 l0 -10 -15 0 -15 0
0 10 0 10 15 0 15 0 0 -10z m110 0 l0 -10 -15 0 -15 0 0 10 0 10 15 0 15 0 0
-10z m100 0 l0 -10 -10 0 -10 0 0 10 0 10 10 0 10 0 0 -10z m110 0 l0 -10 -15
0 -15 0 0 10 0 10 15 0 15 0 0 -10z m110 0 l0 -10 -15 0 -15 0 0 10 0 10 15 0
15 0 0 -10z m100 0 l0 -10 -10 0 -10 0 0 10 0 10 10 0 10 0 0 -10z m190 0 l0
-10 15 0 15 0 0 10 0 10 39 0 39 0 6 -12 6 -13 6 13 6 12 39 0 39 0 0 -10 0
-10 15 0 15 0 0 10 0 10 40 0 40 0 0 -10 0 -10 14 0 14 0 5 13 4 12 9 -9 9 -9
-12 -4 -13 -5 0 -14 0 -14 10 0 10 0 0 -14 0 -14 -12 -6 -13 -6 13 -6 12 -6 0
-14 0 -14 -10 0 -10 0 0 -14 0 -14 13 -6 12 -6 -12 -6 -13 -6 0 -14 0 -14 10
0 10 0 0 -14 0 -14 -12 -6 -13 -6 13 -6 12 -6 0 -14 0 -14 -10 0 -10 0 0 -14
0 -14 13 -6 12 -6 -12 -6 -13 -6 0 -14 0 -14 10 0 10 0 0 -14 0 -14 -12 -6
-13 -6 13 -6 12 -6 0 -14 0 -14 -10 0 -10 0 0 -14 0 -14 13 -6 12 -6 -12 -6
-13 -6 0 -14 0 -14 10 0 10 0 0 -14 0 -14 -12 -6 -13 -6 13 -6 12 -6 0 -14 0
-14 -10 0 -10 0 0 -14 0 -14 13 -6 12 -6 -12 -6 -13 -6 0 -14 0 -14 10 0 10 0
0 -14 0 -14 -12 -6 -13 -6 13 -6 12 -6 0 -14 0 -14 -10 0 -10 0 0 -15 0 -15
-15 0 -15 0 0 15 0 15 -15 0 -15 0 0 -15 0 -15 -10 0 -10 0 0 15 0 15 -15 0
-15 0 0 -15 0 -15 -15 0 -15 0 0 15 0 15 -10 0 -10 0 0 -15 0 -15 -15 0 -15 0
0 15 0 15 -15 0 -15 0 0 -15 0 -15 -10 0 -10 0 0 15 0 15 -15 0 -15 0 0 -15 0
-15 -15 0 -15 0 0 15 0 15 -10 0 -10 0 0 -15 0 -15 -15 0 -15 0 0 15 0 15 -15
0 -15 0 0 -15 0 -15 -10 0 -10 0 0 15 0 15 -15 0 -15 0 0 -15 0 -15 -15 0 -15
0 0 15 0 15 -10 0 -10 0 0 -15 0 -15 -15 0 -15 0 0 15 0 15 -15 0 -15 0 0 -15
0 -15 -10 0 -10 0 0 15 0 15 -15 0 -15 0 0 -15 0 -15 -15 0 -15 0 0 15 0 15
-10 0 -10 0 0 -15 0 -15 -15 0 -15 0 0 15 0 15 -15 0 -15 0 0 -15 0 -15 -10 0
-10 0 0 15 0 15 -15 0 -15 0 0 15 0 15 -15 0 -15 0 0 -15 0 -15 15 0 15 0 0
-15 0 -15 -25 0 -25 0 0 15 0 15 -15 0 -15 0 0 -15 0 -15 -40 0 -40 0 0 15 0
15 -15 0 -15 0 0 -15 0 -15 -40 0 -40 0 0 15 0 15 -10 0 -10 0 0 -15 0 -15
-40 0 -40 0 0 15 0 15 -15 0 -15 0 0 -15 0 -15 -25 0 -25 0 0 15 0 15 10 0 10
0 0 15 0 15 30 0 30 0 0 25 0 25 -15 0 -15 0 0 15 0 15 15 0 15 0 0 -15 0 -15
10 0 10 0 0 -15 0 -15 15 0 15 0 0 15 0 15 -15 0 -15 0 0 15 0 15 15 0 15 0 0
10 0 10 25 0 25 0 0 29 0 29 -12 5 -13 4 9 9 9 9 4 -12 5 -13 14 0 14 0 0 10
0 10 15 0 15 0 0 15 0 15 25 0 25 0 0 25 0 25 -15 0 -15 0 0 15 0 15 15 0 15
0 0 -15 0 -15 14 0 14 0 5 -12 4 -13 9 9 9 9 -12 4 -13 5 0 14 0 14 10 0 10 0
0 15 0 15 30 0 30 0 0 25 0 25 -15 0 -15 0 0 15 0 15 15 0 15 0 0 -15 0 -15
10 0 10 0 0 -15 0 -15 15 0 15 0 0 15 0 15 -15 0 -15 0 0 15 0 15 15 0 15 0 0
10 0 10 25 0 25 0 0 29 0 29 -12 5 -13 4 9 9 9 9 4 -12 5 -13 14 0 14 0 0 10
0 10 15 0 15 0 0 15 0 15 25 0 25 0 0 25 0 25 -15 0 -15 0 0 15 0 15 15 0 15
0 0 -15 0 -15 14 0 14 0 5 -12 4 -13 9 9 9 9 -12 4 -13 5 0 14 0 14 10 0 10 0
0 15 0 15 30 0 30 0 0 25 0 25 -15 0 -15 0 0 15 0 15 15 0 15 0 0 -15 0 -15
10 0 10 0 0 -15 0 -15 15 0 15 0 0 15 0 15 -15 0 -15 0 0 15 0 15 15 0 15 0 0
10 0 10 40 0 40 0 0 -10z m-770 -25 l0 -15 -15 0 -15 0 0 15 0 15 15 0 15 0 0
-15z m100 0 l0 -15 -10 0 -10 0 0 15 0 15 10 0 10 0 0 -15z m110 0 l0 -15 -15
0 -15 0 0 15 0 15 15 0 15 0 0 -15z m110 0 l0 -15 -15 0 -15 0 0 15 0 15 15 0
15 0 0 -15z m100 0 l0 -15 -10 0 -10 0 0 15 0 15 10 0 10 0 0 -15z m110 0 l0
-15 -15 0 -15 0 0 15 0 15 15 0 15 0 0 -15z m-590 -30 l0 -15 -10 0 -10 0 0
15 0 15 10 0 10 0 0 -15z m110 0 l0 -15 -15 0 -15 0 0 15 0 15 15 0 15 0 0
-15z m110 0 l0 -15 -15 0 -15 0 0 15 0 15 15 0 15 0 0 -15z m100 0 l0 -15 -10
0 -10 0 0 15 0 15 10 0 10 0 0 -15z m110 0 l0 -15 -15 0 -15 0 0 15 0 15 15 0
15 0 0 -15z m110 0 l0 -15 -15 0 -15 0 0 15 0 15 15 0 15 0 0 -15z m100 0 l0
-15 -10 0 -10 0 0 15 0 15 10 0 10 0 0 -15z m-580 -25 l0 -10 -15 0 -15 0 0
10 0 10 15 0 15 0 0 -10z m100 0 l0 -10 -10 0 -10 0 0 10 0 10 10 0 10 0 0
-10z m110 0 l0 -10 -15 0 -15 0 0 10 0 10 15 0 15 0 0 -10z m110 0 l0 -10 -15
0 -15 0 0 10 0 10 15 0 15 0 0 -10z m100 0 l0 -10 -10 0 -10 0 0 10 0 10 10 0
10 0 0 -10z m110 0 l0 -10 -15 0 -15 0 0 10 0 10 15 0 15 0 0 -10z m-590 -25
l0 -15 -10 0 -10 0 0 15 0 15 10 0 10 0 0 -15z m110 0 l0 -15 -15 0 -15 0 0
15 0 15 15 0 15 0 0 -15z m110 0 l0 -15 -15 0 -15 0 0 15 0 15 15 0 15 0 0
-15z m100 0 l0 -15 -10 0 -10 0 0 15 0 15 10 0 10 0 0 -15z m110 0 l0 -15 -15
0 -15 0 0 15 0 15 15 0 15 0 0 -15z m110 0 l0 -15 -15 0 -15 0 0 15 0 15 15 0
15 0 0 -15z m-480 -30 l0 -15 -15 0 -15 0 0 15 0 15 15 0 15 0 0 -15z m100 0
l0 -15 -10 0 -10 0 0 15 0 15 10 0 10 0 0 -15z m110 0 l0 -15 -15 0 -15 0 0
15 0 15 15 0 15 0 0 -15z m110 0 l0 -15 -15 0 -15 0 0 15 0 15 15 0 15 0 0
-15z m100 0 l0 -15 -10 0 -10 0 0 15 0 15 10 0 10 0 0 -15z m-480 -25 l0 -10
-10 0 -10 0 0 10 0 10 10 0 10 0 0 -10z m110 0 l0 -10 -15 0 -15 0 0 10 0 10
15 0 15 0 0 -10z m110 0 l0 -10 -15 0 -15 0 0 10 0 10 15 0 15 0 0 -10z m100
0 l0 -10 -10 0 -10 0 0 10 0 10 10 0 10 0 0 -10z m110 0 l0 -10 -15 0 -15 0 0
10 0 10 15 0 15 0 0 -10z m110 0 l0 -10 -15 0 -15 0 0 10 0 10 15 0 15 0 0
-10z m-480 -25 l0 -15 -15 0 -15 0 0 15 0 15 15 0 15 0 0 -15z m100 0 l0 -15
-10 0 -10 0 0 15 0 15 10 0 10 0 0 -15z m110 0 l0 -15 -15 0 -15 0 0 15 0 15
15 0 15 0 0 -15z m110 0 l0 -15 -15 0 -15 0 0 15 0 15 15 0 15 0 0 -15z m100
0 l0 -15 -10 0 -10 0 0 15 0 15 10 0 10 0 0 -15z m-480 -30 l0 -15 -10 0 -10
0 0 15 0 15 10 0 10 0 0 -15z m110 0 l0 -15 -15 0 -15 0 0 15 0 15 15 0 15 0
0 -15z m110 0 l0 -15 -15 0 -15 0 0 15 0 15 15 0 15 0 0 -15z m100 0 l0 -15
-10 0 -10 0 0 15 0 15 10 0 10 0 0 -15z m110 0 l0 -15 -15 0 -15 0 0 15 0 15
15 0 15 0 0 -15z m-370 -25 l0 -10 -15 0 -15 0 0 10 0 10 15 0 15 0 0 -10z
m100 0 l0 -10 -10 0 -10 0 0 10 0 10 10 0 10 0 0 -10z m110 0 l0 -10 -15 0
-15 0 0 10 0 10 15 0 15 0 0 -10z m110 0 l0 -10 -15 0 -15 0 0 10 0 10 15 0
15 0 0 -10z m-380 -25 l0 -15 -10 0 -10 0 0 15 0 15 10 0 10 0 0 -15z m110 0
l0 -15 -15 0 -15 0 0 15 0 15 15 0 15 0 0 -15z m110 0 l0 -15 -15 0 -15 0 0
15 0 15 15 0 15 0 0 -15z m100 0 l0 -15 -10 0 -10 0 0 15 0 15 10 0 10 0 0
-15z m110 0 l0 -15 -15 0 -15 0 0 15 0 15 15 0 15 0 0 -15z m-370 -30 l0 -15
-15 0 -15 0 0 15 0 15 15 0 15 0 0 -15z m100 0 l0 -15 -10 0 -10 0 0 15 0 15
10 0 10 0 0 -15z m110 0 l0 -15 -15 0 -15 0 0 15 0 15 15 0 15 0 0 -15z m110
0 l0 -15 -15 0 -15 0 0 15 0 15 15 0 15 0 0 -15z m-380 -25 l0 -10 -10 0 -10
0 0 10 0 10 10 0 10 0 0 -10z m110 0 l0 -10 -15 0 -15 0 0 10 0 10 15 0 15 0
0 -10z m110 0 l0 -10 -15 0 -15 0 0 10 0 10 15 0 15 0 0 -10z m100 0 l0 -10
-10 0 -10 0 0 10 0 10 10 0 10 0 0 -10z m-260 -25 l0 -15 -15 0 -15 0 0 15 0
15 15 0 15 0 0 -15z m100 0 l0 -15 -10 0 -10 0 0 15 0 15 10 0 10 0 0 -15z
m110 0 l0 -15 -15 0 -15 0 0 15 0 15 15 0 15 0 0 -15z m-270 -30 l0 -15 -10 0
-10 0 0 15 0 15 10 0 10 0 0 -15z m110 0 l0 -15 -15 0 -15 0 0 15 0 15 15 0
15 0 0 -15z m110 0 l0 -15 -15 0 -15 0 0 15 0 15 15 0 15 0 0 -15z m100 0 l0
-15 -10 0 -10 0 0 15 0 15 10 0 10 0 0 -15z m-260 -25 l0 -10 -15 0 -15 0 0
10 0 10 15 0 15 0 0 -10z m100 0 l0 -10 -10 0 -10 0 0 10 0 10 10 0 10 0 0
-10z m110 0 l0 -10 -15 0 -15 0 0 10 0 10 15 0 15 0 0 -10z m-270 -25 l0 -15
-10 0 -10 0 0 15 0 15 10 0 10 0 0 -15z m110 0 l0 -15 -15 0 -15 0 0 15 0 15
15 0 15 0 0 -15z m110 0 l0 -15 -15 0 -15 0 0 15 0 15 15 0 15 0 0 -15z m-160
-30 l0 -15 -15 0 -15 0 0 15 0 15 15 0 15 0 0 -15z m100 0 l0 -15 -10 0 -10 0
0 15 0 15 10 0 10 0 0 -15z m-160 -25 l0 -10 -10 0 -10 0 0 10 0 10 10 0 10 0
0 -10z m110 0 l0 -10 -15 0 -15 0 0 10 0 10 15 0 15 0 0 -10z m110 0 l0 -10
-15 0 -15 0 0 10 0 10 15 0 15 0 0 -10z m-160 -25 l0 -15 -15 0 -15 0 0 15 0
15 15 0 15 0 0 -15z m100 0 l0 -15 -10 0 -10 0 0 15 0 15 10 0 10 0 0 -15z
m-160 -30 l0 -15 -10 0 -10 0 0 15 0 15 10 0 10 0 0 -15z m110 0 l0 -15 -15 0
-15 0 0 15 0 15 15 0 15 0 0 -15z m-50 -25 l0 -10 -15 0 -15 0 0 10 0 10 15 0
15 0 0 -10z m-60 -25 l0 -15 -10 0 -10 0 0 15 0 15 10 0 10 0 0 -15z m110 0
l0 -15 -15 0 -15 0 0 15 0 15 15 0 15 0 0 -15z m-50 -30 l0 -15 -15 0 -15 0 0
15 0 15 15 0 15 0 0 -15z m-60 -25 l0 -10 -10 0 -10 0 0 10 0 10 10 0 10 0 0
-10z m0 -55 l0 -15 -10 0 -10 0 0 15 0 15 10 0 10 0 0 -15z"/>
<path d="M830 895 l0 -15 10 0 10 0 0 15 0 15 -10 0 -10 0 0 -15z"/>
<path d="M930 895 l0 -15 15 0 15 0 0 15 0 15 -15 0 -15 0 0 -15z"/>
<path d="M1040 895 l0 -15 15 0 15 0 0 15 0 15 -15 0 -15 0 0 -15z"/>
<path d="M1150 895 l0 -15 10 0 10 0 0 15 0 15 -10 0 -10 0 0 -15z"/>
<path d="M880 865 l0 -15 15 0 15 0 0 15 0 15 -15 0 -15 0 0 -15z"/>
<path d="M990 865 l0 -15 10 0 10 0 0 15 0 15 -10 0 -10 0 0 -15z"/>
<path d="M1090 865 l0 -15 15 0 15 0 0 15 0 15 -15 0 -15 0 0 -15z"/>
<path d="M1200 865 l0 -15 -25 0 -25 0 0 -25 0 -25 -15 0 -15 0 0 15 0 15 -15
0 -15 0 0 -15 0 -15 15 0 15 0 0 -15 0 -15 -15 0 -15 0 0 -10 0 -10 -25 0 -25
0 0 -30 0 -30 -15 0 -15 0 0 15 0 15 -10 0 -10 0 0 -14 0 -14 13 -6 12 -6 -12
-6 -13 -6 0 -14 0 -14 -30 0 -30 0 0 -25 0 -25 -10 0 -10 0 0 10 0 10 -15 0
-15 0 0 -10 0 -10 15 0 15 0 0 -15 0 -15 -15 0 -15 0 0 -15 0 -15 -25 0 -25 0
0 -25 0 -25 -15 0 -15 0 0 15 0 15 -15 0 -15 0 0 -15 0 -15 15 0 15 0 0 -15 0
-15 -15 0 -15 0 0 -10 0 -10 -25 0 -25 0 0 -30 0 -30 -15 0 -15 0 0 15 0 15
-10 0 -10 0 0 -14 0 -14 13 -6 12 -6 -12 -6 -13 -6 0 -14 0 -14 -30 0 -30 0 0
-25 0 -25 -10 0 -10 0 0 10 0 10 -15 0 -15 0 0 -10 0 -10 15 0 15 0 0 -15 0
-15 -15 0 -15 0 0 -15 0 -15 -25 0 -25 0 0 -25 0 -25 10 0 10 0 0 15 0 15 15
0 15 0 0 -15 0 -15 15 0 15 0 0 15 0 15 -15 0 -15 0 0 10 0 10 15 0 15 0 0 15
0 15 10 0 10 0 0 -15 0 -15 15 0 15 0 0 -10 0 -10 -15 0 -15 0 0 -15 0 -15 15
0 15 0 0 15 0 15 15 0 15 0 0 -15 0 -15 10 0 10 0 0 15 0 15 15 0 15 0 0 -15
0 -15 15 0 15 0 0 15 0 15 -15 0 -15 0 0 10 0 10 15 0 15 0 0 15 0 15 10 0 10
0 0 -15 0 -15 15 0 15 0 0 -10 0 -10 -15 0 -15 0 0 -15 0 -15 15 0 15 0 0 15
0 15 15 0 15 0 0 -15 0 -15 10 0 10 0 0 15 0 15 15 0 15 0 0 -15 0 -15 15 0
15 0 0 15 0 15 -15 0 -15 0 0 10 0 10 15 0 15 0 0 15 0 15 10 0 10 0 0 -15 0
-15 15 0 15 0 0 -10 0 -10 -15 0 -15 0 0 -15 0 -15 15 0 15 0 0 15 0 15 15 0
15 0 0 -15 0 -15 10 0 10 0 0 15 0 15 15 0 15 0 0 -15 0 -15 15 0 15 0 0 15 0
15 -15 0 -15 0 0 10 0 10 15 0 15 0 0 15 0 15 10 0 10 0 0 -15 0 -15 15 0 15
0 0 -10 0 -10 -15 0 -15 0 0 -15 0 -15 15 0 15 0 0 15 0 15 15 0 15 0 0 -15 0
-15 10 0 10 0 0 15 0 15 15 0 15 0 0 -15 0 -15 15 0 15 0 0 15 0 15 -15 0 -15
0 0 10 0 10 15 0 15 0 0 15 0 15 -15 0 -15 0 0 15 0 15 15 0 15 0 0 10 0 10
-15 0 -15 0 0 15 0 15 15 0 15 0 0 15 0 15 -15 0 -15 0 0 10 0 10 15 0 15 0 0
15 0 15 -15 0 -15 0 0 15 0 15 15 0 15 0 0 10 0 10 -15 0 -15 0 0 15 0 15 15
0 15 0 0 15 0 15 -15 0 -15 0 0 10 0 10 15 0 15 0 0 15 0 15 -15 0 -15 0 0 15
0 15 15 0 15 0 0 10 0 10 -15 0 -15 0 0 15 0 15 15 0 15 0 0 15 0 15 -15 0
-15 0 0 10 0 10 15 0 15 0 0 15 0 15 -15 0 -15 0 0 15 0 15 15 0 15 0 0 10 0
10 -15 0 -15 0 0 15 0 15 15 0 15 0 0 15 0 15 -15 0 -15 0 0 10 0 10 15 0 15
0 0 15 0 15 -15 0 -15 0 0 -15z m0 -50 l0 -15 -15 0 -15 0 0 -15 0 -15 15 0
15 0 0 -10 0 -10 -15 0 -15 0 0 -15 0 -15 15 0 15 0 0 -15 0 -15 -15 0 -15 0
0 15 0 15 -10 0 -10 0 0 -15 0 -15 -15 0 -15 0 0 -10 0 -10 15 0 15 0 0 -15 0
-15 10 0 10 0 0 15 0 15 15 0 15 0 0 -15 0 -15 -15 0 -15 0 0 -15 0 -15 15 0
15 0 0 -10 0 -10 -15 0 -15 0 0 -15 0 -15 15 0 15 0 0 -15 0 -15 -15 0 -15 0
0 15 0 15 -10 0 -10 0 0 -15 0 -15 -15 0 -15 0 0 -10 0 -10 15 0 15 0 0 -15 0
-15 10 0 10 0 0 15 0 15 15 0 15 0 0 -15 0 -15 -15 0 -15 0 0 -15 0 -15 15 0
15 0 0 -10 0 -10 -15 0 -15 0 0 -15 0 -15 15 0 15 0 0 -15 0 -15 -15 0 -15 0
0 15 0 15 -10 0 -10 0 0 -15 0 -15 -15 0 -15 0 0 -10 0 -10 15 0 15 0 0 -15 0
-15 10 0 10 0 0 15 0 15 15 0 15 0 0 -15 0 -15 -15 0 -15 0 0 -15 0 -15 15 0
15 0 0 -10 0 -10 -15 0 -15 0 0 -15 0 -15 15 0 15 0 0 -15 0 -15 -14 0 -14 0
-6 -12 -6 -13 -6 13 -6 12 -14 0 -14 0 0 15 0 15 -15 0 -15 0 0 15 0 15 15 0
15 0 0 10 0 10 -15 0 -15 0 0 15 0 15 -10 0 -10 0 0 -15 0 -15 -15 0 -15 0 0
-10 0 -10 15 0 15 0 0 -15 0 -15 -15 0 -15 0 0 -15 0 -15 -14 0 -14 0 -6 -12
-6 -13 -6 13 -6 12 -14 0 -14 0 0 15 0 15 -15 0 -15 0 0 15 0 15 15 0 15 0 0
10 0 10 -15 0 -15 0 0 15 0 15 -10 0 -10 0 0 -15 0 -15 -15 0 -15 0 0 -10 0
-10 15 0 15 0 0 -15 0 -15 -15 0 -15 0 0 -15 0 -15 -14 0 -14 0 -6 -12 -6 -13
-6 13 -6 12 -14 0 -14 0 0 15 0 15 -15 0 -15 0 0 15 0 15 15 0 15 0 0 10 0 10
-15 0 -15 0 0 15 0 15 -10 0 -10 0 0 -15 0 -15 -15 0 -15 0 0 -10 0 -10 15 0
15 0 0 -15 0 -15 -15 0 -15 0 0 -15 0 -15 -14 0 -14 0 -6 -12 -6 -13 -6 13 -6
12 -14 0 -14 0 0 15 0 15 -15 0 -15 0 0 15 0 15 15 0 15 0 0 10 0 10 15 0 15
0 0 15 0 15 10 0 10 0 0 15 0 15 15 0 15 0 0 10 0 10 15 0 15 0 0 15 0 15 10
0 10 0 0 15 0 15 15 0 15 0 0 10 0 10 15 0 15 0 0 15 0 15 10 0 10 0 0 15 0
15 15 0 15 0 0 10 0 10 15 0 15 0 0 15 0 15 10 0 10 0 0 15 0 15 15 0 15 0 0
10 0 10 15 0 15 0 0 15 0 15 10 0 10 0 0 15 0 15 15 0 15 0 0 10 0 10 15 0 15
0 0 15 0 15 10 0 10 0 0 15 0 15 15 0 15 0 0 10 0 10 15 0 15 0 0 15 0 15 10
0 10 0 0 15 0 15 15 0 15 0 0 -15z m-30 -135 l0 -10 -10 0 -10 0 0 10 0 10 10
0 10 0 0 -10z m0 -160 l0 -10 -10 0 -10 0 0 10 0 10 10 0 10 0 0 -10z m0 -160
l0 -10 -10 0 -10 0 0 10 0 10 10 0 10 0 0 -10z m-400 -80 l0 -10 -10 0 -10 0
0 10 0 10 10 0 10 0 0 -10z m160 0 l0 -10 -10 0 -10 0 0 10 0 10 10 0 10 0 0
-10z m160 0 l0 -10 -10 0 -10 0 0 10 0 10 10 0 10 0 0 -10z"/>
<path d="M1150 760 l0 -10 -15 0 -15 0 0 -15 0 -15 -15 0 -15 0 0 -11 0 -10
-14 -15 -15 -14 -10 0 -11 0 0 -15 0 -15 -15 0 -15 0 0 -11 0 -10 -14 -15 -15
-14 -10 0 -11 0 0 -15 0 -15 -15 0 -15 0 0 -11 0 -10 -14 -15 -15 -14 -10 0
-11 0 0 -15 0 -15 -15 0 -15 0 0 -11 0 -10 -14 -15 -15 -14 -10 0 -11 0 0 -15
0 -15 -15 0 -15 0 0 -11 0 -10 -14 -15 -15 -14 -10 0 -11 0 0 -15 0 -15 -15 0
-15 0 0 -11 0 -10 -14 -15 -15 -14 -10 0 -11 0 0 -15 0 -15 15 0 15 0 0 -15 0
-15 10 0 10 0 0 15 0 15 15 0 15 0 0 15 0 15 -15 0 -15 0 0 -15 0 -15 -10 0
-10 0 0 11 0 10 14 15 15 14 10 0 11 0 0 15 0 15 15 0 15 0 0 11 0 10 14 15
15 14 10 0 11 0 0 -10 0 -10 -15 0 -15 0 0 -15 0 -15 15 0 15 0 0 -15 0 -15
15 0 15 0 0 15 0 15 10 0 10 0 0 -15 0 -15 15 0 15 0 0 15 0 15 15 0 15 0 0
15 0 15 -15 0 -15 0 0 10 0 10 15 0 15 0 0 15 0 15 10 0 10 0 0 -15 0 -15 15
0 15 0 0 -10 0 -10 -15 0 -15 0 0 -15 0 -15 15 0 15 0 0 -15 0 -15 15 0 15 0
0 15 0 15 10 0 10 0 0 -15 0 -15 15 0 15 0 0 15 0 15 15 0 15 0 0 15 0 15 -15
0 -15 0 0 10 0 10 15 0 15 0 0 15 0 15 10 0 10 0 0 -15 0 -15 15 0 15 0 0 15
0 15 15 0 15 0 0 14 0 14 13 6 12 6 -12 6 -13 6 0 14 0 14 -15 0 -15 0 0 15 0
15 -15 0 -15 0 0 -15 0 -15 -10 0 -10 0 0 15 0 15 -15 0 -15 0 0 10 0 10 15 0
15 0 0 15 0 15 10 0 10 0 0 -15 0 -15 15 0 15 0 0 15 0 15 15 0 15 0 0 14 0
14 13 6 12 6 -12 6 -13 6 0 14 0 14 -15 0 -15 0 0 15 0 15 -15 0 -15 0 0 -15
0 -15 -10 0 -10 0 0 11 0 10 14 15 15 14 10 0 11 0 0 15 0 15 15 0 15 0 0 15
0 15 10 0 10 0 0 10 0 10 -10 0 -10 0 0 -10z m-80 -135 l0 -15 -15 0 -15 0 0
-10 0 -10 15 0 15 0 0 -15 0 -15 -15 0 -15 0 0 -15 0 -15 -15 0 -15 0 0 15 0
15 -10 0 -10 0 0 -15 0 -15 -15 0 -15 0 0 -10 0 -10 15 0 15 0 0 -15 0 -15 10
0 10 0 0 15 0 15 15 0 15 0 0 -15 0 -15 15 0 15 0 0 -15 0 -15 -15 0 -15 0 0
-10 0 -10 15 0 15 0 0 -15 0 -15 -15 0 -15 0 0 -15 0 -15 -15 0 -15 0 0 15 0
15 -10 0 -10 0 0 -15 0 -15 -15 0 -15 0 0 15 0 15 -15 0 -15 0 0 15 0 15 15 0
15 0 0 10 0 10 -15 0 -15 0 0 15 0 15 -10 0 -10 0 0 -15 0 -15 -15 0 -15 0 0
-10 0 -10 15 0 15 0 0 -15 0 -15 -15 0 -15 0 0 -15 0 -15 -15 0 -15 0 0 15 0
15 -10 0 -10 0 0 -15 0 -15 -15 0 -15 0 0 15 0 15 15 0 15 0 0 11 0 10 14 15
15 14 10 0 11 0 0 15 0 15 15 0 15 0 0 11 0 10 14 15 15 14 10 0 11 0 0 15 0
15 15 0 15 0 0 11 0 10 14 15 15 14 10 0 11 0 0 15 0 15 15 0 15 0 0 -15z m50
0 l0 -15 15 0 15 0 0 -10 0 -10 -15 0 -15 0 0 -15 0 -15 -15 0 -15 0 0 14 0
14 -12 6 -13 6 13 6 12 6 0 14 0 14 15 0 15 0 0 -15z m-110 -105 l0 -10 -10 0
-10 0 0 10 0 10 10 0 10 0 0 -10z m110 -55 l0 -15 15 0 15 0 0 -10 0 -10 -15
0 -15 0 0 -15 0 -15 -15 0 -15 0 0 14 0 14 -12 6 -13 6 13 6 12 6 0 14 0 14
15 0 15 0 0 -15z m-190 -25 l0 -10 -10 0 -10 0 0 10 0 10 10 0 10 0 0 -10z
m-80 -80 l0 -10 15 0 15 0 0 -15 0 -15 -15 0 -15 0 0 15 0 15 -10 0 -10 0 0
-15 0 -15 -15 0 -15 0 0 15 0 15 15 0 15 0 0 10 0 10 10 0 10 0 0 -10z m160 0
l0 -10 15 0 15 0 0 -15 0 -15 -15 0 -15 0 0 15 0 15 -10 0 -10 0 0 -15 0 -15
-15 0 -15 0 0 15 0 15 15 0 15 0 0 10 0 10 10 0 10 0 0 -10z"/>
<path d="M1010 575 l0 -15 15 0 15 0 0 15 0 15 -15 0 -15 0 0 -15z"/>
<path d="M930 495 l0 -15 15 0 15 0 0 -15 0 -15 15 0 15 0 0 15 0 15 -15 0
-15 0 0 15 0 15 -15 0 -15 0 0 -15z"/>
<path d="M1010 469 l0 -10 -14 -15 -15 -14 -10 0 -11 0 0 -15 0 -15 15 0 15 0
0 11 0 10 14 15 15 14 10 0 11 0 0 15 0 15 -15 0 -15 0 0 -11z"/>
<path d="M850 415 l0 -15 15 0 15 0 0 15 0 15 -15 0 -15 0 0 -15z"/>
<path d="M1010 415 l0 -15 15 0 15 0 0 15 0 15 -15 0 -15 0 0 -15z"/>
<path d="M1090 600 l0 -10 15 0 15 0 0 10 0 10 -15 0 -15 0 0 -10z"/>
<path d="M1090 440 l0 -10 15 0 15 0 0 10 0 10 -15 0 -15 0 0 -10z"/>
<path d="M1070 520 l0 -10 10 0 10 0 0 10 0 10 -10 0 -10 0 0 -10z"/>
<path d="M910 360 l0 -10 10 0 10 0 0 10 0 10 -10 0 -10 0 0 -10z"/>
<path d="M1070 360 l0 -10 10 0 10 0 0 -15 0 -15 15 0 15 0 0 -15 0 -15 15 0
15 0 0 -10 0 -10 -15 0 -15 0 0 -15 0 -15 15 0 15 0 0 -15 0 -15 10 0 10 0 0
15 0 15 -10 0 -10 0 0 14 0 14 13 6 12 6 -12 6 -13 6 0 14 0 14 -15 0 -15 0 0
15 0 15 -15 0 -15 0 0 10 0 10 -10 0 -10 0 0 -10z"/>
<path d="M830 280 l0 -10 -15 0 -15 0 0 -15 0 -15 15 0 15 0 0 -15 0 -15 10 0
10 0 0 15 0 15 15 0 15 0 0 15 0 15 -15 0 -15 0 0 10 0 10 -10 0 -10 0 0 -10z
m20 -25 l0 -15 -10 0 -10 0 0 15 0 15 10 0 10 0 0 -15z"/>
<path d="M990 280 l0 -10 -15 0 -15 0 0 -15 0 -15 15 0 15 0 0 -15 0 -15 10 0
10 0 0 15 0 15 15 0 15 0 0 15 0 15 -15 0 -15 0 0 10 0 10 -10 0 -10 0 0 -10z
m20 -25 l0 -15 -10 0 -10 0 0 15 0 15 10 0 10 0 0 -15z"/>
<path d="M830 840 l0 -10 10 0 10 0 0 10 0 10 -10 0 -10 0 0 -10z"/>
<path d="M930 840 l0 -10 15 0 15 0 0 10 0 10 -15 0 -15 0 0 -10z"/>
<path d="M1040 840 l0 -10 15 0 15 0 0 10 0 10 -15 0 -15 0 0 -10z"/>
<path d="M770 815 l0 -15 15 0 15 0 0 15 0 15 -15 0 -15 0 0 -15z"/>
<path d="M880 815 l0 -15 15 0 15 0 0 15 0 15 -15 0 -15 0 0 -15z"/>
<path d="M990 815 l0 -15 10 0 10 0 0 15 0 15 -10 0 -10 0 0 -15z"/>
<path d="M720 785 l0 -15 15 0 15 0 0 15 0 15 -15 0 -15 0 0 -15z"/>
<path d="M830 785 l0 -15 10 0 10 0 0 15 0 15 -10 0 -10 0 0 -15z"/>
<path d="M930 785 l0 -15 15 0 15 0 0 15 0 15 -15 0 -15 0 0 -15z"/>
<path d="M1040 785 l0 -15 15 0 15 0 0 15 0 15 -15 0 -15 0 0 -15z"/>
<path d="M770 760 l0 -10 15 0 15 0 0 10 0 10 -15 0 -15 0 0 -10z"/>
<path d="M880 760 l0 -10 15 0 15 0 0 10 0 10 -15 0 -15 0 0 -10z"/>
<path d="M990 760 l0 -10 10 0 10 0 0 10 0 10 -10 0 -10 0 0 -10z"/>
<path d="M720 735 l0 -15 15 0 15 0 0 15 0 15 -15 0 -15 0 0 -15z"/>
<path d="M830 735 l0 -15 10 0 10 0 0 15 0 15 -10 0 -10 0 0 -15z"/>
<path d="M930 735 l0 -15 15 0 15 0 0 15 0 15 -15 0 -15 0 0 -15z"/>
<path d="M670 705 l0 -15 10 0 10 0 0 15 0 15 -10 0 -10 0 0 -15z"/>
<path d="M770 705 l0 -15 15 0 15 0 0 15 0 15 -15 0 -15 0 0 -15z"/>
<path d="M880 705 l0 -15 15 0 15 0 0 15 0 15 -15 0 -15 0 0 -15z"/>
<path d="M610 680 l0 -10 15 0 15 0 0 10 0 10 -15 0 -15 0 0 -10z"/>
<path d="M720 680 l0 -10 15 0 15 0 0 10 0 10 -15 0 -15 0 0 -10z"/>
<path d="M830 680 l0 -10 10 0 10 0 0 10 0 10 -10 0 -10 0 0 -10z"/>
<path d="M930 680 l0 -10 15 0 15 0 0 10 0 10 -15 0 -15 0 0 -10z"/>
<path d="M560 655 l0 -15 15 0 15 0 0 15 0 15 -15 0 -15 0 0 -15z"/>
<path d="M670 655 l0 -15 10 0 10 0 0 15 0 15 -10 0 -10 0 0 -15z"/>
<path d="M770 655 l0 -15 15 0 15 0 0 15 0 15 -15 0 -15 0 0 -15z"/>
<path d="M880 655 l0 -15 15 0 15 0 0 15 0 15 -15 0 -15 0 0 -15z"/>
<path d="M610 625 l0 -15 15 0 15 0 0 15 0 15 -15 0 -15 0 0 -15z"/>
<path d="M720 625 l0 -15 15 0 15 0 0 15 0 15 -15 0 -15 0 0 -15z"/>
<path d="M830 625 l0 -15 10 0 10 0 0 15 0 15 -10 0 -10 0 0 -15z"/>
<path d="M560 600 l0 -10 15 0 15 0 0 10 0 10 -15 0 -15 0 0 -10z"/>
<path d="M670 600 l0 -10 10 0 10 0 0 10 0 10 -10 0 -10 0 0 -10z"/>
<path d="M770 600 l0 -10 15 0 15 0 0 10 0 10 -15 0 -15 0 0 -10z"/>
<path d="M510 575 l0 -15 10 0 10 0 0 15 0 15 -10 0 -10 0 0 -15z"/>
<path d="M610 575 l0 -15 15 0 15 0 0 15 0 15 -15 0 -15 0 0 -15z"/>
<path d="M720 575 l0 -15 15 0 15 0 0 15 0 15 -15 0 -15 0 0 -15z"/>
<path d="M830 575 l0 -15 10 0 10 0 0 15 0 15 -10 0 -10 0 0 -15z"/>
<path d="M560 545 l0 -15 15 0 15 0 0 15 0 15 -15 0 -15 0 0 -15z"/>
<path d="M670 545 l0 -15 10 0 10 0 0 15 0 15 -10 0 -10 0 0 -15z"/>
<path d="M770 545 l0 -15 15 0 15 0 0 15 0 15 -15 0 -15 0 0 -15z"/>
<path d="M510 520 l0 -10 10 0 10 0 0 10 0 10 -10 0 -10 0 0 -10z"/>
<path d="M610 520 l0 -10 15 0 15 0 0 10 0 10 -15 0 -15 0 0 -10z"/>
<path d="M720 520 l0 -10 15 0 15 0 0 10 0 10 -15 0 -15 0 0 -10z"/>
<path d="M450 495 l0 -15 15 0 15 0 0 15 0 15 -15 0 -15 0 0 -15z"/>
<path d="M560 495 l0 -15 15 0 15 0 0 15 0 15 -15 0 -15 0 0 -15z"/>
<path d="M670 495 l0 -15 10 0 10 0 0 15 0 15 -10 0 -10 0 0 -15z"/>
<path d="M400 465 l0 -15 15 0 15 0 0 15 0 15 -15 0 -15 0 0 -15z"/>
<path d="M510 465 l0 -15 10 0 10 0 0 15 0 15 -10 0 -10 0 0 -15z"/>
<path d="M610 465 l0 -15 15 0 15 0 0 15 0 15 -15 0 -15 0 0 -15z"/>
<path d="M720 465 l0 -15 15 0 15 0 0 15 0 15 -15 0 -15 0 0 -15z"/>
<path d="M450 440 l0 -10 15 0 15 0 0 10 0 10 -15 0 -15 0 0 -10z"/>
<path d="M560 440 l0 -10 15 0 15 0 0 10 0 10 -15 0 -15 0 0 -10z"/>
<path d="M670 440 l0 -10 10 0 10 0 0 10 0 10 -10 0 -10 0 0 -10z"/>
<path d="M400 415 l0 -15 15 0 15 0 0 15 0 15 -15 0 -15 0 0 -15z"/>
<path d="M510 415 l0 -15 10 0 10 0 0 15 0 15 -10 0 -10 0 0 -15z"/>
<path d="M610 415 l0 -15 15 0 15 0 0 15 0 15 -15 0 -15 0 0 -15z"/>
<path d="M350 385 l0 -15 10 0 10 0 0 15 0 15 -10 0 -10 0 0 -15z"/>
<path d="M450 385 l0 -15 15 0 15 0 0 15 0 15 -15 0 -15 0 0 -15z"/>
<path d="M560 385 l0 -15 15 0 15 0 0 15 0 15 -15 0 -15 0 0 -15z"/>
<path d="M290 360 l0 -10 15 0 15 0 0 10 0 10 -15 0 -15 0 0 -10z"/>
<path d="M400 360 l0 -10 15 0 15 0 0 10 0 10 -15 0 -15 0 0 -10z"/>
<path d="M510 360 l0 -10 10 0 10 0 0 10 0 10 -10 0 -10 0 0 -10z"/>
<path d="M610 360 l0 -10 15 0 15 0 0 10 0 10 -15 0 -15 0 0 -10z"/>
<path d="M240 335 l0 -15 15 0 15 0 0 15 0 15 -15 0 -15 0 0 -15z"/>
<path d="M350 335 l0 -15 10 0 10 0 0 15 0 15 -10 0 -10 0 0 -15z"/>
<path d="M450 335 l0 -15 15 0 15 0 0 15 0 15 -15 0 -15 0 0 -15z"/>
<path d="M560 335 l0 -15 15 0 15 0 0 15 0 15 -15 0 -15 0 0 -15z"/>
<path d="M290 305 l0 -15 15 0 15 0 0 15 0 15 -15 0 -15 0 0 -15z"/>
<path d="M400 305 l0 -15 15 0 15 0 0 15 0 15 -15 0 -15 0 0 -15z"/>
<path d="M510 305 l0 -15 10 0 10 0 0 15 0 15 -10 0 -10 0 0 -15z"/>
<path d="M240 280 l0 -10 15 0 15 0 0 10 0 10 -15 0 -15 0 0 -10z"/>
<path d="M350 280 l0 -10 10 0 10 0 0 10 0 10 -10 0 -10 0 0 -10z"/>
<path d="M450 280 l0 -10 15 0 15 0 0 10 0 10 -15 0 -15 0 0 -10z"/>
<path d="M190 255 l0 -15 10 0 10 0 0 15 0 15 -10 0 -10 0 0 -15z"/>
<path d="M290 255 l0 -15 15 0 15 0 0 15 0 15 -15 0 -15 0 0 -15z"/>
<path d="M400 255 l0 -15 15 0 15 0 0 15 0 15 -15 0 -15 0 0 -15z"/>
<path d="M510 255 l0 -15 10 0 10 0 0 15 0 15 -10 0 -10 0 0 -15z"/>
<path d="M240 225 l0 -15 15 0 15 0 0 15 0 15 -15 0 -15 0 0 -15z"/>
<path d="M350 225 l0 -15 10 0 10 0 0 15 0 15 -10 0 -10 0 0 -15z"/>
<path d="M450 225 l0 -15 15 0 15 0 0 15 0 15 -15 0 -15 0 0 -15z"/>
<path d="M190 200 l0 -10 10 0 10 0 0 10 0 10 -10 0 -10 0 0 -10z"/>
<path d="M290 200 l0 -10 15 0 15 0 0 10 0 10 -15 0 -15 0 0 -10z"/>
<path d="M400 200 l0 -10 15 0 15 0 0 10 0 10 -15 0 -15 0 0 -10z"/>
<path d="M590 200 l0 -10 10 0 10 0 0 10 0 10 -10 0 -10 0 0 -10z"/>
<path d="M750 200 l0 -10 10 0 10 0 0 10 0 10 -10 0 -10 0 0 -10z"/>
<path d="M910 200 l0 -10 10 0 10 0 0 10 0 10 -10 0 -10 0 0 -10z"/>
<path d="M1070 200 l0 -10 10 0 10 0 0 10 0 10 -10 0 -10 0 0 -10z"/>
<path d="M130 175 l0 -15 15 0 15 0 0 15 0 15 -15 0 -15 0 0 -15z"/>
<path d="M240 175 l0 -15 15 0 15 0 0 15 0 15 -15 0 -15 0 0 -15z"/>
<path d="M350 175 l0 -15 10 0 10 0 0 15 0 15 -10 0 -10 0 0 -15z"/>
</g>
</svg>
