<?xml version="1.0" standalone="no"?>
<!DOCTYPE svg PUBLIC "-//W3C//DTD SVG 20010904//EN"
 "http://www.w3.org/TR/2001/REC-SVG-20010904/DTD/svg10.dtd">
<svg version="1.0" xmlns="http://www.w3.org/2000/svg"
 width="468pt" height="468pt" viewBox="0 0 468 468"
 preserveAspectRatio="xMidYMid meet">
<metadata>
Created by potrace 1.8, written by Peter Selinger 2001-2007
</metadata>
<g transform="translate(0,468) scale(0.365625,-0.365625)"
fill="#000000" stroke="none">
<path d="M1023 1114 l-143 -144 0 -15 0 -15 -10 0 -10 0 0 -20 0 -20 -10 0
-10 0 0 -20 0 -20 -10 0 -10 0 0 -20 0 -20 -10 0 -10 0 0 -18 0 -18 -20 -14
-20 -14 0 -18 0 -18 -10 0 -10 0 0 -20 0 -20 20 0 20 0 0 10 0 10 18 0 18 0
14 20 14 20 18 0 18 0 0 10 0 10 20 0 20 0 0 10 0 10 20 0 20 0 0 10 0 10 20
0 20 0 0 10 0 10 15 0 15 0 115 115 115 115 0 105 0 105 -47 -1 -48 -1 -142
-144z m53 -100 l66 -65 -5 -6 -6 -5 -65 66 -66 66 0 5 0 5 5 0 5 0 66 -66z
m-40 -40 l66 -65 -5 -6 -6 -5 -65 66 -66 66 0 5 0 5 5 0 5 0 66 -66z m-81 -79
l45 -44 0 -16 0 -15 -20 0 -20 0 0 -10 0 -10 -20 0 -20 0 0 -10 0 -10 -20 0
-20 0 0 -10 0 -10 -16 0 -15 0 -15 14 -14 15 0 15 0 16 10 0 10 0 0 20 0 20
10 0 10 0 0 20 0 20 10 0 10 0 0 20 0 20 15 0 16 0 44 -45z"/>
<path d="M440 910 l0 -10 -20 0 -20 0 0 -10 0 -10 -18 0 -18 0 -14 -20 -14
-20 -14 0 -13 0 -26 -26 -25 -25 6 -6 6 -6 19 21 18 22 14 0 15 0 14 20 14 20
54 0 53 0 24 -25 25 -24 0 -16 0 -15 10 0 10 0 0 -20 0 -20 -10 0 -10 0 0 -20
0 -20 -20 0 -20 0 0 10 0 10 -40 0 -40 0 0 -10 0 -10 -20 0 -20 0 0 -10 0 -10
-20 0 -20 0 0 -10 0 -10 -16 0 -15 0 -16 -15 -15 -16 7 -7 8 -7 4 13 5 12 19
0 19 0 0 10 0 10 50 0 50 0 0 -16 0 -17 23 -20 22 -20 -12 -4 -13 -5 0 -19 0
-19 -10 0 -10 0 0 -20 0 -20 -10 0 -10 0 0 -20 0 -20 -10 0 -10 0 0 -20 0 -20
-10 0 -10 0 0 -20 0 -20 -10 0 -10 0 0 -20 0 -20 -10 0 -10 0 0 -20 0 -20 -10
0 -10 0 0 -20 0 -20 -10 0 -10 0 0 -20 0 -20 -40 0 -40 0 0 -10 0 -10 -20 0
-20 0 0 -10 0 -10 -15 0 -16 0 -44 -45 -45 -44 0 -6 0 -5 20 0 20 0 0 10 0 10
40 0 40 0 0 10 0 10 86 0 87 0 18 -22 19 -21 19 21 18 22 12 0 12 0 24 25 25
24 0 6 0 5 -20 0 -20 0 0 10 0 10 -20 0 -20 0 0 10 0 10 -30 0 -30 0 0 20 0
20 10 0 10 0 0 20 0 20 10 0 10 0 0 20 0 20 10 0 10 0 0 16 0 15 14 15 15 14
141 0 141 0 15 -14 14 -15 0 -15 0 -16 10 0 10 0 0 -20 0 -20 10 0 10 0 0 -20
0 -20 10 0 10 0 0 -20 0 -20 10 0 10 0 0 -20 0 -20 10 0 10 0 0 -15 0 -16 25
-24 24 -25 16 0 15 0 0 -10 0 -10 30 0 30 0 0 10 0 10 15 0 16 0 24 25 25 24
0 16 0 15 10 0 10 0 0 30 0 30 -8 0 -8 0 -14 -20 -14 -20 -24 0 -23 0 -34 35
-35 34 0 16 0 15 -10 0 -10 0 0 20 0 20 -10 0 -10 0 0 20 0 20 -10 0 -10 0 0
20 0 20 -10 0 -10 0 0 20 0 20 -10 0 -10 0 0 20 0 20 -10 0 -10 0 0 20 0 20
-10 0 -10 0 0 20 0 20 -10 0 -10 0 0 20 0 20 -10 0 -10 0 0 20 0 20 -10 0 -10
0 0 20 0 20 -10 0 -10 0 0 20 0 20 -10 0 -10 0 0 20 0 20 -10 0 -10 0 0 20 0
20 -10 0 -10 0 0 15 0 16 -25 24 -24 25 -16 0 -15 0 0 10 0 10 -60 0 -60 0 0
-10z m140 -230 l0 -20 10 0 10 0 0 -20 0 -20 10 0 10 0 0 -20 0 -20 10 0 10 0
0 -20 0 -20 10 0 10 0 0 -20 0 -20 10 0 10 0 0 -20 0 -20 10 0 10 0 0 -10 0
-10 -130 0 -130 0 0 10 0 10 10 0 10 0 0 20 0 20 10 0 10 0 0 20 0 20 10 0 10
0 0 20 0 20 10 0 10 0 0 20 0 20 10 0 10 0 0 20 0 20 10 0 10 0 0 20 0 20 10
0 10 0 0 -20z"/>
</g>
</svg>
