<?xml version="1.0" standalone="no"?>
<!DOCTYPE svg PUBLIC "-//W3C//DTD SVG 20010904//EN"
 "http://www.w3.org/TR/2001/REC-SVG-20010904/DTD/svg10.dtd">
<svg version="1.0" xmlns="http://www.w3.org/2000/svg"
 width="468pt" height="468pt" viewBox="0 0 468 468"
 preserveAspectRatio="xMidYMid meet">
<metadata>
Created by potrace 1.8, written by Peter Selinger 2001-2007
</metadata>
<g transform="translate(0,468) scale(0.365625,-0.365625)"
fill="#000000" stroke="none">
<path d="M280 1250 l0 -10 10 0 10 0 0 10 0 10 -10 0 -10 0 0 -10z"/>
<path d="M1000 1250 l0 -10 10 0 10 0 0 10 0 10 -10 0 -10 0 0 -10z"/>
<path d="M1040 1250 l0 -10 10 0 10 0 0 10 0 10 -10 0 -10 0 0 -10z"/>
<path d="M1080 1250 l0 -10 10 0 10 0 0 -19 0 -19 -12 -5 -13 -5 14 -10 14
-10 -52 -51 -52 -51 15 -15 15 -15 21 0 21 0 16 15 15 16 -22 19 -22 19 15 16
16 15 5 0 6 0 0 -20 0 -20 10 0 10 0 0 19 0 19 -12 5 -13 5 15 11 15 11 -15
11 -15 11 13 5 12 5 0 15 0 14 -14 15 -15 14 -5 0 -6 0 0 -10z m0 -180 l0 -10
-10 0 -10 0 0 10 0 10 10 0 10 0 0 -10z"/>
<path d="M340 1230 l0 -10 10 0 10 0 0 10 0 10 -10 0 -10 0 0 -10z"/>
<path d="M931 1224 l-13 -15 6 -6 5 -5 16 15 15 16 0 5 0 6 -7 0 -8 -1 -14
-15z"/>
<path d="M220 1210 l0 -10 10 0 10 0 0 10 0 10 -10 0 -10 0 0 -10z"/>
<path d="M380 1190 l0 -10 10 0 10 0 0 10 0 10 -10 0 -10 0 0 -10z"/>
<path d="M880 1190 l0 -10 10 0 10 0 0 10 0 10 -10 0 -10 0 0 -10z"/>
<path d="M420 1170 l0 -10 10 0 10 0 0 10 0 10 -10 0 -10 0 0 -10z"/>
<path d="M821 1154 l-23 -25 5 -6 6 -5 25 25 26 26 0 6 0 5 -7 -1 -8 0 -24
-25z"/>
<path d="M220 1150 l0 -10 10 0 10 0 0 10 0 10 -10 0 -10 0 0 -10z"/>
<path d="M460 1134 l0 -5 15 -16 16 -15 6 5 5 6 -15 16 -16 15 -5 0 -6 0 0 -6z"/>
<path d="M240 1090 l0 -10 10 0 10 0 0 10 0 10 -10 0 -10 0 0 -10z"/>
<path d="M520 1094 l0 -5 15 -16 16 -15 6 5 5 6 -15 16 -16 15 -5 0 -6 0 0 -6z"/>
<path d="M751 1084 l-13 -15 6 -6 5 -5 16 15 15 16 0 5 0 6 -7 0 -8 -1 -14
-15z"/>
<path d="M700 1050 l0 -10 10 0 10 0 0 10 0 10 -10 0 -10 0 0 -10z"/>
<path d="M280 1010 l0 -10 10 0 10 0 0 10 0 10 -10 0 -10 0 0 -10z"/>
<path d="M600 1010 l0 -10 10 0 10 0 0 10 0 10 -10 0 -10 0 0 -10z"/>
<path d="M671 1004 l-13 -15 6 -6 5 -5 16 15 15 16 0 5 0 6 -7 0 -8 -1 -14
-15z"/>
<path d="M300 970 l0 -10 10 0 10 0 0 10 0 10 -10 0 -10 0 0 -10z"/>
<path d="M600 950 l0 -10 10 0 10 0 0 10 0 10 -10 0 -10 0 0 -10z"/>
<path d="M680 950 l0 -10 10 0 10 0 0 10 0 10 -10 0 -10 0 0 -10z"/>
<path d="M380 890 l0 -10 10 0 10 0 0 10 0 10 -10 0 -10 0 0 -10z"/>
<path d="M560 890 l0 -10 10 0 10 0 0 10 0 10 -10 0 -10 0 0 -10z"/>
<path d="M740 890 l0 -10 10 0 10 0 0 10 0 10 -10 0 -10 0 0 -10z"/>
<path d="M520 870 l0 -10 10 0 10 0 0 10 0 10 -10 0 -10 0 0 -10z"/>
<path d="M600 870 l0 -10 -15 0 -16 0 -34 -35 -35 -34 0 -16 0 -15 -10 0 -10
0 0 -38 0 -38 20 -14 20 -14 0 -14 0 -13 14 -15 15 -14 24 0 25 0 5 -12 4 -13
9 8 8 8 -14 9 -14 9 24 22 25 22 -12 4 -13 5 0 17 0 17 20 14 20 14 0 18 0 18
5 0 6 0 25 -25 25 -25 -16 -17 -17 -16 -8 14 -9 13 -8 -7 -7 -8 14 -10 15 -11
-12 -5 -13 -5 0 -19 0 -19 -10 0 -10 0 0 -20 0 -20 30 0 30 0 0 10 0 10 25 0
26 0 34 35 35 34 0 25 0 24 -12 6 -13 6 13 6 12 6 0 24 0 25 -36 35 -35 36 -6
-6 -6 -6 24 -20 23 -21 -14 -9 -14 -9 8 -8 9 -8 4 13 5 12 9 0 9 0 0 -26 0
-27 -22 -18 -21 -19 8 -8 8 -7 4 13 5 12 9 0 9 0 0 -30 0 -30 -9 0 -9 0 -4 12
-5 13 -19 -19 -19 -19 13 -5 12 -4 0 -9 0 -9 -30 0 -30 0 0 -10 0 -10 -20 0
-20 0 0 10 0 10 10 0 10 0 0 20 0 20 9 0 9 0 5 -12 4 -13 9 8 8 8 -14 9 -14 9
23 20 24 21 -34 31 -33 31 14 8 13 8 -17 17 -17 17 -7 -6 -6 -7 14 -9 14 -9
-22 -19 -22 -19 0 -17 0 -16 -6 0 -5 0 -16 15 -15 16 23 19 22 20 -6 7 -7 6
-20 -22 -19 -23 -16 15 -15 16 0 15 0 16 9 0 9 0 5 -12 4 -13 9 8 8 8 -13 9
-14 8 16 16 16 16 5 0 6 0 0 -20 0 -20 10 0 10 0 0 20 0 20 40 0 40 0 0 10 0
10 -39 0 -39 0 -6 -12 -6 -13 -6 13 -6 12 -9 0 -9 0 0 -10z m-25 -115 l45 -44
0 -6 0 -5 -20 0 -20 0 0 -6 0 -7 21 -18 21 -18 -15 -16 -16 -15 -11 0 -11 0
-36 36 -36 36 14 9 14 9 -15 9 -14 10 24 22 25 22 -12 4 -13 5 0 9 0 9 5 0 6
0 44 -45z m205 -105 l0 -10 -10 0 -10 0 0 10 0 10 10 0 10 0 0 -10z"/>
<path d="M531 744 l-14 -16 14 -9 14 -9 -14 -9 -14 -9 27 -27 27 -27 7 7 7 8
-12 4 -13 5 0 28 0 28 12 4 13 5 -17 16 -17 17 -3 0 -3 -1 -14 -15z m29 -14
l0 -10 -10 0 -10 0 0 10 0 10 10 0 10 0 0 -10z"/>
<path d="M880 870 l0 -10 10 0 10 0 0 10 0 10 -10 0 -10 0 0 -10z"/>
<path d="M101 834 l-23 -25 7 -7 8 -7 4 13 5 12 9 0 9 0 0 -20 0 -20 10 0 10
0 0 10 0 10 20 0 20 0 0 16 0 15 -14 15 -15 14 -13 -1 -13 0 -24 -25z"/>
<path d="M420 850 l0 -10 10 0 10 0 0 10 0 10 -10 0 -10 0 0 -10z"/>
<path d="M1000 850 l0 -10 10 0 10 0 0 10 0 10 -10 0 -10 0 0 -10z"/>
<path d="M700 834 l0 -5 15 -16 16 -15 6 5 5 6 -15 16 -16 15 -5 0 -6 0 0 -6z"/>
<path d="M1100 830 l0 -10 10 0 10 0 0 10 0 10 -10 0 -10 0 0 -10z"/>
<path d="M460 810 l0 -10 10 0 10 0 0 10 0 10 -10 0 -10 0 0 -10z"/>
<path d="M1200 810 l0 -10 10 0 10 0 0 10 0 10 -10 0 -10 0 0 -10z"/>
<path d="M23 775 l-23 -24 0 -11 0 -11 36 -35 35 -36 7 7 7 8 -12 4 -13 5 0
19 0 19 -20 0 -20 0 0 20 0 20 9 0 9 0 5 -12 4 -13 9 8 8 8 -14 10 -15 11 13
5 12 5 0 9 0 9 -7 -1 -8 0 -22 -24z"/>
<path d="M80 770 l0 -10 10 0 10 0 0 10 0 10 -10 0 -10 0 0 -10z"/>
<path d="M440 770 l0 -10 10 0 10 0 0 10 0 10 -10 0 -10 0 0 -10z"/>
<path d="M720 774 l0 -5 15 -16 16 -15 6 5 5 6 -15 16 -16 15 -5 0 -6 0 0 -6z"/>
<path d="M860 770 l0 -10 10 0 10 0 0 10 0 10 -10 0 -10 0 0 -10z"/>
<path d="M1260 770 l0 -10 10 0 10 0 0 10 0 10 -10 0 -10 0 0 -10z"/>
<path d="M400 710 l0 -10 10 0 10 0 0 10 0 10 -10 0 -10 0 0 -10z"/>
<path d="M900 690 l0 -10 10 0 10 0 0 10 0 10 -10 0 -10 0 0 -10z"/>
<path d="M1240 690 l0 -10 10 0 10 0 0 10 0 10 -10 0 -10 0 0 -10z"/>
<path d="M360 670 l0 -10 10 0 10 0 0 10 0 10 -10 0 -10 0 0 -10z"/>
<path d="M100 650 l0 -10 10 0 10 0 0 10 0 10 -10 0 -10 0 0 -10z"/>
<path d="M1180 650 l0 -10 10 0 10 0 0 10 0 10 -10 0 -10 0 0 -10z"/>
<path d="M140 610 l0 -10 10 0 10 0 0 10 0 10 -10 0 -10 0 0 -10z"/>
<path d="M320 610 l0 -10 10 0 10 0 0 10 0 10 -10 0 -10 0 0 -10z"/>
<path d="M1120 610 l0 -10 10 0 10 0 0 10 0 10 -10 0 -10 0 0 -10z"/>
<path d="M180 590 l0 -10 10 0 10 0 0 10 0 10 -10 0 -10 0 0 -10z"/>
<path d="M220 590 l0 -10 10 0 10 0 0 10 0 10 -10 0 -10 0 0 -10z"/>
<path d="M980 590 l0 -10 10 0 10 0 0 10 0 10 -10 0 -10 0 0 -10z"/>
<path d="M1040 590 l0 -10 10 0 10 0 0 10 0 10 -10 0 -10 0 0 -10z"/>
<path d="M300 561 l0 -19 -12 -5 -13 -4 7 -8 7 -7 16 15 15 16 0 15 0 16 -10
0 -10 0 0 -19z"/>
<path d="M440 570 l0 -10 10 0 10 0 0 10 0 10 -10 0 -10 0 0 -10z"/>
<path d="M900 570 l0 -10 10 0 10 0 0 10 0 10 -10 0 -10 0 0 -10z"/>
<path d="M380 550 l0 -10 10 0 10 0 0 10 0 10 -10 0 -10 0 0 -10z"/>
<path d="M480 550 l0 -10 10 0 10 0 0 10 0 10 -10 0 -10 0 0 -10z"/>
<path d="M520 550 l0 -10 10 0 10 0 0 10 0 10 -10 0 -10 0 0 -10z"/>
<path d="M580 550 l0 -10 10 0 10 0 0 10 0 10 -10 0 -10 0 0 -10z"/>
<path d="M660 550 l0 -10 10 0 10 0 0 10 0 10 -10 0 -10 0 0 -10z"/>
<path d="M740 550 l0 -10 10 0 10 0 0 10 0 10 -10 0 -10 0 0 -10z"/>
<path d="M840 550 l0 -10 10 0 10 0 0 10 0 10 -10 0 -10 0 0 -10z"/>
<path d="M1020 530 l0 -10 10 0 10 0 0 10 0 10 -10 0 -10 0 0 -10z"/>
<path d="M700 510 l0 -10 10 0 10 0 0 10 0 10 -10 0 -10 0 0 -10z"/>
<path d="M260 490 l0 -10 10 0 10 0 0 10 0 10 -10 0 -10 0 0 -10z"/>
<path d="M600 490 l0 -10 10 0 10 0 0 10 0 10 -10 0 -10 0 0 -10z"/>
<path d="M1040 490 l0 -10 10 0 10 0 0 10 0 10 -10 0 -10 0 0 -10z"/>
<path d="M240 450 l0 -10 10 0 10 0 0 10 0 10 -10 0 -10 0 0 -10z"/>
<path d="M560 450 l0 -10 10 0 10 0 0 10 0 10 -10 0 -10 0 0 -10z"/>
<path d="M520 430 l0 -10 10 0 10 0 0 10 0 10 -10 0 -10 0 0 -10z"/>
<path d="M220 410 l0 -10 10 0 10 0 0 10 0 10 -10 0 -10 0 0 -10z"/>
<path d="M790 403 l-14 -17 12 -4 12 -4 0 -19 0 -19 29 0 29 0 4 -12 5 -13 16
17 17 17 0 11 0 11 -25 25 -26 26 -20 -23 -19 -22 -8 8 -7 8 13 4 12 5 0 9 0
9 -7 0 -8 -1 -15 -16z m90 -43 l0 -20 -10 0 -10 0 0 20 0 20 10 0 10 0 0 -20z"/>
<path d="M1080 410 l0 -10 10 0 10 0 0 10 0 10 -10 0 -10 0 0 -10z"/>
<path d="M480 390 l0 -10 10 0 10 0 0 10 0 10 -10 0 -10 0 0 -10z"/>
<path d="M1100 360 l0 -20 10 0 10 0 0 20 0 20 -10 0 -10 0 0 -20z"/>
<path d="M180 330 l0 -10 10 0 10 0 0 10 0 10 -10 0 -10 0 0 -10z"/>
<path d="M420 330 l0 -10 10 0 10 0 0 10 0 10 -10 0 -10 0 0 -10z"/>
<path d="M911 324 l-13 -15 7 -7 6 -6 9 14 9 14 21 -23 20 -24 6 6 6 6 -25 25
-26 26 -3 0 -3 -1 -14 -15z"/>
<path d="M1120 310 l0 -10 10 0 10 0 0 10 0 10 -10 0 -10 0 0 -10z"/>
<path d="M360 290 l0 -10 10 0 10 0 0 10 0 10 -10 0 -10 0 0 -10z"/>
<path d="M180 260 l0 -20 10 0 10 0 0 20 0 20 -10 0 -10 0 0 -20z"/>
<path d="M1000 260 l0 -20 10 0 10 0 0 20 0 20 -10 0 -10 0 0 -20z"/>
<path d="M1120 260 l0 -20 10 0 10 0 0 20 0 20 -10 0 -10 0 0 -20z"/>
<path d="M220 230 l0 -10 10 0 10 0 0 10 0 10 -10 0 -10 0 0 -10z"/>
<path d="M260 230 l0 -10 10 0 10 0 0 10 0 10 -10 0 -10 0 0 -10z"/>
<path d="M1040 230 l0 -10 10 0 10 0 0 10 0 10 -10 0 -10 0 0 -10z"/>
<path d="M1080 230 l0 -10 10 0 10 0 0 10 0 10 -10 0 -10 0 0 -10z"/>
<path d="M0 100 l0 -100 640 0 640 0 0 100 0 100 -640 0 -640 0 0 -100z"/>
</g>
</svg>
