<?xml version="1.0" standalone="no"?>
<!DOCTYPE svg PUBLIC "-//W3C//DTD SVG 20010904//EN"
 "http://www.w3.org/TR/2001/REC-SVG-20010904/DTD/svg10.dtd">
<svg version="1.0" xmlns="http://www.w3.org/2000/svg"
 width="468pt" height="468pt" viewBox="0 0 468 468"
 preserveAspectRatio="xMidYMid meet">
<metadata>
Created by potrace 1.8, written by Peter Selinger 2001-2007
</metadata>
<g transform="translate(0,468) scale(0.365625,-0.365625)"
fill="#000000" stroke="none">
<path d="M360 1270 l0 -10 -16 0 -15 0 -15 -14 -14 -15 0 -15 0 -16 -10 0 -10
0 0 -46 0 -47 21 -18 21 -18 -26 -26 -25 -25 -15 0 -14 0 -4 -12 -5 -13 -17
18 -18 18 6 7 7 6 9 -14 9 -14 6 6 7 7 -46 45 -45 46 -16 0 -15 0 0 10 0 10
-20 0 -20 0 0 -10 0 -10 20 0 20 0 0 -10 0 -10 15 0 16 0 24 -25 25 -24 0 -6
0 -5 -20 0 -20 0 0 10 0 10 -20 0 -20 0 0 10 0 10 -40 0 -40 0 0 10 0 10 -20
0 -20 0 0 -10 0 -10 20 0 20 0 0 -10 0 -10 40 0 40 0 0 -10 0 -10 15 0 16 0
27 -27 26 -27 -12 -4 -12 -4 0 -25 0 -25 -30 -28 -30 -28 0 -14 0 -14 -20 -14
-20 -14 0 -26 0 -26 -20 -14 -20 -14 0 -28 0 -28 -10 0 -10 0 0 -100 0 -100
10 0 10 0 0 -28 0 -28 20 -14 20 -14 0 -13 0 -14 45 -44 44 -45 16 0 15 0 0
-10 0 -10 20 0 20 0 0 -10 0 -10 40 0 40 0 0 -10 0 -10 40 0 40 0 0 -10 0 -10
-200 0 -200 0 0 -100 0 -100 640 0 640 0 0 100 0 100 -220 0 -220 0 0 10 0 10
60 0 60 0 0 10 0 10 30 0 30 0 0 10 0 10 30 0 30 0 0 10 0 10 18 0 18 0 14 20
14 20 18 0 18 0 0 18 0 18 20 14 20 14 0 28 0 28 10 0 10 0 0 20 0 20 10 0 10
0 0 59 0 59 -12 6 -13 6 13 6 12 6 0 19 0 19 -10 0 -10 0 0 40 0 40 -10 0 -10
0 0 30 0 30 -10 0 -10 0 0 20 0 20 -10 0 -10 0 0 16 0 16 -41 39 -41 39 16 15
15 15 25 0 26 0 0 10 0 10 30 0 30 0 0 -10 0 -10 20 0 20 0 0 10 0 10 -20 0
-20 0 0 10 0 10 -30 0 -30 0 0 -10 0 -10 -29 0 -29 0 -5 13 -4 12 -22 -24 -21
-24 -6 6 -6 6 28 28 28 27 4 -12 4 -12 19 0 19 0 0 10 0 10 50 0 50 0 0 10 0
10 -50 0 -50 0 0 10 0 10 20 0 20 0 0 10 0 10 -20 0 -20 0 0 -10 0 -10 -18 0
-18 0 -14 -20 -14 -20 -18 0 -18 0 0 -10 0 -10 -30 0 -30 0 0 -20 0 -20 10 0
10 0 0 -30 0 -30 10 0 10 0 0 -40 0 -40 10 0 10 0 0 10 0 10 30 0 30 0 0 -10
0 -10 20 0 20 0 0 -30 0 -30 -10 0 -10 0 0 -20 0 -20 -29 0 -29 0 -5 13 -4 12
-8 -7 -7 -7 15 -16 16 -15 21 0 21 0 15 -14 14 -15 0 -15 0 -16 10 0 10 0 0
-38 0 -38 -20 -14 -20 -14 0 -18 0 -18 6 0 5 0 15 14 14 15 0 15 0 16 10 0 10
0 0 40 0 40 6 0 5 0 17 -17 17 -16 -13 -5 -12 -4 0 -19 0 -19 -10 0 -10 0 0
-15 0 -16 -25 -24 -24 -25 -11 0 -11 0 -15 -14 -14 -15 0 -5 0 -6 16 0 15 0
15 -14 14 -15 0 -14 0 -15 12 -4 13 -5 -19 -19 -19 -19 -5 13 -4 12 -39 0 -39
0 0 -36 0 -35 -15 -16 -16 -15 -18 21 -18 21 -14 0 -15 0 -14 -20 -14 -20 -18
0 -18 0 0 -10 0 -10 -20 0 -20 0 0 -10 0 -10 -30 0 -30 0 0 -10 0 -10 -170 0
-170 0 0 10 0 10 -28 0 -28 0 -14 20 -14 20 -18 0 -18 0 0 10 0 10 -20 0 -20
0 0 20 0 20 -20 0 -20 0 0 -10 0 -10 -19 0 -19 0 -4 -12 -5 -13 -18 18 -18 19
14 9 14 9 -15 11 -15 11 13 5 12 5 0 29 0 29 -10 0 -10 0 0 -10 0 -10 -36 0
-35 0 -15 15 -15 15 15 15 15 15 25 0 26 0 0 20 0 20 -10 0 -10 0 0 20 0 20
10 0 10 0 0 18 0 18 -20 14 -20 14 0 34 0 34 32 30 32 30 -14 8 -14 9 8 8 9 8
4 -12 5 -13 29 0 29 0 0 10 0 10 -15 0 -16 0 -24 25 -25 24 0 26 0 25 19 0 19
0 5 13 4 12 20 -22 20 -23 17 0 16 0 0 30 0 30 10 0 10 0 0 20 0 20 10 0 10 0
0 20 0 20 10 0 10 0 0 20 0 20 10 0 10 0 0 -30 0 -30 -10 0 -10 0 0 -20 0 -20
-10 0 -10 0 0 -20 0 -20 -10 0 -10 0 0 -29 0 -29 -12 -5 -13 -5 15 -12 15 -12
-12 -5 -13 -5 0 -19 0 -19 -10 0 -10 0 0 -10 0 -10 20 0 20 0 0 -38 0 -38 20
-14 20 -14 0 -14 0 -13 14 -15 15 -14 15 0 16 0 0 -10 0 -10 20 0 20 0 0 -10
0 -10 40 0 40 0 0 10 0 10 -30 0 -30 0 0 10 0 10 -20 0 -20 0 0 10 0 10 -15 0
-16 0 -24 25 -25 24 0 26 0 25 -10 0 -10 0 0 80 0 80 10 0 10 0 0 30 0 30 10
0 10 0 0 18 0 18 20 14 20 14 0 14 0 13 14 15 15 14 15 0 16 0 0 10 0 10 70 0
70 0 0 -10 0 -10 16 0 15 0 15 -14 14 -15 0 -85 0 -86 -10 0 -10 0 0 -120 0
-120 -16 0 -15 0 -15 -14 -14 -15 0 -15 0 -16 10 0 10 0 0 -30 0 -30 -30 0
-30 0 0 -10 0 -10 -30 0 -30 0 0 -10 0 -10 -70 0 -70 0 0 10 0 10 -20 0 -20 0
0 10 0 10 -16 0 -15 0 -15 14 -14 15 0 15 0 16 -10 0 -10 0 0 30 0 30 10 0 10
0 0 20 0 20 -9 0 -9 0 -5 -12 -4 -13 -22 24 -21 24 -8 -8 -7 -8 13 -4 12 -5 0
-19 0 -19 10 0 10 0 0 -30 0 -30 10 0 10 0 0 -15 0 -16 25 -24 24 -25 16 0 15
0 0 -10 0 -10 20 0 20 0 0 -10 0 -10 70 0 70 0 0 10 0 10 30 0 30 0 0 10 0 10
30 0 30 0 0 10 0 10 19 0 19 0 5 13 4 12 20 -22 20 -23 27 0 26 0 0 -10 0 -10
20 0 20 0 0 -10 0 -10 40 0 40 0 0 -10 0 -10 30 0 30 0 0 10 0 10 30 0 30 0 0
10 0 10 15 0 16 0 24 25 25 24 0 16 0 15 10 0 10 0 0 38 0 38 20 14 20 14 0 8
0 8 -19 0 -19 0 -6 -12 -6 -13 -6 13 -6 12 -9 0 -9 0 0 -20 0 -20 10 0 10 0 0
-40 0 -40 -10 0 -10 0 0 -16 0 -15 -14 -15 -15 -14 -15 0 -16 0 0 -10 0 -10
-30 0 -30 0 0 -10 0 -10 -30 0 -30 0 0 10 0 10 -40 0 -40 0 0 10 0 10 -20 0
-20 0 0 10 0 10 -30 0 -30 0 0 8 0 8 20 14 20 14 0 18 0 18 10 0 10 0 0 -10 0
-10 50 0 50 0 0 10 0 10 30 0 30 0 0 10 0 10 15 0 16 0 24 25 25 24 0 16 0 15
10 0 10 0 0 20 0 20 10 0 10 0 0 19 0 19 13 6 12 6 -12 6 -13 6 0 69 0 69 -10
0 -10 0 0 26 0 27 -22 18 -21 19 21 19 22 18 0 17 0 16 10 0 10 0 0 30 0 30
10 0 10 0 0 29 0 29 13 6 12 6 -12 6 -13 6 0 15 0 14 -14 15 -15 14 -25 0 -26
0 0 10 0 10 -30 0 -30 0 0 -10 0 -10 -19 0 -19 0 -5 -12 -5 -13 -12 15 -12 15
-5 -12 -5 -13 -19 0 -19 0 0 -10 0 -10 -20 0 -20 0 0 -10 0 -10 -16 0 -17 0
-20 -22 -20 -23 -4 13 -5 12 -19 0 -19 0 0 10 0 10 -28 0 -28 0 -14 20 -14 20
-28 0 -28 0 0 10 0 10 -30 0 -30 0 0 10 0 10 -30 0 -30 0 0 -10z m100 -40 l0
-10 20 0 20 0 0 -10 0 -10 30 0 30 0 0 -10 0 -10 28 0 28 0 14 -20 14 -20 18
0 18 0 0 10 0 10 18 0 18 0 14 20 14 20 28 0 28 0 0 10 0 10 40 0 40 0 0 10 0
10 30 0 30 0 0 -10 0 -10 -20 0 -20 0 0 -10 0 -10 -18 0 -18 0 -14 -20 -14
-20 -18 0 -18 0 0 -10 0 -10 -16 0 -15 0 -50 -51 -49 -51 -29 31 -29 31 -14 0
-14 0 -14 20 -14 20 -16 0 -16 0 -14 20 -14 20 -16 0 -16 0 -14 20 -14 20 -28
0 -28 0 0 10 0 10 40 0 40 0 0 -10z m-73 -85 l15 -16 -5 -6 -6 -5 -16 15 -15
16 0 5 0 6 6 0 5 0 16 -15z m53 -5 l0 -20 9 0 9 0 5 13 4 12 22 -25 22 -24 9
13 8 14 16 -16 16 -16 0 -5 0 -6 -50 0 -50 0 0 -10 0 -10 -18 0 -18 0 -14 -20
-14 -20 -8 0 -8 0 0 26 0 27 -22 18 -21 19 6 7 7 6 20 -24 21 -23 10 14 11 15
5 -12 5 -13 9 0 9 0 0 20 0 20 -10 0 -10 0 0 20 0 20 10 0 10 0 0 -20z m460
11 l0 -9 -12 -5 -13 -5 15 -12 15 -12 -12 -5 -13 -5 0 -9 0 -9 19 0 19 0 5
-12 4 -13 9 9 9 9 -12 4 -13 5 0 15 0 14 16 16 16 16 9 -14 9 -14 9 15 10 14
8 -8 8 -9 -12 -4 -13 -5 0 -15 0 -16 -22 -19 -22 -19 14 -9 14 -9 -8 -8 -9 -8
-4 13 -5 12 -17 0 -17 0 -14 20 -14 20 -68 0 -68 0 0 10 0 10 20 0 20 0 0 10
0 10 19 0 19 0 5 13 5 12 11 -15 10 -15 18 22 18 23 8 0 7 0 0 -9z m-156 -103
l6 -13 6 13 6 12 49 0 49 0 0 -10 0 -10 15 0 16 0 24 -25 25 -24 0 -13 0 -14
20 -14 20 -14 0 -28 0 -28 10 0 10 0 0 -90 0 -90 -10 0 -10 0 0 -20 0 -20 -10
0 -10 0 0 -16 0 -15 -14 -15 -15 -14 -15 0 -16 0 0 -10 0 -10 -30 0 -30 0 0
-10 0 -10 -50 0 -50 0 0 10 0 10 -20 0 -20 0 0 10 0 10 -20 0 -20 0 0 120 0
120 10 0 10 0 0 85 0 86 23 24 22 24 7 0 6 1 6 -12z m416 2 l0 -10 -20 0 -20
0 0 10 0 10 20 0 20 0 0 -10z m-1040 -320 l0 -30 -10 0 -10 0 0 -50 0 -50 10
0 10 0 0 -20 0 -20 -10 0 -10 0 0 20 0 20 -10 0 -10 0 0 40 0 40 -10 0 -10 0
0 10 0 10 20 0 20 0 0 30 0 30 10 0 10 0 0 -30z m1080 -30 l0 -20 -10 0 -10 0
0 20 0 20 10 0 10 0 0 -20z m-500 -150 l0 -30 -40 0 -40 0 0 20 0 20 -10 0
-10 0 0 10 0 10 50 0 50 0 0 -30z"/>
<path d="M460 1110 l0 -10 10 0 10 0 0 10 0 10 -10 0 -10 0 0 -10z"/>
<path d="M820 1110 l0 -10 10 0 10 0 0 10 0 10 -10 0 -10 0 0 -10z"/>
<path d="M860 1110 l0 -10 10 0 10 0 0 10 0 10 -10 0 -10 0 0 -10z"/>
<path d="M940 1100 l0 -20 10 0 10 0 0 20 0 20 -10 0 -10 0 0 -20z"/>
<path d="M693 765 l-13 -14 0 -36 0 -35 6 0 5 0 15 14 14 15 0 35 0 36 -7 0
-8 -1 -12 -14z"/>
<path d="M20 1010 l0 -10 50 0 50 0 0 -10 0 -10 30 0 30 0 0 10 0 10 -20 0
-20 0 0 10 0 10 -60 0 -60 0 0 -10z"/>
<path d="M580 744 l0 -35 14 -15 15 -14 5 0 6 0 0 36 0 35 -14 15 -15 14 -5 0
-6 0 0 -36z"/>
<path d="M1100 690 l0 -10 10 0 10 0 0 10 0 10 -10 0 -10 0 0 -10z"/>
<path d="M1140 610 l0 -10 10 0 10 0 0 10 0 10 -10 0 -10 0 0 -10z"/>
<path d="M540 560 l0 -20 10 0 10 0 0 20 0 20 -10 0 -10 0 0 -20z"/>
</g>
</svg>
