<?xml version="1.0" standalone="no"?>
<!DOCTYPE svg PUBLIC "-//W3C//DTD SVG 20010904//EN"
 "http://www.w3.org/TR/2001/REC-SVG-20010904/DTD/svg10.dtd">
<svg version="1.0" xmlns="http://www.w3.org/2000/svg"
 width="468pt" height="468pt" viewBox="0 0 468 468"
 preserveAspectRatio="xMidYMid meet">
<metadata>
Created by potrace 1.8, written by Peter Selinger 2001-2007
</metadata>
<g transform="translate(0,468) scale(0.365625,-0.365625)"
fill="#000000" stroke="none">
<path d="M720 1230 l-31 -30 -10 0 -10 0 -23 -25 -23 -25 -21 0 -20 0 -5 -12
-5 -13 -1 13 -1 12 -49 0 -49 0 -4 9 -3 10 -50 6 -50 7 -22 -20 -23 -19 0 -77
0 -77 -69 7 -70 6 -25 -6 -26 -6 0 -50 0 -50 9 0 9 0 7 -55 6 -55 10 0 9 0 0
24 0 24 -10 4 -10 3 -6 78 -7 77 47 0 46 0 0 -10 0 -10 36 0 35 0 15 14 14 15
0 71 0 71 14 15 15 14 25 0 26 0 0 -10 0 -10 24 0 24 0 4 -10 3 -10 73 -1 73
-1 22 26 23 26 16 0 17 0 6 20 6 20 9 0 9 0 15 16 16 15 0 -15 0 -16 9 0 9 0
7 -50 7 -50 9 0 9 0 0 -40 0 -41 38 7 37 7 3 8 4 9 14 0 14 0 0 9 0 8 68 7 68
7 17 -7 17 -6 0 -44 0 -44 -10 0 -10 0 0 -19 0 -19 -8 -4 -9 -3 -6 -47 -7 -48
55 0 55 0 0 -10 0 -10 28 0 27 0 23 -6 22 -6 0 -21 0 -20 -25 -23 -25 -23 0
-11 0 -11 -40 -38 -40 -38 0 -11 0 -11 65 -65 65 -65 0 -5 0 -6 -17 -20 -17
-20 -18 0 -18 0 0 -9 0 -9 -30 -7 -30 -7 0 -9 0 -9 -15 0 -15 0 0 -10 0 -9 15
-8 15 -9 6 -62 7 -62 -82 0 -81 0 0 -69 0 -69 -6 -16 -6 -16 -18 0 -19 0 -6
19 -6 19 -39 7 -40 7 0 9 0 9 -40 0 -40 0 0 15 0 15 16 0 15 0 14 13 14 12 13
12 13 12 13 15 12 15 0 41 0 40 -9 0 -10 0 -6 20 -6 20 -34 0 -33 0 -6 -16 -6
-17 5 -5 5 -5 0 11 0 12 34 0 34 0 6 -16 6 -16 0 -38 0 -39 -25 -26 -26 -25
-29 0 -30 0 0 -24 0 -24 10 -4 10 -3 2 -50 3 -50 -27 -3 -28 -3 0 -10 0 -9 30
0 30 0 0 11 0 10 14 15 15 14 20 0 21 0 6 -25 6 -25 9 0 9 0 0 24 0 24 -16 6
-16 6 -20 0 -19 0 -15 14 -14 15 0 12 0 12 47 -6 47 -5 4 -11 4 -11 23 0 23 0
6 -15 5 -15 18 0 19 0 17 20 17 20 0 60 0 60 80 0 80 0 0 49 0 49 -9 4 -8 3
-7 38 -7 37 16 0 15 0 0 9 0 9 32 7 31 7 24 26 23 25 0 13 0 13 -65 65 -65 65
0 10 0 10 19 6 20 6 6 19 6 19 20 6 19 6 0 17 0 18 20 17 20 17 0 30 0 30 -14
0 -14 0 -4 10 -3 11 -88 6 -87 6 0 8 0 9 10 0 10 0 0 34 0 34 10 4 10 3 6 52
7 51 -7 26 -6 26 -50 0 -50 0 0 -9 0 -8 -47 -6 -47 -5 -4 -11 -4 -11 -23 0
-23 0 -5 -12 -5 -13 -1 38 -1 37 -10 0 -10 0 0 25 0 25 -9 0 -8 0 -7 39 -6 39
-15 6 -15 5 -30 -29z"/>
<path d="M290 810 l0 -30 -15 0 -15 0 0 -10 0 -10 -25 0 -25 0 0 25 0 25 -10
0 -10 0 0 -7 0 -8 -6 -22 -6 -23 16 0 16 0 0 -10 0 -10 -14 0 -14 0 -6 -12 -6
-13 -6 13 -6 12 -24 0 -24 0 0 -9 0 -9 35 -6 35 -7 0 -19 0 -20 -10 0 -10 0 0
-40 0 -40 10 0 10 0 0 -15 0 -15 -10 0 -10 0 0 -40 0 -40 -40 0 -40 0 0 -9 0
-9 -30 -7 -30 -7 0 -33 0 -33 30 -7 30 -7 0 -9 0 -9 25 0 25 0 0 -10 0 -10 40
-6 40 -7 0 -8 0 -8 37 -3 38 -3 4 -20 3 -20 14 -8 14 -8 0 -19 0 -20 18 0 18
0 17 -20 17 -20 0 -10 0 -10 9 0 8 0 7 -40 6 -40 10 0 10 0 0 -15 0 -15 -15 0
-15 0 0 -10 0 -10 21 0 21 0 -7 48 -7 47 -8 5 -8 5 -7 28 -7 27 -9 0 -9 0 0
11 0 10 -14 15 -15 14 -6 0 -6 0 -14 14 -14 14 -7 26 -6 26 -14 0 -14 0 0 9 0
8 -60 7 -60 7 0 9 0 10 -15 0 -15 0 0 9 0 8 -35 6 -35 6 -15 15 -15 15 0 6 0
6 16 16 15 16 47 5 47 5 7 10 6 10 25 -26 24 -27 37 0 36 0 0 10 0 10 -29 0
-30 0 -15 15 -15 15 -10 0 -11 0 0 24 0 24 6 16 6 16 49 0 49 0 0 -9 0 -8 40
-7 40 -6 0 -21 0 -22 18 -16 18 -16 7 -17 6 -18 16 0 15 0 0 -10 0 -10 20 0
20 0 0 -10 0 -10 55 0 55 0 0 10 0 10 20 0 19 0 30 29 30 30 7 25 6 26 9 0 9
0 0 36 0 35 14 15 15 14 15 0 16 0 0 10 0 10 -20 0 -20 0 0 -10 0 -10 -10 0
-10 0 0 11 0 10 -15 15 -15 15 0 14 0 14 15 14 15 15 12 5 13 4 -7 8 -8 8 -24
-26 -25 -27 -11 0 -11 0 -25 27 -25 27 5 30 6 31 -7 -15 -6 -15 -11 -7 -11 -8
-22 0 -23 0 0 -10 0 -10 -24 0 -25 0 -4 33 -4 32 -1 -42 -2 -43 -25 0 -24 0
-13 -15 -13 -16 -12 -14 -13 -14 0 -15 0 -16 -10 0 -10 0 0 -45 0 -45 -15 0
-15 0 0 10 0 10 -15 0 -15 0 0 10 0 9 -62 3 -63 3 2 62 1 62 28 28 28 28 71 3
72 4 15 -16 16 -16 5 -12 4 -13 8 7 8 8 -28 26 -28 26 10 6 10 7 8 25 8 24
-17 -16 -16 -17 0 -10 0 -11 -40 0 -40 0 0 30 0 30 -10 0 -10 0 0 -30z m310
-89 l0 -9 24 -6 25 -6 6 -20 6 -20 10 0 9 0 0 -14 0 -14 16 -6 16 -6 -4 -72
-4 -72 -12 -4 -12 -4 0 -10 0 -9 -14 -14 -14 -14 -26 -7 -26 -6 0 -9 0 -9 -55
0 -55 0 0 9 0 9 -34 6 -34 7 -6 24 -6 25 -10 0 -10 0 0 75 0 75 9 0 9 0 6 30
6 30 15 0 15 0 0 10 0 9 50 7 50 7 0 8 0 9 25 0 25 0 0 -9z"/>
<path d="M450 635 l0 -15 20 0 20 0 0 15 0 15 -20 0 -20 0 0 -15z"/>
<path d="M240 715 l0 -15 20 0 20 0 0 15 0 15 -20 0 -20 0 0 -15z"/>
<path d="M620 295 l0 -15 -20 0 -20 0 0 -10 0 -10 -85 0 -85 0 0 10 0 10 -45
0 -45 0 0 -10 0 -10 45 0 45 0 0 -10 0 -10 85 0 85 0 0 10 0 10 34 0 35 0 4
-27 4 -28 2 35 1 36 -20 17 -20 17 0 -15z"/>
<path d="M757 296 l-6 -14 20 5 19 5 0 -31 0 -31 -15 0 -15 0 0 -10 0 -10 11
0 10 0 15 14 14 15 0 21 0 21 -14 15 -15 14 -9 0 -10 0 -5 -14z"/>
</g>
</svg>
