<?xml version="1.0" standalone="no"?>
<!DOCTYPE svg PUBLIC "-//W3C//DTD SVG 20010904//EN"
 "http://www.w3.org/TR/2001/REC-SVG-20010904/DTD/svg10.dtd">
<svg version="1.0" xmlns="http://www.w3.org/2000/svg"
 width="468pt" height="468pt" viewBox="0 0 468 468"
 preserveAspectRatio="xMidYMid meet">
<metadata>
Created by potrace 1.8, written by Peter Selinger 2001-2007
</metadata>
<g transform="translate(0,468) scale(0.365625,-0.365625)"
fill="#000000" stroke="none">
<path d="M0 1095 l0 -185 25 0 25 0 0 -375 0 -375 -25 0 -25 0 0 -80 0 -80
105 0 105 0 0 25 0 25 55 0 55 0 0 -25 0 -25 345 0 345 0 0 25 0 25 55 0 55 0
0 -25 0 -25 80 0 80 0 0 55 0 55 -55 0 -55 0 0 25 0 25 55 0 55 0 0 375 0 375
-55 0 -55 0 0 25 0 25 55 0 55 0 0 160 0 160 -240 0 -240 0 0 -25 0 -25 -55 0
-55 0 0 25 0 25 -25 0 -25 0 0 -25 0 -25 -55 0 -55 0 0 25 0 25 -265 0 -265 0
0 -185z m530 105 l0 -30 -25 0 -25 0 0 -25 0 -25 -55 0 -55 0 0 -25 0 -25 -25
0 -25 0 0 -30 0 -30 -55 0 -55 0 0 -25 0 -25 -25 0 -25 0 0 -25 0 -25 -55 0
-55 0 0 25 0 25 55 0 55 0 0 25 0 25 25 0 25 0 0 30 0 30 55 0 55 0 0 25 0 25
25 0 25 0 0 25 0 25 55 0 55 0 0 30 0 30 25 0 25 0 0 -30z m320 0 l0 -30 55 0
55 0 0 -25 0 -25 25 0 25 0 0 -25 0 -25 55 0 55 0 0 -30 0 -30 25 0 25 0 0
-25 0 -25 -25 0 -25 0 0 25 0 25 -55 0 -55 0 0 30 0 30 -25 0 -25 0 0 25 0 25
-55 0 -55 0 0 25 0 25 -25 0 -25 0 0 30 0 30 25 0 25 0 0 -30z m-690 -1065 l0
-25 25 0 25 0 0 -30 0 -30 -25 0 -25 0 0 30 0 30 -55 0 -55 0 0 25 0 25 55 0
55 0 0 -25z m1010 -55 l0 -30 -25 0 -25 0 0 30 0 30 25 0 25 0 0 -30z"/>
</g>
</svg>
