<?xml version="1.0" standalone="no"?>
<!DOCTYPE svg PUBLIC "-//W3C//DTD SVG 20010904//EN"
 "http://www.w3.org/TR/2001/REC-SVG-20010904/DTD/svg10.dtd">
<svg version="1.0" xmlns="http://www.w3.org/2000/svg"
 width="468pt" height="468pt" viewBox="0 0 468 468"
 preserveAspectRatio="xMidYMid meet">
<metadata>
Created by potrace 1.8, written by Peter Selinger 2001-2007
</metadata>
<g transform="translate(0,468) scale(0.365625,-0.365625)"
fill="#000000" stroke="none">
<path d="M913 1125 l-33 -34 0 -76 0 -75 10 0 10 0 0 -120 0 -120 -10 0 -10 0
0 -16 0 -15 -14 -15 -15 -14 -75 0 -76 0 0 10 0 10 -60 0 -60 0 0 10 0 10 -80
0 -80 0 0 10 0 10 -40 0 -40 0 0 10 0 10 -30 0 -30 0 0 10 0 10 -20 0 -20 0 0
10 0 10 -20 0 -20 0 0 10 0 10 -20 0 -20 0 0 10 0 10 -15 0 -16 0 -24 -25 -25
-24 0 -11 0 -10 155 -155 155 -155 75 0 75 0 0 -10 0 -10 150 0 150 0 0 10 0
10 59 0 59 0 4 12 5 13 16 -17 17 -17 0 -11 0 -11 -25 -24 -24 -25 -16 0 -15
0 0 -10 0 -10 -20 0 -20 0 0 -10 0 -10 20 0 20 0 0 10 0 10 15 0 16 0 34 35
35 34 0 12 0 12 -22 20 -23 20 13 4 12 5 0 29 0 29 10 0 10 0 0 40 0 40 10 0
10 0 0 40 0 40 -10 0 -10 0 0 70 0 70 30 0 30 0 0 10 0 10 -30 0 -30 0 0 -10
0 -10 -10 0 -10 0 0 96 0 95 14 15 15 14 15 0 16 0 0 10 0 10 20 0 20 0 0 10
0 10 -20 0 -20 0 0 10 0 10 19 0 19 0 6 -12 6 -13 6 13 6 12 19 0 19 0 0 -10
0 -10 -16 0 -15 0 -15 -14 -14 -15 0 -13 0 -14 -20 -14 -20 -14 0 -16 0 -16
-20 -14 -20 -14 0 -18 0 -18 10 0 10 0 0 16 0 15 14 15 15 14 5 0 6 0 0 -20 0
-20 -10 0 -10 0 0 -30 0 -30 10 0 10 0 0 20 0 20 10 0 10 0 0 30 0 30 -10 0
-10 0 0 20 0 20 10 0 10 0 0 -20 0 -20 10 0 10 0 0 -30 0 -30 19 0 19 0 5 -12
4 -13 8 7 8 8 -21 19 -22 18 0 27 0 26 -10 0 -10 0 0 20 0 20 10 0 10 0 0 16
0 17 21 18 21 18 -15 16 -16 15 -35 0 -36 0 0 10 0 10 -20 0 -20 0 0 10 0 10
-47 -1 -48 0 -32 -34z m134 -1 l16 -16 -14 -10 -14 -10 13 -5 12 -5 0 -9 0 -9
-15 0 -16 0 -24 -25 -25 -24 0 -96 0 -95 10 0 10 0 0 -70 0 -70 10 0 10 0 0
-40 0 -40 -10 0 -10 0 0 -40 0 -40 -10 0 -10 0 0 -15 0 -16 -26 -26 -26 -26
-9 14 -9 14 -10 -15 -10 -15 -9 15 -10 14 -19 -22 -19 -22 -106 0 -105 0 -5
13 -5 12 -11 -15 -11 -15 -10 15 -10 15 -11 -15 -11 -15 -5 13 -5 12 -18 0
-18 0 -5 13 -5 12 -11 -15 -10 -14 -8 8 -8 9 13 4 12 5 0 9 0 9 -20 0 -20 0 0
10 0 10 -20 0 -20 0 0 9 0 9 13 5 12 5 -14 10 -14 10 38 37 37 38 9 -14 9 -14
11 15 11 15 5 -12 5 -13 79 0 79 0 0 -10 0 -10 30 0 30 0 0 -10 0 -10 30 0 30
0 0 -10 0 -10 15 0 16 0 24 -25 25 -24 0 -16 0 -15 10 0 10 0 0 15 0 16 -35
34 -34 35 -16 0 -15 0 0 10 0 10 -30 0 -30 0 0 10 0 10 -30 0 -30 0 0 10 0 10
-80 0 -80 0 0 10 0 10 -120 0 -120 0 0 -16 0 -15 52 -51 51 -50 -14 -8 -13 -9
7 -8 8 -7 9 14 9 14 8 -7 7 -8 -14 -9 -14 -9 8 -8 9 -8 4 13 5 12 19 0 19 0 0
-20 0 -20 -9 0 -9 0 -5 13 -5 12 -10 -14 -10 -14 -77 78 -78 77 14 9 13 8 -7
8 -8 7 -9 -13 -8 -14 -18 17 -17 18 14 8 13 9 -7 8 -8 7 -8 -13 -9 -14 -46 46
-46 46 0 11 0 11 14 15 15 14 15 0 16 0 0 -10 0 -10 20 0 20 0 0 -10 0 -10 20
0 20 0 0 -10 0 -10 20 0 20 0 0 -10 0 -10 30 0 30 0 0 -10 0 -10 40 0 40 0 0
-10 0 -10 80 0 80 0 0 -10 0 -10 60 0 60 0 0 -10 0 -10 75 0 76 0 24 25 25 24
0 16 0 15 10 0 10 0 0 120 0 120 -10 0 -10 0 0 75 0 76 23 24 22 24 43 0 43 1
16 -16z m-724 -516 l5 -13 11 15 11 15 10 -15 10 -15 10 15 10 15 10 -15 10
-15 9 15 10 14 7 -6 7 -7 -33 -31 -34 -32 14 -8 14 -9 -6 -6 -7 -7 -45 46 -46
45 0 6 0 5 9 0 9 0 5 -12z"/>
<path d="M1000 1110 l0 -10 10 0 10 0 0 10 0 10 -10 0 -10 0 0 -10z"/>
<path d="M120 754 l0 -5 15 -16 16 -15 6 5 5 6 -15 16 -16 15 -5 0 -6 0 0 -6z"/>
<path d="M340 594 l0 -5 15 -15 15 -15 16 16 16 16 -6 7 -7 6 -10 -14 -11 -15
-5 13 -5 12 -9 0 -9 0 0 -6z"/>
<path d="M460 1070 l0 -10 10 0 10 0 0 10 0 10 -10 0 -10 0 0 -10z"/>
<path d="M560 1070 l0 -10 10 0 10 0 0 10 0 10 -10 0 -10 0 0 -10z"/>
<path d="M720 1050 l0 -10 10 0 10 0 0 10 0 10 -10 0 -10 0 0 -10z"/>
<path d="M300 1030 l0 -10 10 0 10 0 0 10 0 10 -10 0 -10 0 0 -10z"/>
<path d="M460 1030 l0 -10 10 0 10 0 0 10 0 10 -10 0 -10 0 0 -10z"/>
<path d="M560 1030 l0 -10 10 0 10 0 0 10 0 10 -10 0 -10 0 0 -10z"/>
<path d="M340 1010 l0 -10 10 0 10 0 0 10 0 10 -10 0 -10 0 0 -10z"/>
<path d="M680 1010 l0 -10 10 0 10 0 0 10 0 10 -10 0 -10 0 0 -10z"/>
<path d="M1140 1002 l0 -18 20 -14 20 -14 0 -18 0 -18 10 0 10 0 0 20 0 20
-10 0 -10 0 0 16 0 15 -14 15 -15 14 -5 0 -6 0 0 -18z"/>
<path d="M240 990 l0 -10 10 0 10 0 0 10 0 10 -10 0 -10 0 0 -10z"/>
<path d="M480 990 l0 -10 10 0 10 0 0 10 0 10 -10 0 -10 0 0 -10z"/>
<path d="M540 990 l0 -10 10 0 10 0 0 10 0 10 -10 0 -10 0 0 -10z"/>
<path d="M780 990 l0 -10 10 0 10 0 0 10 0 10 -10 0 -10 0 0 -10z"/>
<path d="M360 970 l0 -10 10 0 10 0 0 10 0 10 -10 0 -10 0 0 -10z"/>
<path d="M660 970 l0 -10 10 0 10 0 0 10 0 10 -10 0 -10 0 0 -10z"/>
<path d="M280 950 l0 -10 10 0 10 0 0 10 0 10 -10 0 -10 0 0 -10z"/>
<path d="M480 950 l0 -10 10 0 10 0 0 10 0 10 -10 0 -10 0 0 -10z"/>
<path d="M540 950 l0 -10 10 0 10 0 0 10 0 10 -10 0 -10 0 0 -10z"/>
<path d="M740 950 l0 -10 10 0 10 0 0 10 0 10 -10 0 -10 0 0 -10z"/>
<path d="M380 930 l0 -10 10 0 10 0 0 10 0 10 -10 0 -10 0 0 -10z"/>
<path d="M640 930 l0 -10 10 0 10 0 0 10 0 10 -10 0 -10 0 0 -10z"/>
<path d="M320 910 l0 -10 10 0 10 0 0 10 0 10 -10 0 -10 0 0 -10z"/>
<path d="M460 910 l0 -10 -30 0 -30 0 0 -10 0 -10 -18 0 -18 0 -14 -20 -14
-20 -158 0 -158 0 0 -10 0 -10 430 0 430 0 0 10 0 10 -88 0 -88 0 -14 20 -14
20 -18 0 -18 0 0 10 0 10 -30 0 -30 0 0 10 0 10 -60 0 -60 0 0 -10z m120 -20
l0 -10 30 0 30 0 0 -10 0 -10 20 0 20 0 0 -10 0 -10 -160 0 -160 0 0 10 0 10
20 0 20 0 0 10 0 10 30 0 30 0 0 10 0 10 60 0 60 0 0 -10z"/>
<path d="M700 910 l0 -10 10 0 10 0 0 10 0 10 -10 0 -10 0 0 -10z"/>
<path d="M180 890 l0 -10 10 0 10 0 0 10 0 10 -10 0 -10 0 0 -10z"/>
<path d="M220 890 l0 -10 10 0 10 0 0 10 0 10 -10 0 -10 0 0 -10z"/>
<path d="M780 890 l0 -10 10 0 10 0 0 10 0 10 -10 0 -10 0 0 -10z"/>
<path d="M820 890 l0 -10 10 0 10 0 0 10 0 10 -10 0 -10 0 0 -10z"/>
<path d="M1100 850 l0 -50 -10 0 -10 0 0 -39 0 -39 -12 -5 -13 -4 9 -9 9 -9 4
13 5 12 9 0 9 0 0 -30 0 -30 -10 0 -10 0 0 -20 0 -20 10 0 10 0 0 20 0 20 9 0
9 0 5 -12 4 -13 9 9 9 9 -12 4 -13 5 0 29 0 29 -10 0 -10 0 0 40 0 40 6 0 5 0
16 -16 16 -16 -14 -8 -13 -9 8 -8 9 -8 4 13 5 12 9 0 9 0 0 -29 0 -29 -12 -4
-13 -5 18 -17 18 -18 7 6 6 7 -14 10 -15 11 13 5 12 5 0 25 0 25 -30 28 -30
28 0 26 0 26 10 0 10 0 0 -20 0 -20 10 0 10 0 0 15 0 16 -25 24 -24 25 -6 0
-5 0 0 -50z"/>
<path d="M260 870 l0 -10 10 0 10 0 0 10 0 10 -10 0 -10 0 0 -10z"/>
<path d="M300 870 l0 -10 10 0 10 0 0 10 0 10 -10 0 -10 0 0 -10z"/>
<path d="M740 870 l0 -10 10 0 10 0 0 10 0 10 -10 0 -10 0 0 -10z"/>
<path d="M1180 830 l0 -10 40 0 40 0 0 10 0 10 -40 0 -40 0 0 -10z"/>
<path d="M380 790 l0 -10 140 0 140 0 0 10 0 10 -140 0 -140 0 0 -10z"/>
<path d="M1040 770 l0 -10 10 0 10 0 0 10 0 10 -10 0 -10 0 0 -10z"/>
<path d="M460 750 l0 -10 70 0 70 0 0 10 0 10 -70 0 -70 0 0 -10z"/>
<path d="M120 550 l0 -10 10 0 10 0 0 10 0 10 -10 0 -10 0 0 -10z"/>
<path d="M80 510 l0 -10 10 0 10 0 0 10 0 10 -10 0 -10 0 0 -10z"/>
<path d="M120 510 l0 -10 20 0 20 0 0 10 0 10 -20 0 -20 0 0 -10z"/>
<path d="M180 510 l0 -10 20 0 20 0 0 10 0 10 -20 0 -20 0 0 -10z"/>
<path d="M1140 510 l0 -10 10 0 10 0 0 10 0 10 -10 0 -10 0 0 -10z"/>
<path d="M240 490 l0 -10 20 0 20 0 0 10 0 10 -20 0 -20 0 0 -10z"/>
<path d="M1060 490 l0 -10 10 0 10 0 0 10 0 10 -10 0 -10 0 0 -10z"/>
<path d="M140 470 l0 -10 20 0 20 0 0 10 0 10 -20 0 -20 0 0 -10z"/>
<path d="M1120 470 l0 -10 10 0 10 0 0 10 0 10 -10 0 -10 0 0 -10z"/>
<path d="M200 430 l0 -10 20 0 20 0 0 10 0 10 -20 0 -20 0 0 -10z"/>
<path d="M1140 430 l0 -10 10 0 10 0 0 10 0 10 -10 0 -10 0 0 -10z"/>
<path d="M100 410 l0 -10 10 0 10 0 0 10 0 10 -10 0 -10 0 0 -10z"/>
<path d="M1060 410 l0 -10 10 0 10 0 0 10 0 10 -10 0 -10 0 0 -10z"/>
<path d="M200 390 l0 -10 10 0 10 0 0 10 0 10 -10 0 -10 0 0 -10z"/>
<path d="M320 390 l0 -10 -20 0 -20 0 0 -10 0 -10 -20 0 -20 0 0 -10 0 -10 20
0 20 0 0 10 0 10 16 0 15 0 15 14 14 15 0 5 0 6 -10 0 -10 0 0 -10z"/>
<path d="M1140 390 l0 -10 20 0 20 0 0 10 0 10 -20 0 -20 0 0 -10z"/>
<path d="M100 370 l0 -10 20 0 20 0 0 10 0 10 -20 0 -20 0 0 -10z"/>
<path d="M200 330 l0 -10 10 0 10 0 0 10 0 10 -10 0 -10 0 0 -10z"/>
<path d="M1060 330 l0 -10 20 0 20 0 0 10 0 10 -20 0 -20 0 0 -10z"/>
<path d="M1140 330 l0 -10 10 0 10 0 0 10 0 10 -10 0 -10 0 0 -10z"/>
<path d="M100 310 l0 -10 10 0 10 0 0 10 0 10 -10 0 -10 0 0 -10z"/>
<path d="M140 310 l0 -10 20 0 20 0 0 10 0 10 -20 0 -20 0 0 -10z"/>
<path d="M740 310 l0 -10 -40 0 -40 0 0 -10 0 -10 40 0 40 0 0 10 0 10 60 0
60 0 0 10 0 10 -60 0 -60 0 0 -10z"/>
<path d="M600 290 l0 -10 -30 0 -30 0 0 -10 0 -10 30 0 30 0 0 10 0 10 20 0
20 0 0 10 0 10 -20 0 -20 0 0 -10z"/>
<path d="M1040 290 l0 -10 10 0 10 0 0 10 0 10 -10 0 -10 0 0 -10z"/>
<path d="M380 270 l0 -10 -20 0 -20 0 0 -10 0 -10 20 0 20 0 0 10 0 10 30 0
30 0 0 10 0 10 -30 0 -30 0 0 -10z"/>
<path d="M460 270 l0 -10 10 0 10 0 0 10 0 10 -10 0 -10 0 0 -10z"/>
<path d="M500 270 l0 -10 10 0 10 0 0 10 0 10 -10 0 -10 0 0 -10z"/>
<path d="M860 270 l0 -10 10 0 10 0 0 10 0 10 -10 0 -10 0 0 -10z"/>
<path d="M980 270 l0 -10 10 0 10 0 0 10 0 10 -10 0 -10 0 0 -10z"/>
<path d="M1100 270 l0 -10 10 0 10 0 0 10 0 10 -10 0 -10 0 0 -10z"/>
<path d="M120 250 l0 -10 10 0 10 0 0 10 0 10 -10 0 -10 0 0 -10z"/>
<path d="M160 250 l0 -10 10 0 10 0 0 10 0 10 -10 0 -10 0 0 -10z"/>
<path d="M200 250 l0 -10 20 0 20 0 0 10 0 10 -20 0 -20 0 0 -10z"/>
<path d="M260 250 l0 -10 30 0 30 0 0 10 0 10 -30 0 -30 0 0 -10z"/>
<path d="M0 100 l0 -100 640 0 640 0 0 100 0 100 -640 0 -640 0 0 -100z"/>
</g>
</svg>
