<?xml version="1.0" standalone="no"?>
<!DOCTYPE svg PUBLIC "-//W3C//DTD SVG 20010904//EN"
 "http://www.w3.org/TR/2001/REC-SVG-20010904/DTD/svg10.dtd">
<svg version="1.0" xmlns="http://www.w3.org/2000/svg"
 width="468pt" height="468pt" viewBox="0 0 468 468"
 preserveAspectRatio="xMidYMid meet">
<metadata>
Created by potrace 1.8, written by Peter Selinger 2001-2007
</metadata>
<g transform="translate(0,468) scale(0.365625,-0.365625)"
fill="#000000" stroke="none">
<path d="M50 1150 l0 -80 190 0 190 0 0 80 0 80 -190 0 -190 0 0 -80z"/>
<path d="M480 1150 l0 -80 80 0 80 0 0 80 0 80 -80 0 -80 0 0 -80z"/>
<path d="M690 1150 l0 -80 190 0 190 0 0 80 0 80 -190 0 -190 0 0 -80z"/>
<path d="M1120 1150 l0 -80 80 0 80 0 0 80 0 80 -80 0 -80 0 0 -80z"/>
<path d="M0 930 l0 -80 55 0 55 0 0 80 0 80 -55 0 -55 0 0 -80z"/>
<path d="M160 930 l0 -80 80 0 80 0 0 80 0 80 -80 0 -80 0 0 -80z"/>
<path d="M370 930 l0 -80 190 0 190 0 0 80 0 80 -190 0 -190 0 0 -80z"/>
<path d="M800 930 l0 -80 80 0 80 0 0 80 0 80 -80 0 -80 0 0 -80z"/>
<path d="M1010 930 l0 -80 135 0 135 0 0 80 0 80 -135 0 -135 0 0 -80z"/>
<path d="M50 720 l0 -80 190 0 190 0 0 80 0 80 -190 0 -190 0 0 -80z"/>
<path d="M480 720 l0 -80 80 0 80 0 0 80 0 80 -80 0 -80 0 0 -80z"/>
<path d="M690 720 l0 -80 190 0 190 0 0 80 0 80 -190 0 -190 0 0 -80z"/>
<path d="M1120 720 l0 -80 80 0 80 0 0 80 0 80 -80 0 -80 0 0 -80z"/>
<path d="M0 510 l0 -80 55 0 55 0 0 80 0 80 -55 0 -55 0 0 -80z"/>
<path d="M160 510 l0 -80 80 0 80 0 0 80 0 80 -80 0 -80 0 0 -80z"/>
<path d="M370 510 l0 -80 190 0 190 0 0 80 0 80 -190 0 -190 0 0 -80z"/>
<path d="M800 510 l0 -80 80 0 80 0 0 80 0 80 -80 0 -80 0 0 -80z"/>
<path d="M1010 510 l0 -80 135 0 135 0 0 80 0 80 -135 0 -135 0 0 -80z"/>
<path d="M50 290 l0 -80 190 0 190 0 0 80 0 80 -190 0 -190 0 0 -80z"/>
<path d="M480 290 l0 -80 80 0 80 0 0 80 0 80 -80 0 -80 0 0 -80z"/>
<path d="M690 290 l0 -80 190 0 190 0 0 80 0 80 -190 0 -190 0 0 -80z"/>
<path d="M1120 290 l0 -80 80 0 80 0 0 80 0 80 -80 0 -80 0 0 -80z"/>
<path d="M0 80 l0 -80 55 0 55 0 0 80 0 80 -55 0 -55 0 0 -80z"/>
<path d="M160 80 l0 -80 80 0 80 0 0 80 0 80 -80 0 -80 0 0 -80z"/>
<path d="M370 80 l0 -80 190 0 190 0 0 80 0 80 -190 0 -190 0 0 -80z"/>
<path d="M800 80 l0 -80 80 0 80 0 0 80 0 80 -80 0 -80 0 0 -80z"/>
<path d="M1010 80 l0 -80 135 0 135 0 0 80 0 80 -135 0 -135 0 0 -80z"/>
</g>
</svg>
