<?xml version="1.0" standalone="no"?>
<!DOCTYPE svg PUBLIC "-//W3C//DTD SVG 20010904//EN"
 "http://www.w3.org/TR/2001/REC-SVG-20010904/DTD/svg10.dtd">
<svg version="1.0" xmlns="http://www.w3.org/2000/svg"
 width="468pt" height="468pt" viewBox="0 0 468 468"
 preserveAspectRatio="xMidYMid meet">
<metadata>
Created by potrace 1.8, written by Peter Selinger 2001-2007
</metadata>
<g transform="translate(0,468) scale(0.365625,-0.365625)"
fill="#000000" stroke="none">
<path d="M370 1255 l0 -25 -95 0 -95 0 0 -20 0 -20 -65 0 -65 0 0 -25 0 -25
-25 0 -25 0 0 -525 0 -525 25 0 25 0 0 -45 0 -45 545 0 545 0 0 25 0 25 25 0
25 0 0 -25 0 -25 20 0 20 0 0 45 0 45 25 0 25 0 0 525 0 525 -25 0 -25 0 0 25
0 25 -65 0 -65 0 0 20 0 20 -95 0 -95 0 0 25 0 25 -270 0 -270 0 0 -25z m40
-45 l0 -20 25 0 25 0 0 20 0 20 20 0 20 0 0 -20 0 -20 25 0 25 0 0 20 0 20 20
0 20 0 0 -20 0 -20 25 0 25 0 0 20 0 20 25 0 25 0 0 -20 0 -20 20 0 20 0 0 20
0 20 25 0 25 0 0 -20 0 -20 20 0 20 0 0 20 0 20 25 0 25 0 0 -20 0 -20 20 0
20 0 0 -25 0 -25 25 0 25 0 0 25 0 25 25 0 25 0 0 -25 0 -25 20 0 20 0 0 25 0
25 25 0 25 0 0 -25 0 -25 20 0 20 0 0 -20 0 -20 -20 0 -20 0 0 20 0 20 -25 0
-25 0 0 -20 0 -20 -20 0 -20 0 0 -25 0 -25 90 0 90 0 0 25 0 25 20 0 20 0 0
-25 0 -25 -20 0 -20 0 0 -20 0 -20 20 0 20 0 0 -25 0 -25 -20 0 -20 0 0 -25 0
-25 20 0 20 0 0 -20 0 -20 -20 0 -20 0 0 -25 0 -25 20 0 20 0 0 -20 0 -20 -20
0 -20 0 0 -25 0 -25 20 0 20 0 0 -20 0 -20 -20 0 -20 0 0 -25 0 -25 20 0 20 0
0 -25 0 -25 -20 0 -20 0 0 25 0 25 -25 0 -25 0 0 -25 0 -25 -45 0 -45 0 0 25
0 25 -90 0 -90 0 0 25 0 25 -250 0 -250 0 0 -25 0 -25 -70 0 -70 0 0 -25 0
-25 -70 0 -70 0 0 -20 0 -20 -20 0 -20 0 0 275 0 275 45 0 45 0 0 -25 0 -25
65 0 65 0 0 -20 0 -20 95 0 95 0 0 20 0 20 -25 0 -25 0 0 25 0 25 -20 0 -20 0
0 -25 0 -25 -25 0 -25 0 0 25 0 25 -25 0 -25 0 0 20 0 20 -20 0 -20 0 0 -20 0
-20 -25 0 -25 0 0 20 0 20 25 0 25 0 0 25 0 25 20 0 20 0 0 -25 0 -25 25 0 25
0 0 25 0 25 25 0 25 0 0 20 0 20 20 0 20 0 0 -20z m50 -640 l0 -20 -25 0 -25
0 0 20 0 20 25 0 25 0 0 -20z m130 0 l0 -20 -20 0 -20 0 0 20 0 20 20 0 20 0
0 -20z m190 0 l0 -20 -25 0 -25 0 0 20 0 20 25 0 25 0 0 -20z m-550 -45 l0
-25 -25 0 -25 0 0 25 0 25 25 0 25 0 0 -25z m820 0 l0 -25 -20 0 -20 0 0 25 0
25 20 0 20 0 0 -25z m90 0 l0 -25 25 0 25 0 0 -20 0 -20 20 0 20 0 0 -25 0
-25 -20 0 -20 0 0 25 0 25 -25 0 -25 0 0 20 0 20 -20 0 -20 0 0 25 0 25 20 0
20 0 0 -25z m-730 -45 l0 -20 -20 0 -20 0 0 20 0 20 20 0 20 0 0 -20z m550 0
l0 -20 -25 0 -25 0 0 20 0 20 25 0 25 0 0 -20z m-370 -45 l0 -25 -20 0 -20 0
0 25 0 25 20 0 20 0 0 -25z m100 0 l0 -25 -25 0 -25 0 0 25 0 25 25 0 25 0 0
-25z m90 0 l0 -25 -25 0 -25 0 0 25 0 25 25 0 25 0 0 -25z m450 -90 l0 -25
-20 0 -20 0 0 25 0 25 20 0 20 0 0 -25z m0 -95 l0 -20 -20 0 -20 0 0 -25 0
-25 20 0 20 0 0 -20 0 -20 -20 0 -20 0 0 -25 0 -25 -25 0 -25 0 0 -20 0 -20
-20 0 -20 0 0 20 0 20 20 0 20 0 0 25 0 25 25 0 25 0 0 20 0 20 -25 0 -25 0 0
25 0 25 25 0 25 0 0 20 0 20 20 0 20 0 0 -20z"/>
<path d="M370 1165 l0 -25 -25 0 -25 0 0 -20 0 -20 25 0 25 0 0 20 0 20 20 0
20 0 0 -20 0 -20 25 0 25 0 0 -25 0 -25 20 0 20 0 0 -20 0 -20 -20 0 -20 0 0
-25 0 -25 180 0 180 0 0 25 0 25 95 0 95 0 0 20 0 20 -25 0 -25 0 0 25 0 25
25 0 25 0 0 20 0 20 -25 0 -25 0 0 -20 0 -20 -25 0 -25 0 0 20 0 20 -20 0 -20
0 0 25 0 25 -25 0 -25 0 0 -25 0 -25 -20 0 -20 0 0 25 0 25 -25 0 -25 0 0 -25
0 -25 -20 0 -20 0 0 25 0 25 -25 0 -25 0 0 -25 0 -25 -25 0 -25 0 0 25 0 25
-20 0 -20 0 0 -25 0 -25 -25 0 -25 0 0 25 0 25 -20 0 -20 0 0 -25 0 -25 -25 0
-25 0 0 25 0 25 -20 0 -20 0 0 -25z m130 -45 l0 -20 25 0 25 0 0 20 0 20 20 0
20 0 0 -20 0 -20 25 0 25 0 0 20 0 20 25 0 25 0 0 -20 0 -20 20 0 20 0 0 20 0
20 25 0 25 0 0 -20 0 -20 20 0 20 0 0 20 0 20 25 0 25 0 0 -20 0 -20 20 0 20
0 0 -25 0 -25 -20 0 -20 0 0 25 0 25 -25 0 -25 0 0 -25 0 -25 -20 0 -20 0 0
-20 0 -20 -25 0 -25 0 0 20 0 20 -20 0 -20 0 0 -20 0 -20 -25 0 -25 0 0 20 0
20 -25 0 -25 0 0 -20 0 -20 -20 0 -20 0 0 20 0 20 -25 0 -25 0 0 25 0 25 -20
0 -20 0 0 20 0 20 20 0 20 0 0 -20z"/>
<path d="M550 1075 l0 -25 20 0 20 0 0 25 0 25 -20 0 -20 0 0 -25z"/>
<path d="M640 1075 l0 -25 25 0 25 0 0 25 0 25 -25 0 -25 0 0 -25z"/>
<path d="M730 1075 l0 -25 25 0 25 0 0 25 0 25 -25 0 -25 0 0 -25z"/>
<path d="M1140 985 l0 -25 25 0 25 0 0 25 0 25 -25 0 -25 0 0 -25z"/>
<path d="M1140 890 l0 -20 25 0 25 0 0 20 0 20 -25 0 -25 0 0 -20z"/>
<path d="M1140 800 l0 -20 25 0 25 0 0 20 0 20 -25 0 -25 0 0 -20z"/>
<path d="M1140 710 l0 -20 25 0 25 0 0 20 0 20 -25 0 -25 0 0 -20z"/>
</g>
</svg>
