<?xml version="1.0" standalone="no"?>
<!DOCTYPE svg PUBLIC "-//W3C//DTD SVG 20010904//EN"
 "http://www.w3.org/TR/2001/REC-SVG-20010904/DTD/svg10.dtd">
<svg version="1.0" xmlns="http://www.w3.org/2000/svg"
 width="468pt" height="468pt" viewBox="0 0 468 468"
 preserveAspectRatio="xMidYMid meet">
<metadata>
Created by potrace 1.8, written by Peter Selinger 2001-2007
</metadata>
<g transform="translate(0,468) scale(0.365625,-0.365625)"
fill="#000000" stroke="none">
<path d="M58 1273 l-18 -4 0 -10 0 -9 15 0 15 0 0 9 0 10 18 4 17 5 -15 0 -15
0 -17 -5z"/>
<path d="M160 1273 l15 -6 7 -11 8 -11 0 -27 0 -28 10 0 10 0 0 -15 0 -16 14
-5 14 -5 6 -25 6 -24 10 0 10 0 0 9 0 9 -7 5 -8 4 12 -3 12 -3 15 14 14 14 26
7 26 6 0 9 0 9 13 0 13 0 17 20 17 20 15 0 15 0 0 9 0 10 45 7 45 6 0 9 0 9
35 0 35 0 0 -9 0 -8 60 -7 60 -7 0 -9 0 -10 15 0 16 0 5 -14 5 -14 25 -6 24
-6 0 -10 0 -10 11 0 11 0 24 -22 24 -23 0 -22 0 -23 9 0 10 0 7 -45 6 -45 8 0
8 0 7 -42 7 -41 26 -24 25 -23 18 0 19 0 0 -10 0 -10 40 -6 40 -7 0 -7 0 -8
30 -7 29 -6 6 -20 6 -19 -6 -10 -6 -10 -15 0 -14 0 0 -10 0 -10 -40 -6 -40 -7
0 -8 0 -9 -20 0 -20 0 0 9 0 9 30 6 30 6 0 10 0 11 -14 15 -15 14 -10 0 -11 0
-1 18 -1 17 -5 -12 -5 -13 -14 0 -14 0 0 13 0 12 -72 2 -71 2 -6 9 -6 9 -39 6
-39 6 -6 9 -6 9 -22 7 -22 7 -6 20 -7 21 -17 17 -18 18 -16 6 -16 6 12 -27 12
-27 8 -6 8 -6 2 -28 2 -28 -13 -3 -12 -2 10 5 10 5 0 14 0 14 -10 0 -10 0 -1
-17 -1 -18 1 -12 2 -13 -51 0 -50 0 0 10 0 10 -22 1 -23 1 15 5 15 6 7 11 8
11 0 -12 0 -13 10 0 10 0 0 24 0 23 -35 6 -35 6 -26 28 -26 28 5 38 5 39 18
12 17 13 -6 14 -5 14 -1 -16 -1 -17 -15 -6 -15 -5 0 -16 0 -15 -10 0 -10 0 0
-29 0 -29 9 -4 8 -3 7 -25 7 -25 -8 11 -8 11 -22 7 -21 7 -6 23 -6 24 -14 5
-14 6 5 -20 5 -19 9 0 9 0 0 -31 0 -31 -14 5 -15 6 6 -15 5 -14 -61 0 -61 0 0
9 0 9 25 6 25 6 0 24 0 24 -15 6 -15 5 0 16 0 15 -14 0 -14 0 -5 13 -4 12 -9
-8 -9 -9 18 -9 17 -10 0 -14 0 -15 9 0 9 0 6 -15 5 -14 -107 5 -107 5 -15 -10
-15 -11 15 -9 14 -10 59 2 58 1 8 -13 8 -13 42 -5 41 -6 0 -7 0 -7 97 -7 98
-8 7 -11 7 -12 181 0 181 -1 7 -11 7 -10 68 -7 67 -8 0 -8 0 -8 30 -7 30 -7 0
-8 0 -8 -22 -6 -23 -6 -22 0 -23 0 0 -9 0 -10 16 -3 17 -3 -114 -3 -114 -3 -3
-9 -4 -10 -51 0 -52 0 -147 -12 -148 -12 0 -7 0 -6 -80 -7 -80 -7 0 -10 0 -9
-41 0 -41 0 -5 -20 -5 -20 -59 0 -59 0 0 -270 0 -270 640 0 640 0 0 270 0 270
-327 2 -328 2 113 3 112 4 0 8 0 8 107 7 107 7 6 8 5 8 39 6 39 6 6 9 6 8 35
14 35 14 23 25 22 24 0 26 0 26 -24 23 -24 22 -10 0 -10 0 -4 12 -5 13 -44 -1
-44 0 18 4 17 3 0 10 0 9 -14 0 -14 0 -31 31 -31 31 0 19 0 19 -9 0 -8 0 -6
57 -6 56 -9 6 -9 6 -7 23 -7 22 -10 0 -9 0 0 15 0 15 -15 0 -16 0 -5 14 -6 15
-29 6 -29 7 0 8 0 8 -45 6 -45 7 0 8 0 8 -42 7 -42 7 -8 12 -7 11 -96 1 -96 0
-7 -11 -7 -11 -32 -8 -33 -7 0 -9 0 -9 -15 0 -15 0 -17 -20 -17 -20 -13 0 -13
0 0 -10 0 -9 -35 -7 -35 -6 -25 23 -25 24 0 22 0 23 -17 20 -17 20 -16 -1 -15
-1 15 -5z m760 -118 l24 -8 29 -29 29 -28 5 -40 6 -40 7 0 7 0 7 -56 6 -55 27
-25 26 -24 13 0 14 0 0 -10 0 -10 -15 0 -15 0 0 10 0 10 -14 0 -14 0 -40 40
-41 39 -7 51 -7 50 -8 0 -8 0 -7 35 -6 35 -9 0 -9 0 0 15 0 15 -20 17 -20 17
0 11 0 10 8 -11 7 -11 25 -8z m260 -345 l0 -10 -10 0 -10 0 0 10 0 10 10 0 10
0 0 -10z m62 -34 l8 -11 0 -12 0 -13 10 0 10 0 0 -10 0 -11 -26 -24 -27 -25
-13 0 -14 0 0 -8 0 -9 -40 -12 -40 -12 -10 6 -10 6 0 -15 0 -16 -30 0 -30 0 0
10 0 10 -10 0 -10 0 0 -16 0 -16 -65 4 -65 3 0 -12 0 -13 -99 0 -99 0 -5 13
-5 12 -1 -18 -1 -18 -125 3 -125 3 0 -12 0 -13 -145 0 -145 0 0 9 0 8 72 8 73
7 5 8 5 8 100 8 100 7 5 7 5 7 171 12 172 11 86 0 86 0 0 9 0 9 55 7 55 6 0 8
0 9 29 5 30 6 20 18 21 17 0 13 0 12 -17 17 -17 17 24 -8 25 -8 7 -11z"/>
<path d="M5 1240 l-6 -10 6 -10 6 -10 25 0 25 0 14 -14 14 -14 7 -41 7 -41 7
0 8 0 7 -30 6 -29 22 -7 22 -7 12 -16 11 -16 8 8 7 7 -11 0 -12 0 0 15 0 15
-10 0 -10 0 -20 20 -21 21 -6 32 -6 32 -11 7 -11 8 13 0 12 0 0 15 0 14 22 21
22 20 -7 7 -7 6 0 -11 0 -12 -70 0 -70 0 0 9 0 9 13 5 12 5 -12 1 -12 1 -6
-10z"/>
<path d="M108 1243 l13 -5 6 6 6 6 -19 -1 -19 -1 13 -5z"/>
<path d="M217 1076 l-6 -15 15 6 14 5 0 9 0 9 -9 0 -9 0 -5 -14z"/>
<path d="M360 1021 l0 -10 11 -6 10 -7 4 3 3 4 -14 13 -14 13 0 -10z"/>
</g>
</svg>
