<?xml version="1.0" standalone="no"?>
<!DOCTYPE svg PUBLIC "-//W3C//DTD SVG 20010904//EN"
 "http://www.w3.org/TR/2001/REC-SVG-20010904/DTD/svg10.dtd">
<svg version="1.0" xmlns="http://www.w3.org/2000/svg"
 width="468pt" height="468pt" viewBox="0 0 468 468"
 preserveAspectRatio="xMidYMid meet">
<metadata>
Created by potrace 1.8, written by Peter Selinger 2001-2007
</metadata>
<g transform="translate(0,468) scale(0.365625,-0.365625)"
fill="#000000" stroke="none">
<path d="M720 960 l0 -320 240 0 240 0 0 320 0 320 -240 0 -240 0 0 -320z
m400 0 l0 -240 -160 0 -160 0 0 240 0 240 160 0 160 0 0 -240z"/>
<path d="M880 960 l0 -160 80 0 80 0 0 160 0 160 -80 0 -80 0 0 -160z"/>
<path d="M0 960 l0 -240 320 0 320 0 0 240 0 240 -320 0 -320 0 0 -240z m560
0 l0 -160 -240 0 -240 0 0 160 0 160 240 0 240 0 0 -160z"/>
<path d="M160 960 l0 -80 160 0 160 0 0 80 0 80 -160 0 -160 0 0 -80z"/>
<path d="M80 320 l0 -320 240 0 240 0 0 320 0 320 -240 0 -240 0 0 -320z m400
0 l0 -240 -160 0 -160 0 0 240 0 240 160 0 160 0 0 -240z"/>
<path d="M240 320 l0 -160 80 0 80 0 0 160 0 160 -80 0 -80 0 0 -160z"/>
<path d="M640 320 l0 -240 320 0 320 0 0 240 0 240 -320 0 -320 0 0 -240z
m560 0 l0 -160 -240 0 -240 0 0 160 0 160 240 0 240 0 0 -160z"/>
<path d="M800 320 l0 -80 160 0 160 0 0 80 0 80 -160 0 -160 0 0 -80z"/>
</g>
</svg>
