<?xml version="1.0" standalone="no"?>
<!DOCTYPE svg PUBLIC "-//W3C//DTD SVG 20010904//EN"
 "http://www.w3.org/TR/2001/REC-SVG-20010904/DTD/svg10.dtd">
<svg version="1.0" xmlns="http://www.w3.org/2000/svg"
 width="468pt" height="468pt" viewBox="0 0 468 468"
 preserveAspectRatio="xMidYMid meet">
<metadata>
Created by potrace 1.8, written by Peter Selinger 2001-2007
</metadata>
<g transform="translate(0,468) scale(0.365625,-0.365625)"
fill="#000000" stroke="none">
<path d="M530 1125 l0 -15 -26 0 -25 0 -15 -14 -14 -15 0 -40 0 -41 -15 0 -15
0 0 -40 0 -40 25 0 25 0 0 15 0 15 -10 0 -10 0 0 25 0 25 10 0 10 0 0 -15 0
-15 15 0 15 0 0 -55 0 -55 -15 0 -15 0 0 -15 0 -15 -10 0 -10 0 0 -40 0 -40
10 0 10 0 0 -25 0 -25 15 0 15 0 0 -15 0 -15 30 0 30 0 0 -30 0 -30 -15 0 -15
0 0 -25 0 -25 -15 0 -15 0 0 10 0 10 -40 0 -40 0 0 -25 0 -25 -15 0 -15 0 0
-40 0 -40 -15 0 -15 0 0 -115 0 -115 15 0 15 0 0 -25 0 -25 -15 0 -15 0 0 -15
0 -15 -15 0 -15 0 0 -26 0 -25 -14 -15 -15 -14 -10 0 -11 0 0 -15 0 -15 -15 0
-15 0 0 -15 0 -15 30 0 30 0 0 26 0 25 14 15 15 14 10 0 11 0 0 15 0 15 15 0
15 0 0 30 0 30 15 0 15 0 0 40 0 40 -15 0 -15 0 0 55 0 55 15 0 15 0 0 15 0
15 15 0 15 0 0 -30 0 -30 10 0 10 0 0 15 0 15 15 0 15 0 0 15 0 15 15 0 15 0
0 -40 0 -40 -15 0 -15 0 0 -15 0 -15 -15 0 -15 0 0 -85 0 -85 -10 0 -10 0 0
-15 0 -15 -30 0 -30 0 0 -25 0 -25 -15 0 -15 0 0 -15 0 -15 15 0 15 0 0 15 0
15 15 0 15 0 0 15 0 15 11 0 10 0 15 14 14 15 0 10 0 11 15 0 15 0 0 85 0 85
15 0 15 0 0 -70 0 -70 15 0 15 0 0 -55 0 -55 10 0 10 0 0 -15 0 -15 30 0 30 0
0 15 0 15 70 0 70 0 0 -15 0 -15 155 0 155 0 0 70 0 70 10 0 10 0 0 40 0 40
-10 0 -10 0 0 30 0 30 -15 0 -15 0 0 15 0 15 -15 0 -15 0 0 10 0 10 -15 0 -15
0 0 -10 0 -10 15 0 15 0 0 -15 0 -15 15 0 15 0 0 -30 0 -30 15 0 15 0 0 -40 0
-40 -15 0 -15 0 0 -15 0 -15 -30 0 -30 0 0 15 0 15 -15 0 -15 0 0 110 0 110
-10 0 -10 0 0 15 0 15 -15 0 -15 0 0 15 0 15 -15 0 -15 0 0 15 0 15 -15 0 -15
0 0 25 0 25 -15 0 -15 0 0 15 0 15 15 0 15 0 0 -15 0 -15 15 0 15 0 0 -25 0
-25 15 0 15 0 0 -15 0 -15 15 0 15 0 0 -15 0 -15 10 0 10 0 0 -15 0 -15 15 0
15 0 0 30 0 30 15 0 15 0 0 -15 0 -15 15 0 15 0 0 30 0 30 15 0 15 0 0 -30 0
-30 10 0 10 0 0 -15 0 -15 15 0 15 0 0 -15 0 -15 15 0 15 0 0 -40 0 -40 15 0
15 0 0 -55 0 -55 -15 0 -15 0 0 -70 0 -70 55 0 55 0 0 15 0 15 -15 0 -15 0 0
15 0 15 -11 0 -10 0 -15 14 -14 15 0 10 0 11 10 0 10 0 0 96 0 95 -14 15 -15
14 -10 0 -11 0 0 30 0 30 -15 0 -15 0 0 15 0 15 -15 0 -15 0 0 25 0 25 -10 0
-10 0 0 30 0 30 -15 0 -15 0 0 15 0 15 -15 0 -15 0 0 10 0 10 -15 0 -15 0 0
30 0 30 -40 0 -40 0 0 15 0 15 -15 0 -15 0 0 -15 0 -15 -30 0 -30 0 0 -15 0
-15 -10 0 -10 0 0 -15 0 -15 -15 0 -15 0 0 15 0 15 -15 0 -15 0 0 30 0 30 15
0 15 0 0 25 0 25 15 0 15 0 0 41 0 40 14 15 15 14 10 0 11 0 0 30 0 30 30 0
30 0 0 55 0 55 -15 0 -15 0 0 15 0 15 -15 0 -15 0 0 30 0 30 -11 0 -10 0 -15
14 -14 15 0 10 0 11 -140 0 -140 0 0 -15z m0 -80 l0 -15 25 0 25 0 0 -30 0
-30 45 0 45 0 0 30 0 30 25 0 25 0 0 15 0 15 45 0 45 0 0 -15 0 -15 10 0 10 0
0 -40 0 -40 -10 0 -10 0 0 -15 0 -15 10 0 10 0 0 -45 0 -45 -25 0 -25 0 0 -25
0 -25 -15 0 -15 0 0 -15 0 -15 -140 0 -140 0 0 15 0 15 125 0 125 0 0 15 0 15
15 0 15 0 0 10 0 10 -15 0 -15 0 0 -10 0 -10 -125 0 -125 0 0 10 0 10 15 0 15
0 0 15 0 15 15 0 15 0 0 30 0 30 15 0 15 0 0 25 0 25 -30 0 -30 0 0 15 0 15
-15 0 -15 0 0 30 0 30 30 0 30 0 0 -15z m360 -100 l0 -25 -30 0 -30 0 0 15 0
15 15 0 15 0 0 10 0 10 15 0 15 0 0 -25z m-140 -235 l0 -10 -25 0 -25 0 0 -15
0 -15 -45 0 -45 0 0 15 0 15 45 0 45 0 0 10 0 10 25 0 25 0 0 -10z"/>
<path d="M720 960 l0 -40 15 0 15 0 0 15 0 15 15 0 15 0 0 10 0 10 15 0 15 0
0 15 0 15 -45 0 -45 0 0 -40z"/>
<path d="M580 905 l0 -15 15 0 15 0 0 15 0 15 -15 0 -15 0 0 -15z"/>
<path d="M640 905 l0 -15 15 0 15 0 0 15 0 15 -15 0 -15 0 0 -15z"/>
</g>
</svg>
