<?xml version="1.0" standalone="no"?>
<!DOCTYPE svg PUBLIC "-//W3C//DTD SVG 20010904//EN"
 "http://www.w3.org/TR/2001/REC-SVG-20010904/DTD/svg10.dtd">
<svg version="1.0" xmlns="http://www.w3.org/2000/svg"
 width="468pt" height="468pt" viewBox="0 0 468 468"
 preserveAspectRatio="xMidYMid meet">
<metadata>
Created by potrace 1.8, written by Peter Selinger 2001-2007
</metadata>
<g transform="translate(0,468) scale(0.365625,-0.365625)"
fill="#000000" stroke="none">
<path d="M530 1185 l0 -95 -10 0 -10 0 0 15 0 15 -15 0 -15 0 0 15 0 15 -25 0
-25 0 0 10 0 10 -70 0 -70 0 0 15 0 15 -65 0 -65 0 0 15 0 15 -15 0 -15 0 0
-30 0 -30 15 0 15 0 0 -10 0 -10 15 0 15 0 0 -15 0 -15 25 0 25 0 0 -15 0 -15
15 0 15 0 0 -10 0 -10 40 0 40 0 0 -15 0 -15 10 0 10 0 0 -15 0 -15 15 0 15 0
0 -10 0 -10 40 0 40 0 0 -30 0 -30 -40 0 -40 0 0 15 0 15 -120 0 -120 0 0 -15
0 -15 -80 0 -80 0 0 -10 0 -10 80 0 80 0 0 10 0 10 105 0 105 0 0 -10 0 -10
55 0 55 0 0 10 0 10 95 0 95 0 0 15 0 15 50 0 50 0 0 15 0 15 -50 0 -50 0 0
-15 0 -15 -80 0 -80 0 0 15 0 15 -15 0 -15 0 0 10 0 10 -25 0 -25 0 0 15 0 15
-15 0 -15 0 0 15 0 15 -25 0 -25 0 0 10 0 10 -30 0 -30 0 0 15 0 15 -25 0 -25
0 0 15 0 15 -15 0 -15 0 0 10 0 10 40 0 40 0 0 -10 0 -10 55 0 55 0 0 -15 0
-15 25 0 25 0 0 -15 0 -15 15 0 15 0 0 -10 0 -10 25 0 25 0 0 -15 0 -15 15 0
15 0 0 -15 0 -15 15 0 15 0 0 30 0 30 -15 0 -15 0 0 105 0 105 -15 0 -15 0 0
-95z"/>
<path d="M640 1265 l0 -15 11 0 10 0 15 -14 14 -15 0 -10 0 -11 15 0 15 0 0
-15 0 -15 11 0 10 0 15 -14 14 -15 0 -10 0 -11 15 0 15 0 0 -25 0 -25 25 0 25
0 0 10 0 10 -10 0 -10 0 0 15 0 15 10 0 10 0 0 25 0 25 15 0 15 0 0 30 0 30
14 0 14 0 6 13 6 12 6 -12 6 -13 14 0 14 0 0 -30 0 -30 15 0 15 0 0 -25 0 -25
10 0 10 0 0 -25 0 -25 15 0 15 0 0 25 0 25 15 0 15 0 0 40 0 40 10 0 10 0 0
-40 0 -40 15 0 15 0 0 -25 0 -25 15 0 15 0 0 25 0 25 -15 0 -15 0 0 40 0 40
-15 0 -15 0 0 15 0 15 -10 0 -10 0 0 -15 0 -15 -15 0 -15 0 0 -40 0 -40 -15 0
-15 0 0 25 0 25 -10 0 -10 0 0 30 0 30 -15 0 -15 0 0 25 0 25 -40 0 -40 0 0
-25 0 -25 -15 0 -15 0 0 -30 0 -30 -10 0 -10 0 0 -25 0 -25 -15 0 -15 0 0 15
0 15 -11 0 -10 0 -15 14 -14 15 0 10 0 11 -15 0 -15 0 0 15 0 15 -11 0 -10 0
-15 14 -14 15 0 10 0 11 -15 0 -15 0 0 -15z"/>
<path d="M1170 1135 l0 -65 -10 0 -10 0 0 -15 0 -15 -30 0 -30 0 0 -25 0 -25
-10 0 -10 0 0 -55 0 -55 -15 0 -15 0 0 -40 0 -40 -15 0 -15 0 0 -25 0 -25 -10
0 -10 0 0 -15 0 -15 -40 0 -40 0 0 -15 0 -15 -40 0 -40 0 0 -10 0 -10 -40 0
-40 0 0 -15 0 -15 -40 0 -40 0 0 -15 0 -15 -30 0 -30 0 0 15 0 15 -90 0 -90 0
0 -15 0 -15 -15 0 -15 0 0 -10 0 -10 -25 0 -25 0 0 -30 0 -30 -15 0 -15 0 0
15 0 15 -55 0 -55 0 0 -15 0 -15 40 0 40 0 0 -10 0 -10 -36 0 -35 0 -15 14
-14 15 0 25 0 26 -15 0 -15 0 0 105 0 105 80 0 80 0 0 15 0 15 -80 0 -80 0 0
10 0 10 -15 0 -15 0 0 -10 0 -10 -25 0 -25 0 0 -15 0 -15 -40 0 -40 0 0 -15 0
-15 55 0 55 0 0 15 0 15 10 0 10 0 0 -105 0 -105 15 0 15 0 0 -30 0 -30 -11 0
-10 0 -15 -14 -14 -15 0 -50 0 -51 10 0 10 0 0 -25 0 -25 15 0 15 0 0 -15 0
-15 15 0 15 0 0 -95 0 -95 10 0 10 0 0 -25 0 -25 40 0 40 0 0 -15 0 -15 15 0
15 0 0 -10 0 -10 40 0 40 0 0 10 0 10 40 0 40 0 0 15 0 15 65 0 65 0 0 -15 0
-15 40 0 40 0 0 -10 0 -10 40 0 40 0 0 -15 0 -15 30 0 30 0 0 15 0 15 -30 0
-30 0 0 10 0 10 -40 0 -40 0 0 15 0 15 -40 0 -40 0 0 15 0 15 40 0 40 0 0 10
0 10 -40 0 -40 0 0 -10 0 -10 -65 0 -65 0 0 -15 0 -15 -95 0 -95 0 0 15 0 15
-25 0 -25 0 0 10 0 10 -15 0 -15 0 0 95 0 95 30 0 30 0 0 15 0 15 10 0 10 0 0
-40 0 -40 30 0 30 0 0 -15 0 -15 40 0 40 0 0 15 0 15 25 0 25 0 0 10 0 10 -25
0 -25 0 0 -10 0 -10 -40 0 -40 0 0 10 0 10 -15 0 -15 0 0 40 0 40 15 0 15 0 0
15 0 15 40 0 40 0 0 -15 0 -15 65 0 65 0 0 15 0 15 15 0 15 0 0 11 0 10 14 15
15 14 10 0 11 0 0 55 0 55 15 0 15 0 0 15 0 15 40 0 40 0 0 10 0 10 40 0 40 0
0 15 0 15 40 0 40 0 0 15 0 15 10 0 10 0 0 -15 0 -15 -10 0 -10 0 0 -15 0 -15
25 0 25 0 0 15 0 15 15 0 15 0 0 -25 0 -25 -15 0 -15 0 0 -15 0 -15 -15 0 -15
0 0 15 0 15 -50 0 -50 0 0 -30 0 -30 -15 0 -15 0 0 -40 0 -40 -15 0 -15 0 0
-50 0 -50 -10 0 -10 0 0 -40 0 -40 -15 0 -15 0 0 -40 0 -40 -15 0 -15 0 0 -15
0 -15 30 0 30 0 0 -15 0 -15 25 0 25 0 0 -10 0 -10 40 0 40 0 0 -15 0 -15 25
0 25 0 0 -40 0 -40 15 0 15 0 0 25 0 25 15 0 15 0 0 15 0 15 10 0 10 0 0 40 0
40 15 0 15 0 0 15 0 15 11 0 10 0 15 14 14 15 0 25 0 26 15 0 15 0 0 10 0 10
15 0 15 0 0 30 0 30 10 0 10 0 0 25 0 25 15 0 15 0 0 15 0 15 15 0 15 0 0 25
0 25 10 0 10 0 0 15 0 15 -40 0 -40 0 0 -15 0 -15 15 0 15 0 0 -25 0 -25 -15
0 -15 0 0 -15 0 -15 -40 0 -40 0 0 15 0 15 -50 0 -50 0 0 10 0 10 -55 0 -55 0
0 15 0 15 -25 0 -25 0 0 25 0 25 10 0 10 0 0 15 0 15 40 0 40 0 0 -15 0 -15
70 0 70 0 0 -10 0 -10 50 0 50 0 0 10 0 10 15 0 15 0 0 15 0 15 15 0 15 0 0
65 0 65 -15 0 -15 0 0 15 0 15 -25 0 -25 0 0 25 0 25 10 0 10 0 0 40 0 40 15
0 15 0 0 15 0 15 15 0 15 0 0 -25 0 -25 25 0 25 0 0 10 0 10 -15 0 -15 0 0 15
0 15 -10 0 -10 0 0 25 0 25 -15 0 -15 0 0 15 0 15 -15 0 -15 0 0 -55 0 -55
-10 0 -10 0 0 -40 0 -40 -15 0 -15 0 0 -40 0 -40 -15 0 -15 0 0 -50 0 -50 -10
0 -10 0 0 -15 0 -15 -40 0 -40 0 0 15 0 15 10 0 10 0 0 50 0 50 15 0 15 0 0
55 0 55 15 0 15 0 0 40 0 40 10 0 10 0 0 55 0 55 15 0 15 0 0 10 0 10 25 0 25
0 0 15 0 15 15 0 15 0 0 -15 0 -15 25 0 25 0 0 15 0 15 -10 0 -10 0 0 15 0 15
-15 0 -15 0 0 65 0 65 -15 0 -15 0 0 -65z m30 -510 l0 -65 -25 0 -25 0 0 -15
0 -15 -30 0 -30 0 0 30 0 30 15 0 15 0 0 50 0 50 40 0 40 0 0 -65z m-610 -25
l0 -10 -70 0 -70 0 0 -15 0 -15 -10 0 -10 0 0 10 0 11 13 14 12 14 68 1 67 0
0 -10z m-80 -110 l0 -40 -40 0 -40 0 0 40 0 40 40 0 40 0 0 -40z m-320 5 l0
-15 -30 0 -30 0 0 15 0 15 30 0 30 0 0 -15z m100 -55 l0 -40 -25 0 -25 0 0 25
0 25 15 0 15 0 0 15 0 15 10 0 10 0 0 -40z m80 15 l0 -25 -10 0 -10 0 0 25 0
25 10 0 10 0 0 -25z m510 -15 l0 -10 55 0 55 0 0 -15 0 -15 50 0 50 0 0 -15 0
-15 30 0 30 0 0 -10 0 -10 -15 0 -15 0 0 -30 0 -30 -15 0 -15 0 0 -10 0 -10
-25 0 -25 0 0 10 0 10 -40 0 -40 0 0 15 0 15 -25 0 -25 0 0 15 0 15 -40 0 -40
0 0 10 0 10 -15 0 -15 0 0 40 0 40 40 0 40 0 0 -10z m-50 -105 l0 -15 40 0 40
0 0 -15 0 -15 25 0 25 0 0 -10 0 -10 40 0 40 0 0 -15 0 -15 15 0 15 0 0 -15 0
-15 -15 0 -15 0 0 -10 0 -10 -25 0 -25 0 0 10 0 10 -30 0 -30 0 0 15 0 15 -40
0 -40 0 0 15 0 15 -25 0 -25 0 0 10 0 10 -15 0 -15 0 0 30 0 30 30 0 30 0 0
-15z m-30 -80 l0 -15 25 0 25 0 0 -15 0 -15 40 0 40 0 0 -10 0 -10 30 0 30 0
0 -55 0 -55 -30 0 -30 0 0 15 0 15 -25 0 -25 0 0 10 0 10 -40 0 -40 0 0 15 0
15 -25 0 -25 0 0 55 0 55 25 0 25 0 0 -15z"/>
<path d="M1250 1055 l0 -15 15 0 15 0 0 15 0 15 -15 0 -15 0 0 -15z"/>
<path d="M850 865 l0 -15 40 0 40 0 0 -10 0 -10 30 0 30 0 0 10 0 10 -30 0
-30 0 0 15 0 15 -40 0 -40 0 0 -15z"/>
<path d="M850 785 l0 -15 40 0 40 0 0 -10 0 -10 15 0 15 0 0 10 0 10 -15 0
-15 0 0 15 0 15 -40 0 -40 0 0 -15z"/>
<path d="M610 360 l0 -10 15 0 15 0 0 -40 0 -40 -15 0 -15 0 0 -15 0 -15 -10
0 -10 0 0 -15 0 -15 -30 0 -30 0 0 -10 0 -10 -65 0 -65 0 0 -15 0 -15 65 0 65
0 0 15 0 15 26 0 25 0 15 14 14 15 0 10 0 11 15 0 15 0 0 15 0 15 15 0 15 0 0
50 0 50 -30 0 -30 0 0 -10z"/>
<path d="M0 145 l0 -15 25 0 25 0 0 -10 0 -10 30 0 30 0 0 -30 0 -30 10 0 10
0 0 -25 0 -25 15 0 15 0 0 25 0 25 -15 0 -15 0 0 26 0 25 -14 15 -15 14 -10 0
-11 0 0 15 0 15 -40 0 -40 0 0 -15z"/>
<path d="M0 65 l0 -15 15 0 15 0 0 15 0 15 -15 0 -15 0 0 -15z"/>
<path d="M50 15 l0 -15 15 0 15 0 0 15 0 15 -15 0 -15 0 0 -15z"/>
<path d="M290 15 l0 -15 15 0 15 0 0 15 0 15 -15 0 -15 0 0 -15z"/>
<path d="M400 15 l0 -15 40 0 40 0 0 15 0 15 -40 0 -40 0 0 -15z"/>
</g>
</svg>
