<?xml version="1.0" standalone="no"?>
<!DOCTYPE svg PUBLIC "-//W3C//DTD SVG 20010904//EN"
 "http://www.w3.org/TR/2001/REC-SVG-20010904/DTD/svg10.dtd">
<svg version="1.0" xmlns="http://www.w3.org/2000/svg"
 width="468pt" height="468pt" viewBox="0 0 468 468"
 preserveAspectRatio="xMidYMid meet">
<metadata>
Created by potrace 1.8, written by Peter Selinger 2001-2007
</metadata>
<g transform="translate(0,468) scale(0.365625,-0.365625)"
fill="#000000" stroke="none">
<path d="M580 1250 l0 -10 -30 0 -30 0 0 -10 0 -10 -40 0 -40 0 0 -10 0 -10
-30 0 -30 0 0 -10 0 -10 -30 0 -30 0 0 -10 0 -10 -40 0 -40 0 0 -10 0 -10 -20
0 -20 0 0 -130 0 -130 -20 0 -20 0 0 -130 0 -130 20 0 20 0 0 -120 0 -120 20
0 20 0 0 -10 0 -10 20 0 20 0 0 -10 0 -10 20 0 20 0 0 -10 0 -10 20 0 20 0 0
-10 0 -10 20 0 20 0 0 -10 0 -10 20 0 20 0 0 -10 0 -10 20 0 20 0 0 -10 0 -10
59 0 59 0 6 13 6 12 6 -12 6 -13 28 0 28 0 6 13 6 12 6 -12 6 -13 28 0 28 0 6
13 6 12 6 -12 6 -13 28 0 28 0 6 13 6 12 6 -12 6 -13 28 0 28 0 6 13 6 12 6
-12 6 -13 28 0 28 0 6 13 6 12 6 -12 6 -13 25 0 24 0 16 16 16 16 -14 10 -14
10 13 5 12 5 0 9 0 9 -19 0 -19 0 -5 -12 -4 -13 -9 9 -9 9 13 4 12 5 0 9 0 9
-19 0 -19 0 -5 -12 -4 -13 -9 9 -9 9 13 4 12 5 0 9 0 9 -19 0 -19 0 -5 -12 -4
-13 -9 9 -9 9 13 4 12 5 0 9 0 9 -19 0 -19 0 -5 -12 -4 -13 -9 9 -9 9 13 4 12
5 0 369 0 369 -20 0 -20 0 0 10 0 10 -20 0 -20 0 0 10 0 10 -20 0 -20 0 0 10
0 10 -20 0 -20 0 0 10 0 10 -20 0 -20 0 0 10 0 10 -20 0 -20 0 0 10 0 10 -20
0 -20 0 0 10 0 10 -40 0 -40 0 0 -10z m24 -22 l6 -13 6 13 6 12 19 0 19 0 0
-9 0 -9 -12 -5 -13 -4 9 -9 9 -9 4 13 5 12 19 0 19 0 0 -9 0 -9 -12 -5 -13 -4
9 -9 9 -9 4 13 5 12 19 0 19 0 0 -9 0 -9 -12 -5 -13 -4 9 -9 9 -9 4 13 5 12
19 0 19 0 0 -9 0 -9 -12 -5 -13 -4 9 -9 9 -9 4 13 5 12 19 0 19 0 0 -9 0 -9
-12 -5 -13 -4 9 -9 9 -9 4 13 5 12 14 0 15 0 36 -36 36 -36 -14 -9 -14 -9 15
-10 15 -10 -15 -10 -15 -10 15 -10 15 -10 -15 -10 -15 -10 15 -10 15 -10 -15
-10 -15 -10 15 -10 15 -10 -15 -10 -15 -10 15 -10 15 -10 -15 -10 -15 -10 15
-10 15 -10 -15 -10 -15 -10 15 -10 15 -10 -15 -10 -15 -10 15 -10 15 -10 -15
-10 -15 -10 15 -10 15 -10 -15 -10 -15 -10 15 -10 15 -10 -15 -10 -15 -10 15
-10 15 -10 -15 -10 -15 -10 15 -10 15 -10 -15 -10 -15 -10 15 -10 15 -10 -15
-10 -15 -10 15 -10 15 -10 -15 -10 -15 -10 15 -10 15 -10 -15 -10 -15 -10 14
-9 14 -9 -28 -27 -27 -28 -8 14 -9 13 -21 -24 -21 -24 -9 14 -9 14 -21 -24
-21 -24 -9 14 -9 14 -21 -24 -21 -24 -9 14 -9 14 -21 -24 -21 -24 -9 14 -9 14
-21 -24 -21 -24 -10 14 -9 15 -9 -15 -10 -14 -8 7 -7 8 14 10 15 9 -15 10 -15
10 15 10 15 10 -15 10 -15 10 15 10 15 10 -15 10 -15 10 15 10 15 10 -15 10
-15 10 15 10 15 10 -15 10 -15 10 15 10 15 10 -15 10 -15 10 15 10 15 10 -15
10 -15 10 15 10 15 10 -15 10 -15 10 15 10 15 10 -15 10 -15 10 15 10 15 10
-15 10 -15 10 15 10 15 10 -15 10 -15 10 15 10 15 10 -15 10 -15 10 15 10 15
10 -15 10 -15 10 15 10 15 10 -15 10 -15 10 15 10 15 10 -15 10 -15 10 15 10
15 10 -15 10 -15 10 14 9 14 9 -16 16 -16 16 -15 0 -16 0 0 9 0 9 13 5 12 4
-9 9 -9 9 -4 -12 -5 -13 -19 0 -19 0 0 9 0 9 13 5 12 4 -9 9 -9 9 -4 -12 -5
-13 -19 0 -19 0 0 9 0 9 13 5 12 4 -9 9 -9 9 -4 -12 -5 -13 -19 0 -19 0 0 9 0
9 13 5 12 4 -9 9 -9 9 -4 -12 -5 -13 -19 0 -19 0 0 9 0 9 13 5 12 4 -9 9 -9 9
-4 -12 -5 -13 -19 0 -19 0 0 9 0 9 13 5 12 4 -9 9 -9 9 -4 -12 -5 -13 -19 0
-19 0 0 -10 0 -10 20 0 20 0 0 -10 0 -10 20 0 20 0 0 -10 0 -10 20 0 20 0 0
-10 0 -10 20 0 20 0 0 -10 0 -10 20 0 20 0 0 -10 0 -10 16 0 15 0 15 -14 14
-15 0 -105 0 -106 -20 0 -20 0 0 10 0 10 -20 0 -20 0 0 10 0 10 -20 0 -20 0 0
10 0 10 -20 0 -20 0 0 10 0 10 -20 0 -20 0 0 10 0 10 -15 0 -16 0 -24 25 -25
24 0 101 0 101 25 24 24 25 25 0 24 0 5 -12 4 -13 9 9 9 9 -12 4 -13 5 0 9 0
9 20 0 20 0 0 -10 0 -10 10 0 10 0 0 20 0 20 9 0 9 0 6 -12 6 -13 6 13 6 12
19 0 19 0 0 10 0 10 29 0 29 0 5 -12 4 -13 9 9 9 9 -12 4 -13 5 0 9 0 9 20 0
20 0 0 -10 0 -10 10 0 10 0 0 20 0 20 9 0 9 0 6 -12z m-404 -378 l0 -10 20 0
20 0 0 -10 0 -10 20 0 20 0 0 -10 0 -10 20 0 20 0 0 -10 0 -10 20 0 20 0 0
-10 0 -10 20 0 20 0 0 -10 0 -10 20 0 20 0 0 -10 0 -10 20 0 20 0 0 -110 0
-110 -20 0 -20 0 0 10 0 10 -20 0 -20 0 0 10 0 10 -20 0 -20 0 0 10 0 10 -20
0 -20 0 0 10 0 10 -20 0 -20 0 0 10 0 10 -20 0 -20 0 0 10 0 10 -16 0 -15 0
-15 14 -14 15 0 105 0 106 10 0 10 0 0 -10z m40 -260 l0 -10 20 0 20 0 0 -10
0 -10 20 0 20 0 0 -10 0 -10 20 0 20 0 0 -10 0 -10 20 0 20 0 0 -10 0 -10 20
0 20 0 0 -10 0 -10 30 0 30 0 0 -110 0 -110 -10 0 -10 0 0 10 0 10 -20 0 -20
0 0 10 0 10 -20 0 -20 0 0 10 0 10 -20 0 -20 0 0 10 0 10 -20 0 -20 0 0 10 0
10 -20 0 -20 0 0 10 0 10 -16 0 -15 0 -15 14 -14 15 0 95 0 96 10 0 10 0 0
-10z m660 -240 l0 -10 -10 0 -10 0 0 10 0 10 10 0 10 0 0 -10z m-40 -20 l0
-10 -10 0 -10 0 0 10 0 10 10 0 10 0 0 -10z m80 0 l0 -10 -10 0 -10 0 0 10 0
10 10 0 10 0 0 -10z m-200 -20 l0 -10 -10 0 -10 0 0 10 0 10 10 0 10 0 0 -10z
m80 0 l0 -10 -10 0 -10 0 0 10 0 10 10 0 10 0 0 -10z m80 0 l0 -10 -10 0 -10
0 0 10 0 10 10 0 10 0 0 -10z m80 0 l0 -10 -10 0 -10 0 0 10 0 10 10 0 10 0 0
-10z m-280 -20 l0 -10 -10 0 -10 0 0 10 0 10 10 0 10 0 0 -10z m80 0 l0 -10
-10 0 -10 0 0 10 0 10 10 0 10 0 0 -10z m80 0 l0 -10 -10 0 -10 0 0 10 0 10
10 0 10 0 0 -10z m80 0 l0 -10 -10 0 -10 0 0 10 0 10 10 0 10 0 0 -10z m80 0
l0 -10 -10 0 -10 0 0 10 0 10 10 0 10 0 0 -10z m-360 -20 l0 -10 -10 0 -10 0
0 10 0 10 10 0 10 0 0 -10z m80 0 l0 -10 -10 0 -10 0 0 10 0 10 10 0 10 0 0
-10z m80 0 l0 -10 -10 0 -10 0 0 10 0 10 10 0 10 0 0 -10z m80 0 l0 -10 -10 0
-10 0 0 10 0 10 10 0 10 0 0 -10z m80 0 l0 -10 -10 0 -10 0 0 10 0 10 10 0 10
0 0 -10z m80 0 l0 -10 -10 0 -10 0 0 10 0 10 10 0 10 0 0 -10z"/>
<path d="M600 1190 l0 -10 10 0 10 0 0 10 0 10 -10 0 -10 0 0 -10z"/>
<path d="M480 1170 l0 -10 10 0 10 0 0 10 0 10 -10 0 -10 0 0 -10z"/>
<path d="M560 1170 l0 -10 10 0 10 0 0 10 0 10 -10 0 -10 0 0 -10z"/>
<path d="M640 1170 l0 -10 10 0 10 0 0 10 0 10 -10 0 -10 0 0 -10z"/>
<path d="M440 1150 l0 -10 10 0 10 0 0 10 0 10 -10 0 -10 0 0 -10z"/>
<path d="M520 1150 l0 -10 10 0 10 0 0 10 0 10 -10 0 -10 0 0 -10z"/>
<path d="M600 1150 l0 -10 10 0 10 0 0 10 0 10 -10 0 -10 0 0 -10z"/>
<path d="M680 1150 l0 -10 10 0 10 0 0 10 0 10 -10 0 -10 0 0 -10z"/>
<path d="M400 1130 l0 -10 10 0 10 0 0 10 0 10 -10 0 -10 0 0 -10z"/>
<path d="M480 1130 l0 -10 10 0 10 0 0 10 0 10 -10 0 -10 0 0 -10z"/>
<path d="M560 1130 l0 -10 10 0 10 0 0 10 0 10 -10 0 -10 0 0 -10z"/>
<path d="M640 1130 l0 -10 10 0 10 0 0 10 0 10 -10 0 -10 0 0 -10z"/>
<path d="M720 1130 l0 -10 10 0 10 0 0 10 0 10 -10 0 -10 0 0 -10z"/>
<path d="M360 1110 l0 -10 10 0 10 0 0 10 0 10 -10 0 -10 0 0 -10z"/>
<path d="M440 1110 l0 -10 10 0 10 0 0 10 0 10 -10 0 -10 0 0 -10z"/>
<path d="M520 1110 l0 -10 10 0 10 0 0 10 0 10 -10 0 -10 0 0 -10z"/>
<path d="M600 1110 l0 -10 10 0 10 0 0 10 0 10 -10 0 -10 0 0 -10z"/>
<path d="M680 1110 l0 -10 10 0 10 0 0 10 0 10 -10 0 -10 0 0 -10z"/>
<path d="M760 1110 l0 -10 10 0 10 0 0 10 0 10 -10 0 -10 0 0 -10z"/>
<path d="M830 1100 l-14 -20 -28 0 -28 0 0 -10 0 -10 -29 0 -29 0 -5 13 -4 12
-8 -7 -7 -7 26 -26 27 -27 20 23 20 23 9 -14 9 -14 21 24 21 24 10 -14 9 -15
9 15 10 14 7 -6 6 -7 -17 -17 -17 -17 -8 14 -9 13 -8 -7 -7 -8 14 -9 14 -9 -7
-8 -8 -7 -10 14 -9 15 -10 -15 -10 -15 -9 15 -10 14 -8 -7 -7 -8 14 -9 14 -9
-7 -8 -8 -7 -10 14 -9 15 -10 -15 -10 -15 -9 15 -10 14 -8 -7 -7 -8 14 -9 14
-9 -7 -8 -8 -7 -10 14 -9 15 -10 -15 -10 -15 -9 15 -10 14 -8 -7 -7 -8 14 -9
14 -9 -7 -8 -8 -7 -10 14 -9 15 -10 -15 -10 -15 -9 15 -10 14 -8 -7 -7 -8 14
-9 14 -9 -6 -7 -7 -6 -16 16 -16 16 16 17 17 16 8 -13 8 -13 17 16 16 17 -17
17 -17 18 -5 -13 -4 -12 -19 0 -19 0 0 -10 0 -10 -20 0 -20 0 0 -6 0 -7 22
-19 22 -19 -14 -10 -15 -9 15 -10 15 -10 -15 -10 -15 -10 15 -10 15 -10 -15
-10 -15 -10 15 -10 15 -10 -15 -10 -15 -10 15 -10 15 -10 -15 -10 -15 -10 15
-10 15 -10 -15 -10 -15 -10 15 -10 15 -10 -15 -10 -15 -10 15 -10 15 -10 -15
-10 -15 -10 15 -10 15 -10 -15 -10 -15 -10 15 -10 15 -10 -15 -10 -15 -10 15
-10 15 -10 -15 -10 -15 -10 15 -10 15 -10 -15 -10 -15 -10 15 -10 15 -10 -15
-10 -15 -10 15 -10 15 -10 -15 -10 -15 -10 15 -10 15 -10 -15 -10 -15 -10 15
-10 15 -10 -14 -9 -14 -9 17 -17 17 -17 20 23 20 23 9 -14 9 -14 21 24 21 24
9 -14 9 -14 21 24 21 24 9 -14 9 -14 21 24 21 24 9 -14 9 -14 21 24 21 24 9
-13 8 -14 18 17 17 18 -14 9 -14 9 15 10 15 10 -15 10 -15 10 15 10 15 10 -15
10 -15 10 15 10 15 10 -15 10 -15 10 15 10 15 10 -15 10 -15 10 15 10 15 10
-15 10 -15 10 15 10 15 10 -15 10 -15 10 15 10 15 10 -15 10 -15 10 15 10 15
10 -15 10 -15 10 15 10 15 10 -15 10 -15 10 15 10 15 10 -15 10 -15 10 15 10
15 10 -15 10 -15 10 15 10 15 10 -15 10 -15 10 15 10 15 10 -15 10 -15 10 15
10 15 10 -15 10 -15 10 15 10 15 10 -15 10 -15 10 14 9 14 9 -26 26 -26 26 -3
0 -4 0 -14 -20z m50 -69 l0 -9 -12 -5 -13 -5 15 -11 15 -11 -15 -10 -15 -10
15 -10 15 -10 -15 -10 -15 -10 15 -10 15 -10 -15 -10 -15 -10 15 -10 15 -10
-15 -10 -15 -10 15 -10 15 -10 -15 -10 -15 -10 15 -10 15 -10 -15 -10 -15 -10
15 -10 15 -10 -15 -10 -15 -10 15 -10 15 -10 -15 -10 -15 -10 15 -10 15 -10
-15 -10 -15 -10 15 -10 15 -10 -15 -10 -15 -10 15 -10 15 -10 -15 -10 -15 -10
15 -10 15 -10 -15 -10 -15 -10 15 -10 15 -10 -15 -10 -15 -10 15 -10 15 -10
-15 -10 -15 -10 15 -9 14 -10 -7 -8 -8 -7 -9 14 -9 14 -21 -24 -21 -24 -9 14
-9 14 -21 -24 -21 -24 -9 14 -9 14 -21 -24 -21 -24 -9 14 -9 14 -21 -24 -21
-24 -9 14 -9 14 -21 -23 -20 -24 -7 7 -7 7 14 10 15 9 -15 10 -15 10 15 10 15
10 -15 10 -15 10 15 10 15 10 -15 10 -15 10 15 10 15 10 -15 10 -15 10 15 10
15 10 -15 10 -15 10 15 10 15 10 -15 10 -15 10 15 10 15 10 -15 10 -15 10 15
10 15 10 -15 10 -15 10 15 10 15 10 -15 10 -15 10 15 10 15 10 -15 10 -15 10
15 10 15 10 -15 10 -15 10 15 10 15 10 -15 10 -15 10 15 10 15 10 -15 10 -15
10 15 10 15 10 -15 10 -15 10 15 10 15 10 -15 9 -14 10 7 8 8 7 9 -14 9 -14
21 24 21 24 9 -14 9 -14 21 24 21 24 9 -14 9 -14 21 24 21 24 9 -14 9 -14 21
24 21 24 9 -14 9 -15 18 22 18 23 8 0 7 0 0 -9z"/>
<path d="M787 977 l-18 -22 -9 15 -9 14 -21 -24 -21 -24 -9 14 -9 14 -21 -24
-21 -24 -9 13 -8 14 -27 -28 -28 -27 14 -9 14 -9 -15 -10 -15 -10 15 -10 15
-10 -15 -10 -15 -10 15 -10 15 -10 -15 -10 -15 -10 15 -10 15 -10 -15 -10 -15
-10 15 -10 15 -10 -15 -10 -15 -10 15 -10 15 -10 -15 -10 -15 -10 15 -10 15
-10 -15 -10 -15 -10 15 -10 15 -10 -15 -10 -15 -10 15 -10 15 -10 -15 -10 -15
-10 15 -10 15 -10 -15 -10 -15 -10 15 -10 15 -10 -15 -10 -15 -10 15 -10 15
-10 -15 -10 -15 -10 15 -10 15 -10 -15 -9 -14 -10 7 -8 8 -7 10 14 9 15 9 -15
10 -14 21 24 21 24 9 -14 9 -14 21 24 21 24 9 -14 9 -14 21 24 21 24 9 -13 8
-14 27 28 28 27 -14 9 -14 9 15 10 15 10 -15 10 -15 10 15 10 15 10 -15 10
-15 10 15 10 15 10 -15 10 -15 10 15 10 15 10 -15 10 -15 10 15 10 15 10 -15
10 -15 10 15 10 15 10 -15 10 -15 10 15 10 15 10 -15 10 -15 10 15 10 15 10
-15 10 -15 10 15 10 15 10 -15 10 -15 10 15 10 15 10 -15 10 -15 10 15 10 15
10 -15 10 -15 10 15 10 15 10 -15 10 -15 10 15 9 14 10 -7 8 -8 7 -10 -14 -11
-15 -5 13 -5 12 -6 0 -7 0 -18 -23z m40 -13 l16 -16 -14 -9 -14 -9 15 -10 15
-10 -15 -10 -15 -10 15 -10 15 -10 -15 -10 -15 -10 15 -10 15 -10 -15 -10 -15
-10 15 -10 15 -10 -15 -10 -15 -10 15 -10 15 -10 -15 -10 -15 -10 15 -10 15
-10 -15 -10 -15 -10 15 -10 15 -10 -15 -10 -15 -10 15 -10 15 -10 -15 -10 -15
-10 15 -10 15 -10 -15 -10 -15 -10 15 -10 15 -10 -15 -10 -15 -10 15 -10 15
-10 -15 -10 -15 -10 14 -9 14 -9 -17 -18 -18 -17 -8 14 -9 13 -21 -24 -21 -24
-9 14 -9 14 -21 -24 -21 -24 -9 14 -9 14 -20 -23 -20 -23 -17 17 -17 17 14 9
14 9 -15 10 -15 10 15 10 15 10 -15 10 -15 10 15 10 15 10 -15 10 -15 10 15
10 15 10 -15 10 -15 10 15 10 15 10 -15 10 -15 10 15 10 15 10 -15 10 -15 10
15 10 15 10 -15 10 -15 10 15 10 15 10 -15 10 -15 10 15 10 15 10 -15 10 -15
10 15 10 15 10 -15 10 -15 10 15 10 15 10 -15 10 -15 10 15 10 15 10 -14 9
-14 9 17 18 18 17 8 -14 9 -13 21 24 21 24 9 -14 9 -14 21 24 21 24 9 -14 9
-15 18 22 18 23 3 0 3 0 16 -16z"/>
<path d="M787 937 l-18 -22 -9 15 -9 14 -21 -24 -21 -24 -9 14 -9 14 -21 -24
-21 -24 -9 14 -9 14 -8 -7 -7 -8 14 -10 15 -9 -15 -10 -15 -10 15 -10 15 -10
-15 -10 -15 -10 15 -10 15 -10 -15 -10 -15 -10 15 -10 15 -10 -15 -10 -15 -10
15 -10 15 -10 -15 -10 -15 -10 15 -10 15 -10 -15 -10 -15 -10 15 -10 15 -10
-15 -10 -15 -10 15 -10 15 -10 -15 -10 -15 -10 15 -10 15 -10 -15 -10 -15 -10
15 -10 15 -10 -15 -10 -15 -10 15 -10 15 -10 -15 -10 -15 -10 15 -10 15 -10
-15 -9 -14 -10 7 -7 7 -7 20 24 21 23 9 -14 9 -14 21 24 21 24 9 -14 9 -14 21
24 21 24 9 -14 9 -14 8 7 7 8 -14 10 -15 9 15 10 15 10 -15 10 -15 10 15 10
15 10 -15 10 -15 10 15 10 15 10 -15 10 -15 10 15 10 15 10 -15 10 -15 10 15
10 15 10 -15 10 -15 10 15 10 15 10 -15 10 -15 10 15 10 15 10 -15 10 -15 10
15 10 15 10 -15 10 -15 10 15 10 15 10 -15 10 -15 10 15 10 15 10 -15 10 -15
10 15 10 15 10 -15 11 -15 11 13 5 12 5 0 9 0 9 -7 0 -8 0 -18 -23z m-24 -29
l5 -13 11 15 10 14 8 -7 7 -8 -14 -10 -15 -9 15 -10 15 -10 -15 -10 -15 -10
15 -10 15 -10 -15 -10 -15 -10 15 -10 15 -10 -15 -10 -15 -10 15 -10 15 -10
-15 -10 -15 -10 15 -10 15 -10 -15 -10 -15 -10 15 -10 15 -10 -15 -10 -15 -10
15 -10 15 -10 -15 -10 -15 -10 15 -10 15 -10 -15 -10 -15 -10 15 -10 15 -10
-15 -10 -15 -10 14 -9 14 -9 -28 -27 -27 -28 -8 14 -9 13 -21 -24 -21 -24 -10
14 -9 15 -9 -15 -10 -14 -8 7 -7 8 14 10 15 9 -15 10 -15 10 15 10 15 10 -15
10 -15 10 15 10 15 10 -15 10 -15 10 15 10 15 10 -15 10 -15 10 15 10 15 10
-15 10 -15 10 15 10 15 10 -15 10 -15 10 15 10 15 10 -15 10 -15 10 15 10 15
10 -15 10 -15 10 15 10 15 10 -15 10 -15 10 15 10 15 10 -14 9 -14 9 28 27 27
28 9 -14 8 -14 18 22 18 23 7 0 6 0 5 -12z"/>
<path d="M727 877 l-18 -22 -8 14 -9 14 -18 -17 -17 -18 14 -9 14 -9 -15 -10
-15 -10 15 -10 15 -10 -15 -10 -15 -10 15 -10 15 -10 -15 -10 -15 -10 15 -10
15 -10 -15 -10 -15 -10 15 -10 15 -10 -15 -10 -15 -10 15 -10 15 -10 -15 -10
-15 -10 15 -10 15 -10 -15 -10 -15 -10 15 -10 15 -10 -15 -10 -15 -10 15 -10
15 -10 -14 -9 -14 -9 17 -17 17 -17 20 23 20 23 9 -13 8 -14 18 17 17 18 -14
9 -14 9 15 10 15 10 -15 10 -15 10 15 10 15 10 -15 10 -15 10 15 10 15 10 -15
10 -15 10 15 10 15 10 -15 10 -15 10 15 10 15 10 -15 10 -15 10 15 10 15 10
-15 10 -15 10 15 10 15 10 -15 10 -15 10 15 10 15 10 -15 10 -15 10 14 9 14 9
-16 16 -16 16 -3 0 -3 0 -18 -23z m33 -6 l0 -9 -12 -5 -13 -5 15 -11 15 -11
-15 -10 -15 -10 15 -10 15 -10 -15 -10 -15 -10 15 -10 15 -10 -15 -10 -15 -10
15 -10 15 -10 -15 -10 -15 -10 15 -10 15 -10 -15 -10 -15 -10 15 -10 15 -10
-15 -10 -15 -10 15 -10 15 -10 -15 -10 -15 -10 15 -10 15 -10 -15 -10 -15 -10
15 -9 14 -10 -7 -8 -8 -7 -9 14 -9 14 -21 -23 -20 -24 -7 7 -7 7 14 10 15 9
-15 10 -15 10 15 10 15 10 -15 10 -15 10 15 10 15 10 -15 10 -15 10 15 10 15
10 -15 10 -15 10 15 10 15 10 -15 10 -15 10 15 10 15 10 -15 10 -15 10 15 10
15 10 -15 10 -15 10 15 10 15 10 -15 10 -15 10 15 10 15 10 -15 9 -14 10 7 8
8 7 9 -14 9 -15 18 22 18 23 8 0 7 0 0 -9z"/>
<path d="M711 824 l-14 -16 14 -9 14 -9 -15 -10 -15 -10 15 -10 15 -10 -15
-10 -15 -10 15 -10 15 -10 -15 -10 -15 -10 15 -10 15 -10 -15 -10 -15 -10 15
-10 15 -10 -15 -10 -15 -10 15 -10 15 -10 -15 -10 -15 -10 15 -10 15 -10 -15
-9 -14 -10 6 -7 7 -6 17 17 17 17 -14 9 -14 9 15 10 15 10 -15 10 -15 10 15
10 15 10 -15 10 -15 10 15 10 15 10 -15 10 -15 10 15 10 15 10 -15 10 -15 10
15 10 15 10 -15 10 -15 10 15 10 15 10 -15 11 -15 11 13 5 12 5 0 9 0 9 -7 0
-8 -1 -14 -15z"/>
<path d="M400 1090 l0 -10 10 0 10 0 0 10 0 10 -10 0 -10 0 0 -10z"/>
<path d="M480 1090 l0 -10 10 0 10 0 0 10 0 10 -10 0 -10 0 0 -10z"/>
<path d="M560 1090 l0 -10 10 0 10 0 0 10 0 10 -10 0 -10 0 0 -10z"/>
<path d="M640 1090 l0 -10 10 0 10 0 0 10 0 10 -10 0 -10 0 0 -10z"/>
<path d="M720 1090 l0 -10 10 0 10 0 0 10 0 10 -10 0 -10 0 0 -10z"/>
<path d="M440 1070 l0 -10 10 0 10 0 0 10 0 10 -10 0 -10 0 0 -10z"/>
<path d="M520 1070 l0 -10 10 0 10 0 0 10 0 10 -10 0 -10 0 0 -10z"/>
<path d="M600 1070 l0 -10 10 0 10 0 0 10 0 10 -10 0 -10 0 0 -10z"/>
<path d="M480 1050 l0 -10 10 0 10 0 0 10 0 10 -10 0 -10 0 0 -10z"/>
<path d="M560 1050 l0 -10 10 0 10 0 0 10 0 10 -10 0 -10 0 0 -10z"/>
<path d="M640 1044 l0 -15 15 -15 15 -15 15 15 15 15 0 5 0 6 -20 0 -20 0 0
10 0 10 -10 0 -10 0 0 -16z"/>
<path d="M520 1030 l0 -10 10 0 10 0 0 10 0 10 -10 0 -10 0 0 -10z"/>
<path d="M300 940 l0 -20 20 0 20 0 0 -10 0 -10 20 0 20 0 0 -10 0 -10 20 0
20 0 0 20 0 20 -9 0 -9 0 -6 -12 -6 -13 -6 13 -6 12 -17 0 -17 0 -14 20 -14
20 -8 0 -8 0 0 -20z"/>
<path d="M260 700 l0 -20 20 0 20 0 0 -10 0 -10 20 0 20 0 0 -10 0 -10 20 0
20 0 0 20 0 20 -9 0 -9 0 -6 -12 -6 -13 -6 13 -6 12 -17 0 -17 0 -14 20 -14
20 -8 0 -8 0 0 -20z"/>
<path d="M300 460 l0 -20 20 0 20 0 0 -10 0 -10 20 0 20 0 0 -10 0 -10 20 0
20 0 0 20 0 20 -9 0 -9 0 -6 -12 -6 -13 -6 13 -6 12 -17 0 -17 0 -14 20 -14
20 -8 0 -8 0 0 -20z"/>
<path d="M0 100 l0 -100 640 0 640 0 0 100 0 100 -640 0 -640 0 0 -100z"/>
</g>
</svg>
