<?xml version="1.0" standalone="no"?>
<!DOCTYPE svg PUBLIC "-//W3C//DTD SVG 20010904//EN"
 "http://www.w3.org/TR/2001/REC-SVG-20010904/DTD/svg10.dtd">
<svg version="1.0" xmlns="http://www.w3.org/2000/svg"
 width="468pt" height="468pt" viewBox="0 0 468 468"
 preserveAspectRatio="xMidYMid meet">
<metadata>
Created by potrace 1.8, written by Peter Selinger 2001-2007
</metadata>
<g transform="translate(0,468) scale(0.365625,-0.365625)"
fill="#000000" stroke="none">
<path d="M0 640 l0 -640 640 0 640 0 0 640 0 640 -640 0 -640 -1 0 -639z m119
611 l10 -18 -6 -7 -6 -6 -28 0 -28 0 -6 10 -6 10 -8 0 -9 0 -4 -18 -5 -19 18
-11 18 -12 11 18 12 17 -5 -15 -4 -15 11 -11 11 -11 13 5 12 4 0 -12 0 -12 16
6 17 6 -11 -13 -12 -14 7 -6 6 -7 -12 0 -12 0 -5 15 -6 16 -15 -13 -15 -12 24
-9 23 -10 -17 -4 -18 -4 0 -7 0 -7 -32 -14 -32 -15 11 -3 12 -4 20 10 20 11
15 0 16 0 0 -11 0 -10 -12 7 -13 8 11 -15 11 -14 6 -17 6 -18 -8 0 -9 0 -12
30 -12 30 -10 -6 -10 -6 10 -10 10 -10 -5 -14 -5 -14 -10 0 -10 0 11 14 12 14
-17 6 -16 6 -19 0 -19 0 0 7 0 6 17 19 16 18 14 0 13 0 0 9 0 10 -10 6 -10 6
0 10 0 9 16 0 15 0 -6 10 -6 10 -9 -5 -8 -5 -12 15 -12 15 8 0 8 0 -18 13 -17
13 12 27 12 27 8 0 7 0 4 -12 5 -13 25 0 26 -1 -5 13 -5 13 -11 -7 -10 -6 7
11 7 12 9 0 9 0 10 -19z m138 -7 l-7 -7 -22 12 -23 12 18 -5 17 -5 0 11 0 12
12 -12 12 -12 -7 -6z m146 -5 l5 -19 -9 6 -9 5 -16 -15 -15 -16 -9 0 -9 0 2
19 1 18 17 -4 17 -5 7 11 6 11 -8 -1 -8 -1 -13 1 -13 1 5 9 6 9 19 -5 19 -5 5
-19z m117 21 l0 -10 -4 0 -5 0 -6 10 -6 10 10 0 11 0 0 -10z m120 2 l0 -9 -15
0 -15 0 0 9 0 8 15 0 15 0 0 -8z m148 -4 l10 -13 0 -26 0 -25 -21 1 -21 2 -9
21 -10 22 13 15 12 15 8 0 8 0 10 -12z m158 -33 l3 -19 -9 -15 -9 -16 -1 21 0
22 -14 5 -15 6 2 20 1 21 20 -13 19 -13 3 -19z m112 29 l22 -15 0 -22 0 -22
-10 15 -10 15 -10 -15 -10 -15 0 18 0 18 -10 -6 -10 -6 0 11 0 10 28 -5 27 -6
-27 16 -28 16 0 4 0 5 8 0 8 0 22 -16z m132 6 l14 -9 -4 -4 -5 -4 -20 -12 -20
-13 20 7 20 7 15 2 15 1 11 14 11 14 11 -7 12 -7 0 -25 0 -24 -20 -12 -20 -13
0 -28 0 -28 -10 6 -10 6 0 -10 0 -11 20 -20 20 -20 10 0 10 0 0 -14 0 -14 -40
-7 -40 -7 7 -10 6 -11 -11 7 -12 7 0 -9 0 -9 -15 0 -15 0 15 17 15 17 0 11 0
11 40 -3 40 -3 -6 9 -6 9 -19 -6 -20 -7 2 9 1 8 -1 18 -1 18 -10 -6 -10 -6 4
-8 5 -8 -17 0 -17 0 -12 10 -13 9 0 -10 0 -10 15 -6 15 -5 -1 -18 -1 -18 -5
16 -4 15 -31 19 -31 18 17 12 17 13 -6 28 -6 29 11 -18 12 -18 19 17 19 17 0
12 0 13 -15 6 -16 6 10 19 10 18 -6 7 -6 6 9 0 9 0 15 -10z m-1006 -16 l6 -17
-5 -5 -5 -5 0 11 0 12 -10 0 -10 0 0 -19 0 -19 15 -12 15 -12 0 8 0 8 12 -12
12 -12 8 0 8 0 0 18 0 17 -9 -13 -8 -14 -6 29 -5 28 4 5 5 4 20 -12 20 -13 9
6 10 6 0 -12 0 -11 -20 5 -20 5 10 -18 9 -17 -5 -5 -4 -5 16 -13 16 -14 9 15
9 14 0 -12 0 -11 -6 -17 -7 -16 -21 20 -22 20 -2 -25 -2 -25 9 6 10 5 5 -8 6
-9 24 4 24 5 6 -11 7 -11 7 0 8 0 -1 26 0 27 -27 28 -26 29 7 27 7 27 12 4 12
4 -15 -29 -14 -28 21 -11 21 -11 28 2 29 3 0 -8 0 -8 7 -19 6 -18 -19 20 -19
20 8 -9 7 -10 0 -9 0 -9 -16 6 -15 6 6 -9 5 -9 -7 -5 -8 -4 11 3 12 2 10 -10
10 -10 16 23 16 23 0 -11 0 -11 -15 -12 -15 -12 0 -17 -1 -16 -14 19 -15 20 0
-11 0 -11 15 -12 15 -12 -7 -11 -6 -10 11 7 11 6 -1 -30 -1 -30 -7 0 -8 0 -5
23 -6 22 -15 20 -15 20 -18 -17 -17 -18 15 0 15 0 18 -13 18 -13 -16 -13 -16
-14 6 17 6 16 -16 0 -17 0 -5 -15 -6 -15 -11 0 -10 0 18 20 18 20 -16 0 -17 0
0 9 0 9 15 12 16 13 -13 8 -13 9 -15 0 -15 0 15 -10 15 -10 -7 0 -6 0 -16 -6
-16 -6 6 16 6 16 -11 0 -11 0 0 -12 -1 -13 -14 19 -15 20 -5 -6 -6 -6 -2 -20
-1 -20 -12 5 -12 4 -8 -13 -7 -13 8 7 8 7 28 -15 29 -15 0 -9 0 -9 -12 -7 -11
-7 6 16 6 17 -15 0 -15 0 -5 -15 -6 -15 -9 0 -10 0 11 20 11 20 -16 0 -15 0 0
6 0 6 25 30 26 30 -10 12 -9 11 -1 8 -1 7 0 10 0 10 -16 0 -15 0 6 9 5 10 -9
6 -10 6 4 14 5 15 5 15 4 15 10 0 9 0 6 -16z m276 1 l12 -15 -10 0 -10 0 -5
13 -5 12 -1 -26 -1 -26 19 -17 19 -18 22 12 21 11 6 -20 5 -21 14 0 13 0 -5
-15 -6 -16 -13 11 -12 10 -17 -6 -16 -6 5 -9 6 -8 13 5 14 5 6 -9 6 -10 23 6
22 5 -19 -21 -19 -22 -11 0 -11 0 15 10 15 10 -18 0 -18 0 7 13 7 12 -12 -11
-13 -12 10 -18 9 -19 -4 -13 -5 -13 12 -14 12 -15 -10 0 -11 0 -6 10 -7 11
-16 -13 -17 -13 18 22 18 21 -10 7 -11 6 0 11 0 10 18 -13 17 -14 -14 18 -14
17 -13 -11 -13 -11 -13 7 -13 7 22 -20 22 -20 -24 -4 -25 -5 0 14 0 14 -10 -6
-10 -6 0 7 0 7 17 19 16 18 19 0 18 0 0 11 0 10 -12 -7 -11 -7 7 11 6 11 -10
6 -10 6 0 24 0 24 -19 6 -18 5 2 23 2 22 2 13 1 12 9 0 9 0 12 -15z m84 0 l5
-15 -9 0 -10 0 0 15 0 15 4 0 4 0 6 -15z m98 -5 l28 0 0 10 0 10 14 0 14 0 6
-16 6 -16 0 -9 0 -9 -29 -30 -29 -31 6 -21 5 -21 -11 7 -12 7 6 -15 6 -16 8 0
9 0 4 33 5 32 -2 -35 -1 -35 15 -11 14 -12 -11 -23 -12 -24 0 20 -1 19 -26 23
-27 23 -8 -6 -9 -5 0 12 0 12 17 19 17 19 -17 -7 -17 -6 -1 8 -2 9 -2 23 -2
23 16 10 16 10 -20 -6 -21 -5 -2 27 -2 27 12 -12 12 -12 28 0z m214 -28 l1
-42 -24 0 -24 0 7 -12 7 -11 -11 7 -12 7 0 -10 0 -11 10 0 10 0 0 -10 0 -11
-32 -13 -32 -14 -12 5 -12 4 -8 -12 -7 -12 13 8 13 8 -7 -11 -7 -12 -20 10
-19 11 0 9 0 10 24 0 25 0 28 11 27 10 -14 9 -14 8 13 16 13 16 8 -5 9 -5 6
10 6 10 9 -5 9 -6 7 25 6 25 -7 11 -6 10 -11 -6 -11 -7 7 12 8 12 11 -4 12 -4
1 -41z m144 37 l0 -8 -19 2 -20 1 4 6 4 7 16 0 15 0 0 -8z m131 -1 l1 -13 -2
-15 -2 -15 -7 -8 -8 -8 5 33 5 33 -17 -14 -16 -14 6 17 6 16 14 0 14 0 1 -12z
m-615 -34 l2 -16 -5 6 -6 6 -14 -18 -14 -17 3 25 3 25 10 7 9 7 5 -5 5 -5 2
-15z m478 -28 l-5 -14 21 -20 21 -19 -14 -6 -15 -5 -11 24 -11 25 0 14 0 15
10 0 9 0 -5 -14z m-35 -28 l-13 -23 1 -5 1 -5 -18 -18 -17 -17 -13 15 -13 15
15 -5 15 -6 6 13 5 14 -19 1 -19 2 -6 -11 -6 -10 -9 13 -9 14 0 9 0 8 15 -12
15 -12 0 16 0 16 29 0 30 0 6 11 7 10 5 -4 5 -5 -13 -24z m141 12 l0 -9 -10
-6 -10 -6 5 -10 6 -9 -16 0 -16 0 6 10 6 10 -14 -6 -14 -5 -6 15 -6 15 9 6 10
6 0 -13 1 -13 10 17 10 17 14 -5 15 -6 0 -8z m-536 2 l5 -9 -14 0 -14 0 5 9 5
8 4 0 4 0 5 -8z m191 -28 l-17 -27 -9 14 -9 14 0 15 0 15 11 -15 10 -15 12 17
11 17 5 -4 4 -4 -18 -27z m-145 -15 l0 -8 -9 -5 -9 -6 -11 14 -11 13 6 18 7
18 14 -19 13 -18 0 -7z m475 -11 l8 7 -7 -13 -8 -13 26 -20 26 -21 -5 -9 -6
-9 -21 20 -21 19 -10 -6 -10 -6 7 12 7 11 -15 6 -15 6 -10 -6 -10 -7 6 -15 6
-16 9 14 9 13 -3 -29 -3 -29 -14 -5 -14 -5 7 12 7 11 -6 20 -6 20 -9 -5 -8 -5
11 24 12 24 7 -4 7 -4 6 10 7 11 12 -10 13 -11 8 8z m-905 -17 l0 -9 -13 -5
-12 -4 -13 13 -13 14 26 0 25 0 0 -9z m270 0 l0 -10 -9 -5 -9 -6 -12 15 -12
15 21 0 21 0 0 -9z m450 -6 l12 -15 18 0 18 0 12 15 12 15 20 0 20 0 -12 -15
-12 -15 -12 7 -11 6 13 -14 12 -13 0 -9 0 -9 -12 9 -13 9 -30 2 -30 1 13 -5
13 -6 -12 -14 -11 -14 10 0 10 0 6 -16 6 -17 -14 12 -13 11 -19 -7 -19 -7 11
15 10 14 2 22 1 23 -11 6 -11 7 7 -11 7 -12 -5 0 -5 0 -26 12 -25 11 0 9 0 8
29 0 29 0 12 -15z m-89 -9 l10 6 19 -17 20 -18 -6 -8 -5 -9 -15 15 -15 15 -13
0 -13 0 -13 -25 -14 -25 -9 9 -10 10 7 25 6 26 11 0 10 0 -6 -12 -6 -13 13 18
13 17 3 -10 4 -10 9 6z m-563 -26 l7 0 1 -32 1 -32 -13 20 -13 19 -10 11 -10
12 6 6 6 6 -12 0 -12 0 6 10 6 10 15 -15 15 -15 7 0z m166 22 l5 -9 -14 0 -14
0 5 9 5 8 4 0 4 0 5 -8z m169 -7 l-5 -16 13 3 14 3 7 10 8 10 0 -23 0 -23 -10
-20 -11 -19 -11 0 -12 0 12 12 12 12 0 19 0 18 -9 -6 -10 -5 -6 10 -6 10 6 10
6 10 4 0 4 0 -6 -15z m72 -38 l-18 -14 8 -14 9 -14 -18 14 -18 15 18 13 18 13
10 0 10 0 -19 -13z m156 2 l-23 -9 12 -15 12 -15 -10 0 -11 0 -6 10 -7 11 12
14 12 15 17 -1 16 0 -24 -10z m159 7 l0 -4 -15 -6 -15 -5 0 9 0 10 15 0 15 0
0 -4z m115 -9 l-18 -14 8 -14 9 -14 -18 14 -18 15 18 13 18 13 10 0 10 0 -19
-13z m-628 -33 l-6 -6 -13 5 -13 5 19 1 19 1 -6 -6z"/>
<path d="M757 1246 l-6 -14 20 5 19 5 0 3 0 3 -14 5 -14 6 -5 -13z"/>
<path d="M1236 1234 l-6 -15 -10 6 -10 6 6 -15 6 -16 -11 0 -11 0 0 10 0 10
-8 0 -8 0 2 -27 1 -28 14 3 14 3 23 21 22 21 0 19 0 18 -9 0 -9 0 -6 -16z"/>
<path d="M1154 1135 l-19 -14 10 -2 10 -2 15 -1 15 -2 7 10 7 10 -5 8 -5 8 -8
0 -7 0 -20 -15z"/>
<path d="M670 1236 l-12 -16 -8 5 -8 5 2 -18 1 -17 -12 3 -13 2 1 -22 1 -23 5
13 5 12 10 -6 11 -7 -7 11 -7 12 20 0 20 0 10 18 10 18 -8 13 -8 12 -13 -15z"/>
</g>
</svg>
