<?xml version="1.0" standalone="no"?>
<!DOCTYPE svg PUBLIC "-//W3C//DTD SVG 20010904//EN"
 "http://www.w3.org/TR/2001/REC-SVG-20010904/DTD/svg10.dtd">
<svg version="1.0" xmlns="http://www.w3.org/2000/svg"
 width="468pt" height="468pt" viewBox="0 0 468 468"
 preserveAspectRatio="xMidYMid meet">
<metadata>
Created by potrace 1.8, written by Peter Selinger 2001-2007
</metadata>
<g transform="translate(0,468) scale(0.365625,-0.365625)"
fill="#000000" stroke="none">
<path d="M430 1025 l0 -15 -15 0 -15 0 0 -10 0 -10 -15 0 -15 0 0 -15 0 -15
-10 0 -10 0 0 -25 0 -25 -15 0 -15 0 0 -15 0 -15 -15 0 -15 0 0 -25 0 -25 -50
0 -50 0 0 -15 0 -15 -15 0 -15 0 0 -15 0 -15 -15 0 -15 0 0 -185 0 -185 15 0
15 0 0 -25 0 -25 25 0 25 0 0 -15 0 -15 350 0 350 0 0 -15 0 -15 10 0 10 0 0
-25 0 -25 -10 0 -10 0 0 -15 0 -15 -15 0 -15 0 0 -10 0 -10 -15 0 -15 0 0 -15
0 -15 -10 0 -10 0 0 -15 0 -15 -15 0 -15 0 0 -10 0 -10 -15 0 -15 0 0 -15 0
-15 -10 0 -10 0 0 -15 0 -15 -15 0 -15 0 0 -10 0 -10 -15 0 -15 0 0 -15 0 -15
40 0 40 0 0 15 0 15 15 0 15 0 0 10 0 10 15 0 15 0 0 15 0 15 10 0 10 0 0 15
0 15 15 0 15 0 0 10 0 10 15 0 15 0 0 15 0 15 10 0 10 0 0 15 0 15 15 0 15 0
0 10 0 10 15 0 15 0 0 40 0 40 -15 0 -15 0 0 15 0 15 -15 0 -15 0 0 15 0 15
-320 0 -320 0 0 10 0 10 -50 0 -50 0 0 30 0 30 -15 0 -15 0 0 170 0 170 15 0
15 0 0 15 0 15 50 0 50 0 0 -15 0 -15 -50 0 -50 0 0 -170 0 -170 10 0 10 0 0
-15 0 -15 40 0 40 0 0 -15 0 -15 320 0 320 0 0 -10 0 -10 15 0 15 0 0 -15 0
-15 15 0 15 0 0 -15 0 -15 10 0 10 0 0 -36 0 -35 -14 -15 -15 -14 -10 0 -11 0
0 -15 0 -15 -15 0 -15 0 0 -11 0 -10 -14 -15 -15 -14 -10 0 -11 0 0 -15 0 -15
-15 0 -15 0 0 -11 0 -10 -14 -15 -15 -14 -10 0 -11 0 0 -15 0 -15 25 0 25 0 0
15 0 15 15 0 15 0 0 10 0 10 15 0 15 0 0 15 0 15 10 0 10 0 0 15 0 15 15 0 15
0 0 10 0 10 15 0 15 0 0 15 0 15 10 0 10 0 0 15 0 15 15 0 15 0 0 80 0 80 -11
0 -10 0 -15 14 -14 15 0 10 0 11 -350 0 -350 0 0 11 0 10 -14 15 -15 14 -10 0
-11 0 0 15 0 15 -15 0 -15 0 0 95 0 95 15 0 15 0 0 40 0 40 25 0 25 0 0 -30 0
-30 15 0 15 0 0 -10 0 -10 15 0 15 0 0 -15 0 -15 10 0 10 0 0 -25 0 -25 30 0
30 0 0 -15 0 -15 200 0 200 0 0 15 0 15 10 0 10 0 0 25 0 25 -10 0 -10 0 0 15
0 15 10 0 10 0 0 -15 0 -15 15 0 15 0 0 15 0 15 120 0 120 0 0 25 0 25 -160 0
-160 0 0 15 0 15 -15 0 -15 0 0 -40 0 -40 15 0 15 0 0 -40 0 -40 -40 0 -40 0
0 25 0 25 -15 0 -15 0 0 160 0 160 15 0 15 0 0 15 0 15 40 0 40 0 0 -15 0 -15
25 0 25 0 0 -25 0 -25 15 0 15 0 0 25 0 25 -15 0 -15 0 0 25 0 25 -10 0 -10 0
0 15 0 15 -200 0 -200 0 0 -15z m240 -50 l0 -15 -15 0 -15 0 0 -15 0 -15 -80
0 -80 0 0 -10 0 -10 -25 0 -25 0 0 -15 0 -15 -15 0 -15 0 0 15 0 15 11 0 10 0
15 14 14 15 0 10 0 11 15 0 15 0 0 15 0 15 95 0 95 0 0 -15z m-270 -200 l0
-25 15 0 15 0 0 -15 0 -15 10 0 10 0 0 -15 0 -15 95 0 95 0 0 -10 0 -10 -94 0
-94 0 -6 13 -6 12 -6 -12 -6 -13 -14 0 -14 0 0 10 0 10 15 0 15 0 0 15 0 15
-15 0 -15 0 0 15 0 15 -15 0 -15 0 0 25 0 25 15 0 15 0 0 -25z"/>
<path d="M770 855 l0 -55 15 0 15 0 0 -15 0 -15 15 0 15 0 0 -10 0 -10 25 0
25 0 0 40 0 40 120 0 120 0 0 25 0 25 -160 0 -160 0 0 15 0 15 -15 0 -15 0 0
-55z m80 -40 l0 -15 -10 0 -10 0 0 15 0 15 10 0 10 0 0 -15z"/>
</g>
</svg>
