<?xml version="1.0" standalone="no"?>
<!DOCTYPE svg PUBLIC "-//W3C//DTD SVG 20010904//EN"
 "http://www.w3.org/TR/2001/REC-SVG-20010904/DTD/svg10.dtd">
<svg version="1.0" xmlns="http://www.w3.org/2000/svg"
 width="468pt" height="468pt" viewBox="0 0 468 468"
 preserveAspectRatio="xMidYMid meet">
<metadata>
Created by potrace 1.8, written by Peter Selinger 2001-2007
</metadata>
<g transform="translate(0,468) scale(0.365625,-0.365625)"
fill="#000000" stroke="none">
<path d="M72 1268 l-12 -12 12 -13 11 -14 -11 -11 -12 -12 0 -28 0 -27 -27
-15 -28 -15 32 2 31 2 -5 8 -4 7 8 -1 8 -1 5 2 5 2 53 4 52 4 1 -18 0 -17 9
23 9 22 16 0 16 0 9 -22 9 -23 0 16 1 17 16 6 16 6 9 0 10 0 9 -22 9 -23 0 18
1 17 11 0 11 0 -7 40 -7 40 16 0 16 0 0 15 0 15 -61 0 -61 0 -5 -20 -5 -20 -7
0 -7 0 -12 12 -12 12 -12 -12 -12 -12 -33 0 -33 0 0 9 0 10 10 6 11 7 -12 14
-11 14 -12 0 -12 0 -12 -12z m32 -28 l-5 -30 45 0 44 0 6 13 6 12 6 -12 6 -13
19 0 19 0 0 20 0 20 58 0 57 -1 -18 -10 -19 -11 6 -32 6 -31 -135 -3 -135 -2
0 25 0 25 11 0 10 0 -5 30 -4 30 13 0 13 0 -4 -30z"/>
<path d="M260 1220 l0 -20 10 0 10 0 0 20 0 20 -10 0 -10 0 0 -20z"/>
<path d="M290 1220 l0 -20 15 0 15 0 0 20 0 20 -15 0 -15 0 0 -20z"/>
<path d="M138 1183 l62 -4 63 4 62 3 -125 0 -125 0 63 -3z"/>
<path d="M1057 1243 l7 -17 4 12 4 12 73 0 73 0 5 -12 5 -13 1 18 1 17 -90 0
-89 0 6 -17z"/>
<path d="M697 1232 l11 -7 5 -30 4 -30 2 33 1 32 9 0 10 0 4 -32 4 -33 1 33 2
32 9 0 10 0 4 -32 4 -33 1 33 2 32 19 0 20 0 4 -32 4 -33 1 33 2 32 9 0 10 0
4 -32 4 -33 1 33 2 32 9 0 10 0 4 -32 4 -33 1 33 2 32 19 0 20 0 4 -32 4 -33
1 33 2 32 10 0 10 0 0 -35 0 -35 -137 0 -136 0 6 -6 6 -6 108 0 108 1 28 0 27
1 0 45 0 45 -142 0 -143 0 12 -8z"/>
<path d="M1022 1195 l-2 -40 -10 15 -10 15 0 -17 0 -18 30 -1 30 -1 85 0 85 0
25 1 25 1 0 18 0 17 -9 -14 -10 -15 -4 40 -4 39 -1 -37 -2 -38 -109 0 -110 0
-4 38 -4 37 -1 -40z"/>
<path d="M1060 1195 l0 -15 15 0 15 0 0 15 0 15 -15 0 -15 0 0 -15z"/>
<path d="M1110 1195 l0 -15 10 0 10 0 0 15 0 15 -10 0 -10 0 0 -15z"/>
<path d="M1150 1195 l0 -15 15 0 15 0 0 15 0 15 -15 0 -15 0 0 -15z"/>
<path d="M1200 1195 l0 -15 15 0 15 0 0 15 0 15 -15 0 -15 0 0 -15z"/>
<path d="M370 1160 l0 -10 28 -1 27 -1 95 1 95 0 23 0 22 1 0 10 0 10 -145 0
-145 0 0 -10z"/>
<path d="M86 1132 l-5 -8 19 0 19 0 -5 8 -5 8 -9 0 -9 0 -5 -8z"/>
<path d="M135 1130 l-6 -10 15 6 16 6 0 4 0 4 -9 0 -10 0 -6 -10z"/>
<path d="M396 1132 l-5 -8 19 0 19 0 -5 8 -5 8 -9 0 -9 0 -5 -8z"/>
<path d="M446 1132 l-5 -8 19 0 19 0 -5 8 -5 8 -9 0 -9 0 -5 -8z"/>
<path d="M565 1130 l-6 -10 15 6 16 6 0 4 0 4 -9 0 -10 0 -6 -10z"/>
<path d="M606 1132 l-5 -8 19 0 19 0 -5 8 -5 8 -9 0 -9 0 -5 -8z"/>
<path d="M706 1132 l-5 -8 19 0 19 0 -5 8 -5 8 -9 0 -9 0 -5 -8z"/>
<path d="M756 1132 l-5 -8 19 0 19 0 -5 8 -5 8 -9 0 -9 0 -5 -8z"/>
<path d="M876 1131 l-4 -6 38 0 39 0 -5 5 -5 5 -30 1 -29 2 -4 -7z"/>
<path d="M1036 1132 l-5 -8 19 0 19 0 -5 8 -5 8 -9 0 -9 0 -5 -8z"/>
<path d="M1086 1132 l-5 -8 19 0 19 0 -5 8 -5 8 -9 0 -9 0 -5 -8z"/>
<path d="M1176 1132 l-5 -8 19 0 19 0 -5 8 -5 8 -9 0 -9 0 -5 -8z"/>
<path d="M1229 1133 l-1 -8 0 -6 1 -6 -567 -1 -567 0 -47 -1 -48 -1 0 -555 0
-555 640 0 640 0 0 555 0 555 -21 0 -20 0 6 9 5 10 -10 6 -10 6 -1 -8z"/>
</g>
</svg>
