<?xml version="1.0" standalone="no"?>
<!DOCTYPE svg PUBLIC "-//W3C//DTD SVG 20010904//EN"
 "http://www.w3.org/TR/2001/REC-SVG-20010904/DTD/svg10.dtd">
<svg version="1.0" xmlns="http://www.w3.org/2000/svg"
 width="468pt" height="468pt" viewBox="0 0 468 468"
 preserveAspectRatio="xMidYMid meet">
<metadata>
Created by potrace 1.8, written by Peter Selinger 2001-2007
</metadata>
<g transform="translate(0,468) scale(0.365625,-0.365625)"
fill="#000000" stroke="none">
<path d="M540 1230 l0 -10 -40 0 -40 0 0 -10 0 -10 -30 0 -30 0 0 -10 0 -10
-20 0 -20 0 0 -10 0 -10 -15 0 -15 0 -65 -65 -65 -65 0 -15 0 -15 -10 0 -10 0
0 -20 0 -20 -10 0 -10 0 0 -30 0 -30 -10 0 -10 0 0 -40 0 -40 -10 0 -10 0 0
-90 0 -90 10 0 10 0 0 -40 0 -40 10 0 10 0 0 -20 0 -20 10 0 10 0 0 -30 0 -30
10 0 10 0 0 -15 0 -15 65 -65 65 -65 15 0 15 0 0 -10 0 -10 30 0 30 0 0 -10 0
-10 30 0 30 0 0 -10 0 -10 30 0 30 0 0 -10 0 -10 90 0 90 0 0 10 0 10 30 0 30
0 0 10 0 10 30 0 30 0 0 10 0 10 30 0 30 0 0 6 0 5 -15 16 -16 15 -19 -23 -20
-22 -7 6 -6 7 23 20 23 20 -6 6 -6 7 -31 -33 -30 -33 -20 23 -20 23 -21 -24
-20 -23 -9 13 -8 14 -17 -17 -17 -17 6 -7 7 -6 10 14 9 15 9 -15 10 -14 20 23
20 23 17 -16 16 -17 -6 -7 -7 -6 -9 14 -9 14 -21 -24 -21 -24 -10 14 -9 15
-10 -15 -10 -15 -10 15 -10 15 -10 -15 -10 -15 -10 15 -10 15 -9 -14 -9 -14
-41 42 -42 43 -20 -23 -20 -23 -10 14 -11 15 -5 -12 -5 -13 -9 0 -9 0 0 20 0
20 -10 0 -10 0 0 -10 0 -10 -10 0 -10 0 0 15 0 15 77 77 77 77 4 -12 4 -12 79
0 79 0 0 10 0 10 15 0 16 0 89 -90 89 -90 11 0 10 0 55 55 55 55 0 15 0 15 10
0 10 0 0 20 0 20 10 0 10 0 0 20 0 20 10 0 10 0 0 20 0 20 10 0 10 0 0 40 0
40 10 0 10 0 0 90 0 90 -10 0 -10 0 0 40 0 40 -10 0 -10 0 0 20 0 20 -10 0
-10 0 0 30 0 30 -10 0 -10 0 0 15 0 15 -55 55 -55 55 -15 0 -15 0 0 10 0 10
-20 0 -20 0 0 10 0 10 -20 0 -20 0 0 10 0 10 -20 0 -20 0 0 10 0 10 -40 0 -40
0 0 10 0 10 -90 0 -90 0 0 -10z m180 -20 l0 -10 40 0 40 0 0 -10 0 -10 20 0
20 0 0 -10 0 -10 20 0 20 0 0 -10 0 -10 20 0 20 0 0 -5 0 -5 -76 -76 -76 -77
-9 14 -9 14 -9 -15 -10 -14 -21 24 -21 24 -10 -14 -9 -15 -10 15 -10 15 -10
-15 -10 -15 -10 15 -10 15 -10 -15 -10 -15 -9 15 -10 14 -20 -23 -20 -23 -17
16 -16 17 6 7 7 6 9 -14 9 -14 21 24 21 24 10 -14 9 -15 10 15 10 15 10 -15
10 -15 10 15 10 15 10 -15 10 -15 10 15 10 15 10 -15 10 -15 9 15 10 14 8 -7
7 -8 -14 -9 -14 -9 7 -8 8 -7 10 14 9 15 9 -15 10 -14 6 6 7 7 -37 36 -36 37
-20 -23 -19 -22 -20 23 -20 23 -21 -24 -20 -23 -9 14 -9 14 -21 -24 -21 -24
-10 14 -11 15 -5 -12 -5 -13 -14 0 -14 0 -55 55 -55 55 0 15 0 15 20 0 20 0 0
10 0 10 30 0 30 0 0 10 0 10 40 0 40 0 0 10 0 10 90 0 90 0 0 -10z m-80 -160
l0 -10 -10 0 -10 0 0 10 0 10 10 0 10 0 0 -10z m80 0 l0 -10 -10 0 -10 0 0 10
0 10 10 0 10 0 0 -10z m-400 -140 l89 -90 6 0 5 0 0 15 0 15 55 55 55 55 15 0
15 0 0 10 0 10 70 0 70 0 0 -10 0 -10 15 0 16 0 69 -70 70 -71 80 81 79 80 16
0 15 0 0 -20 0 -20 10 0 10 0 0 -20 0 -20 10 0 10 0 0 -40 0 -40 10 0 10 0 0
-90 0 -90 -10 0 -10 0 0 -40 0 -40 -10 0 -10 0 0 -20 0 -20 -10 0 -10 0 0 -20
0 -20 -10 0 -10 0 0 -20 0 -20 -5 0 -6 0 -79 80 -79 80 -21 0 -21 0 -49 -50
-49 -50 -15 0 -16 0 0 -10 0 -10 -70 0 -70 0 0 10 0 10 -16 0 -15 0 -49 50
-49 50 -21 0 -21 0 -80 -81 -79 -80 -15 15 -15 15 0 25 0 26 -10 0 -10 0 0 20
0 20 -10 0 -10 0 0 40 0 40 -10 0 -10 0 0 90 0 90 10 0 10 0 0 40 0 40 10 0
10 0 0 30 0 30 10 0 10 0 0 20 0 20 15 0 16 0 89 -90z m217 -636 l25 -25 -6
-6 -6 -6 -20 24 -21 23 -9 -14 -9 -14 -6 6 -7 7 13 15 14 15 3 1 3 0 26 -26z"/>
<path d="M580 1090 l0 -10 10 0 10 0 0 10 0 10 -10 0 -10 0 0 -10z"/>
<path d="M660 1090 l0 -10 10 0 10 0 0 10 0 10 -10 0 -10 0 0 -10z"/>
<path d="M520 1070 l0 -10 10 0 10 0 0 10 0 10 -10 0 -10 0 0 -10z"/>
<path d="M760 1074 l0 -5 15 -16 16 -15 6 5 5 6 -15 16 -16 15 -5 0 -6 0 0 -6z"/>
<path d="M340 854 l0 -5 15 -16 16 -15 6 5 5 6 -15 16 -16 15 -5 0 -6 0 0 -6z"/>
<path d="M911 844 l-13 -15 6 -6 5 -5 16 15 15 16 0 5 0 6 -7 0 -8 -1 -14 -15z"/>
<path d="M320 790 l0 -10 10 0 10 0 0 -70 0 -70 -10 0 -10 0 0 -10 0 -10 30 0
30 0 0 10 0 10 -10 0 -10 0 0 30 0 30 40 0 40 0 0 -30 0 -30 -10 0 -10 0 0
-10 0 -10 30 0 30 0 0 10 0 10 -10 0 -10 0 0 70 0 70 10 0 10 0 0 10 0 10 -30
0 -30 0 0 -10 0 -10 10 0 10 0 0 -30 0 -30 -40 0 -40 0 0 30 0 30 10 0 10 0 0
10 0 10 -30 0 -30 0 0 -10z"/>
<path d="M500 790 l0 -10 10 0 10 0 0 -70 0 -70 -10 0 -10 0 0 -10 0 -10 70 0
70 0 0 20 0 20 -10 0 -10 0 0 -10 0 -10 -40 0 -40 0 0 30 0 30 30 0 30 0 0
-10 0 -10 10 0 10 0 0 30 0 30 -10 0 -10 0 0 -10 0 -10 -30 0 -30 0 0 30 0 30
40 0 40 0 0 -10 0 -10 10 0 10 0 0 20 0 20 -70 0 -70 0 0 -10z"/>
<path d="M660 790 l0 -10 10 0 10 0 0 -70 0 -70 -10 0 -10 0 0 -10 0 -10 60 0
60 0 0 20 0 20 -10 0 -10 0 0 -10 0 -10 -30 0 -30 0 0 70 0 70 10 0 10 0 0 10
0 10 -30 0 -30 0 0 -10z"/>
<path d="M800 790 l0 -10 10 0 10 0 0 -70 0 -70 -10 0 -10 0 0 -10 0 -10 30 0
30 0 0 10 0 10 -10 0 -10 0 0 30 0 30 36 0 35 0 15 14 14 15 0 21 0 21 -14 15
-15 14 -55 0 -56 0 0 -10z m106 -25 l15 -15 -15 -15 -15 -15 -25 0 -26 0 0 30
0 30 26 0 25 0 15 -15z"/>
<path d="M440 330 l0 -10 10 0 10 0 0 10 0 10 -10 0 -10 0 0 -10z"/>
<path d="M780 330 l0 -10 10 0 10 0 0 10 0 10 -10 0 -10 0 0 -10z"/>
<path d="M560 310 l0 -10 10 0 10 0 0 10 0 10 -10 0 -10 0 0 -10z"/>
<path d="M640 310 l0 -10 10 0 10 0 0 10 0 10 -10 0 -10 0 0 -10z"/>
<path d="M591 284 l-13 -15 7 -7 6 -6 10 14 9 15 9 -15 10 -14 7 6 6 7 -15 16
-16 15 -3 0 -3 -1 -14 -15z"/>
<path d="M0 100 l0 -100 640 0 640 0 0 100 0 100 -640 0 -640 0 0 -100z"/>
</g>
</svg>
