<?xml version="1.0" standalone="no"?>
<!DOCTYPE svg PUBLIC "-//W3C//DTD SVG 20010904//EN"
 "http://www.w3.org/TR/2001/REC-SVG-20010904/DTD/svg10.dtd">
<svg version="1.0" xmlns="http://www.w3.org/2000/svg"
 width="468pt" height="468pt" viewBox="0 0 468 468"
 preserveAspectRatio="xMidYMid meet">
<metadata>
Created by potrace 1.8, written by Peter Selinger 2001-2007
</metadata>
<g transform="translate(0,468) scale(0.365625,-0.365625)"
fill="#000000" stroke="none">
<path d="M320 640 l0 -640 25 0 25 0 0 640 0 640 -25 0 -25 0 0 -640z"/>
<path d="M530 640 l0 -640 30 0 30 0 0 640 0 640 -30 0 -30 0 0 -640z"/>
<path d="M690 640 l0 -640 30 0 30 0 0 345 0 345 265 0 265 0 0 30 0 30 -265
0 -265 0 0 265 0 265 -30 0 -30 0 0 -640z"/>
<path d="M800 1040 l0 -240 240 0 240 0 0 25 0 25 -185 0 -185 0 0 30 0 30
185 0 185 0 0 25 0 25 -160 0 -160 0 0 160 0 160 -25 0 -25 0 0 -185 0 -185
-30 0 -30 0 0 185 0 185 -25 0 -25 0 0 -240z"/>
<path d="M800 295 l0 -295 25 0 25 0 0 240 0 240 30 0 30 0 0 -240 0 -240 25
0 25 0 0 160 0 160 160 0 160 0 0 25 0 25 -160 0 -160 0 0 55 0 55 -25 0 -25
0 0 25 0 25 185 0 185 0 0 30 0 30 -240 0 -240 0 0 -295z"/>
</g>
</svg>
