<?xml version="1.0" standalone="no"?>
<!DOCTYPE svg PUBLIC "-//W3C//DTD SVG 20010904//EN"
 "http://www.w3.org/TR/2001/REC-SVG-20010904/DTD/svg10.dtd">
<svg version="1.0" xmlns="http://www.w3.org/2000/svg"
 width="468pt" height="468pt" viewBox="0 0 468 468"
 preserveAspectRatio="xMidYMid meet">
<metadata>
Created by potrace 1.8, written by Peter Selinger 2001-2007
</metadata>
<g transform="translate(0,468) scale(0.365625,-0.365625)"
fill="#000000" stroke="none">
<path d="M800 1260 l0 -20 -10 0 -10 0 0 -25 0 -25 -10 0 -10 0 0 -16 0 -15
-14 -15 -15 -14 -60 0 -61 0 0 10 0 10 -65 0 -65 0 0 -10 0 -10 -55 0 -55 0 0
-10 0 -10 -35 0 -35 0 0 -15 0 -15 -20 0 -20 0 0 -10 0 -10 -18 0 -18 0 -14
-20 -14 -20 -9 0 -8 0 -24 -25 -25 -24 0 -11 0 -10 -10 0 -10 0 0 -18 0 -18
-20 -14 -20 -14 0 -18 0 -18 -15 0 -15 0 0 -35 0 -35 -10 0 -10 0 0 -45 0 -45
-10 0 -10 0 0 -75 0 -75 10 0 10 0 0 -40 0 -40 10 0 10 0 0 -35 0 -35 15 0 15
0 0 -20 0 -20 10 0 10 0 0 -20 0 -21 45 -44 44 -45 6 0 6 0 15 -14 14 -15 0
-10 0 -11 20 0 20 0 0 14 0 14 -12 5 -13 4 24 22 24 21 -8 8 -8 7 -4 -12 -5
-13 -9 0 -9 0 0 65 0 65 5 0 6 0 24 -25 25 -24 0 -21 0 -20 15 0 15 0 0 -20 0
-20 -15 0 -15 0 0 -10 0 -10 15 0 15 0 0 -25 0 -25 -15 0 -15 0 0 11 0 10 -15
16 -16 15 -7 -7 -7 -8 13 -4 12 -5 0 -13 0 -13 -12 -6 -13 -6 13 -6 12 -6 0
-29 0 -29 -10 0 -10 0 0 -25 0 -25 -10 0 -10 0 0 -20 0 -20 54 0 54 0 6 13 6
12 6 -12 6 -13 309 0 310 0 24 25 25 24 0 6 0 6 25 24 24 25 6 0 6 0 24 25 25
24 0 18 0 19 20 14 20 14 0 18 0 18 10 0 10 0 0 20 0 20 15 0 15 0 0 25 0 25
10 0 10 0 0 40 0 40 10 0 10 0 0 155 0 155 -10 0 -10 0 0 40 0 40 -10 0 -10 0
0 35 0 35 -15 0 -15 0 0 20 0 20 -10 0 -10 0 0 23 0 23 -20 14 -20 14 0 14 0
13 -25 24 -24 25 -11 0 -10 0 0 10 0 11 -45 44 -44 45 -16 0 -16 0 -15 14 -14
15 0 10 0 11 -20 0 -20 0 0 10 0 10 -20 0 -20 0 0 10 0 10 -25 0 -25 0 0 -20z
m50 -10 l0 -10 20 0 20 0 0 -15 0 -15 -10 0 -10 0 0 -20 0 -20 -21 0 -20 0
-16 15 -15 16 7 7 8 7 4 -12 5 -13 14 0 14 0 0 25 0 25 -15 0 -15 0 0 10 0 10
15 0 15 0 0 -10z m86 -54 l14 -15 0 -11 0 -11 -14 -15 -15 -14 -11 0 -11 0
-17 17 -17 16 13 5 12 4 0 19 0 19 16 0 15 0 15 -14z m-136 -36 l0 -10 25 0
25 0 0 -10 0 -10 16 0 15 0 15 -14 14 -15 0 -6 0 -6 25 -24 24 -25 6 0 6 0 34
-35 35 -34 0 -8 0 -9 20 -14 20 -14 0 -18 0 -18 15 0 15 0 0 -20 0 -20 10 0
10 0 0 -35 0 -35 10 0 10 0 0 -45 0 -45 10 0 10 0 0 -95 0 -95 -10 0 -10 0 0
-45 0 -45 -10 0 -10 0 0 -30 0 -30 -10 0 -10 0 0 -25 0 -25 -11 0 -10 0 -15
-14 -14 -15 0 -11 0 -12 -30 -28 -30 -28 0 -7 0 -6 -14 -15 -15 -14 -6 0 -6 0
-16 -15 -15 -16 7 -7 8 -7 4 13 5 12 14 0 14 0 0 10 0 10 20 0 20 0 0 21 0 21
30 28 30 28 0 16 0 16 14 0 14 0 5 -12 4 -13 9 8 8 8 -14 10 -15 11 13 5 12 5
0 24 0 24 10 0 10 0 0 -10 0 -10 20 0 20 0 0 10 0 10 -20 0 -20 0 0 30 0 30
30 0 30 0 0 10 0 10 -20 0 -20 0 0 35 0 35 35 0 35 0 0 10 0 10 -25 0 -25 0 0
20 0 20 25 0 25 0 0 15 0 15 -25 0 -25 0 0 20 0 20 25 0 25 0 0 10 0 10 -25 0
-25 0 0 20 0 20 25 0 25 0 0 15 0 15 -35 0 -35 0 0 20 0 20 20 0 20 0 0 10 0
10 -16 0 -15 0 -17 17 -17 16 13 5 12 4 0 13 0 13 13 5 12 4 -8 9 -8 8 -9 -13
-8 -14 -17 16 -16 17 25 25 25 25 6 0 5 0 0 -20 0 -20 10 0 10 0 0 -35 0 -35
15 0 15 0 0 -40 0 -40 10 0 10 0 0 -140 0 -140 -10 0 -10 0 0 -45 0 -45 -15 0
-15 0 0 -20 0 -20 -10 0 -10 0 0 -25 0 -25 -10 0 -10 0 0 -16 0 -16 -30 -28
-30 -28 0 -11 0 -11 -15 0 -15 0 0 -10 0 -10 -20 0 -20 0 0 -10 0 -10 -20 0
-20 0 0 -10 0 -10 -24 0 -24 0 -6 -12 -6 -13 -6 13 -6 12 -17 0 -17 0 -14 -20
-14 -20 -23 0 -23 0 0 -15 0 -15 -40 0 -40 0 0 -10 0 -10 -140 0 -140 0 0 10
0 10 -45 0 -45 0 0 15 0 15 -20 0 -20 0 0 20 0 20 40 0 40 0 0 -10 0 -10 55 0
55 0 0 -10 0 -10 75 0 75 0 0 10 0 10 35 0 35 0 0 10 0 10 30 0 30 0 0 10 0
10 25 0 25 0 0 10 0 10 16 0 15 0 15 14 14 15 0 6 0 6 25 24 24 25 6 0 6 0 24
25 25 24 0 21 0 20 10 0 10 0 0 20 0 20 10 0 10 0 0 20 0 20 10 0 10 0 0 45 0
45 15 0 15 0 0 110 0 110 -15 0 -15 0 0 30 0 30 -10 0 -10 0 0 35 0 35 -10 0
-10 0 0 20 0 20 -10 0 -10 0 0 18 0 18 -20 14 -20 14 0 13 0 13 -11 0 -10 0
-49 50 -49 50 -20 0 -21 0 0 15 0 15 -10 0 -10 0 0 20 0 20 -10 0 -10 0 0 10
0 10 10 0 10 0 0 -10z m225 -25 l35 -34 0 -6 0 -6 14 -15 15 -14 6 0 6 0 15
-14 14 -15 0 -13 0 -14 20 -14 20 -14 0 -19 0 -18 -14 -15 -15 -14 -15 0 -16
0 0 20 0 20 10 0 10 0 0 15 0 15 -10 0 -10 0 0 -15 0 -15 -15 0 -15 0 0 11 0
11 -30 28 -30 28 0 15 0 15 13 5 12 4 -9 9 -9 9 -4 -12 -5 -13 -19 0 -19 0 0
10 0 10 -15 0 -15 0 0 14 0 14 -12 4 -13 5 17 16 17 17 10 0 11 0 0 10 0 10 5
0 6 0 34 -35z m-595 -40 l0 -15 15 0 15 0 0 -10 0 -10 -15 0 -15 0 0 10 0 10
-30 0 -30 0 0 -10 0 -10 -20 0 -20 0 0 -10 0 -10 -15 0 -15 0 0 20 0 20 35 0
35 0 0 15 0 15 30 0 30 0 0 -15z m110 0 l0 -15 -10 0 -10 0 0 15 0 15 10 0 10
0 0 -15z m50 0 l0 -15 -15 0 -15 0 0 15 0 15 15 0 15 0 0 -15z m40 1 l0 -14
13 -5 12 -5 -14 -10 -14 -10 17 -17 17 -17 18 21 18 21 7 0 7 0 16 -16 16 -16
-14 -9 -14 -9 15 -9 14 -10 -8 -8 -9 -8 -4 13 -5 12 -13 0 -13 0 -5 -12 -4
-13 -22 25 -22 24 -9 -14 -9 -14 -8 7 -7 8 13 9 14 8 -18 19 -18 18 -5 -13 -4
-12 -14 0 -14 0 0 10 0 10 11 0 10 0 15 14 14 15 0 10 0 11 10 0 10 0 0 -14z
m-220 -41 l0 -6 -25 -25 -25 -25 -15 15 -15 15 0 5 0 6 20 0 20 0 0 10 0 10
20 0 20 0 0 -5z m390 -5 l0 -10 -10 0 -10 0 0 10 0 10 10 0 10 0 0 -10z m-530
-30 l14 -20 23 0 23 0 0 -25 0 -25 -11 0 -11 0 -38 -40 -38 -40 -16 0 -16 0 0
16 0 16 30 28 30 28 0 11 0 11 10 0 10 0 0 10 0 10 -20 0 -20 0 0 -25 0 -25
-20 0 -20 0 0 -20 0 -20 -11 0 -10 0 -17 17 -17 16 13 5 12 4 0 24 0 24 13 0
13 0 14 20 14 20 16 0 16 0 14 -20z m257 5 l15 -16 -6 -7 -7 -6 -9 13 -8 14
-26 -26 -26 -26 0 -6 0 -6 15 -15 15 -15 15 15 15 15 0 10 0 11 10 0 10 0 0
-11 0 -10 14 -15 15 -14 6 0 6 0 15 14 14 15 0 10 0 11 10 0 10 0 0 -14 0 -14
13 -5 12 -4 -24 -21 -24 -22 32 -29 31 -29 0 -7 0 -6 -15 -15 -15 -15 -15 15
-15 15 0 6 0 6 -14 15 -15 14 -10 0 -11 0 0 -10 0 -10 15 0 15 0 0 -15 0 -15
-15 0 -15 0 0 -10 0 -10 11 0 12 0 19 -22 19 -22 9 14 9 14 7 -7 7 -7 -24 -21
-24 -22 13 -4 12 -5 0 -9 0 -10 -25 -24 -24 -25 -10 0 -9 0 -5 13 -5 12 -10
-14 -10 -14 -26 26 -26 26 0 6 0 6 -14 15 -15 14 -6 0 -6 0 -15 -14 -14 -15 0
-6 0 -6 -25 -25 -25 -25 -18 17 -17 17 13 5 12 4 0 14 0 14 10 0 10 0 0 -15 0
-15 10 0 10 0 0 14 0 14 12 4 12 4 -28 29 -28 28 -8 -14 -9 -13 -8 7 -7 8 14
10 15 9 -15 11 -15 11 13 5 12 5 0 9 0 10 26 26 25 25 6 -6 6 -6 -21 -19 -22
-18 0 -7 0 -7 15 -15 15 -15 15 15 15 15 0 10 0 11 15 0 15 0 0 -15 0 -15 -15
0 -15 0 0 -10 0 -10 11 0 10 0 15 14 14 15 0 6 0 6 -14 15 -15 14 -10 0 -11 0
0 10 0 10 14 0 14 0 4 -12 5 -13 17 18 17 17 -17 17 -17 18 -5 -13 -4 -12 -9
0 -10 0 -24 25 -25 24 0 6 0 6 25 24 24 25 10 0 9 0 5 -12 5 -13 18 22 19 23
3 0 3 0 16 -15z m280 -20 l15 -16 -6 -7 -7 -6 -10 14 -9 15 -9 -15 -10 -14 -6
6 -7 7 13 15 14 15 3 1 3 0 16 -15z m63 5 l0 -10 -10 0 -10 0 0 10 0 10 10 0
10 0 0 -10z m-280 -45 l0 -15 -15 0 -15 0 0 15 0 15 15 0 15 0 0 -15z m300
-20 l0 -35 -20 0 -20 0 0 35 0 35 20 0 20 0 0 -35z m-520 -5 l0 -10 -10 0 -10
0 0 -16 0 -15 -14 -15 -15 -14 -10 0 -11 0 0 -35 0 -35 -20 0 -20 0 0 35 0 35
10 0 10 0 0 16 0 15 14 15 15 14 10 0 11 0 0 10 0 10 20 0 20 0 0 -10z m580
-10 l0 -20 15 0 15 0 0 -10 0 -10 -21 0 -20 0 -15 14 -14 15 0 15 0 16 20 0
20 0 0 -20z m-230 -20 l0 -20 -15 0 -15 0 0 -10 0 -10 -10 0 -10 0 0 30 0 30
25 0 25 0 0 -20z m-570 -18 l0 -18 -20 -14 -20 -14 0 -31 0 -31 -20 -14 -20
-14 0 -73 0 -73 -15 0 -15 0 0 -25 0 -25 -10 0 -10 0 0 34 0 34 13 6 12 6 -12
6 -13 6 0 19 0 19 10 0 10 0 0 35 0 35 15 0 15 0 0 45 0 45 10 0 10 0 0 15 0
16 13 14 12 14 18 1 17 0 0 -18z m650 -12 l0 -30 -26 0 -25 0 -15 15 -15 15
13 14 13 15 28 1 27 0 0 -30z m96 -4 l14 -15 0 -19 0 -20 -12 -5 -13 -4 7 -8
7 -7 16 15 15 16 0 20 0 21 10 0 10 0 0 -25 0 -25 -10 0 -10 0 0 -40 0 -40
-40 0 -40 0 0 10 0 10 -15 0 -15 0 0 55 0 55 15 0 15 0 0 10 0 10 16 0 15 0
15 -14z m-690 -20 l14 -15 0 -20 0 -21 -10 0 -10 0 0 -30 0 -30 -15 0 -15 0 0
-21 0 -20 -14 -15 -15 -14 -5 0 -6 0 0 25 0 25 -10 0 -10 0 0 30 0 30 10 0 10
0 0 20 0 20 10 0 10 0 0 25 0 25 21 0 20 0 15 -14z m814 -20 l0 -14 -12 -5
-13 -4 34 -32 35 -33 -15 -10 -14 -10 13 -5 12 -5 0 -14 0 -14 -10 0 -10 0 0
11 0 11 -32 30 -32 30 15 9 14 9 -15 11 -15 11 13 5 12 5 0 14 0 14 10 0 10 0
0 -14z m-240 -36 l0 -20 -45 0 -45 0 0 20 0 20 45 0 45 0 0 -20z m-520 -30 l0
-10 20 0 20 0 0 -35 0 -35 -10 0 -10 0 0 -30 0 -30 10 0 10 0 0 -20 0 -20 15
0 15 0 0 -15 0 -15 10 0 10 0 0 -10 0 -10 -21 0 -20 0 -15 14 -14 15 0 30 0
31 -10 0 -10 0 0 -10 0 -10 -16 0 -15 0 -15 14 -14 15 0 50 0 51 10 0 10 0 0
20 0 20 20 0 20 0 0 -10z m480 -30 l0 -20 -10 0 -10 0 0 10 0 10 -25 0 -25 0
0 10 0 10 35 0 35 0 0 -20z m110 -10 l0 -10 40 0 40 0 0 -65 0 -65 -10 0 -10
0 0 -10 0 -11 -27 -27 -27 -26 -4 12 -4 12 -34 0 -34 0 0 55 0 55 10 0 10 0 0
30 0 31 13 14 12 14 13 1 12 0 0 -10z m-390 -25 l0 -15 -15 0 -15 0 0 15 0 15
15 0 15 0 0 -15z m320 -20 l0 -35 -10 0 -10 0 0 -45 0 -45 -20 0 -20 0 0 15 0
15 -31 0 -30 0 -15 14 -14 15 0 11 0 11 25 24 24 25 41 0 40 0 0 15 0 15 10 0
10 0 0 -35z m220 21 l0 -14 13 -5 12 -4 -7 -8 -7 -7 -16 15 -15 16 0 10 0 11
10 0 10 0 0 -14z m-872 -43 l26 -27 -12 -4 -12 -4 0 -54 0 -54 -10 0 -10 0 0
-20 0 -20 10 0 10 0 0 -44 0 -44 -12 -6 -13 -6 13 -6 12 -6 0 -19 0 -19 -10 0
-10 0 0 20 0 20 -10 0 -10 0 0 20 0 20 10 0 10 0 0 10 0 10 -20 0 -20 0 0 15
0 15 10 0 10 0 0 29 0 29 13 6 12 6 -12 6 -13 6 0 74 0 74 5 0 6 0 27 -27z
m332 -33 l0 -20 10 0 10 0 0 -21 0 -20 14 -15 15 -14 15 0 16 0 0 -10 0 -10
-30 0 -30 0 0 -10 0 -10 -25 0 -25 0 0 10 0 10 -30 0 -30 0 0 35 0 35 10 0 10
0 0 30 0 30 35 0 35 0 0 -20z m580 10 l0 -10 -20 0 -20 0 0 -10 0 -10 -25 0
-25 0 0 10 0 10 15 0 15 0 0 10 0 10 30 0 30 0 0 -10z m-670 -20 l0 -10 -10 0
-10 0 0 10 0 10 10 0 10 0 0 -10z m-170 -20 l0 -10 20 0 20 0 0 -45 0 -45 -10
0 -10 0 0 -35 0 -35 -10 0 -10 0 0 15 0 15 -11 0 -10 0 -15 14 -14 15 0 60 0
61 25 0 25 0 0 -10z m360 -15 l0 -25 -10 0 -10 0 0 25 0 25 10 0 10 0 0 -25z
m90 -10 l0 -15 31 0 30 0 17 -17 17 -16 -13 -5 -12 -4 0 -29 0 -29 -15 0 -15
0 0 -25 0 -25 -30 0 -30 0 0 10 0 10 -20 0 -20 0 0 25 0 25 -15 0 -15 0 0 20
0 20 14 0 14 0 4 -12 5 -13 16 17 17 17 0 15 0 16 -20 0 -20 0 0 15 0 15 30 0
30 0 0 -15z m330 0 l0 -15 -15 0 -15 0 0 15 0 15 15 0 15 0 0 -15z m40 1 l0
-14 -12 -5 -13 -5 14 -10 14 -10 -18 -19 -18 -18 -5 13 -4 12 -14 0 -14 0 0
10 0 10 11 0 10 0 15 14 14 15 0 10 0 11 10 0 10 0 0 -14z m40 -26 l0 -10 -10
0 -10 0 0 10 0 10 10 0 10 0 0 -10z m-970 -20 l0 -10 -10 0 -10 0 0 -20 0 -20
-15 0 -15 0 0 30 0 30 25 0 25 0 0 -10z m210 0 l0 -10 15 0 15 0 0 -10 0 -10
-10 0 -11 0 -24 -25 -25 -24 0 -21 0 -20 -10 0 -10 0 0 25 0 25 10 0 10 0 0
40 0 40 20 0 20 0 0 -10z m480 0 l0 -10 31 0 30 0 15 -14 14 -15 0 -29 0 -30
13 -6 12 -6 -12 -6 -13 -6 0 -19 0 -19 -45 0 -45 0 0 10 0 10 -30 0 -30 0 0
35 0 35 10 0 10 0 0 25 0 26 13 14 12 14 8 1 7 0 0 -10z m150 0 l0 -10 -10 0
-10 0 0 10 0 10 10 0 10 0 0 -10z m-577 -62 l5 -13 10 14 10 14 16 -16 16 -16
0 -6 0 -6 14 -15 15 -14 10 0 11 0 0 10 0 10 -15 0 -15 0 0 15 0 15 15 0 15 0
0 -14 0 -14 12 -4 13 -5 -17 -16 -17 -17 -10 0 -11 0 0 -10 0 -10 15 0 15 0 0
-10 0 -10 -11 0 -10 0 -15 -14 -14 -15 0 -10 0 -11 -10 0 -10 0 0 10 0 11 -27
27 -27 26 -4 -12 -4 -12 -14 0 -14 0 0 10 0 10 15 0 15 0 0 10 0 10 -15 0 -15
0 0 10 0 10 11 0 10 0 15 14 14 15 0 10 0 11 -10 0 -10 0 0 -15 0 -15 -15 0
-15 0 0 15 0 15 15 0 15 0 0 10 0 10 9 0 9 0 5 -12z m147 2 l0 -10 -10 0 -10
0 0 10 0 10 10 0 10 0 0 -10z m410 0 l0 -10 -10 0 -10 0 0 10 0 10 10 0 10 0
0 -10z m40 0 l0 -10 15 0 15 0 0 -15 0 -15 -14 0 -14 0 -5 -12 -4 -13 -9 9 -9
9 13 4 12 5 0 14 0 14 -10 0 -10 0 0 10 0 10 10 0 10 0 0 -10z m70 0 l0 -10
-10 0 -10 0 0 10 0 10 10 0 10 0 0 -10z m-850 -50 l0 -10 11 0 10 0 15 -14 14
-15 0 -14 0 -15 -12 -6 -13 -6 13 -6 12 -6 0 -23 0 -23 -12 -5 -13 -5 15 -11
14 -10 -8 -8 -9 -8 -4 13 -5 12 -10 0 -9 0 -15 14 -14 15 0 19 0 20 13 6 12 6
-12 6 -13 6 0 39 0 39 10 0 10 0 0 -10z m374 -22 l6 -13 6 13 6 12 9 0 10 0
36 -37 37 -37 -12 -4 -12 -4 0 -9 0 -10 -25 -24 -24 -25 -10 0 -9 0 -4 -12 -4
-12 -37 37 -37 36 0 10 0 9 13 5 12 5 -14 10 -14 10 24 25 24 26 7 0 6 1 6
-12z m456 -8 l0 -20 -10 0 -10 0 0 20 0 20 10 0 10 0 0 -20z m-63 -15 l15 -16
-5 -6 -6 -5 -16 15 -15 16 0 5 0 6 6 0 5 0 16 -15z m-157 -15 l0 -10 35 0 35
0 0 -10 0 -10 30 0 30 0 0 -14 0 -14 13 -5 12 -4 -24 -22 -24 -21 6 -6 6 -6
28 28 27 28 -12 4 -12 4 0 14 0 14 10 0 10 0 0 -15 0 -15 15 0 15 0 0 -10 0
-10 -11 0 -11 0 -29 -31 -29 -32 -20 23 -20 23 -8 -8 -7 -8 13 -4 12 -5 0 -9
0 -9 -35 0 -35 0 0 10 0 10 10 0 10 0 0 20 0 20 15 0 15 0 0 25 0 25 -15 0
-15 0 0 -25 0 -25 -10 0 -10 0 0 -16 0 -15 -14 -15 -15 -14 -40 0 -41 0 0 10
0 10 -40 0 -40 0 0 6 0 6 30 28 30 28 0 11 0 11 10 0 10 0 0 20 0 20 45 0 45
0 0 -10z m-320 -70 l0 -10 -15 0 -15 0 0 10 0 10 15 0 15 0 0 -10z m-84 -25
l15 -15 -16 -16 -16 -16 -7 6 -6 7 14 10 15 11 -12 5 -13 5 0 9 0 9 6 0 5 0
15 -15z m54 -15 l0 -10 14 0 14 0 4 12 5 13 17 -18 18 -18 -21 -18 -21 -18 0
-12 0 -11 -11 0 -12 0 -18 -22 -19 -21 -7 7 -7 7 14 10 15 11 -12 5 -13 5 0
10 0 11 23 20 22 20 -12 4 -13 5 0 9 0 9 10 0 10 0 0 -10z m260 -40 l0 -10 15
0 15 0 0 -15 0 -15 -11 0 -10 0 -15 -14 -14 -15 0 -5 0 -6 20 0 21 0 24 25 25
24 0 11 0 10 10 0 10 0 0 -15 0 -15 10 0 10 0 0 15 0 15 10 0 10 0 0 -15 0
-15 15 0 15 0 0 15 0 15 10 0 10 0 0 -11 0 -10 -14 -15 -15 -14 -9 0 -10 0 -5
13 -4 12 -22 -25 -22 -24 -9 14 -9 14 -19 -22 -19 -22 -22 0 -21 0 0 10 0 10
-19 0 -19 0 -5 -12 -5 -13 -12 15 -12 15 -5 -12 -5 -13 -34 0 -34 0 0 5 0 6
25 24 24 25 11 0 10 0 0 10 0 11 13 14 12 14 38 1 37 0 0 -10z m-320 -25 l0
-15 -10 0 -10 0 0 15 0 15 10 0 10 0 0 -15z m190 5 l0 -11 -35 -34 -34 -35
-16 0 -15 0 0 10 0 10 10 0 10 0 0 20 0 20 10 0 10 0 0 15 0 15 30 0 30 0 0
-10z m-260 -160 l0 -10 -10 0 -10 0 0 10 0 10 10 0 10 0 0 -10z"/>
<path d="M993 1115 l-13 -14 0 -11 0 -10 10 0 10 0 0 15 0 15 10 0 10 0 0 10
0 10 -7 0 -8 -1 -12 -14z"/>
<path d="M1071 1024 l-13 -15 7 -7 8 -7 4 13 5 12 14 0 14 0 0 10 0 10 -12 0
-13 -1 -14 -15z"/>
<path d="M610 1070 l0 -10 10 0 10 0 0 10 0 10 -10 0 -10 0 0 -10z"/>
<path d="M681 1024 l-13 -15 7 -7 8 -7 4 13 5 12 14 0 14 0 0 10 0 10 -12 0
-13 -1 -14 -15z"/>
<path d="M423 985 l-13 -14 0 -6 0 -6 14 -15 15 -14 10 0 11 0 0 10 0 10 -15
0 -15 0 0 15 0 15 15 0 15 0 0 10 0 10 -12 0 -13 -1 -12 -14z"/>
<path d="M511 934 l-14 -16 14 -8 13 -9 -24 -22 -25 -22 13 -4 12 -5 0 -10 0
-11 22 -18 21 -19 -6 -7 -7 -6 -20 23 -20 23 -19 -21 -18 -22 -11 0 -10 0 -5
13 -5 12 -11 -15 -10 -14 -21 23 -20 24 -6 -6 -6 -6 38 -37 38 -38 4 12 4 12
9 0 10 0 24 -25 25 -24 0 -6 0 -6 16 -16 16 -16 10 14 10 14 5 -12 5 -13 10 0
9 0 15 14 14 15 0 9 0 10 -12 5 -13 5 14 10 14 10 -16 16 -16 16 -6 0 -6 0
-17 17 -17 16 13 5 12 4 0 10 0 11 -22 18 -21 19 7 7 7 7 10 -14 11 -15 5 13
5 12 9 0 10 0 24 -25 25 -24 0 -11 0 -10 10 0 10 0 0 11 0 11 -31 29 -32 29
23 20 23 20 -6 7 -7 6 -19 -21 -18 -22 -9 0 -10 0 -14 20 -14 20 -6 0 -5 -1
-14 -15z m36 -19 l15 -16 -5 -6 -6 -5 -16 15 -15 16 0 5 0 6 6 0 5 0 16 -15z
m-35 -137 l19 -22 10 14 11 15 5 -12 5 -13 14 0 14 0 0 -10 0 -10 -11 0 -10 0
-15 -14 -14 -15 0 -10 0 -11 -10 0 -10 0 0 11 0 11 -31 29 -30 28 13 15 13 15
4 1 4 0 19 -22z m-82 -8 l0 -10 -10 0 -10 0 0 10 0 10 10 0 10 0 0 -10z m160
-65 l0 -15 -15 0 -15 0 0 15 0 15 15 0 15 0 0 -15z"/>
<path d="M480 775 l0 -6 25 -25 25 -25 16 16 16 16 -6 7 -7 6 -9 -14 -9 -14
-19 22 -19 22 -7 0 -6 0 0 -5z"/>
<path d="M350 680 l0 -10 10 0 10 0 0 10 0 10 -10 0 -10 0 0 -10z"/>
<path d="M890 770 l0 -10 10 0 10 0 0 10 0 10 -10 0 -10 0 0 -10z"/>
<path d="M1000 774 l0 -5 15 -16 16 -15 6 5 5 6 -15 16 -16 15 -5 0 -6 0 0 -6z"/>
<path d="M890 660 l0 -10 10 0 10 0 0 10 0 10 -10 0 -10 0 0 -10z"/>
<path d="M870 600 l0 -10 10 0 10 0 0 10 0 10 -10 0 -10 0 0 -10z"/>
<path d="M980 530 l0 -10 10 0 10 0 0 10 0 10 -10 0 -10 0 0 -10z"/>
<path d="M370 449 l0 -12 -21 -18 -21 -18 36 -36 36 -36 17 16 16 17 -14 9
-14 9 15 9 14 10 -22 19 -22 19 0 12 0 11 -10 0 -10 0 0 -11z m27 -35 l16 -16
-14 -9 -14 -9 15 -9 14 -10 -6 -7 -7 -6 -26 26 -26 26 13 15 13 14 3 1 3 0 16
-16z"/>
<path d="M370 400 l0 -10 10 0 10 0 0 10 0 10 -10 0 -10 0 0 -10z"/>
<path d="M170 290 l0 -10 15 0 15 0 0 10 0 10 -15 0 -15 0 0 -10z"/>
<path d="M511 374 l-14 -16 14 -10 14 -10 -12 -5 -13 -5 0 -9 0 -10 27 -27 27
-26 4 12 4 12 10 0 9 0 15 14 14 15 0 9 0 10 12 4 12 4 -26 27 -27 27 -10 0
-9 0 -6 -12 -6 -13 -6 13 -6 12 -6 0 -7 -1 -14 -15z m33 -16 l6 -13 6 13 6 12
10 0 9 0 17 -17 17 -16 -13 -5 -12 -4 0 -14 0 -14 -14 0 -14 0 -4 -12 -5 -13
-16 17 -17 17 0 9 0 10 13 6 12 6 -12 6 -13 6 0 9 0 9 9 0 9 0 6 -12z"/>
<path d="M553 335 l-13 -14 0 -11 0 -10 10 0 10 0 0 15 0 15 15 0 15 0 0 10 0
10 -12 0 -13 -1 -12 -14z"/>
<path d="M780 315 l0 -15 10 0 10 0 0 15 0 15 -10 0 -10 0 0 -15z"/>
<path d="M870 290 l0 -10 10 0 10 0 0 10 0 10 -10 0 -10 0 0 -10z"/>
<path d="M740 250 l0 -10 10 0 10 0 0 10 0 10 -10 0 -10 0 0 -10z"/>
<path d="M460 230 l0 -10 -11 0 -10 0 -15 -14 -14 -15 0 -10 0 -11 10 0 10 0
0 15 0 15 11 0 10 0 15 14 14 15 0 5 0 6 -10 0 -10 0 0 -10z"/>
<path d="M630 160 l0 -10 10 0 10 0 0 10 0 10 -10 0 -10 0 0 -10z"/>
<path d="M760 160 l0 -10 10 0 10 0 0 10 0 10 -10 0 -10 0 0 -10z"/>
</g>
</svg>
