<?xml version="1.0" standalone="no"?>
<!DOCTYPE svg PUBLIC "-//W3C//DTD SVG 20010904//EN"
 "http://www.w3.org/TR/2001/REC-SVG-20010904/DTD/svg10.dtd">
<svg version="1.0" xmlns="http://www.w3.org/2000/svg"
 width="468pt" height="468pt" viewBox="0 0 468 468"
 preserveAspectRatio="xMidYMid meet">
<metadata>
Created by potrace 1.8, written by Peter Selinger 2001-2007
</metadata>
<g transform="translate(0,468) scale(0.365625,-0.365625)"
fill="#000000" stroke="none">
<path d="M413 1185 l-13 -14 0 -6 0 -5 40 0 40 0 0 -20 0 -20 20 0 20 0 0 -6
0 -7 -22 -18 -21 -19 6 -7 7 -6 20 22 19 23 16 -15 15 -16 0 -15 0 -16 10 0
10 0 0 20 0 20 -10 0 -10 0 0 20 0 20 20 0 20 0 0 10 0 10 -20 0 -20 0 0 -10
0 -10 -16 0 -15 0 -15 14 -14 15 0 15 0 16 20 0 20 0 0 10 0 10 -20 0 -20 0 0
-10 0 -10 -20 0 -20 0 0 10 0 10 -17 0 -18 -1 -12 -14z"/>
<path d="M560 1190 l0 -10 50 0 50 0 0 10 0 10 -50 0 -50 0 0 -10z"/>
<path d="M680 1194 l0 -5 14 -15 15 -14 24 0 25 0 5 13 4 12 9 -8 8 -8 -14
-10 -15 -11 13 -5 12 -5 0 -15 0 -14 16 -16 16 -16 8 14 9 13 8 -8 8 -9 -12
-4 -13 -5 0 -15 0 -16 22 -19 22 -19 -14 -9 -14 -9 23 -21 24 -20 -8 -8 -8 -7
-4 13 -5 12 -9 0 -9 0 0 -30 0 -30 19 0 19 0 5 13 4 12 8 -7 7 -7 -15 -16 -16
-15 -11 0 -11 0 -15 -14 -14 -15 0 -25 0 -26 10 0 10 0 0 -10 0 -10 -20 0 -20
0 0 -10 0 -10 10 0 10 0 0 -30 0 -30 -10 0 -10 0 0 -40 0 -40 -10 0 -10 0 0
-40 0 -40 10 0 10 0 0 -10 0 -10 -20 0 -20 0 0 -9 0 -9 13 -5 12 -5 -15 -11
-14 -10 23 -21 24 -20 -7 -7 -7 -7 -9 13 -8 14 -16 -16 -16 -16 0 -24 0 -25
13 -6 12 -6 -12 -6 -13 -6 0 -29 0 -29 10 0 10 0 0 -20 0 -20 10 0 10 0 0 20
0 20 -10 0 -10 0 0 30 0 30 9 0 9 0 5 -12 5 -13 12 15 12 15 5 -12 5 -13 49 0
49 0 0 10 0 10 50 0 50 0 0 10 0 10 40 0 40 0 0 10 0 10 40 0 40 0 0 10 0 10
26 0 25 0 15 14 14 15 0 31 0 31 -14 15 -15 14 -15 0 -16 0 0 10 0 10 -29 0
-29 0 -6 13 -6 12 -6 -12 -6 -13 -19 0 -19 0 0 10 0 10 -10 0 -10 0 0 -19 0
-19 13 -5 12 -4 -7 -8 -7 -7 -26 26 -27 27 21 18 21 18 0 7 0 6 -20 0 -20 0 0
-16 0 -15 -14 -15 -15 -14 -14 0 -15 0 -5 -12 -4 -13 -9 8 -8 8 14 10 15 11
-12 5 -13 5 0 29 0 29 10 0 10 0 0 19 0 19 -12 5 -13 4 24 22 24 21 -7 7 -7 7
-9 -14 -9 -14 -7 7 -7 7 24 20 23 21 -14 10 -15 9 15 9 14 10 -8 8 -9 8 -4
-12 -5 -13 -14 0 -15 0 -35 -36 -36 -35 23 -20 22 -19 -6 -6 -6 -6 -27 27 -27
27 14 9 14 9 -15 9 -14 10 7 8 8 7 9 -14 8 -14 30 32 30 32 16 0 16 0 0 10 0
10 20 0 20 0 0 6 0 7 -22 18 -21 19 7 7 7 7 9 -13 8 -14 16 16 16 16 0 14 0
15 -12 6 -13 6 13 6 12 6 0 18 0 18 -12 6 -13 6 13 6 12 6 0 19 0 19 -6 0 -7
0 -18 -22 -19 -21 -7 6 -6 7 21 19 22 18 0 12 0 12 -14 15 -15 14 -15 0 -16 0
0 20 0 20 -20 0 -20 0 0 10 0 10 -20 0 -20 0 0 10 0 10 -30 0 -30 0 0 10 0 10
-60 0 -60 0 0 -6z m140 -64 l0 -10 -10 0 -10 0 0 10 0 10 10 0 10 0 0 -10z
m40 -80 l0 -10 20 0 20 0 0 -10 0 -10 -16 0 -15 0 -15 14 -14 15 0 5 0 6 10 0
10 0 0 -10z m40 -60 l0 -10 -10 0 -10 0 0 10 0 10 10 0 10 0 0 -10z m80 -40
l0 -10 -10 0 -10 0 0 10 0 10 10 0 10 0 0 -10z m-40 -40 l0 -10 -10 0 -10 0 0
10 0 10 10 0 10 0 0 -10z m0 -40 l0 -10 -10 0 -10 0 0 10 0 10 10 0 10 0 0
-10z m-53 -45 l15 -16 -5 -6 -6 -5 -16 15 -15 16 0 5 0 6 6 0 5 0 16 -15z m33
-115 l0 -10 -10 0 -10 0 0 10 0 10 10 0 10 0 0 -10z m-80 -40 l0 -10 -10 0
-10 0 0 10 0 10 10 0 10 0 0 -10z m60 -40 l0 -10 -10 0 -10 0 0 10 0 10 10 0
10 0 0 -10z m-60 -20 l0 -10 -10 0 -10 0 0 10 0 10 10 0 10 0 0 -10z m-13 -45
l15 -16 -5 -6 -6 -5 -16 15 -15 16 0 5 0 6 6 0 5 0 16 -15z m73 5 l0 -10 -10
0 -10 0 0 10 0 10 10 0 10 0 0 -10z m-60 -60 l0 -10 -10 0 -10 0 0 10 0 10 10
0 10 0 0 -10z m60 -20 l0 -10 -10 0 -10 0 0 10 0 10 10 0 10 0 0 -10z m247 -5
l15 -16 -5 -6 -6 -5 -16 15 -15 16 0 5 0 6 6 0 5 0 16 -15z m-287 -15 l0 -10
-10 0 -10 0 0 10 0 10 10 0 10 0 0 -10z m180 0 l0 -10 -10 0 -10 0 0 10 0 10
10 0 10 0 0 -10z m60 0 l0 -10 -10 0 -10 0 0 10 0 10 10 0 10 0 0 -10z m-160
-20 l0 -10 -10 0 -10 0 0 10 0 10 10 0 10 0 0 -10z m40 0 l0 -10 -10 0 -10 0
0 10 0 10 10 0 10 0 0 -10z m240 0 l0 -10 -10 0 -10 0 0 10 0 10 10 0 10 0 0
-10z m-340 -20 l0 -10 -10 0 -10 0 0 10 0 10 10 0 10 0 0 -10z m140 0 l0 -10
-10 0 -10 0 0 10 0 10 10 0 10 0 0 -10z m140 4 l0 -5 -15 -16 -16 -15 -5 5 -6
6 13 15 14 15 8 1 7 0 0 -6z m-220 -24 l0 -10 -10 0 -10 0 0 10 0 10 10 0 10
0 0 -10z m160 -10 l0 -20 -10 0 -10 0 0 20 0 20 10 0 10 0 0 -20z m-296 -12
l6 -13 6 13 6 12 9 0 9 0 0 -30 0 -30 -9 0 -9 0 -5 13 -5 12 -11 -15 -10 -14
-8 7 -7 8 14 10 15 11 -12 5 -13 5 0 9 0 9 9 0 9 0 6 -12z m236 2 l0 -10 -10
0 -10 0 0 10 0 10 10 0 10 0 0 -10z m-160 -30 l0 -20 -10 0 -10 0 0 20 0 20
10 0 10 0 0 -20z m60 14 l0 -5 -15 -16 -16 -15 -5 5 -6 6 13 15 14 15 8 1 7 0
0 -6z m40 -4 l0 -10 -10 0 -10 0 0 10 0 10 10 0 10 0 0 -10z"/>
<path d="M313 1125 l-33 -34 0 -16 0 -15 -10 0 -10 0 0 -30 0 -30 -10 0 -10 0
0 -60 0 -60 -10 0 -10 0 0 -60 0 -60 -10 0 -10 0 0 -60 0 -60 -10 0 -10 0 0
-50 0 -50 -10 0 -10 0 0 -40 0 -40 -6 0 -5 0 -16 16 -16 16 14 8 13 9 -6 7 -7
6 -16 -16 -16 -16 25 -25 25 -25 16 0 15 0 0 50 0 50 10 0 10 0 0 50 0 50 10
0 10 0 0 60 0 60 10 0 10 0 0 60 0 60 10 0 10 0 0 60 0 60 10 0 10 0 0 30 0
30 10 0 10 0 0 15 0 16 25 24 24 25 16 0 15 0 0 10 0 10 -17 -1 -18 0 -32 -34z"/>
<path d="M420 1110 l0 -10 10 0 10 0 0 10 0 10 -10 0 -10 0 0 -10z"/>
<path d="M680 1110 l0 -10 10 0 10 0 0 10 0 10 -10 0 -10 0 0 -10z"/>
<path d="M360 1090 l0 -10 10 0 10 0 0 10 0 10 -10 0 -10 0 0 -10z"/>
<path d="M600 1070 l0 -10 10 0 10 0 0 10 0 10 -10 0 -10 0 0 -10z"/>
<path d="M420 1030 l0 -10 10 0 10 0 0 10 0 10 -10 0 -10 0 0 -10z"/>
<path d="M620 1030 l0 -10 10 0 10 0 0 10 0 10 -10 0 -10 0 0 -10z"/>
<path d="M700 1030 l0 -10 10 0 10 0 0 10 0 10 -10 0 -10 0 0 -10z"/>
<path d="M380 990 l0 -10 10 0 10 0 0 10 0 10 -10 0 -10 0 0 -10z"/>
<path d="M680 990 l0 -10 10 0 10 0 0 10 0 10 -10 0 -10 0 0 -10z"/>
<path d="M440 970 l0 -10 10 0 10 0 0 10 0 10 -10 0 -10 0 0 -10z"/>
<path d="M300 950 l0 -10 10 0 10 0 0 -20 0 -20 -10 0 -10 0 0 -30 0 -30 -10
0 -10 0 0 -20 0 -20 -10 0 -10 0 0 -10 0 -10 40 0 40 0 0 10 0 10 -20 0 -20 0
0 10 0 10 10 0 10 0 0 20 0 20 20 0 20 0 0 -19 0 -19 13 -6 12 -6 -12 -6 -13
-6 0 -9 0 -9 30 0 30 0 0 8 0 8 -20 14 -20 14 0 26 0 26 20 14 20 14 0 14 0
13 -14 15 -15 14 -45 0 -46 0 0 -10z m100 -26 l0 -15 -14 -15 -15 -14 -25 0
-26 0 0 10 0 10 10 0 10 0 0 20 0 20 30 0 30 0 0 -16z"/>
<path d="M500 950 l0 -10 20 0 20 0 0 -20 0 -20 -10 0 -10 0 0 -30 0 -30 -10
0 -10 0 0 -20 0 -20 -10 0 -10 0 0 -10 0 -10 40 0 40 0 0 10 0 10 -20 0 -20 0
0 10 0 10 10 0 10 0 0 30 0 30 10 0 10 0 0 30 0 30 20 0 20 0 0 10 0 10 -50 0
-50 0 0 -10z"/>
<path d="M660 950 l0 -10 20 0 20 0 0 -20 0 -20 -10 0 -10 0 0 -30 0 -30 -10
0 -10 0 0 -20 0 -20 -20 0 -20 0 0 -10 0 -10 50 0 50 0 0 10 0 10 -10 0 -10 0
0 30 0 30 25 0 26 0 24 25 25 24 0 11 0 11 -14 15 -15 14 -55 0 -56 0 0 -10z
m120 -26 l0 -15 -14 -15 -15 -14 -25 0 -26 0 0 10 0 10 10 0 10 0 0 20 0 20
30 0 30 0 0 -16z"/>
<path d="M460 890 l0 -10 10 0 10 0 0 10 0 10 -10 0 -10 0 0 -10z"/>
<path d="M560 850 l0 -10 10 0 10 0 0 10 0 10 -10 0 -10 0 0 -10z"/>
<path d="M620 850 l0 -10 10 0 10 0 0 10 0 10 -10 0 -10 0 0 -10z"/>
<path d="M740 830 l0 -10 10 0 10 0 0 10 0 10 -10 0 -10 0 0 -10z"/>
<path d="M440 790 l0 -10 10 0 10 0 0 10 0 10 -10 0 -10 0 0 -10z"/>
<path d="M580 790 l0 -10 10 0 10 0 0 10 0 10 -10 0 -10 0 0 -10z"/>
<path d="M740 790 l0 -10 20 0 20 0 0 10 0 10 -20 0 -20 0 0 -10z"/>
<path d="M500 730 l0 -10 10 0 10 0 0 10 0 10 -10 0 -10 0 0 -10z"/>
<path d="M780 730 l0 -10 10 0 10 0 0 10 0 10 -10 0 -10 0 0 -10z"/>
<path d="M380 710 l0 -10 10 0 10 0 0 10 0 10 -10 0 -10 0 0 -10z"/>
<path d="M660 710 l0 -10 10 0 10 0 0 10 0 10 -10 0 -10 0 0 -10z"/>
<path d="M760 670 l0 -10 10 0 10 0 0 10 0 10 -10 0 -10 0 0 -10z"/>
<path d="M420 650 l0 -10 10 0 10 0 0 10 0 10 -10 0 -10 0 0 -10z"/>
<path d="M700 650 l0 -10 10 0 10 0 0 10 0 10 -10 0 -10 0 0 -10z"/>
<path d="M520 630 l0 -10 10 0 10 0 0 10 0 10 -10 0 -10 0 0 -10z"/>
<path d="M600 630 l0 -10 10 0 10 0 0 10 0 10 -10 0 -10 0 0 -10z"/>
<path d="M260 610 l0 -10 10 0 10 0 0 10 0 10 -10 0 -10 0 0 -10z"/>
<path d="M1091 604 l-13 -15 7 -7 6 -6 10 14 9 15 9 -14 9 -14 17 17 17 17 -6
7 -7 6 -10 -14 -11 -15 -5 13 -5 12 -6 0 -7 -1 -14 -15z"/>
<path d="M1220 611 l0 -9 12 -4 13 -5 -17 -16 -17 -17 -5 0 -6 0 0 20 0 20 -6
0 -5 0 -15 -14 -14 -15 0 -5 0 -6 19 0 19 0 4 -12 4 -12 38 38 38 37 -7 7 -6
6 -10 -14 -11 -15 -5 13 -5 12 -9 0 -9 0 0 -9z"/>
<path d="M0 590 l0 -10 20 0 20 0 0 10 0 10 -20 0 -20 0 0 -10z"/>
<path d="M60 590 l0 -10 10 0 10 0 0 10 0 10 -10 0 -10 0 0 -10z"/>
<path d="M100 591 l0 -9 13 -5 12 -5 -15 -11 -14 -10 8 -8 9 -8 4 13 5 12 19
0 19 0 0 10 0 10 -20 0 -20 0 0 10 0 10 -10 0 -10 0 0 -9z"/>
<path d="M440 590 l0 -10 10 0 10 0 0 10 0 10 -10 0 -10 0 0 -10z"/>
<path d="M960 580 l0 -20 20 0 20 0 0 6 0 5 -14 15 -15 14 -5 0 -6 0 0 -20z"/>
<path d="M340 570 l0 -10 10 0 10 0 0 10 0 10 -10 0 -10 0 0 -10z"/>
<path d="M520 570 l0 -10 10 0 10 0 0 10 0 10 -10 0 -10 0 0 -10z"/>
<path d="M0 550 l0 -10 20 0 20 0 0 10 0 10 -20 0 -20 0 0 -10z"/>
<path d="M660 550 l0 -10 10 0 10 0 0 10 0 10 -10 0 -10 0 0 -10z"/>
<path d="M740 550 l0 -10 10 0 10 0 0 10 0 10 -10 0 -10 0 0 -10z"/>
<path d="M60 530 l0 -10 10 0 10 0 0 10 0 10 -10 0 -10 0 0 -10z"/>
<path d="M20 514 l0 -5 15 -16 16 -15 6 5 5 6 -15 16 -16 15 -5 0 -6 0 0 -6z"/>
<path d="M247 497 l-18 -22 -9 15 -9 14 -8 -7 -7 -8 14 -10 15 -11 -12 -5 -13
-5 0 -19 0 -19 -19 0 -19 0 -5 -12 -4 -13 -30 33 -31 32 -16 0 -16 0 0 -10 0
-10 20 0 20 0 0 -20 0 -20 -16 0 -17 0 -18 22 -19 21 -7 -6 -6 -7 21 -19 22
-18 0 -12 0 -12 16 -16 16 -16 8 14 9 13 22 -24 22 -25 4 13 5 12 9 0 9 0 0
-20 0 -20 10 0 10 0 0 16 0 15 -14 15 -15 14 -21 0 -21 0 -15 14 -14 15 0 5 0
6 20 0 20 0 0 -10 0 -10 20 0 20 0 0 10 0 10 10 0 10 0 0 -20 0 -20 10 0 10 0
0 -20 0 -20 5 0 6 0 34 35 35 34 0 26 0 25 6 0 5 0 17 -17 17 -16 -13 -5 -12
-4 0 -18 0 -18 13 -5 12 -5 -14 -10 -14 -10 17 -17 17 -17 7 6 6 7 -13 9 -14
8 18 19 18 18 5 -13 4 -12 19 0 19 0 0 -10 0 -10 -10 0 -10 0 0 -20 0 -20 10
0 10 0 0 19 0 19 13 6 12 6 -12 6 -13 6 0 19 0 19 8 0 8 0 14 -20 14 -20 18 0
18 0 0 10 0 10 10 0 10 0 0 -20 0 -20 10 0 10 0 0 10 0 10 16 0 17 0 18 -22
19 -21 8 8 7 8 -12 4 -13 5 0 19 0 19 10 0 10 0 0 -10 0 -10 20 0 20 0 0 -10
0 -10 10 0 10 0 0 30 0 30 -10 0 -10 0 0 16 0 15 -15 16 -16 15 -7 -7 -7 -8
13 -4 12 -5 0 -19 0 -19 10 0 10 0 0 -10 0 -10 -16 0 -15 0 -15 14 -14 15 0
15 0 16 -10 0 -10 0 0 -20 0 -20 10 0 10 0 0 -10 0 -10 -40 0 -40 0 0 16 0 15
-14 15 -15 14 -15 0 -16 0 0 -10 0 -10 20 0 20 0 0 -20 0 -20 -10 0 -10 0 0
10 0 10 -16 0 -15 0 -16 16 -16 16 14 8 13 9 -7 8 -8 7 -10 -14 -9 -15 -9 15
-10 14 -7 -7 -7 -7 21 -19 22 -18 0 -7 0 -6 -40 0 -40 0 0 9 0 9 13 6 12 6
-12 6 -13 6 0 18 0 18 13 5 12 4 -9 9 -9 9 -4 -12 -5 -13 -15 0 -14 0 -15 -14
-14 -15 0 -15 0 -16 -16 0 -15 0 -15 14 -14 15 0 15 0 16 9 0 9 0 4 -12 5 -13
18 18 18 19 -14 10 -14 10 13 5 12 5 0 9 0 9 -7 0 -8 0 -18 -23z m13 -27 l0
-10 -10 0 -10 0 0 10 0 10 10 0 10 0 0 -10z m-14 -84 l14 -15 0 -5 0 -6 -20 0
-20 0 0 20 0 20 6 0 5 0 15 -14z m-146 -16 l0 -10 -10 0 -10 0 0 10 0 10 10 0
10 0 0 -10z"/>
<path d="M560 510 l0 -10 10 0 10 0 0 10 0 10 -10 0 -10 0 0 -10z"/>
<path d="M720 510 l0 -10 10 0 10 0 0 10 0 10 -10 0 -10 0 0 -10z"/>
<path d="M500 470 l0 -10 10 0 10 0 0 10 0 10 -10 0 -10 0 0 -10z"/>
<path d="M720 470 l0 -10 10 0 10 0 0 10 0 10 -10 0 -10 0 0 -10z"/>
<path d="M540 400 l0 -20 10 0 10 0 0 20 0 20 -10 0 -10 0 0 -20z"/>
<path d="M0 380 l0 -20 10 0 10 0 0 20 0 20 -10 0 -10 0 0 -20z"/>
<path d="M700 390 l0 -10 10 0 10 0 0 10 0 10 -10 0 -10 0 0 -10z"/>
<path d="M700 340 l0 -20 10 0 10 0 0 20 0 20 -10 0 -10 0 0 -20z"/>
<path d="M280 324 l0 -15 15 -16 16 -15 7 7 7 8 -12 4 -13 5 0 19 0 19 -10 0
-10 0 0 -16z"/>
<path d="M1040 331 l0 -9 13 -5 12 -5 -15 -11 -14 -10 6 -7 7 -6 16 16 16 16
-15 15 -15 15 -5 0 -6 0 0 -9z"/>
<path d="M980 310 l0 -10 10 0 10 0 0 10 0 10 -10 0 -10 0 0 -10z"/>
<path d="M120 290 l0 -10 10 0 10 0 0 -20 0 -20 10 0 10 0 0 16 0 15 -14 15
-15 14 -5 0 -6 0 0 -10z"/>
<path d="M480 290 l0 -10 10 0 10 0 0 10 0 10 -10 0 -10 0 0 -10z"/>
<path d="M560 290 l0 -10 10 0 10 0 0 10 0 10 -10 0 -10 0 0 -10z"/>
<path d="M660 295 l0 -6 25 -24 24 -25 6 0 5 0 0 20 0 20 -20 0 -20 0 0 10 0
10 -10 0 -10 0 0 -5z"/>
<path d="M800 270 l0 -30 10 0 10 0 0 30 0 30 -10 0 -10 0 0 -30z"/>
<path d="M240 274 l0 -5 15 -16 16 -15 6 5 5 6 -15 16 -16 15 -5 0 -6 0 0 -6z"/>
<path d="M440 261 l0 -19 -12 -5 -13 -4 7 -8 7 -7 16 15 15 16 0 15 0 16 -10
0 -10 0 0 -19z"/>
<path d="M513 265 l-13 -14 0 -16 0 -15 10 0 10 0 0 20 0 20 10 0 10 0 0 10 0
10 -7 0 -8 -1 -12 -14z"/>
<path d="M600 270 l0 -10 10 0 10 0 0 10 0 10 -10 0 -10 0 0 -10z"/>
<path d="M953 265 l-13 -14 0 -16 0 -15 10 0 10 0 0 20 0 20 10 0 10 0 0 10 0
10 -7 0 -8 -1 -12 -14z"/>
<path d="M340 250 l0 -10 10 0 10 0 0 10 0 10 -10 0 -10 0 0 -10z"/>
<path d="M860 230 l0 -10 10 0 10 0 0 10 0 10 -10 0 -10 0 0 -10z"/>
<path d="M0 100 l0 -100 640 0 640 0 0 100 0 100 -640 0 -640 0 0 -100z"/>
</g>
</svg>
