<?xml version="1.0" standalone="no"?>
<!DOCTYPE svg PUBLIC "-//W3C//DTD SVG 20010904//EN"
 "http://www.w3.org/TR/2001/REC-SVG-20010904/DTD/svg10.dtd">
<svg version="1.0" xmlns="http://www.w3.org/2000/svg"
 width="468pt" height="468pt" viewBox="0 0 468 468"
 preserveAspectRatio="xMidYMid meet">
<metadata>
Created by potrace 1.8, written by Peter Selinger 2001-2007
</metadata>
<g transform="translate(0,468) scale(0.365625,-0.365625)"
fill="#000000" stroke="none">
<path d="M822 1255 l-24 -24 7 -11 6 -10 -12 -40 -12 -40 -8 0 -8 0 -6 -18 -5
-19 -197 -6 -196 -5 -6 -10 -6 -10 -67 -7 -68 -7 0 -9 0 -9 -24 0 -25 0 -13
-14 -14 -13 -22 -7 -22 -7 0 -10 0 -9 -13 0 -13 0 -34 -32 -35 -31 0 -79 0
-79 17 -10 18 -10 0 -14 0 -15 15 0 15 0 0 -9 0 -9 30 -7 30 -7 0 -8 0 -9 38
-6 37 -6 27 -5 28 -6 0 -8 0 -8 -30 -7 -30 -7 0 -8 0 -9 -18 -5 -17 -5 39 4
39 4 6 10 6 9 28 7 27 7 0 9 0 9 40 0 40 0 0 -9 0 -10 18 -3 17 -4 -22 -19
-23 -19 0 -13 0 -13 -190 0 -190 0 0 -270 0 -270 640 0 640 0 0 270 0 270
-356 0 -356 0 7 28 6 27 10 3 9 4 0 13 0 13 48 6 47 6 68 6 67 6 0 8 0 8 30 7
30 7 0 8 0 8 30 7 30 7 0 19 0 19 -19 19 -18 18 -36 7 -36 7 -7 10 -6 11 22
20 23 21 73 5 74 5 0 8 0 9 19 0 18 0 27 25 26 24 0 11 0 11 -15 15 -14 15 5
14 6 15 14 0 14 0 0 18 0 17 -8 -11 -7 -11 -25 -8 -25 -8 -8 -11 -9 -11 -4 12
-5 12 -35 7 -34 6 0 9 0 9 -15 0 -15 0 0 -9 0 -9 32 -7 32 -7 14 -14 13 -14
-15 0 -16 0 0 -9 0 -8 -45 -13 -45 -13 0 -8 0 -7 -30 -7 -30 -7 0 -8 0 -8 -25
-6 -25 -6 0 -10 0 -10 -10 0 -10 0 0 10 0 10 18 21 17 22 19 16 18 16 64 64
64 64 0 7 0 7 24 13 25 13 5 12 4 12 -8 12 -7 13 -60 -61 -61 -61 -26 0 -26 0
0 10 0 10 -20 0 -20 0 0 14 0 15 14 13 13 14 8 24 8 25 23 22 24 22 0 11 0 10
-10 0 -10 0 0 15 0 15 -12 0 -13 0 -23 -25z m42 0 l5 -14 -15 -15 -15 -15 -14
5 -15 6 0 4 0 4 18 19 17 19 6 1 7 1 6 -15z m-131 -187 l4 -13 -5 -17 -4 -18
-8 0 -8 0 -7 -30 -7 -30 -8 0 -8 0 -7 -29 -6 -29 -38 -5 -39 -5 -21 -21 -21
-21 22 -22 22 -22 69 0 70 -1 4 13 5 12 14 0 14 0 17 20 17 20 13 0 13 0 0 9
0 9 30 7 30 7 0 8 0 8 30 7 30 7 0 8 0 9 40 12 40 12 0 9 0 8 11 0 10 0 15
-14 14 -15 0 -10 0 -11 -22 -22 -23 -23 -67 -3 -68 -4 0 -8 0 -7 -30 -7 -30
-6 -23 -20 -22 -21 19 -15 20 -14 13 0 13 0 0 -10 0 -10 13 0 13 0 17 -20 17
-20 -15 0 -15 0 0 -9 0 -10 -22 -7 -23 -7 -6 -9 -7 -10 -48 -6 -49 -5 -5 -7
-5 -7 -127 -12 -128 -11 -146 10 -146 11 -15 14 -14 15 -15 0 -14 0 0 10 0 10
-14 0 -14 0 -31 31 -31 31 0 14 0 14 -10 0 -10 0 0 40 0 40 9 0 10 0 7 22 6
21 31 29 31 28 9 0 8 0 14 13 14 12 15 12 14 12 54 7 53 7 5 8 6 9 87 6 87 7
0 8 0 9 129 0 129 0 5 -12z m135 -22 l5 -6 -71 -70 -70 -70 -11 0 -11 0 0 15
0 15 9 0 9 0 7 30 7 30 8 0 8 0 7 27 7 28 11 8 12 8 34 -5 33 -5 6 -5z m-224
-181 l-6 -25 11 0 12 0 24 26 25 27 0 -12 0 -12 -15 -5 -15 -6 0 -9 0 -9 15 0
15 0 0 -15 0 -15 -40 0 -40 0 0 9 0 9 -25 6 -25 6 0 10 0 10 25 6 25 6 0 9 0
9 10 0 10 0 -6 -25z m-100 -269 l-6 -26 -9 0 -9 0 0 -15 0 -15 -55 0 -55 0 0
4 0 4 31 31 31 31 34 0 34 0 0 12 0 11 5 -5 6 -6 -7 -26z"/>
<path d="M511 1043 l-11 -18 -10 15 -10 15 5 -39 4 -39 6 -6 6 -5 9 14 10 15
0 -17 0 -17 21 -6 21 -7 5 6 5 5 -16 16 -16 16 0 4 0 4 21 20 21 20 -5 13 -5
13 -1 -17 -1 -18 -9 0 -9 0 -6 15 -5 15 -10 0 -10 0 -10 -17z m33 -9 l6 -15
-12 7 -11 7 -13 -18 -14 -19 -6 6 -6 6 19 20 18 20 6 1 7 1 6 -16z"/>
<path d="M360 1040 l0 -10 10 0 10 0 0 10 0 10 -10 0 -10 0 0 -10z"/>
<path d="M386 1035 l-6 -15 -24 6 -24 6 -7 -12 -7 -11 -4 -39 -5 -38 18 -6 18
-5 29 4 29 4 6 9 6 8 18 7 17 6 0 15 0 15 -17 10 -18 11 14 9 14 9 16 -6 16
-6 -17 17 -17 17 -9 0 -10 0 -6 -25 -6 -25 -10 0 -10 0 0 15 0 15 10 0 10 0 0
10 0 10 -9 0 -9 0 -6 -15z m-23 -57 l5 -13 9 11 8 12 12 -13 13 -14 -28 3 -27
4 -12 1 -13 1 0 10 0 10 14 0 14 0 5 -12z m-13 -38 l0 -10 -10 0 -10 0 0 10 0
10 10 0 10 0 0 -10z"/>
<path d="M604 1035 l5 -14 -15 -15 -15 -15 -17 6 -17 7 18 -18 18 -18 -6 -18
-6 -18 20 -5 20 -5 -5 13 -5 13 38 7 38 8 -12 4 -13 5 0 8 0 9 17 3 17 3 -17
15 -16 15 -15 13 -15 12 -12 0 -11 0 6 -15z m46 -19 l0 -5 -10 -25 -10 -26
-12 0 -13 0 -14 9 -13 9 18 20 19 20 18 1 17 1 0 -4z"/>
<path d="M290 1015 l0 -15 9 0 9 0 6 15 5 15 -14 0 -15 0 0 -15z"/>
<path d="M260 1010 l0 -10 9 0 10 0 3 -20 3 -19 14 8 13 9 -21 21 -21 21 -5 0
-5 0 0 -10z"/>
<path d="M470 981 l0 -9 15 -12 15 -13 4 4 3 4 -19 18 -18 17 0 -9z"/>
<path d="M150 957 l-25 -12 -12 -12 -13 -12 0 -10 0 -11 6 0 7 0 13 18 13 17
30 -34 30 -33 -7 -17 -6 -16 15 15 15 15 7 18 6 17 -13 0 -14 0 -6 26 -7 26 6
6 5 5 0 -11 0 -12 20 -20 20 -20 5 0 5 0 0 15 0 15 -15 0 -15 0 0 10 0 10 17
0 16 0 -5 6 -6 5 -33 4 -34 3 -25 -11z m43 -51 l6 -15 -15 6 -14 5 0 9 0 9 9
0 9 0 5 -14z"/>
<path d="M260 941 l0 -9 13 -5 12 -5 -12 -1 -13 -1 0 -15 0 -15 -15 0 -15 0 0
-10 0 -10 10 0 11 0 20 19 21 19 -7 21 -6 21 -10 0 -9 0 0 -9z"/>
<path d="M450 941 l0 -9 14 -5 15 -6 -6 15 -5 14 -9 0 -9 0 0 -9z"/>
<path d="M432 916 l13 -14 4 3 3 4 -7 10 -6 11 -10 0 -10 0 13 -14z"/>
<path d="M127 908 l-4 -13 5 -17 4 -18 19 0 18 0 -10 30 -11 30 -8 0 -8 0 -5
-12z"/>
<path d="M930 910 l0 -10 10 0 10 0 0 10 0 10 -10 0 -10 0 0 -10z"/>
<path d="M970 910 l0 -10 10 0 10 0 0 10 0 10 -10 0 -10 0 0 -10z"/>
<path d="M100 880 l0 -10 10 0 10 0 0 10 0 10 -10 0 -10 0 0 -10z"/>
<path d="M316 873 l-7 -18 12 12 13 13 -6 5 -6 6 -6 -18z"/>
<path d="M410 863 l-15 -6 -12 -16 -13 -16 -15 19 -15 20 -3 -5 -3 -4 -12 -27
-11 -28 5 -15 6 -15 27 -1 26 -1 23 -2 24 -3 16 16 16 16 -7 -17 -6 -18 14 0
15 0 0 21 0 20 8 -5 9 -5 0 17 0 17 -11 7 -11 8 -12 0 -13 0 1 -17 1 -18 5 13
5 12 9 0 9 0 0 -15 0 -15 -14 0 -15 0 -15 16 -16 15 0 4 0 4 16 15 15 16 -8
-1 -8 -1 -15 -5z m-52 -45 l-4 -12 -12 -4 -12 -4 0 16 0 16 16 0 16 0 -4 -12z
m52 -4 l0 -16 -12 4 -12 4 -4 12 -4 12 16 0 16 0 0 -16z"/>
<path d="M67 846 l-6 -15 15 6 14 5 0 9 0 9 -9 0 -9 0 -5 -14z"/>
<path d="M490 850 l0 -10 10 0 10 0 0 10 0 10 -10 0 -10 0 0 -10z"/>
<path d="M76 824 l-16 -15 0 10 0 11 -15 0 -15 0 0 -8 0 -9 20 -23 20 -23 51
-3 50 -2 14 15 15 14 0 7 0 7 -9 14 -9 14 -45 3 -46 4 -15 -16z m84 -19 l13
-25 -5 -6 -6 -6 -7 21 -6 21 -10 0 -9 0 0 10 0 10 8 0 9 0 13 -25z"/>
<path d="M224 820 l0 -18 13 5 13 5 0 8 0 8 -13 5 -13 5 0 -18z"/>
<path d="M260 820 l0 -10 10 0 10 0 0 10 0 10 -10 0 -10 0 0 -10z"/>
<path d="M260 780 l0 -10 10 0 10 0 0 10 0 10 -10 0 -10 0 0 -10z"/>
<path d="M740 780 l0 -10 10 0 10 0 0 10 0 10 -10 0 -10 0 0 -10z"/>
<path d="M221 753 l-11 -18 -11 15 -11 15 6 -17 5 -18 -14 0 -15 0 0 -5 0 -5
20 -20 20 -20 5 0 5 0 0 14 0 14 -12 5 -13 4 8 9 8 8 10 -14 11 -15 -6 17 -5
17 14 -5 13 -6 6 -13 5 -14 -15 6 -14 5 0 -19 0 -18 39 0 40 0 -12 7 -12 8 14
9 13 9 22 -4 21 -4 -14 6 -13 7 -20 19 -20 20 13 9 14 9 -12 0 -12 0 -11 -17
-10 -18 -10 18 -11 17 -9 0 -9 0 -10 -17z"/>
<path d="M323 750 l4 -15 13 0 13 0 4 15 5 15 -11 -15 -11 -15 -11 15 -11 15
5 -15z"/>
<path d="M469 722 l-4 -12 -34 -5 -34 -4 -8 -12 -7 -12 5 -14 5 -13 9 0 9 0 0
9 0 9 -9 4 -9 3 15 14 14 13 -2 -13 -1 -14 1 -17 1 -17 38 4 37 3 12 1 12 1
-2 28 -2 27 -15 0 -15 0 -6 15 -6 14 -4 -12z m1 -32 l10 15 0 -10 0 -11 -20
-17 -20 -17 0 28 0 27 10 -15 10 -15 10 15z m40 0 l0 -10 -10 0 -10 0 0 10 0
10 10 0 10 0 0 -10z"/>
<path d="M550 725 l0 -5 21 -21 21 -21 5 5 5 5 -21 21 -21 21 -5 0 -5 0 0 -5z"/>
<path d="M580 720 l0 -10 10 0 10 0 0 10 0 10 -10 0 -10 0 0 -10z"/>
<path d="M680 720 l0 -10 10 0 10 0 0 10 0 10 -10 0 -10 0 0 -10z"/>
<path d="M680 690 l0 -10 10 0 10 0 0 10 0 10 -10 0 -10 0 0 -10z"/>
<path d="M1110 1267 l0 -17 -9 0 -9 0 -5 13 -5 12 2 -29 1 -29 12 -4 11 -4 7
31 7 31 -6 6 -6 6 0 -16z"/>
<path d="M1036 1234 l-16 -15 0 -17 0 -17 10 -15 9 -14 6 6 7 7 1 40 2 41 -2
0 -2 0 -15 -16z"/>
<path d="M1060 1206 l0 -16 16 0 16 0 -4 12 -4 12 -12 4 -12 4 0 -16z"/>
<path d="M1220 1103 l0 -14 -15 -5 -15 -6 0 -9 0 -9 20 0 21 0 24 26 25 27 0
3 0 3 -30 -1 -30 -1 0 -14z"/>
<path d="M1175 1085 l-20 -25 -12 0 -13 0 0 -15 0 -15 10 0 10 0 0 10 0 10 15
0 15 0 0 15 0 16 15 5 15 6 0 9 0 9 -7 0 -8 -1 -20 -24z"/>
<path d="M930 980 l0 -10 10 0 10 0 0 10 0 10 -10 0 -10 0 0 -10z"/>
<path d="M840 940 l0 -10 10 0 10 0 0 10 0 10 -10 0 -10 0 0 -10z"/>
</g>
</svg>
