<?xml version="1.0" standalone="no"?>
<!DOCTYPE svg PUBLIC "-//W3C//DTD SVG 20010904//EN"
 "http://www.w3.org/TR/2001/REC-SVG-20010904/DTD/svg10.dtd">
<svg version="1.0" xmlns="http://www.w3.org/2000/svg"
 width="468pt" height="468pt" viewBox="0 0 468 468"
 preserveAspectRatio="xMidYMid meet">
<metadata>
Created by potrace 1.8, written by Peter Selinger 2001-2007
</metadata>
<g transform="translate(0,468) scale(0.365625,-0.365625)"
fill="#000000" stroke="none">
<path d="M0 639 l0 -639 640 0 640 0 -2 638 -3 639 -637 0 -638 1 0 -639z m90
621 l0 -10 -10 0 -10 0 0 10 0 10 10 0 10 0 0 -10z m37 -1 l5 13 9 -13 9 -14
10 15 10 15 1 -15 1 -15 2 -30 1 -30 45 0 45 0 1 30 2 30 1 15 1 15 11 -15 11
-15 5 12 5 13 14 -15 15 -14 13 5 14 5 7 -12 8 -12 1 -21 1 -21 43 -1 43 -2 6
14 5 13 16 -16 17 -16 0 -117 0 -118 -12 5 -13 5 0 9 0 9 13 0 12 0 -15 10
-15 10 15 11 15 11 -15 -5 -15 -4 -1 -14 -2 -14 -1 -13 -1 -13 -16 15 -16 16
-10 -6 -11 -7 -14 19 -14 19 -8 -13 -8 -14 -6 16 -6 15 -20 0 -21 1 -22 0 -23
1 15 10 15 11 -14 5 -13 5 13 10 14 10 -14 5 -13 5 13 9 14 9 -15 10 -15 10
15 1 15 1 30 2 30 1 0 30 0 30 -43 1 -42 2 -7 -11 -6 -10 18 -13 19 -14 -8 -7
-8 -8 -9 18 -10 17 -11 -6 -11 -7 -14 19 -14 19 -8 -14 -9 -13 -5 13 -5 14
-10 -13 -9 -14 -6 16 -6 15 -18 -1 -18 0 -24 6 -24 5 -5 6 -5 5 7 7 7 7 8 -13
9 -13 0 27 0 27 -9 -13 -8 -13 -6 6 -7 6 19 19 18 19 8 -10 9 -11 5 14z m73 1
l0 -10 -10 0 -10 0 0 10 0 10 10 0 10 0 0 -10z m30 5 l0 -5 -21 -21 -21 -21
-5 5 -5 5 19 20 18 20 8 1 7 1 0 -5z m30 0 l0 -4 -36 -36 -36 -36 -5 4 -4 5
33 35 33 35 8 1 7 1 0 -5z m510 -5 l0 -10 -10 0 -10 0 0 10 0 10 10 0 10 0 0
-10z m170 0 l0 -10 -10 0 -10 0 0 10 0 10 10 0 10 0 0 -10z m30 5 l0 -5 -21
-21 -21 -21 -5 5 -5 5 19 20 18 20 8 1 7 1 0 -5z m30 0 l0 -4 -36 -36 -36 -36
-5 4 -4 5 33 35 33 35 8 1 7 1 0 -5z m37 -6 l5 13 10 -13 10 -14 5 14 5 13 9
-13 9 -14 10 15 10 15 1 -15 1 -15 2 -29 1 -29 15 -4 15 -5 -15 11 -15 11 14
9 13 9 -13 6 -14 6 14 6 13 6 -13 9 -13 8 7 7 7 7 6 -6 7 -6 2 -72 3 -71 -7
11 -7 11 -24 5 -23 4 -5 6 -5 5 7 7 7 7 10 -14 11 -15 -5 15 -4 15 -29 2 -29
2 15 -9 14 -9 -7 -7 -7 -8 -14 19 -13 18 -11 -7 -11 -6 -6 11 -7 10 -12 -4
-13 -5 -12 8 -13 7 33 34 34 35 8 -11 9 -10 5 14z m-777 -24 l0 -5 -21 -21
-21 -21 -5 5 -5 5 19 20 18 20 8 1 7 1 0 -5z m144 -11 l6 -16 13 5 14 5 14 -8
13 -9 -8 -8 -9 -8 -5 14 -4 13 -8 -12 -8 -12 -21 21 -21 21 0 5 0 5 9 0 9 0 6
-16z m366 6 l0 -10 -10 0 -10 0 0 10 0 10 10 0 10 0 0 -10z m-510 -30 l0 -10
-10 0 -10 0 0 10 0 10 10 0 10 0 0 -10z m140 0 l0 -10 -10 0 -10 0 0 10 0 10
10 0 10 0 0 -10z m200 0 l0 -10 -10 0 -10 0 0 10 0 10 10 0 10 0 0 -10z m170
0 l0 -10 -10 0 -10 0 0 10 0 10 10 0 10 0 0 -10z m-459 -51 l21 -21 -5 -5 -5
-5 -21 21 -21 21 0 5 0 5 5 0 5 0 21 -21z m30 0 l21 -21 -5 -5 -5 -5 -21 21
-21 21 0 5 0 5 5 0 5 0 21 -21z m19 11 l0 -10 -10 0 -10 0 0 10 0 10 10 0 10
0 0 -10z m370 0 l0 -10 -10 0 -10 0 0 10 0 10 10 0 10 0 0 -10z m510 0 l0 -10
-10 0 -10 0 0 10 0 10 10 0 10 0 0 -10z m-480 -20 l-15 -10 14 -9 14 -9 13 5
12 4 7 -10 6 -11 11 6 11 7 15 -19 14 -19 5 14 5 13 8 -12 8 -13 37 -2 36 -3
6 -6 6 -6 -8 -7 -8 -8 -5 14 -4 13 -9 -13 -9 -14 -10 15 -9 15 2 -30 2 -30 43
-1 42 -2 7 11 6 10 -18 13 -19 14 8 7 8 8 9 -18 10 -17 11 6 11 7 14 -19 14
-19 8 14 9 13 3 -11 4 -11 24 -5 24 -4 6 -7 6 -6 0 -123 0 -124 -6 10 -5 9
-24 5 -23 4 -5 6 -5 5 7 7 7 7 10 -14 11 -15 -5 15 -4 15 -29 2 -29 2 15 -9
14 -9 -7 -7 -7 -8 -14 19 -13 18 -11 -7 -11 -6 -6 11 -7 10 -12 -4 -13 -5 -14
8 -13 9 8 8 9 8 5 -14 4 -13 9 13 9 14 9 -14 9 -14 -2 44 -1 44 -30 1 -30 2
-15 1 -15 1 15 10 15 9 -19 14 -19 14 -1 24 -1 24 -44 0 -44 0 -4 -15 -5 -15
11 15 11 15 9 -14 9 -13 4 13 4 13 23 -23 23 -23 -7 -6 -7 -7 -9 17 -10 18
-30 -4 -29 -3 -11 16 -10 16 -6 -14 -5 -13 -8 12 -7 11 -19 4 -19 3 -10 1 -10
1 15 11 15 11 -14 5 -13 5 13 10 14 10 -14 5 -13 5 13 10 14 10 -11 4 -12 5
22 24 21 25 10 0 10 0 -15 -10z m-30 -10 l0 -10 -10 0 -10 0 0 10 0 10 10 0
10 0 0 -10z m-470 -40 l0 -10 -10 0 -10 0 0 10 0 10 10 0 10 0 0 -10z m340 0
l0 -10 -10 0 -10 0 0 10 0 10 10 0 10 0 0 -10z m-510 -30 l0 -10 -10 0 -10 0
0 10 0 10 10 0 10 0 0 -10z m170 0 l0 -10 -10 0 -10 0 0 10 0 10 10 0 10 0 0
-10z m340 0 l0 -10 -10 0 -10 0 0 10 0 10 10 0 10 0 0 -10z m398 -24 l5 -6 -8
-7 -8 -8 -5 14 -4 13 -10 -13 -10 -14 -5 14 -5 13 -9 -13 -8 -13 -8 7 -7 8 13
8 12 8 26 -3 25 -2 6 -6z m-908 -6 l0 -10 -10 0 -10 0 0 10 0 10 10 0 10 0 0
-10z m170 0 l0 -10 -10 0 -10 0 0 10 0 10 10 0 10 0 0 -10z m340 0 l0 -10 -10
0 -10 0 0 10 0 10 10 0 10 0 0 -10z m-470 -40 l0 -10 -10 0 -10 0 0 10 0 10
10 0 10 0 0 -10z m770 0 l0 -10 -10 0 -10 0 0 10 0 10 10 0 10 0 0 -10z m340
0 l0 -10 -10 0 -10 0 0 10 0 10 10 0 10 0 0 -10z m-1110 -29 l0 -9 -16 -6 -16
-6 4 -12 5 -13 29 -2 29 -2 -15 9 -14 9 8 8 8 8 9 -18 10 -17 10 6 10 6 14
-12 14 -12 9 5 8 6 14 -9 14 -9 -8 -8 -9 -8 -5 14 -4 13 -9 -13 -8 -14 -14 19
-14 19 -10 -6 -11 -7 2 -42 1 -43 45 0 45 0 1 30 2 30 1 15 1 15 11 -15 11
-15 5 12 5 13 14 -15 15 -14 13 5 14 5 7 -12 8 -12 1 -21 1 -21 43 -1 43 -2 6
14 5 13 16 -16 17 -16 0 -117 0 -118 -12 5 -13 5 0 9 0 9 13 0 12 0 -15 10
-15 10 15 11 15 11 -15 -5 -15 -4 -1 -14 -2 -14 -1 -13 -1 -13 -16 15 -16 16
-10 -6 -11 -7 -14 19 -14 19 -8 -13 -8 -14 -6 16 -6 15 -18 1 -18 0 -25 1 -25
0 15 10 15 11 -14 5 -13 5 13 10 14 10 -14 5 -13 5 13 9 14 9 -15 10 -15 10
15 1 15 1 30 2 30 1 0 30 0 30 -43 1 -42 2 -7 -11 -6 -10 18 -13 19 -14 -8 -7
-8 -8 -9 18 -10 17 -11 -6 -11 -7 -15 19 -14 19 -5 -14 -5 -13 -9 13 -9 14 -9
-13 -8 -14 -6 16 -6 15 -18 -1 -18 0 -24 6 -24 5 -5 6 -5 5 7 7 7 7 8 -12 8
-13 0 41 0 42 -14 5 -15 6 14 8 13 9 -15 11 -15 11 18 -6 18 -6 5 15 6 15 9 0
9 0 0 -9z m1110 -1 l0 -10 -10 0 -10 0 0 10 0 10 10 0 10 0 0 -10z m-1110 -30
l0 -10 -10 0 -10 0 0 10 0 10 10 0 10 0 0 -10z m770 0 l0 -10 -10 0 -10 0 0
10 0 10 10 0 10 0 0 -10z m340 0 l0 -10 -10 0 -10 0 0 10 0 10 10 0 10 0 0
-10z m-1150 -40 l0 -10 -10 0 -10 0 0 10 0 10 10 0 10 0 0 -10z m114 -6 l6
-16 13 5 14 5 14 -8 13 -9 -8 -8 -9 -8 -5 14 -4 13 -8 -12 -8 -12 -21 21 -21
21 0 5 0 5 9 0 9 0 6 -16z m566 6 l0 -10 -10 0 -10 0 0 10 0 10 10 0 10 0 0
-10z m170 0 l0 -10 -10 0 -10 0 0 10 0 10 10 0 10 0 0 -10z m30 5 l0 -5 -21
-21 -21 -21 -5 5 -5 5 19 20 18 20 8 1 7 1 0 -5z m30 -4 l0 -9 -15 -6 -15 -5
0 -13 0 -13 10 15 9 14 8 -7 7 -8 -14 -9 -14 -9 -10 6 -9 6 -13 -18 -14 -19
-6 6 -5 6 33 35 33 35 8 1 7 1 0 -9z m-910 -31 l0 -10 -10 0 -10 0 0 10 0 10
10 0 10 0 0 -10z m114 -6 l6 -16 13 5 14 5 14 -8 13 -9 -8 -8 -9 -8 -5 14 -4
13 -8 -12 -8 -12 -21 21 -21 21 0 5 0 5 9 0 9 0 6 -16z m200 0 l6 -16 13 5 14
5 14 -8 13 -9 -8 -8 -9 -8 -5 14 -4 13 -8 -12 -8 -12 -21 21 -21 21 0 5 0 5 9
0 9 0 6 -16z m366 6 l0 -10 -10 0 -10 0 0 10 0 10 10 0 10 0 0 -10z m-570 -30
l0 -10 -10 0 -10 0 0 10 0 10 10 0 10 0 0 -10z m200 0 l0 -10 -10 0 -10 0 0
10 0 10 10 0 10 0 0 -10z m200 0 l0 -10 -10 0 -10 0 0 10 0 10 10 0 10 0 0
-10z m170 0 l0 -10 -10 0 -10 0 0 10 0 10 10 0 10 0 0 -10z m-459 -51 l21 -21
-5 -5 -5 -5 -21 21 -21 21 0 5 0 5 5 0 5 0 21 -21z m30 0 l21 -21 -5 -5 -5 -5
-21 21 -21 21 0 5 0 5 5 0 5 0 21 -21z m19 11 l0 -10 -10 0 -10 0 0 10 0 10
10 0 10 0 0 -10z m370 0 l0 -10 -10 0 -10 0 0 10 0 10 10 0 10 0 0 -10z m510
0 l0 -10 -10 0 -10 0 0 10 0 10 10 0 10 0 0 -10z m-480 -20 l-15 -10 14 -9 14
-9 13 5 12 4 7 -10 6 -11 11 6 11 7 15 -19 14 -19 5 14 5 13 8 -12 8 -13 37
-2 36 -3 6 -6 6 -6 -8 -7 -8 -8 -5 14 -4 13 -9 -13 -9 -14 -10 15 -9 15 2 -30
2 -30 43 -1 42 -2 7 11 6 10 -18 13 -19 14 8 7 8 8 9 -18 10 -17 11 6 11 7 14
-19 14 -19 8 14 9 13 3 -11 4 -11 23 -5 22 -4 9 -5 9 -6 -2 -42 -1 -42 -113
-1 -112 -1 12 7 13 8 -19 14 -19 14 -1 24 -1 24 -44 0 -44 0 -4 -15 -5 -15 11
15 11 15 9 -14 9 -13 4 13 4 13 23 -23 23 -23 -7 -6 -7 -7 -9 17 -10 18 -30
-4 -29 -3 -11 16 -10 16 -6 -14 -5 -13 -8 12 -7 11 -19 4 -19 3 -10 1 -10 1
15 11 15 11 -14 5 -13 5 13 10 14 10 -14 5 -13 5 13 10 14 10 -11 4 -12 5 22
24 21 25 10 0 10 0 -15 -10z m-30 -10 l0 -10 -10 0 -10 0 0 10 0 10 10 0 10 0
0 -10z m-470 -40 l0 -10 -10 0 -10 0 0 10 0 10 10 0 10 0 0 -10z m340 0 l0
-10 -10 0 -10 0 0 10 0 10 10 0 10 0 0 -10z m-510 -30 l0 -10 -10 0 -10 0 0
10 0 10 10 0 10 0 0 -10z m170 0 l0 -10 -10 0 -10 0 0 10 0 10 10 0 10 0 0
-10z m340 0 l0 -10 -10 0 -10 0 0 10 0 10 10 0 10 0 0 -10z m398 -24 l5 -6 -8
-7 -8 -8 -5 14 -4 13 -10 -13 -10 -14 -5 14 -5 13 -9 -13 -8 -13 -8 7 -7 8 13
8 12 8 26 -3 25 -2 6 -6z m-908 -6 l0 -10 -10 0 -10 0 0 10 0 10 10 0 10 0 0
-10z m170 0 l0 -10 -10 0 -10 0 0 10 0 10 10 0 10 0 0 -10z m340 0 l0 -10 -10
0 -10 0 0 10 0 10 10 0 10 0 0 -10z m-470 -40 l0 -10 -10 0 -10 0 0 10 0 10
10 0 10 0 0 -10z m770 0 l0 -10 -10 0 -10 0 0 10 0 10 10 0 10 0 0 -10z m340
0 l0 -10 -10 0 -10 0 0 10 0 10 10 0 10 0 0 -10z m-1110 -29 l0 -9 -15 -6 -15
-5 0 -13 0 -13 10 15 10 15 10 -15 10 -15 0 13 0 12 9 0 9 0 5 -12 4 -13 -49
-1 -49 -1 13 9 13 8 -15 11 -15 11 18 -6 18 -6 5 15 6 15 9 0 9 0 0 -9z m1110
-1 l0 -10 -10 0 -10 0 0 10 0 10 10 0 10 0 0 -10z m-340 -30 l0 -10 -10 0 -10
0 0 10 0 10 10 0 10 0 0 -10z m340 0 l0 -10 -10 0 -10 0 0 10 0 10 10 0 10 0
0 -10z"/>
<path d="M106 1221 l3 -24 12 -8 13 -8 8 6 9 5 17 -14 17 -13 -12 15 -12 16 3
24 3 25 -32 0 -32 0 3 -24z m40 -17 l-10 -11 -12 11 -11 10 11 12 10 11 12
-11 11 -10 -11 -12z"/>
<path d="M276 1219 l3 -27 -14 -12 -14 -12 -10 7 -11 6 6 -15 6 -16 7 0 6 0
12 19 12 19 38 -2 38 -1 12 -8 12 -7 -1 -23 -2 -22 -9 -12 -9 -12 -27 3 -27 3
2 -40 2 -39 12 -8 13 -8 13 5 12 4 7 -10 6 -11 11 6 11 7 13 -18 14 -19 7 8 7
7 -13 8 -13 9 28 -1 29 0 -12 -4 -13 -5 0 -8 0 -8 14 -5 15 -6 -5 13 -5 14 22
16 23 16 -8 7 -7 7 -8 -12 -8 -13 0 41 0 42 14 5 15 6 -14 8 -13 9 14 9 13 9
-13 5 -14 5 13 10 14 9 -16 6 -15 6 -6 -8 -5 -9 -37 2 -38 1 -13 9 -13 8 4 12
5 13 -8 14 -9 13 -8 -7 -7 -8 11 -7 11 -7 -13 -12 -14 -12 -5 12 -6 12 -6 -12
-5 -12 -13 11 -13 12 11 12 11 12 7 -11 7 -11 7 7 7 7 -5 6 -6 6 -25 2 -24 3
3 -28z m199 -72 l-1 -33 -6 -9 -6 -10 2 -40 2 -40 -49 1 -48 0 -10 15 -11 14
-4 -12 -5 -12 -14 12 -13 12 12 8 11 7 -11 8 -12 7 13 12 14 12 3 -11 4 -11
28 28 28 28 -10 6 -10 6 13 12 14 12 5 -12 6 -12 6 14 6 13 9 -13 9 -14 11 18
10 17 2 0 3 0 -1 -33z"/>
<path d="M407 1137 l4 -7 -30 -31 -31 -30 -8 5 -8 5 0 -19 0 -18 13 5 13 5 6
-17 7 -17 9 14 10 13 5 -14 5 -13 9 13 9 14 8 -11 7 -12 12 13 12 14 -12 5
-12 4 14 10 13 10 -13 5 -14 5 14 10 15 10 1 19 1 18 -32 0 -32 0 5 -8z m37
-30 l-14 -8 4 -27 3 -27 -35 0 -36 1 -3 11 -4 10 26 24 27 24 11 11 11 11 12
-11 12 -11 -14 -8z"/>
<path d="M401 1093 l-31 -27 0 -11 0 -10 10 15 10 15 8 -11 7 -12 12 13 12 14
-12 4 -12 5 20 16 20 15 -6 1 -7 0 -31 -27z"/>
<path d="M480 1090 l0 -10 10 0 10 0 0 10 0 10 -10 0 -10 0 0 -10z"/>
<path d="M480 1060 l0 -10 10 0 10 0 0 10 0 10 -10 0 -10 0 0 -10z"/>
<path d="M991 1224 l-21 -22 0 -8 0 -9 10 15 10 15 10 -16 9 -15 45 2 46 2 15
-21 15 -21 7 7 7 7 -22 16 -22 15 4 27 3 27 -48 0 -48 0 -20 -21z m46 5 l5 13
9 -13 9 -14 8 11 7 12 11 -12 11 -12 -13 -12 -13 -11 -5 12 -6 12 -6 -14 -6
-13 -9 13 -9 14 -9 -14 -9 -13 -4 13 -5 14 5 13 5 14 9 -14 10 -13 5 14z"/>
<path d="M739 1118 l-1 -3 -1 -51 -2 -51 10 -1 10 -1 28 -4 27 -4 5 7 5 8 37
-2 38 -1 13 -9 13 -8 -5 -14 -5 -14 20 -19 21 -19 -6 -10 -5 -9 27 3 26 3 12
-10 12 -10 -2 -43 -2 -42 43 2 43 2 15 -21 15 -21 7 8 7 7 -14 9 -15 10 15 0
15 0 -15 10 -15 10 14 9 13 9 -13 5 -14 5 14 10 13 10 -13 5 -14 5 13 10 14 9
-15 6 -14 5 0 42 0 41 8 -13 8 -12 7 7 7 7 -5 5 -5 6 -24 5 -24 5 -18 2 -18 2
-9 15 -9 15 -16 -21 -15 -22 -37 2 -38 1 -13 9 -13 8 5 14 5 13 -15 16 -16 15
-10 -6 -11 -7 -13 18 -14 19 -6 -6 -6 -6 22 -22 22 -22 7 10 6 10 11 -12 11
-12 -13 -12 -13 -11 -5 12 -4 12 -10 -14 -10 -13 -5 13 -5 14 -11 -15 -10 -15
3 30 3 30 -9 18 -9 18 -12 -4 -12 -4 -17 9 -18 9 -1 -3z m31 -29 l0 -9 -12 0
-13 0 15 -10 15 -10 -11 -7 -12 -8 12 -11 12 -11 12 13 11 13 -12 5 -12 6 14
6 13 6 -13 9 -13 8 7 7 7 7 6 -6 7 -6 1 -39 2 -39 -24 3 -24 2 -5 6 -6 5 -1
40 -2 39 13 -5 13 -5 0 -9z m275 -80 l7 -10 14 5 13 5 14 -14 14 -14 -3 -27
-3 -28 7 -10 6 -10 1 -48 0 -49 -14 18 -13 18 -5 -14 -5 -13 -10 13 -10 14 -4
-12 -5 -12 -14 12 -13 12 12 8 11 7 -14 9 -13 9 12 4 13 4 -28 29 -29 28 -4
-11 -4 -12 -27 27 -28 28 11 11 11 12 8 -12 7 -11 9 14 9 13 5 -13 5 -14 17
23 16 22 9 0 9 0 6 -11z"/>
<path d="M1010 990 l-10 -20 -29 4 -29 3 5 -13 5 -14 12 -1 11 -1 10 -2 10 -1
27 -26 27 -25 -3 -25 -3 -24 31 0 31 0 0 33 -1 34 -15 9 -14 9 14 9 13 9 -13
5 -14 5 11 9 12 8 -13 12 -14 12 -5 -12 -5 -12 -11 18 -11 17 -9 0 -9 0 -11
-20z m34 -6 l6 -16 14 5 13 5 -3 -29 -4 -30 16 -6 16 -6 -14 -8 -13 -9 11 -7
12 -8 -12 -11 -12 -11 -12 14 -13 13 11 0 10 0 0 8 0 9 -23 12 -23 12 -12 20
-12 19 12 20 13 20 6 0 7 0 6 -16z"/>
<path d="M1014 969 l-6 -11 31 -29 32 -29 7 0 7 1 -20 15 -20 16 12 5 12 4
-17 20 -16 19 -8 0 -7 0 -7 -11z m29 -13 l6 -15 -15 6 -14 5 0 9 0 9 9 0 9 0
5 -14z"/>
<path d="M820 1061 l0 -9 14 -5 15 -6 -6 15 -5 14 -9 0 -9 0 0 -9z"/>
<path d="M1120 960 l0 -10 10 0 10 0 0 10 0 10 -10 0 -10 0 0 -10z"/>
<path d="M1120 930 l0 -10 10 0 10 0 0 10 0 10 -10 0 -10 0 0 -10z"/>
<path d="M97 910 l12 -16 -3 -27 -3 -28 14 -15 15 -14 9 6 10 6 17 -14 17 -13
-11 15 -12 15 2 41 2 41 -25 -3 -25 -3 -16 12 -15 12 12 -15z m49 -43 l-11 -9
12 -4 12 -5 -11 -13 -12 -13 -12 11 -12 11 12 8 11 9 -12 4 -12 5 11 13 12 13
12 -11 12 -11 -12 -8z"/>
<path d="M276 849 l3 -27 -14 -12 -14 -12 -10 7 -11 6 6 -15 6 -16 7 0 6 0 12
19 12 19 38 -2 38 -1 12 -8 12 -7 -1 -23 -2 -22 -9 -12 -9 -12 -27 3 -27 3 2
-40 2 -39 12 -8 13 -8 13 5 12 4 7 -10 6 -11 11 6 11 7 13 -18 14 -19 7 8 7 7
-13 8 -13 9 28 -1 29 0 -12 -4 -13 -5 0 -8 0 -8 14 -5 15 -6 -5 13 -5 14 22
16 23 16 -8 7 -7 7 -8 -12 -8 -13 0 41 0 42 14 5 15 6 -14 8 -13 9 14 9 13 9
-13 5 -14 5 13 10 14 9 -16 6 -15 6 -6 -8 -5 -9 -37 2 -38 1 -13 9 -13 8 4 12
5 13 -8 14 -9 13 -8 -7 -7 -8 11 -7 11 -7 -13 -12 -14 -12 -5 12 -6 12 -6 -12
-5 -12 -13 11 -13 12 11 12 11 12 7 -11 7 -11 7 7 7 7 -5 6 -6 6 -25 2 -24 3
3 -28z m199 -72 l-1 -33 -6 -9 -6 -10 2 -40 2 -40 -49 1 -48 0 -10 15 -11 14
-4 -12 -5 -12 -14 12 -13 12 12 8 11 7 -11 8 -12 7 13 12 14 12 3 -11 4 -11
28 28 28 28 -10 6 -10 6 13 12 14 12 5 -12 6 -12 6 14 6 13 9 -13 9 -14 11 18
10 17 2 0 3 0 -1 -33z"/>
<path d="M407 767 l4 -7 -30 -31 -31 -30 -8 5 -8 5 0 -19 0 -18 13 5 13 5 6
-17 7 -17 9 14 10 13 5 -14 5 -13 9 13 9 14 8 -11 7 -12 12 13 12 14 -12 5
-12 4 14 10 13 10 -13 5 -14 5 14 10 15 10 1 19 1 18 -32 0 -32 0 5 -8z m37
-30 l-14 -8 4 -27 3 -27 -35 0 -36 1 -3 11 -4 10 26 24 27 24 11 11 11 11 12
-11 12 -11 -14 -8z"/>
<path d="M401 723 l-31 -27 0 -11 0 -10 10 15 10 15 8 -11 7 -12 12 13 12 14
-12 4 -12 5 20 16 20 15 -6 1 -7 0 -31 -27z"/>
<path d="M480 720 l0 -10 10 0 10 0 0 10 0 10 -10 0 -10 0 0 -10z"/>
<path d="M480 690 l0 -10 10 0 10 0 0 10 0 10 -10 0 -10 0 0 -10z"/>
<path d="M739 748 l-1 -3 -1 -51 -2 -51 10 -1 10 -1 28 -4 27 -4 5 7 5 8 37
-2 38 -1 13 -9 13 -8 -5 -13 -5 -13 25 -27 25 -27 6 5 5 6 -25 23 -25 23 13
12 14 12 5 -12 4 -12 10 14 10 13 5 -13 5 -14 11 15 10 14 -1 -29 -1 -30 2
-15 1 -15 10 15 10 15 9 -14 9 -13 5 13 5 14 10 -14 10 -13 5 13 5 14 11 -15
11 -15 1 15 2 15 -1 30 -1 29 9 -14 9 -14 7 7 7 7 -5 5 -5 6 -24 5 -24 5 -18
2 -18 2 -9 15 -9 15 -16 -21 -15 -22 -37 2 -38 1 -13 9 -13 8 5 14 5 13 -15
16 -16 15 -10 -6 -11 -7 -13 18 -14 19 -6 -6 -6 -6 22 -22 22 -22 7 10 6 10
11 -12 11 -12 -13 -12 -13 -11 -5 12 -4 12 -10 -14 -10 -13 -5 13 -5 14 -11
-15 -10 -15 3 30 3 30 -9 18 -9 18 -12 -4 -12 -4 -17 9 -18 9 -1 -3z m31 -29
l0 -9 -12 0 -13 0 15 -10 15 -10 -11 -7 -12 -8 12 -11 12 -11 12 13 11 13 -12
5 -12 6 14 6 13 6 -13 9 -13 8 7 7 7 7 6 -6 7 -6 1 -39 2 -39 -24 3 -24 2 -5
6 -6 5 -1 40 -2 39 13 -5 13 -5 0 -9z m275 -80 l7 -10 12 4 13 5 12 -7 12 -8
3 -24 3 -24 -46 0 -46 0 1 35 2 35 1 3 1 2 9 0 10 0 6 -11z"/>
<path d="M1030 630 l15 -10 -11 -7 -12 -8 13 -12 14 -12 5 12 6 12 6 -12 5
-12 13 11 13 12 -11 12 -11 12 -8 -12 -7 -11 -11 18 -10 17 -12 0 -12 0 15
-10z"/>
<path d="M820 691 l0 -9 14 -5 15 -6 -6 15 -5 14 -9 0 -9 0 0 -9z"/>
<path d="M940 605 l0 -2 26 -28 25 -27 7 7 7 7 -18 9 -17 10 0 12 0 12 10 -15
9 -14 7 7 7 7 -5 6 -6 6 -26 2 -26 3 0 -2z"/>
<path d="M1120 590 l0 -10 10 0 10 0 0 10 0 10 -10 0 -10 0 0 -10z"/>
<path d="M1120 560 l0 -10 10 0 10 0 0 10 0 10 -10 0 -10 0 0 -10z"/>
</g>
</svg>
