<?xml version="1.0" standalone="no"?>
<!DOCTYPE svg PUBLIC "-//W3C//DTD SVG 20010904//EN"
 "http://www.w3.org/TR/2001/REC-SVG-20010904/DTD/svg10.dtd">
<svg version="1.0" xmlns="http://www.w3.org/2000/svg"
 width="468pt" height="468pt" viewBox="0 0 468 468"
 preserveAspectRatio="xMidYMid meet">
<metadata>
Created by potrace 1.8, written by Peter Selinger 2001-2007
</metadata>
<g transform="translate(0,468) scale(0.365625,-0.365625)"
fill="#000000" stroke="none">
<path d="M30 1265 l0 -15 -15 0 -15 0 0 -610 0 -610 15 0 15 0 0 -15 0 -15
610 0 610 0 0 15 0 15 15 0 15 0 0 610 0 610 -15 0 -15 0 0 15 0 15 -610 0
-610 0 0 -15z m850 -185 l0 -10 15 0 15 0 0 -40 0 -40 -15 0 -15 0 0 -15 0
-15 -40 0 -40 0 0 15 0 15 -15 0 -15 0 0 40 0 40 15 0 15 0 0 10 0 10 40 0 40
0 0 -10z m-80 -135 l0 -15 15 0 15 0 0 -50 0 -50 10 0 10 0 0 10 0 10 15 0 15
0 0 15 0 15 15 0 15 0 0 15 0 15 25 0 25 0 0 10 0 10 80 0 80 0 0 15 0 15 15
0 15 0 0 -175 0 -175 -15 0 -15 0 0 -10 0 -10 -25 0 -25 0 0 10 0 10 -15 0
-15 0 0 15 0 15 -15 0 -15 0 0 25 0 25 -10 0 -10 0 0 30 0 30 10 0 10 0 0 -30
0 -30 15 0 15 0 0 -25 0 -25 15 0 15 0 0 -15 0 -15 25 0 25 0 0 150 0 150 -80
0 -80 0 0 -15 0 -15 -25 0 -25 0 0 -15 0 -15 -15 0 -15 0 0 -10 0 -10 -15 0
-15 0 0 -15 0 -15 -10 0 -10 0 0 -15 0 -15 -15 0 -15 0 0 15 0 15 15 0 15 0 0
15 0 15 -15 0 -15 0 0 -15 0 -15 -15 0 -15 0 0 -11 0 -10 -14 -15 -15 -14 -10
0 -11 0 0 -15 0 -15 -15 0 -15 0 0 -11 0 -10 -14 -15 -15 -14 -35 0 -36 0 0
10 0 10 -15 0 -15 0 0 55 0 55 15 0 15 0 0 11 0 10 14 15 15 14 10 0 11 0 0
15 0 15 15 0 15 0 0 11 0 10 14 15 15 14 10 0 11 0 0 15 0 15 40 0 40 0 0 -15z
m0 -185 l0 -10 55 0 55 0 0 -15 0 -15 10 0 10 0 0 -11 0 -10 -14 -15 -15 -14
-90 0 -91 0 0 -15 0 -15 -15 0 -15 0 0 -15 0 -15 -10 0 -10 0 0 -25 0 -25 10
0 10 0 0 -15 0 -15 15 0 15 0 0 -10 0 -10 15 0 15 0 0 -150 0 -150 -15 0 -15
0 0 -10 0 -10 -11 0 -10 0 -15 14 -14 15 0 115 0 116 -15 0 -15 0 0 15 0 15
-15 0 -15 0 0 11 0 10 -14 15 -15 14 -10 0 -11 0 0 15 0 15 -175 0 -175 0 0
-15 0 -15 -25 0 -25 0 0 -10 0 -10 -15 0 -15 0 0 10 0 10 15 0 15 0 0 15 0 15
25 0 25 0 0 15 0 15 160 0 160 0 0 25 0 25 40 0 40 0 0 -15 0 -15 30 0 30 0 0
15 0 15 10 0 10 0 0 15 0 15 15 0 15 0 0 25 0 25 15 0 15 0 0 10 0 11 13 14
12 14 13 1 12 0 0 -10z"/>
</g>
</svg>
