<?xml version="1.0" standalone="no"?>
<!DOCTYPE svg PUBLIC "-//W3C//DTD SVG 20010904//EN"
 "http://www.w3.org/TR/2001/REC-SVG-20010904/DTD/svg10.dtd">
<svg version="1.0" xmlns="http://www.w3.org/2000/svg"
 width="468pt" height="468pt" viewBox="0 0 468 468"
 preserveAspectRatio="xMidYMid meet">
<metadata>
Created by potrace 1.8, written by Peter Selinger 2001-2007
</metadata>
<g transform="translate(0,468) scale(0.365625,-0.365625)"
fill="#000000" stroke="none">
<path d="M370 1200 l0 -30 30 0 30 0 0 30 0 30 -30 0 -30 0 0 -30z"/>
<path d="M480 1200 l0 -30 55 0 55 0 0 30 0 30 -55 0 -55 0 0 -30z"/>
<path d="M690 1200 l0 -30 55 0 55 0 0 30 0 30 -55 0 -55 0 0 -30z"/>
<path d="M270 1145 l0 -25 25 0 25 0 0 25 0 25 -25 0 -25 0 0 -25z"/>
<path d="M910 1145 l0 -25 50 0 50 0 0 -25 0 -25 30 0 30 0 0 -30 0 -30 25 0
25 0 0 30 0 30 -25 0 -25 0 0 25 0 25 -30 0 -30 0 0 25 0 25 -50 0 -50 0 0
-25z"/>
<path d="M160 1095 l0 -25 -25 0 -25 0 0 -30 0 -30 25 0 25 0 0 -25 0 -25 25
0 25 0 0 25 0 25 30 0 30 0 0 30 0 30 -30 0 -30 0 0 25 0 25 -25 0 -25 0 0
-25z m50 -55 l0 -30 -25 0 -25 0 0 30 0 30 25 0 25 0 0 -30z"/>
<path d="M690 1095 l0 -25 30 0 30 0 0 -30 0 -30 25 0 25 0 0 30 0 30 -25 0
-25 0 0 25 0 25 -30 0 -30 0 0 -25z"/>
<path d="M910 960 l0 -50 -30 0 -30 0 0 -30 0 -30 30 0 30 0 0 30 0 30 25 0
25 0 0 50 0 50 -25 0 -25 0 0 -50z"/>
<path d="M50 905 l0 -55 30 0 30 0 0 -25 0 -25 25 0 25 0 0 25 0 25 -25 0 -25
0 0 55 0 55 -30 0 -30 0 0 -55z"/>
<path d="M320 935 l0 -25 25 0 25 0 0 -30 0 -30 30 0 30 0 0 30 0 30 -30 0
-30 0 0 25 0 25 -25 0 -25 0 0 -25z"/>
<path d="M1120 905 l0 -55 -25 0 -25 0 0 -25 0 -25 25 0 25 0 0 25 0 25 25 0
25 0 0 55 0 55 -25 0 -25 0 0 -55z"/>
<path d="M210 775 l0 -25 55 0 55 0 0 25 0 25 -55 0 -55 0 0 -25z"/>
<path d="M370 775 l0 -25 30 0 30 0 0 25 0 25 -30 0 -30 0 0 -25z"/>
<path d="M480 775 l0 -25 25 0 25 0 0 -30 0 -30 -25 0 -25 0 0 -25 0 -25 25 0
25 0 0 25 0 25 30 0 30 0 0 30 0 30 -30 0 -30 0 0 25 0 25 -25 0 -25 0 0 -25z"/>
<path d="M690 775 l0 -25 30 0 30 0 0 25 0 25 -30 0 -30 0 0 -25z"/>
<path d="M800 775 l0 -25 25 0 25 0 0 25 0 25 -25 0 -25 0 0 -25z"/>
<path d="M960 775 l0 -25 25 0 25 0 0 25 0 25 -25 0 -25 0 0 -25z"/>
<path d="M690 665 l0 -25 30 0 30 0 0 25 0 25 -30 0 -30 0 0 -25z"/>
<path d="M480 560 l0 -30 25 0 25 0 0 30 0 30 -25 0 -25 0 0 -30z"/>
<path d="M690 560 l0 -30 30 0 30 0 0 30 0 30 -30 0 -30 0 0 -30z"/>
<path d="M210 185 l0 -25 -25 0 -25 0 0 -55 0 -55 25 0 25 0 0 55 0 55 30 0
30 0 0 25 0 25 -30 0 -30 0 0 -25z"/>
<path d="M960 185 l0 -25 25 0 25 0 0 25 0 25 -25 0 -25 0 0 -25z"/>
<path d="M370 80 l0 -30 30 0 30 0 0 30 0 30 -30 0 -30 0 0 -30z"/>
<path d="M850 80 l0 -30 30 0 30 0 0 30 0 30 -30 0 -30 0 0 -30z"/>
<path d="M1010 80 l0 -30 30 0 30 0 0 30 0 30 -30 0 -30 0 0 -30z"/>
</g>
</svg>
