<?xml version="1.0" standalone="no"?>
<!DOCTYPE svg PUBLIC "-//W3C//DTD SVG 20010904//EN"
 "http://www.w3.org/TR/2001/REC-SVG-20010904/DTD/svg10.dtd">
<svg version="1.0" xmlns="http://www.w3.org/2000/svg"
 width="468pt" height="468pt" viewBox="0 0 468 468"
 preserveAspectRatio="xMidYMid meet">
<metadata>
Created by potrace 1.8, written by Peter Selinger 2001-2007
</metadata>
<g transform="translate(0,468) scale(0.365625,-0.365625)"
fill="#000000" stroke="none">
<path d="M30 1265 l0 -15 -15 0 -15 0 0 -610 0 -610 15 0 15 0 0 -15 0 -15
610 0 610 0 0 15 0 15 15 0 15 0 0 610 0 610 -15 0 -15 0 0 15 0 15 -610 0
-610 0 0 -15z m820 -25 l0 -10 15 0 15 0 0 -15 0 -15 15 0 15 0 0 -11 0 -10
14 -15 15 -14 10 0 11 0 0 -15 0 -15 15 0 15 0 0 -25 0 -25 10 0 10 0 0 -40 0
-40 15 0 15 0 0 -95 0 -95 -15 0 -15 0 0 -40 0 -40 -10 0 -10 0 0 -25 0 -25
-15 0 -15 0 0 -15 0 -15 -15 0 -15 0 0 -11 0 -10 -14 -15 -15 -14 -10 0 -11 0
0 -15 0 -15 -15 0 -15 0 0 -15 0 -15 -10 0 -10 0 0 15 0 15 10 0 10 0 0 15 0
15 15 0 15 0 0 10 0 10 15 0 15 0 0 15 0 15 10 0 10 0 0 15 0 15 15 0 15 0 0
25 0 25 15 0 15 0 0 40 0 40 10 0 10 0 0 25 0 25 -170 0 -170 0 0 15 0 15 -15
0 -15 0 0 15 0 15 15 0 15 0 0 10 0 10 170 0 170 0 0 30 0 30 -10 0 -10 0 0
40 0 40 -15 0 -15 0 0 25 0 25 -15 0 -15 0 0 11 0 10 -14 15 -15 14 -10 0 -11
0 0 15 0 15 -15 0 -15 0 0 15 0 15 -10 0 -10 0 0 10 0 10 10 0 10 0 0 -10z
m-240 -185 l0 -15 15 0 15 0 0 -40 0 -40 -15 0 -15 0 0 -15 0 -15 -40 0 -40 0
0 15 0 15 -10 0 -10 0 0 40 0 40 10 0 10 0 0 15 0 15 40 0 40 0 0 -15z m-130
-135 l0 -10 15 0 15 0 0 -15 0 -15 -15 0 -15 0 0 -15 0 -15 -95 0 -95 0 0 15
0 15 -10 0 -10 0 0 10 0 11 13 14 12 14 93 1 92 0 0 -10z m130 -25 l0 -15 15
0 15 0 0 -120 0 -120 -15 0 -15 0 0 -15 0 -15 -40 0 -40 0 0 15 0 15 -10 0
-10 0 0 120 0 120 10 0 10 0 0 15 0 15 40 0 40 0 0 -15z m-50 -345 l0 -40 -15
0 -15 0 0 -30 0 -30 -10 0 -10 0 0 -25 0 -25 -15 0 -15 0 0 -25 0 -25 -15 0
-15 0 0 -40 0 -40 -10 0 -10 0 0 -30 0 -30 -15 0 -15 0 0 -40 0 -40 -15 0 -15
0 0 -25 0 -25 -10 0 -10 0 0 -15 0 -15 -30 0 -30 0 0 55 0 55 15 0 15 0 0 40
0 40 15 0 15 0 0 40 0 40 10 0 10 0 0 55 0 55 15 0 15 0 0 25 0 25 15 0 15 0
0 25 0 25 10 0 10 0 0 15 0 15 15 0 15 0 0 15 0 15 40 0 40 0 0 -40z m110 25
l0 -15 10 0 10 0 0 -15 0 -15 15 0 15 0 0 -25 0 -25 15 0 15 0 0 -25 0 -25 10
0 10 0 0 -55 0 -55 15 0 15 0 0 -40 0 -40 15 0 15 0 0 -40 0 -40 10 0 10 0 0
-55 0 -55 -25 0 -25 0 0 15 0 15 -15 0 -15 0 0 25 0 25 -10 0 -10 0 0 40 0 40
-15 0 -15 0 0 30 0 30 -15 0 -15 0 0 40 0 40 -10 0 -10 0 0 25 0 25 -15 0 -15
0 0 25 0 25 -15 0 -15 0 0 30 0 30 -10 0 -10 0 0 40 0 40 40 0 40 0 0 -15z"/>
</g>
</svg>
