<?xml version="1.0" standalone="no"?>
<!DOCTYPE svg PUBLIC "-//W3C//DTD SVG 20010904//EN"
 "http://www.w3.org/TR/2001/REC-SVG-20010904/DTD/svg10.dtd">
<svg version="1.0" xmlns="http://www.w3.org/2000/svg"
 width="468pt" height="468pt" viewBox="0 0 468 468"
 preserveAspectRatio="xMidYMid meet">
<metadata>
Created by potrace 1.8, written by Peter Selinger 2001-2007
</metadata>
<g transform="translate(0,468) scale(0.365625,-0.365625)"
fill="#000000" stroke="none">
<path d="M1040 1240 l0 -10 -40 0 -40 0 0 -15 0 -15 -25 0 -25 0 0 -15 0 -15
-40 0 -40 0 0 -10 0 -10 -30 0 -30 0 0 -30 0 -30 -10 0 -10 0 0 15 0 15 -15 0
-15 0 0 -25 0 -25 -15 0 -15 0 0 10 0 10 -10 0 -10 0 0 -40 0 -40 -15 0 -15 0
0 15 0 15 -15 0 -15 0 0 -40 0 -40 -10 0 -10 0 0 15 0 15 -30 0 -30 0 0 -15 0
-15 15 0 15 0 0 -40 0 -40 -15 0 -15 0 0 11 0 10 -14 15 -15 14 -10 0 -11 0 0
-50 0 -50 15 0 15 0 0 -15 0 -15 -15 0 -15 0 0 15 0 15 -11 0 -10 0 -15 14
-14 15 0 10 0 11 -15 0 -15 0 0 -65 0 -65 15 0 15 0 0 -15 0 -15 10 0 10 0 0
-15 0 -15 -10 0 -10 0 0 15 0 15 -30 0 -30 0 0 11 0 10 -14 15 -15 14 -10 0
-11 0 0 15 0 15 -15 0 -15 0 0 -40 0 -40 15 0 15 0 0 -25 0 -25 15 0 15 0 0
-29 0 -29 13 -5 12 -4 -9 -9 -9 -9 -4 13 -5 12 -29 0 -29 0 0 15 0 15 -10 0
-10 0 0 15 0 15 -15 0 -15 0 0 10 0 10 -11 0 -10 0 -15 -14 -14 -15 0 -10 0
-11 10 0 10 0 0 -25 0 -25 15 0 15 0 0 -30 0 -30 11 0 10 0 15 -14 14 -15 0
-10 0 -11 15 0 15 0 0 -15 0 -15 -25 0 -25 0 0 15 0 15 -30 0 -30 0 0 15 0 15
-25 0 -25 0 0 10 0 10 -15 0 -15 0 0 15 0 15 -10 0 -10 0 0 -51 0 -50 14 -15
15 -14 10 0 11 0 0 -30 0 -30 11 0 10 0 15 -14 14 -15 0 -10 0 -11 40 0 40 0
0 -15 0 -15 -10 0 -10 0 0 -10 0 -10 50 0 50 0 0 10 0 10 -10 0 -10 0 0 15 0
15 10 0 10 0 0 15 0 15 30 0 30 0 0 -30 0 -30 10 0 10 0 0 15 0 15 15 0 15 0
0 -15 0 -15 15 0 15 0 0 15 0 15 10 0 10 0 0 -120 0 -120 15 0 15 0 0 -15 0
-15 15 0 15 0 0 30 0 30 -15 0 -15 0 0 10 0 10 15 0 15 0 0 15 0 15 -15 0 -15
0 0 65 0 65 15 0 15 0 0 30 0 30 -15 0 -15 0 0 25 0 25 15 0 15 0 0 25 0 25
10 0 10 0 0 15 0 15 -10 0 -10 0 0 25 0 25 10 0 10 0 0 15 0 15 -10 0 -10 0 0
15 0 15 10 0 10 0 0 25 0 25 15 0 15 0 0 25 0 25 25 0 25 0 0 15 0 15 15 0 15
0 0 -25 0 -25 -25 0 -25 0 0 -15 0 -15 -15 0 -15 0 0 -25 0 -25 14 0 14 0 6
13 6 12 6 -12 6 -13 14 0 14 0 0 -15 0 -15 -25 0 -25 0 0 -15 0 -15 -15 0 -15
0 0 -10 0 -10 -15 0 -15 0 0 -15 0 -15 40 0 40 0 0 -15 0 -15 15 0 15 0 0 -10
0 -10 -15 0 -15 0 0 -15 0 -15 -40 0 -40 0 0 -14 0 -14 -12 -6 -13 -6 13 -6
12 -6 0 -14 0 -14 15 0 15 0 0 15 0 15 40 0 40 0 0 10 0 10 15 0 15 0 0 -25 0
-25 -30 0 -30 0 0 -15 0 -15 15 0 15 0 0 -10 0 -10 -15 0 -15 0 0 -30 0 -30
-10 0 -10 0 0 15 0 15 -15 0 -15 0 0 -25 0 -25 -15 0 -15 0 0 -15 0 -15 15 0
15 0 0 15 0 15 40 0 40 0 0 10 0 10 15 0 15 0 0 15 0 15 25 0 25 0 0 15 0 15
15 0 15 0 0 -30 0 -30 -30 0 -30 0 0 -25 0 -25 -10 0 -10 0 0 -15 0 -15 50 0
50 0 0 30 0 30 26 0 25 0 15 14 14 15 0 10 0 11 15 0 15 0 0 15 0 15 11 0 10
0 15 14 14 15 0 10 0 11 15 0 15 0 0 15 0 15 15 0 15 0 0 25 0 25 10 0 10 0 0
25 0 25 -10 0 -10 0 0 -10 0 -10 -30 0 -30 0 0 -15 0 -15 -10 0 -10 0 0 -15 0
-15 -30 0 -30 0 0 -10 0 -10 -25 0 -25 0 0 -15 0 -15 -25 0 -25 0 0 15 0 15
25 0 25 0 0 10 0 10 15 0 15 0 0 15 0 15 10 0 10 0 0 15 0 15 15 0 15 0 0 10
0 10 15 0 15 0 0 15 0 15 10 0 10 0 0 25 0 25 15 0 15 0 0 30 0 30 -15 0 -15
0 0 -15 0 -15 -10 0 -10 0 0 -15 0 -15 -26 0 -25 0 -15 -14 -14 -15 0 -10 0
-11 -30 0 -30 0 0 -15 0 -15 -10 0 -10 0 0 30 0 30 25 0 25 0 0 10 0 10 15 0
15 0 0 15 0 15 10 0 10 0 0 15 0 15 15 0 15 0 0 10 0 10 15 0 15 0 0 30 0 30
-15 0 -15 0 0 -15 0 -15 -25 0 -25 0 0 -15 0 -15 -29 0 -29 0 -5 -12 -4 -13
-9 9 -9 9 13 4 12 5 0 14 0 14 15 0 15 0 0 15 0 15 25 0 25 0 0 10 0 10 15 0
15 0 0 30 0 30 15 0 15 0 0 10 0 10 -15 0 -15 0 0 -10 0 -10 -25 0 -25 0 0
-15 0 -15 -30 0 -30 0 0 15 0 15 26 0 25 0 15 14 14 15 0 10 0 11 15 0 15 0 0
15 0 15 -25 0 -25 0 0 -15 0 -15 -30 0 -30 0 0 15 0 15 26 0 25 0 15 14 14 15
0 10 0 11 15 0 15 0 0 15 0 15 -15 0 -15 0 0 -15 0 -15 -25 0 -25 0 0 15 0 15
25 0 25 0 0 10 0 10 -10 0 -10 0 0 15 0 15 10 0 10 0 0 25 0 25 15 0 15 0 0
30 0 30 15 0 15 0 0 25 0 25 10 0 10 0 0 25 0 25 15 0 15 0 0 15 0 15 15 0 15
0 0 15 0 15 10 0 10 0 0 10 0 10 -25 0 -25 0 0 -10z m-210 -215 l0 -15 -30 0
-30 0 0 15 0 15 30 0 30 0 0 -15z m0 -50 l0 -15 -55 0 -55 0 0 15 0 15 55 0
55 0 0 -15z m-30 -55 l0 -10 -40 0 -40 0 0 -15 0 -15 -15 0 -15 0 0 25 0 25
55 0 55 0 0 -10z m-30 -51 l0 -10 -14 -15 -15 -14 -25 0 -26 0 0 10 0 10 15 0
15 0 0 15 0 15 25 0 25 0 0 -11z m-100 -29 l0 -10 -15 0 -15 0 0 10 0 10 15 0
15 0 0 -10z m-30 -80 l0 -40 -15 0 -15 0 0 14 0 14 -12 6 -13 6 13 6 12 6 0
14 0 14 15 0 15 0 0 -40z m110 15 l0 -25 -40 0 -40 0 0 10 0 10 10 0 10 0 0
15 0 15 30 0 30 0 0 -25z m-160 -69 l0 -14 13 -6 12 -6 -12 -6 -13 -6 0 -29 0
-29 -15 0 -15 0 0 -50 0 -50 -15 0 -15 0 0 10 0 10 -25 0 -25 0 0 15 0 15 15
0 15 0 0 15 0 15 -15 0 -15 0 0 10 0 10 14 0 14 0 6 -12 6 -13 6 13 6 12 14 0
14 0 0 15 0 15 -15 0 -15 0 0 25 0 25 15 0 15 0 0 15 0 15 15 0 15 0 0 -14z
m160 -81 l0 -15 -15 0 -15 0 0 15 0 15 15 0 15 0 0 -15z m-350 -120 l0 -25 15
0 15 0 0 15 0 15 10 0 10 0 0 -30 0 -30 -25 0 -25 0 0 15 0 15 -15 0 -15 0 0
25 0 25 15 0 15 0 0 -25z m400 15 l0 -10 -15 0 -15 0 0 10 0 10 15 0 15 0 0
-10z m-50 -25 l0 -15 -15 0 -15 0 0 15 0 15 15 0 15 0 0 -15z m-240 -30 l0
-15 25 0 25 0 0 -10 0 -10 -15 0 -15 0 0 -40 0 -40 -10 0 -10 0 0 10 0 10 -15
0 -15 0 0 -10 0 -10 -15 0 -15 0 0 25 0 25 -10 0 -10 0 0 11 0 10 14 15 15 14
10 0 11 0 0 15 0 15 15 0 15 0 0 -15z m-240 -50 l0 -15 10 0 10 0 0 -15 0 -15
-10 0 -10 0 0 15 0 15 -15 0 -15 0 0 15 0 15 15 0 15 0 0 -15z m130 0 l0 -15
15 0 15 0 0 -15 0 -15 -15 0 -15 0 0 15 0 15 -15 0 -15 0 0 15 0 15 15 0 15 0
0 -15z m480 0 l0 -15 -25 0 -25 0 0 15 0 15 25 0 25 0 0 -15z m-80 -30 l0 -15
-15 0 -15 0 0 15 0 15 15 0 15 0 0 -15z m-450 -25 l0 -10 -15 0 -15 0 0 10 0
10 15 0 15 0 0 -10z m420 -80 l0 -10 -10 0 -10 0 0 10 0 10 10 0 10 0 0 -10z
m110 -25 l0 -15 -15 0 -15 0 0 15 0 15 15 0 15 0 0 -15z"/>
<path d="M930 945 l0 -15 15 0 15 0 0 15 0 15 -15 0 -15 0 0 -15z"/>
</g>
</svg>
