<?xml version="1.0" standalone="no"?>
<!DOCTYPE svg PUBLIC "-//W3C//DTD SVG 20010904//EN"
 "http://www.w3.org/TR/2001/REC-SVG-20010904/DTD/svg10.dtd">
<svg version="1.0" xmlns="http://www.w3.org/2000/svg"
 width="468pt" height="468pt" viewBox="0 0 468 468"
 preserveAspectRatio="xMidYMid meet">
<metadata>
Created by potrace 1.8, written by Peter Selinger 2001-2007
</metadata>
<g transform="translate(0,468) scale(0.365625,-0.365625)"
fill="#000000" stroke="none">
<path d="M0 1245 l0 -35 35 0 35 0 0 -145 0 -145 35 0 35 0 0 -35 0 -35 110 0
110 0 0 -35 0 -35 35 0 35 0 0 -70 0 -70 35 0 35 0 0 -35 0 -35 -70 0 -70 0 0
-35 0 -35 -75 0 -75 0 0 -35 0 -35 -35 0 -35 0 0 -35 0 -35 -35 0 -35 0 0 -40
0 -40 -35 0 -35 0 0 -105 0 -105 35 0 35 0 0 -35 0 -35 145 0 145 0 0 35 0 35
-40 0 -40 0 0 35 0 35 -35 0 -35 0 0 35 0 35 35 0 35 0 0 35 0 35 75 0 75 0 0
40 0 40 70 0 70 0 0 35 0 35 70 0 70 0 0 -35 0 -35 70 0 70 0 0 -40 0 -40 75
0 75 0 0 -35 0 -35 35 0 35 0 0 -35 0 -35 -35 0 -35 0 0 -35 0 -35 -40 0 -40
0 0 -35 0 -35 145 0 145 0 0 35 0 35 35 0 35 0 0 105 0 105 -35 0 -35 0 0 40
0 40 -35 0 -35 0 0 35 0 35 -35 0 -35 0 0 35 0 35 -75 0 -75 0 0 35 0 35 -70
0 -70 0 0 35 0 35 35 0 35 0 0 70 0 70 35 0 35 0 0 35 0 35 110 0 110 0 0 35
0 35 35 0 35 0 0 180 0 180 -35 0 -35 0 0 -35 0 -35 -35 0 -35 0 0 35 0 35
-35 0 -35 0 0 -35 0 -35 35 0 35 0 0 -35 0 -35 -35 0 -35 0 0 -35 0 -35 35 0
35 0 0 -35 0 -35 -35 0 -35 0 0 -40 0 -40 -40 0 -40 0 0 40 0 40 -35 0 -35 0
0 35 0 35 -35 0 -35 0 0 35 0 35 35 0 35 0 0 35 0 35 -35 0 -35 0 0 -35 0 -35
-35 0 -35 0 0 35 0 35 -70 0 -70 0 0 -35 0 -35 -35 0 -35 0 0 35 0 35 -35 0
-35 0 0 -35 0 -35 35 0 35 0 0 -35 0 -35 -35 0 -35 0 0 -35 0 -35 -35 0 -35 0
0 -40 0 -40 -40 0 -40 0 0 40 0 40 -35 0 -35 0 0 70 0 70 35 0 35 0 0 35 0 35
-35 0 -35 0 0 35 0 35 -35 0 -35 0 0 -35 0 -35 -35 0 -35 0 0 35 0 35 -35 0
-35 0 0 -35z"/>
</g>
</svg>
