<?xml version="1.0" standalone="no"?>
<!DOCTYPE svg PUBLIC "-//W3C//DTD SVG 20010904//EN"
 "http://www.w3.org/TR/2001/REC-SVG-20010904/DTD/svg10.dtd">
<svg version="1.0" xmlns="http://www.w3.org/2000/svg"
 width="468pt" height="468pt" viewBox="0 0 468 468"
 preserveAspectRatio="xMidYMid meet">
<metadata>
Created by potrace 1.8, written by Peter Selinger 2001-2007
</metadata>
<g transform="translate(0,468) scale(0.365625,-0.365625)"
fill="#000000" stroke="none">
<path d="M0 1230 l0 -50 40 0 40 0 0 -80 0 -80 -40 0 -40 0 0 -100 0 -100 40
0 40 0 0 -80 0 -80 -40 0 -40 0 0 -110 0 -110 40 0 40 0 0 -80 0 -80 -40 0
-40 0 0 -100 0 -100 40 0 40 0 0 -40 0 -40 100 0 100 0 0 40 0 40 80 0 80 0 0
-40 0 -40 110 0 110 0 0 40 0 40 80 0 80 0 0 -40 0 -40 100 0 100 0 0 40 0 40
80 0 80 0 0 -40 0 -40 50 0 50 0 0 50 0 50 -40 0 -40 0 0 80 0 80 40 0 40 0 0
100 0 100 -40 0 -40 0 0 90 0 90 40 0 40 0 0 100 0 100 -40 0 -40 0 0 80 0 80
40 0 40 0 0 100 0 100 -40 0 -40 0 0 40 0 40 -100 0 -100 0 0 -40 0 -40 -80 0
-80 0 0 40 0 40 -100 0 -100 0 0 -40 0 -40 -90 0 -90 0 0 40 0 40 -100 0 -100
0 0 -40 0 -40 -80 0 -80 0 0 40 0 40 -50 0 -50 0 0 -50z m440 -110 l0 -60 -50
0 -50 0 0 -10 0 -10 -40 0 -40 0 0 30 0 30 10 0 10 0 0 40 0 40 80 0 80 0 0
-60z m380 0 l0 -60 -80 0 -80 0 0 60 0 60 80 0 80 0 0 -60z m360 -20 l0 -80
-40 0 -40 0 0 10 0 10 -30 0 -30 0 0 40 0 40 -10 0 -10 0 0 30 0 30 80 0 80 0
0 -80z m-540 -130 l0 -70 -50 0 -50 0 0 -10 0 -10 -60 0 -60 0 0 20 0 20 10 0
10 0 0 40 0 40 10 0 10 0 0 20 0 20 90 0 90 0 0 -70z m280 60 l0 -10 50 0 50
0 0 -50 0 -50 10 0 10 0 0 -40 0 -40 -20 0 -20 0 0 10 0 10 -40 0 -40 0 0 10
0 10 -20 0 -20 0 0 20 0 20 -10 0 -10 0 0 40 0 40 -10 0 -10 0 0 20 0 20 40 0
40 0 0 -10z m-680 -50 l0 -40 -10 0 -10 0 0 -50 0 -50 -60 0 -60 0 0 80 0 80
40 0 40 0 0 10 0 10 30 0 30 0 0 -40z m520 -110 l0 -10 50 0 50 0 0 -50 0 -50
10 0 10 0 0 -50 0 -50 -110 0 -110 0 0 110 0 110 50 0 50 0 0 -10z m-360 -60
l0 -50 -10 0 -10 0 0 -50 0 -50 -70 0 -70 0 0 80 0 80 20 0 20 0 0 10 0 10 40
0 40 0 0 10 0 10 20 0 20 0 0 -50z m780 -70 l0 -80 -60 0 -60 0 0 80 0 80 60
0 60 0 0 -80z m-960 -190 l0 -90 -60 0 -60 0 0 90 0 90 60 0 60 0 0 -90z m420
-30 l0 -120 -50 0 -50 0 0 10 0 10 -60 0 -60 0 0 60 0 60 -10 0 -10 0 0 50 0
50 120 0 120 0 0 -120z m400 30 l0 -90 -20 0 -20 0 0 -10 0 -10 -40 0 -40 0 0
-10 0 -10 -20 0 -20 0 0 50 0 50 10 0 10 0 0 60 0 60 70 0 70 0 0 -90z m-760
-120 l0 -10 40 0 40 0 0 -10 0 -10 20 0 20 0 0 -20 0 -20 10 0 10 0 0 -40 0
-40 10 0 10 0 0 -20 0 -20 -40 0 -40 0 0 10 0 10 -50 0 -50 0 0 40 0 40 -10 0
-10 0 0 50 0 50 20 0 20 0 0 -10z m900 -70 l0 -80 -30 0 -30 0 0 -10 0 -10
-40 0 -40 0 0 40 0 40 10 0 10 0 0 50 0 50 60 0 60 0 0 -80z m-320 20 l0 -20
-10 0 -10 0 0 -40 0 -40 -10 0 -10 0 0 -20 0 -20 -80 0 -80 0 0 70 0 70 50 0
50 0 0 10 0 10 50 0 50 0 0 -20z m-700 -130 l0 -10 40 0 40 0 0 -30 0 -30 10
0 10 0 0 -40 0 -40 -80 0 -80 0 0 80 0 80 30 0 30 0 0 -10z m860 -50 l0 -40
-10 0 -10 0 0 -30 0 -30 -80 0 -80 0 0 60 0 60 40 0 40 0 0 10 0 10 50 0 50 0
0 -40z m-380 -40 l0 -60 -90 0 -90 0 0 60 0 60 90 0 90 0 0 -60z"/>
</g>
</svg>
