<?xml version="1.0" standalone="no"?>
<!DOCTYPE svg PUBLIC "-//W3C//DTD SVG 20010904//EN"
 "http://www.w3.org/TR/2001/REC-SVG-20010904/DTD/svg10.dtd">
<svg version="1.0" xmlns="http://www.w3.org/2000/svg"
 width="468pt" height="468pt" viewBox="0 0 468 468"
 preserveAspectRatio="xMidYMid meet">
<metadata>
Created by potrace 1.8, written by Peter Selinger 2001-2007
</metadata>
<g transform="translate(0,468) scale(0.365625,-0.365625)"
fill="#000000" stroke="none">
<path d="M693 1211 l-10 -29 7 -13 8 -13 7 38 7 37 -4 4 -4 4 -11 -28z"/>
<path d="M472 1190 l0 -25 5 13 5 12 -5 13 -5 12 0 -25z"/>
<path d="M896 1175 l-20 -15 5 -4 4 -4 24 19 23 19 -8 0 -9 -1 -19 -14z"/>
<path d="M225 1149 l-7 -10 3 -4 4 -3 13 14 13 14 -10 0 -10 0 -6 -11z"/>
<path d="M666 1152 l-5 -9 14 0 14 0 -5 9 -5 8 -4 0 -4 0 -5 -8z"/>
<path d="M860 1151 l0 -12 -9 5 -9 6 -25 -20 -25 -20 -10 0 -10 0 -11 -14 -12
-14 15 2 16 2 24 23 25 23 9 -6 10 -6 12 15 13 15 -7 7 -6 6 0 -12z"/>
<path d="M629 1133 l-14 -18 18 14 17 13 0 4 0 4 -4 0 -4 0 -13 -17z"/>
<path d="M631 1106 l-23 -24 11 -6 10 -6 6 10 6 10 -7 0 -7 0 18 20 18 20 -5
0 -5 0 -22 -24z"/>
<path d="M238 1098 l10 -10 18 4 19 4 -28 6 -29 6 10 -10z"/>
<path d="M670 1096 l0 -17 -16 -17 -17 -16 14 -4 14 -5 30 -14 30 -14 -19 15
-19 15 -3 32 -4 32 -5 5 -5 5 0 -17z"/>
<path d="M412 1080 l0 -25 5 13 5 12 -5 13 -5 12 0 -25z"/>
<path d="M582 1070 l-12 -20 0 -5 0 -5 14 0 15 0 6 10 6 10 -8 15 -9 14 -12
-19z"/>
<path d="M1055 1069 l-30 -19 16 0 16 0 18 20 18 20 -4 -1 -4 0 -30 -20z"/>
<path d="M789 1063 l-14 -18 18 14 17 13 0 4 0 4 -4 0 -4 0 -13 -17z"/>
<path d="M701 1054 l1 -19 5 13 5 13 -6 6 -6 6 1 -19z"/>
<path d="M530 1040 l-15 -10 12 0 12 0 6 10 6 10 -3 0 -3 0 -15 -10z"/>
<path d="M148 1033 l13 -5 6 6 6 6 -19 -1 -19 -1 13 -5z"/>
<path d="M957 1021 l-38 -16 7 -7 7 -8 33 21 34 20 9 -5 10 -6 5 8 5 8 -17 1
-17 1 -38 -17z"/>
<path d="M490 1020 l-15 -10 18 0 17 0 0 10 0 10 -2 0 -3 0 -15 -10z"/>
<path d="M710 972 l-25 -24 0 -8 0 -9 -21 -20 -22 -20 -4 5 -5 4 0 -14 0 -14
22 16 21 16 34 43 33 44 -4 2 -4 3 -25 -24z"/>
<path d="M893 984 l-6 -15 -12 4 -12 5 0 -13 0 -14 19 10 18 10 0 10 0 10 12
-7 11 -7 -7 11 -7 12 -5 0 -5 0 -6 -16z"/>
<path d="M410 985 l0 -3 15 -5 14 -6 5 7 5 8 -20 1 -19 2 0 -4z"/>
<path d="M490 980 l-25 -8 20 -1 20 -1 15 10 15 10 -10 -1 -10 -1 -25 -8z"/>
<path d="M386 969 l5 -9 -11 0 -11 0 6 -10 6 -10 -10 0 -11 0 0 -10 0 -10 20
0 19 0 11 19 10 20 0 4 0 5 -20 5 -20 5 6 -9z"/>
<path d="M741 947 l-13 -22 18 17 18 18 -5 4 -5 5 -13 -22z"/>
<path d="M468 929 l4 -29 14 0 14 0 0 24 0 24 -18 4 -18 5 4 -28z"/>
<path d="M815 950 l-6 -10 7 0 7 0 -19 -22 -19 -23 21 18 21 17 0 15 0 15 -3
0 -3 0 -6 -10z"/>
<path d="M922 938 l-12 -12 0 -12 0 -13 10 -6 10 -6 -6 16 -6 15 12 15 12 15
-4 0 -4 0 -12 -12z"/>
<path d="M284 928 l-7 -11 11 7 10 6 5 -12 5 -13 1 18 1 17 -9 0 -10 0 -7 -12z"/>
<path d="M116 901 l-18 -20 7 -10 6 -11 11 0 10 0 -5 20 -5 20 10 6 9 6 24
-22 24 -23 -6 -11 -6 -11 20 18 20 17 9 -7 9 -8 -8 9 -7 9 17 21 18 21 -31
-28 -30 -27 -24 25 -23 25 -7 0 -7 0 -17 -19z"/>
<path d="M699 893 l-24 -28 28 24 27 24 0 4 0 3 -3 0 -4 0 -24 -27z"/>
<path d="M944 879 l-59 -31 -10 -10 -10 -10 32 16 32 16 7 0 6 0 -13 -17 -14
-18 22 19 23 19 -7 10 -6 10 16 -6 17 -6 0 8 0 8 23 11 22 11 -11 0 -11 1 -59
-31z"/>
<path d="M759 883 l-14 -18 18 14 17 13 0 4 0 4 -4 0 -4 0 -13 -17z"/>
<path d="M263 883 l17 -4 0 -22 0 -21 12 12 11 11 -13 16 -12 15 -17 -1 -16
-1 18 -5z"/>
<path d="M571 876 l-12 -14 20 5 21 5 -6 9 -5 9 -3 0 -4 0 -11 -14z"/>
<path d="M360 871 l0 -10 19 -13 18 -13 1 -9 1 -8 25 -13 26 -14 -3 12 -2 12
13 -2 12 -3 0 11 0 11 -37 -6 -38 -7 15 10 15 11 -12 0 -13 0 -20 20 -20 20 0
-9z"/>
<path d="M699 863 l-14 -18 18 14 17 13 0 4 0 4 -4 0 -4 0 -13 -17z"/>
<path d="M224 848 l-19 -23 23 19 22 19 0 4 0 3 -3 0 -4 0 -19 -22z"/>
<path d="M656 849 l5 -8 -18 -28 -17 -28 25 23 26 22 0 14 0 13 -13 0 -13 0 5
-8z"/>
<path d="M144 831 l19 -21 4 0 3 0 0 8 0 7 -22 14 -23 14 19 -22z"/>
<path d="M340 825 l23 -25 5 0 5 0 -23 25 -23 25 -5 0 -5 0 23 -25z"/>
<path d="M495 840 l-20 -9 15 0 15 -1 15 10 15 10 -10 -1 -10 0 -20 -9z"/>
<path d="M616 825 l-20 -15 6 -5 5 -5 18 20 18 20 -4 0 -4 -1 -19 -14z"/>
<path d="M1223 795 l0 -15 14 11 13 11 0 4 0 4 -13 0 -14 0 0 -15z"/>
<path d="M496 784 l-6 -17 15 13 15 12 0 4 0 4 -9 0 -9 0 -6 -16z"/>
<path d="M539 783 l-14 -18 18 14 17 13 0 4 0 4 -4 0 -4 0 -13 -17z"/>
<path d="M1098 793 l12 -5 13 5 12 5 -25 0 -25 0 13 -5z"/>
<path d="M275 780 l-6 -10 -7 4 -7 4 -13 -26 -12 -26 30 29 30 29 0 3 0 3 -4
0 -5 0 -6 -10z"/>
<path d="M318 777 l23 -11 -4 -18 -5 -18 21 1 22 1 -12 5 -13 5 0 13 0 14 -19
11 -20 10 -8 -1 -8 0 23 -12z"/>
<path d="M757 769 l7 -23 4 13 4 13 -10 10 -11 11 6 -24z"/>
<path d="M420 765 l0 -15 4 0 4 0 6 15 5 15 -9 0 -10 0 0 -15z"/>
<path d="M456 765 l-18 -14 21 2 21 1 0 13 0 13 -2 0 -3 -1 -19 -14z"/>
<path d="M585 769 l-7 -10 5 -5 5 -5 5 16 6 15 -4 0 -4 0 -6 -11z"/>
<path d="M1035 770 l-6 -10 16 0 16 0 -6 10 -6 10 -4 0 -4 0 -6 -10z"/>
<path d="M136 755 l-6 -17 0 -6 1 -7 10 18 11 19 -5 4 -5 5 -6 -16z"/>
<path d="M899 760 l-1 -10 -2 -7 -1 -8 -10 -15 -9 -15 17 14 17 13 -7 11 -6
10 16 -6 16 -6 11 15 12 14 -26 0 -26 0 -1 -10z"/>
<path d="M1169 753 l-14 -18 18 14 17 13 0 4 0 4 -4 0 -4 0 -13 -17z"/>
<path d="M425 730 l6 -10 5 0 4 0 0 10 0 10 -11 0 -10 0 6 -10z"/>
<path d="M376 707 l-5 -19 20 18 19 17 0 2 0 2 -14 0 -15 0 -5 -20z"/>
<path d="M454 718 l-6 -9 6 -6 6 -6 0 10 0 10 25 -5 25 -4 0 5 0 5 -25 4 -25
5 -6 -9z"/>
<path d="M1009 703 l-24 -28 28 24 27 24 0 4 0 3 -3 0 -4 0 -24 -27z"/>
<path d="M803 713 l17 -5 13 5 12 5 -30 0 -30 0 18 -5z"/>
<path d="M1090 705 l-25 -14 11 -1 10 0 20 15 19 14 -5 0 -5 0 -25 -14z"/>
<path d="M416 693 l-7 -18 12 12 13 13 -6 5 -6 6 -6 -18z"/>
<path d="M544 693 l3 -17 12 -2 12 -2 -11 5 -11 5 12 14 11 14 -15 0 -15 0 2
-17z"/>
<path d="M899 693 l-14 -18 18 14 17 13 0 4 0 4 -4 0 -4 0 -13 -17z"/>
<path d="M864 685 l-6 -14 7 -11 6 -10 12 0 12 0 -11 8 -11 7 3 18 2 17 -4 0
-5 0 -5 -15z"/>
<path d="M131 674 l1 -19 5 13 5 13 -6 6 -6 6 1 -19z"/>
<path d="M608 683 l13 -5 6 6 6 6 -19 -1 -19 -1 13 -5z"/>
<path d="M969 683 l-1 -8 1 -7 1 -8 -10 0 -10 0 0 -12 0 -12 12 12 12 12 2 15
2 15 -4 0 -4 0 -1 -7z"/>
<path d="M1028 683 l12 -5 13 5 12 5 -25 0 -25 0 13 -5z"/>
<path d="M350 676 l0 -4 20 -5 20 -5 6 9 5 9 -25 0 -26 0 0 -4z"/>
<path d="M670 669 l15 -11 -26 5 -26 4 0 -13 0 -12 19 3 18 4 10 6 10 6 0 10
0 9 -17 0 -18 0 15 -11z"/>
<path d="M410 660 l-15 -10 12 0 12 0 6 10 6 10 -3 0 -3 0 -15 -10z"/>
<path d="M365 650 l-6 -10 16 0 16 0 -6 10 -6 10 -4 0 -4 0 -6 -10z"/>
<path d="M541 630 l-1 -36 16 -22 15 -22 11 0 12 0 -19 13 -18 14 5 26 5 27
-8 0 -8 0 -4 18 -5 17 -1 -35z"/>
<path d="M685 641 l-5 -10 10 -6 10 -6 0 15 0 16 -4 0 -5 0 -6 -9z"/>
<path d="M313 625 l0 -14 9 5 8 5 0 10 0 9 -8 0 -9 0 0 -15z"/>
<path d="M617 616 l-6 -15 14 6 15 5 -6 9 -5 9 -4 0 -3 0 -5 -14z"/>
<path d="M926 603 l-7 -18 12 12 13 13 -6 5 -6 6 -6 -18z"/>
<path d="M422 575 l0 -30 5 18 5 17 -5 13 -5 12 0 -30z"/>
<path d="M698 582 l-6 -22 21 0 22 0 -11 8 -11 7 -5 15 -4 14 -6 -22z"/>
<path d="M520 566 l0 -27 -10 6 -10 6 1 -8 0 -8 8 -20 8 -20 8 43 7 43 -6 6
-6 6 0 -27z"/>
<path d="M646 572 l-7 -12 5 0 4 0 16 -6 16 -6 0 12 0 11 -9 -5 -9 -6 -4 12
-4 12 -8 -12z"/>
<path d="M780 566 l0 -4 18 -13 17 -14 -14 18 -13 17 -4 0 -4 0 0 -4z"/>
<path d="M270 550 l-25 -8 17 -1 17 -1 3 -17 4 -18 6 28 5 27 -1 -1 -1 -1 -25
-8z"/>
<path d="M541 538 l-1 -28 8 0 7 1 35 20 35 20 -20 -7 -20 -6 -12 -1 -13 0 -1
-11 -1 -11 -8 25 -8 25 -1 -27z"/>
<path d="M411 524 l1 -19 5 13 5 13 -6 6 -6 6 1 -19z"/>
<path d="M882 524 l-13 -14 10 0 10 0 6 11 7 10 -3 4 -4 3 -13 -14z"/>
<path d="M813 475 l0 -40 4 23 4 22 -4 18 -5 17 1 -40z"/>
<path d="M33 483 l-7 -17 12 -4 12 -4 -6 -9 -5 -9 10 0 11 0 0 21 0 20 -10 -6
-10 -6 0 6 0 6 23 9 22 9 -23 0 -23 1 -6 -17z"/>
<path d="M480 490 l0 -10 10 0 10 0 0 10 0 10 -10 0 -10 0 0 -10z"/>
<path d="M892 475 l0 -30 5 18 5 17 -5 13 -5 12 0 -30z"/>
<path d="M94 483 l6 -11 -17 -6 -18 -5 33 4 34 4 6 7 7 7 -16 -6 -17 -5 -12
11 -13 12 7 -12z"/>
<path d="M401 474 l1 -19 5 13 5 13 -6 6 -6 6 1 -19z"/>
<path d="M615 480 l20 -9 13 0 12 -1 0 10 0 10 -32 -1 -33 0 20 -9z"/>
<path d="M510 471 l0 -8 28 4 27 3 -21 -9 -22 -10 -7 -11 -7 -12 31 17 32 16
9 -6 10 -6 0 15 0 16 -40 0 -40 0 0 -9z"/>
<path d="M847 434 l6 -16 6 9 6 8 9 8 9 7 -21 0 -21 0 6 -16z"/>
<path d="M90 418 l0 -22 -16 20 -15 19 9 -19 10 -19 15 -3 16 -2 -6 15 -6 15
14 9 14 9 -17 0 -18 0 0 -22z"/>
<path d="M247 433 l-4 -8 20 -20 20 -20 -13 25 -13 25 -2 3 -3 3 -5 -8z"/>
<path d="M470 420 l-14 -9 4 -4 5 -4 33 -11 32 -11 0 4 0 5 -17 20 -17 20 -6
0 -5 0 -15 -10z"/>
<path d="M200 416 l0 -4 18 -13 17 -14 -14 18 -13 17 -4 0 -4 0 0 -4z"/>
<path d="M590 411 l0 -12 -19 -7 -19 -7 13 -12 14 -13 6 20 6 19 17 -5 17 -6
-10 9 -10 8 -7 9 -8 9 0 -12z"/>
<path d="M787 384 l-18 -24 -9 5 -9 5 -5 -9 -6 -9 22 -5 22 -6 5 4 4 5 -13 0
-13 0 23 25 23 25 -4 4 -4 4 -18 -24z"/>
<path d="M820 406 l0 -4 15 -6 15 -5 0 9 0 10 -15 0 -15 0 0 -4z"/>
<path d="M937 385 l-28 -25 9 0 9 0 23 25 23 25 -4 0 -4 -1 -28 -24z"/>
<path d="M205 380 l18 -20 5 0 5 0 -18 20 -18 20 -5 0 -5 0 18 -20z"/>
<path d="M300 382 l0 -9 30 5 30 4 0 4 0 4 -30 0 -30 0 0 -8z"/>
<path d="M450 365 l23 -25 5 0 5 0 -23 25 -23 25 -5 0 -5 0 23 -25z"/>
<path d="M111 363 l11 -13 12 1 11 1 -13 5 -12 5 4 7 5 8 -14 0 -15 0 11 -14z"/>
<path d="M265 360 l18 -20 5 0 5 0 -18 20 -18 20 -5 0 -5 0 18 -20z"/>
<path d="M655 371 l-10 -9 -25 -4 -25 -4 26 -5 26 -6 12 19 11 18 -3 0 -3 0
-9 -9z"/>
<path d="M696 355 l-20 -15 19 0 18 0 -19 -22 -19 -23 28 25 28 25 -10 3 -11
4 6 9 5 9 -3 0 -3 -1 -19 -14z"/>
<path d="M529 347 l9 -9 28 4 29 4 -37 5 -38 5 9 -9z"/>
<path d="M270 325 l23 -25 5 0 5 0 -23 25 -23 25 -5 0 -5 0 23 -25z"/>
<path d="M155 320 l18 -20 5 0 5 0 -18 20 -18 20 -5 0 -5 0 18 -20z"/>
<path d="M349 306 l34 -35 -6 -15 -6 -15 9 -6 10 -6 0 20 0 20 18 -5 17 -6
-32 21 -32 20 -13 21 -13 20 -9 0 -10 0 33 -34z"/>
<path d="M847 319 l13 -13 5 6 6 6 -18 6 -18 7 12 -12z"/>
<path d="M870 295 l-12 -14 4 -10 3 -10 12 24 11 25 -3 0 -3 0 -12 -15z"/>
<path d="M190 296 l0 -4 18 -13 17 -14 -14 18 -13 17 -4 0 -4 0 0 -4z"/>
<path d="M535 270 l-6 -10 10 0 11 0 0 10 0 10 -4 0 -5 0 -6 -10z"/>
<path d="M254 251 l7 -11 20 -10 19 -11 0 4 0 5 -26 17 -26 17 6 -11z"/>
<path d="M450 250 l25 -8 35 0 35 -1 -20 9 -20 9 -40 -1 -40 0 25 -8z"/>
<path d="M800 250 l-15 -10 10 0 10 0 15 10 15 10 -10 0 -10 0 -15 -10z"/>
<path d="M939 183 l-14 -18 18 14 17 13 0 4 0 4 -4 0 -4 0 -13 -17z"/>
<path d="M700 171 l0 -12 -10 6 -10 6 0 -10 0 -11 9 0 10 0 6 11 7 10 -6 6 -6
6 0 -12z"/>
<path d="M716 150 l-19 -19 16 -7 16 -6 13 5 13 5 -24 1 -23 1 23 20 24 19
-10 0 -10 0 -19 -19z"/>
<path d="M890 160 l-15 -10 10 0 10 0 15 10 15 10 -10 0 -10 0 -15 -10z"/>
<path d="M783 133 l17 -5 13 5 12 5 -30 0 -30 0 18 -5z"/>
<path d="M0 50 l0 -50 640 0 640 0 0 50 0 50 -640 0 -640 0 0 -50z"/>
</g>
</svg>
