<?xml version="1.0" standalone="no"?>
<!DOCTYPE svg PUBLIC "-//W3C//DTD SVG 20010904//EN"
 "http://www.w3.org/TR/2001/REC-SVG-20010904/DTD/svg10.dtd">
<svg version="1.0" xmlns="http://www.w3.org/2000/svg"
 width="468pt" height="468pt" viewBox="0 0 468 468"
 preserveAspectRatio="xMidYMid meet">
<metadata>
Created by potrace 1.8, written by Peter Selinger 2001-2007
</metadata>
<g transform="translate(0,468) scale(0.365625,-0.365625)"
fill="#000000" stroke="none">
<path d="M160 960 l0 -210 25 0 25 0 0 -110 0 -110 30 0 30 0 0 -80 0 -80 25
0 25 0 0 -25 0 -25 25 0 25 0 0 -55 0 -55 30 0 30 0 0 -25 0 -25 25 0 25 0 0
-25 0 -25 25 0 25 0 0 -30 0 -30 80 0 80 0 0 30 0 30 30 0 30 0 0 25 0 25 25
0 25 0 0 25 0 25 25 0 25 0 0 55 0 55 30 0 30 0 0 25 0 25 25 0 25 0 0 80 0
80 25 0 25 0 0 110 0 110 30 0 30 0 0 210 0 210 -455 0 -455 0 0 -210z m850
-25 l0 -185 -25 0 -25 0 0 -110 0 -110 -25 0 -25 0 0 -80 0 -80 -30 0 -30 0 0
-25 0 -25 -25 0 -25 0 0 -55 0 -55 -25 0 -25 0 0 -25 0 -25 -30 0 -30 0 0 -25
0 -25 -80 0 -80 0 0 25 0 25 -25 0 -25 0 0 25 0 25 -25 0 -25 0 0 55 0 55 -30
0 -30 0 0 25 0 25 -25 0 -25 0 0 80 0 80 -25 0 -25 0 0 110 0 110 -30 0 -30 0
0 185 0 185 400 0 400 0 0 -185z"/>
<path d="M270 910 l0 -160 25 0 25 0 0 -30 0 -30 135 0 135 0 0 190 0 190
-160 0 -160 0 0 -160z"/>
<path d="M640 880 l0 -190 135 0 135 0 0 30 0 30 25 0 25 0 0 160 0 160 -160
0 -160 0 0 -190z m110 80 l0 -50 25 0 25 0 0 25 0 25 25 0 25 0 0 25 0 25 30
0 30 0 0 -25 0 -25 -30 0 -30 0 0 -25 0 -25 -25 0 -25 0 0 -30 0 -30 25 0 25
0 0 -50 0 -50 -25 0 -25 0 0 50 0 50 -25 0 -25 0 0 -25 0 -25 -30 0 -30 0 0
25 0 25 30 0 30 0 0 30 0 30 -30 0 -30 0 0 50 0 50 30 0 30 0 0 -50z"/>
<path d="M320 585 l0 -55 25 0 25 0 0 -80 0 -80 30 0 30 0 0 -25 0 -25 25 0
25 0 0 -55 0 -55 25 0 25 0 0 -25 0 -25 30 0 30 0 0 240 0 240 -135 0 -135 0
0 -55z m210 -130 l0 -135 -25 0 -25 0 0 55 0 55 -25 0 -25 0 0 25 0 25 25 0
25 0 0 25 0 25 -55 0 -55 0 0 30 0 30 80 0 80 0 0 -135z"/>
<path d="M640 400 l0 -240 25 0 25 0 0 25 0 25 30 0 30 0 0 55 0 55 25 0 25 0
0 25 0 25 25 0 25 0 0 80 0 80 30 0 30 0 0 55 0 55 -135 0 -135 0 0 -240z"/>
</g>
</svg>
