<?xml version="1.0" standalone="no"?>
<!DOCTYPE svg PUBLIC "-//W3C//DTD SVG 20010904//EN"
 "http://www.w3.org/TR/2001/REC-SVG-20010904/DTD/svg10.dtd">
<svg version="1.0" xmlns="http://www.w3.org/2000/svg"
 width="468pt" height="468pt" viewBox="0 0 468 468"
 preserveAspectRatio="xMidYMid meet">
<metadata>
Created by potrace 1.8, written by Peter Selinger 2001-2007
</metadata>
<g transform="translate(0,468) scale(0.365625,-0.365625)"
fill="#000000" stroke="none">
<path d="M610 1271 l0 -9 -70 -7 -70 -7 0 -9 0 -9 -35 0 -35 0 0 -10 0 -10
-35 0 -35 0 0 -9 0 -9 -70 -7 -70 -7 0 -9 0 -9 -35 0 -35 0 0 -10 0 -10 -20 0
-21 0 -15 -12 -15 -13 -12 -13 -12 -13 -12 -14 -13 -14 0 -6 0 -6 12 -15 13
-15 13 -12 13 -12 22 -22 22 -22 10 -10 10 -10 25 -25 25 -25 12 -13 12 -13
13 -12 13 -12 13 -13 13 -13 25 -25 25 -25 10 -10 10 -10 23 -24 24 -23 10
-10 10 -10 51 -52 52 -51 8 -9 9 -8 26 -25 26 -24 0 -9 0 -10 20 0 20 0 0 20
0 20 15 0 15 0 0 10 0 10 35 0 35 0 0 -20 0 -20 -15 0 -15 0 0 -10 0 -10 21 0
20 0 15 14 14 15 0 15 0 16 -10 0 -9 0 -23 25 -23 24 -12 13 -12 13 -13 12
-13 12 -13 13 -13 13 -23 24 -24 23 -10 10 -10 10 -25 25 -25 25 -11 12 -12
11 -12 13 -12 13 -13 12 -13 12 -25 25 -25 25 -8 9 -9 8 -25 25 -25 25 -8 9
-9 8 -28 26 -27 26 0 9 0 9 -19 6 -20 6 -6 19 -6 19 -20 6 -19 6 0 10 0 9 35
0 35 0 0 10 0 10 35 0 35 0 0 9 0 9 70 7 70 7 0 9 0 9 35 0 35 0 0 10 0 10 35
0 35 0 0 9 0 8 55 7 56 6 279 -279 280 -280 0 -6 0 -5 -15 0 -15 0 0 -9 0 -9
-36 -4 -37 -4 -24 25 -24 26 -10 10 -10 10 -22 22 -22 22 -10 10 -10 10 -88
88 -88 88 -8 9 -9 8 -25 25 -25 25 -11 12 -12 11 -39 38 -38 37 -31 0 -31 0 0
-9 0 -9 -70 -7 -70 -7 0 -9 0 -9 -35 0 -35 0 0 -10 0 -10 35 0 35 0 0 10 0 10
35 0 35 0 0 10 0 10 25 0 25 0 0 -9 0 -10 -16 -15 -15 -16 -20 0 -19 0 0 -10
0 -10 -29 0 -29 0 -4 -12 -4 -12 -28 27 -27 27 -15 0 -15 0 13 -15 13 -16 24
-23 23 -24 9 -8 8 -9 85 -85 85 -85 10 -10 10 -10 85 -85 85 -85 13 -11 13
-11 14 -21 14 -21 25 -6 25 -6 54 7 53 6 6 23 6 23 -226 226 -226 226 0 6 0 6
31 29 31 29 4 0 3 0 119 -121 120 -121 10 -10 10 -10 123 -122 123 -121 62 1
62 1 16 16 16 16 0 6 0 6 -12 15 -13 15 -25 25 -25 25 -7 7 -7 7 -25 25 -25
25 -13 12 -13 12 -12 13 -12 13 -13 13 -13 13 -24 23 -23 24 -10 10 -10 10
-25 25 -25 25 -10 10 -10 10 -25 25 -25 25 -12 11 -11 12 -13 12 -13 12 -12
13 -12 13 -24 23 -23 24 -10 10 -10 10 -24 23 -23 24 -15 13 -15 12 -26 0 -25
0 0 -9z m-230 -431 l280 -280 0 -4 0 -4 -42 -7 -43 -7 -6 -10 -6 -10 -267 266
-266 266 0 6 0 6 31 29 31 29 4 0 4 0 280 -280z m165 180 l6 -20 9 0 9 0 24
-26 25 -26 11 -12 12 -11 12 -13 12 -13 22 -22 22 -22 13 -13 13 -13 13 -12
13 -12 22 -22 22 -22 12 -13 12 -13 12 -11 11 -12 24 -23 23 -24 16 -13 15
-13 0 -9 0 -9 -37 -7 -38 -7 -7 -10 -6 -10 -41 39 -40 39 -13 13 -13 13 -24
23 -23 24 -10 10 -10 10 -52 51 -51 52 -9 8 -8 9 -25 25 -25 25 -12 11 -11 12
-22 24 -23 24 0 11 0 10 25 0 25 0 0 10 0 10 29 0 30 0 6 -20z m705 -365 l0
-15 -20 0 -20 0 0 -10 0 -10 -35 0 -35 0 0 19 0 20 23 4 22 4 33 2 32 1 0 -15z
m-280 -65 l0 -20 -20 0 -20 0 0 -10 0 -10 -35 0 -35 0 0 20 0 20 20 0 20 0 0
10 0 10 35 0 35 0 0 -20z"/>
<path d="M298 473 l-298 -3 0 -235 0 -235 640 0 640 0 0 235 0 235 -292 0
-293 0 -50 3 -50 3 -297 -3z"/>
</g>
</svg>
