<?xml version="1.0" standalone="no"?>
<!DOCTYPE svg PUBLIC "-//W3C//DTD SVG 20010904//EN"
 "http://www.w3.org/TR/2001/REC-SVG-20010904/DTD/svg10.dtd">
<svg version="1.0" xmlns="http://www.w3.org/2000/svg"
 width="468pt" height="468pt" viewBox="0 0 468 468"
 preserveAspectRatio="xMidYMid meet">
<metadata>
Created by potrace 1.8, written by Peter Selinger 2001-2007
</metadata>
<g transform="translate(0,468) scale(0.365625,-0.365625)"
fill="#000000" stroke="none">
<path d="M380 1250 l0 -30 -30 0 -30 0 0 -35 0 -35 -95 0 -95 0 0 -30 0 -30
-35 0 -35 0 0 -65 0 -65 -30 0 -30 0 0 -65 0 -65 30 0 30 0 0 -65 0 -65 35 0
35 0 0 -190 0 -190 -35 0 -35 0 0 -95 0 -95 35 0 35 0 0 -65 0 -65 65 0 65 0
0 30 0 30 30 0 30 0 0 35 0 35 30 0 30 0 0 95 0 95 -30 0 -30 0 0 65 0 65 30
0 30 0 0 95 0 95 35 0 35 0 0 -30 0 -30 190 0 190 0 0 30 0 30 35 0 35 0 0
-95 0 -95 30 0 30 0 0 -65 0 -65 -30 0 -30 0 0 -95 0 -95 30 0 30 0 0 -35 0
-35 30 0 30 0 0 -30 0 -30 65 0 65 0 0 65 0 65 35 0 35 0 0 95 0 95 -35 0 -35
0 0 190 0 190 35 0 35 0 0 65 0 65 30 0 30 0 0 65 0 65 -30 0 -30 0 0 65 0 65
-35 0 -35 0 0 30 0 30 -95 0 -95 0 0 35 0 35 -30 0 -30 0 0 30 0 30 -260 0
-260 0 0 -30z m520 -65 l0 -35 -100 0 -100 0 0 -95 0 -95 100 0 100 0 0 30 0
30 30 0 30 0 0 35 0 35 95 0 95 0 0 -195 0 -195 -95 0 -95 0 0 -30 0 -30 65 0
65 0 0 -130 0 -130 -35 0 -35 0 0 65 0 65 -30 0 -30 0 0 65 0 65 -30 0 -30 0
0 30 0 30 -35 0 -35 0 0 -30 0 -30 -30 0 -30 0 0 30 0 30 -35 0 -35 0 0 -30 0
-30 -125 0 -125 0 0 30 0 30 -35 0 -35 0 0 -30 0 -30 -30 0 -30 0 0 -65 0 -65
-30 0 -30 0 0 -65 0 -65 -35 0 -35 0 0 130 0 130 65 0 65 0 0 30 0 30 -30 0
-30 0 0 35 0 35 -35 0 -35 0 0 -35 0 -35 -30 0 -30 0 0 100 0 100 30 0 30 0 0
30 0 30 -30 0 -30 0 0 65 0 65 95 0 95 0 0 -35 0 -35 30 0 30 0 0 -30 0 -30
130 0 130 0 0 30 0 30 -30 0 -30 0 0 65 0 65 -100 0 -100 0 0 35 0 35 260 0
260 0 0 -35z m-710 -895 l0 -30 -30 0 -30 0 0 30 0 30 30 0 30 0 0 -30z m130
-65 l0 -95 -30 0 -30 0 0 95 0 95 30 0 30 0 0 -95z m700 0 l0 -95 -30 0 -30 0
0 95 0 95 30 0 30 0 0 -95z m130 0 l0 -95 -30 0 -30 0 0 95 0 95 30 0 30 0 0
-95z m-960 -65 l0 -30 -30 0 -30 0 0 30 0 30 30 0 30 0 0 -30z"/>
<path d="M260 925 l0 -95 30 0 30 0 0 -65 0 -65 30 0 30 0 0 65 0 65 35 0 35
0 0 35 0 35 -35 0 -35 0 0 -35 0 -35 -30 0 -30 0 0 95 0 95 -30 0 -30 0 0 -95z"/>
<path d="M960 960 l0 -60 -30 0 -30 0 0 -100 0 -100 30 0 30 0 0 65 0 65 30 0
30 0 0 -30 0 -30 35 0 35 0 0 30 0 30 -35 0 -35 0 0 95 0 95 -30 0 -30 0 0
-60z"/>
<path d="M700 865 l0 -35 35 0 35 0 0 35 0 35 -35 0 -35 0 0 -35z"/>
<path d="M510 800 l0 -30 35 0 35 0 0 30 0 30 -35 0 -35 0 0 -30z"/>
</g>
</svg>
