<?xml version="1.0" standalone="no"?>
<!DOCTYPE svg PUBLIC "-//W3C//DTD SVG 20010904//EN"
 "http://www.w3.org/TR/2001/REC-SVG-20010904/DTD/svg10.dtd">
<svg version="1.0" xmlns="http://www.w3.org/2000/svg"
 width="468pt" height="468pt" viewBox="0 0 468 468"
 preserveAspectRatio="xMidYMid meet">
<metadata>
Created by potrace 1.8, written by Peter Selinger 2001-2007
</metadata>
<g transform="translate(0,468) scale(0.365625,-0.365625)"
fill="#000000" stroke="none">
<path d="M430 1255 l0 -25 -30 0 -30 0 0 -30 0 -30 -25 0 -25 0 0 -25 0 -25
-25 0 -25 0 0 -55 0 -55 -30 0 -30 0 0 -370 0 -370 -25 0 -25 0 0 -80 0 -80
25 0 25 0 0 -30 0 -30 30 0 30 0 0 -25 0 -25 130 0 130 0 0 25 0 25 55 0 55 0
0 30 0 30 135 0 135 0 0 -30 0 -30 105 0 105 0 0 190 0 190 -25 0 -25 0 0 320
0 320 -30 0 -30 0 0 25 0 25 -25 0 -25 0 0 25 0 25 -25 0 -25 0 0 30 0 30 -30
0 -30 0 0 25 0 25 -210 0 -210 0 0 -25z m160 -55 l0 -30 160 0 160 0 0 -25 0
-25 25 0 25 0 0 -25 0 -25 25 0 25 0 0 -350 0 -350 30 0 30 0 0 -130 0 -130
-55 0 -55 0 0 25 0 25 -215 0 -215 0 0 -25 0 -25 -80 0 -80 0 0 80 0 80 30 0
30 0 0 370 0 370 -30 0 -30 0 0 -345 0 -345 -25 0 -25 0 0 -105 0 -105 -25 0
-25 0 0 25 0 25 -30 0 -30 0 0 25 0 25 30 0 30 0 0 270 0 270 25 0 25 0 0 50
0 50 -25 0 -25 0 0 55 0 55 25 0 25 0 0 55 0 55 25 0 25 0 0 25 0 25 30 0 30
0 0 25 0 25 25 0 25 0 0 30 0 30 55 0 55 0 0 -30z"/>
<path d="M530 1145 l0 -25 -25 0 -25 0 0 -25 0 -25 -25 0 -25 0 0 -30 0 -30
25 0 25 0 0 30 0 30 25 0 25 0 0 25 0 25 30 0 30 0 0 25 0 25 -30 0 -30 0 0
-25z"/>
<path d="M640 1095 l0 -25 -25 0 -25 0 0 -30 0 -30 -30 0 -30 0 0 -80 0 -80
30 0 30 0 0 -25 0 -25 25 0 25 0 0 -25 0 -25 80 0 80 0 0 25 0 25 25 0 25 0 0
25 0 25 30 0 30 0 0 80 0 80 -30 0 -30 0 0 30 0 30 -25 0 -25 0 0 25 0 25 -80
0 -80 0 0 -25z m50 -105 l0 -80 30 0 30 0 0 80 0 80 25 0 25 0 0 -30 0 -30 25
0 25 0 0 -80 0 -80 -25 0 -25 0 0 30 0 30 -25 0 -25 0 0 -55 0 -55 -55 0 -55
0 0 25 0 25 -25 0 -25 0 0 80 0 80 25 0 25 0 0 30 0 30 25 0 25 0 0 -80z"/>
<path d="M590 665 l0 -25 -30 0 -30 0 0 -215 0 -215 190 0 190 0 0 215 0 215
-30 0 -30 0 0 25 0 25 -130 0 -130 0 0 -25z m260 -160 l0 -135 -25 0 -25 0 0
55 0 55 -25 0 -25 0 0 -80 0 -80 25 0 25 0 0 -25 0 -25 -105 0 -105 0 0 185 0
185 130 0 130 0 0 -135z"/>
<path d="M690 535 l0 -55 30 0 30 0 0 55 0 55 -30 0 -30 0 0 -55z"/>
</g>
</svg>
