<?xml version="1.0" standalone="no"?>
<!DOCTYPE svg PUBLIC "-//W3C//DTD SVG 20010904//EN"
 "http://www.w3.org/TR/2001/REC-SVG-20010904/DTD/svg10.dtd">
<svg version="1.0" xmlns="http://www.w3.org/2000/svg"
 width="468pt" height="468pt" viewBox="0 0 468 468"
 preserveAspectRatio="xMidYMid meet">
<metadata>
Created by potrace 1.8, written by Peter Selinger 2001-2007
</metadata>
<g transform="translate(0,468) scale(0.365625,-0.365625)"
fill="#000000" stroke="none">
<path d="M0 1195 l0 -85 20 0 20 0 0 -20 0 -20 -20 0 -20 0 0 -25 0 -25 20 0
20 0 0 -20 0 -20 -20 0 -20 0 0 -20 0 -20 20 0 20 0 0 -20 0 -20 -20 0 -20 0
0 -25 0 -25 20 0 20 0 0 -20 0 -20 -20 0 -20 0 0 -20 0 -20 20 0 20 0 0 -20 0
-20 -20 0 -20 0 0 -25 0 -25 20 0 20 0 0 -20 0 -20 -20 0 -20 0 0 -320 0 -320
65 0 65 0 0 20 0 20 20 0 20 0 0 -20 0 -20 20 0 20 0 0 20 0 20 25 0 25 0 0
-20 0 -20 20 0 20 0 0 20 0 20 20 0 20 0 0 -20 0 -20 20 0 20 0 0 20 0 20 25
0 25 0 0 -20 0 -20 20 0 20 0 0 20 0 20 20 0 20 0 0 -20 0 -20 20 0 20 0 0 20
0 20 25 0 25 0 0 -20 0 -20 340 0 340 0 0 340 0 340 -20 0 -20 0 0 25 0 25 20
0 20 0 0 20 0 20 -20 0 -20 0 0 20 0 20 20 0 20 0 0 20 0 20 -20 0 -20 0 0 25
0 25 20 0 20 0 0 20 0 20 -20 0 -20 0 0 20 0 20 20 0 20 0 0 20 0 20 -20 0
-20 0 0 25 0 25 20 0 20 0 0 20 0 20 -20 0 -20 0 0 20 0 20 20 0 20 0 0 65 0
65 -320 0 -320 0 0 -20 0 -20 -20 0 -20 0 0 20 0 20 -25 0 -25 0 0 -20 0 -20
-20 0 -20 0 0 20 0 20 -20 0 -20 0 0 -20 0 -20 -20 0 -20 0 0 20 0 20 -25 0
-25 0 0 -20 0 -20 -20 0 -20 0 0 20 0 20 -20 0 -20 0 0 -20 0 -20 -20 0 -20 0
0 20 0 20 -25 0 -25 0 0 -20 0 -20 -20 0 -20 0 0 20 0 20 -85 0 -85 0 0 -85z
m170 20 l0 -25 20 0 20 0 0 25 0 25 25 0 25 0 0 -25 0 -25 20 0 20 0 0 25 0
25 20 0 20 0 0 -25 0 -25 20 0 20 0 0 25 0 25 25 0 25 0 0 -25 0 -25 20 0 20
0 0 25 0 25 20 0 20 0 0 -25 0 -25 20 0 20 0 0 25 0 25 25 0 25 0 0 -25 0 -25
20 0 20 0 0 -20 0 -20 -20 0 -20 0 0 -20 0 -20 20 0 20 0 0 -20 0 -20 -20 0
-20 0 0 -25 0 -25 20 0 20 0 0 -20 0 -20 -20 0 -20 0 0 -20 0 -20 20 0 20 0 0
-20 0 -20 -20 0 -20 0 0 -25 0 -25 20 0 20 0 0 -20 0 -20 -20 0 -20 0 0 -20 0
-20 20 0 20 0 0 -20 0 -20 -20 0 -20 0 0 -25 0 -25 20 0 20 0 0 -20 0 -20 -20
0 -20 0 0 20 0 20 -25 0 -25 0 0 -20 0 -20 -20 0 -20 0 0 20 0 20 -20 0 -20 0
0 -20 0 -20 -20 0 -20 0 0 20 0 20 -25 0 -25 0 0 -20 0 -20 -20 0 -20 0 0 20
0 20 -20 0 -20 0 0 -20 0 -20 -20 0 -20 0 0 20 0 20 -25 0 -25 0 0 -20 0 -20
-20 0 -20 0 0 20 0 20 -20 0 -20 0 0 -20 0 -20 -20 0 -20 0 0 20 0 20 -25 0
-25 0 0 25 0 25 25 0 25 0 0 20 0 20 -25 0 -25 0 0 20 0 20 25 0 25 0 0 20 0
20 -25 0 -25 0 0 25 0 25 25 0 25 0 0 20 0 20 -25 0 -25 0 0 20 0 20 25 0 25
0 0 20 0 20 -25 0 -25 0 0 25 0 25 25 0 25 0 0 20 0 20 -25 0 -25 0 0 20 0 20
25 0 25 0 0 20 0 20 20 0 20 0 0 25 0 25 20 0 20 0 0 -25z m1020 -85 l0 -20
25 0 25 0 0 -20 0 -20 -25 0 -25 0 0 -25 0 -25 25 0 25 0 0 -20 0 -20 -25 0
-25 0 0 -20 0 -20 25 0 25 0 0 -20 0 -20 -25 0 -25 0 0 -25 0 -25 25 0 25 0 0
-20 0 -20 -25 0 -25 0 0 -20 0 -20 25 0 25 0 0 -20 0 -20 -25 0 -25 0 0 -25 0
-25 25 0 25 0 0 -20 0 -20 -25 0 -25 0 0 20 0 20 -20 0 -20 0 0 -20 0 -20 -20
0 -20 0 0 20 0 20 -20 0 -20 0 0 -20 0 -20 -25 0 -25 0 0 20 0 20 -20 0 -20 0
0 -20 0 -20 -20 0 -20 0 0 20 0 20 -20 0 -20 0 0 -20 0 -20 -25 0 -25 0 0 20
0 20 -20 0 -20 0 0 -20 0 -20 -20 0 -20 0 0 20 0 20 -20 0 -20 0 0 -20 0 -20
-25 0 -25 0 0 20 0 20 25 0 25 0 0 25 0 25 20 0 20 0 0 20 0 20 20 0 20 0 0
20 0 20 20 0 20 0 0 20 0 20 25 0 25 0 0 25 0 25 20 0 20 0 0 20 0 20 20 0 20
0 0 20 0 20 20 0 20 0 0 20 0 20 25 0 25 0 0 25 0 25 20 0 20 0 0 20 0 20 20
0 20 0 0 20 0 20 20 0 20 0 0 -20z m-550 -555 l0 -25 -20 0 -20 0 0 -20 0 -20
20 0 20 0 0 -20 0 -20 -20 0 -20 0 0 -20 0 -20 20 0 20 0 0 -25 0 -25 -20 0
-20 0 0 -20 0 -20 20 0 20 0 0 -20 0 -20 -20 0 -20 0 0 -20 0 -20 20 0 20 0 0
-25 0 -25 -20 0 -20 0 0 -20 0 -20 20 0 20 0 0 -20 0 -20 -20 0 -20 0 0 -20 0
-20 20 0 20 0 0 -25 0 -25 -20 0 -20 0 0 25 0 25 -25 0 -25 0 0 -25 0 -25 -20
0 -20 0 0 25 0 25 -20 0 -20 0 0 -25 0 -25 -20 0 -20 0 0 25 0 25 -25 0 -25 0
0 -25 0 -25 -20 0 -20 0 0 25 0 25 -20 0 -20 0 0 -25 0 -25 -20 0 -20 0 0 25
0 25 -25 0 -25 0 0 -25 0 -25 -20 0 -20 0 0 25 0 25 -20 0 -20 0 0 20 0 20 20
0 20 0 0 20 0 20 20 0 20 0 0 20 0 20 25 0 25 0 0 25 0 25 20 0 20 0 0 20 0
20 20 0 20 0 0 20 0 20 20 0 20 0 0 20 0 20 25 0 25 0 0 25 0 25 20 0 20 0 0
20 0 20 20 0 20 0 0 20 0 20 20 0 20 0 0 20 0 20 25 0 25 0 0 25 0 25 20 0 20
0 0 -25z"/>
<path d="M130 1170 l0 -20 -20 0 -20 0 0 -20 0 -20 20 0 20 0 0 -20 0 -20 -20
0 -20 0 0 -25 0 -25 20 0 20 0 0 -20 0 -20 -20 0 -20 0 0 -20 0 -20 20 0 20 0
0 -20 0 -20 -20 0 -20 0 0 -25 0 -25 20 0 20 0 0 -20 0 -20 -20 0 -20 0 0 -20
0 -20 20 0 20 0 0 -20 0 -20 -20 0 -20 0 0 -25 0 -25 20 0 20 0 0 25 0 25 20
0 20 0 0 -25 0 -25 20 0 20 0 0 25 0 25 25 0 25 0 0 -25 0 -25 20 0 20 0 0 25
0 25 20 0 20 0 0 -25 0 -25 20 0 20 0 0 25 0 25 25 0 25 0 0 -25 0 -25 20 0
20 0 0 25 0 25 20 0 20 0 0 -25 0 -25 20 0 20 0 0 25 0 25 25 0 25 0 0 20 0
20 -25 0 -25 0 0 20 0 20 25 0 25 0 0 20 0 20 -25 0 -25 0 0 25 0 25 25 0 25
0 0 20 0 20 -25 0 -25 0 0 20 0 20 25 0 25 0 0 20 0 20 -25 0 -25 0 0 25 0 25
25 0 25 0 0 20 0 20 -25 0 -25 0 0 20 0 20 25 0 25 0 0 20 0 20 -25 0 -25 0 0
-20 0 -20 -20 0 -20 0 0 20 0 20 -20 0 -20 0 0 -20 0 -20 -20 0 -20 0 0 20 0
20 -25 0 -25 0 0 -20 0 -20 -20 0 -20 0 0 20 0 20 -20 0 -20 0 0 -20 0 -20
-20 0 -20 0 0 20 0 20 -25 0 -25 0 0 -20 0 -20 -20 0 -20 0 0 20 0 20 -20 0
-20 0 0 -20z m40 -40 l0 -20 20 0 20 0 0 20 0 20 25 0 25 0 0 -20 0 -20 20 0
20 0 0 20 0 20 20 0 20 0 0 -20 0 -20 20 0 20 0 0 20 0 20 25 0 25 0 0 -20 0
-20 20 0 20 0 0 20 0 20 20 0 20 0 0 -20 0 -20 20 0 20 0 0 -20 0 -20 -20 0
-20 0 0 -25 0 -25 20 0 20 0 0 -20 0 -20 -20 0 -20 0 0 -20 0 -20 20 0 20 0 0
-20 0 -20 -20 0 -20 0 0 -25 0 -25 20 0 20 0 0 -20 0 -20 -20 0 -20 0 0 -20 0
-20 20 0 20 0 0 -20 0 -20 -20 0 -20 0 0 20 0 20 -20 0 -20 0 0 -20 0 -20 -20
0 -20 0 0 20 0 20 -25 0 -25 0 0 -20 0 -20 -20 0 -20 0 0 20 0 20 -20 0 -20 0
0 -20 0 -20 -20 0 -20 0 0 20 0 20 -25 0 -25 0 0 -20 0 -20 -20 0 -20 0 0 20
0 20 -20 0 -20 0 0 20 0 20 20 0 20 0 0 20 0 20 -20 0 -20 0 0 25 0 25 20 0
20 0 0 20 0 20 -20 0 -20 0 0 20 0 20 20 0 20 0 0 20 0 20 -20 0 -20 0 0 25 0
25 20 0 20 0 0 20 0 20 -20 0 -20 0 0 20 0 20 20 0 20 0 0 -20z"/>
<path d="M210 1090 l0 -20 -20 0 -20 0 0 -25 0 -25 20 0 20 0 0 -20 0 -20 -20
0 -20 0 0 -20 0 -20 20 0 20 0 0 -20 0 -20 -20 0 -20 0 0 -25 0 -25 20 0 20 0
0 -20 0 -20 -20 0 -20 0 0 -20 0 -20 20 0 20 0 0 20 0 20 25 0 25 0 0 -20 0
-20 20 0 20 0 0 20 0 20 20 0 20 0 0 -20 0 -20 20 0 20 0 0 20 0 20 25 0 25 0
0 -20 0 -20 20 0 20 0 0 20 0 20 20 0 20 0 0 20 0 20 -20 0 -20 0 0 25 0 25
20 0 20 0 0 20 0 20 -20 0 -20 0 0 20 0 20 20 0 20 0 0 20 0 20 -20 0 -20 0 0
25 0 25 20 0 20 0 0 20 0 20 -20 0 -20 0 0 -20 0 -20 -20 0 -20 0 0 20 0 20
-25 0 -25 0 0 -20 0 -20 -20 0 -20 0 0 20 0 20 -20 0 -20 0 0 -20 0 -20 -20 0
-20 0 0 20 0 20 -25 0 -25 0 0 -20z m50 -45 l0 -25 20 0 20 0 0 25 0 25 20 0
20 0 0 -25 0 -25 20 0 20 0 0 25 0 25 25 0 25 0 0 -25 0 -25 20 0 20 0 0 -20
0 -20 -20 0 -20 0 0 -20 0 -20 20 0 20 0 0 -20 0 -20 -20 0 -20 0 0 -25 0 -25
20 0 20 0 0 -20 0 -20 -20 0 -20 0 0 20 0 20 -25 0 -25 0 0 -20 0 -20 -20 0
-20 0 0 20 0 20 -20 0 -20 0 0 -20 0 -20 -20 0 -20 0 0 20 0 20 -25 0 -25 0 0
25 0 25 25 0 25 0 0 20 0 20 -25 0 -25 0 0 20 0 20 25 0 25 0 0 20 0 20 -25 0
-25 0 0 25 0 25 25 0 25 0 0 -25z"/>
<path d="M300 1000 l0 -20 -20 0 -20 0 0 -20 0 -20 20 0 20 0 0 -20 0 -20 -20
0 -20 0 0 -25 0 -25 20 0 20 0 0 25 0 25 20 0 20 0 0 -25 0 -25 20 0 20 0 0
25 0 25 25 0 25 0 0 20 0 20 -25 0 -25 0 0 20 0 20 25 0 25 0 0 20 0 20 -25 0
-25 0 0 -20 0 -20 -20 0 -20 0 0 20 0 20 -20 0 -20 0 0 -20z m40 -40 l0 -20
20 0 20 0 0 -20 0 -20 -20 0 -20 0 0 20 0 20 -20 0 -20 0 0 20 0 20 20 0 20 0
0 -20z"/>
<path d="M1150 1090 l0 -20 -20 0 -20 0 0 -25 0 -25 -20 0 -20 0 0 -20 0 -20
-25 0 -25 0 0 -20 0 -20 -20 0 -20 0 0 -20 0 -20 -20 0 -20 0 0 -25 0 -25 -20
0 -20 0 0 -20 0 -20 -25 0 -25 0 0 -20 0 -20 -20 0 -20 0 0 -20 0 -20 -20 0
-20 0 0 -25 0 -25 20 0 20 0 0 25 0 25 20 0 20 0 0 -25 0 -25 25 0 25 0 0 25
0 25 20 0 20 0 0 -25 0 -25 20 0 20 0 0 25 0 25 20 0 20 0 0 -25 0 -25 25 0
25 0 0 25 0 25 20 0 20 0 0 -25 0 -25 20 0 20 0 0 25 0 25 20 0 20 0 0 20 0
20 -20 0 -20 0 0 20 0 20 20 0 20 0 0 20 0 20 -20 0 -20 0 0 25 0 25 20 0 20
0 0 20 0 20 -20 0 -20 0 0 20 0 20 20 0 20 0 0 20 0 20 -20 0 -20 0 0 25 0 25
20 0 20 0 0 20 0 20 -20 0 -20 0 0 -20z m0 -90 l0 -20 -20 0 -20 0 0 -20 0
-20 20 0 20 0 0 -20 0 -20 -20 0 -20 0 0 -25 0 -25 20 0 20 0 0 -20 0 -20 -20
0 -20 0 0 -20 0 -20 20 0 20 0 0 -20 0 -20 -20 0 -20 0 0 20 0 20 -20 0 -20 0
0 -20 0 -20 -25 0 -25 0 0 20 0 20 -20 0 -20 0 0 -20 0 -20 -20 0 -20 0 0 20
0 20 -20 0 -20 0 0 -20 0 -20 -25 0 -25 0 0 20 0 20 25 0 25 0 0 20 0 20 20 0
20 0 0 20 0 20 20 0 20 0 0 25 0 25 20 0 20 0 0 20 0 20 25 0 25 0 0 20 0 20
20 0 20 0 0 20 0 20 20 0 20 0 0 -20z"/>
<path d="M1070 920 l0 -20 -25 0 -25 0 0 -25 0 -25 -20 0 -20 0 0 -20 0 -20
-20 0 -20 0 0 -20 0 -20 20 0 20 0 0 20 0 20 20 0 20 0 0 -20 0 -20 25 0 25 0
0 20 0 20 20 0 20 0 0 20 0 20 -20 0 -20 0 0 25 0 25 20 0 20 0 0 20 0 20 -20
0 -20 0 0 -20z m0 -90 l0 -20 -25 0 -25 0 0 20 0 20 25 0 25 0 0 -20z"/>
<path d="M550 490 l0 -20 -20 0 -20 0 0 -20 0 -20 -20 0 -20 0 0 -25 0 -25
-20 0 -20 0 0 -20 0 -20 -25 0 -25 0 0 -20 0 -20 -20 0 -20 0 0 -20 0 -20 -20
0 -20 0 0 -25 0 -25 -20 0 -20 0 0 -20 0 -20 -25 0 -25 0 0 -20 0 -20 -20 0
-20 0 0 -20 0 -20 20 0 20 0 0 20 0 20 25 0 25 0 0 -20 0 -20 20 0 20 0 0 20
0 20 20 0 20 0 0 -20 0 -20 20 0 20 0 0 20 0 20 25 0 25 0 0 -20 0 -20 20 0
20 0 0 20 0 20 20 0 20 0 0 -20 0 -20 20 0 20 0 0 20 0 20 25 0 25 0 0 20 0
20 -25 0 -25 0 0 20 0 20 25 0 25 0 0 25 0 25 -25 0 -25 0 0 20 0 20 25 0 25
0 0 20 0 20 -25 0 -25 0 0 20 0 20 25 0 25 0 0 25 0 25 -25 0 -25 0 0 20 0 20
25 0 25 0 0 20 0 20 -25 0 -25 0 0 -20z m0 -85 l0 -25 -20 0 -20 0 0 -20 0
-20 20 0 20 0 0 -20 0 -20 -20 0 -20 0 0 -20 0 -20 20 0 20 0 0 -25 0 -25 -20
0 -20 0 0 -20 0 -20 20 0 20 0 0 -20 0 -20 -20 0 -20 0 0 20 0 20 -20 0 -20 0
0 -20 0 -20 -20 0 -20 0 0 20 0 20 -25 0 -25 0 0 -20 0 -20 -20 0 -20 0 0 20
0 20 -20 0 -20 0 0 -20 0 -20 -20 0 -20 0 0 20 0 20 20 0 20 0 0 20 0 20 20 0
20 0 0 25 0 25 20 0 20 0 0 20 0 20 25 0 25 0 0 20 0 20 20 0 20 0 0 20 0 20
20 0 20 0 0 25 0 25 20 0 20 0 0 -25z"/>
<path d="M470 320 l0 -20 -20 0 -20 0 0 -20 0 -20 -25 0 -25 0 0 -25 0 -25
-20 0 -20 0 0 -20 0 -20 20 0 20 0 0 20 0 20 25 0 25 0 0 -20 0 -20 20 0 20 0
0 20 0 20 20 0 20 0 0 25 0 25 -20 0 -20 0 0 20 0 20 20 0 20 0 0 20 0 20 -20
0 -20 0 0 -20z m0 -85 l0 -25 -20 0 -20 0 0 25 0 25 20 0 20 0 0 -25z"/>
</g>
</svg>
