<?xml version="1.0" standalone="no"?>
<!DOCTYPE svg PUBLIC "-//W3C//DTD SVG 20010904//EN"
 "http://www.w3.org/TR/2001/REC-SVG-20010904/DTD/svg10.dtd">
<svg version="1.0" xmlns="http://www.w3.org/2000/svg"
 width="468pt" height="468pt" viewBox="0 0 468 468"
 preserveAspectRatio="xMidYMid meet">
<metadata>
Created by potrace 1.8, written by Peter Selinger 2001-2007
</metadata>
<g transform="translate(0,468) scale(0.365625,-0.365625)"
fill="#000000" stroke="none">
<path d="M560 1260 l0 -20 -20 0 -20 0 0 -20 0 -20 -20 0 -20 0 0 -20 0 -20
-240 0 -240 0 0 -500 0 -500 60 0 60 0 0 -20 0 -20 -20 0 -20 0 0 -40 0 -40
-20 0 -20 0 0 -20 0 -20 60 0 60 0 0 40 0 40 20 0 20 0 0 40 0 40 220 0 220 0
0 -40 0 -40 40 0 40 0 0 40 0 40 200 0 200 0 0 -40 0 -40 20 0 20 0 0 -40 0
-40 60 0 60 0 0 20 0 20 -20 0 -20 0 0 40 0 40 -20 0 -20 0 0 20 0 20 40 0 40
0 0 500 0 500 -260 0 -260 0 0 20 0 20 -20 0 -20 0 0 20 0 20 -20 0 -20 0 0
20 0 20 -60 0 -60 0 0 -20z m40 -60 l0 -40 -40 0 -40 0 0 20 0 20 20 0 20 0 0
20 0 20 20 0 20 0 0 -40z m80 20 l0 -20 20 0 20 0 0 -20 0 -20 -40 0 -40 0 0
40 0 40 20 0 20 0 0 -20z m-280 -120 l0 -20 240 0 240 0 0 20 0 20 180 0 180
0 0 -420 0 -420 -600 0 -600 0 0 420 0 420 180 0 180 0 0 -20z m840 -880 l0
-20 -600 0 -600 0 0 20 0 20 600 0 600 0 0 -20z"/>
<path d="M640 1020 l0 -20 -20 0 -20 0 0 -20 0 -20 -20 0 -20 0 0 -20 0 -20
-140 0 -140 0 0 -220 0 -220 60 0 60 0 0 -20 0 -20 -20 0 -20 0 0 -60 0 -60
20 0 20 0 0 20 0 20 20 0 20 0 0 40 0 40 20 0 20 0 0 20 0 20 120 0 120 0 0
-40 0 -40 20 0 20 0 0 40 0 40 120 0 120 0 0 -20 0 -20 20 0 20 0 0 -40 0 -40
20 0 20 0 0 -20 0 -20 20 0 20 0 0 40 0 40 -20 0 -20 0 0 40 0 40 40 0 40 0 0
220 0 220 -160 0 -160 0 0 20 0 20 -40 0 -40 0 0 40 0 40 -60 0 -60 0 0 -20z
m80 -40 l0 -20 20 0 20 0 0 -20 0 -20 -20 0 -20 0 0 20 0 20 -20 0 -20 0 0
-20 0 -20 -20 0 -20 0 0 20 0 20 20 0 20 0 0 20 0 20 20 0 20 0 0 -20z m400
-260 l0 -160 -100 0 -100 0 0 20 0 20 -20 0 -20 0 0 -20 0 -20 -120 0 -120 0
0 20 0 20 -20 0 -20 0 0 -20 0 -20 -140 0 -140 0 0 160 0 160 400 0 400 0 0
-160z"/>
<path d="M720 820 l0 -20 -60 0 -60 0 0 -80 0 -80 20 0 20 0 0 -20 0 -20 20 0
20 0 0 20 0 20 80 0 80 0 0 -20 0 -20 20 0 20 0 0 20 0 20 20 0 20 0 0 80 0
80 -60 0 -60 0 0 20 0 20 -40 0 -40 0 0 -20z m160 -100 l0 -40 -120 0 -120 0
0 40 0 40 120 0 120 0 0 -40z"/>
</g>
</svg>
