<?xml version="1.0" standalone="no"?>
<!DOCTYPE svg PUBLIC "-//W3C//DTD SVG 20010904//EN"
 "http://www.w3.org/TR/2001/REC-SVG-20010904/DTD/svg10.dtd">
<svg version="1.0" xmlns="http://www.w3.org/2000/svg"
 width="468pt" height="468pt" viewBox="0 0 468 468"
 preserveAspectRatio="xMidYMid meet">
<metadata>
Created by potrace 1.8, written by Peter Selinger 2001-2007
</metadata>
<g transform="translate(0,468) scale(0.365625,-0.365625)"
fill="#000000" stroke="none">
<path d="M3 1221 l0 -56 10 -12 9 -13 11 7 10 6 -7 -12 -8 -12 -14 12 -15 12
3 -56 3 -55 13 10 12 11 -10 12 -9 11 42 40 42 39 -23 -26 -24 -27 10 -6 9 -5
21 29 22 29 0 6 0 5 -15 0 -15 0 0 15 0 15 16 0 15 0 -5 9 -6 9 16 13 15 12 9
17 9 17 -73 0 -74 0 1 -56z m31 28 l-5 -9 -10 6 -9 5 6 10 5 9 10 -6 9 -5 -6
-10z m76 17 l0 -5 -10 -6 -10 -6 0 10 0 11 10 0 10 0 0 -4z m-36 -57 l-5 -9
-10 6 -9 5 6 10 5 9 10 -6 9 -5 -6 -10z"/>
<path d="M139 1243 l-34 -36 15 8 15 8 -18 -20 -18 -21 10 -6 10 -6 35 36 35
36 -6 16 -5 17 9 -13 10 -13 13 16 12 15 -24 0 -24 0 -35 -37z"/>
<path d="M233 1265 l6 -14 -11 -7 -11 -7 8 13 8 13 -12 -7 -11 -7 5 -9 5 -8
-17 -13 -17 -14 9 15 9 15 -17 -14 -17 -13 6 -9 5 -9 -10 0 -11 0 -1 -17 -1
-18 -5 14 -5 13 -39 -43 -38 -44 9 -9 10 -10 32 30 31 29 -29 -37 -29 -37 -26
25 -26 25 -12 -15 -12 -14 12 -8 12 -7 -7 11 -7 12 17 0 17 0 -15 -17 -15 -18
-6 -17 -6 -18 -11 0 -10 0 0 -15 0 -15 9 0 9 0 4 18 5 19 17 0 16 0 -18 -21
-19 -21 -7 -13 -7 -12 9 2 10 3 0 -10 1 -10 -14 3 -14 3 0 -63 1 -63 10 -12
10 -13 -11 0 -11 0 2 -31 2 -31 8 -5 8 -4 -2 12 -3 13 15 1 15 0 0 12 0 11 6
6 6 6 0 -16 0 -15 -29 -24 -28 -24 0 -11 0 -11 12 7 11 7 -9 -14 -9 -14 0 -32
-1 -32 13 11 13 10 -7 11 -6 10 10 -6 10 -6 0 14 0 15 -14 -11 -13 -11 0 8 0
9 20 13 21 13 8 -5 8 -5 24 25 24 26 -19 14 -20 14 12 12 12 12 0 -8 0 -8 18
13 17 14 -18 -22 -18 -21 10 -6 10 -6 48 51 48 51 3 9 4 9 9 0 9 0 -13 -32
-13 -33 -20 0 -19 0 1 -17 2 -18 -9 6 -9 5 0 -21 0 -21 12 7 11 7 -8 -13 -8
-13 -12 16 -11 16 -55 -61 -54 -60 -7 -19 -7 -19 -11 0 -10 0 0 -15 0 -15 9 0
9 0 6 23 6 22 27 -29 27 -29 1 -18 2 -18 -8 5 -8 4 -15 -22 -16 -22 0 16 0 17
18 11 17 11 -12 5 -13 6 0 21 0 21 -22 -22 -22 -22 -3 -71 -4 -71 13 -16 13
-16 -12 8 -13 7 0 -26 0 -26 12 7 13 8 -10 -15 -11 -14 -3 -29 -3 -28 14 7 13
8 -13 -14 -12 -13 0 -8 0 -7 15 5 15 6 0 -7 0 -8 -17 -13 -18 -13 19 3 20 3 6
18 7 19 6 -11 7 -10 -19 -17 -19 -17 12 -24 11 -23 6 4 7 4 13 -16 13 -16 3
-19 3 -19 -30 32 -30 33 -10 -15 -9 -15 9 -3 10 -4 0 -9 0 -9 -12 3 -13 2 -3
-29 -4 -30 16 13 16 13 0 -10 0 -10 -15 -6 -15 -5 0 -16 0 -15 9 0 10 0 15 22
15 21 -5 9 -5 8 24 -9 25 -10 7 7 6 7 -10 -28 -11 -27 42 0 41 0 20 18 20 17
-6 -12 -7 -12 11 -7 12 -7 27 32 28 31 7 0 7 0 -12 -15 -12 -14 7 -10 6 -11
-14 6 -15 5 -6 -9 -6 -10 56 -1 57 0 19 24 20 25 8 -5 8 -5 13 18 14 17 -17
-14 -18 -13 0 13 0 14 -10 15 -10 15 -7 -10 -8 -10 -25 -20 -25 -20 20 25 20
25 18 14 19 13 -12 12 -11 11 -34 -40 -34 -39 -5 5 -5 4 43 49 43 48 6 -23 6
-22 15 13 16 12 0 14 0 14 10 0 10 0 0 13 0 14 15 0 15 0 0 -7 0 -6 -13 -13
-12 -14 13 8 13 7 6 -21 5 -21 8 5 7 5 16 -18 17 -18 -43 -41 -42 -41 -25 2
-25 2 -12 -9 -13 -9 0 -10 0 -10 17 13 17 14 -8 -12 -7 -13 21 0 21 0 -7 13
-7 12 14 -12 13 -13 9 0 8 0 -7 12 -7 11 14 -8 14 -9 16 -1 16 -1 0 12 0 12
-15 -6 -15 -5 5 14 5 14 21 -2 21 -3 -5 18 -6 17 10 -14 10 -14 -9 -24 -8 -23
49 2 49 3 -16 17 -16 18 11 0 12 0 0 -11 0 -11 15 6 15 5 -3 -10 -2 -11 35 -4
35 -4 -38 35 -37 35 0 5 0 6 -24 24 -24 23 -11 -11 -11 -11 0 12 0 12 10 0 10
0 -1 8 -1 7 1 13 1 12 16 0 15 0 -6 -9 -5 -10 12 -8 13 -8 25 -30 25 -30 -42
39 -43 40 -4 -5 -5 -4 52 -54 51 -54 50 54 50 54 -7 -17 -6 -17 8 -5 8 -5 42
44 42 44 -1 6 0 5 8 0 7 0 -1 -10 -1 -10 -1 -10 -2 -10 -11 0 -12 0 -23 -27
-23 -27 2 -3 3 -2 22 6 22 5 0 14 0 14 12 -3 12 -2 2 13 2 12 1 12 1 11 7 -6
7 -7 23 22 23 22 -26 27 -26 27 13 7 12 8 -7 -11 -6 -11 8 -5 9 -5 74 81 74
81 11 23 12 23 -39 43 -39 43 0 -17 0 -16 -13 -5 -12 -4 25 -28 25 -28 -21 11
-21 11 -8 -7 -8 -7 7 13 7 12 -16 0 -17 0 26 31 26 31 -7 11 -8 12 -3 -18 -3
-17 -10 0 -10 0 10 18 10 19 -12 14 -12 14 26 -23 25 -22 9 0 9 0 -32 33 -32
33 20 19 20 18 -7 10 -6 10 11 -7 12 -7 0 12 0 12 7 -6 6 -7 -18 -20 -19 -21
-2 -14 -2 -15 9 0 9 0 20 -20 20 -20 -6 0 -6 0 13 -17 14 -18 -17 14 -18 13 0
-9 0 -9 36 -35 35 -34 52 55 51 55 -7 -17 -6 -17 7 -5 8 -5 14 9 14 9 -18 20
-19 21 8 0 8 0 11 -16 12 -15 23 25 24 26 -12 27 -13 27 11 4 11 4 0 21 0 21
-35 -37 -35 -37 -7 0 -6 0 16 18 17 19 -5 6 -5 7 7 -5 7 -5 23 22 23 21 0 15
0 14 -15 -12 -15 -13 7 18 6 18 -17 -6 -17 -7 6 11 7 10 18 -6 18 -6 0 36 0
35 -10 0 -9 0 6 -11 7 -10 -18 -14 -19 -13 -8 5 -8 5 14 22 15 22 -10 18 -10
18 20 -11 21 -11 7 12 7 11 -11 -7 -12 -7 0 10 0 9 12 5 13 5 -25 -2 -26 -2
-14 -9 -15 -9 23 29 23 29 -16 15 -15 15 -31 -29 -31 -30 4 15 3 15 -19 -2
-18 -1 33 36 34 37 10 7 9 7 15 -12 14 -12 4 13 5 12 11 0 10 0 -23 -24 -22
-25 13 -14 14 -14 13 5 13 4 -18 14 -18 14 16 -6 16 -5 1 26 0 25 -10 6 -10 7
13 8 14 8 -12 20 -13 20 10 6 10 6 0 25 0 25 -12 -7 -13 -7 13 14 12 13 0 14
0 14 -17 -13 -18 -14 16 20 17 20 0 26 -1 27 -19 -20 -20 -20 13 -9 14 -9 -33
4 -32 3 -6 -8 -5 -9 12 0 12 0 -18 -20 -18 -19 6 -22 6 -22 -30 29 -29 28 0
13 0 14 -10 -6 -10 -6 0 17 0 16 16 -13 16 -13 10 15 10 14 5 -13 5 -12 9 6
10 6 -11 13 -11 14 -14 -5 -14 -6 -11 7 -12 7 27 28 27 28 -156 -1 -157 -2 -9
-15 -10 -15 0 -9 0 -8 18 21 17 21 14 -9 13 -8 -11 -7 -11 -7 0 11 0 11 -11
-6 -10 -7 5 -13 5 -13 -17 3 -17 3 -21 -20 -22 -20 -6 10 -5 9 24 34 23 35
-30 0 -30 -1 -13 -18 -13 -18 -7 10 -6 11 5 8 5 8 -69 1 -68 1 -23 -24 -22
-24 -10 0 -10 0 24 26 24 26 -60 -4 -60 -3 0 -12 0 -13 -10 1 -10 0 3 15 3 14
-9 0 -10 0 -13 -16 -13 -16 19 -15 20 -15 -22 6 -21 7 -7 -12 -8 -11 13 -8 13
-8 -34 1 -34 2 0 -20 0 -20 9 -12 8 -13 -12 -15 -13 -16 -42 41 -42 41 0 15 0
16 16 -19 16 -20 18 18 17 19 -7 1 -8 1 -10 3 -10 2 -9 1 -9 2 18 20 18 20 8
-6 9 -5 -6 14 -5 15 -24 0 -25 0 7 -12 6 -11 -14 13 -13 12 -9 0 -9 0 5 -15z
m317 1 l0 -4 -15 -6 -15 -5 0 9 0 10 15 0 15 0 0 -4z m70 -7 l0 -11 14 11 14
12 6 -9 6 -10 -41 -46 -40 -46 -7 1 -7 1 -9 -1 -9 -1 19 -22 19 -23 -21 18
-21 18 -19 -28 -18 -28 3 -5 3 -5 9 3 9 2 0 -11 0 -10 -14 -15 -15 -14 -7 0
-6 0 12 15 13 16 -22 23 -23 24 11 7 11 6 -1 -8 -1 -8 1 -8 1 -8 64 73 64 73
-10 13 -10 12 11 0 11 0 0 -11z m170 -20 l0 -7 -13 -5 -14 -5 3 21 2 22 1 5 1
5 10 -15 10 -15 0 -6z m204 10 l-19 -21 3 -4 2 -4 0 -12 0 -13 -10 15 -9 15
21 22 21 23 5 0 5 0 -19 -21z m72 12 l12 10 6 -9 6 -9 -20 -18 -20 -18 0 8 0
7 -14 -12 -15 -11 5 -14 5 -13 -13 -8 -13 -9 -7 -1 -8 -1 -6 -2 -6 -1 12 -16
13 -15 -15 -15 -15 -15 0 15 0 15 9 -5 8 -5 0 10 0 10 -9 5 -8 6 -44 -53 -44
-52 -34 -32 -33 -31 6 -10 6 -10 25 3 25 2 6 -8 5 -9 -30 0 -30 0 -7 -12 -7
-11 17 6 17 7 -6 -10 -6 -10 12 0 12 0 -18 -20 -18 -20 11 0 11 0 6 10 6 10
22 10 22 11 -17 -14 -18 -14 0 -12 0 -11 10 0 9 0 8 13 8 12 20 15 20 15 -14
-17 -13 -18 15 0 15 0 -5 -18 -4 -19 -15 0 -14 0 11 13 10 12 -12 8 -12 7 7
-12 7 -11 -12 2 -13 3 -2 -12 -1 -13 -2 -10 -1 -10 -10 0 -9 0 5 13 5 14 -17
14 -18 14 7 -18 7 -18 -13 -22 -12 -22 -10 -8 -10 -7 23 -19 22 -19 18 3 17 3
4 1 3 1 -13 18 -13 17 8 -7 9 -8 14 18 14 17 -9 -20 -10 -20 -1 -7 -1 -8 0
-10 0 -11 -13 3 -13 3 -2 -7 -3 -7 -39 -41 -38 -40 -11 0 -11 0 18 18 17 19 4
-4 4 -3 24 33 24 32 -21 9 -20 9 0 10 0 9 -14 -11 -14 -12 -6 10 -7 10 31 42
30 42 -12 14 -11 14 -30 -28 -30 -28 22 32 22 32 9 6 10 6 0 7 0 7 -9 14 -9
15 -16 -14 -16 -13 -7 6 -6 6 23 19 23 19 -7 12 -8 12 -14 -11 -13 -12 2 -7 2
-6 -42 -39 -43 -38 0 6 0 6 18 18 17 18 25 29 25 30 20 15 19 15 -7 -12 -7
-12 10 -6 11 -7 40 42 40 42 4 19 4 20 -10 -6 -9 -6 5 -9 5 -9 -9 -5 -10 -6
-5 9 -6 8 22 19 21 19 4 -12 4 -12 69 72 68 72 -9 3 -9 4 0 11 0 11 12 -12 12
-12 12 11z m-300 -100 l-16 -18 6 -16 6 -17 9 5 8 6 -5 17 -6 17 10 -15 11
-14 -11 -13 -10 -13 -31 26 -30 25 -19 24 -18 24 12 7 13 7 -7 -7 -6 -8 17
-17 18 -18 17 -6 17 -7 -7 12 -7 11 10 -6 10 -6 -2 17 -1 17 -8 13 -7 12 -10
-5 -9 -6 -10 6 -9 6 6 16 6 16 35 -37 34 -38 -16 -17z m-270 53 l2 -15 -14 12
-14 11 6 10 6 9 6 -6 6 -6 2 -15z m597 11 l-5 -16 -5 5 -5 5 7 10 6 11 4 0 4
0 -6 -15z m-566 -40 l0 -15 -9 0 -8 0 0 -15 0 -15 -10 0 -9 0 6 17 6 16 -13
-8 -13 -8 7 12 7 11 10 -5 9 -6 0 15 0 16 8 0 9 0 0 -15z m213 6 l0 -10 -10
-6 -10 -6 0 15 0 16 10 0 10 0 0 -9z m109 0 l13 -8 -8 -6 -9 -5 -13 14 -13 14
8 0 8 0 14 -9z m108 -6 l0 -15 -14 11 -13 11 0 4 0 4 13 0 14 0 0 -15z m-517
-21 l10 -25 12 7 11 7 -7 -11 -7 -12 -19 10 -19 10 6 17 6 16 -13 -8 -13 -8 7
11 7 12 5 0 4 0 10 -26z m455 8 l-5 -6 -13 13 -12 12 18 -7 18 -6 -6 -6z m-28
-17 l0 -14 -9 5 -8 5 5 10 6 9 3 0 3 0 0 -15z m233 12 l0 -4 -27 -24 -27 -24
13 18 13 17 -8 1 -9 0 20 9 20 9 3 0 2 1 0 -3z m-870 -11 l0 -5 -10 -6 -10 -6
0 10 0 11 10 0 10 0 0 -4z m430 1 l0 -4 -21 -19 -22 -19 14 23 14 22 7 0 8 0
0 -3z m280 -1 l0 -4 -17 -13 -18 -14 14 18 13 17 4 0 4 0 0 -4z m-547 -51
l-28 -35 -7 0 -8 0 0 10 0 10 10 0 10 0 0 16 0 15 9 -5 9 -6 12 15 12 15 5 0
4 0 -28 -35z m-106 19 l22 -6 -5 -13 -6 -13 -14 -6 -14 -5 -15 5 -15 6 6 10 6
9 16 -13 17 -13 -19 23 -19 22 9 0 9 0 22 -6z m444 -7 l1 -7 -5 -13 -5 -12
-23 23 -24 23 28 -3 28 -4 0 -7z m418 3 l8 0 0 -15 0 -14 -15 -6 -14 -5 11
-14 12 -14 -11 -7 -10 -6 1 8 1 8 -1 10 -1 10 -11 -15 -11 -15 6 18 6 18 -15
5 -14 6 12 19 12 19 13 -5 14 -5 7 0z m-598 -23 l-12 -12 7 18 6 18 6 -6 6 -5
-13 -13z m272 6 l-5 -13 -9 6 -9 5 0 -15 0 -16 -10 0 -10 0 0 5 0 5 11 18 12
19 12 0 13 0 -5 -14z m430 -4 l6 -22 -11 11 -11 11 -13 -17 -12 -17 -8 7 -7 7
24 20 24 20 1 1 2 0 5 -21z m-1082 -12 l-12 -12 7 18 6 18 6 -6 6 -5 -13 -13z
m439 14 l0 -9 -16 -6 -17 -6 13 15 12 15 4 0 4 0 0 -9z m95 -19 l-5 -5 11 -13
10 -12 -11 -7 -10 -6 2 13 3 13 -22 -1 -23 -1 8 11 7 11 1 8 2 7 1 6 1 6 15
-12 15 -13 -5 -5z m335 24 l0 -4 -17 -13 -18 -14 14 18 13 17 4 0 4 0 0 -4z
m-570 -16 l14 -9 -19 -23 -20 -23 -27 -29 -28 -28 7 -11 6 -10 12 16 12 17 13
0 12 0 -5 14 -6 14 15 6 14 5 0 -14 0 -14 -25 -19 -24 -19 6 -7 6 -6 -16 0
-17 0 4 -28 3 -29 -13 -17 -13 -18 -9 6 -10 6 -5 -12 -4 -13 -7 6 -7 6 26 24
25 24 0 17 0 17 -11 7 -11 6 -46 -43 -47 -44 23 26 24 27 -12 7 -12 7 -20 -22
-21 -23 10 -17 11 -17 -13 0 -14 0 2 11 2 11 -15 -3 -15 -4 8 8 7 7 -16 18
-17 19 -10 -7 -10 -6 6 10 7 10 -20 18 -20 18 0 -11 0 -12 -11 0 -11 0 11 14
12 14 -11 7 -10 6 0 -10 0 -11 -10 0 -10 0 0 9 0 10 21 6 20 7 -12 14 -11 14
-7 -4 -7 -5 -1 19 -2 19 13 10 13 11 -5 -25 -4 -25 15 0 15 0 8 -17 8 -18 2
-10 2 -10 1 -13 1 -13 23 6 22 6 -15 -10 -14 -10 19 -21 19 -21 38 38 38 37 5
16 5 15 18 12 19 11 0 -14 0 -13 -10 6 -10 6 5 -13 4 -14 10 -3 9 -3 27 39 27
38 -15 21 -14 21 22 4 23 4 5 1 5 2 15 -10z m390 -27 l0 -15 -14 11 -14 12 -8
-12 -7 -12 11 7 12 7 0 -9 0 -10 -15 -5 -14 -6 -6 9 -5 9 21 20 22 20 9 -5 8
-5 0 -16z m54 -36 l-49 -52 -2 -3 -2 -4 -12 8 -13 7 20 7 19 7 0 14 1 14 12
-2 11 -3 28 35 27 34 5 -5 5 -4 -50 -53z m-267 12 l-3 -18 -9 -8 -8 -8 6 24 6
25 -12 15 -12 16 17 -14 18 -13 -3 -19z m432 7 l-5 -5 -13 22 -13 22 18 -17
18 -18 -5 -4z m-849 4 l11 -20 -3 0 -4 0 -17 20 -17 20 10 0 9 0 11 -20z m50
10 l0 13 6 -6 6 -6 -7 -11 -7 -11 -12 10 -13 11 -8 -8 -8 -7 7 13 8 13 14 -12
14 -11 0 12z m128 -12 l3 -15 -16 0 -15 0 0 20 0 19 13 -4 12 -5 3 -15z m162
3 l-10 -20 10 -6 11 -7 16 6 16 6 -13 -15 -12 -15 8 -1 9 -1 8 1 7 1 0 -14 0
-14 8 -5 7 -4 -12 3 -13 3 0 -7 0 -8 45 -44 45 -44 -1 -11 -1 -10 -5 13 -5 12
-16 0 -17 0 15 -10 15 -9 -29 -30 -29 -30 -7 4 -8 5 -12 -15 -12 -15 13 -1 14
-1 -12 -5 -13 -5 0 -14 0 -15 12 7 11 7 -8 -13 -8 -13 -12 16 -12 16 -40 -44
-41 -45 -11 14 -12 14 13 -2 13 -1 63 66 62 66 -15 13 -15 13 -20 -18 -20 -18
6 -8 5 -8 -20 -18 -20 -17 4 -6 4 -7 -27 -24 -27 -24 23 26 22 25 -6 7 -7 6
24 20 24 20 -9 1 -10 0 33 34 33 34 -21 21 -22 22 -9 -6 -10 -6 0 10 0 10 8 5
9 5 39 -41 39 -42 -17 7 -18 6 0 -5 0 -5 14 -14 14 -14 10 12 10 12 6 21 6 21
-33 37 -33 36 -8 0 -7 0 6 -10 6 -10 -11 0 -11 0 7 22 7 23 -17 -14 -16 -13 0
11 0 11 11 0 11 0 -12 15 -12 15 -8 -5 -9 -5 -5 9 -6 10 9 5 8 6 19 -21 19
-21 20 -10 20 -10 -37 38 -38 39 18 12 17 12 3 0 3 1 -11 -19z m695 -1 l0 -15
-14 0 -14 0 -3 18 -2 18 16 -3 17 -3 0 -15z m-967 -27 l-26 -28 3 -18 3 -18
-14 12 -15 12 23 26 23 26 10 7 10 8 4 0 5 0 -26 -27z m458 15 l7 -13 -8 8 -9
7 -27 -26 -28 -27 6 -11 6 -11 -8 7 -8 8 -16 -12 -16 -12 35 39 35 40 10 7 10
8 2 0 2 0 7 -12z m234 -9 l-12 -21 -5 6 -6 6 -12 -10 -12 -10 0 15 0 14 9 -5
8 -5 6 15 6 16 14 0 15 0 -11 -21z m161 -12 l-24 -22 8 15 8 15 10 13 10 12 5
-5 6 -6 -23 -22z m-81 6 l0 -5 -14 5 -15 6 -11 -15 -12 -14 8 -1 9 -1 10 2 10
2 -7 -8 -8 -7 13 -16 12 -16 -15 11 -15 12 -12 -13 -12 -13 6 -6 6 -6 -18 0
-17 0 12 15 12 15 -10 13 -11 13 7 9 7 10 20 11 20 11 13 -4 12 -5 0 -5z
m-968 -15 l-12 -12 0 10 0 11 7 6 6 7 6 -5 5 -5 -12 -12z m118 18 l0 -5 -10
-6 -10 -6 0 10 0 11 10 0 10 0 0 -4z m-150 -54 l0 -17 10 15 9 15 -2 -22 -1
-22 -5 5 -5 4 -35 -32 -36 -33 33 36 33 36 -15 13 -16 12 6 9 5 9 10 -5 9 -6
0 -17z m447 -16 l-2 -11 13 3 13 2 -6 -11 -7 -11 -29 28 -28 27 5 9 6 9 19
-17 18 -16 -2 -12z m429 12 l29 -32 -16 12 -17 13 -15 -16 -16 -15 -7 0 -6 0
12 15 13 16 -11 11 -12 12 0 8 0 8 8 0 8 0 30 -32z m174 18 l0 -4 -17 -13 -18
-14 14 18 13 17 4 0 4 0 0 -4z m-640 -41 l10 6 0 -9 0 -8 -30 -29 -30 -29 -7
7 -6 7 11 0 12 0 0 15 0 15 8 -1 7 -1 9 1 9 1 -19 22 -19 23 17 -14 17 -13 11
7z m600 -39 l0 -11 -25 27 -25 27 0 7 0 7 25 -23 25 -23 0 -11z m-419 27 l14
-18 -17 14 -18 13 0 4 0 4 4 0 4 0 13 -17z m468 -36 l1 -8 -10 6 -10 6 0 -6 0
-6 11 -21 11 -20 -10 6 -10 6 -5 -7 -4 -8 3 12 3 12 -9 6 -10 6 -1 -23 -1 -23
0 -6 1 -6 -22 -21 -23 -22 -1 22 -2 21 -10 10 -11 11 -20 -19 -20 -18 5 -7 5
-7 -20 -18 -20 -18 5 -7 4 -7 -13 0 -14 0 2 14 2 13 36 38 35 37 6 17 6 17
-15 11 -14 12 0 -7 0 -7 -15 12 -15 12 6 9 5 9 11 0 10 0 -6 -16 -6 -15 9 6
10 5 25 -25 26 -26 0 -6 0 -5 -17 13 -16 14 12 -22 12 -23 8 0 7 0 26 39 26
39 -22 23 -21 22 32 -24 32 -24 0 -8z m-978 6 l24 -27 -17 13 -18 13 0 -7 0
-7 -15 12 -15 12 6 9 5 9 3 0 3 0 24 -27z m279 7 l0 -10 -10 0 -10 0 0 10 0
10 10 0 10 0 0 -10z m82 3 l-13 -5 9 -11 9 -12 5 -15 6 -16 -24 0 -23 0 10 12
10 12 -12 8 -12 7 8 -13 8 -13 -11 7 -12 7 -2 -18 -1 -18 -1 -12 -1 -13 -10 1
-10 0 3 22 4 22 26 28 26 27 10 -1 11 -1 -13 -5z m248 4 l0 -4 -24 -22 -24
-23 -7 13 -8 12 10 -6 10 -7 18 20 18 20 4 0 3 0 0 -3z m-666 -20 l7 7 -9 -24
-9 -25 -27 -3 -28 -3 5 -13 5 -13 -11 0 -12 0 0 28 -1 27 19 -10 19 -10 12 13
11 12 -17 -6 -18 -6 0 7 0 8 12 12 12 12 11 -10 12 -10 7 7z m103 -32 l0 -14
-10 6 -10 6 6 -17 7 -17 -11 7 -10 6 -25 -23 -24 -22 0 7 0 8 25 30 25 30 0
-8 0 -8 12 12 12 12 1 0 2 0 0 -15z m619 -20 l-5 -15 -13 2 -13 3 3 -13 2 -13
-27 -25 -28 -26 17 5 16 6 6 -14 5 -14 -17 -13 -16 -13 6 10 6 10 -13 12 -13
12 -14 -16 -13 -17 16 6 16 6 14 -26 13 -27 5 -10 4 -10 -29 25 -29 25 -3 8
-4 7 -16 17 -17 17 18 -7 17 -7 25 22 25 22 0 13 0 13 -11 -2 -11 -3 -4 10 -4
11 14 19 15 20 -2 -20 -2 -20 15 4 15 4 13 0 13 0 -5 13 -5 12 7 7 7 6 3 -11
4 -11 -6 -14z m366 8 l-5 -26 16 6 15 6 6 -14 5 -14 -15 -12 -15 -12 6 -16 6
-16 -25 24 -26 24 0 -11 0 -11 -15 5 -16 6 12 14 12 15 17 -16 17 -15 7 0 7 0
-5 9 -6 9 12 6 13 5 -19 -2 -18 -2 -9 23 -9 23 9 -5 9 -6 6 15 5 15 4 0 4 0
-5 -27z m-760 -15 l-12 -12 0 -8 0 -8 8 3 7 2 0 -10 0 -10 -9 3 -9 3 -21 -20
-21 -20 -7 0 -8 -1 -1 -7 -1 -8 -10 -12 -10 -13 -8 5 -8 5 11 -24 12 -24 9 5
9 6 -8 -13 -8 -13 -41 44 -42 44 0 14 -1 13 18 -23 18 -24 18 -1 18 -1 2 26 1
26 -14 -19 -14 -20 -7 7 -7 7 20 14 19 14 11 -9 11 -9 22 30 22 30 -11 0 -10
0 0 11 0 10 9 -5 9 -6 12 16 13 15 11 -11 10 -10 -12 -12z m-64 -16 l-3 -15
-15 -4 -15 -5 15 11 15 11 -13 0 -13 0 7 13 8 12 -17 -14 -17 -13 -1 3 -1 4
-3 17 -3 16 30 -10 29 -10 -3 -16z m-238 12 l0 -4 -15 0 -15 0 0 10 0 9 15 -5
15 -6 0 -4z m427 0 l-6 -6 -13 5 -13 5 19 1 19 1 -6 -6z m-242 -24 l6 -10 -6
-10 -6 -9 -14 5 -14 6 6 14 5 14 8 0 9 0 6 -10z m430 -21 l-6 -8 -14 6 -15 5
0 7 0 8 7 6 6 7 13 -11 14 -11 -5 -9z m130 22 l5 -10 -8 -5 -9 -5 0 14 0 15 3
0 3 0 6 -9z m-378 -16 l0 -14 -9 5 -8 5 5 10 6 9 3 0 3 0 0 -15z m540 -15 l-3
-19 -8 -8 -8 -8 -11 0 -12 -1 3 -12 2 -12 -13 0 -13 0 -17 -30 -18 -30 8 -1 8
-1 8 1 7 1 0 -10 0 -10 -8 0 -8 0 -12 12 -12 12 -20 -19 -20 -18 0 -12 0 -11
-31 -23 -30 -22 4 -12 4 -12 10 0 11 0 7 -6 6 -7 -26 -4 -25 -5 -6 8 -5 9 -23
-25 -23 -25 -8 0 -7 0 12 15 12 14 -7 11 -7 12 -19 -21 -20 -21 -6 0 -5 0 33
38 34 39 18 12 17 11 -2 -11 -3 -12 11 -4 12 -4 23 33 24 33 0 16 0 16 14 17
14 17 13 -5 13 -5 53 59 53 59 2 0 3 1 -3 -20z m-556 -7 l14 -18 -17 14 -18
13 0 4 0 4 4 0 4 0 13 -17z m749 -8 l-12 -14 8 -12 7 -12 -10 6 -11 7 -10 -13
-9 -12 2 -17 3 -18 -4 0 -5 0 -23 23 -24 22 -17 30 -17 30 20 -23 21 -23 9 17
9 16 22 -11 21 -12 1 6 2 5 2 10 3 10 1 6 1 5 10 -6 11 -7 -11 -13z m-795 -13
l-3 -4 16 -18 16 -19 9 6 10 6 -7 -12 -8 -12 -12 10 -13 11 -5 -6 -6 -5 -6 26
-6 25 -10 0 -10 0 0 10 0 10 20 -12 19 -12 -4 -4z m-335 -15 l0 -4 -22 -19
-23 -19 19 23 19 22 4 0 3 0 0 -3z m565 -6 l5 -10 -10 -6 -10 -6 0 15 0 16 4
0 5 0 6 -9z m417 -20 l-17 -18 -3 3 -4 2 12 21 11 22 9 -6 9 -6 -17 -18z
m-874 -20 l-33 -40 -4 4 -4 4 29 35 29 35 8 0 8 1 -33 -39z m742 34 l0 -3 -13
-11 -14 -11 0 13 0 14 14 0 13 0 0 -2z m270 -15 l0 -10 -4 0 -5 0 -6 10 -6 10
10 0 11 0 0 -10z m-1070 -25 l-12 -15 -9 6 -9 5 6 10 5 9 10 -5 9 -6 0 12 0
12 6 -6 7 -7 -13 -15z m152 10 l6 0 6 -6 6 -5 -38 -37 -38 -37 -25 27 -24 28
26 -23 27 -24 6 11 6 10 -10 6 -11 7 12 14 11 14 12 -7 11 -7 -12 16 -13 15 6
6 7 6 11 -7 11 -7 7 0z m697 -11 l-16 -15 0 15 0 15 9 -5 8 -5 0 12 0 12 7 -7
7 -6 -15 -16z m154 10 l7 -1 7 -2 6 -1 -18 -20 -18 -20 -12 10 -12 10 -6 -6
-6 -7 12 26 12 25 10 -6 10 -7 8 -1z m-540 -27 l-28 -34 -4 3 -4 4 16 18 17
19 -7 8 -8 8 12 -7 12 -6 6 10 6 10 6 0 5 0 -29 -33z m111 27 l16 -6 0 -9 0
-8 -18 -10 -18 -10 -12 8 -13 8 7 16 6 17 8 0 8 0 16 -6z m-335 -30 l-22 -23
-10 6 -10 6 22 9 22 8 -5 8 -5 9 15 0 14 0 -21 -23z m80 -8 l14 -9 -8 14 -8
14 13 -12 14 -13 -16 -17 -15 -18 12 -22 12 -22 13 12 14 12 -13 -17 -12 -16
18 -4 18 -3 0 -20 0 -20 13 3 13 2 -7 -12 -7 -12 -34 39 -33 39 -19 -21 -20
-21 6 -6 6 -6 -11 0 -11 0 -5 8 -5 8 20 15 21 14 9 17 9 16 -20 -5 -20 -5 -20
-25 -19 -25 11 -18 12 -19 10 6 9 6 -7 -11 -6 -11 20 -6 20 -6 12 6 13 6 -19
-15 -18 -15 7 -11 7 -11 25 26 26 25 11 0 11 0 -14 -9 -13 -8 11 -8 12 -7 -6
-19 -6 -19 15 0 16 0 0 -10 0 -10 -9 0 -9 0 -11 14 -12 14 -17 -3 -17 -3 2 -9
2 -10 -13 0 -13 0 1 21 1 21 -17 -1 -18 -2 0 10 0 10 -15 -12 -15 -12 5 -9 5
-8 20 4 20 4 0 -8 0 -7 -11 -11 -11 -11 7 -11 6 -11 11 6 11 7 -7 -12 -8 -12
-13 11 -13 11 -7 -11 -7 -11 12 -14 11 -14 20 4 20 4 -6 -10 -6 -9 -13 0 -14
0 -12 15 -13 16 -13 -5 -13 -5 -6 9 -6 9 20 18 20 17 -11 13 -10 13 6 0 7 0
-7 11 -6 11 -9 -13 -9 -14 0 11 0 11 20 26 20 25 0 9 0 9 -11 11 -11 11 -41
-45 -41 -44 -18 -10 -18 -10 2 8 3 8 -10 3 -10 2 0 -19 0 -19 -19 -21 -18 -20
-12 2 -11 2 3 -19 3 -18 -10 7 -11 6 0 -15 0 -16 -7 2 -8 3 -33 -29 -32 -29
16 -18 15 -17 -9 -6 -9 -5 -27 28 -26 27 27 25 28 24 -23 -26 -22 -25 6 -7 7
-7 43 48 44 47 -5 13 -5 13 11 -6 10 -7 15 13 15 12 -5 13 -5 13 13 -5 14 -5
15 30 15 31 -23 19 -24 18 3 4 3 4 -19 18 -18 17 0 -15 0 -15 -10 0 -10 0 0 9
0 10 10 6 10 6 -6 10 -6 10 -14 -18 -13 -18 -1 11 0 12 14 11 13 11 47 -50 47
-50 8 0 8 0 39 49 39 49 19 12 18 11 -6 -9 -6 -10 13 -5 12 -5 39 39 38 39
-13 1 -14 1 -10 3 -10 2 -8 1 -8 2 6 10 6 10 17 -3 17 -3 14 -8z m396 -16 l4
-23 -6 7 -6 6 -19 -17 -18 -16 -1 4 -1 4 -3 18 -4 19 21 -5 20 -6 -6 14 -5 13
6 6 6 6 4 -4 4 -3 4 -23z m-745 14 l0 -3 -9 -6 -10 -5 -5 8 -5 9 14 0 15 0 0
-3z m420 -4 l0 -10 -11 0 -10 0 6 10 6 10 5 0 4 0 0 -10z m565 -23 l8 8 -7
-13 -8 -13 -17 15 -18 16 -5 -5 -5 -5 0 15 0 15 22 -20 21 -20 9 7z m-447 -2
l-6 -6 -6 18 -7 18 12 -12 13 -13 -6 -5z m-505 -5 l-5 -20 -9 0 -9 0 0 8 0 8
12 12 12 12 2 0 2 0 -5 -20z m138 -3 l-12 -12 7 18 6 18 6 -6 6 -5 -13 -13z
m126 6 l4 -11 -16 -5 -15 -6 0 20 0 21 12 -4 12 -4 3 -11z m304 -6 l-12 -12 7
18 6 18 6 -6 6 -5 -13 -13z m45 5 l0 -18 -19 -1 -19 -2 17 20 18 19 1 0 2 0 0
-18z m507 3 l2 -10 -16 -3 -16 -3 0 16 0 16 14 -3 14 -3 2 -10z m-1183 -4 l0
-9 -16 -6 -17 -6 13 15 12 15 4 0 4 0 0 -9z m430 0 l0 -9 -16 -6 -17 -6 13 15
12 15 4 0 4 0 0 -9z m-218 -34 l-32 -33 7 -9 8 -8 -12 7 -13 7 0 -10 0 -11
-11 0 -10 0 38 45 38 44 9 1 10 0 -32 -33z m273 23 l-6 -10 13 -1 13 -1 15 1
15 2 -10 -8 -10 -8 0 -17 0 -17 15 -13 14 -13 -12 17 -13 16 11 7 10 6 0 -15
0 -16 13 -1 12 -1 -12 -5 -13 -5 0 -10 0 -9 23 6 22 6 -14 -9 -14 -10 16 -16
16 -16 13 3 13 4 -7 -4 -8 -5 12 -21 11 -22 -15 13 -16 13 -7 -11 -6 -10 13
-1 13 -1 -12 -5 -13 -5 0 -12 0 -12 -43 -42 -43 -42 -7 6 -7 7 0 -14 0 -15 13
-14 12 -14 -18 14 -18 13 -27 -26 -27 -26 -15 9 -14 9 16 18 16 18 -3 18 -3
17 9 -6 9 -5 0 10 0 10 41 48 42 48 13 3 12 3 7 -10 6 -11 -13 5 -14 6 -28
-30 -28 -29 2 -7 2 -7 -21 -24 -21 -24 7 0 6 0 -21 -23 -22 -23 6 -7 7 -7 41
47 41 47 23 25 23 24 -13 9 -13 9 19 -3 20 -3 14 26 15 26 -36 38 -37 39 0
-12 0 -12 -15 0 -15 0 0 -7 0 -7 23 -24 22 -25 -30 19 -30 18 -4 3 -4 3 22 24
23 25 -7 10 -6 11 12 0 13 0 -29 30 -29 30 18 0 17 0 -6 -10z m588 -14 l-18
-24 -4 4 -4 4 18 20 18 20 4 0 4 0 -18 -24z m-938 5 l5 -10 -10 -6 -10 -6 0
15 0 16 4 0 5 0 6 -9z m847 -13 l-12 -12 0 10 0 11 7 6 6 7 6 -5 5 -5 -12 -12z
m-952 1 l0 -10 12 7 11 7 -7 -11 -7 -11 -14 6 -15 5 0 9 0 9 10 0 10 0 0 -11z
m55 1 l-6 -10 9 0 10 0 18 -27 18 -28 -36 30 -37 30 0 8 -1 7 16 0 15 0 -6
-10z m375 -5 l13 -15 -17 6 -16 6 0 9 0 9 4 0 4 0 12 -15z m345 -15 l-15 -17
7 -19 7 -19 -15 15 -15 15 -2 10 -2 10 13 0 12 0 1 13 2 12 1 6 1 5 11 -6 10
-7 -16 -18z m75 20 l0 -10 -11 0 -10 0 6 10 6 10 5 0 4 0 0 -10z m-253 -18
l-17 -18 13 -14 12 -14 -18 13 -18 14 17 18 17 19 5 0 5 0 -16 -18z m215 6
l-12 -12 0 -9 0 -8 11 6 10 7 6 -21 5 -21 8 5 9 5 6 -9 6 -10 -22 4 -22 4 -40
-40 -40 -40 -13 5 -13 5 -6 -9 -6 -10 25 0 26 0 0 -10 0 -11 -15 -5 -15 -6 6
-9 5 -9 9 5 9 5 5 -9 6 -10 -9 -5 -10 -6 -6 10 -6 10 -10 -6 -10 -6 6 -21 6
-22 -9 13 -9 13 -16 -7 -17 -6 0 10 0 11 13 13 14 14 -2 24 -2 25 9 12 9 12
17 -6 17 -5 -14 10 -14 10 8 13 8 14 -31 -29 -32 -30 0 13 0 13 -15 -12 -16
-13 13 -8 13 -9 -14 0 -13 0 5 -15 6 -14 -10 -7 -10 -6 14 -16 14 -17 11 -20
10 -21 -20 -1 -20 -2 14 17 13 17 -17 -14 -18 -13 0 9 0 9 13 14 12 15 -28
-24 -27 -25 12 -7 12 -8 7 5 8 4 6 -20 6 -20 10 6 9 5 -6 11 -7 11 12 -7 12
-8 -11 -13 -12 -14 -23 11 -23 10 -13 24 -12 24 -9 0 -8 0 0 18 1 17 14 -18
13 -19 21 21 21 21 -7 1 -8 1 -10 2 -10 1 0 10 0 10 13 -1 12 -2 0 5 0 4 -11
22 -12 22 8 -7 8 -7 19 24 19 24 14 -5 13 -6 11 20 10 20 16 6 16 6 -5 -8 -5
-8 8 -12 8 -13 16 7 17 6 0 8 0 9 16 16 16 16 -12 14 -12 15 12 15 12 15 6 0
6 0 -12 -12z m-752 -124 l0 -6 -13 11 -14 11 -8 -8 -8 -7 7 13 7 12 -15 0 -15
0 5 15 6 15 -11 0 -11 0 0 13 0 12 35 -37 35 -37 0 -7z m320 55 l0 -9 -9 0 -9
0 -5 14 -6 15 15 -6 14 -5 0 -9z m451 -28 l-13 -8 10 -7 11 -7 -6 -15 -6 -15
19 -14 19 -14 -11 -1 -12 0 -12 15 -12 15 -9 -6 -9 -5 0 6 0 6 11 22 10 22
-25 -29 -24 -29 5 -16 6 -16 -7 7 -8 6 -2 18 -3 18 31 28 30 28 11 0 10 0 -14
-9z m-911 -5 l0 -5 -10 -6 -10 -6 0 10 0 11 10 0 10 0 0 -4z m50 -41 l-13 -15
-16 2 -16 3 2 -11 2 -11 -14 0 -15 0 10 12 10 11 -13 14 -12 13 11 -6 11 -7
18 21 19 20 14 -15 15 -15 -13 -16z m270 31 l0 -4 -17 -13 -18 -14 14 18 13
17 4 0 4 0 0 -4z m-150 -37 l0 -10 -9 5 -9 6 -31 -26 -31 -25 3 -7 2 -7 -17
-24 -18 -25 -7 8 -8 8 20 14 20 15 -3 5 -3 5 28 32 28 33 18 1 17 2 0 -10z
m812 -24 l-37 -33 -4 3 -3 4 23 29 24 28 17 1 16 2 -36 -34z m-902 4 l0 -9
-10 0 -10 0 0 16 0 15 10 -6 10 -6 0 -10z m218 -1 l-3 -21 13 -4 12 -5 -6 16
-6 16 10 0 11 0 5 -9 6 -9 -15 -12 -15 -13 -20 18 -20 18 11 14 11 13 5 0 4 0
-3 -22z m462 -12 l0 -15 -11 -6 -10 -7 -5 5 -4 4 6 17 6 16 9 0 9 0 0 -14z
m-466 -37 l26 -31 0 -8 0 -9 -8 -5 -8 -5 -13 8 -13 9 11 6 11 7 0 11 0 11 -20
-18 -20 -18 0 -9 0 -9 8 5 9 5 13 -24 13 -24 9 5 8 5 -5 10 -6 9 10 0 11 0 0
-9 0 -9 -14 -11 -15 -12 -40 42 -41 41 0 10 0 10 15 -5 14 -6 6 9 5 9 -10 6
-10 6 5 10 6 9 9 0 8 0 26 -31z m-275 -12 l11 -14 -23 -22 -24 -21 0 15 0 15
5 -5 5 -5 14 11 13 12 -11 13 -11 14 5 0 5 0 11 -13z m840 -33 l-22 -23 -9 5
-8 5 6 11 7 11 -19 -7 -19 -7 12 12 12 12 14 -12 14 -11 11 13 12 13 -13 14
-12 14 18 -13 18 -14 -22 -23z m71 21 l0 -15 -9 0 -10 0 -5 9 -5 8 6 7 6 6 9
0 8 0 0 -15z m-730 -33 l0 -8 -33 -32 -34 -33 0 16 0 15 5 -5 5 -5 19 17 18
16 0 14 0 13 10 0 10 0 0 -8z m215 -2 l6 -10 12 6 12 7 -7 -8 -8 -8 -27 -3
-28 -2 13 5 12 5 -6 9 -5 9 10 0 10 0 6 -10z m215 6 l0 -5 -10 -6 -10 -6 0 10
0 11 10 0 10 0 0 -4z m273 -13 l-5 -14 -14 12 -14 11 0 2 0 2 19 0 19 0 -5
-13z m-99 -25 l-19 -22 -12 -13 -12 -13 -11 0 -11 0 38 35 38 35 4 0 4 0 -19
-22z m-689 -7 l-6 -11 -10 0 -10 0 13 14 13 14 4 -3 3 -4 -7 -10z m154 3 l3
-3 -5 -15 -6 -16 -26 2 -25 2 0 8 0 7 10 6 10 6 -6 11 -7 10 24 -7 24 -7 4 -4z
m421 1 l13 -15 -7 -7 -7 -7 -21 22 -22 22 16 0 16 0 12 -15z m-335 -25 l-18
-20 -14 0 -14 0 6 10 6 10 10 -5 9 -6 0 15 0 14 13 5 12 4 4 -3 4 -4 -18 -20z
m206 -14 l-21 -22 0 -11 0 -11 -15 -12 -15 -12 5 -8 5 -8 -18 5 -19 4 0 15 0
14 6 -5 5 -5 37 36 38 37 -6 10 -6 10 12 -8 13 -7 -21 -22z m114 6 l-5 -5 13
-16 12 -16 -16 12 -16 13 -8 -8 -8 -7 7 12 6 12 -10 6 -10 6 6 10 6 10 14 -12
14 -12 -5 -5z m-225 -8 l0 -14 -11 0 -10 0 6 9 5 10 -10 6 -10 6 2 -12 3 -13
-13 -1 -14 0 -12 -17 -13 -18 -12 0 -11 0 0 14 0 15 10 6 10 6 0 -11 0 -11 10
6 11 7 -13 16 -13 15 22 -5 23 -6 5 9 6 8 14 -6 15 -5 0 -14z m419 -10 l-11
-14 -11 7 -12 7 -17 1 -18 2 2 -15 3 -15 -12 -4 -13 -5 0 20 0 20 18 7 17 8
13 3 14 2 5 6 6 6 14 -11 13 -12 -11 -13z m-388 -15 l-20 -22 6 -10 6 -10 -12
7 -12 8 14 21 13 22 9 15 9 14 4 -12 3 -11 -20 -22z m-268 -2 l7 6 0 -6 0 -6
-9 -5 -8 -5 -24 27 -24 27 26 -23 25 -22 7 7z m406 -1 l-5 -5 -13 22 -13 22
18 -17 18 -18 -5 -4z m-368 -9 l-12 -12 7 18 6 18 6 -6 6 -5 -13 -13z m-201 9
l0 -4 -17 -13 -18 -14 14 18 13 17 4 0 4 0 0 -4z m76 -26 l14 0 0 -7 0 -8 25
-29 25 -29 27 24 27 24 -14 -20 -15 -20 -11 -12 -12 -12 -17 19 -18 20 -5 -5
-6 -5 29 -30 29 -30 -7 -7 -7 -6 0 11 0 12 -16 0 -15 0 5 9 6 8 -20 18 -20 18
0 -11 0 -12 -11 0 -11 0 11 13 11 14 -7 6 -6 7 -13 -18 -13 -17 -1 18 0 17 11
0 10 0 -6 10 -6 10 -9 -5 -8 -5 -16 16 -16 16 6 10 6 10 39 -38 39 -38 6 7 7
6 -32 27 -31 26 7 11 8 12 3 -17 3 -18 15 0z m158 15 l-6 -15 -10 0 -10 0 12
15 12 15 4 0 3 0 -5 -15z m436 12 l0 -4 -27 -24 -28 -24 24 28 24 27 4 0 3 0
0 -3z m47 -42 l0 -15 -9 0 -8 0 0 8 0 9 7 6 6 7 2 0 2 0 0 -15z m-122 -45 l6
-10 -10 0 -11 0 0 10 0 10 4 0 5 0 6 -10z m-534 -47 l34 -37 -16 12 -16 12 -5
-5 -5 -5 -13 15 -12 15 7 0 7 0 -12 15 -12 15 4 0 4 0 35 -37z m436 26 l-18
-11 12 -14 11 -14 -21 0 -21 0 0 7 0 6 17 19 16 18 11 0 11 -1 -18 -10z m-517
-9 l0 -10 -11 0 -10 0 6 10 6 10 5 0 4 0 0 -10z"/>
<path d="M617 1230 l-27 -30 8 0 8 0 22 30 23 30 -4 0 -4 0 -26 -30z"/>
<path d="M1059 1243 l-14 -18 18 14 17 13 0 4 0 4 -4 0 -4 0 -13 -17z"/>
<path d="M805 960 l6 -10 10 0 10 0 -6 10 -6 10 -10 0 -10 0 6 -10z"/>
<path d="M827 913 l-7 -6 0 -11 0 -10 12 12 12 12 -5 5 -6 5 -6 -7z"/>
<path d="M454 1082 l6 -10 -17 -4 -18 -3 11 -8 12 -7 11 14 12 14 -12 8 -12 7
7 -11z"/>
<path d="M165 980 l6 -10 5 0 4 0 0 10 0 10 -11 0 -10 0 6 -10z"/>
<path d="M326 958 l-18 -20 10 -10 10 -10 7 21 6 21 10 -5 9 -6 0 10 0 10 -8
5 -8 5 -18 -21z"/>
<path d="M380 960 l0 -10 11 0 10 0 -6 10 -6 10 -5 0 -4 0 0 -10z"/>
<path d="M379 883 l-14 -18 18 14 17 13 0 4 0 4 -4 0 -4 0 -13 -17z"/>
<path d="M639 823 l-24 -28 28 24 27 24 0 4 0 3 -3 0 -4 0 -24 -27z"/>
<path d="M1005 990 l6 -10 10 0 10 0 -6 10 -6 10 -10 0 -10 0 6 -10z"/>
<path d="M480 986 l0 -4 18 -13 17 -14 -14 18 -13 17 -4 0 -4 0 0 -4z"/>
<path d="M959 783 l-14 -18 18 14 17 13 0 4 0 4 -4 0 -4 0 -13 -17z"/>
<path d="M883 668 l-7 -13 -2 -13 -2 -14 19 18 19 17 0 9 0 8 -9 0 -10 0 -8
-12z"/>
<path d="M766 551 l-17 -19 8 -5 9 -6 14 9 14 9 13 -11 13 -10 0 6 0 7 -18 20
-19 19 -17 -19z"/>
<path d="M1151 747 l-12 -15 15 -5 15 -6 5 7 5 8 -8 12 -8 13 -12 -14z"/>
<path d="M275 670 l-6 -10 -9 5 -9 5 -5 -9 -6 -10 9 -5 8 -6 18 20 18 20 -6 0
-6 0 -6 -10z"/>
<path d="M1118 673 l13 -5 6 6 6 6 -19 -1 -19 -1 13 -5z"/>
<path d="M342 554 l-12 -13 0 -7 0 -6 -37 -33 -38 -34 11 -11 11 -11 32 36 31
36 0 9 0 9 20 6 20 6 0 9 0 8 -13 5 -12 4 -13 -13z"/>
<path d="M385 464 l-18 -29 23 20 22 20 7 -2 6 -1 5 5 5 6 -12 -6 -11 -7 -4
11 -4 12 -19 -29z"/>
<path d="M476 451 l-18 -20 19 5 20 5 0 15 0 14 -2 0 -2 0 -17 -19z"/>
<path d="M70 246 l0 -4 18 -13 17 -14 -14 18 -13 17 -4 0 -4 0 0 -4z"/>
<path d="M594 348 l-29 -33 33 29 32 30 0 3 0 3 -3 0 -3 0 -30 -32z"/>
<path d="M45 440 l6 -10 10 5 9 6 0 5 0 4 -16 0 -15 0 6 -10z"/>
<path d="M287 344 l-18 -24 6 0 5 0 20 20 19 19 -7 5 -7 4 -18 -24z"/>
<path d="M883 225 l0 -14 9 5 8 5 -5 10 -6 9 -3 0 -3 0 0 -15z"/>
<path d="M335 1270 l-6 -10 12 2 13 3 4 -20 4 -19 -13 10 -14 11 -17 0 -18 0
0 -8 0 -8 12 -7 12 -8 4 12 4 12 9 -6 9 -5 -30 -32 -30 -32 0 -7 0 -8 12 3 11
2 13 -23 12 -24 7 13 8 12 -16 12 -16 12 12 13 12 13 -12 -7 -13 -7 0 9 0 10
18 8 17 7 7 -1 7 -2 -5 14 -5 13 17 7 16 6 -13 17 -14 17 12 -7 12 -7 5 8 5 8
-29 2 -29 2 -6 -10z"/>
<path d="M1183 1259 l-6 -20 -12 4 -12 5 0 -14 0 -13 8 4 7 5 12 -15 13 -16
23 22 23 21 -2 17 -1 17 -24 2 -24 2 -5 -21z m25 -26 l-10 -13 -9 6 -9 5 11
21 11 21 9 -14 8 -13 -11 -13z"/>
<path d="M1146 1171 l-6 -9 17 -6 16 -7 11 12 11 12 -12 -7 -13 -7 0 10 0 11
-9 0 -10 0 -5 -9z"/>
<path d="M1186 969 l-27 -30 7 -10 6 -11 20 21 19 21 -6 10 -6 10 15 -6 16 -6
0 10 0 11 -9 5 -8 5 -27 -30z"/>
<path d="M1254 908 l-19 -23 23 19 22 19 0 4 0 3 -3 0 -4 0 -19 -22z"/>
<path d="M45 670 l6 -10 5 0 4 0 0 10 0 10 -11 0 -10 0 6 -10z"/>
<path d="M1199 505 l-72 -75 -14 12 -13 11 -6 -5 -5 -6 -2 -21 -1 -21 -16 0
-15 0 12 -8 13 -8 -43 -40 -42 -39 29 33 30 32 -10 0 -10 0 -24 -32 -25 -33 3
-8 2 -8 -8 5 -9 5 -22 -30 -22 -29 6 -10 6 -10 12 7 12 7 -52 -59 -53 -59 13
-8 12 -8 -25 0 -26 0 -11 -11 -11 -11 -7 12 -7 12 -36 -34 -36 -33 22 29 22
28 -6 10 -6 10 -31 -30 -30 -31 13 -18 14 -18 -14 13 -14 12 -10 0 -9 0 18
-20 18 -20 10 0 10 0 21 17 21 18 -13 -17 -13 -16 58 0 58 1 14 15 15 14 5
-13 6 -14 15 -3 14 -3 -18 20 -19 21 7 7 7 7 17 -11 17 -11 -3 -16 -3 -16 40
0 40 0 7 12 7 11 -13 -8 -13 -8 6 10 7 11 -15 12 -15 12 0 -8 0 -8 -12 12 -12
12 -2 17 -3 16 15 21 14 20 0 -10 0 -10 -12 -12 -13 -13 14 -8 14 -9 -8 -12
-8 -13 12 8 13 7 15 -22 15 -21 14 5 13 5 -6 -15 -5 -14 10 0 10 0 11 14 12
14 -17 21 -18 20 -10 -6 -11 -6 7 8 8 8 -11 13 -10 13 -14 -5 -14 -6 2 21 1
21 5 0 4 0 19 -17 18 -16 0 10 0 11 -34 26 -34 26 -6 -13 -5 -12 3 21 2 21 32
39 33 39 -10 -21 -10 -21 -15 -13 -16 -12 0 -14 0 -14 14 0 14 0 6 -16 6 -16
15 12 15 12 -6 9 -5 9 10 0 11 0 0 -9 0 -9 -15 -12 -15 -13 10 -12 10 -12 -5
-15 -6 -14 26 -24 26 -25 65 70 64 70 -1 -10 -1 -10 1 -14 1 -14 20 18 20 18
0 -7 0 -8 -22 -18 -23 -18 5 -6 6 -5 20 5 20 5 1 47 1 47 -9 12 -10 11 10 6 9
6 -1 80 0 80 -9 0 -9 0 5 -9 5 -8 -24 -23 -24 -22 -10 6 -11 7 20 21 20 21
-13 16 -12 15 14 -9 14 -8 -6 17 -7 18 0 5 0 6 -22 -19 -23 -19 15 20 15 20
17 19 17 19 -10 20 -11 19 10 -6 10 -6 5 12 4 13 9 -9 9 -9 -12 -4 -13 -5 0
-10 0 -10 14 11 15 12 -1 30 -1 29 -2 0 -3 0 -73 -75z m-19 -86 l-9 -31 15 13
15 12 10 -10 10 -10 -17 -14 -18 -14 9 14 8 14 -16 -6 -16 -6 -8 12 -7 12 -2
13 -2 12 8 -5 8 -5 6 15 5 15 5 0 5 0 -9 -31z m-24 -56 l-6 -14 23 6 22 6 -10
-8 -10 -8 -19 -23 -20 -23 19 7 18 7 -8 -14 -8 -14 9 8 9 8 0 16 0 16 12 4 12
4 10 -19 10 -20 -17 2 -17 1 0 -20 -1 -20 11 -7 10 -8 -12 0 -12 0 -36 37 -35
36 0 15 0 15 20 -18 20 -18 0 14 0 15 -11 11 -11 11 7 11 6 11 10 -6 10 -6 -5
-15z m111 -28 l0 -15 -14 11 -13 11 0 4 0 4 13 0 14 0 0 -15z m-167 -18 l0 -4
-27 -24 -27 -24 14 20 15 20 10 7 10 8 3 0 2 0 0 -3z m-110 -62 l-13 -15 -4 4
-5 5 13 14 14 15 4 -4 4 -4 -13 -15z m158 11 l13 -8 -15 -17 -16 -17 11 -11
11 -11 -11 -7 -11 -6 2 13 3 13 -12 -2 -13 -3 3 13 2 12 -11 -2 -12 -2 11 23
11 24 11 -2 10 -2 13 -8z m102 -14 l0 -7 -20 -12 -19 -13 -7 12 -7 11 12 -7
11 -7 6 15 6 16 9 0 9 0 0 -8z m-158 -56 l11 7 -7 -12 -8 -12 -14 12 -14 11 0
12 1 11 10 -18 10 -17 11 6z m168 9 l9 5 -2 -19 -1 -19 -18 9 -18 10 0 8 0 8
7 7 8 7 3 -10 4 -11 8 5z m-109 -38 l-23 -22 17 28 18 28 5 -6 6 -6 -23 -22z
m-208 -64 l-6 -16 -19 23 -18 22 6 10 6 9 18 -16 19 -17 -6 -15z m177 33 l0
-4 -17 -13 -18 -14 14 18 13 17 4 0 4 0 0 -4z m-266 -63 l7 -17 -7 7 -7 7 -18
-16 -18 -16 6 -13 5 -14 -21 2 -21 1 0 9 0 9 14 -5 15 -6 -5 12 -4 13 20 22
21 22 3 0 4 0 6 -17z m39 -17 l-28 -33 -16 8 -16 8 -9 -7 -8 -7 13 18 14 18 8
-13 8 -12 7 17 6 17 9 -6 9 -5 6 15 6 16 10 0 10 0 -29 -34z m58 -3 l14 -18
-17 14 -18 13 0 4 0 4 4 0 4 0 13 -17z"/>
<path d="M1118 243 l13 -5 6 6 6 6 -19 -1 -19 -1 13 -5z"/>
<path d="M1147 499 l-38 -40 7 -10 6 -11 30 29 30 28 9 17 9 17 -8 5 -8 5 -37
-40z"/>
<path d="M1250 478 l-20 -22 15 -16 15 -17 -7 -8 -8 -9 18 13 17 13 0 5 0 4
-10 -6 -10 -6 0 10 0 11 12 0 12 0 -12 12 -12 12 11 13 11 13 -5 0 -6 0 -21
-22z m10 -18 l0 -10 -11 0 -10 0 6 10 6 10 5 0 4 0 0 -10z"/>
<path d="M0 148 l0 -18 5 0 4 0 10 18 10 19 -15 0 -14 0 0 -19z"/>
<path d="M405 140 l-25 -26 0 -7 0 -7 23 3 22 4 -12 -4 -13 -4 0 -11 0 -10 14
5 14 6 -3 -24 -2 -24 16 9 16 9 30 31 29 31 -19 -7 -18 -7 5 14 6 15 -19 1
-19 2 -5 -10 -6 -9 -10 0 -9 0 0 11 0 10 9 -6 10 -6 10 19 10 19 -14 0 -14 0
-26 -27z"/>
<path d="M1193 126 l-8 -14 -38 -42 -39 -41 12 -14 12 -15 17 0 17 0 13 13 14
12 -6 -11 -7 -12 47 2 47 1 1 48 2 47 -8 0 -8 0 -6 -10 -6 -10 12 0 12 0 -16
-18 -17 -19 0 -8 0 -7 18 13 17 14 -18 -21 -17 -21 -15 0 -15 0 0 6 0 5 22 23
22 23 -16 16 -16 16 -42 -44 -42 -43 31 41 30 41 -7 8 -7 8 11 -6 12 -7 11 14
11 13 -7 6 -6 7 -8 0 -8 0 -8 -14z"/>
<path d="M45 21 l-5 -10 8 -5 9 -5 7 6 6 6 0 9 0 8 -9 0 -10 0 -6 -9z"/>
<path d="M1090 10 l0 -10 16 0 15 0 -6 10 -6 10 -10 0 -9 0 0 -10z"/>
</g>
</svg>
