<?xml version="1.0" standalone="no"?>
<!DOCTYPE svg PUBLIC "-//W3C//DTD SVG 20010904//EN"
 "http://www.w3.org/TR/2001/REC-SVG-20010904/DTD/svg10.dtd">
<svg version="1.0" xmlns="http://www.w3.org/2000/svg"
 width="468pt" height="468pt" viewBox="0 0 468 468"
 preserveAspectRatio="xMidYMid meet">
<metadata>
Created by potrace 1.8, written by Peter Selinger 2001-2007
</metadata>
<g transform="translate(0,468) scale(0.365625,-0.365625)"
fill="#000000" stroke="none">
<path d="M350 1175 l0 -105 10 0 10 0 0 105 0 105 -10 0 -10 0 0 -105z"/>
<path d="M910 1175 l0 -105 10 0 10 0 0 105 0 105 -10 0 -10 0 0 -105z"/>
<path d="M430 1215 l0 -15 -15 0 -15 0 0 -15 0 -15 15 0 15 0 0 -10 0 -10 25
0 25 0 0 -30 0 -30 -25 0 -25 0 0 15 0 15 -15 0 -15 0 0 -15 0 -15 15 0 15 0
0 -10 0 -10 25 0 25 0 0 10 0 10 15 0 15 0 0 30 0 30 -15 0 -15 0 0 10 0 10
15 0 15 0 0 15 0 15 -15 0 -15 0 0 15 0 15 -25 0 -25 0 0 -15z m50 -30 l0 -15
-25 0 -25 0 0 15 0 15 25 0 25 0 0 -15z"/>
<path d="M530 1150 l0 -80 15 0 15 0 0 50 0 50 15 0 15 0 0 15 0 15 10 0 10 0
0 15 0 15 -10 0 -10 0 0 -15 0 -15 -15 0 -15 0 0 15 0 15 -15 0 -15 0 0 -80z"/>
<path d="M640 1215 l0 -15 40 0 40 0 0 -15 0 -15 -25 0 -25 0 0 -10 0 -10 -15
0 -15 0 0 -30 0 -30 15 0 15 0 0 -10 0 -10 25 0 25 0 0 10 0 10 14 0 14 0 6
-12 6 -13 6 13 6 12 14 0 14 0 0 -10 0 -10 25 0 25 0 0 10 0 10 15 0 15 0 0
15 0 15 -15 0 -15 0 0 -15 0 -15 -25 0 -25 0 0 30 0 30 40 0 40 0 0 25 0 25
-15 0 -15 0 0 15 0 15 -25 0 -25 0 0 -15 0 -15 -15 0 -15 0 0 -55 0 -55 -10 0
-10 0 0 55 0 55 -15 0 -15 0 0 15 0 15 -40 0 -40 0 0 -15z m210 -30 l0 -15
-25 0 -25 0 0 15 0 15 25 0 25 0 0 -15z m-130 -65 l0 -30 -25 0 -25 0 0 30 0
30 25 0 25 0 0 -30z"/>
<path d="M30 520 l0 -410 625 0 625 0 0 410 0 410 -625 0 -625 0 0 -410z
m1220 350 l0 -40 -600 0 -600 0 0 40 0 40 600 0 600 0 0 -40z m0 -350 l0 -230
-600 0 -600 0 0 230 0 230 600 0 600 0 0 -230z m0 -350 l0 -40 -600 0 -600 0
0 40 0 40 600 0 600 0 0 -40z"/>
<path d="M640 680 l0 -10 -15 0 -15 0 0 -15 0 -15 -10 0 -10 0 0 -15 0 -15
-70 0 -70 0 0 -10 0 -10 15 0 15 0 0 -15 0 -15 15 0 15 0 0 -40 0 -40 -15 0
-15 0 0 -15 0 -15 -15 0 -15 0 0 -10 0 -10 70 0 70 0 0 -15 0 -15 10 0 10 0 0
-15 0 -15 15 0 15 0 0 -10 0 -10 11 0 10 0 15 14 14 15 0 10 0 11 15 0 15 0 0
15 0 15 65 0 65 0 0 10 0 10 -10 0 -10 0 0 15 0 15 -15 0 -15 0 0 40 0 40 15
0 15 0 0 15 0 15 10 0 10 0 0 10 0 10 -65 0 -65 0 0 15 0 15 -15 0 -15 0 0 11
0 10 -14 15 -15 14 -10 0 -11 0 0 -10z m30 -25 l0 -15 10 0 10 0 0 -15 0 -15
-40 0 -40 0 0 15 0 15 15 0 15 0 0 15 0 15 15 0 15 0 0 -15z m-110 -80 l0 -15
-25 0 -25 0 0 15 0 15 25 0 25 0 0 -15z m160 0 l0 -15 15 0 15 0 0 -14 0 -14
13 -6 12 -6 -12 -6 -13 -6 0 -14 0 -14 -15 0 -15 0 0 -15 0 -15 -65 0 -65 0 0
15 0 15 -15 0 -15 0 0 15 0 15 -15 0 -15 0 0 10 0 10 15 0 15 0 0 15 0 15 15
0 15 0 0 15 0 15 65 0 65 0 0 -15z m80 0 l0 -15 -25 0 -25 0 0 15 0 15 25 0
25 0 0 -15z m-240 -110 l0 -15 -25 0 -25 0 0 15 0 15 25 0 25 0 0 -15z m240 0
l0 -15 -25 0 -25 0 0 15 0 15 25 0 25 0 0 -15z m-110 -50 l0 -15 -10 0 -10 0
0 -15 0 -15 -15 0 -15 0 0 15 0 15 -15 0 -15 0 0 15 0 15 40 0 40 0 0 -15z"/>
</g>
</svg>
