<?xml version="1.0" standalone="no"?>
<!DOCTYPE svg PUBLIC "-//W3C//DTD SVG 20010904//EN"
 "http://www.w3.org/TR/2001/REC-SVG-20010904/DTD/svg10.dtd">
<svg version="1.0" xmlns="http://www.w3.org/2000/svg"
 width="468pt" height="468pt" viewBox="0 0 468 468"
 preserveAspectRatio="xMidYMid meet">
<metadata>
Created by potrace 1.8, written by Peter Selinger 2001-2007
</metadata>
<g transform="translate(0,468) scale(0.365625,-0.365625)"
fill="#000000" stroke="none">
<path d="M150 1265 l0 -15 15 0 15 0 0 -71 0 -70 14 -15 15 -14 35 0 36 0 0
10 0 10 15 0 15 0 0 50 0 50 -15 0 -15 0 0 15 0 15 -25 0 -25 0 0 25 0 25 -40
0 -40 0 0 -15z m110 -110 l0 -25 -15 0 -15 0 0 25 0 25 15 0 15 0 0 -25z"/>
<path d="M540 1265 l0 -15 10 0 10 0 0 -10 0 -10 -25 0 -25 0 0 -15 0 -15 -10
0 -10 0 0 -46 0 -45 14 -15 15 -14 45 0 46 0 0 100 0 100 -35 0 -35 0 0 -15z
m20 -110 l0 -25 -10 0 -10 0 0 25 0 25 10 0 10 0 0 -25z"/>
<path d="M840 1265 l0 -15 -10 0 -10 0 0 -25 0 -25 -15 0 -15 0 0 -10 0 -10
15 0 15 0 0 -40 0 -40 -15 0 -15 0 0 -10 0 -10 55 0 55 0 0 10 0 10 -15 0 -15
0 0 40 0 40 15 0 15 0 0 10 0 10 -15 0 -15 0 0 15 0 15 25 0 25 0 0 10 0 10
-10 0 -10 0 0 15 0 15 -30 0 -30 0 0 -15z"/>
<path d="M963 1235 l-13 -14 0 -36 0 -35 -15 0 -15 0 0 -35 0 -35 15 0 15 0 0
-15 0 -15 50 0 50 0 0 15 0 15 15 0 15 0 0 35 0 35 -15 0 -15 0 0 25 0 25 15
0 15 0 0 25 0 25 -52 0 -53 -1 -12 -14z m57 -45 l0 -10 -10 0 -10 0 0 10 0 10
10 0 10 0 0 -10z m0 -75 l0 -15 -25 0 -25 0 0 15 0 15 25 0 25 0 0 -15z"/>
<path d="M1100 1240 l0 -10 15 0 15 0 0 -75 0 -75 -15 0 -15 0 0 -15 0 -15 40
0 40 0 0 50 0 50 10 0 10 0 0 -50 0 -50 40 0 40 0 0 15 0 15 -15 0 -15 0 0 46
0 45 -14 15 -15 14 -20 0 -21 0 0 25 0 25 -40 0 -40 0 0 -10z"/>
<path d="M30 1215 l0 -15 -15 0 -15 0 0 -10 0 -10 15 0 15 0 0 -15 0 -15 -15
0 -15 0 0 -25 0 -25 15 0 15 0 0 -10 0 -10 60 0 60 0 0 10 0 10 -10 0 -10 0 0
50 0 50 -15 0 -15 0 0 15 0 15 -35 0 -35 0 0 -15z m50 -25 l0 -10 -15 0 -15 0
0 10 0 10 15 0 15 0 0 -10z m0 -65 l0 -25 -15 0 -15 0 0 25 0 25 15 0 15 0 0
-25z"/>
<path d="M360 1215 l0 -15 -15 0 -15 0 0 -50 0 -50 15 0 15 0 0 -10 0 -10 36
0 35 0 15 14 14 15 0 10 0 11 -40 0 -40 0 0 25 0 25 30 0 30 0 0 -15 0 -15 10
0 10 0 0 25 0 25 -10 0 -10 0 0 15 0 15 -40 0 -40 0 0 -15z"/>
<path d="M670 1215 l0 -15 -15 0 -15 0 0 -50 0 -50 15 0 15 0 0 -10 0 -10 35
0 35 0 0 10 0 10 15 0 15 0 0 15 0 15 -40 0 -40 0 0 10 0 10 40 0 40 0 0 25 0
25 -15 0 -15 0 0 15 0 15 -35 0 -35 0 0 -15z m50 -25 l0 -10 -15 0 -15 0 0 10
0 10 15 0 15 0 0 -10z"/>
<path d="M30 1025 l0 -25 25 0 25 0 0 25 0 25 -25 0 -25 0 0 -25z"/>
<path d="M180 1025 l0 -25 25 0 25 0 0 25 0 25 -25 0 -25 0 0 -25z"/>
<path d="M280 1035 l0 -15 15 0 15 0 0 -75 0 -75 -15 0 -15 0 0 -15 0 -15 90
0 90 0 0 15 0 15 -10 0 -10 0 0 15 0 15 -15 0 -15 0 0 10 0 10 -15 0 -15 0 0
15 0 15 15 0 15 0 0 10 0 10 15 0 15 0 0 15 0 15 -30 0 -30 0 0 -15 0 -15 -10
0 -10 0 0 40 0 40 -40 0 -40 0 0 -15z m100 -150 l0 -15 -10 0 -10 0 0 15 0 15
10 0 10 0 0 -15z"/>
<path d="M490 1035 l0 -15 10 0 10 0 0 -75 0 -75 -10 0 -10 0 0 -15 0 -15 50
0 50 0 0 15 0 15 -15 0 -15 0 0 90 0 90 -35 0 -35 0 0 -15z"/>
<path d="M610 985 l0 -15 15 0 15 0 0 -50 0 -50 -15 0 -15 0 0 -15 0 -15 40 0
40 0 0 55 0 55 15 0 15 0 0 -55 0 -55 25 0 25 0 0 55 0 55 10 0 10 0 0 -55 0
-55 40 0 40 0 0 15 0 15 -15 0 -15 0 0 50 0 50 -10 0 -10 0 0 15 0 15 -40 0
-40 0 0 -15 0 -15 -10 0 -10 0 0 15 0 15 -55 0 -55 0 0 -15z"/>
<path d="M900 975 l0 -25 10 0 10 0 0 -40 0 -40 -10 0 -10 0 0 -15 0 -15 35 0
35 0 0 55 0 55 15 0 15 0 0 -55 0 -55 40 0 40 0 0 15 0 15 -15 0 -15 0 0 50 0
50 -15 0 -15 0 0 15 0 15 -60 0 -60 0 0 -25z"/>
<path d="M1130 985 l0 -15 -15 0 -15 0 0 -50 0 -50 15 0 15 0 0 -15 0 -15 35
0 35 0 0 15 0 15 15 0 15 0 0 50 0 50 -15 0 -15 0 0 15 0 15 -35 0 -35 0 0
-15z m50 -60 l0 -25 -15 0 -15 0 0 25 0 25 15 0 15 0 0 -25z"/>
<path d="M0 960 l0 -10 15 0 15 0 0 -40 0 -40 -15 0 -15 0 0 -15 0 -15 50 0
50 0 0 15 0 15 -10 0 -10 0 0 50 0 50 -40 0 -40 0 0 -10z"/>
<path d="M150 960 l0 -10 15 0 15 0 0 -55 0 -55 -25 0 -25 0 0 -10 0 -10 35 0
35 0 0 10 0 10 15 0 15 0 0 65 0 65 -40 0 -40 0 0 -10z"/>
<path d="M690 795 l0 -25 -10 0 -10 0 0 -15 0 -15 10 0 10 0 0 -35 0 -35 15 0
15 0 0 -15 0 -15 25 0 25 0 0 15 0 15 -15 0 -15 0 0 35 0 35 15 0 15 0 0 15 0
15 -15 0 -15 0 0 25 0 25 -25 0 -25 0 0 -25z"/>
<path d="M0 765 l0 -25 15 0 15 0 0 -50 0 -50 -15 0 -15 0 0 -15 0 -15 50 0
50 0 0 15 0 15 -10 0 -10 0 0 15 0 15 21 0 20 0 15 14 14 15 0 31 0 31 -14 15
-15 14 -60 0 -61 0 0 -25z m100 -50 l0 -25 -10 0 -10 0 0 25 0 25 10 0 10 0 0
-25z"/>
<path d="M193 775 l-13 -14 0 -31 0 -31 14 -15 15 -14 25 0 26 0 0 -15 0 -15
-15 0 -15 0 0 -15 0 -15 50 0 50 0 0 15 0 15 -10 0 -10 0 0 50 0 50 10 0 10 0
0 25 0 25 -62 0 -63 -1 -12 -14z m67 -60 l0 -25 -15 0 -15 0 0 25 0 25 15 0
15 0 0 -25z"/>
<path d="M360 780 l0 -10 10 0 10 0 0 -50 0 -50 -10 0 -10 0 0 -15 0 -15 50 0
50 0 0 15 0 15 -10 0 -10 0 0 35 0 35 25 0 25 0 0 25 0 25 -65 0 -65 0 0 -10z"/>
<path d="M540 780 l0 -10 -15 0 -15 0 0 -25 0 -25 15 0 15 0 0 -14 0 -14 13
-5 12 -4 -9 -9 -9 -9 -4 13 -5 12 -14 0 -14 0 0 -25 0 -25 50 0 50 0 0 15 0
15 15 0 15 0 0 25 0 25 -11 0 -10 0 -15 14 -14 15 0 10 0 11 10 0 10 0 0 -15
0 -15 15 0 15 0 0 25 0 25 -50 0 -50 0 0 -10z"/>
<path d="M790 780 l0 -10 15 0 15 0 0 -50 0 -50 10 0 10 0 0 -15 0 -15 65 0
65 0 0 25 0 25 -10 0 -10 0 0 40 0 40 10 0 10 0 0 10 0 10 -35 0 -35 0 0 -50
0 -50 -15 0 -15 0 0 50 0 50 -40 0 -40 0 0 -10z"/>
<path d="M1000 780 l0 -10 10 0 10 0 0 -25 0 -25 15 0 15 0 0 -25 0 -25 15 0
15 0 0 -15 0 -15 10 0 10 0 0 15 0 15 15 0 15 0 0 25 0 25 10 0 10 0 0 25 0
25 15 0 15 0 0 10 0 10 -40 0 -40 0 0 -35 0 -35 -10 0 -10 0 0 35 0 35 -40 0
-40 0 0 -10z"/>
<path d="M950 600 l0 -10 -15 0 -15 0 0 -25 0 -25 15 0 15 0 0 10 0 10 25 0
25 0 0 -10 0 -10 -15 0 -15 0 0 -15 0 -15 -10 0 -10 0 0 -25 0 -25 25 0 25 0
0 11 0 10 14 15 15 14 10 0 11 0 0 40 0 40 -15 0 -15 0 0 10 0 10 -35 0 -35 0
0 -10z"/>
<path d="M0 575 l0 -15 15 0 15 0 0 -25 0 -25 10 0 10 0 0 -25 0 -25 14 0 14
0 6 -12 6 -13 6 13 6 12 24 0 24 0 0 -10 0 -10 11 0 10 0 15 14 14 15 0 20 0
21 15 0 15 0 0 25 0 25 15 0 15 0 0 15 0 15 -40 0 -40 0 0 -40 0 -40 -15 0
-15 0 0 40 0 40 -25 0 -25 0 0 -40 0 -40 -10 0 -10 0 0 40 0 40 -40 0 -40 0 0
-15z"/>
<path d="M280 575 l0 -15 11 0 10 0 15 -14 14 -15 0 -20 0 -21 -10 0 -10 0 0
-15 0 -15 -15 0 -15 0 0 -10 0 -10 25 0 25 0 0 25 0 25 15 0 15 0 0 -25 0 -25
50 0 50 0 0 10 0 10 -10 0 -10 0 0 15 0 15 -15 0 -15 0 0 25 0 25 -15 0 -15 0
0 25 0 25 -50 0 -50 0 0 -15z"/>
<path d="M410 565 l0 -25 11 0 10 0 15 14 14 15 0 10 0 11 -25 0 -25 0 0 -25z"/>
<path d="M510 575 l0 -15 15 0 15 0 0 -35 0 -35 10 0 10 0 0 -14 0 -14 -12 -6
-13 -6 13 -6 12 -6 0 -14 0 -14 40 0 40 0 0 15 0 15 15 0 15 0 0 75 0 75 -30
0 -30 0 0 -40 0 -40 -10 0 -10 0 0 40 0 40 -40 0 -40 0 0 -15z m100 -125 l0
-10 -10 0 -10 0 0 10 0 10 10 0 10 0 0 -10z"/>
<path d="M720 565 l0 -25 24 0 24 0 5 13 4 12 9 -9 9 -9 -12 -4 -13 -5 0 -14
0 -14 -11 0 -10 0 -15 -14 -14 -15 0 -20 0 -21 75 0 75 0 0 25 0 25 -25 0 -25
0 0 -15 0 -15 -15 0 -15 0 0 15 0 15 11 0 10 0 15 14 14 15 0 10 0 11 15 0 15
0 0 25 0 25 -75 0 -75 0 0 -25z"/>
<path d="M950 410 l0 -30 -475 0 -475 0 0 -190 0 -190 640 0 640 0 0 190 0
190 -140 0 -140 0 0 30 0 30 -25 0 -25 0 0 -30z"/>
</g>
</svg>
