<?xml version="1.0" standalone="no"?>
<!DOCTYPE svg PUBLIC "-//W3C//DTD SVG 20010904//EN"
 "http://www.w3.org/TR/2001/REC-SVG-20010904/DTD/svg10.dtd">
<svg version="1.0" xmlns="http://www.w3.org/2000/svg"
 width="468pt" height="468pt" viewBox="0 0 468 468"
 preserveAspectRatio="xMidYMid meet">
<metadata>
Created by potrace 1.8, written by Peter Selinger 2001-2007
</metadata>
<g transform="translate(0,468) scale(0.365625,-0.365625)"
fill="#000000" stroke="none">
<path d="M140 1110 l-25 -29 -13 -1 -13 0 -24 -25 -25 -24 0 -71 0 -71 25 -24
24 -25 76 0 75 0 0 10 0 10 20 0 20 0 0 10 0 10 20 0 20 0 0 -255 0 -256 25
-24 24 -25 261 0 261 0 24 25 25 24 0 151 0 151 35 34 34 35 31 0 31 0 15 -14
14 -15 0 -31 0 -31 -70 -69 -70 -69 0 -51 0 -51 25 -24 24 -25 41 0 41 0 15
14 14 15 0 11 0 12 30 28 30 28 0 14 0 14 20 14 20 14 0 18 0 18 10 0 10 0 0
170 0 170 -10 0 -10 0 0 65 0 66 -25 24 -24 25 -16 0 -15 0 0 10 0 10 -18 0
-18 0 -14 20 -14 20 -456 0 -455 -1 -25 -29z m63 -2 l5 -13 11 15 11 15 10
-15 10 -15 10 15 10 15 10 -15 10 -15 10 15 10 15 10 -15 10 -15 10 15 10 15
10 -15 10 -15 10 15 10 15 10 -15 10 -15 10 15 10 15 10 -15 10 -15 10 15 10
15 10 -15 10 -15 10 15 10 15 10 -15 10 -15 10 15 10 15 10 -15 10 -15 10 15
10 15 10 -15 10 -15 10 15 10 15 10 -15 10 -15 10 15 10 15 10 -15 10 -15 10
15 10 15 10 -15 10 -15 10 15 10 15 10 -15 10 -15 10 15 10 15 10 -15 10 -15
10 15 10 15 10 -15 10 -15 10 15 10 15 10 -15 10 -15 10 15 10 15 10 -15 10
-15 10 15 10 15 10 -15 10 -15 10 15 10 15 10 -15 10 -15 10 15 10 15 10 -15
10 -15 9 14 9 14 66 -67 67 -67 -41 -39 -42 -40 17 -17 17 -16 8 14 9 13 7 -6
6 -7 -17 -17 -17 -17 -9 14 -9 14 -10 -15 -10 -15 -10 15 -10 15 -10 -15 -10
-15 -10 15 -10 15 -9 -14 -9 -14 -51 52 -51 52 -17 -16 -16 -17 14 -8 13 -9
-7 -7 -7 -7 -20 24 -21 23 -10 -14 -9 -15 -10 15 -10 15 -10 -15 -10 -15 -10
15 -10 15 -10 -15 -10 -15 -10 15 -10 15 -10 -15 -10 -15 -10 15 -10 15 -10
-15 -10 -15 -10 15 -10 15 -10 -15 -10 -15 -10 15 -10 15 -10 -15 -10 -15 -10
15 -10 15 -10 -15 -10 -15 -10 15 -10 15 -10 -15 -10 -15 -10 15 -10 15 -10
-15 -10 -15 -10 15 -10 15 -10 -15 -10 -15 -10 15 -10 15 -10 -15 -10 -15 -9
15 -10 14 -21 -23 -20 -24 -6 6 -6 6 37 36 36 37 20 -23 20 -23 10 14 9 15 10
-15 10 -15 10 15 10 15 10 -15 10 -15 10 15 10 15 10 -15 10 -15 10 15 10 15
10 -15 10 -15 10 15 10 15 10 -15 10 -15 10 15 10 15 10 -15 10 -15 10 15 10
15 10 -15 10 -15 10 15 10 15 10 -15 10 -15 10 15 10 15 9 -14 9 -14 18 17 17
18 -13 8 -13 8 17 17 17 17 7 -6 6 -7 -13 -9 -14 -8 27 -27 26 -26 16 16 16
16 -23 20 -23 20 13 9 14 8 -27 27 -27 27 -20 -23 -20 -23 -10 14 -9 15 -10
-15 -10 -15 -10 15 -10 15 -10 -15 -10 -15 -10 15 -10 15 -10 -15 -10 -15 -10
15 -10 15 -10 -15 -10 -15 -10 15 -10 15 -10 -15 -10 -15 -10 15 -10 15 -10
-15 -10 -15 -10 15 -10 15 -10 -15 -10 -15 -10 15 -10 15 -10 -15 -10 -15 -10
15 -10 15 -9 -15 -10 -14 -20 23 -20 23 -27 -27 -27 -27 13 -8 13 -8 -78 -77
-77 -78 -9 14 -9 14 -10 -15 -10 -15 -10 15 -10 15 -10 -15 -10 -15 -10 15
-10 15 -9 -14 -9 -14 -27 28 -28 27 14 9 14 9 -15 10 -15 10 15 10 15 10 -14
9 -14 9 64 65 64 65 7 1 6 1 5 -12z m217 -98 l0 -10 -10 0 -10 0 0 10 0 10 10
0 10 0 0 -10z m63 -2 l5 -13 11 15 11 15 10 -15 10 -15 10 15 10 15 10 -15 10
-15 10 15 10 15 10 -15 10 -15 10 15 10 15 10 -15 10 -15 10 15 10 15 10 -15
10 -15 10 15 10 15 10 -15 10 -15 10 15 10 15 10 -15 10 -15 9 15 10 14 7 -6
6 -7 -17 -17 -17 -17 -9 14 -9 14 -10 -15 -10 -15 -10 15 -10 15 -10 -15 -10
-15 -10 15 -10 15 -10 -15 -10 -15 -10 15 -10 15 -10 -15 -10 -15 -10 15 -10
15 -10 -15 -10 -15 -10 15 -10 15 -10 -15 -10 -15 -10 15 -10 15 -10 -15 -10
-15 -10 15 -10 15 -9 -15 -10 -14 -6 6 -7 7 13 15 14 15 7 1 6 0 5 -12z m397
-308 l0 -200 -250 0 -250 0 0 200 0 200 250 0 250 0 0 -200z m-520 170 l0 -10
-10 0 -10 0 0 10 0 10 10 0 10 0 0 -10z m560 0 l0 -10 -10 0 -10 0 0 10 0 10
10 0 10 0 0 -10z m60 0 l0 -10 20 0 20 0 0 -10 0 -10 80 0 80 0 0 10 0 10 10
0 10 0 0 -150 0 -150 -10 0 -10 0 0 -18 0 -18 -20 -14 -20 -14 0 -14 0 -13
-35 -34 -34 -35 -36 0 -35 0 0 55 0 56 70 69 70 69 0 31 0 31 -35 34 -34 35
-36 0 -35 0 0 -10 0 -10 -20 0 -20 0 0 -20 0 -20 -10 0 -10 0 0 80 0 80 20 0
20 0 0 -10z m-620 -40 l0 -10 -10 0 -10 0 0 10 0 10 10 0 10 0 0 -10z m560 0
l0 -10 -10 0 -10 0 0 10 0 10 10 0 10 0 0 -10z m-560 -40 l0 -10 -10 0 -10 0
0 10 0 10 10 0 10 0 0 -10z m560 0 l0 -10 -10 0 -10 0 0 10 0 10 10 0 10 0 0
-10z m-560 -40 l0 -10 -10 0 -10 0 0 10 0 10 10 0 10 0 0 -10z m560 0 l0 -10
-10 0 -10 0 0 10 0 10 10 0 10 0 0 -10z m-560 -40 l0 -10 -10 0 -10 0 0 10 0
10 10 0 10 0 0 -10z m560 0 l0 -10 -10 0 -10 0 0 10 0 10 10 0 10 0 0 -10z
m-560 -40 l0 -10 -10 0 -10 0 0 10 0 10 10 0 10 0 0 -10z m560 0 l0 -10 -10 0
-10 0 0 10 0 10 10 0 10 0 0 -10z m-560 -40 l0 -10 -10 0 -10 0 0 10 0 10 10
0 10 0 0 -10z m560 0 l0 -10 -10 0 -10 0 0 10 0 10 10 0 10 0 0 -10z m-560
-40 l0 -10 -10 0 -10 0 0 10 0 10 10 0 10 0 0 -10z m560 0 l0 -10 -10 0 -10 0
0 10 0 10 10 0 10 0 0 -10z m-560 -40 l0 -10 -10 0 -10 0 0 10 0 10 10 0 10 0
0 -10z m560 0 l0 -10 -10 0 -10 0 0 10 0 10 10 0 10 0 0 -10z m-560 -40 l0
-10 -10 0 -10 0 0 10 0 10 10 0 10 0 0 -10z m560 0 l0 -10 -10 0 -10 0 0 10 0
10 10 0 10 0 0 -10z m-517 -42 l5 -13 11 15 11 15 10 -15 10 -15 10 15 10 15
10 -15 10 -15 10 15 10 15 10 -15 10 -15 10 15 10 15 10 -15 10 -15 10 15 10
15 10 -15 10 -15 10 15 10 15 10 -15 10 -15 10 15 10 15 10 -15 10 -15 10 15
10 15 10 -15 10 -15 10 15 10 15 10 -15 10 -15 10 15 10 15 10 -15 10 -15 10
15 10 15 10 -15 10 -15 9 14 9 14 18 -17 17 -18 -14 -8 -13 -9 23 -20 23 -20
-27 -27 -27 -27 -9 14 -9 14 -10 -15 -10 -15 -10 15 -10 15 -10 -15 -10 -15
-10 15 -10 15 -10 -15 -10 -15 -10 15 -10 15 -10 -15 -10 -15 -10 15 -10 15
-10 -15 -10 -15 -10 15 -10 15 -10 -15 -10 -15 -10 15 -10 15 -10 -15 -10 -15
-10 15 -10 15 -10 -15 -10 -15 -10 15 -10 15 -10 -15 -10 -15 -10 15 -10 15
-10 -15 -10 -15 -10 15 -10 15 -10 -15 -10 -15 -10 15 -10 15 -9 -14 -9 -14
-27 27 -27 27 23 20 23 20 -13 9 -14 8 14 16 14 15 7 1 6 0 5 -12z"/>
<path d="M131 1043 l-54 -55 14 -9 14 -9 -15 -10 -15 -10 15 -10 15 -10 -14
-9 -14 -9 17 -18 18 -17 9 14 9 14 10 -15 10 -15 10 15 10 15 10 -15 10 -15
10 15 10 15 9 -14 9 -14 67 68 68 67 -14 8 -13 8 34 32 33 31 -7 7 -7 6 -10
-14 -9 -15 -10 15 -10 15 -10 -15 -10 -15 -10 15 -10 15 -10 -15 -10 -15 -10
15 -10 15 -10 -15 -10 -15 -10 15 -10 15 -11 -15 -11 -15 -5 13 -5 12 -6 -1
-7 0 -54 -56z m72 25 l5 -13 11 15 11 15 10 -15 10 -15 10 15 10 15 10 -15 10
-15 10 15 10 15 10 -15 10 -15 9 15 10 14 7 -7 7 -7 -24 -20 -23 -21 13 -8 14
-9 -58 -57 -57 -58 -9 14 -9 14 -10 -15 -10 -15 -10 15 -10 15 -10 -15 -10
-15 -10 15 -10 15 -9 -15 -10 -14 -8 7 -7 8 14 10 15 9 -15 10 -15 10 15 10
15 10 -14 9 -14 9 44 45 44 46 7 0 6 1 5 -12z"/>
<path d="M151 1023 l-34 -35 14 -9 14 -9 -14 -9 -14 -9 17 -18 18 -17 9 14 9
14 10 -15 10 -15 10 15 10 15 9 -14 9 -14 47 48 48 47 -14 9 -14 9 15 9 14 10
-7 8 -8 7 -10 -14 -9 -15 -10 15 -10 15 -10 -15 -10 -15 -10 15 -10 15 -11
-15 -11 -15 -5 13 -5 12 -6 -1 -7 0 -34 -36z m52 5 l5 -13 11 15 11 15 10 -15
10 -15 9 14 9 14 17 -16 16 -17 -37 -36 -36 -37 -9 14 -9 14 -10 -15 -10 -15
-10 15 -10 15 -9 -15 -10 -14 -8 7 -7 8 14 10 15 9 -14 9 -14 9 24 25 24 26 7
0 6 1 5 -12z"/>
<path d="M172 1004 l-13 -14 16 -17 17 -16 9 14 9 14 9 -14 9 -14 27 27 27 27
-6 7 -7 6 -10 -14 -9 -15 -10 15 -10 15 -11 -15 -11 -15 -5 13 -5 12 -6 0 -7
-1 -13 -15z m28 -14 l0 -10 -10 0 -10 0 0 10 0 10 10 0 10 0 0 -10z m40 0 l0
-10 -10 0 -10 0 0 10 0 10 10 0 10 0 0 -10z"/>
<path d="M420 1094 l0 -5 16 -16 16 -16 9 14 9 14 10 -15 10 -15 10 15 10 15
10 -15 10 -15 10 15 10 15 10 -15 10 -15 10 15 10 15 10 -15 10 -15 10 15 10
15 10 -15 10 -15 10 15 10 15 10 -15 10 -15 10 15 10 15 10 -15 10 -15 10 15
10 15 10 -15 10 -15 10 15 10 15 9 -14 9 -14 17 17 17 17 -6 7 -7 6 -10 -14
-9 -15 -10 15 -10 15 -10 -15 -10 -15 -10 15 -10 15 -10 -15 -10 -15 -10 15
-10 15 -10 -15 -10 -15 -10 15 -10 15 -10 -15 -10 -15 -10 15 -10 15 -10 -15
-10 -15 -10 15 -10 15 -10 -15 -10 -15 -10 15 -10 15 -10 -15 -10 -15 -10 15
-10 15 -10 -15 -10 -15 -10 15 -10 15 -11 -15 -11 -15 -5 13 -5 12 -9 0 -9 0
0 -6z"/>
<path d="M860 1094 l0 -6 32 -30 32 -30 -13 -8 -14 -8 68 -67 67 -68 9 14 9
14 10 -15 10 -15 10 15 10 15 9 -15 10 -14 8 7 7 8 -13 9 -14 8 42 41 42 40
-57 57 -56 57 -9 -14 -9 -14 -10 15 -10 15 -10 -15 -10 -15 -10 15 -10 15 -10
-15 -10 -15 -10 15 -10 15 -10 -15 -10 -15 -10 15 -10 15 -11 -15 -11 -15 -5
13 -5 12 -9 0 -9 0 0 -6z m63 -26 l5 -13 11 15 11 15 10 -15 10 -15 10 15 10
15 10 -15 10 -15 10 15 10 15 10 -15 10 -15 9 14 9 14 46 -47 47 -46 -47 -46
-46 -47 -9 14 -9 14 -9 -14 -9 -14 -57 58 -58 57 14 9 13 8 -22 19 -22 19 0 7
0 6 9 0 9 0 5 -12z"/>
<path d="M940 1051 l0 -9 13 -5 12 -5 -14 -10 -14 -10 48 -47 47 -48 9 14 9
14 9 -14 9 -14 36 37 37 36 -37 36 -36 37 -9 -14 -9 -14 -10 15 -10 15 -10
-15 -10 -15 -10 15 -10 15 -11 -15 -11 -15 -5 13 -5 12 -9 0 -9 0 0 -9z m63
-23 l5 -13 11 15 11 15 10 -15 10 -15 9 14 9 14 26 -27 27 -26 -27 -26 -26
-27 -9 14 -9 14 -9 -14 -9 -14 -36 37 -37 36 13 15 13 14 7 1 6 0 5 -12z"/>
<path d="M980 1015 l0 -6 26 -26 26 -26 9 14 9 14 9 -14 9 -14 17 16 16 17
-16 17 -17 16 -9 -14 -9 -14 -10 15 -10 15 -11 -15 -11 -15 -5 13 -5 12 -9 0
-9 0 0 -5z m60 -25 l0 -10 -10 0 -10 0 0 10 0 10 10 0 10 0 0 -10z m40 0 l0
-10 -10 0 -10 0 0 10 0 10 10 0 10 0 0 -10z"/>
<path d="M400 950 l0 -10 10 0 10 0 0 10 0 10 -10 0 -10 0 0 -10z"/>
<path d="M840 950 l0 -10 10 0 10 0 0 10 0 10 -10 0 -10 0 0 -10z"/>
<path d="M400 700 l0 -180 230 0 230 0 0 180 0 180 -230 0 -230 0 0 -180z m71
138 l19 -21 8 8 7 8 -12 4 -13 5 0 9 0 9 146 0 147 0 18 -22 19 -21 8 8 7 8
-12 4 -13 5 0 9 0 9 20 0 20 0 0 -29 0 -29 -12 -6 -13 -6 13 -6 12 -6 0 -28 0
-28 -12 -6 -13 -6 13 -6 12 -6 0 -28 0 -28 -12 -6 -13 -6 13 -6 12 -6 0 -25 0
-24 -14 -15 -15 -14 -25 0 -26 0 0 9 0 9 12 4 13 5 -17 16 -17 17 -115 0 -116
0 0 -16 0 -15 -14 -15 -15 -14 -21 0 -21 0 -15 14 -14 15 0 22 0 22 22 18 21
19 -8 8 -8 7 -4 -12 -5 -13 -9 0 -9 0 0 26 0 27 22 18 21 19 -8 8 -8 7 -4 -12
-5 -13 -9 0 -9 0 0 26 0 27 22 18 21 19 -8 8 -8 7 -4 -12 -5 -13 -9 0 -9 0 0
30 0 30 16 0 17 0 18 -22z m269 -268 l0 -10 -100 0 -100 0 0 10 0 10 100 0
100 0 0 -10z"/>
<path d="M560 820 l0 -20 20 0 20 0 0 20 0 20 -20 0 -20 0 0 -20z"/>
<path d="M620 820 l0 -20 20 0 20 0 0 20 0 20 -20 0 -20 0 0 -20z"/>
<path d="M680 820 l0 -20 20 0 20 0 0 20 0 20 -20 0 -20 0 0 -20z"/>
<path d="M511 804 l-13 -15 6 -6 5 -5 16 15 15 16 0 5 0 6 -7 0 -8 -1 -14 -15z"/>
<path d="M751 804 l-13 -15 6 -6 5 -5 16 15 15 16 0 5 0 6 -7 0 -8 -1 -14 -15z"/>
<path d="M460 774 l0 -5 15 -16 16 -15 6 5 5 6 -15 16 -16 15 -5 0 -6 0 0 -6z"/>
<path d="M560 760 l0 -20 20 0 20 0 0 20 0 20 -20 0 -20 0 0 -20z"/>
<path d="M620 760 l0 -20 20 0 20 0 0 20 0 20 -20 0 -20 0 0 -20z"/>
<path d="M680 760 l0 -20 20 0 20 0 0 20 0 20 -20 0 -20 0 0 -20z"/>
<path d="M780 774 l0 -5 15 -16 16 -15 6 5 5 6 -15 16 -16 15 -5 0 -6 0 0 -6z"/>
<path d="M511 724 l-13 -15 6 -6 5 -5 16 15 15 16 0 5 0 6 -7 0 -8 -1 -14 -15z"/>
<path d="M751 724 l-13 -15 6 -6 5 -5 16 15 15 16 0 5 0 6 -7 0 -8 -1 -14 -15z"/>
<path d="M560 700 l0 -20 20 0 20 0 0 20 0 20 -20 0 -20 0 0 -20z"/>
<path d="M620 700 l0 -20 20 0 20 0 0 20 0 20 -20 0 -20 0 0 -20z"/>
<path d="M680 700 l0 -20 20 0 20 0 0 20 0 20 -20 0 -20 0 0 -20z"/>
<path d="M460 694 l0 -5 15 -16 16 -15 6 5 5 6 -15 16 -16 15 -5 0 -6 0 0 -6z"/>
<path d="M780 694 l0 -5 15 -16 16 -15 6 5 5 6 -15 16 -16 15 -5 0 -6 0 0 -6z"/>
<path d="M511 644 l-13 -15 6 -6 5 -5 16 15 15 16 0 5 0 6 -7 0 -8 -1 -14 -15z"/>
<path d="M560 640 l0 -20 20 0 20 0 0 20 0 20 -20 0 -20 0 0 -20z"/>
<path d="M620 640 l0 -20 20 0 20 0 0 20 0 20 -20 0 -20 0 0 -20z"/>
<path d="M680 640 l0 -20 20 0 20 0 0 20 0 20 -20 0 -20 0 0 -20z"/>
<path d="M751 644 l-13 -15 6 -6 5 -5 16 15 15 16 0 5 0 6 -7 0 -8 -1 -14 -15z"/>
<path d="M460 614 l0 -5 15 -16 16 -15 6 5 5 6 -15 16 -16 15 -5 0 -6 0 0 -6z"/>
<path d="M780 614 l0 -5 15 -16 16 -15 6 5 5 6 -15 16 -16 15 -5 0 -6 0 0 -6z"/>
<path d="M440 570 l0 -10 10 0 10 0 0 10 0 10 -10 0 -10 0 0 -10z"/>
<path d="M380 451 l0 -9 13 -5 12 -4 -24 -21 -23 -21 17 -17 17 -17 9 14 9 14
10 -15 10 -15 10 15 10 15 10 -15 10 -15 10 15 10 15 10 -15 10 -15 10 15 10
15 10 -15 10 -15 10 15 10 15 10 -15 10 -15 10 15 10 15 10 -15 10 -15 10 15
10 15 10 -15 10 -15 10 15 10 15 10 -15 10 -15 10 15 10 15 10 -15 10 -15 10
15 10 15 10 -15 10 -15 10 15 10 15 10 -15 10 -15 10 15 10 15 9 -14 9 -14 17
17 17 17 -23 20 -23 20 14 9 14 9 -7 8 -8 7 -10 -14 -9 -15 -10 15 -10 15 -10
-15 -10 -15 -10 15 -10 15 -10 -15 -10 -15 -10 15 -10 15 -10 -15 -10 -15 -10
15 -10 15 -10 -15 -10 -15 -10 15 -10 15 -10 -15 -10 -15 -10 15 -10 15 -10
-15 -10 -15 -10 15 -10 15 -10 -15 -10 -15 -10 15 -10 15 -10 -15 -10 -15 -10
15 -10 15 -10 -15 -10 -15 -10 15 -10 15 -10 -15 -10 -15 -10 15 -10 15 -11
-15 -11 -15 -5 13 -5 12 -9 0 -9 0 0 -9z m63 -23 l5 -13 11 15 11 15 10 -15
10 -15 10 15 10 15 10 -15 10 -15 10 15 10 15 10 -15 10 -15 10 15 10 15 10
-15 10 -15 10 15 10 15 10 -15 10 -15 10 15 10 15 10 -15 10 -15 10 15 10 15
10 -15 10 -15 10 15 10 15 10 -15 10 -15 10 15 10 15 10 -15 10 -15 9 14 9 14
27 -27 27 -27 -6 -7 -7 -6 -10 14 -9 15 -10 -15 -10 -15 -10 15 -10 15 -10
-15 -10 -15 -10 15 -10 15 -10 -15 -10 -15 -10 15 -10 15 -10 -15 -10 -15 -10
15 -10 15 -10 -15 -10 -15 -10 15 -10 15 -10 -15 -10 -15 -10 15 -10 15 -10
-15 -10 -15 -10 15 -10 15 -10 -15 -10 -15 -10 15 -10 15 -10 -15 -10 -15 -10
15 -10 15 -10 -15 -10 -15 -10 15 -10 15 -10 -15 -10 -15 -10 15 -10 15 -9
-15 -10 -14 -6 6 -7 7 23 25 24 25 7 0 6 1 5 -12z"/>
<path d="M420 410 l0 -10 10 0 10 0 0 10 0 10 -10 0 -10 0 0 -10z"/>
<path d="M460 410 l0 -10 10 0 10 0 0 10 0 10 -10 0 -10 0 0 -10z"/>
<path d="M500 410 l0 -10 10 0 10 0 0 10 0 10 -10 0 -10 0 0 -10z"/>
<path d="M540 410 l0 -10 10 0 10 0 0 10 0 10 -10 0 -10 0 0 -10z"/>
<path d="M580 410 l0 -10 10 0 10 0 0 10 0 10 -10 0 -10 0 0 -10z"/>
<path d="M620 410 l0 -10 10 0 10 0 0 10 0 10 -10 0 -10 0 0 -10z"/>
<path d="M660 410 l0 -10 10 0 10 0 0 10 0 10 -10 0 -10 0 0 -10z"/>
<path d="M700 410 l0 -10 10 0 10 0 0 10 0 10 -10 0 -10 0 0 -10z"/>
<path d="M740 410 l0 -10 10 0 10 0 0 10 0 10 -10 0 -10 0 0 -10z"/>
<path d="M780 410 l0 -10 10 0 10 0 0 10 0 10 -10 0 -10 0 0 -10z"/>
<path d="M820 410 l0 -10 10 0 10 0 0 10 0 10 -10 0 -10 0 0 -10z"/>
<path d="M0 100 l0 -100 640 0 640 0 0 100 0 100 -640 0 -640 0 0 -100z"/>
</g>
</svg>
