<?xml version="1.0" standalone="no"?>
<!DOCTYPE svg PUBLIC "-//W3C//DTD SVG 20010904//EN"
 "http://www.w3.org/TR/2001/REC-SVG-20010904/DTD/svg10.dtd">
<svg version="1.0" xmlns="http://www.w3.org/2000/svg"
 width="468pt" height="468pt" viewBox="0 0 468 468"
 preserveAspectRatio="xMidYMid meet">
<metadata>
Created by potrace 1.8, written by Peter Selinger 2001-2007
</metadata>
<g transform="translate(0,468) scale(0.365625,-0.365625)"
fill="#000000" stroke="none">
<path d="M160 1265 l0 -15 -15 0 -15 0 0 -80 0 -80 15 0 15 0 0 -10 0 -10 51
0 50 0 15 14 14 15 0 10 0 11 -10 0 -10 0 0 -15 0 -15 -55 0 -55 0 0 80 0 80
54 0 54 0 5 -12 4 -13 9 9 9 9 -12 4 -13 5 0 14 0 14 -55 0 -55 0 0 -15z"/>
<path d="M720 1175 l0 -105 15 0 15 0 0 50 0 50 10 0 10 0 0 15 0 15 -10 0
-10 0 0 40 0 40 -15 0 -15 0 0 -105z"/>
<path d="M990 1175 l0 -105 10 0 10 0 0 50 0 50 40 0 40 0 0 -50 0 -50 15 0
15 0 0 50 0 50 -15 0 -15 0 0 15 0 15 15 0 15 0 0 25 0 25 -15 0 -15 0 0 15 0
15 -50 0 -50 0 0 -105z m100 50 l0 -25 -40 0 -40 0 0 25 0 25 40 0 40 0 0 -25z"/>
<path d="M320 1215 l0 -15 40 0 40 0 0 -15 0 -15 -11 0 -10 0 -15 -14 -14 -15
0 -10 0 -11 -15 0 -15 0 0 -25 0 -25 55 0 55 0 0 10 0 10 -40 0 -40 0 0 15 0
15 10 0 10 0 0 15 0 15 15 0 15 0 0 10 0 10 15 0 15 0 0 30 0 30 -55 0 -55 0
0 -15z"/>
<path d="M480 1215 l0 -15 -15 0 -15 0 0 -55 0 -55 15 0 15 0 0 -10 0 -10 25
0 25 0 0 10 0 10 15 0 15 0 0 15 0 15 -15 0 -15 0 0 -15 0 -15 -25 0 -25 0 0
30 0 30 40 0 40 0 0 25 0 25 -15 0 -15 0 0 15 0 15 -25 0 -25 0 0 -15z m50
-30 l0 -15 -25 0 -25 0 0 15 0 15 25 0 25 0 0 -15z"/>
<path d="M610 1215 l0 -15 -10 0 -10 0 0 -51 0 -50 14 -15 15 -14 21 0 21 0
15 14 14 15 0 10 0 11 -10 0 -10 0 0 -15 0 -15 -30 0 -30 0 0 55 0 55 30 0 30
0 0 -15 0 -15 10 0 10 0 0 15 0 15 -10 0 -10 0 0 15 0 15 -30 0 -30 0 0 -15z"/>
<path d="M770 1215 l0 -15 30 0 30 0 0 -65 0 -65 10 0 10 0 0 65 0 65 -10 0
-10 0 0 15 0 15 -30 0 -30 0 0 -15z"/>
<path d="M1150 1080 l0 -10 10 0 10 0 0 10 0 10 -10 0 -10 0 0 -10z"/>
<path d="M0 520 l0 -440 640 0 640 0 0 440 0 440 -640 0 -640 0 0 -440z m1250
211 l0 -199 -12 -6 -13 -6 12 -6 13 -6 0 -14 0 -14 -10 0 -10 0 0 -14 0 -14
13 -6 12 -6 -12 -6 -13 -6 0 -14 0 -14 10 0 10 0 0 -14 0 -14 -12 -6 -13 -6
13 -6 12 -6 0 -14 0 -14 -10 0 -10 0 0 -14 0 -14 12 -6 13 -6 -13 -6 -12 -6 0
-14 0 -14 10 0 10 0 0 -14 0 -14 -12 -6 -13 -6 13 -6 12 -6 0 -14 0 -14 -10 0
-10 0 0 -14 0 -14 13 -5 12 -4 -9 -9 -9 -9 -4 13 -5 12 -14 0 -14 0 0 -10 0
-10 -14 0 -14 0 -6 13 -6 12 -6 -12 -6 -13 -14 0 -14 0 0 10 0 10 -14 0 -14 0
-6 -12 -6 -13 -6 13 -6 12 -14 0 -14 0 0 -10 0 -10 -14 0 -14 0 -6 13 -6 12
-6 -12 -6 -13 -14 0 -14 0 0 10 0 10 -14 0 -14 0 -6 -12 -6 -13 -6 13 -6 12
-14 0 -14 0 0 -10 0 -10 -14 0 -14 0 -6 13 -6 12 -6 -12 -6 -13 -14 0 -14 0 0
10 0 10 -14 0 -14 0 -6 -12 -6 -13 -6 13 -6 12 -14 0 -14 0 0 -10 0 -10 -14 0
-14 0 -6 13 -6 12 -6 -12 -6 -13 -14 0 -14 0 0 10 0 10 -14 0 -14 0 -6 -12 -6
-13 -6 13 -6 12 -14 0 -14 0 0 -10 0 -10 -14 0 -14 0 -6 13 -6 12 -6 -12 -6
-13 -14 0 -14 0 0 10 0 10 -14 0 -14 0 -6 -12 -6 -13 -6 13 -6 12 -14 0 -14 0
0 -10 0 -10 -14 0 -14 0 -6 13 -6 12 -6 -12 -6 -13 -14 0 -14 0 0 10 0 10 -14
0 -14 0 -6 -12 -6 -13 -6 13 -6 12 -14 0 -14 0 0 -10 0 -10 -14 0 -14 0 -6 13
-6 12 -6 -12 -6 -13 -14 0 -14 0 0 10 0 10 -14 0 -14 0 -6 -12 -6 -13 -6 13
-6 12 -14 0 -14 0 0 -10 0 -10 -15 0 -15 0 0 10 0 10 15 0 15 0 0 15 0 15 15
0 15 0 0 11 0 10 14 15 15 14 10 0 11 0 0 15 0 15 15 0 15 0 0 11 0 10 14 15
15 14 10 0 11 0 0 15 0 15 15 0 15 0 0 11 0 10 14 15 15 14 10 0 11 0 0 15 0
15 15 0 15 0 0 11 0 10 14 15 15 14 10 0 11 0 0 15 0 15 15 0 15 0 0 14 0 14
13 6 12 6 -12 6 -13 6 0 14 0 14 -15 0 -15 0 0 15 0 15 -11 0 -10 0 -15 14
-14 15 0 10 0 11 -15 0 -15 0 0 15 0 15 -11 0 -10 0 -15 14 -14 15 0 10 0 11
-15 0 -15 0 0 15 0 15 -11 0 -10 0 -15 14 -14 15 0 10 0 11 -15 0 -15 0 0 15
0 15 -11 0 -10 0 -15 14 -14 15 0 10 0 11 -15 0 -15 0 0 15 0 15 -15 0 -15 0
0 10 0 10 600 0 600 0 0 -199z"/>
<path d="M480 520 l0 -10 -15 0 -15 0 0 -15 0 -15 -10 0 -10 0 0 -15 0 -15
-15 0 -15 0 0 -10 0 -10 -15 0 -15 0 0 -15 0 -15 -10 0 -10 0 0 -15 0 -15 -15
0 -15 0 0 -10 0 -10 -15 0 -15 0 0 -15 0 -15 -10 0 -10 0 0 -15 0 -15 -15 0
-15 0 0 -10 0 -10 -15 0 -15 0 0 -15 0 -15 -10 0 -10 0 0 -15 0 -15 -15 0 -15
0 0 -10 0 -10 -15 0 -15 0 0 -15 0 -15 -10 0 -10 0 0 -15 0 -15 10 0 10 0 0
15 0 15 15 0 15 0 0 -15 0 -15 15 0 15 0 0 15 0 15 10 0 10 0 0 -15 0 -15 15
0 15 0 0 15 0 15 15 0 15 0 0 -15 0 -15 10 0 10 0 0 15 0 15 15 0 15 0 0 -15
0 -15 15 0 15 0 0 15 0 15 10 0 10 0 0 -15 0 -15 15 0 15 0 0 15 0 15 15 0 15
0 0 -15 0 -15 10 0 10 0 0 15 0 15 15 0 15 0 0 -15 0 -15 15 0 15 0 0 15 0 15
10 0 10 0 0 -15 0 -15 15 0 15 0 0 15 0 15 15 0 15 0 0 -15 0 -15 10 0 10 0 0
15 0 15 15 0 15 0 0 -15 0 -15 15 0 15 0 0 15 0 15 10 0 10 0 0 -15 0 -15 15
0 15 0 0 15 0 15 15 0 15 0 0 -15 0 -15 10 0 10 0 0 15 0 15 15 0 15 0 0 -15
0 -15 15 0 15 0 0 15 0 15 10 0 10 0 0 -15 0 -15 15 0 15 0 0 15 0 15 15 0 15
0 0 -15 0 -15 10 0 10 0 0 15 0 15 15 0 15 0 0 -15 0 -15 15 0 15 0 0 15 0 15
10 0 10 0 0 -15 0 -15 15 0 15 0 0 15 0 15 15 0 15 0 0 -15 0 -15 10 0 10 0 0
15 0 15 15 0 15 0 0 -15 0 -15 15 0 15 0 0 15 0 15 10 0 10 0 0 -15 0 -15 15
0 15 0 0 15 0 15 15 0 15 0 0 15 0 15 -15 0 -15 0 0 10 0 10 15 0 15 0 0 15 0
15 -15 0 -15 0 0 15 0 15 15 0 15 0 0 10 0 10 -15 0 -15 0 0 15 0 15 15 0 15
0 0 15 0 15 -15 0 -15 0 0 10 0 10 15 0 15 0 0 15 0 15 -15 0 -15 0 0 15 0 15
15 0 15 0 0 10 0 10 -15 0 -15 0 0 15 0 15 15 0 15 0 0 15 0 15 -15 0 -15 0 0
10 0 10 -14 0 -14 0 -6 -12 -6 -13 -6 13 -6 12 -14 0 -14 0 0 -10 0 -10 -14 0
-14 0 -6 13 -6 12 -6 -12 -6 -13 -14 0 -14 0 0 10 0 10 -14 0 -14 0 -6 -12 -6
-13 -6 13 -6 12 -14 0 -14 0 0 -10 0 -10 -14 0 -14 0 -6 13 -6 12 -6 -12 -6
-13 -14 0 -14 0 0 10 0 10 -14 0 -14 0 -6 -12 -6 -13 -6 13 -6 12 -14 0 -14 0
0 -10 0 -10 -14 0 -14 0 -6 13 -6 12 -6 -12 -6 -13 -14 0 -14 0 0 10 0 10 -14
0 -14 0 -6 -12 -6 -13 -6 13 -6 12 -14 0 -14 0 0 -10 0 -10 -14 0 -14 0 -6 13
-6 12 -6 -12 -6 -13 -14 0 -14 0 0 10 0 10 -14 0 -14 0 -6 -12 -6 -13 -6 13
-6 12 -14 0 -14 0 0 -10z m30 -25 l0 -15 10 0 10 0 0 15 0 15 15 0 15 0 0 -15
0 -15 15 0 15 0 0 15 0 15 10 0 10 0 0 -15 0 -15 15 0 15 0 0 15 0 15 15 0 15
0 0 -15 0 -15 10 0 10 0 0 15 0 15 15 0 15 0 0 -15 0 -15 15 0 15 0 0 15 0 15
10 0 10 0 0 -15 0 -15 15 0 15 0 0 15 0 15 15 0 15 0 0 -15 0 -15 10 0 10 0 0
15 0 15 15 0 15 0 0 -15 0 -15 15 0 15 0 0 15 0 15 10 0 10 0 0 -15 0 -15 15
0 15 0 0 15 0 15 15 0 15 0 0 -15 0 -15 10 0 10 0 0 15 0 15 15 0 15 0 0 -15
0 -15 15 0 15 0 0 15 0 15 10 0 10 0 0 -15 0 -15 15 0 15 0 0 15 0 15 15 0 15
0 0 -15 0 -15 10 0 10 0 0 15 0 15 15 0 15 0 0 -15 0 -15 -15 0 -15 0 0 -15 0
-15 15 0 15 0 0 -10 0 -10 -15 0 -15 0 0 -15 0 -15 15 0 15 0 0 -15 0 -15 -15
0 -15 0 0 15 0 15 -10 0 -10 0 0 -15 0 -15 -15 0 -15 0 0 -10 0 -10 15 0 15 0
0 -15 0 -15 10 0 10 0 0 15 0 15 15 0 15 0 0 -15 0 -15 -15 0 -15 0 0 -15 0
-15 15 0 15 0 0 -10 0 -10 -15 0 -15 0 0 -15 0 -15 15 0 15 0 0 -15 0 -15 -15
0 -15 0 0 15 0 15 -10 0 -10 0 0 -15 0 -15 -15 0 -15 0 0 -10 0 -10 15 0 15 0
0 -15 0 -15 -15 0 -15 0 0 15 0 15 -15 0 -15 0 0 -15 0 -15 -10 0 -10 0 0 15
0 15 -15 0 -15 0 0 -15 0 -15 -15 0 -15 0 0 15 0 15 15 0 15 0 0 10 0 10 -15
0 -15 0 0 15 0 15 -10 0 -10 0 0 -15 0 -15 -15 0 -15 0 0 -10 0 -10 15 0 15 0
0 -15 0 -15 -15 0 -15 0 0 15 0 15 -15 0 -15 0 0 -15 0 -15 -10 0 -10 0 0 15
0 15 -15 0 -15 0 0 -15 0 -15 -15 0 -15 0 0 15 0 15 15 0 15 0 0 10 0 10 -15
0 -15 0 0 15 0 15 -10 0 -10 0 0 -15 0 -15 -15 0 -15 0 0 -10 0 -10 15 0 15 0
0 -15 0 -15 -15 0 -15 0 0 15 0 15 -15 0 -15 0 0 -15 0 -15 -10 0 -10 0 0 15
0 15 -15 0 -15 0 0 -15 0 -15 -15 0 -15 0 0 15 0 15 15 0 15 0 0 10 0 10 -15
0 -15 0 0 15 0 15 -10 0 -10 0 0 -15 0 -15 -15 0 -15 0 0 -10 0 -10 15 0 15 0
0 -15 0 -15 -15 0 -15 0 0 15 0 15 -15 0 -15 0 0 -15 0 -15 -10 0 -10 0 0 15
0 15 -15 0 -15 0 0 -15 0 -15 -15 0 -15 0 0 15 0 15 15 0 15 0 0 10 0 10 -15
0 -15 0 0 15 0 15 -10 0 -10 0 0 -15 0 -15 -15 0 -15 0 0 -10 0 -10 15 0 15 0
0 -15 0 -15 -15 0 -15 0 0 15 0 15 -15 0 -15 0 0 -15 0 -15 -10 0 -10 0 0 15
0 15 -15 0 -15 0 0 -15 0 -15 -15 0 -15 0 0 15 0 15 15 0 15 0 0 10 0 10 -15
0 -15 0 0 15 0 15 -10 0 -10 0 0 -15 0 -15 -15 0 -15 0 0 -10 0 -10 15 0 15 0
0 -15 0 -15 -15 0 -15 0 0 15 0 15 -15 0 -15 0 0 -15 0 -15 -10 0 -10 0 0 15
0 15 -15 0 -15 0 0 -15 0 -15 -15 0 -15 0 0 15 0 15 15 0 15 0 0 10 0 10 -11
0 -10 0 -15 -14 -14 -15 0 -10 0 -11 -15 0 -15 0 0 15 0 15 11 0 10 0 15 14
14 15 0 10 0 11 15 0 15 0 0 15 0 15 11 0 10 0 15 14 14 15 0 10 0 11 15 0 15
0 0 15 0 15 11 0 10 0 15 14 14 15 0 10 0 11 15 0 15 0 0 15 0 15 11 0 10 0
15 14 14 15 0 10 0 11 15 0 15 0 0 15 0 15 15 0 15 0 0 -15z m660 -135 l0 -10
-10 0 -10 0 0 10 0 10 10 0 10 0 0 -10z m-800 -160 l0 -10 -10 0 -10 0 0 10 0
10 10 0 10 0 0 -10z m160 0 l0 -10 -10 0 -10 0 0 10 0 10 10 0 10 0 0 -10z
m160 0 l0 -10 -10 0 -10 0 0 10 0 10 10 0 10 0 0 -10z m160 0 l0 -10 -10 0
-10 0 0 10 0 10 10 0 10 0 0 -10z m160 0 l0 -10 -10 0 -10 0 0 10 0 10 10 0
10 0 0 -10z m160 0 l0 -10 15 0 15 0 0 -15 0 -15 -15 0 -15 0 0 15 0 15 -10 0
-10 0 0 10 0 10 10 0 10 0 0 -10z"/>
<path d="M480 465 l0 -15 -11 0 -10 0 -15 -14 -14 -15 0 -10 0 -11 -15 0 -15
0 0 -15 0 -15 -11 0 -10 0 -15 -14 -14 -15 0 -10 0 -11 -15 0 -15 0 0 -15 0
-15 -11 0 -10 0 -15 -14 -14 -15 0 -10 0 -11 -15 0 -15 0 0 -15 0 -15 14 0 14
0 6 -12 6 -13 6 13 6 12 14 0 14 0 0 15 0 15 15 0 15 0 0 15 0 15 -15 0 -15 0
0 10 0 10 15 0 15 0 0 15 0 15 10 0 10 0 0 -15 0 -15 15 0 15 0 0 -10 0 -10
-15 0 -15 0 0 -15 0 -15 15 0 15 0 0 -15 0 -15 14 0 14 0 6 -12 6 -13 6 13 6
12 14 0 14 0 0 15 0 15 15 0 15 0 0 15 0 15 -15 0 -15 0 0 10 0 10 15 0 15 0
0 15 0 15 10 0 10 0 0 -15 0 -15 15 0 15 0 0 -10 0 -10 -15 0 -15 0 0 -15 0
-15 15 0 15 0 0 -15 0 -15 14 0 14 0 6 -12 6 -13 6 13 6 12 14 0 14 0 0 15 0
15 15 0 15 0 0 15 0 15 -15 0 -15 0 0 10 0 10 15 0 15 0 0 15 0 15 10 0 10 0
0 -15 0 -15 15 0 15 0 0 -10 0 -10 -15 0 -15 0 0 -15 0 -15 15 0 15 0 0 -15 0
-15 14 0 14 0 6 -12 6 -13 6 13 6 12 14 0 14 0 0 15 0 15 15 0 15 0 0 15 0 15
-15 0 -15 0 0 10 0 10 15 0 15 0 0 15 0 15 10 0 10 0 0 -15 0 -15 15 0 15 0 0
-10 0 -10 -15 0 -15 0 0 -15 0 -15 15 0 15 0 0 -15 0 -15 14 0 14 0 6 -12 6
-13 6 13 6 12 14 0 14 0 0 15 0 15 15 0 15 0 0 15 0 15 -15 0 -15 0 0 10 0 10
15 0 15 0 0 15 0 15 10 0 10 0 0 -15 0 -15 15 0 15 0 0 -10 0 -10 -15 0 -15 0
0 -15 0 -15 15 0 15 0 0 -15 0 -15 14 0 14 0 6 -12 6 -13 6 13 6 12 14 0 14 0
0 15 0 15 15 0 15 0 0 14 0 14 13 6 12 6 -12 6 -13 6 0 14 0 14 -15 0 -15 0 0
15 0 15 -15 0 -15 0 0 -15 0 -15 -10 0 -10 0 0 15 0 15 -15 0 -15 0 0 10 0 10
15 0 15 0 0 15 0 15 10 0 10 0 0 -15 0 -15 15 0 15 0 0 15 0 15 15 0 15 0 0
14 0 14 13 6 12 6 -12 6 -13 6 0 14 0 14 -15 0 -15 0 0 -15 0 -15 -15 0 -15 0
0 15 0 15 -10 0 -10 0 0 -15 0 -15 -15 0 -15 0 0 15 0 15 -15 0 -15 0 0 -15 0
-15 15 0 15 0 0 -10 0 -10 -15 0 -15 0 0 -15 0 -15 -10 0 -10 0 0 15 0 15 -15
0 -15 0 0 10 0 10 15 0 15 0 0 15 0 15 -15 0 -15 0 0 -15 0 -15 -15 0 -15 0 0
15 0 15 -10 0 -10 0 0 -15 0 -15 -15 0 -15 0 0 15 0 15 -15 0 -15 0 0 -15 0
-15 15 0 15 0 0 -10 0 -10 -15 0 -15 0 0 -15 0 -15 -10 0 -10 0 0 15 0 15 -15
0 -15 0 0 10 0 10 15 0 15 0 0 15 0 15 -15 0 -15 0 0 -15 0 -15 -15 0 -15 0 0
15 0 15 -10 0 -10 0 0 -15 0 -15 -15 0 -15 0 0 15 0 15 -15 0 -15 0 0 -15 0
-15 15 0 15 0 0 -10 0 -10 -15 0 -15 0 0 -15 0 -15 -10 0 -10 0 0 15 0 15 -15
0 -15 0 0 10 0 10 15 0 15 0 0 15 0 15 -15 0 -15 0 0 -15 0 -15 -15 0 -15 0 0
15 0 15 -10 0 -10 0 0 -15 0 -15 -15 0 -15 0 0 15 0 15 -15 0 -15 0 0 -15 0
-15 15 0 15 0 0 -10 0 -10 -15 0 -15 0 0 -15 0 -15 -10 0 -10 0 0 15 0 15 -15
0 -15 0 0 10 0 10 15 0 15 0 0 15 0 15 -15 0 -15 0 0 -15z m130 -25 l0 -10 15
0 15 0 0 -15 0 -15 15 0 15 0 0 -15 0 -15 -15 0 -15 0 0 -10 0 -10 15 0 15 0
0 -15 0 -15 -15 0 -15 0 0 -15 0 -15 -15 0 -15 0 0 15 0 15 -10 0 -10 0 0 -15
0 -15 -15 0 -15 0 0 15 0 15 -15 0 -15 0 0 15 0 15 15 0 15 0 0 10 0 10 -15 0
-15 0 0 15 0 15 15 0 15 0 0 15 0 15 15 0 15 0 0 10 0 10 10 0 10 0 0 -10z
m160 0 l0 -10 15 0 15 0 0 -15 0 -15 15 0 15 0 0 -15 0 -15 -15 0 -15 0 0 -10
0 -10 15 0 15 0 0 -15 0 -15 -15 0 -15 0 0 -15 0 -15 -15 0 -15 0 0 15 0 15
-10 0 -10 0 0 -15 0 -15 -15 0 -15 0 0 15 0 15 -15 0 -15 0 0 14 0 14 -12 6
-13 6 13 6 12 6 0 14 0 14 15 0 15 0 0 15 0 15 15 0 15 0 0 10 0 10 10 0 10 0
0 -10z m160 0 l0 -10 15 0 15 0 0 -15 0 -15 15 0 15 0 0 -15 0 -15 -15 0 -15
0 0 -10 0 -10 15 0 15 0 0 -15 0 -15 -15 0 -15 0 0 -15 0 -15 -15 0 -15 0 0
15 0 15 -10 0 -10 0 0 -15 0 -15 -15 0 -15 0 0 15 0 15 -15 0 -15 0 0 14 0 14
-12 6 -13 6 13 6 12 6 0 14 0 14 15 0 15 0 0 15 0 15 15 0 15 0 0 10 0 10 10
0 10 0 0 -10z m160 0 l0 -10 15 0 15 0 0 10 0 10 15 0 15 0 0 -10 0 -10 -15 0
-15 0 0 -15 0 -15 -15 0 -15 0 0 15 0 15 -10 0 -10 0 0 -15 0 -15 -15 0 -15 0
0 -15 0 -15 -15 0 -15 0 0 -10 0 -10 15 0 15 0 0 -15 0 -15 15 0 15 0 0 -15 0
-15 -15 0 -15 0 0 15 0 15 -15 0 -15 0 0 14 0 14 -12 6 -13 6 13 6 12 6 0 14
0 14 15 0 15 0 0 15 0 15 15 0 15 0 0 10 0 10 10 0 10 0 0 -10z m-610 -25 l0
-15 15 0 15 0 0 -14 0 -14 13 -6 12 -6 -12 -6 -13 -6 0 -14 0 -14 -15 0 -15 0
0 -15 0 -15 -15 0 -15 0 0 15 0 15 -10 0 -10 0 0 -15 0 -15 -15 0 -15 0 0 15
0 15 -15 0 -15 0 0 15 0 15 15 0 15 0 0 10 0 10 15 0 15 0 0 15 0 15 10 0 10
0 0 15 0 15 15 0 15 0 0 -15z m640 -110 l0 -15 15 0 15 0 0 -10 0 -10 -15 0
-15 0 0 -15 0 -15 -15 0 -15 0 0 -15 0 -15 -10 0 -10 0 0 15 0 15 -15 0 -15 0
0 15 0 15 11 0 10 0 15 14 14 15 0 10 0 11 15 0 15 0 0 -15z m-670 -25 l0 -10
15 0 15 0 0 -15 0 -15 -15 0 -15 0 0 -15 0 -15 -10 0 -10 0 0 15 0 15 -15 0
-15 0 0 15 0 15 15 0 15 0 0 10 0 10 10 0 10 0 0 -10z m160 0 l0 -10 15 0 15
0 0 -15 0 -15 -15 0 -15 0 0 -15 0 -15 -10 0 -10 0 0 15 0 15 -15 0 -15 0 0
15 0 15 15 0 15 0 0 10 0 10 10 0 10 0 0 -10z m160 0 l0 -10 15 0 15 0 0 -15
0 -15 -15 0 -15 0 0 -15 0 -15 -10 0 -10 0 0 15 0 15 -15 0 -15 0 0 15 0 15
15 0 15 0 0 10 0 10 10 0 10 0 0 -10z m160 0 l0 -10 15 0 15 0 0 -15 0 -15
-15 0 -15 0 0 -15 0 -15 -10 0 -10 0 0 15 0 15 -15 0 -15 0 0 15 0 15 15 0 15
0 0 10 0 10 10 0 10 0 0 -10z m-610 -25 l0 -15 -15 0 -15 0 0 -15 0 -15 -10 0
-10 0 0 15 0 15 10 0 10 0 0 15 0 15 15 0 15 0 0 -15z"/>
<path d="M590 415 l0 -15 -15 0 -15 0 0 -15 0 -15 15 0 15 0 0 15 0 15 10 0
10 0 0 -15 0 -15 15 0 15 0 0 15 0 15 -15 0 -15 0 0 15 0 15 -10 0 -10 0 0
-15z"/>
<path d="M590 360 l0 -10 -15 0 -15 0 0 -15 0 -15 15 0 15 0 0 15 0 15 10 0
10 0 0 -15 0 -15 15 0 15 0 0 15 0 15 -15 0 -15 0 0 10 0 10 -10 0 -10 0 0
-10z"/>
<path d="M750 415 l0 -15 -15 0 -15 0 0 -15 0 -15 -15 0 -15 0 0 -10 0 -10 15
0 15 0 0 -15 0 -15 15 0 15 0 0 15 0 15 -15 0 -15 0 0 10 0 10 15 0 15 0 0 15
0 15 10 0 10 0 0 -15 0 -15 15 0 15 0 0 15 0 15 -15 0 -15 0 0 15 0 15 -10 0
-10 0 0 -15z"/>
<path d="M750 360 l0 -10 10 0 10 0 0 -15 0 -15 15 0 15 0 0 15 0 15 -15 0
-15 0 0 10 0 10 -10 0 -10 0 0 -10z"/>
<path d="M910 415 l0 -15 -15 0 -15 0 0 -15 0 -15 -15 0 -15 0 0 -10 0 -10 15
0 15 0 0 -15 0 -15 15 0 15 0 0 15 0 15 -15 0 -15 0 0 10 0 10 15 0 15 0 0 15
0 15 10 0 10 0 0 -15 0 -15 15 0 15 0 0 15 0 15 -15 0 -15 0 0 15 0 15 -10 0
-10 0 0 -15z"/>
<path d="M910 360 l0 -10 10 0 10 0 0 -15 0 -15 15 0 15 0 0 15 0 15 -15 0
-15 0 0 10 0 10 -10 0 -10 0 0 -10z"/>
<path d="M450 389 l0 -10 -14 -15 -15 -14 -10 0 -11 0 0 -15 0 -15 15 0 15 0
0 11 0 10 14 15 15 14 10 0 11 0 0 -10 0 -10 -15 0 -15 0 0 -15 0 -15 15 0 15
0 0 15 0 15 15 0 15 0 0 10 0 10 -15 0 -15 0 0 15 0 15 -15 0 -15 0 0 -11z"/>
<path d="M1083 275 l-13 -14 0 -11 0 -10 10 0 10 0 0 15 0 15 15 0 15 0 0 10
0 10 -12 0 -13 -1 -12 -14z"/>
<path d="M430 255 l0 -15 10 0 10 0 0 15 0 15 -10 0 -10 0 0 -15z"/>
<path d="M590 255 l0 -15 10 0 10 0 0 15 0 15 -10 0 -10 0 0 -15z"/>
<path d="M750 255 l0 -15 10 0 10 0 0 15 0 15 -10 0 -10 0 0 -15z"/>
<path d="M910 255 l0 -15 10 0 10 0 0 15 0 15 -10 0 -10 0 0 -15z"/>
<path d="M510 440 l0 -10 10 0 10 0 0 10 0 10 -10 0 -10 0 0 -10z"/>
<path d="M670 440 l0 -10 10 0 10 0 0 10 0 10 -10 0 -10 0 0 -10z"/>
<path d="M830 440 l0 -10 10 0 10 0 0 10 0 10 -10 0 -10 0 0 -10z"/>
<path d="M990 440 l0 -10 10 0 10 0 0 10 0 10 -10 0 -10 0 0 -10z"/>
<path d="M1070 360 l0 -10 10 0 10 0 0 10 0 10 -10 0 -10 0 0 -10z"/>
<path d="M350 280 l0 -10 10 0 10 0 0 10 0 10 -10 0 -10 0 0 -10z"/>
<path d="M510 280 l0 -10 10 0 10 0 0 10 0 10 -10 0 -10 0 0 -10z"/>
<path d="M670 280 l0 -10 10 0 10 0 0 10 0 10 -10 0 -10 0 0 -10z"/>
<path d="M830 280 l0 -10 10 0 10 0 0 10 0 10 -10 0 -10 0 0 -10z"/>
<path d="M990 280 l0 -10 10 0 10 0 0 10 0 10 -10 0 -10 0 0 -10z"/>
</g>
</svg>
