<?xml version="1.0" standalone="no"?>
<!DOCTYPE svg PUBLIC "-//W3C//DTD SVG 20010904//EN"
 "http://www.w3.org/TR/2001/REC-SVG-20010904/DTD/svg10.dtd">
<svg version="1.0" xmlns="http://www.w3.org/2000/svg"
 width="468pt" height="468pt" viewBox="0 0 468 468"
 preserveAspectRatio="xMidYMid meet">
<metadata>
Created by potrace 1.8, written by Peter Selinger 2001-2007
</metadata>
<g transform="translate(0,468) scale(0.365625,-0.365625)"
fill="#000000" stroke="none">
<path d="M320 640 l0 -580 30 0 30 0 0 -30 0 -30 290 0 290 0 0 480 0 480 -30
0 -30 0 0 30 0 30 -35 0 -35 0 0 35 0 35 -30 0 -30 0 0 30 0 30 -35 0 -35 0 0
35 0 35 -190 0 -190 0 0 -580z m320 385 l0 -125 30 0 30 0 0 -35 0 -35 65 0
65 0 0 -350 0 -350 -225 0 -225 0 0 510 0 510 130 0 130 0 0 -125z m130 30 l0
-35 30 0 30 0 0 -30 0 -30 -65 0 -65 0 0 65 0 65 35 0 35 0 0 -35z"/>
<path d="M0 545 l0 -225 30 0 30 0 0 30 0 30 35 0 35 0 0 35 0 35 30 0 30 0 0
30 0 30 35 0 35 0 0 35 0 35 -35 0 -35 0 0 30 0 30 -30 0 -30 0 0 30 0 30 -35
0 -35 0 0 35 0 35 -30 0 -30 0 0 -225z"/>
<path d="M1220 735 l0 -35 -35 0 -35 0 0 -30 0 -30 -30 0 -30 0 0 -30 0 -30
-35 0 -35 0 0 -35 0 -35 35 0 35 0 0 -30 0 -30 30 0 30 0 0 -35 0 -35 35 0 35
0 0 -30 0 -30 30 0 30 0 0 225 0 225 -30 0 -30 0 0 -35z"/>
</g>
</svg>
