<?xml version="1.0" standalone="no"?>
<!DOCTYPE svg PUBLIC "-//W3C//DTD SVG 20010904//EN"
 "http://www.w3.org/TR/2001/REC-SVG-20010904/DTD/svg10.dtd">
<svg version="1.0" xmlns="http://www.w3.org/2000/svg"
 width="468pt" height="468pt" viewBox="0 0 468 468"
 preserveAspectRatio="xMidYMid meet">
<metadata>
Created by potrace 1.8, written by Peter Selinger 2001-2007
</metadata>
<g transform="translate(0,468) scale(0.365625,-0.365625)"
fill="#000000" stroke="none">
<path d="M73 1245 l-13 -14 0 -11 0 -11 14 -15 15 -14 15 0 16 0 0 -450 0
-450 -16 0 -15 0 -15 -14 -14 -15 0 -15 0 -16 10 0 10 0 0 -10 0 -10 -40 0
-40 0 0 -100 0 -100 640 0 640 0 0 100 0 100 -36 0 -35 0 -15 14 -14 15 0 15
0 16 10 0 10 0 0 -20 0 -20 10 0 10 0 0 16 0 15 -14 15 -15 14 -15 0 -16 0 0
450 0 450 16 0 15 0 15 14 14 15 0 11 0 11 -14 15 -15 14 -553 0 -553 -1 -12
-14z m47 -25 l0 -20 -10 0 -10 0 0 20 0 20 10 0 10 0 0 -20z m40 0 l0 -20 -10
0 -10 0 0 20 0 20 10 0 10 0 0 -20z m40 0 l0 -20 -10 0 -10 0 0 20 0 20 10 0
10 0 0 -20z m60 0 l0 -20 -20 0 -20 0 0 20 0 20 20 0 20 0 0 -20z m60 0 l0
-20 -20 0 -20 0 0 20 0 20 20 0 20 0 0 -20z m80 0 l0 -20 -9 0 -9 0 -6 13 -6
12 -6 -12 -6 -13 -9 0 -9 0 0 20 0 20 30 0 30 0 0 -20z m120 0 l0 -20 -9 0 -9
0 -5 13 -5 12 -11 -15 -11 -15 -11 15 -11 15 -5 -12 -5 -13 -9 0 -9 0 0 20 0
20 50 0 50 0 0 -20z m140 0 l0 -20 -9 0 -9 0 -6 13 -6 12 -6 -12 -6 -13 -18 0
-18 0 -6 13 -6 12 -6 -12 -6 -13 -9 0 -9 0 0 20 0 20 60 0 60 0 0 -20z m120 0
l0 -20 -9 0 -9 0 -5 13 -5 12 -11 -15 -11 -15 -11 15 -11 15 -5 -12 -5 -13 -9
0 -9 0 0 20 0 20 50 0 50 0 0 -20z m100 0 l0 -20 -9 0 -9 0 -6 13 -6 12 -6
-12 -6 -13 -19 0 -19 0 0 20 0 20 40 0 40 0 0 -20z m80 0 l0 -20 -9 0 -9 0 -6
13 -6 12 -6 -12 -6 -13 -9 0 -9 0 0 20 0 20 30 0 30 0 0 -20z m60 0 l0 -20
-20 0 -20 0 0 20 0 20 20 0 20 0 0 -20z m60 0 l0 -20 -20 0 -20 0 0 20 0 20
20 0 20 0 0 -20z m40 0 l0 -20 -10 0 -10 0 0 20 0 20 10 0 10 0 0 -20z m40 0
l0 -20 -10 0 -10 0 0 20 0 20 10 0 10 0 0 -20z m40 0 l0 -20 -10 0 -10 0 0 20
0 20 10 0 10 0 0 -20z m-920 -50 l0 -10 -10 0 -10 0 0 10 0 10 10 0 10 0 0
-10z m180 -20 l0 -30 10 0 10 0 0 20 0 20 10 0 10 0 0 -10 0 -10 10 0 10 0 0
20 0 20 90 0 90 0 0 -80 0 -80 -9 0 -9 0 -5 13 -5 12 -11 -15 -11 -15 -9 15
-10 14 -21 -24 -21 -24 -10 14 -11 15 -5 -12 -5 -13 -29 0 -29 0 0 -10 0 -10
-10 0 -10 0 0 20 0 20 -10 0 -10 0 0 -30 0 -30 -20 0 -20 0 0 -10 0 -10 -16 0
-15 0 -15 -15 -15 -15 15 -15 15 -15 15 0 16 0 0 -10 0 -10 20 0 20 0 0 10 0
10 -16 0 -15 0 -16 15 -15 16 7 7 8 7 4 -12 5 -13 19 0 19 0 0 -10 0 -10 20 0
20 0 0 -10 0 -10 19 0 19 0 5 13 4 12 9 -9 9 -9 -12 -4 -13 -5 0 -9 0 -9 20 0
20 0 0 -10 0 -10 10 0 10 0 0 19 0 19 -12 4 -13 5 18 17 18 18 7 -6 6 -7 -14
-10 -15 -11 13 -5 12 -5 0 -18 0 -18 -12 -6 -13 -6 13 -6 12 -6 0 -18 0 -18
13 -5 12 -5 -15 -11 -15 -11 15 -9 14 -10 -6 -7 -7 -6 -16 15 -15 16 0 21 0
21 -35 34 -34 35 -16 0 -15 0 0 10 0 10 -20 0 -20 0 0 -120 0 -120 -20 0 -20
0 0 -10 0 -10 -15 0 -15 0 -65 -65 -65 -65 0 -15 0 -15 -10 0 -10 0 0 -20 0
-20 9 0 9 0 6 13 6 12 6 -12 6 -13 19 0 19 0 0 -9 0 -9 -12 -5 -13 -5 15 -11
14 -10 -24 -21 -24 -21 14 -9 14 -9 -7 -7 -7 -7 -19 21 -18 22 -7 0 -6 0 0
-20 0 -20 -10 0 -10 0 0 20 0 20 -10 0 -10 0 0 420 0 420 10 0 10 0 0 -30 0
-30 10 0 10 0 0 -30 0 -30 10 0 10 0 0 -16 0 -15 15 -15 15 -15 15 15 15 15 0
14 0 15 13 5 12 4 -7 8 -8 8 -20 -22 -19 -23 -18 18 -18 17 13 5 12 4 0 19 0
19 -10 0 -10 0 0 20 0 20 10 0 10 0 0 -10 0 -10 10 0 10 0 0 15 0 16 13 14 12
14 68 1 67 0 0 -30z m526 16 l14 -15 0 -25 0 -26 -10 0 -10 0 0 -30 0 -30 -10
0 -10 0 0 -16 0 -16 -42 -40 -43 -41 13 -4 12 -5 0 -9 0 -9 -16 0 -15 0 -16
16 -16 16 14 8 13 9 -8 8 -9 8 -4 -12 -5 -13 -19 0 -19 0 0 -10 0 -10 16 0 15
0 15 -14 14 -15 0 -5 0 -6 -19 0 -19 0 -5 13 -4 12 -9 -9 -9 -9 13 -4 12 -5 0
-9 0 -9 -20 0 -20 0 0 19 0 19 13 5 12 5 -15 11 -14 10 23 21 24 20 -8 8 -8 7
-4 -12 -5 -13 -9 0 -9 0 0 110 0 110 96 0 95 0 15 -14z m80 0 l14 -15 0 -415
0 -416 -10 0 -10 0 0 -20 0 -20 -10 0 -10 0 0 20 0 20 -10 0 -10 0 0 40 0 40
-10 0 -10 0 0 20 0 20 -10 0 -10 0 0 20 0 20 10 0 10 0 0 -20 0 -20 10 0 10 0
0 -20 0 -20 10 0 10 0 0 -40 0 -40 10 0 10 0 0 40 0 40 -10 0 -10 0 0 20 0 20
-10 0 -10 0 0 15 0 15 -65 65 -65 65 -15 0 -15 0 0 10 0 10 -20 0 -20 0 0 10
0 10 -20 0 -20 0 0 100 0 100 20 0 20 0 0 10 0 10 20 0 20 0 0 10 0 10 15 0
15 0 65 65 65 65 0 15 0 15 10 0 10 0 0 30 0 30 10 0 10 0 0 30 0 30 -10 0
-10 0 0 -30 0 -30 -10 0 -10 0 0 -30 0 -30 -10 0 -10 0 0 -15 0 -16 -46 -45
-45 -46 -6 6 -5 5 41 40 41 39 0 16 0 16 10 0 10 0 0 30 0 30 10 0 10 0 0 30
0 30 -10 0 -10 0 0 10 0 10 26 0 25 0 15 -14z m-886 -446 l0 -440 -10 0 -10 0
0 440 0 440 10 0 10 0 0 -440z m580 0 l0 -440 -10 0 -10 0 0 440 0 440 10 0
10 0 0 -440z m380 0 l0 -440 -10 0 -10 0 0 440 0 440 10 0 10 0 0 -440z m-453
284 l16 -16 -14 -10 -14 -10 13 -5 12 -5 0 -18 0 -18 -12 -6 -13 -6 13 -6 12
-6 0 -28 0 -28 -12 -6 -13 -6 13 -6 12 -6 0 -19 0 -19 -10 0 -10 0 0 -39 0
-39 13 -5 12 -5 -15 -12 -15 -12 13 -5 12 -5 0 -79 0 -79 -20 0 -20 0 0 10 0
10 -15 0 -16 0 -25 -25 -25 -25 15 -16 16 -15 17 17 18 17 -13 5 -12 4 0 9 0
9 20 0 20 0 0 -20 0 -20 9 0 9 0 5 13 4 12 9 -9 9 -9 -12 -4 -13 -5 0 -19 0
-19 10 0 10 0 0 -30 0 -30 -6 0 -5 0 -16 16 -16 16 14 8 13 9 -8 8 -9 8 -4
-12 -5 -13 -15 0 -15 0 -40 43 -41 42 -4 -12 -5 -13 -9 0 -9 0 0 40 0 40 -10
0 -10 0 0 -60 0 -60 -10 0 -10 0 0 30 0 30 -10 0 -10 0 0 -35 0 -36 -25 -24
-24 -25 -12 0 -11 0 -29 -31 -30 -32 -7 8 -7 8 13 4 12 5 0 18 0 18 -12 5 -13
5 14 10 15 10 -34 32 -33 31 7 6 6 6 20 -23 20 -23 8 8 7 8 -12 4 -13 5 0 15
0 15 41 39 41 40 -6 6 -6 6 -20 -23 -20 -23 -6 6 -6 6 28 28 28 27 4 -12 4
-12 19 0 19 0 0 9 0 9 -12 5 -13 4 9 9 9 9 4 -12 5 -13 19 0 19 0 0 20 0 20
20 0 20 0 0 -10 0 -10 -10 0 -10 0 0 -20 0 -20 10 0 10 0 0 19 0 19 13 5 12 5
-14 10 -14 10 17 18 18 17 8 -13 8 -13 17 16 16 17 -16 16 -16 16 -7 -6 -6 -7
14 -9 14 -9 -6 -7 -7 -6 -16 15 -15 16 0 55 0 56 6 0 5 0 15 -14 14 -15 0 -31
0 -31 14 -15 15 -14 11 0 11 0 16 16 16 16 -14 9 -14 9 15 11 15 11 -12 5 -13
5 0 9 0 9 20 0 20 0 0 10 0 10 -10 0 -10 0 0 19 0 19 -12 5 -13 5 15 11 15 11
-15 10 -15 10 15 10 15 10 -15 10 -15 10 15 9 14 10 -23 21 -24 20 8 8 8 7 4
-12 5 -13 9 0 9 0 0 20 0 20 6 0 5 0 16 -16z m-81 -39 l15 -15 -26 -26 -26
-26 -6 6 -6 6 24 21 24 22 -12 4 -13 5 0 9 0 9 6 0 5 0 15 -15z m-66 -35 l0
-10 -10 0 -10 0 0 10 0 10 10 0 10 0 0 -10z m-20 -190 l0 -80 -10 0 -10 0 0
80 0 80 10 0 10 0 0 -80z m300 -129 l0 -9 -12 -5 -13 -4 9 -9 9 -9 4 13 5 12
19 0 19 0 0 -9 0 -9 -12 -5 -13 -4 9 -9 9 -9 4 13 5 12 14 0 15 0 46 -47 47
-47 -12 -4 -12 -4 0 -19 0 -19 10 0 10 0 0 -20 0 -20 10 0 10 0 0 -40 0 -40
10 0 10 0 0 -20 0 -20 -20 0 -20 0 0 10 0 10 -19 0 -19 0 -5 -12 -5 -13 -12
15 -12 15 -5 -12 -5 -13 -18 0 -18 0 -5 13 -5 12 -11 -15 -11 -15 -11 15 -11
15 -5 -12 -5 -13 -9 0 -9 0 0 16 0 17 22 18 21 19 -8 8 -8 7 -4 -12 -5 -13 -9
0 -9 0 0 40 0 40 10 0 10 0 0 -20 0 -20 16 0 15 0 16 -16 16 -16 -14 -8 -13
-9 8 -8 9 -8 4 13 5 12 9 0 9 0 0 -20 0 -20 9 0 9 0 5 13 5 12 11 -15 10 -14
7 6 6 7 -15 16 -16 15 -11 0 -10 0 -55 55 -55 55 0 85 0 85 20 0 20 0 0 -9z
m-280 -181 l0 -10 -10 0 -10 0 0 10 0 10 10 0 10 0 0 -10z m40 -20 l0 -10 -10
0 -10 0 0 -20 0 -20 9 0 9 0 5 13 5 12 12 -15 12 -15 5 13 5 12 14 0 15 0 26
-26 26 -26 -14 -9 -14 -9 15 -9 14 -10 -8 -8 -9 -8 -4 13 -5 12 -19 0 -19 0 0
-10 0 -10 -20 0 -20 0 0 10 0 10 10 0 10 0 0 19 0 19 13 5 12 4 -7 8 -7 7 -41
-42 -41 -42 -6 6 -6 6 23 20 23 20 -21 19 -22 18 0 12 0 12 13 14 12 14 8 1 7
0 0 -10z m-73 -25 l15 -16 -5 -6 -6 -5 -16 15 -15 16 0 5 0 6 6 0 5 0 16 -15z
m-27 -35 l0 -10 -10 0 -10 0 0 10 0 10 10 0 10 0 0 -10z m60 -20 l0 -10 -10 0
-10 0 0 10 0 10 10 0 10 0 0 -10z m-420 -90 l0 -20 -10 0 -10 0 0 20 0 20 10
0 10 0 0 -20z m40 0 l0 -20 -10 0 -10 0 0 20 0 20 10 0 10 0 0 -20z m40 0 l0
-20 -10 0 -10 0 0 20 0 20 10 0 10 0 0 -20z m60 0 l0 -20 -20 0 -20 0 0 20 0
20 20 0 20 0 0 -20z m60 0 l0 -20 -20 0 -20 0 0 20 0 20 20 0 20 0 0 -20z m80
0 l0 -20 -9 0 -9 0 -6 13 -6 12 -6 -12 -6 -13 -9 0 -9 0 0 20 0 20 30 0 30 0
0 -20z m120 0 l0 -20 -9 0 -9 0 -5 13 -5 12 -11 -15 -11 -15 -11 15 -11 15 -5
-12 -5 -13 -9 0 -9 0 0 20 0 20 50 0 50 0 0 -20z m140 0 l0 -20 -9 0 -9 0 -5
13 -5 12 -11 -15 -11 -15 -11 15 -11 15 -5 -12 -5 -13 -19 0 -19 0 0 20 0 20
60 0 60 0 0 -20z m120 0 l0 -20 -9 0 -9 0 -5 13 -5 12 -11 -15 -11 -15 -11 15
-11 15 -5 -12 -5 -13 -9 0 -9 0 0 20 0 20 50 0 50 0 0 -20z m100 0 l0 -20 -9
0 -9 0 -6 13 -6 12 -6 -12 -6 -13 -19 0 -19 0 0 20 0 20 40 0 40 0 0 -20z m80
0 l0 -20 -9 0 -9 0 -6 13 -6 12 -6 -12 -6 -13 -9 0 -9 0 0 20 0 20 30 0 30 0
0 -20z m60 0 l0 -20 -20 0 -20 0 0 20 0 20 20 0 20 0 0 -20z m60 0 l0 -20 -20
0 -20 0 0 20 0 20 20 0 20 0 0 -20z m40 0 l0 -20 -10 0 -10 0 0 20 0 20 10 0
10 0 0 -20z m40 0 l0 -20 -10 0 -10 0 0 20 0 20 10 0 10 0 0 -20z"/>
<path d="M500 1090 l0 -30 10 0 10 0 0 30 0 30 -10 0 -10 0 0 -30z"/>
<path d="M460 1070 l0 -30 10 0 10 0 0 30 0 30 -10 0 -10 0 0 -30z"/>
<path d="M280 1050 l0 -10 10 0 10 0 0 10 0 10 -10 0 -10 0 0 -10z"/>
<path d="M500 1030 l0 -10 10 0 10 0 0 10 0 10 -10 0 -10 0 0 -10z"/>
<path d="M312 985 l-13 -15 26 -26 25 -25 16 15 15 16 -25 25 -25 25 -3 0 -3
-1 -13 -14z"/>
<path d="M220 360 l0 -40 10 0 10 0 0 20 0 20 10 0 10 0 0 -20 0 -20 6 0 5 0
17 17 17 16 -13 5 -12 4 0 19 0 19 -9 0 -9 0 -6 -12 -6 -13 -6 13 -6 12 -9 0
-9 0 0 -40z"/>
<path d="M660 930 l0 -10 10 0 10 0 0 10 0 10 -10 0 -10 0 0 -10z"/>
<path d="M660 890 l0 -10 10 0 10 0 0 10 0 10 -10 0 -10 0 0 -10z"/>
<path d="M660 850 l0 -10 10 0 10 0 0 10 0 10 -10 0 -10 0 0 -10z"/>
<path d="M641 673 l-24 -25 14 -9 14 -9 -15 -10 -15 -10 15 -10 15 -10 -15 -9
-14 -10 7 -8 8 -7 10 14 9 15 9 -15 10 -14 7 7 7 7 -24 21 -24 22 13 4 12 5 0
29 0 29 10 0 10 0 0 10 0 10 -7 -1 -8 0 -24 -26z"/>
<path d="M460 530 l0 -30 10 0 10 0 0 30 0 30 -10 0 -10 0 0 -30z"/>
<path d="M633 445 l-13 -14 0 -6 0 -5 20 0 20 0 0 20 0 20 -7 0 -8 -1 -12 -14z"/>
<path d="M880 555 l0 -6 36 -35 35 -36 6 5 5 6 -36 35 -35 36 -6 0 -5 0 0 -5z"/>
<path d="M580 350 l0 -10 10 0 10 0 0 10 0 10 -10 0 -10 0 0 -10z"/>
<path d="M660 330 l0 -10 10 0 10 0 0 10 0 10 -10 0 -10 0 0 -10z"/>
</g>
</svg>
