<?xml version="1.0" standalone="no"?>
<!DOCTYPE svg PUBLIC "-//W3C//DTD SVG 20010904//EN"
 "http://www.w3.org/TR/2001/REC-SVG-20010904/DTD/svg10.dtd">
<svg version="1.0" xmlns="http://www.w3.org/2000/svg"
 width="468pt" height="468pt" viewBox="0 0 468 468"
 preserveAspectRatio="xMidYMid meet">
<metadata>
Created by potrace 1.8, written by Peter Selinger 2001-2007
</metadata>
<g transform="translate(0,468) scale(0.365625,-0.365625)"
fill="#000000" stroke="none">
<path d="M810 1269 l-45 -9 -74 -25 -74 -26 -19 -10 -18 -10 -92 32 -93 31
-95 5 -95 5 -57 -11 -57 -12 -33 -22 -32 -22 -15 -26 -15 -26 13 -31 13 -31
33 -15 33 -16 29 1 28 1 -37 7 -36 8 -26 16 -26 17 -6 25 -6 25 17 26 17 26
41 18 42 18 50 7 51 6 94 -20 95 -20 40 -16 40 -16 25 -12 25 -12 5 -7 5 -6
65 -22 65 -22 14 -8 14 -8 -33 -17 -33 -17 -86 33 -86 33 -5 3 -4 4 11 7 11 7
-61 1 -61 1 -4 12 -4 11 -44 0 -44 0 0 -10 0 -10 -19 0 -19 0 -31 -26 -31 -26
0 -8 0 -8 31 30 30 31 76 -6 76 -6 9 -9 9 -9 -73 -21 -73 -21 -30 -4 -30 -4
31 -2 30 -1 85 25 84 26 83 -32 82 -32 0 -7 0 -7 -62 -21 -63 -20 -63 -12 -62
-11 -38 7 -37 6 -38 21 -38 21 -5 23 -6 23 -9 0 -9 0 0 -11 0 -12 35 -32 34
-33 51 -12 52 -12 51 6 52 7 86 30 86 29 17 0 16 0 85 -35 85 -35 52 -14 53
-15 -457 0 -458 -1 0 -460 0 -460 640 0 640 0 0 460 0 460 -102 1 -103 1 15 5
15 6 30 25 30 25 45 19 45 19 12 16 13 17 0 26 0 27 -15 31 -16 31 -43 20 -42
21 -74 0 -74 0 -77 -21 -78 -21 -21 -18 -21 -18 -29 -12 -29 -12 -46 17 -45
18 0 8 0 9 -17 0 -18 1 -23 13 -24 13 29 11 28 11 77 26 77 25 58 0 58 0 28
-14 27 -15 0 9 0 9 -17 9 -18 10 -40 5 -40 5 -45 -9z m385 -89 l42 -20 18 -34
18 -33 -6 -25 -7 -26 -35 -16 -35 -17 -9 5 -8 6 -6 27 -6 28 -42 27 -43 28
-32 6 -32 6 -29 -14 -28 -13 -3 -23 -3 -22 15 0 16 0 0 9 0 9 -12 4 -13 5 26
17 27 17 41 -10 41 -9 34 -28 34 -29 5 -24 5 -24 -61 7 -60 6 -99 25 -98 25
-38 16 -37 16 45 21 45 20 6 9 6 9 64 19 64 18 74 1 75 1 41 -20z m-399 -126
l69 -26 90 -19 90 -19 59 0 60 0 -34 -25 -34 -25 -57 0 -58 0 -53 11 -53 11
-109 41 -108 40 33 18 34 18 1 1 2 0 68 -26z"/>
<path d="M500 1150 l0 -10 10 0 10 0 0 10 0 10 -10 0 -10 0 0 -10z"/>
</g>
</svg>
