<?xml version="1.0" standalone="no"?>
<!DOCTYPE svg PUBLIC "-//W3C//DTD SVG 20010904//EN"
 "http://www.w3.org/TR/2001/REC-SVG-20010904/DTD/svg10.dtd">
<svg version="1.0" xmlns="http://www.w3.org/2000/svg"
 width="468pt" height="468pt" viewBox="0 0 468 468"
 preserveAspectRatio="xMidYMid meet">
<metadata>
Created by potrace 1.8, written by Peter Selinger 2001-2007
</metadata>
<g transform="translate(0,468) scale(0.365625,-0.365625)"
fill="#000000" stroke="none">
<path d="M566 1037 l-180 -181 -4 12 -4 12 -19 0 -19 0 0 10 0 10 -20 0 -20 0
0 10 0 10 -20 0 -20 0 0 -10 0 -10 -10 0 -10 0 0 20 0 20 10 0 10 0 0 16 0 15
-17 17 -16 17 -5 -13 -4 -12 -19 0 -19 0 0 10 0 10 10 0 10 0 0 16 0 15 -17
17 -16 17 -5 -13 -4 -12 -9 0 -9 0 0 20 0 20 -10 0 -10 0 0 -30 0 -30 20 0 20
0 0 10 0 10 10 0 10 0 0 -20 0 -20 -10 0 -10 0 0 -20 0 -20 30 0 30 0 0 10 0
10 10 0 10 0 0 -20 0 -20 -10 0 -10 0 0 -16 0 -15 17 -17 16 -17 5 13 4 12 19
0 19 0 0 -10 0 -10 -10 0 -10 0 0 -18 0 -18 20 -14 20 -14 0 -14 0 -13 -80
-79 -80 -79 0 -16 0 -15 -10 0 -10 0 0 -49 0 -49 13 -5 12 -4 -32 -30 -33 -31
0 -21 0 -22 25 -24 24 -25 21 0 21 0 24 25 25 24 0 21 0 21 14 15 15 14 5 0 6
0 0 -16 0 -16 30 -28 30 -28 0 -12 0 -12 30 -28 30 -28 0 -12 0 -12 40 -38 40
-38 0 -16 0 -16 10 0 10 0 0 -50 0 -50 10 0 10 0 0 -16 0 -15 14 -15 15 -14
15 0 16 0 0 60 0 60 10 0 10 0 0 -10 0 -10 20 0 20 0 0 -10 0 -10 20 0 20 0 0
-10 0 -10 20 0 20 0 0 25 0 26 -35 34 -34 35 -16 0 -15 0 0 10 0 10 -16 0 -15
0 -15 14 -14 15 0 85 0 86 -10 0 -10 0 0 40 0 40 -30 0 -30 0 0 -106 0 -105
-15 -16 -16 -15 -7 7 -7 8 13 4 12 5 0 15 0 15 -30 28 -30 28 0 12 0 13 -22
20 -23 20 13 4 12 5 0 34 0 35 25 24 24 25 11 0 12 0 38 40 38 40 16 0 16 0 0
30 0 30 16 0 15 0 59 60 59 60 15 0 16 0 0 10 0 10 -20 0 -20 0 0 -10 0 -10
-20 0 -20 0 0 -20 0 -20 -16 0 -15 0 -15 -14 -14 -15 0 -15 0 -16 -16 0 -15 0
-15 -14 -14 -15 0 -15 0 -16 -16 0 -15 0 -15 -14 -14 -15 0 -11 0 -11 -14 -15
-15 -14 -11 0 -12 0 -29 -31 -30 -32 -5 6 -6 5 266 266 266 266 5 0 5 0 0 -20
0 -20 10 0 10 0 0 -50 0 -50 10 0 10 0 0 -60 0 -60 -10 0 -10 0 0 40 0 40 -10
0 -10 0 0 -40 0 -40 10 0 10 0 0 -30 0 -30 10 0 10 0 0 30 0 30 10 0 10 0 0
-50 0 -50 10 0 10 0 0 -50 0 -50 -10 0 -10 0 0 -20 0 -20 -20 0 -20 0 0 30 0
30 -10 0 -10 0 0 50 0 50 -10 0 -10 0 0 50 0 50 -10 0 -10 0 0 50 0 50 -10 0
-10 0 0 30 0 30 -10 0 -10 0 0 -16 0 -16 -41 -39 -41 -40 5 -6 6 -6 30 32 29
31 16 0 16 0 0 -50 0 -50 10 0 10 0 0 -50 0 -50 10 0 10 0 0 -50 0 -50 10 0
10 0 0 -40 0 -40 26 0 25 0 15 14 14 15 0 15 0 16 10 0 10 0 0 50 0 50 -10 0
-10 0 0 50 0 50 -10 0 -10 0 0 50 0 50 6 0 5 0 49 -50 49 -50 11 0 11 0 59
-60 59 -60 15 0 16 0 0 60 0 60 -10 0 -10 0 0 15 0 16 -25 24 -24 25 -11 0
-12 0 -38 40 -38 40 -12 0 -12 0 -28 30 -28 30 -11 0 -12 0 -27 27 -26 27 12
4 12 4 0 29 0 29 -10 0 -10 0 0 20 0 20 -10 0 -10 0 0 20 0 20 -20 0 -20 0 0
10 0 10 -57 -1 -58 -1 -179 -181z m189 38 l45 -44 0 -16 0 -15 -16 0 -16 0
-28 -30 -28 -30 -46 0 -46 0 0 45 0 45 43 45 42 44 3 0 3 1 44 -45z m195 -75
l14 -20 14 0 14 0 28 -30 28 -30 12 0 12 0 38 -40 38 -40 12 0 11 0 15 -14 14
-15 0 -15 0 -16 10 0 10 0 0 -50 0 -50 -6 0 -5 0 -59 60 -59 60 -11 0 -10 0
-65 65 -65 65 0 35 0 35 -10 0 -10 0 0 10 0 10 8 0 8 0 14 -20z m-604 -134
l14 -15 0 -15 0 -16 -16 0 -15 0 -15 14 -14 15 0 15 0 16 16 0 15 0 15 -14z
m-119 -381 l15 -16 -5 -6 -6 -5 -16 15 -15 16 0 5 0 6 6 0 5 0 16 -15z m133
-25 l0 -20 -30 0 -30 0 0 20 0 20 30 0 30 0 0 -20z m-154 -14 l14 -15 0 -21 0
-21 -14 -15 -15 -14 -21 0 -21 0 -15 14 -14 15 0 21 0 21 13 14 12 14 23 1 23
0 15 -14z m314 -16 l0 -30 10 0 10 0 0 -70 0 -70 -20 0 -20 0 0 100 0 100 10
0 10 0 0 -30z m-165 -35 l25 -24 0 -12 0 -11 30 -28 30 -28 0 -16 0 -16 -10 0
-10 0 0 16 0 16 -30 28 -30 28 0 14 0 14 -20 14 -20 14 0 8 0 8 5 0 6 0 24
-25z m165 -165 l0 -10 16 0 16 0 28 -30 28 -30 21 0 22 0 24 -25 25 -24 0 -16
0 -15 -10 0 -10 0 0 10 0 10 -20 0 -20 0 0 10 0 10 -20 0 -20 0 0 10 0 10 -20
0 -20 0 0 10 0 10 -30 0 -30 0 0 18 0 18 -20 14 -20 14 0 8 0 8 30 0 30 0 0
-10z m40 -150 l0 -60 -10 0 -10 0 0 20 0 20 -10 0 -10 0 0 25 0 26 13 14 12
14 8 1 7 0 0 -60z"/>
<path d="M673 1065 l-33 -34 0 -36 0 -35 36 0 35 0 15 14 14 15 0 15 0 16 20
0 20 0 0 10 0 10 -16 0 -15 0 -15 14 -14 15 0 15 0 16 -7 -1 -8 0 -32 -34z
m55 -22 l17 -16 -13 -5 -12 -4 0 -19 0 -19 -30 0 -30 0 0 30 0 30 20 0 20 0 0
10 0 10 6 0 5 0 17 -17z"/>
<path d="M691 1024 l-13 -15 6 -6 5 -5 16 15 15 16 0 5 0 6 -7 0 -8 -1 -14
-15z"/>
<path d="M1040 895 l0 -6 46 -45 45 -46 6 5 5 6 -46 45 -45 46 -6 0 -5 0 0 -5z"/>
<path d="M520 190 l0 -10 10 0 10 0 0 10 0 10 -10 0 -10 0 0 -10z"/>
</g>
</svg>
