<?xml version="1.0" standalone="no"?>
<!DOCTYPE svg PUBLIC "-//W3C//DTD SVG 20010904//EN"
 "http://www.w3.org/TR/2001/REC-SVG-20010904/DTD/svg10.dtd">
<svg version="1.0" xmlns="http://www.w3.org/2000/svg"
 width="468pt" height="468pt" viewBox="0 0 468 468"
 preserveAspectRatio="xMidYMid meet">
<metadata>
Created by potrace 1.8, written by Peter Selinger 2001-2007
</metadata>
<g transform="translate(0,468) scale(0.365625,-0.365625)"
fill="#000000" stroke="none">
<path d="M930 1265 l0 -15 10 0 10 0 0 15 0 15 -10 0 -10 0 0 -15z"/>
<path d="M1060 1255 l0 -25 -15 0 -15 0 0 -30 0 -30 15 0 15 0 0 30 0 30 15 0
15 0 0 25 0 25 -15 0 -15 0 0 -25z"/>
<path d="M820 1215 l0 -15 10 0 10 0 0 -30 0 -30 15 0 15 0 0 -25 0 -25 15 0
15 0 0 25 0 25 -15 0 -15 0 0 30 0 30 -15 0 -15 0 0 15 0 15 -10 0 -10 0 0
-15z"/>
<path d="M930 1215 l0 -15 10 0 10 0 0 15 0 15 -10 0 -10 0 0 -15z"/>
<path d="M930 1155 l0 -15 10 0 10 0 0 15 0 15 -10 0 -10 0 0 -15z"/>
<path d="M1120 1155 l0 -15 -15 0 -15 0 0 -10 0 -10 -15 0 -15 0 0 -15 0 -15
-15 0 -15 0 0 11 0 10 -14 15 -15 14 -10 0 -11 0 0 -95 0 -95 95 0 95 0 0 15
0 15 -15 0 -15 0 0 14 0 14 -12 6 -13 6 13 6 12 6 0 14 0 14 15 0 15 0 0 15 0
15 15 0 15 0 0 15 0 15 -15 0 -15 0 0 10 0 10 -15 0 -15 0 0 15 0 15 -10 0
-10 0 0 -15z m20 -50 l0 -15 -10 0 -10 0 0 -15 0 -15 -15 0 -15 0 0 -15 0 -15
-15 0 -15 0 0 15 0 15 15 0 15 0 0 15 0 15 15 0 15 0 0 15 0 15 10 0 10 0 0
-15z m-110 -60 l0 -15 15 0 15 0 0 -10 0 -10 15 0 15 0 0 -15 0 -15 -40 0 -40
0 0 40 0 40 10 0 10 0 0 -15z"/>
<path d="M740 1130 l0 -10 10 0 10 0 0 -15 0 -15 30 0 30 0 0 -15 0 -15 10 0
10 0 0 -15 0 -15 15 0 15 0 0 15 0 15 -15 0 -15 0 0 15 0 15 -10 0 -10 0 0 15
0 15 -30 0 -30 0 0 10 0 10 -10 0 -10 0 0 -10z"/>
<path d="M930 1105 l0 -15 10 0 10 0 0 15 0 15 -10 0 -10 0 0 -15z"/>
<path d="M740 995 l0 -15 25 0 25 0 0 15 0 15 -25 0 -25 0 0 -15z"/>
<path d="M820 995 l0 -15 10 0 10 0 0 15 0 15 -10 0 -10 0 0 -15z"/>
<path d="M1200 995 l0 -15 40 0 40 0 0 15 0 15 -40 0 -40 0 0 -15z"/>
<path d="M380 965 l0 -15 -15 0 -15 0 0 -25 0 -25 15 0 15 0 0 15 0 15 15 0
15 0 0 10 0 10 25 0 25 0 0 -10 0 -10 85 0 85 0 0 10 0 10 25 0 25 0 0 -10 0
-10 15 0 15 0 0 -15 0 -15 15 0 15 0 0 15 0 15 25 0 25 0 0 -165 0 -165 -245
0 -245 0 0 165 0 165 15 0 15 0 0 10 0 10 -70 0 -70 0 0 -10 0 -10 -15 0 -15
0 0 -110 0 -110 -10 0 -10 0 0 -30 0 -30 -15 0 -15 0 0 -10 0 -10 -15 0 -15 0
0 -15 0 -15 -15 0 -15 0 0 -15 0 -15 -10 0 -10 0 0 -15 0 -15 -15 0 -15 0 0
-40 0 -40 15 0 15 0 0 -25 0 -25 10 0 10 0 0 -30 0 -30 15 0 15 0 0 -40 0 -40
15 0 15 0 0 15 0 15 15 0 15 0 0 15 0 15 10 0 10 0 0 -15 0 -15 15 0 15 0 0
15 0 15 15 0 15 0 0 -15 0 -15 15 0 15 0 0 15 0 15 10 0 10 0 0 -15 0 -15 15
0 15 0 0 -15 0 -15 -15 0 -15 0 0 15 0 15 -10 0 -10 0 0 -15 0 -15 -15 0 -15
0 0 15 0 15 -15 0 -15 0 0 -15 0 -15 -15 0 -15 0 0 15 0 15 -10 0 -10 0 0 -15
0 -15 -15 0 -15 0 0 -10 0 -10 15 0 15 0 0 -15 0 -15 -15 0 -15 0 0 15 0 15
-15 0 -15 0 0 10 0 10 -15 0 -15 0 0 -40 0 -40 15 0 15 0 0 -15 0 -15 -11 0
-10 0 -15 -14 -14 -15 0 -36 0 -36 14 -15 15 -14 25 0 26 0 0 -15 0 -15 15 0
15 0 0 25 0 25 10 0 10 0 0 -10 0 -10 15 0 15 0 0 10 0 10 15 0 15 0 0 15 0
15 15 0 15 0 0 -14 0 -14 12 -6 13 -6 -12 -6 -13 -6 0 -14 0 -14 25 0 25 0 0
25 0 25 25 0 25 0 0 -25 0 -25 30 0 30 0 0 15 0 15 15 0 15 0 0 10 0 10 40 0
40 0 0 15 0 15 -15 0 -15 0 0 15 0 15 15 0 15 0 0 15 0 15 25 0 25 0 0 -15 0
-15 15 0 15 0 0 -15 0 -15 -15 0 -15 0 0 15 0 15 -25 0 -25 0 0 -15 0 -15 10
0 10 0 0 -11 0 -10 -14 -15 -15 -14 -35 0 -36 0 0 -15 0 -15 50 0 50 0 0 15 0
15 15 0 15 0 0 10 0 10 30 0 30 0 0 15 0 15 10 0 10 0 0 -25 0 -25 15 0 15 0
0 10 0 10 15 0 15 0 0 15 0 15 -15 0 -15 0 0 15 0 15 -25 0 -25 0 0 15 0 15
25 0 25 0 0 -15 0 -15 15 0 15 0 0 15 0 15 -15 0 -15 0 0 25 0 25 15 0 15 0 0
15 0 15 15 0 15 0 0 -15 0 -15 -15 0 -15 0 0 -25 0 -25 15 0 15 0 0 -15 0 -15
-15 0 -15 0 0 -15 0 -15 15 0 15 0 0 -15 0 -15 -15 0 -15 0 0 -25 0 -25 40 0
40 0 0 15 0 15 -15 0 -15 0 0 25 0 25 30 0 30 0 0 -25 0 -25 10 0 10 0 0 -15
0 -15 15 0 15 0 0 25 0 25 -15 0 -15 0 0 15 0 15 15 0 15 0 0 15 0 15 15 0 15
0 0 -15 0 -15 15 0 15 0 0 -25 0 -25 10 0 10 0 0 -15 0 -15 15 0 15 0 0 15 0
15 -15 0 -15 0 0 25 0 25 15 0 15 0 0 30 0 30 -14 0 -14 0 -6 13 -6 12 -6 -12
-6 -13 -44 0 -44 0 0 -15 0 -15 -40 0 -40 0 0 55 0 55 15 0 15 0 0 15 0 15 15
0 15 0 0 10 0 10 65 0 65 0 0 -10 0 -10 15 0 15 0 0 -15 0 -15 15 0 15 0 0
-30 0 -30 10 0 10 0 0 -55 0 -55 -10 0 -10 0 0 -25 0 -25 10 0 10 0 0 25 0 25
15 0 15 0 0 55 0 55 -15 0 -15 0 0 85 0 85 -10 0 -10 0 0 25 0 25 10 0 10 0 0
15 0 15 15 0 15 0 0 15 0 15 15 0 15 0 0 10 0 10 15 0 15 0 0 15 0 15 10 0 10
0 0 15 0 15 15 0 15 0 0 25 0 25 -15 0 -15 0 0 15 0 15 -10 0 -10 0 0 15 0 15
-15 0 -15 0 0 10 0 10 -15 0 -15 0 0 15 0 15 -15 0 -15 0 0 15 0 15 -10 0 -10
0 0 15 0 15 -15 0 -15 0 0 10 0 10 -15 0 -15 0 0 81 0 80 -14 15 -15 14 -105
0 -106 0 0 15 0 15 -40 0 -40 0 0 -15 0 -15 -85 0 -85 0 0 15 0 15 -40 0 -40
0 0 -15z m-110 -215 l0 -180 275 0 275 0 0 180 0 180 55 0 55 0 0 -275 0 -275
-45 0 -45 0 0 -15 0 -15 15 0 15 0 0 -10 0 -10 15 0 15 0 0 10 0 10 14 0 14 0
6 -12 6 -13 6 13 6 12 14 0 14 0 0 -10 0 -10 15 0 15 0 0 -15 0 -15 -15 0 -15
0 0 -15 0 -15 15 0 15 0 0 -10 0 -10 -15 0 -15 0 0 10 0 10 -15 0 -15 0 0 15
0 15 -10 0 -10 0 0 15 0 15 -15 0 -15 0 0 -15 0 -15 -15 0 -15 0 0 15 0 15
-15 0 -15 0 0 -15 0 -15 -10 0 -10 0 0 -15 0 -15 -15 0 -15 0 0 15 0 15 15 0
15 0 0 15 0 15 10 0 10 0 0 10 0 10 -25 0 -25 0 0 85 0 85 -15 0 -15 0 0 10 0
10 -201 0 -200 0 -15 -14 -14 -15 0 -90 0 -91 -30 0 -30 0 0 10 0 10 -40 0
-40 0 0 290 0 290 40 0 40 0 0 -180z m710 -85 l0 -15 11 0 10 0 15 -14 14 -15
0 -10 0 -11 15 0 15 0 0 -15 0 -15 15 0 15 0 0 -25 0 -25 -15 0 -15 0 0 -15 0
-15 -15 0 -15 0 0 -11 0 -10 -14 -15 -15 -14 -10 0 -11 0 0 -15 0 -15 -15 0
-15 0 0 135 0 135 15 0 15 0 0 -15z m-820 -190 l0 -125 -10 0 -10 0 0 30 0 30
-15 0 -15 0 0 25 0 25 -15 0 -15 0 0 40 0 40 15 0 15 0 0 15 0 15 15 0 15 0 0
15 0 15 10 0 10 0 0 -125z m520 -80 l0 -125 -161 0 -160 0 -15 -14 -14 -15 0
-25 0 -26 10 0 10 0 0 -55 0 -55 -40 0 -40 0 0 15 0 15 -25 0 -25 0 0 -15 0
-15 -15 0 -15 0 0 -15 0 -15 -15 0 -15 0 0 15 0 15 15 0 15 0 0 30 0 30 -15 0
-15 0 0 -30 0 -30 -10 0 -10 0 0 -15 0 -15 -45 0 -45 0 0 45 0 45 30 0 30 0 0
25 0 25 15 0 15 0 0 15 0 15 10 0 10 0 0 14 0 14 -12 5 -13 4 9 9 9 9 4 -12 5
-13 80 0 79 0 15 14 14 15 0 120 0 121 165 0 165 0 0 -125z m80 15 l0 -110
-25 0 -25 0 0 110 0 110 25 0 25 0 0 -110z m-320 -190 l0 -30 25 0 25 0 0 15
0 15 15 0 15 0 0 15 0 15 40 0 40 0 0 -15 0 -15 15 0 15 0 0 -15 0 -15 10 0
10 0 0 -15 0 -15 -25 0 -25 0 0 -10 0 -10 -15 0 -15 0 0 10 0 10 -25 0 -25 0
0 -10 0 -10 -26 0 -25 0 -15 14 -14 15 0 10 0 11 -15 0 -15 0 0 30 0 30 15 0
15 0 0 -30z m-60 -15 l0 -15 -15 0 -15 0 0 15 0 15 15 0 15 0 0 -15z m66 -59
l14 -15 0 -25 0 -26 -10 0 -10 0 0 30 0 30 -30 0 -30 0 0 10 0 10 26 0 25 0
15 -14z m-36 -81 l0 -15 -15 0 -15 0 0 15 0 15 15 0 15 0 0 -15z"/>
<path d="M840 845 l0 -55 30 0 30 0 0 55 0 55 -30 0 -30 0 0 -55z"/>
<path d="M950 315 l0 -15 15 0 15 0 0 15 0 15 -15 0 -15 0 0 -15z"/>
<path d="M380 395 l0 -95 70 0 70 0 0 95 0 95 -70 0 -70 0 0 -95z m110 -10 l0
-55 -25 0 -25 0 0 55 0 55 25 0 25 0 0 -55z"/>
<path d="M1090 915 l0 -15 15 0 15 0 0 -15 0 -15 25 0 25 0 0 -15 0 -15 15 0
15 0 0 15 0 15 -15 0 -15 0 0 15 0 15 -25 0 -25 0 0 15 0 15 -15 0 -15 0 0
-15z"/>
<path d="M410 885 l0 -15 -15 0 -15 0 0 -55 0 -55 15 0 15 0 0 -10 0 -10 40 0
40 0 0 10 0 10 15 0 15 0 0 55 0 55 -15 0 -15 0 0 15 0 15 -40 0 -40 0 0 -15z
m30 -55 l0 -40 10 0 10 0 0 -15 0 -15 -25 0 -25 0 0 55 0 55 15 0 15 0 0 -40z
m50 0 l0 -10 -15 0 -15 0 0 10 0 10 15 0 15 0 0 -10z"/>
<path d="M600 885 l0 -15 -15 0 -15 0 0 -55 0 -55 15 0 15 0 0 -10 0 -10 40 0
40 0 0 10 0 10 15 0 15 0 0 55 0 55 -15 0 -15 0 0 15 0 15 -40 0 -40 0 0 -15z
m30 -55 l0 -40 10 0 10 0 0 -15 0 -15 -25 0 -25 0 0 55 0 55 15 0 15 0 0 -40z
m50 0 l0 -10 -15 0 -15 0 0 10 0 10 15 0 15 0 0 -10z"/>
<path d="M1010 845 l0 -25 10 0 10 0 0 -30 0 -30 15 0 15 0 0 30 0 30 -15 0
-15 0 0 25 0 25 -10 0 -10 0 0 -25z"/>
<path d="M1090 830 l0 -10 15 0 15 0 0 -15 0 -15 10 0 10 0 0 11 0 10 -14 15
-15 14 -10 0 -11 0 0 -10z"/>
<path d="M460 695 l0 -15 30 0 30 0 0 -15 0 -15 25 0 25 0 0 15 0 15 30 0 30
0 0 15 0 15 -30 0 -30 0 0 -15 0 -15 -25 0 -25 0 0 15 0 15 -30 0 -30 0 0 -15z"/>
<path d="M570 15 l0 -15 40 0 40 0 0 15 0 15 -40 0 -40 0 0 -15z"/>
</g>
</svg>
