<?xml version="1.0" standalone="no"?>
<!DOCTYPE svg PUBLIC "-//W3C//DTD SVG 20010904//EN"
 "http://www.w3.org/TR/2001/REC-SVG-20010904/DTD/svg10.dtd">
<svg version="1.0" xmlns="http://www.w3.org/2000/svg"
 width="468pt" height="468pt" viewBox="0 0 468 468"
 preserveAspectRatio="xMidYMid meet">
<metadata>
Created by potrace 1.8, written by Peter Selinger 2001-2007
</metadata>
<g transform="translate(0,468) scale(0.365625,-0.365625)"
fill="#000000" stroke="none">
<path d="M0 1271 l0 -9 13 -5 12 -5 -15 -11 -15 -11 15 -10 15 -10 -15 -10
-15 -10 15 -10 15 -10 -15 -10 -15 -10 15 -10 15 -10 -15 -10 -15 -10 15 -10
15 -10 -15 -10 -15 -10 15 -10 15 -10 -15 -10 -15 -10 15 -10 15 -10 -15 -10
-15 -10 15 -10 15 -10 -15 -10 -15 -10 15 -10 15 -10 -15 -10 -15 -10 15 -10
15 -10 -15 -10 -15 -10 15 -10 15 -10 -15 -10 -15 -10 15 -10 15 -10 -15 -10
-15 -10 15 -10 15 -10 -15 -10 -15 -10 15 -10 15 -10 -15 -10 -15 -10 15 -10
15 -10 -15 -10 -15 -10 15 -10 15 -10 -15 -10 -15 -10 15 -10 15 -10 -15 -10
-15 -10 15 -10 15 -10 -15 -10 -15 -10 15 -10 15 -10 -15 -10 -15 -10 15 -10
15 -10 -15 -10 -15 -10 15 -10 15 -10 -15 -10 -15 -10 15 -10 15 -10 -15 -10
-15 -10 15 -10 15 -10 -15 -10 -15 -10 15 -10 15 -10 -15 -10 -15 -10 15 -10
15 -10 -15 -10 -15 -10 15 -10 15 -10 -15 -10 -15 -10 15 -10 15 -10 -15 -10
-15 -10 15 -10 15 -10 -15 -10 -15 -10 15 -10 15 -10 -15 -10 -15 -10 15 -10
15 -10 -15 -10 -15 -10 15 -10 15 -10 -14 -9 -14 -9 17 -18 18 -17 9 14 9 14
10 -15 10 -15 10 15 10 15 10 -15 10 -15 10 15 10 15 10 -15 10 -15 10 15 10
15 10 -15 10 -15 10 15 10 15 10 -15 10 -15 10 15 10 15 10 -15 10 -15 10 15
10 15 10 -15 10 -15 10 15 10 15 10 -15 10 -15 10 15 10 15 10 -15 10 -15 10
15 10 15 10 -15 10 -15 10 15 10 15 10 -15 10 -15 10 15 10 15 10 -15 10 -15
10 15 10 15 10 -15 10 -15 10 15 10 15 10 -15 10 -15 10 15 10 15 10 -15 10
-15 10 15 10 15 10 -15 10 -15 10 15 10 15 10 -15 10 -15 10 15 10 15 10 -15
10 -15 10 15 10 15 10 -15 10 -15 10 15 10 15 10 -15 10 -15 10 15 10 15 10
-15 10 -15 10 15 10 15 10 -15 10 -15 10 15 10 15 10 -15 10 -15 10 15 10 15
10 -15 10 -15 10 15 10 15 10 -15 10 -15 10 15 10 15 10 -15 10 -15 10 15 10
15 10 -15 10 -15 10 15 10 15 10 -15 10 -15 10 15 10 15 10 -15 10 -15 10 15
10 15 10 -15 10 -15 10 15 10 15 9 -15 10 -14 8 7 7 8 -14 10 -15 9 15 10 15
10 -15 10 -15 10 15 10 15 10 -15 10 -15 10 15 10 15 10 -15 10 -15 10 15 10
15 10 -15 10 -15 10 15 10 15 10 -15 10 -15 10 15 10 15 10 -15 10 -15 10 15
10 15 10 -15 10 -15 10 15 10 15 10 -15 10 -15 10 15 10 15 10 -15 10 -15 10
15 10 15 10 -15 10 -15 10 15 9 14 10 -6 6 -7 7 -181 -182 -181 -181 -14 15
-15 15 0 11 0 11 -120 119 -120 119 0 16 0 15 10 0 10 0 0 20 0 20 10 0 10 0
0 40 0 40 -10 0 -10 0 0 -30 0 -30 -30 0 -30 0 0 -10 0 -10 -15 0 -15 0 -67
67 -67 67 12 4 12 4 0 17 0 17 20 14 20 14 0 14 0 14 30 28 30 28 0 16 0 16
10 0 10 0 0 20 0 20 20 0 20 0 0 20 0 20 15 0 16 0 24 25 25 24 0 6 0 5 -20 0
-20 0 0 50 0 50 10 0 10 0 0 45 0 46 25 24 24 25 11 0 11 0 24 25 25 24 0 16
0 15 9 0 9 0 5 -12 4 -13 9 9 9 9 -12 4 -13 5 0 19 0 19 -10 0 -10 0 0 -16 0
-15 -14 -15 -15 -14 -15 0 -16 0 0 -20 0 -20 -19 0 -19 0 -5 13 -4 12 -9 -8
-8 -8 13 -9 14 -8 -17 -17 -17 -17 -18 21 -18 21 -17 0 -16 0 0 10 0 10 -20 0
-20 0 0 20 0 20 -20 0 -20 0 0 -10 0 -10 -20 0 -20 0 0 -10 0 -10 -20 0 -20 0
0 6 0 6 31 29 32 30 -7 7 -7 6 -10 -14 -9 -15 -10 15 -10 15 -10 -15 -10 -15
-10 15 -10 15 -10 -15 -10 -15 -10 15 -10 15 -10 -15 -10 -15 -10 15 -10 15
-10 -15 -10 -15 -10 15 -10 15 -10 -15 -10 -15 -10 15 -10 15 -10 -15 -10 -15
-10 15 -10 15 -10 -15 -10 -15 -10 15 -10 15 -10 -15 -10 -15 -10 15 -10 15
-10 -15 -10 -15 -10 15 -10 15 -10 -15 -10 -15 -10 15 -10 15 -11 -15 -11 -15
-5 13 -5 12 -9 0 -9 0 0 -9z m63 -23 l5 -13 11 15 11 15 10 -15 10 -15 10 15
10 15 10 -15 10 -15 10 15 10 15 10 -15 10 -15 10 15 10 15 10 -15 10 -15 10
15 10 15 10 -15 10 -15 10 15 10 15 10 -15 10 -15 10 15 10 15 10 -15 10 -15
10 15 10 15 10 -15 10 -15 10 15 10 15 10 -15 10 -15 9 15 10 14 7 -7 7 -7
-24 -21 -24 -22 13 -4 12 -5 0 -19 0 -19 10 0 10 0 0 -30 0 -30 -10 0 -10 0 0
-40 0 -40 -10 0 -10 0 0 -36 0 -35 -14 -15 -15 -14 -11 0 -11 0 -15 -15 -15
-15 15 -15 15 -15 5 0 6 0 0 20 0 20 10 0 10 0 0 -20 0 -20 -10 0 -10 0 0 -40
0 -40 -10 0 -10 0 0 -50 0 -50 -6 0 -5 0 -49 50 -49 50 -15 0 -16 0 0 -6 0 -5
62 -61 61 -60 -14 -9 -14 -9 15 -9 14 -10 -24 -21 -24 -21 14 -9 14 -9 -24
-21 -24 -21 14 -10 15 -9 -15 -10 -15 -10 14 -9 14 -9 -28 -27 -27 -28 -8 13
-8 13 -16 -16 -16 -16 0 -5 0 -6 40 0 40 0 0 -10 0 -10 -36 0 -35 0 -16 -16
-16 -16 13 -8 13 -8 -63 -62 -63 -62 14 -9 14 -9 -14 -9 -14 -9 38 -37 37 -38
8 14 9 13 21 -24 21 -24 10 14 9 15 10 -15 10 -15 10 15 10 15 10 -15 10 -15
10 15 10 15 9 -15 10 -14 21 24 21 24 9 -13 8 -14 37 38 38 37 -14 9 -14 9 14
9 14 9 -28 28 -29 28 -4 -12 -4 -12 -59 0 -59 0 0 18 0 18 20 14 20 14 0 28 0
28 10 0 10 0 0 -25 0 -26 25 -25 25 -25 16 16 16 16 -6 7 -7 6 -9 -13 -8 -14
-18 17 -17 18 14 9 14 9 -15 9 -14 10 23 20 24 21 -24 21 -23 20 13 9 14 8
-16 16 -16 16 -5 0 -6 0 0 -20 0 -20 -10 0 -10 0 0 30 0 30 10 0 10 0 0 40 0
40 10 0 10 0 0 50 0 50 10 0 10 0 0 50 0 50 10 0 10 0 0 40 0 40 10 0 10 0 0
40 0 40 10 0 10 0 0 40 0 40 10 0 10 0 0 40 0 40 10 0 10 0 0 40 0 40 10 0 10
0 0 20 0 20 30 0 30 0 0 -10 0 -10 20 0 20 0 0 -30 0 -30 -10 0 -10 0 0 -16 0
-17 -22 -18 -21 -19 6 -6 6 -6 25 25 26 26 0 16 0 15 10 0 10 0 0 20 0 20 10
0 10 0 0 -20 0 -20 10 0 10 0 0 -45 0 -46 -25 -24 -24 -25 -16 0 -15 0 0 -10
0 -10 -20 0 -20 0 0 -10 0 -10 20 0 20 0 0 10 0 10 20 0 20 0 0 10 0 10 10 0
10 0 0 -39 0 -39 13 -5 12 -4 -9 -9 -9 -9 -4 13 -5 12 -9 0 -9 0 0 -15 0 -16
-25 -24 -24 -25 -46 0 -45 0 0 -10 0 -10 40 0 40 0 0 -10 0 -10 -10 0 -10 0 0
-15 0 -16 -25 -24 -24 -25 -26 0 -25 0 0 -10 0 -10 20 0 20 0 0 -8 0 -8 -20
-14 -20 -14 0 -18 0 -18 -30 0 -30 0 0 -10 0 -10 15 0 16 0 80 -81 80 -81 19
22 19 22 17 -16 16 -17 -22 -19 -22 -19 116 -115 116 -116 15 0 15 0 0 -5 0
-6 -25 -24 -24 -25 -6 0 -5 0 0 19 0 19 13 5 12 4 -7 8 -7 7 -25 -25 -26 -26
0 -6 0 -5 19 0 19 0 5 -12 4 -13 20 22 20 23 17 0 16 0 0 -29 0 -29 -12 -5
-13 -4 7 -8 7 -7 191 192 191 192 7 -7 6 -6 -14 -10 -15 -9 15 -10 15 -10 -15
-10 -15 -10 15 -10 15 -10 -15 -10 -15 -10 15 -10 15 -10 -15 -10 -15 -10 15
-10 15 -10 -15 -10 -15 -10 15 -10 15 -10 -15 -10 -15 -10 15 -10 15 -10 -15
-10 -15 -10 15 -10 15 -10 -15 -10 -15 -10 15 -10 15 -10 -15 -10 -15 -10 14
-9 14 -9 -17 -18 -18 -17 -9 14 -9 14 -10 -15 -10 -15 -10 15 -10 15 -10 -15
-10 -15 -10 15 -10 15 -10 -15 -10 -15 -10 15 -10 15 -10 -15 -10 -15 -10 15
-10 15 -10 -15 -10 -15 -10 15 -10 15 -10 -15 -10 -15 -10 15 -10 15 -10 -15
-10 -15 -10 15 -10 15 -10 -15 -10 -15 -10 15 -10 15 -11 -15 -11 -15 -5 13
-5 12 -48 0 -48 0 -5 -12 -5 -13 -11 15 -11 15 -10 -15 -10 -15 -10 15 -10 15
-10 -15 -10 -15 -10 15 -10 15 -10 -15 -10 -15 -10 15 -10 15 -10 -15 -10 -15
-10 15 -10 15 -10 -15 -10 -15 -10 15 -10 15 -10 -15 -10 -15 -10 15 -10 15
-10 -15 -10 -15 -10 15 -10 15 -10 -15 -10 -15 -10 15 -10 15 -10 -15 -10 -15
-10 15 -10 15 -10 -15 -10 -15 -10 15 -10 15 -10 -15 -10 -15 -10 15 -10 15
-10 -15 -10 -15 -10 15 -10 15 -10 -15 -10 -15 -10 15 -10 15 -10 -15 -10 -15
-10 15 -10 15 -10 -15 -10 -15 -10 15 -10 15 -10 -15 -10 -15 -10 15 -10 15
-10 -15 -10 -15 -10 15 -10 15 -9 -15 -10 -14 -8 7 -7 8 14 10 15 9 -15 10
-15 10 15 10 15 10 -15 10 -15 10 15 10 15 10 -15 10 -15 10 15 10 15 10 -15
10 -15 10 15 10 15 10 -15 10 -15 10 15 10 15 10 -15 10 -15 10 15 10 15 10
-15 10 -15 10 15 10 15 10 -15 10 -15 10 15 10 15 10 -15 10 -15 10 15 10 15
10 -15 10 -15 10 15 10 15 10 -15 10 -15 10 15 10 15 10 -15 10 -15 10 15 10
15 10 -15 10 -15 10 15 10 15 10 -15 10 -15 10 15 10 15 10 -15 10 -15 10 15
10 15 10 -15 10 -15 10 15 10 15 10 -15 10 -15 10 15 10 15 10 -15 9 -14 10 8
8 9 8 4 -12 5 -13 9 0 9 0 0 46 0 45 14 15 15 14 25 0 26 0 0 -16 0 -17 -22
-20 -23 -20 13 -4 12 -5 0 -19 0 -19 5 0 6 0 26 26 25 25 -7 7 -8 7 -4 -12 -5
-13 -19 0 -19 0 0 5 0 6 25 24 24 25 6 0 5 0 0 -16 0 -15 14 -15 15 -14 5 0 6
0 0 15 0 16 -25 24 -24 25 -12 0 -12 0 -18 22 -19 21 -21 -24 -20 -23 -9 14
-9 14 -8 -7 -7 -8 13 -9 14 -8 -17 -17 -17 -17 -7 6 -6 7 14 10 15 9 -15 10
-15 10 15 10 15 10 -15 10 -15 10 15 10 15 10 -15 10 -15 10 15 10 15 10 -15
10 -15 10 15 10 15 10 -15 10 -15 10 15 10 15 10 -15 10 -15 10 15 10 15 10
-15 10 -15 10 15 10 15 10 -15 10 -15 10 15 10 15 10 -15 10 -15 10 15 10 15
10 -14 9 -14 9 14 16 14 15 7 1 6 0 5 -12z m-23 -458 l0 -10 -10 0 -10 0 0 10
0 10 10 0 10 0 0 -10z m320 -420 l0 -10 -10 0 -10 0 0 10 0 10 10 0 10 0 0
-10z m-100 -60 l0 -30 -10 0 -10 0 0 -30 0 -30 -40 0 -40 0 0 6 0 6 30 28 30
28 0 26 0 26 20 0 20 0 0 -30z"/>
<path d="M40 1231 l0 -9 13 -5 12 -5 -15 -11 -15 -11 15 -10 15 -10 -15 -10
-15 -10 15 -10 15 -10 -15 -10 -15 -10 15 -10 15 -10 -15 -10 -15 -10 15 -10
15 -10 -15 -10 -15 -10 15 -10 15 -10 -15 -10 -15 -10 15 -10 15 -10 -15 -10
-15 -10 15 -10 15 -10 -14 -9 -14 -9 17 -17 17 -17 20 23 20 23 9 -14 9 -14
22 24 22 25 4 -12 5 -13 19 0 19 0 0 30 0 30 10 0 10 0 0 -10 0 -10 19 0 19 0
5 13 5 12 11 -15 10 -14 8 7 7 8 -14 9 -14 9 22 19 22 19 0 26 0 25 -12 4 -13
5 17 16 17 17 15 0 16 0 0 -20 0 -20 5 0 6 0 24 25 25 24 0 16 0 15 -8 0 -8 0
-14 -20 -14 -20 -8 0 -8 0 0 16 0 17 22 19 22 19 -14 10 -15 9 15 9 14 10 -7
8 -8 7 -10 -14 -9 -15 -10 15 -10 15 -10 -15 -10 -15 -10 15 -10 15 -10 -15
-10 -15 -10 15 -10 15 -10 -15 -10 -15 -10 15 -10 15 -10 -15 -10 -15 -10 15
-10 15 -10 -15 -10 -15 -10 15 -10 15 -10 -15 -10 -15 -10 15 -10 15 -10 -15
-10 -15 -10 15 -10 15 -11 -15 -11 -15 -5 13 -5 12 -9 0 -9 0 0 -9z m63 -23
l5 -13 11 15 11 15 10 -15 10 -15 10 15 10 15 10 -15 10 -15 10 15 10 15 10
-15 10 -15 10 15 10 15 10 -15 10 -15 10 15 10 15 10 -15 10 -15 10 15 10 15
10 -15 10 -15 9 14 9 14 17 -16 16 -17 -53 -52 -53 -51 13 -5 12 -4 0 -19 0
-19 -10 0 -10 0 0 -16 0 -15 -14 -15 -15 -14 -15 0 -16 0 0 20 0 20 -5 0 -6 0
-26 -26 -26 -26 14 -8 13 -9 -7 -8 -8 -7 -9 14 -9 14 -21 -24 -21 -24 -9 14
-9 14 -21 -23 -20 -24 -7 7 -7 7 14 10 15 9 -15 10 -15 10 15 10 15 10 -15 10
-15 10 15 10 15 10 -15 10 -15 10 15 10 15 10 -15 10 -15 10 15 10 15 10 -15
10 -15 10 15 10 15 10 -15 10 -15 10 15 10 15 10 -14 9 -14 9 14 16 14 15 7 1
6 0 5 -12z"/>
<path d="M80 1191 l0 -9 13 -5 12 -5 -15 -11 -15 -11 15 -10 15 -10 -15 -10
-15 -10 15 -10 15 -10 -15 -10 -15 -10 15 -10 15 -10 -15 -10 -15 -10 15 -10
15 -10 -15 -10 -15 -10 15 -10 15 -10 -15 -9 -14 -10 7 -8 8 -7 10 14 9 15 9
-14 9 -14 51 52 52 53 19 -23 20 -22 7 7 7 7 -14 9 -14 9 24 21 24 21 -13 9
-14 8 53 52 52 51 -6 7 -7 6 -10 -14 -9 -15 -10 15 -10 15 -10 -15 -10 -15
-10 15 -10 15 -10 -15 -10 -15 -10 15 -10 15 -10 -15 -10 -15 -10 15 -10 15
-10 -15 -10 -15 -10 15 -10 15 -10 -15 -10 -15 -10 15 -10 15 -11 -15 -11 -15
-5 13 -5 12 -9 0 -9 0 0 -9z m63 -23 l5 -13 11 15 11 15 10 -15 10 -15 10 15
10 15 10 -15 10 -15 10 15 10 15 10 -15 10 -15 10 15 10 15 10 -15 10 -15 9
15 10 14 7 -6 6 -7 -42 -41 -43 -42 13 -8 13 -8 -17 -18 -18 -17 -8 13 -8 13
-51 -52 -51 -52 -17 16 -16 17 14 9 14 9 -15 10 -15 10 15 10 15 10 -15 10
-15 10 15 10 15 10 -15 10 -15 10 15 10 15 10 -14 9 -14 9 14 16 14 15 7 1 6
0 5 -12z"/>
<path d="M120 1151 l0 -9 13 -5 12 -5 -15 -11 -15 -11 15 -10 15 -10 -15 -10
-15 -10 15 -10 15 -10 -15 -10 -15 -10 15 -10 15 -10 -15 -9 -14 -10 6 -7 7
-6 51 52 52 53 8 -14 9 -13 8 7 7 8 -14 9 -14 8 34 32 33 31 -7 7 -7 6 -10
-14 -9 -15 -10 15 -10 15 -10 -15 -10 -15 -10 15 -10 15 -10 -15 -10 -15 -10
15 -10 15 -11 -15 -11 -15 -5 13 -5 12 -9 0 -9 0 0 -9z m63 -23 l5 -13 11 15
11 15 10 -15 10 -15 9 15 10 14 6 -6 7 -7 -57 -56 -56 -57 -7 7 -6 6 14 10 15
9 -15 10 -15 10 15 10 15 10 -14 9 -14 9 14 16 14 15 7 1 6 0 5 -12z"/>
<path d="M160 1111 l0 -9 13 -5 12 -5 -15 -11 -14 -10 6 -7 7 -6 26 27 27 26
-6 7 -7 6 -10 -14 -11 -15 -5 13 -5 12 -9 0 -9 0 0 -9z"/>
<path d="M380 950 l0 -10 10 0 10 0 0 10 0 10 -10 0 -10 0 0 -10z"/>
<path d="M252 865 l-13 -15 36 -36 36 -36 7 7 7 8 -12 4 -13 5 0 9 0 9 16 0
15 0 15 14 14 15 0 5 0 6 -20 0 -20 0 0 -10 0 -10 -10 0 -10 0 0 20 0 20 -17
0 -18 -1 -13 -14z m28 -15 l0 -10 -10 0 -10 0 0 10 0 10 10 0 10 0 0 -10z"/>
<path d="M156 747 l-29 -32 -4 13 -5 12 -25 0 -24 0 -16 -16 -16 -16 14 -9 14
-9 -15 -10 -15 -10 15 -10 15 -10 -15 -10 -15 -10 15 -10 15 -10 -15 -10 -15
-10 15 -10 15 -10 -15 -10 -15 -10 15 -10 15 -10 -15 -10 -15 -10 15 -10 15
-10 -15 -10 -15 -10 15 -10 15 -10 -15 -10 -15 -10 15 -10 15 -10 -15 -10 -15
-10 15 -10 15 -10 -15 -10 -15 -10 15 -10 15 -10 -15 -10 -15 -10 15 -10 15
-10 -15 -10 -15 -10 15 -10 15 -10 -15 -10 -15 -10 15 -10 15 -10 -15 -10 -15
-10 15 -10 15 -10 -15 -10 -15 -10 15 -10 15 -10 -15 -10 -15 -10 15 -10 15
-10 -14 -9 -14 -9 17 -18 18 -17 9 14 9 14 10 -15 10 -15 10 15 10 15 10 -15
10 -15 10 15 10 15 9 -15 10 -14 7 6 6 7 -17 17 -17 17 -8 -13 -8 -13 -47 48
-48 47 14 9 14 9 -14 9 -14 9 63 62 63 62 -14 8 -13 9 24 21 24 21 -13 9 -14
8 28 27 27 28 8 -13 8 -13 18 17 17 18 -14 9 -14 9 15 10 15 10 -15 9 -14 10
24 21 24 21 -14 9 -14 9 24 21 24 21 -14 10 -15 9 14 9 14 9 -67 66 -66 66 -2
0 -3 -1 -29 -32z m91 -43 l56 -56 -14 -9 -14 -9 15 -9 14 -10 -24 -21 -24 -21
14 -9 14 -9 -24 -21 -24 -21 14 -10 15 -9 -15 -10 -15 -10 15 -9 14 -10 -7 -8
-8 -7 -8 13 -9 14 -37 -38 -38 -37 14 -8 13 -9 -24 -21 -24 -21 13 -8 14 -9
-47 -47 -47 -47 -7 7 -6 6 14 10 15 9 -15 10 -15 10 15 10 15 10 -15 10 -15
10 15 10 15 10 -15 10 -15 10 15 10 15 10 -15 10 -15 10 15 10 15 10 -15 10
-15 10 15 10 15 10 -15 10 -15 10 15 10 15 10 -15 10 -15 10 15 10 15 10 -15
10 -15 10 15 10 15 10 -15 10 -15 10 15 10 15 10 -15 10 -15 10 15 10 15 10
-15 10 -15 10 15 10 15 10 -15 9 -14 10 7 8 8 7 10 -14 9 -15 10 15 10 15 9
-14 10 -15 28 32 28 31 3 1 2 0 57 -56z m-150 -610 l25 -25 -6 -7 -7 -6 -10
14 -9 15 -9 -15 -10 -14 -8 7 -7 8 14 10 15 11 -12 5 -13 5 0 9 0 9 5 0 6 0
26 -26z"/>
<path d="M157 708 l-28 -32 -9 14 -8 13 -18 -17 -17 -18 14 -9 14 -9 -15 -10
-15 -10 15 -10 15 -10 -15 -10 -15 -10 15 -10 15 -10 -15 -10 -15 -10 15 -10
15 -10 -15 -10 -15 -10 15 -10 15 -10 -15 -10 -15 -10 15 -10 15 -10 -15 -10
-15 -10 15 -10 15 -10 -15 -10 -15 -10 15 -10 15 -10 -15 -10 -15 -10 15 -10
15 -10 -15 -10 -15 -10 15 -10 15 -10 -15 -9 -14 -10 6 -7 7 -6 27 27 27 27
-14 8 -13 9 24 21 24 21 -13 9 -14 8 53 52 53 52 -14 8 -13 9 24 21 24 21 -14
9 -14 9 24 21 24 21 -14 10 -15 9 14 9 14 9 -46 46 -46 46 -3 0 -3 -1 -28 -31z
m70 -24 l36 -36 -14 -9 -14 -9 15 -9 14 -10 -24 -21 -24 -21 14 -9 14 -9 -24
-21 -24 -21 13 -9 14 -8 -53 -52 -53 -52 13 -8 13 -8 -17 -17 -17 -17 -7 6 -6
7 14 10 15 9 -15 10 -15 10 15 10 15 10 -15 10 -15 10 15 10 15 10 -15 10 -15
10 15 10 15 10 -15 10 -15 10 15 10 15 10 -15 10 -15 10 15 10 15 10 -15 10
-15 10 15 10 15 10 -15 10 -15 10 15 10 15 10 -15 9 -14 10 7 8 8 7 9 -14 9
-14 28 32 28 31 3 1 3 0 36 -36z m-107 -374 l0 -10 -10 0 -10 0 0 10 0 10 10
0 10 0 0 -10z"/>
<path d="M151 663 l-34 -35 14 -9 14 -9 -15 -10 -15 -10 15 -10 15 -10 -15
-10 -15 -10 15 -10 15 -10 -15 -10 -15 -10 15 -10 15 -10 -15 -10 -15 -10 15
-10 15 -10 -15 -9 -14 -10 6 -6 7 -7 37 37 37 37 -14 8 -13 9 24 21 24 21 -14
9 -14 9 24 21 24 21 -14 10 -15 9 14 9 14 9 -26 26 -26 26 -3 -1 -3 0 -34 -36z
m56 1 l16 -16 -14 -9 -14 -9 15 -9 14 -10 -24 -21 -24 -21 14 -9 14 -9 -24
-21 -24 -21 13 -9 14 -8 -17 -17 -17 -17 -7 6 -6 7 14 10 15 9 -15 10 -15 10
15 10 15 10 -15 10 -15 10 15 10 15 10 -15 10 -15 10 15 10 15 10 -14 9 -14 9
24 25 24 26 3 0 3 1 16 -16z"/>
<path d="M171 644 l-14 -16 14 -9 14 -9 -15 -9 -14 -10 6 -7 7 -6 17 17 17 17
-14 10 -14 10 13 5 12 5 0 9 0 9 -7 0 -8 -1 -14 -15z"/>
<path d="M160 550 l0 -10 10 0 10 0 0 10 0 10 -10 0 -10 0 0 -10z"/>
<path d="M400 542 l0 -18 -20 -14 -20 -14 0 -15 0 -14 22 -19 22 -19 -14 -9
-14 -9 23 -20 24 -21 -24 -21 -23 -20 14 -10 15 -9 -15 -9 -14 -10 7 -8 8 -7
9 13 8 14 18 -17 17 -18 -13 -8 -14 -8 34 -32 34 -32 -15 -9 -14 -9 14 -9 14
-9 -48 -47 -47 -48 -8 13 -8 13 -17 -17 -17 -17 6 -7 7 -6 10 14 9 15 10 -15
10 -15 10 15 10 15 10 -15 10 -15 10 15 10 15 10 -15 10 -15 10 15 10 15 10
-15 10 -15 10 15 10 15 10 -15 10 -15 10 15 10 15 10 -15 10 -15 10 15 10 15
10 -15 10 -15 10 15 10 15 10 -15 10 -15 10 15 10 15 10 -15 10 -15 11 15 11
15 5 -12 5 -13 9 0 9 0 0 29 0 29 -12 5 -13 4 33 31 33 31 -111 111 -112 111
23 20 22 19 -6 7 -7 6 -19 -22 -20 -23 -80 81 -80 81 -6 0 -5 0 0 -18z m206
-197 l175 -176 -32 -30 -33 -31 14 -8 13 -8 -17 -18 -18 -17 -9 14 -9 14 -10
-15 -10 -15 -10 15 -10 15 -10 -15 -10 -15 -10 15 -10 15 -10 -15 -10 -15 -10
15 -10 15 -10 -15 -10 -15 -10 15 -10 15 -10 -15 -10 -15 -10 15 -10 15 -10
-15 -10 -15 -10 15 -10 15 -9 -15 -10 -14 -7 6 -6 7 42 41 43 42 -14 9 -14 9
14 9 15 9 -34 32 -34 32 14 8 14 8 -33 31 -34 31 23 20 23 20 -24 21 -23 20
14 9 14 9 -23 20 -23 20 24 25 23 25 3 0 2 1 176 -175z"/>
<path d="M412 484 l-14 -15 23 -20 23 -20 -14 -9 -14 -9 23 -20 24 -21 -23
-20 -23 -20 34 -31 33 -31 -14 -8 -14 -8 34 -32 34 -32 -15 -9 -14 -9 14 -9
15 -9 -34 -32 -33 -31 7 -7 7 -6 10 14 9 15 10 -15 10 -15 10 15 10 15 10 -15
10 -15 10 15 10 15 10 -15 10 -15 10 15 10 15 10 -15 10 -15 10 15 10 15 10
-15 10 -15 10 15 10 15 9 -15 10 -14 8 7 7 8 -14 9 -14 8 33 31 32 30 -165
166 -166 165 -2 0 -3 -1 -13 -15z m173 -159 l155 -155 -36 -37 -36 -36 -9 14
-9 14 -10 -15 -10 -15 -10 15 -10 15 -10 -15 -10 -15 -10 15 -10 15 -10 -15
-10 -15 -10 15 -10 15 -9 -15 -10 -14 -7 7 -7 7 24 20 23 21 -14 10 -15 9 14
9 15 9 -34 32 -34 32 14 8 14 8 -33 31 -34 31 23 20 23 20 -24 21 -23 20 14 9
14 9 -22 19 -22 19 0 7 0 6 5 0 5 0 155 -155z"/>
<path d="M460 414 l0 -7 22 -18 21 -19 -23 -20 -23 -20 34 -31 33 -31 -14 -8
-14 -8 34 -32 34 -32 -15 -9 -14 -9 15 -10 15 -10 -15 -9 -14 -10 7 -8 8 -7
10 14 9 15 10 -15 10 -15 10 15 10 15 10 -15 10 -15 10 15 10 15 9 -14 9 -14
26 26 27 27 -126 125 -125 125 -5 0 -5 0 0 -6z m146 -149 l95 -96 -16 -16 -17
-16 -9 14 -9 14 -10 -15 -10 -15 -10 15 -10 15 -9 -14 -9 -14 -18 17 -17 18
13 8 14 8 -34 32 -34 32 14 8 14 8 -33 31 -32 30 13 15 13 15 3 1 2 0 96 -95z"/>
<path d="M500 334 l0 -6 32 -30 32 -30 -14 -8 -14 -8 34 -32 34 -32 -14 -8
-14 -9 7 -8 8 -7 10 14 9 15 10 -15 10 -15 10 15 10 15 9 -15 10 -14 6 6 7 6
-86 86 -86 86 -5 0 -5 0 0 -6z m106 -110 l36 -35 -5 -6 -6 -5 -35 36 -36 35 0
6 0 5 5 0 6 0 35 -36z"/>
<path d="M1062 213 l-164 -165 7 -6 6 -6 10 14 9 15 10 -15 10 -15 10 15 10
15 10 -15 10 -15 10 15 10 15 10 -15 10 -15 10 15 10 15 10 -15 10 -15 10 15
10 15 10 -15 10 -15 10 15 10 15 10 -15 10 -15 10 15 10 15 10 -15 10 -15 10
15 10 15 9 -15 10 -14 8 7 7 8 -14 10 -15 9 15 10 15 10 -15 10 -15 10 15 10
15 10 -15 10 -15 10 15 10 15 10 -15 10 -15 10 15 10 15 10 -15 10 -15 10 15
10 15 10 -15 10 -15 10 15 10 15 10 -15 10 -15 10 15 10 15 10 -15 11 -15 11
13 5 12 5 0 9 0 9 -7 -1 -8 -1 -163 -165z m158 118 l0 -9 -12 -5 -13 -5 15
-11 15 -11 -15 -10 -15 -10 15 -10 15 -10 -15 -10 -15 -10 15 -10 15 -10 -15
-10 -15 -10 15 -10 15 -10 -15 -10 -15 -10 15 -10 15 -10 -15 -10 -15 -10 14
-9 14 -9 -17 -18 -18 -17 -9 14 -9 14 -10 -15 -10 -15 -10 15 -10 15 -10 -15
-10 -15 -10 15 -10 15 -10 -15 -10 -15 -10 15 -10 15 -10 -15 -10 -15 -10 15
-10 15 -10 -15 -10 -15 -10 15 -10 15 -9 -15 -10 -14 -6 6 -7 6 134 135 133
135 8 1 7 1 0 -9z"/>
<path d="M1082 193 l-104 -105 7 -6 6 -6 10 14 9 15 10 -15 10 -15 10 15 10
15 10 -15 10 -15 10 15 10 15 10 -15 10 -15 10 15 10 15 10 -15 10 -15 10 15
10 15 9 -15 10 -14 8 7 7 8 -14 10 -15 9 15 10 15 10 -15 10 -15 10 15 10 15
10 -15 10 -15 10 15 10 15 10 -15 10 -15 10 15 10 15 10 -15 11 -15 11 13 5
12 5 0 9 0 9 -7 -1 -8 -1 -103 -105z m98 58 l0 -9 -12 -5 -13 -5 15 -11 15
-11 -15 -10 -15 -10 15 -10 15 -10 -15 -10 -15 -10 14 -9 14 -9 -17 -18 -18
-17 -9 14 -9 14 -10 -15 -10 -15 -10 15 -10 15 -10 -15 -10 -15 -10 15 -10 15
-9 -15 -10 -14 -6 6 -7 6 74 75 73 75 8 1 7 1 0 -9z"/>
<path d="M1102 174 l-44 -45 7 -7 6 -6 10 14 9 15 10 -15 10 -15 10 15 10 15
9 -15 10 -14 8 7 7 8 -14 10 -15 9 15 10 15 10 -15 11 -15 11 13 5 12 5 0 9 0
9 -7 -1 -8 0 -43 -45z m38 0 l0 -5 -15 -16 -16 -15 -5 5 -6 6 13 15 14 15 8 1
7 0 0 -6z"/>
<path d="M220 50 l0 -10 10 0 10 0 0 10 0 10 -10 0 -10 0 0 -10z"/>
<path d="M260 50 l0 -10 10 0 10 0 0 10 0 10 -10 0 -10 0 0 -10z"/>
<path d="M300 50 l0 -10 10 0 10 0 0 10 0 10 -10 0 -10 0 0 -10z"/>
<path d="M880 1275 l0 -5 196 -196 196 -196 6 7 6 6 -14 10 -15 9 15 10 15 10
-15 10 -15 10 15 10 15 10 -15 10 -15 10 15 10 15 10 -15 10 -15 10 15 10 15
10 -15 10 -15 10 15 10 15 10 -15 10 -15 10 15 10 15 10 -15 10 -15 10 15 10
15 10 -15 10 -15 10 15 10 15 10 -15 10 -15 10 14 9 14 9 -17 18 -18 17 -9
-14 -9 -14 -10 15 -10 15 -10 -15 -10 -15 -10 15 -10 15 -10 -15 -10 -15 -10
15 -10 15 -10 -15 -10 -15 -10 15 -10 15 -10 -15 -10 -15 -10 15 -10 15 -10
-15 -10 -15 -10 15 -10 15 -10 -15 -10 -15 -10 15 -10 15 -10 -15 -10 -15 -10
15 -10 15 -11 -15 -11 -15 -5 13 -5 12 -9 0 -9 0 0 -5z m63 -27 l5 -13 11 15
11 15 10 -15 10 -15 10 15 10 15 10 -15 10 -15 10 15 10 15 10 -15 10 -15 10
15 10 15 10 -15 10 -15 10 15 10 15 10 -15 10 -15 10 15 10 15 10 -15 10 -15
10 15 10 15 10 -15 10 -15 9 15 10 14 8 -7 7 -8 -14 -10 -15 -9 15 -10 15 -10
-15 -10 -15 -10 15 -10 15 -10 -15 -10 -15 -10 15 -10 15 -10 -15 -10 -15 -10
15 -10 15 -10 -15 -10 -15 -10 15 -10 15 -10 -15 -10 -15 -10 15 -10 15 -10
-15 -10 -15 -10 15 -10 15 -10 -15 -10 -15 -10 15 -9 14 -10 -6 -6 -6 -7 -166
166 -166 166 0 5 0 5 9 0 9 0 5 -12z"/>
<path d="M960 1235 l0 -5 136 -136 136 -136 6 7 6 6 -14 10 -15 9 15 10 15 10
-15 10 -15 10 15 10 15 10 -15 10 -15 10 15 10 15 10 -15 10 -15 10 15 10 15
10 -15 10 -15 10 15 10 15 10 -15 10 -15 10 14 9 14 9 -17 18 -18 17 -9 -14
-9 -14 -10 15 -10 15 -10 -15 -10 -15 -10 15 -10 15 -10 -15 -10 -15 -10 15
-10 15 -10 -15 -10 -15 -10 15 -10 15 -10 -15 -10 -15 -10 15 -10 15 -11 -15
-11 -15 -5 13 -5 12 -9 0 -9 0 0 -5z m63 -27 l5 -13 11 15 11 15 10 -15 10
-15 10 15 10 15 10 -15 10 -15 10 15 10 15 10 -15 10 -15 10 15 10 15 10 -15
10 -15 9 15 10 14 8 -7 7 -8 -14 -10 -15 -9 15 -10 15 -10 -15 -10 -15 -10 15
-10 15 -10 -15 -10 -15 -10 15 -10 15 -10 -15 -10 -15 -10 15 -10 15 -10 -15
-10 -15 -10 15 -9 14 -10 -6 -6 -6 -7 -106 106 -106 106 0 5 0 5 9 0 9 0 5
-12z"/>
<path d="M1040 1195 l0 -5 76 -76 76 -76 6 7 6 6 -14 10 -15 9 15 10 15 10
-15 10 -15 10 15 10 15 10 -15 10 -15 10 14 9 14 9 -17 18 -18 17 -9 -14 -9
-14 -10 15 -10 15 -10 -15 -10 -15 -10 15 -10 15 -11 -15 -11 -15 -5 13 -5 12
-9 0 -9 0 0 -5z m63 -27 l5 -13 11 15 11 15 10 -15 10 -15 9 15 10 14 8 -7 7
-8 -14 -10 -15 -9 15 -10 15 -10 -15 -10 -15 -10 15 -9 14 -10 -6 -6 -7 -7
-45 46 -46 45 0 6 0 5 9 0 9 0 5 -12z"/>
<path d="M1120 1154 l0 -5 15 -16 16 -15 6 5 5 6 -15 16 -16 15 -5 0 -6 0 0
-6z"/>
<path d="M883 1115 l-23 -24 0 -16 0 -15 -30 0 -30 0 0 -20 0 -20 -10 0 -10 0
0 10 0 10 -10 0 -10 0 0 -16 0 -15 -14 -15 -15 -14 -15 0 -16 0 0 -6 0 -5 15
-16 15 -15 29 31 29 31 16 0 16 0 0 -10 0 -10 -10 0 -10 0 0 -10 0 -10 20 0
20 0 0 20 0 20 -10 0 -10 0 0 20 0 20 15 0 16 0 34 35 35 34 0 16 0 15 -7 -1
-8 0 -22 -24z"/>
<path d="M760 1090 l0 -10 10 0 10 0 0 10 0 10 -10 0 -10 0 0 -10z"/>
<path d="M1000 1054 l0 -5 15 -16 16 -15 6 5 5 6 -15 16 -16 15 -5 0 -6 0 0
-6z"/>
<path d="M933 965 l-33 -34 0 -16 0 -15 -10 0 -10 0 0 -10 0 -10 20 0 20 0 0
30 0 30 10 0 10 0 0 -20 0 -20 10 0 10 0 0 16 0 15 14 15 15 14 15 0 16 0 0
10 0 10 -20 0 -20 0 0 10 0 10 -7 -1 -8 0 -32 -34z m47 9 l0 -5 -15 -16 -16
-15 -5 5 -6 6 13 15 14 15 8 1 7 0 0 -6z"/>
<path d="M1060 990 l0 -10 10 0 10 0 0 10 0 10 -10 0 -10 0 0 -10z"/>
<path d="M797 808 l-28 -32 -9 14 -9 14 -7 -6 -6 -7 15 -16 16 -15 15 0 16 0
0 16 0 15 15 16 16 15 7 -7 7 -8 -12 -4 -13 -5 0 -29 0 -29 20 0 20 0 0 9 0 9
-12 6 -13 6 13 6 12 6 0 29 0 29 -17 0 -18 -1 -28 -31z"/>
<path d="M693 725 l-13 -14 0 -16 0 -15 -16 0 -16 0 -28 -30 -28 -30 -16 0
-16 0 0 9 0 9 13 5 12 4 -8 9 -8 8 -10 -14 -9 -15 -9 15 -10 14 -8 -7 -7 -8
14 -10 15 -9 -15 -9 -14 -10 7 -8 8 -7 9 13 8 14 16 -16 16 -16 0 -5 0 -6 -20
0 -20 0 0 -10 0 -10 15 0 16 0 34 35 35 34 0 16 0 15 10 0 10 0 0 -10 0 -10
10 0 10 0 0 20 0 20 16 0 15 0 15 15 15 15 -15 15 -15 15 -3 0 -3 -1 -12 -14z
m27 -15 l0 -10 -10 0 -10 0 0 10 0 10 10 0 10 0 0 -10z"/>
<path d="M600 710 l0 -10 10 0 10 0 0 10 0 10 -10 0 -10 0 0 -10z"/>
<path d="M980 641 l0 -19 13 -5 12 -4 -9 -9 -9 -9 -4 13 -5 12 -19 0 -19 0 0
-16 0 -15 15 -15 15 -15 26 26 27 27 -14 10 -14 10 13 5 12 5 0 9 0 9 -20 0
-20 0 0 -19z"/>
<path d="M1031 584 l-13 -15 7 -7 8 -7 4 13 5 12 19 0 19 0 0 -16 0 -15 -14
-15 -15 -14 -15 0 -16 0 0 -10 0 -10 -19 0 -19 0 -5 -12 -5 -13 -10 14 -10 14
-19 -18 -18 -18 13 -5 12 -4 0 -9 0 -9 -20 0 -20 0 0 -10 0 -10 -15 0 -16 0
-24 -25 -25 -24 0 -11 0 -11 14 -15 15 -14 11 0 11 0 16 15 15 16 -7 7 -8 7
-4 -12 -5 -13 -19 0 -19 0 0 16 0 15 14 15 15 14 15 0 16 0 0 10 0 10 19 0 19
0 5 13 5 12 10 -14 10 -14 19 18 18 18 -13 5 -12 4 0 9 0 9 20 0 20 0 0 10 0
10 15 0 16 0 24 25 25 24 0 11 0 11 -14 15 -15 14 -13 0 -13 -1 -14 -15z m-64
-119 l15 -16 -5 -6 -6 -5 -16 15 -15 16 0 5 0 6 6 0 5 0 16 -15z"/>
<path d="M892 564 l-13 -14 15 -15 15 -15 15 0 16 0 0 16 0 15 -14 15 -15 14
-3 0 -3 -1 -13 -15z m28 -14 l0 -10 -10 0 -10 0 0 10 0 10 10 0 10 0 0 -10z"/>
<path d="M840 535 l0 -6 26 -26 25 -25 6 5 5 6 -25 25 -26 26 -6 0 -5 0 0 -5z"/>
<path d="M780 510 l0 -10 10 0 10 0 0 10 0 10 -10 0 -10 0 0 -10z"/>
<path d="M820 474 l0 -5 15 -16 16 -15 6 5 5 6 -15 16 -16 15 -5 0 -6 0 0 -6z"/>
<path d="M753 445 l-13 -14 0 -16 0 -15 19 0 19 0 4 -12 5 -13 16 17 17 17 0
15 0 16 -20 0 -20 0 0 10 0 10 -7 0 -8 -1 -12 -14z m34 -20 l15 -16 -5 -6 -6
-5 -16 15 -15 16 0 5 0 6 6 0 5 0 16 -15z"/>
</g>
</svg>
