<?xml version="1.0" standalone="no"?>
<!DOCTYPE svg PUBLIC "-//W3C//DTD SVG 20010904//EN"
 "http://www.w3.org/TR/2001/REC-SVG-20010904/DTD/svg10.dtd">
<svg version="1.0" xmlns="http://www.w3.org/2000/svg"
 width="468pt" height="468pt" viewBox="0 0 468 468"
 preserveAspectRatio="xMidYMid meet">
<metadata>
Created by potrace 1.8, written by Peter Selinger 2001-2007
</metadata>
<g transform="translate(0,468) scale(0.365625,-0.365625)"
fill="#000000" stroke="none">
<path d="M600 1100 l0 -20 100 0 100 0 0 20 0 20 -100 0 -100 0 0 -20z"/>
<path d="M320 1060 l0 -20 -20 0 -20 0 0 -20 0 -20 20 0 20 0 0 20 0 20 60 0
60 0 0 20 0 20 -60 0 -60 0 0 -20z"/>
<path d="M960 1060 l0 -20 20 0 20 0 0 -20 0 -20 40 0 40 0 0 -20 0 -20 20 0
20 0 0 20 0 20 -20 0 -20 0 0 20 0 20 -40 0 -40 0 0 20 0 20 -20 0 -20 0 0
-20z"/>
<path d="M160 940 l0 -20 -20 0 -20 0 0 -40 0 -40 -20 0 -20 0 0 -20 0 -20 20
0 20 0 0 20 0 20 20 0 20 0 0 40 0 40 20 0 20 0 0 20 0 20 -20 0 -20 0 0 -20z"/>
<path d="M1120 860 l0 -20 20 0 20 0 0 -60 0 -60 20 0 20 0 0 60 0 60 -20 0
-20 0 0 20 0 20 -20 0 -20 0 0 -20z"/>
<path d="M120 680 l0 -40 20 0 20 0 0 -20 0 -20 20 0 20 0 0 20 0 20 -20 0
-20 0 0 40 0 40 -20 0 -20 0 0 -40z"/>
<path d="M1160 540 l0 -60 20 0 20 0 0 60 0 60 -20 0 -20 0 0 -60z"/>
<path d="M200 500 l0 -20 20 0 20 0 0 -20 0 -20 20 0 20 0 0 -20 0 -20 20 0
20 0 0 20 0 20 -20 0 -20 0 0 20 0 20 -20 0 -20 0 0 20 0 20 -20 0 -20 0 0
-20z"/>
<path d="M1080 380 l0 -20 -40 0 -40 0 0 -20 0 -20 40 0 40 0 0 20 0 20 20 0
20 0 0 20 0 20 -20 0 -20 0 0 -20z"/>
<path d="M360 300 l0 -20 20 0 20 0 0 -20 0 -20 -40 0 -40 0 0 -20 0 -20 -20
0 -20 0 0 -20 0 -20 -40 0 -40 0 0 -20 0 -20 -80 0 -80 0 0 -20 0 -20 -20 0
-20 0 0 -40 0 -40 20 0 20 0 0 40 0 40 40 0 40 0 0 -20 0 -20 -20 0 -20 0 0
-20 0 -20 40 0 40 0 0 40 0 40 20 0 20 0 0 20 0 20 40 0 40 0 0 20 0 20 20 0
20 0 0 20 0 20 40 0 40 0 0 20 0 20 20 0 20 0 0 20 0 20 -20 0 -20 0 0 20 0
20 -20 0 -20 0 0 -20z"/>
<path d="M840 300 l0 -20 -40 0 -40 0 0 -20 0 -20 40 0 40 0 0 20 0 20 40 0
40 0 0 20 0 20 -40 0 -40 0 0 -20z"/>
<path d="M480 260 l0 -20 100 0 100 0 0 20 0 20 -100 0 -100 0 0 -20z"/>
</g>
</svg>
