<?xml version="1.0" standalone="no"?>
<!DOCTYPE svg PUBLIC "-//W3C//DTD SVG 20010904//EN"
 "http://www.w3.org/TR/2001/REC-SVG-20010904/DTD/svg10.dtd">
<svg version="1.0" xmlns="http://www.w3.org/2000/svg"
 width="468pt" height="468pt" viewBox="0 0 468 468"
 preserveAspectRatio="xMidYMid meet">
<metadata>
Created by potrace 1.8, written by Peter Selinger 2001-2007
</metadata>
<g transform="translate(0,468) scale(0.365625,-0.365625)"
fill="#000000" stroke="none">
<path d="M460 1110 l0 -10 -35 0 -35 0 0 -15 0 -15 -10 0 -10 0 0 15 0 15 -25
0 -25 0 0 -11 0 -10 -14 -15 -15 -14 -10 0 -11 0 0 10 0 10 -10 0 -10 0 0 -19
0 -19 13 -5 12 -4 -9 -9 -9 -9 -4 13 -5 12 -19 0 -19 0 0 10 0 10 -14 0 -14 0
-5 -12 -5 -13 -11 15 -10 14 -8 -7 -7 -8 14 -10 15 -11 -12 -5 -13 -5 0 -14 0
-14 -15 0 -15 0 0 15 0 15 -20 0 -20 0 0 -15 0 -15 10 0 10 0 0 -20 0 -20 -10
0 -10 0 0 10 0 10 -25 0 -25 0 0 -10 0 -10 15 0 15 0 0 -15 0 -15 -15 0 -15 0
0 -10 0 -10 15 0 15 0 0 -20 0 -20 10 0 10 0 0 -23 0 -23 20 -14 20 -14 0 -13
0 -13 15 0 15 0 0 -10 0 -10 20 0 20 0 0 -10 0 -10 14 0 14 0 6 -12 6 -13 6
13 6 12 9 0 9 0 0 -25 0 -25 25 0 25 0 0 -10 0 -10 35 0 35 0 0 -10 0 -10 45
0 45 0 0 -15 0 -15 205 0 205 0 0 15 0 15 35 0 35 0 0 10 0 10 45 0 45 0 0 10
0 10 20 0 20 0 0 15 0 15 15 0 15 0 0 10 0 10 20 0 20 0 0 10 0 10 11 0 10 0
15 14 14 15 0 18 0 19 20 14 20 14 0 12 0 12 -12 5 -13 5 15 11 14 10 -22 19
-22 19 0 7 0 7 -14 15 -15 14 -10 0 -11 0 0 10 0 10 -20 0 -20 0 0 15 0 15
-15 0 -15 0 0 10 0 10 -30 0 -30 0 0 10 0 10 -24 0 -24 0 -5 -12 -4 -13 -9 9
-9 9 13 4 12 5 0 9 0 9 -35 0 -35 0 0 15 0 15 -10 0 -10 0 0 -13 0 -13 20 -14
20 -14 0 -18 0 -18 -20 0 -20 0 0 9 0 9 12 4 13 5 -17 16 -17 17 -5 0 -6 0 0
-30 0 -30 -35 0 -35 0 0 20 0 20 20 0 20 0 0 10 0 10 15 0 15 0 0 15 0 15 -24
0 -24 0 -6 13 -6 12 -6 -12 -6 -13 -14 0 -14 0 0 10 0 10 -45 0 -45 0 0 -25 0
-25 -10 0 -10 0 0 25 0 25 -24 0 -24 0 -5 -12 -5 -13 -11 15 -11 15 -11 -15
-11 -15 -5 13 -5 12 -34 0 -34 0 0 -10z m40 -24 l0 -14 -12 -6 -13 -6 13 -6
12 -6 0 -19 0 -19 -20 0 -20 0 0 20 0 20 -15 0 -15 0 0 -20 0 -20 -10 0 -10 0
0 10 0 10 -10 0 -10 0 0 -25 0 -25 -10 0 -10 0 0 25 0 25 -25 0 -25 0 0 -35 0
-35 -10 0 -10 0 0 45 0 45 34 0 34 0 6 -12 6 -13 6 13 6 12 19 0 19 0 0 10 0
10 25 0 25 0 0 15 0 15 10 0 10 0 0 -14z m70 0 l0 -14 -12 -6 -13 -6 13 -6 12
-6 0 -19 0 -19 -6 0 -5 0 -15 14 -14 15 0 15 0 16 10 0 10 0 0 15 0 15 10 0
10 0 0 -14z m160 -1 l0 -15 10 0 10 0 0 -30 0 -30 -10 0 -10 0 0 30 0 30 -10
0 -10 0 0 -30 0 -30 -10 0 -10 0 0 10 0 10 -15 0 -15 0 0 20 0 20 25 0 25 0 0
15 0 15 10 0 10 0 0 -15z m-90 -45 l0 -30 -25 0 -25 0 0 30 0 30 25 0 25 0 0
-30z m-424 -24 l14 -15 0 -10 0 -11 10 0 10 0 0 -10 0 -10 -20 0 -20 0 0 25 0
25 -15 0 -15 0 0 -15 0 -15 -10 0 -10 0 0 10 0 11 13 14 12 14 8 1 8 0 15 -14z
m794 -10 l0 -24 13 -5 12 -4 -9 -9 -9 -9 -4 13 -5 12 -34 0 -34 0 0 15 0 15
20 0 20 0 0 10 0 10 15 0 15 0 0 -24z m-227 -38 l5 -13 11 15 10 14 7 -7 7 -7
-21 -19 -22 -18 0 -8 0 -8 21 -18 21 -18 -18 -18 -17 -18 -5 13 -4 12 -14 0
-14 0 0 10 0 10 15 0 15 0 0 10 0 10 -15 0 -15 0 0 15 0 15 15 0 15 0 0 10 0
10 -25 0 -25 0 0 -10 0 -10 -35 0 -35 0 0 10 0 10 25 0 25 0 0 10 0 10 34 0
34 0 5 -12z m107 2 l0 -10 45 0 45 0 0 -25 0 -25 15 0 15 0 0 15 0 15 20 0 20
0 0 -15 0 -15 10 0 10 0 0 -10 0 -10 -41 0 -40 0 -15 14 -14 15 0 10 0 11 -10
0 -10 0 0 -25 0 -25 20 0 20 0 0 -10 0 -10 25 0 25 0 0 -21 0 -20 17 -17 16
-17 5 13 4 12 24 0 24 0 0 -9 0 -9 -12 -6 -13 -6 13 -6 12 -6 0 -10 0 -9 -14
-15 -15 -14 -10 0 -11 0 0 -10 0 -10 -16 0 -15 0 -15 -14 -14 -15 0 -10 0 -11
-50 0 -50 0 0 -10 0 -10 -45 0 -45 0 0 -10 0 -10 -145 0 -145 0 0 10 0 10 -60
0 -60 0 0 25 0 25 -10 0 -10 0 0 20 0 20 -25 0 -25 0 0 10 0 10 15 0 15 0 0
15 0 15 10 0 10 0 0 10 0 10 -21 0 -20 0 -15 14 -14 15 0 10 0 11 -25 0 -25 0
0 -15 0 -15 -20 0 -20 0 0 15 0 15 -10 0 -10 0 0 -25 0 -25 -15 0 -15 0 0 -10
0 -10 15 0 15 0 0 -15 0 -15 10 0 10 0 0 15 0 15 -10 0 -10 0 0 10 0 10 20 0
20 0 0 -10 0 -10 25 0 25 0 0 20 0 20 6 0 5 0 15 -14 14 -15 0 -5 0 -6 -20 0
-20 0 0 -21 0 -20 14 -15 15 -14 20 0 21 0 0 -25 0 -25 -25 0 -25 0 0 15 0 15
-23 0 -23 0 -14 20 -14 20 -18 0 -18 0 0 10 0 10 -15 0 -15 0 0 10 0 11 -25
24 -24 25 -11 0 -10 0 0 15 0 15 15 0 15 0 0 -11 0 -10 14 -15 15 -14 5 0 6 0
0 25 0 25 15 0 15 0 0 10 0 10 30 0 30 0 0 20 0 20 -9 0 -9 0 -5 -12 -4 -13
-9 9 -9 9 13 4 12 5 0 14 0 14 10 0 10 0 0 -15 0 -15 13 0 13 0 14 -20 14 -20
23 0 23 0 0 10 0 10 -11 0 -10 0 -15 14 -14 15 0 10 0 11 25 0 25 0 0 -15 0
-15 10 0 10 0 0 15 0 15 10 0 10 0 0 -70 0 -70 10 0 10 0 0 -25 0 -25 11 0 11
0 28 -30 28 -30 21 0 21 0 0 -15 0 -15 90 0 90 0 0 15 0 15 21 0 21 0 28 30
28 30 11 0 11 0 0 25 0 25 10 0 10 0 0 90 0 90 10 0 10 0 0 -10z m180 0 l0
-10 -10 0 -10 0 0 10 0 10 10 0 10 0 0 -10z m-540 -20 l0 -10 -15 0 -15 0 0
-15 0 -15 15 0 15 0 0 -10 0 -10 -15 0 -15 0 0 -10 0 -10 15 0 15 0 0 -10 0
-10 -14 0 -14 0 -5 13 -5 12 -11 -15 -10 -14 -8 7 -7 8 14 10 15 9 -15 11 -15
11 13 5 12 5 0 9 0 10 13 14 12 14 13 1 12 0 0 -10z m-433 -55 l15 -16 -5 -6
-6 -5 -16 15 -15 16 0 5 0 6 6 0 5 0 16 -15z m83 9 l0 -5 -15 -16 -16 -15 -5
5 -6 6 13 15 14 15 8 1 7 0 0 -6z m940 -44 l0 -10 -35 0 -35 0 0 10 0 10 35 0
35 0 0 -10z m-530 -25 l0 -15 -10 0 -10 0 0 15 0 15 10 0 10 0 0 -15z m-110
-25 l0 -10 -10 0 -10 0 0 10 0 10 10 0 10 0 0 -10z m65 -15 l25 -24 0 -11 0
-10 -10 0 -10 0 0 11 0 10 -14 15 -15 14 -10 0 -11 0 0 10 0 10 10 0 11 0 24
-25z m205 15 l0 -10 14 0 14 0 5 13 4 12 8 -7 7 -7 -15 -16 -16 -15 -9 0 -10
0 -4 12 -5 13 -16 -17 -17 -17 0 -9 0 -10 12 -4 13 -5 -19 -19 -19 -19 -5 13
-4 12 -13 0 -13 0 -5 13 -4 12 -20 -22 -20 -23 -12 0 -11 0 0 10 0 10 11 0 10
0 15 14 14 15 0 10 0 11 10 0 10 0 0 -15 0 -15 15 0 15 0 0 10 0 11 23 24 22
24 8 0 7 1 0 -10z m-220 -45 l0 -15 -15 0 -15 0 0 15 0 15 15 0 15 0 0 -15z
m90 0 l0 -15 -15 0 -15 0 0 15 0 15 15 0 15 0 0 -15z m160 -25 l0 -10 -15 0
-15 0 0 10 0 10 15 0 15 0 0 -10z m-210 -20 l0 -10 -10 0 -10 0 0 10 0 10 10
0 10 0 0 -10z"/>
<path d="M780 880 l0 -10 10 0 10 0 0 10 0 10 -10 0 -10 0 0 -10z"/>
<path d="M890 884 l0 -5 14 -15 15 -14 10 0 11 0 0 -15 0 -15 20 0 20 0 0 -10
0 -10 -20 0 -20 0 0 -10 0 -10 -25 0 -25 0 0 -25 0 -25 -31 0 -30 0 -15 -14
-14 -15 0 -20 0 -21 10 0 10 0 0 15 0 15 15 0 15 0 0 10 0 10 30 0 30 0 0 20
0 20 15 0 15 0 0 15 0 15 20 0 20 0 0 -35 0 -35 -20 0 -20 0 0 -10 0 -10 35 0
35 0 0 16 0 15 16 16 16 16 10 -14 10 -14 5 13 5 12 14 0 14 0 0 15 0 15 -15
0 -15 0 0 -15 0 -15 -10 0 -10 0 0 15 0 15 -10 0 -10 0 0 -15 0 -15 -10 0 -10
0 0 24 0 24 13 6 12 6 -12 6 -13 6 0 14 0 14 -25 0 -25 0 0 10 0 10 -25 0 -25
0 0 10 0 10 -10 0 -10 0 0 -6z"/>
<path d="M480 900 l0 -10 10 0 10 0 0 10 0 10 -10 0 -10 0 0 -10z"/>
<path d="M690 740 l0 -10 10 0 10 0 0 10 0 10 -10 0 -10 0 0 -10z"/>
<path d="M0 240 l0 -240 640 0 640 0 0 240 0 240 -640 0 -640 0 0 -240z"/>
</g>
</svg>
