<?xml version="1.0" standalone="no"?>
<!DOCTYPE svg PUBLIC "-//W3C//DTD SVG 20010904//EN"
 "http://www.w3.org/TR/2001/REC-SVG-20010904/DTD/svg10.dtd">
<svg version="1.0" xmlns="http://www.w3.org/2000/svg"
 width="468pt" height="468pt" viewBox="0 0 468 468"
 preserveAspectRatio="xMidYMid meet">
<metadata>
Created by potrace 1.8, written by Peter Selinger 2001-2007
</metadata>
<g transform="translate(0,468) scale(0.365625,-0.365625)"
fill="#000000" stroke="none">
<path d="M210 1105 l0 -15 -10 0 -10 0 0 -40 0 -40 10 0 10 0 0 40 0 40 430 0
430 0 0 -10 0 -10 -15 0 -15 0 0 -30 0 -30 15 0 15 0 0 15 0 15 10 0 10 0 0
25 0 25 -10 0 -10 0 0 15 0 15 -430 0 -430 0 0 -15z"/>
<path d="M240 1015 l0 -55 15 0 15 0 0 -11 0 -10 14 -15 15 -14 10 0 11 0 0
-15 0 -15 15 0 15 0 0 -15 0 -15 10 0 10 0 0 55 0 55 15 0 15 0 0 15 0 15 240
0 240 0 0 -15 0 -15 15 0 15 0 0 -40 0 -40 10 0 10 0 0 15 0 15 15 0 15 0 0
10 0 10 15 0 15 0 0 15 0 15 10 0 10 0 0 55 0 55 -385 0 -385 0 0 -55z"/>
<path d="M1083 995 l-13 -14 0 -11 0 -10 -15 0 -15 0 0 -15 0 -15 11 0 10 0
15 -14 14 -15 0 -10 0 -11 15 0 15 0 0 15 0 15 11 0 10 0 15 14 14 15 0 10 0
11 -10 0 -10 0 0 15 0 15 -15 0 -15 0 0 10 0 10 -12 0 -13 -1 -12 -14z m37
-20 l0 -15 15 0 15 0 0 -15 0 -15 -15 0 -15 0 0 -10 0 -10 -11 0 -10 0 -15 14
-14 15 0 10 0 11 10 0 10 0 0 15 0 15 15 0 15 0 0 -15z"/>
<path d="M160 975 l0 -15 -15 0 -15 0 0 -14 0 -14 -12 -6 -13 -6 13 -6 12 -6
0 -14 0 -14 15 0 15 0 0 -15 0 -15 15 0 15 0 0 15 0 15 10 0 10 0 0 -15 0 -15
15 0 15 0 0 -10 0 -10 -15 0 -15 0 0 -15 0 -15 -10 0 -10 0 0 -145 0 -145 10
0 10 0 0 -15 0 -15 15 0 15 0 0 -15 0 -15 135 0 135 0 0 30 0 30 -150 0 -150
0 0 145 0 145 15 0 15 0 0 -15 0 -15 14 0 14 0 6 -12 6 -13 6 13 6 12 14 0 14
0 0 -10 0 -10 15 0 15 0 0 -15 0 -15 -15 0 -15 0 0 -15 0 -15 11 0 10 0 15
-14 14 -15 0 -10 0 -11 15 0 15 0 0 15 0 15 15 0 15 0 0 -15 0 -15 10 0 10 0
0 -14 0 -14 -12 -6 -13 -6 13 -6 12 -6 0 -14 0 -14 15 0 15 0 0 -15 0 -15 15
0 15 0 0 15 0 15 10 0 10 0 0 -65 0 -65 -10 0 -10 0 0 -110 0 -110 120 0 120
0 0 110 0 110 -15 0 -15 0 0 65 0 65 15 0 15 0 0 15 0 15 -15 0 -15 0 0 -15 0
-15 -15 0 -15 0 0 -15 0 -15 -65 0 -65 0 0 15 0 15 -15 0 -15 0 0 15 0 15 15
0 15 0 0 10 0 10 -15 0 -15 0 0 15 0 15 -10 0 -10 0 0 15 0 15 -15 0 -15 0 0
-15 0 -15 -15 0 -15 0 0 14 0 14 -12 6 -13 6 13 6 12 6 0 14 0 14 -10 0 -10 0
0 15 0 15 -15 0 -15 0 0 10 0 10 -14 0 -14 0 -6 -12 -6 -13 -6 13 -6 12 -14 0
-14 0 0 15 0 15 15 0 15 0 0 15 0 15 -15 0 -15 0 0 10 0 10 -15 0 -15 0 0 15
0 15 -10 0 -10 0 0 -15 0 -15 -15 0 -15 0 0 15 0 15 -15 0 -15 0 0 15 0 15 15
0 15 0 0 10 0 10 -15 0 -15 0 0 15 0 15 -10 0 -10 0 0 15 0 15 -15 0 -15 0 0
-15z m30 -29 l0 -14 13 -6 12 -6 -12 -6 -13 -6 0 -14 0 -14 -15 0 -15 0 0 15
0 15 -15 0 -15 0 0 10 0 10 15 0 15 0 0 15 0 15 15 0 15 0 0 -14z m100 -106
l0 -10 15 0 15 0 0 -15 0 -15 -15 0 -15 0 0 -15 0 -15 -10 0 -10 0 0 15 0 15
-15 0 -15 0 0 15 0 15 15 0 15 0 0 10 0 10 10 0 10 0 0 -10z m110 -105 l0 -15
15 0 15 0 0 -15 0 -15 -15 0 -15 0 0 -10 0 -10 -11 0 -10 0 -15 14 -14 15 0
10 0 11 10 0 10 0 0 15 0 15 15 0 15 0 0 -15z m110 -109 l0 -14 13 -6 12 -6
-12 -6 -13 -6 0 -14 0 -14 -15 0 -15 0 0 15 0 15 -15 0 -15 0 0 10 0 10 15 0
15 0 0 15 0 15 15 0 15 0 0 -14z m160 -171 l0 -25 -40 0 -40 0 0 25 0 25 40 0
40 0 0 -25z m-30 -145 l0 -40 15 0 15 0 0 -15 0 -15 -40 0 -40 0 0 15 0 15 10
0 10 0 0 40 0 40 15 0 15 0 0 -40z"/>
<path d="M450 880 l0 -50 30 0 30 0 0 10 0 10 -15 0 -15 0 0 40 0 40 -15 0
-15 0 0 -50z"/>
<path d="M530 880 l0 -50 40 0 40 0 0 50 0 50 -40 0 -40 0 0 -50z m60 0 l0
-30 -15 0 -15 0 0 30 0 30 15 0 15 0 0 -30z"/>
<path d="M640 880 l0 -50 25 0 25 0 0 10 0 10 -10 0 -10 0 0 30 0 30 10 0 10
0 0 10 0 10 -25 0 -25 0 0 -50z"/>
<path d="M720 880 l0 -50 14 0 14 0 6 13 6 12 6 -12 6 -13 14 0 14 0 0 25 0
25 -15 0 -15 0 0 15 0 15 15 0 15 0 0 10 0 10 -14 0 -14 0 -6 -12 -6 -13 -6
13 -6 12 -14 0 -14 0 0 -50z"/>
<path d="M990 895 l0 -15 -15 0 -15 0 0 -15 0 -15 -15 0 -15 0 0 -10 0 -10 15
0 15 0 0 -15 0 -15 -15 0 -15 0 0 -15 0 -15 15 0 15 0 0 15 0 15 15 0 15 0 0
-15 0 -15 10 0 10 0 0 15 0 15 15 0 15 0 0 15 0 15 15 0 15 0 0 10 0 10 -15 0
-15 0 0 15 0 15 15 0 15 0 0 15 0 15 -15 0 -15 0 0 -15 0 -15 -15 0 -15 0 0
15 0 15 -10 0 -10 0 0 -15z m20 -30 l0 -15 15 0 15 0 0 -10 0 -10 -15 0 -15 0
0 -15 0 -15 -10 0 -10 0 0 15 0 15 -15 0 -15 0 0 10 0 10 15 0 15 0 0 15 0 15
10 0 10 0 0 -15z"/>
<path d="M880 785 l0 -15 -11 0 -10 0 -15 -14 -14 -15 0 -10 0 -11 10 0 10 0
0 -11 0 -10 -14 -15 -15 -14 -10 0 -11 0 0 10 0 10 -11 0 -10 0 -15 -14 -14
-15 0 -10 0 -11 -15 0 -15 0 0 -15 0 -15 11 0 10 0 15 -14 14 -15 0 -10 0 -11
15 0 15 0 0 15 0 15 11 0 10 0 15 14 14 15 0 10 0 11 -10 0 -10 0 0 11 0 10
14 15 15 14 10 0 11 0 0 -10 0 -10 11 0 10 0 15 14 14 15 0 10 0 11 15 0 15 0
0 15 0 15 -11 0 -10 0 -15 14 -14 15 0 10 0 11 -15 0 -15 0 0 -15z m36 -29
l14 -15 0 -10 0 -11 -10 0 -10 0 0 -15 0 -15 -15 0 -15 0 0 15 0 15 -15 0 -15
0 0 15 0 15 15 0 15 0 0 10 0 10 11 0 10 0 15 -14z m-116 -101 l0 -15 15 0 15
0 0 -15 0 -15 -15 0 -15 0 0 -10 0 -10 -11 0 -10 0 -15 14 -14 15 0 10 0 11
10 0 10 0 0 15 0 15 15 0 15 0 0 -15z"/>
<path d="M1070 785 l0 -15 -15 0 -15 0 0 -130 0 -130 -145 0 -145 0 0 -30 0
-30 160 0 160 0 0 15 0 15 10 0 10 0 0 160 0 160 -10 0 -10 0 0 -15z"/>
<path d="M240 625 l0 -95 95 0 95 0 0 15 0 15 -15 0 -15 0 0 15 0 15 -11 0
-10 0 -15 14 -14 15 0 10 0 11 -15 0 -15 0 0 15 0 15 -11 0 -10 0 -15 14 -14
15 0 10 0 11 -15 0 -15 0 0 -95z"/>
<path d="M990 705 l0 -15 -15 0 -15 0 0 -10 0 -10 -15 0 -15 0 0 -15 0 -15
-10 0 -10 0 0 -15 0 -15 -15 0 -15 0 0 -10 0 -10 -15 0 -15 0 0 -15 0 -15 -10
0 -10 0 0 -15 0 -15 90 0 90 0 0 95 0 95 -10 0 -10 0 0 -15z"/>
<path d="M130 389 l0 -10 -14 -15 -15 -14 -10 0 -11 0 0 -15 0 -15 -15 0 -15
0 0 -55 0 -55 15 0 15 0 0 -10 0 -10 15 0 15 0 0 -15 0 -15 530 0 530 0 0 15
0 15 15 0 15 0 0 10 0 10 15 0 15 0 0 55 0 55 -15 0 -15 0 0 15 0 15 -11 0
-10 0 -15 14 -14 15 0 10 0 11 -190 0 -190 0 0 -15 0 -15 175 0 175 0 0 -10 0
-10 15 0 15 0 0 -15 0 -15 10 0 10 0 0 -15 0 -15 15 0 15 0 0 -25 0 -25 -215
0 -215 0 0 -25 0 -25 -145 0 -145 0 0 25 0 25 -200 0 -200 0 0 40 0 40 15 0
15 0 0 11 0 10 14 15 15 14 170 0 171 0 0 15 0 15 -175 0 -175 0 0 -11z"/>
<path d="M190 335 l0 -15 -15 0 -15 0 0 -15 0 -15 -15 0 -15 0 0 -10 0 -10 15
0 15 0 0 10 0 10 14 0 14 0 6 -12 6 -13 6 13 6 12 14 0 14 0 0 -10 0 -10 14 0
14 0 6 13 6 12 6 -12 6 -13 14 0 14 0 0 10 0 10 14 0 14 0 6 -12 6 -13 6 13 6
12 14 0 14 0 0 -10 0 -10 14 0 14 0 6 13 6 12 6 -12 6 -13 14 0 14 0 0 10 0
10 -15 0 -15 0 0 15 0 15 15 0 15 0 0 15 0 15 -15 0 -15 0 0 -15 0 -15 -10 0
-10 0 0 15 0 15 -15 0 -15 0 0 -15 0 -15 -15 0 -15 0 0 15 0 15 -10 0 -10 0 0
-15 0 -15 -15 0 -15 0 0 15 0 15 -15 0 -15 0 0 -15 0 -15 -10 0 -10 0 0 15 0
15 -15 0 -15 0 0 -15 0 -15 -15 0 -15 0 0 15 0 15 -10 0 -10 0 0 -15z m20 -30
l0 -15 -10 0 -10 0 0 15 0 15 10 0 10 0 0 -15z m60 0 l0 -15 -15 0 -15 0 0 15
0 15 15 0 15 0 0 -15z m50 0 l0 -15 -15 0 -15 0 0 15 0 15 15 0 15 0 0 -15z
m50 0 l0 -15 -10 0 -10 0 0 15 0 15 10 0 10 0 0 -15z m60 0 l0 -15 -15 0 -15
0 0 15 0 15 15 0 15 0 0 -15z"/>
<path d="M770 335 l0 -15 15 0 15 0 0 -15 0 -15 -15 0 -15 0 0 -10 0 -10 15 0
15 0 0 10 0 10 14 0 14 0 6 -12 6 -13 6 13 6 12 14 0 14 0 0 -10 0 -10 14 0
14 0 6 13 6 12 6 -12 6 -13 14 0 14 0 0 10 0 10 14 0 14 0 6 -12 6 -13 6 13 6
12 14 0 14 0 0 -10 0 -10 14 0 14 0 6 13 6 12 6 -12 6 -13 14 0 14 0 0 10 0
10 -15 0 -15 0 0 15 0 15 -10 0 -10 0 0 15 0 15 -15 0 -15 0 0 -15 0 -15 -15
0 -15 0 0 15 0 15 -10 0 -10 0 0 -15 0 -15 -15 0 -15 0 0 15 0 15 -15 0 -15 0
0 -15 0 -15 -10 0 -10 0 0 15 0 15 -15 0 -15 0 0 -15 0 -15 -15 0 -15 0 0 15
0 15 -10 0 -10 0 0 -15 0 -15 -15 0 -15 0 0 15 0 15 -15 0 -15 0 0 -15z m80
-30 l0 -15 -10 0 -10 0 0 15 0 15 10 0 10 0 0 -15z m60 0 l0 -15 -15 0 -15 0
0 15 0 15 15 0 15 0 0 -15z m50 0 l0 -15 -15 0 -15 0 0 15 0 15 15 0 15 0 0
-15z m50 0 l0 -15 -10 0 -10 0 0 15 0 15 10 0 10 0 0 -15z m60 0 l0 -15 -15 0
-15 0 0 15 0 15 15 0 15 0 0 -15z"/>
</g>
</svg>
