<?xml version="1.0" standalone="no"?>
<!DOCTYPE svg PUBLIC "-//W3C//DTD SVG 20010904//EN"
 "http://www.w3.org/TR/2001/REC-SVG-20010904/DTD/svg10.dtd">
<svg version="1.0" xmlns="http://www.w3.org/2000/svg"
 width="468pt" height="468pt" viewBox="0 0 468 468"
 preserveAspectRatio="xMidYMid meet">
<metadata>
Created by potrace 1.8, written by Peter Selinger 2001-2007
</metadata>
<g transform="translate(0,468) scale(0.365625,-0.365625)"
fill="#000000" stroke="none">
<path d="M840 1270 l0 -10 -30 0 -30 0 0 -15 0 -15 -10 0 -10 0 0 -20 0 -20
-11 0 -12 0 -18 21 -19 22 -50 5 -50 5 0 8 0 9 -56 0 -55 0 -14 -12 -14 -13
-16 -13 -15 -13 0 -24 0 -25 -10 0 -10 0 0 -30 0 -30 -20 0 -20 0 0 -10 0 -10
-79 0 -79 0 -16 -6 -16 -6 0 -15 0 -14 -14 -15 -15 -14 -14 0 -14 0 -19 -25
-19 -25 -16 0 -16 0 -7 -31 -6 -32 0 -19 0 -20 40 -39 40 -39 10 0 10 0 0 -10
0 -10 19 0 20 0 15 -15 15 -15 30 0 31 0 0 -10 0 -10 25 0 25 0 0 -10 0 -10
25 0 24 0 -5 -15 -6 -15 -15 0 -14 0 -43 -45 -44 -45 -15 0 -16 0 -6 -19 -6
-19 -29 -6 -30 -5 0 -41 0 -40 10 0 10 0 0 -35 0 -35 10 0 10 0 0 -25 0 -25
-20 0 -20 0 0 -10 0 -10 -30 0 -30 0 -20 -17 -20 -17 0 -18 0 -18 -10 0 -10 0
0 -15 0 -15 -10 0 -10 0 0 -51 0 -50 14 -15 15 -14 40 0 41 0 0 -10 0 -10 -33
0 -34 0 -21 -19 -22 -18 0 -7 0 -6 20 0 20 0 0 10 0 10 15 0 15 0 0 9 0 9 90
7 90 7 0 9 0 9 45 0 45 0 0 -10 0 -10 16 0 17 0 -6 42 -6 43 -10 3 -11 4 0 19
0 19 -10 0 -10 0 0 35 0 35 -10 0 -10 0 0 15 0 15 -10 0 -10 0 0 120 0 120 10
0 10 0 0 15 0 15 31 0 30 0 15 -14 14 -15 0 -7 0 -7 19 -16 18 -16 8 -43 7
-42 9 0 9 0 0 -15 0 -15 10 0 10 0 0 -80 0 -80 10 0 10 0 0 -20 0 -20 10 0 10
0 0 69 0 69 -12 5 -13 5 13 10 14 9 5 84 6 84 13 12 13 13 15 0 16 0 0 -10 0
-10 45 0 45 0 0 9 0 10 18 4 17 5 -57 1 -57 1 -6 19 -6 19 7 26 6 26 -16 0
-16 0 0 -45 0 -45 -25 0 -25 0 0 55 0 55 -16 0 -17 0 -16 -19 -16 -18 -22 -7
-23 -7 0 -10 0 -9 -25 0 -25 0 0 10 0 10 -26 0 -25 0 -13 -13 -14 -13 -7 -32
-7 -32 -9 0 -9 0 0 -99 0 -99 11 -4 11 -4 0 -74 0 -74 -11 -4 -11 -4 0 -14 0
-14 -25 0 -25 0 0 -10 0 -10 -76 0 -75 0 -15 14 -14 15 0 20 0 21 9 0 9 0 6
35 7 35 9 0 10 0 0 19 0 19 16 6 16 6 4 0 4 0 0 -15 0 -15 -10 0 -10 0 0 -25
0 -25 -10 0 -10 0 0 -40 0 -40 20 0 20 0 0 10 0 10 15 0 15 0 0 10 0 10 29 0
30 0 6 20 6 20 10 0 9 0 0 35 0 35 -9 0 -9 0 -7 70 -7 70 -9 0 -9 0 0 54 0 54
25 6 25 6 0 10 0 10 19 0 20 0 6 20 6 20 9 0 9 0 25 25 25 25 7 0 7 0 19 23
20 22 64 -1 64 -2 0 14 0 14 -25 0 -25 0 0 10 0 10 -100 0 -100 0 0 9 0 8 -40
7 -40 6 0 10 0 10 -20 0 -20 0 0 10 0 10 -19 0 -20 0 -6 19 -6 20 -20 6 -19 6
0 10 0 9 125 0 125 0 0 10 0 10 25 0 25 0 0 10 0 10 30 0 31 0 5 15 6 15 15 0
14 0 15 14 14 15 0 15 0 16 -18 0 -18 0 -14 -21 -15 -21 -16 -19 -17 -19 -96
-7 -96 -6 0 -9 0 -8 -70 0 -70 0 0 15 0 15 10 0 10 0 0 20 0 20 11 0 12 0 16
18 16 19 26 6 26 7 6 30 7 30 20 0 20 0 0 -8 0 -8 -20 -14 -20 -14 0 -11 0
-10 44 -1 44 -1 -14 14 -14 14 0 10 0 9 45 0 45 0 0 10 0 10 24 0 25 0 15 16
16 15 0 40 0 40 17 17 16 17 5 -13 4 -12 20 0 19 0 15 -15 15 -15 18 0 19 0 5
-29 6 -29 -6 -36 -6 -36 17 0 16 0 0 -15 0 -15 10 0 10 0 0 -20 0 -20 -25 0
-25 0 0 -20 0 -20 35 0 35 0 0 19 0 19 13 6 12 6 -12 6 -13 6 0 13 0 13 -12 6
-13 6 13 6 12 6 0 18 0 18 25 6 25 6 0 10 0 10 -21 0 -20 0 -15 -15 -15 -15
-10 0 -9 0 0 15 0 15 20 0 20 0 0 10 0 10 31 0 30 0 15 -14 14 -15 0 -55 0
-56 -10 0 -10 0 0 -15 0 -16 -30 -29 -31 -30 -14 0 -15 0 0 -10 0 -10 -25 0
-25 0 0 -15 0 -15 43 6 42 7 4 9 3 9 24 25 25 24 9 0 8 0 7 40 7 40 9 0 9 0 0
50 0 50 -9 0 -10 0 -6 20 -6 20 -54 0 -53 0 -4 -12 -5 -13 -16 17 -17 17 0 10
0 11 -13 0 -13 0 -14 20 -14 20 -13 0 -13 0 0 10 0 10 60 0 60 0 0 -10 0 -10
20 0 21 0 24 -22 24 -23 15 -12 15 -13 11 0 10 0 0 -20 0 -20 10 0 10 0 0 -90
0 -90 -10 0 -10 0 0 -15 0 -15 -10 0 -10 0 0 -16 0 -16 -40 -39 -40 -39 0 -9
0 -10 -20 -6 -20 -6 0 -10 0 -9 34 0 34 0 5 -12 4 -13 19 21 19 21 90 6 89 5
4 11 4 11 29 0 29 0 0 10 0 10 10 0 11 0 24 25 25 24 0 21 0 20 -16 0 -17 0
-23 25 -23 25 -16 0 -15 0 0 10 0 10 -25 0 -25 0 0 10 0 10 -20 0 -20 0 0 10
0 10 -15 0 -15 0 0 40 0 40 -10 0 -10 0 0 26 0 27 -22 18 -21 19 32 0 32 0 24
25 25 24 0 6 0 5 -20 0 -20 0 0 -10 0 -10 -15 0 -15 0 0 -10 0 -10 -20 0 -20
0 0 19 0 19 31 6 32 6 33 0 34 0 0 -12 0 -13 -35 -30 -35 -30 0 -27 0 -27 15
-13 16 -13 14 -12 14 -13 20 0 21 0 0 9 0 10 20 6 20 6 0 20 0 19 -20 0 -20 0
0 -19 0 -19 -16 -6 -16 -6 8 33 7 32 20 17 20 18 19 0 18 0 0 -45 0 -45 -10 0
-10 0 0 -13 0 -13 -20 -14 -20 -14 0 -13 0 -13 45 0 45 0 0 -10 0 -10 20 0 20
0 0 -10 0 -9 25 -25 25 -25 0 -11 0 -10 10 0 10 0 0 -20 0 -20 -10 0 -10 0 0
-10 0 -11 -25 -25 -25 -25 0 -9 0 -9 -45 -7 -45 -6 0 -9 0 -9 -30 0 -30 0 0
-10 0 -10 -25 0 -25 0 0 -9 0 -10 -55 -6 -54 -7 -6 -19 -6 -19 -10 0 -9 0 0
-25 0 -25 9 0 9 0 6 -35 7 -35 9 0 10 0 0 -18 0 -18 20 -14 20 -14 0 -22 0
-22 11 -4 11 -4 0 -42 -1 -42 15 0 14 0 0 21 0 22 19 16 18 16 7 33 8 32 9 0
9 0 0 20 0 20 10 0 10 0 0 11 0 10 14 15 15 14 40 0 41 0 2 -37 1 -38 -2 -75
-3 -75 -9 -3 -9 -4 0 -24 0 -24 -10 0 -10 0 0 -30 0 -30 -9 0 -9 0 -6 -45 -7
-45 -10 0 -9 0 0 -15 0 -15 -10 0 -10 0 0 -25 0 -25 60 0 60 0 0 -10 0 -10 40
0 40 0 0 -10 0 -10 25 0 25 0 0 6 0 5 -14 15 -15 14 -91 7 -92 6 6 31 6 31 10
3 10 4 0 19 0 19 10 0 10 0 0 19 0 19 15 6 15 5 0 30 0 30 20 6 20 6 0 30 0
29 10 0 10 0 0 44 0 44 13 5 12 4 -2 154 -2 154 -10 3 -11 4 0 34 0 34 10 0
10 0 0 47 0 46 19 -21 18 -22 16 0 16 0 6 20 6 20 10 0 9 0 0 25 0 25 10 0 10
0 0 70 0 70 -10 0 -10 0 0 25 0 25 -20 20 -20 20 -15 0 -15 0 0 10 0 10 -40 0
-41 0 -29 -30 -30 -31 0 -14 0 -15 -10 0 -10 0 0 31 0 30 -14 15 -15 14 -6 0
-6 0 -16 15 -15 16 -19 -6 -19 -6 0 15 0 16 -15 0 -15 0 0 10 0 10 -25 0 -25
0 0 -10z m120 -65 l0 -5 -40 -40 -40 -40 -5 0 -5 0 0 19 0 20 19 6 20 6 6 20
6 19 20 0 19 0 0 -5z m254 -41 l15 -6 7 -44 6 -44 9 0 9 0 0 -30 0 -30 -9 0
-10 0 -3 -47 -3 -48 -22 -3 -23 -3 0 50 0 51 10 0 10 0 0 31 0 30 -14 15 -15
14 -30 0 -31 0 0 -9 0 -10 -20 -6 -21 -7 -6 -29 -5 -29 -19 0 -19 0 0 10 0 10
10 0 10 0 0 25 0 25 10 0 10 0 0 29 0 30 16 15 15 16 49 0 48 0 16 -6z m-184
-74 l0 -10 -10 0 -10 0 0 10 0 10 10 0 10 0 0 -10z m135 -87 l-7 -78 -3 -4 -4
-3 -25 25 -26 26 0 37 0 37 22 18 21 19 15 0 14 0 -7 -77z m-158 20 l-5 -18 0
35 0 35 5 -17 4 -18 -4 -17z m-117 -73 l0 -10 15 0 15 0 0 -9 0 -9 40 -7 41
-7 6 -29 6 -29 9 0 9 0 -15 -15 -15 -15 -20 0 -21 0 0 -10 0 -10 -20 0 -20 0
0 -10 0 -10 -69 0 -69 0 -4 -8 -3 -9 -32 -6 -33 -6 0 10 0 10 25 25 25 25 0 9
0 9 20 6 20 6 0 30 0 29 10 0 10 0 0 10 0 11 13 14 12 14 23 1 22 0 0 -10z
m230 -230 l0 -60 10 0 10 0 0 -100 0 -100 -10 0 -10 0 0 -44 0 -44 -16 -6 -17
-6 -5 5 -5 5 11 0 12 0 0 80 0 80 -10 0 -10 0 0 20 0 20 10 0 10 0 0 35 0 35
-9 0 -9 0 -4 53 -4 52 15 17 16 17 8 0 7 1 0 -60z m-70 -15 l0 -25 10 0 10 0
0 -45 0 -45 -40 0 -41 0 -24 -25 -25 -24 0 -11 0 -10 -9 0 -9 0 -7 -40 -7 -40
-9 0 -9 0 0 -11 0 -10 -14 -15 -15 -14 -5 0 -5 0 -7 45 -6 45 -9 0 -9 0 0 19
0 20 -20 6 -20 6 0 20 0 19 -10 0 -10 0 0 31 0 30 14 15 15 14 30 0 31 0 0 9
0 9 55 7 55 6 0 10 0 9 25 0 25 0 0 10 0 10 20 0 20 0 0 -25z m-570 -145 l0
-30 10 0 10 0 0 -25 0 -25 10 0 10 0 0 -25 0 -25 -10 0 -10 0 0 -20 0 -20 -10
0 -10 0 0 20 0 20 -10 0 -10 0 0 15 0 15 -9 0 -9 0 -6 34 -7 35 -12 4 -12 4
18 17 17 17 0 10 0 9 20 0 20 0 0 -30z m620 -230 l0 -10 -10 0 -10 0 0 10 0
10 10 0 10 0 0 -10z m-947 -57 l-13 -5 0 -44 0 -44 -15 0 -15 0 6 43 7 42 11
7 11 8 10 -1 10 -1 -12 -5z m47 -33 l0 -40 -10 0 -10 0 0 40 0 40 10 0 10 0 0
-40z m100 -80 l0 -20 10 0 10 0 0 -15 0 -15 10 0 10 0 0 -10 0 -10 -36 0 -36
0 6 23 6 22 0 23 0 22 10 0 10 0 0 -20z"/>
<path d="M483 1115 l-23 -24 0 -21 0 -20 16 0 15 0 15 14 14 15 0 30 0 31 -7
-1 -8 0 -22 -24z"/>
<path d="M980 445 l0 -55 -10 0 -10 0 0 -35 0 -35 -10 0 -10 0 0 -20 0 -20 -9
0 -8 0 -7 -60 -7 -60 -9 0 -10 0 0 -19 0 -20 -19 -6 -19 -6 -5 -29 -6 -29 -46
-6 -45 -7 0 -9 0 -9 -75 0 -75 0 0 10 0 10 -13 0 -14 0 -21 19 -22 18 0 14 0
14 -35 30 -35 30 0 16 0 17 -15 6 -15 5 0 21 0 20 -10 0 -10 0 0 15 0 15 -10
0 -10 0 0 40 0 40 -10 0 -10 0 0 25 0 25 10 0 10 0 0 35 0 35 -16 0 -17 0 5
-102 5 -102 12 -4 11 -4 0 -29 0 -29 10 0 10 0 0 -15 0 -15 9 0 10 0 7 -45 6
-45 9 0 9 0 0 -45 0 -45 20 0 20 0 0 35 0 35 -10 0 -10 0 0 20 0 20 6 0 5 0
15 -14 14 -15 0 -13 0 -14 20 -17 20 -17 15 0 15 0 0 -10 0 -10 103 0 103 0
14 20 14 20 8 0 7 0 4 -22 4 -23 2 28 1 27 10 0 10 0 0 18 0 18 20 14 20 14 6
33 6 33 9 0 9 0 0 35 0 35 10 0 10 0 0 15 0 15 10 0 10 0 0 30 0 30 10 0 10 0
0 80 0 80 -10 0 -10 0 0 -55z"/>
<path d="M578 410 l-28 -30 0 -20 0 -20 -10 0 -10 0 0 -70 0 -70 10 0 10 0 0
-30 0 -30 10 0 10 0 0 -15 0 -15 9 0 10 0 6 -20 6 -20 20 0 19 0 0 -10 0 -10
55 0 56 0 34 33 34 32 17 14 16 14 -4 65 -4 66 -12 4 -12 4 0 15 0 14 -14 15
-15 14 -5 0 -6 0 0 -20 0 -20 10 0 10 0 0 -15 0 -15 10 0 10 0 0 -63 0 -63
-21 -14 -21 -15 -14 -12 -13 -13 -10 0 -11 0 0 -10 0 -10 -35 0 -35 0 0 10 0
10 -16 0 -15 0 -13 13 -13 13 -7 22 -7 22 -10 0 -9 0 0 25 0 25 -10 0 -10 0 0
35 0 35 10 0 10 0 0 40 0 40 10 0 10 0 0 13 0 14 19 21 18 22 42 0 41 0 0 -10
0 -10 20 0 20 0 0 -9 0 -10 16 -15 15 -16 20 0 19 0 -39 40 -39 40 -68 0 -69
0 -27 -30z"/>
<path d="M620 289 l0 -10 14 -15 15 -14 15 0 16 0 0 25 0 25 -30 0 -30 0 0
-11z"/>
<path d="M250 30 l0 -10 -20 0 -20 0 0 -10 0 -10 90 0 90 0 0 20 0 20 -70 0
-70 0 0 -10z"/>
<path d="M910 10 l0 -10 45 0 45 0 0 10 0 10 -45 0 -45 0 0 -10z"/>
</g>
</svg>
