<?xml version="1.0" standalone="no"?>
<!DOCTYPE svg PUBLIC "-//W3C//DTD SVG 20010904//EN"
 "http://www.w3.org/TR/2001/REC-SVG-20010904/DTD/svg10.dtd">
<svg version="1.0" xmlns="http://www.w3.org/2000/svg"
 width="468pt" height="468pt" viewBox="0 0 468 468"
 preserveAspectRatio="xMidYMid meet">
<metadata>
Created by potrace 1.8, written by Peter Selinger 2001-2007
</metadata>
<g transform="translate(0,468) scale(0.365625,-0.365625)"
fill="#000000" stroke="none">
<path d="M591 1124 l-13 -15 7 -7 8 -7 4 13 5 12 28 0 28 0 6 -12 6 -13 6 13
6 12 28 0 28 0 5 -12 4 -13 8 7 7 7 -15 16 -16 15 -24 0 -25 0 -6 -12 -6 -13
-6 13 -6 12 -26 0 -27 -1 -14 -15z"/>
<path d="M260 980 l0 -20 -60 0 -60 0 0 -10 0 -10 -15 0 -16 0 -24 -25 -25
-24 0 -13 0 -14 -20 -14 -20 -14 0 -17 0 -17 -12 -5 -13 -4 7 -8 7 -7 35 36
36 35 0 26 0 25 20 0 20 0 0 10 0 10 20 0 20 0 0 10 0 10 60 0 60 0 0 10 0 10
80 0 80 0 0 -10 0 -10 40 0 40 0 0 -10 0 -10 20 0 20 0 0 -10 0 -10 20 0 20 0
0 -10 0 -10 15 0 15 0 55 -55 55 -55 0 -11 0 -11 30 -28 30 -28 0 -6 0 -6
-190 0 -190 0 0 -10 0 -10 -50 0 -50 0 0 -10 0 -10 -40 0 -40 0 0 -10 0 -10
-30 0 -30 0 0 -10 0 -10 -30 0 -30 0 0 -10 0 -10 -30 0 -30 0 0 -10 0 -10 -16
0 -15 0 -15 -14 -14 -15 0 -5 0 -6 20 0 20 0 0 10 0 10 20 0 20 0 0 10 0 10
30 0 30 0 0 10 0 10 30 0 30 0 0 10 0 10 20 0 20 0 0 10 0 10 50 0 50 0 0 10
0 10 40 0 40 0 0 10 0 10 280 0 280 0 0 -10 0 -10 60 0 60 0 0 10 0 10 50 0
50 0 0 -10 0 -10 40 0 40 0 0 10 0 10 -30 0 -30 0 0 10 0 10 -60 0 -60 0 0
-10 0 -10 -60 0 -60 0 0 10 0 10 -80 0 -80 0 0 16 0 16 -30 28 -30 28 0 12 0
12 -31 29 -31 29 15 15 16 15 15 0 16 0 0 10 0 10 18 0 18 0 14 20 14 20 28 0
28 0 0 10 0 10 60 0 60 0 0 10 0 10 86 0 86 0 28 -30 28 -30 16 0 16 0 0 -10
0 -10 10 0 10 0 0 20 0 20 -18 0 -18 0 -14 20 -14 20 -18 0 -18 0 0 10 0 10
-90 0 -90 0 0 -10 0 -10 -70 0 -70 0 0 -10 0 -10 -18 0 -18 0 -14 -20 -14 -20
-28 0 -28 0 0 -10 0 -10 -20 0 -20 0 0 -10 0 -10 -30 0 -30 0 0 10 0 10 -18 0
-18 0 -14 20 -14 20 -18 0 -18 0 0 10 0 10 -40 0 -40 0 0 10 0 10 -39 0 -39 0
-6 13 -6 12 -6 -12 -6 -13 -39 0 -39 0 0 10 0 10 -10 0 -10 0 0 -20z"/>
<path d="M560 610 l0 -10 -40 0 -40 0 0 -10 0 -10 40 0 40 0 0 10 0 10 30 0
30 0 0 10 0 10 -30 0 -30 0 0 -10z"/>
<path d="M920 600 l0 -20 10 0 10 0 0 10 0 10 30 0 30 0 0 10 0 10 -40 0 -40
0 0 -20z"/>
<path d="M720 590 l0 -10 20 0 20 0 0 10 0 10 -20 0 -20 0 0 -10z"/>
<path d="M780 590 l0 -10 20 0 20 0 0 10 0 10 -20 0 -20 0 0 -10z"/>
<path d="M840 590 l0 -10 10 0 10 0 0 10 0 10 -10 0 -10 0 0 -10z"/>
<path d="M1023 575 l-23 -24 0 -106 0 -105 -10 0 -10 0 0 -40 0 -40 -10 0 -10
0 0 -20 0 -20 40 0 40 0 0 20 0 20 10 0 10 0 0 40 0 40 10 0 10 0 0 40 0 40
70 0 70 0 0 10 0 10 -26 0 -25 0 -15 14 -14 15 0 15 0 16 8 0 8 0 14 -20 14
-20 38 0 38 0 0 36 0 35 -14 15 -15 14 -13 0 -14 0 -14 20 -14 20 -66 -1 -65
0 -22 -24z m137 -25 l0 -10 -10 0 -10 0 0 10 0 10 10 0 10 0 0 -10z"/>
<path d="M260 544 l0 -15 -14 -15 -15 -14 -35 0 -36 0 0 -10 0 -10 40 0 40 0
0 10 0 10 30 0 30 0 0 10 0 10 -10 0 -10 0 0 10 0 10 40 0 40 0 0 10 0 10 -50
0 -50 0 0 -16z"/>
<path d="M420 550 l0 -10 60 0 60 0 0 10 0 10 -60 0 -60 0 0 -10z"/>
<path d="M740 550 l0 -10 20 0 20 0 0 10 0 10 -20 0 -20 0 0 -10z"/>
<path d="M800 550 l0 -10 50 0 50 0 0 10 0 10 -50 0 -50 0 0 -10z"/>
<path d="M620 530 l0 -10 30 0 30 0 0 10 0 10 -30 0 -30 0 0 -10z"/>
<path d="M420 510 l0 -10 10 0 10 0 0 10 0 10 -10 0 -10 0 0 -10z"/>
<path d="M740 510 l0 -10 -40 0 -40 0 0 -10 0 -10 46 0 45 0 15 14 14 15 0 5
0 6 -20 0 -20 0 0 -10z"/>
<path d="M580 450 l0 -10 10 0 10 0 0 10 0 10 -10 0 -10 0 0 -10z"/>
<path d="M620 450 l0 -10 10 0 10 0 0 10 0 10 -10 0 -10 0 0 -10z"/>
<path d="M660 450 l0 -10 30 0 30 0 0 10 0 10 -30 0 -30 0 0 -10z"/>
<path d="M780 450 l0 -10 20 0 20 0 0 10 0 10 -20 0 -20 0 0 -10z"/>
<path d="M860 450 l0 -10 10 0 10 0 0 10 0 10 -10 0 -10 0 0 -10z"/>
<path d="M900 450 l0 -10 10 0 10 0 0 10 0 10 -10 0 -10 0 0 -10z"/>
<path d="M940 454 l0 -5 15 -16 16 -15 6 5 5 6 -15 16 -16 15 -5 0 -6 0 0 -6z"/>
<path d="M451 424 l-13 -15 6 -6 5 -5 16 15 15 16 0 5 0 6 -7 0 -8 -1 -14 -15z"/>
<path d="M500 430 l0 -10 10 0 10 0 0 10 0 10 -10 0 -10 0 0 -10z"/>
<path d="M320 410 l0 -10 30 0 30 0 0 10 0 10 -30 0 -30 0 0 -10z"/>
<path d="M400 410 l0 -10 10 0 10 0 0 10 0 10 -10 0 -10 0 0 -10z"/>
<path d="M0 394 l0 -5 14 -15 15 -14 25 0 26 0 0 10 0 10 -30 0 -30 0 0 10 0
10 -10 0 -10 0 0 -6z"/>
<path d="M160 390 l0 -10 -15 0 -16 0 -34 -35 -35 -34 0 -16 0 -15 -10 0 -10
0 0 -30 0 -30 40 0 40 0 0 20 0 20 10 0 10 0 0 20 0 20 20 0 20 0 0 10 0 10
50 0 50 0 0 -10 0 -10 20 0 20 0 0 -20 0 -20 10 0 10 0 0 -20 0 -20 40 0 40 0
0 30 0 30 -10 0 -10 0 0 15 0 16 -35 34 -34 35 -16 0 -15 0 0 10 0 10 -70 0
-70 0 0 -10z"/>
<path d="M640 390 l0 -10 -15 0 -16 0 -34 -35 -35 -34 0 -16 0 -15 -10 0 -10
0 0 -30 0 -30 40 0 40 0 0 20 0 20 10 0 10 0 0 20 0 20 20 0 20 0 0 10 0 10
50 0 50 0 0 -10 0 -10 20 0 20 0 0 -20 0 -20 10 0 10 0 0 -20 0 -20 40 0 40 0
0 30 0 30 -10 0 -10 0 0 15 0 16 -35 34 -34 35 -16 0 -15 0 0 10 0 10 -70 0
-70 0 0 -10z"/>
<path d="M860 370 l0 -10 10 0 10 0 0 10 0 10 -10 0 -10 0 0 -10z"/>
<path d="M900 370 l0 -10 30 0 30 0 0 10 0 10 -30 0 -30 0 0 -10z"/>
<path d="M1160 370 l0 -10 40 0 40 0 0 10 0 10 -40 0 -40 0 0 -10z"/>
<path d="M1260 280 l0 -20 10 0 10 0 0 20 0 20 -10 0 -10 0 0 -20z"/>
<path d="M1160 270 l0 -10 40 0 40 0 0 10 0 10 -40 0 -40 0 0 -10z"/>
<path d="M0 214 l0 -5 14 -15 15 -14 51 0 51 0 16 15 15 16 -7 7 -8 7 -4 -12
-5 -13 -59 0 -59 0 0 10 0 10 -10 0 -10 0 0 -6z"/>
<path d="M300 214 l0 -5 14 -15 15 -14 51 0 51 0 16 15 15 16 -7 7 -8 7 -4
-12 -5 -13 -59 0 -59 0 0 10 0 10 -10 0 -10 0 0 -6z"/>
<path d="M480 214 l0 -5 14 -15 15 -14 51 0 51 0 16 15 15 16 -7 7 -8 7 -4
-12 -5 -13 -59 0 -59 0 0 10 0 10 -10 0 -10 0 0 -6z"/>
<path d="M780 214 l0 -5 14 -15 15 -14 54 0 55 0 6 13 6 12 6 -12 6 -13 55 0
54 0 16 15 15 16 -7 7 -8 7 -4 -12 -5 -13 -58 0 -58 0 -6 13 -6 12 -6 -12 -6
-13 -59 0 -59 0 0 10 0 10 -10 0 -10 0 0 -6z"/>
<path d="M200 150 l0 -10 -20 0 -20 0 0 -10 0 -10 20 0 20 0 0 10 0 10 20 0
20 0 0 10 0 10 -20 0 -20 0 0 -10z"/>
<path d="M120 130 l0 -10 10 0 10 0 0 10 0 10 -10 0 -10 0 0 -10z"/>
<path d="M380 90 l0 -50 -16 0 -15 0 -15 -14 -14 -15 0 -5 0 -6 18 0 18 0 14
20 14 20 18 0 18 0 0 30 0 30 10 0 10 0 0 20 0 20 -30 0 -30 0 0 -50z"/>
<path d="M791 124 l-13 -15 7 -7 8 -7 4 13 5 12 39 0 39 0 0 10 0 10 -37 0
-38 -1 -14 -15z"/>
<path d="M920 130 l0 -10 20 0 20 0 0 10 0 10 -20 0 -20 0 0 -10z"/>
<path d="M980 130 l0 -10 10 0 10 0 0 10 0 10 -10 0 -10 0 0 -10z"/>
<path d="M1120 130 l0 -10 50 0 50 0 0 10 0 10 -50 0 -50 0 0 -10z"/>
<path d="M480 110 l0 -10 50 0 50 0 0 10 0 10 -50 0 -50 0 0 -10z"/>
<path d="M600 110 l0 -10 10 0 10 0 0 10 0 10 -10 0 -10 0 0 -10z"/>
<path d="M640 110 l0 -10 10 0 10 0 0 10 0 10 -10 0 -10 0 0 -10z"/>
<path d="M680 110 l0 -10 20 0 20 0 0 10 0 10 -20 0 -20 0 0 -10z"/>
<path d="M220 90 l0 -10 10 0 10 0 0 10 0 10 -10 0 -10 0 0 -10z"/>
<path d="M20 70 l0 -10 50 0 50 0 0 10 0 10 -50 0 -50 0 0 -10z"/>
<path d="M291 64 l-13 -15 7 -7 8 -7 4 13 5 12 29 0 29 0 0 10 0 10 -27 0 -28
-1 -14 -15z"/>
</g>
</svg>
