<?xml version="1.0" standalone="no"?>
<!DOCTYPE svg PUBLIC "-//W3C//DTD SVG 20010904//EN"
 "http://www.w3.org/TR/2001/REC-SVG-20010904/DTD/svg10.dtd">
<svg version="1.0" xmlns="http://www.w3.org/2000/svg"
 width="468pt" height="468pt" viewBox="0 0 468 468"
 preserveAspectRatio="xMidYMid meet">
<metadata>
Created by potrace 1.8, written by Peter Selinger 2001-2007
</metadata>
<g transform="translate(0,468) scale(0.365625,-0.365625)"
fill="#000000" stroke="none">
<path d="M560 1025 l0 -15 -40 0 -40 0 0 -10 0 -10 -25 0 -25 0 0 -15 0 -15
-30 0 -30 0 0 -11 0 -10 -14 -15 -15 -14 -10 0 -11 0 0 -30 0 -30 -15 0 -15 0
0 -25 0 -25 -10 0 -10 0 0 -25 0 -25 -15 0 -15 0 0 -80 0 -80 15 0 15 0 0 -15
0 -15 -30 0 -30 0 0 -15 0 -15 -10 0 -10 0 0 15 0 15 -40 0 -40 0 0 -15 0 -15
-15 0 -15 0 0 -10 0 -10 -40 0 -40 0 0 -15 0 -15 40 0 40 0 0 -80 0 -80 15 0
15 0 0 -15 0 -15 40 0 40 0 0 15 0 15 10 0 10 0 0 -15 0 -15 40 0 40 0 0 15 0
15 15 0 15 0 0 -15 0 -15 40 0 40 0 0 15 0 15 15 0 15 0 0 80 0 80 40 0 40 0
0 -80 0 -80 10 0 10 0 0 -25 0 -25 15 0 15 0 0 -15 0 -15 65 0 65 0 0 15 0 15
15 0 15 0 0 25 0 25 15 0 15 0 0 80 0 80 40 0 40 0 0 -80 0 -80 10 0 10 0 0
-15 0 -15 40 0 40 0 0 15 0 15 15 0 15 0 0 -15 0 -15 40 0 40 0 0 15 0 15 15
0 15 0 0 -15 0 -15 40 0 40 0 0 15 0 15 10 0 10 0 0 80 0 80 55 0 55 0 0 15 0
15 -51 0 -50 0 -15 14 -14 15 0 10 0 11 -40 0 -40 0 0 -15 0 -15 -15 0 -15 0
0 15 0 15 -25 0 -25 0 0 15 0 15 10 0 10 0 0 80 0 80 -10 0 -10 0 0 25 0 25
-15 0 -15 0 0 25 0 25 -15 0 -15 0 0 26 0 25 -14 15 -15 14 -10 0 -11 0 0 15
0 15 -25 0 -25 0 0 15 0 15 -30 0 -30 0 0 10 0 10 -40 0 -40 0 0 15 0 15 -65
0 -65 0 0 -15z m110 -25 l0 -10 40 0 40 0 0 -15 0 -15 25 0 25 0 0 -15 0 -15
25 0 25 0 0 -10 0 -10 15 0 15 0 0 -15 0 -15 15 0 15 0 0 -25 0 -25 10 0 10 0
0 -30 0 -30 15 0 15 0 0 -25 0 -25 15 0 15 0 0 -65 0 -65 -15 0 -15 0 0 -30 0
-30 -15 0 -15 0 0 15 0 15 -40 0 -40 0 0 -11 0 -10 -14 -15 -15 -14 -35 0 -36
0 0 40 0 40 -15 0 -15 0 0 -120 0 -120 -15 0 -15 0 0 -26 0 -25 -14 -15 -15
-14 -35 0 -36 0 0 10 0 10 -15 0 -15 0 0 30 0 30 -15 0 -15 0 0 120 0 120 -10
0 -10 0 0 -40 0 -40 -40 0 -40 0 0 10 0 10 -15 0 -15 0 0 15 0 15 -40 0 -40 0
0 -15 0 -15 -15 0 -15 0 0 30 0 30 -10 0 -10 0 0 65 0 65 10 0 10 0 0 25 0 25
15 0 15 0 0 30 0 30 15 0 15 0 0 25 0 25 10 0 10 0 0 15 0 15 15 0 15 0 0 10
0 10 25 0 25 0 0 15 0 15 30 0 30 0 0 15 0 15 40 0 40 0 0 10 0 10 40 0 40 0
0 -10z m-510 -480 l0 -10 15 0 15 0 0 -80 0 -80 -15 0 -15 0 0 -15 0 -15 -15
0 -15 0 0 15 0 15 -10 0 -10 0 0 75 0 76 13 14 12 14 13 1 12 0 0 -10z m116
-4 l14 -15 0 -75 0 -76 -10 0 -10 0 0 -15 0 -15 -15 0 -15 0 0 15 0 15 -15 0
-15 0 0 80 0 80 15 0 15 0 0 10 0 10 11 0 10 0 15 -14z m94 4 l0 -10 15 0 15
0 0 -80 0 -80 -15 0 -15 0 0 -15 0 -15 -10 0 -10 0 0 15 0 15 -15 0 -15 0 0
80 0 80 15 0 15 0 0 10 0 10 10 0 10 0 0 -10z m546 -4 l14 -15 0 -75 0 -76
-10 0 -10 0 0 -15 0 -15 -15 0 -15 0 0 15 0 15 -15 0 -15 0 0 80 0 80 15 0 15
0 0 10 0 10 11 0 10 0 15 -14z m94 4 l0 -10 15 0 15 0 0 -80 0 -80 -15 0 -15
0 0 -15 0 -15 -10 0 -10 0 0 15 0 15 -15 0 -15 0 0 80 0 80 15 0 15 0 0 10 0
10 10 0 10 0 0 -10z m110 0 l0 -10 15 0 15 0 0 -80 0 -80 -15 0 -15 0 0 -15 0
-15 -15 0 -15 0 0 15 0 15 -10 0 -10 0 0 75 0 76 13 14 12 14 13 1 12 0 0 -10z"/>
<path d="M430 815 l0 -15 -15 0 -15 0 0 -15 0 -15 15 0 15 0 0 15 0 15 65 0
65 0 0 -15 0 -15 15 0 15 0 0 15 0 15 -15 0 -15 0 0 15 0 15 -65 0 -65 0 0
-15z"/>
<path d="M720 815 l0 -15 -15 0 -15 0 0 -15 0 -15 15 0 15 0 0 15 0 15 65 0
65 0 0 -15 0 -15 15 0 15 0 0 15 0 15 -15 0 -15 0 0 15 0 15 -65 0 -65 0 0
-15z"/>
<path d="M443 755 l-13 -14 0 -36 0 -35 10 0 10 0 0 -15 0 -15 40 0 40 0 0 15
0 15 15 0 15 0 0 40 0 40 -15 0 -15 0 0 10 0 10 -37 0 -38 -1 -12 -14z m67
-20 l0 -15 10 0 10 0 0 -11 0 -10 -14 -15 -15 -14 -10 0 -11 0 0 10 0 10 -15
0 -15 0 0 15 0 15 15 0 15 0 0 15 0 15 15 0 15 0 0 -15z"/>
<path d="M750 760 l0 -10 -15 0 -15 0 0 -40 0 -40 15 0 15 0 0 -15 0 -15 40 0
40 0 0 15 0 15 10 0 10 0 0 36 0 35 -14 15 -15 14 -35 0 -36 0 0 -10z m50 -25
l0 -15 15 0 15 0 0 -15 0 -15 -15 0 -15 0 0 -10 0 -10 -11 0 -10 0 -15 14 -14
15 0 10 0 11 10 0 10 0 0 15 0 15 15 0 15 0 0 -15z"/>
</g>
</svg>
