<?xml version="1.0" standalone="no"?>
<!DOCTYPE svg PUBLIC "-//W3C//DTD SVG 20010904//EN"
 "http://www.w3.org/TR/2001/REC-SVG-20010904/DTD/svg10.dtd">
<svg version="1.0" xmlns="http://www.w3.org/2000/svg"
 width="468pt" height="468pt" viewBox="0 0 468 468"
 preserveAspectRatio="xMidYMid meet">
<metadata>
Created by potrace 1.8, written by Peter Selinger 2001-2007
</metadata>
<g transform="translate(0,468) scale(0.365625,-0.365625)"
fill="#000000" stroke="none">
<path d="M13 1265 l-13 -14 0 -626 0 -625 10 0 10 0 0 510 0 510 50 0 50 0 0
10 0 10 -25 0 -25 0 0 25 0 25 60 0 60 0 0 -25 0 -25 -25 0 -25 0 0 -10 0 -10
50 0 50 0 0 10 0 10 -15 0 -15 0 0 25 0 25 -10 0 -10 0 0 25 0 25 -10 0 -10 0
0 25 0 25 -15 0 -15 0 0 -25 0 -25 15 0 15 0 0 -15 0 -15 -40 0 -40 0 0 15 0
15 15 0 15 0 0 25 0 25 -15 0 -15 0 0 -25 0 -25 -10 0 -10 0 0 -25 0 -25 -10
0 -10 0 0 -25 0 -25 -15 0 -15 0 0 95 0 95 15 0 15 0 0 15 0 15 580 0 580 0 0
-11 0 -10 14 -15 15 -14 10 0 11 0 0 -605 0 -605 10 0 10 0 0 615 0 615 -10 0
-10 0 0 15 0 15 -15 0 -15 0 0 10 0 10 -602 0 -603 -1 -12 -14z"/>
<path d="M70 1220 l0 -10 25 0 25 0 0 -10 0 -10 10 0 10 0 0 20 0 20 -35 0
-35 0 0 -10z"/>
<path d="M60 903 l-14 -17 12 -4 12 -4 0 -13 0 -13 -12 -5 -13 -4 23 -20 22
-20 0 -12 0 -11 14 0 14 0 6 -12 6 -13 6 13 6 12 14 0 14 0 0 11 0 12 23 20
22 20 -12 4 -13 5 0 13 0 13 12 4 13 5 -19 19 -19 19 -5 -13 -4 -12 -13 0 -13
0 -6 -12 -6 -13 -6 13 -6 12 -14 0 -14 0 0 10 0 10 -7 0 -8 -1 -15 -16z m30
-13 l0 -10 15 0 15 0 0 -15 0 -15 -15 0 -15 0 0 -10 0 -10 14 0 14 0 6 13 6
12 6 -12 6 -13 14 0 14 0 0 10 0 10 -15 0 -15 0 0 15 0 15 14 0 14 0 5 13 4
12 9 -9 9 -9 -12 -4 -13 -5 0 -13 0 -13 12 -4 13 -5 -17 -16 -17 -17 -10 0
-11 0 0 -15 0 -15 -10 0 -10 0 0 15 0 15 -11 0 -10 0 -17 17 -17 16 13 5 12 4
0 14 0 14 -10 0 -10 0 0 10 0 10 10 0 10 0 0 -10z"/>
<path d="M120 820 l0 -10 10 0 10 0 0 10 0 10 -10 0 -10 0 0 -10z"/>
<path d="M450 749 l0 -10 -14 -15 -15 -14 -6 0 -6 0 -15 -14 -14 -15 0 -9 0
-10 -12 -5 -13 -5 15 -12 15 -12 -12 -5 -13 -5 0 -13 0 -13 13 -5 12 -5 -15
-12 -15 -12 13 -5 12 -5 0 -13 0 -13 13 -6 12 -6 -12 -6 -13 -6 0 -10 0 -9 14
-15 15 -14 6 0 6 0 15 -14 14 -15 0 -6 0 -6 14 -15 15 -14 6 0 6 0 15 -14 14
-15 0 -10 0 -11 11 0 10 0 15 -14 14 -15 0 -6 0 -6 14 -15 15 -14 9 0 10 0 5
-12 4 -13 20 23 20 22 12 0 11 0 0 13 0 13 20 14 20 14 0 13 0 13 13 0 13 0
14 20 14 20 13 0 13 0 0 10 0 11 25 24 24 25 11 0 10 0 0 15 0 15 -15 0 -15 0
0 -15 0 -15 -10 0 -10 0 0 14 0 14 13 6 12 6 -12 6 -13 6 0 10 0 9 14 15 15
14 10 0 11 0 0 -10 0 -10 -15 0 -15 0 0 -15 0 -15 15 0 15 0 0 14 0 14 13 5
12 5 -15 12 -15 12 13 5 12 5 0 13 0 13 -12 5 -13 5 15 12 15 12 -12 5 -13 5
0 14 0 14 -10 0 -11 0 -24 25 -25 24 0 11 0 10 -15 0 -15 0 0 -15 0 -15 15 0
15 0 0 -10 0 -10 -14 0 -14 0 -6 13 -6 12 -6 -12 -6 -13 -10 0 -9 0 -15 14
-14 15 0 10 0 11 -10 0 -10 0 0 -15 0 -15 -11 0 -12 0 -20 -22 -20 -23 -4 13
-5 12 -10 0 -9 0 -15 14 -14 15 0 10 0 11 -10 0 -10 0 0 -15 0 -15 -15 0 -15
0 0 15 0 15 -10 0 -10 0 0 -15 0 -15 -15 0 -15 0 0 15 0 15 -10 0 -10 0 0 -11z
m20 -29 l0 -10 14 0 14 0 6 13 6 12 6 -12 6 -13 13 0 13 0 5 13 4 12 20 -22
20 -23 12 0 11 0 0 -15 0 -15 -15 0 -15 0 0 15 0 15 -10 0 -10 0 0 -11 0 -10
14 -15 15 -14 6 0 6 0 15 14 14 15 0 6 0 6 14 15 15 14 9 0 10 0 5 13 4 12 20
-22 20 -23 11 0 10 0 6 13 6 12 6 -12 6 -13 13 0 13 0 4 12 5 13 16 -17 17
-17 0 -10 0 -11 15 0 15 0 0 -10 0 -10 -11 0 -10 0 -15 -14 -14 -15 0 -10 0
-11 10 0 10 0 0 15 0 15 15 0 15 0 0 -15 0 -15 -10 0 -11 0 -24 -25 -25 -24 0
-10 0 -9 13 -6 12 -6 -12 -6 -13 -6 0 -13 0 -13 12 -4 13 -5 -17 -16 -17 -17
-10 0 -11 0 0 -11 0 -10 -14 -15 -15 -14 -6 0 -6 0 -15 -14 -14 -15 0 -6 0 -6
-14 -15 -15 -14 -10 0 -11 0 0 -11 0 -10 -17 -17 -16 -17 -5 13 -4 12 -14 0
-14 0 0 13 0 13 -20 14 -20 14 0 13 0 13 -13 0 -13 0 -14 20 -14 20 -13 0 -13
0 0 10 0 11 -25 24 -24 25 -11 0 -10 0 0 15 0 15 15 0 15 0 0 -15 0 -15 10 0
10 0 0 14 0 14 -12 6 -13 6 13 6 12 6 0 10 0 9 -14 15 -15 14 -10 0 -11 0 0
-10 0 -10 15 0 15 0 0 -15 0 -15 -15 0 -15 0 0 14 0 14 -12 5 -13 5 15 12 15
12 -12 5 -13 5 0 13 0 13 13 5 12 5 -15 12 -15 12 13 5 12 5 0 14 0 14 13 0
13 0 14 20 14 20 8 0 8 0 0 -10z"/>
<path d="M443 695 l-13 -14 0 -11 0 -10 -15 0 -15 0 0 -10 0 -10 11 0 10 0 15
-14 14 -15 0 -10 0 -11 -10 0 -10 0 0 15 0 15 -15 0 -15 0 0 -15 0 -15 10 0
11 0 24 -25 25 -24 0 -10 0 -9 -12 -6 -13 -6 13 -6 12 -6 0 -13 0 -13 -12 -4
-13 -5 17 -16 17 -17 10 0 11 0 0 -11 0 -10 14 -15 15 -14 6 0 6 0 15 -14 14
-15 0 -6 0 -6 14 -15 15 -14 10 0 11 0 0 -15 0 -15 10 0 10 0 0 11 0 10 14 15
15 14 10 0 11 0 0 10 0 11 25 24 24 25 11 0 10 0 0 11 0 10 14 15 15 14 10 0
11 0 0 10 0 10 -15 0 -15 0 0 15 0 15 15 0 15 0 0 10 0 10 -15 0 -15 0 0 15 0
15 11 0 10 0 17 17 17 16 -13 5 -12 4 0 10 0 11 23 20 22 20 -12 4 -13 5 0 14
0 14 -10 0 -10 0 0 -15 0 -15 -15 0 -15 0 0 15 0 15 -10 0 -10 0 0 -15 0 -15
-15 0 -15 0 0 11 0 10 -17 17 -16 17 -5 -13 -4 -12 -14 0 -14 0 0 -10 0 -11
-25 -24 -24 -25 -6 0 -6 0 -24 25 -25 24 0 10 0 9 13 5 12 4 -9 9 -9 9 -4 -12
-5 -13 -13 0 -13 0 -6 13 -6 12 -6 -12 -6 -13 -14 0 -14 0 0 10 0 10 -7 0 -8
-1 -12 -14z m27 -20 l0 -15 15 0 15 0 0 15 0 15 10 0 10 0 0 -15 0 -15 10 0
11 0 24 -25 25 -24 0 -11 0 -10 15 0 15 0 0 10 0 11 25 24 24 25 11 0 10 0 0
15 0 15 10 0 10 0 0 -11 0 -10 14 -15 15 -14 9 0 10 0 6 13 6 12 6 -12 6 -13
13 0 13 0 5 13 4 12 8 -7 7 -7 -15 -16 -16 -15 -10 0 -11 0 0 -15 0 -15 15 0
15 0 0 -10 0 -10 -11 0 -10 0 -15 -14 -14 -15 0 -9 0 -10 13 -6 12 -6 -12 -6
-13 -6 0 -13 0 -13 12 -4 13 -5 -17 -16 -17 -17 -10 0 -11 0 0 -10 0 -11 -25
-24 -24 -25 -11 0 -10 0 0 -11 0 -10 -17 -17 -16 -17 -5 13 -4 12 -14 0 -14 0
0 10 0 11 -25 24 -24 25 -11 0 -10 0 0 11 0 10 -14 15 -15 14 -10 0 -11 0 0
10 0 10 15 0 15 0 0 15 0 15 -15 0 -15 0 0 10 0 10 15 0 15 0 0 15 0 15 -11 0
-10 0 -17 17 -17 16 13 5 12 4 0 10 0 11 -22 20 -23 20 13 4 12 5 0 14 0 14
10 0 10 0 0 -15z"/>
<path d="M450 654 l0 -5 14 -15 15 -14 10 0 11 0 0 -15 0 -15 -15 0 -15 0 0
-10 0 -10 11 0 10 0 15 -14 14 -15 0 -9 0 -10 -12 -6 -13 -6 13 -6 12 -6 0
-13 0 -13 -12 -4 -13 -5 17 -16 17 -17 10 0 11 0 0 -10 0 -11 25 -24 24 -25
11 0 10 0 0 -15 0 -15 10 0 10 0 0 11 0 10 14 15 15 14 6 0 6 0 15 14 14 15 0
6 0 6 14 15 15 14 10 0 11 0 0 10 0 10 -15 0 -15 0 0 15 0 15 15 0 15 0 0 10
0 10 -15 0 -15 0 0 15 0 15 11 0 10 0 17 17 17 16 -13 5 -12 4 0 13 0 13 13 5
12 4 -9 9 -9 9 -4 -12 -5 -13 -10 0 -11 0 -20 23 -20 22 -4 -12 -5 -13 -10 0
-9 0 -15 -14 -14 -15 0 -6 0 -6 -14 -15 -15 -14 -6 0 -6 0 -15 14 -14 15 0 6
0 6 -14 15 -15 14 -9 0 -10 0 -6 13 -6 12 -6 -12 -6 -13 -14 0 -14 0 0 10 0
10 -10 0 -10 0 0 -6z m70 -24 l0 -10 15 0 15 0 0 -10 0 -11 25 -24 24 -25 6 0
6 0 24 25 25 24 0 11 0 10 14 0 14 0 4 12 5 13 16 -17 17 -17 0 -10 0 -11 15
0 15 0 0 -10 0 -10 -11 0 -10 0 -15 -14 -14 -15 0 -9 0 -10 13 -6 12 -6 -12
-6 -13 -6 0 -13 0 -13 13 -5 12 -4 -22 -20 -23 -20 0 -12 0 -11 -11 0 -12 0
-20 -22 -20 -23 -4 13 -5 12 -10 0 -9 0 -15 14 -14 15 0 6 0 6 -14 15 -15 14
-10 0 -11 0 0 10 0 10 15 0 15 0 0 15 0 15 -15 0 -15 0 0 10 0 10 15 0 15 0 0
15 0 15 -11 0 -10 0 -17 17 -17 16 13 5 12 4 0 14 0 14 -10 0 -10 0 0 10 0 10
10 0 10 0 0 -10z"/>
<path d="M690 605 l0 -15 -10 0 -11 0 -24 -25 -25 -24 0 -11 0 -10 -15 0 -15
0 0 10 0 11 -25 24 -24 25 -11 0 -10 0 0 -10 0 -10 11 0 10 0 15 -14 14 -15 0
-9 0 -10 -12 -6 -13 -6 13 -6 12 -6 0 -13 0 -13 -12 -5 -13 -4 23 -20 22 -20
0 -12 0 -11 14 0 14 0 4 -12 5 -13 16 17 17 17 0 10 0 11 11 0 10 0 17 17 17
16 -13 5 -12 4 0 13 0 13 13 6 12 6 -12 6 -13 6 0 10 0 11 23 20 22 20 -12 4
-13 5 0 14 0 14 -10 0 -10 0 0 -15z m20 -21 l0 -5 -14 -15 -15 -14 -10 0 -11
0 0 -15 0 -15 15 0 15 0 0 -10 0 -10 -15 0 -15 0 0 -15 0 -15 15 0 15 0 0 -10
0 -10 -11 0 -10 0 -15 -14 -14 -15 0 -10 0 -11 -10 0 -10 0 0 15 0 15 -11 0
-10 0 -17 17 -17 16 13 5 12 4 0 13 0 13 -12 5 -13 4 9 9 9 9 4 -12 5 -13 10
0 9 0 15 14 14 15 0 6 0 6 14 15 15 14 10 0 11 0 0 10 0 10 10 0 10 0 0 -6z"/>
<path d="M633 505 l-13 -14 0 -11 0 -10 -15 0 -15 0 0 -10 0 -10 14 0 14 0 4
-12 5 -13 19 19 19 19 -13 5 -12 4 0 14 0 14 10 0 10 0 0 10 0 10 -7 0 -8 -1
-12 -14z m7 -45 l0 -10 -10 0 -10 0 0 10 0 10 10 0 10 0 0 -10z"/>
<path d="M730 745 l0 -15 15 0 15 0 0 15 0 15 -15 0 -15 0 0 -15z"/>
<path d="M1140 155 l0 -15 -11 0 -10 0 -15 -14 -14 -15 0 -9 0 -10 -12 -5 -13
-5 15 -12 15 -12 -12 -5 -13 -5 0 -10 0 -9 17 -17 16 -17 5 13 4 12 14 0 14 0
0 15 0 15 -15 0 -15 0 0 -15 0 -15 -10 0 -10 0 0 11 0 10 14 15 15 14 9 0 10
0 6 -12 6 -13 6 13 6 12 10 0 9 0 15 -14 14 -15 0 -10 0 -11 -10 0 -10 0 0 15
0 15 -15 0 -15 0 0 -15 0 -15 14 0 14 0 4 -12 5 -13 16 17 17 17 0 9 0 10 -12
5 -13 5 15 12 15 12 -12 5 -13 5 0 10 0 9 -14 15 -15 14 -10 0 -11 0 0 15 0
15 -10 0 -10 0 0 -15z m20 -25 l0 -10 15 0 15 0 0 -14 0 -14 13 -5 12 -4 -9
-9 -9 -9 -4 13 -5 12 -13 0 -13 0 -6 -12 -6 -13 -6 13 -6 12 -13 0 -13 0 -5
-12 -4 -13 -9 9 -9 9 13 4 12 5 0 14 0 14 15 0 15 0 0 10 0 10 10 0 10 0 0
-10z"/>
<path d="M1140 105 l0 -15 10 0 10 0 0 15 0 15 -10 0 -10 0 0 -15z"/>
</g>
</svg>
