<?xml version="1.0" standalone="no"?>
<!DOCTYPE svg PUBLIC "-//W3C//DTD SVG 20010904//EN"
 "http://www.w3.org/TR/2001/REC-SVG-20010904/DTD/svg10.dtd">
<svg version="1.0" xmlns="http://www.w3.org/2000/svg"
 width="468pt" height="468pt" viewBox="0 0 468 468"
 preserveAspectRatio="xMidYMid meet">
<metadata>
Created by potrace 1.8, written by Peter Selinger 2001-2007
</metadata>
<g transform="translate(0,468) scale(0.365625,-0.365625)"
fill="#000000" stroke="none">
<path d="M0 1260 l0 -20 20 0 20 0 0 -20 0 -20 -20 0 -20 0 0 -260 0 -260 20
0 20 0 0 -20 0 -20 -20 0 -20 0 0 -300 0 -300 20 0 20 0 0 -20 0 -20 280 0
280 0 0 20 0 20 20 0 20 0 0 -20 0 -20 320 0 320 0 0 20 0 20 -20 0 -20 0 0
20 0 20 20 0 20 0 0 260 0 260 -20 0 -20 0 0 20 0 20 20 0 20 0 0 300 0 300
-20 0 -20 0 0 20 0 20 -280 0 -280 0 0 -20 0 -20 -20 0 -20 0 0 20 0 20 -320
0 -320 0 0 -20z m720 -40 l0 -20 20 0 20 0 0 -20 0 -20 20 0 20 0 0 -20 0 -20
-20 0 -20 0 0 20 0 20 -20 0 -20 0 0 20 0 20 -20 0 -20 0 0 20 0 20 20 0 20 0
0 -20z m400 0 l0 -20 -20 0 -20 0 0 20 0 20 20 0 20 0 0 -20z m80 0 l0 -20
-20 0 -20 0 0 20 0 20 20 0 20 0 0 -20z m-240 -40 l0 -20 -20 0 -20 0 0 20 0
20 20 0 20 0 0 -20z m80 0 l0 -20 -20 0 -20 0 0 20 0 20 20 0 20 0 0 -20z
m-960 -40 l0 -20 -20 0 -20 0 0 20 0 20 20 0 20 0 0 -20z m800 0 l0 -20 -20 0
-20 0 0 20 0 20 20 0 20 0 0 -20z m-800 -80 l0 -20 20 0 20 0 0 -20 0 -20 -20
0 -20 0 0 20 0 20 -20 0 -20 0 0 20 0 20 20 0 20 0 0 -20z m720 0 l0 -20 -20
0 -20 0 0 20 0 20 20 0 20 0 0 -20z m-40 -80 l0 -20 -20 0 -20 0 0 20 0 20 20
0 20 0 0 -20z m-640 -40 l0 -20 -20 0 -20 0 0 20 0 20 20 0 20 0 0 -20z m640
-40 l0 -20 -20 0 -20 0 0 20 0 20 20 0 20 0 0 -20z m-600 -40 l0 -20 -20 0
-20 0 0 20 0 20 20 0 20 0 0 -20z m560 -40 l0 -20 -20 0 -20 0 0 20 0 20 20 0
20 0 0 -20z m-560 -40 l0 -20 -20 0 -20 0 0 -20 0 -20 -20 0 -20 0 0 -20 0
-20 -20 0 -20 0 0 20 0 20 20 0 20 0 0 20 0 20 20 0 20 0 0 20 0 20 20 0 20 0
0 -20z m80 0 l0 -20 -20 0 -20 0 0 20 0 20 20 0 20 0 0 -20z m80 -40 l0 -20
-20 0 -20 0 0 20 0 20 20 0 20 0 0 -20z m80 0 l0 -20 -20 0 -20 0 0 20 0 20
20 0 20 0 0 -20z m320 0 l0 -20 -20 0 -20 0 0 -20 0 -20 -20 0 -20 0 0 -20 0
-20 20 0 20 0 0 -20 0 -20 -20 0 -20 0 0 -20 0 -20 -20 0 -20 0 0 -20 0 -20
-20 0 -20 0 0 20 0 20 20 0 20 0 0 20 0 20 20 0 20 0 0 20 0 20 -20 0 -20 0 0
20 0 20 20 0 20 0 0 20 0 20 20 0 20 0 0 20 0 20 20 0 20 0 0 -20z m-240 -40
l0 -20 -20 0 -20 0 0 20 0 20 20 0 20 0 0 -20z m80 0 l0 -20 -20 0 -20 0 0 20
0 20 20 0 20 0 0 -20z m200 -120 l0 -20 -20 0 -20 0 0 20 0 20 20 0 20 0 0
-20z m80 0 l0 -20 -20 0 -20 0 0 20 0 20 20 0 20 0 0 -20z m400 0 l0 -20 -20
0 -20 0 0 -20 0 -20 -20 0 -20 0 0 -20 0 -20 -20 0 -20 0 0 20 0 20 20 0 20 0
0 20 0 20 20 0 20 0 0 20 0 20 20 0 20 0 0 -20z m-320 -40 l0 -20 -20 0 -20 0
0 20 0 20 20 0 20 0 0 -20z m80 0 l0 -20 -20 0 -20 0 0 20 0 20 20 0 20 0 0
-20z m80 -40 l0 -20 -20 0 -20 0 0 20 0 20 20 0 20 0 0 -20z m-480 -40 l0 -20
-20 0 -20 0 0 20 0 20 20 0 20 0 0 -20z m560 -40 l0 -20 -20 0 -20 0 0 20 0
20 20 0 20 0 0 -20z m-600 -40 l0 -20 -20 0 -20 0 0 20 0 20 20 0 20 0 0 -20z
m640 -40 l0 -20 -20 0 -20 0 0 20 0 20 20 0 20 0 0 -20z m-640 -40 l0 -20 -20
0 -20 0 0 20 0 20 20 0 20 0 0 -20z m640 -40 l0 -20 20 0 20 0 0 -20 0 -20
-20 0 -20 0 0 20 0 20 -20 0 -20 0 0 20 0 20 20 0 20 0 0 -20z m-680 -40 l0
-20 -20 0 -20 0 0 20 0 20 20 0 20 0 0 -20z m-80 -80 l0 -20 -20 0 -20 0 0 20
0 20 20 0 20 0 0 -20z m80 0 l0 -20 20 0 20 0 0 -20 0 -20 20 0 20 0 0 -20 0
-20 -20 0 -20 0 0 20 0 20 -20 0 -20 0 0 20 0 20 -20 0 -20 0 0 20 0 20 20 0
20 0 0 -20z m720 0 l0 -20 -20 0 -20 0 0 20 0 20 20 0 20 0 0 -20z m-960 -40
l0 -20 -20 0 -20 0 0 20 0 20 20 0 20 0 0 -20z m80 0 l0 -20 -20 0 -20 0 0 20
0 20 20 0 20 0 0 -20z m-240 -40 l0 -20 -20 0 -20 0 0 20 0 20 20 0 20 0 0
-20z m80 0 l0 -20 -20 0 -20 0 0 20 0 20 20 0 20 0 0 -20z"/>
</g>
</svg>
