<?xml version="1.0" standalone="no"?>
<!DOCTYPE svg PUBLIC "-//W3C//DTD SVG 20010904//EN"
 "http://www.w3.org/TR/2001/REC-SVG-20010904/DTD/svg10.dtd">
<svg version="1.0" xmlns="http://www.w3.org/2000/svg"
 width="468pt" height="468pt" viewBox="0 0 468 468"
 preserveAspectRatio="xMidYMid meet">
<metadata>
Created by potrace 1.8, written by Peter Selinger 2001-2007
</metadata>
<g transform="translate(0,468) scale(0.365625,-0.365625)"
fill="#000000" stroke="none">
<path d="M210 960 l0 -320 430 0 430 0 0 -320 0 -320 105 0 105 0 0 320 0 320
-105 0 -105 0 0 105 0 105 -320 0 -320 0 0 110 0 110 425 0 425 0 0 105 0 105
-535 0 -535 0 0 -320z"/>
<path d="M210 105 l0 -105 215 0 215 0 0 105 0 105 -215 0 -215 0 0 -105z"/>
</g>
</svg>
