<?xml version="1.0" standalone="no"?>
<!DOCTYPE svg PUBLIC "-//W3C//DTD SVG 20010904//EN"
 "http://www.w3.org/TR/2001/REC-SVG-20010904/DTD/svg10.dtd">
<svg version="1.0" xmlns="http://www.w3.org/2000/svg"
 width="468pt" height="468pt" viewBox="0 0 468 468"
 preserveAspectRatio="xMidYMid meet">
<metadata>
Created by potrace 1.8, written by Peter Selinger 2001-2007
</metadata>
<g transform="translate(0,468) scale(0.365625,-0.365625)"
fill="#000000" stroke="none">
<path d="M30 1265 l0 -15 -15 0 -15 0 0 -10 0 -10 15 0 15 0 0 -15 0 -15 10 0
10 0 0 -15 0 -15 15 0 15 0 0 -10 0 -10 15 0 15 0 0 -510 0 -510 -15 0 -15 0
0 -10 0 -10 -15 0 -15 0 0 -15 0 -15 -10 0 -10 0 0 -15 0 -15 -15 0 -15 0 0
-10 0 -10 15 0 15 0 0 -15 0 -15 10 0 10 0 0 15 0 15 15 0 15 0 0 -15 0 -15
15 0 15 0 0 15 0 15 -15 0 -15 0 0 10 0 10 15 0 15 0 0 15 0 15 -15 0 -15 0 0
15 0 15 15 0 15 0 0 -15 0 -15 10 0 10 0 0 15 0 15 15 0 15 0 0 -15 0 -15 15
0 15 0 0 15 0 15 10 0 10 0 0 -15 0 -15 15 0 15 0 0 15 0 15 15 0 15 0 0 -15
0 -15 10 0 10 0 0 15 0 15 15 0 15 0 0 -15 0 -15 15 0 15 0 0 15 0 15 10 0 10
0 0 -15 0 -15 15 0 15 0 0 15 0 15 15 0 15 0 0 -15 0 -15 10 0 10 0 0 15 0 15
15 0 15 0 0 -15 0 -15 15 0 15 0 0 15 0 15 10 0 10 0 0 -15 0 -15 15 0 15 0 0
15 0 15 15 0 15 0 0 -15 0 -15 10 0 10 0 0 15 0 15 15 0 15 0 0 -15 0 -15 15
0 15 0 0 15 0 15 10 0 10 0 0 -15 0 -15 15 0 15 0 0 15 0 15 15 0 15 0 0 -15
0 -15 10 0 10 0 0 15 0 15 15 0 15 0 0 -15 0 -15 15 0 15 0 0 15 0 15 10 0 10
0 0 -15 0 -15 15 0 15 0 0 15 0 15 15 0 15 0 0 -15 0 -15 10 0 10 0 0 15 0 15
15 0 15 0 0 -15 0 -15 15 0 15 0 0 15 0 15 10 0 10 0 0 -15 0 -15 15 0 15 0 0
15 0 15 15 0 15 0 0 -15 0 -15 10 0 10 0 0 15 0 15 15 0 15 0 0 -15 0 -15 15
0 15 0 0 -11 0 -10 14 -15 15 -14 10 0 11 0 0 -15 0 -15 25 0 25 0 0 11 0 10
-14 15 -15 14 -10 0 -11 0 0 15 0 15 -15 0 -15 0 0 11 0 10 -14 15 -15 14
-505 0 -506 0 0 510 0 510 510 0 510 0 0 -506 0 -505 14 -15 15 -14 10 0 11 0
0 -15 0 -15 15 0 15 0 0 -11 0 -10 14 -15 15 -14 10 0 11 0 0 25 0 25 -15 0
-15 0 0 11 0 10 -14 15 -15 14 -10 0 -11 0 0 15 0 15 -15 0 -15 0 0 15 0 15
15 0 15 0 0 10 0 10 -15 0 -15 0 0 15 0 15 15 0 15 0 0 15 0 15 -15 0 -15 0 0
10 0 10 15 0 15 0 0 15 0 15 -15 0 -15 0 0 15 0 15 15 0 15 0 0 10 0 10 -15 0
-15 0 0 15 0 15 15 0 15 0 0 15 0 15 -15 0 -15 0 0 10 0 10 15 0 15 0 0 15 0
15 -15 0 -15 0 0 15 0 15 15 0 15 0 0 10 0 10 -15 0 -15 0 0 15 0 15 15 0 15
0 0 15 0 15 -15 0 -15 0 0 10 0 10 15 0 15 0 0 15 0 15 -15 0 -15 0 0 15 0 15
15 0 15 0 0 10 0 10 -15 0 -15 0 0 15 0 15 15 0 15 0 0 15 0 15 -15 0 -15 0 0
10 0 10 15 0 15 0 0 15 0 15 -15 0 -15 0 0 15 0 15 15 0 15 0 0 10 0 10 -15 0
-15 0 0 15 0 15 15 0 15 0 0 15 0 15 -15 0 -15 0 0 10 0 10 15 0 15 0 0 15 0
15 -15 0 -15 0 0 15 0 15 15 0 15 0 0 10 0 10 -15 0 -15 0 0 15 0 15 15 0 15
0 0 15 0 15 -15 0 -15 0 0 10 0 10 15 0 15 0 0 15 0 15 -15 0 -15 0 0 15 0 15
15 0 15 0 0 10 0 10 -15 0 -15 0 0 15 0 15 15 0 15 0 0 -15 0 -15 15 0 15 0 0
15 0 15 10 0 10 0 0 -15 0 -15 15 0 15 0 0 15 0 15 -15 0 -15 0 0 15 0 15 15
0 15 0 0 10 0 10 -15 0 -15 0 0 15 0 15 -10 0 -10 0 0 -15 0 -15 -15 0 -15 0
0 -10 0 -10 -15 0 -15 0 0 -15 0 -15 -10 0 -10 0 0 -15 0 -15 -510 0 -510 0 0
15 0 15 -10 0 -10 0 0 15 0 15 -15 0 -15 0 0 10 0 10 -15 0 -15 0 0 15 0 15
-10 0 -10 0 0 -15z m20 -25 l0 -10 15 0 15 0 0 -15 0 -15 15 0 15 0 0 -15 0
-15 -15 0 -15 0 0 15 0 15 -15 0 -15 0 0 15 0 15 -10 0 -10 0 0 10 0 10 10 0
10 0 0 -10z m1200 0 l0 -10 -10 0 -10 0 0 -15 0 -15 -15 0 -15 0 0 15 0 15 15
0 15 0 0 10 0 10 10 0 10 0 0 -10z m-1170 -1175 l0 -15 -14 0 -14 0 -5 -12 -4
-13 -9 9 -9 9 13 4 12 5 0 14 0 14 15 0 15 0 0 -15z"/>
<path d="M1230 1160 l0 -10 -15 0 -15 0 0 -15 0 -15 15 0 15 0 0 -15 0 -15
-15 0 -15 0 0 -10 0 -10 15 0 15 0 0 -15 0 -15 -15 0 -15 0 0 -15 0 -15 15 0
15 0 0 15 0 15 10 0 10 0 0 -15 0 -15 15 0 15 0 0 15 0 15 -15 0 -15 0 0 15 0
15 15 0 15 0 0 10 0 10 -15 0 -15 0 0 15 0 15 15 0 15 0 0 15 0 15 -15 0 -15
0 0 10 0 10 -10 0 -10 0 0 -10z m20 -25 l0 -15 -10 0 -10 0 0 15 0 15 10 0 10
0 0 -15z m0 -55 l0 -10 -10 0 -10 0 0 10 0 10 10 0 10 0 0 -10z"/>
<path d="M160 640 l0 -480 480 0 480 0 0 480 0 480 -480 0 -480 0 0 -480z m80
440 l0 -10 14 0 14 0 6 13 6 12 6 -12 6 -13 14 0 14 0 0 10 0 10 14 0 14 0 6
-12 6 -13 6 13 6 12 14 0 14 0 0 -10 0 -10 14 0 14 0 6 13 6 12 6 -12 6 -13
14 0 14 0 0 10 0 10 14 0 14 0 6 -12 6 -13 6 13 6 12 14 0 14 0 0 -10 0 -10
14 0 14 0 6 13 6 12 6 -12 6 -13 14 0 14 0 0 10 0 10 14 0 14 0 6 -12 6 -13 6
13 6 12 14 0 14 0 0 -10 0 -10 14 0 14 0 6 13 6 12 6 -12 6 -13 14 0 14 0 0
10 0 10 14 0 14 0 6 -12 6 -13 6 13 6 12 14 0 14 0 0 -10 0 -10 14 0 14 0 6
13 6 12 6 -12 6 -13 14 0 14 0 0 10 0 10 14 0 14 0 6 -12 6 -13 6 13 6 12 14
0 14 0 0 -10 0 -10 14 0 14 0 5 13 4 12 9 -9 9 -9 -12 -4 -13 -5 0 -14 0 -14
10 0 10 0 0 -14 0 -14 -12 -6 -13 -6 13 -6 12 -6 0 -14 0 -14 -10 0 -10 0 0
-14 0 -14 12 -6 13 -6 -12 -6 -13 -6 0 -14 0 -14 10 0 10 0 0 -14 0 -14 -12
-6 -13 -6 13 -6 12 -6 0 -14 0 -14 -10 0 -10 0 0 -14 0 -14 13 -6 12 -6 -13
-6 -12 -6 0 -14 0 -14 10 0 10 0 0 -14 0 -14 -13 -6 -12 -6 13 -6 12 -6 0 -14
0 -14 -10 0 -10 0 0 -14 0 -14 13 -6 12 -6 -12 -6 -13 -6 0 -14 0 -14 10 0 10
0 0 -14 0 -14 -12 -6 -13 -6 12 -6 13 -6 0 -14 0 -14 -10 0 -10 0 0 -14 0 -14
12 -6 13 -6 -12 -6 -13 -6 0 -14 0 -14 10 0 10 0 0 -14 0 -14 -12 -6 -13 -6
13 -6 12 -6 0 -14 0 -14 -10 0 -10 0 0 -14 0 -14 13 -6 12 -6 -12 -6 -13 -6 0
-14 0 -14 10 0 10 0 0 -11 0 -10 -14 -15 -15 -14 -10 0 -11 0 0 10 0 10 -14 0
-14 0 -6 -12 -6 -13 -6 13 -6 12 -14 0 -14 0 0 -10 0 -10 -14 0 -14 0 -6 13
-6 12 -6 -12 -6 -13 -14 0 -14 0 0 10 0 10 -14 0 -14 0 -6 -12 -6 -13 -6 13
-6 12 -14 0 -14 0 0 -10 0 -10 -14 0 -14 0 -6 13 -6 12 -6 -12 -6 -13 -14 0
-14 0 0 10 0 10 -14 0 -14 0 -6 -12 -6 -13 -6 13 -6 12 -14 0 -14 0 0 -10 0
-10 -14 0 -14 0 -6 13 -6 12 -6 -12 -6 -13 -14 0 -14 0 0 10 0 10 -14 0 -14 0
-6 -12 -6 -13 -6 13 -6 12 -14 0 -14 0 0 -10 0 -10 -14 0 -14 0 -6 13 -6 12
-6 -12 -6 -13 -14 0 -14 0 0 10 0 10 -14 0 -14 0 -6 -12 -6 -13 -6 13 -6 12
-14 0 -14 0 0 -10 0 -10 -14 0 -14 0 -6 13 -6 12 -6 -12 -6 -13 -14 0 -14 0 0
10 0 10 -14 0 -14 0 -5 -12 -4 -13 -9 9 -9 9 13 4 12 5 0 14 0 14 -10 0 -10 0
0 14 0 14 13 6 12 6 -12 6 -13 6 0 14 0 14 10 0 10 0 0 14 0 14 -12 6 -13 6
13 6 12 6 0 14 0 14 -10 0 -10 0 0 14 0 14 13 6 12 6 -12 6 -13 6 0 14 0 14
10 0 10 0 0 14 0 14 -12 6 -13 6 13 6 12 6 0 14 0 14 -10 0 -10 0 0 14 0 14
13 6 12 6 -12 6 -13 6 0 14 0 14 10 0 10 0 0 14 0 14 -12 6 -13 6 13 6 12 6 0
14 0 14 -10 0 -10 0 0 14 0 14 13 6 12 6 -12 6 -13 6 0 14 0 14 10 0 10 0 0
14 0 14 -12 6 -13 6 13 6 12 6 0 14 0 14 -10 0 -10 0 0 14 0 14 13 6 12 6 -12
6 -13 6 0 14 0 14 10 0 10 0 0 14 0 14 -12 6 -13 6 13 6 12 6 0 14 0 14 -10 0
-10 0 0 10 0 11 13 14 12 14 13 1 12 0 0 -10z"/>
<path d="M210 1055 l0 -15 15 0 15 0 0 -15 0 -15 -15 0 -15 0 0 -10 0 -10 15
0 15 0 0 -15 0 -15 -15 0 -15 0 0 -15 0 -15 15 0 15 0 0 -10 0 -10 -15 0 -15
0 0 -15 0 -15 15 0 15 0 0 -15 0 -15 -15 0 -15 0 0 -10 0 -10 15 0 15 0 0 -15
0 -15 -15 0 -15 0 0 -15 0 -15 15 0 15 0 0 -10 0 -10 -15 0 -15 0 0 -15 0 -15
15 0 15 0 0 -15 0 -15 -15 0 -15 0 0 -10 0 -10 15 0 15 0 0 -15 0 -15 -15 0
-15 0 0 -15 0 -15 15 0 15 0 0 -10 0 -10 -15 0 -15 0 0 -15 0 -15 15 0 15 0 0
-15 0 -15 -15 0 -15 0 0 -10 0 -10 15 0 15 0 0 -15 0 -15 -15 0 -15 0 0 -15 0
-15 15 0 15 0 0 -10 0 -10 -15 0 -15 0 0 -15 0 -15 15 0 15 0 0 -15 0 -15 -15
0 -15 0 0 -10 0 -10 15 0 15 0 0 -15 0 -15 -15 0 -15 0 0 -15 0 -15 15 0 15 0
0 -10 0 -10 -15 0 -15 0 0 -15 0 -15 15 0 15 0 0 -15 0 -15 15 0 15 0 0 15 0
15 10 0 10 0 0 -15 0 -15 15 0 15 0 0 15 0 15 15 0 15 0 0 -15 0 -15 10 0 10
0 0 15 0 15 15 0 15 0 0 -15 0 -15 15 0 15 0 0 15 0 15 10 0 10 0 0 -15 0 -15
15 0 15 0 0 15 0 15 15 0 15 0 0 -15 0 -15 10 0 10 0 0 15 0 15 15 0 15 0 0
-15 0 -15 15 0 15 0 0 15 0 15 10 0 10 0 0 -15 0 -15 15 0 15 0 0 15 0 15 15
0 15 0 0 -15 0 -15 10 0 10 0 0 15 0 15 15 0 15 0 0 -15 0 -15 15 0 15 0 0 15
0 15 10 0 10 0 0 -15 0 -15 15 0 15 0 0 15 0 15 15 0 15 0 0 -15 0 -15 10 0
10 0 0 15 0 15 15 0 15 0 0 -15 0 -15 15 0 15 0 0 15 0 15 10 0 10 0 0 -15 0
-15 15 0 15 0 0 15 0 15 15 0 15 0 0 -15 0 -15 10 0 10 0 0 15 0 15 15 0 15 0
0 -15 0 -15 15 0 15 0 0 15 0 15 -15 0 -15 0 0 15 0 15 15 0 15 0 0 10 0 10
-15 0 -15 0 0 15 0 15 15 0 15 0 0 15 0 15 -15 0 -15 0 0 10 0 10 15 0 15 0 0
15 0 15 -15 0 -15 0 0 15 0 15 15 0 15 0 0 10 0 10 -15 0 -15 0 0 15 0 15 15
0 15 0 0 15 0 15 -15 0 -15 0 0 10 0 10 15 0 15 0 0 15 0 15 -15 0 -15 0 0 15
0 15 15 0 15 0 0 10 0 10 -15 0 -15 0 0 15 0 15 15 0 15 0 0 15 0 15 -15 0
-15 0 0 10 0 10 15 0 15 0 0 15 0 15 -15 0 -15 0 0 15 0 15 15 0 15 0 0 10 0
10 -15 0 -15 0 0 15 0 15 15 0 15 0 0 15 0 15 -15 0 -15 0 0 10 0 10 15 0 15
0 0 15 0 15 -15 0 -15 0 0 15 0 15 15 0 15 0 0 10 0 10 -15 0 -15 0 0 15 0 15
15 0 15 0 0 15 0 15 -15 0 -15 0 0 10 0 10 15 0 15 0 0 15 0 15 -15 0 -15 0 0
15 0 15 -15 0 -15 0 0 -15 0 -15 -10 0 -10 0 0 15 0 15 -15 0 -15 0 0 -15 0
-15 -15 0 -15 0 0 15 0 15 -10 0 -10 0 0 -15 0 -15 -15 0 -15 0 0 15 0 15 -15
0 -15 0 0 -15 0 -15 -10 0 -10 0 0 15 0 15 -15 0 -15 0 0 -15 0 -15 -15 0 -15
0 0 15 0 15 -10 0 -10 0 0 -15 0 -15 -15 0 -15 0 0 15 0 15 -15 0 -15 0 0 -15
0 -15 -10 0 -10 0 0 15 0 15 -15 0 -15 0 0 -15 0 -15 -15 0 -15 0 0 15 0 15
-10 0 -10 0 0 -15 0 -15 -15 0 -15 0 0 15 0 15 -15 0 -15 0 0 -15 0 -15 -10 0
-10 0 0 15 0 15 -15 0 -15 0 0 -15 0 -15 -15 0 -15 0 0 15 0 15 -10 0 -10 0 0
-15 0 -15 -15 0 -15 0 0 15 0 15 -15 0 -15 0 0 -15 0 -15 -10 0 -10 0 0 15 0
15 -15 0 -15 0 0 -15 0 -15 -15 0 -15 0 0 15 0 15 -10 0 -10 0 0 -15 0 -15
-15 0 -15 0 0 15 0 15 -15 0 -15 0 0 -15z m80 -30 l0 -15 15 0 15 0 0 15 0 15
15 0 15 0 0 -15 0 -15 -15 0 -15 0 0 -10 0 -10 15 0 15 0 0 -15 0 -15 10 0 10
0 0 15 0 15 15 0 15 0 0 10 0 10 -15 0 -15 0 0 15 0 15 15 0 15 0 0 -15 0 -15
15 0 15 0 0 15 0 15 10 0 10 0 0 -15 0 -15 15 0 15 0 0 15 0 15 15 0 15 0 0
-15 0 -15 -15 0 -15 0 0 -10 0 -10 15 0 15 0 0 -15 0 -15 10 0 10 0 0 15 0 15
15 0 15 0 0 10 0 10 -15 0 -15 0 0 15 0 15 15 0 15 0 0 -15 0 -15 15 0 15 0 0
15 0 15 10 0 10 0 0 -15 0 -15 15 0 15 0 0 15 0 15 15 0 15 0 0 -15 0 -15 -15
0 -15 0 0 -10 0 -10 15 0 15 0 0 -15 0 -15 10 0 10 0 0 15 0 15 15 0 15 0 0
10 0 10 -15 0 -15 0 0 15 0 15 15 0 15 0 0 -15 0 -15 15 0 15 0 0 15 0 15 10
0 10 0 0 -15 0 -15 15 0 15 0 0 15 0 15 15 0 15 0 0 -15 0 -15 -15 0 -15 0 0
-10 0 -10 15 0 15 0 0 -15 0 -15 10 0 10 0 0 15 0 15 15 0 15 0 0 10 0 10 -15
0 -15 0 0 15 0 15 15 0 15 0 0 -15 0 -15 15 0 15 0 0 15 0 15 10 0 10 0 0 -15
0 -15 15 0 15 0 0 15 0 15 15 0 15 0 0 -15 0 -15 -15 0 -15 0 0 -10 0 -10 15
0 15 0 0 -15 0 -15 10 0 10 0 0 15 0 15 15 0 15 0 0 -15 0 -15 -15 0 -15 0 0
-15 0 -15 15 0 15 0 0 -10 0 -10 -15 0 -15 0 0 -15 0 -15 15 0 15 0 0 -15 0
-15 -15 0 -15 0 0 15 0 15 -10 0 -10 0 0 -15 0 -15 -15 0 -15 0 0 -10 0 -10
15 0 15 0 0 -15 0 -15 10 0 10 0 0 15 0 15 15 0 15 0 0 -15 0 -15 -15 0 -15 0
0 -15 0 -15 15 0 15 0 0 -10 0 -10 -15 0 -15 0 0 -15 0 -15 15 0 15 0 0 -15 0
-15 -15 0 -15 0 0 15 0 15 -10 0 -10 0 0 -15 0 -15 -15 0 -15 0 0 -10 0 -10
15 0 15 0 0 -15 0 -15 10 0 10 0 0 15 0 15 15 0 15 0 0 -15 0 -15 -15 0 -15 0
0 -15 0 -15 15 0 15 0 0 -10 0 -10 -15 0 -15 0 0 -15 0 -15 15 0 15 0 0 -15 0
-15 -15 0 -15 0 0 15 0 15 -10 0 -10 0 0 -15 0 -15 -15 0 -15 0 0 -10 0 -10
15 0 15 0 0 -15 0 -15 10 0 10 0 0 15 0 15 15 0 15 0 0 -15 0 -15 -15 0 -15 0
0 -15 0 -15 15 0 15 0 0 -10 0 -10 -15 0 -15 0 0 -15 0 -15 15 0 15 0 0 -15 0
-15 -15 0 -15 0 0 15 0 15 -10 0 -10 0 0 -15 0 -15 -15 0 -15 0 0 -10 0 -10
15 0 15 0 0 -15 0 -15 10 0 10 0 0 15 0 15 15 0 15 0 0 -15 0 -15 -15 0 -15 0
0 -15 0 -15 15 0 15 0 0 -10 0 -10 -15 0 -15 0 0 -15 0 -15 -10 0 -10 0 0 15
0 15 -15 0 -15 0 0 -15 0 -15 -15 0 -15 0 0 15 0 15 15 0 15 0 0 10 0 10 -15
0 -15 0 0 15 0 15 -10 0 -10 0 0 -15 0 -15 -15 0 -15 0 0 -10 0 -10 15 0 15 0
0 -15 0 -15 -15 0 -15 0 0 15 0 15 -15 0 -15 0 0 -15 0 -15 -10 0 -10 0 0 15
0 15 -15 0 -15 0 0 -15 0 -15 -15 0 -15 0 0 15 0 15 15 0 15 0 0 10 0 10 -15
0 -15 0 0 15 0 15 -10 0 -10 0 0 -15 0 -15 -15 0 -15 0 0 -10 0 -10 15 0 15 0
0 -15 0 -15 -15 0 -15 0 0 15 0 15 -15 0 -15 0 0 -15 0 -15 -10 0 -10 0 0 15
0 15 -15 0 -15 0 0 -15 0 -15 -15 0 -15 0 0 15 0 15 15 0 15 0 0 10 0 10 -15
0 -15 0 0 15 0 15 -10 0 -10 0 0 -15 0 -15 -15 0 -15 0 0 -10 0 -10 15 0 15 0
0 -15 0 -15 -15 0 -15 0 0 15 0 15 -15 0 -15 0 0 -15 0 -15 -10 0 -10 0 0 15
0 15 -15 0 -15 0 0 -15 0 -15 -15 0 -15 0 0 15 0 15 15 0 15 0 0 10 0 10 -15
0 -15 0 0 15 0 15 -10 0 -10 0 0 -15 0 -15 -15 0 -15 0 0 -10 0 -10 15 0 15 0
0 -15 0 -15 -15 0 -15 0 0 15 0 15 -15 0 -15 0 0 -15 0 -15 -10 0 -10 0 0 15
0 15 -15 0 -15 0 0 -15 0 -15 -15 0 -15 0 0 15 0 15 15 0 15 0 0 10 0 10 -15
0 -15 0 0 15 0 15 -10 0 -10 0 0 -15 0 -15 -15 0 -15 0 0 15 0 15 15 0 15 0 0
15 0 15 -15 0 -15 0 0 10 0 10 15 0 15 0 0 15 0 15 -15 0 -15 0 0 15 0 15 15
0 15 0 0 -15 0 -15 10 0 10 0 0 15 0 15 15 0 15 0 0 10 0 10 -15 0 -15 0 0 15
0 15 -10 0 -10 0 0 -15 0 -15 -15 0 -15 0 0 15 0 15 15 0 15 0 0 15 0 15 -15
0 -15 0 0 10 0 10 15 0 15 0 0 15 0 15 -15 0 -15 0 0 15 0 15 15 0 15 0 0 -15
0 -15 10 0 10 0 0 15 0 15 15 0 15 0 0 10 0 10 -15 0 -15 0 0 15 0 15 -10 0
-10 0 0 -15 0 -15 -15 0 -15 0 0 15 0 15 15 0 15 0 0 15 0 15 -15 0 -15 0 0
10 0 10 15 0 15 0 0 15 0 15 -15 0 -15 0 0 15 0 15 15 0 15 0 0 -15 0 -15 10
0 10 0 0 15 0 15 15 0 15 0 0 10 0 10 -15 0 -15 0 0 15 0 15 -10 0 -10 0 0
-15 0 -15 -15 0 -15 0 0 15 0 15 15 0 15 0 0 15 0 15 -15 0 -15 0 0 10 0 10
15 0 15 0 0 15 0 15 -15 0 -15 0 0 15 0 15 15 0 15 0 0 -15 0 -15 10 0 10 0 0
15 0 15 15 0 15 0 0 10 0 10 -15 0 -15 0 0 15 0 15 -10 0 -10 0 0 -15 0 -15
-15 0 -15 0 0 15 0 15 15 0 15 0 0 15 0 15 -15 0 -15 0 0 10 0 10 15 0 15 0 0
15 0 15 10 0 10 0 0 -15z m750 0 l0 -15 -14 0 -14 0 -5 -12 -4 -13 -9 9 -9 9
13 4 12 5 0 14 0 14 15 0 15 0 0 -15z m-670 -25 l0 -10 -10 0 -10 0 0 10 0 10
10 0 10 0 0 -10z m160 0 l0 -10 -10 0 -10 0 0 10 0 10 10 0 10 0 0 -10z m160
0 l0 -10 -10 0 -10 0 0 10 0 10 10 0 10 0 0 -10z m160 0 l0 -10 -10 0 -10 0 0
10 0 10 10 0 10 0 0 -10z m-560 -80 l0 -10 -10 0 -10 0 0 10 0 10 10 0 10 0 0
-10z m720 -80 l0 -10 -10 0 -10 0 0 10 0 10 10 0 10 0 0 -10z m-720 -80 l0
-10 -10 0 -10 0 0 10 0 10 10 0 10 0 0 -10z m720 -80 l0 -10 -10 0 -10 0 0 10
0 10 10 0 10 0 0 -10z m-720 -80 l0 -10 -10 0 -10 0 0 10 0 10 10 0 10 0 0
-10z m720 -80 l0 -10 -10 0 -10 0 0 10 0 10 10 0 10 0 0 -10z m-720 -80 l0
-10 -10 0 -10 0 0 10 0 10 10 0 10 0 0 -10z m720 -80 l0 -10 -10 0 -10 0 0 10
0 10 10 0 10 0 0 -10z m-720 -80 l0 -10 -10 0 -10 0 0 -15 0 -15 -15 0 -15 0
0 15 0 15 15 0 15 0 0 10 0 10 10 0 10 0 0 -10z m160 0 l0 -10 -10 0 -10 0 0
10 0 10 10 0 10 0 0 -10z m160 0 l0 -10 -10 0 -10 0 0 10 0 10 10 0 10 0 0
-10z m160 0 l0 -10 -10 0 -10 0 0 10 0 10 10 0 10 0 0 -10z m160 0 l0 -10 -10
0 -10 0 0 10 0 10 10 0 10 0 0 -10z"/>
<path d="M270 1000 l0 -10 10 0 10 0 0 -15 0 -15 15 0 15 0 0 -15 0 -15 15 0
15 0 0 15 0 15 -15 0 -15 0 0 15 0 15 -15 0 -15 0 0 10 0 10 -10 0 -10 0 0
-10z"/>
<path d="M430 1000 l0 -10 -15 0 -15 0 0 -15 0 -15 -15 0 -15 0 0 -11 0 -10
-14 -15 -15 -14 -10 0 -11 0 0 -15 0 -15 -15 0 -15 0 0 -14 0 -14 -12 -6 -13
-6 13 -6 12 -6 0 -14 0 -14 15 0 15 0 0 -15 0 -15 15 0 15 0 0 15 0 15 10 0
10 0 0 -15 0 -15 15 0 15 0 0 -10 0 -10 -15 0 -15 0 0 -15 0 -15 -10 0 -10 0
0 15 0 15 -15 0 -15 0 0 -15 0 -15 -15 0 -15 0 0 -14 0 -14 -12 -6 -13 -6 13
-6 12 -6 0 -14 0 -14 15 0 15 0 0 -15 0 -15 15 0 15 0 0 15 0 15 10 0 10 0 0
-15 0 -15 15 0 15 0 0 -10 0 -10 -15 0 -15 0 0 -15 0 -15 -10 0 -10 0 0 15 0
15 -15 0 -15 0 0 -15 0 -15 -15 0 -15 0 0 -14 0 -14 -12 -6 -13 -6 13 -6 12
-6 0 -14 0 -14 15 0 15 0 0 -15 0 -15 15 0 15 0 0 15 0 15 10 0 10 0 0 -15 0
-15 15 0 15 0 0 -10 0 -10 -15 0 -15 0 0 -15 0 -15 -10 0 -10 0 0 15 0 15 -15
0 -15 0 0 -15 0 -15 -15 0 -15 0 0 -14 0 -14 -12 -6 -13 -6 13 -6 12 -6 0 -14
0 -14 15 0 15 0 0 -15 0 -15 14 0 14 0 6 -12 6 -13 6 13 6 12 14 0 14 0 0 15
0 15 15 0 15 0 0 15 0 15 -15 0 -15 0 0 10 0 10 15 0 15 0 0 15 0 15 10 0 10
0 0 -15 0 -15 15 0 15 0 0 -10 0 -10 -15 0 -15 0 0 -15 0 -15 15 0 15 0 0 -15
0 -15 14 0 14 0 6 -12 6 -13 6 13 6 12 14 0 14 0 0 15 0 15 15 0 15 0 0 15 0
15 -15 0 -15 0 0 10 0 10 15 0 15 0 0 15 0 15 10 0 10 0 0 -15 0 -15 15 0 15
0 0 -10 0 -10 -15 0 -15 0 0 -15 0 -15 15 0 15 0 0 -15 0 -15 14 0 14 0 6 -12
6 -13 6 13 6 12 14 0 14 0 0 15 0 15 15 0 15 0 0 15 0 15 -15 0 -15 0 0 10 0
10 15 0 15 0 0 15 0 15 10 0 10 0 0 -15 0 -15 15 0 15 0 0 -10 0 -10 -15 0
-15 0 0 -15 0 -15 15 0 15 0 0 -15 0 -15 14 0 14 0 6 -12 6 -13 6 13 6 12 14
0 14 0 0 15 0 15 15 0 15 0 0 15 0 15 -15 0 -15 0 0 10 0 10 15 0 15 0 0 15 0
15 10 0 10 0 0 -15 0 -15 15 0 15 0 0 15 0 15 15 0 15 0 0 14 0 14 13 6 12 6
-12 6 -13 6 0 14 0 14 -15 0 -15 0 0 15 0 15 -15 0 -15 0 0 -15 0 -15 -10 0
-10 0 0 15 0 15 -15 0 -15 0 0 10 0 10 15 0 15 0 0 15 0 15 10 0 10 0 0 -15 0
-15 15 0 15 0 0 15 0 15 15 0 15 0 0 14 0 14 13 6 12 6 -12 6 -13 6 0 14 0 14
-15 0 -15 0 0 15 0 15 -15 0 -15 0 0 -15 0 -15 -10 0 -10 0 0 15 0 15 -15 0
-15 0 0 10 0 10 15 0 15 0 0 15 0 15 10 0 10 0 0 -15 0 -15 15 0 15 0 0 15 0
15 15 0 15 0 0 14 0 14 13 6 12 6 -12 6 -13 6 0 14 0 14 -15 0 -15 0 0 15 0
15 -15 0 -15 0 0 -15 0 -15 -10 0 -10 0 0 15 0 15 -15 0 -15 0 0 10 0 10 15 0
15 0 0 15 0 15 10 0 10 0 0 -15 0 -15 15 0 15 0 0 15 0 15 15 0 15 0 0 14 0
14 13 6 12 6 -12 6 -13 6 0 14 0 14 -15 0 -15 0 0 15 0 15 -14 0 -14 0 -6 13
-6 12 -6 -12 -6 -13 -14 0 -14 0 0 -15 0 -15 -15 0 -15 0 0 -15 0 -15 15 0 15
0 0 -10 0 -10 -15 0 -15 0 0 -15 0 -15 -10 0 -10 0 0 15 0 15 -15 0 -15 0 0
10 0 10 15 0 15 0 0 15 0 15 -15 0 -15 0 0 15 0 15 -14 0 -14 0 -6 13 -6 12
-6 -12 -6 -13 -14 0 -14 0 0 -15 0 -15 -15 0 -15 0 0 -15 0 -15 15 0 15 0 0
-10 0 -10 -15 0 -15 0 0 -15 0 -15 -10 0 -10 0 0 15 0 15 -15 0 -15 0 0 10 0
10 15 0 15 0 0 15 0 15 -15 0 -15 0 0 15 0 15 -14 0 -14 0 -6 13 -6 12 -6 -12
-6 -13 -14 0 -14 0 0 -15 0 -15 -15 0 -15 0 0 -15 0 -15 15 0 15 0 0 -10 0
-10 -15 0 -15 0 0 -15 0 -15 -10 0 -10 0 0 15 0 15 -15 0 -15 0 0 10 0 10 15
0 15 0 0 15 0 15 -15 0 -15 0 0 15 0 15 -15 0 -15 0 0 10 0 10 -10 0 -10 0 0
-10z m20 -25 l0 -15 15 0 15 0 0 -15 0 -15 -15 0 -15 0 0 15 0 15 -10 0 -10 0
0 -15 0 -15 -15 0 -15 0 0 -10 0 -10 15 0 15 0 0 -15 0 -15 10 0 10 0 0 15 0
15 15 0 15 0 0 -15 0 -15 15 0 15 0 0 -15 0 -15 -15 0 -15 0 0 -10 0 -10 15 0
15 0 0 -15 0 -15 10 0 10 0 0 15 0 15 15 0 15 0 0 10 0 10 -15 0 -15 0 0 15 0
15 15 0 15 0 0 15 0 15 15 0 15 0 0 -15 0 -15 10 0 10 0 0 15 0 15 15 0 15 0
0 -15 0 -15 15 0 15 0 0 -15 0 -15 -15 0 -15 0 0 -10 0 -10 15 0 15 0 0 -15 0
-15 10 0 10 0 0 15 0 15 15 0 15 0 0 10 0 10 -15 0 -15 0 0 15 0 15 15 0 15 0
0 15 0 15 15 0 15 0 0 -15 0 -15 10 0 10 0 0 15 0 15 15 0 15 0 0 -15 0 -15
15 0 15 0 0 -15 0 -15 -15 0 -15 0 0 -10 0 -10 15 0 15 0 0 -15 0 -15 10 0 10
0 0 15 0 15 15 0 15 0 0 -15 0 -15 15 0 15 0 0 -15 0 -15 -15 0 -15 0 0 -10 0
-10 15 0 15 0 0 -15 0 -15 -15 0 -15 0 0 -15 0 -15 -15 0 -15 0 0 15 0 15 -10
0 -10 0 0 -15 0 -15 -15 0 -15 0 0 -10 0 -10 15 0 15 0 0 -15 0 -15 10 0 10 0
0 15 0 15 15 0 15 0 0 -15 0 -15 15 0 15 0 0 -15 0 -15 -15 0 -15 0 0 -10 0
-10 15 0 15 0 0 -15 0 -15 -15 0 -15 0 0 -15 0 -15 -15 0 -15 0 0 15 0 15 -10
0 -10 0 0 -15 0 -15 -15 0 -15 0 0 -10 0 -10 15 0 15 0 0 -15 0 -15 10 0 10 0
0 15 0 15 15 0 15 0 0 -15 0 -15 15 0 15 0 0 -15 0 -15 -15 0 -15 0 0 -10 0
-10 15 0 15 0 0 -15 0 -15 -15 0 -15 0 0 -15 0 -15 -15 0 -15 0 0 15 0 15 -10
0 -10 0 0 -15 0 -15 -15 0 -15 0 0 15 0 15 -15 0 -15 0 0 15 0 15 15 0 15 0 0
10 0 10 -15 0 -15 0 0 15 0 15 -10 0 -10 0 0 -15 0 -15 -15 0 -15 0 0 -10 0
-10 15 0 15 0 0 -15 0 -15 -15 0 -15 0 0 -15 0 -15 -15 0 -15 0 0 15 0 15 -10
0 -10 0 0 -15 0 -15 -15 0 -15 0 0 15 0 15 -15 0 -15 0 0 15 0 15 15 0 15 0 0
10 0 10 -15 0 -15 0 0 15 0 15 -10 0 -10 0 0 -15 0 -15 -15 0 -15 0 0 -10 0
-10 15 0 15 0 0 -15 0 -15 -15 0 -15 0 0 -15 0 -15 -15 0 -15 0 0 15 0 15 -10
0 -10 0 0 -15 0 -15 -15 0 -15 0 0 15 0 15 -15 0 -15 0 0 15 0 15 15 0 15 0 0
10 0 10 -15 0 -15 0 0 15 0 15 -10 0 -10 0 0 -15 0 -15 -15 0 -15 0 0 15 0 15
-15 0 -15 0 0 15 0 15 15 0 15 0 0 10 0 10 -15 0 -15 0 0 15 0 15 15 0 15 0 0
15 0 15 15 0 15 0 0 -15 0 -15 10 0 10 0 0 15 0 15 15 0 15 0 0 10 0 10 -15 0
-15 0 0 15 0 15 -10 0 -10 0 0 -15 0 -15 -15 0 -15 0 0 15 0 15 -15 0 -15 0 0
15 0 15 15 0 15 0 0 10 0 10 -15 0 -15 0 0 15 0 15 15 0 15 0 0 15 0 15 15 0
15 0 0 -15 0 -15 10 0 10 0 0 15 0 15 15 0 15 0 0 10 0 10 -15 0 -15 0 0 15 0
15 -10 0 -10 0 0 -15 0 -15 -15 0 -15 0 0 15 0 15 -15 0 -15 0 0 15 0 15 15 0
15 0 0 10 0 10 -15 0 -15 0 0 15 0 15 -10 0 -10 0 0 -15 0 -15 -15 0 -15 0 0
-10 0 -10 15 0 15 0 0 -15 0 -15 -15 0 -15 0 0 15 0 15 -15 0 -15 0 0 10 0 10
15 0 15 0 0 15 0 15 15 0 15 0 0 11 0 10 14 15 15 14 10 0 11 0 0 15 0 15 15
0 15 0 0 15 0 15 10 0 10 0 0 -15z m160 0 l0 -15 15 0 15 0 0 -15 0 -15 -14 0
-14 0 -6 -12 -6 -13 -6 13 -6 12 -14 0 -14 0 0 15 0 15 15 0 15 0 0 15 0 15
10 0 10 0 0 -15z m160 0 l0 -15 15 0 15 0 0 -15 0 -15 -14 0 -14 0 -6 -12 -6
-13 -6 13 -6 12 -14 0 -14 0 0 15 0 15 15 0 15 0 0 15 0 15 10 0 10 0 0 -15z
m160 0 l0 -15 15 0 15 0 0 -15 0 -15 15 0 15 0 0 -10 0 -10 -15 0 -15 0 0 -15
0 -15 -15 0 -15 0 0 15 0 15 15 0 15 0 0 10 0 10 -15 0 -15 0 0 15 0 15 -10 0
-10 0 0 -15 0 -15 -15 0 -15 0 0 15 0 15 15 0 15 0 0 15 0 15 10 0 10 0 0 -15z
m-480 -55 l0 -10 -10 0 -10 0 0 10 0 10 10 0 10 0 0 -10z m480 0 l0 -10 -10 0
-10 0 0 -15 0 -15 -15 0 -15 0 0 -15 0 -15 -14 0 -14 0 -5 -12 -4 -13 -9 9 -9
9 13 4 12 5 0 14 0 14 15 0 15 0 0 15 0 15 15 0 15 0 0 10 0 10 10 0 10 0 0
-10z m-560 -80 l0 -10 -10 0 -10 0 0 10 0 10 10 0 10 0 0 -10z m160 0 l0 -10
-10 0 -10 0 0 10 0 10 10 0 10 0 0 -10z m160 0 l0 -10 -10 0 -10 0 0 10 0 10
10 0 10 0 0 -10z m270 -55 l0 -15 15 0 15 0 0 -10 0 -10 -15 0 -15 0 0 -15 0
-15 -15 0 -15 0 0 14 0 14 -12 6 -13 6 13 6 12 6 0 14 0 14 15 0 15 0 0 -15z
m-510 -25 l0 -10 -10 0 -10 0 0 10 0 10 10 0 10 0 0 -10z m-100 -54 l0 -14 13
-6 12 -6 -12 -6 -13 -6 0 -14 0 -14 -15 0 -15 0 0 15 0 15 -15 0 -15 0 0 10 0
10 15 0 15 0 0 15 0 15 15 0 15 0 0 -14z m500 -26 l0 -10 -10 0 -10 0 0 10 0
10 10 0 10 0 0 -10z m110 -55 l0 -15 15 0 15 0 0 -10 0 -10 -15 0 -15 0 0 -15
0 -15 -15 0 -15 0 0 14 0 14 -12 6 -13 6 13 6 12 6 0 14 0 14 15 0 15 0 0 -15z
m-510 -25 l0 -10 -10 0 -10 0 0 10 0 10 10 0 10 0 0 -10z m-100 -54 l0 -14 13
-6 12 -6 -12 -6 -13 -6 0 -14 0 -14 -15 0 -15 0 0 15 0 15 -15 0 -15 0 0 10 0
10 15 0 15 0 0 15 0 15 15 0 15 0 0 -14z m500 -26 l0 -10 -10 0 -10 0 0 10 0
10 10 0 10 0 0 -10z m110 -55 l0 -15 15 0 15 0 0 -10 0 -10 -15 0 -15 0 0 -15
0 -15 -15 0 -15 0 0 14 0 14 -12 6 -13 6 13 6 12 6 0 14 0 14 15 0 15 0 0 -15z
m-510 -25 l0 -10 -10 0 -10 0 0 -15 0 -15 -15 0 -15 0 0 -15 0 -15 -15 0 -15
0 0 15 0 15 15 0 15 0 0 15 0 15 15 0 15 0 0 10 0 10 10 0 10 0 0 -10z m160 0
l0 -10 -10 0 -10 0 0 10 0 10 10 0 10 0 0 -10z m160 0 l0 -10 -10 0 -10 0 0
10 0 10 10 0 10 0 0 -10z m-420 -51 l0 -10 14 -15 15 -14 10 0 11 0 0 -15 0
-15 -15 0 -15 0 0 -15 0 -15 -10 0 -10 0 0 15 0 15 -15 0 -15 0 0 15 0 15 -15
0 -15 0 0 10 0 10 15 0 15 0 0 15 0 15 15 0 15 0 0 -11z m180 -29 l0 -10 15 0
15 0 0 -15 0 -15 -15 0 -15 0 0 -15 0 -15 -10 0 -10 0 0 15 0 15 -15 0 -15 0
0 15 0 15 15 0 15 0 0 10 0 10 10 0 10 0 0 -10z m160 0 l0 -10 15 0 15 0 0
-15 0 -15 -15 0 -15 0 0 -15 0 -15 -10 0 -10 0 0 15 0 15 -15 0 -15 0 0 15 0
15 15 0 15 0 0 10 0 10 10 0 10 0 0 -10z m160 0 l0 -10 15 0 15 0 0 -15 0 -15
-15 0 -15 0 0 -15 0 -15 -10 0 -10 0 0 15 0 15 -15 0 -15 0 0 15 0 15 15 0 15
0 0 10 0 10 10 0 10 0 0 -10z"/>
<path d="M370 895 l0 -15 15 0 15 0 0 -15 0 -15 15 0 15 0 0 15 0 15 -15 0
-15 0 0 15 0 15 -15 0 -15 0 0 -15z"/>
<path d="M450 869 l0 -10 -14 -15 -15 -14 -10 0 -11 0 0 -15 0 -15 15 0 15 0
0 11 0 10 14 15 15 14 10 0 11 0 0 15 0 15 -15 0 -15 0 0 -11z"/>
<path d="M560 865 l0 -15 15 0 15 0 0 15 0 15 -15 0 -15 0 0 -15z"/>
<path d="M610 869 l0 -10 -14 -15 -15 -14 -10 0 -11 0 0 -15 0 -15 -15 0 -15
0 0 -15 0 -15 15 0 15 0 0 -10 0 -10 -15 0 -15 0 0 -15 0 -15 -10 0 -10 0 0
15 0 15 -15 0 -15 0 0 -15 0 -15 -15 0 -15 0 0 -15 0 -15 15 0 15 0 0 -10 0
-10 -15 0 -15 0 0 -15 0 -15 15 0 15 0 0 -15 0 -15 15 0 15 0 0 15 0 15 10 0
10 0 0 -15 0 -15 15 0 15 0 0 -10 0 -10 -15 0 -15 0 0 -15 0 -15 -10 0 -10 0
0 15 0 15 -15 0 -15 0 0 -15 0 -15 -15 0 -15 0 0 -15 0 -15 15 0 15 0 0 -10 0
-10 -15 0 -15 0 0 -15 0 -15 15 0 15 0 0 -15 0 -15 15 0 15 0 0 15 0 15 10 0
10 0 0 -15 0 -15 15 0 15 0 0 15 0 15 15 0 15 0 0 15 0 15 -15 0 -15 0 0 10 0
10 15 0 15 0 0 15 0 15 10 0 10 0 0 -15 0 -15 15 0 15 0 0 -10 0 -10 -15 0
-15 0 0 -15 0 -15 15 0 15 0 0 -15 0 -15 15 0 15 0 0 15 0 15 10 0 10 0 0 -15
0 -15 15 0 15 0 0 15 0 15 15 0 15 0 0 15 0 15 -15 0 -15 0 0 10 0 10 15 0 15
0 0 15 0 15 10 0 10 0 0 -15 0 -15 15 0 15 0 0 15 0 15 15 0 15 0 0 15 0 15
-15 0 -15 0 0 10 0 10 15 0 15 0 0 15 0 15 -15 0 -15 0 0 15 0 15 -15 0 -15 0
0 -15 0 -15 -10 0 -10 0 0 15 0 15 -15 0 -15 0 0 10 0 10 15 0 15 0 0 15 0 15
10 0 10 0 0 -15 0 -15 15 0 15 0 0 15 0 15 15 0 15 0 0 15 0 15 -15 0 -15 0 0
10 0 10 15 0 15 0 0 15 0 15 -15 0 -15 0 0 15 0 15 -15 0 -15 0 0 -15 0 -15
-10 0 -10 0 0 15 0 15 -15 0 -15 0 0 -15 0 -15 -15 0 -15 0 0 -15 0 -15 15 0
15 0 0 -10 0 -10 -15 0 -15 0 0 -15 0 -15 -10 0 -10 0 0 15 0 15 -15 0 -15 0
0 10 0 10 15 0 15 0 0 15 0 15 -15 0 -15 0 0 15 0 15 -15 0 -15 0 0 -15 0 -15
-10 0 -10 0 0 11 0 10 14 15 15 14 10 0 11 0 0 15 0 15 -15 0 -15 0 0 -11z
m-20 -84 l0 -15 -15 0 -15 0 0 15 0 15 15 0 15 0 0 -15z m50 0 l0 -15 -11 0
-10 0 -15 -14 -14 -15 0 -10 0 -11 10 0 10 0 0 15 0 15 15 0 15 0 0 -15 0 -15
15 0 15 0 0 -15 0 -15 -15 0 -15 0 0 -10 0 -10 15 0 15 0 0 -15 0 -15 10 0 10
0 0 15 0 15 15 0 15 0 0 -15 0 -15 15 0 15 0 0 -15 0 -15 -15 0 -15 0 0 -10 0
-10 15 0 15 0 0 -15 0 -15 -15 0 -15 0 0 -15 0 -15 -15 0 -15 0 0 15 0 15 -10
0 -10 0 0 -15 0 -15 -15 0 -15 0 0 15 0 15 -15 0 -15 0 0 15 0 15 15 0 15 0 0
10 0 10 -15 0 -15 0 0 15 0 15 -10 0 -10 0 0 -15 0 -15 -15 0 -15 0 0 15 0 15
-15 0 -15 0 0 15 0 15 15 0 15 0 0 10 0 10 -15 0 -15 0 0 15 0 15 15 0 15 0 0
15 0 15 11 0 10 0 15 14 14 15 0 10 0 11 15 0 15 0 0 -15z m110 0 l0 -15 -15
0 -15 0 0 15 0 15 15 0 15 0 0 -15z m50 0 l0 -15 -11 0 -10 0 -15 -14 -14 -15
0 -10 0 -11 -15 0 -15 0 0 -15 0 -15 -14 0 -14 0 -5 -12 -4 -13 -9 9 -9 9 13
4 12 5 0 14 0 14 15 0 15 0 0 15 0 15 11 0 10 0 15 14 14 15 0 10 0 11 15 0
15 0 0 -15z m0 -50 l0 -15 -15 0 -15 0 0 15 0 15 15 0 15 0 0 -15z m-290 -29
l0 -14 13 -6 12 -6 -12 -6 -13 -6 0 -14 0 -14 -15 0 -15 0 0 15 0 15 15 0 15
0 0 10 0 10 -15 0 -15 0 0 15 0 15 15 0 15 0 0 -14z m290 -81 l0 -15 -15 0
-15 0 0 -10 0 -10 15 0 15 0 0 -15 0 -15 -15 0 -15 0 0 14 0 14 -12 6 -13 6
13 6 12 6 0 14 0 14 15 0 15 0 0 -15z m-190 -25 l0 -10 -10 0 -10 0 0 -15 0
-15 -15 0 -15 0 0 -15 0 -15 -15 0 -15 0 0 15 0 15 15 0 15 0 0 15 0 15 15 0
15 0 0 10 0 10 10 0 10 0 0 -10z m-100 -51 l0 -10 14 -15 15 -14 10 0 11 0 0
-15 0 -15 -15 0 -15 0 0 11 0 10 -14 15 -15 14 -10 0 -11 0 0 15 0 15 15 0 15
0 0 -11z m180 -29 l0 -10 15 0 15 0 0 -15 0 -15 -15 0 -15 0 0 15 0 15 -10 0
-10 0 0 -15 0 -15 -15 0 -15 0 0 15 0 15 15 0 15 0 0 10 0 10 10 0 10 0 0 -10z
m-180 -25 l0 -15 -15 0 -15 0 0 15 0 15 15 0 15 0 0 -15z"/>
<path d="M560 705 l0 -15 15 0 15 0 0 15 0 15 -15 0 -15 0 0 -15z"/>
<path d="M610 709 l0 -10 -14 -15 -15 -14 -10 0 -11 0 0 -15 0 -15 15 0 15 0
0 11 0 10 14 15 15 14 10 0 11 0 0 15 0 15 -15 0 -15 0 0 -11z"/>
<path d="M610 655 l0 -15 15 0 15 0 0 -15 0 -15 15 0 15 0 0 15 0 15 -15 0
-15 0 0 15 0 15 -15 0 -15 0 0 -15z"/>
<path d="M690 629 l0 -10 -14 -15 -15 -14 -10 0 -11 0 0 -15 0 -15 15 0 15 0
0 11 0 10 14 15 15 14 10 0 11 0 0 15 0 15 -15 0 -15 0 0 -11z"/>
<path d="M690 575 l0 -15 15 0 15 0 0 15 0 15 -15 0 -15 0 0 -15z"/>
<path d="M720 865 l0 -15 14 0 14 0 6 -12 6 -13 6 13 6 12 14 0 14 0 0 15 0
15 -15 0 -15 0 0 -15 0 -15 -10 0 -10 0 0 15 0 15 -15 0 -15 0 0 -15z"/>
<path d="M450 815 l0 -15 15 0 15 0 0 -15 0 -15 14 0 14 0 5 -12 4 -13 9 9 9
9 -12 4 -13 5 0 14 0 14 -15 0 -15 0 0 15 0 15 -15 0 -15 0 0 -15z"/>
<path d="M850 786 l0 -14 -12 -6 -13 -6 13 -6 12 -6 0 -14 0 -14 15 0 15 0 0
15 0 15 -15 0 -15 0 0 10 0 10 15 0 15 0 0 15 0 15 -15 0 -15 0 0 -14z"/>
<path d="M670 760 l0 -10 10 0 10 0 0 10 0 10 -10 0 -10 0 0 -10z"/>
<path d="M400 705 l0 -15 15 0 15 0 0 -10 0 -10 -15 0 -15 0 0 -15 0 -15 15 0
15 0 0 14 0 14 13 6 12 6 -12 6 -13 6 0 14 0 14 -15 0 -15 0 0 -15z"/>
<path d="M750 680 l0 -10 10 0 10 0 0 10 0 10 -10 0 -10 0 0 -10z"/>
<path d="M850 626 l0 -14 -12 -6 -13 -6 13 -6 12 -6 0 -14 0 -14 15 0 15 0 0
15 0 15 -15 0 -15 0 0 10 0 10 15 0 15 0 0 15 0 15 -15 0 -15 0 0 -14z"/>
<path d="M510 600 l0 -10 10 0 10 0 0 10 0 10 -10 0 -10 0 0 -10z"/>
<path d="M400 545 l0 -15 15 0 15 0 0 -10 0 -10 -15 0 -15 0 0 -15 0 -15 15 0
15 0 0 14 0 14 13 6 12 6 -12 6 -13 6 0 14 0 14 -15 0 -15 0 0 -15z"/>
<path d="M590 520 l0 -10 10 0 10 0 0 10 0 10 -10 0 -10 0 0 -10z"/>
<path d="M750 520 l0 -10 10 0 10 0 0 -15 0 -15 15 0 15 0 0 -15 0 -15 15 0
15 0 0 15 0 15 -15 0 -15 0 0 15 0 15 -15 0 -15 0 0 10 0 10 -10 0 -10 0 0
-10z"/>
<path d="M850 469 l0 -10 -14 -15 -15 -14 -10 0 -11 0 0 -15 0 -15 15 0 15 0
0 11 0 10 14 15 15 14 10 0 11 0 0 15 0 15 -15 0 -15 0 0 -11z"/>
<path d="M510 440 l0 -10 -15 0 -15 0 0 -15 0 -15 15 0 15 0 0 15 0 15 10 0
10 0 0 -15 0 -15 15 0 15 0 0 15 0 15 -15 0 -15 0 0 10 0 10 -10 0 -10 0 0
-10z"/>
<path d="M670 440 l0 -10 -15 0 -15 0 0 -15 0 -15 15 0 15 0 0 15 0 15 10 0
10 0 0 -15 0 -15 15 0 15 0 0 15 0 15 -15 0 -15 0 0 10 0 10 -10 0 -10 0 0
-10z"/>
<path d="M850 415 l0 -15 15 0 15 0 0 15 0 15 -15 0 -15 0 0 -15z"/>
<path d="M590 945 l0 -15 10 0 10 0 0 15 0 15 -10 0 -10 0 0 -15z"/>
<path d="M750 945 l0 -15 10 0 10 0 0 15 0 15 -10 0 -10 0 0 -15z"/>
<path d="M930 760 l0 -10 15 0 15 0 0 10 0 10 -15 0 -15 0 0 -10z"/>
<path d="M320 680 l0 -10 15 0 15 0 0 10 0 10 -15 0 -15 0 0 -10z"/>
<path d="M930 600 l0 -10 15 0 15 0 0 10 0 10 -15 0 -15 0 0 -10z"/>
<path d="M320 520 l0 -10 15 0 15 0 0 10 0 10 -15 0 -15 0 0 -10z"/>
<path d="M930 440 l0 -10 15 0 15 0 0 10 0 10 -15 0 -15 0 0 -10z"/>
<path d="M320 360 l0 -10 15 0 15 0 0 -15 0 -15 10 0 10 0 0 11 0 10 -14 15
-15 14 -10 0 -11 0 0 -10z"/>
<path d="M510 335 l0 -15 10 0 10 0 0 15 0 15 -10 0 -10 0 0 -15z"/>
<path d="M670 335 l0 -15 10 0 10 0 0 15 0 15 -10 0 -10 0 0 -15z"/>
<path d="M830 335 l0 -15 10 0 10 0 0 15 0 15 -10 0 -10 0 0 -15z"/>
<path d="M510 920 l0 -10 10 0 10 0 0 10 0 10 -10 0 -10 0 0 -10z"/>
<path d="M670 920 l0 -10 10 0 10 0 0 10 0 10 -10 0 -10 0 0 -10z"/>
<path d="M830 920 l0 -10 10 0 10 0 0 10 0 10 -10 0 -10 0 0 -10z"/>
<path d="M910 840 l0 -10 10 0 10 0 0 10 0 10 -10 0 -10 0 0 -10z"/>
<path d="M350 760 l0 -10 10 0 10 0 0 10 0 10 -10 0 -10 0 0 -10z"/>
<path d="M910 680 l0 -10 10 0 10 0 0 10 0 10 -10 0 -10 0 0 -10z"/>
<path d="M350 600 l0 -10 10 0 10 0 0 10 0 10 -10 0 -10 0 0 -10z"/>
<path d="M910 520 l0 -10 10 0 10 0 0 10 0 10 -10 0 -10 0 0 -10z"/>
<path d="M350 440 l0 -10 10 0 10 0 0 10 0 10 -10 0 -10 0 0 -10z"/>
<path d="M430 360 l0 -10 10 0 10 0 0 10 0 10 -10 0 -10 0 0 -10z"/>
<path d="M590 360 l0 -10 10 0 10 0 0 10 0 10 -10 0 -10 0 0 -10z"/>
<path d="M750 360 l0 -10 10 0 10 0 0 10 0 10 -10 0 -10 0 0 -10z"/>
<path d="M910 360 l0 -10 10 0 10 0 0 -15 0 -15 15 0 15 0 0 -15 0 -15 14 0
14 0 5 -12 4 -13 9 9 9 9 -12 4 -13 5 0 14 0 14 -15 0 -15 0 0 15 0 15 -15 0
-15 0 0 10 0 10 -10 0 -10 0 0 -10z"/>
<path d="M1230 1000 l0 -10 -15 0 -15 0 0 -15 0 -15 15 0 15 0 0 -15 0 -15
-15 0 -15 0 0 -10 0 -10 15 0 15 0 0 -15 0 -15 -15 0 -15 0 0 -15 0 -15 15 0
15 0 0 15 0 15 10 0 10 0 0 -15 0 -15 15 0 15 0 0 15 0 15 -15 0 -15 0 0 15 0
15 15 0 15 0 0 10 0 10 -15 0 -15 0 0 15 0 15 15 0 15 0 0 15 0 15 -15 0 -15
0 0 10 0 10 -10 0 -10 0 0 -10z m20 -25 l0 -15 -10 0 -10 0 0 15 0 15 10 0 10
0 0 -15z m0 -55 l0 -10 -10 0 -10 0 0 10 0 10 10 0 10 0 0 -10z"/>
<path d="M1230 840 l0 -10 -15 0 -15 0 0 -15 0 -15 15 0 15 0 0 -15 0 -15 -15
0 -15 0 0 -10 0 -10 15 0 15 0 0 -15 0 -15 -15 0 -15 0 0 -15 0 -15 15 0 15 0
0 15 0 15 10 0 10 0 0 -15 0 -15 15 0 15 0 0 15 0 15 -15 0 -15 0 0 15 0 15
15 0 15 0 0 10 0 10 -15 0 -15 0 0 15 0 15 15 0 15 0 0 15 0 15 -15 0 -15 0 0
10 0 10 -10 0 -10 0 0 -10z m20 -25 l0 -15 -10 0 -10 0 0 15 0 15 10 0 10 0 0
-15z m0 -55 l0 -10 -10 0 -10 0 0 10 0 10 10 0 10 0 0 -10z"/>
<path d="M1230 680 l0 -10 -15 0 -15 0 0 -15 0 -15 15 0 15 0 0 -15 0 -15 -15
0 -15 0 0 -10 0 -10 15 0 15 0 0 -15 0 -15 -15 0 -15 0 0 -15 0 -15 15 0 15 0
0 15 0 15 10 0 10 0 0 -15 0 -15 15 0 15 0 0 15 0 15 -15 0 -15 0 0 15 0 15
15 0 15 0 0 10 0 10 -15 0 -15 0 0 15 0 15 15 0 15 0 0 15 0 15 -15 0 -15 0 0
10 0 10 -10 0 -10 0 0 -10z m20 -25 l0 -15 -10 0 -10 0 0 15 0 15 10 0 10 0 0
-15z m0 -55 l0 -10 -10 0 -10 0 0 10 0 10 10 0 10 0 0 -10z"/>
<path d="M1230 520 l0 -10 -15 0 -15 0 0 -15 0 -15 15 0 15 0 0 -15 0 -15 -15
0 -15 0 0 -10 0 -10 15 0 15 0 0 -15 0 -15 -15 0 -15 0 0 -15 0 -15 15 0 15 0
0 15 0 15 10 0 10 0 0 -15 0 -15 15 0 15 0 0 15 0 15 -15 0 -15 0 0 15 0 15
15 0 15 0 0 10 0 10 -15 0 -15 0 0 15 0 15 15 0 15 0 0 15 0 15 -15 0 -15 0 0
10 0 10 -10 0 -10 0 0 -10z m20 -25 l0 -15 -10 0 -10 0 0 15 0 15 10 0 10 0 0
-15z m0 -55 l0 -10 -10 0 -10 0 0 10 0 10 10 0 10 0 0 -10z"/>
<path d="M1230 360 l0 -10 -15 0 -15 0 0 -15 0 -15 15 0 15 0 0 -15 0 -15 -15
0 -15 0 0 -10 0 -10 15 0 15 0 0 -15 0 -15 -15 0 -15 0 0 -15 0 -15 15 0 15 0
0 15 0 15 10 0 10 0 0 -15 0 -15 15 0 15 0 0 15 0 15 -15 0 -15 0 0 15 0 15
15 0 15 0 0 10 0 10 -15 0 -15 0 0 15 0 15 15 0 15 0 0 15 0 15 -15 0 -15 0 0
10 0 10 -10 0 -10 0 0 -10z m20 -25 l0 -15 -10 0 -10 0 0 15 0 15 10 0 10 0 0
-15z m0 -55 l0 -10 -10 0 -10 0 0 10 0 10 10 0 10 0 0 -10z"/>
<path d="M1230 200 l0 -10 -15 0 -15 0 0 -15 0 -15 15 0 15 0 0 -11 0 -10 14
-15 15 -14 10 0 11 0 0 10 0 10 -15 0 -15 0 0 15 0 15 15 0 15 0 0 15 0 15
-15 0 -15 0 0 10 0 10 -10 0 -10 0 0 -10z m20 -25 l0 -15 -10 0 -10 0 0 15 0
15 10 0 10 0 0 -15z"/>
<path d="M130 66 l0 -14 -12 -6 -13 -6 13 -6 12 -6 0 -14 0 -14 15 0 15 0 0
15 0 15 15 0 15 0 0 -15 0 -15 10 0 10 0 0 15 0 15 15 0 15 0 0 -15 0 -15 15
0 15 0 0 15 0 15 -15 0 -15 0 0 10 0 10 15 0 15 0 0 15 0 15 -15 0 -15 0 0
-15 0 -15 -15 0 -15 0 0 15 0 15 -10 0 -10 0 0 -15 0 -15 -15 0 -15 0 0 15 0
15 -15 0 -15 0 0 -14z m30 -26 l0 -10 -15 0 -15 0 0 10 0 10 15 0 15 0 0 -10z
m50 0 l0 -10 -10 0 -10 0 0 10 0 10 10 0 10 0 0 -10z"/>
<path d="M290 66 l0 -14 -12 -6 -13 -6 13 -6 12 -6 0 -14 0 -14 15 0 15 0 0
15 0 15 15 0 15 0 0 -15 0 -15 10 0 10 0 0 15 0 15 15 0 15 0 0 -15 0 -15 15
0 15 0 0 15 0 15 -15 0 -15 0 0 10 0 10 15 0 15 0 0 15 0 15 -15 0 -15 0 0
-15 0 -15 -15 0 -15 0 0 15 0 15 -10 0 -10 0 0 -15 0 -15 -15 0 -15 0 0 15 0
15 -15 0 -15 0 0 -14z m30 -26 l0 -10 -15 0 -15 0 0 10 0 10 15 0 15 0 0 -10z
m50 0 l0 -10 -10 0 -10 0 0 10 0 10 10 0 10 0 0 -10z"/>
<path d="M450 66 l0 -14 -12 -6 -13 -6 13 -6 12 -6 0 -14 0 -14 15 0 15 0 0
15 0 15 15 0 15 0 0 -15 0 -15 10 0 10 0 0 15 0 15 15 0 15 0 0 -15 0 -15 15
0 15 0 0 15 0 15 -15 0 -15 0 0 10 0 10 15 0 15 0 0 15 0 15 -15 0 -15 0 0
-15 0 -15 -15 0 -15 0 0 15 0 15 -10 0 -10 0 0 -15 0 -15 -15 0 -15 0 0 15 0
15 -15 0 -15 0 0 -14z m30 -26 l0 -10 -15 0 -15 0 0 10 0 10 15 0 15 0 0 -10z
m50 0 l0 -10 -10 0 -10 0 0 10 0 10 10 0 10 0 0 -10z"/>
<path d="M610 66 l0 -14 -12 -6 -13 -6 13 -6 12 -6 0 -14 0 -14 15 0 15 0 0
15 0 15 15 0 15 0 0 -15 0 -15 10 0 10 0 0 15 0 15 15 0 15 0 0 -15 0 -15 15
0 15 0 0 15 0 15 -15 0 -15 0 0 10 0 10 15 0 15 0 0 15 0 15 -15 0 -15 0 0
-15 0 -15 -15 0 -15 0 0 15 0 15 -10 0 -10 0 0 -15 0 -15 -15 0 -15 0 0 15 0
15 -15 0 -15 0 0 -14z m30 -26 l0 -10 -15 0 -15 0 0 10 0 10 15 0 15 0 0 -10z
m50 0 l0 -10 -10 0 -10 0 0 10 0 10 10 0 10 0 0 -10z"/>
<path d="M770 66 l0 -14 -12 -6 -13 -6 13 -6 12 -6 0 -14 0 -14 15 0 15 0 0
15 0 15 15 0 15 0 0 -15 0 -15 10 0 10 0 0 15 0 15 15 0 15 0 0 -15 0 -15 15
0 15 0 0 15 0 15 -15 0 -15 0 0 10 0 10 15 0 15 0 0 15 0 15 -15 0 -15 0 0
-15 0 -15 -15 0 -15 0 0 15 0 15 -10 0 -10 0 0 -15 0 -15 -15 0 -15 0 0 15 0
15 -15 0 -15 0 0 -14z m30 -26 l0 -10 -15 0 -15 0 0 10 0 10 15 0 15 0 0 -10z
m50 0 l0 -10 -10 0 -10 0 0 10 0 10 10 0 10 0 0 -10z"/>
<path d="M930 66 l0 -14 -12 -6 -13 -6 13 -6 12 -6 0 -14 0 -14 15 0 15 0 0
15 0 15 15 0 15 0 0 -15 0 -15 10 0 10 0 0 15 0 15 15 0 15 0 0 -15 0 -15 15
0 15 0 0 15 0 15 -15 0 -15 0 0 10 0 10 15 0 15 0 0 15 0 15 -15 0 -15 0 0
-15 0 -15 -15 0 -15 0 0 15 0 15 -10 0 -10 0 0 -15 0 -15 -15 0 -15 0 0 15 0
15 -15 0 -15 0 0 -14z m30 -26 l0 -10 -15 0 -15 0 0 10 0 10 15 0 15 0 0 -10z
m50 0 l0 -10 -10 0 -10 0 0 10 0 10 10 0 10 0 0 -10z"/>
<path d="M1090 66 l0 -14 -12 -6 -13 -6 13 -6 12 -6 0 -14 0 -14 15 0 15 0 0
15 0 15 15 0 15 0 0 -15 0 -15 10 0 10 0 0 11 0 10 -14 15 -15 14 -10 0 -11 0
0 15 0 15 -15 0 -15 0 0 -14z m30 -26 l0 -10 -15 0 -15 0 0 10 0 10 15 0 15 0
0 -10z"/>
</g>
</svg>
