<?xml version="1.0" standalone="no"?>
<!DOCTYPE svg PUBLIC "-//W3C//DTD SVG 20010904//EN"
 "http://www.w3.org/TR/2001/REC-SVG-20010904/DTD/svg10.dtd">
<svg version="1.0" xmlns="http://www.w3.org/2000/svg"
 width="468pt" height="468pt" viewBox="0 0 468 468"
 preserveAspectRatio="xMidYMid meet">
<metadata>
Created by potrace 1.8, written by Peter Selinger 2001-2007
</metadata>
<g transform="translate(0,468) scale(0.365625,-0.365625)"
fill="#000000" stroke="none">
<path d="M160 1180 l0 -20 -20 0 -20 0 0 -40 0 -40 20 0 20 0 0 20 0 20 20 0
20 0 0 20 0 20 40 0 40 0 0 -20 0 -20 20 0 20 0 0 -40 0 -40 -20 0 -20 0 0
-20 0 -20 -20 0 -20 0 0 -20 0 -20 -20 0 -20 0 0 -80 0 -80 20 0 20 0 0 60 0
60 20 0 20 0 0 20 0 20 20 0 20 0 0 20 0 20 20 0 20 0 0 80 0 80 -20 0 -20 0
0 20 0 20 -80 0 -80 0 0 -20z"/>
<path d="M960 1180 l0 -20 -20 0 -20 0 0 -40 0 -40 20 0 20 0 0 40 0 40 80 0
80 0 0 -80 0 -80 -40 0 -40 0 0 -60 0 -60 20 0 20 0 0 40 0 40 20 0 20 0 0 20
0 20 20 0 20 0 0 80 0 80 -20 0 -20 0 0 20 0 20 -80 0 -80 0 0 -20z"/>
<path d="M640 1100 l0 -20 -20 0 -20 0 0 -20 0 -20 20 0 20 0 0 20 0 20 20 0
20 0 0 -40 0 -40 -20 0 -20 0 0 -40 0 -40 20 0 20 0 0 40 0 40 20 0 20 0 0 40
0 40 -20 0 -20 0 0 20 0 20 -20 0 -20 0 0 -20z"/>
<path d="M640 860 l0 -20 20 0 20 0 0 20 0 20 -20 0 -20 0 0 -20z"/>
<path d="M1040 820 l0 -20 20 0 20 0 0 20 0 20 -20 0 -20 0 0 -20z"/>
<path d="M360 780 l0 -20 -20 0 -20 0 0 -20 0 -20 -20 0 -20 0 0 -40 0 -40 40
0 40 0 0 20 0 20 20 0 20 0 0 20 0 20 40 0 40 0 0 -20 0 -20 20 0 20 0 0 -60
0 -60 -20 0 -20 0 0 -20 0 -20 -20 0 -20 0 0 -20 0 -20 -20 0 -20 0 0 -140 0
-140 40 0 40 0 0 120 0 120 20 0 20 0 0 20 0 20 20 0 20 0 0 20 0 20 20 0 20
0 0 100 0 100 -20 0 -20 0 0 20 0 20 -20 0 -20 0 0 20 0 20 -80 0 -80 0 0 -20z"/>
<path d="M200 740 l0 -20 20 0 20 0 0 20 0 20 -20 0 -20 0 0 -20z"/>
<path d="M760 700 l0 -20 -20 0 -20 0 0 -40 0 -40 20 0 20 0 0 20 0 20 20 0
20 0 0 20 0 20 40 0 40 0 0 -20 0 -20 20 0 20 0 0 -40 0 -40 -20 0 -20 0 0
-20 0 -20 -20 0 -20 0 0 -20 0 -20 -20 0 -20 0 0 -80 0 -80 20 0 20 0 0 60 0
60 20 0 20 0 0 20 0 20 20 0 20 0 0 20 0 20 20 0 20 0 0 80 0 80 -20 0 -20 0
0 20 0 20 -80 0 -80 0 0 -20z"/>
<path d="M80 540 l0 -20 -20 0 -20 0 0 -20 0 -20 20 0 20 0 0 20 0 20 20 0 20
0 0 -40 0 -40 -20 0 -20 0 0 -40 0 -40 20 0 20 0 0 40 0 40 20 0 20 0 0 40 0
40 -20 0 -20 0 0 20 0 20 -20 0 -20 0 0 -20z"/>
<path d="M1080 420 l0 -20 -20 0 -20 0 0 -20 0 -20 20 0 20 0 0 20 0 20 20 0
20 0 0 -40 0 -40 -20 0 -20 0 0 -40 0 -40 20 0 20 0 0 40 0 40 20 0 20 0 0 40
0 40 -20 0 -20 0 0 20 0 20 -20 0 -20 0 0 -20z"/>
<path d="M80 300 l0 -20 20 0 20 0 0 20 0 20 -20 0 -20 0 0 -20z"/>
<path d="M800 260 l0 -20 20 0 20 0 0 20 0 20 -20 0 -20 0 0 -20z"/>
<path d="M1080 180 l0 -20 20 0 20 0 0 20 0 20 -20 0 -20 0 0 -20z"/>
<path d="M400 80 l0 -40 40 0 40 0 0 40 0 40 -40 0 -40 0 0 -40z"/>
</g>
</svg>
