<?xml version="1.0" standalone="no"?>
<!DOCTYPE svg PUBLIC "-//W3C//DTD SVG 20010904//EN"
 "http://www.w3.org/TR/2001/REC-SVG-20010904/DTD/svg10.dtd">
<svg version="1.0" xmlns="http://www.w3.org/2000/svg"
 width="468pt" height="468pt" viewBox="0 0 468 468"
 preserveAspectRatio="xMidYMid meet">
<metadata>
Created by potrace 1.8, written by Peter Selinger 2001-2007
</metadata>
<g transform="translate(0,468) scale(0.365625,-0.365625)"
fill="#000000" stroke="none">
<path d="M330 1270 l0 -10 10 0 10 0 0 -15 0 -15 -10 0 -10 0 0 -20 0 -20 26
0 26 0 -6 35 -7 35 56 0 55 0 0 -9 0 -10 -20 -6 -20 -6 0 -35 0 -35 13 -13 13
-13 22 -7 22 -7 0 -10 0 -9 -100 0 -100 0 0 -10 0 -10 -20 0 -21 0 -26 -26
-26 -26 14 -9 14 -9 8 0 7 0 0 -20 0 -20 -10 0 -10 0 0 20 0 20 -9 0 -10 0
-15 16 -16 15 -15 -15 -15 -15 0 -10 0 -11 -11 0 -10 0 -15 -14 -14 -15 0 -5
0 -6 21 0 22 0 18 22 19 21 6 -6 6 -6 -25 -25 -26 -26 -21 0 -20 0 0 10 0 10
-18 0 -17 0 -19 -25 -19 -25 -18 0 -19 0 0 -5 0 -6 25 -24 24 -25 11 0 10 0 0
-10 0 -10 40 0 40 0 0 -10 0 -10 -7 -1 -8 -1 -39 -4 -39 -3 -9 -13 -9 -13 2
15 1 15 -1 13 -1 12 -20 0 -20 0 0 -10 0 -10 10 0 10 0 0 -11 0 -10 14 -15 14
-14 6 13 6 12 6 -12 6 -13 15 0 15 0 34 35 34 35 21 0 21 0 29 31 29 31 0 8 0
9 20 6 20 6 0 16 0 15 30 28 30 28 0 17 0 18 -22 18 -21 19 6 7 7 6 20 -23 20
-23 0 -23 0 -22 13 -5 12 -5 -11 -9 -11 -8 -6 -40 -7 -40 -10 -3 -10 -4 0 -19
0 -19 -10 0 -10 0 0 20 0 20 10 0 10 0 0 15 0 15 10 0 10 0 0 30 0 30 -6 0 -5
0 -15 -14 -14 -15 0 -15 0 -15 -20 -6 -20 -6 0 -20 0 -19 -9 0 -9 0 -7 -55 -6
-55 -10 0 -9 0 0 -45 0 -45 -10 0 -10 0 0 -65 0 -65 -10 0 -10 0 0 -55 0 -55
75 0 75 0 0 -19 0 -19 -16 -6 -16 -6 -23 0 -24 0 -6 -20 -6 -20 -130 0 -129 0
0 -165 0 -165 640 0 640 0 0 165 0 165 -130 0 -130 0 0 10 0 10 -25 0 -25 0 0
9 0 8 -61 7 -61 7 -24 24 -24 24 0 24 0 25 31 6 31 6 9 0 9 0 0 -11 0 -10 14
-15 15 -14 10 0 11 0 0 10 0 10 -9 0 -9 0 -6 25 -6 25 -20 0 -20 0 0 10 0 10
-18 0 -18 0 -14 21 -15 22 -13 11 -13 11 -41 38 -40 38 6 6 6 6 19 -21 18 -22
12 0 12 0 33 -35 33 -35 7 0 6 0 0 24 0 24 -12 6 -13 6 13 6 12 6 0 19 0 19
-10 0 -10 0 0 25 0 25 -15 0 -15 0 0 10 0 10 -15 0 -16 0 -24 23 -24 22 -13
12 -13 12 -14 16 -13 16 7 7 8 7 4 -12 5 -13 9 0 10 0 24 -22 24 -23 15 -12
15 -13 6 0 5 0 0 25 0 25 -16 0 -16 0 -39 41 -39 41 0 14 0 14 -10 0 -10 0 0
20 0 20 -10 0 -10 0 0 35 0 35 6 0 5 0 13 -13 13 -12 6 -50 7 -50 11 -4 11 -3
35 -35 35 -36 9 14 9 14 0 7 0 7 -14 12 -14 11 -31 28 -31 28 0 31 0 31 -10 0
-10 0 0 10 0 10 16 0 15 0 15 -14 14 -15 0 -8 0 -9 20 -14 20 -14 0 -17 0 -17
-12 -5 -13 -4 8 -9 9 -9 71 3 71 2 4 5 4 4 -16 16 -16 16 0 20 0 19 -10 0 -10
0 0 15 0 15 10 0 10 0 0 -14 0 -14 29 -31 29 -31 16 0 16 0 0 6 0 6 -41 39
-41 39 21 0 20 0 35 -35 35 -35 11 0 10 0 0 10 0 10 26 0 25 0 15 14 14 15 0
8 0 9 -20 14 -20 14 0 18 0 18 24 0 24 0 5 13 4 12 30 -32 31 -33 27 0 26 0
15 15 16 15 -36 35 -36 35 0 10 0 11 -25 24 -24 25 -16 0 -16 0 -15 13 -15 12
-24 23 -24 22 -16 0 -15 0 0 -10 0 -10 -25 0 -25 0 0 -9 0 -10 19 -6 20 -6 6
-20 6 -19 10 0 9 0 0 -20 0 -20 -9 0 -9 0 -6 -25 -6 -25 -30 0 -30 0 0 -10 0
-10 -20 0 -20 0 0 -10 0 -10 -15 0 -15 0 0 -10 0 -10 -28 0 -28 0 -14 20 -14
20 -33 0 -33 0 0 10 0 10 -20 0 -21 0 -13 12 -13 12 14 14 13 13 0 11 0 11
-19 -21 -18 -22 -17 0 -16 0 0 10 0 10 -10 0 -10 0 0 -10 0 -10 30 -6 30 -6 0
-9 0 -9 -35 0 -35 0 0 10 0 10 -19 0 -20 0 -16 17 -17 16 -9 -14 -9 -14 -10
15 -10 15 0 5 0 5 11 15 11 15 5 -12 5 -13 19 0 19 0 0 10 0 10 -10 0 -10 0 0
10 0 10 65 0 65 0 0 -9 0 -9 -12 -5 -13 -4 7 -8 7 -7 16 15 15 16 0 16 0 16
-30 6 -30 6 0 8 0 9 75 0 75 0 0 10 0 10 -220 0 -220 0 0 -10z m770 -52 l20
-23 28 -31 27 -31 27 -6 27 -7 6 -20 6 -20 10 0 9 0 0 -10 0 -10 -30 0 -31 0
-35 35 -35 35 -4 0 -4 0 5 -15 6 -15 -32 0 -33 0 -19 -22 -19 -22 -9 14 -10
15 0 8 0 7 11 0 10 0 15 14 14 15 0 10 0 11 16 0 15 0 16 15 15 16 -7 7 -8 7
-4 -12 -5 -13 -15 0 -15 0 -29 31 -29 31 0 4 0 4 35 0 34 0 21 -22z m77 -43
l15 -16 -5 -6 -6 -5 -16 15 -15 16 0 5 0 6 6 0 5 0 16 -15z m-607 -85 l0 -10
15 0 15 0 0 -10 0 -10 -21 0 -20 0 -15 14 -14 15 0 5 0 6 20 0 20 0 0 -10z
m430 -31 l15 -21 13 -14 13 -14 -7 0 -7 0 -28 30 -29 30 0 5 0 5 8 0 8 0 14
-21z m-520 -29 l0 -10 -10 0 -10 0 0 -15 0 -15 9 0 10 0 7 -45 6 -45 9 0 9 0
0 -16 0 -16 40 -38 40 -38 0 -11 0 -10 16 -16 16 -16 -7 -7 -8 -7 -4 13 -5 12
-9 0 -10 0 -24 23 -23 22 -24 18 -23 18 15 9 15 10 -12 8 -12 8 -7 42 -7 42
-8 0 -9 0 0 20 0 20 -10 0 -10 0 0 10 0 11 13 14 12 14 8 1 7 0 0 -10z m56 -4
l14 -15 0 -20 0 -21 10 0 10 0 0 -45 0 -45 10 0 10 0 0 -30 0 -30 -10 0 -10 0
0 28 0 28 -20 14 -20 14 0 33 0 33 -10 0 -10 0 0 35 0 35 6 0 5 0 15 -14z m84
-35 l0 -21 10 0 10 0 0 -35 0 -35 -10 0 -10 0 0 34 0 34 -8 4 -9 3 -6 33 -7
33 15 -15 15 -15 0 -20z m220 -10 l0 -29 13 -5 12 -4 -7 -8 -7 -7 -26 26 -26
26 13 15 13 14 8 1 7 0 0 -29z m-730 -201 l0 -10 -10 0 -10 0 0 10 0 10 10 0
10 0 0 -10z m610 -30 l14 -20 18 0 18 0 0 -10 0 -10 15 0 15 0 0 -10 0 -10
-15 0 -15 0 0 10 0 10 -15 0 -16 0 -24 25 -25 24 0 6 0 5 8 0 8 0 14 -20z
m-350 -40 l0 -20 -9 0 -10 0 -17 -17 -17 -18 -5 13 -4 12 -19 0 -19 0 0 -10 0
-10 19 0 19 0 6 -12 6 -13 6 13 6 12 9 0 9 0 0 -20 0 -20 -10 0 -10 0 0 -11 0
-12 22 -18 21 -19 -6 -6 -6 -6 -26 26 -26 26 -9 0 -10 0 0 16 0 15 -15 16 -16
15 4 12 4 11 21 3 22 3 0 10 0 9 20 0 20 0 0 10 0 10 10 0 10 0 0 -20z m270
-15 l0 -15 -10 0 -10 0 0 15 0 15 10 0 10 0 0 -15z m130 -25 l0 -10 -10 0 -10
0 0 10 0 10 10 0 10 0 0 -10z m-70 -100 l70 -70 0 -10 0 -10 -10 0 -9 0 -35
35 -35 35 -11 0 -10 0 0 10 0 10 -20 0 -20 0 0 10 0 9 -35 7 -35 6 0 9 0 9 25
0 25 0 0 -10 0 -10 20 0 20 0 0 10 0 10 -10 0 -10 0 0 10 0 10 5 0 6 0 69 -70z
m-238 5 l23 -24 14 -16 13 -16 -7 -7 -8 -7 -4 13 -5 14 -34 34 -35 34 10 0 10
0 23 -25z m-27 -69 l24 -24 13 -5 13 -4 -7 -8 -7 -7 -14 13 -15 14 -21 15 -21
14 0 8 0 8 5 0 6 0 24 -24z m115 14 l0 -10 -10 0 -10 0 0 10 0 10 10 0 10 0 0
-10z m50 -30 l20 -20 0 -14 0 -14 13 -5 12 -4 -7 -8 -7 -7 -16 15 -15 16 0 16
0 16 -15 5 -15 6 0 9 0 9 5 0 5 0 20 -20z m150 -60 l0 -10 -10 0 -10 0 0 10 0
10 10 0 10 0 0 -10z m-290 -20 l0 -10 65 0 65 0 1 13 1 12 5 -12 5 -13 39 0
39 0 0 10 0 10 11 0 10 0 15 -14 14 -15 0 -10 0 -11 -10 0 -10 0 0 -20 0 -20
-125 0 -125 0 0 19 0 20 -20 6 -20 6 0 20 0 19 20 0 20 0 0 -10z"/>
<path d="M590 1180 l0 -10 15 0 15 0 0 10 0 10 -15 0 -15 0 0 -10z"/>
<path d="M750 950 l0 -20 10 0 10 0 0 20 0 20 -10 0 -10 0 0 -20z"/>
</g>
</svg>
