<?xml version="1.0" standalone="no"?>
<!DOCTYPE svg PUBLIC "-//W3C//DTD SVG 20010904//EN"
 "http://www.w3.org/TR/2001/REC-SVG-20010904/DTD/svg10.dtd">
<svg version="1.0" xmlns="http://www.w3.org/2000/svg"
 width="468pt" height="468pt" viewBox="0 0 468 468"
 preserveAspectRatio="xMidYMid meet">
<metadata>
Created by potrace 1.8, written by Peter Selinger 2001-2007
</metadata>
<g transform="translate(0,468) scale(0.365625,-0.365625)"
fill="#000000" stroke="none">
<path d="M11 1264 l-14 -16 14 -9 14 -9 -15 -10 -15 -10 15 -10 15 -10 -15
-10 -15 -10 15 -10 15 -10 -15 -10 -15 -10 15 -10 15 -10 -15 -10 -15 -10 15
-10 15 -10 -15 -10 -15 -10 15 -10 15 -10 -15 -10 -15 -10 15 -10 15 -10 -15
-10 -15 -10 15 -10 15 -10 -15 -10 -15 -10 15 -10 15 -10 -15 -10 -15 -10 15
-10 15 -10 -15 -10 -15 -10 15 -10 15 -10 -15 -10 -15 -10 15 -10 15 -10 -15
-10 -15 -10 15 -10 15 -10 -15 -10 -15 -10 15 -10 15 -10 -15 -10 -15 -10 15
-10 15 -10 -15 -10 -15 -10 15 -10 15 -10 -15 -10 -15 -10 15 -10 15 -10 -15
-10 -15 -10 15 -10 15 -10 -15 -10 -15 -10 15 -10 15 -10 -15 -10 -15 -10 15
-10 15 -10 -15 -10 -15 -10 15 -10 15 -10 -15 -10 -15 -10 15 -10 15 -10 -15
-10 -15 -10 15 -10 15 -10 -15 -10 -15 -10 15 -10 15 -10 -15 -10 -15 -10 15
-10 15 -10 -15 -10 -15 -10 15 -11 15 -11 -13 -5 -12 -5 0 -109 0 -109 640 0
640 0 0 99 0 99 -12 5 -13 5 15 11 15 11 -15 10 -15 10 15 10 15 10 -15 11
-15 11 13 5 12 5 0 28 0 28 -12 5 -13 5 15 11 15 11 -15 10 -15 10 15 10 15
10 -15 10 -15 10 15 10 15 10 -15 10 -15 10 15 10 15 10 -15 10 -15 10 15 10
15 10 -15 10 -15 10 15 10 15 10 -15 10 -15 10 15 10 15 10 -15 10 -15 10 15
10 15 10 -15 10 -15 10 15 10 15 10 -15 10 -15 10 15 10 15 10 -15 10 -15 10
15 10 15 10 -15 10 -15 10 15 10 15 10 -15 10 -15 10 15 10 15 10 -15 10 -15
10 15 10 15 10 -15 10 -15 10 15 10 15 10 -15 10 -15 10 15 10 15 10 -15 10
-15 10 15 10 15 10 -15 10 -15 10 15 10 15 10 -15 10 -15 10 15 10 15 10 -15
10 -15 10 15 10 15 10 -15 10 -15 10 15 10 15 10 -15 10 -15 10 15 10 15 10
-15 10 -15 10 15 9 14 10 -7 8 -8 7 -10 -14 -9 -15 -10 15 -10 15 -10 -15 -10
-15 -10 15 -10 15 -10 -15 -10 -15 -10 15 -10 15 -10 -15 -10 -15 -10 15 -10
15 -10 -15 -10 -15 -10 15 -10 15 -10 -15 -10 -15 -10 15 -10 15 -10 -15 -10
-15 -10 15 -10 15 -10 -15 -10 -15 -10 15 -10 15 -10 -15 -10 -15 -10 15 -10
15 -10 -15 -10 -15 -10 15 -10 15 -10 -15 -10 -15 -10 15 -10 15 -10 -15 -10
-15 -10 15 -10 15 -10 -15 -10 -15 -10 15 -10 15 -10 -15 -10 -15 -10 15 -10
15 -10 -15 -10 -15 -10 15 -10 15 -10 -15 -10 -15 -10 15 -10 15 -10 -15 -10
-15 -10 15 -10 15 -10 -15 -10 -15 -10 15 -10 15 -10 -15 -10 -15 -10 15 -10
15 -10 -15 -10 -15 -10 15 -10 15 -10 -15 -10 -15 -10 15 -10 15 -10 -15 -10
-15 -10 15 -10 15 -10 -15 -10 -15 -10 15 -10 15 -10 -15 -10 -15 -10 15 -10
15 -10 -15 -10 -15 -10 15 -10 15 -10 -15 -10 -15 -10 15 -10 15 -10 -15 -10
-15 -10 15 -10 15 -11 -15 -11 -15 -5 13 -5 12 -28 0 -28 0 -5 -12 -5 -13 -11
15 -11 15 -11 -15 -11 -15 -5 13 -5 12 -6 0 -7 -1 -14 -15z m32 -16 l5 -13 11
15 11 15 10 -15 10 -15 9 15 10 14 8 -7 7 -8 -14 -10 -15 -9 14 -9 14 -9 -47
-47 -47 -47 -7 7 -6 6 14 10 15 9 -15 10 -15 10 15 10 15 10 -15 10 -15 10 15
11 15 11 -12 5 -13 5 0 9 0 9 9 0 9 0 5 -12z m160 0 l5 -13 11 15 11 15 10
-15 10 -15 10 15 10 15 10 -15 10 -15 10 15 10 15 10 -15 10 -15 9 14 9 14 18
-17 17 -18 -14 -9 -14 -9 15 -10 15 -10 -15 -10 -15 -10 15 -10 15 -10 -15
-10 -15 -10 14 -9 14 -9 -17 -18 -18 -17 -9 14 -9 14 -10 -15 -10 -15 -10 15
-10 15 -9 -15 -10 -14 -8 7 -7 8 13 8 14 9 -48 47 -47 48 -9 -14 -8 -13 -8 7
-7 8 14 10 15 9 -14 9 -14 9 14 16 14 15 7 1 6 0 5 -12z m240 0 l5 -13 11 15
11 15 10 -15 10 -15 10 15 10 15 10 -15 10 -15 10 15 10 15 10 -15 10 -15 9
14 9 14 18 -17 17 -18 -14 -9 -14 -9 15 -9 14 -10 -7 -8 -8 -7 -8 13 -9 14
-47 -48 -48 -47 14 -9 13 -8 -7 -8 -8 -7 -10 14 -9 15 -10 -15 -10 -15 -10 15
-10 15 -9 -14 -9 -14 -18 17 -17 18 14 9 14 9 -15 10 -15 10 15 10 15 10 -15
10 -15 10 15 10 15 10 -14 9 -14 9 14 16 14 15 7 1 6 0 5 -12z m240 0 l5 -13
11 15 11 15 10 -15 10 -15 10 15 10 15 10 -15 10 -15 10 15 10 15 10 -15 10
-15 9 14 9 14 18 -17 17 -18 -14 -9 -14 -9 15 -10 15 -10 -15 -10 -15 -10 14
-9 14 -9 -38 -37 -37 -38 -9 14 -9 14 -9 -15 -10 -14 -8 7 -7 8 13 8 14 9 -48
47 -47 48 -9 -14 -8 -13 -8 7 -7 8 14 10 15 9 -14 9 -14 9 14 16 14 15 7 1 6
0 5 -12z m240 0 l5 -13 11 15 11 15 10 -15 10 -15 10 15 10 15 10 -15 10 -15
10 15 10 15 10 -15 10 -15 9 14 9 14 18 -17 17 -18 -14 -9 -14 -9 15 -10 15
-10 -15 -10 -15 -10 15 -10 15 -10 -15 -10 -15 -10 14 -9 14 -9 -17 -18 -18
-17 -9 14 -9 14 -10 -15 -10 -15 -10 15 -10 15 -10 -15 -10 -15 -10 15 -10 15
-9 -14 -9 -14 -37 38 -38 37 14 9 14 9 -15 10 -15 10 15 10 15 10 -14 9 -14 9
14 16 14 15 7 1 6 0 5 -12z m240 0 l5 -13 11 15 11 15 10 -15 10 -15 9 14 9
14 18 -17 17 -18 -14 -9 -14 -9 15 -10 15 -10 -15 -10 -15 -10 15 -10 15 -10
-15 -10 -15 -10 14 -9 14 -9 -17 -18 -18 -17 -9 14 -9 14 -10 -15 -10 -15 -10
15 -10 15 -9 -14 -9 -14 -18 17 -17 18 14 9 14 9 -15 10 -15 10 15 10 15 10
-15 10 -15 10 15 10 15 10 -14 9 -14 9 14 16 14 15 7 1 6 0 5 -12z m-983 -98
l0 -10 -26 0 -25 0 -15 -14 -14 -15 0 -15 0 -16 -10 0 -10 0 0 15 0 16 23 24
22 24 28 0 27 1 0 -10z m480 0 l0 -10 -26 0 -25 0 -15 -14 -14 -15 0 -15 0
-16 -10 0 -10 0 0 15 0 16 23 24 22 24 28 0 27 1 0 -10z m-620 -60 l0 -10 -10
0 -10 0 0 10 0 10 10 0 10 0 0 -10z m0 -40 l0 -10 -10 0 -10 0 0 10 0 10 10 0
10 0 0 -10z m243 -2 l5 -13 11 15 11 15 10 -15 10 -15 9 14 9 14 18 -17 17
-18 -14 -9 -14 -9 15 -10 15 -10 -15 -10 -15 -10 15 -9 14 -10 -7 -8 -8 -7 -9
13 -8 14 -41 -42 -41 -42 -35 36 -36 35 43 42 43 41 -12 4 -13 5 0 9 0 9 9 0
9 0 5 -12z m160 0 l5 -13 11 15 11 15 10 -15 10 -15 9 15 10 14 8 -7 7 -8 -13
-9 -14 -8 42 -41 42 -41 -36 -35 -35 -36 -41 42 -41 42 -8 -14 -9 -13 -8 7 -7
8 14 10 15 9 -15 10 -15 10 15 10 15 10 -14 9 -14 9 14 16 14 15 7 1 6 0 5
-12z m320 0 l5 -13 10 14 10 14 37 -38 38 -37 -14 -9 -14 -9 15 -9 14 -10 -7
-8 -8 -7 -9 13 -8 14 -41 -42 -41 -42 -35 36 -36 35 43 42 43 41 -12 4 -13 5
0 9 0 9 9 0 9 0 5 -12z m200 0 l5 -13 11 15 11 15 10 -15 10 -15 10 15 10 15
10 -15 10 -15 9 14 9 14 18 -17 17 -18 -14 -9 -14 -9 15 -10 15 -10 -15 -10
-15 -10 15 -10 15 -10 -15 -10 -15 -10 15 -10 15 -10 -15 -10 -15 -10 14 -9
14 -9 -17 -18 -18 -17 -9 14 -9 14 -10 -15 -10 -15 -10 15 -10 15 -9 -15 -10
-14 -8 7 -7 8 13 8 14 9 -48 47 -47 48 -9 -14 -8 -13 -8 7 -7 8 14 10 15 9
-14 9 -14 9 34 35 34 36 7 0 6 1 5 -12z m200 0 l5 -13 11 15 11 15 10 -15 10
-15 9 14 9 14 18 -17 17 -18 -14 -9 -14 -9 15 -10 15 -10 -15 -10 -15 -10 15
-10 15 -10 -15 -10 -15 -10 15 -10 15 -10 -15 -10 -15 -10 14 -9 14 -9 -17
-18 -18 -17 -9 14 -9 14 -10 -15 -10 -15 -10 15 -10 15 -9 -14 -9 -14 -18 17
-17 18 14 9 14 9 -15 10 -15 10 15 10 15 10 -15 10 -15 10 15 10 15 10 -15 10
-15 10 15 10 15 10 -14 9 -14 9 14 16 14 15 7 1 6 0 5 -12z m-1097 -63 l35
-35 -36 -36 -36 -36 -7 7 -6 6 14 10 15 9 -15 10 -15 10 15 10 15 10 -15 10
-15 10 15 11 15 11 -12 5 -13 5 0 9 0 9 5 0 6 0 35 -35z m114 -35 l0 -10 -10
0 -10 0 0 10 0 10 10 0 10 0 0 -10z m440 0 l0 -10 -10 0 -10 0 0 10 0 10 10 0
10 0 0 -10z m40 0 l0 -10 -10 0 -10 0 0 10 0 10 10 0 10 0 0 -10z m-445 -55
l25 -24 0 -41 0 -41 -25 -24 -24 -25 -41 0 -41 0 -24 25 -25 24 0 41 0 41 23
24 22 24 43 0 43 1 24 -25z m240 0 l25 -24 0 -41 0 -41 -25 -24 -24 -25 -41 0
-41 0 -24 25 -25 24 0 41 0 41 23 24 22 24 43 0 43 1 24 -25z m205 15 l0 -10
-26 0 -25 0 -15 -14 -14 -15 0 -15 0 -16 -10 0 -10 0 0 15 0 16 23 24 22 24
28 0 27 1 0 -10z m240 0 l0 -10 -26 0 -25 0 -15 -14 -14 -15 0 -15 0 -16 -10
0 -10 0 0 15 0 16 23 24 22 24 28 0 27 1 0 -10z m-860 -60 l0 -10 -10 0 -10 0
0 10 0 10 10 0 10 0 0 -10z m240 0 l0 -10 -10 0 -10 0 0 10 0 10 10 0 10 0 0
-10z m240 0 l0 -10 -10 0 -10 0 0 10 0 10 10 0 10 0 0 -10z m240 0 l0 -10 -10
0 -10 0 0 10 0 10 10 0 10 0 0 -10z m-720 -40 l0 -10 -10 0 -10 0 0 10 0 10
10 0 10 0 0 -10z m240 0 l0 -10 -10 0 -10 0 0 10 0 10 10 0 10 0 0 -10z m240
0 l0 -10 -10 0 -10 0 0 10 0 10 10 0 10 0 0 -10z m240 0 l0 -10 -10 0 -10 0 0
10 0 10 10 0 10 0 0 -10z m243 -2 l5 -13 11 15 11 15 10 -15 10 -15 9 14 9 14
18 -17 17 -18 -14 -9 -14 -9 15 -10 15 -10 -15 -10 -15 -10 15 -9 14 -10 -7
-8 -8 -7 -9 13 -8 14 -41 -42 -41 -42 -35 36 -36 35 43 42 43 41 -12 4 -13 5
0 9 0 9 9 0 9 0 5 -12z m160 0 l5 -13 11 15 11 15 10 -15 10 -15 9 14 9 14 18
-17 17 -18 -14 -9 -14 -9 15 -10 15 -10 -15 -10 -15 -10 15 -10 15 -10 -15
-10 -15 -10 15 -10 15 -10 -15 -10 -15 -10 14 -9 14 -9 -17 -17 -17 -17 -7 6
-6 7 13 8 14 9 -48 47 -47 48 -9 -14 -8 -13 -8 7 -7 8 14 10 15 9 -15 10 -15
10 15 10 15 10 -14 9 -14 9 14 16 14 15 7 1 6 0 5 -12z m-1086 -74 l46 -46
-14 -9 -14 -9 15 -10 15 -10 -15 -10 -15 -10 15 -10 15 -10 -15 -10 -15 -10
15 -10 15 -10 -15 -10 -15 -10 15 -10 15 -10 -15 -10 -15 -10 15 -10 15 -10
-15 -10 -15 -10 15 -10 15 -10 -15 -10 -15 -10 15 -10 15 -10 -15 -10 -15 -10
15 -10 15 -10 -14 -9 -14 -9 28 -27 27 -28 9 14 9 14 10 -15 10 -15 10 15 10
15 10 -15 10 -15 10 15 10 15 10 -15 10 -15 10 15 10 15 10 -15 10 -15 10 15
10 15 10 -15 10 -15 10 15 10 15 10 -15 10 -15 10 15 10 15 10 -15 10 -15 10
15 10 15 10 -15 10 -15 10 15 10 15 10 -15 10 -15 10 15 10 15 10 -15 10 -15
10 15 10 15 10 -15 10 -15 10 15 10 15 10 -15 10 -15 10 15 10 15 10 -15 10
-15 10 15 10 15 10 -15 10 -15 10 15 10 15 10 -15 10 -15 10 15 10 15 10 -15
10 -15 10 15 10 15 10 -15 10 -15 10 15 10 15 10 -15 10 -15 10 15 10 15 10
-15 10 -15 10 15 10 15 10 -15 10 -15 9 14 9 14 52 -53 52 -53 9 14 9 14 10
-15 10 -15 10 15 10 15 9 -14 9 -14 41 42 41 43 17 -17 16 -17 -14 -9 -14 -9
14 -9 14 -9 -17 -18 -18 -17 -9 14 -9 14 -10 -15 -10 -15 -10 15 -10 15 -10
-15 -10 -15 -10 15 -10 15 -10 -15 -10 -15 -10 15 -10 15 -10 -15 -10 -15 -10
15 -10 15 -10 -15 -10 -15 -10 15 -10 15 -10 -15 -10 -15 -10 15 -10 15 -10
-15 -10 -15 -10 15 -10 15 -10 -15 -10 -15 -10 15 -10 15 -10 -15 -10 -15 -10
15 -10 15 -10 -15 -10 -15 -10 15 -10 15 -10 -15 -10 -15 -10 15 -10 15 -10
-15 -10 -15 -10 15 -10 15 -10 -15 -10 -15 -10 15 -10 15 -10 -15 -10 -15 -10
15 -10 15 -10 -15 -10 -15 -10 15 -10 15 -10 -15 -10 -15 -10 15 -10 15 -10
-15 -10 -15 -10 15 -10 15 -10 -15 -10 -15 -10 15 -10 15 -10 -15 -10 -15 -10
15 -10 15 -10 -15 -10 -15 -10 15 -10 15 -10 -15 -10 -15 -10 15 -10 15 -10
-15 -10 -15 -10 15 -10 15 -10 -15 -10 -15 -10 15 -10 15 -10 -15 -10 -15 -10
15 -10 15 -10 -15 -10 -15 -10 15 -10 15 -10 -15 -10 -15 -10 15 -10 15 -10
-15 -10 -15 -10 15 -10 15 -10 -15 -10 -15 -10 15 -10 15 -10 -15 -10 -15 -10
15 -10 15 -9 -15 -10 -14 -8 7 -7 8 14 10 15 9 -15 10 -15 10 15 10 15 10 -15
10 -15 10 15 10 15 10 -15 10 -15 10 15 10 15 10 -15 10 -15 10 15 10 15 10
-15 10 -15 10 15 10 15 10 -15 10 -15 10 15 10 15 10 -15 10 -15 10 15 10 15
10 -15 10 -15 10 15 10 15 10 -15 10 -15 10 15 10 15 10 -15 10 -15 10 15 10
15 10 -15 10 -15 10 15 10 15 10 -15 10 -15 10 15 10 15 10 -15 10 -15 10 15
11 15 11 -12 5 -13 5 0 9 0 9 5 0 6 0 46 -46z m235 4 l40 -41 8 14 9 13 8 -7
7 -8 -14 -10 -15 -9 15 -10 15 -10 -15 -10 -15 -10 14 -9 14 -9 -17 -18 -18
-17 -9 14 -9 14 -10 -15 -10 -15 -10 15 -10 15 -10 -15 -10 -15 -10 15 -10 15
-10 -15 -10 -15 -10 15 -10 15 -9 -14 -9 -14 -18 17 -17 18 14 9 14 9 -15 10
-15 10 15 10 15 10 -15 9 -14 10 7 8 8 7 9 -14 8 -14 39 42 38 41 3 0 4 1 40
-42z m234 7 l35 -35 -42 -41 -42 -41 14 -8 13 -9 -7 -8 -8 -7 -10 14 -9 15
-10 -15 -10 -15 -10 15 -10 15 -9 -14 -9 -14 -18 17 -17 18 14 9 14 9 -15 10
-15 10 15 10 15 10 -15 9 -14 10 7 8 8 7 9 -14 8 -14 39 42 38 41 3 0 3 1 35
-35z m240 0 l35 -35 -36 -35 -35 -36 -35 36 -36 35 33 34 33 35 3 0 3 1 35
-35z m-166 -35 l0 -10 -10 0 -10 0 0 10 0 10 10 0 10 0 0 -10z m40 0 l0 -10
-10 0 -10 0 0 10 0 10 10 0 10 0 0 -10z m200 0 l0 -10 -10 0 -10 0 0 10 0 10
10 0 10 0 0 -10z m40 0 l0 -10 -10 0 -10 0 0 10 0 10 10 0 10 0 0 -10z m-205
-55 l25 -24 0 -41 0 -41 -25 -24 -24 -25 -41 0 -41 0 -24 25 -25 24 0 41 0 41
23 24 22 24 43 0 43 1 24 -25z m240 0 l25 -24 0 -41 0 -41 -25 -24 -24 -25
-41 0 -41 0 -24 25 -25 24 0 41 0 41 23 24 22 24 43 0 43 1 24 -25z m205 15
l0 -10 -26 0 -25 0 -15 -14 -14 -15 0 -15 0 -16 -10 0 -10 0 0 15 0 16 23 24
22 24 28 0 27 1 0 -10z m-380 -60 l0 -10 -10 0 -10 0 0 10 0 10 10 0 10 0 0
-10z m240 0 l0 -10 -10 0 -10 0 0 10 0 10 10 0 10 0 0 -10z m-797 -42 l5 -13
11 15 11 15 10 -15 10 -15 10 15 10 15 10 -15 10 -15 10 15 10 15 10 -15 10
-15 9 14 9 14 18 -17 17 -18 -14 -9 -14 -9 15 -10 15 -10 -15 -10 -15 -10 15
-10 15 -10 -15 -10 -15 -10 15 -10 15 -10 -15 -10 -15 -10 14 -9 14 -9 -17
-18 -18 -17 -9 14 -9 14 -10 -15 -10 -15 -10 15 -10 15 -10 -15 -10 -15 -10
15 -10 15 -10 -15 -10 -15 -10 15 -10 15 -9 -14 -9 -14 -18 17 -17 18 14 9 14
9 -15 10 -15 10 15 10 15 10 -15 10 -15 10 15 10 15 10 -15 10 -15 10 15 10
15 10 -14 9 -14 9 14 16 14 15 7 1 6 0 5 -12z m240 0 l5 -13 11 15 11 15 10
-15 10 -15 9 15 10 14 8 -7 7 -8 -13 -8 -14 -9 48 -47 47 -48 9 14 8 13 8 -7
7 -8 -14 -10 -15 -9 15 -10 15 -10 -15 -10 -15 -10 14 -9 14 -9 -17 -18 -18
-17 -9 14 -9 14 -10 -15 -10 -15 -10 15 -10 15 -10 -15 -10 -15 -10 15 -10 15
-10 -15 -10 -15 -10 15 -10 15 -9 -14 -9 -14 -18 17 -17 18 14 9 14 9 -15 10
-15 10 15 10 15 10 -15 10 -15 10 15 10 15 10 -15 10 -15 10 15 10 15 10 -14
9 -14 9 14 16 14 15 7 1 6 0 5 -12z m317 2 l0 -10 -10 0 -10 0 0 10 0 10 10 0
10 0 0 -10z m240 0 l0 -10 -10 0 -10 0 0 10 0 10 10 0 10 0 0 -10z m247 -6
l16 -16 -14 -9 -14 -9 15 -10 15 -10 -15 -10 -15 -10 15 -10 15 -10 -15 -10
-15 -10 15 -10 15 -10 -15 -10 -15 -10 14 -9 14 -9 -17 -17 -17 -17 -7 6 -6 7
13 9 14 8 -42 41 -43 41 44 42 43 41 -12 4 -13 5 0 9 0 9 6 0 5 0 16 -16z
m-455 -66 l40 -41 8 14 9 13 8 -7 7 -8 -14 -10 -15 -9 15 -10 15 -10 -15 -10
-15 -10 14 -9 14 -9 -17 -18 -18 -17 -9 14 -9 14 -10 -15 -10 -15 -10 15 -10
15 -10 -15 -10 -15 -10 15 -10 15 -10 -15 -10 -15 -10 15 -10 15 -9 -14 -9
-14 -18 17 -17 18 14 9 14 9 -15 10 -15 10 15 10 15 10 -15 9 -14 10 7 8 8 7
9 -14 8 -14 39 42 38 41 3 0 4 1 40 -42z m234 7 l35 -35 -42 -41 -42 -41 14
-8 13 -9 -7 -8 -8 -7 -10 14 -9 15 -10 -15 -10 -15 -10 15 -10 15 -9 -14 -9
-14 -18 17 -17 18 14 9 14 9 -15 10 -15 10 15 10 15 10 -15 9 -14 10 7 8 8 7
9 -14 8 -14 39 42 38 41 3 0 3 1 35 -35z m74 -35 l0 -10 -10 0 -10 0 0 10 0
10 10 0 10 0 0 -10z m40 0 l0 -10 -10 0 -10 0 0 10 0 10 10 0 10 0 0 -10z m35
-55 l25 -24 0 -41 0 -41 -25 -24 -24 -25 -41 0 -41 0 -24 25 -25 24 0 41 0 41
23 24 22 24 43 0 43 1 24 -25z"/>
<path d="M51 1224 l-14 -16 14 -9 14 -9 -15 -9 -14 -10 6 -7 7 -6 26 26 26 26
-15 15 -15 15 -3 0 -3 -1 -14 -15z m29 -14 l0 -10 -10 0 -10 0 0 10 0 10 10 0
10 0 0 -10z"/>
<path d="M180 1235 l0 -5 66 -66 66 -67 9 14 9 14 9 -15 10 -14 8 7 7 8 -14
10 -15 9 15 10 15 10 -15 10 -15 10 15 10 15 10 -15 10 -15 10 15 9 14 10 -7
8 -8 7 -10 -14 -9 -15 -10 15 -10 15 -10 -15 -10 -15 -10 15 -10 15 -10 -15
-10 -15 -10 15 -10 15 -11 -15 -11 -15 -5 13 -5 12 -9 0 -9 0 0 -5z m63 -27
l5 -13 11 15 11 15 10 -15 10 -15 9 14 9 14 18 -17 17 -18 -14 -9 -14 -9 14
-9 14 -9 -16 -17 -17 -16 -45 45 -45 45 0 6 0 5 9 0 9 0 5 -12z"/>
<path d="M260 1195 l0 -6 26 -26 25 -25 7 6 6 7 -14 10 -15 9 15 9 14 10 -7 8
-8 7 -10 -14 -11 -15 -5 13 -5 12 -9 0 -9 0 0 -5z"/>
<path d="M420 1231 l0 -9 13 -5 12 -5 -15 -11 -15 -11 15 -10 15 -10 -15 -10
-15 -10 15 -10 15 -10 -15 -9 -14 -10 7 -8 8 -7 10 14 9 15 9 -14 9 -14 67 67
67 67 -7 7 -6 6 -10 -14 -9 -15 -10 15 -10 15 -10 -15 -10 -15 -10 15 -10 15
-10 -15 -10 -15 -10 15 -10 15 -11 -15 -11 -15 -5 13 -5 12 -9 0 -9 0 0 -9z
m63 -23 l5 -13 11 15 11 15 10 -15 10 -15 9 15 10 14 6 -6 7 -7 -46 -46 -46
-46 -17 16 -16 17 14 9 14 9 -14 9 -14 9 14 16 14 15 7 1 6 0 5 -12z"/>
<path d="M460 1191 l0 -9 13 -5 12 -5 -15 -11 -14 -10 6 -7 7 -6 26 27 27 26
-6 7 -7 6 -10 -14 -11 -15 -5 13 -5 12 -9 0 -9 0 0 -9z"/>
<path d="M660 1235 l0 -5 65 -66 65 -65 27 27 26 26 -14 9 -14 9 15 10 15 10
-15 10 -15 10 15 9 14 10 -7 8 -8 7 -10 -14 -9 -15 -10 15 -10 15 -10 -15 -10
-15 -10 15 -10 15 -10 -15 -10 -15 -10 15 -10 15 -11 -15 -11 -15 -5 13 -5 12
-9 0 -9 0 0 -5z m63 -27 l5 -13 11 15 11 15 10 -15 10 -15 9 14 9 14 18 -17
17 -18 -14 -9 -14 -9 14 -9 14 -9 -16 -17 -17 -16 -45 45 -45 45 0 6 0 5 9 0
9 0 5 -12z"/>
<path d="M740 1195 l0 -6 26 -26 25 -25 7 6 6 7 -14 10 -15 9 15 9 14 10 -7 8
-8 7 -10 -14 -11 -15 -5 13 -5 12 -9 0 -9 0 0 -5z"/>
<path d="M900 1231 l0 -9 13 -5 12 -5 -15 -11 -15 -11 15 -10 15 -10 -14 -9
-14 -9 28 -27 27 -28 9 14 9 14 10 -15 10 -15 10 15 10 15 10 -15 10 -15 10
15 10 15 9 -15 10 -14 8 7 7 8 -14 10 -15 9 15 10 15 10 -15 10 -15 10 15 10
15 10 -15 10 -15 10 15 9 14 10 -7 8 -8 7 -10 -14 -9 -15 -10 15 -10 15 -10
-15 -10 -15 -10 15 -10 15 -10 -15 -10 -15 -10 15 -10 15 -11 -15 -11 -15 -5
13 -5 12 -9 0 -9 0 0 -9z m63 -23 l5 -13 11 15 11 15 10 -15 10 -15 9 14 9 14
18 -17 17 -18 -14 -9 -14 -9 14 -9 14 -9 -17 -18 -18 -17 -9 14 -9 14 -10 -15
-10 -15 -10 15 -10 15 -9 -14 -9 -14 -18 17 -17 18 14 9 14 9 -14 9 -14 9 14
16 14 15 7 1 6 0 5 -12z"/>
<path d="M940 1191 l0 -9 13 -5 12 -5 -15 -11 -14 -10 7 -8 8 -7 10 14 9 15
10 -15 10 -15 10 15 10 15 9 -15 10 -14 8 7 7 8 -14 10 -15 9 15 9 14 10 -7 8
-8 7 -10 -14 -9 -15 -10 15 -10 15 -11 -15 -11 -15 -5 13 -5 12 -9 0 -9 0 0
-9z m60 -21 l0 -10 -10 0 -10 0 0 10 0 10 10 0 10 0 0 -10z"/>
<path d="M1140 1231 l0 -9 13 -5 12 -5 -15 -11 -15 -11 15 -10 15 -10 -15 -10
-15 -10 15 -10 15 -10 -15 -9 -14 -10 7 -8 8 -7 10 14 9 15 10 -15 10 -15 10
15 10 15 9 -15 10 -14 8 7 7 8 -14 10 -15 9 15 10 15 10 -15 10 -15 10 15 10
15 10 -15 10 -15 10 15 9 14 10 -7 8 -8 7 -10 -14 -9 -15 -10 15 -10 15 -11
-15 -11 -15 -5 13 -5 12 -9 0 -9 0 0 -9z m67 -27 l16 -16 -14 -9 -14 -9 14 -9
14 -9 -16 -17 -17 -16 -17 16 -16 17 14 9 14 9 -14 9 -14 9 14 16 14 15 3 1 3
0 16 -16z"/>
<path d="M1180 1190 l0 -10 10 0 10 0 0 10 0 10 -10 0 -10 0 0 -10z"/>
<path d="M1180 1150 l0 -10 10 0 10 0 0 10 0 10 -10 0 -10 0 0 -10z"/>
<path d="M262 994 l-43 -44 26 -25 25 -26 46 47 47 46 -14 9 -14 9 15 9 14 10
-7 8 -8 7 -10 -14 -11 -15 -5 13 -5 12 -6 -1 -7 0 -43 -45z m64 11 l15 -15
-36 -35 -35 -36 -16 15 -15 16 33 34 33 35 3 0 3 1 15 -15z"/>
<path d="M281 974 l-23 -25 5 -6 6 -5 25 25 26 26 0 6 0 5 -7 -1 -8 0 -24 -25z"/>
<path d="M420 1031 l0 -9 13 -5 12 -5 -14 -10 -14 -10 47 -46 46 -47 25 26 26
25 -47 46 -46 47 -10 -14 -10 -14 -5 13 -5 12 -9 0 -9 0 0 -9z m86 -46 l35
-35 -15 -16 -16 -15 -35 36 -36 35 13 15 13 14 3 1 3 0 35 -35z"/>
<path d="M460 995 l0 -6 26 -26 25 -25 6 5 5 6 -25 25 -26 26 -6 0 -5 0 0 -5z"/>
<path d="M742 994 l-43 -44 26 -25 25 -26 45 46 46 45 -25 25 -25 25 -3 -1 -3
0 -43 -45z m64 11 l15 -15 -36 -35 -35 -36 -16 15 -15 16 33 34 33 35 3 0 3 1
15 -15z"/>
<path d="M761 974 l-23 -25 5 -6 6 -5 25 25 26 26 0 6 0 5 -7 -1 -8 0 -24 -25z"/>
<path d="M922 1014 l-23 -24 67 -66 66 -67 9 14 9 14 9 -15 10 -14 8 7 7 8
-14 10 -15 9 15 10 15 10 -15 10 -15 10 15 10 15 10 -15 10 -15 10 15 10 15
10 -15 10 -15 10 15 9 14 10 -7 8 -8 7 -10 -14 -9 -15 -10 15 -10 15 -10 -15
-10 -15 -10 15 -10 15 -11 -15 -11 -15 -5 13 -5 12 -6 -1 -7 0 -23 -25z m41
-6 l5 -13 11 15 11 15 10 -15 10 -15 9 14 9 14 18 -17 17 -18 -14 -9 -14 -9
15 -10 15 -10 -15 -10 -15 -10 14 -9 14 -9 -16 -17 -17 -16 -55 56 -56 55 13
15 13 14 7 1 6 0 5 -12z"/>
<path d="M940 995 l0 -6 46 -45 45 -46 7 7 6 6 -14 10 -15 9 15 10 15 10 -15
10 -15 10 15 9 14 10 -7 8 -8 7 -10 -14 -9 -15 -10 15 -10 15 -11 -15 -11 -15
-5 13 -5 12 -9 0 -9 0 0 -5z m67 -30 l15 -16 -5 -6 -6 -5 -16 15 -15 16 0 5 0
6 6 0 5 0 16 -15z"/>
<path d="M1140 1031 l0 -9 13 -5 12 -5 -15 -11 -15 -11 15 -10 15 -10 -15 -10
-15 -10 15 -10 15 -10 -15 -10 -15 -10 15 -10 15 -10 -15 -9 -14 -10 7 -8 8
-7 10 14 9 15 10 -15 10 -15 10 15 10 15 9 -15 10 -14 8 7 7 8 -14 10 -15 9
15 10 15 10 -15 10 -15 10 15 10 15 10 -15 10 -15 10 15 10 15 10 -15 10 -15
10 15 9 14 10 -7 8 -8 7 -10 -14 -9 -15 -10 15 -10 15 -11 -15 -11 -15 -5 13
-5 12 -9 0 -9 0 0 -9z m67 -27 l16 -16 -14 -9 -14 -9 15 -10 15 -10 -15 -10
-15 -10 14 -9 14 -9 -16 -17 -17 -16 -17 16 -16 17 14 9 14 9 -15 10 -15 10
15 10 15 10 -14 9 -14 9 14 16 14 15 3 1 3 0 16 -16z"/>
<path d="M1180 990 l0 -10 10 0 10 0 0 10 0 10 -10 0 -10 0 0 -10z"/>
<path d="M1180 950 l0 -10 10 0 10 0 0 10 0 10 -10 0 -10 0 0 -10z"/>
<path d="M1180 910 l0 -10 10 0 10 0 0 10 0 10 -10 0 -10 0 0 -10z"/>
<path d="M40 971 l0 -9 13 -5 12 -5 -15 -11 -14 -10 6 -7 7 -6 16 16 16 16
-15 15 -15 15 -5 0 -6 0 0 -9z"/>
<path d="M200 824 l0 -15 -14 -15 -15 -14 -25 0 -26 0 0 -10 0 -10 25 0 26 0
24 25 25 24 0 16 0 15 -10 0 -10 0 0 -16z"/>
<path d="M440 824 l0 -15 -14 -15 -15 -14 -25 0 -26 0 0 -10 0 -10 25 0 26 0
24 25 25 24 0 16 0 15 -10 0 -10 0 0 -16z"/>
<path d="M982 754 l-43 -44 26 -25 25 -26 46 47 47 46 -14 9 -14 9 15 9 14 10
-7 8 -8 7 -10 -14 -11 -15 -5 13 -5 12 -6 -1 -7 0 -43 -45z m64 11 l15 -15
-36 -35 -35 -36 -16 15 -15 16 33 34 33 35 3 0 3 1 15 -15z"/>
<path d="M1001 734 l-23 -25 5 -6 6 -5 25 25 26 26 0 6 0 5 -7 -1 -8 0 -24
-25z"/>
<path d="M1140 791 l0 -9 13 -5 12 -5 -14 -10 -14 -10 47 -47 47 -47 7 7 6 6
-14 10 -15 9 15 10 15 10 -15 10 -15 10 15 10 15 10 -15 10 -15 10 15 9 14 10
-7 8 -8 7 -10 -14 -9 -15 -10 15 -10 15 -11 -15 -11 -15 -5 13 -5 12 -9 0 -9
0 0 -9z m67 -27 l16 -16 -14 -9 -14 -9 15 -9 14 -10 -6 -7 -7 -6 -26 26 -26
26 13 15 13 14 3 1 3 0 16 -16z"/>
<path d="M1180 750 l0 -10 10 0 10 0 0 10 0 10 -10 0 -10 0 0 -10z"/>
<path d="M40 731 l0 -9 13 -5 12 -5 -15 -11 -15 -11 15 -10 15 -10 -15 -10
-15 -10 15 -10 15 -10 -15 -10 -15 -10 15 -10 15 -10 -15 -10 -15 -10 15 -10
15 -10 -15 -10 -15 -10 15 -10 15 -10 -15 -10 -15 -10 15 -10 15 -10 -15 -10
-15 -10 15 -10 15 -10 -15 -10 -15 -10 15 -10 15 -10 -15 -10 -15 -10 15 -10
15 -10 -15 -10 -15 -10 15 -10 15 -10 -15 -10 -15 -10 15 -10 15 -10 -14 -9
-14 -9 17 -18 18 -17 9 14 9 14 10 -15 10 -15 10 15 10 15 10 -15 10 -15 10
15 10 15 10 -15 10 -15 10 15 10 15 10 -15 10 -15 10 15 10 15 10 -15 10 -15
10 15 10 15 10 -15 10 -15 10 15 10 15 10 -15 10 -15 10 15 10 15 10 -15 10
-15 10 15 10 15 10 -15 10 -15 10 15 10 15 10 -15 10 -15 10 15 10 15 10 -15
10 -15 10 15 10 15 10 -15 10 -15 10 15 10 15 10 -15 10 -15 10 15 10 15 10
-15 10 -15 10 15 10 15 10 -15 10 -15 10 15 10 15 10 -15 10 -15 10 15 10 15
10 -15 10 -15 10 15 10 15 10 -15 10 -15 10 15 10 15 10 -15 10 -15 10 15 10
15 10 -15 10 -15 10 15 10 15 10 -15 10 -15 10 15 10 15 10 -15 10 -15 10 15
10 15 10 -15 10 -15 10 15 10 15 9 -15 10 -14 6 6 7 7 -37 37 -37 37 -9 -14
-9 -14 -10 15 -10 15 -10 -15 -10 -15 -10 15 -10 15 -10 -15 -10 -15 -10 15
-10 15 -10 -15 -10 -15 -10 15 -10 15 -10 -15 -10 -15 -10 15 -10 15 -10 -15
-10 -15 -10 15 -10 15 -10 -15 -10 -15 -10 15 -10 15 -10 -15 -10 -15 -10 15
-10 15 -10 -15 -10 -15 -10 15 -10 15 -10 -15 -10 -15 -10 15 -10 15 -10 -15
-10 -15 -10 15 -10 15 -10 -15 -10 -15 -10 15 -10 15 -10 -15 -10 -15 -10 15
-10 15 -10 -15 -10 -15 -10 15 -10 15 -10 -15 -10 -15 -10 15 -10 15 -10 -15
-10 -15 -10 15 -10 15 -10 -15 -10 -15 -10 15 -10 15 -10 -15 -10 -15 -10 15
-10 15 -10 -15 -10 -15 -10 15 -10 15 -10 -15 -10 -15 -10 15 -10 15 -9 -14
-9 -14 -37 38 -38 37 14 9 14 9 -15 10 -15 10 15 10 15 10 -15 10 -15 10 15
10 15 10 -15 10 -15 10 15 10 15 10 -15 10 -15 10 15 10 15 10 -15 10 -15 10
15 10 15 10 -15 10 -15 10 15 10 15 10 -15 10 -15 10 15 10 15 10 -15 10 -15
10 14 9 14 9 -26 26 -26 26 -6 0 -5 0 0 -9z m40 -41 l0 -10 -10 0 -10 0 0 10
0 10 10 0 10 0 0 -10z m0 -40 l0 -10 -10 0 -10 0 0 10 0 10 10 0 10 0 0 -10z
m0 -40 l0 -10 -10 0 -10 0 0 10 0 10 10 0 10 0 0 -10z m0 -40 l0 -10 -10 0
-10 0 0 10 0 10 10 0 10 0 0 -10z m0 -40 l0 -10 -10 0 -10 0 0 10 0 10 10 0
10 0 0 -10z m0 -40 l0 -10 -10 0 -10 0 0 10 0 10 10 0 10 0 0 -10z m0 -40 l0
-10 -10 0 -10 0 0 10 0 10 10 0 10 0 0 -10z m0 -40 l0 -10 -10 0 -10 0 0 10 0
10 10 0 10 0 0 -10z m0 -40 l0 -10 -10 0 -10 0 0 10 0 10 10 0 10 0 0 -10z
m32 -72 l40 -41 9 14 9 14 10 -15 10 -15 10 15 10 15 10 -15 10 -15 10 15 10
15 10 -15 10 -15 10 15 10 15 10 -15 10 -15 10 15 10 15 10 -15 10 -15 10 15
10 15 10 -15 10 -15 10 15 10 15 10 -15 10 -15 10 15 10 15 10 -15 10 -15 10
15 10 15 10 -15 10 -15 10 15 10 15 10 -15 10 -15 10 15 10 15 10 -15 10 -15
10 15 10 15 10 -15 10 -15 10 15 10 15 10 -15 10 -15 10 15 10 15 10 -15 10
-15 10 15 10 15 10 -15 10 -15 10 15 10 15 10 -15 10 -15 10 15 10 15 10 -15
10 -15 10 15 10 15 10 -15 10 -15 10 15 10 15 10 -15 10 -15 10 15 10 15 10
-15 10 -15 9 14 9 14 17 -17 17 -17 -6 -7 -7 -6 -10 14 -9 15 -10 -15 -10 -15
-10 15 -10 15 -10 -15 -10 -15 -10 15 -10 15 -10 -15 -10 -15 -10 15 -10 15
-10 -15 -10 -15 -10 15 -10 15 -10 -15 -10 -15 -10 15 -10 15 -10 -15 -10 -15
-10 15 -10 15 -10 -15 -10 -15 -10 15 -10 15 -10 -15 -10 -15 -10 15 -10 15
-10 -15 -10 -15 -10 15 -10 15 -10 -15 -10 -15 -10 15 -10 15 -10 -15 -10 -15
-10 15 -10 15 -10 -15 -10 -15 -10 15 -10 15 -10 -15 -10 -15 -10 15 -10 15
-10 -15 -10 -15 -10 15 -10 15 -10 -15 -10 -15 -10 15 -10 15 -10 -15 -10 -15
-10 15 -10 15 -10 -15 -10 -15 -10 15 -10 15 -10 -15 -10 -15 -10 15 -10 15
-10 -15 -10 -15 -10 15 -10 15 -10 -15 -10 -15 -10 15 -10 15 -10 -15 -10 -15
-10 15 -10 15 -10 -15 -10 -15 -10 15 -10 15 -9 -15 -10 -14 -8 7 -7 8 14 10
15 9 -15 10 -15 10 15 11 15 11 -12 5 -13 5 0 9 0 9 6 0 6 0 40 -42z"/>
<path d="M80 294 l0 -5 15 -16 16 -15 6 5 5 6 -15 16 -16 15 -5 0 -6 0 0 -6z"/>
<path d="M1201 254 l-23 -25 7 -7 6 -6 10 14 9 15 9 -15 10 -14 8 7 7 8 -14
10 -15 11 13 5 12 5 0 9 0 9 -7 -1 -8 0 -24 -25z"/>
<path d="M221 713 l-44 -45 14 -9 14 -9 -15 -9 -14 -10 7 -8 8 -7 10 14 9 15
10 -15 10 -15 10 15 10 15 10 -15 10 -15 10 15 10 15 10 -15 10 -15 10 15 10
15 9 -15 10 -14 8 7 7 8 -14 10 -15 9 14 9 14 9 -46 46 -46 46 -3 -1 -3 0 -44
-46z m85 -8 l35 -35 -16 -17 -17 -16 -9 14 -9 14 -10 -15 -10 -15 -10 15 -10
15 -9 -14 -9 -14 -17 16 -16 17 33 34 33 35 3 0 3 1 35 -35z"/>
<path d="M241 694 l-23 -25 7 -7 6 -6 10 14 9 15 10 -15 10 -15 10 15 10 15 9
-15 10 -14 7 6 6 7 -25 25 -26 26 -3 -1 -3 0 -24 -25z m39 -4 l0 -10 -10 0
-10 0 0 10 0 10 10 0 10 0 0 -10z"/>
<path d="M461 713 l-44 -45 14 -9 14 -9 -15 -9 -14 -10 7 -8 8 -7 10 14 9 15
9 -14 9 -14 46 47 47 46 -25 25 -25 25 -3 -1 -3 0 -44 -46z m65 12 l15 -15
-36 -35 -35 -36 -16 15 -15 16 33 34 33 35 3 0 3 1 15 -15z"/>
<path d="M481 694 l-23 -25 5 -6 6 -5 25 25 26 26 0 6 0 5 -7 -1 -8 0 -24 -25z"/>
<path d="M722 734 l-23 -24 26 -26 25 -25 25 26 26 25 -25 25 -25 25 -3 -1 -3
0 -23 -25z m44 -9 l15 -15 -15 -16 -16 -15 -16 15 -15 16 13 14 13 15 3 1 3 0
15 -15z"/>
<path d="M740 710 l0 -10 10 0 10 0 0 10 0 10 -10 0 -10 0 0 -10z"/>
<path d="M680 584 l0 -15 -14 -15 -15 -14 -25 0 -26 0 0 -10 0 -10 25 0 26 0
24 25 25 24 0 16 0 15 -10 0 -10 0 0 -16z"/>
<path d="M920 584 l0 -15 -14 -15 -15 -14 -25 0 -26 0 0 -10 0 -10 25 0 26 0
24 25 25 24 0 16 0 15 -10 0 -10 0 0 -16z"/>
<path d="M180 551 l0 -9 13 -5 12 -5 -15 -11 -15 -11 15 -10 15 -10 -15 -10
-15 -10 15 -10 15 -10 -15 -10 -15 -10 15 -10 15 -10 -15 -9 -14 -10 7 -8 8
-7 10 14 9 15 10 -15 10 -15 10 15 10 15 10 -15 10 -15 10 15 10 15 10 -15 10
-15 10 15 10 15 9 -15 10 -14 8 7 7 8 -14 10 -15 9 15 10 15 10 -15 10 -15 10
15 10 15 10 -15 10 -15 10 15 10 15 10 -15 10 -15 10 15 9 14 10 -7 8 -8 7
-10 -14 -9 -15 -10 15 -10 15 -10 -15 -10 -15 -10 15 -10 15 -10 -15 -10 -15
-10 15 -10 15 -11 -15 -11 -15 -5 13 -5 12 -9 0 -9 0 0 -9z m63 -23 l5 -13 11
15 11 15 10 -15 10 -15 9 14 9 14 18 -17 17 -18 -14 -9 -14 -9 15 -10 15 -10
-15 -10 -15 -10 14 -9 14 -9 -17 -18 -18 -17 -9 14 -9 14 -10 -15 -10 -15 -10
15 -10 15 -9 -14 -9 -14 -18 17 -17 18 14 9 14 9 -15 10 -15 10 15 10 15 10
-14 9 -14 9 14 16 14 15 7 1 6 0 5 -12z"/>
<path d="M220 511 l0 -9 13 -5 12 -5 -15 -11 -15 -11 15 -10 15 -10 -15 -9
-14 -10 7 -8 8 -7 10 14 9 15 10 -15 10 -15 10 15 10 15 9 -15 10 -14 8 7 7 8
-14 10 -15 9 15 10 15 10 -15 10 -15 10 15 9 14 10 -7 8 -8 7 -10 -14 -9 -15
-10 15 -10 15 -11 -15 -11 -15 -5 13 -5 12 -9 0 -9 0 0 -9z m66 -26 l15 -15
-15 -16 -16 -15 -16 15 -15 16 13 14 13 15 3 1 3 0 15 -15z"/>
<path d="M260 470 l0 -10 10 0 10 0 0 10 0 10 -10 0 -10 0 0 -10z"/>
<path d="M420 551 l0 -9 13 -5 12 -5 -15 -11 -15 -11 15 -10 15 -10 -15 -10
-15 -10 15 -10 15 -10 -15 -10 -15 -10 15 -10 15 -10 -15 -9 -14 -10 7 -8 8
-7 10 14 9 15 10 -15 10 -15 10 15 10 15 10 -15 10 -15 10 15 10 15 10 -15 10
-15 10 15 10 15 9 -15 10 -14 8 7 7 8 -14 10 -15 9 14 9 14 9 -68 67 -67 68
-10 -14 -10 -14 -5 13 -5 12 -9 0 -9 0 0 -9z m106 -66 l55 -55 -16 -17 -17
-16 -9 14 -9 14 -10 -15 -10 -15 -10 15 -10 15 -9 -14 -9 -14 -18 17 -17 18
14 9 14 9 -15 10 -15 10 15 10 15 10 -14 9 -14 9 14 16 14 15 3 1 2 0 56 -55z"/>
<path d="M460 511 l0 -9 13 -5 12 -5 -15 -11 -15 -11 15 -10 15 -10 -15 -9
-14 -10 7 -8 8 -7 10 14 9 15 10 -15 10 -15 10 15 10 15 9 -15 10 -14 6 6 7 7
-46 45 -45 46 -6 0 -5 0 0 -9z m47 -46 l15 -16 -5 -6 -6 -5 -16 15 -15 16 0 5
0 6 6 0 5 0 16 -15z"/>
<path d="M1202 494 l-23 -24 26 -26 26 -26 7 6 6 7 -14 10 -15 9 15 10 15 10
-15 11 -15 11 13 5 12 5 0 9 0 9 -7 -1 -8 0 -23 -25z m18 -24 l0 -10 -10 0
-10 0 0 10 0 10 10 0 10 0 0 -10z"/>
<path d="M701 473 l-44 -45 14 -9 14 -9 -15 -9 -14 -10 7 -8 8 -7 10 14 9 15
10 -15 10 -15 10 15 10 15 10 -15 10 -15 10 15 10 15 10 -15 10 -15 10 15 10
15 9 -15 10 -14 8 7 7 8 -14 10 -15 9 14 9 14 9 -46 46 -46 46 -3 -1 -3 0 -44
-46z m85 -8 l35 -35 -16 -17 -17 -16 -9 14 -9 14 -10 -15 -10 -15 -10 15 -10
15 -9 -14 -9 -14 -17 16 -16 17 33 34 33 35 3 0 3 1 35 -35z"/>
<path d="M721 454 l-23 -25 7 -7 6 -6 10 14 9 15 10 -15 10 -15 10 15 10 15 9
-15 10 -14 7 6 6 7 -25 25 -26 26 -3 -1 -3 0 -24 -25z m39 -4 l0 -10 -10 0
-10 0 0 10 0 10 10 0 10 0 0 -10z"/>
<path d="M941 473 l-44 -45 14 -9 14 -9 -15 -9 -14 -10 7 -8 8 -7 10 14 9 15
9 -14 9 -14 46 47 47 46 -25 25 -25 25 -3 -1 -3 0 -44 -46z m65 12 l15 -15
-36 -35 -35 -36 -16 15 -15 16 33 34 33 35 3 0 3 1 15 -15z"/>
<path d="M961 454 l-23 -25 5 -6 6 -5 25 25 26 26 0 6 0 5 -7 -1 -8 0 -24 -25z"/>
<path d="M1160 344 l0 -15 -14 -15 -15 -14 -25 0 -26 0 0 -10 0 -10 25 0 26 0
24 25 25 24 0 16 0 15 -10 0 -10 0 0 -16z"/>
</g>
</svg>
