<?xml version="1.0" standalone="no"?>
<!DOCTYPE svg PUBLIC "-//W3C//DTD SVG 20010904//EN"
 "http://www.w3.org/TR/2001/REC-SVG-20010904/DTD/svg10.dtd">
<svg version="1.0" xmlns="http://www.w3.org/2000/svg"
 width="468pt" height="468pt" viewBox="0 0 468 468"
 preserveAspectRatio="xMidYMid meet">
<metadata>
Created by potrace 1.8, written by Peter Selinger 2001-2007
</metadata>
<g transform="translate(0,468) scale(0.365625,-0.365625)"
fill="#000000" stroke="none">
<path d="M360 1220 l0 -20 -20 0 -20 0 0 -20 0 -20 -140 0 -140 0 0 -80 0 -80
-20 0 -20 0 0 -440 0 -440 20 0 20 0 0 -20 0 -20 80 0 80 0 0 -20 0 -20 -20 0
-20 0 0 -20 0 -20 20 0 20 0 0 20 0 20 20 0 20 0 0 -20 0 -20 20 0 20 0 0 20
0 20 20 0 20 0 0 -20 0 -20 20 0 20 0 0 20 0 20 20 0 20 0 0 -20 0 -20 20 0
20 0 0 20 0 20 20 0 20 0 0 -20 0 -20 20 0 20 0 0 20 0 20 20 0 20 0 0 -20 0
-20 20 0 20 0 0 20 0 20 20 0 20 0 0 -20 0 -20 20 0 20 0 0 20 0 20 20 0 20 0
0 -20 0 -20 20 0 20 0 0 20 0 20 20 0 20 0 0 -20 0 -20 20 0 20 0 0 20 0 20
20 0 20 0 0 -20 0 -20 20 0 20 0 0 20 0 20 20 0 20 0 0 -20 0 -20 20 0 20 0 0
20 0 20 20 0 20 0 0 -20 0 -20 20 0 20 0 0 20 0 20 20 0 20 0 0 -20 0 -20 20
0 20 0 0 20 0 20 20 0 20 0 0 -20 0 -20 20 0 20 0 0 20 0 20 20 0 20 0 0 20 0
20 -20 0 -20 0 0 20 0 20 20 0 20 0 0 20 0 20 -20 0 -20 0 0 20 0 20 20 0 20
0 0 20 0 20 -20 0 -20 0 0 20 0 20 20 0 20 0 0 20 0 20 -20 0 -20 0 0 20 0 20
20 0 20 0 0 20 0 20 -20 0 -20 0 0 20 0 20 20 0 20 0 0 20 0 20 -20 0 -20 0 0
20 0 20 20 0 20 0 0 20 0 20 -20 0 -20 0 0 20 0 20 20 0 20 0 0 20 0 20 -20 0
-20 0 0 20 0 20 20 0 20 0 0 20 0 20 -20 0 -20 0 0 20 0 20 20 0 20 0 0 20 0
20 -20 0 -20 0 0 20 0 20 20 0 20 0 0 20 0 20 -20 0 -20 0 0 20 0 20 20 0 20
0 0 20 0 20 -20 0 -20 0 0 -20 0 -20 -20 0 -20 0 0 100 0 100 -20 0 -20 0 0
20 0 20 -160 0 -160 0 0 20 0 20 -20 0 -20 0 0 20 0 20 -20 0 -20 0 0 -20 0
-20 -20 0 -20 0 0 -20 0 -20 -140 0 -140 0 0 20 0 20 -20 0 -20 0 0 20 0 20
-20 0 -20 0 0 -20z m40 -180 l0 -160 -20 0 -20 0 0 160 0 160 20 0 20 0 0
-160z m400 0 l0 -160 -20 0 -20 0 0 160 0 160 20 0 20 0 0 -160z m-480 20 l0
-20 -100 0 -100 0 0 20 0 20 100 0 100 0 0 -20z m400 0 l0 -20 -120 0 -120 0
0 20 0 20 120 0 120 0 0 -20z m320 0 l0 -20 -80 0 -80 0 0 20 0 20 80 0 80 0
0 -20z m-720 -100 l0 -40 -20 0 -20 0 0 -40 0 -40 20 0 20 0 0 -20 0 -20 60 0
60 0 0 20 0 20 20 0 20 0 0 80 0 80 120 0 120 0 0 -40 0 -40 -20 0 -20 0 0
-40 0 -40 20 0 20 0 0 -20 0 -20 60 0 60 0 0 20 0 20 20 0 20 0 0 80 0 80 120
0 120 0 0 -320 0 -320 -40 0 -40 0 0 180 0 180 -460 0 -460 0 0 -260 0 -260
380 0 380 0 0 -40 0 -40 -420 0 -420 0 0 440 0 440 140 0 140 0 0 -40z m920
-100 l0 -20 -20 0 -20 0 0 20 0 20 20 0 20 0 0 -20z m0 -80 l0 -20 -20 0 -20
0 0 20 0 20 20 0 20 0 0 -20z m0 -80 l0 -20 -20 0 -20 0 0 20 0 20 20 0 20 0
0 -20z m-1000 -60 l0 -40 -40 0 -40 0 0 40 0 40 40 0 40 0 0 -40z m240 0 l0
-40 -40 0 -40 0 0 40 0 40 40 0 40 0 0 -40z m80 20 l0 -20 20 0 20 0 0 20 0
20 20 0 20 0 0 -40 0 -40 -60 0 -60 0 0 40 0 40 20 0 20 0 0 -20z m200 -20 l0
-40 -40 0 -40 0 0 40 0 40 40 0 40 0 0 -40z m120 20 l0 -20 -20 0 -20 0 0 -20
0 -20 -20 0 -20 0 0 40 0 40 40 0 40 0 0 -20z m120 -20 l0 -40 -40 0 -40 0 0
40 0 40 40 0 40 0 0 -40z m240 -20 l0 -20 -20 0 -20 0 0 20 0 20 20 0 20 0 0
-20z m-1000 -80 l0 -20 -20 0 -20 0 0 -20 0 -20 -20 0 -20 0 0 20 0 20 20 0
20 0 0 20 0 20 20 0 20 0 0 -20z m120 0 l0 -20 -20 0 -20 0 0 -20 0 -20 -20 0
-20 0 0 20 0 20 20 0 20 0 0 20 0 20 20 0 20 0 0 -20z m120 -20 l0 -40 -40 0
-40 0 0 40 0 40 40 0 40 0 0 -40z m120 20 l0 -20 20 0 20 0 0 -20 0 -20 -20 0
-20 0 0 20 0 20 -20 0 -20 0 0 -20 0 -20 -20 0 -20 0 0 20 0 20 20 0 20 0 0
20 0 20 20 0 20 0 0 -20z m400 -20 l0 -40 -40 0 -40 0 0 40 0 40 40 0 40 0 0
-40z m240 20 l0 -20 -20 0 -20 0 0 20 0 20 20 0 20 0 0 -20z m0 -80 l0 -20
-20 0 -20 0 0 20 0 20 20 0 20 0 0 -20z m-1000 -60 l0 -40 -40 0 -40 0 0 40 0
40 40 0 40 0 0 -40z m120 0 l0 -40 -40 0 -40 0 0 40 0 40 40 0 40 0 0 -40z
m200 20 l0 -20 20 0 20 0 0 20 0 20 20 0 20 0 0 -20 0 -20 -20 0 -20 0 0 -20
0 -20 -20 0 -20 0 0 20 0 20 -20 0 -20 0 0 20 0 20 20 0 20 0 0 -20z m200 -20
l0 -40 -40 0 -40 0 0 40 0 40 40 0 40 0 0 -40z m120 20 l0 -20 -20 0 -20 0 0
-20 0 -20 -20 0 -20 0 0 20 0 20 20 0 20 0 0 20 0 20 20 0 20 0 0 -20z m120
-20 l0 -40 -40 0 -40 0 0 40 0 40 40 0 40 0 0 -40z m240 -20 l0 -20 -20 0 -20
0 0 20 0 20 20 0 20 0 0 -20z m-880 -100 l0 -40 -40 0 -40 0 0 40 0 40 40 0
40 0 0 -40z m120 0 l0 -40 -20 0 -20 0 0 20 0 20 -20 0 -20 0 0 20 0 20 40 0
40 0 0 -40z m160 0 l0 -40 -20 0 -20 0 0 20 0 20 -20 0 -20 0 0 -20 0 -20 -20
0 -20 0 0 40 0 40 60 0 60 0 0 -40z m240 0 l0 -40 -40 0 -40 0 0 40 0 40 40 0
40 0 0 -40z m200 20 l0 -20 20 0 20 0 0 -80 0 -80 -80 0 -80 0 0 20 0 20 -20
0 -20 0 0 80 0 80 80 0 80 0 0 -20z m160 0 l0 -20 -20 0 -20 0 0 20 0 20 20 0
20 0 0 -20z m0 -80 l0 -20 -20 0 -20 0 0 20 0 20 20 0 20 0 0 -20z m0 -80 l0
-20 -20 0 -20 0 0 20 0 20 20 0 20 0 0 -20z m-960 -80 l0 -20 -20 0 -20 0 0
20 0 20 20 0 20 0 0 -20z m80 0 l0 -20 -20 0 -20 0 0 20 0 20 20 0 20 0 0 -20z
m80 0 l0 -20 -20 0 -20 0 0 20 0 20 20 0 20 0 0 -20z m80 0 l0 -20 -20 0 -20
0 0 20 0 20 20 0 20 0 0 -20z m80 0 l0 -20 -20 0 -20 0 0 20 0 20 20 0 20 0 0
-20z m80 0 l0 -20 -20 0 -20 0 0 20 0 20 20 0 20 0 0 -20z m80 0 l0 -20 -20 0
-20 0 0 20 0 20 20 0 20 0 0 -20z m80 0 l0 -20 -20 0 -20 0 0 20 0 20 20 0 20
0 0 -20z m80 0 l0 -20 -20 0 -20 0 0 20 0 20 20 0 20 0 0 -20z m80 0 l0 -20
-20 0 -20 0 0 20 0 20 20 0 20 0 0 -20z m80 0 l0 -20 -20 0 -20 0 0 20 0 20
20 0 20 0 0 -20z m80 0 l0 -20 -20 0 -20 0 0 20 0 20 20 0 20 0 0 -20z m80 0
l0 -20 -20 0 -20 0 0 20 0 20 20 0 20 0 0 -20z"/>
<path d="M1040 260 l0 -20 -20 0 -20 0 0 -20 0 -20 -20 0 -20 0 0 -20 0 -20
20 0 20 0 0 20 0 20 20 0 20 0 0 20 0 20 20 0 20 0 0 20 0 20 -20 0 -20 0 0
-20z"/>
</g>
</svg>
