<?xml version="1.0" standalone="no"?>
<!DOCTYPE svg PUBLIC "-//W3C//DTD SVG 20010904//EN"
 "http://www.w3.org/TR/2001/REC-SVG-20010904/DTD/svg10.dtd">
<svg version="1.0" xmlns="http://www.w3.org/2000/svg"
 width="468pt" height="468pt" viewBox="0 0 468 468"
 preserveAspectRatio="xMidYMid meet">
<metadata>
Created by potrace 1.8, written by Peter Selinger 2001-2007
</metadata>
<g transform="translate(0,468) scale(0.365625,-0.365625)"
fill="#000000" stroke="none">
<path d="M220 1034 l0 -126 -30 -28 -30 -28 0 -11 0 -12 -35 -34 -34 -35 -26
0 -25 0 0 -20 0 -20 26 0 26 0 28 30 28 30 16 0 16 0 0 16 0 15 14 15 15 14 5
0 6 0 0 -188 0 -188 -20 -14 -20 -14 0 -14 0 -14 -30 -28 -30 -28 0 -11 0 -11
105 -105 105 -105 11 0 11 0 28 30 28 30 276 0 276 0 0 490 0 490 -370 0 -370
0 0 -126z m91 84 l19 -21 8 8 7 8 -12 4 -13 5 0 9 0 9 26 0 27 0 18 -22 19
-21 8 8 7 8 -12 4 -13 5 0 9 0 9 26 0 27 0 18 -22 19 -21 8 8 7 8 -12 4 -13 5
0 9 0 9 26 0 27 0 18 -22 19 -21 8 8 7 8 -12 4 -13 5 0 9 0 9 26 0 27 0 18
-22 19 -21 8 8 7 8 -12 4 -13 5 0 9 0 9 26 0 27 0 18 -22 19 -21 8 8 7 8 -12
4 -13 5 0 9 0 9 26 0 27 0 18 -22 19 -21 8 8 7 8 -12 4 -13 5 0 9 0 9 26 0 27
0 18 -22 19 -21 8 8 7 8 -12 4 -13 5 0 9 0 9 30 0 30 0 0 -16 0 -17 -22 -18
-21 -19 8 -8 8 -7 4 13 5 12 9 0 9 0 0 -26 0 -27 -22 -18 -21 -19 8 -8 8 -7 4
13 5 12 9 0 9 0 0 -26 0 -27 -22 -18 -21 -19 8 -8 8 -7 4 13 5 12 9 0 9 0 0
-26 0 -27 -22 -18 -21 -19 8 -8 8 -7 4 13 5 12 9 0 9 0 0 -26 0 -27 -22 -18
-21 -19 8 -8 8 -7 4 13 5 12 9 0 9 0 0 -26 0 -27 -22 -18 -21 -19 8 -8 8 -7 4
13 5 12 9 0 9 0 0 -26 0 -27 -22 -18 -21 -19 8 -8 8 -7 4 13 5 12 9 0 9 0 0
-26 0 -27 -22 -18 -21 -19 8 -8 8 -7 4 13 5 12 9 0 9 0 0 -26 0 -27 -22 -18
-21 -19 8 -8 8 -7 4 13 5 12 9 0 9 0 0 -26 0 -27 -22 -18 -21 -19 8 -8 8 -7 4
13 5 12 9 0 9 0 0 -26 0 -27 -22 -18 -21 -19 8 -8 8 -7 4 13 5 12 9 0 9 0 0
-26 0 -25 -14 -15 -15 -14 -24 0 -25 0 -6 13 -6 12 -6 -12 -6 -13 -28 0 -28 0
-6 13 -6 12 -6 -12 -6 -13 -28 0 -28 0 -6 13 -6 12 -6 -12 -6 -13 -28 0 -28 0
-6 13 -6 12 -6 -12 -6 -13 -28 0 -28 0 -6 13 -6 12 -6 -12 -6 -13 -29 0 -29 0
0 20 0 20 9 0 9 0 5 -12 4 -13 9 9 9 9 -12 4 -13 5 0 9 0 9 16 0 15 0 15 14
14 15 0 15 0 16 9 0 9 0 5 -12 4 -13 9 9 9 9 -12 4 -13 5 0 9 0 9 16 0 15 0
15 14 14 15 0 15 0 16 9 0 9 0 5 -12 4 -13 9 9 9 9 -12 4 -13 5 0 9 0 9 16 0
15 0 16 15 15 16 -7 7 -8 7 -4 -12 -5 -13 -9 0 -9 0 0 16 0 15 -14 15 -15 14
-15 0 -16 0 0 9 0 9 13 5 12 4 -9 9 -9 9 -4 -12 -5 -13 -9 0 -9 0 0 15 0 15
56 56 55 56 20 -23 19 -22 7 6 6 7 -21 19 -22 18 0 17 0 16 20 0 20 0 0 10 0
10 -10 0 -10 0 0 10 0 10 16 0 15 0 16 15 15 16 -6 7 -7 6 -9 -14 -9 -14 -8 8
-8 9 13 4 12 5 0 29 0 29 10 0 10 0 0 10 0 10 -20 0 -20 0 0 16 0 17 22 18 21
19 -8 8 -8 7 -4 -12 -5 -13 -14 0 -15 0 -24 25 -25 24 0 15 0 14 13 5 12 4 -7
8 -8 8 -20 -23 -20 -23 -19 21 -18 22 -13 0 -13 0 -18 22 -19 21 -8 -8 -7 -8
13 -4 12 -5 0 -9 0 -9 -26 0 -27 0 -20 23 -20 22 -4 -12 -5 -13 -28 0 -28 0
-5 13 -4 12 -9 -9 -9 -9 13 -4 12 -5 0 -9 0 -9 -20 0 -20 0 0 -10 0 -10 -29 0
-29 0 -5 -12 -4 -13 -9 8 -8 8 14 9 14 9 -6 7 -7 6 -16 -15 -15 -16 0 -15 0
-16 -10 0 -10 0 0 29 0 29 13 6 12 6 -12 6 -13 6 0 28 0 28 13 6 12 6 -12 6
-13 6 0 9 0 9 26 0 27 0 18 -22z m113 -130 l6 -13 6 13 6 12 28 0 28 0 6 -12
6 -13 6 13 6 12 9 0 9 0 0 -16 0 -15 15 -16 16 -15 7 7 7 8 -12 4 -13 5 0 9 0
9 20 0 20 0 0 -10 0 -10 20 0 20 0 0 -10 0 -10 16 0 15 0 15 -14 14 -15 0 -15
0 -16 10 0 10 0 0 -29 0 -29 -12 -6 -13 -6 13 -6 12 -6 0 -9 0 -9 -16 0 -15 0
-16 -15 -15 -16 6 -7 7 -6 9 14 9 14 8 -8 8 -9 -12 -4 -13 -5 0 -14 0 -14 -65
-65 -65 -65 -15 0 -15 0 0 9 0 9 13 5 12 4 -9 9 -9 9 -4 -12 -5 -13 -9 0 -9 0
0 16 0 15 -14 15 -15 14 -15 0 -16 0 0 9 0 9 13 5 12 4 -7 8 -7 7 -16 -15 -15
-16 0 -15 0 -16 -9 0 -9 0 -5 13 -4 12 -9 -9 -9 -9 13 -4 12 -5 0 -9 0 -9 -16
0 -15 0 -15 -14 -14 -15 0 -15 0 -16 -9 0 -9 0 -5 13 -4 12 -9 -9 -9 -9 13 -4
12 -5 0 -9 0 -9 -16 0 -15 0 -15 -14 -14 -15 0 -15 0 -16 -10 0 -10 0 0 29 0
29 13 6 12 6 -12 6 -13 6 0 28 0 28 13 6 12 6 -12 6 -13 6 0 28 0 28 13 6 12
6 -12 6 -13 6 0 28 0 28 13 6 12 6 -12 6 -13 6 0 28 0 28 13 6 12 6 -12 6 -13
6 0 9 0 9 16 0 15 0 15 14 14 15 0 15 0 16 10 0 10 0 0 -10 0 -10 10 0 10 0 0
20 0 20 16 0 17 0 18 -22 19 -21 8 8 7 8 -12 4 -13 5 0 19 0 19 9 0 9 0 6 -12z
m121 -443 l95 -95 0 -10 0 -10 -145 -145 -145 -145 -10 0 -10 0 -95 95 -95 95
0 10 0 10 143 144 142 144 13 1 12 1 95 -95z"/>
<path d="M271 1084 l-13 -15 6 -6 5 -5 16 15 15 16 0 5 0 6 -7 0 -8 -1 -14
-15z"/>
<path d="M351 1084 l-13 -15 6 -6 5 -5 16 15 15 16 0 5 0 6 -7 0 -8 -1 -14
-15z"/>
<path d="M431 1084 l-13 -15 6 -6 5 -5 16 15 15 16 0 5 0 6 -7 0 -8 -1 -14
-15z"/>
<path d="M511 1084 l-13 -15 6 -6 5 -5 16 15 15 16 0 5 0 6 -7 0 -8 -1 -14
-15z"/>
<path d="M591 1084 l-13 -15 6 -6 5 -5 16 15 15 16 0 5 0 6 -7 0 -8 -1 -14
-15z"/>
<path d="M671 1084 l-13 -15 6 -6 5 -5 16 15 15 16 0 5 0 6 -7 0 -8 -1 -14
-15z"/>
<path d="M751 1084 l-13 -15 6 -6 5 -5 16 15 15 16 0 5 0 6 -7 0 -8 -1 -14
-15z"/>
<path d="M831 1084 l-13 -15 6 -6 5 -5 16 15 15 16 0 5 0 6 -7 0 -8 -1 -14
-15z"/>
<path d="M300 1054 l0 -5 15 -16 16 -15 6 5 5 6 -15 16 -16 15 -5 0 -6 0 0 -6z"/>
<path d="M620 1054 l0 -5 15 -16 16 -15 6 5 5 6 -15 16 -16 15 -5 0 -6 0 0 -6z"/>
<path d="M700 1054 l0 -5 15 -16 16 -15 6 5 5 6 -15 16 -16 15 -5 0 -6 0 0 -6z"/>
<path d="M780 1054 l0 -5 15 -16 16 -15 6 5 5 6 -15 16 -16 15 -5 0 -6 0 0 -6z"/>
<path d="M860 1054 l0 -5 15 -16 16 -15 6 5 5 6 -15 16 -16 15 -5 0 -6 0 0 -6z"/>
<path d="M751 1004 l-13 -15 6 -6 5 -5 16 15 15 16 0 5 0 6 -7 0 -8 -1 -14
-15z"/>
<path d="M831 1004 l-13 -15 6 -6 5 -5 16 15 15 16 0 5 0 6 -7 0 -8 -1 -14
-15z"/>
<path d="M700 974 l0 -5 15 -16 16 -15 6 5 5 6 -15 16 -16 15 -5 0 -6 0 0 -6z"/>
<path d="M780 974 l0 -5 15 -16 16 -15 6 5 5 6 -15 16 -16 15 -5 0 -6 0 0 -6z"/>
<path d="M860 974 l0 -5 15 -16 16 -15 6 5 5 6 -15 16 -16 15 -5 0 -6 0 0 -6z"/>
<path d="M831 924 l-13 -15 6 -6 5 -5 16 15 15 16 0 5 0 6 -7 0 -8 -1 -14 -15z"/>
<path d="M780 894 l0 -5 15 -16 16 -15 6 5 5 6 -15 16 -16 15 -5 0 -6 0 0 -6z"/>
<path d="M860 894 l0 -5 15 -16 16 -15 6 5 5 6 -15 16 -16 15 -5 0 -6 0 0 -6z"/>
<path d="M831 844 l-13 -15 6 -6 5 -5 16 15 15 16 0 5 0 6 -7 0 -8 -1 -14 -15z"/>
<path d="M780 814 l0 -5 15 -16 16 -15 6 5 5 6 -15 16 -16 15 -5 0 -6 0 0 -6z"/>
<path d="M860 814 l0 -5 15 -16 16 -15 6 5 5 6 -15 16 -16 15 -5 0 -6 0 0 -6z"/>
<path d="M831 764 l-13 -15 6 -6 5 -5 16 15 15 16 0 5 0 6 -7 0 -8 -1 -14 -15z"/>
<path d="M780 734 l0 -5 15 -16 16 -15 6 5 5 6 -15 16 -16 15 -5 0 -6 0 0 -6z"/>
<path d="M860 734 l0 -5 15 -16 16 -15 6 5 5 6 -15 16 -16 15 -5 0 -6 0 0 -6z"/>
<path d="M751 684 l-13 -15 6 -6 5 -5 16 15 15 16 0 5 0 6 -7 0 -8 -1 -14 -15z"/>
<path d="M831 684 l-13 -15 6 -6 5 -5 16 15 15 16 0 5 0 6 -7 0 -8 -1 -14 -15z"/>
<path d="M780 654 l0 -5 15 -16 16 -15 6 5 5 6 -15 16 -16 15 -5 0 -6 0 0 -6z"/>
<path d="M860 654 l0 -5 15 -16 16 -15 6 5 5 6 -15 16 -16 15 -5 0 -6 0 0 -6z"/>
<path d="M671 604 l-13 -15 6 -6 5 -5 16 15 15 16 0 5 0 6 -7 0 -8 -1 -14 -15z"/>
<path d="M751 604 l-13 -15 6 -6 5 -5 16 15 15 16 0 5 0 6 -7 0 -8 -1 -14 -15z"/>
<path d="M831 604 l-13 -15 6 -6 5 -5 16 15 15 16 0 5 0 6 -7 0 -8 -1 -14 -15z"/>
<path d="M620 574 l0 -5 15 -16 16 -15 6 5 5 6 -15 16 -16 15 -5 0 -6 0 0 -6z"/>
<path d="M700 574 l0 -5 15 -16 16 -15 6 5 5 6 -15 16 -16 15 -5 0 -6 0 0 -6z"/>
<path d="M780 574 l0 -5 15 -16 16 -15 6 5 5 6 -15 16 -16 15 -5 0 -6 0 0 -6z"/>
<path d="M860 574 l0 -5 15 -16 16 -15 6 5 5 6 -15 16 -16 15 -5 0 -6 0 0 -6z"/>
<path d="M671 524 l-13 -15 6 -6 5 -5 16 15 15 16 0 5 0 6 -7 0 -8 -1 -14 -15z"/>
<path d="M751 524 l-13 -15 6 -6 5 -5 16 15 15 16 0 5 0 6 -7 0 -8 -1 -14 -15z"/>
<path d="M831 524 l-13 -15 6 -6 5 -5 16 15 15 16 0 5 0 6 -7 0 -8 -1 -14 -15z"/>
<path d="M700 494 l0 -5 15 -16 16 -15 6 5 5 6 -15 16 -16 15 -5 0 -6 0 0 -6z"/>
<path d="M780 494 l0 -5 15 -16 16 -15 6 5 5 6 -15 16 -16 15 -5 0 -6 0 0 -6z"/>
<path d="M860 494 l0 -5 15 -16 16 -15 6 5 5 6 -15 16 -16 15 -5 0 -6 0 0 -6z"/>
<path d="M751 444 l-13 -15 6 -6 5 -5 16 15 15 16 0 5 0 6 -7 0 -8 -1 -14 -15z"/>
<path d="M831 444 l-13 -15 6 -6 5 -5 16 15 15 16 0 5 0 6 -7 0 -8 -1 -14 -15z"/>
<path d="M700 414 l0 -5 15 -16 16 -15 6 5 5 6 -15 16 -16 15 -5 0 -6 0 0 -6z"/>
<path d="M780 414 l0 -5 15 -16 16 -15 6 5 5 6 -15 16 -16 15 -5 0 -6 0 0 -6z"/>
<path d="M860 414 l0 -5 15 -16 16 -15 6 5 5 6 -15 16 -16 15 -5 0 -6 0 0 -6z"/>
<path d="M671 364 l-13 -15 6 -6 5 -5 16 15 15 16 0 5 0 6 -7 0 -8 -1 -14 -15z"/>
<path d="M751 364 l-13 -15 6 -6 5 -5 16 15 15 16 0 5 0 6 -7 0 -8 -1 -14 -15z"/>
<path d="M831 364 l-13 -15 6 -6 5 -5 16 15 15 16 0 5 0 6 -7 0 -8 -1 -14 -15z"/>
<path d="M620 334 l0 -5 15 -16 16 -15 6 5 5 6 -15 16 -16 15 -5 0 -6 0 0 -6z"/>
<path d="M700 334 l0 -5 15 -16 16 -15 6 5 5 6 -15 16 -16 15 -5 0 -6 0 0 -6z"/>
<path d="M780 334 l0 -5 15 -16 16 -15 6 5 5 6 -15 16 -16 15 -5 0 -6 0 0 -6z"/>
<path d="M860 334 l0 -5 15 -16 16 -15 6 5 5 6 -15 16 -16 15 -5 0 -6 0 0 -6z"/>
<path d="M591 284 l-13 -15 6 -6 5 -5 16 15 15 16 0 5 0 6 -7 0 -8 -1 -14 -15z"/>
<path d="M671 284 l-13 -15 6 -6 5 -5 16 15 15 16 0 5 0 6 -7 0 -8 -1 -14 -15z"/>
<path d="M751 284 l-13 -15 6 -6 5 -5 16 15 15 16 0 5 0 6 -7 0 -8 -1 -14 -15z"/>
<path d="M831 284 l-13 -15 6 -6 5 -5 16 15 15 16 0 5 0 6 -7 0 -8 -1 -14 -15z"/>
<path d="M540 254 l0 -5 15 -16 16 -15 6 5 5 6 -15 16 -16 15 -5 0 -6 0 0 -6z"/>
<path d="M620 254 l0 -5 15 -16 16 -15 6 5 5 6 -15 16 -16 15 -5 0 -6 0 0 -6z"/>
<path d="M700 254 l0 -5 15 -16 16 -15 6 5 5 6 -15 16 -16 15 -5 0 -6 0 0 -6z"/>
<path d="M780 254 l0 -5 15 -16 16 -15 6 5 5 6 -15 16 -16 15 -5 0 -6 0 0 -6z"/>
<path d="M860 254 l0 -5 15 -16 16 -15 6 5 5 6 -15 16 -16 15 -5 0 -6 0 0 -6z"/>
<path d="M460 974 l0 -5 15 -16 16 -15 6 5 5 6 -15 16 -16 15 -5 0 -6 0 0 -6z"/>
<path d="M351 924 l-13 -15 6 -6 5 -5 16 15 15 16 0 5 0 6 -7 0 -8 -1 -14 -15z"/>
<path d="M431 924 l-13 -15 6 -6 5 -5 16 15 15 16 0 5 0 6 -7 0 -8 -1 -14 -15z"/>
<path d="M511 924 l-13 -15 6 -6 5 -5 16 15 15 16 0 5 0 6 -7 0 -8 -1 -14 -15z"/>
<path d="M591 924 l-13 -15 6 -6 5 -5 16 15 15 16 0 5 0 6 -7 0 -8 -1 -14 -15z"/>
<path d="M660 910 l0 -10 10 0 10 0 0 10 0 10 -10 0 -10 0 0 -10z"/>
<path d="M300 894 l0 -5 15 -16 16 -15 6 5 5 6 -15 16 -16 15 -5 0 -6 0 0 -6z"/>
<path d="M380 894 l0 -5 15 -16 16 -15 6 5 5 6 -15 16 -16 15 -5 0 -6 0 0 -6z"/>
<path d="M460 894 l0 -5 15 -16 16 -15 6 5 5 6 -15 16 -16 15 -5 0 -6 0 0 -6z"/>
<path d="M540 894 l0 -5 15 -16 16 -15 6 5 5 6 -15 16 -16 15 -5 0 -6 0 0 -6z"/>
<path d="M620 894 l0 -5 15 -16 16 -15 6 5 5 6 -15 16 -16 15 -5 0 -6 0 0 -6z"/>
<path d="M271 844 l-13 -15 6 -6 5 -5 16 15 15 16 0 5 0 6 -7 0 -8 -1 -14 -15z"/>
<path d="M351 844 l-13 -15 6 -6 5 -5 16 15 15 16 0 5 0 6 -7 0 -8 -1 -14 -15z"/>
<path d="M431 844 l-13 -15 6 -6 5 -5 16 15 15 16 0 5 0 6 -7 0 -8 -1 -14 -15z"/>
<path d="M511 844 l-13 -15 6 -6 5 -5 16 15 15 16 0 5 0 6 -7 0 -8 -1 -14 -15z"/>
<path d="M591 844 l-13 -15 6 -6 5 -5 16 15 15 16 0 5 0 6 -7 0 -8 -1 -14 -15z"/>
<path d="M671 844 l-13 -15 6 -6 5 -5 16 15 15 16 0 5 0 6 -7 0 -8 -1 -14 -15z"/>
<path d="M300 814 l0 -5 15 -16 16 -15 6 5 5 6 -15 16 -16 15 -5 0 -6 0 0 -6z"/>
<path d="M380 814 l0 -5 15 -16 16 -15 6 5 5 6 -15 16 -16 15 -5 0 -6 0 0 -6z"/>
<path d="M460 814 l0 -5 15 -16 16 -15 6 5 5 6 -15 16 -16 15 -5 0 -6 0 0 -6z"/>
<path d="M540 814 l0 -5 15 -16 16 -15 6 5 5 6 -15 16 -16 15 -5 0 -6 0 0 -6z"/>
<path d="M620 814 l0 -5 15 -16 16 -15 6 5 5 6 -15 16 -16 15 -5 0 -6 0 0 -6z"/>
<path d="M271 764 l-13 -15 6 -6 5 -5 16 15 15 16 0 5 0 6 -7 0 -8 -1 -14 -15z"/>
<path d="M351 764 l-13 -15 6 -6 5 -5 16 15 15 16 0 5 0 6 -7 0 -8 -1 -14 -15z"/>
<path d="M431 764 l-13 -15 6 -6 5 -5 16 15 15 16 0 5 0 6 -7 0 -8 -1 -14 -15z"/>
<path d="M511 764 l-13 -15 6 -6 5 -5 16 15 15 16 0 5 0 6 -7 0 -8 -1 -14 -15z"/>
<path d="M591 764 l-13 -15 6 -6 5 -5 16 15 15 16 0 5 0 6 -7 0 -8 -1 -14 -15z"/>
<path d="M300 734 l0 -5 15 -16 16 -15 6 5 5 6 -15 16 -16 15 -5 0 -6 0 0 -6z"/>
<path d="M380 734 l0 -5 15 -16 16 -15 6 5 5 6 -15 16 -16 15 -5 0 -6 0 0 -6z"/>
<path d="M460 734 l0 -5 15 -16 16 -15 6 5 5 6 -15 16 -16 15 -5 0 -6 0 0 -6z"/>
<path d="M540 734 l0 -5 15 -16 16 -15 6 5 5 6 -15 16 -16 15 -5 0 -6 0 0 -6z"/>
<path d="M620 734 l0 -5 15 -16 16 -15 6 5 5 6 -15 16 -16 15 -5 0 -6 0 0 -6z"/>
<path d="M271 684 l-13 -15 6 -6 5 -5 16 15 15 16 0 5 0 6 -7 0 -8 -1 -14 -15z"/>
<path d="M351 684 l-13 -15 6 -6 5 -5 16 15 15 16 0 5 0 6 -7 0 -8 -1 -14 -15z"/>
<path d="M511 684 l-13 -15 6 -6 5 -5 16 15 15 16 0 5 0 6 -7 0 -8 -1 -14 -15z"/>
<path d="M591 684 l-13 -15 6 -6 5 -5 16 15 15 16 0 5 0 6 -7 0 -8 -1 -14 -15z"/>
<path d="M300 654 l0 -5 15 -16 16 -15 6 5 5 6 -15 16 -16 15 -5 0 -6 0 0 -6z"/>
<path d="M540 654 l0 -5 15 -16 16 -15 6 5 5 6 -15 16 -16 15 -5 0 -6 0 0 -6z"/>
<path d="M271 604 l-13 -15 6 -6 5 -5 16 15 15 16 0 5 0 6 -7 0 -8 -1 -14 -15z"/>
<path d="M383 535 l-43 -45 0 -15 0 -15 15 0 16 0 44 45 45 44 0 16 0 15 -17
-1 -18 0 -42 -44z"/>
<path d="M443 475 l-43 -45 0 -15 0 -15 15 0 16 0 44 45 45 44 0 16 0 15 -17
-1 -18 0 -42 -44z"/>
<path d="M503 415 l-43 -45 0 -15 0 -15 15 0 16 0 44 45 45 44 0 16 0 15 -17
-1 -18 0 -42 -44z"/>
</g>
</svg>
