<?xml version="1.0" standalone="no"?>
<!DOCTYPE svg PUBLIC "-//W3C//DTD SVG 20010904//EN"
 "http://www.w3.org/TR/2001/REC-SVG-20010904/DTD/svg10.dtd">
<svg version="1.0" xmlns="http://www.w3.org/2000/svg"
 width="468pt" height="468pt" viewBox="0 0 468 468"
 preserveAspectRatio="xMidYMid meet">
<metadata>
Created by potrace 1.8, written by Peter Selinger 2001-2007
</metadata>
<g transform="translate(0,468) scale(0.365625,-0.365625)"
fill="#000000" stroke="none">
<path d="M720 1230 l0 -10 -30 0 -30 0 0 -10 0 -10 -30 0 -30 0 0 -10 0 -10
-20 0 -20 0 0 -10 0 -10 -20 0 -20 0 0 -10 0 -10 -20 0 -20 0 0 -10 0 -10 -16
0 -16 0 -28 -30 -28 -30 -11 0 -11 0 -75 -75 -75 -75 0 -11 0 -11 -31 -29 -32
-30 8 -7 8 -7 4 13 5 12 9 0 9 0 0 -20 0 -20 -20 0 -20 0 0 -9 0 -9 13 -6 12
-6 -12 -6 -13 -6 0 -19 0 -19 -10 0 -10 0 0 -20 0 -20 -10 0 -10 0 0 -30 0
-30 -19 0 -19 0 -5 13 -4 12 -8 -7 -8 -8 21 -19 22 -18 0 -7 0 -6 -19 0 -19 0
-5 13 -4 12 -8 -7 -8 -8 23 -20 23 -20 -8 -8 -8 -7 -4 13 -5 12 -9 0 -9 0 0
-120 0 -120 10 0 10 0 0 -30 0 -30 10 0 10 0 0 -20 0 -20 10 0 10 0 0 -15 0
-16 35 -34 34 -35 16 0 15 0 0 -10 0 -10 20 0 20 0 0 -10 0 -10 30 0 30 0 0
-10 0 -10 130 0 130 0 0 10 0 10 50 0 50 0 0 10 0 10 28 0 28 0 14 20 14 20
16 0 16 0 14 20 14 20 16 0 16 0 14 20 14 20 13 0 13 0 65 65 65 65 0 11 0 11
40 38 40 38 0 16 0 16 10 0 10 0 0 18 0 18 20 14 20 14 0 18 0 18 10 0 10 0 0
20 0 20 10 0 10 0 0 20 0 20 -10 0 -10 0 0 10 0 10 20 0 20 0 0 20 0 20 -10 0
-10 0 0 -10 0 -10 -10 0 -10 0 0 50 0 50 -10 0 -10 0 0 -40 0 -40 -10 0 -10 0
0 -40 0 -40 -10 0 -10 0 0 -18 0 -18 -20 -14 -20 -14 0 -18 0 -18 -10 0 -10 0
0 -16 0 -16 -40 -38 -40 -38 0 -11 0 -11 -66 -66 -65 -66 -6 6 -5 5 52 51 53
52 -14 8 -13 9 8 8 9 8 4 -12 5 -13 9 0 9 0 0 16 0 16 31 29 31 29 -15 15 -16
15 -5 0 -6 0 0 -16 0 -15 -15 -16 -16 -15 -7 7 -7 8 13 4 12 5 0 19 0 19 10 0
10 0 0 19 0 19 -12 5 -13 4 9 9 9 9 4 -12 5 -13 9 0 9 0 0 19 0 19 13 5 12 4
-9 9 -9 9 -4 -12 -5 -13 -14 0 -15 0 -24 -25 -25 -24 0 -16 0 -15 -10 0 -10 0
0 20 0 20 -10 0 -10 0 0 -20 0 -20 10 0 10 0 0 -10 0 -10 -20 0 -20 0 0 10 0
10 -10 0 -10 0 0 -20 0 -20 20 0 20 0 0 -10 0 -10 -16 0 -15 0 -15 14 -14 15
0 14 0 15 -12 5 -13 5 15 11 14 10 -8 8 -9 8 -4 -12 -5 -13 -9 0 -9 0 0 46 0
45 14 15 15 14 45 0 46 0 0 55 0 56 25 24 24 25 21 0 21 0 15 -14 14 -15 0
-14 0 -15 -12 -5 -13 -4 9 -9 9 -9 4 13 5 12 9 0 9 0 0 -36 0 -35 14 -15 15
-14 15 0 16 0 0 -10 0 -10 -10 0 -10 0 0 -20 0 -20 10 0 10 0 0 19 0 19 13 5
12 5 -15 12 -15 12 13 5 12 5 0 9 0 9 -20 0 -20 0 0 -10 0 -10 -10 0 -10 0 0
20 0 20 10 0 10 0 0 20 0 20 20 0 20 0 0 -9 0 -9 -12 -5 -13 -4 7 -8 7 -7 17
17 17 17 -14 9 -14 9 15 10 15 10 -14 9 -14 9 17 18 18 17 8 -14 9 -13 8 7 7
8 -14 10 -15 9 15 10 15 10 -15 10 -15 10 15 10 15 10 -14 9 -14 9 17 17 17
17 7 -6 6 -7 -13 -9 -14 -8 16 -16 16 -16 5 0 6 0 0 40 0 40 -10 0 -10 0 0 30
0 30 -10 0 -10 0 0 20 0 20 -10 0 -10 0 0 15 0 16 -35 34 -34 35 -16 0 -15 0
0 10 0 10 -20 0 -20 0 0 10 0 10 -30 0 -30 0 0 10 0 10 -120 0 -120 0 0 -10z
m24 -82 l6 -13 6 13 6 12 29 0 29 0 0 -20 0 -20 -10 0 -10 0 0 10 0 10 -19 0
-19 0 -4 -12 -5 -13 -16 17 -17 17 0 5 0 6 9 0 9 0 6 -12z m116 2 l0 -10 -10
0 -10 0 0 10 0 10 10 0 10 0 0 -10z m40 0 l0 -10 -10 0 -10 0 0 10 0 10 10 0
10 0 0 -10z m60 4 l0 -5 -14 -15 -15 -14 -5 0 -6 0 0 20 0 20 20 0 20 0 0 -6z
m-254 -28 l14 -15 0 -5 0 -6 -20 0 -20 0 0 -10 0 -10 -10 0 -10 0 0 30 0 30
16 0 15 0 15 -14z m294 4 l0 -10 20 0 20 0 0 -20 0 -20 10 0 10 0 0 -20 0 -20
10 0 10 0 0 10 0 10 10 0 10 0 0 -20 0 -20 10 0 10 0 0 -19 0 -19 13 -5 12 -5
-15 -11 -15 -11 15 -10 15 -10 -15 -9 -14 -10 23 -20 23 -20 -26 -26 -25 -25
-6 0 -5 0 0 29 0 29 13 6 12 6 -12 6 -13 6 0 29 0 29 10 0 10 0 0 10 0 10 -20
0 -20 0 0 10 0 10 10 0 10 0 0 10 0 10 -16 0 -15 0 -15 14 -14 15 0 11 0 12
-30 28 -30 28 0 6 0 6 10 0 10 0 0 -10z m-360 -36 l0 -25 -14 -15 -15 -14 -5
0 -6 0 0 20 0 20 10 0 10 0 0 20 0 20 10 0 10 0 0 -26z m-40 -4 l0 -10 -10 0
-10 0 0 -16 0 -15 -14 -15 -15 -14 -12 0 -12 0 -19 -22 -19 -22 -9 13 -8 14
-17 -16 -16 -17 15 -15 15 -15 15 0 16 0 0 20 0 20 20 0 20 0 0 10 0 10 19 0
19 0 5 13 4 12 22 -25 22 -24 9 13 8 14 26 -26 26 -26 0 -15 0 -14 -12 -5 -13
-4 9 -9 9 -9 4 13 5 12 9 0 9 0 0 -20 0 -20 -10 0 -10 0 0 -16 0 -15 -14 -15
-15 -14 -35 0 -36 0 0 9 0 9 13 5 12 4 -9 9 -9 9 -4 -12 -5 -13 -19 0 -19 0 0
10 0 10 -16 0 -16 0 -38 40 -38 40 -15 0 -15 0 -4 12 -5 13 -18 -18 -18 -19
13 -8 13 -8 -17 -18 -18 -17 -8 13 -8 13 -17 -17 -17 -17 6 -7 7 -6 10 14 9
15 10 -15 10 -15 10 15 10 15 9 -15 10 -14 8 7 7 8 -14 10 -15 9 15 10 15 10
-15 9 -14 10 6 7 7 6 16 -15 15 -16 0 -21 0 -21 -14 -15 -15 -14 -34 0 -35 0
-5 -12 -5 -13 -11 15 -10 14 -7 -6 -6 -7 17 -17 17 -17 8 13 8 13 36 -36 36
-36 0 -15 0 -14 -12 -5 -13 -4 9 -9 9 -9 4 13 5 12 9 0 9 0 0 -20 0 -20 10 0
10 0 0 -36 0 -35 -14 -15 -15 -14 -14 0 -15 0 -6 -12 -6 -13 -6 13 -6 12 -24
0 -25 0 -24 25 -25 24 0 16 0 15 -10 0 -10 0 0 30 0 30 -6 0 -5 0 -15 -14 -14
-15 0 -15 0 -16 -10 0 -10 0 0 -20 0 -20 -9 0 -9 0 -5 13 -4 12 -9 -9 -9 -9
13 -4 12 -5 0 -29 0 -29 -10 0 -10 0 0 -29 0 -29 -12 -5 -13 -5 15 -11 15 -11
-15 -10 -15 -10 15 -10 15 -10 -15 -11 -15 -11 13 -5 12 -5 0 -9 0 -9 -20 0
-20 0 0 19 0 19 13 6 12 6 -12 6 -13 6 0 38 0 38 13 6 12 6 -12 6 -13 6 0 19
0 19 9 0 9 0 5 -12 4 -13 8 7 8 8 -24 21 -24 22 13 4 12 5 0 29 0 29 10 0 10
0 0 18 0 18 20 14 20 14 0 14 0 13 16 16 16 16 8 -14 9 -13 8 7 7 8 -14 9 -14
8 32 30 32 30 0 11 0 12 45 44 44 45 12 0 11 0 31 33 30 32 4 -12 5 -13 19 0
19 0 0 9 0 9 -12 4 -13 5 17 16 17 17 15 0 16 0 0 10 0 10 20 0 20 0 0 -10z
m-120 -120 l0 -10 -10 0 -10 0 0 10 0 10 10 0 10 0 0 -10z m640 -180 l0 -10
-10 0 -10 0 0 10 0 10 10 0 10 0 0 -10z m-160 -250 l0 -20 -10 0 -10 0 0 -20
0 -20 -10 0 -10 0 0 -20 0 -20 -10 0 -10 0 0 28 0 28 20 14 20 14 0 18 0 18
10 0 10 0 0 -20z m-214 -54 l14 -15 0 -11 0 -12 -41 -39 -41 -40 6 -7 7 -6 10
14 11 15 5 -12 5 -13 9 0 9 0 0 25 0 26 25 25 25 25 16 -16 16 -16 -7 -7 -8
-7 -4 13 -5 12 -9 0 -9 0 0 -20 0 -20 -10 0 -10 0 0 -20 0 -20 10 0 10 0 0 10
0 10 10 0 10 0 0 -19 0 -19 13 -6 12 -6 -12 -6 -13 -6 0 -18 0 -18 12 -4 12
-4 -27 -28 -28 -28 -6 6 -6 6 24 21 24 22 -12 4 -13 5 0 19 0 19 10 0 10 0 0
10 0 10 -19 0 -19 0 -5 -12 -4 -13 -21 24 -21 23 -16 -15 -15 -16 0 -12 0 -12
-22 -19 -22 -19 14 -10 15 -11 -12 -5 -13 -5 0 -19 0 -19 -9 0 -9 0 -6 13 -6
12 -6 -12 -6 -13 -19 0 -19 0 0 -9 0 -9 12 -4 13 -5 -18 -18 -19 -18 -9 14 -9
14 -10 -15 -10 -15 -10 15 -10 15 -10 -15 -10 -15 -10 15 -10 15 -9 -15 -10
-14 -7 6 -6 7 17 17 17 17 9 -14 9 -14 10 15 10 15 9 -14 9 -15 30 32 30 32
16 0 16 0 0 10 0 10 20 0 20 0 0 10 0 10 -20 0 -20 0 0 10 0 10 16 0 15 0 16
16 16 16 -14 9 -14 9 15 9 14 10 -7 8 -8 7 -10 -14 -9 -15 -10 15 -10 15 -10
-15 -10 -15 -9 15 -10 14 -8 -7 -7 -8 13 -8 14 -9 -36 -36 -36 -36 -11 0 -11
0 -15 14 -14 15 0 21 0 21 25 24 24 25 56 0 55 0 0 45 0 46 13 14 12 14 43 1
43 0 15 -14z m141 -61 l15 -16 -5 -6 -6 -5 -16 15 -15 16 0 5 0 6 6 0 5 0 16
-15z m-47 -45 l0 -20 9 0 9 0 5 13 4 12 8 -7 7 -7 -16 -16 -16 -16 -15 15 -15
15 0 15 0 16 10 0 10 0 0 -20z m-680 -50 l0 -30 10 0 10 0 0 -20 0 -20 10 0
10 0 0 -20 0 -20 18 0 18 0 14 -20 14 -20 14 0 13 0 16 -15 15 -16 -7 -7 -8
-7 -4 13 -5 12 -17 0 -17 0 -14 20 -14 20 -14 0 -13 0 -24 25 -25 24 0 16 0
15 -10 0 -10 0 0 30 0 30 -10 0 -10 0 0 10 0 10 20 0 20 0 0 -30z m466 -4 l14
-15 0 -5 0 -6 -16 0 -15 0 -15 -14 -14 -15 0 -15 0 -16 -30 0 -30 0 0 5 0 5
43 45 42 44 3 0 3 1 15 -14z m94 -22 l0 -15 -15 -16 -16 -15 -7 7 -7 8 13 4
12 5 0 19 0 19 10 0 10 0 0 -16z m40 -14 l0 -10 -10 0 -10 0 0 10 0 10 10 0
10 0 0 -10z m-20 -40 l0 -10 -10 0 -10 0 0 10 0 10 10 0 10 0 0 -10z m-40 -20
l0 -10 -10 0 -10 0 0 10 0 10 10 0 10 0 0 -10z m40 -20 l0 -10 -10 0 -10 0 0
10 0 10 10 0 10 0 0 -10z m-40 -20 l0 -10 -10 0 -10 0 0 10 0 10 10 0 10 0 0
-10z m-340 -30 l0 -20 -10 0 -10 0 0 20 0 20 10 0 10 0 0 -20z m40 0 l0 -20
-10 0 -10 0 0 20 0 20 10 0 10 0 0 -20z m220 10 l0 -10 -10 0 -10 0 0 10 0 10
10 0 10 0 0 -10z m40 0 l0 -10 -10 0 -10 0 0 10 0 10 10 0 10 0 0 -10z"/>
<path d="M1120 870 l0 -10 10 0 10 0 0 10 0 10 -10 0 -10 0 0 -10z"/>
<path d="M540 1050 l0 -10 10 0 10 0 0 10 0 10 -10 0 -10 0 0 -10z"/>
<path d="M580 980 l0 -20 -9 0 -9 0 -4 12 -5 13 -17 -18 -18 -18 6 -7 7 -6 10
14 9 15 9 -14 9 -14 16 16 16 16 0 15 0 16 -10 0 -10 0 0 -20z"/>
<path d="M640 950 l0 -10 10 0 10 0 0 10 0 10 -10 0 -10 0 0 -10z"/>
<path d="M520 910 l0 -10 10 0 10 0 0 10 0 10 -10 0 -10 0 0 -10z"/>
<path d="M600 910 l0 -10 10 0 10 0 0 10 0 10 -10 0 -10 0 0 -10z"/>
<path d="M560 890 l0 -10 10 0 10 0 0 10 0 10 -10 0 -10 0 0 -10z"/>
<path d="M640 870 l0 -10 10 0 10 0 0 10 0 10 -10 0 -10 0 0 -10z"/>
<path d="M280 790 l0 -10 10 0 10 0 0 10 0 10 -10 0 -10 0 0 -10z"/>
<path d="M320 770 l0 -10 10 0 10 0 0 10 0 10 -10 0 -10 0 0 -10z"/>
<path d="M220 750 l0 -10 10 0 10 0 0 10 0 10 -10 0 -10 0 0 -10z"/>
<path d="M280 750 l0 -10 10 0 10 0 0 10 0 10 -10 0 -10 0 0 -10z"/>
<path d="M360 750 l0 -10 10 0 10 0 0 10 0 10 -10 0 -10 0 0 -10z"/>
<path d="M320 710 l0 -10 10 0 10 0 0 10 0 10 -10 0 -10 0 0 -10z"/>
<path d="M180 690 l0 -10 10 0 10 0 0 10 0 10 -10 0 -10 0 0 -10z"/>
<path d="M300 670 l0 -10 10 0 10 0 0 10 0 10 -10 0 -10 0 0 -10z"/>
<path d="M360 670 l0 -10 10 0 10 0 0 10 0 10 -10 0 -10 0 0 -10z"/>
<path d="M320 630 l0 -10 10 0 10 0 0 10 0 10 -10 0 -10 0 0 -10z"/>
<path d="M400 630 l0 -10 10 0 10 0 0 10 0 10 -10 0 -10 0 0 -10z"/>
<path d="M360 610 l0 -10 10 0 10 0 0 10 0 10 -10 0 -10 0 0 -10z"/>
<path d="M640 470 l0 -10 10 0 10 0 0 10 0 10 -10 0 -10 0 0 -10z"/>
<path d="M680 471 l0 -9 13 -5 12 -5 -15 -11 -14 -10 6 -7 7 -6 16 16 16 16
-15 15 -15 15 -5 0 -6 0 0 -9z"/>
<path d="M640 430 l0 -10 10 0 10 0 0 10 0 10 -10 0 -10 0 0 -10z"/>
<path d="M640 390 l0 -10 10 0 10 0 0 10 0 10 -10 0 -10 0 0 -10z"/>
<path d="M520 350 l0 -10 10 0 10 0 0 10 0 10 -10 0 -10 0 0 -10z"/>
<path d="M740 350 l0 -10 10 0 10 0 0 10 0 10 -10 0 -10 0 0 -10z"/>
<path d="M480 310 l0 -10 10 0 10 0 0 10 0 10 -10 0 -10 0 0 -10z"/>
<path d="M540 170 l0 -10 10 0 10 0 0 10 0 10 -10 0 -10 0 0 -10z"/>
<path d="M1200 870 l0 -10 10 0 10 0 0 10 0 10 -10 0 -10 0 0 -10z"/>
<path d="M1200 830 l0 -10 10 0 10 0 0 10 0 10 -10 0 -10 0 0 -10z"/>
<path d="M960 790 l0 -10 10 0 10 0 0 10 0 10 -10 0 -10 0 0 -10z"/>
<path d="M1200 790 l0 -10 10 0 10 0 0 10 0 10 -10 0 -10 0 0 -10z"/>
<path d="M920 750 l0 -10 10 0 10 0 0 10 0 10 -10 0 -10 0 0 -10z"/>
<path d="M1200 750 l0 -10 10 0 10 0 0 10 0 10 -10 0 -10 0 0 -10z"/>
<path d="M960 710 l0 -10 10 0 10 0 0 10 0 10 -10 0 -10 0 0 -10z"/>
<path d="M991 684 l-13 -15 6 -6 5 -5 16 15 15 16 0 5 0 6 -7 0 -8 -1 -14 -15z"/>
<path d="M80 670 l0 -10 10 0 10 0 0 10 0 10 -10 0 -10 0 0 -10z"/>
<path d="M920 670 l0 -10 10 0 10 0 0 10 0 10 -10 0 -10 0 0 -10z"/>
<path d="M1020 650 l0 -10 10 0 10 0 0 -28 0 -28 -20 -14 -20 -14 0 -14 0 -13
14 -15 15 -14 5 0 6 0 0 20 0 20 10 0 10 0 0 19 0 19 13 6 12 6 -12 6 -13 6 0
15 0 14 -14 15 -15 14 -5 0 -6 0 0 -10z m20 -100 l0 -10 -10 0 -10 0 0 10 0
10 10 0 10 0 0 -10z"/>
<path d="M800 630 l0 -10 10 0 10 0 0 10 0 10 -10 0 -10 0 0 -10z"/>
<path d="M840 630 l0 -10 10 0 10 0 0 10 0 10 -10 0 -10 0 0 -10z"/>
<path d="M880 630 l0 -10 10 0 10 0 0 10 0 10 -10 0 -10 0 0 -10z"/>
<path d="M960 630 l0 -10 10 0 10 0 0 10 0 10 -10 0 -10 0 0 -10z"/>
<path d="M920 610 l0 -10 -20 0 -20 0 0 -10 0 -10 16 0 15 0 15 14 14 15 0 5
0 6 -10 0 -10 0 0 -10z"/>
<path d="M800 590 l0 -10 10 0 10 0 0 10 0 10 -10 0 -10 0 0 -10z"/>
<path d="M840 590 l0 -10 10 0 10 0 0 10 0 10 -10 0 -10 0 0 -10z"/>
<path d="M840 550 l0 -10 10 0 10 0 0 10 0 10 -10 0 -10 0 0 -10z"/>
</g>
</svg>
