<?xml version="1.0" standalone="no"?>
<!DOCTYPE svg PUBLIC "-//W3C//DTD SVG 20010904//EN"
 "http://www.w3.org/TR/2001/REC-SVG-20010904/DTD/svg10.dtd">
<svg version="1.0" xmlns="http://www.w3.org/2000/svg"
 width="468pt" height="468pt" viewBox="0 0 468 468"
 preserveAspectRatio="xMidYMid meet">
<metadata>
Created by potrace 1.8, written by Peter Selinger 2001-2007
</metadata>
<g transform="translate(0,468) scale(0.365625,-0.365625)"
fill="#000000" stroke="none">
<path d="M0 1120 l0 -160 105 0 105 0 0 -55 0 -55 -105 0 -105 0 0 -425 0
-425 55 0 55 0 0 375 0 375 50 0 50 0 0 -110 0 -110 160 0 160 0 0 110 0 110
110 0 110 0 0 160 0 160 -110 0 -110 0 0 40 0 40 375 0 375 0 0 65 0 65 -425
0 -425 0 0 -105 0 -105 -55 0 -55 0 0 105 0 105 -160 0 -160 0 0 -160z m210 0
l0 -50 -50 0 -50 0 0 50 0 50 50 0 50 0 0 -50z m220 -215 l0 -55 -55 0 -55 0
0 55 0 55 55 0 55 0 0 -55z m210 -15 l0 -40 -55 0 -55 0 0 40 0 40 55 0 55 0
0 -40z m-210 -195 l0 -55 -55 0 -55 0 0 55 0 55 55 0 55 0 0 -55z"/>
</g>
</svg>
