<?xml version="1.0" standalone="no"?>
<!DOCTYPE svg PUBLIC "-//W3C//DTD SVG 20010904//EN"
 "http://www.w3.org/TR/2001/REC-SVG-20010904/DTD/svg10.dtd">
<svg version="1.0" xmlns="http://www.w3.org/2000/svg"
 width="468pt" height="468pt" viewBox="0 0 468 468"
 preserveAspectRatio="xMidYMid meet">
<metadata>
Created by potrace 1.8, written by Peter Selinger 2001-2007
</metadata>
<g transform="translate(0,468) scale(0.365625,-0.365625)"
fill="#000000" stroke="none">
<path d="M0 940 l0 -340 300 0 300 0 0 -300 0 -300 340 0 340 0 0 340 0 340
-300 0 -300 0 0 300 0 300 -340 0 -340 0 0 -340z m600 -5 l0 -255 -255 0 -255
0 0 255 0 255 255 0 255 0 0 -255z m590 -590 l0 -255 -255 0 -255 0 0 255 0
255 255 0 255 0 0 -255z"/>
<path d="M170 940 l0 -170 170 0 170 0 0 170 0 170 -170 0 -170 0 0 -170z"/>
<path d="M770 340 l0 -170 170 0 170 0 0 170 0 170 -170 0 -170 0 0 -170z"/>
<path d="M770 980 l0 -210 210 0 210 0 0 210 0 210 -210 0 -210 0 0 -210z"/>
<path d="M90 300 l0 -210 210 0 210 0 0 210 0 210 -210 0 -210 0 0 -210z"/>
</g>
</svg>
