<?xml version="1.0" standalone="no"?>
<!DOCTYPE svg PUBLIC "-//W3C//DTD SVG 20010904//EN"
 "http://www.w3.org/TR/2001/REC-SVG-20010904/DTD/svg10.dtd">
<svg version="1.0" xmlns="http://www.w3.org/2000/svg"
 width="468pt" height="468pt" viewBox="0 0 468 468"
 preserveAspectRatio="xMidYMid meet">
<metadata>
Created by potrace 1.8, written by Peter Selinger 2001-2007
</metadata>
<g transform="translate(0,468) scale(0.365625,-0.365625)"
fill="#000000" stroke="none">
<path d="M510 1265 l0 -15 -15 0 -15 0 0 -15 0 -15 -15 0 -15 0 0 15 0 15 -15
0 -15 0 0 -30 0 -30 -15 0 -15 0 0 15 0 15 -30 0 -30 0 0 -15 0 -15 -15 0 -15
0 0 -15 0 -15 -30 0 -30 0 0 -15 0 -15 -15 0 -15 0 0 -15 0 -15 -15 0 -15 0 0
-30 0 -30 -30 0 -30 0 0 -30 0 -30 -45 0 -45 0 0 -15 0 -15 15 0 15 0 0 -15 0
-15 -15 0 -15 0 0 -30 0 -30 15 0 15 0 0 -15 0 -15 30 0 30 0 0 -15 0 -15 -15
0 -15 0 0 -30 0 -30 -15 0 -15 0 0 30 0 30 -15 0 -15 0 0 -60 0 -60 -15 0 -15
0 0 -40 0 -40 15 0 15 0 0 -30 0 -30 15 0 15 0 0 -30 0 -30 15 0 15 0 0 -30 0
-30 15 0 15 0 0 15 0 15 45 0 45 0 0 15 0 15 15 0 15 0 0 -15 0 -15 -15 0 -15
0 0 -15 0 -15 -30 0 -30 0 0 -15 0 -15 15 0 15 0 0 -15 0 -15 -15 0 -15 0 0
-15 0 -15 -15 0 -15 0 0 -15 0 -15 15 0 15 0 0 15 0 15 30 0 30 0 0 -15 0 -15
15 0 15 0 0 15 0 15 15 0 15 0 0 30 0 30 45 0 45 0 0 15 0 15 15 0 15 0 0 -15
0 -15 45 0 45 0 0 -15 0 -15 -45 0 -45 0 0 -15 0 -15 -30 0 -30 0 0 -30 0 -30
15 0 15 0 0 -15 0 -15 15 0 15 0 0 15 0 15 15 0 15 0 0 -15 0 -15 30 0 30 0 0
15 0 15 30 0 30 0 0 15 0 15 15 0 15 0 0 -90 0 -90 -15 0 -15 0 0 -30 0 -30
-15 0 -15 0 0 -15 0 -15 -255 0 -255 0 0 -15 0 -15 640 0 640 0 0 15 0 15
-285 0 -285 0 0 15 0 15 -15 0 -15 0 0 90 0 90 45 0 45 0 0 -15 0 -15 45 0 45
0 0 15 0 15 -15 0 -15 0 0 30 0 30 -15 0 -15 0 0 15 0 15 30 0 30 0 0 -15 0
-15 120 0 120 0 0 15 0 15 -45 0 -45 0 0 15 0 15 30 0 30 0 0 30 0 30 -15 0
-15 0 0 -15 0 -15 -15 0 -15 0 0 15 0 15 -15 0 -15 0 0 30 0 30 15 0 15 0 0
15 0 15 15 0 15 0 0 -15 0 -15 30 0 30 0 0 -15 0 -15 15 0 15 0 0 -15 0 -15
15 0 15 0 0 30 0 30 30 0 30 0 0 15 0 15 15 0 15 0 0 15 0 15 -15 0 -15 0 0
15 0 15 30 0 30 0 0 40 0 40 -30 0 -30 0 0 15 0 15 -15 0 -15 0 0 30 0 30 15
0 15 0 0 -15 0 -15 30 0 30 0 0 30 0 30 -15 0 -15 0 0 30 0 30 -15 0 -15 0 0
-15 0 -15 -15 0 -15 0 0 15 0 15 15 0 15 0 0 30 0 30 -15 0 -15 0 0 15 0 15
-15 0 -15 0 0 30 0 30 -15 0 -15 0 0 15 0 15 -15 0 -15 0 0 15 0 15 -30 0 -30
0 0 -15 0 -15 15 0 15 0 0 -15 0 -15 30 0 30 0 0 -30 0 -30 15 0 15 0 0 -15 0
-15 15 0 15 0 0 -15 0 -15 -15 0 -15 0 0 15 0 15 -15 0 -15 0 0 15 0 15 -30 0
-30 0 0 30 0 30 -15 0 -15 0 0 15 0 15 -15 0 -15 0 0 15 0 15 15 0 15 0 0 30
0 30 -15 0 -15 0 0 30 0 30 -15 0 -15 0 0 15 0 15 -15 0 -15 0 0 -15 0 -15
-15 0 -15 0 0 15 0 15 -15 0 -15 0 0 15 0 15 15 0 15 0 0 15 0 15 -30 0 -30 0
0 15 0 15 -45 0 -45 0 0 -15 0 -15 -15 0 -15 0 0 15 0 15 -115 0 -115 0 0 -15z
m30 -30 l0 -15 -15 0 -15 0 0 15 0 15 15 0 15 0 0 -15z m60 0 l0 -15 -15 0
-15 0 0 15 0 15 15 0 15 0 0 -15z m0 -60 l0 -15 -30 0 -30 0 0 15 0 15 30 0
30 0 0 -15z m170 0 l0 -15 -15 0 -15 0 0 15 0 15 15 0 15 0 0 -15z m60 0 l0
-15 -15 0 -15 0 0 15 0 15 15 0 15 0 0 -15z m-380 -30 l0 -15 15 0 15 0 0 15
0 15 15 0 15 0 0 -15 0 -15 -15 0 -15 0 0 -15 0 -15 -15 0 -15 0 0 15 0 15
-15 0 -15 0 0 -15 0 -15 -15 0 -15 0 0 -15 0 -15 -15 0 -15 0 0 15 0 15 -15 0
-15 0 0 15 0 15 15 0 15 0 0 -15 0 -15 15 0 15 0 0 15 0 15 15 0 15 0 0 15 0
15 15 0 15 0 0 -15z m440 0 l0 -15 -15 0 -15 0 0 15 0 15 15 0 15 0 0 -15z
m-240 -30 l0 -15 -40 0 -40 0 0 15 0 15 40 0 40 0 0 -15z m330 0 l0 -15 -15 0
-15 0 0 15 0 15 15 0 15 0 0 -15z m-410 -60 l0 -15 -15 0 -15 0 0 -30 0 -30
-45 0 -45 0 0 15 0 15 15 0 15 0 0 15 0 15 30 0 30 0 0 15 0 15 15 0 15 0 0
-15z m60 0 l0 -15 -15 0 -15 0 0 15 0 15 15 0 15 0 0 -15z m110 0 l0 -15 -15
0 -15 0 0 15 0 15 15 0 15 0 0 -15z m-380 -30 l0 -15 -15 0 -15 0 0 15 0 15
15 0 15 0 0 -15z m440 0 l0 -15 15 0 15 0 0 -15 0 -15 -15 0 -15 0 0 15 0 15
-15 0 -15 0 0 -15 0 -15 -30 0 -30 0 0 15 0 15 30 0 30 0 0 15 0 15 15 0 15 0
0 -15z m-560 -30 l0 -15 -15 0 -15 0 0 15 0 15 15 0 15 0 0 -15z m650 -30 l0
-15 15 0 15 0 0 15 0 15 15 0 15 0 0 -15 0 -15 15 0 15 0 0 -30 0 -30 -15 0
-15 0 0 30 0 30 -15 0 -15 0 0 -15 0 -15 -15 0 -15 0 0 15 0 15 -15 0 -15 0 0
15 0 15 15 0 15 0 0 -15z m-740 -30 l0 -15 -15 0 -15 0 0 -30 0 -30 -30 0 -30
0 0 15 0 15 15 0 15 0 0 30 0 30 30 0 30 0 0 -15z m90 0 l0 -15 -15 0 -15 0 0
15 0 15 15 0 15 0 0 -15z m60 0 l0 -15 -15 0 -15 0 0 15 0 15 15 0 15 0 0 -15z
m120 0 l0 -15 30 0 30 0 0 -15 0 -15 -30 0 -30 0 0 15 0 15 -15 0 -15 0 0 -15
0 -15 -15 0 -15 0 0 -15 0 -15 -30 0 -30 0 0 15 0 15 30 0 30 0 0 15 0 15 15
0 15 0 0 15 0 15 15 0 15 0 0 -15z m260 0 l0 -15 -25 0 -25 0 0 15 0 15 25 0
25 0 0 -15z m-80 -30 l0 -15 -15 0 -15 0 0 15 0 15 15 0 15 0 0 -15z m-360
-30 l0 -15 15 0 15 0 0 -15 0 -15 -15 0 -15 0 0 15 0 15 -15 0 -15 0 0 15 0
15 15 0 15 0 0 -15z m530 0 l0 -15 15 0 15 0 0 -15 0 -15 15 0 15 0 0 -15 0
-15 -15 0 -15 0 0 15 0 15 -15 0 -15 0 0 15 0 15 -15 0 -15 0 0 -15 0 -15 -15
0 -15 0 0 15 0 15 15 0 15 0 0 15 0 15 15 0 15 0 0 -15z m150 0 l0 -15 -15 0
-15 0 0 15 0 15 15 0 15 0 0 -15z m120 -30 l0 -45 -15 0 -15 0 0 45 0 45 15 0
15 0 0 -45z m60 0 l0 -15 -15 0 -15 0 0 15 0 15 15 0 15 0 0 -15z m-890 -30
l0 -15 -15 0 -15 0 0 15 0 15 15 0 15 0 0 -15z m150 0 l0 -15 -15 0 -15 0 0
-30 0 -30 -15 0 -15 0 0 30 0 30 15 0 15 0 0 15 0 15 15 0 15 0 0 -15z m240
-15 l0 -30 -30 0 -30 0 0 15 0 15 15 0 15 0 0 15 0 15 15 0 15 0 0 -30z m80
15 l0 -15 -15 0 -15 0 0 15 0 15 15 0 15 0 0 -15z m210 -30 l0 -15 -15 0 -15
0 0 15 0 15 15 0 15 0 0 -15z m240 0 l0 -15 -15 0 -15 0 0 15 0 15 15 0 15 0
0 -15z m-680 -45 l0 -30 -15 0 -15 0 0 15 0 15 -15 0 -15 0 0 -30 0 -30 15 0
15 0 0 -15 0 -15 -15 0 -15 0 0 15 0 15 -15 0 -15 0 0 30 0 30 15 0 15 0 0 15
0 15 30 0 30 0 0 -30z m350 15 l0 -15 -15 0 -15 0 0 15 0 15 15 0 15 0 0 -15z
m-710 -60 l0 -15 15 0 15 0 0 -15 0 -15 15 0 15 0 0 -10 0 -10 15 0 15 0 0
-15 0 -15 15 0 15 0 0 -15 0 -15 -30 0 -30 0 0 30 0 30 -15 0 -15 0 0 10 0 10
-15 0 -15 0 0 -10 0 -10 -15 0 -15 0 0 -15 0 -15 -15 0 -15 0 0 25 0 25 30 0
30 0 0 15 0 15 -15 0 -15 0 0 15 0 15 15 0 15 0 0 -15z m240 0 l0 -15 -75 0
-75 0 0 15 0 15 75 0 75 0 0 -15z m270 0 l0 -15 -15 0 -15 0 0 15 0 15 15 0
15 0 0 -15z m50 0 l0 -15 -10 0 -10 0 0 15 0 15 10 0 10 0 0 -15z m450 0 l0
-15 -15 0 -15 0 0 15 0 15 15 0 15 0 0 -15z m60 0 l0 -15 15 0 15 0 0 -25 0
-25 -15 0 -15 0 0 -30 0 -30 15 0 15 0 0 -15 0 -15 -15 0 -15 0 0 15 0 15 -15
0 -15 0 0 -15 0 -15 -30 0 -30 0 0 55 0 55 15 0 15 0 0 -25 0 -25 15 0 15 0 0
25 0 25 15 0 15 0 0 15 0 15 -15 0 -15 0 0 15 0 15 15 0 15 0 0 -15z m-390
-70 l0 -25 -30 0 -30 0 0 -15 0 -15 -15 0 -15 0 0 15 0 15 15 0 15 0 0 15 0
15 15 0 15 0 0 10 0 10 15 0 15 0 0 -25z m90 15 l0 -10 -15 0 -15 0 0 10 0 10
15 0 15 0 0 -10z m-440 -25 l0 -15 -15 0 -15 0 0 15 0 15 15 0 15 0 0 -15z
m560 0 l0 -15 30 0 30 0 0 -30 0 -30 -30 0 -30 0 0 -15 0 -15 -15 0 -15 0 0
60 0 60 15 0 15 0 0 -15z m-710 -30 l0 -15 -15 0 -15 0 0 15 0 15 15 0 15 0 0
-15z m90 0 l0 -15 -15 0 -15 0 0 -15 0 -15 -15 0 -15 0 0 15 0 15 15 0 15 0 0
15 0 15 15 0 15 0 0 -15z m210 0 l0 -15 -15 0 -15 0 0 15 0 15 15 0 15 0 0
-15z m350 0 l0 -15 -30 0 -30 0 0 15 0 15 30 0 30 0 0 -15z m-90 -30 l0 -15
30 0 30 0 0 -15 0 -15 -45 0 -45 0 0 30 0 30 15 0 15 0 0 -15z m-650 -30 l0
-15 -15 0 -15 0 0 15 0 15 15 0 15 0 0 -15z m60 0 l0 -15 -15 0 -15 0 0 15 0
15 15 0 15 0 0 -15z m240 0 l0 -15 -30 0 -30 0 0 15 0 15 30 0 30 0 0 -15z
m90 -15 l0 -30 -15 0 -15 0 0 15 0 15 -15 0 -15 0 0 15 0 15 30 0 30 0 0 -30z
m110 15 l0 -15 -15 0 -15 0 0 15 0 15 15 0 15 0 0 -15z m-200 -60 l0 -15 -15
0 -15 0 0 15 0 15 15 0 15 0 0 -15z m350 -15 l0 -30 -15 0 -15 0 0 30 0 30 15
0 15 0 0 -30z m60 15 l0 -15 -15 0 -15 0 0 15 0 15 15 0 15 0 0 -15z m-560
-30 l0 -15 -15 0 -15 0 0 15 0 15 15 0 15 0 0 -15z m380 0 l0 -15 -15 0 -15 0
0 15 0 15 15 0 15 0 0 -15z m-470 -60 l0 -15 -15 0 -15 0 0 15 0 15 15 0 15 0
0 -15z m330 -15 l0 -30 -30 0 -30 0 0 15 0 15 15 0 15 0 0 15 0 15 15 0 15 0
0 -30z m350 15 l0 -15 -15 0 -15 0 0 15 0 15 15 0 15 0 0 -15z m60 0 l0 -15
-15 0 -15 0 0 15 0 15 15 0 15 0 0 -15z m-210 -30 l0 -15 -15 0 -15 0 0 15 0
15 15 0 15 0 0 -15z m-320 -30 l0 -15 -30 0 -30 0 0 15 0 15 30 0 30 0 0 -15z
m260 0 l0 -15 30 0 30 0 0 -15 0 -15 15 0 15 0 0 -15 0 -15 -15 0 -15 0 0 15
0 15 -30 0 -30 0 0 15 0 15 -15 0 -15 0 0 15 0 15 15 0 15 0 0 -15z"/>
</g>
</svg>
