<?xml version="1.0" standalone="no"?>
<!DOCTYPE svg PUBLIC "-//W3C//DTD SVG 20010904//EN"
 "http://www.w3.org/TR/2001/REC-SVG-20010904/DTD/svg10.dtd">
<svg version="1.0" xmlns="http://www.w3.org/2000/svg"
 width="468pt" height="468pt" viewBox="0 0 468 468"
 preserveAspectRatio="xMidYMid meet">
<metadata>
Created by potrace 1.8, written by Peter Selinger 2001-2007
</metadata>
<g transform="translate(0,468) scale(0.365625,-0.365625)"
fill="#000000" stroke="none">
<path d="M760 1210 l0 -10 10 0 10 0 0 10 0 10 -10 0 -10 0 0 -10z"/>
<path d="M620 1190 l0 -10 10 0 10 0 0 10 0 10 -10 0 -10 0 0 -10z"/>
<path d="M660 1190 l0 -10 20 0 20 0 0 -6 0 -5 -14 -15 -15 -14 -15 0 -16 0 0
-10 0 -10 16 0 17 0 18 21 18 21 17 -16 16 -17 -6 -7 -7 -6 -9 14 -9 14 -19
-22 -19 -22 -17 0 -16 0 0 -10 0 -10 20 0 20 0 0 -20 0 -20 -10 0 -10 0 0 -30
0 -30 10 0 10 0 0 10 0 10 20 0 20 0 0 -10 0 -10 -10 0 -10 0 0 -16 0 -15 14
-15 15 -14 15 0 16 0 0 10 0 10 -20 0 -20 0 0 10 0 10 30 0 30 0 0 20 0 20 20
0 20 0 0 -9 0 -9 -12 -6 -13 -6 13 -6 12 -6 0 -9 0 -9 -20 0 -20 0 0 -20 0
-20 -10 0 -10 0 0 -16 0 -15 14 -15 15 -14 11 0 12 0 28 -30 28 -30 16 0 16 0
0 -16 0 -15 14 -15 15 -14 15 0 16 0 0 -10 0 -10 30 0 30 0 0 -9 0 -9 -12 -6
-13 -6 13 -6 12 -6 0 -19 0 -19 -10 0 -10 0 0 15 0 16 -25 24 -24 25 -6 0 -5
0 0 -16 0 -17 22 -18 21 -19 -7 -7 -7 -7 -9 14 -9 14 -7 -7 -7 -7 24 -20 23
-21 -14 -10 -15 -11 13 -5 12 -5 0 -29 0 -29 -10 0 -10 0 0 -50 0 -50 -10 0
-10 0 0 -18 0 -18 -20 -14 -20 -14 0 -18 0 -18 -10 0 -10 0 0 -90 0 -90 10 0
10 0 0 -20 0 -20 10 0 10 0 0 -20 0 -20 10 0 10 0 0 20 0 20 -10 0 -10 0 0 30
0 30 -10 0 -10 0 0 70 0 70 10 0 10 0 0 18 0 18 20 14 20 14 0 28 0 28 10 0
10 0 0 50 0 50 10 0 10 0 0 36 0 35 15 16 16 15 7 -7 7 -8 -12 -4 -13 -5 0
-19 0 -19 10 0 10 0 0 19 0 19 12 6 13 6 -12 6 -13 6 0 38 0 38 12 4 13 5 -17
16 -17 17 -25 0 -26 0 0 10 0 10 10 0 10 0 0 26 0 25 15 16 16 15 7 -7 7 -8
-12 -4 -13 -5 0 -29 0 -29 20 0 20 0 0 19 0 19 -12 5 -13 5 15 12 15 12 -12 5
-13 5 0 19 0 19 -9 0 -9 0 -5 -12 -4 -13 -8 7 -8 8 22 19 23 20 -26 26 -25 25
-16 0 -15 0 0 18 0 18 -20 14 -20 14 0 18 0 18 -10 0 -10 0 0 50 0 50 -20 0
-20 0 0 -39 0 -39 13 -5 12 -4 -9 -9 -9 -9 -4 13 -5 12 -9 0 -9 0 0 -20 0 -20
-20 0 -20 0 0 10 0 10 10 0 10 0 0 30 0 30 10 0 10 0 0 20 0 20 -10 0 -10 0 0
-10 0 -10 -25 0 -26 0 -26 26 -26 26 14 8 13 9 -7 8 -8 7 -10 -14 -11 -15 -5
13 -5 12 -19 0 -19 0 0 -10z m106 -104 l14 -15 0 -25 0 -26 -10 0 -10 0 0 -20
0 -20 -10 0 -10 0 0 20 0 20 -30 0 -30 0 0 6 0 5 17 17 16 17 5 -13 4 -12 9 0
9 0 0 30 0 30 6 0 5 0 15 -14z m134 -76 l0 -10 -10 0 -10 0 0 10 0 10 10 0 10
0 0 -10z m27 -46 l16 -16 -13 -8 -13 -8 18 -19 18 -18 5 13 4 12 19 0 19 0 0
-10 0 -10 -20 0 -20 0 0 -40 0 -40 -20 0 -20 0 0 10 0 10 -40 0 -40 0 0 20 0
20 10 0 10 0 0 19 0 19 -12 4 -12 4 24 27 25 26 13 0 13 1 16 -16z m-121 -78
l14 -15 0 -5 0 -6 -20 0 -20 0 0 20 0 20 6 0 5 0 15 -14z m94 -76 l0 -10 20 0
20 0 0 -20 0 -20 9 0 9 0 5 13 4 12 8 -7 7 -7 -16 -16 -16 -16 -35 35 -35 35
0 6 0 5 10 0 10 0 0 -10z"/>
<path d="M870 943 l-14 -17 12 -4 12 -4 0 -19 0 -19 -10 0 -10 0 0 -10 0 -10
20 0 20 0 0 20 0 20 10 0 10 0 0 -20 0 -20 10 0 10 0 0 18 0 18 -20 14 -20 14
0 18 0 18 -7 0 -8 -1 -15 -16z"/>
<path d="M800 1190 l0 -10 10 0 10 0 0 10 0 10 -10 0 -10 0 0 -10z"/>
<path d="M540 1170 l0 -10 10 0 10 0 0 10 0 10 -10 0 -10 0 0 -10z"/>
<path d="M460 1150 l0 -10 -20 0 -20 0 0 -10 0 -10 20 0 20 0 0 -20 0 -20 -10
0 -10 0 0 -20 0 -20 -10 0 -10 0 0 20 0 20 10 0 10 0 0 10 0 10 -30 0 -30 0 0
-10 0 -10 -16 0 -15 0 -16 -15 -15 -16 21 -18 21 -18 0 -17 0 -16 40 0 40 0 0
10 0 10 18 0 18 0 14 20 14 20 17 0 17 0 4 12 5 13 17 -18 17 -17 -16 -17 -17
-16 -8 14 -9 13 -8 -8 -8 -9 13 -4 12 -5 0 -29 0 -29 -10 0 -10 0 0 -20 0 -20
-36 0 -35 0 -16 -15 -15 -16 7 -7 8 -7 4 13 5 12 19 0 19 0 0 -5 0 -6 -27 -27
-27 -26 -4 12 -4 12 -9 0 -9 0 0 -50 0 -50 -55 0 -56 0 -34 -35 -35 -34 0 -11
0 -11 35 -34 34 -35 12 0 11 0 28 -30 28 -30 36 0 36 0 0 -10 0 -10 40 0 40 0
0 -60 0 -60 10 0 10 0 0 -30 0 -30 -46 0 -45 0 -15 -14 -14 -15 0 -15 0 -16
-10 0 -10 0 0 -56 0 -55 15 -16 16 -15 7 7 7 8 -12 4 -13 5 0 54 0 55 26 26
25 25 7 -7 7 -8 -12 -4 -13 -5 0 -29 0 -29 -10 0 -10 0 0 -30 0 -30 20 0 20 0
0 10 0 10 -10 0 -10 0 0 20 0 20 10 0 10 0 0 15 0 16 25 24 24 25 36 0 35 0 0
-10 0 -10 20 0 20 0 0 -10 0 -10 -35 0 -36 0 -34 -35 -35 -34 0 -26 0 -25 10
0 10 0 0 -30 0 -30 10 0 10 0 0 -10 0 -10 -30 0 -30 0 0 10 0 10 -19 0 -19 0
-5 13 -4 12 -8 -7 -7 -7 25 -25 26 -26 46 0 45 0 0 20 0 20 30 0 30 0 0 -10 0
-10 60 0 60 0 0 10 0 10 10 0 10 0 0 -20 0 -20 10 0 10 0 0 38 0 38 20 14 20
14 0 18 0 18 10 0 10 0 0 20 0 20 -10 0 -10 0 0 -18 0 -18 -20 -14 -20 -14 0
-18 0 -18 -18 0 -18 0 -14 -20 -14 -20 -48 0 -48 0 0 10 0 10 -15 0 -16 0 -35
35 -35 35 35 35 35 35 33 0 34 0 14 20 14 20 18 0 18 0 0 20 0 20 10 0 10 0 0
40 0 40 10 0 10 0 0 19 0 19 -12 5 -13 4 23 20 22 20 0 37 0 36 10 0 10 0 0
48 0 48 20 14 20 14 0 18 0 18 -8 0 -8 0 -14 -20 -14 -20 -17 0 -17 0 -5 13
-4 12 -8 -7 -8 -8 21 -19 22 -18 0 -47 0 -46 -10 0 -10 0 0 -30 0 -30 -10 0
-10 0 0 -20 0 -20 -10 0 -10 0 0 -20 0 -20 -20 0 -20 0 0 -10 0 -10 -70 0 -70
0 0 50 0 50 30 0 30 0 0 40 0 40 30 0 30 0 0 30 0 30 -10 0 -10 0 0 -20 0 -20
-30 0 -30 0 0 -40 0 -40 -70 0 -70 0 0 10 0 10 -28 0 -28 0 -14 20 -14 20 -14
0 -14 0 -28 30 -28 30 -16 0 -16 0 0 16 0 15 14 15 15 14 15 0 16 0 0 10 0 10
58 0 58 0 14 -20 14 -20 74 0 73 0 34 35 35 34 0 41 0 41 -35 34 -34 35 -26 0
-25 0 0 10 0 10 10 0 10 0 0 20 0 20 20 0 20 0 0 20 0 20 10 0 10 0 0 -10 0
-10 10 0 10 0 0 29 0 29 13 5 12 4 -25 22 -24 22 14 10 15 11 -12 5 -13 5 0
19 0 19 -10 0 -10 0 0 -19 0 -19 -12 -5 -13 -5 15 -11 14 -10 -6 -7 -7 -6 -17
17 -17 17 14 8 13 9 -6 7 -7 7 -31 -33 -30 -32 -15 15 -15 16 0 25 0 26 -10 0
-10 0 0 -10z m-100 -100 l0 -10 -10 0 -10 0 0 10 0 10 10 0 10 0 0 -10z m40
-10 l0 -20 -10 0 -10 0 0 20 0 20 10 0 10 0 0 -20z m80 10 l0 -10 -10 0 -10 0
0 10 0 10 10 0 10 0 0 -10z m140 -20 l0 -10 -10 0 -10 0 0 10 0 10 10 0 10 0
0 -10z m-5 -175 l25 -24 0 -41 0 -41 -25 -24 -24 -25 -41 0 -41 0 -24 25 -25
24 0 16 0 15 10 0 10 0 0 19 0 19 -12 4 -12 4 24 27 25 26 43 0 43 1 24 -25z
m-175 -81 l0 -27 22 -18 21 -19 -6 -6 -6 -6 -25 25 -26 26 0 26 0 25 10 0 10
0 0 -26z m160 -424 l0 -30 -6 0 -5 0 -15 14 -14 15 0 15 0 16 20 0 20 0 0 -30z
m40 10 l0 -20 -10 0 -10 0 0 20 0 20 10 0 10 0 0 -20z"/>
<path d="M500 1120 l0 -20 10 0 10 0 0 20 0 20 -10 0 -10 0 0 -20z"/>
<path d="M340 1110 l0 -10 10 0 10 0 0 10 0 10 -10 0 -10 0 0 -10z"/>
<path d="M930 1103 l-14 -17 12 -4 12 -4 0 -35 0 -34 14 -15 15 -14 12 0 12 0
18 -22 19 -21 7 6 6 7 -24 21 -24 22 13 4 12 5 0 9 0 9 -20 0 -20 0 0 -10 0
-10 -10 0 -10 0 0 30 0 30 10 0 10 0 0 30 0 30 -17 0 -18 -1 -15 -16z"/>
<path d="M460 970 l0 -10 10 0 10 0 0 10 0 10 -10 0 -10 0 0 -10z"/>
<path d="M500 970 l0 -10 10 0 10 0 0 10 0 10 -10 0 -10 0 0 -10z"/>
</g>
</svg>
