<?xml version="1.0" standalone="no"?>
<!DOCTYPE svg PUBLIC "-//W3C//DTD SVG 20010904//EN"
 "http://www.w3.org/TR/2001/REC-SVG-20010904/DTD/svg10.dtd">
<svg version="1.0" xmlns="http://www.w3.org/2000/svg"
 width="468pt" height="468pt" viewBox="0 0 468 468"
 preserveAspectRatio="xMidYMid meet">
<metadata>
Created by potrace 1.8, written by Peter Selinger 2001-2007
</metadata>
<g transform="translate(0,468) scale(0.365625,-0.365625)"
fill="#000000" stroke="none">
<path d="M150 1090 l0 -190 -35 0 -35 0 0 -35 0 -35 -40 0 -40 0 0 -415 0
-415 640 0 640 0 0 375 0 375 -40 0 -40 0 0 150 0 150 40 0 40 0 0 115 0 115
-75 0 -75 0 0 -190 0 -190 -40 0 -40 0 0 75 0 75 -35 0 -35 0 0 40 0 40 -75 0
-75 0 0 -40 0 -40 -40 0 -40 0 0 -75 0 -75 -35 0 -35 0 0 -35 0 -35 35 0 35 0
0 -40 0 -40 -110 0 -110 0 0 75 0 75 35 0 35 0 0 40 0 40 -35 0 -35 0 0 35 0
35 35 0 35 0 0 115 0 115 -225 0 -225 0 0 -190z m300 35 l0 -75 -75 0 -75 0 0
75 0 75 75 0 75 0 0 -75z m0 -185 l0 -40 -35 0 -35 0 0 -35 0 -35 -75 0 -75 0
0 75 0 75 110 0 110 0 0 -40z m530 0 l0 -40 -40 0 -40 0 0 -35 0 -35 -35 0
-35 0 0 75 0 75 75 0 75 0 0 -40z m70 -150 l0 -40 -35 0 -35 0 0 40 0 40 35 0
35 0 0 -40z"/>
</g>
</svg>
