<?xml version="1.0" standalone="no"?>
<!DOCTYPE svg PUBLIC "-//W3C//DTD SVG 20010904//EN"
 "http://www.w3.org/TR/2001/REC-SVG-20010904/DTD/svg10.dtd">
<svg version="1.0" xmlns="http://www.w3.org/2000/svg"
 width="468pt" height="468pt" viewBox="0 0 468 468"
 preserveAspectRatio="xMidYMid meet">
<metadata>
Created by potrace 1.8, written by Peter Selinger 2001-2007
</metadata>
<g transform="translate(0,468) scale(0.365625,-0.365625)"
fill="#000000" stroke="none">
<path d="M553 1065 l-13 -14 0 -16 0 -15 -10 0 -10 0 0 -30 0 -30 10 0 10 0 0
-20 0 -20 10 0 10 0 0 -30 0 -30 10 0 10 0 0 30 0 30 -10 0 -10 0 0 20 0 20
-10 0 -10 0 0 30 0 30 10 0 10 0 0 20 0 20 10 0 10 0 0 10 0 10 -7 0 -8 -1
-12 -14z"/>
<path d="M760 1040 l0 -40 10 0 10 0 0 40 0 40 -10 0 -10 0 0 -40z"/>
<path d="M960 1040 l0 -20 10 0 10 0 0 -20 0 -20 10 0 10 0 0 -40 0 -40 -10 0
-10 0 0 -40 0 -40 -10 0 -10 0 0 -30 0 -30 -10 0 -10 0 0 -20 0 -20 10 0 10 0
0 -30 0 -30 10 0 10 0 0 -20 0 -20 10 0 10 0 0 20 0 20 -10 0 -10 0 0 30 0 30
-10 0 -10 0 0 20 0 20 10 0 10 0 0 30 0 30 10 0 10 0 0 40 0 40 10 0 10 0 0
40 0 40 -10 0 -10 0 0 20 0 20 -10 0 -10 0 0 20 0 20 -10 0 -10 0 0 -20z"/>
<path d="M400 1000 l0 -20 -10 0 -10 0 0 -20 0 -20 -10 0 -10 0 0 -70 0 -70
10 0 10 0 0 -20 0 -20 10 0 10 0 0 20 0 20 -10 0 -10 0 0 70 0 70 10 0 10 0 0
20 0 20 10 0 10 0 0 20 0 20 -10 0 -10 0 0 -20z"/>
<path d="M740 940 l0 -40 10 0 10 0 0 -70 0 -70 -10 0 -10 0 0 -40 0 -40 10 0
10 0 0 40 0 40 10 0 10 0 0 70 0 70 -10 0 -10 0 0 40 0 40 -10 0 -10 0 0 -40z"/>
<path d="M860 870 l0 -30 -10 0 -10 0 0 -30 0 -30 10 0 10 0 0 30 0 30 10 0
10 0 0 30 0 30 -10 0 -10 0 0 -30z"/>
<path d="M1120 820 l0 -40 10 0 10 0 0 40 0 40 -10 0 -10 0 0 -40z"/>
<path d="M580 790 l0 -50 10 0 10 0 0 50 0 50 -10 0 -10 0 0 -50z"/>
<path d="M320 790 l0 -10 10 0 10 0 0 -20 0 -20 10 0 10 0 0 16 0 15 -14 15
-15 14 -5 0 -6 0 0 -10z"/>
<path d="M860 721 l0 -39 -12 -5 -13 -4 7 -8 7 -7 16 15 15 16 0 35 0 36 -10
0 -10 0 0 -39z"/>
<path d="M1120 730 l0 -30 -10 0 -10 0 0 -30 0 -30 10 0 10 0 0 30 0 30 10 0
10 0 0 30 0 30 -10 0 -10 0 0 -30z"/>
<path d="M400 734 l0 -5 15 -16 16 -15 6 5 5 6 -15 16 -16 15 -5 0 -6 0 0 -6z"/>
<path d="M340 700 l0 -20 10 0 10 0 0 20 0 20 -10 0 -10 0 0 -20z"/>
<path d="M560 690 l0 -30 10 0 10 0 0 30 0 30 -10 0 -10 0 0 -30z"/>
<path d="M380 660 l0 -20 10 0 10 0 0 -30 0 -30 10 0 10 0 0 30 0 30 -10 0
-10 0 0 20 0 20 -10 0 -10 0 0 -20z"/>
<path d="M540 620 l0 -20 10 0 10 0 0 20 0 20 -10 0 -10 0 0 -20z"/>
<path d="M660 610 l0 -10 -30 0 -30 0 0 -10 0 -10 -28 0 -28 0 -14 -20 -14
-20 -16 0 -16 0 -14 -20 -14 -20 -28 0 -28 0 0 -6 0 -5 15 -16 16 -15 20 23
20 23 9 -14 9 -14 8 7 7 8 -14 9 -14 9 7 8 8 7 9 -14 8 -14 32 34 32 34 8 -14
9 -14 21 24 21 24 9 -14 9 -14 21 24 21 24 10 -14 9 -15 10 15 10 15 10 -15
10 -15 10 15 10 15 10 -15 10 -15 10 15 10 15 10 -15 10 -15 9 15 10 14 21
-24 21 -24 9 14 9 14 7 -6 6 -7 -17 -17 -17 -17 -9 14 -9 14 -9 -15 -10 -14
-8 7 -7 8 14 9 14 9 -7 8 -8 7 -10 -14 -9 -15 -10 15 -10 15 -10 -15 -10 -15
-10 15 -10 15 -10 -15 -10 -15 -10 15 -10 15 -10 -15 -10 -15 -9 15 -10 14 -8
-7 -7 -8 14 -9 14 -9 -7 -8 -8 -7 -10 14 -9 15 -10 -15 -10 -15 -9 15 -10 14
-8 -7 -7 -8 14 -9 14 -9 -7 -8 -8 -7 -10 14 -9 15 -10 -15 -10 -15 -9 15 -10
14 -7 -6 -6 -7 17 -17 17 -17 8 14 9 13 8 -7 7 -8 -14 -9 -14 -9 7 -8 8 -7 10
14 9 15 10 -15 10 -15 9 15 10 14 8 -7 7 -8 -14 -9 -14 -9 7 -8 8 -7 9 14 9
14 8 -7 7 -8 -14 -10 -15 -9 15 -10 15 -10 -15 -9 -14 -10 7 -8 8 -7 10 14 9
15 9 -15 10 -14 8 7 7 8 -14 9 -14 9 7 8 8 7 9 -14 9 -14 8 7 7 8 -14 9 -14 9
7 8 8 7 10 -14 9 -15 10 15 10 15 10 -15 10 -15 10 15 10 15 10 -15 10 -15 9
15 10 14 8 -7 7 -8 -14 -10 -15 -9 15 -10 15 -10 -14 -9 -14 -9 17 -18 18 -17
8 14 9 13 8 -7 7 -8 -14 -9 -14 -9 7 -8 8 -7 10 14 9 15 9 -15 10 -14 8 7 7 8
-14 9 -14 9 7 8 8 7 10 -14 9 -15 10 15 10 15 9 -15 10 -14 8 7 7 8 -14 10
-15 9 15 9 14 10 -7 8 -8 7 -9 -14 -9 -14 -8 7 -7 8 14 10 15 9 -14 9 -14 9
17 17 17 17 7 -6 6 -7 -13 -9 -14 -8 18 -19 18 -18 5 13 4 12 19 0 19 0 0 -10
0 -10 15 0 16 0 24 -25 25 -24 0 -31 0 -31 -14 -15 -15 -14 -15 0 -16 0 0 -10
0 -10 -20 0 -20 0 0 -10 0 -10 -40 0 -40 0 0 -10 0 -10 -50 0 -50 0 0 -10 0
-10 -250 0 -250 0 0 10 0 10 -40 0 -40 0 0 10 0 10 -40 0 -40 0 0 10 0 10 -20
0 -20 0 0 10 0 10 -16 0 -15 0 -15 14 -14 15 0 31 0 31 25 24 24 25 16 0 15 0
0 10 0 10 30 0 30 0 0 10 0 10 20 0 20 0 0 -10 0 -10 -10 0 -10 0 0 -30 0 -30
-10 0 -10 0 0 -26 0 -25 17 -17 16 -17 5 13 4 12 59 0 59 0 0 -10 0 -10 50 0
50 0 0 -10 0 -10 100 0 100 0 0 -10 0 -10 70 0 70 0 0 10 0 10 30 0 30 0 0 10
0 10 30 0 30 0 0 10 0 10 15 0 16 0 24 25 25 24 0 26 0 25 -6 0 -5 0 -16 -16
-16 -16 13 -8 13 -8 -17 -18 -18 -17 -8 14 -9 13 -21 -24 -21 -24 -9 14 -9 14
-21 -23 -20 -24 -7 7 -7 7 13 9 14 8 -17 18 -18 17 -9 -14 -9 -14 -9 14 -9 14
-17 -16 -16 -17 16 -17 17 -16 8 14 9 13 7 -6 6 -7 -17 -17 -17 -17 -9 14 -9
14 -10 -15 -10 -15 -10 15 -10 15 -9 -14 -9 -14 -27 27 -27 27 22 19 22 19
-16 16 -16 16 -26 -26 -27 -27 13 -8 13 -8 -17 -17 -17 -17 -7 6 -6 7 13 9 14
8 -17 17 -16 17 -31 -33 -31 -33 -9 15 -9 14 -9 -15 -10 -14 -21 24 -21 24
-10 -14 -9 -15 -10 15 -10 15 -9 -15 -10 -14 -21 24 -21 24 -10 -14 -9 -15
-11 15 -11 15 -5 -12 -5 -13 -19 0 -19 0 0 -10 0 -10 -10 0 -10 0 0 30 0 30
10 0 10 0 0 -10 0 -10 19 0 19 0 5 13 5 12 11 -15 10 -14 21 24 21 24 9 -13 8
-14 27 27 26 26 -16 16 -16 16 -19 -23 -20 -22 -7 7 -7 7 13 9 14 8 -16 16
-16 16 -65 0 -66 0 0 -10 0 -10 -30 0 -30 0 0 -10 0 -10 -15 0 -16 0 -34 -35
-35 -34 0 -31 0 -31 25 -24 24 -25 16 0 15 0 0 -10 0 -10 20 0 20 0 0 -10 0
-10 40 0 40 0 0 -10 0 -10 40 0 40 0 0 -10 0 -10 250 0 250 0 0 10 0 10 50 0
50 0 0 10 0 10 40 0 40 0 0 10 0 10 20 0 20 0 0 10 0 10 15 0 16 0 24 25 25
24 0 31 0 31 -35 34 -34 35 -16 0 -15 0 0 10 0 10 -15 0 -16 0 -69 70 -69 70
-16 0 -15 0 0 10 0 10 -110 0 -110 0 0 -10z m83 -62 l5 -13 11 15 11 15 10
-15 10 -15 9 15 10 14 21 -24 21 -24 10 14 9 15 9 -15 10 -14 20 23 20 23 36
-37 37 -36 -23 -20 -23 -20 14 -10 15 -9 -15 -10 -15 -10 15 -9 14 -10 -7 -8
-8 -7 -10 14 -9 15 -10 -15 -10 -15 -10 15 -10 15 -9 -15 -10 -14 -8 7 -7 8
14 10 15 9 -15 10 -15 10 14 9 14 9 -17 18 -18 17 -9 -14 -9 -14 -10 15 -10
15 -10 -15 -10 -15 -10 15 -10 15 -10 -15 -10 -15 -9 15 -10 14 -21 -23 -20
-24 -7 7 -7 7 13 9 14 8 -28 27 -27 28 -8 -14 -9 -13 -7 6 -6 7 17 17 17 17 9
-14 8 -14 18 22 18 23 7 0 6 0 5 -12z m-377 -102 l14 -15 0 -15 0 -16 -30 0
-30 0 0 -10 0 -10 -10 0 -10 0 0 25 0 26 13 14 12 14 13 1 13 0 15 -14z"/>
<path d="M712 524 l-13 -14 16 -17 17 -16 9 14 9 14 10 -15 10 -15 10 15 10
15 10 -15 10 -15 10 15 10 15 10 -15 10 -15 9 14 9 14 27 -28 28 -27 -13 -8
-13 -8 16 -17 17 -16 17 16 16 17 -14 8 -13 9 23 20 23 20 -27 26 -26 27 -20
-23 -20 -23 -10 14 -9 15 -9 -15 -10 -14 -21 24 -21 24 -10 -14 -9 -15 -10 15
-10 15 -11 -15 -11 -15 -5 13 -5 12 -6 0 -7 -1 -13 -15z m28 -14 l0 -10 -10 0
-10 0 0 10 0 10 10 0 10 0 0 -10z m40 0 l0 -10 -10 0 -10 0 0 10 0 10 10 0 10
0 0 -10z m40 0 l0 -10 -10 0 -10 0 0 10 0 10 10 0 10 0 0 -10z m126 -5 l15
-15 -15 -16 -16 -15 -16 15 -15 16 13 14 13 15 3 1 3 0 15 -15z m-6 -75 l0
-10 -10 0 -10 0 0 10 0 10 10 0 10 0 0 -10z"/>
<path d="M920 490 l0 -10 10 0 10 0 0 10 0 10 -10 0 -10 0 0 -10z"/>
<path d="M320 430 l0 -10 20 0 20 0 0 10 0 10 -20 0 -20 0 0 -10z"/>
<path d="M1060 600 l0 -20 -10 0 -10 0 0 -20 0 -20 10 0 10 0 0 20 0 20 10 0
10 0 0 20 0 20 -10 0 -10 0 0 -20z"/>
<path d="M517 488 l-28 -32 -9 14 -9 14 -7 -7 -7 -7 22 -19 23 -20 -37 -37
-37 -37 -9 14 -8 13 -7 -6 -6 -7 17 -17 17 -17 9 14 9 14 10 -15 10 -15 9 15
10 14 21 -24 21 -24 10 14 9 15 9 -14 9 -15 32 34 32 34 8 -14 8 -13 18 17 17
18 -14 9 -14 9 14 9 14 9 -27 27 -26 26 -16 -16 -16 -15 32 -30 33 -31 -7 -7
-7 -6 -10 14 -9 15 -9 -15 -10 -14 -8 7 -7 8 14 9 14 9 -7 8 -8 7 -9 -14 -9
-14 -8 7 -7 8 14 9 14 9 -7 8 -8 7 -10 -14 -9 -15 -9 15 -10 14 -8 -7 -7 -8
14 -9 14 -9 -7 -8 -8 -7 -10 14 -9 15 -9 -15 -10 -14 -7 7 -7 7 24 20 23 21
-13 9 -14 8 17 17 17 17 7 -6 6 -7 -13 -9 -14 -8 16 -17 17 -16 16 15 15 16
-25 25 -25 25 -3 0 -3 -1 -28 -31z m-14 -100 l5 -13 11 15 11 15 10 -15 10
-15 9 14 9 14 17 -16 16 -17 -16 -17 -17 -16 -9 14 -9 14 -9 -15 -10 -14 -21
24 -21 24 -9 -14 -9 -14 -6 6 -7 7 13 15 14 15 7 1 6 0 5 -12z"/>
<path d="M520 370 l0 -10 10 0 10 0 0 10 0 10 -10 0 -10 0 0 -10z"/>
<path d="M560 370 l0 -10 10 0 10 0 0 10 0 10 -10 0 -10 0 0 -10z"/>
<path d="M761 413 l-24 -25 14 -8 13 -9 -23 -20 -23 -20 17 -17 17 -17 9 14 9
14 9 -15 10 -14 8 7 7 8 -14 9 -14 9 23 21 24 20 -6 7 -7 6 -20 -23 -20 -23
-6 6 -6 6 26 26 27 27 20 -23 19 -22 7 7 7 7 -14 10 -15 9 14 9 14 9 -17 18
-18 17 -10 -14 -10 -14 -5 13 -5 12 -6 -1 -7 0 -24 -26z m-1 -83 l0 -10 -10 0
-10 0 0 10 0 10 10 0 10 0 0 -10z"/>
</g>
</svg>
