<?xml version="1.0" standalone="no"?>
<!DOCTYPE svg PUBLIC "-//W3C//DTD SVG 20010904//EN"
 "http://www.w3.org/TR/2001/REC-SVG-20010904/DTD/svg10.dtd">
<svg version="1.0" xmlns="http://www.w3.org/2000/svg"
 width="468pt" height="468pt" viewBox="0 0 468 468"
 preserveAspectRatio="xMidYMid meet">
<metadata>
Created by potrace 1.8, written by Peter Selinger 2001-2007
</metadata>
<g transform="translate(0,468) scale(0.365625,-0.365625)"
fill="#000000" stroke="none">
<path d="M1095 1260 l-6 -20 -10 0 -9 0 0 -35 0 -35 -8 0 -8 0 -14 20 -14 20
-12 0 -12 0 -4 10 -3 10 -53 7 -52 6 0 8 0 9 -75 0 -75 0 0 -9 0 -8 -52 -6
-53 -7 -3 -10 -4 -10 -10 0 -11 0 -16 -18 -16 -19 -22 -5 -23 -6 0 33 0 34
-20 6 -20 6 0 10 0 9 -60 0 -60 0 0 -9 0 -10 -20 -6 -20 -6 0 -64 0 -64 20 -6
20 -6 0 -10 0 -9 35 0 35 0 0 -6 0 -5 -35 -33 -35 -33 0 -17 0 -16 -10 0 -10
0 0 -34 0 -34 -11 -4 -12 -4 -5 -102 -5 -102 -8 0 -9 0 0 -130 0 -130 -43 0
-43 0 -14 20 -14 20 -13 0 -12 0 -26 25 -25 26 0 14 0 15 -10 0 -10 0 0 30 0
30 -10 0 -10 0 0 105 0 105 10 0 10 0 0 25 0 25 10 0 10 0 0 24 0 25 15 15 15
15 0 6 0 6 22 24 23 24 12 13 12 13 15 13 15 12 11 0 10 0 0 10 0 10 45 0 45
0 0 10 0 10 -45 0 -45 0 0 -10 0 -10 -15 0 -15 0 0 -10 0 -10 -19 0 -19 0 -6
-15 -5 -15 -17 0 -17 0 -18 -22 -19 -21 0 -8 0 -8 -20 -6 -20 -6 0 -19 0 -18
-11 -4 -10 -3 -6 -43 -6 -42 -8 0 -9 0 0 -25 0 -25 -10 0 -10 0 0 -270 0 -270
10 0 10 0 0 -25 0 -25 9 0 8 0 6 -41 5 -40 21 -18 21 -18 0 -12 0 -11 9 0 10
0 6 -20 6 -20 80 0 79 0 0 24 0 24 -12 4 -13 5 -3 111 -4 112 -9 0 -9 0 0 60
0 60 35 0 35 0 0 -75 0 -75 9 0 8 0 7 -77 7 -76 28 -26 28 -26 7 -23 7 -22
125 0 124 0 0 80 0 80 9 0 9 0 6 45 7 45 10 0 9 0 0 10 0 11 27 27 27 27 60 0
60 -1 4 -12 4 -12 14 -14 14 -15 0 -10 0 -11 10 0 10 0 0 -19 0 -19 11 -4 12
-4 5 -102 5 -102 109 0 109 0 15 14 14 15 0 9 0 10 10 4 10 3 7 53 6 52 8 0 9
0 0 45 0 45 10 0 10 0 0 245 0 245 -10 0 -10 0 0 24 0 24 -10 4 -10 3 -7 68
-6 67 -8 0 -9 0 0 35 0 35 -10 0 -10 0 0 14 0 14 -8 4 -9 3 -7 28 -6 27 33 0
33 0 17 20 17 20 0 55 0 55 -9 0 -10 0 -6 20 -6 20 -64 0 -64 0 -6 -20z m-137
-40 l4 -10 19 0 19 0 0 -10 0 -10 15 0 15 0 0 -9 0 -10 20 -6 20 -6 0 -15 0
-14 17 -20 17 -20 14 0 13 0 13 -13 14 -13 7 -32 7 -32 9 0 9 0 0 -35 0 -35
10 0 10 0 0 -80 0 -80 -10 0 -10 0 0 -35 0 -35 -9 0 -9 0 -8 -32 -7 -33 -18
-16 -19 -16 0 -12 0 -11 -9 0 -10 0 -6 -20 -6 -20 -19 0 -19 0 -15 -15 -15
-15 -10 0 -11 0 0 -10 0 -10 -20 0 -20 0 0 -10 0 -10 -70 0 -70 0 0 29 0 29
35 6 35 7 0 29 0 30 -75 0 -75 0 0 -30 0 -29 35 -7 35 -6 0 -29 0 -29 -70 0
-70 0 0 10 0 10 -20 0 -20 0 0 10 0 10 -11 0 -10 0 -15 15 -15 15 -19 0 -19 0
-6 20 -6 20 -10 0 -9 0 0 11 0 12 -19 16 -18 16 -7 33 -8 32 -9 0 -9 0 0 35 0
35 -10 0 -10 0 0 80 0 80 10 0 10 0 0 35 0 35 9 0 9 0 8 32 7 33 20 17 20 18
7 0 8 0 6 30 6 30 19 0 20 0 15 15 15 15 10 0 11 0 0 10 0 10 20 0 20 0 0 9 0
10 38 4 37 5 105 -4 105 -3 3 -11z m-218 -770 l0 -10 74 0 74 0 5 13 4 12 9
-9 9 -9 -12 -4 -13 -5 0 -19 0 -19 -75 0 -75 0 0 20 0 20 -10 0 -10 0 0 10 0
10 10 0 10 0 0 -10z m-480 -420 l0 -10 -40 0 -40 0 0 10 0 10 40 0 40 0 0 -10z"/>
<path d="M670 830 l0 -10 -17 0 -18 0 -12 -8 -12 -8 -6 -39 -7 -40 20 -22 19
-23 17 0 16 0 40 39 40 39 0 24 0 24 -20 17 -20 17 -20 0 -20 0 0 -10z m30
-50 l0 -10 -10 0 -10 0 0 10 0 10 10 0 10 0 0 -10z"/>
<path d="M930 831 l0 -10 -20 -6 -20 -6 0 -30 0 -29 10 0 9 0 26 -25 25 -26 0
-9 0 -10 29 0 30 0 6 20 6 20 10 0 9 0 0 25 0 25 -9 0 -10 0 -3 23 -3 22 -22
3 -23 3 0 10 0 9 -25 0 -25 0 0 -9z"/>
</g>
</svg>
