<?xml version="1.0" standalone="no"?>
<!DOCTYPE svg PUBLIC "-//W3C//DTD SVG 20010904//EN"
 "http://www.w3.org/TR/2001/REC-SVG-20010904/DTD/svg10.dtd">
<svg version="1.0" xmlns="http://www.w3.org/2000/svg"
 width="468pt" height="468pt" viewBox="0 0 468 468"
 preserveAspectRatio="xMidYMid meet">
<metadata>
Created by potrace 1.8, written by Peter Selinger 2001-2007
</metadata>
<g transform="translate(0,468) scale(0.365625,-0.365625)"
fill="#000000" stroke="none">
<path d="M653 1253 l-23 -4 0 -10 0 -9 -15 0 -15 0 0 -9 0 -10 13 -13 14 -14
-11 -10 -12 -11 -12 13 -11 13 12 4 12 4 -9 9 -9 9 -4 -12 -5 -13 -13 0 -14 0
-41 -40 -41 -40 -74 0 -75 0 0 -9 0 -8 -95 -5 -95 -5 -19 -22 -18 -21 -12 0
-11 0 0 -10 0 -10 -18 0 -18 0 -17 -20 -17 -20 0 -10 0 -10 15 0 15 0 0 -10 0
-10 30 0 30 0 0 -10 0 -10 15 0 15 0 0 10 0 10 -15 0 -15 0 0 10 0 10 -29 0
-30 0 -5 9 -6 9 6 15 5 15 35 6 34 7 0 9 0 10 20 0 20 0 0 -11 0 -11 29 31 29
31 5 -12 5 -13 11 15 11 15 10 -15 10 -15 9 14 9 13 5 -13 5 -14 11 15 11 15
9 -14 9 -13 4 12 4 13 68 2 67 2 14 -13 13 -14 5 13 4 12 8 -7 7 -7 -15 -15
-15 -16 -5 13 -5 12 -11 -15 -11 -15 -9 14 -9 13 -5 -13 -5 -14 -11 15 -11 15
-9 -14 -9 -13 -5 13 -5 14 -11 -15 -11 -15 -10 15 -10 15 -9 -14 -9 -13 -5 13
-5 14 -11 -15 -11 -15 -9 14 -9 13 -5 -13 -5 -14 -11 15 -11 15 -10 -15 -10
-15 -10 15 -10 15 0 -10 0 -10 10 -15 10 -15 9 15 10 14 26 -28 27 -29 9 14 9
14 10 -15 10 -15 -5 -12 -4 -12 13 5 14 5 26 -26 26 -26 0 -9 0 -9 20 -6 20
-6 0 -10 0 -9 -15 0 -15 0 -36 36 -35 37 -6 -7 -6 -6 21 -18 21 -19 -131 1
-131 1 -4 -12 -5 -13 136 0 136 0 0 10 0 10 9 0 10 0 6 -20 6 -20 20 0 20 0 5
-15 6 -15 18 0 18 0 4 -12 4 -11 57 -5 57 -4 0 25 0 26 -19 6 -20 6 -7 22 -7
21 -14 14 -14 14 -7 -7 -7 -8 13 -4 12 -5 0 -14 0 -14 -5 0 -5 0 -20 17 -20
17 0 7 0 6 20 23 20 23 19 -22 19 -22 5 13 5 13 11 -15 11 -15 9 14 9 13 5
-13 5 -14 11 15 11 15 11 -15 11 -15 5 13 5 12 12 13 13 13 -13 11 -13 12 -4
-12 -4 -12 -9 8 -8 8 14 10 15 9 -14 9 -13 9 13 4 14 5 -8 9 -8 8 -9 -13 -8
-14 -17 17 -17 17 21 18 22 19 -13 5 -13 5 15 11 15 11 -14 9 -13 9 13 5 14 5
-15 12 -15 12 13 5 12 5 15 15 15 14 0 11 0 11 -19 -21 -18 -22 -7 0 -6 0 0
20 0 20 20 0 20 0 0 13 0 12 11 -15 11 -15 5 13 5 12 14 0 14 0 0 -10 0 -10
-15 0 -15 0 0 -9 0 -9 13 -6 12 -6 -13 -6 -12 -6 -16 -15 -15 -16 5 -13 5 -13
-17 5 -17 6 15 -11 15 -11 -14 -9 -13 -9 22 -22 22 -22 9 13 9 14 9 -14 9 -13
4 13 5 14 22 -25 22 -24 8 13 9 13 5 -13 5 -14 12 15 12 15 4 -10 4 -10 10
-15 10 -15 10 15 10 15 9 -14 9 -13 4 13 5 14 15 -16 16 -15 -119 1 -118 2
-12 -8 -12 -7 17 -18 18 -17 8 13 8 12 5 -13 5 -14 11 15 11 15 10 -15 10 -15
9 14 9 13 5 -13 5 -14 11 15 10 14 8 -7 7 -8 -13 -8 -13 -9 13 -5 14 -5 -14
-10 -14 -10 16 -17 17 -16 0 -5 0 -4 -4 0 -5 0 -17 17 -17 18 -5 -13 -4 -13
-20 23 -19 22 -10 -14 -9 -15 -9 14 -9 13 -6 -13 -6 -14 -6 13 -6 12 -9 0 -9
0 0 -20 0 -19 -57 -4 -58 -3 124 0 124 1 4 -12 5 -13 24 0 24 0 0 25 0 25 -10
0 -10 0 0 20 0 20 13 0 12 0 -15 10 -14 9 7 8 8 7 10 -14 9 -15 9 14 9 13 5
-13 5 -14 11 15 11 15 10 -15 10 -15 9 14 9 13 5 -13 5 -14 12 15 12 15 5 -12
5 -13 16 17 17 16 -12 5 -13 4 16 15 16 16 8 -14 9 -13 8 7 7 8 -14 9 -14 9 8
8 9 8 4 -13 5 -13 20 23 21 23 4 -12 4 -12 14 12 13 12 -12 8 -11 7 15 9 14
10 -7 8 -8 7 -10 -14 -11 -15 5 15 4 15 20 0 21 0 21 24 21 24 6 -6 6 -6 -38
-37 -39 -37 12 -4 12 -4 -24 -25 -25 -25 0 -9 0 -9 -19 -6 -19 -6 -6 -16 -6
-16 27 -28 28 -28 12 -13 12 -13 16 -14 16 -13 -5 -14 -5 -14 14 0 15 0 0 -10
0 -10 -10 0 -11 0 -15 13 -15 12 -12 13 -12 13 -13 12 -13 12 -12 13 -12 13
-22 24 -23 24 -46 -4 -46 -3 -9 -13 -9 -14 -10 15 -10 15 -10 -15 -10 -15 0
13 0 12 -10 0 -10 0 0 -20 0 -20 35 0 35 0 0 10 0 10 46 0 45 0 60 -60 59 -60
14 0 14 0 4 -10 3 -10 33 -6 32 -6 0 14 0 14 -20 14 -20 14 0 13 0 13 -10 0
-10 0 0 15 0 14 -40 41 -41 42 26 23 25 24 0 16 0 15 10 0 10 0 6 25 6 25 9 0
9 0 0 13 0 13 20 14 20 14 0 14 0 15 -32 -7 -33 -6 -3 -10 -4 -10 -14 0 -14 0
-59 -60 -60 -60 -45 0 -46 0 0 10 0 10 -45 0 -45 0 0 10 0 10 -32 0 -33 0 -52
6 -53 7 0 18 0 19 10 0 10 0 0 15 0 15 10 0 9 0 7 35 6 35 9 0 9 0 0 15 0 15
-37 -1 -38 -2 -22 -4z m-65 -90 l17 -16 -13 -5 -12 -4 -15 -15 -15 -14 0 10 0
10 17 10 18 9 -7 7 -6 6 -32 -31 -32 -31 7 -7 6 -6 9 14 9 14 8 -8 8 -9 -12
-4 -12 -4 11 -13 12 -13 12 11 12 11 -11 7 -11 7 7 8 8 7 9 -14 9 -14 8 7 7 8
-14 9 -14 9 8 8 9 8 5 -14 4 -13 9 13 8 13 8 -7 7 -8 -14 -10 -15 -11 12 -5
13 -5 -15 -15 -15 -14 0 -9 0 -9 15 -14 15 -15 12 -5 13 -5 -15 -11 -15 -11
15 -10 15 -10 12 5 12 4 -6 -15 -5 -14 -8 0 -8 0 -5 13 -5 12 -11 -15 -10 -14
-8 7 -7 8 11 7 11 7 -12 11 -12 11 -12 -13 -11 -13 12 -4 12 -4 -8 -9 -8 -8
-10 14 -11 15 -5 -12 -5 -13 -15 15 -14 15 -9 0 -9 0 -13 -15 -13 -14 -13 -15
-12 -15 31 -32 31 -32 8 13 8 12 21 -21 21 -21 0 -15 0 -15 -35 0 -35 0 0 10
0 10 -15 0 -15 0 0 9 0 10 -22 3 -23 3 0 20 0 21 -26 28 -27 28 -11 12 -12 11
-26 25 -27 25 -20 0 -19 0 -4 15 -5 15 11 -15 11 -15 10 15 10 15 11 -17 10
-18 12 0 12 0 -15 10 -14 9 7 8 8 7 10 -14 9 -15 9 15 10 14 8 -8 8 -9 -12 -4
-12 -4 11 -13 12 -13 12 11 12 11 -11 7 -11 7 7 8 8 7 10 -14 9 -15 9 14 9 13
5 -13 5 -14 11 15 10 14 8 -7 7 -8 -11 -7 -11 -7 12 -11 12 -11 12 13 11 13
-12 4 -12 4 25 22 24 22 -14 9 -15 10 -12 -5 -13 -4 0 14 0 14 16 13 15 13 22
22 22 22 8 0 8 1 17 -17z m42 -12 l0 -9 -14 -5 -15 -6 6 15 5 14 9 0 9 0 0 -9z
m503 -55 l6 -15 -13 5 -13 5 -17 -16 -16 -16 0 7 0 7 18 18 17 18 6 0 7 1 5
-14z m97 -286 l0 -10 -10 0 -10 0 0 10 0 10 10 0 10 0 0 -10z"/>
<path d="M576 1065 l-25 -24 -4 12 -4 12 -19 -19 -19 -19 12 -4 12 -4 -28 -30
-28 -29 -9 0 -9 0 15 10 14 9 -23 20 -24 21 -2 0 -2 0 -24 -21 -23 -20 14 -9
15 -10 -10 0 -9 0 -23 27 -23 26 -6 -6 -6 -5 62 -62 62 -62 -13 -9 -13 -8 7
-8 8 -7 9 13 8 14 27 -29 26 -28 10 14 9 15 11 -15 11 -15 -5 15 -4 15 -28 0
-29 1 -4 12 -4 12 -14 14 -14 14 -12 4 -12 4 42 43 42 43 16 -16 15 -16 3 0 3
0 24 21 23 20 -14 9 -15 10 12 0 12 0 10 -17 9 -18 7 7 7 7 -27 25 -27 25 16
16 16 16 0 5 0 4 -5 0 -4 0 -25 -25z m-26 -35 l0 -10 -10 0 -10 0 0 10 0 10
10 0 10 0 0 -10z m30 1 l0 -9 -15 -6 -15 -5 0 -13 0 -13 10 15 9 14 7 -6 6 -7
-14 -14 -14 -14 -12 13 -12 14 17 19 18 19 8 1 7 1 0 -9z m-125 -59 l-8 -7 -5
14 -4 13 -9 -13 -8 -13 -6 6 -7 7 13 14 13 14 14 -14 14 -14 -7 -7z m5 -19 l0
-4 -13 -13 -13 -13 -13 15 -14 14 13 8 13 8 14 -5 13 -5 0 -5z"/>
<path d="M667 1188 l-19 -20 5 -5 5 -5 21 21 21 21 0 5 0 5 -7 -1 -8 -1 -18
-20z"/>
<path d="M340 1070 l0 -10 10 0 10 0 0 10 0 10 -10 0 -10 0 0 -10z"/>
<path d="M410 1070 l0 -10 10 0 10 0 0 10 0 10 -10 0 -10 0 0 -10z"/>
<path d="M440 1070 l0 -10 10 0 10 0 0 10 0 10 -10 0 -10 0 0 -10z"/>
<path d="M641 1064 l-13 -15 7 -7 6 -6 10 14 9 15 10 -15 10 -15 -5 -12 -4
-13 4 0 4 0 16 17 17 16 8 -13 8 -12 5 13 5 14 11 -15 10 -14 7 6 6 7 -18 18
-17 18 -5 -14 -4 -13 -10 13 -10 14 -5 -12 -5 -13 -8 0 -9 0 -6 20 -6 20 -7 0
-7 -1 -14 -15z"/>
<path d="M1096 1035 l-19 -25 -21 5 -21 6 15 -10 15 -11 -15 -11 -15 -11 13
-5 13 -5 12 -14 12 -15 43 -45 43 -46 5 5 6 5 -62 62 -61 61 35 34 36 34 0 5
0 6 -8 0 -7 0 -19 -25z"/>
<path d="M820 1030 l0 -10 10 0 10 0 0 10 0 10 -10 0 -10 0 0 -10z"/>
<path d="M170 970 l0 -50 10 0 10 0 0 50 0 50 -10 0 -10 0 0 -50z"/>
<path d="M94 994 l6 -16 0 -4 0 -4 10 0 10 0 0 20 0 20 -16 0 -16 0 6 -16z"/>
<path d="M200 965 l0 -45 10 0 10 0 0 45 0 45 -10 0 -10 0 0 -45z"/>
<path d="M240 955 l0 -35 10 0 10 0 0 35 0 35 -10 0 -10 0 0 -35z"/>
<path d="M270 945 l0 -25 10 0 10 0 0 25 0 25 -10 0 -10 0 0 -25z"/>
<path d="M708 959 l-12 -8 7 -8 8 -7 8 13 9 13 5 -13 5 -14 11 15 10 14 18
-21 18 -20 14 14 13 14 -6 6 -6 6 -45 2 -45 1 -12 -7z"/>
<path d="M50 905 l0 -15 20 0 20 0 0 15 0 15 -20 0 -20 0 0 -15z"/>
<path d="M0 365 l0 -365 640 0 640 0 0 365 0 365 -640 0 -640 0 0 -365z"/>
</g>
</svg>
