<?xml version="1.0" standalone="no"?>
<!DOCTYPE svg PUBLIC "-//W3C//DTD SVG 20010904//EN"
 "http://www.w3.org/TR/2001/REC-SVG-20010904/DTD/svg10.dtd">
<svg version="1.0" xmlns="http://www.w3.org/2000/svg"
 width="468pt" height="468pt" viewBox="0 0 468 468"
 preserveAspectRatio="xMidYMid meet">
<metadata>
Created by potrace 1.8, written by Peter Selinger 2001-2007
</metadata>
<g transform="translate(0,468) scale(0.365625,-0.365625)"
fill="#000000" stroke="none">
<path d="M0 1148 l0 -133 8 -10 7 -10 10 0 10 0 37 -8 38 -8 0 -7 0 -7 -10
-15 -10 -15 0 10 0 11 -23 1 -22 2 19 -15 20 -14 -11 0 -10 0 -19 22 -19 21
13 -7 12 -7 0 9 0 10 -13 5 -14 5 -14 -9 -14 -9 13 0 12 0 0 -10 0 -10 16 -19
17 -19 15 6 15 5 -6 -10 -7 -11 10 -4 9 -3 -9 -15 -10 -15 0 16 0 17 -15 6
-15 5 0 -18 0 -19 9 -4 8 -3 7 -22 7 -23 -16 0 -17 0 -5 19 -5 20 -12 4 -13 5
0 -16 0 -17 10 -13 11 -14 -10 -6 -10 -7 -2 -27 -2 -28 18 -1 17 0 -15 -7 -15
-7 -2 -15 -3 -15 30 -1 30 -2 0 17 0 17 -17 23 -16 24 11 -7 12 -7 0 11 0 11
11 -7 11 -6 -12 -8 -13 -8 22 -12 22 -11 6 20 5 21 9 0 9 0 0 -7 0 -7 -27 -29
-28 -30 16 6 17 5 10 -10 11 -11 25 7 26 6 0 38 0 37 -25 24 -25 23 0 9 0 9
-9 0 -10 0 5 -27 4 -28 -9 14 -9 13 -4 -13 -5 -14 0 38 0 38 6 -8 6 -8 20 1
20 1 22 -14 22 -13 -5 15 -6 15 10 0 11 0 5 -9 6 -9 -14 -11 -13 -11 -19 6
-19 6 24 -22 24 -21 11 11 10 10 8 0 8 0 -20 -20 -21 -21 3 -34 2 -34 11 7 10
6 12 2 12 2 -6 -16 -5 -17 16 19 16 20 0 -15 0 -14 10 15 10 15 0 -14 0 -13
30 6 30 6 0 -11 0 -10 10 6 10 6 0 -10 0 -10 -20 -6 -20 -6 0 -15 0 -15 -9 5
-9 6 -4 -11 -4 -12 -26 26 -27 27 -15 -6 -16 -6 0 -10 0 -9 9 5 9 6 -5 -22 -4
-23 16 20 17 20 -7 -25 -8 -25 16 13 15 13 -2 -16 -2 -16 -5 0 -4 0 -17 6 -18
7 -17 -8 -18 -8 -14 0 -14 -1 -10 -17 -11 -16 13 -16 13 -16 10 0 9 0 -11 21
-12 21 4 2 3 2 28 12 28 12 6 0 5 0 -11 -13 -11 -14 8 -7 7 -8 1 -6 1 -7 7
-17 8 -18 -6 -15 -5 -15 -16 6 -15 6 6 -16 6 -16 18 0 19 0 -2 -19 -1 -20 -8
5 -8 5 5 10 6 9 -16 0 -16 0 6 -9 5 -10 -9 -5 -9 -6 3 17 2 18 -9 19 -10 19
13 8 14 9 -15 0 -15 0 15 10 15 10 -17 0 -18 0 0 -10 0 -9 -15 5 -14 6 -21 35
-21 36 12 11 12 11 -6 -18 -6 -17 4 0 4 0 26 26 26 26 15 -6 15 -6 -7 11 -6
11 -19 -5 -19 -5 11 20 11 20 -6 5 -5 5 -35 5 -36 5 0 -11 0 -11 -27 6 -28 7
-11 8 -11 9 -6 -6 -5 -6 -2 -339 -1 -339 641 0 640 0 0 263 0 263 -18 1 -19 2
5 -26 5 -25 -20 13 -21 12 22 42 21 42 12 -26 12 -26 -2 36 -2 37 -20 -11 -20
-11 -13 -2 -12 -2 6 10 7 11 -11 -7 -12 -7 6 16 6 16 16 -13 16 -13 -8 13 -8
13 13 -2 14 -1 12 1 12 1 1 330 0 330 -259 0 -259 0 -6 -12 -6 -13 -6 13 -6
12 -369 0 -369 0 0 -132z m771 98 l1 9 -1 7 -1 7 18 -6 17 -6 11 -9 11 -8 17
6 16 6 16 -6 15 -6 -7 -11 -6 -11 -10 13 -10 14 -5 -12 -5 -13 -19 10 -19 11
0 -11 0 -10 -15 0 -15 0 0 9 0 9 -17 -2 -18 -1 -8 -10 -9 -10 -5 13 -5 12 -9
-6 -9 -5 0 6 0 6 12 13 13 13 22 -14 23 -15 1 8z m-481 -16 l-13 -8 19 -5 19
-6 -29 2 -29 2 -4 12 -4 11 18 4 18 4 9 -4 8 -4 -12 -8z m44 -5 l-6 -15 -3 0
-3 0 -6 15 -5 15 14 0 14 0 -5 -15z m35 -6 l-13 -8 -4 4 -4 4 7 10 6 11 11 -6
10 -6 -13 -9z m346 -6 l20 -16 -17 6 -18 6 0 -9 0 -10 -15 0 -15 0 0 11 0 10
-12 -7 -13 -8 14 17 13 17 12 0 11 -1 20 -16z m-539 -16 l7 -7 9 0 9 0 -6 10
-6 10 15 0 16 0 -1 -7 -1 -8 1 -9 1 -8 13 10 13 11 14 -9 15 -10 -25 0 -25 0
15 -10 15 -10 -8 0 -8 0 -21 11 -21 11 -7 -12 -8 -12 -41 -3 -41 -3 0 7 0 8
18 1 17 2 23 0 23 0 -6 10 -6 10 -20 0 -20 0 5 9 6 9 15 -2 14 -2 7 -7z m234
9 l0 -4 -16 -6 -15 -6 6 10 6 10 10 0 9 0 0 -4z m362 -78 l-12 -12 -7 8 -7 7
12 8 13 8 -5 29 -6 29 12 -33 11 -33 -11 -11z m61 57 l6 -14 -7 -5 -8 -5 -1
20 -2 19 4 0 3 0 5 -15z m78 -10 l44 -3 8 -1 7 -1 0 -11 0 -10 -9 5 -9 6 -5
-12 -5 -13 -9 10 -8 11 -15 -1 -15 -1 -7 11 -8 10 -10 -15 -10 -15 -1 5 0 5
-5 25 -4 25 9 -13 8 -14 44 -3z m-533 3 l11 -11 15 12 14 12 6 -10 6 -10 -7
-4 -8 -4 -29 1 -29 1 -5 13 -4 12 9 0 9 0 12 -12z m293 -5 l14 -17 -12 8 -13
7 0 -10 0 -11 -15 0 -15 0 0 11 0 10 -12 -7 -13 -8 14 17 13 17 13 0 13 0 13
-17z m69 10 l-15 -6 -20 -16 -20 -16 19 23 19 22 16 -1 16 -1 -15 -5z m-420
-13 l-15 -10 -10 0 -10 0 15 10 15 10 10 0 10 0 -15 -10z m-113 -18 l-17 -4 5
-9 6 -9 -17 0 -17 0 18 20 18 20 11 -8 11 -7 -18 -3z m167 -11 l6 -9 -21 -5
-20 -5 12 14 11 14 4 0 3 0 5 -9z m491 -11 l10 -2 4 -4 4 -4 -14 0 -15 0 -20
16 -19 15 20 -9 20 -10 10 -2z m-614 1 l1 14 5 -14 5 -13 9 13 9 14 0 -16 0
-17 -15 -12 -15 -13 -7 7 -6 6 12 0 13 0 -19 18 -19 17 13 -9 13 -8 1 13z
m460 -18 l14 -17 -12 8 -13 7 0 -10 0 -11 -15 0 -15 0 0 11 0 10 -12 -7 -13
-8 14 17 13 17 13 0 13 0 13 -17z m-564 -10 l0 -11 -26 3 -26 4 -3 0 -3 1 4 8
5 7 24 0 25 0 0 -12z m810 -3 l-3 -19 -7 -7 -7 -7 0 11 0 12 -15 0 -15 0 0
-11 0 -10 -10 6 -10 6 5 10 6 9 25 0 24 0 0 10 0 10 5 0 5 0 -3 -20z m46 -43
l7 -18 -12 7 -11 7 6 -16 6 -17 -8 0 -9 0 -4 25 -5 24 8 -5 9 -5 0 10 0 10
-10 6 -10 6 0 17 0 17 13 -25 13 -25 7 -18z m-778 33 l6 -10 -16 0 -16 0 6 10
6 10 4 0 4 0 6 -10z m115 -18 l5 -4 -29 8 -29 7 6 -9 6 -10 -20 -1 -19 -2 0
10 0 10 23 8 22 9 15 -11 15 -11 5 -4z m443 -23 l-5 -19 10 0 10 0 -5 -20 -5
-20 -7 0 -7 0 -3 28 -3 27 -1 18 -1 17 -21 0 -20 0 15 10 15 9 16 -15 17 -15
-5 -20z m88 34 l14 -17 -12 8 -13 7 3 -23 2 -23 -28 -1 -27 -1 25 4 25 4 0 10
0 9 -15 0 -15 0 0 11 0 10 -12 -7 -13 -8 14 17 13 17 13 0 13 0 13 -17z m-217
-18 l5 -15 -9 0 -10 0 0 15 0 15 4 0 4 0 6 -15z m-580 -9 l-6 -15 -14 6 -14 5
0 -11 0 -11 -10 0 -10 0 0 8 0 9 23 11 22 11 7 0 7 1 -5 -14z m180 -2 l5 -13
-16 6 -16 6 7 -11 7 -12 -25 0 -25 0 5 -15 6 -15 -15 6 -16 6 5 13 6 14 21 4
22 4 -27 2 -28 1 0 8 0 7 40 1 39 1 5 -13z m471 6 l-6 -10 -12 0 -12 0 15 10
15 10 3 0 3 0 -6 -10z m-580 -10 l-6 -10 18 -1 18 -1 -17 -5 -18 -4 0 -8 0 -8
-15 0 -15 0 0 9 0 9 13 14 12 14 8 1 8 0 -6 -10z m230 0 l6 -10 -16 0 -16 0 6
10 6 10 4 0 4 0 6 -10z m199 4 l16 -6 0 -10 0 -9 -9 5 -9 6 -6 -12 -6 -13 -6
13 -6 12 -9 -6 -9 -5 0 10 0 9 13 5 12 5 2 1 1 1 16 -6z m466 -4 l0 -10 -10 0
-10 0 0 10 0 10 10 0 10 0 0 -10z m-693 -26 l-6 -6 -13 5 -13 5 19 1 19 1 -6
-6z m41 -8 l-3 -1 -21 -18 -22 -18 -6 16 -6 16 18 -3 17 -3 -2 12 -3 12 16 -6
15 -5 -3 -2z m222 5 l0 -10 -16 -15 -15 -16 -12 0 -11 0 20 15 19 14 -10 1
-10 0 15 10 15 10 3 0 2 0 0 -9z m-331 -27 l3 -3 -36 2 -36 2 0 7 0 6 13 5 12
4 20 -10 20 -10 4 -3z m582 9 l14 -17 -12 8 -13 7 0 -11 0 -11 30 -10 30 -11
0 -9 0 -9 -10 0 -10 0 0 10 0 10 -12 0 -11 0 -21 -17 -21 -18 19 23 20 23 -22
6 -22 5 0 10 0 9 -12 -7 -13 -8 14 17 13 17 13 0 13 0 13 -17z m-560 -16 l-12
-12 7 18 6 18 6 -6 6 -5 -13 -13z m145 1 l2 -17 -14 6 -14 5 0 15 0 15 12 -4
11 -4 3 -16z m84 12 l0 -10 -10 0 -10 0 0 10 0 10 10 0 10 0 0 -10z m221 -7
l14 -17 -12 8 -13 7 0 -10 0 -11 -15 0 -15 0 0 11 0 10 -12 -7 -13 -8 14 17
13 17 13 0 13 0 13 -17z m-480 -32 l-12 -8 7 -16 6 -17 -11 0 -11 0 3 13 2 12
-12 -2 -13 -3 0 8 0 8 13 14 12 14 -22 -18 -22 -18 -10 7 -11 6 0 10 0 10 8
-4 7 -4 20 7 20 7 19 -9 19 -10 -12 -7z m772 17 l47 -2 -14 -8 -14 -8 -46 9
-45 8 -6 -5 -5 -5 0 12 0 12 18 -5 19 -6 46 -2z m77 1 l0 -11 15 6 15 5 15 -5
15 -6 0 -11 0 -10 -7 6 -6 7 -13 -18 -12 -17 11 -7 11 -7 -7 -8 -8 -7 -8 13
-9 13 6 22 5 21 -8 -7 -7 -7 -14 14 -14 14 0 5 0 6 10 0 10 0 0 -11z m-295 -8
l5 -10 -10 -6 -10 -6 0 10 0 11 -15 0 -15 0 0 -11 0 -10 -10 6 -10 6 5 10 6 9
24 0 24 0 6 -9z m-652 -16 l7 0 1 -8 1 -9 -5 -4 -4 -4 -19 22 -19 21 15 -9 15
-9 8 0z m314 -17 l24 -22 10 14 11 15 -5 -17 -6 -17 12 -5 12 -4 -16 -1 -16
-1 -38 30 -38 30 13 0 14 0 23 -22z m223 12 l0 -10 -10 0 -10 0 0 10 0 10 10
0 10 0 0 -10z m270 5 l0 -4 -30 -16 -29 -15 -20 0 -20 0 -15 -15 -15 -15 -5 9
-6 9 62 25 63 25 8 1 7 1 0 -5z m-660 -16 l0 11 15 0 15 0 0 -10 0 -10 -7 1
-8 1 -5 -2 -5 -2 -17 -3 -18 -3 0 15 0 15 15 -12 15 -12 0 11z m158 -23 l17
-22 10 -1 10 -2 2 -8 3 -9 -80 0 -80 1 0 25 0 25 8 -13 8 -12 23 24 22 24 20
-5 19 -5 18 -22z m92 24 l0 -10 -11 0 -10 0 6 10 6 10 5 0 4 0 0 -10z m50 -1
l15 -11 -22 5 -23 5 0 -11 0 -10 -6 6 -6 6 7 10 6 11 7 0 7 0 15 -11z m130 -4
l11 7 -13 -21 -13 -21 -5 0 -5 0 -2 27 -1 26 8 -13 8 -13 12 8z m63 -2 l-13
-5 -17 5 -18 5 30 0 30 0 -12 -5z m402 -2 l5 -10 -9 -5 -9 -6 -6 12 -6 13 -6
-13 -6 -12 -9 6 -9 5 5 10 6 9 19 0 19 0 6 -9z m-1095 -5 l0 -5 -9 -6 -10 -5
-6 10 -6 10 15 0 16 0 0 -4z m487 -23 l-16 -17 -21 -1 -20 -2 5 5 5 5 22 13
23 12 10 1 9 1 -17 -17z m-367 -12 l0 -19 -13 -5 -14 -5 5 24 4 24 9 0 9 0 0
-19z m41 2 l14 -18 -17 14 -18 13 0 4 0 4 4 0 4 0 13 -17z m66 2 l0 -15 -14
11 -13 11 0 4 0 4 13 0 14 0 0 -15z m-157 -4 l0 -7 -13 -18 -13 -17 -18 7 -18
7 14 8 13 9 -15 0 -15 0 12 8 12 8 21 1 20 2 0 -8z m623 -1 l6 11 -3 -13 -3
-13 -18 3 -17 3 8 -13 8 -13 19 -14 19 -14 -5 -26 -6 -26 -7 -19 -7 -19 10 6
11 7 6 -12 6 -13 -6 25 -6 25 16 -20 15 -20 1 -12 0 -11 -17 3 -18 2 -10 -6
-10 -6 -5 -1 -5 -1 -19 -8 -18 -8 -9 14 -9 14 0 -22 0 -23 -21 0 -20 0 6 -10
6 -9 14 6 15 5 0 -11 0 -11 -12 -1 -13 -1 -7 1 -7 1 6 -18 6 -17 -7 7 -8 6 -3
19 -3 18 -1 12 -1 13 -24 -10 -24 -9 -7 7 -7 7 2 -10 2 -10 -1 -12 -1 -12 -14
5 -14 5 -6 17 -6 17 -6 13 -6 12 17 0 17 0 -6 15 -5 15 6 0 6 0 13 -17 14 -18
-6 18 -6 17 16 0 16 0 -5 -27 -5 -28 12 25 13 25 23 -1 22 -1 0 9 0 9 18 -3
17 -3 21 22 21 23 9 -8 8 -7 -13 18 -14 18 11 11 12 12 0 -14 0 -13 7 6 6 7
-18 20 -18 20 -10 0 -9 0 12 -15 12 -15 -4 0 -4 0 -29 30 -29 30 18 0 17 0 -6
-9 -5 -10 9 -5 9 -6 6 26 7 26 13 -12 14 -11 5 11z m-486 -16 l-6 -6 -13 5
-13 5 19 1 19 1 -6 -6z m-98 -25 l6 10 20 -3 20 -3 0 -29 -1 -29 -13 3 -13 3
6 -18 6 -18 -14 18 -14 18 5 20 5 19 -16 -6 -16 -6 7 -11 6 -10 -12 7 -11 7 5
9 5 9 -10 6 -10 6 0 10 0 10 16 -16 17 -16 6 10z m154 4 l-13 -5 -17 5 -18 5
30 0 30 0 -12 -5z m50 0 l-13 -5 -12 5 -13 5 25 0 25 0 -12 -5z m54 -58 l-2
-45 -8 3 -8 3 0 7 1 7 0 35 0 35 10 0 9 0 -2 -45z m63 25 l0 -20 -10 0 -10 0
0 20 0 20 10 0 10 0 0 -20z m13 -37 l-13 -5 0 -14 0 -14 -10 0 -10 0 3 13 2
12 10 7 10 8 10 -1 10 -1 -12 -5z m-206 -18 l0 -14 -9 5 -8 5 5 10 6 9 3 0 3
0 0 -15z m33 -1 l0 -15 -10 6 -10 6 5 10 6 9 5 0 4 0 0 -16z m35 7 l5 -10 -8
-5 -9 -5 0 14 0 15 3 0 3 0 6 -9z m90 0 l5 -10 -8 -5 -9 -5 0 14 0 15 3 0 3 0
6 -9z m649 -13 l-5 -8 -14 0 -13 0 11 -24 12 -24 11 9 12 10 38 -4 39 -4 3
-16 3 -16 -20 2 -20 1 4 7 4 6 -25 -5 -24 -4 11 -14 10 -13 17 6 17 5 -15 -10
-14 -11 -9 6 -9 6 5 -44 5 -43 18 -13 18 -13 -5 -5 -5 -4 -23 6 -22 6 5 12 5
13 -21 -6 -21 -5 5 14 6 14 11 -3 12 -2 -5 9 -6 10 -38 -15 -37 -15 20 16 20
16 -3 17 -3 17 10 -14 9 -15 16 -2 16 -2 0 14 0 15 -12 -7 -13 -7 17 19 18 18
-32 11 -31 10 -2 35 -1 35 2 5 3 6 20 0 20 0 -5 -8z m-1006 -29 l4 -14 -11 15
-11 15 0 -12 0 -13 -10 0 -10 0 0 14 0 14 17 -2 17 -3 4 -14z m102 1 l0 -10
-14 0 -15 0 -6 10 -6 10 20 0 21 0 0 -10z m30 6 l0 -5 -10 -6 -10 -6 0 10 0
11 10 0 10 0 0 -4z m596 -5 l-6 -9 10 -5 11 -5 -13 2 -12 2 -4 12 -4 12 12 0
11 0 -5 -9z m-391 -11 l6 -10 -30 0 -30 0 -6 10 -6 10 30 0 30 0 6 -10z m58
-7 l-13 -5 -17 5 -18 5 30 0 30 0 -12 -5z m-173 -28 l0 -15 -10 0 -10 0 0 15
0 15 10 0 10 0 0 -15z m44 -26 l16 -40 9 6 9 5 -5 -22 -5 -23 10 13 9 13 11
-13 10 -13 -12 -16 -11 -16 -25 2 -25 2 0 2 0 3 -17 3 -16 3 -6 -21 -5 -22
-12 12 -12 12 -1 31 -1 30 17 -23 17 -22 -2 16 -3 17 -14 18 -15 19 16 -12 16
-13 6 6 6 6 -6 14 -5 14 13 0 12 0 -6 -7 -7 -6 11 -14 11 -13 13 0 13 0 -14
30 -15 30 -10 5 -9 6 0 10 0 9 9 0 9 0 16 -41z m74 24 l-3 -18 -23 -3 -22 -3
6 -11 7 -11 -12 7 -11 7 5 9 5 8 -16 6 -15 6 6 10 6 10 35 0 35 0 -3 -17z m69
-5 l-1 -18 -9 0 -8 0 6 -10 6 -10 -16 6 -16 6 -9 18 -9 17 4 4 3 4 25 0 25 0
-1 -17z m242 6 l-10 -12 13 2 13 2 15 9 15 9 11 2 11 2 0 -14 0 -13 -11 2 -11
2 3 -12 2 -13 -10 0 -10 0 0 10 0 11 -20 -11 -20 -11 0 10 0 10 -14 -5 -14 -5
-7 10 -6 11 15 -6 16 -6 0 14 0 15 15 0 15 0 -11 -13z m-469 -34 l0 -10 -11 0
-10 0 6 10 6 10 5 0 4 0 0 -10z m250 0 l0 -10 -11 0 -10 0 6 10 6 10 5 0 4 0
0 -10z m85 0 l-7 -11 14 -16 13 -17 -12 8 -13 7 -1 -13 -1 -13 -5 13 -5 12 -8
-5 -9 -5 2 19 1 20 8 -5 8 -5 0 10 0 11 11 0 10 0 -6 -10z m118 -18 l19 10 5
-6 6 -6 -12 0 -12 0 6 -10 6 -10 -17 7 -17 6 7 -11 6 -11 -10 -6 -10 -6 1 8 2
8 -7 17 -8 17 -15 -15 -15 -15 -5 5 -5 4 19 19 18 19 10 -17 10 -18 18 11z
m-684 2 l4 -4 -11 -26 -12 -25 11 -21 11 -20 -11 6 -11 7 -1 -13 -1 -13 -5 13
-5 12 -9 0 -10 0 6 -10 6 -10 -10 0 -11 0 0 9 0 9 14 11 14 12 5 -11 6 -10 -3
12 -3 13 -26 0 -25 0 -6 6 -6 6 20 18 21 19 -7 -17 -6 -17 8 0 9 0 13 8 13 9
-7 16 -6 16 -11 4 -12 4 25 -4 25 -5 4 -4z m489 -29 l-6 -6 -6 18 -7 18 12
-12 13 -13 -6 -5z m-303 -9 l-18 -13 13 -8 13 -8 -8 13 -8 13 12 -4 13 -4 0
-10 0 -10 10 -12 10 -12 -8 -12 -7 -12 18 7 18 6 -14 -17 -14 -17 16 6 15 6
13 -19 12 -20 -6 -9 -6 -9 -14 6 -15 5 0 10 0 10 16 -6 15 -6 -7 11 -6 11 -19
-5 -18 -5 1 7 0 6 -1 13 -1 12 -9 0 -9 0 5 -22 4 -23 -14 18 -15 18 -6 -9 -6
-9 20 -18 20 -18 6 6 6 6 15 -14 14 -15 19 0 18 0 6 -15 5 -15 24 0 23 0 0 20
0 20 -8 0 -8 0 0 -15 0 -15 -12 0 -11 0 6 7 7 6 -18 14 -17 14 13 -6 13 -7 24
16 24 16 -6 -15 -5 -16 8 2 9 1 10 -2 10 -2 14 -2 14 -1 4 -11 4 -11 -21 -6
-20 -5 0 14 0 14 -9 0 -10 0 2 -19 1 -19 33 -10 33 -10 0 8 0 9 -17 3 -18 4
22 6 22 6 -1 -7 0 -6 1 -8 1 -8 20 11 20 10 -6 -14 -5 -14 10 -7 11 -6 0 16 0
17 12 -4 13 -5 13 14 13 13 10 0 10 0 -5 -9 -6 -9 15 -6 15 -5 0 -16 0 -16 13
7 12 7 -7 -7 -6 -8 -9 0 -8 1 -20 -17 -20 -17 7 9 8 9 -13 15 -12 16 11 -7 12
-7 11 14 11 14 -18 4 -19 5 -19 -14 -19 -14 -19 -11 -18 -10 6 11 7 11 -23 -3
-23 -4 -35 10 -35 10 -23 -1 -23 -2 5 8 5 9 -22 -2 -22 -2 1 -16 2 -16 -18 9
-17 9 -8 -7 -8 -7 7 13 7 12 11 -6 11 -7 -6 10 -6 10 -23 -2 -22 -2 -4 -11 -4
-12 11 0 11 0 0 -10 0 -10 -14 0 -14 0 -5 13 -5 14 7 12 8 12 31 5 32 5 0 -11
0 -11 10 6 10 6 0 14 0 13 -50 -2 -50 -3 6 22 5 22 -22 6 -22 6 12 15 13 16
-6 16 -6 17 15 -13 15 -13 7 7 7 7 2 15 2 16 -14 -6 -14 -5 -1 14 -1 15 -2 13
-1 12 15 6 15 6 4 -3 5 -4 -19 -14z m260 14 l6 -10 4 -19 4 -19 -16 -7 -16 -6
-9 13 -8 13 15 11 14 11 -11 11 -12 12 11 0 12 0 6 -10z m485 -22 l0 -7 13 5
14 5 13 -16 13 -16 -10 -10 -10 -10 -16 7 -17 6 7 12 7 11 -15 -11 -14 -11
-18 2 -17 3 6 -9 5 -9 -21 0 -21 0 7 12 7 11 -16 -6 -16 -6 6 15 6 16 21 8 21
7 22 -1 23 -1 0 -7z m-375 -18 l17 -14 6 11 7 10 27 -1 27 -2 8 -8 8 -9 -25 6
-25 6 20 -16 20 -16 -17 6 -17 6 -10 -13 -11 -13 8 -8 7 -8 -13 7 -12 7 10 20
11 19 -11 0 -10 0 0 -9 0 -9 -12 2 -13 2 -12 7 -13 8 0 -13 0 -13 -9 14 -9 14
-14 -5 -14 -6 0 17 0 17 27 -1 27 -1 17 -14z m-145 -26 l0 -15 12 7 11 7 -7
-11 -7 -12 -14 0 -13 0 -5 14 -6 14 6 6 6 6 9 0 8 0 0 -16z m690 -16 l0 -7
-10 -6 -10 -6 0 9 0 10 -20 5 -20 5 0 10 0 10 30 -11 30 -11 0 -8z m-601 11
l8 13 7 -17 6 -16 10 6 10 6 0 -10 0 -11 8 1 7 1 13 -1 12 -1 0 -11 0 -10 -9
6 -10 5 -5 -9 -6 -10 10 -6 11 -7 -3 -21 -3 -22 13 -1 12 -1 9 -2 9 -1 5 -13
5 -13 -18 0 -18 0 6 15 5 14 -10 -6 -11 -7 -12 15 -12 15 5 14 6 15 -14 11
-15 12 5 8 5 8 -27 0 -26 0 -9 16 -9 16 -11 -6 -11 -7 7 12 8 12 15 -12 15
-13 7 13z m431 -4 l0 -14 -16 6 -16 6 14 8 13 9 3 0 2 0 0 -15z m-792 -26 l-4
-13 -7 23 -6 24 11 -11 10 -10 -4 -13z m188 -17 l2 -13 -14 12 -14 11 0 22 1
21 11 -20 12 -20 2 -13z m38 32 l6 -15 -9 6 -9 5 -4 -9 -3 -9 -15 16 -14 16
17 -7 17 -6 0 9 0 10 4 0 4 0 6 -16z m330 1 l-19 -14 -9 -1 -10 0 20 15 19 14
9 1 10 0 -20 -15z m-59 -5 l6 -10 -15 6 -16 6 0 4 0 4 9 0 10 0 6 -10z m240 0
l-6 -10 -10 0 -10 0 6 10 6 10 10 0 10 0 -6 -10z m151 -28 l11 -22 9 8 8 7
-14 -18 -14 -19 15 -9 14 -9 -23 0 -23 0 7 -12 7 -11 -16 6 -17 6 0 -8 0 -9
-20 -5 -20 -5 0 8 0 8 16 6 15 6 -7 11 -7 12 11 -6 10 -7 16 6 16 6 0 15 0 15
-17 -13 -18 -14 12 16 13 16 -8 8 -7 8 13 -7 12 -7 0 11 0 11 -22 9 -23 10 20
-3 19 -2 12 -23z m-574 -7 l5 5 0 -15 0 -15 -2 0 -2 0 -19 22 -19 23 16 -13
16 -12 5 5z m216 -2 l-3 -18 -18 -1 -17 -2 16 5 15 5 -5 14 -5 14 10 0 10 0
-3 -17z m129 10 l-7 -6 10 -12 10 -12 -14 0 -14 0 3 16 3 16 1 3 1 2 7 0 6 0
-6 -7z m43 -3 l0 -10 -4 0 -5 0 -6 10 -6 10 10 0 11 0 0 -10z m89 -20 l7 0 12
12 12 12 0 -12 0 -11 -16 -9 -17 -9 7 -12 7 -11 11 6 11 7 -7 -12 -7 -11 -10
6 -10 6 4 -27 3 -26 15 -10 14 -9 -12 0 -12 0 -6 10 -6 10 -8 -5 -8 -4 3 39 3
40 -11 -6 -11 -7 9 14 9 14 -2 20 -2 20 5 -17 5 -18 8 0z m165 17 l19 -14 -17
0 -16 0 0 9 0 9 -10 -6 -10 -6 0 10 0 11 8 0 8 0 18 -13z m-1027 -44 l1 -28
-5 18 -4 17 -10 0 -10 0 6 10 6 10 -18 0 -18 0 15 10 14 9 11 -9 11 -9 1 -28z
m808 25 l-6 -23 15 19 16 20 0 -11 0 -12 -11 -7 -12 -7 17 -9 16 -9 0 -15 0
-15 -10 6 -10 6 3 -38 3 -39 -20 -2 -21 -1 14 8 14 9 -7 11 -7 11 13 0 13 1
-18 14 -19 14 10 18 11 18 -16 17 -15 17 7 10 6 11 10 0 10 0 -6 -22z m-377
-23 l-6 -6 -6 18 -7 18 12 -12 13 -13 -6 -5z m336 10 l-6 -15 -10 0 -10 0 12
15 12 15 4 0 3 0 -5 -15z m-402 -17 l-12 -12 0 10 0 11 7 6 6 7 6 -5 5 -5 -12
-12z m270 -18 l6 -16 -14 -19 -14 -19 0 7 0 6 -22 -8 -23 -8 0 -18 0 -18 -18
-3 -17 -2 0 14 0 15 9 -5 9 -6 6 16 6 16 -15 -6 -16 -6 6 11 7 10 15 -5 15 -6
-6 16 -6 17 14 -12 13 -11 17 6 17 7 -5 14 -6 15 0 9 0 10 -10 -6 -10 -6 6 15
6 15 12 -12 12 -12 6 -15z m127 4 l4 -4 -20 0 -21 0 -6 15 -6 15 23 -11 22
-12 4 -3z m256 15 l7 -10 -3 -4 -4 -3 -13 14 -13 14 10 0 10 0 6 -11z m-320
-9 l6 -10 -15 6 -16 6 0 4 0 4 9 0 10 0 6 -10z m-606 -42 l1 -8 -10 0 -10 0 1
28 0 27 9 -20 9 -20 0 -7z m635 11 l-19 -8 -20 0 -20 -1 25 13 25 14 14 -5 15
-5 -20 -8z m256 11 l0 -10 -4 0 -5 0 -6 10 -6 10 10 0 11 0 0 -10z m-1124 -25
l-5 -15 8 0 9 0 5 13 5 12 1 -12 1 -12 -10 -6 -10 -6 -10 6 -9 6 6 14 5 15 5
0 5 0 -6 -15z m912 -10 l-6 -6 -6 18 -7 18 12 -12 13 -13 -6 -5z m-107 1 l9 5
0 -15 0 -16 8 1 7 1 23 -7 22 -7 0 -9 0 -8 -22 2 -23 3 -21 11 -21 12 -7 -6
-6 -6 0 20 0 20 7 7 8 7 3 -10 4 -11 9 6z m-343 -19 l17 6 -24 -22 -24 -21 -6
6 -6 7 12 4 12 4 -3 12 -3 12 4 -7 4 -7 17 6z m115 -28 l-12 -12 2 21 1 22 10
-10 10 -10 -11 -11z m168 12 l-16 -17 -7 10 -8 11 0 5 0 5 24 1 24 2 -17 -17z
m-254 -6 l0 -14 -9 5 -8 5 5 10 6 9 3 0 3 0 0 -15z m277 -3 l5 -9 -14 0 -15 0
0 9 0 8 9 0 10 0 5 -8z m-117 -8 l-6 -6 -13 5 -13 5 19 1 19 1 -6 -6z"/>
<path d="M153 875 l0 -15 9 0 8 0 0 9 0 10 -8 5 -9 5 0 -14z"/>
<path d="M791 744 l1 -19 5 13 5 13 -6 6 -6 6 1 -19z"/>
<path d="M688 703 l13 -5 6 6 6 6 -19 -1 -19 -1 13 -5z"/>
<path d="M240 845 l0 -3 13 -11 14 -11 0 13 0 14 -14 0 -13 0 0 -2z"/>
<path d="M396 603 l3 -12 -12 -4 -11 -3 12 -8 12 -7 0 10 0 11 11 0 10 0 -5
-9 -6 -9 13 -5 13 -5 1 19 2 19 -19 0 -18 0 -5 8 -4 7 3 -12z"/>
<path d="M460 580 l-15 -10 12 0 12 0 6 10 6 10 -3 0 -3 0 -15 -10z"/>
<path d="M355 560 l-6 -10 10 0 11 0 0 10 0 10 -4 0 -5 0 -6 -10z"/>
<path d="M998 573 l12 -5 13 5 12 5 -25 0 -25 0 13 -5z"/>
<path d="M634 568 l-7 -13 8 7 8 8 16 -13 16 -12 -14 18 -13 17 -4 0 -3 0 -7
-12z"/>
<path d="M1 924 l-1 -42 15 -6 15 -5 0 5 0 5 -10 19 -10 20 17 -6 18 -6 -16
14 -16 13 -6 15 -5 15 -1 -41z"/>
<path d="M179 543 l-14 -17 12 7 12 7 8 -12 7 -13 2 -13 2 -14 6 -6 6 -5 0 21
0 21 -10 6 -10 6 5 9 5 9 -9 5 -9 6 -13 -17z"/>
</g>
</svg>
