<?xml version="1.0" standalone="no"?>
<!DOCTYPE svg PUBLIC "-//W3C//DTD SVG 20010904//EN"
 "http://www.w3.org/TR/2001/REC-SVG-20010904/DTD/svg10.dtd">
<svg version="1.0" xmlns="http://www.w3.org/2000/svg"
 width="468pt" height="468pt" viewBox="0 0 468 468"
 preserveAspectRatio="xMidYMid meet">
<metadata>
Created by potrace 1.8, written by Peter Selinger 2001-2007
</metadata>
<g transform="translate(0,468) scale(0.365625,-0.365625)"
fill="#000000" stroke="none">
<path d="M270 1040 l0 -30 -80 0 -80 0 0 -25 0 -25 -30 0 -30 0 0 -135 0 -135
30 0 30 0 0 -25 0 -25 80 0 80 0 0 -25 0 -25 25 0 25 0 0 -215 0 -215 320 0
320 0 0 215 0 215 25 0 25 0 0 25 0 25 80 0 80 0 0 25 0 25 30 0 30 0 0 135 0
135 -30 0 -30 0 0 25 0 25 -80 0 -80 0 0 30 0 30 -80 0 -80 0 0 -30 0 -30 -50
0 -50 0 0 -25 0 -25 -30 0 -30 0 0 25 0 25 -50 0 -50 0 0 -25 0 -25 -30 0 -30
0 0 25 0 25 -50 0 -50 0 0 30 0 30 -80 0 -80 0 0 -30z m100 -55 l0 -25 -50 0
-50 0 0 25 0 25 50 0 50 0 0 -25z m640 0 l0 -25 -50 0 -50 0 0 25 0 25 50 0
50 0 0 -25z m-850 -50 l0 -25 -25 0 -25 0 0 25 0 25 25 0 25 0 0 -25z m1010 0
l0 -25 -25 0 -25 0 0 25 0 25 25 0 25 0 0 -25z m-900 -55 l0 -30 50 0 50 0 0
30 0 30 30 0 30 0 0 -30 0 -30 50 0 50 0 0 30 0 30 30 0 30 0 0 -30 0 -30 50
0 50 0 0 30 0 30 30 0 30 0 0 -30 0 -30 50 0 50 0 0 30 0 30 30 0 30 0 0 -30
0 -30 50 0 50 0 0 30 0 30 30 0 30 0 0 -30 0 -30 50 0 50 0 0 -25 0 -25 -50 0
-50 0 0 25 0 25 -30 0 -30 0 0 -25 0 -25 -50 0 -50 0 0 25 0 25 -30 0 -30 0 0
-25 0 -25 -50 0 -50 0 0 25 0 25 -30 0 -30 0 0 -25 0 -25 -50 0 -50 0 0 25 0
25 -30 0 -30 0 0 -25 0 -25 -50 0 -50 0 0 25 0 25 -30 0 -30 0 0 -25 0 -25
-50 0 -50 0 0 25 0 25 -30 0 -30 0 0 -25 0 -25 -50 0 -50 0 0 25 0 25 50 0 50
0 0 30 0 30 30 0 30 0 0 -30z m0 -160 l0 -30 50 0 50 0 0 30 0 30 30 0 30 0 0
-30 0 -30 50 0 50 0 0 30 0 30 30 0 30 0 0 -30 0 -30 50 0 50 0 0 30 0 30 30
0 30 0 0 -30 0 -30 50 0 50 0 0 30 0 30 30 0 30 0 0 -30 0 -30 50 0 50 0 0 30
0 30 30 0 30 0 0 -30 0 -30 -30 0 -30 0 0 -25 0 -25 -50 0 -50 0 0 25 0 25
-30 0 -30 0 0 -25 0 -25 -50 0 -50 0 0 25 0 25 -30 0 -30 0 0 -25 0 -25 -50 0
-50 0 0 25 0 25 -30 0 -30 0 0 -25 0 -25 -50 0 -50 0 0 25 0 25 -30 0 -30 0 0
-25 0 -25 -50 0 -50 0 0 25 0 25 -30 0 -30 0 0 30 0 30 30 0 30 0 0 -30z m160
-160 l0 -30 50 0 50 0 0 30 0 30 30 0 30 0 0 -30 0 -30 50 0 50 0 0 30 0 30
30 0 30 0 0 -30 0 -30 50 0 50 0 0 30 0 30 30 0 30 0 0 -30 0 -30 -30 0 -30 0
0 -25 0 -25 -50 0 -50 0 0 25 0 25 -30 0 -30 0 0 -25 0 -25 -50 0 -50 0 0 25
0 25 -30 0 -30 0 0 -25 0 -25 -50 0 -50 0 0 25 0 25 -30 0 -30 0 0 30 0 30 30
0 30 0 0 -30z m0 -160 l0 -30 50 0 50 0 0 30 0 30 30 0 30 0 0 -30 0 -30 50 0
50 0 0 30 0 30 30 0 30 0 0 -30 0 -30 50 0 50 0 0 30 0 30 30 0 30 0 0 -30 0
-30 -30 0 -30 0 0 -25 0 -25 -50 0 -50 0 0 25 0 25 -30 0 -30 0 0 -25 0 -25
-50 0 -50 0 0 25 0 25 -30 0 -30 0 0 -25 0 -25 -50 0 -50 0 0 25 0 25 -30 0
-30 0 0 30 0 30 30 0 30 0 0 -30z m0 -160 l0 -30 -30 0 -30 0 0 30 0 30 30 0
30 0 0 -30z m160 0 l0 -30 -30 0 -30 0 0 30 0 30 30 0 30 0 0 -30z m160 0 l0
-30 -30 0 -30 0 0 30 0 30 30 0 30 0 0 -30z m160 0 l0 -30 -30 0 -30 0 0 30 0
30 30 0 30 0 0 -30z"/>
</g>
</svg>
