<?xml version="1.0" standalone="no"?>
<!DOCTYPE svg PUBLIC "-//W3C//DTD SVG 20010904//EN"
 "http://www.w3.org/TR/2001/REC-SVG-20010904/DTD/svg10.dtd">
<svg version="1.0" xmlns="http://www.w3.org/2000/svg"
 width="468pt" height="468pt" viewBox="0 0 468 468"
 preserveAspectRatio="xMidYMid meet">
<metadata>
Created by potrace 1.8, written by Peter Selinger 2001-2007
</metadata>
<g transform="translate(0,468) scale(0.365625,-0.365625)"
fill="#000000" stroke="none">
<path d="M430 1265 l0 -15 -50 0 -50 0 0 -20 0 -20 -15 0 -15 0 0 -15 0 -15
-20 0 -20 0 0 -15 0 -15 -15 0 -15 0 0 -15 0 -15 -15 0 -15 0 0 -20 0 -20 -20
0 -20 0 0 -50 0 -50 -15 0 -15 0 0 -160 0 -160 -15 0 -15 0 0 -20 0 -20 -15 0
-15 0 0 -15 0 -15 -20 0 -20 0 0 -50 0 -50 -15 0 -15 0 0 -145 0 -145 15 0 15
0 0 -50 0 -50 20 0 20 0 0 -15 0 -15 15 0 15 0 0 -20 0 -20 15 0 15 0 0 -15 0
-15 200 0 200 0 0 130 0 130 -50 0 -50 0 0 50 0 50 -20 0 -20 0 0 15 0 15 -45
0 -45 0 0 20 0 20 -20 0 -20 0 0 15 0 15 -15 0 -15 0 0 15 0 15 -15 0 -15 0 0
-15 0 -15 -20 0 -20 0 0 -15 0 -15 -30 0 -30 0 0 30 0 30 15 0 15 0 0 20 0 20
15 0 15 0 0 15 0 15 -15 0 -15 0 0 30 0 30 15 0 15 0 0 -15 0 -15 20 0 20 0 0
-15 0 -15 15 0 15 0 0 -15 0 -15 15 0 15 0 0 -20 0 -20 20 0 20 0 0 -15 0 -15
15 0 15 0 0 -15 0 -15 50 0 50 0 0 -20 0 -20 30 0 30 0 0 -30 0 -30 -15 0 -15
0 0 -15 0 -15 65 0 65 0 0 15 0 15 -15 0 -15 0 0 30 0 30 30 0 30 0 0 20 0 20
50 0 50 0 0 15 0 15 15 0 15 0 0 15 0 15 20 0 20 0 0 20 0 20 15 0 15 0 0 15
0 15 15 0 15 0 0 15 0 15 20 0 20 0 0 50 0 50 15 0 15 0 0 165 0 165 -15 0
-15 0 0 30 0 30 -20 0 -20 0 0 20 0 20 -15 0 -15 0 0 15 0 15 -15 0 -15 0 0
15 0 15 -20 0 -20 0 0 15 0 15 -15 0 -15 0 0 20 0 20 -50 0 -50 0 0 15 0 15
-95 0 -95 0 0 -15z m230 -100 l0 -15 15 0 15 0 0 -15 0 -15 15 0 15 0 0 -20 0
-20 15 0 15 0 0 -30 0 -30 -30 0 -30 0 0 15 0 15 -15 0 -15 0 0 15 0 15 -20 0
-20 0 0 20 0 20 -15 0 -15 0 0 30 0 30 35 0 35 0 0 -15z m160 -180 l0 -35 -35
0 -35 0 0 15 0 15 20 0 20 0 0 20 0 20 15 0 15 0 0 -35z"/>
<path d="M950 820 l0 -160 -15 0 -15 0 0 -50 0 -50 -15 0 -15 0 0 -15 0 -15
-20 0 -20 0 0 -20 0 -20 -15 0 -15 0 0 -130 0 -130 -15 0 -15 0 0 -50 0 -50
30 0 30 0 0 -30 0 -30 -15 0 -15 0 0 -20 0 -20 65 0 65 0 0 20 0 20 -15 0 -15
0 0 30 0 30 30 0 30 0 0 15 0 15 50 0 50 0 0 20 0 20 20 0 20 0 0 15 0 15 15
0 15 0 0 15 0 15 15 0 15 0 0 20 0 20 15 0 15 0 0 15 0 15 20 0 20 0 0 50 0
50 15 0 15 0 0 145 0 145 -15 0 -15 0 0 50 0 50 -20 0 -20 0 0 15 0 15 -15 0
-15 0 0 20 0 20 -15 0 -15 0 0 15 0 15 -15 0 -15 0 0 15 0 15 -20 0 -20 0 0
15 0 15 -65 0 -65 0 0 -160z m100 50 l0 -20 15 0 15 0 0 -15 0 -15 20 0 20 0
0 -35 0 -35 -35 0 -35 0 0 20 0 20 -15 0 -15 0 0 15 0 15 -20 0 -20 0 0 35 0
35 35 0 35 0 0 -20z m130 -150 l0 -30 -30 0 -30 0 0 15 0 15 15 0 15 0 0 15 0
15 15 0 15 0 0 -30z"/>
<path d="M160 510 l0 -20 20 0 20 0 0 20 0 20 -20 0 -20 0 0 -20z"/>
<path d="M750 410 l0 -20 -45 0 -45 0 0 -15 0 -15 -20 0 -20 0 0 -50 0 -50
-30 0 -30 0 0 -130 0 -130 50 0 50 0 0 15 0 15 15 0 15 0 0 20 0 20 15 0 15 0
0 15 0 15 15 0 15 0 0 65 0 65 20 0 20 0 0 100 0 100 -20 0 -20 0 0 -20z"/>
</g>
</svg>
