<?xml version="1.0" standalone="no"?>
<!DOCTYPE svg PUBLIC "-//W3C//DTD SVG 20010904//EN"
 "http://www.w3.org/TR/2001/REC-SVG-20010904/DTD/svg10.dtd">
<svg version="1.0" xmlns="http://www.w3.org/2000/svg"
 width="468pt" height="468pt" viewBox="0 0 468 468"
 preserveAspectRatio="xMidYMid meet">
<metadata>
Created by potrace 1.8, written by Peter Selinger 2001-2007
</metadata>
<g transform="translate(0,468) scale(0.365625,-0.365625)"
fill="#000000" stroke="none">
<path d="M110 1200 l0 -30 25 0 25 0 0 30 0 30 -25 0 -25 0 0 -30z"/>
<path d="M640 1200 l0 -30 -55 0 -55 0 0 -25 0 -25 -25 0 -25 0 0 25 0 25
-105 0 -105 0 0 -25 0 -25 -55 0 -55 0 0 -25 0 -25 -25 0 -25 0 0 -30 0 -30
-30 0 -30 0 0 -105 0 -105 30 0 30 0 0 -55 0 -55 25 0 25 0 0 -25 0 -25 -25 0
-25 0 0 -55 0 -55 -30 0 -30 0 0 -105 0 -105 30 0 30 0 0 -25 0 -25 25 0 25 0
0 -30 0 -30 55 0 55 0 0 30 0 30 -55 0 -55 0 0 25 0 25 -25 0 -25 0 0 105 0
105 25 0 25 0 0 55 0 55 25 0 25 0 0 25 0 25 -25 0 -25 0 0 55 0 55 -25 0 -25
0 0 105 0 105 25 0 25 0 0 30 0 30 55 0 55 0 0 25 0 25 105 0 105 0 0 -25 0
-25 25 0 25 0 0 25 0 25 55 0 55 0 0 25 0 25 160 0 160 0 0 -25 0 -25 -25 0
-25 0 0 -25 0 -25 25 0 25 0 0 -30 0 -30 25 0 25 0 0 30 0 30 -25 0 -25 0 0
25 0 25 55 0 55 0 0 -55 0 -55 25 0 25 0 0 -80 0 -80 -25 0 -25 0 0 -25 0 -25
25 0 25 0 0 -25 0 -25 -25 0 -25 0 0 -30 0 -30 25 0 25 0 0 30 0 30 25 0 25 0
0 -80 0 -80 -25 0 -25 0 0 -30 0 -30 -25 0 -25 0 0 -25 0 -25 25 0 25 0 0 -25
0 -25 25 0 25 0 0 -80 0 -80 -25 0 -25 0 0 -55 0 -55 -55 0 -55 0 0 -25 0 -25
-80 0 -80 0 0 25 0 25 -25 0 -25 0 0 -25 0 -25 -55 0 -55 0 0 -30 0 -30 -105
0 -105 0 0 30 0 30 -55 0 -55 0 0 50 0 50 -25 0 -25 0 0 -50 0 -50 25 0 25 0
0 -30 0 -30 55 0 55 0 0 -25 0 -25 105 0 105 0 0 25 0 25 55 0 55 0 0 30 0 30
25 0 25 0 0 -30 0 -30 80 0 80 0 0 30 0 30 55 0 55 0 0 25 0 25 25 0 25 0 0
55 0 55 30 0 30 0 0 80 0 80 -30 0 -30 0 0 80 0 80 30 0 30 0 0 80 0 80 -30 0
-30 0 0 25 0 25 -25 0 -25 0 0 25 0 25 25 0 25 0 0 80 0 80 -25 0 -25 0 0 55
0 55 -25 0 -25 0 0 25 0 25 -55 0 -55 0 0 30 0 30 -160 0 -160 0 0 -30z"/>
<path d="M1120 1200 l0 -30 25 0 25 0 0 30 0 30 -25 0 -25 0 0 -30z"/>
<path d="M690 1095 l0 -25 30 0 30 0 0 25 0 25 -30 0 -30 0 0 -25z"/>
<path d="M1170 1095 l0 -25 30 0 30 0 0 25 0 25 -30 0 -30 0 0 -25z"/>
<path d="M370 1040 l0 -30 30 0 30 0 0 30 0 30 -30 0 -30 0 0 -30z"/>
<path d="M210 985 l0 -25 -25 0 -25 0 0 -55 0 -55 25 0 25 0 0 55 0 55 30 0
30 0 0 25 0 25 -30 0 -30 0 0 -25z"/>
<path d="M640 985 l0 -25 -25 0 -25 0 0 -25 0 -25 25 0 25 0 0 25 0 25 105 0
105 0 0 -25 0 -25 30 0 30 0 0 -55 0 -55 25 0 25 0 0 55 0 55 -25 0 -25 0 0
25 0 25 -30 0 -30 0 0 25 0 25 -105 0 -105 0 0 -25z"/>
<path d="M370 935 l0 -25 -25 0 -25 0 0 -55 0 -55 25 0 25 0 0 55 0 55 55 0
55 0 0 25 0 25 -55 0 -55 0 0 -25z"/>
<path d="M750 880 l0 -30 25 0 25 0 0 -25 0 -25 25 0 25 0 0 25 0 25 -25 0
-25 0 0 30 0 30 -25 0 -25 0 0 -30z"/>
<path d="M430 825 l0 -25 25 0 25 0 0 25 0 25 -25 0 -25 0 0 -25z"/>
<path d="M530 775 l0 -25 -25 0 -25 0 0 -30 0 -30 25 0 25 0 0 30 0 30 30 0
30 0 0 25 0 25 -30 0 -30 0 0 -25z"/>
<path d="M640 775 l0 -25 55 0 55 0 0 -30 0 -30 25 0 25 0 0 30 0 30 -25 0
-25 0 0 25 0 25 -55 0 -55 0 0 -25z"/>
<path d="M270 670 l0 -80 25 0 25 0 0 -30 0 -30 25 0 25 0 0 30 0 30 -25 0
-25 0 0 80 0 80 -25 0 -25 0 0 -80z"/>
<path d="M910 720 l0 -30 25 0 25 0 0 -50 0 -50 -25 0 -25 0 0 -30 0 -30 25 0
25 0 0 30 0 30 25 0 25 0 0 50 0 50 -25 0 -25 0 0 30 0 30 -25 0 -25 0 0 -30z"/>
<path d="M0 665 l0 -25 25 0 25 0 0 25 0 25 -25 0 -25 0 0 -25z"/>
<path d="M370 665 l0 -25 30 0 30 0 0 25 0 25 -30 0 -30 0 0 -25z"/>
<path d="M640 665 l0 -25 -25 0 -25 0 0 -25 0 -25 25 0 25 0 0 25 0 25 25 0
25 0 0 25 0 25 -25 0 -25 0 0 -25z"/>
<path d="M480 585 l0 -55 25 0 25 0 0 -25 0 -25 30 0 30 0 0 25 0 25 -30 0
-30 0 0 55 0 55 -25 0 -25 0 0 -55z"/>
<path d="M750 560 l0 -30 -30 0 -30 0 0 -25 0 -25 30 0 30 0 0 25 0 25 25 0
25 0 0 30 0 30 -25 0 -25 0 0 -30z"/>
<path d="M160 425 l0 -55 25 0 25 0 0 -25 0 -25 30 0 30 0 0 25 0 25 -30 0
-30 0 0 55 0 55 -25 0 -25 0 0 -55z"/>
<path d="M320 455 l0 -25 25 0 25 0 0 25 0 25 -25 0 -25 0 0 -25z"/>
<path d="M800 455 l0 -25 25 0 25 0 0 25 0 25 -25 0 -25 0 0 -25z"/>
<path d="M910 425 l0 -55 -80 0 -80 0 0 -25 0 -25 80 0 80 0 0 25 0 25 25 0
25 0 0 55 0 55 -25 0 -25 0 0 -55z"/>
<path d="M430 375 l0 -55 25 0 25 0 0 -25 0 -25 80 0 80 0 0 25 0 25 25 0 25
0 0 25 0 25 -25 0 -25 0 0 -25 0 -25 -80 0 -80 0 0 55 0 55 -25 0 -25 0 0 -55z"/>
<path d="M530 400 l0 -30 30 0 30 0 0 30 0 30 -30 0 -30 0 0 -30z"/>
<path d="M320 295 l0 -25 25 0 25 0 0 25 0 25 -25 0 -25 0 0 -25z"/>
<path d="M1010 295 l0 -25 -25 0 -25 0 0 -30 0 -30 25 0 25 0 0 30 0 30 30 0
30 0 0 25 0 25 -30 0 -30 0 0 -25z"/>
<path d="M750 240 l0 -30 25 0 25 0 0 30 0 30 -25 0 -25 0 0 -30z"/>
<path d="M50 185 l0 -25 30 0 30 0 0 25 0 25 -30 0 -30 0 0 -25z"/>
<path d="M430 185 l0 -25 25 0 25 0 0 25 0 25 -25 0 -25 0 0 -25z"/>
<path d="M530 135 l0 -25 55 0 55 0 0 25 0 25 -55 0 -55 0 0 -25z"/>
<path d="M160 80 l0 -30 25 0 25 0 0 30 0 30 -25 0 -25 0 0 -30z"/>
<path d="M1170 80 l0 -30 30 0 30 0 0 30 0 30 -30 0 -30 0 0 -30z"/>
</g>
</svg>
