<?xml version="1.0" standalone="no"?>
<!DOCTYPE svg PUBLIC "-//W3C//DTD SVG 20010904//EN"
 "http://www.w3.org/TR/2001/REC-SVG-20010904/DTD/svg10.dtd">
<svg version="1.0" xmlns="http://www.w3.org/2000/svg"
 width="468pt" height="468pt" viewBox="0 0 468 468"
 preserveAspectRatio="xMidYMid meet">
<metadata>
Created by potrace 1.8, written by Peter Selinger 2001-2007
</metadata>
<g transform="translate(0,468) scale(0.365625,-0.365625)"
fill="#000000" stroke="none">
<path d="M0 640 l0 -640 640 0 640 0 0 640 0 640 -325 0 -325 0 0 -10 0 -10
-11 0 -10 0 6 10 6 10 -310 0 -311 0 0 -640z m524 622 l5 -8 -19 0 -19 0 5 8
5 8 9 0 9 0 5 -8z m221 -2 l6 -10 -15 6 -16 6 0 4 0 4 9 0 10 0 6 -10z m-288
-17 l-17 -17 -12 13 -13 12 16 -6 17 -6 7 10 6 11 7 0 6 0 -17 -17z m354 2
l15 6 27 -21 27 -21 0 -9 0 -9 -24 24 -24 24 -37 -4 -36 -5 13 14 13 14 6 -9
6 -10 14 6z m-431 -46 l0 -9 -9 0 -9 0 -5 14 -6 15 15 -6 14 -5 0 -9z m530 6
l12 -15 -10 0 -10 0 -6 15 -5 15 3 0 4 0 12 -15z m-570 -9 l0 -4 -16 -6 -15
-6 6 10 6 10 10 0 9 0 0 -4z m-30 -30 l0 -5 -10 -6 -10 -6 0 10 0 11 10 0 10
0 0 -4z m30 0 l0 -5 -10 -6 -10 -6 0 10 0 11 10 0 10 0 0 -4z m620 -6 l0 -10
-4 0 -5 0 -6 10 -6 10 10 0 11 0 0 -10z m-700 -10 l-15 -10 13 0 12 0 0 -11 0
-11 -15 12 -15 12 6 9 5 9 12 0 12 0 -15 -10z m730 -20 l0 -10 -4 0 -5 0 -6
10 -6 10 10 0 11 0 0 -10z m35 0 l6 -10 -10 0 -11 0 0 10 0 10 4 0 5 0 6 -10z
m-825 -40 l0 -10 -11 0 -10 0 6 10 6 10 5 0 4 0 0 -10z"/>
</g>
</svg>
