<?xml version="1.0" standalone="no"?>
<!DOCTYPE svg PUBLIC "-//W3C//DTD SVG 20010904//EN"
 "http://www.w3.org/TR/2001/REC-SVG-20010904/DTD/svg10.dtd">
<svg version="1.0" xmlns="http://www.w3.org/2000/svg"
 width="468pt" height="468pt" viewBox="0 0 468 468"
 preserveAspectRatio="xMidYMid meet">
<metadata>
Created by potrace 1.8, written by Peter Selinger 2001-2007
</metadata>
<g transform="translate(0,468) scale(0.365625,-0.365625)"
fill="#000000" stroke="none">
<path d="M640 1200 l0 -20 -10 0 -10 0 0 -20 0 -20 -10 0 -10 0 0 -20 0 -20
-10 0 -10 0 0 -20 0 -20 -10 0 -10 0 0 -20 0 -20 -10 0 -10 0 0 -20 0 -20 -10
0 -10 0 0 -20 0 -20 -10 0 -10 0 0 -20 0 -20 -10 0 -10 0 0 -20 0 -20 -10 0
-10 0 0 -20 0 -20 -10 0 -10 0 0 -20 0 -20 -10 0 -10 0 0 -20 0 -20 -10 0 -10
0 0 -20 0 -20 -10 0 -10 0 0 -20 0 -20 -10 0 -10 0 0 -20 0 -20 -10 0 -10 0 0
-20 0 -20 -10 0 -10 0 0 -20 0 -20 -10 0 -10 0 0 -20 0 -20 -10 0 -10 0 0 -20
0 -20 -10 0 -10 0 0 -20 0 -20 -10 0 -10 0 0 -20 0 -20 -10 0 -10 0 0 -20 0
-20 -10 0 -10 0 0 -20 0 -20 70 0 70 0 0 20 0 20 10 0 10 0 0 20 0 20 10 0 10
0 0 20 0 20 10 0 10 0 0 20 0 20 10 0 10 0 0 20 0 20 10 0 10 0 0 20 0 20 60
0 60 0 0 20 0 20 10 0 10 0 0 20 0 20 10 0 10 0 0 19 0 19 13 5 12 4 -9 9 -9
9 -4 -12 -5 -13 -9 0 -9 0 0 20 0 20 10 0 10 0 0 20 0 20 10 0 10 0 0 15 0 16
-25 24 -24 25 -16 0 -15 0 0 10 0 10 46 0 45 0 15 14 14 15 0 15 0 16 10 0 10
0 0 20 0 20 10 0 10 0 0 -20 0 -20 20 0 20 0 0 20 0 20 10 0 10 0 0 20 0 20
10 0 10 0 0 20 0 20 10 0 10 0 0 20 0 20 10 0 10 0 0 20 0 20 10 0 10 0 0 20
0 20 10 0 10 0 0 20 0 20 10 0 10 0 0 20 0 20 -120 0 -120 0 0 -20z"/>
<path d="M920 1200 l0 -20 -10 0 -10 0 0 -20 0 -20 -10 0 -10 0 0 -20 0 -20
-10 0 -10 0 0 -20 0 -20 -10 0 -10 0 0 -20 0 -20 -10 0 -10 0 0 -20 0 -20 -10
0 -10 0 0 -20 0 -20 -10 0 -10 0 0 -20 0 -20 -10 0 -10 0 0 -20 0 -20 -10 0
-10 0 0 -10 0 -10 50 0 50 0 0 -10 0 -10 -15 0 -16 0 -24 -25 -25 -24 0 -16 0
-15 10 0 10 0 0 -20 0 -20 10 0 10 0 0 -20 0 -20 -10 0 -10 0 0 10 0 10 -18 0
-18 0 -14 20 -14 20 -14 0 -13 0 -15 -14 -14 -15 0 -15 0 -16 -10 0 -10 0 0
-20 0 -20 -10 0 -10 0 0 -20 0 -20 -10 0 -10 0 0 -20 0 -20 110 0 110 0 0 20
0 20 10 0 10 0 0 20 0 20 10 0 10 0 0 20 0 20 10 0 10 0 0 20 0 20 10 0 10 0
0 20 0 20 10 0 10 0 0 20 0 20 10 0 10 0 0 20 0 20 10 0 10 0 0 20 0 20 10 0
10 0 0 20 0 20 10 0 10 0 0 20 0 20 10 0 10 0 0 20 0 20 10 0 10 0 0 20 0 20
10 0 10 0 0 20 0 20 10 0 10 0 0 20 0 20 10 0 10 0 0 20 0 20 10 0 10 0 0 20
0 20 10 0 10 0 0 20 0 20 -110 0 -110 0 0 -20z"/>
<path d="M453 505 l-13 -14 0 -16 0 -15 -10 0 -10 0 0 -20 0 -20 -10 0 -10 0
0 -20 0 -20 -10 0 -10 0 0 -20 0 -20 -10 0 -10 0 0 -20 0 -20 -10 0 -10 0 0
-20 0 -20 -10 0 -10 0 0 -20 0 -20 -10 0 -10 0 0 -20 0 -20 -10 0 -10 0 0 -20
0 -20 -10 0 -10 0 0 -20 0 -20 -10 0 -10 0 0 -20 0 -20 20 0 20 0 0 10 0 10
20 0 20 0 0 10 0 10 20 0 20 0 0 10 0 10 20 0 20 0 0 10 0 10 20 0 20 0 0 10
0 10 20 0 20 0 0 10 0 10 20 0 20 0 0 10 0 10 20 0 20 0 0 20 0 20 10 0 10 0
0 20 0 20 10 0 10 0 0 20 0 20 10 0 10 0 0 20 0 20 10 0 10 0 0 20 0 20 10 0
10 0 0 20 0 20 10 0 10 0 0 20 0 20 10 0 10 0 0 20 0 20 -117 0 -118 -1 -12
-14z"/>
<path d="M740 500 l0 -20 -10 0 -10 0 0 -20 0 -20 -10 0 -10 0 0 -20 0 -20
-10 0 -10 0 0 -20 0 -20 -10 0 -10 0 0 -20 0 -20 -10 0 -10 0 0 -20 0 -20 -10
0 -10 0 0 -20 0 -20 -10 0 -10 0 0 -25 0 -25 65 -65 65 -65 5 0 5 0 0 20 0 20
10 0 10 0 0 20 0 20 10 0 10 0 0 20 0 20 10 0 10 0 0 20 0 20 10 0 10 0 0 20
0 20 10 0 10 0 0 20 0 20 10 0 10 0 0 20 0 20 10 0 10 0 0 20 0 20 10 0 10 0
0 20 0 20 10 0 10 0 0 20 0 20 10 0 10 0 0 20 0 20 10 0 10 0 0 10 0 10 -110
0 -110 0 0 -20z"/>
</g>
</svg>
