<?xml version="1.0" standalone="no"?>
<!DOCTYPE svg PUBLIC "-//W3C//DTD SVG 20010904//EN"
 "http://www.w3.org/TR/2001/REC-SVG-20010904/DTD/svg10.dtd">
<svg version="1.0" xmlns="http://www.w3.org/2000/svg"
 width="468pt" height="468pt" viewBox="0 0 468 468"
 preserveAspectRatio="xMidYMid meet">
<metadata>
Created by potrace 1.8, written by Peter Selinger 2001-2007
</metadata>
<g transform="translate(0,468) scale(0.365625,-0.365625)"
fill="#000000" stroke="none">
<path d="M1120 1260 l0 -20 -40 0 -40 0 0 -20 0 -20 -20 0 -20 0 0 -60 0 -60
-20 0 -20 0 0 -20 0 -20 -20 0 -20 0 0 -20 0 -20 -20 0 -20 0 0 -40 0 -40 -40
0 -40 0 0 20 0 20 -20 0 -20 0 0 20 0 20 -40 0 -40 0 0 -20 0 -20 -20 0 -20 0
0 -20 0 -20 -20 0 -20 0 0 -80 0 -80 -20 0 -20 0 0 20 0 20 -20 0 -20 0 0 20
0 20 -20 0 -20 0 0 20 0 20 -20 0 -20 0 0 40 0 40 -20 0 -20 0 0 20 0 20 -20
0 -20 0 0 20 0 20 -20 0 -20 0 0 80 0 80 -20 0 -20 0 0 -20 0 -20 -20 0 -20 0
0 20 0 20 -20 0 -20 0 0 20 0 20 -40 0 -40 0 0 -60 0 -60 20 0 20 0 0 -20 0
-20 20 0 20 0 0 -20 0 -20 40 0 40 0 0 -40 0 -40 20 0 20 0 0 -20 0 -20 20 0
20 0 0 -40 0 -40 20 0 20 0 0 -40 0 -40 20 0 20 0 0 -40 0 -40 20 0 20 0 0
-120 0 -120 -20 0 -20 0 0 -40 0 -40 -20 0 -20 0 0 -80 0 -80 -40 0 -40 0 0
20 0 20 -20 0 -20 0 0 -20 0 -20 -20 0 -20 0 0 -20 0 -20 20 0 20 0 0 20 0 20
20 0 20 0 0 -20 0 -20 40 0 40 0 0 20 0 20 20 0 20 0 0 -20 0 -20 40 0 40 0 0
20 0 20 20 0 20 0 0 -20 0 -20 40 0 40 0 0 20 0 20 20 0 20 0 0 -20 0 -20 40
0 40 0 0 20 0 20 20 0 20 0 0 -20 0 -20 40 0 40 0 0 20 0 20 20 0 20 0 0 -20
0 -20 20 0 20 0 0 20 0 20 -20 0 -20 0 0 20 0 20 -20 0 -20 0 0 -20 0 -20 -40
0 -40 0 0 20 0 20 -20 0 -20 0 0 40 0 40 -20 0 -20 0 0 80 0 80 20 0 20 0 0
60 0 60 20 0 20 0 0 40 0 40 20 0 20 0 0 20 0 20 20 0 20 0 0 40 0 40 20 0 20
0 0 40 0 40 20 0 20 0 0 40 0 40 20 0 20 0 0 20 0 20 20 0 20 0 0 40 0 40 40
0 40 0 0 20 0 20 20 0 20 0 0 80 0 80 -20 0 -20 0 0 -20z m-920 -80 l0 -20 20
0 20 0 0 -20 0 -20 20 0 20 0 0 -20 0 -20 -40 0 -40 0 0 20 0 20 -20 0 -20 0
0 40 0 40 20 0 20 0 0 -20z m920 -20 l0 -40 -40 0 -40 0 0 40 0 40 40 0 40 0
0 -40z m-120 -140 l0 -20 -20 0 -20 0 0 -20 0 -20 -20 0 -20 0 0 20 0 20 20 0
20 0 0 20 0 20 20 0 20 0 0 -20z m-640 -40 l0 -20 20 0 20 0 0 -20 0 -20 -20
0 -20 0 0 20 0 20 -20 0 -20 0 0 20 0 20 20 0 20 0 0 -20z m400 -140 l0 -80
20 0 20 0 0 40 0 40 20 0 20 0 0 20 0 20 20 0 20 0 0 20 0 20 20 0 20 0 0 -20
0 -20 -20 0 -20 0 0 -40 0 -40 -20 0 -20 0 0 -40 0 -40 -20 0 -20 0 0 -20 0
-20 -20 0 -20 0 0 -40 0 -40 -20 0 -20 0 0 -60 0 -60 -20 0 -20 0 0 -80 0 -80
20 0 20 0 0 -20 0 -20 -140 0 -140 0 0 40 0 40 20 0 20 0 0 40 0 40 20 0 20 0
0 120 0 120 -20 0 -20 0 0 40 0 40 -20 0 -20 0 0 40 0 40 -20 0 -20 0 0 20 0
20 20 0 20 0 0 -20 0 -20 20 0 20 0 0 -20 0 -20 20 0 20 0 0 -20 0 -20 20 0
20 0 0 -20 0 -20 20 0 20 0 0 -20 0 -20 20 0 20 0 0 20 0 20 20 0 20 0 0 20 0
20 -20 0 -20 0 0 60 0 60 20 0 20 0 0 20 0 20 40 0 40 0 0 -80z"/>
<path d="M720 740 l0 -20 -20 0 -20 0 0 -20 0 -20 20 0 20 0 0 20 0 20 20 0
20 0 0 20 0 20 -20 0 -20 0 0 -20z"/>
<path d="M520 340 l0 -20 20 0 20 0 0 20 0 20 -20 0 -20 0 0 -20z"/>
<path d="M320 580 l0 -20 20 0 20 0 0 -40 0 -40 20 0 20 0 0 40 0 40 -20 0
-20 0 0 20 0 20 -20 0 -20 0 0 -20z"/>
<path d="M1000 580 l0 -20 -20 0 -20 0 0 -40 0 -40 20 0 20 0 0 40 0 40 20 0
20 0 0 20 0 20 -20 0 -20 0 0 -20z"/>
<path d="M160 540 l0 -20 20 0 20 0 0 -40 0 -40 20 0 20 0 0 40 0 40 -20 0
-20 0 0 20 0 20 -20 0 -20 0 0 -20z"/>
<path d="M880 420 l0 -20 -20 0 -20 0 0 -40 0 -40 20 0 20 0 0 40 0 40 20 0
20 0 0 20 0 20 -20 0 -20 0 0 -20z"/>
<path d="M280 380 l0 -20 20 0 20 0 0 -40 0 -40 20 0 20 0 0 40 0 40 -20 0
-20 0 0 20 0 20 -20 0 -20 0 0 -20z"/>
<path d="M1000 340 l0 -20 -20 0 -20 0 0 -40 0 -40 20 0 20 0 0 40 0 40 20 0
20 0 0 20 0 20 -20 0 -20 0 0 -20z"/>
<path d="M240 100 l0 -20 -40 0 -40 0 0 -20 0 -20 40 0 40 0 0 20 0 20 20 0
20 0 0 -20 0 -20 40 0 40 0 0 20 0 20 20 0 20 0 0 -20 0 -20 40 0 40 0 0 20 0
20 20 0 20 0 0 -20 0 -20 40 0 40 0 0 20 0 20 20 0 20 0 0 -20 0 -20 40 0 40
0 0 20 0 20 20 0 20 0 0 -20 0 -20 60 0 60 0 0 20 0 20 20 0 20 0 0 -20 0 -20
40 0 40 0 0 20 0 20 -40 0 -40 0 0 20 0 20 -20 0 -20 0 0 -20 0 -20 -60 0 -60
0 0 20 0 20 -20 0 -20 0 0 -20 0 -20 -40 0 -40 0 0 20 0 20 -20 0 -20 0 0 -20
0 -20 -40 0 -40 0 0 20 0 20 -20 0 -20 0 0 -20 0 -20 -40 0 -40 0 0 20 0 20
-20 0 -20 0 0 -20 0 -20 -40 0 -40 0 0 20 0 20 -20 0 -20 0 0 -20z"/>
</g>
</svg>
