<?xml version="1.0" standalone="no"?>
<!DOCTYPE svg PUBLIC "-//W3C//DTD SVG 20010904//EN"
 "http://www.w3.org/TR/2001/REC-SVG-20010904/DTD/svg10.dtd">
<svg version="1.0" xmlns="http://www.w3.org/2000/svg"
 width="468pt" height="468pt" viewBox="0 0 468 468"
 preserveAspectRatio="xMidYMid meet">
<metadata>
Created by potrace 1.8, written by Peter Selinger 2001-2007
</metadata>
<g transform="translate(0,468) scale(0.365625,-0.365625)"
fill="#000000" stroke="none">
<path d="M610 1255 l0 -25 -150 0 -150 0 0 -25 0 -25 -55 0 -55 0 0 -25 0 -25
-25 0 -25 0 0 -25 0 -25 -25 0 -25 0 0 -30 0 -30 -25 0 -25 0 0 -50 0 -50 25
0 25 0 0 -25 0 -25 -25 0 -25 0 0 -50 0 -50 -25 0 -25 0 0 -80 0 -80 50 0 50
0 0 -25 0 -25 25 0 25 0 0 25 0 25 25 0 25 0 0 -25 0 -25 30 0 30 0 0 25 0 25
50 0 50 0 0 30 0 30 50 0 50 0 0 -30 0 -30 50 0 50 0 0 -25 0 -25 25 0 25 0 0
-50 0 -50 -305 0 -305 0 0 -230 0 -230 640 0 640 0 0 230 0 230 -255 0 -255 0
0 75 0 75 25 0 25 0 0 30 0 30 50 0 50 0 0 25 0 25 25 0 25 0 0 -25 0 -25 55
0 55 0 0 -30 0 -30 50 0 50 0 0 30 0 30 25 0 25 0 0 50 0 50 25 0 25 0 0 25 0
25 -25 0 -25 0 0 25 0 25 -25 0 -25 0 0 25 0 25 25 0 25 0 0 25 0 25 -50 0
-50 0 0 55 0 55 -25 0 -25 0 0 25 0 25 -30 0 -30 0 0 25 0 25 -75 0 -75 0 0
25 0 25 -50 0 -50 0 0 25 0 25 -80 0 -80 0 0 -25z m160 -50 l0 -25 25 0 25 0
0 -25 0 -25 -25 0 -25 0 0 -25 0 -25 -25 0 -25 0 0 -55 0 -55 -55 0 -55 0 0
-25 0 -25 -25 0 -25 0 0 25 0 25 25 0 25 0 0 25 0 25 30 0 30 0 0 30 0 30 -55
0 -55 0 0 -30 0 -30 -25 0 -25 0 0 30 0 30 25 0 25 0 0 25 0 25 -25 0 -25 0 0
25 0 25 25 0 25 0 0 -25 0 -25 25 0 25 0 0 25 0 25 30 0 30 0 0 25 0 25 50 0
50 0 0 -25z m-410 -100 l0 -25 25 0 25 0 0 25 0 25 25 0 25 0 0 -25 0 -25 -25
0 -25 0 0 -30 0 -30 25 0 25 0 0 -25 0 -25 25 0 25 0 0 -25 0 -25 -25 0 -25 0
0 -25 0 -25 -25 0 -25 0 0 25 0 25 25 0 25 0 0 25 0 25 -50 0 -50 0 0 55 0 55
-50 0 -50 0 0 25 0 25 50 0 50 0 0 -25z m560 0 l0 -25 25 0 25 0 0 25 0 25 25
0 25 0 0 -25 0 -25 30 0 30 0 0 -30 0 -30 -30 0 -30 0 0 30 0 30 -25 0 -25 0
0 -30 0 -30 -25 0 -25 0 0 -25 0 -25 -50 0 -50 0 0 55 0 55 25 0 25 0 0 25 0
25 25 0 25 0 0 -25z m-660 -110 l0 -25 -55 0 -55 0 0 25 0 25 55 0 55 0 0 -25z
m870 -50 l0 -25 -55 0 -55 0 0 25 0 25 55 0 55 0 0 -25z m-930 -50 l0 -25 -25
0 -25 0 0 25 0 25 25 0 25 0 0 -25z m160 0 l0 -25 -50 0 -50 0 0 25 0 25 50 0
50 0 0 -25z m460 0 l0 -25 25 0 25 0 0 -25 0 -25 25 0 25 0 0 -25 0 -25 -25 0
-25 0 0 -25 0 -25 -50 0 -50 0 0 -25 0 -25 -25 0 -25 0 0 50 0 50 75 0 75 0 0
25 0 25 -25 0 -25 0 0 25 0 25 -50 0 -50 0 0 -25 0 -25 -25 0 -25 0 0 25 0 25
25 0 25 0 0 25 0 25 50 0 50 0 0 -25z m150 0 l0 -25 -25 0 -25 0 0 25 0 25 25
0 25 0 0 -25z m110 -50 l0 -25 -30 0 -30 0 0 25 0 25 30 0 30 0 0 -25z m-770
-50 l0 -25 50 0 50 0 0 25 0 25 25 0 25 0 0 -25 0 -25 25 0 25 0 0 25 0 25 25
0 25 0 0 -25 0 -25 25 0 25 0 0 -50 0 -50 30 0 30 0 0 -30 0 -30 -30 0 -30 0
0 30 0 30 -50 0 -50 0 0 25 0 25 -25 0 -25 0 0 25 0 25 -25 0 -25 0 0 -25 0
-25 -50 0 -50 0 0 25 0 25 -80 0 -80 0 0 25 0 25 80 0 80 0 0 -25z m920 0 l0
-25 -25 0 -25 0 0 -25 0 -25 -25 0 -25 0 0 25 0 25 25 0 25 0 0 25 0 25 25 0
25 0 0 -25z m-1130 -50 l0 -25 80 0 80 0 0 -25 0 -25 -80 0 -80 0 0 25 0 25
-25 0 -25 0 0 25 0 25 25 0 25 0 0 -25z m980 0 l0 -25 -30 0 -30 0 0 25 0 25
30 0 30 0 0 -25z"/>
<path d="M670 1130 l0 -50 25 0 25 0 0 50 0 50 -25 0 -25 0 0 -50z"/>
<path d="M870 1050 l0 -30 25 0 25 0 0 30 0 30 -25 0 -25 0 0 -30z"/>
</g>
</svg>
