<?xml version="1.0" standalone="no"?>
<!DOCTYPE svg PUBLIC "-//W3C//DTD SVG 20010904//EN"
 "http://www.w3.org/TR/2001/REC-SVG-20010904/DTD/svg10.dtd">
<svg version="1.0" xmlns="http://www.w3.org/2000/svg"
 width="468pt" height="468pt" viewBox="0 0 468 468"
 preserveAspectRatio="xMidYMid meet">
<metadata>
Created by potrace 1.8, written by Peter Selinger 2001-2007
</metadata>
<g transform="translate(0,468) scale(0.365625,-0.365625)"
fill="#000000" stroke="none">
<path d="M0 640 l0 -640 640 0 640 0 0 640 0 640 -640 0 -640 0 0 -640z m1230
480 l0 -110 15 0 15 0 0 -35 0 -35 -15 0 -15 0 0 -110 0 -110 -590 0 -590 0 0
110 0 110 -15 0 -15 0 0 35 0 35 15 0 15 0 0 110 0 110 590 0 590 0 0 -110z"/>
<path d="M190 980 l0 -180 110 0 110 0 0 35 0 35 -70 0 -70 0 0 35 0 35 45 0
45 0 0 35 0 35 -45 0 -45 0 0 40 0 40 70 0 70 0 0 35 0 35 -110 0 -110 0 0
-180z"/>
<path d="M460 1125 l0 -35 10 0 10 0 0 -25 0 -25 15 0 15 0 0 -24 0 -24 13 -6
12 -6 -12 -6 -13 -6 0 -24 0 -24 -15 0 -15 0 0 -25 0 -25 -10 0 -10 0 0 -35 0
-35 35 0 35 0 0 25 0 25 15 0 15 0 0 20 0 20 10 0 10 0 0 -20 0 -20 10 0 10 0
0 -25 0 -25 40 0 40 0 0 35 0 35 -15 0 -15 0 0 25 0 25 -10 0 -10 0 0 25 0 25
-15 0 -15 0 0 10 0 10 15 0 15 0 0 25 0 25 10 0 10 0 0 25 0 25 15 0 15 0 0
35 0 35 -40 0 -40 0 0 -25 0 -25 -10 0 -10 0 0 -25 0 -25 -10 0 -10 0 0 25 0
25 -15 0 -15 0 0 25 0 25 -35 0 -35 0 0 -35z"/>
<path d="M720 980 l0 -180 40 0 40 0 0 180 0 180 -40 0 -40 0 0 -180z"/>
<path d="M850 1125 l0 -35 45 0 45 0 0 -145 0 -145 35 0 35 0 0 145 0 145 50
0 50 0 0 35 0 35 -130 0 -130 0 0 -35z"/>
<path d="M100 1025 l0 -15 -11 0 -10 0 -17 -17 -17 -16 13 -5 12 -4 0 -14 0
-14 15 0 15 0 0 -10 0 -10 10 0 10 0 0 25 0 25 25 0 25 0 0 10 0 10 -25 0 -25
0 0 25 0 25 -10 0 -10 0 0 -15z"/>
<path d="M1160 1015 l0 -25 -25 0 -25 0 0 -10 0 -10 25 0 25 0 0 -25 0 -25 10
0 10 0 0 10 0 10 15 0 15 0 0 14 0 14 12 4 13 5 -17 16 -17 17 -10 0 -11 0 0
15 0 15 -10 0 -10 0 0 -25z"/>
</g>
</svg>
