<?xml version="1.0" standalone="no"?>
<!DOCTYPE svg PUBLIC "-//W3C//DTD SVG 20010904//EN"
 "http://www.w3.org/TR/2001/REC-SVG-20010904/DTD/svg10.dtd">
<svg version="1.0" xmlns="http://www.w3.org/2000/svg"
 width="468pt" height="468pt" viewBox="0 0 468 468"
 preserveAspectRatio="xMidYMid meet">
<metadata>
Created by potrace 1.8, written by Peter Selinger 2001-2007
</metadata>
<g transform="translate(0,468) scale(0.365625,-0.365625)"
fill="#000000" stroke="none">
<path d="M0 1030 l0 -250 40 0 40 0 0 10 0 10 20 0 20 0 0 10 0 10 15 0 16 0
24 25 25 24 0 26 0 25 -10 0 -10 0 0 30 0 30 -10 0 -10 0 0 30 0 30 -10 0 -10
0 0 20 0 20 -10 0 -10 0 0 20 0 20 -10 0 -10 0 0 20 0 20 -10 0 -10 0 0 20 0
20 -10 0 -10 0 0 15 0 16 -25 24 -24 25 -6 0 -5 0 0 -250z"/>
<path d="M340 1250 l0 -30 10 0 10 0 0 -30 0 -30 10 0 10 0 0 -16 0 -15 15
-16 16 -15 7 7 7 8 -12 4 -13 5 0 19 0 19 -10 0 -10 0 0 30 0 30 -10 0 -10 0
0 30 0 30 -10 0 -10 0 0 -30z"/>
<path d="M1260 1245 l0 -16 -25 -24 -24 -25 -46 0 -45 0 0 10 0 10 -20 0 -20
0 0 20 0 20 -10 0 -10 0 0 -30 0 -30 20 0 20 0 0 -10 0 -10 50 0 50 0 0 -5 0
-6 -45 -44 -44 -45 -12 0 -11 0 -28 -30 -28 -30 -14 0 -14 0 -14 -20 -14 -20
-16 0 -16 0 -14 -20 -14 -20 -14 0 -14 0 -28 -30 -28 -30 -11 0 -11 0 -55 -55
-55 -55 0 -13 0 -13 -20 -14 -20 -14 0 -18 0 -18 -10 0 -10 0 0 -15 0 -16 25
-24 24 -25 46 0 45 0 0 10 0 10 20 0 20 0 0 20 0 20 10 0 10 0 0 -30 0 -30
-20 0 -20 0 0 -10 0 -10 -50 0 -50 0 0 -15 0 -15 55 -55 55 -55 11 0 11 0 28
-30 28 -30 14 0 14 0 14 -20 14 -20 16 0 16 0 14 -20 14 -20 14 0 14 0 28 -30
28 -30 11 0 11 0 55 -55 55 -55 0 -13 0 -13 20 -14 20 -14 0 -18 0 -18 10 0
10 0 0 230 0 230 -6 0 -5 0 -15 -14 -14 -15 0 -15 0 -16 -10 0 -10 0 0 -20 0
-20 -10 0 -10 0 0 -16 0 -15 -14 -15 -15 -14 -15 0 -16 0 0 -10 0 -10 -50 0
-50 0 0 10 0 10 -20 0 -20 0 0 10 0 10 20 0 20 0 0 -10 0 -10 50 0 50 0 0 10
0 10 20 0 20 0 0 20 0 20 10 0 10 0 0 20 0 20 10 0 10 0 0 16 0 16 30 28 30
28 0 132 0 132 -30 28 -30 28 0 16 0 16 -10 0 -10 0 0 20 0 20 -10 0 -10 0 0
20 0 20 -20 0 -20 0 0 10 0 10 -50 0 -50 0 0 -10 0 -10 -20 0 -20 0 0 10 0 10
20 0 20 0 0 10 0 10 50 0 50 0 0 -10 0 -10 16 0 15 0 15 -14 14 -15 0 -15 0
-16 10 0 10 0 0 -20 0 -20 10 0 10 0 0 -16 0 -15 14 -15 15 -14 5 0 6 0 0 230
0 230 -10 0 -10 0 0 -15z m-265 -430 l25 -24 0 -31 0 -31 -25 -24 -24 -25 -31
0 -31 0 -24 25 -25 24 0 31 0 31 23 24 22 24 33 0 33 1 24 -25z"/>
<path d="M893 805 l-13 -14 0 -31 0 -31 14 -15 15 -14 31 0 31 0 15 14 14 15
0 31 0 31 -14 15 -15 14 -33 0 -33 -1 -12 -14z m67 -45 l0 -20 -20 0 -20 0 0
20 0 20 20 0 20 0 0 -20z"/>
<path d="M560 1150 l0 -10 -20 0 -20 0 0 -10 0 -10 -16 0 -16 0 -28 -30 -28
-30 -11 0 -12 0 -44 -45 -45 -44 0 -11 0 -11 -45 -44 -44 -45 -12 0 -11 0 -28
-30 -28 -30 -16 0 -16 0 0 -10 0 -10 -20 0 -20 0 0 -10 0 -10 -40 0 -40 0 0
-120 0 -120 40 0 40 0 0 -10 0 -10 20 0 20 0 0 -10 0 -10 16 0 16 0 28 -30 28
-30 11 0 12 0 44 -45 45 -44 0 -11 0 -11 45 -44 44 -45 12 0 11 0 28 -30 28
-30 16 0 16 0 0 -10 0 -10 20 0 20 0 0 -10 0 -10 35 0 36 0 34 35 35 34 0 16
0 15 10 0 10 0 0 20 0 20 10 0 10 0 0 20 0 20 20 0 20 0 0 10 0 10 50 0 50 0
0 -10 0 -10 20 0 20 0 0 10 0 10 -20 0 -20 0 0 10 0 10 -50 0 -50 0 0 -10 0
-10 -16 0 -15 0 -15 -14 -14 -15 0 -15 0 -16 -10 0 -10 0 0 -20 0 -20 -10 0
-10 0 0 -15 0 -16 -25 -24 -24 -25 -36 0 -35 0 0 10 0 10 -20 0 -20 0 0 10 0
10 -15 0 -16 0 -24 25 -25 24 0 26 0 25 10 0 10 0 0 30 0 30 10 0 10 0 0 30 0
30 10 0 10 0 0 20 0 20 10 0 10 0 0 20 0 20 10 0 10 0 0 20 0 20 10 0 10 0 0
20 0 20 10 0 10 0 0 18 0 18 20 14 20 14 0 16 0 16 -20 14 -20 14 0 18 0 18
-10 0 -10 0 0 20 0 20 -10 0 -10 0 0 20 0 20 -10 0 -10 0 0 20 0 20 -10 0 -10
0 0 20 0 20 -10 0 -10 0 0 30 0 30 -10 0 -10 0 0 30 0 30 -10 0 -10 0 0 25 0
26 25 24 24 25 16 0 15 0 0 10 0 10 20 0 20 0 0 10 0 10 35 0 36 0 24 -25 25
-24 0 -16 0 -15 10 0 10 0 0 -20 0 -20 10 0 10 0 0 -16 0 -15 14 -15 15 -14
15 0 16 0 0 -10 0 -10 50 0 50 0 0 10 0 10 20 0 20 0 0 10 0 10 -20 0 -20 0 0
-10 0 -10 -50 0 -50 0 0 10 0 10 -20 0 -20 0 0 20 0 20 -10 0 -10 0 0 20 0 20
-10 0 -10 0 0 15 0 16 -35 34 -34 35 -36 0 -35 0 0 -10z m-314 -344 l14 -15 0
-15 0 -16 10 0 10 0 0 -30 0 -30 10 0 10 0 0 -60 0 -60 -10 0 -10 0 0 -30 0
-30 -10 0 -10 0 0 -16 0 -15 -15 -16 -16 -15 -7 7 -7 8 13 4 12 5 0 19 0 19
10 0 10 0 0 30 0 30 10 0 10 0 0 60 0 60 -10 0 -10 0 0 30 0 30 -10 0 -10 0 0
20 0 20 -10 0 -10 0 0 10 0 10 6 0 5 0 15 -14z"/>
<path d="M0 250 l0 -250 5 0 6 0 24 25 25 24 0 13 0 14 20 14 20 14 0 16 0 16
20 14 20 14 0 28 0 28 10 0 10 0 0 40 0 40 10 0 10 0 0 30 0 30 10 0 10 0 0
25 0 26 -25 24 -24 25 -16 0 -15 0 0 10 0 10 -20 0 -20 0 0 10 0 10 -40 0 -40
0 0 -250z"/>
<path d="M923 175 l-23 -24 0 -31 0 -31 25 -24 24 -25 31 0 31 0 24 25 25 24
0 31 0 31 -25 24 -24 25 -33 -1 -33 0 -22 -24z m103 -9 l14 -15 0 -31 0 -31
-14 -15 -15 -14 -31 0 -31 0 -15 14 -14 15 0 31 0 31 13 14 12 14 33 1 33 0
15 -14z"/>
<path d="M960 120 l0 -20 20 0 20 0 0 20 0 20 -20 0 -20 0 0 -20z"/>
<path d="M393 165 l-13 -14 0 -16 0 -15 -10 0 -10 0 0 -30 0 -30 -10 0 -10 0
0 -30 0 -30 10 0 10 0 0 30 0 30 10 0 10 0 0 30 0 30 10 0 10 0 0 20 0 20 10
0 10 0 0 10 0 10 -7 0 -8 -1 -12 -14z"/>
</g>
</svg>
