<?xml version="1.0" standalone="no"?>
<!DOCTYPE svg PUBLIC "-//W3C//DTD SVG 20010904//EN"
 "http://www.w3.org/TR/2001/REC-SVG-20010904/DTD/svg10.dtd">
<svg version="1.0" xmlns="http://www.w3.org/2000/svg"
 width="468pt" height="468pt" viewBox="0 0 468 468"
 preserveAspectRatio="xMidYMid meet">
<metadata>
Created by potrace 1.8, written by Peter Selinger 2001-2007
</metadata>
<g transform="translate(0,468) scale(0.365625,-0.365625)"
fill="#000000" stroke="none">
<path d="M600 1260 l0 -20 -20 0 -20 0 0 -20 0 -20 -20 0 -20 0 0 -160 0 -160
-20 0 -20 0 0 -20 0 -20 -40 0 -40 0 0 20 0 20 -20 0 -20 0 0 20 0 20 -20 0
-20 0 0 20 0 20 -20 0 -20 0 0 20 0 20 -20 0 -20 0 0 20 0 20 -20 0 -20 0 0
20 0 20 -20 0 -20 0 0 20 0 20 -40 0 -40 0 0 -20 0 -20 -20 0 -20 0 0 -500 0
-500 20 0 20 0 0 -20 0 -20 20 0 20 0 0 -20 0 -20 500 0 500 0 0 20 0 20 20 0
20 0 0 20 0 20 20 0 20 0 0 560 0 560 -20 0 -20 0 0 20 0 20 -20 0 -20 0 0 20
0 20 -260 0 -260 0 0 -20z m520 -40 l0 -20 20 0 20 0 0 -560 0 -560 -20 0 -20
0 0 -20 0 -20 -500 0 -500 0 0 20 0 20 -20 0 -20 0 0 500 0 500 40 0 40 0 0
-20 0 -20 20 0 20 0 0 -20 0 -20 20 0 20 0 0 -20 0 -20 20 0 20 0 0 -20 0 -20
20 0 20 0 0 -20 0 -20 20 0 20 0 0 -20 0 -20 20 0 20 0 0 -20 0 -20 40 0 40 0
0 20 0 20 20 0 20 0 0 20 0 20 20 0 20 0 0 160 0 160 20 0 20 0 0 20 0 20 260
0 260 0 0 -20z"/>
<path d="M800 1140 l0 -20 -20 0 -20 0 0 -20 0 -20 -20 0 -20 0 0 -60 0 -60
20 0 20 0 0 -20 0 -20 20 0 20 0 0 -20 0 -20 60 0 60 0 0 20 0 20 20 0 20 0 0
20 0 20 20 0 20 0 0 60 0 60 -20 0 -20 0 0 20 0 20 -20 0 -20 0 0 20 0 20 -60
0 -60 0 0 -20z m120 -40 l0 -20 20 0 20 0 0 -60 0 -60 -20 0 -20 0 0 -20 0
-20 -60 0 -60 0 0 20 0 20 -20 0 -20 0 0 60 0 60 20 0 20 0 0 20 0 20 60 0 60
0 0 -20z"/>
<path d="M240 820 l0 -20 -20 0 -20 0 0 -20 0 -20 -20 0 -20 0 0 -20 0 -20
-20 0 -20 0 0 -20 0 -20 20 0 20 0 0 -20 0 -20 20 0 20 0 0 -20 0 -20 20 0 20
0 0 -20 0 -20 20 0 20 0 0 20 0 20 20 0 20 0 0 20 0 20 20 0 20 0 0 20 0 20
20 0 20 0 0 20 0 20 -20 0 -20 0 0 20 0 20 -20 0 -20 0 0 20 0 20 -20 0 -20 0
0 20 0 20 -20 0 -20 0 0 -20z m40 -40 l0 -20 20 0 20 0 0 -20 0 -20 20 0 20 0
0 -20 0 -20 -20 0 -20 0 0 -20 0 -20 -20 0 -20 0 0 -20 0 -20 -20 0 -20 0 0
20 0 20 -20 0 -20 0 0 20 0 20 -20 0 -20 0 0 20 0 20 20 0 20 0 0 20 0 20 20
0 20 0 0 20 0 20 20 0 20 0 0 -20z"/>
<path d="M240 740 l0 -20 -20 0 -20 0 0 -20 0 -20 20 0 20 0 0 -20 0 -20 20 0
20 0 0 20 0 20 20 0 20 0 0 20 0 20 -20 0 -20 0 0 20 0 20 -20 0 -20 0 0 -20z
m40 -40 l0 -20 -20 0 -20 0 0 20 0 20 20 0 20 0 0 -20z"/>
<path d="M880 780 l0 -20 -20 0 -20 0 0 -20 0 -20 -20 0 -20 0 0 -40 0 -40 20
0 20 0 0 -40 0 -40 20 0 20 0 0 -20 0 -20 60 0 60 0 0 20 0 20 20 0 20 0 0 20
0 20 20 0 20 0 0 60 0 60 -20 0 -20 0 0 20 0 20 -40 0 -40 0 0 20 0 20 -40 0
-40 0 0 -20z m40 -40 l0 -20 -20 0 -20 0 0 -20 0 -20 -20 0 -20 0 0 20 0 20
20 0 20 0 0 20 0 20 20 0 20 0 0 -20z m120 -40 l0 -20 -20 0 -20 0 0 20 0 20
20 0 20 0 0 -20z m-80 -40 l0 -20 20 0 20 0 0 -20 0 -20 -20 0 -20 0 0 20 0
20 -20 0 -20 0 0 20 0 20 20 0 20 0 0 -20z m-40 -80 l0 -20 -20 0 -20 0 0 20
0 20 20 0 20 0 0 -20z"/>
<path d="M280 420 l0 -20 -20 0 -20 0 0 -20 0 -20 -20 0 -20 0 0 -60 0 -60 20
0 20 0 0 -20 0 -20 20 0 20 0 0 -20 0 -20 60 0 60 0 0 20 0 20 20 0 20 0 0 20
0 20 20 0 20 0 0 60 0 60 -20 0 -20 0 0 20 0 20 -20 0 -20 0 0 20 0 20 -60 0
-60 0 0 -20z"/>
<path d="M720 420 l0 -20 -40 0 -40 0 0 -20 0 -20 40 0 40 0 0 20 0 20 20 0
20 0 0 20 0 20 -20 0 -20 0 0 -20z"/>
<path d="M840 420 l0 -20 -20 0 -20 0 0 -20 0 -20 -20 0 -20 0 0 -20 0 -20 20
0 20 0 0 -20 0 -20 40 0 40 0 0 40 0 40 -20 0 -20 0 0 20 0 20 20 0 20 0 0 20
0 20 -20 0 -20 0 0 -20z m0 -80 l0 -20 -20 0 -20 0 0 20 0 20 20 0 20 0 0 -20z"/>
<path d="M640 300 l0 -20 20 0 20 0 0 20 0 20 -20 0 -20 0 0 -20z"/>
<path d="M720 260 l0 -20 -20 0 -20 0 0 -20 0 -20 20 0 20 0 0 20 0 20 20 0
20 0 0 20 0 20 -20 0 -20 0 0 -20z"/>
<path d="M840 220 l0 -20 20 0 20 0 0 20 0 20 -20 0 -20 0 0 -20z"/>
<path d="M760 180 l0 -20 20 0 20 0 0 20 0 20 -20 0 -20 0 0 -20z"/>
</g>
</svg>
