<?xml version="1.0" standalone="no"?>
<!DOCTYPE svg PUBLIC "-//W3C//DTD SVG 20010904//EN"
 "http://www.w3.org/TR/2001/REC-SVG-20010904/DTD/svg10.dtd">
<svg version="1.0" xmlns="http://www.w3.org/2000/svg"
 width="468pt" height="468pt" viewBox="0 0 468 468"
 preserveAspectRatio="xMidYMid meet">
<metadata>
Created by potrace 1.8, written by Peter Selinger 2001-2007
</metadata>
<g transform="translate(0,468) scale(0.365625,-0.365625)"
fill="#000000" stroke="none">
<path d="M0 968 l0 -311 8 7 7 8 1 56 2 57 7 25 7 25 0 12 1 12 10 -6 10 -6
-6 16 -6 16 14 11 14 11 -6 15 -5 14 18 -7 17 -6 -6 16 -6 17 11 24 10 24 14
-5 14 -5 0 -10 0 -10 -17 6 -18 6 19 -15 20 -15 -7 -6 -7 -7 -17 14 -18 14 15
-19 14 -18 -23 -19 -24 -20 7 -6 7 -7 9 13 8 14 16 -16 17 -16 17 5 17 6 -14
-10 -14 -10 -14 5 -13 5 0 -10 0 -10 13 -5 12 -4 -9 -9 -9 -9 -4 13 -5 12 -10
0 -10 0 5 -14 6 -15 -15 6 -14 5 0 -10 0 -10 13 -5 12 -4 -7 -8 -7 -7 -17 17
-17 17 14 8 13 9 -7 8 -8 7 -9 -14 -10 -15 6 -15 6 -15 1 -15 0 -15 10 -13 10
-13 14 5 13 5 0 -4 0 -3 -42 -41 -42 -40 19 -21 19 -21 -20 -19 -19 -19 -2 26
-1 26 8 -14 9 -13 7 7 7 7 -13 15 -12 15 -9 0 -9 0 0 -325 0 -325 640 0 640 0
0 640 0 640 -326 0 -326 0 6 -16 6 -15 -11 6 -10 7 -22 -18 -22 -19 24 28 24
27 -311 0 -312 0 0 -312z m532 285 l18 -16 23 19 22 18 -22 -24 -22 -24 -21
19 -20 18 -7 -7 -7 -7 14 -9 15 -10 -15 -1 -15 -1 -12 1 -13 2 0 -10 0 -9 13
-5 12 -4 -9 -9 -9 -9 -4 13 -5 12 -10 0 -10 0 5 -14 6 -15 -13 5 -14 5 -16
-23 -16 -22 0 8 0 9 17 19 16 18 -7 7 -6 7 -18 -25 -17 -24 -1 -18 -1 -18 -7
-7 -7 -6 -9 14 -9 14 5 8 5 8 -16 16 -16 16 -7 -7 -7 -8 13 -4 12 -5 0 -9 0
-9 -30 4 -30 3 6 -9 7 -10 -22 7 -22 7 22 -26 22 -25 28 3 27 3 -5 -13 -5 -14
-12 -1 -11 -1 -10 -2 -10 -1 -25 -18 -25 -18 15 -9 14 -9 -7 -7 -6 -7 -21 24
-21 24 6 -21 5 -21 -14 -13 -15 -12 3 -28 3 -28 -11 4 -12 5 -22 -26 -21 -25
-16 6 -15 6 0 8 0 8 11 4 11 4 3 29 4 29 -11 19 -10 19 10 10 10 10 26 -28 26
-29 17 17 17 18 -8 7 -7 7 -9 -14 -9 -14 -20 23 -20 23 11 16 10 17 27 21 26
21 1 -24 2 -24 -17 13 -16 13 14 -18 14 -17 -7 -7 -7 -7 -9 14 -9 14 -8 -8 -8
-9 14 -5 13 -4 -13 -9 -13 -8 6 -7 7 -6 16 15 16 16 17 -6 17 -6 -12 13 -12
13 21 19 21 18 -8 8 -8 7 -4 -12 -5 -13 -10 0 -9 0 6 23 7 22 21 17 21 16 8
-4 7 -4 27 25 27 25 8 -6 9 -5 26 20 25 20 14 -5 13 -5 7 11 8 12 8 -13 9 -14
11 18 10 17 6 0 6 0 19 -17z m31 -50 l-5 -13 -8 0 -8 0 -5 13 -5 13 18 0 18 0
-5 -13z m-43 -3 l0 -10 -10 0 -10 0 0 10 0 10 10 0 10 0 0 -10z m110 6 l0 -5
-10 -6 -10 -6 0 10 0 11 10 0 10 0 0 -4z m-180 -46 l0 -10 -10 0 -10 0 0 10 0
10 10 0 10 0 0 -10z m40 0 l0 -10 -10 0 -10 0 0 10 0 10 10 0 10 0 0 -10z m30
0 l0 -10 -4 0 -5 0 -6 10 -6 10 10 0 11 0 0 -10z m40 6 l0 -5 -10 -6 -10 -6 0
10 0 11 10 0 10 0 0 -4z m-220 -37 l0 -9 -10 0 -10 0 0 13 0 12 -10 -15 -9
-14 -8 7 -7 8 13 9 14 8 14 -5 13 -5 0 -9z m110 7 l0 -5 -10 -6 -10 -6 0 10 0
11 10 0 10 0 0 -4z m40 -6 l0 -10 -4 0 -5 0 -6 10 -6 10 10 0 11 0 0 -10z
m-110 -40 l0 -10 -10 0 -10 0 0 10 0 10 10 0 10 0 0 -10z m65 0 l6 -10 -10 0
-11 0 0 10 0 10 4 0 5 0 6 -10z m-135 -34 l0 -4 -16 -6 -15 -6 6 10 6 10 10 0
9 0 0 -4z m-77 -71 l-5 -16 -5 5 -5 5 7 10 6 11 4 0 4 0 -6 -15z m37 -5 l0
-10 -10 0 -10 0 0 10 0 10 10 0 10 0 0 -10z m0 -24 l0 -5 -10 -6 -10 -6 0 10
0 11 10 0 10 0 0 -4z m-70 -46 l0 -10 -10 0 -10 0 0 10 0 10 10 0 10 0 0 -10z
m-40 -70 l0 -10 -10 0 -10 0 0 10 0 10 10 0 10 0 0 -10z m35 0 l6 -10 -10 0
-11 0 0 10 0 10 4 0 5 0 6 -10z m-65 -40 l0 -10 -10 0 -10 0 0 10 0 10 10 0
10 0 0 -10z m30 0 l0 -10 -10 0 -10 0 0 10 0 10 10 0 10 0 0 -10z m-70 -30 l0
-10 -10 0 -10 0 0 10 0 10 10 0 10 0 0 -10z m40 0 l0 -10 -10 0 -10 0 0 10 0
10 10 0 10 0 0 -10z m30 0 l0 -10 -4 0 -5 0 -6 10 -6 10 10 0 11 0 0 -10z
m-30 -40 l0 -10 -11 0 -10 0 6 10 6 10 5 0 4 0 0 -10z m-63 -53 l-22 -23 -4 3
-4 3 18 20 18 20 8 0 8 0 -22 -23z m23 -11 l0 -5 -10 -6 -10 -6 0 10 0 11 10
0 10 0 0 -4z m40 -6 l0 -10 -4 0 -5 0 -6 10 -6 10 10 0 11 0 0 -10z m-45 -40
l6 -10 -10 0 -11 0 0 10 0 10 4 0 5 0 6 -10z m-50 -50 l-18 -20 15 -17 15 -18
1 -22 1 -23 -10 -5 -9 -6 6 15 6 16 -13 0 -14 0 15 10 14 9 -18 20 -19 21 18
20 18 20 5 0 5 0 -18 -20z m55 -14 l0 -5 -10 -6 -10 -6 0 10 0 11 10 0 10 0 0
-4z m-5 -46 l6 -10 -10 0 -11 0 0 10 0 10 4 0 5 0 6 -10z m5 -64 l0 -5 -10 -6
-10 -6 0 10 0 11 10 0 10 0 0 -4z m-9 -73 l14 -18 -17 14 -18 13 0 4 0 4 4 0
4 0 13 -17z"/>
<path d="M427 1223 l5 -13 8 0 8 0 11 14 12 14 -24 -2 -24 -1 4 -12z"/>
<path d="M390 1210 l-15 -20 -12 4 -12 5 6 -15 5 -14 5 0 6 0 18 22 19 21 0 9
0 8 -3 0 -3 0 -14 -20z"/>
<path d="M261 1084 l-13 -15 6 -6 5 -5 16 15 15 16 0 5 0 6 -7 0 -8 -1 -14
-15z"/>
<path d="M140 1001 l0 -9 13 -6 12 -6 -14 -6 -13 -6 12 -8 13 -8 -16 -17 -17
-16 0 -11 0 -10 33 33 34 33 -23 23 -23 23 -6 0 -5 0 0 -9z"/>
<path d="M67 863 l5 -13 8 0 8 0 11 14 12 14 -24 -2 -24 -1 4 -12z"/>
<path d="M34 792 l6 -10 -12 -5 -13 -5 15 -11 15 -11 -15 -9 -14 -10 7 -8 8
-7 9 14 10 15 0 -9 0 -9 -17 -19 -16 -18 10 0 10 0 18 20 17 19 -16 17 -17 17
5 13 5 13 -11 7 -11 7 7 -11z"/>
</g>
</svg>
