<?xml version="1.0" standalone="no"?>
<!DOCTYPE svg PUBLIC "-//W3C//DTD SVG 20010904//EN"
 "http://www.w3.org/TR/2001/REC-SVG-20010904/DTD/svg10.dtd">
<svg version="1.0" xmlns="http://www.w3.org/2000/svg"
 width="468pt" height="468pt" viewBox="0 0 468 468"
 preserveAspectRatio="xMidYMid meet">
<metadata>
Created by potrace 1.8, written by Peter Selinger 2001-2007
</metadata>
<g transform="translate(0,468) scale(0.365625,-0.365625)"
fill="#000000" stroke="none">
<path d="M660 1270 l0 -10 -20 0 -20 0 0 -10 0 -10 -29 0 -29 0 -6 13 -6 12
-6 -12 -6 -13 -69 0 -69 0 0 -10 0 -10 -20 0 -20 0 0 -10 0 -10 -20 0 -20 0 0
-10 0 -10 -18 0 -18 0 -14 -20 -14 -20 -14 0 -13 0 -24 -25 -25 -24 0 -21 0
-21 14 -15 15 -14 25 0 26 0 0 -6 0 -5 -14 -15 -15 -14 -14 0 -15 0 -6 -12 -6
-13 -6 13 -6 12 -29 0 -29 0 0 10 0 10 10 0 10 0 0 20 0 20 -10 0 -10 0 0 -20
0 -20 -10 0 -10 0 0 -18 0 -18 -20 -14 -20 -14 0 -28 0 -28 -10 0 -10 0 0 -20
0 -20 -10 0 -10 0 0 -50 0 -50 -10 0 -10 0 0 -20 0 -20 10 0 10 0 0 -50 0 -50
10 0 10 0 0 -40 0 -40 10 0 10 0 0 -50 0 -50 10 0 10 0 0 -20 0 -20 10 0 10 0
0 -18 0 -18 20 -14 20 -14 0 -18 0 -18 30 0 30 0 0 60 0 60 -10 0 -10 0 0 20
0 20 10 0 10 0 0 50 0 50 -10 0 -10 0 0 28 0 28 20 14 20 14 0 14 0 14 30 28
30 28 0 16 0 16 10 0 10 0 0 10 0 10 -40 0 -40 0 0 10 0 10 20 0 20 0 0 10 0
10 20 0 20 0 0 10 0 10 15 0 16 0 36 37 37 37 -12 4 -12 4 0 9 0 9 38 0 38 0
14 -20 14 -20 18 0 18 0 0 -30 0 -30 10 0 10 0 0 -26 0 -25 15 -15 15 -15 15
15 15 15 0 21 0 21 14 15 15 14 13 0 14 0 14 20 14 20 14 0 14 0 28 -30 28
-30 16 0 16 0 0 -20 0 -20 16 0 17 0 18 -21 18 -21 16 15 15 16 0 22 0 22 -21
18 -21 18 15 16 16 15 5 0 6 0 0 -20 0 -20 10 0 10 0 0 16 0 15 14 15 15 14
15 0 16 0 0 38 0 38 -20 14 -20 14 0 17 0 17 -12 5 -13 4 9 9 9 9 4 -12 5 -13
18 0 18 0 5 -12 4 -13 9 9 9 9 -12 4 -13 5 0 19 0 19 10 0 10 0 0 29 0 29 -12
5 -13 5 15 11 14 10 -8 8 -9 8 -4 -12 -5 -13 -15 0 -14 0 -17 17 -17 16 13 5
12 4 0 9 0 9 -30 0 -30 0 0 10 0 10 -30 0 -30 0 0 10 0 10 -29 0 -29 0 -6 -12
-6 -13 -6 13 -6 12 -29 0 -29 0 0 10 0 10 -10 0 -10 0 0 -10z m-440 -220 l0
-10 -10 0 -10 0 0 10 0 10 10 0 10 0 0 -10z m126 -104 l14 -15 0 -15 0 -16
-20 0 -20 0 0 20 0 20 -10 0 -10 0 0 10 0 10 16 0 15 0 15 -14z m-126 -56 l0
-30 10 0 10 0 0 -30 0 -30 -20 0 -20 0 0 60 0 60 10 0 10 0 0 -30z"/>
<path d="M1031 1004 l-13 -15 7 -7 8 -7 4 13 5 12 19 0 19 0 0 10 0 10 -17 0
-18 -1 -14 -15z"/>
<path d="M1000 822 l0 -18 20 -14 20 -14 0 -28 0 -28 10 0 10 0 0 28 0 28 -20
14 -20 14 0 18 0 18 -10 0 -10 0 0 -18z"/>
<path d="M600 730 l0 -10 10 0 10 0 0 10 0 10 -10 0 -10 0 0 -10z"/>
<path d="M800 730 l0 -10 10 0 10 0 0 -20 0 -20 -9 0 -9 0 -5 13 -4 12 -9 -9
-9 -9 13 -4 12 -5 0 -17 0 -17 20 -14 20 -14 0 -18 0 -18 20 0 20 0 0 20 0 20
-10 0 -10 0 0 30 0 30 -10 0 -10 0 0 16 0 15 -14 15 -15 14 -5 0 -6 0 0 -10z"/>
<path d="M953 685 l-33 -34 0 -26 0 -25 26 0 25 0 15 14 14 15 0 45 0 46 -7
-1 -8 0 -32 -34z"/>
<path d="M1040 650 l0 -10 10 0 10 0 0 10 0 10 -10 0 -10 0 0 -10z"/>
<path d="M1020 600 l0 -20 10 0 10 0 0 20 0 20 -10 0 -10 0 0 -20z"/>
<path d="M1120 612 l0 -8 20 -14 20 -14 0 -18 0 -18 19 0 19 0 5 -12 4 -13 9
8 8 8 -14 10 -15 9 14 9 14 9 -26 26 -26 26 -26 0 -25 0 0 -8z"/>
<path d="M1051 544 l-13 -15 6 -6 5 -5 16 15 15 16 0 5 0 6 -7 0 -8 -1 -14
-15z"/>
<path d="M1100 490 l0 -10 -26 0 -26 0 -28 -30 -28 -30 -12 0 -11 0 -15 -14
-14 -15 0 -14 0 -15 -12 -6 -13 -6 13 -6 12 -6 0 -19 0 -19 -10 0 -10 0 0 -10
0 -10 40 0 40 0 0 10 0 10 30 0 30 0 0 -30 0 -30 15 0 16 0 34 35 35 34 0 16
0 15 10 0 10 0 0 70 0 70 -10 0 -10 0 0 -10 0 -10 -10 0 -10 0 0 20 0 20 -20
0 -20 0 0 -10z"/>
<path d="M250 463 l-14 -17 12 -4 12 -4 0 -39 0 -39 10 0 10 0 0 50 0 50 10 0
10 0 0 10 0 10 -17 0 -18 -1 -15 -16z"/>
<path d="M1060 210 l0 -10 10 0 10 0 0 10 0 10 -10 0 -10 0 0 -10z"/>
<path d="M680 50 l0 -10 -110 0 -110 0 0 -10 0 -10 50 0 50 0 0 -10 0 -10 90
0 90 0 0 10 0 10 50 0 50 0 0 10 0 10 -29 0 -29 0 -5 13 -5 12 -11 -15 -11
-15 -10 15 -10 15 -11 -15 -11 -15 -5 13 -5 12 -9 0 -9 0 0 -10z"/>
</g>
</svg>
