<?xml version="1.0" standalone="no"?>
<!DOCTYPE svg PUBLIC "-//W3C//DTD SVG 20010904//EN"
 "http://www.w3.org/TR/2001/REC-SVG-20010904/DTD/svg10.dtd">
<svg version="1.0" xmlns="http://www.w3.org/2000/svg"
 width="468pt" height="468pt" viewBox="0 0 468 468"
 preserveAspectRatio="xMidYMid meet">
<metadata>
Created by potrace 1.8, written by Peter Selinger 2001-2007
</metadata>
<g transform="translate(0,468) scale(0.365625,-0.365625)"
fill="#000000" stroke="none">
<path d="M190 1215 l0 -15 -15 0 -15 0 0 -65 0 -65 -40 0 -40 0 0 -15 0 -15
-15 0 -15 0 0 -15 0 -15 -10 0 -10 0 0 -65 0 -65 10 0 10 0 0 -15 0 -15 15 0
15 0 0 -10 0 -10 25 0 25 0 0 -15 0 -15 15 0 15 0 0 15 0 15 25 0 25 0 0 -15
0 -15 15 0 15 0 0 -15 0 -15 25 0 25 0 0 -10 0 -10 30 0 30 0 0 -30 0 -30 10
0 10 0 0 -40 0 -40 -50 0 -50 0 0 15 0 15 -30 0 -30 0 0 15 0 15 -10 0 -10 0
0 -30 0 -30 25 0 25 0 0 -10 0 -10 40 0 40 0 0 -15 0 -15 40 0 40 0 0 80 0 80
-15 0 -15 0 0 25 0 25 -25 0 -25 0 0 30 0 30 -15 0 -15 0 0 -15 0 -15 -10 0
-10 0 0 15 0 15 -15 0 -15 0 0 10 0 10 -15 0 -15 0 0 15 0 15 40 0 40 0 0 -15
0 -15 40 0 40 0 0 -10 0 -10 -10 0 -10 0 0 -15 0 -15 10 0 10 0 0 15 0 15 15
0 15 0 0 25 0 25 15 0 15 0 0 15 0 15 10 0 10 0 0 -15 0 -15 15 0 15 0 0 -15
0 -15 40 0 40 0 0 15 0 15 15 0 15 0 0 15 0 15 -30 0 -30 0 0 -15 0 -15 -25 0
-25 0 0 25 0 25 51 0 50 0 15 -14 14 -15 0 -10 0 -11 -10 0 -10 0 0 -11 0 -10
14 -15 15 -14 10 0 11 0 0 10 0 10 15 0 15 0 0 -10 0 -10 -15 0 -15 0 0 -15 0
-15 25 0 25 0 0 15 0 15 40 0 40 0 0 10 0 10 30 0 30 0 0 15 0 15 -80 0 -80 0
0 15 0 15 -26 0 -25 0 -15 14 -14 15 0 10 0 11 25 0 25 0 0 15 0 15 -25 0 -25
0 0 -15 0 -15 -70 0 -70 0 0 -15 0 -15 -40 0 -40 0 0 30 0 30 15 0 15 0 0 25
0 25 -15 0 -15 0 0 -11 0 -10 -14 -15 -15 -14 -25 0 -26 0 0 -30 0 -30 40 0
40 0 0 -10 0 -10 15 0 15 0 0 -15 0 -15 -40 0 -40 0 0 15 0 15 -15 0 -15 0 0
10 0 10 -25 0 -25 0 0 -10 0 -10 -25 0 -25 0 0 -30 0 -30 -40 0 -40 0 0 15 0
15 -15 0 -15 0 0 15 0 15 -15 0 -15 0 0 50 0 50 30 0 30 0 0 15 0 15 50 0 50
0 0 15 0 15 26 0 25 0 15 14 14 15 0 10 0 11 -10 0 -10 0 0 -15 0 -15 -30 0
-30 0 0 -10 0 -10 -10 0 -10 0 0 50 0 50 10 0 10 0 0 15 0 15 15 0 15 0 0 -15
0 -15 105 0 105 0 0 -10 0 -10 30 0 30 0 0 -15 0 -15 -15 0 -15 0 0 -15 0 -15
-15 0 -15 0 0 -25 0 -25 15 0 15 0 0 15 0 15 11 0 10 0 15 14 14 15 0 10 0 11
30 0 30 0 0 15 0 15 25 0 25 0 0 10 0 10 40 0 40 0 0 15 0 15 105 0 105 0 0
-25 0 -25 15 0 15 0 0 -15 0 -15 -15 0 -15 0 0 -15 0 -15 -25 0 -25 0 0 -10 0
-10 40 0 40 0 0 10 0 10 55 0 55 0 0 -40 0 -40 -15 0 -15 0 0 -10 0 -10 -25 0
-25 0 0 -15 0 -15 -30 0 -30 0 0 40 0 40 -10 0 -10 0 0 -55 0 -55 -15 0 -15 0
0 -10 0 -10 -25 0 -25 0 0 -15 0 -15 10 0 10 0 0 -11 0 -10 -14 -15 -15 -14
-10 0 -11 0 0 -15 0 -15 -25 0 -25 0 0 -15 0 -15 -15 0 -15 0 0 -10 0 -10 15
0 15 0 0 -55 0 -55 -15 0 -15 0 0 -15 0 -15 25 0 25 0 0 15 0 15 40 0 40 0 0
-14 0 -14 -12 -5 -13 -4 9 -9 9 -9 4 13 5 12 14 0 14 0 0 40 0 40 40 0 40 0 0
15 0 15 25 0 25 0 0 15 0 15 15 0 15 0 0 -40 0 -40 -25 0 -25 0 0 -15 0 -15
-15 0 -15 0 0 15 0 15 -15 0 -15 0 0 -26 0 -25 -14 -15 -15 -14 -10 0 -11 0 0
-15 0 -15 -15 0 -15 0 0 -25 0 -25 15 0 15 0 0 10 0 10 15 0 15 0 0 15 0 15
10 0 10 0 0 15 0 15 15 0 15 0 0 10 0 10 15 0 15 0 0 15 0 15 40 0 40 0 0 -11
0 -10 14 -15 15 -14 10 0 11 0 0 40 0 40 -25 0 -25 0 0 40 0 40 10 0 10 0 0
-15 0 -15 30 0 30 0 0 -65 0 -65 -15 0 -15 0 0 -30 0 -30 25 0 25 0 0 55 0 55
15 0 15 0 0 15 0 15 -15 0 -15 0 0 40 0 40 15 0 15 0 0 10 0 10 15 0 15 0 0
15 0 15 10 0 10 0 0 55 0 55 -40 0 -40 0 0 -30 0 -30 15 0 15 0 0 15 0 15 15
0 15 0 0 -25 0 -25 -15 0 -15 0 0 -15 0 -15 -15 0 -15 0 0 -15 0 -15 -25 0
-25 0 0 -10 0 -10 -14 0 -14 0 -6 13 -6 12 -6 -12 -6 -13 -14 0 -14 0 0 40 0
40 25 0 25 0 0 -15 0 -15 30 0 30 0 0 14 0 14 13 6 12 6 -12 6 -13 6 0 29 0
29 -15 0 -15 0 0 25 0 25 15 0 15 0 0 15 0 15 10 0 10 0 0 -15 0 -15 -10 0
-10 0 0 -25 0 -25 10 0 10 0 0 10 0 10 15 0 15 0 0 80 0 80 -15 0 -15 0 0 -25
0 -25 -10 0 -10 0 0 -15 0 -15 -15 0 -15 0 0 -25 0 -25 -15 0 -15 0 0 -25 0
-25 -10 0 -10 0 0 -15 0 -15 -15 0 -15 0 0 -15 0 -15 -15 0 -15 0 0 -36 0 -35
-14 -15 -15 -14 -25 0 -26 0 0 -15 0 -15 -25 0 -25 0 0 -15 0 -15 -15 0 -15 0
0 -10 0 -10 -40 0 -40 0 0 50 0 50 15 0 15 0 0 15 0 15 25 0 25 0 0 15 0 15
70 0 70 0 0 50 0 50 10 0 10 0 0 15 0 15 30 0 30 0 0 15 0 15 10 0 10 0 0 65
0 65 -50 0 -50 0 0 25 0 25 -15 0 -15 0 0 15 0 15 -15 0 -15 0 0 15 0 15 -120
0 -120 0 0 -15 0 -15 -40 0 -40 0 0 -15 0 -15 -25 0 -25 0 0 -10 0 -10 -15 0
-15 0 0 10 0 10 -25 0 -25 0 0 15 0 15 -120 0 -120 0 0 15 0 15 -25 0 -25 0 0
-15z m740 -295 l0 -10 15 0 15 0 0 -30 0 -30 -25 0 -25 0 0 15 0 15 -15 0 -15
0 0 15 0 15 15 0 15 0 0 10 0 10 10 0 10 0 0 -10z m190 -50 l0 -40 -11 0 -10
0 -15 14 -14 15 0 10 0 11 10 0 10 0 0 15 0 15 15 0 15 0 0 -40z"/>
<path d="M770 1145 l0 -25 15 0 15 0 0 -15 0 -15 25 0 25 0 0 15 0 15 -10 0
-10 0 0 15 0 15 -15 0 -15 0 0 10 0 10 -15 0 -15 0 0 -25z"/>
<path d="M670 1000 l0 -10 65 0 65 0 0 10 0 10 -65 0 -65 0 0 -10z"/>
<path d="M430 785 l0 -65 10 0 10 0 0 65 0 65 -10 0 -10 0 0 -65z"/>
<path d="M480 790 l0 -40 15 0 15 0 0 -30 0 -30 10 0 10 0 0 -25 0 -25 15 0
15 0 0 25 0 25 -15 0 -15 0 0 30 0 30 -10 0 -10 0 0 40 0 40 -15 0 -15 0 0
-40z"/>
<path d="M530 815 l0 -15 15 0 15 0 0 -25 0 -25 15 0 15 0 0 25 0 25 -15 0
-15 0 0 15 0 15 -15 0 -15 0 0 -15z"/>
<path d="M0 775 l0 -25 15 0 15 0 0 -30 0 -30 25 0 25 0 0 15 0 15 -15 0 -15
0 0 15 0 15 -10 0 -10 0 0 10 0 10 25 0 25 0 0 -10 0 -10 15 0 15 0 0 -15 0
-15 10 0 10 0 0 -25 0 -25 -10 0 -10 0 0 10 0 10 -15 0 -15 0 0 -10 0 -10 -40
0 -40 0 0 -40 0 -40 15 0 15 0 0 -15 0 -15 10 0 10 0 0 -15 0 -15 -10 0 -10 0
0 -40 0 -40 25 0 25 0 0 15 0 15 25 0 25 0 0 15 0 15 15 0 15 0 0 10 0 10 25
0 25 0 0 -10 0 -10 15 0 15 0 0 -15 0 -15 25 0 25 0 0 -15 0 -15 15 0 15 0 0
-10 0 -10 15 0 15 0 0 -80 0 -80 -15 0 -15 0 0 -15 0 -15 -15 0 -15 0 0 -11 0
-10 -14 -15 -15 -14 -35 0 -36 0 0 -15 0 -15 -30 0 -30 0 0 -15 0 -15 -10 0
-10 0 0 -25 0 -25 10 0 10 0 0 -15 0 -15 80 0 80 0 0 15 0 15 40 0 40 0 0 15
0 15 30 0 30 0 0 10 0 10 10 0 10 0 0 -40 0 -40 55 0 55 0 0 15 0 15 15 0 15
0 0 15 0 15 25 0 25 0 0 -30 0 -30 65 0 65 0 0 15 0 15 -10 0 -10 0 0 15 0 15
25 0 25 0 0 -15 0 -15 95 0 95 0 0 15 0 15 10 0 10 0 0 25 0 25 -40 0 -40 0 0
15 0 15 -25 0 -25 0 0 25 0 25 -15 0 -15 0 0 11 0 10 -14 15 -15 14 -10 0 -11
0 0 15 0 15 -15 0 -15 0 0 15 0 15 -10 0 -10 0 0 50 0 50 10 0 10 0 0 15 0 15
15 0 15 0 0 15 0 15 15 0 15 0 0 10 0 10 -15 0 -15 0 0 30 0 30 -15 0 -15 0 0
-30 0 -30 15 0 15 0 0 -10 0 -10 -25 0 -25 0 0 -15 0 -15 -15 0 -15 0 0 -25 0
-25 -15 0 -15 0 0 -15 0 -15 15 0 15 0 0 -40 0 -40 15 0 15 0 0 -11 0 -10 14
-15 15 -14 10 0 11 0 0 -15 0 -15 15 0 15 0 0 -11 0 -10 14 -15 15 -14 10 0
11 0 0 -15 0 -15 15 0 15 0 0 -15 0 -15 40 0 40 0 0 -10 0 -10 -80 0 -80 0 0
10 0 10 -30 0 -30 0 0 15 0 15 -40 0 -40 0 0 15 0 15 15 0 15 0 0 10 0 10 -15
0 -15 0 0 30 0 30 -10 0 -10 0 0 -29 0 -29 13 -6 12 -6 -12 -6 -13 -6 0 -25 0
-24 14 -15 15 -14 10 0 11 0 0 -15 0 -15 -25 0 -25 0 0 15 0 15 -15 0 -15 0 0
25 0 25 -25 0 -25 0 0 15 0 15 -15 0 -15 0 0 10 0 10 -15 0 -15 0 0 -10 0 -10
15 0 15 0 0 -55 0 -55 -40 0 -40 0 0 40 0 40 -40 0 -40 0 0 -15 0 -15 -15 0
-15 0 0 15 0 15 -25 0 -25 0 0 -15 0 -15 15 0 15 0 0 -10 0 -10 -40 0 -40 0 0
-15 0 -15 -55 0 -55 0 0 15 0 15 -15 0 -15 0 0 10 0 10 15 0 15 0 0 -10 0 -10
15 0 15 0 0 25 0 25 50 0 50 0 0 15 0 15 15 0 15 0 0 10 0 10 15 0 15 0 0 15
0 15 10 0 10 0 0 15 0 15 15 0 15 0 0 10 0 10 14 0 14 0 6 -12 6 -13 6 13 6
12 14 0 14 0 0 15 0 15 15 0 15 0 0 15 0 15 50 0 50 0 0 10 0 10 -65 0 -65 0
0 -25 0 -25 -15 0 -15 0 0 -15 0 -15 -10 0 -10 0 0 15 0 15 -15 0 -15 0 0 -15
0 -15 -15 0 -15 0 0 40 0 40 15 0 15 0 0 30 0 30 -11 0 -10 0 -15 14 -14 15 0
10 0 11 -30 0 -30 0 0 14 0 14 -12 6 -13 6 13 6 12 6 0 14 0 14 -10 0 -10 0 0
-15 0 -15 -15 0 -15 0 0 15 0 15 -15 0 -15 0 0 15 0 15 -25 0 -25 0 0 -15 0
-15 -15 0 -15 0 0 -11 0 -10 -14 -15 -15 -14 -10 0 -11 0 0 -15 0 -15 -15 0
-15 0 0 25 0 25 15 0 15 0 0 15 0 15 25 0 25 0 0 11 0 10 -14 15 -15 14 -25 0
-26 0 0 -10 0 -10 -10 0 -10 0 0 25 0 25 50 0 50 0 0 -15 0 -15 15 0 15 0 0
55 0 55 -15 0 -15 0 0 11 0 10 -14 15 -15 14 -10 0 -11 0 0 15 0 15 -40 0 -40
0 0 -25z m80 -200 l0 -15 -15 0 -15 0 0 15 0 15 15 0 15 0 0 -15z"/>
<path d="M610 730 l0 -40 -10 0 -10 0 0 -25 0 -25 10 0 10 0 0 25 0 25 15 0
15 0 0 40 0 40 -15 0 -15 0 0 -40z"/>
<path d="M670 730 l0 -40 10 0 10 0 0 40 0 40 -10 0 -10 0 0 -40z"/>
<path d="M430 680 l0 -10 10 0 10 0 0 -40 0 -40 15 0 15 0 0 40 0 40 -15 0
-15 0 0 10 0 10 -10 0 -10 0 0 -10z"/>
<path d="M670 655 l0 -15 -15 0 -15 0 0 -15 0 -15 11 0 10 0 15 -14 14 -15 0
-10 0 -11 15 0 15 0 0 15 0 15 -11 0 -10 0 -15 14 -14 15 0 10 0 11 10 0 10 0
0 15 0 15 -10 0 -10 0 0 -15z"/>
<path d="M530 600 l0 -10 15 0 15 0 0 10 0 10 -15 0 -15 0 0 -10z"/>
<path d="M320 520 l0 -10 25 0 25 0 0 10 0 10 -25 0 -25 0 0 -10z"/>
<path d="M430 520 l0 -10 -15 0 -15 0 0 -15 0 -15 -15 0 -15 0 0 -15 0 -15 15
0 15 0 0 15 0 15 25 0 25 0 0 15 0 15 40 0 40 0 0 10 0 10 -50 0 -50 0 0 -10z"/>
<path d="M590 520 l0 -10 40 0 40 0 0 10 0 10 -40 0 -40 0 0 -10z"/>
<path d="M690 520 l0 -10 15 0 15 0 0 10 0 10 -15 0 -15 0 0 -10z"/>
<path d="M530 465 l0 -15 30 0 30 0 0 15 0 15 -30 0 -30 0 0 -15z"/>
<path d="M670 465 l0 -15 10 0 10 0 0 15 0 15 -10 0 -10 0 0 -15z"/>
<path d="M430 440 l0 -10 10 0 10 0 0 -15 0 -15 15 0 15 0 0 15 0 15 -15 0
-15 0 0 10 0 10 -10 0 -10 0 0 -10z"/>
<path d="M510 415 l0 -15 10 0 10 0 0 15 0 15 -10 0 -10 0 0 -15z"/>
<path d="M640 400 l0 -30 15 0 15 0 0 30 0 30 -15 0 -15 0 0 -30z"/>
<path d="M640 335 l0 -15 -25 0 -25 0 0 -15 0 -15 25 0 25 0 0 15 0 15 15 0
15 0 0 -15 0 -15 10 0 10 0 0 30 0 30 -25 0 -25 0 0 -15z"/>
<path d="M480 255 l0 -15 -15 0 -15 0 0 -14 0 -14 -12 -5 -13 -4 9 -9 9 -9 4
13 5 12 14 0 14 0 0 15 0 15 15 0 15 0 0 15 0 15 -15 0 -15 0 0 -15z"/>
<path d="M530 255 l0 -15 30 0 30 0 0 15 0 15 -30 0 -30 0 0 -15z"/>
<path d="M610 240 l0 -30 15 0 15 0 0 30 0 30 -15 0 -15 0 0 -30z"/>
<path d="M370 225 l0 -15 15 0 15 0 0 15 0 15 -15 0 -15 0 0 -15z"/>
<path d="M750 225 l0 -15 10 0 10 0 0 15 0 15 -10 0 -10 0 0 -15z"/>
<path d="M800 175 l0 -15 15 0 15 0 0 15 0 15 -15 0 -15 0 0 -15z"/>
<path d="M1090 146 l0 -14 -12 -6 -13 -6 13 -6 12 -6 0 -14 0 -14 15 0 15 0 0
-15 0 -15 40 0 40 0 0 55 0 55 -55 0 -55 0 0 -14z m80 -41 l0 -25 -10 0 -10 0
0 15 0 15 -15 0 -15 0 0 10 0 10 25 0 25 0 0 -25z"/>
<path d="M210 120 l0 -10 15 0 15 0 0 10 0 10 -15 0 -15 0 0 -10z"/>
</g>
</svg>
