<?xml version="1.0" standalone="no"?>
<!DOCTYPE svg PUBLIC "-//W3C//DTD SVG 20010904//EN"
 "http://www.w3.org/TR/2001/REC-SVG-20010904/DTD/svg10.dtd">
<svg version="1.0" xmlns="http://www.w3.org/2000/svg"
 width="468pt" height="468pt" viewBox="0 0 468 468"
 preserveAspectRatio="xMidYMid meet">
<metadata>
Created by potrace 1.8, written by Peter Selinger 2001-2007
</metadata>
<g transform="translate(0,468) scale(0.365625,-0.365625)"
fill="#000000" stroke="none">
<path d="M400 940 l0 -20 -60 0 -60 0 0 -20 0 -20 -40 0 -40 0 0 -20 0 -20
-20 0 -20 0 0 -20 0 -20 -20 0 -20 0 0 -20 0 -20 -20 0 -20 0 0 -60 0 -60 20
0 20 0 0 -20 0 -20 20 0 20 0 0 -20 0 -20 20 0 20 0 0 -20 0 -20 40 0 40 0 0
-20 0 -20 60 0 60 0 0 -20 0 -20 240 0 240 0 0 20 0 20 60 0 60 0 0 20 0 20
40 0 40 0 0 20 0 20 20 0 20 0 0 20 0 20 20 0 20 0 0 20 0 20 20 0 20 0 0 60
0 60 -20 0 -20 0 0 20 0 20 -20 0 -20 0 0 20 0 20 -20 0 -20 0 0 20 0 20 -40
0 -40 0 0 20 0 20 -60 0 -60 0 0 20 0 20 -240 0 -240 0 0 -20z m120 -40 l0
-20 20 0 20 0 0 20 0 20 60 0 60 0 0 -20 0 -20 20 0 20 0 0 20 0 20 80 0 80 0
0 -20 0 -20 60 0 60 0 0 -40 0 -40 20 0 20 0 0 20 0 20 20 0 20 0 0 -20 0 -20
20 0 20 0 0 -20 0 -20 20 0 20 0 0 -60 0 -60 -20 0 -20 0 0 -20 0 -20 -20 0
-20 0 0 -20 0 -20 -20 0 -20 0 0 20 0 20 -20 0 -20 0 0 -40 0 -40 -80 0 -80 0
0 -20 0 -20 -80 0 -80 0 0 20 0 20 -20 0 -20 0 0 -20 0 -20 -60 0 -60 0 0 20
0 20 -20 0 -20 0 0 -20 0 -20 -40 0 -40 0 0 20 0 20 -60 0 -60 0 0 40 0 40
-20 0 -20 0 0 -20 0 -20 -20 0 -20 0 0 20 0 20 -20 0 -20 0 0 20 0 20 -20 0
-20 0 0 60 0 60 20 0 20 0 0 20 0 20 40 0 40 0 0 20 0 20 20 0 20 0 0 20 0 20
20 0 20 0 0 -20 0 -20 20 0 20 0 0 20 0 20 20 0 20 0 0 20 0 20 60 0 60 0 0
-20z"/>
<path d="M400 860 l0 -20 20 0 20 0 0 -20 0 -20 20 0 20 0 0 20 0 20 -20 0
-20 0 0 20 0 20 -20 0 -20 0 0 -20z"/>
<path d="M560 840 l0 -40 -20 0 -20 0 0 -80 0 -80 40 0 40 0 0 -40 0 -40 20 0
20 0 0 40 0 40 20 0 20 0 0 -20 0 -20 20 0 20 0 0 20 0 20 20 0 20 0 0 -20 0
-20 20 0 20 0 0 20 0 20 -20 0 -20 0 0 40 0 40 20 0 20 0 0 -20 0 -20 20 0 20
0 0 20 0 20 -20 0 -20 0 0 20 0 20 -120 0 -120 0 0 20 0 20 20 0 20 0 0 40 0
40 -20 0 -20 0 0 -40z"/>
<path d="M800 860 l0 -20 20 0 20 0 0 20 0 20 -20 0 -20 0 0 -20z"/>
<path d="M680 820 l0 -20 20 0 20 0 0 20 0 20 -20 0 -20 0 0 -20z"/>
<path d="M920 820 l0 -20 20 0 20 0 0 20 0 20 -20 0 -20 0 0 -20z"/>
<path d="M160 700 l0 -20 20 0 20 0 0 20 0 20 -20 0 -20 0 0 -20z"/>
<path d="M280 700 l0 -20 20 0 20 0 0 20 0 20 -20 0 -20 0 0 -20z"/>
<path d="M400 700 l0 -20 20 0 20 0 0 20 0 20 -20 0 -20 0 0 -20z"/>
<path d="M920 700 l0 -20 20 0 20 0 0 20 0 20 -20 0 -20 0 0 -20z"/>
<path d="M1000 700 l0 -20 20 0 20 0 0 20 0 20 -20 0 -20 0 0 -20z"/>
<path d="M1080 700 l0 -20 20 0 20 0 0 20 0 20 -20 0 -20 0 0 -20z"/>
<path d="M880 620 l0 -20 20 0 20 0 0 20 0 20 -20 0 -20 0 0 -20z"/>
<path d="M960 620 l0 -20 20 0 20 0 0 20 0 20 -20 0 -20 0 0 -20z"/>
<path d="M400 580 l0 -20 20 0 20 0 0 20 0 20 -20 0 -20 0 0 -20z"/>
<path d="M480 580 l0 -20 20 0 20 0 0 20 0 20 -20 0 -20 0 0 -20z"/>
<path d="M760 540 l0 -20 20 0 20 0 0 20 0 20 -20 0 -20 0 0 -20z"/>
</g>
</svg>
