<?xml version="1.0" standalone="no"?>
<!DOCTYPE svg PUBLIC "-//W3C//DTD SVG 20010904//EN"
 "http://www.w3.org/TR/2001/REC-SVG-20010904/DTD/svg10.dtd">
<svg version="1.0" xmlns="http://www.w3.org/2000/svg"
 width="468pt" height="468pt" viewBox="0 0 468 468"
 preserveAspectRatio="xMidYMid meet">
<metadata>
Created by potrace 1.8, written by Peter Selinger 2001-2007
</metadata>
<g transform="translate(0,468) scale(0.365625,-0.365625)"
fill="#000000" stroke="none">
<path d="M400 1260 l0 -20 -20 0 -20 0 0 -20 0 -20 -20 0 -20 0 0 -40 0 -40
-20 0 -20 0 0 -40 0 -40 -20 0 -20 0 0 -40 0 -40 -20 0 -20 0 0 -40 0 -40 -20
0 -20 0 0 -40 0 -40 -20 0 -20 0 0 -40 0 -40 -20 0 -20 0 0 -40 0 -40 -20 0
-20 0 0 -40 0 -40 -20 0 -20 0 0 -60 0 -60 20 0 20 0 0 -20 0 -20 160 0 160 0
0 -120 0 -120 20 0 20 0 0 -20 0 -20 20 0 20 0 0 -20 0 -20 20 0 20 0 0 -20 0
-20 380 0 380 0 0 20 0 20 20 0 20 0 0 540 0 540 -40 0 -40 0 0 40 0 40 -60 0
-60 0 0 20 0 20 -40 0 -40 0 0 -20 0 -20 -20 0 -20 0 0 20 0 20 -40 0 -40 0 0
-20 0 -20 -20 0 -20 0 0 20 0 20 -40 0 -40 0 0 -20 0 -20 -20 0 -20 0 0 20 0
20 -40 0 -40 0 0 -20 0 -20 -20 0 -20 0 0 20 0 20 -40 0 -40 0 0 -20 0 -20
-20 0 -20 0 0 20 0 20 -40 0 -40 0 0 -20z m40 -40 l0 -20 40 0 40 0 0 20 0 20
20 0 20 0 0 -20 0 -20 40 0 40 0 0 20 0 20 20 0 20 0 0 -20 0 -20 40 0 40 0 0
20 0 20 20 0 20 0 0 -20 0 -20 40 0 40 0 0 20 0 20 20 0 20 0 0 -20 0 -20 40
0 40 0 0 20 0 20 20 0 20 0 0 -20 0 -20 40 0 40 0 0 -40 0 -40 20 0 20 0 0
-120 0 -120 -60 0 -60 0 0 40 0 40 -20 0 -20 0 0 -40 0 -40 -20 0 -20 0 0 -40
0 -40 20 0 20 0 0 20 0 20 80 0 80 0 0 -40 0 -40 -100 0 -100 0 0 20 0 20 -20
0 -20 0 0 -40 0 -40 120 0 120 0 0 -40 0 -40 -120 0 -120 0 0 40 0 40 -20 0
-20 0 0 -40 0 -40 -20 0 -20 0 0 -40 0 -40 20 0 20 0 0 20 0 20 140 0 140 0 0
-40 0 -40 -160 0 -160 0 0 20 0 20 -20 0 -20 0 0 -40 0 -40 180 0 180 0 0 -40
0 -40 -220 0 -220 0 0 20 0 20 -340 0 -340 0 0 60 0 60 20 0 20 0 0 40 0 40
20 0 20 0 0 40 0 40 20 0 20 0 0 40 0 40 20 0 20 0 0 40 0 40 20 0 20 0 0 40
0 40 20 0 20 0 0 40 0 40 20 0 20 0 0 40 0 40 20 0 20 0 0 40 0 40 20 0 20 0
0 20 0 20 20 0 20 0 0 -20z m720 -900 l0 -40 -380 0 -380 0 0 40 0 40 380 0
380 0 0 -40z m0 -120 l0 -40 -380 0 -380 0 0 40 0 40 380 0 380 0 0 -40z"/>
<path d="M400 1180 l0 -20 20 0 20 0 0 20 0 20 -20 0 -20 0 0 -20z"/>
<path d="M520 1180 l0 -20 20 0 20 0 0 20 0 20 -20 0 -20 0 0 -20z"/>
<path d="M640 1180 l0 -20 20 0 20 0 0 20 0 20 -20 0 -20 0 0 -20z"/>
<path d="M760 1180 l0 -20 20 0 20 0 0 20 0 20 -20 0 -20 0 0 -20z"/>
<path d="M880 1180 l0 -20 20 0 20 0 0 20 0 20 -20 0 -20 0 0 -20z"/>
<path d="M1000 1180 l0 -20 20 0 20 0 0 20 0 20 -20 0 -20 0 0 -20z"/>
<path d="M1080 1080 l0 -40 -20 0 -20 0 0 -40 0 -40 20 0 20 0 0 40 0 40 20 0
20 0 0 40 0 40 -20 0 -20 0 0 -40z"/>
<path d="M440 980 l0 -20 220 0 220 0 0 20 0 20 -220 0 -220 0 0 -20z"/>
<path d="M360 900 l0 -20 220 0 220 0 0 20 0 20 -220 0 -220 0 0 -20z"/>
<path d="M720 460 l0 -20 40 0 40 0 0 20 0 20 -40 0 -40 0 0 -20z"/>
</g>
</svg>
