<?xml version="1.0" standalone="no"?>
<!DOCTYPE svg PUBLIC "-//W3C//DTD SVG 20010904//EN"
 "http://www.w3.org/TR/2001/REC-SVG-20010904/DTD/svg10.dtd">
<svg version="1.0" xmlns="http://www.w3.org/2000/svg"
 width="468pt" height="468pt" viewBox="0 0 468 468"
 preserveAspectRatio="xMidYMid meet">
<metadata>
Created by potrace 1.8, written by Peter Selinger 2001-2007
</metadata>
<g transform="translate(0,468) scale(0.365625,-0.365625)"
fill="#000000" stroke="none">
<path d="M1 1048 l-1 -233 21 -16 22 -16 -7 -37 -7 -36 -9 0 -10 0 0 15 0 15
10 0 10 0 0 24 0 24 -14 5 -14 6 -1 -400 -2 -399 641 0 640 0 -1 608 0 607 -5
31 -6 32 -169 0 -169 -1 0 -13 0 -14 10 0 10 0 0 -16 0 -15 -16 -16 -15 -16 6
-25 6 -26 20 -14 19 -13 0 -24 0 -23 11 -4 11 -4 1 -28 0 -28 -14 -9 -14 -9
15 -10 15 -10 -12 0 -12 0 -12 21 -11 21 11 -6 11 -7 0 15 0 16 13 0 12 0 -12
8 -12 8 -9 39 -8 39 -14 4 -15 4 15 -11 14 -10 -7 -7 -7 -7 -6 5 -6 6 -3 19
-3 18 -1 14 -1 13 -13 -5 -14 -5 -14 8 -13 9 7 8 8 7 10 -14 10 -15 -3 30 -3
30 18 -1 17 -2 0 19 0 18 -13 -3 -12 -3 8 4 7 5 0 12 0 13 -110 2 -110 1 0
-10 0 -10 -21 -21 -21 -21 -8 12 -8 13 5 14 5 13 9 0 9 0 0 -9 0 -9 -10 -5
-10 -5 12 2 13 3 3 16 3 17 -50 0 -51 0 0 -20 0 -20 10 0 10 0 6 -25 6 -25 9
0 9 0 0 -15 0 -15 -9 0 -10 0 -4 -12 -4 -13 4 26 4 27 -17 -2 -17 -1 -3 13 -2
13 5 -11 5 -10 9 0 9 0 0 11 0 10 -14 15 -14 14 -5 -13 -4 -12 -9 9 -9 9 13 4
12 5 0 19 0 19 -50 0 -50 0 2 -32 3 -33 -14 0 -14 0 -3 13 -2 13 5 -11 5 -10
9 0 9 0 0 15 0 15 -10 0 -10 0 0 14 0 15 -165 -1 -165 0 0 -13 0 -13 -15 -6
-15 -5 0 -16 0 -15 -10 0 -10 0 0 -24 0 -24 15 -6 15 -5 0 -15 0 -14 15 -6 15
-5 -1 -18 -1 -18 -5 18 -4 17 -10 0 -9 0 0 -10 0 -11 -14 13 -14 13 9 3 9 4 0
14 0 14 -9 0 -9 0 -4 -12 -5 -13 -1 39 -1 39 -6 6 -6 5 -10 -14 -11 -15 5 15
4 15 17 -2 18 -1 -5 18 -4 17 15 -1 16 -1 3 15 3 15 -49 3 -50 3 0 -233z m219
207 l0 -15 -10 0 -10 0 0 -11 0 -10 16 -16 15 -16 -6 -26 -7 -26 -4 -4 -4 -4
-4 4 -4 4 -6 25 -6 25 6 -12 6 -13 9 0 9 0 0 11 0 10 -14 15 -14 14 -5 -13 -4
-12 -9 9 -9 9 13 4 12 5 0 13 0 13 -7 5 -8 4 13 -3 12 -3 0 14 0 15 10 0 10 0
0 -15z m151 -15 l9 0 0 -29 0 -30 13 -13 14 -13 7 -28 7 -29 24 -22 25 -23 0
-12 0 -12 -15 -15 -15 -15 0 -20 0 -19 -9 0 -9 0 -5 -21 -6 -21 -12 4 -13 4
-2 12 -2 13 5 -11 5 -10 9 0 9 0 0 14 0 14 -7 5 -8 4 13 -3 12 -3 0 18 0 19
13 5 12 5 -15 12 -15 12 18 -6 17 -5 0 18 0 19 -17 -2 -17 -1 -3 30 -2 30 -11
3 -10 4 0 19 0 18 -17 -5 -18 -6 15 12 15 12 -12 5 -13 5 0 31 0 32 -10 -15
-9 -14 -8 8 -8 9 13 4 12 5 1 16 1 17 5 -17 4 -18 10 0z m69 20 l0 -10 -10 0
-10 0 0 10 0 10 10 0 10 0 0 -10z m640 -29 l0 -11 -10 0 -10 0 0 -14 0 -14 13
-5 12 -5 -13 -1 -14 -1 -5 21 -6 20 -13 -5 -13 -5 6 15 5 14 8 0 8 0 6 -12 6
-13 -5 29 -6 28 16 -15 15 -16 0 -10z m78 22 l3 17 10 0 9 0 0 -14 0 -14 -12
-4 -13 -5 0 -44 0 -44 15 -18 15 -18 26 -27 26 -27 7 -29 7 -28 -16 15 -15 16
0 16 0 16 -11 -6 -11 -7 -18 20 -19 21 12 4 12 4 -18 17 -17 17 0 15 0 14 -10
0 -10 0 -1 -17 0 -18 -9 20 -9 20 0 10 -1 10 10 -15 10 -15 0 30 0 30 -11 -15
-11 -15 5 15 4 15 17 -3 16 -3 0 14 0 15 -15 6 -15 5 0 11 0 11 18 -17 17 -18
3 17z m-328 -23 l0 -20 -10 0 -9 0 -7 -37 -7 -36 18 -14 19 -13 -11 0 -12 0
-6 10 -6 9 -12 -3 -12 -3 8 4 7 5 0 24 0 24 -9 0 -9 0 -5 -10 -5 -10 2 12 3
13 17 -2 18 -1 -5 19 -5 19 9 -6 9 -5 0 20 0 21 10 0 10 0 0 -20z m440 -16 l0
-24 -10 0 -10 0 0 -20 0 -20 10 0 10 0 0 -15 0 -15 -12 0 -13 0 15 -10 14 -9
-7 -8 -8 -7 -8 13 -9 13 4 22 4 21 -6 -12 -6 -13 -8 0 -8 0 -5 14 -6 15 14 -5
13 -5 7 40 7 40 -7 11 -6 10 15 -6 16 -6 0 -24z m-543 2 l-17 -13 0 -22 0 -21
10 0 10 0 0 -13 0 -14 20 -23 20 -23 0 -3 0 -3 -15 5 -15 6 0 12 0 11 -10 -15
-9 -14 -8 8 -8 9 13 4 12 5 0 10 0 10 -14 -5 -14 -6 5 19 5 18 -18 -1 -17 -2
-3 13 -2 13 5 -11 5 -10 9 0 9 0 0 22 0 21 18 17 17 17 5 -4 5 -5 -18 -12z
m-417 -45 l0 -11 -10 0 -10 0 0 -20 0 -20 10 0 10 0 0 -15 0 -15 -12 0 -13 0
14 -9 13 -9 -22 -22 -22 -22 -6 7 -7 7 16 8 16 9 1 30 1 30 -14 -5 -13 -5 -7
10 -6 11 15 -6 16 -6 0 20 0 20 -12 5 -13 4 8 9 8 8 10 -14 11 -15 -7 29 -6
28 16 -15 15 -16 0 -10z m197 15 l-17 -13 0 -8 0 -8 25 -23 25 -23 0 -11 0
-10 -9 0 -9 0 -5 21 -6 22 -16 -7 -16 -6 6 9 5 9 -10 27 -10 26 9 -6 10 -5 13
14 13 14 5 -5 5 -5 -18 -12z m520 -13 l7 -18 23 -22 23 -22 0 -11 0 -10 -12 0
-13 0 15 -10 14 -9 -7 -8 -8 -7 -8 13 -9 13 5 19 5 19 -18 -6 -19 -6 11 9 12
8 -13 12 -14 12 -4 -12 -4 -12 -9 9 -9 9 13 4 12 5 0 14 0 14 -10 0 -10 0 0
-12 0 -11 -6 6 -6 6 7 10 6 11 10 0 10 0 6 -17z m-807 -101 l0 -10 -16 -6 -16
-6 5 -27 4 -28 -4 13 -4 12 -9 0 -8 0 -5 -12 -4 -13 1 31 1 31 15 -1 15 -1 -2
28 -2 27 15 -14 14 -15 0 -9z m290 28 l0 -10 -10 0 -10 0 0 10 0 10 10 0 10 0
0 -10z m60 1 l0 -9 -15 -6 -15 -5 1 -13 1 -13 5 13 5 12 9 0 9 0 0 -9 0 -9
-13 -5 -14 -5 -13 8 -12 8 18 20 19 20 8 1 7 1 0 -9z m295 -12 l7 -21 -21 -19
-21 -20 0 11 0 11 15 5 15 6 0 15 0 15 -14 -5 -15 -6 6 15 5 14 8 0 9 0 6 -21z
m-822 -19 l17 -20 0 -10 0 -9 15 -8 15 -9 6 -30 6 -31 -15 -14 -15 -15 -7 -32
-7 -32 -8 0 -8 0 -5 19 -5 20 14 -6 14 -5 0 20 0 20 -12 5 -13 4 9 9 9 9 4
-12 5 -13 14 14 14 15 0 15 0 16 -9 0 -9 0 -5 -12 -5 -13 1 29 2 29 -15 4 -15
5 15 -11 14 -10 -7 -8 -8 -7 -8 13 -9 13 5 19 5 19 -18 -6 -19 -6 15 11 15 11
-15 10 -15 10 10 0 11 0 17 -20z m627 5 l0 -16 15 -5 15 -6 0 -10 0 -9 -16
-16 -15 -15 7 -32 6 -31 9 -3 9 -4 0 -13 0 -13 -14 -5 -14 -6 5 19 5 18 -18
-1 -17 -2 -3 13 -2 13 5 -11 5 -10 9 0 9 0 0 20 0 21 -16 -3 -17 -3 -4 15 -5
15 12 -15 12 -15 -6 30 -7 30 11 -15 10 -15 10 15 10 15 -3 15 -3 15 -16 -1
-15 -1 4 18 5 19 9 0 9 0 0 -15z m446 -17 l6 -21 -16 -12 -16 -12 0 -11 0 -10
8 -4 9 -3 6 -45 5 -45 -5 18 -5 18 -12 -4 -12 -5 4 37 3 36 -10 -15 -10 -14
-8 8 -8 9 13 4 12 5 0 14 0 15 15 5 15 6 0 14 0 14 -10 0 -9 0 -10 -17 -9 -18
-7 7 -7 6 19 20 18 20 7 1 7 1 7 -22z m-758 -20 l3 -16 -13 -13 -14 -14 -13
-32 -13 -32 7 -31 7 -31 14 -6 14 -5 0 -8 0 -8 -14 -5 -14 -5 2 16 1 17 -20
-2 -20 -2 13 5 12 6 0 15 0 15 -12 -5 -13 -4 0 32 0 32 13 -4 12 -5 0 10 0 10
-12 5 -13 4 8 9 8 8 9 -14 10 -15 1 20 2 20 0 12 -1 11 14 -5 14 -5 0 15 0 15
-10 5 -10 6 12 -3 13 -3 3 -15z m432 2 l0 -8 -11 -4 -11 -4 -3 -42 -2 -43 -7
-6 -6 -6 -7 8 -8 8 13 4 12 5 0 10 0 10 -12 -5 -13 -4 -1 29 -1 30 8 -13 8
-13 6 6 7 7 2 24 1 24 13 -4 12 -5 0 -8z m-210 -14 l0 -5 -16 -15 -15 -16 -1
-29 -1 -29 -13 12 -12 11 9 3 9 4 0 18 0 18 -12 5 -13 4 9 9 9 9 4 -12 5 -13
15 15 14 15 5 0 4 0 0 -4z m333 -3 l-13 -5 0 -14 0 -14 -20 -17 -20 -17 0 -14
0 -13 15 -5 15 -6 0 -10 0 -9 -14 -15 -15 -14 2 27 2 28 -15 -1 -16 -1 2 29 2
29 6 6 6 6 7 -7 7 -7 -14 -9 -15 -10 10 0 11 0 15 18 15 18 7 17 6 17 13 -1
13 -1 -12 -5z m315 -88 l9 -11 7 -27 6 -27 10 0 10 0 0 -14 0 -14 -14 -5 -14
-6 5 20 5 19 -18 -6 -19 -6 15 12 15 12 -12 5 -13 5 0 18 0 18 -17 -2 -18 -1
2 22 3 22 -17 -6 -17 -7 14 16 15 15 17 -21 18 -21 8 -10z m-1031 -14 l2 -44
13 -8 13 -8 -1 -58 -2 -57 -11 -4 -11 -4 0 -29 0 -29 10 0 10 0 0 -15 0 -14
31 -32 30 -31 -5 -6 -6 -6 -14 19 -13 18 -13 -8 -13 -8 6 11 7 10 -6 17 -7 16
-12 -5 -13 -5 5 19 5 18 -18 -1 -17 -2 -3 13 -2 13 5 -11 5 -10 9 0 9 0 0 31
0 31 -14 -5 -15 -6 6 15 5 14 8 0 8 0 5 -12 5 -13 1 28 1 27 10 0 10 0 0 26 0
26 -14 -5 -14 -6 5 19 5 18 -18 -1 -17 -2 -3 13 -2 13 5 -11 5 -10 9 0 9 0 0
25 0 25 -9 0 -9 0 -5 -12 -6 -13 6 34 6 34 -13 -8 -13 -8 6 9 6 10 18 0 18 0
2 -45z m597 -15 l6 -24 -6 -30 -6 -30 12 -23 13 -24 11 -7 11 -8 -13 0 -13 0
-6 16 -6 16 -8 -13 -8 -13 -8 8 -8 9 13 4 12 5 0 10 0 10 -13 -5 -13 -5 4 29
4 29 9 0 9 0 0 20 0 20 -10 0 -10 0 0 15 0 15 9 0 9 0 6 -24z m201 -6 l7 -30
9 0 9 0 0 -19 0 -19 -12 -5 -13 -5 13 -10 14 -9 -15 -6 -15 -6 4 40 5 39 -13
-4 -13 -3 8 4 7 5 0 14 0 15 -16 -3 -17 -3 -4 15 -5 15 11 -15 11 -15 0 18 0
17 9 0 9 0 7 -30z m-525 10 l11 15 -6 -25 -6 -25 21 -22 20 -22 0 -11 0 -10
-20 -20 -20 -20 0 -15 0 -15 -10 0 -10 0 -1 -17 -1 -18 -5 15 -6 15 -11 7 -10
7 7 8 8 7 10 -14 10 -15 -3 30 -3 30 20 0 20 0 3 24 4 23 -10 -6 -10 -6 2 18
1 17 -16 -1 -16 -1 4 18 5 19 -18 -7 -18 -7 14 16 15 16 8 -12 7 -11 10 15z
m130 0 l0 -10 -10 0 -10 0 0 -19 0 -19 10 -4 10 -3 3 -30 4 -30 -4 18 -4 17
-9 0 -8 0 -6 -12 -5 -13 5 30 6 30 -11 -15 -10 -14 -8 7 -7 8 10 7 11 7 7 28
6 27 10 0 10 0 0 -10z m160 0 l0 -10 -10 0 -10 0 0 10 0 10 10 0 10 0 0 -10z
m404 -92 l30 -28 7 0 7 0 5 -22 6 -22 -5 -23 -6 -23 -9 0 -9 0 0 15 0 15 10 0
10 0 0 15 0 15 -10 0 -10 0 0 -11 0 -10 -15 15 -15 15 0 10 0 11 9 0 10 0 4
-17 5 -18 1 17 1 17 -11 7 -12 7 -21 1 -20 1 -2 35 -3 35 6 -14 6 -15 31 -28z
m-1045 31 l9 14 -4 -74 -4 -74 -10 -3 -10 -4 0 -19 0 -19 -20 -17 -20 -17 0
-11 0 -11 30 -24 29 -25 1 -22 0 -23 -10 0 -10 0 0 23 0 23 -28 24 -28 25 -6
16 -6 16 8 14 9 13 8 -7 7 -8 -14 -9 -15 -10 10 0 11 0 17 20 17 20 0 14 0 14
-12 5 -13 4 8 9 8 8 10 -14 11 -15 -5 45 -5 45 5 -12 5 -13 9 0 9 0 0 21 0 21
-14 -5 -14 -6 5 20 5 19 -18 -7 -18 -7 14 16 15 16 8 -12 7 -11 9 14z m575
-26 l11 -14 13 -14 12 -14 0 -10 0 -11 -10 0 -10 0 -6 -25 -6 -25 -9 0 -9 0 0
9 0 9 -6 19 -6 18 11 -15 11 -15 10 15 10 15 0 10 0 10 -9 14 -9 14 -8 -6 -9
-5 -2 31 -1 32 5 -15 6 -14 11 -13z m66 27 l0 -10 -10 0 -10 0 0 10 0 10 10 0
10 0 0 -10z m163 -35 l-6 -45 17 -6 16 -6 0 -29 0 -29 -10 0 -10 0 0 -14 0
-15 -16 -15 -15 -16 15 -16 16 -15 0 -4 0 -4 -15 5 -15 6 0 12 0 11 -10 -15
-9 -14 -8 7 -7 8 14 10 15 9 -15 10 -15 10 14 9 14 9 14 -5 13 -5 0 15 0 15
-7 5 -8 4 13 -4 13 -3 -3 32 -3 31 -15 4 -15 5 15 -11 14 -10 -7 -7 -7 -7 -7
7 -7 7 2 42 2 42 -9 -15 -10 -14 -8 7 -7 8 13 9 14 8 14 -5 13 -5 0 16 0 16 5
0 5 0 -7 -45z m187 35 l0 -10 -10 0 -10 0 0 10 0 10 10 0 10 0 0 -10z m-737
-58 l-10 -7 -6 -15 -5 -15 -1 17 -1 16 -7 5 -8 4 13 -4 13 -3 -7 22 -7 22 18
-18 18 -18 -10 -6z m683 -48 l-36 -35 0 -14 0 -15 -10 0 -10 0 0 -15 0 -15 9
0 9 0 6 -31 6 -32 16 -12 16 -12 -6 -21 -7 -22 -9 0 -8 0 -5 14 -6 15 15 -6
14 -5 0 16 0 16 -12 1 -13 1 -15 -1 -15 0 13 5 12 6 0 15 0 15 -13 -5 -14 -5
5 24 4 24 -18 -6 -19 -6 11 9 11 8 8 25 8 25 11 8 11 7 -11 8 -12 7 13 12 14
12 3 -11 4 -12 22 22 22 22 1 13 1 12 5 -13 5 -13 -36 -35z m-866 36 l0 -10
-10 0 -10 0 0 10 0 10 10 0 10 0 0 -10z m120 -31 l0 -9 -10 0 -10 0 0 -15 0
-15 9 0 9 0 7 -28 6 -28 29 -24 30 -25 0 -17 0 -18 -9 0 -9 0 -6 -25 -6 -25
-10 0 -10 0 0 13 0 12 -11 -15 -11 -15 5 15 4 15 17 -3 16 -3 0 15 0 14 -7 5
-8 4 13 -3 12 -3 0 19 0 19 -17 -5 -18 -6 15 11 15 11 -15 9 -14 10 -6 -4 -6
-4 -1 22 -2 22 -11 3 -10 4 0 14 0 13 -17 -5 -18 -6 13 10 14 9 1 25 2 25 13
-4 12 -5 0 -9z m290 11 l0 -11 -25 -23 -25 -23 0 -17 0 -16 10 0 10 0 0 -13 0
-13 20 -17 20 -17 0 -14 0 -14 13 -5 12 -5 -13 -1 -14 -1 -5 21 -6 20 -12 -5
-13 -4 2 16 1 17 -15 -1 -15 -1 -2 35 -2 35 -13 8 -12 8 8 8 9 8 4 -12 4 -12
20 17 19 16 0 13 0 13 10 0 10 0 0 -10z m-510 -10 l0 -10 -10 0 -10 0 0 10 0
10 10 0 10 0 0 -10z m480 0 l0 -10 -10 0 -10 0 0 10 0 10 10 0 10 0 0 -10z
m221 -27 l2 -18 1 -35 1 -36 -15 0 -15 0 -1 36 -1 35 4 -12 5 -13 9 0 9 0 0
15 0 15 -10 0 -10 0 0 15 0 15 10 0 10 0 1 -17z m-130 -53 l9 0 0 -20 0 -19
20 -19 19 -18 -6 -37 -6 -37 -7 0 -8 0 -4 29 -4 29 13 -5 13 -5 0 16 0 16 -12
1 -13 1 -15 2 -15 1 3 35 3 35 -11 -15 -11 -15 7 30 6 30 -11 -15 -10 -14 -8
8 -8 9 13 4 12 5 1 16 1 17 10 -32 11 -33 8 0z m99 50 l0 -10 -10 0 -10 0 0
10 0 10 10 0 10 0 0 -10z m420 0 l0 -10 -10 0 -10 0 0 10 0 10 10 0 10 0 0
-10z m-55 -66 l1 -45 12 -8 13 -8 3 -34 3 -34 -4 23 -4 22 -10 0 -9 0 0 -12 0
-13 -10 15 -10 15 6 30 5 30 -10 -15 -10 -14 -8 8 -8 9 13 4 12 5 0 18 0 18
-7 5 -8 4 14 -4 13 -3 -5 21 -6 21 7 -7 7 -7 0 -44z m-655 36 l0 -10 -10 0
-10 0 0 10 0 10 10 0 10 0 0 -10z m786 -22 l-11 -7 2 -52 1 -52 10 -6 10 -6
-13 -11 -12 -12 -1 35 -1 36 -6 6 -6 5 -10 -14 -10 -15 7 30 7 30 9 3 8 4 0
14 0 14 -10 0 -11 0 13 13 12 14 12 -11 12 -11 -12 -7z m-69 -10 l-5 -13 -1
19 -1 19 6 -6 6 -6 -5 -13z m-703 -15 l-8 -18 -1 -25 -2 -25 -1 -27 -2 -28
-10 0 -10 0 0 25 0 25 10 0 10 0 0 15 0 15 -9 0 -9 0 -5 -12 -4 -13 2 35 3 35
16 -1 16 -2 0 16 0 15 6 -6 6 -6 -8 -18z m276 17 l0 -10 -10 0 -10 0 0 10 0
10 10 0 10 0 0 -10z m-564 -85 l6 -24 14 -5 14 -5 0 -11 0 -11 -15 15 -16 15
-12 -3 -12 -3 8 4 7 5 0 15 0 15 -13 -5 -13 -5 0 18 0 18 13 -5 13 -5 6 -23z
m634 -15 l0 -10 -10 0 -10 0 -1 -17 0 -18 -9 20 -9 20 0 10 -1 10 10 -15 10
-15 0 12 0 11 -6 17 -7 17 -8 -13 -8 -13 -8 7 -7 8 14 9 14 9 18 -19 18 -19 0
-11z m-770 30 l0 -10 -10 0 -10 0 0 10 0 10 10 0 10 0 0 -10z m510 -30 l0 -8
6 -19 6 -18 -11 15 -11 15 -9 -13 -8 -14 1 30 1 29 13 -4 12 -5 0 -8z m356
-12 l6 -20 -6 -5 -6 -6 0 17 0 18 -13 -5 -13 -5 0 18 0 18 13 -5 12 -5 7 -20z
m-836 12 l0 -10 -10 0 -10 0 0 10 0 10 10 0 10 0 0 -10z m350 0 l0 -10 -10 0
-10 0 0 10 0 10 10 0 10 0 0 -10z m0 -30 l0 -10 -10 0 -10 0 0 10 0 10 10 0
10 0 0 -10z m230 0 l0 -10 -10 0 -10 0 0 10 0 10 10 0 10 0 0 -10z"/>
<path d="M420 1070 l0 -10 10 0 10 0 0 10 0 10 -10 0 -10 0 0 -10z"/>
<path d="M1187 1074 l5 -14 9 0 9 0 0 9 0 9 -14 5 -15 6 6 -15z"/>
<path d="M1190 940 l0 -10 10 0 10 0 0 10 0 10 -10 0 -10 0 0 -10z"/>
<path d="M450 780 l0 -10 10 0 10 0 0 10 0 10 -10 0 -10 0 0 -10z"/>
<path d="M1130 820 l0 -10 10 0 10 0 0 10 0 10 -10 0 -10 0 0 -10z"/>
<path d="M650 620 l0 -10 10 0 10 0 0 10 0 10 -10 0 -10 0 0 -10z"/>
<path d="M1121 584 l1 -19 5 13 5 13 -6 6 -6 6 1 -19z"/>
<path d="M900 1200 l0 -10 10 0 10 0 0 10 0 10 -10 0 -10 0 0 -10z"/>
</g>
</svg>
