<?xml version="1.0" standalone="no"?>
<!DOCTYPE svg PUBLIC "-//W3C//DTD SVG 20010904//EN"
 "http://www.w3.org/TR/2001/REC-SVG-20010904/DTD/svg10.dtd">
<svg version="1.0" xmlns="http://www.w3.org/2000/svg"
 width="468pt" height="468pt" viewBox="0 0 468 468"
 preserveAspectRatio="xMidYMid meet">
<metadata>
Created by potrace 1.8, written by Peter Selinger 2001-2007
</metadata>
<g transform="translate(0,468) scale(0.365625,-0.365625)"
fill="#000000" stroke="none">
<path d="M183 1255 l-23 -24 0 -26 0 -25 10 0 10 0 0 -10 0 -10 -16 0 -15 0
-15 -14 -14 -15 0 -15 0 -16 -10 0 -10 0 0 10 0 10 -25 0 -26 0 -26 -26 -25
-25 6 -6 6 -6 19 21 18 22 22 0 22 0 15 -14 14 -15 0 -15 0 -16 35 0 36 0 24
25 25 24 0 36 0 35 -16 0 -15 0 -15 14 -14 15 0 23 0 24 20 14 20 14 0 8 0 8
-7 -1 -8 0 -22 -24z"/>
<path d="M840 1154 l0 -6 33 -31 32 -30 -12 -4 -13 -5 0 -29 0 -29 50 0 50 0
0 29 0 29 -12 5 -13 4 34 32 34 32 -6 6 -6 6 -30 -32 -29 -31 -22 0 -22 0 -28
30 -28 30 -6 0 -6 0 0 -6z"/>
<path d="M400 1110 l0 -10 -30 0 -30 0 0 -10 0 -10 26 0 25 0 15 14 14 15 0 5
0 6 -10 0 -10 0 0 -10z"/>
<path d="M233 1065 l-33 -34 0 -21 0 -20 135 -135 135 -135 35 0 35 0 0 15 0
15 -151 151 -151 150 5 6 6 5 150 -151 151 -151 15 0 15 0 0 35 0 35 -135 135
-135 135 -22 -1 -23 0 -32 -34z"/>
<path d="M440 1070 l0 -10 -30 0 -30 0 0 -10 0 -10 26 0 25 0 15 14 14 15 0 5
0 6 -10 0 -10 0 0 -10z"/>
<path d="M480 1030 l0 -10 -30 0 -30 0 0 -10 0 -10 26 0 25 0 15 14 14 15 0 5
0 6 -10 0 -10 0 0 -10z"/>
<path d="M520 990 l0 -10 -30 0 -30 0 0 -10 0 -10 26 0 25 0 15 14 14 15 0 5
0 6 -10 0 -10 0 0 -10z"/>
<path d="M833 965 l-33 -34 0 -81 0 -81 35 -34 34 -35 71 0 71 0 34 35 35 34
0 81 0 81 -35 34 -34 35 -73 -1 -73 0 -32 -34z m107 -115 l0 -130 -35 0 -36 0
-24 25 -25 24 0 81 0 81 23 24 22 24 38 0 37 1 0 -130z m95 105 l25 -24 0 -81
0 -81 -25 -24 -24 -25 -26 0 -25 0 0 130 0 130 25 0 26 0 24 -25z"/>
<path d="M880 950 l0 -10 10 0 10 0 0 10 0 10 -10 0 -10 0 0 -10z"/>
<path d="M840 910 l0 -10 10 0 10 0 0 10 0 10 -10 0 -10 0 0 -10z"/>
<path d="M900 870 l0 -10 10 0 10 0 0 10 0 10 -10 0 -10 0 0 -10z"/>
<path d="M860 830 l0 -10 10 0 10 0 0 10 0 10 -10 0 -10 0 0 -10z"/>
<path d="M880 770 l0 -10 10 0 10 0 0 10 0 10 -10 0 -10 0 0 -10z"/>
<path d="M980 950 l0 -10 10 0 10 0 0 10 0 10 -10 0 -10 0 0 -10z"/>
<path d="M1020 890 l0 -10 10 0 10 0 0 10 0 10 -10 0 -10 0 0 -10z"/>
<path d="M980 850 l0 -10 10 0 10 0 0 10 0 10 -10 0 -10 0 0 -10z"/>
<path d="M1020 790 l0 -10 10 0 10 0 0 10 0 10 -10 0 -10 0 0 -10z"/>
<path d="M200 911 l0 -49 -12 -5 -13 -4 7 -8 7 -7 16 15 15 16 0 45 0 46 -10
0 -10 0 0 -49z"/>
<path d="M560 950 l0 -10 -30 0 -30 0 0 -10 0 -10 26 0 25 0 15 14 14 15 0 5
0 6 -10 0 -10 0 0 -10z"/>
<path d="M600 910 l0 -10 -30 0 -30 0 0 -10 0 -10 26 0 25 0 15 14 14 15 0 5
0 6 -10 0 -10 0 0 -10z"/>
<path d="M240 861 l0 -39 -12 -5 -13 -4 7 -8 7 -7 16 15 15 16 0 35 0 36 -10
0 -10 0 0 -39z"/>
<path d="M721 874 l-23 -25 6 -6 6 -6 19 21 18 22 17 0 16 0 0 10 0 10 -17 -1
-18 0 -24 -25z"/>
<path d="M1100 890 l0 -10 16 0 17 0 18 -22 19 -21 6 6 6 6 -25 25 -26 26 -16
0 -15 0 0 -10z"/>
<path d="M280 821 l0 -39 -12 -5 -13 -4 7 -8 7 -7 16 15 15 16 0 35 0 36 -10
0 -10 0 0 -39z"/>
<path d="M721 814 l-23 -25 6 -6 6 -6 19 21 18 22 17 0 16 0 0 10 0 10 -17 -1
-18 0 -24 -25z"/>
<path d="M1100 830 l0 -10 16 0 17 0 18 -22 19 -21 6 6 6 6 -25 25 -26 26 -16
0 -15 0 0 -10z"/>
<path d="M320 781 l0 -39 -12 -5 -13 -4 7 -8 7 -7 16 15 15 16 0 35 0 36 -10
0 -10 0 0 -39z"/>
<path d="M360 741 l0 -39 -12 -5 -13 -4 7 -8 7 -7 16 15 15 16 0 35 0 36 -10
0 -10 0 0 -39z"/>
<path d="M721 754 l-23 -25 6 -6 6 -6 19 21 18 22 17 0 16 0 0 10 0 10 -17 -1
-18 0 -24 -25z"/>
<path d="M1100 770 l0 -10 16 0 17 0 18 -22 19 -21 6 6 6 6 -25 25 -26 26 -16
0 -15 0 0 -10z"/>
<path d="M400 701 l0 -39 -12 -5 -13 -4 7 -8 7 -7 16 15 15 16 0 35 0 36 -10
0 -10 0 0 -39z"/>
<path d="M240 564 l0 -15 14 -15 15 -14 55 0 56 0 0 -60 0 -60 -20 0 -20 0 0
30 0 30 -70 0 -70 0 0 20 0 20 -10 0 -10 0 0 -16 0 -15 14 -15 15 -14 55 0 56
0 0 -60 0 -60 -30 0 -30 0 0 30 0 30 -70 0 -70 0 0 20 0 20 -10 0 -10 0 0 -16
0 -15 14 -15 15 -14 55 0 56 0 0 -70 0 -70 -20 0 -20 0 0 -10 0 -10 -49 0 -49
0 -5 13 -4 12 -8 -7 -7 -7 15 -16 16 -15 31 0 31 0 24 -25 25 -24 0 -31 0 -31
15 -16 16 -15 7 7 7 8 -12 4 -13 5 0 49 0 49 10 0 10 0 0 30 0 30 60 0 60 0 0
10 0 10 10 0 10 0 0 -66 0 -65 14 -15 15 -14 15 0 16 0 0 10 0 10 -20 0 -20 0
0 80 0 80 -20 0 -20 0 0 -10 0 -10 -20 0 -20 0 0 30 0 30 20 0 20 0 0 10 0 10
30 0 30 0 0 10 0 10 10 0 10 0 0 -66 0 -65 14 -15 15 -14 15 0 16 0 0 10 0 10
-20 0 -20 0 0 80 0 80 -20 0 -20 0 0 -10 0 -10 -20 0 -20 0 0 20 0 20 28 0 28
0 14 20 14 20 18 0 18 0 0 10 0 10 10 0 10 0 0 -66 0 -65 14 -15 15 -14 15 0
16 0 0 10 0 10 -20 0 -20 0 0 80 0 80 -20 0 -20 0 0 -10 0 -10 -18 0 -18 0
-14 20 -14 20 -28 0 -28 0 0 30 0 30 -70 0 -70 0 0 20 0 20 -10 0 -10 0 0 -16z"/>
<path d="M860 554 l0 -5 14 -15 15 -14 25 0 26 0 0 10 0 10 10 0 10 0 0 -40 0
-40 10 0 10 0 0 50 0 50 -20 0 -20 0 0 -10 0 -10 -30 0 -30 0 0 10 0 10 -10 0
-10 0 0 -6z"/>
<path d="M820 514 l0 -5 14 -15 15 -14 35 0 36 0 0 -20 0 -20 10 0 10 0 0 30
0 30 -50 0 -50 0 0 10 0 10 -10 0 -10 0 0 -6z"/>
<path d="M860 450 l0 -10 -20 0 -20 0 0 -10 0 -10 -29 0 -29 0 -5 13 -4 12 -8
-7 -7 -7 15 -16 16 -15 25 0 26 0 0 10 0 10 20 0 20 0 0 10 0 10 10 0 10 0 0
-30 0 -30 10 0 10 0 0 40 0 40 -20 0 -20 0 0 -10z"/>
<path d="M943 415 l-23 -24 0 -16 0 -15 18 0 18 0 14 20 14 20 48 0 48 0 0 10
0 10 10 0 10 0 0 -46 0 -45 15 -16 16 -15 7 7 7 8 -12 4 -13 5 0 59 0 59 -30
0 -30 0 0 -10 0 -10 -30 0 -30 0 0 10 0 10 -17 -1 -18 0 -22 -24z"/>
<path d="M1000 370 l0 -10 20 0 20 0 0 -10 0 -10 -10 0 -10 0 0 -36 0 -35 15
-16 16 -15 7 7 7 8 -12 4 -13 5 0 39 0 39 10 0 10 0 0 20 0 20 -30 0 -30 0 0
-10z"/>
<path d="M880 340 l0 -20 20 0 20 0 0 20 0 20 -20 0 -20 0 0 -20z"/>
<path d="M940 330 l0 -10 20 0 20 0 0 -20 0 -20 -10 0 -10 0 0 -36 0 -35 15
-16 16 -15 7 7 7 8 -12 4 -13 5 0 39 0 39 10 0 10 0 0 30 0 30 -30 0 -30 0 0
-10z"/>
</g>
</svg>
