<?xml version="1.0" standalone="no"?>
<!DOCTYPE svg PUBLIC "-//W3C//DTD SVG 20010904//EN"
 "http://www.w3.org/TR/2001/REC-SVG-20010904/DTD/svg10.dtd">
<svg version="1.0" xmlns="http://www.w3.org/2000/svg"
 width="468pt" height="468pt" viewBox="0 0 468 468"
 preserveAspectRatio="xMidYMid meet">
<metadata>
Created by potrace 1.8, written by Peter Selinger 2001-2007
</metadata>
<g transform="translate(0,468) scale(0.365625,-0.365625)"
fill="#000000" stroke="none">
<path d="M0 640 l0 -640 55 0 55 0 0 575 0 575 585 0 585 0 0 65 0 65 -640 0
-640 0 0 -640z"/>
<path d="M160 1015 l0 -55 15 0 15 0 0 -11 0 -10 14 -15 15 -14 10 0 11 0 0
-15 0 -15 15 0 15 0 0 -11 0 -10 14 -15 15 -14 10 0 11 0 0 -15 0 -15 15 0 15
0 0 -11 0 -10 14 -15 15 -14 10 0 11 0 0 -15 0 -15 15 0 15 0 0 -11 0 -10 14
-15 15 -14 10 0 11 0 0 -15 0 -15 15 0 15 0 0 -11 0 -10 14 -15 15 -14 10 0
11 0 0 -15 0 -15 25 0 25 0 0 15 0 15 15 0 15 0 0 10 0 10 15 0 15 0 0 30 0
30 -15 0 -15 0 0 10 0 10 -15 0 -15 0 0 15 0 15 -10 0 -10 0 0 15 0 15 -15 0
-15 0 0 10 0 10 -15 0 -15 0 0 15 0 15 -10 0 -10 0 0 15 0 15 -15 0 -15 0 0
10 0 10 -15 0 -15 0 0 15 0 15 -10 0 -10 0 0 15 0 15 -15 0 -15 0 0 10 0 10
-15 0 -15 0 0 15 0 15 -10 0 -10 0 0 15 0 15 -15 0 -15 0 0 10 0 10 -15 0 -15
0 0 15 0 15 -10 0 -10 0 0 15 0 15 -55 0 -55 0 0 -55z"/>
<path d="M320 1055 l0 -15 15 0 15 0 0 -11 0 -10 14 -15 15 -14 10 0 11 0 0
-15 0 -15 15 0 15 0 0 -11 0 -10 14 -15 15 -14 10 0 11 0 0 -15 0 -15 15 0 15
0 0 -11 0 -10 14 -15 15 -14 10 0 11 0 0 -15 0 -15 15 0 15 0 0 -11 0 -10 14
-15 15 -14 10 0 11 0 0 -15 0 -15 15 0 15 0 0 -15 0 -15 120 0 120 0 0 15 0
15 -15 0 -15 0 0 15 0 15 -11 0 -10 0 -15 14 -14 15 0 10 0 11 -15 0 -15 0 0
15 0 15 -11 0 -10 0 -15 14 -14 15 0 25 0 26 145 0 145 0 0 10 0 10 -15 0 -15
0 0 15 0 15 -10 0 -10 0 0 15 0 15 -15 0 -15 0 0 10 0 10 -15 0 -15 0 0 15 0
15 -10 0 -10 0 0 15 0 15 -295 0 -295 0 0 -15z"/>
<path d="M960 1055 l0 -15 15 0 15 0 0 -11 0 -10 14 -15 15 -14 10 0 11 0 0
10 0 10 120 0 120 0 0 30 0 30 -160 0 -160 0 0 -15z"/>
<path d="M1040 975 l0 -15 15 0 15 0 0 -11 0 -10 14 -15 15 -14 10 0 11 0 0
-15 0 -15 -135 0 -135 0 0 -25 0 -25 15 0 15 0 0 10 0 10 135 0 135 0 0 30 0
30 -15 0 -15 0 0 10 0 10 -15 0 -15 0 0 15 0 15 -10 0 -10 0 0 15 0 15 -15 0
-15 0 0 -15z"/>
<path d="M160 640 l0 -270 11 0 10 0 15 -14 14 -15 0 -10 0 -11 15 0 15 0 0
-15 0 -15 11 0 10 0 15 -14 14 -15 0 -10 0 -11 15 0 15 0 0 135 0 135 25 0 25
0 0 -15 0 -15 15 0 15 0 0 -15 0 -15 11 0 10 0 15 -14 14 -15 0 -10 0 -11 15
0 15 0 0 -15 0 -15 25 0 25 0 0 95 0 95 -10 0 -10 0 0 15 0 15 -15 0 -15 0 0
10 0 10 -15 0 -15 0 0 15 0 15 -10 0 -10 0 0 15 0 15 -15 0 -15 0 0 10 0 10
-15 0 -15 0 0 15 0 15 -10 0 -10 0 0 15 0 15 -15 0 -15 0 0 10 0 10 -15 0 -15
0 0 15 0 15 -10 0 -10 0 0 15 0 15 -15 0 -15 0 0 10 0 10 -15 0 -15 0 0 15 0
15 -10 0 -10 0 0 15 0 15 -15 0 -15 0 0 -270z"/>
<path d="M880 815 l0 -15 15 0 15 0 0 -11 0 -10 14 -15 15 -14 10 0 11 0 0
-15 0 -15 15 0 15 0 0 -15 0 -15 10 0 10 0 0 -10 0 -10 -145 0 -145 0 0 -30 0
-30 -11 0 -10 0 -15 -14 -14 -15 0 -10 0 -11 -15 0 -15 0 0 -15 0 -15 -11 0
-10 0 -15 -14 -14 -15 0 -130 0 -131 -15 0 -15 0 0 15 0 15 -11 0 -10 0 -15
14 -14 15 0 10 0 11 -15 0 -15 0 0 15 0 15 -11 0 -10 0 -15 14 -14 15 0 10 0
11 -30 0 -30 0 0 -145 0 -145 -10 0 -10 0 0 10 0 10 -15 0 -15 0 0 15 0 15
-15 0 -15 0 0 11 0 10 -14 15 -15 14 -10 0 -11 0 0 15 0 15 -15 0 -15 0 0 11
0 10 -14 15 -15 14 -10 0 -11 0 0 -145 0 -145 25 0 25 0 0 105 0 105 15 0 15
0 0 -10 0 -10 15 0 15 0 0 -15 0 -15 10 0 10 0 0 -15 0 -15 15 0 15 0 0 -10 0
-10 15 0 15 0 0 -15 0 -15 25 0 25 0 0 145 0 145 11 0 10 0 15 -14 14 -15 0
-10 0 -11 15 0 15 0 0 -15 0 -15 11 0 10 0 15 -14 14 -15 0 -10 0 -11 15 0 15
0 0 -15 0 -15 25 0 25 0 0 150 0 150 15 0 15 0 0 10 0 10 15 0 15 0 0 15 0 15
10 0 10 0 0 15 0 15 15 0 15 0 0 10 0 10 15 0 15 0 0 15 0 15 145 0 145 0 0
25 0 25 -15 0 -15 0 0 15 0 15 -10 0 -10 0 0 15 0 15 -15 0 -15 0 0 10 0 10
-15 0 -15 0 0 15 0 15 -10 0 -10 0 0 15 0 15 -15 0 -15 0 0 -15z"/>
</g>
</svg>
