<?xml version="1.0" standalone="no"?>
<!DOCTYPE svg PUBLIC "-//W3C//DTD SVG 20010904//EN"
 "http://www.w3.org/TR/2001/REC-SVG-20010904/DTD/svg10.dtd">
<svg version="1.0" xmlns="http://www.w3.org/2000/svg"
 width="468pt" height="468pt" viewBox="0 0 468 468"
 preserveAspectRatio="xMidYMid meet">
<metadata>
Created by potrace 1.8, written by Peter Selinger 2001-2007
</metadata>
<g transform="translate(0,468) scale(0.365625,-0.365625)"
fill="#000000" stroke="none">
<path d="M430 640 l0 -640 50 0 50 0 0 25 0 25 30 0 30 0 0 55 0 55 25 0 25 0
0 55 0 55 25 0 25 0 0 -135 0 -135 55 0 55 0 0 215 0 215 25 0 25 0 0 25 0 25
-25 0 -25 0 0 265 0 265 25 0 25 0 0 30 0 30 -25 0 -25 0 0 105 0 105 -80 0
-80 0 0 -55 0 -55 -25 0 -25 0 0 -50 0 -50 -30 0 -30 0 0 -55 0 -55 -25 0 -25
0 0 135 0 135 25 0 25 0 0 25 0 25 -50 0 -50 0 0 -640z m260 425 l0 -105 -25
0 -25 0 0 -55 0 -55 25 0 25 0 0 -105 0 -105 -25 0 -25 0 0 -55 0 -55 25 0 25
0 0 -80 0 -80 -25 0 -25 0 0 -50 0 -50 -25 0 -25 0 0 -55 0 -55 -30 0 -30 0 0
-55 0 -55 -25 0 -25 0 0 80 0 80 25 0 25 0 0 55 0 55 -25 0 -25 0 0 105 0 105
25 0 25 0 0 55 0 55 -25 0 -25 0 0 105 0 105 25 0 25 0 0 55 0 55 30 0 30 0 0
55 0 55 25 0 25 0 0 50 0 50 25 0 25 0 0 -105z"/>
<path d="M590 800 l0 -50 -30 0 -30 0 0 -55 0 -55 30 0 30 0 0 55 0 55 25 0
25 0 0 50 0 50 -25 0 -25 0 0 -50z"/>
<path d="M590 480 l0 -50 -30 0 -30 0 0 -55 0 -55 30 0 30 0 0 55 0 55 25 0
25 0 0 50 0 50 -25 0 -25 0 0 -50z"/>
<path d="M910 1120 l0 -160 185 0 185 0 0 25 0 25 -160 0 -160 0 0 135 0 135
-25 0 -25 0 0 -160z"/>
<path d="M1070 880 l0 -30 -80 0 -80 0 0 -80 0 -80 -30 0 -30 0 0 -25 0 -25
30 0 30 0 0 -215 0 -215 -30 0 -30 0 0 -25 0 -25 30 0 30 0 0 -80 0 -80 25 0
25 0 0 135 0 135 160 0 160 0 0 80 0 80 -25 0 -25 0 0 -55 0 -55 -55 0 -55 0
0 55 0 55 25 0 25 0 0 50 0 50 30 0 30 0 0 55 0 55 25 0 25 0 0 105 0 105 -80
0 -80 0 0 30 0 30 -25 0 -25 0 0 -30z m160 -185 l0 -55 -30 0 -30 0 0 -55 0
-55 -25 0 -25 0 0 -50 0 -50 -25 0 -25 0 0 -55 0 -55 -55 0 -55 0 0 160 0 160
25 0 25 0 0 55 0 55 110 0 110 0 0 -55z"/>
<path d="M1120 665 l0 -25 25 0 25 0 0 25 0 25 -25 0 -25 0 0 -25z"/>
</g>
</svg>
