<?xml version="1.0" standalone="no"?>
<!DOCTYPE svg PUBLIC "-//W3C//DTD SVG 20010904//EN"
 "http://www.w3.org/TR/2001/REC-SVG-20010904/DTD/svg10.dtd">
<svg version="1.0" xmlns="http://www.w3.org/2000/svg"
 width="468pt" height="468pt" viewBox="0 0 468 468"
 preserveAspectRatio="xMidYMid meet">
<metadata>
Created by potrace 1.8, written by Peter Selinger 2001-2007
</metadata>
<g transform="translate(0,468) scale(0.365625,-0.365625)"
fill="#000000" stroke="none">
<path d="M20 740 l0 -520 620 0 620 0 0 520 0 520 -620 0 -620 0 0 -520z
m1200 0 l0 -480 -580 0 -580 0 0 480 0 480 580 0 580 0 0 -480z"/>
<path d="M660 1150 l0 -10 -15 0 -16 0 -24 -25 -25 -24 0 -45 0 -44 -12 -5
-13 -4 9 -9 9 -9 4 13 5 12 44 0 45 0 44 45 45 44 0 21 0 21 -14 15 -15 14
-35 0 -36 0 0 -10z m80 -40 l0 -30 -30 0 -30 0 0 30 0 30 30 0 30 0 0 -30z
m-74 -25 l35 -35 -15 -15 -15 -15 -21 0 -21 0 -15 14 -14 15 0 21 0 21 13 14
12 14 3 1 3 0 35 -35z"/>
<path d="M620 1090 l0 -10 10 0 10 0 0 10 0 10 -10 0 -10 0 0 -10z"/>
<path d="M640 1050 l0 -10 20 0 20 0 0 10 0 10 -20 0 -20 0 0 -10z"/>
<path d="M130 1083 l-34 -37 12 -4 12 -4 0 -25 0 -24 14 -15 15 -14 14 0 15 0
4 -12 5 -13 16 17 17 17 0 24 0 25 -12 6 -13 6 13 6 12 6 0 14 0 15 -25 24
-24 25 -3 -1 -3 0 -35 -36z m56 3 l14 -15 0 -14 0 -15 -12 -6 -13 -6 13 -6 12
-6 0 -29 0 -29 -10 0 -10 0 0 10 0 10 -20 0 -20 0 0 29 0 29 -12 4 -12 4 24
27 25 26 3 0 3 1 15 -14z"/>
<path d="M320 1080 l0 -20 -26 0 -25 0 -15 -14 -14 -15 0 -15 0 -16 20 0 20 0
0 -340 0 -340 70 0 70 0 0 20 0 20 10 0 10 0 0 30 0 30 10 0 10 0 0 -30 0 -30
-10 0 -10 0 0 -20 0 -20 300 0 300 0 0 78 0 78 -20 14 -20 14 0 16 0 16 20 14
20 14 0 268 0 268 -130 0 -130 0 0 -10 0 -10 120 0 120 0 0 -258 0 -258 -20
-14 -20 -14 0 -16 0 -16 20 -14 20 -14 0 -68 0 -68 -280 0 -280 0 0 10 0 10
10 0 10 0 0 80 0 80 -10 0 -10 0 0 -30 0 -30 -10 0 -10 0 0 -20 0 -20 -10 0
-10 0 0 -26 0 -25 -14 -15 -15 -14 -45 0 -46 0 0 330 0 330 30 0 30 0 0 20 0
20 -10 0 -10 0 0 20 0 20 110 0 110 0 0 10 0 10 -120 0 -120 0 0 -20z m20 -50
l0 -10 -40 0 -40 0 0 10 0 10 40 0 40 0 0 -10z"/>
<path d="M320 790 l0 -150 86 0 85 0 15 14 14 15 0 54 0 55 -12 6 -13 6 13 6
12 6 0 55 0 54 -14 15 -15 14 -85 0 -86 0 0 -150z m140 60 l0 -30 -40 0 -40 0
0 30 0 30 40 0 40 0 0 -30z m0 -120 l0 -30 -40 0 -40 0 0 30 0 30 40 0 40 0 0
-30z"/>
<path d="M560 790 l0 -150 86 0 85 0 15 14 14 15 0 54 0 55 -12 6 -13 6 13 6
12 6 0 55 0 54 -14 15 -15 14 -85 0 -86 0 0 -150z m140 60 l0 -30 -40 0 -40 0
0 30 0 30 40 0 40 0 0 -30z m0 -120 l0 -30 -40 0 -40 0 0 30 0 30 40 0 40 0 0
-30z"/>
<path d="M813 925 l-13 -14 0 -61 0 -61 14 -15 15 -14 55 0 56 0 0 -30 0 -30
-70 0 -70 0 0 -30 0 -30 86 0 85 0 15 14 14 15 0 61 0 61 -14 15 -15 14 -55 0
-56 0 0 30 0 30 70 0 70 0 0 30 0 30 -87 0 -88 -1 -12 -14z"/>
<path d="M360 570 l0 -10 50 0 50 0 0 10 0 10 -50 0 -50 0 0 -10z"/>
<path d="M480 570 l0 -10 40 0 40 0 0 10 0 10 -40 0 -40 0 0 -10z"/>
<path d="M600 570 l0 -10 20 0 20 0 0 10 0 10 -20 0 -20 0 0 -10z"/>
<path d="M680 570 l0 -10 30 0 30 0 0 10 0 10 -30 0 -30 0 0 -10z"/>
<path d="M760 570 l0 -10 10 0 10 0 0 10 0 10 -10 0 -10 0 0 -10z"/>
<path d="M820 570 l0 -10 70 0 70 0 0 10 0 10 -70 0 -70 0 0 -10z"/>
<path d="M360 510 l0 -10 30 0 30 0 0 10 0 10 -30 0 -30 0 0 -10z"/>
<path d="M520 510 l0 -10 10 0 10 0 0 10 0 10 -10 0 -10 0 0 -10z"/>
<path d="M580 510 l0 -10 40 0 40 0 0 10 0 10 -40 0 -40 0 0 -10z"/>
<path d="M700 510 l0 -10 80 0 80 0 0 10 0 10 -80 0 -80 0 0 -10z"/>
<path d="M880 510 l0 -10 40 0 40 0 0 10 0 10 -40 0 -40 0 0 -10z"/>
<path d="M360 450 l0 -10 20 0 20 0 0 10 0 10 -20 0 -20 0 0 -10z"/>
<path d="M500 450 l0 -10 20 0 20 0 0 10 0 10 -20 0 -20 0 0 -10z"/>
<path d="M560 450 l0 -10 20 0 20 0 0 10 0 10 -20 0 -20 0 0 -10z"/>
<path d="M660 450 l0 -10 10 0 10 0 0 10 0 10 -10 0 -10 0 0 -10z"/>
<path d="M740 450 l0 -10 50 0 50 0 0 10 0 10 -50 0 -50 0 0 -10z"/>
<path d="M860 450 l0 -10 20 0 20 0 0 10 0 10 -20 0 -20 0 0 -10z"/>
<path d="M960 450 l0 -10 10 0 10 0 0 10 0 10 -10 0 -10 0 0 -10z"/>
<path d="M0 100 l0 -100 640 0 640 0 0 100 0 100 -640 0 -640 0 0 -100z"/>
</g>
</svg>
