<?xml version="1.0" standalone="no"?>
<!DOCTYPE svg PUBLIC "-//W3C//DTD SVG 20010904//EN"
 "http://www.w3.org/TR/2001/REC-SVG-20010904/DTD/svg10.dtd">
<svg version="1.0" xmlns="http://www.w3.org/2000/svg"
 width="468pt" height="468pt" viewBox="0 0 468 468"
 preserveAspectRatio="xMidYMid meet">
<metadata>
Created by potrace 1.8, written by Peter Selinger 2001-2007
</metadata>
<g transform="translate(0,468) scale(0.365625,-0.365625)"
fill="#000000" stroke="none">
<path d="M712 1204 l-13 -14 15 -16 16 -15 16 15 15 16 -15 15 -15 15 -3 0 -3
-1 -13 -15z m28 -14 l0 -10 -10 0 -10 0 0 10 0 10 10 0 10 0 0 -10z"/>
<path d="M791 1204 l-13 -15 7 -7 6 -6 10 14 9 15 9 -14 9 -14 17 17 17 17 -6
7 -7 6 -10 -14 -11 -15 -5 13 -5 12 -6 0 -7 -1 -14 -15z"/>
<path d="M880 1214 l0 -5 16 -16 16 -16 9 14 9 14 9 -15 10 -14 7 6 6 7 -17
17 -17 17 -10 -14 -10 -14 -5 13 -5 12 -9 0 -9 0 0 -6z"/>
<path d="M640 1195 l0 -6 26 -26 25 -25 6 5 5 6 -25 25 -26 26 -6 0 -5 0 0 -5z"/>
<path d="M980 1194 l0 -5 15 -16 16 -15 6 5 5 6 -15 16 -16 15 -5 0 -6 0 0 -6z"/>
<path d="M590 1163 l-14 -17 12 -4 12 -4 0 -14 0 -15 -26 -26 -26 -26 -8 14
-9 13 -8 -8 -8 -9 13 -4 12 -5 0 -19 0 -19 -20 0 -20 0 0 -10 0 -10 16 0 15 0
15 14 14 15 0 11 0 12 30 28 30 28 0 16 0 16 9 0 9 0 5 -12 4 -13 8 7 7 7 -25
25 -26 26 -3 0 -3 -1 -15 -16z m30 -13 l0 -10 -10 0 -10 0 0 10 0 10 10 0 10
0 0 -10z"/>
<path d="M481 1134 l-23 -25 6 -6 6 -6 20 24 21 23 9 -13 8 -14 17 17 17 17
-6 7 -7 6 -10 -14 -11 -15 -5 13 -5 12 -6 -1 -7 0 -24 -25z"/>
<path d="M1040 1150 l0 -10 10 0 10 0 0 10 0 10 -10 0 -10 0 0 -10z"/>
<path d="M410 1100 l-14 -20 -18 0 -18 0 0 -10 0 -10 15 0 16 0 24 25 25 24 0
6 0 5 -8 0 -8 0 -14 -20z"/>
<path d="M292 1024 l-34 -35 5 -6 6 -5 35 36 36 35 0 6 0 5 -7 -1 -8 0 -33
-35z"/>
<path d="M460 1010 l0 -10 10 0 10 0 0 10 0 10 -10 0 -10 0 0 -10z"/>
<path d="M440 970 l0 -10 10 0 10 0 0 10 0 10 -10 0 -10 0 0 -10z"/>
<path d="M520 960 l0 -20 10 0 10 0 0 20 0 20 -10 0 -10 0 0 -20z"/>
<path d="M211 944 l-13 -15 6 -6 5 -5 16 15 15 16 0 5 0 6 -7 0 -8 -1 -14 -15z"/>
<path d="M460 930 l0 -10 10 0 10 0 0 10 0 10 -10 0 -10 0 0 -10z"/>
<path d="M400 910 l0 -10 10 0 10 0 0 10 0 10 -10 0 -10 0 0 -10z"/>
<path d="M520 904 l0 -15 -16 -16 -16 -16 -10 14 -10 14 -5 -12 -5 -13 -25 0
-26 0 -19 -22 -19 -22 -9 14 -9 14 -8 -8 -8 -9 13 -4 12 -5 0 -29 0 -29 20 0
20 0 0 9 0 9 -12 5 -13 4 9 9 9 9 4 -12 5 -13 18 0 18 0 5 13 4 12 22 -25 22
-24 9 14 9 14 7 -6 6 -7 -17 -17 -17 -17 -8 14 -9 13 -8 -8 -8 -9 13 -4 12 -5
0 -9 0 -9 -20 0 -20 0 0 19 0 19 13 5 12 4 -7 8 -7 7 -16 -15 -15 -16 0 -14 0
-15 13 -5 12 -5 -15 -11 -15 -11 15 -11 15 -11 -12 -5 -13 -5 0 -28 0 -28 -12
-4 -12 -4 26 -27 27 -27 6 0 5 0 0 20 0 20 -20 0 -20 0 0 10 0 10 10 0 10 0 0
30 0 30 9 0 9 0 5 -12 5 -13 12 15 12 15 5 -12 5 -13 15 0 14 0 15 -15 15 -15
-16 -17 -17 -16 -8 14 -9 13 -8 -8 -8 -9 13 -4 12 -5 0 -9 0 -9 -20 0 -20 0 0
-10 0 -10 19 0 19 0 6 13 6 12 6 -12 6 -13 19 0 19 0 0 19 0 19 -12 5 -13 5
15 11 15 11 -15 11 -15 11 13 5 12 5 0 19 0 19 9 0 9 0 4 -12 4 -12 27 26 27
27 0 11 0 11 -36 35 -35 36 -6 -6 -6 -5 32 -30 31 -29 0 -16 0 -16 -9 0 -9 0
-6 13 -6 12 -6 -12 -6 -13 -29 0 -29 0 0 10 0 10 -10 0 -10 0 0 -20 0 -20 -20
0 -20 0 0 10 0 10 10 0 10 0 0 16 0 15 16 16 16 16 8 -14 9 -13 7 6 6 7 -25
25 -26 26 -16 0 -15 0 0 10 0 10 20 0 20 0 0 30 0 30 10 0 10 0 0 20 0 20 -10
0 -10 0 0 -16z m-100 -74 l0 -10 -10 0 -10 0 0 10 0 10 10 0 10 0 0 -10z m40
-140 l0 -10 -10 0 -10 0 0 10 0 10 10 0 10 0 0 -10z m160 0 l0 -10 -10 0 -10
0 0 10 0 10 10 0 10 0 0 -10z m-60 -120 l0 -10 -10 0 -10 0 0 10 0 10 10 0 10
0 0 -10z"/>
<path d="M171 884 l-13 -15 6 -6 5 -5 16 15 15 16 0 5 0 6 -7 0 -8 -1 -14 -15z"/>
<path d="M153 825 l-13 -14 0 -16 0 -15 -10 0 -10 0 0 -60 0 -60 10 0 10 0 0
-20 0 -20 10 0 10 0 0 -16 0 -15 15 -16 16 -15 7 7 7 8 -12 4 -13 5 0 19 0 19
-10 0 -10 0 0 19 0 19 13 5 12 4 -9 9 -9 9 -4 -12 -5 -13 -9 0 -9 0 0 60 0 60
10 0 10 0 0 20 0 20 10 0 10 0 0 10 0 10 -7 0 -8 -1 -12 -14z"/>
<path d="M300 830 l0 -10 10 0 10 0 0 10 0 10 -10 0 -10 0 0 -10z"/>
<path d="M540 810 l0 -10 10 0 10 0 0 10 0 10 -10 0 -10 0 0 -10z"/>
<path d="M280 770 l0 -10 20 0 20 0 0 10 0 10 -20 0 -20 0 0 -10z"/>
<path d="M160 750 l0 -10 10 0 10 0 0 10 0 10 -10 0 -10 0 0 -10z"/>
<path d="M260 690 l0 -10 10 0 10 0 0 10 0 10 -10 0 -10 0 0 -10z"/>
<path d="M200 535 l0 -6 26 -26 25 -25 6 5 5 6 -25 25 -26 26 -6 0 -5 0 0 -5z"/>
<path d="M520 511 l0 -9 13 -5 12 -5 -15 -12 -15 -12 13 -5 12 -5 0 -19 0 -19
10 0 10 0 0 20 0 20 -10 0 -10 0 0 10 0 10 16 0 15 0 15 14 14 15 0 5 0 6 -19
0 -19 0 -6 -12 -6 -13 -6 13 -6 12 -9 0 -9 0 0 -9z"/>
<path d="M271 464 l-13 -15 6 -6 5 -5 16 15 15 16 0 5 0 6 -7 0 -8 -1 -14 -15z"/>
<path d="M380 450 l0 -10 10 0 10 0 0 10 0 10 -10 0 -10 0 0 -10z"/>
<path d="M300 435 l0 -6 26 -26 25 -25 7 6 6 7 -14 10 -15 9 15 9 14 10 -7 8
-8 7 -10 -14 -11 -15 -5 13 -5 12 -9 0 -9 0 0 -5z"/>
<path d="M391 384 l-13 -15 6 -6 5 -5 16 15 15 16 0 5 0 6 -7 0 -8 -1 -14 -15z"/>
<path d="M540 395 l0 -6 25 -24 24 -25 15 0 14 0 5 -12 4 -13 8 7 7 7 -15 16
-16 15 -15 0 -16 0 0 20 0 20 -20 0 -20 0 0 -5z"/>
<path d="M431 364 l-13 -15 6 -6 5 -5 16 15 15 16 0 5 0 6 -7 0 -8 -1 -14 -15z"/>
<path d="M460 330 l0 -10 19 0 19 0 5 -12 5 -13 11 15 10 14 19 -22 19 -22 17
0 16 0 0 10 0 10 -16 0 -17 0 -19 22 -19 22 -10 -14 -11 -15 -5 13 -5 12 -19
0 -19 0 0 -10z"/>
<path d="M1120 330 l0 -10 10 0 10 0 0 10 0 10 -10 0 -10 0 0 -10z"/>
<path d="M641 294 l-23 -25 5 -6 6 -5 25 25 26 26 0 6 0 5 -7 -1 -8 0 -24 -25z"/>
<path d="M1071 304 l-13 -15 6 -6 5 -5 16 15 15 16 0 5 0 6 -7 0 -8 -1 -14
-15z"/>
<path d="M691 284 l-13 -15 7 -7 6 -6 9 14 9 14 21 -24 21 -24 10 14 9 15 10
-15 10 -15 10 15 10 15 9 -15 10 -14 7 6 6 7 -17 17 -17 17 -8 -14 -9 -13 -21
24 -21 24 -10 -14 -11 -15 -5 13 -5 12 -6 0 -7 -1 -14 -15z m69 -14 l0 -10
-10 0 -10 0 0 10 0 10 10 0 10 0 0 -10z"/>
<path d="M1011 284 l-13 -15 6 -6 5 -5 16 15 15 16 0 5 0 6 -7 0 -8 -1 -14
-15z"/>
<path d="M860 274 l0 -5 15 -15 15 -15 16 16 16 16 -6 7 -7 6 -10 -14 -11 -15
-5 13 -5 12 -9 0 -9 0 0 -6z"/>
<path d="M940 270 l0 -10 10 0 10 0 0 10 0 10 -10 0 -10 0 0 -10z"/>
<path d="M0 100 l0 -100 640 0 640 0 0 100 0 100 -640 0 -640 0 0 -100z"/>
</g>
</svg>
