<?xml version="1.0" standalone="no"?>
<!DOCTYPE svg PUBLIC "-//W3C//DTD SVG 20010904//EN"
 "http://www.w3.org/TR/2001/REC-SVG-20010904/DTD/svg10.dtd">
<svg version="1.0" xmlns="http://www.w3.org/2000/svg"
 width="468pt" height="468pt" viewBox="0 0 468 468"
 preserveAspectRatio="xMidYMid meet">
<metadata>
Created by potrace 1.8, written by Peter Selinger 2001-2007
</metadata>
<g transform="translate(0,468) scale(0.365625,-0.365625)"
fill="#000000" stroke="none">
<path d="M0 1120 l0 -160 80 0 80 0 0 -20 0 -20 20 0 20 0 0 20 0 20 20 0 20
0 0 -20 0 -20 20 0 20 0 0 -20 0 -20 40 0 40 0 0 -20 0 -20 40 0 40 0 0 -20 0
-20 40 0 40 0 0 -20 0 -20 20 0 20 0 0 -20 0 -20 -40 0 -40 0 0 20 0 20 -40 0
-40 0 0 20 0 20 -20 0 -20 0 0 -20 0 -20 -20 0 -20 0 0 20 0 20 -20 0 -20 0 0
-20 0 -20 -40 0 -40 0 0 20 0 20 20 0 20 0 0 20 0 20 -20 0 -20 0 0 -20 0 -20
-20 0 -20 0 0 20 0 20 -20 0 -20 0 0 -20 0 -20 -20 0 -20 0 0 20 0 20 -20 0
-20 0 0 20 0 20 -20 0 -20 0 0 -20 0 -20 20 0 20 0 0 -20 0 -20 -20 0 -20 0 0
-240 0 -240 80 0 80 0 0 -20 0 -20 20 0 20 0 0 20 0 20 20 0 20 0 0 -20 0 -20
20 0 20 0 0 -20 0 -20 40 0 40 0 0 -20 0 -20 40 0 40 0 0 -20 0 -20 40 0 40 0
0 -20 0 -20 20 0 20 0 0 -20 0 -20 -40 0 -40 0 0 20 0 20 -40 0 -40 0 0 20 0
20 -20 0 -20 0 0 -20 0 -20 -20 0 -20 0 0 20 0 20 -20 0 -20 0 0 -20 0 -20
-40 0 -40 0 0 20 0 20 20 0 20 0 0 20 0 20 -20 0 -20 0 0 -20 0 -20 -20 0 -20
0 0 20 0 20 -20 0 -20 0 0 -20 0 -20 -20 0 -20 0 0 20 0 20 -20 0 -20 0 0 20
0 20 -20 0 -20 0 0 -20 0 -20 20 0 20 0 0 -20 0 -20 -20 0 -20 0 0 -80 0 -80
640 0 640 0 0 100 0 100 -20 0 -20 0 0 -20 0 -20 -20 0 -20 0 0 20 0 20 -20 0
-20 0 0 -20 0 -20 -20 0 -20 0 0 20 0 20 -20 0 -20 0 0 -20 0 -20 20 0 20 0 0
-20 0 -20 -40 0 -40 0 0 20 0 20 -20 0 -20 0 0 -20 0 -20 -20 0 -20 0 0 20 0
20 -20 0 -20 0 0 -20 0 -20 -40 0 -40 0 0 -20 0 -20 -40 0 -40 0 0 20 0 20 20
0 20 0 0 20 0 20 40 0 40 0 0 20 0 20 40 0 40 0 0 20 0 20 40 0 40 0 0 20 0
20 20 0 20 0 0 20 0 20 20 0 20 0 0 -20 0 -20 20 0 20 0 0 20 0 20 60 0 60 0
0 20 0 20 -20 0 -20 0 0 20 0 20 20 0 20 0 0 220 0 220 -20 0 -20 0 0 -20 0
-20 -20 0 -20 0 0 20 0 20 -20 0 -20 0 0 -20 0 -20 -20 0 -20 0 0 20 0 20 -20
0 -20 0 0 -20 0 -20 20 0 20 0 0 -20 0 -20 -40 0 -40 0 0 20 0 20 -20 0 -20 0
0 -20 0 -20 -20 0 -20 0 0 20 0 20 -20 0 -20 0 0 -20 0 -20 -40 0 -40 0 0 -20
0 -20 -40 0 -40 0 0 20 0 20 20 0 20 0 0 20 0 20 40 0 40 0 0 20 0 20 40 0 40
0 0 20 0 20 40 0 40 0 0 20 0 20 20 0 20 0 0 20 0 20 20 0 20 0 0 -20 0 -20
20 0 20 0 0 20 0 20 60 0 60 0 0 20 0 20 -20 0 -20 0 0 20 0 20 20 0 20 0 0
120 0 120 -200 0 -200 0 0 -20 0 -20 20 0 20 0 0 -20 0 -20 40 0 40 0 0 -20 0
-20 40 0 40 0 0 -20 0 -20 40 0 40 0 0 -20 0 -20 20 0 20 0 0 -20 0 -20 -40 0
-40 0 0 20 0 20 -40 0 -40 0 0 20 0 20 -20 0 -20 0 0 -20 0 -20 -20 0 -20 0 0
20 0 20 -20 0 -20 0 0 -20 0 -20 -40 0 -40 0 0 20 0 20 20 0 20 0 0 20 0 20
-20 0 -20 0 0 -20 0 -20 -20 0 -20 0 0 20 0 20 -20 0 -20 0 0 -20 0 -20 -20 0
-20 0 0 20 0 20 -20 0 -20 0 0 20 0 20 -20 0 -20 0 0 -20 0 -20 -20 0 -20 0 0
-20 0 -20 -20 0 -20 0 0 20 0 20 -20 0 -20 0 0 -20 0 -20 -20 0 -20 0 0 20 0
20 -20 0 -20 0 0 -20 0 -20 20 0 20 0 0 -20 0 -20 -40 0 -40 0 0 20 0 20 -20
0 -20 0 0 -20 0 -20 -20 0 -20 0 0 20 0 20 -20 0 -20 0 0 -20 0 -20 -40 0 -40
0 0 -20 0 -20 -40 0 -40 0 0 20 0 20 20 0 20 0 0 20 0 20 40 0 40 0 0 20 0 20
40 0 40 0 0 20 0 20 40 0 40 0 0 20 0 20 20 0 20 0 0 20 0 20 -220 0 -220 0 0
-160z m680 20 l0 -20 -20 0 -20 0 0 20 0 20 20 0 20 0 0 -20z m-360 -80 l0
-20 -20 0 -20 0 0 20 0 20 20 0 20 0 0 -20z m720 0 l0 -20 -20 0 -20 0 0 20 0
20 20 0 20 0 0 -20z m-960 -40 l0 -20 -20 0 -20 0 0 20 0 20 20 0 20 0 0 -20z
m320 -280 l0 -20 -20 0 -20 0 0 20 0 20 20 0 20 0 0 -20z m560 0 l0 -20 -20 0
-20 0 0 20 0 20 20 0 20 0 0 -20z m-320 -40 l0 -20 -20 0 -20 0 0 20 0 20 20
0 20 0 0 -20z m80 0 l0 -20 -20 0 -20 0 0 20 0 20 20 0 20 0 0 -20z m-240 -80
l0 -20 20 0 20 0 0 20 0 20 140 0 140 0 0 -20 0 -20 20 0 20 0 0 20 0 20 20 0
20 0 0 -20 0 -20 20 0 20 0 0 -20 0 -20 40 0 40 0 0 -20 0 -20 40 0 40 0 0
-20 0 -20 40 0 40 0 0 -20 0 -20 20 0 20 0 0 -20 0 -20 -40 0 -40 0 0 20 0 20
-40 0 -40 0 0 -20 0 -20 -20 0 -20 0 0 20 0 20 -20 0 -20 0 0 20 0 20 -20 0
-20 0 0 -20 0 -20 -40 0 -40 0 0 20 0 20 -20 0 -20 0 0 20 0 20 -20 0 -20 0 0
-20 0 -20 -20 0 -20 0 0 20 0 20 -20 0 -20 0 0 -20 0 -20 -20 0 -20 0 0 20 0
20 -20 0 -20 0 0 -20 0 -20 -20 0 -20 0 0 20 0 20 -20 0 -20 0 0 -20 0 -20
-20 0 -20 0 0 -20 0 -20 -40 0 -40 0 0 20 0 20 -20 0 -20 0 0 -20 0 -20 -20 0
-20 0 0 -20 0 -20 -20 0 -20 0 0 20 0 20 -40 0 -40 0 0 -20 0 -20 -40 0 -40 0
0 20 0 20 20 0 20 0 0 20 0 20 40 0 40 0 0 20 0 20 40 0 40 0 0 20 0 20 40 0
40 0 0 20 0 20 20 0 20 0 0 20 0 20 20 0 20 0 0 -20z m-400 -240 l0 -20 -20 0
-20 0 0 20 0 20 20 0 20 0 0 -20z m320 -280 l0 -20 -20 0 -20 0 0 20 0 20 20
0 20 0 0 -20z m560 0 l0 -20 -20 0 -20 0 0 20 0 20 20 0 20 0 0 -20z m-320
-40 l0 -20 -20 0 -20 0 0 20 0 20 20 0 20 0 0 -20z m80 0 l0 -20 -20 0 -20 0
0 20 0 20 20 0 20 0 0 -20z"/>
<path d="M640 540 l0 -20 20 0 20 0 0 20 0 20 -20 0 -20 0 0 -20z"/>
<path d="M440 500 l0 -20 20 0 20 0 0 20 0 20 -20 0 -20 0 0 -20z"/>
<path d="M840 500 l0 -20 20 0 20 0 0 20 0 20 -20 0 -20 0 0 -20z"/>
<path d="M280 460 l0 -20 20 0 20 0 0 20 0 20 -20 0 -20 0 0 -20z"/>
<path d="M1000 460 l0 -20 20 0 20 0 0 20 0 20 -20 0 -20 0 0 -20z"/>
<path d="M480 1260 l0 -20 20 0 20 0 0 20 0 20 -20 0 -20 0 0 -20z"/>
<path d="M800 1260 l0 -20 20 0 20 0 0 20 0 20 -20 0 -20 0 0 -20z"/>
</g>
</svg>
