<?xml version="1.0" standalone="no"?>
<!DOCTYPE svg PUBLIC "-//W3C//DTD SVG 20010904//EN"
 "http://www.w3.org/TR/2001/REC-SVG-20010904/DTD/svg10.dtd">
<svg version="1.0" xmlns="http://www.w3.org/2000/svg"
 width="468pt" height="468pt" viewBox="0 0 468 468"
 preserveAspectRatio="xMidYMid meet">
<metadata>
Created by potrace 1.8, written by Peter Selinger 2001-2007
</metadata>
<g transform="translate(0,468) scale(0.365625,-0.365625)"
fill="#000000" stroke="none">
<path d="M660 1255 l0 -25 -20 0 -20 0 0 -20 0 -20 -25 0 -25 0 0 -25 0 -25
25 0 25 0 0 -25 0 -25 20 0 20 0 0 -25 0 -25 25 0 25 0 0 -45 0 -45 -25 0 -25
0 0 -165 0 -165 -20 0 -20 0 0 -50 0 -50 -25 0 -25 0 0 -25 0 -25 -25 0 -25 0
0 -20 0 -20 -25 0 -25 0 0 -25 0 -25 -20 0 -20 0 0 -25 0 -25 -25 0 -25 0 0
-25 0 -25 -25 0 -25 0 0 -20 0 -20 -25 0 -25 0 0 -25 0 -25 -20 0 -20 0 0 -25
0 -25 -25 0 -25 0 0 -25 0 -25 -25 0 -25 0 0 -20 0 -20 -25 0 -25 0 0 -25 0
-25 95 0 95 0 0 25 0 25 50 0 50 0 0 20 0 20 25 0 25 0 0 25 0 25 45 0 45 0 0
25 0 25 25 0 25 0 0 25 0 25 25 0 25 0 0 45 0 45 20 0 20 0 0 25 0 25 50 0 50
0 0 25 0 25 25 0 25 0 0 45 0 45 20 0 20 0 0 -95 0 -95 -20 0 -20 0 0 -25 0
-25 -25 0 -25 0 0 -20 0 -20 -25 0 -25 0 0 -50 0 -50 -25 0 -25 0 0 -25 0 -25
-20 0 -20 0 0 -20 0 -20 -50 0 -50 0 0 -25 0 -25 70 0 70 0 0 25 0 25 25 0 25
0 0 -25 0 -25 50 0 50 0 0 25 0 25 20 0 20 0 0 -25 0 -25 50 0 50 0 0 70 0 70
25 0 25 0 0 50 0 50 20 0 20 0 0 260 0 260 -20 0 -20 0 0 45 0 45 -25 0 -25 0
0 25 0 25 70 0 70 0 0 -25 0 -25 25 0 25 0 0 -20 0 -20 25 0 25 0 0 -50 0 -50
20 0 20 0 0 -235 0 -235 -20 0 -20 0 0 -50 0 -50 -25 0 -25 0 0 -45 0 -45 -25
0 -25 0 0 -25 0 -25 50 0 50 0 0 45 0 45 20 0 20 0 0 50 0 50 25 0 25 0 0 285
0 285 -25 0 -25 0 0 45 0 45 -20 0 -20 0 0 25 0 25 -25 0 -25 0 0 25 0 25 -25
0 -25 0 0 25 0 25 -45 0 -45 0 0 20 0 20 -25 0 -25 0 0 25 0 25 -50 0 -50 0 0
25 0 25 -20 0 -20 0 0 25 0 25 -25 0 -25 0 0 20 0 20 -25 0 -25 0 0 25 0 25
-25 0 -25 0 0 -25z m290 -330 l0 -25 -25 0 -25 0 0 25 0 25 25 0 25 0 0 -25z
m-100 -50 l0 -25 25 0 25 0 0 -20 0 -20 25 0 25 0 0 -50 0 -50 25 0 25 0 0
-235 0 -235 -25 0 -25 0 0 -50 0 -50 -25 0 -25 0 0 -45 0 -45 -25 0 -25 0 0
45 0 45 25 0 25 0 0 50 0 50 25 0 25 0 0 210 0 210 -25 0 -25 0 0 50 0 50 -25
0 -25 0 0 45 0 45 -20 0 -20 0 0 25 0 25 20 0 20 0 0 -25z m-90 -120 l0 -95
25 0 25 0 0 -20 0 -20 -25 0 -25 0 0 -75 0 -75 -25 0 -25 0 0 -20 0 -20 -25 0
-25 0 0 -25 0 -25 -20 0 -20 0 0 -25 0 -25 -25 0 -25 0 0 -25 0 -25 -25 0 -25
0 0 -20 0 -20 -25 0 -25 0 0 -25 0 -25 -20 0 -20 0 0 -25 0 -25 -50 0 -50 0 0
-25 0 -25 -25 0 -25 0 0 50 0 50 50 0 50 0 0 25 0 25 25 0 25 0 0 20 0 20 20
0 20 0 0 25 0 25 25 0 25 0 0 25 0 25 25 0 25 0 0 25 0 25 25 0 25 0 0 20 0
20 20 0 20 0 0 50 0 50 25 0 25 0 0 140 0 140 25 0 25 0 0 -95z m50 -590 l0
-25 -25 0 -25 0 0 -45 0 -45 -25 0 -25 0 0 45 0 45 25 0 25 0 0 25 0 25 25 0
25 0 0 -25z"/>
</g>
</svg>
