<?xml version="1.0" standalone="no"?>
<!DOCTYPE svg PUBLIC "-//W3C//DTD SVG 20010904//EN"
 "http://www.w3.org/TR/2001/REC-SVG-20010904/DTD/svg10.dtd">
<svg version="1.0" xmlns="http://www.w3.org/2000/svg"
 width="468pt" height="468pt" viewBox="0 0 468 468"
 preserveAspectRatio="xMidYMid meet">
<metadata>
Created by potrace 1.8, written by Peter Selinger 2001-2007
</metadata>
<g transform="translate(0,468) scale(0.365625,-0.365625)"
fill="#000000" stroke="none">
<path d="M430 1200 l0 -30 -30 0 -30 0 0 -50 0 -50 -25 0 -25 0 0 -55 0 -55
-25 0 -25 0 0 -55 0 -55 -30 0 -30 0 0 -50 0 -50 -25 0 -25 0 0 -55 0 -55 -25
0 -25 0 0 -55 0 -55 -30 0 -30 0 0 -130 0 -130 30 0 30 0 0 -30 0 -30 50 0 50
0 0 -80 0 -80 30 0 30 0 0 30 0 30 50 0 50 0 0 -30 0 -30 30 0 30 0 0 80 0 80
240 0 240 0 0 30 0 30 25 0 25 0 0 50 0 50 25 0 25 0 0 55 0 55 30 0 30 0 0
55 0 55 25 0 25 0 0 50 0 50 25 0 25 0 0 55 0 55 30 0 30 0 0 25 0 25 -30 0
-30 0 0 30 0 30 -25 0 -25 0 0 50 0 50 25 0 25 0 0 55 0 55 30 0 30 0 0 55 0
55 -400 0 -400 0 0 -30z m740 -55 l0 -25 -25 0 -25 0 0 -55 0 -55 -25 0 -25 0
0 -50 0 -50 25 0 25 0 0 -30 0 -30 25 0 25 0 0 -25 0 -25 -25 0 -25 0 0 -55 0
-55 -25 0 -25 0 0 -50 0 -50 -30 0 -30 0 0 -55 0 -55 -25 0 -25 0 0 -55 0 -55
-25 0 -25 0 0 -50 0 -50 -30 0 -30 0 0 25 0 25 -25 0 -25 0 0 -25 0 -25 -160
0 -160 0 0 25 0 25 25 0 25 0 0 25 0 25 -130 0 -130 0 0 -50 0 -50 -55 0 -55
0 0 25 0 25 -25 0 -25 0 0 80 0 80 25 0 25 0 0 25 0 25 320 0 320 0 0 -25 0
-25 25 0 25 0 0 25 0 25 30 0 30 0 0 30 0 30 -350 0 -350 0 0 50 0 50 30 0 30
0 0 55 0 55 25 0 25 0 0 55 0 55 25 0 25 0 0 50 0 50 30 0 30 0 0 55 0 55 25
0 25 0 0 25 0 25 345 0 345 0 0 -25z m-740 -850 l0 -25 -30 0 -30 0 0 -55 0
-55 -25 0 -25 0 0 55 0 55 25 0 25 0 0 25 0 25 30 0 30 0 0 -25z"/>
<path d="M530 1040 l0 -30 55 0 55 0 0 30 0 30 -55 0 -55 0 0 -30z"/>
<path d="M750 1040 l0 -30 25 0 25 0 0 30 0 30 -25 0 -25 0 0 -30z"/>
<path d="M850 1040 l0 -30 55 0 55 0 0 30 0 30 -55 0 -55 0 0 -30z"/>
<path d="M480 935 l0 -25 80 0 80 0 0 25 0 25 -80 0 -80 0 0 -25z"/>
<path d="M690 935 l0 -25 55 0 55 0 0 25 0 25 -55 0 -55 0 0 -25z"/>
<path d="M850 935 l0 -25 30 0 30 0 0 25 0 25 -30 0 -30 0 0 -25z"/>
<path d="M1010 855 l0 -55 -25 0 -25 0 0 -55 0 -55 -25 0 -25 0 0 -50 0 -50
25 0 25 0 0 50 0 50 25 0 25 0 0 55 0 55 30 0 30 0 0 55 0 55 -30 0 -30 0 0
-55z"/>
<path d="M430 825 l0 -25 50 0 50 0 0 25 0 25 -50 0 -50 0 0 -25z"/>
<path d="M640 825 l0 -25 25 0 25 0 0 25 0 25 -25 0 -25 0 0 -25z"/>
<path d="M750 825 l0 -25 50 0 50 0 0 25 0 25 -50 0 -50 0 0 -25z"/>
<path d="M160 455 l0 -25 25 0 25 0 0 25 0 25 -25 0 -25 0 0 -25z"/>
<path d="M320 455 l0 -25 55 0 55 0 0 25 0 25 -55 0 -55 0 0 -25z"/>
<path d="M530 455 l0 -25 80 0 80 0 0 25 0 25 -80 0 -80 0 0 -25z"/>
<path d="M750 400 l0 -80 25 0 25 0 0 80 0 80 -25 0 -25 0 0 -80z"/>
<path d="M160 345 l0 -25 25 0 25 0 0 25 0 25 -25 0 -25 0 0 -25z"/>
<path d="M640 345 l0 -25 25 0 25 0 0 25 0 25 -25 0 -25 0 0 -25z"/>
</g>
</svg>
