<?xml version="1.0" standalone="no"?>
<!DOCTYPE svg PUBLIC "-//W3C//DTD SVG 20010904//EN"
 "http://www.w3.org/TR/2001/REC-SVG-20010904/DTD/svg10.dtd">
<svg version="1.0" xmlns="http://www.w3.org/2000/svg"
 width="468pt" height="468pt" viewBox="0 0 468 468"
 preserveAspectRatio="xMidYMid meet">
<metadata>
Created by potrace 1.8, written by Peter Selinger 2001-2007
</metadata>
<g transform="translate(0,468) scale(0.365625,-0.365625)"
fill="#000000" stroke="none">
<path d="M660 1200 l0 -20 -10 0 -10 0 0 -20 0 -20 -10 0 -10 0 0 -20 0 -20
10 0 10 0 0 20 0 20 9 0 9 0 6 -12 6 -13 6 13 6 12 49 0 49 0 0 -10 0 -10 20
0 20 0 0 -10 0 -10 30 0 30 0 0 -10 0 -10 40 0 40 0 0 10 0 10 -40 0 -40 0 0
10 0 10 -30 0 -30 0 0 10 0 10 -20 0 -20 0 0 10 0 10 -50 0 -50 0 0 -10 0 -10
-10 0 -10 0 0 20 0 20 10 0 10 0 0 20 0 20 -10 0 -10 0 0 -20z"/>
<path d="M513 1044 l-73 -74 0 -15 0 -15 -10 0 -10 0 0 -36 0 -37 22 -18 21
-19 -21 -19 -22 -18 0 -27 0 -26 10 0 10 0 0 -10 0 -10 -15 0 -16 0 -34 -35
-35 -34 0 -11 0 -11 -50 -49 -50 -49 0 -15 0 -16 -10 0 -10 0 0 -38 0 -38 20
-14 20 -14 0 -38 0 -38 10 0 10 0 0 38 0 38 -20 14 -20 14 0 38 0 38 10 0 10
0 0 16 0 15 14 15 15 14 5 0 6 0 0 -20 0 -20 -10 0 -10 0 0 -40 0 -40 10 0 10
0 0 40 0 40 10 0 10 0 0 19 0 19 13 5 12 5 -15 11 -14 10 22 19 22 19 0 12 0
12 25 24 24 25 11 0 11 0 17 17 17 16 -13 5 -12 4 0 24 0 25 25 24 24 25 16 0
15 0 0 10 0 10 10 0 10 0 0 -16 0 -16 -30 -28 -30 -28 0 -12 0 -11 14 -15 15
-14 15 0 16 0 0 10 0 10 20 0 20 0 0 -10 0 -10 18 0 18 0 14 20 14 20 8 0 8 0
0 -20 0 -20 10 0 10 0 0 15 0 16 -25 24 -24 25 -16 0 -15 0 0 -10 0 -10 20 0
20 0 0 -6 0 -5 -14 -15 -15 -14 -15 0 -16 0 0 10 0 10 -20 0 -20 0 0 -10 0
-10 -20 0 -20 0 0 16 0 16 30 28 30 28 0 26 0 26 10 0 10 0 0 -10 0 -10 30 0
30 0 0 -10 0 -10 26 0 27 0 18 22 19 21 7 -7 7 -7 -14 -9 -14 -9 6 -7 7 -6 16
16 16 16 -15 15 -15 15 -145 0 -146 0 0 20 0 20 10 0 10 0 0 16 0 15 16 16 16
16 10 -14 10 -14 5 13 5 12 69 0 69 0 0 -10 0 -10 40 0 40 0 0 -10 0 -10 20 0
20 0 0 -10 0 -10 15 0 16 0 34 -35 35 -34 0 -16 0 -15 -10 0 -10 0 0 -20 0
-20 10 0 10 0 0 20 0 20 10 0 10 0 0 -26 0 -25 -14 -15 -15 -14 -15 0 -16 0 0
20 0 20 -10 0 -10 0 0 -16 0 -15 14 -15 15 -14 11 0 11 0 24 25 25 24 0 26 0
25 -10 0 -10 0 0 15 0 16 -45 44 -44 45 -16 0 -15 0 0 10 0 10 -20 0 -20 0 0
10 0 10 -40 0 -40 0 0 10 0 10 -70 0 -70 0 0 6 0 5 14 15 15 14 75 0 76 0 0
-10 0 -10 30 0 30 0 0 -10 0 -10 20 0 20 0 0 -10 0 -10 15 0 16 0 44 -45 45
-44 0 -11 0 -11 45 -44 44 -45 21 0 21 0 15 -14 14 -15 0 -15 0 -16 10 0 10 0
0 15 0 16 -25 24 -24 25 -21 0 -21 0 -34 35 -35 34 0 16 0 15 -10 0 -10 0 0
10 0 10 50 0 50 0 0 -10 0 -10 16 0 17 0 18 -22 19 -21 6 6 6 6 -25 25 -26 26
-16 0 -15 0 0 10 0 10 -49 0 -49 0 -5 -12 -4 -13 -41 43 -40 42 -16 0 -16 0 0
10 0 10 -20 0 -20 0 0 10 0 10 -30 0 -30 0 0 10 0 10 40 0 40 0 0 -10 0 -10
20 0 20 0 0 -10 0 -10 30 0 30 0 0 -10 0 -10 20 0 20 0 0 -10 0 -10 50 0 50 0
0 -10 0 -10 30 0 30 0 0 10 0 10 -30 0 -30 0 0 10 0 10 -50 0 -50 0 0 10 0 10
-20 0 -20 0 0 10 0 10 -30 0 -30 0 0 10 0 10 -20 0 -20 0 0 10 0 10 -50 0 -50
0 0 -10 0 -10 -50 0 -50 0 0 10 0 10 10 0 10 0 0 10 0 10 -7 -1 -8 -1 -72 -74z
m7 -34 l0 -10 -10 0 -10 0 0 10 0 10 10 0 10 0 0 -10z m-53 -145 l15 -16 -5
-6 -6 -5 -16 15 -15 16 0 5 0 6 6 0 5 0 16 -15z m-147 -295 l0 -10 -10 0 -10
0 0 10 0 10 10 0 10 0 0 -10z"/>
<path d="M980 1090 l0 -10 10 0 10 0 0 10 0 10 -10 0 -10 0 0 -10z"/>
<path d="M1100 970 l0 -10 10 0 10 0 0 10 0 10 -10 0 -10 0 0 -10z"/>
<path d="M1000 874 l0 -5 14 -15 15 -14 15 0 16 0 0 10 0 10 -20 0 -20 0 0 10
0 10 -10 0 -10 0 0 -6z"/>
<path d="M1120 870 l0 -10 10 0 10 0 0 10 0 10 -10 0 -10 0 0 -10z"/>
<path d="M1100 830 l0 -10 20 0 20 0 0 10 0 10 -20 0 -20 0 0 -10z"/>
<path d="M1160 810 l0 -10 10 0 10 0 0 10 0 10 -10 0 -10 0 0 -10z"/>
<path d="M940 795 l0 -6 25 -24 24 -25 22 0 21 0 29 -31 30 -32 5 6 6 6 -36
35 -35 36 -23 0 -24 0 -14 20 -14 20 -8 0 -8 0 0 -5z"/>
<path d="M760 774 l0 -5 50 -49 50 -49 0 -15 0 -16 10 0 10 0 0 -20 0 -20 10
0 10 0 0 -20 0 -20 -10 0 -10 0 0 -19 0 -19 -12 -4 -13 -5 18 -17 18 -18 7 6
6 7 -14 10 -15 11 13 5 12 5 0 19 0 19 10 0 10 0 0 20 0 20 -10 0 -10 0 0 20
0 20 -10 0 -10 0 0 15 0 15 -55 55 -55 55 -5 0 -5 0 0 -6z"/>
<path d="M740 724 l0 -16 40 -38 40 -38 0 -16 0 -16 10 0 10 0 0 -30 0 -30
-10 0 -10 0 0 -30 0 -30 -10 0 -10 0 0 -20 0 -20 -10 0 -10 0 0 -16 0 -16 -40
-38 -40 -38 0 -16 0 -16 -10 0 -10 0 0 -20 0 -20 10 0 10 0 0 20 0 20 10 0 10
0 0 16 0 16 40 38 40 38 0 16 0 16 10 0 10 0 0 20 0 20 10 0 10 0 0 30 0 30
10 0 10 0 0 30 0 30 -10 0 -10 0 0 16 0 16 -40 38 -40 38 0 16 0 16 -10 0 -10
0 0 -16z"/>
<path d="M880 710 l0 -10 36 0 35 0 15 -14 14 -15 0 -11 0 -11 15 -16 16 -15
7 7 7 8 -12 4 -13 5 0 14 0 15 -25 24 -24 25 -36 0 -35 0 0 -10z"/>
<path d="M472 684 l-13 -14 15 -15 15 -15 45 0 46 0 0 10 0 10 -50 0 -50 0 0
10 0 10 20 0 20 0 0 10 0 10 -17 0 -18 -1 -13 -15z"/>
<path d="M540 690 l0 -10 10 0 10 0 0 10 0 10 -10 0 -10 0 0 -10z"/>
<path d="M580 694 l0 -5 15 -16 16 -15 6 5 5 6 -15 16 -16 15 -5 0 -6 0 0 -6z"/>
<path d="M413 665 l-13 -14 0 -16 0 -15 -10 0 -10 0 0 -20 0 -20 -10 0 -10 0
0 -20 0 -20 -10 0 -10 0 0 -40 0 -40 -10 0 -10 0 0 -20 0 -20 -10 0 -10 0 0
-20 0 -20 10 0 10 0 0 20 0 20 10 0 10 0 0 20 0 20 10 0 10 0 0 40 0 40 10 0
10 0 0 20 0 20 10 0 10 0 0 20 0 20 10 0 10 0 0 20 0 20 10 0 10 0 0 10 0 10
-7 0 -8 -1 -12 -14z"/>
<path d="M720 672 l0 -8 20 -14 20 -14 0 -18 0 -18 10 0 10 0 0 -40 0 -40 -10
0 -10 0 0 -26 0 -26 -40 -38 -40 -38 0 -12 0 -12 -30 -28 -30 -28 0 -15 0 -15
-12 -5 -13 -4 7 -8 7 -7 16 15 15 16 0 11 0 12 30 28 30 28 0 12 0 12 40 38
40 38 0 26 0 26 10 0 10 0 0 40 0 40 -10 0 -10 0 0 15 0 16 -25 24 -24 25 -6
0 -5 0 0 -8z"/>
<path d="M1020 675 l0 -6 25 -24 24 -25 16 0 15 0 0 10 0 10 -18 0 -18 0 -14
20 -14 20 -8 0 -8 0 0 -5z"/>
<path d="M1120 670 l0 -10 10 0 10 0 0 10 0 10 -10 0 -10 0 0 -10z"/>
<path d="M660 654 l0 -6 30 -28 30 -28 0 -46 0 -46 -10 0 -10 0 0 -19 0 -19
-12 -5 -13 -4 7 -8 7 -7 16 15 15 16 0 15 0 16 10 0 10 0 0 45 0 46 -35 34
-34 35 -6 0 -5 0 0 -6z"/>
<path d="M920 655 l0 -6 45 -44 44 -45 25 0 24 0 5 -12 4 -13 8 7 7 7 -15 16
-16 15 -21 0 -22 0 -38 40 -38 40 -6 0 -6 0 0 -5z"/>
<path d="M440 620 l0 -20 -10 0 -10 0 0 -20 0 -20 -10 0 -10 0 0 -48 0 -48
-20 -14 -20 -14 0 -28 0 -28 -10 0 -10 0 0 -29 0 -29 -12 -5 -13 -4 7 -8 7 -7
16 15 15 16 0 25 0 26 10 0 10 0 0 28 0 28 20 14 20 14 0 48 0 48 10 0 10 0 0
20 0 20 10 0 10 0 0 20 0 20 -10 0 -10 0 0 -20z"/>
<path d="M620 620 l0 -20 10 0 10 0 0 -20 0 -20 10 0 10 0 0 -40 0 -40 -10 0
-10 0 0 -30 0 -30 10 0 10 0 0 30 0 30 10 0 10 0 0 40 0 40 -10 0 -10 0 0 20
0 20 -10 0 -10 0 0 20 0 20 -10 0 -10 0 0 -20z"/>
<path d="M493 605 l-13 -14 0 -96 0 -95 -10 0 -10 0 0 -29 0 -29 -12 -5 -13
-4 7 -8 7 -7 16 15 15 16 0 25 0 26 10 0 10 0 0 100 0 100 10 0 10 0 0 -50 0
-50 10 0 10 0 0 -60 0 -60 -10 0 -10 0 0 -16 0 -16 -31 -29 -32 -30 6 -5 6 -6
35 36 36 35 0 16 0 15 10 0 10 0 0 60 0 60 -10 0 -10 0 0 49 0 49 13 5 12 4
-8 9 -8 8 -10 -14 -11 -15 -5 13 -5 12 -6 0 -7 -1 -12 -14z"/>
<path d="M580 560 l0 -60 10 0 10 0 0 -50 0 -50 -10 0 -10 0 0 -30 0 -30 -10
0 -10 0 0 -20 0 -20 10 0 10 0 0 20 0 20 10 0 10 0 0 30 0 30 10 0 10 0 0 50
0 50 -10 0 -10 0 0 60 0 60 -10 0 -10 0 0 -60z"/>
<path d="M1120 610 l0 -10 10 0 10 0 0 10 0 10 -10 0 -10 0 0 -10z"/>
<path d="M933 545 l-13 -14 0 -11 0 -11 25 -24 24 -25 12 0 12 0 18 -22 19
-21 6 6 6 6 -25 25 -26 26 -11 0 -11 0 -15 14 -14 15 0 15 0 16 10 0 10 0 0
10 0 10 -7 0 -8 -1 -12 -14z"/>
<path d="M440 482 l0 -58 -20 -14 -20 -14 0 -37 0 -37 -12 -5 -13 -4 7 -8 7
-7 16 15 15 16 0 33 0 34 20 14 20 14 0 58 0 58 -10 0 -10 0 0 -58z"/>
<path d="M980 530 l0 -10 18 0 18 0 14 -20 14 -20 18 0 18 0 0 10 0 10 -18 0
-18 0 -14 20 -14 20 -18 0 -18 0 0 -10z"/>
<path d="M1100 470 l0 -10 10 0 10 0 0 10 0 10 -10 0 -10 0 0 -10z"/>
<path d="M640 390 l0 -10 10 0 10 0 0 10 0 10 -10 0 -10 0 0 -10z"/>
<path d="M1060 390 l0 -10 10 0 10 0 0 10 0 10 -10 0 -10 0 0 -10z"/>
<path d="M240 290 l0 -10 10 0 10 0 0 10 0 10 -10 0 -10 0 0 -10z"/>
<path d="M0 100 l0 -100 640 0 640 0 0 100 0 100 -640 0 -640 0 0 -100z"/>
</g>
</svg>
