<?xml version="1.0" standalone="no"?>
<!DOCTYPE svg PUBLIC "-//W3C//DTD SVG 20010904//EN"
 "http://www.w3.org/TR/2001/REC-SVG-20010904/DTD/svg10.dtd">
<svg version="1.0" xmlns="http://www.w3.org/2000/svg"
 width="468pt" height="468pt" viewBox="0 0 468 468"
 preserveAspectRatio="xMidYMid meet">
<metadata>
Created by potrace 1.8, written by Peter Selinger 2001-2007
</metadata>
<g transform="translate(0,468) scale(0.365625,-0.365625)"
fill="#000000" stroke="none">
<path d="M110 1200 l0 -30 -30 0 -30 0 0 -25 0 -25 -25 0 -25 0 0 -80 0 -80
25 0 25 0 0 -55 0 -55 -25 0 -25 0 0 -240 0 -240 25 0 25 0 0 -25 0 -25 -25 0
-25 0 0 -160 0 -160 25 0 25 0 0 135 0 135 30 0 30 0 0 50 0 50 25 0 25 0 0
30 0 30 -25 0 -25 0 0 -30 0 -30 -30 0 -30 0 0 240 0 240 30 0 30 0 0 55 0 55
-30 0 -30 0 0 80 0 80 30 0 30 0 0 25 0 25 50 0 50 0 0 -25 0 -25 55 0 55 0 0
-25 0 -25 -25 0 -25 0 0 -160 0 -160 -30 0 -30 0 0 -55 0 -55 30 0 30 0 0
-185 0 -185 -30 0 -30 0 0 -30 0 -30 30 0 30 0 0 -105 0 -105 25 0 25 0 0 105
0 105 -25 0 -25 0 0 30 0 30 25 0 25 0 0 185 0 185 25 0 25 0 0 25 0 25 -25 0
-25 0 0 190 0 190 25 0 25 0 0 25 0 25 190 0 190 0 0 -25 0 -25 25 0 25 0 0
25 0 25 105 0 105 0 0 -25 0 -25 30 0 30 0 0 -190 0 -190 -30 0 -30 0 0 -50 0
-50 30 0 30 0 0 -295 0 -295 80 0 80 0 0 560 0 560 -30 0 -30 0 0 25 0 25 -25
0 -25 0 0 30 0 30 -505 0 -505 0 0 -30z m690 -55 l0 -25 -25 0 -25 0 0 25 0
25 25 0 25 0 0 -25z m-480 -480 l0 -25 -25 0 -25 0 0 25 0 25 25 0 25 0 0 -25z
m850 0 l0 -25 -25 0 -25 0 0 -25 0 -25 -25 0 -25 0 0 50 0 50 50 0 50 0 0 -25z"/>
<path d="M910 985 l0 -25 25 0 25 0 0 25 0 25 -25 0 -25 0 0 -25z"/>
<path d="M480 935 l0 -25 25 0 25 0 0 25 0 25 -25 0 -25 0 0 -25z"/>
<path d="M750 880 l0 -30 25 0 25 0 0 -50 0 -50 25 0 25 0 0 50 0 50 -25 0
-25 0 0 30 0 30 -25 0 -25 0 0 -30z"/>
<path d="M480 825 l0 -25 -25 0 -25 0 0 -55 0 -55 25 0 25 0 0 55 0 55 25 0
25 0 0 25 0 25 -25 0 -25 0 0 -25z"/>
<path d="M530 560 l0 -30 30 0 30 0 0 -25 0 -25 25 0 25 0 0 55 0 55 -55 0
-55 0 0 -30z"/>
<path d="M750 535 l0 -55 25 0 25 0 0 55 0 55 -25 0 -25 0 0 -55z"/>
<path d="M960 375 l0 -55 -25 0 -25 0 0 -25 0 -25 25 0 25 0 0 25 0 25 25 0
25 0 0 55 0 55 -25 0 -25 0 0 -55z"/>
<path d="M370 265 l0 -55 30 0 30 0 0 55 0 55 -30 0 -30 0 0 -55z"/>
<path d="M640 185 l0 -25 25 0 25 0 0 -25 0 -25 30 0 30 0 0 25 0 25 -30 0
-30 0 0 25 0 25 -25 0 -25 0 0 -25z"/>
<path d="M910 80 l0 -30 25 0 25 0 0 30 0 30 -25 0 -25 0 0 -30z"/>
</g>
</svg>
