<?xml version="1.0" standalone="no"?>
<!DOCTYPE svg PUBLIC "-//W3C//DTD SVG 20010904//EN"
 "http://www.w3.org/TR/2001/REC-SVG-20010904/DTD/svg10.dtd">
<svg version="1.0" xmlns="http://www.w3.org/2000/svg"
 width="468pt" height="468pt" viewBox="0 0 468 468"
 preserveAspectRatio="xMidYMid meet">
<metadata>
Created by potrace 1.8, written by Peter Selinger 2001-2007
</metadata>
<g transform="translate(0,468) scale(0.365625,-0.365625)"
fill="#000000" stroke="none">
<path d="M480 1120 l0 -160 25 0 25 0 0 -25 0 -25 -25 0 -25 0 0 -30 0 -30 25
0 25 0 0 -25 0 -25 -80 0 -80 0 0 25 0 25 30 0 30 0 0 80 0 80 -30 0 -30 0 0
-25 0 -25 -25 0 -25 0 0 -25 0 -25 -25 0 -25 0 0 -30 0 -30 25 0 25 0 0 -25 0
-25 -80 0 -80 0 0 25 0 25 25 0 25 0 0 80 0 80 -25 0 -25 0 0 -25 0 -25 -25 0
-25 0 0 -25 0 -25 -30 0 -30 0 0 -30 0 -30 30 0 30 0 0 -25 0 -25 -55 0 -55 0
0 -25 0 -25 25 0 25 0 0 -30 0 -30 -25 0 -25 0 0 -50 0 -50 25 0 25 0 0 50 0
50 30 0 30 0 0 30 0 30 80 0 80 0 0 -30 0 -30 -30 0 -30 0 0 -50 0 -50 -25 0
-25 0 0 -55 0 -55 -25 0 -25 0 0 -55 0 -55 -30 0 -30 0 0 -25 0 -25 -25 0 -25
0 0 -25 0 -25 265 0 265 0 0 50 0 50 30 0 30 0 0 55 0 55 25 0 25 0 0 55 0 55
25 0 25 0 0 50 0 50 30 0 30 0 0 55 0 55 25 0 25 0 0 25 0 25 25 0 25 0 0 80
0 80 -25 0 -25 0 0 -25 0 -25 -25 0 -25 0 0 -25 0 -25 -30 0 -30 0 0 -30 0
-30 30 0 30 0 0 -25 0 -25 -80 0 -80 0 0 25 0 25 25 0 25 0 0 80 0 80 -25 0
-25 0 0 55 0 55 25 0 25 0 0 55 0 55 25 0 25 0 0 -30 0 -30 30 0 30 0 0 -25 0
-25 -30 0 -30 0 0 -55 0 -55 30 0 30 0 0 55 0 55 25 0 25 0 0 25 0 25 25 0 25
0 0 55 0 55 -50 0 -50 0 0 -25 0 -25 -30 0 -30 0 0 25 0 25 -25 0 -25 0 0 -25
0 -25 -25 0 -25 0 0 -55 0 -55 -30 0 -30 0 0 80 0 80 -25 0 -25 0 0 -160z
m320 80 l0 -30 -25 0 -25 0 0 30 0 30 25 0 25 0 0 -30z m-210 -215 l0 -25 -30
0 -30 0 0 25 0 25 30 0 30 0 0 -25z m-430 -105 l0 -30 -25 0 -25 0 0 30 0 30
25 0 25 0 0 -30z m210 0 l0 -30 -25 0 -25 0 0 30 0 30 25 0 25 0 0 -30z m220
0 l0 -30 -30 0 -30 0 0 30 0 30 30 0 30 0 0 -30z m210 0 l0 -30 -25 0 -25 0 0
30 0 30 25 0 25 0 0 -30z m-320 -160 l0 -30 25 0 25 0 0 30 0 30 80 0 80 0 0
-30 0 -30 -25 0 -25 0 0 -50 0 -50 -25 0 -25 0 0 -55 0 -55 -30 0 -30 0 0 80
0 80 -25 0 -25 0 0 25 0 25 -25 0 -25 0 0 -50 0 -50 25 0 25 0 0 -135 0 -135
-80 0 -80 0 0 25 0 25 -25 0 -25 0 0 -25 0 -25 -80 0 -80 0 0 25 0 25 25 0 25
0 0 55 0 55 25 0 25 0 0 55 0 55 30 0 30 0 0 50 0 50 25 0 25 0 0 30 0 30 80
0 80 0 0 -30z"/>
<path d="M370 535 l0 -55 -25 0 -25 0 0 -55 0 -55 25 0 25 0 0 55 0 55 30 0
30 0 0 55 0 55 -30 0 -30 0 0 -55z"/>
</g>
</svg>
