<?xml version="1.0" standalone="no"?>
<!DOCTYPE svg PUBLIC "-//W3C//DTD SVG 20010904//EN"
 "http://www.w3.org/TR/2001/REC-SVG-20010904/DTD/svg10.dtd">
<svg version="1.0" xmlns="http://www.w3.org/2000/svg"
 width="468pt" height="468pt" viewBox="0 0 468 468"
 preserveAspectRatio="xMidYMid meet">
<metadata>
Created by potrace 1.8, written by Peter Selinger 2001-2007
</metadata>
<g transform="translate(0,468) scale(0.365625,-0.365625)"
fill="#000000" stroke="none">
<path d="M640 1215 l0 -15 -15 0 -15 0 0 -11 0 -10 -14 -15 -15 -14 -10 0 -11
0 0 -15 0 -15 -15 0 -15 0 0 -11 0 -10 -14 -15 -15 -14 -10 0 -11 0 0 -15 0
-15 -15 0 -15 0 0 -11 0 -10 -14 -15 -15 -14 -10 0 -11 0 0 -15 0 -15 -15 0
-15 0 0 -11 0 -10 -14 -15 -15 -14 -10 0 -11 0 0 -15 0 -15 -15 0 -15 0 0 -11
0 -10 -14 -15 -15 -14 -10 0 -11 0 0 -15 0 -15 -15 0 -15 0 0 -15 0 -15 15 0
15 0 0 15 0 15 15 0 15 0 0 11 0 10 14 15 15 14 10 0 11 0 0 15 0 15 15 0 15
0 0 11 0 10 14 15 15 14 10 0 11 0 0 15 0 15 15 0 15 0 0 11 0 10 14 15 15 14
10 0 11 0 0 15 0 15 15 0 15 0 0 11 0 10 14 15 15 14 10 0 11 0 0 15 0 15 15
0 15 0 0 11 0 10 14 15 15 14 10 0 11 0 0 15 0 15 15 0 15 0 0 -11 0 -10 14
-15 15 -14 10 0 11 0 0 -15 0 -15 15 0 15 0 0 -11 0 -10 14 -15 15 -14 10 0
11 0 0 -30 0 -30 -25 0 -25 0 0 -10 0 -10 -30 0 -30 0 0 -15 0 -15 30 0 30 0
0 15 0 15 25 0 25 0 0 10 0 10 25 0 25 0 0 15 0 15 -10 0 -10 0 0 15 0 15 -15
0 -15 0 0 10 0 10 -15 0 -15 0 0 15 0 15 -10 0 -10 0 0 15 0 15 -15 0 -15 0 0
10 0 10 -15 0 -15 0 0 15 0 15 -10 0 -10 0 0 15 0 15 -15 0 -15 0 0 -15z"/>
<path d="M590 1080 l0 -10 -15 0 -15 0 0 -15 0 -15 15 0 15 0 0 15 0 15 10 0
10 0 0 10 0 10 -10 0 -10 0 0 -10z"/>
<path d="M910 1080 l0 -10 -30 0 -30 0 0 -15 0 -15 30 0 30 0 0 15 0 15 10 0
10 0 0 -15 0 -15 15 0 15 0 0 -25 0 -25 15 0 15 0 0 -30 0 -30 10 0 10 0 0
-25 0 -25 15 0 15 0 0 -25 0 -25 15 0 15 0 0 -30 0 -30 10 0 10 0 0 -10 0 -10
-50 0 -50 0 0 10 0 10 10 0 10 0 0 15 0 15 -10 0 -10 0 0 -15 0 -15 -30 0 -30
0 0 -10 0 -10 -80 0 -80 0 0 10 0 10 -25 0 -25 0 0 -10 0 -10 -94 0 -94 0 -6
13 -6 12 -6 -12 -6 -13 -94 0 -94 0 0 10 0 10 25 0 25 0 0 15 0 15 -10 0 -10
0 0 11 0 10 14 15 15 14 10 0 11 0 0 15 0 15 -15 0 -15 0 0 -11 0 -10 -14 -15
-15 -14 -10 0 -11 0 0 -15 0 -15 -15 0 -15 0 0 -11 0 -10 -14 -15 -15 -14 -24
0 -25 0 -6 13 -6 12 -6 -12 -6 -13 -69 0 -69 0 0 -335 0 -335 30 0 30 0 0 -15
0 -15 545 0 545 0 0 295 0 295 -15 0 -15 0 0 55 0 55 -25 0 -25 0 0 10 0 10
-15 0 -15 0 0 30 0 30 -10 0 -10 0 0 25 0 25 -15 0 -15 0 0 25 0 25 -15 0 -15
0 0 30 0 30 -10 0 -10 0 0 25 0 25 -15 0 -15 0 0 15 0 15 -15 0 -15 0 0 10 0
10 -10 0 -10 0 0 -10z m240 -665 l0 -305 -535 0 -535 0 0 305 0 305 535 0 535
0 0 -305z"/>
<path d="M110 655 l0 -15 25 0 25 0 0 15 0 15 -25 0 -25 0 0 -15z"/>
<path d="M190 655 l0 -15 25 0 25 0 0 15 0 15 -25 0 -25 0 0 -15z"/>
<path d="M960 575 l0 -65 65 0 65 0 0 65 0 65 -65 0 -65 0 0 -65z m110 10 l0
-25 -15 0 -15 0 0 15 0 15 -15 0 -15 0 0 -15 0 -15 -10 0 -10 0 0 25 0 25 40
0 40 0 0 -25z"/>
<path d="M110 600 l0 -10 10 0 10 0 0 10 0 10 -10 0 -10 0 0 -10z"/>
<path d="M160 600 l0 -10 15 0 15 0 0 10 0 10 -15 0 -15 0 0 -10z"/>
<path d="M210 600 l0 -10 15 0 15 0 0 10 0 10 -15 0 -15 0 0 -10z"/>
<path d="M110 545 l0 -15 65 0 65 0 0 15 0 15 -65 0 -65 0 0 -15z"/>
<path d="M270 545 l0 -15 10 0 10 0 0 15 0 15 -10 0 -10 0 0 -15z"/>
<path d="M370 455 l0 -25 15 0 15 0 0 25 0 25 -15 0 -15 0 0 -25z"/>
<path d="M450 465 l0 -15 -10 0 -10 0 0 -10 0 -10 65 0 65 0 0 25 0 25 -15 0
-15 0 0 -15 0 -15 -25 0 -25 0 0 15 0 15 -15 0 -15 0 0 -15z"/>
<path d="M670 465 l0 -15 -15 0 -15 0 0 -10 0 -10 40 0 40 0 0 10 0 10 -15 0
-15 0 0 15 0 15 -10 0 -10 0 0 -15z"/>
<path d="M770 465 l0 -15 -10 0 -10 0 0 -10 0 -10 25 0 25 0 0 25 0 25 -15 0
-15 0 0 -15z"/>
<path d="M830 440 l0 -10 10 0 10 0 0 10 0 10 -10 0 -10 0 0 -10z"/>
<path d="M370 385 l0 -15 15 0 15 0 0 -10 0 -10 15 0 15 0 0 10 0 10 -15 0
-15 0 0 15 0 15 -15 0 -15 0 0 -15z"/>
<path d="M450 375 l0 -25 30 0 30 0 0 10 0 10 -15 0 -15 0 0 15 0 15 -15 0
-15 0 0 -25z"/>
<path d="M560 385 l0 -15 15 0 15 0 0 -10 0 -10 39 0 39 0 6 13 6 12 6 -12 6
-13 54 0 54 0 0 10 0 10 -25 0 -25 0 0 15 0 15 -15 0 -15 0 0 -15 0 -15 -15 0
-15 0 0 15 0 15 -10 0 -10 0 0 -15 0 -15 -40 0 -40 0 0 15 0 15 -15 0 -15 0 0
-15z"/>
<path d="M830 360 l0 -10 10 0 10 0 0 10 0 10 -10 0 -10 0 0 -10z"/>
<path d="M370 295 l0 -25 40 0 40 0 0 10 0 10 -25 0 -25 0 0 15 0 15 -15 0
-15 0 0 -25z"/>
<path d="M510 309 l0 -10 14 -15 15 -14 35 0 36 0 0 10 0 10 -40 0 -40 0 0 15
0 15 -10 0 -10 0 0 -11z"/>
<path d="M770 306 l0 -14 -12 -5 -13 -4 9 -9 9 -9 4 13 5 12 14 0 14 0 0 15 0
15 -15 0 -15 0 0 -14z"/>
<path d="M690 280 l0 -10 15 0 15 0 0 10 0 10 -15 0 -15 0 0 -10z"/>
<path d="M830 280 l0 -10 25 0 25 0 0 10 0 10 -25 0 -25 0 0 -10z"/>
<path d="M640 1055 l0 -15 15 0 15 0 0 15 0 15 -15 0 -15 0 0 -15z"/>
<path d="M690 1029 l0 -10 -14 -15 -15 -14 -10 0 -11 0 0 -30 0 -30 -25 0 -25
0 0 -10 0 -10 -30 0 -30 0 0 -15 0 -15 30 0 30 0 0 15 0 15 25 0 25 0 0 10 0
10 25 0 25 0 0 15 0 15 -10 0 -10 0 0 11 0 10 14 15 15 14 10 0 11 0 0 15 0
15 -15 0 -15 0 0 -11z"/>
<path d="M510 1000 l0 -10 -15 0 -15 0 0 -15 0 -15 -15 0 -15 0 0 -14 0 -14
-12 -5 -13 -4 9 -9 9 -9 4 13 5 12 14 0 14 0 0 15 0 15 15 0 15 0 0 15 0 15
10 0 10 0 0 10 0 10 -10 0 -10 0 0 -10z"/>
<path d="M590 1000 l0 -10 10 0 10 0 0 10 0 10 -10 0 -10 0 0 -10z"/>
<path d="M530 949 l0 -10 -14 -15 -15 -14 -10 0 -11 0 0 -30 0 -30 -25 0 -25
0 0 -10 0 -10 -30 0 -30 0 0 -15 0 -15 30 0 30 0 0 15 0 15 25 0 25 0 0 10 0
10 25 0 25 0 0 15 0 15 -10 0 -10 0 0 11 0 10 14 15 15 14 10 0 11 0 0 15 0
15 -15 0 -15 0 0 -11z"/>
<path d="M830 920 l0 -10 -15 0 -15 0 0 -15 0 -15 15 0 15 0 0 15 0 15 25 0
25 0 0 10 0 10 -25 0 -25 0 0 -10z"/>
<path d="M720 865 l0 -15 15 0 15 0 0 15 0 15 -15 0 -15 0 0 -15z"/>
<path d="M930 865 l0 -15 -25 0 -25 0 0 -10 0 -10 -25 0 -25 0 0 -15 0 -15
-30 0 -30 0 0 -15 0 -15 30 0 30 0 0 15 0 15 25 0 25 0 0 15 0 15 25 0 25 0 0
10 0 10 15 0 15 0 0 15 0 15 -15 0 -15 0 0 -15z"/>
<path d="M640 815 l0 -15 15 0 15 0 0 15 0 15 -15 0 -15 0 0 -15z"/>
<path d="M560 785 l0 -15 15 0 15 0 0 15 0 15 -15 0 -15 0 0 -15z"/>
</g>
</svg>
