<?xml version="1.0" standalone="no"?>
<!DOCTYPE svg PUBLIC "-//W3C//DTD SVG 20010904//EN"
 "http://www.w3.org/TR/2001/REC-SVG-20010904/DTD/svg10.dtd">
<svg version="1.0" xmlns="http://www.w3.org/2000/svg"
 width="468pt" height="468pt" viewBox="0 0 468 468"
 preserveAspectRatio="xMidYMid meet">
<metadata>
Created by potrace 1.8, written by Peter Selinger 2001-2007
</metadata>
<g transform="translate(0,468) scale(0.365625,-0.365625)"
fill="#000000" stroke="none">
<path d="M0 655 l0 -625 11 0 10 0 15 14 14 15 0 585 0 586 586 0 585 0 15 14
14 15 0 10 0 11 -625 0 -625 0 0 -625z"/>
<path d="M1250 810 l0 -440 -10 0 -10 0 0 15 0 15 -15 0 -15 0 0 15 0 15 -15
0 -15 0 0 -15 0 -15 -10 0 -10 0 0 15 0 15 -30 0 -30 0 0 -15 0 -15 -10 0 -10
0 0 -15 0 -15 -30 0 -30 0 0 -10 0 -10 -25 0 -25 0 0 -15 0 -15 -25 0 -25 0 0
-15 0 -15 -15 0 -15 0 0 -10 0 -10 -25 0 -25 0 0 10 0 10 -30 0 -30 0 0 15 0
15 -25 0 -25 0 0 15 0 15 -25 0 -25 0 0 10 0 10 -15 0 -15 0 0 15 0 15 -15 0
-15 0 0 -15 0 -15 -25 0 -25 0 0 -10 0 -10 -25 0 -25 0 0 -15 0 -15 -15 0 -15
0 0 -15 0 -15 15 0 15 0 0 15 0 15 40 0 40 0 0 -15 0 -15 -15 0 -15 0 0 -10 0
-10 15 0 15 0 0 10 0 10 25 0 25 0 0 -10 0 -10 14 0 14 0 6 13 6 12 6 -12 6
-13 29 0 29 0 0 -30 0 -30 10 0 10 0 0 15 0 15 15 0 15 0 0 -15 0 -15 15 0 15
0 0 15 0 15 10 0 10 0 0 -15 0 -15 15 0 15 0 0 -10 0 -10 14 0 14 0 6 13 6 12
6 -12 6 -13 14 0 14 0 0 10 0 10 25 0 25 0 0 -10 0 -10 15 0 15 0 0 10 0 10
15 0 15 0 0 -10 0 -10 -15 0 -15 0 0 -15 0 -15 95 0 95 0 0 15 0 15 10 0 10 0
0 -80 0 -80 -610 0 -610 0 0 -15 0 -15 625 0 625 0 0 625 0 625 -15 0 -15 0 0
-440z"/>
<path d="M560 1135 l0 -15 -25 0 -25 0 0 -15 0 -15 -40 0 -40 0 0 -10 0 -10
-40 0 -40 0 0 -15 0 -15 -40 0 -40 0 0 -305 0 -305 10 0 10 0 0 -15 0 -15 40
0 40 0 0 -15 0 -15 30 0 30 0 0 -10 0 -10 40 0 40 0 0 10 0 10 25 0 25 0 0 15
0 15 25 0 25 0 0 15 0 15 15 0 15 0 0 -15 0 -15 15 0 15 0 0 -15 0 -15 25 0
25 0 0 -10 0 -10 25 0 25 0 0 -15 0 -15 30 0 30 0 0 -15 0 -15 25 0 25 0 0 15
0 15 15 0 15 0 0 15 0 15 25 0 25 0 0 10 0 10 25 0 25 0 0 15 0 15 30 0 30 0
0 135 0 135 -15 0 -15 0 0 10 0 10 -25 0 -25 0 0 15 0 15 -30 0 -30 0 0 15 0
15 -50 0 -50 0 0 145 0 145 -15 0 -15 0 0 15 0 15 -25 0 -25 0 0 10 0 10 -55
0 -55 0 0 15 0 15 -25 0 -25 0 0 15 0 15 -15 0 -15 0 0 -15z m30 -30 l0 -15
25 0 25 0 0 -10 0 -10 15 0 15 0 0 -15 0 -15 -15 0 -15 0 0 -15 0 -15 -15 0
-15 0 0 15 0 15 15 0 15 0 0 15 0 15 -15 0 -15 0 0 -15 0 -15 -25 0 -25 0 0
-15 0 -15 -15 0 -15 0 0 -10 0 -10 15 0 15 0 0 -15 0 -15 15 0 15 0 0 15 0 15
-15 0 -15 0 0 10 0 10 15 0 15 0 0 -10 0 -10 40 0 40 0 0 10 0 10 40 0 40 0 0
15 0 15 25 0 25 0 0 -15 0 -15 -25 0 -25 0 0 -10 0 -10 -40 0 -40 0 0 -15 0
-15 -40 0 -40 0 0 -15 0 -15 -30 0 -30 0 0 -10 0 -10 -25 0 -25 0 0 -55 0 -55
15 0 15 0 0 -15 0 -15 -15 0 -15 0 0 -10 0 -10 11 0 10 0 15 14 14 15 0 24 0
25 -12 5 -13 4 9 9 9 9 4 -12 5 -13 14 0 14 0 0 10 0 10 15 0 15 0 0 15 0 15
10 0 10 0 0 15 0 15 15 0 15 0 0 -15 0 -15 -15 0 -15 0 0 -11 0 -10 -14 -15
-15 -14 -10 0 -11 0 0 -15 0 -15 15 0 15 0 0 -15 0 -15 -26 0 -25 0 -15 -14
-14 -15 0 -10 0 -11 -15 0 -15 0 0 -145 0 -145 -15 0 -15 0 0 130 0 130 -10 0
-10 0 0 -25 0 -25 -15 0 -15 0 0 -15 0 -15 -15 0 -15 0 0 -10 0 -10 15 0 15 0
0 10 0 10 15 0 15 0 0 -10 0 -10 -15 0 -15 0 0 -15 0 -15 -15 0 -15 0 0 -15 0
-15 -10 0 -10 0 0 -25 0 -25 -15 0 -15 0 0 -15 0 -15 15 0 15 0 0 -10 0 -10
-30 0 -30 0 0 290 0 290 30 0 30 0 0 15 0 15 40 0 40 0 0 15 0 15 40 0 40 0 0
10 0 10 25 0 25 0 0 15 0 15 15 0 15 0 0 -15z m130 -50 l0 -15 -15 0 -15 0 0
15 0 15 15 0 15 0 0 -15z m80 -375 l0 -10 -15 0 -15 0 0 10 0 10 15 0 15 0 0
-10z m-80 -25 l0 -15 15 0 15 0 0 -15 0 -15 25 0 25 0 0 -10 0 -10 55 0 55 0
0 10 0 10 25 0 25 0 0 15 0 15 25 0 25 0 0 15 0 15 15 0 15 0 0 -15 0 -15 -15
0 -15 0 0 -15 0 -15 -25 0 -25 0 0 -10 0 -10 -25 0 -25 0 0 -15 0 -15 -30 0
-30 0 0 -105 0 -105 -10 0 -10 0 0 105 0 105 -15 0 -15 0 0 15 0 15 -25 0 -25
0 0 10 0 10 -15 0 -15 0 0 15 0 15 -25 0 -25 0 0 15 0 15 25 0 25 0 0 -15z
m130 -15 l0 -30 -10 0 -10 0 0 30 0 30 10 0 10 0 0 -30z m-160 -65 l0 -15 -10
0 -10 0 0 15 0 15 10 0 10 0 0 -15z m0 -55 l0 -10 15 0 15 0 0 10 0 10 15 0
15 0 0 -10 0 -10 -15 0 -15 0 0 -15 0 -15 15 0 15 0 0 -14 0 -14 13 -5 12 -4
-9 -9 -9 -9 -4 13 -5 12 -29 0 -29 0 0 -10 0 -10 15 0 15 0 0 -15 0 -15 25 0
25 0 0 -15 0 -15 15 0 15 0 0 -10 0 -10 -15 0 -15 0 0 10 0 10 -25 0 -25 0 0
15 0 15 -25 0 -25 0 0 40 0 40 10 0 10 0 0 15 0 15 -10 0 -10 0 0 10 0 10 10
0 10 0 0 -10z m-290 -25 l0 -15 15 0 15 0 0 -15 0 -15 -15 0 -15 0 0 -25 0
-25 -15 0 -15 0 0 25 0 25 15 0 15 0 0 15 0 15 -15 0 -15 0 0 15 0 15 15 0 15
0 0 -15z"/>
<path d="M320 975 l0 -15 15 0 15 0 0 -15 0 -15 25 0 25 0 0 -10 0 -10 15 0
15 0 0 -55 0 -55 10 0 10 0 0 51 0 50 -14 15 -15 14 -10 0 -11 0 0 15 0 15
-25 0 -25 0 0 15 0 15 -15 0 -15 0 0 -15z"/>
<path d="M400 735 l0 -15 15 0 15 0 0 15 0 15 -15 0 -15 0 0 -15z"/>
<path d="M370 680 l0 -10 15 0 15 0 0 10 0 10 -15 0 -15 0 0 -10z"/>
<path d="M690 225 l0 -15 15 0 15 0 0 15 0 15 -15 0 -15 0 0 -15z"/>
<path d="M960 175 l0 -15 15 0 15 0 0 15 0 15 -15 0 -15 0 0 -15z"/>
<path d="M880 145 l0 -15 15 0 15 0 0 15 0 15 -15 0 -15 0 0 -15z"/>
</g>
</svg>
