<?xml version="1.0" standalone="no"?>
<!DOCTYPE svg PUBLIC "-//W3C//DTD SVG 20010904//EN"
 "http://www.w3.org/TR/2001/REC-SVG-20010904/DTD/svg10.dtd">
<svg version="1.0" xmlns="http://www.w3.org/2000/svg"
 width="468pt" height="468pt" viewBox="0 0 468 468"
 preserveAspectRatio="xMidYMid meet">
<metadata>
Created by potrace 1.8, written by Peter Selinger 2001-2007
</metadata>
<g transform="translate(0,468) scale(0.365625,-0.365625)"
fill="#000000" stroke="none">
<path d="M0 1241 l0 -39 13 -6 12 -6 -13 -6 -12 -6 0 -178 0 -178 13 -6 12 -6
-13 -6 -12 -6 0 -79 0 -79 10 0 10 0 0 -19 0 -19 -12 -5 -13 -5 15 -12 15 -12
-13 -5 -12 -5 0 -29 0 -29 16 0 16 0 28 -30 28 -30 16 0 16 0 0 -10 0 -10 -20
0 -20 0 0 -10 0 -10 -20 0 -20 0 0 10 0 10 10 0 10 0 0 20 0 20 -10 0 -10 0 0
-10 0 -10 -20 0 -20 0 0 -9 0 -9 13 -5 12 -5 -15 -11 -15 -11 15 -11 15 -11
-13 -5 -12 -5 0 -29 0 -29 10 0 10 0 0 -19 0 -19 -13 -6 -12 -6 13 -6 12 -6 0
-19 0 -19 -10 0 -10 0 0 -100 0 -100 640 0 640 0 0 119 0 119 -12 6 -13 6 13
6 12 6 0 9 0 9 -20 0 -20 0 0 -20 0 -20 10 0 10 0 0 -10 0 -10 -19 0 -19 0 -5
-12 -4 -13 -9 8 -8 8 14 10 15 9 -15 10 -15 10 15 11 15 11 -12 5 -13 5 0 15
0 14 -14 15 -15 14 -11 0 -11 0 -15 14 -14 15 0 15 0 16 10 0 10 0 0 16 0 15
-14 15 -15 14 -21 0 -21 0 -24 -25 -25 -24 0 -6 0 -5 16 0 15 0 15 -15 15 -15
-16 -16 -16 -16 -7 6 -6 7 14 9 14 9 -7 8 -8 7 -10 -14 -9 -15 -11 15 -11 15
-5 -12 -5 -13 -19 0 -19 0 0 -10 0 -10 20 0 20 0 0 -10 0 -10 -40 0 -40 0 0 9
0 9 12 4 13 5 -17 16 -17 17 -31 0 -31 0 -44 45 -45 44 0 16 0 15 -10 0 -10 0
0 40 0 40 10 0 10 0 0 19 0 19 13 5 12 5 -15 12 -15 12 13 5 12 5 0 19 0 19
10 0 10 0 0 20 0 20 10 0 10 0 0 19 0 19 13 5 12 5 -15 11 -15 11 15 9 14 10
-23 20 -24 21 23 20 23 20 -6 7 -7 6 -21 -24 -22 -24 -4 13 -5 12 -18 0 -18 0
-5 -12 -5 -13 -11 15 -10 14 -21 -23 -20 -24 -6 6 -6 6 27 27 27 27 8 -13 8
-13 27 27 27 27 -7 7 -8 7 -4 -12 -5 -13 -29 0 -29 0 0 10 0 10 18 0 18 0 14
20 14 20 18 0 18 0 0 -10 0 -10 15 0 16 0 24 -25 25 -24 0 -96 0 -95 -10 0
-10 0 0 -20 0 -20 -10 0 -10 0 0 -30 0 -30 -10 0 -10 0 0 -30 0 -30 -10 0 -10
0 0 -20 0 -20 10 0 10 0 0 -20 0 -20 10 0 10 0 0 -20 0 -20 9 0 9 0 6 13 6 12
6 -12 6 -13 9 0 9 0 0 20 0 20 18 0 18 0 14 20 14 20 18 0 18 0 0 10 0 10 20
0 20 0 0 6 0 5 -15 16 -15 15 -31 -33 -31 -33 -9 15 -9 14 -9 -14 -9 -14 -17
16 -16 17 17 17 17 18 5 -13 4 -12 19 0 19 0 0 10 0 10 18 0 18 0 14 20 14 20
18 0 18 0 0 20 0 20 -9 0 -9 0 -5 -12 -4 -13 -9 9 -9 9 12 4 13 5 0 15 0 15
32 30 32 30 -14 8 -14 9 23 21 24 20 -7 7 -7 7 -9 -14 -8 -14 -32 34 -31 33
-7 -8 -7 -8 13 -4 12 -5 0 -18 0 -18 -13 -5 -12 -4 9 -9 9 -9 4 13 5 12 19 0
19 0 0 -9 0 -9 -12 -5 -13 -5 14 -10 14 -10 -17 -17 -16 -17 -31 33 -31 33 -9
-15 -9 -14 -11 15 -11 15 -5 -12 -5 -13 -9 0 -9 0 0 15 0 16 25 24 24 25 12 0
12 0 19 22 19 22 10 -14 9 -15 9 15 10 14 8 -8 8 -9 -12 -4 -13 -5 0 -9 0 -9
26 0 25 0 15 -14 14 -15 0 -15 0 -16 -10 0 -10 0 0 -16 0 -17 -21 -18 -21 -18
15 -16 16 -15 12 0 12 0 18 -22 19 -21 7 6 6 7 -21 19 -22 18 0 7 0 6 16 0 17
0 18 22 19 21 7 -7 7 -7 -14 -10 -15 -11 13 -5 12 -5 0 -14 0 -15 -25 -24 -24
-25 -16 0 -15 0 0 10 0 10 -10 0 -10 0 0 -20 0 -20 -19 0 -19 0 -5 -12 -5 -13
-11 15 -10 14 -7 -6 -6 -7 18 -18 17 -18 5 13 4 12 19 0 19 0 0 10 0 10 59 0
59 0 6 13 6 12 6 -12 6 -13 9 0 9 0 0 80 0 80 -9 0 -9 0 -5 -12 -4 -13 -8 7
-8 8 21 19 22 18 0 197 0 196 -9 0 -9 0 -5 -12 -4 -13 -8 7 -8 8 21 19 22 18
0 27 0 26 -29 0 -29 0 -6 -12 -6 -13 -6 13 -6 12 -159 0 -159 0 0 -19 0 -19
13 -5 12 -4 -8 -9 -8 -8 -10 14 -9 15 -9 -14 -9 -14 -17 17 -17 17 6 7 7 6 9
-14 9 -14 7 6 6 7 -15 16 -16 15 -284 0 -285 0 -6 -12 -6 -13 -6 13 -6 12 -18
0 -18 0 -6 -12 -6 -13 -6 13 -6 12 -15 0 -15 0 -29 -31 -30 -32 -6 7 -6 6 21
19 22 18 0 7 0 6 -60 0 -60 0 0 -39z m1000 9 l0 -10 -10 0 -10 0 0 10 0 10 10
0 10 0 0 -10z m67 -5 l15 -16 -5 -6 -6 -5 -16 15 -15 16 0 5 0 6 6 0 5 0 16
-15z m-1007 -15 l0 -10 -10 0 -10 0 0 10 0 10 10 0 10 0 0 -10z m160 0 l0 -10
-10 0 -10 0 0 10 0 10 10 0 10 0 0 -10z m-80 -20 l0 -10 -10 0 -10 0 0 10 0
10 10 0 10 0 0 -10z m120 0 l0 -10 -10 0 -10 0 0 10 0 10 10 0 10 0 0 -10z
m80 0 l0 -10 -10 0 -10 0 0 10 0 10 10 0 10 0 0 -10z m120 0 l0 -10 -10 0 -10
0 0 10 0 10 10 0 10 0 0 -10z m280 0 l0 -10 -10 0 -10 0 0 10 0 10 10 0 10 0
0 -10z m307 -5 l15 -16 -5 -6 -6 -5 -16 15 -15 16 0 5 0 6 6 0 5 0 16 -15z
m-527 -15 l0 -10 -10 0 -10 0 0 10 0 10 10 0 10 0 0 -10z m260 0 l0 -10 -10 0
-10 0 0 10 0 10 10 0 10 0 0 -10z m140 0 l0 -10 -10 0 -10 0 0 10 0 10 10 0
10 0 0 -10z m200 0 l0 -10 -10 0 -10 0 0 10 0 10 10 0 10 0 0 -10z m-300 -20
l0 -10 -10 0 -10 0 0 10 0 10 10 0 10 0 0 -10z m200 0 l0 -10 -10 0 -10 0 0
10 0 10 10 0 10 0 0 -10z m-340 -20 l0 -10 -10 0 -10 0 0 10 0 10 10 0 10 0 0
-10z m60 0 l0 -10 -10 0 -10 0 0 10 0 10 10 0 10 0 0 -10z m320 0 l0 -10 -10
0 -10 0 0 10 0 10 10 0 10 0 0 -10z m80 0 l0 -10 -10 0 -10 0 0 10 0 10 10 0
10 0 0 -10z m-740 -20 l0 -10 -10 0 -10 0 0 10 0 10 10 0 10 0 0 -10z m140 0
l0 -10 -10 0 -10 0 0 10 0 10 10 0 10 0 0 -10z m100 0 l0 -10 -10 0 -10 0 0
10 0 10 10 0 10 0 0 -10z m386 -5 l15 -15 -16 -16 -16 -16 -7 6 -6 7 14 10 15
11 -12 5 -13 5 0 9 0 9 6 0 5 0 15 -15z m74 9 l0 -5 -15 -16 -16 -15 -5 5 -6
6 13 15 14 15 8 1 7 0 0 -6z m-1020 -24 l0 -10 -10 0 -10 0 0 10 0 10 10 0 10
0 0 -10z m360 -10 l0 -20 -10 0 -10 0 0 20 0 20 10 0 10 0 0 -20z m260 10 l0
-10 -10 0 -10 0 0 10 0 10 10 0 10 0 0 -10z m60 0 l0 -10 -10 0 -10 0 0 10 0
10 10 0 10 0 0 -10z m400 0 l0 -10 -10 0 -10 0 0 10 0 10 10 0 10 0 0 -10z
m-653 -25 l15 -16 -5 -6 -6 -5 -16 15 -15 16 0 5 0 6 6 0 5 0 16 -15z m113 5
l0 -10 -10 0 -10 0 0 10 0 10 10 0 10 0 0 -10z m507 -5 l15 -16 -5 -6 -6 -5
-16 15 -15 16 0 5 0 6 6 0 5 0 16 -15z m-727 -15 l0 -10 -10 0 -10 0 0 10 0
10 10 0 10 0 0 -10z m660 4 l0 -5 -15 -16 -16 -15 -5 5 -6 6 13 15 14 15 8 1
7 0 0 -6z m-800 -24 l0 -10 -10 0 -10 0 0 10 0 10 10 0 10 0 0 -10z m320 0 l0
-10 -10 0 -10 0 0 10 0 10 10 0 10 0 0 -10z m527 -6 l16 -16 -14 -9 -14 -9 15
-10 15 -10 -15 -10 -15 -10 15 -9 14 -10 -6 -7 -7 -6 -17 17 -17 17 14 8 13 9
-23 20 -23 20 14 15 13 15 3 1 3 0 16 -16z m113 6 l0 -10 -10 0 -10 0 0 10 0
10 10 0 10 0 0 -10z m-220 -20 l0 -10 -10 0 -10 0 0 10 0 10 10 0 10 0 0 -10z
m160 0 l0 -10 -10 0 -10 0 0 10 0 10 10 0 10 0 0 -10z m-1000 -40 l0 -10 15 0
16 0 26 -26 25 -25 -6 -7 -7 -6 -10 14 -9 15 -9 -15 -10 -14 -8 8 -8 9 13 4
12 5 0 9 0 9 -30 0 -30 0 0 -10 0 -10 10 0 10 0 0 -20 0 -20 -10 0 -10 0 0
-60 0 -60 19 0 19 0 5 -12 4 -13 8 7 8 8 -22 20 -23 19 15 16 16 15 12 0 12 0
19 22 19 22 10 -14 9 -15 9 15 10 14 21 -23 20 -24 7 7 7 7 -14 9 -14 9 6 7 7
6 27 -27 27 -27 -14 -10 -14 -10 13 -5 12 -5 0 -28 0 -28 13 -5 12 -4 -25 -23
-25 -23 13 -4 12 -5 0 -29 0 -29 -10 0 -10 0 0 -16 0 -15 17 -17 16 -17 5 13
4 12 9 0 9 0 0 -30 0 -30 20 0 20 0 0 -10 0 -10 10 0 10 0 0 20 0 20 40 0 40
0 0 -10 0 -10 -26 0 -25 0 -16 -15 -15 -16 7 -7 8 -7 4 13 5 12 18 0 18 0 6
-12 6 -13 6 13 6 12 19 0 19 0 0 10 0 10 -10 0 -10 0 0 20 0 20 16 0 15 0 16
-16 16 -16 -14 -9 -14 -9 15 -9 14 -10 -7 -8 -8 -7 -10 14 -11 15 -5 -12 -5
-13 -15 0 -16 0 -18 -22 -19 -21 -8 8 -7 8 13 4 12 5 0 9 0 9 -19 0 -19 0 -5
-12 -4 -13 -20 23 -20 22 -13 0 -12 0 -31 33 -30 32 -4 -12 -5 -13 -19 0 -19
0 0 10 0 10 20 0 20 0 0 10 0 10 -10 0 -10 0 0 29 0 29 13 6 12 6 -12 6 -13 6
0 19 0 19 -36 0 -35 0 -15 -14 -14 -15 0 -15 0 -16 -10 0 -10 0 0 -10 0 -10
40 0 40 0 0 -26 0 -26 -30 -28 -30 -28 0 -46 0 -46 10 0 10 0 0 -15 0 -16 25
-24 24 -25 13 0 14 0 14 -20 14 -20 18 0 18 0 0 -20 0 -20 -10 0 -10 0 0 10 0
10 -40 0 -40 0 0 16 0 15 -14 15 -15 14 -25 0 -26 0 0 -10 0 -10 30 0 30 0 0
-10 0 -10 -30 0 -30 0 0 -10 0 -10 -20 0 -20 0 0 10 0 10 20 0 20 0 0 6 0 5
-15 16 -16 15 -18 -21 -18 -21 -46 0 -45 0 -6 13 -6 12 -6 -12 -6 -13 -9 0 -9
0 0 26 0 25 14 15 15 14 15 0 16 0 0 10 0 10 30 0 30 0 0 20 0 20 10 0 10 0 0
-10 0 -10 20 0 20 0 0 -10 0 -10 20 0 20 0 0 10 0 10 -20 0 -20 0 0 9 0 9 13
5 12 4 -9 9 -9 9 -4 -12 -5 -13 -18 0 -18 0 -5 13 -5 12 -12 -15 -12 -15 -5
13 -5 12 -19 0 -19 0 0 20 0 20 -10 0 -10 0 0 19 0 19 -12 6 -13 6 12 6 13 6
0 19 0 19 -10 0 -10 0 0 30 0 30 10 0 10 0 0 39 0 39 13 5 12 5 -15 12 -15 12
13 5 12 5 0 59 0 59 10 0 10 0 0 25 0 26 23 24 22 24 8 0 7 1 0 -10z m300 0
l0 -10 -10 0 -10 0 0 10 0 10 10 0 10 0 0 -10z m120 0 l0 -10 -10 0 -10 0 0
10 0 10 10 0 10 0 0 -10z m440 0 l0 -10 -10 0 -10 0 0 10 0 10 10 0 10 0 0
-10z m140 0 l0 -10 -10 0 -10 0 0 10 0 10 10 0 10 0 0 -10z m60 0 l0 -10 -10
0 -10 0 0 10 0 10 10 0 10 0 0 -10z m-1160 -20 l0 -10 -10 0 -10 0 0 10 0 10
10 0 10 0 0 -10z m480 0 l0 -10 -10 0 -10 0 0 10 0 10 10 0 10 0 0 -10z m400
0 l0 -10 -10 0 -10 0 0 10 0 10 10 0 10 0 0 -10z m120 0 l0 -10 -10 0 -10 0 0
10 0 10 10 0 10 0 0 -10z m120 -20 l0 -10 -10 0 -10 0 0 10 0 10 10 0 10 0 0
-10z m60 0 l0 -10 -10 0 -10 0 0 10 0 10 10 0 10 0 0 -10z m-640 -40 l0 -10
-10 0 -10 0 0 10 0 10 10 0 10 0 0 -10z m540 0 l0 -10 -10 0 -10 0 0 10 0 10
10 0 10 0 0 -10z m40 0 l0 -10 -10 0 -10 0 0 10 0 10 10 0 10 0 0 -10z m-660
-20 l0 -10 -10 0 -10 0 0 10 0 10 10 0 10 0 0 -10z m420 -20 l0 -10 -10 0 -10
0 0 10 0 10 10 0 10 0 0 -10z m320 0 l0 -10 -10 0 -10 0 0 10 0 10 10 0 10 0
0 -10z m-40 -16 l0 -5 -15 -16 -16 -15 -5 5 -6 6 13 15 14 15 8 1 7 0 0 -6z
m-465 -79 l25 -24 0 -26 0 -25 -10 0 -10 0 0 -19 0 -19 -12 -5 -13 -5 15 -12
15 -12 -12 -5 -13 -5 0 -19 0 -19 -10 0 -10 0 0 -19 0 -19 -12 -5 -13 -4 23
-20 22 -20 0 -16 0 -15 12 -4 13 -5 -17 -16 -17 -17 -25 0 -26 0 0 10 0 10
-40 0 -40 0 0 -10 0 -10 -20 0 -20 0 0 20 0 20 60 0 60 0 0 10 0 10 -10 0 -10
0 0 10 0 10 20 0 20 0 0 10 0 10 -20 0 -20 0 0 10 0 10 20 0 20 0 0 20 0 20
-10 0 -10 0 0 10 0 10 20 0 20 0 0 10 0 10 -10 0 -10 0 0 20 0 20 10 0 10 0 0
29 0 29 12 4 13 5 -18 17 -17 17 -15 -15 -15 -15 0 -11 0 -12 -30 -28 -30 -28
0 -11 0 -12 -25 -24 -24 -25 -6 0 -5 0 0 19 0 19 13 5 12 4 -7 8 -7 7 -41 -42
-41 -42 -6 6 -6 6 21 19 22 18 0 12 0 12 25 24 24 25 11 0 11 0 24 25 25 24 0
11 0 11 23 24 22 24 23 0 23 1 24 -25z m208 -7 l5 -13 10 14 10 14 28 -28 28
-29 -12 -4 -12 -4 0 -19 0 -19 -10 0 -10 0 0 -15 0 -16 -25 -24 -24 -25 -15 0
-14 0 -4 12 -4 12 -38 -38 -38 -37 7 -7 6 -6 9 13 8 14 16 -16 16 -16 0 -15 0
-16 -9 0 -9 0 -6 13 -6 12 -6 -12 -6 -13 -9 0 -9 0 0 20 0 20 -10 0 -10 0 0
20 0 20 10 0 10 0 0 30 0 30 10 0 10 0 0 26 0 25 16 16 16 16 8 -14 9 -13 8 8
8 9 -12 4 -13 5 0 19 0 19 10 0 10 0 0 -10 0 -10 10 0 10 0 0 20 0 20 9 0 9 0
5 -12z m297 -38 l0 -10 -10 0 -10 0 0 10 0 10 10 0 10 0 0 -10z m-780 -40 l0
-10 -10 0 -10 0 0 10 0 10 10 0 10 0 0 -10z m-200 -20 l0 -10 -10 0 -10 0 0
10 0 10 10 0 10 0 0 -10z m220 -40 l0 -10 -10 0 -10 0 0 10 0 10 10 0 10 0 0
-10z m-60 -20 l0 -10 -10 0 -10 0 0 10 0 10 10 0 10 0 0 -10z m20 -50 l0 -20
-10 0 -10 0 0 20 0 20 10 0 10 0 0 -20z m200 10 l0 -10 -10 0 -10 0 0 10 0 10
10 0 10 0 0 -10z m280 -40 l0 -10 -10 0 -10 0 0 10 0 10 10 0 10 0 0 -10z
m-660 -30 l0 -20 -10 0 -10 0 0 20 0 20 10 0 10 0 0 -20z m140 -30 l0 -10 16
0 15 0 16 -15 15 -16 -7 -7 -8 -7 -4 13 -5 12 -15 0 -14 0 -15 14 -14 15 0 5
0 6 10 0 10 0 0 -10z m680 -40 l0 -10 -20 0 -20 0 0 10 0 10 20 0 20 0 0 -10z
m-680 -20 l0 -10 -10 0 -10 0 0 -20 0 -20 -10 0 -10 0 0 15 0 16 13 14 12 14
8 1 7 0 0 -10z m206 -4 l14 -15 0 -5 0 -6 -20 0 -20 0 0 20 0 20 6 0 5 0 15
-14z m54 4 l0 -10 40 0 40 0 0 10 0 10 16 0 16 0 28 -30 28 -30 36 0 36 0 0
-10 0 -10 -30 0 -30 0 0 -10 0 -10 30 0 30 0 0 -10 0 -10 20 0 20 0 0 -9 0 -9
-12 -5 -13 -4 7 -8 7 -7 37 37 37 37 -14 9 -13 8 6 7 7 6 27 -27 27 -27 -13
-8 -13 -8 26 -26 26 -26 15 0 14 0 5 -12 5 -13 11 15 10 14 7 -6 6 -7 -15 -16
-16 -15 -12 0 -12 0 -19 22 -19 22 -10 -14 -11 -15 -5 13 -5 12 -19 0 -19 0 0
9 0 9 13 5 12 4 -7 8 -8 8 -19 -21 -18 -22 -16 0 -15 0 -5 13 -4 12 -22 -24
-21 -24 -21 24 -20 23 -9 -14 -9 -14 -7 6 -6 7 15 16 16 15 25 0 26 0 0 -10 0
-10 10 0 10 0 0 20 0 20 -35 0 -36 0 -24 -25 -25 -24 0 -15 0 -14 13 -5 12 -4
-9 -9 -9 -9 -4 13 -5 12 -38 0 -38 0 -6 13 -6 12 -6 -12 -6 -13 -35 0 -34 0
-15 15 -15 15 15 15 15 15 15 0 16 0 0 10 0 10 -20 0 -20 0 0 -10 0 -10 -20 0
-20 0 0 -10 0 -10 -18 0 -18 0 -14 20 -14 20 -8 0 -8 0 0 -20 0 -20 -10 0 -10
0 0 16 0 15 14 15 15 14 15 0 16 0 0 10 0 10 20 0 20 0 0 10 0 10 20 0 20 0 0
-5 0 -6 -26 -26 -26 -26 -8 14 -9 13 -7 -6 -6 -7 16 -16 16 -17 31 33 31 33 9
-15 9 -14 10 15 10 15 10 -15 10 -15 9 14 9 14 16 -16 16 -16 0 -5 0 -6 -30 0
-30 0 0 -10 0 -10 28 0 28 0 14 20 14 20 38 0 38 0 0 10 0 10 -39 0 -39 0 -5
-12 -4 -13 -32 34 -31 34 -19 -22 -18 -21 -7 0 -6 0 0 19 0 19 13 6 12 6 -12
6 -13 6 0 9 0 9 20 0 20 0 0 -10z m20 -60 l0 -10 -10 0 -10 0 0 10 0 10 10 0
10 0 0 -10z m427 -45 l15 -16 -5 -6 -6 -5 -16 15 -15 16 0 5 0 6 6 0 5 0 16
-15z m-667 -25 l0 -20 -6 0 -5 0 -15 14 -14 15 0 5 0 6 20 0 20 0 0 -20z
m-154 -34 l14 -15 0 -5 0 -6 -16 0 -15 0 -15 14 -14 15 0 5 0 6 16 0 15 0 15
-14z m54 -16 l0 -10 -10 0 -10 0 0 10 0 10 10 0 10 0 0 -10z m100 0 l0 -10
-30 0 -30 0 0 10 0 10 30 0 30 0 0 -10z m60 -10 l0 -20 -10 0 -10 0 0 20 0 20
10 0 10 0 0 -20z m40 10 l0 -10 -10 0 -10 0 0 10 0 10 10 0 10 0 0 -10z m-340
-20 l0 -10 -10 0 -10 0 0 10 0 10 10 0 10 0 0 -10z m640 0 l0 -10 -10 0 -10 0
0 10 0 10 10 0 10 0 0 -10z"/>
<path d="M1080 1030 l0 -10 10 0 10 0 0 10 0 10 -10 0 -10 0 0 -10z"/>
<path d="M240 810 l0 -10 10 0 10 0 0 10 0 10 -10 0 -10 0 0 -10z"/>
<path d="M300 810 l0 -10 10 0 10 0 0 10 0 10 -10 0 -10 0 0 -10z"/>
<path d="M280 770 l0 -10 10 0 10 0 0 10 0 10 -10 0 -10 0 0 -10z"/>
<path d="M140 720 l0 -40 19 0 19 0 5 -12 4 -13 9 9 9 9 -12 4 -13 5 0 9 0 9
20 0 20 0 0 10 0 10 -20 0 -20 0 0 -10 0 -10 -10 0 -10 0 0 30 0 30 -10 0 -10
0 0 -40z"/>
<path d="M240 750 l0 -10 10 0 10 0 0 10 0 10 -10 0 -10 0 0 -10z"/>
<path d="M320 750 l0 -10 10 0 10 0 0 10 0 10 -10 0 -10 0 0 -10z"/>
<path d="M360 730 l0 -10 10 0 10 0 0 10 0 10 -10 0 -10 0 0 -10z"/>
<path d="M100 690 l0 -10 10 0 10 0 0 10 0 10 -10 0 -10 0 0 -10z"/>
<path d="M160 630 l0 -10 10 0 10 0 0 10 0 10 -10 0 -10 0 0 -10z"/>
<path d="M100 590 l0 -10 10 0 10 0 0 10 0 10 -10 0 -10 0 0 -10z"/>
<path d="M140 550 l0 -10 10 0 10 0 0 10 0 10 -10 0 -10 0 0 -10z"/>
<path d="M600 530 l0 -10 10 0 10 0 0 10 0 10 -10 0 -10 0 0 -10z"/>
<path d="M140 390 l0 -10 -30 0 -30 0 0 -10 0 -10 30 0 30 0 0 10 0 10 30 0
30 0 0 -20 0 -20 10 0 10 0 0 10 0 10 20 0 20 0 0 10 0 10 -30 0 -30 0 0 10 0
10 -30 0 -30 0 0 -10z"/>
<path d="M40 350 l0 -10 10 0 10 0 0 10 0 10 -10 0 -10 0 0 -10z"/>
<path d="M160 350 l0 -10 -40 0 -40 0 0 -10 0 -10 36 0 35 0 15 14 14 15 0 5
0 6 -10 0 -10 0 0 -10z"/>
<path d="M320 310 l0 -10 10 0 10 0 0 10 0 10 -10 0 -10 0 0 -10z"/>
<path d="M693 465 l-13 -14 0 -6 0 -5 30 0 30 0 0 6 0 5 -14 15 -15 14 -3 0
-3 -1 -12 -14z"/>
<path d="M942 694 l-44 -45 5 -6 6 -5 45 46 46 45 0 6 0 5 -7 -1 -8 0 -43 -45z"/>
<path d="M951 644 l-13 -15 6 -6 5 -5 16 15 15 16 0 5 0 6 -7 0 -8 -1 -14 -15z"/>
<path d="M740 370 l0 -10 30 0 30 0 0 10 0 10 -30 0 -30 0 0 -10z"/>
<path d="M760 270 l0 -10 -20 0 -20 0 0 -10 0 -10 30 0 30 0 0 20 0 20 -10 0
-10 0 0 -10z"/>
<path d="M620 250 l0 -10 40 0 40 0 0 10 0 10 -40 0 -40 0 0 -10z"/>
<path d="M880 250 l0 -10 10 0 10 0 0 10 0 10 -10 0 -10 0 0 -10z"/>
<path d="M1040 250 l0 -10 10 0 10 0 0 10 0 10 -10 0 -10 0 0 -10z"/>
<path d="M991 844 l-13 -15 6 -6 5 -5 16 15 15 16 0 5 0 6 -7 0 -8 -1 -14 -15z"/>
<path d="M1060 700 l0 -20 20 0 20 0 0 6 0 5 -14 15 -15 14 -5 0 -6 0 0 -20z"/>
<path d="M1080 650 l0 -10 10 0 10 0 0 10 0 10 -10 0 -10 0 0 -10z"/>
<path d="M1232 564 l-34 -35 5 -6 6 -5 35 36 36 35 0 6 0 5 -7 -1 -8 0 -33
-35z"/>
<path d="M1180 570 l0 -10 10 0 10 0 0 10 0 10 -10 0 -10 0 0 -10z"/>
<path d="M1233 485 l-33 -34 0 -16 0 -15 10 0 10 0 0 16 0 16 30 28 30 28 0 6
0 6 -7 -1 -8 0 -32 -34z"/>
<path d="M0 470 l0 -10 20 0 20 0 0 10 0 10 -20 0 -20 0 0 -10z"/>
<path d="M1160 470 l0 -10 10 0 10 0 0 10 0 10 -10 0 -10 0 0 -10z"/>
<path d="M1160 430 l0 -10 10 0 10 0 0 10 0 10 -10 0 -10 0 0 -10z"/>
<path d="M1240 410 l0 -10 -20 0 -20 0 0 -10 0 -10 30 0 30 0 0 -10 0 -10 -39
0 -39 0 -5 13 -4 12 -8 -7 -7 -7 15 -16 16 -15 31 0 31 0 17 17 17 16 -13 5
-12 4 0 19 0 19 -10 0 -10 0 0 -10z"/>
<path d="M1220 310 l0 -10 30 0 30 0 0 10 0 10 -30 0 -30 0 0 -10z"/>
</g>
</svg>
