<?xml version="1.0" standalone="no"?>
<!DOCTYPE svg PUBLIC "-//W3C//DTD SVG 20010904//EN"
 "http://www.w3.org/TR/2001/REC-SVG-20010904/DTD/svg10.dtd">
<svg version="1.0" xmlns="http://www.w3.org/2000/svg"
 width="468pt" height="468pt" viewBox="0 0 468 468"
 preserveAspectRatio="xMidYMid meet">
<metadata>
Created by potrace 1.8, written by Peter Selinger 2001-2007
</metadata>
<g transform="translate(0,468) scale(0.365625,-0.365625)"
fill="#000000" stroke="none">
<path d="M953 1225 l-33 -34 0 -12 0 -11 30 -28 30 -28 0 -16 0 -16 -30 0 -30
0 0 -10 0 -10 45 0 45 0 95 -95 95 -95 0 -125 0 -125 -10 0 -10 0 0 40 0 40
-206 0 -205 0 -15 -14 -14 -15 0 -25 0 -26 -30 0 -30 0 0 -10 0 -10 -10 0 -10
0 0 220 0 220 -10 0 -10 0 0 -130 0 -130 -9 0 -9 0 -4 12 -5 13 -17 -18 -17
-17 17 -17 17 -18 5 13 4 12 9 0 9 0 0 -80 0 -80 -10 0 -10 0 0 10 0 10 -30 0
-30 0 0 26 0 25 -14 15 -15 14 -205 0 -206 0 0 -40 0 -40 -10 0 -10 0 0 125 0
126 72 71 73 71 -13 5 -12 4 0 69 0 69 -10 0 -10 0 0 20 0 20 -10 0 -10 0 0
-30 0 -30 -49 0 -49 0 -4 12 -5 13 -17 -18 -17 -17 17 -17 17 -18 5 13 4 12
49 0 49 0 0 -50 0 -50 -10 0 -10 0 0 -36 0 -36 -40 -38 -40 -38 0 -122 0 -121
16 -16 16 -16 8 13 8 13 17 -17 17 -17 -6 -7 -7 -6 -10 14 -11 15 -5 -12 -5
-13 -49 0 -49 0 0 -9 0 -9 13 -6 12 -6 -12 -6 -13 -6 0 -39 0 -39 10 0 10 0 0
10 0 10 20 0 20 0 0 -9 0 -9 -12 -4 -13 -5 18 -17 18 -18 7 6 6 7 -14 10 -15
11 13 5 12 5 0 39 0 39 -10 0 -10 0 0 10 0 10 35 0 36 0 24 -25 25 -24 0 -21
0 -22 -40 -38 -40 -38 0 -6 0 -6 16 0 16 0 28 30 28 30 26 0 26 0 0 -10 0 -10
30 0 30 0 0 -10 0 -10 30 0 30 0 0 -50 0 -50 10 0 10 0 0 20 0 20 20 0 20 0 0
10 0 10 -20 0 -20 0 0 20 0 20 100 0 100 0 0 10 0 10 10 0 10 0 0 -20 0 -20
30 0 30 0 0 20 0 20 10 0 10 0 0 -10 0 -10 140 0 140 0 0 10 0 10 30 0 30 0 0
10 0 10 26 0 26 0 28 -30 28 -30 16 0 16 0 0 6 0 6 -40 38 -40 38 0 22 0 21
25 24 24 25 26 0 25 0 0 -10 0 -10 -10 0 -10 0 0 -40 0 -40 10 0 10 0 0 10 0
10 20 0 20 0 0 -9 0 -9 -12 -5 -13 -4 7 -8 7 -7 16 15 15 16 0 34 0 35 -12 6
-13 6 13 6 12 6 0 9 0 9 -39 0 -39 0 -5 13 -5 12 -11 -15 -10 -14 -7 6 -6 7
17 17 17 17 8 -13 8 -13 16 16 16 16 0 121 0 121 -100 99 -100 99 0 22 0 21
30 28 30 28 0 11 0 12 -35 34 -34 35 -13 -1 -13 0 -32 -34z m73 1 l14 -15 0
-31 0 -31 -14 -15 -15 -14 -11 0 -11 0 -15 14 -14 15 0 31 0 31 13 14 12 14
13 1 13 0 15 -14z m-406 -456 l0 -10 -10 0 -10 0 0 10 0 10 10 0 10 0 0 -10z
m-80 -130 l0 -40 40 0 40 0 0 -30 0 -30 -10 0 -10 0 0 -20 0 -20 -165 0 -165
0 -65 65 -65 65 0 25 0 25 200 0 200 0 0 -40z m620 15 l0 -25 -65 -65 -65 -65
-165 0 -165 0 0 20 0 20 -10 0 -10 0 0 30 0 30 40 0 40 0 0 40 0 40 200 0 200
0 0 -25z m-500 -75 l0 -20 -10 0 -10 0 0 20 0 20 10 0 10 0 0 -20z m-445 -45
l45 -44 0 -15 0 -14 13 -5 12 -4 -7 -8 -7 -7 -25 25 -26 26 0 12 0 11 -30 28
-30 28 0 6 0 6 5 0 6 0 44 -45z m925 39 l0 -6 -30 -28 -30 -28 0 -11 0 -12
-26 -26 -25 -25 -7 7 -7 8 13 4 12 5 0 14 0 14 43 45 42 44 8 0 7 1 0 -6z
m-460 -50 l0 -15 14 -15 15 -14 15 0 16 0 0 -6 0 -5 -14 -15 -15 -14 -15 0
-16 0 0 30 0 30 -9 0 -9 0 -6 -12 -6 -13 -6 13 -6 12 -9 0 -9 0 0 -30 0 -30
-16 0 -15 0 -15 14 -14 15 0 5 0 6 16 0 15 0 15 14 14 15 0 15 0 16 30 0 30 0
0 -16z m-20 -74 l0 -10 -10 0 -10 0 0 10 0 10 10 0 10 0 0 -10z m0 -40 l0 -10
-10 0 -10 0 0 10 0 10 10 0 10 0 0 -10z"/>
<path d="M980 1180 l0 -20 20 0 20 0 0 20 0 20 -20 0 -20 0 0 -20z"/>
<path d="M260 600 l0 -60 10 0 10 0 0 40 0 40 6 0 6 0 38 -40 38 -40 6 0 6 0
0 60 0 60 -10 0 -10 0 0 -40 0 -40 -6 0 -6 0 -38 40 -38 40 -6 0 -6 0 0 -60z"/>
<path d="M433 645 l-13 -14 0 -46 0 -45 10 0 10 0 0 20 0 20 30 0 30 0 0 -20
0 -20 10 0 10 0 0 46 0 45 -14 15 -15 14 -23 0 -23 -1 -12 -14z m67 -25 l0
-20 -30 0 -30 0 0 20 0 20 30 0 30 0 0 -20z"/>
<path d="M793 645 l-13 -14 0 -16 0 -15 20 0 20 0 0 -10 0 -10 20 0 20 0 0
-10 0 -10 -29 0 -29 0 -5 13 -4 12 -8 -7 -7 -7 15 -16 16 -15 21 0 21 0 15 15
15 15 -15 15 -15 15 -11 0 -11 0 -15 14 -14 15 0 5 0 6 29 0 29 0 5 -12 4 -13
8 7 7 7 -15 16 -16 15 -23 0 -23 -1 -12 -14z"/>
<path d="M933 645 l-13 -14 0 -46 0 -45 10 0 10 0 0 20 0 20 30 0 30 0 0 -20
0 -20 10 0 10 0 0 46 0 45 -14 15 -15 14 -23 0 -23 -1 -12 -14z m67 -25 l0
-20 -30 0 -30 0 0 20 0 20 30 0 30 0 0 -20z"/>
<path d="M360 1115 l0 -6 25 -24 24 -25 241 0 241 0 24 25 25 24 0 6 0 5 -290
0 -290 0 0 -5z"/>
<path d="M261 1054 l-23 -25 6 -6 6 -6 19 21 18 22 47 0 46 0 0 10 0 10 -47
-1 -48 0 -24 -25z"/>
<path d="M203 954 l-83 -84 0 -75 0 -75 165 0 165 0 85 85 85 85 0 75 0 75
-167 -1 -168 -1 -82 -84z"/>
<path d="M680 965 l0 -75 85 -85 85 -85 165 0 165 0 0 75 0 75 -85 85 -85 85
-165 0 -165 0 0 -75z"/>
<path d="M680 770 l0 -30 20 0 20 0 0 30 0 30 -20 0 -20 0 0 -30z"/>
<path d="M20 431 l0 -9 13 -5 12 -5 -15 -11 -15 -11 15 -10 15 -10 -15 -10
-15 -10 15 -10 15 -10 -15 -10 -15 -10 15 -10 15 -10 -15 -9 -14 -10 6 -7 7
-6 17 17 17 17 -14 8 -13 9 23 20 24 21 -24 21 -23 20 13 9 14 8 -16 16 -16
16 -5 0 -6 0 0 -9z m40 -81 l0 -10 -10 0 -10 0 0 10 0 10 10 0 10 0 0 -10z"/>
<path d="M1180 434 l0 -5 15 -16 16 -15 6 5 5 6 -15 16 -16 15 -5 0 -6 0 0 -6z"/>
<path d="M1240 410 l0 -10 10 0 10 0 0 10 0 10 -10 0 -10 0 0 -10z"/>
<path d="M80 390 l0 -10 10 0 10 0 0 10 0 10 -10 0 -10 0 0 -10z"/>
<path d="M1200 375 l0 -6 26 -26 25 -25 7 6 6 7 -14 10 -15 9 15 9 14 10 -7 8
-8 7 -10 -14 -11 -15 -5 13 -5 12 -9 0 -9 0 0 -5z"/>
<path d="M120 330 l0 -30 20 0 20 0 0 30 0 30 -20 0 -20 0 0 -30z"/>
<path d="M620 330 l0 -30 30 0 30 0 0 30 0 30 -30 0 -30 0 0 -30z"/>
<path d="M1140 330 l0 -30 20 0 20 0 0 30 0 30 -20 0 -20 0 0 -30z"/>
<path d="M1200 310 l0 -10 10 0 10 0 0 10 0 10 -10 0 -10 0 0 -10z"/>
<path d="M1240 290 l0 -10 10 0 10 0 0 10 0 10 -10 0 -10 0 0 -10z"/>
<path d="M120 270 l0 -10 -26 0 -25 0 -15 -14 -14 -15 0 -5 0 -6 100 0 100 0
0 6 0 5 -14 15 -15 14 -25 0 -26 0 0 10 0 10 -20 0 -20 0 0 -10z"/>
<path d="M620 270 l0 -10 -36 0 -35 0 -15 -14 -14 -15 0 -5 0 -6 130 0 130 0
0 6 0 5 -14 15 -15 14 -35 0 -36 0 0 10 0 10 -30 0 -30 0 0 -10z"/>
<path d="M1140 270 l0 -10 -26 0 -25 0 -15 -14 -14 -15 0 -5 0 -6 100 0 100 0
0 6 0 5 -14 15 -15 14 -25 0 -26 0 0 10 0 10 -20 0 -20 0 0 -10z"/>
<path d="M0 230 l0 -10 10 0 10 0 0 10 0 10 -10 0 -10 0 0 -10z"/>
<path d="M260 230 l0 -10 120 0 120 0 0 10 0 10 -120 0 -120 0 0 -10z"/>
<path d="M800 230 l0 -10 120 0 120 0 0 10 0 10 -120 0 -120 0 0 -10z"/>
<path d="M0 100 l0 -100 640 0 640 0 0 100 0 100 -640 0 -640 0 0 -100z"/>
</g>
</svg>
