<?xml version="1.0" standalone="no"?>
<!DOCTYPE svg PUBLIC "-//W3C//DTD SVG 20010904//EN"
 "http://www.w3.org/TR/2001/REC-SVG-20010904/DTD/svg10.dtd">
<svg version="1.0" xmlns="http://www.w3.org/2000/svg"
 width="468pt" height="468pt" viewBox="0 0 468 468"
 preserveAspectRatio="xMidYMid meet">
<metadata>
Created by potrace 1.8, written by Peter Selinger 2001-2007
</metadata>
<g transform="translate(0,468) scale(0.365625,-0.365625)"
fill="#000000" stroke="none">
<path d="M530 1240 l0 -10 -80 0 -80 0 0 -110 0 -110 -40 0 -40 0 0 -10 0 -10
-25 0 -25 0 0 -30 0 -30 -15 0 -15 0 0 -25 0 -25 -65 0 -65 0 0 -65 0 -65 -25
0 -25 0 0 -150 0 -150 25 0 25 0 0 -10 0 -10 -15 0 -15 0 0 -30 0 -30 -10 0
-10 0 0 -76 0 -75 14 -15 15 -14 10 0 11 0 0 -15 0 -15 15 0 15 0 0 -11 0 -10
14 -15 15 -14 65 0 66 0 0 10 0 10 25 0 25 0 0 15 0 15 15 0 15 0 0 11 0 10
14 15 15 14 10 0 11 0 0 15 0 15 15 0 15 0 0 25 0 25 10 0 10 0 0 30 0 30 15
0 15 0 0 10 0 10 25 0 25 0 0 15 0 15 40 0 40 0 0 15 0 15 15 0 15 0 0 -55 0
-55 -15 0 -15 0 0 15 0 15 -25 0 -25 0 0 -15 0 -15 -25 0 -25 0 0 -25 0 -25
-15 0 -15 0 0 -15 0 -15 15 0 15 0 0 -15 0 -15 25 0 25 0 0 -10 0 -10 15 0 15
0 0 10 0 10 25 0 25 0 0 -40 0 -40 -15 0 -15 0 0 15 0 15 -40 0 -40 0 0 -40 0
-40 30 0 30 0 0 15 0 15 25 0 25 0 0 -30 0 -30 15 0 15 0 0 -10 0 -10 105 0
105 0 0 65 0 65 15 0 15 0 0 -11 0 -10 14 -15 15 -14 10 0 11 0 0 10 0 10 15
0 15 0 0 15 0 15 -15 0 -15 0 0 15 0 15 -40 0 -40 0 0 25 0 25 15 0 15 0 0 15
0 15 25 0 25 0 0 -15 0 -15 25 0 25 0 0 15 0 15 15 0 15 0 0 10 0 10 25 0 25
0 0 15 0 15 -10 0 -10 0 0 14 0 14 13 6 12 6 -12 6 -13 6 0 14 0 14 -40 0 -40
0 0 15 0 15 -30 0 -30 0 0 -15 0 -15 -10 0 -10 0 0 -25 0 -25 10 0 10 0 0 -15
0 -15 -10 0 -10 0 0 -15 0 -15 -15 0 -15 0 0 110 0 110 40 0 40 0 0 10 0 10
40 0 40 0 0 15 0 15 40 0 40 0 0 15 0 15 40 0 40 0 0 10 0 10 25 0 25 0 0 135
0 135 -10 0 -10 0 0 25 0 25 -15 0 -15 0 0 15 0 15 -15 0 -15 0 0 15 0 15 -25
0 -25 0 0 10 0 10 -345 0 -345 0 0 30 0 30 65 0 65 0 0 10 0 10 65 0 65 0 0
80 0 80 -80 0 -80 0 0 -10z"/>
</g>
</svg>
