<?xml version="1.0" standalone="no"?>
<!DOCTYPE svg PUBLIC "-//W3C//DTD SVG 20010904//EN"
 "http://www.w3.org/TR/2001/REC-SVG-20010904/DTD/svg10.dtd">
<svg version="1.0" xmlns="http://www.w3.org/2000/svg"
 width="468pt" height="468pt" viewBox="0 0 468 468"
 preserveAspectRatio="xMidYMid meet">
<metadata>
Created by potrace 1.8, written by Peter Selinger 2001-2007
</metadata>
<g transform="translate(0,468) scale(0.365625,-0.365625)"
fill="#000000" stroke="none">
<path d="M0 640 l0 -640 640 0 640 0 0 640 0 640 -640 0 -640 0 0 -640z m1240
10 l0 -610 -610 0 -610 0 0 610 0 610 610 0 610 0 0 -610z"/>
<path d="M393 1205 l-13 -14 0 -26 0 -25 -10 0 -10 0 0 -40 0 -40 -10 0 -10 0
0 -20 0 -20 -6 0 -5 0 -15 14 -14 15 0 15 0 16 -20 0 -20 0 0 10 0 10 -50 0
-50 0 0 -10 0 -10 45 0 46 0 24 -25 25 -24 0 -16 0 -15 -10 0 -10 0 0 10 0 10
-20 0 -20 0 0 10 0 10 -30 0 -30 0 0 -10 0 -10 -20 0 -20 0 0 -10 0 -10 20 0
20 0 0 10 0 10 26 0 25 0 15 -15 16 -15 -41 -39 -41 -39 0 -16 0 -16 -10 0
-10 0 0 -30 0 -30 -10 0 -10 0 0 -20 0 -20 -10 0 -10 0 0 -140 0 -140 10 0 10
0 0 -40 0 -40 10 0 10 0 0 -30 0 -30 20 0 20 0 0 -20 0 -20 30 0 30 0 0 -10 0
-10 30 0 30 0 0 -10 0 -10 30 0 30 0 0 -10 0 -10 50 0 50 0 0 10 0 10 20 0 20
0 0 10 0 10 -20 0 -20 0 0 -10 0 -10 -36 0 -35 0 -15 14 -14 15 0 35 0 36 -20
0 -20 0 0 -10 0 -10 -20 0 -20 0 0 -10 0 -10 -36 0 -35 0 -15 14 -14 15 0 13
0 14 20 14 20 14 0 28 0 28 -20 0 -20 0 0 10 0 10 -16 0 -15 0 -15 14 -14 15
0 35 0 36 10 0 10 0 0 16 0 15 14 15 15 14 11 0 11 0 16 15 15 15 -31 29 -31
29 0 16 0 16 -10 0 -10 0 0 16 0 15 14 15 15 14 15 0 16 0 0 -10 0 -10 50 0
50 0 0 10 0 10 -10 0 -10 0 0 20 0 20 -10 0 -10 0 0 30 0 30 10 0 10 0 0 16 0
16 40 38 40 38 0 15 0 15 13 6 12 6 -12 6 -13 6 0 19 0 19 10 0 10 0 0 -20 0
-20 10 0 10 0 0 -19 0 -19 -12 -5 -13 -4 8 -9 8 -8 10 14 9 15 9 -15 10 -14 8
8 8 9 -12 4 -13 5 0 19 0 19 6 0 6 0 29 -31 30 -32 7 7 6 7 -13 9 -14 8 16 16
16 16 5 0 6 0 0 -18 0 -18 20 -14 20 -14 0 -18 0 -18 10 0 10 0 0 16 0 15 16
16 16 16 8 -14 9 -13 8 8 8 9 -12 4 -13 5 0 19 0 19 6 0 6 0 29 -31 30 -32 7
7 6 7 -13 9 -14 8 16 17 17 16 17 -16 16 -17 -14 -8 -13 -9 6 -7 7 -6 17 17
17 17 -14 10 -14 10 13 5 12 5 0 19 0 19 10 0 10 0 0 -50 0 -50 10 0 10 0 0
-20 0 -20 10 0 10 0 0 -70 0 -70 20 0 20 0 0 10 0 10 20 0 20 0 0 10 0 10 20
0 20 0 0 -20 0 -20 10 0 10 0 0 -20 0 -20 -10 0 -10 0 0 -30 0 -30 -10 0 -10
0 0 -20 0 -20 30 0 30 0 0 10 0 10 30 0 30 0 0 -36 0 -35 -14 -15 -15 -14 -11
0 -11 0 -25 -25 -25 -26 30 -28 31 -29 0 -21 0 -22 -25 -24 -24 -25 -36 0 -35
0 0 10 0 10 -10 0 -10 0 0 -70 0 -70 -20 0 -20 0 0 10 0 10 -20 0 -20 0 0 20
0 20 -16 0 -15 0 -15 -14 -14 -15 0 -21 0 -21 -14 -15 -15 -14 -15 0 -16 0 0
10 0 10 -20 0 -20 0 0 -10 0 -10 20 0 20 0 0 -10 0 -10 40 0 40 0 0 10 0 10
20 0 20 0 0 10 0 10 40 0 40 0 0 10 0 10 15 0 16 0 44 45 45 44 0 14 0 13 20
14 20 14 0 38 0 38 10 0 10 0 0 20 0 20 10 0 10 0 0 80 0 80 -10 0 -10 0 0 18
0 18 -20 14 -20 14 0 16 0 16 -20 14 -20 14 0 18 0 18 -10 0 -10 0 0 15 0 16
-25 24 -24 25 -16 0 -15 0 0 10 0 10 20 0 20 0 0 -10 0 -10 19 0 19 0 5 -12 4
-13 8 7 7 7 -25 25 -26 26 -31 0 -31 0 -24 25 -25 24 0 36 0 35 -10 0 -10 0 0
26 0 25 -14 15 -15 14 -45 0 -46 0 0 -10 0 -10 -18 0 -18 0 -14 -20 -14 -20
-26 0 -26 0 -14 20 -14 20 -18 0 -18 0 0 10 0 10 -47 0 -48 -1 -12 -14z m157
-45 l14 -20 26 0 26 0 14 20 14 20 18 0 18 0 0 -8 0 -8 -20 -14 -20 -14 0 -18
0 -18 -10 0 -10 0 0 -16 0 -15 -15 -15 -15 -15 -15 15 -15 15 0 15 0 16 -10 0
-10 0 0 20 0 20 -10 0 -10 0 0 -16 0 -15 -15 -15 -15 -15 -15 15 -15 15 0 15
0 16 10 0 10 0 0 -20 0 -20 10 0 10 0 0 20 0 20 10 0 10 0 0 20 0 20 8 0 8 0
14 -20z m-110 -40 l0 -20 -10 0 -10 0 0 20 0 20 10 0 10 0 0 -20z m240 0 l0
-20 10 0 10 0 0 20 0 20 10 0 10 0 0 -16 0 -15 -15 -15 -15 -15 -15 15 -15 15
0 15 0 16 10 0 10 0 0 -20z m80 0 l0 -20 -10 0 -10 0 0 20 0 20 10 0 10 0 0
-20z"/>
<path d="M920 1070 l0 -10 -30 0 -30 0 0 -10 0 -10 30 0 30 0 0 10 0 10 30 0
30 0 0 -10 0 -10 20 0 20 0 0 10 0 10 -20 0 -20 0 0 10 0 10 -30 0 -30 0 0
-10z"/>
<path d="M480 950 l0 -10 -15 0 -16 0 -24 -25 -25 -24 0 -76 0 -75 -35 0 -36
0 -24 -25 -25 -24 0 -16 0 -15 10 0 10 0 0 16 0 15 14 15 15 14 35 0 36 0 0
-15 0 -16 35 -34 34 -35 41 0 41 0 15 -14 14 -15 0 -35 0 -36 -20 0 -20 0 0
30 0 30 10 0 10 0 0 10 0 10 -20 0 -20 0 0 -10 0 -10 -36 0 -36 0 -28 30 -28
30 -16 0 -16 0 0 9 0 9 13 5 12 4 -7 8 -7 7 -28 -28 -27 -28 12 -4 12 -4 0
-29 0 -29 10 0 10 0 0 -45 0 -46 35 -34 34 -35 161 0 161 0 34 35 35 34 0 46
0 45 10 0 10 0 0 29 0 29 12 4 12 4 -27 28 -28 28 -7 -7 -7 -8 13 -4 12 -5 0
-9 0 -9 -16 0 -16 0 -28 -30 -28 -30 -36 0 -36 0 0 10 0 10 -20 0 -20 0 0 -10
0 -10 10 0 10 0 0 -30 0 -30 -20 0 -20 0 0 36 0 35 14 15 15 14 41 0 41 0 34
35 35 34 0 16 0 15 36 0 35 0 15 -14 14 -15 0 -25 0 -26 10 0 10 0 0 25 0 26
-25 24 -24 25 -36 0 -35 0 0 75 0 76 -25 24 -24 25 -16 0 -15 0 0 10 0 10 -36
0 -37 0 -18 -22 -19 -21 -19 21 -18 22 -37 0 -36 0 0 -10z m86 -24 l14 -15 0
-121 0 -121 -14 -15 -15 -14 -41 0 -41 0 -24 25 -25 24 0 101 0 101 14 15 15
14 15 0 16 0 0 10 0 10 36 0 35 0 15 -14z m134 4 l0 -10 16 0 15 0 15 -14 14
-15 0 -101 0 -101 -25 -24 -24 -25 -41 0 -41 0 -15 14 -14 15 0 121 0 121 13
14 12 14 38 1 37 0 0 -10z m-300 -340 l0 -30 -20 0 -20 0 0 30 0 30 20 0 20 0
0 -30z m420 0 l0 -30 -20 0 -20 0 0 30 0 30 20 0 20 0 0 -30z m-374 -24 l14
-15 0 -14 0 -15 -12 -6 -13 -6 13 -6 12 -6 0 -39 0 -39 -20 0 -20 0 0 49 0 49
13 6 12 6 -12 6 -13 6 0 19 0 19 6 0 5 0 15 -14z m314 -5 l0 -19 -12 -6 -13
-6 13 -6 12 -6 0 -49 0 -49 -20 0 -20 0 0 39 0 39 13 6 12 6 -12 6 -13 6 0 14
0 15 13 14 12 14 8 1 7 0 0 -19z m-240 -21 l0 -20 -20 0 -20 0 0 20 0 20 20 0
20 0 0 -20z m180 0 l0 -20 -20 0 -20 0 0 20 0 20 20 0 20 0 0 -20z m-300 -40
l0 -40 -10 0 -10 0 0 40 0 40 10 0 10 0 0 -40z m400 0 l0 -40 -10 0 -10 0 0
40 0 40 10 0 10 0 0 -40z m-280 -40 l0 -40 -20 0 -20 0 0 40 0 40 20 0 20 0 0
-40z m60 0 l0 -40 -20 0 -20 0 0 40 0 40 20 0 20 0 0 -40z m60 0 l0 -40 -20 0
-20 0 0 40 0 40 20 0 20 0 0 -40z m60 0 l0 -40 -20 0 -20 0 0 40 0 40 20 0 20
0 0 -40z"/>
<path d="M520 730 l0 -30 20 0 20 0 0 30 0 30 -20 0 -20 0 0 -30z"/>
<path d="M620 730 l0 -30 20 0 20 0 0 30 0 30 -20 0 -20 0 0 -30z"/>
<path d="M1100 280 l0 -20 -10 0 -10 0 0 -30 0 -30 -10 0 -10 0 0 -20 0 -20
16 0 15 0 15 14 14 15 0 25 0 26 10 0 10 0 0 30 0 30 -20 0 -20 0 0 -20z"/>
<path d="M103 195 l-23 -24 0 -31 0 -31 14 -15 15 -14 31 0 31 0 15 14 14 15
0 25 0 26 -30 0 -30 0 0 -10 0 -10 20 0 20 0 0 -20 0 -20 -40 0 -40 0 0 36 0
35 14 15 15 14 35 0 36 0 0 10 0 10 -37 -1 -38 0 -22 -24z"/>
<path d="M273 205 l-13 -14 0 -16 0 -15 -10 0 -10 0 0 -20 0 -20 -10 0 -10 0
0 -20 0 -20 10 0 10 0 0 20 0 20 50 0 50 0 0 -20 0 -20 10 0 10 0 0 20 0 20
-10 0 -10 0 0 20 0 20 -10 0 -10 0 0 16 0 15 -14 15 -15 14 -3 0 -3 -1 -12
-14z m27 -25 l0 -20 10 0 10 0 0 -10 0 -10 -30 0 -30 0 0 10 0 10 10 0 10 0 0
20 0 20 10 0 10 0 0 -20z"/>
<path d="M380 150 l0 -70 10 0 10 0 0 30 0 30 30 0 30 0 0 -30 0 -30 10 0 10
0 0 29 0 29 -12 6 -13 6 13 6 12 6 0 15 0 14 -14 15 -15 14 -35 0 -36 0 0 -70z
m80 30 l0 -20 -30 0 -30 0 0 20 0 20 30 0 30 0 0 -20z"/>
<path d="M500 150 l0 -70 10 0 10 0 0 30 0 30 20 0 20 0 0 10 0 10 -20 0 -20
0 0 20 0 20 30 0 30 0 0 10 0 10 -40 0 -40 0 0 -70z"/>
<path d="M600 210 l0 -10 10 0 10 0 0 -50 0 -50 -10 0 -10 0 0 -10 0 -10 30 0
30 0 0 10 0 10 -10 0 -10 0 0 50 0 50 10 0 10 0 0 10 0 10 -30 0 -30 0 0 -10z"/>
<path d="M680 150 l0 -70 40 0 40 0 0 10 0 10 -30 0 -30 0 0 20 0 20 20 0 20
0 0 10 0 10 -20 0 -20 0 0 20 0 20 30 0 30 0 0 10 0 10 -40 0 -40 0 0 -70z"/>
<path d="M780 150 l0 -70 50 0 50 0 0 10 0 10 -40 0 -40 0 0 60 0 60 -10 0
-10 0 0 -70z"/>
<path d="M900 150 l0 -70 36 0 35 0 15 14 14 15 0 41 0 41 -14 15 -15 14 -35
0 -36 0 0 -70z m80 0 l0 -50 -30 0 -30 0 0 50 0 50 30 0 30 0 0 -50z"/>
<path d="M1040 100 l0 -20 20 0 20 0 0 20 0 20 -20 0 -20 0 0 -20z"/>
</g>
</svg>
