<?xml version="1.0" standalone="no"?>
<!DOCTYPE svg PUBLIC "-//W3C//DTD SVG 20010904//EN"
 "http://www.w3.org/TR/2001/REC-SVG-20010904/DTD/svg10.dtd">
<svg version="1.0" xmlns="http://www.w3.org/2000/svg"
 width="468pt" height="468pt" viewBox="0 0 468 468"
 preserveAspectRatio="xMidYMid meet">
<metadata>
Created by potrace 1.8, written by Peter Selinger 2001-2007
</metadata>
<g transform="translate(0,468) scale(0.365625,-0.365625)"
fill="#000000" stroke="none">
<path d="M30 1265 l0 -15 -15 0 -15 0 0 -10 0 -10 15 0 15 0 0 -15 0 -15 10 0
10 0 0 -21 0 -20 -14 -15 -15 -14 -10 0 -11 0 0 -15 0 -15 15 0 15 0 0 11 0
10 14 15 15 14 10 0 11 0 0 11 0 10 14 15 15 14 10 0 11 0 0 11 0 10 14 15 15
14 10 0 11 0 0 15 0 15 -15 0 -15 0 0 -11 0 -10 -14 -15 -15 -14 -20 0 -21 0
0 10 0 10 -15 0 -15 0 0 15 0 15 -10 0 -10 0 0 -15z"/>
<path d="M360 1100 l0 -180 -180 0 -180 0 0 -10 0 -10 190 0 190 0 0 190 0
190 -10 0 -10 0 0 -180z"/>
<path d="M440 1060 l0 -220 -220 0 -220 0 0 -10 0 -10 100 0 100 0 0 -11 0
-10 -14 -15 -15 -14 -10 0 -11 0 0 -11 0 -10 -14 -15 -15 -14 -10 0 -11 0 0
-11 0 -10 -14 -15 -15 -14 -10 0 -11 0 0 -30 0 -30 11 0 10 0 15 -14 14 -15 0
-10 0 -11 11 0 10 0 15 -14 14 -15 0 -10 0 -11 11 0 10 0 15 -14 14 -15 0 -10
0 -11 -100 0 -100 0 0 -10 0 -10 220 0 220 0 0 -220 0 -220 10 0 10 0 0 100 0
100 11 0 10 0 15 -14 14 -15 0 -10 0 -11 11 0 10 0 15 -14 14 -15 0 -10 0 -11
11 0 10 0 15 -14 14 -15 0 -10 0 -11 30 0 30 0 0 11 0 10 14 15 15 14 10 0 11
0 0 11 0 10 14 15 15 14 10 0 11 0 0 11 0 10 14 15 15 14 10 0 11 0 0 -100 0
-100 10 0 10 0 0 220 0 220 220 0 220 0 0 10 0 10 -100 0 -100 0 0 11 0 10 14
15 15 14 10 0 11 0 0 11 0 10 14 15 15 14 10 0 11 0 0 11 0 10 14 15 15 14 10
0 11 0 0 30 0 30 -11 0 -10 0 -15 14 -14 15 0 10 0 11 -11 0 -10 0 -15 14 -14
15 0 10 0 11 -11 0 -10 0 -15 14 -14 15 0 10 0 11 100 0 100 0 0 10 0 10 -220
0 -220 0 0 220 0 220 -10 0 -10 0 0 -100 0 -100 -11 0 -10 0 -15 14 -14 15 0
10 0 11 -11 0 -10 0 -15 14 -14 15 0 10 0 11 -11 0 -10 0 -15 14 -14 15 0 10
0 11 -30 0 -30 0 0 -11 0 -10 -14 -15 -15 -14 -10 0 -11 0 0 -11 0 -10 -14
-15 -15 -14 -10 0 -11 0 0 -11 0 -10 -14 -15 -15 -14 -10 0 -11 0 0 100 0 100
-10 0 -10 0 0 -220z m236 126 l14 -15 0 -20 0 -21 -10 0 -10 0 0 -15 0 -15
-30 0 -30 0 0 15 0 15 -10 0 -10 0 0 20 0 21 13 14 12 14 23 1 23 0 15 -14z
m-116 -96 l0 -10 15 0 15 0 0 -30 0 -30 -15 0 -15 0 0 -10 0 -10 -21 0 -20 0
-15 14 -14 15 0 21 0 21 13 14 12 14 23 1 22 0 0 -10z m216 -4 l14 -15 0 -21
0 -21 -14 -15 -15 -14 -20 0 -21 0 0 10 0 10 -15 0 -15 0 0 30 0 30 15 0 15 0
0 10 0 10 21 0 20 0 15 -14z m-106 -36 l0 -30 -30 0 -30 0 0 30 0 30 30 0 30
0 0 -30z m-174 -44 l14 -15 0 -10 0 -11 11 0 10 0 15 -14 14 -15 0 -10 0 -11
11 0 10 0 15 -14 14 -15 0 -10 0 -11 30 0 30 0 0 11 0 10 14 15 15 14 10 0 11
0 0 11 0 10 14 15 15 14 10 0 11 0 0 11 0 10 14 15 15 14 10 0 11 0 0 -100 0
-100 100 0 100 0 0 -11 0 -10 -14 -15 -15 -14 -10 0 -11 0 0 -11 0 -10 -14
-15 -15 -14 -10 0 -11 0 0 -11 0 -10 -14 -15 -15 -14 -10 0 -11 0 0 -30 0 -30
11 0 10 0 15 -14 14 -15 0 -10 0 -11 11 0 10 0 15 -14 14 -15 0 -10 0 -11 11
0 10 0 15 -14 14 -15 0 -10 0 -11 -100 0 -100 0 0 -100 0 -100 -11 0 -10 0
-15 14 -14 15 0 10 0 11 -11 0 -10 0 -15 14 -14 15 0 10 0 11 -11 0 -10 0 -15
14 -14 15 0 10 0 11 -30 0 -30 0 0 -11 0 -10 -14 -15 -15 -14 -10 0 -11 0 0
-11 0 -10 -14 -15 -15 -14 -10 0 -11 0 0 -11 0 -10 -14 -15 -15 -14 -10 0 -11
0 0 100 0 100 -100 0 -100 0 0 11 0 10 14 15 15 14 10 0 11 0 0 11 0 10 14 15
15 14 10 0 11 0 0 11 0 10 14 15 15 14 10 0 11 0 0 30 0 30 -11 0 -10 0 -15
14 -14 15 0 10 0 11 -11 0 -10 0 -15 14 -14 15 0 10 0 11 -11 0 -10 0 -15 14
-14 15 0 10 0 11 100 0 100 0 0 100 0 100 11 0 10 0 15 -14z m174 -21 l0 -15
10 0 10 0 0 -21 0 -20 -14 -15 -15 -14 -21 0 -21 0 -15 14 -14 15 0 20 0 21
10 0 10 0 0 15 0 15 30 0 30 0 0 -15z m-404 -209 l14 -15 0 -20 0 -21 -10 0
-10 0 0 -15 0 -15 -30 0 -30 0 0 15 0 15 -10 0 -10 0 0 20 0 21 13 14 12 14
23 1 23 0 15 -14z m820 0 l14 -15 0 -20 0 -21 -10 0 -10 0 0 -15 0 -15 -30 0
-30 0 0 15 0 15 -10 0 -10 0 0 20 0 21 13 14 12 14 23 1 23 0 15 -14z m-936
-96 l0 -10 15 0 15 0 0 -30 0 -30 -15 0 -15 0 0 -10 0 -10 -21 0 -20 0 -15 14
-14 15 0 21 0 21 13 14 12 14 23 1 22 0 0 -10z m216 -4 l14 -15 0 -21 0 -21
-14 -15 -15 -14 -20 0 -21 0 0 10 0 10 -15 0 -15 0 0 30 0 30 15 0 15 0 0 10
0 10 21 0 20 0 15 -14z m604 4 l0 -10 15 0 15 0 0 -30 0 -30 -15 0 -15 0 0
-10 0 -10 -21 0 -20 0 -15 14 -14 15 0 21 0 21 13 14 12 14 23 1 22 0 0 -10z
m216 -4 l14 -15 0 -21 0 -21 -14 -15 -15 -14 -20 0 -21 0 0 10 0 10 -15 0 -15
0 0 30 0 30 15 0 15 0 0 10 0 10 21 0 20 0 15 -14z m-926 -36 l0 -30 -30 0
-30 0 0 30 0 30 30 0 30 0 0 -30z m820 0 l0 -30 -30 0 -30 0 0 30 0 30 30 0
30 0 0 -30z m-820 -65 l0 -15 10 0 10 0 0 -21 0 -20 -14 -15 -15 -14 -21 0
-21 0 -15 14 -14 15 0 20 0 21 10 0 10 0 0 15 0 15 30 0 30 0 0 -15z m820 0
l0 -15 10 0 10 0 0 -21 0 -20 -14 -15 -15 -14 -21 0 -21 0 -15 14 -14 15 0 20
0 21 10 0 10 0 0 15 0 15 30 0 30 0 0 -15z m-404 -209 l14 -15 0 -20 0 -21
-10 0 -10 0 0 -15 0 -15 -30 0 -30 0 0 15 0 15 -10 0 -10 0 0 20 0 21 13 14
12 14 23 1 23 0 15 -14z m-116 -96 l0 -10 15 0 15 0 0 -30 0 -30 -15 0 -15 0
0 -10 0 -10 -21 0 -20 0 -15 14 -14 15 0 21 0 21 13 14 12 14 23 1 22 0 0 -10z
m216 -4 l14 -15 0 -21 0 -21 -14 -15 -15 -14 -20 0 -21 0 0 10 0 10 -15 0 -15
0 0 30 0 30 15 0 15 0 0 10 0 10 21 0 20 0 15 -14z m-106 -36 l0 -30 -30 0
-30 0 0 30 0 30 30 0 30 0 0 -30z m0 -65 l0 -15 10 0 10 0 0 -21 0 -20 -14
-15 -15 -14 -21 0 -21 0 -15 14 -14 15 0 20 0 21 10 0 10 0 0 15 0 15 30 0 30
0 0 -15z"/>
<path d="M610 809 l0 -10 -14 -15 -15 -14 -10 0 -11 0 0 -11 0 -10 -14 -15
-15 -14 -10 0 -11 0 0 -11 0 -10 -14 -15 -15 -14 -10 0 -11 0 0 -30 0 -30 11
0 10 0 15 -14 14 -15 0 -10 0 -11 11 0 10 0 15 -14 14 -15 0 -10 0 -11 11 0
10 0 15 -14 14 -15 0 -10 0 -11 30 0 30 0 0 11 0 10 14 15 15 14 10 0 11 0 0
11 0 10 14 15 15 14 10 0 11 0 0 11 0 10 14 15 15 14 10 0 11 0 0 30 0 30 -11
0 -10 0 -15 14 -14 15 0 10 0 11 -11 0 -10 0 -15 14 -14 15 0 10 0 11 -11 0
-10 0 -15 14 -14 15 0 10 0 11 -30 0 -30 0 0 -11z m66 -33 l14 -15 0 -20 0
-21 -10 0 -10 0 0 -15 0 -15 -30 0 -30 0 0 15 0 15 -10 0 -10 0 0 20 0 21 13
14 12 14 23 1 23 0 15 -14z m-116 -96 l0 -10 15 0 15 0 0 -30 0 -30 -15 0 -15
0 0 -10 0 -10 -21 0 -20 0 -15 14 -14 15 0 21 0 21 13 14 12 14 23 1 22 0 0
-10z m216 -4 l14 -15 0 -21 0 -21 -14 -15 -15 -14 -20 0 -21 0 0 10 0 10 -15
0 -15 0 0 30 0 30 15 0 15 0 0 10 0 10 21 0 20 0 15 -14z m-106 -36 l0 -30
-30 0 -30 0 0 30 0 30 30 0 30 0 0 -30z m0 -65 l0 -15 10 0 10 0 0 -21 0 -20
-14 -15 -15 -14 -21 0 -21 0 -15 14 -14 15 0 20 0 21 10 0 10 0 0 15 0 15 30
0 30 0 0 -15z"/>
<path d="M900 1090 l0 -190 190 0 190 0 0 10 0 10 -180 0 -180 0 0 180 0 180
-10 0 -10 0 0 -190z"/>
<path d="M1100 1265 l0 -15 11 0 10 0 15 -14 14 -15 0 -10 0 -11 11 0 10 0 15
-14 14 -15 0 -10 0 -11 11 0 10 0 15 -14 14 -15 0 -10 0 -11 15 0 15 0 0 15 0
15 -11 0 -10 0 -15 14 -14 15 0 20 0 21 10 0 10 0 0 15 0 15 15 0 15 0 0 10 0
10 -15 0 -15 0 0 15 0 15 -10 0 -10 0 0 -15 0 -15 -15 0 -15 0 0 -10 0 -10
-21 0 -20 0 -15 14 -14 15 0 10 0 11 -15 0 -15 0 0 -15z"/>
<path d="M260 1240 l0 -10 10 0 10 0 0 10 0 10 -10 0 -10 0 0 -10z"/>
<path d="M1000 1240 l0 -10 10 0 10 0 0 10 0 10 -10 0 -10 0 0 -10z"/>
<path d="M180 1165 l0 -15 10 0 10 0 0 15 0 15 -10 0 -10 0 0 -15z"/>
<path d="M260 1165 l0 -15 10 0 10 0 0 15 0 15 -10 0 -10 0 0 -15z"/>
<path d="M1000 1165 l0 -15 10 0 10 0 0 15 0 15 -10 0 -10 0 0 -15z"/>
<path d="M1080 1165 l0 -15 10 0 10 0 0 15 0 15 -10 0 -10 0 0 -15z"/>
<path d="M100 1090 l0 -10 15 0 15 0 0 10 0 10 -15 0 -15 0 0 -10z"/>
<path d="M180 1090 l0 -10 10 0 10 0 0 10 0 10 -10 0 -10 0 0 -10z"/>
<path d="M260 1090 l0 -10 10 0 10 0 0 10 0 10 -10 0 -10 0 0 -10z"/>
<path d="M1000 1090 l0 -10 10 0 10 0 0 10 0 10 -10 0 -10 0 0 -10z"/>
<path d="M1080 1090 l0 -10 10 0 10 0 0 10 0 10 -10 0 -10 0 0 -10z"/>
<path d="M1150 1090 l0 -10 15 0 15 0 0 10 0 10 -15 0 -15 0 0 -10z"/>
<path d="M30 1010 l0 -10 10 0 10 0 0 10 0 10 -10 0 -10 0 0 -10z"/>
<path d="M100 1010 l0 -10 15 0 15 0 0 10 0 10 -15 0 -15 0 0 -10z"/>
<path d="M180 1010 l0 -10 10 0 10 0 0 10 0 10 -10 0 -10 0 0 -10z"/>
<path d="M260 1010 l0 -10 10 0 10 0 0 10 0 10 -10 0 -10 0 0 -10z"/>
<path d="M1000 1010 l0 -10 10 0 10 0 0 10 0 10 -10 0 -10 0 0 -10z"/>
<path d="M1080 1010 l0 -10 10 0 10 0 0 10 0 10 -10 0 -10 0 0 -10z"/>
<path d="M1150 1010 l0 -10 15 0 15 0 0 10 0 10 -15 0 -15 0 0 -10z"/>
<path d="M1230 1010 l0 -10 10 0 10 0 0 10 0 10 -10 0 -10 0 0 -10z"/>
<path d="M0 370 l0 -10 180 0 180 0 0 -180 0 -180 10 0 10 0 0 190 0 190 -190
0 -190 0 0 -10z"/>
<path d="M900 190 l0 -190 10 0 10 0 0 180 0 180 180 0 180 0 0 10 0 10 -190
0 -190 0 0 -190z"/>
<path d="M30 270 l0 -10 10 0 10 0 0 10 0 10 -10 0 -10 0 0 -10z"/>
<path d="M100 270 l0 -10 15 0 15 0 0 10 0 10 -15 0 -15 0 0 -10z"/>
<path d="M180 270 l0 -10 10 0 10 0 0 10 0 10 -10 0 -10 0 0 -10z"/>
<path d="M260 270 l0 -10 10 0 10 0 0 10 0 10 -10 0 -10 0 0 -10z"/>
<path d="M1000 270 l0 -10 10 0 10 0 0 10 0 10 -10 0 -10 0 0 -10z"/>
<path d="M1080 270 l0 -10 10 0 10 0 0 10 0 10 -10 0 -10 0 0 -10z"/>
<path d="M1150 270 l0 -10 15 0 15 0 0 10 0 10 -15 0 -15 0 0 -10z"/>
<path d="M1230 270 l0 -10 10 0 10 0 0 10 0 10 -10 0 -10 0 0 -10z"/>
<path d="M100 190 l0 -10 15 0 15 0 0 10 0 10 -15 0 -15 0 0 -10z"/>
<path d="M180 190 l0 -10 10 0 10 0 0 10 0 10 -10 0 -10 0 0 -10z"/>
<path d="M260 190 l0 -10 10 0 10 0 0 10 0 10 -10 0 -10 0 0 -10z"/>
<path d="M1000 190 l0 -10 10 0 10 0 0 10 0 10 -10 0 -10 0 0 -10z"/>
<path d="M1080 190 l0 -10 10 0 10 0 0 10 0 10 -10 0 -10 0 0 -10z"/>
<path d="M1150 190 l0 -10 15 0 15 0 0 10 0 10 -15 0 -15 0 0 -10z"/>
<path d="M0 165 l0 -15 11 0 10 0 15 -14 14 -15 0 -20 0 -21 -10 0 -10 0 0
-15 0 -15 -15 0 -15 0 0 -10 0 -10 15 0 15 0 0 -15 0 -15 10 0 10 0 0 15 0 15
15 0 15 0 0 10 0 10 21 0 20 0 15 -14 14 -15 0 -10 0 -11 15 0 15 0 0 15 0 15
-11 0 -10 0 -15 14 -14 15 0 10 0 11 -11 0 -10 0 -15 14 -14 15 0 10 0 11 -11
0 -10 0 -15 14 -14 15 0 10 0 11 -15 0 -15 0 0 -15z"/>
<path d="M1250 169 l0 -10 -14 -15 -15 -14 -10 0 -11 0 0 -11 0 -10 -14 -15
-15 -14 -10 0 -11 0 0 -11 0 -10 -14 -15 -15 -14 -10 0 -11 0 0 -15 0 -15 15
0 15 0 0 11 0 10 14 15 15 14 20 0 21 0 0 -10 0 -10 15 0 15 0 0 -15 0 -15 10
0 10 0 0 15 0 15 15 0 15 0 0 10 0 10 -15 0 -15 0 0 15 0 15 -10 0 -10 0 0 21
0 20 14 15 15 14 10 0 11 0 0 15 0 15 -15 0 -15 0 0 -11z"/>
<path d="M180 115 l0 -15 10 0 10 0 0 15 0 15 -10 0 -10 0 0 -15z"/>
<path d="M260 115 l0 -15 10 0 10 0 0 15 0 15 -10 0 -10 0 0 -15z"/>
<path d="M1000 115 l0 -15 10 0 10 0 0 15 0 15 -10 0 -10 0 0 -15z"/>
<path d="M1080 115 l0 -15 10 0 10 0 0 15 0 15 -10 0 -10 0 0 -15z"/>
<path d="M260 40 l0 -10 10 0 10 0 0 10 0 10 -10 0 -10 0 0 -10z"/>
<path d="M1000 40 l0 -10 10 0 10 0 0 10 0 10 -10 0 -10 0 0 -10z"/>
</g>
</svg>
