<?xml version="1.0" standalone="no"?>
<!DOCTYPE svg PUBLIC "-//W3C//DTD SVG 20010904//EN"
 "http://www.w3.org/TR/2001/REC-SVG-20010904/DTD/svg10.dtd">
<svg version="1.0" xmlns="http://www.w3.org/2000/svg"
 width="468pt" height="468pt" viewBox="0 0 468 468"
 preserveAspectRatio="xMidYMid meet">
<metadata>
Created by potrace 1.8, written by Peter Selinger 2001-2007
</metadata>
<g transform="translate(0,468) scale(0.365625,-0.365625)"
fill="#000000" stroke="none">
<path d="M134 1267 l6 -18 -58 1 -57 2 -12 -1 -13 -1 0 -625 0 -625 640 0 640
0 0 628 0 627 -24 11 -25 11 -11 -11 -11 -11 -24 0 -24 -1 11 13 11 13 -17 -6
-16 -6 0 -9 0 -10 -27 4 -28 4 2 10 2 9 -40 -3 -40 -3 -19 -10 -19 -10 -6 0
-6 0 6 10 6 10 -8 1 -8 1 -50 2 -50 2 -18 -15 -18 -15 7 17 6 17 -22 0 -21 0
6 -11 7 -10 -21 13 -21 12 -12 -12 -12 -12 -10 0 -11 0 15 10 15 10 -145 0
-146 0 -12 -12 -12 -12 0 13 0 12 -10 -6 -10 -6 4 -8 5 -7 -140 1 -140 0 -10
15 -11 15 6 -18z m820 -7 l-5 -5 -30 -1 -30 -1 -3 6 -4 6 38 0 39 0 -5 -5z
m119 -7 l-23 -4 -22 4 -23 4 45 0 45 0 -22 -4z"/>
<path d="M230 1275 l0 -3 18 -4 17 -5 20 7 20 8 -37 0 -38 0 0 -3z"/>
<path d="M315 1270 l-4 -6 40 0 39 0 -5 5 -5 5 -31 1 -30 2 -4 -7z"/>
</g>
</svg>
