<?xml version="1.0" standalone="no"?>
<!DOCTYPE svg PUBLIC "-//W3C//DTD SVG 20010904//EN"
 "http://www.w3.org/TR/2001/REC-SVG-20010904/DTD/svg10.dtd">
<svg version="1.0" xmlns="http://www.w3.org/2000/svg"
 width="468pt" height="468pt" viewBox="0 0 468 468"
 preserveAspectRatio="xMidYMid meet">
<metadata>
Created by potrace 1.8, written by Peter Selinger 2001-2007
</metadata>
<g transform="translate(0,468) scale(0.365625,-0.365625)"
fill="#000000" stroke="none">
<path d="M543 1272 l-33 -3 0 -10 0 -9 -15 0 -15 0 0 10 0 10 -10 0 -10 0 0
-16 0 -16 -27 5 -28 4 13 -4 12 -4 0 -9 0 -8 -25 -6 -26 -7 -39 -40 -40 -41 0
-14 0 -14 -10 0 -10 0 0 -50 0 -50 10 0 10 0 0 -23 0 -23 30 -24 29 -25 1 -22
0 -23 -10 0 -10 0 0 15 0 15 -10 0 -9 0 -38 38 -38 37 0 74 0 74 13 5 12 4 0
11 0 12 24 23 24 22 7 0 6 0 17 16 16 17 -22 -8 -23 -7 -34 -34 -35 -34 -6
-25 -6 -25 -9 0 -9 0 0 -55 0 -55 10 0 10 0 0 -15 0 -16 15 -5 15 -6 0 -14 0
-14 10 0 10 0 42 -42 41 -43 -6 18 -6 17 14 0 15 0 0 10 0 10 -12 0 -11 0 7 7
8 8 11 -16 12 -16 22 -7 22 -7 3 -26 3 -26 13 -3 13 -2 -11 5 -10 5 0 15 0 15
16 -6 16 -6 30 0 30 0 -5 -12 -4 -13 39 -1 39 0 10 -15 9 -14 1 -30 2 -30 4
29 5 29 15 15 15 15 51 3 51 2 4 11 4 11 13 0 14 0 10 17 9 17 59 1 60 2 23
23 22 22 -10 7 -10 6 16 15 16 14 -7 -16 -6 -17 14 5 13 5 6 24 6 23 -3 14 -4
13 4 -7 5 -8 9 0 9 0 0 14 0 14 -12 6 -13 6 13 6 12 6 0 29 0 29 -9 0 -9 0 -6
26 -7 26 -26 24 -26 24 -12 0 -13 0 -6 15 -5 15 -16 0 -15 0 0 9 0 10 -55 6
-55 7 0 9 0 9 -19 0 -19 0 -5 -12 -5 -13 -10 14 -10 14 -79 2 -78 1 -32 -4z
m37 -12 l0 -11 -17 -6 -17 -7 -18 -15 -18 -15 0 -13 0 -13 -9 0 -10 0 -6 -55
-7 -55 -9 0 -9 0 0 -35 0 -35 9 0 10 0 3 18 4 17 -1 -67 -1 -67 -7 -8 -8 -7
-9 14 -10 15 0 -11 0 -12 -16 -6 -16 -6 5 19 5 19 -9 13 -8 13 -8 -7 -7 -8 14
-10 15 -11 -15 5 -15 4 2 34 1 34 -5 -17 -4 -18 -9 0 -8 0 -6 24 -6 24 6 46 7
46 8 0 7 0 7 30 7 30 9 0 9 0 0 11 0 11 23 24 22 24 13 0 12 0 0 10 0 10 40 6
40 7 0 8 0 9 5 0 5 0 0 -10z m78 -7 l17 -17 0 -164 0 -164 -7 -11 -7 -11 -8 7
-7 8 14 9 15 10 -17 0 -18 0 0 10 0 10 18 0 17 0 -15 10 -15 10 15 10 15 10
-12 0 -13 0 -1 28 -1 27 -5 -20 -4 -20 -5 -22 -4 -23 -9 0 -10 0 -4 18 -5 17
2 -37 3 -37 -8 -12 -8 -13 -8 8 -8 8 0 155 0 156 13 4 12 5 0 14 0 14 15 0 15
0 0 10 0 10 6 0 5 0 17 -17z m106 -8 l45 -1 7 -7 7 -7 -8 -7 -8 -8 -4 13 -5
12 -14 0 -14 0 0 -5 0 -5 39 -38 40 -38 5 -30 6 -29 -7 15 -6 15 -15 14 -15
15 8 -24 8 -25 10 -7 10 -6 14 5 13 5 0 -67 0 -67 -14 5 -14 6 4 -17 4 -17 -9
-15 -10 -14 -8 8 -8 9 14 5 13 4 -13 9 -13 8 1 38 1 38 -5 -25 -5 -25 -12 -7
-11 -8 13 0 12 0 0 -9 0 -9 -13 -5 -13 -5 0 99 1 100 -11 7 -11 7 -8 25 -8 24
-28 25 -29 25 0 11 0 10 9 -14 9 -14 46 -2z m86 -20 l0 -15 -10 0 -10 0 0 15
0 15 10 0 10 0 0 -15z m30 -16 l0 -12 35 -34 35 -34 0 8 0 9 -31 27 -32 28 6
5 5 6 41 -42 41 -42 0 -13 0 -13 13 -4 12 -5 0 -67 0 -67 -17 -10 -18 -10 0
-10 0 -10 -15 -15 -14 -15 3 -12 3 -12 -4 8 -5 7 -13 0 -13 0 -5 -12 -4 -13
-8 7 -7 7 28 26 29 27 2 26 2 27 11 3 10 4 0 44 0 44 -9 0 -9 0 -7 27 -6 27
-40 38 -39 38 0 10 0 10 10 0 10 0 0 -11z m67 -201 l-5 -13 -1 19 -1 19 6 -6
6 -6 -5 -13z m-437 -43 l0 -15 -10 0 -10 0 0 15 0 15 10 0 10 0 0 -15z m520
-5 l0 -10 -10 0 -10 0 0 10 0 10 10 0 10 0 0 -10z m-396 -51 l-2 -41 -13 -10
-14 -10 17 5 16 6 7 -40 7 -40 -6 -6 -6 -6 0 24 0 25 -20 17 -20 17 0 19 0 20
15 14 15 15 -13 5 -12 5 15 11 15 11 1 0 0 0 -2 -41z m191 13 l0 -29 -32 -32
-33 -33 0 11 0 11 -10 0 -10 0 0 -14 0 -14 13 -5 12 -4 -9 -9 -9 -9 -4 13 -5
12 -15 0 -14 0 15 16 16 15 0 15 0 14 9 0 9 0 7 30 7 30 9 0 9 0 0 -14 0 -14
-9 -4 -10 -3 -4 -25 -4 -25 4 13 4 12 10 0 9 0 0 18 0 17 10 -15 9 -14 8 8 8
9 -12 4 -13 5 0 13 0 13 13 5 12 5 0 1 1 1 -1 -28z m-308 -4 l-6 -22 5 -23 6
-23 12 1 11 1 11 -1 12 -1 6 -15 5 -15 -4 0 -4 0 -15 16 -16 15 0 -10 0 -11
-10 0 -10 0 -6 25 -6 25 -15 0 -15 0 5 -14 6 -14 -20 5 -19 5 0 15 0 14 11 -6
11 -7 19 21 19 20 0 11 0 10 6 0 6 0 -5 -22z m381 -12 l-13 -14 -4 3 -3 4 7
10 6 11 10 0 10 0 -13 -14z m-228 -36 l0 -10 -10 0 -10 0 0 10 0 10 10 0 10 0
0 -10z m0 -30 l0 -10 -10 0 -10 0 0 10 0 10 10 0 10 0 0 -10z"/>
<path d="M370 1015 l0 -15 10 0 10 0 0 15 0 15 -10 0 -10 0 0 -15z"/>
<path d="M800 1170 l0 -10 10 0 10 0 0 10 0 10 -10 0 -10 0 0 -10z"/>
<path d="M950 1116 l0 -14 13 -4 12 -5 0 -67 0 -67 -15 -9 -15 -10 13 0 14 0
5 20 5 20 9 0 9 0 0 45 0 45 -9 0 -9 0 -7 30 -7 30 -9 0 -9 0 0 -14z"/>
<path d="M370 1230 l0 -10 10 0 10 0 0 10 0 10 -10 0 -10 0 0 -10z"/>
<path d="M397 844 l5 -14 14 0 14 0 0 9 0 9 -19 5 -20 5 6 -14z"/>
<path d="M843 835 l-13 -14 0 -11 0 -10 10 0 10 0 0 15 0 15 15 0 15 0 0 10 0
10 -12 0 -13 -1 -12 -14z"/>
<path d="M907 810 l-17 -20 8 0 8 0 17 20 17 20 -8 0 -8 0 -17 -20z"/>
<path d="M370 811 l0 -9 14 -5 15 -6 -6 15 -5 14 -9 0 -9 0 0 -9z"/>
<path d="M812 774 l-13 -14 10 0 10 0 6 11 7 10 -3 4 -4 3 -13 -14z"/>
<path d="M412 756 l13 -14 4 3 3 4 -7 10 -6 11 -10 0 -10 0 13 -14z"/>
<path d="M731 754 l1 -19 5 13 5 13 -6 6 -6 6 1 -19z"/>
<path d="M866 754 l-16 -15 0 -4 0 -4 14 5 14 6 6 14 5 14 -4 0 -4 0 -15 -16z"/>
<path d="M490 726 l0 -14 14 -5 14 -6 -5 20 -5 19 -9 0 -9 0 0 -14z"/>
<path d="M571 724 l1 -19 5 13 5 13 -6 6 -6 6 1 -19z"/>
<path d="M430 720 l0 -10 10 0 10 0 0 10 0 10 -10 0 -10 0 0 -10z"/>
<path d="M710 720 l0 -10 10 0 10 0 0 10 0 10 -10 0 -10 0 0 -10z"/>
<path d="M767 691 l-5 -20 14 6 14 5 0 -16 0 -16 -12 -1 -13 -1 -15 1 -15 2
14 -10 15 -10 18 10 18 10 0 14 0 15 9 0 9 0 6 15 5 15 -4 0 -4 0 -15 -16 -16
-15 0 15 0 16 -9 0 -9 0 -5 -19z"/>
<path d="M460 690 l0 -10 10 0 10 0 0 10 0 10 -10 0 -10 0 0 -10z"/>
<path d="M576 676 l-6 -24 -31 -4 -31 -5 -14 14 -14 14 0 -10 0 -10 18 -9 17
-9 13 4 12 5 0 -16 0 -16 -12 0 -13 0 11 -8 11 -7 7 -22 7 -23 15 0 14 0 0 10
0 10 -14 0 -14 0 -5 19 -5 20 59 -3 60 -3 6 -7 6 -6 -7 -7 -7 -7 -9 14 -9 14
-6 -6 -6 -6 13 -21 13 -21 37 0 38 0 6 25 6 25 11 0 10 0 -27 25 -26 24 0 11
0 11 -22 -21 -22 -20 -7 0 -7 0 -5 13 -5 12 -1 -12 -1 -13 -17 1 -18 1 13 5
12 5 0 14 0 14 -9 0 -9 0 -5 -12 -5 -13 -1 28 -1 27 -9 0 -9 0 -6 -24z"/>
<path d="M641 684 l1 -19 5 13 5 13 -6 6 -6 6 1 -19z"/>
<path d="M88 632 l-16 -3 -5 -12 -5 -13 19 0 19 0 0 13 0 13 9 0 9 0 4 -9 3
-10 25 -4 25 -4 -12 4 -13 4 0 9 0 9 18 3 17 4 -40 0 -40 -1 -17 -3z"/>
<path d="M190 625 l0 -15 9 0 9 0 6 15 5 15 -14 0 -15 0 0 -15z"/>
<path d="M285 623 l-19 -23 -11 0 -10 0 15 10 14 9 -7 8 -8 7 -9 -13 -8 -14 5
-13 5 -13 21 -7 20 -6 11 14 11 15 25 7 25 7 -15 -10 -14 -10 7 -8 8 -7 8 13
9 14 25 0 25 0 -11 12 -12 13 -3 -9 -4 -9 -10 0 -9 0 -17 17 -17 17 -3 -17 -3
-17 -9 0 -9 0 -3 18 -4 17 -19 -22z m19 -28 l-6 -15 -14 0 -14 0 0 8 0 9 7 6
6 7 13 0 13 0 -5 -15z"/>
<path d="M959 629 l-13 -8 7 -8 8 -7 10 14 11 15 -5 -15 -4 -15 -17 1 -16 2 0
-14 0 -14 -6 0 -7 0 -11 16 -12 15 -27 -6 -27 -7 0 -9 0 -9 15 0 15 0 0 10 0
10 15 0 15 0 0 -10 0 -10 -10 0 -11 0 13 -13 12 -14 14 14 13 13 10 0 10 0 24
25 23 26 5 -13 4 -13 8 8 8 7 -5 6 -6 6 -25 2 -26 3 -12 -8z"/>
<path d="M1107 632 l-18 -4 4 -11 4 -12 37 -1 38 -1 7 -10 6 -11 14 15 13 14
-13 -2 -14 -1 -12 1 -13 1 0 13 0 13 -17 0 -18 -1 -18 -3z"/>
<path d="M1188 633 l13 -5 6 6 6 6 -19 -1 -19 -1 13 -5z"/>
<path d="M920 620 l0 -10 10 0 10 0 0 10 0 10 -10 0 -10 0 0 -10z"/>
<path d="M1037 604 l-7 -7 0 -11 0 -11 10 15 10 15 11 -15 11 -15 -4 14 -4 15
-10 3 -10 3 -7 -6z"/>
<path d="M1232 596 l13 -14 4 3 3 4 -7 10 -6 11 -10 0 -10 0 13 -14z"/>
<path d="M30 591 l0 -10 11 -6 10 -7 4 3 3 4 -14 13 -14 13 0 -10z"/>
<path d="M427 587 l-5 -14 9 -14 9 -14 9 14 9 14 -5 14 -5 13 -8 0 -8 0 -5
-13z"/>
<path d="M603 573 l0 -25 8 13 9 14 10 -15 10 -15 0 10 0 11 -19 16 -18 16 0
-25z"/>
<path d="M214 569 l-6 -11 11 -11 11 -11 11 11 11 11 -6 11 -7 11 -9 0 -9 0
-7 -11z m26 -9 l0 -10 -10 0 -10 0 0 10 0 10 10 0 10 0 0 -10z"/>
<path d="M1125 569 l-7 -10 6 -6 6 -6 0 11 0 11 18 4 17 5 -17 1 -17 1 -6 -11z"/>
<path d="M390 561 l0 -10 11 -6 10 -7 4 3 3 4 -14 13 -14 13 0 -10z"/>
<path d="M840 553 l-14 -17 18 7 18 7 9 0 9 0 0 10 0 10 -12 0 -13 -1 -15 -16z"/>
<path d="M1023 555 l-12 -13 -33 3 -33 4 13 -6 12 -5 0 -9 0 -9 -24 0 -24 0
-5 13 -5 12 -1 -12 -1 -13 -74 0 -74 0 -5 13 -5 12 -10 -14 -10 -13 -6 13 -6
14 -6 -12 -6 -13 -33 0 -33 0 -5 13 -5 12 -1 -12 -1 -13 -29 0 -29 0 -6 13 -6
12 -6 -12 -6 -13 -33 0 -33 0 -6 13 -6 12 -6 -14 -6 -13 -10 13 -10 14 -5 -12
-5 -13 -58 0 -58 0 -5 13 -5 12 -1 -12 -1 -13 -69 0 -69 0 -5 13 -5 12 -1 -12
-1 -13 -75 0 -75 0 0 -260 0 -260 640 0 640 0 0 260 0 260 -79 0 -79 0 -6 13
-6 12 -6 -12 -6 -13 -44 0 -44 0 0 6 0 7 17 13 18 12 -5 5 -5 5 -12 -13z m-23
-25 l0 -10 -10 0 -10 0 0 10 0 10 10 0 10 0 0 -10z"/>
</g>
</svg>
