<?xml version="1.0" standalone="no"?>
<!DOCTYPE svg PUBLIC "-//W3C//DTD SVG 20010904//EN"
 "http://www.w3.org/TR/2001/REC-SVG-20010904/DTD/svg10.dtd">
<svg version="1.0" xmlns="http://www.w3.org/2000/svg"
 width="468pt" height="468pt" viewBox="0 0 468 468"
 preserveAspectRatio="xMidYMid meet">
<metadata>
Created by potrace 1.8, written by Peter Selinger 2001-2007
</metadata>
<g transform="translate(0,468) scale(0.365625,-0.365625)"
fill="#000000" stroke="none">
<path d="M11 1264 l-14 -16 14 -9 14 -9 -15 -10 -15 -10 15 -10 15 -10 -15
-10 -15 -10 15 -10 15 -10 -15 -10 -15 -10 15 -10 15 -10 -15 -10 -15 -10 15
-10 15 -10 -15 -10 -15 -10 15 -10 15 -10 -15 -10 -15 -10 15 -10 15 -10 -15
-10 -15 -10 15 -10 15 -10 -15 -10 -15 -10 15 -10 15 -10 -15 -10 -15 -10 15
-10 15 -10 -15 -10 -15 -10 15 -10 15 -10 -15 -10 -15 -10 15 -10 15 -10 -15
-10 -15 -10 15 -10 15 -10 -15 -10 -15 -10 15 -10 15 -10 -15 -10 -15 -10 15
-10 15 -10 -15 -10 -15 -10 15 -10 15 -10 -15 -10 -15 -10 15 -10 15 -10 -15
-9 -14 -10 7 -8 8 -7 9 14 9 14 7 -7 7 -7 -24 -20 -23 -21 14 -10 15 -11 -13
-5 -12 -5 0 -48 0 -48 13 -5 12 -5 -15 -11 -15 -11 15 -10 15 -10 -15 -10 -15
-10 15 -10 15 -10 -15 -10 -15 -10 15 -10 15 -10 -15 -10 -15 -10 15 -10 15
-10 -15 -10 -15 -10 15 -10 15 -10 -15 -10 -15 -10 15 -10 15 -10 -15 -10 -15
-10 15 -10 15 -10 -15 -10 -15 -10 15 -10 15 -10 -15 -10 -15 -10 15 -10 15
-10 -15 -9 -14 -10 7 -8 8 -7 10 14 9 15 10 -15 10 -15 10 15 10 15 10 -15 10
-15 10 15 10 15 10 -15 10 -15 10 15 10 15 10 -15 10 -15 10 15 10 15 10 -15
10 -15 10 15 10 15 10 -15 10 -15 10 15 10 15 10 -15 10 -15 10 15 10 15 10
-15 10 -15 10 15 10 15 10 -15 10 -15 10 15 10 15 10 -15 10 -15 10 15 10 15
10 -15 10 -15 10 15 10 15 10 -15 10 -15 10 15 10 15 10 -15 10 -15 10 15 10
15 10 -15 10 -15 10 15 10 15 10 -15 10 -15 10 15 10 15 10 -15 10 -15 10 15
10 15 10 -15 10 -15 10 15 10 15 10 -15 10 -15 10 15 10 15 10 -15 10 -15 10
15 10 15 10 -15 10 -15 10 15 10 15 10 -15 10 -15 10 15 10 15 10 -15 10 -15
10 15 10 15 10 -15 10 -15 10 15 10 15 10 -15 10 -15 10 15 10 15 10 -15 10
-15 10 15 10 15 10 -15 10 -15 10 15 10 15 10 -15 10 -15 10 15 10 15 10 -15
10 -15 10 15 10 15 10 -15 10 -15 10 15 10 15 10 -15 10 -15 10 15 10 15 9
-14 9 -14 18 17 17 18 -14 9 -14 9 15 10 15 10 -15 10 -15 10 15 10 15 10 -15
10 -15 10 15 10 15 10 -15 10 -15 10 15 10 15 10 -15 10 -15 10 15 10 15 10
-15 10 -15 10 15 10 15 10 -15 10 -15 10 15 10 15 10 -15 10 -15 10 15 10 15
10 -15 10 -15 10 15 10 15 10 -15 10 -15 10 15 10 15 10 -15 10 -15 10 15 10
15 10 -15 10 -15 10 15 10 15 10 -15 10 -15 10 15 10 15 10 -15 10 -15 10 15
10 15 10 -15 10 -15 10 15 10 15 10 -15 10 -15 10 15 10 15 10 -15 10 -15 10
15 10 15 10 -15 10 -15 10 15 9 14 10 -7 8 -8 7 -9 -14 -9 -14 -7 7 -7 7 23
20 23 20 -34 31 -33 31 14 8 14 9 -24 21 -24 21 13 9 14 8 -38 37 -37 38 -8
-14 -9 -13 -21 24 -21 24 -10 -14 -9 -15 -9 15 -10 14 -21 -24 -21 -24 -9 14
-8 14 -32 -34 -31 -33 -7 7 -6 7 14 10 15 9 -15 9 -14 10 7 8 8 7 9 -14 9 -14
8 7 7 8 -14 9 -14 9 7 8 8 7 9 -14 9 -14 8 7 7 8 -14 10 -15 9 14 9 14 9 -17
18 -18 17 -9 -14 -9 -14 -10 15 -10 15 -9 -15 -10 -14 -8 7 -7 8 14 10 15 9
-15 10 -15 10 14 9 14 9 -17 18 -18 17 -9 -14 -9 -14 -9 14 -9 14 -18 -17 -17
-18 14 -9 14 -9 -15 -10 -15 -10 15 -9 14 -10 -7 -8 -8 -7 -10 14 -9 15 -10
-15 -10 -15 -9 14 -9 14 -18 -17 -17 -18 14 -9 14 -9 -15 -9 -14 -10 7 -8 8
-7 10 14 9 15 9 -15 10 -14 8 7 7 8 -14 9 -14 9 7 8 8 7 10 -14 9 -15 10 15
10 15 10 -15 10 -15 10 15 10 15 10 -15 10 -15 9 15 10 14 8 -7 7 -8 -14 -9
-14 -9 7 -8 8 -7 9 14 9 14 8 -7 7 -8 -14 -10 -15 -9 15 -9 14 -10 -6 -7 -7
-7 -31 33 -32 34 -9 -15 -9 -14 -9 15 -10 14 -21 -24 -21 -24 -9 13 -8 14 -37
-38 -38 -37 14 -9 13 -8 -7 -8 -8 -7 -9 14 -9 14 -8 -7 -7 -8 13 -9 14 -8 -17
-18 -18 -17 -9 14 -9 14 -9 -15 -10 -14 -20 23 -20 23 -17 -17 -17 -17 13 -8
13 -8 -17 -17 -17 -17 -7 6 -6 7 14 10 15 9 -14 9 -14 9 28 27 27 28 9 -14 9
-14 10 15 10 15 9 -14 9 -14 47 48 48 47 -14 9 -14 9 14 9 14 9 -17 18 -18 17
-8 -14 -9 -13 -7 6 -6 7 17 17 17 17 8 -13 8 -13 18 17 17 18 -14 9 -14 9 14
9 14 9 -17 18 -18 17 -9 -14 -9 -14 -9 14 -9 14 -18 -17 -17 -18 14 -9 14 -9
-15 -10 -15 -10 15 -9 14 -10 -6 -7 -7 -6 -17 17 -17 17 13 8 13 8 -17 18 -18
17 -8 -14 -9 -13 -7 6 -6 7 17 17 17 17 8 -13 8 -13 18 17 17 18 -14 9 -14 9
14 9 14 9 -17 18 -18 17 -9 -14 -9 -14 -9 14 -9 14 -18 -17 -17 -18 14 -9 14
-9 -15 -10 -15 -10 15 -9 14 -10 -6 -7 -7 -6 -17 17 -17 17 13 8 13 8 -16 17
-17 16 -17 -16 -16 -17 13 -8 13 -8 -16 -17 -17 -17 -41 43 -41 42 -9 -14 -9
-14 -10 15 -10 15 -10 -15 -10 -15 -9 14 -9 14 -37 -38 -38 -37 13 -8 13 -8
-17 -18 -18 -17 -9 14 -9 14 -9 -15 -10 -14 -21 24 -21 24 -10 -14 -9 -15 -9
14 -9 14 -18 -17 -17 -18 14 -8 13 -9 -6 -7 -7 -6 -17 17 -17 17 13 8 13 8
-17 18 -18 17 -8 -13 -8 -13 -17 17 -17 17 6 7 7 6 9 -13 8 -14 17 16 16 17
-16 17 -17 16 -8 -14 -9 -13 -7 6 -6 7 17 17 17 17 8 -14 9 -13 21 24 21 24
10 -14 9 -15 9 15 10 14 21 -24 21 -24 10 14 9 15 9 -15 10 -14 21 24 21 24
10 -14 9 -15 9 15 10 14 21 -24 21 -24 10 14 9 15 9 -15 10 -14 21 24 21 24
10 -14 9 -15 9 15 10 14 21 -24 21 -24 10 14 9 15 9 -15 10 -14 21 24 21 24
10 -14 9 -15 9 15 10 14 21 -24 21 -24 10 14 9 15 9 -15 10 -14 21 24 21 24
10 -14 9 -15 9 15 10 14 21 -24 21 -24 10 14 9 15 9 -15 10 -14 21 24 21 24
10 -14 9 -15 9 15 10 14 21 -24 21 -24 10 14 9 15 9 -15 10 -14 21 24 21 24
10 -14 9 -15 9 15 10 14 21 -24 21 -24 10 14 9 15 9 -15 10 -14 20 23 20 23
17 -16 16 -17 -6 -7 -7 -6 -9 13 -8 14 -18 -17 -17 -18 14 -9 14 -9 -14 -9
-14 -9 17 -18 18 -17 8 14 9 13 7 -7 7 -7 -23 -20 -23 -20 23 -20 23 -20 -7
-7 -7 -7 -9 13 -8 14 -18 -17 -17 -18 14 -9 14 -9 -14 -9 -14 -9 17 -18 18
-17 8 14 9 13 7 -7 7 -7 -23 -20 -23 -20 24 -21 23 -20 -14 -10 -15 -9 15 -10
15 -10 -14 -9 -14 -9 17 -17 17 -17 7 6 6 7 -14 10 -15 9 15 10 15 10 -15 10
-15 10 15 10 15 10 -15 10 -15 10 15 10 15 10 -15 10 -15 10 15 10 15 10 -15
10 -15 10 15 10 15 10 -15 10 -15 10 15 10 15 10 -15 10 -15 10 15 10 15 10
-15 10 -15 10 15 10 15 10 -15 10 -15 10 15 10 15 10 -15 10 -15 10 15 10 15
10 -15 11 -15 11 13 5 12 5 0 9 0 9 -29 0 -29 0 -5 -12 -5 -13 -11 15 -11 15
-10 -15 -10 -15 -10 15 -10 15 -11 -15 -11 -15 -5 13 -5 12 -28 0 -28 0 -5
-12 -5 -13 -11 15 -11 15 -10 -15 -10 -15 -10 15 -10 15 -11 -15 -11 -15 -5
13 -5 12 -28 0 -28 0 -5 -12 -5 -13 -11 15 -11 15 -10 -15 -10 -15 -10 15 -10
15 -11 -15 -11 -15 -5 13 -5 12 -28 0 -28 0 -5 -12 -5 -13 -11 15 -11 15 -10
-15 -10 -15 -10 15 -10 15 -11 -15 -11 -15 -5 13 -5 12 -28 0 -28 0 -5 -12 -5
-13 -11 15 -11 15 -10 -15 -10 -15 -10 15 -10 15 -11 -15 -11 -15 -5 13 -5 12
-28 0 -28 0 -5 -12 -5 -13 -11 15 -11 15 -10 -15 -10 -15 -10 15 -10 15 -11
-15 -11 -15 -5 13 -5 12 -28 0 -28 0 -5 -12 -5 -13 -11 15 -11 15 -10 -15 -10
-15 -10 15 -10 15 -11 -15 -11 -15 -5 13 -5 12 -28 0 -28 0 -5 -12 -5 -13 -11
15 -11 15 -11 -15 -11 -15 -5 13 -5 12 -6 0 -7 -1 -14 -15z m29 -14 l0 -10
-10 0 -10 0 0 10 0 10 10 0 10 0 0 -10z m40 0 l0 -10 -10 0 -10 0 0 10 0 10
10 0 10 0 0 -10z m120 0 l0 -10 -10 0 -10 0 0 10 0 10 10 0 10 0 0 -10z m40 0
l0 -10 -10 0 -10 0 0 10 0 10 10 0 10 0 0 -10z m120 0 l0 -10 -10 0 -10 0 0
10 0 10 10 0 10 0 0 -10z m40 0 l0 -10 -10 0 -10 0 0 10 0 10 10 0 10 0 0 -10z
m120 0 l0 -10 -10 0 -10 0 0 10 0 10 10 0 10 0 0 -10z m40 0 l0 -10 -10 0 -10
0 0 10 0 10 10 0 10 0 0 -10z m120 0 l0 -10 -10 0 -10 0 0 10 0 10 10 0 10 0
0 -10z m40 0 l0 -10 -10 0 -10 0 0 10 0 10 10 0 10 0 0 -10z m120 0 l0 -10
-10 0 -10 0 0 10 0 10 10 0 10 0 0 -10z m40 0 l0 -10 -10 0 -10 0 0 10 0 10
10 0 10 0 0 -10z m120 0 l0 -10 -10 0 -10 0 0 10 0 10 10 0 10 0 0 -10z m40 0
l0 -10 -10 0 -10 0 0 10 0 10 10 0 10 0 0 -10z m120 0 l0 -10 -10 0 -10 0 0
10 0 10 10 0 10 0 0 -10z m40 0 l0 -10 -10 0 -10 0 0 10 0 10 10 0 10 0 0 -10z
m-597 -42 l5 -13 11 15 10 14 8 -7 7 -8 -14 -10 -15 -9 15 -9 14 -10 -7 -8 -8
-7 -10 14 -9 15 -9 -15 -10 -14 -8 7 -7 8 14 10 15 11 -12 5 -13 5 0 9 0 9 9
0 9 0 5 -12z m643 -3 l15 -15 -16 -16 -16 -16 -7 6 -6 7 14 10 15 11 -12 5
-13 5 0 9 0 9 6 0 5 0 15 -15z m-811 -50 l25 -24 0 -16 0 -15 8 0 8 0 14 20
14 20 24 0 23 0 15 -14 14 -15 0 -25 0 -26 25 0 26 0 24 -25 25 -24 0 -21 0
-21 -14 -15 -15 -14 -35 0 -36 0 0 20 0 20 -10 0 -10 0 0 -20 0 -20 -10 0 -10
0 0 -16 0 -17 -22 -19 -22 -19 14 -10 15 -9 -14 -9 -14 -9 18 -19 18 -18 5 13
4 12 19 0 19 0 0 10 0 10 40 0 40 0 0 -16 0 -15 15 -16 16 -15 7 7 7 8 -12 4
-13 5 0 37 0 37 20 14 20 14 0 14 0 13 14 15 15 14 15 0 16 0 0 10 0 10 40 0
40 0 0 -10 0 -10 15 0 16 0 26 -26 26 -26 -14 -8 -13 -9 6 -7 7 -6 16 15 15
16 0 11 0 11 14 15 15 14 15 0 16 0 0 10 0 10 50 0 50 0 0 -10 0 -10 16 0 15
0 15 -14 14 -15 0 -15 0 -16 10 0 10 0 0 -30 0 -30 10 0 10 0 0 -70 0 -70 -10
0 -10 0 0 10 0 10 -20 0 -20 0 0 -10 0 -10 16 0 15 0 15 -14 14 -15 0 -15 0
-16 10 0 10 0 0 -119 0 -119 13 -5 12 -4 -9 -9 -9 -9 -4 12 -5 13 -9 0 -9 0 0
-15 0 -16 -25 -25 -25 -25 -15 15 -15 15 0 25 0 26 -10 0 -10 0 0 -30 0 -30
10 0 10 0 0 -70 0 -70 -10 0 -10 0 0 -16 0 -15 -14 -15 -15 -14 -53 0 -54 0
-14 20 -14 20 -14 0 -13 0 -15 -15 -15 -15 16 -17 17 -16 8 14 9 13 21 -24 21
-24 10 14 9 15 10 -15 10 -15 10 15 10 15 9 -15 10 -14 21 24 21 24 9 -14 9
-14 8 7 7 8 -13 9 -14 8 42 41 43 42 -22 19 -22 19 47 46 46 47 6 -6 6 -6 -23
-20 -23 -20 24 -21 23 -20 -14 -10 -15 -9 15 -10 15 -10 -15 -10 -15 -10 15
-9 14 -10 -23 -20 -24 -21 24 -21 23 -20 -14 -10 -15 -9 15 -10 15 -10 -15
-10 -15 -10 15 -9 14 -10 -7 -8 -8 -7 -10 14 -9 15 -10 -15 -10 -15 -10 15
-10 15 -10 -15 -10 -15 -10 15 -10 15 -10 -15 -10 -15 -10 15 -10 15 -10 -15
-10 -15 -10 15 -10 15 -10 -15 -10 -15 -10 15 -10 15 -10 -15 -10 -15 -10 15
-10 15 -10 -15 -10 -15 -10 15 -10 15 -10 -15 -10 -15 -10 15 -10 15 -10 -15
-10 -15 -10 15 -10 15 -10 -15 -10 -15 -10 15 -10 15 -10 -15 -10 -15 -10 15
-10 15 -10 -15 -10 -15 -10 15 -10 15 -10 -15 -10 -15 -10 15 -10 15 -10 -15
-10 -15 -10 15 -10 15 -10 -15 -10 -15 -10 15 -10 15 -10 -15 -10 -15 -10 15
-10 15 -10 -15 -10 -15 -10 15 -10 15 -10 -15 -10 -15 -10 15 -10 15 -10 -15
-10 -15 -10 15 -10 15 -10 -15 -10 -15 -10 15 -10 15 -10 -15 -10 -15 -10 15
-10 15 -10 -15 -10 -15 -10 15 -10 15 -10 -15 -10 -15 -10 15 -10 15 -10 -15
-10 -15 -10 15 -10 15 -10 -15 -10 -15 -10 15 -10 15 -10 -15 -10 -15 -10 15
-10 15 -10 -15 -10 -15 -10 15 -10 15 -10 -15 -10 -15 -10 15 -10 15 -10 -15
-10 -15 -10 15 -10 15 -9 -14 -9 -14 -17 17 -17 17 6 7 7 6 9 -13 8 -14 17 16
16 17 -16 17 -17 16 -8 -14 -9 -13 -8 7 -7 8 14 10 15 9 -15 10 -15 10 15 10
15 10 -15 10 -15 10 15 10 15 10 -15 9 -14 10 7 8 8 7 9 -13 8 -14 17 16 16
17 -16 17 -17 16 -8 -14 -9 -13 -8 7 -7 8 14 10 15 9 -15 10 -15 10 15 10 15
10 -15 9 -14 10 6 7 7 6 27 -27 27 -27 -13 -8 -14 -8 34 -32 34 -32 -14 -8
-14 -9 7 -8 8 -7 9 13 8 14 42 -43 42 -43 9 14 9 14 10 -15 10 -15 10 15 10
15 9 -14 9 -14 18 17 17 18 -14 8 -13 9 7 8 8 7 10 -14 9 -15 11 15 11 15 5
-12 5 -13 9 0 9 0 0 20 0 20 -10 0 -10 0 0 40 0 40 -10 0 -10 0 0 -40 0 -40
-18 0 -18 0 -14 -20 -14 -20 -28 0 -28 0 0 10 0 10 -20 0 -20 0 0 10 0 10 -16
0 -15 0 -15 14 -14 15 0 15 0 16 -10 0 -10 0 0 39 0 39 13 5 12 4 -9 9 -9 9
-4 -12 -5 -13 -15 0 -14 0 -15 14 -14 15 0 15 0 16 -10 0 -10 0 0 40 0 40 10
0 10 0 0 30 0 30 10 0 10 0 0 19 0 19 13 5 12 5 -15 11 -15 11 14 9 14 9 -17
18 -18 17 -8 -14 -9 -13 -8 7 -7 8 14 10 15 9 -15 10 -15 10 15 10 15 10 -15
10 -15 10 15 10 15 10 -15 9 -14 10 7 8 8 7 9 -13 8 -14 17 16 16 17 -16 17
-17 16 -8 -14 -9 -13 -8 7 -7 8 14 10 15 9 -15 10 -15 10 15 10 15 10 -15 9
-14 10 6 7 7 7 31 -33 32 -34 10 15 10 14 5 -12 5 -13 9 0 9 0 0 20 0 20 10 0
10 0 0 -19 0 -19 13 -5 12 -5 -15 -11 -14 -10 7 -8 8 -7 9 14 9 14 8 -7 7 -8
-14 -9 -14 -9 7 -8 8 -7 9 14 9 14 20 -23 21 -24 21 24 20 23 9 -14 9 -14 8 7
7 8 -14 9 -14 9 7 8 8 7 9 -14 9 -14 8 7 7 8 -13 9 -14 8 17 17 16 17 30 -32
30 -33 21 24 20 23 9 -13 8 -14 16 16 16 16 0 5 0 6 -30 0 -30 0 0 -10 0 -10
-25 0 -26 0 -24 25 -25 24 0 16 0 15 -10 0 -10 0 0 -35 0 -36 -25 -24 -24 -25
-21 0 -21 0 -24 25 -25 24 0 25 0 24 13 5 12 4 -9 9 -9 9 -4 -12 -5 -13 -19 0
-19 0 0 -10 0 -10 -26 0 -25 0 -15 14 -14 15 0 25 0 26 10 0 10 0 0 30 0 30
10 0 10 0 0 20 0 20 -9 0 -9 0 -5 -12 -5 -13 -11 15 -11 15 -9 -15 -10 -14 -8
7 -7 8 14 10 15 9 -15 10 -15 10 15 10 15 10 -15 9 -14 10 7 8 8 7 10 -14 9
-15 9 15 10 14 8 -7 7 -8 -13 -9 -14 -8 28 -28 29 -28 4 12 4 12 19 0 19 0 0
10 0 10 20 0 20 0 0 -10 0 -10 20 0 20 0 0 -30 0 -30 10 0 10 0 0 20 0 20 10
0 10 0 0 30 0 30 10 0 10 0 0 15 0 16 13 14 12 14 43 1 43 0 24 -25z m248 -27
l5 -13 11 15 10 14 8 -7 7 -8 -14 -10 -15 -9 15 -9 14 -10 -7 -8 -8 -7 -10 14
-9 15 -9 -15 -10 -14 -8 7 -7 8 14 10 15 11 -12 5 -13 5 0 9 0 9 9 0 9 0 5
-12z m160 0 l5 -13 11 15 10 14 8 -7 7 -8 -14 -10 -15 -9 15 -10 15 -10 -15
-10 -15 -10 15 -9 14 -10 -7 -8 -8 -7 -10 14 -9 15 -9 -15 -10 -14 -8 7 -7 8
14 10 15 9 -15 10 -15 10 15 11 15 11 -12 5 -13 5 0 9 0 9 9 0 9 0 5 -12z
m-83 -78 l0 -10 -10 0 -10 0 0 10 0 10 10 0 10 0 0 -10z m40 0 l0 -10 -10 0
-10 0 0 10 0 10 10 0 10 0 0 -10z m123 -2 l5 -13 11 15 10 14 7 -6 6 -7 -16
-16 -16 -16 -15 15 -15 15 0 5 0 6 9 0 9 0 5 -12z m323 -3 l15 -15 -16 -16
-16 -16 -7 6 -6 7 14 10 15 11 -12 5 -13 5 0 9 0 9 6 0 5 0 15 -15z m-1200
-40 l15 -15 -16 -16 -16 -16 -7 6 -6 7 14 10 15 11 -12 5 -13 5 0 9 0 9 6 0 5
0 15 -15z m-6 -75 l0 -10 -10 0 -10 0 0 10 0 10 10 0 10 0 0 -10z m1220 -219
l0 -9 -12 -5 -13 -5 15 -11 14 -10 -6 -7 -7 -6 -16 16 -16 16 13 14 13 15 8 1
7 0 0 -9z m-1220 -101 l0 -10 -10 0 -10 0 0 10 0 10 10 0 10 0 0 -10z"/>
<path d="M40 1094 l0 -5 15 -16 16 -15 6 5 5 6 -15 16 -16 15 -5 0 -6 0 0 -6z"/>
<path d="M800 870 l0 -30 -10 0 -10 0 0 -20 0 -20 -10 0 -10 0 0 -20 0 -20
-10 0 -10 0 0 -35 0 -36 25 -24 24 -25 21 0 21 0 24 25 25 24 0 36 0 35 -10 0
-10 0 0 20 0 20 -10 0 -10 0 0 20 0 20 -10 0 -10 0 0 30 0 30 -10 0 -10 0 0
-30z m20 -50 l0 -20 10 0 10 0 0 -20 0 -20 10 0 10 0 0 -36 0 -35 -14 -15 -15
-14 -21 0 -21 0 -15 14 -14 15 0 35 0 36 10 0 10 0 0 20 0 20 10 0 10 0 0 20
0 20 10 0 10 0 0 -20z"/>
<path d="M820 721 l0 -19 -12 -5 -13 -4 7 -8 7 -7 16 15 15 16 0 15 0 16 -10
0 -10 0 0 -19z"/>
<path d="M40 854 l0 -6 31 -29 31 -29 -33 -31 -33 -31 15 -9 14 -9 -14 -9 -14
-9 27 -27 26 -26 16 16 16 16 -6 7 -7 6 -9 -14 -9 -14 -8 7 -7 8 14 10 15 9
-15 10 -15 10 15 10 15 10 -15 9 -14 10 7 8 8 7 10 -14 9 -15 10 15 10 15 10
-15 10 -15 9 15 10 14 8 -7 7 -8 -14 -10 -15 -9 15 -10 15 -10 -14 -9 -14 -9
17 -18 18 -17 9 14 9 14 9 -14 9 -14 18 17 17 18 -13 8 -13 8 28 27 27 28 8
-14 9 -13 21 23 20 24 6 -6 6 -6 -27 -27 -27 -27 -8 13 -8 13 -18 -17 -17 -18
14 -9 14 -9 -15 -10 -15 -10 14 -9 14 -9 -17 -17 -17 -17 -20 23 -20 23 -10
-14 -9 -15 -10 15 -10 15 -10 -15 -10 -15 -9 14 -9 14 -26 -26 -26 -26 0 -6 0
-5 20 0 20 0 0 10 0 10 60 0 60 0 0 -10 0 -10 40 0 40 0 0 -10 0 -10 20 0 20
0 0 10 0 10 -16 0 -15 0 -15 14 -14 15 0 21 0 21 35 34 34 35 62 0 61 0 29
-31 30 -32 6 7 6 6 -21 19 -22 18 0 32 0 32 -16 16 -16 16 -9 -14 -9 -14 -9
14 -9 14 -17 -17 -17 -17 6 -7 7 -6 10 14 9 15 10 -15 10 -15 9 15 10 14 7 -6
6 -7 -17 -17 -17 -17 -9 14 -9 14 -10 -15 -10 -15 -10 15 -10 15 -9 -15 -10
-14 -8 7 -7 8 13 9 14 8 -27 27 -27 27 -7 -6 -6 -7 13 -9 14 -8 -28 -27 -27
-28 -8 14 -9 13 -20 -23 -21 -24 -21 24 -20 23 -9 -13 -8 -14 -27 28 -28 27
14 8 13 9 -7 8 -8 7 -10 -14 -9 -15 -10 15 -10 15 -9 -15 -10 -14 -19 22 -19
22 -7 0 -6 0 0 -6z m97 -60 l25 -25 -6 -7 -7 -6 -10 14 -9 15 -9 -15 -10 -14
-8 7 -7 8 14 10 15 11 -12 5 -13 5 0 9 0 9 5 0 6 0 26 -26z m90 -50 l16 -16
-14 -9 -14 -9 15 -9 14 -10 -7 -8 -8 -7 -10 14 -9 15 -9 -15 -10 -14 -8 7 -7
8 14 10 15 9 -14 9 -14 9 14 16 14 15 3 1 3 0 16 -16z m-147 -14 l0 -10 -10 0
-10 0 0 10 0 10 10 0 10 0 0 -10z m0 -40 l0 -10 -10 0 -10 0 0 10 0 10 10 0
10 0 0 -10z"/>
<path d="M200 730 l0 -10 10 0 10 0 0 10 0 10 -10 0 -10 0 0 -10z"/>
<path d="M112 725 l-13 -15 26 -26 26 -26 7 6 6 7 -14 10 -15 9 14 9 14 9 -16
16 -16 16 -3 0 -3 -1 -13 -14z"/>
<path d="M1020 650 l0 -30 -10 0 -10 0 0 -20 0 -20 -10 0 -10 0 0 -30 0 -30
-10 0 -10 0 0 -25 0 -26 25 -24 24 -25 21 0 21 0 24 25 25 24 0 26 0 25 -10 0
-10 0 0 20 0 20 -10 0 -10 0 0 30 0 30 -10 0 -10 0 0 30 0 30 -10 0 -10 0 0
-30z m20 -60 l0 -30 10 0 10 0 0 -20 0 -20 10 0 10 0 0 -26 0 -25 -14 -15 -15
-14 -21 0 -21 0 -15 14 -14 15 0 25 0 26 10 0 10 0 0 30 0 30 10 0 10 0 0 20
0 20 10 0 10 0 0 -30z"/>
<path d="M1000 504 l0 -15 15 -16 16 -15 7 7 7 8 -12 4 -13 5 0 19 0 19 -10 0
-10 0 0 -16z"/>
<path d="M240 650 l0 -10 10 0 10 0 0 10 0 10 -10 0 -10 0 0 -10z"/>
<path d="M480 590 l0 -30 -10 0 -10 0 0 -18 0 -18 -20 -14 -20 -14 0 -18 0
-18 -10 0 -10 0 0 -20 0 -20 -10 0 -10 0 0 -35 0 -36 25 -24 24 -25 41 0 41 0
24 25 25 24 0 36 0 35 -10 0 -10 0 0 20 0 20 -10 0 -10 0 0 50 0 50 -10 0 -10
0 0 30 0 30 -10 0 -10 0 0 -30z m20 -80 l0 -50 10 0 10 0 0 -20 0 -20 10 0 10
0 0 -36 0 -35 -14 -15 -15 -14 -41 0 -41 0 -15 14 -14 15 0 35 0 36 10 0 10 0
0 20 0 20 10 0 10 0 0 18 0 18 20 14 20 14 0 18 0 18 10 0 10 0 0 -50z"/>
<path d="M440 420 l0 -20 -10 0 -10 0 0 -16 0 -15 14 -15 15 -14 15 0 16 0 0
10 0 10 -20 0 -20 0 0 20 0 20 10 0 10 0 0 20 0 20 -10 0 -10 0 0 -20z"/>
<path d="M760 470 l0 -30 -10 0 -10 0 0 -20 0 -20 -10 0 -10 0 0 -30 0 -30
-10 0 -10 0 0 -25 0 -26 25 -24 24 -25 21 0 21 0 24 25 25 24 0 26 0 25 -10 0
-10 0 0 20 0 20 -10 0 -10 0 0 30 0 30 -10 0 -10 0 0 30 0 30 -10 0 -10 0 0
-30z m20 -60 l0 -30 10 0 10 0 0 -20 0 -20 10 0 10 0 0 -26 0 -25 -14 -15 -15
-14 -21 0 -21 0 -15 14 -14 15 0 25 0 26 10 0 10 0 0 30 0 30 10 0 10 0 0 20
0 20 10 0 10 0 0 -30z"/>
<path d="M780 321 l0 -19 -12 -5 -13 -4 7 -8 7 -7 16 15 15 16 0 15 0 16 -10
0 -10 0 0 -19z"/>
<path d="M40 290 l0 -10 10 0 10 0 0 10 0 10 -10 0 -10 0 0 -10z"/>
<path d="M1192 284 l-14 -15 22 -19 22 -19 -43 -42 -42 -41 13 -8 13 -8 -17
-18 -18 -17 -8 14 -9 13 -21 -24 -21 -24 -10 14 -9 15 -10 -15 -10 -15 -10 15
-10 15 -9 -15 -10 -14 -21 24 -21 24 -9 -13 -8 -14 -27 27 -27 27 21 18 21 18
0 17 0 16 10 0 10 0 0 20 0 20 -10 0 -10 0 0 -20 0 -20 -20 0 -20 0 0 -10 0
-10 -20 0 -20 0 0 -10 0 -10 -30 0 -30 0 0 -10 0 -10 -30 0 -30 0 0 10 0 10
-26 0 -27 0 -18 22 -19 21 -19 -21 -18 -22 -14 0 -15 0 -14 -20 -14 -20 -58 0
-58 0 0 10 0 10 -19 0 -19 0 -5 -12 -5 -13 -10 14 -10 15 -32 -34 -32 -34 -9
15 -9 14 -10 -15 -10 -15 -10 15 -10 15 -9 -14 -9 -14 -42 43 -42 43 -8 -13
-8 -13 -18 17 -17 18 14 8 13 9 -6 7 -7 6 -27 -27 -27 -27 14 -9 14 -9 -14 -9
-15 -9 34 -32 34 -32 -14 -8 -14 -9 7 -8 8 -7 10 14 9 15 10 -15 10 -15 10 15
10 15 10 -15 10 -15 10 15 10 15 10 -15 10 -15 10 15 10 15 10 -15 10 -15 10
15 10 15 10 -15 10 -15 10 15 10 15 10 -15 10 -15 10 15 10 15 10 -15 10 -15
10 15 10 15 10 -15 10 -15 10 15 10 15 10 -15 10 -15 10 15 10 15 10 -15 10
-15 10 15 10 15 10 -15 10 -15 10 15 10 15 10 -15 10 -15 10 15 10 15 10 -15
10 -15 10 15 10 15 10 -15 10 -15 10 15 10 15 10 -15 10 -15 10 15 10 15 10
-15 10 -15 10 15 10 15 10 -15 10 -15 10 15 10 15 10 -15 10 -15 10 15 10 15
10 -15 10 -15 10 15 10 15 10 -15 10 -15 10 15 10 15 10 -15 10 -15 10 15 10
15 10 -15 10 -15 10 15 10 15 10 -15 10 -15 10 15 10 15 10 -15 10 -15 10 15
10 15 10 -15 10 -15 10 15 10 15 10 -15 10 -15 10 15 10 15 10 -15 10 -15 10
15 10 15 9 -14 9 -14 18 17 17 18 -14 9 -14 9 15 9 14 10 -23 20 -24 21 24 21
23 20 -14 10 -15 9 15 10 15 10 -15 10 -15 10 14 9 14 9 -16 16 -16 16 -3 0
-3 -1 -13 -15z m28 -14 l0 -10 -10 0 -10 0 0 10 0 10 10 0 10 0 0 -10z m-320
-76 l0 -7 -21 -18 -21 -18 37 -37 37 -37 8 13 8 13 17 -17 17 -17 -6 -7 -7 -6
-10 14 -9 15 -10 -15 -10 -15 -10 15 -10 15 -9 -15 -10 -14 -20 23 -21 24 -21
-24 -20 -23 -10 14 -9 15 -10 -15 -10 -15 -10 15 -10 15 -9 -15 -10 -14 -20
23 -21 24 -21 -24 -20 -23 -10 14 -9 15 -10 -15 -10 -15 -10 15 -10 15 -9 -15
-10 -14 -20 23 -21 24 -21 -24 -20 -23 -10 14 -9 15 -10 -15 -10 -15 -10 15
-10 15 -9 -15 -10 -14 -20 23 -21 24 -21 -24 -20 -23 -10 14 -9 15 -10 -15
-10 -15 -10 15 -10 15 -9 -14 -9 -14 -17 17 -17 17 6 7 7 6 10 -14 9 -15 10
15 10 15 9 -14 9 -15 32 34 32 34 9 -15 9 -14 9 15 10 14 21 -24 21 -24 10 14
9 15 10 -15 10 -15 10 15 10 15 9 -14 9 -15 31 33 31 34 20 -23 19 -22 17 17
17 17 -14 8 -13 9 7 7 7 7 20 -24 21 -23 9 14 9 14 21 -24 21 -24 10 14 9 15
9 -15 10 -14 21 24 21 24 9 -14 9 -14 28 32 28 31 8 1 7 0 0 -6z m320 0 l0 -7
-22 -18 -21 -19 24 -21 23 -20 -14 -10 -15 -9 15 -9 14 -10 -7 -7 -7 -7 -20
23 -20 23 -21 -24 -20 -23 -10 14 -9 15 -9 -15 -10 -14 -7 6 -6 7 17 17 17 17
8 -13 8 -13 27 28 28 27 -13 8 -13 8 24 25 24 26 8 0 7 1 0 -6z m-1118 -46
l30 -32 8 14 8 13 27 -27 26 -26 -16 -17 -17 -16 -9 14 -9 14 -9 -14 -9 -14
-37 38 -38 37 14 10 14 10 -12 5 -13 5 0 9 0 9 6 0 6 0 30 -32z m958 -78 l0
-10 -10 0 -10 0 0 10 0 10 10 0 10 0 0 -10z"/>
<path d="M552 124 l-13 -14 16 -17 17 -16 9 14 9 14 10 -15 10 -15 10 15 10
15 9 -15 10 -14 20 23 21 24 21 -24 20 -23 10 14 9 15 10 -15 10 -15 10 15 10
15 9 -15 10 -14 20 23 21 24 20 -23 20 -23 6 6 6 6 -27 27 -27 27 -9 -14 -9
-14 -9 15 -10 14 -21 -24 -21 -24 -10 14 -9 15 -9 -15 -10 -14 -21 24 -21 24
-10 -14 -9 -15 -9 15 -10 14 -20 -23 -21 -24 -19 21 -18 22 -4 0 -4 -1 -13
-15z m28 -14 l0 -10 -10 0 -10 0 0 10 0 10 10 0 10 0 0 -10z m80 0 l0 -10 -10
0 -10 0 0 10 0 10 10 0 10 0 0 -10z m160 0 l0 -10 -10 0 -10 0 0 10 0 10 10 0
10 0 0 -10z"/>
<path d="M331 104 l-13 -15 6 -6 5 -5 16 15 15 16 0 5 0 6 -7 0 -8 -1 -14 -15z"/>
<path d="M380 114 l0 -5 15 -16 16 -15 6 5 5 6 -15 16 -16 15 -5 0 -6 0 0 -6z"/>
<path d="M440 90 l0 -10 10 0 10 0 0 10 0 10 -10 0 -10 0 0 -10z"/>
<path d="M480 90 l0 -10 10 0 10 0 0 10 0 10 -10 0 -10 0 0 -10z"/>
<path d="M1180 110 l0 -10 10 0 10 0 0 10 0 10 -10 0 -10 0 0 -10z"/>
<path d="M80 135 l0 -6 26 -26 26 -26 9 14 9 14 9 -15 10 -14 7 6 6 7 -17 17
-17 17 -8 -14 -9 -13 -19 22 -19 22 -7 0 -6 0 0 -5z"/>
<path d="M840 1090 l0 -10 10 0 10 0 0 10 0 10 -10 0 -10 0 0 -10z"/>
<path d="M91 1224 l-14 -16 14 -9 14 -9 -14 -9 -14 -9 17 -18 18 -17 9 14 9
14 10 -15 10 -15 9 15 10 14 21 -24 21 -24 10 14 9 15 9 -15 10 -14 8 7 7 8
-13 9 -14 8 43 42 42 41 -6 7 -7 6 -10 -14 -9 -15 -9 15 -10 14 -21 -24 -21
-24 -10 14 -9 15 -9 -15 -10 -14 -21 24 -21 24 -10 -14 -11 -15 -5 13 -5 12
-6 0 -7 -1 -14 -15z m32 -16 l5 -13 10 14 10 15 31 -33 31 -33 30 32 31 33 5
-6 6 -6 -37 -36 -36 -37 -20 23 -20 23 -10 -14 -9 -15 -10 15 -10 15 -9 -15
-10 -14 -8 7 -7 8 14 10 15 11 -12 5 -13 5 0 9 0 9 9 0 9 0 5 -12z"/>
<path d="M140 1190 l0 -10 10 0 10 0 0 10 0 10 -10 0 -10 0 0 -10z"/>
<path d="M420 1235 l0 -6 36 -35 35 -36 7 7 6 6 -14 10 -15 9 14 9 14 9 -17
18 -18 17 -10 -14 -10 -14 -5 13 -5 12 -9 0 -9 0 0 -5z m60 -25 l0 -10 -10 0
-10 0 0 10 0 10 10 0 10 0 0 -10z"/>
<path d="M727 1217 l-18 -22 -8 14 -9 14 -17 -16 -16 -17 16 -17 17 -16 8 13
8 13 27 -28 28 -27 -13 -8 -13 -8 16 -17 17 -16 17 16 16 17 -13 8 -13 8 28
27 27 28 9 -14 9 -14 9 14 9 14 27 -28 28 -27 -13 -8 -13 -8 17 -18 18 -17 8
13 8 13 27 -28 28 -27 -13 -8 -13 -8 17 -17 17 -17 20 23 20 23 10 -14 9 -15
9 15 10 14 21 -24 21 -24 9 14 8 14 32 -34 31 -33 6 7 6 6 -24 20 -23 21 14
10 15 9 -15 9 -14 10 24 21 24 21 -14 10 -15 9 15 9 14 10 -24 21 -24 21 13 9
14 8 -17 18 -18 17 -8 -14 -9 -13 -21 24 -21 24 -10 -14 -9 -15 -9 15 -10 14
-21 -24 -21 -24 -10 14 -9 15 -9 -15 -10 -14 -21 24 -21 24 -10 -14 -9 -15 -9
15 -10 14 -21 -24 -21 -24 -10 14 -9 15 -9 -15 -10 -14 -21 24 -21 24 -10 -14
-11 -15 -5 13 -5 12 -6 0 -7 0 -18 -23z m36 -9 l5 -13 10 14 10 14 17 -16 16
-17 -25 -25 -26 -26 -25 26 -26 25 13 15 13 14 7 1 6 0 5 -12z m160 0 l5 -13
10 14 10 15 31 -33 31 -33 31 33 31 33 9 -15 9 -14 9 14 9 14 47 -48 48 -47
-14 -9 -14 -9 14 -9 14 -9 -37 -37 -37 -37 -20 23 -20 23 -10 -14 -9 -15 -10
15 -10 15 -9 -14 -9 -14 -76 77 -77 76 13 15 13 14 7 1 6 0 5 -12z"/>
<path d="M740 1194 l0 -5 15 -15 15 -15 16 16 16 16 -6 7 -7 6 -10 -14 -11
-15 -5 13 -5 12 -9 0 -9 0 0 -6z"/>
<path d="M900 1195 l0 -5 66 -66 66 -67 9 14 9 14 10 -15 10 -15 9 15 10 14
20 -23 20 -23 27 27 27 27 -14 9 -14 9 14 9 14 9 -38 37 -37 38 -9 -14 -9 -14
-9 14 -9 15 -31 -33 -31 -33 -31 33 -31 33 -10 -15 -10 -14 -5 13 -5 12 -9 0
-9 0 0 -5z m81 -46 l29 -31 31 33 31 33 9 -15 9 -14 9 14 9 14 27 -28 28 -27
-14 -9 -14 -9 14 -9 14 -9 -16 -17 -17 -16 -17 16 -16 17 13 8 13 8 -16 17
-17 16 -17 -16 -16 -17 14 -8 13 -9 -7 -8 -8 -7 -10 14 -9 15 -9 -14 -9 -14
-46 46 -46 46 0 6 0 5 6 0 6 0 29 -31z"/>
<path d="M1041 1134 l-23 -25 5 -6 6 -5 25 25 26 26 0 6 0 5 -7 -1 -8 0 -24
-25z"/>
<path d="M1100 1154 l0 -5 15 -16 16 -15 6 5 5 6 -15 16 -16 15 -5 0 -6 0 0
-6z"/>
<path d="M1120 1090 l0 -10 10 0 10 0 0 10 0 10 -10 0 -10 0 0 -10z"/>
<path d="M1220 910 l0 -10 10 0 10 0 0 10 0 10 -10 0 -10 0 0 -10z"/>
<path d="M600 890 l0 -10 10 0 10 0 0 10 0 10 -10 0 -10 0 0 -10z"/>
<path d="M640 890 l0 -10 10 0 10 0 0 10 0 10 -10 0 -10 0 0 -10z"/>
</g>
</svg>
