<?xml version="1.0" standalone="no"?>
<!DOCTYPE svg PUBLIC "-//W3C//DTD SVG 20010904//EN"
 "http://www.w3.org/TR/2001/REC-SVG-20010904/DTD/svg10.dtd">
<svg version="1.0" xmlns="http://www.w3.org/2000/svg"
 width="468pt" height="468pt" viewBox="0 0 468 468"
 preserveAspectRatio="xMidYMid meet">
<metadata>
Created by potrace 1.8, written by Peter Selinger 2001-2007
</metadata>
<g transform="translate(0,468) scale(0.365625,-0.365625)"
fill="#000000" stroke="none">
<path d="M480 1270 l0 -10 10 0 10 0 0 10 0 10 -10 0 -10 0 0 -10z"/>
<path d="M580 1270 l0 -10 10 0 10 0 0 -20 0 -20 10 0 10 0 0 16 0 15 -14 15
-15 14 -5 0 -6 0 0 -10z"/>
<path d="M773 1265 l-13 -14 0 -16 0 -15 10 0 10 0 0 20 0 20 10 0 10 0 0 10
0 10 -7 0 -8 -1 -12 -14z"/>
<path d="M900 1270 l0 -10 10 0 10 0 0 10 0 10 -10 0 -10 0 0 -10z"/>
<path d="M680 1240 l0 -20 10 0 10 0 0 20 0 20 -10 0 -10 0 0 -20z"/>
<path d="M520 1235 l0 -6 26 -26 25 -25 6 5 5 6 -25 25 -26 26 -6 0 -5 0 0 -5z"/>
<path d="M841 1214 l-23 -25 5 -6 6 -5 25 25 26 26 0 6 0 5 -7 -1 -8 0 -24
-25z"/>
<path d="M400 1190 l0 -10 19 0 19 0 5 -12 4 -13 8 7 7 7 -15 16 -16 15 -15 0
-16 0 0 -10z"/>
<path d="M640 1190 l0 -10 -16 0 -15 0 -15 -14 -14 -15 0 -15 0 -16 -10 0 -10
0 0 -30 0 -30 10 0 10 0 0 30 0 30 10 0 10 0 0 20 0 20 20 0 20 0 0 10 0 10
50 0 50 0 0 -10 0 -10 20 0 20 0 0 -20 0 -20 10 0 10 0 0 -50 0 -50 -10 0 -10
0 0 -20 0 -20 -20 0 -20 0 0 -10 0 -10 -50 0 -50 0 0 10 0 10 -20 0 -20 0 0
-10 0 -10 20 0 20 0 0 -10 0 -10 50 0 50 0 0 10 0 10 16 0 15 0 15 14 14 15 0
15 0 16 10 0 10 0 0 50 0 50 -10 0 -10 0 0 16 0 15 -14 15 -15 14 -15 0 -16 0
0 10 0 10 -50 0 -50 0 0 -10z"/>
<path d="M931 1184 l-13 -15 7 -7 8 -7 4 13 5 12 19 0 19 0 0 10 0 10 -17 0
-18 -1 -14 -15z"/>
<path d="M480 1154 l0 -5 14 -15 15 -14 15 0 16 0 0 10 0 10 -20 0 -20 0 0 10
0 10 -10 0 -10 0 0 -6z"/>
<path d="M880 1150 l0 -10 -20 0 -20 0 0 -10 0 -10 16 0 15 0 15 14 14 15 0 5
0 6 -10 0 -10 0 0 -10z"/>
<path d="M413 1105 l-13 -14 0 -16 0 -15 -10 0 -10 0 0 -20 0 -20 -10 0 -10 0
0 -30 0 -30 -6 0 -5 0 -16 15 -15 16 21 18 21 18 0 7 0 6 -60 0 -60 0 0 -10 0
-10 20 0 20 0 0 -20 0 -20 10 0 10 0 0 -16 0 -15 14 -15 15 -14 15 0 16 0 0
18 0 18 20 14 20 14 0 18 0 18 10 0 10 0 0 20 0 20 20 0 20 0 0 -8 0 -8 -20
-14 -20 -14 0 -8 0 -8 29 0 29 0 6 -12 6 -13 6 13 6 12 19 0 19 0 0 -10 0 -10
20 0 20 0 0 20 0 20 10 0 10 0 0 10 0 10 -56 0 -55 0 -15 14 -14 15 0 11 0 11
-14 15 -15 14 -3 0 -3 -1 -12 -14z"/>
<path d="M500 1070 l0 -10 20 0 20 0 0 10 0 10 -20 0 -20 0 0 -10z"/>
<path d="M840 1070 l0 -10 30 0 30 0 0 10 0 10 -30 0 -30 0 0 -10z"/>
<path d="M940 1070 l0 -10 20 0 20 0 0 10 0 10 -20 0 -20 0 0 -10z"/>
<path d="M1000 1070 l0 -10 10 0 10 0 0 10 0 10 -10 0 -10 0 0 -10z"/>
<path d="M840 1010 l0 -10 19 0 19 0 5 -12 4 -13 8 7 7 7 -15 16 -16 15 -15 0
-16 0 0 -10z"/>
<path d="M500 962 l0 -18 -20 -14 -20 -14 0 -18 0 -18 -10 0 -10 0 0 -20 0
-20 -20 0 -20 0 0 8 0 8 20 14 20 14 0 8 0 8 -29 0 -29 0 -6 13 -6 12 -6 -12
-6 -13 -19 0 -19 0 0 10 0 10 -20 0 -20 0 0 -20 0 -20 -10 0 -10 0 0 -10 0
-10 56 0 55 0 15 -14 14 -15 0 -15 0 -16 10 0 10 0 0 -40 0 -40 -10 0 -10 0 0
-38 0 -38 -20 -14 -20 -14 0 -14 0 -13 -14 -15 -15 -14 -13 0 -14 0 -14 -20
-14 -20 -18 0 -18 0 0 -10 0 -10 -20 0 -20 0 0 -10 0 -10 -16 0 -16 0 -28 -30
-28 -30 -12 0 -11 0 -15 -14 -14 -15 0 -15 0 -16 -9 0 -9 0 -5 13 -4 12 -9 -8
-8 -8 14 -9 14 -9 -22 -19 -22 -19 0 -27 0 -26 5 0 6 0 34 35 35 34 0 11 0 11
25 24 24 25 12 0 11 0 28 30 28 30 16 0 16 0 0 10 0 10 20 0 20 0 0 10 0 10
20 0 20 0 0 10 0 10 15 0 16 0 34 35 35 34 0 16 0 15 10 0 10 0 0 -15 0 -16
35 -34 34 -35 13 0 14 0 14 -20 14 -20 18 0 18 0 0 -10 0 -10 20 0 20 0 0 -10
0 -10 18 0 18 0 14 -20 14 -20 14 0 13 0 24 -25 25 -24 0 -13 0 -14 20 -14 20
-14 0 -18 0 -18 10 0 10 0 0 -30 0 -30 -420 0 -420 0 0 -100 0 -100 640 0 640
0 0 100 0 100 -40 0 -40 0 0 20 0 20 -10 0 -10 0 0 10 0 10 30 0 30 0 0 -20 0
-20 10 0 10 0 0 30 0 30 -20 0 -20 0 0 20 0 20 -10 0 -10 0 0 10 0 10 40 0 40
0 0 10 0 10 -30 0 -30 0 0 20 0 20 -30 0 -30 0 0 10 0 10 10 0 10 0 0 10 0 10
-20 0 -20 0 0 -20 0 -20 -10 0 -10 0 0 -30 0 -30 10 0 10 0 0 20 0 20 30 0 30
0 0 -10 0 -10 -10 0 -10 0 0 -20 0 -20 -40 0 -40 0 0 -30 0 -30 10 0 10 0 0
20 0 20 40 0 40 0 0 -10 0 -10 -20 0 -20 0 0 -20 0 -20 -20 0 -20 0 0 -10 0
-10 30 0 30 0 0 -10 0 -10 -40 0 -40 0 0 20 0 20 -10 0 -10 0 0 20 0 20 -60 0
-60 0 0 -20 0 -20 -30 0 -30 0 0 -10 0 -10 30 0 30 0 0 -10 0 -10 -40 0 -40 0
0 40 0 40 -10 0 -10 0 0 16 0 16 -30 28 -30 28 0 12 0 11 -14 15 -15 14 -11 0
-12 0 -28 30 -28 30 -16 0 -16 0 0 10 0 10 -20 0 -20 0 0 10 0 10 -18 0 -18 0
-14 20 -14 20 -14 0 -13 0 -15 14 -14 15 0 13 0 14 -20 14 -20 14 0 37 0 37
13 5 12 4 -9 9 -9 9 -4 -12 -5 -13 -9 0 -9 0 0 40 0 40 10 0 10 0 0 20 0 20
10 0 10 0 0 20 0 20 10 0 10 0 0 30 0 30 6 0 5 0 16 -15 15 -16 -21 -18 -21
-18 0 -7 0 -6 50 0 50 0 0 10 0 10 -10 0 -10 0 0 20 0 20 -10 0 -10 0 0 16 0
15 -14 15 -15 14 -15 0 -16 0 0 -18z m560 -712 l0 -10 -30 0 -30 0 0 -20 0
-20 -10 0 -10 0 0 30 0 30 40 0 40 0 0 -10z m20 -40 l0 -10 -30 0 -30 0 0 10
0 10 30 0 30 0 0 -10z"/>
<path d="M920 974 l0 -5 14 -15 15 -14 15 0 16 0 0 10 0 10 -20 0 -20 0 0 10
0 10 -10 0 -10 0 0 -6z"/>
<path d="M800 955 l0 -6 26 -26 25 -25 6 5 5 6 -25 25 -26 26 -6 0 -5 0 0 -5z"/>
<path d="M620 900 l0 -20 10 0 10 0 0 20 0 20 -10 0 -10 0 0 -20z"/>
<path d="M680 890 l0 -30 10 0 10 0 0 30 0 30 -10 0 -10 0 0 -30z"/>
<path d="M760 904 l0 -15 15 -16 16 -15 7 7 7 8 -12 4 -13 5 0 19 0 19 -10 0
-10 0 0 -16z"/>
<path d="M880 874 l0 -5 15 -16 16 -15 6 5 5 6 -15 16 -16 15 -5 0 -6 0 0 -6z"/>
<path d="M573 825 l-13 -14 0 -16 0 -15 10 0 10 0 0 20 0 20 10 0 10 0 0 10 0
10 -7 0 -8 -1 -12 -14z"/>
<path d="M680 810 l0 -30 10 0 10 0 0 30 0 30 -10 0 -10 0 0 -30z"/>
<path d="M800 830 l0 -10 10 0 10 0 0 -20 0 -20 10 0 10 0 0 16 0 15 -14 15
-15 14 -5 0 -6 0 0 -10z"/>
<path d="M20 730 l0 -10 10 0 10 0 0 10 0 10 -10 0 -10 0 0 -10z"/>
<path d="M80 730 l0 -10 10 0 10 0 0 10 0 10 -10 0 -10 0 0 -10z"/>
<path d="M140 730 l0 -10 10 0 10 0 0 10 0 10 -10 0 -10 0 0 -10z"/>
<path d="M180 730 l0 -10 10 0 10 0 0 10 0 10 -10 0 -10 0 0 -10z"/>
<path d="M233 725 l-13 -14 0 -26 0 -25 10 0 10 0 0 20 0 20 20 0 20 0 0 -20
0 -20 10 0 10 0 0 10 0 10 20 0 20 0 0 -10 0 -10 10 0 10 0 0 20 0 20 -30 0
-30 0 0 9 0 9 13 5 12 4 -9 9 -9 9 -4 -12 -5 -13 -19 0 -19 0 0 10 0 10 -7 0
-8 -1 -12 -14z"/>
<path d="M360 730 l0 -10 10 0 10 0 0 10 0 10 -10 0 -10 0 0 -10z"/>
<path d="M500 730 l0 -10 10 0 10 0 0 10 0 10 -10 0 -10 0 0 -10z"/>
<path d="M540 730 l0 -10 10 0 10 0 0 10 0 10 -10 0 -10 0 0 -10z"/>
<path d="M611 724 l-13 -15 6 -6 5 -5 16 15 15 16 0 5 0 6 -7 0 -8 -1 -14 -15z"/>
<path d="M680 730 l0 -10 10 0 10 0 0 10 0 10 -10 0 -10 0 0 -10z"/>
<path d="M840 730 l0 -10 -30 0 -30 0 0 -20 0 -20 9 0 9 0 6 13 6 12 6 -12 6
-13 9 0 9 0 0 20 0 20 10 0 10 0 0 10 0 10 -10 0 -10 0 0 -10z"/>
<path d="M960 730 l0 -10 10 0 10 0 0 10 0 10 -10 0 -10 0 0 -10z"/>
<path d="M1180 730 l0 -10 10 0 10 0 0 10 0 10 -10 0 -10 0 0 -10z"/>
<path d="M1220 730 l0 -10 10 0 10 0 0 10 0 10 -10 0 -10 0 0 -10z"/>
<path d="M740 710 l0 -10 10 0 10 0 0 10 0 10 -10 0 -10 0 0 -10z"/>
<path d="M900 710 l0 -10 10 0 10 0 0 10 0 10 -10 0 -10 0 0 -10z"/>
<path d="M1040 700 l0 -20 10 0 10 0 0 10 0 10 10 0 10 0 0 -30 0 -30 10 0 10
0 0 10 0 10 19 0 19 0 5 -12 4 -13 8 7 7 7 -15 16 -16 15 -15 0 -16 0 0 20 0
20 -30 0 -30 0 0 -20z"/>
<path d="M1140 710 l0 -10 10 0 10 0 0 10 0 10 -10 0 -10 0 0 -10z"/>
<path d="M0 680 l0 -20 10 0 10 0 0 10 0 10 20 0 20 0 0 -10 0 -10 20 0 20 0
0 -10 0 -10 -30 0 -30 0 0 -20 0 -20 10 0 10 0 0 10 0 10 30 0 30 0 0 -10 0
-10 10 0 10 0 0 20 0 20 -10 0 -10 0 0 20 0 20 -20 0 -20 0 0 10 0 10 -40 0
-40 0 0 -20z"/>
<path d="M140 680 l0 -20 9 0 9 0 6 13 6 12 6 -12 6 -13 9 0 9 0 0 20 0 20
-30 0 -30 0 0 -20z"/>
<path d="M480 690 l0 -10 10 0 10 0 0 10 0 10 -10 0 -10 0 0 -10z"/>
<path d="M520 680 l0 -20 10 0 10 0 0 10 0 10 10 0 10 0 0 -20 0 -20 10 0 10
0 0 10 0 10 10 0 10 0 0 -20 0 -20 10 0 10 0 0 30 0 30 -20 0 -20 0 0 10 0 10
-30 0 -30 0 0 -20z"/>
<path d="M660 680 l0 -20 9 0 9 0 6 13 6 12 6 -12 6 -13 9 0 9 0 0 20 0 20
-30 0 -30 0 0 -20z"/>
<path d="M960 690 l0 -10 30 0 30 0 0 10 0 10 -30 0 -30 0 0 -10z"/>
<path d="M1220 690 l0 -10 -20 0 -20 0 0 -20 0 -20 9 0 9 0 6 13 6 12 6 -12 6
-13 9 0 9 0 0 20 0 20 10 0 10 0 0 10 0 10 -20 0 -20 0 0 -10z"/>
<path d="M860 670 l0 -10 10 0 10 0 0 10 0 10 -10 0 -10 0 0 -10z"/>
<path d="M900 670 l0 -10 10 0 10 0 0 -10 0 -10 -20 0 -20 0 0 -10 0 -10 40 0
40 0 0 -16 0 -15 -14 -15 -15 -14 -11 0 -11 0 -24 25 -25 24 0 16 0 15 -30 0
-30 0 0 -10 0 -10 20 0 20 0 0 -10 0 -10 -10 0 -10 0 0 -30 0 -30 -10 0 -10 0
0 10 0 10 -50 0 -50 0 0 20 0 20 -10 0 -10 0 0 10 0 10 20 0 20 0 0 -20 0 -20
10 0 10 0 0 30 0 30 -40 0 -40 0 0 -20 0 -20 -26 0 -25 0 -16 -15 -15 -16 7
-7 8 -7 4 13 5 12 39 0 39 0 0 -30 0 -30 10 0 10 0 0 10 0 10 30 0 30 0 0 -20
0 -20 -10 0 -10 0 0 -10 0 -10 50 0 50 0 0 -10 0 -10 10 0 10 0 0 20 0 20 -40
0 -40 0 0 10 0 10 40 0 40 0 0 10 0 10 -10 0 -10 0 0 20 0 20 20 0 20 0 0 -30
0 -30 10 0 10 0 0 10 0 10 20 0 20 0 0 -10 0 -10 10 0 10 0 0 20 0 20 20 0 20
0 0 10 0 10 -10 0 -10 0 0 10 0 10 40 0 40 0 0 10 0 10 -46 0 -45 0 -15 14
-14 15 0 15 0 16 -20 0 -20 0 0 -10z"/>
<path d="M760 640 l0 -20 10 0 10 0 0 20 0 20 -10 0 -10 0 0 -20z"/>
<path d="M980 650 l0 -10 20 0 20 0 0 10 0 10 -20 0 -20 0 0 -10z"/>
<path d="M200 610 l0 -30 10 0 10 0 0 20 0 20 20 0 20 0 0 -20 0 -20 10 0 10
0 0 10 0 10 20 0 20 0 0 10 0 10 -20 0 -20 0 0 10 0 10 -40 0 -40 0 0 -30z"/>
<path d="M520 630 l0 -10 10 0 10 0 0 10 0 10 -10 0 -10 0 0 -10z"/>
<path d="M160 610 l0 -10 10 0 10 0 0 10 0 10 -10 0 -10 0 0 -10z"/>
<path d="M560 610 l0 -10 10 0 10 0 0 10 0 10 -10 0 -10 0 0 -10z"/>
<path d="M1120 570 l0 -50 10 0 10 0 0 40 0 40 40 0 40 0 0 -20 0 -20 6 0 5 0
15 15 15 15 -15 15 -15 15 -55 0 -56 0 0 -50z"/>
<path d="M0 590 l0 -10 10 0 10 0 0 10 0 10 -10 0 -10 0 0 -10z"/>
<path d="M1080 580 l0 -20 10 0 10 0 0 20 0 20 -10 0 -10 0 0 -20z"/>
<path d="M80 570 l0 -10 -30 0 -30 0 0 -10 0 -10 30 0 30 0 0 -10 0 -10 10 0
10 0 0 20 0 20 20 0 20 0 0 -30 0 -30 10 0 10 0 0 20 0 20 19 0 19 0 6 -12 6
-13 6 13 6 12 19 0 19 0 0 10 0 10 -50 0 -50 0 0 10 0 10 -40 0 -40 0 0 -10z"/>
<path d="M1020 550 l0 -30 10 0 10 0 0 30 0 30 -10 0 -10 0 0 -30z"/>
<path d="M640 530 l0 -10 10 0 10 0 0 10 0 10 -10 0 -10 0 0 -10z"/>
<path d="M1180 520 l0 -20 -30 0 -30 0 0 -20 0 -20 10 0 10 0 0 10 0 10 20 0
20 0 0 -10 0 -10 10 0 10 0 0 30 0 30 20 0 20 0 0 10 0 10 -30 0 -30 0 0 -20z"/>
<path d="M980 510 l0 -10 10 0 10 0 0 10 0 10 -10 0 -10 0 0 -10z"/>
<path d="M1080 510 l0 -10 10 0 10 0 0 10 0 10 -10 0 -10 0 0 -10z"/>
<path d="M0 490 l0 -10 40 0 40 0 0 -20 0 -20 10 0 10 0 0 30 0 30 -50 0 -50
0 0 -10z"/>
<path d="M900 490 l0 -10 10 0 10 0 0 -20 0 -20 -49 0 -49 0 -5 13 -4 12 -9
-9 -9 -9 13 -4 12 -5 0 -29 0 -29 10 0 10 0 0 20 0 20 40 0 40 0 0 -10 0 -10
10 0 10 0 0 30 0 30 50 0 50 0 0 -10 0 -10 -20 0 -20 0 0 -30 0 -30 10 0 10 0
0 20 0 20 50 0 50 0 0 10 0 10 -30 0 -30 0 0 20 0 20 -70 0 -70 0 0 10 0 10
-10 0 -10 0 0 -10z"/>
<path d="M1220 480 l0 -20 10 0 10 0 0 10 0 10 20 0 20 0 0 10 0 10 -30 0 -30
0 0 -20z"/>
<path d="M0 450 l0 -10 10 0 10 0 0 10 0 10 -10 0 -10 0 0 -10z"/>
<path d="M40 450 l0 -10 10 0 10 0 0 10 0 10 -10 0 -10 0 0 -10z"/>
<path d="M540 451 l0 -9 13 -6 12 -6 -12 -6 -13 -6 0 -14 0 -15 25 -25 25 -25
15 15 15 15 0 14 0 15 13 5 12 4 -8 9 -8 8 -9 -14 -8 -14 -30 32 -30 32 -6 0
-6 0 0 -9z m46 -45 l14 -15 0 -15 0 -16 -6 0 -5 0 -15 14 -14 15 0 15 0 16 6
0 5 0 15 -14z"/>
<path d="M760 450 l0 -10 10 0 10 0 0 10 0 10 -10 0 -10 0 0 -10z"/>
<path d="M500 430 l0 -10 10 0 10 0 0 10 0 10 -10 0 -10 0 0 -10z"/>
<path d="M960 430 l0 -10 10 0 10 0 0 10 0 10 -10 0 -10 0 0 -10z"/>
<path d="M1200 430 l0 -10 30 0 30 0 0 -10 0 -10 10 0 10 0 0 20 0 20 -40 0
-40 0 0 -10z"/>
<path d="M0 410 l0 -10 20 0 20 0 0 10 0 10 -20 0 -20 0 0 -10z"/>
<path d="M180 390 l0 -10 10 0 10 0 0 10 0 10 -10 0 -10 0 0 -10z"/>
<path d="M860 370 l0 -30 10 0 10 0 0 20 0 20 10 0 10 0 0 -10 0 -10 30 0 30
0 0 -20 0 -20 -30 0 -30 0 0 -30 0 -30 10 0 10 0 0 20 0 20 40 0 40 0 0 10 0
10 -10 0 -10 0 0 10 0 10 40 0 40 0 0 -20 0 -20 10 0 10 0 0 30 0 30 -50 0
-50 0 0 10 0 10 -40 0 -40 0 0 10 0 10 -20 0 -20 0 0 -30z"/>
<path d="M1040 390 l0 -10 10 0 10 0 0 10 0 10 -10 0 -10 0 0 -10z"/>
<path d="M500 370 l0 -10 10 0 10 0 0 10 0 10 -10 0 -10 0 0 -10z"/>
<path d="M640 370 l0 -10 10 0 10 0 0 10 0 10 -10 0 -10 0 0 -10z"/>
<path d="M160 350 l0 -10 10 0 10 0 0 10 0 10 -10 0 -10 0 0 -10z"/>
<path d="M540 330 l0 -10 10 0 10 0 0 10 0 10 -10 0 -10 0 0 -10z"/>
<path d="M620 330 l0 -10 10 0 10 0 0 10 0 10 -10 0 -10 0 0 -10z"/>
<path d="M100 310 l0 -10 10 0 10 0 0 10 0 10 -10 0 -10 0 0 -10z"/>
<path d="M580 310 l0 -10 10 0 10 0 0 10 0 10 -10 0 -10 0 0 -10z"/>
<path d="M1020 310 l0 -10 10 0 10 0 0 10 0 10 -10 0 -10 0 0 -10z"/>
<path d="M1240 310 l0 -10 10 0 10 0 0 10 0 10 -10 0 -10 0 0 -10z"/>
<path d="M180 290 l0 -10 10 0 10 0 0 10 0 10 -10 0 -10 0 0 -10z"/>
<path d="M240 290 l0 -10 10 0 10 0 0 10 0 10 -10 0 -10 0 0 -10z"/>
<path d="M80 250 l0 -10 10 0 10 0 0 10 0 10 -10 0 -10 0 0 -10z"/>
<path d="M140 250 l0 -10 10 0 10 0 0 10 0 10 -10 0 -10 0 0 -10z"/>
<path d="M300 250 l0 -10 10 0 10 0 0 10 0 10 -10 0 -10 0 0 -10z"/>
<path d="M20 230 l0 -10 10 0 10 0 0 10 0 10 -10 0 -10 0 0 -10z"/>
<path d="M200 230 l0 -10 10 0 10 0 0 10 0 10 -10 0 -10 0 0 -10z"/>
</g>
</svg>
