<?xml version="1.0" standalone="no"?>
<!DOCTYPE svg PUBLIC "-//W3C//DTD SVG 20010904//EN"
 "http://www.w3.org/TR/2001/REC-SVG-20010904/DTD/svg10.dtd">
<svg version="1.0" xmlns="http://www.w3.org/2000/svg"
 width="468pt" height="468pt" viewBox="0 0 468 468"
 preserveAspectRatio="xMidYMid meet">
<metadata>
Created by potrace 1.8, written by Peter Selinger 2001-2007
</metadata>
<g transform="translate(0,468) scale(0.365625,-0.365625)"
fill="#000000" stroke="none">
<path d="M60 1265 l0 -15 -15 0 -15 0 0 -15 0 -15 -15 0 -15 0 0 -610 0 -610
30 0 30 0 0 15 0 15 -15 0 -15 0 0 565 0 565 15 0 15 0 0 -565 0 -565 15 0 15
0 0 -15 0 -15 485 0 485 0 0 15 0 15 30 0 30 0 0 -15 0 -15 80 0 80 0 0 595 0
595 -15 0 -15 0 0 15 0 15 -15 0 -15 0 0 15 0 15 -15 0 -15 0 0 15 0 15 -565
0 -565 0 0 -15z m220 -30 l0 -15 -80 0 -80 0 0 15 0 15 80 0 80 0 0 -15z m440
0 l0 -15 -30 0 -30 0 0 -15 0 -15 15 0 15 0 0 -15 0 -15 -15 0 -15 0 0 -35 0
-35 -205 0 -205 0 0 35 0 35 -15 0 -15 0 0 -65 0 -65 15 0 15 0 0 -30 0 -30
15 0 15 0 0 -30 0 -30 15 0 15 0 0 -35 0 -35 15 0 15 0 0 -30 0 -30 -15 0 -15
0 0 -205 0 -205 15 0 15 0 0 -125 0 -125 235 0 235 0 0 520 0 520 -15 0 -15 0
0 15 0 15 125 0 125 0 0 -15 0 -15 15 0 15 0 0 -550 0 -550 -15 0 -15 0 0 -15
0 -15 -455 0 -455 0 0 15 0 15 -15 0 -15 0 0 550 0 550 15 0 15 0 0 15 0 15
65 0 65 0 0 -15 0 -15 15 0 15 0 0 15 0 15 15 0 15 0 0 30 0 30 205 0 205 0 0
-15z m340 0 l0 -15 15 0 15 0 0 15 0 15 35 0 35 0 0 -15 0 -15 15 0 15 0 0
-15 0 -15 -65 0 -65 0 0 15 0 15 -155 0 -155 0 0 15 0 15 155 0 155 0 0 -15z
m-970 -30 l0 -15 -15 0 -15 0 0 15 0 15 15 0 15 0 0 -15z m1100 -610 l0 -565
-15 0 -15 0 0 15 0 15 -35 0 -35 0 0 550 0 550 50 0 50 0 0 -565z m-910 450
l0 -15 15 0 15 0 0 15 0 15 15 0 15 0 0 -15 0 -15 15 0 15 0 0 15 0 15 20 0
20 0 0 -15 0 -15 15 0 15 0 0 15 0 15 15 0 15 0 0 -15 0 -15 15 0 15 0 0 15 0
15 15 0 15 0 0 -15 0 -15 15 0 15 0 0 15 0 15 15 0 15 0 0 -15 0 -15 15 0 15
0 0 15 0 15 20 0 20 0 0 -15 0 -15 15 0 15 0 0 -30 0 -30 15 0 15 0 0 -30 0
-30 15 0 15 0 0 -35 0 -35 15 0 15 0 0 -15 0 -15 -15 0 -15 0 0 15 0 15 -15 0
-15 0 0 -15 0 -15 -15 0 -15 0 0 15 0 15 -15 0 -15 0 0 -15 0 -15 -20 0 -20 0
0 15 0 15 -15 0 -15 0 0 -15 0 -15 -15 0 -15 0 0 15 0 15 -15 0 -15 0 0 -15 0
-15 -15 0 -15 0 0 15 0 15 -15 0 -15 0 0 -15 0 -15 -15 0 -15 0 0 15 0 15 -15
0 -15 0 0 -15 0 -15 -20 0 -20 0 0 15 0 15 -15 0 -15 0 0 35 0 35 -15 0 -15 0
0 30 0 30 -15 0 -15 0 0 30 0 30 -15 0 -15 0 0 15 0 15 15 0 15 0 0 -15z m470
-310 l0 -45 -15 0 -15 0 0 -15 0 -15 15 0 15 0 0 -50 0 -50 -15 0 -15 0 0 -15
0 -15 15 0 15 0 0 -45 0 -45 -15 0 -15 0 0 -15 0 -15 15 0 15 0 0 -20 0 -20
-15 0 -15 0 0 -15 0 -15 15 0 15 0 0 15 0 15 15 0 15 0 0 -30 0 -30 -15 0 -15
0 0 -15 0 -15 15 0 15 0 0 -15 0 -15 -15 0 -15 0 0 -15 0 -15 15 0 15 0 0 -15
0 -15 -15 0 -15 0 0 -15 0 -15 -15 0 -15 0 0 15 0 15 -15 0 -15 0 0 -15 0 -15
-15 0 -15 0 0 15 0 15 -20 0 -20 0 0 -15 0 -15 -15 0 -15 0 0 15 0 15 -15 0
-15 0 0 -15 0 -15 -15 0 -15 0 0 15 0 15 -15 0 -15 0 0 -15 0 -15 -15 0 -15 0
0 15 0 15 -30 0 -30 0 0 30 0 30 -20 0 -20 0 0 15 0 15 20 0 20 0 0 15 0 15
-20 0 -20 0 0 30 0 30 -15 0 -15 0 0 20 0 20 15 0 15 0 0 15 0 15 -15 0 -15 0
0 45 0 45 15 0 15 0 0 15 0 15 -15 0 -15 0 0 50 0 50 15 0 15 0 0 15 0 15 -15
0 -15 0 0 45 0 45 205 0 205 0 0 -45z"/>
<path d="M340 1205 l0 -15 15 0 15 0 0 15 0 15 -15 0 -15 0 0 -15z"/>
<path d="M410 1205 l0 -15 15 0 15 0 0 15 0 15 -15 0 -15 0 0 -15z"/>
<path d="M470 1205 l0 -15 15 0 15 0 0 15 0 15 -15 0 -15 0 0 -15z"/>
<path d="M530 1205 l0 -15 15 0 15 0 0 15 0 15 -15 0 -15 0 0 -15z"/>
<path d="M590 1205 l0 -15 15 0 15 0 0 15 0 15 -15 0 -15 0 0 -15z"/>
<path d="M280 1140 l0 -20 15 0 15 0 0 20 0 20 -15 0 -15 0 0 -20z"/>
<path d="M340 1140 l0 -20 15 0 15 0 0 20 0 20 -15 0 -15 0 0 -20z"/>
<path d="M410 1140 l0 -20 15 0 15 0 0 20 0 20 -15 0 -15 0 0 -20z"/>
<path d="M470 1140 l0 -20 15 0 15 0 0 20 0 20 -15 0 -15 0 0 -20z"/>
<path d="M530 1140 l0 -20 15 0 15 0 0 20 0 20 -15 0 -15 0 0 -20z"/>
<path d="M590 1140 l0 -20 15 0 15 0 0 20 0 20 -15 0 -15 0 0 -20z"/>
<path d="M160 1105 l0 -15 15 0 15 0 0 15 0 15 -15 0 -15 0 0 -15z"/>
<path d="M970 1105 l0 -15 15 0 15 0 0 15 0 15 -15 0 -15 0 0 -15z"/>
<path d="M160 105 l0 -15 15 0 15 0 0 15 0 15 -15 0 -15 0 0 -15z"/>
<path d="M970 105 l0 -15 15 0 15 0 0 15 0 15 -15 0 -15 0 0 -15z"/>
<path d="M310 1000 l0 -30 15 0 15 0 0 -30 0 -30 15 0 15 0 0 -35 0 -35 20 0
20 0 0 35 0 35 15 0 15 0 0 -35 0 -35 15 0 15 0 0 35 0 35 15 0 15 0 0 -35 0
-35 15 0 15 0 0 35 0 35 15 0 15 0 0 -35 0 -35 15 0 15 0 0 35 0 35 15 0 15 0
0 -35 0 -35 20 0 20 0 0 35 0 35 15 0 15 0 0 -35 0 -35 15 0 15 0 0 35 0 35
-15 0 -15 0 0 30 0 30 -15 0 -15 0 0 30 0 30 -20 0 -20 0 0 -30 0 -30 -15 0
-15 0 0 30 0 30 -15 0 -15 0 0 -30 0 -30 -15 0 -15 0 0 30 0 30 -15 0 -15 0 0
-30 0 -30 -15 0 -15 0 0 30 0 30 -15 0 -15 0 0 -30 0 -30 -15 0 -15 0 0 30 0
30 -20 0 -20 0 0 -30 0 -30 -15 0 -15 0 0 30 0 30 -15 0 -15 0 0 -30z m100
-60 l0 -30 -20 0 -20 0 0 30 0 30 20 0 20 0 0 -30z m60 0 l0 -30 -15 0 -15 0
0 30 0 30 15 0 15 0 0 -30z m60 0 l0 -30 -15 0 -15 0 0 30 0 30 15 0 15 0 0
-30z m60 0 l0 -30 -15 0 -15 0 0 30 0 30 15 0 15 0 0 -30z m70 0 l0 -30 -20 0
-20 0 0 30 0 30 20 0 20 0 0 -30z"/>
<path d="M370 735 l0 -15 20 0 20 0 0 15 0 15 -20 0 -20 0 0 -15z"/>
<path d="M440 735 l0 -15 15 0 15 0 0 15 0 15 -15 0 -15 0 0 -15z"/>
<path d="M500 735 l0 -15 15 0 15 0 0 15 0 15 -15 0 -15 0 0 -15z"/>
<path d="M560 735 l0 -15 15 0 15 0 0 15 0 15 -15 0 -15 0 0 -15z"/>
<path d="M620 735 l0 -15 20 0 20 0 0 15 0 15 -20 0 -20 0 0 -15z"/>
<path d="M690 735 l0 -15 15 0 15 0 0 15 0 15 -15 0 -15 0 0 -15z"/>
<path d="M410 675 l0 -15 15 0 15 0 0 15 0 15 -15 0 -15 0 0 -15z"/>
<path d="M470 675 l0 -15 15 0 15 0 0 15 0 15 -15 0 -15 0 0 -15z"/>
<path d="M530 675 l0 -15 15 0 15 0 0 15 0 15 -15 0 -15 0 0 -15z"/>
<path d="M590 675 l0 -15 15 0 15 0 0 15 0 15 -15 0 -15 0 0 -15z"/>
<path d="M660 675 l0 -15 15 0 15 0 0 15 0 15 -15 0 -15 0 0 -15z"/>
<path d="M370 605 l0 -15 20 0 20 0 0 15 0 15 -20 0 -20 0 0 -15z"/>
<path d="M440 605 l0 -15 15 0 15 0 0 15 0 15 -15 0 -15 0 0 -15z"/>
<path d="M500 605 l0 -15 15 0 15 0 0 15 0 15 -15 0 -15 0 0 -15z"/>
<path d="M560 605 l0 -15 15 0 15 0 0 15 0 15 -15 0 -15 0 0 -15z"/>
<path d="M620 605 l0 -15 20 0 20 0 0 15 0 15 -20 0 -20 0 0 -15z"/>
<path d="M690 605 l0 -15 15 0 15 0 0 15 0 15 -15 0 -15 0 0 -15z"/>
<path d="M410 545 l0 -15 15 0 15 0 0 15 0 15 -15 0 -15 0 0 -15z"/>
<path d="M470 545 l0 -15 15 0 15 0 0 15 0 15 -15 0 -15 0 0 -15z"/>
<path d="M530 545 l0 -15 15 0 15 0 0 15 0 15 -15 0 -15 0 0 -15z"/>
<path d="M590 545 l0 -15 15 0 15 0 0 15 0 15 -15 0 -15 0 0 -15z"/>
<path d="M660 545 l0 -15 15 0 15 0 0 15 0 15 -15 0 -15 0 0 -15z"/>
<path d="M370 485 l0 -15 20 0 20 0 0 15 0 15 -20 0 -20 0 0 -15z"/>
<path d="M440 485 l0 -15 15 0 15 0 0 15 0 15 -15 0 -15 0 0 -15z"/>
<path d="M500 485 l0 -15 15 0 15 0 0 15 0 15 -15 0 -15 0 0 -15z"/>
<path d="M560 485 l0 -15 15 0 15 0 0 15 0 15 -15 0 -15 0 0 -15z"/>
<path d="M620 485 l0 -15 20 0 20 0 0 15 0 15 -20 0 -20 0 0 -15z"/>
<path d="M690 485 l0 -15 15 0 15 0 0 15 0 15 -15 0 -15 0 0 -15z"/>
<path d="M410 425 l0 -15 15 0 15 0 0 15 0 15 -15 0 -15 0 0 -15z"/>
<path d="M470 425 l0 -15 15 0 15 0 0 15 0 15 -15 0 -15 0 0 -15z"/>
<path d="M530 425 l0 -15 15 0 15 0 0 15 0 15 -15 0 -15 0 0 -15z"/>
<path d="M590 425 l0 -15 15 0 15 0 0 15 0 15 -15 0 -15 0 0 -15z"/>
<path d="M660 425 l0 -15 15 0 15 0 0 15 0 15 -15 0 -15 0 0 -15z"/>
<path d="M410 355 l0 -15 15 0 15 0 0 15 0 15 -15 0 -15 0 0 -15z"/>
<path d="M470 355 l0 -15 15 0 15 0 0 15 0 15 -15 0 -15 0 0 -15z"/>
<path d="M530 355 l0 -15 15 0 15 0 0 15 0 15 -15 0 -15 0 0 -15z"/>
<path d="M590 355 l0 -15 15 0 15 0 0 15 0 15 -15 0 -15 0 0 -15z"/>
<path d="M660 355 l0 -15 15 0 15 0 0 15 0 15 -15 0 -15 0 0 -15z"/>
<path d="M440 295 l0 -15 15 0 15 0 0 15 0 15 -15 0 -15 0 0 -15z"/>
<path d="M500 295 l0 -15 15 0 15 0 0 15 0 15 -15 0 -15 0 0 -15z"/>
<path d="M560 295 l0 -15 15 0 15 0 0 15 0 15 -15 0 -15 0 0 -15z"/>
<path d="M620 295 l0 -15 20 0 20 0 0 15 0 15 -20 0 -20 0 0 -15z"/>
<path d="M690 295 l0 -15 15 0 15 0 0 15 0 15 -15 0 -15 0 0 -15z"/>
<path d="M440 235 l0 -15 15 0 15 0 0 15 0 15 -15 0 -15 0 0 -15z"/>
<path d="M500 235 l0 -15 15 0 15 0 0 15 0 15 -15 0 -15 0 0 -15z"/>
<path d="M560 235 l0 -15 15 0 15 0 0 15 0 15 -15 0 -15 0 0 -15z"/>
<path d="M620 235 l0 -15 20 0 20 0 0 15 0 15 -20 0 -20 0 0 -15z"/>
<path d="M690 235 l0 -15 15 0 15 0 0 15 0 15 -15 0 -15 0 0 -15z"/>
</g>
</svg>
