<?xml version="1.0" standalone="no"?>
<!DOCTYPE svg PUBLIC "-//W3C//DTD SVG 20010904//EN"
 "http://www.w3.org/TR/2001/REC-SVG-20010904/DTD/svg10.dtd">
<svg version="1.0" xmlns="http://www.w3.org/2000/svg"
 width="468pt" height="468pt" viewBox="0 0 468 468"
 preserveAspectRatio="xMidYMid meet">
<metadata>
Created by potrace 1.8, written by Peter Selinger 2001-2007
</metadata>
<g transform="translate(0,468) scale(0.365625,-0.365625)"
fill="#000000" stroke="none">
<path d="M791 1264 l-13 -15 7 -7 8 -7 4 13 5 12 39 0 39 0 0 -30 0 -30 10 0
10 0 0 -30 0 -30 -10 0 -10 0 0 10 0 10 -20 0 -20 0 0 10 0 10 -40 0 -40 0 0
10 0 10 -40 0 -40 0 0 10 0 10 -60 0 -60 0 0 10 0 10 -80 0 -80 0 0 -10 0 -10
-50 0 -50 0 0 -10 0 -10 -30 0 -30 0 0 -10 0 -10 80 0 80 0 0 -10 0 -10 -40 0
-40 0 0 -10 0 -10 -40 0 -40 0 0 -10 0 -10 -20 0 -20 0 0 -10 0 -10 70 0 70 0
0 -90 0 -90 -76 0 -75 0 -15 -14 -14 -15 0 -51 0 -51 14 -15 15 -14 15 0 16 0
0 -10 0 -10 20 0 20 0 0 -10 0 -10 30 0 30 0 0 -5 0 -6 -70 -69 -70 -69 0 -13
0 -14 20 -14 20 -14 0 -16 0 -16 20 -14 20 -14 0 -18 0 -18 10 0 10 0 0 -20 0
-20 10 0 10 0 0 -18 0 -18 -20 -14 -20 -14 0 -28 0 -28 20 0 20 0 0 -30 0 -30
-10 0 -10 0 0 -20 0 -20 -10 0 -10 0 0 -20 0 -20 -10 0 -10 0 0 -20 0 -20 -10
0 -10 0 0 -18 0 -18 -20 -14 -20 -14 0 -8 0 -8 470 0 470 0 0 16 0 16 -30 28
-30 28 0 14 0 14 -20 14 -20 14 0 18 0 18 10 0 10 0 0 30 0 30 10 0 10 0 0 40
0 40 -10 0 -10 0 0 -10 0 -10 -30 0 -30 0 0 110 0 110 -10 0 -10 0 0 80 0 80
-10 0 -10 0 0 80 0 80 -10 0 -10 0 0 60 0 60 10 0 10 0 0 -10 0 -10 16 0 15 0
15 14 14 15 0 25 0 26 -10 0 -10 0 0 20 0 20 20 0 20 0 0 -10 0 -10 18 0 18 0
14 -20 14 -20 18 0 18 0 0 40 0 40 -10 0 -10 0 0 20 0 20 -10 0 -10 0 0 20 0
20 -19 0 -19 0 -6 13 -6 12 -6 -12 -6 -13 -17 0 -17 0 -14 -20 -14 -20 -8 0
-8 0 0 20 0 20 -10 0 -10 0 0 30 0 30 10 0 10 0 0 19 0 19 13 5 12 4 -7 8 -7
7 -16 -15 -15 -16 0 -15 0 -16 -10 0 -10 0 0 16 0 15 -14 15 -15 14 -33 0 -33
-1 -14 -15z m-391 -173 l0 -9 -12 -4 -13 -5 17 -16 17 -17 15 0 16 0 0 -10 0
-10 -10 0 -10 0 0 -36 0 -35 -14 -15 -15 -14 -15 0 -16 0 0 59 0 59 13 6 12 6
-12 6 -13 6 0 19 0 19 20 0 20 0 0 -9z m107 -6 l15 -16 -21 -18 -21 -18 0 -42
0 -42 14 -15 15 -14 11 0 11 0 15 14 14 15 0 45 0 46 9 0 9 0 5 -12 4 -13 8 7
8 7 -32 30 -31 29 0 6 0 6 50 0 50 0 0 -10 0 -10 80 0 80 0 0 -10 0 -10 -10 0
-10 0 0 -20 0 -20 -10 0 -10 0 0 -30 0 -30 10 0 10 0 0 -16 0 -15 14 -15 15
-14 35 0 36 0 0 20 0 20 10 0 10 0 0 -50 0 -50 10 0 10 0 0 -80 0 -80 10 0 10
0 0 -90 0 -90 10 0 10 0 0 -100 0 -100 -60 0 -60 0 0 -10 0 -10 -30 0 -30 0 0
30 0 30 10 0 10 0 0 30 0 30 -10 0 -10 0 0 28 0 28 -20 14 -20 14 0 13 0 13
-125 125 -125 125 -15 0 -15 0 0 20 0 20 -8 0 -8 0 -14 -20 -14 -20 -18 0 -18
0 0 -10 0 -10 -60 0 -60 0 0 10 0 10 -20 0 -20 0 0 10 0 10 -20 0 -20 0 0 46
0 45 14 15 15 14 101 0 101 0 24 25 25 24 0 43 0 44 -20 14 -20 14 0 8 0 8 20
0 20 0 0 10 0 10 16 0 15 0 16 -15z m33 -55 l0 -10 -10 0 -10 0 0 -40 0 -40
-10 0 -10 0 0 50 0 50 20 0 20 0 0 -10z m-137 -302 l5 -13 11 15 10 14 8 -7 7
-8 -14 -10 -15 -9 15 -10 15 -10 -15 -10 -15 -10 14 -9 15 -9 -34 -32 -34 -32
14 -8 13 -8 -42 -41 -42 -40 66 -66 66 -66 15 16 16 15 -42 40 -42 41 6 7 7 6
10 -14 9 -15 10 15 10 15 9 -15 10 -14 21 24 21 24 9 -13 8 -14 27 27 26 26
-16 16 -16 16 -20 -23 -20 -23 -9 14 -9 14 -21 -24 -21 -24 -10 14 -9 15 -9
-15 -10 -14 -7 6 -7 7 33 31 34 32 -14 8 -14 8 34 32 34 32 -15 9 -14 9 15 10
15 10 -15 9 -14 10 6 6 6 7 117 -117 117 -117 -13 -8 -13 -8 34 -32 34 -32
-15 -9 -14 -9 15 -10 15 -10 -15 -10 -15 -10 15 -9 14 -10 -24 -21 -24 -21 14
-9 14 -9 -7 -8 -8 -7 -9 13 -8 14 -17 -17 -17 -17 23 -19 22 -20 -6 -6 -6 -6
-41 42 -41 42 -19 -22 -19 -22 -42 43 -41 42 -9 -14 -9 -14 -9 15 -10 14 -20
-23 -20 -23 -57 57 -57 57 13 8 13 8 -43 42 -43 42 13 8 14 8 -33 31 -32 30
83 85 83 84 7 1 6 1 5 -12z m-37 -423 l15 -15 -16 -16 -16 -16 -7 6 -6 7 14
10 15 11 -12 5 -13 5 0 9 0 9 6 0 5 0 15 -15z m134 -34 l0 -9 -12 -5 -13 -5
15 -11 15 -11 -15 -10 -15 -10 15 -10 15 -10 -15 -10 -15 -10 15 -10 15 -10
-15 -10 -15 -10 15 -10 15 -10 -15 -10 -15 -10 15 -10 15 -10 -15 -10 -15 -10
15 -9 14 -10 -6 -7 -7 -6 -17 17 -17 17 14 8 13 9 -6 7 -7 6 -16 -15 -15 -16
0 -15 0 -16 -40 0 -40 0 0 16 0 15 -14 15 -15 14 -15 0 -16 0 0 -16 0 -15 -14
-15 -15 -14 -25 0 -26 0 0 10 0 10 10 0 10 0 0 20 0 20 10 0 10 0 0 16 0 15
14 15 15 14 21 0 21 0 16 15 15 16 -21 18 -21 18 0 7 0 6 18 0 18 0 14 -20 14
-20 18 0 18 0 0 9 0 9 -12 5 -13 5 15 11 15 11 -15 9 -14 10 6 7 7 6 17 -17
17 -17 -14 -9 -14 -9 15 -11 15 -11 -12 -5 -13 -5 0 -14 0 -15 26 -26 25 -25
7 6 6 7 -14 10 -15 9 15 10 15 10 -15 10 -15 10 15 10 15 10 -15 10 -15 10 15
10 15 10 -14 9 -14 9 14 16 14 15 8 1 7 0 0 -9z m387 -7 l16 -16 -14 -9 -14
-9 15 -9 14 -10 -6 -7 -7 -6 -17 17 -17 17 14 10 14 10 -12 5 -13 5 0 9 0 9 6
0 5 0 16 -16z m60 0 l16 -16 -14 -9 -14 -9 15 -9 14 -10 -6 -7 -7 -6 -17 17
-17 17 14 10 14 10 -12 5 -13 5 0 9 0 9 6 0 5 0 16 -16z m56 4 l5 -13 11 15
10 14 7 -7 7 -7 -24 -20 -23 -21 14 -9 14 -9 -6 -7 -7 -6 -17 17 -17 17 14 10
14 10 -12 5 -13 5 0 9 0 9 9 0 9 0 5 -12z m-457 -23 l15 -15 -16 -16 -16 -16
-7 6 -6 7 14 10 15 11 -12 5 -13 5 0 9 0 9 6 0 5 0 15 -15z m234 5 l0 -10 -10
0 -10 0 0 -10 0 -10 16 0 17 0 18 22 19 21 7 -7 7 -7 -14 -10 -15 -9 15 -9 14
-10 -7 -8 -8 -7 -9 13 -8 14 -16 -16 -16 -16 0 -5 0 -6 110 0 110 0 0 -20 0
-20 -9 0 -9 0 -4 12 -5 13 -17 -17 -17 -18 25 -25 25 -25 15 0 14 0 4 12 4 12
27 -26 27 -27 0 -16 0 -15 -60 0 -60 0 0 20 0 20 10 0 10 0 0 10 0 10 -50 0
-50 0 0 -10 0 -10 -30 0 -30 0 0 -10 0 -10 -40 0 -40 0 0 -10 0 -10 -76 0 -77
0 -19 22 -19 22 -9 -14 -9 -14 -8 7 -7 8 14 10 15 11 -12 5 -13 5 0 19 0 19
10 0 10 0 0 19 0 19 -12 5 -13 4 9 9 9 9 4 -12 5 -13 9 0 9 0 0 16 0 15 17 17
16 17 5 -13 4 -12 29 0 29 0 0 -10 0 -10 50 0 50 0 0 19 0 19 -12 4 -12 4 14
17 15 16 8 1 7 0 0 -10z m-140 -20 l0 -10 -10 0 -10 0 0 10 0 10 10 0 10 0 0
-10z m300 -200 l0 -10 -50 0 -50 0 0 10 0 10 50 0 50 0 0 -10z"/>
<path d="M380 990 l0 -50 10 0 10 0 0 50 0 50 -10 0 -10 0 0 -50z"/>
<path d="M480 894 l0 -5 14 -15 15 -14 41 0 41 0 16 15 15 16 -7 7 -8 7 -4
-12 -5 -13 -49 0 -49 0 0 10 0 10 -10 0 -10 0 0 -6z"/>
<path d="M780 814 l0 -6 30 -28 30 -28 0 -22 0 -22 -31 -29 -32 -30 6 -5 6 -6
35 36 36 35 0 21 0 21 -35 34 -34 35 -6 0 -5 0 0 -6z"/>
<path d="M312 644 l-73 -75 32 -30 33 -31 -14 -8 -13 -8 43 -42 43 -42 -13 -8
-13 -8 47 -47 47 -47 20 23 20 23 10 -14 9 -15 9 14 9 14 41 -42 42 -43 19 22
20 23 19 -22 20 -23 37 37 37 37 -14 9 -14 9 15 10 15 10 -15 10 -15 10 14 9
15 9 -34 32 -34 32 13 8 14 8 -98 97 -97 97 -6 -7 -6 -6 14 -9 14 -8 -34 -32
-34 -32 14 -8 14 -9 -23 -21 -24 -20 6 -7 7 -6 20 24 21 23 9 -14 9 -14 20 23
20 23 26 -26 26 -26 -37 -36 -36 -37 -8 14 -9 13 -21 -24 -21 -24 -9 14 -9 14
-7 -6 -7 -7 32 -30 32 -30 -25 -26 -26 -26 -75 76 -76 76 42 40 42 41 -13 8
-14 8 34 32 34 32 -15 9 -14 9 14 9 14 9 -16 16 -16 16 -3 -1 -3 -1 -73 -74z
m88 47 l0 -9 -12 -5 -13 -5 14 -10 15 -10 -34 -32 -34 -32 14 -8 13 -8 -27
-26 -26 -27 -25 25 -26 26 63 64 63 64 8 1 7 1 0 -9z m206 -127 l77 -76 -14
-8 -13 -8 34 -32 34 -32 -15 -9 -14 -9 15 -10 15 -10 -15 -10 -15 -10 14 -9
14 -9 -27 -27 -27 -27 -19 23 -20 22 -20 -23 -19 -22 -42 43 -41 42 -8 -14 -9
-13 -7 7 -7 7 23 20 23 20 -23 20 -22 19 17 17 17 17 8 -13 8 -13 46 47 47 46
-36 36 -36 36 -19 -22 -19 -22 -16 16 -16 16 23 24 23 25 3 0 2 1 76 -76z
m-200 -200 l36 -35 -5 -6 -6 -5 -35 36 -36 35 0 6 0 5 5 0 6 0 35 -36z"/>
<path d="M322 614 l-43 -44 16 -16 15 -15 17 16 16 17 -13 8 -14 8 32 30 32
30 0 6 0 6 -7 -1 -8 0 -43 -45z m-2 -44 l0 -10 -10 0 -10 0 0 10 0 10 10 0 10
0 0 -10z"/>
<path d="M511 604 l-13 -15 6 -6 5 -5 16 15 15 16 0 5 0 6 -7 0 -8 -1 -14 -15z"/>
<path d="M577 468 l-49 -51 -8 14 -9 13 -7 -7 -7 -7 24 -20 23 -21 -13 -9 -14
-8 37 -37 37 -37 20 23 19 22 20 -23 19 -22 17 17 17 17 -14 9 -14 9 15 10 15
10 -15 10 -15 10 14 9 15 9 -34 32 -34 32 14 8 13 8 -16 16 -16 16 -3 -1 -3 0
-48 -51z m63 23 l0 -9 -12 -5 -13 -4 34 -32 35 -33 -15 -9 -14 -9 15 -10 15
-10 -15 -10 -15 -10 15 -9 14 -10 -7 -7 -7 -7 -20 23 -20 23 -20 -22 -19 -23
-27 27 -27 27 14 9 14 9 -14 9 -14 9 44 45 44 46 8 0 7 1 0 -9z"/>
<path d="M581 433 l-24 -25 14 -9 14 -9 -14 -9 -14 -9 17 -17 17 -17 20 23 20
23 9 -14 9 -14 8 7 7 8 -14 10 -15 9 14 9 14 9 -26 26 -26 26 -3 -1 -3 0 -24
-26z m45 -8 l15 -15 -26 -26 -26 -26 -7 6 -6 7 14 10 15 9 -14 9 -14 9 14 16
14 15 3 1 3 0 15 -15z"/>
<path d="M600 410 l0 -10 10 0 10 0 0 10 0 10 -10 0 -10 0 0 -10z"/>
<path d="M702 114 l-23 -24 15 -15 15 -15 21 0 21 0 25 25 25 25 -15 15 -15
15 -23 -1 -23 0 -23 -25z"/>
<path d="M972 1204 l-34 -35 6 -6 5 -6 30 32 29 31 16 0 16 0 0 10 0 10 -17
-1 -18 0 -33 -35z"/>
</g>
</svg>
