<?xml version="1.0" standalone="no"?>
<!DOCTYPE svg PUBLIC "-//W3C//DTD SVG 20010904//EN"
 "http://www.w3.org/TR/2001/REC-SVG-20010904/DTD/svg10.dtd">
<svg version="1.0" xmlns="http://www.w3.org/2000/svg"
 width="468pt" height="468pt" viewBox="0 0 468 468"
 preserveAspectRatio="xMidYMid meet">
<metadata>
Created by potrace 1.8, written by Peter Selinger 2001-2007
</metadata>
<g transform="translate(0,468) scale(0.365625,-0.365625)"
fill="#000000" stroke="none">
<path d="M610 1260 l-14 -20 -18 0 -18 0 0 -20 0 -20 -20 0 -20 0 0 -10 0 -10
-70 0 -70 0 0 -10 0 -10 -25 0 -26 0 -24 -25 -25 -24 0 -16 0 -15 20 0 20 0 0
10 0 10 40 0 40 0 0 -10 0 -10 20 0 20 0 0 -10 0 -10 16 0 15 0 15 -14 14 -15
0 -15 0 -16 -10 0 -10 0 0 -20 0 -20 -30 0 -30 0 0 -6 0 -5 14 -15 15 -14 25
0 26 0 0 10 0 10 40 0 40 0 0 -20 0 -20 -10 0 -10 0 0 -30 0 -30 -30 0 -30 0
0 -10 0 -10 -15 0 -16 0 -24 -25 -25 -24 0 -13 0 -14 -20 -14 -20 -14 0 -27 0
-27 13 -5 12 -5 -15 -12 -15 -12 13 -5 12 -5 0 -59 0 -59 9 0 9 0 4 12 4 12
27 -26 27 -27 0 -15 0 -14 13 -5 12 -4 -32 -30 -33 -31 0 -26 0 -26 10 0 10 0
0 15 0 16 25 24 24 25 16 0 15 0 0 -19 0 -19 12 -4 12 -4 -26 -27 -27 -27 -16
0 -15 0 0 -10 0 -10 -15 0 -15 0 -65 65 -65 65 0 15 0 15 15 0 16 0 24 25 25
24 0 6 0 5 -18 0 -18 0 -14 -20 -14 -20 -16 0 -16 0 -14 -20 -14 -20 -28 0
-28 0 0 10 0 10 30 0 30 0 0 10 0 10 -30 0 -30 0 0 -10 0 -10 -20 0 -20 0 0
-16 0 -15 -14 -15 -15 -14 -15 0 -16 0 0 -20 0 -20 -20 0 -20 0 0 -9 0 -9 13
-5 12 -4 -9 -9 -9 -9 -4 13 -5 12 -19 0 -19 0 0 20 0 20 -10 0 -10 0 0 60 0
60 10 0 10 0 0 16 0 15 14 15 15 14 15 0 16 0 0 10 0 10 36 0 37 0 20 23 20
22 4 -12 5 -13 19 0 19 0 0 20 0 20 20 0 20 0 0 10 0 10 20 0 20 0 0 10 0 10
-20 0 -20 0 0 -10 0 -10 -20 0 -20 0 0 -10 0 -10 -38 0 -38 0 -14 -20 -14 -20
-18 0 -18 0 0 10 0 10 20 0 20 0 0 19 0 19 12 4 13 5 -18 17 -18 18 -7 -6 -6
-7 13 -8 14 -9 -36 -36 -36 -36 -13 0 -14 0 -14 -20 -14 -20 -8 0 -8 0 0 50 0
50 10 0 10 0 0 20 0 20 10 0 10 0 0 16 0 15 14 15 15 14 15 0 16 0 0 10 0 10
-29 0 -29 0 -4 -12 -5 -13 -16 17 -17 17 0 15 0 16 -10 0 -10 0 0 -20 0 -20
10 0 10 0 0 -60 0 -60 -10 0 -10 0 0 -59 0 -59 13 -6 12 -6 -12 -6 -13 -6 0
-79 0 -79 10 0 10 0 0 -40 0 -40 19 0 19 0 6 13 6 12 6 -12 6 -13 19 0 19 0 0
-10 0 -10 18 0 18 0 14 -20 14 -20 18 0 18 0 0 -10 0 -10 20 0 20 0 0 -40 0
-40 -20 0 -20 0 0 -10 0 -10 -15 0 -16 0 -24 -25 -25 -24 0 -16 0 -15 6 0 6 0
30 32 30 32 10 -15 10 -14 5 13 5 12 37 0 37 0 14 20 14 20 38 0 38 0 0 -10 0
-10 19 0 19 0 6 13 6 12 6 -12 6 -13 19 0 19 0 0 10 0 10 -10 0 -10 0 0 20 0
20 20 0 20 0 0 -30 0 -30 -10 0 -10 0 0 -20 0 -20 30 0 30 0 0 -10 0 -10 39 0
39 0 6 -12 6 -13 6 13 6 12 19 0 19 0 0 -10 0 -10 59 0 59 0 6 13 6 12 6 -12
6 -13 38 0 38 0 5 13 5 12 11 -15 10 -14 7 6 6 7 -18 18 -17 18 -5 -13 -4 -12
-9 0 -9 0 0 30 0 30 -10 0 -10 0 0 -20 0 -20 -6 0 -5 0 -15 14 -14 15 0 23 0
24 -20 14 -20 14 0 28 0 28 10 0 10 0 0 20 0 20 9 0 9 0 5 -12 5 -13 11 15 10
14 8 -7 7 -8 -14 -9 -14 -9 22 -19 22 -19 0 -17 0 -16 10 0 10 0 0 -20 0 -20
10 0 10 0 0 -15 0 -16 35 -34 34 -35 26 0 25 0 0 9 0 9 -12 5 -13 5 15 11 14
10 -8 8 -9 8 -4 -12 -5 -13 -9 0 -9 0 0 16 0 16 -30 28 -30 28 0 22 0 22 -32
30 -32 30 14 8 14 8 -32 30 -32 30 0 16 0 16 -10 0 -10 0 0 18 0 18 -20 14
-20 14 0 38 0 38 -6 0 -7 0 -18 -22 -19 -21 -8 8 -7 8 13 4 12 5 0 18 0 18 13
5 12 5 -15 11 -14 10 7 7 7 7 20 -24 21 -23 10 14 11 15 5 -12 5 -13 15 0 14
0 16 -16 16 -16 -13 -8 -13 -8 41 -40 42 -40 0 -54 0 -54 -20 -14 -20 -14 0
-8 0 -8 30 0 30 0 0 10 0 10 16 0 15 0 16 -16 16 -16 -14 -10 -14 -10 13 -5
12 -5 0 -19 0 -19 20 0 20 0 0 -35 0 -36 35 -34 34 -35 16 0 15 0 0 9 0 9 -12
5 -13 4 7 8 8 8 19 -21 18 -22 17 0 16 0 0 30 0 30 -20 0 -20 0 0 16 0 17 -22
19 -22 19 14 10 15 11 -12 5 -13 5 0 27 0 27 -20 14 -20 14 0 18 0 18 -10 0
-10 0 0 16 0 15 -15 16 -16 15 -7 -7 -7 -8 13 -4 12 -5 0 -19 0 -19 10 0 10 0
0 -18 0 -18 20 -14 20 -14 0 -18 0 -18 -10 0 -10 0 0 16 0 15 -14 15 -15 14
-5 0 -6 0 0 -19 0 -19 13 -5 12 -4 -7 -8 -7 -7 -16 15 -15 16 0 15 0 16 10 0
10 0 0 20 0 20 -10 0 -10 0 0 20 0 20 -10 0 -10 0 0 20 0 20 10 0 10 0 0 16 0
15 -17 17 -16 17 -5 -13 -4 -12 -9 0 -9 0 0 28 0 28 -20 14 -20 14 0 16 0 16
-20 14 -20 14 0 18 0 18 -10 0 -10 0 0 35 0 36 -25 24 -24 25 -13 0 -14 0 -14
20 -14 20 -18 0 -18 0 0 -10 0 -10 18 0 18 0 14 -20 14 -20 18 0 18 0 0 -20 0
-20 10 0 10 0 0 -30 0 -30 -10 0 -10 0 0 -20 0 -20 -10 0 -10 0 0 10 0 10 -40
0 -40 0 0 45 0 46 -25 24 -24 25 -16 0 -15 0 0 10 0 10 -19 0 -19 0 -5 13 -4
12 -9 -8 -8 -8 14 -10 15 -9 -14 -9 -14 -9 26 -26 26 -26 11 0 11 0 15 -14 14
-15 0 -15 0 -16 10 0 10 0 0 -50 0 -50 -26 0 -25 0 -17 17 -17 16 13 5 12 4 0
38 0 38 13 5 12 4 -9 9 -9 9 -4 -12 -5 -13 -19 0 -19 0 0 20 0 20 -20 0 -20 0
0 10 0 10 -50 0 -50 0 0 -6 0 -5 50 -49 50 -49 0 -12 0 -12 22 -18 21 -19 -6
-7 -7 -6 -19 21 -18 22 -7 0 -6 0 0 -16 0 -15 50 -49 50 -49 0 -15 0 -16 10 0
10 0 0 -18 0 -18 20 -14 20 -14 0 -46 0 -46 20 -14 20 -14 0 -28 0 -28 20 0
20 0 0 -20 0 -20 -19 0 -19 0 -5 13 -5 12 -11 -15 -10 -14 -8 7 -7 8 14 10 15
11 -12 5 -13 5 0 29 0 29 -20 0 -20 0 0 16 0 16 -30 28 -30 28 0 16 0 16 -20
0 -20 0 0 20 0 20 -10 0 -10 0 0 30 0 30 -16 0 -15 0 -15 14 -14 15 0 15 0 16
-10 0 -10 0 0 16 0 15 -14 15 -15 14 -15 0 -16 0 0 20 0 20 -10 0 -10 0 0 20
0 20 20 0 20 0 0 10 0 10 -20 0 -20 0 0 29 0 29 -12 6 -13 6 13 6 12 6 0 14 0
15 45 44 44 45 126 0 125 0 0 -10 0 -10 30 0 30 0 0 -10 0 -10 20 0 20 0 0
-10 0 -10 20 0 20 0 0 -10 0 -10 10 0 10 0 0 19 0 19 13 5 12 5 -15 12 -15 12
13 5 12 5 0 19 0 19 -10 0 -10 0 0 -16 0 -15 -14 -15 -15 -14 -15 0 -16 0 0
10 0 10 -18 0 -18 0 -14 20 -14 20 -14 0 -13 0 -15 14 -14 15 0 15 0 16 -20 0
-20 0 0 -8 0 -8 20 -14 20 -14 0 -8 0 -8 -80 0 -80 0 0 20 0 20 10 0 10 0 0
-10 0 -10 20 0 20 0 0 16 0 15 -14 15 -15 14 -15 0 -16 0 0 10 0 10 -20 0 -20
0 0 20 0 20 -10 0 -10 0 0 10 0 10 20 0 20 0 0 20 0 20 -20 0 -20 0 0 6 0 5
14 15 15 14 53 0 54 0 14 20 14 20 18 0 18 0 0 -10 0 -10 20 0 20 0 0 -10 0
-10 20 0 20 0 0 -10 0 -10 15 0 16 0 26 -26 26 -26 -14 -8 -13 -9 22 -19 22
-19 0 -16 0 -15 13 -5 12 -5 -14 -10 -14 -10 16 -16 16 -16 15 0 16 0 0 10 0
10 20 0 20 0 0 -10 0 -10 16 0 17 0 19 -22 19 -22 9 14 9 14 8 -7 7 -8 -14
-10 -15 -11 13 -5 12 -5 0 -19 0 -19 10 0 10 0 0 -20 0 -20 10 0 10 0 0 -20 0
-20 5 0 6 0 24 25 25 24 0 11 0 11 -14 15 -15 14 -15 0 -16 0 0 29 0 29 -12 5
-13 4 7 8 7 7 35 -36 36 -35 0 -16 0 -15 10 0 10 0 0 -19 0 -19 -13 -5 -12 -4
8 -9 8 -8 10 14 11 15 5 -12 5 -13 9 0 9 0 0 20 0 20 -10 0 -10 0 0 15 0 15
-75 75 -75 75 -15 0 -15 0 0 10 0 10 -49 0 -49 0 -5 13 -5 12 -10 -14 -10 -14
-16 16 -16 16 0 15 0 16 50 0 50 0 0 -10 0 -10 20 0 20 0 0 -10 0 -10 10 0 10
0 0 20 0 20 -20 0 -20 0 0 10 0 10 -20 0 -20 0 0 10 0 10 30 0 30 0 0 -10 0
-10 20 0 20 0 0 -10 0 -10 10 0 10 0 0 20 0 20 -20 0 -20 0 0 20 0 20 10 0 10
0 0 20 0 20 56 0 55 0 15 14 14 15 0 5 0 6 -20 0 -20 0 0 -10 0 -10 -20 0 -20
0 0 10 0 10 -30 0 -30 0 0 10 0 10 -20 0 -20 0 0 10 0 10 -30 0 -30 0 0 10 0
10 -20 0 -20 0 0 10 0 10 -20 0 -20 0 0 10 0 10 -148 0 -148 0 -14 -20z m136
-35 l15 -15 -15 -15 -15 -15 -13 0 -14 0 -14 -20 -14 -20 -38 0 -38 0 0 15 0
16 25 24 24 25 16 0 15 0 0 10 0 10 26 0 25 0 15 -15z m-326 -75 l0 -10 -10 0
-10 0 0 10 0 10 10 0 10 0 0 -10z m666 -224 l14 -15 0 -5 0 -6 -30 0 -30 0 0
10 0 10 -20 0 -20 0 0 10 0 10 36 0 35 0 15 -14z m-140 -400 l14 -15 0 -15 0
-16 -10 0 -10 0 0 10 0 10 -20 0 -20 0 0 20 0 20 16 0 15 0 15 -14z m-226 -86
l0 -20 15 0 16 0 24 -25 25 -24 0 -26 0 -25 10 0 10 0 0 -19 0 -19 13 -6 12
-6 -12 -6 -13 -6 0 -19 0 -19 -6 0 -5 0 -15 14 -14 15 0 22 0 22 -22 18 -21
19 8 8 8 7 4 -12 5 -13 9 0 9 0 0 30 0 30 -10 0 -10 0 0 -10 0 -10 -10 0 -10
0 0 18 0 18 -20 14 -20 14 0 18 0 18 10 0 10 0 0 -20z m260 -10 l0 -10 -10 0
-10 0 0 10 0 10 10 0 10 0 0 -10z m-720 -48 l0 -18 20 -14 20 -14 0 -24 0 -24
30 -28 30 -28 0 -16 0 -16 -16 0 -15 0 -49 50 -49 50 -55 0 -56 0 0 16 0 15
14 15 15 14 15 0 16 0 0 10 0 10 20 0 20 0 0 10 0 10 20 0 20 0 0 -18z m335
-87 l25 -24 0 -16 0 -15 20 0 20 0 0 -20 0 -20 10 0 10 0 0 -10 0 -10 -20 0
-20 0 0 -9 0 -9 13 -5 12 -4 -8 -9 -8 -8 -10 14 -11 15 -5 -12 -5 -13 -29 0
-29 0 0 10 0 10 -26 0 -25 0 -15 14 -14 15 0 31 0 31 25 24 24 25 16 0 15 0 0
10 0 10 5 0 6 0 24 -25z m265 15 l0 -10 -10 0 -10 0 0 10 0 10 10 0 10 0 0
-10z m-660 -50 l0 -20 -16 0 -15 0 -15 14 -14 15 0 5 0 6 30 0 30 0 0 -20z
m680 10 l0 -10 -10 0 -10 0 0 10 0 10 10 0 10 0 0 -10z m-420 -60 l0 -10 -10
0 -10 0 0 10 0 10 10 0 10 0 0 -10z m-133 -45 l15 -16 -5 -6 -6 -5 -16 15 -15
16 0 5 0 6 6 0 5 0 16 -15z m73 5 l0 -10 -10 0 -10 0 0 10 0 10 10 0 10 0 0
-10z m40 -20 l0 -10 -10 0 -10 0 0 10 0 10 10 0 10 0 0 -10z m40 -10 l0 -20
-10 0 -10 0 0 20 0 20 10 0 10 0 0 -20z m240 -10 l0 -30 10 0 10 0 0 -16 0
-15 -14 -15 -15 -14 -35 0 -36 0 0 20 0 20 -20 0 -20 0 0 10 0 10 -20 0 -20 0
0 10 0 10 70 0 70 0 0 20 0 20 10 0 10 0 0 -30z m420 11 l0 -19 13 -5 12 -4
-7 -8 -7 -7 -16 15 -15 16 0 15 0 16 10 0 10 0 0 -19z m-340 -111 l0 -10 -20
0 -20 0 0 10 0 10 20 0 20 0 0 -10z"/>
<path d="M633 1185 l-13 -14 0 -6 0 -5 16 0 15 0 15 14 14 15 0 5 0 6 -17 0
-18 -1 -12 -14z"/>
<path d="M700 1100 l0 -20 10 0 10 0 0 10 0 10 10 0 10 0 0 -16 0 -15 16 -16
16 -16 8 14 9 13 21 -23 20 -24 6 6 6 6 -25 25 -26 26 -13 0 -14 0 -14 20 -14
20 -18 0 -18 0 0 -20z"/>
<path d="M600 1050 l0 -10 10 0 10 0 0 10 0 10 -10 0 -10 0 0 -10z"/>
<path d="M353 1025 l-13 -14 0 -6 0 -5 70 0 70 0 0 20 0 20 -57 0 -58 -1 -12
-14z"/>
<path d="M640 1034 l0 -5 14 -15 15 -14 5 0 6 0 0 20 0 20 -20 0 -20 0 0 -6z"/>
<path d="M720 1020 l0 -20 10 0 10 0 0 20 0 20 -10 0 -10 0 0 -20z"/>
<path d="M760 1000 l0 -20 30 0 30 0 0 10 0 10 -20 0 -20 0 0 10 0 10 -10 0
-10 0 0 -20z"/>
<path d="M372 944 l-13 -14 15 -15 15 -15 25 0 26 0 0 5 0 6 -25 24 -24 25 -3
0 -3 -1 -13 -15z"/>
<path d="M820 900 l0 -20 10 0 10 0 0 20 0 20 -10 0 -10 0 0 -20z"/>
<path d="M860 890 l0 -10 20 0 20 0 0 -10 0 -10 -20 0 -20 0 0 -10 0 -10 19 0
19 0 5 -12 4 -13 9 8 8 8 -14 10 -15 9 14 9 14 9 -16 16 -16 16 -15 0 -16 0 0
-10z"/>
<path d="M980 850 l0 -10 10 0 10 0 0 10 0 10 -10 0 -10 0 0 -10z"/>
<path d="M980 812 l0 -8 20 -14 20 -14 0 -18 0 -18 10 0 10 0 0 15 0 16 -25
24 -24 25 -6 0 -5 0 0 -8z"/>
<path d="M1040 810 l0 -10 10 0 10 0 0 -20 0 -20 10 0 10 0 0 16 0 15 -14 15
-15 14 -5 0 -6 0 0 -10z"/>
<path d="M1000 700 l0 -20 10 0 10 0 0 -20 0 -20 10 0 10 0 0 20 0 20 -10 0
-10 0 0 20 0 20 -10 0 -10 0 0 -20z"/>
<path d="M1193 705 l-13 -14 0 -26 0 -25 10 0 10 0 0 -40 0 -40 10 0 10 0 0
-50 0 -50 10 0 10 0 0 -26 0 -25 14 -15 15 -14 5 0 6 0 0 40 0 40 -10 0 -10 0
0 40 0 40 -10 0 -10 0 0 30 0 30 20 0 20 0 0 40 0 40 -18 0 -18 0 -14 20 -14
20 -6 0 -5 -1 -12 -14z"/>
<path d="M540 690 l0 -10 10 0 10 0 0 10 0 10 -10 0 -10 0 0 -10z"/>
<path d="M1060 650 l0 -10 10 0 10 0 0 -50 0 -50 6 0 5 0 15 14 14 15 0 25 0
26 -10 0 -10 0 0 20 0 20 -20 0 -20 0 0 -10z"/>
<path d="M1040 610 l0 -10 10 0 10 0 0 10 0 10 -10 0 -10 0 0 -10z"/>
<path d="M1040 560 l0 -20 10 0 10 0 0 20 0 20 -10 0 -10 0 0 -20z"/>
<path d="M711 524 l-13 -15 6 -6 5 -5 16 15 15 16 0 5 0 6 -7 0 -8 -1 -14 -15z"/>
<path d="M1120 530 l0 -10 10 0 10 0 0 10 0 10 -10 0 -10 0 0 -10z"/>
<path d="M413 485 l-13 -14 0 -26 0 -25 -10 0 -10 0 0 -20 0 -20 6 0 5 0 15
14 14 15 0 25 0 26 10 0 10 0 0 20 0 20 -7 0 -8 -1 -12 -14z"/>
<path d="M1140 464 l0 -15 15 -16 16 -15 7 7 7 8 -12 4 -13 5 0 19 0 19 -10 0
-10 0 0 -16z"/>
<path d="M1180 360 l0 -20 10 0 10 0 0 -20 0 -20 10 0 10 0 0 20 0 20 -10 0
-10 0 0 20 0 20 -10 0 -10 0 0 -20z"/>
<path d="M0 190 l0 -10 10 0 10 0 0 10 0 10 -10 0 -10 0 0 -10z"/>
<path d="M840 174 l0 -5 15 -16 16 -15 6 5 5 6 -15 16 -16 15 -5 0 -6 0 0 -6z"/>
<path d="M0 120 l0 -40 20 0 20 0 0 20 0 20 10 0 10 0 0 20 0 20 -30 0 -30 0
0 -40z"/>
<path d="M200 130 l0 -10 10 0 10 0 0 10 0 10 -10 0 -10 0 0 -10z"/>
<path d="M1240 130 l0 -10 10 0 10 0 0 10 0 10 -10 0 -10 0 0 -10z"/>
<path d="M73 105 l-13 -14 0 -16 0 -15 -20 0 -20 0 0 -10 0 -10 30 0 30 0 0
18 0 18 20 14 20 14 0 8 0 8 -17 0 -18 -1 -12 -14z"/>
</g>
</svg>
