<?xml version="1.0" standalone="no"?>
<!DOCTYPE svg PUBLIC "-//W3C//DTD SVG 20010904//EN"
 "http://www.w3.org/TR/2001/REC-SVG-20010904/DTD/svg10.dtd">
<svg version="1.0" xmlns="http://www.w3.org/2000/svg"
 width="468pt" height="468pt" viewBox="0 0 468 468"
 preserveAspectRatio="xMidYMid meet">
<metadata>
Created by potrace 1.8, written by Peter Selinger 2001-2007
</metadata>
<g transform="translate(0,468) scale(0.365625,-0.365625)"
fill="#000000" stroke="none">
<path d="M100 1180 l0 -100 -50 0 -50 0 0 -95 0 -95 50 0 50 0 0 -100 0 -100
-50 0 -50 0 0 -345 0 -345 640 0 640 0 0 345 0 345 -50 0 -50 0 0 50 0 50 50
0 50 0 0 195 0 195 -50 0 -50 0 0 50 0 50 -195 0 -195 0 0 -50 0 -50 -100 0
-100 0 0 50 0 50 -245 0 -245 0 0 -100z m290 -50 l0 -50 50 0 50 0 0 -50 0
-50 50 0 50 0 0 -45 0 -45 -50 0 -50 0 0 -50 0 -50 -145 0 -145 0 0 50 0 50
-50 0 -50 0 0 95 0 95 50 0 50 0 0 50 0 50 95 0 95 0 0 -50z m790 -145 l0
-195 -145 0 -145 0 0 50 0 50 -50 0 -50 0 0 95 0 95 50 0 50 0 0 50 0 50 145
0 145 0 0 -195z m-390 -245 l0 -50 -100 0 -100 0 0 50 0 50 100 0 100 0 0 -50z"/>
</g>
</svg>
