<?xml version="1.0" standalone="no"?>
<!DOCTYPE svg PUBLIC "-//W3C//DTD SVG 20010904//EN"
 "http://www.w3.org/TR/2001/REC-SVG-20010904/DTD/svg10.dtd">
<svg version="1.0" xmlns="http://www.w3.org/2000/svg"
 width="468pt" height="468pt" viewBox="0 0 468 468"
 preserveAspectRatio="xMidYMid meet">
<metadata>
Created by potrace 1.8, written by Peter Selinger 2001-2007
</metadata>
<g transform="translate(0,468) scale(0.365625,-0.365625)"
fill="#000000" stroke="none">
<path d="M998 1259 l-18 -19 0 -5 0 -5 17 -20 17 -20 13 0 13 0 0 -10 0 -10
15 0 15 0 0 -9 0 -9 35 -6 35 -7 0 -10 0 -10 -14 -15 -15 -14 -10 0 -11 0 0
-9 0 -9 -30 -7 -30 -7 0 -8 0 -8 -25 -6 -25 -6 0 -10 0 -10 -15 0 -15 0 0 9 0
8 -62 7 -63 8 -7 11 -7 11 -126 1 -126 0 -7 -12 -8 -12 -42 -7 -42 -7 0 -7 0
-8 -50 -7 -50 -7 0 -9 0 -9 -15 0 -15 0 0 -9 0 -9 -30 -7 -30 -7 0 -8 0 -8
-30 -7 -30 -7 0 -9 0 -9 -20 0 -20 0 0 -9 0 -9 -30 -7 -30 -7 0 -8 0 -8 -26
-6 -26 -7 -19 -18 -20 -18 7 -16 6 -17 7 -1 6 -1 37 -2 37 -2 8 -7 7 -8 -13
-8 -13 -9 13 -4 14 -5 -8 -9 -8 -8 -10 14 -9 15 -9 -14 -9 -13 -4 13 -5 14 -7
-6 -7 -7 -4 -31 -4 -31 13 0 13 0 45 -6 44 -6 -1 28 0 29 -15 0 -15 0 3 -23 2
-23 -15 15 -16 15 22 22 22 22 9 -17 9 -16 11 0 11 0 -28 26 -27 25 7 7 7 7 9
-17 9 -17 28 4 27 4 8 0 7 1 0 9 0 9 -65 7 -65 7 0 9 0 9 -30 0 -30 0 0 15 0
15 15 0 15 0 0 9 0 9 30 7 30 7 0 8 0 9 35 7 35 6 0 9 0 9 15 0 15 0 0 9 0 9
30 7 30 7 0 8 0 8 30 7 30 7 0 9 0 9 25 0 25 0 0 9 0 9 48 7 47 7 6 9 6 10 51
6 52 6 0 8 0 9 60 0 60 0 0 -9 0 -8 70 -7 70 -7 0 -8 0 -9 65 -7 65 -7 0 -9 0
-9 30 0 30 0 0 -9 0 -9 65 -7 65 -7 0 -9 0 -9 25 0 25 0 0 9 0 10 -55 6 -55 7
0 9 0 9 -34 0 -34 0 -6 15 -5 15 14 0 15 0 0 9 0 9 30 7 30 7 0 9 0 9 18 0 18
0 17 20 17 20 0 15 0 15 -20 20 -20 20 -15 0 -15 0 0 9 0 9 -30 7 -30 7 0 9 0
9 -15 0 -15 0 0 15 0 16 15 5 15 6 0 9 0 9 -10 0 -11 0 -20 -19 -21 -19 7 -21
6 -21 -15 0 -15 0 -7 22 -6 21 16 12 16 12 0 7 0 6 -7 -1 -8 -1 -17 -19z m110
-80 l4 -9 14 0 14 0 0 -9 0 -9 25 -6 25 -6 0 -21 0 -20 -14 -14 -14 -14 -26
-7 -26 -6 0 -8 0 -7 -31 -7 -32 -6 -12 -17 -12 -16 -11 7 -12 7 0 9 0 8 30 7
30 7 0 8 0 8 27 7 27 6 18 21 18 21 0 14 0 15 -20 5 -20 5 0 9 0 9 -20 0 -20
0 0 9 0 10 -12 4 -13 4 30 -5 30 -4 3 -9z"/>
<path d="M643 1033 l-23 -4 0 -9 0 -8 -49 -7 -50 -7 -5 -15 -6 -16 5 -5 5 -6
52 0 51 -1 4 13 5 12 24 0 24 0 0 10 0 10 24 0 25 0 6 11 7 10 -5 5 -5 5 -33
3 -34 4 -22 -5z"/>
<path d="M820 990 l0 -10 -25 0 -25 0 0 -9 0 -10 -45 -7 -45 -6 0 -9 0 -9 25
-6 25 -6 55 7 55 6 0 9 0 9 46 7 45 6 -5 15 -6 15 0 4 0 4 -50 0 -50 0 0 -10z"/>
<path d="M980 941 l0 -9 -50 -7 -50 -7 0 -9 0 -9 -21 0 -21 0 5 -12 4 -13 74
1 73 2 4 11 4 11 19 0 19 0 0 10 0 10 26 0 25 0 -15 15 -15 15 -40 0 -41 0 0
-9z"/>
<path d="M1228 922 l-28 -3 0 -10 0 -9 -30 0 -30 0 0 -9 0 -9 -50 -7 -50 -7 0
-8 0 -9 -45 -7 -45 -6 0 -9 0 -8 -35 -7 -35 -6 0 -9 0 -9 -15 0 -15 0 0 -9 0
-9 15 -6 15 -5 24 24 25 24 5 -12 5 -12 11 18 11 18 19 -6 19 -6 10 18 9 18 9
-8 8 -9 -18 -9 -17 -10 0 -11 0 -11 25 27 26 28 26 3 27 3 4 12 4 12 9 -13 9
-14 11 18 10 17 12 0 12 0 -15 -11 -15 -11 12 -5 13 -5 -16 -15 -15 -15 4 -5
5 -4 26 7 25 6 -3 28 -3 28 8 13 8 13 8 -7 7 -8 -14 -9 -15 -10 12 0 12 0 10
17 9 18 7 -7 7 -7 -28 -27 -29 -27 25 6 25 7 8 0 7 0 0 15 0 15 10 0 10 0 0
19 0 19 -12 4 -13 4 -27 -4z"/>
<path d="M1092 830 l-15 -15 -5 13 -4 12 -30 -31 -31 -31 10 -6 11 -7 -16 -15
-16 -14 6 16 7 16 -21 24 -21 23 -4 -10 -3 -10 -11 -15 -11 -15 -5 12 -5 13
-14 -14 -14 -14 -12 -5 -13 -4 9 -9 9 -9 4 13 5 12 9 0 9 0 0 -15 0 -15 -20 0
-20 0 0 -9 0 -9 13 -5 12 -5 -12 -1 -13 -1 0 -10 0 -10 20 0 20 0 0 9 0 9 30
7 30 7 0 8 0 8 30 7 30 7 0 8 0 9 35 7 35 6 0 9 0 9 15 0 15 0 0 10 0 10 -11
0 -10 0 15 16 16 15 0 3 0 2 -21 0 -22 0 -15 -16z m-2 -27 l0 -4 -14 -14 -14
-14 2 23 1 23 13 -4 12 -5 0 -5z m-110 -28 l0 -15 -16 0 -16 0 5 -13 5 -14 -8
-14 -9 -13 -8 7 -7 8 14 9 15 10 -11 0 -12 0 -5 14 -6 15 14 -6 15 -5 6 16 6
16 9 0 9 0 0 -15z"/>
<path d="M430 800 l0 -10 -15 0 -15 0 0 -9 0 -10 -22 -4 -23 -4 38 -2 37 -1 0
-9 0 -8 42 -6 43 -6 3 -10 4 -11 14 0 14 0 0 10 0 9 35 7 35 6 0 8 0 9 -55 6
-55 7 0 9 0 9 -25 0 -25 0 0 10 0 10 -15 0 -15 0 0 -10z"/>
<path d="M0 749 l0 -40 14 -15 15 -14 10 0 11 0 0 10 0 10 -10 0 -11 0 20 21
19 21 9 -5 9 -6 14 9 14 9 -8 8 -9 8 -5 -14 -4 -13 -9 13 -8 14 -14 -19 -14
-19 -12 7 -12 8 2 11 1 12 -1 13 -1 12 -10 0 -10 0 0 -41z"/>
<path d="M808 763 l-18 -4 0 -9 0 -8 -30 -7 -30 -7 0 -8 0 -9 -35 -7 -35 -6 0
-9 0 -9 -15 0 -15 0 0 -10 0 -10 13 0 12 0 0 -42 0 -41 -12 -5 -13 -4 0 -9 0
-9 15 0 15 0 0 9 0 9 35 6 35 7 0 9 0 10 15 0 15 0 0 10 0 10 -11 0 -10 0 15
15 15 16 -5 14 -6 15 -4 0 -4 0 -22 -22 -22 -22 12 -4 12 -4 -14 -14 -14 -14
-5 -12 -4 -13 -8 7 -7 7 15 16 16 16 -5 14 -6 15 -8 0 -8 0 -5 -12 -4 -13 -9
9 -9 9 14 5 13 4 -13 9 -13 8 7 8 8 7 10 -14 9 -15 10 15 10 15 4 10 4 10 12
-15 12 -15 -6 18 -6 18 12 -7 11 -7 13 18 13 18 28 3 28 3 3 10 3 10 14 -12
13 -12 -26 -23 -25 -24 14 -9 14 -9 -15 -11 -15 -11 25 6 25 6 6 0 6 0 -2 46
-3 47 -14 8 -13 9 -10 -1 -10 -1 -17 -5z"/>
<path d="M30 750 l0 -10 10 0 10 0 0 10 0 10 -10 0 -10 0 0 -10z"/>
<path d="M230 731 l-14 -10 7 -8 8 -7 8 13 9 13 6 -13 6 -14 6 12 6 13 14 -15
15 -15 29 4 28 3 -5 -16 -5 -16 11 15 11 15 11 -15 11 -15 5 12 5 13 15 -16
15 -15 -6 -7 -7 -6 -7 11 -7 11 -12 -13 -12 -14 12 -5 12 -6 -14 -6 -13 -6 13
-9 13 -8 -6 -7 -7 -6 -15 15 -16 15 13 5 12 4 -7 7 -6 8 -25 2 -26 3 -13 -8
-13 -9 15 -10 15 -10 -10 0 -10 0 -15 11 -15 11 12 4 12 5 -12 14 -12 13 -7
-12 -8 -11 -10 15 -10 15 -4 10 -4 10 -10 -14 -10 -13 -4 13 -5 14 -18 -18
-18 -19 14 -9 14 -9 -12 0 -13 0 0 -9 0 -9 65 -7 65 -7 0 -9 0 -9 30 0 30 0 0
-9 0 -9 65 -7 65 -7 0 -9 0 -9 31 0 31 0 -4 13 -5 12 -22 1 -22 1 -7 7 -6 7
14 10 15 9 -14 9 -15 10 -25 -3 -26 -2 3 -23 2 -22 -15 15 -16 15 23 23 22 22
4 -12 3 -11 14 12 13 12 -11 7 -11 7 6 7 7 6 16 -15 16 -16 17 5 17 6 -15 -11
-15 -11 14 -9 13 -9 -13 -4 -14 -5 17 -16 17 -17 10 0 11 0 0 10 0 10 -15 0
-15 0 5 40 5 40 -30 0 -30 0 0 9 0 9 -62 7 -63 7 -5 8 -5 8 -55 6 -55 7 -15
-10z m233 -65 l6 -15 -14 6 -15 5 -6 -16 -6 -16 -8 0 -8 0 -5 14 -6 15 14 -6
15 -5 6 16 6 16 8 0 8 0 5 -14z m-193 -26 l0 -10 -10 0 -10 0 0 10 0 10 10 0
10 0 0 -10z"/>
<path d="M823 720 l-17 -20 -11 0 -10 0 15 10 14 9 -6 6 -7 7 -21 -19 -21 -20
7 -16 6 -17 10 0 9 0 -16 -16 -16 -16 4 -5 5 -4 26 7 26 6 -5 35 -4 34 14 5
13 6 6 14 5 14 -4 0 -5 0 -17 -20z m-33 -30 l0 -10 -10 0 -10 0 0 10 0 10 10
0 10 0 0 -10z"/>
<path d="M190 721 l0 -9 14 -5 15 -6 -6 15 -5 14 -9 0 -9 0 0 -9z"/>
<path d="M247 694 l5 -14 9 0 9 0 0 12 0 11 21 -24 20 -23 8 13 9 13 4 -13 5
-14 8 7 7 7 -15 15 -15 16 -5 -13 -5 -12 -10 13 -9 13 -26 3 -25 3 5 -13z"/>
<path d="M360 670 l0 -10 10 0 10 0 0 10 0 10 -10 0 -10 0 0 -10z"/>
<path d="M707 666 l-6 -15 15 6 14 5 0 9 0 9 -9 0 -9 0 -5 -14z"/>
<path d="M490 641 l0 -9 14 -5 15 -6 -6 15 -5 14 -9 0 -9 0 0 -9z"/>
<path d="M580 590 l0 -10 10 0 10 0 0 10 0 10 -10 0 -10 0 0 -10z"/>
<path d="M278 543 l-278 -3 0 -270 0 -270 640 0 640 0 0 270 0 270 -304 0
-303 0 -59 3 -59 3 -277 -3z"/>
</g>
</svg>
