<?xml version="1.0" standalone="no"?>
<!DOCTYPE svg PUBLIC "-//W3C//DTD SVG 20010904//EN"
 "http://www.w3.org/TR/2001/REC-SVG-20010904/DTD/svg10.dtd">
<svg version="1.0" xmlns="http://www.w3.org/2000/svg"
 width="468pt" height="468pt" viewBox="0 0 468 468"
 preserveAspectRatio="xMidYMid meet">
<metadata>
Created by potrace 1.8, written by Peter Selinger 2001-2007
</metadata>
<g transform="translate(0,468) scale(0.365625,-0.365625)"
fill="#000000" stroke="none">
<path d="M320 1120 l0 -160 -25 0 -25 0 0 25 0 25 -30 0 -30 0 0 -25 0 -25
-25 0 -25 0 0 25 0 25 -25 0 -25 0 0 -25 0 -25 -30 0 -30 0 0 25 0 25 -25 0
-25 0 0 -50 0 -50 345 0 345 0 0 50 0 50 30 0 30 0 0 30 0 30 -30 0 -30 0 0
25 0 25 30 0 30 0 0 25 0 25 -30 0 -30 0 0 30 0 30 30 0 30 0 0 25 0 25 -55 0
-55 0 0 -160 0 -160 -25 0 -25 0 0 25 0 25 -30 0 -30 0 0 -25 0 -25 -25 0 -25
0 0 25 0 25 -25 0 -25 0 0 -25 0 -25 -30 0 -30 0 0 160 0 160 -25 0 -25 0 0
-160z"/>
<path d="M850 1095 l0 -185 215 0 215 0 0 25 0 25 -25 0 -25 0 0 25 0 25 -30
0 -30 0 0 -25 0 -25 -25 0 -25 0 0 25 0 25 -25 0 -25 0 0 -25 0 -25 -30 0 -30
0 0 25 0 25 -25 0 -25 0 0 -25 0 -25 -25 0 -25 0 0 55 0 55 25 0 25 0 0 25 0
25 -25 0 -25 0 0 25 0 25 25 0 25 0 0 30 0 30 -25 0 -25 0 0 25 0 25 -30 0
-30 0 0 -185z"/>
<path d="M0 745 l0 -55 295 0 295 0 0 -25 0 -25 -30 0 -30 0 0 -55 0 -55 -25
0 -25 0 0 -50 0 -50 -25 0 -25 0 0 -55 0 -55 -30 0 -30 0 0 -55 0 -55 -185 0
-185 0 0 -25 0 -25 160 0 160 0 0 -80 0 -80 25 0 25 0 0 105 0 105 30 0 30 0
0 55 0 55 25 0 25 0 0 55 0 55 25 0 25 0 0 50 0 50 30 0 30 0 0 55 0 55 25 0
25 0 0 -320 0 -320 25 0 25 0 0 25 0 25 30 0 30 0 0 30 0 30 -30 0 -30 0 0 25
0 25 30 0 30 0 0 25 0 25 -30 0 -30 0 0 30 0 30 30 0 30 0 0 25 0 25 -30 0
-30 0 0 25 0 25 30 0 30 0 0 30 0 30 -30 0 -30 0 0 25 0 25 30 0 30 0 0 25 0
25 -30 0 -30 0 0 30 0 30 30 0 30 0 0 25 0 25 -30 0 -30 0 0 25 0 25 30 0 30
0 0 30 0 30 -30 0 -30 0 0 25 0 25 -25 0 -25 0 0 -25 0 -25 -25 0 -25 0 0 25
0 25 -30 0 -30 0 0 -25 0 -25 -25 0 -25 0 0 25 0 25 -25 0 -25 0 0 -25 0 -25
-30 0 -30 0 0 25 0 25 -25 0 -25 0 0 -25 0 -25 -25 0 -25 0 0 25 0 25 -30 0
-30 0 0 -25 0 -25 -25 0 -25 0 0 25 0 25 -25 0 -25 0 0 -25 0 -25 -30 0 -30 0
0 25 0 25 -25 0 -25 0 0 -55z"/>
<path d="M850 400 l0 -400 55 0 55 0 0 25 0 25 -25 0 -25 0 0 30 0 30 25 0 25
0 0 25 0 25 160 0 160 0 0 25 0 25 -160 0 -160 0 0 30 0 30 -25 0 -25 0 0 25
0 25 25 0 25 0 0 25 0 25 -25 0 -25 0 0 30 0 30 25 0 25 0 0 25 0 25 -25 0
-25 0 0 25 0 25 25 0 25 0 0 30 0 30 -25 0 -25 0 0 25 0 25 25 0 25 0 0 25 0
25 160 0 160 0 0 30 0 30 -25 0 -25 0 0 25 0 25 -30 0 -30 0 0 -25 0 -25 -25
0 -25 0 0 25 0 25 -25 0 -25 0 0 -25 0 -25 -30 0 -30 0 0 25 0 25 -25 0 -25 0
0 -25 0 -25 -25 0 -25 0 0 25 0 25 -30 0 -30 0 0 -400z m110 -215 l0 -25 -25
0 -25 0 0 25 0 25 25 0 25 0 0 -25z"/>
<path d="M50 585 l0 -55 30 0 30 0 0 55 0 55 -30 0 -30 0 0 -55z"/>
<path d="M270 585 l0 -55 25 0 25 0 0 55 0 55 -25 0 -25 0 0 -55z"/>
<path d="M1120 585 l0 -55 25 0 25 0 0 55 0 55 -25 0 -25 0 0 -55z"/>
<path d="M530 80 l0 -30 -25 0 -25 0 0 -25 0 -25 25 0 25 0 0 25 0 25 30 0 30
0 0 30 0 30 -30 0 -30 0 0 -30z"/>
</g>
</svg>
