<?xml version="1.0" standalone="no"?>
<!DOCTYPE svg PUBLIC "-//W3C//DTD SVG 20010904//EN"
 "http://www.w3.org/TR/2001/REC-SVG-20010904/DTD/svg10.dtd">
<svg version="1.0" xmlns="http://www.w3.org/2000/svg"
 width="468pt" height="468pt" viewBox="0 0 468 468"
 preserveAspectRatio="xMidYMid meet">
<metadata>
Created by potrace 1.8, written by Peter Selinger 2001-2007
</metadata>
<g transform="translate(0,468) scale(0.365625,-0.365625)"
fill="#000000" stroke="none">
<path d="M850 1260 l0 -20 20 0 20 0 0 -20 0 -20 20 0 20 0 0 -55 0 -55 -20 0
-20 0 0 -20 0 -20 -40 0 -40 0 0 -80 0 -80 20 0 20 0 0 -20 0 -20 -20 0 -20 0
0 20 0 20 -15 0 -15 0 0 20 0 20 -60 0 -60 0 0 20 0 20 -20 0 -20 0 0 20 0 20
-60 0 -60 0 0 20 0 20 -155 0 -155 0 0 -20 0 -20 -35 0 -35 0 0 -20 0 -20 -20
0 -20 0 0 -20 0 -20 -20 0 -20 0 0 -20 0 -20 -20 0 -20 0 0 -75 0 -75 20 0 20
0 0 -20 0 -20 60 0 60 0 0 -20 0 -20 75 0 75 0 0 -20 0 -20 20 0 20 0 0 -20 0
-20 -20 0 -20 0 0 -20 0 -20 -20 0 -20 0 0 -20 0 -20 -20 0 -20 0 0 -15 0 -15
-20 0 -20 0 0 -20 0 -20 -15 0 -15 0 0 -100 0 -100 15 0 15 0 0 -20 0 -20 100
0 100 0 0 20 0 20 20 0 20 0 0 20 0 20 20 0 20 0 0 -20 0 -20 15 0 15 0 0 -75
0 -75 20 0 20 0 0 75 0 75 -20 0 -20 0 0 20 0 20 -15 0 -15 0 0 20 0 20 15 0
15 0 0 20 0 20 20 0 20 0 0 20 0 20 20 0 20 0 0 -20 0 -20 20 0 20 0 0 -80 0
-80 20 0 20 0 0 80 0 80 -20 0 -20 0 0 20 0 20 -20 0 -20 0 0 20 0 20 20 0 20
0 0 20 0 20 20 0 20 0 0 15 0 15 20 0 20 0 0 -15 0 -15 20 0 20 0 0 15 0 15
20 0 20 0 0 -75 0 -75 15 0 15 0 0 75 0 75 -15 0 -15 0 0 20 0 20 -20 0 -20 0
0 20 0 20 75 0 75 0 0 -20 0 -20 20 0 20 0 0 -35 0 -35 -20 0 -20 0 0 15 0 15
-20 0 -20 0 0 -15 0 -15 20 0 20 0 0 -20 0 -20 -20 0 -20 0 0 -20 0 -20 20 0
20 0 0 -20 0 -20 -20 0 -20 0 0 -20 0 -20 -20 0 -20 0 0 -20 0 -20 -15 0 -15
0 0 20 0 20 -20 0 -20 0 0 20 0 20 -20 0 -20 0 0 -20 0 -20 20 0 20 0 0 -20 0
-20 -20 0 -20 0 0 -20 0 -20 20 0 20 0 0 -20 0 -20 -20 0 -20 0 0 -15 0 -15
-40 0 -40 0 0 -60 0 -60 20 0 20 0 0 -20 0 -20 95 0 95 0 0 20 0 20 20 0 20 0
0 20 0 20 20 0 20 0 0 20 0 20 20 0 20 0 0 35 0 35 20 0 20 0 0 155 0 155 -20
0 -20 0 0 80 0 80 -20 0 -20 0 0 20 0 20 -20 0 -20 0 0 55 0 55 80 0 80 0 0
40 0 40 20 0 20 0 0 20 0 20 55 0 55 0 0 -20 0 -20 20 0 20 0 0 -20 0 -20 20
0 20 0 0 20 0 20 -20 0 -20 0 0 20 0 20 -20 0 -20 0 0 20 0 20 -55 0 -55 0 0
-20 0 -20 -20 0 -20 0 0 40 0 40 -20 0 -20 0 0 20 0 20 -40 0 -40 0 0 20 0 20
20 0 20 0 0 55 0 55 -20 0 -20 0 0 20 0 20 -20 0 -20 0 0 20 0 20 -20 0 -20 0
0 -20z m-620 -270 l0 -20 20 0 20 0 0 20 0 20 20 0 20 0 0 -20 0 -20 20 0 20
0 0 20 0 20 20 0 20 0 0 -20 0 -20 20 0 20 0 0 20 0 20 20 0 20 0 0 -20 0 -20
15 0 15 0 0 -20 0 -20 20 0 20 0 0 20 0 20 20 0 20 0 0 -20 0 -20 40 0 40 0 0
-20 0 -20 -20 0 -20 0 0 -20 0 -20 -20 0 -20 0 0 -20 0 -20 -20 0 -20 0 0 -15
0 -15 -20 0 -20 0 0 15 0 15 -15 0 -15 0 0 20 0 20 -80 0 -80 0 0 -20 0 -20
80 0 80 0 0 -15 0 -15 15 0 15 0 0 -20 0 -20 -15 0 -15 0 0 -20 0 -20 -20 0
-20 0 0 -20 0 -20 -20 0 -20 0 0 -20 0 -20 -20 0 -20 0 0 20 0 20 -20 0 -20 0
0 20 0 20 -75 0 -75 0 0 20 0 20 15 0 15 0 0 20 0 20 20 0 20 0 0 15 0 15 -20
0 -20 0 0 20 0 20 -15 0 -15 0 0 -20 0 -20 -20 0 -20 0 0 -15 0 -15 20 0 20 0
0 -20 0 -20 -20 0 -20 0 0 20 0 20 -20 0 -20 0 0 -20 0 -20 -20 0 -20 0 0 20
0 20 20 0 20 0 0 15 0 15 -20 0 -20 0 0 20 0 20 20 0 20 0 0 20 0 20 20 0 20
0 0 20 0 20 20 0 20 0 0 20 0 20 15 0 15 0 0 20 0 20 20 0 20 0 0 -20z m660
-160 l0 -20 -20 0 -20 0 0 20 0 20 20 0 20 0 0 -20z m-700 -35 l0 -15 -15 0
-15 0 0 15 0 15 15 0 15 0 0 -15z m700 -115 l0 -20 20 0 20 0 0 -40 0 -40 -20
0 -20 0 0 20 0 20 -40 0 -40 0 0 20 0 20 20 0 20 0 0 20 0 20 20 0 20 0 0 -20z
m-150 -160 l0 -20 -20 0 -20 0 0 20 0 20 20 0 20 0 0 -20z m230 -70 l0 -20
-20 0 -20 0 0 -20 0 -20 20 0 20 0 0 -20 0 -20 -20 0 -20 0 0 -20 0 -20 20 0
20 0 0 -20 0 -20 -20 0 -20 0 0 -20 0 -20 20 0 20 0 0 -20 0 -20 -20 0 -20 0
0 -15 0 -15 -20 0 -20 0 0 -20 0 -20 -20 0 -20 0 0 -20 0 -20 -20 0 -20 0 0
-20 0 -20 -15 0 -15 0 0 20 0 20 -20 0 -20 0 0 -20 0 -20 -20 0 -20 0 0 20 0
20 -20 0 -20 0 0 20 0 20 20 0 20 0 0 20 0 20 20 0 20 0 0 15 0 15 20 0 20 0
0 20 0 20 -20 0 -20 0 0 20 0 20 20 0 20 0 0 -20 0 -20 15 0 15 0 0 20 0 20
20 0 20 0 0 20 0 20 20 0 20 0 0 20 0 20 20 0 20 0 0 20 0 20 -20 0 -20 0 0
20 0 20 20 0 20 0 0 20 0 20 20 0 20 0 0 -20z"/>
<path d="M190 950 l0 -20 -15 0 -15 0 0 -20 0 -20 -20 0 -20 0 0 -20 0 -20
-20 0 -20 0 0 -20 0 -20 20 0 20 0 0 20 0 20 20 0 20 0 0 20 0 20 15 0 15 0 0
-20 0 -20 20 0 20 0 0 -20 0 -20 20 0 20 0 0 -15 0 -15 -20 0 -20 0 0 -20 0
-20 20 0 20 0 0 20 0 20 20 0 20 0 0 -20 0 -20 20 0 20 0 0 20 0 20 -20 0 -20
0 0 15 0 15 -20 0 -20 0 0 20 0 20 20 0 20 0 0 20 0 20 20 0 20 0 0 20 0 20
20 0 20 0 0 -20 0 -20 20 0 20 0 0 20 0 20 20 0 20 0 0 -20 0 -20 15 0 15 0 0
-20 0 -20 20 0 20 0 0 20 0 20 20 0 20 0 0 20 0 20 -20 0 -20 0 0 -20 0 -20
-20 0 -20 0 0 20 0 20 -15 0 -15 0 0 20 0 20 -20 0 -20 0 0 -20 0 -20 -20 0
-20 0 0 20 0 20 -20 0 -20 0 0 -20 0 -20 -20 0 -20 0 0 20 0 20 -20 0 -20 0 0
-20 0 -20 -20 0 -20 0 0 20 0 20 -20 0 -20 0 0 -20z m40 -40 l0 -20 20 0 20 0
0 20 0 20 20 0 20 0 0 -20 0 -20 -20 0 -20 0 0 -20 0 -20 -20 0 -20 0 0 20 0
20 -20 0 -20 0 0 20 0 20 20 0 20 0 0 -20z"/>
<path d="M390 760 l0 -20 20 0 20 0 0 20 0 20 -20 0 -20 0 0 -20z"/>
<path d="M890 290 l0 -20 -20 0 -20 0 0 -20 0 -20 -20 0 -20 0 0 -20 0 -20
-15 0 -15 0 0 -15 0 -15 -20 0 -20 0 0 -20 0 -20 -20 0 -20 0 0 -20 0 -20 20
0 20 0 0 20 0 20 20 0 20 0 0 -20 0 -20 15 0 15 0 0 20 0 20 20 0 20 0 0 20 0
20 20 0 20 0 0 15 0 15 20 0 20 0 0 20 0 20 -20 0 -20 0 0 20 0 20 20 0 20 0
0 20 0 20 -20 0 -20 0 0 -20z m0 -80 l0 -20 -20 0 -20 0 0 -15 0 -15 -20 0
-20 0 0 -20 0 -20 -15 0 -15 0 0 20 0 20 15 0 15 0 0 15 0 15 20 0 20 0 0 20
0 20 20 0 20 0 0 -20z"/>
<path d="M40 560 l0 -20 75 0 75 0 0 -20 0 -20 20 0 20 0 0 20 0 20 -20 0 -20
0 0 20 0 20 -75 0 -75 0 0 -20z"/>
<path d="M700 410 l0 -20 20 0 20 0 0 20 0 20 -20 0 -20 0 0 -20z"/>
</g>
</svg>
