<?xml version="1.0" standalone="no"?>
<!DOCTYPE svg PUBLIC "-//W3C//DTD SVG 20010904//EN"
 "http://www.w3.org/TR/2001/REC-SVG-20010904/DTD/svg10.dtd">
<svg version="1.0" xmlns="http://www.w3.org/2000/svg"
 width="468pt" height="468pt" viewBox="0 0 468 468"
 preserveAspectRatio="xMidYMid meet">
<metadata>
Created by potrace 1.8, written by Peter Selinger 2001-2007
</metadata>
<g transform="translate(0,468) scale(0.365625,-0.365625)"
fill="#000000" stroke="none">
<path d="M0 640 l0 -640 340 0 340 0 0 60 0 60 -40 0 -40 0 0 80 0 80 -60 0
-60 0 0 -80 0 -80 -20 0 -20 0 0 40 0 40 -20 0 -20 0 0 40 0 40 -60 0 -60 0 0
40 0 40 20 0 20 0 0 20 0 20 100 0 100 0 0 40 0 40 20 0 20 0 0 -20 0 -20 20
0 20 0 0 -20 0 -20 20 0 20 0 0 -20 0 -20 20 0 20 0 0 -20 0 -20 40 0 40 0 0
-20 0 -20 140 0 140 0 0 -20 0 -20 40 0 40 0 0 -20 0 -20 80 0 80 0 0 160 0
160 -80 0 -80 0 0 20 0 20 -20 0 -20 0 0 20 0 20 -20 0 -20 0 0 20 0 20 -20 0
-20 0 0 20 0 20 -20 0 -20 0 0 20 0 20 -120 0 -120 0 0 -20 0 -20 -20 0 -20 0
0 -20 0 -20 -20 0 -20 0 0 -20 0 -20 -60 0 -60 0 0 40 0 40 -80 0 -80 0 0 40
0 40 80 0 80 0 0 60 0 60 -20 0 -20 0 0 40 0 40 40 0 40 0 0 -40 0 -40 80 0
80 0 0 80 0 80 60 0 60 0 0 40 0 40 40 0 40 0 0 -40 0 -40 20 0 20 0 0 -40 0
-40 40 0 40 0 0 -40 0 -40 60 0 60 0 0 -40 0 -40 60 0 60 0 0 240 0 240 -640
0 -640 0 0 -640z m360 580 l0 -20 -40 0 -40 0 0 -40 0 -40 -80 0 -80 0 0 -20
0 -20 -40 0 -40 0 0 80 0 80 160 0 160 0 0 -20z m120 -20 l0 -40 20 0 20 0 0
-20 0 -20 -40 0 -40 0 0 -80 0 -80 -40 0 -40 0 0 60 0 60 -20 0 -20 0 0 40 0
40 40 0 40 0 0 40 0 40 40 0 40 0 0 -40z m200 0 l0 -40 -20 0 -20 0 0 -40 0
-40 -40 0 -40 0 0 60 0 60 -20 0 -20 0 0 20 0 20 80 0 80 0 0 -40z m160 0 l0
-40 -20 0 -20 0 0 -40 0 -40 -60 0 -60 0 0 20 0 20 20 0 20 0 0 60 0 60 60 0
60 0 0 -40z m240 0 l0 -40 -20 0 -20 0 0 -40 0 -40 -40 0 -40 0 0 40 0 40 -40
0 -40 0 0 40 0 40 100 0 100 0 0 -40z m160 -60 l0 -100 -20 0 -20 0 0 20 0 20
-60 0 -60 0 0 20 0 20 20 0 20 0 0 60 0 60 60 0 60 0 0 -100z m-960 -80 l0
-20 20 0 20 0 0 -20 0 -20 -80 0 -80 0 0 40 0 40 60 0 60 0 0 -20z m240 0 l0
-20 80 0 80 0 0 -60 0 -60 -40 0 -40 0 0 40 0 40 -60 0 -60 0 0 40 0 40 20 0
20 0 0 -20z m-400 -60 l0 -40 40 0 40 0 0 -40 0 -40 -80 0 -80 0 0 80 0 80 40
0 40 0 0 -40z m1040 20 l0 -20 40 0 40 0 0 -80 0 -80 -20 0 -20 0 0 40 0 40
-60 0 -60 0 0 40 0 40 -40 0 -40 0 0 20 0 20 80 0 80 0 0 -20z m-840 -80 l0
-20 60 0 60 0 0 -40 0 -40 20 0 20 0 0 -20 0 -20 -60 0 -60 0 0 20 0 20 -60 0
-60 0 0 60 0 60 40 0 40 0 0 -20z m-120 -120 l0 -20 60 0 60 0 0 -60 0 -60
-40 0 -40 0 0 40 0 40 -60 0 -60 0 0 -40 0 -40 -40 0 -40 0 0 80 0 80 80 0 80
0 0 -20z m0 -140 l0 -40 60 0 60 0 0 -40 0 -40 -60 0 -60 0 0 -40 0 -40 -40 0
-40 0 0 40 0 40 -40 0 -40 0 0 40 0 40 60 0 60 0 0 40 0 40 20 0 20 0 0 -40z
m760 -20 l0 -20 20 0 20 0 0 -20 0 -20 20 0 20 0 0 -20 0 -20 20 0 20 0 0 -40
0 -40 40 0 40 0 0 -100 0 -100 -40 0 -40 0 0 20 0 20 -160 0 -160 0 0 20 0 20
-40 0 -40 0 0 20 0 20 -20 0 -20 0 0 20 0 20 -20 0 -20 0 0 20 0 20 20 0 20 0
0 20 0 20 20 0 20 0 0 -20 0 -20 20 0 20 0 0 40 0 40 -40 0 -40 0 0 20 0 20
20 0 20 0 0 20 0 20 20 0 20 0 0 20 0 20 120 0 120 0 0 -20z m-480 -40 l0 -20
-40 0 -40 0 0 -60 0 -60 40 0 40 0 0 -20 0 -20 -80 0 -80 0 0 40 0 40 20 0 20
0 0 60 0 60 60 0 60 0 0 -20z m120 -80 l0 -20 -80 0 -80 0 0 20 0 20 80 0 80
0 0 -20z m-520 -60 l0 -40 80 0 80 0 0 40 0 40 20 0 20 0 0 -60 0 -60 -20 0
-20 0 0 -20 0 -20 -60 0 -60 0 0 -40 0 -40 -40 0 -40 0 0 120 0 120 20 0 20 0
0 -40z m160 -200 l0 -40 60 0 60 0 0 -20 0 -20 -20 0 -20 0 0 -40 0 -40 -40 0
-40 0 0 40 0 40 -40 0 -40 0 0 60 0 60 40 0 40 0 0 -40z m-120 -80 l0 -40 40
0 40 0 0 -40 0 -40 40 0 40 0 0 -20 0 -20 -120 0 -120 0 0 100 0 100 40 0 40
0 0 -40z m440 -40 l0 -80 40 0 40 0 0 -20 0 -20 -160 0 -160 0 0 20 0 20 20 0
20 0 0 40 0 40 20 0 20 0 0 -40 0 -40 60 0 60 0 0 80 0 80 20 0 20 0 0 -80z"/>
<path d="M720 580 l0 -20 40 0 40 0 0 -40 0 -40 -40 0 -40 0 0 -20 0 -20 40 0
40 0 0 20 0 20 20 0 20 0 0 40 0 40 -20 0 -20 0 0 20 0 20 -40 0 -40 0 0 -20z"/>
</g>
</svg>
