<?xml version="1.0" standalone="no"?>
<!DOCTYPE svg PUBLIC "-//W3C//DTD SVG 20010904//EN"
 "http://www.w3.org/TR/2001/REC-SVG-20010904/DTD/svg10.dtd">
<svg version="1.0" xmlns="http://www.w3.org/2000/svg"
 width="468pt" height="468pt" viewBox="0 0 468 468"
 preserveAspectRatio="xMidYMid meet">
<metadata>
Created by potrace 1.8, written by Peter Selinger 2001-2007
</metadata>
<g transform="translate(0,468) scale(0.365625,-0.365625)"
fill="#000000" stroke="none">
<path d="M140 1210 l0 -10 -40 0 -40 0 0 -10 0 -10 -16 0 -15 0 -15 -14 -14
-15 0 -15 0 -16 40 0 40 0 0 -10 0 -10 79 0 79 0 6 13 6 12 6 -12 6 -13 29 0
29 0 0 10 0 10 15 0 16 0 26 26 26 26 -14 8 -13 9 7 8 8 7 10 -14 9 -15 9 14
9 14 17 -16 16 -17 -16 -17 -17 -16 -8 13 -8 13 -16 -16 -16 -16 0 -5 0 -6 30
0 30 0 0 10 0 10 20 0 20 0 0 10 0 10 20 0 20 0 0 10 0 10 -20 0 -20 0 0 10 0
10 -20 0 -20 0 0 10 0 10 -40 0 -40 0 0 -10 0 -10 -20 0 -20 0 0 -10 0 -10
-20 0 -20 0 0 10 0 10 -30 0 -30 0 0 10 0 10 -40 0 -40 0 0 -10z m43 -22 l5
-13 11 15 10 14 21 -24 21 -24 9 14 9 14 20 -23 21 -24 20 23 20 23 6 -6 6 -6
-27 -27 -27 -27 -9 14 -9 14 -10 -15 -10 -15 -10 15 -10 15 -10 -15 -10 -15
-10 15 -10 15 -10 -15 -10 -15 -10 15 -10 15 -10 -15 -10 -15 -10 15 -10 15
-9 -14 -9 -14 -17 16 -16 17 16 17 17 16 9 -14 8 -14 18 22 18 23 7 0 6 0 5
-12z m-123 -38 l0 -10 -10 0 -10 0 0 10 0 10 10 0 10 0 0 -10z"/>
<path d="M151 1164 l-13 -15 7 -7 6 -6 10 14 9 15 10 -15 10 -15 10 15 10 15
9 -15 10 -14 7 6 6 7 -17 17 -17 17 -10 -14 -10 -14 -5 13 -5 12 -6 0 -7 -1
-14 -15z"/>
<path d="M100 1150 l0 -10 10 0 10 0 0 10 0 10 -10 0 -10 0 0 -10z"/>
<path d="M260 1150 l0 -10 10 0 10 0 0 10 0 10 -10 0 -10 0 0 -10z"/>
<path d="M420 1170 l0 -10 10 0 10 0 0 10 0 10 -10 0 -10 0 0 -10z"/>
<path d="M691 1164 l-13 -15 7 -7 8 -7 4 13 5 12 15 0 16 0 18 -22 19 -21 19
21 18 22 16 0 15 0 5 -12 4 -13 8 7 7 7 -15 16 -16 15 -12 0 -12 0 -18 -22
-19 -21 -19 21 -18 22 -14 0 -14 -1 -14 -15z"/>
<path d="M971 1164 l-13 -15 7 -7 8 -7 4 13 5 12 15 0 16 0 18 -22 19 -21 19
21 18 22 16 0 15 0 5 -12 4 -13 8 7 7 7 -15 16 -16 15 -12 0 -12 0 -18 -22
-19 -21 -19 21 -18 22 -14 0 -14 -1 -14 -15z"/>
<path d="M640 1060 l0 -20 -10 0 -10 0 0 -40 0 -40 -10 0 -10 0 0 -30 0 -30
-10 0 -10 0 0 -40 0 -40 -6 0 -5 0 -15 14 -14 15 0 15 0 16 -10 0 -10 0 0 20
0 20 -10 0 -10 0 0 20 0 20 -10 0 -10 0 0 -30 0 -30 -10 0 -10 0 0 -40 0 -40
-16 0 -15 0 -15 14 -14 15 0 13 0 14 -20 14 -20 14 0 16 0 16 -20 14 -20 14 0
14 0 13 -25 24 -24 25 -6 0 -5 0 0 -60 0 -60 10 0 10 0 0 -40 0 -40 10 0 10 0
0 -40 0 -40 10 0 10 0 0 -10 0 -10 -20 0 -20 0 0 10 0 10 -20 0 -20 0 0 10 0
10 -20 0 -20 0 0 10 0 10 -10 0 -10 0 0 -20 0 -20 10 0 10 0 0 -20 0 -20 10 0
10 0 0 -20 0 -20 10 0 10 0 0 -10 0 -10 -20 0 -20 0 0 10 0 10 -30 0 -30 0 0
10 0 10 -20 0 -20 0 0 10 0 10 -20 0 -20 0 0 10 0 10 -19 0 -19 0 -5 13 -4 12
-9 -9 -9 -9 13 -4 12 -5 0 -15 0 -15 40 -38 40 -38 0 -14 0 -14 20 -14 20 -14
0 -18 0 -18 -70 0 -70 0 0 -6 0 -6 30 -28 30 -28 0 -12 0 -11 16 -16 16 -16 8
14 9 13 8 -8 8 -9 -12 -4 -13 -5 0 -19 0 -19 -30 0 -30 0 0 -10 0 -10 -20 0
-20 0 0 -6 0 -5 15 -16 16 -15 19 22 19 22 16 -16 16 -16 -16 -17 -17 -16 -10
14 -10 14 -5 -12 -5 -13 -19 0 -19 0 0 -150 0 -150 640 0 640 0 0 150 0 150
-49 0 -49 0 -5 13 -5 12 -11 -15 -11 -15 -10 15 -10 15 -9 -14 -9 -14 -18 17
-17 18 14 8 13 9 -22 19 -22 19 0 17 0 16 10 0 10 0 0 18 0 18 20 14 20 14 0
14 0 14 40 38 40 38 0 6 0 6 -100 0 -100 0 0 16 0 16 30 28 30 28 0 12 0 12
30 28 30 28 0 14 0 14 20 14 20 14 0 18 0 18 -20 0 -20 0 0 -10 0 -10 -20 0
-20 0 0 -10 0 -10 -20 0 -20 0 0 -10 0 -10 -30 0 -30 0 0 -10 0 -10 -20 0 -20
0 0 -10 0 -10 -20 0 -20 0 0 -10 0 -10 -20 0 -20 0 0 -6 0 -5 15 -16 15 -15
31 33 31 33 8 -14 9 -14 21 24 21 24 9 -14 8 -14 32 34 31 33 7 -7 6 -7 -14
-10 -15 -9 15 -9 14 -10 -7 -8 -8 -7 -9 14 -9 14 -8 -7 -7 -8 14 -9 14 -9 -7
-8 -8 -7 -10 14 -9 15 -10 -15 -10 -15 -9 15 -10 14 -7 -6 -6 -7 17 -17 17
-17 8 14 9 13 7 -6 6 -7 -52 -51 -53 -52 14 -10 14 -10 -12 -5 -13 -5 0 -17 0
-17 20 -14 20 -14 0 -18 0 -18 10 0 10 0 0 -20 0 -20 6 0 5 0 15 15 16 15 -42
40 -42 41 6 7 7 6 10 -14 9 -15 10 15 10 15 10 -15 10 -15 10 15 10 15 10 -15
10 -15 10 15 10 15 10 -15 10 -15 9 15 10 14 7 -6 6 -7 -17 -17 -17 -17 -9 14
-9 14 -10 -15 -10 -15 -9 14 -9 14 -17 -17 -17 -17 6 -7 7 -6 10 14 9 15 10
-15 10 -15 9 15 10 14 7 -6 6 -7 -41 -40 -41 -39 0 -35 0 -35 -12 -5 -13 -4 9
-9 9 -9 4 13 5 12 9 0 9 0 0 -40 0 -40 -19 0 -19 0 -5 -12 -5 -13 -11 15 -11
15 -10 -15 -10 -15 -9 15 -10 14 -7 -7 -7 -7 22 -20 23 -19 -15 -16 -16 -15
-15 0 -16 0 0 9 0 9 13 5 12 4 -7 8 -8 8 -19 -21 -18 -22 -27 0 -26 0 0 9 0 9
13 5 12 4 -7 8 -8 8 -19 -21 -18 -22 -27 0 -26 0 0 9 0 9 13 5 12 4 -7 8 -8 8
-19 -21 -18 -22 -27 0 -26 0 0 9 0 9 13 5 12 4 -7 8 -8 8 -19 -21 -18 -22 -27
0 -26 0 0 9 0 9 13 5 12 4 -7 8 -8 8 -19 -21 -18 -22 -27 0 -26 0 0 9 0 9 13
5 12 4 -7 8 -8 8 -19 -21 -18 -22 -27 0 -26 0 0 9 0 9 13 5 12 4 -7 8 -8 8
-19 -21 -18 -22 -27 0 -26 0 0 9 0 9 13 5 12 4 -7 8 -8 8 -19 -21 -18 -22 -27
0 -26 0 0 9 0 9 13 5 12 4 -7 8 -8 8 -20 -24 -21 -23 -10 14 -9 15 -9 -15 -10
-14 -8 8 -8 9 13 4 12 5 0 9 0 9 -20 0 -20 0 0 10 0 10 10 0 10 0 0 10 0 10
-19 0 -19 0 -6 13 -6 12 -6 -12 -6 -13 -9 0 -9 0 0 40 0 40 10 0 10 0 0 36 0
35 -16 16 -16 16 -8 -13 -8 -13 -27 27 -27 27 6 7 7 6 10 -14 9 -15 10 15 10
15 10 -15 10 -15 9 15 10 14 8 -7 7 -8 -13 -9 -14 -8 16 -16 16 -16 5 0 6 0 0
20 0 20 10 0 10 0 0 19 0 19 -12 6 -13 6 13 6 12 6 0 19 0 19 -9 0 -9 0 -5
-12 -4 -13 -9 9 -9 9 13 4 12 5 0 19 0 19 -10 0 -10 0 0 -20 0 -20 -10 0 -10
0 0 19 0 19 13 5 12 4 -8 9 -8 8 -9 -13 -8 -14 -27 27 -27 27 6 6 6 6 20 -24
21 -23 9 14 9 14 21 -24 21 -24 9 13 8 14 16 -16 16 -16 0 -15 0 -16 -10 0
-10 0 0 20 0 20 -10 0 -10 0 0 -20 0 -20 10 0 10 0 0 -19 0 -19 -12 -5 -13 -4
8 -9 8 -8 10 14 9 15 9 -15 10 -14 8 8 8 9 -12 4 -13 5 0 15 0 14 14 15 15 14
15 0 16 0 0 20 0 20 -10 0 -10 0 0 16 0 17 -22 18 -21 19 7 7 7 7 10 -14 9
-15 9 14 9 14 27 -27 27 -27 -7 -7 -8 -7 -4 13 -5 12 -9 0 -9 0 0 -20 0 -20
18 0 18 0 14 20 14 20 18 0 18 0 0 10 0 10 20 0 20 0 0 10 0 10 40 0 40 0 0
10 0 10 90 0 90 0 0 -10 0 -10 40 0 40 0 0 -10 0 -10 20 0 20 0 0 5 0 6 -26
26 -26 26 -9 -14 -9 -14 -10 15 -10 15 -9 -15 -10 -14 -21 24 -21 24 -10 -14
-9 -15 -10 15 -10 15 -9 -15 -10 -14 -7 7 -7 7 24 20 23 21 -14 10 -15 9 15
10 15 10 -15 9 -14 10 24 21 24 21 -13 9 -14 8 16 17 17 16 17 -16 16 -17 -14
-8 -13 -9 24 -21 24 -21 -14 -9 -14 -9 24 -21 24 -21 -13 -9 -14 -8 16 -16 16
-16 5 0 6 0 0 30 0 30 -10 0 -10 0 0 40 0 40 -10 0 -10 0 0 30 0 30 -10 0 -10
0 0 30 0 30 -10 0 -10 0 0 20 0 20 -10 0 -10 0 0 -20z m20 -50 l0 -10 -10 0
-10 0 0 10 0 10 10 0 10 0 0 -10z m-343 -56 l26 -26 -13 -8 -14 -8 34 -32 34
-32 -14 -8 -13 -8 17 -18 18 -17 8 13 8 13 17 -16 16 -17 -36 -35 -35 -36 -17
16 -16 17 14 8 13 9 -24 21 -24 21 14 9 14 9 -24 21 -24 21 14 9 14 9 -24 21
-24 21 14 10 15 11 -12 5 -13 5 0 9 0 9 5 0 6 0 26 -26z m190 -70 l16 -16 -13
-8 -14 -8 34 -32 33 -31 -7 -7 -7 -6 -9 14 -9 14 -20 -23 -20 -23 -17 16 -16
17 23 20 23 20 -14 10 -15 9 15 11 15 11 -12 5 -13 5 0 9 0 9 6 0 5 0 16 -16z
m633 -54 l0 -10 -10 0 -10 0 0 10 0 10 10 0 10 0 0 -10z m-133 -565 l15 -16
-5 -6 -6 -5 -16 15 -15 16 0 5 0 6 6 0 5 0 16 -15z m53 5 l0 -10 -10 0 -10 0
0 10 0 10 10 0 10 0 0 -10z m-1000 -16 l0 -5 -15 -16 -16 -15 -5 5 -6 6 13 15
14 15 8 1 7 0 0 -6z m80 0 l0 -5 -15 -16 -16 -15 -5 5 -6 6 13 15 14 15 8 1 7
0 0 -6z m960 0 l0 -5 -15 -16 -16 -15 -5 5 -6 6 13 15 14 15 8 1 7 0 0 -6z
m80 0 l0 -5 -15 -16 -16 -15 -5 5 -6 6 13 15 14 15 8 1 7 0 0 -6z m80 0 l0 -5
-15 -16 -16 -15 -5 5 -6 6 13 15 14 15 8 1 7 0 0 -6z"/>
<path d="M300 930 l0 -10 10 0 10 0 0 10 0 10 -10 0 -10 0 0 -10z"/>
<path d="M320 874 l0 -5 15 -16 16 -15 6 5 5 6 -15 16 -16 15 -5 0 -6 0 0 -6z"/>
<path d="M340 814 l0 -7 22 -19 22 -19 -14 -9 -14 -9 6 -7 7 -6 26 27 27 26
-6 7 -7 6 -9 -14 -9 -14 -19 22 -19 22 -7 0 -6 0 0 -6z"/>
<path d="M491 804 l-13 -15 6 -6 5 -5 16 15 15 16 0 5 0 6 -7 0 -8 -1 -14 -15z"/>
<path d="M851 1064 l-13 -15 7 -7 8 -7 4 13 5 12 18 0 18 0 6 -12 6 -13 6 13
6 12 18 0 18 0 5 -12 4 -13 8 7 7 7 -15 16 -16 15 -14 0 -15 0 -6 -12 -6 -13
-6 13 -6 12 -16 0 -17 -1 -14 -15z"/>
<path d="M0 1051 l0 -9 13 -5 12 -5 -15 -11 -15 -11 15 -11 15 -11 -12 -5 -13
-5 0 -19 0 -19 40 0 40 0 0 10 0 10 30 0 30 0 0 10 0 10 20 0 20 0 0 10 0 10
-20 0 -20 0 0 10 0 10 -20 0 -20 0 0 10 0 10 -20 0 -20 0 0 10 0 10 -30 0 -30
0 0 -9z m76 -36 l25 -25 -16 -17 -17 -16 -9 14 -9 14 -9 -15 -10 -14 -8 7 -7
8 14 10 15 9 -14 9 -14 9 14 16 14 15 3 1 3 0 25 -25z m64 -25 l0 -10 -10 0
-10 0 0 10 0 10 10 0 10 0 0 -10z"/>
<path d="M40 1014 l0 -5 15 -16 16 -15 6 5 5 6 -15 16 -16 15 -5 0 -6 0 0 -6z"/>
<path d="M640 950 l0 -10 10 0 10 0 0 10 0 10 -10 0 -10 0 0 -10z"/>
<path d="M631 904 l-14 -16 14 -9 14 -9 -15 -10 -15 -10 15 -10 15 -10 -15 -9
-14 -10 7 -8 8 -7 9 14 9 14 21 -23 20 -24 7 7 7 7 -14 10 -15 9 15 9 14 10
-24 21 -24 21 13 9 14 8 -16 16 -16 16 -3 0 -3 -1 -14 -15z m29 -14 l0 -10
-10 0 -10 0 0 10 0 10 10 0 10 0 0 -10z m7 -45 l15 -16 -5 -6 -6 -5 -16 15
-15 16 0 5 0 6 6 0 5 0 16 -15z"/>
<path d="M833 905 l-13 -14 0 -16 0 -15 10 0 10 0 0 -16 0 -17 -22 -19 -22
-19 14 -9 14 -9 -6 -7 -7 -6 -17 16 -16 17 21 18 21 18 0 17 0 16 -6 0 -5 0
-15 -14 -14 -15 0 -14 0 -15 -12 -5 -13 -4 35 -33 35 -33 -12 -4 -13 -5 0 -9
0 -9 18 0 18 0 14 -20 14 -20 14 0 14 0 29 -31 30 -32 7 7 6 7 -13 9 -14 8 42
41 43 41 -17 17 -17 16 -9 -14 -9 -14 -9 14 -9 15 -31 -33 -30 -32 -26 25 -25
25 0 46 0 45 10 0 10 0 0 50 0 50 -7 0 -8 -1 -12 -14z m130 -197 l5 -13 11 15
10 14 6 -6 7 -7 -36 -36 -36 -36 -16 15 -15 16 23 24 23 25 7 0 6 1 5 -12z"/>
<path d="M931 684 l-13 -15 6 -6 5 -5 16 15 15 16 0 5 0 6 -7 0 -8 -1 -14 -15z"/>
<path d="M540 730 l0 -10 10 0 10 0 0 10 0 10 -10 0 -10 0 0 -10z"/>
<path d="M580 730 l0 -10 10 0 10 0 0 10 0 10 -10 0 -10 0 0 -10z"/>
<path d="M620 730 l0 -10 10 0 10 0 0 10 0 10 -10 0 -10 0 0 -10z"/>
<path d="M260 710 l0 -10 10 0 10 0 0 10 0 10 -10 0 -10 0 0 -10z"/>
<path d="M460 710 l0 -10 10 0 10 0 0 10 0 10 -10 0 -10 0 0 -10z"/>
<path d="M500 710 l0 -10 10 0 10 0 0 10 0 10 -10 0 -10 0 0 -10z"/>
<path d="M680 710 l0 -10 10 0 10 0 0 10 0 10 -10 0 -10 0 0 -10z"/>
<path d="M720 710 l0 -10 10 0 10 0 0 10 0 10 -10 0 -10 0 0 -10z"/>
<path d="M420 690 l0 -10 10 0 10 0 0 10 0 10 -10 0 -10 0 0 -10z"/>
<path d="M760 690 l0 -10 10 0 10 0 0 10 0 10 -10 0 -10 0 0 -10z"/>
<path d="M380 670 l0 -10 10 0 10 0 0 10 0 10 -10 0 -10 0 0 -10z"/>
<path d="M800 670 l0 -10 10 0 10 0 0 10 0 10 -10 0 -10 0 0 -10z"/>
<path d="M340 650 l0 -10 10 0 10 0 0 10 0 10 -10 0 -10 0 0 -10z"/>
<path d="M300 630 l0 -10 10 0 10 0 0 10 0 10 -10 0 -10 0 0 -10z"/>
<path d="M840 630 l0 -10 10 0 10 0 0 10 0 10 -10 0 -10 0 0 -10z"/>
<path d="M880 610 l0 -10 10 0 10 0 0 10 0 10 -10 0 -10 0 0 -10z"/>
<path d="M260 590 l0 -10 10 0 10 0 0 10 0 10 -10 0 -10 0 0 -10z"/>
<path d="M333 585 l-13 -14 0 -31 0 -31 14 -15 15 -14 35 0 36 0 0 -40 0 -40
-40 0 -40 0 0 20 0 20 -10 0 -10 0 0 -16 0 -15 14 -15 15 -14 31 0 31 0 15 14
14 15 0 31 0 31 -14 15 -15 14 -35 0 -36 0 0 40 0 40 39 0 39 0 5 -12 4 -13 8
7 7 7 -15 16 -16 15 -33 0 -33 -1 -12 -14z"/>
<path d="M920 570 l0 -10 10 0 10 0 0 10 0 10 -10 0 -10 0 0 -10z"/>
<path d="M1020 550 l0 -10 10 0 10 0 0 10 0 10 -10 0 -10 0 0 -10z"/>
<path d="M940 530 l0 -10 10 0 10 0 0 10 0 10 -10 0 -10 0 0 -10z"/>
<path d="M200 510 l0 -10 10 0 10 0 0 10 0 10 -10 0 -10 0 0 -10z"/>
<path d="M480 510 l0 -10 10 0 10 0 0 -46 0 -45 14 -15 15 -14 31 0 31 0 15
14 14 15 0 45 0 46 10 0 10 0 0 10 0 10 -30 0 -30 0 0 -10 0 -10 10 0 10 0 0
-50 0 -50 -40 0 -40 0 0 50 0 50 10 0 10 0 0 10 0 10 -30 0 -30 0 0 -10z"/>
<path d="M680 510 l0 -10 10 0 10 0 0 -50 0 -50 -10 0 -10 0 0 -10 0 -10 30 0
30 0 0 10 0 10 -10 0 -10 0 0 36 0 35 14 15 15 14 25 0 26 0 0 -60 0 -60 20 0
20 0 0 10 0 10 -10 0 -10 0 0 46 0 45 -14 15 -15 14 -24 0 -25 0 -6 -12 -6
-13 -6 13 -6 12 -19 0 -19 0 0 -10z"/>
<path d="M1060 510 l0 -10 10 0 10 0 0 10 0 10 -10 0 -10 0 0 -10z"/>
<path d="M80 490 l0 -10 10 0 10 0 0 10 0 10 -10 0 -10 0 0 -10z"/>
<path d="M960 490 l0 -10 10 0 10 0 0 10 0 10 -10 0 -10 0 0 -10z"/>
<path d="M180 470 l0 -10 10 0 10 0 0 10 0 10 -10 0 -10 0 0 -10z"/>
<path d="M980 450 l0 -10 10 0 10 0 0 10 0 10 -10 0 -10 0 0 -10z"/>
<path d="M160 430 l0 -10 10 0 10 0 0 10 0 10 -10 0 -10 0 0 -10z"/>
<path d="M1000 410 l0 -10 10 0 10 0 0 10 0 10 -10 0 -10 0 0 -10z"/>
<path d="M1080 404 l0 -17 22 -19 22 -19 -14 -9 -14 -9 7 -8 8 -7 10 14 9 15
10 -15 10 -15 10 15 10 15 11 -15 11 -15 5 13 5 12 19 0 19 0 0 10 0 10 20 0
20 0 0 10 0 10 -40 0 -40 0 0 10 0 10 -30 0 -30 0 0 10 0 10 -30 0 -30 0 0
-16z m52 -26 l19 -22 9 13 8 14 17 -17 17 -17 -6 -7 -7 -6 -10 14 -9 15 -9
-14 -9 -14 -26 26 -26 26 0 6 0 5 6 0 7 0 19 -22z"/>
<path d="M160 390 l0 -10 10 0 10 0 0 10 0 10 -10 0 -10 0 0 -10z"/>
<path d="M140 350 l0 -10 10 0 10 0 0 10 0 10 -10 0 -10 0 0 -10z"/>
<path d="M60 330 l0 -10 10 0 10 0 0 10 0 10 -10 0 -10 0 0 -10z"/>
<path d="M1020 330 l0 -10 10 0 10 0 0 10 0 10 -10 0 -10 0 0 -10z"/>
<path d="M220 294 l0 -5 15 -15 15 -15 16 16 16 16 -6 7 -7 6 -10 -14 -11 -15
-5 13 -5 12 -9 0 -9 0 0 -6z"/>
<path d="M300 294 l0 -5 15 -15 15 -15 16 16 16 16 -6 7 -7 6 -10 -14 -11 -15
-5 13 -5 12 -9 0 -9 0 0 -6z"/>
<path d="M380 294 l0 -5 15 -15 15 -15 16 16 16 16 -6 7 -7 6 -10 -14 -11 -15
-5 13 -5 12 -9 0 -9 0 0 -6z"/>
<path d="M460 294 l0 -5 15 -15 15 -15 16 16 16 16 -6 7 -7 6 -10 -14 -11 -15
-5 13 -5 12 -9 0 -9 0 0 -6z"/>
<path d="M540 294 l0 -5 15 -15 15 -15 16 16 16 16 -6 7 -7 6 -10 -14 -11 -15
-5 13 -5 12 -9 0 -9 0 0 -6z"/>
<path d="M620 294 l0 -5 15 -15 15 -15 16 16 16 16 -6 7 -7 6 -10 -14 -11 -15
-5 13 -5 12 -9 0 -9 0 0 -6z"/>
<path d="M700 294 l0 -5 15 -15 15 -15 16 16 16 16 -6 7 -7 6 -10 -14 -11 -15
-5 13 -5 12 -9 0 -9 0 0 -6z"/>
<path d="M780 294 l0 -5 15 -15 15 -15 16 16 16 16 -6 7 -7 6 -10 -14 -11 -15
-5 13 -5 12 -9 0 -9 0 0 -6z"/>
<path d="M860 294 l0 -5 15 -15 15 -15 16 16 16 16 -6 7 -7 6 -10 -14 -11 -15
-5 13 -5 12 -9 0 -9 0 0 -6z"/>
</g>
</svg>
