<?xml version="1.0" standalone="no"?>
<!DOCTYPE svg PUBLIC "-//W3C//DTD SVG 20010904//EN"
 "http://www.w3.org/TR/2001/REC-SVG-20010904/DTD/svg10.dtd">
<svg version="1.0" xmlns="http://www.w3.org/2000/svg"
 width="468pt" height="468pt" viewBox="0 0 468 468"
 preserveAspectRatio="xMidYMid meet">
<metadata>
Created by potrace 1.8, written by Peter Selinger 2001-2007
</metadata>
<g transform="translate(0,468) scale(0.365625,-0.365625)"
fill="#000000" stroke="none">
<path d="M0 1240 l0 -40 5 0 6 0 34 35 35 34 0 6 0 5 -40 0 -40 0 0 -40z"/>
<path d="M180 1275 l0 -6 35 -34 34 -35 41 0 41 0 34 35 35 34 0 6 0 5 -110 0
-110 0 0 -5z"/>
<path d="M500 1274 l0 -6 40 -38 40 -38 0 -41 0 -42 -45 -44 -44 -45 -42 0
-41 0 -38 40 -38 40 -42 0 -41 0 -34 -35 -35 -34 0 -41 0 -41 35 -34 34 -35
41 0 42 0 38 40 38 40 42 0 42 0 38 -40 38 -40 42 0 41 0 34 35 35 34 0 41 0
42 -40 38 -40 38 0 42 0 42 40 38 40 38 0 6 0 6 -110 0 -110 0 0 -6z"/>
<path d="M703 1235 l-43 -45 0 -41 0 -41 40 -38 40 -38 0 -41 0 -42 -45 -44
-44 -45 -42 0 -41 0 -38 40 -38 40 -42 0 -42 0 -38 -40 -38 -40 -41 0 -42 0
-44 45 -45 44 0 41 0 41 45 44 44 45 42 0 41 0 38 -40 38 -40 42 0 41 0 34 35
35 34 0 41 0 41 -35 34 -34 35 -41 0 -42 0 -38 -40 -38 -40 -42 0 -42 0 -38
40 -38 40 -41 0 -42 0 -44 -45 -45 -44 0 -21 0 -21 50 -49 50 -49 0 -41 0 -42
-40 -38 -40 -38 0 -42 0 -41 35 -34 34 -35 41 0 42 0 38 40 38 40 41 0 42 0
44 -45 45 -44 0 -41 0 -41 -45 -44 -44 -45 -42 0 -41 0 -38 40 -38 40 -42 0
-41 0 -34 -35 -35 -34 0 -41 0 -42 40 -38 40 -38 0 -42 0 -41 -50 -49 -50 -49
0 -21 0 -21 45 -44 44 -45 41 0 41 0 34 35 35 34 0 41 0 42 -40 38 -40 38 0
41 0 42 45 44 44 45 41 0 41 0 44 -45 45 -44 0 -42 0 -41 -40 -38 -40 -38 0
-42 0 -41 35 -34 34 -35 41 0 42 0 38 40 38 40 41 0 42 0 44 -45 45 -44 0 -36
0 -35 30 0 30 0 0 36 0 36 40 38 40 38 0 42 0 41 -35 34 -34 35 -41 0 -42 0
-38 -40 -38 -40 -41 0 -42 0 -44 45 -45 44 0 42 0 41 40 38 40 38 0 42 0 42
-40 38 -40 38 0 41 0 42 45 44 44 45 42 0 41 0 38 -40 38 -40 42 0 41 0 34 35
35 34 0 41 0 42 -40 38 -40 38 0 42 0 42 40 38 40 38 0 41 0 42 -45 44 -44 45
-23 -1 -23 0 -42 -44z"/>
<path d="M820 1274 l0 -6 40 -38 40 -38 0 -42 0 -42 -40 -38 -40 -38 0 -42 0
-42 40 -38 40 -38 0 -41 0 -42 -45 -44 -44 -45 -42 0 -41 0 -38 40 -38 40 -42
0 -41 0 -34 -35 -35 -34 0 -41 0 -42 40 -38 40 -38 0 -42 0 -42 -40 -38 -40
-38 0 -42 0 -41 35 -34 34 -35 41 0 42 0 38 40 38 40 41 0 42 0 44 -45 45 -44
0 -42 0 -41 -40 -38 -40 -38 0 -36 0 -36 230 0 230 0 0 70 0 70 -36 0 -36 0
-38 -40 -38 -40 -41 0 -42 0 -44 45 -45 44 0 42 0 41 40 38 40 38 0 42 0 41
-35 34 -34 35 -41 0 -42 0 -38 -40 -38 -40 -41 0 -42 0 -44 45 -45 44 0 41 0
41 45 44 44 45 42 0 41 0 38 -40 38 -40 42 0 41 0 34 35 35 34 0 41 0 42 -40
38 -40 38 0 41 0 42 45 44 44 45 41 0 41 0 44 -45 45 -44 0 -42 0 -41 -40 -38
-40 -38 0 -42 0 -42 40 -38 40 -38 0 -42 0 -42 -40 -38 -40 -38 0 -42 0 -41
35 -34 34 -35 36 0 35 0 0 430 0 430 -36 0 -36 0 -38 -40 -38 -40 -41 0 -42 0
-44 45 -45 44 0 42 0 41 40 38 40 38 0 6 0 6 -110 0 -110 0 0 -6z"/>
<path d="M1140 1275 l0 -6 35 -34 34 -35 36 0 35 0 0 40 0 40 -70 0 -70 0 0
-5z"/>
<path d="M1013 1225 l-33 -34 0 -41 0 -41 35 -34 34 -35 41 0 42 0 38 40 38
40 36 0 36 0 0 30 0 30 -36 0 -36 0 -38 40 -38 40 -44 -1 -43 0 -32 -34z"/>
<path d="M0 990 l0 -110 5 0 6 0 34 35 35 34 0 41 0 41 -35 34 -34 35 -6 0 -5
0 0 -110z"/>
<path d="M1013 905 l-33 -34 0 -41 0 -42 40 -38 40 -38 0 -41 0 -42 -45 -44
-44 -45 -42 0 -41 0 -38 40 -38 40 -42 0 -41 0 -34 -35 -35 -34 0 -41 0 -41
35 -34 34 -35 41 0 42 0 38 40 38 40 41 0 42 0 44 -45 45 -44 0 -42 0 -41 -40
-38 -40 -38 0 -42 0 -41 35 -34 34 -35 41 0 42 0 38 40 38 40 36 0 36 0 0 30
0 30 -35 0 -36 0 -44 45 -45 44 0 42 0 41 40 38 40 38 0 42 0 42 -40 38 -40
38 0 42 0 42 40 38 40 38 0 42 0 41 -35 34 -34 35 -43 -1 -43 0 -32 -34z"/>
<path d="M0 670 l0 -110 6 0 6 0 38 40 38 40 42 0 42 0 38 -40 38 -40 42 0 41
0 34 35 35 34 0 41 0 41 -35 34 -34 35 -41 0 -42 0 -38 -40 -38 -40 -42 0 -42
0 -38 40 -38 40 -6 0 -6 0 0 -110z"/>
<path d="M0 350 l0 -110 5 0 6 0 34 35 35 34 0 41 0 41 -35 34 -34 35 -6 0 -5
0 0 -110z"/>
<path d="M213 425 l-33 -34 0 -41 0 -42 40 -38 40 -38 0 -41 0 -42 -45 -44
-44 -45 -42 0 -41 0 -38 40 -38 40 -6 0 -6 0 0 -70 0 -70 360 0 360 0 0 35 0
36 -35 34 -34 35 -41 0 -42 0 -38 -40 -38 -40 -41 0 -42 0 -44 45 -45 44 0 42
0 41 40 38 40 38 0 42 0 41 -35 34 -34 35 -43 -1 -43 0 -32 -34z"/>
</g>
</svg>
