<?xml version="1.0" standalone="no"?>
<!DOCTYPE svg PUBLIC "-//W3C//DTD SVG 20010904//EN"
 "http://www.w3.org/TR/2001/REC-SVG-20010904/DTD/svg10.dtd">
<svg version="1.0" xmlns="http://www.w3.org/2000/svg"
 width="468pt" height="468pt" viewBox="0 0 468 468"
 preserveAspectRatio="xMidYMid meet">
<metadata>
Created by potrace 1.8, written by Peter Selinger 2001-2007
</metadata>
<g transform="translate(0,468) scale(0.365625,-0.365625)"
fill="#000000" stroke="none">
<path d="M290 1255 l0 -25 -10 0 -10 0 0 -30 0 -30 -15 0 -15 0 0 -25 0 -25
-15 0 -15 0 0 -25 0 -25 15 0 15 0 0 25 0 25 65 0 65 0 0 25 0 25 -10 0 -10 0
0 30 0 30 -15 0 -15 0 0 25 0 25 -15 0 -15 0 0 -25z m30 -55 l0 -30 15 0 15 0
0 -10 0 -10 -40 0 -40 0 0 10 0 10 10 0 10 0 0 30 0 30 15 0 15 0 0 -30z"/>
<path d="M400 1200 l0 -80 -15 0 -15 0 0 -25 0 -25 30 0 30 0 0 105 0 105 -15
0 -15 0 0 -80z"/>
<path d="M450 1175 l0 -105 15 0 15 0 0 10 0 10 15 0 15 0 0 -10 0 -10 25 0
25 0 0 10 0 10 15 0 15 0 0 55 0 55 -15 0 -15 0 0 15 0 15 -25 0 -25 0 0 -15
0 -15 -15 0 -15 0 0 40 0 40 -15 0 -15 0 0 -105z m110 -30 l0 -55 -25 0 -25 0
0 15 0 15 -15 0 -15 0 0 25 0 25 15 0 15 0 0 15 0 15 25 0 25 0 0 -55z"/>
<path d="M910 1265 l0 -15 10 0 10 0 0 15 0 15 -10 0 -10 0 0 -15z"/>
<path d="M610 1215 l0 -15 40 0 40 0 0 -15 0 -15 -25 0 -25 0 0 -10 0 -10 -15
0 -15 0 0 -30 0 -30 15 0 15 0 0 -10 0 -10 25 0 25 0 0 10 0 10 15 0 15 0 0
-10 0 -10 25 0 25 0 0 50 0 50 15 0 15 0 0 15 0 15 25 0 25 0 0 -65 0 -65 15
0 15 0 0 65 0 65 -15 0 -15 0 0 15 0 15 -25 0 -25 0 0 -15 0 -15 -15 0 -15 0
0 15 0 15 -10 0 -10 0 0 -70 0 -70 -15 0 -15 0 0 55 0 55 -15 0 -15 0 0 15 0
15 -40 0 -40 0 0 -15z m80 -95 l0 -30 -25 0 -25 0 0 30 0 30 25 0 25 0 0 -30z"/>
<path d="M910 1150 l0 -80 10 0 10 0 0 80 0 80 -10 0 -10 0 0 -80z"/>
<path d="M960 1215 l0 -15 40 0 40 0 0 -15 0 -15 -25 0 -25 0 0 -10 0 -10 -15
0 -15 0 0 -30 0 -30 15 0 15 0 0 -10 0 -10 25 0 25 0 0 10 0 10 14 0 14 0 5
-12 4 -13 9 9 9 9 -12 4 -13 5 0 54 0 54 -15 0 -15 0 0 15 0 15 -40 0 -40 0 0
-15z m80 -95 l0 -30 -25 0 -25 0 0 30 0 30 25 0 25 0 0 -30z"/>
<path d="M0 520 l0 -440 640 0 640 0 0 440 0 440 -640 0 -640 0 0 -440z m80
400 l0 -10 14 0 14 0 6 13 6 12 6 -12 6 -13 14 0 14 0 0 10 0 10 14 0 14 0 6
-12 6 -13 6 13 6 12 14 0 14 0 0 -10 0 -10 14 0 14 0 6 13 6 12 6 -12 6 -13
14 0 14 0 0 10 0 10 14 0 14 0 6 -12 6 -13 6 13 6 12 14 0 14 0 0 -10 0 -10
14 0 14 0 6 13 6 12 6 -12 6 -13 14 0 14 0 0 10 0 10 14 0 14 0 6 -12 6 -13 6
13 6 12 14 0 14 0 0 -10 0 -10 14 0 14 0 6 13 6 12 6 -12 6 -13 14 0 14 0 0
10 0 10 14 0 14 0 6 -12 6 -13 6 13 6 12 14 0 14 0 0 -10 0 -10 14 0 14 0 6
13 6 12 6 -12 6 -13 14 0 14 0 0 10 0 10 14 0 14 0 6 -12 6 -13 6 13 6 12 14
0 14 0 0 -10 0 -10 14 0 14 0 6 13 6 12 6 -12 6 -13 14 0 14 0 0 10 0 10 14 0
14 0 6 -12 6 -13 6 13 6 12 14 0 14 0 0 -10 0 -10 14 0 14 0 6 13 6 12 6 -12
6 -13 14 0 14 0 0 10 0 10 14 0 14 0 6 -12 6 -13 6 13 6 12 14 0 14 0 0 -10 0
-10 14 0 14 0 5 13 4 12 9 -9 9 -9 -13 -4 -12 -5 0 -14 0 -14 10 0 10 0 0 -14
0 -14 -13 -6 -12 -6 12 -6 13 -6 0 -14 0 -14 -10 0 -10 0 0 -14 0 -14 13 -6
12 -6 -12 -6 -13 -6 0 -14 0 -14 10 0 10 0 0 -14 0 -14 -12 -6 -13 -6 13 -6
12 -6 0 -14 0 -14 -10 0 -10 0 0 -14 0 -14 13 -6 12 -6 -12 -6 -13 -6 0 -14 0
-14 10 0 10 0 0 -14 0 -14 -12 -6 -13 -6 12 -6 13 -6 0 -14 0 -14 -10 0 -10 0
0 -14 0 -14 13 -6 12 -6 -12 -6 -13 -6 0 -14 0 -14 10 0 10 0 0 -14 0 -14 -12
-6 -13 -6 13 -6 12 -6 0 -14 0 -14 -10 0 -10 0 0 -14 0 -14 12 -6 13 -6 -13
-6 -12 -6 0 -14 0 -14 10 0 10 0 0 -14 0 -14 -12 -6 -13 -6 13 -6 12 -6 0 -14
0 -14 -10 0 -10 0 0 -14 0 -14 13 -5 12 -4 -9 -9 -9 -9 -4 13 -5 12 -14 0 -14
0 0 -10 0 -10 -14 0 -14 0 -6 13 -6 12 -6 -12 -6 -13 -14 0 -14 0 0 10 0 10
-14 0 -14 0 -6 -12 -6 -13 -6 13 -6 12 -14 0 -14 0 0 -10 0 -10 -14 0 -14 0
-6 13 -6 12 -6 -12 -6 -13 -14 0 -14 0 0 10 0 10 -14 0 -14 0 -6 -12 -6 -13
-6 13 -6 12 -14 0 -14 0 0 -10 0 -10 -14 0 -14 0 -6 13 -6 12 -6 -12 -6 -13
-14 0 -14 0 0 10 0 10 -14 0 -14 0 -6 -12 -6 -13 -6 13 -6 12 -14 0 -14 0 0
-10 0 -10 -14 0 -14 0 -6 13 -6 12 -6 -12 -6 -13 -14 0 -14 0 0 10 0 10 -14 0
-14 0 -6 -12 -6 -13 -6 13 -6 12 -14 0 -14 0 0 -10 0 -10 -14 0 -14 0 -6 13
-6 12 -6 -12 -6 -13 -14 0 -14 0 0 10 0 10 -14 0 -14 0 -6 -12 -6 -13 -6 13
-6 12 -14 0 -14 0 0 -10 0 -10 -14 0 -14 0 -6 13 -6 12 -6 -12 -6 -13 -14 0
-14 0 0 10 0 10 -14 0 -14 0 -6 -12 -6 -13 -6 13 -6 12 -14 0 -14 0 0 -10 0
-10 -14 0 -14 0 -6 13 -6 12 -6 -12 -6 -13 -14 0 -14 0 0 10 0 10 -14 0 -14 0
-6 -12 -6 -13 -6 13 -6 12 -14 0 -14 0 0 -10 0 -10 -11 0 -10 0 -15 14 -14 15
0 10 0 11 10 0 10 0 0 14 0 14 -12 6 -13 6 13 6 12 6 0 14 0 14 -10 0 -10 0 0
14 0 14 13 6 12 6 -12 6 -13 6 0 14 0 14 10 0 10 0 0 14 0 14 -12 6 -13 6 13
6 12 6 0 14 0 14 -10 0 -10 0 0 14 0 14 12 6 13 6 -12 6 -13 6 0 14 0 14 10 0
10 0 0 14 0 14 -12 6 -13 6 12 6 13 6 0 14 0 14 -10 0 -10 0 0 14 0 14 13 6
12 6 -12 6 -13 6 0 14 0 14 10 0 10 0 0 14 0 14 -12 6 -13 6 13 6 12 6 0 14 0
14 -10 0 -10 0 0 14 0 14 13 6 12 6 -12 6 -13 6 0 14 0 14 10 0 10 0 0 14 0
14 -12 6 -13 6 13 6 12 6 0 14 0 14 -10 0 -10 0 0 10 0 11 13 14 12 14 13 1
12 0 0 -10z"/>
<path d="M50 895 l0 -15 15 0 15 0 0 -15 0 -15 -15 0 -15 0 0 -10 0 -10 15 0
15 0 0 -15 0 -15 -15 0 -15 0 0 -15 0 -15 15 0 15 0 0 -10 0 -10 -15 0 -15 0
0 -15 0 -15 15 0 15 0 0 -15 0 -15 -15 0 -15 0 0 -10 0 -10 15 0 15 0 0 -15 0
-15 -15 0 -15 0 0 -15 0 -15 15 0 15 0 0 -10 0 -10 -15 0 -15 0 0 -15 0 -15
15 0 15 0 0 -15 0 -15 -15 0 -15 0 0 -10 0 -10 15 0 15 0 0 -15 0 -15 -15 0
-15 0 0 -15 0 -15 15 0 15 0 0 -10 0 -10 -15 0 -15 0 0 -15 0 -15 15 0 15 0 0
-15 0 -15 -15 0 -15 0 0 -10 0 -10 15 0 15 0 0 -15 0 -15 -15 0 -15 0 0 -15 0
-15 15 0 15 0 0 -10 0 -10 -15 0 -15 0 0 -15 0 -15 15 0 15 0 0 -15 0 -15 -15
0 -15 0 0 -10 0 -10 15 0 15 0 0 -15 0 -15 -15 0 -15 0 0 -15 0 -15 15 0 15 0
0 15 0 15 15 0 15 0 0 -15 0 -15 10 0 10 0 0 15 0 15 15 0 15 0 0 -15 0 -15
15 0 15 0 0 15 0 15 10 0 10 0 0 -15 0 -15 15 0 15 0 0 15 0 15 15 0 15 0 0
-15 0 -15 10 0 10 0 0 15 0 15 15 0 15 0 0 -15 0 -15 15 0 15 0 0 15 0 15 10
0 10 0 0 -15 0 -15 15 0 15 0 0 15 0 15 15 0 15 0 0 -15 0 -15 10 0 10 0 0 15
0 15 15 0 15 0 0 -15 0 -15 15 0 15 0 0 15 0 15 10 0 10 0 0 -15 0 -15 15 0
15 0 0 15 0 15 15 0 15 0 0 -15 0 -15 10 0 10 0 0 15 0 15 15 0 15 0 0 -15 0
-15 15 0 15 0 0 15 0 15 10 0 10 0 0 -15 0 -15 15 0 15 0 0 15 0 15 15 0 15 0
0 -15 0 -15 10 0 10 0 0 15 0 15 15 0 15 0 0 -15 0 -15 15 0 15 0 0 15 0 15
10 0 10 0 0 -15 0 -15 15 0 15 0 0 15 0 15 15 0 15 0 0 -15 0 -15 10 0 10 0 0
15 0 15 15 0 15 0 0 -15 0 -15 15 0 15 0 0 15 0 15 10 0 10 0 0 -15 0 -15 15
0 15 0 0 15 0 15 15 0 15 0 0 -15 0 -15 10 0 10 0 0 15 0 15 15 0 15 0 0 -15
0 -15 15 0 15 0 0 15 0 15 10 0 10 0 0 -15 0 -15 15 0 15 0 0 15 0 15 15 0 15
0 0 15 0 15 -15 0 -15 0 0 10 0 10 15 0 15 0 0 15 0 15 -15 0 -15 0 0 15 0 15
15 0 15 0 0 10 0 10 -15 0 -15 0 0 15 0 15 15 0 15 0 0 15 0 15 -15 0 -15 0 0
10 0 10 15 0 15 0 0 15 0 15 -15 0 -15 0 0 15 0 15 15 0 15 0 0 10 0 10 -15 0
-15 0 0 15 0 15 15 0 15 0 0 15 0 15 -15 0 -15 0 0 10 0 10 15 0 15 0 0 15 0
15 -15 0 -15 0 0 15 0 15 15 0 15 0 0 10 0 10 -15 0 -15 0 0 15 0 15 15 0 15
0 0 15 0 15 -15 0 -15 0 0 10 0 10 15 0 15 0 0 15 0 15 -15 0 -15 0 0 15 0 15
15 0 15 0 0 10 0 10 -15 0 -15 0 0 15 0 15 15 0 15 0 0 15 0 15 -15 0 -15 0 0
10 0 10 15 0 15 0 0 15 0 15 -15 0 -15 0 0 15 0 15 -15 0 -15 0 0 -15 0 -15
-10 0 -10 0 0 15 0 15 -15 0 -15 0 0 -15 0 -15 -15 0 -15 0 0 15 0 15 -10 0
-10 0 0 -15 0 -15 -15 0 -15 0 0 15 0 15 -15 0 -15 0 0 -15 0 -15 -10 0 -10 0
0 15 0 15 -15 0 -15 0 0 -15 0 -15 -15 0 -15 0 0 15 0 15 -10 0 -10 0 0 -15 0
-15 -15 0 -15 0 0 15 0 15 -15 0 -15 0 0 -15 0 -15 -10 0 -10 0 0 15 0 15 -15
0 -15 0 0 -15 0 -15 -15 0 -15 0 0 15 0 15 -10 0 -10 0 0 -15 0 -15 -15 0 -15
0 0 15 0 15 -15 0 -15 0 0 -15 0 -15 -10 0 -10 0 0 15 0 15 -15 0 -15 0 0 -15
0 -15 -15 0 -15 0 0 15 0 15 -10 0 -10 0 0 -15 0 -15 -15 0 -15 0 0 15 0 15
-15 0 -15 0 0 -15 0 -15 -10 0 -10 0 0 15 0 15 -15 0 -15 0 0 -15 0 -15 -15 0
-15 0 0 15 0 15 -10 0 -10 0 0 -15 0 -15 -15 0 -15 0 0 15 0 15 -15 0 -15 0 0
-15 0 -15 -10 0 -10 0 0 15 0 15 -15 0 -15 0 0 -15 0 -15 -15 0 -15 0 0 15 0
15 -10 0 -10 0 0 -15 0 -15 -15 0 -15 0 0 15 0 15 -15 0 -15 0 0 -15 0 -15
-10 0 -10 0 0 15 0 15 -15 0 -15 0 0 -15 0 -15 -15 0 -15 0 0 15 0 15 -10 0
-10 0 0 -15 0 -15 -15 0 -15 0 0 15 0 15 -15 0 -15 0 0 -15z m80 -30 l0 -15
15 0 15 0 0 15 0 15 15 0 15 0 0 -15 0 -15 -15 0 -15 0 0 -10 0 -10 15 0 15 0
0 -15 0 -15 10 0 10 0 0 15 0 15 15 0 15 0 0 10 0 10 -15 0 -15 0 0 15 0 15
15 0 15 0 0 -15 0 -15 15 0 15 0 0 15 0 15 10 0 10 0 0 -15 0 -15 15 0 15 0 0
15 0 15 15 0 15 0 0 -15 0 -15 -15 0 -15 0 0 -10 0 -10 15 0 15 0 0 -15 0 -15
10 0 10 0 0 15 0 15 15 0 15 0 0 10 0 10 -15 0 -15 0 0 15 0 15 15 0 15 0 0
-15 0 -15 15 0 15 0 0 15 0 15 10 0 10 0 0 -15 0 -15 15 0 15 0 0 15 0 15 15
0 15 0 0 -15 0 -15 -15 0 -15 0 0 -10 0 -10 15 0 15 0 0 -15 0 -15 -15 0 -15
0 0 15 0 15 -15 0 -15 0 0 -29 0 -29 -12 -6 -13 -6 13 -6 12 -6 0 -14 0 -14
-10 0 -10 0 0 15 0 15 -15 0 -15 0 0 10 0 10 15 0 15 0 0 30 0 30 -15 0 -15 0
0 -15 0 -15 -15 0 -15 0 0 -15 0 -15 -10 0 -10 0 0 15 0 15 -15 0 -15 0 0 -15
0 -15 -15 0 -15 0 0 15 0 15 -10 0 -10 0 0 -15 0 -15 -15 0 -15 0 0 -10 0 -10
15 0 15 0 0 -15 0 -15 10 0 10 0 0 15 0 15 15 0 15 0 0 -15 0 -15 15 0 15 0 0
-15 0 -15 -15 0 -15 0 0 -10 0 -10 15 0 15 0 0 -15 0 -15 -15 0 -15 0 0 -15 0
-15 15 0 15 0 0 -10 0 -10 -15 0 -15 0 0 -15 0 -15 15 0 15 0 0 -15 0 -15 -15
0 -15 0 0 -10 0 -10 -15 0 -15 0 0 -15 0 -15 15 0 15 0 0 -15 0 -15 15 0 15 0
0 -10 0 -10 -15 0 -15 0 0 -15 0 -15 15 0 15 0 0 -11 0 -10 14 -15 15 -14 10
0 11 0 0 10 0 10 15 0 15 0 0 15 0 15 10 0 10 0 0 -15 0 -15 15 0 15 0 0 15 0
15 15 0 15 0 0 -15 0 -15 -15 0 -15 0 0 -10 0 -10 15 0 15 0 0 -15 0 -15 -15
0 -15 0 0 15 0 15 -14 0 -14 0 -6 13 -6 12 -6 -12 -6 -13 -14 0 -14 0 0 -15 0
-15 -15 0 -15 0 0 -15 0 -15 15 0 15 0 0 -10 0 -10 15 0 15 0 0 -15 0 -15 10
0 10 0 0 15 0 15 15 0 15 0 0 -15 0 -15 15 0 15 0 0 11 0 10 14 15 15 14 10 0
11 0 0 -10 0 -10 15 0 15 0 0 -15 0 -15 10 0 10 0 0 15 0 15 15 0 15 0 0 -15
0 -15 15 0 15 0 0 15 0 15 10 0 10 0 0 -15 0 -15 15 0 15 0 0 15 0 15 11 0 10
0 15 14 14 15 0 10 0 11 15 0 15 0 0 15 0 15 11 0 10 0 15 14 14 15 0 10 0 11
15 0 15 0 0 -15 0 -15 -11 0 -10 0 -15 -14 -14 -15 0 -10 0 -11 -15 0 -15 0 0
-15 0 -15 -11 0 -10 0 -15 -14 -14 -15 0 -10 0 -11 10 0 10 0 0 15 0 15 15 0
15 0 0 -15 0 -15 15 0 15 0 0 25 0 25 10 0 10 0 0 -25 0 -25 15 0 15 0 0 15 0
15 11 0 10 0 15 14 14 15 0 10 0 11 -10 0 -10 0 0 11 0 10 14 15 15 14 10 0
11 0 0 15 0 15 15 0 15 0 0 15 0 15 -15 0 -15 0 0 10 0 10 15 0 15 0 0 15 0
15 10 0 10 0 0 14 0 14 -12 6 -13 6 13 6 12 6 0 14 0 14 -10 0 -10 0 0 15 0
15 -15 0 -15 0 0 10 0 10 15 0 15 0 0 15 0 15 -15 0 -15 0 0 15 0 15 15 0 15
0 0 -15 0 -15 10 0 10 0 0 15 0 15 15 0 15 0 0 10 0 10 -15 0 -15 0 0 15 0 15
-10 0 -10 0 0 -15 0 -15 -15 0 -15 0 0 15 0 15 15 0 15 0 0 14 0 14 12 6 13 6
-13 6 -12 6 0 14 0 14 -15 0 -15 0 0 -15 0 -15 -11 0 -10 0 -15 -14 -14 -15 0
-10 0 -11 -15 0 -15 0 0 15 0 15 11 0 10 0 15 14 14 15 0 10 0 11 -10 0 -10 0
0 -15 0 -15 -15 0 -15 0 0 15 0 15 -15 0 -15 0 0 15 0 15 15 0 15 0 0 10 0 10
-15 0 -15 0 0 15 0 15 15 0 15 0 0 -15 0 -15 15 0 15 0 0 15 0 15 10 0 10 0 0
-15 0 -15 15 0 15 0 0 15 0 15 15 0 15 0 0 -15 0 -15 -15 0 -15 0 0 -10 0 -10
15 0 15 0 0 -15 0 -15 10 0 10 0 0 15 0 15 15 0 15 0 0 10 0 10 -15 0 -15 0 0
15 0 15 15 0 15 0 0 -15 0 -15 15 0 15 0 0 15 0 15 10 0 10 0 0 -15 0 -15 15
0 15 0 0 15 0 15 15 0 15 0 0 -15 0 -15 -15 0 -15 0 0 -10 0 -10 15 0 15 0 0
-15 0 -15 10 0 10 0 0 15 0 15 15 0 15 0 0 -15 0 -15 -15 0 -15 0 0 -15 0 -15
15 0 15 0 0 -10 0 -10 -15 0 -15 0 0 -15 0 -15 15 0 15 0 0 -15 0 -15 -15 0
-15 0 0 15 0 15 -10 0 -10 0 0 -15 0 -15 -15 0 -15 0 0 -10 0 -10 15 0 15 0 0
-15 0 -15 10 0 10 0 0 15 0 15 15 0 15 0 0 -15 0 -15 -15 0 -15 0 0 -15 0 -15
15 0 15 0 0 -10 0 -10 -15 0 -15 0 0 -15 0 -15 15 0 15 0 0 -15 0 -15 -15 0
-15 0 0 15 0 15 -10 0 -10 0 0 -15 0 -15 -15 0 -15 0 0 -10 0 -10 15 0 15 0 0
-15 0 -15 10 0 10 0 0 15 0 15 15 0 15 0 0 -15 0 -15 -15 0 -15 0 0 -15 0 -15
15 0 15 0 0 -10 0 -10 -15 0 -15 0 0 -15 0 -15 15 0 15 0 0 -15 0 -15 -15 0
-15 0 0 15 0 15 -10 0 -10 0 0 -15 0 -15 -15 0 -15 0 0 -10 0 -10 15 0 15 0 0
-15 0 -15 10 0 10 0 0 15 0 15 15 0 15 0 0 -15 0 -15 -15 0 -15 0 0 -15 0 -15
15 0 15 0 0 -10 0 -10 -15 0 -15 0 0 -15 0 -15 15 0 15 0 0 -15 0 -15 -15 0
-15 0 0 15 0 15 -10 0 -10 0 0 -15 0 -15 -15 0 -15 0 0 -10 0 -10 15 0 15 0 0
-15 0 -15 -15 0 -15 0 0 15 0 15 -15 0 -15 0 0 -15 0 -15 -10 0 -10 0 0 15 0
15 -15 0 -15 0 0 -15 0 -15 -15 0 -15 0 0 15 0 15 15 0 15 0 0 10 0 10 -15 0
-15 0 0 15 0 15 -10 0 -10 0 0 -15 0 -15 -15 0 -15 0 0 -10 0 -10 15 0 15 0 0
-15 0 -15 -15 0 -15 0 0 15 0 15 -15 0 -15 0 0 -15 0 -15 -10 0 -10 0 0 15 0
15 -15 0 -15 0 0 -15 0 -15 -15 0 -15 0 0 15 0 15 15 0 15 0 0 10 0 10 -15 0
-15 0 0 15 0 15 -10 0 -10 0 0 -15 0 -15 -15 0 -15 0 0 -10 0 -10 15 0 15 0 0
-15 0 -15 -15 0 -15 0 0 15 0 15 -15 0 -15 0 0 -15 0 -15 -10 0 -10 0 0 15 0
15 -15 0 -15 0 0 -15 0 -15 -15 0 -15 0 0 15 0 15 15 0 15 0 0 10 0 10 -15 0
-15 0 0 15 0 15 -10 0 -10 0 0 -15 0 -15 -15 0 -15 0 0 -10 0 -10 15 0 15 0 0
-15 0 -15 -15 0 -15 0 0 15 0 15 -15 0 -15 0 0 -15 0 -15 -10 0 -10 0 0 15 0
15 -15 0 -15 0 0 -15 0 -15 -15 0 -15 0 0 15 0 15 15 0 15 0 0 10 0 10 -15 0
-15 0 0 15 0 15 -10 0 -10 0 0 -15 0 -15 -15 0 -15 0 0 -10 0 -10 15 0 15 0 0
-15 0 -15 -15 0 -15 0 0 15 0 15 -15 0 -15 0 0 -15 0 -15 -10 0 -10 0 0 15 0
15 -15 0 -15 0 0 -15 0 -15 -15 0 -15 0 0 15 0 15 15 0 15 0 0 10 0 10 -15 0
-15 0 0 15 0 15 -10 0 -10 0 0 -15 0 -15 -15 0 -15 0 0 -10 0 -10 15 0 15 0 0
-15 0 -15 -15 0 -15 0 0 15 0 15 -15 0 -15 0 0 -15 0 -15 -10 0 -10 0 0 15 0
15 -15 0 -15 0 0 -15 0 -15 -15 0 -15 0 0 15 0 15 15 0 15 0 0 10 0 10 -15 0
-15 0 0 15 0 15 -10 0 -10 0 0 -15 0 -15 -15 0 -15 0 0 -10 0 -10 15 0 15 0 0
-15 0 -15 -15 0 -15 0 0 15 0 15 -15 0 -15 0 0 -15 0 -15 -10 0 -10 0 0 15 0
15 -15 0 -15 0 0 10 0 10 15 0 15 0 0 15 0 15 -15 0 -15 0 0 15 0 15 15 0 15
0 0 -15 0 -15 10 0 10 0 0 15 0 15 15 0 15 0 0 10 0 10 -15 0 -15 0 0 15 0 15
-10 0 -10 0 0 -15 0 -15 -15 0 -15 0 0 15 0 15 15 0 15 0 0 15 0 15 -15 0 -15
0 0 10 0 10 15 0 15 0 0 15 0 15 -15 0 -15 0 0 15 0 15 15 0 15 0 0 -15 0 -15
10 0 10 0 0 15 0 15 15 0 15 0 0 10 0 10 -15 0 -15 0 0 15 0 15 -10 0 -10 0 0
-15 0 -15 -15 0 -15 0 0 15 0 15 15 0 15 0 0 15 0 15 -15 0 -15 0 0 10 0 10
15 0 15 0 0 15 0 15 -15 0 -15 0 0 15 0 15 15 0 15 0 0 -15 0 -15 10 0 10 0 0
15 0 15 15 0 15 0 0 10 0 10 -15 0 -15 0 0 15 0 15 -10 0 -10 0 0 -15 0 -15
-15 0 -15 0 0 15 0 15 15 0 15 0 0 15 0 15 -15 0 -15 0 0 10 0 10 15 0 15 0 0
15 0 15 -15 0 -15 0 0 15 0 15 15 0 15 0 0 -15 0 -15 10 0 10 0 0 15 0 15 15
0 15 0 0 10 0 10 -15 0 -15 0 0 15 0 15 -10 0 -10 0 0 -15 0 -15 -15 0 -15 0
0 15 0 15 15 0 15 0 0 15 0 15 -15 0 -15 0 0 10 0 10 15 0 15 0 0 15 0 15 10
0 10 0 0 -15z m430 0 l0 -15 15 0 15 0 0 15 0 15 10 0 10 0 0 -15 0 -15 15 0
15 0 0 15 0 15 15 0 15 0 0 -15 0 -15 -15 0 -15 0 0 -10 0 -10 15 0 15 0 0
-15 0 -15 10 0 10 0 0 15 0 15 15 0 15 0 0 10 0 10 -15 0 -15 0 0 15 0 15 15
0 15 0 0 -15 0 -15 15 0 15 0 0 15 0 15 10 0 10 0 0 -15 0 -15 15 0 15 0 0 15
0 15 15 0 15 0 0 -14 0 -14 13 -6 12 -6 -12 -6 -13 -6 0 -14 0 -14 -15 0 -15
0 0 15 0 15 -15 0 -15 0 0 -15 0 -15 -10 0 -10 0 0 15 0 15 -15 0 -15 0 0 -15
0 -15 -15 0 -15 0 0 -14 0 -14 -12 -6 -13 -6 13 -6 12 -6 0 -14 0 -14 -10 0
-10 0 0 -15 0 -15 -15 0 -15 0 0 15 0 15 -15 0 -15 0 0 15 0 15 15 0 15 0 0
10 0 10 -15 0 -15 0 0 15 0 15 -10 0 -10 0 0 15 0 15 -15 0 -15 0 0 -15 0 -15
-15 0 -15 0 0 14 0 14 -12 6 -13 6 13 6 12 6 0 14 0 14 15 0 15 0 0 -15z m640
0 l0 -15 -14 0 -14 0 -5 -12 -4 -13 -9 9 -9 9 13 4 12 5 0 14 0 14 15 0 15 0
0 -15z m-990 -25 l0 -10 -10 0 -10 0 0 10 0 10 10 0 10 0 0 -10z m160 0 l0
-10 -10 0 -10 0 0 10 0 10 10 0 10 0 0 -10z m320 0 l0 -10 -10 0 -10 0 0 10 0
10 10 0 10 0 0 -10z m320 0 l0 -10 -10 0 -10 0 0 10 0 10 10 0 10 0 0 -10z
m-880 -80 l0 -10 -10 0 -10 0 0 10 0 10 10 0 10 0 0 -10z m160 0 l0 -10 -10 0
-10 0 0 10 0 10 10 0 10 0 0 -10z m560 -25 l0 -15 -10 0 -10 0 0 15 0 15 10 0
10 0 0 -15z m-320 -30 l0 -15 15 0 15 0 0 -10 0 -10 15 0 15 0 0 -15 0 -15
-15 0 -15 0 0 15 0 15 -11 0 -10 0 -15 14 -14 15 0 10 0 11 10 0 10 0 0 -15z
m270 0 l0 -15 -11 0 -10 0 -15 -14 -14 -15 0 -10 0 -11 -15 0 -15 0 0 15 0 15
11 0 10 0 15 14 14 15 0 10 0 11 15 0 15 0 0 -15z m210 -25 l0 -10 -10 0 -10
0 0 10 0 10 10 0 10 0 0 -10z m160 0 l0 -10 -10 0 -10 0 0 10 0 10 10 0 10 0
0 -10z m-1040 -80 l0 -10 -10 0 -10 0 0 10 0 10 10 0 10 0 0 -10z m300 0 l0
-10 -15 0 -15 0 0 10 0 10 15 0 15 0 0 -10z m480 0 l0 -10 -15 0 -15 0 0 -15
0 -15 -15 0 -15 0 0 15 0 15 15 0 15 0 0 10 0 10 15 0 15 0 0 -10z m-510 -55
l0 -15 -15 0 -15 0 0 15 0 15 15 0 15 0 0 -15z m530 0 l0 -15 -10 0 -10 0 0
15 0 15 10 0 10 0 0 -15z m240 -25 l0 -10 -10 0 -10 0 0 10 0 10 10 0 10 0 0
-10z m-770 -25 l0 -15 15 0 15 0 0 -14 0 -14 13 -5 12 -4 -9 -9 -9 -9 -4 13
-5 12 -14 0 -14 0 0 15 0 15 -15 0 -15 0 0 15 0 15 15 0 15 0 0 -15z m450 0
l0 -15 -10 0 -10 0 0 15 0 15 10 0 10 0 0 -15z m80 0 l0 -15 -10 0 -10 0 0
-15 0 -15 -15 0 -15 0 0 -10 0 -10 -15 0 -15 0 0 10 0 10 15 0 15 0 0 15 0 15
15 0 15 0 0 15 0 15 10 0 10 0 0 -15z m-420 -30 l0 -15 -15 0 -15 0 0 15 0 15
15 0 15 0 0 -15z m50 0 l0 -15 -15 0 -15 0 0 15 0 15 15 0 15 0 0 -15z m-430
-25 l0 -10 -10 0 -10 0 0 10 0 10 10 0 10 0 0 -10z m670 0 l0 -10 -15 0 -15 0
0 10 0 10 15 0 15 0 0 -10z m-190 -25 l0 -15 -10 0 -10 0 0 -15 0 -15 -15 0
-15 0 0 -10 0 -10 15 0 15 0 0 -15 0 -15 -15 0 -15 0 0 15 0 15 -15 0 -15 0 0
10 0 10 15 0 15 0 0 15 0 15 15 0 15 0 0 15 0 15 10 0 10 0 0 -15z m110 0 l0
-15 15 0 15 0 0 -14 0 -14 13 -6 12 -6 -12 -6 -13 -6 0 -14 0 -14 -15 0 -15 0
0 15 0 15 15 0 15 0 0 10 0 10 -15 0 -15 0 0 15 0 15 -15 0 -15 0 0 15 0 15
15 0 15 0 0 -15z m110 -30 l0 -15 -15 0 -15 0 0 15 0 15 15 0 15 0 0 -15z
m340 -25 l0 -10 -10 0 -10 0 0 10 0 10 10 0 10 0 0 -10z m-1040 -80 l0 -10
-10 0 -10 0 0 10 0 10 10 0 10 0 0 -10z m80 -80 l0 -10 -10 0 -10 0 0 10 0 10
10 0 10 0 0 -10z m160 0 l0 -10 -10 0 -10 0 0 10 0 10 10 0 10 0 0 -10z m160
0 l0 -10 -10 0 -10 0 0 10 0 10 10 0 10 0 0 -10z m160 0 l0 -10 -10 0 -10 0 0
10 0 10 10 0 10 0 0 -10z m160 0 l0 -10 -10 0 -10 0 0 10 0 10 10 0 10 0 0
-10z m160 0 l0 -10 -10 0 -10 0 0 10 0 10 10 0 10 0 0 -10z m160 0 l0 -10 15
0 15 0 0 -15 0 -15 -15 0 -15 0 0 15 0 15 -10 0 -10 0 0 10 0 10 10 0 10 0 0
-10z"/>
<path d="M110 840 l0 -10 10 0 10 0 0 -15 0 -15 15 0 15 0 0 -15 0 -15 15 0
15 0 0 15 0 15 -15 0 -15 0 0 15 0 15 -15 0 -15 0 0 10 0 10 -10 0 -10 0 0
-10z"/>
<path d="M270 840 l0 -10 -15 0 -15 0 0 -15 0 -15 -15 0 -15 0 0 -11 0 -10
-14 -15 -15 -14 -10 0 -11 0 0 -15 0 -15 -15 0 -15 0 0 -14 0 -14 -12 -6 -13
-6 13 -6 12 -6 0 -14 0 -14 15 0 15 0 0 -15 0 -15 15 0 15 0 0 15 0 15 10 0
10 0 0 -15 0 -15 15 0 15 0 0 -10 0 -10 -15 0 -15 0 0 -15 0 -15 -10 0 -10 0
0 15 0 15 -15 0 -15 0 0 -15 0 -15 -15 0 -15 0 0 -14 0 -14 -12 -6 -13 -6 13
-6 12 -6 0 -14 0 -14 15 0 15 0 0 -15 0 -15 15 0 15 0 0 15 0 15 10 0 10 0 0
-15 0 -15 15 0 15 0 0 -10 0 -10 -15 0 -15 0 0 -15 0 -15 -10 0 -10 0 0 15 0
15 -15 0 -15 0 0 -15 0 -15 -15 0 -15 0 0 -14 0 -14 -12 -6 -13 -6 13 -6 12
-6 0 -14 0 -14 15 0 15 0 0 -15 0 -15 15 0 15 0 0 15 0 15 10 0 10 0 0 -15 0
-15 15 0 15 0 0 -10 0 -10 -15 0 -15 0 0 -15 0 -15 15 0 15 0 0 -15 0 -15 14
0 14 0 6 -12 6 -13 6 13 6 12 14 0 14 0 0 15 0 15 15 0 15 0 0 15 0 15 -15 0
-15 0 0 10 0 10 11 0 10 0 15 -14 14 -15 0 -10 0 -11 15 0 15 0 0 -15 0 -15
14 0 14 0 6 -12 6 -13 6 13 6 12 14 0 14 0 0 15 0 15 -15 0 -15 0 0 -15 0 -15
-10 0 -10 0 0 15 0 15 -15 0 -15 0 0 15 0 15 -11 0 -10 0 -15 14 -14 15 0 10
0 11 10 0 10 0 0 11 0 10 -14 15 -15 14 -10 0 -11 0 0 15 0 15 -15 0 -15 0 0
15 0 15 15 0 15 0 0 10 0 10 -15 0 -15 0 0 15 0 15 -10 0 -10 0 0 11 0 10 14
15 15 14 10 0 11 0 0 15 0 15 -15 0 -15 0 0 15 0 15 15 0 15 0 0 10 0 10 -15
0 -15 0 0 15 0 15 15 0 15 0 0 15 0 15 -15 0 -15 0 0 -15 0 -15 -10 0 -10 0 0
15 0 15 -15 0 -15 0 0 10 0 10 15 0 15 0 0 15 0 15 -15 0 -15 0 0 15 0 15 -15
0 -15 0 0 -15 0 -15 -10 0 -10 0 0 11 0 10 14 15 15 14 10 0 11 0 0 15 0 15
15 0 15 0 0 15 0 15 10 0 10 0 0 -15 0 -15 15 0 15 0 0 15 0 15 -15 0 -15 0 0
10 0 10 -10 0 -10 0 0 -10z m-80 -135 l0 -15 -15 0 -15 0 0 -10 0 -10 15 0 15
0 0 -15 0 -15 -15 0 -15 0 0 15 0 15 -15 0 -15 0 0 10 0 10 15 0 15 0 0 15 0
15 15 0 15 0 0 -15z m50 0 l0 -15 -15 0 -15 0 0 -10 0 -10 15 0 15 0 0 -15 0
-15 15 0 15 0 0 -14 0 -14 13 -6 12 -6 -12 -6 -13 -6 0 -14 0 -14 10 0 10 0 0
-11 0 -10 -14 -15 -15 -14 -10 0 -11 0 0 -15 0 -15 15 0 15 0 0 -14 0 -14 13
-6 12 -6 -12 -6 -13 -6 0 -14 0 -14 10 0 10 0 0 -15 0 -15 15 0 15 0 0 -10 0
-10 15 0 15 0 0 -15 0 -15 -15 0 -15 0 0 -15 0 -15 -15 0 -15 0 0 15 0 15 -10
0 -10 0 0 -15 0 -15 -15 0 -15 0 0 15 0 15 -15 0 -15 0 0 15 0 15 15 0 15 0 0
10 0 10 -15 0 -15 0 0 15 0 15 15 0 15 0 0 15 0 15 15 0 15 0 0 10 0 10 -15 0
-15 0 0 15 0 15 -15 0 -15 0 0 15 0 15 15 0 15 0 0 10 0 10 -15 0 -15 0 0 15
0 15 15 0 15 0 0 15 0 15 15 0 15 0 0 10 0 10 -15 0 -15 0 0 15 0 15 -15 0
-15 0 0 14 0 14 -12 6 -13 6 13 6 12 6 0 14 0 14 15 0 15 0 0 -15z m-50 -159
l0 -14 13 -6 12 -6 -12 -6 -13 -6 0 -14 0 -14 -15 0 -15 0 0 15 0 15 -15 0
-15 0 0 10 0 10 15 0 15 0 0 15 0 15 15 0 15 0 0 -14z m0 -160 l0 -14 13 -6
12 -6 -12 -6 -13 -6 0 -14 0 -14 -15 0 -15 0 0 15 0 15 -15 0 -15 0 0 10 0 10
15 0 15 0 0 15 0 15 15 0 15 0 0 -14z m100 -106 l0 -10 15 0 15 0 0 -15 0 -15
-15 0 -15 0 0 -15 0 -15 -10 0 -10 0 0 15 0 15 -15 0 -15 0 0 15 0 15 15 0 15
0 0 10 0 10 10 0 10 0 0 -10z"/>
<path d="M240 545 l0 -15 15 0 15 0 0 15 0 15 -15 0 -15 0 0 -15z"/>
<path d="M240 385 l0 -15 11 0 10 0 15 -14 14 -15 0 -10 0 -11 15 0 15 0 0 15
0 15 -11 0 -10 0 -15 14 -14 15 0 10 0 11 -15 0 -15 0 0 -15z"/>
<path d="M240 335 l0 -15 15 0 15 0 0 15 0 15 -15 0 -15 0 0 -15z"/>
<path d="M160 520 l0 -10 15 0 15 0 0 10 0 10 -15 0 -15 0 0 -10z"/>
<path d="M160 360 l0 -10 15 0 15 0 0 10 0 10 -15 0 -15 0 0 -10z"/>
<path d="M270 255 l0 -15 10 0 10 0 0 15 0 15 -10 0 -10 0 0 -15z"/>
<path d="M430 840 l0 -10 10 0 10 0 0 10 0 10 -10 0 -10 0 0 -10z"/>
<path d="M910 840 l0 -10 -15 0 -15 0 0 -15 0 -15 15 0 15 0 0 15 0 15 10 0
10 0 0 -15 0 -15 15 0 15 0 0 15 0 15 -15 0 -15 0 0 10 0 10 -10 0 -10 0 0
-10z"/>
<path d="M1070 840 l0 -10 -15 0 -15 0 0 -15 0 -15 -15 0 -15 0 0 -15 0 -15
15 0 15 0 0 -10 0 -10 -15 0 -15 0 0 -15 0 -15 15 0 15 0 0 -15 0 -15 15 0 15
0 0 15 0 15 10 0 10 0 0 -15 0 -15 15 0 15 0 0 15 0 15 15 0 15 0 0 14 0 14
13 6 12 6 -12 6 -13 6 0 14 0 14 -15 0 -15 0 0 15 0 15 -15 0 -15 0 0 10 0 10
-10 0 -10 0 0 -10z m20 -25 l0 -15 15 0 15 0 0 -15 0 -15 15 0 15 0 0 -10 0
-10 -15 0 -15 0 0 -15 0 -15 -15 0 -15 0 0 15 0 15 15 0 15 0 0 10 0 10 -15 0
-15 0 0 15 0 15 -10 0 -10 0 0 -15 0 -15 -15 0 -15 0 0 15 0 15 15 0 15 0 0
15 0 15 10 0 10 0 0 -15z m0 -55 l0 -10 -10 0 -10 0 0 -15 0 -15 -15 0 -15 0
0 15 0 15 15 0 15 0 0 10 0 10 10 0 10 0 0 -10z"/>
<path d="M290 706 l0 -14 -12 -5 -13 -4 9 -9 9 -9 4 13 5 12 14 0 14 0 0 15 0
15 -15 0 -15 0 0 -14z"/>
<path d="M1070 680 l0 -10 -15 0 -15 0 0 -15 0 -15 -15 0 -15 0 0 -14 0 -14
-12 -6 -13 -6 13 -6 12 -6 0 -14 0 -14 15 0 15 0 0 -15 0 -15 -15 0 -15 0 0
-10 0 -10 15 0 15 0 0 -15 0 -15 -15 0 -15 0 0 -14 0 -14 -12 -6 -13 -6 13 -6
12 -6 0 -14 0 -14 -10 0 -10 0 0 -15 0 -15 -15 0 -15 0 0 -10 0 -10 -15 0 -15
0 0 -15 0 -15 15 0 15 0 0 -15 0 -15 -11 0 -10 0 -15 -14 -14 -15 0 -10 0 -11
-15 0 -15 0 0 -15 0 -15 14 0 14 0 6 -12 6 -13 6 13 6 12 14 0 14 0 0 15 0 15
15 0 15 0 0 15 0 15 -15 0 -15 0 0 10 0 10 15 0 15 0 0 15 0 15 10 0 10 0 0
-15 0 -15 15 0 15 0 0 -10 0 -10 -15 0 -15 0 0 -15 0 -15 15 0 15 0 0 -15 0
-15 14 0 14 0 6 -12 6 -13 6 13 6 12 14 0 14 0 0 15 0 15 15 0 15 0 0 14 0 14
13 6 12 6 -12 6 -13 6 0 14 0 14 -15 0 -15 0 0 15 0 15 -15 0 -15 0 0 -15 0
-15 -10 0 -10 0 0 15 0 15 -15 0 -15 0 0 10 0 10 15 0 15 0 0 15 0 15 10 0 10
0 0 -15 0 -15 15 0 15 0 0 15 0 15 15 0 15 0 0 14 0 14 13 6 12 6 -12 6 -13 6
0 14 0 14 -15 0 -15 0 0 15 0 15 -15 0 -15 0 0 -15 0 -15 -10 0 -10 0 0 15 0
15 -15 0 -15 0 0 10 0 10 15 0 15 0 0 15 0 15 10 0 10 0 0 -15 0 -15 15 0 15
0 0 15 0 15 15 0 15 0 0 14 0 14 13 6 12 6 -12 6 -13 6 0 14 0 14 -15 0 -15 0
0 15 0 15 -15 0 -15 0 0 10 0 10 -10 0 -10 0 0 -10z m20 -25 l0 -15 15 0 15 0
0 -15 0 -15 15 0 15 0 0 -10 0 -10 -15 0 -15 0 0 -15 0 -15 -15 0 -15 0 0 15
0 15 15 0 15 0 0 10 0 10 -15 0 -15 0 0 15 0 15 -10 0 -10 0 0 -15 0 -15 -15
0 -15 0 0 -10 0 -10 15 0 15 0 0 -15 0 -15 -15 0 -15 0 0 15 0 15 -15 0 -15 0
0 10 0 10 15 0 15 0 0 15 0 15 15 0 15 0 0 15 0 15 10 0 10 0 0 -15z m0 -55
l0 -10 -10 0 -10 0 0 10 0 10 10 0 10 0 0 -10z m-20 -135 l0 -15 -15 0 -15 0
0 -10 0 -10 15 0 15 0 0 -15 0 -15 -15 0 -15 0 0 -15 0 -15 -11 0 -10 0 -15
-14 -14 -15 0 -10 0 -11 -15 0 -15 0 0 15 0 15 11 0 10 0 15 14 14 15 0 10 0
11 15 0 15 0 0 15 0 15 -15 0 -15 0 0 10 0 10 15 0 15 0 0 15 0 15 15 0 15 0
0 -15z m50 0 l0 -15 15 0 15 0 0 -10 0 -10 -15 0 -15 0 0 -15 0 -15 -15 0 -15
0 0 14 0 14 -12 6 -13 6 13 6 12 6 0 14 0 14 15 0 15 0 0 -15z m-80 -130 l0
-15 15 0 15 0 0 -15 0 -15 -15 0 -15 0 0 15 0 15 -15 0 -15 0 0 15 0 15 15 0
15 0 0 -15z m80 -30 l0 -15 15 0 15 0 0 -10 0 -10 -15 0 -15 0 0 -15 0 -15
-15 0 -15 0 0 -15 0 -15 -10 0 -10 0 0 15 0 15 -15 0 -15 0 0 15 0 15 11 0 10
0 15 14 14 15 0 10 0 11 15 0 15 0 0 -15z m-160 -50 l0 -15 -15 0 -15 0 0 -15
0 -15 -10 0 -10 0 0 15 0 15 10 0 10 0 0 15 0 15 15 0 15 0 0 -15z"/>
<path d="M1090 440 l0 -10 15 0 15 0 0 10 0 10 -15 0 -15 0 0 -10z"/>
<path d="M1083 275 l-13 -14 0 -11 0 -10 10 0 10 0 0 15 0 15 15 0 15 0 0 10
0 10 -12 0 -13 -1 -12 -14z"/>
<path d="M190 600 l0 -10 10 0 10 0 0 10 0 10 -10 0 -10 0 0 -10z"/>
<path d="M1070 520 l0 -10 10 0 10 0 0 10 0 10 -10 0 -10 0 0 -10z"/>
<path d="M190 440 l0 -10 10 0 10 0 0 10 0 10 -10 0 -10 0 0 -10z"/>
<path d="M1070 360 l0 -10 10 0 10 0 0 10 0 10 -10 0 -10 0 0 -10z"/>
<path d="M190 280 l0 -10 -15 0 -15 0 0 -15 0 -15 -15 0 -15 0 0 -14 0 -14
-12 -5 -13 -4 9 -9 9 -9 4 13 5 12 14 0 14 0 0 15 0 15 15 0 15 0 0 15 0 15
10 0 10 0 0 10 0 10 -10 0 -10 0 0 -10z"/>
<path d="M990 280 l0 -10 10 0 10 0 0 10 0 10 -10 0 -10 0 0 -10z"/>
<path d="M530 255 l0 -15 15 0 15 0 0 -15 0 -15 14 0 14 0 6 -12 6 -13 6 13 6
12 14 0 14 0 0 15 0 15 -15 0 -15 0 0 -15 0 -15 -10 0 -10 0 0 15 0 15 -15 0
-15 0 0 15 0 15 -15 0 -15 0 0 -15z"/>
<path d="M720 225 l0 -15 14 0 14 0 6 -12 6 -13 6 13 6 12 14 0 14 0 0 15 0
15 -15 0 -15 0 0 -15 0 -15 -10 0 -10 0 0 15 0 15 -15 0 -15 0 0 -15z"/>
<path d="M530 840 l0 -10 15 0 15 0 0 10 0 10 -15 0 -15 0 0 -10z"/>
<path d="M590 840 l0 -10 10 0 10 0 0 -15 0 -15 15 0 15 0 0 -15 0 -15 15 0
15 0 0 15 0 15 -15 0 -15 0 0 15 0 15 -15 0 -15 0 0 10 0 10 -10 0 -10 0 0
-10z"/>
<path d="M750 840 l0 -10 10 0 10 0 0 10 0 10 -10 0 -10 0 0 -10z"/>
<path d="M800 840 l0 -10 15 0 15 0 0 10 0 10 -15 0 -15 0 0 -10z"/>
<path d="M640 735 l0 -15 15 0 15 0 0 15 0 15 -15 0 -15 0 0 -15z"/>
</g>
</svg>
