<?xml version="1.0" standalone="no"?>
<!DOCTYPE svg PUBLIC "-//W3C//DTD SVG 20010904//EN"
 "http://www.w3.org/TR/2001/REC-SVG-20010904/DTD/svg10.dtd">
<svg version="1.0" xmlns="http://www.w3.org/2000/svg"
 width="468pt" height="468pt" viewBox="0 0 468 468"
 preserveAspectRatio="xMidYMid meet">
<metadata>
Created by potrace 1.8, written by Peter Selinger 2001-2007
</metadata>
<g transform="translate(0,468) scale(0.365625,-0.365625)"
fill="#000000" stroke="none">
<path d="M240 1175 l0 -105 51 0 50 0 15 14 14 15 0 35 0 36 -10 0 -10 0 0 15
0 15 10 0 10 0 0 25 0 25 -10 0 -10 0 0 15 0 15 -55 0 -55 0 0 -105z m110 50
l0 -25 -40 0 -40 0 0 25 0 25 40 0 40 0 0 -25z m0 -95 l0 -40 -40 0 -40 0 0
40 0 40 40 0 40 0 0 -40z"/>
<path d="M530 1175 l0 -105 15 0 15 0 0 105 0 105 -15 0 -15 0 0 -105z"/>
<path d="M430 1215 l0 -15 -15 0 -15 0 0 -55 0 -55 15 0 15 0 0 -10 0 -10 25
0 25 0 0 10 0 10 15 0 15 0 0 15 0 15 -15 0 -15 0 0 -15 0 -15 -25 0 -25 0 0
30 0 30 40 0 40 0 0 25 0 25 -15 0 -15 0 0 15 0 15 -25 0 -25 0 0 -15z m50
-30 l0 -15 -25 0 -25 0 0 15 0 15 25 0 25 0 0 -15z"/>
<path d="M590 1215 l0 -15 40 0 40 0 0 -15 0 -15 -26 0 -25 0 -15 -14 -14 -15
0 -21 0 -21 14 -15 15 -14 24 0 25 0 6 13 6 12 6 -12 6 -13 29 0 29 0 0 50 0
50 10 0 10 0 0 15 0 15 -10 0 -10 0 0 15 0 15 -15 0 -15 0 0 -70 0 -70 -15 0
-15 0 0 55 0 55 -10 0 -10 0 0 15 0 15 -40 0 -40 0 0 -15z m80 -95 l0 -30 -30
0 -30 0 0 30 0 30 30 0 30 0 0 -30z"/>
<path d="M770 1215 l0 -15 15 0 15 0 0 15 0 15 -15 0 -15 0 0 -15z"/>
<path d="M830 1164 l0 -65 14 -15 15 -14 35 0 36 0 0 80 0 80 -10 0 -10 0 0
-70 0 -70 -30 0 -30 0 0 70 0 70 -10 0 -10 0 0 -66z"/>
<path d="M990 1215 l0 -15 -15 0 -15 0 0 -15 0 -15 15 0 15 0 0 -10 0 -10 25
0 25 0 0 -30 0 -30 -25 0 -25 0 0 15 0 15 -15 0 -15 0 0 -15 0 -15 15 0 15 0
0 -10 0 -10 25 0 25 0 0 10 0 10 15 0 15 0 0 30 0 30 -15 0 -15 0 0 10 0 10
15 0 15 0 0 15 0 15 -15 0 -15 0 0 15 0 15 -25 0 -25 0 0 -15z m50 -30 l0 -15
-25 0 -25 0 0 15 0 15 25 0 25 0 0 -15z"/>
<path d="M0 535 l0 -425 640 0 640 0 0 425 0 425 -640 0 -640 0 0 -425z m1250
250 l0 -145 -10 0 -10 0 0 -14 0 -14 13 -6 12 -6 -12 -6 -13 -6 0 -14 0 -14
10 0 10 0 0 -14 0 -14 -13 -6 -12 -6 13 -6 12 -6 0 -14 0 -14 -10 0 -10 0 0
-14 0 -14 13 -6 12 -6 -12 -6 -13 -6 0 -14 0 -14 10 0 10 0 0 -135 0 -135
-610 0 -610 0 0 149 0 149 12 6 13 6 -12 6 -13 6 0 14 0 14 10 0 10 0 0 14 0
14 -12 6 -13 6 13 6 12 6 0 14 0 14 -10 0 -10 0 0 14 0 14 12 6 13 6 -12 6
-13 6 0 14 0 14 10 0 10 0 0 15 0 15 -10 0 -10 0 0 130 0 130 610 0 610 0 0
-145z"/>
<path d="M80 655 l0 -15 -15 0 -15 0 0 -15 0 -15 15 0 15 0 0 -10 0 -10 -15 0
-15 0 0 -15 0 -15 15 0 15 0 0 -15 0 -15 -15 0 -15 0 0 -10 0 -10 15 0 15 0 0
-15 0 -15 -15 0 -15 0 0 -15 0 -15 15 0 15 0 0 -10 0 -10 -15 0 -15 0 0 -15 0
-15 15 0 15 0 0 15 0 15 15 0 15 0 0 -15 0 -15 10 0 10 0 0 15 0 15 15 0 15 0
0 -15 0 -15 15 0 15 0 0 15 0 15 -15 0 -15 0 0 10 0 10 15 0 15 0 0 15 0 15
10 0 10 0 0 -15 0 -15 15 0 15 0 0 -10 0 -10 -15 0 -15 0 0 -15 0 -15 15 0 15
0 0 15 0 15 15 0 15 0 0 -15 0 -15 10 0 10 0 0 15 0 15 15 0 15 0 0 -15 0 -15
15 0 15 0 0 15 0 15 -15 0 -15 0 0 10 0 10 15 0 15 0 0 15 0 15 10 0 10 0 0
-15 0 -15 15 0 15 0 0 -10 0 -10 -15 0 -15 0 0 -15 0 -15 15 0 15 0 0 15 0 15
15 0 15 0 0 -15 0 -15 10 0 10 0 0 15 0 15 15 0 15 0 0 -15 0 -15 15 0 15 0 0
15 0 15 -15 0 -15 0 0 10 0 10 15 0 15 0 0 15 0 15 10 0 10 0 0 -15 0 -15 15
0 15 0 0 -10 0 -10 -15 0 -15 0 0 -15 0 -15 15 0 15 0 0 15 0 15 15 0 15 0 0
-15 0 -15 10 0 10 0 0 15 0 15 15 0 15 0 0 -15 0 -15 15 0 15 0 0 15 0 15 -15
0 -15 0 0 10 0 10 15 0 15 0 0 15 0 15 10 0 10 0 0 -15 0 -15 15 0 15 0 0 -10
0 -10 -15 0 -15 0 0 -15 0 -15 15 0 15 0 0 15 0 15 15 0 15 0 0 -15 0 -15 10
0 10 0 0 15 0 15 15 0 15 0 0 -15 0 -15 15 0 15 0 0 15 0 15 -15 0 -15 0 0 10
0 10 15 0 15 0 0 15 0 15 10 0 10 0 0 -15 0 -15 15 0 15 0 0 -10 0 -10 -15 0
-15 0 0 -15 0 -15 15 0 15 0 0 15 0 15 15 0 15 0 0 -15 0 -15 10 0 10 0 0 15
0 15 15 0 15 0 0 -15 0 -15 15 0 15 0 0 15 0 15 -15 0 -15 0 0 10 0 10 15 0
15 0 0 15 0 15 10 0 10 0 0 -15 0 -15 15 0 15 0 0 -10 0 -10 -15 0 -15 0 0
-15 0 -15 15 0 15 0 0 15 0 15 15 0 15 0 0 -15 0 -15 10 0 10 0 0 15 0 15 15
0 15 0 0 -15 0 -15 15 0 15 0 0 15 0 15 -15 0 -15 0 0 10 0 10 15 0 15 0 0 15
0 15 10 0 10 0 0 -15 0 -15 15 0 15 0 0 -10 0 -10 -15 0 -15 0 0 -15 0 -15 15
0 15 0 0 15 0 15 15 0 15 0 0 10 0 10 -15 0 -15 0 0 15 0 15 15 0 15 0 0 15 0
15 -15 0 -15 0 0 10 0 10 15 0 15 0 0 15 0 15 -15 0 -15 0 0 15 0 15 15 0 15
0 0 10 0 10 -15 0 -15 0 0 15 0 15 15 0 15 0 0 15 0 15 -15 0 -15 0 0 -15 0
-15 -15 0 -15 0 0 15 0 15 -10 0 -10 0 0 -15 0 -15 -15 0 -15 0 0 15 0 15 -15
0 -15 0 0 -15 0 -15 -10 0 -10 0 0 15 0 15 -15 0 -15 0 0 -15 0 -15 -15 0 -15
0 0 15 0 15 -10 0 -10 0 0 -15 0 -15 -15 0 -15 0 0 15 0 15 -15 0 -15 0 0 -15
0 -15 -10 0 -10 0 0 15 0 15 -15 0 -15 0 0 -15 0 -15 -15 0 -15 0 0 15 0 15
-10 0 -10 0 0 -15 0 -15 -15 0 -15 0 0 15 0 15 -15 0 -15 0 0 -15 0 -15 -10 0
-10 0 0 15 0 15 -15 0 -15 0 0 -15 0 -15 -15 0 -15 0 0 15 0 15 -10 0 -10 0 0
-15 0 -15 -15 0 -15 0 0 15 0 15 -15 0 -15 0 0 -15 0 -15 -10 0 -10 0 0 15 0
15 -15 0 -15 0 0 -15 0 -15 -15 0 -15 0 0 15 0 15 -10 0 -10 0 0 -15 0 -15
-15 0 -15 0 0 15 0 15 -15 0 -15 0 0 -15 0 -15 -10 0 -10 0 0 15 0 15 -15 0
-15 0 0 -15 0 -15 -15 0 -15 0 0 15 0 15 -10 0 -10 0 0 -15 0 -15 -15 0 -15 0
0 15 0 15 -15 0 -15 0 0 -15 0 -15 -10 0 -10 0 0 15 0 15 -15 0 -15 0 0 -15 0
-15 -15 0 -15 0 0 15 0 15 -10 0 -10 0 0 -15 0 -15 -15 0 -15 0 0 15 0 15 -15
0 -15 0 0 -15 0 -15 -10 0 -10 0 0 15 0 15 -15 0 -15 0 0 -15z m30 -30 l0 -15
-15 0 -15 0 0 15 0 15 15 0 15 0 0 -15z m50 0 l0 -15 15 0 15 0 0 15 0 15 10
0 10 0 0 -15 0 -15 15 0 15 0 0 15 0 15 15 0 15 0 0 -15 0 -15 -15 0 -15 0 0
-10 0 -10 15 0 15 0 0 -15 0 -15 10 0 10 0 0 15 0 15 15 0 15 0 0 10 0 10 -15
0 -15 0 0 15 0 15 15 0 15 0 0 -15 0 -15 15 0 15 0 0 15 0 15 10 0 10 0 0 -15
0 -15 15 0 15 0 0 15 0 15 15 0 15 0 0 -15 0 -15 -15 0 -15 0 0 -10 0 -10 15
0 15 0 0 -15 0 -15 10 0 10 0 0 15 0 15 15 0 15 0 0 10 0 10 -15 0 -15 0 0 15
0 15 15 0 15 0 0 -15 0 -15 15 0 15 0 0 15 0 15 10 0 10 0 0 -15 0 -15 15 0
15 0 0 15 0 15 15 0 15 0 0 -15 0 -15 -15 0 -15 0 0 -10 0 -10 15 0 15 0 0
-15 0 -15 10 0 10 0 0 15 0 15 15 0 15 0 0 10 0 10 -15 0 -15 0 0 15 0 15 15
0 15 0 0 -15 0 -15 15 0 15 0 0 15 0 15 10 0 10 0 0 -15 0 -15 15 0 15 0 0 15
0 15 15 0 15 0 0 -15 0 -15 -15 0 -15 0 0 -10 0 -10 15 0 15 0 0 -15 0 -15 10
0 10 0 0 15 0 15 15 0 15 0 0 10 0 10 -15 0 -15 0 0 15 0 15 15 0 15 0 0 -15
0 -15 15 0 15 0 0 15 0 15 10 0 10 0 0 -15 0 -15 15 0 15 0 0 15 0 15 15 0 15
0 0 -15 0 -15 -15 0 -15 0 0 -10 0 -10 15 0 15 0 0 -15 0 -15 10 0 10 0 0 15
0 15 15 0 15 0 0 10 0 10 -15 0 -15 0 0 15 0 15 15 0 15 0 0 -15 0 -15 15 0
15 0 0 15 0 15 10 0 10 0 0 -15 0 -15 15 0 15 0 0 15 0 15 15 0 15 0 0 -15 0
-15 -15 0 -15 0 0 -10 0 -10 15 0 15 0 0 -15 0 -15 10 0 10 0 0 15 0 15 15 0
15 0 0 10 0 10 -15 0 -15 0 0 15 0 15 15 0 15 0 0 -15 0 -15 15 0 15 0 0 15 0
15 10 0 10 0 0 -15 0 -15 15 0 15 0 0 -10 0 -10 -15 0 -15 0 0 -15 0 -15 15 0
15 0 0 -15 0 -15 -15 0 -15 0 0 15 0 15 -10 0 -10 0 0 -15 0 -15 -15 0 -15 0
0 -10 0 -10 15 0 15 0 0 -15 0 -15 -15 0 -15 0 0 -15 0 -15 -14 0 -14 0 -6
-12 -6 -13 -6 13 -6 12 -14 0 -14 0 0 15 0 15 -15 0 -15 0 0 15 0 15 15 0 15
0 0 10 0 10 -15 0 -15 0 0 15 0 15 -10 0 -10 0 0 -15 0 -15 -15 0 -15 0 0 -10
0 -10 15 0 15 0 0 -15 0 -15 -15 0 -15 0 0 -15 0 -15 -14 0 -14 0 -6 -12 -6
-13 -6 13 -6 12 -14 0 -14 0 0 15 0 15 -15 0 -15 0 0 15 0 15 15 0 15 0 0 10
0 10 -15 0 -15 0 0 15 0 15 -10 0 -10 0 0 -15 0 -15 -15 0 -15 0 0 -10 0 -10
15 0 15 0 0 -15 0 -15 -15 0 -15 0 0 -15 0 -15 -14 0 -14 0 -6 -12 -6 -13 -6
13 -6 12 -14 0 -14 0 0 15 0 15 -15 0 -15 0 0 15 0 15 15 0 15 0 0 10 0 10
-15 0 -15 0 0 15 0 15 -10 0 -10 0 0 -15 0 -15 -15 0 -15 0 0 -10 0 -10 15 0
15 0 0 -15 0 -15 -15 0 -15 0 0 -15 0 -15 -14 0 -14 0 -6 -12 -6 -13 -6 13 -6
12 -14 0 -14 0 0 15 0 15 -15 0 -15 0 0 15 0 15 15 0 15 0 0 10 0 10 -15 0
-15 0 0 15 0 15 -10 0 -10 0 0 -15 0 -15 -15 0 -15 0 0 -10 0 -10 15 0 15 0 0
-15 0 -15 -15 0 -15 0 0 -15 0 -15 -14 0 -14 0 -6 -12 -6 -13 -6 13 -6 12 -14
0 -14 0 0 15 0 15 -15 0 -15 0 0 15 0 15 15 0 15 0 0 10 0 10 -15 0 -15 0 0
15 0 15 -10 0 -10 0 0 -15 0 -15 -15 0 -15 0 0 -10 0 -10 15 0 15 0 0 -15 0
-15 -15 0 -15 0 0 -15 0 -15 -14 0 -14 0 -6 -12 -6 -13 -6 13 -6 12 -14 0 -14
0 0 15 0 15 -15 0 -15 0 0 15 0 15 15 0 15 0 0 10 0 10 -15 0 -15 0 0 15 0 15
-10 0 -10 0 0 -15 0 -15 -15 0 -15 0 0 -10 0 -10 15 0 15 0 0 -15 0 -15 -15 0
-15 0 0 -15 0 -15 -14 0 -14 0 -6 -12 -6 -13 -6 13 -6 12 -14 0 -14 0 0 15 0
15 15 0 15 0 0 15 0 15 -15 0 -15 0 0 10 0 10 15 0 15 0 0 15 0 15 -15 0 -15
0 0 15 0 15 11 0 10 0 15 14 14 15 0 10 0 11 15 0 15 0 0 -15z m130 -25 l0
-10 -10 0 -10 0 0 10 0 10 10 0 10 0 0 -10z m160 0 l0 -10 -10 0 -10 0 0 10 0
10 10 0 10 0 0 -10z m160 0 l0 -10 -10 0 -10 0 0 10 0 10 10 0 10 0 0 -10z
m160 0 l0 -10 -10 0 -10 0 0 10 0 10 10 0 10 0 0 -10z m160 0 l0 -10 -10 0
-10 0 0 10 0 10 10 0 10 0 0 -10z m160 0 l0 -10 -10 0 -10 0 0 10 0 10 10 0
10 0 0 -10z m-880 -80 l0 -10 -10 0 -10 0 0 10 0 10 10 0 10 0 0 -10z m160 0
l0 -10 -10 0 -10 0 0 10 0 10 10 0 10 0 0 -10z m160 0 l0 -10 -10 0 -10 0 0
10 0 10 10 0 10 0 0 -10z m160 0 l0 -10 -10 0 -10 0 0 10 0 10 10 0 10 0 0
-10z m160 0 l0 -10 -10 0 -10 0 0 10 0 10 10 0 10 0 0 -10z m160 0 l0 -10 -10
0 -10 0 0 10 0 10 10 0 10 0 0 -10z m160 0 l0 -10 15 0 15 0 0 -15 0 -15 -15
0 -15 0 0 15 0 15 -10 0 -10 0 0 10 0 10 10 0 10 0 0 -10z"/>
<path d="M123 595 l-13 -14 0 -11 0 -10 10 0 10 0 0 -14 0 -14 -12 -6 -13 -6
13 -6 12 -6 0 -14 0 -14 -10 0 -10 0 0 -15 0 -15 10 0 10 0 0 15 0 15 15 0 15
0 0 15 0 15 -15 0 -15 0 0 10 0 10 15 0 15 0 0 15 0 15 15 0 15 0 0 15 0 15
10 0 10 0 0 -15 0 -15 15 0 15 0 0 -15 0 -15 15 0 15 0 0 15 0 15 -15 0 -15 0
0 15 0 15 -14 0 -14 0 -6 13 -6 12 -6 -12 -6 -13 -14 0 -14 0 0 10 0 10 -12 0
-13 -1 -12 -14z m37 -20 l0 -15 -15 0 -15 0 0 15 0 15 15 0 15 0 0 -15z"/>
<path d="M350 600 l0 -10 -15 0 -15 0 0 -15 0 -15 -15 0 -15 0 0 -11 0 -10
-14 -15 -15 -14 -10 0 -11 0 0 -15 0 -15 15 0 15 0 0 -15 0 -15 10 0 10 0 0
15 0 15 15 0 15 0 0 15 0 15 -15 0 -15 0 0 -15 0 -15 -10 0 -10 0 0 11 0 10
14 15 15 14 10 0 11 0 0 15 0 15 15 0 15 0 0 15 0 15 10 0 10 0 0 -15 0 -15
15 0 15 0 0 -15 0 -15 15 0 15 0 0 15 0 15 -15 0 -15 0 0 15 0 15 -15 0 -15 0
0 10 0 10 -10 0 -10 0 0 -10z"/>
<path d="M510 600 l0 -10 -15 0 -15 0 0 -15 0 -15 -15 0 -15 0 0 -11 0 -10
-14 -15 -15 -14 -10 0 -11 0 0 -15 0 -15 15 0 15 0 0 -15 0 -15 10 0 10 0 0
15 0 15 15 0 15 0 0 15 0 15 -15 0 -15 0 0 -15 0 -15 -10 0 -10 0 0 11 0 10
14 15 15 14 10 0 11 0 0 15 0 15 15 0 15 0 0 15 0 15 10 0 10 0 0 -15 0 -15
15 0 15 0 0 -15 0 -15 15 0 15 0 0 15 0 15 -15 0 -15 0 0 15 0 15 -15 0 -15 0
0 10 0 10 -10 0 -10 0 0 -10z"/>
<path d="M670 600 l0 -10 -15 0 -15 0 0 -15 0 -15 -15 0 -15 0 0 -11 0 -10
-14 -15 -15 -14 -10 0 -11 0 0 -15 0 -15 15 0 15 0 0 -15 0 -15 10 0 10 0 0
15 0 15 15 0 15 0 0 15 0 15 -15 0 -15 0 0 -15 0 -15 -10 0 -10 0 0 11 0 10
14 15 15 14 10 0 11 0 0 15 0 15 15 0 15 0 0 15 0 15 10 0 10 0 0 -15 0 -15
15 0 15 0 0 -15 0 -15 15 0 15 0 0 15 0 15 -15 0 -15 0 0 15 0 15 -15 0 -15 0
0 10 0 10 -10 0 -10 0 0 -10z"/>
<path d="M830 600 l0 -10 -15 0 -15 0 0 -15 0 -15 -15 0 -15 0 0 -11 0 -10
-14 -15 -15 -14 -10 0 -11 0 0 -15 0 -15 15 0 15 0 0 -15 0 -15 10 0 10 0 0
15 0 15 15 0 15 0 0 15 0 15 -15 0 -15 0 0 -15 0 -15 -10 0 -10 0 0 11 0 10
14 15 15 14 10 0 11 0 0 15 0 15 15 0 15 0 0 15 0 15 10 0 10 0 0 -15 0 -15
15 0 15 0 0 -15 0 -15 15 0 15 0 0 15 0 15 -15 0 -15 0 0 15 0 15 -15 0 -15 0
0 10 0 10 -10 0 -10 0 0 -10z"/>
<path d="M990 600 l0 -10 -15 0 -15 0 0 -15 0 -15 -15 0 -15 0 0 -11 0 -10
-14 -15 -15 -14 -10 0 -11 0 0 -15 0 -15 15 0 15 0 0 -15 0 -15 10 0 10 0 0
15 0 15 15 0 15 0 0 15 0 15 -15 0 -15 0 0 -15 0 -15 -10 0 -10 0 0 11 0 10
14 15 15 14 10 0 11 0 0 15 0 15 15 0 15 0 0 15 0 15 10 0 10 0 0 -15 0 -15
15 0 15 0 0 -15 0 -15 15 0 15 0 0 15 0 15 -15 0 -15 0 0 15 0 15 -15 0 -15 0
0 10 0 10 -10 0 -10 0 0 -10z"/>
<path d="M1150 600 l0 -10 -15 0 -15 0 0 -15 0 -15 -15 0 -15 0 0 -11 0 -10
-14 -15 -15 -14 -10 0 -11 0 0 -15 0 -15 15 0 15 0 0 -15 0 -15 10 0 10 0 0
15 0 15 15 0 15 0 0 15 0 15 -15 0 -15 0 0 -15 0 -15 -10 0 -10 0 0 11 0 10
14 15 15 14 10 0 11 0 0 15 0 15 15 0 15 0 0 15 0 15 10 0 10 0 0 10 0 10 -10
0 -10 0 0 -10z"/>
<path d="M190 440 l0 -10 10 0 10 0 0 10 0 10 -10 0 -10 0 0 -10z"/>
<path d="M350 440 l0 -10 10 0 10 0 0 10 0 10 -10 0 -10 0 0 -10z"/>
<path d="M510 440 l0 -10 10 0 10 0 0 10 0 10 -10 0 -10 0 0 -10z"/>
<path d="M670 440 l0 -10 10 0 10 0 0 10 0 10 -10 0 -10 0 0 -10z"/>
<path d="M830 440 l0 -10 10 0 10 0 0 10 0 10 -10 0 -10 0 0 -10z"/>
<path d="M990 440 l0 -10 10 0 10 0 0 10 0 10 -10 0 -10 0 0 -10z"/>
<path d="M1150 440 l0 -10 10 0 10 0 0 10 0 10 -10 0 -10 0 0 -10z"/>
</g>
</svg>
