<?xml version="1.0" standalone="no"?>
<!DOCTYPE svg PUBLIC "-//W3C//DTD SVG 20010904//EN"
 "http://www.w3.org/TR/2001/REC-SVG-20010904/DTD/svg10.dtd">
<svg version="1.0" xmlns="http://www.w3.org/2000/svg"
 width="468pt" height="468pt" viewBox="0 0 468 468"
 preserveAspectRatio="xMidYMid meet">
<metadata>
Created by potrace 1.8, written by Peter Selinger 2001-2007
</metadata>
<g transform="translate(0,468) scale(0.365625,-0.365625)"
fill="#000000" stroke="none">
<path d="M90 1260 l0 -20 -25 0 -25 0 0 -25 0 -25 -20 0 -20 0 0 -550 0 -550
20 0 20 0 0 -25 0 -25 25 0 25 0 0 -20 0 -20 550 0 550 0 0 20 0 20 25 0 25 0
0 25 0 25 20 0 20 0 0 550 0 550 -20 0 -20 0 0 25 0 25 -25 0 -25 0 0 20 0 20
-550 0 -550 0 0 -20z m1060 -90 l0 -20 20 0 20 0 0 -510 0 -510 -20 0 -20 0 0
-20 0 -20 -510 0 -510 0 0 20 0 20 -20 0 -20 0 0 510 0 510 20 0 20 0 0 20 0
20 510 0 510 0 0 -20z"/>
<path d="M170 940 l0 -170 105 0 105 0 0 40 0 40 -60 0 -60 0 0 25 0 25 40 0
40 0 0 40 0 40 -40 0 -40 0 0 20 0 20 60 0 60 0 0 45 0 45 -105 0 -105 0 0
-170z"/>
<path d="M430 1065 l0 -45 20 0 20 0 0 -20 0 -20 20 0 20 0 0 -40 0 -40 -20 0
-20 0 0 -25 0 -25 -20 0 -20 0 0 -40 0 -40 40 0 40 0 0 40 0 40 45 0 45 0 0
-40 0 -40 40 0 40 0 0 40 0 40 -20 0 -20 0 0 25 0 25 -20 0 -20 0 0 40 0 40
20 0 20 0 0 20 0 20 20 0 20 0 0 45 0 45 -40 0 -40 0 0 -45 0 -45 -45 0 -45 0
0 45 0 45 -40 0 -40 0 0 -45z"/>
<path d="M730 940 l0 -170 40 0 40 0 0 170 0 170 -40 0 -40 0 0 -170z"/>
<path d="M850 1065 l0 -45 45 0 45 0 0 -125 0 -125 40 0 40 0 0 125 0 125 45
0 45 0 0 45 0 45 -130 0 -130 0 0 -45z"/>
<path d="M600 660 l0 -20 20 0 20 0 0 -20 0 -20 20 0 20 0 0 -25 0 -25 -20 0
-20 0 0 -20 0 -20 -20 0 -20 0 0 -20 0 -20 -25 0 -25 0 0 -20 0 -20 -20 0 -20
0 0 -25 0 -25 -20 0 -20 0 0 -20 0 -20 -20 0 -20 0 0 -20 0 -20 -25 0 -25 0 0
-45 0 -45 25 0 25 0 0 -20 0 -20 40 0 40 0 0 20 0 20 20 0 20 0 0 25 0 25 25
0 25 0 0 20 0 20 20 0 20 0 0 20 0 20 20 0 20 0 0 20 0 20 25 0 25 0 0 25 0
25 20 0 20 0 0 20 0 20 20 0 20 0 0 -20 0 -20 20 0 20 0 0 -25 0 -25 25 0 25
0 0 150 0 150 -150 0 -150 0 0 -20z"/>
</g>
</svg>
