<?xml version="1.0" standalone="no"?>
<!DOCTYPE svg PUBLIC "-//W3C//DTD SVG 20010904//EN"
 "http://www.w3.org/TR/2001/REC-SVG-20010904/DTD/svg10.dtd">
<svg version="1.0" xmlns="http://www.w3.org/2000/svg"
 width="468pt" height="468pt" viewBox="0 0 468 468"
 preserveAspectRatio="xMidYMid meet">
<metadata>
Created by potrace 1.8, written by Peter Selinger 2001-2007
</metadata>
<g transform="translate(0,468) scale(0.365625,-0.365625)"
fill="#000000" stroke="none">
<path d="M30 1265 l0 -15 -15 0 -15 0 0 -15 0 -15 85 0 85 0 0 -15 0 -15 -10
0 -10 0 0 -30 0 -30 -15 0 -15 0 0 -25 0 -25 -15 0 -15 0 0 -30 0 -30 -15 0
-15 0 0 -30 0 -30 -15 0 -15 0 0 -30 0 -30 -15 0 -15 0 0 -450 0 -450 640 0
640 0 0 450 0 450 -15 0 -15 0 0 30 0 30 -15 0 -15 0 0 30 0 30 -15 0 -15 0 0
30 0 30 -15 0 -15 0 0 25 0 25 -15 0 -15 0 0 30 0 30 -25 0 -25 0 0 -30 0 -30
-15 0 -15 0 0 -25 0 -25 -15 0 -15 0 0 -30 0 -30 -30 0 -30 0 0 30 0 30 -15 0
-15 0 0 25 0 25 -15 0 -15 0 0 30 0 30 -30 0 -30 0 0 -30 0 -30 -15 0 -15 0 0
-25 0 -25 -10 0 -10 0 0 -30 0 -30 -15 0 -15 0 0 -30 0 -30 -15 0 -15 0 0 -30
0 -30 -30 0 -30 0 0 30 0 30 15 0 15 0 0 30 0 30 15 0 15 0 0 30 0 30 15 0 15
0 0 25 0 25 15 0 15 0 0 30 0 30 -30 0 -30 0 0 -30 0 -30 -15 0 -15 0 0 -25 0
-25 -15 0 -15 0 0 -30 0 -30 -30 0 -30 0 0 30 0 30 -15 0 -15 0 0 25 0 25 -15
0 -15 0 0 30 0 30 -30 0 -30 0 0 -30 0 -30 -10 0 -10 0 0 -25 0 -25 -15 0 -15
0 0 -30 0 -30 -30 0 -30 0 0 30 0 30 -15 0 -15 0 0 25 0 25 -15 0 -15 0 0 30
0 30 -30 0 -30 0 0 -30 0 -30 15 0 15 0 0 -25 0 -25 15 0 15 0 0 -30 0 -30 15
0 15 0 0 -30 0 -30 15 0 15 0 0 -30 0 -30 -145 0 -145 0 0 30 0 30 15 0 15 0
0 30 0 30 15 0 15 0 0 30 0 30 10 0 10 0 0 25 0 25 15 0 15 0 0 30 0 30 15 0
15 0 0 15 0 15 525 0 525 0 0 15 0 15 -15 0 -15 0 0 15 0 15 -610 0 -610 0 0
-15z m520 -215 l0 -30 15 0 15 0 0 -30 0 -30 15 0 15 0 0 -30 0 -30 -85 0 -85
0 0 30 0 30 15 0 15 0 0 30 0 30 10 0 10 0 0 30 0 30 30 0 30 0 0 -30z m350 0
l0 -30 15 0 15 0 0 -30 0 -30 15 0 15 0 0 -30 0 -30 -85 0 -85 0 0 30 0 30 10
0 10 0 0 30 0 30 15 0 15 0 0 30 0 30 30 0 30 0 0 -30z m230 0 l0 -30 15 0 15
0 0 -30 0 -30 15 0 15 0 0 -30 0 -30 -85 0 -85 0 0 30 0 30 15 0 15 0 0 30 0
30 15 0 15 0 0 30 0 30 25 0 25 0 0 -30z"/>
</g>
</svg>
