<?xml version="1.0" standalone="no"?>
<!DOCTYPE svg PUBLIC "-//W3C//DTD SVG 20010904//EN"
 "http://www.w3.org/TR/2001/REC-SVG-20010904/DTD/svg10.dtd">
<svg version="1.0" xmlns="http://www.w3.org/2000/svg"
 width="468pt" height="468pt" viewBox="0 0 468 468"
 preserveAspectRatio="xMidYMid meet">
<metadata>
Created by potrace 1.8, written by Peter Selinger 2001-2007
</metadata>
<g transform="translate(0,468) scale(0.365625,-0.365625)"
fill="#000000" stroke="none">
<path d="M333 1265 l-13 -14 0 -16 0 -15 -10 0 -10 0 0 -20 0 -20 -10 0 -10 0
0 19 0 19 12 4 13 5 -18 17 -18 18 -7 -7 -7 -8 13 -4 12 -5 0 -9 0 -9 -19 0
-19 0 -5 13 -4 12 -23 -25 -23 -25 -4 13 -5 12 -9 0 -9 0 0 -20 0 -20 19 0 19
0 5 13 5 12 11 -15 10 -14 8 7 7 8 -14 9 -14 9 6 7 7 6 18 -18 18 -17 -13 -5
-12 -4 0 -19 0 -19 10 0 10 0 0 20 0 20 9 0 9 0 6 -12 6 -13 6 13 6 12 19 0
19 0 0 9 0 9 -12 6 -13 6 13 6 12 6 0 19 0 19 10 0 10 0 0 10 0 10 -7 0 -8 -1
-12 -14z"/>
<path d="M380 1270 l0 -10 10 0 10 0 0 10 0 10 -10 0 -10 0 0 -10z"/>
<path d="M500 1270 l0 -10 -19 0 -19 0 -6 -12 -6 -13 -6 13 -6 12 -9 0 -9 0 0
-20 0 -20 -10 0 -10 0 0 10 0 10 -16 0 -15 0 -15 -15 -15 -15 16 -17 17 -16 9
14 9 14 11 -15 11 -15 5 13 5 12 18 0 18 0 5 13 4 12 8 -7 8 -8 -21 -19 -22
-18 0 -7 0 -6 19 0 19 0 5 13 4 12 33 -35 33 -35 4 13 5 12 18 0 18 0 5 -12 5
-13 11 15 10 14 8 -7 7 -8 -14 -10 -15 -9 14 -9 14 -9 -17 -17 -17 -17 -7 6
-6 7 13 9 14 8 -18 19 -18 18 -5 -13 -4 -12 -19 0 -19 0 0 -20 0 -20 -20 0
-20 0 0 -10 0 -10 20 0 20 0 0 -9 0 -9 -12 -5 -13 -5 15 -11 14 -10 -7 -7 -7
-7 -20 23 -20 23 -8 -8 -7 -8 13 -4 12 -5 0 -9 0 -9 -20 0 -20 0 0 20 0 20
-10 0 -10 0 0 -10 0 -10 -20 0 -20 0 0 -20 0 -20 -30 0 -30 0 0 -9 0 -9 13 -5
12 -4 -8 -9 -8 -8 -10 14 -9 15 -10 -15 -10 -15 -9 15 -10 14 -21 -24 -21 -24
-9 14 -9 14 -8 -8 -8 -9 13 -4 12 -5 0 -9 0 -9 -30 0 -30 0 0 -10 0 -10 10 0
10 0 0 -10 0 -10 -19 0 -19 0 -5 -12 -5 -13 -11 15 -10 14 -8 -7 -7 -8 14 -10
15 -11 -12 -5 -13 -5 0 -18 0 -18 13 -5 12 -4 -23 -20 -22 -20 0 -7 0 -6 19 0
19 0 4 12 5 13 17 -18 18 -18 -6 -7 -7 -6 -10 14 -11 15 -5 -12 -5 -13 -19 0
-19 0 0 10 0 10 -20 0 -20 0 0 -10 0 -10 16 0 17 0 19 -22 19 -22 9 14 9 14 8
-8 8 -9 -12 -4 -13 -5 0 -9 0 -9 19 0 19 0 6 13 6 12 6 -12 6 -13 9 0 9 0 0
20 0 20 30 0 30 0 0 10 0 10 16 0 15 0 16 16 16 16 -14 8 -13 9 8 8 9 8 4 -12
5 -13 29 0 29 0 0 20 0 20 10 0 10 0 0 -29 0 -29 -12 -5 -13 -5 15 -11 15 -11
-15 -9 -14 -10 22 -19 22 -19 0 -22 0 -22 25 -24 24 -25 11 0 11 0 16 -16 16
-16 -14 -8 -13 -9 8 -8 9 -8 4 13 5 12 28 0 28 0 5 -12 5 -13 11 15 11 15 10
-15 10 -15 9 15 10 14 8 -8 8 -9 -12 -4 -13 -5 0 -9 0 -9 30 0 30 0 0 -10 0
-10 -26 0 -27 0 -18 22 -19 21 -20 -23 -20 -23 -7 7 -7 7 14 9 14 9 -7 7 -7 7
-20 -24 -21 -23 -10 14 -9 15 -11 -15 -11 -15 -5 13 -5 12 -25 0 -24 0 -15
-14 -14 -15 0 -15 0 -16 -20 0 -20 0 0 6 0 6 33 31 32 30 -12 4 -13 5 0 19 0
19 -10 0 -10 0 0 -30 0 -30 -20 0 -20 0 0 9 0 9 12 4 12 4 -26 27 -27 27 -16
0 -15 0 0 10 0 10 -20 0 -20 0 0 -10 0 -10 20 0 20 0 0 -9 0 -9 -12 -4 -13 -5
18 -17 18 -18 7 7 7 8 -12 4 -13 5 0 9 0 9 16 0 15 0 16 -16 16 -16 -14 -10
-14 -10 13 -5 12 -5 0 -29 0 -29 -9 0 -9 0 -5 13 -4 12 -8 -7 -7 -7 17 -17 17
-17 8 13 8 13 16 -16 16 -16 0 -15 0 -16 19 0 19 0 5 -12 4 -13 22 24 21 24 7
-6 6 -7 -21 -19 -22 -18 0 -12 0 -12 26 -26 25 -25 7 6 6 7 -14 10 -15 9 15 9
14 10 -7 8 -8 7 -9 -14 -9 -14 -7 6 -6 7 16 16 16 16 17 -16 16 -17 -13 -8
-13 -8 17 -18 18 -17 9 14 9 14 10 -15 10 -15 9 15 10 14 7 -6 6 -7 -17 -17
-17 -17 -9 14 -9 14 -10 -15 -10 -15 -11 15 -11 15 -5 -12 -5 -13 -48 0 -48 0
-6 13 -6 12 -6 -12 -6 -13 -199 0 -199 0 0 -100 0 -100 640 0 640 0 0 100 0
100 -19 0 -19 0 -6 13 -6 12 -6 -12 -6 -13 -38 0 -38 0 -6 13 -6 12 -6 -12 -6
-13 -48 0 -48 0 -6 13 -6 12 -6 -12 -6 -13 -28 0 -28 0 -6 13 -6 12 -6 -12 -6
-13 -49 0 -49 0 0 20 0 20 10 0 10 0 0 -10 0 -10 10 0 10 0 0 20 0 20 16 0 17
0 19 22 19 22 9 -14 9 -14 8 7 7 8 -13 9 -14 8 16 16 16 16 15 0 16 0 0 9 0 9
-12 5 -13 4 8 9 8 8 9 -13 8 -14 28 28 28 29 -12 4 -12 4 0 9 0 9 20 0 20 0 0
30 0 30 19 0 19 0 5 13 4 12 22 -24 21 -24 7 7 7 7 -14 10 -15 9 14 9 14 9
-16 16 -16 16 -11 0 -11 0 -16 15 -15 16 7 7 8 7 4 -12 5 -13 19 0 19 0 0 -10
0 -10 16 0 15 0 15 -14 14 -15 0 -11 0 -11 15 -16 16 -15 7 7 7 8 -12 4 -13 5
0 15 0 15 -30 28 -30 28 0 16 0 16 10 0 10 0 0 -20 0 -20 15 0 16 0 24 25 25
24 0 6 0 5 -20 0 -20 0 0 -20 0 -20 -10 0 -10 0 0 16 0 15 14 15 15 14 15 0
16 0 0 169 0 169 -13 6 -12 6 12 6 13 6 0 38 0 38 -12 6 -13 6 13 6 12 6 0 49
0 49 -20 0 -20 0 0 -9 0 -9 13 -5 12 -4 -9 -9 -9 -9 -4 13 -5 12 -19 0 -19 0
0 10 0 10 10 0 10 0 0 20 0 20 -10 0 -10 0 0 -20 0 -20 -10 0 -10 0 0 10 0 10
-16 0 -15 0 -17 -17 -17 -16 13 -5 12 -4 0 -9 0 -9 -20 0 -20 0 0 26 0 27 22
18 21 19 -6 6 -6 6 -37 -37 -37 -37 14 -9 13 -8 -8 -8 -9 -8 -4 13 -5 12 -18
0 -18 0 -5 -12 -4 -13 -8 7 -8 8 21 19 22 18 0 17 0 16 -10 0 -10 0 0 -20 0
-20 -19 0 -19 0 -6 -12 -6 -13 -6 13 -6 12 -39 0 -39 0 0 20 0 20 -6 0 -6 0
-29 -31 -30 -32 -6 7 -6 6 21 19 22 18 0 7 0 6 -19 0 -19 0 -6 -12 -6 -13 -6
13 -6 12 -18 0 -18 0 -6 -12 -6 -13 -6 13 -6 12 -18 0 -18 0 -5 13 -4 12 -9
-8 -8 -8 14 -9 14 -9 -7 -7 -7 -7 -21 24 -22 24 -4 -12 -5 -13 -18 0 -18 0 -6
13 -6 12 -6 -12 -6 -13 -19 0 -19 0 0 10 0 10 -10 0 -10 0 0 -10z m20 -20 l0
-10 -10 0 -10 0 0 10 0 10 10 0 10 0 0 -10z m60 -20 l0 -10 -10 0 -10 0 0 10
0 10 10 0 10 0 0 -10z m60 0 l0 -10 -10 0 -10 0 0 10 0 10 10 0 10 0 0 -10z
m-100 -20 l0 -10 -10 0 -10 0 0 10 0 10 10 0 10 0 0 -10z m160 0 l0 -10 -10 0
-10 0 0 10 0 10 10 0 10 0 0 -10z m60 0 l0 -10 -10 0 -10 0 0 10 0 10 10 0 10
0 0 -10z m437 -16 l25 -25 -6 -7 -7 -6 -10 14 -9 15 -9 -15 -10 -14 -8 8 -8 9
13 4 12 5 0 9 0 9 -20 0 -20 0 0 10 0 10 15 0 16 0 26 -26z m-597 1 l0 -6 -25
-25 -25 -25 -16 16 -16 16 6 7 7 6 9 -14 9 -15 18 22 18 23 8 0 7 0 0 -5z
m280 -5 l0 -10 -10 0 -10 0 0 10 0 10 10 0 10 0 0 -10z m-220 -20 l0 -10 -10
0 -10 0 0 10 0 10 10 0 10 0 0 -10z m300 0 l0 -10 -10 0 -10 0 0 10 0 10 10 0
10 0 0 -10z m-260 -20 l0 -10 -10 0 -10 0 0 10 0 10 10 0 10 0 0 -10z m80 0
l0 -10 -10 0 -10 0 0 10 0 10 10 0 10 0 0 -10z m60 0 l0 -10 -10 0 -10 0 0 10
0 10 10 0 10 0 0 -10z m60 0 l0 -10 -10 0 -10 0 0 10 0 10 10 0 10 0 0 -10z
m120 0 l0 -10 -10 0 -10 0 0 10 0 10 10 0 10 0 0 -10z m40 0 l0 -10 -10 0 -10
0 0 10 0 10 10 0 10 0 0 -10z m60 0 l0 -10 -10 0 -10 0 0 10 0 10 10 0 10 0 0
-10z m140 0 l0 -10 -10 0 -10 0 0 10 0 10 10 0 10 0 0 -10z m-520 -20 l0 -10
-10 0 -10 0 0 10 0 10 10 0 10 0 0 -10z m420 0 l0 -10 -10 0 -10 0 0 10 0 10
10 0 10 0 0 -10z m40 0 l0 -10 -10 0 -10 0 0 10 0 10 10 0 10 0 0 -10z m-520
-20 l0 -10 -10 0 -10 0 0 10 0 10 10 0 10 0 0 -10z m280 0 l0 -10 -10 0 -10 0
0 10 0 10 10 0 10 0 0 -10z m60 0 l0 -10 -10 0 -10 0 0 10 0 10 10 0 10 0 0
-10z m60 0 l0 -10 -10 0 -10 0 0 10 0 10 10 0 10 0 0 -10z m160 0 l0 -10 -10
0 -10 0 0 10 0 10 10 0 10 0 0 -10z m-640 -19 l0 -9 -12 -6 -13 -6 13 -6 12
-6 0 -15 0 -14 -15 -16 -16 -15 -7 7 -7 8 13 4 12 5 0 9 0 9 -20 0 -20 0 0 5
0 6 23 24 22 24 8 0 7 1 0 -9z m140 -1 l0 -10 -10 0 -10 0 0 10 0 10 10 0 10
0 0 -10z m60 0 l0 -10 -10 0 -10 0 0 10 0 10 10 0 10 0 0 -10z m60 0 l0 -10
-10 0 -10 0 0 10 0 10 10 0 10 0 0 -10z m60 0 l0 -10 -10 0 -10 0 0 10 0 10
10 0 10 0 0 -10z m200 0 l0 -10 -10 0 -10 0 0 10 0 10 10 0 10 0 0 -10z m60 0
l0 -10 -10 0 -10 0 0 10 0 10 10 0 10 0 0 -10z m-493 -25 l15 -16 -6 -7 -7 -6
-9 13 -8 14 -18 -17 -17 -18 14 -8 13 -9 -6 -7 -7 -6 -16 16 -16 16 23 24 23
25 3 0 3 1 16 -15z m533 5 l0 -10 -10 0 -10 0 0 10 0 10 10 0 10 0 0 -10z
m-480 -20 l0 -10 -10 0 -10 0 0 10 0 10 10 0 10 0 0 -10z m40 0 l0 -10 -10 0
-10 0 0 10 0 10 10 0 10 0 0 -10z m100 0 l0 -10 -10 0 -10 0 0 10 0 10 10 0
10 0 0 -10z m120 0 l0 -10 -10 0 -10 0 0 10 0 10 10 0 10 0 0 -10z m60 0 l0
-10 -10 0 -10 0 0 10 0 10 10 0 10 0 0 -10z m60 0 l0 -10 -10 0 -10 0 0 10 0
10 10 0 10 0 0 -10z m40 0 l0 -10 -10 0 -10 0 0 10 0 10 10 0 10 0 0 -10z
m100 0 l0 -10 -10 0 -10 0 0 10 0 10 10 0 10 0 0 -10z m-420 -20 l0 -10 -10 0
-10 0 0 10 0 10 10 0 10 0 0 -10z m360 0 l0 -10 -10 0 -10 0 0 10 0 10 10 0
10 0 0 -10z m-480 -20 l0 -10 -10 0 -10 0 0 10 0 10 10 0 10 0 0 -10z m80 0
l0 -10 -10 0 -10 0 0 10 0 10 10 0 10 0 0 -10z m160 0 l0 -10 -10 0 -10 0 0
10 0 10 10 0 10 0 0 -10z m60 0 l0 -10 -10 0 -10 0 0 10 0 10 10 0 10 0 0 -10z
m60 0 l0 -10 -10 0 -10 0 0 10 0 10 10 0 10 0 0 -10z m-460 -20 l0 -10 -10 0
-10 0 0 10 0 10 10 0 10 0 0 -10z m140 0 l0 -10 -10 0 -10 0 0 10 0 10 10 0
10 0 0 -10z m160 0 l0 -10 -10 0 -10 0 0 10 0 10 10 0 10 0 0 -10z m220 0 l0
-10 -10 0 -10 0 0 10 0 10 10 0 10 0 0 -10z m80 0 l0 -10 -10 0 -10 0 0 10 0
10 10 0 10 0 0 -10z m-773 -25 l15 -16 -5 -6 -6 -5 -16 15 -15 16 0 5 0 6 6 0
5 0 16 -15z m133 5 l0 -10 -10 0 -10 0 0 10 0 10 10 0 10 0 0 -10z m120 0 l0
-10 -10 0 -10 0 0 10 0 10 10 0 10 0 0 -10z m180 0 l0 -10 -10 0 -10 0 0 10 0
10 10 0 10 0 0 -10z m-360 -20 l0 -10 -10 0 -10 0 0 10 0 10 10 0 10 0 0 -10z
m140 0 l0 -10 -10 0 -10 0 0 10 0 10 10 0 10 0 0 -10z m380 0 l0 -10 -10 0
-10 0 0 10 0 10 10 0 10 0 0 -10z m80 0 l0 -10 -10 0 -10 0 0 10 0 10 10 0 10
0 0 -10z m60 0 l0 -10 -10 0 -10 0 0 10 0 10 10 0 10 0 0 -10z m80 4 l0 -5
-15 -16 -16 -15 -5 5 -6 6 13 15 14 15 8 1 7 0 0 -6z m-840 -24 l0 -10 -10 0
-10 0 0 10 0 10 10 0 10 0 0 -10z m560 0 l0 -10 -10 0 -10 0 0 10 0 10 10 0
10 0 0 -10z m-416 -22 l6 -13 6 13 6 12 9 0 9 0 0 -20 0 -20 -16 0 -15 0 -15
14 -14 15 0 5 0 6 9 0 9 0 6 -12z m536 2 l0 -10 -10 0 -10 0 0 10 0 10 10 0
10 0 0 -10z m100 0 l0 -10 -10 0 -10 0 0 10 0 10 10 0 10 0 0 -10z m-880 -20
l0 -10 30 0 30 0 0 10 0 10 50 0 50 0 0 -5 0 -6 -25 -24 -24 -25 -16 0 -15 0
0 10 0 10 -20 0 -20 0 0 -20 0 -20 -35 0 -36 0 -26 -26 -26 -26 13 -8 13 -8
-17 -18 -18 -17 -9 14 -9 14 -9 -15 -10 -14 -7 7 -7 7 21 19 22 18 0 16 0 15
-12 5 -13 4 9 9 9 9 4 -12 5 -13 14 0 15 0 36 37 37 37 -12 4 -12 4 0 9 0 9
10 0 10 0 0 -10z m207 -5 l15 -16 -5 -6 -6 -5 -16 15 -15 16 0 5 0 6 6 0 5 0
16 -15z m153 5 l0 -10 -10 0 -10 0 0 10 0 10 10 0 10 0 0 -10z m200 0 l0 -10
-10 0 -10 0 0 10 0 10 10 0 10 0 0 -10z m-600 -20 l0 -10 -10 0 -10 0 0 10 0
10 10 0 10 0 0 -10z m360 0 l0 -10 -10 0 -10 0 0 10 0 10 10 0 10 0 0 -10z
m180 0 l0 -10 -10 0 -10 0 0 10 0 10 10 0 10 0 0 -10z m200 0 l0 -10 -10 0
-10 0 0 10 0 10 10 0 10 0 0 -10z m120 0 l0 -10 -10 0 -10 0 0 10 0 10 10 0
10 0 0 -10z m120 0 l0 -10 -10 0 -10 0 0 10 0 10 10 0 10 0 0 -10z m-760 -20
l0 -10 -10 0 -10 0 0 10 0 10 10 0 10 0 0 -10z m280 0 l0 -10 -10 0 -10 0 0
10 0 10 10 0 10 0 0 -10z m320 0 l0 -10 -10 0 -10 0 0 10 0 10 10 0 10 0 0
-10z m120 0 l0 -10 -10 0 -10 0 0 10 0 10 10 0 10 0 0 -10z m-160 -20 l0 -10
-10 0 -10 0 0 10 0 10 10 0 10 0 0 -10z m120 -20 l0 -10 -10 0 -10 0 0 10 0
10 10 0 10 0 0 -10z m80 0 l0 -10 -10 0 -10 0 0 10 0 10 10 0 10 0 0 -10z
m-240 -20 l0 -10 -10 0 -10 0 0 10 0 10 10 0 10 0 0 -10z m-840 -20 l0 -10
-10 0 -10 0 0 10 0 10 10 0 10 0 0 -10z m800 0 l0 -10 -10 0 -10 0 0 10 0 10
10 0 10 0 0 -10z m160 0 l0 -10 -10 0 -10 0 0 10 0 10 10 0 10 0 0 -10z m80 0
l0 -10 -10 0 -10 0 0 10 0 10 10 0 10 0 0 -10z m-840 -20 l0 -10 -10 0 -10 0
0 10 0 10 10 0 10 0 0 -10z m120 0 l0 -10 -10 0 -10 0 0 10 0 10 10 0 10 0 0
-10z m44 -2 l6 -13 6 13 6 12 9 0 9 0 0 -16 0 -15 -14 -15 -15 -14 -5 0 -6 0
0 20 0 20 -10 0 -10 0 0 10 0 10 9 0 9 0 6 -12z m556 2 l0 -10 -10 0 -10 0 0
10 0 10 10 0 10 0 0 -10z m160 0 l0 -10 -10 0 -10 0 0 10 0 10 10 0 10 0 0
-10z m-960 -40 l0 -10 -10 0 -10 0 0 10 0 10 10 0 10 0 0 -10z m180 0 l0 -10
-10 0 -10 0 0 10 0 10 10 0 10 0 0 -10z m680 0 l0 -10 -10 0 -10 0 0 10 0 10
10 0 10 0 0 -10z m60 0 l0 -10 -10 0 -10 0 0 10 0 10 10 0 10 0 0 -10z m-1000
-20 l0 -10 -10 0 -10 0 0 10 0 10 10 0 10 0 0 -10z m300 0 l0 -10 -10 0 -10 0
0 10 0 10 10 0 10 0 0 -10z m340 0 l0 -10 -10 0 -10 0 0 10 0 10 10 0 10 0 0
-10z m60 0 l0 -10 -10 0 -10 0 0 10 0 10 10 0 10 0 0 -10z m160 0 l0 -10 -10
0 -10 0 0 10 0 10 10 0 10 0 0 -10z m180 0 l0 -10 -10 0 -10 0 0 10 0 10 10 0
10 0 0 -10z m-700 -20 l0 -10 -10 0 -10 0 0 10 0 10 10 0 10 0 0 -10z m580 0
l0 -10 -10 0 -10 0 0 10 0 10 10 0 10 0 0 -10z m-277 -22 l5 -13 10 14 10 14
17 -17 17 -16 -33 -31 -33 -31 15 -9 14 -9 -15 -10 -15 -10 15 -9 14 -10 -7
-7 -7 -7 -20 23 -20 23 -29 -32 -29 -31 -16 0 -16 0 0 10 0 10 20 0 20 0 0 9
0 9 -12 5 -13 4 8 9 8 8 8 -13 9 -14 36 36 36 36 0 6 0 5 -20 0 -20 0 0 10 0
10 20 0 20 0 0 10 0 10 -10 0 -10 0 0 10 0 10 9 0 9 0 5 -12z m177 2 l0 -10
-10 0 -10 0 0 10 0 10 10 0 10 0 0 -10z m160 0 l0 -10 -10 0 -10 0 0 10 0 10
10 0 10 0 0 -10z m-700 -20 l0 -10 -10 0 -10 0 0 10 0 10 10 0 10 0 0 -10z
m460 0 l0 -10 -10 0 -10 0 0 10 0 10 10 0 10 0 0 -10z m160 0 l0 -10 -10 0
-10 0 0 10 0 10 10 0 10 0 0 -10z m40 -20 l0 -10 -10 0 -10 0 0 10 0 10 10 0
10 0 0 -10z m-440 -20 l0 -10 -10 0 -10 0 0 10 0 10 10 0 10 0 0 -10z m360 0
l0 -10 -10 0 -10 0 0 10 0 10 10 0 10 0 0 -10z m-280 -20 l0 -10 -10 0 -10 0
0 10 0 10 10 0 10 0 0 -10z m120 0 l0 -10 -10 0 -10 0 0 10 0 10 10 0 10 0 0
-10z m-320 -20 l0 -10 -10 0 -10 0 0 10 0 10 10 0 10 0 0 -10z m100 0 l0 -10
-10 0 -10 0 0 10 0 10 10 0 10 0 0 -10z m340 0 l0 -10 -10 0 -10 0 0 10 0 10
10 0 10 0 0 -10z m80 -10 l0 -20 -20 0 -20 0 0 -10 0 -10 -20 0 -20 0 0 -9 0
-9 13 -5 12 -4 -9 -9 -9 -9 -4 13 -5 12 -19 0 -19 0 0 10 0 10 20 0 20 0 0 10
0 10 20 0 20 0 0 20 0 20 20 0 20 0 0 -20z m-560 -10 l0 -10 -10 0 -10 0 0 10
0 10 10 0 10 0 0 -10z m360 0 l0 -10 -10 0 -10 0 0 10 0 10 10 0 10 0 0 -10z
m60 0 l0 -10 -10 0 -10 0 0 10 0 10 10 0 10 0 0 -10z m180 0 l0 -10 -10 0 -10
0 0 10 0 10 10 0 10 0 0 -10z m-440 -50 l0 -20 -10 0 -10 0 0 20 0 20 10 0 10
0 0 -20z m120 10 l0 -10 -10 0 -10 0 0 10 0 10 10 0 10 0 0 -10z m80 -20 l0
-10 -10 0 -10 0 0 10 0 10 10 0 10 0 0 -10z m60 0 l0 -10 -10 0 -10 0 0 10 0
10 10 0 10 0 0 -10z m-200 -20 l0 -10 -10 0 -10 0 0 10 0 10 10 0 10 0 0 -10z
m60 0 l0 -10 -10 0 -10 0 0 10 0 10 10 0 10 0 0 -10z m40 0 l0 -10 -10 0 -10
0 0 10 0 10 10 0 10 0 0 -10z m60 -20 l0 -10 -10 0 -10 0 0 10 0 10 10 0 10 0
0 -10z m40 0 l0 -10 -10 0 -10 0 0 10 0 10 10 0 10 0 0 -10z m40 0 l0 -10 -10
0 -10 0 0 10 0 10 10 0 10 0 0 -10z m-380 -20 l0 -10 -10 0 -10 0 0 10 0 10
10 0 10 0 0 -10z m120 0 l0 -10 -10 0 -10 0 0 10 0 10 10 0 10 0 0 -10z m40 0
l0 -10 -10 0 -10 0 0 10 0 10 10 0 10 0 0 -10z m100 0 l0 -10 -10 0 -10 0 0
10 0 10 10 0 10 0 0 -10z m-420 -20 l0 -10 -10 0 -10 0 0 -20 0 -20 -10 0 -10
0 0 15 0 16 13 14 12 14 8 1 7 0 0 -10z m120 0 l0 -10 -10 0 -10 0 0 10 0 10
10 0 10 0 0 -10z m100 0 l0 -10 -10 0 -10 0 0 10 0 10 10 0 10 0 0 -10z m160
0 l0 -10 -10 0 -10 0 0 10 0 10 10 0 10 0 0 -10z m-340 -20 l0 -10 -10 0 -10
0 0 10 0 10 10 0 10 0 0 -10z m40 0 l0 -10 -10 0 -10 0 0 10 0 10 10 0 10 0 0
-10z m100 0 l0 -10 -10 0 -10 0 0 10 0 10 10 0 10 0 0 -10z m120 -20 l0 -10
-10 0 -10 0 0 10 0 10 10 0 10 0 0 -10z m-180 -20 l0 -10 -10 0 -10 0 0 10 0
10 10 0 10 0 0 -10z m100 0 l0 -10 -10 0 -10 0 0 10 0 10 10 0 10 0 0 -10z
m220 0 l0 -10 -10 0 -10 0 0 10 0 10 10 0 10 0 0 -10z m-360 -20 l0 -10 -10 0
-10 0 0 10 0 10 10 0 10 0 0 -10z m100 0 l0 -10 -10 0 -10 0 0 10 0 10 10 0
10 0 0 -10z m220 0 l0 -10 -10 0 -10 0 0 10 0 10 10 0 10 0 0 -10z m-260 -20
l0 -10 -10 0 -10 0 0 10 0 10 10 0 10 0 0 -10z m120 0 l0 -10 -10 0 -10 0 0
10 0 10 10 0 10 0 0 -10z m100 0 l0 -10 -10 0 -10 0 0 10 0 10 10 0 10 0 0
-10z m-260 -20 l0 -10 -10 0 -10 0 0 10 0 10 10 0 10 0 0 -10z m220 0 l0 -10
-10 0 -10 0 0 10 0 10 10 0 10 0 0 -10z m-140 -20 l0 -10 -10 0 -10 0 0 10 0
10 10 0 10 0 0 -10z m40 -20 l0 -10 -10 0 -10 0 0 10 0 10 10 0 10 0 0 -10z
m80 0 l0 -10 -10 0 -10 0 0 10 0 10 10 0 10 0 0 -10z m-40 -20 l0 -10 -10 0
-10 0 0 10 0 10 10 0 10 0 0 -10z"/>
<path d="M420 870 l0 -10 10 0 10 0 0 10 0 10 -10 0 -10 0 0 -10z"/>
<path d="M220 750 l0 -10 10 0 10 0 0 10 0 10 -10 0 -10 0 0 -10z"/>
<path d="M871 624 l-13 -15 6 -6 5 -5 16 15 15 16 0 5 0 6 -7 0 -8 -1 -14 -15z"/>
<path d="M840 550 l0 -10 10 0 10 0 0 10 0 10 -10 0 -10 0 0 -10z"/>
<path d="M1060 1270 l0 -10 10 0 10 0 0 10 0 10 -10 0 -10 0 0 -10z"/>
<path d="M1160 1270 l0 -10 10 0 10 0 0 10 0 10 -10 0 -10 0 0 -10z"/>
<path d="M1240 1274 l0 -5 15 -16 16 -15 6 5 5 6 -15 16 -16 15 -5 0 -6 0 0
-6z"/>
<path d="M0 1250 l0 -10 10 0 10 0 0 10 0 10 -10 0 -10 0 0 -10z"/>
<path d="M80 1250 l0 -10 10 0 10 0 0 10 0 10 -10 0 -10 0 0 -10z"/>
<path d="M180 1250 l0 -10 10 0 10 0 0 10 0 10 -10 0 -10 0 0 -10z"/>
<path d="M920 1250 l0 -10 10 0 10 0 0 10 0 10 -10 0 -10 0 0 -10z"/>
<path d="M971 1244 l-13 -15 6 -6 5 -5 16 15 15 16 0 5 0 6 -7 0 -8 -1 -14
-15z"/>
<path d="M40 1230 l0 -10 10 0 10 0 0 10 0 10 -10 0 -10 0 0 -10z"/>
<path d="M120 1204 l0 -15 -15 -16 -16 -15 -7 6 -6 7 14 9 14 9 -6 7 -7 6 -16
-15 -15 -16 0 -15 0 -16 -9 0 -9 0 -5 13 -4 12 -9 -9 -9 -9 13 -4 12 -5 0 -19
0 -19 8 0 8 0 14 20 14 20 17 0 17 0 5 13 4 12 8 -7 7 -7 -15 -16 -16 -15 -12
0 -12 0 -18 -22 -19 -21 -20 23 -20 23 -8 -8 -7 -8 13 -4 12 -5 0 -19 0 -19
-10 0 -10 0 0 -20 0 -20 10 0 10 0 0 20 0 20 20 0 20 0 0 10 0 10 20 0 20 0 0
10 0 10 16 0 17 0 20 -22 20 -23 4 13 5 12 19 0 19 0 0 10 0 10 -19 0 -19 0
-4 -12 -5 -13 -17 18 -17 17 16 17 17 16 8 -13 8 -13 16 16 16 16 0 15 0 16
-10 0 -10 0 0 -10 0 -10 -16 0 -15 0 -15 14 -14 15 0 15 0 16 -10 0 -10 0 0
-16z"/>
<path d="M0 1190 l0 -10 10 0 10 0 0 10 0 10 -10 0 -10 0 0 -10z"/>
<path d="M340 1150 l0 -10 10 0 10 0 0 10 0 10 -10 0 -10 0 0 -10z"/>
<path d="M400 1150 l0 -10 10 0 10 0 0 10 0 10 -10 0 -10 0 0 -10z"/>
<path d="M280 1130 l0 -10 10 0 10 0 0 10 0 10 -10 0 -10 0 0 -10z"/>
<path d="M460 1130 l0 -10 10 0 10 0 0 10 0 10 -10 0 -10 0 0 -10z"/>
<path d="M240 1110 l0 -10 10 0 10 0 0 10 0 10 -10 0 -10 0 0 -10z"/>
<path d="M320 1110 l0 -10 10 0 10 0 0 10 0 10 -10 0 -10 0 0 -10z"/>
<path d="M380 1110 l0 -10 10 0 10 0 0 10 0 10 -10 0 -10 0 0 -10z"/>
<path d="M500 1110 l0 -10 10 0 10 0 0 10 0 10 -10 0 -10 0 0 -10z"/>
<path d="M420 1090 l0 -10 10 0 10 0 0 10 0 10 -10 0 -10 0 0 -10z"/>
<path d="M460 1090 l0 -10 10 0 10 0 0 10 0 10 -10 0 -10 0 0 -10z"/>
<path d="M280 1070 l0 -10 10 0 10 0 0 10 0 10 -10 0 -10 0 0 -10z"/>
<path d="M360 1070 l0 -10 10 0 10 0 0 10 0 10 -10 0 -10 0 0 -10z"/>
<path d="M100 1050 l0 -10 20 0 20 0 0 10 0 10 -20 0 -20 0 0 -10z"/>
<path d="M320 1050 l0 -10 10 0 10 0 0 10 0 10 -10 0 -10 0 0 -10z"/>
<path d="M460 1050 l0 -10 10 0 10 0 0 10 0 10 -10 0 -10 0 0 -10z"/>
<path d="M60 1030 l0 -10 10 0 10 0 0 10 0 10 -10 0 -10 0 0 -10z"/>
<path d="M200 1030 l0 -10 10 0 10 0 0 10 0 10 -10 0 -10 0 0 -10z"/>
<path d="M240 1030 l0 -10 10 0 10 0 0 10 0 10 -10 0 -10 0 0 -10z"/>
<path d="M400 1030 l0 -10 10 0 10 0 0 10 0 10 -10 0 -10 0 0 -10z"/>
<path d="M140 1010 l0 -10 10 0 10 0 0 10 0 10 -10 0 -10 0 0 -10z"/>
<path d="M320 1010 l0 -10 10 0 10 0 0 10 0 10 -10 0 -10 0 0 -10z"/>
<path d="M0 990 l0 -10 10 0 10 0 0 10 0 10 -10 0 -10 0 0 -10z"/>
<path d="M40 990 l0 -10 10 0 10 0 0 10 0 10 -10 0 -10 0 0 -10z"/>
<path d="M80 990 l0 -10 10 0 10 0 0 10 0 10 -10 0 -10 0 0 -10z"/>
<path d="M260 990 l0 -10 10 0 10 0 0 10 0 10 -10 0 -10 0 0 -10z"/>
<path d="M360 990 l0 -10 10 0 10 0 0 10 0 10 -10 0 -10 0 0 -10z"/>
<path d="M160 970 l0 -10 10 0 10 0 0 10 0 10 -10 0 -10 0 0 -10z"/>
<path d="M200 970 l0 -10 10 0 10 0 0 10 0 10 -10 0 -10 0 0 -10z"/>
<path d="M300 970 l0 -10 10 0 10 0 0 10 0 10 -10 0 -10 0 0 -10z"/>
<path d="M40 950 l0 -10 10 0 10 0 0 10 0 10 -10 0 -10 0 0 -10z"/>
<path d="M100 950 l0 -10 10 0 10 0 0 10 0 10 -10 0 -10 0 0 -10z"/>
<path d="M240 950 l0 -10 10 0 10 0 0 10 0 10 -10 0 -10 0 0 -10z"/>
<path d="M180 930 l0 -10 10 0 10 0 0 10 0 10 -10 0 -10 0 0 -10z"/>
<path d="M0 910 l0 -10 10 0 10 0 0 10 0 10 -10 0 -10 0 0 -10z"/>
<path d="M60 910 l0 -10 10 0 10 0 0 10 0 10 -10 0 -10 0 0 -10z"/>
<path d="M100 910 l0 -10 10 0 10 0 0 10 0 10 -10 0 -10 0 0 -10z"/>
<path d="M140 910 l0 -10 10 0 10 0 0 10 0 10 -10 0 -10 0 0 -10z"/>
<path d="M40 870 l0 -10 10 0 10 0 0 10 0 10 -10 0 -10 0 0 -10z"/>
<path d="M120 870 l0 -10 10 0 10 0 0 10 0 10 -10 0 -10 0 0 -10z"/>
<path d="M80 850 l0 -10 10 0 10 0 0 10 0 10 -10 0 -10 0 0 -10z"/>
<path d="M0 830 l0 -10 10 0 10 0 0 10 0 10 -10 0 -10 0 0 -10z"/>
<path d="M40 810 l0 -10 10 0 10 0 0 10 0 10 -10 0 -10 0 0 -10z"/>
<path d="M80 810 l0 -10 10 0 10 0 0 10 0 10 -10 0 -10 0 0 -10z"/>
<path d="M0 790 l0 -10 10 0 10 0 0 10 0 10 -10 0 -10 0 0 -10z"/>
<path d="M60 770 l0 -10 10 0 10 0 0 10 0 10 -10 0 -10 0 0 -10z"/>
<path d="M100 750 l0 -10 -20 0 -20 0 0 -10 0 -10 16 0 15 0 15 14 14 15 0 5
0 6 -10 0 -10 0 0 -10z"/>
<path d="M20 730 l0 -10 10 0 10 0 0 10 0 10 -10 0 -10 0 0 -10z"/>
<path d="M0 670 l0 -10 10 0 10 0 0 10 0 10 -10 0 -10 0 0 -10z"/>
<path d="M60 630 l0 -10 10 0 10 0 0 10 0 10 -10 0 -10 0 0 -10z"/>
<path d="M340 630 l0 -10 10 0 10 0 0 10 0 10 -10 0 -10 0 0 -10z"/>
<path d="M100 610 l0 -10 10 0 10 0 0 10 0 10 -10 0 -10 0 0 -10z"/>
<path d="M240 600 l0 -20 16 0 15 0 16 15 15 16 -6 7 -7 6 -10 -14 -11 -15 -5
13 -5 12 -9 0 -9 0 0 -20z"/>
<path d="M0 590 l0 -10 10 0 10 0 0 10 0 10 -10 0 -10 0 0 -10z"/>
<path d="M200 570 l0 -10 10 0 10 0 0 10 0 10 -10 0 -10 0 0 -10z"/>
<path d="M300 570 l0 -10 10 0 10 0 0 10 0 10 -10 0 -10 0 0 -10z"/>
<path d="M1260 560 l0 -20 10 0 10 0 0 20 0 20 -10 0 -10 0 0 -20z"/>
<path d="M340 550 l0 -10 10 0 10 0 0 10 0 10 -10 0 -10 0 0 -10z"/>
<path d="M160 530 l0 -10 10 0 10 0 0 10 0 10 -10 0 -10 0 0 -10z"/>
<path d="M220 530 l0 -10 10 0 10 0 0 10 0 10 -10 0 -10 0 0 -10z"/>
<path d="M380 530 l0 -10 10 0 10 0 0 10 0 10 -10 0 -10 0 0 -10z"/>
<path d="M240 470 l0 -10 10 0 10 0 0 10 0 10 -10 0 -10 0 0 -10z"/>
<path d="M460 470 l0 -10 10 0 10 0 0 10 0 10 -10 0 -10 0 0 -10z"/>
<path d="M1100 474 l0 -5 15 -16 16 -15 6 5 5 6 -15 16 -16 15 -5 0 -6 0 0 -6z"/>
<path d="M1200 470 l0 -10 10 0 10 0 0 10 0 10 -10 0 -10 0 0 -10z"/>
<path d="M180 450 l0 -10 10 0 10 0 0 10 0 10 -10 0 -10 0 0 -10z"/>
<path d="M1160 450 l0 -10 10 0 10 0 0 10 0 10 -10 0 -10 0 0 -10z"/>
<path d="M1240 450 l0 -10 10 0 10 0 0 10 0 10 -10 0 -10 0 0 -10z"/>
<path d="M260 430 l0 -10 10 0 10 0 0 10 0 10 -10 0 -10 0 0 -10z"/>
<path d="M300 430 l0 -10 10 0 10 0 0 10 0 10 -10 0 -10 0 0 -10z"/>
<path d="M1080 410 l0 -10 10 0 10 0 0 10 0 10 -10 0 -10 0 0 -10z"/>
<path d="M1140 410 l0 -10 10 0 10 0 0 10 0 10 -10 0 -10 0 0 -10z"/>
<path d="M1200 410 l0 -10 10 0 10 0 0 10 0 10 -10 0 -10 0 0 -10z"/>
<path d="M220 390 l0 -10 10 0 10 0 0 10 0 10 -10 0 -10 0 0 -10z"/>
<path d="M280 390 l0 -10 10 0 10 0 0 10 0 10 -10 0 -10 0 0 -10z"/>
<path d="M1071 364 l-13 -15 6 -6 5 -5 16 15 15 16 0 5 0 6 -7 0 -8 -1 -14
-15z"/>
<path d="M1120 370 l0 -10 10 0 10 0 0 10 0 10 -10 0 -10 0 0 -10z"/>
<path d="M1220 370 l0 -10 10 0 10 0 0 10 0 10 -10 0 -10 0 0 -10z"/>
<path d="M300 350 l0 -10 10 0 10 0 0 10 0 10 -10 0 -10 0 0 -10z"/>
<path d="M1180 350 l0 -10 10 0 10 0 0 10 0 10 -10 0 -10 0 0 -10z"/>
<path d="M260 330 l0 -10 10 0 10 0 0 10 0 10 -10 0 -10 0 0 -10z"/>
<path d="M340 330 l0 -10 10 0 10 0 0 10 0 10 -10 0 -10 0 0 -10z"/>
<path d="M1020 330 l0 -10 10 0 10 0 0 10 0 10 -10 0 -10 0 0 -10z"/>
<path d="M980 310 l0 -10 10 0 10 0 0 10 0 10 -10 0 -10 0 0 -10z"/>
<path d="M1120 310 l0 -10 10 0 10 0 0 10 0 10 -10 0 -10 0 0 -10z"/>
<path d="M1240 310 l0 -10 10 0 10 0 0 10 0 10 -10 0 -10 0 0 -10z"/>
<path d="M200 290 l0 -10 10 0 10 0 0 10 0 10 -10 0 -10 0 0 -10z"/>
<path d="M360 290 l0 -10 10 0 10 0 0 10 0 10 -10 0 -10 0 0 -10z"/>
<path d="M400 294 l0 -5 15 -16 16 -15 6 5 5 6 -15 16 -16 15 -5 0 -6 0 0 -6z"/>
<path d="M1080 290 l0 -10 10 0 10 0 0 10 0 10 -10 0 -10 0 0 -10z"/>
<path d="M1200 290 l0 -10 10 0 10 0 0 10 0 10 -10 0 -10 0 0 -10z"/>
<path d="M980 270 l0 -10 10 0 10 0 0 10 0 10 -10 0 -10 0 0 -10z"/>
<path d="M1020 270 l0 -10 10 0 10 0 0 10 0 10 -10 0 -10 0 0 -10z"/>
<path d="M1160 270 l0 -10 10 0 10 0 0 10 0 10 -10 0 -10 0 0 -10z"/>
<path d="M60 250 l0 -10 10 0 10 0 0 10 0 10 -10 0 -10 0 0 -10z"/>
<path d="M160 250 l0 -10 10 0 10 0 0 10 0 10 -10 0 -10 0 0 -10z"/>
<path d="M320 250 l0 -10 10 0 10 0 0 10 0 10 -10 0 -10 0 0 -10z"/>
<path d="M380 250 l0 -10 10 0 10 0 0 10 0 10 -10 0 -10 0 0 -10z"/>
<path d="M940 250 l0 -10 10 0 10 0 0 10 0 10 -10 0 -10 0 0 -10z"/>
<path d="M440 230 l0 -10 10 0 10 0 0 10 0 10 -10 0 -10 0 0 -10z"/>
<path d="M880 230 l0 -10 10 0 10 0 0 10 0 10 -10 0 -10 0 0 -10z"/>
<path d="M1080 230 l0 -10 10 0 10 0 0 10 0 10 -10 0 -10 0 0 -10z"/>
</g>
</svg>
