<?xml version="1.0" standalone="no"?>
<!DOCTYPE svg PUBLIC "-//W3C//DTD SVG 20010904//EN"
 "http://www.w3.org/TR/2001/REC-SVG-20010904/DTD/svg10.dtd">
<svg version="1.0" xmlns="http://www.w3.org/2000/svg"
 width="468pt" height="468pt" viewBox="0 0 468 468"
 preserveAspectRatio="xMidYMid meet">
<metadata>
Created by potrace 1.8, written by Peter Selinger 2001-2007
</metadata>
<g transform="translate(0,468) scale(0.365625,-0.365625)"
fill="#000000" stroke="none">
<path d="M0 640 l0 -640 640 0 640 0 0 640 0 640 -640 0 -640 0 0 -640z m850
495 l0 -15 120 0 120 0 0 -15 0 -15 -105 0 -105 0 0 -10 0 -10 120 0 120 0 0
-15 0 -15 -95 0 -95 0 0 -15 0 -15 95 0 95 0 0 -10 0 -10 -65 0 -65 0 0 -15 0
-15 65 0 65 0 0 -15 0 -15 -65 0 -65 0 0 -10 0 -10 65 0 65 0 0 -15 0 -15 -65
0 -65 0 0 -15 0 -15 65 0 65 0 0 -10 0 -10 -40 0 -40 0 0 -15 0 -15 40 0 40 0
0 -55 0 -55 -80 0 -80 0 0 -10 0 -10 -25 0 -25 0 0 -15 0 -15 -30 0 -30 0 0
-15 0 -15 -25 0 -25 0 0 -10 0 -10 -11 0 -10 0 -15 14 -14 15 0 25 0 26 -30 0
-30 0 0 -15 0 -15 -10 0 -10 0 0 -25 0 -25 10 0 10 0 0 -15 0 -15 15 0 15 0 0
-15 0 -15 -25 0 -25 0 0 -10 0 -10 -15 0 -15 0 0 -30 0 -30 -25 0 -25 0 0 -25
0 -25 -15 0 -15 0 0 -15 0 -15 -11 0 -10 0 -15 -14 -14 -15 0 -75 0 -76 10 0
10 0 0 -15 0 -15 -200 0 -200 0 0 25 0 25 160 0 160 0 0 15 0 15 -160 0 -160
0 0 15 0 15 120 0 120 0 0 10 0 10 -120 0 -120 0 0 15 0 15 95 0 95 0 0 15 0
15 -95 0 -95 0 0 10 0 10 55 0 55 0 0 15 0 15 -55 0 -55 0 0 240 0 240 15 0
15 0 0 25 0 25 15 0 15 0 0 15 0 15 10 0 10 0 0 25 0 25 15 0 15 0 0 15 0 15
15 0 15 0 0 11 0 10 14 15 15 14 10 0 11 0 0 15 0 15 55 0 55 0 0 -15 0 -15
-26 0 -25 0 -15 -14 -14 -15 0 -10 0 -11 -30 0 -30 0 0 -25 0 -25 -10 0 -10 0
0 -15 0 -15 -15 0 -15 0 0 -15 0 -15 -11 0 -10 0 -15 -14 -14 -15 0 -35 0 -36
-15 0 -15 0 0 -135 0 -135 15 0 15 0 0 -40 0 -40 25 0 25 0 0 40 0 40 -15 0
-15 0 0 135 0 135 15 0 15 0 0 25 0 25 15 0 15 0 0 11 0 10 14 15 15 14 10 0
11 0 0 30 0 30 15 0 15 0 0 10 0 10 25 0 25 0 0 15 0 15 15 0 15 0 0 15 0 15
40 0 40 0 0 10 0 10 105 0 105 0 0 -10 0 -10 15 0 15 0 0 -15 0 -15 40 0 40 0
0 15 0 15 -15 0 -15 0 0 25 0 25 -25 0 -25 0 0 15 0 15 50 0 50 0 0 -15z
m-610 -30 l0 -15 -11 0 -10 0 -15 -14 -14 -15 0 -10 0 -11 -15 0 -15 0 0 -25
0 -25 -15 0 -15 0 0 65 0 65 55 0 55 0 0 -15z m880 -520 l0 -25 -15 0 -15 0 0
-25 0 -25 -10 0 -10 0 0 -15 0 -15 -15 0 -15 0 0 -15 0 -15 -11 0 -10 0 -15
-14 -14 -15 0 -10 0 -11 -30 0 -30 0 0 -11 0 -10 -14 -15 -15 -14 -25 0 -26 0
0 -15 0 -15 -10 0 -10 0 0 -15 0 -15 -30 0 -30 0 0 -10 0 -10 -25 0 -25 0 0
-15 0 -15 -55 0 -55 0 0 14 0 14 -12 6 -13 6 13 6 12 6 0 29 0 29 15 0 15 0 0
10 0 10 15 0 15 0 0 15 0 15 10 0 10 0 0 15 0 15 15 0 15 0 0 10 0 10 15 0 15
0 0 15 0 15 10 0 10 0 0 -15 0 -15 15 0 15 0 0 -25 0 -25 15 0 15 0 0 -15 0
-15 25 0 25 0 0 55 0 55 -15 0 -15 0 0 25 0 25 15 0 15 0 0 15 0 15 25 0 25 0
0 15 0 15 30 0 30 0 0 10 0 10 65 0 65 0 0 -25z m0 -225 l0 -40 -15 0 -15 0 0
14 0 14 -12 6 -13 6 13 6 12 6 0 14 0 14 15 0 15 0 0 -40z m-270 -175 l0 -25
-50 0 -50 0 0 15 0 15 25 0 25 0 0 10 0 10 25 0 25 0 0 -25z"/>
<path d="M530 1025 l0 -15 -25 0 -25 0 0 -10 0 -10 -15 0 -15 0 0 -15 0 -15
-25 0 -25 0 0 -15 0 -15 -15 0 -15 0 0 -25 0 -25 -10 0 -10 0 0 -25 0 -25 -15
0 -15 0 0 -30 0 -30 -15 0 -15 0 0 -90 0 -90 15 0 15 0 0 -30 0 -30 15 0 15 0
0 -10 0 -10 25 0 25 0 0 10 0 10 -15 0 -15 0 0 135 0 135 15 0 15 0 0 25 0 25
15 0 15 0 0 15 0 15 10 0 10 0 0 15 0 15 15 0 15 0 0 10 0 10 15 0 15 0 0 15
0 15 120 0 120 0 0 -15 0 -15 25 0 25 0 0 30 0 30 -15 0 -15 0 0 10 0 10 -25
0 -25 0 0 15 0 15 -95 0 -95 0 0 -15z"/>
<path d="M590 895 l0 -15 -30 0 -30 0 0 -15 0 -15 -25 0 -25 0 0 -25 0 -25
-15 0 -15 0 0 -25 0 -25 -10 0 -10 0 0 -55 0 -55 10 0 10 0 0 -25 0 -25 15 0
15 0 0 -30 0 -30 25 0 25 0 0 40 0 40 -10 0 -10 0 0 70 0 70 10 0 10 0 0 25 0
25 15 0 15 0 0 15 0 15 120 0 120 0 0 25 0 25 -15 0 -15 0 0 15 0 15 -90 0
-90 0 0 -15z"/>
<path d="M690 785 l0 -15 -36 0 -35 0 -15 -14 -14 -15 0 -10 0 -11 -15 0 -15
0 0 -80 0 -80 15 0 15 0 0 -15 0 -15 10 0 10 0 0 30 0 30 -10 0 -10 0 0 36 0
35 14 15 15 14 10 0 11 0 0 15 0 15 25 0 25 0 0 15 0 15 15 0 15 0 0 -15 0
-15 15 0 15 0 0 -15 0 -15 25 0 25 0 0 15 0 15 -15 0 -15 0 0 25 0 25 -10 0
-10 0 0 15 0 15 -30 0 -30 0 0 -15z"/>
</g>
</svg>
