<?xml version="1.0" standalone="no"?>
<!DOCTYPE svg PUBLIC "-//W3C//DTD SVG 20010904//EN"
 "http://www.w3.org/TR/2001/REC-SVG-20010904/DTD/svg10.dtd">
<svg version="1.0" xmlns="http://www.w3.org/2000/svg"
 width="468pt" height="468pt" viewBox="0 0 468 468"
 preserveAspectRatio="xMidYMid meet">
<metadata>
Created by potrace 1.8, written by Peter Selinger 2001-2007
</metadata>
<g transform="translate(0,468) scale(0.365625,-0.365625)"
fill="#000000" stroke="none">
<path d="M720 1250 l0 -30 -25 0 -25 0 0 -55 0 -55 -30 0 -30 0 0 -140 0 -140
-25 0 -25 0 0 85 0 85 -30 0 -30 0 0 30 0 30 -25 0 -25 0 0 25 0 25 -60 0 -60
0 0 30 0 30 -55 0 -55 0 0 -30 0 -30 30 0 30 0 0 -25 0 -25 25 0 25 0 0 -30 0
-30 30 0 30 0 0 -55 0 -55 -55 0 -55 0 0 30 0 30 -110 0 -110 0 0 -30 0 -30
25 0 25 0 0 -30 0 -30 55 0 55 0 0 -25 0 -25 55 0 55 0 0 -30 0 -30 -80 0 -80
0 0 -25 0 -25 -55 0 -55 0 0 -30 0 -30 -30 0 -30 0 0 -25 0 -25 165 0 165 0 0
-30 0 -30 60 0 60 0 0 -25 0 -25 -30 0 -30 0 0 -30 0 -30 -30 0 -30 0 0 -30 0
-30 -25 0 -25 0 0 -25 0 -25 -30 0 -30 0 0 -55 0 -55 -25 0 -25 0 0 -85 0 -85
25 0 25 0 0 30 0 30 30 0 30 0 0 -30 0 -30 140 0 140 0 0 30 0 30 25 0 25 0 0
25 0 25 30 0 30 0 0 -25 0 -25 25 0 25 0 0 -30 0 -30 115 0 115 0 0 30 0 30
25 0 25 0 0 -30 0 -30 30 0 30 0 0 85 0 85 -30 0 -30 0 0 55 0 55 -25 0 -25 0
0 25 0 25 -30 0 -30 0 0 30 0 30 -30 0 -30 0 0 30 0 30 -25 0 -25 0 0 25 0 25
140 0 140 0 0 -25 0 -25 110 0 110 0 0 25 0 25 -30 0 -30 0 0 30 0 30 -25 0
-25 0 0 25 0 25 -55 0 -55 0 0 30 0 30 -85 0 -85 0 0 25 0 25 55 0 55 0 0 30
0 30 30 0 30 0 0 25 0 25 80 0 80 0 0 30 0 30 -25 0 -25 0 0 30 0 30 -110 0
-110 0 0 -30 0 -30 -60 0 -60 0 0 -30 0 -30 -25 0 -25 0 0 225 0 225 -30 0
-30 0 0 -30z m-50 -475 l0 -55 -30 0 -30 0 0 55 0 55 30 0 30 0 0 -55z m-220
-80 l0 -25 -60 0 -60 0 0 25 0 25 60 0 60 0 0 -25z m380 -55 l0 -30 -25 0 -25
0 0 30 0 30 25 0 25 0 0 -30z m-330 -280 l0 -30 -25 0 -25 0 0 -25 0 -25 -30
0 -30 0 0 25 0 25 30 0 30 0 0 30 0 30 25 0 25 0 0 -30z m170 0 l0 -30 25 0
25 0 0 -55 0 -55 -25 0 -25 0 0 -25 0 -25 -30 0 -30 0 0 25 0 25 -25 0 -25 0
0 55 0 55 25 0 25 0 0 30 0 30 30 0 30 0 0 -30z m160 0 l0 -30 -25 0 -25 0 0
30 0 30 25 0 25 0 0 -30z m-500 -165 l0 -25 30 0 30 0 0 25 0 25 30 0 30 0 0
-25 0 -25 25 0 25 0 0 -30 0 -30 -25 0 -25 0 0 -25 0 -25 -30 0 -30 0 0 25 0
25 -30 0 -30 0 0 30 0 30 -25 0 -25 0 0 25 0 25 25 0 25 0 0 -25z m500 0 l0
-25 30 0 30 0 0 -30 0 -30 -30 0 -30 0 0 -25 0 -25 -25 0 -25 0 0 25 0 25 -30
0 -30 0 0 30 0 30 30 0 30 0 0 25 0 25 25 0 25 0 0 -25z"/>
<path d="M610 250 l0 -30 30 0 30 0 0 30 0 30 -30 0 -30 0 0 -30z"/>
</g>
</svg>
