<?xml version="1.0" standalone="no"?>
<!DOCTYPE svg PUBLIC "-//W3C//DTD SVG 20010904//EN"
 "http://www.w3.org/TR/2001/REC-SVG-20010904/DTD/svg10.dtd">
<svg version="1.0" xmlns="http://www.w3.org/2000/svg"
 width="468pt" height="468pt" viewBox="0 0 468 468"
 preserveAspectRatio="xMidYMid meet">
<metadata>
Created by potrace 1.8, written by Peter Selinger 2001-2007
</metadata>
<g transform="translate(0,468) scale(0.365625,-0.365625)"
fill="#000000" stroke="none">
<path d="M400 1132 l0 -28 20 -14 20 -14 0 -18 0 -18 10 0 10 0 0 -30 0 -30
10 0 10 0 0 30 0 30 -10 0 -10 0 0 18 0 18 -20 14 -20 14 0 18 0 18 5 0 5 0
65 -65 65 -65 0 -15 0 -15 10 0 10 0 0 15 0 15 -75 75 -75 75 -15 0 -15 0 0
-28z"/>
<path d="M620 1090 l0 -70 -10 0 -10 0 0 -20 0 -20 10 0 10 0 0 20 0 20 10 0
10 0 0 40 0 40 15 0 16 0 34 -35 35 -34 0 -11 0 -11 26 -26 25 -25 6 6 6 6
-21 19 -22 18 0 12 0 11 -65 65 -65 65 -5 0 -5 0 0 -70z"/>
<path d="M820 1090 l0 -30 -10 0 -10 0 0 -30 0 -30 10 0 10 0 0 30 0 30 20 0
20 0 0 -50 0 -50 10 0 10 0 0 50 0 50 -10 0 -10 0 0 16 0 15 -14 15 -15 14 -5
0 -6 0 0 -30z"/>
<path d="M220 1074 l0 -5 14 -15 15 -14 25 0 26 0 0 -10 0 -10 28 0 28 0 14
-20 14 -20 17 0 17 0 5 -12 4 -13 8 7 7 7 -15 16 -16 15 -13 0 -14 0 -14 20
-14 20 -28 0 -28 0 0 10 0 10 -30 0 -30 0 0 10 0 10 -10 0 -10 0 0 -6z"/>
<path d="M200 990 l0 -10 40 0 40 0 0 -10 0 -10 30 0 30 0 0 -20 0 -20 -10 0
-10 0 0 -60 0 -60 -10 0 -10 0 0 -48 0 -48 -20 -14 -20 -14 0 -18 0 -18 -10 0
-10 0 0 -55 0 -55 55 -55 55 -55 13 0 13 0 14 -20 14 -20 18 0 18 0 0 -10 0
-10 -25 0 -26 0 -24 -25 -25 -24 0 -16 0 -15 -10 0 -10 0 0 -30 0 -30 -10 0
-10 0 0 -20 0 -20 10 0 10 0 0 10 0 10 30 0 30 0 0 -10 0 -10 90 0 90 0 0 -10
0 -10 100 0 100 0 0 -20 0 -20 10 0 10 0 0 10 0 10 80 0 80 0 0 -10 0 -10 10
0 10 0 0 30 0 30 -10 0 -10 0 0 45 0 46 -35 34 -34 35 -12 0 -11 0 -28 30 -28
30 -16 0 -16 0 0 8 0 8 20 14 20 14 0 14 0 14 30 28 30 28 0 16 0 16 10 0 10
0 0 20 0 20 18 0 18 0 14 -20 14 -20 38 0 38 0 0 20 0 20 10 0 10 0 0 76 0 77
-22 18 -21 19 23 20 23 20 -6 7 -7 6 -19 -21 -18 -22 -12 0 -12 0 -15 -14 -14
-15 0 -14 0 -15 -12 -5 -13 -4 7 -8 7 -8 30 32 29 31 6 0 6 0 0 -20 0 -20 10
0 10 0 0 -66 0 -65 -14 -15 -15 -14 -11 0 -11 0 -15 14 -14 15 0 15 0 16 -10
0 -10 0 0 -10 0 -10 -16 0 -15 0 -15 -14 -14 -15 0 -15 0 -16 -10 0 -10 0 0
-16 0 -16 -30 -28 -30 -28 0 -14 0 -14 -20 -14 -20 -14 0 -18 0 -18 18 0 18 0
14 -20 14 -20 18 0 18 0 0 -10 0 -10 -20 0 -20 0 0 -10 0 -10 -120 0 -120 0 0
10 0 10 80 0 80 0 0 10 0 10 30 0 30 0 0 10 0 10 -40 0 -40 0 0 -10 0 -10 -70
0 -70 0 0 10 0 10 -48 0 -48 0 -14 20 -14 20 -16 0 -16 0 -14 20 -14 20 -13 0
-14 0 -44 45 -45 44 0 56 0 55 10 0 10 0 0 18 0 18 20 14 20 14 0 38 0 38 10
0 10 0 0 60 0 60 10 0 10 0 0 26 0 25 -14 15 -15 14 -15 0 -16 0 0 10 0 10
-50 0 -50 0 0 -10z m260 -640 l0 -10 50 0 50 0 0 -10 0 -10 -90 0 -90 0 0 10
0 10 30 0 30 0 0 10 0 10 10 0 10 0 0 -10z m420 -50 l0 -20 -30 0 -30 0 0 5 0
6 13 14 12 14 18 1 17 0 0 -20z m-320 -10 l0 -10 100 0 100 0 0 -20 0 -20
-100 0 -100 0 0 10 0 10 -70 0 -70 0 0 10 0 10 -30 0 -30 0 0 10 0 10 100 0
100 0 0 -10z m-160 -40 l0 -10 70 0 70 0 0 -10 0 -10 110 0 110 0 0 -20 0 -20
-100 0 -100 0 0 10 0 10 -90 0 -90 0 0 10 0 10 -20 0 -20 0 0 20 0 20 30 0 30
0 0 -10z m520 -10 l0 -20 -70 0 -70 0 0 20 0 20 70 0 70 0 0 -20z m6 -54 l14
-15 0 -5 0 -6 -80 0 -80 0 0 20 0 20 66 0 65 0 15 -14z"/>
<path d="M980 990 l0 -10 -15 0 -16 0 -26 -26 -25 -25 6 -6 6 -6 19 21 18 22
12 0 12 0 15 14 14 15 0 5 0 6 -10 0 -10 0 0 -10z"/>
<path d="M1040 970 l0 -10 -15 0 -16 0 -26 -26 -25 -25 6 -6 6 -6 19 21 18 22
12 0 12 0 15 14 14 15 0 5 0 6 -10 0 -10 0 0 -10z"/>
<path d="M1040 910 l0 -10 -16 0 -15 0 -16 -15 -15 -16 7 -7 8 -7 4 13 5 12
19 0 19 0 0 10 0 10 20 0 20 0 0 10 0 10 -20 0 -20 0 0 -10z"/>
<path d="M413 845 l-13 -14 0 -11 0 -11 14 -15 15 -14 11 0 11 0 15 14 14 15
0 11 0 11 -14 15 -15 14 -13 0 -13 -1 -12 -14z m47 -25 l0 -20 -20 0 -20 0 0
20 0 20 20 0 20 0 0 -20z"/>
<path d="M533 825 l-13 -14 0 -11 0 -11 14 -15 15 -14 11 0 11 0 15 14 14 15
0 11 0 11 -14 15 -15 14 -13 0 -13 -1 -12 -14z m47 -25 l0 -20 -20 0 -20 0 0
20 0 20 20 0 20 0 0 -20z"/>
<path d="M413 745 l-13 -14 0 -31 0 -31 14 -15 15 -14 25 0 26 0 0 10 0 10
-30 0 -30 0 0 40 0 40 30 0 30 0 0 -10 0 -10 20 0 20 0 0 10 0 10 -20 0 -20 0
0 10 0 10 -27 0 -28 -1 -12 -14z"/>
<path d="M300 590 l0 -10 18 0 18 0 14 -20 14 -20 16 0 16 0 14 -20 14 -20 16
0 16 0 14 -20 14 -20 17 0 17 0 6 -12 6 -13 6 13 6 12 17 0 17 0 14 20 14 20
16 0 16 0 14 20 14 20 16 0 16 0 14 20 14 20 18 0 18 0 0 10 0 10 -230 0 -230
0 0 -10z m224 -62 l6 -13 6 13 6 12 39 0 39 0 0 -10 0 -10 -18 0 -18 0 -14
-20 -14 -20 -24 0 -23 0 -24 25 -25 24 0 6 0 5 29 0 29 0 6 -12z"/>
</g>
</svg>
