<?xml version="1.0" standalone="no"?>
<!DOCTYPE svg PUBLIC "-//W3C//DTD SVG 20010904//EN"
 "http://www.w3.org/TR/2001/REC-SVG-20010904/DTD/svg10.dtd">
<svg version="1.0" xmlns="http://www.w3.org/2000/svg"
 width="468pt" height="468pt" viewBox="0 0 468 468"
 preserveAspectRatio="xMidYMid meet">
<metadata>
Created by potrace 1.8, written by Peter Selinger 2001-2007
</metadata>
<g transform="translate(0,468) scale(0.365625,-0.365625)"
fill="#000000" stroke="none">
<path d="M360 900 l0 -20 -20 0 -20 0 0 -20 0 -20 -20 0 -20 0 0 -40 0 -40
-20 0 -20 0 0 -60 0 -60 -120 0 -120 0 0 -100 0 -100 120 0 120 0 0 -20 0 -20
-20 0 -20 0 0 -20 0 -20 -20 0 -20 0 0 -120 0 -120 20 0 20 0 0 -20 0 -20 20
0 20 0 0 -20 0 -20 40 0 40 0 0 160 0 160 20 0 20 0 0 20 0 20 40 0 40 0 0
-20 0 -20 20 0 20 0 0 -160 0 -160 40 0 40 0 0 20 0 20 20 0 20 0 0 20 0 20
20 0 20 0 0 140 0 140 -20 0 -20 0 0 20 0 20 180 0 180 0 0 -20 0 -20 20 0 20
0 0 -40 0 -40 -20 0 -20 0 0 -20 0 -20 -20 0 -20 0 0 -20 0 -20 -20 0 -20 0 0
-20 0 -20 -40 0 -40 0 0 -20 0 -20 120 0 120 0 0 20 0 20 40 0 40 0 0 20 0 20
20 0 20 0 0 20 0 20 20 0 20 0 0 20 0 20 20 0 20 0 0 200 0 200 20 0 20 0 0
60 0 60 -100 0 -100 0 0 -40 0 -40 -20 0 -20 0 0 40 0 40 -60 0 -60 0 0 -60 0
-60 20 0 20 0 0 -40 0 -40 -200 0 -200 0 0 60 0 60 -20 0 -20 0 0 40 0 40 -20
0 -20 0 0 20 0 20 -20 0 -20 0 0 20 0 20 -40 0 -40 0 0 -20z m0 -140 l0 -80
40 0 40 0 0 80 0 80 20 0 20 0 0 -40 0 -40 20 0 20 0 0 -80 0 -80 160 0 160 0
0 -60 0 -60 -140 0 -140 0 0 20 0 20 -20 0 -20 0 0 -40 0 -40 20 0 20 0 0 -20
0 -20 20 0 20 0 0 -40 0 -40 -40 0 -40 0 0 20 0 20 -20 0 -20 0 0 20 0 20 -20
0 -20 0 0 20 0 20 -20 0 -20 0 0 20 0 20 -20 0 -20 0 0 -40 0 -40 -20 0 -20 0
0 -20 0 -20 -20 0 -20 0 0 -20 0 -20 -40 0 -40 0 0 20 0 20 20 0 20 0 0 20 0
20 20 0 20 0 0 20 0 20 20 0 20 0 0 20 0 20 20 0 20 0 0 20 0 20 -20 0 -20 0
0 40 0 40 -20 0 -20 0 0 -60 0 -60 -120 0 -120 0 0 60 0 60 120 0 120 0 0 80
0 80 20 0 20 0 0 40 0 40 20 0 20 0 0 -80z m840 -180 l0 -140 -100 0 -100 0 0
20 0 20 -60 0 -60 0 0 60 0 60 60 0 60 0 0 20 0 20 20 0 20 0 0 40 0 40 80 0
80 0 0 -140z m0 -200 l0 -20 -20 0 -20 0 0 -20 0 -20 -20 0 -20 0 0 -20 0 -20
-20 0 -20 0 0 -20 0 -20 -20 0 -20 0 0 -20 0 -20 -20 0 -20 0 0 20 0 20 -20 0
-20 0 0 -20 0 -20 -20 0 -20 0 0 20 0 20 20 0 20 0 0 20 0 20 20 0 20 0 0 20
0 20 20 0 20 0 0 40 0 40 80 0 80 0 0 -20z"/>
<path d="M360 600 l0 -40 40 0 40 0 0 40 0 40 -40 0 -40 0 0 -40z"/>
<path d="M480 560 l0 -40 20 0 20 0 0 40 0 40 -20 0 -20 0 0 -40z"/>
<path d="M920 540 l0 -20 40 0 40 0 0 20 0 20 -40 0 -40 0 0 -20z"/>
<path d="M1040 300 l0 -20 -20 0 -20 0 0 -20 0 -20 20 0 20 0 0 20 0 20 20 0
20 0 0 20 0 20 -20 0 -20 0 0 -20z"/>
</g>
</svg>
