<?xml version="1.0" standalone="no"?>
<!DOCTYPE svg PUBLIC "-//W3C//DTD SVG 20010904//EN"
 "http://www.w3.org/TR/2001/REC-SVG-20010904/DTD/svg10.dtd">
<svg version="1.0" xmlns="http://www.w3.org/2000/svg"
 width="468pt" height="468pt" viewBox="0 0 468 468"
 preserveAspectRatio="xMidYMid meet">
<metadata>
Created by potrace 1.8, written by Peter Selinger 2001-2007
</metadata>
<g transform="translate(0,468) scale(0.365625,-0.365625)"
fill="#000000" stroke="none">
<path d="M740 1050 l0 -110 -110 0 -110 0 0 -80 0 -80 -40 0 -40 0 0 100 0
100 -70 0 -70 0 0 -120 0 -120 -10 0 -10 0 0 -20 0 -20 -5 0 -6 0 -24 25 -25
24 0 26 0 25 -16 0 -15 0 -15 -14 -14 -15 0 -15 0 -16 -26 0 -25 0 -15 -14
-14 -15 0 -15 0 -16 -10 0 -10 0 0 -20 0 -20 -10 0 -10 0 0 -36 0 -35 14 -15
15 -14 11 0 12 0 28 30 28 30 26 0 26 0 0 -20 0 -20 10 0 10 0 0 -30 0 -30
-10 0 -10 0 0 -15 0 -16 -70 -69 -70 -69 0 -26 0 -25 -30 0 -30 0 0 -20 0 -20
640 0 640 0 0 20 0 20 -40 0 -40 0 0 25 0 26 -70 69 -70 69 0 16 0 15 -10 0
-10 0 0 30 0 30 10 0 10 0 0 20 0 20 26 0 26 0 28 -30 28 -30 12 0 11 0 15 14
14 15 0 35 0 36 -10 0 -10 0 0 20 0 20 -10 0 -10 0 0 16 0 15 -14 15 -15 14
-25 0 -26 0 0 16 0 15 -14 15 -15 14 -15 0 -16 0 0 -25 0 -26 -25 -24 -24 -25
-6 0 -5 0 0 20 0 20 -10 0 -10 0 0 80 0 80 -50 0 -50 0 0 130 0 130 -60 0 -60
0 0 -110z m64 78 l6 -13 6 13 6 12 9 0 9 0 0 -20 0 -20 -20 0 -20 0 0 10 0 10
-20 0 -20 0 0 10 0 10 19 0 19 0 6 -12z m-4 -38 l0 -10 20 0 20 0 0 -10 0 -10
-29 0 -29 0 -5 -12 -4 -13 -9 8 -8 8 14 10 15 11 -12 5 -13 5 0 9 0 9 20 0 20
0 0 -10z m40 -59 l0 -9 -12 -6 -13 -6 13 -6 12 -6 0 -9 0 -9 -20 0 -20 0 0 10
0 10 -20 0 -20 0 0 10 0 10 20 0 20 0 0 10 0 10 20 0 20 0 0 -9z m-60 -61 l0
-10 30 0 30 0 0 -9 0 -9 -12 -5 -13 -5 15 -11 14 -10 -8 -8 -9 -8 -4 13 -5 12
-29 0 -29 0 0 9 0 9 13 6 12 6 -12 6 -13 6 0 9 0 9 10 0 10 0 0 -10z m-360
-280 l0 -270 -50 0 -50 0 0 270 0 270 50 0 50 0 0 -270z m320 -90 l0 -320
-100 0 -100 0 0 320 0 320 100 0 100 0 0 -320z m60 290 l0 -10 20 0 20 0 0
-10 0 -10 -20 0 -20 0 0 10 0 10 -20 0 -20 0 0 10 0 10 20 0 20 0 0 -10z m140
-310 l0 -300 -40 0 -40 0 0 300 0 300 40 0 40 0 0 -300z m-140 270 l0 -10 20
0 20 0 0 -10 0 -10 -29 0 -29 0 -5 -12 -4 -13 -9 8 -8 8 14 10 15 11 -12 5
-13 5 0 9 0 9 20 0 20 0 0 -10z m40 -59 l0 -9 -12 -6 -13 -6 13 -6 12 -6 0 -9
0 -9 -20 0 -20 0 0 10 0 10 -20 0 -20 0 0 10 0 10 20 0 20 0 0 10 0 10 20 0
20 0 0 -9z m-640 -31 l0 -20 -10 0 -10 0 0 -10 0 -10 15 0 16 0 34 -35 35 -34
0 -186 0 -185 -100 0 -100 0 0 15 0 16 70 69 70 69 0 16 0 15 10 0 10 0 0 40
0 40 -10 0 -10 0 0 16 0 15 -14 15 -15 14 -22 0 -22 0 -18 -22 -19 -21 -7 7
-7 7 14 9 14 9 -6 7 -7 6 -16 -15 -15 -16 0 -15 0 -16 -10 0 -10 0 0 40 0 40
10 0 10 0 0 15 0 16 25 24 24 25 11 0 11 0 15 14 14 15 0 15 0 16 10 0 10 0 0
-20z m880 4 l0 -15 14 -15 15 -14 11 0 11 0 24 -25 25 -24 0 -16 0 -15 10 0
10 0 0 -40 0 -40 -10 0 -10 0 0 16 0 15 -15 16 -16 15 -7 -6 -6 -7 14 -9 14
-9 -7 -7 -7 -7 -19 21 -18 22 -22 0 -22 0 -15 -14 -14 -15 0 -15 0 -16 -10 0
-10 0 0 -40 0 -40 10 0 10 0 0 -15 0 -16 70 -69 70 -69 0 -16 0 -15 -100 0
-100 0 0 185 0 186 35 34 34 35 16 0 15 0 0 10 0 10 -10 0 -10 0 0 20 0 20 10
0 10 0 0 -16z m-580 -30 l0 -5 -14 -15 -15 -14 -5 0 -6 0 0 20 0 20 20 0 20 0
0 -6z m280 -4 l0 -10 -10 0 -10 0 0 10 0 10 10 0 10 0 0 -10z m60 -20 l0 -10
-10 0 -10 0 0 10 0 10 10 0 10 0 0 -10z m-40 -20 l0 -10 20 0 20 0 0 -10 0
-10 -29 0 -29 0 -5 -12 -4 -13 -9 8 -8 8 14 10 15 11 -12 5 -13 5 0 9 0 9 20
0 20 0 0 -10z m-300 -16 l0 -5 -15 -16 -16 -15 -5 5 -6 6 13 15 14 15 8 1 7 0
0 -6z m340 -44 l0 -10 -10 0 -10 0 0 10 0 10 10 0 10 0 0 -10z m-340 -16 l0
-5 -14 -15 -15 -14 -5 0 -6 0 0 20 0 20 20 0 20 0 0 -6z m300 -4 l0 -10 20 0
20 0 0 -10 0 -10 -20 0 -20 0 0 10 0 10 -20 0 -20 0 0 10 0 10 20 0 20 0 0
-10z m0 -40 l0 -10 20 0 20 0 0 -10 0 -10 -29 0 -29 0 -5 -12 -4 -13 -9 8 -8
8 14 10 15 11 -12 5 -13 5 0 9 0 9 20 0 20 0 0 -10z m-314 -24 l14 -15 0 -15
0 -16 -20 0 -20 0 0 9 0 9 13 6 12 6 -12 6 -13 6 0 9 0 9 6 0 5 0 15 -14z
m354 -35 l0 -9 -12 -6 -13 -6 13 -6 12 -6 0 -9 0 -9 -20 0 -20 0 0 10 0 10
-20 0 -20 0 0 10 0 10 30 0 30 0 0 10 0 10 10 0 10 0 0 -9z m-340 -61 l0 -10
-20 0 -20 0 0 10 0 10 20 0 20 0 0 -10z m280 0 l0 -10 -10 0 -10 0 0 10 0 10
10 0 10 0 0 -10z m60 -19 l0 -9 -12 -5 -13 -5 15 -11 14 -10 -7 -8 -8 -7 -9
13 -8 14 -17 -16 -16 -17 16 -17 17 -16 8 14 9 13 8 -7 7 -8 -14 -10 -15 -9
15 -9 14 -10 -7 -7 -7 -7 -20 24 -21 23 -9 -14 -9 -14 -8 7 -7 8 14 10 15 9
-15 11 -15 11 13 5 12 5 0 19 0 19 20 0 20 0 0 10 0 10 10 0 10 0 0 -9z m-352
-28 l17 -16 -13 -5 -12 -4 0 -19 0 -19 -10 0 -10 0 0 19 0 19 13 6 12 6 -12 6
-13 6 0 9 0 9 6 0 5 0 17 -17z m-124 -15 l6 -13 6 13 6 12 19 0 19 0 0 -20 0
-20 -9 0 -9 0 -5 13 -5 12 -11 -15 -11 -15 -11 15 -11 15 -5 -12 -5 -13 -9 0
-9 0 0 20 0 20 19 0 19 0 6 -12z m56 -78 l0 -30 -50 0 -50 0 0 30 0 30 50 0
50 0 0 -30z m380 -20 l0 -10 -20 0 -20 0 0 10 0 10 20 0 20 0 0 -10z"/>
<path d="M340 910 l0 -30 30 0 30 0 0 30 0 30 -30 0 -30 0 0 -30z m40 0 l0
-10 -10 0 -10 0 0 10 0 10 10 0 10 0 0 -10z"/>
<path d="M340 814 l0 -7 22 -18 21 -19 -23 -20 -23 -20 8 -8 8 -7 4 13 5 12
19 0 19 0 0 40 0 40 -9 0 -9 0 -6 -12 -6 -13 -6 13 -6 12 -9 0 -9 0 0 -6z"/>
<path d="M340 690 l0 -10 10 0 10 0 0 -19 0 -19 -12 -5 -13 -5 15 -12 15 -12
-12 -5 -13 -5 0 -29 0 -29 30 0 30 0 0 20 0 20 -10 0 -10 0 0 -10 0 -10 -10 0
-10 0 0 19 0 19 13 6 12 6 -12 6 -13 6 0 9 0 9 20 0 20 0 0 10 0 10 -10 0 -10
0 0 20 0 20 -20 0 -20 0 0 -10z"/>
<path d="M340 511 l0 -9 13 -5 12 -5 -15 -11 -14 -10 6 -7 7 -6 16 16 16 16
-15 15 -15 15 -5 0 -6 0 0 -9z"/>
<path d="M560 820 l0 -20 19 0 19 0 5 13 5 12 11 -15 11 -15 11 15 11 15 5
-12 5 -13 29 0 29 0 0 10 0 10 -20 0 -20 0 0 10 0 10 -19 0 -19 0 -5 -12 -5
-13 -11 15 -11 15 -11 -15 -11 -15 -5 13 -5 12 -9 0 -9 0 0 -20z"/>
<path d="M600 730 l0 -30 20 0 20 0 0 10 0 10 -10 0 -10 0 0 20 0 20 -10 0
-10 0 0 -30z"/>
<path d="M640 750 l0 -10 10 0 10 0 0 -20 0 -20 -10 0 -10 0 0 -20 0 -20 -9 0
-9 0 -5 13 -4 12 -8 -7 -8 -8 21 -19 22 -18 0 -7 0 -6 -20 0 -20 0 0 -30 0
-30 10 0 10 0 0 -16 0 -15 14 -15 15 -14 15 0 16 0 0 9 0 9 -12 5 -13 5 15 11
14 10 -7 8 -8 7 -9 -13 -8 -14 -16 16 -16 16 0 12 0 12 22 19 22 19 -14 9 -14
9 22 19 22 19 0 22 0 22 -14 15 -15 14 -5 0 -6 0 0 -10z"/>
<path d="M660 590 l0 -10 10 0 10 0 0 10 0 10 -10 0 -10 0 0 -10z"/>
<path d="M600 490 l0 -10 10 0 10 0 0 10 0 10 -10 0 -10 0 0 -10z"/>
<path d="M640 461 l0 -19 13 -5 12 -4 -9 -9 -9 -9 -4 13 -5 12 -19 0 -19 0 0
-10 0 -10 19 0 19 0 4 -12 5 -13 16 17 17 17 0 25 0 26 -20 0 -20 0 0 -19z"/>
<path d="M600 391 l0 -9 13 -6 12 -6 -12 -6 -13 -6 0 -9 0 -9 20 0 20 0 0 -10
0 -10 -20 0 -20 0 0 -10 0 -10 30 0 30 0 0 20 0 20 10 0 10 0 0 20 0 20 -30 0
-30 0 0 10 0 10 -10 0 -10 0 0 -9z"/>
<path d="M880 834 l0 -5 14 -15 15 -14 5 0 6 0 0 20 0 20 -20 0 -20 0 0 -6z"/>
<path d="M880 770 l0 -10 20 0 20 0 0 10 0 10 -20 0 -20 0 0 -10z"/>
<path d="M880 724 l0 -15 15 -16 16 -15 7 7 7 8 -12 4 -13 5 0 19 0 19 -10 0
-10 0 0 -16z"/>
<path d="M880 634 l0 -5 14 -15 15 -14 5 0 6 0 0 20 0 20 -20 0 -20 0 0 -6z"/>
<path d="M880 574 l0 -5 14 -15 15 -14 5 0 6 0 0 20 0 20 -20 0 -20 0 0 -6z"/>
<path d="M893 505 l-13 -14 0 -16 0 -15 10 0 10 0 0 20 0 20 10 0 10 0 0 10 0
10 -7 0 -8 -1 -12 -14z"/>
<path d="M880 430 l0 -10 10 0 10 0 0 -20 0 -20 -10 0 -10 0 0 -19 0 -19 13
-5 12 -5 -15 -11 -14 -10 6 -7 7 -6 16 15 15 16 0 14 0 15 -12 6 -13 6 13 6
12 6 0 15 0 14 -14 15 -15 14 -5 0 -6 0 0 -10z"/>
<path d="M133 685 l-13 -14 0 -6 0 -5 20 0 20 0 0 20 0 20 -7 0 -8 -1 -12 -14z"/>
<path d="M1100 680 l0 -20 20 0 20 0 0 6 0 5 -14 15 -15 14 -5 0 -6 0 0 -20z"/>
<path d="M0 100 l0 -100 640 0 640 0 0 100 0 100 -640 0 -640 0 0 -100z"/>
</g>
</svg>
