<?xml version="1.0" standalone="no"?>
<!DOCTYPE svg PUBLIC "-//W3C//DTD SVG 20010904//EN"
 "http://www.w3.org/TR/2001/REC-SVG-20010904/DTD/svg10.dtd">
<svg version="1.0" xmlns="http://www.w3.org/2000/svg"
 width="468pt" height="468pt" viewBox="0 0 468 468"
 preserveAspectRatio="xMidYMid meet">
<metadata>
Created by potrace 1.8, written by Peter Selinger 2001-2007
</metadata>
<g transform="translate(0,468) scale(0.365625,-0.365625)"
fill="#000000" stroke="none">
<path d="M40 750 l0 -470 600 0 600 0 0 470 0 470 -600 0 -600 0 0 -470z m160
430 l0 -20 10 0 10 0 0 20 0 20 69 0 69 0 6 -12 6 -13 6 13 6 12 69 0 69 0 0
-20 0 -20 10 0 10 0 0 20 0 20 69 0 69 0 6 -12 6 -13 6 13 6 12 69 0 69 0 0
-20 0 -20 10 0 10 0 0 20 0 20 69 0 69 0 6 -12 6 -13 6 13 6 12 59 0 59 0 0
-20 0 -20 10 0 10 0 0 20 0 20 30 0 30 0 0 -20 0 -20 -20 0 -20 0 0 -10 0 -10
20 0 20 0 0 -70 0 -70 -30 0 -30 0 0 -10 0 -10 30 0 30 0 0 -70 0 -70 -20 0
-20 0 0 -10 0 -10 20 0 20 0 0 -70 0 -70 -36 0 -37 0 -18 22 -19 21 -19 -21
-18 -22 -27 0 -26 0 0 16 0 15 -14 15 -15 14 -5 0 -6 0 0 -16 0 -15 -14 -15
-15 -14 -21 0 -21 0 -15 14 -14 15 0 35 0 36 -10 0 -10 0 0 30 0 30 -10 0 -10
0 0 -20 0 -20 -10 0 -10 0 0 -30 0 -30 -10 0 -10 0 0 -30 0 -30 -30 0 -30 0 0
40 0 40 -10 0 -10 0 0 40 0 40 -10 0 -10 0 0 40 0 40 -10 0 -10 0 0 30 0 30
-10 0 -10 0 0 -40 0 -40 -10 0 -10 0 0 -70 0 -70 -10 0 -10 0 0 -40 0 -40 -30
0 -30 0 0 30 0 30 -10 0 -10 0 0 70 0 70 -10 0 -10 0 0 60 0 60 -10 0 -10 0 0
60 0 60 -10 0 -10 0 0 30 0 30 -10 0 -10 0 0 -40 0 -40 -10 0 -10 0 0 -80 0
-80 -10 0 -10 0 0 -80 0 -80 -10 0 -10 0 0 -50 0 -50 -30 0 -30 0 0 30 0 30
-10 0 -10 0 0 80 0 80 -10 0 -10 0 0 40 0 40 -10 0 -10 0 0 -60 0 -60 -10 0
-10 0 0 -76 0 -75 -14 -15 -15 -14 -15 0 -16 0 0 70 0 70 -10 0 -10 0 0 40 0
40 -10 0 -10 0 0 -50 0 -50 -10 0 -10 0 0 -60 0 -60 -10 0 -10 0 0 20 0 20
-10 0 -10 0 0 30 0 30 -10 0 -10 0 0 -20 0 -20 -10 0 -10 0 0 40 0 40 20 0 20
0 0 10 0 10 -20 0 -20 0 0 70 0 70 30 0 30 0 0 10 0 10 -30 0 -30 0 0 70 0 70
20 0 20 0 0 10 0 10 -20 0 -20 0 0 20 0 20 70 0 70 0 0 -20z m-100 -550 l0
-30 10 0 10 0 0 -30 0 -30 10 0 10 0 0 30 0 30 10 0 10 0 0 30 0 30 20 0 20 0
0 -80 0 -80 10 0 10 0 0 -40 0 -40 10 0 10 0 0 40 0 40 10 0 10 0 0 80 0 80
30 0 30 0 0 -40 0 -40 10 0 10 0 0 -70 0 -70 10 0 10 0 0 -40 0 -40 10 0 10 0
0 40 0 40 10 0 10 0 0 80 0 80 10 0 10 0 0 30 0 30 60 0 60 0 0 -30 0 -30 10
0 10 0 0 -50 0 -50 10 0 10 0 0 -40 0 -40 10 0 10 0 0 40 0 40 10 0 10 0 0 60
0 60 10 0 10 0 0 20 0 20 50 0 50 0 0 -40 0 -40 10 0 10 0 0 -20 0 -20 10 0
10 0 0 20 0 20 10 0 10 0 0 40 0 40 40 0 40 0 0 -30 0 -30 10 0 10 0 0 -20 0
-20 6 0 5 0 15 14 14 15 0 15 0 16 10 0 10 0 0 20 0 20 30 0 30 0 0 -16 0 -15
15 -15 15 -15 15 15 15 15 0 15 0 16 40 0 40 0 0 -10 0 -10 20 0 20 0 0 10 0
10 10 0 10 0 0 -70 0 -70 -20 0 -20 0 0 -10 0 -10 20 0 20 0 0 -70 0 -70 -20
0 -20 0 0 -10 0 -10 20 0 20 0 0 -20 0 -20 -30 0 -30 0 0 20 0 20 -10 0 -10 0
0 -20 0 -20 -59 0 -59 0 -6 13 -6 12 -6 -12 -6 -13 -69 0 -69 0 0 20 0 20 -10
0 -10 0 0 -20 0 -20 -69 0 -69 0 -6 13 -6 12 -6 -12 -6 -13 -69 0 -69 0 0 20
0 20 -10 0 -10 0 0 -20 0 -20 -69 0 -69 0 -6 13 -6 12 -6 -12 -6 -13 -69 0
-69 0 0 20 0 20 -10 0 -10 0 0 -20 0 -20 -70 0 -70 0 0 20 0 20 30 0 30 0 0
10 0 10 -30 0 -30 0 0 70 0 70 20 0 20 0 0 10 0 10 -20 0 -20 0 0 70 0 70 20
0 20 0 0 -30z m40 10 l0 -20 -10 0 -10 0 0 20 0 20 10 0 10 0 0 -20z m100 -50
l0 -70 -10 0 -10 0 0 70 0 70 10 0 10 0 0 -70z m160 50 l0 -20 -10 0 -10 0 0
-80 0 -80 -10 0 -10 0 0 70 0 70 -10 0 -10 0 0 30 0 30 30 0 30 0 0 -20z m220
10 l0 -10 -10 0 -10 0 0 -60 0 -60 -10 0 -10 0 0 50 0 50 -10 0 -10 0 0 20 0
20 30 0 30 0 0 -10z m160 -20 l0 -30 -10 0 -10 0 0 30 0 30 10 0 10 0 0 -30z
m160 24 l0 -5 -14 -15 -15 -14 -5 0 -6 0 0 20 0 20 20 0 20 0 0 -6z m120 -4
l0 -10 -10 0 -10 0 0 10 0 10 10 0 10 0 0 -10z"/>
<path d="M0 100 l0 -100 640 0 640 0 0 100 0 100 -640 0 -640 0 0 -100z"/>
</g>
</svg>
