<?xml version="1.0" standalone="no"?>
<!DOCTYPE svg PUBLIC "-//W3C//DTD SVG 20010904//EN"
 "http://www.w3.org/TR/2001/REC-SVG-20010904/DTD/svg10.dtd">
<svg version="1.0" xmlns="http://www.w3.org/2000/svg"
 width="468pt" height="468pt" viewBox="0 0 468 468"
 preserveAspectRatio="xMidYMid meet">
<metadata>
Created by potrace 1.8, written by Peter Selinger 2001-2007
</metadata>
<g transform="translate(0,468) scale(0.365625,-0.365625)"
fill="#000000" stroke="none">
<path d="M270 1145 l0 -25 -30 0 -30 0 0 -80 0 -80 30 0 30 0 0 -25 0 -25 50
0 50 0 0 25 0 25 30 0 30 0 0 80 0 80 -30 0 -30 0 0 25 0 25 -50 0 -50 0 0
-25z m100 -105 l0 -80 -50 0 -50 0 0 80 0 80 50 0 50 0 0 -80z"/>
<path d="M800 1145 l0 -25 -25 0 -25 0 0 -55 0 -55 25 0 25 0 0 -25 0 -25 55
0 55 0 0 25 0 25 25 0 25 0 0 55 0 55 -25 0 -25 0 0 25 0 25 -55 0 -55 0 0
-25z m110 -80 l0 -55 -55 0 -55 0 0 55 0 55 55 0 55 0 0 -55z"/>
<path d="M1070 1040 l0 -30 -30 0 -30 0 0 -25 0 -25 -25 0 -25 0 0 -25 0 -25
25 0 25 0 0 -30 0 -30 30 0 30 0 0 -25 0 -25 25 0 25 0 0 25 0 25 25 0 25 0 0
30 0 30 30 0 30 0 0 25 0 25 -30 0 -30 0 0 25 0 25 -25 0 -25 0 0 30 0 30 -25
0 -25 0 0 -30z m50 -55 l0 -25 25 0 25 0 0 -25 0 -25 -25 0 -25 0 0 -30 0 -30
-25 0 -25 0 0 30 0 30 -30 0 -30 0 0 25 0 25 30 0 30 0 0 25 0 25 25 0 25 0 0
-25z"/>
<path d="M640 825 l0 -25 -25 0 -25 0 0 -25 0 -25 -30 0 -30 0 0 -55 0 -55 30
0 30 0 0 -25 0 -25 50 0 50 0 0 25 0 25 30 0 30 0 0 25 0 25 25 0 25 0 0 55 0
55 -25 0 -25 0 0 25 0 25 -55 0 -55 0 0 -25z m110 -80 l0 -55 -30 0 -30 0 0
-25 0 -25 -50 0 -50 0 0 55 0 55 25 0 25 0 0 25 0 25 55 0 55 0 0 -55z"/>
<path d="M110 775 l0 -25 -30 0 -30 0 0 -55 0 -55 30 0 30 0 0 -25 0 -25 50 0
50 0 0 25 0 25 30 0 30 0 0 55 0 55 -30 0 -30 0 0 25 0 25 -50 0 -50 0 0 -25z
m100 -80 l0 -55 -50 0 -50 0 0 55 0 55 50 0 50 0 0 -55z"/>
<path d="M370 720 l0 -30 -25 0 -25 0 0 -50 0 -50 25 0 25 0 0 -30 0 -30 30 0
30 0 0 30 0 30 25 0 25 0 0 50 0 50 -25 0 -25 0 0 30 0 30 -30 0 -30 0 0 -30z
m60 -80 l0 -50 -30 0 -30 0 0 50 0 50 30 0 30 0 0 -50z"/>
<path d="M1010 720 l0 -30 -25 0 -25 0 0 -25 0 -25 -25 0 -25 0 0 -55 0 -55
25 0 25 0 0 -25 0 -25 25 0 25 0 0 -25 0 -25 30 0 30 0 0 25 0 25 25 0 25 0 0
25 0 25 25 0 25 0 0 55 0 55 -25 0 -25 0 0 25 0 25 -25 0 -25 0 0 30 0 30 -30
0 -30 0 0 -30z m60 -55 l0 -25 25 0 25 0 0 -55 0 -55 -25 0 -25 0 0 -25 0 -25
-30 0 -30 0 0 25 0 25 -25 0 -25 0 0 55 0 55 25 0 25 0 0 25 0 25 30 0 30 0 0
-25z"/>
<path d="M210 505 l0 -25 -25 0 -25 0 0 -25 0 -25 -25 0 -25 0 0 -55 0 -55 25
0 25 0 0 -25 0 -25 55 0 55 0 0 25 0 25 25 0 25 0 0 25 0 25 25 0 25 0 0 55 0
55 -25 0 -25 0 0 25 0 25 -55 0 -55 0 0 -25z m110 -80 l0 -55 -25 0 -25 0 0
-25 0 -25 -55 0 -55 0 0 55 0 55 25 0 25 0 0 25 0 25 55 0 55 0 0 -55z"/>
<path d="M480 345 l0 -25 -25 0 -25 0 0 -55 0 -55 25 0 25 0 0 -25 0 -25 105
0 105 0 0 25 0 25 30 0 30 0 0 55 0 55 -30 0 -30 0 0 25 0 25 -105 0 -105 0 0
-25z m210 -80 l0 -55 -105 0 -105 0 0 55 0 55 105 0 105 0 0 -55z"/>
<path d="M910 345 l0 -25 -30 0 -30 0 0 -80 0 -80 30 0 30 0 0 -25 0 -25 25 0
25 0 0 25 0 25 25 0 25 0 0 80 0 80 -25 0 -25 0 0 25 0 25 -25 0 -25 0 0 -25z
m50 -105 l0 -80 -25 0 -25 0 0 80 0 80 25 0 25 0 0 -80z"/>
</g>
</svg>
