<?xml version="1.0" standalone="no"?>
<!DOCTYPE svg PUBLIC "-//W3C//DTD SVG 20010904//EN"
 "http://www.w3.org/TR/2001/REC-SVG-20010904/DTD/svg10.dtd">
<svg version="1.0" xmlns="http://www.w3.org/2000/svg"
 width="468pt" height="468pt" viewBox="0 0 468 468"
 preserveAspectRatio="xMidYMid meet">
<metadata>
Created by potrace 1.8, written by Peter Selinger 2001-2007
</metadata>
<g transform="translate(0,468) scale(0.365625,-0.365625)"
fill="#000000" stroke="none">
<path d="M830 1250 l0 -30 -255 0 -255 0 0 -35 0 -35 -65 0 -65 0 0 -30 0 -30
-30 0 -30 0 0 -35 0 -35 -35 0 -35 0 0 -95 0 -95 -30 0 -30 0 0 -65 0 -65 30
0 30 0 0 65 0 65 35 0 35 0 0 -160 0 -160 -35 0 -35 0 0 -95 0 -95 -30 0 -30
0 0 -160 0 -160 640 0 640 0 0 160 0 160 -160 0 -160 0 0 225 0 225 30 0 30 0
0 30 0 30 35 0 35 0 0 -30 0 -30 30 0 30 0 0 -160 0 -160 -30 0 -30 0 0 -35 0
-35 65 0 65 0 0 65 0 65 30 0 30 0 0 290 0 290 -30 0 -30 0 0 65 0 65 -35 0
-35 0 0 30 0 30 -160 0 -160 0 0 -30z m-130 -675 l0 -65 -30 0 -30 0 0 -95 0
-95 -95 0 -95 0 0 95 0 95 30 0 30 0 0 35 0 35 35 0 35 0 0 30 0 30 60 0 60 0
0 -65z m-380 -125 l0 -130 -65 0 -65 0 0 65 0 65 35 0 35 0 0 65 0 65 30 0 30
0 0 -130z m510 -35 l0 -95 -30 0 -30 0 0 95 0 95 30 0 30 0 0 -95z"/>
</g>
</svg>
