<?xml version="1.0" standalone="no"?>
<!DOCTYPE svg PUBLIC "-//W3C//DTD SVG 20010904//EN"
 "http://www.w3.org/TR/2001/REC-SVG-20010904/DTD/svg10.dtd">
<svg version="1.0" xmlns="http://www.w3.org/2000/svg"
 width="468pt" height="468pt" viewBox="0 0 468 468"
 preserveAspectRatio="xMidYMid meet">
<metadata>
Created by potrace 1.8, written by Peter Selinger 2001-2007
</metadata>
<g transform="translate(0,468) scale(0.365625,-0.365625)"
fill="#000000" stroke="none">
<path d="M343 1215 l-43 -45 0 -15 0 -15 -10 0 -10 0 0 -40 0 -40 -10 0 -10 0
0 -20 0 -20 10 0 10 0 0 -15 0 -16 25 -24 24 -25 16 0 15 0 0 10 0 10 20 0 20
0 0 10 0 10 10 0 10 0 0 -20 0 -20 -10 0 -10 0 0 -20 0 -20 10 0 10 0 0 -39 0
-39 13 -6 12 -6 -12 -6 -13 -6 0 -19 0 -19 -20 0 -20 0 0 -16 0 -16 -30 -28
-30 -28 0 -16 0 -16 -20 0 -20 0 0 -10 0 -10 -30 0 -30 0 0 -20 0 -20 -10 0
-10 0 0 -40 0 -40 10 0 10 0 0 -20 0 -20 -30 0 -30 0 0 -10 0 -10 -20 0 -20 0
0 -16 0 -16 -30 -28 -30 -28 0 -16 0 -16 50 0 50 0 0 10 0 10 58 0 58 0 14
-20 14 -20 77 0 77 0 6 13 6 12 6 -12 6 -13 89 0 89 0 0 -16 0 -15 14 -15 15
-14 15 0 16 0 0 -10 0 -10 20 0 20 0 0 -10 0 -10 -380 0 -380 0 0 -100 0 -100
640 0 640 0 0 100 0 100 -220 0 -220 0 0 40 0 40 20 0 20 0 0 10 0 10 20 0 20
0 0 -10 0 -10 40 0 40 0 0 10 0 10 20 0 20 0 0 30 0 30 -10 0 -10 0 0 20 0 20
40 0 40 0 0 -10 0 -10 -10 0 -10 0 0 -40 0 -40 70 0 70 0 0 30 0 30 -10 0 -10
0 0 30 0 30 -10 0 -10 0 0 20 0 20 10 0 10 0 0 50 0 50 -10 0 -10 0 0 20 0 20
-10 0 -10 0 0 18 0 18 20 14 20 14 0 18 0 18 10 0 10 0 0 36 0 37 -22 20 -23
20 13 4 12 5 0 49 0 49 -10 0 -10 0 0 20 0 20 -26 0 -26 0 -28 -30 -28 -30
-26 0 -26 0 0 10 0 10 -38 0 -38 0 -14 -20 -14 -20 -28 0 -28 0 0 10 0 10 -26
0 -25 0 -15 -14 -14 -15 0 -35 0 -36 10 0 10 0 0 -20 0 -20 10 0 10 0 0 -20 0
-20 -10 0 -10 0 0 -20 0 -20 10 0 10 0 0 -20 0 -20 10 0 10 0 0 -20 0 -20 -6
0 -5 0 -15 14 -14 15 0 23 0 24 -20 14 -20 14 0 14 0 14 -31 29 -32 29 22 19
21 18 0 26 0 25 13 5 12 5 -15 12 -15 12 13 5 12 5 0 19 0 19 10 0 10 0 0 -10
0 -10 45 0 46 0 24 25 25 24 0 16 0 15 10 0 10 0 0 20 0 20 -10 0 -10 0 0 18
0 18 -20 14 -20 14 0 18 0 18 -10 0 -10 0 0 15 0 16 -25 24 -24 25 -56 0 -55
0 0 -10 0 -10 -18 0 -18 0 -14 20 -14 20 -28 0 -28 0 0 -20 0 -20 -30 0 -30 0
0 10 0 10 -20 0 -20 0 0 10 0 10 -47 -1 -48 0 -42 -44z m317 -25 l0 -10 16 0
15 0 15 -14 14 -15 0 -15 0 -16 10 0 10 0 0 -50 0 -50 -10 0 -10 0 0 -20 0
-20 10 0 10 0 0 -20 0 -20 -10 0 -10 0 0 -40 0 -40 -10 0 -10 0 0 -16 0 -15
-14 -15 -15 -14 -35 0 -36 0 0 8 0 8 20 14 20 14 0 8 0 8 -30 0 -30 0 0 10 0
10 10 0 10 0 0 20 0 20 10 0 10 0 0 30 0 30 -40 0 -40 0 0 -39 0 -39 13 -5 12
-4 -22 -20 -23 -20 0 -17 0 -16 -26 0 -25 0 -15 14 -14 15 0 14 0 15 13 5 12
4 -25 23 -25 23 13 4 12 5 0 19 0 19 10 0 10 0 0 20 0 20 -10 0 -10 0 0 10 0
10 20 0 20 0 0 9 0 9 -12 6 -13 6 13 6 12 6 0 19 0 19 10 0 10 0 0 20 0 20 18
0 18 0 14 20 14 20 48 0 48 0 0 -10z m126 -84 l14 -15 0 -25 0 -26 -20 0 -20
0 0 40 0 40 6 0 5 0 15 -14z m380 -180 l14 -15 0 -35 0 -36 -10 0 -10 0 0 -19
0 -19 -12 -5 -13 -5 15 -12 15 -12 -12 -5 -13 -5 0 -19 0 -19 10 0 10 0 0 -26
0 -25 -14 -15 -15 -14 -25 0 -26 0 0 -10 0 -10 -80 0 -80 0 0 10 0 10 -20 0
-20 0 0 20 0 20 10 0 10 0 0 10 0 10 -30 0 -30 0 0 40 0 40 20 0 20 0 0 15 0
16 25 24 24 25 25 0 24 0 6 13 6 12 6 -12 6 -13 19 0 19 0 0 10 0 10 10 0 10
0 0 -20 0 -20 36 0 35 0 15 14 14 15 0 25 0 26 -10 0 -10 0 0 10 0 10 6 0 5 0
15 -14z m-606 -136 l0 -10 -20 0 -20 0 0 10 0 10 20 0 20 0 0 -10z m120 -40
l0 -10 20 0 20 0 0 -18 0 -18 20 -14 20 -14 0 -18 0 -18 10 0 10 0 0 -35 0
-36 -25 -24 -24 -25 -6 0 -5 0 0 20 0 20 10 0 10 0 0 40 0 40 -6 0 -5 0 -15
-14 -14 -15 0 -11 0 -11 -14 -15 -15 -14 -45 0 -46 0 0 -8 0 -8 20 -14 20 -14
0 -56 0 -56 20 -14 20 -14 0 -28 0 -28 -20 0 -20 0 0 20 0 20 -19 0 -19 0 -5
-12 -5 -13 -12 15 -12 15 -5 -12 -5 -13 -19 0 -19 0 0 16 0 15 16 16 16 16 8
-13 8 -13 16 16 16 16 0 5 0 6 -30 0 -30 0 0 30 0 30 -10 0 -10 0 0 30 0 30
-10 0 -10 0 0 20 0 20 -10 0 -10 0 0 60 0 60 10 0 10 0 0 20 0 20 90 0 90 0 0
10 0 10 10 0 10 0 0 -10z m-325 -195 l45 -44 0 -16 0 -15 10 0 10 0 0 -40 0
-40 -55 0 -56 0 -34 35 -35 34 0 51 0 51 13 14 12 14 23 1 23 0 44 -45z m525
35 l0 -10 40 0 40 0 0 -10 0 -10 70 0 70 0 0 10 0 10 30 0 30 0 0 -20 0 -20
10 0 10 0 0 -20 0 -20 -10 0 -10 0 0 -58 0 -58 20 -14 20 -14 0 -8 0 -8 -40 0
-40 0 0 66 0 65 -14 15 -15 14 -15 0 -16 0 0 -30 0 -30 -18 0 -18 0 -14 20
-14 20 -8 0 -8 0 0 -60 0 -60 10 0 10 0 0 -20 0 -20 -5 0 -6 0 -24 25 -25 24
0 16 0 15 -10 0 -10 0 0 40 0 40 -6 0 -5 0 -17 -17 -17 -16 13 -5 12 -4 0 -29
0 -29 10 0 10 0 0 -10 0 -10 -20 0 -20 0 0 10 0 10 -30 0 -30 0 0 -10 0 -10
-26 0 -25 0 -15 -14 -14 -15 0 -11 0 -11 14 -15 15 -14 11 0 11 0 15 -14 14
-15 0 -15 0 -16 -16 0 -16 0 -28 30 -28 30 -16 0 -16 0 0 30 0 30 10 0 10 0 0
30 0 30 10 0 10 0 0 40 0 40 10 0 10 0 0 15 0 16 35 34 34 35 16 0 15 0 0 10
0 10 10 0 10 0 0 -10z m-194 -64 l14 -15 0 -55 0 -56 -16 0 -15 0 -15 14 -14
15 0 41 0 41 13 14 12 14 3 1 3 0 15 -14z m-260 -160 l14 -15 0 -15 0 -16 -10
0 -10 0 0 10 0 10 -50 0 -50 0 0 10 0 10 20 0 20 0 0 10 0 10 26 0 25 0 15
-14z m454 -36 l0 -10 -30 0 -30 0 0 10 0 10 30 0 30 0 0 -10z"/>
<path d="M533 1085 l-13 -14 0 -11 0 -11 14 -15 15 -14 5 0 6 0 0 40 0 40 -7
0 -8 -1 -12 -14z"/>
<path d="M620 1060 l0 -40 6 0 5 0 15 14 14 15 0 11 0 11 -14 15 -15 14 -5 0
-6 0 0 -40z"/>
<path d="M1040 800 l0 -20 20 0 20 0 0 6 0 5 -14 15 -15 14 -5 0 -6 0 0 -20z"/>
<path d="M940 780 l0 -20 20 0 20 0 0 20 0 20 -20 0 -20 0 0 -20z"/>
<path d="M990 743 l-14 -17 12 -4 12 -4 0 -9 0 -9 -16 0 -15 0 -15 -15 -15
-15 15 -15 15 -15 15 0 16 0 0 10 0 10 36 0 35 0 15 14 14 15 0 5 0 6 -30 0
-30 0 0 16 0 15 -14 15 -15 14 -3 0 -3 -1 -15 -16z"/>
</g>
</svg>
