<?xml version="1.0" standalone="no"?>
<!DOCTYPE svg PUBLIC "-//W3C//DTD SVG 20010904//EN"
 "http://www.w3.org/TR/2001/REC-SVG-20010904/DTD/svg10.dtd">
<svg version="1.0" xmlns="http://www.w3.org/2000/svg"
 width="468pt" height="468pt" viewBox="0 0 468 468"
 preserveAspectRatio="xMidYMid meet">
<metadata>
Created by potrace 1.8, written by Peter Selinger 2001-2007
</metadata>
<g transform="translate(0,468) scale(0.365625,-0.365625)"
fill="#000000" stroke="none">
<path d="M1068 1272 l-58 -3 0 -9 0 -10 48 0 47 0 23 -6 22 -6 0 15 0 15 -12
3 -13 4 -57 -3z"/>
<path d="M1170 1271 l15 -11 -15 -11 -15 -11 15 5 15 4 0 13 0 13 -15 4 -15 5
15 -11z"/>
<path d="M980 1260 l0 -10 -45 0 -45 0 0 -15 0 -15 10 0 10 0 0 10 0 10 45 0
45 0 0 15 0 15 -10 0 -10 0 0 -10z"/>
<path d="M693 1243 l-83 -4 0 -9 0 -10 -74 0 -74 0 -16 -6 -16 -6 0 -9 0 -9
90 0 90 0 0 15 0 15 10 0 10 0 1 -17 1 -18 5 13 5 12 64 0 64 0 0 15 0 15 10
0 10 0 0 -13 0 -12 45 3 45 4 0 14 0 14 -52 -2 -53 -2 -82 -3z"/>
<path d="M382 1225 l-13 -15 11 0 10 0 0 -9 0 -8 -100 -8 -100 -7 0 -8 0 -8
-75 -7 -75 -7 0 -9 0 -9 -20 0 -20 0 0 -565 0 -565 640 0 640 0 0 255 0 255
-367 2 -368 2 93 3 92 4 0 8 0 9 155 7 155 7 0 8 0 7 112 7 112 7 8 12 8 12 0
143 0 142 -15 0 -15 0 0 9 0 10 -45 7 -45 6 0 9 0 8 -45 7 -45 6 0 9 0 8 -45
7 -45 6 0 8 0 8 -29 5 -29 6 -6 25 -6 25 -20 6 -20 6 -11 -6 -10 -7 4 -12 5
-12 -29 4 -29 4 0 9 0 8 -45 7 -45 6 0 4 0 4 20 20 20 20 5 0 5 0 0 -16 0 -15
17 3 16 3 4 12 4 12 -36 7 -36 6 -36 -5 -36 -6 -9 -13 -8 -13 -7 11 -8 12 -42
7 -43 7 0 8 0 7 -41 7 -41 7 -14 14 -15 14 -13 -5 -13 -5 -6 20 -5 21 19 0 19
0 0 10 0 10 -17 0 -18 -1 -13 -14z m8 -361 l0 -315 -14 -15 -15 -14 -161 0
-161 0 -15 14 -14 15 0 125 0 126 120 0 120 0 0 180 0 180 25 0 25 0 0 10 0
10 45 0 45 0 0 -316z m-170 126 l0 -170 -62 1 -63 1 14 5 14 6 18 16 19 15 0
21 0 21 -22 18 -21 19 -22 0 -22 0 -21 -19 -22 -18 0 -21 0 -21 19 -15 18 -16
14 -6 14 -5 -42 -1 -43 -1 0 150 0 149 60 7 60 7 0 8 0 8 43 4 42 4 3 1 2 2 0
-170z m260 149 l6 -8 42 -7 42 -7 0 -7 0 -8 40 -7 40 -7 0 -8 0 -8 43 -6 42
-6 -3 -252 -3 -252 -12 -8 -12 -8 -82 0 -83 0 0 -10 0 -10 -56 0 -55 0 -15 14
-14 15 0 306 0 306 38 -7 37 -7 5 -8z m250 -29 l0 -10 -10 0 -10 0 0 10 0 10
10 0 10 0 0 -10z m180 -89 l0 -11 -10 0 -10 0 0 9 0 9 -7 19 -7 18 17 -17 17
-17 0 -10z m-80 0 l5 -9 43 -7 42 -7 0 -8 0 -8 45 -6 45 -7 0 -8 0 -9 45 -6
45 -7 0 -8 0 -9 45 -6 45 -7 0 -10 0 -9 24 0 24 0 16 -6 16 -6 0 -123 0 -123
-12 -5 -13 -5 15 -12 15 -11 -57 4 -58 4 0 -14 0 -13 -50 0 -50 0 0 180 0 180
-10 0 -10 0 -2 -182 -3 -183 -77 -3 -78 -3 0 -9 0 -10 -70 0 -70 0 0 246 0
247 42 -7 42 -7 6 -8z m-726 -107 l16 -6 0 -23 0 -24 -20 -6 -20 -6 -20 6 -20
6 0 24 0 23 13 5 12 5 12 1 11 1 16 -6z"/>
<path d="M60 755 l0 -15 20 0 20 0 0 15 0 15 -20 0 -20 0 0 -15z"/>
<path d="M200 730 l-15 -10 15 -10 15 -10 15 3 15 2 0 15 0 15 -15 2 -15 3
-15 -10z m40 -10 l0 -10 -15 0 -15 0 0 10 0 10 15 0 15 0 0 -10z"/>
<path d="M60 715 l0 -15 20 0 20 0 0 15 0 15 -20 0 -20 0 0 -15z"/>
<path d="M60 665 l0 -15 20 0 20 0 0 15 0 15 -20 0 -20 0 0 -15z"/>
<path d="M203 655 l-13 -14 20 -6 20 -6 9 6 10 6 -6 14 -5 15 -12 0 -11 -1
-12 -14z m34 -11 l-6 -6 -13 5 -13 5 19 1 19 1 -6 -6z"/>
<path d="M60 625 l0 -15 20 0 20 0 0 15 0 15 -20 0 -20 0 0 -15z"/>
<path d="M48 1101 l-18 -18 0 -19 0 -20 20 -17 20 -17 29 0 29 0 5 13 5 12 10
-14 10 -13 0 57 0 57 -10 -13 -10 -14 -5 13 -5 12 -31 -1 -32 0 -17 -18z m56
-7 l16 -6 0 -23 0 -24 -20 -6 -20 -6 -20 6 -20 6 0 24 0 23 13 5 12 5 12 1 11
1 16 -6z"/>
<path d="M128 988 l-5 -13 4 -12 5 -13 25 0 24 0 13 13 13 13 -13 12 -13 12
-25 0 -24 0 -4 -12z m29 -14 l-6 -6 -13 5 -13 5 19 1 19 1 -6 -6z"/>
<path d="M541 1033 l-13 -5 -18 -18 -18 -18 -7 -24 -8 -23 -11 -7 -11 -7 0
-97 0 -97 13 -4 12 -5 0 -23 0 -23 6 -16 6 -16 9 0 9 0 0 14 0 14 -11 4 -11 4
-2 124 -2 125 4 18 4 17 9 0 9 0 0 -15 0 -15 -10 0 -10 0 0 -25 0 -25 10 0 10
0 0 -60 0 -60 -10 0 -10 0 0 -20 0 -20 9 0 10 0 4 -27 5 -28 -1 164 -1 165 12
2 13 3 -11 -6 -10 -5 0 -14 0 -14 10 0 10 0 0 -145 0 -145 -10 0 -10 0 0 -14
0 -14 15 -6 15 -5 0 194 0 195 10 0 10 0 0 -195 0 -195 -12 0 -13 0 15 -10 14
-9 -6 -6 -6 -7 -22 22 -22 22 -4 -5 -4 -4 6 -16 6 -16 29 -6 29 -7 30 7 30 7
0 8 0 9 16 16 17 16 1 140 1 140 -11 7 -11 7 -12 36 -12 37 -22 6 -22 6 -15
-1 -15 -1 -14 -5z m59 -213 l0 -210 -10 0 -10 0 0 210 0 210 10 0 10 0 0 -210z
m30 0 l0 -190 -10 0 -10 0 0 190 0 190 10 0 10 0 0 -190z m17 -82 l-3 -73 0
140 0 140 3 -67 4 -67 -4 -73z m-167 92 l0 -60 -10 0 -10 0 0 60 0 60 10 0 10
0 0 -60z"/>
<path d="M680 795 l0 -55 10 0 10 0 0 55 0 55 -10 0 -10 0 0 -55z"/>
<path d="M760 952 l0 -60 63 -7 62 -7 5 -8 5 -7 68 -7 67 -8 0 32 0 31 -14 15
-15 14 -30 6 -31 7 0 7 0 7 -39 7 -39 6 -16 -6 -16 -6 0 -40 0 -39 -15 15 -16
15 -14 -5 -15 -6 0 46 0 46 15 0 15 0 0 -16 0 -15 23 7 22 6 4 4 4 4 -4 4 -4
4 -42 7 -43 7 0 -60z m130 3 l0 -15 25 6 25 6 1 -18 1 -19 5 13 5 12 15 0 15
0 -5 -14 -6 -15 15 6 14 5 0 -31 0 -31 -15 0 -15 0 0 14 0 14 -40 -4 -40 -4
-1 18 -1 17 -5 -12 -5 -13 -9 0 -9 0 0 40 0 40 15 0 15 0 0 -15z"/>
<path d="M1118 860 l-16 -18 -7 -21 -6 -21 -10 0 -9 0 0 -45 0 -45 9 0 9 0 7
-30 7 -30 9 0 9 0 0 15 0 15 -10 0 -10 0 0 15 0 15 9 0 10 0 4 43 4 42 -1 -80
-1 -80 28 0 27 0 0 8 0 7 0 100 0 100 -10 0 -9 0 -4 -107 -3 -108 -2 108 -2
107 -10 0 -10 0 0 -14 0 -15 -14 -14 -15 -14 -4 -44 -4 -44 -1 47 -2 47 13 13
13 13 7 17 6 17 28 -2 28 -2 3 -103 3 -102 8 0 9 0 4 13 4 12 -2 81 -1 81 -22
22 -21 21 -17 -1 -18 -1 -17 -18z"/>
<path d="M791 844 l1 -19 5 13 5 13 -6 6 -6 6 1 -19z"/>
<path d="M820 845 l0 -15 15 0 15 0 0 15 0 15 -15 0 -15 0 0 -15z"/>
<path d="M881 834 l1 -19 5 13 5 13 -6 6 -6 6 1 -19z"/>
<path d="M910 835 l0 -15 15 0 15 0 0 15 0 15 -15 0 -15 0 0 -15z"/>
<path d="M950 815 l0 -15 10 0 10 0 0 15 0 15 -10 0 -10 0 0 -15z"/>
<path d="M980 815 l0 -15 15 0 15 0 0 15 0 15 -15 0 -15 0 0 -15z"/>
<path d="M760 790 l0 -30 14 0 15 0 6 10 6 10 -6 20 -6 20 -15 0 -14 0 0 -30z
m30 -5 l0 -15 -10 0 -10 0 0 15 0 15 10 0 10 0 0 -15z"/>
<path d="M820 770 l0 -30 14 0 15 0 6 20 6 20 -6 10 -6 10 -15 0 -14 0 0 -30z
m30 5 l0 -15 -10 0 -10 0 0 15 0 15 10 0 10 0 0 -15z"/>
<path d="M880 759 l0 -32 -60 6 -60 5 0 -79 0 -79 65 0 65 0 0 10 0 10 70 0
70 0 0 49 0 48 -46 7 -47 6 -28 0 -29 0 0 10 0 10 14 0 15 0 6 10 6 10 -6 20
-6 20 -15 0 -14 0 0 -31z m30 -4 l0 -15 -10 0 -10 0 0 15 0 15 10 0 10 0 0
-15z m-120 -34 l0 -9 90 -7 90 -7 0 -9 0 -9 20 0 20 0 0 -35 0 -35 -37 0 -38
0 -82 -7 -83 -6 0 67 0 66 10 0 10 0 0 -9z"/>
<path d="M792 653 l1 -48 4 38 4 37 10 0 9 0 0 10 0 10 -15 0 -15 0 2 -47z"/>
<path d="M974 654 l6 -16 0 -4 0 -4 10 0 10 0 0 20 0 20 -16 0 -16 0 6 -16z"/>
<path d="M940 760 l0 -30 14 0 15 0 6 10 6 10 -6 20 -6 20 -15 0 -14 0 0 -30z
m30 -5 l0 -15 -10 0 -10 0 0 15 0 15 10 0 10 0 0 -15z"/>
<path d="M1220 745 l0 -45 10 0 10 0 0 45 0 45 -10 0 -10 0 0 -45z"/>
<path d="M1000 739 l0 -30 15 15 15 15 0 9 0 10 -15 6 -15 5 0 -30z"/>
<path d="M1190 620 l0 -10 10 0 10 0 0 10 0 10 -10 0 -10 0 0 -10z"/>
<path d="M1220 620 l0 -10 10 0 10 0 0 10 0 10 -10 0 -10 0 0 -10z"/>
<path d="M797 1094 l-7 -7 0 -8 0 -7 26 -6 27 -7 10 10 11 11 -5 4 -4 4 -25 7
-26 6 -7 -7z"/>
</g>
</svg>
