<?xml version="1.0" standalone="no"?>
<!DOCTYPE svg PUBLIC "-//W3C//DTD SVG 20010904//EN"
 "http://www.w3.org/TR/2001/REC-SVG-20010904/DTD/svg10.dtd">
<svg version="1.0" xmlns="http://www.w3.org/2000/svg"
 width="468pt" height="468pt" viewBox="0 0 468 468"
 preserveAspectRatio="xMidYMid meet">
<metadata>
Created by potrace 1.8, written by Peter Selinger 2001-2007
</metadata>
<g transform="translate(0,468) scale(0.365625,-0.365625)"
fill="#000000" stroke="none">
<path d="M1140 1250 l0 -10 -330 0 -330 0 0 -10 0 -10 -30 0 -30 0 0 -10 0
-10 -30 0 -30 0 0 -10 0 -10 -15 0 -15 0 -65 -65 -65 -65 0 -15 0 -15 -10 0
-10 0 0 -20 0 -20 -10 0 -10 0 0 -20 0 -20 10 0 10 0 0 20 0 20 10 0 10 0 0
15 0 16 45 44 44 45 16 0 15 0 0 10 0 10 20 0 20 0 0 10 0 10 20 0 20 0 0 10
0 10 30 0 30 0 0 10 0 10 340 0 340 0 0 -10 0 -10 26 0 25 0 15 14 14 15 0 21
0 21 -14 15 -15 14 -25 0 -26 0 0 -10z"/>
<path d="M1080 1130 l0 -10 -310 0 -310 0 0 -10 0 -10 -30 0 -30 0 0 -10 0
-10 -18 0 -18 0 -14 -20 -14 -20 -14 0 -13 0 -24 -25 -25 -24 0 -13 0 -14 -20
-14 -20 -14 0 -18 0 -18 -10 0 -10 0 0 -20 0 -20 -10 0 -10 0 0 -30 0 -30 10
0 10 0 0 30 0 30 10 0 10 0 0 15 0 15 55 55 55 55 15 0 15 0 0 10 0 10 20 0
20 0 0 10 0 10 20 0 20 0 0 10 0 10 320 0 320 0 0 -10 0 -10 26 0 25 0 15 14
14 15 0 21 0 21 -14 15 -15 14 -25 0 -26 0 0 -10z"/>
<path d="M1020 1010 l0 -10 -290 0 -290 0 0 -10 0 -10 -20 0 -20 0 0 -10 0
-10 -15 0 -16 0 -24 -25 -25 -24 0 -13 0 -14 -20 -14 -20 -14 0 -18 0 -18 -10
0 -10 0 0 -20 0 -20 -10 0 -10 0 0 -20 0 -20 10 0 10 0 0 20 0 20 10 0 10 0 0
15 0 15 55 55 55 55 15 0 15 0 0 10 0 10 300 0 300 0 0 -10 0 -10 26 0 25 0
15 14 14 15 0 21 0 21 -14 15 -15 14 -25 0 -26 0 0 -10z"/>
<path d="M580 890 l0 -10 -15 0 -16 0 -34 -35 -35 -34 0 -16 0 -15 -10 0 -10
0 0 -40 0 -40 10 0 10 0 0 -15 0 -16 35 -34 34 -35 16 0 15 0 0 -10 0 -10 70
0 70 0 0 10 0 10 15 0 16 0 34 35 35 34 0 16 0 15 10 0 10 0 0 40 0 40 -10 0
-10 0 0 15 0 16 -35 34 -34 35 -16 0 -15 0 0 10 0 10 -70 0 -70 0 0 -10z"/>
<path d="M1040 720 l0 -20 -10 0 -10 0 0 -15 0 -15 -55 -55 -55 -55 -15 0 -15
0 0 -10 0 -10 -300 0 -300 0 0 10 0 10 -26 0 -25 0 -15 -14 -14 -15 0 -21 0
-21 14 -15 15 -14 25 0 26 0 0 10 0 10 290 0 290 0 0 10 0 10 20 0 20 0 0 10
0 10 15 0 16 0 24 25 25 24 0 13 0 14 20 14 20 14 0 18 0 18 10 0 10 0 0 20 0
20 10 0 10 0 0 20 0 20 -10 0 -10 0 0 -20z"/>
<path d="M1100 650 l0 -30 -10 0 -10 0 0 -15 0 -15 -55 -55 -55 -55 -15 0 -15
0 0 -10 0 -10 -20 0 -20 0 0 -10 0 -10 -20 0 -20 0 0 -10 0 -10 -320 0 -320 0
0 10 0 10 -26 0 -25 0 -15 -14 -14 -15 0 -21 0 -21 14 -15 15 -14 25 0 26 0 0
10 0 10 310 0 310 0 0 10 0 10 30 0 30 0 0 10 0 10 18 0 18 0 14 20 14 20 14
0 13 0 24 25 25 24 0 13 0 14 20 14 20 14 0 18 0 18 10 0 10 0 0 20 0 20 10 0
10 0 0 30 0 30 -10 0 -10 0 0 -30z"/>
<path d="M1120 520 l0 -20 -10 0 -10 0 0 -15 0 -16 -45 -44 -44 -45 -16 0 -15
0 0 -10 0 -10 -20 0 -20 0 0 -10 0 -10 -20 0 -20 0 0 -10 0 -10 -30 0 -30 0 0
-10 0 -10 -340 0 -340 0 0 10 0 10 -26 0 -25 0 -15 -14 -14 -15 0 -21 0 -21
14 -15 15 -14 25 0 26 0 0 10 0 10 330 0 330 0 0 10 0 10 30 0 30 0 0 10 0 10
30 0 30 0 0 10 0 10 15 0 15 0 65 65 65 65 0 15 0 15 10 0 10 0 0 20 0 20 10
0 10 0 0 20 0 20 -10 0 -10 0 0 -20z"/>
<path d="M0 100 l0 -100 640 0 640 0 0 100 0 100 -640 0 -640 0 0 -100z"/>
</g>
</svg>
