<?xml version="1.0" standalone="no"?>
<!DOCTYPE svg PUBLIC "-//W3C//DTD SVG 20010904//EN"
 "http://www.w3.org/TR/2001/REC-SVG-20010904/DTD/svg10.dtd">
<svg version="1.0" xmlns="http://www.w3.org/2000/svg"
 width="468pt" height="468pt" viewBox="0 0 468 468"
 preserveAspectRatio="xMidYMid meet">
<metadata>
Created by potrace 1.8, written by Peter Selinger 2001-2007
</metadata>
<g transform="translate(0,468) scale(0.365625,-0.365625)"
fill="#000000" stroke="none">
<path d="M0 960 l0 -50 640 0 640 0 0 25 0 25 -25 0 -25 0 0 25 0 25 -30 0
-30 0 0 -25 0 -25 -25 0 -25 0 0 25 0 25 -25 0 -25 0 0 -25 0 -25 -30 0 -30 0
0 25 0 25 -25 0 -25 0 0 -25 0 -25 -25 0 -25 0 0 25 0 25 -30 0 -30 0 0 -25 0
-25 -25 0 -25 0 0 25 0 25 -25 0 -25 0 0 -25 0 -25 -30 0 -30 0 0 25 0 25 -25
0 -25 0 0 -25 0 -25 -25 0 -25 0 0 25 0 25 -30 0 -30 0 0 -25 0 -25 -25 0 -25
0 0 25 0 25 -25 0 -25 0 0 -25 0 -25 -30 0 -30 0 0 25 0 25 -25 0 -25 0 0 -25
0 -25 -25 0 -25 0 0 25 0 25 -30 0 -30 0 0 -25 0 -25 -25 0 -25 0 0 25 0 25
-25 0 -25 0 0 -25 0 -25 -30 0 -30 0 0 25 0 25 -25 0 -25 0 0 -50z"/>
<path d="M0 745 l0 -55 640 0 640 0 0 30 0 30 -25 0 -25 0 0 25 0 25 -30 0
-30 0 0 -25 0 -25 -25 0 -25 0 0 25 0 25 -25 0 -25 0 0 -25 0 -25 -30 0 -30 0
0 25 0 25 -25 0 -25 0 0 -25 0 -25 -25 0 -25 0 0 25 0 25 -30 0 -30 0 0 -25 0
-25 -25 0 -25 0 0 25 0 25 -25 0 -25 0 0 -25 0 -25 -30 0 -30 0 0 25 0 25 -25
0 -25 0 0 -25 0 -25 -25 0 -25 0 0 25 0 25 -30 0 -30 0 0 -25 0 -25 -25 0 -25
0 0 25 0 25 -25 0 -25 0 0 -25 0 -25 -30 0 -30 0 0 25 0 25 -25 0 -25 0 0 -25
0 -25 -25 0 -25 0 0 25 0 25 -30 0 -30 0 0 -25 0 -25 -25 0 -25 0 0 25 0 25
-25 0 -25 0 0 -25 0 -25 -30 0 -30 0 0 25 0 25 -25 0 -25 0 0 -55z"/>
<path d="M50 585 l0 -55 30 0 30 0 0 55 0 55 -30 0 -30 0 0 -55z"/>
<path d="M270 585 l0 -55 25 0 25 0 0 55 0 55 -25 0 -25 0 0 -55z"/>
<path d="M910 585 l0 -55 25 0 25 0 0 55 0 55 -25 0 -25 0 0 -55z"/>
<path d="M1120 585 l0 -55 25 0 25 0 0 55 0 55 -25 0 -25 0 0 -55z"/>
<path d="M530 560 l0 -30 -25 0 -25 0 0 -25 0 -25 -25 0 -25 0 0 -55 0 -55
-30 0 -30 0 0 -50 0 -50 -25 0 -25 0 0 -30 0 -30 -160 0 -160 0 0 -25 0 -25
185 0 185 0 0 55 0 55 30 0 30 0 0 50 0 50 25 0 25 0 0 55 0 55 25 0 25 0 0
25 0 25 30 0 30 0 0 -185 0 -185 345 0 345 0 0 25 0 25 -295 0 -295 0 0 55 0
55 30 0 30 0 0 55 0 55 25 0 25 0 0 50 0 50 -25 0 -25 0 0 30 0 30 -110 0
-110 0 0 -30z"/>
</g>
</svg>
