<?xml version="1.0" standalone="no"?>
<!DOCTYPE svg PUBLIC "-//W3C//DTD SVG 20010904//EN"
 "http://www.w3.org/TR/2001/REC-SVG-20010904/DTD/svg10.dtd">
<svg version="1.0" xmlns="http://www.w3.org/2000/svg"
 width="468pt" height="468pt" viewBox="0 0 468 468"
 preserveAspectRatio="xMidYMid meet">
<metadata>
Created by potrace 1.8, written by Peter Selinger 2001-2007
</metadata>
<g transform="translate(0,468) scale(0.365625,-0.365625)"
fill="#000000" stroke="none">
<path d="M370 1200 l0 -30 30 0 30 0 0 30 0 30 -30 0 -30 0 0 -30z"/>
<path d="M530 1200 l0 -30 55 0 55 0 0 30 0 30 -55 0 -55 0 0 -30z"/>
<path d="M690 1200 l0 -30 55 0 55 0 0 30 0 30 -55 0 -55 0 0 -30z"/>
<path d="M270 1145 l0 -25 25 0 25 0 0 25 0 25 -25 0 -25 0 0 -25z"/>
<path d="M910 1145 l0 -25 50 0 50 0 0 -25 0 -25 -25 0 -25 0 0 -30 0 -30 25
0 25 0 0 30 0 30 30 0 30 0 0 -30 0 -30 25 0 25 0 0 30 0 30 -25 0 -25 0 0 25
0 25 -30 0 -30 0 0 25 0 25 -50 0 -50 0 0 -25z"/>
<path d="M160 1095 l0 -25 -25 0 -25 0 0 -30 0 -30 25 0 25 0 0 -25 0 -25 25
0 25 0 0 25 0 25 30 0 30 0 0 30 0 30 -30 0 -30 0 0 25 0 25 -25 0 -25 0 0
-25z m50 -55 l0 -30 -25 0 -25 0 0 30 0 30 25 0 25 0 0 -30z"/>
<path d="M690 1095 l0 -25 30 0 30 0 0 -30 0 -30 25 0 25 0 0 30 0 30 -25 0
-25 0 0 25 0 25 -30 0 -30 0 0 -25z"/>
<path d="M50 905 l0 -55 30 0 30 0 0 -25 0 -25 25 0 25 0 0 25 0 25 -25 0 -25
0 0 55 0 55 -30 0 -30 0 0 -55z"/>
<path d="M320 935 l0 -25 25 0 25 0 0 -30 0 -30 30 0 30 0 0 30 0 30 -30 0
-30 0 0 25 0 25 -25 0 -25 0 0 -25z"/>
<path d="M910 905 l0 -55 -30 0 -30 0 0 -25 0 -25 30 0 30 0 0 25 0 25 25 0
25 0 0 55 0 55 -25 0 -25 0 0 -55z"/>
<path d="M1120 905 l0 -55 -25 0 -25 0 0 -25 0 -25 25 0 25 0 0 25 0 25 25 0
25 0 0 55 0 55 -25 0 -25 0 0 -55z"/>
<path d="M210 775 l0 -25 55 0 55 0 0 25 0 25 -55 0 -55 0 0 -25z"/>
<path d="M960 775 l0 -25 25 0 25 0 0 25 0 25 -25 0 -25 0 0 -25z"/>
<path d="M370 720 l0 -30 30 0 30 0 0 30 0 30 -30 0 -30 0 0 -30z"/>
<path d="M480 720 l0 -30 25 0 25 0 0 -25 0 -25 -25 0 -25 0 0 -25 0 -25 25 0
25 0 0 -30 0 -30 -25 0 -25 0 0 -25 0 -25 25 0 25 0 0 -25 0 -25 -25 0 -25 0
0 -30 0 -30 25 0 25 0 0 30 0 30 30 0 30 0 0 25 0 25 -30 0 -30 0 0 25 0 25
30 0 30 0 0 30 0 30 -30 0 -30 0 0 25 0 25 30 0 30 0 0 25 0 25 -30 0 -30 0 0
30 0 30 -25 0 -25 0 0 -30z"/>
<path d="M690 720 l0 -30 30 0 30 0 0 30 0 30 -30 0 -30 0 0 -30z"/>
<path d="M800 720 l0 -30 25 0 25 0 0 30 0 30 -25 0 -25 0 0 -30z"/>
<path d="M690 615 l0 -25 -25 0 -25 0 0 -30 0 -30 25 0 25 0 0 -25 0 -25 30 0
30 0 0 25 0 25 -30 0 -30 0 0 30 0 30 30 0 30 0 0 25 0 25 -30 0 -30 0 0 -25z"/>
<path d="M690 400 l0 -30 30 0 30 0 0 30 0 30 -30 0 -30 0 0 -30z"/>
<path d="M480 295 l0 -25 25 0 25 0 0 25 0 25 -25 0 -25 0 0 -25z"/>
<path d="M690 295 l0 -25 30 0 30 0 0 -30 0 -30 25 0 25 0 0 30 0 30 -25 0
-25 0 0 25 0 25 -30 0 -30 0 0 -25z"/>
<path d="M320 240 l0 -30 25 0 25 0 0 30 0 30 -25 0 -25 0 0 -30z"/>
<path d="M850 240 l0 -30 30 0 30 0 0 30 0 30 -30 0 -30 0 0 -30z"/>
<path d="M210 185 l0 -25 -25 0 -25 0 0 -55 0 -55 55 0 55 0 0 30 0 30 -30 0
-30 0 0 25 0 25 30 0 30 0 0 25 0 25 -30 0 -30 0 0 -25z"/>
<path d="M960 185 l0 -25 25 0 25 0 0 25 0 25 -25 0 -25 0 0 -25z"/>
<path d="M690 135 l0 -25 -25 0 -25 0 0 -30 0 -30 25 0 25 0 0 30 0 30 30 0
30 0 0 25 0 25 -30 0 -30 0 0 -25z"/>
<path d="M320 80 l0 -30 25 0 25 0 0 30 0 30 -25 0 -25 0 0 -30z"/>
<path d="M480 80 l0 -30 25 0 25 0 0 30 0 30 -25 0 -25 0 0 -30z"/>
<path d="M800 80 l0 -30 25 0 25 0 0 30 0 30 -25 0 -25 0 0 -30z"/>
<path d="M1010 80 l0 -30 30 0 30 0 0 30 0 30 -30 0 -30 0 0 -30z"/>
</g>
</svg>
