<?xml version="1.0" standalone="no"?>
<!DOCTYPE svg PUBLIC "-//W3C//DTD SVG 20010904//EN"
 "http://www.w3.org/TR/2001/REC-SVG-20010904/DTD/svg10.dtd">
<svg version="1.0" xmlns="http://www.w3.org/2000/svg"
 width="468pt" height="468pt" viewBox="0 0 468 468"
 preserveAspectRatio="xMidYMid meet">
<metadata>
Created by potrace 1.8, written by Peter Selinger 2001-2007
</metadata>
<g transform="translate(0,468) scale(0.365625,-0.365625)"
fill="#000000" stroke="none">
<path d="M16 1272 l-5 -8 -7 -147 -7 -147 17 0 16 0 0 -17 0 -18 -10 -15 -11
-15 7 28 6 27 -12 0 -13 0 7 -37 6 -38 0 -41 0 -42 50 -32 50 -32 0 -16 0 -16
17 17 18 18 -28 53 -28 53 17 37 18 36 48 0 49 0 43 20 44 19 6 17 6 16 0 8 0
8 -50 -21 -49 -21 -25 13 -24 13 -5 40 -5 40 -16 17 -16 18 0 21 0 21 18 5 17
5 31 6 31 6 29 30 28 29 -12 12 -12 12 0 8 0 9 21 -20 21 -19 -32 -29 -33 -30
18 -46 17 -46 17 6 16 6 12 10 13 9 -6 22 -5 22 21 27 21 26 -7 36 -6 35 -43
0 -42 0 -17 -19 -17 -19 -25 -6 -24 -6 -20 10 -20 10 -24 -6 -24 -6 -16 -61
-16 -62 -2 -18 -3 -19 -24 34 -24 33 20 -18 20 -17 18 66 18 65 25 10 26 10
26 -11 26 -11 27 10 27 11 0 10 0 10 -109 0 -110 0 -5 -8z"/>
<path d="M364 1245 l7 -35 -22 -29 -22 -30 6 -16 7 -16 -13 -19 -12 -20 -12 0
-13 0 0 -10 0 -10 -9 0 -8 0 -21 51 -21 50 -38 -7 -38 -7 -7 -4 -8 -4 0 -19 0
-18 14 -5 14 -6 7 -43 7 -43 10 -12 10 -13 18 0 17 0 57 28 56 29 0 -4 0 -3
-12 -23 -11 -22 -7 -15 -7 -15 -39 -22 -39 -22 -5 -23 -6 -23 -27 -3 -27 -3 0
-14 0 -15 40 -20 39 -20 9 0 8 0 14 49 13 49 40 12 39 11 13 5 13 5 21 -69 21
-69 47 -10 48 -11 6 10 7 10 6 45 6 45 -26 33 -26 34 7 11 6 10 36 15 36 15 6
-5 5 -6 1 -26 0 -26 17 -10 17 -11 20 25 20 24 1 18 0 18 -15 30 -16 29 -67
-2 -67 -3 -3 44 -3 43 26 -6 27 -7 44 21 44 22 0 47 0 47 12 12 12 12 -41 0
-40 0 -13 -45 -13 -45 -16 0 -16 0 -36 10 -36 10 -19 35 -19 35 -33 0 -34 0 6
-35z m166 -390 l0 -15 -15 0 -15 0 0 15 0 15 15 0 15 0 0 -15z m-40 -40 l0
-15 -15 0 -15 0 0 15 0 15 15 0 15 0 0 -15z"/>
<path d="M440 1271 l0 -10 23 -25 22 -25 36 -6 36 -7 12 33 11 32 0 8 0 9 -70
0 -70 0 0 -9z"/>
<path d="M670 1261 l-10 -20 0 -43 0 -44 31 -18 31 -18 10 -29 10 -29 6 0 7 0
23 36 23 36 -38 33 -38 33 18 36 17 37 0 4 0 5 -40 0 -39 0 -11 -19z"/>
<path d="M754 1235 l-16 -40 37 -31 37 -31 -27 -41 -28 -42 -9 0 -9 0 -14 33
-13 32 -31 18 -32 18 -44 -21 -44 -22 -21 7 -20 6 0 -36 0 -37 68 7 68 7 17
-37 17 -36 0 -15 0 -16 -20 -25 -20 -26 0 -72 0 -72 18 -17 19 -16 11 39 12
38 0 14 0 14 26 29 27 28 49 -4 49 -5 8 16 9 15 27 -26 27 -27 -33 -29 -32
-29 18 -46 17 -46 17 6 16 6 13 10 12 10 -5 18 -6 18 12 23 12 23 15 11 15 11
-7 26 -6 25 -25 31 -26 30 -42 3 -42 3 37 29 38 28 45 -22 45 -22 0 -6 1 -7
24 -29 24 -30 15 13 16 13 29 -5 28 -6 12 12 11 11 0 26 0 26 -11 11 -10 10
-44 -16 -44 -15 -21 19 -21 19 -21 34 -21 34 35 35 35 34 -17 50 -17 50 -10
10 -10 10 -69 -3 -68 -3 -6 -25 -6 -25 -22 -3 -22 -3 0 -14 0 -13 34 -21 33
-21 9 0 10 0 13 46 14 46 34 15 35 14 10 -3 11 -4 -40 -12 -40 -12 -15 -47
-15 -48 -15 -3 -14 -3 -35 24 -34 23 0 19 0 20 23 3 22 3 0 19 0 18 -40 4 -40
3 -16 -40z m246 -10 l0 -15 15 0 15 0 0 -15 0 -15 -15 0 -15 0 0 15 0 15 -15
0 -15 0 0 15 0 15 15 0 15 0 0 -15z"/>
<path d="M1030 1277 l0 -3 15 -50 15 -50 22 -12 23 -11 39 -10 40 -10 4 3 3 4
14 53 14 53 -16 18 -16 18 -79 0 -78 0 0 -3z m160 -82 l0 -15 -15 0 -15 0 0
15 0 15 15 0 15 0 0 -15z m-50 -20 l0 -15 -15 0 -15 0 0 15 0 15 15 0 15 0 0
-15z"/>
<path d="M1213 1262 l16 -18 -15 -59 -16 -60 -3 -3 -3 -3 -67 17 -67 17 -31
-31 -30 -31 27 -41 27 -41 15 -6 15 -6 39 16 39 15 15 -17 16 -18 0 -25 0 -26
-17 -13 -16 -14 -35 0 -35 0 -4 -11 -4 -12 23 -25 23 -26 36 -6 37 -7 16 48
16 48 0 23 0 23 25 0 25 0 0 155 0 155 -42 0 -41 0 16 -18z m-133 -157 l0 -15
-20 0 -20 0 0 15 0 15 20 0 20 0 0 -15z m10 -60 l0 -15 -20 0 -20 0 0 15 0 15
20 0 20 0 0 -15z"/>
<path d="M908 996 l-18 -13 0 -7 0 -6 24 0 24 0 36 -42 36 -42 0 -22 0 -23
-26 -26 -26 -26 5 -22 6 -22 -12 -16 -12 -16 -23 -7 -22 -7 -20 46 -20 46 -27
-7 -28 -6 -12 -4 -13 -3 0 -17 0 -16 20 -25 20 -26 0 -28 0 -29 24 -15 25 -16
28 3 28 3 25 39 25 39 3 -49 3 -49 -26 -22 -26 -23 -37 1 -37 2 37 6 38 6 20
17 20 18 -1 32 -1 33 -5 -15 -6 -14 -21 -18 -21 -17 -26 -1 -26 0 -27 21 -26
20 0 30 0 29 -20 17 -20 17 0 27 0 27 16 6 16 6 19 0 19 0 37 33 36 34 -15 22
-15 21 -12 -14 -11 -14 -46 6 -45 5 -23 -22 -22 -21 -14 -65 -13 -64 -33 27
-33 27 0 66 -1 66 -20 18 -21 19 6 14 5 14 -5 9 -6 8 -27 -12 -27 -12 -7 -10
-7 -9 25 -33 25 -33 -10 -57 -11 -56 -4 -4 -4 -4 -48 12 -49 12 -11 8 -11 9
-28 -30 -28 -29 42 -52 41 -52 0 10 0 9 30 11 31 11 15 -23 15 -24 -3 -28 -3
-28 -36 0 -37 -1 -16 -13 -16 -14 -7 6 -6 7 -11 18 -11 18 -20 32 -20 32 -15
0 -15 0 -13 -20 -12 -20 10 0 11 0 6 -17 6 -18 15 -17 15 -18 -9 0 -10 0 -17
30 -18 30 -21 0 -21 0 29 30 29 29 16 1 16 0 37 -55 38 -55 21 15 20 14 28 -6
29 -5 0 29 0 29 -13 18 -13 18 -15 -14 -14 -14 -16 -6 -16 -6 -43 55 -42 55
32 33 33 34 -13 48 -13 48 -4 7 -3 7 -44 -15 -44 -15 -14 -46 -13 -46 -11 -4
-10 -4 -35 15 -36 15 -12 15 -13 16 6 15 5 15 26 0 25 0 0 20 0 20 -46 0 -45
0 -15 -36 -15 -36 14 -17 14 -16 12 -30 12 -31 -18 -34 -17 -35 -9 31 -9 30
-42 27 -43 27 -7 0 -6 0 0 -40 0 -40 8 0 8 0 17 -35 17 -36 0 -20 0 -21 -25
-30 -25 -30 0 -269 0 -269 640 0 640 0 0 345 0 345 -62 -3 -63 -2 -3 36 -3 36
39 -1 39 -1 26 18 27 17 0 85 0 85 -20 0 -20 0 0 -21 0 -21 -17 -49 -18 -49
-15 0 -15 0 -37 11 -38 10 0 8 0 7 -17 20 -18 19 -28 38 -28 37 -22 14 -22 14
-20 6 -20 5 -17 -13z m-548 -141 l0 -15 -15 0 -15 0 0 15 0 15 15 0 15 0 0
-15z m40 -30 l0 -15 -15 0 -15 0 0 15 0 15 15 0 15 0 0 -15z m50 -80 l0 -15
-15 0 -15 0 0 15 0 15 15 0 15 0 0 -15z m0 -40 l0 -15 -15 0 -15 0 0 15 0 15
15 0 15 0 0 -15z m794 -101 l6 -16 -6 -10 -7 -11 18 -14 19 -13 -11 0 -11 0
-12 15 -12 14 7 11 6 10 -6 10 -6 9 -27 -12 -27 -12 -7 -9 -7 -10 12 -16 11
-15 -18 17 -18 16 7 11 7 12 31 13 32 14 6 1 7 1 6 -16z m-583 -34 l19 -11 0
-10 0 -10 -16 15 -15 16 -30 0 -29 0 0 -17 0 -16 -6 6 -6 6 5 16 6 15 26 0 26
0 20 -10z"/>
<path d="M1240 757 l-35 -17 -22 5 -23 5 0 -31 0 -32 57 7 57 7 4 3 3 4 -3 33
-3 34 -35 -18z"/>
<path d="M0 623 l0 -66 20 18 20 18 0 23 0 23 -12 26 -11 25 -9 0 -8 0 0 -67z"/>
</g>
</svg>
