<?xml version="1.0" standalone="no"?>
<!DOCTYPE svg PUBLIC "-//W3C//DTD SVG 20010904//EN"
 "http://www.w3.org/TR/2001/REC-SVG-20010904/DTD/svg10.dtd">
<svg version="1.0" xmlns="http://www.w3.org/2000/svg"
 width="468pt" height="468pt" viewBox="0 0 468 468"
 preserveAspectRatio="xMidYMid meet">
<metadata>
Created by potrace 1.8, written by Peter Selinger 2001-2007
</metadata>
<g transform="translate(0,468) scale(0.365625,-0.365625)"
fill="#000000" stroke="none">
<path d="M640 1250 l0 -30 -60 0 -60 0 0 -30 0 -30 -25 0 -25 0 0 -85 0 -85
-30 0 -30 0 0 -60 0 -60 -30 0 -30 0 0 90 0 90 -90 0 -90 0 0 30 0 30 -25 0
-25 0 0 25 0 25 -30 0 -30 0 0 -25 0 -25 30 0 30 0 0 -60 0 -60 -60 0 -60 0 0
-30 0 -30 85 0 85 0 0 -30 0 -30 30 0 30 0 0 -55 0 -55 30 0 30 0 0 -30 0 -30
60 0 60 0 0 -30 0 -30 55 0 55 0 0 -30 0 -30 -25 0 -25 0 0 -30 0 -30 -30 0
-30 0 0 -25 0 -25 -60 0 -60 0 0 -30 0 -30 -145 0 -145 0 0 -205 0 -205 640 0
640 0 0 205 0 205 -145 0 -145 0 0 30 0 30 -30 0 -30 0 0 25 0 25 -30 0 -30 0
0 60 0 60 90 0 90 0 0 -30 0 -30 55 0 55 0 0 -30 0 -30 30 0 30 0 0 -25 0 -25
30 0 30 0 0 25 0 25 -30 0 -30 0 0 30 0 30 30 0 30 0 0 30 0 30 -30 0 -30 0 0
30 0 30 -85 0 -85 0 0 30 0 30 -60 0 -60 0 0 25 0 25 -30 0 -30 0 0 30 0 30
30 0 30 0 0 30 0 30 30 0 30 0 0 -30 0 -30 30 0 30 0 0 30 0 30 30 0 30 0 0
-30 0 -30 25 0 25 0 0 30 0 30 30 0 30 0 0 30 0 30 -85 0 -85 0 0 30 0 30
-145 0 -145 0 0 -30 0 -30 -60 0 -60 0 0 30 0 30 30 0 30 0 0 55 0 55 30 0 30
0 0 -25 0 -25 25 0 25 0 0 25 0 25 60 0 60 0 0 30 0 30 -60 0 -60 0 0 30 0 30
-85 0 -85 0 0 -30z m170 -60 l0 -30 -25 0 -25 0 0 30 0 30 25 0 25 0 0 -30z
m-520 -230 l0 -30 -30 0 -30 0 0 30 0 30 30 0 30 0 0 -30z m580 -60 l0 -30
-30 0 -30 0 0 -30 0 -30 -25 0 -25 0 0 30 0 30 25 0 25 0 0 30 0 30 30 0 30 0
0 -30z m-350 -115 l0 -25 -25 0 -25 0 0 25 0 25 25 0 25 0 0 -25z m180 0 l0
-25 -30 0 -30 0 0 -30 0 -30 -30 0 -30 0 0 30 0 30 30 0 30 0 0 25 0 25 30 0
30 0 0 -25z m60 -175 l0 -30 25 0 25 0 0 -30 0 -30 30 0 30 0 0 -25 0 -25 30
0 30 0 0 -30 0 -30 -30 0 -30 0 0 30 0 30 -85 0 -85 0 0 -30 0 -30 -90 0 -90
0 0 30 0 30 -25 0 -25 0 0 -30 0 -30 -30 0 -30 0 0 30 0 30 30 0 30 0 0 25 0
25 25 0 25 0 0 30 0 30 90 0 90 0 0 30 0 30 30 0 30 0 0 -30z"/>
</g>
</svg>
