<?xml version="1.0" standalone="no"?>
<!DOCTYPE svg PUBLIC "-//W3C//DTD SVG 20010904//EN"
 "http://www.w3.org/TR/2001/REC-SVG-20010904/DTD/svg10.dtd">
<svg version="1.0" xmlns="http://www.w3.org/2000/svg"
 width="468pt" height="468pt" viewBox="0 0 468 468"
 preserveAspectRatio="xMidYMid meet">
<metadata>
Created by potrace 1.8, written by Peter Selinger 2001-2007
</metadata>
<g transform="translate(0,468) scale(0.365625,-0.365625)"
fill="#000000" stroke="none">
<path d="M0 1175 l0 -105 55 0 55 0 0 -55 0 -55 -55 0 -55 0 0 -105 0 -105 55
0 55 0 0 -55 0 -55 -55 0 -55 0 0 -105 0 -105 55 0 55 0 0 -55 0 -55 -55 0
-55 0 0 -105 0 -105 55 0 55 0 0 -55 0 -55 160 0 160 0 0 55 0 55 50 0 50 0 0
-55 0 -55 55 0 55 0 0 55 0 55 55 0 55 0 0 -55 0 -55 160 0 160 0 0 55 0 55
50 0 50 0 0 -55 0 -55 55 0 55 0 0 55 0 55 -55 0 -55 0 0 50 0 50 55 0 55 0 0
160 0 160 -55 0 -55 0 0 55 0 55 55 0 55 0 0 55 0 55 -55 0 -55 0 0 50 0 50
55 0 55 0 0 160 0 160 -55 0 -55 0 0 55 0 55 -105 0 -105 0 0 -55 0 -55 -55 0
-55 0 0 55 0 55 -105 0 -105 0 0 -55 0 -55 -55 0 -55 0 0 55 0 55 -105 0 -105
0 0 -55 0 -55 -55 0 -55 0 0 55 0 55 -105 0 -105 0 0 -105z m210 -55 l0 -50
-50 0 -50 0 0 50 0 50 50 0 50 0 0 -50z m220 0 l0 -50 50 0 50 0 0 -55 0 -55
-50 0 -50 0 0 -55 0 -55 -55 0 -55 0 0 -50 0 -50 -55 0 -55 0 0 50 0 50 -50 0
-50 0 0 55 0 55 50 0 50 0 0 -55 0 -55 55 0 55 0 0 55 0 55 55 0 55 0 0 55 0
55 -55 0 -55 0 0 50 0 50 55 0 55 0 0 -50z m420 0 l0 -50 -50 0 -50 0 0 -55 0
-55 50 0 50 0 0 -55 0 -55 55 0 55 0 0 55 0 55 55 0 55 0 0 55 0 55 -55 0 -55
0 0 50 0 50 55 0 55 0 0 -50 0 -50 50 0 50 0 0 -55 0 -55 -50 0 -50 0 0 -55 0
-55 -55 0 -55 0 0 -50 0 -50 -55 0 -55 0 0 50 0 50 -50 0 -50 0 0 55 0 55 -55
0 -55 0 0 55 0 55 55 0 55 0 0 50 0 50 50 0 50 0 0 -50z m-210 -320 l0 -50 55
0 55 0 0 -55 0 -55 -55 0 -55 0 0 -55 0 -55 -55 0 -55 0 0 55 0 55 -50 0 -50
0 0 55 0 55 50 0 50 0 0 50 0 50 55 0 55 0 0 -50z m530 -105 l0 -55 -50 0 -50
0 0 55 0 55 50 0 50 0 0 -55z m-850 -110 l0 -55 55 0 55 0 0 -50 0 -50 50 0
50 0 0 -55 0 -55 -50 0 -50 0 0 -55 0 -55 -55 0 -55 0 0 -50 0 -50 -55 0 -55
0 0 50 0 50 -50 0 -50 0 0 55 0 55 50 0 50 0 0 -55 0 -55 55 0 55 0 0 55 0 55
55 0 55 0 0 55 0 55 -55 0 -55 0 0 50 0 50 -55 0 -55 0 0 -50 0 -50 -50 0 -50
0 0 50 0 50 50 0 50 0 0 55 0 55 55 0 55 0 0 -55z m640 0 l0 -55 55 0 55 0 0
-50 0 -50 50 0 50 0 0 -55 0 -55 -50 0 -50 0 0 -55 0 -55 -55 0 -55 0 0 -50 0
-50 -55 0 -55 0 0 50 0 50 -50 0 -50 0 0 55 0 55 -55 0 -55 0 0 55 0 55 55 0
55 0 0 50 0 50 50 0 50 0 0 55 0 55 55 0 55 0 0 -55z m-320 -425 l0 -50 -55 0
-55 0 0 50 0 50 55 0 55 0 0 -50z"/>
<path d="M530 695 l0 -55 55 0 55 0 0 55 0 55 -55 0 -55 0 0 -55z"/>
<path d="M850 480 l0 -50 -50 0 -50 0 0 -55 0 -55 50 0 50 0 0 -55 0 -55 55 0
55 0 0 55 0 55 55 0 55 0 0 55 0 55 -55 0 -55 0 0 50 0 50 -55 0 -55 0 0 -50z"/>
</g>
</svg>
