<?xml version="1.0" standalone="no"?>
<!DOCTYPE svg PUBLIC "-//W3C//DTD SVG 20010904//EN"
 "http://www.w3.org/TR/2001/REC-SVG-20010904/DTD/svg10.dtd">
<svg version="1.0" xmlns="http://www.w3.org/2000/svg"
 width="468pt" height="468pt" viewBox="0 0 468 468"
 preserveAspectRatio="xMidYMid meet">
<metadata>
Created by potrace 1.8, written by Peter Selinger 2001-2007
</metadata>
<g transform="translate(0,468) scale(0.365625,-0.365625)"
fill="#000000" stroke="none">
<path d="M0 1175 l0 -105 15 0 15 0 0 65 0 65 10 0 10 0 0 25 0 25 -10 0 -10
0 0 15 0 15 -15 0 -15 0 0 -105z"/>
<path d="M160 1265 l0 -15 -15 0 -15 0 0 -25 0 -25 -10 0 -10 0 0 -25 0 -25
-15 0 -15 0 0 25 0 25 -15 0 -15 0 0 -25 0 -25 15 0 15 0 0 -40 0 -40 15 0 15
0 0 40 0 40 10 0 10 0 0 25 0 25 15 0 15 0 0 -65 0 -65 15 0 15 0 0 105 0 105
-15 0 -15 0 0 -15z"/>
<path d="M720 1240 l0 -40 -15 0 -15 0 0 15 0 15 -25 0 -25 0 0 -15 0 -15 -15
0 -15 0 0 -55 0 -55 15 0 15 0 0 -10 0 -10 25 0 25 0 0 10 0 10 15 0 15 0 0
-10 0 -10 15 0 15 0 0 105 0 105 -15 0 -15 0 0 -40z m-30 -55 l0 -15 15 0 15
0 0 -25 0 -25 -15 0 -15 0 0 -15 0 -15 -25 0 -25 0 0 55 0 55 25 0 25 0 0 -15z"/>
<path d="M1090 1265 l0 -15 15 0 15 0 0 15 0 15 -15 0 -15 0 0 -15z"/>
<path d="M210 1215 l0 -15 40 0 40 0 0 -15 0 -15 -25 0 -25 0 0 -10 0 -10 -15
0 -15 0 0 -30 0 -30 15 0 15 0 0 -10 0 -10 25 0 25 0 0 10 0 10 15 0 15 0 0
-10 0 -10 14 0 14 0 6 13 6 12 6 -12 6 -13 25 0 24 0 15 14 14 15 0 10 0 11
-10 0 -10 0 0 -15 0 -15 -30 0 -30 0 0 55 0 55 30 0 30 0 0 -15 0 -15 10 0 10
0 0 15 0 15 -10 0 -10 0 0 15 0 15 -30 0 -30 0 0 -15 0 -15 -10 0 -10 0 0 -55
0 -55 -15 0 -15 0 0 55 0 55 -15 0 -15 0 0 15 0 15 -40 0 -40 0 0 -15z m80
-95 l0 -30 -25 0 -25 0 0 30 0 30 25 0 25 0 0 -30z"/>
<path d="M510 1215 l0 -15 -15 0 -15 0 0 -55 0 -55 15 0 15 0 0 -10 0 -10 25
0 25 0 0 10 0 10 15 0 15 0 0 15 0 15 -15 0 -15 0 0 -15 0 -15 -25 0 -25 0 0
30 0 30 40 0 40 0 0 25 0 25 -15 0 -15 0 0 15 0 15 -25 0 -25 0 0 -15z m50
-30 l0 -15 -25 0 -25 0 0 15 0 15 25 0 25 0 0 -15z"/>
<path d="M800 1215 l0 -15 -15 0 -15 0 0 -55 0 -55 15 0 15 0 0 -10 0 -10 40
0 40 0 0 10 0 10 15 0 15 0 0 55 0 55 -15 0 -15 0 0 15 0 15 -40 0 -40 0 0
-15z m80 -70 l0 -55 -40 0 -40 0 0 55 0 55 40 0 40 0 0 -55z"/>
<path d="M930 1150 l0 -80 15 0 15 0 0 50 0 50 15 0 15 0 0 15 0 15 25 0 25 0
0 -65 0 -65 15 0 15 0 0 65 0 65 -15 0 -15 0 0 15 0 15 -25 0 -25 0 0 -15 0
-15 -15 0 -15 0 0 15 0 15 -15 0 -15 0 0 -80z"/>
<path d="M1090 1150 l0 -80 15 0 15 0 0 80 0 80 -15 0 -15 0 0 -80z"/>
<path d="M1150 1215 l0 -15 40 0 40 0 0 -15 0 -15 -26 0 -25 0 -15 -14 -14
-15 0 -21 0 -21 14 -15 15 -14 24 0 25 0 6 13 6 12 6 -12 6 -13 14 0 14 0 0
10 0 10 -15 0 -15 0 0 55 0 55 -10 0 -10 0 0 15 0 15 -40 0 -40 0 0 -15z m80
-95 l0 -30 -30 0 -30 0 0 30 0 30 30 0 30 0 0 -30z"/>
<path d="M0 535 l0 -425 640 0 640 0 0 425 0 425 -640 0 -640 0 0 -425z m114
383 l6 -13 6 13 6 12 39 0 39 0 0 -10 0 -10 15 0 15 0 0 10 0 10 15 0 15 0 0
-25 0 -25 25 0 25 0 0 -15 0 -15 15 0 15 0 0 15 0 15 10 0 10 0 0 15 0 15 -10
0 -10 0 0 -15 0 -15 -15 0 -15 0 0 15 0 15 -15 0 -15 0 0 10 0 10 15 0 15 0 0
-10 0 -10 14 0 14 0 6 13 6 12 6 -12 6 -13 14 0 14 0 0 10 0 10 14 0 14 0 6
-12 6 -13 6 13 6 12 14 0 14 0 0 -10 0 -10 14 0 14 0 6 13 6 12 6 -12 6 -13
14 0 14 0 0 10 0 10 40 0 40 0 0 -10 0 -10 15 0 15 0 0 10 0 10 25 0 25 0 0
-10 0 -10 14 0 14 0 6 13 6 12 6 -12 6 -13 14 0 14 0 0 10 0 10 14 0 14 0 6
-12 6 -13 6 13 6 12 14 0 14 0 0 -10 0 -10 14 0 14 0 6 13 6 12 6 -12 6 -13
14 0 14 0 0 10 0 10 14 0 14 0 6 -12 6 -13 6 13 6 12 28 0 28 0 6 -12 6 -13 6
13 6 12 39 0 39 0 0 -10 0 -10 15 0 15 0 0 10 0 10 25 0 25 0 0 -10 0 -10 -10
0 -10 0 0 -15 0 -15 10 0 10 0 0 -14 0 -14 -12 -6 -13 -6 13 -6 12 -6 0 -14 0
-14 -10 0 -10 0 0 -14 0 -14 13 -6 12 -6 -12 -6 -13 -6 0 -14 0 -14 10 0 10 0
0 -14 0 -14 -12 -6 -13 -6 13 -6 12 -6 0 -14 0 -14 -10 0 -10 0 0 -14 0 -14
13 -6 12 -6 -12 -6 -13 -6 0 -14 0 -14 10 0 10 0 0 -14 0 -14 -13 -6 -12 -6
13 -6 12 -6 0 -14 0 -14 -10 0 -10 0 0 -25 0 -25 10 0 10 0 0 -15 0 -15 -10 0
-10 0 0 -14 0 -14 13 -6 12 -6 -12 -6 -13 -6 0 -14 0 -14 10 0 10 0 0 -15 0
-15 -10 0 -10 0 0 -25 0 -25 10 0 10 0 0 -14 0 -14 -12 -6 -13 -6 13 -6 12 -6
0 -14 0 -14 -10 0 -10 0 0 -15 0 -15 -40 0 -40 0 0 15 0 15 -15 0 -15 0 0 -15
0 -15 -40 0 -40 0 0 15 0 15 -25 0 -25 0 0 -15 0 -15 -15 0 -15 0 0 15 0 15
-15 0 -15 0 0 -15 0 -15 -10 0 -10 0 0 15 0 15 -15 0 -15 0 0 -15 0 -15 -15 0
-15 0 0 15 0 15 -10 0 -10 0 0 -15 0 -15 -15 0 -15 0 0 15 0 15 -15 0 -15 0 0
-15 0 -15 -10 0 -10 0 0 15 0 15 -30 0 -30 0 0 -15 0 -15 -40 0 -40 0 0 15 0
15 -10 0 -10 0 0 -15 0 -15 -15 0 -15 0 0 15 0 15 -15 0 -15 0 0 -15 0 -15
-10 0 -10 0 0 15 0 15 -15 0 -15 0 0 -15 0 -15 -15 0 -15 0 0 15 0 15 -10 0
-10 0 0 -15 0 -15 -15 0 -15 0 0 15 0 15 -15 0 -15 0 0 -15 0 -15 -10 0 -10 0
0 15 0 15 -15 0 -15 0 0 -15 0 -15 -15 0 -15 0 0 15 0 15 15 0 15 0 0 15 0 15
15 0 15 0 0 -15 0 -15 10 0 10 0 0 15 0 15 15 0 15 0 0 10 0 10 -15 0 -15 0 0
15 0 15 15 0 15 0 0 -15 0 -15 15 0 15 0 0 15 0 15 -15 0 -15 0 0 15 0 15 15
0 15 0 0 -15 0 -15 10 0 10 0 0 15 0 15 15 0 15 0 0 10 0 10 -15 0 -15 0 0 15
0 15 15 0 15 0 0 15 0 15 15 0 15 0 0 -15 0 -15 10 0 10 0 0 15 0 15 15 0 15
0 0 10 0 10 -15 0 -15 0 0 15 0 15 -10 0 -10 0 0 15 0 15 -15 0 -15 0 0 -15 0
-15 15 0 15 0 0 -15 0 -15 -15 0 -15 0 0 -10 0 -10 -25 0 -25 0 0 -30 0 -30
-15 0 -15 0 0 15 0 15 -15 0 -15 0 0 -15 0 -15 15 0 15 0 0 -10 0 -10 -15 0
-15 0 0 -15 0 -15 -10 0 -10 0 0 -15 0 -15 -15 0 -15 0 0 -10 0 -10 -14 0 -14
0 -5 13 -4 12 -9 -9 -9 -9 13 -4 12 -5 0 -14 0 -14 -10 0 -10 0 0 -15 0 -15
-40 0 -40 0 0 15 0 15 -15 0 -15 0 0 -15 0 -15 -40 0 -40 0 0 15 0 15 -15 0
-15 0 0 -15 0 -15 -10 0 -10 0 0 69 0 69 13 6 12 6 -12 6 -13 6 0 14 0 14 10
0 10 0 0 14 0 14 -12 6 -13 6 13 6 12 6 0 14 0 14 -10 0 -10 0 0 14 0 14 12 6
13 6 -12 6 -13 6 0 79 0 79 10 0 10 0 0 15 0 15 -10 0 -10 0 0 14 0 14 13 6
12 6 -12 6 -13 6 0 14 0 14 10 0 10 0 0 14 0 14 -12 6 -13 6 12 6 13 6 0 14 0
14 -10 0 -10 0 0 65 0 65 39 0 39 0 6 -12z m416 -558 l0 -10 -10 0 -10 0 0 10
0 10 10 0 10 0 0 -10z m-80 -80 l0 -10 -10 0 -10 0 0 10 0 10 10 0 10 0 0 -10z
m-80 -80 l0 -10 -10 0 -10 0 0 10 0 10 10 0 10 0 0 -10z"/>
<path d="M50 895 l0 -15 15 0 15 0 0 15 0 15 -15 0 -15 0 0 -15z"/>
<path d="M160 895 l0 -15 15 0 15 0 0 15 0 15 -15 0 -15 0 0 -15z"/>
<path d="M400 895 l0 -15 -15 0 -15 0 0 -11 0 -10 -14 -15 -15 -14 -10 0 -11
0 0 -15 0 -15 15 0 15 0 0 11 0 10 14 15 15 14 10 0 11 0 0 -10 0 -10 15 0 15
0 0 -15 0 -15 10 0 10 0 0 -15 0 -15 15 0 15 0 0 -10 0 -10 -11 0 -10 0 -15
14 -14 15 0 10 0 11 -15 0 -15 0 0 15 0 15 -15 0 -15 0 0 -30 0 -30 26 0 25 0
15 -14 14 -15 0 -10 0 -11 -10 0 -10 0 0 -15 0 -15 10 0 10 0 0 15 0 15 15 0
15 0 0 -25 0 -25 25 0 25 0 0 10 0 10 -10 0 -10 0 0 15 0 15 -15 0 -15 0 0 15
0 15 15 0 15 0 0 -15 0 -15 10 0 10 0 0 15 0 15 15 0 15 0 0 10 0 10 -15 0
-15 0 0 15 0 15 15 0 15 0 0 -15 0 -15 25 0 25 0 0 15 0 15 -25 0 -25 0 0 15
0 15 25 0 25 0 0 10 0 10 -25 0 -25 0 0 15 0 15 -15 0 -15 0 0 15 0 15 -10 0
-10 0 0 -15 0 -15 -15 0 -15 0 0 15 0 15 -15 0 -15 0 0 -15 0 -15 -10 0 -10 0
0 15 0 15 -15 0 -15 0 0 -15z m30 -26 l0 -10 14 -15 15 -14 10 0 11 0 0 10 0
10 -15 0 -15 0 0 15 0 15 15 0 15 0 0 -15 0 -15 15 0 15 0 0 15 0 15 10 0 10
0 0 -15 0 -15 15 0 15 0 0 -10 0 -10 -15 0 -15 0 0 -15 0 -15 -10 0 -10 0 0
-14 0 -14 13 -5 12 -4 -9 -9 -9 -9 -4 13 -5 12 -14 0 -14 0 0 15 0 15 -15 0
-15 0 0 11 0 10 -14 15 -15 14 -10 0 -11 0 0 15 0 15 15 0 15 0 0 -11z"/>
<path d="M510 840 l0 -10 -15 0 -15 0 0 -15 0 -15 15 0 15 0 0 15 0 15 10 0
10 0 0 10 0 10 -10 0 -10 0 0 -10z"/>
<path d="M590 895 l0 -15 10 0 10 0 0 15 0 15 -10 0 -10 0 0 -15z"/>
<path d="M690 895 l0 -15 15 0 15 0 0 -15 0 -15 -15 0 -15 0 0 -10 0 -10 15 0
15 0 0 -15 0 -15 -15 0 -15 0 0 -15 0 -15 15 0 15 0 0 -10 0 -10 -15 0 -15 0
0 -15 0 -15 -25 0 -25 0 0 -15 0 -15 25 0 25 0 0 15 0 15 15 0 15 0 0 -15 0
-15 15 0 15 0 0 15 0 15 10 0 10 0 0 -15 0 -15 15 0 15 0 0 -10 0 -10 15 0 15
0 0 10 0 10 -15 0 -15 0 0 15 0 15 15 0 15 0 0 15 0 15 -15 0 -15 0 0 10 0 10
15 0 15 0 0 15 0 15 -15 0 -15 0 0 15 0 15 15 0 15 0 0 -15 0 -15 10 0 10 0 0
15 0 15 15 0 15 0 0 -15 0 -15 -15 0 -15 0 0 -15 0 -15 -10 0 -10 0 0 -10 0
-10 25 0 25 0 0 25 0 25 15 0 15 0 0 -15 0 -15 10 0 10 0 0 15 0 15 -10 0 -10
0 0 11 0 10 14 15 15 14 25 0 26 0 0 30 0 30 -15 0 -15 0 0 -15 0 -15 -15 0
-15 0 0 15 0 15 -10 0 -10 0 0 -15 0 -15 -15 0 -15 0 0 15 0 15 -15 0 -15 0 0
-15 0 -15 -10 0 -10 0 0 15 0 15 -15 0 -15 0 0 -15 0 -15 -15 0 -15 0 0 15 0
15 -10 0 -10 0 0 -15 0 -15 -15 0 -15 0 0 15 0 15 -15 0 -15 0 0 -15z m80 -30
l0 -15 15 0 15 0 0 15 0 15 15 0 15 0 0 -15 0 -15 10 0 10 0 0 15 0 15 15 0
15 0 0 -15 0 -15 15 0 15 0 0 15 0 15 10 0 10 0 0 -11 0 -10 -14 -15 -15 -14
-10 0 -11 0 0 10 0 10 -14 0 -14 0 -6 -12 -6 -13 -6 13 -6 12 -14 0 -14 0 0
-10 0 -10 -15 0 -15 0 0 -15 0 -15 15 0 15 0 0 -15 0 -15 -15 0 -15 0 0 15 0
15 -10 0 -10 0 0 -15 0 -15 -15 0 -15 0 0 15 0 15 15 0 15 0 0 15 0 15 -15 0
-15 0 0 10 0 10 15 0 15 0 0 15 0 15 10 0 10 0 0 -15z m0 -105 l0 -10 15 0 15
0 0 -15 0 -15 -15 0 -15 0 0 15 0 15 -10 0 -10 0 0 -15 0 -15 -15 0 -15 0 0
15 0 15 15 0 15 0 0 10 0 10 10 0 10 0 0 -10z"/>
<path d="M750 840 l0 -10 10 0 10 0 0 10 0 10 -10 0 -10 0 0 -10z"/>
<path d="M1010 895 l0 -15 15 0 15 0 0 15 0 15 -15 0 -15 0 0 -15z"/>
<path d="M1120 895 l0 -15 15 0 15 0 0 15 0 15 -15 0 -15 0 0 -15z"/>
<path d="M110 865 l0 -15 10 0 10 0 0 15 0 15 -10 0 -10 0 0 -15z"/>
<path d="M210 865 l0 -15 15 0 15 0 0 15 0 15 -15 0 -15 0 0 -15z"/>
<path d="M640 865 l0 -15 15 0 15 0 0 15 0 15 -15 0 -15 0 0 -15z"/>
<path d="M1070 865 l0 -15 10 0 10 0 0 15 0 15 -10 0 -10 0 0 -15z"/>
<path d="M1170 865 l0 -15 15 0 15 0 0 15 0 15 -15 0 -15 0 0 -15z"/>
<path d="M50 840 l0 -10 15 0 15 0 0 10 0 10 -15 0 -15 0 0 -10z"/>
<path d="M160 840 l0 -10 15 0 15 0 0 10 0 10 -15 0 -15 0 0 -10z"/>
<path d="M270 840 l0 -10 10 0 10 0 0 10 0 10 -10 0 -10 0 0 -10z"/>
<path d="M1010 840 l0 -10 15 0 15 0 0 10 0 10 -15 0 -15 0 0 -10z"/>
<path d="M1120 840 l0 -10 15 0 15 0 0 10 0 10 -15 0 -15 0 0 -10z"/>
<path d="M110 815 l0 -15 -15 0 -15 0 0 -15 0 -15 -15 0 -15 0 0 -10 0 -10 15
0 15 0 0 -15 0 -15 -15 0 -15 0 0 -15 0 -15 15 0 15 0 0 -10 0 -10 -15 0 -15
0 0 -15 0 -15 15 0 15 0 0 -15 0 -15 14 0 14 0 6 -12 6 -13 6 13 6 12 14 0 14
0 0 -25 0 -25 15 0 15 0 0 25 0 25 10 0 10 0 0 -10 0 -10 15 0 15 0 0 10 0 10
15 0 15 0 0 -25 0 -25 10 0 10 0 0 25 0 25 15 0 15 0 0 -10 0 -10 15 0 15 0 0
-15 0 -15 -15 0 -15 0 0 -15 0 -15 15 0 15 0 0 15 0 15 10 0 10 0 0 15 0 15
15 0 15 0 0 -15 0 -15 15 0 15 0 0 -15 0 -15 10 0 10 0 0 15 0 15 15 0 15 0 0
15 0 15 -11 0 -10 0 -15 14 -14 15 0 10 0 11 10 0 10 0 0 15 0 15 -10 0 -10 0
0 -15 0 -15 -15 0 -15 0 0 -15 0 -15 -15 0 -15 0 0 15 0 15 -10 0 -10 0 0 15
0 15 -15 0 -15 0 0 10 0 10 15 0 15 0 0 15 0 15 -15 0 -15 0 0 -15 0 -15 -14
0 -14 0 -6 -12 -6 -13 -6 13 -6 12 -14 0 -14 0 0 15 0 15 -15 0 -15 0 0 15 0
15 15 0 15 0 0 10 0 10 -11 0 -10 0 -15 -14 -14 -15 0 -10 0 -11 -15 0 -15 0
0 15 0 15 -11 0 -10 0 -15 14 -14 15 0 10 0 11 10 0 10 0 0 15 0 15 -10 0 -10
0 0 -15z m6 -59 l14 -15 0 -10 0 -11 15 0 15 0 0 -15 0 -15 15 0 15 0 0 15 0
15 10 0 10 0 0 -15 0 -15 15 0 15 0 0 -10 0 -10 15 0 15 0 0 -15 0 -15 10 0
10 0 0 15 0 15 15 0 15 0 0 -15 0 -15 15 0 15 0 0 -14 0 -14 13 -5 12 -4 -9
-9 -9 -9 -4 13 -5 12 -14 0 -14 0 0 15 0 15 -15 0 -15 0 0 -15 0 -15 -10 0
-10 0 0 15 0 15 -15 0 -15 0 0 -15 0 -15 -15 0 -15 0 0 15 0 15 -10 0 -10 0 0
-15 0 -15 -15 0 -15 0 0 15 0 15 -15 0 -15 0 0 -15 0 -15 -10 0 -10 0 0 15 0
15 -15 0 -15 0 0 15 0 15 15 0 15 0 0 -15 0 -15 10 0 10 0 0 15 0 15 15 0 15
0 0 10 0 10 -15 0 -15 0 0 15 0 15 -10 0 -10 0 0 -15 0 -15 -15 0 -15 0 0 15
0 15 15 0 15 0 0 15 0 15 -15 0 -15 0 0 10 0 10 11 0 10 0 15 -14z m14 -76 l0
-10 -10 0 -10 0 0 10 0 10 10 0 10 0 0 -10z m306 -84 l14 -15 0 -10 0 -11 -10
0 -10 0 0 15 0 15 -15 0 -15 0 0 10 0 10 11 0 10 0 15 -14z"/>
<path d="M190 680 l0 -10 -15 0 -15 0 0 -15 0 -15 15 0 15 0 0 15 0 15 10 0
10 0 0 -15 0 -15 15 0 15 0 0 15 0 15 -15 0 -15 0 0 10 0 10 -10 0 -10 0 0
-10z"/>
<path d="M210 815 l0 -15 15 0 15 0 0 15 0 15 -15 0 -15 0 0 -15z"/>
<path d="M640 815 l0 -15 15 0 15 0 0 15 0 15 -15 0 -15 0 0 -15z"/>
<path d="M960 815 l0 -15 15 0 15 0 0 15 0 15 -15 0 -15 0 0 -15z"/>
<path d="M1070 815 l0 -15 10 0 10 0 0 15 0 15 -10 0 -10 0 0 -15z"/>
<path d="M1170 800 l0 -30 15 0 15 0 0 -10 0 -10 -15 0 -15 0 0 -15 0 -15 -10
0 -10 0 0 15 0 15 -15 0 -15 0 0 -15 0 -15 -15 0 -15 0 0 25 0 25 -10 0 -10 0
0 -25 0 -25 -15 0 -15 0 0 15 0 15 -15 0 -15 0 0 -15 0 -15 15 0 15 0 0 -15 0
-15 -15 0 -15 0 0 -10 0 -10 -10 0 -10 0 0 25 0 25 -15 0 -15 0 0 -25 0 -25
-14 0 -14 0 -5 13 -4 12 -9 -9 -9 -9 13 -4 12 -5 0 -14 0 -14 -10 0 -10 0 0
-15 0 -15 -15 0 -15 0 0 30 0 30 -15 0 -15 0 0 -30 0 -30 15 0 15 0 0 -10 0
-10 -15 0 -15 0 0 -30 0 -30 15 0 15 0 0 30 0 30 15 0 15 0 0 -15 0 -15 10 0
10 0 0 15 0 15 15 0 15 0 0 10 0 10 11 0 10 0 15 -14 14 -15 0 -10 0 -11 15 0
15 0 0 15 0 15 14 0 14 0 6 13 6 12 6 -12 6 -13 14 0 14 0 0 -15 0 -15 15 0
15 0 0 15 0 15 -15 0 -15 0 0 10 0 10 15 0 15 0 0 15 0 15 -15 0 -15 0 0 15 0
15 15 0 15 0 0 -15 0 -15 10 0 10 0 0 15 0 15 15 0 15 0 0 -15 0 -15 -15 0
-15 0 0 -15 0 -15 -10 0 -10 0 0 -10 0 -10 25 0 25 0 0 25 0 25 15 0 15 0 0
15 0 15 -15 0 -15 0 0 10 0 10 15 0 15 0 0 15 0 15 -15 0 -15 0 0 15 0 15 15
0 15 0 0 10 0 10 -15 0 -15 0 0 30 0 30 -15 0 -15 0 0 -30z m-80 -95 l0 -15
15 0 15 0 0 15 0 15 15 0 15 0 0 -15 0 -15 10 0 10 0 0 15 0 15 15 0 15 0 0
-15 0 -15 -14 0 -14 0 -6 -12 -6 -13 -6 13 -6 12 -14 0 -14 0 0 -10 0 -10 -15
0 -15 0 0 -15 0 -15 15 0 15 0 0 -15 0 -15 -15 0 -15 0 0 15 0 15 -10 0 -10 0
0 -15 0 -15 -15 0 -15 0 0 -10 0 -10 -11 0 -10 0 -15 14 -14 15 0 10 0 11 -15
0 -15 0 0 -15 0 -15 -14 0 -14 0 -5 -12 -4 -13 -9 9 -9 9 13 4 12 5 0 14 0 14
15 0 15 0 0 15 0 15 15 0 15 0 0 -15 0 -15 10 0 10 0 0 15 0 15 15 0 15 0 0
10 0 10 15 0 15 0 0 15 0 15 10 0 10 0 0 -15z"/>
<path d="M1070 680 l0 -10 -15 0 -15 0 0 -15 0 -15 -15 0 -15 0 0 -15 0 -15
15 0 15 0 0 15 0 15 15 0 15 0 0 15 0 15 10 0 10 0 0 10 0 10 -10 0 -10 0 0
-10z"/>
<path d="M160 785 l0 -15 15 0 15 0 0 15 0 15 -15 0 -15 0 0 -15z"/>
<path d="M270 785 l0 -15 10 0 10 0 0 15 0 15 -10 0 -10 0 0 -15z"/>
<path d="M1010 785 l0 -15 15 0 15 0 0 15 0 15 -15 0 -15 0 0 -15z"/>
<path d="M1120 785 l0 -15 14 0 14 0 5 -12 4 -13 9 9 9 9 -12 4 -13 5 0 14 0
14 -15 0 -15 0 0 -15z"/>
<path d="M320 760 l0 -10 15 0 15 0 0 10 0 10 -15 0 -15 0 0 -10z"/>
<path d="M640 760 l0 -10 15 0 15 0 0 10 0 10 -15 0 -15 0 0 -10z"/>
<path d="M960 760 l0 -10 15 0 15 0 0 10 0 10 -15 0 -15 0 0 -10z"/>
<path d="M270 735 l0 -15 10 0 10 0 0 15 0 15 -10 0 -10 0 0 -15z"/>
<path d="M370 735 l0 -15 15 0 15 0 0 15 0 15 -15 0 -15 0 0 -15z"/>
<path d="M560 735 l0 -15 -15 0 -15 0 0 -15 0 -15 15 0 15 0 0 -10 0 -10 -15
0 -15 0 0 -15 0 -15 15 0 15 0 0 -15 0 -15 -11 0 -10 0 -15 -14 -14 -15 0 -10
0 -11 10 0 10 0 0 -25 0 -25 -10 0 -10 0 0 10 0 10 -15 0 -15 0 0 -10 0 -10
-15 0 -15 0 0 -15 0 -15 -10 0 -10 0 0 15 0 15 -15 0 -15 0 0 10 0 10 -15 0
-15 0 0 -10 0 -10 -25 0 -25 0 0 -30 0 -30 -15 0 -15 0 0 15 0 15 -10 0 -10 0
0 -15 0 -15 -15 0 -15 0 0 30 0 30 -15 0 -15 0 0 -30 0 -30 15 0 15 0 0 -10 0
-10 -15 0 -15 0 0 -15 0 -15 -10 0 -10 0 0 15 0 15 -15 0 -15 0 0 10 0 10 15
0 15 0 0 15 0 15 -15 0 -15 0 0 -15 0 -15 -15 0 -15 0 0 30 0 30 -10 0 -10 0
0 -30 0 -30 -15 0 -15 0 0 15 0 15 -15 0 -15 0 0 -15 0 -15 15 0 15 0 0 -10 0
-10 -15 0 -15 0 0 -15 0 -15 15 0 15 0 0 -15 0 -15 -15 0 -15 0 0 -10 0 -10
15 0 15 0 0 -15 0 -15 -15 0 -15 0 0 -15 0 -15 15 0 15 0 0 -10 0 -10 -15 0
-15 0 0 -15 0 -15 15 0 15 0 0 15 0 15 25 0 25 0 0 25 0 25 15 0 15 0 0 -15 0
-15 15 0 15 0 0 15 0 15 25 0 25 0 0 25 0 25 14 0 14 0 6 -12 6 -13 6 13 6 12
29 0 29 0 0 30 0 30 -15 0 -15 0 0 -15 0 -15 -15 0 -15 0 0 -15 0 -15 -10 0
-10 0 0 15 0 15 10 0 10 0 0 15 0 15 15 0 15 0 0 10 0 10 15 0 15 0 0 15 0 15
10 0 10 0 0 15 0 15 15 0 15 0 0 -15 0 -15 -15 0 -15 0 0 -15 0 -15 15 0 15 0
0 -10 0 -10 -15 0 -15 0 0 -15 0 -15 15 0 15 0 0 15 0 15 25 0 25 0 0 25 0 25
15 0 15 0 0 -15 0 -15 15 0 15 0 0 15 0 15 10 0 10 0 0 15 0 15 15 0 15 0 0
-15 0 -15 15 0 15 0 0 -15 0 -15 -30 0 -30 0 0 -25 0 -25 15 0 15 0 0 -15 0
-15 15 0 15 0 0 -10 0 -10 -15 0 -15 0 0 -15 0 -15 -15 0 -15 0 0 -15 0 -15
15 0 15 0 0 -10 0 -10 -15 0 -15 0 0 -15 0 -15 -10 0 -10 0 0 15 0 15 -15 0
-15 0 0 -15 0 -15 -15 0 -15 0 0 -11 0 -10 -14 -15 -15 -14 -10 0 -11 0 0 -15
0 -15 15 0 15 0 0 11 0 10 14 15 15 14 10 0 11 0 0 -10 0 -10 -15 0 -15 0 0
-15 0 -15 15 0 15 0 0 15 0 15 15 0 15 0 0 -15 0 -15 10 0 10 0 0 15 0 15 15
0 15 0 0 10 0 10 14 0 14 0 5 -12 4 -13 9 9 9 9 -12 4 -13 5 0 14 0 14 10 0
10 0 0 14 0 14 -12 6 -13 6 13 6 12 6 0 14 0 14 -10 0 -10 0 0 14 0 14 13 6
12 6 -12 6 -13 6 0 14 0 14 10 0 10 0 0 15 0 15 30 0 30 0 0 -15 0 -15 -15 0
-15 0 0 -15 0 -15 15 0 15 0 0 15 0 15 10 0 10 0 0 -15 0 -15 15 0 15 0 0 -10
0 -10 -15 0 -15 0 0 -15 0 -15 15 0 15 0 0 -15 0 -15 -15 0 -15 0 0 -10 0 -10
15 0 15 0 0 -15 0 -15 -15 0 -15 0 0 -25 0 -25 30 0 30 0 0 -15 0 -15 10 0 10
0 0 15 0 15 15 0 15 0 0 -15 0 -15 15 0 15 0 0 15 0 15 -15 0 -15 0 0 10 0 10
15 0 15 0 0 15 0 15 10 0 10 0 0 -15 0 -15 15 0 15 0 0 15 0 15 -15 0 -15 0 0
15 0 15 15 0 15 0 0 -15 0 -15 15 0 15 0 0 -15 0 -15 -15 0 -15 0 0 -10 0 -10
-15 0 -15 0 0 -15 0 -15 15 0 15 0 0 15 0 15 15 0 15 0 0 -15 0 -15 10 0 10 0
0 15 0 15 15 0 15 0 0 -15 0 -15 15 0 15 0 0 15 0 15 -15 0 -15 0 0 10 0 10
15 0 15 0 0 15 0 15 -15 0 -15 0 0 -15 0 -15 -15 0 -15 0 0 30 0 30 -25 0 -25
0 0 10 0 10 -15 0 -15 0 0 15 0 15 15 0 15 0 0 15 0 15 -15 0 -15 0 0 -15 0
-15 -10 0 -10 0 0 -15 0 -15 -15 0 -15 0 0 15 0 15 -15 0 -15 0 0 -15 0 -15
15 0 15 0 0 -10 0 -10 -15 0 -15 0 0 -15 0 -15 -10 0 -10 0 0 -15 0 -15 -15 0
-15 0 0 15 0 15 15 0 15 0 0 15 0 15 -15 0 -15 0 0 10 0 10 15 0 15 0 0 15 0
15 10 0 10 0 0 15 0 15 15 0 15 0 0 -15 0 -15 15 0 15 0 0 25 0 25 -30 0 -30
0 0 15 0 15 -10 0 -10 0 0 14 0 14 13 5 12 4 -9 9 -9 9 -4 -12 -5 -13 -14 0
-14 0 0 10 0 10 -15 0 -15 0 0 15 0 15 15 0 15 0 0 15 0 15 15 0 15 0 0 -15 0
-15 10 0 10 0 0 14 0 14 -12 6 -13 6 13 6 12 6 0 39 0 39 -10 0 -10 0 0 -25 0
-25 -15 0 -15 0 0 15 0 15 -15 0 -15 0 0 -15 0 -15 15 0 15 0 0 -15 0 -15 -15
0 -15 0 0 -25 0 -25 -10 0 -10 0 0 15 0 15 -15 0 -15 0 0 -15 0 -15 15 0 15 0
0 -15 0 -15 -30 0 -30 0 0 15 0 15 -10 0 -10 0 0 14 0 14 13 5 12 4 -9 9 -9 9
-4 -12 -5 -13 -14 0 -14 0 0 25 0 25 25 0 25 0 0 25 0 25 -10 0 -10 0 0 -10 0
-10 -15 0 -15 0 0 10 0 10 15 0 15 0 0 15 0 15 10 0 10 0 0 -15 0 -15 15 0 15
0 0 -10 0 -10 25 0 25 0 0 10 0 10 -10 0 -10 0 0 15 0 15 10 0 10 0 0 15 0 15
15 0 15 0 0 -15 0 -15 -15 0 -15 0 0 -15 0 -15 15 0 15 0 0 15 0 15 25 0 25 0
0 25 0 25 -10 0 -10 0 0 -10 0 -10 -15 0 -15 0 0 10 0 10 -15 0 -15 0 0 -10 0
-10 -25 0 -25 0 0 -15 0 -15 -15 0 -15 0 0 14 0 14 -12 6 -13 6 13 6 12 6 0
29 0 29 -25 0 -25 0 0 -15z m30 -30 l0 -15 -15 0 -15 0 0 15 0 15 15 0 15 0 0
-15z m0 -50 l0 -15 -15 0 -15 0 0 15 0 15 15 0 15 0 0 -15z m-30 -80 l0 -15
-15 0 -15 0 0 15 0 15 15 0 15 0 0 -15z m-50 -80 l0 -15 -15 0 -15 0 0 15 0
15 15 0 15 0 0 -15z m-80 -30 l0 -15 -15 0 -15 0 0 15 0 15 15 0 15 0 0 -15z
m-300 -25 l0 -10 15 0 15 0 0 -15 0 -15 15 0 15 0 0 -15 0 -15 -15 0 -15 0 0
-10 0 -10 11 0 10 0 15 14 14 15 0 10 0 11 15 0 15 0 0 15 0 15 14 0 14 0 5
13 4 12 9 -9 9 -9 -12 -4 -13 -5 0 -14 0 -14 -15 0 -15 0 0 -15 0 -15 -11 0
-10 0 -15 -14 -14 -15 0 -10 0 -11 -15 0 -15 0 0 15 0 15 -15 0 -15 0 0 -15 0
-15 -10 0 -10 0 0 -15 0 -15 -15 0 -15 0 0 15 0 15 15 0 15 0 0 15 0 15 -15 0
-15 0 0 10 0 10 15 0 15 0 0 15 0 15 -15 0 -15 0 0 15 0 15 15 0 15 0 0 10 0
10 10 0 10 0 0 -10z m480 0 l0 -10 -10 0 -10 0 0 -15 0 -15 -15 0 -15 0 0 15
0 15 15 0 15 0 0 10 0 10 10 0 10 0 0 -10z m80 0 l0 -10 15 0 15 0 0 -15 0
-15 15 0 15 0 0 -14 0 -14 13 -6 12 -6 -12 -6 -13 -6 0 -14 0 -14 -15 0 -15 0
0 15 0 15 15 0 15 0 0 10 0 10 -15 0 -15 0 0 15 0 15 -15 0 -15 0 0 15 0 15
-10 0 -10 0 0 10 0 10 10 0 10 0 0 -10z m-100 -135 l0 -15 -15 0 -15 0 0 15 0
15 15 0 15 0 0 -15z m260 -25 l0 -10 -10 0 -10 0 0 -15 0 -15 -15 0 -15 0 0
-15 0 -15 -14 0 -14 0 -5 -12 -4 -13 -9 9 -9 9 13 4 12 5 0 14 0 14 15 0 15 0
0 15 0 15 15 0 15 0 0 10 0 10 10 0 10 0 0 -10z m-260 -25 l0 -15 -15 0 -15 0
0 -15 0 -15 -14 0 -14 0 -6 -12 -6 -13 -6 13 -6 12 -14 0 -14 0 0 15 0 15 15
0 15 0 0 -15 0 -15 10 0 10 0 0 15 0 15 15 0 15 0 0 15 0 15 15 0 15 0 0 -15z
m340 -55 l0 -10 -10 0 -10 0 0 10 0 10 10 0 10 0 0 -10z"/>
<path d="M110 415 l0 -15 10 0 10 0 0 -14 0 -14 -12 -5 -13 -4 9 -9 9 -9 4 13
5 12 14 0 14 0 0 15 0 15 -15 0 -15 0 0 15 0 15 -10 0 -10 0 0 -15z"/>
<path d="M910 735 l0 -15 10 0 10 0 0 15 0 15 -10 0 -10 0 0 -15z"/>
<path d="M850 705 l0 -15 15 0 15 0 0 15 0 15 -15 0 -15 0 0 -15z"/>
<path d="M370 680 l0 -10 15 0 15 0 0 10 0 10 -15 0 -15 0 0 -10z"/>
<path d="M480 625 l0 -15 15 0 15 0 0 15 0 15 -15 0 -15 0 0 -15z"/>
<path d="M800 625 l0 -15 15 0 15 0 0 -10 0 -10 -15 0 -15 0 0 -15 0 -15 15 0
15 0 0 14 0 14 13 6 12 6 -12 6 -13 6 0 14 0 14 -15 0 -15 0 0 -15z"/>
<path d="M50 575 l0 -15 15 0 15 0 0 15 0 15 -15 0 -15 0 0 -15z"/>
<path d="M110 545 l0 -15 10 0 10 0 0 15 0 15 -10 0 -10 0 0 -15z"/>
<path d="M210 545 l0 -15 15 0 15 0 0 15 0 15 -15 0 -15 0 0 -15z"/>
<path d="M640 545 l0 -15 15 0 15 0 0 15 0 15 -15 0 -15 0 0 -15z"/>
<path d="M960 545 l0 -15 15 0 15 0 0 15 0 15 -15 0 -15 0 0 -15z"/>
<path d="M1070 545 l0 -15 10 0 10 0 0 15 0 15 -10 0 -10 0 0 -15z"/>
<path d="M1170 545 l0 -15 15 0 15 0 0 15 0 15 -15 0 -15 0 0 -15z"/>
<path d="M50 520 l0 -10 15 0 15 0 0 10 0 10 -15 0 -15 0 0 -10z"/>
<path d="M160 520 l0 -10 15 0 15 0 0 10 0 10 -15 0 -15 0 0 -10z"/>
<path d="M270 520 l0 -10 10 0 10 0 0 10 0 10 -10 0 -10 0 0 -10z"/>
<path d="M800 490 l0 -40 25 0 25 0 0 -10 0 -10 15 0 15 0 0 10 0 10 15 0 15
0 0 15 0 15 10 0 10 0 0 -15 0 -15 15 0 15 0 0 15 0 15 15 0 15 0 0 -15 0 -15
-15 0 -15 0 0 -10 0 -10 15 0 15 0 0 -15 0 -15 -15 0 -15 0 0 15 0 15 -15 0
-15 0 0 10 0 10 -10 0 -10 0 0 -25 0 -25 25 0 25 0 0 -15 0 -15 15 0 15 0 0
15 0 15 10 0 10 0 0 15 0 15 15 0 15 0 0 -15 0 -15 15 0 15 0 0 15 0 15 -15 0
-15 0 0 10 0 10 15 0 15 0 0 15 0 15 10 0 10 0 0 -15 0 -15 15 0 15 0 0 -10 0
-10 -15 0 -15 0 0 -15 0 -15 -10 0 -10 0 0 -15 0 -15 -15 0 -15 0 0 15 0 15
-15 0 -15 0 0 -25 0 -25 30 0 30 0 0 -15 0 -15 10 0 10 0 0 15 0 15 15 0 15 0
0 -30 0 -30 25 0 25 0 0 -10 0 -10 15 0 15 0 0 10 0 10 15 0 15 0 0 15 0 15
-15 0 -15 0 0 15 0 15 15 0 15 0 0 10 0 10 -15 0 -15 0 0 15 0 15 15 0 15 0 0
15 0 15 -15 0 -15 0 0 10 0 10 -15 0 -15 0 0 15 0 15 15 0 15 0 0 15 0 15 -15
0 -15 0 0 -15 0 -15 -10 0 -10 0 0 -15 0 -15 -15 0 -15 0 0 15 0 15 -15 0 -15
0 0 15 0 15 -10 0 -10 0 0 -15 0 -15 -15 0 -15 0 0 -15 0 -15 -15 0 -15 0 0
15 0 15 -10 0 -10 0 0 15 0 15 -15 0 -15 0 0 -15 0 -15 -15 0 -15 0 0 25 0 25
-10 0 -10 0 0 -25 0 -25 -15 0 -15 0 0 15 0 15 -15 0 -15 0 0 -15 0 -15 15 0
15 0 0 -15 0 -15 -15 0 -15 0 0 15 0 15 -10 0 -10 0 0 25 0 25 -15 0 -15 0 0
-40z m210 -50 l0 -10 -10 0 -10 0 0 10 0 10 10 0 10 0 0 -10z m160 0 l0 -10
15 0 15 0 0 -15 0 -15 -15 0 -15 0 0 -15 0 -15 15 0 15 0 0 -10 0 -10 -15 0
-15 0 0 -15 0 -15 15 0 15 0 0 -15 0 -15 -15 0 -15 0 0 15 0 15 -10 0 -10 0 0
15 0 15 -15 0 -15 0 0 10 0 10 -14 0 -14 0 -5 -12 -4 -13 -9 9 -9 9 13 4 12 5
0 14 0 14 15 0 15 0 0 15 0 15 15 0 15 0 0 10 0 10 10 0 10 0 0 -10z"/>
<path d="M1150 415 l0 -15 -15 0 -15 0 0 -15 0 -15 14 0 14 0 5 -12 4 -13 9 9
9 9 -12 4 -13 5 0 14 0 14 10 0 10 0 0 15 0 15 -10 0 -10 0 0 -15z"/>
<path d="M1010 520 l0 -10 15 0 15 0 0 10 0 10 -15 0 -15 0 0 -10z"/>
<path d="M1120 520 l0 -10 15 0 15 0 0 10 0 10 -15 0 -15 0 0 -10z"/>
<path d="M190 440 l0 -10 10 0 10 0 0 10 0 10 -10 0 -10 0 0 -10z"/>
<path d="M350 440 l0 -10 10 0 10 0 0 10 0 10 -10 0 -10 0 0 -10z"/>
<path d="M1070 440 l0 -10 10 0 10 0 0 10 0 10 -10 0 -10 0 0 -10z"/>
<path d="M800 415 l0 -15 15 0 15 0 0 15 0 15 -15 0 -15 0 0 -15z"/>
<path d="M430 385 l0 -15 10 0 10 0 0 15 0 15 -10 0 -10 0 0 -15z"/>
<path d="M850 385 l0 -15 15 0 15 0 0 15 0 15 -15 0 -15 0 0 -15z"/>
<path d="M370 360 l0 -10 15 0 15 0 0 10 0 10 -15 0 -15 0 0 -10z"/>
<path d="M670 360 l0 -10 -15 0 -15 0 0 -15 0 -15 15 0 15 0 0 15 0 15 10 0
10 0 0 10 0 10 -10 0 -10 0 0 -10z"/>
<path d="M910 360 l0 -10 10 0 10 0 0 10 0 10 -10 0 -10 0 0 -10z"/>
<path d="M320 335 l0 -15 15 0 15 0 0 15 0 15 -15 0 -15 0 0 -15z"/>
<path d="M960 335 l0 -15 15 0 15 0 0 15 0 15 -15 0 -15 0 0 -15z"/>
<path d="M270 305 l0 -15 10 0 10 0 0 15 0 15 -10 0 -10 0 0 -15z"/>
<path d="M480 305 l0 -15 14 0 14 0 5 -12 4 -13 9 9 9 9 -12 4 -13 5 0 14 0
14 -15 0 -15 0 0 -15z"/>
<path d="M910 305 l0 -15 10 0 10 0 0 15 0 15 -10 0 -10 0 0 -15z"/>
<path d="M1010 305 l0 -15 15 0 15 0 0 15 0 15 -15 0 -15 0 0 -15z"/>
<path d="M210 280 l0 -10 15 0 15 0 0 10 0 10 -15 0 -15 0 0 -10z"/>
<path d="M320 280 l0 -10 15 0 15 0 0 10 0 10 -15 0 -15 0 0 -10z"/>
<path d="M640 280 l0 -10 15 0 15 0 0 10 0 10 -15 0 -15 0 0 -10z"/>
<path d="M750 280 l0 -10 10 0 10 0 0 10 0 10 -10 0 -10 0 0 -10z"/>
<path d="M960 280 l0 -10 15 0 15 0 0 10 0 10 -15 0 -15 0 0 -10z"/>
<path d="M1070 280 l0 -10 10 0 10 0 0 10 0 10 -10 0 -10 0 0 -10z"/>
<path d="M160 255 l0 -15 15 0 15 0 0 15 0 15 -15 0 -15 0 0 -15z"/>
<path d="M270 255 l0 -15 10 0 10 0 0 15 0 15 -10 0 -10 0 0 -15z"/>
<path d="M1010 255 l0 -15 15 0 15 0 0 15 0 15 -15 0 -15 0 0 -15z"/>
<path d="M1120 255 l0 -15 15 0 15 0 0 15 0 15 -15 0 -15 0 0 -15z"/>
<path d="M110 225 l0 -15 10 0 10 0 0 15 0 15 -10 0 -10 0 0 -15z"/>
<path d="M210 225 l0 -15 15 0 15 0 0 15 0 15 -15 0 -15 0 0 -15z"/>
<path d="M640 225 l0 -15 15 0 15 0 0 15 0 15 -15 0 -15 0 0 -15z"/>
<path d="M1070 225 l0 -15 10 0 10 0 0 15 0 15 -10 0 -10 0 0 -15z"/>
<path d="M1170 225 l0 -15 15 0 15 0 0 15 0 15 -15 0 -15 0 0 -15z"/>
<path d="M50 200 l0 -10 15 0 15 0 0 10 0 10 -15 0 -15 0 0 -10z"/>
<path d="M160 200 l0 -10 15 0 15 0 0 10 0 10 -15 0 -15 0 0 -10z"/>
<path d="M830 200 l0 -10 10 0 10 0 0 10 0 10 -10 0 -10 0 0 -10z"/>
<path d="M1010 200 l0 -10 15 0 15 0 0 10 0 10 -15 0 -15 0 0 -10z"/>
<path d="M1120 200 l0 -10 15 0 15 0 0 10 0 10 -15 0 -15 0 0 -10z"/>
<path d="M110 175 l0 -15 10 0 10 0 0 15 0 15 -10 0 -10 0 0 -15z"/>
<path d="M210 175 l0 -15 15 0 15 0 0 15 0 15 -15 0 -15 0 0 -15z"/>
<path d="M640 175 l0 -15 15 0 15 0 0 15 0 15 -15 0 -15 0 0 -15z"/>
<path d="M1070 175 l0 -15 10 0 10 0 0 15 0 15 -10 0 -10 0 0 -15z"/>
<path d="M1170 175 l0 -15 15 0 15 0 0 15 0 15 -15 0 -15 0 0 -15z"/>
</g>
</svg>
