<?xml version="1.0" standalone="no"?>
<!DOCTYPE svg PUBLIC "-//W3C//DTD SVG 20010904//EN"
 "http://www.w3.org/TR/2001/REC-SVG-20010904/DTD/svg10.dtd">
<svg version="1.0" xmlns="http://www.w3.org/2000/svg"
 width="468pt" height="468pt" viewBox="0 0 468 468"
 preserveAspectRatio="xMidYMid meet">
<metadata>
Created by potrace 1.8, written by Peter Selinger 2001-2007
</metadata>
<g transform="translate(0,468) scale(0.365625,-0.365625)"
fill="#000000" stroke="none">
<path d="M50 1270 l0 -10 -15 0 -15 0 0 -15 0 -15 -10 0 -10 0 0 -615 0 -615
10 0 10 0 0 405 0 405 15 0 15 0 0 -15 0 -15 10 0 10 0 0 -21 0 -20 14 -15 15
-14 6 0 6 0 15 -14 14 -15 0 -10 0 -11 10 0 11 0 24 -25 25 -24 0 -11 0 -10
25 0 25 0 0 -10 0 -10 25 0 25 0 0 10 0 10 25 0 25 0 0 15 0 15 280 0 280 0 0
-15 0 -15 25 0 25 0 0 -10 0 -10 25 0 25 0 0 10 0 10 25 0 25 0 0 10 0 11 25
24 24 25 11 0 10 0 0 11 0 10 14 15 15 14 6 0 6 0 15 14 14 15 0 20 0 21 10 0
10 0 0 15 0 15 15 0 15 0 0 -405 0 -405 10 0 10 0 0 626 0 625 -14 15 -15 14
-600 0 -601 0 0 -10z m260 -25 l0 -15 -15 0 -15 0 0 -20 0 -20 15 0 15 0 0 20
0 20 10 0 10 0 0 -10 0 -10 15 0 15 0 0 10 0 10 -15 0 -15 0 0 15 0 15 320 0
320 0 0 -25 0 -25 15 0 15 0 0 25 0 25 10 0 10 0 0 -24 0 -24 13 -6 12 -6 -12
-6 -13 -6 0 -13 0 -13 13 -5 12 -4 -8 -9 -8 -8 -9 14 -9 14 -8 -8 -8 -9 13 -4
12 -5 0 -14 0 -14 10 0 10 0 0 15 0 15 15 0 15 0 0 -15 0 -15 20 0 20 0 0 15
0 15 25 0 25 0 0 10 0 10 15 0 15 0 0 25 0 25 -15 0 -15 0 0 -25 0 -25 -25 0
-25 0 0 15 0 15 -20 0 -20 0 0 10 0 10 10 0 10 0 0 25 0 25 85 0 85 0 0 -75 0
-75 -25 0 -25 0 0 -10 0 -10 -105 0 -105 0 0 -10 0 -10 -25 0 -25 0 0 -15 0
-15 -15 0 -15 0 0 -10 0 -10 15 0 15 0 0 10 0 10 25 0 25 0 0 15 0 15 115 0
115 0 0 10 0 10 15 0 15 0 0 -130 0 -130 -11 0 -10 0 -15 14 -14 15 0 9 0 10
12 5 13 4 -9 9 -9 9 -4 -12 -5 -13 -9 0 -9 0 0 20 0 20 10 0 10 0 0 15 0 15
-10 0 -10 0 0 -15 0 -15 -15 0 -15 0 0 -10 0 -10 -10 0 -10 0 0 25 0 25 -15 0
-15 0 0 -25 0 -25 -10 0 -10 0 0 10 0 10 -10 0 -10 0 0 -20 0 -20 -14 0 -14 0
-5 13 -4 12 -9 -9 -9 -9 13 -4 12 -5 0 -13 0 -13 -12 -4 -13 -5 17 -16 17 -17
10 0 11 0 0 -15 0 -15 10 0 10 0 0 15 0 15 -10 0 -10 0 0 20 0 20 10 0 10 0 0
15 0 15 35 0 35 0 0 -15 0 -15 11 0 10 0 15 -14 14 -15 0 -20 0 -21 -10 0 -10
0 0 -25 0 -25 -13 0 -13 0 -14 -20 -14 -20 -13 0 -13 0 0 -10 0 -11 -25 -24
-24 -25 -21 0 -20 0 0 -15 0 -15 -25 0 -25 0 0 15 0 15 25 0 25 0 0 10 0 10
25 0 25 0 0 10 0 10 -35 0 -35 0 0 15 0 15 -25 0 -25 0 0 10 0 10 -21 0 -20 0
-15 14 -14 15 0 10 0 11 -11 0 -10 0 -15 14 -14 15 0 6 0 6 -14 15 -15 14 -9
0 -10 0 -6 13 -6 12 -6 -12 -6 -13 -14 0 -14 0 0 10 0 10 15 0 15 0 0 15 0 15
-14 0 -14 0 -5 13 -5 12 -12 -15 -12 -15 -5 13 -5 12 -14 0 -14 0 0 -10 0 -10
-20 0 -20 0 0 10 0 10 -14 0 -14 0 -5 -12 -5 -13 -12 15 -12 15 -5 -12 -5 -13
-14 0 -14 0 0 -15 0 -15 15 0 15 0 0 -10 0 -10 -14 0 -14 0 -6 13 -6 12 -6
-12 -6 -13 -10 0 -9 0 -15 -14 -14 -15 0 -6 0 -6 -14 -15 -15 -14 -10 0 -11 0
0 -11 0 -10 -14 -15 -15 -14 -20 0 -21 0 0 -10 0 -10 -25 0 -25 0 0 -15 0 -15
-35 0 -35 0 0 -10 0 -10 25 0 25 0 0 -10 0 -10 25 0 25 0 0 -15 0 -15 -25 0
-25 0 0 15 0 15 -20 0 -21 0 -24 25 -25 24 0 11 0 10 -13 0 -13 0 -14 20 -14
20 -13 0 -13 0 0 25 0 25 -10 0 -10 0 0 21 0 20 14 15 15 14 10 0 11 0 0 15 0
15 35 0 35 0 0 -15 0 -15 10 0 10 0 0 -20 0 -20 -10 0 -10 0 0 -15 0 -15 10 0
10 0 0 15 0 15 11 0 10 0 17 17 17 16 -13 5 -12 4 0 13 0 13 13 5 12 4 -9 9
-9 9 -4 -12 -5 -13 -14 0 -14 0 0 20 0 20 -10 0 -10 0 0 -10 0 -10 -10 0 -10
0 0 25 0 25 -15 0 -15 0 0 -25 0 -25 -10 0 -10 0 0 10 0 10 -15 0 -15 0 0 15
0 15 -10 0 -10 0 0 -15 0 -15 10 0 10 0 0 -20 0 -20 -9 0 -9 0 -5 13 -4 12 -9
-9 -9 -9 13 -4 12 -5 0 -10 0 -9 -14 -15 -15 -14 -10 0 -11 0 0 190 0 190 14
0 14 0 5 13 5 12 11 -15 10 -14 8 8 8 9 -12 4 -13 5 0 14 0 14 120 0 120 0 0
-15z m760 -10 l0 -25 -15 0 -15 0 0 25 0 25 15 0 15 0 0 -25z m0 -60 l0 -15
20 0 20 0 0 -10 0 -10 -20 0 -20 0 0 10 0 10 -15 0 -15 0 0 15 0 15 15 0 15 0
0 -15z m-360 -335 l0 -10 -70 0 -70 0 0 10 0 10 70 0 70 0 0 -10z m-210 -45
l0 -15 -15 0 -15 0 0 15 0 15 15 0 15 0 0 -15z m260 0 l0 -15 -120 0 -120 0 0
15 0 15 120 0 120 0 0 -15z m50 0 l0 -15 -15 0 -15 0 0 15 0 15 15 0 15 0 0
-15z m-340 -50 l0 -15 -10 0 -10 0 0 15 0 15 10 0 10 0 0 -15z m310 0 l0 -15
-140 0 -140 0 0 15 0 15 140 0 140 0 0 -15z m50 0 l0 -15 -10 0 -10 0 0 15 0
15 10 0 10 0 0 -15z m-400 -45 l0 -10 -15 0 -15 0 0 10 0 10 15 0 15 0 0 -10z
m400 0 l0 -10 -190 0 -190 0 0 10 0 10 190 0 190 0 0 -10z m50 0 l0 -10 -15 0
-15 0 0 10 0 10 15 0 15 0 0 -10z m-500 -25 l0 -15 -10 0 -10 0 0 15 0 15 10
0 10 0 0 -15z m540 0 l0 -15 -10 0 -10 0 0 15 0 15 10 0 10 0 0 -15z m-590
-25 l0 -10 -10 0 -10 0 0 10 0 10 10 0 10 0 0 -10z m550 0 l0 -10 -240 0 -240
0 0 10 0 10 240 0 240 0 0 -10z m90 0 l0 -10 -10 0 -10 0 0 10 0 10 10 0 10 0
0 -10z"/>
<path d="M580 1213 l-14 -17 12 -4 12 -4 0 -14 0 -14 -10 0 -10 0 0 -35 0 -35
10 0 10 0 0 10 0 10 15 0 15 0 0 -10 0 -10 20 0 20 0 0 10 0 10 15 0 15 0 0
-10 0 -10 10 0 10 0 0 35 0 35 -10 0 -10 0 0 14 0 14 12 4 13 5 -17 16 -17 17
-43 0 -43 -1 -15 -16z m40 -13 l0 -10 20 0 20 0 0 10 0 10 15 0 15 0 0 -10 0
-10 -15 0 -15 0 0 -15 0 -15 -20 0 -20 0 0 15 0 15 -15 0 -15 0 0 10 0 10 15
0 15 0 0 -10z"/>
<path d="M920 1210 l0 -20 15 0 15 0 0 -15 0 -15 -25 0 -25 0 0 25 0 25 -10 0
-10 0 0 -21 0 -20 14 -15 15 -14 20 0 21 0 0 -15 0 -15 25 0 25 0 0 15 0 15
-25 0 -25 0 0 10 0 10 25 0 25 0 0 14 0 14 13 5 12 4 -9 9 -9 9 -4 -12 -5 -13
-24 0 -24 0 0 20 0 20 -15 0 -15 0 0 -20z"/>
<path d="M1110 1210 l0 -20 15 0 15 0 0 20 0 20 -15 0 -15 0 0 -20z"/>
<path d="M133 1195 l-13 -14 0 -46 0 -45 10 0 10 0 0 35 0 35 11 0 10 0 15
-14 14 -15 0 -20 0 -21 10 0 10 0 0 35 0 35 -10 0 -10 0 0 15 0 15 10 0 10 0
0 -15 0 -15 11 0 10 0 15 -14 14 -15 0 -10 0 -11 10 0 10 0 0 25 0 25 -10 0
-10 0 0 15 0 15 -24 0 -24 0 -5 13 -5 12 -12 -15 -12 -15 -5 13 -5 12 -11 0
-12 -1 -12 -14z"/>
<path d="M50 1175 l0 -15 20 0 20 0 0 15 0 15 -20 0 -20 0 0 -15z"/>
<path d="M70 1125 l0 -15 10 0 10 0 0 15 0 15 -10 0 -10 0 0 -15z"/>
<path d="M590 1056 l0 -14 -12 -5 -13 -4 9 -9 9 -9 4 13 5 12 14 0 14 0 0 -10
0 -10 20 0 20 0 0 10 0 10 14 0 14 0 5 -12 4 -13 9 9 9 9 -12 4 -13 5 0 14 0
14 -15 0 -15 0 0 -15 0 -15 -20 0 -20 0 0 15 0 15 -15 0 -15 0 0 -14z"/>
<path d="M550 975 l0 -25 6 0 5 0 15 14 14 15 0 10 0 11 -20 0 -20 0 0 -25z"/>
<path d="M620 985 l0 -15 -11 0 -10 0 -15 -14 -14 -15 0 -20 0 -21 10 0 10 0
0 25 0 25 15 0 15 0 0 -15 0 -15 20 0 20 0 0 15 0 15 15 0 15 0 0 -25 0 -25
10 0 10 0 0 21 0 20 -14 15 -15 14 -10 0 -11 0 0 15 0 15 -20 0 -20 0 0 -15z
m40 -25 l0 -10 -20 0 -20 0 0 10 0 10 20 0 20 0 0 -10z"/>
<path d="M690 987 l0 -13 20 -14 20 -14 0 -13 0 -13 13 0 13 0 14 -20 14 -20
13 0 13 0 0 -10 0 -11 25 -24 24 -25 10 0 9 0 5 13 4 12 9 -9 9 -9 -12 -4 -13
-5 0 -10 0 -9 17 -17 16 -17 5 13 4 12 14 0 14 0 0 -10 0 -10 -15 0 -15 0 0
-15 0 -15 25 0 25 0 0 -10 0 -10 24 0 24 0 5 13 4 12 9 -9 9 -9 -12 -4 -13 -5
0 -9 0 -9 24 0 24 0 5 13 5 12 12 -15 12 -15 5 13 5 12 14 0 14 0 0 10 0 10
-35 0 -35 0 0 15 0 15 -25 0 -25 0 0 10 0 10 -25 0 -25 0 0 15 0 15 -20 0 -21
0 -24 25 -25 24 0 11 0 10 -15 0 -15 0 0 -15 0 -15 -10 0 -10 0 0 14 0 14 12
4 13 5 -19 19 -19 19 -5 -13 -4 -12 -10 0 -9 0 -15 14 -14 15 0 10 0 11 10 0
10 0 0 -15 0 -15 15 0 15 0 0 15 0 15 -14 0 -14 0 -6 13 -6 12 -6 -12 -6 -13
-14 0 -14 0 0 25 0 25 -20 0 -20 0 0 -13z m310 -242 l0 -15 -15 0 -15 0 0 15
0 15 15 0 15 0 0 -15z"/>
<path d="M500 960 l0 -10 -15 0 -15 0 0 -15 0 -15 15 0 15 0 0 15 0 15 10 0
10 0 0 -11 0 -10 -14 -15 -15 -14 -9 0 -10 0 -4 12 -5 13 -19 -19 -19 -19 13
-5 12 -4 0 -14 0 -14 -10 0 -10 0 0 15 0 15 -15 0 -15 0 0 -10 0 -11 -25 -24
-24 -25 -21 0 -20 0 0 -15 0 -15 -25 0 -25 0 0 -10 0 -10 -25 0 -25 0 0 -15 0
-15 -35 0 -35 0 0 -10 0 -10 14 0 14 0 5 -12 5 -13 12 15 12 15 5 -12 5 -13
24 0 24 0 0 9 0 9 -12 5 -13 4 9 9 9 9 4 -12 5 -13 24 0 24 0 0 10 0 10 25 0
25 0 0 15 0 15 -15 0 -15 0 0 10 0 10 14 0 14 0 4 -12 5 -13 16 17 17 17 0 9
0 10 -12 5 -13 4 9 9 9 9 4 -12 5 -13 9 0 10 0 24 25 25 24 0 11 0 10 13 0 13
0 14 20 14 20 13 0 13 0 0 15 0 15 -15 0 -15 0 0 10 0 10 -10 0 -10 0 0 -10z
m-190 -215 l0 -15 -15 0 -15 0 0 15 0 15 15 0 15 0 0 -15z"/>
<path d="M380 580 l0 -10 25 0 25 0 0 10 0 10 -25 0 -25 0 0 -10z"/>
<path d="M450 580 l0 -10 10 0 10 0 0 10 0 10 -10 0 -10 0 0 -10z"/>
<path d="M500 580 l0 -10 10 0 10 0 0 10 0 10 -10 0 -10 0 0 -10z"/>
<path d="M550 580 l0 -10 10 0 10 0 0 10 0 10 -10 0 -10 0 0 -10z"/>
<path d="M590 580 l0 -10 15 0 15 0 0 10 0 10 -15 0 -15 0 0 -10z"/>
<path d="M660 580 l0 -10 15 0 15 0 0 10 0 10 -15 0 -15 0 0 -10z"/>
<path d="M710 580 l0 -10 10 0 10 0 0 10 0 10 -10 0 -10 0 0 -10z"/>
<path d="M760 580 l0 -10 10 0 10 0 0 10 0 10 -10 0 -10 0 0 -10z"/>
<path d="M810 580 l0 -10 10 0 10 0 0 10 0 10 -10 0 -10 0 0 -10z"/>
<path d="M850 580 l0 -10 25 0 25 0 0 10 0 10 -25 0 -25 0 0 -10z"/>
<path d="M120 499 l0 -20 14 -15 15 -14 41 0 41 0 15 14 14 15 0 20 0 21 -10
0 -10 0 0 -10 0 -10 -15 0 -15 0 0 10 0 10 -20 0 -20 0 0 -10 0 -10 -15 0 -15
0 0 10 0 10 -10 0 -10 0 0 -21z m90 -14 l0 -15 -20 0 -20 0 0 15 0 15 20 0 20
0 0 -15z"/>
<path d="M280 495 l0 -25 15 0 15 0 0 15 0 15 10 0 10 0 0 -15 0 -15 15 0 15
0 0 15 0 15 -15 0 -15 0 0 10 0 10 -25 0 -25 0 0 -25z"/>
<path d="M380 499 l0 -20 14 -15 15 -14 30 0 31 0 0 10 0 10 15 0 15 0 0 25 0
25 -14 0 -14 0 -5 -12 -5 -13 -12 15 -12 15 -5 -12 -5 -13 -14 0 -14 0 0 10 0
10 -10 0 -10 0 0 -21z m70 -14 l0 -15 -10 0 -10 0 0 15 0 15 10 0 10 0 0 -15z"/>
<path d="M520 495 l0 -25 15 0 15 0 0 15 0 15 10 0 10 0 0 -15 0 -15 10 0 10
0 0 15 0 15 15 0 15 0 0 -15 0 -15 20 0 20 0 0 15 0 15 15 0 15 0 0 -15 0 -15
10 0 10 0 0 15 0 15 10 0 10 0 0 -15 0 -15 15 0 15 0 0 25 0 25 -24 0 -24 0
-6 -12 -6 -13 -6 13 -6 12 -14 0 -14 0 0 -10 0 -10 -20 0 -20 0 0 10 0 10 -14
0 -14 0 -6 -12 -6 -13 -6 13 -6 12 -24 0 -24 0 0 -25z"/>
<path d="M780 495 l0 -25 15 0 15 0 0 -10 0 -10 35 0 35 0 0 10 0 10 20 0 20
0 0 15 0 15 15 0 15 0 0 -15 0 -15 10 0 10 0 0 25 0 25 -24 0 -24 0 -5 -12 -5
-13 -12 15 -12 15 -5 -12 -5 -13 -13 0 -13 0 -5 13 -5 12 -12 -15 -12 -15 -5
13 -5 12 -14 0 -14 0 0 -25z m70 -10 l0 -15 -10 0 -10 0 0 15 0 15 10 0 10 0
0 -15z"/>
<path d="M1000 499 l0 -20 14 -15 15 -14 40 0 41 0 0 10 0 10 15 0 15 0 0 25
0 25 -14 0 -14 0 -6 -12 -6 -13 -6 13 -6 12 -23 0 -23 0 -6 -12 -6 -13 -6 13
-6 12 -9 0 -9 0 0 -21z m90 -14 l0 -15 -25 0 -25 0 0 15 0 15 25 0 25 0 0 -15z"/>
<path d="M170 320 l0 -110 10 0 10 0 0 75 0 75 10 0 10 0 0 -75 0 -75 15 0 15
0 0 110 0 110 -35 0 -35 0 0 -110z m40 70 l0 -10 -10 0 -10 0 0 10 0 10 10 0
10 0 0 -10z"/>
<path d="M400 320 l0 -110 15 0 15 0 0 75 0 75 10 0 10 0 0 -180 0 -180 10 0
10 0 0 215 0 215 -35 0 -35 0 0 -110z m50 70 l0 -10 -10 0 -10 0 0 10 0 10 10
0 10 0 0 -10z"/>
<path d="M810 215 l0 -215 10 0 10 0 0 180 0 180 10 0 10 0 0 -75 0 -75 15 0
15 0 0 110 0 110 -35 0 -35 0 0 -215z m40 175 l0 -10 -10 0 -10 0 0 10 0 10
10 0 10 0 0 -10z"/>
<path d="M1020 320 l0 -110 10 0 10 0 0 75 0 75 15 0 15 0 0 -75 0 -75 10 0
10 0 0 110 0 110 -35 0 -35 0 0 -110z m50 70 l0 -10 -15 0 -15 0 0 10 0 10 15
0 15 0 0 -10z"/>
<path d="M70 169 l0 -20 14 -15 15 -14 20 0 21 0 0 -35 0 -35 15 0 15 0 0 -25
0 -25 9 0 9 0 6 13 6 12 6 -12 6 -13 14 0 14 0 0 10 0 10 20 0 20 0 0 -10 0
-10 15 0 15 0 0 10 0 10 35 0 35 0 0 -10 0 -10 25 0 25 0 0 25 0 25 -15 0 -15
0 0 35 0 35 15 0 15 0 0 10 0 10 -130 0 -130 0 0 -10 0 -10 -15 0 -15 0 0 25
0 25 145 0 145 0 0 10 0 10 -180 0 -180 0 0 -21z m50 -14 l0 -15 -15 0 -15 0
0 15 0 15 15 0 15 0 0 -15z m90 -60 l0 -25 15 0 15 0 0 25 0 25 20 0 20 0 0
-25 0 -25 15 0 15 0 0 25 0 25 35 0 35 0 0 -35 0 -35 -24 0 -24 0 -6 13 -6 12
-6 -12 -6 -13 -23 0 -23 0 -6 13 -6 12 -6 -12 -6 -13 -24 0 -24 0 0 35 0 35
10 0 10 0 0 -25z"/>
<path d="M500 180 l0 -10 140 0 140 0 0 10 0 10 -140 0 -140 0 0 -10z"/>
<path d="M850 180 l0 -10 130 0 130 0 0 -25 0 -25 25 0 25 0 0 10 0 10 15 0
15 0 0 25 0 25 -170 0 -170 0 0 -10z m310 -25 l0 -15 -10 0 -10 0 0 15 0 15
10 0 10 0 0 -15z"/>
<path d="M500 130 l0 -10 10 0 10 0 0 -25 0 -25 -10 0 -10 0 0 -21 0 -20 14
-15 15 -14 10 0 11 0 0 10 0 10 20 0 20 0 0 -10 0 -10 15 0 15 0 0 10 0 10 20
0 20 0 0 -10 0 -10 15 0 15 0 0 10 0 10 20 0 20 0 0 -10 0 -10 11 0 10 0 15
14 14 15 0 20 0 21 -10 0 -10 0 0 25 0 25 10 0 10 0 0 10 0 10 -140 0 -140 0
0 -10z m90 -35 l0 -25 15 0 15 0 0 25 0 25 20 0 20 0 0 -25 0 -25 15 0 15 0 0
25 0 25 20 0 20 0 0 -25 0 -25 15 0 15 0 0 -10 0 -10 -24 0 -24 0 -6 13 -6 12
-6 -12 -6 -13 -48 0 -48 0 -6 13 -6 12 -6 -12 -6 -13 -24 0 -24 0 0 10 0 10
15 0 15 0 0 25 0 25 20 0 20 0 0 -25z"/>
<path d="M850 130 l0 -10 15 0 15 0 0 -35 0 -35 -15 0 -15 0 0 -25 0 -25 25 0
25 0 0 10 0 10 24 0 24 0 6 -12 6 -13 6 13 6 12 23 0 23 0 6 -12 6 -13 6 13 6
12 14 0 14 0 0 -10 0 -10 10 0 10 0 0 25 0 25 10 0 10 0 0 31 0 30 -14 15 -15
14 -115 0 -116 0 0 -10z m100 -35 l0 -25 -15 0 -15 0 0 -10 0 -10 -10 0 -10 0
0 35 0 35 25 0 25 0 0 -25z m70 4 l0 -20 -14 -15 -15 -14 -20 0 -21 0 0 10 0
10 10 0 10 0 0 25 0 25 25 0 25 0 0 -21z m50 -14 l0 -35 -25 0 -25 0 0 10 0
10 10 0 10 0 0 25 0 25 15 0 15 0 0 -35z"/>
</g>
</svg>
