<?xml version="1.0" standalone="no"?>
<!DOCTYPE svg PUBLIC "-//W3C//DTD SVG 20010904//EN"
 "http://www.w3.org/TR/2001/REC-SVG-20010904/DTD/svg10.dtd">
<svg version="1.0" xmlns="http://www.w3.org/2000/svg"
 width="468pt" height="468pt" viewBox="0 0 468 468"
 preserveAspectRatio="xMidYMid meet">
<metadata>
Created by potrace 1.8, written by Peter Selinger 2001-2007
</metadata>
<g transform="translate(0,468) scale(0.365625,-0.365625)"
fill="#000000" stroke="none">
<path d="M360 1230 l0 -50 -25 0 -25 0 0 -50 0 -50 -25 0 -25 0 0 25 0 25 -30
0 -30 0 0 -25 0 -25 30 0 30 0 0 -30 0 -30 -30 0 -30 0 0 -25 0 -25 -25 0 -25
0 0 25 0 25 -25 0 -25 0 0 -50 0 -50 25 0 25 0 0 -25 0 -25 -25 0 -25 0 0 -25
0 -25 -50 0 -50 0 0 -25 0 -25 25 0 25 0 0 -25 0 -25 -25 0 -25 0 0 -180 0
-180 50 0 50 0 0 -25 0 -25 -50 0 -50 0 0 -105 0 -105 50 0 50 0 0 -25 0 -25
-25 0 -25 0 0 -25 0 -25 105 0 105 0 0 50 0 50 25 0 25 0 0 -25 0 -25 25 0 25
0 0 -25 0 -25 25 0 25 0 0 25 0 25 50 0 50 0 0 -25 0 -25 80 0 80 0 0 25 0 25
25 0 25 0 0 -25 0 -25 100 0 100 0 0 50 0 50 25 0 25 0 0 -25 0 -25 55 0 55 0
0 -25 0 -25 50 0 50 0 0 100 0 100 25 0 25 0 0 -25 0 -25 25 0 25 0 0 180 0
180 -25 0 -25 0 0 50 0 50 -25 0 -25 0 0 55 0 55 -50 0 -50 0 0 25 0 25 25 0
25 0 0 75 0 75 -25 0 -25 0 0 50 0 50 -30 0 -30 0 0 55 0 55 -50 0 -50 0 0 25
0 25 -25 0 -25 0 0 -25 0 -25 -25 0 -25 0 0 25 0 25 -25 0 -25 0 0 25 0 25 50
0 50 0 0 25 0 25 -50 0 -50 0 0 -25 0 -25 -50 0 -50 0 0 25 0 25 -55 0 -55 0
0 -75 0 -75 -50 0 -50 0 0 25 0 25 25 0 25 0 0 50 0 50 -25 0 -25 0 0 -50 0
-50 -25 0 -25 0 0 50 0 50 -25 0 -25 0 0 -50z m310 -25 l0 -25 -30 0 -30 0 0
25 0 25 30 0 30 0 0 -25z m100 -50 l0 -25 -25 0 -25 0 0 25 0 25 25 0 25 0 0
-25z m-360 -50 l0 -25 -25 0 -25 0 0 -30 0 -30 -25 0 -25 0 0 30 0 30 25 0 25
0 0 25 0 25 25 0 25 0 0 -25z m310 -55 l0 -30 -105 0 -105 0 0 30 0 30 105 0
105 0 0 -30z m-210 -105 l0 -25 -25 0 -25 0 0 -25 0 -25 25 0 25 0 0 -25 0
-25 -100 0 -100 0 0 25 0 25 25 0 25 0 0 25 0 25 50 0 50 0 0 25 0 25 25 0 25
0 0 -25z m100 0 l0 -25 -25 0 -25 0 0 25 0 25 25 0 25 0 0 -25z m210 0 l0 -25
-25 0 -25 0 0 25 0 25 25 0 25 0 0 -25z m100 -50 l0 -25 80 0 80 0 0 -50 0
-50 -30 0 -30 0 0 25 0 25 -50 0 -50 0 0 25 0 25 -25 0 -25 0 0 -25 0 -25 -50
0 -50 0 0 25 0 25 50 0 50 0 0 25 0 25 25 0 25 0 0 -25z m-250 -50 l0 -25 -30
0 -30 0 0 25 0 25 30 0 30 0 0 -25z m-410 -75 l0 -50 50 0 50 0 0 -25 0 -25
-50 0 -50 0 0 25 0 25 -30 0 -30 0 0 -25 0 -25 -25 0 -25 0 0 -30 0 -30 -50 0
-50 0 0 30 0 30 50 0 50 0 0 25 0 25 -25 0 -25 0 0 25 0 25 25 0 25 0 0 -25 0
-25 25 0 25 0 0 50 0 50 30 0 30 0 0 -50z m460 -25 l0 -25 -55 0 -55 0 0 25 0
25 55 0 55 0 0 -25z m-160 -50 l0 -25 -25 0 -25 0 0 25 0 25 25 0 25 0 0 -25z
m310 -55 l0 -30 25 0 25 0 0 -25 0 -25 25 0 25 0 0 -25 0 -25 80 0 80 0 0 -25
0 -25 -80 0 -80 0 0 25 0 25 -25 0 -25 0 0 25 0 25 -25 0 -25 0 0 25 0 25 -25
0 -25 0 0 -25 0 -25 -25 0 -25 0 0 25 0 25 25 0 25 0 0 30 0 30 25 0 25 0 0
-30z m260 0 l0 -30 -25 0 -25 0 0 30 0 30 25 0 25 0 0 -30z m-980 -105 l0 -25
-25 0 -25 0 0 -50 0 -50 -25 0 -25 0 0 50 0 50 25 0 25 0 0 25 0 25 25 0 25 0
0 -25z m210 0 l0 -25 -80 0 -80 0 0 25 0 25 80 0 80 0 0 -25z m100 0 l0 -25
25 0 25 0 0 25 0 25 25 0 25 0 0 -25 0 -25 25 0 25 0 0 -25 0 -25 -100 0 -100
0 0 50 0 50 25 0 25 0 0 -25z m260 0 l0 -25 25 0 25 0 0 -25 0 -25 -25 0 -25
0 0 25 0 25 -25 0 -25 0 0 25 0 25 25 0 25 0 0 -25z m150 -50 l0 -25 25 0 25
0 0 -25 0 -25 -25 0 -25 0 0 25 0 25 -25 0 -25 0 0 25 0 25 25 0 25 0 0 -25z
m-510 -50 l0 -25 -25 0 -25 0 0 -25 0 -25 -25 0 -25 0 0 25 0 25 -30 0 -30 0
0 -50 0 -50 30 0 30 0 0 -80 0 -80 -30 0 -30 0 0 -25 0 -25 -50 0 -50 0 0 25
0 25 50 0 50 0 0 80 0 80 -25 0 -25 0 0 50 0 50 25 0 25 0 0 25 0 25 80 0 80
0 0 -25z m200 -100 l0 -25 -25 0 -25 0 0 25 0 25 25 0 25 0 0 -25z m110 -25
l0 -50 -30 0 -30 0 0 50 0 50 30 0 30 0 0 -50z m300 25 l0 -25 -25 0 -25 0 0
25 0 25 25 0 25 0 0 -25z m210 0 l0 -25 -25 0 -25 0 0 25 0 25 25 0 25 0 0
-25z m-360 -50 l0 -25 25 0 25 0 0 -55 0 -55 -50 0 -50 0 0 -25 0 -25 -25 0
-25 0 0 25 0 25 25 0 25 0 0 25 0 25 25 0 25 0 0 30 0 30 -25 0 -25 0 0 25 0
25 25 0 25 0 0 -25z m-670 -55 l0 -30 -25 0 -25 0 0 30 0 30 25 0 25 0 0 -30z
m260 0 l0 -30 -25 0 -25 0 0 30 0 30 25 0 25 0 0 -30z m100 0 l0 -30 -25 0
-25 0 0 30 0 30 25 0 25 0 0 -30z m510 0 l0 -30 -25 0 -25 0 0 30 0 30 25 0
25 0 0 -30z m-510 -105 l0 -25 -25 0 -25 0 0 25 0 25 25 0 25 0 0 -25z m620 0
l0 -25 -55 0 -55 0 0 25 0 25 55 0 55 0 0 -25z"/>
<path d="M1230 25 l0 -25 25 0 25 0 0 25 0 25 -25 0 -25 0 0 -25z"/>
</g>
</svg>
