<?xml version="1.0" standalone="no"?>
<!DOCTYPE svg PUBLIC "-//W3C//DTD SVG 20010904//EN"
 "http://www.w3.org/TR/2001/REC-SVG-20010904/DTD/svg10.dtd">
<svg version="1.0" xmlns="http://www.w3.org/2000/svg"
 width="468pt" height="468pt" viewBox="0 0 468 468"
 preserveAspectRatio="xMidYMid meet">
<metadata>
Created by potrace 1.8, written by Peter Selinger 2001-2007
</metadata>
<g transform="translate(0,468) scale(0.365625,-0.365625)"
fill="#000000" stroke="none">
<path d="M512 1043 l-174 -175 5 -5 6 -5 170 171 171 171 115 -115 116 -116
-15 -15 -16 -15 -100 101 -100 100 -176 -176 -176 -176 5 -5 6 -5 170 171 171
171 95 -95 96 -96 -15 -15 -16 -15 -80 81 -80 81 -175 -176 -175 -175 125
-125 125 -125 176 176 176 176 -5 5 -6 5 -170 -171 -171 -171 -115 115 -116
116 15 15 16 15 100 -101 100 -100 176 176 176 176 -5 5 -6 5 -170 -171 -171
-171 -95 95 -96 96 15 15 16 15 80 -81 80 -81 175 176 175 175 -125 125 -125
125 -2 -1 -3 -1 -173 -175z m253 -78 l75 -75 -125 -125 -125 -125 -75 75 -75
75 122 124 123 124 3 1 2 1 75 -75z"/>
<path d="M200 380 l0 -100 20 0 20 0 0 50 0 50 40 0 40 0 0 10 0 10 -40 0 -40
0 0 30 0 30 50 0 50 0 0 10 0 10 -70 0 -70 0 0 -100z"/>
<path d="M380 350 l0 -70 20 0 20 0 0 50 0 50 19 0 19 0 6 13 6 12 6 -12 6
-13 19 0 19 0 0 6 0 5 -14 15 -15 14 -24 0 -25 0 -6 -12 -6 -13 -6 13 -6 12
-19 0 -19 0 0 -70z"/>
<path d="M573 405 l-13 -14 0 -6 0 -5 20 0 20 0 0 10 0 10 20 0 20 0 0 -20 0
-20 -26 0 -25 0 -15 -14 -14 -15 0 -11 0 -11 14 -15 15 -14 55 0 56 0 0 10 0
10 -10 0 -10 0 0 46 0 45 -14 15 -15 14 -33 0 -33 -1 -12 -14z m67 -85 l0 -20
-20 0 -20 0 0 20 0 20 20 0 20 0 0 -20z"/>
<path d="M740 350 l0 -70 20 0 20 0 0 56 0 55 -14 15 -15 14 -5 0 -6 0 0 -70z"/>
<path d="M780 410 l0 -10 10 0 10 0 0 -60 0 -60 20 0 20 0 0 56 0 55 -14 15
-15 14 -15 0 -16 0 0 -10z"/>
<path d="M840 410 l0 -10 10 0 10 0 0 -60 0 -60 20 0 20 0 0 56 0 55 -14 15
-15 14 -15 0 -16 0 0 -10z"/>
<path d="M953 405 l-13 -14 0 -41 0 -41 14 -15 15 -14 41 0 41 0 15 14 14 15
0 5 0 6 -20 0 -20 0 0 -10 0 -10 -30 0 -30 0 0 20 0 20 50 0 50 0 0 26 0 25
-14 15 -15 14 -43 0 -43 -1 -12 -14z m87 -25 l0 -20 -30 0 -30 0 0 20 0 20 30
0 30 0 0 -20z"/>
<path d="M0 100 l0 -100 640 0 640 0 0 100 0 100 -640 0 -640 0 0 -100z"/>
</g>
</svg>
