<?xml version="1.0" standalone="no"?>
<!DOCTYPE svg PUBLIC "-//W3C//DTD SVG 20010904//EN"
 "http://www.w3.org/TR/2001/REC-SVG-20010904/DTD/svg10.dtd">
<svg version="1.0" xmlns="http://www.w3.org/2000/svg"
 width="468pt" height="468pt" viewBox="0 0 468 468"
 preserveAspectRatio="xMidYMid meet">
<metadata>
Created by potrace 1.8, written by Peter Selinger 2001-2007
</metadata>
<g transform="translate(0,468) scale(0.365625,-0.365625)"
fill="#000000" stroke="none">
<path d="M580 1265 l0 -15 -20 0 -20 0 0 -15 0 -15 -15 0 -15 0 0 -20 0 -20
-15 0 -15 0 0 -15 0 -15 -15 0 -15 0 0 -15 0 -15 -15 0 -15 0 0 -15 0 -15 -20
0 -20 0 0 -15 0 -15 -15 0 -15 0 0 -20 0 -20 -15 0 -15 0 0 -15 0 -15 -15 0
-15 0 0 -15 0 -15 -15 0 -15 0 0 -15 0 -15 -20 0 -20 0 0 -15 0 -15 -15 0 -15
0 0 -20 0 -20 -15 0 -15 0 0 -15 0 -15 -15 0 -15 0 0 -15 0 -15 -15 0 -15 0 0
-15 0 -15 -20 0 -20 0 0 -15 0 -15 -15 0 -15 0 0 -20 0 -20 -15 0 -15 0 0 -30
0 -30 15 0 15 0 0 -30 0 -30 -15 0 -15 0 0 -20 0 -20 15 0 15 0 0 -15 0 -15
15 0 15 0 0 -15 0 -15 20 0 20 0 0 -15 0 -15 15 0 15 0 0 -15 0 -15 15 0 15 0
0 -20 0 -20 15 0 15 0 0 -15 0 -15 15 0 15 0 0 -15 0 -15 20 0 20 0 0 -15 0
-15 15 0 15 0 0 -15 0 -15 15 0 15 0 0 -20 0 -20 15 0 15 0 0 -15 0 -15 15 0
15 0 0 -15 0 -15 20 0 20 0 0 -15 0 -15 15 0 15 0 0 -15 0 -15 15 0 15 0 0
-20 0 -20 15 0 15 0 0 -15 0 -15 -255 0 -255 0 0 -15 0 -15 640 0 640 0 0 15
0 15 -270 0 -270 0 0 15 0 15 15 0 15 0 0 20 0 20 15 0 15 0 0 15 0 15 15 0
15 0 0 15 0 15 15 0 15 0 0 15 0 15 20 0 20 0 0 15 0 15 15 0 15 0 0 20 0 20
15 0 15 0 0 15 0 15 15 0 15 0 0 15 0 15 15 0 15 0 0 15 0 15 20 0 20 0 0 15
0 15 15 0 15 0 0 20 0 20 15 0 15 0 0 15 0 15 15 0 15 0 0 15 0 15 15 0 15 0
0 15 0 15 20 0 20 0 0 15 0 15 15 0 15 0 0 20 0 20 15 0 15 0 0 15 0 15 -15 0
-15 0 0 45 0 45 -15 0 -15 0 0 20 0 20 -20 0 -20 0 0 15 0 15 -15 0 -15 0 0
15 0 15 -15 0 -15 0 0 15 0 15 -15 0 -15 0 0 15 0 15 -15 0 -15 0 0 20 0 20
-20 0 -20 0 0 15 0 15 -15 0 -15 0 0 15 0 15 -15 0 -15 0 0 15 0 15 -15 0 -15
0 0 15 0 15 -15 0 -15 0 0 20 0 20 -20 0 -20 0 0 15 0 15 -15 0 -15 0 0 15 0
15 -15 0 -15 0 0 15 0 15 -15 0 -15 0 0 15 0 15 -15 0 -15 0 0 20 0 20 -20 0
-20 0 0 15 0 15 -15 0 -15 0 0 15 0 15 -45 0 -45 0 0 -15z m90 -30 l0 -15 15
0 15 0 0 -20 0 -20 20 0 20 0 0 -15 0 -15 15 0 15 0 0 -15 0 -15 15 0 15 0 0
-15 0 -15 15 0 15 0 0 -15 0 -15 15 0 15 0 0 -20 0 -20 20 0 20 0 0 -15 0 -15
15 0 15 0 0 -15 0 -15 15 0 15 0 0 -15 0 -15 15 0 15 0 0 -15 0 -15 15 0 15 0
0 -20 0 -20 20 0 20 0 0 -15 0 -15 15 0 15 0 0 -15 0 -15 15 0 15 0 0 -15 0
-15 15 0 15 0 0 -15 0 -15 15 0 15 0 0 -20 0 -20 20 0 20 0 0 -30 0 -30 -20 0
-20 0 0 -15 0 -15 -30 0 -30 0 0 15 0 15 -15 0 -15 0 0 15 0 15 -15 0 -15 0 0
15 0 15 -20 0 -20 0 0 20 0 20 -15 0 -15 0 0 15 0 15 -15 0 -15 0 0 15 0 15
-30 0 -30 0 0 -15 0 -15 -20 0 -20 0 0 -15 0 -15 -15 0 -15 0 0 -20 0 -20 -15
0 -15 0 0 -15 0 -15 -15 0 -15 0 0 -15 0 -15 -15 0 -15 0 0 -15 0 -15 -20 0
-20 0 0 -15 0 -15 -15 0 -15 0 0 -20 0 -20 -15 0 -15 0 0 -15 0 -15 -15 0 -15
0 0 -15 0 -15 -15 0 -15 0 0 -15 0 -15 -20 0 -20 0 0 -15 0 -15 20 0 20 0 0
-20 0 -20 15 0 15 0 0 -15 0 -15 15 0 15 0 0 -15 0 -15 15 0 15 0 0 -15 0 -15
15 0 15 0 0 -15 0 -15 20 0 20 0 0 -20 0 -20 15 0 15 0 0 20 0 20 -15 0 -15 0
0 15 0 15 -20 0 -20 0 0 15 0 15 -15 0 -15 0 0 15 0 15 -15 0 -15 0 0 15 0 15
-15 0 -15 0 0 20 0 20 -15 0 -15 0 0 15 0 15 15 0 15 0 0 15 0 15 15 0 15 0 0
15 0 15 15 0 15 0 0 15 0 15 15 0 15 0 0 20 0 20 20 0 20 0 0 15 0 15 15 0 15
0 0 15 0 15 15 0 15 0 0 15 0 15 15 0 15 0 0 15 0 15 15 0 15 0 0 -15 0 -15
20 0 20 0 0 -15 0 -15 15 0 15 0 0 -15 0 -15 15 0 15 0 0 -15 0 -15 15 0 15 0
0 -20 0 -20 15 0 15 0 0 -15 0 -15 20 0 20 0 0 15 0 15 -20 0 -20 0 0 20 0 20
-15 0 -15 0 0 15 0 15 -15 0 -15 0 0 15 0 15 -15 0 -15 0 0 15 0 15 -15 0 -15
0 0 15 0 15 -20 0 -20 0 0 20 0 20 20 0 20 0 0 15 0 15 30 0 30 0 0 -15 0 -15
15 0 15 0 0 -20 0 -20 15 0 15 0 0 -15 0 -15 20 0 20 0 0 -15 0 -15 15 0 15 0
0 -15 0 -15 15 0 15 0 0 -35 0 -35 -15 0 -15 0 0 -15 0 -15 -15 0 -15 0 0 -15
0 -15 -20 0 -20 0 0 -15 0 -15 -15 0 -15 0 0 -15 0 -15 -15 0 -15 0 0 -20 0
-20 -15 0 -15 0 0 -15 0 -15 -15 0 -15 0 0 -15 0 -15 -20 0 -20 0 0 -15 0 -15
-15 0 -15 0 0 -15 0 -15 -15 0 -15 0 0 -20 0 -20 -15 0 -15 0 0 -15 0 -15 -15
0 -15 0 0 -15 0 -15 -20 0 -20 0 0 -15 0 -15 -80 0 -80 0 0 15 0 15 -15 0 -15
0 0 15 0 15 -15 0 -15 0 0 15 0 15 -15 0 -15 0 0 20 0 20 -15 0 -15 0 0 15 0
15 -20 0 -20 0 0 15 0 15 -15 0 -15 0 0 15 0 15 -15 0 -15 0 0 15 0 15 -15 0
-15 0 0 20 0 20 -15 0 -15 0 0 15 0 15 -20 0 -20 0 0 15 0 15 -15 0 -15 0 0
15 0 15 -15 0 -15 0 0 15 0 15 -15 0 -15 0 0 20 0 20 -15 0 -15 0 0 15 0 15
-20 0 -20 0 0 15 0 15 -15 0 -15 0 0 30 0 30 15 0 15 0 0 20 0 20 35 0 35 0 0
15 0 15 15 0 15 0 0 15 0 15 15 0 15 0 0 15 0 15 15 0 15 0 0 15 0 15 20 0 20
0 0 20 0 20 15 0 15 0 0 15 0 15 15 0 15 0 0 15 0 15 15 0 15 0 0 15 0 15 15
0 15 0 0 15 0 15 20 0 20 0 0 20 0 20 15 0 15 0 0 15 0 15 15 0 15 0 0 15 0
15 15 0 15 0 0 15 0 15 15 0 15 0 0 -15 0 -15 20 0 20 0 0 -15 0 -15 15 0 15
0 0 -15 0 -15 15 0 15 0 0 -20 0 -20 15 0 15 0 0 -15 0 -15 15 0 15 0 0 -15 0
-15 20 0 20 0 0 -15 0 -15 15 0 15 0 0 -15 0 -15 15 0 15 0 0 -20 0 -20 15 0
15 0 0 -15 0 -15 -15 0 -15 0 0 -15 0 -15 -15 0 -15 0 0 15 0 15 -15 0 -15 0
0 -15 0 -15 15 0 15 0 0 -15 0 -15 -15 0 -15 0 0 15 0 15 -20 0 -20 0 0 -15 0
-15 20 0 20 0 0 -15 0 -15 -20 0 -20 0 0 -20 0 -20 -15 0 -15 0 0 20 0 20 -15
0 -15 0 0 -20 0 -20 15 0 15 0 0 -15 0 -15 -15 0 -15 0 0 15 0 15 -15 0 -15 0
0 -15 0 -15 15 0 15 0 0 -15 0 -15 -15 0 -15 0 0 15 0 15 -15 0 -15 0 0 -15 0
-15 15 0 15 0 0 -15 0 -15 -15 0 -15 0 0 15 0 15 -20 0 -20 0 0 -15 0 -15 20
0 20 0 0 -15 0 -15 -20 0 -20 0 0 -20 0 -20 -15 0 -15 0 0 20 0 20 -15 0 -15
0 0 -20 0 -20 15 0 15 0 0 -15 0 -15 -15 0 -15 0 0 15 0 15 -15 0 -15 0 0 -15
0 -15 15 0 15 0 0 -15 0 -15 -15 0 -15 0 0 15 0 15 -15 0 -15 0 0 -15 0 -15
15 0 15 0 0 -15 0 -15 -15 0 -15 0 0 15 0 15 -20 0 -20 0 0 15 0 15 20 0 20 0
0 15 0 15 15 0 15 0 0 20 0 20 -15 0 -15 0 0 15 0 15 -20 0 -20 0 0 -15 0 -15
-15 0 -15 0 0 -20 0 -20 -15 0 -15 0 0 20 0 20 -15 0 -15 0 0 15 0 15 15 0 15
0 0 15 0 15 -15 0 -15 0 0 -15 0 -15 -15 0 -15 0 0 15 0 15 -20 0 -20 0 0 15
0 15 20 0 20 0 0 15 0 15 15 0 15 0 0 20 0 20 -15 0 -15 0 0 15 0 15 -20 0
-20 0 0 -15 0 -15 -15 0 -15 0 0 -20 0 -20 -15 0 -15 0 0 20 0 20 -15 0 -15 0
0 -20 0 -20 15 0 15 0 0 -15 0 -15 15 0 15 0 0 -15 0 -15 15 0 15 0 0 -15 0
-15 20 0 20 0 0 -15 0 -15 15 0 15 0 0 -20 0 -20 15 0 15 0 0 -15 0 -15 15 0
15 0 0 -15 0 -15 15 0 15 0 0 -15 0 -15 20 0 20 0 0 -15 0 -15 15 0 15 0 0 15
0 15 15 0 15 0 0 15 0 15 15 0 15 0 0 15 0 15 15 0 15 0 0 15 0 15 20 0 20 0
0 20 0 20 15 0 15 0 0 15 0 15 15 0 15 0 0 15 0 15 15 0 15 0 0 15 0 15 15 0
15 0 0 15 0 15 20 0 20 0 0 20 0 20 15 0 15 0 0 15 0 15 15 0 15 0 0 15 0 15
15 0 15 0 0 15 0 15 15 0 15 0 0 35 0 35 -15 0 -15 0 0 15 0 15 -15 0 -15 0 0
15 0 15 -15 0 -15 0 0 15 0 15 -15 0 -15 0 0 15 0 15 -20 0 -20 0 0 20 0 20
-15 0 -15 0 0 15 0 15 -15 0 -15 0 0 15 0 15 -15 0 -15 0 0 15 0 15 -15 0 -15
0 0 15 0 15 -20 0 -20 0 0 20 0 20 20 0 20 0 0 15 0 15 45 0 45 0 0 -15z
m-410 -515 l0 -20 -20 0 -20 0 0 -15 0 -15 -15 0 -15 0 0 15 0 15 15 0 15 0 0
20 0 20 20 0 20 0 0 -20z m160 -160 l0 -20 -20 0 -20 0 0 -15 0 -15 -15 0 -15
0 0 15 0 15 15 0 15 0 0 20 0 20 20 0 20 0 0 -20z"/>
<path d="M510 1105 l0 -15 -15 0 -15 0 0 -15 0 -15 -15 0 -15 0 0 -20 0 -20
-15 0 -15 0 0 -15 0 -15 -20 0 -20 0 0 -15 0 -15 -15 0 -15 0 0 -15 0 -15 -15
0 -15 0 0 -15 0 -15 -15 0 -15 0 0 -20 0 -20 -15 0 -15 0 0 -15 0 -15 -20 0
-20 0 0 -15 0 -15 -15 0 -15 0 0 -15 0 -15 -15 0 -15 0 0 -15 0 -15 15 0 15 0
0 15 0 15 15 0 15 0 0 15 0 15 20 0 20 0 0 -15 0 -15 15 0 15 0 0 -15 0 -15
15 0 15 0 0 -20 0 -20 -15 0 -15 0 0 -15 0 -15 -15 0 -15 0 0 -15 0 -15 15 0
15 0 0 15 0 15 15 0 15 0 0 -15 0 -15 15 0 15 0 0 -15 0 -15 -15 0 -15 0 0
-15 0 -15 15 0 15 0 0 15 0 15 15 0 15 0 0 15 0 15 20 0 20 0 0 -15 0 -15 15
0 15 0 0 -15 0 -15 15 0 15 0 0 15 0 15 15 0 15 0 0 -15 0 -15 15 0 15 0 0 15
0 15 -15 0 -15 0 0 15 0 15 15 0 15 0 0 15 0 15 20 0 20 0 0 15 0 15 15 0 15
0 0 20 0 20 15 0 15 0 0 15 0 15 15 0 15 0 0 -15 0 -15 15 0 15 0 0 15 0 15
-15 0 -15 0 0 15 0 15 15 0 15 0 0 15 0 15 20 0 20 0 0 15 0 15 15 0 15 0 0
-15 0 -15 15 0 15 0 0 15 0 15 -15 0 -15 0 0 20 0 20 -15 0 -15 0 0 15 0 15
-20 0 -20 0 0 15 0 15 -15 0 -15 0 0 15 0 15 -15 0 -15 0 0 15 0 15 -15 0 -15
0 0 20 0 20 -15 0 -15 0 0 15 0 15 -20 0 -20 0 0 15 0 15 -15 0 -15 0 0 -15z
m30 -30 l0 -15 20 0 20 0 0 -20 0 -20 15 0 15 0 0 -15 0 -15 15 0 15 0 0 -15
0 -15 15 0 15 0 0 -15 0 -15 15 0 15 0 0 -15 0 -15 20 0 20 0 0 -20 0 -20 -20
0 -20 0 0 -15 0 -15 -15 0 -15 0 0 -15 0 -15 -15 0 -15 0 0 -15 0 -15 -15 0
-15 0 0 -15 0 -15 -15 0 -15 0 0 -20 0 -20 -20 0 -20 0 0 -15 0 -15 -15 0 -15
0 0 -15 0 -15 -15 0 -15 0 0 -15 0 -15 -15 0 -15 0 0 15 0 15 -15 0 -15 0 0
15 0 15 -20 0 -20 0 0 -15 0 -15 -15 0 -15 0 0 15 0 15 -15 0 -15 0 0 15 0 15
15 0 15 0 0 20 0 20 -15 0 -15 0 0 15 0 15 -15 0 -15 0 0 15 0 15 -15 0 -15 0
0 15 0 15 15 0 15 0 0 15 0 15 15 0 15 0 0 20 0 20 15 0 15 0 0 15 0 15 15 0
15 0 0 15 0 15 20 0 20 0 0 15 0 15 15 0 15 0 0 15 0 15 15 0 15 0 0 20 0 20
15 0 15 0 0 15 0 15 15 0 15 0 0 -15z"/>
<path d="M510 1040 l0 -20 -15 0 -15 0 0 -15 0 -15 -15 0 -15 0 0 -15 0 -15
-15 0 -15 0 0 -15 0 -15 -20 0 -20 0 0 -15 0 -15 -15 0 -15 0 0 -20 0 -20 -15
0 -15 0 0 -15 0 -15 -15 0 -15 0 0 -15 0 -15 15 0 15 0 0 -15 0 -15 15 0 15 0
0 -15 0 -15 15 0 15 0 0 -20 0 -20 -15 0 -15 0 0 -15 0 -15 15 0 15 0 0 15 0
15 20 0 20 0 0 -15 0 -15 15 0 15 0 0 -15 0 -15 15 0 15 0 0 15 0 15 15 0 15
0 0 15 0 15 15 0 15 0 0 20 0 20 20 0 20 0 0 15 0 15 15 0 15 0 0 15 0 15 15
0 15 0 0 15 0 15 15 0 15 0 0 15 0 15 15 0 15 0 0 20 0 20 -15 0 -15 0 0 15 0
15 -15 0 -15 0 0 15 0 15 -15 0 -15 0 0 15 0 15 -15 0 -15 0 0 15 0 15 -20 0
-20 0 0 20 0 20 -15 0 -15 0 0 -20z m30 -35 l0 -15 20 0 20 0 0 -15 0 -15 15
0 15 0 0 -15 0 -15 15 0 15 0 0 -15 0 -15 15 0 15 0 0 -20 0 -20 -15 0 -15 0
0 -15 0 -15 -15 0 -15 0 0 -15 0 -15 -15 0 -15 0 0 -15 0 -15 -20 0 -20 0 0
-15 0 -15 -15 0 -15 0 0 -20 0 -20 -15 0 -15 0 0 -15 0 -15 -15 0 -15 0 0 15
0 15 -15 0 -15 0 0 20 0 20 -20 0 -20 0 0 15 0 15 -15 0 -15 0 0 15 0 15 -15
0 -15 0 0 15 0 15 15 0 15 0 0 15 0 15 15 0 15 0 0 20 0 20 20 0 20 0 0 15 0
15 15 0 15 0 0 15 0 15 15 0 15 0 0 15 0 15 15 0 15 0 0 15 0 15 15 0 15 0 0
-15z"/>
<path d="M510 975 l0 -15 -15 0 -15 0 0 -15 0 -15 -15 0 -15 0 0 -15 0 -15
-15 0 -15 0 0 -20 0 -20 -20 0 -20 0 0 -15 0 -15 -15 0 -15 0 0 -15 0 -15 15
0 15 0 0 -15 0 -15 20 0 20 0 0 -15 0 -15 15 0 15 0 0 -20 0 -20 15 0 15 0 0
20 0 20 15 0 15 0 0 15 0 15 15 0 15 0 0 15 0 15 20 0 20 0 0 15 0 15 15 0 15
0 0 15 0 15 15 0 15 0 0 20 0 20 -15 0 -15 0 0 15 0 15 -15 0 -15 0 0 15 0 15
-20 0 -20 0 0 15 0 15 -15 0 -15 0 0 -15z m30 -30 l0 -15 20 0 20 0 0 -15 0
-15 15 0 15 0 0 -20 0 -20 -15 0 -15 0 0 -15 0 -15 -20 0 -20 0 0 -15 0 -15
-15 0 -15 0 0 -15 0 -15 -15 0 -15 0 0 -15 0 -15 -15 0 -15 0 0 15 0 15 -15 0
-15 0 0 15 0 15 -20 0 -20 0 0 15 0 15 20 0 20 0 0 15 0 15 15 0 15 0 0 20 0
20 15 0 15 0 0 15 0 15 15 0 15 0 0 15 0 15 15 0 15 0 0 -15z"/>
<path d="M510 915 l0 -15 -15 0 -15 0 0 -20 0 -20 -15 0 -15 0 0 -15 0 -15
-15 0 -15 0 0 -15 0 -15 15 0 15 0 0 -15 0 -15 15 0 15 0 0 15 0 15 15 0 15 0
0 15 0 15 15 0 15 0 0 15 0 15 20 0 20 0 0 20 0 20 -20 0 -20 0 0 15 0 15 -15
0 -15 0 0 -15z m30 -35 l0 -20 -15 0 -15 0 0 -15 0 -15 -15 0 -15 0 0 -15 0
-15 -15 0 -15 0 0 15 0 15 15 0 15 0 0 15 0 15 15 0 15 0 0 20 0 20 15 0 15 0
0 -20z"/>
<path d="M700 495 l0 -15 -15 0 -15 0 0 -15 0 -15 -15 0 -15 0 0 -15 0 -15 15
0 15 0 0 -20 0 -20 15 0 15 0 0 -15 0 -15 20 0 20 0 0 -15 0 -15 15 0 15 0 0
-15 0 -15 15 0 15 0 0 15 0 15 15 0 15 0 0 15 0 15 15 0 15 0 0 15 0 15 -15 0
-15 0 0 20 0 20 -15 0 -15 0 0 15 0 15 -15 0 -15 0 0 15 0 15 -15 0 -15 0 0
15 0 15 -20 0 -20 0 0 -15z m40 -30 l0 -15 15 0 15 0 0 -15 0 -15 15 0 15 0 0
-20 0 -20 15 0 15 0 0 -15 0 -15 -15 0 -15 0 0 -15 0 -15 -15 0 -15 0 0 15 0
15 -15 0 -15 0 0 15 0 15 -20 0 -20 0 0 20 0 20 -15 0 -15 0 0 15 0 15 15 0
15 0 0 15 0 15 20 0 20 0 0 -15z"/>
</g>
</svg>
