<?xml version="1.0" standalone="no"?>
<!DOCTYPE svg PUBLIC "-//W3C//DTD SVG 20010904//EN"
 "http://www.w3.org/TR/2001/REC-SVG-20010904/DTD/svg10.dtd">
<svg version="1.0" xmlns="http://www.w3.org/2000/svg"
 width="468pt" height="468pt" viewBox="0 0 468 468"
 preserveAspectRatio="xMidYMid meet">
<metadata>
Created by potrace 1.8, written by Peter Selinger 2001-2007
</metadata>
<g transform="translate(0,468) scale(0.365625,-0.365625)"
fill="#000000" stroke="none">
<path d="M268 1273 l-18 -4 0 -15 0 -14 -21 0 -21 0 5 -13 5 -14 -26 5 -27 5
-8 13 -8 14 -10 0 -10 0 15 -15 15 -16 -5 -14 -6 -15 -13 0 -13 0 -4 9 -3 10
-25 4 -25 4 13 -4 12 -4 0 -10 0 -9 15 0 15 0 0 -20 0 -20 -10 0 -10 0 0 15 0
15 -15 0 -15 0 0 -13 0 -14 -28 2 -27 2 20 -4 20 -5 7 -12 8 -11 0 -13 0 -13
-16 16 -16 16 -16 -3 -15 -3 -3 -13 -3 -12 6 10 5 10 15 0 15 0 -6 -15 -5 -15
14 0 15 0 0 -10 0 -10 -12 -1 -13 -1 -14 2 -14 2 16 -16 16 -16 13 0 13 0 -14
-9 -14 -9 -16 6 -16 6 19 -20 20 -19 -17 -3 -17 -3 0 -9 0 -8 15 -6 15 -5 -1
-13 -1 -13 -5 13 -5 12 -9 0 -9 0 0 -25 0 -25 9 0 9 0 4 10 3 10 0 -107 0
-106 12 -4 12 -4 7 -37 7 -36 25 -23 25 -23 13 0 14 0 0 -9 0 -9 32 -7 33 -8
6 -8 5 -9 77 -6 77 -7 0 -8 0 -9 -190 0 -190 0 0 -255 0 -255 640 0 640 0 0
255 0 255 -200 0 -200 0 0 10 0 10 15 0 14 0 -5 14 -5 13 31 7 31 6 30 30 31
30 9 -5 9 -6 -6 15 -6 16 16 6 16 6 0 13 0 14 16 15 15 16 -8 0 -9 0 -14 -18
-15 -17 -14 -28 -14 -27 -14 0 -13 0 -17 -20 -17 -20 -13 0 -13 0 0 -9 0 -10
-55 -6 -55 -7 0 -8 0 -8 -26 -5 -25 -4 -15 14 -14 14 0 -15 0 -16 -10 0 -10 0
0 15 0 15 -20 0 -20 0 0 -9 0 -10 18 -4 17 -5 -45 5 -45 6 -7 11 -8 11 -9 -14
-9 -13 -5 13 -5 14 -11 -15 -11 -15 0 13 0 12 -15 0 -15 0 0 -10 0 -10 -10 0
-10 0 -6 25 -6 25 -17 10 -16 10 15 10 15 10 -53 -4 -54 -5 -6 -5 -5 -6 7 -7
7 -7 10 14 11 15 -5 -15 -4 -15 -26 -2 -27 -2 0 14 0 13 13 5 12 5 -13 1 -14
1 -5 -20 -5 -20 -13 0 -14 0 -15 16 -16 16 6 10 6 10 -21 19 -21 20 0 -13 0
-13 -10 15 -9 14 -6 -6 -7 -7 46 -46 46 -46 0 -9 0 -10 -7 0 -7 0 -33 36 -32
37 -17 -7 -16 -6 -48 48 -47 48 -8 25 -8 24 -8 6 -9 5 -4 67 -4 67 13 0 14 0
7 -47 7 -47 13 -13 13 -13 -1 50 0 50 31 27 31 27 0 9 0 8 -17 -17 -17 -17 -4
13 -5 13 -18 18 -19 19 -5 0 -5 0 0 -15 0 -15 9 0 10 0 6 -19 6 -19 -7 -26 -6
-26 -9 0 -9 0 0 19 0 20 -15 14 -15 15 13 5 12 5 -17 13 -17 14 6 28 5 27 9 0
8 0 10 -17 9 -18 7 7 7 7 -16 16 -16 16 1 12 1 12 5 -12 5 -13 8 0 9 0 3 27 3
26 13 5 12 4 0 -16 0 -15 12 -7 11 -7 14 19 14 19 62 -1 62 -2 -17 5 -18 4 0
10 0 10 17 17 17 17 86 0 86 0 17 -17 17 -17 0 -10 0 -11 -9 0 -10 0 -17 -17
-17 -17 -45 2 -45 2 -6 5 -5 6 13 8 13 8 29 -3 30 -4 -15 15 -15 15 -14 0 -15
0 -5 -12 -5 -13 -12 15 -12 15 6 -17 5 -18 -19 0 -20 0 0 -10 0 -9 50 -7 50
-7 0 -8 0 -8 -22 -4 -23 -4 30 -2 31 -1 17 20 17 20 20 0 20 0 0 10 0 10 15 0
15 0 0 15 0 16 15 5 15 6 0 14 0 13 17 -6 17 -7 -14 16 -15 16 -3 -9 -4 -9 -8
0 -9 0 -4 18 -5 17 -1 -17 -1 -18 -10 0 -10 0 -1 13 -1 12 1 13 2 12 -16 0
-15 0 0 -15 0 -14 -17 6 -18 7 -8 10 -9 11 5 -15 5 -16 -72 1 -72 0 -17 -17
-18 -17 -13 5 -13 5 -6 -20 -5 -21 14 0 14 0 0 -10 0 -10 -15 0 -15 0 0 10 0
10 -17 0 -18 0 15 10 14 9 -7 8 -8 7 -9 -13 -8 -14 5 -14 5 -13 -15 0 -15 0
-5 13 -5 12 -1 -17 -1 -18 -8 0 -8 0 -18 22 -18 21 17 -7 17 -6 -5 19 -5 19 9
13 8 13 8 -7 7 -8 -11 -7 -11 -7 14 -13 14 -13 0 16 0 15 9 0 10 0 3 17 3 17
18 -19 19 -18 -2 14 -2 14 1 16 1 16 27 -5 26 -5 15 19 14 19 5 -12 5 -13 29
0 29 0 0 10 0 10 20 0 19 0 -3 13 -3 12 4 -7 5 -8 9 0 9 0 0 9 0 9 -15 6 -14
5 -16 -16 -16 -15 -27 0 -26 0 -4 11 -4 11 -9 0 -9 0 0 -12 0 -13 -30 -2 -31
-2 16 15 15 15 0 5 0 4 -2 -1 -3 -1 -17 -5z m42 -43 l0 -10 -10 0 -10 0 0 10
0 10 10 0 10 0 0 -10z m-130 -30 l0 -10 -10 0 -10 0 0 10 0 10 10 0 10 0 0
-10z m384 -55 l-6 -15 -9 0 -9 0 0 9 0 9 13 5 12 5 2 1 2 1 -5 -15z m-474 -65
l0 -10 -10 0 -10 0 0 10 0 10 10 0 10 0 0 -10z m-30 -315 l0 -15 -10 0 -10 0
0 15 0 15 10 0 10 0 0 -15z m30 -62 l0 -9 20 -17 20 -17 10 0 10 0 0 -15 0
-16 14 -5 14 -6 6 -13 5 -14 -17 7 -17 6 -32 32 -33 31 0 11 0 10 -9 4 -8 3
-8 25 -8 24 17 -16 16 -17 0 -8z m190 -64 l0 -9 -9 0 -9 0 -5 14 -6 15 15 -6
14 -5 0 -9z m-40 -29 l0 -10 -12 0 -13 0 15 -10 14 -9 -7 -8 -8 -7 -9 13 -8
14 5 14 5 13 9 0 9 0 0 -10z m229 -9 l19 -19 7 -23 8 -23 -15 14 -14 15 -7 18
-6 17 -11 0 -10 0 0 -14 0 -14 13 -6 12 -6 -25 6 -25 6 -3 3 -4 3 19 20 18 20
3 1 2 1 19 -19z m-91 -35 l22 -7 0 -10 0 -9 -10 0 -10 0 0 9 0 9 -20 5 -20 5
0 14 0 13 8 -11 7 -11 23 -7z m492 -47 l0 -9 -9 0 -9 0 -5 14 -6 15 15 -6 14
-5 0 -9z"/>
<path d="M613 1268 l12 -8 -13 -8 -12 -8 110 1 110 2 0 -13 0 -14 15 0 15 0 0
13 0 12 -8 12 -8 12 -59 2 -59 2 -4 -11 -4 -12 -14 0 -14 0 0 13 0 12 -39 0
-40 0 12 -7z"/>
<path d="M904 1265 l-6 -15 -13 0 -13 0 -5 13 -4 12 -7 -7 -8 -6 21 -21 21
-21 9 0 9 0 5 13 5 12 10 -14 10 -13 6 13 6 14 6 -12 6 -13 14 15 15 14 14 -5
15 -6 0 -8 0 -9 -12 -4 -13 -4 18 2 17 3 0 -16 0 -17 9 14 10 15 27 -32 28
-32 11 0 10 0 -15 10 -15 10 18 11 17 10 0 14 0 15 10 0 9 0 10 -17 11 -18 7
11 8 10 18 7 17 6 0 13 0 13 -8 -11 -7 -11 -23 -7 -22 -7 -6 15 -6 16 -14 0
-14 0 0 15 0 15 -5 0 -5 0 -20 -20 -20 -20 0 -5 0 -5 15 0 15 0 0 10 0 10 10
0 10 0 0 -11 0 -10 -15 -15 -15 -15 0 10 0 11 -25 6 -25 6 0 8 0 8 13 5 12 5
-17 1 -18 1 0 13 0 12 -11 -15 -11 -15 -5 13 -5 12 -14 0 -14 0 0 -10 0 -10
-14 0 -14 0 -6 15 -5 15 -11 0 -11 0 -5 -15z"/>
<path d="M458 1249 l-18 -19 0 -5 0 -5 14 0 14 0 4 12 4 12 29 1 28 0 4 15 5
15 -12 -15 -12 -15 -5 13 -5 12 -16 -1 -17 -1 -17 -19z"/>
<path d="M560 1255 l0 -14 15 5 15 6 0 9 0 9 -15 0 -15 0 0 -15z"/>
<path d="M790 1230 l0 -10 10 0 10 0 0 10 0 10 -10 0 -10 0 0 -10z"/>
<path d="M726 1174 l-16 -15 0 -5 0 -4 15 0 15 0 0 17 0 16 6 -6 6 -5 -7 -21
-6 -21 -10 0 -10 0 -15 14 -14 14 13 5 12 4 -8 9 -8 8 -9 -14 -10 -15 0 -13 0
-13 18 -6 17 -7 13 -13 13 -13 20 0 19 0 0 -10 0 -10 13 0 13 0 17 -20 17 -20
32 1 33 2 -27 4 -28 4 0 8 0 8 38 7 37 6 33 0 32 0 0 10 0 10 -55 0 -55 0 0
-10 0 -10 -30 0 -30 0 0 9 0 9 -20 5 -20 5 0 14 0 13 10 15 9 15 91 0 91 0 7
-11 7 -10 18 -7 18 -7 -2 -12 -1 -13 1 -12 1 -13 15 0 15 0 0 11 0 10 16 -15
15 -16 14 0 13 0 5 -12 5 -13 1 13 1 13 -17 6 -18 7 -12 12 -13 12 -17 -4 -18
-5 -1 30 -1 29 14 -14 14 -14 17 1 17 1 -17 5 -18 4 0 16 0 16 -32 -6 -33 -6
13 6 12 5 0 9 0 9 -14 0 -14 0 -5 -12 -5 -13 -11 15 -10 15 -88 0 -88 0 -7
-15 -7 -15 0 18 -1 17 -14 0 -15 0 -15 -16z"/>
<path d="M1126 1182 l-5 -9 6 -21 5 -22 9 0 9 0 0 -15 0 -14 16 -9 17 -9 2
-24 2 -24 2 -6 1 -6 25 0 25 0 0 8 0 9 -15 0 -15 0 0 24 0 24 -16 6 -16 6 6
15 5 15 -14 0 -14 0 -6 20 -6 20 6 10 6 10 -15 0 -15 0 -5 -8z"/>
<path d="M1173 1183 l-13 -5 0 -14 0 -14 9 0 9 0 16 6 16 6 0 8 0 8 -12 4 -13
5 -12 -4z"/>
<path d="M1225 1174 l-16 -16 6 -45 5 -46 25 -23 26 -24 -15 0 -14 0 -5 -12
-5 -13 -12 15 -11 15 7 -25 6 -25 5 -5 4 -4 7 11 7 11 14 -15 13 -14 -13 2
-14 1 -11 -1 -12 -1 -5 -14 -6 -15 15 6 14 5 0 -16 0 -16 -12 0 -13 0 15 -10
15 -10 -14 -9 -13 -9 13 -6 14 -6 -14 -6 -13 -6 13 -9 14 -9 -11 -7 -11 -8 -6
-33 -7 -33 -15 -15 -15 -16 6 -10 6 -10 -21 -19 -21 -20 0 -9 0 -10 -20 -20
-19 -19 -26 -7 -25 -6 0 -9 0 -9 -15 0 -15 0 0 10 0 10 15 0 16 0 5 14 6 15
29 6 29 7 0 14 0 14 9 0 9 0 6 15 5 15 -14 0 -15 0 0 -13 0 -13 -20 -17 -20
-17 -10 0 -10 0 0 5 0 6 25 23 25 23 0 12 0 12 15 5 15 6 0 44 0 44 -9 0 -10
0 -3 18 -4 17 1 -62 0 -61 -27 -26 -28 -25 0 -11 0 -10 -15 0 -15 0 0 -10 0
-10 18 -1 17 -1 -15 -5 -15 -6 -8 -13 -8 -14 -14 0 -15 0 0 -9 0 -10 18 -5 17
-5 -30 1 -30 1 -16 -1 -17 -2 -6 -16 -6 -17 47 7 48 6 3 10 4 10 18 0 19 0 13
14 14 13 22 8 23 7 33 33 33 33 7 35 7 36 11 3 11 4 5 60 5 59 10 7 10 6 1
106 2 105 -8 -12 -7 -11 -7 7 -8 8 0 34 0 34 -15 4 -16 5 18 1 17 1 0 9 0 10
18 4 17 5 -22 1 -22 1 -16 -16z m45 -253 l0 -9 -14 -5 -15 -6 6 15 5 14 9 0 9
0 0 -9z m-280 -371 l0 -10 -10 0 -10 0 0 10 0 10 10 0 10 0 0 -10z"/>
<path d="M1263 1134 l-13 -13 0 -11 0 -10 9 0 9 0 5 22 6 22 -2 2 -2 2 -12
-14z"/>
<path d="M863 1123 l-13 -5 0 -9 0 -9 15 0 15 0 0 15 0 15 -2 -1 -3 -1 -12 -5z"/>
<path d="M907 1114 l5 -14 9 0 9 0 0 9 0 9 -14 5 -15 6 6 -15z"/>
<path d="M580 1103 l-14 -17 18 7 18 7 9 0 9 0 0 10 0 10 -12 0 -13 -1 -15
-16z"/>
<path d="M630 1110 l0 -10 10 0 10 0 0 10 0 10 -10 0 -10 0 0 -10z"/>
<path d="M660 1110 l0 -10 10 0 10 0 0 10 0 10 -10 0 -10 0 0 -10z"/>
<path d="M1100 1110 l0 -10 10 0 10 0 0 10 0 10 -10 0 -10 0 0 -10z"/>
<path d="M1190 1110 l0 -10 10 0 10 0 0 10 0 10 -10 0 -10 0 0 -10z"/>
<path d="M130 1051 l0 -9 15 -6 15 -5 0 14 0 15 -15 0 -15 0 0 -9z"/>
<path d="M497 1046 l-6 -14 22 0 22 1 33 -5 33 -6 -5 15 -6 15 0 4 0 4 -44 0
-44 0 -5 -14z"/>
<path d="M686 1044 l-6 -17 5 -6 6 -5 18 11 18 12 43 -5 43 -5 -16 15 -16 16
-44 0 -45 0 -6 -16z"/>
<path d="M328 1023 l22 -4 18 4 17 5 -40 -1 -40 0 23 -4z"/>
<path d="M918 1023 l13 -5 6 6 6 6 -19 -1 -19 -1 13 -5z"/>
<path d="M1153 1015 l-5 -16 6 -6 6 -6 0 16 0 15 13 5 12 5 -13 1 -13 1 -6
-15z"/>
<path d="M160 1010 l0 -10 10 0 10 0 0 10 0 10 -10 0 -10 0 0 -10z"/>
<path d="M250 1003 l-14 -17 18 7 18 7 9 0 9 0 0 10 0 10 -12 0 -13 -1 -15
-16z"/>
<path d="M400 1011 l0 -8 -57 -6 -58 -6 -3 -11 -4 -10 -10 0 -10 0 -39 -39
-39 -39 0 -11 0 -11 -10 0 -9 0 -7 -35 -6 -35 6 -25 6 -25 24 -6 25 -6 5 -14
5 -14 20 0 19 0 4 -10 3 -10 40 -7 40 -6 7 -11 7 -11 281 0 281 0 7 11 7 11
42 7 42 6 36 35 35 36 0 50 0 50 -29 27 -29 27 -6 22 -7 22 -29 6 -30 7 0 9 0
9 -40 6 -40 7 0 8 0 9 -70 0 -70 0 0 -10 0 -10 -100 0 -100 0 0 10 0 10 -70 0
-70 0 0 -9z m76 -35 l14 -15 0 -11 0 -11 -14 -15 -15 -14 -26 0 -26 0 -15 14
-14 15 0 25 0 26 41 0 40 0 15 -14z m154 -10 l0 -24 -6 -16 -6 -16 -53 0 -53
0 -6 16 -6 16 0 24 0 24 65 0 65 0 0 -24z m160 0 l0 -24 -6 -16 -6 -16 -45 0
-44 0 -15 14 -14 15 0 25 0 26 65 0 65 0 0 -24z m90 14 l0 -10 15 0 15 0 0
-14 0 -14 -6 -16 -6 -16 -38 0 -38 0 -6 16 -6 16 0 24 0 24 35 0 35 0 0 -10z
m-507 -37 l5 -28 -5 -7 -4 -8 -24 0 -23 0 -16 6 -16 6 0 9 0 9 17 20 17 20 22
0 22 0 5 -27z m587 7 l0 -10 13 0 13 0 17 -20 17 -20 -10 0 -10 0 0 -10 0 -10
20 0 20 0 0 -14 0 -14 13 -5 12 -5 -11 -1 -11 -1 -23 20 -23 20 -27 0 -28 0
-6 16 -6 16 0 24 0 24 15 0 15 0 0 -10z m-680 -24 l0 -15 -20 -6 -20 -6 0 -9
0 -8 -15 -6 -15 -5 0 14 0 15 15 0 15 0 0 14 0 14 13 5 12 5 8 1 7 1 0 -14z
m290 -66 l0 -10 16 0 16 0 -5 -19 -5 -20 13 5 13 5 6 25 6 24 70 0 70 0 0 -10
0 -10 18 0 18 0 17 -20 17 -20 0 -10 0 -10 -24 -6 -24 -6 -6 -21 -6 -22 0 -22
0 -23 -51 0 -50 0 3 28 3 27 49 3 48 3 -5 20 -5 19 9 -6 9 -5 0 15 0 16 9 0 9
0 5 -10 6 -10 -3 12 -3 13 -21 -2 -21 -3 5 18 6 17 -11 -15 -11 -15 -10 15
-10 15 0 -12 0 -13 -40 -6 -40 -7 0 -7 0 -8 -64 -4 -64 -3 5 11 4 11 -40 7
-41 6 0 10 0 10 -25 0 -25 0 0 -10 0 -10 10 0 10 0 0 -15 0 -15 -11 0 -10 0
-15 14 -14 15 0 11 0 11 30 6 30 6 0 8 0 9 65 0 65 0 0 -10z m-352 -58 l4 -12
-16 0 -16 0 0 16 0 16 12 -4 12 -4 4 -12z m846 -7 l5 -15 -5 -15 -6 -15 -8 0
-8 0 -5 13 -5 12 -1 -28 -1 -28 -15 -6 -16 -5 -6 5 -5 6 6 25 6 24 32 8 33 7
-12 4 -13 5 0 9 0 9 9 0 9 0 6 -15z m-599 -15 l6 -10 -15 6 -16 6 0 4 0 4 9 0
10 0 6 -10z m220 0 l-6 -10 -15 0 -15 0 6 10 6 10 15 0 15 0 -6 -10z m-437
-22 l3 -18 -13 0 -14 0 -17 21 -18 20 28 -3 28 -3 3 -17z m342 1 l0 -9 -9 0
-9 0 -5 14 -6 15 15 -6 14 -5 0 -9z m-243 -29 l5 -20 8 0 8 0 5 20 5 20 25 0
25 0 16 -6 16 -6 0 -24 0 -24 -55 0 -55 0 0 10 0 10 -22 0 -23 0 -22 6 -23 6
0 14 0 14 41 0 41 0 5 -20z m213 -10 l0 -30 -45 0 -45 0 0 24 0 24 13 5 12 5
33 1 32 1 0 -30z m100 0 l0 -30 -45 0 -45 0 0 24 0 24 13 5 12 5 33 1 32 1 0
-30z m218 -2 l3 -28 -45 0 -46 0 0 24 0 24 13 6 12 5 30 -2 30 -2 3 -27z m87
22 l6 -10 -6 -20 -6 -20 -30 0 -29 0 0 23 0 24 7 6 6 7 23 0 23 0 6 -10z"/>
<path d="M960 1010 l0 -10 15 0 15 0 0 10 0 10 -15 0 -15 0 0 -10z"/>
<path d="M1183 972 l-1 -26 -11 -4 -11 -4 0 -14 0 -15 -15 -5 -15 -6 0 -24 0
-24 10 0 10 0 0 25 0 26 14 5 15 6 6 29 7 29 9 0 9 0 0 9 0 9 -12 5 -13 4 -2
-25z"/>
<path d="M70 980 l0 -10 10 0 10 0 0 10 0 10 -10 0 -10 0 0 -10z"/>
<path d="M1112 974 l-13 -14 10 0 10 0 6 11 7 10 -3 4 -4 3 -13 -14z"/>
<path d="M1091 914 l1 -19 5 13 5 13 -6 6 -6 6 1 -19z"/>
<path d="M1183 890 l-5 -20 -9 0 -9 0 0 -15 0 -15 9 0 9 0 7 27 7 28 11 7 12
8 -13 0 -14 0 -5 -20z"/>
<path d="M1184 816 l-6 -24 5 -23 4 -24 2 33 1 32 10 0 10 0 0 15 0 15 -10 0
-10 0 -6 -24z"/>
<path d="M108 773 l12 -5 0 -13 0 -13 30 -31 31 -30 14 6 15 5 0 9 0 9 -12 1
-13 1 -13 -1 -12 -2 -7 18 -7 17 -15 18 -15 18 -11 -1 -10 -1 13 -5z"/>
<path d="M1160 700 l0 -10 10 0 10 0 0 10 0 10 -10 0 -10 0 0 -10z"/>
<path d="M317 636 l-6 -15 15 6 14 5 0 9 0 9 -9 0 -9 0 -5 -14z"/>
<path d="M937 636 l-6 -15 15 6 14 5 0 9 0 9 -9 0 -9 0 -5 -14z"/>
<path d="M748 623 l13 -5 6 6 6 6 -19 -1 -19 -1 13 -5z"/>
<path d="M790 610 l0 -10 10 0 10 0 0 10 0 10 -10 0 -10 0 0 -10z"/>
<path d="M892 604 l-13 -14 10 0 10 0 6 11 7 10 -3 4 -4 3 -13 -14z"/>
<path d="M810 581 l0 -9 -20 -5 -20 -5 0 -14 0 -13 8 11 7 10 18 7 17 6 0 11
0 10 -5 0 -5 0 0 -9z"/>
<path d="M840 580 l0 -10 15 0 15 0 0 10 0 10 -15 0 -15 0 0 -10z"/>
</g>
</svg>
