<?xml version="1.0" standalone="no"?>
<!DOCTYPE svg PUBLIC "-//W3C//DTD SVG 20010904//EN"
 "http://www.w3.org/TR/2001/REC-SVG-20010904/DTD/svg10.dtd">
<svg version="1.0" xmlns="http://www.w3.org/2000/svg"
 width="468pt" height="468pt" viewBox="0 0 468 468"
 preserveAspectRatio="xMidYMid meet">
<metadata>
Created by potrace 1.8, written by Peter Selinger 2001-2007
</metadata>
<g transform="translate(0,468) scale(0.365625,-0.365625)"
fill="#000000" stroke="none">
<path d="M200 1170 l0 -10 -20 0 -20 0 0 -10 0 -10 -15 0 -16 0 -34 -35 -35
-34 0 -16 0 -15 -10 0 -10 0 0 -20 0 -20 -10 0 -10 0 0 -260 0 -260 10 0 10 0
0 -20 0 -20 10 0 10 0 0 -15 0 -16 35 -34 34 -35 16 0 15 0 0 -10 0 -10 20 0
20 0 0 -10 0 -10 76 0 75 0 15 -14 14 -15 0 -11 0 -11 25 -24 24 -25 16 0 15
0 0 -10 0 -10 30 0 30 0 0 -15 0 -16 25 -24 24 -25 32 0 31 0 28 -30 28 -30
41 0 42 0 24 25 25 24 0 32 0 31 -30 28 -30 28 0 24 0 24 -20 14 -20 14 0 8 0
8 180 0 180 0 0 10 0 10 20 0 20 0 0 10 0 10 15 0 16 0 34 35 35 34 0 16 0 15
10 0 10 0 0 20 0 20 10 0 10 0 0 260 0 260 -10 0 -10 0 0 20 0 20 -10 0 -10 0
0 15 0 16 -35 34 -34 35 -16 0 -15 0 0 10 0 10 -20 0 -20 0 0 10 0 10 -440 0
-440 0 0 -10z m860 -40 l0 -10 20 0 20 0 0 -10 0 -10 15 0 16 0 24 -25 25 -24
0 -16 0 -15 10 0 10 0 0 -20 0 -20 10 0 10 0 0 -240 0 -240 -10 0 -10 0 0 -20
0 -20 -10 0 -10 0 0 -15 0 -16 -25 -24 -24 -25 -16 0 -15 0 0 -10 0 -10 -20 0
-20 0 0 -10 0 -10 -170 0 -170 0 0 10 0 10 160 0 160 0 0 10 0 10 15 0 16 0
26 26 25 25 -6 6 -6 6 -19 -21 -18 -22 -17 0 -16 0 0 -10 0 -10 -160 0 -160 0
0 20 0 20 -20 0 -20 0 0 -60 0 -60 -55 0 -56 0 -24 -25 -25 -24 0 -16 0 -15
-25 0 -26 0 -34 35 -35 34 0 56 0 55 10 0 10 0 0 20 0 20 10 0 10 0 0 19 0 19
13 5 12 4 -7 8 -7 7 -35 -36 -36 -35 0 -11 0 -11 -14 -15 -15 -14 -55 0 -56 0
0 10 0 10 -20 0 -20 0 0 10 0 10 -16 0 -15 0 -15 14 -14 15 0 15 0 16 -10 0
-10 0 0 20 0 20 -10 0 -10 0 0 220 0 220 10 0 10 0 0 19 0 19 13 5 12 4 -7 8
-7 7 -16 -15 -15 -16 0 -15 0 -16 -10 0 -10 0 0 -220 0 -220 10 0 10 0 0 -20
0 -20 10 0 10 0 0 -15 0 -16 25 -24 24 -25 16 0 15 0 0 -10 0 -10 20 0 20 0 0
-10 0 -10 60 0 60 0 0 -10 0 -10 -70 0 -70 0 0 10 0 10 -20 0 -20 0 0 10 0 10
-15 0 -16 0 -24 25 -25 24 0 16 0 15 -10 0 -10 0 0 20 0 20 -10 0 -10 0 0 240
0 240 10 0 10 0 0 20 0 20 10 0 10 0 0 15 0 16 25 24 24 25 16 0 15 0 0 10 0
10 20 0 20 0 0 10 0 10 420 0 420 0 0 -10z m-400 -860 l0 -10 20 0 20 0 0 -20
0 -20 10 0 10 0 0 -10 0 -10 -15 0 -16 0 -24 -25 -25 -24 0 -16 0 -15 -20 0
-20 0 0 10 0 10 -20 0 -20 0 0 20 0 20 -10 0 -10 0 0 20 0 20 10 0 10 0 0 20
0 20 20 0 20 0 0 10 0 10 30 0 30 0 0 -10z m115 -115 l25 -24 0 -11 0 -11 -25
-24 -24 -25 -21 0 -21 0 -24 25 -25 24 0 11 0 11 23 24 22 24 23 0 23 1 24
-25z"/>
<path d="M420 345 l0 -36 36 -35 35 -36 6 6 6 5 -32 30 -31 29 0 36 0 36 -10
0 -10 0 0 -35z"/>
<path d="M560 195 l0 -6 26 -26 25 -25 6 5 5 6 -25 25 -26 26 -6 0 -5 0 0 -5z"/>
<path d="M680 114 l0 -5 15 -16 16 -15 6 5 5 6 -15 16 -16 15 -5 0 -6 0 0 -6z"/>
</g>
</svg>
