<?xml version="1.0" standalone="no"?>
<!DOCTYPE svg PUBLIC "-//W3C//DTD SVG 20010904//EN"
 "http://www.w3.org/TR/2001/REC-SVG-20010904/DTD/svg10.dtd">
<svg version="1.0" xmlns="http://www.w3.org/2000/svg"
 width="468pt" height="468pt" viewBox="0 0 468 468"
 preserveAspectRatio="xMidYMid meet">
<metadata>
Created by potrace 1.8, written by Peter Selinger 2001-2007
</metadata>
<g transform="translate(0,468) scale(0.365625,-0.365625)"
fill="#000000" stroke="none">
<path d="M110 1255 l0 -25 -15 0 -15 0 0 -30 0 -30 -15 0 -15 0 0 -25 0 -25
-10 0 -10 0 0 -15 0 -15 -15 0 -15 0 0 -25 0 -25 15 0 15 0 0 11 0 10 14 15
15 14 10 0 11 0 0 -25 0 -25 -15 0 -15 0 0 -15 0 -15 15 0 15 0 0 15 0 15 15
0 15 0 0 11 0 10 14 15 15 14 50 0 51 0 0 -10 0 -10 15 0 15 0 0 -15 0 -15
-70 0 -70 0 0 -14 0 -14 -12 -6 -13 -6 13 -6 12 -6 0 -14 0 -14 15 0 15 0 0
-15 0 -15 15 0 15 0 0 -10 0 -10 -15 0 -15 0 0 -15 0 -15 15 0 15 0 0 -11 0
-10 14 -15 15 -14 10 0 11 0 0 25 0 25 -15 0 -15 0 0 25 0 25 -10 0 -10 0 0
30 0 30 -15 0 -15 0 0 10 0 10 80 0 80 0 0 -10 0 -10 -15 0 -15 0 0 -15 0 -15
30 0 30 0 0 25 0 25 170 0 170 0 0 -25 0 -25 30 0 30 0 0 15 0 15 -15 0 -15 0
0 10 0 10 145 0 145 0 0 15 0 15 -145 0 -145 0 0 15 0 15 25 0 25 0 0 10 0 10
80 0 80 0 0 15 0 15 70 0 70 0 0 -15 0 -15 25 0 25 0 0 -10 0 -10 15 0 15 0 0
-15 0 -15 10 0 10 0 0 -14 0 -14 -12 -6 -13 -6 12 -6 13 -6 0 -14 0 -14 15 0
15 0 0 -15 0 -15 15 0 15 0 0 55 0 55 -30 0 -30 0 0 25 0 25 -10 0 -10 0 0 15
0 15 -15 0 -15 0 0 15 0 15 -25 0 -25 0 0 10 0 10 -30 0 -30 0 0 15 0 15 -10
0 -10 0 0 -15 0 -15 -15 0 -15 0 0 15 0 15 -15 0 -15 0 0 -15 0 -15 -10 0 -10
0 0 15 0 15 -15 0 -15 0 0 -15 0 -15 -15 0 -15 0 0 15 0 15 -10 0 -10 0 0 -15
0 -15 -15 0 -15 0 0 15 0 15 -15 0 -15 0 0 -15 0 -15 -10 0 -10 0 0 30 0 30
25 0 25 0 0 10 0 10 -200 0 -200 0 0 15 0 15 -15 0 -15 0 0 -25 0 -25 -10 0
-10 0 0 -15 0 -15 -30 0 -30 0 0 -15 0 -15 -65 0 -65 0 0 15 0 15 15 0 15 0 0
11 0 10 14 15 15 14 10 0 11 0 0 15 0 15 -15 0 -15 0 0 -11 0 -10 -14 -15 -15
-14 -10 0 -11 0 0 -15 0 -15 -15 0 -15 0 0 -15 0 -15 -10 0 -10 0 0 30 0 30
10 0 10 0 0 25 0 25 -10 0 -10 0 0 -25z m610 -70 l0 -15 -15 0 -15 0 0 15 0
15 15 0 15 0 0 -15z m-610 -50 l0 -15 -15 0 -15 0 0 15 0 15 15 0 15 0 0 -15z
m210 -80 l0 -15 -15 0 -15 0 0 15 0 15 15 0 15 0 0 -15z m320 0 l0 -15 -145 0
-145 0 0 15 0 15 145 0 145 0 0 -15z m50 0 l0 -15 -10 0 -10 0 0 15 0 15 10 0
10 0 0 -15z m510 -55 l0 -10 -15 0 -15 0 0 10 0 10 15 0 15 0 0 -10z"/>
<path d="M1010 985 l0 -25 15 0 15 0 0 -25 0 -25 15 0 15 0 0 -30 0 -30 10 0
10 0 0 -25 0 -25 15 0 15 0 0 -25 0 -25 15 0 15 0 0 -30 0 -30 10 0 10 0 0
-25 0 -25 15 0 15 0 0 -25 0 -25 15 0 15 0 0 -15 0 -15 -430 0 -430 0 0 25 0
25 -10 0 -10 0 0 -10 0 -10 -15 0 -15 0 0 10 0 10 -15 0 -15 0 0 15 0 15 -10
0 -10 0 0 15 0 15 -15 0 -15 0 0 10 0 10 -15 0 -15 0 0 15 0 15 -10 0 -10 0 0
15 0 15 -15 0 -15 0 0 10 0 10 -15 0 -15 0 0 15 0 15 -10 0 -10 0 0 15 0 15
-15 0 -15 0 0 10 0 10 -15 0 -15 0 0 15 0 15 -10 0 -10 0 0 11 0 10 14 15 15
14 10 0 11 0 0 -10 0 -10 -15 0 -15 0 0 -15 0 -15 15 0 15 0 0 15 0 15 15 0
15 0 0 -15 0 -15 -15 0 -15 0 0 -15 0 -15 15 0 15 0 0 15 0 15 10 0 10 0 0
-15 0 -15 15 0 15 0 0 -10 0 -10 -15 0 -15 0 0 -15 0 -15 15 0 15 0 0 15 0 15
15 0 15 0 0 -15 0 -15 -15 0 -15 0 0 -15 0 -15 15 0 15 0 0 15 0 15 10 0 10 0
0 -15 0 -15 15 0 15 0 0 -10 0 -10 15 0 15 0 0 -15 0 -15 10 0 10 0 0 -14 0
-14 -12 -6 -13 -6 13 -6 12 -6 0 -14 0 -14 15 0 15 0 0 -15 0 -15 15 0 15 0 0
30 0 30 -15 0 -15 0 0 25 0 25 -15 0 -15 0 0 25 0 25 -10 0 -10 0 0 30 0 30
-15 0 -15 0 0 -15 0 -15 -15 0 -15 0 0 11 0 10 -14 15 -15 14 -10 0 -11 0 0
15 0 15 -15 0 -15 0 0 15 0 15 15 0 15 0 0 10 0 10 -15 0 -15 0 0 15 0 15 -10
0 -10 0 0 15 0 15 -15 0 -15 0 0 -15 0 -15 -15 0 -15 0 0 -11 0 -10 -14 -15
-15 -14 -10 0 -11 0 0 -280 0 -280 15 0 15 0 0 -15 0 -15 10 0 10 0 0 -15 0
-15 15 0 15 0 0 -10 0 -10 15 0 15 0 0 -15 0 -15 10 0 10 0 0 -15 0 -15 15 0
15 0 0 -10 0 -10 15 0 15 0 0 -15 0 -15 25 0 25 0 0 40 0 40 15 0 15 0 0 -40
0 -40 -15 0 -15 0 0 -15 0 -15 15 0 15 0 0 -25 0 -25 10 0 10 0 0 -15 0 -15
15 0 15 0 0 -10 0 -10 15 0 15 0 0 -15 0 -15 200 0 200 0 0 15 0 15 65 0 65 0
0 -15 0 -15 185 0 185 0 0 295 0 295 -10 0 -10 0 0 25 0 25 -15 0 -15 0 0 25
0 25 -15 0 -15 0 0 30 0 30 -10 0 -10 0 0 25 0 25 -15 0 -15 0 0 25 0 25 -15
0 -15 0 0 30 0 30 -10 0 -10 0 0 25 0 25 -15 0 -15 0 0 25 0 25 -15 0 -15 0 0
-25z m-900 -39 l0 -14 13 -5 12 -4 -9 -9 -9 -9 -4 13 -5 12 -14 0 -14 0 0 15
0 15 15 0 15 0 0 -14z m-60 -131 l0 -15 15 0 15 0 0 -15 0 -15 11 0 10 0 15
-14 14 -15 0 -10 0 -11 15 0 15 0 0 -15 0 -15 11 0 10 0 15 -14 14 -15 0 -10
0 -11 15 0 15 0 0 -15 0 -15 11 0 10 0 15 -14 14 -15 0 -10 0 -11 15 0 15 0 0
-15 0 -15 15 0 15 0 0 -225 0 -225 -15 0 -15 0 0 15 0 15 -15 0 -15 0 0 116 0
115 -14 15 -15 14 -10 0 -11 0 0 15 0 15 -25 0 -25 0 0 -80 0 -80 -15 0 -15 0
0 15 0 15 -11 0 -10 0 -15 14 -14 15 0 10 0 11 -15 0 -15 0 0 15 0 15 -11 0
-10 0 -15 14 -14 15 0 225 0 226 10 0 10 0 0 -15z m1180 -545 l0 -240 -160 0
-160 0 0 105 0 105 -15 0 -15 0 0 15 0 15 -15 0 -15 0 0 10 0 10 -36 0 -35 0
-15 -14 -14 -15 0 -10 0 -11 -15 0 -15 0 0 -105 0 -105 -175 0 -175 0 0 240 0
240 430 0 430 0 0 -240z m-960 40 l0 -40 -15 0 -15 0 0 40 0 40 15 0 15 0 0
-40z m560 -55 l0 -15 10 0 10 0 0 -95 0 -95 -50 0 -50 0 0 40 0 40 10 0 10 0
0 15 0 15 -10 0 -10 0 0 40 0 40 10 0 10 0 0 15 0 15 30 0 30 0 0 -15z"/>
<path d="M50 720 l0 -50 15 0 15 0 0 -15 0 -15 15 0 15 0 0 -11 0 -10 14 -15
15 -14 10 0 11 0 0 -15 0 -15 15 0 15 0 0 55 0 55 -15 0 -15 0 0 10 0 10 -15
0 -15 0 0 15 0 15 -10 0 -10 0 0 15 0 15 -15 0 -15 0 0 10 0 10 -15 0 -15 0 0
-50z m60 -11 l0 -10 14 -15 15 -14 10 0 11 0 0 -30 0 -30 -15 0 -15 0 0 26 0
25 -14 15 -15 14 -10 0 -11 0 0 15 0 15 15 0 15 0 0 -11z"/>
<path d="M50 480 l0 -80 15 0 15 0 0 -15 0 -15 11 0 10 0 15 -14 14 -15 0 -10
0 -11 15 0 15 0 0 95 0 95 -15 0 -15 0 0 -55 0 -55 -10 0 -10 0 0 54 0 54 13
6 12 6 -12 6 -13 6 0 14 0 14 -30 0 -30 0 0 -80z"/>
<path d="M190 480 l0 -50 65 0 65 0 0 50 0 50 -65 0 -65 0 0 -50z m50 15 l0
-15 15 0 15 0 0 15 0 15 10 0 10 0 0 -15 0 -15 -10 0 -10 0 0 -15 0 -15 -15 0
-15 0 0 15 0 15 -15 0 -15 0 0 15 0 15 15 0 15 0 0 -15z"/>
<path d="M430 455 l0 -25 10 0 10 0 0 -30 0 -30 15 0 15 0 0 15 0 15 15 0 15
0 0 -15 0 -15 10 0 10 0 0 26 0 25 -14 15 -15 14 -10 0 -11 0 0 -10 0 -10 -15
0 -15 0 0 25 0 25 -10 0 -10 0 0 -25z"/>
<path d="M530 455 l0 -25 15 0 15 0 0 25 0 25 -15 0 -15 0 0 -25z"/>
<path d="M590 425 l0 -55 25 0 25 0 0 15 0 15 -15 0 -15 0 0 15 0 15 15 0 15
0 0 25 0 25 -25 0 -25 0 0 -55z"/>
<path d="M690 465 l0 -15 -10 0 -10 0 0 -40 0 -40 10 0 10 0 0 15 0 15 15 0
15 0 0 -15 0 -15 15 0 15 0 0 40 0 40 -15 0 -15 0 0 -10 0 -10 -15 0 -15 0 0
10 0 10 15 0 15 0 0 15 0 15 -15 0 -15 0 0 -15z"/>
<path d="M770 425 l0 -55 15 0 15 0 0 15 0 15 15 0 15 0 0 14 0 14 13 6 12 6
-12 6 -13 6 0 14 0 14 -30 0 -30 0 0 -55z m60 15 l0 -10 -15 0 -15 0 0 10 0
10 15 0 15 0 0 -10z"/>
<path d="M910 465 l0 -15 -15 0 -15 0 0 -25 0 -25 15 0 15 0 0 -15 0 -15 10 0
10 0 0 15 0 15 15 0 15 0 0 25 0 25 -15 0 -15 0 0 15 0 15 -10 0 -10 0 0 -15z
m20 -40 l0 -25 -10 0 -10 0 0 25 0 25 10 0 10 0 0 -25z"/>
<path d="M990 425 l0 -55 10 0 10 0 0 30 0 30 15 0 15 0 0 -15 0 -15 15 0 15
0 0 -15 0 -15 10 0 10 0 0 55 0 55 -10 0 -10 0 0 -25 0 -25 -15 0 -15 0 0 10
0 10 -15 0 -15 0 0 15 0 15 -10 0 -10 0 0 -55z"/>
<path d="M1120 455 l0 -25 15 0 15 0 0 -15 0 -15 -15 0 -15 0 0 -15 0 -15 25
0 25 0 0 29 0 29 -12 6 -13 6 13 6 12 6 0 14 0 14 -25 0 -25 0 0 -25z"/>
<path d="M480 335 l0 -15 -15 0 -15 0 0 -15 0 -15 -10 0 -10 0 0 -105 0 -105
120 0 120 0 0 105 0 105 -15 0 -15 0 0 15 0 15 -15 0 -15 0 0 15 0 15 -65 0
-65 0 0 -15z m110 -30 l0 -15 10 0 10 0 0 -80 0 -80 -25 0 -25 0 0 40 0 40 15
0 15 0 0 30 0 30 -40 0 -40 0 0 -30 0 -30 10 0 10 0 0 -40 0 -40 -40 0 -40 0
0 80 0 80 15 0 15 0 0 15 0 15 55 0 55 0 0 -15z m-30 -80 l0 -15 -15 0 -15 0
0 15 0 15 15 0 15 0 0 -15z"/>
<path d="M480 175 l0 -15 15 0 15 0 0 15 0 15 -15 0 -15 0 0 -15z"/>
<path d="M750 335 l0 -15 -15 0 -15 0 0 -15 0 -15 15 0 15 0 0 15 0 15 65 0
65 0 0 -15 0 -15 15 0 15 0 0 15 0 15 -15 0 -15 0 0 15 0 15 -65 0 -65 0 0
-15z"/>
<path d="M1010 335 l0 -15 -10 0 -10 0 0 -15 0 -15 -15 0 -15 0 0 -105 0 -105
120 0 120 0 0 105 0 105 -15 0 -15 0 0 15 0 15 -10 0 -10 0 0 15 0 15 -70 0
-70 0 0 -15z m110 -30 l0 -15 15 0 15 0 0 -80 0 -80 -40 0 -40 0 0 15 0 15
-15 0 -15 0 0 -15 0 -15 -25 0 -25 0 0 15 0 15 10 0 10 0 0 15 0 15 15 0 15 0
0 10 0 10 15 0 15 0 0 15 0 15 25 0 25 0 0 25 0 25 -25 0 -25 0 0 -25 0 -25
-15 0 -15 0 0 -15 0 -15 -15 0 -15 0 0 -10 0 -10 -10 0 -10 0 0 50 0 50 10 0
10 0 0 15 0 15 55 0 55 0 0 -15z"/>
<path d="M1090 175 l0 -15 15 0 15 0 0 15 0 15 -15 0 -15 0 0 -15z"/>
<path d="M210 975 l0 -15 30 0 30 0 0 15 0 15 -30 0 -30 0 0 -15z"/>
<path d="M370 975 l0 -15 30 0 30 0 0 15 0 15 -30 0 -30 0 0 -15z"/>
<path d="M450 975 l0 -15 30 0 30 0 0 15 0 15 -30 0 -30 0 0 -15z"/>
<path d="M530 975 l0 -15 30 0 30 0 0 15 0 15 -30 0 -30 0 0 -15z"/>
<path d="M610 975 l0 -15 30 0 30 0 0 15 0 15 -30 0 -30 0 0 -15z"/>
<path d="M770 975 l0 -15 30 0 30 0 0 15 0 15 -30 0 -30 0 0 -15z"/>
<path d="M850 975 l0 -15 30 0 30 0 0 15 0 15 -30 0 -30 0 0 -15z"/>
<path d="M930 975 l0 -15 30 0 30 0 0 15 0 15 -30 0 -30 0 0 -15z"/>
<path d="M240 920 l0 -10 25 0 25 0 0 10 0 10 -25 0 -25 0 0 -10z"/>
<path d="M320 920 l0 -10 25 0 25 0 0 10 0 10 -25 0 -25 0 0 -10z"/>
<path d="M400 920 l0 -10 25 0 25 0 0 10 0 10 -25 0 -25 0 0 -10z"/>
<path d="M480 920 l0 -10 25 0 25 0 0 10 0 10 -25 0 -25 0 0 -10z"/>
<path d="M560 920 l0 -10 25 0 25 0 0 10 0 10 -25 0 -25 0 0 -10z"/>
<path d="M640 920 l0 -10 25 0 25 0 0 10 0 10 -25 0 -25 0 0 -10z"/>
<path d="M720 920 l0 -10 25 0 25 0 0 10 0 10 -25 0 -25 0 0 -10z"/>
<path d="M800 920 l0 -10 25 0 25 0 0 10 0 10 -25 0 -25 0 0 -10z"/>
<path d="M880 920 l0 -10 25 0 25 0 0 10 0 10 -25 0 -25 0 0 -10z"/>
<path d="M960 920 l0 -10 25 0 25 0 0 10 0 10 -25 0 -25 0 0 -10z"/>
<path d="M270 865 l0 -15 25 0 25 0 0 15 0 15 -25 0 -25 0 0 -15z"/>
<path d="M350 865 l0 -15 25 0 25 0 0 15 0 15 -25 0 -25 0 0 -15z"/>
<path d="M430 865 l0 -15 25 0 25 0 0 15 0 15 -25 0 -25 0 0 -15z"/>
<path d="M510 865 l0 -15 25 0 25 0 0 15 0 15 -25 0 -25 0 0 -15z"/>
<path d="M590 865 l0 -15 25 0 25 0 0 15 0 15 -25 0 -25 0 0 -15z"/>
<path d="M670 865 l0 -15 25 0 25 0 0 15 0 15 -25 0 -25 0 0 -15z"/>
<path d="M750 865 l0 -15 25 0 25 0 0 15 0 15 -25 0 -25 0 0 -15z"/>
<path d="M830 865 l0 -15 25 0 25 0 0 15 0 15 -25 0 -25 0 0 -15z"/>
<path d="M910 865 l0 -15 25 0 25 0 0 15 0 15 -25 0 -25 0 0 -15z"/>
<path d="M990 865 l0 -15 25 0 25 0 0 15 0 15 -25 0 -25 0 0 -15z"/>
<path d="M110 840 l0 -10 10 0 10 0 0 10 0 10 -10 0 -10 0 0 -10z"/>
<path d="M290 815 l0 -15 30 0 30 0 0 15 0 15 -30 0 -30 0 0 -15z"/>
<path d="M370 815 l0 -15 30 0 30 0 0 15 0 15 -30 0 -30 0 0 -15z"/>
<path d="M450 815 l0 -15 30 0 30 0 0 15 0 15 -30 0 -30 0 0 -15z"/>
<path d="M530 815 l0 -15 30 0 30 0 0 15 0 15 -30 0 -30 0 0 -15z"/>
<path d="M610 815 l0 -15 30 0 30 0 0 15 0 15 -30 0 -30 0 0 -15z"/>
<path d="M690 815 l0 -15 30 0 30 0 0 15 0 15 -30 0 -30 0 0 -15z"/>
<path d="M770 815 l0 -15 30 0 30 0 0 15 0 15 -30 0 -30 0 0 -15z"/>
<path d="M850 815 l0 -15 30 0 30 0 0 15 0 15 -30 0 -30 0 0 -15z"/>
<path d="M930 815 l0 -15 30 0 30 0 0 15 0 15 -30 0 -30 0 0 -15z"/>
<path d="M1010 815 l0 -15 30 0 30 0 0 15 0 15 -30 0 -30 0 0 -15z"/>
<path d="M190 760 l0 -10 10 0 10 0 0 -15 0 -15 15 0 15 0 0 -15 0 -15 15 0
15 0 0 15 0 15 -15 0 -15 0 0 15 0 15 -15 0 -15 0 0 10 0 10 -10 0 -10 0 0
-10z"/>
<path d="M320 760 l0 -10 25 0 25 0 0 10 0 10 -25 0 -25 0 0 -10z"/>
<path d="M400 760 l0 -10 25 0 25 0 0 10 0 10 -25 0 -25 0 0 -10z"/>
<path d="M480 760 l0 -10 25 0 25 0 0 10 0 10 -25 0 -25 0 0 -10z"/>
<path d="M560 760 l0 -10 25 0 25 0 0 10 0 10 -25 0 -25 0 0 -10z"/>
<path d="M640 760 l0 -10 25 0 25 0 0 10 0 10 -25 0 -25 0 0 -10z"/>
<path d="M720 760 l0 -10 25 0 25 0 0 10 0 10 -25 0 -25 0 0 -10z"/>
<path d="M800 760 l0 -10 25 0 25 0 0 10 0 10 -25 0 -25 0 0 -10z"/>
<path d="M880 760 l0 -10 25 0 25 0 0 10 0 10 -25 0 -25 0 0 -10z"/>
<path d="M960 760 l0 -10 25 0 25 0 0 10 0 10 -25 0 -25 0 0 -10z"/>
<path d="M1040 760 l0 -10 25 0 25 0 0 10 0 10 -25 0 -25 0 0 -10z"/>
<path d="M350 705 l0 -15 25 0 25 0 0 15 0 15 -25 0 -25 0 0 -15z"/>
<path d="M430 705 l0 -15 25 0 25 0 0 15 0 15 -25 0 -25 0 0 -15z"/>
<path d="M510 705 l0 -15 25 0 25 0 0 15 0 15 -25 0 -25 0 0 -15z"/>
<path d="M590 705 l0 -15 25 0 25 0 0 15 0 15 -25 0 -25 0 0 -15z"/>
<path d="M670 705 l0 -15 25 0 25 0 0 15 0 15 -25 0 -25 0 0 -15z"/>
<path d="M750 705 l0 -15 25 0 25 0 0 15 0 15 -25 0 -25 0 0 -15z"/>
<path d="M830 705 l0 -15 25 0 25 0 0 15 0 15 -25 0 -25 0 0 -15z"/>
<path d="M910 705 l0 -15 25 0 25 0 0 15 0 15 -25 0 -25 0 0 -15z"/>
<path d="M990 705 l0 -15 25 0 25 0 0 15 0 15 -25 0 -25 0 0 -15z"/>
<path d="M1070 705 l0 -15 25 0 25 0 0 15 0 15 -25 0 -25 0 0 -15z"/>
<path d="M370 655 l0 -15 30 0 30 0 0 15 0 15 -30 0 -30 0 0 -15z"/>
<path d="M450 655 l0 -15 30 0 30 0 0 15 0 15 -30 0 -30 0 0 -15z"/>
<path d="M530 655 l0 -15 30 0 30 0 0 15 0 15 -30 0 -30 0 0 -15z"/>
<path d="M610 655 l0 -15 30 0 30 0 0 15 0 15 -30 0 -30 0 0 -15z"/>
<path d="M690 655 l0 -15 30 0 30 0 0 15 0 15 -30 0 -30 0 0 -15z"/>
<path d="M770 655 l0 -15 30 0 30 0 0 15 0 15 -30 0 -30 0 0 -15z"/>
<path d="M850 655 l0 -15 30 0 30 0 0 15 0 15 -30 0 -30 0 0 -15z"/>
<path d="M930 655 l0 -15 30 0 30 0 0 15 0 15 -30 0 -30 0 0 -15z"/>
<path d="M1010 655 l0 -15 30 0 30 0 0 15 0 15 -30 0 -30 0 0 -15z"/>
<path d="M1090 655 l0 -15 30 0 30 0 0 15 0 15 -30 0 -30 0 0 -15z"/>
<path d="M400 600 l0 -10 25 0 25 0 0 10 0 10 -25 0 -25 0 0 -10z"/>
<path d="M480 600 l0 -10 25 0 25 0 0 10 0 10 -25 0 -25 0 0 -10z"/>
<path d="M560 600 l0 -10 25 0 25 0 0 10 0 10 -25 0 -25 0 0 -10z"/>
<path d="M640 600 l0 -10 25 0 25 0 0 10 0 10 -25 0 -25 0 0 -10z"/>
<path d="M720 600 l0 -10 25 0 25 0 0 10 0 10 -25 0 -25 0 0 -10z"/>
<path d="M800 600 l0 -10 25 0 25 0 0 10 0 10 -25 0 -25 0 0 -10z"/>
<path d="M880 600 l0 -10 25 0 25 0 0 10 0 10 -25 0 -25 0 0 -10z"/>
<path d="M960 600 l0 -10 25 0 25 0 0 10 0 10 -25 0 -25 0 0 -10z"/>
<path d="M1040 600 l0 -10 25 0 25 0 0 10 0 10 -25 0 -25 0 0 -10z"/>
<path d="M1120 600 l0 -10 25 0 25 0 0 10 0 10 -25 0 -25 0 0 -10z"/>
</g>
</svg>
