<?xml version="1.0" standalone="no"?>
<!DOCTYPE svg PUBLIC "-//W3C//DTD SVG 20010904//EN"
 "http://www.w3.org/TR/2001/REC-SVG-20010904/DTD/svg10.dtd">
<svg version="1.0" xmlns="http://www.w3.org/2000/svg"
 width="468pt" height="468pt" viewBox="0 0 468 468"
 preserveAspectRatio="xMidYMid meet">
<metadata>
Created by potrace 1.8, written by Peter Selinger 2001-2007
</metadata>
<g transform="translate(0,468) scale(0.365625,-0.365625)"
fill="#000000" stroke="none">
<path d="M1140 1170 l0 -10 19 0 19 0 6 -12 6 -13 6 13 6 12 19 0 19 0 0 10 0
10 -19 0 -19 0 -6 -12 -6 -13 -6 13 -6 12 -19 0 -19 0 0 -10z"/>
<path d="M540 1050 l0 -110 10 0 10 0 0 110 0 110 -10 0 -10 0 0 -110z"/>
<path d="M380 1120 l0 -20 10 0 10 0 0 -30 0 -30 10 0 10 0 0 -30 0 -30 10 0
10 0 0 -30 0 -30 10 0 10 0 0 30 0 30 -10 0 -10 0 0 30 0 30 -10 0 -10 0 0 30
0 30 -10 0 -10 0 0 20 0 20 -10 0 -10 0 0 -20z"/>
<path d="M700 1120 l0 -20 -10 0 -10 0 0 -30 0 -30 -10 0 -10 0 0 -40 0 -40
-10 0 -10 0 0 -20 0 -20 10 0 10 0 0 20 0 20 10 0 10 0 0 40 0 40 10 0 10 0 0
30 0 30 10 0 10 0 0 20 0 20 -10 0 -10 0 0 -20z"/>
<path d="M240 1090 l0 -10 10 0 10 0 0 -16 0 -16 30 -28 30 -28 0 -14 0 -14
20 -14 20 -14 0 -18 0 -18 10 0 10 0 0 18 0 18 -20 14 -20 14 0 14 0 14 -30
28 -30 28 0 12 0 11 -14 15 -15 14 -5 0 -6 0 0 -10z"/>
<path d="M833 1085 l-13 -14 0 -13 0 -14 -20 -14 -20 -14 0 -18 0 -18 -10 0
-10 0 0 -18 0 -18 -20 -14 -20 -14 0 -18 0 -18 10 0 10 0 0 18 0 18 20 14 20
14 0 18 0 18 10 0 10 0 0 18 0 18 20 14 20 14 0 18 0 18 10 0 10 0 0 10 0 10
-7 0 -8 -1 -12 -14z"/>
<path d="M1000 1010 l0 -10 -16 0 -16 0 -28 -30 -28 -30 -12 0 -12 0 -28 -30
-28 -30 -12 0 -11 0 -16 -15 -15 -16 7 -7 8 -7 4 13 5 12 15 0 15 0 28 30 28
30 12 0 12 0 28 30 28 30 12 0 11 0 15 14 14 15 0 5 0 6 -10 0 -10 0 0 -10z"/>
<path d="M120 995 l0 -6 25 -24 24 -25 12 0 11 0 28 -30 28 -30 12 0 13 0 18
-22 19 -21 6 6 6 6 -25 25 -26 26 -12 0 -11 0 -28 30 -28 30 -14 0 -14 0 -14
20 -14 20 -8 0 -8 0 0 -5z"/>
<path d="M500 910 l0 -10 -30 0 -30 0 0 -10 0 -10 -15 0 -16 0 -34 -35 -35
-34 0 -16 0 -15 -10 0 -10 0 0 -30 0 -30 -10 0 -10 0 0 -50 0 -50 -150 0 -150
0 0 -10 0 -10 290 0 290 0 0 10 0 10 -130 0 -130 0 0 50 0 50 10 0 10 0 0 28
0 28 20 14 20 14 0 18 0 18 18 0 18 0 14 20 14 20 28 0 28 0 0 10 0 10 50 0
50 0 0 -10 0 -10 28 0 28 0 14 -20 14 -20 14 0 13 0 24 -25 25 -24 0 -6 0 -5
-20 0 -20 0 0 -10 0 -10 -15 0 -16 0 -24 -25 -25 -24 0 -16 0 -15 -10 0 -10 0
0 -20 0 -20 -10 0 -10 0 0 -40 0 -40 30 0 30 0 0 -10 0 -10 50 0 50 0 0 -10 0
-10 160 0 160 0 0 10 0 10 60 0 60 0 0 10 0 10 26 0 25 0 15 14 14 15 0 71 0
71 -14 15 -15 14 -25 0 -26 0 0 10 0 10 -20 0 -20 0 0 10 0 10 -50 0 -50 0 0
10 0 10 -130 0 -130 0 0 -10 0 -10 -16 0 -16 0 -28 30 -28 30 -14 0 -14 0 -14
20 -14 20 -28 0 -28 0 0 10 0 10 -50 0 -50 0 0 -10z m320 -130 l0 -20 -10 0
-10 0 0 20 0 20 10 0 10 0 0 -20z m80 -6 l0 -5 -15 -16 -16 -15 -5 5 -6 6 13
15 14 15 8 1 7 0 0 -6z m60 -4 l0 -10 -10 0 -10 0 0 10 0 10 10 0 10 0 0 -10z
m100 0 l0 -10 -10 0 -10 0 0 -20 0 -20 -10 0 -10 0 0 15 0 16 13 14 12 14 8 1
7 0 0 -10z m-340 -36 l0 -5 -15 -16 -16 -15 -5 5 -6 6 13 15 14 15 8 1 7 0 0
-6z m60 -14 l0 -20 -10 0 -10 0 0 20 0 20 10 0 10 0 0 -20z m380 4 l0 -15 -15
-16 -16 -15 -7 7 -7 8 13 4 12 5 0 19 0 19 10 0 10 0 0 -16z m80 -10 l0 -5
-15 -16 -16 -15 -5 5 -6 6 13 15 14 15 8 1 7 0 0 -6z m-220 -24 l0 -10 -10 0
-10 0 0 10 0 10 10 0 10 0 0 -10z m-100 -20 l0 -10 -10 0 -10 0 0 10 0 10 10
0 10 0 0 -10z"/>
<path d="M1020 870 l0 -10 -30 0 -30 0 0 -10 0 -10 30 0 30 0 0 10 0 10 30 0
30 0 0 10 0 10 -30 0 -30 0 0 -10z"/>
<path d="M60 810 l0 -10 30 0 30 0 0 -10 0 -10 30 0 30 0 0 -10 0 -10 40 0 40
0 0 -10 0 -10 20 0 20 0 0 10 0 10 -20 0 -20 0 0 10 0 10 -40 0 -40 0 0 10 0
10 -30 0 -30 0 0 10 0 10 -30 0 -30 0 0 -10z"/>
<path d="M40 690 l0 -10 50 0 50 0 0 -10 0 -10 70 0 70 0 0 10 0 10 -70 0 -70
0 0 10 0 10 -50 0 -50 0 0 -10z"/>
<path d="M40 570 l0 -10 10 0 10 0 0 10 0 10 -10 0 -10 0 0 -10z"/>
<path d="M160 570 l0 -10 10 0 10 0 0 10 0 10 -10 0 -10 0 0 -10z"/>
<path d="M400 570 l0 -10 10 0 10 0 0 10 0 10 -10 0 -10 0 0 -10z"/>
<path d="M500 570 l0 -10 10 0 10 0 0 10 0 10 -10 0 -10 0 0 -10z"/>
<path d="M80 550 l0 -10 10 0 10 0 0 10 0 10 -10 0 -10 0 0 -10z"/>
<path d="M300 550 l0 -10 10 0 10 0 0 10 0 10 -10 0 -10 0 0 -10z"/>
<path d="M460 550 l0 -10 10 0 10 0 0 10 0 10 -10 0 -10 0 0 -10z"/>
<path d="M200 530 l0 -10 10 0 10 0 0 10 0 10 -10 0 -10 0 0 -10z"/>
<path d="M360 530 l0 -10 10 0 10 0 0 10 0 10 -10 0 -10 0 0 -10z"/>
<path d="M580 510 l0 -10 10 0 10 0 0 10 0 10 -10 0 -10 0 0 -10z"/>
<path d="M680 510 l0 -10 10 0 10 0 0 10 0 10 -10 0 -10 0 0 -10z"/>
<path d="M1100 510 l0 -10 10 0 10 0 0 10 0 10 -10 0 -10 0 0 -10z"/>
<path d="M1200 510 l0 -10 10 0 10 0 0 10 0 10 -10 0 -10 0 0 -10z"/>
<path d="M460 482 l0 -18 20 -14 20 -14 0 -18 0 -18 8 0 8 0 14 20 14 20 18 0
18 0 0 10 0 10 -20 0 -20 0 0 20 0 20 -10 0 -10 0 0 -20 0 -20 10 0 10 0 0
-10 0 -10 -16 0 -15 0 -15 14 -14 15 0 15 0 16 -10 0 -10 0 0 -18z"/>
<path d="M800 490 l0 -10 10 0 10 0 0 10 0 10 -10 0 -10 0 0 -10z"/>
<path d="M960 490 l0 -10 10 0 10 0 0 10 0 10 -10 0 -10 0 0 -10z"/>
<path d="M1240 490 l0 -10 10 0 10 0 0 10 0 10 -10 0 -10 0 0 -10z"/>
<path d="M100 470 l0 -10 10 0 10 0 0 -10 0 -10 -20 0 -20 0 0 10 0 10 -20 0
-20 0 0 -10 0 -10 20 0 20 0 0 -20 0 -20 5 0 6 0 25 25 25 25 -15 15 -15 15
-5 0 -6 0 0 -10z"/>
<path d="M280 470 l0 -10 10 0 10 0 0 10 0 10 -10 0 -10 0 0 -10z"/>
<path d="M660 470 l0 -10 10 0 10 0 0 10 0 10 -10 0 -10 0 0 -10z"/>
<path d="M740 470 l0 -10 10 0 10 0 0 10 0 10 -10 0 -10 0 0 -10z"/>
<path d="M1060 470 l0 -10 10 0 10 0 0 10 0 10 -10 0 -10 0 0 -10z"/>
<path d="M900 450 l0 -10 10 0 10 0 0 10 0 10 -10 0 -10 0 0 -10z"/>
<path d="M1140 450 l0 -10 10 0 10 0 0 10 0 10 -10 0 -10 0 0 -10z"/>
<path d="M820 430 l0 -10 10 0 10 0 0 10 0 10 -10 0 -10 0 0 -10z"/>
<path d="M980 430 l0 -10 10 0 10 0 0 10 0 10 -10 0 -10 0 0 -10z"/>
<path d="M320 410 l0 -10 20 0 20 0 0 10 0 10 -20 0 -20 0 0 -10z"/>
<path d="M712 404 l-14 -15 21 -18 21 -18 0 -17 0 -16 10 0 10 0 0 16 0 17 22
18 21 19 -6 7 -7 6 -20 -22 -19 -23 -18 18 -18 17 13 5 12 4 0 9 0 9 -7 0 -8
-1 -13 -15z"/>
<path d="M1100 390 l0 -10 10 0 10 0 0 10 0 10 -10 0 -10 0 0 -10z"/>
<path d="M1140 374 l0 -25 -14 -15 -15 -14 -5 0 -6 0 0 16 0 15 -15 16 -16 15
-7 -7 -7 -8 13 -4 12 -5 0 -19 0 -19 10 0 10 0 0 -20 0 -20 10 0 10 0 0 18 0
18 20 14 20 14 0 28 0 28 -10 0 -10 0 0 -26z"/>
<path d="M1240 390 l0 -10 10 0 10 0 0 10 0 10 -10 0 -10 0 0 -10z"/>
<path d="M160 370 l0 -10 20 0 20 0 0 10 0 10 -20 0 -20 0 0 -10z"/>
<path d="M600 370 l0 -10 10 0 10 0 0 10 0 10 -10 0 -10 0 0 -10z"/>
<path d="M20 350 l0 -10 10 0 10 0 0 10 0 10 -10 0 -10 0 0 -10z"/>
<path d="M260 350 l0 -10 10 0 10 0 0 10 0 10 -10 0 -10 0 0 -10z"/>
<path d="M460 350 l0 -10 10 0 10 0 0 10 0 10 -10 0 -10 0 0 -10z"/>
<path d="M900 350 l0 -10 10 0 10 0 0 -20 0 -20 -8 0 -8 0 -14 20 -14 20 -8 0
-8 0 0 -20 0 -20 20 0 20 0 0 -20 0 -20 10 0 10 0 0 20 0 20 10 0 10 0 0 19 0
19 13 5 12 4 -8 9 -8 8 -10 -14 -11 -15 -5 13 -5 12 -9 0 -9 0 0 -10z"/>
<path d="M400 330 l0 -10 10 0 10 0 0 10 0 10 -10 0 -10 0 0 -10z"/>
<path d="M100 310 l0 -10 10 0 10 0 0 10 0 10 -10 0 -10 0 0 -10z"/>
<path d="M560 310 l0 -10 20 0 20 0 0 10 0 10 -20 0 -20 0 0 -10z"/>
<path d="M180 290 l0 -10 -20 0 -20 0 0 -10 0 -10 -20 0 -20 0 0 -10 0 -10 20
0 20 0 0 10 0 10 20 0 20 0 0 10 0 10 100 0 100 0 0 -10 0 -10 30 0 30 0 0
-10 0 -10 30 0 30 0 0 10 0 10 -30 0 -30 0 0 10 0 10 -30 0 -30 0 0 10 0 10
-100 0 -100 0 0 -10z"/>
<path d="M600 270 l0 -10 10 0 10 0 0 10 0 10 -10 0 -10 0 0 -10z"/>
<path d="M1000 270 l0 -10 10 0 10 0 0 10 0 10 -10 0 -10 0 0 -10z"/>
<path d="M720 250 l0 -10 20 0 20 0 0 10 0 10 -20 0 -20 0 0 -10z"/>
<path d="M1200 250 l0 -10 20 0 20 0 0 10 0 10 -20 0 -20 0 0 -10z"/>
<path d="M0 100 l0 -100 640 0 640 0 0 100 0 100 -640 0 -640 0 0 -100z"/>
</g>
</svg>
