<?xml version="1.0" standalone="no"?>
<!DOCTYPE svg PUBLIC "-//W3C//DTD SVG 20010904//EN"
 "http://www.w3.org/TR/2001/REC-SVG-20010904/DTD/svg10.dtd">
<svg version="1.0" xmlns="http://www.w3.org/2000/svg"
 width="468pt" height="468pt" viewBox="0 0 468 468"
 preserveAspectRatio="xMidYMid meet">
<metadata>
Created by potrace 1.8, written by Peter Selinger 2001-2007
</metadata>
<g transform="translate(0,468) scale(0.365625,-0.365625)"
fill="#000000" stroke="none">
<path d="M13 1265 l-13 -14 0 -626 0 -625 10 0 10 0 0 615 0 615 15 0 15 0 0
15 0 15 580 0 580 0 0 -11 0 -10 14 -15 15 -14 10 0 11 0 0 -605 0 -605 10 0
10 0 0 615 0 615 -10 0 -10 0 0 15 0 15 -15 0 -15 0 0 10 0 10 -602 0 -603 -1
-12 -14z"/>
<path d="M73 1205 l-23 -24 0 -56 0 -55 10 0 10 0 0 -11 0 -10 14 -15 15 -14
31 0 31 0 15 14 14 15 0 41 0 41 -14 15 -15 14 -35 0 -36 0 0 -10 0 -10 -10 0
-10 0 0 21 0 20 14 15 15 14 35 0 36 0 0 10 0 10 -37 -1 -38 0 -22 -24z m97
-115 l0 -50 -40 0 -40 0 0 15 0 15 -10 0 -10 0 0 20 0 20 10 0 10 0 0 15 0 15
40 0 40 0 0 -50z"/>
<path d="M450 989 l0 -10 -14 -15 -15 -14 -10 0 -11 0 0 -14 0 -14 -12 -4 -13
-5 17 -16 17 -17 20 0 21 0 0 -15 0 -15 -10 0 -10 0 0 -10 0 -10 35 0 35 0 0
10 0 10 -15 0 -15 0 0 15 0 15 25 0 25 0 0 10 0 10 15 0 15 0 0 10 0 10 -15 0
-15 0 0 11 0 10 -14 15 -15 14 -10 0 -11 0 0 15 0 15 -10 0 -10 0 0 -11z"/>
<path d="M830 989 l0 -10 -14 -15 -15 -14 -10 0 -11 0 0 -14 0 -14 -12 -4 -13
-5 17 -16 17 -17 20 0 21 0 0 -15 0 -15 -10 0 -10 0 0 -10 0 -10 35 0 35 0 0
10 0 10 -15 0 -15 0 0 15 0 15 21 0 20 0 17 17 17 16 -13 5 -12 4 0 10 0 9
-14 15 -15 14 -10 0 -11 0 0 15 0 15 -10 0 -10 0 0 -11z"/>
<path d="M120 910 l0 -10 -11 0 -10 0 -15 -14 -14 -15 0 -9 0 -10 -12 -4 -13
-5 17 -16 17 -17 20 0 21 0 0 -15 0 -15 -15 0 -15 0 0 -10 0 -10 40 0 40 0 0
10 0 10 -15 0 -15 0 0 15 0 15 21 0 20 0 17 17 17 16 -13 5 -12 4 0 10 0 9
-14 15 -15 14 -10 0 -11 0 0 10 0 10 -10 0 -10 0 0 -10z"/>
<path d="M450 539 l0 -10 -14 -15 -15 -14 -10 0 -11 0 0 -14 0 -14 -12 -4 -13
-5 17 -16 17 -17 20 0 21 0 0 -15 0 -15 -10 0 -10 0 0 -10 0 -10 35 0 35 0 0
10 0 10 -15 0 -15 0 0 15 0 15 25 0 25 0 0 10 0 10 15 0 15 0 0 10 0 10 -15 0
-15 0 0 11 0 10 -14 15 -15 14 -10 0 -11 0 0 15 0 15 -10 0 -10 0 0 -11z"/>
<path d="M830 539 l0 -10 -14 -15 -15 -14 -10 0 -11 0 0 -14 0 -14 -12 -4 -13
-5 17 -16 17 -17 20 0 21 0 0 -15 0 -15 -10 0 -10 0 0 -10 0 -10 35 0 35 0 0
10 0 10 -15 0 -15 0 0 15 0 15 21 0 20 0 17 17 17 16 -13 5 -12 4 0 10 0 9
-14 15 -15 14 -10 0 -11 0 0 15 0 15 -10 0 -10 0 0 -11z"/>
<path d="M1110 155 l0 -15 15 0 15 0 0 -10 0 -10 -25 0 -25 0 0 -14 0 -14 -12
-5 -13 -4 23 -20 22 -20 0 -12 0 -11 14 0 14 0 6 -12 6 -13 6 13 6 12 14 0 14
0 0 11 0 12 23 20 22 20 -12 4 -13 5 0 14 0 14 -25 0 -25 0 0 10 0 10 15 0 15
0 0 15 0 15 -40 0 -40 0 0 -15z"/>
<path d="M430 80 l0 -10 10 0 10 0 0 -10 0 -10 -25 0 -25 0 0 -15 0 -15 -10 0
-10 0 0 -10 0 -10 85 0 85 0 0 10 0 10 -15 0 -15 0 0 15 0 15 -25 0 -25 0 0
10 0 10 15 0 15 0 0 10 0 10 -35 0 -35 0 0 -10z"/>
<path d="M810 80 l0 -10 10 0 10 0 0 -10 0 -10 -25 0 -25 0 0 -15 0 -15 -10 0
-10 0 0 -10 0 -10 80 0 80 0 0 10 0 10 -10 0 -10 0 0 15 0 15 -25 0 -25 0 0
10 0 10 15 0 15 0 0 10 0 10 -35 0 -35 0 0 -10z"/>
</g>
</svg>
