<?xml version="1.0" standalone="no"?>
<!DOCTYPE svg PUBLIC "-//W3C//DTD SVG 20010904//EN"
 "http://www.w3.org/TR/2001/REC-SVG-20010904/DTD/svg10.dtd">
<svg version="1.0" xmlns="http://www.w3.org/2000/svg"
 width="468pt" height="468pt" viewBox="0 0 468 468"
 preserveAspectRatio="xMidYMid meet">
<metadata>
Created by potrace 1.8, written by Peter Selinger 2001-2007
</metadata>
<g transform="translate(0,468) scale(0.365625,-0.365625)"
fill="#000000" stroke="none">
<path d="M480 825 l0 -25 -25 0 -25 0 0 -55 0 -55 -30 0 -30 0 0 -50 0 -50 30
0 30 0 0 -55 0 -55 25 0 25 0 0 -25 0 -25 105 0 105 0 0 25 0 25 80 0 80 0 0
25 0 25 30 0 30 0 0 -25 0 -25 50 0 50 0 0 25 0 25 80 0 80 0 0 30 0 30 -80 0
-80 0 0 -30 0 -30 -25 0 -25 0 0 30 0 30 -80 0 -80 0 0 25 0 25 -55 0 -55 0 0
25 0 25 80 0 80 0 0 -25 0 -25 55 0 55 0 0 25 0 25 -25 0 -25 0 0 30 0 30 80
0 80 0 0 25 0 25 -110 0 -110 0 0 -25 0 -25 -50 0 -50 0 0 25 0 25 -30 0 -30
0 0 25 0 25 -105 0 -105 0 0 -25z m110 -50 l0 -25 25 0 25 0 0 -30 0 -30 -55
0 -55 0 0 -25 0 -25 30 0 30 0 0 -25 0 -25 -30 0 -30 0 0 -30 0 -30 55 0 55 0
0 -25 0 -25 -55 0 -55 0 0 25 0 25 -25 0 -25 0 0 110 0 110 25 0 25 0 0 25 0
25 30 0 30 0 0 -25z m210 -215 l0 -30 -55 0 -55 0 0 30 0 30 55 0 55 0 0 -30z"/>
<path d="M1010 665 l0 -25 80 0 80 0 0 25 0 25 -80 0 -80 0 0 -25z"/>
</g>
</svg>
