<?xml version="1.0" standalone="no"?>
<!DOCTYPE svg PUBLIC "-//W3C//DTD SVG 20010904//EN"
 "http://www.w3.org/TR/2001/REC-SVG-20010904/DTD/svg10.dtd">
<svg version="1.0" xmlns="http://www.w3.org/2000/svg"
 width="468pt" height="468pt" viewBox="0 0 468 468"
 preserveAspectRatio="xMidYMid meet">
<metadata>
Created by potrace 1.8, written by Peter Selinger 2001-2007
</metadata>
<g transform="translate(0,468) scale(0.365625,-0.365625)"
fill="#000000" stroke="none">
<path d="M640 1270 l0 -10 10 0 10 0 0 -10 0 -10 -20 0 -20 0 0 10 0 10 -20 0
-20 0 0 -10 0 -10 -86 0 -85 0 -15 -14 -14 -15 0 -15 0 -16 10 0 10 0 0 10 0
10 25 0 26 0 24 -25 25 -24 0 -16 0 -15 10 0 10 0 0 -29 0 -29 -12 -6 -13 -6
13 -6 12 -6 0 -19 0 -19 20 0 20 0 0 -20 0 -20 15 0 16 0 34 -35 35 -34 0 -11
0 -11 14 -15 15 -14 15 0 16 0 0 -10 0 -10 40 0 40 0 0 -10 0 -10 20 0 20 0 0
-10 0 -10 20 0 20 0 0 -20 0 -20 19 0 19 0 5 -12 4 -13 8 7 8 8 -21 19 -22 18
0 27 0 26 -30 0 -30 0 0 20 0 20 10 0 10 0 0 10 0 10 -20 0 -20 0 0 -20 0 -20
-30 0 -30 0 0 20 0 20 -10 0 -10 0 0 26 0 25 14 15 15 14 54 0 55 0 5 -12 4
-13 9 8 8 8 -14 9 -14 9 22 19 22 19 0 37 0 36 16 0 15 0 15 14 14 15 0 15 0
16 -10 0 -10 0 0 -20 0 -20 -10 0 -10 0 0 30 0 30 -16 0 -17 0 -20 23 -20 22
-4 -12 -5 -13 -9 0 -9 0 0 20 0 20 20 0 20 0 0 10 0 10 -20 0 -20 0 0 -10 0
-10 -19 0 -19 0 -5 13 -4 12 -9 -9 -9 -9 13 -4 12 -5 0 -19 0 -19 10 0 10 0 0
-10 0 -10 -30 0 -30 0 0 10 0 10 -20 0 -20 0 0 19 0 19 13 6 12 6 -12 6 -13 6
0 19 0 19 -40 0 -40 0 0 -10z"/>
<path d="M580 934 l0 -5 15 -16 16 -15 6 5 5 6 -15 16 -16 15 -5 0 -6 0 0 -6z"/>
<path d="M940 870 l0 -10 10 0 10 0 0 10 0 10 -10 0 -10 0 0 -10z"/>
<path d="M1000 850 l0 -10 10 0 10 0 0 10 0 10 -10 0 -10 0 0 -10z"/>
<path d="M983 755 l-23 -24 0 -15 0 -14 13 -5 12 -4 -22 -20 -23 -20 0 -57 0
-56 10 0 10 0 0 -20 0 -20 10 0 10 0 0 -18 0 -18 20 -14 20 -14 0 -18 0 -18
-10 0 -10 0 0 -20 0 -20 -10 0 -10 0 0 -20 0 -20 -10 0 -10 0 0 -20 0 -20 -10
0 -10 0 0 -18 0 -18 -20 -14 -20 -14 0 -16 0 -16 -20 -14 -20 -14 0 -18 0 -18
6 0 5 0 49 50 49 50 15 0 16 0 0 10 0 10 15 0 15 0 55 55 55 55 0 15 0 15 16
0 15 0 15 14 14 15 0 25 0 26 10 0 10 0 0 20 0 20 10 0 10 0 0 46 0 46 -30 28
-30 28 0 26 0 26 -16 0 -16 0 -28 30 -28 30 -26 0 -26 0 0 10 0 10 -17 -1 -18
0 -22 -24z"/>
<path d="M740 30 l0 -10 -90 0 -90 0 0 -10 0 -10 90 0 90 0 0 10 0 10 20 0 20
0 0 10 0 10 -20 0 -20 0 0 -10z"/>
</g>
</svg>
