<?xml version="1.0" standalone="no"?>
<!DOCTYPE svg PUBLIC "-//W3C//DTD SVG 20010904//EN"
 "http://www.w3.org/TR/2001/REC-SVG-20010904/DTD/svg10.dtd">
<svg version="1.0" xmlns="http://www.w3.org/2000/svg"
 width="468pt" height="468pt" viewBox="0 0 468 468"
 preserveAspectRatio="xMidYMid meet">
<metadata>
Created by potrace 1.8, written by Peter Selinger 2001-2007
</metadata>
<g transform="translate(0,468) scale(0.365625,-0.365625)"
fill="#000000" stroke="none">
<path d="M0 640 l0 -640 640 0 640 0 0 640 0 640 -325 0 -325 0 0 -9 0 -9 15
-12 15 -13 23 19 22 18 -22 -23 -21 -24 -26 20 -25 20 6 7 6 6 -311 0 -312 0
0 -640z m755 613 l17 -16 9 14 9 14 0 -13 0 -13 18 6 19 5 24 -18 24 -19 11 4
11 4 27 -26 27 -25 8 4 8 5 54 -46 54 -46 1 -25 1 -26 -24 -26 -23 -25 4 -11
4 -11 -8 -14 -9 -13 -8 7 -7 8 14 9 15 10 -11 0 -12 0 -5 14 -6 15 13 -5 13
-5 13 16 13 16 -17 17 -17 17 -20 -24 -20 -24 -6 7 -7 7 10 7 10 7 24 17 24
18 -7 6 -7 7 -18 -16 -19 -17 -9 0 -9 0 14 9 14 9 -16 16 -15 16 -5 -13 -4
-12 -9 8 -8 8 14 9 14 9 -7 7 -7 7 -15 -13 -16 -13 5 -13 5 -13 -14 5 -13 6
-6 14 -6 15 11 -6 10 -7 13 11 14 11 0 25 0 25 -8 0 -8 0 -5 -12 -4 -13 -9 8
-8 8 14 9 14 9 -7 7 -7 7 -15 -13 -16 -13 5 -12 4 -12 -9 -14 -9 -14 5 38 4
39 -15 -13 -15 -12 5 -12 4 -12 -8 -14 -9 -13 -8 8 -8 9 12 4 12 4 -21 24 -21
24 -28 -3 -27 -3 4 12 5 12 -15 12 -15 13 -13 -7 -13 -6 19 15 20 16 -7 7 -7
6 -22 -19 -23 -19 19 23 19 22 8 0 8 0 16 -17z m-85 -53 l0 -10 -10 0 -10 0 0
10 0 10 10 0 10 0 0 -10z m70 0 l0 -10 -10 0 -10 0 0 10 0 10 10 0 10 0 0 -10z
m0 -40 l0 -10 -4 0 -5 0 -6 10 -6 10 10 0 11 0 0 -10z m40 0 l0 -10 -10 0 -10
0 0 10 0 10 10 0 10 0 0 -10z m30 0 l0 -10 -10 0 -10 0 0 10 0 10 10 0 10 0 0
-10z m-30 -24 l0 -5 -10 -6 -10 -6 0 10 0 11 10 0 10 0 0 -4z m30 0 l0 -5 -10
-6 -10 -6 0 10 0 11 10 0 10 0 0 -4z m110 -6 l0 -10 -10 0 -10 0 0 10 0 10 10
0 10 0 0 -10z m-70 -40 l0 -10 -10 0 -10 0 0 10 0 10 10 0 10 0 0 -10z m264
-49 l16 -18 -6 -18 -7 -18 16 6 16 6 7 -10 6 -11 -10 -10 -9 -9 -17 17 -17 16
-7 -7 -7 -8 14 -5 13 -4 -13 -9 -13 -8 7 -8 8 -7 7 10 7 10 23 1 22 2 14 -27
13 -27 -4 -12 -5 -13 13 0 12 0 -23 -20 -23 -20 6 -6 6 -6 16 16 16 16 6 0 5
0 -5 -15 -6 -14 9 -6 10 -6 0 -10 0 -10 -7 4 -8 5 -12 -13 -12 -14 12 -4 12
-4 -25 -21 -25 -21 17 -17 18 -18 7 8 7 7 -14 9 -14 9 21 19 22 19 -12 13 -12
13 15 -5 15 -5 -2 -22 -3 -22 8 5 9 5 -1 -99 -2 -99 -8 -8 -8 -8 7 24 7 24
-13 -8 -14 -8 13 14 12 13 0 9 0 8 -10 -6 -10 -6 6 14 5 15 -23 16 -23 17 15
9 15 9 -24 18 -25 18 -10 7 -11 7 22 16 22 15 -1 23 -2 22 -9 12 -9 12 -27 -3
-27 -3 0 17 0 17 28 -3 28 -4 1 8 1 7 2 22 3 21 -14 -5 -13 -5 0 10 0 10 13 5
12 4 -8 9 -8 8 -9 -14 -10 -15 0 -7 0 -7 15 -15 15 -15 -25 2 -26 2 -34 33
-34 34 2 21 2 22 17 24 17 24 18 -14 18 -14 -15 20 -15 20 -10 7 -10 8 11 0
11 0 17 -19z m-154 -21 l0 -10 -4 0 -5 0 -6 10 -6 10 10 0 11 0 0 -10z m70 0
l0 -10 -10 0 -10 0 0 10 0 10 10 0 10 0 0 -10z m-40 -40 l0 -10 -10 0 -10 0 0
10 0 10 10 0 10 0 0 -10z m0 -30 l0 -10 -11 0 -10 0 6 10 6 10 5 0 4 0 0 -10z
m40 -34 l0 -5 -10 -6 -10 -6 0 10 0 11 10 0 10 0 0 -4z m70 -76 l0 -10 -10 0
-10 0 0 10 0 10 10 0 10 0 0 -10z m0 -40 l0 -10 -4 0 -5 0 -6 10 -6 10 10 0
11 0 0 -10z m40 0 l0 -10 -10 0 -10 0 0 10 0 10 10 0 10 0 0 -10z m30 0 l0
-10 -10 0 -10 0 0 10 0 10 10 0 10 0 0 -10z m-70 -30 l0 -10 -4 0 -5 0 -6 10
-6 10 10 0 11 0 0 -10z m40 0 l0 -10 -10 0 -10 0 0 10 0 10 10 0 10 0 0 -10z
m30 0 l0 -10 -10 0 -10 0 0 10 0 10 10 0 10 0 0 -10z m-30 -40 l0 -10 -10 0
-10 0 0 10 0 10 10 0 10 0 0 -10z m0 -64 l0 -5 -10 -6 -10 -6 0 10 0 11 10 0
10 0 0 -4z m30 -6 l0 -10 -10 0 -10 0 0 10 0 10 10 0 10 0 0 -10z m40 -40 l0
-10 -10 0 -10 0 0 10 0 10 10 0 10 0 0 -10z m0 -70 l0 -10 -10 0 -10 0 0 10 0
10 10 0 10 0 0 -10z m0 -40 l0 -10 -10 0 -10 0 0 10 0 10 10 0 10 0 0 -10z m0
-30 l0 -10 -10 0 -10 0 0 10 0 10 10 0 10 0 0 -10z m4 -35 l-6 -15 -9 0 -9 0
0 9 0 9 13 5 12 5 2 1 2 1 -5 -15z"/>
<path d="M752 1223 l11 -14 14 5 13 5 24 -26 24 -26 17 16 16 17 -16 17 -17
16 -49 2 -49 2 12 -14z m85 -8 l15 -16 -5 -6 -6 -5 -16 15 -15 16 0 5 0 6 6 0
5 0 16 -15z"/>
<path d="M880 1199 l0 -10 10 6 10 6 0 5 0 4 -10 0 -10 0 0 -11z"/>
<path d="M951 1136 l9 -11 21 -25 20 -24 9 14 9 15 18 -18 18 -18 -11 -7 -12
-7 13 -12 14 -13 -2 26 -2 25 -33 33 -32 34 -24 0 -24 0 9 -12z m46 -11 l15
-16 -5 -6 -6 -5 -16 15 -15 16 0 5 0 6 6 0 5 0 16 -15z"/>
<path d="M1075 997 l-11 -12 -1 -22 -2 -22 15 -12 14 -12 7 7 7 7 -14 10 -15
9 14 9 13 9 -13 6 -14 6 13 6 12 6 0 9 0 9 -7 0 -8 -1 -10 -12z"/>
<path d="M1110 924 l-13 -15 16 -16 17 -17 7 8 7 7 -14 10 -15 11 13 5 12 5 0
9 0 9 -9 0 -9 0 -12 -16z"/>
<path d="M1190 820 l0 -10 10 0 10 0 0 10 0 10 -10 0 -10 0 0 -10z"/>
<path d="M1210 731 l0 -9 13 -5 12 -5 -15 -11 -15 -11 14 0 13 0 -12 -16 -13
-15 15 -15 15 -15 -2 48 -2 48 -2 8 -1 7 -10 0 -10 0 0 -9z"/>
</g>
</svg>
