<?xml version="1.0" standalone="no"?>
<!DOCTYPE svg PUBLIC "-//W3C//DTD SVG 20010904//EN"
 "http://www.w3.org/TR/2001/REC-SVG-20010904/DTD/svg10.dtd">
<svg version="1.0" xmlns="http://www.w3.org/2000/svg"
 width="468pt" height="468pt" viewBox="0 0 468 468"
 preserveAspectRatio="xMidYMid meet">
<metadata>
Created by potrace 1.8, written by Peter Selinger 2001-2007
</metadata>
<g transform="translate(0,468) scale(0.365625,-0.365625)"
fill="#000000" stroke="none">
<path d="M640 1225 l0 -55 -25 0 -25 0 0 -50 0 -50 -30 0 -30 0 0 -30 0 -30
-160 0 -160 0 0 -50 0 -50 -25 0 -25 0 0 -55 0 -55 -25 0 -25 0 0 -55 0 -55
-30 0 -30 0 0 -50 0 -50 -25 0 -25 0 0 -160 0 -160 215 0 215 0 0 -135 0 -135
185 0 185 0 0 25 0 25 25 0 25 0 0 55 0 55 30 0 30 0 0 25 0 25 25 0 25 0 0
30 0 30 80 0 80 0 0 80 0 80 25 0 25 0 0 50 0 50 30 0 30 0 0 55 0 55 25 0 25
0 0 185 0 185 -160 0 -160 0 0 135 0 135 -160 0 -160 0 0 -55z m270 -130 l0
-135 160 0 160 0 0 -55 0 -55 -55 0 -55 0 0 30 0 30 -25 0 -25 0 0 -30 0 -30
-80 0 -80 0 0 -80 0 -80 -30 0 -30 0 0 -25 0 -25 30 0 30 0 0 -160 0 -160 -55
0 -55 0 0 55 0 55 25 0 25 0 0 25 0 25 -25 0 -25 0 0 185 0 185 -160 0 -160 0
0 30 0 30 -25 0 -25 0 0 -30 0 -30 -55 0 -55 0 0 55 0 55 240 0 240 0 0 25 0
25 25 0 25 0 0 30 0 30 -25 0 -25 0 0 80 0 80 55 0 55 0 0 -135z m-220 -5 l0
-80 -50 0 -50 0 0 30 0 30 25 0 25 0 0 50 0 50 25 0 25 0 0 -80z m-420 -290
l0 -110 -30 0 -30 0 0 -50 0 -50 -25 0 -25 0 0 -55 0 -55 -25 0 -25 0 0 -55 0
-55 -30 0 -30 0 0 110 0 110 30 0 30 0 0 50 0 50 25 0 25 0 0 30 0 30 25 0 25
0 0 80 0 80 30 0 30 0 0 -110z m260 -105 l0 -55 30 0 30 0 0 55 0 55 50 0 50
0 0 -55 0 -55 -25 0 -25 0 0 -55 0 -55 25 0 25 0 0 -80 0 -80 -25 0 -25 0 0
-50 0 -50 55 0 55 0 0 -30 0 -30 25 0 25 0 0 30 0 30 25 0 25 0 0 -55 0 -55
-25 0 -25 0 0 -55 0 -55 -105 0 -105 0 0 55 0 55 -30 0 -30 0 0 -25 0 -25 -25
0 -25 0 0 50 0 50 25 0 25 0 0 55 0 55 -50 0 -50 0 0 55 0 55 -30 0 -30 0 0
-55 0 -55 -105 0 -105 0 0 55 0 55 25 0 25 0 0 50 0 50 30 0 30 0 0 55 0 55
25 0 25 0 0 55 0 55 105 0 105 0 0 -55z m700 0 l0 -55 -30 0 -30 0 0 -55 0
-55 -25 0 -25 0 0 -50 0 -50 -25 0 -25 0 0 -55 0 -55 -55 0 -55 0 0 160 0 160
25 0 25 0 0 55 0 55 110 0 110 0 0 -55z"/>
<path d="M480 585 l0 -55 -25 0 -25 0 0 -50 0 -50 25 0 25 0 0 50 0 50 25 0
25 0 0 55 0 55 -25 0 -25 0 0 -55z"/>
<path d="M320 560 l0 -30 25 0 25 0 0 30 0 30 -25 0 -25 0 0 -30z"/>
<path d="M590 480 l0 -50 -30 0 -30 0 0 -55 0 -55 30 0 30 0 0 55 0 55 25 0
25 0 0 50 0 50 -25 0 -25 0 0 -50z"/>
<path d="M590 215 l0 -55 25 0 25 0 0 55 0 55 -25 0 -25 0 0 -55z"/>
<path d="M690 135 l0 -25 30 0 30 0 0 25 0 25 -30 0 -30 0 0 -25z"/>
<path d="M1120 665 l0 -25 25 0 25 0 0 25 0 25 -25 0 -25 0 0 -25z"/>
</g>
</svg>
