<?xml version="1.0" standalone="no"?>
<!DOCTYPE svg PUBLIC "-//W3C//DTD SVG 20010904//EN"
 "http://www.w3.org/TR/2001/REC-SVG-20010904/DTD/svg10.dtd">
<svg version="1.0" xmlns="http://www.w3.org/2000/svg"
 width="468pt" height="468pt" viewBox="0 0 468 468"
 preserveAspectRatio="xMidYMid meet">
<metadata>
Created by potrace 1.8, written by Peter Selinger 2001-2007
</metadata>
<g transform="translate(0,468) scale(0.365625,-0.365625)"
fill="#000000" stroke="none">
<path d="M270 1270 l0 -10 10 0 10 0 0 10 0 10 -10 0 -10 0 0 -10z"/>
<path d="M430 1196 l0 -4 41 -42 41 -42 5 5 5 5 -42 41 -42 41 -4 0 -4 0 0 -4z"/>
<path d="M738 1193 l13 -5 6 6 6 6 -19 -1 -19 -1 13 -5z"/>
<path d="M842 1154 l-44 -46 -139 0 -140 0 -14 -14 -14 -14 -8 0 -9 0 -17 -20
-17 -20 0 -10 0 -10 -15 0 -15 0 0 -15 0 -15 10 0 10 0 0 -15 0 -15 15 0 15 0
0 6 0 7 -17 13 -18 13 10 8 10 8 168 -3 167 -3 0 -8 0 -9 -26 -6 -26 -7 -14
-14 -14 -14 0 -4 0 -5 26 -6 26 -7 15 -14 14 -15 30 0 29 0 0 -10 0 -10 -39 0
-39 0 -19 -6 -18 -6 15 11 15 11 -15 10 -15 10 -12 0 -11 0 -5 13 -4 12 -174
1 -174 1 13 -4 12 -5 0 -8 0 -9 -35 -7 -35 -6 0 -8 0 -8 8 -5 7 -4 -13 4 -14
3 -14 0 -14 0 0 9 0 10 18 4 17 5 -107 1 -106 1 -5 13 -5 12 -9 -11 -8 -10
-18 -7 -19 -7 4 -13 5 -12 31 -3 32 -3 0 -8 0 -8 52 -5 52 -5 4 -11 3 -11 35
-7 34 -6 0 -8 0 -8 85 -7 85 -7 0 -9 0 -9 215 0 215 0 0 9 0 8 97 7 97 7 6 8
5 8 33 8 32 7 0 9 0 9 40 6 40 7 0 8 0 9 18 0 17 0 14 9 13 9 -21 21 -20 20
-24 6 -24 6 -16 -15 -16 -16 -10 0 -11 0 0 10 0 10 25 6 25 6 0 9 0 9 -20 0
-21 0 -23 -25 -23 -25 -17 0 -16 0 0 9 0 9 27 7 28 7 7 11 8 12 0 8 0 7 -14 0
-15 0 -6 -19 -6 -20 -29 -6 -30 -7 0 -9 0 -9 -125 0 -125 0 0 9 0 9 -30 7 -30
7 0 5 0 4 14 15 15 14 30 6 31 7 0 8 0 9 15 0 15 0 0 -10 0 -10 15 0 15 0 0
10 0 10 16 0 16 0 -5 -14 -6 -15 15 6 14 5 0 9 0 9 -24 6 -24 6 -6 24 -6 24
-24 6 -25 6 -5 14 -5 13 45 46 46 45 -9 0 -8 0 -43 -46z m-82 -63 l0 -8 40 -6
39 -5 14 -14 13 -13 7 -17 6 -17 -14 5 -13 6 -6 14 -5 14 -16 0 -15 0 0 10 0
10 -15 0 -15 0 0 -10 0 -11 15 -5 15 -6 0 -9 0 -9 -55 0 -55 0 0 10 0 10 13 1
12 1 14 -1 13 -2 -13 14 -14 15 -7 -12 -7 -11 -14 18 -13 19 -34 -4 -33 -3 -5
-12 -4 -13 19 -1 18 -1 -17 -5 -18 -4 0 -10 0 -9 -54 0 -55 0 -6 20 -6 20 6
10 6 10 30 0 29 0 0 10 0 10 100 0 100 0 0 -9z m-73 -47 l-6 -6 -13 5 -13 5
19 1 19 1 -6 -6z m-227 -124 l0 -10 -10 0 -10 0 0 10 0 10 10 0 10 0 0 -10z
m60 0 l0 -10 -15 0 -15 0 0 10 0 10 15 0 15 0 0 -10z m70 0 l0 -10 -15 0 -15
0 0 10 0 10 15 0 15 0 0 -10z m50 1 l0 -9 25 -6 25 -6 0 -10 0 -10 -21 0 -20
0 -15 14 -14 15 0 10 0 11 10 0 10 0 0 -9z m580 -1 l0 -10 -10 0 -10 0 0 10 0
10 10 0 10 0 0 -10z m-770 -20 l14 -9 -7 -8 -8 -7 -9 14 -10 15 0 -12 0 -13
-25 0 -25 0 0 9 0 10 18 4 17 5 10 1 10 1 15 -10z m-400 -10 l0 -10 -10 0 -10
0 0 10 0 10 10 0 10 0 0 -10z m30 0 l0 -10 -10 0 -10 0 0 10 0 10 10 0 10 0 0
-10z m40 0 l0 -10 -15 0 -15 0 0 10 0 10 15 0 15 0 0 -10z m60 0 l0 -10 -20 0
-20 0 0 10 0 10 20 0 20 0 0 -10z m60 0 l0 -10 -20 0 -20 0 0 10 0 10 20 0 20
0 0 -10z m250 0 l0 -10 -10 0 -10 0 0 10 0 10 10 0 10 0 0 -10z m30 0 l0 -10
-10 0 -10 0 0 10 0 10 10 0 10 0 0 -10z m30 0 l0 -10 -10 0 -10 0 0 10 0 10
10 0 10 0 0 -10z m30 0 l0 -10 -10 0 -10 0 0 10 0 10 10 0 10 0 0 -10z m30 0
l0 -10 -10 0 -10 0 0 10 0 10 10 0 10 0 0 -10z m330 0 l0 -10 -45 0 -45 0 0
10 0 10 45 0 45 0 0 -10z m100 0 l0 -10 -40 0 -40 0 0 10 0 10 40 0 40 0 0
-10z m70 0 l0 -10 -30 0 -30 0 0 10 0 10 30 0 30 0 0 -10z m60 0 l0 -10 -20 0
-20 0 0 10 0 10 20 0 20 0 0 -10z m50 0 l0 -10 -15 0 -15 0 0 10 0 10 15 0 15
0 0 -10z m40 0 l0 -10 -15 0 -15 0 0 10 0 10 15 0 15 0 0 -10z m-570 -30 l0
-10 -160 0 -160 0 0 10 0 10 160 0 160 0 0 -10z m30 0 l0 -10 -10 0 -10 0 0
10 0 10 10 0 10 0 0 -10z m-446 -16 l16 -6 0 -9 0 -9 -11 0 -10 0 -15 15 -15
15 9 0 10 0 16 -6z m552 -9 l-15 -15 -15 0 -16 0 0 8 0 9 7 6 6 7 24 0 24 0
-15 -15z m74 -4 l0 -9 -16 -6 -16 -6 -9 0 -10 0 13 15 13 14 13 1 12 0 0 -9z
m60 0 l0 -9 -14 -5 -15 -6 6 15 5 14 9 0 9 0 0 -9z m55 -10 l-6 -11 -10 0 -10
0 13 14 13 14 4 -3 3 -4 -7 -10z m55 9 l0 -10 -10 0 -10 0 0 10 0 10 10 0 10
0 0 -10z"/>
<path d="M573 1055 l-11 -12 25 0 25 0 -8 6 -9 6 -5 7 -5 6 -12 -13z"/>
<path d="M290 1180 l0 -10 15 0 15 0 0 10 0 10 -15 0 -15 0 0 -10z"/>
<path d="M1080 1150 l0 -10 10 0 10 0 0 10 0 10 -10 0 -10 0 0 -10z"/>
<path d="M1200 1090 l0 -10 10 0 10 0 0 10 0 10 -10 0 -10 0 0 -10z"/>
<path d="M320 1001 l0 -8 -70 -7 -70 -7 0 -10 0 -9 -20 0 -20 0 0 -10 0 -10
20 0 20 0 0 10 0 10 30 0 30 0 0 9 0 9 80 7 80 7 0 9 0 9 -40 0 -40 0 0 -9z"/>
<path d="M940 994 l0 -15 19 6 20 6 10 -18 9 -18 7 7 7 6 -21 21 -21 21 -15 0
-15 0 0 -16z"/>
<path d="M990 1000 l0 -10 9 0 9 0 19 -7 18 -7 -17 17 -17 17 -10 0 -11 0 0
-10z"/>
<path d="M1064 975 l15 -15 10 0 11 0 0 9 0 9 -16 6 -16 6 -10 0 -9 0 15 -15z"/>
<path d="M960 950 l0 -10 10 0 10 0 0 10 0 10 -10 0 -10 0 0 -10z"/>
<path d="M98 933 l13 -5 6 6 6 6 -19 -1 -19 -1 13 -5z"/>
<path d="M300 920 l0 -10 20 0 20 0 0 10 0 10 -20 0 -20 0 0 -10z"/>
<path d="M1260 740 l0 -10 10 0 10 0 0 10 0 10 -10 0 -10 0 0 -10z"/>
<path d="M90 680 l0 -10 15 0 15 0 0 10 0 10 -15 0 -15 0 0 -10z"/>
<path d="M210 630 l0 -10 10 0 10 0 0 10 0 10 -10 0 -10 0 0 -10z"/>
<path d="M900 600 l0 -10 15 0 15 0 0 10 0 10 -15 0 -15 0 0 -10z"/>
<path d="M691 573 l-1 -13 -345 0 -345 0 0 -280 0 -280 640 0 640 0 0 280 0
280 -289 0 -289 0 -5 13 -5 12 -1 -12z"/>
</g>
</svg>
