<?xml version="1.0" standalone="no"?>
<!DOCTYPE svg PUBLIC "-//W3C//DTD SVG 20010904//EN"
 "http://www.w3.org/TR/2001/REC-SVG-20010904/DTD/svg10.dtd">
<svg version="1.0" xmlns="http://www.w3.org/2000/svg"
 width="468pt" height="468pt" viewBox="0 0 468 468"
 preserveAspectRatio="xMidYMid meet">
<metadata>
Created by potrace 1.8, written by Peter Selinger 2001-2007
</metadata>
<g transform="translate(0,468) scale(0.365625,-0.365625)"
fill="#000000" stroke="none">
<path d="M1240 1220 l0 -20 -40 0 -40 0 0 -20 0 -20 -20 0 -20 0 0 20 0 20
-20 0 -20 0 0 -20 0 -20 -20 0 -20 0 0 -40 0 -40 20 0 20 0 0 -20 0 -20 -20 0
-20 0 0 -20 0 -20 -20 0 -20 0 0 -40 0 -40 20 0 20 0 0 40 0 40 20 0 20 0 0
-20 0 -20 40 0 40 0 0 -20 0 -20 20 0 20 0 0 20 0 20 40 0 40 0 0 20 0 20 -20
0 -20 0 0 20 0 20 -20 0 -20 0 0 20 0 20 40 0 40 0 0 20 0 20 -60 0 -60 0 0
20 0 20 40 0 40 0 0 20 0 20 20 0 20 0 0 20 0 20 -20 0 -20 0 0 -20z m-120
-80 l0 -20 20 0 20 0 0 -20 0 -20 -40 0 -40 0 0 40 0 40 20 0 20 0 0 -20z m80
-140 l0 -40 -20 0 -20 0 0 20 0 20 -40 0 -40 0 0 20 0 20 60 0 60 0 0 -40z"/>
<path d="M960 1140 l0 -20 -20 0 -20 0 0 -20 0 -20 -20 0 -20 0 0 20 0 20 -40
0 -40 0 0 -20 0 -20 40 0 40 0 0 -20 0 -20 -20 0 -20 0 0 -20 0 -20 40 0 40 0
0 -40 0 -40 -20 0 -20 0 0 20 0 20 -20 0 -20 0 0 -40 0 -40 -20 0 -20 0 0 20
0 20 -20 0 -20 0 0 20 0 20 20 0 20 0 0 20 0 20 -20 0 -20 0 0 40 0 40 -40 0
-40 0 0 -20 0 -20 20 0 20 0 0 -60 0 -60 -20 0 -20 0 0 -20 0 -20 20 0 20 0 0
20 0 20 20 0 20 0 0 -20 0 -20 20 0 20 0 0 -20 0 -20 40 0 40 0 0 -20 0 -20
20 0 20 0 0 20 0 20 -20 0 -20 0 0 20 0 20 20 0 20 0 0 20 0 20 20 0 20 0 0
40 0 40 -20 0 -20 0 0 40 0 40 20 0 20 0 0 20 0 20 20 0 20 0 0 20 0 20 -20 0
-20 0 0 -20z"/>
<path d="M360 1060 l0 -20 -20 0 -20 0 0 -60 0 -60 20 0 20 0 0 -20 0 -20 -20
0 -20 0 0 -20 0 -20 -40 0 -40 0 0 -20 0 -20 -20 0 -20 0 0 -20 0 -20 -20 0
-20 0 0 -220 0 -220 -60 0 -60 0 0 20 0 20 20 0 20 0 0 20 0 20 -40 0 -40 0 0
-40 0 -40 20 0 20 0 0 -20 0 -20 -20 0 -20 0 0 -20 0 -20 60 0 60 0 0 -20 0
-20 -20 0 -20 0 0 -20 0 -20 -40 0 -40 0 0 -40 0 -40 20 0 20 0 0 -20 0 -20
-20 0 -20 0 0 -20 0 -20 60 0 60 0 0 20 0 20 20 0 20 0 0 20 0 20 40 0 40 0 0
-20 0 -20 -20 0 -20 0 0 -20 0 -20 60 0 60 0 0 20 0 20 20 0 20 0 0 20 0 20
60 0 60 0 0 -20 0 -20 -20 0 -20 0 0 -20 0 -20 60 0 60 0 0 20 0 20 20 0 20 0
0 20 0 20 60 0 60 0 0 -20 0 -20 -20 0 -20 0 0 -20 0 -20 60 0 60 0 0 20 0 20
20 0 20 0 0 20 0 20 60 0 60 0 0 -20 0 -20 -20 0 -20 0 0 -20 0 -20 60 0 60 0
0 20 0 20 20 0 20 0 0 20 0 20 60 0 60 0 0 -20 0 -20 -20 0 -20 0 0 -20 0 -20
60 0 60 0 0 40 0 40 -40 0 -40 0 0 20 0 20 20 0 20 0 0 20 0 20 20 0 20 0 0
20 0 20 -20 0 -20 0 0 -20 0 -20 -60 0 -60 0 0 20 0 20 20 0 20 0 0 20 0 20
60 0 60 0 0 40 0 40 -40 0 -40 0 0 20 0 20 20 0 20 0 0 20 0 20 -60 0 -60 0 0
-20 0 -20 -20 0 -20 0 0 -20 0 -20 -60 0 -60 0 0 20 0 20 20 0 20 0 0 20 0 20
-60 0 -60 0 0 -20 0 -20 -20 0 -20 0 0 -20 0 -20 -60 0 -60 0 0 20 0 20 20 0
20 0 0 20 0 20 -60 0 -60 0 0 180 0 180 -20 0 -20 0 0 20 0 20 -20 0 -20 0 0
20 0 20 -40 0 -40 0 0 20 0 20 -20 0 -20 0 0 20 0 20 20 0 20 0 0 20 0 20 20
0 20 0 0 20 0 20 -20 0 -20 0 0 20 0 20 -20 0 -20 0 0 20 0 20 -40 0 -40 0 0
-20z m80 -100 l0 -40 -40 0 -40 0 0 40 0 40 40 0 40 0 0 -40z m0 -140 l0 -20
40 0 40 0 0 -20 0 -20 40 0 40 0 0 -20 0 -20 -40 0 -40 0 0 -20 0 -20 40 0 40
0 0 -260 0 -260 20 0 20 0 0 20 0 20 20 0 20 0 0 20 0 20 -20 0 -20 0 0 40 0
40 40 0 40 0 0 -20 0 -20 -20 0 -20 0 0 -20 0 -20 60 0 60 0 0 20 0 20 20 0
20 0 0 20 0 20 60 0 60 0 0 -20 0 -20 -20 0 -20 0 0 -20 0 -20 60 0 60 0 0 20
0 20 20 0 20 0 0 20 0 20 60 0 60 0 0 -20 0 -20 -20 0 -20 0 0 -20 0 -20 -60
0 -60 0 0 -20 0 -20 -20 0 -20 0 0 -20 0 -20 60 0 60 0 0 -20 0 -20 -20 0 -20
0 0 -20 0 -20 -60 0 -60 0 0 20 0 20 20 0 20 0 0 20 0 20 -60 0 -60 0 0 -20 0
-20 -20 0 -20 0 0 -20 0 -20 -60 0 -60 0 0 20 0 20 20 0 20 0 0 20 0 20 -60 0
-60 0 0 -20 0 -20 -20 0 -20 0 0 -20 0 -20 -40 0 -40 0 0 20 0 20 -40 0 -40 0
0 20 0 20 -20 0 -20 0 0 -20 0 -20 -20 0 -20 0 0 20 0 20 -20 0 -20 0 0 -20 0
-20 -20 0 -20 0 0 -20 0 -20 -20 0 -20 0 0 20 0 20 20 0 20 0 0 20 0 20 -20 0
-20 0 0 20 0 20 -20 0 -20 0 0 20 0 20 20 0 20 0 0 20 0 20 -20 0 -20 0 0 20
0 20 20 0 20 0 0 20 0 20 -20 0 -20 0 0 20 0 20 20 0 20 0 0 20 0 20 -20 0
-20 0 0 20 0 20 20 0 20 0 0 20 0 20 -20 0 -20 0 0 20 0 20 20 0 20 0 0 20 0
20 -20 0 -20 0 0 20 0 20 20 0 20 0 0 20 0 20 20 0 20 0 0 60 0 60 40 0 40 0
0 20 0 20 40 0 40 0 0 -20z m-200 -80 l0 -20 -20 0 -20 0 0 20 0 20 20 0 20 0
0 -20z m-80 -480 l0 -20 -20 0 -20 0 0 20 0 20 20 0 20 0 0 -20z m40 -120 l0
-20 -20 0 -20 0 0 -20 0 -20 -60 0 -60 0 0 20 0 20 20 0 20 0 0 20 0 20 60 0
60 0 0 -20z"/>
<path d="M280 660 l0 -20 -20 0 -20 0 0 -20 0 -20 20 0 20 0 0 -20 0 -20 -20
0 -20 0 0 -20 0 -20 20 0 20 0 0 -20 0 -20 -20 0 -20 0 0 -20 0 -20 20 0 20 0
0 -20 0 -20 -20 0 -20 0 0 -20 0 -20 20 0 20 0 0 -20 0 -20 -20 0 -20 0 0 -20
0 -20 20 0 20 0 0 -20 0 -20 -20 0 -20 0 0 -20 0 -20 20 0 20 0 0 -20 0 -20
20 0 20 0 0 20 0 20 20 0 20 0 0 -20 0 -20 20 0 20 0 0 20 0 20 -20 0 -20 0 0
20 0 20 20 0 20 0 0 20 0 20 -20 0 -20 0 0 20 0 20 -20 0 -20 0 0 20 0 20 20
0 20 0 0 20 0 20 -20 0 -20 0 0 20 0 20 20 0 20 0 0 20 0 20 -20 0 -20 0 0 20
0 20 -20 0 -20 0 0 20 0 20 20 0 20 0 0 20 0 20 -20 0 -20 0 0 20 0 20 120 0
120 0 0 20 0 20 -120 0 -120 0 0 -20z m40 -200 l0 -20 -20 0 -20 0 0 20 0 20
20 0 20 0 0 -20z m0 -80 l0 -20 -20 0 -20 0 0 20 0 20 20 0 20 0 0 -20z m0
-80 l0 -20 20 0 20 0 0 -20 0 -20 -20 0 -20 0 0 -20 0 -20 -20 0 -20 0 0 20 0
20 20 0 20 0 0 20 0 20 -20 0 -20 0 0 20 0 20 20 0 20 0 0 -20z"/>
<path d="M800 220 l0 -20 -20 0 -20 0 0 -20 0 -20 60 0 60 0 0 20 0 20 20 0
20 0 0 20 0 20 -60 0 -60 0 0 -20z"/>
<path d="M520 140 l0 -20 40 0 40 0 0 20 0 20 -40 0 -40 0 0 -20z"/>
<path d="M600 1020 l0 -20 -20 0 -20 0 0 -20 0 -20 20 0 20 0 0 -20 0 -20 20
0 20 0 0 20 0 20 -20 0 -20 0 0 20 0 20 20 0 20 0 0 20 0 20 -20 0 -20 0 0
-20z"/>
<path d="M1080 880 l0 -40 20 0 20 0 0 -20 0 -20 -20 0 -20 0 0 -20 0 -20 20
0 20 0 0 20 0 20 20 0 20 0 0 20 0 20 -20 0 -20 0 0 40 0 40 -20 0 -20 0 0
-40z"/>
<path d="M1000 860 l0 -20 20 0 20 0 0 20 0 20 -20 0 -20 0 0 -20z"/>
<path d="M1200 860 l0 -20 40 0 40 0 0 20 0 20 -40 0 -40 0 0 -20z"/>
<path d="M1000 780 l0 -20 20 0 20 0 0 20 0 20 -20 0 -20 0 0 -20z"/>
<path d="M1200 780 l0 -20 -20 0 -20 0 0 -20 0 -20 20 0 20 0 0 -20 0 -20 40
0 40 0 0 20 0 20 -40 0 -40 0 0 20 0 20 40 0 40 0 0 20 0 20 -40 0 -40 0 0
-20z"/>
</g>
</svg>
