<?xml version="1.0" standalone="no"?>
<!DOCTYPE svg PUBLIC "-//W3C//DTD SVG 20010904//EN"
 "http://www.w3.org/TR/2001/REC-SVG-20010904/DTD/svg10.dtd">
<svg version="1.0" xmlns="http://www.w3.org/2000/svg"
 width="468pt" height="468pt" viewBox="0 0 468 468"
 preserveAspectRatio="xMidYMid meet">
<metadata>
Created by potrace 1.8, written by Peter Selinger 2001-2007
</metadata>
<g transform="translate(0,468) scale(0.365625,-0.365625)"
fill="#000000" stroke="none">
<path d="M0 1260 l0 -20 20 0 20 0 0 -25 0 -25 25 0 25 0 0 -20 0 -20 20 0 20
0 0 -110 0 -110 65 0 65 0 0 -25 0 -25 -20 0 -20 0 0 -20 0 -20 -45 0 -45 0 0
-25 0 -25 -20 0 -20 0 0 -65 0 -65 20 0 20 0 0 -20 0 -20 65 0 65 0 0 -65 0
-65 25 0 25 0 0 -25 0 -25 20 0 20 0 0 -20 0 -20 25 0 25 0 0 -25 0 -25 45 0
45 0 0 -20 0 -20 20 0 20 0 0 -25 0 -25 20 0 20 0 0 -20 0 -20 45 0 45 0 0
-20 0 -20 -45 0 -45 0 0 -25 0 -25 -285 0 -285 0 0 -65 0 -65 640 0 640 0 0
65 0 65 -200 0 -200 0 0 25 0 25 -65 0 -65 0 0 20 0 20 -20 0 -20 0 0 20 0 20
-25 0 -25 0 0 25 0 25 -20 0 -20 0 0 20 0 20 -25 0 -25 0 0 25 0 25 -20 0 -20
0 0 20 0 20 -20 0 -20 0 0 65 0 65 85 0 85 0 0 -20 0 -20 25 0 25 0 0 20 0 20
65 0 65 0 0 -20 0 -20 -25 0 -25 0 0 -20 0 -20 25 0 25 0 0 -25 0 -25 130 0
130 0 0 25 0 25 -20 0 -20 0 0 20 0 20 -20 0 -20 0 0 20 0 20 -45 0 -45 0 0
25 0 25 -90 0 -90 0 0 20 0 20 -20 0 -20 0 0 25 0 25 -45 0 -45 0 0 20 0 20
20 0 20 0 0 20 0 20 25 0 25 0 0 25 0 25 20 0 20 0 0 -25 0 -25 175 0 175 0 0
25 0 25 45 0 45 0 0 20 0 20 25 0 25 0 0 70 0 70 -25 0 -25 0 0 20 0 20 -20 0
-20 0 0 20 0 20 -25 0 -25 0 0 25 0 25 -20 0 -20 0 0 20 0 20 -20 0 -20 0 0
25 0 25 -25 0 -25 0 0 20 0 20 -485 0 -485 0 0 -20z m970 -45 l0 -25 -65 0
-65 0 0 -20 0 -20 20 0 20 0 0 -25 0 -25 25 0 25 0 0 -20 0 -20 110 0 110 0 0
-20 0 -20 20 0 20 0 0 -70 0 -70 -45 0 -45 0 0 -20 0 -20 -40 0 -40 0 0 20 0
20 -25 0 -25 0 0 -20 0 -20 -45 0 -45 0 0 20 0 20 -20 0 -20 0 0 -20 0 -20
-45 0 -45 0 0 20 0 20 -20 0 -20 0 0 25 0 25 20 0 20 0 0 45 0 45 -20 0 -20 0
0 20 0 20 -25 0 -25 0 0 20 0 20 -45 0 -45 0 0 -65 0 -65 45 0 45 0 0 -45 0
-45 -45 0 -45 0 0 25 0 25 -20 0 -20 0 0 -45 0 -45 -65 0 -65 0 0 -25 0 -25
-25 0 -25 0 0 -20 0 -20 -20 0 -20 0 0 20 0 20 -25 0 -25 0 0 -65 0 -65 25 0
25 0 0 -20 0 -20 -25 0 -25 0 0 20 0 20 -20 0 -20 0 0 25 0 25 -20 0 -20 0 0
-25 0 -25 -25 0 -25 0 0 65 0 65 65 0 65 0 0 25 0 25 45 0 45 0 0 20 0 20 25
0 25 0 0 25 0 25 20 0 20 0 0 45 0 45 25 0 25 0 0 -45 0 -45 20 0 20 0 0 85 0
85 20 0 20 0 0 25 0 25 -40 0 -40 0 0 -45 0 -45 -25 0 -25 0 0 20 0 20 -20 0
-20 0 0 25 0 25 -70 0 -70 0 0 20 0 20 -85 0 -85 0 0 25 0 25 440 0 440 0 0
-25z m-750 -90 l0 -25 -20 0 -20 0 0 25 0 25 20 0 20 0 0 -25z m90 -45 l0 -20
-25 0 -25 0 0 20 0 20 25 0 25 0 0 -20z m-90 -65 l0 -45 -20 0 -20 0 0 45 0
45 20 0 20 0 0 -45z m180 25 l0 -20 -25 0 -25 0 0 20 0 20 25 0 25 0 0 -20z
m-50 -90 l0 -20 -45 0 -45 0 0 20 0 20 45 0 45 0 0 -20z m180 -265 l0 -25 90
0 90 0 0 -45 0 -45 -25 0 -25 0 0 25 0 25 -110 0 -110 0 0 20 0 20 -45 0 -45
0 0 25 0 25 90 0 90 0 0 -25z m490 -175 l0 -20 -90 0 -90 0 0 20 0 20 90 0 90
0 0 -20z"/>
<path d="M570 1170 l0 -20 90 0 90 0 0 -45 0 -45 20 0 20 0 0 -65 0 -65 -20 0
-20 0 0 -25 0 -25 20 0 20 0 0 25 0 25 25 0 25 0 0 85 0 85 -25 0 -25 0 0 25
0 25 -20 0 -20 0 0 20 0 20 -90 0 -90 0 0 -20z"/>
<path d="M880 995 l0 -25 25 0 25 0 0 25 0 25 -25 0 -25 0 0 -25z"/>
<path d="M1020 950 l0 -20 20 0 20 0 0 20 0 20 -20 0 -20 0 0 -20z"/>
</g>
</svg>
