<?xml version="1.0" standalone="no"?>
<!DOCTYPE svg PUBLIC "-//W3C//DTD SVG 20010904//EN"
 "http://www.w3.org/TR/2001/REC-SVG-20010904/DTD/svg10.dtd">
<svg version="1.0" xmlns="http://www.w3.org/2000/svg"
 width="468pt" height="468pt" viewBox="0 0 468 468"
 preserveAspectRatio="xMidYMid meet">
<metadata>
Created by potrace 1.8, written by Peter Selinger 2001-2007
</metadata>
<g transform="translate(0,468) scale(0.365625,-0.365625)"
fill="#000000" stroke="none">
<path d="M0 1245 l0 -35 50 0 50 0 0 -15 0 -15 -50 0 -50 0 0 -35 0 -35 15 0
15 0 0 -20 0 -20 -15 0 -15 0 0 -85 0 -85 35 0 35 0 0 -20 0 -20 -35 0 -35 0
0 -15 0 -15 15 0 15 0 0 -50 0 -50 -15 0 -15 0 0 -20 0 -20 50 0 50 0 0 -15 0
-15 -50 0 -50 0 0 -155 0 -155 15 0 15 0 0 -20 0 -20 -15 0 -15 0 0 -15 0 -15
15 0 15 0 0 -55 0 -55 -15 0 -15 0 0 -15 0 -15 35 0 35 0 0 -20 0 -20 -35 0
-35 0 0 -50 0 -50 15 0 15 0 0 35 0 35 20 0 20 0 0 -35 0 -35 85 0 85 0 0 50
0 50 20 0 20 0 0 -50 0 -50 35 0 35 0 0 15 0 15 15 0 15 0 0 -15 0 -15 85 0
85 0 0 35 0 35 20 0 20 0 0 -35 0 -35 15 0 15 0 0 15 0 15 55 0 55 0 0 -15 0
-15 15 0 15 0 0 50 0 50 20 0 20 0 0 -50 0 -50 155 0 155 0 0 15 0 15 15 0 15
0 0 -15 0 -15 20 0 20 0 0 15 0 15 50 0 50 0 0 35 0 35 -15 0 -15 0 0 20 0 20
15 0 15 0 0 85 0 85 -35 0 -35 0 0 20 0 20 35 0 35 0 0 15 0 15 -15 0 -15 0 0
50 0 50 15 0 15 0 0 20 0 20 -50 0 -50 0 0 15 0 15 50 0 50 0 0 155 0 155 -15
0 -15 0 0 20 0 20 15 0 15 0 0 15 0 15 -15 0 -15 0 0 55 0 55 15 0 15 0 0 15
0 15 -35 0 -35 0 0 20 0 20 35 0 35 0 0 85 0 85 -70 0 -70 0 0 -35 0 -35 -15
0 -15 0 0 35 0 35 -20 0 -20 0 0 -15 0 -15 -50 0 -50 0 0 15 0 15 -20 0 -20 0
0 -50 0 -50 -15 0 -15 0 0 50 0 50 -155 0 -155 0 0 -15 0 -15 -20 0 -20 0 0
15 0 15 -15 0 -15 0 0 -15 0 -15 -50 0 -50 0 0 15 0 15 -20 0 -20 0 0 -35 0
-35 -15 0 -15 0 0 35 0 35 -90 0 -90 0 0 -50 0 -50 -15 0 -15 0 0 50 0 50 -35
0 -35 0 0 -15 0 -15 -20 0 -20 0 0 15 0 15 -15 0 -15 0 0 -35z m310 -15 l0
-20 -50 0 -50 0 0 20 0 20 50 0 50 0 0 -20z m420 -35 l0 -55 -20 0 -20 0 0 55
0 55 20 0 20 0 0 -55z m130 35 l0 -20 -50 0 -50 0 0 20 0 20 50 0 50 0 0 -20z
m390 -35 l0 -55 -20 0 -20 0 0 55 0 55 20 0 20 0 0 -55z m-730 -35 l0 -50 -20
0 -20 0 0 50 0 50 20 0 20 0 0 -50z m140 35 l0 -15 -55 0 -55 0 0 15 0 15 55
0 55 0 0 -15z m380 -35 l0 -50 -20 0 -20 0 0 50 0 50 20 0 20 0 0 -50z m-730
-35 l0 -55 -15 0 -15 0 0 55 0 55 15 0 15 0 0 -55z m140 35 l0 -20 -50 0 -50
0 0 20 0 20 50 0 50 0 0 -20z m380 -35 l0 -55 -15 0 -15 0 0 55 0 55 15 0 15
0 0 -55z m350 35 l0 -20 -55 0 -55 0 0 20 0 20 55 0 55 0 0 -20z m-1080 -70
l0 -50 -15 0 -15 0 0 50 0 50 15 0 15 0 0 -50z m140 35 l0 -15 -50 0 -50 0 0
15 0 15 50 0 50 0 0 -15z m380 -35 l0 -50 -15 0 -15 0 0 50 0 50 15 0 15 0 0
-50z m350 35 l0 -15 -55 0 -55 0 0 15 0 15 55 0 55 0 0 -15z m-550 -70 l0 -55
-20 0 -20 0 0 55 0 55 20 0 20 0 0 -55z m340 35 l0 -20 -50 0 -50 0 0 20 0 20
50 0 50 0 0 -20z m420 -35 l0 -55 -20 0 -20 0 0 55 0 55 20 0 20 0 0 -55z
m-970 -35 l0 -50 -20 0 -20 0 0 50 0 50 20 0 20 0 0 -50z m340 35 l0 -15 -50
0 -50 0 0 15 0 15 50 0 50 0 0 -15z m420 -35 l0 -50 -20 0 -20 0 0 50 0 50 20
0 20 0 0 -50z m140 35 l0 -15 -55 0 -55 0 0 15 0 15 55 0 55 0 0 -15z m-760
-35 l0 -20 -55 0 -55 0 0 20 0 20 55 0 55 0 0 -20z m410 -35 l0 -55 -15 0 -15
0 0 55 0 55 15 0 15 0 0 -55z m140 35 l0 -20 -50 0 -50 0 0 20 0 20 50 0 50 0
0 -20z m-760 -35 l0 -15 -55 0 -55 0 0 15 0 15 55 0 55 0 0 -15z m410 -35 l0
-50 -15 0 -15 0 0 50 0 50 15 0 15 0 0 -50z m140 35 l0 -15 -50 0 -50 0 0 15
0 15 50 0 50 0 0 -15z m380 -35 l0 -50 -15 0 -15 0 0 50 0 50 15 0 15 0 0 -50z
m-720 -35 l0 -55 -20 0 -20 0 0 55 0 55 20 0 20 0 0 -55z m130 35 l0 -20 -50
0 -50 0 0 20 0 20 50 0 50 0 0 -20z m380 -35 l0 -55 -15 0 -15 0 0 55 0 55 15
0 15 0 0 -55z m350 35 l0 -20 -50 0 -50 0 0 20 0 20 50 0 50 0 0 -20z m-1070
-70 l0 -50 -20 0 -20 0 0 50 0 50 20 0 20 0 0 -50z m140 35 l0 -15 -55 0 -55
0 0 15 0 15 55 0 55 0 0 -15z m380 -35 l0 -50 -20 0 -20 0 0 50 0 50 20 0 20
0 0 -50z m340 35 l0 -15 -50 0 -50 0 0 15 0 15 50 0 50 0 0 -15z m-550 -65 l0
-50 -15 0 -15 0 0 50 0 50 15 0 15 0 0 -50z m350 30 l0 -20 -55 0 -55 0 0 20
0 20 55 0 55 0 0 -20z m410 -30 l0 -50 -15 0 -15 0 0 50 0 50 15 0 15 0 0 -50z
m-970 -40 l0 -50 -15 0 -15 0 0 50 0 50 15 0 15 0 0 -50z m350 35 l0 -15 -55
0 -55 0 0 15 0 15 55 0 55 0 0 -15z m410 -35 l0 -50 -15 0 -15 0 0 50 0 50 15
0 15 0 0 -50z m140 35 l0 -15 -50 0 -50 0 0 15 0 15 50 0 50 0 0 -15z m-760
-30 l0 -15 -50 0 -50 0 0 15 0 15 50 0 50 0 0 -15z m420 -35 l0 -50 -20 0 -20
0 0 50 0 50 20 0 20 0 0 -50z m130 35 l0 -15 -50 0 -50 0 0 15 0 15 50 0 50 0
0 -15z m-760 -35 l0 -20 -50 0 -50 0 0 20 0 20 50 0 50 0 0 -20z m420 -35 l0
-55 -20 0 -20 0 0 55 0 55 20 0 20 0 0 -55z m140 35 l0 -20 -55 0 -55 0 0 20
0 20 55 0 55 0 0 -20z m380 -35 l0 -55 -20 0 -20 0 0 55 0 55 20 0 20 0 0 -55z
m-730 -35 l0 -50 -15 0 -15 0 0 50 0 50 15 0 15 0 0 -50z m140 35 l0 -15 -50
0 -50 0 0 15 0 15 50 0 50 0 0 -15z m380 -35 l0 -50 -20 0 -20 0 0 50 0 50 20
0 20 0 0 -50z m350 35 l0 -15 -55 0 -55 0 0 15 0 15 55 0 55 0 0 -15z m-1080
-70 l0 -55 -15 0 -15 0 0 55 0 55 15 0 15 0 0 -55z m140 35 l0 -20 -50 0 -50
0 0 20 0 20 50 0 50 0 0 -20z m380 -35 l0 -55 -15 0 -15 0 0 55 0 55 15 0 15
0 0 -55z m350 35 l0 -20 -55 0 -55 0 0 20 0 20 55 0 55 0 0 -20z m-560 -70 l0
-50 -15 0 -15 0 0 50 0 50 15 0 15 0 0 -50z m350 35 l0 -15 -50 0 -50 0 0 15
0 15 50 0 50 0 0 -15z m420 -35 l0 -50 -20 0 -20 0 0 50 0 50 20 0 20 0 0 -50z
m-970 -35 l0 -55 -20 0 -20 0 0 55 0 55 20 0 20 0 0 -55z m340 35 l0 -20 -50
0 -50 0 0 20 0 20 50 0 50 0 0 -20z m420 -35 l0 -55 -20 0 -20 0 0 55 0 55 20
0 20 0 0 -55z m140 35 l0 -20 -55 0 -55 0 0 20 0 20 55 0 55 0 0 -20z m-1110
-70 l0 -50 -20 0 -20 0 0 50 0 50 20 0 20 0 0 -50z m350 35 l0 -15 -55 0 -55
0 0 15 0 15 55 0 55 0 0 -15z m410 -35 l0 -50 -15 0 -15 0 0 50 0 50 15 0 15
0 0 -50z m140 35 l0 -15 -55 0 -55 0 0 15 0 15 55 0 55 0 0 -15z m-760 -35 l0
-20 -55 0 -55 0 0 20 0 20 55 0 55 0 0 -20z m410 -35 l0 -55 -15 0 -15 0 0 55
0 55 15 0 15 0 0 -55z m140 35 l0 -20 -50 0 -50 0 0 20 0 20 50 0 50 0 0 -20z
m380 -35 l0 -55 -15 0 -15 0 0 55 0 55 15 0 15 0 0 -55z m-720 -35 l0 -50 -20
0 -20 0 0 50 0 50 20 0 20 0 0 -50z m130 35 l0 -15 -50 0 -50 0 0 15 0 15 50
0 50 0 0 -15z m380 -35 l0 -50 -15 0 -15 0 0 50 0 50 15 0 15 0 0 -50z m-720
-30 l0 -50 -20 0 -20 0 0 50 0 50 20 0 20 0 0 -50z m140 30 l0 -20 -55 0 -55
0 0 20 0 20 55 0 55 0 0 -20z m380 -30 l0 -50 -20 0 -20 0 0 50 0 50 20 0 20
0 0 -50z m340 30 l0 -20 -50 0 -50 0 0 20 0 20 50 0 50 0 0 -20z m-930 -35 l0
-15 -55 0 -55 0 0 15 0 15 55 0 55 0 0 -15z m380 -35 l0 -50 -20 0 -20 0 0 50
0 50 20 0 20 0 0 -50z m340 35 l0 -15 -50 0 -50 0 0 15 0 15 50 0 50 0 0 -15z
m-550 -65 l0 -50 -15 0 -15 0 0 50 0 50 15 0 15 0 0 -50z m350 35 l0 -15 -55
0 -55 0 0 15 0 15 55 0 55 0 0 -15z m410 -35 l0 -50 -15 0 -15 0 0 50 0 50 15
0 15 0 0 -50z m140 35 l0 -15 -50 0 -50 0 0 15 0 15 50 0 50 0 0 -15z m-1110
-70 l0 -55 -15 0 -15 0 0 55 0 55 15 0 15 0 0 -55z m350 35 l0 -20 -50 0 -50
0 0 20 0 20 50 0 50 0 0 -20z m410 -35 l0 -55 -15 0 -15 0 0 55 0 55 15 0 15
0 0 -55z m140 35 l0 -20 -50 0 -50 0 0 20 0 20 50 0 50 0 0 -20z m-760 -35 l0
-15 -50 0 -50 0 0 15 0 15 50 0 50 0 0 -15z m420 -35 l0 -50 -20 0 -20 0 0 50
0 50 20 0 20 0 0 -50z m140 35 l0 -15 -55 0 -55 0 0 15 0 15 55 0 55 0 0 -15z
m380 -35 l0 -50 -20 0 -20 0 0 50 0 50 20 0 20 0 0 -50z m-730 -35 l0 -55 -15
0 -15 0 0 55 0 55 15 0 15 0 0 -55z m140 35 l0 -20 -55 0 -55 0 0 20 0 20 55
0 55 0 0 -20z m380 -35 l0 -55 -20 0 -20 0 0 55 0 55 20 0 20 0 0 -55z m-730
-35 l0 -50 -15 0 -15 0 0 50 0 50 15 0 15 0 0 -50z m140 35 l0 -15 -50 0 -50
0 0 15 0 15 50 0 50 0 0 -15z m380 -35 l0 -50 -15 0 -15 0 0 50 0 50 15 0 15
0 0 -50z m350 35 l0 -15 -55 0 -55 0 0 15 0 15 55 0 55 0 0 -15z m-940 -35 l0
-20 -50 0 -50 0 0 20 0 20 50 0 50 0 0 -20z m380 -35 l0 -55 -15 0 -15 0 0 55
0 55 15 0 15 0 0 -55z m350 35 l0 -20 -50 0 -50 0 0 20 0 20 50 0 50 0 0 -20z
m-550 -70 l0 -50 -20 0 -20 0 0 50 0 50 20 0 20 0 0 -50z m340 35 l0 -15 -50
0 -50 0 0 15 0 15 50 0 50 0 0 -15z m420 -35 l0 -50 -20 0 -20 0 0 50 0 50 20
0 20 0 0 -50z m140 35 l0 -15 -55 0 -55 0 0 15 0 15 55 0 55 0 0 -15z m-1110
-70 l0 -55 -20 0 -20 0 0 55 0 55 20 0 20 0 0 -55z m340 35 l0 -20 -50 0 -50
0 0 20 0 20 50 0 50 0 0 -20z m420 -35 l0 -55 -20 0 -20 0 0 55 0 55 20 0 20
0 0 -55z m140 35 l0 -20 -55 0 -55 0 0 20 0 20 55 0 55 0 0 -20z m-760 -35 l0
-15 -55 0 -55 0 0 15 0 15 55 0 55 0 0 -15z m410 -35 l0 -50 -15 0 -15 0 0 50
0 50 15 0 15 0 0 -50z m140 35 l0 -15 -50 0 -50 0 0 15 0 15 50 0 50 0 0 -15z
m380 -35 l0 -50 -15 0 -15 0 0 50 0 50 15 0 15 0 0 -50z m-730 -35 l0 -55 -15
0 -15 0 0 55 0 55 15 0 15 0 0 -55z m140 35 l0 -20 -50 0 -50 0 0 20 0 20 50
0 50 0 0 -20z m380 -35 l0 -55 -15 0 -15 0 0 55 0 55 15 0 15 0 0 -55z m-580
0 l0 -15 -55 0 -55 0 0 15 0 15 55 0 55 0 0 -15z m720 0 l0 -15 -50 0 -50 0 0
15 0 15 50 0 50 0 0 -15z m-930 -35 l0 -20 -55 0 -55 0 0 20 0 20 55 0 55 0 0
-20z m720 0 l0 -20 -50 0 -50 0 0 20 0 20 50 0 50 0 0 -20z"/>
</g>
</svg>
