<?xml version="1.0" standalone="no"?>
<!DOCTYPE svg PUBLIC "-//W3C//DTD SVG 20010904//EN"
 "http://www.w3.org/TR/2001/REC-SVG-20010904/DTD/svg10.dtd">
<svg version="1.0" xmlns="http://www.w3.org/2000/svg"
 width="468pt" height="468pt" viewBox="0 0 468 468"
 preserveAspectRatio="xMidYMid meet">
<metadata>
Created by potrace 1.8, written by Peter Selinger 2001-2007
</metadata>
<g transform="translate(0,468) scale(0.365625,-0.365625)"
fill="#000000" stroke="none">
<path d="M460 1250 l0 -10 -30 0 -30 0 0 -10 0 -10 -28 0 -28 0 -14 -20 -14
-20 -16 0 -16 0 -14 -20 -14 -20 -13 0 -14 0 -44 -45 -45 -44 0 -14 0 -13 -20
-14 -20 -14 0 -16 0 -16 -20 -14 -20 -14 0 -18 0 -18 10 0 10 0 0 -20 0 -20
-10 0 -10 0 0 -50 0 -50 10 0 10 0 0 25 0 26 35 34 34 35 16 0 15 0 0 -30 0
-30 10 0 10 0 0 -15 0 -16 25 -25 25 -25 15 15 15 15 0 25 0 26 -10 0 -10 0 0
16 0 15 16 16 16 16 10 -14 10 -14 5 13 5 12 19 0 19 0 0 10 0 10 20 0 20 0 0
20 0 20 10 0 10 0 0 60 0 60 30 0 30 0 0 -30 0 -30 10 0 10 0 0 26 0 25 14 15
15 14 23 0 24 0 14 20 14 20 8 0 8 0 0 -20 0 -20 -10 0 -10 0 0 -16 0 -17 -22
-18 -21 -19 8 -8 8 -7 4 13 5 12 19 0 19 0 0 30 0 30 10 0 10 0 0 40 0 40 -20
0 -20 0 0 6 0 5 14 15 15 14 45 0 46 0 0 -30 0 -30 6 0 5 0 15 14 14 15 0 15
0 16 20 0 20 0 0 20 0 20 -70 0 -70 0 0 10 0 10 -19 0 -19 0 -6 -12 -6 -13 -6
13 -6 12 -69 0 -69 0 0 -10z"/>
<path d="M820 1230 l0 -10 20 0 20 0 0 -10 0 -10 30 0 30 0 0 -10 0 -10 20 0
20 0 0 6 0 5 -14 15 -15 14 -25 0 -26 0 0 10 0 10 -30 0 -30 0 0 -10z"/>
<path d="M520 990 l0 -10 10 0 10 0 0 10 0 10 -10 0 -10 0 0 -10z"/>
<path d="M400 781 l0 -19 13 -5 12 -5 -14 -10 -14 -10 16 -16 16 -16 5 0 6 0
0 36 0 35 -14 15 -15 14 -5 0 -6 0 0 -19z"/>
<path d="M60 730 l0 -10 10 0 10 0 0 10 0 10 -10 0 -10 0 0 -10z"/>
<path d="M180 730 l0 -10 10 0 10 0 0 -20 0 -20 -9 0 -9 0 -5 13 -4 12 -9 -9
-9 -9 13 -4 12 -5 0 -19 0 -19 10 0 10 0 0 -16 0 -15 14 -15 15 -14 5 0 6 0 0
20 0 20 -10 0 -10 0 0 46 0 45 -14 15 -15 14 -5 0 -6 0 0 -10z"/>
<path d="M313 685 l-33 -34 0 -26 0 -25 30 0 30 0 0 20 0 20 10 0 10 0 0 40 0
40 -7 -1 -8 0 -32 -34z"/>
<path d="M500 620 l0 -20 26 0 26 0 28 -30 28 -30 15 0 15 0 6 13 6 12 6 -12
6 -13 9 0 9 0 0 16 0 15 -14 15 -15 14 -25 0 -26 0 0 10 0 10 -40 0 -40 0 0
10 0 10 -10 0 -10 0 0 -20z"/>
<path d="M380 610 l0 -10 10 0 10 0 0 10 0 10 -10 0 -10 0 0 -10z"/>
<path d="M720 590 l0 -10 10 0 10 0 0 10 0 10 -10 0 -10 0 0 -10z"/>
<path d="M440 550 l0 -10 10 0 10 0 0 10 0 10 -10 0 -10 0 0 -10z"/>
<path d="M500 490 l0 -10 -26 0 -26 0 -28 -30 -28 -30 -12 0 -11 0 -15 -14
-14 -15 0 -15 0 -16 10 0 10 0 0 -20 0 -20 10 0 10 0 0 -20 0 -20 40 0 40 0 0
10 0 10 40 0 40 0 0 -10 0 -10 18 0 18 0 14 -20 14 -20 34 0 33 0 24 25 25 24
0 46 0 45 -10 0 -10 0 0 18 0 18 -20 14 -20 14 0 14 0 13 -14 15 -15 14 -5 0
-6 0 0 -16 0 -15 -15 -15 -15 -15 -15 15 -15 15 0 15 0 16 -30 0 -30 0 0 -10z"/>
<path d="M900 240 l0 -20 10 0 10 0 0 20 0 20 -10 0 -10 0 0 -20z"/>
<path d="M660 210 l0 -10 10 0 10 0 0 10 0 10 -10 0 -10 0 0 -10z"/>
<path d="M840 190 l0 -10 10 0 10 0 0 10 0 10 -10 0 -10 0 0 -10z"/>
<path d="M420 50 l0 -10 10 0 10 0 0 10 0 10 -10 0 -10 0 0 -10z"/>
<path d="M460 40 l0 -20 50 0 50 0 0 -10 0 -10 60 0 60 0 0 10 0 10 20 0 20 0
0 10 0 10 -99 0 -99 0 -5 13 -5 12 -12 -15 -12 -15 -5 13 -5 12 -9 0 -9 0 0
-20z"/>
</g>
</svg>
