<?xml version="1.0" standalone="no"?>
<!DOCTYPE svg PUBLIC "-//W3C//DTD SVG 20010904//EN"
 "http://www.w3.org/TR/2001/REC-SVG-20010904/DTD/svg10.dtd">
<svg version="1.0" xmlns="http://www.w3.org/2000/svg"
 width="468pt" height="468pt" viewBox="0 0 468 468"
 preserveAspectRatio="xMidYMid meet">
<metadata>
Created by potrace 1.8, written by Peter Selinger 2001-2007
</metadata>
<g transform="translate(0,468) scale(0.365625,-0.365625)"
fill="#000000" stroke="none">
<path d="M300 1215 l0 -25 -20 0 -20 0 0 -20 0 -20 20 0 20 0 0 -20 0 -20 65
0 65 0 0 40 0 40 -25 0 -25 0 0 25 0 25 -40 0 -40 0 0 -25z"/>
<path d="M510 1130 l0 -20 -20 0 -20 0 0 -20 0 -20 20 0 20 0 0 -25 0 -25 65
0 65 0 0 45 0 45 -20 0 -20 0 0 20 0 20 -45 0 -45 0 0 -20z"/>
<path d="M130 1090 l0 -20 -20 0 -20 0 0 -25 0 -25 20 0 20 0 0 -20 0 -20 65
0 65 0 0 45 0 45 -25 0 -25 0 0 20 0 20 -40 0 -40 0 0 -20z"/>
<path d="M340 1000 l0 -20 -20 0 -20 0 0 -20 0 -20 -20 0 -20 0 0 -130 0 -130
20 0 20 0 0 -20 0 -20 20 0 20 0 0 -20 0 -20 -170 0 -170 0 0 -300 0 -300 640
0 640 0 0 300 0 300 -365 0 -365 0 0 20 0 20 25 0 25 0 0 20 0 20 20 0 20 0 0
25 0 25 20 0 20 0 0 60 0 60 -20 0 -20 0 0 25 0 25 -20 0 -20 0 0 20 0 20 -25
0 -25 0 0 20 0 20 -40 0 -40 0 0 20 0 20 -65 0 -65 0 0 -20z"/>
<path d="M90 920 l0 -20 -25 0 -25 0 0 -25 0 -25 25 0 25 0 0 -20 0 -20 60 0
60 0 0 45 0 45 -20 0 -20 0 0 20 0 20 -40 0 -40 0 0 -20z"/>
</g>
</svg>
