<?xml version="1.0" standalone="no"?>
<!DOCTYPE svg PUBLIC "-//W3C//DTD SVG 20010904//EN"
 "http://www.w3.org/TR/2001/REC-SVG-20010904/DTD/svg10.dtd">
<svg version="1.0" xmlns="http://www.w3.org/2000/svg"
 width="468pt" height="468pt" viewBox="0 0 468 468"
 preserveAspectRatio="xMidYMid meet">
<metadata>
Created by potrace 1.8, written by Peter Selinger 2001-2007
</metadata>
<g transform="translate(0,468) scale(0.365625,-0.365625)"
fill="#000000" stroke="none">
<path d="M230 1235 l0 -15 -30 0 -30 0 0 -15 0 -15 -15 0 -15 0 0 -10 0 -10
-15 0 -15 0 0 -15 0 -15 -10 0 -10 0 0 -15 0 -15 -15 0 -15 0 0 -15 0 -15 85
0 85 0 0 -15 0 -15 -30 0 -30 0 0 -15 0 -15 -30 0 -30 0 0 -10 0 -10 15 0 15
0 0 -15 0 -15 85 0 85 0 0 15 0 15 15 0 15 0 0 10 0 10 30 0 30 0 0 15 0 15
15 0 15 0 0 15 0 15 15 0 15 0 0 -15 0 -15 25 0 25 0 0 -15 0 -15 15 0 15 0 0
-25 0 -25 15 0 15 0 0 -15 0 -15 -30 0 -30 0 0 -15 0 -15 -25 0 -25 0 0 -15 0
-15 -15 0 -15 0 0 15 0 15 -45 0 -45 0 0 -15 0 -15 -15 0 -15 0 0 -15 0 -15
-25 0 -25 0 0 15 0 15 -15 0 -15 0 0 15 0 15 -30 0 -30 0 0 15 0 15 -70 0 -70
0 0 -15 0 -15 -15 0 -15 0 0 -15 0 -15 15 0 15 0 0 15 0 15 70 0 70 0 0 -15 0
-15 30 0 30 0 0 -15 0 -15 -45 0 -45 0 0 -15 0 -15 -25 0 -25 0 0 -10 0 -10
-15 0 -15 0 0 -30 0 -30 -15 0 -15 0 0 -30 0 -30 15 0 15 0 0 30 0 30 15 0 15
0 0 30 0 30 25 0 25 0 0 10 0 10 45 0 45 0 0 15 0 15 15 0 15 0 0 -25 0 -25
40 0 40 0 0 -15 0 -15 45 0 45 0 0 -15 0 -15 15 0 15 0 0 -15 0 -15 25 0 25 0
0 -15 0 -15 30 0 30 0 0 -15 0 -15 -30 0 -30 0 0 -10 0 -10 -25 0 -25 0 0 10
0 10 -15 0 -15 0 0 15 0 15 -15 0 -15 0 0 15 0 15 -115 0 -115 0 0 -15 0 -15
15 0 15 0 0 -15 0 -15 40 0 40 0 0 -10 0 -10 15 0 15 0 0 -15 0 -15 -110 0
-110 0 0 -15 0 -15 10 0 10 0 0 -15 0 -15 15 0 15 0 0 -15 0 -15 15 0 15 0 0
-15 0 -15 15 0 15 0 0 -10 0 -10 15 0 15 0 0 -15 0 -15 -115 0 -115 0 0 -215
0 -215 640 0 640 0 0 215 0 215 -455 0 -455 0 0 15 0 15 15 0 15 0 0 10 0 10
15 0 15 0 0 15 0 15 15 0 15 0 0 15 0 15 10 0 10 0 0 15 0 15 60 0 60 0 0 30
0 30 15 0 15 0 0 25 0 25 110 0 110 0 0 15 0 15 30 0 30 0 0 15 0 15 45 0 45
0 0 -15 0 -15 10 0 10 0 0 -15 0 -15 15 0 15 0 0 -15 0 -15 15 0 15 0 0 -10 0
-10 15 0 15 0 0 -15 0 -15 15 0 15 0 0 -15 0 -15 55 0 55 0 0 15 0 15 15 0 15
0 0 25 0 25 -15 0 -15 0 0 15 0 15 -15 0 -15 0 0 15 0 15 15 0 15 0 0 15 0 15
15 0 15 0 0 30 0 30 -15 0 -15 0 0 10 0 10 -15 0 -15 0 0 15 0 15 15 0 15 0 0
15 0 15 15 0 15 0 0 30 0 30 -15 0 -15 0 0 15 0 15 -15 0 -15 0 0 15 0 15 15
0 15 0 0 25 0 25 -55 0 -55 0 0 -15 0 -15 -15 0 -15 0 0 -10 0 -10 -15 0 -15
0 0 -15 0 -15 -15 0 -15 0 0 -15 0 -15 -15 0 -15 0 0 -15 0 -15 -10 0 -10 0 0
-15 0 -15 -30 0 -30 0 0 15 0 15 -30 0 -30 0 0 15 0 15 -125 0 -125 0 0 15 0
15 -15 0 -15 0 0 25 0 25 -15 0 -15 0 0 30 0 30 -15 0 -15 0 0 30 0 30 -55 0
-55 0 0 15 0 15 -15 0 -15 0 0 10 0 10 -15 0 -15 0 0 15 0 15 -15 0 -15 0 0
15 0 15 -55 0 -55 0 0 -15z m80 -55 l0 -10 -25 0 -25 0 0 10 0 10 25 0 25 0 0
-10z m-80 -25 l0 -15 -15 0 -15 0 0 -15 0 -15 -15 0 -15 0 0 15 0 15 15 0 15
0 0 15 0 15 15 0 15 0 0 -15z m110 -60 l0 -15 -15 0 -15 0 0 -15 0 -15 -15 0
-15 0 0 15 0 15 15 0 15 0 0 15 0 15 15 0 15 0 0 -15z m850 -140 l0 -15 -10 0
-10 0 0 -15 0 -15 -15 0 -15 0 0 -15 0 -15 -30 0 -30 0 0 -15 0 -15 -15 0 -15
0 0 15 0 15 15 0 15 0 0 15 0 15 30 0 30 0 0 15 0 15 15 0 15 0 0 15 0 15 10
0 10 0 0 -15z m-620 -60 l0 -15 -15 0 -15 0 0 -15 0 -15 -15 0 -15 0 0 15 0
15 15 0 15 0 0 15 0 15 15 0 15 0 0 -15z m80 0 l0 -15 -10 0 -10 0 0 -15 0
-15 -15 0 -15 0 0 15 0 15 15 0 15 0 0 15 0 15 10 0 10 0 0 -15z m90 0 l0 -15
-15 0 -15 0 0 -15 0 -15 -15 0 -15 0 0 15 0 15 15 0 15 0 0 15 0 15 15 0 15 0
0 -15z m80 0 l0 -15 -10 0 -10 0 0 -15 0 -15 -15 0 -15 0 0 15 0 15 15 0 15 0
0 15 0 15 10 0 10 0 0 -15z m-390 -45 l0 -30 11 0 10 0 15 -14 14 -15 0 -10 0
-11 15 0 15 0 0 15 0 15 15 0 15 0 0 -15 0 -15 15 0 15 0 0 15 0 15 15 0 15 0
0 -15 0 -15 -15 0 -15 0 0 -15 0 -15 15 0 15 0 0 -15 0 -15 -15 0 -15 0 0 15
0 15 -15 0 -15 0 0 15 0 15 -15 0 -15 0 0 -15 0 -15 -15 0 -15 0 0 15 0 15
-10 0 -10 0 0 15 0 15 -60 0 -60 0 0 40 0 40 45 0 45 0 0 -30z m450 15 l0 -15
-15 0 -15 0 0 15 0 15 15 0 15 0 0 -15z m310 -26 l0 -10 -14 -15 -15 -14 -25
0 -26 0 0 10 0 10 30 0 30 0 0 15 0 15 10 0 10 0 0 -11z m-110 -44 l0 -25 30
0 30 0 0 -15 0 -15 15 0 15 0 0 -15 0 -15 10 0 10 0 0 -15 0 -15 -10 0 -10 0
0 15 0 15 -15 0 -15 0 0 15 0 15 -30 0 -30 0 0 15 0 15 -15 0 -15 0 0 25 0 25
15 0 15 0 0 -25z m-430 -10 l0 -15 15 0 15 0 0 15 0 15 15 0 15 0 0 -15 0 -15
15 0 15 0 0 15 0 15 15 0 15 0 0 -15 0 -15 15 0 15 0 0 15 0 15 10 0 10 0 0
-15 0 -15 15 0 15 0 0 15 0 15 15 0 15 0 0 -15 0 -15 -15 0 -15 0 0 -15 0 -15
-15 0 -15 0 0 -15 0 -15 -10 0 -10 0 0 15 0 15 -15 0 -15 0 0 -15 0 -15 -15 0
-15 0 0 15 0 15 -15 0 -15 0 0 -15 0 -15 -15 0 -15 0 0 15 0 15 -15 0 -15 0 0
15 0 15 -10 0 -10 0 0 15 0 15 10 0 10 0 0 -15z m290 0 l0 -15 -15 0 -15 0 0
15 0 15 15 0 15 0 0 -15z m-570 -145 l0 -10 15 0 15 0 0 -15 0 -15 -15 0 -15
0 0 15 0 15 -15 0 -15 0 0 10 0 10 15 0 15 0 0 -10z m-110 -115 l0 -15 10 0
10 0 0 -15 0 -15 -10 0 -10 0 0 15 0 15 -15 0 -15 0 0 15 0 15 15 0 15 0 0
-15z m110 0 l0 -15 -15 0 -15 0 0 -15 0 -15 -15 0 -15 0 0 15 0 15 15 0 15 0
0 15 0 15 15 0 15 0 0 -15z"/>
<path d="M680 755 l0 -15 15 0 15 0 0 15 0 15 -15 0 -15 0 0 -15z"/>
<path d="M740 755 l0 -15 15 0 15 0 0 15 0 15 -15 0 -15 0 0 -15z"/>
<path d="M800 755 l0 -15 10 0 10 0 0 15 0 15 -10 0 -10 0 0 -15z"/>
</g>
</svg>
