<?xml version="1.0" standalone="no"?>
<!DOCTYPE svg PUBLIC "-//W3C//DTD SVG 20010904//EN"
 "http://www.w3.org/TR/2001/REC-SVG-20010904/DTD/svg10.dtd">
<svg version="1.0" xmlns="http://www.w3.org/2000/svg"
 width="468pt" height="468pt" viewBox="0 0 468 468"
 preserveAspectRatio="xMidYMid meet">
<metadata>
Created by potrace 1.8, written by Peter Selinger 2001-2007
</metadata>
<g transform="translate(0,468) scale(0.365625,-0.365625)"
fill="#000000" stroke="none">
<path d="M500 1245 l0 -35 -35 0 -35 0 0 -35 0 -35 -35 0 -35 0 0 35 0 35 -75
0 -75 0 0 -35 0 -35 75 0 75 0 0 -35 0 -35 -40 0 -40 0 0 -35 0 -35 -35 0 -35
0 0 35 0 35 -70 0 -70 0 0 -35 0 -35 70 0 70 0 0 -75 0 -75 -70 0 -70 0 0 35
0 35 -35 0 -35 0 0 -35 0 -35 35 0 35 0 0 -35 0 -35 -35 0 -35 0 0 -70 0 -70
70 0 70 0 0 -35 0 -35 -35 0 -35 0 0 -35 0 -35 35 0 35 0 0 -35 0 -35 -35 0
-35 0 0 -35 0 -35 35 0 35 0 0 35 0 35 70 0 70 0 0 -35 0 -35 -35 0 -35 0 0
-75 0 -75 35 0 35 0 0 75 0 75 75 0 75 0 0 -40 0 -40 -35 0 -35 0 0 -70 0 -70
35 0 35 0 0 70 0 70 35 0 35 0 0 -35 0 -35 35 0 35 0 0 -70 0 -70 -285 0 -285
0 0 -35 0 -35 640 0 640 0 0 35 0 35 -320 0 -320 0 0 70 0 70 35 0 35 0 0 -35
0 -35 105 0 105 0 0 35 0 35 -70 0 -70 0 0 35 0 35 110 0 110 0 0 -35 0 -35
35 0 35 0 0 35 0 35 -35 0 -35 0 0 40 0 40 70 0 70 0 0 35 0 35 35 0 35 0 0
35 0 35 -35 0 -35 0 0 -35 0 -35 -35 0 -35 0 0 70 0 70 70 0 70 0 0 35 0 35
35 0 35 0 0 35 0 35 -35 0 -35 0 0 -35 0 -35 -35 0 -35 0 0 70 0 70 35 0 35 0
0 35 0 35 35 0 35 0 0 35 0 35 -35 0 -35 0 0 -35 0 -35 -70 0 -70 0 0 35 0 35
35 0 35 0 0 40 0 40 35 0 35 0 0 35 0 35 -35 0 -35 0 0 -35 0 -35 -70 0 -70 0
0 35 0 35 35 0 35 0 0 35 0 35 35 0 35 0 0 35 0 35 -35 0 -35 0 0 -35 0 -35
-35 0 -35 0 0 35 0 35 -40 0 -40 0 0 -105 0 -105 -35 0 -35 0 0 70 0 70 -35 0
-35 0 0 35 0 35 35 0 35 0 0 35 0 35 -35 0 -35 0 0 -35 0 -35 -35 0 -35 0 0
35 0 35 -35 0 -35 0 0 -35 0 -35 -35 0 -35 0 0 35 0 35 -35 0 -35 0 0 -35z
m70 -140 l0 -35 35 0 35 0 0 35 0 35 35 0 35 0 0 -35 0 -35 35 0 35 0 0 -75 0
-75 -35 0 -35 0 0 -35 0 -35 -35 0 -35 0 0 75 0 75 -35 0 -35 0 0 35 0 35 -35
0 -35 0 0 35 0 35 35 0 35 0 0 -35z m-70 -145 l0 -40 -70 0 -70 0 0 40 0 40
70 0 70 0 0 -40z m500 -35 l0 -75 35 0 35 0 0 -35 0 -35 -35 0 -35 0 0 35 0
35 -40 0 -40 0 0 -35 0 -35 -35 0 -35 0 0 -35 0 -35 -35 0 -35 0 0 70 0 70 35
0 35 0 0 35 0 35 35 0 35 0 0 40 0 40 40 0 40 0 0 -75z m-720 -110 l0 -35 40
0 40 0 0 35 0 35 105 0 105 0 0 -35 0 -35 -70 0 -70 0 0 -35 0 -35 -35 0 -35
0 0 -35 0 -35 -40 0 -40 0 0 -35 0 -35 -35 0 -35 0 0 -35 0 -35 -35 0 -35 0 0
35 0 35 35 0 35 0 0 70 0 70 35 0 35 0 0 35 0 35 -35 0 -35 0 0 35 0 35 35 0
35 0 0 -35z m-140 -70 l0 -35 -35 0 -35 0 0 35 0 35 35 0 35 0 0 -35z m430
-70 l0 -35 -35 0 -35 0 0 -35 0 -35 35 0 35 0 0 -105 0 -105 70 0 70 0 0 -40
0 -40 -70 0 -70 0 0 40 0 40 -35 0 -35 0 0 35 0 35 -35 0 -35 0 0 105 0 105
35 0 35 0 0 35 0 35 35 0 35 0 0 -35z m500 -35 l0 -70 -110 0 -110 0 0 35 0
35 35 0 35 0 0 35 0 35 75 0 75 0 0 -70z m-360 -35 l0 -35 35 0 35 0 0 -35 0
-35 110 0 110 0 0 -35 0 -35 -145 0 -145 0 0 35 0 35 -35 0 -35 0 0 70 0 70
35 0 35 0 0 -35z m-350 -140 l0 -35 -40 0 -40 0 0 35 0 35 40 0 40 0 0 -35z"/>
</g>
</svg>
