<?xml version="1.0" standalone="no"?>
<!DOCTYPE svg PUBLIC "-//W3C//DTD SVG 20010904//EN"
 "http://www.w3.org/TR/2001/REC-SVG-20010904/DTD/svg10.dtd">
<svg version="1.0" xmlns="http://www.w3.org/2000/svg"
 width="468pt" height="468pt" viewBox="0 0 468 468"
 preserveAspectRatio="xMidYMid meet">
<metadata>
Created by potrace 1.8, written by Peter Selinger 2001-2007
</metadata>
<g transform="translate(0,468) scale(0.365625,-0.365625)"
fill="#000000" stroke="none">
<path d="M430 1175 l0 -105 10 0 10 0 0 105 0 105 -10 0 -10 0 0 -105z"/>
<path d="M480 1150 l0 -80 15 0 15 0 0 50 0 50 10 0 10 0 0 15 0 15 -10 0 -10
0 0 15 0 15 -15 0 -15 0 0 -80z"/>
<path d="M530 1215 l0 -15 15 0 15 0 0 15 0 15 -15 0 -15 0 0 -15z"/>
<path d="M590 1215 l0 -15 40 0 40 0 0 -15 0 -15 -26 0 -25 0 -15 -14 -14 -15
0 -21 0 -21 14 -15 15 -14 24 0 25 0 6 13 6 12 6 -12 6 -13 29 0 29 0 0 50 0
50 10 0 10 0 0 15 0 15 -10 0 -10 0 0 15 0 15 -15 0 -15 0 0 -70 0 -70 -15 0
-15 0 0 55 0 55 -10 0 -10 0 0 15 0 15 -40 0 -40 0 0 -15z m80 -95 l0 -30 -30
0 -30 0 0 30 0 30 30 0 30 0 0 -30z"/>
<path d="M770 1215 l0 -15 30 0 30 0 0 -65 0 -65 10 0 10 0 0 65 0 65 -10 0
-10 0 0 15 0 15 -30 0 -30 0 0 -15z"/>
<path d="M0 535 l0 -425 640 0 640 0 0 425 0 425 -640 0 -640 0 0 -425z m130
385 l0 -10 -10 0 -10 0 0 10 0 10 10 0 10 0 0 -10z m110 0 l0 -10 -15 0 -15 0
0 10 0 10 15 0 15 0 0 -10z m110 0 l0 -10 -15 0 -15 0 0 10 0 10 15 0 15 0 0
-10z m100 0 l0 -10 -10 0 -10 0 0 10 0 10 10 0 10 0 0 -10z m110 0 l0 -10 -15
0 -15 0 0 10 0 10 15 0 15 0 0 -10z m110 0 l0 -10 -15 0 -15 0 0 10 0 10 15 0
15 0 0 -10z m100 0 l0 -10 -10 0 -10 0 0 10 0 10 10 0 10 0 0 -10z m110 0 l0
-10 -15 0 -15 0 0 10 0 10 15 0 15 0 0 -10z m110 0 l0 -10 -15 0 -15 0 0 10 0
10 15 0 15 0 0 -10z m100 0 l0 -10 -10 0 -10 0 0 10 0 10 10 0 10 0 0 -10z
m110 0 l0 -10 -15 0 -15 0 0 10 0 10 15 0 15 0 0 -10z m-1120 -25 l0 -15 -15
0 -15 0 0 15 0 15 15 0 15 0 0 -15z m110 0 l0 -15 -15 0 -15 0 0 15 0 15 15 0
15 0 0 -15z m100 0 l0 -15 -10 0 -10 0 0 15 0 15 10 0 10 0 0 -15z m110 0 l0
-15 -15 0 -15 0 0 15 0 15 15 0 15 0 0 -15z m110 0 l0 -15 -15 0 -15 0 0 15 0
15 15 0 15 0 0 -15z m100 0 l0 -15 -10 0 -10 0 0 15 0 15 10 0 10 0 0 -15z
m110 0 l0 -15 -15 0 -15 0 0 15 0 15 15 0 15 0 0 -15z m110 0 l0 -15 -15 0
-15 0 0 15 0 15 15 0 15 0 0 -15z m100 0 l0 -15 -10 0 -10 0 0 15 0 15 10 0
10 0 0 -15z m110 0 l0 -15 -15 0 -15 0 0 15 0 15 15 0 15 0 0 -15z m110 0 l0
-15 -15 0 -15 0 0 15 0 15 15 0 15 0 0 -15z m100 0 l0 -15 -10 0 -10 0 0 15 0
15 10 0 10 0 0 -15z m-1120 -30 l0 -15 -10 0 -10 0 0 15 0 15 10 0 10 0 0 -15z
m110 0 l0 -15 -15 0 -15 0 0 15 0 15 15 0 15 0 0 -15z m110 0 l0 -15 -15 0
-15 0 0 15 0 15 15 0 15 0 0 -15z m100 0 l0 -15 -10 0 -10 0 0 15 0 15 10 0
10 0 0 -15z m110 0 l0 -15 -15 0 -15 0 0 15 0 15 15 0 15 0 0 -15z m110 0 l0
-15 -15 0 -15 0 0 15 0 15 15 0 15 0 0 -15z m100 0 l0 -15 -10 0 -10 0 0 15 0
15 10 0 10 0 0 -15z m110 0 l0 -15 -15 0 -15 0 0 15 0 15 15 0 15 0 0 -15z
m110 0 l0 -15 -15 0 -15 0 0 15 0 15 15 0 15 0 0 -15z m100 0 l0 -15 -10 0
-10 0 0 15 0 15 10 0 10 0 0 -15z m110 0 l0 -15 -15 0 -15 0 0 15 0 15 15 0
15 0 0 -15z m-1120 -25 l0 -10 -15 0 -15 0 0 10 0 10 15 0 15 0 0 -10z m110 0
l0 -10 -15 0 -15 0 0 10 0 10 15 0 15 0 0 -10z m100 0 l0 -10 -10 0 -10 0 0
10 0 10 10 0 10 0 0 -10z m110 0 l0 -10 -15 0 -15 0 0 10 0 10 15 0 15 0 0
-10z m110 0 l0 -10 -15 0 -15 0 0 10 0 10 15 0 15 0 0 -10z m100 0 l0 -10 -10
0 -10 0 0 10 0 10 10 0 10 0 0 -10z m110 0 l0 -10 -15 0 -15 0 0 10 0 10 15 0
15 0 0 -10z m110 0 l0 -10 -15 0 -15 0 0 10 0 10 15 0 15 0 0 -10z m100 0 l0
-10 -10 0 -10 0 0 10 0 10 10 0 10 0 0 -10z m110 0 l0 -10 -15 0 -15 0 0 10 0
10 15 0 15 0 0 -10z m110 0 l0 -10 -15 0 -15 0 0 10 0 10 15 0 15 0 0 -10z
m100 0 l0 -10 -10 0 -10 0 0 10 0 10 10 0 10 0 0 -10z m-1120 -25 l0 -15 -10
0 -10 0 0 15 0 15 10 0 10 0 0 -15z m110 0 l0 -15 -15 0 -15 0 0 15 0 15 15 0
15 0 0 -15z m110 0 l0 -15 -15 0 -15 0 0 15 0 15 15 0 15 0 0 -15z m100 0 l0
-15 -10 0 -10 0 0 15 0 15 10 0 10 0 0 -15z m110 0 l0 -15 -15 0 -15 0 0 15 0
15 15 0 15 0 0 -15z m110 0 l0 -15 -15 0 -15 0 0 15 0 15 15 0 15 0 0 -15z
m100 0 l0 -15 -10 0 -10 0 0 15 0 15 10 0 10 0 0 -15z m110 0 l0 -15 -15 0
-15 0 0 15 0 15 15 0 15 0 0 -15z m110 0 l0 -15 -15 0 -15 0 0 15 0 15 15 0
15 0 0 -15z m100 0 l0 -15 -10 0 -10 0 0 15 0 15 10 0 10 0 0 -15z m110 0 l0
-15 -15 0 -15 0 0 15 0 15 15 0 15 0 0 -15z m-1120 -30 l0 -15 -15 0 -15 0 0
15 0 15 15 0 15 0 0 -15z m110 0 l0 -15 -15 0 -15 0 0 15 0 15 15 0 15 0 0
-15z m100 0 l0 -15 -10 0 -10 0 0 15 0 15 10 0 10 0 0 -15z m110 0 l0 -15 -15
0 -15 0 0 15 0 15 15 0 15 0 0 -15z m110 0 l0 -15 -15 0 -15 0 0 15 0 15 15 0
15 0 0 -15z m100 0 l0 -15 -10 0 -10 0 0 15 0 15 10 0 10 0 0 -15z m110 0 l0
-15 -15 0 -15 0 0 15 0 15 15 0 15 0 0 -15z m110 0 l0 -15 -15 0 -15 0 0 15 0
15 15 0 15 0 0 -15z m100 0 l0 -15 -10 0 -10 0 0 15 0 15 10 0 10 0 0 -15z
m110 0 l0 -15 -15 0 -15 0 0 15 0 15 15 0 15 0 0 -15z m110 0 l0 -15 -15 0
-15 0 0 15 0 15 15 0 15 0 0 -15z m100 0 l0 -15 -10 0 -10 0 0 15 0 15 10 0
10 0 0 -15z m-1120 -25 l0 -10 -10 0 -10 0 0 10 0 10 10 0 10 0 0 -10z m110 0
l0 -10 -15 0 -15 0 0 10 0 10 15 0 15 0 0 -10z m110 0 l0 -10 -15 0 -15 0 0
10 0 10 15 0 15 0 0 -10z m100 0 l0 -10 -10 0 -10 0 0 10 0 10 10 0 10 0 0
-10z m110 0 l0 -10 -15 0 -15 0 0 10 0 10 15 0 15 0 0 -10z m110 0 l0 -10 -15
0 -15 0 0 10 0 10 15 0 15 0 0 -10z m100 0 l0 -10 -10 0 -10 0 0 10 0 10 10 0
10 0 0 -10z m110 0 l0 -10 -15 0 -15 0 0 10 0 10 15 0 15 0 0 -10z m110 0 l0
-10 -15 0 -15 0 0 10 0 10 15 0 15 0 0 -10z m100 0 l0 -10 -10 0 -10 0 0 10 0
10 10 0 10 0 0 -10z m110 0 l0 -10 -15 0 -15 0 0 10 0 10 15 0 15 0 0 -10z
m-1120 -25 l0 -15 25 0 25 0 0 -25 0 -25 15 0 15 0 0 40 0 40 15 0 15 0 0 -15
0 -15 25 0 25 0 0 -25 0 -25 15 0 15 0 0 40 0 40 10 0 10 0 0 -15 0 -15 30 0
30 0 0 -25 0 -25 10 0 10 0 0 40 0 40 15 0 15 0 0 -15 0 -15 25 0 25 0 0 -25
0 -25 15 0 15 0 0 40 0 40 15 0 15 0 0 -15 0 -15 25 0 25 0 0 -25 0 -25 15 0
15 0 0 40 0 40 10 0 10 0 0 -15 0 -15 30 0 30 0 0 -25 0 -25 10 0 10 0 0 40 0
40 15 0 15 0 0 -15 0 -15 25 0 25 0 0 -25 0 -25 15 0 15 0 0 40 0 40 15 0 15
0 0 -15 0 -15 25 0 25 0 0 -25 0 -25 15 0 15 0 0 40 0 40 10 0 10 0 0 -15 0
-15 30 0 30 0 0 -25 0 -25 10 0 10 0 0 40 0 40 15 0 15 0 0 -15 0 -15 25 0 25
0 0 -25 0 -25 15 0 15 0 0 40 0 40 15 0 15 0 0 -15 0 -15 25 0 25 0 0 -25 0
-25 15 0 15 0 0 40 0 40 10 0 10 0 0 -215 0 -215 -10 0 -10 0 0 -14 0 -14 12
-6 13 -6 -12 -6 -13 -6 0 -14 0 -14 10 0 10 0 0 -14 0 -14 -12 -6 -13 -6 13
-6 12 -6 0 -14 0 -14 -10 0 -10 0 0 -15 0 -15 -15 0 -15 0 0 15 0 15 -15 0
-15 0 0 -15 0 -15 -10 0 -10 0 0 15 0 15 -15 0 -15 0 0 -15 0 -15 -15 0 -15 0
0 15 0 15 -10 0 -10 0 0 -15 0 -15 -15 0 -15 0 0 15 0 15 -15 0 -15 0 0 -15 0
-15 -10 0 -10 0 0 15 0 15 -15 0 -15 0 0 -15 0 -15 -15 0 -15 0 0 15 0 15 -10
0 -10 0 0 -15 0 -15 -15 0 -15 0 0 15 0 15 -15 0 -15 0 0 -15 0 -15 -10 0 -10
0 0 15 0 15 -15 0 -15 0 0 -15 0 -15 -15 0 -15 0 0 15 0 15 -10 0 -10 0 0 -15
0 -15 -15 0 -15 0 0 15 0 15 -15 0 -15 0 0 -15 0 -15 -10 0 -10 0 0 15 0 15
-15 0 -15 0 0 -15 0 -15 -15 0 -15 0 0 15 0 15 -10 0 -10 0 0 -15 0 -15 -15 0
-15 0 0 15 0 15 -15 0 -15 0 0 -15 0 -15 -10 0 -10 0 0 15 0 15 -15 0 -15 0 0
-15 0 -15 -15 0 -15 0 0 15 0 15 -10 0 -10 0 0 -15 0 -15 -15 0 -15 0 0 15 0
15 -15 0 -15 0 0 -15 0 -15 -10 0 -10 0 0 15 0 15 -15 0 -15 0 0 -15 0 -15
-15 0 -15 0 0 15 0 15 -10 0 -10 0 0 -15 0 -15 -15 0 -15 0 0 15 0 15 -15 0
-15 0 0 -15 0 -15 -10 0 -10 0 0 15 0 15 -15 0 -15 0 0 -15 0 -15 -15 0 -15 0
0 15 0 15 -10 0 -10 0 0 -15 0 -15 -15 0 -15 0 0 15 0 15 -15 0 -15 0 0 -15 0
-15 -10 0 -10 0 0 15 0 15 10 0 10 0 0 14 0 14 -12 6 -13 6 12 6 13 6 0 14 0
14 -10 0 -10 0 0 14 0 14 13 6 12 6 -12 6 -13 6 0 14 0 14 10 0 10 0 0 14 0
14 -12 6 -13 6 12 6 13 6 0 14 0 14 -10 0 -10 0 0 135 0 135 10 0 10 0 0 40 0
40 15 0 15 0 0 -15z"/>
<path d="M80 680 l0 -10 15 0 15 0 0 10 0 10 -15 0 -15 0 0 -10z"/>
<path d="M190 680 l0 -10 10 0 10 0 0 10 0 10 -10 0 -10 0 0 -10z"/>
<path d="M290 680 l0 -10 15 0 15 0 0 10 0 10 -15 0 -15 0 0 -10z"/>
<path d="M400 680 l0 -10 15 0 15 0 0 10 0 10 -15 0 -15 0 0 -10z"/>
<path d="M510 680 l0 -10 10 0 10 0 0 10 0 10 -10 0 -10 0 0 -10z"/>
<path d="M610 680 l0 -10 15 0 15 0 0 10 0 10 -15 0 -15 0 0 -10z"/>
<path d="M720 680 l0 -10 15 0 15 0 0 10 0 10 -15 0 -15 0 0 -10z"/>
<path d="M830 680 l0 -10 10 0 10 0 0 10 0 10 -10 0 -10 0 0 -10z"/>
<path d="M930 680 l0 -10 15 0 15 0 0 10 0 10 -15 0 -15 0 0 -10z"/>
<path d="M1040 680 l0 -10 15 0 15 0 0 10 0 10 -15 0 -15 0 0 -10z"/>
<path d="M1150 680 l0 -10 10 0 10 0 0 10 0 10 -10 0 -10 0 0 -10z"/>
<path d="M610 629 l0 -10 -14 -15 -15 -14 -10 0 -11 0 0 10 0 10 -11 0 -10 0
-15 -14 -14 -15 0 -50 0 -51 10 0 10 0 0 -15 0 -15 15 0 15 0 0 15 0 15 15 0
15 0 0 51 0 50 14 15 15 14 21 0 21 0 15 -14 14 -15 0 -50 0 -51 15 0 15 0 0
-15 0 -15 15 0 15 0 0 15 0 15 10 0 10 0 0 51 0 50 -14 15 -15 14 -10 0 -11 0
0 -10 0 -10 -11 0 -10 0 -15 14 -14 15 0 10 0 11 -30 0 -30 0 0 -11z m-50 -94
l0 -55 -15 0 -15 0 0 55 0 55 15 0 15 0 0 -55z m190 0 l0 -55 -15 0 -15 0 0
55 0 55 15 0 15 0 0 -55z"/>
<path d="M610 535 l0 -55 -10 0 -10 0 0 -25 0 -25 10 0 10 0 0 10 0 10 30 0
30 0 0 -10 0 -10 10 0 10 0 0 25 0 25 -10 0 -10 0 0 55 0 55 -30 0 -30 0 0
-55z"/>
<path d="M80 385 l0 -15 15 0 15 0 0 15 0 15 -15 0 -15 0 0 -15z"/>
<path d="M130 389 l0 -10 -14 -15 -15 -14 -10 0 -11 0 0 -15 0 -15 -15 0 -15
0 0 -15 0 -15 15 0 15 0 0 -10 0 -10 -15 0 -15 0 0 -15 0 -15 15 0 15 0 0 -15
0 -15 -15 0 -15 0 0 -10 0 -10 15 0 15 0 0 -15 0 -15 15 0 15 0 0 15 0 15 -15
0 -15 0 0 10 0 10 15 0 15 0 0 15 0 15 10 0 10 0 0 -15 0 -15 15 0 15 0 0 -10
0 -10 -15 0 -15 0 0 -15 0 -15 15 0 15 0 0 15 0 15 15 0 15 0 0 -15 0 -15 10
0 10 0 0 15 0 15 15 0 15 0 0 -15 0 -15 15 0 15 0 0 15 0 15 -15 0 -15 0 0 10
0 10 15 0 15 0 0 15 0 15 10 0 10 0 0 -15 0 -15 15 0 15 0 0 -10 0 -10 -15 0
-15 0 0 -15 0 -15 15 0 15 0 0 15 0 15 15 0 15 0 0 -15 0 -15 10 0 10 0 0 15
0 15 15 0 15 0 0 -15 0 -15 15 0 15 0 0 15 0 15 -15 0 -15 0 0 10 0 10 15 0
15 0 0 15 0 15 10 0 10 0 0 -15 0 -15 15 0 15 0 0 -10 0 -10 -15 0 -15 0 0
-15 0 -15 15 0 15 0 0 15 0 15 15 0 15 0 0 -15 0 -15 10 0 10 0 0 15 0 15 15
0 15 0 0 -15 0 -15 15 0 15 0 0 15 0 15 -15 0 -15 0 0 10 0 10 15 0 15 0 0 15
0 15 10 0 10 0 0 -15 0 -15 15 0 15 0 0 -10 0 -10 -15 0 -15 0 0 -15 0 -15 15
0 15 0 0 15 0 15 15 0 15 0 0 -15 0 -15 10 0 10 0 0 15 0 15 15 0 15 0 0 -15
0 -15 15 0 15 0 0 15 0 15 -15 0 -15 0 0 10 0 10 15 0 15 0 0 15 0 15 10 0 10
0 0 -15 0 -15 15 0 15 0 0 -10 0 -10 -15 0 -15 0 0 -15 0 -15 15 0 15 0 0 15
0 15 15 0 15 0 0 -15 0 -15 10 0 10 0 0 15 0 15 15 0 15 0 0 -15 0 -15 15 0
15 0 0 15 0 15 -15 0 -15 0 0 10 0 10 15 0 15 0 0 15 0 15 10 0 10 0 0 -15 0
-15 15 0 15 0 0 -10 0 -10 -15 0 -15 0 0 -15 0 -15 15 0 15 0 0 15 0 15 15 0
15 0 0 -15 0 -15 10 0 10 0 0 15 0 15 15 0 15 0 0 -15 0 -15 15 0 15 0 0 15 0
15 -15 0 -15 0 0 10 0 10 15 0 15 0 0 15 0 15 10 0 10 0 0 -15 0 -15 15 0 15
0 0 -10 0 -10 -15 0 -15 0 0 -15 0 -15 15 0 15 0 0 15 0 15 15 0 15 0 0 -15 0
-15 10 0 10 0 0 15 0 15 15 0 15 0 0 -15 0 -15 15 0 15 0 0 15 0 15 -15 0 -15
0 0 10 0 10 15 0 15 0 0 15 0 15 -15 0 -15 0 0 15 0 15 15 0 15 0 0 10 0 10
-15 0 -15 0 0 15 0 15 15 0 15 0 0 15 0 15 -15 0 -15 0 0 10 0 10 15 0 15 0 0
15 0 15 -15 0 -15 0 0 -15 0 -15 -15 0 -15 0 0 15 0 15 -10 0 -10 0 0 -14 0
-14 13 -6 12 -6 -12 -6 -13 -6 0 -14 0 -14 -15 0 -15 0 0 15 0 15 -15 0 -15 0
0 -15 0 -15 -10 0 -10 0 0 15 0 15 -15 0 -15 0 0 -15 0 -15 -15 0 -15 0 0 14
0 14 -12 6 -13 6 13 6 12 6 0 14 0 14 -10 0 -10 0 0 -15 0 -15 -15 0 -15 0 0
15 0 15 -15 0 -15 0 0 -15 0 -15 15 0 15 0 0 -10 0 -10 -15 0 -15 0 0 -15 0
-15 -10 0 -10 0 0 15 0 15 -15 0 -15 0 0 10 0 10 15 0 15 0 0 15 0 15 -15 0
-15 0 0 -15 0 -15 -15 0 -15 0 0 15 0 15 -10 0 -10 0 0 -14 0 -14 13 -6 12 -6
-12 -6 -13 -6 0 -14 0 -14 -15 0 -15 0 0 15 0 15 -15 0 -15 0 0 -15 0 -15 -10
0 -10 0 0 15 0 15 -15 0 -15 0 0 -15 0 -15 -15 0 -15 0 0 14 0 14 -12 6 -13 6
13 6 12 6 0 14 0 14 -10 0 -10 0 0 -15 0 -15 -15 0 -15 0 0 15 0 15 -15 0 -15
0 0 -15 0 -15 15 0 15 0 0 -10 0 -10 -15 0 -15 0 0 -15 0 -15 -10 0 -10 0 0
15 0 15 -15 0 -15 0 0 10 0 10 15 0 15 0 0 15 0 15 -15 0 -15 0 0 -15 0 -15
-15 0 -15 0 0 15 0 15 -10 0 -10 0 0 -14 0 -14 13 -6 12 -6 -12 -6 -13 -6 0
-14 0 -14 -15 0 -15 0 0 15 0 15 -15 0 -15 0 0 -15 0 -15 -10 0 -10 0 0 15 0
15 -15 0 -15 0 0 -15 0 -15 -15 0 -15 0 0 14 0 14 -12 6 -13 6 13 6 12 6 0 14
0 14 -10 0 -10 0 0 -15 0 -15 -15 0 -15 0 0 15 0 15 -15 0 -15 0 0 -15 0 -15
15 0 15 0 0 -10 0 -10 -15 0 -15 0 0 -15 0 -15 -10 0 -10 0 0 15 0 15 -15 0
-15 0 0 10 0 10 15 0 15 0 0 15 0 15 -15 0 -15 0 0 -15 0 -15 -15 0 -15 0 0
15 0 15 -10 0 -10 0 0 -14 0 -14 13 -6 12 -6 -12 -6 -13 -6 0 -14 0 -14 -15 0
-15 0 0 15 0 15 -15 0 -15 0 0 -15 0 -15 -10 0 -10 0 0 11 0 10 14 15 15 14
10 0 11 0 0 15 0 15 -15 0 -15 0 0 -11z m110 -54 l0 -15 15 0 15 0 0 -15 0
-15 -15 0 -15 0 0 -10 0 -10 15 0 15 0 0 -15 0 -15 -15 0 -15 0 0 -15 0 -15
-14 0 -14 0 -6 -12 -6 -13 -6 13 -6 12 -14 0 -14 0 0 15 0 15 -15 0 -15 0 0
15 0 15 15 0 15 0 0 10 0 10 -15 0 -15 0 0 15 0 15 15 0 15 0 0 -15 0 -15 15
0 15 0 0 15 0 15 10 0 10 0 0 15 0 15 15 0 15 0 0 -15z m110 0 l0 -15 10 0 10
0 0 -15 0 -15 15 0 15 0 0 15 0 15 15 0 15 0 0 -15 0 -15 -15 0 -15 0 0 -10 0
-10 15 0 15 0 0 -15 0 -15 -15 0 -15 0 0 -15 0 -15 -14 0 -14 0 -6 -12 -6 -13
-6 13 -6 12 -14 0 -14 0 0 15 0 15 -15 0 -15 0 0 14 0 14 -12 6 -13 6 13 6 12
6 0 14 0 14 15 0 15 0 0 15 0 15 15 0 15 0 0 -15z m210 0 l0 -15 15 0 15 0 0
-15 0 -15 -15 0 -15 0 0 -10 0 -10 15 0 15 0 0 -15 0 -15 -15 0 -15 0 0 -15 0
-15 -14 0 -14 0 -6 -12 -6 -13 -6 13 -6 12 -14 0 -14 0 0 15 0 15 -15 0 -15 0
0 14 0 14 -12 6 -13 6 13 6 12 6 0 14 0 14 15 0 15 0 0 -15 0 -15 15 0 15 0 0
15 0 15 10 0 10 0 0 15 0 15 15 0 15 0 0 -15z m110 0 l0 -15 10 0 10 0 0 -15
0 -15 15 0 15 0 0 15 0 15 15 0 15 0 0 -15 0 -15 -15 0 -15 0 0 -10 0 -10 15
0 15 0 0 -15 0 -15 -15 0 -15 0 0 -15 0 -15 -14 0 -14 0 -6 -12 -6 -13 -6 13
-6 12 -14 0 -14 0 0 15 0 15 -15 0 -15 0 0 14 0 14 -12 6 -13 6 13 6 12 6 0
14 0 14 15 0 15 0 0 15 0 15 15 0 15 0 0 -15z m210 0 l0 -15 15 0 15 0 0 -15
0 -15 -15 0 -15 0 0 -10 0 -10 15 0 15 0 0 -15 0 -15 -15 0 -15 0 0 -15 0 -15
-14 0 -14 0 -6 -12 -6 -13 -6 13 -6 12 -14 0 -14 0 0 15 0 15 -15 0 -15 0 0
14 0 14 -12 6 -13 6 13 6 12 6 0 14 0 14 15 0 15 0 0 -15 0 -15 15 0 15 0 0
15 0 15 10 0 10 0 0 15 0 15 15 0 15 0 0 -15z m110 0 l0 -15 10 0 10 0 0 -15
0 -15 15 0 15 0 0 15 0 15 15 0 15 0 0 -15 0 -15 -15 0 -15 0 0 -10 0 -10 15
0 15 0 0 -15 0 -15 -15 0 -15 0 0 -15 0 -15 -14 0 -14 0 -6 -12 -6 -13 -6 13
-6 12 -14 0 -14 0 0 15 0 15 -15 0 -15 0 0 14 0 14 -12 6 -13 6 13 6 12 6 0
14 0 14 15 0 15 0 0 15 0 15 15 0 15 0 0 -15z m210 0 l0 -15 -15 0 -15 0 0
-15 0 -15 15 0 15 0 0 -10 0 -10 -15 0 -15 0 0 -15 0 -15 15 0 15 0 0 -15 0
-15 -14 0 -14 0 -6 -12 -6 -13 -6 13 -6 12 -14 0 -14 0 0 15 0 15 -15 0 -15 0
0 14 0 14 -12 6 -13 6 13 6 12 6 0 14 0 14 15 0 15 0 0 -15 0 -15 15 0 15 0 0
15 0 15 10 0 10 0 0 15 0 15 15 0 15 0 0 -15z m-1090 -29 l0 -14 13 -6 12 -6
-12 -6 -13 -6 0 -14 0 -14 -15 0 -15 0 0 15 0 15 15 0 15 0 0 10 0 10 -15 0
-15 0 0 15 0 15 15 0 15 0 0 -14z"/>
<path d="M210 309 l0 -10 -14 -15 -15 -14 -10 0 -11 0 0 -15 0 -15 15 0 15 0
0 -15 0 -15 10 0 10 0 0 15 0 15 15 0 15 0 0 15 0 15 -15 0 -15 0 0 -15 0 -15
-10 0 -10 0 0 11 0 10 14 15 15 14 10 0 11 0 0 15 0 15 -15 0 -15 0 0 -11z"/>
<path d="M320 305 l0 -15 -15 0 -15 0 0 -10 0 -10 15 0 15 0 0 -15 0 -15 15 0
15 0 0 -15 0 -15 10 0 10 0 0 15 0 15 15 0 15 0 0 15 0 15 -11 0 -10 0 -15 14
-14 15 0 10 0 11 -15 0 -15 0 0 -15z m36 -29 l14 -15 0 -10 0 -11 -10 0 -10 0
0 15 0 15 -15 0 -15 0 0 10 0 10 11 0 10 0 15 -14z"/>
<path d="M530 309 l0 -10 -14 -15 -15 -14 -10 0 -11 0 0 10 0 10 -15 0 -15 0
0 -10 0 -10 15 0 15 0 0 -15 0 -15 15 0 15 0 0 -15 0 -15 10 0 10 0 0 15 0 15
15 0 15 0 0 15 0 15 -15 0 -15 0 0 -15 0 -15 -10 0 -10 0 0 11 0 10 14 15 15
14 10 0 11 0 0 15 0 15 -15 0 -15 0 0 -11z"/>
<path d="M640 305 l0 -15 -15 0 -15 0 0 -10 0 -10 15 0 15 0 0 -15 0 -15 15 0
15 0 0 -15 0 -15 10 0 10 0 0 15 0 15 15 0 15 0 0 15 0 15 -11 0 -10 0 -15 14
-14 15 0 10 0 11 -15 0 -15 0 0 -15z m36 -29 l14 -15 0 -10 0 -11 -10 0 -10 0
0 15 0 15 -15 0 -15 0 0 10 0 10 11 0 10 0 15 -14z"/>
<path d="M850 309 l0 -10 -14 -15 -15 -14 -10 0 -11 0 0 10 0 10 -15 0 -15 0
0 -10 0 -10 15 0 15 0 0 -15 0 -15 15 0 15 0 0 -15 0 -15 10 0 10 0 0 15 0 15
15 0 15 0 0 15 0 15 -15 0 -15 0 0 -15 0 -15 -10 0 -10 0 0 11 0 10 14 15 15
14 10 0 11 0 0 15 0 15 -15 0 -15 0 0 -11z"/>
<path d="M960 305 l0 -15 -15 0 -15 0 0 -10 0 -10 15 0 15 0 0 -15 0 -15 15 0
15 0 0 -15 0 -15 10 0 10 0 0 15 0 15 15 0 15 0 0 15 0 15 -11 0 -10 0 -15 14
-14 15 0 10 0 11 -15 0 -15 0 0 -15z m36 -29 l14 -15 0 -10 0 -11 -10 0 -10 0
0 15 0 15 -15 0 -15 0 0 10 0 10 11 0 10 0 15 -14z"/>
<path d="M1090 280 l0 -10 15 0 15 0 0 -15 0 -15 15 0 15 0 0 -15 0 -15 10 0
10 0 0 15 0 15 -10 0 -10 0 0 14 0 14 13 5 12 4 -9 9 -9 9 -4 -12 -5 -13 -14
0 -14 0 0 10 0 10 -15 0 -15 0 0 -10z"/>
<path d="M400 385 l0 -15 14 0 14 0 6 -12 6 -13 6 13 6 12 14 0 14 0 0 15 0
15 -15 0 -15 0 0 -15 0 -15 -10 0 -10 0 0 15 0 15 -15 0 -15 0 0 -15z"/>
<path d="M720 385 l0 -15 14 0 14 0 6 -12 6 -13 6 13 6 12 14 0 14 0 0 15 0
15 -15 0 -15 0 0 -15 0 -15 -10 0 -10 0 0 15 0 15 -15 0 -15 0 0 -15z"/>
<path d="M1040 385 l0 -15 14 0 14 0 6 -12 6 -13 6 13 6 12 14 0 14 0 0 15 0
15 -15 0 -15 0 0 -15 0 -15 -10 0 -10 0 0 15 0 15 -15 0 -15 0 0 -15z"/>
<path d="M110 200 l0 -10 10 0 10 0 0 10 0 10 -10 0 -10 0 0 -10z"/>
<path d="M270 200 l0 -10 10 0 10 0 0 10 0 10 -10 0 -10 0 0 -10z"/>
<path d="M430 200 l0 -10 10 0 10 0 0 10 0 10 -10 0 -10 0 0 -10z"/>
<path d="M590 200 l0 -10 10 0 10 0 0 10 0 10 -10 0 -10 0 0 -10z"/>
<path d="M750 200 l0 -10 10 0 10 0 0 10 0 10 -10 0 -10 0 0 -10z"/>
<path d="M910 200 l0 -10 10 0 10 0 0 10 0 10 -10 0 -10 0 0 -10z"/>
<path d="M1070 200 l0 -10 10 0 10 0 0 10 0 10 -10 0 -10 0 0 -10z"/>
</g>
</svg>
