<?xml version="1.0" standalone="no"?>
<!DOCTYPE svg PUBLIC "-//W3C//DTD SVG 20010904//EN"
 "http://www.w3.org/TR/2001/REC-SVG-20010904/DTD/svg10.dtd">
<svg version="1.0" xmlns="http://www.w3.org/2000/svg"
 width="468pt" height="468pt" viewBox="0 0 468 468"
 preserveAspectRatio="xMidYMid meet">
<metadata>
Created by potrace 1.8, written by Peter Selinger 2001-2007
</metadata>
<g transform="translate(0,468) scale(0.365625,-0.365625)"
fill="#000000" stroke="none">
<path d="M320 1095 l0 -185 -25 0 -25 0 0 -55 0 -55 -30 0 -30 0 0 -55 0 -55
-25 0 -25 0 0 -50 0 -50 -25 0 -25 0 0 -55 0 -55 -30 0 -30 0 0 -135 0 -135
30 0 30 0 0 -25 0 -25 25 0 25 0 0 -25 0 -25 25 0 25 0 0 -30 0 -30 55 0 55 0
0 -25 0 -25 25 0 25 0 0 25 0 25 30 0 30 0 0 55 0 55 25 0 25 0 0 55 0 55 25
0 25 0 0 50 0 50 30 0 30 0 0 55 0 55 25 0 25 0 0 -240 0 -240 25 0 25 0 0 25
0 25 30 0 30 0 0 30 0 30 -30 0 -30 0 0 25 0 25 30 0 30 0 0 25 0 25 -30 0
-30 0 0 30 0 30 30 0 30 0 0 25 0 25 -30 0 -30 0 0 25 0 25 30 0 30 0 0 30 0
30 -30 0 -30 0 0 25 0 25 80 0 80 0 0 -240 0 -240 55 0 55 0 0 25 0 25 -25 0
-25 0 0 30 0 30 25 0 25 0 0 25 0 25 160 0 160 0 0 25 0 25 -160 0 -160 0 0
30 0 30 -25 0 -25 0 0 25 0 25 25 0 25 0 0 25 0 25 -25 0 -25 0 0 30 0 30 25
0 25 0 0 50 0 50 25 0 25 0 0 30 0 30 30 0 30 0 0 25 0 25 25 0 25 0 0 -55 0
-55 25 0 25 0 0 55 0 55 -25 0 -25 0 0 25 0 25 80 0 80 0 0 30 0 30 -55 0 -55
0 0 80 0 80 55 0 55 0 0 25 0 25 -25 0 -25 0 0 25 0 25 -30 0 -30 0 0 -25 0
-25 -25 0 -25 0 0 55 0 55 -25 0 -25 0 0 25 0 25 -30 0 -30 0 0 25 0 25 -50 0
-50 0 0 55 0 55 -30 0 -30 0 0 -25 0 -25 -80 0 -80 0 0 25 0 25 -25 0 -25 0 0
-25 0 -25 -55 0 -55 0 0 -30 0 -30 -50 0 -50 0 0 -50 0 -50 -30 0 -30 0 0 105
0 105 -25 0 -25 0 0 -185z m590 50 l0 -25 50 0 50 0 0 -25 0 -25 30 0 30 0 0
-55 0 -55 25 0 25 0 0 -105 0 -105 -25 0 -25 0 0 -30 0 -30 -30 0 -30 0 0 -25
0 -25 -185 0 -185 0 0 -25 0 -25 160 0 160 0 0 -30 0 -30 -185 0 -185 0 0 -25
0 -25 -30 0 -30 0 0 -55 0 -55 -25 0 -25 0 0 -50 0 -50 -25 0 -25 0 0 -55 0
-55 -30 0 -30 0 0 -55 0 -55 -25 0 -25 0 0 30 0 30 -55 0 -55 0 0 25 0 25 -25
0 -25 0 0 25 0 25 -25 0 -25 0 0 80 0 80 25 0 25 0 0 55 0 55 25 0 25 0 0 55
0 55 30 0 30 0 0 50 0 50 25 0 25 0 0 110 0 110 25 0 25 0 0 -30 0 -30 30 0
30 0 0 110 0 110 25 0 25 0 0 25 0 25 25 0 25 0 0 25 0 25 190 0 190 0 0 -25z"/>
<path d="M590 1095 l0 -25 -30 0 -30 0 0 -30 0 -30 -25 0 -25 0 0 -80 0 -80
-25 0 -25 0 0 -50 0 -50 25 0 25 0 0 -30 0 -30 25 0 25 0 0 -25 0 -25 55 0 55
0 0 25 0 25 -55 0 -55 0 0 30 0 30 -25 0 -25 0 0 50 0 50 25 0 25 0 0 -25 0
-25 30 0 30 0 0 -25 0 -25 50 0 50 0 0 -30 0 -30 135 0 135 0 0 30 0 30 25 0
25 0 0 25 0 25 30 0 30 0 0 80 0 80 -30 0 -30 0 0 25 0 25 -25 0 -25 0 0 30 0
30 -55 0 -55 0 0 25 0 25 -130 0 -130 0 0 -25z m260 -110 l0 -25 30 0 30 0 0
-25 0 -25 25 0 25 0 0 -55 0 -55 -25 0 -25 0 0 -25 0 -25 -110 0 -110 0 0 25
0 25 -50 0 -50 0 0 25 0 25 -30 0 -30 0 0 80 0 80 160 0 160 0 0 -25z"/>
<path d="M320 665 l0 -25 25 0 25 0 0 25 0 25 -25 0 -25 0 0 -25z"/>
<path d="M270 560 l0 -30 25 0 25 0 0 30 0 30 -25 0 -25 0 0 -30z"/>
<path d="M480 505 l0 -25 25 0 25 0 0 25 0 25 -25 0 -25 0 0 -25z"/>
<path d="M210 455 l0 -25 30 0 30 0 0 25 0 25 -30 0 -30 0 0 -25z"/>
<path d="M430 400 l0 -30 25 0 25 0 0 30 0 30 -25 0 -25 0 0 -30z"/>
<path d="M160 345 l0 -25 25 0 25 0 0 25 0 25 -25 0 -25 0 0 -25z"/>
<path d="M370 295 l0 -25 30 0 30 0 0 25 0 25 -30 0 -30 0 0 -25z"/>
<path d="M320 185 l0 -25 25 0 25 0 0 25 0 25 -25 0 -25 0 0 -25z"/>
<path d="M530 80 l0 -30 -25 0 -25 0 0 -25 0 -25 25 0 25 0 0 25 0 25 30 0 30
0 0 30 0 30 -30 0 -30 0 0 -30z"/>
</g>
</svg>
