<?xml version="1.0" standalone="no"?>
<!DOCTYPE svg PUBLIC "-//W3C//DTD SVG 20010904//EN"
 "http://www.w3.org/TR/2001/REC-SVG-20010904/DTD/svg10.dtd">
<svg version="1.0" xmlns="http://www.w3.org/2000/svg"
 width="468pt" height="468pt" viewBox="0 0 468 468"
 preserveAspectRatio="xMidYMid meet">
<metadata>
Created by potrace 1.8, written by Peter Selinger 2001-2007
</metadata>
<g transform="translate(0,468) scale(0.365625,-0.365625)"
fill="#000000" stroke="none">
<path d="M0 1231 l0 -49 13 -6 12 -6 -12 -6 -13 -6 0 -379 0 -379 9 0 9 0 5
13 4 12 8 -7 8 -8 -21 -19 -22 -18 0 -116 0 -115 13 -6 12 -6 -13 -6 -12 -6 0
-59 0 -59 499 0 499 0 6 13 6 12 6 -12 6 -13 115 0 114 0 15 14 14 15 0 84 0
85 -12 6 -13 6 13 6 12 6 0 378 0 378 -12 6 -13 6 13 6 12 6 0 139 0 139 -9 0
-9 0 -6 -12 -6 -13 -6 13 -6 12 -178 0 -178 0 -6 -12 -6 -13 -6 13 -6 12 -429
0 -429 0 0 -49z m200 19 l0 -10 -10 0 -10 0 0 10 0 10 10 0 10 0 0 -10z m600
4 l0 -5 -15 -16 -16 -15 -5 5 -6 6 13 15 14 15 8 1 7 0 0 -6z m-380 -24 l0
-10 -10 0 -10 0 0 10 0 10 10 0 10 0 0 -10z m680 0 l0 -10 -10 0 -10 0 0 10 0
10 10 0 10 0 0 -10z m-500 -20 l0 -10 -10 0 -10 0 0 10 0 10 10 0 10 0 0 -10z
m640 0 l0 -10 -10 0 -10 0 0 10 0 10 10 0 10 0 0 -10z m-1100 -20 l0 -10 -10
0 -10 0 0 10 0 10 10 0 10 0 0 -10z m400 0 l0 -10 -10 0 -10 0 0 10 0 10 10 0
10 0 0 -10z m-180 -16 l0 -5 -15 -16 -16 -15 -5 5 -6 6 13 15 14 15 8 1 7 0 0
-6z m120 -4 l0 -10 -10 0 -10 0 0 10 0 10 10 0 10 0 0 -10z m460 0 l0 -10 -10
0 -10 0 0 10 0 10 10 0 10 0 0 -10z m-760 -20 l0 -10 -10 0 -10 0 0 10 0 10
10 0 10 0 0 -10z m380 0 l0 -10 -10 0 -10 0 0 10 0 10 10 0 10 0 0 -10z m240
0 l0 -10 -10 0 -10 0 0 10 0 10 10 0 10 0 0 -10z m260 0 l0 -10 -10 0 -10 0 0
10 0 10 10 0 10 0 0 -10z m-840 -20 l0 -10 -10 0 -10 0 0 10 0 10 10 0 10 0 0
-10z m980 0 l0 -10 -10 0 -10 0 0 10 0 10 10 0 10 0 0 -10z m-420 -20 l0 -10
-10 0 -10 0 0 10 0 10 10 0 10 0 0 -10z m320 0 l0 -10 -10 0 -10 0 0 10 0 10
10 0 10 0 0 -10z m-1020 -20 l0 -10 -10 0 -10 0 0 10 0 10 10 0 10 0 0 -10z
m460 0 l0 -10 -10 0 -10 0 0 10 0 10 10 0 10 0 0 -10z m300 0 l0 -10 -10 0
-10 0 0 10 0 10 10 0 10 0 0 -10z m-420 -20 l0 -10 -10 0 -10 0 0 10 0 10 10
0 10 0 0 -10z m560 0 l0 -10 -10 0 -10 0 0 10 0 10 10 0 10 0 0 -10z m-320
-20 l0 -10 -10 0 -10 0 0 10 0 10 10 0 10 0 0 -10z m220 -20 l0 -10 -10 0 -10
0 0 10 0 10 10 0 10 0 0 -10z m300 0 l0 -10 -10 0 -10 0 0 10 0 10 10 0 10 0
0 -10z m-1040 -20 l0 -10 -10 0 -10 0 0 10 0 10 10 0 10 0 0 -10z m180 0 l0
-10 -10 0 -10 0 0 10 0 10 10 0 10 0 0 -10z m420 0 l0 -10 -10 0 -10 0 0 10 0
10 10 0 10 0 0 -10z m80 0 l0 -10 -10 0 -10 0 0 10 0 10 10 0 10 0 0 -10z
m-600 -20 l0 -10 -10 0 -10 0 0 10 0 10 10 0 10 0 0 -10z m220 0 l0 -10 -10 0
-10 0 0 10 0 10 10 0 10 0 0 -10z m120 0 l0 -10 -10 0 -10 0 0 10 0 10 10 0
10 0 0 -10z m100 0 l0 -10 -10 0 -10 0 0 10 0 10 10 0 10 0 0 -10z m100 -20
l0 -10 -10 0 -10 0 0 10 0 10 10 0 10 0 0 -10z m-500 -20 l0 -10 -10 0 -10 0
0 10 0 10 10 0 10 0 0 -10z m680 0 l0 -10 -10 0 -10 0 0 10 0 10 10 0 10 0 0
-10z m160 0 l0 -10 -10 0 -10 0 0 10 0 10 10 0 10 0 0 -10z m100 -20 l0 -10
-10 0 -10 0 0 10 0 10 10 0 10 0 0 -10z m-640 -20 l0 -10 -10 0 -10 0 0 10 0
10 10 0 10 0 0 -10z m420 4 l0 -5 -15 -16 -16 -15 -5 5 -6 6 13 15 14 15 8 1
7 0 0 -6z m-820 -24 l0 -10 -10 0 -10 0 0 10 0 10 10 0 10 0 0 -10z m200 0 l0
-10 -10 0 -10 0 0 10 0 10 10 0 10 0 0 -10z m140 0 l0 -10 -10 0 -10 0 0 10 0
10 10 0 10 0 0 -10z m200 0 l0 -10 -10 0 -10 0 0 10 0 10 10 0 10 0 0 -10z
m340 0 l0 -10 -10 0 -10 0 0 10 0 10 10 0 10 0 0 -10z m-980 -16 l0 -5 -15
-16 -16 -15 -5 5 -6 6 13 15 14 15 8 1 7 0 0 -6z m200 -24 l0 -10 -10 0 -10 0
0 10 0 10 10 0 10 0 0 -10z m460 0 l0 -10 -10 0 -10 0 0 10 0 10 10 0 10 0 0
-10z m-80 -20 l0 -10 -10 0 -10 0 0 10 0 10 10 0 10 0 0 -10z m360 -20 l0 -10
-10 0 -10 0 0 10 0 10 10 0 10 0 0 -10z m160 0 l0 -10 -10 0 -10 0 0 10 0 10
10 0 10 0 0 -10z m-980 -20 l0 -10 -10 0 -10 0 0 10 0 10 10 0 10 0 0 -10z
m120 0 l0 -10 -10 0 -10 0 0 10 0 10 10 0 10 0 0 -10z m240 0 l0 -10 -10 0
-10 0 0 10 0 10 10 0 10 0 0 -10z m220 0 l0 -10 -10 0 -10 0 0 10 0 10 10 0
10 0 0 -10z m140 0 l0 -10 -10 0 -10 0 0 10 0 10 10 0 10 0 0 -10z m-820 -20
l0 -10 -10 0 -10 0 0 10 0 10 10 0 10 0 0 -10z m1120 0 l0 -10 -10 0 -10 0 0
10 0 10 10 0 10 0 0 -10z m-1000 -20 l0 -10 -10 0 -10 0 0 10 0 10 10 0 10 0
0 -10z m180 0 l0 -10 -10 0 -10 0 0 10 0 10 10 0 10 0 0 -10z m200 0 l0 -10
-10 0 -10 0 0 10 0 10 10 0 10 0 0 -10z m80 0 l0 -10 -10 0 -10 0 0 10 0 10
10 0 10 0 0 -10z m80 0 l0 -10 -10 0 -10 0 0 10 0 10 10 0 10 0 0 -10z m420 0
l0 -10 -10 0 -10 0 0 10 0 10 10 0 10 0 0 -10z m100 0 l0 -10 -10 0 -10 0 0
10 0 10 10 0 10 0 0 -10z m-200 -20 l0 -10 -10 0 -10 0 0 10 0 10 10 0 10 0 0
-10z m-780 -20 l0 -10 -10 0 -10 0 0 10 0 10 10 0 10 0 0 -10z m680 0 l0 -10
-10 0 -10 0 0 10 0 10 10 0 10 0 0 -10z m-480 -20 l0 -10 -10 0 -10 0 0 10 0
10 10 0 10 0 0 -10z m640 0 l0 -10 -10 0 -10 0 0 10 0 10 10 0 10 0 0 -10z
m-400 -20 l0 -10 -10 0 -10 0 0 10 0 10 10 0 10 0 0 -10z m120 0 l0 -10 -10 0
-10 0 0 10 0 10 10 0 10 0 0 -10z m-780 -20 l0 -10 -10 0 -10 0 0 10 0 10 10
0 10 0 0 -10z m80 -20 l0 -10 -10 0 -10 0 0 10 0 10 10 0 10 0 0 -10z m180 0
l0 -10 -10 0 -10 0 0 10 0 10 10 0 10 0 0 -10z m467 -5 l15 -16 -5 -6 -6 -5
-16 15 -15 16 0 5 0 6 6 0 5 0 16 -15z m213 5 l0 -10 -10 0 -10 0 0 10 0 10
10 0 10 0 0 -10z m140 0 l0 -10 -10 0 -10 0 0 10 0 10 10 0 10 0 0 -10z
m-1100 -40 l0 -10 -10 0 -10 0 0 10 0 10 10 0 10 0 0 -10z m380 0 l0 -10 -10
0 -10 0 0 10 0 10 10 0 10 0 0 -10z m220 0 l0 -10 -10 0 -10 0 0 10 0 10 10 0
10 0 0 -10z m-400 -20 l0 -10 -10 0 -10 0 0 10 0 10 10 0 10 0 0 -10z m320 0
l0 -10 -10 0 -10 0 0 10 0 10 10 0 10 0 0 -10z m320 0 l0 -10 -10 0 -10 0 0
10 0 10 10 0 10 0 0 -10z m-480 -20 l0 -10 -10 0 -10 0 0 10 0 10 10 0 10 0 0
-10z m-260 -20 l0 -10 -10 0 -10 0 0 10 0 10 10 0 10 0 0 -10z m180 0 l0 -10
-10 0 -10 0 0 10 0 10 10 0 10 0 0 -10z m340 0 l0 -10 -10 0 -10 0 0 10 0 10
10 0 10 0 0 -10z m440 0 l0 -10 -10 0 -10 0 0 10 0 10 10 0 10 0 0 -10z m-600
-20 l0 -10 -10 0 -10 0 0 10 0 10 10 0 10 0 0 -10z m240 0 l0 -10 -10 0 -10 0
0 10 0 10 10 0 10 0 0 -10z m260 0 l0 -10 -10 0 -10 0 0 10 0 10 10 0 10 0 0
-10z m200 0 l0 -10 -10 0 -10 0 0 10 0 10 10 0 10 0 0 -10z m-240 -20 l0 -10
-10 0 -10 0 0 10 0 10 10 0 10 0 0 -10z m-260 -20 l0 -10 -10 0 -10 0 0 10 0
10 10 0 10 0 0 -10z m-620 -20 l0 -10 -10 0 -10 0 0 10 0 10 10 0 10 0 0 -10z
m160 0 l0 -10 -10 0 -10 0 0 10 0 10 10 0 10 0 0 -10z m160 0 l0 -10 -10 0
-10 0 0 10 0 10 10 0 10 0 0 -10z m440 4 l0 -5 -15 -16 -16 -15 -5 5 -6 6 13
15 14 15 8 1 7 0 0 -6z m240 -4 l0 -10 -10 0 -10 0 0 10 0 10 10 0 10 0 0 -10z
m-580 -20 l0 -10 -10 0 -10 0 0 10 0 10 10 0 10 0 0 -10z m-340 -20 l0 -10
-10 0 -10 0 0 10 0 10 10 0 10 0 0 -10z m40 0 l0 -10 -10 0 -10 0 0 10 0 10
10 0 10 0 0 -10z m440 0 l0 -10 -10 0 -10 0 0 10 0 10 10 0 10 0 0 -10z m600
0 l0 -10 -10 0 -10 0 0 10 0 10 10 0 10 0 0 -10z m-980 -20 l0 -10 -10 0 -10
0 0 10 0 10 10 0 10 0 0 -10z m680 -20 l0 -10 -10 0 -10 0 0 10 0 10 10 0 10
0 0 -10z m220 0 l0 -10 -10 0 -10 0 0 10 0 10 10 0 10 0 0 -10z m-1100 -20 l0
-10 -10 0 -10 0 0 10 0 10 10 0 10 0 0 -10z m320 0 l0 -10 -10 0 -10 0 0 10 0
10 10 0 10 0 0 -10z m400 0 l0 -10 -10 0 -10 0 0 10 0 10 10 0 10 0 0 -10z
m260 4 l0 -5 -15 -16 -16 -15 -5 5 -6 6 13 15 14 15 8 1 7 0 0 -6z m-440 -24
l0 -10 -10 0 -10 0 0 10 0 10 10 0 10 0 0 -10z m620 0 l0 -10 -10 0 -10 0 0
10 0 10 10 0 10 0 0 -10z m-1100 -40 l0 -10 -10 0 -10 0 0 10 0 10 10 0 10 0
0 -10z m380 0 l0 -10 -10 0 -10 0 0 10 0 10 10 0 10 0 0 -10z m360 0 l0 -10
-10 0 -10 0 0 10 0 10 10 0 10 0 0 -10z m-540 -20 l0 -10 -10 0 -10 0 0 10 0
10 10 0 10 0 0 -10z m800 0 l0 -10 -10 0 -10 0 0 10 0 10 10 0 10 0 0 -10z
m-1020 -20 l0 -10 -10 0 -10 0 0 10 0 10 10 0 10 0 0 -10z m840 0 l0 -10 -10
0 -10 0 0 10 0 10 10 0 10 0 0 -10z m100 0 l0 -10 -10 0 -10 0 0 10 0 10 10 0
10 0 0 -10z m-820 -20 l0 -10 -10 0 -10 0 0 10 0 10 10 0 10 0 0 -10z m447 -5
l15 -16 -5 -6 -6 -5 -16 15 -15 16 0 5 0 6 6 0 5 0 16 -15z m133 5 l0 -10 -10
0 -10 0 0 10 0 10 10 0 10 0 0 -10z m-360 -20 l0 -10 -10 0 -10 0 0 10 0 10
10 0 10 0 0 -10z m540 0 l0 -10 -10 0 -10 0 0 10 0 10 10 0 10 0 0 -10z m140
0 l0 -10 -10 0 -10 0 0 10 0 10 10 0 10 0 0 -10z m-1000 -20 l0 -10 -10 0 -10
0 0 10 0 10 10 0 10 0 0 -10z m80 0 l0 -10 -10 0 -10 0 0 10 0 10 10 0 10 0 0
-10z m60 0 l0 -10 -10 0 -10 0 0 10 0 10 10 0 10 0 0 -10z m260 -40 l0 -10
-10 0 -10 0 0 10 0 10 10 0 10 0 0 -10z m280 0 l0 -10 -10 0 -10 0 0 10 0 10
10 0 10 0 0 -10z m280 0 l0 -10 -10 0 -10 0 0 10 0 10 10 0 10 0 0 -10z
m-1000 -20 l0 -10 -10 0 -10 0 0 10 0 10 10 0 10 0 0 -10z m220 0 l0 -10 -10
0 -10 0 0 10 0 10 10 0 10 0 0 -10z m80 -20 l0 -10 -10 0 -10 0 0 10 0 10 10
0 10 0 0 -10z m580 0 l0 -10 -10 0 -10 0 0 10 0 10 10 0 10 0 0 -10z m-620
-20 l0 -10 -10 0 -10 0 0 10 0 10 10 0 10 0 0 -10z m280 0 l0 -10 -10 0 -10 0
0 10 0 10 10 0 10 0 0 -10z m280 0 l0 -10 -10 0 -10 0 0 10 0 10 10 0 10 0 0
-10z m240 0 l0 -10 -10 0 -10 0 0 10 0 10 10 0 10 0 0 -10z m80 0 l0 -10 -10
0 -10 0 0 10 0 10 10 0 10 0 0 -10z m-1180 -20 l0 -10 -10 0 -10 0 0 10 0 10
10 0 10 0 0 -10z m460 0 l0 -10 -10 0 -10 0 0 10 0 10 10 0 10 0 0 -10z m-300
-20 l0 -10 -10 0 -10 0 0 10 0 10 10 0 10 0 0 -10z m80 4 l0 -5 -15 -16 -16
-15 -5 5 -6 6 13 15 14 15 8 1 7 0 0 -6z m420 -4 l0 -10 -10 0 -10 0 0 10 0
10 10 0 10 0 0 -10z m-260 -20 l0 -10 -10 0 -10 0 0 10 0 10 10 0 10 0 0 -10z"/>
</g>
</svg>
