<?xml version="1.0" standalone="no"?>
<!DOCTYPE svg PUBLIC "-//W3C//DTD SVG 20010904//EN"
 "http://www.w3.org/TR/2001/REC-SVG-20010904/DTD/svg10.dtd">
<svg version="1.0" xmlns="http://www.w3.org/2000/svg"
 width="468pt" height="468pt" viewBox="0 0 468 468"
 preserveAspectRatio="xMidYMid meet">
<metadata>
Created by potrace 1.8, written by Peter Selinger 2001-2007
</metadata>
<g transform="translate(0,468) scale(0.365625,-0.365625)"
fill="#000000" stroke="none">
<path d="M340 1090 l0 -10 -15 0 -16 0 -24 -25 -25 -24 0 -16 0 -15 -10 0 -10
0 0 -40 0 -40 -15 0 -16 0 -24 -25 -25 -24 0 -13 0 -14 -20 -14 -20 -14 0 -18
0 -18 -10 0 -10 0 0 -20 0 -20 -10 0 -10 0 0 -50 0 -50 10 0 10 0 0 -20 0 -20
10 0 10 0 0 -20 0 -20 10 0 10 0 0 -18 0 -18 20 -14 20 -14 0 -14 0 -13 14
-15 15 -14 11 0 12 0 38 -40 38 -40 16 0 16 0 0 -10 0 -10 18 0 18 0 14 -20
14 -20 26 0 26 0 14 -20 14 -20 28 0 28 0 0 -10 0 -10 20 0 20 0 0 -10 0 -10
50 0 50 0 0 10 0 10 40 0 40 0 0 10 0 10 30 0 30 0 0 10 0 10 18 0 18 0 14 20
14 20 18 0 18 0 0 10 0 10 20 0 20 0 0 20 0 20 15 0 16 0 44 45 45 44 0 14 0
13 20 14 20 14 0 16 0 16 20 14 20 14 0 48 0 48 -10 0 -10 0 0 20 0 20 -10 0
-10 0 0 20 0 20 -10 0 -10 0 0 18 0 18 -20 14 -20 14 0 18 0 18 -20 0 -20 0 0
20 0 20 -20 0 -20 0 0 50 0 50 -10 0 -10 0 0 15 0 16 -25 24 -24 25 -16 0 -15
0 0 10 0 10 -50 0 -50 0 0 -10 0 -10 -16 0 -17 0 -20 -22 -20 -23 -4 13 -5 12
-79 0 -79 0 0 -10 0 -10 -18 0 -18 0 -14 20 -14 20 -18 0 -18 0 0 10 0 10 -50
0 -50 0 0 -10z m110 -30 l14 -20 18 0 18 0 0 -20 0 -20 10 0 10 0 0 -50 0 -50
-10 0 -10 0 0 -16 0 -15 -14 -15 -15 -14 -15 0 -16 0 0 -10 0 -10 -50 0 -50 0
0 10 0 10 -16 0 -15 0 -15 14 -14 15 0 15 0 16 -10 0 -10 0 0 50 0 50 10 0 10
0 0 16 0 15 14 15 15 14 15 0 16 0 0 10 0 10 48 0 48 0 14 -20z m430 10 l0
-10 16 0 15 0 15 -14 14 -15 0 -15 0 -16 10 0 10 0 0 -50 0 -50 -10 0 -10 0 0
-16 0 -15 -14 -15 -15 -14 -15 0 -16 0 0 -10 0 -10 -50 0 -50 0 0 10 0 10 -16
0 -15 0 -15 14 -14 15 0 15 0 16 -10 0 -10 0 0 50 0 50 10 0 10 0 0 16 0 15
14 15 15 14 15 0 16 0 0 10 0 10 50 0 50 0 0 -10z m-192 -47 l17 -16 -13 -5
-12 -4 0 -49 0 -49 10 0 10 0 0 -15 0 -16 25 -24 24 -25 16 0 15 0 0 -10 0
-10 50 0 50 0 0 10 0 10 15 0 16 0 24 25 25 24 0 16 0 15 5 0 6 0 44 -45 45
-44 0 -14 0 -13 20 -14 20 -14 0 -18 0 -18 10 0 10 0 0 -30 0 -30 10 0 10 0 0
-30 0 -30 -10 0 -10 0 0 -20 0 -20 -10 0 -10 0 0 -16 0 -16 -40 -38 -40 -38 0
-16 0 -16 -16 0 -16 0 -38 -40 -38 -40 -14 0 -14 0 -14 -20 -14 -20 -18 0 -18
0 0 -10 0 -10 -30 0 -30 0 0 -10 0 -10 -60 0 -60 0 0 -10 0 -10 -20 0 -20 0 0
10 0 10 -30 0 -30 0 0 10 0 10 -20 0 -20 0 0 10 0 10 -20 0 -20 0 0 10 0 10
-28 0 -28 0 -14 20 -14 20 -16 0 -16 0 -14 20 -14 20 -13 0 -14 0 -44 45 -45
44 0 14 0 13 -20 14 -20 14 0 16 0 16 -20 14 -20 14 0 18 0 18 -10 0 -10 0 0
48 0 48 20 14 20 14 0 23 0 24 45 44 44 45 16 0 15 0 0 -15 0 -16 25 -24 24
-25 16 0 15 0 0 -10 0 -10 50 0 50 0 0 10 0 10 15 0 16 0 24 25 25 24 0 16 0
15 10 0 10 0 0 50 0 50 -10 0 -10 0 0 10 0 10 20 0 20 0 0 10 0 10 56 0 55 0
17 -17z"/>
<path d="M393 985 l-13 -14 0 -25 0 -24 -12 -5 -13 -4 8 -9 8 -8 10 14 9 15 9
-14 9 -14 16 16 16 16 0 24 0 25 13 5 12 4 -8 9 -8 8 -10 -14 -11 -15 -5 13
-5 12 -6 0 -7 -1 -12 -14z"/>
<path d="M800 990 l0 -10 10 0 10 0 0 -26 0 -25 16 -16 16 -16 9 14 9 14 9
-15 10 -14 8 8 8 9 -12 4 -13 5 0 25 0 24 -16 16 -16 16 -10 -14 -10 -14 -5
13 -5 12 -9 0 -9 0 0 -10z"/>
<path d="M170 723 l-14 -17 12 -4 12 -4 0 -34 0 -35 25 -24 24 -25 12 0 11 0
28 -30 28 -30 16 0 16 0 0 -15 0 -16 25 -24 24 -25 12 0 11 0 28 -30 28 -30
16 0 16 0 0 -10 0 -10 20 0 20 0 0 -10 0 -10 30 0 30 0 0 -10 0 -10 40 0 40 0
0 10 0 10 40 0 40 0 0 20 0 20 20 0 20 0 0 10 0 10 20 0 20 0 0 20 0 20 20 0
20 0 0 10 0 10 20 0 20 0 0 20 0 20 20 0 20 0 0 20 0 20 20 0 20 0 0 10 0 10
15 0 16 0 34 35 35 34 0 23 0 24 -20 14 -20 14 0 18 0 18 -20 0 -20 0 0 -8 0
-8 20 -14 20 -14 0 -18 0 -18 -30 0 -30 0 0 -10 0 -10 -30 0 -30 0 0 -10 0
-10 -70 0 -70 0 0 -10 0 -10 -90 0 -90 0 0 10 0 10 -120 0 -120 0 0 10 0 10
-40 0 -40 0 0 10 0 10 -30 0 -30 0 0 10 0 10 -20 0 -20 0 0 20 0 20 10 0 10 0
0 10 0 10 -17 0 -18 -1 -15 -16z"/>
<path d="M960 310 l0 -10 10 0 10 0 0 -18 0 -18 20 -14 20 -14 0 -18 0 -18 10
0 10 0 0 -20 0 -20 10 0 10 0 0 -20 0 -20 -20 0 -20 0 0 10 0 10 -30 0 -30 0
0 10 0 10 -15 0 -16 0 -44 -45 -45 -44 0 -11 0 -11 -14 -15 -15 -14 -11 0 -11
0 -69 70 -69 70 -11 0 -11 0 -70 -71 -69 -70 -15 15 -15 15 0 11 0 11 -35 34
-34 35 -46 0 -45 0 0 -10 0 -10 -50 0 -50 0 0 5 0 6 81 80 81 80 -5 6 -5 5
-96 -96 -96 -96 0 -5 0 -5 70 0 70 0 0 10 0 10 45 0 46 0 24 -25 25 -24 0 -11
0 -11 25 -25 25 -25 70 71 69 70 11 0 11 0 69 -70 69 -70 11 0 11 0 24 25 25
24 0 11 0 11 35 34 34 35 16 0 15 0 0 -10 0 -10 30 0 30 0 0 -10 0 -10 30 0
30 0 0 30 0 30 -10 0 -10 0 0 20 0 20 -10 0 -10 0 0 18 0 18 -20 14 -20 14 0
14 0 13 -14 15 -15 14 -5 0 -6 0 0 -10z"/>
</g>
</svg>
