<?xml version="1.0" standalone="no"?>
<!DOCTYPE svg PUBLIC "-//W3C//DTD SVG 20010904//EN"
 "http://www.w3.org/TR/2001/REC-SVG-20010904/DTD/svg10.dtd">
<svg version="1.0" xmlns="http://www.w3.org/2000/svg"
 width="468pt" height="468pt" viewBox="0 0 468 468"
 preserveAspectRatio="xMidYMid meet">
<metadata>
Created by potrace 1.8, written by Peter Selinger 2001-2007
</metadata>
<g transform="translate(0,468) scale(0.365625,-0.365625)"
fill="#000000" stroke="none">
<path d="M510 990 l0 -30 -30 0 -30 0 0 -30 0 -30 -35 0 -35 0 0 -35 0 -35
-30 0 -30 0 0 -125 0 -125 30 0 30 0 0 -35 0 -35 35 0 35 0 0 -30 0 -30 30 0
30 0 0 -35 0 -35 130 0 130 0 0 35 0 35 30 0 30 0 0 30 0 30 35 0 35 0 0 35 0
35 30 0 30 0 0 125 0 125 -30 0 -30 0 0 35 0 35 -35 0 -35 0 0 30 0 30 -30 0
-30 0 0 30 0 30 -130 0 -130 0 0 -30z"/>
<path d="M0 130 l0 -130 640 0 640 0 0 130 0 130 -640 0 -640 0 0 -130z"/>
</g>
</svg>
