<?xml version="1.0" standalone="no"?>
<!DOCTYPE svg PUBLIC "-//W3C//DTD SVG 20010904//EN"
 "http://www.w3.org/TR/2001/REC-SVG-20010904/DTD/svg10.dtd">
<svg version="1.0" xmlns="http://www.w3.org/2000/svg"
 width="468pt" height="468pt" viewBox="0 0 468 468"
 preserveAspectRatio="xMidYMid meet">
<metadata>
Created by potrace 1.8, written by Peter Selinger 2001-2007
</metadata>
<g transform="translate(0,468) scale(0.365625,-0.365625)"
fill="#000000" stroke="none">
<path d="M739 1254 l-24 -26 -50 -34 -50 -34 14 0 14 0 19 17 18 16 6 -6 6 -6
-68 -45 -69 -45 -17 -14 -18 -14 0 -6 0 -6 18 6 17 6 -5 -5 -5 -5 -24 -13 -23
-12 7 14 8 13 -12 -11 -11 -10 -5 -22 -4 -22 8 0 8 0 0 -16 0 -17 -13 18 -13
18 5 11 6 11 -22 -24 -21 -24 5 -14 6 -14 -9 6 -10 5 -6 -20 -6 -20 -15 0 -14
0 0 10 0 10 11 0 10 0 -5 8 -5 9 40 54 40 54 37 33 37 32 8 0 8 0 -6 10 -6 10
20 0 20 0 7 11 7 12 -26 -5 -26 -5 5 8 5 9 -10 0 -11 0 0 -19 0 -19 -52 -44
-52 -43 -18 3 -18 3 0 -39 0 -40 -15 -6 -15 -5 0 -21 0 -21 -9 5 -9 6 -7 -30
-7 -31 16 -24 16 -25 25 -6 25 -6 0 -10 0 -10 -16 6 -16 6 4 -24 5 -25 -10 2
-10 2 -2 -38 -2 -38 9 -5 8 -5 -9 -18 -10 -17 8 -13 8 -13 7 35 6 35 31 42 31
42 -36 -27 -36 -27 0 5 0 5 29 56 30 56 -11 6 -11 7 7 -11 6 -11 -7 -4 -8 -5
-34 14 -34 14 6 7 7 6 -10 11 -9 12 19 1 19 2 -5 -14 -5 -13 10 -6 10 -6 6 21
7 20 11 -15 12 -16 24 -5 24 -4 6 -7 6 -7 -17 6 -18 6 1 -37 0 -37 8 20 8 20
-3 5 -3 6 22 1 22 1 -12 -5 -13 -5 0 -7 0 -8 25 -11 25 -12 0 9 0 9 50 7 50 7
0 9 0 9 -25 -6 -25 -6 0 11 0 12 70 -3 69 -2 8 7 7 8 -22 6 -22 5 0 13 0 13
36 36 37 37 -6 6 -6 5 -15 -15 -15 -15 7 -7 7 -8 -18 6 -19 7 -9 0 -9 0 0 15
0 15 21 18 21 17 26 22 26 22 -6 6 -6 6 -35 -17 -35 -17 -16 6 -16 6 0 11 0
11 26 26 25 25 -6 6 -6 6 -7 -10 -7 -10 -32 -22 -31 -22 -11 0 -10 0 5 18 6
17 -10 -14 -10 -14 4 -12 5 -11 -34 -16 -34 -16 -13 8 -13 8 8 11 7 12 14 -12
14 -11 15 12 15 12 0 10 0 9 -20 -11 -20 -11 0 16 0 16 26 24 27 25 23 0 22 0
5 13 5 12 1 -22 1 -22 -17 6 -17 7 14 -16 15 -16 17 9 17 9 6 10 7 11 18 -6
19 -6 15 30 16 30 0 11 0 11 -34 -35 -33 -36 -18 0 -17 0 7 23 7 22 1 16 1 17
11 -4 11 -5 20 28 20 28 7 18 6 17 -3 0 -3 0 -24 -26z m1 -17 l0 -4 -22 -19
-23 -19 19 23 19 22 4 0 3 0 0 -3z m20 -91 l0 -4 -17 -13 -18 -14 14 18 13 17
4 0 4 0 0 -4z m-86 -103 l-5 -18 22 -13 21 -14 11 11 11 11 9 0 8 0 -13 -13
-13 -13 -44 -16 -43 -17 -19 9 -18 10 8 23 9 22 10 -2 10 -2 17 19 18 20 3 0
2 0 -4 -17z m-231 -9 l6 -6 -6 -15 -6 -15 -8 14 -9 13 0 8 0 7 8 0 9 0 6 -6z
m111 -66 l-7 -11 19 6 19 7 -17 -14 -18 -13 0 -7 0 -7 22 12 22 12 38 2 38 2
-11 -13 -11 -13 6 -10 6 -9 -17 3 -18 3 -7 1 -7 1 5 15 6 15 -5 0 -5 0 -16 -6
-16 -6 5 -8 5 -9 -11 -7 -12 -7 7 11 7 12 -10 0 -10 0 -6 -11 -7 -10 17 -13
18 -13 -18 -7 -18 -6 -5 5 -5 5 13 0 12 0 -11 14 -12 14 -30 -3 -29 -4 0 7 0
7 10 15 10 15 0 -15 0 -15 10 15 10 15 0 -18 0 -18 10 6 10 6 -10 19 -10 20
15 -6 16 -6 -2 8 -1 9 1 8 1 7 6 0 5 0 -7 -12z m138 -27 l-4 -30 23 6 24 6
-17 -20 -18 -20 0 -18 0 -19 -13 18 -14 19 -21 -12 -22 -12 -20 11 -20 11 0 9
0 10 23 -1 22 0 -20 -9 -20 -9 33 0 33 -1 -5 9 -6 9 22 -5 23 -5 -10 9 -10 8
1 20 1 20 2 13 1 12 8 0 9 0 -5 -29z m-243 -37 l1 8 15 -12 15 -12 0 -11 0
-11 -16 20 -15 19 6 -25 6 -25 -15 25 -15 25 -1 -9 0 -9 -5 5 -5 5 7 18 6 19
8 -20 8 -19 0 9z m62 -28 l-11 -13 5 -7 5 -6 -11 9 -12 10 7 16 6 16 10 -6 11
-7 -10 -12z m54 -26 l6 -10 -15 6 -16 6 0 4 0 4 9 0 10 0 6 -10z m78 -7 l-23
-4 -22 4 -23 4 45 0 45 0 -22 -4z m-233 -153 l0 -10 -11 0 -10 0 6 10 6 10 5
0 4 0 0 -10z"/>
<path d="M651 991 l-14 -9 -16 5 -16 5 17 -11 16 -11 16 6 16 6 0 9 0 9 -2 0
-3 0 -14 -9z"/>
<path d="M377 1180 l-37 -40 -3 -20 -3 -21 -23 -15 -22 -16 -6 6 -6 6 12 0 12
0 -6 10 -6 10 8 -1 8 -1 12 1 13 1 -10 24 -9 24 6 6 6 6 -20 0 -21 0 -5 13 -5
12 -12 -12 -13 -12 8 -28 7 -28 11 21 12 22 13 -14 12 -13 0 -7 0 -6 -14 11
-14 12 -6 -18 -7 -18 3 -4 3 -4 -24 -8 -23 -9 6 -16 6 -15 -10 6 -10 6 0 -34
0 -35 30 -4 30 -4 11 7 12 7 14 -5 13 -5 0 -10 0 -9 -8 5 -9 5 -52 -8 -52 -8
-14 26 -14 26 -1 -16 0 -16 -15 0 -15 0 0 16 -1 16 -13 -17 -13 -18 -7 7 -6 7
19 20 20 21 5 29 5 29 12 11 11 11 -11 -22 -12 -23 10 0 9 0 5 13 5 12 7 -28
7 -28 19 31 19 31 -6 11 -7 11 11 -7 12 -7 0 13 0 13 -10 15 -10 15 -6 -21 -6
-22 -35 -5 -34 -6 -26 10 -25 9 5 -19 5 -20 -27 -3 -26 -3 2 -22 3 -22 -19 2
-19 1 6 14 5 15 -14 -5 -14 -5 2 -28 2 -29 15 -8 15 -8 -20 -35 -21 -34 7 -11
7 -11 21 7 22 7 -15 -19 -15 -19 16 12 16 13 9 -8 8 -7 -13 18 -13 17 8 0 9 0
-15 10 -15 10 13 0 13 0 5 -15 6 -15 15 0 14 0 -5 8 -5 9 14 0 15 0 0 -6 0 -6
-15 -28 -14 -28 10 6 9 6 17 37 16 37 7 -35 7 -35 2 28 1 29 13 -5 12 -4 0
-19 0 -19 9 -13 8 -13 12 4 13 5 13 -8 13 -8 -21 -6 -21 -7 2 -19 1 -19 6 4 6
4 11 -18 11 -18 -36 -2 -37 -2 -12 1 -13 0 -19 2 -20 2 6 10 6 9 -26 -5 -27
-5 -5 18 -6 19 -10 0 -9 0 0 8 0 8 30 2 29 2 -6 -17 -7 -18 17 17 18 17 21
-21 21 -21 8 21 8 22 6 0 6 0 -6 -10 -6 -10 9 0 10 0 6 15 5 15 -17 0 -18 0
-11 -11 -11 -11 -6 11 -7 11 -23 0 -24 0 -12 15 -12 15 -8 0 -8 0 6 -22 5 -21
-11 7 -11 6 -6 -10 -7 -11 12 -14 12 -15 -6 -36 -7 -36 7 -54 6 -54 8 0 8 0
-1 39 -1 40 -10 -5 -11 -5 18 14 19 15 12 17 12 16 0 -20 0 -20 -8 5 -8 5 0
-16 0 -16 9 5 9 6 0 -25 0 -25 -9 0 -8 0 -4 18 -5 17 -1 -22 -1 -23 15 0 15 0
0 -34 0 -34 -20 5 -20 5 6 9 5 9 10 -5 9 -6 0 16 0 16 -17 -3 -18 -3 -3 -22
-3 -22 24 -43 24 -43 19 3 19 3 -15 -10 -14 -10 17 -19 17 -18 11 -31 10 -32
26 -16 25 -17 32 7 31 6 76 7 76 7 -15 -23 -15 -23 7 -7 8 -7 9 18 10 17 9 0
9 0 3 -22 3 -21 13 -5 12 -4 0 17 0 16 -9 -5 -9 -6 -4 25 -5 24 17 16 18 16 7
-10 6 -11 -10 0 -10 0 3 -13 3 -12 -4 8 -5 7 -11 0 -11 0 18 -18 18 -17 5 13
5 12 16 -1 17 -1 -12 -5 -13 -5 0 -25 0 -25 13 4 12 5 3 29 3 29 6 15 6 15 -2
8 -1 8 11 -7 12 -7 -5 14 -5 14 -17 3 -18 4 6 -20 6 -19 -14 -12 -15 -13 4 20
3 19 -23 -3 -24 -2 -13 -7 -13 -6 17 14 18 14 -8 8 -7 8 19 -7 18 -6 -5 20 -5
21 16 -12 17 -13 -17 19 -17 18 14 11 14 11 -14 12 -14 12 -6 -29 -7 -30 -8 5
-9 6 -16 -25 -16 -24 -19 5 -20 5 0 9 0 8 18 10 17 10 -17 1 -16 0 5 21 6 21
-21 -6 -20 -7 -6 10 -7 10 -15 -6 -15 -5 20 33 19 34 7 25 6 25 -11 -15 -11
-15 5 35 6 35 -10 -24 -10 -24 6 -21 6 -21 -7 7 -8 8 -14 -11 -13 -11 0 -11 0
-11 15 20 14 19 1 -8 0 -8 -10 -20 -11 -19 -14 0 -15 0 4 23 5 22 1 5 2 5 -1
55 -2 55 -10 40 -10 40 -11 27 -10 28 -8 -5 -9 -5 -7 11 -7 12 12 -7 12 -8 -7
73 -7 72 18 -7 18 -6 13 11 14 11 0 -18 0 -18 16 16 17 17 -13 31 -13 32 -9
-16 -9 -15 -14 5 -15 6 0 9 0 8 44 46 44 45 16 0 15 0 11 21 11 20 -4 12 -5
12 -10 -25 -11 -25 0 9 -1 8 -13 -11 -14 -11 0 15 0 14 7 -4 7 -4 13 25 14 25
13 -5 13 -5 0 19 0 20 -2 0 -3 0 -38 -40z m-110 -32 l-5 -13 -1 19 -1 19 6 -6
6 -6 -5 -13z m-136 -85 l14 -17 -13 8 -12 7 -6 -14 -5 -14 -31 -23 -31 -23 7
12 7 11 -13 1 -13 1 25 7 25 7 3 17 3 17 -18 1 -18 1 30 8 30 8 1 1 2 1 13
-17z m144 -2 l5 -10 -8 -5 -9 -5 0 14 0 15 3 0 3 0 6 -9z m-175 -82 l0 -7 -30
-14 -30 -13 -1 -7 -1 -8 -2 -12 -1 -11 -12 -4 -11 -4 5 20 5 20 24 24 23 24
16 0 15 0 0 -8z m110 -59 l0 -20 -4 0 -4 0 -5 20 -5 20 9 0 9 0 0 -20z m25
-24 l0 -25 -9 9 -9 9 6 15 6 16 3 0 3 0 0 -24z m34 -153 l-11 -13 8 -1 9 -1 8
1 7 1 0 -16 0 -15 -20 6 -20 6 0 -11 0 -11 -9 5 -9 6 15 30 15 31 -6 17 -6 17
15 -19 15 -19 -11 -14z m-68 -10 l2 -13 2 -20 3 -20 1 -35 1 -35 15 0 15 0 0
18 0 17 -9 -14 -9 -14 -3 46 -4 45 13 -10 13 -11 -5 -13 -5 -13 9 -6 10 -6 0
19 0 19 15 0 16 0 -5 -11 -5 -11 -12 -40 -13 -40 -3 -5 -4 -4 -9 14 -10 15 0
-32 0 -33 18 1 17 1 -12 5 -13 5 0 10 0 10 30 -4 30 -5 1 26 1 26 5 -13 5 -13
-6 -24 -6 -24 -18 5 -17 6 17 -12 17 -11 -6 -17 -6 -17 8 7 8 8 18 -21 18 -21
21 7 21 7 -2 -9 -1 -8 2 -30 1 -30 9 20 9 20 0 -17 1 -17 17 -10 18 -9 -6 -7
-7 -6 -16 16 -16 16 0 -13 0 -13 -10 15 -10 15 0 -17 0 -16 10 -5 11 -5 -13 2
-13 3 3 44 2 44 -11 -19 -11 -18 5 -34 6 -34 -25 6 -24 6 -13 -10 -12 -10 -20
-3 -20 -3 -28 7 -29 8 12 14 12 15 -16 0 -16 0 -1 8 -1 7 -3 25 -4 25 -4 20
-4 20 10 13 9 12 -31 0 -32 0 11 21 12 21 -7 25 -6 25 10 -6 10 -6 8 14 8 14
20 5 20 5 -36 1 -36 1 0 15 0 15 9 0 9 0 16 15 15 16 -26 -7 -26 -6 0 17 0 17
20 5 20 5 -4 7 -4 6 24 0 24 0 1 -12z m26 -5 l-5 -13 -1 19 -1 19 6 -6 6 -6
-5 -13z m-162 2 l6 -10 -10 0 -11 0 0 10 0 10 4 0 5 0 6 -10z m226 -103 l-11
-11 0 -18 0 -18 -11 0 -11 0 7 33 7 32 9 3 9 4 1 16 2 17 4 -24 5 -23 -11 -11z
m102 -162 l-5 -16 -5 5 -5 5 7 10 6 11 4 0 4 0 -6 -15z m57 -85 l0 -10 -4 0
-5 0 -6 10 -6 10 10 0 11 0 0 -10z m87 -82 l-5 -13 -1 19 -1 19 6 -6 6 -6 -5
-13z"/>
<path d="M231 504 l1 -19 5 13 5 13 -6 6 -6 6 1 -19z"/>
<path d="M770 861 l0 -12 -12 7 -11 7 8 -12 7 -13 11 11 11 11 -7 7 -7 6 0
-12z"/>
<path d="M1050 820 l0 -6 12 -12 12 -12 19 0 19 0 5 -20 5 -20 15 12 15 12 9
-15 9 -14 0 10 0 10 -9 14 -9 14 -14 -5 -14 -6 -19 14 -19 14 45 0 46 0 10
-35 11 -34 -16 -13 -15 -13 -76 0 -76 0 -3 -22 -3 -23 -10 0 -10 0 5 9 6 9
-22 -6 -21 -5 7 11 7 12 -15 0 -16 0 0 8 0 9 7 6 6 7 16 -13 16 -12 -14 17
-13 18 -9 -6 -9 -5 0 12 0 11 25 -4 25 -5 0 8 0 9 12 0 11 0 20 -17 20 -18 -7
13 -7 12 16 0 16 0 -6 -10 -6 -10 17 7 17 6 -6 -10 -6 -10 27 5 27 6 -55 17
-55 18 -28 0 -28 1 -34 -14 -34 -14 -16 -31 -16 -31 -14 0 -14 0 -7 11 -6 11
-9 -13 -9 -14 -1 20 -1 20 -5 -12 -5 -13 -22 0 -22 0 -10 10 -9 9 -14 -8 -14
-9 7 -28 7 -28 10 15 9 14 0 -16 0 -17 -27 -5 -28 -5 -7 5 -8 4 0 15 0 14 12
0 12 0 -20 14 -19 15 -16 -21 -16 -21 -7 12 -7 11 -15 0 -14 0 0 -15 0 -14
-20 -11 -21 -11 -19 6 -20 6 0 -15 0 -15 -11 -7 -11 -7 -9 14 -8 13 -7 -17 -6
-17 -9 0 -10 0 3 27 3 27 18 18 17 18 0 11 0 12 -25 -27 -24 -26 5 -14 5 -14
-21 -7 -22 -7 7 -35 6 -36 -15 6 -15 6 6 -15 5 -14 3 0 2 0 23 20 23 20 -14 0
-14 1 17 10 17 10 26 -7 25 -6 0 -9 0 -9 -15 0 -15 0 0 -9 0 -9 -20 -5 -20 -5
0 -15 0 -15 20 5 20 5 0 15 0 14 9 -6 10 -5 8 13 8 14 23 12 23 12 14 -11 14
-12 10 6 9 6 7 -32 7 -32 -26 -19 -26 -19 0 -8 0 -8 30 26 30 26 0 17 0 16
-11 32 -11 32 -15 -5 -14 -6 6 10 6 10 -10 0 -9 0 -4 -9 -3 -8 -24 -8 -24 -7
8 12 8 13 -11 -7 -12 -7 0 10 0 11 28 0 27 0 15 10 15 10 -15 0 -15 0 15 9 14
10 11 -7 10 -6 20 -3 20 -2 -12 5 -13 6 15 15 16 15 14 -12 15 -12 0 -7 0 -7
-32 -12 -32 -12 6 -6 6 -5 19 9 18 10 50 15 50 15 -3 20 -3 20 11 7 10 6 21
-6 20 -7 -3 -20 -3 -21 19 -3 19 -3 7 -8 8 -8 7 -23 7 -24 -20 11 -21 11 -13
0 -13 -1 32 -14 31 -13 12 -21 11 -21 19 0 20 0 0 -10 0 -10 -9 0 -8 0 -6 -30
-6 -29 -31 2 -30 2 0 2 0 2 16 15 15 16 -6 10 -6 10 -22 0 -22 0 15 -10 15
-10 -47 0 -48 0 0 8 0 9 28 -2 27 -2 -22 4 -23 4 0 11 0 10 -20 -23 -19 -24
20 -17 19 -17 -7 -4 -8 -5 -30 2 -30 3 -20 8 -20 8 20 -16 20 -16 14 -1 13 0
-11 -13 -11 -14 8 -7 7 -8 -64 4 -64 3 -4 -12 -4 -11 18 3 18 4 66 5 67 5 6
-22 6 -22 9 15 10 14 12 -29 12 -30 7 25 7 25 -11 13 -10 14 35 -20 34 -20 -3
-11 -2 -11 9 0 9 0 12 15 12 14 -7 21 -6 20 18 0 18 0 25 6 25 6 -15 -11 -15
-11 60 1 60 1 -25 8 -25 8 23 1 22 1 0 13 0 12 8 -11 7 -12 25 2 25 1 3 20 3
20 -9 -13 -9 -14 -24 3 -24 3 -12 -7 -13 -8 0 11 0 11 -18 -10 -19 -10 -10 10
-11 11 -19 -10 -19 -11 -14 22 -13 22 16 -14 17 -13 15 12 15 12 0 15 0 14
-10 -6 -10 -6 6 -10 6 -10 -20 12 -21 13 10 18 10 18 -6 10 -6 10 -18 0 -18 0
-11 39 -12 38 0 7 0 6 10 0 11 0 19 -42 20 -43 -2 32 -2 31 -23 17 -23 18 6 9
6 9 23 -25 24 -26 6 10 6 10 10 -6 9 -5 -5 -10 -6 -9 10 0 10 0 -6 -16 -6 -16
-9 16 -9 16 -11 0 -12 0 12 -12 12 -12 0 -18 0 -17 15 5 15 6 25 -16 25 -16 0
6 0 6 26 -17 26 -17 14 19 14 18 21 -25 21 -25 -6 18 -5 17 8 0 9 0 4 -10 3
-9 14 8 14 9 -17 27 -18 27 16 16 16 16 7 -8 7 -7 -14 -9 -15 -10 13 0 13 0
-6 -20 -6 -20 15 6 15 6 -6 14 -5 14 12 0 11 0 -16 16 -16 17 13 8 13 9 -17 0
-18 0 0 10 0 10 12 0 11 0 21 -17 21 -18 -20 24 -20 24 -39 18 -39 17 -36 -4
-36 -4 25 10 25 10 -49 -4 -49 -4 13 8 12 8 -13 5 -14 5 60 2 60 2 26 -1 25
-2 13 24 13 25 -12 22 -12 22 5 17 4 16 -74 0 -73 0 0 -5z m-131 -131 l-14 -9
-7 0 -7 0 5 15 6 15 9 -6 9 -5 1 13 1 13 5 -14 5 -13 -13 -9z m-174 -9 l6 -10
-10 0 -11 0 0 10 0 10 4 0 5 0 6 -10z m220 -12 l25 -11 0 -11 0 -11 11 15 11
15 5 -13 5 -13 11 9 12 9 25 -8 25 -7 -20 -2 -20 -1 35 -12 35 -12 3 -22 3
-23 -8 0 -9 0 -10 10 -10 10 -42 2 -42 1 -6 19 -5 18 -9 0 -9 0 5 -17 6 -18
-9 11 -8 12 -20 3 -20 4 -3 19 -4 19 17 -6 16 -7 -6 10 -6 10 -27 -6 -27 -6
15 11 15 11 7 0 7 0 26 -12z m-95 -23 l0 -25 -25 12 -25 11 0 14 0 13 25 0 25
0 0 -25z m253 -2 l-7 -18 17 13 16 14 21 -7 20 -6 0 -10 0 -9 -9 0 -10 0 -6
10 -7 11 -14 -12 -14 -11 -15 12 -16 13 13 8 13 9 2 0 2 0 -6 -17z m41 -34
l-5 -9 9 2 10 3 0 -10 0 -10 -10 3 -9 2 5 -9 6 -10 -11 -6 -10 -7 -6 5 -5 6 7
30 7 31 9 -6 9 -5 -6 -10z m-740 -27 l5 -9 -14 0 -15 0 0 9 0 8 9 0 10 0 5 -8z
m676 -24 l43 -23 -4 -10 -4 -10 -15 3 -15 3 -31 14 -31 15 -13 15 -12 15 19 0
19 0 44 -22z m-64 -9 l6 -11 -10 -10 -10 -10 -21 14 -21 15 7 6 6 7 18 0 18 0
7 -11z m39 -30 l7 -10 -5 -5 -4 -4 -17 6 -16 6 6 9 5 9 9 0 9 0 6 -11z m-315
-59 l15 -10 -17 0 -17 0 -6 10 -6 10 8 0 8 0 15 -10z m92 -51 l-17 -16 -12 0
-13 0 0 9 0 8 11 0 10 0 -4 8 -5 7 23 0 23 0 -16 -16z m73 -9 l6 -10 -18 0
-18 0 -15 10 -15 10 27 0 27 0 6 -10z m-135 -8 l0 -8 -22 -1 -23 -2 15 9 15
10 8 0 7 0 0 -8z m84 -38 l6 -17 -3 -3 -3 -3 -12 19 -12 20 9 0 9 0 6 -16z"/>
<path d="M690 813 l0 -12 -37 -8 -38 -7 29 -5 29 -6 -18 -15 -19 -15 9 14 8
14 -31 -6 -31 -6 -6 9 -6 10 -17 -9 -17 -8 -12 4 -11 4 -7 -10 -6 -11 28 0 28
0 -15 -10 -15 -10 23 0 23 0 -7 12 -7 11 33 -6 32 -7 20 0 19 0 -6 -9 -5 -10
-30 9 -30 9 -5 -8 -4 -8 39 -13 40 -13 0 -9 0 -9 10 6 10 6 0 18 0 19 -15 12
-15 12 6 10 6 9 68 -7 67 -6 7 10 6 10 -29 7 -29 6 -39 -6 -38 -6 12 8 12 9
-9 14 -10 15 0 -12z m97 -39 l-6 -6 -13 5 -13 5 19 1 19 1 -6 -6z"/>
<path d="M330 755 l0 -5 13 -20 12 -21 -11 -7 -11 -7 -7 -57 -7 -58 8 0 8 0 2
32 2 31 11 11 10 10 0 9 0 8 -12 -7 -11 -7 8 14 8 14 16 18 16 19 -20 14 -19
14 -8 0 -8 0 0 -5z m31 -22 l14 -18 -17 14 -18 13 0 4 0 4 4 0 4 0 13 -17z"/>
<path d="M503 733 l-22 -4 -11 -15 -12 -14 10 0 11 0 6 10 6 10 20 0 19 0 0
10 0 10 -2 -1 -3 -2 -22 -4z"/>
<path d="M710 527 l0 -26 10 -6 11 -7 -7 29 -7 28 -3 4 -4 4 0 -26z"/>
<path d="M760 529 l0 -10 10 6 10 6 0 5 0 4 -10 0 -10 0 0 -11z"/>
<path d="M1267 533 l-7 -11 6 -16 6 -16 -16 0 -16 0 -1 -17 -1 -18 1 -7 1 -8
-8 0 -8 0 -13 13 -14 12 7 -12 6 -12 -11 -6 -10 -7 5 -14 5 -14 -32 -9 -32 -9
20 -1 20 -1 32 20 32 19 21 41 21 42 -3 21 -3 22 -8 -12z m-46 -116 l-11 -11
-6 7 -6 6 7 10 6 11 11 -6 10 -6 -11 -11z"/>
<path d="M1160 429 l0 -10 -9 6 -10 5 -6 -11 -7 -10 5 -6 5 -5 21 7 21 6 0 15
0 14 -10 0 -10 0 0 -11z"/>
<path d="M0 135 l0 -135 640 0 640 0 0 135 0 135 -640 0 -640 0 0 -135z"/>
</g>
</svg>
