<?xml version="1.0" standalone="no"?>
<!DOCTYPE svg PUBLIC "-//W3C//DTD SVG 20010904//EN"
 "http://www.w3.org/TR/2001/REC-SVG-20010904/DTD/svg10.dtd">
<svg version="1.0" xmlns="http://www.w3.org/2000/svg"
 width="468pt" height="468pt" viewBox="0 0 468 468"
 preserveAspectRatio="xMidYMid meet">
<metadata>
Created by potrace 1.8, written by Peter Selinger 2001-2007
</metadata>
<g transform="translate(0,468) scale(0.365625,-0.365625)"
fill="#000000" stroke="none">
<path d="M20 740 l0 -500 610 0 610 0 0 500 0 500 -610 0 -610 0 0 -500z
m1200 340 l0 -140 -10 0 -10 0 0 130 0 130 -560 0 -560 0 0 10 0 10 570 0 570
0 0 -140z m-1120 -30 l0 -110 -10 0 -10 0 0 110 0 110 10 0 10 0 0 -110z m87
75 l15 -16 -7 -7 -8 -7 -4 13 -5 12 -9 0 -9 0 0 -16 0 -17 22 -18 21 -19 -8
-8 -8 -7 -4 13 -5 12 -9 0 -9 0 0 -18 0 -18 20 -14 20 -14 0 -48 0 -48 -40 0
-40 0 0 120 0 120 26 0 25 0 16 -15z m140 0 l15 -16 -7 -7 -8 -7 -4 13 -5 12
-9 0 -9 0 0 -16 0 -17 22 -18 21 -19 -8 -8 -8 -7 -4 13 -5 12 -9 0 -9 0 0 -18
0 -18 20 -14 20 -14 0 -48 0 -48 -60 0 -60 0 0 48 0 48 20 14 20 14 0 17 0 17
-12 6 -13 6 13 6 12 6 0 19 0 19 -10 0 -10 0 0 10 0 10 36 0 35 0 16 -15z
m140 0 l15 -16 -7 -7 -8 -7 -4 13 -5 12 -9 0 -9 0 0 -18 0 -18 20 -14 20 -14
0 -37 0 -37 -12 -5 -13 -5 15 -11 14 -10 -8 -8 -9 -8 -4 13 -5 12 -9 0 -9 0 0
-20 0 -20 10 0 10 0 0 -10 0 -10 -50 0 -50 0 0 48 0 48 20 14 20 14 0 17 0 17
-12 6 -13 6 13 6 12 6 0 19 0 19 -10 0 -10 0 0 10 0 10 36 0 35 0 16 -15z
m153 -34 l0 -49 -12 -5 -13 -5 15 -11 14 -10 -8 -8 -9 -8 -4 13 -5 12 -9 0 -9
0 0 -16 0 -17 22 -18 21 -19 -8 -8 -8 -7 -4 13 -5 12 -9 0 -9 0 0 -20 0 -20
10 0 10 0 0 -10 0 -10 -40 0 -40 0 0 10 0 10 10 0 10 0 0 18 0 18 -20 14 -20
14 0 36 0 36 20 14 20 14 0 18 0 18 -10 0 -10 0 0 10 0 10 50 0 50 0 0 -49z
m127 34 l15 -16 -7 -7 -8 -7 -4 13 -5 12 -9 0 -9 0 0 -16 0 -17 22 -18 21 -19
-8 -8 -8 -7 -4 13 -5 12 -9 0 -9 0 0 -18 0 -18 20 -14 20 -14 0 -48 0 -48 -50
0 -50 0 0 10 0 10 10 0 10 0 0 19 0 19 -12 6 -13 6 13 6 12 6 0 17 0 17 -20
14 -20 14 0 48 0 48 46 0 45 0 16 -15z m140 0 l15 -16 -7 -7 -8 -7 -4 13 -5
12 -9 0 -9 0 0 -16 0 -17 22 -18 21 -19 -8 -8 -8 -7 -4 13 -5 12 -9 0 -9 0 0
-18 0 -18 20 -14 20 -14 0 -48 0 -48 -60 0 -60 0 0 48 0 48 20 14 20 14 0 17
0 17 -12 6 -13 6 13 6 12 6 0 19 0 19 -10 0 -10 0 0 10 0 10 36 0 35 0 16 -15z
m140 0 l15 -16 -7 -7 -8 -7 -4 13 -5 12 -9 0 -9 0 0 -16 0 -17 22 -18 21 -19
-8 -8 -8 -7 -4 13 -5 12 -9 0 -9 0 0 -18 0 -18 20 -14 20 -14 0 -48 0 -48 -60
0 -60 0 0 48 0 48 20 14 20 14 0 17 0 17 -12 6 -13 6 13 6 12 6 0 19 0 19 -10
0 -10 0 0 10 0 10 36 0 35 0 16 -15z m113 -105 l0 -120 -40 0 -40 0 0 48 0 48
20 14 20 14 0 17 0 17 -12 6 -13 6 13 6 12 6 0 19 0 19 -10 0 -10 0 0 10 0 10
30 0 30 0 0 -120z m-1040 -120 l0 -20 30 0 30 0 0 -20 0 -20 -30 0 -30 0 0
-20 0 -20 -30 0 -30 0 0 60 0 60 30 0 30 0 0 -20z m1120 -40 l0 -60 -30 0 -30
0 0 20 0 20 -40 0 -40 0 0 20 0 20 40 0 40 0 0 20 0 20 30 0 30 0 0 -60z
m-160 10 l0 -10 -440 0 -440 0 0 10 0 10 440 0 440 0 0 -10z m-860 -129 l0
-79 -12 -5 -13 -5 15 -11 14 -10 -8 -8 -9 -8 -4 13 -5 12 -9 0 -9 0 0 -16 0
-17 22 -18 21 -19 -8 -8 -8 -7 -4 13 -5 12 -9 0 -9 0 0 -16 0 -17 22 -18 21
-19 -8 -8 -8 -7 -4 13 -5 12 -9 0 -9 0 0 -16 0 -17 22 -18 21 -19 -8 -8 -8 -7
-4 13 -5 12 -9 0 -9 0 0 -16 0 -17 22 -18 21 -19 -8 -8 -8 -7 -4 13 -5 12 -9
0 -9 0 0 -20 0 -20 10 0 10 0 0 -10 0 -10 -30 0 -30 0 0 240 0 240 40 0 40 0
0 -79z m140 0 l0 -79 -12 -5 -13 -5 15 -11 14 -10 -8 -8 -9 -8 -4 13 -5 12 -9
0 -9 0 0 -16 0 -17 22 -18 21 -19 -8 -8 -8 -7 -4 13 -5 12 -9 0 -9 0 0 -16 0
-17 22 -18 21 -19 -8 -8 -8 -7 -4 13 -5 12 -9 0 -9 0 0 -16 0 -17 22 -18 21
-19 -8 -8 -8 -7 -4 13 -5 12 -9 0 -9 0 0 -16 0 -17 22 -18 21 -19 -8 -8 -8 -7
-4 13 -5 12 -9 0 -9 0 0 -20 0 -20 10 0 10 0 0 -10 0 -10 -40 0 -40 0 0 10 0
10 10 0 10 0 0 19 0 19 -12 6 -13 6 13 6 12 6 0 18 0 18 -12 6 -13 6 13 6 12
6 0 18 0 18 -12 6 -13 6 13 6 12 6 0 18 0 18 -12 6 -13 6 13 6 12 6 0 17 0 17
-20 14 -20 14 0 78 0 78 60 0 60 0 0 -79z m127 64 l15 -16 -7 -7 -8 -7 -4 13
-5 12 -9 0 -9 0 0 -16 0 -17 22 -18 21 -19 -8 -8 -8 -7 -4 13 -5 12 -9 0 -9 0
0 -18 0 -18 20 -14 20 -14 0 -67 0 -67 -12 -5 -13 -5 15 -11 14 -10 -8 -8 -9
-8 -4 13 -5 12 -9 0 -9 0 0 -16 0 -17 22 -18 21 -19 -8 -8 -8 -7 -4 13 -5 12
-9 0 -9 0 0 -16 0 -17 22 -18 21 -19 -8 -8 -8 -7 -4 13 -5 12 -9 0 -9 0 0 -20
0 -20 10 0 10 0 0 -10 0 -10 -40 0 -40 0 0 10 0 10 10 0 10 0 0 19 0 19 -12 6
-13 6 13 6 12 6 0 18 0 18 -12 6 -13 6 13 6 12 6 0 18 0 18 -12 6 -13 6 13 6
12 6 0 18 0 18 -12 6 -13 6 13 6 12 6 0 17 0 17 -20 14 -20 14 0 78 0 78 46 0
45 0 16 -15z m153 -64 l0 -79 -12 -5 -13 -5 15 -11 14 -10 -8 -8 -9 -8 -4 13
-5 12 -9 0 -9 0 0 -16 0 -17 22 -18 21 -19 -8 -8 -8 -7 -4 13 -5 12 -9 0 -9 0
0 -16 0 -17 22 -18 21 -19 -8 -8 -8 -7 -4 13 -5 12 -9 0 -9 0 0 -16 0 -17 22
-18 21 -19 -8 -8 -8 -7 -4 13 -5 12 -9 0 -9 0 0 -16 0 -17 22 -18 21 -19 -8
-8 -8 -7 -4 13 -5 12 -9 0 -9 0 0 -20 0 -20 10 0 10 0 0 -10 0 -10 -40 0 -40
0 0 10 0 10 10 0 10 0 0 19 0 19 -12 6 -13 6 13 6 12 6 0 18 0 18 -12 6 -13 6
13 6 12 6 0 17 0 17 -20 14 -20 14 0 66 0 66 20 14 20 14 0 17 0 17 -12 6 -13
6 13 6 12 6 0 19 0 19 -10 0 -10 0 0 10 0 10 50 0 50 0 0 -79z m140 0 l0 -79
-12 -5 -13 -5 15 -11 14 -10 -8 -8 -9 -8 -4 13 -5 12 -9 0 -9 0 0 -16 0 -17
22 -18 21 -19 -8 -8 -8 -7 -4 13 -5 12 -9 0 -9 0 0 -16 0 -17 22 -18 21 -19
-8 -8 -8 -7 -4 13 -5 12 -9 0 -9 0 0 -16 0 -17 22 -18 21 -19 -8 -8 -8 -7 -4
13 -5 12 -9 0 -9 0 0 -16 0 -17 22 -18 21 -19 -8 -8 -8 -7 -4 13 -5 12 -9 0
-9 0 0 -20 0 -20 10 0 10 0 0 -10 0 -10 -40 0 -40 0 0 10 0 10 10 0 10 0 0 19
0 19 -12 6 -13 6 13 6 12 6 0 18 0 18 -12 6 -13 6 13 6 12 6 0 18 0 18 -12 6
-13 6 13 6 12 6 0 18 0 18 -12 6 -13 6 13 6 12 6 0 17 0 17 -20 14 -20 14 0
78 0 78 60 0 60 0 0 -79z m140 0 l0 -79 -12 -5 -13 -5 15 -11 14 -10 -8 -8 -9
-8 -4 13 -5 12 -9 0 -9 0 0 -16 0 -17 22 -18 21 -19 -8 -8 -8 -7 -4 13 -5 12
-9 0 -9 0 0 -16 0 -17 22 -18 21 -19 -8 -8 -8 -7 -4 13 -5 12 -9 0 -9 0 0 -16
0 -17 22 -18 21 -19 -8 -8 -8 -7 -4 13 -5 12 -9 0 -9 0 0 -16 0 -17 22 -18 21
-19 -8 -8 -8 -7 -4 13 -5 12 -9 0 -9 0 0 -20 0 -20 10 0 10 0 0 -10 0 -10 -40
0 -40 0 0 10 0 10 10 0 10 0 0 19 0 19 -12 6 -13 6 13 6 12 6 0 18 0 18 -12 6
-13 6 13 6 12 6 0 18 0 18 -12 6 -13 6 13 6 12 6 0 18 0 18 -12 6 -13 6 13 6
12 6 0 17 0 17 -20 14 -20 14 0 78 0 78 60 0 60 0 0 -79z m140 0 l0 -79 -12
-5 -13 -5 15 -11 14 -10 -8 -8 -9 -8 -4 13 -5 12 -9 0 -9 0 0 -16 0 -17 22
-18 21 -19 -8 -8 -8 -7 -4 13 -5 12 -9 0 -9 0 0 -16 0 -17 22 -18 21 -19 -8
-8 -8 -7 -4 13 -5 12 -9 0 -9 0 0 -16 0 -17 22 -18 21 -19 -8 -8 -8 -7 -4 13
-5 12 -9 0 -9 0 0 -16 0 -17 22 -18 21 -19 -8 -8 -8 -7 -4 13 -5 12 -9 0 -9 0
0 -20 0 -20 10 0 10 0 0 -10 0 -10 -40 0 -40 0 0 10 0 10 10 0 10 0 0 19 0 19
-12 6 -13 6 13 6 12 6 0 18 0 18 -12 6 -13 6 13 6 12 6 0 18 0 18 -12 6 -13 6
13 6 12 6 0 18 0 18 -12 6 -13 6 13 6 12 6 0 17 0 17 -20 14 -20 14 0 78 0 78
60 0 60 0 0 -79z m100 -161 l0 -240 -30 0 -30 0 0 10 0 10 10 0 10 0 0 19 0
19 -12 6 -13 6 13 6 12 6 0 18 0 18 -12 6 -13 6 13 6 12 6 0 18 0 18 -12 6
-13 6 13 6 12 6 0 18 0 18 -12 6 -13 6 13 6 12 6 0 17 0 17 -20 14 -20 14 0
78 0 78 40 0 40 0 0 -240z m-1040 -30 l0 -230 530 0 530 0 0 -10 0 -10 -540 0
-540 0 0 240 0 240 10 0 10 0 0 -230z m1120 -30 l0 -260 -10 0 -10 0 0 260 0
260 10 0 10 0 0 -260z"/>
<path d="M60 890 l0 -10 10 0 10 0 0 10 0 10 -10 0 -10 0 0 -10z"/>
<path d="M60 830 l0 -10 10 0 10 0 0 10 0 10 -10 0 -10 0 0 -10z"/>
<path d="M1180 890 l0 -10 10 0 10 0 0 10 0 10 -10 0 -10 0 0 -10z"/>
<path d="M1180 830 l0 -10 10 0 10 0 0 10 0 10 -10 0 -10 0 0 -10z"/>
<path d="M0 100 l0 -100 640 0 640 0 0 100 0 100 -640 0 -640 0 0 -100z"/>
</g>
</svg>
