<?xml version="1.0" standalone="no"?>
<!DOCTYPE svg PUBLIC "-//W3C//DTD SVG 20010904//EN"
 "http://www.w3.org/TR/2001/REC-SVG-20010904/DTD/svg10.dtd">
<svg version="1.0" xmlns="http://www.w3.org/2000/svg"
 width="468pt" height="468pt" viewBox="0 0 468 468"
 preserveAspectRatio="xMidYMid meet">
<metadata>
Created by potrace 1.8, written by Peter Selinger 2001-2007
</metadata>
<g transform="translate(0,468) scale(0.365625,-0.365625)"
fill="#000000" stroke="none">
<path d="M782 1251 l-21 -29 -7 -26 -6 -26 10 0 10 0 4 12 4 12 8 -12 7 -12
-11 0 -11 0 7 -12 7 -11 -13 8 -12 8 -10 -14 -10 -14 6 18 5 17 -9 0 -9 0 -11
-17 -11 -18 6 23 7 24 -19 -10 -19 -11 -14 9 -13 8 -14 -5 -14 -6 5 -14 6 -14
-10 6 -10 6 0 15 0 14 -10 0 -10 0 -1 -17 0 -18 -8 20 -8 20 -11 -21 -11 -21
7 -8 7 -8 -12 6 -11 7 5 19 5 20 -19 -4 -18 -3 -7 -1 -7 -1 -12 -22 -11 -23
21 23 22 22 5 0 4 0 -2 -29 -2 -29 -16 7 -15 8 -32 -2 -33 -1 10 11 9 11 -19
0 -19 0 5 -7 4 -8 -10 -6 -10 -6 0 11 0 12 -12 -5 -13 -4 -19 9 -18 10 7 -14
6 -13 -15 19 -16 20 0 -11 0 -10 -31 3 -31 4 -7 5 -8 5 3 -31 4 -30 -12 7 -11
7 7 -12 7 -11 29 2 28 2 -10 19 -10 19 -14 -6 -15 -6 6 9 5 10 20 -2 19 -1 -6
-10 -6 -9 12 7 12 8 12 -11 13 -10 13 9 14 8 19 -21 20 -22 -6 12 -6 12 35 -2
35 -2 0 -9 0 -9 7 6 6 7 15 -13 16 -12 -7 18 -7 18 11 -6 10 -7 -6 -18 -6 -18
11 -7 10 -6 -15 -28 -14 -28 7 -8 7 -8 -11 6 -11 6 2 20 1 21 6 6 7 6 -6 15
-6 15 -8 -14 -9 -13 0 -29 0 -28 -18 22 -19 23 0 -16 0 -16 10 6 10 6 -6 -11
-7 -10 -13 2 -12 2 -12 7 -11 7 4 23 4 22 -9 -20 -8 -20 3 -7 4 -7 -10 -6 -10
-6 0 9 0 10 -60 -4 -60 -4 0 11 0 10 -10 -6 -10 -6 0 -9 0 -8 33 -11 32 -10
63 -6 62 -7 0 -70 0 -69 8 5 9 5 0 -14 0 -14 -9 5 -8 5 0 -9 0 -10 23 -6 22
-6 7 0 7 0 11 21 11 20 4 22 5 22 17 37 18 36 35 11 35 10 42 5 43 4 137 -69
138 -70 -25 21 -25 21 -20 9 -20 10 -15 10 -15 9 -52 23 -53 23 0 6 0 7 38 7
37 6 23 6 22 5 0 -20 0 -21 10 -6 10 -6 10 25 10 26 5 0 6 0 -6 -12 -6 -13 15
19 15 19 30 -6 30 -6 -6 14 -5 15 -9 0 -9 0 1 18 1 17 5 -13 5 -12 9 6 10 6
16 -14 17 -13 -8 13 -7 12 10 0 10 0 3 -17 3 -18 8 12 7 11 -15 15 -15 16 0 5
0 5 15 -5 15 -6 0 11 0 11 -15 0 -15 0 0 11 0 11 23 -14 22 -15 13 4 12 5 -5
8 -5 8 13 10 13 11 14 -10 15 -10 -17 3 -17 3 2 -10 2 -10 8 2 7 3 0 -8 0 -9
43 -31 44 -31 12 12 12 12 -6 -17 -7 -18 15 0 15 0 -2 13 -2 13 -23 33 -23 33
0 25 0 25 10 7 11 7 7 59 6 60 -23 -32 -24 -33 -7 0 -8 0 -20 -20 -20 -20 0
-14 0 -15 -12 -7 -11 -7 8 14 8 14 -14 -12 -13 -13 -12 0 -12 0 -29 24 -29 25
-15 -10 -14 -9 25 -20 25 -20 -17 6 -18 6 0 -13 0 -14 -9 15 -10 14 5 8 5 8
-9 0 -10 0 -4 -18 -5 -19 -17 0 -16 0 0 9 0 8 15 0 15 0 0 10 0 9 -14 -5 -14
-5 -8 13 -8 13 -7 -25 -7 -25 -1 23 -1 22 -11 0 -11 0 4 -25 5 -24 -8 5 -9 5
0 15 0 14 -16 0 -15 0 7 -12 7 -11 -12 7 -11 7 5 10 6 9 -16 0 -16 0 7 -12 7
-11 -11 7 -12 7 -19 -10 -19 -11 12 25 11 24 3 -9 4 -10 9 0 10 0 -6 9 -5 10
32 -9 33 -10 -21 18 -21 17 -13 35 -13 35 -7 8 -6 7 -22 -29z m408 -135 l0 -4
-16 -6 -15 -6 6 10 6 10 10 0 9 0 0 -4z m-190 -22 l0 -3 -9 -6 -10 -5 -5 8 -5
9 14 0 15 0 0 -3z m-440 -22 l13 3 0 -25 0 -25 -2 -20 -1 -20 -9 14 -9 14 6
16 5 16 -7 -6 -7 -6 -4 -23 -4 -23 -6 -5 -5 -5 -1 19 -1 19 2 10 3 10 -2 30
-1 30 8 -13 9 -13 13 3z m43 -12 l5 -20 -8 -5 -8 -5 -4 30 -4 29 7 -4 7 -5 5
-20z m50 2 l17 -19 -15 0 -15 0 5 5 5 5 -11 14 -11 13 4 0 5 0 16 -18z m117
14 l0 -4 -17 -13 -18 -14 14 18 13 17 4 0 4 0 0 -4z m74 -23 l-2 -28 -1 -12
-1 -13 -10 0 -11 0 10 19 10 18 -6 6 -5 6 5 16 6 15 4 0 3 0 -2 -27z m-214
-18 l0 -10 -10 15 -10 15 0 10 0 10 10 -15 10 -15 0 -10z m69 -45 l8 0 -1 22
-1 21 22 2 22 2 4 -18 5 -17 -9 -13 -9 -14 0 23 0 22 -11 0 -11 0 5 -19 4 -18
-21 2 -21 2 -11 2 -12 1 -5 19 -5 20 14 -6 14 -5 2 28 1 29 4 -42 4 -43 8 0z
m106 49 l7 -31 -12 -11 -13 -12 7 28 6 27 -10 0 -10 0 0 -27 0 -26 -6 5 -6 6
-2 26 -3 25 11 -2 11 -2 -2 13 -3 12 9 0 9 0 7 -31z m399 15 l6 -15 -10 6 -10
6 0 10 0 9 4 0 4 0 6 -16z m-324 -24 l8 0 5 13 6 12 -2 -26 -1 -25 -21 1 -20
2 3 6 2 7 1 23 1 22 5 -17 4 -18 9 0z m83 5 l-5 -15 -3 0 -4 0 2 19 1 20 8 -5
7 -5 -6 -14z m-35 -10 l-6 -6 -6 18 -7 18 12 -12 13 -13 -6 -5z"/>
<path d="M550 1060 l-15 -10 12 0 12 0 6 10 6 10 -3 0 -3 0 -15 -10z"/>
<path d="M425 1170 l6 -10 5 0 4 0 0 10 0 10 -11 0 -10 0 6 -10z"/>
<path d="M480 1165 l-13 -15 4 -5 5 -4 12 19 12 20 -4 0 -4 0 -12 -15z"/>
<path d="M22 1160 l-22 -9 0 -12 0 -12 18 -14 17 -13 65 -32 65 -31 30 -7 30
-7 -3 -14 -3 -13 19 17 19 17 31 0 32 0 0 9 0 10 -12 7 -11 7 7 -11 6 -10 -17
3 -18 3 -9 1 -8 1 6 17 7 17 -20 -18 -19 -17 -7 11 -6 10 -12 -7 -12 -7 13 16
13 16 -21 -5 -22 -6 -8 13 -8 13 -11 -7 -11 -7 6 -11 7 -11 -11 7 -11 7 6 14
5 15 -11 0 -11 0 0 -17 0 -18 -9 14 -9 14 -15 -6 -16 -6 6 15 5 14 -21 1 -21
2 -10 1 -10 1 0 10 0 10 12 0 11 0 5 13 4 12 -4 -1 -3 0 -23 -9z"/>
<path d="M93 1150 l1 -20 8 0 8 0 0 14 0 15 -9 6 -10 5 2 -20z"/>
<path d="M153 1154 l2 -19 -12 0 -11 0 -4 -5 -3 -5 4 2 4 3 14 -12 13 -11 7 7
6 6 -13 0 -12 0 12 15 13 16 -10 10 -11 11 1 -18z"/>
<path d="M61 1147 l-11 -14 13 0 14 0 0 14 0 13 -2 0 -3 0 -11 -13z"/>
<path d="M186 1098 l5 -8 10 5 9 6 0 3 0 3 -15 0 -14 0 5 -9z"/>
<path d="M440 1090 l0 -10 11 0 10 0 -6 10 -6 10 -5 0 -4 0 0 -10z"/>
<path d="M460 1070 l-15 -10 12 0 12 0 6 10 6 10 -3 0 -3 0 -15 -10z"/>
<path d="M345 1042 l-10 -7 -2 -12 -3 -13 5 0 4 0 11 20 11 20 -3 0 -3 0 -10
-8z"/>
<path d="M421 1014 l1 -19 5 13 5 13 -6 6 -6 6 1 -19z"/>
<path d="M0 385 l0 -385 640 0 640 0 0 385 0 385 -640 0 -640 0 0 -385z"/>
</g>
</svg>
