<?xml version="1.0" standalone="no"?>
<!DOCTYPE svg PUBLIC "-//W3C//DTD SVG 20010904//EN"
 "http://www.w3.org/TR/2001/REC-SVG-20010904/DTD/svg10.dtd">
<svg version="1.0" xmlns="http://www.w3.org/2000/svg"
 width="468pt" height="468pt" viewBox="0 0 468 468"
 preserveAspectRatio="xMidYMid meet">
<metadata>
Created by potrace 1.8, written by Peter Selinger 2001-2007
</metadata>
<g transform="translate(0,468) scale(0.365625,-0.365625)"
fill="#000000" stroke="none">
<path d="M680 1250 l0 -10 -40 0 -40 0 0 -10 0 -10 -15 0 -15 0 -55 -55 -55
-55 0 -40 0 -41 -14 -15 -15 -14 -14 0 -15 0 -4 12 -4 12 -37 -37 -38 -37 66
-65 65 -66 37 38 37 37 -12 4 -12 4 0 15 0 14 14 15 15 14 30 0 31 0 95 -95
96 -95 -91 -90 -90 -89 0 -11 0 -11 -14 -15 -15 -14 -5 0 -6 0 0 35 0 36 -35
34 -34 35 -31 0 -31 0 -15 14 -14 15 0 13 0 14 -20 14 -20 14 0 16 0 16 -20
14 -20 14 0 16 0 16 -20 14 -20 14 0 16 0 16 -20 14 -20 14 0 16 0 16 -20 14
-20 14 0 16 0 16 -20 14 -20 14 0 16 0 16 -20 14 -20 14 0 14 0 13 -14 15 -15
14 -5 0 -6 0 0 -350 0 -350 160 0 160 0 0 10 0 10 -30 0 -30 0 0 20 0 20 -10
0 -10 0 0 -20 0 -20 -19 0 -19 0 -6 13 -6 12 -6 -12 -6 -13 -19 0 -19 0 0 20
0 20 -10 0 -10 0 0 -20 0 -20 -19 0 -19 0 -6 13 -6 12 -6 -12 -6 -13 -19 0
-19 0 0 19 0 19 13 6 12 6 -12 6 -13 6 0 19 0 19 20 0 20 0 0 10 0 10 -20 0
-20 0 0 19 0 19 13 6 12 6 -12 6 -13 6 0 19 0 19 20 0 20 0 0 10 0 10 -20 0
-20 0 0 19 0 19 13 6 12 6 -13 6 -12 6 0 19 0 19 20 0 20 0 0 10 0 10 -20 0
-20 0 0 19 0 19 13 6 12 6 -12 6 -13 6 0 19 0 19 20 0 20 0 0 10 0 10 -20 0
-20 0 0 19 0 19 13 6 12 6 -12 6 -13 6 0 39 0 39 6 0 5 0 15 -14 14 -15 0 -13
0 -14 20 -14 20 -14 0 -16 0 -16 20 -14 20 -14 0 -16 0 -16 20 -14 20 -14 0
-16 0 -16 20 -14 20 -14 0 -16 0 -16 20 -14 20 -14 0 -16 0 -16 20 -14 20 -14
0 -15 0 -14 21 -18 22 -19 -32 -29 -31 -29 0 -31 0 -32 35 -34 34 -35 26 0 25
0 0 -10 0 -10 -10 0 -10 0 0 -40 0 -40 -10 0 -10 0 0 -35 0 -36 25 -24 24 -25
41 0 41 0 44 45 45 44 0 31 0 31 -14 15 -15 14 -11 0 -11 0 -15 14 -14 15 0 5
0 6 30 0 30 0 0 -10 0 -10 146 0 146 0 39 41 39 40 25 -25 25 -25 0 -26 0 -25
-10 0 -10 0 0 -50 0 -50 10 0 10 0 0 -36 0 -35 14 -15 15 -14 41 0 41 0 15 14
14 15 0 35 0 36 10 0 10 0 0 46 0 47 -22 18 -21 19 23 20 23 20 -21 19 -22 18
0 107 0 106 16 0 15 0 16 15 15 16 -21 18 -21 18 0 23 0 22 30 28 30 28 0 131
0 132 -25 24 -24 25 -81 0 -81 0 -24 -25 -25 -24 0 -132 0 -131 30 -28 30 -28
0 -22 0 -23 -21 -18 -21 -18 15 -16 16 -15 15 0 16 0 0 -49 0 -49 -12 -5 -13
-4 24 -22 24 -21 -7 -7 -7 -7 -10 14 -9 15 -9 -15 -10 -14 -8 7 -7 8 14 10 15
9 -15 10 -15 10 14 9 14 9 -192 191 -191 191 0 45 0 45 10 0 10 0 0 20 0 20
20 0 20 0 0 10 0 10 40 0 40 0 0 10 0 10 60 0 60 0 0 10 0 10 -30 0 -30 0 0
10 0 10 -100 0 -100 0 0 -10z m546 -44 l14 -15 0 -121 0 -122 -30 -28 -30 -28
0 -46 0 -46 10 0 10 0 0 -10 0 -10 -70 0 -70 0 0 10 0 10 10 0 10 0 0 46 0 46
-30 28 -30 28 0 121 0 122 13 14 12 14 83 1 83 0 15 -14z m-330 -392 l146
-146 -13 -9 -14 -9 15 -10 15 -10 -14 -9 -14 -9 17 -18 18 -17 9 14 9 14 10
-15 10 -15 10 15 10 15 9 -15 10 -14 7 7 7 7 -21 19 -22 18 0 67 0 66 30 0 30
0 0 -89 0 -89 -12 -5 -13 -4 34 -32 34 -31 -23 -20 -23 -20 21 -19 22 -18 0
-47 0 -46 -10 0 -10 0 0 -19 0 -19 -12 -5 -13 -5 15 -11 14 -10 -7 -8 -8 -7
-10 14 -9 15 -10 -15 -10 -15 -11 15 -11 15 -5 -12 -5 -13 -9 0 -9 0 0 40 0
40 -10 0 -10 0 0 46 0 47 21 18 21 18 -48 47 -48 48 -4 -12 -4 -12 -169 0
-169 0 0 5 0 5 85 85 85 86 80 -81 80 -81 16 16 16 16 -6 7 -7 6 -9 -14 -9
-14 -8 7 -7 8 14 9 14 9 -7 8 -8 7 -9 -14 -9 -14 -8 7 -7 8 14 9 14 9 -7 8 -8
7 -9 -14 -9 -14 -8 7 -7 8 14 9 14 9 -7 8 -8 7 -9 -14 -9 -14 -8 7 -7 8 14 9
14 9 -7 8 -8 7 -9 -14 -9 -14 -8 7 -7 8 14 9 14 9 -7 8 -8 7 -9 -14 -9 -14 -8
7 -7 8 14 9 14 9 -7 8 -8 7 -9 -14 -9 -14 -8 7 -7 8 13 9 14 8 -16 17 -17 16
-99 -100 -100 -101 -16 0 -15 0 0 15 0 16 90 89 91 90 -61 60 -61 60 33 34 33
35 3 0 2 1 146 -146z m-36 -84 l0 -10 -10 0 -10 0 0 10 0 10 10 0 10 0 0 -10z
m-374 -124 l14 -15 0 -11 0 -11 -14 -15 -15 -14 -11 0 -11 0 -15 14 -14 15 0
11 0 11 13 14 12 14 13 1 13 0 15 -14z m154 -86 l0 -20 -20 0 -20 0 0 20 0 20
20 0 20 0 0 -20z m320 -6 l0 -5 -14 -15 -15 -14 -135 0 -136 0 0 20 0 20 150
0 150 0 0 -6z m-374 -108 l14 -15 0 -11 0 -11 -25 -24 -24 -25 -11 0 -11 0
-15 14 -14 15 0 11 0 11 23 24 22 24 13 0 13 1 15 -14z"/>
<path d="M1073 1165 l-13 -14 0 -76 0 -75 10 0 10 0 0 80 0 80 10 0 10 0 0
-100 0 -100 10 0 10 0 0 96 0 95 -14 15 -15 14 -3 0 -3 -1 -12 -14z"/>
<path d="M1153 1165 l-13 -14 0 -76 0 -75 10 0 10 0 0 80 0 80 10 0 10 0 0
-100 0 -100 10 0 10 0 0 96 0 95 -14 15 -15 14 -3 0 -3 -1 -12 -14z"/>
<path d="M722 914 l-23 -24 55 -55 56 -55 20 0 21 0 80 -81 80 -81 7 6 6 7
-14 10 -15 9 14 9 13 9 -136 136 -136 136 -2 -1 -3 0 -23 -25z m84 -50 l56
-55 -7 -7 -6 -6 -10 14 -9 15 -9 -14 -9 -14 -46 47 -47 46 13 15 13 14 3 1 2
0 56 -56z m140 -140 l56 -55 -5 -6 -6 -5 -55 56 -56 56 0 5 0 5 5 0 5 0 56
-56z"/>
<path d="M740 895 l0 -6 36 -35 35 -36 6 5 5 6 -36 35 -35 36 -6 0 -5 0 0 -5z"/>
<path d="M1020 574 l0 -5 52 -51 51 -50 -13 -8 -13 -8 16 -17 17 -16 17 16 16
17 -14 8 -13 9 23 20 23 20 -37 37 -37 37 -9 -14 -9 -14 -10 15 -10 15 -11
-15 -11 -15 -5 13 -5 12 -9 0 -9 0 0 -6z m63 -26 l5 -13 10 14 10 14 27 -27
26 -26 -15 -16 -16 -15 -35 35 -35 35 0 6 0 5 9 0 9 0 5 -12z m57 -98 l0 -10
-10 0 -10 0 0 10 0 10 10 0 10 0 0 -10z"/>
<path d="M1100 534 l0 -5 15 -16 16 -15 6 5 5 6 -15 16 -16 15 -5 0 -6 0 0 -6z"/>
<path d="M180 734 l0 -105 14 -15 15 -14 51 0 51 0 17 17 17 16 -13 5 -12 4 0
17 0 17 -20 14 -20 14 0 18 0 18 -10 0 -10 0 0 18 0 18 -20 14 -20 14 0 18 0
18 -20 0 -20 0 0 -106z m46 52 l14 -15 0 -15 0 -16 10 0 10 0 0 -18 0 -18 20
-14 20 -14 0 -18 0 -18 10 0 10 0 0 -10 0 -10 -60 0 -60 0 0 90 0 90 6 0 5 0
15 -14z"/>
<path d="M40 320 l0 -100 490 0 490 0 0 100 0 100 -170 0 -170 0 0 -6 0 -5 17
-17 16 -17 5 13 4 12 19 0 19 0 0 -20 0 -20 10 0 10 0 0 20 0 20 19 0 19 0 6
-12 6 -13 6 13 6 12 19 0 19 0 0 -20 0 -20 10 0 10 0 0 20 0 20 19 0 19 0 6
-12 6 -13 6 13 6 12 19 0 19 0 0 -40 0 -40 -9 0 -9 0 -5 13 -5 12 -11 -15 -11
-15 -10 15 -10 15 -10 -15 -10 -15 -10 15 -10 15 -10 -15 -10 -15 -10 15 -10
15 -10 -15 -10 -15 -10 15 -10 15 -10 -15 -10 -15 -10 15 -10 15 -10 -15 -10
-15 -10 15 -10 15 -10 -15 -10 -15 -9 14 -9 14 -17 -17 -17 -17 6 -7 7 -6 10
14 9 15 10 -15 10 -15 10 15 10 15 10 -15 10 -15 10 15 10 15 10 -15 10 -15
10 15 10 15 10 -15 10 -15 10 15 10 15 10 -15 10 -15 10 15 10 15 10 -15 10
-15 10 15 10 15 10 -15 10 -15 9 14 9 14 16 -16 16 -16 0 -25 0 -26 -19 0 -19
0 -6 13 -6 12 -6 -12 -6 -13 -19 0 -19 0 0 20 0 20 -10 0 -10 0 0 -20 0 -20
-19 0 -19 0 -6 13 -6 12 -6 -12 -6 -13 -19 0 -19 0 0 20 0 20 -10 0 -10 0 0
-20 0 -20 -19 0 -19 0 -6 13 -6 12 -6 -12 -6 -13 -19 0 -19 0 0 20 0 20 -10 0
-10 0 0 -20 0 -20 -19 0 -19 0 -6 13 -6 12 -6 -12 -6 -13 -48 0 -48 0 -6 13
-6 12 -6 -12 -6 -13 -19 0 -19 0 0 20 0 20 -10 0 -10 0 0 -20 0 -20 -19 0 -19
0 -6 13 -6 12 -6 -12 -6 -13 -19 0 -19 0 0 20 0 20 -10 0 -10 0 0 -20 0 -20
-19 0 -19 0 -6 13 -6 12 -6 -12 -6 -13 -19 0 -19 0 0 20 0 20 -10 0 -10 0 0
-20 0 -20 -19 0 -19 0 -6 13 -6 12 -6 -12 -6 -13 -19 0 -19 0 0 26 0 25 16 16
16 16 9 -14 9 -14 10 15 10 15 10 -15 10 -15 10 15 10 15 10 -15 10 -15 10 15
10 15 10 -15 10 -15 10 15 10 15 10 -15 10 -15 10 15 10 15 10 -15 10 -15 10
15 10 15 10 -15 10 -15 10 15 10 15 9 -14 9 -14 17 17 17 17 -6 7 -7 6 -10
-14 -9 -15 -10 15 -10 15 -10 -15 -10 -15 -10 15 -10 15 -10 -15 -10 -15 -10
15 -10 15 -10 -15 -10 -15 -10 15 -10 15 -10 -15 -10 -15 -10 15 -10 15 -10
-15 -10 -15 -10 15 -10 15 -10 -15 -10 -15 -10 15 -10 15 -10 -15 -10 -15 -11
15 -11 15 -5 -12 -5 -13 -9 0 -9 0 0 40 0 40 19 0 19 0 6 -12 6 -13 6 13 6 12
19 0 19 0 0 -20 0 -20 10 0 10 0 0 20 0 20 19 0 19 0 6 -12 6 -13 6 13 6 12
19 0 19 0 0 -20 0 -20 10 0 10 0 0 20 0 20 19 0 19 0 6 -12 6 -13 6 13 6 12
19 0 19 0 0 -20 0 -20 10 0 10 0 0 20 0 20 10 0 10 0 0 10 0 10 -200 0 -200 0
0 -100z"/>
<path d="M0 100 l0 -100 640 0 640 0 0 100 0 100 -640 0 -640 0 0 -100z"/>
</g>
</svg>
