<?xml version="1.0" standalone="no"?>
<!DOCTYPE svg PUBLIC "-//W3C//DTD SVG 20010904//EN"
 "http://www.w3.org/TR/2001/REC-SVG-20010904/DTD/svg10.dtd">
<svg version="1.0" xmlns="http://www.w3.org/2000/svg"
 width="468pt" height="468pt" viewBox="0 0 468 468"
 preserveAspectRatio="xMidYMid meet">
<metadata>
Created by potrace 1.8, written by Peter Selinger 2001-2007
</metadata>
<g transform="translate(0,468) scale(0.365625,-0.365625)"
fill="#000000" stroke="none">
<path d="M0 1095 l0 -185 10 0 10 0 0 -370 0 -370 -10 0 -10 0 0 -85 0 -85
135 0 135 0 0 10 0 10 25 0 25 0 0 -10 0 -10 330 0 330 0 0 10 0 10 25 0 25 0
0 -10 0 -10 125 0 125 0 0 75 0 75 -25 0 -25 0 0 -15 0 -15 -21 0 -20 0 -15
-14 -14 -15 0 -10 0 -11 -25 0 -25 0 0 -10 0 -10 -15 0 -15 0 0 -15 0 -15 -25
0 -25 0 0 15 0 15 25 0 25 0 0 10 0 10 15 0 15 0 0 15 0 15 21 0 20 0 15 14
14 15 0 10 0 11 25 0 25 0 0 10 0 10 25 0 25 0 0 370 0 370 -25 0 -25 0 0 15
0 15 -23 0 -23 0 -14 20 -14 20 -23 0 -23 0 0 15 0 15 -15 0 -15 0 0 10 0 10
-25 0 -25 0 0 15 0 15 -21 0 -20 0 -15 14 -14 15 0 10 0 11 -25 0 -25 0 0 10
0 10 -25 0 -25 0 0 11 0 10 -14 15 -15 14 -20 0 -21 0 0 15 0 15 -15 0 -15 0
0 10 0 10 -25 0 -25 0 0 15 0 15 25 0 25 0 0 -15 0 -15 15 0 15 0 0 -10 0 -10
25 0 25 0 0 -11 0 -10 14 -15 15 -14 20 0 21 0 0 -15 0 -15 21 0 20 0 15 -14
14 -15 0 -10 0 -11 25 0 25 0 0 -10 0 -10 25 0 25 0 0 -15 0 -15 15 0 15 0 0
-10 0 -10 25 0 25 0 0 -11 0 -10 14 -15 15 -14 20 0 21 0 0 -10 0 -10 25 0 25
0 0 170 0 170 -285 0 -285 0 0 -10 0 -10 -24 0 -24 0 -6 13 -6 12 -6 -12 -6
-13 -24 0 -24 0 0 10 0 10 -295 0 -295 0 0 -185z m590 150 l0 -15 -21 0 -20 0
-15 -14 -14 -15 0 -10 0 -11 -25 0 -25 0 0 -10 0 -10 -15 0 -15 0 0 -15 0 -15
-25 0 -25 0 0 -10 0 -10 -25 0 -25 0 0 -11 0 -10 -14 -15 -15 -14 -20 0 -21 0
0 -15 0 -15 -21 0 -20 0 -15 -14 -14 -15 0 -10 0 -11 -25 0 -25 0 0 -10 0 -10
-15 0 -15 0 0 -10 0 -10 -25 0 -25 0 0 -15 0 -15 -25 0 -25 0 0 15 0 15 25 0
25 0 0 10 0 10 25 0 25 0 0 10 0 10 15 0 15 0 0 15 0 15 21 0 20 0 15 14 14
15 0 10 0 11 25 0 25 0 0 10 0 10 25 0 25 0 0 11 0 10 14 15 15 14 20 0 21 0
0 15 0 15 25 0 25 0 0 10 0 10 15 0 15 0 0 15 0 15 21 0 20 0 15 14 14 15 0
10 0 11 25 0 25 0 0 -15z m-520 -1085 l0 -10 25 0 25 0 0 -15 0 -15 15 0 15 0
0 -10 0 -10 25 0 25 0 0 -11 0 -10 14 -15 15 -14 20 0 21 0 0 -15 0 -15 -25 0
-25 0 0 11 0 10 -14 15 -15 14 -20 0 -21 0 0 15 0 15 -15 0 -15 0 0 10 0 10
-25 0 -25 0 0 15 0 15 -25 0 -25 0 0 10 0 10 25 0 25 0 0 -10z"/>
</g>
</svg>
