<?xml version="1.0" standalone="no"?>
<!DOCTYPE svg PUBLIC "-//W3C//DTD SVG 20010904//EN"
 "http://www.w3.org/TR/2001/REC-SVG-20010904/DTD/svg10.dtd">
<svg version="1.0" xmlns="http://www.w3.org/2000/svg"
 width="468pt" height="468pt" viewBox="0 0 468 468"
 preserveAspectRatio="xMidYMid meet">
<metadata>
Created by potrace 1.8, written by Peter Selinger 2001-2007
</metadata>
<g transform="translate(0,468) scale(0.365625,-0.365625)"
fill="#000000" stroke="none">
<path d="M220 1092 l0 -8 20 -14 20 -14 0 -18 0 -18 -9 0 -9 0 -5 13 -5 12
-11 -15 -11 -15 -10 15 -10 15 -10 -15 -10 -15 -9 15 -10 14 -7 -6 -6 -7 17
-17 17 -17 9 14 9 14 10 -15 10 -15 10 15 10 15 9 -15 10 -14 21 24 21 24 10
-14 9 -15 10 15 10 15 10 -15 10 -15 9 15 10 14 7 -7 7 -7 -23 -20 -23 -20 24
-21 23 -20 -14 -9 -14 -9 24 -21 24 -21 -14 -9 -13 -8 43 -42 43 -42 -13 -8
-14 -8 34 -32 34 -32 -15 -9 -14 -9 14 -9 14 -9 -27 -26 -26 -27 -26 27 -27
26 13 8 14 8 -34 32 -34 32 14 8 14 8 -34 32 -34 32 14 8 14 8 -33 31 -33 31
32 30 32 30 -17 16 -17 17 -9 -14 -9 -14 -10 15 -10 15 -10 -15 -10 -15 -10
15 -10 15 -10 -15 -10 -15 -11 15 -11 15 -5 -12 -5 -13 -59 0 -59 0 0 -8 0 -8
20 -14 20 -14 0 -18 0 -18 10 0 10 0 0 -20 0 -20 10 0 10 0 0 -20 0 -20 10 0
10 0 0 -20 0 -20 10 0 10 0 0 -20 0 -20 10 0 10 0 0 -20 0 -20 10 0 10 0 0
-20 0 -20 10 0 10 0 0 -20 0 -20 10 0 10 0 0 -20 0 -20 10 0 10 0 0 -20 0 -20
10 0 10 0 0 -20 0 -20 10 0 10 0 0 -20 0 -20 10 0 10 0 0 -20 0 -20 10 0 10 0
0 -20 0 -20 10 0 10 0 0 -20 0 -20 10 0 10 0 0 -20 0 -20 10 0 10 0 0 18 0 18
20 14 20 14 0 18 0 18 10 0 10 0 0 -20 0 -20 10 0 10 0 0 15 0 16 26 26 26 26
8 -13 8 -13 16 16 16 16 0 15 0 16 5 0 6 0 24 -25 25 -24 0 -16 0 -15 10 0 10
0 0 -18 0 -18 20 -14 20 -14 0 -18 0 -18 10 0 10 0 0 20 0 20 10 0 10 0 0 18
0 18 20 14 20 14 0 15 0 14 22 19 22 19 -14 9 -14 8 34 32 34 32 -14 8 -14 8
34 32 34 32 -14 8 -14 8 34 32 34 32 -14 8 -14 8 34 32 34 32 -14 8 -14 8 34
32 34 32 -14 8 -13 8 37 37 37 37 6 -6 6 -6 -24 -20 -23 -21 14 -9 14 -8 -34
-32 -34 -32 14 -8 14 -8 -34 -32 -34 -32 14 -8 14 -8 -34 -32 -34 -32 14 -8
14 -8 -34 -32 -34 -32 14 -8 14 -8 -34 -32 -34 -32 14 -8 14 -8 -32 -30 -32
-30 0 -16 0 -16 -10 0 -10 0 0 -20 0 -20 10 0 10 0 0 20 0 20 10 0 10 0 0 20
0 20 20 0 20 0 0 -10 0 -10 10 0 10 0 0 20 0 20 10 0 10 0 0 20 0 20 10 0 10
0 0 20 0 20 10 0 10 0 0 20 0 20 10 0 10 0 0 20 0 20 10 0 10 0 0 20 0 20 10
0 10 0 0 20 0 20 10 0 10 0 0 20 0 20 10 0 10 0 0 20 0 20 10 0 10 0 0 20 0
20 10 0 10 0 0 20 0 20 10 0 10 0 0 20 0 20 10 0 10 0 0 20 0 20 10 0 10 0 0
20 0 20 10 0 10 0 0 20 0 20 10 0 10 0 0 18 0 18 20 14 20 14 0 8 0 8 -130 0
-130 0 0 -8 0 -8 20 -14 20 -14 0 -18 0 -18 -9 0 -9 0 -5 13 -5 12 -11 -15
-11 -15 -10 15 -10 15 -10 -15 -10 -15 -9 15 -10 14 -7 -6 -6 -7 17 -17 17
-17 9 14 9 14 10 -15 10 -15 10 15 10 15 9 -15 10 -14 21 24 21 24 10 -14 9
-15 10 15 10 15 10 -15 10 -15 9 15 10 14 7 -6 6 -7 -27 -27 -27 -27 -9 14 -9
14 -10 -15 -10 -15 -10 15 -10 15 -10 -15 -10 -15 -10 15 -10 15 -10 -15 -10
-15 -11 15 -11 15 -5 -12 -5 -13 -59 0 -59 0 0 -8 0 -8 20 -14 20 -14 0 -18 0
-18 -10 0 -10 0 0 -20 0 -20 -10 0 -10 0 0 -16 0 -15 -14 -15 -15 -14 -5 0 -6
0 0 20 0 20 -10 0 -10 0 0 20 0 20 -10 0 -10 0 0 20 0 20 -10 0 -10 0 0 -20 0
-20 -10 0 -10 0 0 -16 0 -17 -22 -18 -21 -19 24 -21 23 -20 -14 -9 -14 -8 33
-31 34 -31 -24 -21 -23 -20 13 -9 14 -8 -16 -17 -17 -16 -17 16 -16 17 13 8
14 8 -34 32 -33 31 7 7 7 6 9 -13 8 -14 17 16 16 17 -16 16 -16 16 -7 -6 -6
-7 14 -9 14 -9 -7 -8 -8 -7 -10 14 -9 15 -9 -15 -10 -14 -7 6 -7 7 33 31 34
32 -15 10 -14 10 13 5 12 5 0 19 0 19 -10 0 -10 0 0 -20 0 -20 -10 0 -10 0 0
-18 0 -18 -20 -14 -20 -14 0 -16 0 -16 20 -14 20 -14 0 -18 0 -18 10 0 10 0 0
-20 0 -20 10 0 10 0 0 -16 0 -15 15 -15 15 -15 15 15 15 15 0 15 0 16 10 0 10
0 0 20 0 20 10 0 10 0 0 20 0 20 10 0 10 0 0 20 0 20 10 0 10 0 0 20 0 20 10
0 10 0 0 20 0 20 10 0 10 0 0 20 0 20 10 0 10 0 0 20 0 20 10 0 10 0 0 20 0
20 -10 0 -10 0 0 10 0 10 90 0 90 0 0 -10 0 -10 -10 0 -10 0 0 -20 0 -20 -10
0 -10 0 0 -20 0 -20 -10 0 -10 0 0 -20 0 -20 -10 0 -10 0 0 -20 0 -20 -10 0
-10 0 0 -20 0 -20 -10 0 -10 0 0 -20 0 -20 -10 0 -10 0 0 -20 0 -20 -10 0 -10
0 0 -20 0 -20 -10 0 -10 0 0 -20 0 -20 -10 0 -10 0 0 -20 0 -20 -10 0 -10 0 0
-20 0 -20 -10 0 -10 0 0 -20 0 -20 -10 0 -10 0 0 -20 0 -20 -10 0 -10 0 0 -20
0 -20 -10 0 -10 0 0 -20 0 -20 -6 0 -5 0 -15 14 -14 15 0 15 0 16 -10 0 -10 0
0 18 0 18 -20 14 -20 14 0 18 0 18 -10 0 -10 0 0 15 0 16 -25 25 -25 25 -25
-25 -25 -25 0 -16 0 -15 -10 0 -10 0 0 -18 0 -18 -20 -14 -20 -14 0 -18 0 -18
-10 0 -10 0 0 -16 0 -15 -14 -15 -15 -14 -5 0 -6 0 0 20 0 20 -10 0 -10 0 0
20 0 20 -10 0 -10 0 0 20 0 20 -10 0 -10 0 0 20 0 20 -10 0 -10 0 0 20 0 20
-10 0 -10 0 0 20 0 20 -10 0 -10 0 0 20 0 20 -10 0 -10 0 0 20 0 20 -10 0 -10
0 0 20 0 20 -10 0 -10 0 0 20 0 20 -10 0 -10 0 0 20 0 20 -10 0 -10 0 0 20 0
20 -10 0 -10 0 0 20 0 20 -10 0 -10 0 0 20 0 20 -10 0 -10 0 0 20 0 20 -10 0
-10 0 0 10 0 10 90 0 90 0 0 -10 0 -10 -10 0 -10 0 0 -20 0 -20 10 0 10 0 0
-20 0 -20 10 0 10 0 0 -20 0 -20 10 0 10 0 0 -20 0 -20 10 0 10 0 0 -20 0 -20
10 0 10 0 0 -20 0 -20 10 0 10 0 0 -20 0 -20 10 0 10 0 0 -20 0 -20 10 0 10 0
0 -16 0 -15 15 -15 15 -15 15 15 15 15 0 13 0 14 20 14 20 14 0 18 0 18 10 0
10 0 0 20 0 20 10 0 10 0 0 19 0 19 13 6 12 6 -12 6 -13 6 0 19 0 19 -10 0
-10 0 0 20 0 20 -10 0 -10 0 0 20 0 20 -10 0 -10 0 0 20 0 20 -10 0 -10 0 0
20 0 20 -10 0 -10 0 0 20 0 20 -10 0 -10 0 0 18 0 18 20 14 20 14 0 8 0 8
-130 0 -130 0 0 -8z m240 -502 l0 -10 -10 0 -10 0 0 10 0 10 10 0 10 0 0 -10z
m120 -40 l0 -10 -10 0 -10 0 0 -20 0 -20 -10 0 -10 0 0 -18 0 -18 -20 -14 -20
-14 0 -18 0 -18 -10 0 -10 0 0 18 0 18 20 14 20 14 0 18 0 18 10 0 10 0 0 15
0 16 13 14 12 14 8 1 7 0 0 -10z"/>
<path d="M280 1010 l0 -10 10 0 10 0 0 10 0 10 -10 0 -10 0 0 -10z"/>
<path d="M320 1010 l0 -10 10 0 10 0 0 10 0 10 -10 0 -10 0 0 -10z"/>
<path d="M1040 1010 l0 -10 10 0 10 0 0 10 0 10 -10 0 -10 0 0 -10z"/>
<path d="M1080 1010 l0 -10 10 0 10 0 0 10 0 10 -10 0 -10 0 0 -10z"/>
<path d="M322 934 l-23 -25 32 -30 33 -31 -14 -8 -14 -8 34 -32 34 -32 -14 -8
-14 -8 34 -32 34 -32 -14 -8 -13 -8 16 -17 17 -16 17 16 16 17 -14 9 -14 9 14
9 15 9 -34 32 -34 32 14 8 13 8 -43 42 -43 42 13 8 14 9 -24 22 -25 22 13 4
12 5 0 9 0 9 -7 -1 -8 0 -23 -25z m25 -29 l15 -16 -5 -6 -6 -5 -16 15 -15 16
0 5 0 6 6 0 5 0 16 -15z m50 -91 l25 -25 -5 -6 -6 -5 -25 25 -26 26 0 6 0 5 5
0 6 0 26 -26z m40 -80 l25 -25 -5 -6 -6 -5 -25 25 -26 26 0 6 0 5 5 0 6 0 26
-26z m23 -64 l0 -10 -10 0 -10 0 0 10 0 10 10 0 10 0 0 -10z"/>
<path d="M1040 890 l0 -10 10 0 10 0 0 10 0 10 -10 0 -10 0 0 -10z"/>
<path d="M1000 810 l0 -10 10 0 10 0 0 10 0 10 -10 0 -10 0 0 -10z"/>
<path d="M660 770 l0 -10 10 0 10 0 0 10 0 10 -10 0 -10 0 0 -10z"/>
<path d="M960 730 l0 -10 10 0 10 0 0 10 0 10 -10 0 -10 0 0 -10z"/>
<path d="M672 704 l-13 -14 15 -16 16 -15 16 15 15 16 -15 15 -15 15 -3 0 -3
-1 -13 -15z m28 -14 l0 -10 -10 0 -10 0 0 10 0 10 10 0 10 0 0 -10z"/>
<path d="M920 650 l0 -10 10 0 10 0 0 10 0 10 -10 0 -10 0 0 -10z"/>
<path d="M680 630 l0 -10 10 0 10 0 0 10 0 10 -10 0 -10 0 0 -10z"/>
<path d="M880 570 l0 -10 10 0 10 0 0 10 0 10 -10 0 -10 0 0 -10z"/>
<path d="M840 490 l0 -10 10 0 10 0 0 10 0 10 -10 0 -10 0 0 -10z"/>
<path d="M0 100 l0 -100 640 0 640 0 0 100 0 100 -640 0 -640 0 0 -100z"/>
</g>
</svg>
