<?xml version="1.0" standalone="no"?>
<!DOCTYPE svg PUBLIC "-//W3C//DTD SVG 20010904//EN"
 "http://www.w3.org/TR/2001/REC-SVG-20010904/DTD/svg10.dtd">
<svg version="1.0" xmlns="http://www.w3.org/2000/svg"
 width="468pt" height="468pt" viewBox="0 0 468 468"
 preserveAspectRatio="xMidYMid meet">
<metadata>
Created by potrace 1.8, written by Peter Selinger 2001-2007
</metadata>
<g transform="translate(0,468) scale(0.365625,-0.365625)"
fill="#000000" stroke="none">
<path d="M770 1264 l0 -15 -14 -15 -15 -14 -15 0 -16 0 0 -10 0 -10 -50 0 -50
0 0 -10 0 -10 -20 0 -20 0 0 -10 0 -10 -18 0 -18 0 -14 -20 -14 -20 -24 0 -23
0 -34 -35 -35 -34 0 -26 0 -25 -10 0 -10 0 0 -55 0 -55 -10 0 -10 0 0 -28 0
-28 20 -14 20 -14 0 -18 0 -18 10 0 10 0 0 -30 0 -30 -10 0 -10 0 0 -50 0 -50
-6 0 -6 0 -28 30 -28 30 -11 0 -11 0 0 10 0 10 -20 0 -20 0 0 10 0 10 -30 0
-30 0 0 10 0 10 -15 0 -16 0 -24 25 -25 24 0 66 0 65 -10 0 -10 0 0 25 0 25
-7 0 -8 0 -15 -10 -14 -9 24 -21 24 -21 -14 -10 -15 -9 15 -10 15 -10 -15 -10
-15 -10 15 -10 15 -10 -15 -10 -15 -10 15 -9 14 -10 -6 -7 -7 -6 -17 17 -17
17 14 9 14 9 -15 10 -15 10 15 10 15 10 -15 10 -15 10 15 9 14 10 -6 7 -7 6
-17 -17 -17 -17 14 -9 14 -9 -15 -10 -15 -10 15 -10 15 -10 -15 -10 -15 -10
15 -10 15 -10 -15 -9 -14 -10 22 -19 22 -19 0 -7 0 -6 -20 0 -20 0 0 19 0 19
-12 5 -13 5 15 11 15 11 -15 10 -15 10 15 10 15 10 -15 10 -15 10 15 10 15 10
-15 10 -15 10 15 10 15 10 -15 10 -15 10 15 11 15 11 -14 5 -13 5 13 9 14 9
-15 10 -15 10 15 11 15 11 -12 5 -13 5 0 24 0 24 55 55 55 55 20 0 21 0 15
-14 14 -15 0 -15 0 -16 -10 0 -10 0 0 10 0 10 -30 0 -30 0 0 -20 0 -20 -20 0
-20 0 0 -10 0 -10 30 0 30 0 0 10 0 10 30 0 30 0 0 -10 0 -10 -20 0 -20 0 0
-10 0 -10 -46 0 -45 0 -16 -16 -16 -16 14 -9 14 -9 -14 -9 -14 -9 16 -16 16
-16 5 0 6 0 0 40 0 40 50 0 50 0 0 10 0 10 20 0 20 0 0 -15 0 -16 25 -24 24
-25 16 0 15 0 0 -10 0 -10 16 0 17 0 -7 46 -6 47 -20 17 -20 17 0 12 0 12 -25
24 -24 25 -13 0 -14 0 -14 20 -14 20 -24 0 -24 0 -38 -40 -38 -40 -16 0 -16 0
0 -20 0 -20 -10 0 -10 0 0 -170 0 -170 105 -105 105 -105 15 0 15 0 0 -10 0
-10 20 0 20 0 0 -105 0 -105 10 0 10 0 0 -49 0 -49 11 -4 11 -4 5 -67 6 -67
-17 0 -16 0 0 -10 0 -10 -16 0 -15 0 -16 -15 -15 -16 7 -7 8 -7 4 13 5 12 19
0 19 0 0 10 0 10 13 0 13 0 14 -20 14 -20 17 0 17 0 6 13 6 12 6 -12 6 -13 99
0 99 0 0 10 0 10 25 0 26 0 34 35 35 34 0 16 0 15 -6 0 -6 0 -38 -40 -38 -40
-15 0 -15 0 -5 13 -4 12 -22 -25 -22 -24 -10 14 -9 15 -10 -15 -10 -15 -10 15
-10 15 -10 -15 -10 -15 -10 15 -10 15 -9 -14 -9 -14 -37 38 -38 37 14 8 13 9
-23 20 -24 21 22 20 23 19 -27 27 -26 26 -6 -6 -6 -6 23 -20 23 -20 -6 -7 -7
-6 -19 22 -19 21 1 92 0 92 -12 4 -11 4 0 35 0 34 12 14 13 14 13 16 13 15
-13 15 -13 16 -38 41 -39 41 -8 -13 -8 -14 -32 34 -32 34 -8 -14 -8 -13 -36
37 -37 36 16 16 15 16 29 -31 29 -31 16 0 16 0 0 -10 0 -10 30 0 30 0 0 -10 0
-10 20 0 20 0 0 -10 0 -10 11 0 11 0 28 -30 28 -30 35 0 35 0 4 12 5 13 52
-54 53 -54 8 13 8 13 27 -28 28 -27 -14 -8 -13 -9 24 -21 24 -21 -14 -9 -14
-9 7 -8 8 -7 9 14 9 14 6 -6 7 -7 -37 -37 -37 -37 -34 -3 -33 -2 -22 19 -22
19 6 7 7 6 20 -23 20 -23 6 6 7 6 -33 31 -34 32 14 8 14 9 -6 7 -7 6 -17 -17
-17 -17 14 -10 14 -10 -12 -5 -13 -5 0 -19 0 -19 10 0 10 0 0 -14 0 -14 13 -5
12 -5 -15 -11 -15 -11 15 -10 15 -10 -14 -9 -14 -9 17 -18 18 -17 8 13 8 14
32 -34 32 -34 9 15 9 14 10 -15 10 -15 10 15 10 15 9 -14 9 -14 17 17 17 17
-6 7 -7 6 -10 -14 -9 -15 -10 15 -10 15 -10 -15 -10 -15 -10 15 -10 15 -9 -14
-9 -14 -37 38 -38 37 14 9 13 8 -7 8 -8 7 -9 -14 -9 -14 -7 6 -6 7 16 16 16
16 17 -16 16 -17 -13 -8 -13 -8 28 -27 27 -28 9 14 9 14 10 -15 10 -15 10 15
10 15 10 -15 10 -15 9 15 10 14 19 -22 19 -22 182 0 181 0 0 -10 0 -10 15 0
16 0 24 -25 25 -24 0 -31 0 -31 -14 -15 -15 -14 -24 0 -25 0 -5 13 -5 12 -11
-15 -11 -15 -10 15 -10 15 -10 -15 -10 -15 -10 15 -10 15 -10 -15 -10 -15 -10
15 -10 15 -10 -15 -10 -15 0 -10 0 -10 10 15 10 15 10 -15 10 -15 10 15 10 15
10 -15 10 -15 10 15 10 15 10 -15 10 -15 11 15 11 15 5 -12 5 -13 24 0 25 0
24 25 25 24 0 41 0 41 -25 24 -24 25 -26 0 -25 0 0 10 0 10 -165 0 -165 0 0
10 0 10 -20 0 -20 0 0 10 0 10 -56 0 -55 0 -15 14 -14 15 0 13 0 14 21 14 21
15 29 27 29 26 0 16 0 16 6 0 6 0 37 -39 38 -40 37 -6 36 -7 0 -9 0 -9 20 0
20 0 0 -10 0 -10 30 0 30 0 0 -10 0 -10 45 0 45 0 0 20 0 20 10 0 10 0 0 93 0
93 20 14 20 14 0 38 0 38 -10 0 -10 0 0 19 0 19 13 5 12 4 -7 8 -7 7 -16 -15
-15 -16 0 -15 0 -16 -30 0 -30 0 0 20 0 20 10 0 10 0 0 20 0 20 20 0 20 0 0
10 0 10 50 0 50 0 0 -10 0 -10 -20 0 -20 0 0 -10 0 -10 36 0 35 0 15 -14 14
-15 0 -21 0 -21 14 -15 15 -14 15 0 16 0 0 45 0 46 -35 34 -34 35 -76 0 -75 0
0 -10 0 -10 -16 0 -15 0 -15 -14 -14 -15 0 -15 0 -16 -10 0 -10 0 0 -30 0 -30
-9 0 -9 0 -7 -77 -7 -76 -14 -14 -14 -14 -59 60 -60 61 -11 0 -11 0 -34 35
-35 34 0 16 0 15 -10 0 -10 0 0 20 0 20 -10 0 -10 0 0 36 0 35 14 15 15 14 13
0 14 0 14 20 14 20 18 0 18 0 0 10 0 10 15 0 16 0 24 25 25 24 0 91 0 90 -10
0 -10 0 0 90 0 90 -10 0 -10 0 0 30 0 30 -30 0 -30 0 0 -16z m40 -34 l0 -30
10 0 10 0 0 -39 0 -39 -12 -6 -13 -6 13 -6 12 -6 0 -25 0 -24 -14 -15 -15 -14
-14 0 -15 0 -5 -12 -4 -13 -9 8 -8 8 14 10 15 9 -15 9 -14 10 22 19 22 19 0
17 0 16 10 0 10 0 0 30 0 30 -10 0 -10 0 0 -25 0 -26 -25 -24 -24 -25 -16 0
-15 0 0 -10 0 -10 -20 0 -20 0 0 10 0 10 -10 0 -10 0 0 -20 0 -20 20 0 20 0 0
-16 0 -16 31 -29 31 -29 -10 0 -11 0 -15 15 -15 15 -15 0 -16 0 0 10 0 10 -20
0 -20 0 0 10 0 10 -86 0 -85 0 -15 -14 -14 -15 0 -15 0 -16 10 0 10 0 0 20 0
20 19 0 19 0 6 -12 6 -13 6 13 6 12 18 0 18 0 6 -12 6 -13 6 13 6 12 17 0 17
0 14 -20 14 -20 31 -1 30 -1 -12 -5 -13 -5 0 -9 0 -9 20 0 20 0 0 -10 0 -10
-10 0 -10 0 0 -29 0 -29 -12 -5 -13 -5 15 -11 15 -11 -15 -10 -15 -10 14 -9
14 -9 -58 -57 -57 -58 -9 14 -9 14 -10 -15 -10 -15 -10 15 -10 15 -11 -15 -11
-15 -5 13 -5 12 -19 0 -19 0 0 10 0 10 -10 0 -10 0 0 -20 0 -20 10 0 10 0 0
-16 0 -15 -14 -15 -15 -14 -5 0 -6 0 0 50 0 50 10 0 10 0 0 30 0 30 -10 0 -10
0 0 60 0 60 -10 0 -10 0 0 -20 0 -20 -10 0 -10 0 0 16 0 15 15 16 15 15 31
-33 31 -33 8 14 9 14 21 -23 20 -24 6 6 6 6 -25 25 -26 26 -26 0 -25 0 0 35 0
35 -10 0 -10 0 0 15 0 16 25 24 24 25 16 0 15 0 0 10 0 10 -20 0 -20 0 0 6 0
5 14 15 15 14 23 0 24 0 14 20 14 20 18 0 18 0 0 10 0 10 20 0 20 0 0 10 0 10
39 0 39 0 6 13 6 12 6 -12 6 -13 9 0 9 0 0 15 0 16 23 24 22 24 8 0 7 1 0 -30z
m-564 -104 l14 -15 0 -13 0 -14 20 -14 20 -14 0 -18 0 -18 10 0 10 0 0 -10 0
-10 -15 0 -16 0 -34 35 -35 34 0 15 0 14 -12 4 -12 4 14 17 15 16 3 1 3 0 15
-14z m484 -96 l0 -10 -10 0 -10 0 0 10 0 10 10 0 10 0 0 -10z m120 -40 l0 -31
-25 -24 -24 -25 -6 0 -5 0 0 20 0 20 10 0 10 0 0 15 0 15 -9 0 -9 0 -5 -12 -4
-13 -8 7 -7 7 15 16 16 15 15 0 16 0 0 10 0 10 10 0 10 0 0 -30z m-80 -79 l0
-19 -12 -6 -13 -6 13 -6 12 -6 0 -24 0 -25 -26 -26 -25 -25 -6 6 -6 6 21 19
22 18 0 17 0 16 -20 0 -20 0 0 20 0 20 20 0 20 0 0 20 0 20 10 0 10 0 0 -19z
m80 -17 l0 -15 -15 -15 -15 -15 -15 15 -15 15 0 5 0 6 20 0 20 0 0 10 0 10 10
0 10 0 0 -16z m-770 -134 l0 -10 -10 0 -10 0 0 10 0 10 10 0 10 0 0 -10z m42
-82 l30 -32 8 14 8 14 32 -34 32 -34 8 14 8 13 41 -42 41 -43 0 -6 0 -7 -9
-14 -9 -15 -32 34 -32 34 -8 -13 -8 -14 -76 77 -76 76 0 5 0 5 6 0 6 0 30 -32z
m528 3 l0 -9 -12 -5 -13 -4 24 -22 24 -21 -7 -7 -7 -7 -9 14 -9 14 -7 -7 -7
-7 21 -19 22 -18 0 -7 0 -6 -20 0 -20 0 0 -6 0 -5 17 -17 16 -17 5 13 4 12 25
0 24 0 15 -14 14 -15 0 -15 0 -16 18 0 18 0 14 -20 14 -20 13 0 14 0 44 -45
45 -44 0 -15 0 -14 -12 -6 -13 -6 22 6 22 5 10 -18 11 -18 10 15 10 15 10 -15
10 -15 9 15 10 14 7 -6 6 -7 -17 -17 -17 -17 -9 14 -9 14 -11 -15 -11 -15 -4
10 -4 10 -10 15 -10 15 -9 -14 -9 -14 -17 17 -17 17 -18 -6 -19 -6 -76 76 -76
77 -19 -22 -19 -22 -17 16 -16 17 22 19 22 19 -16 17 -17 16 -7 -6 -6 -7 14
-9 14 -9 -6 -7 -7 -7 -31 33 -32 34 -8 -14 -8 -13 -37 37 -37 37 7 7 6 6 9
-14 8 -14 32 34 31 33 7 -7 6 -7 -14 -10 -15 -9 15 -10 15 -10 -14 -9 -14 -9
16 -17 17 -16 17 17 18 17 -13 5 -12 4 0 34 0 35 13 14 12 14 8 1 7 0 0 -9z
m550 -1 l0 -10 16 0 15 0 15 -14 14 -15 0 -35 0 -36 -10 0 -10 0 0 26 0 26
-30 28 -30 28 0 6 0 6 10 0 10 0 0 -10z m-120 -140 l0 -30 -20 0 -20 0 0 10 0
10 -30 0 -30 0 0 20 0 20 50 0 50 0 0 -30z m-54 -44 l14 -15 0 -74 0 -75 -12
-4 -13 -5 -30 1 -30 1 3 60 3 60 9 3 10 4 0 14 0 15 13 14 12 14 3 1 3 0 15
-14z m-496 -266 l0 -10 -10 0 -10 0 0 10 0 10 10 0 10 0 0 -10z m-160 -190 l0
-20 -10 0 -10 0 0 20 0 20 10 0 10 0 0 -20z m240 -10 l0 -10 -10 0 -10 0 0 10
0 10 10 0 10 0 0 -10z"/>
<path d="M681 1144 l-13 -15 6 -6 5 -5 16 15 15 16 0 5 0 6 -7 0 -8 -1 -14
-15z"/>
<path d="M723 1125 l-13 -14 0 -6 0 -5 20 0 20 0 0 20 0 20 -7 0 -8 -1 -12
-14z"/>
<path d="M630 1110 l0 -10 10 0 10 0 0 10 0 10 -10 0 -10 0 0 -10z"/>
<path d="M530 1070 l0 -10 20 0 20 0 0 10 0 10 -20 0 -20 0 0 -10z"/>
<path d="M590 1070 l0 -10 20 0 20 0 0 10 0 10 -20 0 -20 0 0 -10z"/>
<path d="M783 1065 l-13 -14 0 -6 0 -5 20 0 20 0 0 20 0 20 -7 0 -8 -1 -12
-14z"/>
<path d="M541 874 l-14 -16 14 -9 14 -9 -15 -10 -15 -10 15 -10 15 -10 -15 -9
-14 -10 7 -7 7 -7 19 21 18 22 26 0 25 0 5 13 5 12 11 -15 10 -14 7 7 7 7 -21
19 -22 18 0 17 0 16 -37 0 -38 -1 -14 -15z m76 -19 l15 -16 -6 -7 -7 -6 -9 14
-9 14 -21 -23 -20 -24 -6 6 -6 6 23 25 24 25 3 0 3 1 16 -15z"/>
<path d="M430 830 l0 -20 30 0 30 0 0 -10 0 -10 10 0 10 0 0 16 0 15 -16 16
-16 16 -10 -14 -10 -14 -5 13 -5 12 -9 0 -9 0 0 -20z"/>
<path d="M463 775 l-13 -14 0 -11 0 -11 26 -26 26 -26 9 14 9 14 9 -15 10 -14
21 23 20 24 7 -7 7 -7 -14 -9 -14 -9 6 -6 7 -7 46 47 47 46 -6 6 -6 6 -20 -23
-20 -23 -20 23 -20 23 -30 -33 -31 -33 -7 8 -7 8 13 4 12 5 0 9 0 9 -20 0 -20
0 0 10 0 10 -7 0 -8 -1 -12 -14z"/>
<path d="M160 645 l0 -6 36 -36 36 -36 8 13 8 14 32 -34 31 -33 5 6 6 6 -37
37 -37 37 -8 -13 -8 -14 -30 32 -30 32 -6 0 -6 0 0 -5z"/>
<path d="M542 594 l-13 -14 16 -16 16 -16 7 6 6 7 -14 10 -15 11 13 5 12 5 0
9 0 9 -7 0 -8 -1 -13 -15z"/>
<path d="M610 540 l0 -10 10 0 10 0 0 10 0 10 -10 0 -10 0 0 -10z"/>
<path d="M650 460 l0 -10 10 0 10 0 0 10 0 10 -10 0 -10 0 0 -10z"/>
<path d="M770 425 l0 -6 46 -46 46 -46 9 14 9 14 9 -15 10 -14 7 6 6 7 -17 17
-17 17 -8 -13 -8 -13 -40 41 -40 42 -6 0 -6 0 0 -5z"/>
<path d="M40 920 l0 -10 10 0 10 0 0 10 0 10 -10 0 -10 0 0 -10z"/>
<path d="M390 461 l0 -9 12 -4 12 -4 -28 -29 -28 -28 -8 14 -9 13 -8 -7 -7 -8
14 -10 15 -9 -15 -9 -14 -10 7 -8 8 -7 9 13 8 14 18 -17 17 -18 -14 -9 -14 -9
10 0 10 0 15 10 15 10 -15 9 -14 10 24 21 24 21 -14 10 -15 9 14 9 14 9 -16
16 -16 16 -5 0 -6 0 0 -9z m20 -57 l0 -5 -15 -16 -16 -15 -5 5 -6 6 13 15 14
15 8 1 7 0 0 -6z"/>
<path d="M570 340 l0 -10 10 0 10 0 0 10 0 10 -10 0 -10 0 0 -10z"/>
<path d="M401 304 l-14 -16 14 -9 14 -9 -15 -9 -14 -10 24 -21 24 -21 -14 -10
-15 -11 13 -5 12 -5 0 -24 0 -25 26 -26 26 -26 8 14 9 13 7 -6 6 -7 -17 -17
-17 -17 -9 14 -9 14 -9 -15 -10 -14 -8 7 -7 8 14 9 14 9 -7 8 -8 7 -9 -14 -9
-14 -8 7 -7 8 13 9 14 8 -27 27 -27 27 -6 -6 -6 -6 24 -20 23 -21 -13 -9 -14
-8 28 -27 27 -28 9 14 9 14 10 -15 10 -15 10 15 10 15 10 -15 10 -15 10 15 10
15 9 -15 10 -14 7 6 6 7 -61 60 -61 60 0 25 0 24 -12 5 -13 5 15 11 14 10 -24
22 -25 22 13 4 12 5 0 9 0 9 -7 0 -8 -1 -14 -15z m29 -54 l0 -10 -10 0 -10 0
0 10 0 10 10 0 10 0 0 -10z m100 -180 l0 -10 -10 0 -10 0 0 10 0 10 10 0 10 0
0 -10z"/>
<path d="M890 150 l0 -10 10 0 10 0 0 10 0 10 -10 0 -10 0 0 -10z"/>
<path d="M850 130 l0 -10 10 0 10 0 0 10 0 10 -10 0 -10 0 0 -10z"/>
<path d="M770 70 l-45 -49 -17 0 -18 -1 0 -10 0 -10 19 0 19 0 5 13 5 12 11
-15 11 -15 11 15 11 15 5 -12 5 -13 27 0 27 0 14 20 14 20 28 0 28 0 0 10 0
10 75 0 75 0 0 10 0 10 -94 0 -94 0 -5 -12 -4 -13 -30 33 -31 32 -4 -1 -3 0
-45 -49z m66 15 l15 -15 -26 -26 -27 -27 -9 14 -9 14 -9 -15 -10 -14 -6 6 -7
7 34 35 33 35 3 0 3 1 15 -15z"/>
<path d="M801 64 l-13 -15 6 -6 5 -5 16 15 15 16 0 5 0 6 -7 0 -8 -1 -14 -15z"/>
<path d="M910 10 l0 -10 10 0 10 0 0 10 0 10 -10 0 -10 0 0 -10z"/>
</g>
</svg>
