<?xml version="1.0" standalone="no"?>
<!DOCTYPE svg PUBLIC "-//W3C//DTD SVG 20010904//EN"
 "http://www.w3.org/TR/2001/REC-SVG-20010904/DTD/svg10.dtd">
<svg version="1.0" xmlns="http://www.w3.org/2000/svg"
 width="468pt" height="468pt" viewBox="0 0 468 468"
 preserveAspectRatio="xMidYMid meet">
<metadata>
Created by potrace 1.8, written by Peter Selinger 2001-2007
</metadata>
<g transform="translate(0,468) scale(0.365625,-0.365625)"
fill="#000000" stroke="none">
<path d="M130 1175 l0 -105 55 0 55 0 0 10 0 10 15 0 15 0 0 40 0 40 -15 0
-15 0 0 15 0 15 15 0 15 0 0 25 0 25 -15 0 -15 0 0 15 0 15 -55 0 -55 0 0
-105z m110 50 l0 -25 -40 0 -40 0 0 25 0 25 40 0 40 0 0 -25z m0 -95 l0 -40
-40 0 -40 0 0 40 0 40 40 0 40 0 0 -40z"/>
<path d="M430 1185 l0 -95 -15 0 -15 0 0 55 0 55 -15 0 -15 0 0 15 0 15 -40 0
-40 0 0 -15 0 -15 40 0 40 0 0 -15 0 -15 -25 0 -25 0 0 -10 0 -10 -15 0 -15 0
0 -30 0 -30 15 0 15 0 0 -10 0 -10 25 0 25 0 0 10 0 10 15 0 15 0 0 -10 0 -10
25 0 25 0 0 50 0 50 15 0 15 0 0 15 0 15 25 0 25 0 0 -65 0 -65 15 0 15 0 0
65 0 65 -15 0 -15 0 0 15 0 15 -25 0 -25 0 0 -15 0 -15 -15 0 -15 0 0 40 0 40
-10 0 -10 0 0 -95z m-60 -65 l0 -30 -25 0 -25 0 0 30 0 30 25 0 25 0 0 -30z"/>
<path d="M590 1215 l0 -15 40 0 40 0 0 -15 0 -15 -26 0 -25 0 -15 -14 -14 -15
0 -21 0 -21 14 -15 15 -14 24 0 25 0 6 13 6 12 6 -12 6 -13 29 0 29 0 0 65 0
65 25 0 25 0 0 -65 0 -65 15 0 15 0 0 65 0 65 25 0 25 0 0 -65 0 -65 15 0 15
0 0 65 0 65 -15 0 -15 0 0 15 0 15 -25 0 -25 0 0 -15 0 -15 -15 0 -15 0 0 15
0 15 -40 0 -40 0 0 -70 0 -70 -15 0 -15 0 0 55 0 55 -10 0 -10 0 0 15 0 15
-40 0 -40 0 0 -15z m80 -95 l0 -30 -30 0 -30 0 0 30 0 30 30 0 30 0 0 -30z"/>
<path d="M930 1215 l0 -15 40 0 40 0 0 -15 0 -15 -25 0 -25 0 0 -10 0 -10 -15
0 -15 0 0 -30 0 -30 15 0 15 0 0 -10 0 -10 25 0 25 0 0 10 0 10 15 0 15 0 0
-10 0 -10 14 0 14 0 6 13 6 12 6 -12 6 -13 25 0 24 0 15 14 14 15 0 24 0 25
-12 6 -13 6 13 6 12 6 0 14 0 14 -10 0 -10 0 0 15 0 15 -30 0 -30 0 0 -15 0
-15 -10 0 -10 0 0 -11 0 -10 14 -15 15 -14 25 0 26 0 0 -30 0 -30 -30 0 -30 0
0 15 0 15 -10 0 -10 0 0 -15 0 -15 -15 0 -15 0 0 55 0 55 -15 0 -15 0 0 15 0
15 -40 0 -40 0 0 -15z m220 -30 l0 -15 -30 0 -30 0 0 15 0 15 30 0 30 0 0 -15z
m-140 -65 l0 -30 -25 0 -25 0 0 30 0 30 25 0 25 0 0 -30z"/>
<path d="M30 520 l0 -440 625 0 625 0 0 440 0 440 -625 0 -625 0 0 -440z m100
400 l0 -10 -10 0 -10 0 0 10 0 10 10 0 10 0 0 -10z m60 0 l0 -10 -15 0 -15 0
0 10 0 10 15 0 15 0 0 -10z m50 0 l0 -10 -15 0 -15 0 0 10 0 10 15 0 15 0 0
-10z m50 0 l0 -10 -10 0 -10 0 0 10 0 10 10 0 10 0 0 -10z m60 0 l0 -10 -15 0
-15 0 0 10 0 10 15 0 15 0 0 -10z m50 0 l0 -10 -15 0 -15 0 0 10 0 10 15 0 15
0 0 -10z m50 0 l0 -10 -10 0 -10 0 0 10 0 10 10 0 10 0 0 -10z m60 0 l0 -10
-15 0 -15 0 0 10 0 10 15 0 15 0 0 -10z m50 0 l0 -10 -15 0 -15 0 0 10 0 10
15 0 15 0 0 -10z m50 0 l0 -10 -10 0 -10 0 0 10 0 10 10 0 10 0 0 -10z m60 0
l0 -10 -15 0 -15 0 0 10 0 10 15 0 15 0 0 -10z m50 0 l0 -10 -15 0 -15 0 0 10
0 10 15 0 15 0 0 -10z m50 0 l0 -10 -10 0 -10 0 0 10 0 10 10 0 10 0 0 -10z
m60 0 l0 -10 -15 0 -15 0 0 10 0 10 15 0 15 0 0 -10z m50 0 l0 -10 -15 0 -15
0 0 10 0 10 15 0 15 0 0 -10z m50 0 l0 -10 -10 0 -10 0 0 10 0 10 10 0 10 0 0
-10z m60 0 l0 -10 -15 0 -15 0 0 10 0 10 15 0 15 0 0 -10z m50 0 l0 -10 -15 0
-15 0 0 10 0 10 15 0 15 0 0 -10z m50 0 l0 -10 -10 0 -10 0 0 10 0 10 10 0 10
0 0 -10z m60 0 l0 -10 -15 0 -15 0 0 10 0 10 15 0 15 0 0 -10z m50 0 l0 -10
-15 0 -15 0 0 10 0 10 15 0 15 0 0 -10z m50 0 l0 -10 -10 0 -10 0 0 10 0 10
10 0 10 0 0 -10z m-1060 -55 l0 -15 -15 0 -15 0 0 15 0 15 15 0 15 0 0 -15z
m50 0 l0 -15 -15 0 -15 0 0 15 0 15 15 0 15 0 0 -15z m50 0 l0 -15 -10 0 -10
0 0 15 0 15 10 0 10 0 0 -15z m60 0 l0 -15 -15 0 -15 0 0 15 0 15 15 0 15 0 0
-15z m50 0 l0 -15 -15 0 -15 0 0 15 0 15 15 0 15 0 0 -15z m50 0 l0 -15 -10 0
-10 0 0 15 0 15 10 0 10 0 0 -15z m60 0 l0 -15 -15 0 -15 0 0 15 0 15 15 0 15
0 0 -15z m50 0 l0 -15 -15 0 -15 0 0 15 0 15 15 0 15 0 0 -15z m50 0 l0 -15
-10 0 -10 0 0 15 0 15 10 0 10 0 0 -15z m60 0 l0 -15 -15 0 -15 0 0 15 0 15
15 0 15 0 0 -15z m50 0 l0 -15 -15 0 -15 0 0 15 0 15 15 0 15 0 0 -15z m50 0
l0 -15 -10 0 -10 0 0 15 0 15 10 0 10 0 0 -15z m60 0 l0 -15 -15 0 -15 0 0 15
0 15 15 0 15 0 0 -15z m50 0 l0 -15 -15 0 -15 0 0 15 0 15 15 0 15 0 0 -15z
m50 0 l0 -15 -10 0 -10 0 0 15 0 15 10 0 10 0 0 -15z m60 0 l0 -15 -15 0 -15
0 0 15 0 15 15 0 15 0 0 -15z m50 0 l0 -15 -15 0 -15 0 0 15 0 15 15 0 15 0 0
-15z m50 0 l0 -15 -10 0 -10 0 0 15 0 15 10 0 10 0 0 -15z m60 0 l0 -15 -15 0
-15 0 0 15 0 15 15 0 15 0 0 -15z m50 0 l0 -15 -15 0 -15 0 0 15 0 15 15 0 15
0 0 -15z m50 0 l0 -15 -10 0 -10 0 0 15 0 15 10 0 10 0 0 -15z m-960 -50 l0
-15 -10 0 -10 0 0 15 0 15 10 0 10 0 0 -15z m60 0 l0 -15 -15 0 -15 0 0 15 0
15 15 0 15 0 0 -15z m50 0 l0 -15 -15 0 -15 0 0 15 0 15 15 0 15 0 0 -15z m50
0 l0 -15 -10 0 -10 0 0 15 0 15 10 0 10 0 0 -15z m60 0 l0 -15 -15 0 -15 0 0
15 0 15 15 0 15 0 0 -15z m50 0 l0 -15 -15 0 -15 0 0 15 0 15 15 0 15 0 0 -15z
m50 0 l0 -15 -10 0 -10 0 0 15 0 15 10 0 10 0 0 -15z m60 0 l0 -15 -15 0 -15
0 0 15 0 15 15 0 15 0 0 -15z m50 0 l0 -15 -15 0 -15 0 0 15 0 15 15 0 15 0 0
-15z m50 0 l0 -15 -10 0 -10 0 0 15 0 15 10 0 10 0 0 -15z m60 0 l0 -15 -15 0
-15 0 0 15 0 15 15 0 15 0 0 -15z m50 0 l0 -15 -15 0 -15 0 0 15 0 15 15 0 15
0 0 -15z m50 0 l0 -15 -10 0 -10 0 0 15 0 15 10 0 10 0 0 -15z m60 0 l0 -15
-15 0 -15 0 0 15 0 15 15 0 15 0 0 -15z m50 0 l0 -15 -15 0 -15 0 0 15 0 15
15 0 15 0 0 -15z m50 0 l0 -15 -10 0 -10 0 0 15 0 15 10 0 10 0 0 -15z m60 0
l0 -15 -15 0 -15 0 0 15 0 15 15 0 15 0 0 -15z m50 0 l0 -15 -15 0 -15 0 0 15
0 15 15 0 15 0 0 -15z m50 0 l0 -15 -10 0 -10 0 0 15 0 15 10 0 10 0 0 -15z
m-900 -55 l0 -10 -15 0 -15 0 0 10 0 10 15 0 15 0 0 -10z m50 0 l0 -10 -15 0
-15 0 0 10 0 10 15 0 15 0 0 -10z m50 0 l0 -10 -10 0 -10 0 0 10 0 10 10 0 10
0 0 -10z m60 0 l0 -10 -15 0 -15 0 0 10 0 10 15 0 15 0 0 -10z m50 0 l0 -10
-15 0 -15 0 0 10 0 10 15 0 15 0 0 -10z m50 0 l0 -10 -10 0 -10 0 0 10 0 10
10 0 10 0 0 -10z m60 0 l0 -10 -15 0 -15 0 0 10 0 10 15 0 15 0 0 -10z m50 0
l0 -10 -15 0 -15 0 0 10 0 10 15 0 15 0 0 -10z m50 0 l0 -10 -10 0 -10 0 0 10
0 10 10 0 10 0 0 -10z m60 0 l0 -10 -15 0 -15 0 0 10 0 10 15 0 15 0 0 -10z
m50 0 l0 -10 -15 0 -15 0 0 10 0 10 15 0 15 0 0 -10z m50 0 l0 -10 -10 0 -10
0 0 10 0 10 10 0 10 0 0 -10z m60 0 l0 -10 -15 0 -15 0 0 10 0 10 15 0 15 0 0
-10z m50 0 l0 -10 -15 0 -15 0 0 10 0 10 15 0 15 0 0 -10z m50 0 l0 -10 -10 0
-10 0 0 10 0 10 10 0 10 0 0 -10z m60 0 l0 -10 -15 0 -15 0 0 10 0 10 15 0 15
0 0 -10z m50 0 l0 -10 -15 0 -15 0 0 10 0 10 15 0 15 0 0 -10z m50 0 l0 -10
-10 0 -10 0 0 10 0 10 10 0 10 0 0 -10z m-800 -55 l0 -15 -10 0 -10 0 0 15 0
15 10 0 10 0 0 -15z m60 0 l0 -15 -15 0 -15 0 0 15 0 15 15 0 15 0 0 -15z m50
0 l0 -15 -15 0 -15 0 0 15 0 15 15 0 15 0 0 -15z m50 0 l0 -15 -10 0 -10 0 0
15 0 15 10 0 10 0 0 -15z m60 0 l0 -15 -15 0 -15 0 0 15 0 15 15 0 15 0 0 -15z
m50 0 l0 -15 -15 0 -15 0 0 15 0 15 15 0 15 0 0 -15z m50 0 l0 -15 -10 0 -10
0 0 15 0 15 10 0 10 0 0 -15z m60 0 l0 -15 -15 0 -15 0 0 15 0 15 15 0 15 0 0
-15z m50 0 l0 -15 -15 0 -15 0 0 15 0 15 15 0 15 0 0 -15z m50 0 l0 -15 -10 0
-10 0 0 15 0 15 10 0 10 0 0 -15z m60 0 l0 -15 -15 0 -15 0 0 15 0 15 15 0 15
0 0 -15z m50 0 l0 -15 -15 0 -15 0 0 15 0 15 15 0 15 0 0 -15z m50 0 l0 -15
-10 0 -10 0 0 15 0 15 10 0 10 0 0 -15z m60 0 l0 -15 -15 0 -15 0 0 15 0 15
15 0 15 0 0 -15z m50 0 l0 -15 -15 0 -15 0 0 15 0 15 15 0 15 0 0 -15z m50 0
l0 -15 -10 0 -10 0 0 15 0 15 10 0 10 0 0 -15z m-770 -50 l0 -15 -15 0 -15 0
0 15 0 15 15 0 15 0 0 -15z m110 0 l0 -15 10 0 10 0 0 15 0 15 40 0 40 0 0
-15 0 -15 15 0 15 0 0 15 0 15 40 0 40 0 0 -15 0 -15 15 0 15 0 0 15 0 15 40
0 40 0 0 -15 0 -15 10 0 10 0 0 15 0 15 40 0 40 0 0 -15 0 -15 15 0 15 0 0 15
0 15 40 0 40 0 0 -15 0 -15 15 0 15 0 0 15 0 15 40 0 40 0 0 -15 0 -15 10 0
10 0 0 -14 0 -14 -12 -6 -13 -6 13 -6 12 -6 0 -14 0 -14 -10 0 -10 0 0 -14 0
-14 13 -6 12 -6 -12 -6 -13 -6 0 -14 0 -14 10 0 10 0 0 -14 0 -14 -12 -6 -13
-6 13 -6 12 -6 0 -14 0 -14 -10 0 -10 0 0 -15 0 -15 -40 0 -40 0 0 15 0 15
-15 0 -15 0 0 -15 0 -15 -40 0 -40 0 0 15 0 15 -15 0 -15 0 0 -15 0 -15 -40 0
-40 0 0 15 0 15 -10 0 -10 0 0 -15 0 -15 -40 0 -40 0 0 15 0 15 -15 0 -15 0 0
-15 0 -15 -40 0 -40 0 0 15 0 15 -15 0 -15 0 0 -15 0 -15 -40 0 -40 0 0 15 0
15 -10 0 -10 0 0 -15 0 -15 -40 0 -40 0 0 26 0 25 14 15 15 14 10 0 11 0 0 15
0 15 25 0 25 0 0 15 0 15 30 0 30 0 0 10 0 10 -30 0 -30 0 0 15 0 15 -25 0
-25 0 0 15 0 15 -11 0 -10 0 -15 14 -14 15 0 25 0 26 40 0 40 0 0 -15z m-110
-270 l0 -15 -15 0 -15 0 0 15 0 15 15 0 15 0 0 -15z m-30 -50 l0 -15 -10 0
-10 0 0 15 0 15 10 0 10 0 0 -15z m60 0 l0 -15 -15 0 -15 0 0 15 0 15 15 0 15
0 0 -15z m50 0 l0 -15 -15 0 -15 0 0 15 0 15 15 0 15 0 0 -15z m50 0 l0 -15
-10 0 -10 0 0 15 0 15 10 0 10 0 0 -15z m60 0 l0 -15 -15 0 -15 0 0 15 0 15
15 0 15 0 0 -15z m50 0 l0 -15 -15 0 -15 0 0 15 0 15 15 0 15 0 0 -15z m50 0
l0 -15 -10 0 -10 0 0 15 0 15 10 0 10 0 0 -15z m60 0 l0 -15 -15 0 -15 0 0 15
0 15 15 0 15 0 0 -15z m50 0 l0 -15 -15 0 -15 0 0 15 0 15 15 0 15 0 0 -15z
m50 0 l0 -15 -10 0 -10 0 0 15 0 15 10 0 10 0 0 -15z m60 0 l0 -15 -15 0 -15
0 0 15 0 15 15 0 15 0 0 -15z m50 0 l0 -15 -15 0 -15 0 0 15 0 15 15 0 15 0 0
-15z m50 0 l0 -15 -10 0 -10 0 0 15 0 15 10 0 10 0 0 -15z m60 0 l0 -15 -15 0
-15 0 0 15 0 15 15 0 15 0 0 -15z m50 0 l0 -15 -15 0 -15 0 0 15 0 15 15 0 15
0 0 -15z m50 0 l0 -15 -10 0 -10 0 0 15 0 15 10 0 10 0 0 -15z m-900 -55 l0
-10 -15 0 -15 0 0 10 0 10 15 0 15 0 0 -10z m50 0 l0 -10 -15 0 -15 0 0 10 0
10 15 0 15 0 0 -10z m50 0 l0 -10 -10 0 -10 0 0 10 0 10 10 0 10 0 0 -10z m60
0 l0 -10 -15 0 -15 0 0 10 0 10 15 0 15 0 0 -10z m50 0 l0 -10 -15 0 -15 0 0
10 0 10 15 0 15 0 0 -10z m50 0 l0 -10 -10 0 -10 0 0 10 0 10 10 0 10 0 0 -10z
m60 0 l0 -10 -15 0 -15 0 0 10 0 10 15 0 15 0 0 -10z m50 0 l0 -10 -15 0 -15
0 0 10 0 10 15 0 15 0 0 -10z m50 0 l0 -10 -10 0 -10 0 0 10 0 10 10 0 10 0 0
-10z m60 0 l0 -10 -15 0 -15 0 0 10 0 10 15 0 15 0 0 -10z m50 0 l0 -10 -15 0
-15 0 0 10 0 10 15 0 15 0 0 -10z m50 0 l0 -10 -10 0 -10 0 0 10 0 10 10 0 10
0 0 -10z m60 0 l0 -10 -15 0 -15 0 0 10 0 10 15 0 15 0 0 -10z m50 0 l0 -10
-15 0 -15 0 0 10 0 10 15 0 15 0 0 -10z m50 0 l0 -10 -10 0 -10 0 0 10 0 10
10 0 10 0 0 -10z m60 0 l0 -10 -15 0 -15 0 0 10 0 10 15 0 15 0 0 -10z m50 0
l0 -10 -15 0 -15 0 0 10 0 10 15 0 15 0 0 -10z m50 0 l0 -10 -10 0 -10 0 0 10
0 10 10 0 10 0 0 -10z m-960 -55 l0 -15 -10 0 -10 0 0 15 0 15 10 0 10 0 0
-15z m60 0 l0 -15 -15 0 -15 0 0 15 0 15 15 0 15 0 0 -15z m50 0 l0 -15 -15 0
-15 0 0 15 0 15 15 0 15 0 0 -15z m50 0 l0 -15 -10 0 -10 0 0 15 0 15 10 0 10
0 0 -15z m60 0 l0 -15 -15 0 -15 0 0 15 0 15 15 0 15 0 0 -15z m50 0 l0 -15
-15 0 -15 0 0 15 0 15 15 0 15 0 0 -15z m50 0 l0 -15 -10 0 -10 0 0 15 0 15
10 0 10 0 0 -15z m60 0 l0 -15 -15 0 -15 0 0 15 0 15 15 0 15 0 0 -15z m50 0
l0 -15 -15 0 -15 0 0 15 0 15 15 0 15 0 0 -15z m50 0 l0 -15 -10 0 -10 0 0 15
0 15 10 0 10 0 0 -15z m60 0 l0 -15 -15 0 -15 0 0 15 0 15 15 0 15 0 0 -15z
m50 0 l0 -15 -15 0 -15 0 0 15 0 15 15 0 15 0 0 -15z m50 0 l0 -15 -10 0 -10
0 0 15 0 15 10 0 10 0 0 -15z m60 0 l0 -15 -15 0 -15 0 0 15 0 15 15 0 15 0 0
-15z m50 0 l0 -15 -15 0 -15 0 0 15 0 15 15 0 15 0 0 -15z m50 0 l0 -15 -10 0
-10 0 0 15 0 15 10 0 10 0 0 -15z m60 0 l0 -15 -15 0 -15 0 0 15 0 15 15 0 15
0 0 -15z m50 0 l0 -15 -15 0 -15 0 0 15 0 15 15 0 15 0 0 -15z m50 0 l0 -15
-10 0 -10 0 0 15 0 15 10 0 10 0 0 -15z m-1060 -50 l0 -15 -15 0 -15 0 0 15 0
15 15 0 15 0 0 -15z m50 0 l0 -15 -15 0 -15 0 0 15 0 15 15 0 15 0 0 -15z m50
0 l0 -15 -10 0 -10 0 0 15 0 15 10 0 10 0 0 -15z m60 0 l0 -15 -15 0 -15 0 0
15 0 15 15 0 15 0 0 -15z m50 0 l0 -15 -15 0 -15 0 0 15 0 15 15 0 15 0 0 -15z
m50 0 l0 -15 -10 0 -10 0 0 15 0 15 10 0 10 0 0 -15z m60 0 l0 -15 -15 0 -15
0 0 15 0 15 15 0 15 0 0 -15z m50 0 l0 -15 -15 0 -15 0 0 15 0 15 15 0 15 0 0
-15z m50 0 l0 -15 -10 0 -10 0 0 15 0 15 10 0 10 0 0 -15z m60 0 l0 -15 -15 0
-15 0 0 15 0 15 15 0 15 0 0 -15z m50 0 l0 -15 -15 0 -15 0 0 15 0 15 15 0 15
0 0 -15z m50 0 l0 -15 -10 0 -10 0 0 15 0 15 10 0 10 0 0 -15z m60 0 l0 -15
-15 0 -15 0 0 15 0 15 15 0 15 0 0 -15z m50 0 l0 -15 -15 0 -15 0 0 15 0 15
15 0 15 0 0 -15z m50 0 l0 -15 -10 0 -10 0 0 15 0 15 10 0 10 0 0 -15z m60 0
l0 -15 -15 0 -15 0 0 15 0 15 15 0 15 0 0 -15z m50 0 l0 -15 -15 0 -15 0 0 15
0 15 15 0 15 0 0 -15z m50 0 l0 -15 -10 0 -10 0 0 15 0 15 10 0 10 0 0 -15z
m60 0 l0 -15 -15 0 -15 0 0 15 0 15 15 0 15 0 0 -15z m50 0 l0 -15 -15 0 -15
0 0 15 0 15 15 0 15 0 0 -15z m50 0 l0 -15 -10 0 -10 0 0 15 0 15 10 0 10 0 0
-15z m-1120 -55 l0 -10 -10 0 -10 0 0 10 0 10 10 0 10 0 0 -10z m60 0 l0 -10
-15 0 -15 0 0 10 0 10 15 0 15 0 0 -10z m50 0 l0 -10 -15 0 -15 0 0 10 0 10
15 0 15 0 0 -10z m50 0 l0 -10 -10 0 -10 0 0 10 0 10 10 0 10 0 0 -10z m60 0
l0 -10 -15 0 -15 0 0 10 0 10 15 0 15 0 0 -10z m50 0 l0 -10 -15 0 -15 0 0 10
0 10 15 0 15 0 0 -10z m50 0 l0 -10 -10 0 -10 0 0 10 0 10 10 0 10 0 0 -10z
m60 0 l0 -10 -15 0 -15 0 0 10 0 10 15 0 15 0 0 -10z m50 0 l0 -10 -15 0 -15
0 0 10 0 10 15 0 15 0 0 -10z m50 0 l0 -10 -10 0 -10 0 0 10 0 10 10 0 10 0 0
-10z m60 0 l0 -10 -15 0 -15 0 0 10 0 10 15 0 15 0 0 -10z m50 0 l0 -10 -15 0
-15 0 0 10 0 10 15 0 15 0 0 -10z m50 0 l0 -10 -10 0 -10 0 0 10 0 10 10 0 10
0 0 -10z m60 0 l0 -10 -15 0 -15 0 0 10 0 10 15 0 15 0 0 -10z m50 0 l0 -10
-15 0 -15 0 0 10 0 10 15 0 15 0 0 -10z m50 0 l0 -10 -10 0 -10 0 0 10 0 10
10 0 10 0 0 -10z m60 0 l0 -10 -15 0 -15 0 0 10 0 10 15 0 15 0 0 -10z m50 0
l0 -10 -15 0 -15 0 0 10 0 10 15 0 15 0 0 -10z m50 0 l0 -10 -10 0 -10 0 0 10
0 10 10 0 10 0 0 -10z m60 0 l0 -10 -15 0 -15 0 0 10 0 10 15 0 15 0 0 -10z
m50 0 l0 -10 -15 0 -15 0 0 10 0 10 15 0 15 0 0 -10z m50 0 l0 -10 -10 0 -10
0 0 10 0 10 10 0 10 0 0 -10z"/>
<path d="M530 625 l0 -15 15 0 15 0 0 15 0 15 -15 0 -15 0 0 -15z"/>
<path d="M640 625 l0 -15 15 0 15 0 0 15 0 15 -15 0 -15 0 0 -15z"/>
<path d="M750 625 l0 -15 10 0 10 0 0 15 0 15 -10 0 -10 0 0 -15z"/>
<path d="M850 625 l0 -15 15 0 15 0 0 15 0 15 -15 0 -15 0 0 -15z"/>
<path d="M960 625 l0 -15 15 0 15 0 0 15 0 15 -15 0 -15 0 0 -15z"/>
<path d="M1070 625 l0 -15 10 0 10 0 0 15 0 15 -10 0 -10 0 0 -15z"/>
<path d="M1170 625 l0 -15 15 0 15 0 0 15 0 15 -15 0 -15 0 0 -15z"/>
<path d="M590 600 l0 -10 10 0 10 0 0 10 0 10 -10 0 -10 0 0 -10z"/>
<path d="M690 600 l0 -10 15 0 15 0 0 10 0 10 -15 0 -15 0 0 -10z"/>
<path d="M800 600 l0 -10 15 0 15 0 0 10 0 10 -15 0 -15 0 0 -10z"/>
<path d="M910 600 l0 -10 10 0 10 0 0 10 0 10 -10 0 -10 0 0 -10z"/>
<path d="M1010 600 l0 -10 15 0 15 0 0 10 0 10 -15 0 -15 0 0 -10z"/>
<path d="M1120 600 l0 -10 15 0 15 0 0 10 0 10 -15 0 -15 0 0 -10z"/>
<path d="M640 575 l0 -15 15 0 15 0 0 15 0 15 -15 0 -15 0 0 -15z"/>
<path d="M750 575 l0 -15 10 0 10 0 0 15 0 15 -10 0 -10 0 0 -15z"/>
<path d="M850 575 l0 -15 15 0 15 0 0 15 0 15 -15 0 -15 0 0 -15z"/>
<path d="M960 575 l0 -15 15 0 15 0 0 15 0 15 -15 0 -15 0 0 -15z"/>
<path d="M1070 575 l0 -15 10 0 10 0 0 15 0 15 -10 0 -10 0 0 -15z"/>
<path d="M1170 575 l0 -15 15 0 15 0 0 15 0 15 -15 0 -15 0 0 -15z"/>
<path d="M690 545 l0 -15 15 0 15 0 0 15 0 15 -15 0 -15 0 0 -15z"/>
<path d="M800 545 l0 -15 15 0 15 0 0 15 0 15 -15 0 -15 0 0 -15z"/>
<path d="M910 545 l0 -15 10 0 10 0 0 15 0 15 -10 0 -10 0 0 -15z"/>
<path d="M1010 545 l0 -15 15 0 15 0 0 15 0 15 -15 0 -15 0 0 -15z"/>
<path d="M1120 545 l0 -15 15 0 15 0 0 15 0 15 -15 0 -15 0 0 -15z"/>
<path d="M750 520 l0 -10 10 0 10 0 0 10 0 10 -10 0 -10 0 0 -10z"/>
<path d="M850 520 l0 -10 15 0 15 0 0 10 0 10 -15 0 -15 0 0 -10z"/>
<path d="M960 520 l0 -10 15 0 15 0 0 10 0 10 -15 0 -15 0 0 -10z"/>
<path d="M1070 520 l0 -10 10 0 10 0 0 10 0 10 -10 0 -10 0 0 -10z"/>
<path d="M1170 520 l0 -10 15 0 15 0 0 10 0 10 -15 0 -15 0 0 -10z"/>
<path d="M690 495 l0 -15 15 0 15 0 0 15 0 15 -15 0 -15 0 0 -15z"/>
<path d="M800 495 l0 -15 15 0 15 0 0 15 0 15 -15 0 -15 0 0 -15z"/>
<path d="M910 495 l0 -15 10 0 10 0 0 15 0 15 -10 0 -10 0 0 -15z"/>
<path d="M1010 495 l0 -15 15 0 15 0 0 15 0 15 -15 0 -15 0 0 -15z"/>
<path d="M1120 495 l0 -15 15 0 15 0 0 15 0 15 -15 0 -15 0 0 -15z"/>
<path d="M640 465 l0 -15 15 0 15 0 0 15 0 15 -15 0 -15 0 0 -15z"/>
<path d="M750 465 l0 -15 10 0 10 0 0 15 0 15 -10 0 -10 0 0 -15z"/>
<path d="M850 465 l0 -15 15 0 15 0 0 15 0 15 -15 0 -15 0 0 -15z"/>
<path d="M960 465 l0 -15 15 0 15 0 0 15 0 15 -15 0 -15 0 0 -15z"/>
<path d="M1070 465 l0 -15 10 0 10 0 0 15 0 15 -10 0 -10 0 0 -15z"/>
<path d="M1170 465 l0 -15 15 0 15 0 0 15 0 15 -15 0 -15 0 0 -15z"/>
<path d="M590 440 l0 -10 10 0 10 0 0 10 0 10 -10 0 -10 0 0 -10z"/>
<path d="M690 440 l0 -10 15 0 15 0 0 10 0 10 -15 0 -15 0 0 -10z"/>
<path d="M800 440 l0 -10 15 0 15 0 0 10 0 10 -15 0 -15 0 0 -10z"/>
<path d="M910 440 l0 -10 10 0 10 0 0 10 0 10 -10 0 -10 0 0 -10z"/>
<path d="M1010 440 l0 -10 15 0 15 0 0 10 0 10 -15 0 -15 0 0 -10z"/>
<path d="M1120 440 l0 -10 15 0 15 0 0 10 0 10 -15 0 -15 0 0 -10z"/>
<path d="M530 415 l0 -15 15 0 15 0 0 15 0 15 -15 0 -15 0 0 -15z"/>
<path d="M640 415 l0 -15 15 0 15 0 0 15 0 15 -15 0 -15 0 0 -15z"/>
<path d="M750 415 l0 -15 10 0 10 0 0 15 0 15 -10 0 -10 0 0 -15z"/>
<path d="M850 415 l0 -15 15 0 15 0 0 15 0 15 -15 0 -15 0 0 -15z"/>
<path d="M960 415 l0 -15 15 0 15 0 0 15 0 15 -15 0 -15 0 0 -15z"/>
<path d="M1070 415 l0 -15 10 0 10 0 0 15 0 15 -10 0 -10 0 0 -15z"/>
<path d="M1170 415 l0 -15 15 0 15 0 0 15 0 15 -15 0 -15 0 0 -15z"/>
</g>
</svg>
