<?xml version="1.0" standalone="no"?>
<!DOCTYPE svg PUBLIC "-//W3C//DTD SVG 20010904//EN"
 "http://www.w3.org/TR/2001/REC-SVG-20010904/DTD/svg10.dtd">
<svg version="1.0" xmlns="http://www.w3.org/2000/svg"
 width="468pt" height="468pt" viewBox="0 0 468 468"
 preserveAspectRatio="xMidYMid meet">
<metadata>
Created by potrace 1.8, written by Peter Selinger 2001-2007
</metadata>
<g transform="translate(0,468) scale(0.365625,-0.365625)"
fill="#000000" stroke="none">
<path d="M13 1265 l-13 -14 0 -626 0 -625 10 0 10 0 0 615 0 615 15 0 15 0 0
15 0 15 580 0 580 0 0 -11 0 -10 14 -15 15 -14 10 0 11 0 0 -605 0 -605 10 0
10 0 0 615 0 615 -10 0 -10 0 0 15 0 15 -15 0 -15 0 0 10 0 10 -602 0 -603 -1
-12 -14z"/>
<path d="M73 1205 l-23 -24 0 -21 0 -20 10 0 10 0 0 -11 0 -10 14 -15 15 -14
20 0 21 0 0 10 0 10 15 0 15 0 0 -20 0 -20 -15 0 -15 0 0 -15 0 -15 -35 0 -35
0 0 -10 0 -10 35 0 35 0 0 10 0 10 15 0 15 0 0 15 0 15 10 0 10 0 0 56 0 55
-14 15 -15 14 -10 0 -11 0 0 10 0 10 -22 -1 -23 0 -22 -24z m67 -5 l0 -10 15
0 15 0 0 -25 0 -25 -15 0 -15 0 0 -15 0 -15 -25 0 -25 0 0 15 0 15 -10 0 -10
0 0 20 0 21 13 14 12 14 23 1 22 0 0 -10z"/>
<path d="M430 961 l0 -39 13 -5 12 -4 -9 -9 -9 -9 -4 13 -5 12 -24 0 -24 0 0
-35 0 -35 25 0 25 0 0 15 0 15 10 0 10 0 0 -15 0 -15 -10 0 -10 0 0 -10 0 -10
35 0 35 0 0 10 0 10 25 0 25 0 0 35 0 35 -25 0 -25 0 0 -10 0 -10 -15 0 -15 0
0 10 0 10 15 0 15 0 0 40 0 40 -35 0 -35 0 0 -39z m70 -96 l0 -15 -15 0 -15 0
0 15 0 15 15 0 15 0 0 -15z"/>
<path d="M810 961 l0 -39 13 -5 12 -4 -9 -9 -9 -9 -4 13 -5 12 -24 0 -24 0 0
-35 0 -35 25 0 25 0 0 15 0 15 10 0 10 0 0 -15 0 -15 -10 0 -10 0 0 -10 0 -10
35 0 35 0 0 10 0 10 20 0 20 0 0 35 0 35 -20 0 -20 0 0 -10 0 -10 -15 0 -15 0
0 10 0 10 15 0 15 0 0 40 0 40 -35 0 -35 0 0 -39z m70 -96 l0 -15 -15 0 -15 0
0 15 0 15 15 0 15 0 0 -15z"/>
<path d="M90 885 l0 -35 15 0 15 0 0 -10 0 -10 -15 0 -15 0 0 10 0 10 -20 0
-20 0 0 -35 0 -35 20 0 20 0 0 -10 0 -10 40 0 40 0 0 10 0 10 20 0 20 0 0 35
0 35 -20 0 -20 0 0 -10 0 -10 -15 0 -15 0 0 10 0 10 15 0 15 0 0 35 0 35 -40
0 -40 0 0 -35z m30 -90 l0 -15 -15 0 -15 0 0 15 0 15 15 0 15 0 0 -15z m50 0
l0 -15 -15 0 -15 0 0 15 0 15 15 0 15 0 0 -15z"/>
<path d="M430 696 l0 -34 13 -5 12 -4 -9 -9 -9 -9 -4 13 -5 12 -24 0 -24 0 0
-35 0 -35 25 0 25 0 0 15 0 15 10 0 10 0 0 -15 0 -15 -10 0 -10 0 0 -10 0 -10
35 0 35 0 0 10 0 10 25 0 25 0 0 35 0 35 -25 0 -25 0 0 -10 0 -10 -15 0 -15 0
0 10 0 10 15 0 15 0 0 35 0 35 -35 0 -35 0 0 -34z m70 -91 l0 -15 -15 0 -15 0
0 15 0 15 15 0 15 0 0 -15z"/>
<path d="M810 696 l0 -34 13 -5 12 -4 -9 -9 -9 -9 -4 13 -5 12 -24 0 -24 0 0
-35 0 -35 25 0 25 0 0 15 0 15 10 0 10 0 0 -15 0 -15 -10 0 -10 0 0 -10 0 -10
35 0 35 0 0 10 0 10 20 0 20 0 0 35 0 35 -20 0 -20 0 0 -10 0 -10 -15 0 -15 0
0 10 0 10 15 0 15 0 0 35 0 35 -35 0 -35 0 0 -34z m70 -91 l0 -15 -15 0 -15 0
0 15 0 15 15 0 15 0 0 -15z"/>
<path d="M620 511 l0 -39 13 -5 12 -4 -9 -9 -9 -9 -4 13 -5 12 -24 0 -24 0 0
-35 0 -35 25 0 25 0 0 15 0 15 10 0 10 0 0 -15 0 -15 -10 0 -10 0 0 -10 0 -10
35 0 35 0 0 10 0 10 20 0 20 0 0 35 0 35 -20 0 -20 0 0 -10 0 -10 -15 0 -15 0
0 10 0 10 15 0 15 0 0 40 0 40 -35 0 -35 0 0 -39z m70 -96 l0 -15 -15 0 -15 0
0 15 0 15 15 0 15 0 0 -15z"/>
<path d="M430 346 l0 -14 13 -5 12 -4 -9 -9 -9 -9 -4 13 -5 12 -24 0 -24 0 0
-35 0 -35 24 0 24 0 5 13 4 12 9 -9 9 -9 -12 -4 -13 -5 0 -34 0 -34 35 0 35 0
0 35 0 35 -15 0 -15 0 0 10 0 10 15 0 15 0 0 -10 0 -10 25 0 25 0 0 35 0 35
-25 0 -25 0 0 -10 0 -10 -15 0 -15 0 0 10 0 10 15 0 15 0 0 15 0 15 -35 0 -35
0 0 -14z"/>
<path d="M810 346 l0 -14 13 -5 12 -4 -9 -9 -9 -9 -4 13 -5 12 -24 0 -24 0 0
-35 0 -35 24 0 24 0 5 13 4 12 9 -9 9 -9 -12 -4 -13 -5 0 -34 0 -34 35 0 35 0
0 35 0 35 -15 0 -15 0 0 10 0 10 15 0 15 0 0 -10 0 -10 20 0 20 0 0 35 0 35
-20 0 -20 0 0 -10 0 -10 -15 0 -15 0 0 10 0 10 15 0 15 0 0 15 0 15 -35 0 -35
0 0 -14z"/>
<path d="M1110 155 l0 -15 15 0 15 0 0 -10 0 -10 -15 0 -15 0 0 10 0 10 -20 0
-20 0 0 -35 0 -35 20 0 20 0 0 10 0 10 15 0 15 0 0 -10 0 -10 -15 0 -15 0 0
-35 0 -35 40 0 40 0 0 35 0 35 -15 0 -15 0 0 10 0 10 15 0 15 0 0 -10 0 -10
20 0 20 0 0 35 0 35 -20 0 -20 0 0 -10 0 -10 -15 0 -15 0 0 10 0 10 15 0 15 0
0 15 0 15 -40 0 -40 0 0 -15z"/>
<path d="M430 81 l0 -9 13 -5 12 -4 -9 -9 -9 -9 -4 13 -5 12 -24 0 -24 0 0
-35 0 -35 24 0 24 0 5 13 5 12 12 -15 12 -15 5 13 5 12 14 0 14 0 0 -10 0 -10
25 0 25 0 0 35 0 35 -25 0 -25 0 0 -10 0 -10 -15 0 -15 0 0 10 0 10 15 0 15 0
0 10 0 10 -35 0 -35 0 0 -9z"/>
<path d="M810 81 l0 -9 13 -5 12 -4 -9 -9 -9 -9 -4 13 -5 12 -24 0 -24 0 0
-35 0 -35 24 0 24 0 5 13 5 12 12 -15 12 -15 5 13 5 12 14 0 14 0 0 -10 0 -10
20 0 20 0 0 35 0 35 -20 0 -20 0 0 -10 0 -10 -15 0 -15 0 0 10 0 10 15 0 15 0
0 10 0 10 -35 0 -35 0 0 -9z"/>
</g>
</svg>
