<?xml version="1.0" standalone="no"?>
<!DOCTYPE svg PUBLIC "-//W3C//DTD SVG 20010904//EN"
 "http://www.w3.org/TR/2001/REC-SVG-20010904/DTD/svg10.dtd">
<svg version="1.0" xmlns="http://www.w3.org/2000/svg"
 width="468pt" height="468pt" viewBox="0 0 468 468"
 preserveAspectRatio="xMidYMid meet">
<metadata>
Created by potrace 1.8, written by Peter Selinger 2001-2007
</metadata>
<g transform="translate(0,468) scale(0.365625,-0.365625)"
fill="#000000" stroke="none">
<path d="M160 1060 l0 -20 -40 0 -40 0 0 -200 0 -200 -40 0 -40 0 0 -60 0 -60
40 0 40 0 0 -160 0 -160 40 0 40 0 0 -20 0 -20 520 0 520 0 0 20 0 20 40 0 40
0 0 400 0 400 -20 0 -20 0 0 20 0 20 -20 0 -20 0 0 20 0 20 -100 0 -100 0 0
-20 0 -20 -40 0 -40 0 0 -40 0 -40 -220 0 -220 0 0 40 0 40 -40 0 -40 0 0 20
0 20 -120 0 -120 0 0 -20z m120 -40 l0 -20 20 0 20 0 0 20 0 20 20 0 20 0 0
-20 0 -20 -20 0 -20 0 0 -20 0 -20 -20 0 -20 0 0 20 0 20 -20 0 -20 0 0 -20 0
-20 -60 0 -60 0 0 20 0 20 20 0 20 0 0 20 0 20 60 0 60 0 0 -20z m840 0 l0
-20 20 0 20 0 0 20 0 20 20 0 20 0 0 -20 0 -20 20 0 20 0 0 -20 0 -20 -20 0
-20 0 0 -20 0 -20 20 0 20 0 0 -20 0 -20 -20 0 -20 0 0 -20 0 -20 20 0 20 0 0
-20 0 -20 -20 0 -20 0 0 -20 0 -20 20 0 20 0 0 -20 0 -20 -20 0 -20 0 0 -20 0
-20 20 0 20 0 0 -20 0 -20 -20 0 -20 0 0 -20 0 -20 20 0 20 0 0 -20 0 -20 -20
0 -20 0 0 -20 0 -20 20 0 20 0 0 -20 0 -20 -20 0 -20 0 0 -20 0 -20 20 0 20 0
0 -20 0 -20 -20 0 -20 0 0 -20 0 -20 20 0 20 0 0 -20 0 -20 -20 0 -20 0 0 -20
0 -20 20 0 20 0 0 -20 0 -20 -20 0 -20 0 0 -20 0 -20 -520 0 -520 0 0 20 0 20
-20 0 -20 0 0 100 0 100 20 0 20 0 0 20 0 20 -20 0 -20 0 0 20 0 20 220 0 220
0 0 20 0 20 -260 0 -260 0 0 20 0 20 260 0 260 0 0 20 0 20 -220 0 -220 0 0
140 0 140 520 0 520 0 0 20 0 20 -20 0 -20 0 0 20 0 20 -20 0 -20 0 0 -20 0
-20 -20 0 -20 0 0 20 0 20 -20 0 -20 0 0 -20 0 -20 -20 0 -20 0 0 20 0 20 20
0 20 0 0 20 0 20 60 0 60 0 0 -20z"/>
<path d="M1160 980 l0 -20 20 0 20 0 0 20 0 20 -20 0 -20 0 0 -20z"/>
<path d="M1160 900 l0 -20 20 0 20 0 0 20 0 20 -20 0 -20 0 0 -20z"/>
<path d="M880 840 l0 -40 -20 0 -20 0 0 -40 0 -40 -20 0 -20 0 0 -20 0 -20
-20 0 -20 0 0 -60 0 -60 -20 0 -20 0 0 -60 0 -60 -20 0 -20 0 0 40 0 40 -20 0
-20 0 0 20 0 20 20 0 20 0 0 20 0 20 -20 0 -20 0 0 20 0 20 -20 0 -20 0 0 -20
0 -20 -20 0 -20 0 0 -20 0 -20 20 0 20 0 0 -20 0 -20 -20 0 -20 0 0 -20 0 -20
-20 0 -20 0 0 -20 0 -20 -20 0 -20 0 0 20 0 20 -20 0 -20 0 0 -20 0 -20 -20 0
-20 0 0 20 0 20 -20 0 -20 0 0 -20 0 -20 -20 0 -20 0 0 20 0 20 -20 0 -20 0 0
-20 0 -20 -20 0 -20 0 0 20 0 20 -20 0 -20 0 0 -20 0 -20 -20 0 -20 0 0 -20 0
-20 20 0 20 0 0 20 0 20 20 0 20 0 0 -20 0 -20 20 0 20 0 0 20 0 20 20 0 20 0
0 -20 0 -20 20 0 20 0 0 20 0 20 20 0 20 0 0 -20 0 -20 20 0 20 0 0 20 0 20
20 0 20 0 0 -20 0 -20 20 0 20 0 0 20 0 20 20 0 20 0 0 20 0 20 20 0 20 0 0
20 0 20 20 0 20 0 0 -60 0 -60 20 0 20 0 0 -40 0 -40 20 0 20 0 0 40 0 40 20
0 20 0 0 40 0 40 20 0 20 0 0 60 0 60 20 0 20 0 0 -40 0 -40 20 0 20 0 0 40 0
40 20 0 20 0 0 40 0 40 20 0 20 0 0 -60 0 -60 20 0 20 0 0 -40 0 -40 20 0 20
0 0 -60 0 -60 20 0 20 0 0 -40 0 -40 40 0 40 0 0 -20 0 -20 20 0 20 0 0 20 0
20 -20 0 -20 0 0 20 0 20 20 0 20 0 0 20 0 20 -20 0 -20 0 0 -20 0 -20 -20 0
-20 0 0 40 0 40 -20 0 -20 0 0 80 0 80 -20 0 -20 0 0 40 0 40 -20 0 -20 0 0
80 0 80 -20 0 -20 0 0 -20 0 -20 -20 0 -20 0 0 60 0 60 -20 0 -20 0 0 -40z
m-240 -260 l0 -20 -20 0 -20 0 0 20 0 20 20 0 20 0 0 -20z"/>
<path d="M1160 820 l0 -20 20 0 20 0 0 20 0 20 -20 0 -20 0 0 -20z"/>
<path d="M1160 740 l0 -20 20 0 20 0 0 20 0 20 -20 0 -20 0 0 -20z"/>
<path d="M1160 660 l0 -20 20 0 20 0 0 20 0 20 -20 0 -20 0 0 -20z"/>
<path d="M1160 580 l0 -20 20 0 20 0 0 20 0 20 -20 0 -20 0 0 -20z"/>
<path d="M1160 500 l0 -20 20 0 20 0 0 20 0 20 -20 0 -20 0 0 -20z"/>
<path d="M1160 420 l0 -20 20 0 20 0 0 20 0 20 -20 0 -20 0 0 -20z"/>
</g>
</svg>
