<?xml version="1.0" standalone="no"?>
<!DOCTYPE svg PUBLIC "-//W3C//DTD SVG 20010904//EN"
 "http://www.w3.org/TR/2001/REC-SVG-20010904/DTD/svg10.dtd">
<svg version="1.0" xmlns="http://www.w3.org/2000/svg"
 width="468pt" height="468pt" viewBox="0 0 468 468"
 preserveAspectRatio="xMidYMid meet">
<metadata>
Created by potrace 1.8, written by Peter Selinger 2001-2007
</metadata>
<g transform="translate(0,468) scale(0.365625,-0.365625)"
fill="#000000" stroke="none">
<path d="M110 1065 l0 -55 -30 0 -30 0 0 -50 0 -50 -25 0 -25 0 0 -350 0 -350
25 0 25 0 0 -25 0 -25 30 0 30 0 0 -25 0 -25 25 0 25 0 0 -30 0 -30 25 0 25 0
0 -25 0 -25 510 0 510 0 0 400 0 400 -30 0 -30 0 0 55 0 55 -25 0 -25 0 0 50
0 50 -25 0 -25 0 0 55 0 55 -480 0 -480 0 0 -55z m900 -25 l0 -30 30 0 30 0 0
-50 0 -50 25 0 25 0 0 -55 0 -55 25 0 25 0 0 -25 0 -25 -450 0 -450 0 0 50 0
50 -30 0 -30 0 0 -50 0 -50 -25 0 -25 0 0 25 0 25 -25 0 -25 0 0 25 0 25 -30
0 -30 0 0 30 0 30 30 0 30 0 0 25 0 25 25 0 25 0 0 55 0 55 425 0 425 0 0 -30z
m-900 -320 l0 -30 25 0 25 0 0 -25 0 -25 25 0 25 0 0 -25 0 -25 -25 0 -25 0 0
-30 0 -30 25 0 25 0 0 -25 0 -25 -25 0 -25 0 0 -25 0 -25 25 0 25 0 0 -30 0
-30 -25 0 -25 0 0 -25 0 -25 25 0 25 0 0 -25 0 -25 -25 0 -25 0 0 -30 0 -30
25 0 25 0 0 -25 0 -25 -25 0 -25 0 0 25 0 25 -25 0 -25 0 0 30 0 30 -30 0 -30
0 0 25 0 25 30 0 30 0 0 25 0 25 -30 0 -30 0 0 30 0 30 30 0 30 0 0 25 0 25
-30 0 -30 0 0 25 0 25 30 0 30 0 0 30 0 30 -30 0 -30 0 0 25 0 25 30 0 30 0 0
25 0 25 -30 0 -30 0 0 30 0 30 30 0 30 0 0 -30z m210 -105 l0 -25 25 0 25 0 0
25 0 25 30 0 30 0 0 -25 0 -25 25 0 25 0 0 25 0 25 25 0 25 0 0 -25 0 -25 30
0 30 0 0 25 0 25 25 0 25 0 0 -25 0 -25 25 0 25 0 0 25 0 25 30 0 30 0 0 -25
0 -25 25 0 25 0 0 25 0 25 25 0 25 0 0 -25 0 -25 30 0 30 0 0 25 0 25 25 0 25
0 0 -25 0 -25 25 0 25 0 0 25 0 25 30 0 30 0 0 -25 0 -25 25 0 25 0 0 25 0 25
25 0 25 0 0 -25 0 -25 -25 0 -25 0 0 -30 0 -30 25 0 25 0 0 -25 0 -25 -25 0
-25 0 0 -25 0 -25 25 0 25 0 0 -30 0 -30 -25 0 -25 0 0 -25 0 -25 25 0 25 0 0
-25 0 -25 -25 0 -25 0 0 -30 0 -30 25 0 25 0 0 -25 0 -25 -25 0 -25 0 0 -25 0
-25 25 0 25 0 0 -30 0 -30 -25 0 -25 0 0 30 0 30 -25 0 -25 0 0 -30 0 -30 -30
0 -30 0 0 30 0 30 30 0 30 0 0 25 0 25 -30 0 -30 0 0 25 0 25 30 0 30 0 0 30
0 30 -30 0 -30 0 0 25 0 25 30 0 30 0 0 25 0 25 -30 0 -30 0 0 30 0 30 30 0
30 0 0 25 0 25 -30 0 -30 0 0 25 0 25 -25 0 -25 0 0 -25 0 -25 -25 0 -25 0 0
25 0 25 -30 0 -30 0 0 -25 0 -25 -25 0 -25 0 0 25 0 25 -25 0 -25 0 0 -25 0
-25 -30 0 -30 0 0 25 0 25 -25 0 -25 0 0 -25 0 -25 -25 0 -25 0 0 -25 0 -25
25 0 25 0 0 -30 0 -30 -25 0 -25 0 0 -25 0 -25 25 0 25 0 0 -25 0 -25 -25 0
-25 0 0 -30 0 -30 25 0 25 0 0 -25 0 -25 -25 0 -25 0 0 -25 0 -25 25 0 25 0 0
-30 0 -30 -25 0 -25 0 0 30 0 30 -30 0 -30 0 0 -30 0 -30 -25 0 -25 0 0 30 0
30 -25 0 -25 0 0 -30 0 -30 -30 0 -30 0 0 30 0 30 -25 0 -25 0 0 -30 0 -30
-25 0 -25 0 0 30 0 30 25 0 25 0 0 25 0 25 -25 0 -25 0 0 25 0 25 25 0 25 0 0
30 0 30 -25 0 -25 0 0 25 0 25 25 0 25 0 0 25 0 25 -25 0 -25 0 0 30 0 30 25
0 25 0 0 25 0 25 -25 0 -25 0 0 25 0 25 25 0 25 0 0 30 0 30 -25 0 -25 0 0 25
0 25 25 0 25 0 0 -25z m430 -215 l0 -30 25 0 25 0 0 30 0 30 25 0 25 0 0 -30
0 -30 30 0 30 0 0 30 0 30 25 0 25 0 0 -30 0 -30 -25 0 -25 0 0 -25 0 -25 25
0 25 0 0 -25 0 -25 -25 0 -25 0 0 -30 0 -30 25 0 25 0 0 -25 0 -25 -25 0 -25
0 0 -25 0 -25 25 0 25 0 0 -30 0 -30 -25 0 -25 0 0 30 0 30 -30 0 -30 0 0 -30
0 -30 -25 0 -25 0 0 30 0 30 -25 0 -25 0 0 -30 0 -30 -30 0 -30 0 0 30 0 30
30 0 30 0 0 25 0 25 -30 0 -30 0 0 25 0 25 30 0 30 0 0 30 0 30 -30 0 -30 0 0
25 0 25 30 0 30 0 0 25 0 25 -30 0 -30 0 0 30 0 30 30 0 30 0 0 -30z"/>
<path d="M270 985 l0 -25 25 0 25 0 0 25 0 25 -25 0 -25 0 0 -25z"/>
<path d="M530 985 l0 -25 30 0 30 0 0 25 0 25 -30 0 -30 0 0 -25z"/>
<path d="M800 985 l0 -25 25 0 25 0 0 25 0 25 -25 0 -25 0 0 -25z"/>
<path d="M160 905 l0 -55 25 0 25 0 0 55 0 55 -25 0 -25 0 0 -55z"/>
<path d="M430 935 l0 -25 25 0 25 0 0 25 0 25 -25 0 -25 0 0 -25z"/>
<path d="M690 935 l0 -25 30 0 30 0 0 25 0 25 -30 0 -30 0 0 -25z"/>
<path d="M960 935 l0 -25 25 0 25 0 0 25 0 25 -25 0 -25 0 0 -25z"/>
<path d="M320 880 l0 -30 25 0 25 0 0 30 0 30 -25 0 -25 0 0 -30z"/>
<path d="M590 880 l0 -30 25 0 25 0 0 30 0 30 -25 0 -25 0 0 -30z"/>
<path d="M850 880 l0 -30 30 0 30 0 0 30 0 30 -30 0 -30 0 0 -30z"/>
<path d="M480 825 l0 -25 25 0 25 0 0 25 0 25 -25 0 -25 0 0 -25z"/>
<path d="M750 825 l0 -25 25 0 25 0 0 25 0 25 -25 0 -25 0 0 -25z"/>
<path d="M1010 825 l0 -25 30 0 30 0 0 25 0 25 -30 0 -30 0 0 -25z"/>
<path d="M110 615 l0 -25 25 0 25 0 0 25 0 25 -25 0 -25 0 0 -25z"/>
<path d="M110 505 l0 -25 25 0 25 0 0 25 0 25 -25 0 -25 0 0 -25z"/>
<path d="M110 400 l0 -30 25 0 25 0 0 30 0 30 -25 0 -25 0 0 -30z"/>
<path d="M110 295 l0 -25 25 0 25 0 0 25 0 25 -25 0 -25 0 0 -25z"/>
<path d="M370 560 l0 -30 -25 0 -25 0 0 -25 0 -25 25 0 25 0 0 -25 0 -25 -25
0 -25 0 0 -30 0 -30 25 0 25 0 0 -25 0 -25 -25 0 -25 0 0 -25 0 -25 25 0 25 0
0 -30 0 -30 -25 0 -25 0 0 -25 0 -25 25 0 25 0 0 -25 0 -25 30 0 30 0 0 25 0
25 25 0 25 0 0 -25 0 -25 25 0 25 0 0 25 0 25 30 0 30 0 0 25 0 25 -30 0 -30
0 0 30 0 30 30 0 30 0 0 25 0 25 -30 0 -30 0 0 25 0 25 30 0 30 0 0 30 0 30
-30 0 -30 0 0 25 0 25 30 0 30 0 0 25 0 25 25 0 25 0 0 30 0 30 -25 0 -25 0 0
-30 0 -30 -30 0 -30 0 0 30 0 30 -25 0 -25 0 0 -30 0 -30 -25 0 -25 0 0 30 0
30 -30 0 -30 0 0 -30z m60 -55 l0 -25 25 0 25 0 0 25 0 25 25 0 25 0 0 -25 0
-25 -25 0 -25 0 0 -25 0 -25 25 0 25 0 0 -30 0 -30 -25 0 -25 0 0 -25 0 -25
25 0 25 0 0 -25 0 -25 -25 0 -25 0 0 -30 0 -30 25 0 25 0 0 -25 0 -25 -25 0
-25 0 0 25 0 25 -25 0 -25 0 0 -25 0 -25 -30 0 -30 0 0 25 0 25 30 0 30 0 0
30 0 30 -30 0 -30 0 0 25 0 25 30 0 30 0 0 25 0 25 -30 0 -30 0 0 30 0 30 30
0 30 0 0 25 0 25 -30 0 -30 0 0 25 0 25 30 0 30 0 0 -25z"/>
<path d="M430 400 l0 -30 25 0 25 0 0 30 0 30 -25 0 -25 0 0 -30z"/>
<path d="M430 295 l0 -25 25 0 25 0 0 25 0 25 -25 0 -25 0 0 -25z"/>
<path d="M690 560 l0 -30 30 0 30 0 0 30 0 30 -30 0 -30 0 0 -30z"/>
<path d="M800 560 l0 -30 25 0 25 0 0 30 0 30 -25 0 -25 0 0 -30z"/>
<path d="M910 560 l0 -30 25 0 25 0 0 30 0 30 -25 0 -25 0 0 -30z"/>
<path d="M1010 560 l0 -30 30 0 30 0 0 -25 0 -25 25 0 25 0 0 25 0 25 -25 0
-25 0 0 30 0 30 -30 0 -30 0 0 -30z"/>
<path d="M1070 400 l0 -30 25 0 25 0 0 30 0 30 -25 0 -25 0 0 -30z"/>
<path d="M1070 295 l0 -25 25 0 25 0 0 25 0 25 -25 0 -25 0 0 -25z"/>
<path d="M1070 185 l0 -25 25 0 25 0 0 25 0 25 -25 0 -25 0 0 -25z"/>
<path d="M800 345 l0 -25 -25 0 -25 0 0 -25 0 -25 25 0 25 0 0 -30 0 -30 -25
0 -25 0 0 -25 0 -25 25 0 25 0 0 -25 0 -25 25 0 25 0 0 25 0 25 30 0 30 0 0
25 0 25 -30 0 -30 0 0 30 0 30 30 0 30 0 0 25 0 25 -30 0 -30 0 0 25 0 25 -25
0 -25 0 0 -25z m50 -50 l0 -25 -25 0 -25 0 0 25 0 25 25 0 25 0 0 -25z m0
-110 l0 -25 -25 0 -25 0 0 25 0 25 25 0 25 0 0 -25z"/>
</g>
</svg>
