<?xml version="1.0" standalone="no"?>
<!DOCTYPE svg PUBLIC "-//W3C//DTD SVG 20010904//EN"
 "http://www.w3.org/TR/2001/REC-SVG-20010904/DTD/svg10.dtd">
<svg version="1.0" xmlns="http://www.w3.org/2000/svg"
 width="468pt" height="468pt" viewBox="0 0 468 468"
 preserveAspectRatio="xMidYMid meet">
<metadata>
Created by potrace 1.8, written by Peter Selinger 2001-2007
</metadata>
<g transform="translate(0,468) scale(0.365625,-0.365625)"
fill="#000000" stroke="none">
<path d="M797 949 l-188 -190 -14 15 -15 15 0 35 0 36 10 0 10 0 0 25 0 25
-86 86 -86 86 -5 -5 -5 -6 81 -80 81 -80 0 -26 0 -25 -10 0 -10 0 0 -36 0 -37
21 -18 21 -18 -16 -17 -17 -16 -18 21 -18 21 -17 0 -16 0 0 10 0 10 -30 0 -30
0 0 -10 0 -10 25 0 26 0 24 -25 25 -24 0 -11 0 -10 -240 -240 -240 -240 0 -11
0 -10 14 -15 15 -14 15 0 16 0 0 -10 0 -10 30 0 30 0 0 10 0 10 15 0 15 0 195
195 195 195 0 21 0 20 15 15 15 15 15 -15 15 -15 0 -15 0 -16 10 0 10 0 0 -15
0 -15 185 -185 185 -185 15 0 15 0 0 -10 0 -10 30 0 30 0 0 10 0 10 16 0 15 0
15 14 14 15 0 10 0 11 -186 186 -186 186 -5 -5 -5 -6 172 -171 173 -172 -14
-9 -13 -8 8 -8 9 -8 4 13 5 12 9 0 9 0 0 -20 0 -20 -20 0 -20 0 0 -10 0 -10
-25 0 -26 0 -24 25 -25 24 0 11 0 11 14 15 15 14 5 0 6 0 0 -30 0 -30 20 0 20
0 0 10 0 10 -10 0 -10 0 0 16 0 15 -14 15 -15 14 -15 0 -16 0 0 -20 0 -20 -20
0 -20 0 0 9 0 9 13 5 12 4 -8 9 -8 8 -8 -13 -9 -13 -136 136 -136 136 0 15 0
15 -10 0 -10 0 0 29 0 29 13 6 12 6 -12 6 -13 6 0 9 0 9 16 0 15 0 16 15 15
16 -7 7 -8 7 -4 -12 -5 -13 -19 0 -19 0 0 -10 0 -10 -20 0 -20 0 0 -10 0 -10
-18 0 -18 0 -14 -20 -14 -20 -17 0 -17 0 -4 12 -5 13 -18 -18 -18 -19 13 -8
13 -8 -28 -27 -27 -28 -8 13 -8 13 -18 -17 -17 -18 13 -8 13 -8 -17 -18 -18
-17 -8 13 -8 13 -18 -17 -17 -18 13 -8 13 -8 -17 -18 -18 -17 -8 13 -8 13
-107 -107 -107 -107 21 -18 21 -18 0 -7 0 -6 -20 0 -20 0 0 10 0 10 -16 0 -15
0 -15 15 -15 14 206 206 205 205 15 0 15 0 0 15 0 15 240 240 240 240 0 5 0 5
-7 -1 -8 -1 -188 -189z m-231 -364 l15 -14 -196 -196 -196 -196 -15 15 -15 15
97 97 96 97 8 -13 8 -13 27 28 28 27 -14 8 -13 9 7 8 8 7 9 -13 8 -14 27 28
28 27 -14 8 -13 9 7 8 8 7 8 -13 9 -14 38 38 38 39 -12 4 -12 4 0 9 0 9 6 0 5
0 15 -15z"/>
<path d="M262 293 l-84 -85 5 -5 5 -5 86 86 86 86 0 5 0 5 -7 -1 -8 -1 -83
-85z"/>
<path d="M1020 1130 l0 -10 10 0 10 0 0 10 0 10 -10 0 -10 0 0 -10z"/>
<path d="M1060 1132 l0 -8 20 -14 20 -14 0 -38 0 -38 -10 0 -10 0 0 -15 0 -16
-121 -120 -121 -120 5 -6 5 -5 126 126 126 126 0 15 0 15 10 0 10 0 0 35 0 36
-25 24 -24 25 -6 0 -5 0 0 -8z"/>
<path d="M320 1105 l0 -16 71 -70 72 -71 -14 -8 -13 -9 6 -7 7 -6 16 15 15 16
0 11 0 11 -52 51 -51 50 13 8 13 8 -17 18 -18 17 -10 -14 -10 -14 -5 13 -5 12
-9 0 -9 0 0 -15z m60 -15 l0 -10 -10 0 -10 0 0 10 0 10 10 0 10 0 0 -10z"/>
<path d="M200 1065 l0 -16 71 -70 72 -71 -14 -8 -13 -9 6 -7 7 -6 16 15 15 16
0 11 0 11 -52 51 -51 50 13 8 13 8 -17 18 -18 17 -10 -14 -10 -14 -5 13 -5 12
-9 0 -9 0 0 -15z m60 -15 l0 -10 -10 0 -10 0 0 10 0 10 10 0 10 0 0 -10z"/>
<path d="M80 1025 l0 -15 75 -75 75 -75 13 0 13 0 14 -20 14 -20 18 0 18 0 0
-10 0 -10 20 0 20 0 0 10 0 10 -20 0 -20 0 0 10 0 10 -15 0 -15 0 -76 76 -77
76 13 8 13 8 -17 18 -18 17 -10 -14 -10 -14 -5 13 -5 12 -9 0 -9 0 0 -15z m60
-15 l0 -10 -10 0 -10 0 0 10 0 10 10 0 10 0 0 -10z"/>
<path d="M300 1035 l0 -5 56 -56 55 -56 6 5 5 6 -56 55 -56 56 -5 0 -5 0 0 -5z"/>
<path d="M180 995 l0 -5 56 -56 55 -56 6 5 5 6 -56 55 -56 56 -5 0 -5 0 0 -5z"/>
<path d="M851 944 l-13 -15 6 -6 5 -5 16 15 15 16 0 5 0 6 -7 0 -8 -1 -14 -15z"/>
<path d="M520 910 l0 -10 10 0 10 0 0 10 0 10 -10 0 -10 0 0 -10z"/>
<path d="M781 874 l-23 -25 5 -6 6 -5 25 25 26 26 0 6 0 5 -7 -1 -8 0 -24 -25z"/>
<path d="M511 864 l-13 -15 6 -6 5 -5 16 15 15 16 0 5 0 6 -7 0 -8 -1 -14 -15z"/>
<path d="M380 850 l0 -10 10 0 10 0 0 10 0 10 -10 0 -10 0 0 -10z"/>
<path d="M420 830 l0 -10 10 0 10 0 0 10 0 10 -10 0 -10 0 0 -10z"/>
<path d="M652 743 l-74 -75 7 -6 8 -7 4 13 5 12 19 0 19 0 0 16 0 15 50 49 50
49 0 5 0 6 -7 -1 -8 -1 -73 -75z"/>
<path d="M380 790 l0 -10 20 0 20 0 0 10 0 10 -20 0 -20 0 0 -10z"/>
<path d="M791 724 l-13 -15 6 -6 5 -5 16 15 15 16 0 5 0 6 -7 0 -8 -1 -14 -15z"/>
<path d="M740 610 l0 -10 10 0 10 0 0 10 0 10 -10 0 -10 0 0 -10z"/>
<path d="M780 590 l0 -10 10 0 10 0 0 10 0 10 -10 0 -10 0 0 -10z"/>
</g>
</svg>
