<?xml version="1.0" standalone="no"?>
<!DOCTYPE svg PUBLIC "-//W3C//DTD SVG 20010904//EN"
 "http://www.w3.org/TR/2001/REC-SVG-20010904/DTD/svg10.dtd">
<svg version="1.0" xmlns="http://www.w3.org/2000/svg"
 width="468pt" height="468pt" viewBox="0 0 468 468"
 preserveAspectRatio="xMidYMid meet">
<metadata>
Created by potrace 1.8, written by Peter Selinger 2001-2007
</metadata>
<g transform="translate(0,468) scale(0.365625,-0.365625)"
fill="#000000" stroke="none">
<path d="M766 1240 l-19 -19 5 -77 5 -76 -66 6 -66 7 -3 9 -4 10 -10 0 -10 0
-28 30 -28 30 -6 0 -6 0 0 -30 0 -30 10 0 10 0 0 -15 0 -15 10 0 10 0 0 -20 0
-20 -10 0 -10 0 0 -25 0 -25 -9 0 -9 0 -7 -65 -7 -65 -9 0 -9 0 0 -23 0 -23
-20 -14 -20 -14 0 -13 0 -13 -9 0 -8 0 -7 -30 -6 -31 -24 -24 -25 -25 -6 0 -6
0 -25 -25 -25 -25 -24 0 -25 0 0 -10 0 -10 -20 0 -20 0 0 25 0 25 -55 0 -55 0
0 -10 0 -10 -25 0 -25 0 0 -39 0 -39 -12 -6 -13 -6 13 -6 12 -6 0 -34 0 -34
58 0 57 0 23 6 22 6 0 29 0 29 19 0 19 0 4 10 3 10 68 7 67 6 0 8 0 9 15 0 15
0 0 10 0 10 26 0 25 0 15 14 14 15 0 19 0 20 -12 5 -13 4 46 45 46 44 7 22 7
22 10 0 9 0 0 20 0 20 10 0 10 0 0 15 0 15 8 0 7 0 15 -11 15 -11 -12 -5 -13
-5 0 -18 0 -18 13 -6 12 -6 -12 -6 -13 -6 0 -13 0 -13 13 -6 12 -6 -12 -6 -13
-6 0 -14 0 -14 10 0 10 0 0 18 0 17 8 -11 7 -11 43 -6 42 -5 0 24 0 24 -10 0
-10 0 0 -10 0 -10 -14 0 -14 0 -5 13 -5 12 -11 -15 -11 -15 -10 15 -10 15 0
10 0 10 62 -3 61 -4 -18 18 -18 19 -5 -13 -4 -12 -13 0 -13 0 -5 13 -5 12 -11
-15 -11 -15 -10 15 -10 15 1 20 1 20 5 -12 5 -13 44 0 44 0 0 20 0 20 -10 0
-10 0 0 -10 0 -10 -14 0 -14 0 -5 13 -5 12 -11 -15 -11 -15 -10 15 -10 15 0
13 0 12 -10 0 -10 0 0 10 0 10 9 0 10 0 6 -20 6 -20 55 0 54 0 0 10 0 10 19 0
19 0 5 13 5 12 1 -12 1 -13 20 0 20 0 0 -10 0 -10 15 0 15 0 0 -25 0 -25 10 0
10 0 0 -55 0 -55 10 0 10 0 0 -25 0 -25 -10 0 -10 0 0 10 0 10 -13 0 -13 0
-14 -20 -14 -20 -41 0 -41 0 -14 20 -14 20 -33 0 -33 0 0 10 0 10 -12 0 -13 0
-1 -62 -1 -62 -12 -4 -11 -4 0 -24 0 -24 -10 0 -10 0 0 -29 0 -30 -20 -6 -21
-7 -6 -29 -5 -29 -9 0 -9 0 0 -35 0 -35 10 0 10 0 0 -14 0 -14 -12 -5 -13 -5
15 -11 15 -11 -15 -10 -15 -10 15 -10 15 -10 -12 0 -13 0 0 -39 0 -38 -30 -7
-31 -6 -24 -24 -25 -25 0 -21 0 -20 55 0 55 0 0 9 0 8 56 7 56 6 14 14 14 15
0 16 0 16 -16 16 -16 17 7 50 6 51 10 3 9 4 0 24 0 24 10 0 10 0 0 20 0 20 9
0 9 0 7 32 7 32 14 13 13 13 15 0 16 0 0 15 0 15 9 0 10 0 4 23 4 22 2 -32 1
-33 10 0 10 0 0 -25 0 -25 10 0 10 0 0 -25 0 -25 10 0 10 0 0 -115 0 -115 -10
0 -10 0 0 -35 0 -35 15 0 15 0 0 -10 0 -10 65 0 65 0 0 21 0 22 -22 19 -23 20
1 96 1 96 12 4 11 4 0 34 0 34 -10 0 -10 0 0 80 0 80 9 0 10 0 15 -15 15 -15
16 0 16 0 13 13 14 12 20 14 21 15 7 43 6 43 9 0 9 0 0 25 0 25 10 0 10 0 0
55 0 55 10 0 10 0 0 105 0 105 -55 -6 -55 -7 0 37 0 36 10 0 10 0 0 15 0 15
10 0 10 0 0 30 0 30 -6 0 -6 0 -28 -30 -28 -30 -10 0 -10 0 -4 -10 -3 -9 -72
-7 -73 -7 0 17 0 16 10 0 10 0 0 60 0 60 -20 20 -20 20 -57 -1 -58 0 -19 -19z
m152 -60 l3 -56 -19 -22 -19 -22 -37 0 -37 0 -24 25 -25 24 0 50 0 49 13 6 12
5 65 -2 65 -2 3 -55z m-337 -81 l18 -21 40 -5 41 -6 0 -8 0 -9 60 0 60 0 0
-10 0 -10 45 0 45 0 0 10 0 10 60 0 60 0 0 9 0 8 41 6 40 5 20 23 19 22 8 -8
7 -8 -12 -4 -13 -5 0 -14 0 -14 -10 0 -10 0 0 -36 0 -37 -90 5 -90 5 0 -68 0
-69 -10 0 -11 0 -25 25 -25 25 -4 0 -4 0 -25 -25 -25 -25 -50 0 -50 0 -6 20
-6 20 -10 0 -9 0 0 15 0 15 -10 0 -10 0 0 30 0 30 -10 0 -10 0 0 11 0 10 -12
14 -13 14 -12 15 -13 15 0 11 0 10 -10 0 -10 0 0 10 0 10 6 0 7 0 18 -21z
m313 -36 l-13 -13 -36 0 -36 0 -13 13 -12 12 61 0 61 0 -12 -12z m-290 -59
l16 -6 0 -29 0 -29 10 0 10 0 0 -16 0 -15 -22 5 -23 6 13 -6 12 -6 0 -29 0
-29 -9 0 -9 0 -4 10 -3 10 -1 -50 0 -50 -7 -6 -7 -7 -19 21 -18 22 -12 0 -11
0 0 26 0 26 27 -7 28 -7 -23 20 -22 19 0 17 0 16 20 0 20 0 0 -10 0 -10 10 0
10 0 0 9 0 10 -20 6 -20 6 0 20 0 19 19 0 19 0 5 -12 5 -13 1 12 1 12 -15 15
-15 15 0 10 0 11 9 0 9 0 16 -6z m356 -14 l0 -10 115 0 115 0 0 10 0 10 10 0
10 0 0 -100 0 -100 -10 0 -10 0 0 -55 0 -55 -9 0 -9 0 -6 -45 -7 -45 -10 0 -9
0 0 -11 0 -11 -31 -29 -31 -29 -3 0 -3 0 -31 29 -31 29 -6 31 -6 31 -9 0 -9 0
0 25 0 25 -10 0 -10 0 0 55 0 55 -10 0 -10 0 0 100 0 100 10 0 10 0 0 -10z
m-440 -200 l0 -10 15 0 15 0 0 -25 0 -25 -9 0 -9 0 -6 15 -5 15 -11 0 -11 0
15 -16 16 -15 0 -10 0 -9 -14 0 -14 0 -5 13 -4 12 -9 -9 -9 -9 13 -4 12 -5 0
-14 0 -14 -20 0 -20 0 0 -8 0 -8 20 -14 20 -14 0 -18 0 -18 -10 0 -10 0 0 20
0 20 -6 0 -5 0 -15 -14 -14 -15 0 -9 0 -9 -20 -23 -20 -23 -8 8 -7 8 13 4 12
5 0 14 0 14 -25 0 -25 0 0 10 0 10 15 0 15 0 0 10 0 10 23 0 24 0 0 32 0 32
11 4 12 4 0 19 0 19 10 0 10 0 0 10 0 11 13 14 12 14 8 1 7 0 0 -10z m210
-160 l0 -10 24 0 24 0 4 -12 4 -12 59 0 59 0 4 12 4 12 24 0 24 0 0 10 0 10
10 0 10 0 0 -24 0 -24 11 -4 11 -4 1 -37 1 -38 -14 -10 -15 -11 13 -5 12 -5 0
-19 0 -19 -12 -1 -13 -1 13 -5 12 -5 0 -19 0 -19 -16 0 -15 0 -15 -14 -14 -15
0 -20 0 -21 10 0 10 0 0 -19 0 -20 20 -6 20 -6 0 -9 0 -8 -12 -5 -13 -5 15
-12 15 -12 -14 -5 -13 -5 13 -10 14 -10 -12 -5 -13 -5 0 -18 0 -18 -12 -6 -13
-6 13 -6 12 -6 16 -15 15 -15 -6 -22 -5 -21 6 13 6 12 9 0 9 0 0 -15 0 -15
-24 0 -24 0 -31 6 -31 7 -7 25 -6 25 17 12 16 12 0 17 0 16 -10 0 -10 0 0 20
0 20 13 1 12 1 -12 5 -13 5 0 18 0 18 13 6 12 6 -12 6 -13 6 0 13 0 13 13 5
12 5 -12 9 -12 9 -3 57 -3 57 -12 0 -13 0 0 20 0 20 10 0 10 0 0 10 0 10 -20
0 -20 0 0 15 0 15 10 0 10 0 0 10 0 10 -20 0 -20 0 -1 13 -1 12 -5 -12 -5 -13
-29 0 -29 0 0 -10 0 -10 21 0 20 0 -15 -15 -15 -15 -15 0 -16 0 0 -10 0 -10
20 0 20 0 0 -6 0 -5 -14 -15 -15 -14 -10 0 -11 0 0 -11 0 -10 -17 -17 -16 -17
-5 13 -4 12 -14 0 -14 0 0 -10 0 -10 15 0 15 0 0 -15 0 -15 -15 0 -14 0 6 -30
6 -30 -17 0 -16 0 0 -10 0 -10 10 0 10 0 0 -15 0 -15 -20 0 -20 0 0 -10 0 -10
10 0 10 0 0 -15 0 -15 -10 0 -10 0 0 -20 0 -20 10 0 10 0 0 -20 0 -20 10 0 10
0 0 -15 0 -15 -20 0 -20 0 0 -10 0 -10 -24 0 -24 0 -4 -9 -3 -9 -52 -7 -53 -7
0 12 0 11 14 15 15 14 9 0 10 0 4 10 3 10 31 3 31 2 -4 11 -4 11 15 16 16 16
0 5 0 6 -14 0 -14 0 2 47 1 46 13 5 12 4 0 17 0 17 20 14 20 14 0 20 0 19 -22
18 -21 19 8 8 8 7 4 -12 5 -13 9 0 9 0 0 35 0 35 9 0 9 0 5 -12 5 -13 -5 38
-6 37 14 -3 14 -4 -7 4 -8 5 0 29 0 29 9 0 9 0 5 -12 4 -13 9 9 9 9 -12 4 -13
5 0 24 0 24 10 0 10 0 0 -10z m-525 -167 l-5 -23 -20 0 -20 0 0 74 0 75 23 3
22 3 3 -55 3 -54 -6 -23z m-65 52 l0 -75 -25 0 -25 0 0 20 0 20 15 0 15 0 0
10 0 10 -15 0 -15 0 0 10 0 10 15 0 15 0 -1 18 -1 17 -5 -12 -5 -13 -9 0 -9 0
0 30 0 30 25 0 25 0 0 -75z m230 65 l0 -10 -25 0 -25 0 0 -10 0 -10 -25 0 -25
0 0 -10 0 -10 -20 0 -20 0 0 10 0 10 20 0 20 0 0 10 0 10 25 0 25 0 0 10 0 10
25 0 25 0 0 -10z m270 -205 l0 -15 -10 0 -10 0 0 -20 0 -20 -15 0 -15 0 0 19
0 19 6 16 6 16 19 0 19 0 0 -15z m370 -40 l0 -35 -11 0 -10 0 -15 14 -14 15 0
20 0 21 25 0 25 0 0 -35z"/>
<path d="M800 1175 l0 -15 45 0 45 0 0 15 0 15 -45 0 -45 0 0 -15z"/>
<path d="M570 810 l0 -10 10 0 10 0 0 10 0 10 -10 0 -10 0 0 -10z"/>
<path d="M1018 938 l-18 -22 0 -33 0 -34 15 -5 15 -6 0 -15 0 -14 17 -17 16
-17 5 14 4 13 8 -12 8 -13 16 16 16 16 0 15 0 15 20 6 20 6 0 30 0 30 -25 24
-24 25 -38 0 -38 0 -17 -22z m108 -12 l14 -15 0 -30 0 -31 -20 0 -20 0 0 -15
0 -15 -25 0 -25 0 0 15 0 15 -20 0 -20 0 0 30 0 31 13 14 12 14 38 1 38 0 15
-14z"/>
<path d="M1030 890 l0 -20 20 0 20 0 0 20 0 20 -20 0 -20 0 0 -20z"/>
<path d="M1080 890 l0 -20 20 0 20 0 0 20 0 20 -20 0 -20 0 0 -20z"/>
<path d="M1007 753 l-7 -6 0 -9 0 -8 11 0 12 0 18 -22 19 -21 7 6 6 7 -21 19
-22 18 0 12 0 11 -8 0 -9 0 -6 -7z"/>
<path d="M1120 750 l0 -11 -39 -39 -39 -40 -16 0 -16 0 0 -6 0 -5 14 -15 15
-14 5 0 6 0 0 16 0 16 40 39 39 39 16 0 15 0 0 9 0 9 -16 6 -16 6 -4 0 -4 0 0
-10z"/>
<path d="M1080 670 l0 -10 10 0 10 0 0 -20 0 -20 6 0 5 0 15 14 14 15 0 5 0 6
-20 0 -20 0 0 10 0 10 -10 0 -10 0 0 -10z"/>
<path d="M960 560 l0 -10 10 0 10 0 0 10 0 10 -10 0 -10 0 0 -10z"/>
<path d="M910 540 l0 -10 15 0 15 0 0 10 0 10 -15 0 -15 0 0 -10z"/>
<path d="M730 510 l0 -10 10 0 10 0 0 10 0 10 -10 0 -10 0 0 -10z"/>
<path d="M920 490 l0 -10 20 0 20 0 0 10 0 10 -20 0 -20 0 0 -10z"/>
<path d="M710 450 l0 -10 10 0 10 0 0 10 0 10 -10 0 -10 0 0 -10z"/>
<path d="M960 100 l0 -10 10 0 10 0 0 10 0 10 -10 0 -10 0 0 -10z"/>
<path d="M530 80 l0 -10 10 0 10 0 0 10 0 10 -10 0 -10 0 0 -10z"/>
<path d="M500 60 l0 -10 10 0 10 0 0 10 0 10 -10 0 -10 0 0 -10z"/>
<path d="M813 843 l-13 -5 0 -25 0 -26 22 -18 21 -19 2 0 2 0 21 19 22 18 0
26 0 25 -16 6 -16 6 -16 -1 -17 -1 -12 -5z m57 -23 l0 -20 -10 0 -10 0 -1 -22
-2 -23 -4 23 -4 22 -10 0 -9 0 0 20 0 20 25 0 25 0 0 -20z"/>
<path d="M902 765 l-13 -15 16 0 15 0 0 15 0 15 -2 0 -3 -1 -13 -14z"/>
<path d="M813 715 l-13 -14 0 -16 0 -16 14 -15 15 -14 16 0 16 0 15 14 14 15
0 16 0 16 -14 15 -15 14 -18 0 -18 -1 -12 -14z m57 -15 l0 -11 -12 -13 -12
-13 -13 13 -13 13 0 10 0 11 25 0 25 0 0 -10z"/>
<path d="M912 710 l0 -25 5 13 5 12 -5 13 -5 12 0 -25z"/>
</g>
</svg>
