<?xml version="1.0" standalone="no"?>
<!DOCTYPE svg PUBLIC "-//W3C//DTD SVG 20010904//EN"
 "http://www.w3.org/TR/2001/REC-SVG-20010904/DTD/svg10.dtd">
<svg version="1.0" xmlns="http://www.w3.org/2000/svg"
 width="468pt" height="468pt" viewBox="0 0 468 468"
 preserveAspectRatio="xMidYMid meet">
<metadata>
Created by potrace 1.8, written by Peter Selinger 2001-2007
</metadata>
<g transform="translate(0,468) scale(0.365625,-0.365625)"
fill="#000000" stroke="none">
<path d="M301 1034 l-23 -25 6 -6 6 -6 19 21 18 22 77 0 76 0 0 -10 0 -10 26
0 25 0 17 -17 17 -16 -13 -5 -12 -4 0 -25 0 -25 -40 -38 -40 -38 0 -42 0 -41
-70 -69 -70 -69 0 -51 0 -52 -40 -38 -40 -38 0 -36 0 -36 10 0 10 0 0 -26 0
-25 50 -49 50 -49 0 -11 0 -11 25 -24 24 -25 16 0 15 0 0 -10 0 -10 20 0 20 0
0 -10 0 -10 40 0 40 0 0 -10 0 -10 100 0 100 0 0 10 0 10 40 0 40 0 0 10 0 10
20 0 20 0 0 10 0 10 20 0 20 0 0 10 0 10 15 0 16 0 34 35 35 34 0 12 0 11 30
28 30 28 0 16 0 16 10 0 10 0 0 60 0 60 -10 0 -10 0 0 30 0 30 -10 0 -10 0 0
16 0 16 -30 28 -30 28 0 12 0 12 -40 38 -40 38 0 12 0 11 -50 49 -50 49 0 15
0 16 -10 0 -10 0 0 16 0 15 -14 15 -15 14 -11 0 -11 0 -24 25 -25 24 0 16 0
15 -20 0 -20 0 0 10 0 10 -30 0 -30 0 0 -10 0 -10 -20 0 -20 0 0 10 0 10 -40
0 -40 0 0 10 0 10 -77 -1 -78 0 -24 -25z m366 -29 l15 -16 -5 -6 -6 -5 -16 15
-15 16 0 5 0 6 6 0 5 0 16 -15z m-27 -31 l0 -5 -15 -16 -16 -15 -5 5 -6 6 13
15 14 15 8 1 7 0 0 -6z m60 -24 l0 -10 -10 0 -10 0 0 10 0 10 10 0 10 0 0 -10z
m-113 -25 l15 -16 -5 -6 -6 -5 -16 15 -15 16 0 5 0 6 6 0 5 0 16 -15z m80 0
l15 -16 -5 -6 -6 -5 -16 15 -15 16 0 5 0 6 6 0 5 0 16 -15z m73 5 l0 -10 20 0
20 0 0 -20 0 -20 10 0 10 0 0 -26 0 -25 14 -15 15 -14 15 0 16 0 0 -16 0 -17
21 -18 21 -18 -15 -16 -16 -15 -25 0 -26 0 0 -10 0 -10 -20 0 -20 0 0 -10 0
-10 -30 0 -30 0 0 -10 0 -10 -100 0 -100 0 0 16 0 15 -17 17 -16 17 -5 -13 -4
-12 -29 0 -29 0 0 16 0 15 14 15 15 14 15 0 16 0 0 46 0 45 14 15 15 14 15 0
16 0 0 20 0 20 10 0 10 0 0 -20 0 -20 20 0 20 0 0 -10 0 -10 19 0 19 0 5 -12
4 -13 20 23 20 22 17 0 16 0 0 19 0 19 13 6 12 6 -12 6 -13 6 0 9 0 9 10 0 10
0 0 -10z m-100 -40 l0 -10 -10 0 -10 0 0 10 0 10 10 0 10 0 0 -10z m240 -290
l0 -20 20 0 20 0 0 -20 0 -20 30 0 30 0 0 20 0 20 15 0 16 0 24 -25 25 -24 0
-26 0 -25 -10 0 -10 0 0 -20 0 -20 9 0 9 0 5 13 4 12 9 -9 9 -9 -12 -4 -13 -5
0 -15 0 -14 -14 -15 -15 -14 -15 0 -16 0 0 -10 0 -10 -30 0 -30 0 0 -10 0 -10
-30 0 -30 0 0 -10 0 -10 -40 0 -40 0 0 -10 0 -10 -60 0 -60 0 0 10 0 10 10 0
10 0 0 60 0 60 10 0 10 0 0 50 0 50 10 0 10 0 0 20 0 20 6 0 5 0 15 -14 14
-15 0 -35 0 -36 16 0 15 0 15 14 14 15 0 41 0 41 13 14 12 14 8 1 7 0 0 -20z
m-460 -100 l0 -60 36 0 35 0 15 14 14 15 0 15 0 16 -10 0 -10 0 0 20 0 20 8 0
8 0 14 -20 14 -20 38 0 38 0 0 -30 0 -30 10 0 10 0 0 -20 0 -20 10 0 10 0 0
-50 0 -50 -60 0 -60 0 0 10 0 10 -40 0 -40 0 0 10 0 10 -30 0 -30 0 0 10 0 10
-30 0 -30 0 0 -6 0 -5 16 -16 16 -16 8 14 9 13 21 -24 21 -24 9 14 9 14 21
-24 21 -24 9 14 9 14 21 -24 21 -24 10 14 9 15 10 -15 10 -15 10 15 10 15 10
-15 10 -15 10 15 10 15 10 -15 10 -15 10 15 10 15 10 -15 10 -15 10 15 10 15
10 -15 10 -15 10 15 10 15 9 -15 10 -14 21 24 21 24 9 -14 9 -14 21 24 21 24
9 -14 9 -14 21 24 21 24 9 -14 9 -14 21 24 21 24 9 -14 9 -14 21 23 20 24 6
-6 6 -5 -97 -97 -97 -98 -8 14 -8 13 -32 -34 -32 -34 -8 14 -9 14 -21 -24 -21
-24 -10 14 -9 15 -10 -15 -10 -15 -10 15 -10 15 -10 -15 -10 -15 -10 15 -10
15 -10 -15 -10 -15 -10 15 -10 15 -9 -15 -10 -14 -21 24 -21 24 -10 -14 -9
-15 -10 15 -10 15 -9 -14 -9 -14 -107 108 -107 107 7 6 6 6 9 -13 8 -14 17 16
16 17 -15 15 -15 15 -15 0 -16 0 0 19 0 19 -12 4 -12 4 27 28 27 27 15 -15 15
-15 0 -25 0 -26 -10 0 -10 0 0 -10 0 -10 20 0 20 0 0 65 0 66 13 14 12 14 18
1 17 0 0 -60z"/>
<path d="M760 830 l0 -10 -16 0 -15 0 -15 -14 -14 -15 0 -5 0 -6 15 0 16 0 24
25 25 24 0 6 0 5 -10 0 -10 0 0 -10z"/>
<path d="M500 770 l0 -10 90 0 90 0 0 10 0 10 -90 0 -90 0 0 -10z"/>
<path d="M750 760 l-14 -20 -18 0 -18 0 0 -10 0 -10 -40 0 -40 0 0 -10 0 -10
-40 0 -40 0 0 -10 0 -10 50 0 50 0 0 10 0 10 30 0 30 0 0 10 0 10 15 0 16 0
24 25 25 24 0 6 0 5 -8 0 -8 0 -14 -20z"/>
<path d="M940 450 l0 -10 -20 0 -20 0 0 -10 0 -10 -30 0 -30 0 0 10 0 10 -30
0 -30 0 0 -10 0 -10 30 0 30 0 0 -10 0 -10 38 0 38 0 14 20 14 20 18 0 18 0 0
10 0 10 -20 0 -20 0 0 -10z"/>
<path d="M320 335 l0 -5 86 -86 86 -87 9 14 9 14 10 -15 10 -15 9 15 10 14 21
-24 21 -24 10 14 9 15 10 -15 10 -15 10 15 10 15 10 -15 10 -15 10 15 10 15
10 -15 10 -15 10 15 10 15 9 -15 10 -14 21 24 21 24 9 -14 8 -14 32 34 32 34
8 -13 8 -14 67 67 67 67 -6 6 -6 6 -20 -24 -21 -23 -9 14 -9 14 -21 -24 -21
-24 -9 14 -9 14 -21 -24 -21 -24 -9 14 -9 14 -21 -24 -21 -24 -10 14 -9 15
-10 -15 -10 -15 -10 15 -10 15 -10 -15 -10 -15 -10 15 -10 15 -10 -15 -10 -15
-10 15 -10 15 -10 -15 -10 -15 -10 15 -10 15 -10 -15 -10 -15 -10 15 -10 15
-9 -15 -10 -14 -21 24 -21 24 -9 -14 -9 -14 -21 24 -21 24 -9 -14 -9 -14 -21
24 -21 24 -9 -14 -9 -14 -19 22 -19 22 -7 0 -6 0 0 -5z m92 -57 l19 -22 9 14
9 14 21 -24 21 -24 9 14 9 14 21 -24 21 -24 10 14 9 15 10 -15 10 -15 10 15
10 15 10 -15 10 -15 10 15 10 15 10 -15 10 -15 10 15 10 15 10 -15 10 -15 10
15 10 15 10 -15 10 -15 10 15 10 15 9 -15 10 -14 21 24 21 24 9 -14 9 -14 21
24 21 24 9 -14 9 -14 21 23 20 24 6 -6 6 -6 -37 -37 -37 -37 -8 13 -8 14 -32
-34 -32 -34 -8 14 -9 14 -21 -24 -21 -24 -10 14 -9 15 -10 -15 -10 -15 -10 15
-10 15 -10 -15 -10 -15 -10 15 -10 15 -10 -15 -10 -15 -10 15 -10 15 -9 -15
-10 -14 -21 24 -21 24 -10 -14 -9 -15 -10 15 -10 15 -9 -14 -9 -14 -56 56 -56
57 0 5 0 5 6 0 7 0 19 -22z"/>
<path d="M440 255 l0 -6 26 -26 26 -26 9 14 9 14 9 -15 10 -14 7 6 6 7 -17 17
-17 17 -8 -14 -9 -13 -19 22 -19 22 -7 0 -6 0 0 -5z"/>
<path d="M880 250 l0 -10 10 0 10 0 0 10 0 10 -10 0 -10 0 0 -10z"/>
<path d="M811 224 l-13 -15 6 -6 5 -5 16 15 15 16 0 5 0 6 -7 0 -8 -1 -14 -15z"/>
<path d="M560 214 l0 -5 16 -16 16 -16 9 14 9 14 10 -15 10 -15 10 15 10 15
10 -15 10 -15 10 15 10 15 10 -15 10 -15 10 15 10 15 9 -14 9 -14 17 17 17 17
-6 7 -7 6 -10 -14 -9 -15 -10 15 -10 15 -10 -15 -10 -15 -10 15 -10 15 -10
-15 -10 -15 -10 15 -10 15 -10 -15 -10 -15 -10 15 -10 15 -11 -15 -11 -15 -5
13 -5 12 -9 0 -9 0 0 -6z"/>
</g>
</svg>
