<?xml version="1.0" standalone="no"?>
<!DOCTYPE svg PUBLIC "-//W3C//DTD SVG 20010904//EN"
 "http://www.w3.org/TR/2001/REC-SVG-20010904/DTD/svg10.dtd">
<svg version="1.0" xmlns="http://www.w3.org/2000/svg"
 width="468pt" height="468pt" viewBox="0 0 468 468"
 preserveAspectRatio="xMidYMid meet">
<metadata>
Created by potrace 1.8, written by Peter Selinger 2001-2007
</metadata>
<g transform="translate(0,468) scale(0.365625,-0.365625)"
fill="#000000" stroke="none">
<path d="M0 1191 l0 -89 13 -6 12 -6 -12 -6 -13 -6 0 -167 0 -167 20 -14 20
-14 0 -8 0 -8 -20 0 -20 0 0 -10 0 -10 20 0 20 0 0 -6 0 -7 -22 -18 -21 -19
23 -20 23 -20 -23 -20 -23 -20 6 -6 6 -6 27 27 27 27 -13 8 -13 8 17 18 18 17
8 -13 8 -13 42 43 42 43 9 -14 9 -14 9 15 10 14 21 -23 20 -24 7 6 6 7 -21 19
-22 18 0 16 0 15 12 6 13 6 -12 6 -13 6 0 25 0 24 -16 16 -16 16 -8 -14 -9
-13 -8 8 -8 9 13 4 12 5 0 19 0 19 10 0 10 0 0 -18 0 -18 20 -14 20 -14 0 -15
0 -14 23 -20 22 -20 -12 -4 -13 -5 0 -19 0 -19 10 0 10 0 0 15 0 16 25 25 25
25 15 -15 15 -15 0 -75 0 -76 -20 0 -20 0 0 -10 0 -10 -50 0 -50 0 0 -10 0
-10 -30 0 -30 0 0 -10 0 -10 -30 0 -30 0 0 -10 0 -10 -20 0 -20 0 0 -10 0 -10
-16 0 -15 0 -15 -14 -14 -15 0 -235 0 -236 640 0 640 0 0 250 0 250 -8 0 -8 0
-14 -20 -14 -20 -14 0 -14 0 -28 -30 -28 -30 -12 0 -12 0 -28 -30 -28 -30 -12
0 -11 0 -59 -60 -59 -60 -15 0 -16 0 0 -10 0 -10 -115 0 -116 0 -24 25 -25 24
0 16 0 15 -10 0 -10 0 0 50 0 50 10 0 10 0 0 15 0 16 35 34 34 35 16 0 15 0 0
10 0 10 30 0 30 0 0 10 0 10 30 0 30 0 0 10 0 10 30 0 30 0 0 10 0 10 30 0 30
0 0 10 0 10 25 0 26 0 26 26 25 25 -6 6 -6 6 -19 -21 -18 -22 -36 0 -35 0 -6
13 -6 12 -6 -12 -6 -13 -64 0 -64 0 -180 180 -180 180 -5 0 -5 0 0 -206 0
-205 14 -15 15 -14 35 0 36 0 0 -10 0 -10 -120 0 -120 0 0 10 0 10 40 0 40 0
0 20 0 20 10 0 10 0 0 230 0 230 -10 0 -10 0 0 15 0 16 -25 24 -24 25 -26 0
-25 0 0 10 0 10 85 0 86 0 69 -70 69 -70 11 0 11 0 34 -35 35 -34 0 -11 0 -11
25 -24 24 -25 6 0 5 0 0 16 0 16 -40 38 -40 38 0 6 0 6 16 0 15 0 15 -14 14
-15 0 -11 0 -11 14 -15 15 -14 5 0 6 0 0 19 0 19 -12 4 -13 5 18 17 18 18 7
-6 6 -7 -14 -10 -15 -11 13 -5 12 -5 0 -15 0 -14 14 -15 15 -14 15 0 16 0 0
-20 0 -20 -9 0 -9 0 -5 13 -5 12 -11 -15 -10 -14 -8 7 -7 8 13 9 14 8 -16 16
-16 16 -5 0 -6 0 0 -29 0 -29 13 -5 12 -5 -14 -10 -14 -10 57 -57 57 -57 6 6
5 5 -52 51 -51 50 16 17 17 16 8 -13 8 -13 16 16 16 16 0 14 0 15 13 5 12 5
-15 12 -15 12 13 5 12 5 0 85 0 84 -14 15 -15 14 -25 0 -26 0 0 10 0 10 100 0
100 0 0 -10 0 -10 -16 0 -15 0 -15 -14 -14 -15 0 -44 0 -45 13 -6 12 -6 -12
-6 -13 -6 0 -39 0 -39 20 0 20 0 0 9 0 9 -12 5 -13 4 7 8 8 8 21 -24 22 -24 4
13 5 12 18 0 18 0 5 13 5 12 10 -14 10 -15 32 34 31 33 7 -7 6 -7 -14 -9 -14
-9 8 -8 9 -8 4 13 5 12 9 0 9 0 0 -20 0 -20 10 0 10 0 0 -19 0 -19 -12 -5 -13
-5 15 -11 14 -10 -6 -7 -7 -6 -16 15 -15 16 0 11 0 11 -15 16 -16 15 -7 -7 -7
-8 13 -4 12 -5 0 -19 0 -19 -9 0 -9 0 -5 13 -4 12 -9 -9 -9 -9 13 -4 12 -5 0
-19 0 -19 -9 0 -9 0 -4 12 -5 13 -16 -17 -17 -17 0 -25 0 -26 19 0 19 0 6 -12
6 -13 6 13 6 12 9 0 9 0 0 -19 0 -19 -12 -4 -13 -5 19 -19 19 -19 5 13 4 12
17 0 17 0 14 20 14 20 14 0 13 0 26 26 26 26 -14 9 -14 9 15 10 15 10 -15 11
-15 11 13 5 12 5 0 38 0 38 -12 6 -13 6 12 6 13 6 0 169 0 169 -39 0 -39 0 -6
-12 -6 -13 -6 13 -6 12 -228 0 -228 0 -6 -12 -6 -13 -6 13 -6 12 -109 0 -109
0 0 -10 0 -10 -20 0 -20 0 0 -10 0 -10 -18 0 -18 0 -14 -20 -14 -20 -28 0 -28
0 0 20 0 20 20 0 20 0 0 10 0 10 20 0 20 0 0 10 0 10 -69 0 -69 0 -6 -12 -6
-13 -6 13 -6 12 -119 0 -119 0 0 -89z m660 63 l0 -5 -15 -16 -16 -15 -5 5 -6
6 13 15 14 15 8 1 7 0 0 -6z m220 -4 l0 -10 -10 0 -10 0 0 10 0 10 10 0 10 0
0 -10z m-700 -20 l0 -10 -10 0 -10 0 0 10 0 10 10 0 10 0 0 -10z m620 0 l0
-10 -10 0 -10 0 0 10 0 10 10 0 10 0 0 -10z m320 -20 l0 -10 -10 0 -10 0 0 10
0 10 10 0 10 0 0 -10z m-1080 -20 l0 -10 -10 0 -10 0 0 10 0 10 10 0 10 0 0
-10z m420 0 l0 -10 -10 0 -10 0 0 10 0 10 10 0 10 0 0 -10z m460 0 l0 -10 -10
0 -10 0 0 10 0 10 10 0 10 0 0 -10z m-820 -20 l0 -10 -10 0 -10 0 0 10 0 10
10 0 10 0 0 -10z m640 0 l0 -10 -10 0 -10 0 0 10 0 10 10 0 10 0 0 -10z m-120
-40 l0 -10 -10 0 -10 0 0 10 0 10 10 0 10 0 0 -10z m-400 -20 l0 -10 -10 0
-10 0 0 10 0 10 10 0 10 0 0 -10z m880 0 l0 -10 -10 0 -10 0 0 10 0 10 10 0
10 0 0 -10z m100 -20 l0 -10 -10 0 -10 0 0 10 0 10 10 0 10 0 0 -10z m-1100
-40 l0 -10 -10 0 -10 0 0 10 0 10 10 0 10 0 0 -10z m500 0 l0 -10 -10 0 -10 0
0 10 0 10 10 0 10 0 0 -10z m80 0 l0 -10 -10 0 -10 0 0 10 0 10 10 0 10 0 0
-10z m-40 -40 l0 -10 -10 0 -10 0 0 10 0 10 10 0 10 0 0 -10z m80 0 l0 -10
-20 0 -20 0 0 10 0 10 20 0 20 0 0 -10z m47 -5 l15 -16 -5 -6 -6 -5 -16 15
-15 16 0 5 0 6 6 0 5 0 16 -15z m53 5 l0 -10 -10 0 -10 0 0 10 0 10 10 0 10 0
0 -10z m372 -12 l19 -22 9 14 9 14 8 -7 7 -8 -14 -10 -15 -9 15 -9 14 -10 -7
-7 -7 -7 -19 21 -18 22 -7 0 -6 0 0 -20 0 -20 10 0 10 0 0 -20 0 -20 9 0 9 0
5 13 4 12 9 -9 9 -9 -12 -4 -13 -5 0 -19 0 -19 -10 0 -10 0 0 20 0 20 -10 0
-10 0 0 20 0 20 -10 0 -10 0 0 19 0 19 -12 4 -12 4 14 17 15 16 4 1 4 0 19
-22z m-992 -8 l0 -10 -10 0 -10 0 0 10 0 10 10 0 10 0 0 -10z m140 0 l0 -10
-10 0 -10 0 0 10 0 10 10 0 10 0 0 -10z m680 0 l0 -10 -10 0 -10 0 0 10 0 10
10 0 10 0 0 -10z m-980 -20 l0 -10 -10 0 -10 0 0 10 0 10 10 0 10 0 0 -10z
m240 0 l0 -10 -10 0 -10 0 0 10 0 10 10 0 10 0 0 -10z m440 0 l0 -10 -10 0
-10 0 0 10 0 10 10 0 10 0 0 -10z m120 0 l0 -10 -10 0 -10 0 0 10 0 10 10 0
10 0 0 -10z m223 -2 l5 -13 11 15 10 14 8 -8 8 -9 -12 -4 -13 -5 0 -19 0 -19
-10 0 -10 0 0 20 0 20 -10 0 -10 0 0 10 0 10 9 0 9 0 5 -12z m-903 -18 l0 -10
-10 0 -10 0 0 10 0 10 10 0 10 0 0 -10z m80 0 l0 -10 -10 0 -10 0 0 10 0 10
10 0 10 0 0 -10z m100 0 l0 -10 -10 0 -10 0 0 10 0 10 10 0 10 0 0 -10z m460
0 l0 -10 -10 0 -10 0 0 10 0 10 10 0 10 0 0 -10z m180 0 l0 -10 -10 0 -10 0 0
10 0 10 10 0 10 0 0 -10z m47 -5 l15 -16 -5 -6 -6 -5 -16 15 -15 16 0 5 0 6 6
0 5 0 16 -15z m-907 -15 l0 -10 -10 0 -10 0 0 10 0 10 10 0 10 0 0 -10z m180
0 l0 -10 -10 0 -10 0 0 10 0 10 10 0 10 0 0 -10z m540 0 l0 -10 -10 0 -10 0 0
10 0 10 10 0 10 0 0 -10z m-660 -20 l0 -10 -10 0 -10 0 0 10 0 10 10 0 10 0 0
-10z m40 0 l0 -10 -10 0 -10 0 0 10 0 10 10 0 10 0 0 -10z m40 0 l0 -10 -10 0
-10 0 0 10 0 10 10 0 10 0 0 -10z m80 0 l0 -10 -10 0 -10 0 0 10 0 10 10 0 10
0 0 -10z m477 -16 l25 -25 -5 -6 -6 -5 -25 25 -26 26 0 6 0 5 5 0 6 0 26 -26z
m183 16 l0 -10 -10 0 -10 0 0 10 0 10 10 0 10 0 0 -10z m-920 -20 l0 -10 -10
0 -10 0 0 10 0 10 10 0 10 0 0 -10z m40 0 l0 -10 -10 0 -10 0 0 10 0 10 10 0
10 0 0 -10z m192 -12 l19 -22 9 14 9 14 7 -7 7 -7 -23 -20 -23 -20 23 -20 23
-20 -7 -7 -7 -7 -9 14 -9 14 -20 -23 -20 -23 -17 17 -17 17 13 8 14 8 -34 32
-33 31 7 7 7 6 9 -14 9 -15 18 22 18 23 4 0 4 0 19 -22z m168 13 l0 -9 -12 -6
-13 -6 13 -6 12 -6 0 -18 0 -18 -12 -5 -13 -4 7 -8 8 -8 19 22 20 23 26 -26
25 -25 0 -15 0 -14 -12 -5 -13 -4 8 -9 8 -8 10 14 9 15 9 -15 10 -14 8 7 7 8
-14 9 -14 9 6 6 6 7 76 -76 76 -76 0 -5 0 -5 -150 0 -150 0 0 79 0 79 13 5 12
5 -15 12 -15 12 13 5 12 5 0 18 0 18 -12 4 -12 4 14 17 15 16 8 1 7 0 0 -9z
m-320 -21 l0 -10 -10 0 -10 0 0 10 0 10 10 0 10 0 0 -10z m1100 -10 l0 -20
-10 0 -10 0 0 20 0 20 10 0 10 0 0 -20z m-1180 -10 l0 -10 -10 0 -10 0 0 10 0
10 10 0 10 0 0 -10z m47 -5 l15 -16 -22 -19 -22 -19 15 -16 16 -15 5 0 6 0 0
20 0 20 10 0 10 0 0 -45 0 -46 -36 -36 -36 -36 -8 14 -9 13 -21 -23 -20 -24
-7 6 -6 7 21 19 22 18 0 47 0 46 -9 0 -9 0 -5 -12 -4 -13 -9 8 -8 8 14 10 15
9 -15 9 -14 10 6 7 7 6 25 -25 26 -26 0 -46 0 -45 10 0 10 0 0 56 0 57 -22 18
-21 19 7 7 7 7 9 -13 8 -14 19 18 18 18 -13 5 -12 4 0 9 0 9 6 0 5 0 16 -15z
m-87 -15 l0 -10 -10 0 -10 0 0 10 0 10 10 0 10 0 0 -10z m1100 -9 l0 -19 -12
-4 -13 -5 17 -16 17 -17 5 0 6 0 0 20 0 20 10 0 10 0 0 -29 0 -29 12 -4 13 -5
-17 -16 -17 -17 -14 0 -15 0 -5 -12 -4 -13 -9 9 -9 9 13 4 12 5 0 19 0 19 -10
0 -10 0 0 19 0 19 -12 6 -13 6 13 6 12 6 0 19 0 19 10 0 10 0 0 -19z m80 9 l0
-10 20 0 20 0 0 -10 0 -10 -20 0 -20 0 0 -20 0 -20 9 0 9 0 5 13 4 12 8 -7 7
-7 -16 -16 -16 -16 -15 15 -15 15 0 14 0 15 13 6 12 6 -12 6 -13 6 0 9 0 9 10
0 10 0 0 -10z m-1020 -49 l0 -19 13 -6 12 -6 -12 -6 -13 -6 0 -19 0 -19 -10 0
-10 0 0 19 0 19 13 6 12 6 -12 6 -13 6 0 19 0 19 10 0 10 0 0 -19z m880 0 l0
-19 13 -5 12 -4 -7 -8 -7 -7 -16 15 -15 16 0 15 0 16 10 0 10 0 0 -19z"/>
<path d="M272 864 l-13 -14 15 -16 16 -15 16 15 15 16 -15 15 -15 15 -3 0 -3
-1 -13 -15z"/>
<path d="M280 790 l0 -10 10 0 10 0 0 10 0 10 -10 0 -10 0 0 -10z"/>
<path d="M500 814 l0 -5 15 -16 16 -15 6 5 5 6 -15 16 -16 15 -5 0 -6 0 0 -6z"/>
<path d="M471 764 l-13 -15 6 -6 5 -5 16 15 15 16 0 5 0 6 -7 0 -8 -1 -14 -15z"/>
<path d="M500 710 l0 -10 10 0 10 0 0 10 0 10 -10 0 -10 0 0 -10z"/>
<path d="M120 710 l0 -10 10 0 10 0 0 10 0 10 -10 0 -10 0 0 -10z"/>
<path d="M1160 730 l0 -10 10 0 10 0 0 10 0 10 -10 0 -10 0 0 -10z"/>
<path d="M1020 870 l0 -10 10 0 10 0 0 10 0 10 -10 0 -10 0 0 -10z"/>
<path d="M920 850 l0 -10 10 0 10 0 0 10 0 10 -10 0 -10 0 0 -10z"/>
<path d="M960 850 l0 -10 10 0 10 0 0 10 0 10 -10 0 -10 0 0 -10z"/>
<path d="M1000 830 l0 -10 10 0 10 0 0 10 0 10 -10 0 -10 0 0 -10z"/>
<path d="M840 790 l0 -10 10 0 10 0 0 10 0 10 -10 0 -10 0 0 -10z"/>
<path d="M920 780 l0 -20 10 0 10 0 0 20 0 20 -10 0 -10 0 0 -20z"/>
<path d="M1000 790 l0 -10 10 0 10 0 0 10 0 10 -10 0 -10 0 0 -10z"/>
<path d="M840 750 l0 -10 10 0 10 0 0 10 0 10 -10 0 -10 0 0 -10z"/>
<path d="M311 724 l-13 -15 6 -6 5 -5 16 15 15 16 0 5 0 6 -7 0 -8 -1 -14 -15z"/>
<path d="M972 724 l-13 -14 16 -16 16 -16 7 6 6 7 -14 10 -15 11 13 5 12 5 0
9 0 9 -7 0 -8 -1 -13 -15z"/>
<path d="M920 710 l0 -10 10 0 10 0 0 10 0 10 -10 0 -10 0 0 -10z"/>
<path d="M1031 704 l-13 -15 7 -7 6 -6 10 14 9 15 9 -15 10 -14 7 6 6 7 -15
16 -16 15 -3 0 -3 -1 -14 -15z"/>
<path d="M280 670 l0 -10 10 0 10 0 0 10 0 10 -10 0 -10 0 0 -10z"/>
<path d="M320 670 l0 -10 10 0 10 0 0 10 0 10 -10 0 -10 0 0 -10z"/>
<path d="M920 660 l0 -20 10 0 10 0 0 20 0 20 -10 0 -10 0 0 -20z"/>
<path d="M151 644 l-13 -15 6 -6 5 -5 16 15 15 16 0 5 0 6 -7 0 -8 -1 -14 -15z"/>
<path d="M200 650 l0 -10 10 0 10 0 0 10 0 10 -10 0 -10 0 0 -10z"/>
<path d="M1080 650 l0 -10 10 0 10 0 0 10 0 10 -10 0 -10 0 0 -10z"/>
<path d="M120 590 l0 -10 10 0 10 0 0 10 0 10 -10 0 -10 0 0 -10z"/>
<path d="M1080 590 l0 -10 10 0 10 0 0 10 0 10 -10 0 -10 0 0 -10z"/>
<path d="M1040 570 l0 -10 10 0 10 0 0 10 0 10 -10 0 -10 0 0 -10z"/>
<path d="M1000 550 l0 -10 10 0 10 0 0 10 0 10 -10 0 -10 0 0 -10z"/>
<path d="M940 530 l0 -10 -20 0 -20 0 0 -10 0 -10 -20 0 -20 0 0 -10 0 -10 20
0 20 0 0 10 0 10 20 0 20 0 0 10 0 10 20 0 20 0 0 10 0 10 -20 0 -20 0 0 -10z"/>
<path d="M1020 510 l0 -10 10 0 10 0 0 10 0 10 -10 0 -10 0 0 -10z"/>
<path d="M980 490 l0 -10 -16 0 -15 0 -16 -15 -15 -16 7 -7 8 -7 4 13 5 12 15
0 14 0 15 14 14 15 0 5 0 6 -10 0 -10 0 0 -10z"/>
<path d="M703 435 l-43 -45 0 -25 0 -25 -10 0 -10 0 0 -25 0 -26 35 -34 34
-35 81 0 81 0 34 35 35 34 0 16 0 15 -10 0 -10 0 0 35 0 36 -25 24 -24 25 -13
0 -14 0 -14 20 -14 20 -36 -1 -35 0 -42 -44z m127 5 l14 -20 14 0 13 0 15 -14
14 -15 0 -14 0 -15 -12 -5 -13 -4 23 -20 22 -20 0 -12 0 -12 -25 -25 -25 -25
-26 26 -25 25 15 16 16 15 17 -16 16 -17 -14 -8 -13 -9 6 -7 7 -6 17 16 16 17
-21 18 -21 18 0 17 0 16 -10 0 -10 0 0 10 0 10 20 0 20 0 0 10 0 10 -20 0 -20
0 0 -10 0 -10 -20 0 -20 0 0 10 0 10 20 0 20 0 0 10 0 10 -20 0 -20 0 0 10 0
10 -16 0 -15 0 -16 -15 -15 -16 7 -7 8 -7 4 13 5 12 19 0 19 0 0 -5 0 -6 -25
-25 -26 -26 -20 23 -19 22 -7 -6 -6 -7 21 -19 22 -18 0 -17 0 -16 15 0 16 0
34 -35 35 -34 0 -6 0 -5 -16 0 -16 0 -28 30 -28 30 -12 0 -11 0 -15 -14 -14
-15 0 -5 0 -6 19 0 19 0 4 12 5 13 16 -17 17 -17 0 -5 0 -6 -35 0 -36 0 -26
26 -26 26 14 9 14 9 -15 9 -14 10 24 21 24 21 -13 8 -14 9 34 35 34 36 35 0
36 1 14 -20z m-30 -70 l0 -10 20 0 20 0 0 -16 0 -15 -15 -15 -15 -15 -25 25
-26 26 13 15 13 14 8 1 7 0 0 -10z"/>
<path d="M680 330 l0 -10 20 0 20 0 0 10 0 10 -20 0 -20 0 0 -10z"/>
<path d="M680 290 l0 -10 10 0 10 0 0 10 0 10 -10 0 -10 0 0 -10z"/>
<path d="M780 354 l0 -5 15 -16 16 -15 6 5 5 6 -15 16 -16 15 -5 0 -6 0 0 -6z"/>
<path d="M1140 470 l0 -10 10 0 10 0 0 10 0 10 -10 0 -10 0 0 -10z"/>
<path d="M1040 450 l0 -10 10 0 10 0 0 10 0 10 -10 0 -10 0 0 -10z"/>
<path d="M1000 430 l0 -10 -16 0 -15 0 -16 -15 -15 -16 7 -7 8 -7 4 13 5 12
15 0 14 0 15 14 14 15 0 5 0 6 -10 0 -10 0 0 -10z"/>
<path d="M1100 430 l0 -10 10 0 10 0 0 10 0 10 -10 0 -10 0 0 -10z"/>
<path d="M1051 404 l-13 -15 6 -6 5 -5 16 15 15 16 0 5 0 6 -7 0 -8 -1 -14
-15z"/>
<path d="M981 354 l-23 -25 5 -6 6 -5 25 25 26 26 0 6 0 5 -7 -1 -8 0 -24 -25z"/>
</g>
</svg>
