<?xml version="1.0" standalone="no"?>
<!DOCTYPE svg PUBLIC "-//W3C//DTD SVG 20010904//EN"
 "http://www.w3.org/TR/2001/REC-SVG-20010904/DTD/svg10.dtd">
<svg version="1.0" xmlns="http://www.w3.org/2000/svg"
 width="468pt" height="468pt" viewBox="0 0 468 468"
 preserveAspectRatio="xMidYMid meet">
<metadata>
Created by potrace 1.8, written by Peter Selinger 2001-2007
</metadata>
<g transform="translate(0,468) scale(0.365625,-0.365625)"
fill="#000000" stroke="none">
<path d="M640 1235 l0 -45 -90 0 -90 0 0 -45 0 -45 -45 0 -45 0 0 -45 0 -45
-50 0 -50 0 0 -50 0 -50 -45 0 -45 0 0 -90 0 -90 -45 0 -45 0 0 -90 0 -90 -45
0 -45 0 0 -275 0 -275 45 0 45 0 0 275 0 275 45 0 45 0 0 90 0 90 45 0 45 0 0
90 0 90 50 0 50 0 0 50 0 50 45 0 45 0 0 45 0 45 90 0 90 0 0 45 0 45 135 0
135 0 0 -45 0 -45 -45 0 -45 0 0 -45 0 -45 -45 0 -45 0 0 -95 0 -95 -45 0 -45
0 0 -180 0 -180 45 0 45 0 0 -45 0 -45 45 0 45 0 0 -50 0 -50 45 0 45 0 0 -45
0 -45 50 0 50 0 0 -45 0 -45 -140 0 -140 0 0 -45 0 -45 140 0 140 0 0 45 0 45
45 0 45 0 0 45 0 45 -45 0 -45 0 0 45 0 45 -50 0 -50 0 0 50 0 50 -45 0 -45 0
0 45 0 45 -45 0 -45 0 0 180 0 180 45 0 45 0 0 95 0 95 45 0 45 0 0 45 0 45
50 0 50 0 0 45 0 45 45 0 45 0 0 45 0 45 -230 0 -230 0 0 -45z"/>
<path d="M370 505 l0 -45 45 0 45 0 0 45 0 45 -45 0 -45 0 0 -45z"/>
</g>
</svg>
