<?xml version="1.0" standalone="no"?>
<!DOCTYPE svg PUBLIC "-//W3C//DTD SVG 20010904//EN"
 "http://www.w3.org/TR/2001/REC-SVG-20010904/DTD/svg10.dtd">
<svg version="1.0" xmlns="http://www.w3.org/2000/svg"
 width="468pt" height="468pt" viewBox="0 0 468 468"
 preserveAspectRatio="xMidYMid meet">
<metadata>
Created by potrace 1.8, written by Peter Selinger 2001-2007
</metadata>
<g transform="translate(0,468) scale(0.365625,-0.365625)"
fill="#000000" stroke="none">
<path d="M460 1250 l0 -10 -50 0 -50 0 0 -10 0 -10 -30 0 -30 0 0 -10 0 -10
80 0 80 0 0 -10 0 -10 -40 0 -40 0 0 -10 0 -10 -40 0 -40 0 0 -10 0 -10 -20 0
-20 0 0 -10 0 -10 70 0 70 0 0 -80 0 -80 -76 0 -75 0 -15 -14 -14 -15 0 -41 0
-41 14 -15 15 -14 15 0 16 0 0 -10 0 -10 20 0 20 0 0 -10 0 -10 30 0 30 0 0
-6 0 -5 -60 -59 -60 -59 0 -15 0 -16 10 0 10 0 0 -18 0 -18 20 -14 20 -14 0
-18 0 -18 10 0 10 0 0 -30 0 -30 -10 0 -10 0 0 -18 0 -18 20 -14 20 -14 0 -28
0 -28 -10 0 -10 0 0 -20 0 -20 -10 0 -10 0 0 -20 0 -20 -10 0 -10 0 0 -16 0
-15 -14 -15 -15 -14 -135 0 -136 0 0 -100 0 -100 640 0 640 0 0 100 0 100 -86
0 -85 0 -15 14 -14 15 0 13 0 14 -20 14 -20 14 0 18 0 18 10 0 10 0 0 30 0 30
10 0 10 0 0 30 0 30 -40 0 -40 0 0 90 0 90 -10 0 -10 0 0 60 0 60 -10 0 -10 0
0 70 0 70 -10 0 -10 0 0 60 0 60 10 0 10 0 0 -10 0 -10 16 0 15 0 15 14 14 15
0 15 0 16 -10 0 -10 0 0 20 0 20 20 0 20 0 0 -10 0 -10 18 0 18 0 14 -20 14
-20 18 0 18 0 0 30 0 30 -10 0 -10 0 0 15 0 16 -35 34 -34 35 -23 0 -24 0 -14
-20 -14 -20 -8 0 -8 0 0 20 0 20 -10 0 -10 0 0 16 0 17 22 18 21 19 -6 7 -7 6
-20 -23 -20 -23 -19 21 -18 22 -22 0 -22 0 -16 -15 -15 -16 7 -7 8 -7 4 13 5
12 25 0 24 0 15 -14 14 -15 0 -25 0 -26 -10 0 -10 0 0 10 0 10 -20 0 -20 0 0
10 0 10 -40 0 -40 0 0 10 0 10 -30 0 -30 0 0 10 0 10 -50 0 -50 0 0 10 0 10
-80 0 -80 0 0 -10z m0 -139 l0 -9 -12 -4 -13 -5 17 -16 17 -17 15 0 16 0 0
-10 0 -10 -10 0 -10 0 0 -26 0 -25 -14 -15 -15 -14 -15 0 -16 0 0 49 0 49 13
6 12 6 -12 6 -13 6 0 19 0 19 20 0 20 0 0 -9z m107 -6 l15 -16 -21 -18 -21
-18 0 -32 0 -32 14 -15 15 -14 11 0 11 0 15 14 14 15 0 35 0 36 9 0 9 0 5 -12
4 -13 8 7 8 7 -32 30 -31 29 0 6 0 6 50 0 50 0 0 -10 0 -10 60 0 60 0 0 -10 0
-10 -10 0 -10 0 0 -20 0 -20 -10 0 -10 0 0 -20 0 -20 10 0 10 0 0 -16 0 -15
14 -15 15 -14 35 0 36 0 0 20 0 20 10 0 10 0 0 -50 0 -50 10 0 10 0 0 -70 0
-70 10 0 10 0 0 -70 0 -70 10 0 10 0 0 -80 0 -80 -60 0 -60 0 0 -10 0 -10 -40
0 -40 0 0 8 0 8 20 14 20 14 0 28 0 28 -10 0 -10 0 0 20 0 20 -10 0 -10 0 0
15 0 15 -115 115 -115 115 -15 0 -15 0 0 20 0 20 -8 0 -8 0 -14 -20 -14 -20
-18 0 -18 0 0 -10 0 -10 -60 0 -60 0 0 10 0 10 -20 0 -20 0 0 10 0 10 -20 0
-20 0 0 36 0 35 14 15 15 14 101 0 101 0 24 25 25 24 0 33 0 34 -20 14 -20 14
0 8 0 8 20 0 20 0 0 10 0 10 16 0 15 0 16 -15z m33 -55 l0 -10 -10 0 -10 0 0
-30 0 -30 -10 0 -10 0 0 40 0 40 20 0 20 0 0 -10z m-137 -262 l5 -13 11 15 10
14 8 -7 7 -8 -14 -10 -15 -9 15 -10 15 -10 -15 -10 -15 -10 14 -9 14 -9 -62
-61 -62 -61 66 -65 66 -66 15 16 16 15 -42 40 -42 41 6 7 7 6 10 -14 9 -15 10
15 10 15 9 -15 10 -14 21 24 21 24 9 -13 8 -14 27 27 26 26 -16 16 -16 16 -20
-23 -20 -23 -9 14 -9 14 -21 -24 -21 -24 -10 14 -9 15 -9 -15 -10 -14 -7 6 -6
7 52 51 53 52 -14 9 -14 9 15 10 15 10 -15 9 -14 10 6 6 6 7 107 -107 108
-107 -14 -9 -13 -8 24 -21 24 -21 -14 -10 -15 -9 14 -9 14 -9 -38 -37 -37 -38
-8 14 -9 13 -20 -23 -20 -23 -42 43 -41 42 -9 -14 -9 -14 -9 15 -10 14 -20
-23 -20 -23 -87 87 -87 87 14 9 13 8 -23 20 -23 20 74 75 73 74 7 1 6 1 5 -12z
m-37 -343 l15 -15 -26 -26 -26 -26 -7 6 -6 7 14 10 15 9 -14 9 -14 9 14 16 14
15 3 1 3 0 15 -15z m134 -34 l0 -9 -12 -5 -13 -5 15 -11 15 -11 -15 -10 -15
-10 15 -10 15 -10 -15 -10 -15 -10 15 -10 15 -10 -15 -10 -15 -10 15 -9 14
-10 -8 -8 -9 -8 -4 13 -5 12 -9 0 -9 0 0 -30 0 -30 -60 0 -60 0 0 10 0 10 -20
0 -20 0 0 -10 0 -10 -30 0 -30 0 0 10 0 10 10 0 10 0 0 16 0 15 14 15 15 14
21 0 21 0 16 15 15 16 -21 18 -21 18 0 7 0 6 18 0 18 0 14 -20 14 -20 18 0 18
0 0 9 0 9 -12 5 -13 5 15 11 15 11 -15 9 -14 10 6 7 7 6 17 -17 17 -17 -14 -9
-14 -9 15 -11 15 -11 -12 -5 -13 -5 0 -15 0 -14 15 -15 15 -15 17 16 16 17
-14 9 -14 9 15 10 15 10 -15 10 -15 10 15 10 15 10 -14 9 -14 9 14 16 14 15 8
1 7 0 0 -9z m347 -7 l16 -16 -14 -9 -14 -9 15 -9 14 -10 -6 -7 -7 -6 -17 17
-17 17 14 10 14 10 -12 5 -13 5 0 9 0 9 6 0 5 0 16 -16z m60 0 l16 -16 -14 -9
-14 -9 15 -9 14 -10 -6 -7 -7 -6 -17 17 -17 17 14 10 14 10 -12 5 -13 5 0 9 0
9 6 0 5 0 16 -16z m56 4 l5 -13 11 15 10 14 7 -7 7 -7 -24 -20 -23 -21 14 -9
14 -9 -6 -7 -7 -6 -17 17 -17 17 14 10 14 10 -12 5 -13 5 0 9 0 9 9 0 9 0 5
-12z m-417 -23 l15 -15 -16 -16 -16 -16 -7 6 -6 7 14 10 15 11 -12 5 -13 5 0
9 0 9 6 0 5 0 15 -15z m194 5 l0 -10 -10 0 -10 0 0 -10 0 -10 16 0 17 0 18 22
19 21 7 -7 7 -7 -14 -10 -15 -9 15 -9 14 -10 -7 -8 -8 -7 -9 13 -8 14 -16 -16
-16 -16 0 -5 0 -6 110 0 110 0 0 -20 0 -20 -9 0 -9 0 -4 12 -5 13 -17 -17 -17
-18 25 -25 25 -25 15 0 14 0 4 12 5 13 16 -17 17 -17 0 -5 0 -6 -40 0 -40 0 0
10 0 10 -50 0 -50 0 0 -10 0 -10 -60 0 -60 0 0 6 0 7 21 18 21 18 -15 16 -16
15 -21 0 -21 0 -27 -27 -26 -27 12 -4 12 -4 0 -9 0 -9 -56 0 -55 0 -15 14 -14
15 0 15 0 16 10 0 10 0 0 19 0 19 -12 5 -13 4 9 9 9 9 4 -12 5 -13 9 0 9 0 0
16 0 15 17 17 16 17 5 -13 4 -12 28 0 28 0 5 13 4 12 9 -9 9 -9 -12 -4 -13 -5
0 -9 0 -9 30 0 30 0 0 19 0 19 -12 4 -12 4 14 17 15 16 8 1 7 0 0 -10z m-100
-20 l0 -10 -10 0 -10 0 0 10 0 10 10 0 10 0 0 -10z m-140 -160 l0 -10 -10 0
-10 0 0 10 0 10 10 0 10 0 0 -10z"/>
<path d="M440 1020 l0 -40 10 0 10 0 0 40 0 40 -10 0 -10 0 0 -40z"/>
<path d="M540 934 l0 -5 14 -15 15 -14 41 0 41 0 16 15 15 16 -7 7 -8 7 -4
-12 -5 -13 -49 0 -49 0 0 10 0 10 -10 0 -10 0 0 -6z"/>
<path d="M800 874 l0 -6 30 -28 30 -28 0 -22 0 -22 -31 -29 -32 -30 6 -5 6 -6
35 36 36 35 0 21 0 21 -35 34 -34 35 -6 0 -5 0 0 -6z"/>
<path d="M382 714 l-64 -65 23 -20 23 -20 -13 -8 -14 -9 77 -77 78 -77 5 6 5
5 -71 70 -72 71 62 61 62 61 -14 9 -14 9 14 9 14 9 -16 16 -16 16 -3 -1 -3 -1
-63 -64z m78 37 l0 -9 -12 -5 -13 -5 14 -10 14 -10 -47 -46 -46 -47 -16 15
-15 15 53 55 53 55 8 0 7 1 0 -9z"/>
<path d="M392 684 l-34 -35 5 -6 6 -5 35 36 36 35 0 6 0 5 -7 -1 -8 0 -33 -35z"/>
<path d="M560 731 l0 -9 13 -5 12 -4 -44 -42 -43 -42 6 -6 6 -6 20 24 21 23 9
-14 9 -14 20 23 20 23 26 -26 26 -26 -37 -36 -36 -37 -8 14 -9 13 -21 -24 -21
-24 -9 14 -9 14 -7 -6 -7 -7 33 -31 34 -32 -14 -8 -14 -9 7 -8 8 -7 9 13 8 14
41 -42 42 -43 20 23 20 23 9 -13 8 -14 27 28 28 27 -14 9 -14 9 15 9 14 10
-24 21 -24 21 13 8 14 9 -87 86 -86 86 -5 0 -5 0 0 -9z m40 -37 l0 -5 -15 -16
-16 -15 -5 5 -6 6 13 15 14 15 8 1 7 0 0 -6z m97 -100 l26 -26 -14 -8 -13 -9
24 -21 24 -21 -14 -10 -15 -9 14 -9 14 -9 -17 -18 -18 -17 -8 14 -9 13 -20
-23 -20 -23 -56 56 -56 56 16 17 17 16 8 -13 8 -14 39 42 38 41 3 0 3 1 26
-26z"/>
<path d="M627 558 l-39 -42 -8 14 -9 14 -6 -6 -7 -7 47 -46 46 -47 20 23 20
23 9 -14 9 -14 8 7 7 8 -14 10 -15 9 15 9 14 10 -24 21 -24 21 13 9 14 8 -16
16 -16 16 -3 -1 -3 0 -38 -41z m53 13 l0 -9 -12 -5 -13 -4 23 -21 24 -21 -26
-26 -26 -26 -25 25 -26 26 33 34 33 35 8 0 7 1 0 -9z"/>
<path d="M632 524 l-13 -14 15 -16 16 -15 16 15 15 16 -15 15 -15 15 -3 0 -3
-1 -13 -15z m28 -14 l0 -10 -10 0 -10 0 0 10 0 10 10 0 10 0 0 -10z"/>
<path d="M400 430 l0 -10 10 0 10 0 0 10 0 10 -10 0 -10 0 0 -10z"/>
<path d="M971 1204 l-13 -15 7 -7 8 -7 4 13 5 12 19 0 19 0 0 10 0 10 -17 0
-18 -1 -14 -15z"/>
</g>
</svg>
