<?xml version="1.0" standalone="no"?>
<!DOCTYPE svg PUBLIC "-//W3C//DTD SVG 20010904//EN"
 "http://www.w3.org/TR/2001/REC-SVG-20010904/DTD/svg10.dtd">
<svg version="1.0" xmlns="http://www.w3.org/2000/svg"
 width="468pt" height="468pt" viewBox="0 0 468 468"
 preserveAspectRatio="xMidYMid meet">
<metadata>
Created by potrace 1.8, written by Peter Selinger 2001-2007
</metadata>
<g transform="translate(0,468) scale(0.365625,-0.365625)"
fill="#000000" stroke="none">
<path d="M770 1265 l0 -15 -15 0 -15 0 0 -30 0 -30 -15 0 -15 0 0 -15 0 -15
15 0 15 0 0 -15 0 -15 15 0 15 0 0 60 0 60 15 0 15 0 0 -15 0 -15 15 0 15 0 0
-30 0 -30 30 0 30 0 0 30 0 30 -30 0 -30 0 0 15 0 15 -15 0 -15 0 0 15 0 15
-15 0 -15 0 0 -15z"/>
<path d="M890 1250 l0 -30 15 0 15 0 0 -105 0 -105 15 0 15 0 0 -75 0 -75 15
0 15 0 0 -45 0 -45 15 0 15 0 0 -15 0 -15 30 0 30 0 0 -15 0 -15 -60 0 -60 0
0 -15 0 -15 -15 0 -15 0 0 -15 0 -15 -15 0 -15 0 0 -10 0 -10 -15 0 -15 0 0
-15 0 -15 -15 0 -15 0 0 15 0 15 -30 0 -30 0 0 10 0 10 -45 0 -45 0 0 -10 0
-10 -25 0 -25 0 0 -15 0 -15 -30 0 -30 0 0 -15 0 -15 -15 0 -15 0 0 -30 0 -30
-15 0 -15 0 0 -15 0 -15 -15 0 -15 0 0 -45 0 -45 15 0 15 0 0 -30 0 -30 15 0
15 0 0 -15 0 -15 15 0 15 0 0 -15 0 -15 15 0 15 0 0 -15 0 -15 85 0 85 0 0 15
0 15 30 0 30 0 0 15 0 15 15 0 15 0 0 30 0 30 15 0 15 0 0 15 0 15 15 0 15 0
0 15 0 15 75 0 75 0 0 15 0 15 45 0 45 0 0 -15 0 -15 15 0 15 0 0 -60 0 -60
-15 0 -15 0 0 -15 0 -15 -15 0 -15 0 0 -15 0 -15 -75 0 -75 0 0 -15 0 -15 75
0 75 0 0 15 0 15 15 0 15 0 0 -45 0 -45 15 0 15 0 0 -30 0 -30 15 0 15 0 0
-15 0 -15 15 0 15 0 0 -15 0 -15 -30 0 -30 0 0 -15 0 -15 30 0 30 0 0 15 0 15
15 0 15 0 0 15 0 15 -15 0 -15 0 0 15 0 15 -15 0 -15 0 0 30 0 30 -15 0 -15 0
0 45 0 45 -15 0 -15 0 0 15 0 15 15 0 15 0 0 15 0 15 15 0 15 0 0 60 0 60 -15
0 -15 0 0 15 0 15 -15 0 -15 0 0 30 0 30 15 0 15 0 0 60 0 60 -15 0 -15 0 0
10 0 10 -15 0 -15 0 0 15 0 15 -15 0 -15 0 0 30 0 30 -15 0 -15 0 0 15 0 15
-30 0 -30 0 0 45 0 45 -15 0 -15 0 0 75 0 75 -15 0 -15 0 0 135 0 135 -30 0
-30 0 0 -30z m210 -585 l0 -15 15 0 15 0 0 -10 0 -10 15 0 15 0 0 -60 0 -60
-15 0 -15 0 0 -15 0 -15 -30 0 -30 0 0 -15 0 -15 -75 0 -75 0 0 45 0 45 -15 0
-15 0 0 15 0 15 -15 0 -15 0 0 15 0 15 15 0 15 0 0 15 0 15 15 0 15 0 0 10 0
10 15 0 15 0 0 15 0 15 75 0 75 0 0 -15z m-330 -50 l0 -15 30 0 30 0 0 -15 0
-15 15 0 15 0 0 -15 0 -15 15 0 15 0 0 -75 0 -75 -15 0 -15 0 0 -15 0 -15 -15
0 -15 0 0 -30 0 -30 -30 0 -30 0 0 -15 0 -15 -85 0 -85 0 0 15 0 15 -15 0 -15
0 0 15 0 15 -15 0 -15 0 0 30 0 30 -15 0 -15 0 0 45 0 45 15 0 15 0 0 15 0 15
15 0 15 0 0 30 0 30 30 0 30 0 0 15 0 15 25 0 25 0 0 15 0 15 45 0 45 0 0 -15z"/>
<path d="M1010 540 l0 -30 30 0 30 0 0 30 0 30 -30 0 -30 0 0 -30z"/>
<path d="M650 420 l0 -30 30 0 30 0 0 30 0 30 -30 0 -30 0 0 -30z"/>
<path d="M650 1205 l0 -45 -25 0 -25 0 0 15 0 15 -30 0 -30 0 0 -45 0 -45 -15
0 -15 0 0 15 0 15 -15 0 -15 0 0 15 0 15 -30 0 -30 0 0 -45 0 -45 -15 0 -15 0
0 15 0 15 -15 0 -15 0 0 15 0 15 -30 0 -30 0 0 -30 0 -30 -30 0 -30 0 0 15 0
15 -15 0 -15 0 0 -45 0 -45 -15 0 -15 0 0 -15 0 -15 15 0 15 0 0 -15 0 -15 30
0 30 0 0 15 0 15 -15 0 -15 0 0 30 0 30 30 0 30 0 0 -15 0 -15 15 0 15 0 0
-15 0 -15 15 0 15 0 0 30 0 30 -15 0 -15 0 0 30 0 30 15 0 15 0 0 -15 0 -15
15 0 15 0 0 -15 0 -15 15 0 15 0 0 -15 0 -15 15 0 15 0 0 60 0 60 15 0 15 0 0
-15 0 -15 15 0 15 0 0 -15 0 -15 15 0 15 0 0 -15 0 -15 15 0 15 0 0 60 0 60
15 0 15 0 0 -30 0 -30 15 0 15 0 0 -15 0 -15 10 0 10 0 0 45 0 45 15 0 15 0 0
15 0 15 15 0 15 0 0 30 0 30 -30 0 -30 0 0 -45z"/>
<path d="M120 980 l0 -60 -15 0 -15 0 0 15 0 15 -45 0 -45 0 0 -30 0 -30 15 0
15 0 0 -15 0 -15 15 0 15 0 0 -30 0 -30 15 0 15 0 0 -30 0 -30 15 0 15 0 0
-30 0 -30 15 0 15 0 0 -25 0 -25 15 0 15 0 0 -45 0 -45 15 0 15 0 0 -30 0 -30
15 0 15 0 0 -30 0 -30 15 0 15 0 0 -45 0 -45 15 0 15 0 0 -45 0 -45 15 0 15 0
0 -30 0 -30 15 0 15 0 0 -15 0 -15 -15 0 -15 0 0 -15 0 -15 -15 0 -15 0 0 -30
0 -30 -15 0 -15 0 0 -30 0 -30 15 0 15 0 0 30 0 30 15 0 15 0 0 -30 0 -30 15
0 15 0 0 30 0 30 15 0 15 0 0 -30 0 -30 30 0 30 0 0 15 0 15 -15 0 -15 0 0 15
0 15 15 0 15 0 0 15 0 15 -45 0 -45 0 0 -15 0 -15 -15 0 -15 0 0 30 0 30 15 0
15 0 0 15 0 15 30 0 30 0 0 -15 0 -15 15 0 15 0 0 15 0 15 -15 0 -15 0 0 15 0
15 -30 0 -30 0 0 30 0 30 -15 0 -15 0 0 45 0 45 -15 0 -15 0 0 45 0 45 -15 0
-15 0 0 30 0 30 -15 0 -15 0 0 30 0 30 -15 0 -15 0 0 45 0 45 -15 0 -15 0 0
25 0 25 -15 0 -15 0 0 30 0 30 -15 0 -15 0 0 30 0 30 -15 0 -15 0 0 30 0 30
-15 0 -15 0 0 15 0 15 -15 0 -15 0 0 15 0 15 30 0 30 0 0 -15 0 -15 45 0 45 0
0 15 0 15 -15 0 -15 0 0 45 0 45 15 0 15 0 0 15 0 15 -30 0 -30 0 0 -60z"/>
<path d="M650 15 l0 -15 15 0 15 0 0 15 0 15 -15 0 -15 0 0 -15z"/>
</g>
</svg>
