<?xml version="1.0" standalone="no"?>
<!DOCTYPE svg PUBLIC "-//W3C//DTD SVG 20010904//EN"
 "http://www.w3.org/TR/2001/REC-SVG-20010904/DTD/svg10.dtd">
<svg version="1.0" xmlns="http://www.w3.org/2000/svg"
 width="468pt" height="468pt" viewBox="0 0 468 468"
 preserveAspectRatio="xMidYMid meet">
<metadata>
Created by potrace 1.8, written by Peter Selinger 2001-2007
</metadata>
<g transform="translate(0,468) scale(0.365625,-0.365625)"
fill="#000000" stroke="none">
<path d="M560 1210 l0 -10 -40 0 -40 0 0 -10 0 -10 -15 0 -15 0 -75 -75 -75
-75 0 -15 0 -15 10 0 10 0 0 15 0 15 65 65 65 65 15 0 15 0 0 10 0 10 40 0 40
0 0 10 0 10 120 0 120 0 0 -10 0 -10 40 0 40 0 0 -10 0 -10 30 0 30 0 0 -10 0
-10 16 0 16 0 28 -30 28 -30 11 0 12 0 24 -25 25 -24 0 -16 0 -15 10 0 10 0 0
-70 0 -70 -10 0 -10 0 0 -18 0 -18 -20 -14 -20 -14 0 -13 0 -13 -95 -95 -95
-95 -14 0 -14 0 -6 -12 -6 -13 -6 13 -6 12 -15 0 -15 0 -38 40 -38 40 -12 0
-11 0 -69 70 -69 70 -11 0 -12 0 -38 40 -38 40 -14 0 -14 0 -14 20 -14 20 -14
0 -14 0 -28 30 -28 30 -12 0 -11 0 -59 60 -59 60 -11 0 -12 0 -28 30 -28 30
-16 0 -16 0 0 -15 0 -16 101 -100 101 -100 -21 -18 -21 -18 0 -17 0 -16 -10 0
-10 0 0 -20 0 -20 -10 0 -10 0 0 -40 0 -40 10 0 10 0 0 -19 0 -19 13 -6 12 -6
-12 -6 -13 -6 0 -15 0 -14 -14 -15 -15 -14 -11 0 -11 0 -44 -45 -45 -44 0 -46
0 -45 10 0 10 0 0 -16 0 -15 14 -15 15 -14 15 0 16 0 0 -10 0 -10 20 0 20 0 0
-10 0 -10 140 0 140 0 0 10 0 10 50 0 50 0 0 10 0 10 40 0 40 0 0 10 0 10 38
0 38 0 14 20 14 20 17 0 17 0 4 12 4 12 37 -37 37 -36 0 -11 0 -11 35 -34 34
-35 16 0 15 0 0 -10 0 -10 20 0 20 0 0 -10 0 -10 70 0 70 0 0 10 0 10 30 0 30
0 0 10 0 10 30 0 30 0 0 10 0 10 -20 0 -20 0 0 10 0 10 -30 0 -30 0 0 16 0 16
-30 28 -30 28 0 16 0 16 -18 0 -18 0 -14 20 -14 20 -18 0 -18 0 0 10 0 10 -66
0 -65 0 -16 15 -15 16 7 7 8 7 4 -12 5 -13 14 0 14 0 75 75 75 75 0 11 0 11
30 28 30 28 0 16 0 16 10 0 10 0 0 20 0 20 10 0 10 0 0 80 0 80 -10 0 -10 0 0
15 0 16 -35 34 -34 35 -12 0 -11 0 -28 30 -28 30 -16 0 -16 0 0 10 0 10 -30 0
-30 0 0 10 0 10 -40 0 -40 0 0 10 0 10 -120 0 -120 0 0 -10z m-230 -330 l38
-40 12 0 11 0 69 -70 69 -70 11 0 10 0 116 -116 116 -116 -7 -6 -8 -7 -4 13
-5 12 -19 0 -19 0 0 -10 0 -10 -20 0 -20 0 0 -10 0 -10 -40 0 -40 0 0 -10 0
-10 -50 0 -50 0 0 -10 0 -10 -60 0 -60 0 0 -10 0 -10 -80 0 -80 0 0 10 0 10
-30 0 -30 0 0 10 0 10 -15 0 -16 0 -24 25 -25 24 0 26 0 25 10 0 10 0 0 15 0
16 25 24 24 25 11 0 11 0 34 35 35 34 0 36 0 35 -10 0 -10 0 0 20 0 20 -10 0
-10 0 0 20 0 20 10 0 10 0 0 20 0 20 10 0 10 0 0 15 0 16 13 14 12 14 13 1 14
0 38 -40z m340 -220 l14 -20 14 0 14 0 38 -40 38 -40 12 0 12 0 28 -30 28 -30
16 0 16 0 0 -26 0 -25 -14 -15 -15 -14 -10 0 -11 0 -125 125 -125 125 0 5 0 5
28 0 28 0 14 -20z m270 -170 l0 -10 -10 0 -10 0 0 10 0 10 10 0 10 0 0 -10z
m40 -6 l0 -15 14 -15 15 -14 15 0 16 0 0 9 0 9 -12 5 -13 4 7 8 7 7 25 -25 26
-26 0 -16 0 -15 20 0 20 0 0 -6 0 -5 -14 -15 -15 -14 -5 0 -6 0 0 20 0 20 -10
0 -10 0 0 20 0 20 -10 0 -10 0 0 -26 0 -26 30 -28 30 -28 0 -6 0 -6 -20 0 -20
0 0 16 0 15 -14 15 -15 14 -14 0 -15 0 -5 13 -5 12 -11 -15 -10 -14 -8 7 -7 8
14 10 15 9 -15 10 -15 10 15 11 15 11 -12 5 -13 5 0 19 0 19 10 0 10 0 0 -16z
m-40 -114 l0 -10 19 0 19 0 5 -12 5 -13 10 14 10 15 30 -32 30 -32 16 0 16 0
0 10 0 10 20 0 20 0 0 10 0 10 -20 0 -20 0 0 10 0 10 18 0 18 0 14 -20 14 -20
18 0 18 0 0 -10 0 -10 -20 0 -20 0 0 10 0 10 -10 0 -10 0 0 -20 0 -20 -9 0 -9
0 -6 13 -6 12 -6 -12 -6 -13 -19 0 -19 0 0 10 0 10 -28 0 -28 0 -14 20 -14 20
-14 0 -13 0 -15 14 -14 15 0 5 0 6 10 0 10 0 0 -10z"/>
<path d="M302 774 l-23 -24 26 -26 26 -26 20 23 19 22 8 -8 7 -8 -12 -4 -13
-5 0 -9 0 -9 30 0 30 0 0 25 0 26 -25 24 -24 25 -23 -1 -23 0 -23 -25z m38
-24 l0 -10 -10 0 -10 0 0 10 0 10 10 0 10 0 0 -10z"/>
<path d="M320 610 l0 -10 -20 0 -20 0 0 -10 0 -10 -20 0 -20 0 0 -10 0 -10
-20 0 -20 0 0 -20 0 -20 20 0 20 0 0 -10 0 -10 60 0 60 0 0 10 0 10 16 0 15 0
15 14 14 15 0 15 0 16 -18 0 -18 0 -14 20 -14 20 -18 0 -18 0 0 -10z"/>
<path d="M533 545 l-33 -34 0 -6 0 -5 20 0 20 0 0 -10 0 -10 50 0 50 0 0 9 0
9 -12 5 -13 4 9 9 9 9 4 -12 5 -13 19 0 19 0 0 10 0 10 -10 0 -10 0 0 20 0 20
-30 0 -30 0 0 10 0 10 -17 -1 -18 0 -32 -34z m47 -5 l0 -20 -10 0 -10 0 0 20
0 20 10 0 10 0 0 -20z"/>
<path d="M980 434 l0 -5 15 -16 16 -15 6 5 5 6 -15 16 -16 15 -5 0 -6 0 0 -6z"/>
<path d="M1000 330 l0 -10 10 0 10 0 0 10 0 10 -10 0 -10 0 0 -10z"/>
<path d="M530 1140 l-14 -20 -18 0 -18 0 0 -16 0 -15 14 -15 15 -14 45 0 46 0
0 10 0 10 16 0 15 0 15 14 14 15 0 11 0 11 -14 15 -15 14 -43 0 -44 0 -14 -20z"/>
<path d="M780 1130 l0 -10 -20 0 -20 0 0 -6 0 -5 14 -15 15 -14 15 0 16 0 0
-10 0 -10 35 0 36 0 24 25 25 24 0 6 0 5 -20 0 -20 0 0 10 0 10 -50 0 -50 0 0
-10z"/>
<path d="M940 1030 l0 -10 -30 0 -30 0 0 -10 0 -10 -20 0 -20 0 0 -10 0 -10
10 0 10 0 0 -16 0 -15 15 -15 15 -15 15 15 15 15 0 5 0 6 -20 0 -20 0 0 10 0
10 16 0 15 0 17 -17 17 -16 -13 -5 -12 -4 0 -9 0 -9 30 0 30 0 0 9 0 9 -12 5
-13 4 9 9 9 9 4 -12 5 -13 25 0 24 0 15 14 14 15 0 15 0 16 -18 0 -18 0 -14
20 -14 20 -8 0 -8 0 0 -16 0 -17 22 -18 21 -19 -6 -7 -7 -6 -20 24 -21 23 -9
-14 -9 -14 -8 8 -8 9 13 4 12 5 0 19 0 19 -10 0 -10 0 0 -10z"/>
<path d="M393 985 l-13 -14 0 -16 0 -15 20 0 20 0 0 -10 0 -10 36 0 35 0 15
14 14 15 0 15 0 16 -20 0 -20 0 0 10 0 10 -37 0 -38 -1 -12 -14z"/>
<path d="M880 844 l0 -15 15 -16 16 -15 19 23 20 22 8 -8 7 -8 -12 -4 -13 -5
0 -9 0 -9 36 0 35 0 15 14 14 15 0 5 0 6 -20 0 -20 0 0 10 0 10 -39 0 -39 0
-6 -12 -6 -13 -6 13 -6 12 -9 0 -9 0 0 -16z"/>
<path d="M800 750 l0 -10 -20 0 -20 0 0 -25 0 -26 25 -24 24 -25 41 0 41 0 35
35 35 35 -15 15 -15 15 -35 0 -36 0 0 10 0 10 -30 0 -30 0 0 -10z m40 -20 l0
-10 -10 0 -10 0 0 10 0 10 10 0 10 0 0 -10z m-28 -32 l19 -22 9 13 8 14 17
-17 17 -17 -6 -7 -7 -6 -10 14 -9 15 -9 -14 -9 -14 -26 26 -26 26 0 6 0 5 6 0
7 0 19 -22z m88 12 l0 -10 -10 0 -10 0 0 10 0 10 10 0 10 0 0 -10z"/>
<path d="M0 100 l0 -100 640 0 640 0 0 100 0 100 -640 0 -640 0 0 -100z"/>
</g>
</svg>
