<?xml version="1.0" standalone="no"?>
<!DOCTYPE svg PUBLIC "-//W3C//DTD SVG 20010904//EN"
 "http://www.w3.org/TR/2001/REC-SVG-20010904/DTD/svg10.dtd">
<svg version="1.0" xmlns="http://www.w3.org/2000/svg"
 width="468pt" height="468pt" viewBox="0 0 468 468"
 preserveAspectRatio="xMidYMid meet">
<metadata>
Created by potrace 1.8, written by Peter Selinger 2001-2007
</metadata>
<g transform="translate(0,468) scale(0.365625,-0.365625)"
fill="#000000" stroke="none">
<path d="M240 1265 l0 -15 -15 0 -15 0 0 -15 0 -15 -15 0 -15 0 0 -15 0 -15
-15 0 -15 0 0 -15 0 -15 -15 0 -15 0 0 -15 0 -15 -15 0 -15 0 0 -15 0 -15 -15
0 -15 0 0 -15 0 -15 -15 0 -15 0 0 -15 0 -15 -15 0 -15 0 0 -165 0 -165 15 0
15 0 0 -15 0 -15 30 0 30 0 0 -15 0 -15 30 0 30 0 0 -70 0 -70 15 0 15 0 0
-45 0 -45 15 0 15 0 0 -15 0 -15 15 0 15 0 0 -15 0 -15 15 0 15 0 0 -15 0 -15
45 0 45 0 0 -15 0 -15 15 0 15 0 0 -15 0 -15 30 0 30 0 0 15 0 15 -15 0 -15 0
0 15 0 15 -15 0 -15 0 0 15 0 15 -30 0 -30 0 0 15 0 15 -15 0 -15 0 0 15 0 15
-45 0 -45 0 0 45 0 45 -15 0 -15 0 0 70 0 70 -15 0 -15 0 0 15 0 15 -15 0 -15
0 0 15 0 15 -30 0 -30 0 0 15 0 15 -15 0 -15 0 0 120 0 120 105 0 105 0 0 15
0 15 15 0 15 0 0 120 0 120 475 0 475 0 0 -445 0 -445 -30 0 -30 0 0 -15 0
-15 -45 0 -45 0 0 -15 0 -15 -105 0 -105 0 0 15 0 15 -30 0 -30 0 0 15 0 15
-45 0 -45 0 0 -15 0 -15 -30 0 -30 0 0 -15 0 -15 -25 0 -25 0 0 -15 0 -15 -75
0 -75 0 0 -15 0 -15 -225 0 -225 0 0 -120 0 -120 640 0 640 0 0 120 0 120 -90
0 -90 0 0 15 0 15 45 0 45 0 0 15 0 15 45 0 45 0 0 460 0 460 -15 0 -15 0 0
30 0 30 -505 0 -505 0 0 -15z m0 -135 l0 -90 -90 0 -90 0 0 15 0 15 15 0 15 0
0 15 0 15 15 0 15 0 0 15 0 15 15 0 15 0 0 15 0 15 15 0 15 0 0 15 0 15 15 0
15 0 0 15 0 15 15 0 15 0 0 -90z m560 -845 l0 -15 45 0 45 0 0 -15 0 -15 -105
0 -105 0 0 15 0 15 15 0 15 0 0 15 0 15 45 0 45 0 0 -15z"/>
<path d="M680 1205 l0 -15 -15 0 -15 0 0 -60 0 -60 -10 0 -10 0 0 -15 0 -15
-15 0 -15 0 0 -15 0 -15 15 0 15 0 0 15 0 15 10 0 10 0 0 15 0 15 60 0 60 0 0
15 0 15 15 0 15 0 0 45 0 45 -15 0 -15 0 0 15 0 15 -45 0 -45 0 0 -15z m90
-30 l0 -15 -15 0 -15 0 0 15 0 15 15 0 15 0 0 -15z"/>
</g>
</svg>
