<?xml version="1.0" standalone="no"?>
<!DOCTYPE svg PUBLIC "-//W3C//DTD SVG 20010904//EN"
 "http://www.w3.org/TR/2001/REC-SVG-20010904/DTD/svg10.dtd">
<svg version="1.0" xmlns="http://www.w3.org/2000/svg"
 width="468pt" height="468pt" viewBox="0 0 468 468"
 preserveAspectRatio="xMidYMid meet">
<metadata>
Created by potrace 1.8, written by Peter Selinger 2001-2007
</metadata>
<g transform="translate(0,468) scale(0.365625,-0.365625)"
fill="#000000" stroke="none">
<path d="M0 640 l0 -640 15 0 15 0 0 625 0 625 610 0 610 0 0 -625 0 -625 15
0 15 0 0 640 0 640 -640 0 -640 0 0 -640z"/>
<path d="M130 1165 l0 -15 -15 0 -15 0 0 -45 0 -45 15 0 15 0 0 -20 0 -20 45
0 45 0 0 -30 0 -30 -45 0 -45 0 0 15 0 15 -15 0 -15 0 0 -15 0 -15 15 0 15 0
0 -15 0 -15 45 0 45 0 0 15 0 15 20 0 20 0 0 95 0 95 -20 0 -20 0 0 15 0 15
-45 0 -45 0 0 -15z m90 -60 l0 -45 -45 0 -45 0 0 45 0 45 45 0 45 0 0 -45z"/>
<path d="M420 880 l0 -20 -20 0 -20 0 0 -15 0 -15 -15 0 -15 0 0 -15 0 -15
-15 0 -15 0 0 -15 0 -15 15 0 15 0 0 -15 0 -15 15 0 15 0 0 15 0 15 20 0 20 0
0 -35 0 -35 -20 0 -20 0 0 -15 0 -15 50 0 50 0 0 15 0 15 -15 0 -15 0 0 35 0
35 15 0 15 0 0 -15 0 -15 15 0 15 0 0 15 0 15 15 0 15 0 0 15 0 15 -15 0 -15
0 0 15 0 15 -15 0 -15 0 0 -15 0 -15 -15 0 -15 0 0 15 0 15 15 0 15 0 0 15 0
15 -15 0 -15 0 0 20 0 20 -15 0 -15 0 0 -20z m0 -65 l0 -15 -20 0 -20 0 0 15
0 15 20 0 20 0 0 -15z"/>
<path d="M860 880 l0 -20 -15 0 -15 0 0 -15 0 -15 15 0 15 0 0 -15 0 -15 -15
0 -15 0 0 15 0 15 -15 0 -15 0 0 -15 0 -15 -15 0 -15 0 0 -15 0 -15 15 0 15 0
0 -15 0 -15 15 0 15 0 0 15 0 15 15 0 15 0 0 -35 0 -35 -15 0 -15 0 0 -15 0
-15 50 0 50 0 0 15 0 15 -15 0 -15 0 0 35 0 35 15 0 15 0 0 -15 0 -15 15 0 15
0 0 15 0 15 15 0 15 0 0 15 0 15 -15 0 -15 0 0 15 0 15 -15 0 -15 0 0 -15 0
-15 -15 0 -15 0 0 15 0 15 15 0 15 0 0 15 0 15 -15 0 -15 0 0 20 0 20 -20 0
-20 0 0 -20z"/>
<path d="M420 560 l0 -20 -20 0 -20 0 0 -15 0 -15 -15 0 -15 0 0 -15 0 -15
-15 0 -15 0 0 -15 0 -15 15 0 15 0 0 -15 0 -15 15 0 15 0 0 15 0 15 20 0 20 0
0 -35 0 -35 -20 0 -20 0 0 -15 0 -15 50 0 50 0 0 15 0 15 -15 0 -15 0 0 35 0
35 15 0 15 0 0 -15 0 -15 15 0 15 0 0 15 0 15 15 0 15 0 0 15 0 15 -15 0 -15
0 0 15 0 15 -15 0 -15 0 0 -15 0 -15 -15 0 -15 0 0 15 0 15 15 0 15 0 0 15 0
15 -15 0 -15 0 0 20 0 20 -15 0 -15 0 0 -20z m0 -65 l0 -15 -20 0 -20 0 0 15
0 15 20 0 20 0 0 -15z"/>
<path d="M860 560 l0 -20 -15 0 -15 0 0 -15 0 -15 15 0 15 0 0 -15 0 -15 -15
0 -15 0 0 15 0 15 -15 0 -15 0 0 -15 0 -15 -15 0 -15 0 0 -15 0 -15 15 0 15 0
0 -15 0 -15 15 0 15 0 0 15 0 15 15 0 15 0 0 -35 0 -35 -15 0 -15 0 0 -15 0
-15 50 0 50 0 0 15 0 15 -15 0 -15 0 0 35 0 35 15 0 15 0 0 -15 0 -15 15 0 15
0 0 15 0 15 15 0 15 0 0 15 0 15 -15 0 -15 0 0 15 0 15 -15 0 -15 0 0 -15 0
-15 -15 0 -15 0 0 15 0 15 15 0 15 0 0 15 0 15 -15 0 -15 0 0 20 0 20 -20 0
-20 0 0 -20z"/>
<path d="M640 400 l0 -20 -15 0 -15 0 0 -15 0 -15 15 0 15 0 0 -15 0 -15 -15
0 -15 0 0 15 0 15 -15 0 -15 0 0 -15 0 -15 -20 0 -20 0 0 -15 0 -15 20 0 20 0
0 -15 0 -15 15 0 15 0 0 15 0 15 15 0 15 0 0 -35 0 -35 -15 0 -15 0 0 -15 0
-15 45 0 45 0 0 15 0 15 -15 0 -15 0 0 35 0 35 15 0 15 0 0 -15 0 -15 20 0 20
0 0 15 0 15 15 0 15 0 0 15 0 15 -15 0 -15 0 0 15 0 15 -20 0 -20 0 0 -15 0
-15 -15 0 -15 0 0 15 0 15 15 0 15 0 0 15 0 15 -15 0 -15 0 0 20 0 20 -15 0
-15 0 0 -20z"/>
<path d="M420 240 l0 -20 -20 0 -20 0 0 -15 0 -15 -15 0 -15 0 0 -15 0 -15
-15 0 -15 0 0 -15 0 -15 15 0 15 0 0 -15 0 -15 15 0 15 0 0 15 0 15 20 0 20 0
0 -35 0 -35 -20 0 -20 0 0 -15 0 -15 50 0 50 0 0 15 0 15 -15 0 -15 0 0 35 0
35 15 0 15 0 0 -15 0 -15 15 0 15 0 0 15 0 15 15 0 15 0 0 15 0 15 -15 0 -15
0 0 15 0 15 -15 0 -15 0 0 -15 0 -15 -15 0 -15 0 0 15 0 15 15 0 15 0 0 15 0
15 -15 0 -15 0 0 20 0 20 -15 0 -15 0 0 -20z m0 -65 l0 -15 -20 0 -20 0 0 15
0 15 20 0 20 0 0 -15z"/>
<path d="M860 240 l0 -20 -15 0 -15 0 0 -15 0 -15 15 0 15 0 0 -15 0 -15 -15
0 -15 0 0 15 0 15 -15 0 -15 0 0 -15 0 -15 -15 0 -15 0 0 -15 0 -15 15 0 15 0
0 -15 0 -15 15 0 15 0 0 15 0 15 15 0 15 0 0 -35 0 -35 -15 0 -15 0 0 -15 0
-15 50 0 50 0 0 15 0 15 -15 0 -15 0 0 35 0 35 15 0 15 0 0 -15 0 -15 15 0 15
0 0 15 0 15 15 0 15 0 0 15 0 15 -15 0 -15 0 0 15 0 15 -15 0 -15 0 0 -15 0
-15 -15 0 -15 0 0 15 0 15 15 0 15 0 0 15 0 15 -15 0 -15 0 0 20 0 20 -20 0
-20 0 0 -20z"/>
</g>
</svg>
