<?xml version="1.0" standalone="no"?>
<!DOCTYPE svg PUBLIC "-//W3C//DTD SVG 20010904//EN"
 "http://www.w3.org/TR/2001/REC-SVG-20010904/DTD/svg10.dtd">
<svg version="1.0" xmlns="http://www.w3.org/2000/svg"
 width="468pt" height="468pt" viewBox="0 0 468 468"
 preserveAspectRatio="xMidYMid meet">
<metadata>
Created by potrace 1.8, written by Peter Selinger 2001-2007
</metadata>
<g transform="translate(0,468) scale(0.365625,-0.365625)"
fill="#000000" stroke="none">
<path d="M296 1247 l-36 -34 0 -12 0 -12 15 -15 15 -15 0 -12 0 -12 -29 -13
-29 -13 -7 -26 -6 -25 -12 -13 -12 -12 -45 -6 -45 -6 -3 -10 -4 -11 -13 0 -13
0 -6 -25 -6 -25 -10 0 -10 0 0 -60 0 -60 10 0 10 0 0 -13 0 -13 18 -15 18 -15
17 -7 17 -6 0 -11 0 -10 14 0 14 0 5 -20 5 -20 -19 0 -19 0 0 -9 0 -10 -45 -7
-45 -6 0 -9 0 -9 -14 0 -15 0 -5 -9 -6 -8 48 10 47 10 5 7 5 7 50 6 50 6 -15
-6 -15 -6 -5 -6 -5 -7 -43 -13 -43 -12 -20 -20 -21 -21 7 -6 6 -6 7 11 7 11
28 7 27 7 0 8 0 8 51 12 51 12 61 -7 62 -7 18 -19 18 -19 14 0 15 0 0 -10 0
-10 110 0 110 0 0 9 0 9 100 7 100 7 0 9 0 9 51 0 50 0 -6 -21 -7 -21 -19 -19
-19 -19 -419 0 -419 0 -5 13 -5 12 -1 -12 -1 -13 -15 0 -15 0 0 -275 0 -275
640 0 640 0 0 275 0 275 -190 0 -190 0 0 5 0 4 35 35 35 35 42 13 43 12 7 10
7 11 81 -1 82 0 6 -10 7 -10 17 -7 17 -6 -5 14 -5 13 -27 7 -27 7 -7 11 -7 12
-42 -1 -41 -1 -7 -11 -6 -10 -50 -7 -50 -8 -5 -7 -5 -8 -130 -12 -130 -11 -6
-10 -6 -10 -163 -2 -163 -2 -4 12 -4 11 -20 23 -19 22 0 12 0 13 -15 6 -15 5
0 11 0 11 51 -50 52 -51 60 0 60 0 64 11 63 11 0 8 0 8 30 7 30 7 0 8 0 8 40
7 40 7 0 8 0 7 42 7 42 7 7 11 7 10 56 2 56 1 0 11 0 11 -42 6 -42 6 -12 15
-11 16 -7 0 -6 0 0 -14 0 -14 13 -5 12 -5 -17 -1 -18 -1 0 -10 0 -10 -25 0
-25 0 0 9 0 9 15 6 15 5 -1 18 -1 18 -5 -14 -6 -15 -25 -23 -25 -23 -8 0 -8 0
6 18 7 17 -18 -17 -17 -18 -15 0 -14 0 0 -10 0 -10 -20 0 -20 0 0 10 0 10 12
0 12 0 23 27 23 26 0 9 0 9 -22 -21 -22 -20 -9 0 -8 0 -15 -15 -15 -15 -20 0
-19 0 0 -10 0 -10 -84 0 -84 0 -4 12 -4 12 -84 -1 -84 0 -4 -12 -4 -11 -49 0
-49 0 0 9 0 9 -31 6 -30 6 -15 15 -15 15 -17 9 -17 10 0 67 0 67 13 5 12 4 0
13 0 13 30 7 30 7 0 9 0 9 50 0 50 0 0 -9 0 -9 37 -7 38 -7 7 -11 6 -10 68 1
67 1 6 9 6 10 58 7 57 7 0 9 0 9 35 0 35 0 0 -10 0 -10 20 0 19 0 21 -22 20
-22 7 7 6 7 -11 0 -12 0 0 15 0 15 -14 0 -14 0 -5 13 -4 12 -77 0 -77 0 -9
-15 -9 -14 -107 -1 -107 0 -4 13 -5 12 -23 0 -23 0 -16 6 -16 6 0 14 0 14 10
0 10 0 0 14 0 15 13 13 14 13 27 20 28 20 14 13 15 14 39 5 39 5 4 12 5 12
-34 -4 -34 -4 0 -9 0 -9 -25 0 -26 0 -5 -15 -6 -14 -14 14 -14 14 0 11 0 11
15 15 15 15 10 17 10 17 8 -13 9 -13 54 -6 54 -6 11 -11 11 -11 -5 -13 -4 -12
16 0 16 0 0 9 0 10 48 7 47 7 6 10 7 10 183 1 182 1 4 -12 5 -13 14 0 14 0 0
-17 0 -18 8 11 7 11 22 7 23 7 0 10 0 9 15 0 14 0 11 18 10 17 -6 -27 -6 -28
16 -6 16 -6 0 -14 0 -14 -8 0 -8 0 -11 -30 -11 -30 8 0 9 0 13 13 14 14 12
-13 12 -13 15 5 14 6 6 18 6 18 -7 26 -6 26 -9 0 -9 0 -20 17 -20 17 0 9 0 8
16 -15 15 -16 10 0 10 0 24 -26 25 -27 0 -18 0 -18 -21 -19 -20 -19 15 -16 15
-15 7 -26 6 -26 9 0 9 0 0 -40 0 -40 -10 0 -10 0 0 -16 0 -16 13 5 12 4 0 72
0 72 -14 8 -13 9 0 28 -1 28 12 4 11 4 0 19 0 19 -10 0 -10 0 -6 24 -6 24 -25
7 -25 6 -15 14 -14 15 -19 0 -19 0 -10 -17 -10 -18 -83 2 -82 1 -4 11 -4 11
-109 0 -109 0 0 -9 0 -8 -82 -6 -83 -7 -3 -10 -4 -10 -13 0 -13 0 -4 11 -4 12
-54 5 -55 5 -5 8 -5 7 -26 7 -26 6 -37 -34z m-42 -517 l52 0 13 -36 13 -35 -7
-7 -6 -6 -7 10 -7 11 -37 7 -38 7 0 9 0 10 -13 0 -13 0 -18 22 -18 21 17 -6
17 -7 52 0z m286 -12 l0 -13 10 15 9 14 8 -7 7 -8 -14 -9 -15 -10 -32 0 -33 0
0 15 0 15 30 0 30 0 0 -12z"/>
<path d="M380 1141 l0 -9 -31 -7 -31 -7 -5 -19 -5 -19 -9 0 -9 0 0 -25 0 -25
26 -6 27 -7 93 6 93 6 21 21 20 20 0 20 0 20 -21 21 -21 21 -5 -6 -5 -5 16
-17 17 -17 -5 -14 -6 -15 0 -8 0 -8 -13 -5 -13 -5 4 29 4 28 -26 12 -26 12 0
9 0 8 -45 0 -45 0 0 -9z m98 -23 l12 -12 -1 -25 -1 -26 -10 28 -10 27 -10 0
-9 0 -15 -15 -15 -15 10 0 11 0 0 -10 0 -10 -16 0 -16 0 6 25 6 25 -15 0 -15
0 -20 -17 -20 -17 0 -23 0 -23 -14 0 -14 0 -5 13 -4 12 9 27 10 27 26 10 27 9
41 1 40 1 12 -12z"/>
<path d="M770 1101 l0 -9 -19 -5 -20 -5 2 -24 2 -24 17 -17 17 -17 10 0 11 0
0 10 0 10 -25 6 -25 6 0 9 0 9 15 0 15 0 0 -9 0 -9 30 -7 30 -7 0 -9 0 -9 -10
0 -10 0 0 -15 0 -15 9 0 9 0 6 25 6 25 60 0 60 0 0 -10 0 -10 20 0 20 0 0 9 0
9 -22 6 -23 6 -47 0 -48 0 0 9 0 8 65 5 64 6 16 16 16 16 -33 -7 -33 -6 -5 -8
-5 -8 -89 -3 -89 -3 -5 13 -4 13 21 6 21 5 0 9 0 9 -15 0 -15 0 0 -9z"/>
<path d="M1003 1053 l-33 -4 0 -10 0 -9 26 0 25 0 15 15 15 15 -8 -2 -8 -1
-32 -4z"/>
<path d="M1028 993 l13 -5 6 6 6 6 -19 -1 -19 -1 13 -5z"/>
<path d="M770 981 l0 -9 14 -5 15 -6 -6 15 -5 14 -9 0 -9 0 0 -9z"/>
<path d="M970 980 l0 -10 10 0 10 0 0 10 0 10 -10 0 -10 0 0 -10z"/>
<path d="M1090 980 l0 -10 10 0 10 0 0 10 0 10 -10 0 -10 0 0 -10z"/>
<path d="M118 956 l-18 -13 0 -27 0 -26 10 0 10 0 0 -14 0 -15 16 -16 16 -16
22 6 21 5 -12 -6 -13 -6 0 -9 0 -9 35 0 35 0 20 20 20 20 0 25 0 25 -9 0 -9 0
-6 24 -6 24 -36 12 -36 12 -24 -13 -24 -12 -1 -26 -2 -26 -4 24 -5 25 18 13
18 13 -10 0 -9 -1 -17 -13z m32 -76 l0 -10 -10 0 -10 0 0 10 0 10 10 0 10 0 0
-10z"/>
<path d="M550 943 l0 -18 -10 15 -9 14 -7 -6 -7 -7 -2 -23 -2 -23 -2 -12 -1
-13 -10 0 -10 0 0 15 0 15 10 0 10 0 0 10 0 10 -9 0 -9 0 -12 -34 -11 -33 10
-25 9 -25 44 -1 43 -2 27 6 27 5 13 30 13 29 7 0 8 0 0 39 0 39 -16 6 -16 6
-44 0 -44 0 0 -17z m-49 -103 l9 0 0 -15 0 -15 -10 0 -10 0 0 8 0 7 -4 20 -3
20 4 -12 4 -13 10 0z"/>
<path d="M1215 930 l8 -25 13 -8 14 -8 0 -14 0 -15 10 0 10 0 0 -30 0 -31 -34
-34 -33 -35 -12 0 -11 0 0 -10 0 -10 15 0 16 0 36 35 36 34 -5 55 -4 54 -34
33 -33 33 8 -24z"/>
<path d="M770 910 l0 -10 10 0 10 0 0 10 0 10 -10 0 -10 0 0 -10z"/>
<path d="M801 904 l1 -19 5 13 5 13 -6 6 -6 6 1 -19z"/>
<path d="M831 904 l1 -19 5 13 5 13 -6 6 -6 6 1 -19z"/>
<path d="M765 859 l-7 -10 3 -4 4 -3 13 14 13 14 -10 0 -10 0 -6 -11z"/>
<path d="M852 856 l13 -14 4 3 3 4 -7 10 -6 11 -10 0 -10 0 13 -14z"/>
<path d="M801 824 l1 -19 5 13 5 13 -6 6 -6 6 1 -19z"/>
<path d="M290 780 l0 -10 10 0 10 0 0 10 0 10 -10 0 -10 0 0 -10z"/>
<path d="M330 780 l0 -10 15 0 15 0 0 10 0 10 -15 0 -15 0 0 -10z"/>
<path d="M956 743 l-7 -18 12 12 13 13 -6 5 -6 6 -6 -18z"/>
<path d="M1060 750 l0 -10 10 0 10 0 0 10 0 10 -10 0 -10 0 0 -10z"/>
<path d="M888 733 l-18 -4 0 -10 0 -9 24 0 24 0 6 15 5 15 -12 -1 -12 -1 -17
-5z"/>
<path d="M793 703 l-23 -4 0 -10 0 -9 -13 0 -13 0 -17 -21 -18 -21 23 7 23 8
8 13 8 14 19 0 20 0 0 9 0 10 28 4 27 4 -25 0 -25 0 -22 -4z"/>
</g>
</svg>
