<?xml version="1.0" standalone="no"?>
<!DOCTYPE svg PUBLIC "-//W3C//DTD SVG 20010904//EN"
 "http://www.w3.org/TR/2001/REC-SVG-20010904/DTD/svg10.dtd">
<svg version="1.0" xmlns="http://www.w3.org/2000/svg"
 width="468pt" height="468pt" viewBox="0 0 468 468"
 preserveAspectRatio="xMidYMid meet">
<metadata>
Created by potrace 1.8, written by Peter Selinger 2001-2007
</metadata>
<g transform="translate(0,468) scale(0.365625,-0.365625)"
fill="#000000" stroke="none">
<path d="M100 1150 l0 -10 10 0 10 0 0 -20 0 -20 10 0 10 0 0 -20 0 -20 10 0
10 0 0 -30 0 -30 -10 0 -10 0 0 -10 0 -10 40 0 40 0 0 10 0 10 -10 0 -10 0 0
30 0 30 10 0 10 0 0 20 0 20 10 0 10 0 0 20 0 20 10 0 10 0 0 10 0 10 -30 0
-30 0 0 -9 0 -9 13 -6 12 -6 -12 -6 -13 -6 0 -19 0 -19 -10 0 -10 0 0 19 0 19
-12 6 -13 6 13 6 12 6 0 9 0 9 -40 0 -40 0 0 -10z"/>
<path d="M273 1085 l-13 -14 0 -31 0 -31 14 -15 15 -14 31 0 31 0 15 14 14 15
0 31 0 31 -14 15 -15 14 -33 0 -33 -1 -12 -14z m67 -45 l0 -40 -20 0 -20 0 0
40 0 40 20 0 20 0 0 -40z"/>
<path d="M400 1090 l0 -10 10 0 10 0 0 -36 0 -35 14 -15 15 -14 55 0 56 0 0
10 0 10 -10 0 -10 0 0 50 0 50 -30 0 -30 0 0 -10 0 -10 10 0 10 0 0 -40 0 -40
-20 0 -20 0 0 50 0 50 -30 0 -30 0 0 -10z"/>
<path d="M671 1084 l-14 -16 14 -10 14 -10 -12 -5 -13 -5 0 -15 0 -14 14 -15
15 -14 14 0 15 0 6 13 6 12 6 -12 6 -13 29 0 29 0 0 10 0 10 -10 0 -10 0 0 36
0 35 -14 15 -15 14 -33 0 -33 -1 -14 -15z m69 -14 l0 -10 -20 0 -20 0 0 10 0
10 20 0 20 0 0 -10z m0 -40 l0 -10 -20 0 -20 0 0 10 0 10 20 0 20 0 0 -10z"/>
<path d="M820 1090 l0 -10 10 0 10 0 0 -40 0 -40 -10 0 -10 0 0 -10 0 -10 40
0 40 0 0 10 0 10 -10 0 -10 0 0 30 0 30 30 0 30 0 0 20 0 20 -19 0 -19 0 -6
-12 -6 -13 -6 13 -6 12 -29 0 -29 0 0 -10z"/>
<path d="M973 1085 l-13 -14 0 -31 0 -31 14 -15 15 -14 31 0 31 0 15 14 14 15
0 5 0 6 -19 0 -19 0 -4 -12 -5 -13 -16 17 -17 17 0 5 0 6 40 0 40 0 0 16 0 15
-14 15 -15 14 -33 0 -33 -1 -12 -14z m67 -15 l0 -10 -20 0 -20 0 0 10 0 10 20
0 20 0 0 -10z"/>
<path d="M200 870 l0 -10 10 0 10 0 0 -70 0 -70 -10 0 -10 0 0 -10 0 -10 40 0
40 0 0 10 0 10 -10 0 -10 0 0 30 0 30 30 0 30 0 0 -30 0 -30 -10 0 -10 0 0
-10 0 -10 40 0 40 0 0 10 0 10 -10 0 -10 0 0 70 0 70 10 0 10 0 0 10 0 10 -40
0 -40 0 0 -10 0 -10 10 0 10 0 0 -30 0 -30 -30 0 -30 0 0 30 0 30 10 0 10 0 0
10 0 10 -40 0 -40 0 0 -10z"/>
<path d="M860 820 l0 -60 20 0 20 0 0 60 0 60 -20 0 -20 0 0 -60z"/>
<path d="M413 805 l-13 -14 0 -31 0 -31 14 -15 15 -14 31 0 31 0 15 14 14 15
0 5 0 6 -19 0 -19 0 -4 -12 -5 -13 -16 17 -17 17 0 5 0 6 40 0 40 0 0 16 0 15
-14 15 -15 14 -33 0 -33 -1 -12 -14z m67 -15 l0 -10 -20 0 -20 0 0 10 0 10 20
0 20 0 0 -10z"/>
<path d="M540 810 l0 -10 10 0 10 0 0 -40 0 -40 -10 0 -10 0 0 -10 0 -10 40 0
40 0 0 10 0 10 -10 0 -10 0 0 30 0 30 30 0 30 0 0 20 0 20 -19 0 -19 0 -6 -12
-6 -13 -6 13 -6 12 -29 0 -29 0 0 -10z"/>
<path d="M693 805 l-13 -14 0 -31 0 -31 14 -15 15 -14 31 0 31 0 15 14 14 15
0 5 0 6 -19 0 -19 0 -4 -12 -5 -13 -16 17 -17 17 0 5 0 6 40 0 40 0 0 16 0 15
-14 15 -15 14 -33 0 -33 -1 -12 -14z m67 -15 l0 -10 -20 0 -20 0 0 10 0 10 20
0 20 0 0 -10z"/>
<path d="M1000 770 l0 -10 20 0 20 0 0 -10 0 -10 15 0 16 0 24 -25 25 -24 0
-16 0 -15 10 0 10 0 0 -40 0 -40 -10 0 -10 0 0 -15 0 -16 -25 -24 -24 -25 -16
0 -15 0 0 -10 0 -10 -30 0 -30 0 0 -10 0 -10 -50 0 -50 0 0 -10 0 -10 -150 0
-150 0 0 8 0 8 20 14 20 14 0 8 0 8 -15 0 -16 0 -35 -35 -35 -35 35 -35 35
-35 16 0 15 0 0 8 0 8 -20 14 -20 14 0 8 0 8 150 0 150 0 0 10 0 10 50 0 50 0
0 10 0 10 30 0 30 0 0 10 0 10 15 0 16 0 34 35 35 34 0 16 0 15 10 0 10 0 0
40 0 40 -10 0 -10 0 0 15 0 16 -35 34 -34 35 -16 0 -15 0 0 10 0 10 -20 0 -20
0 0 -10z"/>
<path d="M860 720 l0 -20 20 0 20 0 0 20 0 20 -20 0 -20 0 0 -20z"/>
<path d="M180 544 l0 -15 50 -49 50 -49 0 -11 0 -11 -50 -49 -50 -49 0 -15 0
-16 16 0 15 0 49 50 49 50 11 0 11 0 49 -50 49 -50 15 0 16 0 0 16 0 15 -50
49 -50 49 0 11 0 11 50 49 50 49 0 15 0 16 -16 0 -15 0 -49 -50 -49 -50 -11 0
-11 0 -49 50 -49 50 -15 0 -16 0 0 -16z"/>
<path d="M0 100 l0 -100 640 0 640 0 0 100 0 100 -640 0 -640 0 0 -100z"/>
</g>
</svg>
