<?xml version="1.0" standalone="no"?>
<!DOCTYPE svg PUBLIC "-//W3C//DTD SVG 20010904//EN"
 "http://www.w3.org/TR/2001/REC-SVG-20010904/DTD/svg10.dtd">
<svg version="1.0" xmlns="http://www.w3.org/2000/svg"
 width="468pt" height="468pt" viewBox="0 0 468 468"
 preserveAspectRatio="xMidYMid meet">
<metadata>
Created by potrace 1.8, written by Peter Selinger 2001-2007
</metadata>
<g transform="translate(0,468) scale(0.365625,-0.365625)"
fill="#000000" stroke="none">
<path d="M0 655 l0 -625 11 0 10 0 15 14 14 15 0 90 0 91 160 0 160 0 0 -14 0
-14 -12 -6 -13 -6 13 -6 12 -6 0 -14 0 -14 -10 0 -10 0 0 -14 0 -14 13 -6 12
-6 -12 -6 -13 -6 0 -14 0 -14 10 0 10 0 0 -11 0 -10 -14 -15 -15 -14 -10 0
-11 0 0 10 0 10 -14 0 -14 0 -6 -12 -6 -13 -6 13 -6 12 -14 0 -14 0 0 -10 0
-10 -14 0 -14 0 -6 13 -6 12 -6 -12 -6 -13 -14 0 -14 0 0 10 0 10 -14 0 -14 0
-6 -12 -6 -13 -6 13 -6 12 -14 0 -14 0 0 -10 0 -10 -25 0 -25 0 0 -15 0 -15
625 0 625 0 0 625 0 625 -15 0 -15 0 0 -290 0 -290 -600 0 -600 0 0 280 0 280
586 0 585 0 15 14 14 15 0 10 0 11 -625 0 -625 0 0 -625z m160 -55 l0 -10 -15
0 -15 0 0 -15 0 -15 15 0 15 0 0 -15 0 -15 -15 0 -15 0 0 15 0 15 -10 0 -10 0
0 15 0 15 -15 0 -15 0 0 -15 0 -15 15 0 15 0 0 -15 0 -15 -15 0 -15 0 0 -10 0
-10 15 0 15 0 0 -15 0 -15 10 0 10 0 0 15 0 15 15 0 15 0 0 -15 0 -15 -15 0
-15 0 0 -15 0 -15 15 0 15 0 0 -10 0 -10 -15 0 -15 0 0 -15 0 -15 15 0 15 0 0
-15 0 -15 -15 0 -15 0 0 15 0 15 -10 0 -10 0 0 -15 0 -15 -15 0 -15 0 0 -10 0
-10 15 0 15 0 0 -15 0 -15 10 0 10 0 0 15 0 15 15 0 15 0 0 -15 0 -15 -15 0
-15 0 0 -15 0 -15 -10 0 -10 0 0 15 0 15 -15 0 -15 0 0 -15 0 -15 -15 0 -15 0
0 15 0 15 15 0 15 0 0 15 0 15 -15 0 -15 0 0 10 0 10 15 0 15 0 0 15 0 15 -15
0 -15 0 0 15 0 15 15 0 15 0 0 10 0 10 -15 0 -15 0 0 15 0 15 15 0 15 0 0 15
0 15 -15 0 -15 0 0 10 0 10 15 0 15 0 0 15 0 15 -15 0 -15 0 0 25 0 25 55 0
55 0 0 -10z m400 0 l0 -10 -15 0 -15 0 0 -15 0 -15 15 0 15 0 0 -15 0 -15 -15
0 -15 0 0 15 0 15 -10 0 -10 0 0 15 0 15 -15 0 -15 0 0 -15 0 -15 -15 0 -15 0
0 15 0 15 -10 0 -10 0 0 -15 0 -15 -15 0 -15 0 0 15 0 15 -15 0 -15 0 0 -15 0
-15 -10 0 -10 0 0 15 0 15 -15 0 -15 0 0 -15 0 -15 -15 0 -15 0 0 15 0 15 -10
0 -10 0 0 -15 0 -15 10 0 10 0 0 -14 0 -14 -12 -6 -13 -6 13 -6 12 -6 0 -14 0
-14 -10 0 -10 0 0 -14 0 -14 13 -6 12 -6 -12 -6 -13 -6 0 -14 0 -14 10 0 10 0
0 -14 0 -14 -12 -6 -13 -6 13 -6 12 -6 0 -14 0 -14 -10 0 -10 0 0 -15 0 -15
-15 0 -15 0 0 160 0 160 160 0 160 0 0 -10z m400 0 l0 -10 -15 0 -15 0 0 -15
0 -15 15 0 15 0 0 -15 0 -15 -15 0 -15 0 0 15 0 15 -10 0 -10 0 0 15 0 15 -15
0 -15 0 0 -15 0 -15 -15 0 -15 0 0 15 0 15 -10 0 -10 0 0 -15 0 -15 -15 0 -15
0 0 15 0 15 -15 0 -15 0 0 -15 0 -15 -10 0 -10 0 0 15 0 15 -15 0 -15 0 0 -15
0 -15 -15 0 -15 0 0 15 0 15 -10 0 -10 0 0 -15 0 -15 10 0 10 0 0 -14 0 -14
-12 -6 -13 -6 13 -6 12 -6 0 -14 0 -14 -10 0 -10 0 0 -14 0 -14 13 -6 12 -6
-12 -6 -13 -6 0 -14 0 -14 10 0 10 0 0 -14 0 -14 -12 -6 -13 -6 13 -6 12 -6 0
-14 0 -14 -10 0 -10 0 0 -15 0 -15 -15 0 -15 0 0 160 0 160 160 0 160 0 0 -10z
m290 0 l0 -10 -10 0 -10 0 0 -15 0 -15 10 0 10 0 0 -14 0 -14 -12 -6 -13 -6
13 -6 12 -6 0 -14 0 -14 -10 0 -10 0 0 -14 0 -14 13 -6 12 -6 -12 -6 -13 -6 0
-14 0 -14 10 0 10 0 0 -14 0 -14 -12 -6 -13 -6 13 -6 12 -6 0 -14 0 -14 -10 0
-10 0 0 -15 0 -15 -15 0 -15 0 0 15 0 15 -15 0 -15 0 0 -15 0 -15 -10 0 -10 0
0 15 0 15 -15 0 -15 0 0 -15 0 -15 -15 0 -15 0 0 15 0 15 15 0 15 0 0 15 0 15
-15 0 -15 0 0 10 0 10 15 0 15 0 0 15 0 15 -15 0 -15 0 0 15 0 15 15 0 15 0 0
10 0 10 -15 0 -15 0 0 15 0 15 15 0 15 0 0 15 0 15 -15 0 -15 0 0 10 0 10 15
0 15 0 0 15 0 15 15 0 15 0 0 -15 0 -15 -15 0 -15 0 0 -10 0 -10 15 0 15 0 0
-15 0 -15 10 0 10 0 0 15 0 15 15 0 15 0 0 10 0 10 -15 0 -15 0 0 15 0 15 15
0 15 0 0 -15 0 -15 15 0 15 0 0 15 0 15 -15 0 -15 0 0 15 0 15 -15 0 -15 0 0
-15 0 -15 -10 0 -10 0 0 15 0 15 -15 0 -15 0 0 -15 0 -15 -15 0 -15 0 0 15 0
15 -10 0 -10 0 0 -15 0 -15 10 0 10 0 0 -14 0 -14 -12 -6 -13 -6 13 -6 12 -6
0 -14 0 -14 -10 0 -10 0 0 -14 0 -14 13 -6 12 -6 -12 -6 -13 -6 0 -14 0 -14
10 0 10 0 0 -14 0 -14 -12 -6 -13 -6 13 -6 12 -6 0 -14 0 -14 -10 0 -10 0 0
-15 0 -15 -15 0 -15 0 0 160 0 160 105 0 105 0 0 -10z m-900 -55 l0 -15 -15 0
-15 0 0 -10 0 -10 15 0 15 0 0 -15 0 -15 10 0 10 0 0 15 0 15 15 0 15 0 0 10
0 10 -15 0 -15 0 0 15 0 15 15 0 15 0 0 -15 0 -15 15 0 15 0 0 15 0 15 10 0
10 0 0 -15 0 -15 15 0 15 0 0 15 0 15 15 0 15 0 0 -11 0 -10 14 -15 15 -14 10
0 11 0 0 -15 0 -15 -15 0 -15 0 0 -15 0 -15 15 0 15 0 0 -10 0 -10 -15 0 -15
0 0 -15 0 -15 15 0 15 0 0 -15 0 -15 -15 0 -15 0 0 15 0 15 -10 0 -10 0 0 -15
0 -15 -15 0 -15 0 0 -10 0 -10 15 0 15 0 0 -15 0 -15 10 0 10 0 0 15 0 15 15
0 15 0 0 -15 0 -15 -15 0 -15 0 0 -15 0 -15 -10 0 -10 0 0 15 0 15 -15 0 -15
0 0 -15 0 -15 -15 0 -15 0 0 15 0 15 -10 0 -10 0 0 -15 0 -15 -15 0 -15 0 0
15 0 15 -15 0 -15 0 0 -15 0 -15 -10 0 -10 0 0 15 0 15 -15 0 -15 0 0 -15 0
-15 -15 0 -15 0 0 15 0 15 15 0 15 0 0 15 0 15 -15 0 -15 0 0 10 0 10 15 0 15
0 0 15 0 15 -15 0 -15 0 0 15 0 15 15 0 15 0 0 10 0 10 -15 0 -15 0 0 15 0 15
15 0 15 0 0 15 0 15 -15 0 -15 0 0 10 0 10 15 0 15 0 0 15 0 15 15 0 15 0 0
-15z m400 0 l0 -15 -15 0 -15 0 0 -10 0 -10 15 0 15 0 0 -15 0 -15 10 0 10 0
0 15 0 15 15 0 15 0 0 10 0 10 -15 0 -15 0 0 15 0 15 15 0 15 0 0 -15 0 -15
15 0 15 0 0 15 0 15 10 0 10 0 0 -15 0 -15 15 0 15 0 0 15 0 15 15 0 15 0 0
-11 0 -10 14 -15 15 -14 10 0 11 0 0 -15 0 -15 -15 0 -15 0 0 -15 0 -15 15 0
15 0 0 -10 0 -10 -15 0 -15 0 0 -15 0 -15 15 0 15 0 0 -15 0 -15 -15 0 -15 0
0 15 0 15 -10 0 -10 0 0 -15 0 -15 -15 0 -15 0 0 -10 0 -10 15 0 15 0 0 -15 0
-15 10 0 10 0 0 15 0 15 15 0 15 0 0 -15 0 -15 -15 0 -15 0 0 -15 0 -15 -10 0
-10 0 0 15 0 15 -15 0 -15 0 0 -15 0 -15 -15 0 -15 0 0 15 0 15 -10 0 -10 0 0
-15 0 -15 -15 0 -15 0 0 15 0 15 -15 0 -15 0 0 -15 0 -15 -10 0 -10 0 0 15 0
15 -15 0 -15 0 0 -15 0 -15 -15 0 -15 0 0 15 0 15 15 0 15 0 0 15 0 15 -15 0
-15 0 0 10 0 10 15 0 15 0 0 15 0 15 -15 0 -15 0 0 15 0 15 15 0 15 0 0 10 0
10 -15 0 -15 0 0 15 0 15 15 0 15 0 0 15 0 15 -15 0 -15 0 0 10 0 10 15 0 15
0 0 15 0 15 15 0 15 0 0 -15z m-620 -25 l0 -10 -10 0 -10 0 0 10 0 10 10 0 10
0 0 -10z m240 0 l0 -10 -10 0 -10 0 0 10 0 10 10 0 10 0 0 -10z m400 0 l0 -10
-10 0 -10 0 0 10 0 10 10 0 10 0 0 -10z m400 0 l0 -10 -10 0 -10 0 0 10 0 10
10 0 10 0 0 -10z m-1040 -160 l0 -10 -10 0 -10 0 0 10 0 10 10 0 10 0 0 -10z
m400 0 l0 -10 -10 0 -10 0 0 10 0 10 10 0 10 0 0 -10z m400 0 l0 -10 -10 0
-10 0 0 10 0 10 10 0 10 0 0 -10z m-160 -134 l0 -14 -12 -6 -13 -6 13 -6 12
-6 0 -14 0 -14 -10 0 -10 0 0 -14 0 -14 13 -6 12 -6 -12 -6 -13 -6 0 -14 0
-14 10 0 10 0 0 -11 0 -10 -14 -15 -15 -14 -10 0 -11 0 0 10 0 10 -14 0 -14 0
-6 -12 -6 -13 -6 13 -6 12 -14 0 -14 0 0 -10 0 -10 -14 0 -14 0 -6 13 -6 12
-6 -12 -6 -13 -14 0 -14 0 0 10 0 10 -14 0 -14 0 -6 -12 -6 -13 -6 13 -6 12
-14 0 -14 0 0 -10 0 -10 -15 0 -15 0 0 105 0 105 160 0 160 0 0 -14z m400 0
l0 -14 -12 -6 -13 -6 13 -6 12 -6 0 -14 0 -14 -10 0 -10 0 0 -14 0 -14 13 -6
12 -6 -12 -6 -13 -6 0 -14 0 -14 10 0 10 0 0 -11 0 -10 -14 -15 -15 -14 -10 0
-11 0 0 10 0 10 -14 0 -14 0 -6 -12 -6 -13 -6 13 -6 12 -14 0 -14 0 0 -10 0
-10 -14 0 -14 0 -6 13 -6 12 -6 -12 -6 -13 -14 0 -14 0 0 10 0 10 -14 0 -14 0
-6 -12 -6 -13 -6 13 -6 12 -14 0 -14 0 0 -10 0 -10 -15 0 -15 0 0 105 0 105
160 0 160 0 0 -14z"/>
<path d="M80 465 l0 -15 15 0 15 0 0 -10 0 -10 -15 0 -15 0 0 -15 0 -15 15 0
15 0 0 14 0 14 13 6 12 6 -12 6 -13 6 0 14 0 14 -15 0 -15 0 0 -15z"/>
<path d="M1200 495 l0 -15 -15 0 -15 0 0 -15 0 -15 15 0 15 0 0 -10 0 -10 -15
0 -15 0 0 -15 0 -15 -10 0 -10 0 0 15 0 15 -15 0 -15 0 0 -15 0 -15 15 0 15 0
0 -15 0 -15 -15 0 -15 0 0 -10 0 -10 15 0 15 0 0 -15 0 -15 10 0 10 0 0 15 0
15 15 0 15 0 0 -15 0 -15 15 0 15 0 0 15 0 15 -15 0 -15 0 0 10 0 10 15 0 15
0 0 15 0 15 -15 0 -15 0 0 15 0 15 15 0 15 0 0 10 0 10 -15 0 -15 0 0 15 0 15
15 0 15 0 0 15 0 15 -15 0 -15 0 0 -15z m0 -110 l0 -15 -14 0 -14 0 -5 -12 -4
-13 -9 9 -9 9 13 4 12 5 0 14 0 14 15 0 15 0 0 -15z"/>
<path d="M1120 465 l0 -15 14 0 14 0 5 -12 4 -13 9 9 9 9 -12 4 -13 5 0 14 0
14 -15 0 -15 0 0 -15z"/>
<path d="M430 520 l0 -10 -15 0 -15 0 0 -15 0 -15 -15 0 -15 0 0 -15 0 -15 15
0 15 0 0 -10 0 -10 -15 0 -15 0 0 -15 0 -15 -10 0 -10 0 0 15 0 15 -15 0 -15
0 0 -15 0 -15 15 0 15 0 0 -15 0 -15 -15 0 -15 0 0 -10 0 -10 15 0 15 0 0 -15
0 -15 10 0 10 0 0 15 0 15 15 0 15 0 0 -15 0 -15 15 0 15 0 0 15 0 15 -15 0
-15 0 0 10 0 10 15 0 15 0 0 15 0 15 10 0 10 0 0 -15 0 -15 15 0 15 0 0 15 0
15 15 0 15 0 0 14 0 14 13 6 12 6 -12 6 -13 6 0 14 0 14 10 0 10 0 0 11 0 10
-14 15 -15 14 -10 0 -11 0 0 -10 0 -10 -15 0 -15 0 0 10 0 10 -10 0 -10 0 0
-10z m20 -25 l0 -15 15 0 15 0 0 15 0 15 15 0 15 0 0 -15 0 -15 -15 0 -15 0 0
-15 0 -15 15 0 15 0 0 -10 0 -10 -15 0 -15 0 0 -15 0 -15 -15 0 -15 0 0 15 0
15 15 0 15 0 0 10 0 10 -15 0 -15 0 0 15 0 15 -10 0 -10 0 0 -15 0 -15 -15 0
-15 0 0 15 0 15 15 0 15 0 0 15 0 15 10 0 10 0 0 -15z m0 -55 l0 -10 -10 0
-10 0 0 -15 0 -15 -15 0 -15 0 0 -15 0 -15 -14 0 -14 0 -5 -12 -4 -13 -9 9 -9
9 13 4 12 5 0 14 0 14 15 0 15 0 0 15 0 15 15 0 15 0 0 10 0 10 10 0 10 0 0
-10z"/>
<path d="M320 465 l0 -15 14 0 14 0 5 -12 4 -13 9 9 9 9 -12 4 -13 5 0 14 0
14 -15 0 -15 0 0 -15z"/>
<path d="M430 360 l0 -10 10 0 10 0 0 -15 0 -15 15 0 15 0 0 15 0 15 -15 0
-15 0 0 10 0 10 -10 0 -10 0 0 -10z"/>
<path d="M830 520 l0 -10 -15 0 -15 0 0 -15 0 -15 -15 0 -15 0 0 -15 0 -15 15
0 15 0 0 -10 0 -10 -15 0 -15 0 0 -15 0 -15 -10 0 -10 0 0 15 0 15 -15 0 -15
0 0 -15 0 -15 15 0 15 0 0 -15 0 -15 -15 0 -15 0 0 -10 0 -10 15 0 15 0 0 -15
0 -15 10 0 10 0 0 15 0 15 15 0 15 0 0 -15 0 -15 15 0 15 0 0 15 0 15 -15 0
-15 0 0 10 0 10 15 0 15 0 0 15 0 15 10 0 10 0 0 -15 0 -15 15 0 15 0 0 15 0
15 15 0 15 0 0 14 0 14 13 6 12 6 -12 6 -13 6 0 14 0 14 10 0 10 0 0 11 0 10
-14 15 -15 14 -10 0 -11 0 0 -10 0 -10 -15 0 -15 0 0 10 0 10 -10 0 -10 0 0
-10z m20 -25 l0 -15 15 0 15 0 0 15 0 15 15 0 15 0 0 -15 0 -15 -15 0 -15 0 0
-15 0 -15 15 0 15 0 0 -10 0 -10 -15 0 -15 0 0 -15 0 -15 -15 0 -15 0 0 15 0
15 15 0 15 0 0 10 0 10 -15 0 -15 0 0 15 0 15 -10 0 -10 0 0 -15 0 -15 -15 0
-15 0 0 15 0 15 15 0 15 0 0 15 0 15 10 0 10 0 0 -15z m0 -55 l0 -10 -10 0
-10 0 0 -15 0 -15 -15 0 -15 0 0 -15 0 -15 -14 0 -14 0 -5 -12 -4 -13 -9 9 -9
9 13 4 12 5 0 14 0 14 15 0 15 0 0 15 0 15 15 0 15 0 0 10 0 10 10 0 10 0 0
-10z"/>
<path d="M720 465 l0 -15 14 0 14 0 5 -12 4 -13 9 9 9 9 -12 4 -13 5 0 14 0
14 -15 0 -15 0 0 -15z"/>
<path d="M830 360 l0 -10 10 0 10 0 0 -15 0 -15 15 0 15 0 0 15 0 15 -15 0
-15 0 0 10 0 10 -10 0 -10 0 0 -10z"/>
<path d="M480 200 l0 -10 15 0 15 0 0 -15 0 -15 -15 0 -15 0 0 -15 0 -15 15 0
15 0 0 15 0 15 10 0 10 0 0 -15 0 -15 15 0 15 0 0 -10 0 -10 -15 0 -15 0 0
-15 0 -15 -10 0 -10 0 0 15 0 15 -15 0 -15 0 0 -15 0 -15 15 0 15 0 0 -15 0
-15 10 0 10 0 0 15 0 15 15 0 15 0 0 -15 0 -15 15 0 15 0 0 15 0 15 10 0 10 0
0 -15 0 -15 15 0 15 0 0 15 0 15 15 0 15 0 0 -15 0 -15 10 0 10 0 0 15 0 15
15 0 15 0 0 -15 0 -15 15 0 15 0 0 15 0 15 -15 0 -15 0 0 15 0 15 15 0 15 0 0
10 0 10 -15 0 -15 0 0 15 0 15 15 0 15 0 0 15 0 15 -15 0 -15 0 0 10 0 10 -14
0 -14 0 -6 -12 -6 -13 -6 13 -6 12 -14 0 -14 0 0 -10 0 -10 -14 0 -14 0 -6 13
-6 12 -6 -12 -6 -13 -14 0 -14 0 0 10 0 10 -14 0 -14 0 -6 -12 -6 -13 -6 13
-6 12 -14 0 -14 0 0 -10z m80 -25 l0 -15 15 0 15 0 0 15 0 15 10 0 10 0 0 -15
0 -15 15 0 15 0 0 15 0 15 15 0 15 0 0 -15 0 -15 10 0 10 0 0 15 0 15 15 0 15
0 0 -15 0 -15 -15 0 -15 0 0 -15 0 -15 15 0 15 0 0 -10 0 -10 -15 0 -15 0 0
-15 0 -15 -10 0 -10 0 0 15 0 15 -15 0 -15 0 0 -15 0 -15 -15 0 -15 0 0 15 0
15 15 0 15 0 0 10 0 10 -15 0 -15 0 0 15 0 15 -10 0 -10 0 0 -15 0 -15 -15 0
-15 0 0 15 0 15 -15 0 -15 0 0 15 0 15 15 0 15 0 0 -15z m50 -55 l0 -10 -10 0
-10 0 0 -15 0 -15 -15 0 -15 0 0 15 0 15 15 0 15 0 0 10 0 10 10 0 10 0 0 -10z"/>
<path d="M640 145 l0 -15 14 0 14 0 5 -12 4 -13 9 9 9 9 -12 4 -13 5 0 14 0
14 -15 0 -15 0 0 -15z"/>
<path d="M510 120 l0 -10 10 0 10 0 0 10 0 10 -10 0 -10 0 0 -10z"/>
<path d="M880 200 l0 -10 15 0 15 0 0 -15 0 -15 -15 0 -15 0 0 -15 0 -15 15 0
15 0 0 15 0 15 10 0 10 0 0 -15 0 -15 15 0 15 0 0 -10 0 -10 -15 0 -15 0 0
-15 0 -15 -10 0 -10 0 0 15 0 15 -15 0 -15 0 0 -15 0 -15 15 0 15 0 0 -15 0
-15 10 0 10 0 0 15 0 15 15 0 15 0 0 -15 0 -15 15 0 15 0 0 15 0 15 10 0 10 0
0 -15 0 -15 15 0 15 0 0 15 0 15 15 0 15 0 0 -15 0 -15 10 0 10 0 0 15 0 15
15 0 15 0 0 -15 0 -15 15 0 15 0 0 15 0 15 -15 0 -15 0 0 15 0 15 15 0 15 0 0
10 0 10 -15 0 -15 0 0 15 0 15 15 0 15 0 0 15 0 15 -15 0 -15 0 0 10 0 10 -14
0 -14 0 -6 -12 -6 -13 -6 13 -6 12 -14 0 -14 0 0 -10 0 -10 -14 0 -14 0 -6 13
-6 12 -6 -12 -6 -13 -14 0 -14 0 0 10 0 10 -14 0 -14 0 -6 -12 -6 -13 -6 13
-6 12 -14 0 -14 0 0 -10z m80 -25 l0 -15 15 0 15 0 0 15 0 15 10 0 10 0 0 -15
0 -15 15 0 15 0 0 15 0 15 15 0 15 0 0 -15 0 -15 10 0 10 0 0 15 0 15 15 0 15
0 0 -15 0 -15 -15 0 -15 0 0 -15 0 -15 15 0 15 0 0 -10 0 -10 -15 0 -15 0 0
-15 0 -15 -10 0 -10 0 0 15 0 15 -15 0 -15 0 0 -15 0 -15 -15 0 -15 0 0 15 0
15 15 0 15 0 0 10 0 10 -15 0 -15 0 0 15 0 15 -10 0 -10 0 0 -15 0 -15 -15 0
-15 0 0 15 0 15 -15 0 -15 0 0 15 0 15 15 0 15 0 0 -15z m50 -55 l0 -10 -10 0
-10 0 0 -15 0 -15 -15 0 -15 0 0 15 0 15 15 0 15 0 0 10 0 10 10 0 10 0 0 -10z"/>
<path d="M1040 145 l0 -15 14 0 14 0 5 -12 4 -13 9 9 9 9 -12 4 -13 5 0 14 0
14 -15 0 -15 0 0 -15z"/>
<path d="M910 120 l0 -10 10 0 10 0 0 10 0 10 -10 0 -10 0 0 -10z"/>
<path d="M350 1175 l0 -25 10 0 10 0 0 -15 0 -15 15 0 15 0 0 -15 0 -15 11 0
10 0 15 -14 14 -15 0 -10 0 -11 15 0 15 0 0 -15 0 -15 11 0 10 0 15 -14 14
-15 0 -21 0 -21 -14 -15 -15 -14 -10 0 -11 0 0 -15 0 -15 -15 0 -15 0 0 -11 0
-10 -14 -15 -15 -14 -10 0 -11 0 0 -15 0 -15 -15 0 -15 0 0 -11 0 -10 -14 -15
-15 -14 -10 0 -11 0 0 -30 0 -30 15 0 15 0 0 15 0 15 10 0 10 0 0 15 0 15 15
0 15 0 0 10 0 10 15 0 15 0 0 15 0 15 10 0 10 0 0 15 0 15 15 0 15 0 0 10 0
10 15 0 15 0 0 15 0 15 10 0 10 0 0 15 0 15 15 0 15 0 0 10 0 10 15 0 15 0 0
15 0 15 10 0 10 0 0 15 0 15 15 0 15 0 0 -15 0 -15 -15 0 -15 0 0 -14 0 -14
-12 -6 -13 -6 13 -6 12 -6 0 -14 0 -14 15 0 15 0 0 -15 0 -15 11 0 10 0 15
-14 14 -15 0 -10 0 -11 15 0 15 0 0 -15 0 -15 11 0 10 0 15 -14 14 -15 0 -10
0 -11 15 0 15 0 0 -15 0 -15 40 0 40 0 0 40 0 40 -15 0 -15 0 0 15 0 15 -10 0
-10 0 0 15 0 15 -15 0 -15 0 0 10 0 10 -15 0 -15 0 0 15 0 15 -10 0 -10 0 0
15 0 15 -15 0 -15 0 0 10 0 10 -15 0 -15 0 0 30 0 30 15 0 15 0 0 10 0 10 15
0 15 0 0 15 0 15 10 0 10 0 0 15 0 15 15 0 15 0 0 10 0 10 15 0 15 0 0 15 0
15 10 0 10 0 0 15 0 15 15 0 15 0 0 25 0 25 -15 0 -15 0 0 -11 0 -10 -14 -15
-15 -14 -10 0 -11 0 0 -15 0 -15 -15 0 -15 0 0 -11 0 -10 -14 -15 -15 -14 -10
0 -11 0 0 -15 0 -15 -15 0 -15 0 0 -11 0 -10 -14 -15 -15 -14 -10 0 -11 0 0
10 0 10 -15 0 -15 0 0 15 0 15 -10 0 -10 0 0 15 0 15 -15 0 -15 0 0 10 0 10
-15 0 -15 0 0 15 0 15 -10 0 -10 0 0 15 0 15 -15 0 -15 0 0 10 0 10 -15 0 -15
0 0 15 0 15 -50 0 -50 0 0 -25z"/>
<path d="M80 200 l0 -10 15 0 15 0 0 -15 0 -15 -15 0 -15 0 0 -15 0 -15 15 0
15 0 0 15 0 15 10 0 10 0 0 -15 0 -15 15 0 15 0 0 -10 0 -10 -15 0 -15 0 0
-15 0 -15 -10 0 -10 0 0 15 0 15 -15 0 -15 0 0 -15 0 -15 15 0 15 0 0 -15 0
-15 10 0 10 0 0 15 0 15 15 0 15 0 0 -15 0 -15 15 0 15 0 0 15 0 15 10 0 10 0
0 -15 0 -15 15 0 15 0 0 15 0 15 15 0 15 0 0 -15 0 -15 10 0 10 0 0 15 0 15
15 0 15 0 0 -15 0 -15 15 0 15 0 0 15 0 15 -15 0 -15 0 0 15 0 15 15 0 15 0 0
10 0 10 -15 0 -15 0 0 15 0 15 15 0 15 0 0 15 0 15 -15 0 -15 0 0 10 0 10 -14
0 -14 0 -6 -12 -6 -13 -6 13 -6 12 -14 0 -14 0 0 -10 0 -10 -14 0 -14 0 -6 13
-6 12 -6 -12 -6 -13 -14 0 -14 0 0 10 0 10 -14 0 -14 0 -6 -12 -6 -13 -6 13
-6 12 -14 0 -14 0 0 -10z m80 -25 l0 -15 15 0 15 0 0 15 0 15 10 0 10 0 0 -15
0 -15 15 0 15 0 0 15 0 15 15 0 15 0 0 -15 0 -15 10 0 10 0 0 15 0 15 15 0 15
0 0 -15 0 -15 -15 0 -15 0 0 -15 0 -15 15 0 15 0 0 -10 0 -10 -15 0 -15 0 0
-15 0 -15 -10 0 -10 0 0 15 0 15 -15 0 -15 0 0 -15 0 -15 -15 0 -15 0 0 15 0
15 15 0 15 0 0 10 0 10 -15 0 -15 0 0 15 0 15 -10 0 -10 0 0 -15 0 -15 -15 0
-15 0 0 15 0 15 -15 0 -15 0 0 15 0 15 15 0 15 0 0 -15z m50 -55 l0 -10 -10 0
-10 0 0 -15 0 -15 -15 0 -15 0 0 15 0 15 15 0 15 0 0 10 0 10 10 0 10 0 0 -10z"/>
<path d="M240 145 l0 -15 14 0 14 0 5 -12 4 -13 9 9 9 9 -12 4 -13 5 0 14 0
14 -15 0 -15 0 0 -15z"/>
<path d="M110 120 l0 -10 10 0 10 0 0 10 0 10 -10 0 -10 0 0 -10z"/>
</g>
</svg>
