<?xml version="1.0" standalone="no"?>
<!DOCTYPE svg PUBLIC "-//W3C//DTD SVG 20010904//EN"
 "http://www.w3.org/TR/2001/REC-SVG-20010904/DTD/svg10.dtd">
<svg version="1.0" xmlns="http://www.w3.org/2000/svg"
 width="468pt" height="468pt" viewBox="0 0 468 468"
 preserveAspectRatio="xMidYMid meet">
<metadata>
Created by potrace 1.8, written by Peter Selinger 2001-2007
</metadata>
<g transform="translate(0,468) scale(0.365625,-0.365625)"
fill="#000000" stroke="none">
<path d="M150 1145 l0 -15 30 0 30 0 0 -15 0 -15 15 0 15 0 0 -15 0 -15 15 0
15 0 0 15 0 15 15 0 15 0 0 15 0 15 35 0 35 0 0 15 0 15 -35 0 -35 0 0 -15 0
-15 -45 0 -45 0 0 15 0 15 -30 0 -30 0 0 -15z"/>
<path d="M820 1055 l0 -15 30 0 30 0 0 -15 0 -15 15 0 15 0 0 -15 0 -15 15 0
15 0 0 15 0 15 20 0 20 0 0 15 0 15 30 0 30 0 0 15 0 15 -30 0 -30 0 0 -15 0
-15 -50 0 -50 0 0 15 0 15 -30 0 -30 0 0 -15z"/>
<path d="M210 925 l0 -15 30 0 30 0 0 -15 0 -15 15 0 15 0 0 -15 0 -15 20 0
20 0 0 15 0 15 30 0 30 0 0 -15 0 -15 15 0 15 0 0 -15 0 -15 15 0 15 0 0 15 0
15 15 0 15 0 0 15 0 15 30 0 30 0 0 15 0 15 -30 0 -30 0 0 -15 0 -15 -45 0
-45 0 0 15 0 15 15 0 15 0 0 15 0 15 -30 0 -30 0 0 -15 0 -15 -50 0 -50 0 0
15 0 15 -30 0 -30 0 0 -15z"/>
<path d="M520 805 l0 -15 30 0 30 0 0 -15 0 -15 15 0 15 0 0 -15 0 -15 15 0
15 0 0 15 0 15 15 0 15 0 0 15 0 15 30 0 30 0 0 15 0 15 -30 0 -30 0 0 -15 0
-15 -45 0 -45 0 0 15 0 15 -30 0 -30 0 0 -15z"/>
<path d="M880 775 l0 -15 30 0 30 0 0 -15 0 -15 20 0 20 0 0 -15 0 -15 15 0
15 0 0 15 0 15 15 0 15 0 0 15 0 15 30 0 30 0 0 15 0 15 -30 0 -30 0 0 -15 0
-15 -50 0 -50 0 0 15 0 15 -30 0 -30 0 0 -15z"/>
<path d="M490 625 l0 -15 30 0 30 0 0 -15 0 -15 15 0 15 0 0 -15 0 -15 15 0
15 0 0 15 0 15 15 0 15 0 0 15 0 15 30 0 30 0 0 15 0 15 -30 0 -30 0 0 -15 0
-15 -45 0 -45 0 0 15 0 15 -30 0 -30 0 0 -15z"/>
<path d="M0 200 l0 -200 640 0 640 0 0 200 0 200 -640 0 -640 0 0 -200z"/>
</g>
</svg>
