<?xml version="1.0" standalone="no"?>
<!DOCTYPE svg PUBLIC "-//W3C//DTD SVG 20010904//EN"
 "http://www.w3.org/TR/2001/REC-SVG-20010904/DTD/svg10.dtd">
<svg version="1.0" xmlns="http://www.w3.org/2000/svg"
 width="468pt" height="468pt" viewBox="0 0 468 468"
 preserveAspectRatio="xMidYMid meet">
<metadata>
Created by potrace 1.8, written by Peter Selinger 2001-2007
</metadata>
<g transform="translate(0,468) scale(0.365625,-0.365625)"
fill="#000000" stroke="none">
<path d="M160 1135 l0 -15 -15 0 -15 0 0 -425 0 -425 15 0 15 0 0 -15 0 -15
15 0 15 0 0 -11 0 -10 14 -15 15 -14 10 0 11 0 0 -15 0 -15 -15 0 -15 0 0 11
0 10 -14 15 -15 14 -10 0 -11 0 0 15 0 15 -15 0 -15 0 0 -15 0 -15 15 0 15 0
0 -10 0 -10 15 0 15 0 0 -15 0 -15 10 0 10 0 0 -15 0 -15 15 0 15 0 0 15 0 15
15 0 15 0 0 -15 0 -15 10 0 10 0 0 15 0 15 15 0 15 0 0 -15 0 -15 15 0 15 0 0
15 0 15 10 0 10 0 0 -15 0 -15 15 0 15 0 0 15 0 15 15 0 15 0 0 -15 0 -15 10
0 10 0 0 15 0 15 15 0 15 0 0 -15 0 -15 15 0 15 0 0 15 0 15 10 0 10 0 0 -15
0 -15 15 0 15 0 0 15 0 15 15 0 15 0 0 -15 0 -15 10 0 10 0 0 15 0 15 15 0 15
0 0 -15 0 -15 15 0 15 0 0 15 0 15 10 0 10 0 0 -15 0 -15 15 0 15 0 0 15 0 15
15 0 15 0 0 -15 0 -15 10 0 10 0 0 15 0 15 15 0 15 0 0 -15 0 -15 15 0 15 0 0
15 0 15 10 0 10 0 0 -15 0 -15 15 0 15 0 0 15 0 15 15 0 15 0 0 -15 0 -15 10
0 10 0 0 15 0 15 15 0 15 0 0 -15 0 -15 15 0 15 0 0 15 0 15 10 0 10 0 0 -15
0 -15 15 0 15 0 0 15 0 15 15 0 15 0 0 11 0 10 14 15 15 14 10 0 11 0 0 15 0
15 -15 0 -15 0 0 -11 0 -10 -14 -15 -15 -14 -10 0 -11 0 0 -15 0 -15 -15 0
-15 0 0 15 0 15 15 0 15 0 0 10 0 10 15 0 15 0 0 15 0 15 10 0 10 0 0 14 0 14
-12 6 -13 6 13 6 12 6 0 14 0 14 -10 0 -10 0 0 14 0 14 13 6 12 6 -12 6 -13 6
0 14 0 14 10 0 10 0 0 14 0 14 -12 6 -13 6 12 6 13 6 0 14 0 14 -10 0 -10 0 0
14 0 14 13 6 12 6 -13 6 -12 6 0 14 0 14 10 0 10 0 0 14 0 14 -12 6 -13 6 13
6 12 6 0 14 0 14 -10 0 -10 0 0 14 0 14 13 6 12 6 -12 6 -13 6 0 14 0 14 10 0
10 0 0 14 0 14 -12 6 -13 6 13 6 12 6 0 14 0 14 -10 0 -10 0 0 14 0 14 13 6
12 6 -12 6 -13 6 0 14 0 14 10 0 10 0 0 14 0 14 -12 6 -13 6 13 6 12 6 0 14 0
14 -10 0 -10 0 0 14 0 14 12 6 13 6 -12 6 -13 6 0 14 0 14 10 0 10 0 0 11 0
10 -14 15 -15 14 -10 0 -11 0 0 15 0 15 -15 0 -15 0 0 15 0 15 -425 0 -425 0
0 -15z m80 -270 l0 -255 15 0 15 0 0 -10 0 -10 316 0 315 0 15 14 14 15 0 250
0 251 40 0 40 0 0 -440 0 -440 -40 0 -40 0 0 15 0 15 -50 0 -50 0 0 120 0 120
40 0 40 0 0 -30 0 -30 10 0 10 0 0 26 0 25 -14 15 -15 14 -261 0 -261 0 -15
-14 -14 -15 0 -115 0 -116 -15 0 -15 0 0 -15 0 -15 -55 0 -55 0 0 11 0 10 -14
15 -15 14 -10 0 -11 0 0 415 0 415 40 0 40 0 0 -255z m190 84 l0 -10 14 -15
15 -14 21 0 21 0 15 14 14 15 0 10 0 11 55 0 55 0 0 -15 0 -15 14 0 14 0 6
-12 6 -13 6 13 6 12 14 0 14 0 0 15 0 15 65 0 65 0 0 -15 0 -15 15 0 15 0 0
-10 0 -10 -25 0 -25 0 0 10 0 10 -40 0 -40 0 0 -25 0 -25 40 0 40 0 0 -11 0
-10 14 -15 15 -14 10 0 11 0 0 -30 0 -30 -15 0 -15 0 0 -10 0 -10 -65 0 -65 0
0 10 0 10 -15 0 -15 0 0 15 0 15 30 0 30 0 0 -15 0 -15 40 0 40 0 0 30 0 30
-15 0 -15 0 0 10 0 10 -40 0 -40 0 0 15 0 15 -15 0 -15 0 0 -40 0 -40 -10 0
-10 0 0 -15 0 -15 -15 0 -15 0 0 -10 0 -10 -51 0 -50 0 -15 14 -14 15 0 10 0
11 -30 0 -30 0 0 -11 0 -10 -14 -15 -15 -14 -65 0 -66 0 0 105 0 105 70 0 70
0 0 -11z m370 -574 l0 -135 -215 0 -215 0 0 135 0 135 215 0 215 0 0 -135z
m-430 -175 l0 -10 15 0 15 0 0 -15 0 -15 -15 0 -15 0 0 15 0 15 -10 0 -10 0 0
-15 0 -15 -15 0 -15 0 0 15 0 15 15 0 15 0 0 10 0 10 10 0 10 0 0 -10z m480 0
l0 -10 15 0 15 0 0 10 0 10 11 0 10 0 15 -14 14 -15 0 -10 0 -11 -10 0 -10 0
0 15 0 15 -15 0 -15 0 0 -15 0 -15 -15 0 -15 0 0 15 0 15 -10 0 -10 0 0 -15 0
-15 -15 0 -15 0 0 15 0 15 15 0 15 0 0 10 0 10 10 0 10 0 0 -10z m-560 -25 l0
-15 -10 0 -10 0 0 15 0 15 10 0 10 0 0 -15z m160 0 l0 -15 -10 0 -10 0 0 15 0
15 10 0 10 0 0 -15z m60 0 l0 -15 -15 0 -15 0 0 15 0 15 15 0 15 0 0 -15z m50
0 l0 -15 -15 0 -15 0 0 15 0 15 15 0 15 0 0 -15z m50 0 l0 -15 -10 0 -10 0 0
15 0 15 10 0 10 0 0 -15z m60 0 l0 -15 -15 0 -15 0 0 15 0 15 15 0 15 0 0 -15z
m50 0 l0 -15 -15 0 -15 0 0 15 0 15 15 0 15 0 0 -15z m50 0 l0 -15 -10 0 -10
0 0 15 0 15 10 0 10 0 0 -15z m220 0 l0 -15 -15 0 -15 0 0 15 0 15 15 0 15 0
0 -15z"/>
<path d="M190 1040 l0 -30 10 0 10 0 0 30 0 30 -10 0 -10 0 0 -30z"/>
<path d="M960 1040 l0 -30 15 0 15 0 0 30 0 30 -15 0 -15 0 0 -30z"/>
<path d="M910 415 l0 -15 10 0 10 0 0 15 0 15 -10 0 -10 0 0 -15z"/>
<path d="M910 360 l0 -10 10 0 10 0 0 10 0 10 -10 0 -10 0 0 -10z"/>
<path d="M910 305 l0 -15 10 0 10 0 0 15 0 15 -10 0 -10 0 0 -15z"/>
<path d="M350 850 l0 -80 25 0 25 0 0 15 0 15 15 0 15 0 0 55 0 55 -15 0 -15
0 0 10 0 10 -25 0 -25 0 0 -80z"/>
<path d="M560 920 l0 -10 -15 0 -15 0 0 -55 0 -55 15 0 15 0 0 -15 0 -15 25 0
25 0 0 15 0 15 15 0 15 0 0 55 0 55 -15 0 -15 0 0 10 0 10 -25 0 -25 0 0 -10z"/>
<path d="M430 375 l0 -105 65 0 65 0 0 105 0 105 -65 0 -65 0 0 -105z m100
-15 l0 -70 -25 0 -25 0 0 70 0 70 25 0 25 0 0 -70z"/>
<path d="M1090 1025 l0 -15 15 0 15 0 0 15 0 15 -15 0 -15 0 0 -15z"/>
<path d="M1090 975 l0 -15 15 0 15 0 0 15 0 15 -15 0 -15 0 0 -15z"/>
<path d="M1090 920 l0 -10 15 0 15 0 0 10 0 10 -15 0 -15 0 0 -10z"/>
<path d="M1090 865 l0 -15 15 0 15 0 0 15 0 15 -15 0 -15 0 0 -15z"/>
<path d="M1090 815 l0 -15 15 0 15 0 0 15 0 15 -15 0 -15 0 0 -15z"/>
<path d="M1090 760 l0 -10 15 0 15 0 0 10 0 10 -15 0 -15 0 0 -10z"/>
<path d="M1090 705 l0 -15 15 0 15 0 0 15 0 15 -15 0 -15 0 0 -15z"/>
<path d="M1090 655 l0 -15 15 0 15 0 0 15 0 15 -15 0 -15 0 0 -15z"/>
<path d="M1090 600 l0 -10 15 0 15 0 0 10 0 10 -15 0 -15 0 0 -10z"/>
<path d="M1090 545 l0 -15 15 0 15 0 0 15 0 15 -15 0 -15 0 0 -15z"/>
<path d="M1090 495 l0 -15 15 0 15 0 0 15 0 15 -15 0 -15 0 0 -15z"/>
<path d="M1090 440 l0 -10 15 0 15 0 0 10 0 10 -15 0 -15 0 0 -10z"/>
<path d="M1090 385 l0 -15 15 0 15 0 0 15 0 15 -15 0 -15 0 0 -15z"/>
<path d="M1090 335 l0 -15 15 0 15 0 0 15 0 15 -15 0 -15 0 0 -15z"/>
<path d="M1090 280 l0 -10 15 0 15 0 0 10 0 10 -15 0 -15 0 0 -10z"/>
</g>
</svg>
