<?xml version="1.0" standalone="no"?>
<!DOCTYPE svg PUBLIC "-//W3C//DTD SVG 20010904//EN"
 "http://www.w3.org/TR/2001/REC-SVG-20010904/DTD/svg10.dtd">
<svg version="1.0" xmlns="http://www.w3.org/2000/svg"
 width="468pt" height="468pt" viewBox="0 0 468 468"
 preserveAspectRatio="xMidYMid meet">
<metadata>
Created by potrace 1.8, written by Peter Selinger 2001-2007
</metadata>
<g transform="translate(0,468) scale(0.365625,-0.365625)"
fill="#000000" stroke="none">
<path d="M210 1240 l0 -10 -25 0 -25 0 0 -15 0 -15 -15 0 -15 0 0 -15 0 -15
-25 0 -25 0 0 -25 0 -25 -15 0 -15 0 0 -25 0 -25 -10 0 -10 0 0 -110 0 -110
10 0 10 0 0 -25 0 -25 15 0 15 0 0 -15 0 -15 11 0 10 0 15 -14 14 -15 0 -10 0
-11 15 0 15 0 0 -15 0 -15 25 0 25 0 0 -10 0 -10 110 0 110 0 0 10 0 10 10 0
10 0 0 -40 0 -40 15 0 15 0 0 -40 0 -40 15 0 15 0 0 -25 0 -25 10 0 10 0 0
-15 0 -15 15 0 15 0 0 -10 0 -10 15 0 15 0 0 -15 0 -15 -15 0 -15 0 0 -25 0
-25 -15 0 -15 0 0 -30 0 -30 -10 0 -10 0 0 -50 0 -50 10 0 10 0 0 -30 0 -30
15 0 15 0 0 -10 0 -10 15 0 15 0 0 -15 0 -15 10 0 10 0 0 -15 0 -15 30 0 30 0
0 -10 0 -10 65 0 65 0 0 10 0 10 40 0 40 0 0 15 0 15 25 0 25 0 0 15 0 15 26
0 25 0 15 14 14 15 0 10 0 11 30 0 30 0 0 11 0 10 14 15 15 14 10 0 11 0 0 15
0 15 15 0 15 0 0 11 0 10 14 15 15 14 10 0 11 0 0 15 0 15 15 0 15 0 0 25 0
25 10 0 10 0 0 70 0 70 -10 0 -10 0 0 25 0 25 -15 0 -15 0 0 15 0 15 -11 0
-10 0 -15 14 -14 15 0 10 0 11 -15 0 -15 0 0 15 0 15 -15 0 -15 0 0 10 0 10
15 0 15 0 0 110 0 110 -15 0 -15 0 0 25 0 25 -10 0 -10 0 0 15 0 15 -15 0 -15
0 0 10 0 10 -25 0 -25 0 0 15 0 15 -15 0 -15 0 0 15 0 15 -120 0 -120 0 0 -15
0 -15 -25 0 -25 0 0 -15 0 -15 -30 0 -30 0 0 40 0 40 -10 0 -10 0 0 30 0 30
-15 0 -15 0 0 10 0 10 -15 0 -15 0 0 15 0 15 -10 0 -10 0 0 15 0 15 -40 0 -40
0 0 10 0 10 -110 0 -110 0 0 -10z m190 -25 l0 -15 40 0 40 0 0 -25 0 -25 15 0
15 0 0 -15 0 -15 10 0 10 0 0 -15 0 -15 15 0 15 0 0 -65 0 -65 -25 0 -25 0 0
-14 0 -14 13 -6 12 -6 -12 -6 -13 -6 0 -29 0 -29 -15 0 -15 0 0 -10 0 -10 15
0 15 0 0 -15 0 -15 -30 0 -30 0 0 -15 0 -15 15 0 15 0 0 -10 0 -10 -11 0 -10
0 -15 14 -14 15 0 10 0 11 -40 0 -40 0 0 15 0 15 -15 0 -15 0 0 10 0 10 -15 0
-15 0 0 -25 0 -25 30 0 30 0 0 -15 0 -15 36 0 35 0 15 -14 14 -15 0 -10 0 -11
-25 0 -25 0 0 -15 0 -15 -55 0 -55 0 0 15 0 15 -25 0 -25 0 0 15 0 15 -25 0
-25 0 0 10 0 10 -15 0 -15 0 0 30 0 30 -15 0 -15 0 0 25 0 25 -10 0 -10 0 0
95 0 95 10 0 10 0 0 25 0 25 15 0 15 0 0 15 0 15 11 0 10 0 15 14 14 15 0 10
0 11 30 0 30 0 0 15 0 15 65 0 65 0 0 -15z m510 -190 l0 -15 25 0 25 0 0 -10
0 -10 15 0 15 0 0 -15 0 -15 10 0 10 0 0 -15 0 -15 15 0 15 0 0 -10 0 -10 15
0 15 0 0 -120 0 -120 -55 0 -55 0 0 -15 0 -15 -15 0 -15 0 0 51 0 50 -14 15
-15 14 -10 0 -11 0 0 15 0 15 -15 0 -15 0 0 14 0 14 -12 6 -13 6 13 6 12 6 0
14 0 14 -10 0 -10 0 0 -15 0 -15 -15 0 -15 0 0 -10 0 -10 -14 0 -14 0 -5 13
-4 12 -9 -9 -9 -9 13 -4 12 -5 0 -14 0 -14 15 0 15 0 0 15 0 15 15 0 15 0 0
-30 0 -30 -15 0 -15 0 0 -25 0 -25 15 0 15 0 0 -15 0 -15 10 0 10 0 0 15 0 15
-10 0 -10 0 0 25 0 25 25 0 25 0 0 -25 0 -25 15 0 15 0 0 -40 0 -40 -15 0 -15
0 0 -15 0 -15 -25 0 -25 0 0 -10 0 -10 -15 0 -15 0 0 10 0 10 -15 0 -15 0 0
30 0 30 -10 0 -10 0 0 -30 0 -30 10 0 10 0 0 -25 0 -25 -25 0 -25 0 0 -15 0
-15 -15 0 -15 0 0 -10 0 -10 -25 0 -25 0 0 10 0 10 -15 0 -15 0 0 15 0 15 -10
0 -10 0 0 15 0 15 -15 0 -15 0 0 -15 0 -15 15 0 15 0 0 -25 0 -25 25 0 25 0 0
-30 0 -30 -15 0 -15 0 0 15 0 15 -25 0 -25 0 0 25 0 25 -15 0 -15 0 0 30 0 30
-10 0 -10 0 0 80 0 80 10 0 10 0 0 50 0 50 15 0 15 0 0 15 0 15 15 0 15 0 0
25 0 25 10 0 10 0 0 15 0 15 15 0 15 0 0 15 0 15 25 0 25 0 0 10 0 10 30 0 30
0 0 15 0 15 80 0 80 0 0 -15z m210 -425 l0 -10 15 0 15 0 0 -15 0 -15 10 0 10
0 0 -65 0 -65 -10 0 -10 0 0 -30 0 -30 -15 0 -15 0 0 -10 0 -10 -15 0 -15 0 0
-15 0 -15 -10 0 -10 0 0 -15 0 -15 -15 0 -15 0 0 -10 0 -10 -15 0 -15 0 0 -15
0 -15 -10 0 -10 0 0 -15 0 -15 -26 0 -25 0 -15 -14 -14 -15 0 -10 0 -11 -30 0
-30 0 0 -15 0 -15 -50 0 -50 0 0 -10 0 -10 -55 0 -55 0 0 10 0 10 -25 0 -25 0
0 15 0 15 -15 0 -15 0 0 80 0 80 15 0 15 0 0 25 0 25 10 0 10 0 0 15 0 15 15
0 15 0 0 15 0 15 11 0 10 0 15 14 14 15 0 10 0 11 15 0 15 0 0 15 0 15 15 0
15 0 0 10 0 10 25 0 25 0 0 15 0 15 25 0 25 0 0 -11 0 -10 -14 -15 -15 -14
-10 0 -11 0 0 -15 0 -15 -25 0 -25 0 0 -15 0 -15 -15 0 -15 0 0 -10 0 -10 -15
0 -15 0 0 -30 0 -30 15 0 15 0 0 30 0 30 15 0 15 0 0 10 0 10 25 0 25 0 0 15
0 15 15 0 15 0 0 11 0 10 14 15 15 14 10 0 11 0 0 15 0 15 -15 0 -15 0 0 15 0
15 40 0 40 0 0 10 0 10 95 0 95 0 0 -10z m110 -185 l0 -15 -15 0 -15 0 0 15 0
15 15 0 15 0 0 -15z m-30 -55 l0 -10 -15 0 -15 0 0 10 0 10 15 0 15 0 0 -10z
m-50 -55 l0 -15 -15 0 -15 0 0 15 0 15 15 0 15 0 0 -15z m-60 -50 l0 -15 -10
0 -10 0 0 15 0 15 10 0 10 0 0 -15z m-50 -55 l0 -10 -15 0 -15 0 0 10 0 10 15
0 15 0 0 -10z m-80 -55 l0 -15 -15 0 -15 0 0 15 0 15 15 0 15 0 0 -15z m-50
-25 l0 -10 -15 0 -15 0 0 10 0 10 15 0 15 0 0 -10z m-80 -25 l0 -15 -15 0 -15
0 0 15 0 15 15 0 15 0 0 -15z m-80 -30 l0 -15 -15 0 -15 0 0 15 0 15 15 0 15
0 0 -15z"/>
<path d="M430 1135 l0 -15 10 0 10 0 0 15 0 15 -10 0 -10 0 0 -15z"/>
<path d="M240 1105 l0 -15 -15 0 -15 0 0 -50 0 -50 15 0 15 0 0 -15 0 -15 25
0 25 0 0 -15 0 -15 30 0 30 0 0 15 0 15 -30 0 -30 0 0 15 0 15 -25 0 -25 0 0
50 0 50 15 0 15 0 0 15 0 15 -15 0 -15 0 0 -15z"/>
<path d="M480 1080 l0 -10 15 0 15 0 0 -30 0 -30 10 0 10 0 0 26 0 25 -14 15
-15 14 -10 0 -11 0 0 -10z"/>
<path d="M270 1055 l0 -15 25 0 25 0 0 -15 0 -15 15 0 15 0 0 15 0 15 -15 0
-15 0 0 15 0 15 -25 0 -25 0 0 -15z"/>
<path d="M370 905 l0 -25 15 0 15 0 0 -15 0 -15 15 0 15 0 0 15 0 15 -15 0
-15 0 0 15 0 15 15 0 15 0 0 10 0 10 -30 0 -30 0 0 -25z"/>
<path d="M880 945 l0 -15 11 0 10 0 15 -14 14 -15 0 -25 0 -26 -25 0 -25 0 0
-10 0 -10 15 0 15 0 0 -15 0 -15 10 0 10 0 0 15 0 15 15 0 15 0 0 40 0 40 -11
0 -10 0 -15 14 -14 15 0 10 0 11 -15 0 -15 0 0 -15z"/>
<path d="M560 760 l0 -10 15 0 15 0 0 10 0 10 -15 0 -15 0 0 -10z"/>
<path d="M560 650 l0 -40 15 0 15 0 0 40 0 40 -15 0 -15 0 0 -40z"/>
<path d="M690 600 l0 -10 15 0 15 0 0 10 0 10 -15 0 -15 0 0 -10z"/>
<path d="M990 575 l0 -15 10 0 10 0 0 15 0 15 -10 0 -10 0 0 -15z"/>
<path d="M1090 545 l0 -15 -25 0 -25 0 0 -50 0 -50 -25 0 -25 0 0 -15 0 -15
40 0 40 0 0 40 0 40 10 0 10 0 0 25 0 25 15 0 15 0 0 15 0 15 -15 0 -15 0 0
-15z"/>
<path d="M910 495 l0 -15 10 0 10 0 0 -11 0 -10 -14 -15 -15 -14 -10 0 -11 0
0 -15 0 -15 15 0 15 0 0 -15 0 -15 -15 0 -15 0 0 -10 0 -10 25 0 25 0 0 25 0
25 -10 0 -10 0 0 15 0 15 25 0 25 0 0 10 0 10 15 0 15 0 0 15 0 15 -30 0 -30
0 0 15 0 15 -10 0 -10 0 0 -15z"/>
<path d="M830 310 l0 -40 10 0 10 0 0 -30 0 -30 15 0 15 0 0 30 0 30 15 0 15
0 0 25 0 25 -15 0 -15 0 0 -25 0 -25 -15 0 -15 0 0 40 0 40 -10 0 -10 0 0 -40z"/>
<path d="M720 305 l0 -15 -25 0 -25 0 0 -40 0 -40 25 0 25 0 0 -10 0 -10 55 0
55 0 0 10 0 10 -30 0 -30 0 0 15 0 15 -40 0 -40 0 0 15 0 15 15 0 15 0 0 10 0
10 15 0 15 0 0 -10 0 -10 10 0 10 0 0 25 0 25 -25 0 -25 0 0 -15z"/>
</g>
</svg>
