<?xml version="1.0" standalone="no"?>
<!DOCTYPE svg PUBLIC "-//W3C//DTD SVG 20010904//EN"
 "http://www.w3.org/TR/2001/REC-SVG-20010904/DTD/svg10.dtd">
<svg version="1.0" xmlns="http://www.w3.org/2000/svg"
 width="468pt" height="468pt" viewBox="0 0 468 468"
 preserveAspectRatio="xMidYMid meet">
<metadata>
Created by potrace 1.8, written by Peter Selinger 2001-2007
</metadata>
<g transform="translate(0,468) scale(0.365625,-0.365625)"
fill="#000000" stroke="none">
<path d="M123 1155 l-23 -24 0 -11 0 -11 25 -24 24 -25 156 0 155 0 0 -10 0
-10 -75 0 -75 0 -105 -105 -105 -105 0 -20 0 -21 25 -24 24 -25 21 0 21 0 89
90 89 90 36 0 35 0 0 -10 0 -10 30 0 30 0 0 -10 0 -10 30 0 30 0 0 -10 0 -10
40 0 40 0 0 -10 0 -10 100 0 100 0 0 -20 0 -20 35 0 36 0 44 -45 45 -44 0 -12
0 -11 -31 -29 -31 -29 17 -16 17 -17 10 14 10 14 5 -12 5 -13 14 0 15 0 50 51
50 51 5 -5 6 -6 -56 -55 -56 -56 -15 0 -15 0 0 -10 0 -10 -16 0 -17 0 -18 21
-19 22 -29 -32 -29 -31 -126 0 -126 0 0 -10 0 -10 -65 0 -66 0 -69 70 -69 70
-21 0 -21 0 -24 -25 -25 -24 0 -21 0 -20 95 -95 95 -95 55 0 55 0 0 -10 0 -10
50 0 50 0 0 -10 0 -10 50 0 50 0 0 -10 0 -10 50 0 50 0 0 -10 0 -10 50 0 50 0
0 10 0 10 15 0 15 0 56 55 55 56 -30 28 -31 29 0 16 0 16 10 0 10 0 0 15 0 15
56 56 55 56 6 -6 5 -5 -51 -50 -51 -50 0 -15 0 -14 13 -5 12 -5 -14 -10 -14
-10 16 -17 17 -16 60 61 61 62 18 -21 18 -21 7 0 6 0 0 159 0 159 -13 6 -12 6
13 6 12 6 0 9 0 9 -30 0 -30 0 0 10 0 10 30 0 30 0 0 9 0 9 -12 5 -13 5 14 10
14 10 -46 46 -46 46 -36 0 -35 0 0 30 0 30 -140 0 -140 0 0 -10 0 -10 -70 0
-70 0 0 10 0 10 -30 0 -30 0 0 10 0 10 -40 0 -40 0 0 10 0 10 -40 0 -40 0 0
10 0 10 -167 -1 -168 0 -22 -24z m177 -35 l0 -40 -76 0 -75 0 -15 14 -14 15 0
11 0 11 13 14 12 14 78 1 77 0 0 -40z m86 26 l14 -15 0 -11 0 -11 -14 -15 -15
-14 -25 0 -26 0 0 40 0 40 26 0 25 0 15 -14z m94 -26 l0 -40 10 0 10 0 0 30 0
30 30 0 30 0 0 -10 0 -10 40 0 40 0 0 -10 0 -10 30 0 30 0 0 -20 0 -20 -110 0
-110 0 0 10 0 10 -16 0 -15 0 -15 14 -14 15 0 11 0 11 13 14 12 14 18 1 17 0
0 -40z m620 -30 l0 -10 -110 0 -110 0 0 -10 0 -10 -10 0 -10 0 0 20 0 20 120
0 120 0 0 -10z m-260 -20 l0 -10 -50 0 -50 0 0 10 0 10 50 0 50 0 0 -10z m200
-20 l0 -10 -50 0 -50 0 0 10 0 10 50 0 50 0 0 -10z m-400 -20 l0 -10 -40 0
-40 0 0 -10 0 -10 30 0 30 0 0 -40 0 -40 -20 0 -20 0 0 10 0 10 -20 0 -20 0 0
-10 0 -10 20 0 20 0 0 -10 0 -10 26 0 25 0 16 -15 15 -16 -7 -7 -8 -7 -4 13
-5 12 -39 0 -39 0 0 10 0 10 -30 0 -30 0 0 10 0 10 -30 0 -30 0 0 10 0 10 -20
0 -20 0 0 30 0 30 -10 0 -10 0 0 -25 0 -25 -95 -95 -95 -95 -21 0 -20 0 -15
14 -14 15 0 20 0 21 95 95 95 95 24 0 24 0 6 -12 6 -13 6 13 6 12 69 0 69 0 0
10 0 10 60 0 60 0 0 -10z m200 -20 l0 -30 110 0 110 0 0 -20 0 -20 -110 0
-110 0 0 -40 0 -40 -75 0 -76 0 -24 25 -25 24 0 41 0 41 23 24 22 24 78 0 77
1 0 -30z m40 20 l0 -10 30 0 30 0 0 -10 0 -10 -40 0 -40 0 0 20 0 20 10 0 10
0 0 -10z m300 0 l0 -10 15 0 16 0 25 -25 25 -25 -15 -15 -15 -15 -21 0 -21 0
-27 27 -26 27 12 4 12 4 0 9 0 9 -20 0 -20 0 0 10 0 10 30 0 30 0 0 -10z
m-160 -20 l0 -10 -30 0 -30 0 0 10 0 10 30 0 30 0 0 -10z m80 -60 l0 -70 -10
0 -10 0 0 10 0 10 -20 0 -20 0 0 10 0 10 20 0 20 0 0 40 0 40 -20 0 -20 0 0
10 0 10 30 0 30 0 0 -70z m-160 -40 l0 -10 -20 0 -20 0 0 -10 0 -10 -20 0 -20
0 0 20 0 20 40 0 40 0 0 -10z m80 0 l0 -10 -30 0 -30 0 0 10 0 10 30 0 30 0 0
-10z m20 -40 l0 -10 -50 0 -50 0 0 10 0 10 50 0 50 0 0 -10z m-160 -20 l0 -10
110 0 110 0 0 -10 0 -10 -120 0 -120 0 0 20 0 20 10 0 10 0 0 -10z m305 -145
l75 -75 -76 -76 -76 -76 -6 7 -6 6 14 10 15 9 -14 9 -14 9 51 50 52 51 0 11 0
11 -35 34 -34 35 -11 0 -11 0 -51 -52 -50 -51 -9 14 -9 14 -9 -15 -10 -14 -6
6 -7 6 74 75 73 75 3 1 2 1 75 -75z m-753 -147 l82 -82 4 12 4 12 69 0 69 0 0
10 0 10 89 0 89 0 5 -12 4 -13 41 43 41 43 76 -76 75 -75 -45 -45 -44 -45 -16
0 -15 0 0 -10 0 -10 -30 0 -30 0 0 10 0 10 -19 0 -19 0 -6 13 -6 12 -6 -12 -6
-13 -39 0 -39 0 0 10 0 10 -50 0 -50 0 0 10 0 10 -50 0 -50 0 0 10 0 10 -19 0
-19 0 -6 13 -6 12 -6 -12 -6 -13 -24 0 -24 0 -85 85 -85 85 0 20 0 21 13 14
12 14 23 1 23 0 81 -82z"/>
<path d="M360 1120 l0 -20 10 0 10 0 0 20 0 20 -10 0 -10 0 0 -20z"/>
<path d="M440 1120 l0 -20 10 0 10 0 0 20 0 20 -10 0 -10 0 0 -20z"/>
<path d="M300 970 l0 -30 30 0 30 0 0 30 0 30 -30 0 -30 0 0 -30z"/>
<path d="M220 915 l0 -6 26 -26 25 -25 6 5 5 6 -25 25 -26 26 -6 0 -5 0 0 -5z"/>
<path d="M733 985 l-13 -14 0 -21 0 -21 14 -15 15 -14 21 0 21 0 15 14 14 15
0 21 0 21 -14 15 -15 14 -23 0 -23 -1 -12 -14z m27 -15 l0 -10 -10 0 -10 0 0
10 0 10 10 0 10 0 0 -10z m40 0 l0 -10 -10 0 -10 0 0 10 0 10 10 0 10 0 0 -10z
m-40 -40 l0 -10 -10 0 -10 0 0 10 0 10 10 0 10 0 0 -10z m40 0 l0 -10 -10 0
-10 0 0 10 0 10 10 0 10 0 0 -10z"/>
<path d="M1160 990 l0 -10 20 0 20 0 0 -10 0 -10 20 0 20 0 0 6 0 5 -14 15
-15 14 -25 0 -26 0 0 -10z"/>
<path d="M1052 704 l-54 -55 5 -6 6 -5 55 56 56 56 0 5 0 5 -7 -1 -8 0 -53
-55z"/>
<path d="M1172 584 l-54 -55 5 -6 6 -5 55 56 56 56 0 5 0 5 -7 -1 -8 0 -53
-55z"/>
<path d="M401 514 l-23 -25 5 -6 6 -5 25 25 26 26 0 6 0 5 -7 -1 -8 0 -24 -25z"/>
<path d="M740 490 l0 -10 40 0 40 0 0 -10 0 -10 -10 0 -10 0 0 -30 0 -30 10 0
10 0 0 -10 0 -10 -20 0 -20 0 0 10 0 10 -20 0 -20 0 0 -10 0 -10 20 0 20 0 0
-10 0 -10 30 0 30 0 0 20 0 20 -10 0 -10 0 0 30 0 30 10 0 10 0 0 20 0 20 -50
0 -50 0 0 -10z"/>
<path d="M440 450 l0 -30 30 0 30 0 0 30 0 30 -30 0 -30 0 0 -30z"/>
<path d="M520 450 l0 -30 10 0 10 0 0 30 0 30 -10 0 -10 0 0 -30z"/>
<path d="M893 465 l-13 -14 0 -21 0 -21 14 -15 15 -14 21 0 21 0 15 14 14 15
0 21 0 21 -14 15 -15 14 -23 0 -23 -1 -12 -14z m27 -15 l0 -10 -10 0 -10 0 0
10 0 10 10 0 10 0 0 -10z m40 0 l0 -10 -10 0 -10 0 0 10 0 10 10 0 10 0 0 -10z
m-40 -40 l0 -10 -10 0 -10 0 0 10 0 10 10 0 10 0 0 -10z m40 0 l0 -10 -10 0
-10 0 0 10 0 10 10 0 10 0 0 -10z"/>
<path d="M0 100 l0 -100 640 0 640 0 0 100 0 100 -640 0 -640 0 0 -100z"/>
</g>
</svg>
