<?xml version="1.0" standalone="no"?>
<!DOCTYPE svg PUBLIC "-//W3C//DTD SVG 20010904//EN"
 "http://www.w3.org/TR/2001/REC-SVG-20010904/DTD/svg10.dtd">
<svg version="1.0" xmlns="http://www.w3.org/2000/svg"
 width="468pt" height="468pt" viewBox="0 0 468 468"
 preserveAspectRatio="xMidYMid meet">
<metadata>
Created by potrace 1.8, written by Peter Selinger 2001-2007
</metadata>
<g transform="translate(0,468) scale(0.365625,-0.365625)"
fill="#000000" stroke="none">
<path d="M240 990 l0 -80 -55 0 -55 0 0 -80 0 -80 -50 0 -50 0 0 -280 0 -280
465 0 465 0 0 80 0 80 65 0 65 0 0 65 0 65 70 0 70 0 0 295 0 295 -495 0 -495
0 0 -80z m960 -215 l0 -265 -55 0 -55 0 0 200 0 200 40 0 40 0 0 50 0 50 -40
0 -40 0 0 -50 0 -50 -410 0 -410 0 0 65 0 65 465 0 465 0 0 -265z m-50 185 l0
-30 -15 0 -15 0 0 30 0 30 15 0 15 0 0 -30z m-80 -335 l0 -255 -55 0 -55 0 0
190 0 190 40 0 40 0 0 50 0 50 -40 0 -40 0 0 -50 0 -50 -400 0 -400 0 0 65 0
65 455 0 455 0 0 -255z m-60 175 l0 -30 -10 0 -10 0 0 30 0 30 10 0 10 0 0
-30z m-80 -335 l0 -255 -440 0 -440 0 0 255 0 255 440 0 440 0 0 -255z"/>
<path d="M290 1000 l0 -10 70 0 70 0 0 10 0 10 -70 0 -70 0 0 -10z"/>
<path d="M290 945 l0 -15 40 0 40 0 0 15 0 15 -40 0 -40 0 0 -15z"/>
<path d="M190 840 l0 -10 40 0 40 0 0 10 0 10 -40 0 -40 0 0 -10z"/>
<path d="M190 785 l0 -15 80 0 80 0 0 15 0 15 -80 0 -80 0 0 -15z"/>
<path d="M80 680 l0 -10 80 0 80 0 0 10 0 10 -80 0 -80 0 0 -10z"/>
<path d="M830 640 l0 -50 40 0 40 0 0 50 0 50 -40 0 -40 0 0 -50z m50 0 l0
-30 -15 0 -15 0 0 30 0 30 15 0 15 0 0 -30z"/>
<path d="M80 625 l0 -15 40 0 40 0 0 15 0 15 -40 0 -40 0 0 -15z"/>
<path d="M190 625 l0 -15 25 0 25 0 0 15 0 15 -25 0 -25 0 0 -15z"/>
<path d="M80 575 l0 -15 40 0 40 0 0 15 0 15 -40 0 -40 0 0 -15z"/>
<path d="M370 520 l0 -10 55 0 55 0 0 10 0 10 -55 0 -55 0 0 -10z"/>
<path d="M510 520 l0 -10 90 0 90 0 0 10 0 10 -90 0 -90 0 0 -10z"/>
<path d="M370 465 l0 -15 40 0 40 0 0 15 0 15 -40 0 -40 0 0 -15z"/>
<path d="M480 465 l0 -15 55 0 55 0 0 15 0 15 -55 0 -55 0 0 -15z"/>
<path d="M610 465 l0 -15 70 0 70 0 0 15 0 15 -70 0 -70 0 0 -15z"/>
<path d="M370 415 l0 -15 120 0 120 0 0 15 0 15 -120 0 -120 0 0 -15z"/>
<path d="M640 415 l0 -15 25 0 25 0 0 15 0 15 -25 0 -25 0 0 -15z"/>
<path d="M720 415 l0 -15 55 0 55 0 0 15 0 15 -55 0 -55 0 0 -15z"/>
</g>
</svg>
