<?xml version="1.0" standalone="no"?>
<!DOCTYPE svg PUBLIC "-//W3C//DTD SVG 20010904//EN"
 "http://www.w3.org/TR/2001/REC-SVG-20010904/DTD/svg10.dtd">
<svg version="1.0" xmlns="http://www.w3.org/2000/svg"
 width="468pt" height="468pt" viewBox="0 0 468 468"
 preserveAspectRatio="xMidYMid meet">
<metadata>
Created by potrace 1.8, written by Peter Selinger 2001-2007
</metadata>
<g transform="translate(0,468) scale(0.365625,-0.365625)"
fill="#000000" stroke="none">
<path d="M523 1253 l-43 -4 0 -8 0 -8 -31 -7 -32 -6 -23 -25 -23 -25 -9 0 -10
0 -56 -55 -56 -55 -6 -25 -6 -25 -8 0 -7 0 -7 -70 -7 -70 -10 0 -9 0 0 -75 0
-75 9 0 9 0 5 -30 6 -29 26 -7 25 -6 0 -8 0 -8 -53 -4 -52 -4 -23 -19 -22 -19
0 -248 0 -248 -55 0 -55 0 0 -45 0 -45 640 0 640 0 0 45 0 45 -70 0 -70 0 -20
17 -20 17 0 53 0 53 -10 0 -10 0 0 -54 0 -54 15 -6 15 -5 0 -11 0 -10 -349 0
-349 0 -5 13 -5 12 -9 -11 -8 -12 -12 13 -12 14 12 5 12 6 -12 6 -13 6 15 14
14 15 -5 14 -6 15 16 0 16 0 0 -10 0 -9 35 -7 35 -6 0 -9 0 -8 60 -7 60 -7 0
-8 0 -9 75 0 75 0 0 9 0 9 45 6 45 7 0 9 0 9 21 6 21 7 21 21 22 22 0 58 0 58
-11 7 -11 7 -7 15 -6 15 6 -30 5 -30 10 -3 9 -4 0 -39 0 -39 -10 0 -10 0 0
-15 0 -16 -17 -6 -18 -7 -13 -13 -13 -13 -30 0 -29 0 0 -10 0 -10 -30 0 -30 0
0 13 0 12 -10 -15 -10 -15 -9 14 -9 13 -5 -13 -5 -14 -11 15 -10 15 -23 1 -22
1 -4 12 -4 11 -14 -15 -15 -14 -14 5 -15 6 0 9 0 9 10 0 10 0 0 -12 0 -11 6 6
7 7 -65 64 -66 65 4 30 4 30 -18 10 -17 11 15 10 15 10 -17 0 -18 0 0 -20 0
-20 -9 0 -9 0 -4 -57 -5 -57 -11 -4 -12 -4 0 -37 0 -38 -6 -47 -7 -46 -98 0
-99 0 0 10 0 10 13 0 12 0 -15 10 -15 10 14 9 13 9 -13 5 -14 5 14 10 13 10
-13 5 -14 5 14 10 13 10 -13 6 -14 6 14 6 13 6 -13 9 -14 9 14 9 13 9 -13 5
-14 5 14 10 13 10 -13 5 -14 5 14 10 13 10 -13 5 -14 5 14 10 13 10 -13 5 -14
5 14 10 13 10 -13 5 -14 5 14 10 13 10 -13 5 -14 5 14 10 13 10 -13 5 -14 5
14 10 13 10 -13 5 -14 5 14 10 13 10 -13 5 -14 5 14 10 13 10 -13 4 -14 5 28
26 29 26 14 -6 14 -5 6 16 6 16 39 0 39 0 0 -9 0 -10 45 -7 45 -6 0 -9 0 -9
80 0 80 0 0 9 0 9 45 6 45 7 0 10 0 9 25 0 25 0 0 15 0 15 -17 1 -18 2 -62 -3
-62 -2 -51 7 -50 7 0 14 0 14 29 -4 29 -3 13 8 13 8 -7 8 -8 7 -8 -13 -9 -13
-6 13 -6 14 -6 -12 -5 -12 -13 11 -13 12 11 12 10 11 13 -12 12 -13 30 4 30 4
10 -18 11 -17 9 14 9 13 6 -13 6 -14 6 13 6 12 14 0 14 0 0 -14 0 -14 -12 -5
-13 -4 9 -9 9 -9 4 13 5 12 14 0 14 0 0 -9 0 -9 26 -6 26 -7 21 -23 22 -22 18
-7 17 -6 0 -10 0 -9 30 -7 30 -7 0 -8 0 -8 30 -7 30 -7 0 -9 0 -9 40 -6 40 -7
0 -7 0 -8 -22 -6 -23 -6 -47 0 -48 0 0 -10 0 -9 36 -7 36 -7 51 6 50 6 8 13 8
12 36 0 36 0 7 -11 7 -10 23 -7 22 -7 0 -10 0 -9 -12 0 -13 0 15 -10 15 -10
-11 -7 -12 -8 14 -13 14 -13 0 11 0 10 10 0 10 0 0 -25 0 -25 -10 0 -10 0 0
-15 0 -15 -17 -1 -18 -1 -10 2 -9 1 -14 -18 -13 -18 -9 15 -10 15 0 -11 0 -12
-15 -6 -15 -5 -19 20 -19 21 -10 -6 -10 -6 -33 32 -32 32 8 -23 7 -24 26 -24
25 -23 13 0 12 0 4 -11 4 -11 28 -1 28 0 7 10 6 10 32 6 32 6 20 20 19 19 7
24 8 23 8 5 7 5 7 28 7 27 -21 0 -21 0 0 9 0 9 -25 6 -25 6 0 10 0 10 -15 0
-15 0 0 14 0 13 40 7 40 6 0 10 0 10 18 1 17 1 -12 5 -13 5 0 14 0 13 -17 -6
-18 -7 -7 -10 -7 -10 -81 -1 -81 0 -7 11 -7 11 -25 8 -24 8 -16 15 -15 16 0
48 0 49 12 7 11 7 7 28 7 27 9 0 8 0 7 35 6 35 9 0 9 0 0 60 0 60 -9 0 -9 0
-7 55 -6 55 -10 0 -9 0 0 19 0 20 -16 15 -15 16 10 0 11 0 0 10 0 10 -17 20
-17 20 -13 0 -13 0 0 9 0 10 -22 7 -23 7 -7 10 -6 10 -134 3 -133 2 -42 -5z
m317 -162 l0 -9 25 -6 25 -6 0 -40 0 -40 -42 0 -43 0 -15 -10 -14 -9 8 -8 9
-8 4 13 5 12 35 0 35 0 -6 -27 -5 -28 5 13 6 12 9 0 9 0 0 -45 0 -45 -9 0 -10
0 -6 -22 -7 -21 -26 -24 -25 -23 -13 0 -14 0 0 -9 0 -9 -30 -7 -30 -7 0 -9 0
-9 -64 0 -64 0 -4 10 -3 10 -38 2 -37 1 0 13 0 13 -17 9 -16 10 27 25 27 25
-13 6 -13 6 12 6 12 5 -12 13 -12 13 -38 -39 -39 -40 -5 5 -5 5 42 41 42 41
10 0 9 0 27 28 27 29 53 -3 52 -3 0 15 0 14 -24 0 -24 0 -5 -12 -5 -13 -1 19
-1 19 44 -5 45 -5 -13 12 -12 13 -18 3 -19 4 39 42 39 41 58 1 57 1 0 -9z
m-336 -247 l-2 -26 -19 -14 -18 -14 19 -15 20 -15 -6 -6 -6 -6 -21 21 -21 21
26 25 27 25 -9 0 -9 0 -25 -26 -24 -26 19 -14 19 -14 -6 -6 -6 -6 -21 21 -21
21 41 40 41 40 3 0 2 0 -3 -26z m-304 -230 l0 -5 -29 -27 -28 -27 1 -223 1
-224 -7 -11 -7 -11 -8 8 -8 9 14 5 13 4 -13 10 -14 10 14 5 13 5 -13 10 -14
10 14 5 13 5 -13 9 -14 9 14 9 13 9 -13 6 -14 6 14 6 13 6 -13 9 -14 9 14 9
13 9 -13 6 -14 6 14 6 13 6 -13 10 -14 10 14 5 13 5 -13 10 -14 10 14 5 13 5
-13 10 -14 10 14 5 13 5 -13 10 -14 10 14 5 13 5 -13 10 -14 10 14 5 13 5 -13
10 -14 10 14 5 13 5 -13 10 -14 10 14 5 13 5 -13 10 -14 10 14 5 13 5 -13 9
-14 8 20 15 20 14 -8 8 -7 7 0 -11 0 -12 -10 0 -10 0 0 10 0 10 25 6 25 6 0 9
0 9 15 0 15 0 0 -6z m30 -4 l0 -10 -10 0 -10 0 0 10 0 10 10 0 10 0 0 -10z
m990 -214 l0 -11 10 15 9 14 7 -7 7 -7 -5 -6 -6 -6 -24 -2 -24 -3 0 17 0 18
13 -5 13 -5 0 -12z m-780 -26 l0 -10 -12 0 -13 0 15 -11 15 -11 -12 -5 -13 -5
60 -59 59 -60 -6 -14 -5 -15 -8 0 -8 0 -6 16 -6 16 -13 -5 -14 -5 -14 8 -13 9
8 8 9 8 5 -14 4 -13 9 13 9 14 11 -17 10 -18 10 0 10 0 -51 52 -52 53 -14 -19
-14 -20 -7 8 -7 7 14 9 15 9 1 28 2 28 1 13 1 12 10 0 10 0 0 -10z m15 -106
l25 -27 0 -4 0 -4 -12 7 -11 7 -13 -17 -12 -18 -21 21 -21 21 18 19 17 19 3 1
3 1 24 -26z m588 12 l6 -15 -15 6 -14 5 0 9 0 9 9 0 9 0 5 -14z m117 4 l0 -10
-10 0 -10 0 0 10 0 10 10 0 10 0 0 -10z m-540 -121 l0 -9 -9 0 -9 0 -5 14 -6
15 15 -6 14 -5 0 -9z m30 1 l0 -10 -10 0 -10 0 0 10 0 10 10 0 10 0 0 -10z"/>
<path d="M807 953 l-7 -6 0 -9 0 -8 20 0 20 0 0 15 0 15 -13 0 -14 0 -6 -7z"/>
<path d="M740 943 l0 -9 20 -17 20 -17 0 -15 0 -15 10 0 10 0 0 11 0 11 -30
30 -30 30 0 -9z"/>
<path d="M688 863 l13 -5 6 6 6 6 -19 -1 -19 -1 13 -5z"/>
<path d="M748 863 l13 -5 6 6 6 6 -19 -1 -19 -1 13 -5z"/>
<path d="M590 821 l0 -9 20 -5 20 -5 57 3 58 2 -42 -4 -43 -4 0 -10 0 -9 55 0
55 0 0 9 0 10 18 4 17 5 -17 1 -18 1 0 10 0 10 -90 0 -90 0 0 -9z"/>
<path d="M414 259 l-6 -11 11 -11 11 -11 11 11 11 11 -6 11 -7 11 -9 0 -9 0
-7 -11z m26 -9 l0 -10 -10 0 -10 0 0 10 0 10 10 0 10 0 0 -10z"/>
<path d="M540 700 l0 -10 10 0 10 0 0 10 0 10 -10 0 -10 0 0 -10z"/>
<path d="M737 298 l-19 -20 5 -5 5 -5 21 21 21 21 0 5 0 5 -7 -1 -8 -1 -18
-20z"/>
<path d="M753 284 l-33 -34 21 -21 21 -21 6 6 6 6 -20 15 -19 14 33 30 32 30
0 5 0 6 -7 -1 -8 -1 -32 -34z"/>
<path d="M793 294 l-22 -26 5 -13 6 -13 12 -5 13 -5 14 9 14 8 -20 15 -20 15
13 13 13 13 15 -19 14 -20 6 6 6 6 -21 21 -21 21 -2 -1 -3 0 -22 -25z"/>
<path d="M810 284 l0 -7 18 -13 17 -14 -19 -15 -20 -15 6 -6 6 -6 21 21 21 21
-20 20 -20 20 -5 0 -5 0 0 -6z"/>
<path d="M750 255 l0 -5 21 -21 21 -21 5 5 5 5 -21 21 -21 21 -5 0 -5 0 0 -5z"/>
<path d="M389 163 l-1 -8 -2 -22 -3 -21 14 5 13 5 0 8 0 8 -12 5 -13 5 13 1
12 1 0 10 0 10 -10 0 -10 0 -1 -7z"/>
</g>
</svg>
