<?xml version="1.0" standalone="no"?>
<!DOCTYPE svg PUBLIC "-//W3C//DTD SVG 20010904//EN"
 "http://www.w3.org/TR/2001/REC-SVG-20010904/DTD/svg10.dtd">
<svg version="1.0" xmlns="http://www.w3.org/2000/svg"
 width="468pt" height="468pt" viewBox="0 0 468 468"
 preserveAspectRatio="xMidYMid meet">
<metadata>
Created by potrace 1.8, written by Peter Selinger 2001-2007
</metadata>
<g transform="translate(0,468) scale(0.365625,-0.365625)"
fill="#000000" stroke="none">
<path d="M130 1240 l0 -10 -40 0 -40 0 0 -15 0 -15 -10 0 -10 0 0 -15 0 -15
25 0 25 0 0 15 0 15 25 0 25 0 0 -15 0 -15 15 0 15 0 0 -10 0 -10 55 0 55 0 0
10 0 10 -15 0 -15 0 0 15 0 15 160 0 160 0 0 -15 0 -15 15 0 15 0 0 -25 0 -25
10 0 10 0 0 -25 0 -25 15 0 15 0 0 -15 0 -15 -25 0 -25 0 0 15 0 15 -15 0 -15
0 0 -15 0 -15 -15 0 -15 0 0 15 0 15 -10 0 -10 0 0 -15 0 -15 -15 0 -15 0 0
15 0 15 -15 0 -15 0 0 -15 0 -15 -10 0 -10 0 0 15 0 15 -15 0 -15 0 0 -15 0
-15 -15 0 -15 0 0 15 0 15 -10 0 -10 0 0 -15 0 -15 -15 0 -15 0 0 15 0 15 -15
0 -15 0 0 -15 0 -15 -10 0 -10 0 0 15 0 15 -15 0 -15 0 0 -15 0 -15 -15 0 -15
0 0 15 0 15 -10 0 -10 0 0 -15 0 -15 -15 0 -15 0 0 15 0 15 -15 0 -15 0 0 25
0 25 -10 0 -10 0 0 25 0 25 -15 0 -15 0 0 -25 0 -25 15 0 15 0 0 -15 0 -15
-15 0 -15 0 0 15 0 15 -15 0 -15 0 0 11 0 10 -14 15 -15 14 -10 0 -11 0 0
-200 0 -200 11 0 10 0 15 -14 14 -15 0 -10 0 -11 15 0 15 0 0 -15 0 -15 15 0
15 0 0 40 0 40 -15 0 -15 0 0 -10 0 -10 -11 0 -10 0 -15 14 -14 15 0 155 0
156 10 0 10 0 0 -10 0 -10 15 0 15 0 0 -15 0 -15 15 0 15 0 0 -15 0 -15 10 0
10 0 0 -159 0 -159 -12 -6 -13 -6 13 -6 12 -6 0 -14 0 -14 -65 0 -65 0 0 -320
0 -320 640 0 640 0 0 320 0 320 -15 0 -15 0 0 215 0 215 -10 0 -10 0 0 25 0
25 -15 0 -15 0 0 25 0 25 -11 0 -10 0 -15 -14 -14 -15 0 -10 0 -11 25 0 25 0
0 -15 0 -15 -15 0 -15 0 0 -10 0 -10 30 0 30 0 0 -15 0 -15 -280 0 -280 0 0
25 0 25 -15 0 -15 0 0 30 0 30 -15 0 -15 0 0 25 0 25 -10 0 -10 0 0 15 0 15
280 0 280 0 0 -15 0 -15 -15 0 -15 0 0 -15 0 -15 25 0 25 0 0 26 0 25 -14 15
-15 14 -290 0 -291 0 0 -10 0 -10 -160 0 -160 0 0 10 0 10 -55 0 -55 0 0 -10z
m80 -40 l0 -30 -10 0 -10 0 0 15 0 15 -15 0 -15 0 0 15 0 15 25 0 25 0 0 -30z
m320 -225 l0 -15 -10 0 -10 0 0 -15 0 -15 10 0 10 0 0 15 0 15 30 0 30 0 0
-15 0 -15 10 0 10 0 0 15 0 15 -10 0 -10 0 0 15 0 15 40 0 40 0 0 -160 0 -160
-15 0 -15 0 0 105 0 105 -15 0 -15 0 0 15 0 15 -50 0 -50 0 0 -15 0 -15 -15 0
-15 0 0 -105 0 -105 -14 0 -14 0 -6 13 -6 12 -6 -12 -6 -13 -29 0 -29 0 0 25
0 25 -10 0 -10 0 0 -25 0 -25 -15 0 -15 0 0 10 0 10 -15 0 -15 0 0 15 0 15
-10 0 -10 0 0 -15 0 -15 10 0 10 0 0 -10 0 -10 -25 0 -25 0 0 10 0 10 -15 0
-15 0 0 15 0 15 -10 0 -10 0 0 -15 0 -15 10 0 10 0 0 -10 0 -10 -25 0 -25 0 0
160 0 160 185 0 185 0 0 -15z m540 0 l0 -15 -15 0 -15 0 0 -15 0 -15 15 0 15
0 0 15 0 15 40 0 40 0 0 -15 0 -15 10 0 10 0 0 15 0 15 -10 0 -10 0 0 15 0 15
40 0 40 0 0 -160 0 -160 -15 0 -15 0 0 90 0 90 -15 0 -15 0 0 15 0 15 -10 0
-10 0 0 15 0 15 -40 0 -40 0 0 -15 0 -15 10 0 10 0 0 -105 0 -105 -25 0 -25 0
0 90 0 90 15 0 15 0 0 15 0 15 -15 0 -15 0 0 -15 0 -15 -15 0 -15 0 0 -90 0
-90 -10 0 -10 0 0 25 0 25 -15 0 -15 0 0 -25 0 -25 -25 0 -25 0 0 10 0 10 10
0 10 0 0 15 0 15 -10 0 -10 0 0 -15 0 -15 -15 0 -15 0 0 -10 0 -10 -15 0 -15
0 0 25 0 25 -10 0 -10 0 0 -25 0 -25 -15 0 -15 0 0 25 0 25 -15 0 -15 0 0 15
0 15 -10 0 -10 0 0 -15 0 -15 10 0 10 0 0 -25 0 -25 -10 0 -10 0 0 10 0 10
-15 0 -15 0 0 -10 0 -10 -15 0 -15 0 0 160 0 160 190 0 190 0 0 -15z m-480
-190 l0 -95 -40 0 -40 0 0 40 0 40 10 0 10 0 0 15 0 15 -10 0 -10 0 0 40 0 40
40 0 40 0 0 -95z m560 80 l0 -15 10 0 10 0 0 -90 0 -90 -25 0 -25 0 0 40 0 40
15 0 15 0 0 10 0 10 -15 0 -15 0 0 55 0 55 15 0 15 0 0 -15z m-540 -210 l0
-15 -50 0 -50 0 0 15 0 15 50 0 50 0 0 -15z"/>
<path d="M240 945 l0 -15 -15 0 -15 0 0 -65 0 -65 55 0 55 0 0 65 0 65 -15 0
-15 0 0 15 0 15 -25 0 -25 0 0 -15z m30 -55 l0 -40 -15 0 -15 0 0 40 0 40 15
0 15 0 0 -40z"/>
<path d="M370 945 l0 -15 -10 0 -10 0 0 -65 0 -65 50 0 50 0 0 65 0 65 -10 0
-10 0 0 15 0 15 -30 0 -30 0 0 -15z m30 -55 l0 -40 -15 0 -15 0 0 40 0 40 15
0 15 0 0 -40z"/>
<path d="M400 705 l0 -15 15 0 15 0 0 15 0 15 -15 0 -15 0 0 -15z"/>
<path d="M770 945 l0 -15 -10 0 -10 0 0 -50 0 -50 50 0 50 0 0 50 0 50 -10 0
-10 0 0 15 0 15 -30 0 -30 0 0 -15z m30 -40 l0 -25 -15 0 -15 0 0 25 0 25 15
0 15 0 0 -25z"/>
<path d="M910 945 l0 -15 10 0 10 0 0 -25 0 -25 -10 0 -10 0 0 25 0 25 -15 0
-15 0 0 -50 0 -50 55 0 55 0 0 50 0 50 -15 0 -15 0 0 15 0 15 -25 0 -25 0 0
-15z"/>
<path d="M640 1185 l0 -15 15 0 15 0 0 15 0 15 -15 0 -15 0 0 -15z"/>
<path d="M690 1185 l0 -15 15 0 15 0 0 15 0 15 -15 0 -15 0 0 -15z"/>
<path d="M750 1185 l0 -15 10 0 10 0 0 15 0 15 -10 0 -10 0 0 -15z"/>
<path d="M800 1185 l0 -15 15 0 15 0 0 15 0 15 -15 0 -15 0 0 -15z"/>
<path d="M850 1185 l0 -15 15 0 15 0 0 15 0 15 -15 0 -15 0 0 -15z"/>
<path d="M910 1185 l0 -15 10 0 10 0 0 15 0 15 -10 0 -10 0 0 -15z"/>
<path d="M960 1185 l0 -15 15 0 15 0 0 15 0 15 -15 0 -15 0 0 -15z"/>
<path d="M1010 1185 l0 -15 15 0 15 0 0 15 0 15 -15 0 -15 0 0 -15z"/>
<path d="M1070 1185 l0 -15 10 0 10 0 0 15 0 15 -10 0 -10 0 0 -15z"/>
<path d="M290 1160 l0 -10 15 0 15 0 0 10 0 10 -15 0 -15 0 0 -10z"/>
<path d="M350 1160 l0 -10 10 0 10 0 0 10 0 10 -10 0 -10 0 0 -10z"/>
<path d="M400 1160 l0 -10 15 0 15 0 0 10 0 10 -15 0 -15 0 0 -10z"/>
<path d="M450 1160 l0 -10 15 0 15 0 0 10 0 10 -15 0 -15 0 0 -10z"/>
<path d="M510 1160 l0 -10 10 0 10 0 0 10 0 10 -10 0 -10 0 0 -10z"/>
<path d="M670 1135 l0 -15 10 0 10 0 0 15 0 15 -10 0 -10 0 0 -15z"/>
<path d="M720 1135 l0 -15 15 0 15 0 0 15 0 15 -15 0 -15 0 0 -15z"/>
<path d="M770 1135 l0 -15 15 0 15 0 0 15 0 15 -15 0 -15 0 0 -15z"/>
<path d="M830 1135 l0 -15 10 0 10 0 0 15 0 15 -10 0 -10 0 0 -15z"/>
<path d="M880 1135 l0 -15 15 0 15 0 0 15 0 15 -15 0 -15 0 0 -15z"/>
<path d="M930 1135 l0 -15 15 0 15 0 0 15 0 15 -15 0 -15 0 0 -15z"/>
<path d="M990 1135 l0 -15 10 0 10 0 0 15 0 15 -10 0 -10 0 0 -15z"/>
<path d="M1040 1135 l0 -15 15 0 15 0 0 15 0 15 -15 0 -15 0 0 -15z"/>
<path d="M1090 1135 l0 -15 15 0 15 0 0 15 0 15 -15 0 -15 0 0 -15z"/>
<path d="M160 1105 l0 -15 15 0 15 0 0 15 0 15 -15 0 -15 0 0 -15z"/>
<path d="M210 1105 l0 -15 15 0 15 0 0 15 0 15 -15 0 -15 0 0 -15z"/>
<path d="M270 1105 l0 -15 10 0 10 0 0 15 0 15 -10 0 -10 0 0 -15z"/>
<path d="M320 1105 l0 -15 15 0 15 0 0 15 0 15 -15 0 -15 0 0 -15z"/>
<path d="M370 1105 l0 -15 15 0 15 0 0 15 0 15 -15 0 -15 0 0 -15z"/>
<path d="M430 1105 l0 -15 10 0 10 0 0 15 0 15 -10 0 -10 0 0 -15z"/>
<path d="M480 1105 l0 -15 15 0 15 0 0 15 0 15 -15 0 -15 0 0 -15z"/>
<path d="M530 1105 l0 -15 15 0 15 0 0 15 0 15 -15 0 -15 0 0 -15z"/>
<path d="M690 1080 l0 -10 15 0 15 0 0 10 0 10 -15 0 -15 0 0 -10z"/>
<path d="M750 1080 l0 -10 10 0 10 0 0 10 0 10 -10 0 -10 0 0 -10z"/>
<path d="M800 1080 l0 -10 15 0 15 0 0 10 0 10 -15 0 -15 0 0 -10z"/>
<path d="M850 1080 l0 -10 15 0 15 0 0 10 0 10 -15 0 -15 0 0 -10z"/>
<path d="M910 1080 l0 -10 10 0 10 0 0 10 0 10 -10 0 -10 0 0 -10z"/>
<path d="M960 1080 l0 -10 15 0 15 0 0 10 0 10 -15 0 -15 0 0 -10z"/>
<path d="M1010 1080 l0 -10 15 0 15 0 0 10 0 10 -15 0 -15 0 0 -10z"/>
<path d="M1070 1080 l0 -10 10 0 10 0 0 10 0 10 -10 0 -10 0 0 -10z"/>
<path d="M1120 1080 l0 -10 15 0 15 0 0 10 0 10 -15 0 -15 0 0 -10z"/>
<path d="M50 960 l0 -80 15 0 15 0 0 -15 0 -15 15 0 15 0 0 80 0 80 -15 0 -15
0 0 15 0 15 -15 0 -15 0 0 -80z"/>
<path d="M50 815 l0 -15 15 0 15 0 0 15 0 15 -15 0 -15 0 0 -15z"/>
</g>
</svg>
