<?xml version="1.0" standalone="no"?>
<!DOCTYPE svg PUBLIC "-//W3C//DTD SVG 20010904//EN"
 "http://www.w3.org/TR/2001/REC-SVG-20010904/DTD/svg10.dtd">
<svg version="1.0" xmlns="http://www.w3.org/2000/svg"
 width="468pt" height="468pt" viewBox="0 0 468 468"
 preserveAspectRatio="xMidYMid meet">
<metadata>
Created by potrace 1.8, written by Peter Selinger 2001-2007
</metadata>
<g transform="translate(0,468) scale(0.365625,-0.365625)"
fill="#000000" stroke="none">
<path d="M350 1105 l0 -55 -60 0 -60 0 0 -175 0 -175 60 0 60 0 0 -60 0 -60
60 0 60 0 0 60 0 60 55 0 55 0 0 -60 0 -60 60 0 60 0 0 60 0 60 55 0 55 0 0
55 0 55 -55 0 -55 0 0 60 0 60 55 0 55 0 0 115 0 115 -230 0 -230 0 0 -55z
m120 -115 l0 -60 55 0 55 0 0 60 0 60 60 0 60 0 0 -60 0 -60 -60 0 -60 0 0
-60 0 -60 60 0 60 0 0 -55 0 -55 -60 0 -60 0 0 55 0 55 -55 0 -55 0 0 -55 0
-55 -60 0 -60 0 0 55 0 55 60 0 60 0 0 60 0 60 -60 0 -60 0 0 60 0 60 60 0 60
0 0 -60z"/>
<path d="M120 235 l0 -115 55 0 55 0 0 -60 0 -60 175 0 175 0 0 60 0 60 60 0
60 0 0 -60 0 -60 55 0 55 0 0 60 0 60 -55 0 -55 0 0 55 0 55 55 0 55 0 0 60 0
60 -345 0 -345 0 0 -115z m230 -60 l0 -55 -60 0 -60 0 0 55 0 55 60 0 60 0 0
-55z m230 0 l0 -55 -55 0 -55 0 0 55 0 55 55 0 55 0 0 -55z"/>
</g>
</svg>
