<?xml version="1.0" standalone="no"?>
<!DOCTYPE svg PUBLIC "-//W3C//DTD SVG 20010904//EN"
 "http://www.w3.org/TR/2001/REC-SVG-20010904/DTD/svg10.dtd">
<svg version="1.0" xmlns="http://www.w3.org/2000/svg"
 width="468pt" height="468pt" viewBox="0 0 468 468"
 preserveAspectRatio="xMidYMid meet">
<metadata>
Created by potrace 1.8, written by Peter Selinger 2001-2007
</metadata>
<g transform="translate(0,468) scale(0.365625,-0.365625)"
fill="#000000" stroke="none">
<path d="M620 1190 l0 -10 -30 0 -30 0 0 -10 0 -10 -30 0 -30 0 0 -10 0 -10
-30 0 -30 0 0 -10 0 -10 -30 0 -30 0 0 -10 0 -10 -20 0 -20 0 0 -10 0 -10 -30
0 -30 0 0 -10 0 -10 -15 0 -16 0 -34 -35 -35 -34 0 -16 0 -15 -10 0 -10 0 0
-20 0 -20 -10 0 -10 0 0 -40 0 -40 -10 0 -10 0 0 -190 0 -190 110 0 110 0 0
-210 0 -210 90 0 90 0 0 10 0 10 20 0 20 0 0 10 0 10 20 0 20 0 0 10 0 10 19
0 19 0 6 13 6 12 6 -12 6 -13 69 0 69 0 0 10 0 10 30 0 30 0 0 10 0 10 20 0
20 0 0 10 0 10 20 0 20 0 0 10 0 10 15 0 16 0 44 45 45 44 0 16 0 15 10 0 10
0 0 20 0 20 -70 0 -70 0 0 -10 0 -10 39 0 39 0 5 -12 5 -13 11 15 10 14 8 -8
8 -9 -12 -4 -13 -5 0 -14 0 -15 -35 -34 -34 -35 -16 0 -15 0 0 -10 0 -10 -20
0 -20 0 0 -10 0 -10 -20 0 -20 0 0 -10 0 -10 -30 0 -30 0 0 -10 0 -10 -70 0
-70 0 0 5 0 5 75 75 75 75 15 0 15 0 0 10 0 10 20 0 20 0 0 10 0 10 20 0 20 0
0 10 0 10 -20 0 -20 0 0 20 0 20 10 0 10 0 0 16 0 15 14 15 15 14 13 0 14 0
14 -20 14 -20 14 0 13 0 15 14 14 15 0 11 0 12 30 28 30 28 0 12 0 11 -14 15
-15 14 -15 0 -16 0 0 10 0 10 10 0 10 0 0 26 0 25 -14 15 -15 14 -21 0 -21 0
-15 -14 -14 -15 0 -15 0 -16 -26 0 -25 0 -15 14 -14 15 0 5 0 6 20 0 20 0 0
160 0 160 -10 0 -10 0 0 30 0 30 -10 0 -10 0 0 20 0 20 -10 0 -10 0 0 15 0 16
-35 34 -34 35 -16 0 -15 0 0 10 0 10 -30 0 -30 0 0 10 0 10 -40 0 -40 0 0 -10z
m80 -20 l0 -10 30 0 30 0 0 -10 0 -10 15 0 16 0 24 -25 25 -24 0 -16 0 -15 10
0 10 0 0 -20 0 -20 10 0 10 0 0 -30 0 -30 10 0 10 0 0 -136 0 -135 -14 -15
-15 -14 -15 0 -16 0 0 -10 0 -10 -20 0 -20 0 0 -10 0 -10 -20 0 -20 0 0 -10 0
-10 -20 0 -20 0 0 -10 0 -10 -20 0 -20 0 0 -10 0 -10 -20 0 -20 0 0 -10 0 -10
-20 0 -20 0 0 -10 0 -10 -10 0 -10 0 0 160 0 160 -10 0 -10 0 0 40 0 40 -10 0
-10 0 0 20 0 20 -10 0 -10 0 0 15 0 16 -35 34 -34 35 -16 0 -15 0 0 10 0 10
-20 0 -20 0 0 10 0 10 30 0 30 0 0 10 0 10 30 0 30 0 0 10 0 10 30 0 30 0 0
10 0 10 30 0 30 0 0 10 0 10 40 0 40 0 0 -10z m-280 -120 l0 -10 15 0 16 0 24
-25 25 -24 0 -16 0 -15 10 0 10 0 0 -20 0 -20 10 0 10 0 0 -40 0 -40 10 0 10
0 0 -170 0 -170 -210 0 -210 0 0 170 0 170 10 0 10 0 0 40 0 40 10 0 10 0 0
20 0 20 10 0 10 0 0 15 0 16 25 24 24 25 16 0 15 0 0 10 0 10 70 0 70 0 0 -10z
m620 -435 l0 -26 -25 -24 -24 -25 -16 0 -15 0 0 30 0 30 10 0 10 0 0 20 0 20
30 0 30 0 0 -25z m-180 -5 l0 -10 20 0 20 0 0 -10 0 -10 20 0 20 0 0 -20 0
-20 -26 0 -25 0 -15 14 -14 15 0 15 0 16 -10 0 -10 0 0 -18 0 -18 20 -14 20
-14 0 -8 0 -8 -16 0 -15 0 -15 -14 -14 -15 0 -11 0 -11 14 -15 15 -14 25 0 26
0 0 -10 0 -10 -10 0 -10 0 0 -20 0 -20 -10 0 -10 0 0 -19 0 -19 13 -5 12 -4
-8 -9 -8 -8 -9 13 -8 14 -91 -92 -90 -91 -6 0 -5 0 0 176 0 175 14 15 15 14
15 0 16 0 0 10 0 10 20 0 20 0 0 10 0 10 20 0 20 0 0 10 0 10 20 0 20 0 0 10
0 10 10 0 10 0 0 -10z m220 -86 l0 -15 -14 -15 -15 -14 -11 0 -11 0 -15 14
-14 15 0 15 0 16 40 0 40 0 0 -16z m-140 -34 l0 -30 -50 0 -50 0 0 20 0 20 20
0 20 0 0 10 0 10 30 0 30 0 0 -30z m-300 -180 l0 -190 -20 0 -20 0 0 -10 0
-10 -20 0 -20 0 0 -10 0 -10 -20 0 -20 0 0 190 0 190 28 0 28 0 14 20 14 20
18 0 18 0 0 -190z m366 176 l14 -15 0 -25 0 -26 -16 0 -15 0 -15 14 -14 15 0
25 0 26 16 0 15 0 15 -14z m-506 -226 l0 -200 -70 0 -70 0 0 200 0 200 70 0
70 0 0 -200z"/>
<path d="M820 910 l0 -10 -20 0 -20 0 0 -10 0 -10 -20 0 -20 0 0 -10 0 -10
-20 0 -20 0 0 -10 0 -10 -20 0 -20 0 0 -10 0 -10 -20 0 -20 0 0 -20 0 -20 20
0 20 0 0 20 0 20 20 0 20 0 0 10 0 10 20 0 20 0 0 10 0 10 10 0 10 0 0 -70 0
-70 10 0 10 0 0 10 0 10 20 0 20 0 0 10 0 10 20 0 20 0 0 80 0 80 -20 0 -20 0
0 -10z"/>
<path d="M313 1005 l-13 -14 0 -11 0 -11 14 -15 15 -14 21 0 21 0 15 14 14 15
0 11 0 11 -14 15 -15 14 -23 0 -23 -1 -12 -14z"/>
<path d="M180 800 l0 -60 10 0 10 0 0 40 0 40 10 0 10 0 0 -20 0 -20 10 0 10
0 0 20 0 20 10 0 10 0 0 -40 0 -40 10 0 10 0 0 60 0 60 -6 0 -7 0 -18 -22 -19
-21 -19 21 -18 22 -7 0 -6 0 0 -60z"/>
<path d="M323 835 l-23 -24 0 -36 0 -35 10 0 10 0 0 20 0 20 30 0 30 0 0 -20
0 -20 10 0 10 0 0 35 0 36 -25 24 -24 25 -3 -1 -3 0 -22 -24z m43 -9 l14 -15
0 -5 0 -6 -30 0 -30 0 0 5 0 6 13 14 12 14 3 1 3 0 15 -14z"/>
<path d="M420 800 l0 -60 10 0 10 0 0 60 0 60 -10 0 -10 0 0 -60z"/>
<path d="M460 800 l0 -60 40 0 40 0 0 10 0 10 -30 0 -30 0 0 50 0 50 -10 0
-10 0 0 -60z"/>
<path d="M180 690 l0 -10 180 0 180 0 0 10 0 10 -180 0 -180 0 0 -10z"/>
<path d="M180 650 l0 -10 180 0 180 0 0 10 0 10 -180 0 -180 0 0 -10z"/>
<path d="M980 290 l0 -10 -30 0 -30 0 0 -10 0 -10 -28 0 -28 0 -14 -20 -14
-20 -18 0 -18 0 0 -10 0 -10 -15 0 -16 0 -26 -26 -25 -25 6 -6 6 -6 19 21 18
22 17 0 16 0 0 10 0 10 18 0 18 0 14 20 14 20 28 0 28 0 0 10 0 10 30 0 30 0
0 10 0 10 20 0 20 0 0 10 0 10 -20 0 -20 0 0 -10z"/>
</g>
</svg>
