<?xml version="1.0" standalone="no"?>
<!DOCTYPE svg PUBLIC "-//W3C//DTD SVG 20010904//EN"
 "http://www.w3.org/TR/2001/REC-SVG-20010904/DTD/svg10.dtd">
<svg version="1.0" xmlns="http://www.w3.org/2000/svg"
 width="468pt" height="468pt" viewBox="0 0 468 468"
 preserveAspectRatio="xMidYMid meet">
<metadata>
Created by potrace 1.8, written by Peter Selinger 2001-2007
</metadata>
<g transform="translate(0,468) scale(0.365625,-0.365625)"
fill="#000000" stroke="none">
<path d="M740 1205 l0 -25 15 0 15 0 0 10 0 10 35 0 35 0 0 15 0 15 -50 0 -50
0 0 -25z"/>
<path d="M0 1190 l0 -10 25 0 25 0 0 -11 0 -10 -14 -15 -15 -14 -10 0 -11 0 0
-105 0 -105 15 0 15 0 0 -25 0 -25 -15 0 -15 0 0 -15 0 -15 15 0 15 0 0 15 0
15 10 0 10 0 0 -14 0 -14 -13 -6 -12 -6 13 -6 12 -6 0 -13 0 -13 -13 -6 -12
-6 13 -6 12 -6 0 -13 0 -13 -13 -6 -12 -6 12 -6 13 -6 0 -13 0 -13 -13 -6 -12
-6 13 -6 12 -6 0 -14 0 -14 -10 0 -10 0 0 -14 0 -14 12 -6 13 -6 -13 -6 -12
-6 0 -13 0 -13 12 -6 13 -6 -13 -6 -12 -6 0 -10 0 -9 14 -15 15 -14 10 0 11 0
0 190 0 190 -15 0 -15 0 0 25 0 25 11 0 10 0 15 -14 14 -15 0 -25 0 -26 15 0
15 0 0 -25 0 -25 10 0 10 0 0 -175 0 -175 -10 0 -10 0 0 -30 0 -30 -15 0 -15
0 0 -25 0 -25 -10 0 -10 0 0 -25 0 -25 -15 0 -15 0 0 -25 0 -25 -10 0 -10 0 0
-15 0 -15 -15 0 -15 0 0 -50 0 -50 15 0 15 0 0 -10 0 -10 50 0 50 0 0 10 0 10
25 0 25 0 0 15 0 15 25 0 25 0 0 10 0 10 25 0 25 0 0 15 0 15 25 0 25 0 0 10
0 10 15 0 15 0 0 15 0 15 -15 0 -15 0 0 -15 0 -15 -25 0 -25 0 0 -10 0 -10
-25 0 -25 0 0 -15 0 -15 -25 0 -25 0 0 -10 0 -10 -25 0 -25 0 0 -15 0 -15 -50
0 -50 0 0 11 0 10 14 15 15 14 10 0 11 0 0 11 0 10 14 15 15 14 10 0 11 0 0
15 0 15 65 0 65 0 0 15 0 15 -15 0 -15 0 0 10 0 10 -15 0 -15 0 0 15 0 15 -10
0 -10 0 0 10 0 10 65 0 65 0 0 15 0 15 -11 0 -10 0 -15 14 -14 15 0 10 0 11
-15 0 -15 0 0 15 0 15 50 0 50 0 0 10 0 10 -10 0 -10 0 0 15 0 15 -11 0 -10 0
-15 14 -14 15 0 10 0 11 50 0 50 0 0 10 0 10 -15 0 -15 0 0 11 0 10 -14 15
-15 14 -10 0 -11 0 0 30 0 30 -10 0 -10 0 0 10 0 10 60 0 60 0 0 -10 0 -10 15
0 15 0 0 -15 0 -15 15 0 15 0 0 -15 0 -15 10 0 10 0 0 -25 0 -25 15 0 15 0 0
-35 0 -35 10 0 10 0 0 -15 0 -15 15 0 15 0 0 -25 0 -25 10 0 10 0 0 -15 0 -15
-25 0 -25 0 0 -10 0 -10 -25 0 -25 0 0 -11 0 -10 -14 -15 -15 -14 -25 0 -26 0
0 -25 0 -25 -10 0 -10 0 0 -15 0 -15 10 0 10 0 0 -15 0 -15 30 0 30 0 0 -25 0
-25 -15 0 -15 0 0 -35 0 -35 15 0 15 0 0 35 0 35 10 0 10 0 0 15 0 15 40 0 40
0 0 10 0 10 35 0 35 0 0 -10 0 -10 15 0 15 0 0 -15 0 -15 11 0 10 0 15 -14 14
-15 0 -10 0 -11 25 0 25 0 0 -10 0 -10 155 0 155 0 0 10 0 10 90 0 90 0 0 -10
0 -10 25 0 25 0 0 10 0 10 -25 0 -25 0 0 11 0 10 14 15 15 14 10 0 11 0 0 105
0 105 -15 0 -15 0 0 25 0 25 15 0 15 0 0 15 0 15 -15 0 -15 0 0 -15 0 -15 -10
0 -10 0 0 14 0 14 13 6 12 6 -12 6 -13 6 0 13 0 13 13 6 12 6 -13 6 -12 6 0
13 0 13 13 6 12 6 -12 6 -13 6 0 13 0 13 12 6 13 6 -12 6 -13 6 0 14 0 14 10
0 10 0 0 14 0 14 -12 6 -13 6 12 6 13 6 0 13 0 13 -12 6 -13 6 13 6 12 6 0 10
0 9 -14 15 -15 14 -10 0 -11 0 0 -190 0 -190 15 0 15 0 0 -25 0 -25 -11 0 -10
0 -15 14 -14 15 0 25 0 26 -15 0 -15 0 0 25 0 25 -10 0 -10 0 0 175 0 175 10
0 10 0 0 30 0 30 15 0 15 0 0 25 0 25 10 0 10 0 0 25 0 25 15 0 15 0 0 25 0
25 10 0 10 0 0 15 0 15 15 0 15 0 0 50 0 50 -15 0 -15 0 0 10 0 10 -50 0 -50
0 0 -10 0 -10 -25 0 -25 0 0 -15 0 -15 -25 0 -25 0 0 -10 0 -10 -25 0 -25 0 0
-15 0 -15 -25 0 -25 0 0 -10 0 -10 -15 0 -15 0 0 -15 0 -15 15 0 15 0 0 15 0
15 25 0 25 0 0 10 0 10 25 0 25 0 0 15 0 15 25 0 25 0 0 10 0 10 25 0 25 0 0
15 0 15 50 0 50 0 0 -25 0 -25 -10 0 -10 0 0 -15 0 -15 -11 0 -10 0 -15 -14
-14 -15 0 -10 0 -11 -15 0 -15 0 0 -15 0 -15 -65 0 -65 0 0 -10 0 -10 15 0 15
0 0 -15 0 -15 11 0 10 0 15 -14 14 -15 0 -10 0 -11 -65 0 -65 0 0 -10 0 -10
15 0 15 0 0 -15 0 -15 10 0 10 0 0 -15 0 -15 15 0 15 0 0 -10 0 -10 -50 0 -50
0 0 -11 0 -10 14 -15 15 -14 10 0 11 0 0 -15 0 -15 10 0 10 0 0 -10 0 -10 -50
0 -50 0 0 -15 0 -15 11 0 10 0 15 -14 14 -15 0 -10 0 -11 15 0 15 0 0 -25 0
-25 10 0 10 0 0 -15 0 -15 15 0 15 0 0 -10 0 -10 -50 0 -50 0 0 10 0 10 -15 0
-15 0 0 11 0 10 -14 15 -15 14 -10 0 -11 0 0 30 0 30 -15 0 -15 0 0 35 0 35
-10 0 -10 0 0 15 0 15 -15 0 -15 0 0 25 0 25 -10 0 -10 0 0 50 0 50 25 0 25 0
0 11 0 10 14 15 15 14 25 0 26 0 0 25 0 25 10 0 10 0 0 15 0 15 -10 0 -10 0 0
15 0 15 -30 0 -30 0 0 25 0 25 15 0 15 0 0 35 0 35 -15 0 -15 0 0 -35 0 -35
-10 0 -10 0 0 -15 0 -15 -40 0 -40 0 0 -10 0 -10 -25 0 -25 0 0 -15 0 -15 -25
0 -25 0 0 15 0 15 -11 0 -10 0 -15 14 -14 15 0 10 0 11 -15 0 -15 0 0 10 0 10
-25 0 -25 0 0 15 0 15 -115 0 -115 0 0 10 0 10 -90 0 -90 0 0 -10 0 -10 -25 0
-25 0 0 10 0 10 -25 0 -25 0 0 -10z m280 -25 l0 -15 115 0 115 0 0 -10 0 -10
25 0 25 0 0 -15 0 -15 11 0 10 0 15 -14 14 -15 0 -10 0 -11 15 0 15 0 0 -25 0
-25 -15 0 -15 0 0 -25 0 -25 -10 0 -10 0 0 -40 0 -40 65 0 65 0 0 15 0 15 10
0 10 0 0 -40 0 -40 15 0 15 0 0 -25 0 -25 10 0 10 0 0 -15 0 -15 15 0 15 0 0
-35 0 -35 10 0 10 0 0 -30 0 -30 15 0 15 0 0 -10 0 -10 15 0 15 0 0 -11 0 -10
14 -15 15 -14 10 0 11 0 0 -15 0 -15 61 0 60 0 15 -14 14 -15 0 -10 0 -11 15
0 15 0 0 -25 0 -25 10 0 10 0 0 -15 0 -15 11 0 10 0 15 -14 14 -15 0 -10 0
-11 15 0 15 0 0 15 0 15 10 0 10 0 0 -14 0 -14 -12 -6 -13 -6 13 -6 12 -6 0
-14 0 -14 -35 0 -35 0 0 15 0 15 -65 0 -65 0 0 -15 0 -15 -25 0 -25 0 0 -10 0
-10 -25 0 -25 0 0 -15 0 -15 10 0 10 0 0 -15 0 -15 40 0 40 0 0 -10 0 -10 75
0 75 0 0 10 0 10 15 0 15 0 0 15 0 15 -15 0 -15 0 0 -15 0 -15 -75 0 -75 0 0
15 0 15 15 0 15 0 0 15 0 15 -15 0 -15 0 0 10 0 10 65 0 65 0 0 -10 0 -10 -15
0 -15 0 0 -15 0 -15 15 0 15 0 0 15 0 15 25 0 25 0 0 -15 0 -15 10 0 10 0 0
-36 0 -35 -14 -15 -15 -14 -85 0 -86 0 0 -15 0 -15 -155 0 -155 0 0 15 0 15
-21 0 -20 0 -15 14 -14 15 0 10 0 11 -15 0 -15 0 0 10 0 10 -15 0 -15 0 0 30
0 30 15 0 15 0 0 10 0 10 15 0 15 0 0 25 0 25 10 0 10 0 0 40 0 40 -65 0 -65
0 0 25 0 25 -10 0 -10 0 0 15 0 15 -15 0 -15 0 0 35 0 35 -10 0 -10 0 0 25 0
25 -15 0 -15 0 0 15 0 15 -10 0 -10 0 0 15 0 15 -15 0 -15 0 0 10 0 10 -15 0
-15 0 0 15 0 15 -75 0 -75 0 0 10 0 10 -15 0 -15 0 0 15 0 15 -10 0 -10 0 0
25 0 25 -15 0 -15 0 0 25 0 25 -10 0 -10 0 0 15 0 15 -11 0 -10 0 -15 14 -14
15 0 10 0 11 -15 0 -15 0 0 -15 0 -15 -10 0 -10 0 0 14 0 14 13 6 12 6 -12 6
-13 6 0 14 0 14 35 0 35 0 0 10 0 10 -10 0 -10 0 0 15 0 15 10 0 10 0 0 15 0
15 15 0 15 0 0 -15 0 -15 10 0 10 0 0 15 0 15 15 0 15 0 0 -15 0 -15 10 0 10
0 0 15 0 15 15 0 15 0 0 -15 0 -15 -15 0 -15 0 0 -15 0 -15 15 0 15 0 0 -10 0
-10 -65 0 -65 0 0 -15 0 -15 65 0 65 0 0 -10 0 -10 25 0 25 0 0 -15 0 -15 25
0 25 0 0 40 0 40 -10 0 -10 0 0 25 0 25 -15 0 -15 0 0 15 0 15 -25 0 -25 0 0
10 0 10 -61 0 -60 0 -15 -14 -14 -15 0 -10 0 -11 -15 0 -15 0 0 -15 0 -15 -10
0 -10 0 0 51 0 50 14 15 15 14 20 0 21 0 0 15 0 15 90 0 90 0 0 -15z m0 -140
l0 -25 15 0 15 0 0 -25 0 -25 -15 0 -15 0 0 10 0 10 -25 0 -25 0 0 15 0 15 15
0 15 0 0 10 0 10 -15 0 -15 0 0 15 0 15 25 0 25 0 0 -25z m560 0 l0 -25 -10 0
-10 0 0 -15 0 -15 -25 0 -25 0 0 -10 0 -10 -25 0 -25 0 0 -15 0 -15 -40 0 -40
0 0 15 0 15 15 0 15 0 0 21 0 20 14 15 15 14 20 0 21 0 0 15 0 15 50 0 50 0 0
-25z m-200 -680 l0 -15 -15 0 -15 0 0 -21 0 -20 -14 -15 -15 -14 -20 0 -21 0
0 -15 0 -15 -50 0 -50 0 0 15 0 15 10 0 10 0 0 25 0 25 25 0 25 0 0 10 0 10
40 0 40 0 0 15 0 15 25 0 25 0 0 -15z m410 -100 l0 -15 -25 0 -25 0 0 15 0 15
25 0 25 0 0 -15z"/>
<path d="M100 1035 l0 -15 15 0 15 0 0 15 0 15 -15 0 -15 0 0 -15z"/>
<path d="M150 1035 l0 -15 15 0 15 0 0 15 0 15 -15 0 -15 0 0 -15z"/>
<path d="M1100 245 l0 -15 15 0 15 0 0 15 0 15 -15 0 -15 0 0 -15z"/>
<path d="M770 1010 l0 -10 -15 0 -15 0 0 -15 0 -15 15 0 15 0 0 15 0 15 10 0
10 0 0 10 0 10 -10 0 -10 0 0 -10z"/>
<path d="M690 985 l0 -15 15 0 15 0 0 15 0 15 -15 0 -15 0 0 -15z"/>
<path d="M510 296 l0 -14 -12 -5 -13 -4 9 -9 9 -9 4 13 5 12 14 0 14 0 0 15 0
15 -15 0 -15 0 0 -14z"/>
<path d="M560 295 l0 -15 15 0 15 0 0 15 0 15 -15 0 -15 0 0 -15z"/>
<path d="M770 1169 l0 -10 14 -15 15 -14 10 0 11 0 0 25 0 25 -25 0 -25 0 0
-11z"/>
<path d="M1250 880 l0 -40 -10 0 -10 0 0 -21 0 -20 14 -15 15 -14 10 0 11 0 0
10 0 10 -15 0 -15 0 0 25 0 25 15 0 15 0 0 40 0 40 -15 0 -15 0 0 -40z"/>
<path d="M0 805 l0 -15 15 0 15 0 0 15 0 15 -15 0 -15 0 0 -15z"/>
<path d="M0 755 l0 -15 15 0 15 0 0 15 0 15 -15 0 -15 0 0 -15z"/>
<path d="M1250 730 l0 -10 15 0 15 0 0 10 0 10 -15 0 -15 0 0 -10z"/>
<path d="M0 705 l0 -15 15 0 15 0 0 15 0 15 -15 0 -15 0 0 -15z"/>
<path d="M1250 680 l0 -10 15 0 15 0 0 10 0 10 -15 0 -15 0 0 -10z"/>
<path d="M0 655 l0 -15 15 0 15 0 0 15 0 15 -15 0 -15 0 0 -15z"/>
<path d="M1250 625 l0 -15 15 0 15 0 0 15 0 15 -15 0 -15 0 0 -15z"/>
<path d="M0 600 l0 -10 15 0 15 0 0 10 0 10 -15 0 -15 0 0 -10z"/>
<path d="M1250 575 l0 -15 15 0 15 0 0 15 0 15 -15 0 -15 0 0 -15z"/>
<path d="M0 550 l0 -10 15 0 15 0 0 10 0 10 -15 0 -15 0 0 -10z"/>
<path d="M1250 525 l0 -15 15 0 15 0 0 15 0 15 -15 0 -15 0 0 -15z"/>
<path d="M0 500 l0 -10 15 0 15 0 0 -25 0 -25 -15 0 -15 0 0 -40 0 -40 15 0
15 0 0 40 0 40 10 0 10 0 0 21 0 20 -14 15 -15 14 -10 0 -11 0 0 -10z"/>
<path d="M1250 475 l0 -15 15 0 15 0 0 15 0 15 -15 0 -15 0 0 -15z"/>
<path d="M460 125 l0 -25 25 0 25 0 0 11 0 10 -14 15 -15 14 -10 0 -11 0 0
-25z"/>
<path d="M510 90 l0 -10 -35 0 -35 0 0 -15 0 -15 50 0 50 0 0 25 0 25 -15 0
-15 0 0 -10z"/>
</g>
</svg>
