<?xml version="1.0" standalone="no"?>
<!DOCTYPE svg PUBLIC "-//W3C//DTD SVG 20010904//EN"
 "http://www.w3.org/TR/2001/REC-SVG-20010904/DTD/svg10.dtd">
<svg version="1.0" xmlns="http://www.w3.org/2000/svg"
 width="468pt" height="468pt" viewBox="0 0 468 468"
 preserveAspectRatio="xMidYMid meet">
<metadata>
Created by potrace 1.8, written by Peter Selinger 2001-2007
</metadata>
<g transform="translate(0,468) scale(0.365625,-0.365625)"
fill="#000000" stroke="none">
<path d="M480 1175 l0 -105 25 0 25 0 0 -30 0 -30 30 0 30 0 0 -25 0 -25 -240
0 -240 0 0 -80 0 -80 -55 0 -55 0 0 -105 0 -105 25 0 25 0 0 -30 0 -30 -25 0
-25 0 0 -265 0 -265 640 0 640 0 0 375 0 375 -25 0 -25 0 0 25 0 25 -55 0 -55
0 0 80 0 80 -240 0 -240 0 0 25 0 25 80 0 80 0 0 110 0 110 -25 0 -25 0 0 25
0 25 -135 0 -135 0 0 -105z m210 0 l0 -55 -80 0 -80 0 0 55 0 55 80 0 80 0 0
-55z m-100 -320 l0 -55 -55 0 -55 0 0 -105 0 -105 25 0 25 0 0 -30 0 -30 -105
0 -105 0 0 110 0 110 -25 0 -25 0 0 25 0 25 -55 0 -55 0 0 55 0 55 215 0 215
0 0 -55z m480 0 l0 -55 -55 0 -55 0 0 -105 0 -105 25 0 25 0 0 -30 0 -30 -105
0 -105 0 0 110 0 110 -25 0 -25 0 0 25 0 25 -55 0 -55 0 0 55 0 55 215 0 215
0 0 -55z m-860 -160 l0 -55 -80 0 -80 0 0 55 0 55 80 0 80 0 0 -55z m480 0 l0
-55 -80 0 -80 0 0 55 0 55 80 0 80 0 0 -55z m480 0 l0 -55 -80 0 -80 0 0 55 0
55 80 0 80 0 0 -55z"/>
</g>
</svg>
