<?xml version="1.0" standalone="no"?>
<!DOCTYPE svg PUBLIC "-//W3C//DTD SVG 20010904//EN"
 "http://www.w3.org/TR/2001/REC-SVG-20010904/DTD/svg10.dtd">
<svg version="1.0" xmlns="http://www.w3.org/2000/svg"
 width="468pt" height="468pt" viewBox="0 0 468 468"
 preserveAspectRatio="xMidYMid meet">
<metadata>
Created by potrace 1.8, written by Peter Selinger 2001-2007
</metadata>
<g transform="translate(0,468) scale(0.365625,-0.365625)"
fill="#000000" stroke="none">
<path d="M319 1256 l-4 -4 -50 -7 -50 -7 -12 -1 -13 0 0 -9 0 -8 4 0 4 0 18
-7 17 -6 -8 13 -8 13 13 -8 12 -8 9 14 9 14 0 -15 0 -15 10 15 10 15 0 -19 0
-18 -13 5 -14 5 -14 -9 -14 -9 13 0 13 0 -6 -11 -7 -10 -16 14 -17 15 -67 7
-67 6 -21 -11 -21 -11 -15 12 -14 11 0 -15 0 -15 30 -12 30 -12 40 0 40 1 25
-27 25 -27 0 -13 0 -13 15 -5 15 -6 0 -14 0 -13 14 5 14 5 7 -20 6 -21 27 -7
27 -6 15 -15 15 -15 -3 -21 -3 -21 19 -21 19 -20 -5 -57 -4 -57 15 -6 16 -6
18 12 18 12 -17 -6 -18 -5 0 8 0 9 49 48 49 49 7 26 6 25 -53 33 -52 33 -33
-5 -33 -6 -10 20 -11 19 -14 0 -15 0 0 9 0 10 20 6 21 7 14 -12 15 -12 0 11 0
12 22 29 22 30 18 0 18 0 0 13 0 12 -22 15 -23 15 -17 7 -17 7 -6 -9 -6 -10
13 -1 13 -1 10 1 10 1 13 -20 12 -19 -13 5 -13 5 -15 -33 -14 -33 -42 -8 -43
-8 0 -15 0 -15 23 -9 22 -9 -17 0 -17 -1 -45 44 -44 45 -6 19 -7 19 -19 18
-19 17 -51 0 -50 0 -5 8 -5 8 23 6 22 6 55 -7 55 -6 18 -15 17 -15 6 6 7 6 21
-11 21 -10 -12 13 -13 13 0 7 0 8 20 -4 20 -4 5 10 6 9 24 0 24 0 6 10 6 10
25 -2 26 -3 14 -27 15 -28 8 0 8 0 30 15 30 15 17 19 18 20 -7 10 -6 11 -113
0 -113 0 -4 -4z m41 -20 l-10 -10 -30 -2 -30 -2 0 8 0 9 20 -4 20 -4 4 8 5 8
16 0 16 0 -11 -11z m174 8 l16 -6 -23 -17 -22 -16 -22 -12 -23 -13 -5 0 -5 0
0 19 0 20 -22 15 -22 16 56 0 56 0 16 -6z m-111 -258 l17 -13 0 -12 0 -13 13
5 12 4 17 -9 17 -8 -6 -18 -7 -17 -43 -42 -43 -42 -10 -23 -10 -23 5 68 6 67
-8 0 -8 0 -12 20 -13 19 10 26 10 25 17 0 18 -1 18 -13z"/>
<path d="M800 1249 l-45 -6 30 -2 30 -2 19 -14 20 -15 -8 0 -7 0 -20 10 -19
11 0 -11 0 -12 -63 7 -62 7 -19 -21 -19 -21 6 -6 5 -6 24 16 25 16 6 -6 6 -6
12 8 12 7 68 -2 69 -2 -7 18 -7 18 16 -13 16 -13 29 7 28 7 13 10 13 10 22
-11 22 -11 39 -6 39 -6 8 12 7 13 15 -12 15 -13 53 -6 54 -6 -28 -12 -29 -12
-9 -14 -9 -14 0 18 0 17 -24 0 -24 0 -16 -6 -17 -6 16 -12 16 -12 -40 -22 -41
-23 0 -19 0 -19 -20 -11 -20 -11 0 -19 0 -20 -12 3 -12 2 -22 25 -22 24 -16
-13 -16 -13 0 -22 -1 -21 -17 34 -17 33 -40 14 -39 13 -5 -4 -4 -5 18 -20 18
-20 -19 -6 -19 -7 -5 -3 -6 -3 -1 17 -2 17 -7 28 -6 27 11 0 11 0 0 13 0 13
-22 1 -22 2 -13 -11 -14 -11 -10 10 -10 10 -25 -5 -24 -4 -5 -8 -5 -8 22 5 23
6 -11 -13 -12 -12 -22 7 -22 7 13 13 14 13 38 21 38 21 14 0 15 0 0 9 0 9 -22
-6 -22 -5 -21 -11 -21 -11 -28 -22 -28 -23 5 -14 6 -15 -15 -11 -14 -12 0 -27
0 -27 12 -12 12 -12 27 0 27 0 6 -32 6 -32 11 -38 10 -38 18 0 18 0 16 18 17
18 6 35 7 34 19 22 20 22 -6 9 -6 10 15 12 15 13 -11 13 -11 14 5 0 6 0 25
-10 25 -9 16 -31 16 -30 9 0 10 0 0 19 0 19 14 11 13 11 10 -12 10 -13 7 -20
7 -19 9 14 10 15 0 -17 0 -17 10 -6 10 -6 -2 18 -1 18 1 21 2 22 20 5 20 5 0
19 0 19 29 22 30 22 15 -6 16 -6 0 10 0 11 -16 15 -15 16 25 0 26 0 0 -22 0
-21 23 20 22 21 23 7 22 6 0 19 0 18 -27 -3 -28 -3 -49 16 -50 16 -3 -10 -4
-11 -42 9 -42 9 -32 6 -33 5 0 -10 0 -10 -25 -5 -26 -4 -22 16 -22 16 -45 -6z
m-57 -135 l6 -6 -6 -14 -5 -14 -39 0 -38 0 5 15 6 16 12 -9 11 -8 13 2 12 2
13 1 12 1 -15 10 -15 10 11 0 11 0 6 -6z m-35 -44 l22 0 0 -14 0 -15 12 -7 11
-7 -8 13 -8 13 11 -7 11 -7 -5 -14 -6 -15 22 -8 21 -8 -20 -18 -21 -19 0 -28
0 -28 -25 -28 -25 -28 -9 14 -9 14 -12 58 -13 59 -16 1 -16 1 -20 2 -20 1 -3
23 -4 24 19 20 18 20 35 -6 35 -6 23 0z"/>
<path d="M375 1210 l-6 -10 15 0 16 0 0 10 0 10 -9 0 -10 0 -6 -10z"/>
<path d="M550 1190 l0 -10 15 0 15 0 0 10 0 10 -15 0 -15 0 0 -10z"/>
<path d="M596 1164 l-6 -17 4 -4 5 -5 10 7 11 6 0 15 0 14 -9 0 -9 0 -6 -16z"/>
<path d="M970 1161 l0 -10 10 -6 10 -6 11 7 11 7 -13 8 -14 9 -7 0 -8 0 0 -9z"/>
<path d="M317 1153 l-7 -6 0 -8 0 -7 22 -5 21 -6 9 5 9 6 -12 14 -11 14 -13 0
-12 0 -6 -7z m33 -13 l15 -10 -10 0 -10 0 -15 10 -15 10 10 0 10 0 15 -10z"/>
<path d="M885 1150 l6 -10 5 0 4 0 0 10 0 10 -11 0 -10 0 6 -10z"/>
<path d="M825 1131 l-5 -10 9 -5 9 -6 6 15 5 15 -9 0 -9 0 -6 -9z"/>
<path d="M877 1119 l11 -11 19 11 18 10 -29 1 -30 0 11 -11z"/>
<path d="M520 1100 l0 -10 15 0 15 0 0 4 0 4 -15 6 -15 5 0 -9z"/>
<path d="M1086 1089 l-19 -19 9 0 9 1 18 13 17 13 0 7 0 6 -7 -1 -8 0 -19 -20z"/>
<path d="M60 1040 l0 -10 16 0 15 0 -6 10 -6 10 -10 0 -9 0 0 -10z"/>
<path d="M344 1036 l20 -16 10 0 9 0 -4 4 -4 3 -25 12 -25 12 19 -15z"/>
<path d="M941 994 l1 -19 5 13 5 13 -6 6 -6 6 1 -19z"/>
<path d="M1035 1000 l-6 -10 10 0 11 0 0 10 0 10 -4 0 -5 0 -6 -10z"/>
<path d="M1020 969 l0 -10 10 6 10 6 0 5 0 4 -10 0 -10 0 0 -11z"/>
<path d="M300 959 l0 -10 10 6 10 6 0 5 0 4 -10 0 -10 0 0 -11z"/>
<path d="M950 966 l0 -4 18 -13 17 -14 -14 18 -13 17 -4 0 -4 0 0 -4z"/>
<path d="M1057 963 l-7 -6 0 -9 0 -8 15 0 15 0 0 15 0 15 -8 0 -9 0 -6 -7z"/>
<path d="M1130 945 l25 -14 20 0 20 0 -25 14 -25 14 -20 0 -20 0 25 -14z"/>
<path d="M1020 940 l0 -10 11 0 10 0 -6 10 -6 10 -5 0 -4 0 0 -10z"/>
<path d="M770 911 l0 -21 10 0 10 0 0 14 0 15 -10 6 -10 6 0 -20z"/>
<path d="M1042 909 l-33 -22 3 -21 3 -21 43 0 44 0 14 -19 14 -20 15 20 14 19
1 18 0 18 -17 25 -16 25 -9 -13 -10 -13 -5 13 -5 12 -11 0 -12 0 -33 -21z m71
-6 l14 5 14 -24 13 -24 -12 -12 -11 -11 -13 10 -13 11 -42 -3 -43 -3 0 14 0
14 32 20 32 19 7 -11 7 -11 15 6z"/>
<path d="M1206 828 l-6 -23 0 -9 0 -10 12 12 12 12 3 20 3 20 -9 0 -9 0 -6
-22z"/>
<path d="M385 737 l-30 -12 -5 -5 -5 -5 -40 -1 -40 0 -91 -7 -90 -6 -18 -7
-18 -7 23 -13 24 -13 10 0 10 0 -25 14 -25 14 35 2 35 2 40 3 40 3 65 4 65 4
28 12 28 11 5 0 5 0 -6 -19 -5 -18 37 -7 38 -6 80 14 80 15 100 9 100 9 165
-1 165 -2 18 -8 18 -8 -12 -15 -12 -14 11 -11 10 -10 29 11 28 11 -32 -5 -33
-4 0 7 0 8 12 12 13 13 -15 9 -14 9 -61 6 -60 7 -155 -6 -155 -6 -75 -6 -75
-5 -65 -15 -64 -15 -29 7 -29 6 5 24 4 24 -6 -1 -6 -1 -30 -11z"/>
<path d="M8 663 l13 -5 6 6 6 6 -19 -1 -19 -1 13 -5z"/>
<path d="M0 325 l0 -325 640 0 640 0 0 325 0 325 -640 0 -640 0 0 -325z"/>
</g>
</svg>
