<?xml version="1.0" standalone="no"?>
<!DOCTYPE svg PUBLIC "-//W3C//DTD SVG 20010904//EN"
 "http://www.w3.org/TR/2001/REC-SVG-20010904/DTD/svg10.dtd">
<svg version="1.0" xmlns="http://www.w3.org/2000/svg"
 width="468pt" height="468pt" viewBox="0 0 468 468"
 preserveAspectRatio="xMidYMid meet">
<metadata>
Created by potrace 1.8, written by Peter Selinger 2001-2007
</metadata>
<g transform="translate(0,468) scale(0.365625,-0.365625)"
fill="#000000" stroke="none">
<path d="M630 1251 l-23 -26 -5 -38 -5 -38 -28 6 -29 7 6 -16 6 -16 -15 0 -15
0 -5 13 -4 12 -88 -2 -88 -2 -6 -10 -6 -9 -25 -4 -25 -4 125 1 125 2 -22 -4
-23 -4 0 -9 0 -8 -45 -6 -45 -7 0 -9 0 -10 -40 -6 -40 -7 0 -8 0 -9 -14 0 -14
0 -5 13 -5 12 -1 -12 -1 -13 -16 0 -16 0 4 13 5 12 26 3 27 3 0 9 0 9 50 7 50
7 0 8 0 9 -30 0 -30 0 0 -9 0 -8 -42 -6 -43 -6 -3 -10 -4 -11 -13 0 -13 0 -6
15 -5 15 -17 0 -16 0 5 -19 5 -19 -8 -12 -7 -12 -27 -1 -26 -2 0 -12 0 -13
-10 0 -10 0 0 -13 0 -13 -32 -28 -33 -29 13 -4 12 -5 0 -14 0 -14 -12 0 -13 0
15 -10 15 -10 -14 -9 -13 -9 13 -4 14 -5 -8 -8 -7 -8 -6 5 -5 6 -4 33 -4 33
-13 8 -13 8 11 0 11 0 7 40 6 40 10 0 10 0 0 15 0 15 -5 0 -5 0 -22 -22 -22
-22 -1 -80 0 -79 13 -4 12 -5 0 -13 0 -13 31 -31 31 -31 14 0 14 0 0 -10 0
-10 15 0 16 0 5 -15 6 -15 39 -6 39 -7 0 -7 0 -7 78 -11 77 -12 28 0 27 0 0
-10 0 -10 -225 0 -225 0 0 -305 0 -305 640 0 640 0 0 305 0 305 -180 0 -180 0
0 10 0 10 46 0 45 0 -4 8 -5 7 46 0 46 1 4 12 4 12 14 0 14 0 17 20 17 20 9 0
9 0 27 28 28 28 8 24 8 25 11 7 11 7 0 56 0 56 -11 7 -11 7 -7 23 -7 22 -10 0
-9 0 0 13 0 13 -20 17 -20 17 -24 6 -25 6 -5 14 -5 14 -16 0 -15 0 0 10 0 9
-37 7 -38 7 -6 10 -7 10 -103 1 -102 1 -4 -12 -5 -13 -15 0 -15 0 6 15 5 15
-14 0 -15 0 0 26 0 25 -15 -15 -15 -15 0 -10 0 -11 12 0 11 0 -6 -7 -7 -7 -20
22 -21 22 16 0 15 0 0 10 0 10 -15 0 -15 0 -6 -30 -6 -30 -9 0 -9 0 0 30 0 30
13 1 12 1 57 3 56 2 16 16 16 16 0 9 0 10 -28 7 -28 6 -55 -2 -56 -2 -23 -26z
m40 14 l0 -5 -20 -20 -20 -20 0 5 0 5 12 20 13 20 7 0 8 0 0 -5z m106 -10 l15
-15 -39 0 -40 0 -16 6 -16 6 0 9 0 9 41 0 40 0 15 -15z m-146 -55 l0 -10 -10
0 -10 0 0 10 0 10 10 0 10 0 0 -10z m0 -55 l0 -15 -10 0 -10 0 0 15 0 15 10 0
10 0 0 -15z m-180 -5 l0 -10 -15 0 -15 0 0 10 0 10 15 0 15 0 0 -10z m490 0
l0 -9 50 -7 51 -7 -4 -11 -4 -11 -24 3 -23 2 -6 10 -6 9 -72 7 -72 7 0 8 0 9
55 0 55 0 0 -10z m-30 -30 l5 -7 48 -7 47 -7 0 -8 0 -9 -34 -6 -35 -7 -25 7
-26 6 0 8 0 8 -32 7 -32 7 -13 14 -14 13 53 -6 53 -6 5 -7z m-360 -1 l0 -11
-20 -5 -20 -5 0 -9 0 -9 -15 0 -15 0 -17 -20 -17 -20 -61 1 -60 1 15 5 15 6 6
9 6 9 31 2 32 2 0 13 0 12 10 0 10 0 0 -12 0 -13 8 12 7 11 28 7 27 7 0 9 0 9
15 0 15 0 0 -11z m81 -13 l43 0 4 12 4 12 9 0 9 0 0 -15 0 -15 14 0 14 0 6
-15 5 -15 11 0 11 0 15 -15 15 -15 -40 0 -41 0 0 -10 0 -10 -94 0 -94 0 -6 16
-6 16 -15 -5 -14 -6 6 15 5 14 24 6 24 6 0 9 0 9 20 0 19 0 -5 18 -6 17 10
-15 11 -14 42 0z m131 12 l4 -12 44 -2 44 -2 4 -11 4 -11 14 0 14 0 0 -14 0
-13 -31 -7 -32 -6 -13 0 -14 0 0 15 0 16 -17 6 -18 7 -13 13 -13 13 -15 0 -14
0 0 10 0 10 24 0 24 0 4 -12z m334 -22 l5 -14 26 -7 25 -6 20 -19 20 -18 -6
-11 -7 -11 15 6 16 6 0 -15 0 -15 -14 -5 -14 -6 -26 24 -26 24 0 11 0 10 -15
0 -15 0 0 9 0 9 -20 5 -20 5 0 16 0 16 15 0 16 0 5 -14z m6 -68 l38 -38 10 0
10 0 0 -14 0 -14 13 -4 12 -5 0 -64 0 -64 -24 -24 -23 -23 -7 10 -6 10 -12
-13 -12 -14 12 -4 12 -4 -34 -30 -33 -31 6 -10 6 -10 -20 5 -20 5 7 -18 7 -19
-17 17 -17 17 0 10 0 11 15 0 15 0 0 15 0 15 10 0 11 0 6 18 7 17 27 28 28 28
-6 14 -5 15 -9 0 -9 0 0 20 0 20 10 0 10 0 0 15 0 15 -9 0 -10 0 -6 22 -7 21
-26 24 -25 23 -8 0 -9 0 -20 20 -20 20 0 4 0 5 28 3 27 4 15 -5 15 -5 37 -38z
m-862 4 l5 -5 -14 -5 -13 -4 12 -8 13 -8 -26 -25 -27 -24 0 -12 0 -12 -15 -5
-15 -6 0 -58 0 -57 -26 3 -26 2 -6 7 -7 7 0 73 0 73 8 8 8 8 7 -11 7 -11 12
13 12 14 -11 3 -12 4 23 23 23 23 9 -13 9 -14 0 18 0 18 23 -7 22 -6 5 -6z
m736 3 l6 -15 13 0 12 0 27 -25 26 -24 0 -6 0 -5 -24 0 -24 0 -4 11 -4 12 -43
0 -43 0 -7 -10 -6 -10 -37 -6 -38 -6 0 12 0 12 -6 23 -6 22 16 0 16 0 0 9 0
10 33 4 32 4 28 1 28 2 5 -15z m-706 -4 l0 -9 -12 -5 -13 -5 17 -1 17 -1 15
16 16 15 0 -10 0 -11 58 -1 57 -1 -12 -5 -13 -5 0 -14 0 -14 -35 0 -35 0 0 -9
0 -8 -39 -7 -40 -6 -6 -21 -7 -21 6 -5 6 -6 0 11 0 12 15 0 15 0 0 -10 0 -10
14 0 14 0 5 13 5 12 11 -15 11 -15 0 13 0 12 14 0 14 0 6 -12 6 -13 6 14 6 13
8 -12 8 -12 22 22 22 22 -13 9 -14 8 29 -2 29 -2 3 -13 3 -13 -6 11 -5 10 -9
0 -9 0 0 -15 0 -15 18 0 17 0 23 6 22 6 0 9 0 9 -25 6 -25 6 0 8 0 9 -35 3
-34 3 8 14 9 13 178 1 179 1 3 -27 3 -27 10 0 9 0 0 -14 0 -14 -15 -6 -15 -5
0 -11 0 -10 20 0 20 0 0 -29 0 -29 -6 -16 -6 -16 -54 0 -54 0 0 -15 0 -15 -16
0 -15 0 -15 15 -15 15 -9 0 -9 0 6 -17 7 -18 -18 18 -17 17 -20 0 -19 0 0 10
0 10 -10 0 -10 0 0 -25 0 -25 -29 0 -29 0 -6 15 -5 15 -15 0 -15 0 6 -16 6
-16 -21 18 -22 18 0 23 0 23 -9 0 -10 0 -3 20 -3 19 -11 -7 -11 -7 -7 -25 -7
-25 10 15 10 14 4 -4 5 -5 6 -25 7 -25 -11 15 -12 15 -5 -12 -5 -13 -28 0 -28
0 -4 9 -3 8 -42 6 -43 5 0 -9 0 -9 21 -21 21 -21 49 -1 50 -2 10 -15 11 -15 5
12 5 13 14 -15 15 -14 14 5 15 6 0 -14 0 -14 30 -24 29 -25 1 -11 0 -11 -25 0
-25 0 0 13 0 13 -12 7 -11 7 -12 -16 -12 -17 -12 0 -11 0 0 14 0 14 -26 0 -26
0 -7 9 -6 10 -25 8 -24 8 -26 26 -27 26 -6 28 -7 27 -10 0 -10 0 0 45 0 45 10
0 10 0 0 15 0 14 17 10 17 9 2 29 2 28 1 8 1 7 10 0 10 0 0 -9z m974 -74 l5
-21 -4 -5 -5 -4 0 11 0 12 -10 0 -10 0 0 -10 0 -10 25 -6 25 -6 0 -15 0 -15
-13 5 -14 5 -14 -8 -13 -9 7 -8 8 -7 9 14 10 15 0 -30 0 -30 -10 15 -9 14 -7
-7 -7 -7 -1 -33 -2 -33 -21 -23 -21 -23 -10 6 -10 6 -16 -16 -16 -15 0 8 0 9
29 25 28 25 8 24 8 24 11 12 12 12 -2 43 -2 43 -11 4 -11 4 0 13 0 13 13 5 12
4 12 -4 11 -4 6 -22z m-186 -21 l7 12 15 -16 14 -16 -17 7 -16 6 -15 -14 -15
-15 -10 0 -11 0 0 10 0 10 15 0 14 0 -5 18 -6 17 11 -15 11 -15 8 11z m-58
-26 l0 -10 -10 0 -10 0 0 10 0 10 10 0 10 0 0 -10z m90 -31 l0 -18 16 -15 15
-16 -11 0 -11 0 -5 15 -6 15 -8 0 -8 0 -6 -25 -6 -25 -40 0 -40 0 -1 13 -1 12
-5 -15 -6 -15 -13 -12 -13 -13 -31 0 -32 0 6 15 5 15 -14 0 -14 0 -10 -17 -9
-18 -8 8 -8 8 13 8 13 8 3 44 2 44 2 0 1 0 115 1 115 0 0 -17z m-1019 -70 l21
-21 -5 -5 -5 -5 -21 21 -21 21 0 5 0 5 5 0 5 0 21 -21z m1169 11 l0 -10 -10 0
-10 0 0 10 0 10 10 0 10 0 0 -10z m-1090 -30 l0 -10 -10 0 -10 0 0 10 0 10 10
0 10 0 0 -10z m30 -5 l0 -15 15 0 15 0 0 -15 0 -15 10 0 10 0 21 -21 21 -21
-7 -6 -7 -7 -9 18 -10 17 -14 0 -15 0 0 10 0 10 -14 0 -15 0 -15 15 -15 16 5
14 6 15 9 0 9 0 0 -15z m30 5 l0 -10 -10 0 -10 0 0 10 0 10 10 0 10 0 0 -10z
m820 0 l0 -10 -10 0 -10 0 0 10 0 10 10 0 10 0 0 -10z m30 0 l0 -11 -34 -35
-35 -36 -12 8 -12 7 5 -20 6 -21 -9 -13 -8 -13 -8 7 -7 8 14 9 15 10 -17 0
-17 0 -21 -22 -20 -22 -7 7 -6 7 11 0 12 0 0 10 0 10 -11 0 -10 0 -15 -15 -15
-14 -14 5 -15 6 0 -9 0 -10 -22 3 -23 2 -10 1 -10 1 12 8 11 7 7 28 7 27 -5 0
-6 0 -34 -35 -33 -34 -25 5 -24 6 13 -10 13 -9 -53 2 -53 2 -22 7 -21 7 -6 24
-6 25 -10 0 -10 0 0 -10 0 -10 12 0 11 0 -6 -7 -7 -6 -35 36 -36 37 31 -4 31
-4 16 17 17 16 -7 -17 -6 -18 15 0 15 0 5 15 6 15 23 0 23 0 10 -27 10 -28 1
19 1 18 15 -6 14 -5 18 17 17 17 -7 -17 -6 -18 15 0 15 0 5 15 6 15 29 0 29 0
0 -25 0 -25 10 0 10 0 0 13 0 13 41 -2 41 -2 9 -13 9 -14 0 13 0 13 15 15 15
15 0 -10 0 -11 15 0 15 0 0 15 0 15 25 -6 25 -6 6 16 6 16 9 0 9 0 0 -10z
m-940 -30 l0 -10 -10 0 -10 0 0 10 0 10 10 0 10 0 0 -10z m1000 -60 l0 -10
-10 0 -10 0 0 10 0 10 10 0 10 0 0 -10z m-799 -20 l9 0 0 -10 0 -10 -11 0 -10
0 -17 17 -17 17 18 -7 19 -7 9 0z m129 -10 l0 -10 -10 0 -10 0 0 10 0 10 10 0
10 0 0 -10z"/>
<path d="M100 900 l0 -10 10 0 10 0 0 10 0 10 -10 0 -10 0 0 -10z"/>
<path d="M100 870 l0 -10 10 0 10 0 0 10 0 10 -10 0 -10 0 0 -10z"/>
<path d="M100 840 l0 -10 10 0 10 0 0 10 0 10 -10 0 -10 0 0 -10z"/>
<path d="M610 937 l0 -13 -28 -24 -28 -25 -7 -11 -7 -12 65 1 65 2 0 12 0 13
-10 0 -9 0 -12 23 -12 22 37 -37 37 -38 16 0 16 0 -52 50 -52 50 -9 0 -10 0 0
-13z"/>
<path d="M430 900 l0 -10 15 0 15 0 0 10 0 10 -15 0 -15 0 0 -10z"/>
<path d="M430 810 l0 -10 10 0 10 0 0 10 0 10 -10 0 -10 0 0 -10z"/>
<path d="M352 696 l13 -14 4 3 3 4 -7 10 -6 11 -10 0 -10 0 13 -14z"/>
<path d="M1190 780 l0 -10 10 0 10 0 0 10 0 10 -10 0 -10 0 0 -10z"/>
<path d="M1160 750 l0 -10 10 0 10 0 0 10 0 10 -10 0 -10 0 0 -10z"/>
<path d="M770 720 l0 -10 10 0 10 0 0 10 0 10 -10 0 -10 0 0 -10z"/>
<path d="M740 690 l0 -10 10 0 10 0 0 10 0 10 -10 0 -10 0 0 -10z"/>
<path d="M797 661 l-5 -20 14 6 14 5 0 14 0 14 -9 0 -9 0 -5 -19z"/>
<path d="M710 660 l0 -10 10 0 10 0 0 10 0 10 -10 0 -10 0 0 -10z"/>
<path d="M210 1110 l0 -10 30 0 30 0 0 10 0 10 -30 0 -30 0 0 -10z"/>
<path d="M150 1083 l0 -10 -39 -7 -39 -6 -5 -12 -4 -13 5 -12 4 -13 8 0 8 0 6
25 6 25 25 0 24 0 6 11 7 10 -6 6 -6 6 0 -10z"/>
<path d="M70 990 l0 -10 10 0 10 0 0 10 0 10 -10 0 -10 0 0 -10z"/>
</g>
</svg>
