<?xml version="1.0" standalone="no"?>
<!DOCTYPE svg PUBLIC "-//W3C//DTD SVG 20010904//EN"
 "http://www.w3.org/TR/2001/REC-SVG-20010904/DTD/svg10.dtd">
<svg version="1.0" xmlns="http://www.w3.org/2000/svg"
 width="468pt" height="468pt" viewBox="0 0 468 468"
 preserveAspectRatio="xMidYMid meet">
<metadata>
Created by potrace 1.8, written by Peter Selinger 2001-2007
</metadata>
<g transform="translate(0,468) scale(0.365625,-0.365625)"
fill="#000000" stroke="none">
<path d="M440 1070 l0 -10 -15 0 -16 0 -24 -25 -25 -24 0 -51 0 -51 25 -24 24
-25 16 0 15 0 0 -10 0 -10 -45 0 -46 0 -24 25 -25 24 0 16 0 15 -10 0 -10 0 0
-90 0 -90 10 0 10 0 0 16 0 15 14 15 15 14 25 0 26 0 0 -110 0 -110 100 0 100
0 0 -5 0 -5 -125 -125 -125 -125 -15 0 -15 0 0 -20 0 -20 15 0 16 0 129 130
129 130 21 0 21 0 129 -130 129 -130 16 0 15 0 0 20 0 20 -15 0 -15 0 -125
125 -125 125 0 5 0 5 100 0 100 0 0 50 0 50 58 0 58 0 14 -20 14 -20 18 0 18
0 0 80 0 80 -18 0 -18 0 -14 -20 -14 -20 -58 0 -58 0 0 26 0 25 -14 15 -15 14
-15 0 -16 0 0 10 0 10 15 0 16 0 24 25 25 24 0 51 0 51 -25 24 -24 25 -16 0
-15 0 0 10 0 10 -40 0 -40 0 0 -10 0 -10 -15 0 -16 0 -24 -25 -25 -24 0 -51 0
-51 25 -24 24 -25 16 0 15 0 0 -10 0 -10 -90 0 -90 0 0 10 0 10 15 0 16 0 24
25 25 24 0 51 0 51 -25 24 -24 25 -16 0 -15 0 0 10 0 10 -40 0 -40 0 0 -10z
m3 -262 l5 -13 11 15 11 15 10 -15 10 -15 10 15 10 15 10 -15 10 -15 10 15 10
15 10 -15 10 -15 10 15 10 15 10 -15 10 -15 10 15 10 15 10 -15 10 -15 10 15
10 15 10 -15 10 -15 10 15 10 15 10 -15 10 -15 10 15 10 15 10 -15 10 -15 9
14 9 14 18 -17 17 -18 -14 -9 -14 -9 15 -10 15 -10 -15 -10 -15 -10 15 -10 15
-10 -15 -10 -15 -10 15 -10 15 -10 -15 -10 -15 -10 14 -9 14 -9 -17 -18 -18
-17 -9 14 -9 14 -10 -15 -10 -15 -10 15 -10 15 -10 -15 -10 -15 -10 15 -10 15
-10 -15 -10 -15 -10 15 -10 15 -10 -15 -10 -15 -10 15 -10 15 -10 -15 -10 -15
-10 15 -10 15 -10 -15 -10 -15 -10 15 -10 15 -10 -15 -10 -15 -10 15 -10 15
-10 -15 -10 -15 -10 15 -10 15 -9 -14 -9 -14 -18 17 -17 18 14 9 14 9 -15 10
-15 10 15 10 15 10 -15 10 -15 10 15 10 15 10 -15 10 -15 10 15 10 15 10 -14
9 -14 9 14 16 14 15 7 1 6 0 5 -12z"/>
<path d="M420 791 l0 -9 13 -5 12 -5 -15 -11 -15 -11 15 -10 15 -10 -15 -10
-15 -10 15 -10 15 -10 -15 -10 -15 -10 15 -10 15 -10 -15 -9 -14 -10 7 -8 8
-7 10 14 9 15 10 -15 10 -15 10 15 10 15 10 -15 10 -15 10 15 10 15 10 -15 10
-15 10 15 10 15 10 -15 10 -15 10 15 10 15 10 -15 10 -15 10 15 10 15 10 -15
10 -15 10 15 10 15 10 -15 10 -15 10 15 10 15 10 -15 10 -15 10 15 10 15 9
-15 10 -14 8 7 7 8 -14 10 -15 9 15 10 15 10 -15 10 -15 10 15 10 15 10 -15
10 -15 10 15 10 15 10 -15 10 -15 10 15 9 14 10 -7 8 -8 7 -10 -14 -9 -15 -10
15 -10 15 -10 -15 -10 -15 -10 15 -10 15 -10 -15 -10 -15 -10 15 -10 15 -10
-15 -10 -15 -10 15 -10 15 -10 -15 -10 -15 -10 15 -10 15 -10 -15 -10 -15 -10
15 -10 15 -10 -15 -10 -15 -10 15 -10 15 -10 -15 -10 -15 -10 15 -10 15 -11
-15 -11 -15 -5 13 -5 12 -9 0 -9 0 0 -9z m63 -23 l5 -13 11 15 11 15 10 -15
10 -15 10 15 10 15 10 -15 10 -15 10 15 10 15 10 -15 10 -15 10 15 10 15 10
-15 10 -15 10 15 10 15 10 -15 10 -15 10 15 10 15 10 -15 10 -15 9 14 9 14 18
-17 17 -18 -14 -9 -14 -9 15 -10 15 -10 -15 -10 -15 -10 14 -9 14 -9 -17 -18
-18 -17 -9 14 -9 14 -10 -15 -10 -15 -10 15 -10 15 -10 -15 -10 -15 -10 15
-10 15 -10 -15 -10 -15 -10 15 -10 15 -10 -15 -10 -15 -10 15 -10 15 -10 -15
-10 -15 -10 15 -10 15 -10 -15 -10 -15 -10 15 -10 15 -9 -14 -9 -14 -18 17
-17 18 14 9 14 9 -15 10 -15 10 15 10 15 10 -14 9 -14 9 14 16 14 15 7 1 6 0
5 -12z"/>
<path d="M460 751 l0 -9 13 -5 12 -5 -15 -11 -15 -11 15 -10 15 -10 -15 -9
-14 -10 7 -8 8 -7 10 14 9 15 10 -15 10 -15 10 15 10 15 10 -15 10 -15 10 15
10 15 10 -15 10 -15 10 15 10 15 10 -15 10 -15 10 15 10 15 10 -15 10 -15 10
15 10 15 10 -15 10 -15 10 15 10 15 9 -15 10 -14 8 7 7 8 -14 10 -15 9 15 10
15 10 -15 10 -15 10 15 9 14 10 -7 8 -8 7 -10 -14 -9 -15 -10 15 -10 15 -10
-15 -10 -15 -10 15 -10 15 -10 -15 -10 -15 -10 15 -10 15 -10 -15 -10 -15 -10
15 -10 15 -10 -15 -10 -15 -10 15 -10 15 -10 -15 -10 -15 -10 15 -10 15 -11
-15 -11 -15 -5 13 -5 12 -9 0 -9 0 0 -9z m63 -23 l5 -13 11 15 11 15 10 -15
10 -15 10 15 10 15 10 -15 10 -15 10 15 10 15 10 -15 10 -15 10 15 10 15 10
-15 10 -15 9 14 9 14 17 -16 16 -17 -16 -17 -17 -16 -9 14 -9 14 -10 -15 -10
-15 -10 15 -10 15 -10 -15 -10 -15 -10 15 -10 15 -10 -15 -10 -15 -10 15 -10
15 -10 -15 -10 -15 -10 15 -10 15 -9 -14 -9 -14 -17 16 -16 17 13 14 13 15 7
1 6 0 5 -12z"/>
<path d="M500 710 l0 -10 10 0 10 0 0 10 0 10 -10 0 -10 0 0 -10z"/>
<path d="M540 710 l0 -10 10 0 10 0 0 10 0 10 -10 0 -10 0 0 -10z"/>
<path d="M580 710 l0 -10 10 0 10 0 0 10 0 10 -10 0 -10 0 0 -10z"/>
<path d="M620 710 l0 -10 10 0 10 0 0 10 0 10 -10 0 -10 0 0 -10z"/>
<path d="M660 710 l0 -10 10 0 10 0 0 10 0 10 -10 0 -10 0 0 -10z"/>
<path d="M700 710 l0 -10 10 0 10 0 0 10 0 10 -10 0 -10 0 0 -10z"/>
<path d="M0 100 l0 -100 640 0 640 0 0 100 0 100 -640 0 -640 0 0 -100z"/>
</g>
</svg>
