<?xml version="1.0" standalone="no"?>
<!DOCTYPE svg PUBLIC "-//W3C//DTD SVG 20010904//EN"
 "http://www.w3.org/TR/2001/REC-SVG-20010904/DTD/svg10.dtd">
<svg version="1.0" xmlns="http://www.w3.org/2000/svg"
 width="468pt" height="468pt" viewBox="0 0 468 468"
 preserveAspectRatio="xMidYMid meet">
<metadata>
Created by potrace 1.8, written by Peter Selinger 2001-2007
</metadata>
<g transform="translate(0,468) scale(0.365625,-0.365625)"
fill="#000000" stroke="none">
<path d="M450 1240 l0 -40 190 0 190 0 0 -35 0 -35 110 0 110 0 0 -40 0 -40
40 0 40 0 0 -35 0 -35 35 0 35 0 0 -150 0 -150 -35 0 -35 0 0 75 0 75 -40 0
-40 0 0 75 0 75 -35 0 -35 0 0 35 0 35 -40 0 -40 0 0 -35 0 -35 40 0 40 0 0
-75 0 -75 35 0 35 0 0 -75 0 -75 40 0 40 0 0 -40 0 -40 35 0 35 0 0 40 0 40
40 0 40 0 0 150 0 150 -40 0 -40 0 0 35 0 35 -35 0 -35 0 0 40 0 40 -40 0 -40
0 0 35 0 35 -110 0 -110 0 0 40 0 40 -190 0 -190 0 0 -40z"/>
<path d="M300 1165 l0 -35 -35 0 -35 0 0 -40 0 -40 -40 0 -40 0 0 -35 0 -35
-35 0 -35 0 0 -40 0 -40 -40 0 -40 0 0 -150 0 -150 40 0 40 0 0 -35 0 -35 35
0 35 0 0 35 0 35 40 0 40 0 0 115 0 115 35 0 35 0 0 35 0 35 40 0 40 0 0 -75
0 -75 75 0 75 0 0 40 0 40 -40 0 -40 0 0 35 0 35 -35 0 -35 0 0 75 0 75 35 0
35 0 0 40 0 40 -35 0 -35 0 0 35 0 35 -40 0 -40 0 0 -35z m80 -75 l0 -40 -40
0 -40 0 0 -75 0 -75 -35 0 -35 0 0 -35 0 -35 -40 0 -40 0 0 -115 0 -115 -35 0
-35 0 0 150 0 150 35 0 35 0 0 40 0 40 40 0 40 0 0 35 0 35 35 0 35 0 0 40 0
40 40 0 40 0 0 -40z"/>
<path d="M830 865 l0 -35 -40 0 -40 0 0 -40 0 -40 75 0 75 0 0 75 0 75 -35 0
-35 0 0 -35z"/>
<path d="M380 605 l0 -75 -40 0 -40 0 0 -150 0 -150 40 0 40 0 0 -40 0 -40
-115 0 -115 0 0 40 0 40 40 0 40 0 0 35 0 35 -40 0 -40 0 0 -35 0 -35 -35 0
-35 0 0 -40 0 -40 -40 0 -40 0 0 -75 0 -75 640 0 640 0 0 75 0 75 -40 0 -40 0
0 40 0 40 -35 0 -35 0 0 35 0 35 -40 0 -40 0 0 -35 0 -35 40 0 40 0 0 -40 0
-40 -115 0 -115 0 0 40 0 40 40 0 40 0 0 150 0 150 -40 0 -40 0 0 75 0 75 -35
0 -35 0 0 -75 0 -75 35 0 35 0 0 -40 0 -40 -35 0 -35 0 0 -35 0 -35 35 0 35 0
0 -75 0 -75 -35 0 -35 0 0 35 0 35 -40 0 -40 0 0 75 0 75 -110 0 -110 0 0 -75
0 -75 -40 0 -40 0 0 -35 0 -35 -35 0 -35 0 0 75 0 75 35 0 35 0 0 35 0 35 -35
0 -35 0 0 40 0 40 35 0 35 0 0 75 0 75 -35 0 -35 0 0 -75z m370 -340 l0 -35
40 0 40 0 0 -40 0 -40 -40 0 -40 0 0 40 0 40 -110 0 -110 0 0 -40 0 -40 -40 0
-40 0 0 40 0 40 40 0 40 0 0 35 0 35 110 0 110 0 0 -35z"/>
<path d="M80 415 l0 -35 75 0 75 0 0 35 0 35 -75 0 -75 0 0 -35z"/>
<path d="M1050 415 l0 -35 75 0 75 0 0 35 0 35 -75 0 -75 0 0 -35z"/>
</g>
</svg>
