<?xml version="1.0" standalone="no"?>
<!DOCTYPE svg PUBLIC "-//W3C//DTD SVG 20010904//EN"
 "http://www.w3.org/TR/2001/REC-SVG-20010904/DTD/svg10.dtd">
<svg version="1.0" xmlns="http://www.w3.org/2000/svg"
 width="468pt" height="468pt" viewBox="0 0 468 468"
 preserveAspectRatio="xMidYMid meet">
<metadata>
Created by potrace 1.8, written by Peter Selinger 2001-2007
</metadata>
<g transform="translate(0,468) scale(0.365625,-0.365625)"
fill="#000000" stroke="none">
<path d="M720 1060 l0 -20 -20 0 -20 0 0 -20 0 -20 -20 0 -20 0 0 -20 0 -20
-280 0 -280 0 0 -20 0 -20 -20 0 -20 0 0 -420 0 -420 20 0 20 0 0 -20 0 -20
580 0 580 0 0 420 0 420 -20 0 -20 0 0 20 0 20 -20 0 -20 0 0 20 0 20 -40 0
-40 0 0 20 0 20 -20 0 -20 0 0 20 0 20 -20 0 -20 0 0 20 0 20 -140 0 -140 0 0
-20z m280 -40 l0 -20 20 0 20 0 0 -20 0 -20 -180 0 -180 0 0 20 0 20 20 0 20
0 0 20 0 20 140 0 140 0 0 -20z m160 -500 l0 -400 -540 0 -540 0 0 400 0 400
540 0 540 0 0 -400z"/>
</g>
</svg>
