<?xml version="1.0" standalone="no"?>
<!DOCTYPE svg PUBLIC "-//W3C//DTD SVG 20010904//EN"
 "http://www.w3.org/TR/2001/REC-SVG-20010904/DTD/svg10.dtd">
<svg version="1.0" xmlns="http://www.w3.org/2000/svg"
 width="468pt" height="468pt" viewBox="0 0 468 468"
 preserveAspectRatio="xMidYMid meet">
<metadata>
Created by potrace 1.8, written by Peter Selinger 2001-2007
</metadata>
<g transform="translate(0,468) scale(0.365625,-0.365625)"
fill="#000000" stroke="none">
<path d="M0 1250 l0 -30 49 0 49 0 6 -12 6 -13 6 13 6 12 29 0 29 0 0 -10 0
-10 20 0 20 0 0 -10 0 -10 20 0 20 0 0 -10 0 -10 10 0 10 0 0 20 0 20 -10 0
-10 0 0 30 0 30 10 0 10 0 0 -20 0 -20 10 0 10 0 0 16 0 15 -14 15 -15 14 -24
0 -25 0 -6 -12 -6 -13 -6 13 -6 12 -35 0 -34 0 -16 -16 -16 -16 14 -8 13 -9
-6 -7 -7 -7 -30 32 -29 31 -26 0 -26 0 0 -30z m60 0 l0 -10 -10 0 -10 0 0 10
0 10 10 0 10 0 0 -10z m120 0 l0 -10 -10 0 -10 0 0 10 0 10 10 0 10 0 0 -10z"/>
<path d="M340 1261 l0 -19 13 -5 12 -4 -24 -22 -24 -21 21 -19 22 -18 0 -27 0
-26 -10 0 -10 0 0 20 0 20 -10 0 -10 0 0 -30 0 -30 15 0 16 0 34 -35 35 -34 0
-16 0 -15 16 0 15 0 15 14 14 15 0 25 0 26 9 0 9 0 5 -12 4 -13 8 7 8 8 -24
21 -24 22 13 4 12 5 0 19 0 19 6 0 5 0 16 -16 16 -16 -14 -8 -13 -9 8 -8 9 -8
4 13 5 12 9 0 9 0 0 -26 0 -26 33 -31 32 -30 -13 -4 -12 -5 0 -39 0 -39 -10 0
-10 0 0 10 0 10 -10 0 -10 0 0 -20 0 -20 10 0 10 0 0 -10 0 -10 -19 0 -19 0
-5 13 -4 12 -9 -9 -9 -9 13 -4 12 -5 0 -9 0 -9 -30 0 -30 0 0 9 0 9 13 6 12 6
-12 6 -13 6 0 29 0 29 -10 0 -10 0 0 10 0 10 20 0 20 0 0 10 0 10 -16 0 -16 0
-39 -41 -40 -41 -18 21 -18 21 -17 0 -16 0 0 -20 0 -20 10 0 10 0 0 -20 0 -20
10 0 10 0 0 -59 0 -59 13 -6 12 -6 -12 -6 -13 -6 0 -19 0 -19 20 0 20 0 0 -6
0 -5 -16 -16 -16 -16 -8 13 -8 13 -17 -17 -17 -17 7 -7 8 -7 4 13 5 12 9 0 9
0 0 -20 0 -20 16 0 15 0 15 -15 15 -15 -45 -45 -45 -45 -16 0 -15 0 0 -18 0
-18 20 -14 20 -14 0 -18 0 -18 10 0 10 0 0 20 0 20 10 0 10 0 0 -18 0 -18 -20
-14 -20 -14 0 -28 0 -28 10 0 10 0 0 -19 0 -19 13 -5 12 -4 -8 -9 -8 -8 -9 13
-8 14 -16 -16 -16 -16 0 -5 0 -6 20 0 20 0 0 -20 0 -20 -10 0 -10 0 0 10 0 10
-15 0 -16 0 -27 27 -26 27 12 4 12 4 0 9 0 9 -16 0 -17 0 -18 21 -18 21 -16
-15 -15 -16 0 -15 0 -16 -20 0 -20 0 0 10 0 10 -10 0 -10 0 0 -19 0 -19 -12
-5 -13 -5 15 -11 14 -10 -8 -8 -9 -8 -4 13 -5 12 -9 0 -9 0 0 -20 0 -20 20 0
20 0 0 -58 0 -58 -20 -14 -20 -14 0 -8 0 -8 20 0 20 0 0 -10 0 -10 18 0 18 0
14 20 14 20 8 0 8 0 0 -20 0 -20 36 0 35 0 16 15 15 16 -7 7 -8 7 -4 -12 -5
-13 -9 0 -9 0 0 19 0 19 13 5 12 4 -8 9 -8 8 -10 -14 -9 -15 -10 15 -10 15
-11 -15 -11 -15 -5 13 -5 12 -29 0 -29 0 0 20 0 20 9 0 9 0 5 -12 4 -13 8 7 8
8 -23 20 -23 20 8 8 8 7 4 -12 5 -13 19 0 19 0 0 6 0 7 -22 18 -21 19 8 8 8 7
4 -12 5 -13 19 0 19 0 0 -10 0 -10 30 0 30 0 0 10 0 10 30 0 30 0 0 -9 0 -9
-12 -4 -13 -5 17 -16 17 -17 15 0 16 0 0 10 0 10 -20 0 -20 0 0 10 0 10 40 0
40 0 0 10 0 10 20 0 20 0 0 -10 0 -10 -16 0 -15 0 -16 -15 -15 -16 7 -7 8 -7
4 13 5 12 19 0 19 0 0 -9 0 -9 -12 -6 -13 -6 13 -6 12 -6 0 -9 0 -9 -19 0 -19
0 -6 13 -6 12 -6 -12 -6 -13 -29 0 -29 0 0 -19 0 -19 -12 -4 -13 -5 17 -16 17
-17 75 0 76 0 0 10 0 10 -10 0 -10 0 0 39 0 39 13 6 12 6 -12 6 -13 6 0 69 0
69 6 0 7 0 20 -22 20 -23 4 13 5 12 9 0 9 0 0 -16 0 -17 -22 -20 -23 -20 13
-4 12 -5 0 -19 0 -19 10 0 10 0 0 -20 0 -20 -10 0 -10 0 0 -10 0 -10 20 0 20
0 0 -20 0 -20 -9 0 -9 0 -4 12 -5 13 -17 -18 -18 -18 6 -7 7 -6 10 14 9 15 10
-15 10 -15 11 15 11 15 5 -12 5 -13 39 0 39 0 0 30 0 30 10 0 10 0 0 -20 0
-20 8 0 8 0 14 20 14 20 8 0 8 0 0 -30 0 -30 20 0 20 0 0 10 0 10 -10 0 -10 0
0 30 0 30 -49 0 -49 0 -5 13 -4 12 -20 -22 -20 -23 -12 0 -12 0 -16 15 -15 16
23 19 22 20 -7 7 -7 7 -9 -13 -8 -14 -27 27 -27 27 7 7 8 7 4 -12 5 -13 39 0
39 0 0 10 0 10 -20 0 -20 0 0 10 0 10 16 0 17 0 19 -22 19 -22 10 14 9 15 10
-15 10 -15 11 15 11 15 5 -12 5 -13 18 0 18 0 6 13 6 12 6 -12 6 -13 19 0 19
0 0 -9 0 -9 -12 -5 -13 -5 15 -11 14 -10 -22 -19 -22 -19 0 -22 0 -22 14 -15
15 -14 21 0 21 0 15 14 14 15 0 15 0 16 -9 0 -9 0 -5 -12 -4 -13 -9 9 -9 9 13
4 12 5 0 29 0 29 -10 0 -10 0 0 20 0 20 10 0 10 0 0 40 0 40 10 0 10 0 0 20 0
20 20 0 20 0 0 -16 0 -16 30 -28 30 -28 0 -16 0 -16 -10 0 -10 0 0 16 0 15
-14 15 -15 14 -15 0 -16 0 0 -8 0 -8 20 -14 20 -14 0 -18 0 -18 10 0 10 0 0
-20 0 -20 -10 0 -10 0 0 -19 0 -19 13 -6 12 -6 -12 -6 -13 -6 0 -19 0 -19 80
0 80 0 0 10 0 10 -10 0 -10 0 0 20 0 20 10 0 10 0 0 10 0 10 -30 0 -30 0 0 10
0 10 -20 0 -20 0 0 -10 0 -10 -20 0 -20 0 0 10 0 10 20 0 20 0 0 9 0 9 -12 4
-13 5 17 16 17 17 15 0 16 0 0 10 0 10 28 0 28 0 14 -20 14 -20 8 0 8 0 0 20
0 20 10 0 10 0 0 -10 0 -10 20 0 20 0 0 -10 0 -10 20 0 20 0 0 -10 0 -10 -10
0 -10 0 0 -20 0 -20 -20 0 -20 0 0 20 0 20 10 0 10 0 0 10 0 10 -20 0 -20 0 0
-30 0 -30 10 0 10 0 0 -10 0 -10 -20 0 -20 0 0 10 0 10 -10 0 -10 0 0 -15 0
-16 25 -24 24 -25 25 0 24 0 6 13 6 12 6 -12 6 -13 9 0 9 0 0 39 0 39 -12 6
-13 6 13 6 12 6 0 28 0 28 -12 6 -13 6 13 6 12 6 0 59 0 59 -30 0 -30 0 0 10
0 10 10 0 10 0 0 20 0 20 9 0 9 0 5 -12 4 -13 9 8 8 8 -14 10 -15 11 13 5 12
5 0 49 0 49 -20 0 -20 0 0 10 0 10 -20 0 -20 0 0 -10 0 -10 -20 0 -20 0 0 -20
0 -20 -10 0 -10 0 0 20 0 20 -19 0 -19 0 -6 -12 -6 -13 -6 13 -6 12 -45 0 -44
0 -16 15 -15 16 7 7 8 7 4 -12 5 -13 19 0 19 0 0 10 0 10 -16 0 -15 0 -16 15
-15 16 6 7 7 6 10 -14 11 -15 5 13 5 12 29 0 29 0 0 20 0 20 -9 0 -9 0 -5 -12
-4 -13 -8 7 -7 7 18 18 17 18 5 -13 4 -12 19 0 19 0 0 9 0 9 -12 5 -13 4 23
20 22 20 0 17 0 16 -10 0 -10 0 0 20 0 20 -40 0 -40 0 0 -6 0 -5 14 -15 15
-14 15 0 16 0 0 -16 0 -15 -15 -16 -16 -15 -7 6 -6 7 13 9 14 8 -26 26 -26 26
-25 0 -24 0 -6 -12 -6 -13 -6 13 -6 12 -19 0 -19 0 0 -10 0 -10 -10 0 -10 0 0
16 0 15 -14 15 -15 14 -15 0 -16 0 0 -10 0 -10 -20 0 -20 0 0 10 0 10 10 0 10
0 0 16 0 15 14 15 15 14 35 0 36 0 0 -10 0 -10 19 0 19 0 6 13 6 12 6 -12 6
-13 15 0 16 0 18 -22 19 -21 21 24 22 24 4 -12 5 -13 9 0 9 0 0 39 0 39 12 4
12 4 -26 27 -27 27 -16 0 -15 0 0 10 0 10 -20 0 -20 0 0 20 0 20 10 0 10 0 0
20 0 20 9 0 9 0 5 -12 5 -13 11 15 11 15 10 -15 10 -15 9 15 10 14 22 -24 22
-25 4 13 5 12 39 0 39 0 0 10 0 10 20 0 20 0 0 19 0 19 -12 6 -13 6 13 6 12 6
0 39 0 39 -20 0 -20 0 0 -10 0 -10 -30 0 -30 0 0 -60 0 -60 -20 0 -20 0 0 10
0 10 -20 0 -20 0 0 40 0 40 -10 0 -10 0 0 -16 0 -15 -15 -16 -16 -15 -7 7 -7
8 13 4 12 5 0 17 0 17 20 14 20 14 0 28 0 28 -10 0 -10 0 0 -16 0 -15 -14 -15
-15 -14 -35 0 -36 0 0 -10 0 -10 -50 0 -50 0 0 10 0 10 -16 0 -17 0 -18 22
-19 21 -7 -7 -7 -7 13 -9 14 -8 -16 -16 -16 -16 -5 0 -6 0 0 40 0 40 59 0 59
0 5 13 4 12 23 -25 23 -25 4 13 5 12 28 0 28 0 5 -12 4 -13 20 23 20 22 17 0
16 0 0 20 0 20 10 0 10 0 0 10 0 10 -66 0 -65 0 -15 -14 -14 -15 0 -15 0 -16
-20 0 -20 0 0 9 0 9 13 5 12 4 -9 9 -9 9 -4 -12 -5 -13 -19 0 -19 0 0 20 0 20
-70 0 -70 0 0 -10 0 -10 10 0 10 0 0 -69 0 -69 -12 -5 -13 -5 14 -10 14 -10
-36 -36 -36 -36 -6 0 -5 0 0 40 0 40 10 0 10 0 0 29 0 29 -12 5 -13 5 15 12
15 12 -12 5 -13 5 0 15 0 16 22 18 21 19 -7 7 -7 7 -10 -14 -11 -15 -5 13 -5
12 -39 0 -39 0 0 -20 0 -20 -10 0 -10 0 0 20 0 20 -10 0 -10 0 0 -20 0 -20
-10 0 -10 0 0 10 0 10 -20 0 -20 0 0 10 0 10 -80 0 -80 0 0 -19z m520 -11 l0
-10 -10 0 -10 0 0 10 0 10 10 0 10 0 0 -10z m-360 -19 l0 -9 -12 -5 -13 -4 7
-8 8 -8 20 23 20 23 19 -21 18 -22 17 0 16 0 0 10 0 10 10 0 10 0 0 -30 0 -30
6 0 7 0 18 22 19 21 7 -7 7 -7 -14 -10 -15 -11 13 -5 12 -5 0 -9 0 -9 -20 0
-20 0 0 -10 0 -10 -30 0 -30 0 0 20 0 20 -10 0 -10 0 0 -10 0 -10 -20 0 -20 0
0 10 0 10 -30 0 -30 0 0 20 0 20 -20 0 -20 0 0 20 0 20 40 0 40 0 0 -9z m-100
-27 l0 -15 14 -15 15 -14 11 0 11 0 15 -14 14 -15 0 -5 0 -6 -30 0 -30 0 0 20
0 20 -16 0 -15 0 -15 15 -15 15 13 14 13 15 8 1 7 0 0 -16z m820 -94 l0 -10
-10 0 -10 0 0 10 0 10 10 0 10 0 0 -10z m-774 -25 l15 -15 -16 -16 -16 -16 -7
6 -6 7 14 10 15 11 -12 5 -13 5 0 9 0 9 6 0 5 0 15 -15z m534 6 l0 -9 -12 -6
-13 -6 13 -6 12 -6 0 -19 0 -19 -10 0 -10 0 0 16 0 15 -14 15 -15 14 -5 0 -6
0 0 -20 0 -20 10 0 10 0 0 -20 0 -20 10 0 10 0 0 -19 0 -19 13 -5 12 -4 -9 -9
-9 -9 -4 13 -5 12 -9 0 -9 0 0 -20 0 -20 10 0 10 0 0 -20 0 -20 -15 0 -16 0
-24 25 -25 24 0 16 0 15 10 0 10 0 0 30 0 30 -10 0 -10 0 0 25 0 26 13 14 12
14 38 1 37 0 0 -9z m-160 -21 l0 -10 -10 0 -10 0 0 10 0 10 10 0 10 0 0 -10z
m-60 -26 l0 -17 -22 -18 -21 -19 8 -8 8 -7 4 13 5 12 15 0 16 0 18 -22 19 -21
7 7 7 7 -13 9 -14 8 16 16 16 16 11 0 11 0 15 -14 14 -15 0 -11 0 -11 -14 -15
-15 -14 -25 0 -26 0 0 -10 0 -10 -59 0 -59 0 -4 -12 -4 -12 -27 26 -27 27 0
11 0 11 14 15 15 14 14 0 15 0 4 -12 4 -12 27 26 27 27 0 16 0 15 10 0 10 0 0
-16z m100 6 l0 -10 -10 0 -10 0 0 10 0 10 10 0 10 0 0 -10z m-220 -20 l0 -10
-10 0 -10 0 0 10 0 10 10 0 10 0 0 -10z m-180 -100 l0 -10 -10 0 -10 0 0 10 0
10 10 0 10 0 0 -10z m-20 -50 l0 -20 -10 0 -10 0 0 20 0 20 10 0 10 0 0 -20z
m340 0 l0 -20 10 0 10 0 0 -10 0 -10 -20 0 -20 0 0 20 0 20 -18 0 -18 0 -14
-20 -14 -20 -8 0 -8 0 0 20 0 20 20 0 20 0 0 10 0 10 30 0 30 0 0 -20z m140
-10 l0 -10 20 0 20 0 0 -6 0 -5 -14 -15 -15 -14 -11 0 -11 0 -15 15 -15 15 13
14 13 15 8 1 7 0 0 -10z m120 0 l0 -10 -30 0 -30 0 0 10 0 10 30 0 30 0 0 -10z
m-285 -35 l25 -24 0 -25 0 -24 -12 -6 -13 -6 13 -6 12 -6 0 -29 0 -29 -10 0
-10 0 0 -40 0 -40 -9 0 -9 0 -6 13 -6 12 -6 -12 -6 -13 -19 0 -19 0 0 6 0 7
22 18 21 19 -8 8 -8 7 -4 -12 -5 -13 -9 0 -9 0 0 20 0 20 10 0 10 0 0 20 0 20
-10 0 -10 0 0 19 0 19 -12 5 -13 4 23 20 22 20 0 12 0 12 13 14 12 14 3 1 3 0
24 -25z m-335 -15 l0 -20 20 0 20 0 0 10 0 10 40 0 40 0 0 -10 0 -10 30 0 30
0 0 -10 0 -10 16 0 15 0 17 -17 17 -16 -13 -5 -12 -4 0 -19 0 -19 -10 0 -10 0
0 20 0 20 -6 0 -7 0 -20 -22 -20 -23 -4 13 -5 12 -45 0 -46 0 -20 23 -20 22
-4 -12 -5 -13 -19 0 -19 0 0 30 0 30 10 0 10 0 0 20 0 20 10 0 10 0 0 -20z
m200 10 l0 -10 20 0 20 0 0 -20 0 -20 -10 0 -10 0 0 10 0 10 -20 0 -20 0 0 20
0 20 10 0 10 0 0 -10z m420 -40 l0 -10 -10 0 -10 0 0 10 0 10 10 0 10 0 0 -10z
m-575 -85 l35 -34 0 -16 0 -15 -6 0 -5 0 -15 14 -14 15 0 13 0 14 -20 14 -20
14 0 8 0 8 5 0 6 0 34 -35z m81 -19 l14 -15 0 -15 0 -16 -10 0 -10 0 0 -20 0
-20 10 0 10 0 0 -30 0 -30 -10 0 -10 0 0 -29 0 -29 -12 -5 -13 -4 9 -9 9 -9 4
13 5 12 9 0 9 0 0 -15 0 -16 -25 -25 -25 -25 -15 15 -15 15 0 54 0 55 13 6 12
6 -12 6 -13 6 0 27 0 27 20 14 20 14 0 18 0 18 -10 0 -10 0 0 10 0 10 16 0 15
0 15 -14z m394 -5 l0 -19 13 -6 12 -6 -12 -6 -13 -6 0 -18 0 -18 -12 -6 -13
-6 13 -6 12 -6 0 -18 0 -18 13 -6 12 -6 -12 -6 -13 -6 0 -39 0 -39 30 0 30 0
0 -10 0 -10 -30 0 -30 0 0 -10 0 -10 -30 0 -30 0 0 30 0 30 -10 0 -10 0 0 29
0 29 -12 6 -13 6 13 6 12 6 0 38 0 38 -12 5 -13 4 7 8 8 8 19 -21 18 -22 7 0
6 0 0 20 0 20 20 0 20 0 0 10 0 10 -20 0 -20 0 0 -10 0 -10 -10 0 -10 0 0 15
0 16 13 14 12 14 18 1 17 0 0 -19z m-120 -11 l0 -10 -10 0 -10 0 0 10 0 10 10
0 10 0 0 -10z m-380 -40 l0 -10 -10 0 -10 0 0 10 0 10 10 0 10 0 0 -10z m380
0 l0 -10 -10 0 -10 0 0 10 0 10 10 0 10 0 0 -10z m-180 -20 l0 -10 -10 0 -10
0 0 10 0 10 10 0 10 0 0 -10z m-40 -20 l0 -10 -10 0 -10 0 0 10 0 10 10 0 10
0 0 -10z m150 -30 l14 -20 18 0 18 0 0 10 0 10 20 0 20 0 0 -10 0 -10 -20 0
-20 0 0 -10 0 -10 20 0 20 0 0 -6 0 -5 -14 -15 -15 -14 -34 0 -35 0 -4 12 -5
13 -17 -18 -17 -17 15 -15 15 -15 15 0 16 0 0 -30 0 -30 -20 0 -20 0 0 -10 0
-10 10 0 10 0 0 -59 0 -59 -12 -5 -13 -4 24 -22 24 -21 -7 -7 -7 -7 -10 14 -9
15 -11 -15 -11 -15 -5 13 -5 12 -19 0 -19 0 0 10 0 10 20 0 20 0 0 10 0 10
-10 0 -10 0 0 40 0 40 -10 0 -10 0 0 20 0 20 10 0 10 0 0 60 0 60 10 0 10 0 0
10 0 10 -40 0 -40 0 0 -10 0 -10 -16 0 -15 0 -17 17 -17 16 13 5 12 4 0 19 0
19 40 0 40 0 0 10 0 10 38 0 38 0 14 -20z m-270 -10 l0 -10 -10 0 -10 0 0 -20
0 -20 -20 0 -20 0 0 -20 0 -20 -6 0 -5 0 -15 14 -14 15 0 15 0 16 20 0 20 0 0
10 0 10 20 0 20 0 0 10 0 10 10 0 10 0 0 -10z m-140 -100 l0 -10 -10 0 -10 0
0 10 0 10 10 0 10 0 0 -10z m300 -10 l0 -20 -10 0 -10 0 0 20 0 20 10 0 10 0
0 -20z m488 3 l17 -16 -13 -5 -12 -4 0 -19 0 -19 10 0 10 0 0 20 0 20 20 0 20
0 0 20 0 20 10 0 10 0 0 -10 0 -10 20 0 20 0 0 -10 0 -10 -30 0 -30 0 0 -18 0
-18 20 -14 20 -14 0 -14 0 -13 -14 -15 -15 -14 -5 0 -6 0 0 20 0 20 -10 0 -10
0 0 -18 0 -18 20 -14 20 -14 0 -18 0 -18 -10 0 -10 0 0 10 0 10 -10 0 -10 0 0
-30 0 -30 -10 0 -10 0 0 20 0 20 -10 0 -10 0 0 -20 0 -20 -10 0 -10 0 0 20 0
20 -10 0 -10 0 0 19 0 19 12 4 13 5 -17 16 -17 17 -15 0 -16 0 0 -9 0 -9 13
-5 12 -4 -8 -9 -8 -8 -10 14 -11 15 -5 -12 -5 -13 -29 0 -29 0 0 10 0 10 -40
0 -40 0 0 -10 0 -10 -29 0 -29 0 -6 13 -6 12 -6 -12 -6 -13 -9 0 -9 0 0 19 0
19 13 5 12 4 -9 9 -9 9 -4 -12 -5 -13 -9 0 -9 0 0 16 0 15 16 16 16 16 10 -14
10 -14 5 13 5 12 59 0 59 0 0 -10 0 -10 20 0 20 0 0 -20 0 -20 9 0 9 0 5 13 5
12 12 -15 12 -15 5 13 5 12 19 0 19 0 0 10 0 10 -10 0 -10 0 0 10 0 10 20 0
20 0 0 19 0 19 -12 4 -12 4 14 17 15 16 3 1 3 0 17 -17z m-688 -13 l0 -10 -10
0 -10 0 0 10 0 10 10 0 10 0 0 -10z m360 -20 l0 -10 -10 0 -10 0 0 10 0 10 10
0 10 0 0 -10z m260 0 l0 -10 -10 0 -10 0 0 10 0 10 10 0 10 0 0 -10z m-556
-42 l6 -13 6 13 6 12 19 0 19 0 0 -20 0 -20 19 0 19 0 5 -12 4 -13 9 9 9 9
-12 4 -13 5 0 19 0 19 10 0 10 0 0 -20 0 -20 10 0 10 0 0 -29 0 -29 13 -5 12
-4 -9 -9 -9 -9 -4 13 -5 12 -18 0 -18 0 -5 13 -4 12 -20 -22 -20 -23 -27 0
-26 0 0 10 0 10 -30 0 -30 0 0 10 0 10 -19 0 -19 0 -5 -12 -4 -13 -9 9 -9 9
13 4 12 5 0 9 0 9 -20 0 -20 0 0 6 0 5 14 15 15 14 35 0 36 0 0 10 0 10 19 0
19 0 6 -12z m536 2 l0 -10 -20 0 -20 0 0 10 0 10 20 0 20 0 0 -10z m-820 -140
l0 -10 16 0 15 0 16 -15 15 -16 -7 -7 -8 -7 -4 13 -5 12 -15 0 -14 0 -15 14
-14 15 0 5 0 6 10 0 10 0 0 -10z m220 0 l0 -10 -20 0 -20 0 0 10 0 10 20 0 20
0 0 -10z m800 0 l0 -10 -10 0 -10 0 0 10 0 10 10 0 10 0 0 -10z m-400 -40 l0
-10 -10 0 -10 0 0 10 0 10 10 0 10 0 0 -10z m-360 -80 l0 -10 -10 0 -10 0 0
10 0 10 10 0 10 0 0 -10z m-60 -50 l0 -20 10 0 10 0 0 -10 0 -10 -20 0 -20 0
0 30 0 30 10 0 10 0 0 -20z m-260 -10 l0 -10 -10 0 -10 0 0 10 0 10 10 0 10 0
0 -10z m220 0 l0 -10 -10 0 -10 0 0 10 0 10 10 0 10 0 0 -10z m700 -10 l0 -20
-10 0 -10 0 0 10 0 10 -20 0 -20 0 0 10 0 10 30 0 30 0 0 -20z m120 -10 l0
-10 -10 0 -10 0 0 10 0 10 10 0 10 0 0 -10z"/>
<path d="M840 970 l0 -10 10 0 10 0 0 10 0 10 -10 0 -10 0 0 -10z"/>
<path d="M640 950 l0 -10 10 0 10 0 0 10 0 10 -10 0 -10 0 0 -10z"/>
<path d="M740 810 l0 -10 10 0 10 0 0 10 0 10 -10 0 -10 0 0 -10z"/>
<path d="M740 700 l0 -20 10 0 10 0 0 20 0 20 -10 0 -10 0 0 -20z"/>
<path d="M480 790 l0 -10 10 0 10 0 0 10 0 10 -10 0 -10 0 0 -10z"/>
<path d="M540 770 l0 -10 20 0 20 0 0 10 0 10 -20 0 -20 0 0 -10z"/>
<path d="M880 570 l0 -10 10 0 10 0 0 10 0 10 -10 0 -10 0 0 -10z"/>
<path d="M680 550 l0 -10 20 0 20 0 0 10 0 10 -20 0 -20 0 0 -10z"/>
<path d="M700 410 l0 -10 20 0 20 0 0 10 0 10 -20 0 -20 0 0 -10z"/>
<path d="M440 330 l0 -10 20 0 20 0 0 10 0 10 -20 0 -20 0 0 -10z"/>
<path d="M520 330 l0 -10 10 0 10 0 0 10 0 10 -10 0 -10 0 0 -10z"/>
<path d="M1140 1260 l0 -20 10 0 10 0 0 20 0 20 -10 0 -10 0 0 -20z"/>
<path d="M1180 1241 l0 -39 -12 -4 -13 -5 17 -16 17 -17 15 0 16 0 0 20 0 20
-10 0 -10 0 0 20 0 20 10 0 10 0 0 -10 0 -10 30 0 30 0 0 9 0 9 -12 6 -13 6
13 6 12 6 0 9 0 9 -50 0 -50 0 0 -39z m20 -51 l0 -10 -10 0 -10 0 0 10 0 10
10 0 10 0 0 -10z"/>
<path d="M40 1190 l0 -10 10 0 10 0 0 10 0 10 -10 0 -10 0 0 -10z"/>
<path d="M140 1190 l0 -10 19 0 19 0 5 -12 4 -13 8 7 7 7 -15 16 -16 15 -15 0
-16 0 0 -10z"/>
<path d="M1120 1190 l0 -10 10 0 10 0 0 10 0 10 -10 0 -10 0 0 -10z"/>
<path d="M980 1170 l0 -10 10 0 10 0 0 10 0 10 -10 0 -10 0 0 -10z"/>
<path d="M0 1111 l0 -49 13 -6 12 -6 -12 -6 -13 -6 0 -38 0 -38 13 -6 12 -6
-13 -6 -12 -6 0 -28 0 -28 13 -6 12 -6 -12 -6 -13 -6 0 -29 0 -29 29 0 29 0 5
13 5 12 12 -15 12 -15 5 13 5 12 15 0 15 0 29 -31 30 -32 7 7 6 7 -13 9 -14 8
16 16 16 16 25 0 26 0 0 -20 0 -20 -9 0 -9 0 -5 13 -4 12 -9 -9 -9 -9 13 -4
12 -5 0 -19 0 -19 10 0 10 0 0 -10 0 -10 -20 0 -20 0 0 -10 0 -10 -10 0 -10 0
0 20 0 20 -10 0 -10 0 0 -10 0 -10 -39 0 -39 0 -6 13 -6 12 -6 -12 -6 -13 -18
0 -18 0 -4 12 -5 13 -16 -17 -17 -17 0 -45 0 -46 10 0 10 0 0 10 0 10 20 0 20
0 0 -10 0 -10 20 0 20 0 0 -10 0 -10 -20 0 -20 0 0 -20 0 -20 10 0 10 0 0 10
0 10 10 0 10 0 0 -29 0 -29 12 -4 13 -5 -18 -18 -19 -18 -8 14 -9 13 -8 -8 -8
-9 13 -4 12 -5 0 -28 0 -28 -12 -5 -13 -5 15 -11 14 -10 -8 -8 -9 -8 -4 13 -5
12 -19 0 -19 0 0 50 0 50 -10 0 -10 0 0 -70 0 -70 9 0 9 0 6 13 6 12 6 -12 6
-13 39 0 39 0 0 -20 0 -20 30 0 30 0 0 20 0 20 20 0 20 0 0 -16 0 -15 14 -15
15 -14 5 0 6 0 0 19 0 19 -12 6 -13 6 12 6 13 6 0 19 0 19 10 0 10 0 0 19 0
19 -12 5 -13 5 15 11 14 10 -7 8 -8 7 -9 -14 -9 -14 -22 24 -22 25 -4 -12 -5
-13 -19 0 -19 0 0 -10 0 -10 -10 0 -10 0 0 20 0 20 20 0 20 0 0 20 0 20 -9 0
-9 0 -4 -12 -5 -13 -17 17 -17 18 26 26 26 26 7 -7 7 -8 -13 -4 -12 -5 0 -9 0
-9 40 0 40 0 0 6 0 7 -22 18 -21 19 6 7 7 6 19 -21 18 -22 17 0 16 0 0 -20 0
-20 20 0 20 0 0 10 0 10 30 0 30 0 0 6 0 5 -15 16 -16 15 -19 -23 -20 -22 -8
8 -7 8 13 4 12 5 0 9 0 9 -16 0 -15 0 -17 17 -17 16 13 5 12 4 0 18 0 18 12 6
13 6 -12 6 -13 6 0 28 0 28 13 6 12 6 -13 6 -12 6 0 18 0 18 13 5 12 5 -15 12
-15 12 13 5 12 5 0 39 0 39 -20 0 -20 0 0 10 0 10 -29 0 -29 0 -5 -12 -4 -13
-9 9 -9 9 13 4 12 5 0 19 0 19 -20 0 -20 0 0 10 0 10 29 0 29 0 6 -12 6 -13 6
13 6 12 19 0 19 0 0 10 0 10 20 0 20 0 0 8 0 8 -20 14 -20 14 0 18 0 18 10 0
10 0 0 10 0 10 -30 0 -30 0 0 -10 0 -10 -50 0 -50 0 0 10 0 10 -60 0 -60 0 0
10 0 10 -10 0 -10 0 0 -49z m120 -21 l0 -30 -10 0 -10 0 0 20 0 20 -10 0 -10
0 0 -18 0 -18 20 -14 20 -14 0 -16 0 -16 20 -14 20 -14 0 -18 0 -18 -10 0 -10
0 0 10 0 10 -20 0 -20 0 0 -10 0 -10 10 0 10 0 0 -29 0 -29 -12 -5 -13 -5 14
-10 14 -10 -17 -18 -18 -17 -9 14 -9 14 -9 -14 -9 -14 -19 18 -18 18 13 5 12
4 0 48 0 48 -12 5 -13 4 24 22 24 21 -8 8 -8 7 -4 -12 -5 -13 -9 0 -9 0 0 20
0 20 10 0 10 0 0 19 0 19 13 6 12 6 -12 6 -13 6 0 9 0 9 40 0 40 0 0 -30z
m140 0 l0 -10 -19 0 -19 0 -5 -12 -4 -13 -8 7 -7 7 13 15 14 15 18 1 17 0 0
-10z m-60 -180 l0 -10 -20 0 -20 0 0 10 0 10 20 0 20 0 0 -10z m-40 -40 l0
-10 -10 0 -10 0 0 10 0 10 10 0 10 0 0 -10z m80 0 l0 -10 -10 0 -10 0 0 10 0
10 10 0 10 0 0 -10z m-200 -160 l0 -10 19 0 19 0 4 12 5 13 19 -19 19 -19 -13
-5 -12 -4 0 -19 0 -19 -20 0 -20 0 0 20 0 20 -9 0 -9 0 -5 -12 -4 -13 -9 8 -8
8 14 10 15 11 -12 5 -13 5 0 9 0 9 10 0 10 0 0 -10z m220 -20 l0 -10 -10 0
-10 0 0 10 0 10 10 0 10 0 0 -10z m-60 -20 l0 -10 -20 0 -20 0 0 10 0 10 20 0
20 0 0 -10z m-80 -220 l0 -10 -10 0 -10 0 0 10 0 10 10 0 10 0 0 -10z m80 -40
l0 -10 -10 0 -10 0 0 10 0 10 10 0 10 0 0 -10z"/>
<path d="M80 690 l0 -10 10 0 10 0 0 10 0 10 -10 0 -10 0 0 -10z"/>
<path d="M1140 1070 l0 -10 10 0 10 0 0 10 0 10 -10 0 -10 0 0 -10z"/>
<path d="M331 1024 l-13 -15 7 -7 8 -7 4 13 5 12 9 0 9 0 0 -20 0 -20 10 0 10
0 0 -20 0 -20 10 0 10 0 0 36 0 35 -14 15 -15 14 -13 0 -13 -1 -14 -15z"/>
<path d="M560 1000 l0 -20 20 0 20 0 0 6 0 5 -14 15 -15 14 -5 0 -6 0 0 -20z"/>
<path d="M1251 984 l-13 -15 6 -6 5 -5 16 15 15 16 0 5 0 6 -7 0 -8 -1 -14
-15z"/>
<path d="M1180 970 l0 -10 10 0 10 0 0 10 0 10 -10 0 -10 0 0 -10z"/>
<path d="M560 950 l0 -10 10 0 10 0 0 10 0 10 -10 0 -10 0 0 -10z"/>
<path d="M1240 930 l0 -10 -20 0 -20 0 0 -10 0 -10 -19 0 -19 0 -5 13 -5 12
-11 -15 -11 -15 -9 15 -10 14 -7 -6 -6 -7 15 -16 16 -15 25 0 26 0 0 -10 0
-10 20 0 20 0 0 -9 0 -9 -12 -4 -13 -5 17 -16 17 -17 25 0 26 0 0 10 0 10 -10
0 -10 0 0 20 0 20 10 0 10 0 0 40 0 40 -20 0 -20 0 0 -10z"/>
<path d="M1120 852 l0 -8 20 -14 20 -14 0 -18 0 -18 20 0 20 0 0 -40 0 -40
-10 0 -10 0 0 10 0 10 -10 0 -10 0 0 -19 0 -19 13 -5 12 -4 -9 -9 -9 -9 -4 13
-5 12 -9 0 -9 0 0 -20 0 -20 -20 0 -20 0 0 -10 0 -10 20 0 20 0 0 -20 0 -20
16 0 16 0 38 -40 38 -40 16 0 16 0 0 69 0 69 -12 6 -13 6 13 6 12 6 0 39 0 39
-30 0 -30 0 0 20 0 20 -10 0 -10 0 0 20 0 20 -10 0 -10 0 0 20 0 20 -9 0 -9 0
-6 -12 -6 -13 -6 13 -6 12 -9 0 -9 0 0 -8z m120 -262 l0 -10 -10 0 -10 0 0 10
0 10 10 0 10 0 0 -10z m20 -50 l0 -20 -6 0 -5 0 -15 14 -14 15 0 5 0 6 20 0
20 0 0 -20z"/>
<path d="M1093 585 l-13 -14 0 -6 0 -5 26 0 25 0 17 -17 17 -16 -13 -5 -12 -4
0 -9 0 -9 20 0 20 0 0 15 0 16 -35 34 -34 35 -3 0 -3 -1 -12 -14z"/>
<path d="M0 560 l0 -20 10 0 10 0 0 20 0 20 -10 0 -10 0 0 -20z"/>
<path d="M280 510 l0 -10 10 0 10 0 0 10 0 10 -10 0 -10 0 0 -10z"/>
<path d="M300 390 l0 -10 10 0 10 0 0 10 0 10 -10 0 -10 0 0 -10z"/>
<path d="M300 350 l0 -10 10 0 10 0 0 10 0 10 -10 0 -10 0 0 -10z"/>
<path d="M0 240 l0 -60 19 0 19 0 5 -12 4 -13 8 7 8 8 -21 19 -22 18 0 7 0 6
16 0 15 0 15 14 14 15 0 5 0 6 -20 0 -20 0 0 -10 0 -10 -10 0 -10 0 0 30 0 30
-10 0 -10 0 0 -60z"/>
<path d="M80 140 l0 -20 10 0 10 0 0 20 0 20 -10 0 -10 0 0 -20z"/>
<path d="M1073 145 l-13 -14 0 -6 0 -5 16 0 15 0 15 14 14 15 0 5 0 6 -17 0
-18 -1 -12 -14z"/>
<path d="M0 120 l0 -20 20 0 20 0 0 6 0 5 -14 15 -15 14 -5 0 -6 0 0 -20z"/>
<path d="M780 130 l0 -10 10 0 10 0 0 10 0 10 -10 0 -10 0 0 -10z"/>
<path d="M60 90 l0 -10 10 0 10 0 0 10 0 10 -10 0 -10 0 0 -10z"/>
<path d="M13 65 l-13 -14 0 -26 0 -25 20 0 20 0 0 40 0 40 -7 0 -8 -1 -12 -14z"/>
<path d="M920 30 l0 -10 10 0 10 0 0 10 0 10 -10 0 -10 0 0 -10z"/>
</g>
</svg>
