<?xml version="1.0" standalone="no"?>
<!DOCTYPE svg PUBLIC "-//W3C//DTD SVG 20010904//EN"
 "http://www.w3.org/TR/2001/REC-SVG-20010904/DTD/svg10.dtd">
<svg version="1.0" xmlns="http://www.w3.org/2000/svg"
 width="468pt" height="468pt" viewBox="0 0 468 468"
 preserveAspectRatio="xMidYMid meet">
<metadata>
Created by potrace 1.8, written by Peter Selinger 2001-2007
</metadata>
<g transform="translate(0,468) scale(0.365625,-0.365625)"
fill="#000000" stroke="none">
<path d="M0 1249 l0 -29 20 0 20 0 0 -10 0 -10 -19 0 -20 0 0 -419 0 -420 22
-4 22 -4 -22 -2 -23 -1 0 -135 0 -135 15 0 15 0 0 -10 0 -10 -15 0 -15 0 0
-30 0 -30 44 2 43 3 -4 15 -5 15 11 -15 10 -15 83 0 83 0 7 15 7 15 0 -16 1
-16 100 1 101 1 10 15 11 15 -5 -15 -4 -15 33 -1 33 -1 4 21 4 21 2 -22 1 -22
61 3 60 2 11 15 10 14 -6 -18 -6 -18 49 3 48 3 -4 15 -5 15 12 -17 11 -18 10
0 10 0 10 23 10 22 -5 -22 -4 -22 139 2 139 2 0 18 0 17 10 0 10 0 0 -19 0
-19 68 1 67 2 0 27 1 28 -18 0 -18 0 0 10 0 10 20 0 21 0 -1 200 -1 200 -17
11 -17 11 18 -6 18 -6 -4 76 -5 76 -13 10 -14 10 18 -6 18 -6 -5 61 -4 61 -13
10 -14 10 18 -6 17 -5 0 34 0 35 -15 0 -15 0 0 10 0 10 14 0 13 0 -1 20 -1 21
-15 10 -15 11 17 -6 17 -5 -2 109 -2 109 -15 5 -15 4 16 1 16 1 -3 32 -4 32
-13 9 -12 9 18 -6 17 -5 0 29 0 29 -640 0 -640 -1 0 -29z m57 -36 l-5 -18 0
30 0 30 5 -12 5 -13 -5 -17z m153 27 l0 -10 -10 0 -10 0 0 10 0 10 10 0 10 0
0 -10z m570 0 l0 -10 -10 0 -10 0 0 10 0 10 10 0 10 0 0 -10z m-642 -41 l-4
-13 -7 23 -6 24 11 -11 10 -10 -4 -13z m140 -5 l-4 -19 -6 28 -6 29 10 -10 10
-10 -4 -18z m152 10 l0 -14 -9 0 -9 0 -5 19 -5 20 14 -6 14 -5 0 -14z m138 5
l4 -14 -11 15 -11 15 -9 -15 -10 -14 -8 7 -7 8 14 9 15 10 9 -3 10 -3 4 -15z
m142 -2 l0 -12 -10 15 -10 15 0 -12 0 -13 -15 0 -15 0 0 9 0 10 18 4 17 3 8
-3 7 -4 0 -12z m138 -13 l-4 -19 -6 28 -6 29 10 -10 10 -10 -4 -18z m152 10
l0 -14 -9 0 -9 0 -5 19 -5 20 14 -6 14 -5 0 -14z m140 0 l0 -14 -9 0 -9 0 -5
19 -5 20 14 -6 14 -5 0 -14z m-930 6 l0 -10 -15 0 -15 0 0 10 0 10 15 0 15 0
0 -10z m110 0 l0 -10 -10 0 -10 0 0 10 0 10 10 0 10 0 0 -10z m150 0 l0 -10
-15 0 -15 0 0 10 0 10 15 0 15 0 0 -10z m30 0 l0 -10 -10 0 -10 0 0 10 0 10
10 0 10 0 0 -10z m110 0 l0 -10 -15 0 -15 0 0 10 0 10 15 0 15 0 0 -10z m40 0
l0 -10 -15 0 -15 0 0 10 0 10 15 0 15 0 0 -10z m100 0 l0 -10 -15 0 -15 0 0
10 0 10 15 0 15 0 0 -10z m30 -5 l0 -15 -10 0 -10 0 0 15 0 15 10 0 10 0 0
-15z m110 5 l0 -10 -10 0 -10 0 0 10 0 10 10 0 10 0 0 -10z m140 0 l0 -10 -10
0 -10 0 0 10 0 10 10 0 10 0 0 -10z m150 0 l0 -10 -15 0 -15 0 0 10 0 10 15 0
15 0 0 -10z m-693 -42 l-5 -13 -1 19 -1 19 6 -6 6 -6 -5 -13z m-350 -10 l-5
-13 -1 19 -1 19 6 -6 6 -6 -5 -13z m113 12 l0 -10 -10 0 -10 0 0 10 0 10 10 0
10 0 0 -10z m180 0 l0 -10 -10 0 -10 0 0 10 0 10 10 0 10 0 0 -10z m350 -10
l0 -20 -10 0 -10 0 0 20 0 20 10 0 10 0 0 -20z m50 10 l0 -10 -10 0 -10 0 0
10 0 10 10 0 10 0 0 -10z m170 0 l0 -10 -10 0 -10 0 0 10 0 10 10 0 10 0 0
-10z m140 0 l0 -10 -10 0 -10 0 0 10 0 10 10 0 10 0 0 -10z m-1020 -20 l0 -10
-10 0 -10 0 0 10 0 10 10 0 10 0 0 -10z m270 -7 l0 -5 -15 6 -14 5 -10 -17
-10 -17 -1 17 0 16 13 5 12 4 13 -5 12 -4 0 -5z m570 0 l0 -5 -15 6 -14 5 -10
-17 -10 -17 -1 17 0 16 13 5 12 4 13 -5 12 -4 0 -5z m135 7 l6 -10 -15 6 -16
6 -9 -23 -10 -24 0 22 -1 21 13 5 12 5 7 1 7 1 6 -10z m140 0 l6 -10 -8 1 -8
1 -12 -1 -12 -1 -4 -17 -5 -18 -1 22 -1 22 18 4 17 5 2 1 2 1 6 -10z m-1155
-7 l-15 -6 -7 -11 -8 -11 0 18 0 17 23 -1 22 -1 -15 -5z m136 -8 l-15 -15 -5
0 -6 0 0 15 0 15 21 0 20 0 -15 -15z m211 9 l-6 -6 -13 5 -13 5 19 1 19 1 -6
-6z m60 -26 l-5 -13 0 25 0 25 5 -12 5 -13 -5 -12z m510 26 l-6 -6 -13 5 -13
5 19 1 19 1 -6 -6z m140 0 l-6 -6 -13 5 -13 5 19 1 19 1 -6 -6z m-520 -30 l-6
-6 -13 5 -13 5 19 1 19 1 -6 -6z m38 -4 l-6 -10 -10 0 -9 0 0 10 0 10 16 0 15
0 -6 -10z m42 4 l-6 -6 -13 5 -13 5 19 1 19 1 -6 -6z m83 -4 l0 -10 -10 0 -10
0 0 10 0 10 10 0 10 0 0 -10z m-570 -10 l0 -10 -10 0 -10 0 0 10 0 10 10 0 10
0 0 -10z m135 0 l6 -10 -15 6 -16 6 0 4 0 4 9 0 10 0 6 -10z m142 -32 l-5 -13
0 25 0 25 5 -12 5 -13 -5 -12z m570 0 l-5 -13 0 25 0 25 5 -12 5 -13 -5 -12z
m135 0 l-11 -11 6 24 7 23 4 -13 4 -13 -10 -10z m-1065 0 l-5 -13 -1 19 -1 19
6 -6 6 -6 -5 -13z m146 9 l5 -14 -13 0 -13 0 5 14 5 13 3 0 3 0 5 -13z m153
-25 l-7 -6 -9 14 -10 15 0 8 0 8 16 -16 16 -16 -6 -7z m158 1 l-6 -38 -3 -4
-4 -3 1 41 0 41 9 0 9 0 -6 -37z m66 27 l0 -10 -10 0 -10 0 0 10 0 10 10 0 10
0 0 -10z m125 -19 l-4 -3 -10 7 -11 6 0 10 0 10 14 -13 14 -13 -3 -4z m55 19
l0 -10 -10 0 -10 0 0 10 0 10 10 0 10 0 0 -10z m173 -4 l6 -14 -6 -6 -6 -6
-11 0 -11 0 15 10 15 10 -12 0 -13 0 0 10 0 10 9 0 9 0 5 -14z m137 -16 l0
-30 -10 0 -10 0 0 30 0 30 10 0 10 0 0 -30z m-793 4 l-6 -6 -13 5 -13 5 19 1
19 1 -6 -6z m120 0 l-6 -6 -13 5 -13 5 19 1 19 1 -6 -6z m403 2 l0 -4 -15 -6
-15 -5 0 9 0 10 15 0 15 0 0 -4z m37 -2 l-6 -6 -13 5 -13 5 19 1 19 1 -6 -6z
m-560 -36 l-5 -13 -1 19 -1 19 6 -6 6 -6 -5 -13z m433 -13 l0 -35 -10 0 -10 0
0 35 0 35 10 0 10 0 0 -35z m-723 -7 l-5 -13 -1 19 -1 19 6 -6 6 -6 -5 -13z
m373 12 l0 -10 -10 0 -10 0 0 10 0 10 10 0 10 0 0 -10z m570 -5 l0 -15 -10 0
-10 0 0 15 0 15 10 0 10 0 0 -15z m-513 -27 l-5 -13 0 25 0 25 5 -12 5 -13 -5
-12z m609 20 l7 -11 -13 8 -13 8 -14 -18 -13 -19 0 16 0 16 13 5 12 5 7 1 7 1
7 -12z m44 8 l0 -4 -16 -6 -15 -6 6 10 6 10 10 0 9 0 0 -4z m130 -14 l5 -5
-37 6 -38 6 -1 -22 -1 -22 -5 13 -5 13 6 14 5 15 33 -7 33 -6 5 -5z m-916 -7
l-6 -15 -4 0 -4 0 0 15 0 15 10 0 9 0 -5 -15z m43 9 l-6 -6 -13 5 -13 5 19 1
19 1 -6 -6z m440 0 l-6 -6 -13 5 -13 5 19 1 19 1 -6 -6z m80 0 l-6 -6 -13 5
-13 5 19 1 19 1 -6 -6z m46 -1 l-13 -5 -12 5 -13 5 25 0 25 0 -12 -5z m-797
-39 l-6 -16 0 -9 0 -9 -10 0 -10 0 0 15 0 15 13 0 12 0 -15 10 -15 10 19 0 18
0 -6 -16z m69 6 l-20 -7 -17 5 -18 4 0 3 0 3 38 0 37 0 -20 -8z m112 -22 l-5
-13 -1 19 -1 19 6 -6 6 -6 -5 -13z m140 0 l-5 -13 -1 19 -1 19 6 -6 6 -6 -5
-13z m293 7 l0 -15 -10 0 -10 0 0 15 0 15 10 0 10 0 0 -15z m277 -16 l2 -24
-6 20 -5 20 -12 8 -11 9 15 -5 15 -4 2 -24z m-627 11 l0 -10 -10 0 -10 0 0 10
0 10 10 0 10 0 0 -10z m180 -25 l0 -2 -26 0 -26 0 13 7 12 8 14 -5 13 -5 0 -3z
m130 5 l0 -10 -10 0 -10 0 0 10 0 10 10 0 10 0 0 -10z m121 -8 l-13 -4 -10 10
-11 11 24 -6 23 -7 -13 -4z m54 8 l-6 -10 -17 1 -17 0 20 9 20 9 3 0 3 1 -6
-10z m108 -1 l12 0 -24 -10 -24 -9 -5 5 -5 5 14 0 14 0 -15 11 -15 11 18 -6
19 -6 11 -1z m123 -7 l-18 -4 -10 10 -10 10 29 -6 28 -6 -19 -4z m-799 -24
l-5 -13 0 25 0 25 5 -12 5 -13 -5 -12z m83 22 l0 -10 -10 0 -10 0 0 10 0 10
10 0 10 0 0 -10z m37 4 l-6 -6 -13 5 -13 5 19 1 19 1 -6 -6z m180 0 l-6 -6
-13 5 -13 5 19 1 19 1 -6 -6z m130 0 l-6 -6 -13 5 -13 5 19 1 19 1 -6 -6z
m-613 -26 l-2 -23 -1 -12 -1 -13 -10 0 -10 0 0 15 0 15 13 1 12 1 -12 5 -13 5
0 14 0 14 13 0 14 0 -3 -22z m-107 -10 l-5 -13 -1 19 -1 19 6 -6 6 -6 -5 -13z
m510 0 l-5 -13 -1 19 -1 19 6 -6 6 -6 -5 -13z m140 -10 l-5 -13 0 25 0 25 5
-12 5 -13 -5 -12z m140 10 l-5 -13 -1 19 -1 19 6 -6 6 -6 -5 -13z m293 12 l0
-10 -10 0 -10 0 0 10 0 10 10 0 10 0 0 -10z m-710 -20 l0 -10 -10 0 -10 0 0
10 0 10 10 0 10 0 0 -10z m570 0 l0 -10 -10 0 -10 0 0 10 0 10 10 0 10 0 0
-10z m-653 -22 l-5 -13 -1 19 -1 19 6 -6 6 -6 -5 -13z m463 -1 l0 -12 -9 14
-9 14 -7 -22 -6 -21 -10 0 -9 0 0 19 0 20 18 4 17 3 8 -3 7 -4 0 -12z m130 0
l0 -12 -10 15 -10 15 0 -19 0 -19 -6 6 -6 6 6 16 6 16 10 -6 10 -6 0 -12z
m200 8 l0 -15 -10 0 -10 0 0 15 0 15 10 0 10 0 0 -15z m99 -8 l-1 -12 -5 13
-5 13 -19 -22 -19 -22 0 21 0 21 18 4 17 3 8 -3 7 -4 -1 -12z m-1182 -34 l-5
-18 0 35 0 35 5 -17 4 -18 -4 -17z m343 37 l0 -10 -20 0 -20 0 0 10 0 10 20 0
20 0 0 -10z m160 1 l0 -9 -40 -4 -40 -4 0 13 0 13 40 0 40 0 0 -9z m130 0 l0
-9 -35 -4 -35 -4 0 13 0 13 35 0 35 0 0 -9z m400 0 l0 -9 -20 -5 -20 -5 0 14
0 14 20 0 20 0 0 -9z m-350 -41 l0 -10 -10 0 -10 0 0 10 0 10 10 0 10 0 0 -10z
m177 -12 l-5 -13 -1 19 -1 19 6 -6 6 -6 -5 -13z m140 -15 l-5 -18 0 30 0 30 5
-12 5 -13 -5 -17z m123 27 l0 -10 -10 0 -10 0 0 10 0 10 10 0 10 0 0 -10z
m-835 -29 l-6 -11 -17 1 -17 1 18 5 17 4 0 11 0 11 6 -6 6 -6 -7 -10z m435 4
l0 -15 -10 0 -10 0 0 15 0 15 10 0 10 0 0 -15z m-350 -21 l0 -14 -9 0 -9 0 -5
19 -5 20 14 -6 14 -5 0 -14z m180 9 l0 -5 -20 5 -20 5 0 -16 0 -15 -6 6 -6 6
5 15 6 14 20 -5 21 -5 0 -5z m97 -15 l-5 -13 0 25 0 25 5 -12 5 -13 -5 -12z
m293 17 l0 -2 -32 0 -33 -1 20 8 20 7 13 -4 12 -5 0 -3z m-887 -2 l-13 -5 -12
5 -13 5 25 0 25 0 -12 -5z m184 1 l-6 -6 -13 5 -13 5 19 1 19 1 -6 -6z m170 0
l-6 -6 -13 5 -13 5 19 1 19 1 -6 -6z m280 0 l-6 -6 -13 5 -13 5 19 1 19 1 -6
-6z m128 -1 l-20 -5 -6 -10 -6 -10 -6 14 -5 14 32 1 31 1 -20 -5z m222 1 l-6
-6 -13 5 -13 5 19 1 19 1 -6 -6z m100 -16 l-5 -13 -1 19 -1 19 6 -6 6 -6 -5
-13z m-920 -40 l-5 -13 0 25 0 25 5 -12 5 -13 -5 -12z m290 0 l-5 -13 -1 19
-1 19 6 -6 6 -6 -5 -13z m140 0 l-5 -13 -1 19 -1 19 6 -6 6 -6 -5 -13z m135
-10 l-11 -11 6 24 7 23 4 -13 4 -13 -10 -10z m368 2 l8 -5 -13 -11 -12 -12 0
32 -1 31 6 -15 5 -15 7 -5z m-1073 -2 l-5 -13 -1 19 -1 19 6 -6 6 -6 -5 -13z
m248 -1 l10 -9 -17 6 -17 5 -10 -17 -10 -17 -1 13 0 13 13 13 12 14 5 -6 5 -7
10 -8z m422 1 l-5 -13 -1 19 -1 19 6 -6 6 -6 -5 -13z m110 -10 l-5 -13 0 25 0
25 5 -12 5 -13 -5 -12z m-822 5 l-30 -5 -7 -11 -8 -12 0 18 0 17 38 -1 37 -2
-30 -4z m148 0 l-23 -4 -22 4 -23 4 45 0 45 0 -22 -4z m184 1 l-6 -6 -13 5
-13 5 19 1 19 1 -6 -6z m113 2 l0 -4 -30 -4 -30 -5 0 9 0 8 30 0 30 0 0 -4z
m125 -3 l-30 -5 -7 -11 -8 -12 0 18 0 17 38 -1 37 -2 -30 -4z m120 -3 l-6 -10
-10 0 -9 0 0 10 0 10 16 0 15 0 -6 -10z m-575 -25 l0 -15 -10 0 -10 0 0 15 0
15 10 0 10 0 0 -15z m804 -37 l-4 -51 -4 -5 -5 -4 2 56 2 56 7 0 7 0 -5 -52z
m76 44 l-15 -5 -7 -11 -8 -11 0 12 0 12 -17 4 -18 4 40 0 40 0 -15 -5z m-600
-46 l0 -19 -4 4 -3 4 -7 30 -7 30 11 -15 10 -15 0 -19z m290 34 l0 -10 -10 0
-10 0 0 10 0 10 10 0 10 0 0 -10z m400 0 l0 -10 -10 0 -10 0 0 10 0 10 10 0
10 0 0 -10z m-833 -42 l-5 -13 0 25 0 25 5 -12 5 -13 -5 -12z m280 0 l-5 -13
0 25 0 25 5 -12 5 -13 -5 -12z m-461 4 l3 -12 -6 10 -5 10 -9 0 -9 0 0 -17 0
-16 -6 6 -6 6 6 16 6 17 12 -4 12 -4 2 -12z m32 4 l-13 -14 -4 3 -3 4 7 10 6
11 10 0 10 0 -13 -14z m232 -11 l0 -25 -10 0 -10 0 0 25 0 25 10 0 10 0 0 -25z
m137 -12 l-5 -18 0 30 0 30 5 -12 5 -13 -5 -17z m213 22 l0 -15 -10 0 -10 0 0
15 0 15 10 0 10 0 0 -15z m68 -16 l-4 -13 -7 23 -6 24 11 -11 10 -10 -4 -13z
m68 12 l0 -19 -13 5 -13 5 0 8 0 8 13 5 12 5 0 1 1 1 0 -19z m-866 -1 l0 -10
-10 0 -10 0 0 10 0 10 10 0 10 0 0 -10z m270 0 l0 -10 -30 0 -30 0 0 10 0 10
30 0 30 0 0 -10z m150 0 l0 -10 -15 0 -15 0 0 10 0 10 15 0 15 0 0 -10z m140
0 l0 -10 -15 0 -15 0 0 10 0 10 15 0 15 0 0 -10z m110 1 l0 -10 -10 -6 -10 -6
0 15 0 16 10 0 10 0 0 -9z m477 -23 l-5 -13 0 25 0 25 5 -12 5 -13 -5 -12z
m-1060 -30 l-5 -13 -1 19 -1 19 6 -6 6 -6 -5 -13z m566 7 l6 -14 -7 -5 -8 -5
-1 20 -2 19 4 0 3 0 5 -15z m144 -17 l-5 -13 0 25 0 25 5 -12 5 -13 -5 -12z
m70 10 l-5 -13 -1 19 -1 19 6 -6 6 -6 -5 -13z m133 12 l0 -10 -10 0 -10 0 0
10 0 10 10 0 10 0 0 -10z m-800 -27 l0 -5 -15 5 -14 6 -6 -9 -6 -10 -10 0 -9
0 0 9 0 10 18 3 17 4 13 -4 12 -4 0 -5z m180 7 l0 -10 -10 0 -10 0 0 10 0 10
10 0 10 0 0 -10z m767 -12 l-5 -13 -1 19 -1 19 6 -6 6 -6 -5 -13z m-1123 4
l-11 -7 -6 -15 -5 -15 -1 23 -1 22 18 0 17 0 -11 -8z m43 2 l-6 -6 -13 5 -13
5 19 1 19 1 -6 -6z m253 2 l0 -4 -15 -6 -15 -5 0 9 0 10 15 0 15 0 0 -4z m150
0 l0 -4 -20 -5 -20 -5 0 9 0 9 20 0 20 0 0 -4z m130 0 l0 -4 -15 -6 -15 -5 0
9 0 10 15 0 15 0 0 -4z m133 -3 l-13 -5 -12 5 -13 5 25 0 25 0 -12 -5z m44 1
l-6 -6 -13 5 -13 5 19 1 19 1 -6 -6z m420 0 l-6 -6 -13 5 -13 5 19 1 19 1 -6
-6z m-330 -36 l-5 -13 0 25 0 25 5 -12 5 -13 -5 -12z m-137 12 l0 -10 -10 0
-10 0 0 10 0 10 10 0 10 0 0 -10z m400 0 l0 -10 -10 0 -10 0 0 10 0 10 10 0
10 0 0 -10z m-970 -45 l0 -15 -10 0 -10 0 0 15 0 15 10 0 10 0 0 -15z m90 -8
l25 -5 -29 1 -29 2 -4 15 -5 15 9 -11 8 -12 25 -5z m47 1 l-5 -13 -1 19 -1 19
6 -6 6 -6 -5 -13z m60 0 l-5 -13 -1 19 -1 19 6 -6 6 -6 -5 -13z m108 -1 l20
-5 -31 1 -32 1 5 14 6 14 6 -10 6 -10 20 -5z m45 8 l0 -15 -10 0 -10 0 0 15 0
15 10 0 10 0 0 -15z m67 -4 l-1 -20 -8 5 -7 5 6 14 5 15 3 0 4 0 -2 -19z m83
-16 l0 -10 -10 15 -10 15 0 10 0 10 10 -15 10 -15 0 -10z m150 12 l15 -7 -19
3 -19 2 -4 15 -5 15 9 -11 8 -11 15 -6z m57 1 l-5 -13 -1 19 -1 19 6 -6 6 -6
-5 -13z m150 0 l-5 -13 -1 19 -1 19 6 -6 6 -6 -5 -13z m73 7 l0 -15 -10 0 -10
0 0 15 0 15 10 0 10 0 0 -15z m-1083 -11 l-6 -6 -13 5 -13 5 19 1 19 1 -6 -6z
m116 -1 l-13 -5 -17 5 -18 5 30 0 30 0 -12 -5z m214 1 l-6 -6 -13 5 -13 5 19
1 19 1 -6 -6z m390 0 l-6 -6 -13 5 -13 5 19 1 19 1 -6 -6z m196 -1 l-13 -5
-17 5 -18 5 30 0 30 0 -12 -5z m74 1 l-6 -6 -13 5 -13 5 19 1 19 1 -6 -6z
m146 -1 l-13 -5 -17 5 -18 5 30 0 30 0 -12 -5z m-916 -35 l-5 -13 -1 19 -1 19
6 -6 6 -6 -5 -13z m863 7 l0 -15 -10 0 -10 0 0 15 0 15 10 0 10 0 0 -15z
m-890 -5 l0 -10 -10 0 -10 0 0 10 0 10 10 0 10 0 0 -10z m377 -22 l-5 -13 0
25 0 25 5 -12 5 -13 -5 -12z m643 22 l0 -10 -10 0 -10 0 0 10 0 10 10 0 10 0
0 -10z m-923 -42 l-5 -13 0 25 0 25 5 -12 5 -13 -5 -12z m459 20 l7 -11 -12 7
-12 8 -6 -21 -5 -21 -9 0 -9 0 0 19 0 20 18 4 17 5 2 1 2 1 7 -12z m194 2 l0
-10 -10 0 -10 0 0 10 0 10 10 0 10 0 0 -10z m-905 -7 l-30 -5 -7 -11 -8 -12 0
18 0 17 38 -1 37 -2 -30 -4z m121 -8 l-15 -15 -5 0 -6 0 0 15 0 15 21 0 20 0
-15 -15z m737 8 l-23 -4 -22 4 -23 4 45 0 45 0 -22 -4z m150 0 l-23 -4 -27 4
-28 4 50 0 50 0 -22 -4z m111 0 l-9 -8 -7 -10 -8 -10 0 18 0 17 17 0 16 0 -9
-7z m-687 -25 l-5 -13 -1 19 -1 19 6 -6 6 -6 -5 -13z m-83 -44 l-4 -47 -4 -4
-5 -5 2 51 1 51 6 0 7 0 -3 -46z m-386 0 l-4 -19 -6 28 -6 29 10 -10 10 -10
-4 -18z m152 15 l0 -9 -9 0 -9 0 -5 14 -6 15 15 -6 14 -5 0 -9z m987 -1 l-5
-13 -1 19 -1 19 6 -6 6 -6 -5 -13z m-897 2 l0 -10 -10 0 -10 0 0 10 0 10 10 0
10 0 0 -10z m310 0 l0 -10 -10 0 -10 0 0 10 0 10 10 0 10 0 0 -10z m170 0 l0
-10 -10 0 -10 0 0 10 0 10 10 0 10 0 0 -10z m-643 -47 l-5 -18 0 30 0 30 5
-12 5 -13 -5 -17z m141 12 l-6 -6 -6 18 -7 18 12 -12 13 -13 -6 -5z m448 7
l-18 -4 -10 10 -10 10 29 -6 28 -6 -19 -4z m135 0 l-13 -4 -10 10 -11 11 24
-6 23 -7 -13 -4z m54 8 l-6 -10 -17 1 -17 0 20 9 20 9 3 0 3 1 -6 -10z m101
-2 l7 -11 -11 7 -10 6 -5 -12 -4 -13 -9 8 -8 8 14 9 15 10 2 0 2 0 7 -12z m48
4 l5 -8 -22 -1 -22 -2 15 9 15 10 2 0 2 0 5 -8z m206 -2 l0 -10 -10 0 -10 0 0
10 0 10 10 0 10 0 0 -10z m-1063 -6 l-6 -6 -13 5 -13 5 19 1 19 1 -6 -6z m570
0 l-6 -6 -13 5 -13 5 19 1 19 1 -6 -6z m340 0 l-6 -6 -13 5 -13 5 19 1 19 1
-6 -6z m76 -1 l-13 -5 -12 5 -13 5 25 0 25 0 -12 -5z m-566 -35 l-5 -13 -1 19
-1 19 6 -6 6 -6 -5 -13z m220 0 l-5 -13 -1 19 -1 19 6 -6 6 -6 -5 -13z m-570
-30 l-5 -13 0 25 0 25 5 -12 5 -13 -5 -12z m723 12 l0 -20 -10 0 -10 0 0 20 0
20 10 0 10 0 0 -20z m-943 -27 l-5 -18 0 30 0 30 5 -12 5 -13 -5 -17z m76 22
l-5 -16 -5 5 -5 5 7 10 6 11 4 0 4 0 -6 -15z m214 -17 l-5 -13 0 25 0 25 5
-12 5 -13 -5 -12z m360 10 l-5 -13 -1 19 -1 19 6 -6 6 -6 -5 -13z m103 -1 l0
-12 -9 14 -9 14 -7 -22 -6 -21 -10 0 -9 0 0 19 0 20 18 4 17 3 8 -3 7 -4 0
-12z m160 2 l0 -9 -20 0 -20 0 -1 13 0 12 -9 -20 -9 -20 0 16 -1 16 5 5 5 5
25 -5 25 -4 0 -9z m87 -1 l-5 -13 -1 19 -1 19 6 -6 6 -6 -5 -13z m-957 2 l0
-10 -10 0 -10 0 0 10 0 10 10 0 10 0 0 -10z m118 -2 l-4 -12 -12 -4 -12 -4 0
16 0 16 16 0 16 0 -4 -12z m42 2 l0 -10 -15 0 -15 0 0 10 0 10 15 0 15 0 0
-10z m390 0 l0 -10 -15 0 -15 0 0 10 0 10 15 0 15 0 0 -10z m40 0 l0 -10 -15
0 -15 0 0 10 0 10 15 0 15 0 0 -10z m530 0 l0 -10 -10 0 -10 0 0 10 0 10 10 0
10 0 0 -10z m50 0 l0 -10 -10 0 -10 0 0 10 0 10 10 0 10 0 0 -10z m-213 -52
l-5 -13 0 25 0 25 5 -12 5 -13 -5 -12z m97 -5 l-4 -37 -5 -4 -4 -4 2 41 2 41
7 0 7 0 -5 -37z m66 27 l0 -10 -10 0 -10 0 0 10 0 10 10 0 10 0 0 -10z m-1010
-21 l0 -9 -9 0 -9 0 -5 14 -6 15 15 -6 14 -5 0 -9z m142 -2 l4 -23 -20 -1 -21
-1 13 5 12 5 0 19 0 19 4 0 4 0 4 -23z m565 1 l-5 -13 -1 19 -1 19 6 -6 6 -6
-5 -13z m-307 2 l0 -10 -10 0 -10 0 0 10 0 10 10 0 10 0 0 -10z m130 0 l0 -10
-10 0 -10 0 0 10 0 10 10 0 10 0 0 -10z m40 -4 l0 -14 -14 -5 -14 -6 5 20 5
19 9 0 9 0 0 -14z m90 4 l0 -10 -10 0 -10 0 0 10 0 10 10 0 10 0 0 -10z m-717
-29 l-8 -6 -7 -9 -7 -8 2 20 1 20 14 -5 14 -6 -9 -6z m125 -12 l-4 -13 -7 23
-6 24 11 -11 10 -10 -4 -13z m429 -1 l-5 -13 0 25 0 25 5 -12 5 -13 -5 -12z
m-650 0 l-5 -13 -1 19 -1 19 6 -6 6 -6 -5 -13z m376 5 l-5 -13 -9 0 -9 0 0 9
0 10 -22 4 -23 4 36 -1 36 -1 -4 -12z m105 10 l-28 -4 -32 4 -33 4 60 0 60 0
-27 -4z m335 0 l-22 -4 -3 -17 -4 -17 -5 20 -6 21 31 1 31 1 -22 -5z m124 1
l-6 -6 -13 5 -13 5 19 1 19 1 -6 -6z m60 0 l-6 -6 -13 5 -13 5 19 1 19 1 -6
-6z m-807 -14 l0 -10 -10 0 -10 0 0 10 0 10 10 0 10 0 0 -10z m750 -20 l0 -10
-10 0 -10 0 0 10 0 10 10 0 10 0 0 -10z m-920 -33 l0 -5 -12 -5 -13 -4 -1 23
-2 23 14 -14 14 -14 0 -4z m57 1 l-5 -13 0 25 0 25 5 -12 5 -13 -5 -12z m140
0 l-5 -13 0 25 0 25 5 -12 5 -13 -5 -12z m153 22 l0 -10 -10 0 -10 0 0 10 0
10 10 0 10 0 0 -10z m730 6 l0 -5 -10 -6 -10 -6 0 10 0 11 10 0 10 0 0 -4z
m-900 -27 l0 -9 -19 0 -19 0 -5 13 -5 12 -1 -22 -1 -23 -10 0 -10 0 0 19 0 19
12 4 12 4 23 -4 23 -4 0 -9z m307 -1 l-5 -13 -1 19 -1 19 6 -6 6 -6 -5 -13z
m233 -1 l0 -12 -10 15 -10 15 0 -22 0 -23 -10 0 -10 0 0 19 0 19 13 5 12 4 8
-4 7 -4 0 -12z m47 1 l-5 -13 -1 19 -1 19 6 -6 6 -6 -5 -13z m-727 2 l0 -10
-15 0 -15 0 0 10 0 10 15 0 15 0 0 -10z m280 1 l0 -9 -30 -4 -30 -5 0 14 0 13
30 0 30 0 0 -9z m100 0 l0 -10 -10 -6 -10 -6 0 15 0 16 10 0 10 0 0 -9z m40
-1 l0 -10 -10 0 -10 0 0 10 0 10 10 0 10 0 0 -10z m130 1 l0 -9 -25 -4 -25 -5
0 13 0 14 25 0 25 0 0 -9z m40 -1 l0 -10 -10 0 -10 0 0 10 0 10 10 0 10 0 0
-10z m120 0 l0 -10 -10 0 -10 0 0 10 0 10 10 0 10 0 0 -10z m110 1 l0 -9 -15
-6 -15 -5 0 14 0 15 15 0 15 0 0 -9z m40 -1 l0 -10 -10 0 -10 0 0 10 0 10 10
0 10 0 0 -10z m77 -12 l-5 -13 -1 19 -1 19 6 -6 6 -6 -5 -13z m-1000 -40 l-5
-13 -1 19 -1 19 6 -6 6 -6 -5 -13z m290 -10 l-5 -13 0 25 0 25 5 -12 5 -13 -5
-12z m140 0 l-5 -13 0 25 0 25 5 -12 5 -13 -5 -12z m143 -12 l0 -19 -4 4 -3 4
-7 30 -7 30 11 -15 10 -15 0 -19z m287 22 l-5 -13 -1 19 -1 19 6 -6 6 -6 -5
-13z m140 0 l-5 -13 -1 19 -1 19 6 -6 6 -6 -5 -13z m-847 -18 l0 -20 -10 0
-10 0 0 20 0 20 10 0 10 0 0 -20z m-72 -21 l-4 -13 -7 23 -6 24 11 -11 10 -10
-4 -13z m181 8 l-1 -12 -5 13 -5 13 -19 -22 -19 -22 0 21 0 21 18 4 17 3 8 -3
7 -4 -1 -12z m255 -7 l-9 -9 -15 9 -14 9 7 8 8 7 9 -14 10 -15 1 20 1 20 5
-13 5 -14 -8 -8z m133 -7 l-5 -18 0 30 0 30 5 -12 5 -13 -5 -17z m141 6 l-4
-13 -7 23 -6 24 11 -11 10 -10 -4 -13z m-788 11 l0 -10 -10 0 -10 0 0 10 0 10
10 0 10 0 0 -10z m120 0 l0 -10 -10 0 -10 0 0 10 0 10 10 0 10 0 0 -10z m290
0 l0 -10 -35 0 -35 0 0 10 0 10 35 0 35 0 0 -10z m140 0 l0 -10 -10 0 -10 0 0
10 0 10 10 0 10 0 0 -10z m150 0 l0 -10 -20 0 -20 0 0 10 0 10 20 0 20 0 0
-10z m130 0 l0 -10 -10 0 -10 0 0 10 0 10 10 0 10 0 0 -10z m109 0 l10 14 7
-6 6 -7 -17 -17 -17 -17 -9 14 -9 14 0 10 0 10 10 -15 10 -15 9 15z m61 0 l0
-10 -15 0 -15 0 0 10 0 10 15 0 15 0 0 -10z m40 0 l0 -10 -15 0 -15 0 0 10 0
10 15 0 15 0 0 -10z m39 0 l10 14 8 -7 7 -8 -14 -9 -15 -10 -9 3 -10 3 -4 15
-4 14 11 -15 11 -15 9 15z m91 0 l0 -10 -25 0 -25 0 0 10 0 10 25 0 25 0 0
-10z m-800 -30 l0 -10 -10 0 -10 0 0 10 0 10 10 0 10 0 0 -10z m570 -20 l0
-10 -10 0 -10 0 0 10 0 10 10 0 10 0 0 -10z"/>
</g>
</svg>
