<?xml version="1.0" standalone="no"?>
<!DOCTYPE svg PUBLIC "-//W3C//DTD SVG 20010904//EN"
 "http://www.w3.org/TR/2001/REC-SVG-20010904/DTD/svg10.dtd">
<svg version="1.0" xmlns="http://www.w3.org/2000/svg"
 width="468pt" height="468pt" viewBox="0 0 468 468"
 preserveAspectRatio="xMidYMid meet">
<metadata>
Created by potrace 1.8, written by Peter Selinger 2001-2007
</metadata>
<g transform="translate(0,468) scale(0.365625,-0.365625)"
fill="#000000" stroke="none">
<path d="M0 1175 l0 -105 15 0 15 0 0 80 0 80 10 0 10 0 0 25 0 25 -25 0 -25
0 0 -105z"/>
<path d="M130 1200 l0 -80 -10 0 -10 0 0 -25 0 -25 25 0 25 0 0 105 0 105 -15
0 -15 0 0 -80z"/>
<path d="M370 1265 l0 -15 55 0 55 0 0 -10 0 -10 15 0 15 0 0 25 0 25 -70 0
-70 0 0 -15z"/>
<path d="M800 1185 l0 -95 -15 0 -15 0 0 55 0 55 -10 0 -10 0 0 15 0 15 -40 0
-40 0 0 -15 0 -15 40 0 40 0 0 -15 0 -15 -26 0 -25 0 -15 -14 -14 -15 0 -21 0
-21 14 -15 15 -14 24 0 25 0 6 13 6 12 6 -12 6 -13 29 0 29 0 0 105 0 105 -15
0 -15 0 0 -95z m-50 -65 l0 -30 -30 0 -30 0 0 30 0 30 30 0 30 0 0 -30z"/>
<path d="M1250 1240 l0 -40 -10 0 -10 0 0 -15 0 -15 10 0 10 0 0 -25 0 -25
-10 0 -10 0 0 -15 0 -15 -30 0 -30 0 0 55 0 55 30 0 30 0 0 15 0 15 -30 0 -30
0 0 -15 0 -15 -10 0 -10 0 0 -51 0 -50 14 -15 15 -14 24 0 25 0 6 13 6 12 6
-12 6 -13 14 0 14 0 0 105 0 105 -15 0 -15 0 0 -40z"/>
<path d="M50 1200 l0 -30 15 0 15 0 0 -25 0 -25 15 0 15 0 0 25 0 25 -15 0
-15 0 0 30 0 30 -15 0 -15 0 0 -30z"/>
<path d="M450 1215 l0 -15 -10 0 -10 0 0 -25 0 -25 -15 0 -15 0 0 -15 0 -15
-15 0 -15 0 0 -25 0 -25 70 0 70 0 0 10 0 10 -55 0 -55 0 0 15 0 15 15 0 15 0
0 15 0 15 10 0 10 0 0 25 0 25 15 0 15 0 0 15 0 15 -15 0 -15 0 0 -15z"/>
<path d="M560 1215 l0 -15 -15 0 -15 0 0 -55 0 -55 15 0 15 0 0 -10 0 -10 25
0 25 0 0 10 0 10 15 0 15 0 0 15 0 15 -15 0 -15 0 0 -15 0 -15 -25 0 -25 0 0
30 0 30 40 0 40 0 0 25 0 25 -15 0 -15 0 0 15 0 15 -25 0 -25 0 0 -15z m50
-30 l0 -15 -25 0 -25 0 0 15 0 15 25 0 25 0 0 -15z"/>
<path d="M850 1215 l0 -15 40 0 40 0 0 -15 0 -15 -25 0 -25 0 0 -10 0 -10 -15
0 -15 0 0 -30 0 -30 15 0 15 0 0 -10 0 -10 25 0 25 0 0 10 0 10 15 0 15 0 0
-10 0 -10 25 0 25 0 0 50 0 50 15 0 15 0 0 15 0 15 25 0 25 0 0 -65 0 -65 15
0 15 0 0 65 0 65 -15 0 -15 0 0 15 0 15 -25 0 -25 0 0 -15 0 -15 -15 0 -15 0
0 15 0 15 -10 0 -10 0 0 -70 0 -70 -15 0 -15 0 0 55 0 55 -15 0 -15 0 0 15 0
15 -40 0 -40 0 0 -15z m80 -95 l0 -30 -25 0 -25 0 0 30 0 30 25 0 25 0 0 -30z"/>
<path d="M210 1080 l0 -10 15 0 15 0 0 10 0 10 -15 0 -15 0 0 -10z"/>
<path d="M0 945 l0 -15 15 0 15 0 0 15 0 15 -15 0 -15 0 0 -15z"/>
<path d="M50 935 l0 -25 15 0 15 0 0 10 0 10 15 0 15 0 0 -10 0 -10 25 0 25 0
0 -15 0 -15 15 0 15 0 0 -25 0 -25 -15 0 -15 0 0 25 0 25 -15 0 -15 0 0 -15 0
-15 -10 0 -10 0 0 30 0 30 -15 0 -15 0 0 -15 0 -15 -15 0 -15 0 0 15 0 15 -25
0 -25 0 0 -55 0 -55 95 0 95 0 0 11 0 10 14 15 15 14 10 0 11 0 0 -25 0 -25
15 0 15 0 0 80 0 80 -110 0 -110 0 0 -25z"/>
<path d="M290 945 l0 -15 15 0 15 0 0 -10 0 -10 -15 0 -15 0 0 -15 0 -15 15 0
15 0 0 -15 0 -15 -15 0 -15 0 0 -10 0 -10 15 0 15 0 0 -15 0 -15 -15 0 -15 0
0 -11 0 -10 -14 -15 -15 -14 -10 0 -11 0 0 10 0 10 -14 0 -14 0 -6 -12 -6 -13
-6 13 -6 12 -14 0 -14 0 0 -10 0 -10 -14 0 -14 0 -6 13 -6 12 -6 -12 -6 -13
-14 0 -14 0 0 10 0 10 -14 0 -14 0 -6 -12 -6 -13 -6 13 -6 12 -14 0 -14 0 0
-10 0 -10 15 0 15 0 0 -15 0 -15 10 0 10 0 0 15 0 15 15 0 15 0 0 -15 0 -15
15 0 15 0 0 15 0 15 10 0 10 0 0 -15 0 -15 15 0 15 0 0 15 0 15 15 0 15 0 0
-15 0 -15 10 0 10 0 0 15 0 15 15 0 15 0 0 -15 0 -15 15 0 15 0 0 11 0 10 14
15 15 14 10 0 11 0 0 -10 0 -10 -15 0 -15 0 0 -15 0 -15 15 0 15 0 0 -15 0
-15 -15 0 -15 0 0 -10 0 -10 15 0 15 0 0 -15 0 -15 -15 0 -15 0 0 -15 0 -15
15 0 15 0 0 -10 0 -10 -15 0 -15 0 0 -15 0 -15 15 0 15 0 0 -15 0 -15 15 0 15
0 0 15 0 15 -15 0 -15 0 0 15 0 15 15 0 15 0 0 10 0 10 -15 0 -15 0 0 15 0 15
15 0 15 0 0 15 0 15 -15 0 -15 0 0 10 0 10 15 0 15 0 0 15 0 15 10 0 10 0 0
15 0 15 15 0 15 0 0 -15 0 -15 15 0 15 0 0 15 0 15 10 0 10 0 0 -15 0 -15 15
0 15 0 0 15 0 15 15 0 15 0 0 -15 0 -15 10 0 10 0 0 15 0 15 15 0 15 0 0 -15
0 -15 15 0 15 0 0 15 0 15 10 0 10 0 0 -15 0 -15 15 0 15 0 0 15 0 15 -14 0
-14 0 -6 13 -6 12 -6 -12 -6 -13 -14 0 -14 0 0 10 0 10 -14 0 -14 0 -6 -12 -6
-13 -6 13 -6 12 -14 0 -14 0 0 -10 0 -10 -14 0 -14 0 -6 13 -6 12 -6 -12 -6
-13 -14 0 -14 0 0 10 0 10 -14 0 -14 0 -6 -12 -6 -13 -6 13 -6 12 -14 0 -14 0
0 15 0 15 15 0 15 0 0 15 0 15 -15 0 -15 0 0 10 0 10 15 0 15 0 0 15 0 15 -15
0 -15 0 0 15 0 15 15 0 15 0 0 10 0 10 -15 0 -15 0 0 15 0 15 -15 0 -15 0 0
-15z m60 -210 l0 -15 -15 0 -15 0 0 15 0 15 15 0 15 0 0 -15z"/>
<path d="M370 895 l0 -65 15 0 15 0 0 10 0 10 25 0 25 0 0 15 0 15 15 0 15 0
0 -15 0 -15 15 0 15 0 0 26 0 25 14 15 15 14 25 0 26 0 0 15 0 15 -110 0 -110
0 0 -65z"/>
<path d="M610 945 l0 -15 -10 0 -10 0 0 -25 0 -25 -15 0 -15 0 0 -15 0 -15
-25 0 -25 0 0 -10 0 -10 -15 0 -15 0 0 10 0 10 -15 0 -15 0 0 -25 0 -25 95 0
95 0 0 55 0 55 -15 0 -15 0 0 10 0 10 15 0 15 0 0 15 0 15 -15 0 -15 0 0 -15z"/>
<path d="M670 735 l0 -225 -335 0 -335 0 0 -200 0 -200 640 0 640 0 0 425 0
425 -305 0 -305 0 0 -225z m320 51 l0 -14 13 -6 12 -6 -12 -6 -13 -6 0 -14 0
-14 -15 0 -15 0 0 15 0 15 -15 0 -15 0 0 10 0 10 15 0 15 0 0 15 0 15 15 0 15
0 0 -14z m-140 -186 l0 -10 15 0 15 0 0 -15 0 -15 -15 0 -15 0 0 -15 0 -15
-10 0 -10 0 0 15 0 15 -15 0 -15 0 0 15 0 15 15 0 15 0 0 10 0 10 10 0 10 0 0
-10z m270 0 l0 -10 15 0 15 0 0 -15 0 -15 -15 0 -15 0 0 -15 0 -15 -15 0 -15
0 0 15 0 15 -10 0 -10 0 0 10 0 11 13 14 12 14 13 1 12 0 0 -10z m-130 -265
l0 -15 10 0 10 0 0 -11 0 -10 -14 -15 -15 -14 -10 0 -11 0 0 10 0 10 -15 0
-15 0 0 15 0 15 15 0 15 0 0 15 0 15 15 0 15 0 0 -15z"/>
<path d="M530 895 l0 -15 15 0 15 0 0 15 0 15 -15 0 -15 0 0 -15z"/>
<path d="M400 815 l0 -15 15 0 15 0 0 15 0 15 -15 0 -15 0 0 -15z"/>
<path d="M0 625 l0 -65 15 0 15 0 0 -15 0 -15 10 0 10 0 0 15 0 15 -10 0 -10
0 0 15 0 15 25 0 25 0 0 10 0 10 15 0 15 0 0 -10 0 -10 10 0 10 0 0 25 0 25
15 0 15 0 0 15 0 15 25 0 25 0 0 -26 0 -25 -14 -15 -15 -14 -25 0 -26 0 0 -15
0 -15 -10 0 -10 0 0 15 0 15 -15 0 -15 0 0 -30 0 -30 95 0 95 0 0 55 0 55 -15
0 -15 0 0 15 0 15 15 0 15 0 0 10 0 10 -15 0 -15 0 0 -10 0 -10 -15 0 -15 0 0
10 0 10 -105 0 -105 0 0 -65z"/>
<path d="M370 680 l0 -10 15 0 15 0 0 10 0 10 -15 0 -15 0 0 -10z"/>
<path d="M430 665 l0 -25 -30 0 -30 0 0 -55 0 -55 95 0 95 0 0 15 0 15 15 0
15 0 0 15 0 15 10 0 10 0 0 -30 0 -30 15 0 15 0 0 80 0 80 -105 0 -105 0 0
-25z m50 -25 l0 -30 15 0 15 0 0 15 0 15 10 0 10 0 0 -15 0 -15 15 0 15 0 0
-25 0 -25 -15 0 -15 0 0 25 0 25 -10 0 -10 0 0 -10 0 -10 -15 0 -15 0 0 10 0
10 -25 0 -25 0 0 15 0 15 10 0 10 0 0 15 0 15 15 0 15 0 0 -30z"/>
<path d="M160 625 l0 -15 15 0 15 0 0 15 0 15 -15 0 -15 0 0 -15z"/>
</g>
</svg>
