<?xml version="1.0" standalone="no"?>
<!DOCTYPE svg PUBLIC "-//W3C//DTD SVG 20010904//EN"
 "http://www.w3.org/TR/2001/REC-SVG-20010904/DTD/svg10.dtd">
<svg version="1.0" xmlns="http://www.w3.org/2000/svg"
 width="468pt" height="468pt" viewBox="0 0 468 468"
 preserveAspectRatio="xMidYMid meet">
<metadata>
Created by potrace 1.8, written by Peter Selinger 2001-2007
</metadata>
<g transform="translate(0,468) scale(0.365625,-0.365625)"
fill="#000000" stroke="none">
<path d="M260 1090 l0 -10 -20 0 -20 0 0 -10 0 -10 -15 0 -16 0 -24 -25 -25
-24 0 -26 0 -25 -10 0 -10 0 0 -30 0 -30 10 0 10 0 0 -29 0 -29 -12 -5 -13 -4
9 -9 9 -9 4 13 5 12 9 0 9 0 0 -29 0 -29 -12 -5 -13 -4 9 -9 9 -9 4 13 5 12 9
0 9 0 0 -19 0 -19 -12 -5 -13 -4 8 -9 8 -8 10 14 11 15 5 -12 5 -13 9 0 9 0 0
30 0 30 -10 0 -10 0 0 40 0 40 -10 0 -10 0 0 50 0 50 10 0 10 0 0 16 0 15 14
15 15 14 15 0 16 0 0 10 0 10 70 0 70 0 0 -10 0 -10 26 0 25 0 17 -17 17 -16
-13 -5 -12 -4 0 -25 0 -25 40 -38 40 -38 0 -15 0 -15 13 -6 12 -6 -12 -6 -13
-6 0 -19 0 -19 -10 0 -10 0 0 -30 0 -30 -10 0 -10 0 0 -50 0 -50 10 0 10 0 0
-30 0 -30 10 0 10 0 0 -28 0 -28 20 -14 20 -14 0 -14 0 -13 25 -24 24 -25 13
0 14 0 14 -20 14 -20 28 0 28 0 0 -10 0 -10 40 0 40 0 0 -10 0 -10 40 0 40 0
0 10 0 10 30 0 30 0 0 10 0 10 28 0 28 0 14 20 14 20 14 0 13 0 24 25 25 24 0
13 0 14 20 14 20 14 0 28 0 28 10 0 10 0 0 30 0 30 10 0 10 0 0 40 0 40 -10 0
-10 0 0 40 0 40 -10 0 -10 0 0 28 0 28 -20 14 -20 14 0 14 0 13 -25 24 -24 25
-13 0 -14 0 -14 20 -14 20 -28 0 -28 0 0 10 0 10 -30 0 -30 0 0 10 0 10 -60 0
-60 0 0 -10 0 -10 -20 0 -20 0 0 -10 0 -10 -20 0 -20 0 0 10 0 10 -16 0 -16 0
-38 40 -38 40 -26 0 -26 0 0 -10 0 -10 -20 0 -20 0 0 10 0 10 -20 0 -20 0 0
10 0 10 -30 0 -30 0 0 10 0 10 -70 0 -70 0 0 -10z m500 -220 l0 -10 -10 0 -10
0 0 -20 0 -20 -10 0 -10 0 0 15 0 16 13 14 12 14 8 1 7 0 0 -10z m-60 -16 l0
-5 -14 -15 -15 -14 -5 0 -6 0 0 20 0 20 20 0 20 0 0 -6z m0 -60 l0 -5 -17 -17
-16 -17 -5 13 -4 12 -19 0 -19 0 0 10 0 10 40 0 40 0 0 -6z m-40 -64 l0 -10
-20 0 -20 0 0 10 0 10 20 0 20 0 0 -10z m-20 -60 l0 -10 -10 0 -10 0 0 10 0
10 10 0 10 0 0 -10z m440 -40 l0 -10 -10 0 -10 0 0 10 0 10 10 0 10 0 0 -10z
m20 -60 l0 -10 -10 0 -10 0 0 -26 0 -25 -14 -15 -15 -14 -5 0 -6 0 0 20 0 20
10 0 10 0 0 15 0 16 13 14 12 14 8 1 7 0 0 -10z m-80 -100 l0 -10 -10 0 -10 0
0 10 0 10 10 0 10 0 0 -10z m-60 -20 l0 -10 -10 0 -10 0 0 10 0 10 10 0 10 0
0 -10z"/>
<path d="M220 930 l0 -10 10 0 10 0 0 10 0 10 -10 0 -10 0 0 -10z"/>
<path d="M260 921 l0 -19 -12 -5 -13 -4 7 -8 7 -7 16 15 15 16 0 15 0 16 -10
0 -10 0 0 -19z"/>
<path d="M300 890 l0 -10 10 0 10 0 0 10 0 10 -10 0 -10 0 0 -10z"/>
<path d="M60 870 l0 -10 10 0 10 0 0 10 0 10 -10 0 -10 0 0 -10z"/>
<path d="M220 850 l0 -10 10 0 10 0 0 10 0 10 -10 0 -10 0 0 -10z"/>
<path d="M260 854 l0 -5 15 -16 16 -15 6 5 5 6 -15 16 -16 15 -5 0 -6 0 0 -6z"/>
<path d="M80 800 l0 -20 10 0 10 0 0 20 0 20 -10 0 -10 0 0 -20z"/>
<path d="M240 790 l0 -10 20 0 20 0 0 10 0 10 -20 0 -20 0 0 -10z"/>
<path d="M311 784 l-13 -15 6 -6 5 -5 16 15 15 16 0 5 0 6 -7 0 -8 -1 -14 -15z"/>
<path d="M100 750 l0 -10 10 0 10 0 0 10 0 10 -10 0 -10 0 0 -10z"/>
<path d="M260 750 l0 -10 10 0 10 0 0 10 0 10 -10 0 -10 0 0 -10z"/>
<path d="M100 714 l0 -5 15 -16 16 -15 6 5 5 6 -15 16 -16 15 -5 0 -6 0 0 -6z"/>
<path d="M240 710 l0 -10 10 0 10 0 0 10 0 10 -10 0 -10 0 0 -10z"/>
<path d="M280 710 l0 -10 10 0 10 0 0 10 0 10 -10 0 -10 0 0 -10z"/>
<path d="M160 690 l0 -10 10 0 10 0 0 10 0 10 -10 0 -10 0 0 -10z"/>
<path d="M200 660 l0 -20 6 0 5 0 15 14 14 15 0 5 0 6 -20 0 -20 0 0 -20z"/>
<path d="M280 670 l0 -10 10 0 10 0 0 10 0 10 -10 0 -10 0 0 -10z"/>
<path d="M140 650 l0 -10 10 0 10 0 0 10 0 10 -10 0 -10 0 0 -10z"/>
<path d="M0 100 l0 -100 640 0 640 0 0 100 0 100 -640 0 -640 0 0 -100z"/>
</g>
</svg>
