<?xml version="1.0" standalone="no"?>
<!DOCTYPE svg PUBLIC "-//W3C//DTD SVG 20010904//EN"
 "http://www.w3.org/TR/2001/REC-SVG-20010904/DTD/svg10.dtd">
<svg version="1.0" xmlns="http://www.w3.org/2000/svg"
 width="468pt" height="468pt" viewBox="0 0 468 468"
 preserveAspectRatio="xMidYMid meet">
<metadata>
Created by potrace 1.8, written by Peter Selinger 2001-2007
</metadata>
<g transform="translate(0,468) scale(0.365625,-0.365625)"
fill="#000000" stroke="none">
<path d="M700 1270 l0 -10 -25 0 -25 0 0 -11 0 -10 -14 -15 -15 -14 -55 0 -56
0 0 -25 0 -25 15 0 15 0 0 15 0 15 20 0 20 0 0 -11 0 -10 -14 -15 -15 -14 -65
0 -66 0 0 -10 0 -10 -25 0 -25 0 0 -15 0 -15 25 0 25 0 0 -10 0 -10 35 0 35 0
0 -10 0 -10 -10 0 -10 0 0 -15 0 -15 -13 0 -13 0 -14 -20 -14 -20 -43 0 -43 0
0 -35 0 -35 -25 0 -25 0 0 -15 0 -15 -80 0 -80 0 0 -10 0 -10 -46 0 -45 0 -15
-14 -14 -15 0 -6 0 -6 14 -15 15 -14 45 0 46 0 0 -10 0 -10 80 0 80 0 0 -15 0
-15 25 0 25 0 0 25 0 25 -25 0 -25 0 0 10 0 10 24 0 24 0 4 -12 5 -13 16 17
17 17 0 6 0 6 -17 17 -16 17 -5 -13 -4 -12 -24 0 -24 0 0 10 0 10 25 0 25 0 0
10 0 10 45 0 45 0 0 -20 0 -20 -10 0 -10 0 0 -15 0 -15 10 0 10 0 0 -20 0 -20
-35 0 -35 0 0 -15 0 -15 -10 0 -10 0 0 -35 0 -35 43 0 43 0 14 -20 14 -20 9 0
8 0 15 -14 14 -15 0 -10 0 -11 -35 0 -35 0 0 -10 0 -10 -25 0 -25 0 0 -10 0
-10 25 0 25 0 0 -15 0 -15 66 0 65 0 15 -14 14 -15 0 -5 0 -6 -20 0 -20 0 0
10 0 10 -15 0 -15 0 0 -25 0 -25 58 0 58 0 14 -20 14 -20 23 0 23 0 0 -15 0
-15 80 0 80 0 0 85 0 85 25 0 25 0 0 -15 0 -15 10 0 10 0 0 14 0 14 12 4 13 5
-19 19 -19 19 -5 -13 -4 -12 -24 0 -24 0 0 90 0 90 45 0 45 0 0 15 0 15 70 0
70 0 0 -15 0 -15 10 0 11 0 24 -25 25 -24 0 -11 0 -10 15 0 15 0 0 -10 0 -10
45 0 45 0 0 175 0 175 -45 0 -45 0 0 -10 0 -10 -15 0 -15 0 0 -10 0 -11 -25
-24 -24 -25 -11 0 -10 0 0 -15 0 -15 -70 0 -70 0 0 15 0 15 -45 0 -45 0 0 90
0 90 24 0 24 0 4 -12 5 -13 16 17 17 17 0 6 0 6 -17 17 -16 17 -5 -13 -4 -12
-24 0 -24 0 0 80 0 80 -80 0 -80 0 0 -10z m70 -25 l0 -15 10 0 10 0 0 15 0 15
25 0 25 0 0 -175 0 -175 -50 0 -50 0 0 10 0 10 15 0 15 0 0 60 0 60 20 0 20 0
0 10 0 10 -35 0 -35 0 0 -70 0 -70 -80 0 -80 0 0 10 0 10 -55 0 -55 0 0 15 0
15 -15 0 -15 0 0 10 0 10 11 0 10 0 15 14 14 15 0 10 0 11 10 0 10 0 0 20 0
20 -45 0 -45 0 0 15 0 15 45 0 45 0 0 -15 0 -15 15 0 15 0 0 10 0 11 25 24 24
25 11 0 10 0 0 10 0 11 25 24 24 25 21 0 20 0 0 -20 0 -20 -15 0 -15 0 0 -11
0 -11 -30 -28 -30 -28 0 -11 0 -11 -15 0 -15 0 0 -10 0 -10 -20 0 -20 0 0 -10
0 -10 20 0 20 0 0 10 0 10 11 0 10 0 15 14 14 15 0 6 0 6 25 24 24 25 11 0 10
0 0 15 0 15 10 0 10 0 0 20 0 20 -10 0 -10 0 0 15 0 15 35 0 35 0 0 -15z m490
-420 l0 -155 -35 0 -35 0 0 15 0 15 20 0 20 0 0 20 0 20 -8 0 -8 0 -14 -20
-14 -20 -9 0 -8 0 -24 25 -25 24 0 11 0 10 -15 0 -15 0 0 10 0 10 -70 0 -70 0
0 -10 0 -10 -105 0 -105 0 0 -15 0 -15 -80 0 -80 0 0 -10 0 -10 -55 0 -55 0 0
-10 0 -10 -50 0 -50 0 0 20 0 20 25 0 25 0 0 15 0 15 105 0 105 0 0 10 0 10
66 0 65 0 15 14 14 15 0 6 0 6 -14 15 -15 14 -65 0 -66 0 0 10 0 10 -105 0
-105 0 0 15 0 15 -25 0 -25 0 0 20 0 20 50 0 50 0 0 -10 0 -10 55 0 55 0 0
-10 0 -10 80 0 80 0 0 -15 0 -15 105 0 105 0 0 -10 0 -10 70 0 70 0 0 10 0 10
15 0 15 0 0 10 0 11 25 24 24 25 8 0 9 0 14 -20 14 -20 8 0 8 0 0 20 0 20 -20
0 -20 0 0 15 0 15 35 0 35 0 0 -155z m-1070 25 l0 -10 -35 0 -35 0 0 -15 0
-15 35 0 35 0 0 -10 0 -10 -35 0 -35 0 0 10 0 10 -25 0 -25 0 0 15 0 15 25 0
25 0 0 10 0 10 35 0 35 0 0 -10z m440 0 l0 -10 70 0 70 0 0 -15 0 -15 -70 0
-70 0 0 -10 0 -10 -91 0 -90 0 -15 14 -14 15 0 6 0 6 13 14 12 14 93 1 92 0 0
-10z m210 -280 l0 -170 -70 0 -70 0 0 10 0 10 -21 0 -20 0 -15 14 -14 15 0 6
0 6 -14 15 -15 14 -6 0 -6 0 -15 14 -14 15 0 6 0 6 -14 15 -15 14 -10 0 -11 0
0 -10 0 -10 -45 0 -45 0 0 10 0 10 45 0 45 0 0 20 0 21 -25 24 -24 25 -11 0
-10 0 0 10 0 10 15 0 15 0 0 15 0 15 55 0 55 0 0 10 0 10 80 0 80 0 0 10 0 10
50 0 50 0 0 -170z"/>
<path d="M770 1200 l0 -10 10 0 10 0 0 10 0 10 -10 0 -10 0 0 -10z"/>
<path d="M770 1150 l0 -10 10 0 10 0 0 10 0 10 -10 0 -10 0 0 -10z"/>
<path d="M770 1105 l0 -15 10 0 10 0 0 15 0 15 -10 0 -10 0 0 -15z"/>
<path d="M1210 870 l0 -10 10 0 10 0 0 10 0 10 -10 0 -10 0 0 -10z"/>
<path d="M810 825 l0 -15 15 0 15 0 0 15 0 15 -15 0 -15 0 0 -15z"/>
<path d="M860 825 l0 -15 10 0 10 0 0 15 0 15 -10 0 -10 0 0 -15z"/>
<path d="M910 825 l0 -15 10 0 10 0 0 15 0 15 -10 0 -10 0 0 -15z"/>
<path d="M950 825 l0 -15 15 0 15 0 0 15 0 15 -15 0 -15 0 0 -15z"/>
<path d="M1000 825 l0 -15 10 0 10 0 0 15 0 15 -10 0 -10 0 0 -15z"/>
<path d="M1050 825 l0 -15 10 0 10 0 0 15 0 15 -10 0 -10 0 0 -15z"/>
<path d="M1090 825 l0 -15 15 0 15 0 0 15 0 15 -15 0 -15 0 0 -15z"/>
<path d="M1140 825 l0 -15 45 0 45 0 0 15 0 15 -45 0 -45 0 0 -15z"/>
<path d="M1210 780 l0 -10 10 0 10 0 0 10 0 10 -10 0 -10 0 0 -10z"/>
<path d="M740 650 l0 -70 14 0 14 0 4 -12 5 -13 16 17 17 17 0 10 0 11 -20 0
-20 0 0 55 0 55 -15 0 -15 0 0 -70z"/>
<path d="M540 595 l0 -15 20 0 20 0 0 -10 0 -10 11 0 10 0 15 -14 14 -15 0 -6
0 -6 25 -24 24 -25 11 0 10 0 0 -25 0 -25 10 0 10 0 0 21 0 20 -14 15 -15 14
-6 0 -6 0 -15 14 -14 15 0 6 0 6 -25 24 -24 25 -11 0 -10 0 0 15 0 15 -20 0
-20 0 0 -15z"/>
<path d="M770 525 l0 -15 10 0 10 0 0 15 0 15 -10 0 -10 0 0 -15z"/>
<path d="M770 480 l0 -10 10 0 10 0 0 10 0 10 -10 0 -10 0 0 -10z"/>
<path d="M770 430 l0 -10 10 0 10 0 0 10 0 10 -10 0 -10 0 0 -10z"/>
<path d="M0 175 l0 -175 640 0 640 0 0 175 0 175 -640 0 -640 0 0 -175z"/>
</g>
</svg>
