<?xml version="1.0" standalone="no"?>
<!DOCTYPE svg PUBLIC "-//W3C//DTD SVG 20010904//EN"
 "http://www.w3.org/TR/2001/REC-SVG-20010904/DTD/svg10.dtd">
<svg version="1.0" xmlns="http://www.w3.org/2000/svg"
 width="468pt" height="468pt" viewBox="0 0 468 468"
 preserveAspectRatio="xMidYMid meet">
<metadata>
Created by potrace 1.8, written by Peter Selinger 2001-2007
</metadata>
<g transform="translate(0,468) scale(0.365625,-0.365625)"
fill="#000000" stroke="none">
<path d="M320 1200 l0 -30 25 0 25 0 0 30 0 30 -25 0 -25 0 0 -30z"/>
<path d="M430 1200 l0 -30 50 0 50 0 0 30 0 30 -50 0 -50 0 0 -30z"/>
<path d="M640 1200 l0 -30 25 0 25 0 0 30 0 30 -25 0 -25 0 0 -30z"/>
<path d="M750 1200 l0 -30 50 0 50 0 0 30 0 30 -50 0 -50 0 0 -30z"/>
<path d="M210 1145 l0 -25 30 0 30 0 0 25 0 25 -30 0 -30 0 0 -25z"/>
<path d="M960 1145 l0 -25 25 0 25 0 0 25 0 25 -25 0 -25 0 0 -25z"/>
<path d="M110 1095 l0 -25 25 0 25 0 0 25 0 25 -25 0 -25 0 0 -25z"/>
<path d="M1070 1095 l0 -25 25 0 25 0 0 -55 0 -55 25 0 25 0 0 55 0 55 -25 0
-25 0 0 25 0 25 -25 0 -25 0 0 -25z"/>
<path d="M50 985 l0 -25 30 0 30 0 0 25 0 25 -30 0 -30 0 0 -25z"/>
<path d="M160 985 l0 -25 25 0 25 0 0 -25 0 -25 30 0 30 0 0 25 0 25 -30 0
-30 0 0 25 0 25 -25 0 -25 0 0 -25z"/>
<path d="M370 985 l0 -25 30 0 30 0 0 -25 0 -25 25 0 25 0 0 25 0 25 -25 0
-25 0 0 25 0 25 -30 0 -30 0 0 -25z"/>
<path d="M960 985 l0 -25 -25 0 -25 0 0 -25 0 -25 25 0 25 0 0 25 0 25 25 0
25 0 0 25 0 25 -25 0 -25 0 0 -25z"/>
<path d="M110 880 l0 -30 25 0 25 0 0 30 0 30 -25 0 -25 0 0 -30z"/>
<path d="M530 880 l0 -30 55 0 55 0 0 30 0 30 -55 0 -55 0 0 -30z"/>
<path d="M690 880 l0 -30 30 0 30 0 0 30 0 30 -30 0 -30 0 0 -30z"/>
<path d="M1070 880 l0 -30 25 0 25 0 0 30 0 30 -25 0 -25 0 0 -30z"/>
<path d="M210 825 l0 -25 55 0 55 0 0 25 0 25 -55 0 -55 0 0 -25z"/>
<path d="M370 825 l0 -25 55 0 55 0 0 25 0 25 -55 0 -55 0 0 -25z"/>
<path d="M800 825 l0 -25 55 0 55 0 0 25 0 25 -55 0 -55 0 0 -25z"/>
<path d="M960 825 l0 -25 25 0 25 0 0 25 0 25 -25 0 -25 0 0 -25z"/>
</g>
</svg>
