<?xml version="1.0" standalone="no"?>
<!DOCTYPE svg PUBLIC "-//W3C//DTD SVG 20010904//EN"
 "http://www.w3.org/TR/2001/REC-SVG-20010904/DTD/svg10.dtd">
<svg version="1.0" xmlns="http://www.w3.org/2000/svg"
 width="468pt" height="468pt" viewBox="0 0 468 468"
 preserveAspectRatio="xMidYMid meet">
<metadata>
Created by potrace 1.8, written by Peter Selinger 2001-2007
</metadata>
<g transform="translate(0,468) scale(0.365625,-0.365625)"
fill="#000000" stroke="none">
<path d="M0 1265 l0 -15 15 0 15 0 0 15 0 15 -15 0 -15 0 0 -15z"/>
<path d="M50 1269 l0 -10 -14 -15 -15 -14 -10 0 -11 0 0 -15 0 -15 15 0 15 0
0 -10 0 -10 -15 0 -15 0 0 -15 0 -15 15 0 15 0 0 -10 0 -10 -15 0 -15 0 0 -15
0 -15 15 0 15 0 0 -10 0 -10 -15 0 -15 0 0 -15 0 -15 15 0 15 0 0 -15 0 -15
-15 0 -15 0 0 -10 0 -10 15 0 15 0 0 -15 0 -15 -15 0 -15 0 0 -10 0 -10 11 0
10 0 15 14 14 15 0 9 0 10 -12 6 -13 6 12 6 13 6 0 14 0 14 -10 0 -10 0 0 14
0 14 13 6 12 6 -12 6 -13 6 0 13 0 13 13 6 12 6 -12 6 -13 6 0 13 0 13 13 6
12 6 -12 6 -13 6 0 10 0 9 14 15 15 14 10 0 11 0 0 15 0 15 -15 0 -15 0 0 -11z"/>
<path d="M100 1265 l0 -15 15 0 15 0 0 15 0 15 -15 0 -15 0 0 -15z"/>
<path d="M150 1265 l0 -15 15 0 15 0 0 15 0 15 -15 0 -15 0 0 -15z"/>
<path d="M200 1265 l0 -15 15 0 15 0 0 15 0 15 -15 0 -15 0 0 -15z"/>
<path d="M260 1265 l0 -15 10 0 10 0 0 15 0 15 -10 0 -10 0 0 -15z"/>
<path d="M310 1265 l0 -15 10 0 10 0 0 15 0 15 -10 0 -10 0 0 -15z"/>
<path d="M360 1265 l0 -15 10 0 10 0 0 15 0 15 -10 0 -10 0 0 -15z"/>
<path d="M410 1265 l0 -15 15 0 15 0 0 15 0 15 -15 0 -15 0 0 -15z"/>
<path d="M460 1265 l0 -15 15 0 15 0 0 15 0 15 -15 0 -15 0 0 -15z"/>
<path d="M510 1265 l0 -15 15 0 15 0 0 15 0 15 -15 0 -15 0 0 -15z"/>
<path d="M560 1265 l0 -15 15 0 15 0 0 15 0 15 -15 0 -15 0 0 -15z"/>
<path d="M610 1265 l0 -15 15 0 15 0 0 15 0 15 -15 0 -15 0 0 -15z"/>
<path d="M670 1265 l0 -15 10 0 10 0 0 15 0 15 -10 0 -10 0 0 -15z"/>
<path d="M720 1265 l0 -15 10 0 10 0 0 15 0 15 -10 0 -10 0 0 -15z"/>
<path d="M770 1265 l0 -15 10 0 10 0 0 15 0 15 -10 0 -10 0 0 -15z"/>
<path d="M820 1265 l0 -15 10 0 10 0 0 15 0 15 -10 0 -10 0 0 -15z"/>
<path d="M870 1265 l0 -15 15 0 15 0 0 15 0 15 -15 0 -15 0 0 -15z"/>
<path d="M920 1265 l0 -15 15 0 15 0 0 15 0 15 -15 0 -15 0 0 -15z"/>
<path d="M970 1265 l0 -15 15 0 15 0 0 15 0 15 -15 0 -15 0 0 -15z"/>
<path d="M1020 1265 l0 -15 15 0 15 0 0 15 0 15 -15 0 -15 0 0 -15z"/>
<path d="M1080 1265 l0 -15 10 0 10 0 0 15 0 15 -10 0 -10 0 0 -15z"/>
<path d="M1130 1265 l0 -15 10 0 10 0 0 15 0 15 -10 0 -10 0 0 -15z"/>
<path d="M1180 1265 l0 -15 10 0 10 0 0 15 0 15 -10 0 -10 0 0 -15z"/>
<path d="M1230 1269 l0 -10 14 -15 15 -14 10 0 11 0 0 10 0 10 -15 0 -15 0 0
15 0 15 -10 0 -10 0 0 -11z"/>
<path d="M100 1215 l0 -15 -10 0 -10 0 0 -21 0 -20 14 -15 15 -14 35 0 36 0 0
-25 0 -25 -50 0 -50 0 0 -15 0 -15 50 0 50 0 0 15 0 15 10 0 10 0 0 21 0 20
-14 15 -15 14 -35 0 -36 0 0 25 0 25 50 0 50 0 0 15 0 15 -50 0 -50 0 0 -15z"/>
<path d="M230 1215 l0 -15 25 0 25 0 0 -60 0 -60 -25 0 -25 0 0 -15 0 -15 65
0 65 0 0 15 0 15 -25 0 -25 0 0 60 0 60 25 0 25 0 0 15 0 15 -65 0 -65 0 0
-15z"/>
<path d="M380 1140 l0 -90 15 0 15 0 0 65 0 65 15 0 15 0 0 -15 0 -15 10 0 10
0 0 15 0 15 15 0 15 0 0 -65 0 -65 10 0 10 0 0 90 0 90 -10 0 -10 0 0 -15 0
-15 -14 0 -14 0 -6 -12 -6 -13 -6 13 -6 12 -14 0 -14 0 0 15 0 15 -15 0 -15 0
0 -90z"/>
<path d="M560 1215 l0 -15 -10 0 -10 0 0 -60 0 -60 10 0 10 0 0 -15 0 -15 40
0 40 0 0 15 0 15 15 0 15 0 0 10 0 10 -15 0 -15 0 0 -10 0 -10 -40 0 -40 0 0
60 0 60 40 0 40 0 0 -10 0 -10 15 0 15 0 0 10 0 10 -15 0 -15 0 0 15 0 15 -40
0 -40 0 0 -15z"/>
<path d="M690 1215 l0 -15 25 0 25 0 0 -60 0 -60 -25 0 -25 0 0 -15 0 -15 65
0 65 0 0 15 0 15 -25 0 -25 0 0 60 0 60 25 0 25 0 0 15 0 15 -65 0 -65 0 0
-15z"/>
<path d="M840 1215 l0 -15 30 0 30 0 0 -75 0 -75 10 0 10 0 0 75 0 75 25 0 25
0 0 15 0 15 -65 0 -65 0 0 -15z"/>
<path d="M1000 1205 l0 -25 10 0 10 0 0 -25 0 -25 15 0 15 0 0 -40 0 -40 15 0
15 0 0 40 0 40 10 0 10 0 0 25 0 25 15 0 15 0 0 25 0 25 -15 0 -15 0 0 -25 0
-25 -10 0 -10 0 0 -25 0 -25 -15 0 -15 0 0 25 0 25 -15 0 -15 0 0 25 0 25 -10
0 -10 0 0 -25z"/>
<path d="M1200 1215 l0 -15 -10 0 -10 0 0 -25 0 -25 10 0 10 0 0 -25 0 -25 15
0 15 0 0 25 0 25 10 0 10 0 0 25 0 25 -10 0 -10 0 0 15 0 15 -15 0 -15 0 0
-15z"/>
<path d="M1200 1065 l0 -15 15 0 15 0 0 15 0 15 -15 0 -15 0 0 -15z"/>
<path d="M80 1010 l0 -10 60 0 60 0 0 10 0 10 -60 0 -60 0 0 -10z"/>
<path d="M230 1010 l0 -10 65 0 65 0 0 10 0 10 -65 0 -65 0 0 -10z"/>
<path d="M380 1010 l0 -10 65 0 65 0 0 10 0 10 -65 0 -65 0 0 -10z"/>
<path d="M540 1010 l0 -10 65 0 65 0 0 10 0 10 -65 0 -65 0 0 -10z"/>
<path d="M690 1010 l0 -10 65 0 65 0 0 10 0 10 -65 0 -65 0 0 -10z"/>
<path d="M840 1010 l0 -10 65 0 65 0 0 10 0 10 -65 0 -65 0 0 -10z"/>
<path d="M1000 1010 l0 -10 65 0 65 0 0 10 0 10 -65 0 -65 0 0 -10z"/>
<path d="M1150 1010 l0 -10 65 0 65 0 0 10 0 10 -65 0 -65 0 0 -10z"/>
<path d="M870 960 l0 -10 -15 0 -15 0 0 -15 0 -15 15 0 15 0 0 -10 0 -10 14 0
14 0 6 13 6 12 6 -12 6 -13 13 0 13 0 6 13 6 12 6 -12 6 -13 14 0 14 0 0 -15
0 -15 -15 0 -15 0 0 -15 0 -15 14 0 14 0 6 -12 6 -13 6 13 6 12 14 0 14 0 0
-10 0 -10 14 0 14 0 6 13 6 12 6 -12 6 -13 13 0 13 0 6 13 6 12 6 -12 6 -13
14 0 14 0 0 10 0 10 -15 0 -15 0 0 15 0 15 -10 0 -10 0 0 14 0 14 13 6 12 6
-12 6 -13 6 0 14 0 14 -14 0 -14 0 -6 13 -6 12 -6 -12 -6 -13 -14 0 -14 0 0
10 0 10 -14 0 -14 0 -6 -12 -6 -13 -6 13 -6 12 -13 0 -13 0 -6 -12 -6 -13 -6
13 -6 12 -13 0 -13 0 -6 -12 -6 -13 -6 13 -6 12 -14 0 -14 0 0 -10z m30 -25
l0 -15 -15 0 -15 0 0 15 0 15 15 0 15 0 0 -15z m50 0 l0 -15 -15 0 -15 0 0 15
0 15 15 0 15 0 0 -15z m50 4 l0 -10 14 -15 15 -14 10 0 11 0 0 10 0 10 -15 0
-15 0 0 15 0 15 15 0 15 0 0 -15 0 -15 15 0 15 0 0 15 0 15 10 0 10 0 0 -15 0
-15 15 0 15 0 0 -10 0 -10 -15 0 -15 0 0 -15 0 -15 15 0 15 0 0 -15 0 -15 -15
0 -15 0 0 15 0 15 -10 0 -10 0 0 -15 0 -15 -15 0 -15 0 0 15 0 15 -15 0 -15 0
0 -15 0 -15 -10 0 -10 0 0 15 0 15 10 0 10 0 0 11 0 10 -14 15 -15 14 -10 0
-11 0 0 15 0 15 15 0 15 0 0 -11z"/>
<path d="M1080 910 l0 -10 -15 0 -15 0 0 -15 0 -15 15 0 15 0 0 15 0 15 10 0
10 0 0 10 0 10 -10 0 -10 0 0 -10z"/>
<path d="M200 939 l0 -10 -14 -15 -15 -14 -10 0 -11 0 0 -15 0 -15 15 0 15 0
0 -15 0 -15 10 0 10 0 0 15 0 15 15 0 15 0 0 -15 0 -15 15 0 15 0 0 15 0 15
10 0 10 0 0 -15 0 -15 15 0 15 0 0 15 0 15 10 0 10 0 0 -15 0 -15 15 0 15 0 0
15 0 15 10 0 10 0 0 15 0 15 15 0 15 0 0 10 0 10 -15 0 -15 0 0 15 0 15 -10 0
-10 0 0 -15 0 -15 -15 0 -15 0 0 15 0 15 -10 0 -10 0 0 -15 0 -15 -15 0 -15 0
0 15 0 15 -10 0 -10 0 0 -15 0 -15 -15 0 -15 0 0 15 0 15 -15 0 -15 0 0 -11z
m30 -29 l0 -10 14 0 14 0 6 13 6 12 6 -12 6 -13 13 0 13 0 6 13 6 12 6 -12 6
-13 13 0 13 0 5 13 4 12 9 -9 9 -9 -12 -4 -13 -5 0 -14 0 -14 -15 0 -15 0 0
15 0 15 -10 0 -10 0 0 -15 0 -15 -15 0 -15 0 0 15 0 15 -10 0 -10 0 0 -15 0
-15 -15 0 -15 0 0 15 0 15 -15 0 -15 0 0 -15 0 -15 -10 0 -10 0 0 10 0 11 13
14 12 14 13 1 12 0 0 -10z"/>
<path d="M510 936 l0 -14 -12 -6 -13 -6 13 -6 12 -6 0 -14 0 -14 15 0 15 0 0
-11 0 -10 14 -15 15 -14 9 0 10 0 6 13 6 12 6 -12 6 -13 14 0 14 0 0 10 0 10
14 0 14 0 6 -12 6 -13 6 13 6 12 14 0 14 0 0 15 0 15 -15 0 -15 0 0 15 0 15
11 0 10 0 15 14 14 15 0 10 0 11 -10 0 -10 0 0 -15 0 -15 -15 0 -15 0 0 15 0
15 -10 0 -10 0 0 -15 0 -15 -15 0 -15 0 0 15 0 15 -15 0 -15 0 0 -15 0 -15 15
0 15 0 0 -10 0 -10 -15 0 -15 0 0 -15 0 -15 -10 0 -10 0 0 15 0 15 -15 0 -15
0 0 -15 0 -15 -10 0 -10 0 0 15 0 15 -15 0 -15 0 0 10 0 10 15 0 15 0 0 15 0
15 -15 0 -15 0 0 -14z m180 -26 l0 -10 -10 0 -10 0 0 -15 0 -15 10 0 10 0 0
-15 0 -15 -10 0 -10 0 0 15 0 15 -15 0 -15 0 0 -15 0 -15 -15 0 -15 0 0 15 0
15 15 0 15 0 0 15 0 15 15 0 15 0 0 10 0 10 10 0 10 0 0 -10z m-100 -55 l0
-15 -15 0 -15 0 0 15 0 15 15 0 15 0 0 -15z"/>
<path d="M560 936 l0 -14 -12 -5 -13 -4 9 -9 9 -9 4 13 5 12 13 0 13 0 5 -12
4 -13 9 9 9 9 -12 4 -13 5 0 14 0 14 -15 0 -15 0 0 -14z"/>
<path d="M30 855 l0 -65 -15 0 -15 0 0 -255 0 -255 14 0 14 0 6 -12 6 -13 6
13 6 12 13 0 13 0 6 -12 6 -13 6 13 6 12 13 0 13 0 6 -12 6 -13 6 13 6 12 13
0 13 0 6 -12 6 -13 6 13 6 12 14 0 14 0 0 -10 0 -10 14 0 14 0 6 13 6 12 6
-12 6 -13 13 0 13 0 6 13 6 12 6 -12 6 -13 13 0 13 0 6 13 6 12 6 -12 6 -13
14 0 14 0 0 10 0 10 14 0 14 0 6 -12 6 -13 6 13 6 12 14 0 14 0 0 -25 0 -25
-15 0 -15 0 0 -15 0 -15 40 0 40 0 0 15 0 15 10 0 10 0 0 25 0 25 -10 0 -10 0
0 -10 0 -10 -15 0 -15 0 0 10 0 10 15 0 15 0 0 11 0 10 14 15 15 14 10 0 11 0
0 230 0 230 -65 0 -65 0 0 65 0 65 -10 0 -10 0 0 -65 0 -65 -15 0 -15 0 0 -10
0 -10 -15 0 -15 0 0 -15 0 -15 -10 0 -10 0 0 -205 0 -205 -11 0 -10 0 -15 -14
-14 -15 0 -10 0 -11 -15 0 -15 0 0 15 0 15 11 0 10 0 15 14 14 15 0 225 0 226
-86 0 -85 0 -15 -14 -14 -15 0 -10 0 -11 -15 0 -15 0 0 -204 0 -204 -12 -6
-13 -6 13 -6 12 -6 0 -14 0 -14 -10 0 -10 0 0 15 0 15 -15 0 -15 0 0 -15 0
-15 -10 0 -10 0 0 11 0 10 14 15 15 14 10 0 11 0 0 230 0 230 -15 0 -15 0 0
25 0 25 15 0 15 0 0 15 0 15 -15 0 -15 0 0 15 0 15 15 0 15 0 0 10 0 10 -25 0
-25 0 0 -65z m120 -160 l0 -25 -10 0 -10 0 0 25 0 25 10 0 10 0 0 -25z m50 0
l0 -25 -10 0 -10 0 0 25 0 25 10 0 10 0 0 -25z m60 0 l0 -25 -15 0 -15 0 0 25
0 25 15 0 15 0 0 -25z m150 0 l0 -25 -15 0 -15 0 0 25 0 25 15 0 15 0 0 -25z
m50 0 l0 -25 -10 0 -10 0 0 25 0 25 10 0 10 0 0 -25z m50 0 l0 -25 -10 0 -10
0 0 25 0 25 10 0 10 0 0 -25z m-360 -110 l0 -25 -10 0 -10 0 0 25 0 25 10 0
10 0 0 -25z m50 0 l0 -25 -10 0 -10 0 0 25 0 25 10 0 10 0 0 -25z m60 0 l0
-25 -15 0 -15 0 0 25 0 25 15 0 15 0 0 -25z m150 0 l0 -25 -15 0 -15 0 0 25 0
25 15 0 15 0 0 -25z m50 0 l0 -25 -10 0 -10 0 0 25 0 25 10 0 10 0 0 -25z m50
0 l0 -25 -10 0 -10 0 0 25 0 25 10 0 10 0 0 -25z m-360 -100 l0 -25 -10 0 -10
0 0 25 0 25 10 0 10 0 0 -25z m50 0 l0 -25 -10 0 -10 0 0 25 0 25 10 0 10 0 0
-25z m60 0 l0 -25 -15 0 -15 0 0 25 0 25 15 0 15 0 0 -25z m150 0 l0 -25 -15
0 -15 0 0 25 0 25 15 0 15 0 0 -25z m50 0 l0 -25 -10 0 -10 0 0 25 0 25 10 0
10 0 0 -25z m50 0 l0 -25 -10 0 -10 0 0 25 0 25 10 0 10 0 0 -25z m-360 -100
l0 -25 -10 0 -10 0 0 25 0 25 10 0 10 0 0 -25z m50 0 l0 -25 -10 0 -10 0 0 25
0 25 10 0 10 0 0 -25z m60 0 l0 -25 -15 0 -15 0 0 25 0 25 15 0 15 0 0 -25z
m150 0 l0 -25 -15 0 -15 0 0 25 0 25 15 0 15 0 0 -25z m50 0 l0 -25 -10 0 -10
0 0 25 0 25 10 0 10 0 0 -25z m50 0 l0 -25 -10 0 -10 0 0 25 0 25 10 0 10 0 0
-25z m-360 -65 l0 -10 -10 0 -10 0 0 10 0 10 10 0 10 0 0 -10z m50 -15 l0 -25
-10 0 -10 0 0 25 0 25 10 0 10 0 0 -25z m60 15 l0 -10 -15 0 -15 0 0 10 0 10
15 0 15 0 0 -10z m150 0 l0 -10 -15 0 -15 0 0 10 0 10 15 0 15 0 0 -10z m50
-15 l0 -25 -10 0 -10 0 0 25 0 25 10 0 10 0 0 -25z m50 15 l0 -10 -10 0 -10 0
0 10 0 10 10 0 10 0 0 -10z m-150 -25 l0 -15 -15 0 -15 0 0 15 0 15 15 0 15 0
0 -15z"/>
<path d="M740 885 l0 -15 15 0 15 0 0 -15 0 -15 -15 0 -15 0 0 -10 0 -10 15 0
15 0 0 -15 0 -15 -50 0 -50 0 0 -10 0 -10 -15 0 -15 0 0 -15 0 -15 -15 0 -15
0 0 -204 0 -204 -12 -6 -13 -6 13 -6 12 -6 0 -14 0 -14 15 0 15 0 0 -10 0 -10
-11 0 -10 0 -15 14 -14 15 0 10 0 11 -15 0 -15 0 0 -15 0 -15 11 0 10 0 15
-14 14 -15 0 -10 0 -11 -10 0 -10 0 0 -15 0 -15 40 0 40 0 0 15 0 15 10 0 10
0 0 14 0 14 -12 6 -13 6 13 6 12 6 0 24 0 24 15 0 15 0 0 -25 0 -25 -15 0 -15
0 0 -10 0 -10 14 0 14 0 6 13 6 12 6 -12 6 -13 10 0 9 0 15 14 14 15 0 10 0
11 11 0 10 0 15 14 14 15 0 150 0 151 15 0 15 0 0 -155 0 -155 -11 0 -10 0
-15 -14 -14 -15 0 -10 0 -11 10 0 10 0 0 15 0 15 15 0 15 0 0 -15 0 -15 14 0
14 0 6 -12 6 -13 6 13 6 12 14 0 14 0 0 25 0 25 10 0 10 0 0 -25 0 -25 14 0
14 0 6 -12 6 -13 6 13 6 12 14 0 14 0 0 -10 0 -10 14 0 14 0 6 12 6 13 6 -12
6 -13 13 0 13 0 6 13 6 12 6 -12 6 -13 13 0 13 0 6 13 6 12 6 -12 6 -13 13 0
13 0 6 13 6 12 6 -12 6 -13 14 0 14 0 0 25 0 25 -15 0 -15 0 0 10 0 10 15 0
15 0 0 15 0 15 -15 0 -15 0 0 25 0 25 15 0 15 0 0 25 0 25 -15 0 -15 0 0 25 0
25 15 0 15 0 0 25 0 25 -15 0 -15 0 0 25 0 25 15 0 15 0 0 30 0 30 -15 0 -15
0 0 25 0 25 15 0 15 0 0 35 0 35 -50 0 -50 0 0 -10 0 -10 -15 0 -15 0 0 -15 0
-15 -10 0 -10 0 0 -50 0 -50 -15 0 -15 0 0 75 0 75 -86 0 -85 0 -15 -14 -14
-15 0 -10 0 -11 -15 0 -15 0 0 -35 0 -35 -15 0 -15 0 0 60 0 60 -25 0 -25 0 0
15 0 15 15 0 15 0 0 10 0 10 -15 0 -15 0 0 15 0 15 15 0 15 0 0 15 0 15 -40 0
-40 0 0 -15z m-70 -190 l0 -25 -15 0 -15 0 0 25 0 25 15 0 15 0 0 -25z m50 0
l0 -25 -15 0 -15 0 0 25 0 25 15 0 15 0 0 -25z m50 0 l0 -25 -15 0 -15 0 0 25
0 25 15 0 15 0 0 -25z m150 0 l0 -25 -10 0 -10 0 0 25 0 25 10 0 10 0 0 -25z
m50 0 l0 -25 -10 0 -10 0 0 25 0 25 10 0 10 0 0 -25z m50 0 l0 -25 -10 0 -10
0 0 25 0 25 10 0 10 0 0 -25z m160 0 l0 -25 -15 0 -15 0 0 25 0 25 15 0 15 0
0 -25z m50 0 l0 -25 -15 0 -15 0 0 25 0 25 15 0 15 0 0 -25z m-560 -110 l0
-25 -15 0 -15 0 0 25 0 25 15 0 15 0 0 -25z m50 0 l0 -25 -15 0 -15 0 0 25 0
25 15 0 15 0 0 -25z m50 0 l0 -25 -15 0 -15 0 0 25 0 25 15 0 15 0 0 -25z
m150 0 l0 -25 -10 0 -10 0 0 25 0 25 10 0 10 0 0 -25z m50 0 l0 -25 -10 0 -10
0 0 25 0 25 10 0 10 0 0 -25z m50 0 l0 -25 -10 0 -10 0 0 25 0 25 10 0 10 0 0
-25z m110 -10 l0 -35 -15 0 -15 0 0 35 0 35 15 0 15 0 0 -35z m50 10 l0 -25
-15 0 -15 0 0 25 0 25 15 0 15 0 0 -25z m50 0 l0 -25 -15 0 -15 0 0 25 0 25
15 0 15 0 0 -25z m-560 -100 l0 -25 -15 0 -15 0 0 25 0 25 15 0 15 0 0 -25z
m50 0 l0 -25 -15 0 -15 0 0 25 0 25 15 0 15 0 0 -25z m50 0 l0 -25 -15 0 -15
0 0 25 0 25 15 0 15 0 0 -25z m150 0 l0 -25 -10 0 -10 0 0 25 0 25 10 0 10 0
0 -25z m50 0 l0 -25 -10 0 -10 0 0 25 0 25 10 0 10 0 0 -25z m50 0 l0 -25 -10
0 -10 0 0 25 0 25 10 0 10 0 0 -25z m110 -65 l0 -90 -11 0 -10 0 -15 -14 -14
-15 0 -10 0 -11 -15 0 -15 0 0 15 0 15 11 0 10 0 15 14 14 15 0 85 0 86 15 0
15 0 0 -90z m50 65 l0 -25 -15 0 -15 0 0 25 0 25 15 0 15 0 0 -25z m50 0 l0
-25 -15 0 -15 0 0 25 0 25 15 0 15 0 0 -25z m-560 -100 l0 -25 -15 0 -15 0 0
25 0 25 15 0 15 0 0 -25z m50 0 l0 -25 -15 0 -15 0 0 25 0 25 15 0 15 0 0 -25z
m50 0 l0 -25 -15 0 -15 0 0 25 0 25 15 0 15 0 0 -25z m150 0 l0 -25 -10 0 -10
0 0 25 0 25 10 0 10 0 0 -25z m50 0 l0 -25 -10 0 -10 0 0 25 0 25 10 0 10 0 0
-25z m50 0 l0 -25 -10 0 -10 0 0 25 0 25 10 0 10 0 0 -25z m160 0 l0 -25 -15
0 -15 0 0 25 0 25 15 0 15 0 0 -25z m50 0 l0 -25 -15 0 -15 0 0 25 0 25 15 0
15 0 0 -25z m-560 -65 l0 -10 -15 0 -15 0 0 10 0 10 15 0 15 0 0 -10z m100 0
l0 -10 -15 0 -15 0 0 10 0 10 15 0 15 0 0 -10z m150 0 l0 -10 -10 0 -10 0 0
10 0 10 10 0 10 0 0 -10z m100 0 l0 -10 -10 0 -10 0 0 10 0 10 10 0 10 0 0
-10z m160 0 l0 -10 -15 0 -15 0 0 10 0 10 15 0 15 0 0 -10z m50 -15 l0 -25
-15 0 -15 0 0 25 0 25 15 0 15 0 0 -25z m-100 -10 l0 -15 -15 0 -15 0 0 15 0
15 15 0 15 0 0 -15z"/>
<path d="M790 255 l0 -25 -10 0 -10 0 0 -15 0 -15 35 0 35 0 0 15 0 15 15 0
15 0 0 25 0 25 -14 0 -14 0 -6 -12 -6 -13 -6 13 -6 12 -14 0 -14 0 0 -25z"/>
<path d="M950 270 l0 -10 -15 0 -15 0 0 -15 0 -15 -10 0 -10 0 0 -15 0 -15 35
0 35 0 0 15 0 15 15 0 15 0 0 15 0 15 -15 0 -15 0 0 10 0 10 -10 0 -10 0 0
-10z"/>
<path d="M43 185 l-13 -14 0 -6 0 -6 14 -15 15 -14 6 0 6 0 15 14 14 15 0 10
0 11 15 0 15 0 0 10 0 10 -37 0 -38 -1 -12 -14z"/>
<path d="M180 190 l0 -10 -15 0 -15 0 0 -25 0 -25 -10 0 -10 0 0 10 0 10 -11
0 -10 0 -15 -14 -14 -15 0 -10 0 -11 -15 0 -15 0 0 11 0 10 -14 15 -15 14 -10
0 -11 0 0 -10 0 -10 15 0 15 0 0 -15 0 -15 -15 0 -15 0 0 -10 0 -10 15 0 15 0
0 -15 0 -15 -15 0 -15 0 0 -10 0 -10 15 0 15 0 0 -15 0 -15 10 0 10 0 0 15 0
15 15 0 15 0 0 -15 0 -15 10 0 10 0 0 15 0 15 15 0 15 0 0 -15 0 -15 10 0 10
0 0 15 0 15 15 0 15 0 0 -15 0 -15 10 0 10 0 0 15 0 15 15 0 15 0 0 -15 0 -15
15 0 15 0 0 15 0 15 -15 0 -15 0 0 10 0 10 15 0 15 0 0 15 0 15 -15 0 -15 0 0
10 0 10 15 0 15 0 0 15 0 15 10 0 10 0 0 -15 0 -15 15 0 15 0 0 15 0 15 10 0
10 0 0 -15 0 -15 15 0 15 0 0 15 0 15 10 0 10 0 0 -15 0 -15 15 0 15 0 0 -10
0 -10 -15 0 -15 0 0 -15 0 -15 15 0 15 0 0 -10 0 -10 -15 0 -15 0 0 -15 0 -15
15 0 15 0 0 15 0 15 15 0 15 0 0 -15 0 -15 10 0 10 0 0 15 0 15 15 0 15 0 0
-15 0 -15 10 0 10 0 0 15 0 15 15 0 15 0 0 -15 0 -15 10 0 10 0 0 15 0 15 15
0 15 0 0 -15 0 -15 10 0 10 0 0 15 0 15 15 0 15 0 0 -15 0 -15 15 0 15 0 0 15
0 15 -15 0 -15 0 0 10 0 10 15 0 15 0 0 15 0 15 -15 0 -15 0 0 10 0 10 15 0
15 0 0 15 0 15 10 0 10 0 0 -15 0 -15 15 0 15 0 0 15 0 15 10 0 10 0 0 -15 0
-15 15 0 15 0 0 15 0 15 10 0 10 0 0 -15 0 -15 15 0 15 0 0 15 0 15 10 0 10 0
0 -15 0 -15 15 0 15 0 0 -10 0 -10 -15 0 -15 0 0 -15 0 -15 15 0 15 0 0 -10 0
-10 -15 0 -15 0 0 -15 0 -15 15 0 15 0 0 15 0 15 15 0 15 0 0 -15 0 -15 10 0
10 0 0 15 0 15 15 0 15 0 0 -15 0 -15 10 0 10 0 0 15 0 15 15 0 15 0 0 -15 0
-15 10 0 10 0 0 15 0 15 15 0 15 0 0 -15 0 -15 15 0 15 0 0 15 0 15 -15 0 -15
0 0 10 0 10 15 0 15 0 0 15 0 15 -15 0 -15 0 0 10 0 10 15 0 15 0 0 15 0 15
-15 0 -15 0 0 -15 0 -15 -15 0 -15 0 0 15 0 15 15 0 15 0 0 10 0 10 15 0 15 0
0 -10 0 -10 10 0 10 0 0 25 0 25 15 0 15 0 0 10 0 10 -40 0 -40 0 0 -10 0 -10
-15 0 -15 0 0 -25 0 -25 -10 0 -10 0 0 10 0 10 -14 0 -14 0 -6 -12 -6 -13 -6
12 -6 13 -13 0 -13 0 -6 -12 -6 -13 -6 12 -6 13 -14 0 -14 0 0 -10 0 -10 -14
0 -14 0 -6 13 -6 12 -6 -12 -6 -13 -13 0 -13 0 -6 13 -6 12 -6 -12 -6 -13 -13
0 -13 0 -6 13 -6 12 -6 -12 -6 -13 -13 0 -13 0 -6 13 -6 12 -6 -12 -6 -13 -14
0 -14 0 0 10 0 10 -14 0 -14 0 -6 -12 -6 -13 -6 13 -6 12 -13 0 -13 0 -6 -12
-6 -13 -6 13 -6 12 -13 0 -13 0 -6 -12 -6 -13 -6 13 -6 12 -13 0 -13 0 -6 -12
-6 -13 -6 13 -6 12 -14 0 -14 0 0 -10 0 -10 -14 0 -14 0 -6 13 -6 12 -6 -12
-6 -13 -13 0 -13 0 -6 13 -6 12 -6 -12 -6 -13 -13 0 -13 0 -6 13 -6 12 -6 -12
-6 -13 -14 0 -14 0 0 25 0 25 15 0 15 0 0 10 0 10 -40 0 -40 0 0 -10z m20 -50
l0 -10 15 0 15 0 0 -15 0 -15 -15 0 -15 0 0 15 0 15 -10 0 -10 0 0 -15 0 -15
-15 0 -15 0 0 15 0 15 15 0 15 0 0 10 0 10 10 0 10 0 0 -10z m-70 -21 l0 -10
14 -15 15 -14 9 0 10 0 6 13 6 12 6 -12 6 -13 14 0 14 0 0 -15 0 -15 -14 0
-14 0 -6 -12 -6 -13 -6 13 -6 12 -13 0 -13 0 -6 -12 -6 -13 -6 13 -6 12 -13 0
-13 0 -6 -12 -6 -13 -6 13 -6 12 -13 0 -13 0 -5 -12 -4 -13 -9 9 -9 9 13 4 12
5 0 13 0 13 -12 5 -13 4 9 9 9 9 4 -12 5 -13 10 0 9 0 15 14 14 15 0 10 0 11
15 0 15 0 0 -11z m310 -4 l0 -15 -15 0 -15 0 0 15 0 15 15 0 15 0 0 -15z m50
0 l0 -15 -11 0 -10 0 -15 -14 -14 -15 0 -10 0 -11 10 0 10 0 0 15 0 15 15 0
15 0 0 -15 0 -15 10 0 10 0 0 15 0 15 15 0 15 0 0 -15 0 -15 10 0 10 0 0 15 0
15 15 0 15 0 0 -15 0 -15 10 0 10 0 0 15 0 15 15 0 15 0 0 -15 0 -15 -14 0
-14 0 -6 -12 -6 -13 -6 13 -6 12 -13 0 -13 0 -6 -12 -6 -13 -6 13 -6 12 -13 0
-13 0 -6 -12 -6 -13 -6 13 -6 12 -13 0 -13 0 -6 -12 -6 -13 -6 13 -6 12 -14 0
-14 0 0 15 0 15 11 0 10 0 15 14 14 15 0 10 0 11 15 0 15 0 0 -15z m50 0 l0
-15 10 0 10 0 0 15 0 15 15 0 15 0 0 -15 0 -15 10 0 10 0 0 15 0 15 15 0 15 0
0 -15 0 -15 -14 0 -14 0 -6 -12 -6 -13 -6 13 -6 12 -13 0 -13 0 -6 -12 -6 -13
-6 13 -6 12 -13 0 -13 0 -5 -12 -4 -13 -9 9 -9 9 13 4 12 5 0 14 0 14 15 0 15
0 0 -15z m360 0 l0 -15 -15 0 -15 0 0 15 0 15 15 0 15 0 0 -15z m50 0 l0 -15
-11 0 -10 0 -15 -14 -14 -15 0 -10 0 -11 10 0 10 0 0 15 0 15 15 0 15 0 0 -15
0 -15 10 0 10 0 0 15 0 15 15 0 15 0 0 -15 0 -15 10 0 10 0 0 11 0 10 -14 15
-15 14 -10 0 -11 0 0 15 0 15 15 0 15 0 0 -11 0 -10 14 -15 15 -14 10 0 11 0
0 -15 0 -15 -14 0 -14 0 -6 -12 -6 -13 -6 13 -6 12 -13 0 -13 0 -6 -12 -6 -13
-6 13 -6 12 -13 0 -13 0 -6 -12 -6 -13 -6 13 -6 12 -14 0 -14 0 0 15 0 15 11
0 10 0 15 14 14 15 0 10 0 11 15 0 15 0 0 -15z m20 -25 l0 -10 -10 0 -10 0 0
10 0 10 10 0 10 0 0 -10z"/>
<path d="M93 85 l-13 -14 0 -11 0 -10 10 0 10 0 0 15 0 15 15 0 15 0 0 -15 0
-15 10 0 10 0 0 11 0 10 -14 15 -15 14 -8 0 -8 -1 -12 -14z"/>
<path d="M180 65 l0 -15 10 0 10 0 0 15 0 15 -10 0 -10 0 0 -15z"/>
<path d="M1180 190 l0 -10 -15 0 -15 0 0 -11 0 -10 -14 -15 -15 -14 -10 0 -11
0 0 -14 0 -14 -12 -6 -13 -6 13 -6 12 -6 0 -13 0 -13 -12 -6 -13 -6 13 -6 12
-6 0 -14 0 -14 15 0 15 0 0 15 0 15 -15 0 -15 0 0 10 0 10 15 0 15 0 0 15 0
15 -15 0 -15 0 0 10 0 10 15 0 15 0 0 11 0 10 14 15 15 14 9 0 10 0 6 -12 6
-13 6 13 6 12 10 0 9 0 15 -14 14 -15 0 -10 0 -11 15 0 15 0 0 15 0 15 -11 0
-10 0 -15 14 -14 15 0 10 0 11 10 0 10 0 0 10 0 10 -35 0 -35 0 0 -10z"/>
<path d="M1150 116 l0 -14 -12 -6 -13 -6 13 -6 12 -6 0 -13 0 -13 -12 -6 -13
-6 13 -6 12 -6 0 -14 0 -14 15 0 15 0 0 15 0 15 -15 0 -15 0 0 10 0 10 15 0
15 0 0 15 0 15 -15 0 -15 0 0 10 0 10 15 0 15 0 0 15 0 15 -15 0 -15 0 0 -14z"/>
<path d="M1200 116 l0 -14 -12 -6 -13 -6 13 -6 12 -6 0 -13 0 -13 -12 -6 -13
-6 13 -6 12 -6 0 -14 0 -14 15 0 15 0 0 15 0 15 -15 0 -15 0 0 10 0 10 15 0
15 0 0 15 0 15 -15 0 -15 0 0 10 0 10 11 0 10 0 15 -14 14 -15 0 -10 0 -11 15
0 15 0 0 15 0 15 -11 0 -10 0 -15 14 -14 15 0 10 0 11 -15 0 -15 0 0 -14z"/>
<path d="M260 90 l0 -10 10 0 10 0 0 -14 0 -14 -12 -6 -13 -6 13 -6 12 -6 0
-14 0 -14 15 0 15 0 0 15 0 15 -15 0 -15 0 0 10 0 10 15 0 15 0 0 15 0 15 10
0 10 0 0 -15 0 -15 15 0 15 0 0 -10 0 -10 -15 0 -15 0 0 -15 0 -15 15 0 15 0
0 14 0 14 13 6 12 6 -12 6 -13 6 0 13 0 13 13 5 12 4 -9 9 -9 9 -4 -12 -5 -13
-13 0 -13 0 -6 13 -6 12 -6 -12 -6 -13 -14 0 -14 0 0 10 0 10 -10 0 -10 0 0
-10z"/>
<path d="M670 90 l0 -10 10 0 10 0 0 -14 0 -14 -12 -6 -13 -6 13 -6 12 -6 0
-14 0 -14 15 0 15 0 0 15 0 15 -15 0 -15 0 0 10 0 10 15 0 15 0 0 15 0 15 10
0 10 0 0 -15 0 -15 15 0 15 0 0 15 0 15 10 0 10 0 0 -15 0 -15 15 0 15 0 0
-10 0 -10 -15 0 -15 0 0 -15 0 -15 15 0 15 0 0 14 0 14 13 6 12 6 -12 6 -13 6
0 13 0 13 13 5 12 4 -9 9 -9 9 -4 -12 -5 -13 -13 0 -13 0 -6 13 -6 12 -6 -12
-6 -13 -13 0 -13 0 -6 13 -6 12 -6 -12 -6 -13 -14 0 -14 0 0 10 0 10 -10 0
-10 0 0 -10z"/>
<path d="M310 40 l0 -10 10 0 10 0 0 10 0 10 -10 0 -10 0 0 -10z"/>
<path d="M720 40 l0 -10 10 0 10 0 0 -15 0 -15 15 0 15 0 0 14 0 14 13 5 12 4
-9 9 -9 9 -4 -12 -5 -13 -14 0 -14 0 0 10 0 10 -10 0 -10 0 0 -10z"/>
<path d="M1230 40 l0 -10 10 0 10 0 0 -15 0 -15 15 0 15 0 0 15 0 15 -15 0
-15 0 0 10 0 10 -10 0 -10 0 0 -10z"/>
</g>
</svg>
