<?xml version="1.0" standalone="no"?>
<!DOCTYPE svg PUBLIC "-//W3C//DTD SVG 20010904//EN"
 "http://www.w3.org/TR/2001/REC-SVG-20010904/DTD/svg10.dtd">
<svg version="1.0" xmlns="http://www.w3.org/2000/svg"
 width="468pt" height="468pt" viewBox="0 0 468 468"
 preserveAspectRatio="xMidYMid meet">
<metadata>
Created by potrace 1.8, written by Peter Selinger 2001-2007
</metadata>
<g transform="translate(0,468) scale(0.365625,-0.365625)"
fill="#000000" stroke="none">
<path d="M290 1240 l0 -10 -50 0 -50 0 0 -95 0 -95 -15 0 -15 0 0 15 0 15 -25
0 -25 0 0 -70 0 -70 10 0 10 0 0 -90 0 -90 -40 0 -40 0 0 -15 0 -15 -10 0 -10
0 0 -25 0 -25 -15 0 -15 0 0 -55 0 -55 15 0 15 0 0 -25 0 -25 10 0 10 0 0 -40
0 -40 -10 0 -10 0 0 -30 0 -30 10 0 10 0 0 -25 0 -25 15 0 15 0 0 -25 0 -25
15 0 15 0 0 -40 0 -40 10 0 10 0 0 -15 0 -15 30 0 30 0 0 -15 0 -15 80 0 80 0
0 15 0 15 145 0 145 0 0 -15 0 -15 105 0 105 0 0 30 0 30 -10 0 -10 0 0 25 0
25 -15 0 -15 0 0 25 0 25 105 0 105 0 0 -10 0 -10 40 0 40 0 0 10 0 10 15 0
15 0 0 160 0 160 11 0 10 0 15 -14 14 -15 0 -35 0 -36 15 0 15 0 0 -95 0 -95
15 0 15 0 0 -55 0 -55 -15 0 -15 0 0 -25 0 -25 -105 0 -105 0 0 15 0 15 -55 0
-55 0 0 -15 0 -15 55 0 55 0 0 -15 0 -15 120 0 120 0 0 30 0 30 10 0 10 0 0
90 0 90 -10 0 -10 0 0 70 0 70 -15 0 -15 0 0 40 0 40 -15 0 -15 0 0 25 0 25
-10 0 -10 0 0 15 0 15 -15 0 -15 0 0 10 0 10 -15 0 -15 0 0 -200 0 -200 -40 0
-40 0 0 200 0 200 -10 0 -10 0 0 55 0 55 10 0 10 0 0 25 0 25 -10 0 -10 0 0
40 0 40 10 0 10 0 0 70 0 70 -25 0 -25 0 0 -15 0 -15 -15 0 -15 0 0 55 0 55
40 0 40 0 0 -15 0 -15 15 0 15 0 0 25 0 25 -15 0 -15 0 0 15 0 15 -10 0 -10 0
0 15 0 15 -40 0 -40 0 0 -95 0 -95 -15 0 -15 0 0 15 0 15 -25 0 -25 0 0 -69 0
-69 13 -6 12 -6 -12 -6 -13 -6 0 -14 0 -14 10 0 10 0 0 -95 0 -95 15 0 15 0 0
120 0 120 -15 0 -15 0 0 55 0 55 15 0 15 0 0 -25 0 -25 15 0 15 0 0 25 0 25
10 0 10 0 0 -25 0 -25 15 0 15 0 0 25 0 25 15 0 15 0 0 -55 0 -55 -15 0 -15 0
0 -40 0 -40 15 0 15 0 0 -10 0 -10 -15 0 -15 0 0 -70 0 -70 15 0 15 0 0 -10 0
-10 -15 0 -15 0 0 -15 0 -15 -15 0 -15 0 0 15 0 15 -25 0 -25 0 0 -15 0 -15
-15 0 -15 0 0 15 0 15 -25 0 -25 0 0 -15 0 -15 -15 0 -15 0 0 15 0 15 -25 0
-25 0 0 -15 0 -15 -15 0 -15 0 0 15 0 15 -25 0 -25 0 0 -15 0 -15 -15 0 -15 0
0 15 0 15 -25 0 -25 0 0 -15 0 -15 -15 0 -15 0 0 15 0 15 -25 0 -25 0 0 -15 0
-15 -15 0 -15 0 0 15 0 15 -25 0 -25 0 0 10 0 10 -15 0 -15 0 0 -200 0 -200
-40 0 -40 0 0 215 0 215 -10 0 -10 0 0 40 0 40 10 0 10 0 0 15 0 15 -25 0 -25
0 0 -70 0 -70 15 0 15 0 0 -120 0 -120 -15 0 -15 0 0 40 0 40 -15 0 -15 0 0
40 0 40 -10 0 -10 0 0 40 0 40 -15 0 -15 0 0 120 0 120 -15 0 -15 0 0 55 0 55
15 0 15 0 0 -25 0 -25 15 0 15 0 0 25 0 25 10 0 10 0 0 -25 0 -25 15 0 15 0 0
25 0 25 15 0 15 0 0 -55 0 -55 -15 0 -15 0 0 -25 0 -25 25 0 25 0 0 14 0 14
-12 6 -13 6 13 6 12 6 0 69 0 69 -25 0 -25 0 0 -15 0 -15 -15 0 -15 0 0 55 0
55 26 0 25 0 15 14 14 15 0 10 0 11 15 0 15 0 0 25 0 25 -15 0 -15 0 0 -10z
m-20 -55 l0 -15 -30 0 -30 0 0 15 0 15 30 0 30 0 0 -15z m720 0 l0 -15 -30 0
-30 0 0 15 0 15 30 0 30 0 0 -15z m-860 -505 l0 -10 15 0 15 0 0 -30 0 -30 15
0 15 0 0 -40 0 -40 10 0 10 0 0 -40 0 -40 15 0 15 0 0 -40 0 -40 15 0 15 0 0
-36 0 -35 14 -15 15 -14 35 0 36 0 0 10 0 10 110 0 110 0 0 -25 0 -25 10 0 10
0 0 -25 0 -25 -130 0 -130 0 0 -15 0 -15 -80 0 -80 0 0 15 0 15 -15 0 -15 0 0
10 0 10 -15 0 -15 0 0 40 0 40 -10 0 -10 0 0 15 0 15 -15 0 -15 0 0 25 0 25
-15 0 -15 0 0 15 0 15 15 0 15 0 0 15 0 15 15 0 15 0 0 25 0 25 -15 0 -15 0 0
15 0 15 -15 0 -15 0 0 25 0 25 -10 0 -10 0 0 40 0 40 10 0 10 0 0 15 0 15 15
0 15 0 0 10 0 10 25 0 25 0 0 -10z m320 -55 l0 -15 15 0 15 0 0 15 0 15 25 0
25 0 0 -15 0 -15 15 0 15 0 0 15 0 15 25 0 25 0 0 -15 0 -15 15 0 15 0 0 15 0
15 25 0 25 0 0 -15 0 -15 15 0 15 0 0 15 0 15 25 0 25 0 0 -15 0 -15 15 0 15
0 0 15 0 15 25 0 25 0 0 -15 0 -15 15 0 15 0 0 15 0 15 25 0 25 0 0 -15 0 -15
15 0 15 0 0 15 0 15 15 0 15 0 0 -160 0 -160 -110 0 -110 0 0 25 0 25 -10 0
-10 0 0 70 0 70 -15 0 -15 0 0 10 0 10 -51 0 -50 0 -15 -14 -14 -15 0 -65 0
-66 -15 0 -15 0 0 -25 0 -25 -80 0 -80 0 0 160 0 160 25 0 25 0 0 -15z m270
-185 l0 -70 -55 0 -55 0 0 30 0 30 15 0 15 0 0 25 0 25 15 0 15 0 0 15 0 15
25 0 25 0 0 -70z m30 -120 l0 -30 10 0 10 0 0 -25 0 -25 15 0 15 0 0 -25 0
-25 15 0 15 0 0 -15 0 -15 -80 0 -80 0 0 15 0 15 25 0 25 0 0 10 0 10 -25 0
-25 0 0 -10 0 -10 -15 0 -15 0 0 25 0 25 15 0 15 0 0 15 0 15 -15 0 -15 0 0
-15 0 -15 -15 0 -15 0 0 25 0 25 -10 0 -10 0 0 30 0 30 80 0 80 0 0 -30z"/>
<path d="M130 520 l0 -10 15 0 15 0 0 10 0 10 -15 0 -15 0 0 -10z"/>
<path d="M130 360 l0 -10 30 0 30 0 0 10 0 10 -30 0 -30 0 0 -10z"/>
<path d="M240 225 l0 -15 15 0 15 0 0 15 0 15 -15 0 -15 0 0 -15z"/>
<path d="M450 225 l0 -15 15 0 15 0 0 15 0 15 -15 0 -15 0 0 -15z"/>
<path d="M530 535 l0 -25 15 0 15 0 0 10 0 10 15 0 15 0 0 15 0 15 -30 0 -30
0 0 -25z"/>
<path d="M750 549 l0 -10 14 -15 15 -14 10 0 11 0 0 25 0 25 -25 0 -25 0 0
-11z"/>
<path d="M610 305 l0 -15 30 0 30 0 0 15 0 15 -30 0 -30 0 0 -15z"/>
<path d="M690 305 l0 -15 15 0 15 0 0 15 0 15 -15 0 -15 0 0 -15z"/>
<path d="M690 255 l0 -15 30 0 30 0 0 15 0 15 -30 0 -30 0 0 -15z"/>
<path d="M750 200 l0 -10 10 0 10 0 0 10 0 10 -10 0 -10 0 0 -10z"/>
<path d="M1040 895 l0 -95 -15 0 -15 0 0 -25 0 -25 15 0 15 0 0 25 0 25 15 0
15 0 0 -25 0 -25 10 0 10 0 0 25 0 25 15 0 15 0 0 -55 0 -55 15 0 15 0 0 70 0
70 -30 0 -30 0 0 -15 0 -15 -10 0 -10 0 0 55 0 55 25 0 25 0 0 10 0 10 25 0
25 0 0 15 0 15 -25 0 -25 0 0 15 0 15 -40 0 -40 0 0 -95z m80 50 l0 -15 -25 0
-25 0 0 15 0 15 25 0 25 0 0 -15z"/>
<path d="M320 880 l0 -80 -15 0 -15 0 0 -25 0 -25 15 0 15 0 0 25 0 25 15 0
15 0 0 -25 0 -25 10 0 10 0 0 25 0 25 15 0 15 0 0 -55 0 -55 15 0 15 0 0 70 0
70 -30 0 -30 0 0 -15 0 -15 -10 0 -10 0 0 40 0 40 25 0 25 0 0 15 0 15 25 0
25 0 0 10 0 10 -25 0 -25 0 0 15 0 15 -40 0 -40 0 0 -80z m80 40 l0 -10 -25 0
-25 0 0 10 0 10 25 0 25 0 0 -10z"/>
<path d="M510 895 l0 -15 -15 0 -15 0 0 -15 0 -15 15 0 15 0 0 15 0 15 25 0
25 0 0 -15 0 -15 15 0 15 0 0 15 0 15 25 0 25 0 0 -15 0 -15 15 0 15 0 0 15 0
15 25 0 25 0 0 -15 0 -15 15 0 15 0 0 15 0 15 25 0 25 0 0 -15 0 -15 15 0 15
0 0 15 0 15 -15 0 -15 0 0 15 0 15 -25 0 -25 0 0 -15 0 -15 -15 0 -15 0 0 15
0 15 -25 0 -25 0 0 -15 0 -15 -15 0 -15 0 0 15 0 15 -25 0 -25 0 0 -15 0 -15
-15 0 -15 0 0 15 0 15 -25 0 -25 0 0 -15z"/>
<path d="M190 855 l0 -25 10 0 10 0 0 25 0 25 -10 0 -10 0 0 -25z"/>
<path d="M450 815 l0 -15 30 0 30 0 0 15 0 15 -30 0 -30 0 0 -15z"/>
<path d="M530 815 l0 -15 30 0 30 0 0 15 0 15 -30 0 -30 0 0 -15z"/>
<path d="M610 815 l0 -15 30 0 30 0 0 15 0 15 -30 0 -30 0 0 -15z"/>
<path d="M690 815 l0 -15 30 0 30 0 0 15 0 15 -30 0 -30 0 0 -15z"/>
<path d="M770 815 l0 -15 30 0 30 0 0 15 0 15 -30 0 -30 0 0 -15z"/>
<path d="M320 570 l0 -40 15 0 15 0 0 40 0 40 -15 0 -15 0 0 -40z"/>
<path d="M1040 570 l0 -40 15 0 15 0 0 40 0 40 -15 0 -15 0 0 -40z"/>
<path d="M1150 440 l0 -10 10 0 10 0 0 10 0 10 -10 0 -10 0 0 -10z"/>
<path d="M880 255 l0 -15 15 0 15 0 0 -15 0 -15 10 0 10 0 0 15 0 15 -10 0
-10 0 0 15 0 15 -15 0 -15 0 0 -15z"/>
<path d="M1170 255 l0 -15 15 0 15 0 0 15 0 15 -15 0 -15 0 0 -15z"/>
<path d="M1040 200 l0 -10 25 0 25 0 0 10 0 10 -25 0 -25 0 0 -10z"/>
</g>
</svg>
