<?xml version="1.0" standalone="no"?>
<!DOCTYPE svg PUBLIC "-//W3C//DTD SVG 20010904//EN"
 "http://www.w3.org/TR/2001/REC-SVG-20010904/DTD/svg10.dtd">
<svg version="1.0" xmlns="http://www.w3.org/2000/svg"
 width="468pt" height="468pt" viewBox="0 0 468 468"
 preserveAspectRatio="xMidYMid meet">
<metadata>
Created by potrace 1.8, written by Peter Selinger 2001-2007
</metadata>
<g transform="translate(0,468) scale(0.365625,-0.365625)"
fill="#000000" stroke="none">
<path d="M660 1050 l0 -90 10 0 10 0 0 40 0 40 30 0 30 0 0 10 0 10 -30 0 -30
0 0 30 0 30 50 0 50 0 0 10 0 10 -60 0 -60 0 0 -90z"/>
<path d="M820 1130 l0 -10 30 0 30 0 0 -80 0 -80 10 0 10 0 0 80 0 80 30 0 30
0 0 10 0 10 -70 0 -70 0 0 -10z"/>
<path d="M1000 1050 l0 -90 10 0 10 0 0 40 0 40 46 0 45 0 15 14 14 15 0 21 0
21 -14 15 -15 14 -55 0 -56 0 0 -90z m120 40 l0 -30 -50 0 -50 0 0 30 0 30 50
0 50 0 0 -30z"/>
<path d="M267 1077 l-18 -22 -9 15 -10 15 -10 -15 -10 -15 -9 14 -9 14 -57
-58 -58 -57 14 -9 13 -8 -24 -21 -24 -21 14 -10 15 -9 -15 -10 -15 -10 15 -10
15 -10 -15 -10 -15 -10 15 -10 15 -10 -15 -9 -14 -10 24 -21 24 -21 -13 -8
-14 -9 48 -47 47 -48 9 14 8 13 21 -24 21 -24 10 14 9 15 10 -15 10 -15 10 15
10 15 10 -15 10 -15 10 15 10 15 9 -15 10 -14 21 24 21 24 8 -13 9 -14 57 58
58 57 -13 8 -13 8 18 19 18 18 5 -13 4 -12 29 0 29 0 0 -10 0 -10 20 0 20 0 0
-10 0 -10 30 0 30 0 0 -10 0 -10 20 0 20 0 0 -10 0 -10 -20 0 -20 0 0 -10 0
-10 -16 0 -15 0 -15 -14 -14 -15 0 -5 0 -6 20 0 20 0 0 -10 0 -10 20 0 20 0 0
-10 0 -10 25 0 26 0 26 -26 26 -26 -14 -9 -14 -9 15 -10 15 -10 -15 -9 -14
-10 24 -21 24 -21 -13 -8 -14 -9 48 -47 47 -48 9 14 8 13 21 -24 21 -24 10 14
9 15 10 -15 10 -15 10 15 10 15 9 -15 10 -14 21 24 21 24 8 -13 9 -14 47 48
48 47 -14 9 -13 8 24 21 24 21 -14 10 -15 9 15 10 15 10 -15 10 -15 10 15 9
14 10 -24 21 -24 21 13 8 14 9 -48 47 -47 48 -9 -14 -8 -13 -21 24 -21 24 -10
-14 -9 -15 -10 15 -10 15 -10 -15 -10 -15 -9 15 -10 14 -21 -24 -21 -24 -8 13
-9 14 -46 -47 -47 -46 16 -17 17 -16 9 14 9 14 9 -15 10 -14 8 7 7 8 -14 9
-14 9 7 8 8 7 10 -14 9 -15 10 15 10 15 10 -15 10 -15 9 15 10 14 8 -7 7 -8
-14 -10 -15 -9 15 -10 15 -10 -15 -9 -14 -10 7 -8 8 -7 9 14 9 14 8 -7 7 -8
-14 -9 -14 -9 7 -8 8 -7 9 14 9 14 8 -7 7 -8 -14 -10 -15 -9 15 -10 15 -10
-15 -10 -15 -10 15 -9 14 -10 -7 -8 -8 -7 -10 14 -9 15 -10 -15 -10 -15 -10
15 -10 15 -10 -15 -10 -15 -10 15 -10 15 -9 -15 -10 -14 -8 7 -7 8 14 9 14 9
-7 8 -8 7 -10 -14 -9 -15 -10 15 -10 15 -9 -15 -10 -14 -8 7 -7 8 14 10 15 9
-15 10 -15 10 15 10 15 10 -15 11 -15 11 13 5 12 5 0 9 0 9 -30 0 -30 0 0 10
0 10 -30 0 -30 0 0 10 0 10 -20 0 -20 0 0 6 0 5 14 15 15 14 15 0 16 0 0 10 0
10 20 0 20 0 0 10 0 10 -20 0 -20 0 0 10 0 10 -20 0 -20 0 0 10 0 10 -30 0
-30 0 0 10 0 10 -20 0 -20 0 0 10 0 10 -26 0 -26 0 -30 32 -30 32 -8 -14 -9
-14 -20 23 -20 23 -16 -16 -16 -16 26 -26 27 -27 8 13 8 13 17 -16 16 -17 -16
-16 -16 -16 -7 6 -6 7 14 9 14 9 -7 8 -8 7 -10 -14 -9 -15 -10 15 -10 15 -9
-15 -10 -14 -8 7 -7 8 14 9 14 9 -7 8 -8 7 -9 -14 -9 -14 -8 7 -7 8 14 9 14 9
-7 8 -8 7 -10 -14 -9 -15 -10 15 -10 15 -9 -15 -10 -14 -8 7 -7 8 14 10 15 9
-15 10 -15 10 15 10 15 10 -15 9 -14 10 7 8 8 7 10 -14 9 -15 10 15 10 15 10
-15 10 -15 9 15 10 14 8 -7 7 -8 -14 -9 -14 -9 7 -8 8 -7 10 14 9 15 10 -15
10 -15 9 15 10 14 8 -7 7 -8 -14 -9 -14 -9 7 -8 8 -7 9 14 9 14 21 -23 20 -24
7 7 7 7 -14 10 -15 9 15 9 14 10 -24 21 -24 21 13 8 14 9 -68 67 -67 68 -9
-14 -8 -13 -21 24 -21 24 -10 -14 -11 -15 -5 13 -5 12 -6 0 -7 0 -18 -23z m36
-9 l5 -13 11 15 10 14 21 -24 21 -24 8 13 9 14 57 -58 58 -57 -14 -9 -13 -8
23 -21 24 -20 -6 -7 -7 -6 -20 24 -21 23 -9 -14 -9 -14 -21 24 -21 24 -10 -14
-9 -15 -10 15 -10 15 -10 -15 -10 -15 -9 14 -9 14 -18 -17 -17 -18 14 -9 14
-9 -15 -10 -15 -10 15 -10 15 -10 -14 -9 -14 -9 17 -18 18 -17 8 13 8 14 32
-34 32 -34 8 14 9 14 21 -24 21 -24 9 14 9 14 6 -6 7 -7 -47 -47 -47 -47 -9
14 -8 13 -21 -24 -21 -24 -10 14 -9 15 -10 -15 -10 -15 -10 15 -10 15 -10 -15
-10 -15 -10 15 -10 15 -9 -15 -10 -14 -21 24 -21 24 -9 -13 -8 -14 -37 38 -38
37 14 8 13 9 -24 21 -24 21 14 10 15 9 -15 10 -15 10 15 10 15 10 -15 10 -15
10 15 10 15 10 -15 9 -14 10 24 21 24 21 -13 8 -14 9 48 47 47 48 9 -14 9 -14
10 15 10 15 10 -15 9 -15 18 22 18 23 7 0 6 0 5 -12z m680 -360 l5 -13 11 15
11 15 10 -15 10 -15 9 15 10 14 21 -24 21 -24 9 13 8 14 37 -38 38 -37 -14 -8
-13 -9 24 -21 24 -21 -14 -10 -15 -9 15 -10 15 -10 -15 -10 -15 -10 15 -9 14
-10 -24 -21 -24 -21 13 -9 14 -8 -38 -37 -37 -38 -8 14 -9 13 -21 -24 -21 -24
-10 14 -9 15 -10 -15 -10 -15 -10 15 -10 15 -9 -15 -10 -14 -21 24 -21 24 -9
-13 -8 -14 -37 38 -38 37 14 9 14 9 -15 9 -14 10 7 7 7 7 20 -24 21 -23 10 14
9 15 10 -15 10 -15 10 15 10 15 10 -15 10 -15 10 15 10 15 9 -14 9 -14 18 17
17 18 -14 9 -14 9 15 10 15 10 -15 10 -15 10 14 9 15 9 -34 32 -34 32 14 8 13
8 -17 18 -18 17 -9 -14 -9 -14 -10 15 -10 15 -10 -15 -10 -15 -9 15 -10 14
-21 -23 -20 -24 -6 6 -6 6 37 37 37 37 9 -14 8 -14 18 22 18 23 7 0 6 0 5 -12z"/>
<path d="M267 1037 l-18 -22 -9 15 -10 15 -10 -15 -10 -15 -9 14 -9 14 -37
-38 -38 -37 14 -8 13 -9 -24 -21 -24 -21 14 -10 15 -9 -15 -10 -15 -10 15 -10
15 -10 -15 -10 -15 -10 15 -10 15 -10 -15 -9 -14 -10 24 -21 24 -21 -13 -9
-14 -8 28 -27 27 -28 8 14 9 13 21 -24 21 -24 10 14 9 15 10 -15 10 -15 10 15
10 15 10 -15 10 -15 10 15 10 15 9 -15 10 -14 21 24 21 24 9 -13 8 -14 27 27
26 26 -16 17 -17 16 -8 -13 -8 -14 -32 34 -32 34 -8 -14 -8 -13 -27 28 -28 27
14 9 14 9 -15 10 -15 10 15 10 15 10 -14 9 -14 9 28 27 27 28 9 -14 9 -14 10
15 10 15 10 -15 10 -15 9 15 10 14 20 -23 20 -23 16 16 16 16 -47 46 -46 47
-9 -14 -8 -13 -21 24 -21 24 -10 -14 -11 -15 -5 13 -5 12 -6 0 -7 0 -18 -23z
m36 -9 l5 -13 11 15 10 14 21 -24 21 -24 9 13 8 14 37 -37 37 -37 -6 -6 -6 -6
-20 24 -21 23 -10 -14 -9 -15 -10 15 -10 15 -10 -15 -10 -15 -9 14 -9 14 -37
-38 -38 -37 14 -9 14 -9 -15 -10 -15 -10 15 -10 15 -10 -14 -9 -14 -9 38 -37
37 -38 8 13 8 14 32 -34 32 -34 8 14 9 14 7 -6 6 -7 -17 -17 -17 -17 -8 14 -9
13 -21 -24 -21 -24 -10 14 -9 15 -10 -15 -10 -15 -10 15 -10 15 -10 -15 -10
-15 -10 15 -10 15 -9 -15 -10 -14 -21 24 -21 24 -9 -13 -8 -14 -18 17 -17 18
14 8 13 9 -24 21 -24 21 14 10 15 9 -15 10 -15 10 15 10 15 10 -15 10 -15 10
15 10 15 10 -15 9 -14 10 24 21 24 21 -13 9 -14 8 28 27 27 28 9 -14 9 -14 10
15 10 15 10 -15 9 -15 18 22 18 23 7 0 6 0 5 -12z"/>
<path d="M267 997 l-18 -22 -9 15 -10 15 -10 -15 -10 -15 -9 14 -9 14 -18 -17
-17 -18 14 -8 13 -9 -24 -21 -24 -21 14 -10 15 -9 -15 -10 -15 -10 15 -10 15
-10 -15 -10 -15 -10 15 -10 15 -10 -15 -9 -14 -10 24 -21 24 -21 -14 -9 -14
-9 7 -8 8 -7 9 14 9 14 21 -24 21 -24 10 14 9 15 10 -15 10 -15 10 15 10 15
10 -15 10 -15 10 15 10 15 9 -14 9 -14 17 16 16 17 -16 17 -17 16 -8 -13 -8
-13 -47 48 -48 47 14 9 14 9 -15 10 -15 10 15 10 15 10 -14 9 -14 9 48 47 47
48 9 -14 8 -13 7 6 6 7 -17 17 -17 17 -10 -14 -10 -14 -5 13 -5 12 -6 0 -7 0
-18 -23z m33 -3 l0 -6 -42 -40 -41 -40 14 -9 14 -9 -15 -10 -15 -10 15 -10 15
-10 -14 -9 -14 -9 53 -52 52 -51 -6 -7 -7 -6 -10 14 -9 15 -10 -15 -10 -15
-10 15 -10 15 -9 -14 -9 -14 -37 38 -38 37 14 9 14 9 -15 10 -15 10 15 10 15
10 -15 10 -15 10 15 10 15 10 -15 9 -14 10 24 21 24 21 -14 9 -14 9 7 8 8 7
10 -14 9 -15 10 15 10 15 10 -15 9 -15 18 22 18 23 8 0 7 0 0 -6z m60 -264 l0
-10 -10 0 -10 0 0 10 0 10 10 0 10 0 0 -10z"/>
<path d="M201 933 l-24 -25 14 -9 14 -9 -15 -10 -15 -10 15 -10 15 -10 -15
-10 -15 -10 15 -10 15 -10 -14 -9 -14 -9 28 -27 27 -28 9 14 9 14 9 -15 10
-14 7 6 6 7 -42 41 -43 42 14 9 14 9 -15 10 -15 10 15 10 15 10 -15 9 -14 10
22 19 22 19 0 7 0 6 -7 -1 -8 0 -24 -26z m26 -148 l15 -16 -5 -6 -6 -5 -16 15
-15 16 0 5 0 6 6 0 5 0 16 -15z"/>
<path d="M380 990 l0 -10 10 0 10 0 0 10 0 10 -10 0 -10 0 0 -10z"/>
<path d="M951 684 l-13 -15 7 -7 6 -6 9 13 8 14 27 -28 28 -27 -13 -8 -14 -8
34 -32 34 -32 -15 -9 -14 -9 15 -10 15 -10 -15 -10 -15 -10 14 -9 14 -9 -28
-27 -27 -28 -9 14 -9 14 -10 -15 -10 -15 -10 15 -10 15 -10 -15 -10 -15 -10
15 -10 15 -10 -15 -10 -15 -9 15 -10 14 -7 -6 -6 -7 27 -27 27 -27 8 14 9 13
21 -24 21 -24 10 14 9 15 10 -15 10 -15 10 15 10 15 9 -15 10 -14 21 24 21 24
9 -13 8 -14 27 28 28 27 -14 8 -13 9 24 21 24 21 -14 10 -15 9 15 10 15 10
-15 10 -15 10 15 9 14 10 -24 21 -24 21 13 9 14 8 -28 27 -27 28 -8 -14 -9
-13 -21 24 -21 24 -10 -14 -9 -15 -10 15 -10 15 -11 -15 -11 -15 -5 13 -5 12
-6 0 -7 -1 -14 -15z m72 -16 l5 -13 11 15 10 14 21 -24 21 -24 9 13 8 14 18
-17 17 -18 -14 -8 -13 -9 24 -21 24 -21 -14 -10 -15 -9 15 -10 15 -10 -15 -10
-15 -10 15 -9 14 -10 -24 -21 -24 -21 13 -9 14 -8 -17 -18 -18 -17 -8 14 -9
13 -21 -24 -21 -24 -10 14 -9 15 -10 -15 -10 -15 -10 15 -10 15 -9 -14 -9 -14
-17 17 -17 17 6 7 7 6 10 -14 9 -15 10 15 10 15 9 -14 9 -14 37 38 38 37 -14
9 -14 9 15 10 15 10 -15 10 -15 10 14 9 15 9 -34 32 -34 32 14 8 14 9 -22 19
-22 19 0 7 0 6 9 0 9 0 5 -12z m-103 -258 l0 -10 -10 0 -10 0 0 10 0 10 10 0
10 0 0 -10z"/>
<path d="M1040 651 l0 -9 13 -5 12 -5 -14 -10 -15 -10 34 -32 34 -32 -15 -9
-14 -9 15 -10 15 -10 -15 -10 -15 -10 14 -9 15 -9 -34 -32 -33 -31 7 -6 6 -6
20 24 21 23 9 -14 9 -14 8 7 7 8 -14 9 -14 9 24 21 24 21 -14 10 -15 9 15 10
15 10 -15 10 -15 10 15 9 14 10 -24 21 -24 21 14 9 14 9 -7 8 -8 7 -9 -14 -9
-14 -19 22 -19 22 -7 0 -6 0 0 -9z m57 -57 l25 -25 -5 -6 -6 -5 -25 25 -26 26
0 6 0 5 5 0 6 0 26 -26z m23 -64 l0 -10 -10 0 -10 0 0 10 0 10 10 0 10 0 0
-10z m0 -40 l0 -10 -10 0 -10 0 0 10 0 10 10 0 10 0 0 -10z"/>
<path d="M900 670 l0 -10 10 0 10 0 0 10 0 10 -10 0 -10 0 0 -10z"/>
<path d="M352 884 l-13 -14 15 -16 16 -15 16 15 15 16 -15 15 -15 15 -3 0 -3
-1 -13 -15z"/>
<path d="M907 597 l-18 -22 -8 14 -9 14 -18 -17 -17 -18 14 -9 14 -9 -14 -9
-14 -9 17 -18 18 -17 8 14 9 13 21 -24 21 -24 10 14 9 15 9 -14 9 -14 17 17
17 16 -33 31 -33 31 14 8 13 8 -16 16 -16 16 -3 0 -3 0 -18 -23z"/>
<path d="M0 100 l0 -100 640 0 640 0 0 100 0 100 -640 0 -640 0 0 -100z"/>
</g>
</svg>
