<?xml version="1.0" standalone="no"?>
<!DOCTYPE svg PUBLIC "-//W3C//DTD SVG 20010904//EN"
 "http://www.w3.org/TR/2001/REC-SVG-20010904/DTD/svg10.dtd">
<svg version="1.0" xmlns="http://www.w3.org/2000/svg"
 width="468pt" height="468pt" viewBox="0 0 468 468"
 preserveAspectRatio="xMidYMid meet">
<metadata>
Created by potrace 1.8, written by Peter Selinger 2001-2007
</metadata>
<g transform="translate(0,468) scale(0.365625,-0.365625)"
fill="#000000" stroke="none">
<path d="M993 1185 l-33 -34 0 -21 0 -21 35 -34 34 -35 26 0 25 0 0 10 0 10
16 0 15 0 15 14 14 15 0 31 0 31 -35 34 -34 35 -23 -1 -23 0 -32 -34z m67 -15
l0 -10 -10 0 -10 0 0 10 0 10 10 0 10 0 0 -10z m40 -16 l0 -5 -15 -16 -16 -15
-5 5 -6 6 13 15 14 15 8 1 7 0 0 -6z m-53 -49 l15 -16 -5 -6 -6 -5 -16 15 -15
16 0 5 0 6 6 0 5 0 16 -15z m73 5 l0 -10 -10 0 -10 0 0 10 0 10 10 0 10 0 0
-10z"/>
<path d="M133 1085 l-33 -34 0 -21 0 -21 35 -34 34 -35 26 0 25 0 0 10 0 10
16 0 15 0 15 14 14 15 0 31 0 31 -35 34 -34 35 -23 -1 -23 0 -32 -34z m67 -15
l0 -10 -10 0 -10 0 0 10 0 10 10 0 10 0 0 -10z m40 -16 l0 -5 -15 -16 -16 -15
-5 5 -6 6 13 15 14 15 8 1 7 0 0 -6z m-53 -49 l15 -16 -5 -6 -6 -5 -16 15 -15
16 0 5 0 6 6 0 5 0 16 -15z m73 5 l0 -10 -10 0 -10 0 0 10 0 10 10 0 10 0 0
-10z"/>
<path d="M703 915 l-23 -24 0 -31 0 -31 35 -34 34 -35 26 0 25 0 0 10 0 10 16
0 15 0 15 14 14 15 0 31 0 31 -35 34 -34 35 -33 -1 -33 0 -22 -24z m77 -25 l0
-10 -10 0 -10 0 0 10 0 10 10 0 10 0 0 -10z m40 -16 l0 -5 -15 -16 -16 -15 -5
5 -6 6 13 15 14 15 8 1 7 0 0 -6z m-53 -49 l15 -16 -5 -6 -6 -5 -16 15 -15 16
0 5 0 6 6 0 5 0 16 -15z m73 5 l0 -10 -10 0 -10 0 0 10 0 10 10 0 10 0 0 -10z"/>
<path d="M553 805 l-33 -34 0 -21 0 -21 35 -34 34 -35 26 0 25 0 0 10 0 10 20
0 20 0 0 19 0 19 -12 5 -13 4 9 9 9 9 4 -12 5 -13 9 0 9 0 0 25 0 26 -35 34
-34 35 -23 -1 -23 0 -32 -34z m67 -15 l0 -10 -10 0 -10 0 0 10 0 10 10 0 10 0
0 -10z m40 -16 l0 -5 -15 -16 -16 -15 -5 5 -6 6 13 15 14 15 8 1 7 0 0 -6z
m-53 -49 l15 -16 -5 -6 -6 -5 -16 15 -15 16 0 5 0 6 6 0 5 0 16 -15z"/>
<path d="M1033 705 l-33 -34 0 -21 0 -21 35 -34 34 -35 26 0 25 0 0 10 0 10
16 0 15 0 15 14 14 15 0 31 0 31 -35 34 -34 35 -23 -1 -23 0 -32 -34z m67 -15
l0 -10 -10 0 -10 0 0 10 0 10 10 0 10 0 0 -10z m40 -16 l0 -5 -15 -16 -16 -15
-5 5 -6 6 13 15 14 15 8 1 7 0 0 -6z m-53 -49 l15 -16 -5 -6 -6 -5 -16 15 -15
16 0 5 0 6 6 0 5 0 16 -15z m73 5 l0 -10 -10 0 -10 0 0 10 0 10 10 0 10 0 0
-10z"/>
<path d="M173 685 l-33 -34 0 -21 0 -21 35 -34 34 -35 26 0 25 0 0 10 0 10 20
0 20 0 0 19 0 19 -12 5 -13 4 9 9 9 9 4 -12 5 -13 9 0 9 0 0 25 0 26 -35 34
-34 35 -23 -1 -23 0 -32 -34z m67 -15 l0 -10 -10 0 -10 0 0 10 0 10 10 0 10 0
0 -10z m40 -16 l0 -5 -15 -16 -16 -15 -5 5 -6 6 13 15 14 15 8 1 7 0 0 -6z
m-53 -49 l15 -16 -5 -6 -6 -5 -16 15 -15 16 0 5 0 6 6 0 5 0 16 -15z"/>
<path d="M553 505 l-33 -34 0 -26 0 -25 10 0 10 0 0 -20 0 -20 20 0 20 0 0
-10 0 -10 25 0 26 0 34 35 35 34 0 21 0 21 -35 34 -34 35 -23 -1 -23 0 -32
-34z m67 -15 l0 -10 -10 0 -10 0 0 10 0 10 10 0 10 0 0 -10z m40 -16 l0 -5
-15 -16 -16 -15 -5 5 -6 6 13 15 14 15 8 1 7 0 0 -6z m-53 -49 l15 -16 -5 -6
-6 -5 -16 15 -15 16 0 5 0 6 6 0 5 0 16 -15z m73 5 l0 -10 -10 0 -10 0 0 10 0
10 10 0 10 0 0 -10z"/>
<path d="M873 445 l-33 -34 0 -21 0 -21 35 -34 34 -35 21 0 21 0 34 35 35 34
0 21 0 21 -35 34 -34 35 -23 -1 -23 0 -32 -34z m67 -15 l0 -10 -10 0 -10 0 0
10 0 10 10 0 10 0 0 -10z m40 -16 l0 -5 -15 -16 -16 -15 -5 5 -6 6 13 15 14
15 8 1 7 0 0 -6z m-53 -49 l15 -16 -5 -6 -6 -5 -16 15 -15 16 0 5 0 6 6 0 5 0
16 -15z m73 5 l0 -10 -10 0 -10 0 0 10 0 10 10 0 10 0 0 -10z"/>
<path d="M0 100 l0 -100 640 0 640 0 0 100 0 100 -640 0 -640 0 0 -100z"/>
</g>
</svg>
