<?xml version="1.0" standalone="no"?>
<!DOCTYPE svg PUBLIC "-//W3C//DTD SVG 20010904//EN"
 "http://www.w3.org/TR/2001/REC-SVG-20010904/DTD/svg10.dtd">
<svg version="1.0" xmlns="http://www.w3.org/2000/svg"
 width="468pt" height="468pt" viewBox="0 0 468 468"
 preserveAspectRatio="xMidYMid meet">
<metadata>
Created by potrace 1.8, written by Peter Selinger 2001-2007
</metadata>
<g transform="translate(0,468) scale(0.365625,-0.365625)"
fill="#000000" stroke="none">
<path d="M450 1250 l0 -30 -30 0 -30 0 0 -25 0 -25 -30 0 -30 0 0 -30 0 -30
-25 0 -25 0 0 -25 0 -25 -30 0 -30 0 0 -85 0 -85 30 0 30 0 0 -30 0 -30 -55 0
-55 0 0 -25 0 -25 -30 0 -30 0 0 -30 0 -30 -25 0 -25 0 0 -55 0 -55 25 0 25 0
0 -25 0 -25 30 0 30 0 0 -30 0 -30 -30 0 -30 0 0 -110 0 -110 -25 0 -25 0 0
-30 0 -30 -30 0 -30 0 0 -80 0 -80 30 0 30 0 0 -30 0 -30 135 0 135 0 0 30 0
30 60 0 60 0 0 -30 0 -30 110 0 110 0 0 55 0 55 25 0 25 0 0 -25 0 -25 30 0
30 0 0 -30 0 -30 55 0 55 0 0 30 0 30 30 0 30 0 0 -30 0 -30 25 0 25 0 0 30 0
30 30 0 30 0 0 -30 0 -30 55 0 55 0 0 30 0 30 25 0 25 0 0 25 0 25 30 0 30 0
0 85 0 85 -30 0 -30 0 0 25 0 25 -25 0 -25 0 0 60 0 60 25 0 25 0 0 80 0 80
30 0 30 0 0 55 0 55 -30 0 -30 0 0 30 0 30 -25 0 -25 0 0 25 0 25 -55 0 -55 0
0 30 0 30 -55 0 -55 0 0 30 0 30 25 0 25 0 0 55 0 55 -25 0 -25 0 0 25 0 25
-85 0 -85 0 0 -25 0 -25 -30 0 -30 0 0 55 0 55 -25 0 -25 0 0 25 0 25 -55 0
-55 0 0 30 0 30 -55 0 -55 0 0 -30z m110 -55 l0 -25 25 0 25 0 0 -30 0 -30
-55 0 -55 0 0 -25 0 -25 -25 0 -25 0 0 55 0 55 25 0 25 0 0 25 0 25 30 0 30 0
0 -25z m-170 -140 l0 -55 30 0 30 0 0 -25 0 -25 25 0 25 0 0 25 0 25 30 0 30
0 0 30 0 30 25 0 25 0 0 -30 0 -30 30 0 30 0 0 30 0 30 25 0 25 0 0 -30 0 -30
55 0 55 0 0 30 0 30 60 0 60 0 0 -55 0 -55 -30 0 -30 0 0 -30 0 -30 -30 0 -30
0 0 30 0 30 -25 0 -25 0 0 -60 0 -60 25 0 25 0 0 -25 0 -25 30 0 30 0 0 25 0
25 30 0 30 0 0 -25 0 -25 25 0 25 0 0 25 0 25 30 0 30 0 0 -25 0 -25 25 0 25
0 0 -30 0 -30 55 0 55 0 0 -55 0 -55 -25 0 -25 0 0 -25 0 -25 -30 0 -30 0 0
-30 0 -30 -25 0 -25 0 0 -25 0 -25 -85 0 -85 0 0 -60 0 -60 30 0 30 0 0 30 0
30 25 0 25 0 0 -30 0 -30 30 0 30 0 0 -25 0 -25 25 0 25 0 0 25 0 25 30 0 30
0 0 -25 0 -25 -30 0 -30 0 0 -55 0 -55 30 0 30 0 0 -30 0 -30 -30 0 -30 0 0
-25 0 -25 -25 0 -25 0 0 25 0 25 -30 0 -30 0 0 -25 0 -25 -25 0 -25 0 0 25 0
25 -30 0 -30 0 0 -25 0 -25 -55 0 -55 0 0 25 0 25 -30 0 -30 0 0 30 0 30 30 0
30 0 0 25 0 25 -55 0 -55 0 0 30 0 30 -30 0 -30 0 0 -55 0 -55 -25 0 -25 0 0
-55 0 -55 -55 0 -55 0 0 25 0 25 -60 0 -60 0 0 -25 0 -25 -25 0 -25 0 0 25 0
25 -30 0 -30 0 0 -25 0 -25 -25 0 -25 0 0 25 0 25 -30 0 -30 0 0 -25 0 -25
-25 0 -25 0 0 25 0 25 25 0 25 0 0 30 0 30 -25 0 -25 0 0 25 0 25 25 0 25 0 0
-25 0 -25 30 0 30 0 0 25 0 25 25 0 25 0 0 -25 0 -25 30 0 30 0 0 55 0 55 -30
0 -30 0 0 25 0 25 -25 0 -25 0 0 30 0 30 25 0 25 0 0 30 0 30 -25 0 -25 0 0
25 0 25 25 0 25 0 0 -25 0 -25 30 0 30 0 0 55 0 55 25 0 25 0 0 25 0 25 -25 0
-25 0 0 30 0 30 -30 0 -30 0 0 -30 0 -30 -25 0 -25 0 0 30 0 30 -30 0 -30 0 0
25 0 25 30 0 30 0 0 30 0 30 25 0 25 0 0 -30 0 -30 30 0 30 0 0 30 0 30 25 0
25 0 0 25 0 25 30 0 30 0 0 30 0 30 -30 0 -30 0 0 30 0 30 -25 0 -25 0 0 55 0
55 25 0 25 0 0 25 0 25 30 0 30 0 0 -55z"/>
<path d="M330 975 l0 -25 30 0 30 0 0 -30 0 -30 30 0 30 0 0 -30 0 -30 25 0
25 0 0 -25 0 -25 -55 0 -55 0 0 -30 0 -30 -30 0 -30 0 0 -55 0 -55 30 0 30 0
0 -25 0 -25 -30 0 -30 0 0 -55 0 -55 -25 0 -25 0 0 -30 0 -30 -30 0 -30 0 0
-30 0 -30 30 0 30 0 0 -25 0 -25 25 0 25 0 0 -30 0 -30 30 0 30 0 0 -25 0 -25
30 0 30 0 0 -30 0 -30 25 0 25 0 0 30 0 30 30 0 30 0 0 25 0 25 -30 0 -30 0 0
30 0 30 -25 0 -25 0 0 -30 0 -30 -30 0 -30 0 0 30 0 30 -30 0 -30 0 0 25 0 25
30 0 30 0 0 30 0 30 -30 0 -30 0 0 30 0 30 30 0 30 0 0 25 0 25 30 0 30 0 0
-25 0 -25 25 0 25 0 0 25 0 25 -25 0 -25 0 0 30 0 30 55 0 55 0 0 25 0 25 25
0 25 0 0 55 0 55 30 0 30 0 0 -25 0 -25 25 0 25 0 0 -30 0 -30 30 0 30 0 0 30
0 30 -30 0 -30 0 0 25 0 25 -25 0 -25 0 0 30 0 30 55 0 55 0 0 -30 0 -30 25 0
25 0 0 -25 0 -25 30 0 30 0 0 25 0 25 30 0 30 0 0 -55 0 -55 25 0 25 0 0 55 0
55 30 0 30 0 0 -25 0 -25 25 0 25 0 0 -30 0 -30 -25 0 -25 0 0 -25 0 -25 25 0
25 0 0 25 0 25 30 0 30 0 0 30 0 30 -30 0 -30 0 0 25 0 25 -25 0 -25 0 0 30 0
30 -30 0 -30 0 0 -30 0 -30 -25 0 -25 0 0 30 0 30 -30 0 -30 0 0 -30 0 -30
-30 0 -30 0 0 30 0 30 -25 0 -25 0 0 25 0 25 -55 0 -55 0 0 -25 0 -25 -30 0
-30 0 0 -30 0 -30 -25 0 -25 0 0 55 0 55 -30 0 -30 0 0 30 0 30 30 0 30 0 0
30 0 30 25 0 25 0 0 -30 0 -30 30 0 30 0 0 30 0 30 25 0 25 0 0 25 0 25 -25 0
-25 0 0 -25 0 -25 -30 0 -30 0 0 25 0 25 -25 0 -25 0 0 -25 0 -25 -30 0 -30 0
0 -30 0 -30 -25 0 -25 0 0 30 0 30 -30 0 -30 0 0 25 0 25 -30 0 -30 0 0 -25z
m170 -280 l0 -25 30 0 30 0 0 -30 0 -30 -30 0 -30 0 0 30 0 30 -25 0 -25 0 0
-30 0 -30 -30 0 -30 0 0 30 0 30 30 0 30 0 0 25 0 25 25 0 25 0 0 -25z m-170
-335 l0 -30 -25 0 -25 0 0 30 0 30 25 0 25 0 0 -30z m170 -165 l0 -25 -25 0
-25 0 0 25 0 25 25 0 25 0 0 -25z"/>
<path d="M830 975 l0 -25 30 0 30 0 0 25 0 25 -30 0 -30 0 0 -25z"/>
<path d="M170 695 l0 -25 25 0 25 0 0 25 0 25 -25 0 -25 0 0 -25z"/>
<path d="M830 585 l0 -25 30 0 30 0 0 25 0 25 -30 0 -30 0 0 -25z"/>
<path d="M610 530 l0 -30 -25 0 -25 0 0 -55 0 -55 25 0 25 0 0 55 0 55 30 0
30 0 0 -25 0 -25 25 0 25 0 0 25 0 25 30 0 30 0 0 -25 0 -25 25 0 25 0 0 25 0
25 -25 0 -25 0 0 30 0 30 -85 0 -85 0 0 -30z"/>
<path d="M950 530 l0 -30 25 0 25 0 0 30 0 30 -25 0 -25 0 0 -30z"/>
<path d="M450 360 l0 -30 25 0 25 0 0 30 0 30 -25 0 -25 0 0 -30z"/>
<path d="M780 360 l0 -30 -30 0 -30 0 0 -25 0 -25 30 0 30 0 0 -30 0 -30 55 0
55 0 0 -25 0 -25 -55 0 -55 0 0 -30 0 -30 55 0 55 0 0 30 0 30 30 0 30 0 0 25
0 25 25 0 25 0 0 -25 0 -25 30 0 30 0 0 -30 0 -30 25 0 25 0 0 30 0 30 -25 0
-25 0 0 55 0 55 -30 0 -30 0 0 25 0 25 -25 0 -25 0 0 -55 0 -55 -30 0 -30 0 0
30 0 30 -55 0 -55 0 0 25 0 25 25 0 25 0 0 30 0 30 -25 0 -25 0 0 -30z"/>
<path d="M170 140 l0 -30 25 0 25 0 0 30 0 30 -25 0 -25 0 0 -30z"/>
<path d="M280 140 l0 -30 25 0 25 0 0 30 0 30 -25 0 -25 0 0 -30z"/>
</g>
</svg>
