<?xml version="1.0" standalone="no"?>
<!DOCTYPE svg PUBLIC "-//W3C//DTD SVG 20010904//EN"
 "http://www.w3.org/TR/2001/REC-SVG-20010904/DTD/svg10.dtd">
<svg version="1.0" xmlns="http://www.w3.org/2000/svg"
 width="468pt" height="468pt" viewBox="0 0 468 468"
 preserveAspectRatio="xMidYMid meet">
<metadata>
Created by potrace 1.8, written by Peter Selinger 2001-2007
</metadata>
<g transform="translate(0,468) scale(0.365625,-0.365625)"
fill="#000000" stroke="none">
<path d="M400 1265 l0 -15 -80 0 -80 0 0 -10 0 -10 -105 0 -105 0 0 -80 0 -80
-15 0 -15 0 0 -520 0 -520 240 0 240 0 0 -15 0 -15 160 0 160 0 0 15 0 15 225
0 225 0 0 520 0 520 -10 0 -10 0 0 80 0 80 -95 0 -95 0 0 10 0 10 -80 0 -80 0
0 15 0 15 -65 0 -65 0 0 -15 0 -15 -26 0 -25 0 -15 -14 -14 -15 0 -10 0 -11
-40 0 -40 0 0 15 0 15 -15 0 -15 0 0 10 0 10 -25 0 -25 0 0 15 0 15 -55 0 -55
0 0 -15z m110 -25 l0 -10 25 0 25 0 0 -15 0 -15 15 0 15 0 0 -15 0 -15 10 0
10 0 0 -490 0 -490 -10 0 -10 0 0 -15 0 -15 10 0 10 0 0 -14 0 -14 -12 -6 -13
-6 13 -6 12 -6 0 -14 0 -14 -10 0 -10 0 0 -15 0 -15 -15 0 -15 0 0 15 0 15
-15 0 -15 0 0 11 0 10 -14 15 -15 14 -10 0 -11 0 0 -10 0 -10 -14 0 -14 0 -6
13 -6 12 -6 -12 -6 -13 -14 0 -14 0 0 10 0 10 -14 0 -14 0 -6 -12 -6 -13 -6
13 -6 12 -14 0 -14 0 0 -10 0 -10 -14 0 -14 0 -6 13 -6 12 -6 -12 -6 -13 -14
0 -14 0 0 -15 0 -15 -15 0 -15 0 0 15 0 15 15 0 15 0 0 10 0 10 -15 0 -15 0 0
15 0 15 -10 0 -10 0 0 -15 0 -15 -15 0 -15 0 0 -10 0 -10 15 0 15 0 0 -15 0
-15 -15 0 -15 0 0 15 0 15 -15 0 -15 0 0 -15 0 -15 -10 0 -10 0 0 15 0 15 -15
0 -15 0 0 -15 0 -15 -15 0 -15 0 0 14 0 14 -12 6 -13 6 13 6 12 6 0 14 0 14
-10 0 -10 0 0 15 0 15 10 0 10 0 0 -15 0 -15 15 0 15 0 0 15 0 15 15 0 15 0 0
-15 0 -15 10 0 10 0 0 15 0 15 15 0 15 0 0 -15 0 -15 15 0 15 0 0 15 0 15 10
0 10 0 0 10 0 10 -80 0 -80 0 0 495 0 495 95 0 95 0 0 15 0 15 80 0 80 0 0 10
0 10 55 0 55 0 0 -10z m370 0 l0 -10 80 0 80 0 0 -15 0 -15 80 0 80 0 0 -495
0 -495 -80 0 -80 0 0 15 0 15 -95 0 -95 0 0 -15 0 -15 15 0 15 0 0 -10 0 -10
14 0 14 0 6 13 6 12 6 -12 6 -13 14 0 14 0 0 10 0 10 14 0 14 0 6 -12 6 -13 6
13 6 12 14 0 14 0 0 -10 0 -10 15 0 15 0 0 -15 0 -15 10 0 10 0 0 15 0 15 15
0 15 0 0 -15 0 -15 15 0 15 0 0 15 0 15 10 0 10 0 0 -15 0 -15 15 0 15 0 0 15
0 15 15 0 15 0 0 -15 0 -15 -15 0 -15 0 0 -15 0 -15 15 0 15 0 0 -10 0 -10
-15 0 -15 0 0 -15 0 -15 -15 0 -15 0 0 15 0 15 15 0 15 0 0 10 0 10 -15 0 -15
0 0 15 0 15 -10 0 -10 0 0 -15 0 -15 -15 0 -15 0 0 -10 0 -10 15 0 15 0 0 -15
0 -15 -15 0 -15 0 0 15 0 15 -15 0 -15 0 0 -15 0 -15 -10 0 -10 0 0 15 0 15
-15 0 -15 0 0 -15 0 -15 -15 0 -15 0 0 15 0 15 15 0 15 0 0 10 0 10 -15 0 -15
0 0 15 0 15 -10 0 -10 0 0 -15 0 -15 -15 0 -15 0 0 -10 0 -10 15 0 15 0 0 -15
0 -15 -15 0 -15 0 0 15 0 15 -14 0 -14 0 -6 13 -6 12 -6 -12 -6 -13 -14 0 -14
0 0 10 0 10 -14 0 -14 0 -6 -12 -6 -13 -6 13 -6 12 -14 0 -14 0 0 -10 0 -10
-14 0 -14 0 -6 13 -6 12 -6 -12 -6 -13 -14 0 -14 0 0 -15 0 -15 -15 0 -15 0 0
-15 0 -15 -10 0 -10 0 0 15 0 15 -15 0 -15 0 0 15 0 15 15 0 15 0 0 -15 0 -15
10 0 10 0 0 15 0 15 15 0 15 0 0 10 0 10 -15 0 -15 0 0 15 0 15 -10 0 -10 0 0
-15 0 -15 -15 0 -15 0 0 15 0 15 15 0 15 0 0 11 0 10 14 15 15 14 10 0 11 0 0
-10 0 -10 11 0 10 0 15 14 14 15 0 10 0 11 15 0 15 0 0 -15 0 -15 15 0 15 0 0
15 0 15 10 0 10 0 0 15 0 15 -50 0 -50 0 0 -15 0 -15 -30 0 -30 0 0 -11 0 -10
-14 -15 -15 -14 -10 0 -11 0 0 490 0 490 15 0 15 0 0 15 0 15 10 0 10 0 0 15
0 15 30 0 30 0 0 10 0 10 65 0 65 0 0 -10z m-670 -1120 l0 -10 -10 0 -10 0 0
10 0 10 10 0 10 0 0 -10z m480 0 l0 -10 -10 0 -10 0 0 10 0 10 10 0 10 0 0
-10z m320 0 l0 -10 -10 0 -10 0 0 10 0 10 10 0 10 0 0 -10z m160 0 l0 -10 -10
0 -10 0 0 10 0 10 10 0 10 0 0 -10z"/>
<path d="M400 1135 l0 -15 -65 0 -65 0 0 -15 0 -15 -80 0 -80 0 0 -10 0 -10
80 0 80 0 0 10 0 10 65 0 65 0 0 15 0 15 40 0 40 0 0 -15 0 -15 25 0 25 0 0
15 0 15 -25 0 -25 0 0 15 0 15 -40 0 -40 0 0 -15z"/>
<path d="M400 1055 l0 -15 -65 0 -65 0 0 -15 0 -15 -80 0 -80 0 0 -10 0 -10
80 0 80 0 0 10 0 10 65 0 65 0 0 15 0 15 40 0 40 0 0 -15 0 -15 25 0 25 0 0
15 0 15 -25 0 -25 0 0 15 0 15 -40 0 -40 0 0 -15z"/>
<path d="M400 975 l0 -15 -65 0 -65 0 0 -15 0 -15 -80 0 -80 0 0 -10 0 -10 80
0 80 0 0 10 0 10 65 0 65 0 0 15 0 15 40 0 40 0 0 -15 0 -15 25 0 25 0 0 15 0
15 -25 0 -25 0 0 15 0 15 -40 0 -40 0 0 -15z"/>
<path d="M400 895 l0 -15 -65 0 -65 0 0 -15 0 -15 -80 0 -80 0 0 -10 0 -10 80
0 80 0 0 10 0 10 65 0 65 0 0 15 0 15 40 0 40 0 0 -15 0 -15 25 0 25 0 0 15 0
15 -25 0 -25 0 0 15 0 15 -40 0 -40 0 0 -15z"/>
<path d="M400 815 l0 -15 -65 0 -65 0 0 -15 0 -15 -80 0 -80 0 0 -10 0 -10 80
0 80 0 0 10 0 10 65 0 65 0 0 15 0 15 40 0 40 0 0 -15 0 -15 25 0 25 0 0 15 0
15 -25 0 -25 0 0 15 0 15 -40 0 -40 0 0 -15z"/>
<path d="M400 735 l0 -15 -65 0 -65 0 0 -15 0 -15 -80 0 -80 0 0 -10 0 -10 80
0 80 0 0 10 0 10 65 0 65 0 0 15 0 15 40 0 40 0 0 -15 0 -15 25 0 25 0 0 15 0
15 -25 0 -25 0 0 15 0 15 -40 0 -40 0 0 -15z"/>
<path d="M400 655 l0 -15 -65 0 -65 0 0 -15 0 -15 -80 0 -80 0 0 -10 0 -10 80
0 80 0 0 10 0 10 65 0 65 0 0 15 0 15 40 0 40 0 0 -15 0 -15 25 0 25 0 0 15 0
15 -25 0 -25 0 0 15 0 15 -40 0 -40 0 0 -15z"/>
<path d="M400 575 l0 -15 -65 0 -65 0 0 -15 0 -15 -80 0 -80 0 0 -10 0 -10 80
0 80 0 0 10 0 10 65 0 65 0 0 15 0 15 40 0 40 0 0 -15 0 -15 25 0 25 0 0 15 0
15 -25 0 -25 0 0 15 0 15 -40 0 -40 0 0 -15z"/>
<path d="M400 495 l0 -15 -65 0 -65 0 0 -15 0 -15 -80 0 -80 0 0 -10 0 -10 80
0 80 0 0 10 0 10 65 0 65 0 0 15 0 15 40 0 40 0 0 -15 0 -15 25 0 25 0 0 15 0
15 -25 0 -25 0 0 15 0 15 -40 0 -40 0 0 -15z"/>
<path d="M400 415 l0 -15 -65 0 -65 0 0 -15 0 -15 -80 0 -80 0 0 -10 0 -10 80
0 80 0 0 10 0 10 65 0 65 0 0 15 0 15 40 0 40 0 0 -15 0 -15 25 0 25 0 0 15 0
15 -25 0 -25 0 0 15 0 15 -40 0 -40 0 0 -15z"/>
<path d="M290 305 l0 -15 30 0 30 0 0 15 0 15 -30 0 -30 0 0 -15z"/>
<path d="M400 255 l0 -15 -95 0 -95 0 0 -15 0 -15 15 0 15 0 0 -10 0 -10 14 0
14 0 6 13 6 12 6 -12 6 -13 14 0 14 0 0 10 0 10 14 0 14 0 6 -12 6 -13 6 13 6
12 14 0 14 0 0 15 0 15 15 0 15 0 0 -15 0 -15 -15 0 -15 0 0 -10 0 -10 15 0
15 0 0 -15 0 -15 -15 0 -15 0 0 15 0 15 -15 0 -15 0 0 -15 0 -15 -10 0 -10 0
0 15 0 15 -15 0 -15 0 0 -15 0 -15 -15 0 -15 0 0 15 0 15 -10 0 -10 0 0 -15 0
-15 -15 0 -15 0 0 15 0 15 -15 0 -15 0 0 -15 0 -15 15 0 15 0 0 -15 0 -15 15
0 15 0 0 15 0 15 10 0 10 0 0 -15 0 -15 15 0 15 0 0 15 0 15 15 0 15 0 0 -15
0 -15 10 0 10 0 0 15 0 15 15 0 15 0 0 -15 0 -15 15 0 15 0 0 15 0 15 10 0 10
0 0 -15 0 -15 15 0 15 0 0 15 0 15 15 0 15 0 0 -11 0 -10 14 -15 15 -14 10 0
11 0 0 -15 0 -15 15 0 15 0 0 15 0 15 -15 0 -15 0 0 10 0 10 15 0 15 0 0 15 0
15 -15 0 -15 0 0 15 0 15 15 0 15 0 0 10 0 10 -15 0 -15 0 0 15 0 15 -25 0
-25 0 0 15 0 15 -55 0 -55 0 0 -15z m80 -30 l0 -15 14 0 14 0 6 -12 6 -13 6
13 6 12 14 0 14 0 0 -10 0 -10 -15 0 -15 0 0 -15 0 -15 15 0 15 0 0 -15 0 -15
-15 0 -15 0 0 15 0 15 -10 0 -10 0 0 15 0 15 -15 0 -15 0 0 -15 0 -15 -15 0
-15 0 0 14 0 14 -12 6 -13 6 13 6 12 6 0 14 0 14 15 0 15 0 0 -15z"/>
<path d="M450 200 l0 -10 15 0 15 0 0 10 0 10 -15 0 -15 0 0 -10z"/>
<path d="M80 145 l0 -15 -15 0 -15 0 0 -10 0 -10 15 0 15 0 0 10 0 10 14 0 14
0 6 -12 6 -13 6 13 6 12 14 0 14 0 0 15 0 15 -15 0 -15 0 0 -15 0 -15 -10 0
-10 0 0 15 0 15 -15 0 -15 0 0 -15z"/>
<path d="M770 1135 l0 -15 -25 0 -25 0 0 -15 0 -15 25 0 25 0 0 15 0 15 40 0
40 0 0 -15 0 -15 70 0 70 0 0 -10 0 -10 80 0 80 0 0 10 0 10 -80 0 -80 0 0 15
0 15 -70 0 -70 0 0 15 0 15 -40 0 -40 0 0 -15z"/>
<path d="M770 1055 l0 -15 -25 0 -25 0 0 -15 0 -15 25 0 25 0 0 15 0 15 40 0
40 0 0 -15 0 -15 70 0 70 0 0 -10 0 -10 80 0 80 0 0 10 0 10 -80 0 -80 0 0 15
0 15 -70 0 -70 0 0 15 0 15 -40 0 -40 0 0 -15z"/>
<path d="M770 975 l0 -15 -25 0 -25 0 0 -15 0 -15 25 0 25 0 0 15 0 15 40 0
40 0 0 -15 0 -15 70 0 70 0 0 -10 0 -10 80 0 80 0 0 10 0 10 -80 0 -80 0 0 15
0 15 -70 0 -70 0 0 15 0 15 -40 0 -40 0 0 -15z"/>
<path d="M770 895 l0 -15 -25 0 -25 0 0 -15 0 -15 25 0 25 0 0 15 0 15 40 0
40 0 0 -15 0 -15 70 0 70 0 0 -10 0 -10 80 0 80 0 0 10 0 10 -80 0 -80 0 0 15
0 15 -70 0 -70 0 0 15 0 15 -40 0 -40 0 0 -15z"/>
<path d="M770 815 l0 -15 -25 0 -25 0 0 -15 0 -15 25 0 25 0 0 15 0 15 40 0
40 0 0 -15 0 -15 70 0 70 0 0 -10 0 -10 80 0 80 0 0 10 0 10 -80 0 -80 0 0 15
0 15 -70 0 -70 0 0 15 0 15 -40 0 -40 0 0 -15z"/>
<path d="M770 735 l0 -15 -25 0 -25 0 0 -15 0 -15 25 0 25 0 0 15 0 15 40 0
40 0 0 -15 0 -15 70 0 70 0 0 -10 0 -10 80 0 80 0 0 10 0 10 -80 0 -80 0 0 15
0 15 -70 0 -70 0 0 15 0 15 -40 0 -40 0 0 -15z"/>
<path d="M770 655 l0 -15 -25 0 -25 0 0 -15 0 -15 25 0 25 0 0 15 0 15 40 0
40 0 0 -15 0 -15 70 0 70 0 0 -10 0 -10 80 0 80 0 0 10 0 10 -80 0 -80 0 0 15
0 15 -70 0 -70 0 0 15 0 15 -40 0 -40 0 0 -15z"/>
<path d="M770 575 l0 -15 -25 0 -25 0 0 -15 0 -15 25 0 25 0 0 15 0 15 40 0
40 0 0 -15 0 -15 70 0 70 0 0 -10 0 -10 80 0 80 0 0 10 0 10 -80 0 -80 0 0 15
0 15 -70 0 -70 0 0 15 0 15 -40 0 -40 0 0 -15z"/>
<path d="M770 495 l0 -15 -25 0 -25 0 0 -15 0 -15 25 0 25 0 0 15 0 15 40 0
40 0 0 -15 0 -15 70 0 70 0 0 -10 0 -10 80 0 80 0 0 10 0 10 -80 0 -80 0 0 15
0 15 -70 0 -70 0 0 15 0 15 -40 0 -40 0 0 -15z"/>
<path d="M770 415 l0 -15 -25 0 -25 0 0 -15 0 -15 25 0 25 0 0 15 0 15 40 0
40 0 0 -15 0 -15 70 0 70 0 0 -10 0 -10 80 0 80 0 0 10 0 10 -80 0 -80 0 0 15
0 15 -70 0 -70 0 0 15 0 15 -40 0 -40 0 0 -15z"/>
<path d="M910 305 l0 -15 25 0 25 0 0 15 0 15 -25 0 -25 0 0 -15z"/>
<path d="M763 195 l-13 -14 0 -11 0 -10 -15 0 -15 0 0 15 0 15 -15 0 -15 0 0
-15 0 -15 15 0 15 0 0 -15 0 -15 15 0 15 0 0 15 0 15 10 0 10 0 0 -15 0 -15
15 0 15 0 0 15 0 15 15 0 15 0 0 -15 0 -15 10 0 10 0 0 15 0 15 15 0 15 0 0
-15 0 -15 15 0 15 0 0 15 0 15 10 0 10 0 0 -15 0 -15 15 0 15 0 0 15 0 15 15
0 15 0 0 15 0 15 -15 0 -15 0 0 -15 0 -15 -15 0 -15 0 0 15 0 15 -10 0 -10 0
0 -15 0 -15 -15 0 -15 0 0 15 0 15 -14 0 -14 0 -6 13 -6 12 -6 -12 -6 -13 -14
0 -14 0 0 10 0 10 -12 0 -13 -1 -12 -14z m37 -20 l0 -15 -15 0 -15 0 0 15 0
15 15 0 15 0 0 -15z m50 0 l0 -15 -10 0 -10 0 0 15 0 15 10 0 10 0 0 -15z"/>
<path d="M1010 175 l0 -15 15 0 15 0 0 -15 0 -15 14 0 14 0 6 -12 6 -13 6 13
6 12 14 0 14 0 0 15 0 15 -15 0 -15 0 0 -15 0 -15 -10 0 -10 0 0 15 0 15 -15
0 -15 0 0 15 0 15 -15 0 -15 0 0 -15z"/>
</g>
</svg>
