<?xml version="1.0" standalone="no"?>
<!DOCTYPE svg PUBLIC "-//W3C//DTD SVG 20010904//EN"
 "http://www.w3.org/TR/2001/REC-SVG-20010904/DTD/svg10.dtd">
<svg version="1.0" xmlns="http://www.w3.org/2000/svg"
 width="468pt" height="468pt" viewBox="0 0 468 468"
 preserveAspectRatio="xMidYMid meet">
<metadata>
Created by potrace 1.8, written by Peter Selinger 2001-2007
</metadata>
<g transform="translate(0,468) scale(0.365625,-0.365625)"
fill="#000000" stroke="none">
<path d="M847 1237 l-18 -22 -9 15 -9 14 -19 -22 -19 -22 -17 0 -16 0 0 20 0
20 -16 0 -15 0 -15 -14 -14 -15 0 -15 0 -16 -15 0 -16 0 -25 -25 -26 -26 21
-18 21 -18 0 -17 0 -16 -16 0 -15 0 -15 14 -14 15 0 25 0 26 -10 0 -10 0 0 20
0 20 -20 0 -20 0 0 10 0 10 -20 0 -20 0 0 10 0 10 -80 0 -80 0 0 -10 0 -10
-20 0 -20 0 0 -10 0 -10 -15 0 -15 0 -55 -55 -55 -55 0 -15 0 -15 -10 0 -10 0
0 -20 0 -20 -10 0 -10 0 0 -50 0 -50 -10 0 -10 0 0 -50 0 -50 -10 0 -10 0 0
-30 0 -30 -10 0 -10 0 0 -30 0 -30 -10 0 -10 0 0 -30 0 -30 -10 0 -10 0 0 -20
0 -20 10 0 10 0 0 20 0 20 10 0 10 0 0 30 0 30 10 0 10 0 0 30 0 30 10 0 10 0
0 30 0 30 10 0 10 0 0 50 0 50 10 0 10 0 0 50 0 50 10 0 10 0 0 20 0 20 10 0
10 0 0 15 0 16 45 44 44 45 16 0 15 0 0 10 0 10 20 0 20 0 0 10 0 10 80 0 80
0 0 -10 0 -10 16 0 15 0 15 -14 14 -15 0 -15 0 -16 10 0 10 0 0 -30 0 -30 10
0 10 0 0 -16 0 -15 14 -15 15 -14 11 0 12 0 28 -30 28 -30 16 0 16 0 0 -16 0
-16 40 -38 40 -38 0 -12 0 -11 14 -15 15 -14 5 0 6 0 0 26 0 26 -32 31 -33 30
13 4 12 5 0 9 0 9 -20 0 -20 0 0 10 0 10 -20 0 -20 0 0 6 0 5 14 15 15 14 15
0 16 0 0 -16 0 -17 23 -20 22 -20 -12 -4 -13 -5 0 -9 0 -9 16 0 15 0 15 -14
14 -15 0 -31 0 -31 -14 -15 -15 -14 -11 0 -11 0 -15 14 -14 15 0 11 0 10 -55
55 -55 55 -14 0 -14 0 -5 13 -4 12 -8 -7 -7 -7 81 -80 81 -80 0 -16 0 -15 -19
0 -19 0 -4 -12 -5 -13 -16 17 -17 17 0 15 0 16 -10 0 -10 0 0 15 0 16 -45 44
-44 45 -6 0 -5 0 0 -16 0 -16 40 -38 40 -38 0 -16 0 -16 10 0 10 0 0 -19 0
-19 13 -6 12 -6 -12 -6 -13 -6 0 -9 0 -9 18 0 18 0 14 20 14 20 18 0 18 0 0
10 0 10 30 0 30 0 0 10 0 10 30 0 30 0 0 10 0 10 29 0 29 0 6 13 6 12 6 -12 6
-13 17 0 17 0 14 -20 14 -20 14 0 13 0 15 -14 14 -15 0 -5 0 -6 -19 0 -19 0
-6 -12 -6 -13 -6 13 -6 12 -15 0 -15 0 -28 30 -28 30 -6 0 -6 0 0 -16 0 -15
14 -15 15 -14 11 0 11 0 15 -14 14 -15 0 -5 0 -6 -35 0 -36 0 -24 25 -25 24 0
16 0 15 -20 0 -20 0 0 -10 0 -10 10 0 10 0 0 -30 0 -30 10 0 10 0 0 -20 0 -20
-20 0 -20 0 0 10 0 10 -20 0 -20 0 0 -10 0 -10 -30 0 -30 0 0 10 0 10 -40 0
-40 0 0 10 0 10 -30 0 -30 0 0 10 0 10 -15 0 -16 0 -44 45 -45 44 0 26 0 25
10 0 10 0 0 20 0 20 -6 0 -5 0 -15 -14 -14 -15 0 -45 0 -46 10 0 10 0 0 -16 0
-16 30 -28 30 -28 0 -16 0 -16 -10 0 -10 0 0 10 0 10 -20 0 -20 0 0 10 0 10
-15 0 -16 0 -34 35 -35 34 0 31 0 30 75 75 75 75 15 0 15 0 0 10 0 10 20 0 20
0 0 10 0 10 -20 0 -20 0 0 -10 0 -10 -20 0 -20 0 0 18 0 18 -20 14 -20 14 0
18 0 18 -10 0 -10 0 0 25 0 26 -25 24 -24 25 -36 0 -35 0 0 -10 0 -10 -20 0
-20 0 0 -10 0 -10 10 0 10 0 0 -20 0 -20 -20 0 -20 0 0 20 0 20 -5 0 -6 0 -34
-35 -35 -34 0 -13 0 -14 -20 -14 -20 -14 0 -48 0 -48 -10 0 -10 0 0 -58 0 -58
-20 -14 -20 -14 0 -18 0 -18 -10 0 -10 0 0 -28 0 -28 -20 -14 -20 -14 0 -24 0
-24 -32 -30 -32 -30 15 -9 14 -9 -15 -9 -14 -10 8 -8 9 -8 4 13 5 12 15 0 15
0 28 30 28 30 12 0 12 0 28 30 28 30 12 0 12 0 28 30 28 30 26 0 26 0 0 10 0
10 20 0 20 0 0 8 0 8 -20 14 -20 14 0 34 0 33 17 17 16 17 5 -13 4 -12 19 0
19 0 0 -10 0 -10 -10 0 -10 0 0 -20 0 -20 -20 0 -20 0 0 -6 0 -7 21 -18 22
-19 -32 -29 -31 -29 0 -16 0 -16 -10 0 -10 0 0 -20 0 -20 -10 0 -10 0 0 -20 0
-20 -10 0 -10 0 0 -36 0 -37 22 -18 21 -19 -8 -8 -8 -7 -4 13 -5 12 -19 0 -19
0 0 10 0 10 -35 0 -36 0 -24 -25 -25 -24 0 -11 0 -11 -14 -15 -15 -14 -11 0
-11 0 -24 -25 -25 -24 0 -15 0 -14 -12 -4 -12 -4 26 -27 27 -27 26 0 25 0 0
16 0 15 14 15 15 14 15 0 16 0 0 10 0 10 20 0 20 0 0 10 0 10 20 0 20 0 0 10
0 10 36 0 35 0 15 -14 14 -15 0 -11 0 -11 14 -15 15 -14 55 0 56 0 0 -10 0
-10 130 0 130 0 0 -10 0 -10 160 0 160 0 0 10 0 10 30 0 30 0 0 10 0 10 15 0
16 0 24 25 25 24 0 31 0 31 -35 34 -34 35 -12 0 -11 0 -28 30 -28 30 -16 0
-16 0 0 10 0 10 -20 0 -20 0 0 10 0 10 -20 0 -20 0 0 10 0 10 -30 0 -30 0 0
10 0 10 -30 0 -30 0 0 6 0 5 17 17 16 17 5 -13 4 -12 19 0 19 0 0 10 0 10 30
0 30 0 0 10 0 10 30 0 30 0 0 10 0 10 20 0 20 0 0 10 0 10 40 0 40 0 0 6 0 6
-41 39 -41 39 16 15 15 15 11 0 11 0 16 15 15 16 -7 7 -8 7 -4 -12 -5 -13 -17
0 -17 0 -14 -20 -14 -20 -18 0 -18 0 0 10 0 10 -20 0 -20 0 0 10 0 10 10 0 10
0 0 20 0 20 10 0 10 0 0 16 0 15 16 16 16 16 8 -13 8 -13 40 41 40 42 16 0 16
0 0 -6 0 -6 -31 -29 -32 -30 7 -6 6 -6 19 21 18 22 7 0 6 0 0 -19 0 -19 -12
-5 -13 -5 15 -11 15 -11 -15 -9 -14 -10 6 -7 7 -6 28 28 27 28 -12 4 -12 4 0
19 0 19 10 0 10 0 0 20 0 20 -20 0 -20 0 0 10 0 10 -19 0 -19 0 -5 -12 -5 -13
-12 15 -12 15 -5 -12 -5 -13 -19 0 -19 0 0 -20 0 -20 -9 0 -9 0 -4 12 -4 12
-37 -37 -37 -36 0 -12 0 -12 -22 -18 -21 -19 6 -6 6 -6 25 25 26 26 0 16 0 15
10 0 10 0 0 -15 0 -16 -35 -35 -35 -35 -15 15 -15 15 0 11 0 12 -40 38 -40 38
0 16 0 16 30 0 30 0 0 -10 0 -10 38 0 38 0 14 20 14 20 18 0 18 0 0 10 0 10
30 0 30 0 0 30 0 30 30 0 30 0 0 10 0 10 19 0 19 0 5 -12 4 -13 9 8 8 8 -14
10 -15 9 14 9 14 9 -26 26 -26 26 -16 0 -15 0 0 10 0 10 10 0 10 0 0 10 0 10
-20 0 -20 0 0 -10 0 -10 -20 0 -20 0 0 10 0 10 -16 0 -17 0 -19 22 -19 22 -10
-14 -11 -15 -5 13 -5 12 -29 0 -29 0 0 10 0 10 -17 0 -18 0 -18 -23z m33 -7
l0 -10 40 0 40 0 0 -10 0 -10 20 0 20 0 0 -10 0 -10 30 0 30 0 0 -10 0 -10 20
0 20 0 0 -10 0 -10 30 0 30 0 0 -16 0 -15 -15 -16 -16 -15 -18 21 -18 21 -14
0 -15 0 -14 20 -14 20 -18 0 -18 0 0 -20 0 -20 -26 0 -27 0 -18 21 -18 21 -17
-16 -16 -17 6 -7 7 -6 9 13 8 14 16 -16 16 -16 0 -5 0 -6 -25 0 -26 0 -24 25
-25 24 0 6 0 5 20 0 20 0 0 10 0 10 16 0 17 0 18 -21 18 -21 16 15 15 16 0 5
0 6 -20 0 -20 0 0 10 0 10 -30 0 -30 0 0 -10 0 -10 -20 0 -20 0 0 -10 0 -10
-20 0 -20 0 0 -10 0 -10 -30 0 -30 0 0 -10 0 -10 -29 0 -29 0 -5 13 -4 12 -8
-7 -8 -8 21 -19 22 -18 0 -7 0 -6 -15 0 -16 0 -25 25 -25 25 15 15 15 15 11 0
11 0 15 14 14 15 0 15 0 16 6 0 5 0 15 -14 14 -15 0 -5 0 -6 -20 0 -20 0 0
-10 0 -10 30 0 30 0 0 10 0 10 20 0 20 0 0 20 0 20 10 0 10 0 0 -10 0 -10 20
0 20 0 0 20 0 20 10 0 10 0 0 -10z m-480 -120 l0 -30 -16 0 -15 0 -15 -14 -14
-15 0 -15 0 -16 -30 0 -30 0 0 20 0 20 -10 0 -10 0 0 -18 0 -18 20 -14 20 -14
0 -28 0 -28 -30 0 -30 0 0 56 0 55 17 17 16 17 5 -13 4 -12 25 0 24 0 15 14
14 15 0 25 0 26 20 0 20 0 0 -30z m46 16 l14 -15 0 -14 0 -15 -12 -5 -13 -4
23 -20 22 -20 0 -7 0 -6 -20 0 -20 0 0 20 0 20 -10 0 -10 0 0 -20 0 -20 -30 0
-30 0 0 -10 0 -10 10 0 10 0 0 -30 0 -30 -30 0 -30 0 0 -10 0 -10 10 0 10 0 0
-40 0 -40 -30 0 -30 0 0 38 0 38 20 14 20 14 0 26 0 26 20 14 20 14 0 18 0 18
26 0 25 0 17 17 17 16 -13 5 -12 4 0 19 0 19 6 0 5 0 15 -14z m334 -16 l0 -10
19 0 19 0 5 13 4 12 9 -9 9 -9 -12 -4 -13 -5 0 -9 0 -9 20 0 20 0 0 -10 0 -10
-19 0 -19 0 -5 13 -5 12 -11 -15 -10 -14 -21 23 -20 24 -8 -8 -7 -8 13 -4 12
-5 0 -9 0 -9 -16 0 -15 0 -16 -15 -15 -16 7 -7 8 -7 4 13 5 12 18 0 18 0 5
-12 4 -13 9 8 8 8 -14 9 -14 9 7 8 8 7 10 -14 9 -15 9 15 10 14 8 -7 7 -8 -14
-9 -14 -9 23 -20 23 -20 -15 -16 -16 -15 -5 0 -6 0 0 30 0 30 -9 0 -9 0 -6
-12 -6 -13 -6 13 -6 12 -9 0 -9 0 0 -16 0 -15 -15 -15 -15 -15 -35 36 -36 35
15 15 15 15 13 0 13 1 25 29 25 29 18 1 17 0 0 -10z m280 0 l0 -10 20 0 20 0
0 -8 0 -8 -20 -14 -20 -14 0 -18 0 -18 -20 0 -20 0 0 -10 0 -10 -19 0 -19 0
-5 13 -4 12 -9 -8 -8 -8 13 -9 14 -8 -16 -16 -16 -16 -31 0 -31 0 -34 35 -35
34 0 6 0 5 18 0 18 0 14 20 14 20 28 0 28 0 0 10 0 10 40 0 40 0 0 10 0 10 20
0 20 0 0 -10z m-614 -104 l14 -15 0 -25 0 -26 -30 0 -30 0 0 -10 0 -10 10 0
10 0 0 -40 0 -40 -30 0 -30 0 0 38 0 38 20 14 20 14 0 24 0 23 13 14 12 14 3
1 3 0 15 -14z m-226 -34 l0 -28 20 -14 20 -14 0 -36 0 -36 20 -14 20 -14 0
-38 0 -38 10 0 10 0 0 -20 0 -20 -20 0 -20 0 0 10 0 10 10 0 10 0 0 10 0 10
-30 0 -30 0 0 40 0 40 10 0 10 0 0 10 0 10 -26 0 -25 0 -15 14 -14 15 0 15 0
16 10 0 10 0 0 50 0 50 10 0 10 0 0 -28z m300 9 l0 -19 12 -4 12 -4 -47 -47
-46 -47 -6 0 -5 0 0 26 0 25 16 16 16 16 8 -14 9 -13 8 8 8 9 -12 4 -13 5 0
29 0 29 20 0 20 0 0 -19z m600 -6 l0 -6 -26 -26 -25 -25 -6 5 -5 6 23 25 24
25 8 0 7 1 0 -5z m80 -25 l0 -10 -10 0 -10 0 0 10 0 10 10 0 10 0 0 -10z
m-160 -16 l0 -5 -15 -16 -16 -15 -5 5 -6 6 13 15 14 15 8 1 7 0 0 -6z m160
-44 l0 -10 -10 0 -10 0 0 10 0 10 10 0 10 0 0 -10z m-994 -64 l14 -15 0 -33 0
-34 20 -14 20 -14 0 -18 0 -18 -30 0 -30 0 0 20 0 20 10 0 10 0 0 10 0 10 -30
0 -30 0 0 -10 0 -10 10 0 10 0 0 -20 0 -20 -30 0 -30 0 0 18 0 18 20 14 20 14
0 18 0 18 10 0 10 0 0 30 0 30 6 0 5 0 15 -14z m1 -161 l15 -16 -7 -7 -8 -7
-4 13 -5 12 -9 0 -9 0 0 -16 0 -15 -14 -15 -15 -14 -5 0 -6 0 0 30 0 30 20 0
20 0 0 10 0 10 6 0 5 0 16 -15z m193 5 l0 -10 20 0 20 0 0 -10 0 -10 20 0 20
0 0 -10 0 -10 20 0 20 0 0 -10 0 -10 -20 0 -20 0 0 10 0 10 -28 0 -28 0 -14
20 -14 20 -8 0 -8 0 0 -30 0 -30 -10 0 -10 0 0 -20 0 -20 -10 0 -10 0 0 -20 0
-20 10 0 10 0 0 -28 0 -28 20 -14 20 -14 0 -8 0 -8 -20 0 -20 0 0 10 0 10 -16
0 -15 0 -15 14 -14 15 0 35 0 36 10 0 10 0 0 30 0 30 10 0 10 0 0 15 0 16 23
24 22 24 8 0 7 1 0 -10z m-280 -50 l0 -40 -20 0 -20 0 0 -20 0 -20 -19 0 -19
0 -5 -12 -4 -13 -8 7 -8 7 32 30 31 29 0 21 0 22 13 14 12 14 8 1 7 0 0 -40z
m480 10 l0 -10 -10 0 -10 0 0 10 0 10 10 0 10 0 0 -10z m-180 -20 l0 -10 20 0
20 0 0 -8 0 -8 -20 -14 -20 -14 0 -24 0 -23 26 -26 25 -25 6 6 6 6 -21 19 -22
18 0 17 0 16 15 0 16 0 34 -35 35 -34 0 -6 0 -5 -20 0 -20 0 0 -10 0 -10 20 0
20 0 0 -10 0 -10 30 0 30 0 0 -10 0 -10 30 0 30 0 0 -10 0 -10 20 0 20 0 0
-10 0 -10 -20 0 -20 0 0 10 0 10 -50 0 -50 0 0 10 0 10 -29 0 -29 0 -5 13 -5
12 -11 -15 -11 -15 -10 15 -10 15 -9 -15 -10 -14 -8 7 -7 8 14 9 14 8 -32 30
-32 30 0 36 0 36 10 0 10 0 0 30 0 30 10 0 10 0 0 -10z m244 -2 l6 -13 6 13 6
12 29 0 29 0 0 -10 0 -10 20 0 20 0 0 -10 0 -10 20 0 20 0 0 -10 0 -10 30 0
30 0 0 -10 0 -10 30 0 30 0 0 -10 0 -10 20 0 20 0 0 -10 0 -10 20 0 20 0 0
-10 0 -10 16 0 16 0 28 -30 28 -30 11 0 12 0 24 -25 25 -24 0 -31 0 -31 -14
-15 -15 -14 -25 0 -26 0 0 -10 0 -10 -20 0 -20 0 0 -10 0 -10 -40 0 -40 0 0
10 0 10 -30 0 -30 0 0 -10 0 -10 -50 0 -50 0 0 6 0 7 21 18 21 18 -26 26 -25
25 -16 0 -15 0 0 10 0 10 -18 0 -18 0 -14 20 -14 20 -28 0 -28 0 0 10 0 10
-30 0 -30 0 0 10 0 10 -30 0 -30 0 0 10 0 10 20 0 20 0 0 10 0 10 -15 0 -16 0
-24 25 -25 24 0 15 0 14 -12 5 -13 4 8 9 8 8 10 -14 9 -15 9 15 10 14 19 -22
19 -22 17 0 16 0 0 -10 0 -10 30 0 30 0 0 -10 0 -10 16 0 15 0 15 15 15 15
-25 25 -25 25 -16 0 -15 0 0 20 0 20 9 0 9 0 6 -12z m-24 -38 l28 -30 16 0 16
0 0 -10 0 -10 -16 0 -17 0 -19 22 -19 22 -9 -13 -8 -14 -16 16 -16 16 0 15 0
16 16 0 16 0 28 -30z m-400 -140 l0 -10 20 0 20 0 0 -10 0 -10 30 0 30 0 0
-10 0 -10 19 0 19 0 6 -12 6 -13 6 13 6 12 37 0 37 0 14 -20 14 -20 18 0 18 0
0 -10 0 -10 30 0 30 0 0 -10 0 -10 30 0 30 0 0 -10 0 -10 -40 0 -40 0 0 -10 0
-10 -50 0 -50 0 0 10 0 10 -60 0 -60 0 0 29 0 29 13 5 12 4 -9 9 -9 9 -4 -12
-5 -13 -19 0 -19 0 0 10 0 10 -40 0 -40 0 0 -10 0 -10 -20 0 -20 0 0 -10 0
-10 -20 0 -20 0 0 -10 0 -10 -16 0 -16 0 -28 -30 -28 -30 -12 0 -11 0 -17 17
-17 16 13 5 12 4 0 15 0 14 14 15 15 14 11 0 11 0 24 25 25 24 0 11 0 11 13
14 12 14 38 1 37 0 0 -10z m300 -60 l0 -10 60 0 60 0 0 -10 0 -10 50 0 50 0 0
-6 0 -5 -14 -15 -15 -14 -35 0 -36 0 0 10 0 10 -30 0 -30 0 0 10 0 10 -30 0
-30 0 0 10 0 10 -20 0 -20 0 0 10 0 10 20 0 20 0 0 -10z m280 -86 l0 -15 -14
-15 -15 -14 -25 0 -26 0 0 10 0 10 -30 0 -30 0 0 10 0 10 30 0 30 0 0 10 0 10
40 0 40 0 0 -16z"/>
<path d="M1120 1110 l0 -10 10 0 10 0 0 10 0 10 -10 0 -10 0 0 -10z"/>
<path d="M700 990 l0 -10 10 0 10 0 0 10 0 10 -10 0 -10 0 0 -10z"/>
<path d="M1000 1070 l0 -10 20 0 20 0 0 10 0 10 -20 0 -20 0 0 -10z"/>
<path d="M680 594 l0 -5 14 -15 15 -14 15 0 16 0 0 -10 0 -10 30 0 30 0 0 -10
0 -10 20 0 20 0 0 -10 0 -10 20 0 20 0 0 -10 0 -10 -39 0 -39 0 -5 13 -4 12
-8 -7 -7 -7 15 -16 16 -15 35 0 36 0 0 10 0 10 30 0 30 0 0 -10 0 -10 -20 0
-20 0 0 -10 0 -10 20 0 20 0 0 10 0 10 30 0 30 0 0 -9 0 -9 -12 -5 -13 -4 9
-9 9 -9 4 13 5 12 19 0 19 0 0 -9 0 -9 -12 -4 -12 -4 26 -27 27 -27 11 0 11 0
16 -16 16 -16 -14 -8 -13 -9 6 -7 7 -6 17 16 16 17 -23 20 -23 20 13 9 14 8
-26 26 -26 26 -16 0 -15 0 0 10 0 10 -20 0 -20 0 0 10 0 10 -30 0 -30 0 0 10
0 10 -30 0 -30 0 0 10 0 10 -20 0 -20 0 0 10 0 10 -20 0 -20 0 0 10 0 10 -20
0 -20 0 0 10 0 10 -20 0 -20 0 0 10 0 10 -20 0 -20 0 0 -6z m406 -188 l14 -15
0 -5 0 -6 -16 0 -15 0 -15 14 -14 15 0 5 0 6 16 0 15 0 15 -14z"/>
<path d="M740 510 l0 -10 10 0 10 0 0 10 0 10 -10 0 -10 0 0 -10z"/>
<path d="M620 450 l0 -10 20 0 20 0 0 10 0 10 -20 0 -20 0 0 -10z"/>
<path d="M700 430 l0 -10 20 0 20 0 0 10 0 10 -20 0 -20 0 0 -10z"/>
<path d="M760 390 l0 -10 20 0 20 0 0 -10 0 -10 30 0 30 0 0 -10 0 -10 20 0
20 0 0 10 0 10 -20 0 -20 0 0 10 0 10 -30 0 -30 0 0 10 0 10 -20 0 -20 0 0
-10z"/>
<path d="M920 330 l0 -10 10 0 10 0 0 10 0 10 -10 0 -10 0 0 -10z"/>
<path d="M1000 290 l0 -10 10 0 10 0 0 10 0 10 -10 0 -10 0 0 -10z"/>
<path d="M400 340 l0 -20 20 0 20 0 0 -10 0 -10 30 0 30 0 0 -10 0 -10 40 0
40 0 0 10 0 10 -40 0 -40 0 0 10 0 10 -20 0 -20 0 0 10 0 10 -20 0 -20 0 0 10
0 10 -10 0 -10 0 0 -20z"/>
<path d="M540 820 l0 -40 10 0 10 0 0 -16 0 -15 14 -15 15 -14 14 0 15 0 5
-12 4 -13 8 7 8 8 -21 19 -22 18 0 14 0 15 -20 14 -20 14 0 28 0 28 -10 0 -10
0 0 -40z"/>
<path d="M800 700 l0 -20 -10 0 -10 0 0 -20 0 -20 20 0 20 0 0 30 0 30 10 0
10 0 0 10 0 10 -20 0 -20 0 0 -20z"/>
<path d="M0 100 l0 -100 640 0 640 0 0 100 0 100 -640 0 -640 0 0 -100z"/>
</g>
</svg>
