<?xml version="1.0" standalone="no"?>
<!DOCTYPE svg PUBLIC "-//W3C//DTD SVG 20010904//EN"
 "http://www.w3.org/TR/2001/REC-SVG-20010904/DTD/svg10.dtd">
<svg version="1.0" xmlns="http://www.w3.org/2000/svg"
 width="468pt" height="468pt" viewBox="0 0 468 468"
 preserveAspectRatio="xMidYMid meet">
<metadata>
Created by potrace 1.8, written by Peter Selinger 2001-2007
</metadata>
<g transform="translate(0,468) scale(0.365625,-0.365625)"
fill="#000000" stroke="none">
<path d="M80 1240 l0 -40 -40 0 -40 0 0 -120 0 -120 40 0 40 0 0 -40 0 -40
-40 0 -40 0 0 -120 0 -120 40 0 40 0 0 -40 0 -40 -40 0 -40 0 0 -120 0 -120
40 0 40 0 0 -40 0 -40 -40 0 -40 0 0 -120 0 -120 40 0 40 0 0 40 0 40 40 0 40
0 0 -40 0 -40 40 0 40 0 0 40 0 40 40 0 40 0 0 -40 0 -40 40 0 40 0 0 40 0 40
40 0 40 0 0 -40 0 -40 40 0 40 0 0 40 0 40 40 0 40 0 0 -40 0 -40 40 0 40 0 0
40 0 40 40 0 40 0 0 -40 0 -40 40 0 40 0 0 40 0 40 40 0 40 0 0 -40 0 -40 40
0 40 0 0 40 0 40 40 0 40 0 0 -40 0 -40 40 0 40 0 0 40 0 40 40 0 40 0 0 40 0
40 -40 0 -40 0 0 40 0 40 40 0 40 0 0 40 0 40 -40 0 -40 0 0 40 0 40 40 0 40
0 0 40 0 40 -40 0 -40 0 0 40 0 40 40 0 40 0 0 40 0 40 -40 0 -40 0 0 40 0 40
40 0 40 0 0 40 0 40 -40 0 -40 0 0 40 0 40 40 0 40 0 0 40 0 40 -40 0 -40 0 0
40 0 40 40 0 40 0 0 40 0 40 -40 0 -40 0 0 40 0 40 40 0 40 0 0 40 0 40 -120
0 -120 0 0 -40 0 -40 -40 0 -40 0 0 40 0 40 -120 0 -120 0 0 -40 0 -40 -40 0
-40 0 0 40 0 40 -120 0 -120 0 0 -40 0 -40 -40 0 -40 0 0 40 0 40 -120 0 -120
0 0 -40z m80 -80 l0 -40 40 0 40 0 0 40 0 40 40 0 40 0 0 -40 0 -40 -40 0 -40
0 0 -40 0 -40 40 0 40 0 0 -40 0 -40 40 0 40 0 0 40 0 40 40 0 40 0 0 -40 0
-40 -40 0 -40 0 0 -40 0 -40 40 0 40 0 0 -40 0 -40 40 0 40 0 0 40 0 40 40 0
40 0 0 40 0 40 -40 0 -40 0 0 40 0 40 40 0 40 0 0 -40 0 -40 40 0 40 0 0 40 0
40 40 0 40 0 0 40 0 40 -40 0 -40 0 0 40 0 40 40 0 40 0 0 -40 0 -40 40 0 40
0 0 40 0 40 40 0 40 0 0 -40 0 -40 -40 0 -40 0 0 -40 0 -40 40 0 40 0 0 -40 0
-40 40 0 40 0 0 40 0 40 40 0 40 0 0 -40 0 -40 -40 0 -40 0 0 -40 0 -40 40 0
40 0 0 -40 0 -40 40 0 40 0 0 -40 0 -40 -40 0 -40 0 0 -40 0 -40 -40 0 -40 0
0 -40 0 -40 40 0 40 0 0 -40 0 -40 -40 0 -40 0 0 40 0 40 -40 0 -40 0 0 -40 0
-40 -40 0 -40 0 0 -40 0 -40 40 0 40 0 0 -40 0 -40 40 0 40 0 0 40 0 40 40 0
40 0 0 -40 0 -40 -40 0 -40 0 0 -40 0 -40 40 0 40 0 0 -40 0 -40 40 0 40 0 0
-40 0 -40 -40 0 -40 0 0 40 0 40 -40 0 -40 0 0 40 0 40 -40 0 -40 0 0 -40 0
-40 -40 0 -40 0 0 40 0 40 40 0 40 0 0 40 0 40 -40 0 -40 0 0 40 0 40 -40 0
-40 0 0 -40 0 -40 -40 0 -40 0 0 -40 0 -40 40 0 40 0 0 -40 0 -40 -40 0 -40 0
0 40 0 40 -40 0 -40 0 0 -40 0 -40 -40 0 -40 0 0 -40 0 -40 -40 0 -40 0 0 40
0 40 -40 0 -40 0 0 40 0 40 -40 0 -40 0 0 -40 0 -40 -40 0 -40 0 0 40 0 40 40
0 40 0 0 40 0 40 -40 0 -40 0 0 40 0 40 -40 0 -40 0 0 -40 0 -40 -40 0 -40 0
0 40 0 40 40 0 40 0 0 40 0 40 -40 0 -40 0 0 40 0 40 40 0 40 0 0 -40 0 -40
40 0 40 0 0 40 0 40 40 0 40 0 0 40 0 40 -40 0 -40 0 0 40 0 40 40 0 40 0 0
-40 0 -40 40 0 40 0 0 40 0 40 40 0 40 0 0 40 0 40 -40 0 -40 0 0 40 0 40 -40
0 -40 0 0 -40 0 -40 -40 0 -40 0 0 40 0 40 40 0 40 0 0 40 0 40 -40 0 -40 0 0
40 0 40 -40 0 -40 0 0 -40 0 -40 -40 0 -40 0 0 40 0 40 40 0 40 0 0 40 0 40
-40 0 -40 0 0 40 0 40 40 0 40 0 0 -40z m320 0 l0 -40 -40 0 -40 0 0 40 0 40
40 0 40 0 0 -40z m160 0 l0 -40 -40 0 -40 0 0 40 0 40 40 0 40 0 0 -40z m480
0 l0 -40 -40 0 -40 0 0 40 0 40 40 0 40 0 0 -40z m-960 -320 l0 -40 -40 0 -40
0 0 40 0 40 40 0 40 0 0 -40z m0 -160 l0 -40 -40 0 -40 0 0 40 0 40 40 0 40 0
0 -40z m0 -480 l0 -40 -40 0 -40 0 0 40 0 40 40 0 40 0 0 -40z"/>
<path d="M800 1000 l0 -40 -40 0 -40 0 0 -40 0 -40 -40 0 -40 0 0 -40 0 -40
-40 0 -40 0 0 -40 0 -40 -40 0 -40 0 0 -40 0 -40 -40 0 -40 0 0 -40 0 -40 -40
0 -40 0 0 -40 0 -40 -40 0 -40 0 0 -40 0 -40 40 0 40 0 0 -40 0 -40 40 0 40 0
0 -40 0 -40 40 0 40 0 0 -40 0 -40 40 0 40 0 0 40 0 40 40 0 40 0 0 40 0 40
40 0 40 0 0 40 0 40 40 0 40 0 0 40 0 40 40 0 40 0 0 40 0 40 40 0 40 0 0 40
0 40 40 0 40 0 0 40 0 40 40 0 40 0 0 40 0 40 -40 0 -40 0 0 40 0 40 -40 0
-40 0 0 40 0 40 -40 0 -40 0 0 40 0 40 -40 0 -40 0 0 -40z m0 -160 l0 -40 -40
0 -40 0 0 40 0 40 40 0 40 0 0 -40z m160 0 l0 -40 -40 0 -40 0 0 40 0 40 40 0
40 0 0 -40z m-320 -160 l0 -40 40 0 40 0 0 40 0 40 40 0 40 0 0 -40 0 -40 -40
0 -40 0 0 -40 0 -40 40 0 40 0 0 -40 0 -40 -40 0 -40 0 0 40 0 40 -40 0 -40 0
0 -40 0 -40 -40 0 -40 0 0 40 0 40 40 0 40 0 0 40 0 40 -40 0 -40 0 0 40 0 40
40 0 40 0 0 -40z m320 0 l0 -40 -40 0 -40 0 0 40 0 40 40 0 40 0 0 -40z m-480
-160 l0 -40 -40 0 -40 0 0 40 0 40 40 0 40 0 0 -40z m0 -160 l0 -40 -40 0 -40
0 0 40 0 40 40 0 40 0 0 -40z m160 0 l0 -40 -40 0 -40 0 0 40 0 40 40 0 40 0
0 -40z"/>
</g>
</svg>
