<?xml version="1.0" standalone="no"?>
<!DOCTYPE svg PUBLIC "-//W3C//DTD SVG 20010904//EN"
 "http://www.w3.org/TR/2001/REC-SVG-20010904/DTD/svg10.dtd">
<svg version="1.0" xmlns="http://www.w3.org/2000/svg"
 width="468pt" height="468pt" viewBox="0 0 468 468"
 preserveAspectRatio="xMidYMid meet">
<metadata>
Created by potrace 1.8, written by Peter Selinger 2001-2007
</metadata>
<g transform="translate(0,468) scale(0.365625,-0.365625)"
fill="#000000" stroke="none">
<path d="M160 1200 l0 -30 -55 0 -55 0 0 -25 0 -25 55 0 55 0 0 25 0 25 80 0
80 0 0 -25 0 -25 -25 0 -25 0 0 -25 0 -25 -30 0 -30 0 0 -55 0 -55 -25 0 -25
0 0 -160 0 -160 25 0 25 0 0 -25 0 -25 30 0 30 0 0 -30 0 -30 105 0 105 0 0
30 0 30 25 0 25 0 0 50 0 50 30 0 30 0 0 110 0 110 -30 0 -30 0 0 50 0 50 -25
0 -25 0 0 30 0 30 -25 0 -25 0 0 25 0 25 -30 0 -30 0 0 25 0 25 110 0 110 0 0
-25 0 -25 105 0 105 0 0 -25 0 -25 55 0 55 0 0 -30 0 -30 50 0 50 0 0 -50 0
-50 30 0 30 0 0 -30 0 -30 -30 0 -30 0 0 -130 0 -130 -25 0 -25 0 0 -110 0
-110 25 0 25 0 0 -160 0 -160 -25 0 -25 0 0 -25 0 -25 135 0 135 0 0 25 0 25
-30 0 -30 0 0 80 0 80 -25 0 -25 0 0 30 0 30 25 0 25 0 0 80 0 80 -25 0 -25 0
0 50 0 50 25 0 25 0 0 110 0 110 -25 0 -25 0 0 25 0 25 25 0 25 0 0 80 0 80
-25 0 -25 0 0 25 0 25 25 0 25 0 0 55 0 55 -25 0 -25 0 0 55 0 55 -25 0 -25 0
0 -30 0 -30 -30 0 -30 0 0 -25 0 -25 -50 0 -50 0 0 25 0 25 -110 0 -110 0 0
30 0 30 -265 0 -265 0 0 -30z m210 -160 l0 -30 -25 0 -25 0 0 30 0 30 25 0 25
0 0 -30z m60 -105 l0 -25 25 0 25 0 0 -55 0 -55 -25 0 -25 0 0 -25 0 -25 25 0
25 0 0 -30 0 -30 -25 0 -25 0 0 -25 0 -25 -30 0 -30 0 0 -25 0 -25 -25 0 -25
0 0 25 0 25 -25 0 -25 0 0 55 0 55 -30 0 -30 0 0 80 0 80 30 0 30 0 0 25 0 25
80 0 80 0 0 -25z m690 -320 l0 -25 -25 0 -25 0 0 25 0 25 25 0 25 0 0 -25z m0
-270 l0 -25 -25 0 -25 0 0 25 0 25 25 0 25 0 0 -25z"/>
<path d="M270 880 l0 -30 80 0 80 0 0 30 0 30 -80 0 -80 0 0 -30z"/>
<path d="M270 775 l0 -25 50 0 50 0 0 25 0 25 -50 0 -50 0 0 -25z"/>
<path d="M320 665 l0 -25 25 0 25 0 0 25 0 25 -25 0 -25 0 0 -25z"/>
<path d="M800 615 l0 -25 25 0 25 0 0 25 0 25 -25 0 -25 0 0 -25z"/>
<path d="M270 455 l0 -25 25 0 25 0 0 -30 0 -30 25 0 25 0 0 30 0 30 -25 0
-25 0 0 25 0 25 -25 0 -25 0 0 -25z"/>
<path d="M430 455 l0 -25 25 0 25 0 0 25 0 25 -25 0 -25 0 0 -25z"/>
<path d="M210 345 l0 -25 30 0 30 0 0 25 0 25 -30 0 -30 0 0 -25z"/>
<path d="M530 345 l0 -25 30 0 30 0 0 25 0 25 -30 0 -30 0 0 -25z"/>
<path d="M50 295 l0 -25 30 0 30 0 0 25 0 25 -30 0 -30 0 0 -25z"/>
<path d="M370 295 l0 -25 30 0 30 0 0 25 0 25 -30 0 -30 0 0 -25z"/>
<path d="M750 185 l0 -25 25 0 25 0 0 25 0 25 -25 0 -25 0 0 -25z"/>
<path d="M210 135 l0 -25 30 0 30 0 0 25 0 25 -30 0 -30 0 0 -25z"/>
<path d="M480 135 l0 -25 25 0 25 0 0 25 0 25 -25 0 -25 0 0 -25z"/>
</g>
</svg>
