<?xml version="1.0" standalone="no"?>
<!DOCTYPE svg PUBLIC "-//W3C//DTD SVG 20010904//EN"
 "http://www.w3.org/TR/2001/REC-SVG-20010904/DTD/svg10.dtd">
<svg version="1.0" xmlns="http://www.w3.org/2000/svg"
 width="468pt" height="468pt" viewBox="0 0 468 468"
 preserveAspectRatio="xMidYMid meet">
<metadata>
Created by potrace 1.8, written by Peter Selinger 2001-2007
</metadata>
<g transform="translate(0,468) scale(0.365625,-0.365625)"
fill="#000000" stroke="none">
<path d="M130 1170 l0 -20 -20 0 -20 0 0 -530 0 -530 20 0 20 0 0 20 0 20 20
0 20 0 0 -20 0 -20 20 0 20 0 0 20 0 20 25 0 25 0 0 -20 0 -20 20 0 20 0 0 20
0 20 20 0 20 0 0 -20 0 -20 20 0 20 0 0 20 0 20 25 0 25 0 0 -20 0 -20 20 0
20 0 0 20 0 20 20 0 20 0 0 -20 0 -20 20 0 20 0 0 20 0 20 25 0 25 0 0 -20 0
-20 20 0 20 0 0 20 0 20 20 0 20 0 0 -20 0 -20 25 0 25 0 0 20 0 20 20 0 20 0
0 -20 0 -20 20 0 20 0 0 20 0 20 20 0 20 0 0 -20 0 -20 25 0 25 0 0 20 0 20
20 0 20 0 0 -20 0 -20 20 0 20 0 0 20 0 20 20 0 20 0 0 -20 0 -20 25 0 25 0 0
20 0 20 20 0 20 0 0 -20 0 -20 20 0 20 0 0 20 0 20 -20 0 -20 0 0 20 0 20 -20
0 -20 0 0 20 0 20 -25 0 -25 0 0 25 0 25 -20 0 -20 0 0 -25 0 -25 -20 0 -20 0
0 25 0 25 -20 0 -20 0 0 -25 0 -25 -25 0 -25 0 0 25 0 25 -20 0 -20 0 0 -25 0
-25 -20 0 -20 0 0 25 0 25 -20 0 -20 0 0 -25 0 -25 -25 0 -25 0 0 25 0 25 -20
0 -20 0 0 -25 0 -25 -20 0 -20 0 0 25 0 25 -25 0 -25 0 0 -25 0 -25 -20 0 -20
0 0 25 0 25 -20 0 -20 0 0 -25 0 -25 -20 0 -20 0 0 25 0 25 -25 0 -25 0 0 -25
0 -25 -20 0 -20 0 0 25 0 25 -20 0 -20 0 0 -25 0 -25 -20 0 -20 0 0 405 0 405
405 0 405 0 0 -20 0 -20 -25 0 -25 0 0 -20 0 -20 25 0 25 0 0 -20 0 -20 -25 0
-25 0 0 -25 0 -25 25 0 25 0 0 -20 0 -20 -25 0 -25 0 0 -20 0 -20 25 0 25 0 0
-20 0 -20 -25 0 -25 0 0 -25 0 -25 25 0 25 0 0 -20 0 -20 -25 0 -25 0 0 -20 0
-20 25 0 25 0 0 -25 0 -25 -25 0 -25 0 0 -20 0 -20 25 0 25 0 0 -20 0 -20 -25
0 -25 0 0 -20 0 -20 25 0 25 0 0 -25 0 -25 -25 0 -25 0 0 -20 0 -20 25 0 25 0
0 -20 0 -20 20 0 20 0 0 -20 0 -20 20 0 20 0 0 -25 0 -25 20 0 20 0 0 25 0 25
-20 0 -20 0 0 20 0 20 20 0 20 0 0 20 0 20 -20 0 -20 0 0 20 0 20 20 0 20 0 0
25 0 25 -20 0 -20 0 0 20 0 20 20 0 20 0 0 20 0 20 -20 0 -20 0 0 20 0 20 20
0 20 0 0 25 0 25 -20 0 -20 0 0 20 0 20 20 0 20 0 0 20 0 20 -20 0 -20 0 0 25
0 25 20 0 20 0 0 20 0 20 -20 0 -20 0 0 20 0 20 20 0 20 0 0 20 0 20 -20 0
-20 0 0 25 0 25 20 0 20 0 0 20 0 20 -20 0 -20 0 0 20 0 20 20 0 20 0 0 20 0
20 -20 0 -20 0 0 25 0 25 20 0 20 0 0 20 0 20 -20 0 -20 0 0 20 0 20 20 0 20
0 0 20 0 20 -530 0 -530 0 0 -20z m40 -40 l0 -20 20 0 20 0 0 -20 0 -20 25 0
25 0 0 -25 0 -25 -25 0 -25 0 0 25 0 25 -20 0 -20 0 0 20 0 20 -20 0 -20 0 0
20 0 20 20 0 20 0 0 -20z m980 -40 l0 -20 -20 0 -20 0 0 -25 0 -25 20 0 20 0
0 -20 0 -20 -20 0 -20 0 0 -20 0 -20 20 0 20 0 0 -20 0 -20 -20 0 -20 0 0 -25
0 -25 20 0 20 0 0 -20 0 -20 -20 0 -20 0 0 -20 0 -20 20 0 20 0 0 -20 0 -20
-20 0 -20 0 0 -25 0 -25 20 0 20 0 0 -20 0 -20 -20 0 -20 0 0 -20 0 -20 20 0
20 0 0 -25 0 -25 -20 0 -20 0 0 -20 0 -20 20 0 20 0 0 -20 0 -20 -20 0 -20 0
0 -20 0 -20 20 0 20 0 0 -25 0 -25 -20 0 -20 0 0 -20 0 -20 20 0 20 0 0 -20 0
-20 -20 0 -20 0 0 20 0 20 -20 0 -20 0 0 20 0 20 20 0 20 0 0 25 0 25 -20 0
-20 0 0 20 0 20 20 0 20 0 0 20 0 20 -20 0 -20 0 0 20 0 20 20 0 20 0 0 25 0
25 -20 0 -20 0 0 20 0 20 20 0 20 0 0 20 0 20 -20 0 -20 0 0 25 0 25 20 0 20
0 0 20 0 20 -20 0 -20 0 0 20 0 20 20 0 20 0 0 20 0 20 -20 0 -20 0 0 25 0 25
20 0 20 0 0 20 0 20 -20 0 -20 0 0 20 0 20 20 0 20 0 0 20 0 20 -20 0 -20 0 0
25 0 25 20 0 20 0 0 20 0 20 20 0 20 0 0 -20z m-890 -900 l0 -20 20 0 20 0 0
20 0 20 20 0 20 0 0 -20 0 -20 20 0 20 0 0 20 0 20 25 0 25 0 0 -20 0 -20 20
0 20 0 0 20 0 20 20 0 20 0 0 -20 0 -20 20 0 20 0 0 20 0 20 25 0 25 0 0 -20
0 -20 20 0 20 0 0 20 0 20 20 0 20 0 0 -20 0 -20 25 0 25 0 0 20 0 20 20 0 20
0 0 -20 0 -20 20 0 20 0 0 20 0 20 20 0 20 0 0 -20 0 -20 25 0 25 0 0 20 0 20
20 0 20 0 0 -20 0 -20 20 0 20 0 0 20 0 20 20 0 20 0 0 -20 0 -20 25 0 25 0 0
-20 0 -20 -25 0 -25 0 0 20 0 20 -20 0 -20 0 0 -20 0 -20 -20 0 -20 0 0 20 0
20 -20 0 -20 0 0 -20 0 -20 -25 0 -25 0 0 20 0 20 -20 0 -20 0 0 -20 0 -20
-20 0 -20 0 0 20 0 20 -20 0 -20 0 0 -20 0 -20 -25 0 -25 0 0 20 0 20 -20 0
-20 0 0 -20 0 -20 -20 0 -20 0 0 20 0 20 -25 0 -25 0 0 -20 0 -20 -20 0 -20 0
0 20 0 20 -20 0 -20 0 0 -20 0 -20 -20 0 -20 0 0 20 0 20 -25 0 -25 0 0 -20 0
-20 -20 0 -20 0 0 20 0 20 -20 0 -20 0 0 -20 0 -20 -20 0 -20 0 0 20 0 20 -25
0 -25 0 0 -20 0 -20 -20 0 -20 0 0 20 0 20 20 0 20 0 0 20 0 20 25 0 25 0 0
-20z"/>
<path d="M300 640 l0 -340 340 0 340 0 0 340 0 340 -340 0 -340 0 0 -340z"/>
</g>
</svg>
