<?xml version="1.0" standalone="no"?>
<!DOCTYPE svg PUBLIC "-//W3C//DTD SVG 20010904//EN"
 "http://www.w3.org/TR/2001/REC-SVG-20010904/DTD/svg10.dtd">
<svg version="1.0" xmlns="http://www.w3.org/2000/svg"
 width="468pt" height="468pt" viewBox="0 0 468 468"
 preserveAspectRatio="xMidYMid meet">
<metadata>
Created by potrace 1.8, written by Peter Selinger 2001-2007
</metadata>
<g transform="translate(0,468) scale(0.365625,-0.365625)"
fill="#000000" stroke="none">
<path d="M670 1260 l-14 -20 -77 0 -77 0 -6 -12 -6 -13 -6 13 -6 12 -39 0 -39
0 0 -10 0 -10 -26 0 -25 0 -16 -15 -15 -16 7 -7 8 -7 4 13 5 12 29 0 29 0 0
10 0 10 40 0 40 0 0 -20 0 -20 20 0 20 0 0 10 0 10 38 0 38 0 14 -20 14 -20
14 0 13 0 24 -25 25 -24 0 -26 0 -25 10 0 10 0 0 -16 0 -15 14 -15 15 -14 11
0 11 0 15 -14 14 -15 0 -11 0 -11 26 -26 25 -25 6 6 6 6 -23 20 -23 20 6 6 6
6 45 -46 46 -45 0 -16 0 -15 20 0 20 0 0 -10 0 -10 30 0 30 0 0 -10 0 -10 16
0 16 0 38 -40 38 -40 16 0 16 0 0 -40 0 -40 -10 0 -10 0 0 -50 0 -50 10 0 10
0 0 -40 0 -40 10 0 10 0 0 -30 0 -30 -10 0 -10 0 0 -18 0 -18 -20 -14 -20 -14
0 -18 0 -18 -10 0 -10 0 0 -15 0 -16 -70 -69 -70 -69 0 -6 0 -5 20 0 20 0 0
20 0 20 16 0 16 0 38 40 38 40 16 0 16 0 0 16 0 16 40 38 40 38 0 26 0 26 10
0 10 0 0 30 0 30 10 0 10 0 0 50 0 50 10 0 10 0 0 68 0 68 -20 14 -20 14 0 18
0 18 -19 0 -19 0 -5 13 -4 12 -20 -22 -20 -23 -12 0 -12 0 -15 14 -14 15 0 25
0 26 -20 0 -20 0 0 30 0 30 -10 0 -10 0 0 -20 0 -20 -16 0 -15 0 -15 14 -14
15 0 15 0 16 -10 0 -10 0 0 16 0 15 14 15 15 14 32 0 32 0 18 -22 19 -21 7 6
6 7 -21 19 -22 18 0 16 0 15 13 6 12 6 -12 6 -13 6 0 59 0 59 -20 0 -20 0 0
10 0 10 -18 0 -18 0 -14 20 -14 20 -18 0 -18 0 0 10 0 10 -19 0 -19 0 -5 13
-4 12 -8 -7 -7 -7 15 -16 16 -15 15 0 16 0 0 -20 0 -20 -10 0 -10 0 0 10 0 10
-30 0 -30 0 0 40 0 40 -50 0 -50 0 0 10 0 10 -28 0 -28 0 -14 -20z"/>
<path d="M1160 850 l0 -10 10 0 10 0 0 10 0 10 -10 0 -10 0 0 -10z"/>
<path d="M0 550 l0 -10 10 0 10 0 0 10 0 10 -10 0 -10 0 0 -10z"/>
<path d="M40 410 l0 -10 10 0 10 0 0 10 0 10 -10 0 -10 0 0 -10z"/>
<path d="M60 364 l0 -15 15 -16 16 -15 7 7 7 8 -12 4 -13 5 0 19 0 19 -10 0
-10 0 0 -16z"/>
<path d="M100 290 l0 -10 10 0 10 0 0 10 0 10 -10 0 -10 0 0 -10z"/>
<path d="M120 250 l0 -10 10 0 10 0 0 10 0 10 -10 0 -10 0 0 -10z"/>
<path d="M220 250 l0 -10 10 0 10 0 0 -30 0 -30 10 0 10 0 0 26 0 25 -14 15
-15 14 -5 0 -6 0 0 -10z"/>
<path d="M800 30 l0 -10 20 0 20 0 0 10 0 10 -20 0 -20 0 0 -10z"/>
<path d="M580 10 l0 -10 80 0 80 0 0 10 0 10 -80 0 -80 0 0 -10z"/>
</g>
</svg>
