<?xml version="1.0" standalone="no"?>
<!DOCTYPE svg PUBLIC "-//W3C//DTD SVG 20010904//EN"
 "http://www.w3.org/TR/2001/REC-SVG-20010904/DTD/svg10.dtd">
<svg version="1.0" xmlns="http://www.w3.org/2000/svg"
 width="468pt" height="468pt" viewBox="0 0 468 468"
 preserveAspectRatio="xMidYMid meet">
<metadata>
Created by potrace 1.8, written by Peter Selinger 2001-2007
</metadata>
<g transform="translate(0,468) scale(0.365625,-0.365625)"
fill="#000000" stroke="none">
<path d="M30 1265 l0 -15 -15 0 -15 0 0 -610 0 -610 15 0 15 0 0 -15 0 -15
610 0 610 0 0 15 0 15 15 0 15 0 0 610 0 610 -15 0 -15 0 0 15 0 15 -610 0
-610 0 0 -15z m880 -160 l0 -15 10 0 10 0 0 -36 0 -35 -14 -15 -15 -14 -35 0
-36 0 0 10 0 10 -15 0 -15 0 0 40 0 40 15 0 15 0 0 15 0 15 40 0 40 0 0 -15z
m-140 -80 l0 -15 15 0 15 0 0 -40 0 -40 -15 0 -15 0 0 -10 0 -10 -116 0 -115
0 -15 14 -14 15 0 10 0 11 -15 0 -15 0 0 25 0 25 15 0 15 0 0 15 0 15 130 0
130 0 0 -15z m-320 -50 l0 -15 15 0 15 0 0 -255 0 -255 -15 0 -15 0 0 -10 0
-10 -25 0 -25 0 0 -55 0 -55 -15 0 -15 0 0 -25 0 -25 -10 0 -10 0 0 -30 0 -30
-15 0 -15 0 0 -10 0 -10 -15 0 -15 0 0 -15 0 -15 -25 0 -25 0 0 -15 0 -15 -25
0 -25 0 0 -10 0 -10 -80 0 -80 0 0 10 0 10 80 0 80 0 0 15 0 15 25 0 25 0 0
15 0 15 25 0 25 0 0 10 0 10 15 0 15 0 0 30 0 30 15 0 15 0 0 25 0 25 10 0 10
0 0 95 0 95 -10 0 -10 0 0 25 0 25 -15 0 -15 0 0 25 0 25 -15 0 -15 0 0 15 0
15 -25 0 -25 0 0 15 0 15 -25 0 -25 0 0 10 0 10 -80 0 -80 0 0 15 0 15 80 0
80 0 0 -15 0 -15 25 0 25 0 0 -10 0 -10 25 0 25 0 0 -15 0 -15 15 0 15 0 0
-15 0 -15 15 0 15 0 0 -25 0 -25 10 0 10 0 0 -25 0 -25 15 0 15 0 0 90 0 90
-15 0 -15 0 0 135 0 135 15 0 15 0 0 15 0 15 25 0 25 0 0 -15z m380 -80 l0
-15 10 0 10 0 0 -40 0 -40 15 0 15 0 0 -15 0 -15 11 0 10 0 15 -14 14 -15 0
-10 0 -11 55 0 55 0 0 -15 0 -15 25 0 25 0 0 -10 0 -10 30 0 30 0 0 -15 0 -15
10 0 10 0 0 -15 0 -15 15 0 15 0 0 -25 0 -25 15 0 15 0 0 -25 0 -25 10 0 10 0
0 -95 0 -95 -10 0 -10 0 0 -25 0 -25 -15 0 -15 0 0 -30 0 -30 -11 0 -10 0 -15
-14 -14 -15 0 -10 0 -11 -30 0 -30 0 0 -15 0 -15 -25 0 -25 0 0 -10 0 -10 -95
0 -95 0 0 10 0 10 -25 0 -25 0 0 15 0 15 -25 0 -25 0 0 15 0 15 -15 0 -15 0 0
10 0 10 -15 0 -15 0 0 30 0 30 -10 0 -10 0 0 25 0 25 -15 0 -15 0 0 95 0 95
15 0 15 0 0 25 0 25 10 0 10 0 0 25 0 25 15 0 15 0 0 15 0 15 15 0 15 0 0 15
0 15 25 0 25 0 0 10 0 10 25 0 25 0 0 15 0 15 -10 0 -10 0 0 15 0 15 -15 0
-15 0 0 10 0 10 -15 0 -15 0 0 55 0 55 15 0 15 0 0 15 0 15 15 0 15 0 0 -15z
m-240 -26 l0 -10 14 -15 15 -14 10 0 11 0 0 -15 0 -15 15 0 15 0 0 -11 0 -10
14 -15 15 -14 10 0 11 0 0 -30 0 -30 -11 0 -10 0 -15 -14 -14 -15 0 -10 0 -11
-15 0 -15 0 0 -15 0 -15 -11 0 -10 0 -15 -14 -14 -15 0 -10 0 -11 -15 0 -15 0
0 -15 0 -15 -25 0 -25 0 0 40 0 40 10 0 10 0 0 15 0 15 15 0 15 0 0 15 0 15
11 0 10 0 15 14 14 15 0 10 0 11 -10 0 -10 0 0 15 0 15 -15 0 -15 0 0 10 0 10
-15 0 -15 0 0 15 0 15 -10 0 -10 0 0 40 0 40 40 0 40 0 0 -11z"/>
<path d="M850 680 l0 -10 -25 0 -25 0 0 -15 0 -15 -25 0 -25 0 0 -15 0 -15
-15 0 -15 0 0 -25 0 -25 -15 0 -15 0 0 -25 0 -25 -10 0 -10 0 0 -95 0 -95 10
0 10 0 0 -25 0 -25 15 0 15 0 0 -30 0 -30 15 0 15 0 0 -10 0 -10 25 0 25 0 0
-15 0 -15 25 0 25 0 0 -15 0 -15 95 0 95 0 0 15 0 15 25 0 25 0 0 15 0 15 26
0 25 0 15 14 14 15 0 25 0 26 15 0 15 0 0 25 0 25 15 0 15 0 0 95 0 95 -15 0
-15 0 0 25 0 25 -15 0 -15 0 0 25 0 25 -10 0 -10 0 0 15 0 15 -30 0 -30 0 0
15 0 15 -25 0 -25 0 0 10 0 10 -40 0 -40 0 0 -25 0 -25 -25 0 -25 0 0 15 0 15
-15 0 -15 0 0 10 0 10 -15 0 -15 0 0 -10z"/>
</g>
</svg>
