<?xml version="1.0" standalone="no"?>
<!DOCTYPE svg PUBLIC "-//W3C//DTD SVG 20010904//EN"
 "http://www.w3.org/TR/2001/REC-SVG-20010904/DTD/svg10.dtd">
<svg version="1.0" xmlns="http://www.w3.org/2000/svg"
 width="468pt" height="468pt" viewBox="0 0 468 468"
 preserveAspectRatio="xMidYMid meet">
<metadata>
Created by potrace 1.8, written by Peter Selinger 2001-2007
</metadata>
<g transform="translate(0,468) scale(0.365625,-0.365625)"
fill="#000000" stroke="none">
<path d="M0 640 l0 -640 640 0 640 0 0 595 0 595 -11 0 -11 0 5 22 6 21 -10
19 -10 18 10 0 9 0 5 -12 5 -13 1 18 1 17 -640 0 -640 0 0 -640z m53 623 l-13
-5 0 -14 0 -14 15 0 15 0 0 20 0 20 8 0 8 0 -4 -40 -4 -40 -9 0 -8 0 5 15 6
15 -16 0 -16 0 0 -15 0 -15 -13 0 -13 0 1 23 0 24 14 16 13 17 12 -1 11 -1
-12 -5z m99 -23 l20 0 -6 15 -5 15 10 0 10 0 -3 -17 -3 -18 8 -11 7 -12 -15
-12 -15 -12 -23 6 -23 5 2 33 2 33 2 5 2 5 5 -17 4 -18 21 0z m90 18 l-12 -12
0 -18 0 -19 23 -9 22 -9 -16 0 -17 -1 -23 19 -24 19 19 21 19 21 11 0 10 0
-12 -12z m99 -58 l20 0 6 16 6 17 -12 18 -11 19 8 0 7 0 14 -21 13 -22 -20
-20 -20 -20 -24 6 -23 6 2 33 1 33 3 5 2 5 4 -37 4 -38 20 0z m139 61 l0 -9
-20 5 -20 5 0 -11 0 -11 15 0 15 0 0 -9 0 -9 -20 5 -20 5 6 -17 7 -17 20 6 20
5 -11 -11 -11 -11 -26 11 -25 12 0 18 0 18 12 12 12 12 23 0 23 0 0 -9z m61
-28 l19 5 0 -13 0 -13 -20 5 -20 5 0 -10 0 -11 18 -4 17 -5 -25 -1 -26 -1 5
43 5 42 4 -23 4 -24 19 5z m86 16 l-6 -21 6 -14 5 -14 14 0 14 0 0 9 0 9 -12
6 -13 6 19 -3 19 -2 4 -12 4 -11 -20 -7 -20 -6 -21 11 -20 11 0 17 0 18 12 12
12 12 4 0 4 0 -5 -21z m43 5 l0 -15 -10 6 -10 6 0 10 0 9 10 0 10 0 0 -16z
m50 7 l0 -9 25 -6 25 -6 0 -25 0 -25 -10 0 -10 0 0 25 0 25 -15 0 -15 0 0 -25
0 -25 -10 0 -10 0 0 40 0 40 10 0 10 0 0 -9z m133 -63 l12 -8 -20 0 -21 0 5
43 6 42 3 -35 4 -35 11 -7z m103 6 l-5 -14 -20 0 -19 0 -6 16 -6 16 1 11 0 12
10 -23 9 -24 12 4 13 5 4 34 5 34 4 -28 3 -29 -5 -14z m75 36 l19 0 0 15 0 15
10 0 10 0 0 -8 0 -8 -11 -11 -12 -12 17 -16 16 -16 0 -5 0 -4 -15 0 -15 0 0
15 0 15 -20 0 -20 0 0 -15 0 -15 -8 0 -8 0 5 43 5 42 4 -17 3 -18 20 0z m89
-5 l0 -35 15 0 16 0 9 23 9 22 0 -27 1 -28 -35 0 -35 0 0 40 0 40 10 0 10 0 0
-35z m82 -5 l-4 -40 -7 0 -7 0 -2 26 -2 27 11 13 11 14 2 0 2 0 -4 -40z m38 0
l0 -40 -10 0 -10 0 0 40 0 40 10 0 10 0 0 -40z m-1208 -100 l4 -40 -13 0 -13
0 0 40 0 40 9 0 9 0 4 -40z m50 -15 l-4 -25 -8 0 -7 0 1 40 1 41 11 -16 11
-15 -5 -25z m96 39 l9 -17 -4 -18 -5 -18 -20 -6 -19 -7 -14 12 -15 12 0 17 0
17 12 12 12 12 18 0 17 0 9 -16z m75 -57 l22 -4 -30 -2 -30 -1 2 37 2 38 2 5
2 5 4 -37 4 -37 22 -4z m26 37 l-11 -14 -12 0 -11 0 14 9 14 9 -7 17 -6 18 15
-13 15 -13 -11 -13z m96 16 l7 -21 -12 -14 -11 -13 13 -4 13 -5 -33 -1 -33 -1
-11 24 -11 24 13 16 12 15 24 0 23 0 6 -20z m47 -20 l4 -40 -11 0 -10 0 2 37
2 38 0 3 1 2 4 0 4 0 4 -40z m47 26 l12 -14 -9 -6 -10 -6 -5 20 -5 20 3 0 3 0
11 -14z m86 -24 l25 -12 0 -10 0 -10 -25 -6 -24 -6 -13 5 -13 5 23 1 22 1 0 9
0 10 -20 6 -20 6 0 13 0 13 8 7 7 8 3 -15 3 -14 24 -11z m95 -2 l0 -40 -10 0
-10 0 0 40 0 40 10 0 10 0 0 -40z m107 -34 l-19 -10 -16 11 -17 10 -3 18 -4
17 11 11 11 11 0 -32 0 -32 20 0 20 0 1 38 2 37 6 -35 7 -35 -19 -9z m113 40
l0 -35 -22 -6 -21 -7 -18 23 -18 24 12 14 12 14 3 -19 3 -19 5 -14 4 -13 15
12 15 12 0 24 0 24 5 0 5 0 0 -34z m36 18 l-6 -17 5 -18 6 -19 10 0 9 0 2 38
1 37 4 -37 4 -38 9 0 8 0 6 16 6 17 -6 20 -6 20 11 -7 11 -7 0 -29 0 -29 -21
-6 -20 -7 -25 6 -24 6 0 29 0 28 7 6 6 7 5 0 4 0 -6 -16z m124 -4 l18 0 5 13
4 12 9 -8 8 -8 -13 -8 -13 -8 17 -27 17 -26 -16 0 -16 0 0 21 0 20 -17 -3 -18
-4 1 -17 2 -17 -15 0 -15 0 16 24 16 25 -10 6 -10 6 1 12 1 12 5 -12 5 -13 18
0z m87 -2 l-2 -22 18 -4 17 -3 0 25 0 26 10 0 10 0 0 -34 0 -34 -16 -6 -16 -6
-21 1 -22 1 30 8 30 8 -21 1 -22 1 -12 15 -12 15 12 15 12 15 4 0 4 0 -3 -22z
m153 12 l0 -10 -11 0 -10 0 6 -10 6 -10 -19 0 -20 0 -6 -16 -6 -16 30 4 30 5
0 -9 0 -8 -35 0 -35 0 0 12 0 12 28 27 27 27 8 1 7 1 0 -10z m-790 -55 l12
-15 -16 0 -16 0 0 15 0 15 4 0 4 0 12 -15z"/>
<path d="M130 1216 l0 -16 21 0 21 0 -4 13 -5 12 -16 3 -17 3 0 -15z"/>
<path d="M134 1145 l-6 -15 6 -16 6 -16 15 12 15 12 0 13 0 13 -15 6 -16 6 -5
-15z"/>
<path d="M327 1153 l-7 -6 0 -25 0 -24 13 11 14 11 6 -7 7 -6 6 18 7 17 -14 9
-14 9 -6 0 -6 0 -6 -7z"/>
</g>
</svg>
