<?xml version="1.0" standalone="no"?>
<!DOCTYPE svg PUBLIC "-//W3C//DTD SVG 20010904//EN"
 "http://www.w3.org/TR/2001/REC-SVG-20010904/DTD/svg10.dtd">
<svg version="1.0" xmlns="http://www.w3.org/2000/svg"
 width="468pt" height="468pt" viewBox="0 0 468 468"
 preserveAspectRatio="xMidYMid meet">
<metadata>
Created by potrace 1.8, written by Peter Selinger 2001-2007
</metadata>
<g transform="translate(0,468) scale(0.365625,-0.365625)"
fill="#000000" stroke="none">
<path d="M733 1205 l-13 -14 0 -11 0 -12 -40 -38 -40 -38 0 -16 0 -16 -20 0
-20 0 0 10 0 10 -20 0 -20 0 0 10 0 10 -18 0 -18 0 -14 20 -14 20 -28 0 -28 0
0 -10 0 -10 30 0 30 0 0 -6 0 -7 -22 -18 -21 -19 8 -8 8 -7 4 13 5 12 39 0 39
0 0 -10 0 -10 15 0 16 0 24 -25 25 -24 0 -26 0 -25 -20 0 -20 0 0 20 0 20 -20
0 -20 0 0 -6 0 -6 30 -28 30 -28 0 -16 0 -16 10 0 10 0 0 -26 0 -25 -14 -15
-15 -14 -15 0 -16 0 0 10 0 10 -25 0 -26 0 -24 25 -25 24 0 16 0 15 -20 0 -20
0 0 -10 0 -10 10 0 10 0 0 -40 0 -40 -9 0 -9 0 -5 13 -4 12 -8 -7 -8 -8 21
-19 22 -18 0 -12 0 -12 -14 -15 -15 -14 -21 0 -21 0 -15 14 -14 15 0 15 0 16
-10 0 -10 0 0 20 0 20 10 0 10 0 0 29 0 29 13 5 12 4 -7 8 -7 7 -27 -27 -27
-27 13 -8 13 -8 -16 -16 -16 -16 -15 0 -16 0 0 -9 0 -9 12 -4 13 -5 -17 -16
-17 -17 -11 0 -11 0 -15 14 -14 15 0 45 0 46 10 0 10 0 0 30 0 30 16 0 15 0
16 15 15 16 -7 7 -8 7 -4 -12 -5 -13 -15 0 -14 0 -15 -14 -14 -15 0 -15 0 -16
-9 0 -9 0 -5 13 -4 12 -9 -8 -8 -8 13 -9 14 -8 -16 -16 -16 -16 -25 0 -26 0 0
30 0 30 10 0 10 0 0 15 0 16 25 24 24 25 16 0 15 0 0 10 0 10 30 0 30 0 0 10
0 10 -40 0 -40 0 0 -10 0 -10 -20 0 -20 0 0 16 0 15 14 15 15 14 15 0 16 0 0
10 0 10 40 0 40 0 0 -10 0 -10 19 0 19 0 5 -12 4 -13 9 8 8 8 -13 9 -14 8 16
16 16 16 25 0 26 0 0 10 0 10 -30 0 -30 0 0 -10 0 -10 -19 0 -19 0 -6 -12 -6
-13 -6 13 -6 12 -39 0 -39 0 0 -10 0 -10 -15 0 -16 0 -24 -25 -25 -24 0 -16 0
-15 10 0 10 0 0 -18 0 -18 -20 -14 -20 -14 0 -18 0 -18 -10 0 -10 0 0 -26 0
-25 14 -15 15 -14 25 0 26 0 0 10 0 10 10 0 10 0 0 -35 0 -36 25 -24 24 -25
13 0 14 0 14 20 14 20 14 0 14 0 28 -30 28 -30 26 0 26 0 0 -20 0 -20 10 0 10
0 0 -15 0 -16 71 -70 71 -70 -33 -30 -32 -30 7 -7 7 -6 9 13 8 14 26 -26 26
-26 0 -6 0 -5 -30 0 -30 0 0 -10 0 -10 -16 0 -15 0 -16 -15 -15 -16 7 -7 8 -7
4 13 5 12 15 0 14 0 15 -14 14 -15 0 -15 0 -16 -9 0 -9 0 -4 12 -5 13 -17 -18
-18 -18 23 -19 22 -20 -8 -8 -8 -7 -4 13 -5 12 -18 0 -18 0 -5 -12 -5 -13 -12
15 -12 15 -5 -12 -5 -13 -19 0 -19 0 0 -10 0 -10 -20 0 -20 0 0 -10 0 -10
-190 0 -190 0 0 -100 0 -100 640 0 640 0 0 100 0 100 -70 0 -70 0 0 10 0 10
-20 0 -20 0 0 10 0 10 -20 0 -20 0 0 10 0 10 -19 0 -19 0 -5 -12 -4 -13 -20
23 -20 22 -13 0 -13 0 -19 -22 -19 -22 -10 14 -11 15 -5 -12 -5 -13 -9 0 -9 0
0 16 0 17 22 19 22 19 -14 9 -14 9 7 8 8 7 9 -13 8 -14 19 18 18 18 -13 5 -12
4 0 9 0 9 29 0 29 0 5 -12 4 -13 8 7 7 7 -15 16 -16 15 -15 0 -16 0 0 10 0 10
-20 0 -20 0 0 5 0 6 26 26 26 26 8 -14 9 -13 7 6 6 7 -15 16 -16 15 -15 0 -16
0 0 10 0 10 -20 0 -20 0 0 -10 0 -10 -20 0 -20 0 0 -10 0 -10 -10 0 -10 0 0
20 0 20 10 0 10 0 0 20 0 20 10 0 10 0 0 20 0 20 10 0 10 0 0 60 0 60 10 0 10
0 0 50 0 50 10 0 10 0 0 -10 0 -10 38 0 38 0 14 20 14 20 18 0 18 0 0 10 0 10
20 0 20 0 0 10 0 10 20 0 20 0 0 40 0 40 20 0 20 0 0 40 0 40 -10 0 -10 0 0
15 0 16 -25 24 -24 25 -11 0 -12 0 -38 40 -38 40 -16 0 -16 0 0 10 0 10 -18 0
-18 0 -14 -20 -14 -20 -18 0 -18 0 0 10 0 10 -20 0 -20 0 0 10 0 10 -47 0 -48
-1 -12 -14z m107 -15 l0 -10 18 0 18 0 14 -20 14 -20 8 0 8 0 0 16 0 15 14 15
15 14 15 0 16 0 0 -10 0 -10 16 0 15 0 15 -14 14 -15 0 -5 0 -6 -26 0 -25 0
-16 -15 -15 -16 7 -7 8 -7 4 13 5 12 49 0 49 0 0 -10 0 -10 16 0 15 0 15 -14
14 -15 0 -15 0 -16 10 0 10 0 0 -26 0 -25 -15 -15 -15 -15 -15 15 -15 15 0 25
0 26 -9 0 -9 0 -6 -12 -6 -13 -6 13 -6 12 -18 0 -18 0 -5 13 -4 12 -8 -7 -7
-7 15 -16 16 -15 11 0 11 0 34 -35 35 -34 0 -21 0 -21 -14 -15 -15 -14 -25 0
-26 0 0 20 0 20 10 0 10 0 0 10 0 10 -20 0 -20 0 0 15 0 16 -36 35 -35 36 -6
-6 -6 -6 21 -19 22 -18 0 -14 0 -15 20 -14 20 -14 0 -18 0 -18 -20 0 -20 0 0
-10 0 -10 20 0 20 0 0 -16 0 -15 -14 -15 -15 -14 -31 0 -31 0 -15 14 -14 15 0
25 0 26 10 0 10 0 0 10 0 10 -20 0 -20 0 0 20 0 20 10 0 10 0 0 20 0 20 -10 0
-10 0 0 -20 0 -20 -20 0 -20 0 0 -10 0 -10 -29 0 -29 0 -5 13 -4 12 -8 -7 -7
-7 26 -26 27 -27 18 21 18 21 7 0 6 0 0 -18 0 -18 -20 -14 -20 -14 0 -18 0
-18 10 0 10 0 0 -50 0 -50 -10 0 -10 0 0 -40 0 -40 -10 0 -10 0 0 -40 0 -40
-10 0 -10 0 0 -15 0 -16 -25 -24 -24 -25 -13 0 -14 0 -14 20 -14 20 -13 0 -13
0 -65 65 -65 65 0 15 0 15 -10 0 -10 0 0 20 0 20 -10 0 -10 0 0 -20 0 -20 10
0 10 0 0 -15 0 -15 75 -75 75 -75 11 0 10 0 16 -16 16 -16 -14 -8 -13 -9 7 -8
8 -7 10 14 9 15 11 -15 11 -15 5 13 5 12 9 0 9 0 0 -20 0 -20 10 0 10 0 0 -19
0 -19 13 -5 12 -4 -9 -9 -9 -9 -4 13 -5 12 -15 0 -14 0 -15 14 -14 15 0 15 0
16 -9 0 -9 0 -5 -12 -4 -13 -32 34 -32 34 -7 -7 -6 -7 14 -10 15 -11 -12 -5
-13 -5 0 -9 0 -9 20 0 20 0 0 -20 0 -20 9 0 9 0 6 13 6 12 6 -12 6 -13 15 0
14 0 15 -14 14 -15 0 -15 0 -16 10 0 10 0 0 -16 0 -17 -22 -19 -22 -19 14 -9
14 -9 -7 -7 -7 -7 -21 24 -22 24 -4 -12 -5 -13 -9 0 -9 0 0 20 0 20 19 0 19 0
4 -12 5 -13 17 18 18 18 -7 7 -8 7 -4 -12 -5 -13 -9 0 -9 0 0 30 0 30 -10 0
-10 0 0 20 0 20 -9 0 -9 0 -5 -12 -5 -13 -10 14 -10 14 -16 -16 -16 -16 0 -5
0 -6 20 0 20 0 0 -10 0 -10 20 0 20 0 0 -6 0 -5 -16 -16 -16 -16 -8 14 -9 13
-8 -7 -7 -8 14 -9 14 -9 -6 -6 -7 -7 -45 46 -46 45 0 6 0 5 26 0 25 0 16 15
15 16 -23 20 -23 20 14 10 15 9 -15 10 -15 10 14 9 14 9 -72 71 -71 70 0 16 0
15 -10 0 -10 0 0 30 0 30 10 0 10 0 0 50 0 50 10 0 10 0 0 -10 0 -10 20 0 20
0 0 -10 0 -10 35 0 36 0 24 25 25 24 0 26 0 25 -10 0 -10 0 0 16 0 15 14 15
15 14 5 0 6 0 0 -36 0 -35 14 -15 15 -14 24 0 25 0 4 -12 5 -13 16 17 17 17 0
15 0 16 -20 0 -20 0 0 -10 0 -10 -30 0 -30 0 0 45 0 46 25 24 24 25 16 0 15 0
0 10 0 10 20 0 20 0 0 10 0 10 -20 0 -20 0 0 -10 0 -10 -19 0 -19 0 -5 13 -4
12 -9 -9 -9 -9 13 -4 12 -5 0 -9 0 -9 -19 0 -19 0 -5 13 -4 12 -9 -8 -8 -8 13
-9 14 -8 -16 -16 -16 -16 -5 0 -6 0 0 20 0 20 -10 0 -10 0 0 20 0 20 10 0 10
0 0 16 0 15 14 15 15 14 15 0 16 0 0 10 0 10 36 0 37 0 18 -22 19 -21 6 6 6 6
-25 25 -26 26 -26 0 -25 0 0 20 0 20 50 0 50 0 0 -10z m26 -344 l14 -15 0 -55
0 -56 -10 0 -10 0 0 -60 0 -60 -10 0 -10 0 0 -20 0 -20 -10 0 -10 0 0 -20 0
-20 -10 0 -10 0 0 -19 0 -19 13 -5 12 -5 -15 -11 -14 -10 7 -7 7 -7 19 21 18
22 17 0 16 0 0 10 0 10 20 0 20 0 0 -15 0 -16 -45 -44 -44 -45 -6 0 -5 0 0 18
0 18 -20 14 -20 14 0 18 0 18 -10 0 -10 0 0 18 0 18 20 14 20 14 0 18 0 18 10
0 10 0 0 40 0 40 10 0 10 0 0 40 0 40 10 0 10 0 0 50 0 50 -10 0 -10 0 0 10 0
10 6 0 5 0 15 -14z m54 -455 l0 -9 -12 -5 -13 -5 15 -11 14 -10 -7 -8 -8 -7
-8 13 -9 14 -37 -38 -38 -37 14 -9 13 -8 -8 -8 -9 -8 -4 13 -5 12 -9 0 -9 0 0
-20 0 -20 -10 0 -10 0 0 16 0 16 30 28 30 28 0 6 0 6 -20 0 -20 0 0 10 0 10
18 0 18 0 14 20 14 20 28 0 28 0 0 -9z m-300 -131 l0 -20 -6 0 -5 0 -15 14
-14 15 0 5 0 6 20 0 20 0 0 -20z"/>
<path d="M851 1084 l-13 -15 7 -7 6 -6 10 14 11 15 5 -12 5 -13 29 0 29 0 0 6
0 5 -16 16 -16 16 -10 -14 -10 -14 -5 13 -5 12 -6 0 -7 -1 -14 -15z"/>
<path d="M900 1030 l0 -10 10 0 10 0 0 10 0 10 -10 0 -10 0 0 -10z"/>
<path d="M400 1070 l0 -10 10 0 10 0 0 10 0 10 -10 0 -10 0 0 -10z"/>
<path d="M440 1030 l0 -10 10 0 10 0 0 10 0 10 -10 0 -10 0 0 -10z"/>
<path d="M480 1030 l0 -10 10 0 10 0 0 10 0 10 -10 0 -10 0 0 -10z"/>
<path d="M320 1010 l0 -10 20 0 20 0 0 -10 0 -10 16 0 15 0 15 14 14 15 0 5 0
6 -19 0 -19 0 -6 -12 -6 -13 -6 13 -6 12 -19 0 -19 0 0 -10z"/>
<path d="M520 1010 l0 -10 10 0 10 0 0 10 0 10 -10 0 -10 0 0 -10z"/>
<path d="M360 950 l0 -10 10 0 10 0 0 10 0 10 -10 0 -10 0 0 -10z"/>
<path d="M420 950 l0 -10 10 0 10 0 0 10 0 10 -10 0 -10 0 0 -10z"/>
<path d="M520 890 l0 -10 10 0 10 0 0 10 0 10 -10 0 -10 0 0 -10z"/>
<path d="M560 890 l0 -10 10 0 10 0 0 10 0 10 -10 0 -10 0 0 -10z"/>
<path d="M960 330 l0 -10 -16 0 -15 0 -15 -14 -14 -15 0 -15 0 -16 8 0 8 0 14
20 14 20 15 0 14 0 18 -22 19 -21 7 7 7 7 -14 10 -15 9 15 9 14 10 -8 8 -9 8
-4 -12 -5 -13 -9 0 -9 0 0 20 0 20 -10 0 -10 0 0 -10z"/>
<path d="M480 290 l0 -10 10 0 10 0 0 10 0 10 -10 0 -10 0 0 -10z"/>
</g>
</svg>
