<?xml version="1.0" standalone="no"?>
<!DOCTYPE svg PUBLIC "-//W3C//DTD SVG 20010904//EN"
 "http://www.w3.org/TR/2001/REC-SVG-20010904/DTD/svg10.dtd">
<svg version="1.0" xmlns="http://www.w3.org/2000/svg"
 width="468pt" height="468pt" viewBox="0 0 468 468"
 preserveAspectRatio="xMidYMid meet">
<metadata>
Created by potrace 1.8, written by Peter Selinger 2001-2007
</metadata>
<g transform="translate(0,468) scale(0.365625,-0.365625)"
fill="#000000" stroke="none">
<path d="M0 640 l0 -640 640 0 640 0 0 640 0 640 -640 0 -640 0 0 -640z m540
610 l0 -10 110 0 110 0 0 10 0 10 250 0 250 0 0 -250 0 -250 -10 0 -10 0 0
-110 0 -110 10 0 10 0 0 -260 0 -260 -620 0 -620 0 0 620 0 620 260 0 260 0 0
-10z"/>
<path d="M460 1230 l0 -10 -20 0 -20 0 0 -10 0 -10 -28 0 -28 0 -14 -20 -14
-20 -13 0 -13 0 -85 -85 -85 -85 0 -13 0 -13 -20 -14 -20 -14 0 -28 0 -28 -10
0 -10 0 0 -20 0 -20 -10 0 -10 0 0 -40 0 -40 -10 0 -10 0 0 -110 0 -110 10 0
10 0 0 -40 0 -40 10 0 10 0 0 -20 0 -20 10 0 10 0 0 -28 0 -28 20 -14 20 -14
0 -13 0 -13 85 -85 85 -85 13 0 13 0 14 -20 14 -20 28 0 28 0 0 -10 0 -10 20
0 20 0 0 -10 0 -10 40 0 40 0 0 -10 0 -10 110 0 110 0 0 10 0 10 40 0 40 0 0
10 0 10 20 0 20 0 0 10 0 10 28 0 28 0 14 20 14 20 13 0 13 0 85 85 85 85 0
13 0 13 20 14 20 14 0 28 0 28 10 0 10 0 0 20 0 20 10 0 10 0 0 40 0 40 -10 0
-10 0 0 -40 0 -40 -10 0 -10 0 0 -20 0 -20 -10 0 -10 0 0 -28 0 -28 -20 -14
-20 -14 0 -13 0 -13 -75 -75 -75 -75 -13 0 -13 0 -14 -20 -14 -20 -28 0 -28 0
0 -10 0 -10 -20 0 -20 0 0 -10 0 -10 -40 0 -40 0 0 -10 0 -10 -110 0 -110 0 0
10 0 10 -40 0 -40 0 0 10 0 10 -20 0 -20 0 0 10 0 10 -28 0 -28 0 -14 20 -14
20 -13 0 -13 0 -75 75 -75 75 0 13 0 13 -20 14 -20 14 0 28 0 28 -10 0 -10 0
0 20 0 20 -10 0 -10 0 0 40 0 40 -10 0 -10 0 0 110 0 110 10 0 10 0 0 40 0 40
10 0 10 0 0 20 0 20 10 0 10 0 0 28 0 28 20 14 20 14 0 13 0 13 75 75 75 75
13 0 13 0 14 20 14 20 28 0 28 0 0 10 0 10 20 0 20 0 0 10 0 10 40 0 40 0 0
10 0 10 -40 0 -40 0 0 -10z"/>
<path d="M760 1230 l0 -10 40 0 40 0 0 -10 0 -10 20 0 20 0 0 -10 0 -10 28 0
28 0 14 -20 14 -20 13 0 13 0 75 -75 75 -75 0 -13 0 -13 20 -14 20 -14 0 -28
0 -28 10 0 10 0 0 -20 0 -20 10 0 10 0 0 -40 0 -40 10 0 10 0 0 40 0 40 -10 0
-10 0 0 20 0 20 -10 0 -10 0 0 28 0 28 -20 14 -20 14 0 13 0 13 -85 85 -85 85
-13 0 -13 0 -14 20 -14 20 -28 0 -28 0 0 10 0 10 -20 0 -20 0 0 10 0 10 -40 0
-40 0 0 -10z"/>
<path d="M460 720 l0 -80 20 0 20 0 0 80 0 80 -20 0 -20 0 0 -80z"/>
<path d="M780 720 l0 -80 20 0 20 0 0 80 0 80 -20 0 -20 0 0 -80z"/>
<path d="M160 610 l0 -50 10 0 10 0 0 -40 0 -40 10 0 10 0 0 -20 0 -20 10 0
10 0 0 -18 0 -18 20 -14 20 -14 0 -13 0 -14 45 -44 44 -45 14 0 13 0 14 -20
14 -20 18 0 18 0 0 -10 0 -10 20 0 20 0 0 -10 0 -10 40 0 40 0 0 -10 0 -10 90
0 90 0 0 10 0 10 40 0 40 0 0 10 0 10 20 0 20 0 0 10 0 10 18 0 18 0 14 20 14
20 13 0 14 0 44 45 45 44 0 14 0 13 20 14 20 14 0 18 0 18 10 0 10 0 0 20 0
20 10 0 10 0 0 40 0 40 10 0 10 0 0 50 0 50 -20 0 -20 0 0 -50 0 -50 -10 0
-10 0 0 -40 0 -40 -10 0 -10 0 0 -20 0 -20 -10 0 -10 0 0 -18 0 -18 -20 -14
-20 -14 0 -14 0 -13 -14 -15 -15 -14 -11 0 -12 0 -28 -30 -28 -30 -16 0 -16 0
0 -10 0 -10 -20 0 -20 0 0 -10 0 -10 -40 0 -40 0 0 -10 0 -10 -90 0 -90 0 0
10 0 10 -40 0 -40 0 0 10 0 10 -20 0 -20 0 0 10 0 10 -20 0 -20 0 0 10 0 10
-15 0 -16 0 -34 35 -35 34 0 13 0 14 -20 14 -20 14 0 18 0 18 -10 0 -10 0 0
20 0 20 -10 0 -10 0 0 40 0 40 -10 0 -10 0 0 50 0 50 -20 0 -20 0 0 -50z"/>
</g>
</svg>
