<?xml version="1.0" standalone="no"?>
<!DOCTYPE svg PUBLIC "-//W3C//DTD SVG 20010904//EN"
 "http://www.w3.org/TR/2001/REC-SVG-20010904/DTD/svg10.dtd">
<svg version="1.0" xmlns="http://www.w3.org/2000/svg"
 width="468pt" height="468pt" viewBox="0 0 468 468"
 preserveAspectRatio="xMidYMid meet">
<metadata>
Created by potrace 1.8, written by Peter Selinger 2001-2007
</metadata>
<g transform="translate(0,468) scale(0.365625,-0.365625)"
fill="#000000" stroke="none">
<path d="M330 1260 l0 -20 -10 0 -10 0 0 -15 0 -15 10 0 10 0 0 11 0 10 14 15
15 14 20 0 21 0 0 10 0 10 -35 0 -35 0 0 -20z"/>
<path d="M423 1255 l-23 -24 0 -11 0 -10 10 0 10 0 0 11 0 10 14 15 15 14 19
0 20 0 5 -12 4 -13 8 7 7 7 -15 16 -16 15 -18 -1 -18 0 -22 -24z"/>
<path d="M530 1270 l0 -10 10 0 10 0 0 10 0 10 -10 0 -10 0 0 -10z"/>
<path d="M1080 1270 l0 -10 25 0 25 0 0 10 0 10 -25 0 -25 0 0 -10z"/>
<path d="M1150 1250 l0 -10 10 0 10 0 0 -15 0 -15 20 0 20 0 0 15 0 15 15 0
15 0 0 10 0 10 -15 0 -15 0 0 -10 0 -10 -20 0 -20 0 0 10 0 10 -10 0 -10 0 0
-10z"/>
<path d="M990 1225 l0 -15 15 0 15 0 0 -10 0 -10 16 0 15 0 15 14 14 15 0 10
0 11 -10 0 -10 0 0 -15 0 -15 -20 0 -20 0 0 15 0 15 -15 0 -15 0 0 -15z"/>
<path d="M290 1160 l0 -30 -25 0 -25 0 0 -25 0 -25 -45 0 -45 0 0 -10 0 -10
11 0 12 0 20 -22 20 -23 4 13 5 12 79 0 79 0 0 -10 0 -10 16 0 15 0 15 14 14
15 0 15 0 16 -45 0 -45 0 0 25 0 25 -10 0 -10 0 0 30 0 30 -20 0 -20 0 0 -30z
m40 -70 l0 -10 -35 0 -35 0 0 10 0 10 35 0 35 0 0 -10z"/>
<path d="M1140 1080 l-14 -20 -12 0 -12 0 -5 13 -5 12 -11 -15 -11 -15 -11 15
-11 15 -5 -12 -5 -13 -23 0 -23 0 -6 13 -6 12 -6 -12 -6 -13 -33 0 -33 0 -5
13 -5 12 -12 -15 -12 -15 -5 13 -5 12 -19 0 -19 0 0 -10 0 -10 -24 0 -24 0 -5
13 -5 12 -11 -15 -11 -15 -11 15 -11 15 -5 -12 -5 -13 -14 0 -14 0 0 10 0 10
-19 0 -19 0 -6 -12 -6 -13 -6 13 -6 12 -24 0 -24 0 0 -10 0 -10 -55 0 -55 0 0
-10 0 -10 55 0 55 0 0 10 0 10 24 0 24 0 6 -12 6 -13 6 13 6 12 19 0 19 0 0
-10 0 -10 14 0 14 0 5 13 5 12 11 -15 11 -15 11 15 11 15 5 -12 5 -13 54 0 54
0 0 10 0 10 10 0 10 0 0 -20 0 -20 15 0 15 0 0 10 0 10 19 0 19 0 6 13 6 12 6
-12 6 -13 79 0 79 0 0 10 0 10 20 0 20 0 0 -10 0 -10 31 0 30 0 16 15 15 16
-7 7 -8 7 -4 -12 -5 -13 -32 0 -32 0 -14 20 -14 20 -6 0 -6 0 -14 -20z"/>
<path d="M0 1060 l0 -20 65 0 65 0 0 6 0 5 -17 17 -16 17 -5 -13 -4 -12 -34 0
-34 0 0 10 0 10 -10 0 -10 0 0 -20z"/>
<path d="M220 1005 l0 -15 80 0 80 0 0 15 0 15 -80 0 -80 0 0 -15z"/>
<path d="M40 970 l0 -20 15 0 15 0 0 20 0 20 -15 0 -15 0 0 -20z"/>
<path d="M70 915 l0 -15 -15 0 -15 0 0 -10 0 -10 11 0 10 0 15 14 14 15 0 10
0 11 -10 0 -10 0 0 -15z"/>
<path d="M400 874 l0 -5 14 -15 15 -14 5 0 6 0 0 20 0 20 -20 0 -20 0 0 -6z"/>
<path d="M660 870 l0 -10 10 0 10 0 0 -20 0 -20 15 0 15 0 0 20 0 20 -15 0
-15 0 0 10 0 10 -10 0 -10 0 0 -10z"/>
<path d="M860 874 l0 -5 14 -15 15 -14 5 0 6 0 0 20 0 20 -20 0 -20 0 0 -6z"/>
<path d="M1060 850 l0 -10 20 0 20 0 0 10 0 10 -20 0 -20 0 0 -10z"/>
<path d="M180 795 l0 -25 10 0 10 0 0 25 0 25 -10 0 -10 0 0 -25z"/>
<path d="M561 774 l-13 -15 7 -7 8 -7 4 13 5 12 14 0 14 0 0 10 0 10 -12 0
-13 -1 -14 -15z"/>
<path d="M31 734 l-13 -15 7 -7 8 -7 4 13 5 12 14 0 14 0 0 10 0 10 -12 0 -13
-1 -14 -15z"/>
<path d="M600 740 l0 -10 10 0 10 0 0 10 0 10 -10 0 -10 0 0 -10z"/>
<path d="M310 720 l0 -10 35 0 35 0 0 10 0 10 -35 0 -35 0 0 -10z"/>
<path d="M1100 705 l0 -25 15 0 15 0 0 15 0 15 10 0 10 0 0 10 0 10 -25 0 -25
0 0 -25z"/>
<path d="M880 685 l0 -25 10 0 10 0 0 10 0 10 15 0 15 0 0 15 0 15 -25 0 -25
0 0 -25z"/>
<path d="M1060 695 l0 -15 10 0 10 0 0 15 0 15 -10 0 -10 0 0 -15z"/>
<path d="M0 561 l0 -9 13 -5 12 -5 -15 -11 -15 -11 15 -11 15 -11 -12 -5 -13
-5 0 -13 0 -13 13 -5 12 -5 -15 -11 -15 -11 15 -10 15 -10 -15 -11 -15 -11 12
-5 13 -5 0 -24 0 -24 10 0 10 0 0 25 0 25 35 0 35 0 0 -25 0 -25 10 0 10 0 0
25 0 25 35 0 35 0 0 -25 0 -25 10 0 10 0 0 25 0 25 35 0 35 0 0 -25 0 -25 10
0 10 0 0 25 0 25 20 0 20 0 0 -15 0 -15 14 0 14 0 6 -12 6 -13 6 13 6 12 29 0
29 0 0 -10 0 -10 15 0 15 0 0 10 0 10 29 0 29 0 6 -12 6 -13 6 13 6 12 33 0
33 0 6 -12 6 -13 6 13 6 12 34 0 34 0 0 -10 0 -10 10 0 10 0 0 25 0 25 35 0
35 0 0 -25 0 -25 10 0 10 0 0 25 0 25 30 0 30 0 0 -25 0 -25 15 0 15 0 0 25 0
25 30 0 30 0 0 -25 0 -25 15 0 15 0 0 25 0 25 30 0 30 0 0 -25 0 -25 10 0 10
0 0 25 0 25 35 0 35 0 0 -25 0 -25 10 0 10 0 0 25 0 25 35 0 35 0 0 -25 0 -25
10 0 10 0 0 44 0 44 -12 5 -13 5 15 12 15 12 -13 5 -12 5 0 13 0 13 13 5 12 5
-15 12 -15 12 12 5 13 5 0 9 0 9 -90 0 -90 0 0 10 0 10 -550 0 -550 0 0 -9z
m73 -23 l5 -13 11 15 11 15 10 -15 10 -15 11 15 11 15 5 -12 5 -13 13 0 13 0
5 13 5 12 11 -15 11 -15 10 15 10 15 11 -15 11 -15 5 13 5 12 13 0 13 0 5 -12
5 -13 11 15 11 15 11 -15 11 -15 5 13 5 12 13 0 13 0 5 -12 5 -13 11 15 11 15
10 -15 10 -15 11 15 11 15 5 -12 5 -13 13 0 13 0 5 13 5 12 11 -15 11 -15 10
15 10 15 11 -15 11 -15 5 13 5 12 13 0 13 0 5 -12 5 -13 11 15 11 15 10 -15
10 -15 11 15 11 15 5 -12 5 -13 13 0 13 0 5 13 5 12 11 -15 11 -15 10 15 10
15 11 -15 11 -15 5 13 5 12 13 0 13 0 5 -12 5 -13 11 15 11 15 10 -15 10 -15
11 15 11 15 5 -12 5 -13 13 0 13 0 5 13 5 12 11 -15 11 -15 11 15 11 15 5 -12
5 -13 13 0 13 0 5 13 5 12 11 -15 11 -15 9 15 10 14 19 -22 19 -22 11 0 10 0
5 13 5 12 11 -15 11 -15 10 15 10 15 11 -15 11 -15 5 13 5 12 10 0 9 0 17 -17
17 -16 -13 -5 -12 -4 0 -13 0 -13 12 -5 13 -5 -15 -11 -15 -11 15 -9 14 -10
-8 -8 -9 -8 -4 13 -5 12 -13 0 -13 0 -5 -12 -5 -13 -11 15 -11 15 -10 -15 -10
-15 -11 15 -11 15 -5 -12 -5 -13 -13 0 -13 0 -5 13 -5 12 -11 -15 -11 -15 -10
15 -10 15 -11 -15 -11 -15 -5 13 -5 12 -13 0 -13 0 -5 -12 -5 -13 -11 15 -11
15 -11 -15 -11 -15 -5 13 -5 12 -13 0 -13 0 -5 -12 -5 -13 -11 15 -11 15 -10
-15 -10 -15 -11 15 -11 15 -5 -12 -5 -13 -13 0 -13 0 -5 13 -5 12 -11 -15 -11
-15 -10 15 -10 15 -11 -15 -11 -15 -5 13 -5 12 -10 0 -11 0 -19 -22 -19 -22
-10 14 -9 15 -11 -15 -11 -15 -5 13 -5 12 -13 0 -13 0 -5 -12 -5 -13 -11 15
-11 15 -10 -15 -10 -15 -11 15 -11 15 -5 -12 -5 -13 -13 0 -13 0 -5 13 -5 12
-11 -15 -10 -14 -22 24 -22 25 -4 -12 -5 -13 -13 0 -13 0 -5 13 -5 12 -11 -15
-11 -15 -11 15 -11 15 -5 -12 -5 -13 -13 0 -13 0 -5 13 -5 12 -11 -15 -11 -15
-10 15 -10 15 -11 -15 -11 -15 -5 13 -5 12 -13 0 -13 0 -5 -12 -5 -13 -11 15
-11 15 -10 -15 -10 -15 -11 15 -11 15 -5 -12 -5 -13 -10 0 -9 0 -16 16 -16 16
14 10 14 10 -12 5 -13 5 0 13 0 13 13 5 12 5 -14 10 -14 10 14 16 14 15 12 1
11 0 5 -12z"/>
<path d="M40 520 l0 -10 11 0 10 0 15 -14 14 -15 0 -6 0 -6 -14 -15 -15 -14
-10 0 -11 0 0 -10 0 -10 14 0 14 0 5 13 5 12 11 -15 11 -15 10 15 10 15 11
-15 11 -15 5 13 5 12 13 0 13 0 5 -12 5 -13 11 15 11 15 10 -15 10 -15 11 15
11 15 5 -12 5 -13 13 0 13 0 5 13 5 12 11 -15 11 -15 11 15 11 15 5 -12 5 -13
13 0 13 0 5 13 4 12 22 -25 22 -24 10 14 11 15 5 -12 5 -13 13 0 13 0 5 13 5
12 11 -15 11 -15 10 15 10 15 11 -15 11 -15 5 13 5 12 13 0 13 0 5 -12 5 -13
11 15 11 15 9 -15 10 -14 19 22 19 22 11 0 10 0 5 -12 5 -13 11 15 11 15 10
-15 10 -15 11 15 11 15 5 -12 5 -13 13 0 13 0 5 13 5 12 11 -15 11 -15 10 15
10 15 11 -15 11 -15 5 13 5 12 13 0 13 0 5 -12 5 -13 11 15 11 15 11 -15 11
-15 5 13 5 12 13 0 13 0 5 -12 5 -13 11 15 11 15 10 -15 10 -15 11 15 11 15 5
-12 5 -13 13 0 13 0 5 13 5 12 11 -15 11 -15 10 15 10 15 11 -15 11 -15 5 13
5 12 14 0 14 0 0 10 0 10 -15 0 -15 0 0 15 0 15 15 0 15 0 0 10 0 10 -14 0
-14 0 -5 -12 -5 -13 -11 15 -11 15 -10 -15 -10 -15 -11 15 -11 15 -5 -12 -5
-13 -10 0 -11 0 -19 22 -19 22 -10 -14 -9 -15 -11 15 -11 15 -5 -12 -5 -13
-13 0 -13 0 -5 13 -5 12 -11 -15 -11 -15 -11 15 -11 15 -5 -12 -5 -13 -13 0
-13 0 -5 13 -5 12 -11 -15 -11 -15 -10 15 -10 15 -11 -15 -11 -15 -5 13 -5 12
-13 0 -13 0 -5 -12 -5 -13 -11 15 -11 15 -10 -15 -10 -15 -11 15 -11 15 -5
-12 -5 -13 -13 0 -13 0 -5 13 -5 12 -11 -15 -11 -15 -10 15 -10 15 -11 -15
-11 -15 -5 13 -5 12 -13 0 -13 0 -5 -12 -5 -13 -11 15 -11 15 -10 -15 -10 -15
-11 15 -11 15 -5 -12 -5 -13 -13 0 -13 0 -5 13 -5 12 -11 -15 -11 -15 -10 15
-10 15 -11 -15 -11 -15 -5 13 -5 12 -13 0 -13 0 -5 -12 -5 -13 -11 15 -11 15
-11 -15 -11 -15 -5 13 -5 12 -13 0 -13 0 -5 -12 -5 -13 -11 15 -11 15 -10 -15
-10 -15 -11 15 -11 15 -5 -12 -5 -13 -13 0 -13 0 -5 13 -5 12 -11 -15 -11 -15
-10 15 -10 15 -11 -15 -11 -15 -5 13 -5 12 -14 0 -14 0 0 -10z m73 -22 l5 -13
12 15 12 15 5 -12 5 -13 13 0 13 0 5 13 5 12 11 -15 11 -15 10 15 10 15 11
-15 11 -15 5 13 5 12 13 0 13 0 5 -12 5 -13 11 15 11 15 11 -15 11 -15 5 13 5
12 13 0 13 0 5 -12 5 -13 11 15 11 15 10 -15 10 -15 11 15 11 15 5 -12 5 -13
13 0 13 0 5 13 5 12 11 -15 11 -15 10 15 10 15 11 -15 11 -15 5 13 5 12 13 0
13 0 5 -12 5 -13 11 15 11 15 10 -15 10 -15 11 15 11 15 5 -12 5 -13 13 0 13
0 5 13 5 12 11 -15 11 -15 10 15 10 15 11 -15 11 -15 5 13 5 12 13 0 13 0 5
-12 5 -13 11 15 11 15 10 -15 10 -15 11 15 11 15 5 -12 5 -13 13 0 13 0 5 13
5 12 11 -15 11 -15 11 15 11 15 5 -12 5 -13 13 0 13 0 5 13 5 12 11 -15 11
-15 9 14 9 14 16 -16 16 -16 0 -10 0 -11 15 0 15 0 0 15 0 15 10 0 10 0 0 -15
0 -15 10 0 10 0 0 15 0 15 10 0 10 0 0 -14 0 -14 13 -5 12 -4 -8 -9 -8 -8 -10
14 -9 15 -10 -15 -10 -15 -11 15 -11 15 -5 -12 -5 -13 -13 0 -13 0 -5 13 -5
12 -11 -15 -11 -15 -10 15 -10 15 -11 -15 -11 -15 -5 13 -5 12 -13 0 -13 0 -5
-12 -5 -13 -11 15 -11 15 -11 -15 -11 -15 -5 13 -5 12 -13 0 -13 0 -5 -12 -5
-13 -11 15 -11 15 -10 -15 -10 -15 -11 15 -11 15 -5 -12 -5 -13 -13 0 -13 0
-5 13 -5 12 -11 -15 -11 -15 -10 15 -10 15 -11 -15 -11 -15 -5 13 -5 12 -10 0
-11 0 -19 -22 -19 -22 -10 14 -9 15 -11 -15 -11 -15 -5 13 -5 12 -13 0 -13 0
-5 -12 -5 -13 -11 15 -11 15 -10 -15 -10 -15 -11 15 -11 15 -5 -12 -5 -13 -13
0 -13 0 -5 13 -5 12 -11 -15 -10 -14 -22 24 -22 25 -4 -12 -5 -13 -13 0 -13 0
-5 13 -5 12 -11 -15 -11 -15 -11 15 -11 15 -5 -12 -5 -13 -13 0 -13 0 -5 13
-5 12 -11 -15 -11 -15 -10 15 -10 15 -11 -15 -11 -15 -5 13 -5 12 -13 0 -13 0
-5 -12 -5 -13 -11 15 -11 15 -9 -15 -10 -14 -8 8 -8 9 13 4 12 5 0 14 0 14
-10 0 -10 0 0 10 0 10 9 0 9 0 5 -12z"/>
<path d="M130 475 l0 -15 10 0 10 0 0 15 0 15 -10 0 -10 0 0 -15z"/>
<path d="M180 475 l0 -15 10 0 10 0 0 15 0 15 -10 0 -10 0 0 -15z"/>
<path d="M220 475 l0 -15 10 0 10 0 0 15 0 15 -10 0 -10 0 0 -15z"/>
<path d="M260 475 l0 -15 15 0 15 0 0 15 0 15 -15 0 -15 0 0 -15z"/>
<path d="M310 475 l0 -15 10 0 10 0 0 15 0 15 -10 0 -10 0 0 -15z"/>
<path d="M350 475 l0 -15 15 0 15 0 0 15 0 15 -15 0 -15 0 0 -15z"/>
<path d="M400 479 l0 -10 16 -16 16 -16 10 14 10 14 5 -12 5 -13 13 0 13 0 5
13 5 12 11 -15 11 -15 10 15 10 15 11 -15 11 -15 5 13 5 12 13 0 13 0 5 -12 5
-13 11 15 11 15 9 -14 9 -14 16 16 16 16 0 10 0 11 -10 0 -10 0 0 -15 0 -15
-10 0 -10 0 0 15 0 15 -10 0 -10 0 0 -15 0 -15 -10 0 -10 0 0 15 0 15 -15 0
-15 0 0 -15 0 -15 -10 0 -10 0 0 15 0 15 -10 0 -10 0 0 -15 0 -15 -10 0 -10 0
0 15 0 15 -10 0 -10 0 0 -15 0 -15 -15 0 -15 0 0 15 0 15 -10 0 -10 0 0 -15 0
-15 -10 0 -10 0 0 15 0 15 -10 0 -10 0 0 -11z"/>
<path d="M710 475 l0 -15 10 0 10 0 0 15 0 15 -10 0 -10 0 0 -15z"/>
<path d="M750 475 l0 -15 10 0 10 0 0 15 0 15 -10 0 -10 0 0 -15z"/>
<path d="M790 475 l0 -15 15 0 15 0 0 15 0 15 -15 0 -15 0 0 -15z"/>
<path d="M840 475 l0 -15 10 0 10 0 0 15 0 15 -10 0 -10 0 0 -15z"/>
<path d="M880 475 l0 -15 10 0 10 0 0 15 0 15 -10 0 -10 0 0 -15z"/>
<path d="M930 475 l0 -15 10 0 10 0 0 15 0 15 -10 0 -10 0 0 -15z"/>
<path d="M970 475 l0 -15 10 0 10 0 0 15 0 15 -10 0 -10 0 0 -15z"/>
<path d="M1020 475 l0 -15 10 0 10 0 0 15 0 15 -10 0 -10 0 0 -15z"/>
<path d="M1060 475 l0 -15 10 0 10 0 0 15 0 15 -10 0 -10 0 0 -15z"/>
<path d="M40 475 l0 -15 15 0 15 0 0 15 0 15 -15 0 -15 0 0 -15z"/>
<path d="M70 310 l0 -20 10 0 10 0 0 20 0 20 -10 0 -10 0 0 -20z"/>
<path d="M150 310 l0 -20 15 0 15 0 0 20 0 20 -15 0 -15 0 0 -20z"/>
<path d="M240 310 l0 -20 10 0 10 0 0 20 0 20 -10 0 -10 0 0 -20z"/>
<path d="M330 310 l0 -20 10 0 10 0 0 20 0 20 -10 0 -10 0 0 -20z"/>
<path d="M420 310 l0 -20 10 0 10 0 0 20 0 20 -10 0 -10 0 0 -20z"/>
<path d="M510 310 l0 -20 -25 0 -25 0 0 -15 0 -15 -30 0 -30 0 0 15 0 15 -10
0 -10 0 0 -15 0 -15 -35 0 -35 0 0 15 0 15 -10 0 -10 0 0 -15 0 -15 -35 0 -35
0 0 15 0 15 -10 0 -10 0 0 -15 0 -15 -35 0 -35 0 0 15 0 15 -10 0 -10 0 0 -15
0 -15 -35 0 -35 0 0 15 0 15 -10 0 -10 0 0 -25 0 -25 10 0 10 0 0 -20 0 -20
-10 0 -10 0 0 -25 0 -25 10 0 10 0 0 15 0 15 35 0 35 0 0 -15 0 -15 10 0 10 0
0 15 0 15 35 0 35 0 0 -15 0 -15 10 0 10 0 0 15 0 15 35 0 35 0 0 -15 0 -15
10 0 10 0 0 15 0 15 35 0 35 0 0 -15 0 -15 10 0 10 0 0 15 0 15 30 0 30 0 0
-35 0 -35 -10 0 -10 0 0 20 0 20 -10 0 -10 0 0 -20 0 -20 -35 0 -35 0 0 20 0
20 -10 0 -10 0 0 -20 0 -20 -35 0 -35 0 0 20 0 20 -10 0 -10 0 0 -20 0 -20
-30 0 -30 0 0 20 0 20 -15 0 -15 0 0 -20 0 -20 -30 0 -30 0 0 20 0 20 -10 0
-10 0 0 -20 0 -20 -35 0 -35 0 0 -34 0 -34 13 -5 12 -5 -15 -11 -14 -10 7 -8
8 -7 10 14 11 15 5 -13 5 -12 34 0 34 0 0 9 0 9 -12 5 -13 4 7 8 8 8 19 -21
18 -22 32 0 31 0 0 9 0 9 -12 5 -13 4 7 8 8 8 19 -21 18 -22 32 0 31 0 0 10 0
10 -15 0 -15 0 0 10 0 10 13 0 13 0 14 -20 14 -20 33 0 33 0 0 10 0 10 -15 0
-15 0 0 10 0 10 13 0 13 0 14 -20 14 -20 28 0 28 0 0 9 0 9 -12 5 -13 4 9 9 9
9 4 -12 5 -13 14 0 14 0 0 -10 0 -10 30 0 30 0 0 9 0 9 -12 5 -13 4 7 8 8 8
19 -21 18 -22 32 0 31 0 0 9 0 9 -12 5 -13 4 7 8 8 8 19 -21 18 -22 32 0 31 0
0 9 0 9 -12 5 -13 4 7 8 8 8 19 -21 18 -22 32 0 31 0 0 10 0 10 -15 0 -15 0 0
10 0 10 13 0 13 0 14 -20 14 -20 28 0 28 0 0 9 0 9 -12 5 -13 4 9 9 9 9 4 -12
5 -13 14 0 14 0 0 -10 0 -10 30 0 30 0 0 9 0 9 -12 5 -13 4 9 9 9 9 4 -12 5
-13 14 0 14 0 0 -10 0 -10 30 0 30 0 0 9 0 9 -12 5 -13 4 7 8 8 8 19 -21 18
-22 32 0 31 0 0 9 0 9 -12 5 -13 4 7 8 8 8 19 -21 18 -22 27 0 27 0 15 14 14
15 0 27 0 27 -22 18 -21 19 8 8 8 7 4 -12 5 -13 9 0 9 0 0 100 0 100 -20 0
-20 0 0 10 0 10 -15 0 -15 0 0 -10 0 -10 -29 0 -29 0 -6 13 -6 12 -6 -12 -6
-13 -33 0 -33 0 -6 13 -6 12 -6 -12 -6 -13 -33 0 -33 0 -6 13 -6 12 -6 -12 -6
-13 -33 0 -33 0 -6 13 -6 12 -6 -12 -6 -13 -33 0 -33 0 -6 13 -6 12 -6 -12 -6
-13 -29 0 -29 0 0 10 0 10 -15 0 -15 0 0 -10 0 -10 -20 0 -20 0 0 -10 0 -10
-10 0 -10 0 0 20 0 20 -10 0 -10 0 0 -20 0 -20 -35 0 -35 0 0 20 0 20 -10 0
-10 0 0 -20z m94 -102 l6 -13 6 13 6 12 29 0 29 0 0 -10 0 -10 15 0 15 0 0 10
0 10 30 0 30 0 0 -10 0 -10 25 0 25 0 0 -25 0 -25 -35 0 -35 0 0 25 0 25 -10
0 -10 0 0 -25 0 -25 -35 0 -35 0 0 25 0 25 -10 0 -10 0 0 -25 0 -25 -35 0 -35
0 0 25 0 25 -10 0 -10 0 0 10 0 10 24 0 24 0 6 -12z m296 -33 l0 -25 -30 0
-30 0 0 25 0 25 30 0 30 0 0 -25z m90 0 l0 -25 -30 0 -30 0 0 25 0 25 30 0 30
0 0 -25z m90 0 l0 -25 -30 0 -30 0 0 25 0 25 30 0 30 0 0 -25z m90 0 l0 -25
-35 0 -35 0 0 25 0 25 35 0 35 0 0 -25z m90 0 l0 -25 -35 0 -35 0 0 25 0 25
35 0 35 0 0 -25z m-710 -10 l0 -15 -30 0 -30 0 0 15 0 15 30 0 30 0 0 -15z m7
-50 l15 -16 -5 -6 -6 -5 -16 15 -15 16 0 5 0 6 6 0 5 0 16 -15z m90 0 l15 -16
-5 -6 -6 -5 -16 15 -15 16 0 5 0 6 6 0 5 0 16 -15z m90 0 l15 -16 -5 -6 -6 -5
-16 15 -15 16 0 5 0 6 6 0 5 0 16 -15z m90 0 l15 -16 -7 -7 -8 -7 -4 13 -5 12
-14 0 -14 0 0 10 0 10 11 0 10 0 16 -15z m73 5 l0 -10 15 0 15 0 0 -10 0 -10
-11 0 -10 0 -15 14 -14 15 0 5 0 6 10 0 10 0 0 -10z m90 0 l0 -10 15 0 15 0 0
-10 0 -10 -11 0 -10 0 -15 14 -14 15 0 5 0 6 10 0 10 0 0 -10z m97 -5 l15 -16
-5 -6 -6 -5 -16 15 -15 16 0 5 0 6 6 0 5 0 16 -15z m90 0 l15 -16 -5 -6 -6 -5
-16 15 -15 16 0 5 0 6 6 0 5 0 16 -15z m-1087 -35 l0 -10 -10 0 -10 0 0 -15 0
-15 -15 0 -15 0 0 15 0 15 15 0 15 0 0 10 0 10 10 0 10 0 0 -10z m90 0 l0 -10
-15 0 -15 0 0 -15 0 -15 -10 0 -10 0 0 10 0 11 13 14 12 14 13 1 12 0 0 -10z
m80 0 l0 -10 -10 0 -10 0 0 -15 0 -15 -10 0 -10 0 0 10 0 11 13 14 12 14 8 1
7 0 0 -10z m90 0 l0 -10 -10 0 -10 0 0 -15 0 -15 -10 0 -10 0 0 10 0 11 13 14
12 14 8 1 7 0 0 -10z m90 0 l0 -10 -10 0 -10 0 0 -15 0 -15 -10 0 -10 0 0 10
0 11 13 14 12 14 8 1 7 0 0 -10z m90 0 l0 -10 -10 0 -10 0 0 -15 0 -15 -10 0
-10 0 0 10 0 11 13 14 12 14 8 1 7 0 0 -10z m90 0 l0 -10 -10 0 -10 0 0 -15 0
-15 -15 0 -15 0 0 15 0 15 15 0 15 0 0 10 0 10 10 0 10 0 0 -10z m90 0 l0 -10
-15 0 -15 0 0 -15 0 -15 -10 0 -10 0 0 10 0 11 13 14 12 14 13 1 12 0 0 -10z
m80 0 l0 -10 -10 0 -10 0 0 -15 0 -15 -10 0 -10 0 0 10 0 11 13 14 12 14 8 1
7 0 0 -10z m90 0 l0 -10 -10 0 -10 0 0 -15 0 -15 -10 0 -10 0 0 10 0 11 13 14
12 14 8 1 7 0 0 -10z m90 0 l0 -10 -10 0 -10 0 0 -15 0 -15 -10 0 -10 0 0 10
0 11 13 14 12 14 8 1 7 0 0 -10z m90 0 l0 -10 -10 0 -10 0 0 -15 0 -15 -10 0
-10 0 0 10 0 11 13 14 12 14 8 1 7 0 0 -10z m90 0 l0 -10 -10 0 -10 0 0 -15 0
-15 -15 0 -15 0 0 15 0 15 15 0 15 0 0 10 0 10 10 0 10 0 0 -10z m90 0 l0 -10
-15 0 -15 0 0 -15 0 -15 -10 0 -10 0 0 10 0 11 13 14 12 14 13 1 12 0 0 -10z
m20 -50 l0 -10 -10 0 -10 0 0 10 0 10 10 0 10 0 0 -10z"/>
</g>
</svg>
