<?xml version="1.0" standalone="no"?>
<!DOCTYPE svg PUBLIC "-//W3C//DTD SVG 20010904//EN"
 "http://www.w3.org/TR/2001/REC-SVG-20010904/DTD/svg10.dtd">
<svg version="1.0" xmlns="http://www.w3.org/2000/svg"
 width="468pt" height="468pt" viewBox="0 0 468 468"
 preserveAspectRatio="xMidYMid meet">
<metadata>
Created by potrace 1.8, written by Peter Selinger 2001-2007
</metadata>
<g transform="translate(0,468) scale(0.365625,-0.365625)"
fill="#000000" stroke="none">
<path d="M200 1180 l0 -20 -40 0 -40 0 0 -20 0 -20 -20 0 -20 0 0 -20 0 -20
-20 0 -20 0 0 -40 0 -40 -20 0 -20 0 0 -120 0 -120 20 0 20 0 0 -40 0 -40 20
0 20 0 0 -20 0 -20 20 0 20 0 0 -20 0 -20 40 0 40 0 0 -20 0 -20 20 0 20 0 0
-20 0 -20 20 0 20 0 0 -20 0 -20 20 0 20 0 0 -20 0 -20 -20 0 -20 0 0 -20 0
-20 -20 0 -20 0 0 -100 0 -100 20 0 20 0 0 -20 0 -20 20 0 20 0 0 -20 0 -20
-20 0 -20 0 0 -20 0 -20 20 0 20 0 0 20 0 20 20 0 20 0 0 -20 0 -20 20 0 20 0
0 20 0 20 20 0 20 0 0 -20 0 -20 20 0 20 0 0 20 0 20 20 0 20 0 0 -20 0 -20
20 0 20 0 0 20 0 20 20 0 20 0 0 -20 0 -20 20 0 20 0 0 20 0 20 20 0 20 0 0
-20 0 -20 20 0 20 0 0 20 0 20 20 0 20 0 0 -20 0 -20 20 0 20 0 0 20 0 20 20
0 20 0 0 -20 0 -20 20 0 20 0 0 20 0 20 20 0 20 0 0 -20 0 -20 20 0 20 0 0 20
0 20 20 0 20 0 0 -20 0 -20 20 0 20 0 0 20 0 20 20 0 20 0 0 20 0 20 -20 0
-20 0 0 20 0 20 20 0 20 0 0 20 0 20 -20 0 -20 0 0 20 0 20 20 0 20 0 0 20 0
20 -20 0 -20 0 0 40 0 40 -20 0 -20 0 0 20 0 20 20 0 20 0 0 20 0 20 20 0 20
0 0 20 0 20 20 0 20 0 0 40 0 40 20 0 20 0 0 -20 0 -20 20 0 20 0 0 20 0 20
20 0 20 0 0 20 0 20 20 0 20 0 0 20 0 20 -20 0 -20 0 0 20 0 20 20 0 20 0 0
140 0 140 -20 0 -20 0 0 40 0 40 -20 0 -20 0 0 20 0 20 -20 0 -20 0 0 20 0 20
-40 0 -40 0 0 20 0 20 -120 0 -120 0 0 -20 0 -20 -40 0 -40 0 0 -20 0 -20 -20
0 -20 0 0 -20 0 -20 -20 0 -20 0 0 -40 0 -40 -40 0 -40 0 0 40 0 40 -20 0 -20
0 0 20 0 20 -20 0 -20 0 0 20 0 20 -40 0 -40 0 0 20 0 20 -120 0 -120 0 0 -20z
m240 -40 l0 -20 20 0 20 0 0 -20 0 -20 20 0 20 0 0 -20 0 -20 20 0 20 0 0 -20
0 -20 20 0 20 0 0 -120 0 -120 -20 0 -20 0 0 -20 0 -20 -20 0 -20 0 0 -20 0
-20 -20 0 -20 0 0 -20 0 -20 -20 0 -20 0 0 -20 0 -20 -120 0 -120 0 0 20 0 20
-20 0 -20 0 0 20 0 20 -20 0 -20 0 0 20 0 20 -20 0 -20 0 0 20 0 20 -20 0 -20
0 0 120 0 120 20 0 20 0 0 20 0 20 20 0 20 0 0 20 0 20 20 0 20 0 0 20 0 20
20 0 20 0 0 20 0 20 120 0 120 0 0 -20z m640 0 l0 -20 20 0 20 0 0 -20 0 -20
20 0 20 0 0 -20 0 -20 20 0 20 0 0 -20 0 -20 20 0 20 0 0 -120 0 -120 -20 0
-20 0 0 -20 0 -20 -20 0 -20 0 0 -20 0 -20 -20 0 -20 0 0 -20 0 -20 -20 0 -20
0 0 -20 0 -20 -120 0 -120 0 0 -20 0 -20 20 0 20 0 0 -20 0 -20 20 0 20 0 0
20 0 20 40 0 40 0 0 -20 0 -20 20 0 20 0 0 20 0 20 20 0 20 0 0 -20 0 -20 -20
0 -20 0 0 -20 0 -20 -20 0 -20 0 0 -20 0 -20 -20 0 -20 0 0 -20 0 -20 20 0 20
0 0 -60 0 -60 -20 0 -20 0 0 -20 0 -20 20 0 20 0 0 -20 0 -20 -120 0 -120 0 0
20 0 20 20 0 20 0 0 20 0 20 40 0 40 0 0 20 0 20 -60 0 -60 0 0 40 0 40 -20 0
-20 0 0 -20 0 -20 -80 0 -80 0 0 20 0 20 -20 0 -20 0 0 -40 0 -40 -60 0 -60 0
0 -20 0 -20 60 0 60 0 0 -40 0 -40 -120 0 -120 0 0 20 0 20 20 0 20 0 0 20 0
20 -20 0 -20 0 0 60 0 60 20 0 20 0 0 20 0 20 20 0 20 0 0 20 0 20 -20 0 -20
0 0 20 0 20 -20 0 -20 0 0 20 0 20 40 0 40 0 0 -20 0 -20 20 0 20 0 0 20 0 20
40 0 40 0 0 20 0 20 20 0 20 0 0 20 0 20 20 0 20 0 0 20 0 20 20 0 20 0 0 20
0 20 20 0 20 0 0 20 0 20 20 0 20 0 0 120 0 120 20 0 20 0 0 20 0 20 20 0 20
0 0 20 0 20 20 0 20 0 0 20 0 20 20 0 20 0 0 20 0 20 120 0 120 0 0 -20z m160
-480 l0 -20 -20 0 -20 0 0 -20 0 -20 -20 0 -20 0 0 20 0 20 20 0 20 0 0 20 0
20 20 0 20 0 0 -20z m-520 -380 l0 -40 -80 0 -80 0 0 40 0 40 80 0 80 0 0 -40z
m-320 -140 l0 -20 -20 0 -20 0 0 20 0 20 20 0 20 0 0 -20z m80 0 l0 -20 -20 0
-20 0 0 20 0 20 20 0 20 0 0 -20z m80 0 l0 -20 -20 0 -20 0 0 20 0 20 20 0 20
0 0 -20z m80 0 l0 -20 -20 0 -20 0 0 20 0 20 20 0 20 0 0 -20z m80 0 l0 -20
-20 0 -20 0 0 20 0 20 20 0 20 0 0 -20z m80 0 l0 -20 -20 0 -20 0 0 20 0 20
20 0 20 0 0 -20z m80 0 l0 -20 -20 0 -20 0 0 20 0 20 20 0 20 0 0 -20z m80 0
l0 -20 -20 0 -20 0 0 20 0 20 20 0 20 0 0 -20z m80 0 l0 -20 -20 0 -20 0 0 20
0 20 20 0 20 0 0 -20z"/>
<path d="M200 1020 l0 -20 -20 0 -20 0 0 -20 0 -20 20 0 20 0 0 -20 0 -20 20
0 20 0 0 -40 0 -40 -20 0 -20 0 0 -20 0 -20 -20 0 -20 0 0 -20 0 -20 20 0 20
0 0 -20 0 -20 20 0 20 0 0 20 0 20 20 0 20 0 0 20 0 20 40 0 40 0 0 -20 0 -20
20 0 20 0 0 -20 0 -20 20 0 20 0 0 20 0 20 20 0 20 0 0 20 0 20 -20 0 -20 0 0
20 0 20 -20 0 -20 0 0 40 0 40 20 0 20 0 0 20 0 20 20 0 20 0 0 20 0 20 -20 0
-20 0 0 20 0 20 -20 0 -20 0 0 -20 0 -20 -20 0 -20 0 0 -20 0 -20 -40 0 -40 0
0 20 0 20 -20 0 -20 0 0 20 0 20 -20 0 -20 0 0 -20z m40 -40 l0 -20 20 0 20 0
0 -20 0 -20 40 0 40 0 0 20 0 20 20 0 20 0 0 20 0 20 20 0 20 0 0 -20 0 -20
-20 0 -20 0 0 -20 0 -20 -20 0 -20 0 0 -40 0 -40 20 0 20 0 0 -20 0 -20 20 0
20 0 0 -20 0 -20 -20 0 -20 0 0 20 0 20 -20 0 -20 0 0 20 0 20 -40 0 -40 0 0
-20 0 -20 -20 0 -20 0 0 -20 0 -20 -20 0 -20 0 0 20 0 20 20 0 20 0 0 20 0 20
20 0 20 0 0 40 0 40 -20 0 -20 0 0 20 0 20 -20 0 -20 0 0 20 0 20 20 0 20 0 0
-20z"/>
<path d="M840 1020 l0 -20 -20 0 -20 0 0 -20 0 -20 20 0 20 0 0 -20 0 -20 20
0 20 0 0 -40 0 -40 -20 0 -20 0 0 -20 0 -20 -20 0 -20 0 0 -20 0 -20 20 0 20
0 0 -20 0 -20 20 0 20 0 0 20 0 20 20 0 20 0 0 20 0 20 40 0 40 0 0 -20 0 -20
20 0 20 0 0 -20 0 -20 20 0 20 0 0 20 0 20 20 0 20 0 0 20 0 20 -20 0 -20 0 0
20 0 20 -20 0 -20 0 0 40 0 40 20 0 20 0 0 20 0 20 20 0 20 0 0 20 0 20 -20 0
-20 0 0 20 0 20 -20 0 -20 0 0 -20 0 -20 -20 0 -20 0 0 -20 0 -20 -40 0 -40 0
0 20 0 20 -20 0 -20 0 0 20 0 20 -20 0 -20 0 0 -20z m40 -40 l0 -20 20 0 20 0
0 -20 0 -20 40 0 40 0 0 20 0 20 20 0 20 0 0 20 0 20 20 0 20 0 0 -20 0 -20
-20 0 -20 0 0 -20 0 -20 -20 0 -20 0 0 -40 0 -40 20 0 20 0 0 -20 0 -20 20 0
20 0 0 -20 0 -20 -20 0 -20 0 0 20 0 20 -20 0 -20 0 0 20 0 20 -40 0 -40 0 0
-20 0 -20 -20 0 -20 0 0 -20 0 -20 -20 0 -20 0 0 20 0 20 20 0 20 0 0 20 0 20
20 0 20 0 0 40 0 40 -20 0 -20 0 0 20 0 20 -20 0 -20 0 0 20 0 20 20 0 20 0 0
-20z"/>
<path d="M680 720 l0 -40 20 0 20 0 0 -20 0 -20 20 0 20 0 0 -20 0 -20 40 0
40 0 0 20 0 20 -20 0 -20 0 0 20 0 20 -20 0 -20 0 0 20 0 20 -20 0 -20 0 0 20
0 20 -20 0 -20 0 0 -40z"/>
<path d="M600 660 l0 -20 -20 0 -20 0 0 -20 0 -20 -20 0 -20 0 0 -20 0 -20 20
0 20 0 0 20 0 20 20 0 20 0 0 20 0 20 20 0 20 0 0 20 0 20 -20 0 -20 0 0 -20z"/>
<path d="M400 480 l0 -40 -20 0 -20 0 0 -20 0 -20 20 0 20 0 0 -20 0 -20 -20
0 -20 0 0 -20 0 -20 -20 0 -20 0 0 -20 0 -20 20 0 20 0 0 20 0 20 20 0 20 0 0
20 0 20 20 0 20 0 0 80 0 80 -20 0 -20 0 0 -40z"/>
<path d="M840 440 l0 -80 20 0 20 0 0 -20 0 -20 20 0 20 0 0 -20 0 -20 20 0
20 0 0 20 0 20 -20 0 -20 0 0 20 0 20 -20 0 -20 0 0 20 0 20 20 0 20 0 0 20 0
20 20 0 20 0 0 20 0 20 20 0 20 0 0 20 0 20 -20 0 -20 0 0 -20 0 -20 -20 0
-20 0 0 -20 0 -20 -20 0 -20 0 0 40 0 40 -20 0 -20 0 0 -80z"/>
<path d="M560 420 l0 -20 80 0 80 0 0 20 0 20 -80 0 -80 0 0 -20z"/>
</g>
</svg>
