<?xml version="1.0" standalone="no"?>
<!DOCTYPE svg PUBLIC "-//W3C//DTD SVG 20010904//EN"
 "http://www.w3.org/TR/2001/REC-SVG-20010904/DTD/svg10.dtd">
<svg version="1.0" xmlns="http://www.w3.org/2000/svg"
 width="468pt" height="468pt" viewBox="0 0 468 468"
 preserveAspectRatio="xMidYMid meet">
<metadata>
Created by potrace 1.8, written by Peter Selinger 2001-2007
</metadata>
<g transform="translate(0,468) scale(0.365625,-0.365625)"
fill="#000000" stroke="none">
<path d="M40 720 l0 -480 100 0 100 0 0 -100 0 -100 20 0 20 0 0 -20 0 -20
300 0 300 0 0 20 0 20 20 0 20 0 0 100 0 100 180 0 180 0 0 480 0 480 -620 0
-620 0 0 -480z m600 320 l0 -80 20 0 20 0 0 80 0 80 260 0 260 0 0 -380 0
-380 -140 0 -140 0 0 40 0 40 80 0 80 0 0 60 0 60 -40 0 -40 0 0 -20 0 -20
-20 0 -20 0 0 40 0 40 20 0 20 0 0 20 0 20 20 0 20 0 0 20 0 20 20 0 20 0 0
100 0 100 -20 0 -20 0 0 20 0 20 -80 0 -80 0 0 -20 0 -20 -20 0 -20 0 0 -40 0
-40 40 0 40 0 0 20 0 20 20 0 20 0 0 -40 0 -40 -20 0 -20 0 0 -20 0 -20 -120
0 -120 0 0 80 0 80 40 0 40 0 0 40 0 40 -40 0 -40 0 0 -20 0 -20 -20 0 -20 0
0 20 0 20 -40 0 -40 0 0 -40 0 -40 40 0 40 0 0 -80 0 -80 -100 0 -100 0 0 100
0 100 -60 0 -60 0 0 -20 0 -20 -20 0 -20 0 0 -20 0 -20 -20 0 -20 0 0 -40 0
-40 20 0 20 0 0 20 0 20 20 0 20 0 0 -40 0 -40 -20 0 -20 0 0 -20 0 -20 300 0
300 0 0 -300 0 -300 -300 0 -300 0 0 300 0 300 -20 0 -20 0 0 -160 0 -160 -60
0 -60 0 0 380 0 380 260 0 260 0 0 -80z"/>
<path d="M160 1020 l0 -20 220 0 220 0 0 20 0 20 -220 0 -220 0 0 -20z"/>
<path d="M720 1020 l0 -20 220 0 220 0 0 20 0 20 -220 0 -220 0 0 -20z"/>
<path d="M320 380 l0 -260 260 0 260 0 0 260 0 260 -260 0 -260 0 0 -260z
m480 0 l0 -220 -220 0 -220 0 0 220 0 220 220 0 220 0 0 -220z"/>
<path d="M560 460 l0 -100 -20 0 -20 0 0 -20 0 -20 -20 0 -20 0 0 -20 0 -20
-20 0 -20 0 0 -20 0 -20 20 0 20 0 0 20 0 20 20 0 20 0 0 20 0 20 20 0 20 0 0
20 0 20 80 0 80 0 0 20 0 20 -60 0 -60 0 0 80 0 80 -20 0 -20 0 0 -100z"/>
</g>
</svg>
