<?xml version="1.0" standalone="no"?>
<!DOCTYPE svg PUBLIC "-//W3C//DTD SVG 20010904//EN"
 "http://www.w3.org/TR/2001/REC-SVG-20010904/DTD/svg10.dtd">
<svg version="1.0" xmlns="http://www.w3.org/2000/svg"
 width="468pt" height="468pt" viewBox="0 0 468 468"
 preserveAspectRatio="xMidYMid meet">
<metadata>
Created by potrace 1.8, written by Peter Selinger 2001-2007
</metadata>
<g transform="translate(0,468) scale(0.365625,-0.365625)"
fill="#000000" stroke="none">
<path d="M450 1160 l0 -10 -25 0 -25 0 0 -15 0 -15 -15 0 -15 0 0 -15 0 -15
-10 0 -10 0 0 -80 0 -80 10 0 10 0 0 -80 0 -80 -10 0 -10 0 0 -50 0 -50 10 0
10 0 0 -15 0 -15 15 0 15 0 0 -15 0 -15 25 0 25 0 0 -10 0 -10 40 0 40 0 0
-15 0 -15 30 0 30 0 0 -95 0 -95 -15 0 -15 0 0 15 0 15 -55 0 -55 0 0 15 0 15
-50 0 -50 0 0 -55 0 -55 10 0 10 0 0 -15 0 -15 40 0 40 0 0 15 0 15 70 0 70 0
0 -15 0 -15 -70 0 -70 0 0 -10 0 -10 -40 0 -40 0 0 10 0 10 -36 0 -35 0 -15
-14 -14 -15 0 -35 0 -36 10 0 10 0 0 -15 0 -15 30 0 30 0 0 15 0 15 10 0 10 0
0 25 0 25 80 0 80 0 0 15 0 15 15 0 15 0 0 -15 0 -15 40 0 40 0 0 -25 0 -25
15 0 15 0 0 -15 0 -15 10 0 10 0 0 -40 0 -40 40 0 40 0 0 25 0 25 15 0 15 0 0
40 0 40 -15 0 -15 0 0 15 0 15 70 0 70 0 0 -11 0 -10 14 -15 15 -14 25 0 26 0
0 40 0 40 -30 0 -30 0 0 10 0 10 30 0 30 0 0 15 0 15 -30 0 -30 0 0 15 0 15
-40 0 -40 0 0 10 0 10 15 0 15 0 0 15 0 15 -15 0 -15 0 0 15 0 15 -50 0 -50 0
0 -15 0 -15 -30 0 -30 0 0 80 0 80 30 0 30 0 0 15 0 15 40 0 40 0 0 10 0 10
25 0 25 0 0 15 0 15 25 0 25 0 0 15 0 15 15 0 15 0 0 10 0 10 -15 0 -15 0 0
15 0 15 -10 0 -10 0 0 15 0 15 -55 0 -55 0 0 10 0 10 -65 0 -65 0 0 55 0 55
10 0 10 0 0 95 0 95 -10 0 -10 0 0 25 0 25 -15 0 -15 0 0 15 0 15 -25 0 -25 0
0 10 0 10 -70 0 -70 0 0 -10z m110 -25 l0 -15 25 0 25 0 0 -15 0 -15 15 0 15
0 0 -25 0 -25 15 0 15 0 0 -15 0 -15 -15 0 -15 0 0 -10 0 -10 15 0 15 0 0 -15
0 -15 -15 0 -15 0 0 -15 0 -15 15 0 15 0 0 -10 0 -10 -15 0 -15 0 0 -15 0 -15
-15 0 -15 0 0 15 0 15 15 0 15 0 0 10 0 10 -15 0 -15 0 0 15 0 15 -10 0 -10 0
0 -15 0 -15 -15 0 -15 0 0 -10 0 -10 15 0 15 0 0 -15 0 -15 -15 0 -15 0 0 -15
0 -15 -15 0 -15 0 0 15 0 15 -10 0 -10 0 0 -15 0 -15 -15 0 -15 0 0 15 0 15
-15 0 -15 0 0 25 0 25 -10 0 -10 0 0 80 0 80 10 0 10 0 0 15 0 15 15 0 15 0 0
15 0 15 40 0 40 0 0 -15z m50 -215 l0 -10 -10 0 -10 0 0 10 0 10 10 0 10 0 0
-10z m0 -80 l0 -10 -10 0 -10 0 0 -30 0 -30 -40 0 -40 0 0 -10 0 -10 -40 0
-40 0 0 10 0 10 10 0 10 0 0 30 0 30 70 0 70 0 0 10 0 10 10 0 10 0 0 -10z
m160 -105 l0 -15 -10 0 -10 0 0 -15 0 -15 -15 0 -15 0 0 15 0 15 -15 0 -15 0
0 -15 0 -15 15 0 15 0 0 -10 0 -10 15 0 15 0 0 -15 0 -15 -15 0 -15 0 0 15 0
15 -15 0 -15 0 0 -15 0 -15 -10 0 -10 0 0 15 0 15 -15 0 -15 0 0 -15 0 -15
-15 0 -15 0 0 15 0 15 15 0 15 0 0 10 0 10 15 0 15 0 0 15 0 15 -15 0 -15 0 0
-15 0 -15 -15 0 -15 0 0 15 0 15 -10 0 -10 0 0 -15 0 -15 -15 0 -15 0 0 15 0
15 -15 0 -15 0 0 -15 0 -15 15 0 15 0 0 -10 0 -10 15 0 15 0 0 -15 0 -15 -15
0 -15 0 0 15 0 15 -14 0 -14 0 -6 13 -6 12 -6 -12 -6 -13 -14 0 -14 0 0 10 0
10 -15 0 -15 0 0 15 0 15 15 0 15 0 0 -15 0 -15 15 0 15 0 0 15 0 15 10 0 10
0 0 15 0 15 120 0 120 0 0 -15z m30 -30 l0 -15 15 0 15 0 0 15 0 15 10 0 10 0
0 -15 0 -15 15 0 15 0 0 15 0 15 15 0 15 0 0 -15 0 -15 -15 0 -15 0 0 -10 0
-10 -14 0 -14 0 -6 13 -6 12 -6 -12 -6 -13 -14 0 -14 0 0 -15 0 -15 -15 0 -15
0 0 14 0 14 -12 6 -13 6 13 6 12 6 0 14 0 14 15 0 15 0 0 -15z m-190 -25 l0
-10 -10 0 -10 0 0 10 0 10 10 0 10 0 0 -10z m60 -185 l0 -15 -15 0 -15 0 0 15
0 15 15 0 15 0 0 -15z m0 -55 l0 -10 -15 0 -15 0 0 10 0 10 15 0 15 0 0 -10z
m-220 -55 l0 -15 -25 0 -25 0 0 15 0 15 25 0 25 0 0 -15z m80 -25 l0 -10 -25
0 -25 0 0 10 0 10 25 0 25 0 0 -10z m240 0 l0 -10 -10 0 -10 0 0 10 0 10 10 0
10 0 0 -10z m-50 -25 l0 -15 -15 0 -15 0 0 -25 0 -25 15 0 15 0 0 -15 0 -15
15 0 15 0 0 -15 0 -15 -15 0 -15 0 0 15 0 15 -15 0 -15 0 0 15 0 15 -10 0 -10
0 0 25 0 25 -30 0 -30 0 0 15 0 15 55 0 55 0 0 -15z m190 -55 l0 -10 -80 0
-80 0 0 10 0 10 80 0 80 0 0 -10z m-540 -25 l0 -15 -25 0 -25 0 0 15 0 15 25
0 25 0 0 -15z"/>
<path d="M510 1080 l0 -10 -15 0 -15 0 0 -15 0 -15 -15 0 -15 0 0 -15 0 -15
15 0 15 0 0 -10 0 -10 -15 0 -15 0 0 -15 0 -15 15 0 15 0 0 -15 0 -15 15 0 15
0 0 15 0 15 10 0 10 0 0 -15 0 -15 15 0 15 0 0 15 0 15 15 0 15 0 0 15 0 15
-15 0 -15 0 0 10 0 10 15 0 15 0 0 15 0 15 10 0 10 0 0 -15 0 -15 15 0 15 0 0
15 0 15 -15 0 -15 0 0 11 0 10 -14 15 -15 14 -10 0 -11 0 0 -10 0 -10 -15 0
-15 0 0 10 0 10 -10 0 -10 0 0 -10z m20 -25 l0 -15 15 0 15 0 0 15 0 15 15 0
15 0 0 -15 0 -15 -15 0 -15 0 0 -15 0 -15 -15 0 -15 0 0 15 0 15 -10 0 -10 0
0 -15 0 -15 -15 0 -15 0 0 15 0 15 15 0 15 0 0 15 0 15 10 0 10 0 0 -15z m0
-55 l0 -10 15 0 15 0 0 -15 0 -15 -15 0 -15 0 0 15 0 15 -10 0 -10 0 0 -15 0
-15 -15 0 -15 0 0 15 0 15 15 0 15 0 0 10 0 10 10 0 10 0 0 -10z"/>
<path d="M590 1000 l0 -10 10 0 10 0 0 -15 0 -15 15 0 15 0 0 15 0 15 -15 0
-15 0 0 10 0 10 -10 0 -10 0 0 -10z"/>
<path d="M510 920 l0 -10 -15 0 -15 0 0 -15 0 -15 15 0 15 0 0 15 0 15 10 0
10 0 0 -15 0 -15 15 0 15 0 0 15 0 15 -15 0 -15 0 0 10 0 10 -10 0 -10 0 0
-10z"/>
<path d="M670 680 l0 -10 10 0 10 0 0 10 0 10 -10 0 -10 0 0 -10z"/>
<path d="M770 680 l0 -10 15 0 15 0 0 10 0 10 -15 0 -15 0 0 -10z"/>
</g>
</svg>
