<?xml version="1.0" standalone="no"?>
<!DOCTYPE svg PUBLIC "-//W3C//DTD SVG 20010904//EN"
 "http://www.w3.org/TR/2001/REC-SVG-20010904/DTD/svg10.dtd">
<svg version="1.0" xmlns="http://www.w3.org/2000/svg"
 width="468pt" height="468pt" viewBox="0 0 468 468"
 preserveAspectRatio="xMidYMid meet">
<metadata>
Created by potrace 1.8, written by Peter Selinger 2001-2007
</metadata>
<g transform="translate(0,468) scale(0.365625,-0.365625)"
fill="#000000" stroke="none">
<path d="M353 1065 l-33 -34 0 -6 0 -5 15 0 16 0 34 35 35 34 0 6 0 5 -17 -1
-18 0 -32 -34z"/>
<path d="M473 1065 l-33 -34 0 -36 0 -35 -60 0 -60 0 0 -10 0 -10 60 0 60 0 0
-10 0 -10 -60 0 -60 0 0 -30 0 -30 60 0 60 0 0 -10 0 -10 -60 0 -60 0 0 -10 0
-10 60 0 60 0 0 -180 0 -180 -60 0 -60 0 0 -10 0 -10 60 0 60 0 0 -10 0 -10
-60 0 -60 0 0 -30 0 -30 60 0 60 0 0 -10 0 -10 -60 0 -60 0 0 -10 0 -10 60 0
60 0 0 -20 0 -20 -70 0 -70 0 0 -10 0 -10 90 0 90 0 0 20 0 20 80 0 80 0 0
-10 0 -10 170 0 170 0 0 10 0 10 70 0 70 0 0 360 0 360 -10 0 -10 0 0 16 0 15
-14 15 -15 14 -5 0 -6 0 0 -20 0 -20 10 0 10 0 0 -30 0 -30 -20 0 -20 0 0 -10
0 -10 -20 0 -20 0 0 -30 0 -30 20 0 20 0 0 -10 0 -10 -20 0 -20 0 0 -10 0 -10
20 0 20 0 0 -40 0 -40 10 0 10 0 0 -29 0 -29 -12 -5 -13 -5 15 -11 15 -11 -15
-11 -15 -11 13 -5 12 -5 0 -18 0 -18 -12 -6 -13 -6 13 -6 12 -6 0 -19 0 -19
-10 0 -10 0 0 -50 0 -50 -20 0 -20 0 0 -10 0 -10 20 0 20 0 0 -10 0 -10 -20 0
-20 0 0 -30 0 -30 20 0 20 0 0 -20 0 -20 -30 0 -30 0 0 270 0 270 -10 0 -10 0
0 20 0 20 -10 0 -10 0 0 -50 0 -50 -50 0 -50 0 0 10 0 10 10 0 10 0 0 40 0 40
-20 0 -20 0 0 70 0 70 -20 0 -20 0 0 -40 0 -40 -10 0 -10 0 0 -30 0 -30 -50 0
-50 0 0 -10 0 -10 50 0 50 0 0 -20 0 -20 -50 0 -50 0 0 -10 0 -10 50 0 50 0 0
-260 0 -260 -60 0 -60 0 0 340 0 340 -10 0 -10 0 0 -20 0 -20 -10 0 -10 0 0
-40 0 -40 -30 0 -30 0 0 38 0 38 20 14 20 14 0 8 0 8 -20 0 -20 0 0 -10 0 -10
-10 0 -10 0 0 70 0 70 -7 -1 -8 0 -32 -34z m127 -235 l0 -10 -30 0 -30 0 0 10
0 10 30 0 30 0 0 -10z m0 -40 l0 -10 -30 0 -30 0 0 10 0 10 30 0 30 0 0 -10z
m0 -220 l0 -190 -30 0 -30 0 0 190 0 190 30 0 30 0 0 -190z m340 180 l0 -10
-50 0 -50 0 0 10 0 10 50 0 50 0 0 -10z m0 -60 l0 -30 -50 0 -50 0 0 30 0 30
50 0 50 0 0 -30z m0 -60 l0 -10 -50 0 -50 0 0 10 0 10 50 0 50 0 0 -10z m0
-160 l0 -10 -50 0 -50 0 0 10 0 10 50 0 50 0 0 -10z m0 -60 l0 -30 -50 0 -50
0 0 30 0 30 50 0 50 0 0 -30z m-340 -70 l0 -20 -30 0 -30 0 0 20 0 20 30 0 30
0 0 -20z m340 10 l0 -10 -50 0 -50 0 0 10 0 10 50 0 50 0 0 -10z"/>
<path d="M560 730 l0 -10 10 0 10 0 0 10 0 10 -10 0 -10 0 0 -10z"/>
<path d="M560 690 l0 -10 10 0 10 0 0 10 0 10 -10 0 -10 0 0 -10z"/>
<path d="M560 530 l0 -10 10 0 10 0 0 10 0 10 -10 0 -10 0 0 -10z"/>
<path d="M560 450 l0 -50 10 0 10 0 0 50 0 50 -10 0 -10 0 0 -50z"/>
<path d="M980 1060 l0 -20 10 0 10 0 0 -20 0 -20 10 0 10 0 0 20 0 20 -10 0
-10 0 0 20 0 20 -10 0 -10 0 0 -20z"/>
<path d="M693 1025 l-13 -14 0 -15 0 -14 -12 -5 -13 -4 7 -8 7 -7 16 15 15 16
0 15 0 16 10 0 10 0 0 10 0 10 -7 0 -8 -1 -12 -14z"/>
<path d="M203 895 l-23 -24 0 -6 0 -5 16 0 15 0 15 14 14 15 0 15 0 16 -7 -1
-8 0 -22 -24z"/>
<path d="M280 860 l0 -20 -40 0 -40 0 0 -19 0 -19 -12 -5 -13 -5 15 -12 15
-12 -12 -5 -13 -5 0 -28 0 -28 13 -5 12 -5 -15 -12 -15 -12 13 -5 12 -5 0 -68
0 -68 -12 -5 -13 -5 15 -12 15 -12 -12 -5 -13 -5 0 -28 0 -28 13 -5 12 -5 -15
-12 -15 -12 13 -5 12 -5 0 -19 0 -19 -20 0 -20 0 0 -10 0 -10 70 0 70 0 0 280
0 280 -10 0 -10 0 0 -20z"/>
<path d="M700 770 l0 -30 10 0 10 0 0 30 0 30 -10 0 -10 0 0 -30z"/>
<path d="M340 730 l0 -30 10 0 10 0 0 30 0 30 -10 0 -10 0 0 -30z"/>
<path d="M380 740 l0 -20 10 0 10 0 0 20 0 20 -10 0 -10 0 0 -20z"/>
<path d="M700 690 l0 -30 10 0 10 0 0 30 0 30 -10 0 -10 0 0 -30z"/>
<path d="M380 680 l0 -20 10 0 10 0 0 20 0 20 -10 0 -10 0 0 -20z"/>
<path d="M340 670 l0 -10 10 0 10 0 0 10 0 10 -10 0 -10 0 0 -10z"/>
<path d="M340 620 l0 -20 10 0 10 0 0 20 0 20 -10 0 -10 0 0 -20z"/>
<path d="M380 630 l0 -10 10 0 10 0 0 10 0 10 -10 0 -10 0 0 -10z"/>
<path d="M700 630 l0 -10 10 0 10 0 0 10 0 10 -10 0 -10 0 0 -10z"/>
<path d="M380 570 l0 -30 10 0 10 0 0 30 0 30 -10 0 -10 0 0 -30z"/>
<path d="M700 590 l0 -10 10 0 10 0 0 10 0 10 -10 0 -10 0 0 -10z"/>
<path d="M340 560 l0 -20 10 0 10 0 0 20 0 20 -10 0 -10 0 0 -20z"/>
<path d="M700 550 l0 -10 10 0 10 0 0 10 0 10 -10 0 -10 0 0 -10z"/>
<path d="M680 390 l0 -50 30 0 30 0 0 50 0 50 -30 0 -30 0 0 -50z"/>
<path d="M0 100 l0 -100 640 0 640 0 0 100 0 100 -640 0 -640 0 0 -100z"/>
</g>
</svg>
