<?xml version="1.0" standalone="no"?>
<!DOCTYPE svg PUBLIC "-//W3C//DTD SVG 20010904//EN"
 "http://www.w3.org/TR/2001/REC-SVG-20010904/DTD/svg10.dtd">
<svg version="1.0" xmlns="http://www.w3.org/2000/svg"
 width="468pt" height="468pt" viewBox="0 0 468 468"
 preserveAspectRatio="xMidYMid meet">
<metadata>
Created by potrace 1.8, written by Peter Selinger 2001-2007
</metadata>
<g transform="translate(0,468) scale(0.365625,-0.365625)"
fill="#000000" stroke="none">
<path d="M0 1095 l0 -185 15 0 15 0 0 -15 0 -15 105 0 105 0 0 -40 0 -40 -120
0 -120 0 0 -400 0 -400 15 0 15 0 0 385 0 385 105 0 105 0 0 -40 0 -40 -65 0
-65 0 0 -345 0 -345 25 0 25 0 0 320 0 320 40 0 40 0 0 -320 0 -320 15 0 15 0
0 440 0 440 40 0 40 0 0 -440 0 -440 25 0 25 0 0 320 0 320 40 0 40 0 0 -105
0 -105 15 0 15 0 0 -15 0 -15 185 0 185 0 0 185 0 185 -15 0 -15 0 0 15 0 15
-105 0 -105 0 0 40 0 40 320 0 320 0 0 25 0 25 -320 0 -320 0 0 40 0 40 320 0
320 0 0 15 0 15 -320 0 -320 0 0 40 0 40 320 0 320 0 0 25 0 25 -345 0 -345 0
0 -200 0 -200 120 0 120 0 0 -160 0 -160 -160 0 -160 0 0 95 0 95 40 0 40 0 0
-55 0 -55 80 0 80 0 0 80 0 80 -175 0 -175 0 0 40 0 40 55 0 55 0 0 240 0 240
385 0 385 0 0 15 0 15 -400 0 -400 0 0 -120 0 -120 -40 0 -40 0 0 105 0 105
-15 0 -15 0 0 15 0 15 -185 0 -185 0 0 -185z m350 50 l0 -105 -40 0 -40 0 0
65 0 65 -80 0 -80 0 0 -80 0 -80 185 0 185 0 0 -40 0 -40 -225 0 -225 0 0 160
0 160 160 0 160 0 0 -105z m-110 -65 l0 -40 -40 0 -40 0 0 40 0 40 40 0 40 0
0 -40z m240 -240 l0 -40 -40 0 -40 0 0 40 0 40 40 0 40 0 0 -40z m240 -240 l0
-40 -40 0 -40 0 0 40 0 40 40 0 40 0 0 -40z"/>
</g>
</svg>
