<?xml version="1.0" standalone="no"?>
<!DOCTYPE svg PUBLIC "-//W3C//DTD SVG 20010904//EN"
 "http://www.w3.org/TR/2001/REC-SVG-20010904/DTD/svg10.dtd">
<svg version="1.0" xmlns="http://www.w3.org/2000/svg"
 width="468pt" height="468pt" viewBox="0 0 468 468"
 preserveAspectRatio="xMidYMid meet">
<metadata>
Created by potrace 1.8, written by Peter Selinger 2001-2007
</metadata>
<g transform="translate(0,468) scale(0.365625,-0.365625)"
fill="#000000" stroke="none">
<path d="M640 640 l0 -640 80 0 80 0 0 160 0 160 80 0 80 0 0 -80 0 -80 80 0
80 0 0 -80 0 -80 80 0 80 0 0 240 0 240 -80 0 -80 0 0 160 0 160 -80 0 -80 0
0 160 0 160 -80 0 -80 0 0 80 0 80 -80 0 -80 0 0 -640z m320 -80 l0 -80 80 0
80 0 0 -80 0 -80 -80 0 -80 0 0 80 0 80 -80 0 -80 0 0 80 0 80 80 0 80 0 0
-80z"/>
</g>
</svg>
