<?xml version="1.0" standalone="no"?>
<!DOCTYPE svg PUBLIC "-//W3C//DTD SVG 20010904//EN"
 "http://www.w3.org/TR/2001/REC-SVG-20010904/DTD/svg10.dtd">
<svg version="1.0" xmlns="http://www.w3.org/2000/svg"
 width="468pt" height="468pt" viewBox="0 0 468 468"
 preserveAspectRatio="xMidYMid meet">
<metadata>
Created by potrace 1.8, written by Peter Selinger 2001-2007
</metadata>
<g transform="translate(0,468) scale(0.365625,-0.365625)"
fill="#000000" stroke="none">
<path d="M380 1185 l0 -35 -60 0 -60 0 0 -30 0 -30 -35 0 -35 0 0 -35 0 -35
-30 0 -30 0 0 -30 0 -30 -35 0 -35 0 0 -255 0 -255 35 0 35 0 0 -35 0 -35 30
0 30 0 0 -30 0 -30 35 0 35 0 0 -30 0 -30 30 0 30 0 0 -35 0 -35 30 0 30 0 0
-30 0 -30 35 0 35 0 0 30 0 30 30 0 30 0 0 -30 0 -30 35 0 35 0 0 30 0 30 30
0 30 0 0 -30 0 -30 30 0 30 0 0 30 0 30 35 0 35 0 0 -30 0 -30 30 0 30 0 0 30
0 30 35 0 35 0 0 35 0 35 30 0 30 0 0 30 0 30 30 0 30 0 0 30 0 30 35 0 35 0
0 35 0 35 30 0 30 0 0 30 0 30 -30 0 -30 0 0 35 0 35 30 0 30 0 0 30 0 30 -30
0 -30 0 0 30 0 30 30 0 30 0 0 35 0 35 -30 0 -30 0 0 30 0 30 30 0 30 0 0 35
0 35 -30 0 -30 0 0 30 0 30 -35 0 -35 0 0 30 0 30 -30 0 -30 0 0 35 0 35 -30
0 -30 0 0 30 0 30 -65 0 -65 0 0 35 0 35 -195 0 -195 0 0 -35z m200 -65 l0
-30 30 0 30 0 0 30 0 30 30 0 30 0 0 -30 0 -30 35 0 35 0 0 -35 0 -35 30 0 30
0 0 35 0 35 35 0 35 0 0 -35 0 -35 30 0 30 0 0 -30 0 -30 30 0 30 0 0 -30 0
-30 35 0 35 0 0 -35 0 -35 -35 0 -35 0 0 35 0 35 -30 0 -30 0 0 -195 0 -195
-65 0 -65 0 0 -30 0 -30 35 0 35 0 0 -35 0 -35 30 0 30 0 0 35 0 35 30 0 30 0
0 30 0 30 35 0 35 0 0 -30 0 -30 -35 0 -35 0 0 -35 0 -35 -30 0 -30 0 0 -30 0
-30 -30 0 -30 0 0 -30 0 -30 -35 0 -35 0 0 -35 0 -35 -30 0 -30 0 0 35 0 35
30 0 30 0 0 30 0 30 35 0 35 0 0 30 0 30 -35 0 -35 0 0 35 0 35 -30 0 -30 0 0
-65 0 -65 -195 0 -195 0 0 -30 0 -30 35 0 35 0 0 -35 0 -35 -35 0 -35 0 0 35
0 35 -30 0 -30 0 0 30 0 30 -30 0 -30 0 0 30 0 30 -35 0 -35 0 0 35 0 35 -30
0 -30 0 0 30 0 30 30 0 30 0 0 35 0 35 -30 0 -30 0 0 30 0 30 30 0 30 0 0 30
0 30 -30 0 -30 0 0 35 0 35 30 0 30 0 0 30 0 30 -30 0 -30 0 0 35 0 35 30 0
30 0 0 30 0 30 35 0 35 0 0 30 0 30 30 0 30 0 0 35 0 35 30 0 30 0 0 -35 0
-35 35 0 35 0 0 35 0 35 30 0 30 0 0 30 0 30 35 0 35 0 0 -30z m510 -385 l0
-35 -35 0 -35 0 0 35 0 35 35 0 35 0 0 -35z m0 -125 l0 -30 -35 0 -35 0 0 30
0 30 35 0 35 0 0 -30z m-510 -385 l0 -35 -35 0 -35 0 0 35 0 35 35 0 35 0 0
-35z m120 0 l0 -35 -30 0 -30 0 0 35 0 35 30 0 30 0 0 -35z"/>
<path d="M510 1055 l0 -35 35 0 35 0 0 35 0 35 -35 0 -35 0 0 -35z"/>
<path d="M640 1055 l0 -35 30 0 30 0 0 35 0 35 -30 0 -30 0 0 -35z"/>
<path d="M320 990 l0 -30 -30 0 -30 0 0 -30 0 -30 -35 0 -35 0 0 -35 0 -35 35
0 35 0 0 35 0 35 30 0 30 0 0 -35 0 -35 30 0 30 0 0 -30 0 -30 35 0 35 0 0
-35 0 -35 30 0 30 0 0 -30 0 -30 35 0 35 0 0 -30 0 -30 30 0 30 0 0 -35 0 -35
30 0 30 0 0 -30 0 -30 35 0 35 0 0 30 0 30 30 0 30 0 0 35 0 35 -30 0 -30 0 0
30 0 30 -35 0 -35 0 0 30 0 30 -30 0 -30 0 0 35 0 35 -30 0 -30 0 0 30 0 30
-35 0 -35 0 0 35 0 35 -30 0 -30 0 0 30 0 30 -35 0 -35 0 0 30 0 30 -30 0 -30
0 0 -30z m60 -60 l0 -30 35 0 35 0 0 -35 0 -35 30 0 30 0 0 -30 0 -30 35 0 35
0 0 -35 0 -35 30 0 30 0 0 -30 0 -30 30 0 30 0 0 -30 0 -30 35 0 35 0 0 -35 0
-35 -35 0 -35 0 0 35 0 35 -30 0 -30 0 0 30 0 30 -30 0 -30 0 0 30 0 30 -35 0
-35 0 0 35 0 35 -30 0 -30 0 0 30 0 30 -35 0 -35 0 0 35 0 35 -30 0 -30 0 0
30 0 30 30 0 30 0 0 -30z"/>
<path d="M830 990 l0 -30 35 0 35 0 0 -30 0 -30 30 0 30 0 0 30 0 30 -30 0
-30 0 0 30 0 30 -35 0 -35 0 0 -30z"/>
<path d="M190 735 l0 -35 35 0 35 0 0 35 0 35 -35 0 -35 0 0 -35z"/>
<path d="M190 610 l0 -30 35 0 35 0 0 30 0 30 -35 0 -35 0 0 -30z"/>
<path d="M190 480 l0 -30 35 0 35 0 0 -35 0 -35 30 0 30 0 0 -30 0 -30 30 0
30 0 0 30 0 30 -30 0 -30 0 0 35 0 35 -30 0 -30 0 0 30 0 30 -35 0 -35 0 0
-30z"/>
</g>
</svg>
