<?xml version="1.0" standalone="no"?>
<!DOCTYPE svg PUBLIC "-//W3C//DTD SVG 20010904//EN"
 "http://www.w3.org/TR/2001/REC-SVG-20010904/DTD/svg10.dtd">
<svg version="1.0" xmlns="http://www.w3.org/2000/svg"
 width="468pt" height="468pt" viewBox="0 0 468 468"
 preserveAspectRatio="xMidYMid meet">
<metadata>
Created by potrace 1.8, written by Peter Selinger 2001-2007
</metadata>
<g transform="translate(0,468) scale(0.365625,-0.365625)"
fill="#000000" stroke="none">
<path d="M530 1266 l0 -14 -12 -6 -13 -6 13 -6 12 -6 0 -14 0 -14 15 0 15 0 0
15 0 15 -15 0 -15 0 0 10 0 10 26 0 25 0 15 -14 14 -15 0 -25 0 -26 -25 0 -25
0 0 -10 0 -10 -15 0 -15 0 0 -15 0 -15 -10 0 -10 0 0 -15 0 -15 -30 0 -30 0 0
15 0 15 15 0 15 0 0 15 0 15 15 0 15 0 0 10 0 10 -15 0 -15 0 0 -10 0 -10 -15
0 -15 0 0 -15 0 -15 -25 0 -25 0 0 -15 0 -15 -11 0 -10 0 -15 -14 -14 -15 0
-10 0 -11 -15 0 -15 0 0 -15 0 -15 95 0 95 0 0 15 0 15 -30 0 -30 0 0 15 0 15
30 0 30 0 0 10 0 10 25 0 25 0 0 -50 0 -50 15 0 15 0 0 -15 0 -15 10 0 10 0 0
-25 0 -25 -10 0 -10 0 0 10 0 10 -26 0 -25 0 -15 -14 -14 -15 0 -10 0 -11 10
0 10 0 0 -15 0 -15 15 0 15 0 0 15 0 15 -15 0 -15 0 0 15 0 15 30 0 30 0 0
-15 0 -15 10 0 10 0 0 -40 0 -40 15 0 15 0 0 40 0 40 15 0 15 0 0 15 0 15 25
0 25 0 0 -15 0 -15 -15 0 -15 0 0 -15 0 -15 15 0 15 0 0 15 0 15 15 0 15 0 0
15 0 15 -15 0 -15 0 0 10 0 10 -25 0 -25 0 0 -10 0 -10 -15 0 -15 0 0 25 0 25
15 0 15 0 0 15 0 15 10 0 10 0 0 50 0 50 30 0 30 0 0 -10 0 -10 25 0 25 0 0
-15 0 -15 -25 0 -25 0 0 -15 0 -15 90 0 90 0 0 15 0 15 -10 0 -10 0 0 15 0 15
-15 0 -15 0 0 10 0 10 -15 0 -15 0 0 15 0 15 -25 0 -25 0 0 15 0 15 -14 0 -14
0 -5 13 -4 12 -9 -9 -9 -9 13 -4 12 -5 0 -14 0 -14 15 0 15 0 0 -15 0 -15 -25
0 -25 0 0 15 0 15 -15 0 -15 0 0 15 0 15 -15 0 -15 0 0 10 0 10 -25 0 -25 0 0
30 0 30 15 0 15 0 0 10 0 10 25 0 25 0 0 -10 0 -10 -15 0 -15 0 0 -15 0 -15
15 0 15 0 0 15 0 15 15 0 15 0 0 10 0 10 -15 0 -15 0 0 15 0 15 -25 0 -25 0 0
-15 0 -15 -15 0 -15 0 0 -10 0 -10 -11 0 -10 0 -15 14 -14 15 0 10 0 11 -30 0
-30 0 0 -14z m110 -106 l0 -10 25 0 25 0 0 -15 0 -15 -10 0 -10 0 0 -25 0 -25
-15 0 -15 0 0 -40 0 -40 -15 0 -15 0 0 40 0 40 -10 0 -10 0 0 25 0 25 -15 0
-15 0 0 15 0 15 25 0 25 0 0 10 0 10 15 0 15 0 0 -10z"/>
<path d="M610 1110 l0 -40 15 0 15 0 0 40 0 40 -15 0 -15 0 0 -40z"/>
<path d="M110 1215 l0 -15 10 0 10 0 0 -15 0 -15 15 0 15 0 0 -25 0 -25 15 0
15 0 0 -11 0 -10 14 -15 15 -14 10 0 11 0 0 -15 0 -15 15 0 15 0 0 -15 0 -15
-15 0 -15 0 0 -10 0 -10 25 0 25 0 0 -40 0 -40 15 0 15 0 0 -15 0 -15 40 0 40
0 0 -15 0 -15 15 0 15 0 0 15 0 15 -15 0 -15 0 0 40 0 40 -15 0 -15 0 0 15 0
15 -40 0 -40 0 0 25 0 25 15 0 15 0 0 15 0 15 11 0 10 0 15 14 14 15 0 10 0
11 15 0 15 0 0 25 0 25 15 0 15 0 0 15 0 15 10 0 10 0 0 15 0 15 -10 0 -10 0
0 -15 0 -15 -15 0 -15 0 0 -15 0 -15 -15 0 -15 0 0 30 0 30 -10 0 -10 0 0 -30
0 -30 -15 0 -15 0 0 30 0 30 -40 0 -40 0 0 -30 0 -30 -15 0 -15 0 0 30 0 30
-10 0 -10 0 0 -30 0 -30 -15 0 -15 0 0 15 0 15 -15 0 -15 0 0 15 0 15 -10 0
-10 0 0 -15z"/>
<path d="M800 1215 l0 -15 15 0 15 0 0 -15 0 -15 10 0 10 0 0 -25 0 -25 15 0
15 0 0 -15 0 -15 11 0 10 0 15 -14 14 -15 0 -10 0 -11 15 0 15 0 0 -25 0 -25
-40 0 -40 0 0 -15 0 -15 -15 0 -15 0 0 -40 0 -40 -10 0 -10 0 0 -15 0 -15 -15
0 -15 0 0 40 0 40 15 0 15 0 0 15 0 15 -15 0 -15 0 0 -15 0 -15 -15 0 -15 0 0
-40 0 -40 15 0 15 0 0 -10 0 -10 -15 0 -15 0 0 -15 0 -15 15 0 15 0 0 15 0 15
15 0 15 0 0 -15 0 -15 40 0 40 0 0 14 0 14 13 5 12 4 -9 9 -9 9 -4 -12 -5 -13
-39 0 -39 0 0 10 0 10 10 0 10 0 0 15 0 15 40 0 40 0 0 15 0 15 15 0 15 0 0
40 0 40 25 0 25 0 0 10 0 10 -10 0 -10 0 0 15 0 15 10 0 10 0 0 15 0 15 15 0
15 0 0 10 0 10 15 0 15 0 0 15 0 15 10 0 10 0 0 25 0 25 -10 0 -10 0 0 30 0
30 -15 0 -15 0 0 -30 0 -30 -15 0 -15 0 0 30 0 30 -40 0 -40 0 0 -30 0 -30
-10 0 -10 0 0 30 0 30 -15 0 -15 0 0 -30 0 -30 -15 0 -15 0 0 15 0 15 -10 0
-10 0 0 15 0 15 -15 0 -15 0 0 -15z"/>
<path d="M1120 1215 l0 -15 -15 0 -15 0 0 -15 0 -15 15 0 15 0 0 15 0 15 15 0
15 0 0 15 0 15 -15 0 -15 0 0 -15z"/>
<path d="M50 1160 l0 -10 15 0 15 0 0 -15 0 -15 15 0 15 0 0 -15 0 -15 -30 0
-30 0 0 -10 0 -10 30 0 30 0 0 -15 0 -15 -30 0 -30 0 0 -15 0 -15 95 0 95 0 0
15 0 15 -15 0 -15 0 0 11 0 10 -14 15 -15 14 -10 0 -11 0 0 15 0 15 -25 0 -25
0 0 15 0 15 -15 0 -15 0 0 10 0 10 -15 0 -15 0 0 -10z"/>
<path d="M1163 1155 l-13 -14 0 -11 0 -10 -30 0 -30 0 0 -11 0 -10 -14 -15
-15 -14 -10 0 -11 0 0 -15 0 -15 -15 0 -15 0 0 -15 0 -15 95 0 95 0 0 15 0 15
-25 0 -25 0 0 15 0 15 25 0 25 0 0 10 0 10 -25 0 -25 0 0 15 0 15 10 0 10 0 0
15 0 15 15 0 15 0 0 10 0 10 -12 0 -13 -1 -12 -14z"/>
<path d="M50 975 l0 -15 30 0 30 0 0 -15 0 -15 -30 0 -30 0 0 -10 0 -10 30 0
30 0 0 -15 0 -15 -15 0 -15 0 0 -15 0 -15 -15 0 -15 0 0 -10 0 -10 15 0 15 0
0 10 0 10 15 0 15 0 0 15 0 15 25 0 25 0 0 15 0 15 11 0 10 0 15 14 14 15 0
10 0 11 15 0 15 0 0 -15 0 -15 -11 0 -10 0 -15 -14 -14 -15 0 -10 0 -11 -15 0
-15 0 0 -25 0 -25 -15 0 -15 0 0 -15 0 -15 -10 0 -10 0 0 -15 0 -15 10 0 10 0
0 15 0 15 15 0 15 0 0 15 0 15 15 0 15 0 0 -30 0 -30 -15 0 -15 0 0 -10 0 -10
-15 0 -15 0 0 -15 0 -15 -10 0 -10 0 0 -25 0 -25 -26 0 -25 0 -15 14 -14 15 0
25 0 26 10 0 10 0 0 -15 0 -15 15 0 15 0 0 15 0 15 -14 0 -14 0 -6 13 -6 12
-6 -12 -6 -13 -14 0 -14 0 0 -30 0 -30 11 0 10 0 15 -14 14 -15 0 -10 0 -11
-10 0 -10 0 0 -15 0 -15 -15 0 -15 0 0 -25 0 -25 15 0 15 0 0 -15 0 -15 10 0
10 0 0 15 0 15 15 0 15 0 0 15 0 15 -15 0 -15 0 0 -15 0 -15 -10 0 -10 0 0 25
0 25 10 0 10 0 0 15 0 15 30 0 30 0 0 -25 0 -25 10 0 10 0 0 -15 0 -15 15 0
15 0 0 -15 0 -15 15 0 15 0 0 -25 0 -25 -15 0 -15 0 0 15 0 15 -14 0 -14 0 -5
13 -4 12 -9 -9 -9 -9 13 -4 12 -5 0 -14 0 -14 15 0 15 0 0 -25 0 -25 15 0 15
0 0 -15 0 -15 10 0 10 0 0 -15 0 -15 15 0 15 0 0 -10 0 -10 15 0 15 0 0 90 0
90 -15 0 -15 0 0 -25 0 -25 -15 0 -15 0 0 25 0 25 -10 0 -10 0 0 30 0 30 50 0
50 0 0 10 0 10 15 0 15 0 0 15 0 15 25 0 25 0 0 -15 0 -15 -10 0 -10 0 0 -25
0 -25 10 0 10 0 0 -15 0 -15 15 0 15 0 0 15 0 15 15 0 15 0 0 15 0 15 -15 0
-15 0 0 -15 0 -15 -15 0 -15 0 0 25 0 25 15 0 15 0 0 15 0 15 40 0 40 0 0 15
0 15 -40 0 -40 0 0 10 0 10 -15 0 -15 0 0 30 0 30 15 0 15 0 0 -15 0 -15 15 0
15 0 0 15 0 15 -15 0 -15 0 0 10 0 10 -11 0 -10 0 -15 -14 -14 -15 0 -25 0
-26 10 0 10 0 0 -10 0 -10 -25 0 -25 0 0 10 0 10 -15 0 -15 0 0 15 0 15 -50 0
-50 0 0 25 0 25 10 0 10 0 0 30 0 30 15 0 15 0 0 -30 0 -30 15 0 15 0 0 95 0
95 -15 0 -15 0 0 15 0 15 -95 0 -95 0 0 -15z m110 -270 l0 -15 25 0 25 0 0
-10 0 -10 40 0 40 0 0 -15 0 -15 -40 0 -40 0 0 -15 0 -15 -25 0 -25 0 0 -10 0
-10 -15 0 -15 0 0 25 0 25 -10 0 -10 0 0 15 0 15 10 0 10 0 0 25 0 25 15 0 15
0 0 -15z"/>
<path d="M130 655 l0 -15 40 0 40 0 0 15 0 15 -40 0 -40 0 0 -15z"/>
<path d="M1010 975 l0 -15 -10 0 -10 0 0 -95 0 -95 10 0 10 0 0 30 0 30 15 0
15 0 0 -30 0 -30 15 0 15 0 0 -25 0 -25 -55 0 -55 0 0 -15 0 -15 -15 0 -15 0
0 -10 0 -10 -25 0 -25 0 0 10 0 10 -15 0 -15 0 0 -10 0 -10 -40 0 -40 0 0 -15
0 -15 40 0 40 0 0 -15 0 -15 15 0 15 0 0 -25 0 -25 -15 0 -15 0 0 15 0 15 -10
0 -10 0 0 -15 0 -15 10 0 10 0 0 -15 0 -15 15 0 15 0 0 15 0 15 15 0 15 0 0
25 0 25 -15 0 -15 0 0 15 0 15 25 0 25 0 0 -15 0 -15 15 0 15 0 0 -10 0 -10
55 0 55 0 0 -30 0 -30 -15 0 -15 0 0 -25 0 -25 -15 0 -15 0 0 25 0 25 -10 0
-10 0 0 -90 0 -90 10 0 10 0 0 -15 0 -15 95 0 95 0 0 15 0 15 -25 0 -25 0 0
10 0 10 25 0 25 0 0 15 0 15 -25 0 -25 0 0 11 0 10 14 15 15 14 10 0 11 0 0
15 0 15 -15 0 -15 0 0 -11 0 -10 -14 -15 -15 -14 -25 0 -26 0 0 -15 0 -15 -10
0 -10 0 0 -15 0 -15 -15 0 -15 0 0 -10 0 -10 -15 0 -15 0 0 10 0 10 15 0 15 0
0 15 0 15 15 0 15 0 0 15 0 15 10 0 10 0 0 25 0 25 -10 0 -10 0 0 25 0 25 10
0 10 0 0 15 0 15 15 0 15 0 0 15 0 15 15 0 15 0 0 25 0 25 25 0 25 0 0 -15 0
-15 15 0 15 0 0 -25 0 -25 -15 0 -15 0 0 15 0 15 -15 0 -15 0 0 -15 0 -15 15
0 15 0 0 -15 0 -15 15 0 15 0 0 15 0 15 10 0 10 0 0 25 0 25 -10 0 -10 0 0 15
0 15 -15 0 -15 0 0 15 0 15 11 0 10 0 15 14 14 15 0 21 0 21 -14 15 -15 14
-10 0 -11 0 0 -10 0 -10 -15 0 -15 0 0 -15 0 -15 15 0 15 0 0 15 0 15 15 0 15
0 0 -30 0 -30 -15 0 -15 0 0 -10 0 -10 -25 0 -25 0 0 25 0 25 -15 0 -15 0 0
15 0 15 -11 0 -10 0 -15 14 -14 15 0 25 0 26 10 0 10 0 0 25 0 25 -10 0 -10 0
0 15 0 15 -15 0 -15 0 0 10 0 10 -15 0 -15 0 0 15 0 15 15 0 15 0 0 -15 0 -15
11 0 10 0 15 -14 14 -15 0 -10 0 -11 30 0 30 0 0 -11 0 -10 14 -15 15 -14 10
0 11 0 0 10 0 10 -15 0 -15 0 0 15 0 15 -10 0 -10 0 0 15 0 15 25 0 25 0 0 10
0 10 -25 0 -25 0 0 15 0 15 25 0 25 0 0 15 0 15 -95 0 -95 0 0 -15z m110 -280
l0 -25 15 0 15 0 0 -15 0 -15 -15 0 -15 0 0 -25 0 -25 -15 0 -15 0 0 10 0 10
-25 0 -25 0 0 15 0 15 -40 0 -40 0 0 15 0 15 40 0 40 0 0 10 0 10 25 0 25 0 0
15 0 15 15 0 15 0 0 -25z"/>
<path d="M1040 655 l0 -15 40 0 40 0 0 15 0 15 -40 0 -40 0 0 -15z"/>
<path d="M430 945 l0 -15 10 0 10 0 0 -36 0 -35 -14 -15 -15 -14 -35 0 -36 0
0 10 0 10 -15 0 -15 0 0 -10 0 -10 15 0 15 0 0 -15 0 -15 40 0 40 0 0 11 0 10
14 15 15 14 10 0 11 0 0 40 0 40 -15 0 -15 0 0 15 0 15 -10 0 -10 0 0 -15z"/>
<path d="M450 815 l0 -15 15 0 15 0 0 -15 0 -15 -15 0 -15 0 0 -40 0 -40 15 0
15 0 0 -10 0 -10 15 0 15 0 0 -15 0 -15 -15 0 -15 0 0 -15 0 -15 -15 0 -15 0
0 -40 0 -40 15 0 15 0 0 -10 0 -10 15 0 15 0 0 -15 0 -15 40 0 40 0 0 11 0 10
14 15 15 14 10 0 11 0 0 -10 0 -10 15 0 15 0 0 -15 0 -15 40 0 40 0 0 11 0 10
14 15 15 14 10 0 11 0 0 40 0 40 -15 0 -15 0 0 15 0 15 -10 0 -10 0 0 11 0 10
14 15 15 14 10 0 11 0 0 40 0 40 -15 0 -15 0 0 15 0 15 -10 0 -10 0 0 15 0 15
-40 0 -40 0 0 -15 0 -15 -15 0 -15 0 0 -15 0 -15 -15 0 -15 0 0 15 0 15 -10 0
-10 0 0 15 0 15 -40 0 -40 0 0 -15 0 -15 -15 0 -15 0 0 15 0 15 -15 0 -15 0 0
-15z m110 -55 l0 -10 15 0 15 0 0 -15 0 -15 -15 0 -15 0 0 -15 0 -15 -15 0
-15 0 0 15 0 15 -10 0 -10 0 0 10 0 11 13 14 12 14 13 1 12 0 0 -10z m160 0
l0 -10 15 0 15 0 0 -15 0 -15 -15 0 -15 0 0 -15 0 -15 -15 0 -15 0 0 15 0 15
-10 0 -10 0 0 10 0 11 13 14 12 14 13 1 12 0 0 -10z m-80 -80 l0 -10 15 0 15
0 0 -15 0 -15 -15 0 -15 0 0 -15 0 -15 -15 0 -15 0 0 15 0 15 -10 0 -10 0 0
10 0 11 13 14 12 14 13 1 12 0 0 -10z m-80 -80 l0 -10 15 0 15 0 0 -15 0 -15
-15 0 -15 0 0 -15 0 -15 -15 0 -15 0 0 15 0 15 -10 0 -10 0 0 10 0 11 13 14
12 14 13 1 12 0 0 -10z m160 0 l0 -10 15 0 15 0 0 -15 0 -15 -15 0 -15 0 0
-15 0 -15 -15 0 -15 0 0 15 0 15 -10 0 -10 0 0 10 0 11 13 14 12 14 13 1 12 0
0 -10z"/>
<path d="M610 655 l0 -15 15 0 15 0 0 15 0 15 -15 0 -15 0 0 -15z"/>
<path d="M1090 815 l0 -15 15 0 15 0 0 -15 0 -15 15 0 15 0 0 15 0 15 -15 0
-15 0 0 15 0 15 -15 0 -15 0 0 -15z"/>
<path d="M843 755 l-13 -14 0 -11 0 -10 10 0 10 0 0 15 0 15 15 0 15 0 0 -30
0 -30 15 0 15 0 0 30 0 30 -15 0 -15 0 0 10 0 10 -12 0 -13 -1 -12 -14z"/>
<path d="M1120 520 l0 -10 -15 0 -15 0 0 -15 0 -15 15 0 15 0 0 15 0 15 15 0
15 0 0 10 0 10 -15 0 -15 0 0 -10z"/>
<path d="M350 495 l0 -15 -15 0 -15 0 0 -15 0 -15 15 0 15 0 0 15 0 15 40 0
40 0 0 -15 0 -15 -15 0 -15 0 0 -10 0 -10 -40 0 -40 0 0 -15 0 -15 -15 0 -15
0 0 -40 0 -40 -25 0 -25 0 0 15 0 15 -11 0 -10 0 -15 14 -14 15 0 10 0 11 -15
0 -15 0 0 15 0 15 -25 0 -25 0 0 10 0 10 -15 0 -15 0 0 15 0 15 -15 0 -15 0 0
-15 0 -15 15 0 15 0 0 -10 0 -10 15 0 15 0 0 -15 0 -15 -30 0 -30 0 0 -15 0
-15 30 0 30 0 0 -10 0 -10 -30 0 -30 0 0 -15 0 -15 95 0 95 0 0 -15 0 -15 15
0 15 0 0 -10 0 -10 -15 0 -15 0 0 -15 0 -15 -15 0 -15 0 0 -11 0 -10 -14 -15
-15 -14 -10 0 -11 0 0 -30 0 -30 -11 0 -10 0 -15 -14 -14 -15 0 -10 0 -11 10
0 10 0 0 15 0 15 15 0 15 0 0 10 0 10 15 0 15 0 0 -25 0 -25 10 0 10 0 0 25 0
25 15 0 15 0 0 -25 0 -25 40 0 40 0 0 25 0 25 15 0 15 0 0 -25 0 -25 10 0 10
0 0 25 0 25 15 0 15 0 0 -10 0 -10 15 0 15 0 0 -15 0 -15 10 0 10 0 0 11 0 10
-14 15 -15 14 -10 0 -11 0 0 30 0 30 -11 0 -10 0 -15 14 -14 15 0 10 0 11 -15
0 -15 0 0 15 0 15 15 0 15 0 0 -15 0 -15 10 0 10 0 0 -15 0 -15 15 0 15 0 0
-10 0 -10 25 0 25 0 0 10 0 10 26 0 25 0 15 -14 14 -15 0 -10 0 -11 15 0 15 0
0 -15 0 -15 25 0 25 0 0 -25 0 -25 -10 0 -10 0 0 -15 0 -15 -30 0 -30 0 0 15
0 15 15 0 15 0 0 15 0 15 -15 0 -15 0 0 -15 0 -15 -10 0 -10 0 0 -11 0 -10 14
-15 15 -14 21 0 21 0 15 14 14 15 0 10 0 11 15 0 15 0 0 -15 0 -15 15 0 15 0
0 -10 0 -10 25 0 25 0 0 10 0 10 15 0 15 0 0 15 0 15 -15 0 -15 0 0 15 0 15
-15 0 -15 0 0 -15 0 -15 15 0 15 0 0 -15 0 -15 -25 0 -25 0 0 15 0 15 -15 0
-15 0 0 25 0 25 25 0 25 0 0 15 0 15 15 0 15 0 0 15 0 15 15 0 15 0 0 10 0 10
25 0 25 0 0 -10 0 -10 25 0 25 0 0 10 0 10 15 0 15 0 0 15 0 15 15 0 15 0 0
15 0 15 10 0 10 0 0 10 0 10 -90 0 -90 0 0 -10 0 -10 25 0 25 0 0 -15 0 -15
-25 0 -25 0 0 -15 0 -15 -30 0 -30 0 0 55 0 55 -10 0 -10 0 0 15 0 15 -15 0
-15 0 0 25 0 25 15 0 15 0 0 -15 0 -15 25 0 25 0 0 15 0 15 15 0 15 0 0 15 0
15 -15 0 -15 0 0 10 0 10 -15 0 -15 0 0 -10 0 -10 15 0 15 0 0 -15 0 -15 -25
0 -25 0 0 15 0 15 -15 0 -15 0 0 40 0 40 -15 0 -15 0 0 -40 0 -40 -10 0 -10 0
0 -15 0 -15 10 0 10 0 0 -25 0 -25 -10 0 -10 0 0 -15 0 -15 -15 0 -15 0 0 -55
0 -55 -25 0 -25 0 0 15 0 15 -30 0 -30 0 0 15 0 15 30 0 30 0 0 10 0 10 -95 0
-95 0 0 -10 0 -10 -15 0 -15 0 0 25 0 25 40 0 40 0 0 15 0 15 15 0 15 0 0 40
0 40 15 0 15 0 0 10 0 10 10 0 10 0 0 -39 0 -39 -12 -5 -13 -4 9 -9 9 -9 4 13
5 12 14 0 14 0 0 40 0 40 -15 0 -15 0 0 15 0 15 15 0 15 0 0 15 0 15 -15 0
-15 0 0 -15 0 -15 -10 0 -10 0 0 15 0 15 -40 0 -40 0 0 -15z m290 -215 l0 -40
15 0 15 0 0 -25 0 -25 10 0 10 0 0 -15 0 -15 -25 0 -25 0 0 -15 0 -15 -15 0
-15 0 0 15 0 15 -25 0 -25 0 0 15 0 15 15 0 15 0 0 25 0 25 10 0 10 0 0 40 0
40 15 0 15 0 0 -40z"/>
<path d="M610 200 l0 -40 15 0 15 0 0 40 0 40 -15 0 -15 0 0 -40z"/>
<path d="M770 495 l0 -15 15 0 15 0 0 -15 0 -15 -15 0 -15 0 0 -40 0 -40 15 0
15 0 0 -10 0 -10 15 0 15 0 0 10 0 10 -15 0 -15 0 0 40 0 40 11 0 10 0 15 -14
14 -15 0 -35 0 -36 15 0 15 0 0 -15 0 -15 40 0 40 0 0 -25 0 -25 -15 0 -15 0
0 -15 0 -15 -10 0 -10 0 0 -15 0 -15 -15 0 -15 0 0 -10 0 -10 -15 0 -15 0 0
-26 0 -25 -14 -15 -15 -14 -10 0 -11 0 0 -15 0 -15 15 0 15 0 0 11 0 10 14 15
15 14 10 0 11 0 0 -25 0 -25 15 0 15 0 0 25 0 25 10 0 10 0 0 -25 0 -25 40 0
40 0 0 25 0 25 15 0 15 0 0 -25 0 -25 15 0 15 0 0 25 0 25 10 0 10 0 0 -10 0
-10 15 0 15 0 0 -15 0 -15 15 0 15 0 0 15 0 15 -15 0 -15 0 0 10 0 10 -15 0
-15 0 0 26 0 25 -14 15 -15 14 -10 0 -11 0 0 15 0 15 15 0 15 0 0 -11 0 -10
14 -15 15 -14 25 0 26 0 0 -15 0 -15 10 0 10 0 0 -15 0 -15 15 0 15 0 0 15 0
15 -15 0 -15 0 0 15 0 15 -10 0 -10 0 0 10 0 10 25 0 25 0 0 15 0 15 -25 0
-25 0 0 15 0 15 25 0 25 0 0 10 0 10 -94 0 -94 0 -5 -12 -4 -13 -9 9 -9 9 13
4 12 5 0 14 0 14 -25 0 -25 0 0 40 0 40 -15 0 -15 0 0 15 0 15 -36 0 -35 0
-15 14 -14 15 0 10 0 11 40 0 40 0 0 -15 0 -15 10 0 10 0 0 15 0 15 -10 0 -10
0 0 15 0 15 -40 0 -40 0 0 -15 0 -15 -15 0 -15 0 0 15 0 15 -15 0 -15 0 0 -15z"/>
<path d="M523 435 l-13 -14 0 -11 0 -10 10 0 10 0 0 -15 0 -15 30 0 30 0 0 15
0 15 -30 0 -30 0 0 15 0 15 15 0 15 0 0 10 0 10 -12 0 -13 -1 -12 -14z"/>
<path d="M50 280 l0 -10 30 0 30 0 0 -15 0 -15 -30 0 -30 0 0 -15 0 -15 30 0
30 0 0 -10 0 -10 25 0 25 0 0 10 0 10 15 0 15 0 0 15 0 15 10 0 10 0 0 15 0
15 15 0 15 0 0 10 0 10 -95 0 -95 0 0 -10z"/>
<path d="M80 175 l0 -15 -15 0 -15 0 0 -15 0 -15 15 0 15 0 0 15 0 15 15 0 15
0 0 15 0 15 -15 0 -15 0 0 -15z"/>
<path d="M450 175 l0 -15 15 0 15 0 0 -15 0 -15 15 0 15 0 0 15 0 15 -15 0
-15 0 0 15 0 15 -15 0 -15 0 0 -15z"/>
<path d="M770 175 l0 -15 -10 0 -10 0 0 -15 0 -15 10 0 10 0 0 15 0 15 15 0
15 0 0 15 0 15 -15 0 -15 0 0 -15z"/>
</g>
</svg>
