<?xml version="1.0" standalone="no"?>
<!DOCTYPE svg PUBLIC "-//W3C//DTD SVG 20010904//EN"
 "http://www.w3.org/TR/2001/REC-SVG-20010904/DTD/svg10.dtd">
<svg version="1.0" xmlns="http://www.w3.org/2000/svg"
 width="468pt" height="468pt" viewBox="0 0 468 468"
 preserveAspectRatio="xMidYMid meet">
<metadata>
Created by potrace 1.8, written by Peter Selinger 2001-2007
</metadata>
<g transform="translate(0,468) scale(0.365625,-0.365625)"
fill="#000000" stroke="none">
<path d="M0 1260 l0 -20 20 0 20 0 0 20 0 20 -20 0 -20 0 0 -20z"/>
<path d="M70 1245 l0 -35 -35 0 -35 0 0 -20 0 -20 35 0 35 0 0 20 0 20 20 0
20 0 0 35 0 35 -20 0 -20 0 0 -35z"/>
<path d="M180 1260 l0 -20 -20 0 -20 0 0 -35 0 -35 -15 0 -15 0 0 -15 0 -15
-35 0 -35 0 0 -20 0 -20 -20 0 -20 0 0 -15 0 -15 20 0 20 0 0 15 0 15 35 0 35
0 0 20 0 20 15 0 15 0 0 15 0 15 20 0 20 0 0 35 0 35 15 0 15 0 0 20 0 20 -15
0 -15 0 0 -20z"/>
<path d="M250 1245 l0 -35 -20 0 -20 0 0 -35 0 -35 -15 0 -15 0 0 -20 0 -20
-20 0 -20 0 0 -15 0 -15 -35 0 -35 0 0 -20 0 -20 -35 0 -35 0 0 -375 0 -375
35 0 35 0 0 -15 0 -15 35 0 35 0 0 -20 0 -20 20 0 20 0 0 -15 0 -15 15 0 15 0
0 -35 0 -35 20 0 20 0 0 -55 0 -55 375 0 375 0 0 55 0 55 15 0 15 0 0 35 0 35
20 0 20 0 0 15 0 15 15 0 15 0 0 20 0 20 35 0 35 0 0 15 0 15 55 0 55 0 0 375
0 375 -55 0 -55 0 0 20 0 20 -35 0 -35 0 0 15 0 15 -15 0 -15 0 0 20 0 20 -20
0 -20 0 0 35 0 35 -15 0 -15 0 0 35 0 35 -375 0 -375 0 0 -35z m530 -20 l0
-15 55 0 55 0 0 -20 0 -20 35 0 35 0 0 -15 0 -15 20 0 20 0 0 -20 0 -20 15 0
15 0 0 -15 0 -15 20 0 20 0 0 -20 0 -20 15 0 15 0 0 -15 0 -15 20 0 20 0 0
-40 0 -40 15 0 15 0 0 -50 0 -50 20 0 20 0 0 -160 0 -160 -20 0 -20 0 0 -55 0
-55 -15 0 -15 0 0 -35 0 -35 -20 0 -20 0 0 -20 0 -20 -15 0 -15 0 0 -15 0 -15
-20 0 -20 0 0 -20 0 -20 -15 0 -15 0 0 -15 0 -15 -20 0 -20 0 0 -20 0 -20 -35
0 -35 0 0 -15 0 -15 -55 0 -55 0 0 -20 0 -20 -160 0 -160 0 0 20 0 20 -50 0
-50 0 0 15 0 15 -40 0 -40 0 0 20 0 20 -15 0 -15 0 0 15 0 15 -20 0 -20 0 0
20 0 20 -15 0 -15 0 0 15 0 15 -20 0 -20 0 0 20 0 20 -15 0 -15 0 0 35 0 35
-20 0 -20 0 0 55 0 55 -15 0 -15 0 0 160 0 160 15 0 15 0 0 50 0 50 20 0 20 0
0 40 0 40 15 0 15 0 0 15 0 15 20 0 20 0 0 20 0 20 15 0 15 0 0 15 0 15 20 0
20 0 0 20 0 20 15 0 15 0 0 15 0 15 40 0 40 0 0 20 0 20 50 0 50 0 0 15 0 15
160 0 160 0 0 -15z"/>
<path d="M500 1190 l0 -20 -55 0 -55 0 0 -15 0 -15 -35 0 -35 0 0 -20 0 -20
-20 0 -20 0 0 -15 0 -15 -15 0 -15 0 0 -20 0 -20 -20 0 -20 0 0 -15 0 -15 -15
0 -15 0 0 -20 0 -20 -20 0 -20 0 0 -35 0 -35 -15 0 -15 0 0 -55 0 -55 -20 0
-20 0 0 -125 0 -125 20 0 20 0 0 -50 0 -50 15 0 15 0 0 -35 0 -35 20 0 20 0 0
-20 0 -20 15 0 15 0 0 -20 0 -20 20 0 20 0 0 -15 0 -15 15 0 15 0 0 -20 0 -20
20 0 20 0 0 -15 0 -15 35 0 35 0 0 -20 0 -20 55 0 55 0 0 -15 0 -15 125 0 125
0 0 15 0 15 50 0 50 0 0 20 0 20 35 0 35 0 0 15 0 15 20 0 20 0 0 20 0 20 20
0 20 0 0 15 0 15 15 0 15 0 0 20 0 20 20 0 20 0 0 20 0 20 15 0 15 0 0 35 0
35 20 0 20 0 0 50 0 50 15 0 15 0 0 125 0 125 -15 0 -15 0 0 55 0 55 -20 0
-20 0 0 35 0 35 -15 0 -15 0 0 20 0 20 -20 0 -20 0 0 15 0 15 -15 0 -15 0 0
20 0 20 -20 0 -20 0 0 15 0 15 -20 0 -20 0 0 20 0 20 -35 0 -35 0 0 15 0 15
-50 0 -50 0 0 20 0 20 -125 0 -125 0 0 -20z m250 -35 l0 -15 50 0 50 0 0 -20
0 -20 35 0 35 0 0 -15 0 -15 20 0 20 0 0 -20 0 -20 20 0 20 0 0 -15 0 -15 15
0 15 0 0 -20 0 -20 20 0 20 0 0 -35 0 -35 15 0 15 0 0 -55 0 -55 20 0 20 0 0
-125 0 -125 -20 0 -20 0 0 -50 0 -50 -15 0 -15 0 0 -35 0 -35 -20 0 -20 0 0
-20 0 -20 -15 0 -15 0 0 -20 0 -20 -20 0 -20 0 0 -15 0 -15 -20 0 -20 0 0 -20
0 -20 -35 0 -35 0 0 -15 0 -15 -50 0 -50 0 0 -20 0 -20 -125 0 -125 0 0 20 0
20 -55 0 -55 0 0 15 0 15 -35 0 -35 0 0 20 0 20 -20 0 -20 0 0 15 0 15 -15 0
-15 0 0 20 0 20 -20 0 -20 0 0 20 0 20 -15 0 -15 0 0 35 0 35 -20 0 -20 0 0
50 0 50 -15 0 -15 0 0 125 0 125 15 0 15 0 0 55 0 55 20 0 20 0 0 35 0 35 15
0 15 0 0 20 0 20 20 0 20 0 0 15 0 15 15 0 15 0 0 20 0 20 20 0 20 0 0 15 0
15 35 0 35 0 0 20 0 20 55 0 55 0 0 15 0 15 125 0 125 0 0 -15z"/>
<path d="M530 1120 l0 -20 -50 0 -50 0 0 -15 0 -15 -35 0 -35 0 0 -20 0 -20
-20 0 -20 0 0 -15 0 -15 -20 0 -20 0 0 -20 0 -20 -15 0 -15 0 0 -20 0 -20 -20
0 -20 0 0 -35 0 -35 -15 0 -15 0 0 -50 0 -50 -20 0 -20 0 0 -90 0 -90 20 0 20
0 0 -55 0 -55 15 0 15 0 0 -35 0 -35 20 0 20 0 0 -15 0 -15 15 0 15 0 0 -20 0
-20 20 0 20 0 0 -20 0 -20 20 0 20 0 0 -15 0 -15 35 0 35 0 0 -20 0 -20 50 0
50 0 0 -15 0 -15 90 0 90 0 0 15 0 15 55 0 55 0 0 20 0 20 35 0 35 0 0 15 0
15 15 0 15 0 0 20 0 20 20 0 20 0 0 20 0 20 20 0 20 0 0 15 0 15 15 0 15 0 0
35 0 35 20 0 20 0 0 55 0 55 15 0 15 0 0 90 0 90 -15 0 -15 0 0 50 0 50 -20 0
-20 0 0 35 0 35 -15 0 -15 0 0 20 0 20 -20 0 -20 0 0 20 0 20 -20 0 -20 0 0
15 0 15 -15 0 -15 0 0 20 0 20 -35 0 -35 0 0 15 0 15 -55 0 -55 0 0 20 0 20
-90 0 -90 0 0 -20z m180 -35 l0 -15 55 0 55 0 0 -20 0 -20 35 0 35 0 0 -15 0
-15 15 0 15 0 0 -20 0 -20 20 0 20 0 0 -20 0 -20 20 0 20 0 0 -35 0 -35 15 0
15 0 0 -50 0 -50 20 0 20 0 0 -90 0 -90 -20 0 -20 0 0 -55 0 -55 -15 0 -15 0
0 -35 0 -35 -20 0 -20 0 0 -15 0 -15 -20 0 -20 0 0 -20 0 -20 -15 0 -15 0 0
-20 0 -20 -35 0 -35 0 0 -15 0 -15 -55 0 -55 0 0 -20 0 -20 -90 0 -90 0 0 20
0 20 -50 0 -50 0 0 15 0 15 -35 0 -35 0 0 20 0 20 -20 0 -20 0 0 20 0 20 -20
0 -20 0 0 15 0 15 -15 0 -15 0 0 35 0 35 -20 0 -20 0 0 55 0 55 -15 0 -15 0 0
90 0 90 15 0 15 0 0 50 0 50 20 0 20 0 0 35 0 35 15 0 15 0 0 20 0 20 20 0 20
0 0 20 0 20 20 0 20 0 0 15 0 15 35 0 35 0 0 20 0 20 50 0 50 0 0 15 0 15 90
0 90 0 0 -15z"/>
<path d="M570 1050 l0 -20 -55 0 -55 0 0 -15 0 -15 -35 0 -35 0 0 -20 0 -20
-15 0 -15 0 0 -20 0 -20 -20 0 -20 0 0 -15 0 -15 -20 0 -20 0 0 -35 0 -35 -15
0 -15 0 0 -55 0 -55 -20 0 -20 0 0 -55 0 -55 20 0 20 0 0 -50 0 -50 15 0 15 0
0 -35 0 -35 20 0 20 0 0 -20 0 -20 20 0 20 0 0 -15 0 -15 15 0 15 0 0 -20 0
-20 35 0 35 0 0 -20 0 -20 55 0 55 0 0 -15 0 -15 55 0 55 0 0 15 0 15 50 0 50
0 0 20 0 20 35 0 35 0 0 20 0 20 20 0 20 0 0 15 0 15 15 0 15 0 0 20 0 20 20
0 20 0 0 35 0 35 20 0 20 0 0 50 0 50 15 0 15 0 0 55 0 55 -15 0 -15 0 0 55 0
55 -20 0 -20 0 0 35 0 35 -20 0 -20 0 0 15 0 15 -15 0 -15 0 0 20 0 20 -20 0
-20 0 0 20 0 20 -35 0 -35 0 0 15 0 15 -50 0 -50 0 0 20 0 20 -55 0 -55 0 0
-20z m110 -35 l0 -15 50 0 50 0 0 -20 0 -20 35 0 35 0 0 -20 0 -20 20 0 20 0
0 -15 0 -15 15 0 15 0 0 -35 0 -35 20 0 20 0 0 -55 0 -55 20 0 20 0 0 -55 0
-55 -20 0 -20 0 0 -50 0 -50 -20 0 -20 0 0 -35 0 -35 -15 0 -15 0 0 -20 0 -20
-20 0 -20 0 0 -15 0 -15 -35 0 -35 0 0 -20 0 -20 -50 0 -50 0 0 -20 0 -20 -55
0 -55 0 0 20 0 20 -55 0 -55 0 0 20 0 20 -35 0 -35 0 0 15 0 15 -15 0 -15 0 0
20 0 20 -20 0 -20 0 0 35 0 35 -20 0 -20 0 0 50 0 50 -15 0 -15 0 0 55 0 55
15 0 15 0 0 55 0 55 20 0 20 0 0 35 0 35 20 0 20 0 0 15 0 15 15 0 15 0 0 20
0 20 35 0 35 0 0 20 0 20 55 0 55 0 0 15 0 15 55 0 55 0 0 -15z"/>
<path d="M600 980 l0 -20 -50 0 -50 0 0 -20 0 -20 -35 0 -35 0 0 -15 0 -15
-20 0 -20 0 0 -20 0 -20 -15 0 -15 0 0 -35 0 -35 -20 0 -20 0 0 -50 0 -50 -20
0 -20 0 0 -20 0 -20 20 0 20 0 0 -55 0 -55 20 0 20 0 0 -35 0 -35 15 0 15 0 0
-15 0 -15 20 0 20 0 0 -20 0 -20 35 0 35 0 0 -15 0 -15 50 0 50 0 0 -20 0 -20
20 0 20 0 0 20 0 20 55 0 55 0 0 15 0 15 35 0 35 0 0 20 0 20 15 0 15 0 0 15
0 15 20 0 20 0 0 35 0 35 15 0 15 0 0 55 0 55 20 0 20 0 0 20 0 20 -20 0 -20
0 0 50 0 50 -15 0 -15 0 0 35 0 35 -20 0 -20 0 0 20 0 20 -15 0 -15 0 0 15 0
15 -35 0 -35 0 0 20 0 20 -55 0 -55 0 0 20 0 20 -20 0 -20 0 0 -20z m40 -40
l0 -20 55 0 55 0 0 -15 0 -15 35 0 35 0 0 -20 0 -20 15 0 15 0 0 -35 0 -35 20
0 20 0 0 -50 0 -50 15 0 15 0 0 -20 0 -20 -15 0 -15 0 0 -55 0 -55 -20 0 -20
0 0 -35 0 -35 -15 0 -15 0 0 -15 0 -15 -35 0 -35 0 0 -20 0 -20 -55 0 -55 0 0
-15 0 -15 -20 0 -20 0 0 15 0 15 -50 0 -50 0 0 20 0 20 -35 0 -35 0 0 15 0 15
-20 0 -20 0 0 35 0 35 -15 0 -15 0 0 55 0 55 -20 0 -20 0 0 20 0 20 20 0 20 0
0 50 0 50 15 0 15 0 0 35 0 35 20 0 20 0 0 20 0 20 35 0 35 0 0 15 0 15 50 0
50 0 0 20 0 20 20 0 20 0 0 -20z"/>
<path d="M530 870 l0 -20 -35 0 -35 0 0 -15 0 -15 -15 0 -15 0 0 -35 0 -35
-20 0 -20 0 0 -90 0 -90 20 0 20 0 0 -35 0 -35 15 0 15 0 0 -20 0 -20 35 0 35
0 0 -15 0 -15 90 0 90 0 0 15 0 15 35 0 35 0 0 20 0 20 -35 0 -35 0 0 -20 0
-20 -90 0 -90 0 0 20 0 20 -35 0 -35 0 0 35 0 35 -15 0 -15 0 0 90 0 90 15 0
15 0 0 35 0 35 35 0 35 0 0 15 0 15 90 0 90 0 0 -15 0 -15 35 0 35 0 0 -35 0
-35 20 0 20 0 0 -90 0 -90 -20 0 -20 0 0 -35 0 -35 20 0 20 0 0 35 0 35 15 0
15 0 0 90 0 90 -15 0 -15 0 0 35 0 35 -20 0 -20 0 0 15 0 15 -35 0 -35 0 0 20
0 20 -90 0 -90 0 0 -20z"/>
<path d="M570 800 l0 -20 -35 0 -35 0 0 -35 0 -35 -20 0 -20 0 0 -55 0 -55 20
0 20 0 0 -35 0 -35 35 0 35 0 0 -15 0 -15 55 0 55 0 0 15 0 15 35 0 35 0 0 35
0 35 15 0 15 0 0 55 0 55 -15 0 -15 0 0 35 0 35 -35 0 -35 0 0 20 0 20 -55 0
-55 0 0 -20z m110 -35 l0 -15 15 0 15 0 0 -20 0 -20 20 0 20 0 0 -55 0 -55
-20 0 -20 0 0 -15 0 -15 -15 0 -15 0 0 -20 0 -20 -55 0 -55 0 0 20 0 20 -20 0
-20 0 0 15 0 15 -15 0 -15 0 0 55 0 55 15 0 15 0 0 20 0 20 20 0 20 0 0 15 0
15 55 0 55 0 0 -15z"/>
<path d="M600 730 l0 -20 -15 0 -15 0 0 -15 0 -15 -20 0 -20 0 0 -20 0 -20 20
0 20 0 0 -20 0 -20 15 0 15 0 0 -15 0 -15 20 0 20 0 0 15 0 15 20 0 20 0 0 20
0 20 15 0 15 0 0 20 0 20 -15 0 -15 0 0 15 0 15 -20 0 -20 0 0 20 0 20 -20 0
-20 0 0 -20z m40 -35 l0 -15 20 0 20 0 0 -20 0 -20 -20 0 -20 0 0 -20 0 -20
-20 0 -20 0 0 20 0 20 -15 0 -15 0 0 20 0 20 15 0 15 0 0 15 0 15 20 0 20 0 0
-15z"/>
<path d="M1030 1260 l0 -20 20 0 20 0 0 -35 0 -35 15 0 15 0 0 -15 0 -15 20 0
20 0 0 -20 0 -20 35 0 35 0 0 -15 0 -15 35 0 35 0 0 15 0 15 -35 0 -35 0 0 20
0 20 -35 0 -35 0 0 15 0 15 -20 0 -20 0 0 35 0 35 -15 0 -15 0 0 20 0 20 -20
0 -20 0 0 -20z"/>
<path d="M1140 1245 l0 -35 15 0 15 0 0 -20 0 -20 35 0 35 0 0 -15 0 -15 20 0
20 0 0 15 0 15 -20 0 -20 0 0 20 0 20 -35 0 -35 0 0 35 0 35 -15 0 -15 0 0
-35z"/>
<path d="M1210 1260 l0 -20 35 0 35 0 0 20 0 20 -35 0 -35 0 0 -20z"/>
<path d="M0 230 l0 -20 20 0 20 0 0 -15 0 -15 35 0 35 0 0 -20 0 -20 15 0 15
0 0 -35 0 -35 20 0 20 0 0 -35 0 -35 15 0 15 0 0 35 0 35 -15 0 -15 0 0 35 0
35 -20 0 -20 0 0 20 0 20 -15 0 -15 0 0 15 0 15 -35 0 -35 0 0 20 0 20 -20 0
-20 0 0 -20z"/>
<path d="M1210 230 l0 -20 -35 0 -35 0 0 -15 0 -15 -20 0 -20 0 0 -20 0 -20
-15 0 -15 0 0 -35 0 -35 -20 0 -20 0 0 -35 0 -35 20 0 20 0 0 35 0 35 15 0 15
0 0 35 0 35 20 0 20 0 0 20 0 20 35 0 35 0 0 15 0 15 35 0 35 0 0 20 0 20 -35
0 -35 0 0 -20z"/>
<path d="M1240 160 l0 -20 -35 0 -35 0 0 -15 0 -15 -15 0 -15 0 0 -35 0 -35
-20 0 -20 0 0 -20 0 -20 20 0 20 0 0 20 0 20 15 0 15 0 0 35 0 35 35 0 35 0 0
15 0 15 20 0 20 0 0 20 0 20 -20 0 -20 0 0 -20z"/>
<path d="M0 125 l0 -15 35 0 35 0 0 -35 0 -35 20 0 20 0 0 -20 0 -20 15 0 15
0 0 20 0 20 -15 0 -15 0 0 35 0 35 -20 0 -20 0 0 15 0 15 -35 0 -35 0 0 -15z"/>
<path d="M0 35 l0 -35 20 0 20 0 0 35 0 35 -20 0 -20 0 0 -35z"/>
<path d="M1210 35 l0 -35 15 0 15 0 0 20 0 20 20 0 20 0 0 15 0 15 -35 0 -35
0 0 -35z"/>
</g>
</svg>
