<?xml version="1.0" standalone="no"?>
<!DOCTYPE svg PUBLIC "-//W3C//DTD SVG 20010904//EN"
 "http://www.w3.org/TR/2001/REC-SVG-20010904/DTD/svg10.dtd">
<svg version="1.0" xmlns="http://www.w3.org/2000/svg"
 width="468pt" height="468pt" viewBox="0 0 468 468"
 preserveAspectRatio="xMidYMid meet">
<metadata>
Created by potrace 1.8, written by Peter Selinger 2001-2007
</metadata>
<g transform="translate(0,468) scale(0.365625,-0.365625)"
fill="#000000" stroke="none">
<path d="M600 1270 l0 -10 10 0 10 0 0 10 0 10 -10 0 -10 0 0 -10z"/>
<path d="M760 1250 l0 -10 -110 0 -110 0 0 -10 0 -10 -16 0 -15 0 -15 -14 -14
-15 0 -15 0 -16 -20 0 -20 0 0 -10 0 -10 -10 0 -10 0 0 20 0 20 -10 0 -10 0 0
-10 0 -10 -20 0 -20 0 0 -9 0 -9 13 -6 12 -6 -12 -6 -13 -6 0 -19 0 -19 -26 0
-25 0 -15 -14 -14 -15 0 -15 0 -16 20 0 20 0 0 -10 0 -10 -25 0 -26 0 -44 -45
-45 -44 0 -16 0 -15 -10 0 -10 0 0 -30 0 -30 -10 0 -10 0 0 -30 0 -30 10 0 10
0 0 -16 0 -15 14 -15 15 -14 44 0 45 0 6 13 6 12 6 -12 6 -13 15 0 14 0 15
-14 14 -15 0 -35 0 -36 10 0 10 0 0 -20 0 -20 10 0 10 0 0 -70 0 -70 10 0 10
0 0 -28 0 -28 20 -14 20 -14 0 -14 0 -13 14 -15 15 -14 31 0 31 0 24 25 25 24
0 16 0 15 10 0 10 0 0 26 0 26 30 28 30 28 0 66 0 66 10 0 10 0 0 16 0 15 14
15 15 14 11 0 11 0 15 14 14 15 0 15 0 16 10 0 10 0 0 20 0 20 -35 0 -36 0
-34 35 -35 34 0 16 0 15 -10 0 -10 0 0 29 0 29 -12 5 -13 4 7 8 7 7 16 -15 15
-16 0 -13 0 -14 20 -14 20 -14 0 -18 0 -18 10 0 10 0 0 -20 0 -20 20 0 20 0 0
10 0 10 20 0 20 0 0 10 0 10 15 0 16 0 24 25 25 24 0 16 0 15 -19 0 -19 0 -5
13 -5 12 -10 -14 -10 -14 -27 27 -27 27 7 7 8 7 4 -12 5 -13 29 0 29 0 0 -10
0 -10 48 0 48 0 14 -20 14 -20 18 0 18 0 0 -20 0 -20 10 0 10 0 0 -20 0 -20
10 0 10 0 0 -15 0 -16 26 -26 25 -25 7 7 7 8 -12 4 -13 5 0 49 0 49 10 0 10 0
0 20 0 20 16 0 15 0 15 -14 14 -15 0 -11 0 -12 30 -28 30 -28 0 -16 0 -16 10
0 10 0 0 30 0 30 -10 0 -10 0 0 68 0 68 -20 14 -20 14 0 16 0 16 -20 14 -20
14 0 13 0 14 -45 44 -44 45 -14 0 -13 0 -14 20 -14 20 -16 0 -16 0 -14 20 -14
20 -28 0 -28 0 0 10 0 10 -20 0 -20 0 0 10 0 10 -40 0 -40 0 0 -10z m-200 -56
l0 -5 -15 -16 -16 -15 -5 5 -6 6 13 15 14 15 8 1 7 0 0 -6z m-74 -108 l14 -15
0 -15 0 -16 20 0 20 0 0 10 0 10 10 0 10 0 0 -20 0 -20 40 0 40 0 0 -20 0 -20
-29 0 -29 0 -6 -12 -6 -13 -6 13 -6 12 -38 0 -38 0 -6 -12 -6 -13 -6 13 -6 12
-19 0 -19 0 0 20 0 20 -40 0 -40 0 0 5 0 6 25 24 24 25 21 0 21 0 16 -16 16
-16 -14 -8 -13 -9 6 -7 7 -6 16 15 15 16 0 15 0 16 -10 0 -10 0 0 10 0 10 6 0
5 0 15 -14z"/>
<path d="M400 1230 l0 -10 20 0 20 0 0 10 0 10 -20 0 -20 0 0 -10z"/>
<path d="M1200 670 l0 -30 10 0 10 0 0 -20 0 -20 30 0 30 0 0 50 0 50 -10 0
-10 0 0 -40 0 -40 -10 0 -10 0 0 20 0 20 -10 0 -10 0 0 20 0 20 -10 0 -10 0 0
-30z"/>
<path d="M0 580 l0 -40 10 0 10 0 0 -50 0 -50 10 0 10 0 0 -20 0 -20 10 0 10
0 0 20 0 20 -10 0 -10 0 0 70 0 70 -10 0 -10 0 0 20 0 20 -10 0 -10 0 0 -40z"/>
<path d="M760 470 l0 -10 -20 0 -20 0 0 -9 0 -9 13 -6 12 -6 -12 -6 -13 -6 0
-29 0 -29 6 0 5 0 15 14 14 15 0 15 0 16 10 0 10 0 0 30 0 30 -10 0 -10 0 0
-10z"/>
<path d="M1200 360 l0 -20 10 0 10 0 0 20 0 20 -10 0 -10 0 0 -20z"/>
<path d="M860 50 l0 -10 10 0 10 0 0 10 0 10 -10 0 -10 0 0 -10z"/>
<path d="M500 30 l0 -10 30 0 30 0 0 -10 0 -10 90 0 90 0 0 10 0 10 50 0 50 0
0 10 0 10 -170 0 -170 0 0 -10z"/>
</g>
</svg>
