<?xml version="1.0" standalone="no"?>
<!DOCTYPE svg PUBLIC "-//W3C//DTD SVG 20010904//EN"
 "http://www.w3.org/TR/2001/REC-SVG-20010904/DTD/svg10.dtd">
<svg version="1.0" xmlns="http://www.w3.org/2000/svg"
 width="468pt" height="468pt" viewBox="0 0 468 468"
 preserveAspectRatio="xMidYMid meet">
<metadata>
Created by potrace 1.8, written by Peter Selinger 2001-2007
</metadata>
<g transform="translate(0,468) scale(0.365625,-0.365625)"
fill="#000000" stroke="none">
<path d="M13 1265 l-13 -14 0 -626 0 -625 10 0 10 0 0 615 0 615 15 0 15 0 0
15 0 15 165 0 165 0 0 -11 0 -10 14 -15 15 -14 6 0 6 0 15 -14 14 -15 0 -6 0
-6 14 -15 15 -14 10 0 11 0 0 -15 0 -15 10 0 10 0 0 -20 0 -20 15 0 15 0 0
-15 0 -15 -15 0 -15 0 0 -10 0 -10 15 0 15 0 0 -10 0 -10 -15 0 -15 0 0 -15 0
-15 15 0 15 0 0 -10 0 -10 -15 0 -15 0 0 -15 0 -15 15 0 15 0 0 -10 0 -10 -15
0 -15 0 0 -10 0 -10 15 0 15 0 0 -15 0 -15 10 0 10 0 0 14 0 14 -12 5 -13 5
15 12 15 12 -12 5 -13 5 0 13 0 13 13 6 12 6 -13 6 -12 6 0 13 0 13 13 5 12 5
-15 12 -15 12 13 5 12 5 0 14 0 14 -10 0 -10 0 0 20 0 20 9 0 9 0 6 -12 6 -13
6 13 6 12 13 0 13 0 5 -12 5 -13 12 15 12 15 5 -12 5 -13 13 0 13 0 5 13 5 12
12 -15 12 -15 5 13 5 12 13 0 13 0 6 -12 6 -13 6 13 6 12 13 0 13 0 6 -12 6
-13 6 13 6 12 9 0 9 0 0 -20 0 -20 -10 0 -10 0 0 -14 0 -14 13 -5 12 -5 -15
-12 -15 -12 13 -5 12 -5 0 -13 0 -13 -12 -6 -13 -6 13 -6 12 -6 0 -13 0 -13
-12 -5 -13 -5 15 -12 15 -12 -12 -5 -13 -5 0 -14 0 -14 10 0 10 0 0 15 0 15
15 0 15 0 0 10 0 10 -15 0 -15 0 0 10 0 10 15 0 15 0 0 15 0 15 -15 0 -15 0 0
10 0 10 15 0 15 0 0 15 0 15 -15 0 -15 0 0 10 0 10 15 0 15 0 0 10 0 10 -15 0
-15 0 0 15 0 15 15 0 15 0 0 20 0 20 10 0 10 0 0 11 0 10 14 15 15 14 10 0 11
0 0 11 0 10 14 15 15 14 6 0 6 0 15 14 14 15 0 10 0 11 95 0 95 0 0 -11 0 -10
14 -15 15 -14 10 0 11 0 0 -605 0 -605 10 0 10 0 0 615 0 615 -10 0 -10 0 0
15 0 15 -15 0 -15 0 0 10 0 10 -602 0 -603 -1 -12 -14z m417 -20 l0 -15 10 0
10 0 0 15 0 15 10 0 10 0 0 -15 0 -15 15 0 15 0 0 15 0 15 10 0 10 0 0 -15 0
-15 15 0 15 0 0 15 0 15 10 0 10 0 0 -11 0 -10 14 -15 15 -14 6 0 6 0 15 14
14 15 0 10 0 11 10 0 10 0 0 -15 0 -15 15 0 15 0 0 15 0 15 10 0 10 0 0 -11 0
-10 14 -15 15 -14 9 0 10 0 6 13 6 12 6 -12 6 -13 10 0 9 0 15 14 14 15 0 10
0 11 10 0 10 0 0 -15 0 -15 15 0 15 0 0 15 0 15 10 0 10 0 0 -11 0 -10 14 -15
15 -14 6 0 6 0 15 14 14 15 0 10 0 11 15 0 15 0 0 -15 0 -15 -13 0 -13 0 -14
-20 -14 -20 -13 0 -13 0 0 -13 0 -13 -20 -14 -20 -14 0 -13 0 -13 -15 0 -15 0
0 15 0 15 11 0 10 0 15 14 14 15 0 6 0 6 -14 15 -15 14 -6 0 -6 0 -15 -14 -14
-15 0 -9 0 -10 13 -6 12 -6 -12 -6 -13 -6 0 -14 0 -14 -10 0 -10 0 0 15 0 15
-15 0 -15 0 0 -15 0 -15 -10 0 -10 0 0 15 0 15 -15 0 -15 0 0 -15 0 -15 -10 0
-10 0 0 14 0 14 -12 6 -13 6 13 6 12 6 0 10 0 9 -14 15 -15 14 -6 0 -6 0 -15
-14 -14 -15 0 -9 0 -10 13 -6 12 -6 -12 -6 -13 -6 0 -14 0 -14 -10 0 -10 0 0
15 0 15 -15 0 -15 0 0 -15 0 -15 -10 0 -10 0 0 14 0 14 -12 6 -13 6 13 6 12 6
0 10 0 9 -14 15 -15 14 -9 0 -10 0 -6 -12 -6 -13 -6 13 -6 12 -14 0 -14 0 0
-10 0 -10 15 0 15 0 0 -11 0 -10 14 -15 15 -14 10 0 11 0 0 -15 0 -15 -15 0
-15 0 0 11 0 10 -14 15 -15 14 -10 0 -11 0 0 10 0 11 -25 24 -24 25 -11 0 -10
0 0 15 0 15 15 0 15 0 0 -15z m190 0 l0 -15 -15 0 -15 0 0 15 0 15 15 0 15 0
0 -15z m140 0 l0 -15 -15 0 -15 0 0 15 0 15 15 0 15 0 0 -15z m50 0 l0 -15
-15 0 -15 0 0 15 0 15 15 0 15 0 0 -15z m140 0 l0 -15 -15 0 -15 0 0 15 0 15
15 0 15 0 0 -15z m-400 -70 l0 -15 -15 0 -15 0 0 15 0 15 15 0 15 0 0 -15z
m140 0 l0 -15 -15 0 -15 0 0 15 0 15 15 0 15 0 0 -15z m190 0 l0 -15 -15 0
-15 0 0 15 0 15 15 0 15 0 0 -15z m-190 -50 l0 -15 -15 0 -15 0 0 15 0 15 15
0 15 0 0 -15z"/>
<path d="M450 1220 l0 -10 10 0 10 0 0 10 0 10 -10 0 -10 0 0 -10z"/>
<path d="M500 1220 l0 -10 10 0 10 0 0 10 0 10 -10 0 -10 0 0 -10z"/>
<path d="M550 1222 l0 -8 20 -14 20 -14 0 -12 0 -12 -12 -5 -13 -4 9 -9 9 -9
4 13 5 12 13 0 13 0 5 -12 4 -13 9 9 9 9 -12 4 -13 5 0 10 0 11 22 18 21 19
-6 7 -7 6 -19 -21 -18 -22 -9 0 -10 0 -14 20 -14 20 -8 0 -8 0 0 -8z"/>
<path d="M690 1222 l0 -8 20 -14 20 -14 0 -12 0 -12 -12 -5 -13 -4 9 -9 9 -9
4 13 5 12 13 0 13 0 6 -12 6 -13 6 13 6 12 13 0 13 0 5 -12 4 -13 9 9 9 9 -12
4 -13 5 0 10 0 11 22 18 21 19 -6 7 -7 6 -19 -21 -18 -22 -11 0 -10 0 -6 13
-6 12 -6 -12 -6 -13 -12 0 -12 0 -14 20 -14 20 -8 0 -8 0 0 -8z m90 -47 l0
-15 -10 0 -10 0 0 15 0 15 10 0 10 0 0 -15z"/>
<path d="M880 1224 l0 -5 15 -16 16 -15 6 5 5 6 -15 16 -16 15 -5 0 -6 0 0 -6z"/>
<path d="M90 1220 l0 -10 25 0 25 0 0 -85 0 -85 -35 0 -35 0 0 35 0 35 -10 0
-10 0 0 -31 0 -30 14 -15 15 -14 30 0 31 0 0 10 0 10 15 0 15 0 0 85 0 85 20
0 20 0 0 10 0 10 -60 0 -60 0 0 -10z"/>
<path d="M1000 1080 l0 -10 -15 0 -15 0 0 -60 0 -60 -10 0 -10 0 0 10 0 10
-15 0 -15 0 0 -25 0 -25 15 0 15 0 0 -10 0 -10 35 0 35 0 0 -10 0 -10 10 0 10
0 0 91 0 90 -14 15 -15 14 -5 0 -6 0 0 -10z"/>
<path d="M590 1055 l0 -15 35 0 35 0 0 15 0 15 -35 0 -35 0 0 -15z"/>
<path d="M730 1055 l0 -15 40 0 40 0 0 15 0 15 -40 0 -40 0 0 -15z"/>
<path d="M590 1010 l0 -10 15 0 15 0 0 -15 0 -15 10 0 10 0 0 11 0 10 -14 15
-15 14 -10 0 -11 0 0 -10z"/>
<path d="M690 985 l0 -35 10 0 10 0 0 35 0 35 -10 0 -10 0 0 -35z"/>
<path d="M773 1005 l-13 -14 0 -11 0 -10 10 0 10 0 0 15 0 15 15 0 15 0 0 10
0 10 -12 0 -13 -1 -12 -14z"/>
<path d="M90 885 l0 -35 15 0 15 0 0 -10 0 -10 -15 0 -15 0 0 10 0 10 -20 0
-20 0 0 -35 0 -35 20 0 20 0 0 -10 0 -10 40 0 40 0 0 10 0 10 20 0 20 0 0 35
0 35 -20 0 -20 0 0 -10 0 -10 -15 0 -15 0 0 10 0 10 15 0 15 0 0 35 0 35 -40
0 -40 0 0 -35z m30 -90 l0 -15 -15 0 -15 0 0 15 0 15 15 0 15 0 0 -15z m50 0
l0 -15 -15 0 -15 0 0 15 0 15 15 0 15 0 0 -15z"/>
<path d="M660 910 l0 -10 35 0 35 0 0 10 0 10 -35 0 -35 0 0 -10z"/>
<path d="M970 865 l0 -15 15 0 15 0 0 15 0 15 -15 0 -15 0 0 -15z"/>
<path d="M500 841 l0 -9 13 -6 12 -6 -12 -6 -13 -6 0 -14 0 -14 10 0 10 0 0
-10 0 -10 -60 0 -60 0 0 -10 0 -11 -25 -24 -24 -25 -11 0 -10 0 0 -11 0 -10
-14 -15 -15 -14 -10 0 -11 0 0 -10 0 -10 15 0 15 0 0 -15 0 -15 -15 0 -15 0 0
-10 0 -10 15 0 15 0 0 -10 0 -10 -15 0 -15 0 0 -15 0 -15 15 0 15 0 0 -10 0
-10 -15 0 -15 0 0 -15 0 -15 15 0 15 0 0 -10 0 -10 -15 0 -15 0 0 -10 0 -10
15 0 15 0 0 -15 0 -15 -15 0 -15 0 0 -10 0 -10 15 0 15 0 0 -10 0 -10 -15 0
-15 0 0 -15 0 -15 15 0 15 0 0 -10 0 -10 -15 0 -15 0 0 -15 0 -15 15 0 15 0 0
-10 0 -10 -15 0 -15 0 0 -10 0 -10 15 0 15 0 0 -15 0 -15 -15 0 -15 0 0 -10 0
-10 25 0 25 0 0 -10 0 -10 35 0 35 0 0 10 0 10 15 0 15 0 0 -10 0 -10 20 0 20
0 0 10 0 10 15 0 15 0 0 25 0 25 -25 0 -25 0 0 80 0 80 25 0 25 0 0 25 0 25
80 0 80 0 0 -25 0 -25 25 0 25 0 0 -80 0 -80 -25 0 -25 0 0 -25 0 -25 15 0 15
0 0 -10 0 -10 20 0 20 0 0 10 0 10 15 0 15 0 0 -10 0 -10 55 0 56 0 24 25 25
24 0 11 0 10 13 0 13 0 14 20 14 20 13 0 13 0 0 15 0 15 -15 0 -15 0 0 10 0
10 15 0 15 0 0 15 0 15 -15 0 -15 0 0 10 0 10 15 0 15 0 0 10 0 10 -15 0 -15
0 0 15 0 15 15 0 15 0 0 10 0 10 -15 0 -15 0 0 10 0 10 15 0 15 0 0 15 0 15
-15 0 -15 0 0 10 0 10 15 0 15 0 0 15 0 15 -15 0 -15 0 0 10 0 10 15 0 15 0 0
10 0 10 -15 0 -15 0 0 15 0 15 15 0 15 0 0 10 0 10 -15 0 -15 0 0 10 0 10 15
0 15 0 0 15 0 15 -15 0 -15 0 0 10 0 10 15 0 15 0 0 10 0 10 -25 0 -25 0 0 15
0 15 -35 0 -35 0 0 10 0 10 10 0 10 0 0 14 0 14 -12 5 -13 5 15 11 14 10 -8 8
-9 8 -4 -12 -5 -13 -14 0 -14 0 0 -10 0 -10 -20 0 -20 0 0 -15 0 -15 20 0 20
0 0 15 0 15 15 0 15 0 0 -15 0 -15 -15 0 -15 0 0 -10 0 -10 15 0 15 0 0 -15 0
-15 -15 0 -15 0 0 15 0 15 -20 0 -20 0 0 -15 0 -15 -15 0 -15 0 0 -20 0 -20
25 0 25 0 0 -85 0 -85 -25 0 -25 0 0 -25 0 -25 -80 0 -80 0 0 25 0 25 -25 0
-25 0 0 85 0 85 25 0 25 0 0 20 0 20 -15 0 -15 0 0 15 0 15 -20 0 -20 0 0 -15
0 -15 -15 0 -15 0 0 15 0 15 15 0 15 0 0 10 0 10 -15 0 -15 0 0 15 0 15 15 0
15 0 0 -15 0 -15 20 0 20 0 0 -10 0 -10 25 0 25 0 0 -15 0 -15 60 0 60 0 0 14
0 14 13 5 12 4 -9 9 -9 9 -4 -12 -5 -13 -59 0 -59 0 0 10 0 10 -25 0 -25 0 0
15 0 15 -20 0 -20 0 0 10 0 10 -15 0 -15 0 0 10 0 10 -10 0 -10 0 0 -9z"/>
<path d="M640 840 l0 -10 24 0 24 0 6 -12 6 -13 6 13 6 12 24 0 24 0 0 10 0
10 -60 0 -60 0 0 -10z"/>
<path d="M1020 840 l0 -10 10 0 10 0 0 10 0 10 -10 0 -10 0 0 -10z"/>
<path d="M970 820 l0 -10 15 0 15 0 0 10 0 10 -15 0 -15 0 0 -10z"/>
<path d="M1020 795 l0 -15 10 0 10 0 0 15 0 15 -10 0 -10 0 0 -15z"/>
<path d="M970 770 l0 -10 15 0 15 0 0 10 0 10 -15 0 -15 0 0 -10z"/>
<path d="M240 745 l0 -15 10 0 10 0 0 15 0 15 -10 0 -10 0 0 -15z"/>
<path d="M1020 745 l0 -15 10 0 10 0 0 15 0 15 -10 0 -10 0 0 -15z"/>
<path d="M280 720 l0 -10 15 0 15 0 0 10 0 10 -15 0 -15 0 0 -10z"/>
<path d="M240 700 l0 -10 10 0 10 0 0 10 0 10 -10 0 -10 0 0 -10z"/>
<path d="M653 695 l-13 -14 0 -6 0 -6 14 -15 15 -14 10 0 11 0 0 -10 0 -10
-25 0 -25 0 0 10 0 10 -25 0 -25 0 0 -35 0 -35 14 0 14 0 5 -12 4 -13 20 23
20 22 12 0 11 0 0 -20 0 -20 -15 0 -15 0 0 -15 0 -15 -10 0 -10 0 0 -10 0 -10
60 0 60 0 0 10 0 10 -15 0 -15 0 0 15 0 15 -10 0 -10 0 0 20 0 20 10 0 10 0 0
-10 0 -10 14 0 14 0 6 -12 6 -13 6 13 6 12 14 0 14 0 0 35 0 35 -25 0 -25 0 0
-10 0 -10 -25 0 -25 0 0 6 0 5 14 15 15 14 10 0 11 0 0 15 0 15 -15 0 -15 0 0
10 0 10 -32 0 -33 -1 -12 -14z"/>
<path d="M1020 700 l0 -10 10 0 10 0 0 10 0 10 -10 0 -10 0 0 -10z"/>
<path d="M280 675 l0 -15 15 0 15 0 0 15 0 15 -15 0 -15 0 0 -15z"/>
<path d="M240 650 l0 -10 10 0 10 0 0 10 0 10 -10 0 -10 0 0 -10z"/>
<path d="M1020 650 l0 -10 10 0 10 0 0 10 0 10 -10 0 -10 0 0 -10z"/>
<path d="M240 605 l0 -15 10 0 10 0 0 15 0 15 -10 0 -10 0 0 -15z"/>
<path d="M1020 605 l0 -15 10 0 10 0 0 15 0 15 -10 0 -10 0 0 -15z"/>
<path d="M240 560 l0 -10 10 0 10 0 0 10 0 10 -10 0 -10 0 0 -10z"/>
<path d="M1020 560 l0 -10 10 0 10 0 0 10 0 10 -10 0 -10 0 0 -10z"/>
<path d="M240 510 l0 -10 10 0 10 0 0 10 0 10 -10 0 -10 0 0 -10z"/>
<path d="M1020 510 l0 -10 10 0 10 0 0 10 0 10 -10 0 -10 0 0 -10z"/>
<path d="M240 460 l0 -10 10 0 10 0 0 10 0 10 -10 0 -10 0 0 -10z"/>
<path d="M1020 460 l0 -10 10 0 10 0 0 10 0 10 -10 0 -10 0 0 -10z"/>
<path d="M240 415 l0 -15 10 0 10 0 0 15 0 15 -10 0 -10 0 0 -15z"/>
<path d="M520 415 l0 -15 11 0 10 0 15 -14 14 -15 0 -20 0 -21 -10 0 -10 0 0
15 0 15 -14 0 -14 0 -6 13 -6 12 -6 -12 -6 -13 -14 0 -14 0 0 -40 0 -40 25 0
25 0 0 15 0 15 25 0 25 0 0 -11 0 -10 -14 -15 -15 -14 -10 0 -11 0 0 -10 0
-10 15 0 15 0 0 -15 0 -15 35 0 35 0 0 14 0 14 12 4 13 5 -17 16 -17 17 -10 0
-11 0 0 15 0 15 25 0 25 0 0 -15 0 -15 25 0 25 0 0 40 0 40 -14 0 -14 0 -4 12
-5 13 -16 -17 -17 -17 0 -10 0 -11 -15 0 -15 0 0 25 0 25 11 0 10 0 15 14 14
15 0 10 0 11 -60 0 -60 0 0 -15z"/>
<path d="M1020 415 l0 -15 10 0 10 0 0 15 0 15 -10 0 -10 0 0 -15z"/>
<path d="M240 370 l0 -10 10 0 10 0 0 10 0 10 -10 0 -10 0 0 -10z"/>
<path d="M1020 370 l0 -10 10 0 10 0 0 10 0 10 -10 0 -10 0 0 -10z"/>
<path d="M240 320 l0 -10 10 0 10 0 0 10 0 10 -10 0 -10 0 0 -10z"/>
<path d="M1020 320 l0 -10 10 0 10 0 0 10 0 10 -10 0 -10 0 0 -10z"/>
<path d="M240 270 l0 -10 10 0 10 0 0 10 0 10 -10 0 -10 0 0 -10z"/>
<path d="M1020 270 l0 -10 10 0 10 0 0 10 0 10 -10 0 -10 0 0 -10z"/>
<path d="M970 250 l0 -10 15 0 15 0 0 10 0 10 -15 0 -15 0 0 -10z"/>
<path d="M240 225 l0 -15 10 0 10 0 0 15 0 15 -10 0 -10 0 0 -15z"/>
<path d="M1020 225 l0 -15 10 0 10 0 0 15 0 15 -10 0 -10 0 0 -15z"/>
<path d="M970 200 l0 -10 15 0 15 0 0 10 0 10 -15 0 -15 0 0 -10z"/>
<path d="M240 180 l0 -10 10 0 10 0 0 10 0 10 -10 0 -10 0 0 -10z"/>
<path d="M513 175 l-13 -14 0 -11 0 -10 10 0 10 0 0 15 0 15 60 0 60 0 0 -15
0 -15 25 0 25 0 0 -10 0 -10 20 0 20 0 0 -15 0 -15 14 0 14 0 5 -12 4 -13 9 9
9 9 -12 4 -13 5 0 13 0 13 13 6 12 6 -12 6 -13 6 0 14 0 14 -15 0 -15 0 0 -15
0 -15 -20 0 -20 0 0 15 0 15 -25 0 -25 0 0 10 0 10 -57 0 -58 -1 -12 -14z
m247 -45 l0 -10 -15 0 -15 0 0 10 0 10 15 0 15 0 0 -10z"/>
<path d="M1020 180 l0 -10 10 0 10 0 0 10 0 10 -10 0 -10 0 0 -10z"/>
<path d="M280 155 l0 -15 15 0 15 0 0 15 0 15 -15 0 -15 0 0 -15z"/>
<path d="M400 156 l0 -14 -12 -6 -13 -6 13 -6 12 -6 0 -13 0 -13 -12 -5 -13
-4 9 -9 9 -9 4 13 5 12 14 0 14 0 0 15 0 15 20 0 20 0 0 10 0 10 -20 0 -20 0
0 15 0 15 -15 0 -15 0 0 -14z m30 -26 l0 -10 -15 0 -15 0 0 10 0 10 15 0 15 0
0 -10z"/>
<path d="M1110 155 l0 -15 15 0 15 0 0 -10 0 -10 -15 0 -15 0 0 10 0 10 -20 0
-20 0 0 -35 0 -35 20 0 20 0 0 10 0 10 15 0 15 0 0 -10 0 -10 -15 0 -15 0 0
-35 0 -35 40 0 40 0 0 35 0 35 -15 0 -15 0 0 10 0 10 15 0 15 0 0 -10 0 -10
20 0 20 0 0 35 0 35 -20 0 -20 0 0 -10 0 -10 -15 0 -15 0 0 10 0 10 15 0 15 0
0 15 0 15 -40 0 -40 0 0 -15z"/>
<path d="M240 130 l0 -10 10 0 10 0 0 10 0 10 -10 0 -10 0 0 -10z"/>
<path d="M280 105 l0 -15 15 0 15 0 0 15 0 15 -15 0 -15 0 0 -15z"/>
<path d="M570 105 l0 -15 -25 0 -25 0 0 -10 0 -10 60 0 60 0 0 10 0 10 -25 0
-25 0 0 15 0 15 -10 0 -10 0 0 -15z"/>
<path d="M240 80 l0 -10 10 0 10 0 0 10 0 10 -10 0 -10 0 0 -10z"/>
<path d="M280 60 l0 -10 15 0 15 0 0 10 0 10 -15 0 -15 0 0 -10z"/>
<path d="M430 60 l0 -10 -15 0 -15 0 0 -15 0 -15 14 0 14 0 5 -12 4 -13 9 9 9
9 -12 4 -13 5 0 14 0 14 10 0 10 0 0 10 0 10 -10 0 -10 0 0 -10z"/>
<path d="M710 60 l0 -10 10 0 10 0 0 -14 0 -14 -12 -5 -13 -4 9 -9 9 -9 4 13
5 12 14 0 14 0 0 15 0 15 -15 0 -15 0 0 10 0 10 -10 0 -10 0 0 -10z"/>
<path d="M240 25 l0 -25 45 0 45 0 0 10 0 10 -35 0 -35 0 0 15 0 15 -10 0 -10
0 0 -25z"/>
<path d="M550 10 l0 -10 35 0 35 0 0 10 0 10 -35 0 -35 0 0 -10z"/>
</g>
</svg>
