<?xml version="1.0" standalone="no"?>
<!DOCTYPE svg PUBLIC "-//W3C//DTD SVG 20010904//EN"
 "http://www.w3.org/TR/2001/REC-SVG-20010904/DTD/svg10.dtd">
<svg version="1.0" xmlns="http://www.w3.org/2000/svg"
 width="468pt" height="468pt" viewBox="0 0 468 468"
 preserveAspectRatio="xMidYMid meet">
<metadata>
Created by potrace 1.8, written by Peter Selinger 2001-2007
</metadata>
<g transform="translate(0,468) scale(0.365625,-0.365625)"
fill="#000000" stroke="none">
<path d="M300 1270 l0 -10 -50 0 -50 0 0 -10 0 -10 -16 0 -15 0 -15 -15 -15
-15 15 -15 15 -15 41 0 42 0 28 30 28 30 6 0 6 0 0 -20 0 -20 -10 0 -10 0 0
-15 0 -16 25 -24 24 -25 16 0 15 0 0 -10 0 -10 30 0 30 0 0 10 0 10 20 0 20 0
0 10 0 10 20 0 20 0 0 10 0 10 20 0 20 0 0 -130 0 -130 10 0 10 0 0 -40 0 -40
-9 0 -9 0 -5 13 -4 12 -8 -7 -8 -8 21 -19 22 -18 0 -17 0 -16 -6 0 -7 0 -18
22 -19 21 -6 -6 -7 -6 33 -31 32 -30 -15 -15 -16 -15 -5 0 -6 0 0 16 0 15 -15
16 -16 15 -7 -7 -7 -8 13 -4 12 -5 0 -15 0 -16 21 -18 21 -18 -15 -16 -16 -15
-14 0 -15 0 -5 13 -4 12 -8 -7 -8 -8 21 -19 22 -18 0 -17 0 -16 -6 0 -7 0 -18
22 -19 21 -7 -7 -7 -7 13 -8 14 -9 -36 -36 -36 -36 -6 0 -5 0 0 20 0 20 -10 0
-10 0 0 80 0 80 -10 0 -10 0 0 60 0 60 -10 0 -10 0 0 40 0 40 -10 0 -10 0 0
28 0 28 -20 14 -20 14 0 18 0 18 -10 0 -10 0 0 28 0 28 20 14 20 14 0 18 0 18
-36 0 -36 0 -28 -30 -28 -30 -16 0 -16 0 0 -20 0 -20 -25 0 -26 0 -24 -25 -25
-24 0 -21 0 -21 60 -59 60 -59 0 -13 0 -14 20 -14 20 -14 0 -18 0 -18 10 0 10
0 0 -30 0 -30 10 0 10 0 0 -40 0 -40 -10 0 -10 0 0 -50 0 -50 -10 0 -10 0 0
-60 0 -60 10 0 10 0 0 -20 0 -20 10 0 10 0 0 -20 0 -20 -10 0 -10 0 0 10 0 10
-70 0 -70 0 0 -10 0 -10 -40 0 -40 0 0 -10 0 -10 20 0 20 0 0 -10 0 -10 50 0
50 0 0 -10 0 -10 50 0 50 0 0 10 0 10 20 0 20 0 0 -20 0 -20 50 0 50 0 0 10 0
10 20 0 20 0 0 20 0 20 10 0 10 0 0 36 0 35 14 15 15 14 65 0 66 0 0 10 0 10
50 0 50 0 0 10 0 10 40 0 40 0 0 10 0 10 50 0 50 0 0 10 0 10 175 0 176 0 24
25 25 24 0 66 0 65 -10 0 -10 0 0 20 0 20 -10 0 -10 0 0 20 0 20 -10 0 -10 0
0 20 0 20 -10 0 -10 0 0 16 0 15 -60 59 -60 59 0 5 0 6 18 0 18 0 14 -20 14
-20 14 0 13 0 15 -14 14 -15 0 -15 0 -16 16 0 15 0 15 14 14 15 0 14 0 15 -12
5 -13 4 23 20 22 20 0 12 0 12 -25 24 -24 25 -36 0 -35 0 0 -10 0 -10 -49 0
-49 0 -4 -12 -4 -12 -37 37 -37 36 0 56 0 55 -10 0 -10 0 0 46 0 45 -15 16
-16 15 -7 -7 -7 -8 13 -4 12 -5 0 -49 0 -49 10 0 10 0 0 -56 0 -56 30 -28 30
-28 0 -11 0 -12 -25 -24 -24 -25 -16 0 -15 0 0 -10 0 -10 -20 0 -20 0 0 -10 0
-10 -20 0 -20 0 0 -10 0 -10 -35 0 -36 0 -24 25 -25 24 0 11 0 12 -40 38 -40
38 0 12 0 12 -40 38 -40 38 0 66 0 66 10 0 10 0 0 20 0 20 -10 0 -10 0 0 -15
0 -16 -25 -24 -24 -25 -16 0 -15 0 0 -10 0 -10 -26 0 -26 0 -28 30 -28 30 -16
0 -16 0 0 10 0 10 -20 0 -20 0 0 10 0 10 -10 0 -10 0 0 -10z m-20 -36 l0 -5
-14 -15 -15 -14 -35 0 -36 0 0 10 0 10 20 0 20 0 0 10 0 10 30 0 30 0 0 -6z
m120 -24 l0 -10 -10 0 -10 0 0 -10 0 -10 30 0 30 0 0 -10 0 -10 20 0 20 0 0
-10 0 -10 -20 0 -20 0 0 -10 0 -10 -25 0 -26 0 -24 25 -25 24 0 11 0 11 13 14
12 14 18 1 17 0 0 -10z m-120 -75 l0 -6 -25 -24 -24 -25 -16 0 -15 0 0 -9 0
-9 13 -5 12 -5 -15 -12 -15 -12 13 -5 12 -5 0 -18 0 -18 -12 -5 -13 -4 8 -9 8
-8 10 14 9 15 9 -15 10 -14 8 8 8 9 -12 4 -13 5 0 19 0 19 -10 0 -10 0 0 10 0
10 20 0 20 0 0 -18 0 -18 20 -14 20 -14 0 -28 0 -28 10 0 10 0 0 -40 0 -40 10
0 10 0 0 -60 0 -60 10 0 10 0 0 -80 0 -80 10 0 10 0 0 -16 0 -15 16 -16 16
-16 8 13 8 13 16 -16 16 -16 0 -11 0 -11 -15 -16 -16 -15 -7 7 -7 8 13 4 12 5
0 19 0 19 -10 0 -10 0 0 -20 0 -20 -9 0 -9 0 -4 12 -5 13 -17 -18 -18 -18 6
-7 7 -6 9 13 8 14 26 -26 26 -26 0 -16 0 -15 -9 0 -9 0 -5 13 -4 12 -9 -9 -9
-9 13 -4 12 -5 0 -34 0 -35 -25 -25 -26 -26 -20 23 -19 22 -8 -8 -7 -8 13 -4
12 -5 0 -9 0 -9 -15 0 -16 0 -24 25 -25 24 0 26 0 25 -10 0 -10 0 0 20 0 20
-10 0 -10 0 0 60 0 60 9 0 9 0 5 -12 4 -13 9 9 9 9 -12 4 -13 5 0 49 0 49 9 0
9 0 5 -12 4 -13 9 9 9 9 -12 4 -13 5 0 39 0 39 -10 0 -10 0 0 36 0 36 -30 28
-30 28 0 12 0 13 -22 19 -22 19 14 9 14 9 -7 8 -8 7 -8 -13 -9 -14 -36 36 -36
36 0 26 0 25 10 0 10 0 0 -10 0 -10 10 0 10 0 0 20 0 20 16 0 16 0 28 30 28
30 24 0 24 0 14 20 14 20 8 0 8 0 0 -5z m335 -80 l25 -24 0 -11 0 -12 40 -38
40 -38 0 -11 0 -11 55 -55 55 -55 15 0 15 0 0 -10 0 -10 -18 0 -18 0 -14 -20
-14 -20 -16 0 -16 0 -14 -20 -14 -20 -18 0 -18 0 0 -10 0 -10 -20 0 -20 0 0
-10 0 -10 -20 0 -20 0 0 -10 0 -10 -20 0 -20 0 0 -10 0 -10 -20 0 -20 0 0 8 0
8 20 14 20 14 0 28 0 28 10 0 10 0 0 90 0 90 -10 0 -10 0 0 90 0 90 5 0 6 0
24 -25z m605 -65 l0 -10 20 0 20 0 0 -20 0 -20 -20 0 -20 0 0 10 0 10 -16 0
-15 0 -15 14 -14 15 0 5 0 6 30 0 30 0 0 -10z m-100 -20 l0 -10 30 0 30 0 0
-10 0 -10 20 0 20 0 0 -20 0 -20 10 0 10 0 0 -20 0 -20 -6 0 -6 0 -28 30 -28
30 -14 0 -14 0 -14 20 -14 20 -18 0 -18 0 0 10 0 10 20 0 20 0 0 -10z m-54
-44 l14 -15 0 -11 0 -11 -25 -24 -24 -25 -16 0 -15 0 0 -10 0 -10 -20 0 -20 0
0 -10 0 -10 -30 0 -30 0 0 10 0 10 -30 0 -30 0 0 10 0 10 20 0 20 0 0 10 0 10
28 0 28 0 14 20 14 20 16 0 16 0 14 20 14 20 14 0 13 0 15 -14z m79 -81 l35
-34 0 -16 0 -15 -20 0 -20 0 0 -10 0 -10 -50 0 -50 0 0 10 0 10 -30 0 -30 0 0
10 0 10 20 0 20 0 0 10 0 10 18 0 17 1 25 29 25 29 3 1 3 0 34 -35z m-205 -75
l0 -10 36 0 35 0 15 -14 14 -15 0 -15 0 -16 10 0 10 0 0 20 0 20 40 0 40 0 0
-15 0 -16 -45 -44 -44 -45 -16 0 -15 0 0 -10 0 -10 -20 0 -20 0 0 -10 0 -10
-28 0 -28 0 -14 -20 -14 -20 -27 0 -27 0 -5 -12 -5 -13 -11 15 -11 15 -10 -15
-10 -15 -9 14 -9 14 -17 -17 -17 -17 6 -7 7 -6 9 14 9 14 7 -6 6 -7 -17 -17
-17 -17 -9 14 -9 14 -9 -15 -10 -14 -8 7 -7 8 14 9 14 9 -7 7 -7 7 -19 -21
-18 -22 -27 0 -26 0 0 10 0 10 -30 0 -30 0 0 10 0 10 -30 0 -30 0 0 10 0 10
10 0 10 0 0 16 0 15 14 15 15 14 15 0 16 0 0 10 0 10 20 0 20 0 0 10 0 10 20
0 20 0 0 10 0 10 20 0 20 0 0 10 0 10 20 0 20 0 0 10 0 10 18 0 18 0 14 20 14
20 18 0 18 0 0 10 0 10 20 0 20 0 0 10 0 10 30 0 30 0 0 -10z m260 -28 l0 -18
20 -14 20 -14 0 -17 0 -17 13 -5 12 -5 -15 -11 -15 -11 15 -10 15 -10 -15 -11
-15 -11 13 -5 12 -5 0 -14 0 -15 -26 -26 -26 -26 -9 14 -9 14 -10 -15 -10 -15
-11 15 -11 15 -5 -12 -5 -13 -18 0 -18 0 -6 13 -6 12 -6 -12 -6 -13 -48 0 -48
0 -6 13 -6 12 -6 -12 -6 -13 -18 0 -18 0 -6 13 -6 12 -6 -12 -6 -13 -29 0 -29
0 0 -10 0 -10 -20 0 -20 0 0 10 0 10 20 0 20 0 0 10 0 10 30 0 30 0 0 10 0 10
19 0 19 0 6 13 6 12 6 -12 6 -13 9 0 9 0 0 20 0 20 19 0 19 0 5 -12 4 -13 9 9
9 9 -12 4 -13 5 0 9 0 9 19 0 19 0 5 13 5 12 11 -15 10 -14 8 7 7 8 -13 9 -14
8 16 16 16 16 15 0 16 0 0 20 0 20 10 0 10 0 0 30 0 30 20 0 20 0 0 -18z
m-700 -178 l0 -15 -14 -15 -15 -14 -5 0 -6 0 0 15 0 16 13 14 12 14 8 1 7 0 0
-16z m60 -74 l0 -10 30 0 30 0 0 -10 0 -10 20 0 20 0 0 -10 0 -10 -30 0 -30 0
0 -10 0 -10 -60 0 -60 0 0 9 0 9 13 5 12 5 -14 10 -14 10 14 16 14 15 28 1 27
0 0 -10z"/>
<path d="M160 1030 l0 -10 10 0 10 0 0 10 0 10 -10 0 -10 0 0 -10z"/>
<path d="M120 990 l0 -10 10 0 10 0 0 10 0 10 -10 0 -10 0 0 -10z"/>
<path d="M160 990 l0 -10 10 0 10 0 0 10 0 10 -10 0 -10 0 0 -10z"/>
<path d="M80 970 l0 -10 10 0 10 0 0 10 0 10 -10 0 -10 0 0 -10z"/>
<path d="M120 950 l0 -10 10 0 10 0 0 10 0 10 -10 0 -10 0 0 -10z"/>
<path d="M160 954 l0 -5 15 -16 16 -15 6 5 5 6 -15 16 -16 15 -5 0 -6 0 0 -6z"/>
<path d="M220 930 l0 -10 10 0 10 0 0 10 0 10 -10 0 -10 0 0 -10z"/>
<path d="M260 930 l0 -10 10 0 10 0 0 10 0 10 -10 0 -10 0 0 -10z"/>
<path d="M180 890 l0 -10 10 0 10 0 0 10 0 10 -10 0 -10 0 0 -10z"/>
<path d="M220 890 l0 -10 10 0 10 0 0 10 0 10 -10 0 -10 0 0 -10z"/>
<path d="M260 890 l0 -10 10 0 10 0 0 10 0 10 -10 0 -10 0 0 -10z"/>
<path d="M220 850 l0 -10 10 0 10 0 0 10 0 10 -10 0 -10 0 0 -10z"/>
<path d="M280 850 l0 -10 10 0 10 0 0 10 0 10 -10 0 -10 0 0 -10z"/>
<path d="M240 810 l0 -10 10 0 10 0 0 10 0 10 -10 0 -10 0 0 -10z"/>
<path d="M300 810 l0 -10 10 0 10 0 0 10 0 10 -10 0 -10 0 0 -10z"/>
<path d="M280 770 l0 -10 10 0 10 0 0 10 0 10 -10 0 -10 0 0 -10z"/>
<path d="M260 730 l0 -10 10 0 10 0 0 10 0 10 -10 0 -10 0 0 -10z"/>
<path d="M300 730 l0 -10 10 0 10 0 0 10 0 10 -10 0 -10 0 0 -10z"/>
<path d="M280 690 l0 -10 10 0 10 0 0 10 0 10 -10 0 -10 0 0 -10z"/>
<path d="M320 670 l0 -10 10 0 10 0 0 10 0 10 -10 0 -10 0 0 -10z"/>
<path d="M280 650 l0 -10 10 0 10 0 0 10 0 10 -10 0 -10 0 0 -10z"/>
<path d="M320 630 l0 -10 10 0 10 0 0 10 0 10 -10 0 -10 0 0 -10z"/>
<path d="M300 590 l0 -10 10 0 10 0 0 10 0 10 -10 0 -10 0 0 -10z"/>
<path d="M260 550 l0 -10 10 0 10 0 0 10 0 10 -10 0 -10 0 0 -10z"/>
<path d="M300 550 l0 -10 10 0 10 0 0 10 0 10 -10 0 -10 0 0 -10z"/>
<path d="M340 530 l0 -10 10 0 10 0 0 10 0 10 -10 0 -10 0 0 -10z"/>
<path d="M300 510 l0 -10 10 0 10 0 0 10 0 10 -10 0 -10 0 0 -10z"/>
<path d="M340 490 l0 -10 10 0 10 0 0 10 0 10 -10 0 -10 0 0 -10z"/>
<path d="M240 470 l0 -10 10 0 10 0 0 10 0 10 -10 0 -10 0 0 -10z"/>
<path d="M300 470 l0 -10 10 0 10 0 0 10 0 10 -10 0 -10 0 0 -10z"/>
<path d="M240 430 l0 -10 10 0 10 0 0 10 0 10 -10 0 -10 0 0 -10z"/>
<path d="M300 430 l0 -10 10 0 10 0 0 10 0 10 -10 0 -10 0 0 -10z"/>
<path d="M360 410 l0 -10 10 0 10 0 0 10 0 10 -10 0 -10 0 0 -10z"/>
<path d="M260 390 l0 -10 10 0 10 0 0 10 0 10 -10 0 -10 0 0 -10z"/>
<path d="M300 390 l0 -10 10 0 10 0 0 10 0 10 -10 0 -10 0 0 -10z"/>
<path d="M360 370 l0 -10 10 0 10 0 0 10 0 10 -10 0 -10 0 0 -10z"/>
<path d="M300 350 l0 -10 10 0 10 0 0 10 0 10 -10 0 -10 0 0 -10z"/>
<path d="M340 330 l0 -10 10 0 10 0 0 10 0 10 -10 0 -10 0 0 -10z"/>
<path d="M280 310 l0 -10 10 0 10 0 0 10 0 10 -10 0 -10 0 0 -10z"/>
<path d="M380 310 l0 -10 10 0 10 0 0 10 0 10 -10 0 -10 0 0 -10z"/>
<path d="M880 730 l0 -10 10 0 10 0 0 10 0 10 -10 0 -10 0 0 -10z"/>
<path d="M900 694 l0 -5 15 -16 16 -15 6 5 5 6 -15 16 -16 15 -5 0 -6 0 0 -6z"/>
<path d="M960 650 l0 -10 10 0 10 0 0 10 0 10 -10 0 -10 0 0 -10z"/>
<path d="M1000 650 l0 -10 10 0 10 0 0 10 0 10 -10 0 -10 0 0 -10z"/>
<path d="M1160 670 l0 -10 10 0 10 0 0 10 0 10 -10 0 -10 0 0 -10z"/>
<path d="M1200 670 l0 -10 10 0 10 0 0 10 0 10 -10 0 -10 0 0 -10z"/>
<path d="M1140 630 l0 -10 10 0 10 0 0 10 0 10 -10 0 -10 0 0 -10z"/>
<path d="M1200 630 l0 -10 10 0 10 0 0 10 0 10 -10 0 -10 0 0 -10z"/>
<path d="M1120 590 l0 -10 10 0 10 0 0 10 0 10 -10 0 -10 0 0 -10z"/>
<path d="M1180 590 l0 -10 10 0 10 0 0 10 0 10 -10 0 -10 0 0 -10z"/>
<path d="M1080 550 l0 -10 10 0 10 0 0 10 0 10 -10 0 -10 0 0 -10z"/>
<path d="M1140 550 l0 -10 10 0 10 0 0 10 0 10 -10 0 -10 0 0 -10z"/>
<path d="M1200 550 l0 -10 10 0 10 0 0 10 0 10 -10 0 -10 0 0 -10z"/>
<path d="M1020 530 l0 -10 10 0 10 0 0 10 0 10 -10 0 -10 0 0 -10z"/>
<path d="M520 470 l0 -10 10 0 10 0 0 10 0 10 -10 0 -10 0 0 -10z"/>
<path d="M560 450 l0 -10 10 0 10 0 0 10 0 10 -10 0 -10 0 0 -10z"/>
<path d="M120 1250 l0 -10 -15 0 -16 0 -25 -25 -25 -25 15 -15 15 -15 15 0 16
0 0 9 0 9 -12 5 -13 4 33 30 32 31 0 6 0 6 -10 0 -10 0 0 -10z"/>
<path d="M720 1211 l0 -9 13 -5 12 -5 -14 -10 -14 -10 57 -57 57 -57 6 6 5 5
-42 41 -43 42 13 8 13 8 -26 26 -26 26 -6 0 -5 0 0 -9z m40 -41 l0 -10 -10 0
-10 0 0 10 0 10 10 0 10 0 0 -10z"/>
<path d="M860 1054 l0 -5 15 -16 16 -15 6 5 5 6 -15 16 -16 15 -5 0 -6 0 0 -6z"/>
<path d="M520 870 l0 -10 10 0 10 0 0 10 0 10 -10 0 -10 0 0 -10z"/>
<path d="M500 830 l0 -10 10 0 10 0 0 10 0 10 -10 0 -10 0 0 -10z"/>
<path d="M0 100 l0 -100 640 0 640 0 0 100 0 100 -640 0 -640 0 0 -100z"/>
</g>
</svg>
