<?xml version="1.0" standalone="no"?>
<!DOCTYPE svg PUBLIC "-//W3C//DTD SVG 20010904//EN"
 "http://www.w3.org/TR/2001/REC-SVG-20010904/DTD/svg10.dtd">
<svg version="1.0" xmlns="http://www.w3.org/2000/svg"
 width="468pt" height="468pt" viewBox="0 0 468 468"
 preserveAspectRatio="xMidYMid meet">
<metadata>
Created by potrace 1.8, written by Peter Selinger 2001-2007
</metadata>
<g transform="translate(0,468) scale(0.365625,-0.365625)"
fill="#000000" stroke="none">
<path d="M100 1134 l0 -5 15 -16 16 -15 6 5 5 6 -15 16 -16 15 -5 0 -6 0 0 -6z"/>
<path d="M160 791 l0 -349 13 -5 12 -5 -15 -11 -14 -10 7 -7 7 -7 19 21 18 22
87 0 86 0 0 -9 0 -9 -12 -5 -13 -4 7 -8 8 -8 19 21 18 22 63 0 63 0 18 -22 19
-21 8 8 7 8 -12 4 -13 5 0 9 0 9 86 0 87 0 18 -22 19 -21 8 8 7 8 -12 4 -13 5
0 9 0 9 90 0 90 0 0 -9 0 -9 -13 -5 -12 -4 7 -8 8 -8 19 21 18 22 137 0 136 0
0 350 0 350 -540 0 -540 0 0 -349z m200 293 l0 -35 -14 -15 -15 -14 -11 0 -11
0 -34 -35 -35 -34 0 -16 0 -15 -10 0 -10 0 0 -20 0 -20 -10 0 -10 0 0 -20 0
-20 10 0 10 0 0 20 0 20 10 0 10 0 0 20 0 20 10 0 10 0 0 15 0 16 25 24 24 25
16 0 15 0 0 10 0 10 10 0 10 0 0 -120 0 -120 -80 0 -80 0 0 30 0 30 -10 0 -10
0 0 39 0 39 13 6 12 6 -12 6 -13 6 0 48 0 48 13 6 12 6 -12 6 -13 6 0 29 0 29
90 0 90 0 0 -36z m204 24 l6 -13 6 13 6 12 78 0 78 0 6 -12 6 -13 6 13 6 12
78 0 78 0 6 -12 6 -13 6 13 6 12 78 0 78 0 6 -12 6 -13 6 13 6 12 49 0 49 0 0
-30 0 -30 -10 0 -10 0 0 10 0 10 -30 0 -30 0 0 -10 0 -10 26 0 25 0 15 -14 14
-15 0 -44 0 -45 -12 -6 -13 -6 13 -6 12 -6 0 -39 0 -39 -16 0 -16 0 -28 -30
-28 -30 -66 0 -66 0 0 20 0 20 -10 0 -10 0 0 15 0 16 -35 34 -34 35 -21 0 -21
0 -34 -35 -35 -34 0 -16 0 -15 -10 0 -10 0 0 -20 0 -20 -110 0 -110 0 0 30 0
30 -10 0 -10 0 0 20 0 20 -10 0 -10 0 0 20 0 20 -10 0 -10 0 0 15 0 16 -35 34
-34 35 -11 0 -11 0 -15 14 -14 15 0 35 0 36 89 0 89 0 6 -12z m-164 -98 l0
-10 15 0 16 0 24 -25 25 -24 0 -16 0 -15 10 0 10 0 0 -20 0 -20 10 0 10 0 0
-20 0 -20 10 0 10 0 0 -30 0 -30 -80 0 -80 0 0 120 0 120 10 0 10 0 0 -10z
m535 -135 l25 -24 0 -16 0 -15 10 0 10 0 0 -20 0 -20 -90 0 -90 0 0 20 0 20
10 0 10 0 0 15 0 16 23 24 22 24 23 0 23 1 24 -25z m285 -75 l0 -20 -30 0 -30
0 0 5 0 6 13 14 12 14 18 1 17 0 0 -20z m-860 -190 l0 -150 -90 0 -90 0 0 19
0 19 13 6 12 6 -12 6 -13 6 0 48 0 48 13 6 12 6 -12 6 -13 6 0 59 0 59 90 0
90 0 0 -150z m180 130 l0 -20 10 0 10 0 0 -30 0 -30 10 0 10 0 0 -15 0 -16 35
-34 34 -35 21 0 21 0 34 35 35 34 0 16 0 15 10 0 10 0 0 30 0 30 10 0 10 0 0
20 0 20 90 0 90 0 0 -15 0 -16 35 -34 34 -35 21 0 21 0 34 35 35 34 0 16 0 15
30 0 30 0 0 -59 0 -59 -12 -6 -13 -6 13 -6 12 -6 0 -48 0 -48 -12 -6 -13 -6
13 -6 12 -6 0 -19 0 -19 -49 0 -49 0 -6 13 -6 12 -6 -12 -6 -13 -78 0 -78 0
-6 13 -6 12 -6 -12 -6 -13 -78 0 -78 0 -6 13 -6 12 -6 -12 -6 -13 -78 0 -78 0
-6 13 -6 12 -6 -12 -6 -13 -89 0 -89 0 0 150 0 150 80 0 80 0 0 -20z m240 0
l0 -20 -10 0 -10 0 0 -30 0 -30 -10 0 -10 0 0 -15 0 -16 -25 -24 -24 -25 -21
0 -21 0 -24 25 -25 24 0 16 0 15 -10 0 -10 0 0 30 0 30 -10 0 -10 0 0 20 0 20
110 0 110 0 0 -20z m360 5 l0 -16 -25 -24 -24 -25 -21 0 -21 0 -24 25 -25 24
0 16 0 15 70 0 70 0 0 -15z"/>
<path d="M940 1070 l0 -10 19 0 19 0 6 -12 6 -13 6 13 6 12 18 0 18 0 5 -12 5
-13 11 15 11 15 9 -14 9 -14 17 17 17 17 -6 7 -7 6 -10 -14 -9 -15 -10 15 -10
15 -11 -15 -11 -15 -5 13 -5 12 -18 0 -18 0 -6 -12 -6 -13 -6 13 -6 12 -19 0
-19 0 0 -10z"/>
<path d="M100 1050 l0 -10 10 0 10 0 0 10 0 10 -10 0 -10 0 0 -10z"/>
<path d="M20 1001 l0 -19 13 -6 12 -6 -12 -6 -13 -6 0 -18 0 -18 13 -6 12 -6
-12 -6 -13 -6 0 -9 0 -9 20 0 20 0 0 20 0 20 -10 0 -10 0 0 19 0 19 13 5 12 5
-15 12 -15 12 13 5 12 5 0 9 0 9 -20 0 -20 0 0 -19z"/>
<path d="M111 944 l-13 -15 6 -6 5 -5 16 15 15 16 0 5 0 6 -7 0 -8 -1 -14 -15z"/>
<path d="M20 831 l0 -9 13 -5 12 -5 -15 -11 -15 -11 15 -11 15 -11 -12 -5 -13
-5 0 -9 0 -9 20 0 20 0 0 19 0 19 -12 5 -13 5 14 10 14 10 -16 16 -16 16 -5 0
-6 0 0 -9z"/>
<path d="M100 770 l0 -10 10 0 10 0 0 10 0 10 -10 0 -10 0 0 -10z"/>
<path d="M100 630 l0 -10 20 0 20 0 0 10 0 10 -20 0 -20 0 0 -10z"/>
<path d="M111 524 l-13 -15 6 -6 5 -5 16 15 15 16 0 5 0 6 -7 0 -8 -1 -14 -15z"/>
<path d="M100 454 l0 -5 15 -16 16 -15 6 5 5 6 -15 16 -16 15 -5 0 -6 0 0 -6z"/>
<path d="M1100 410 l0 -10 20 0 20 0 0 10 0 10 -20 0 -20 0 0 -10z"/>
<path d="M480 360 l0 -20 6 0 5 0 15 14 14 15 0 5 0 6 -20 0 -20 0 0 -20z"/>
<path d="M540 360 l0 -20 10 0 10 0 0 10 0 10 20 0 20 0 0 10 0 10 -30 0 -30
0 0 -20z"/>
<path d="M631 364 l-13 -15 6 -6 5 -5 16 15 15 16 0 5 0 6 -7 0 -8 -1 -14 -15z"/>
<path d="M680 370 l0 -10 10 0 10 0 0 10 0 10 -10 0 -10 0 0 -10z"/>
<path d="M731 364 l-13 -15 7 -7 8 -7 4 13 5 12 18 0 18 0 5 -12 5 -13 11 15
11 15 9 -15 10 -14 7 6 6 7 -17 17 -17 17 -10 -14 -10 -14 -5 13 -5 12 -16 0
-17 -1 -14 -15z"/>
<path d="M860 374 l0 -5 17 -17 16 -17 5 13 4 12 19 0 19 0 0 10 0 10 -19 0
-19 0 -6 -12 -6 -13 -6 13 -6 12 -9 0 -9 0 0 -6z"/>
<path d="M0 100 l0 -100 640 0 640 0 0 100 0 100 -640 0 -640 0 0 -100z"/>
</g>
</svg>
