<?xml version="1.0" standalone="no"?>
<!DOCTYPE svg PUBLIC "-//W3C//DTD SVG 20010904//EN"
 "http://www.w3.org/TR/2001/REC-SVG-20010904/DTD/svg10.dtd">
<svg version="1.0" xmlns="http://www.w3.org/2000/svg"
 width="468pt" height="468pt" viewBox="0 0 468 468"
 preserveAspectRatio="xMidYMid meet">
<metadata>
Created by potrace 1.8, written by Peter Selinger 2001-2007
</metadata>
<g transform="translate(0,468) scale(0.365625,-0.365625)"
fill="#000000" stroke="none">
<path d="M253 1265 l-13 -14 0 -16 0 -15 -10 0 -10 0 0 -30 0 -30 -10 0 -10 0
0 -30 0 -30 -10 0 -10 0 0 -100 0 -100 10 0 10 0 0 -40 0 -40 10 0 10 0 0 -40
0 -40 -20 0 -20 0 0 10 0 10 -20 0 -20 0 0 10 0 10 -19 0 -19 0 -5 13 -4 12
-9 -9 -9 -9 13 -4 12 -5 0 -19 0 -19 10 0 10 0 0 -10 0 -10 -20 0 -20 0 0 10
0 10 -10 0 -10 0 0 -20 0 -20 10 0 10 0 0 -10 0 -10 -30 0 -30 0 0 -70 0 -70
-10 0 -10 0 0 -40 0 -40 10 0 10 0 0 10 0 10 29 0 29 0 4 -12 5 -13 17 18 17
17 -16 17 -17 16 -9 -14 -9 -14 -10 15 -10 15 -9 -15 -10 -14 -7 7 -7 7 24 20
23 21 -14 10 -15 9 15 10 15 10 -15 10 -15 10 15 10 15 10 -15 9 -14 10 7 8 8
7 9 -13 8 -14 51 52 52 53 19 -22 19 -22 16 15 15 16 0 15 0 16 10 0 10 0 0
30 0 30 -10 0 -10 0 0 19 0 19 -12 6 -13 6 13 6 12 6 0 17 0 17 -20 14 -20 14
0 27 0 27 13 6 12 6 -12 6 -13 6 0 29 0 29 10 0 10 0 0 20 0 20 9 0 9 0 5 -12
4 -13 8 7 8 8 -23 20 -23 20 24 21 24 22 -12 4 -13 5 0 9 0 9 16 0 15 0 15 15
15 15 -15 15 -15 15 -3 0 -3 -1 -12 -14z m27 -15 l0 -10 -10 0 -10 0 0 10 0
10 10 0 10 0 0 -10z"/>
<path d="M320 1270 l0 -10 10 0 10 0 0 10 0 10 -10 0 -10 0 0 -10z"/>
<path d="M400 1270 l0 -10 10 0 10 0 0 10 0 10 -10 0 -10 0 0 -10z"/>
<path d="M480 1270 l0 -10 10 0 10 0 0 10 0 10 -10 0 -10 0 0 -10z"/>
<path d="M560 1270 l0 -10 10 0 10 0 0 10 0 10 -10 0 -10 0 0 -10z"/>
<path d="M640 1270 l0 -10 10 0 10 0 0 10 0 10 -10 0 -10 0 0 -10z"/>
<path d="M720 1270 l0 -10 10 0 10 0 0 -30 0 -30 -9 0 -9 0 -5 13 -4 12 -8 -7
-8 -8 21 -19 22 -18 0 -27 0 -26 -9 0 -9 0 -5 13 -4 12 -8 -7 -8 -8 21 -19 22
-18 0 -27 0 -26 -9 0 -9 0 -5 13 -4 12 -8 -7 -7 -7 16 -16 16 -16 26 26 26 26
-23 19 -22 20 23 20 23 20 -23 20 -23 20 24 21 23 20 -14 9 -14 9 7 7 7 7 20
-24 21 -23 10 14 9 15 10 -15 10 -15 10 15 10 15 9 -15 10 -14 20 23 20 23 27
-27 27 -27 -14 -8 -13 -9 24 -21 24 -21 -14 -10 -15 -9 15 -9 14 -10 -8 -8 -9
-8 -4 13 -5 12 -9 0 -9 0 0 -60 0 -60 -10 0 -10 0 0 39 0 39 -12 5 -13 4 23
21 24 21 -47 47 -47 47 -9 -14 -9 -14 -9 14 -9 14 -18 -17 -17 -18 14 -9 14
-9 -15 -10 -15 -10 15 -10 15 -10 -15 -10 -15 -10 15 -10 15 -10 -14 -9 -14
-9 38 -37 37 -38 8 13 8 14 32 -34 32 -34 8 14 8 13 18 -17 17 -18 -13 -8 -13
-8 16 -16 16 -16 5 0 6 0 0 30 0 30 -10 0 -10 0 0 20 0 20 10 0 10 0 0 90 0
90 -10 0 -10 0 0 36 0 35 -14 15 -15 14 -24 0 -25 0 -5 -12 -5 -13 -11 15 -11
15 -10 -15 -10 -15 -10 15 -10 15 -10 -15 -10 -15 -10 15 -10 15 -11 -15 -11
-15 -5 13 -5 12 -29 0 -29 0 0 -10z m100 -20 l0 -10 -10 0 -10 0 0 10 0 10 10
0 10 0 0 -10z m40 0 l0 -10 -10 0 -10 0 0 10 0 10 10 0 10 0 0 -10z m40 0 l0
-10 -10 0 -10 0 0 10 0 10 10 0 10 0 0 -10z m-40 -80 l0 -10 -10 0 -10 0 0 10
0 10 10 0 10 0 0 -10z m40 -49 l0 -39 12 -4 13 -5 -17 -16 -17 -17 -5 0 -6 0
0 39 0 39 -12 4 -12 4 14 17 15 16 8 1 7 0 0 -39z m-40 -31 l0 -10 -10 0 -10
0 0 10 0 10 10 0 10 0 0 -10z m140 -20 l0 -10 -10 0 -10 0 0 10 0 10 10 0 10
0 0 -10z m0 -40 l0 -10 -10 0 -10 0 0 10 0 10 10 0 10 0 0 -10z"/>
<path d="M351 1244 l-13 -15 6 -6 5 -5 16 15 15 16 0 5 0 6 -7 0 -8 -1 -14
-15z"/>
<path d="M431 1244 l-13 -15 6 -6 5 -5 16 15 15 16 0 5 0 6 -7 0 -8 -1 -14
-15z"/>
<path d="M511 1244 l-13 -15 6 -6 5 -5 16 15 15 16 0 5 0 6 -7 0 -8 -1 -14
-15z"/>
<path d="M590 1240 l-14 -20 -18 0 -18 0 0 -10 0 -10 -29 0 -29 0 -5 13 -4 12
-9 -9 -9 -9 13 -4 12 -5 0 -9 0 -9 -20 0 -20 0 0 -10 0 -10 -15 0 -16 0 -24
-25 -25 -24 0 -15 0 -14 -12 -6 -13 -6 13 -6 12 -6 0 -28 0 -28 -12 -5 -13 -4
8 -9 8 -8 10 14 11 15 5 -12 5 -13 19 0 19 0 0 10 0 10 30 0 30 0 0 10 0 10
30 0 30 0 0 10 0 10 49 0 49 0 5 -12 4 -13 8 7 8 8 -21 19 -22 18 0 27 0 26 9
0 9 0 5 -12 4 -13 8 7 8 8 -21 19 -22 18 0 27 0 26 9 0 9 0 5 -12 4 -13 8 7 7
7 -18 18 -17 18 -5 -13 -4 -12 -9 0 -9 0 0 20 0 20 10 0 10 0 0 10 0 10 -8 0
-8 0 -14 -20z m-10 -100 l0 -60 -10 0 -10 0 0 19 0 19 -12 6 -13 6 13 6 12 6
0 29 0 29 10 0 10 0 0 -60z m-40 32 l0 -8 -20 -14 -20 -14 0 -28 0 -28 9 0 9
0 5 13 4 12 8 -7 7 -7 -25 -25 -26 -26 -21 0 -21 0 -17 17 -17 16 13 5 12 4 0
19 0 19 -9 0 -9 0 -5 -12 -4 -13 -8 7 -7 7 15 16 16 15 25 0 26 0 0 10 0 10
20 0 20 0 0 10 0 10 10 0 10 0 0 -8z m-133 -127 l15 -16 -5 -6 -6 -5 -16 15
-15 16 0 5 0 6 6 0 5 0 16 -15z"/>
<path d="M671 1244 l-13 -15 6 -6 5 -5 16 15 15 16 0 5 0 6 -7 0 -8 -1 -14
-15z"/>
<path d="M912 1225 l-13 -15 36 -36 36 -36 6 6 6 6 -24 20 -23 21 13 9 14 8
-16 16 -16 16 -3 0 -3 -1 -13 -14z m28 -15 l0 -10 -10 0 -10 0 0 10 0 10 10 0
10 0 0 -10z"/>
<path d="M300 1214 l0 -5 15 -16 16 -15 6 5 5 6 -15 16 -16 15 -5 0 -6 0 0 -6z"/>
<path d="M380 1214 l0 -5 15 -16 16 -15 6 5 5 6 -15 16 -16 15 -5 0 -6 0 0 -6z"/>
<path d="M772 1204 l-13 -14 16 -16 16 -16 7 6 6 7 -14 10 -15 11 13 5 12 5 0
9 0 9 -7 0 -8 -1 -13 -15z"/>
<path d="M271 1164 l-13 -15 6 -6 5 -5 16 15 15 16 0 5 0 6 -7 0 -8 -1 -14
-15z"/>
<path d="M351 1164 l-13 -15 6 -6 5 -5 16 15 15 16 0 5 0 6 -7 0 -8 -1 -14
-15z"/>
<path d="M671 1164 l-13 -15 6 -6 5 -5 16 15 15 16 0 5 0 6 -7 0 -8 -1 -14
-15z"/>
<path d="M300 1134 l0 -5 15 -16 16 -15 6 5 5 6 -15 16 -16 15 -5 0 -6 0 0 -6z"/>
<path d="M772 1124 l-13 -14 16 -16 16 -16 7 6 6 7 -14 10 -15 11 13 5 12 5 0
9 0 9 -7 0 -8 -1 -13 -15z"/>
<path d="M271 1084 l-13 -15 6 -6 5 -5 16 15 15 16 0 5 0 6 -7 0 -8 -1 -14
-15z"/>
<path d="M671 1084 l-13 -15 6 -6 5 -5 16 15 15 16 0 5 0 6 -7 0 -8 -1 -14
-15z"/>
<path d="M220 1054 l0 -5 15 -16 16 -15 6 5 5 6 -15 16 -16 15 -5 0 -6 0 0 -6z"/>
<path d="M300 1054 l0 -5 15 -16 16 -15 6 5 5 6 -15 16 -16 15 -5 0 -6 0 0 -6z"/>
<path d="M760 1030 l-25 -29 -17 -1 -16 0 -6 13 -6 12 -6 -12 -6 -13 -29 0
-29 0 0 10 0 10 -10 0 -10 0 0 -16 0 -15 16 -16 16 -16 9 14 9 14 10 -15 10
-15 10 15 10 15 10 -15 10 -15 9 14 9 14 17 -17 17 -17 -6 -7 -7 -6 -9 14 -8
14 -31 -33 -31 -33 -39 41 -39 41 -56 0 -56 0 0 -10 0 -10 -30 0 -30 0 0 -10
0 -10 -28 0 -28 0 -14 -20 -14 -20 -8 0 -8 0 0 19 0 19 12 4 13 5 -19 19 -19
19 -5 -13 -4 -12 -28 0 -28 0 -5 13 -4 12 -9 -9 -9 -9 13 -4 12 -5 0 -15 0
-14 15 -16 16 -15 7 6 6 7 -14 9 -14 9 6 7 7 6 16 -15 15 -16 0 -15 0 -16 10
0 10 0 0 -20 0 -20 10 0 10 0 0 -20 0 -20 -6 0 -5 0 -15 14 -14 15 0 15 0 16
-6 0 -5 0 -17 -17 -17 -16 13 -5 12 -4 0 -29 0 -29 -10 0 -10 0 0 -15 0 -16
-25 -25 -26 -26 -19 22 -19 22 -57 -57 -57 -57 14 -9 14 -9 -15 -10 -15 -10
15 -10 15 -10 -15 -9 -14 -10 7 -8 8 -7 9 13 8 14 42 -43 41 -42 7 7 7 8 -12
4 -13 5 0 9 0 9 26 0 27 0 18 -22 19 -21 7 6 6 7 -23 20 -23 20 21 19 22 18 0
17 0 16 18 0 18 0 14 20 14 20 18 0 18 0 0 -10 0 -10 -16 0 -15 0 -15 -14 -14
-15 0 -12 0 -12 -22 -18 -21 -19 8 -8 8 -7 4 13 5 12 9 0 9 0 0 -26 0 -26 42
-40 41 -40 -14 -8 -13 -9 8 -8 9 -8 4 13 5 12 19 0 19 0 0 -20 0 -20 20 0 20
0 0 -16 0 -17 -22 -18 -21 -19 6 -7 7 -6 19 21 18 22 7 0 6 0 0 -19 0 -19 -12
-6 -13 -6 13 -6 12 -6 0 -29 0 -29 -20 0 -20 0 0 9 0 9 13 5 12 4 -7 8 -7 7
-18 -18 -18 -17 13 -5 12 -4 0 -28 0 -28 -12 -5 -13 -4 7 -8 8 -8 19 21 18 22
7 0 6 0 0 -18 0 -18 -20 -14 -20 -14 0 -17 0 -17 -12 -5 -13 -4 9 -9 9 -9 4
13 5 12 19 0 19 0 0 -10 0 -10 -10 0 -10 0 0 -10 0 -10 20 0 20 0 0 20 0 20
10 0 10 0 0 -20 0 -20 19 0 19 0 5 13 5 12 11 -15 11 -15 10 15 10 15 10 -15
10 -15 10 15 10 15 10 -15 10 -15 10 15 10 15 10 -15 10 -15 10 15 10 15 10
-15 10 -15 10 15 10 15 10 -15 10 -15 10 15 10 15 10 -15 10 -15 10 15 10 15
10 -15 10 -15 11 15 11 15 5 -12 5 -13 19 0 19 0 0 18 0 18 20 14 20 14 0 18
0 18 15 0 16 0 25 -25 26 -26 -23 -20 -22 -19 7 -7 7 -7 10 14 9 15 10 -15 10
-15 10 15 10 15 10 -15 10 -15 10 15 10 15 10 -15 10 -15 10 15 10 15 10 -15
10 -15 10 15 10 15 10 -15 10 -15 10 15 10 15 9 -15 10 -14 8 7 7 8 -14 10
-15 9 15 10 15 10 -15 10 -15 10 15 10 15 10 -15 10 -15 10 15 10 15 10 -15
10 -15 10 15 10 15 10 -15 10 -15 10 14 9 14 9 -16 16 -16 16 -25 0 -26 0 0
10 0 10 -40 0 -40 0 0 10 0 10 -58 0 -58 0 -14 20 -14 20 -16 0 -16 0 -14 20
-14 20 -16 0 -16 0 -14 20 -14 20 -18 0 -18 0 0 46 0 46 30 28 30 28 0 16 0
16 10 0 10 0 0 40 0 40 10 0 10 0 0 20 0 20 10 0 10 0 0 38 0 38 20 14 20 14
0 18 0 18 10 0 10 0 0 26 0 25 -16 16 -16 16 -8 -13 -8 -13 -17 17 -17 17 6 7
7 6 9 -13 8 -14 17 17 17 17 -6 7 -7 6 -9 -14 -8 -14 -31 33 -31 34 -21 -24
-20 -23 -10 14 -9 15 -9 -14 -9 -14 -27 27 -27 27 6 7 7 6 10 -14 9 -15 9 15
10 14 8 -7 7 -8 -14 -9 -14 -9 7 -8 8 -7 10 14 9 15 9 -15 10 -14 6 6 7 7 -36
35 -35 36 -3 0 -3 -1 -25 -29z m40 0 l0 -10 -10 0 -10 0 0 10 0 10 10 0 10 0
0 -10z m107 -65 l15 -16 -5 -6 -6 -5 -16 15 -15 16 0 5 0 6 6 0 5 0 16 -15z
m-387 -11 l0 -5 -15 -16 -16 -15 -5 5 -6 6 13 15 14 15 8 1 7 0 0 -6z m40 -4
l0 -10 -10 0 -10 0 0 10 0 10 10 0 10 0 0 -10z m-100 -20 l0 -10 -10 0 -10 0
0 10 0 10 10 0 10 0 0 -10z m340 -10 l0 -20 20 0 20 0 0 10 0 10 40 0 40 0 0
-70 0 -70 -10 0 -10 0 0 -40 0 -40 -10 0 -10 0 0 -60 0 -60 -10 0 -10 0 0 -15
0 -15 -75 -75 -75 -75 -15 0 -15 0 0 -10 0 -10 -30 0 -30 0 0 10 0 10 -15 0
-15 0 -75 75 -75 75 0 15 0 15 -10 0 -10 0 0 30 0 30 -10 0 -10 0 0 30 0 30
-10 0 -10 0 0 30 0 30 -10 0 -10 0 0 40 0 40 -10 0 -10 0 0 10 0 10 16 0 15 0
16 15 15 16 -6 7 -7 6 -9 -14 -9 -14 -7 6 -6 7 18 18 17 18 5 -13 4 -12 29 0
29 0 0 -6 0 -7 -22 -18 -21 -19 8 -8 8 -7 4 13 5 12 19 0 19 0 0 -10 0 -10
-10 0 -10 0 0 -26 0 -25 14 -15 15 -14 11 0 11 0 15 14 14 15 0 15 0 16 10 0
10 0 0 30 0 30 -40 0 -40 0 0 10 0 10 20 0 20 0 0 10 0 10 40 0 40 0 0 -30 0
-30 10 0 10 0 0 10 0 10 19 0 19 0 5 -12 4 -13 30 33 31 32 26 0 26 0 0 10 0
10 10 0 10 0 0 -20z m166 -55 l15 -15 -16 -16 -16 -16 -7 6 -6 7 14 10 15 11
-12 5 -13 5 0 9 0 9 6 0 5 0 15 -15z m-426 -25 l0 -20 -10 0 -10 0 0 20 0 20
10 0 10 0 0 -20z m-20 -50 l0 -10 -10 0 -10 0 0 10 0 10 10 0 10 0 0 -10z
m-180 -30 l0 -20 10 0 10 0 0 -30 0 -30 10 0 10 0 0 -20 0 -20 10 0 10 0 0
-29 0 -29 13 -6 12 -6 -12 -6 -13 -6 0 -9 0 -9 16 0 15 0 15 -14 14 -15 0 -11
0 -11 14 -15 15 -14 11 0 11 0 15 -14 14 -15 0 -15 0 -16 -10 0 -10 0 0 20 0
20 -9 0 -9 0 -5 -12 -4 -13 -20 23 -20 22 -17 0 -16 0 0 19 0 19 13 5 12 4 -9
9 -9 9 -4 -12 -5 -13 -25 0 -24 0 -15 14 -14 15 0 13 0 14 20 14 20 14 0 18 0
18 -10 0 -10 0 0 30 0 30 -10 0 -10 0 0 30 0 30 -10 0 -10 0 0 20 0 20 10 0
10 0 0 -20z m-40 -20 l0 -20 10 0 10 0 0 -20 0 -20 10 0 10 0 0 -20 0 -20 -10
0 -10 0 0 10 0 10 -10 0 -10 0 0 -20 0 -20 -10 0 -10 0 0 20 0 20 10 0 10 0 0
30 0 30 -5 0 -6 0 -26 -26 -26 -26 14 -9 14 -9 -15 -10 -15 -10 15 -9 14 -10
-24 -21 -24 -21 13 -9 14 -8 -17 -18 -18 -17 -9 14 -9 14 -10 -15 -10 -15 -10
15 -10 15 -9 -14 -9 -14 -27 28 -28 27 14 9 14 9 -14 9 -14 9 47 47 47 47 19
-22 19 -22 35 36 36 35 0 16 0 15 10 0 10 0 0 -20z m40 -250 l0 -10 18 0 18 0
14 -20 14 -20 16 0 16 0 14 -20 14 -20 28 0 28 0 0 -10 0 -10 50 0 50 0 0 -10
0 -10 30 0 30 0 0 10 0 10 16 0 16 0 39 41 40 41 7 -7 7 -8 -12 -4 -13 -5 0
-18 0 -18 12 -4 13 -5 -53 -51 -53 -52 15 -16 16 -15 60 61 60 61 51 -52 51
-52 8 14 9 13 8 -7 7 -8 -13 -9 -14 -8 17 -18 18 -17 9 14 9 14 10 -15 10 -15
10 15 10 15 10 -15 10 -15 9 15 10 14 21 -24 21 -24 10 14 9 15 10 -15 10 -15
9 15 10 14 21 -24 21 -24 9 14 9 14 8 -7 7 -8 -14 -10 -15 -9 15 -10 15 -10
-15 -10 -15 -10 15 -10 15 -10 -15 -10 -15 -10 15 -10 15 -10 -15 -10 -15 -10
14 -9 14 -9 -17 -18 -18 -17 -9 14 -9 14 -10 -15 -10 -15 -10 15 -10 15 -10
-15 -10 -15 -10 15 -10 15 -10 -15 -10 -15 -10 15 -10 15 -9 -15 -10 -14 -8 7
-7 8 14 9 14 8 -32 30 -32 30 0 16 0 16 16 0 15 0 15 15 15 15 -15 15 -16 16
-56 -57 -57 -56 13 -8 13 -8 -28 -27 -27 -28 -9 14 -9 14 -10 -15 -10 -15 -10
15 -10 15 -10 -15 -10 -15 -10 15 -10 15 -10 -15 -10 -15 -10 15 -10 15 -10
-15 -10 -15 -10 15 -10 15 -10 -15 -10 -15 -10 15 -10 15 -10 -15 -10 -15 -10
15 -10 15 -10 -15 -10 -15 -10 15 -10 15 -10 -15 -10 -15 -10 15 -10 15 -9
-15 -10 -14 -7 7 -7 7 22 20 23 19 -17 17 -17 17 -8 -13 -8 -13 -16 16 -16 16
0 15 0 16 10 0 10 0 0 -20 0 -20 5 0 6 0 35 36 36 35 -22 19 -22 19 17 17 17
17 8 -14 9 -13 8 7 7 8 -13 9 -14 8 17 18 18 17 8 -13 8 -13 67 67 67 67 -6 6
-5 5 -40 -41 -39 -41 -21 0 -21 0 -55 -55 -55 -55 0 -15 0 -15 -20 0 -20 0 0
65 0 66 -45 44 -44 45 -11 0 -11 0 -34 35 -35 34 0 16 0 15 10 0 10 0 0 -10z"/>
<path d="M740 890 l0 -10 20 0 20 0 0 -20 0 -20 -10 0 -10 0 0 -20 0 -20 20 0
20 0 0 -20 0 -20 6 0 5 0 15 14 14 15 0 25 0 26 10 0 10 0 0 -20 0 -20 10 0
10 0 0 26 0 25 -14 15 -15 14 -25 0 -26 0 0 10 0 10 -30 0 -30 0 0 -10z"/>
<path d="M720 760 l0 -60 10 0 10 0 0 -16 0 -17 -22 -18 -21 -19 6 -6 6 -6 25
25 26 26 0 16 0 15 -10 0 -10 0 0 60 0 60 -10 0 -10 0 0 -60z"/>
<path d="M640 530 l0 -10 40 0 40 0 0 10 0 10 -40 0 -40 0 0 -10z"/>
<path d="M680 490 l0 -10 10 0 10 0 0 10 0 10 -10 0 -10 0 0 -10z"/>
<path d="M371 564 l-13 -15 6 -6 5 -5 16 15 15 16 0 5 0 6 -7 0 -8 -1 -14 -15z"/>
<path d="M131 643 l-34 -35 14 -9 14 -9 -14 -9 -14 -9 17 -18 18 -17 9 14 9
14 10 -15 10 -15 10 15 10 15 9 -15 10 -14 8 7 7 8 -14 9 -14 9 24 21 24 21
-14 10 -15 9 15 9 14 10 -7 8 -8 7 -9 -14 -9 -14 -19 22 -19 22 -4 -1 -4 0
-34 -36z m65 -8 l25 -25 -27 -26 -26 -27 -9 14 -9 14 -9 -15 -10 -14 -8 7 -7
8 14 10 15 9 -14 9 -14 9 24 25 24 26 3 0 3 1 25 -25z"/>
<path d="M152 624 l-13 -14 15 -16 16 -15 16 15 15 16 -15 15 -15 15 -3 0 -3
-1 -13 -15z m28 -14 l0 -10 -10 0 -10 0 0 10 0 10 10 0 10 0 0 -10z"/>
<path d="M787 298 l-58 -60 -19 22 -20 23 -21 -24 -20 -23 -9 14 -9 14 -8 -7
-7 -8 13 -9 14 -8 -17 -18 -18 -17 -8 14 -9 13 -7 -7 -7 -7 23 -20 23 -20 -33
-30 -33 -30 24 -21 23 -20 -14 -9 -14 -9 7 -8 8 -7 10 14 9 15 10 -15 10 -15
10 15 10 15 10 -15 10 -15 10 15 10 15 10 -15 10 -15 10 15 10 15 10 -15 10
-15 10 15 10 15 10 -15 10 -15 10 15 10 15 10 -15 10 -15 10 15 10 15 10 -15
10 -15 10 15 10 15 9 -14 9 -14 18 17 17 18 -13 8 -13 8 67 66 66 67 36 -36
35 -36 -31 -29 -31 -29 26 -27 27 -27 9 14 9 14 10 -15 10 -15 10 15 10 15 10
-15 10 -15 10 15 10 15 9 -15 10 -14 8 7 7 8 -14 10 -15 9 15 10 15 10 -15 10
-15 10 15 10 15 10 -15 10 -15 10 14 9 14 9 -28 27 -27 28 -9 -14 -9 -14 -10
15 -10 15 -9 -15 -10 -14 -21 24 -21 24 -10 -14 -9 -15 -10 15 -10 15 -10 -15
-10 -15 -10 15 -10 15 -9 -14 -9 -14 -71 72 -70 71 -3 -1 -3 0 -58 -61z m134
-29 l71 -72 8 14 9 13 7 -6 6 -7 -62 -61 -63 -62 14 -8 13 -9 -7 -8 -8 -7 -10
14 -9 15 -10 -15 -10 -15 -10 15 -10 15 -10 -15 -10 -15 -10 15 -10 15 -10
-15 -10 -15 -10 15 -10 15 -10 -15 -10 -15 -10 15 -10 15 -10 -15 -10 -15 -10
15 -10 15 -10 -15 -10 -15 -10 15 -10 15 -9 -14 -9 -14 -27 27 -26 27 32 30
33 31 -14 8 -13 8 37 37 37 37 19 -22 19 -22 58 60 58 61 3 0 3 1 70 -71z
m179 -59 l0 -10 -10 0 -10 0 0 10 0 10 10 0 10 0 0 -10z m63 -22 l5 -13 10 14
10 14 18 -17 17 -18 -14 -9 -14 -9 15 -10 15 -10 -15 -10 -15 -10 14 -9 14 -9
-17 -18 -18 -17 -9 14 -9 14 -10 -15 -10 -15 -10 15 -10 15 -9 -14 -9 -14 -17
17 -17 16 33 31 33 31 -14 8 -13 8 14 16 14 15 7 1 6 0 5 -12z"/>
<path d="M787 258 l-58 -60 -19 22 -19 22 -27 -27 -27 -27 13 -8 14 -8 -33
-31 -33 -31 17 -16 17 -17 9 14 9 14 10 -15 10 -15 10 15 10 15 10 -15 10 -15
10 15 10 15 10 -15 10 -15 10 15 10 15 10 -15 10 -15 10 15 10 15 10 -15 10
-15 10 15 10 15 9 -14 9 -14 56 57 56 56 -65 65 -65 65 -2 -1 -3 0 -58 -61z
m118 -13 l55 -55 -46 -46 -46 -47 -9 14 -9 14 -10 -15 -10 -15 -10 15 -10 15
-10 -15 -10 -15 -10 15 -10 15 -10 -15 -10 -15 -10 15 -10 15 -10 -15 -10 -15
-10 15 -10 15 -10 -15 -10 -15 -10 15 -10 15 -9 -15 -10 -14 -7 6 -7 7 33 31
34 32 -14 8 -13 8 17 17 17 17 19 -22 19 -22 58 60 58 61 3 0 2 1 55 -55z"/>
<path d="M787 218 l-58 -60 -19 23 -20 22 -7 -7 -7 -7 14 -9 14 -9 -23 -21
-24 -20 7 -7 7 -7 10 14 9 15 10 -15 10 -15 10 15 10 15 10 -15 10 -15 10 15
10 15 10 -15 10 -15 10 15 10 15 10 -15 10 -15 10 15 10 15 9 -14 9 -14 36 37
37 36 -45 45 -45 45 -3 -1 -3 0 -58 -61z m99 7 l35 -35 -27 -27 -26 -26 -9 14
-9 14 -10 -15 -10 -15 -10 15 -10 15 -10 -15 -10 -15 -10 15 -10 15 -9 -15
-10 -14 -6 6 -7 7 54 55 53 55 3 0 3 1 35 -35z m-166 -75 l0 -10 -10 0 -10 0
0 10 0 10 10 0 10 0 0 -10z"/>
<path d="M812 204 l-34 -35 7 -7 6 -6 10 14 9 15 10 -15 10 -15 10 15 10 15 9
-14 9 -14 17 16 16 17 -25 25 -25 25 -3 -1 -3 0 -33 -35z m55 1 l15 -16 -6 -7
-7 -6 -10 14 -9 15 -9 -15 -10 -14 -6 6 -7 7 13 15 14 15 3 1 3 0 16 -15z"/>
<path d="M1140 171 l0 -9 13 -5 12 -4 -34 -32 -34 -32 7 -7 7 -6 10 14 9 15
10 -15 10 -15 10 15 10 15 9 -15 10 -14 8 7 7 8 -14 10 -15 9 15 10 15 10 -15
10 -15 10 15 9 14 10 -7 8 -8 7 -10 -14 -11 -15 -5 13 -5 12 -9 0 -9 0 0 -9z
m40 -37 l0 -5 -15 -16 -16 -15 -5 5 -6 6 13 15 14 15 8 1 7 0 0 -6z"/>
<path d="M271 1004 l-13 -15 6 -6 5 -5 16 15 15 16 0 5 0 6 -7 0 -8 -1 -14
-15z"/>
<path d="M640 954 l0 -5 15 -15 15 -15 16 16 16 16 -6 7 -7 6 -10 -14 -11 -15
-5 13 -5 12 -9 0 -9 0 0 -6z"/>
<path d="M240 870 l0 -10 10 0 10 0 0 10 0 10 -10 0 -10 0 0 -10z"/>
<path d="M31 444 l-13 -15 6 -6 5 -5 16 15 15 16 0 5 0 6 -7 0 -8 -1 -14 -15z"/>
<path d="M111 444 l-13 -15 6 -6 5 -5 16 15 15 16 0 5 0 6 -7 0 -8 -1 -14 -15z"/>
<path d="M191 444 l-13 -15 6 -6 5 -5 16 15 15 16 0 5 0 6 -7 0 -8 -1 -14 -15z"/>
<path d="M260 434 l0 -7 22 -18 21 -19 -23 -20 -23 -20 6 -7 7 -6 19 21 18 22
7 0 6 0 0 -19 0 -19 -12 -4 -13 -5 19 -19 19 -19 5 13 4 12 19 0 19 0 0 -6 0
-7 -22 -18 -21 -19 6 -7 7 -6 19 21 18 22 17 0 16 0 0 6 0 5 -14 15 -15 14
-11 0 -11 0 -15 14 -14 15 0 11 0 11 -25 24 -24 25 -16 0 -15 0 0 -6z m80
-104 l0 -10 -10 0 -10 0 0 10 0 10 10 0 10 0 0 -10z"/>
<path d="M60 414 l0 -5 15 -16 16 -15 6 5 5 6 -15 16 -16 15 -5 0 -6 0 0 -6z"/>
<path d="M140 414 l0 -5 15 -16 16 -15 6 5 5 6 -15 16 -16 15 -5 0 -6 0 0 -6z"/>
<path d="M220 414 l0 -5 15 -16 16 -15 6 5 5 6 -15 16 -16 15 -5 0 -6 0 0 -6z"/>
<path d="M0 390 l0 -10 10 0 10 0 0 10 0 10 -10 0 -10 0 0 -10z"/>
<path d="M31 364 l-13 -15 6 -6 5 -5 16 15 15 16 0 5 0 6 -7 0 -8 -1 -14 -15z"/>
<path d="M111 364 l-13 -15 6 -6 5 -5 16 15 15 16 0 5 0 6 -7 0 -8 -1 -14 -15z"/>
<path d="M191 364 l-13 -15 6 -6 5 -5 16 15 15 16 0 5 0 6 -7 0 -8 -1 -14 -15z"/>
<path d="M60 334 l0 -5 15 -16 16 -15 6 5 5 6 -15 16 -16 15 -5 0 -6 0 0 -6z"/>
<path d="M140 334 l0 -5 15 -16 16 -15 6 5 5 6 -15 16 -16 15 -5 0 -6 0 0 -6z"/>
<path d="M220 334 l0 -5 15 -16 16 -15 6 5 5 6 -15 16 -16 15 -5 0 -6 0 0 -6z"/>
<path d="M0 310 l0 -10 10 0 10 0 0 10 0 10 -10 0 -10 0 0 -10z"/>
<path d="M31 284 l-13 -15 6 -6 5 -5 16 15 15 16 0 5 0 6 -7 0 -8 -1 -14 -15z"/>
<path d="M111 284 l-13 -15 6 -6 5 -5 16 15 15 16 0 5 0 6 -7 0 -8 -1 -14 -15z"/>
<path d="M191 284 l-13 -15 6 -6 5 -5 16 15 15 16 0 5 0 6 -7 0 -8 -1 -14 -15z"/>
<path d="M271 284 l-13 -15 6 -6 5 -5 16 15 15 16 0 5 0 6 -7 0 -8 -1 -14 -15z"/>
<path d="M60 254 l0 -5 15 -16 16 -15 6 5 5 6 -15 16 -16 15 -5 0 -6 0 0 -6z"/>
<path d="M140 254 l0 -5 15 -16 16 -15 6 5 5 6 -15 16 -16 15 -5 0 -6 0 0 -6z"/>
<path d="M220 254 l0 -5 15 -16 16 -15 6 5 5 6 -15 16 -16 15 -5 0 -6 0 0 -6z"/>
<path d="M300 254 l0 -5 15 -16 16 -15 6 5 5 6 -15 16 -16 15 -5 0 -6 0 0 -6z"/>
<path d="M380 254 l0 -5 15 -16 16 -15 6 5 5 6 -15 16 -16 15 -5 0 -6 0 0 -6z"/>
<path d="M0 230 l0 -10 10 0 10 0 0 10 0 10 -10 0 -10 0 0 -10z"/>
<path d="M31 204 l-13 -15 6 -6 5 -5 16 15 15 16 0 5 0 6 -7 0 -8 -1 -14 -15z"/>
<path d="M111 204 l-13 -15 6 -6 5 -5 16 15 15 16 0 5 0 6 -7 0 -8 -1 -14 -15z"/>
<path d="M191 204 l-13 -15 6 -6 5 -5 16 15 15 16 0 5 0 6 -7 0 -8 -1 -14 -15z"/>
<path d="M271 204 l-13 -15 6 -6 5 -5 16 15 15 16 0 5 0 6 -7 0 -8 -1 -14 -15z"/>
<path d="M351 204 l-13 -15 6 -6 5 -5 16 15 15 16 0 5 0 6 -7 0 -8 -1 -14 -15z"/>
<path d="M60 174 l0 -5 15 -16 16 -15 6 5 5 6 -15 16 -16 15 -5 0 -6 0 0 -6z"/>
<path d="M140 174 l0 -5 15 -16 16 -15 6 5 5 6 -15 16 -16 15 -5 0 -6 0 0 -6z"/>
<path d="M220 174 l0 -5 15 -16 16 -15 6 5 5 6 -15 16 -16 15 -5 0 -6 0 0 -6z"/>
<path d="M300 174 l0 -5 15 -16 16 -15 6 5 5 6 -15 16 -16 15 -5 0 -6 0 0 -6z"/>
<path d="M380 174 l0 -5 15 -16 16 -15 6 5 5 6 -15 16 -16 15 -5 0 -6 0 0 -6z"/>
<path d="M0 150 l0 -10 10 0 10 0 0 10 0 10 -10 0 -10 0 0 -10z"/>
<path d="M31 124 l-13 -15 6 -6 5 -5 16 15 15 16 0 5 0 6 -7 0 -8 -1 -14 -15z"/>
<path d="M111 124 l-13 -15 6 -6 5 -5 16 15 15 16 0 5 0 6 -7 0 -8 -1 -14 -15z"/>
<path d="M191 124 l-13 -15 6 -6 5 -5 16 15 15 16 0 5 0 6 -7 0 -8 -1 -14 -15z"/>
<path d="M271 124 l-13 -15 6 -6 5 -5 16 15 15 16 0 5 0 6 -7 0 -8 -1 -14 -15z"/>
<path d="M351 124 l-13 -15 6 -6 5 -5 16 15 15 16 0 5 0 6 -7 0 -8 -1 -14 -15z"/>
<path d="M60 94 l0 -5 15 -16 16 -15 6 5 5 6 -15 16 -16 15 -5 0 -6 0 0 -6z"/>
<path d="M140 94 l0 -5 15 -16 16 -15 6 5 5 6 -15 16 -16 15 -5 0 -6 0 0 -6z"/>
<path d="M220 94 l0 -5 15 -16 16 -15 6 5 5 6 -15 16 -16 15 -5 0 -6 0 0 -6z"/>
<path d="M300 94 l0 -5 15 -16 16 -15 6 5 5 6 -15 16 -16 15 -5 0 -6 0 0 -6z"/>
<path d="M380 94 l0 -5 15 -16 16 -15 6 5 5 6 -15 16 -16 15 -5 0 -6 0 0 -6z"/>
<path d="M0 70 l0 -10 10 0 10 0 0 10 0 10 -10 0 -10 0 0 -10z"/>
<path d="M31 44 l-13 -15 6 -6 5 -5 16 15 15 16 0 5 0 6 -7 0 -8 -1 -14 -15z"/>
<path d="M111 44 l-13 -15 6 -6 5 -5 16 15 15 16 0 5 0 6 -7 0 -8 -1 -14 -15z"/>
<path d="M191 44 l-13 -15 6 -6 5 -5 16 15 15 16 0 5 0 6 -7 0 -8 -1 -14 -15z"/>
<path d="M271 44 l-13 -15 6 -6 5 -5 16 15 15 16 0 5 0 6 -7 0 -8 -1 -14 -15z"/>
<path d="M351 44 l-13 -15 6 -6 5 -5 16 15 15 16 0 5 0 6 -7 0 -8 -1 -14 -15z"/>
<path d="M991 44 l-13 -15 6 -6 5 -5 16 15 15 16 0 5 0 6 -7 0 -8 -1 -14 -15z"/>
<path d="M60 10 l0 -10 10 0 10 0 0 10 0 10 -10 0 -10 0 0 -10z"/>
<path d="M140 10 l0 -10 10 0 10 0 0 10 0 10 -10 0 -10 0 0 -10z"/>
<path d="M220 10 l0 -10 10 0 10 0 0 10 0 10 -10 0 -10 0 0 -10z"/>
<path d="M300 10 l0 -10 10 0 10 0 0 10 0 10 -10 0 -10 0 0 -10z"/>
<path d="M380 10 l0 -10 10 0 10 0 0 10 0 10 -10 0 -10 0 0 -10z"/>
</g>
</svg>
