<?xml version="1.0" standalone="no"?>
<!DOCTYPE svg PUBLIC "-//W3C//DTD SVG 20010904//EN"
 "http://www.w3.org/TR/2001/REC-SVG-20010904/DTD/svg10.dtd">
<svg version="1.0" xmlns="http://www.w3.org/2000/svg"
 width="468pt" height="468pt" viewBox="0 0 468 468"
 preserveAspectRatio="xMidYMid meet">
<metadata>
Created by potrace 1.8, written by Peter Selinger 2001-2007
</metadata>
<g transform="translate(0,468) scale(0.365625,-0.365625)"
fill="#000000" stroke="none">
<path d="M210 1175 l0 -105 69 0 69 0 6 13 6 12 6 -12 6 -13 25 0 24 0 15 14
14 15 0 24 0 25 -12 6 -13 6 13 6 12 6 0 14 0 14 -10 0 -10 0 0 15 0 15 -30 0
-30 0 0 -15 0 -15 -10 0 -10 0 0 -11 0 -10 14 -15 15 -14 25 0 26 0 0 -30 0
-30 -30 0 -30 0 0 15 0 15 -10 0 -10 0 0 -15 0 -15 -55 0 -55 0 0 40 0 40 40
0 40 0 0 15 0 15 -40 0 -40 0 0 25 0 25 55 0 55 0 0 15 0 15 -70 0 -70 0 0
-105z m220 10 l0 -15 -30 0 -30 0 0 15 0 15 30 0 30 0 0 -15z"/>
<path d="M510 1255 l0 -25 -15 0 -15 0 0 -15 0 -15 15 0 15 0 0 -65 0 -65 25
0 25 0 0 10 0 10 -15 0 -15 0 0 55 0 55 15 0 15 0 0 15 0 15 -15 0 -15 0 0 25
0 25 -10 0 -10 0 0 -25z"/>
<path d="M910 1265 l0 -15 10 0 10 0 0 15 0 15 -10 0 -10 0 0 -15z"/>
<path d="M610 1215 l0 -15 -10 0 -10 0 0 -51 0 -50 14 -15 15 -14 35 0 36 0 0
10 0 10 15 0 15 0 0 55 0 55 -15 0 -15 0 0 15 0 15 -40 0 -40 0 0 -15z m80
-70 l0 -55 -40 0 -40 0 0 55 0 55 40 0 40 0 0 -55z"/>
<path d="M750 1150 l0 -80 10 0 10 0 0 50 0 50 15 0 15 0 0 15 0 15 25 0 25 0
0 -65 0 -65 15 0 15 0 0 65 0 65 -15 0 -15 0 0 15 0 15 -25 0 -25 0 0 -15 0
-15 -15 0 -15 0 0 15 0 15 -10 0 -10 0 0 -80z"/>
<path d="M910 1150 l0 -80 10 0 10 0 0 80 0 80 -10 0 -10 0 0 -80z"/>
<path d="M960 1215 l0 -15 40 0 40 0 0 -15 0 -15 -25 0 -25 0 0 -10 0 -10 -15
0 -15 0 0 -30 0 -30 15 0 15 0 0 -10 0 -10 25 0 25 0 0 10 0 10 14 0 14 0 5
-12 4 -13 9 9 9 9 -12 4 -13 5 0 54 0 54 -15 0 -15 0 0 15 0 15 -40 0 -40 0 0
-15z m80 -95 l0 -30 -25 0 -25 0 0 30 0 30 25 0 25 0 0 -30z"/>
<path d="M30 535 l0 -425 625 0 625 0 0 425 0 425 -625 0 -625 0 0 -425z m50
385 l0 -10 -15 0 -15 0 0 10 0 10 15 0 15 0 0 -10z m50 0 l0 -10 -10 0 -10 0
0 10 0 10 10 0 10 0 0 -10z m60 0 l0 -10 -15 0 -15 0 0 10 0 10 15 0 15 0 0
-10z m50 0 l0 -10 -15 0 -15 0 0 10 0 10 15 0 15 0 0 -10z m50 0 l0 -10 -10 0
-10 0 0 10 0 10 10 0 10 0 0 -10z m60 0 l0 -10 -15 0 -15 0 0 10 0 10 15 0 15
0 0 -10z m50 0 l0 -10 -15 0 -15 0 0 10 0 10 15 0 15 0 0 -10z m50 0 l0 -10
-10 0 -10 0 0 10 0 10 10 0 10 0 0 -10z m60 0 l0 -10 -15 0 -15 0 0 10 0 10
15 0 15 0 0 -10z m50 0 l0 -10 -15 0 -15 0 0 10 0 10 15 0 15 0 0 -10z m50 0
l0 -10 -10 0 -10 0 0 10 0 10 10 0 10 0 0 -10z m60 0 l0 -10 -15 0 -15 0 0 10
0 10 15 0 15 0 0 -10z m50 0 l0 -10 -15 0 -15 0 0 10 0 10 15 0 15 0 0 -10z
m50 0 l0 -10 -10 0 -10 0 0 10 0 10 10 0 10 0 0 -10z m60 0 l0 -10 -15 0 -15
0 0 10 0 10 15 0 15 0 0 -10z m50 0 l0 -10 -15 0 -15 0 0 10 0 10 15 0 15 0 0
-10z m50 0 l0 -10 -10 0 -10 0 0 10 0 10 10 0 10 0 0 -10z m60 0 l0 -10 -15 0
-15 0 0 10 0 10 15 0 15 0 0 -10z m50 0 l0 -10 -15 0 -15 0 0 10 0 10 15 0 15
0 0 -10z m50 0 l0 -10 -10 0 -10 0 0 10 0 10 10 0 10 0 0 -10z m60 0 l0 -10
-15 0 -15 0 0 10 0 10 15 0 15 0 0 -10z m50 0 l0 -10 -15 0 -15 0 0 10 0 10
15 0 15 0 0 -10z m50 0 l0 -10 -10 0 -10 0 0 10 0 10 10 0 10 0 0 -10z m-1170
-55 l0 -15 -15 0 -15 0 0 15 0 15 15 0 15 0 0 -15z m50 0 l0 -15 -10 0 -10 0
0 15 0 15 10 0 10 0 0 -15z m60 0 l0 -15 -15 0 -15 0 0 15 0 15 15 0 15 0 0
-15z m50 0 l0 -15 -15 0 -15 0 0 15 0 15 15 0 15 0 0 -15z m50 0 l0 -15 -10 0
-10 0 0 15 0 15 10 0 10 0 0 -15z m60 0 l0 -15 -15 0 -15 0 0 15 0 15 15 0 15
0 0 -15z m50 0 l0 -15 -15 0 -15 0 0 15 0 15 15 0 15 0 0 -15z m50 0 l0 -15
-10 0 -10 0 0 15 0 15 10 0 10 0 0 -15z m60 0 l0 -15 -15 0 -15 0 0 15 0 15
15 0 15 0 0 -15z m50 0 l0 -15 -15 0 -15 0 0 15 0 15 15 0 15 0 0 -15z m50 0
l0 -15 -10 0 -10 0 0 15 0 15 10 0 10 0 0 -15z m60 0 l0 -15 -15 0 -15 0 0 15
0 15 15 0 15 0 0 -15z m50 0 l0 -15 -15 0 -15 0 0 15 0 15 15 0 15 0 0 -15z
m50 0 l0 -15 -10 0 -10 0 0 15 0 15 10 0 10 0 0 -15z m60 0 l0 -15 -15 0 -15
0 0 15 0 15 15 0 15 0 0 -15z m50 0 l0 -15 -15 0 -15 0 0 15 0 15 15 0 15 0 0
-15z m50 0 l0 -15 -10 0 -10 0 0 15 0 15 10 0 10 0 0 -15z m60 0 l0 -15 -15 0
-15 0 0 15 0 15 15 0 15 0 0 -15z m50 0 l0 -15 -15 0 -15 0 0 15 0 15 15 0 15
0 0 -15z m50 0 l0 -15 -10 0 -10 0 0 15 0 15 10 0 10 0 0 -15z m60 0 l0 -15
-15 0 -15 0 0 15 0 15 15 0 15 0 0 -15z m50 0 l0 -15 -15 0 -15 0 0 15 0 15
15 0 15 0 0 -15z m50 0 l0 -15 -10 0 -10 0 0 15 0 15 10 0 10 0 0 -15z m-1170
-50 l0 -15 -15 0 -15 0 0 15 0 15 15 0 15 0 0 -15z m50 0 l0 -15 -10 0 -10 0
0 15 0 15 10 0 10 0 0 -15z m60 0 l0 -15 -15 0 -15 0 0 15 0 15 15 0 15 0 0
-15z m50 0 l0 -15 -15 0 -15 0 0 15 0 15 15 0 15 0 0 -15z m50 0 l0 -15 -10 0
-10 0 0 15 0 15 10 0 10 0 0 -15z m60 0 l0 -15 -15 0 -15 0 0 15 0 15 15 0 15
0 0 -15z m50 0 l0 -15 -15 0 -15 0 0 15 0 15 15 0 15 0 0 -15z m50 0 l0 -15
-10 0 -10 0 0 15 0 15 10 0 10 0 0 -15z m60 0 l0 -15 -15 0 -15 0 0 15 0 15
15 0 15 0 0 -15z m50 0 l0 -15 -15 0 -15 0 0 15 0 15 15 0 15 0 0 -15z m50 0
l0 -15 -10 0 -10 0 0 15 0 15 10 0 10 0 0 -15z m60 0 l0 -15 -15 0 -15 0 0 15
0 15 15 0 15 0 0 -15z m50 0 l0 -15 -15 0 -15 0 0 15 0 15 15 0 15 0 0 -15z
m50 0 l0 -15 -10 0 -10 0 0 15 0 15 10 0 10 0 0 -15z m60 0 l0 -15 -15 0 -15
0 0 15 0 15 15 0 15 0 0 -15z m50 0 l0 -15 -15 0 -15 0 0 15 0 15 15 0 15 0 0
-15z m50 0 l0 -15 -10 0 -10 0 0 15 0 15 10 0 10 0 0 -15z m60 0 l0 -15 -15 0
-15 0 0 15 0 15 15 0 15 0 0 -15z m50 0 l0 -15 -15 0 -15 0 0 15 0 15 15 0 15
0 0 -15z m50 0 l0 -15 -10 0 -10 0 0 15 0 15 10 0 10 0 0 -15z m60 0 l0 -15
-15 0 -15 0 0 15 0 15 15 0 15 0 0 -15z m50 0 l0 -15 -15 0 -15 0 0 15 0 15
15 0 15 0 0 -15z m50 0 l0 -15 -10 0 -10 0 0 15 0 15 10 0 10 0 0 -15z m-1170
-55 l0 -10 -15 0 -15 0 0 10 0 10 15 0 15 0 0 -10z m50 0 l0 -10 -10 0 -10 0
0 10 0 10 10 0 10 0 0 -10z m60 0 l0 -10 -15 0 -15 0 0 10 0 10 15 0 15 0 0
-10z m50 0 l0 -10 -15 0 -15 0 0 10 0 10 15 0 15 0 0 -10z m50 0 l0 -10 -10 0
-10 0 0 10 0 10 10 0 10 0 0 -10z m60 0 l0 -10 -15 0 -15 0 0 10 0 10 15 0 15
0 0 -10z m50 0 l0 -10 -15 0 -15 0 0 10 0 10 15 0 15 0 0 -10z m50 0 l0 -10
-10 0 -10 0 0 10 0 10 10 0 10 0 0 -10z m60 0 l0 -10 -15 0 -15 0 0 10 0 10
15 0 15 0 0 -10z m50 0 l0 -10 -15 0 -15 0 0 10 0 10 15 0 15 0 0 -10z m50 0
l0 -10 -10 0 -10 0 0 10 0 10 10 0 10 0 0 -10z m60 0 l0 -10 -15 0 -15 0 0 10
0 10 15 0 15 0 0 -10z m50 0 l0 -10 -15 0 -15 0 0 10 0 10 15 0 15 0 0 -10z
m50 0 l0 -10 -10 0 -10 0 0 10 0 10 10 0 10 0 0 -10z m60 0 l0 -10 -15 0 -15
0 0 10 0 10 15 0 15 0 0 -10z m50 0 l0 -10 -15 0 -15 0 0 10 0 10 15 0 15 0 0
-10z m50 0 l0 -10 -10 0 -10 0 0 10 0 10 10 0 10 0 0 -10z m60 0 l0 -10 -15 0
-15 0 0 10 0 10 15 0 15 0 0 -10z m50 0 l0 -10 -15 0 -15 0 0 10 0 10 15 0 15
0 0 -10z m50 0 l0 -10 -10 0 -10 0 0 10 0 10 10 0 10 0 0 -10z m60 0 l0 -10
-15 0 -15 0 0 10 0 10 15 0 15 0 0 -10z m50 0 l0 -10 -15 0 -15 0 0 10 0 10
15 0 15 0 0 -10z m50 0 l0 -10 -10 0 -10 0 0 10 0 10 10 0 10 0 0 -10z m-1170
-55 l0 -15 -15 0 -15 0 0 15 0 15 15 0 15 0 0 -15z m50 0 l0 -15 -10 0 -10 0
0 15 0 15 10 0 10 0 0 -15z m60 0 l0 -15 -15 0 -15 0 0 15 0 15 15 0 15 0 0
-15z m50 0 l0 -15 -15 0 -15 0 0 15 0 15 15 0 15 0 0 -15z m50 0 l0 -15 -10 0
-10 0 0 15 0 15 10 0 10 0 0 -15z m60 0 l0 -15 -15 0 -15 0 0 15 0 15 15 0 15
0 0 -15z m50 0 l0 -15 -15 0 -15 0 0 15 0 15 15 0 15 0 0 -15z m50 0 l0 -15
-10 0 -10 0 0 15 0 15 10 0 10 0 0 -15z m60 0 l0 -15 -15 0 -15 0 0 15 0 15
15 0 15 0 0 -15z m50 0 l0 -15 -15 0 -15 0 0 15 0 15 15 0 15 0 0 -15z m50 0
l0 -15 -10 0 -10 0 0 15 0 15 10 0 10 0 0 -15z m60 0 l0 -15 -15 0 -15 0 0 15
0 15 15 0 15 0 0 -15z m50 0 l0 -15 -15 0 -15 0 0 15 0 15 15 0 15 0 0 -15z
m50 0 l0 -15 -10 0 -10 0 0 15 0 15 10 0 10 0 0 -15z m60 0 l0 -15 -15 0 -15
0 0 15 0 15 15 0 15 0 0 -15z m50 0 l0 -15 -15 0 -15 0 0 15 0 15 15 0 15 0 0
-15z m50 0 l0 -15 -10 0 -10 0 0 15 0 15 10 0 10 0 0 -15z m60 0 l0 -15 -15 0
-15 0 0 15 0 15 15 0 15 0 0 -15z m50 0 l0 -15 -15 0 -15 0 0 15 0 15 15 0 15
0 0 -15z m50 0 l0 -15 -10 0 -10 0 0 15 0 15 10 0 10 0 0 -15z m60 0 l0 -15
-15 0 -15 0 0 15 0 15 15 0 15 0 0 -15z m50 0 l0 -15 -15 0 -15 0 0 15 0 15
15 0 15 0 0 -15z m50 0 l0 -15 -10 0 -10 0 0 15 0 15 10 0 10 0 0 -15z m0
-455 l0 -120 -600 0 -600 0 0 120 0 120 600 0 600 0 0 -120z"/>
</g>
</svg>
