<?xml version="1.0" standalone="no"?>
<!DOCTYPE svg PUBLIC "-//W3C//DTD SVG 20010904//EN"
 "http://www.w3.org/TR/2001/REC-SVG-20010904/DTD/svg10.dtd">
<svg version="1.0" xmlns="http://www.w3.org/2000/svg"
 width="468pt" height="468pt" viewBox="0 0 468 468"
 preserveAspectRatio="xMidYMid meet">
<metadata>
Created by potrace 1.8, written by Peter Selinger 2001-2007
</metadata>
<g transform="translate(0,468) scale(0.365625,-0.365625)"
fill="#000000" stroke="none">
<path d="M13 1265 l-13 -14 0 -626 0 -625 10 0 10 0 0 510 0 510 50 0 50 0 0
10 0 10 -25 0 -25 0 0 25 0 25 60 0 60 0 0 -25 0 -25 -25 0 -25 0 0 -10 0 -10
50 0 50 0 0 10 0 10 -15 0 -15 0 0 25 0 25 -10 0 -10 0 0 25 0 25 -10 0 -10 0
0 25 0 25 -15 0 -15 0 0 -25 0 -25 15 0 15 0 0 -15 0 -15 -40 0 -40 0 0 15 0
15 15 0 15 0 0 25 0 25 -15 0 -15 0 0 -25 0 -25 -10 0 -10 0 0 -25 0 -25 -10
0 -10 0 0 -25 0 -25 -15 0 -15 0 0 95 0 95 15 0 15 0 0 15 0 15 580 0 580 0 0
-11 0 -10 14 -15 15 -14 10 0 11 0 0 -605 0 -605 10 0 10 0 0 615 0 615 -10 0
-10 0 0 15 0 15 -15 0 -15 0 0 10 0 10 -602 0 -603 -1 -12 -14z"/>
<path d="M70 1220 l0 -10 25 0 25 0 0 -10 0 -10 10 0 10 0 0 20 0 20 -35 0
-35 0 0 -10z"/>
<path d="M120 910 l0 -10 -11 0 -10 0 -15 -14 -14 -15 0 -9 0 -10 -12 -5 -13
-4 23 -20 22 -20 0 -12 0 -11 14 0 14 0 6 -12 6 -13 6 13 6 12 14 0 14 0 0 11
0 12 23 20 22 20 -12 4 -13 5 0 10 0 9 -14 15 -15 14 -10 0 -11 0 0 10 0 10
-10 0 -10 0 0 -10z m20 -20 l0 -10 15 0 15 0 0 -14 0 -14 12 -4 13 -5 -17 -16
-17 -17 -10 0 -11 0 0 -15 0 -15 -10 0 -10 0 0 15 0 15 -11 0 -10 0 -17 17
-17 16 13 5 12 4 0 14 0 14 15 0 15 0 0 10 0 10 10 0 10 0 0 -10z"/>
<path d="M120 865 l0 -15 -15 0 -15 0 0 -10 0 -10 14 0 14 0 6 -12 6 -13 6 13
6 12 14 0 14 0 0 10 0 10 -15 0 -15 0 0 15 0 15 -10 0 -10 0 0 -15z m20 -25
l0 -10 -10 0 -10 0 0 10 0 10 10 0 10 0 0 -10z"/>
<path d="M620 770 l0 -10 -15 0 -15 0 0 -10 0 -11 -25 -24 -24 -25 -11 0 -10
0 0 -11 0 -10 -14 -15 -15 -14 -6 0 -6 0 -15 -14 -14 -15 0 -6 0 -6 -14 -15
-15 -14 -6 0 -6 0 -15 -14 -14 -15 0 -6 0 -6 -14 -15 -15 -14 -10 0 -11 0 0
-15 0 -15 10 0 11 0 24 -25 25 -24 0 -11 0 -10 10 0 11 0 24 -25 25 -24 0 -11
0 -10 11 0 10 0 15 -14 14 -15 0 -10 0 -11 10 0 11 0 24 -25 25 -24 0 -11 0
-10 14 0 14 0 4 -12 5 -13 16 17 17 17 0 10 0 11 10 0 11 0 24 25 25 24 0 11
0 10 11 0 10 0 15 14 14 15 0 10 0 11 10 0 11 0 24 25 25 24 0 11 0 10 10 0
11 0 24 25 25 24 0 8 0 9 -20 14 -20 14 0 13 0 13 -10 0 -11 0 -24 25 -25 24
0 11 0 10 -13 0 -13 0 -14 20 -14 20 -13 0 -13 0 0 10 0 11 -25 24 -24 25 -11
0 -10 0 0 11 0 10 -14 15 -15 14 -5 0 -6 0 0 -10z m20 -21 l0 -10 14 -15 15
-14 6 0 6 0 15 -14 14 -15 0 -6 0 -6 14 -15 15 -14 6 0 6 0 15 -14 14 -15 0
-10 0 -11 10 0 11 0 24 -25 25 -24 0 -11 0 -10 11 0 10 0 15 -14 14 -15 0 -6
0 -6 -14 -15 -15 -14 -6 0 -6 0 -15 -14 -14 -15 0 -6 0 -6 -14 -15 -15 -14 -6
0 -6 0 -15 -14 -14 -15 0 -10 0 -11 -11 0 -10 0 -15 -14 -14 -15 0 -6 0 -6
-14 -15 -15 -14 -6 0 -6 0 -15 -14 -14 -15 0 -10 0 -11 -10 0 -10 0 0 15 0 15
-10 0 -11 0 -24 25 -25 24 0 11 0 10 -11 0 -10 0 -15 14 -14 15 0 10 0 11 -10
0 -11 0 -24 25 -25 24 0 11 0 10 -10 0 -11 0 -24 25 -25 24 0 8 0 9 20 14 20
14 0 13 0 13 10 0 11 0 24 25 25 24 0 11 0 10 13 0 13 0 14 20 14 20 13 0 13
0 0 10 0 11 25 24 24 25 11 0 10 0 0 15 0 15 10 0 10 0 0 -11z"/>
<path d="M620 720 l0 -10 -11 0 -10 0 -15 -14 -14 -15 0 -6 0 -6 -14 -15 -15
-14 -6 0 -6 0 -15 -14 -14 -15 0 -10 0 -11 -10 0 -11 0 -24 -25 -25 -24 0 -11
0 -10 -11 0 -10 0 -15 -14 -14 -15 0 -6 0 -6 14 -15 15 -14 6 0 6 0 15 -14 14
-15 0 -6 0 -6 14 -15 15 -14 6 0 6 0 15 -14 14 -15 0 -10 0 -11 11 0 10 0 15
-14 14 -15 0 -6 0 -6 14 -15 15 -14 9 0 10 0 5 -12 4 -13 20 23 20 22 12 0 11
0 0 13 0 13 20 14 20 14 0 13 0 13 13 0 13 0 14 20 14 20 13 0 13 0 0 10 0 11
25 24 24 25 11 0 10 0 0 15 0 15 -11 0 -10 0 -15 14 -14 15 0 6 0 6 -14 15
-15 14 -6 0 -6 0 -15 14 -14 15 0 10 0 11 -10 0 -11 0 -24 25 -25 24 0 11 0
10 -13 0 -13 0 -14 20 -14 20 -8 0 -8 0 0 -10z m26 -24 l14 -15 0 -10 0 -11
10 0 11 0 24 -25 25 -24 0 -11 0 -10 13 0 13 0 14 -20 14 -20 13 0 13 0 0 -13
0 -13 20 -14 20 -14 0 -9 0 -8 -25 -24 -24 -25 -11 0 -10 0 0 -11 0 -10 -14
-15 -15 -14 -6 0 -6 0 -15 -14 -14 -15 0 -6 0 -6 -14 -15 -15 -14 -10 0 -11 0
0 -11 0 -10 -17 -17 -16 -17 -5 13 -4 12 -14 0 -14 0 0 13 0 13 -20 14 -20 14
0 13 0 13 -13 0 -13 0 -14 20 -14 20 -13 0 -13 0 0 10 0 11 -25 24 -24 25 -11
0 -10 0 0 15 0 15 11 0 10 0 15 14 14 15 0 6 0 6 14 15 15 14 6 0 6 0 15 14
14 15 0 10 0 11 10 0 11 0 24 25 25 24 0 11 0 10 15 0 15 0 0 10 0 10 6 0 5 0
15 -14z"/>
<path d="M620 675 l0 -15 -10 0 -11 0 -24 -25 -25 -24 0 -11 0 -10 -13 0 -13
0 -14 -20 -14 -20 -13 0 -13 0 0 -13 0 -13 -20 -14 -20 -14 0 -9 0 -8 25 -24
24 -25 11 0 10 0 0 -11 0 -10 14 -15 15 -14 6 0 6 0 15 -14 14 -15 0 -6 0 -6
14 -15 15 -14 10 0 11 0 0 -15 0 -15 10 0 10 0 0 11 0 10 14 15 15 14 10 0 11
0 0 10 0 11 25 24 24 25 11 0 10 0 0 11 0 10 14 15 15 14 6 0 6 0 15 14 14 15
0 6 0 6 -14 15 -15 14 -10 0 -11 0 0 11 0 10 -14 15 -15 14 -6 0 -6 0 -15 14
-14 15 0 6 0 6 -14 15 -15 14 -6 0 -6 0 -15 14 -14 15 0 10 0 11 -10 0 -10 0
0 -15z m30 -35 l14 -20 13 0 13 0 0 -10 0 -11 25 -24 24 -25 11 0 10 0 0 -11
0 -10 14 -15 15 -14 10 0 11 0 0 -15 0 -15 -13 0 -13 0 -14 -20 -14 -20 -13 0
-13 0 0 -10 0 -11 -25 -24 -24 -25 -11 0 -10 0 0 -11 0 -10 -17 -17 -16 -17
-5 13 -4 12 -14 0 -14 0 0 10 0 11 -25 24 -24 25 -11 0 -10 0 0 11 0 10 -14
15 -15 14 -6 0 -6 0 -15 14 -14 15 0 6 0 6 14 15 15 14 10 0 11 0 0 11 0 10
14 15 15 14 6 0 6 0 15 14 14 15 0 6 0 6 14 15 15 14 10 0 11 0 0 10 0 10 8 0
8 0 14 -20z"/>
<path d="M620 630 l0 -10 -15 0 -15 0 0 -10 0 -11 -25 -24 -24 -25 -11 0 -10
0 0 -11 0 -10 -14 -15 -15 -14 -10 0 -11 0 0 -15 0 -15 13 0 13 0 14 -20 14
-20 13 0 13 0 0 -10 0 -11 25 -24 24 -25 11 0 10 0 0 -15 0 -15 10 0 10 0 0
11 0 10 14 15 15 14 6 0 6 0 15 14 14 15 0 6 0 6 14 15 15 14 6 0 6 0 15 14
14 15 0 6 0 6 -14 15 -15 14 -10 0 -11 0 0 10 0 11 -25 24 -24 25 -11 0 -10 0
0 11 0 10 -14 15 -15 14 -5 0 -6 0 0 -10z m20 -21 l0 -10 14 -15 15 -14 6 0 6
0 15 -14 14 -15 0 -6 0 -6 14 -15 15 -14 10 0 11 0 0 -15 0 -15 -10 0 -11 0
-24 -25 -25 -24 0 -11 0 -10 -11 0 -12 0 -20 -22 -20 -23 -4 13 -5 12 -10 0
-9 0 -15 14 -14 15 0 6 0 6 -14 15 -15 14 -6 0 -6 0 -15 14 -14 15 0 6 0 6 14
15 15 14 10 0 11 0 0 10 0 11 25 24 24 25 11 0 10 0 0 15 0 15 10 0 10 0 0
-11z"/>
<path d="M620 580 l0 -10 -11 0 -10 0 -15 -14 -14 -15 0 -6 0 -6 -14 -15 -15
-14 -10 0 -11 0 0 -15 0 -15 10 0 11 0 24 -25 25 -24 0 -11 0 -10 14 0 14 0 4
-12 5 -13 16 17 17 17 0 10 0 11 10 0 11 0 24 25 25 24 0 8 0 9 -20 14 -20 14
0 13 0 13 -13 0 -13 0 -14 20 -14 20 -8 0 -8 0 0 -10z m26 -24 l14 -15 0 -10
0 -11 11 0 10 0 15 -14 14 -15 0 -6 0 -6 -14 -15 -15 -14 -6 0 -6 0 -15 -14
-14 -15 0 -10 0 -11 -10 0 -10 0 0 15 0 15 -10 0 -11 0 -24 25 -25 24 0 8 0 9
20 14 20 14 0 13 0 13 15 0 15 0 0 10 0 10 6 0 5 0 15 -14z"/>
<path d="M620 535 l0 -15 -11 0 -10 0 -15 -14 -14 -15 0 -6 0 -6 14 -15 15
-14 9 0 10 0 5 -12 4 -13 20 23 20 22 12 0 11 0 0 15 0 15 -11 0 -10 0 -15 14
-14 15 0 10 0 11 -10 0 -10 0 0 -15z m26 -29 l14 -15 0 -6 0 -6 -17 -17 -16
-17 -5 13 -4 12 -14 0 -14 0 0 15 0 15 15 0 15 0 0 10 0 10 6 0 5 0 15 -14z"/>
<path d="M620 485 l0 -15 10 0 10 0 0 15 0 15 -10 0 -10 0 0 -15z"/>
<path d="M1140 155 l0 -15 -11 0 -10 0 -15 -14 -14 -15 0 -9 0 -10 -12 -5 -13
-4 23 -20 22 -20 0 -12 0 -11 14 0 14 0 6 -12 6 -13 6 13 6 12 14 0 14 0 0 11
0 12 23 20 22 20 -12 4 -13 5 0 10 0 9 -14 15 -15 14 -10 0 -11 0 0 15 0 15
-10 0 -10 0 0 -15z m20 -25 l0 -10 15 0 15 0 0 -14 0 -14 12 -4 13 -5 -17 -16
-17 -17 -10 0 -11 0 0 -15 0 -15 -10 0 -10 0 0 15 0 15 -11 0 -10 0 -17 17
-17 16 13 5 12 4 0 14 0 14 15 0 15 0 0 10 0 10 10 0 10 0 0 -10z"/>
<path d="M1140 105 l0 -15 -15 0 -15 0 0 -10 0 -10 14 0 14 0 6 -12 6 -13 6
13 6 12 14 0 14 0 0 10 0 10 -15 0 -15 0 0 15 0 15 -10 0 -10 0 0 -15z m20
-25 l0 -10 -10 0 -10 0 0 10 0 10 10 0 10 0 0 -10z"/>
</g>
</svg>
