<?xml version="1.0" standalone="no"?>
<!DOCTYPE svg PUBLIC "-//W3C//DTD SVG 20010904//EN"
 "http://www.w3.org/TR/2001/REC-SVG-20010904/DTD/svg10.dtd">
<svg version="1.0" xmlns="http://www.w3.org/2000/svg"
 width="468pt" height="468pt" viewBox="0 0 468 468"
 preserveAspectRatio="xMidYMid meet">
<metadata>
Created by potrace 1.8, written by Peter Selinger 2001-2007
</metadata>
<g transform="translate(0,468) scale(0.365625,-0.365625)"
fill="#000000" stroke="none">
<path d="M640 1220 l0 -20 -40 0 -40 0 0 -20 0 -20 -40 0 -40 0 0 -20 0 -20
-40 0 -40 0 0 -20 0 -20 -40 0 -40 0 0 -20 0 -20 -40 0 -40 0 0 -20 0 -20 -40
0 -40 0 0 -20 0 -20 -40 0 -40 0 0 -20 0 -20 -20 0 -20 0 0 -320 0 -320 40 0
40 0 0 -20 0 -20 40 0 40 0 0 -20 0 -20 40 0 40 0 0 -20 0 -20 40 0 40 0 0
-20 0 -20 40 0 40 0 0 -20 0 -20 40 0 40 0 0 -20 0 -20 40 0 40 0 0 -20 0 -20
60 0 60 0 0 20 0 20 40 0 40 0 0 20 0 20 40 0 40 0 0 20 0 20 40 0 40 0 0 20
0 20 40 0 40 0 0 20 0 20 40 0 40 0 0 20 0 20 40 0 40 0 0 20 0 20 20 0 20 0
0 340 0 340 -40 0 -40 0 0 20 0 20 -40 0 -40 0 0 20 0 20 -40 0 -40 0 0 20 0
20 -40 0 -40 0 0 20 0 20 -40 0 -40 0 0 20 0 20 -40 0 -40 0 0 20 0 20 -40 0
-40 0 0 20 0 20 -20 0 -20 0 0 -20z m40 -40 l0 -20 40 0 40 0 0 -20 0 -20 40
0 40 0 0 -20 0 -20 40 0 40 0 0 -20 0 -20 40 0 40 0 0 -20 0 -20 40 0 40 0 0
-20 0 -20 40 0 40 0 0 -20 0 -20 20 0 20 0 0 -260 0 -260 -80 0 -80 0 0 20 0
20 20 0 20 0 0 20 0 20 20 0 20 0 0 20 0 20 -360 0 -360 0 0 20 0 20 280 0
280 0 0 20 0 20 80 0 80 0 0 -40 0 -40 20 0 20 0 0 60 0 60 -100 0 -100 0 0
60 0 60 -40 0 -40 0 0 100 0 100 -20 0 -20 0 0 -100 0 -100 -20 0 -20 0 0 60
0 60 -20 0 -20 0 0 -60 0 -60 -100 0 -100 0 0 -20 0 -20 -40 0 -40 0 0 -20 0
-20 -180 0 -180 0 0 -20 0 -20 180 0 180 0 0 -20 0 -20 -60 0 -60 0 0 -20 0
-20 -20 0 -20 0 0 -40 0 -40 20 0 20 0 0 -20 0 -20 20 0 20 0 0 -20 0 -20
-160 0 -160 0 0 260 0 260 40 0 40 0 0 20 0 20 40 0 40 0 0 20 0 20 40 0 40 0
0 20 0 20 40 0 40 0 0 20 0 20 40 0 40 0 0 20 0 20 40 0 40 0 0 20 0 20 40 0
40 0 0 20 0 20 20 0 20 0 0 -20z m240 -480 l0 -20 -20 0 -20 0 0 -20 0 -20
-180 0 -180 0 0 20 0 20 40 0 40 0 0 20 0 20 160 0 160 0 0 -20z m-440 -240
l0 -20 -20 0 -20 0 0 20 0 20 20 0 20 0 0 -20z m80 0 l0 -20 -20 0 -20 0 0 20
0 20 20 0 20 0 0 -20z m80 0 l0 -20 -20 0 -20 0 0 20 0 20 20 0 20 0 0 -20z
m80 0 l0 -20 -20 0 -20 0 0 20 0 20 20 0 20 0 0 -20z m80 0 l0 -20 -20 0 -20
0 0 20 0 20 20 0 20 0 0 -20z m80 0 l0 -20 -20 0 -20 0 0 20 0 20 20 0 20 0 0
-20z m120 0 l0 -20 -40 0 -40 0 0 20 0 20 40 0 40 0 0 -20z m200 -140 l0 -40
-40 0 -40 0 0 -20 0 -20 -20 0 -20 0 0 20 0 20 -20 0 -20 0 0 -40 0 -40 -40 0
-40 0 0 -20 0 -20 -20 0 -20 0 0 20 0 20 -20 0 -20 0 0 -40 0 -40 -40 0 -40 0
0 -20 0 -20 -20 0 -20 0 0 20 0 20 -20 0 -20 0 0 -40 0 -40 -60 0 -60 0 0 40
0 40 -20 0 -20 0 0 -20 0 -20 -20 0 -20 0 0 20 0 20 -40 0 -40 0 0 40 0 40
-20 0 -20 0 0 -20 0 -20 -20 0 -20 0 0 20 0 20 -40 0 -40 0 0 40 0 40 -20 0
-20 0 0 -20 0 -20 -20 0 -20 0 0 20 0 20 -40 0 -40 0 0 20 0 20 -20 0 -20 0 0
20 0 20 560 0 560 0 0 -40z"/>
<path d="M200 300 l0 -20 20 0 20 0 0 20 0 20 -20 0 -20 0 0 -20z"/>
<path d="M280 300 l0 -20 20 0 20 0 0 -20 0 -20 20 0 20 0 0 -20 0 -20 20 0
20 0 0 20 0 20 20 0 20 0 0 -20 0 -20 20 0 20 0 0 -20 0 -20 20 0 20 0 0 -20
0 -20 20 0 20 0 0 20 0 20 20 0 20 0 0 -20 0 -20 20 0 20 0 0 -20 0 -20 20 0
20 0 0 20 0 20 20 0 20 0 0 20 0 20 20 0 20 0 0 -20 0 -20 20 0 20 0 0 20 0
20 20 0 20 0 0 20 0 20 20 0 20 0 0 20 0 20 20 0 20 0 0 -20 0 -20 20 0 20 0
0 20 0 20 20 0 20 0 0 20 0 20 20 0 20 0 0 20 0 20 -20 0 -20 0 0 -20 0 -20
-20 0 -20 0 0 20 0 20 -20 0 -20 0 0 -20 0 -20 -20 0 -20 0 0 20 0 20 -20 0
-20 0 0 -20 0 -20 -20 0 -20 0 0 20 0 20 -20 0 -20 0 0 -20 0 -20 -20 0 -20 0
0 20 0 20 -20 0 -20 0 0 -20 0 -20 -20 0 -20 0 0 20 0 20 -20 0 -20 0 0 -20 0
-20 -20 0 -20 0 0 20 0 20 -20 0 -20 0 0 -20 0 -20 -20 0 -20 0 0 20 0 20 -20
0 -20 0 0 -20 0 -20 -20 0 -20 0 0 20 0 20 -20 0 -20 0 0 -20 0 -20 -20 0 -20
0 0 20 0 20 -20 0 -20 0 0 -20z m120 -40 l0 -20 -20 0 -20 0 0 20 0 20 20 0
20 0 0 -20z m80 0 l0 -20 20 0 20 0 0 20 0 20 20 0 20 0 0 -20 0 -20 20 0 20
0 0 20 0 20 20 0 20 0 0 -20 0 -20 20 0 20 0 0 20 0 20 20 0 20 0 0 -20 0 -20
20 0 20 0 0 20 0 20 20 0 20 0 0 -20 0 -20 20 0 20 0 0 20 0 20 20 0 20 0 0
-20 0 -20 -20 0 -20 0 0 -20 0 -20 -20 0 -20 0 0 -20 0 -20 -20 0 -20 0 0 20
0 20 -20 0 -20 0 0 -20 0 -20 -20 0 -20 0 0 -20 0 -20 -20 0 -20 0 0 20 0 20
-20 0 -20 0 0 20 0 20 -20 0 -20 0 0 -20 0 -20 -20 0 -20 0 0 20 0 20 -20 0
-20 0 0 20 0 20 -20 0 -20 0 0 20 0 20 20 0 20 0 0 -20z m480 0 l0 -20 -20 0
-20 0 0 20 0 20 20 0 20 0 0 -20z"/>
<path d="M520 220 l0 -20 20 0 20 0 0 20 0 20 -20 0 -20 0 0 -20z"/>
<path d="M600 220 l0 -20 20 0 20 0 0 -20 0 -20 20 0 20 0 0 20 0 20 20 0 20
0 0 20 0 20 -20 0 -20 0 0 -20 0 -20 -20 0 -20 0 0 20 0 20 -20 0 -20 0 0 -20z"/>
<path d="M760 220 l0 -20 20 0 20 0 0 20 0 20 -20 0 -20 0 0 -20z"/>
<path d="M1080 300 l0 -20 20 0 20 0 0 20 0 20 -20 0 -20 0 0 -20z"/>
</g>
</svg>
