<?xml version="1.0" standalone="no"?>
<!DOCTYPE svg PUBLIC "-//W3C//DTD SVG 20010904//EN"
 "http://www.w3.org/TR/2001/REC-SVG-20010904/DTD/svg10.dtd">
<svg version="1.0" xmlns="http://www.w3.org/2000/svg"
 width="468pt" height="468pt" viewBox="0 0 468 468"
 preserveAspectRatio="xMidYMid meet">
<metadata>
Created by potrace 1.8, written by Peter Selinger 2001-2007
</metadata>
<g transform="translate(0,468) scale(0.365625,-0.365625)"
fill="#000000" stroke="none">
<path d="M720 1255 l0 -25 -295 0 -295 0 0 -15 0 -15 -10 0 -10 0 0 -15 0 -15
-15 0 -15 0 0 -10 0 -10 -15 0 -15 0 0 -15 0 -15 -10 0 -10 0 0 -15 0 -15 -15
0 -15 0 0 -10 0 -10 15 0 15 0 0 10 0 10 10 0 10 0 0 -130 0 -130 30 0 30 0 0
-15 0 -15 10 0 10 0 0 -15 0 -15 26 0 25 0 15 -14 14 -15 0 -10 0 -11 270 0
270 0 0 -11 0 -10 14 -15 15 -14 10 0 11 0 0 25 0 25 -15 0 -15 0 0 11 0 10
-14 15 -15 14 -24 0 -25 0 -6 -12 -6 -13 -6 13 -6 12 -14 0 -14 0 0 -10 0 -10
-15 0 -15 0 0 105 0 105 -80 0 -80 0 0 -105 0 -105 -39 0 -39 0 -6 13 -6 12
-6 -12 -6 -13 -14 0 -14 0 0 10 0 10 -25 0 -25 0 0 -10 0 -10 -15 0 -15 0 0
10 0 10 -15 0 -15 0 0 15 0 15 -25 0 -25 0 0 15 0 15 -15 0 -15 0 0 10 0 10
-25 0 -25 0 0 135 0 135 15 0 15 0 0 -15 0 -15 10 0 10 0 0 15 0 15 -10 0 -10
0 0 15 0 15 10 0 10 0 0 25 0 25 15 0 15 0 0 -25 0 -25 15 0 15 0 0 -15 0 -15
-15 0 -15 0 0 -15 0 -15 25 0 25 0 0 -10 0 -10 15 0 15 0 0 -15 0 -15 15 0 15
0 0 -15 0 -15 -15 0 -15 0 0 -10 0 -10 15 0 15 0 0 10 0 10 25 0 25 0 0 -10 0
-10 15 0 15 0 0 10 0 10 25 0 25 0 0 -10 0 -10 14 0 14 0 6 13 6 12 6 -12 6
-13 14 0 14 0 0 10 0 10 135 0 135 0 0 -10 0 -10 10 0 10 0 0 25 0 25 -25 0
-25 0 0 15 0 15 -15 0 -15 0 0 -15 0 -15 -25 0 -25 0 0 15 0 15 15 0 15 0 0
10 0 10 -15 0 -15 0 0 -10 0 -10 -15 0 -15 0 0 -15 0 -15 -40 0 -40 0 0 15 0
15 -10 0 -10 0 0 -15 0 -15 -30 0 -30 0 0 15 0 15 15 0 15 0 0 10 0 10 -11 0
-10 0 -15 -14 -14 -15 0 -10 0 -11 -40 0 -40 0 0 15 0 15 -15 0 -15 0 0 -15 0
-15 -25 0 -25 0 0 15 0 15 10 0 10 0 0 10 0 10 -25 0 -25 0 0 15 0 15 -15 0
-15 0 0 15 0 15 15 0 15 0 0 10 0 10 15 0 15 0 0 15 0 15 40 0 40 0 0 -15 0
-15 10 0 10 0 0 15 0 15 30 0 30 0 0 -15 0 -15 -15 0 -15 0 0 -10 0 -10 11 0
10 0 15 14 14 15 0 10 0 11 40 0 40 0 0 -15 0 -15 15 0 15 0 0 15 0 15 25 0
25 0 0 -14 0 -14 -12 -5 -13 -4 9 -9 9 -9 4 13 5 12 14 0 14 0 0 15 0 15 40 0
40 0 0 -40 0 -40 -15 0 -15 0 0 -15 0 -15 15 0 15 0 0 15 0 15 25 0 25 0 0
-14 0 -14 -12 -5 -13 -4 9 -9 9 -9 4 13 5 12 29 0 29 0 0 -10 0 -10 -15 0 -15
0 0 -15 0 -15 15 0 15 0 0 14 0 14 13 6 12 6 -12 6 -13 6 0 14 0 14 10 0 10 0
0 15 0 15 15 0 15 0 0 10 0 10 -15 0 -15 0 0 -10 0 -10 -10 0 -10 0 0 25 0 25
40 0 40 0 0 -15 0 -15 10 0 10 0 0 15 0 15 30 0 30 0 0 -15 0 -15 -15 0 -15 0
0 -10 0 -10 11 0 10 0 15 14 14 15 0 10 0 11 40 0 40 0 0 -15 0 -15 15 0 15 0
0 15 0 15 15 0 15 0 0 -25 0 -25 10 0 10 0 0 -15 0 -15 -10 0 -10 0 0 -15 0
-15 -15 0 -15 0 0 -10 0 -10 11 0 10 0 15 14 14 15 0 10 0 11 15 0 15 0 0 -25
0 -25 15 0 15 0 0 -15 0 -15 -15 0 -15 0 0 15 0 15 -15 0 -15 0 0 -15 0 -15
-40 0 -40 0 0 15 0 15 -10 0 -10 0 0 -15 0 -15 -15 0 -15 0 0 -15 0 -15 25 0
25 0 0 -10 0 -10 -25 0 -25 0 0 -15 0 -15 -25 0 -25 0 0 14 0 14 13 5 12 4 -9
9 -9 9 -4 -12 -5 -13 -14 0 -14 0 0 -15 0 -15 -40 0 -40 0 0 15 0 15 -15 0
-15 0 0 -15 0 -15 -25 0 -25 0 0 15 0 15 15 0 15 0 0 10 0 10 -15 0 -15 0 0
-10 0 -10 -15 0 -15 0 0 -30 0 -30 40 0 40 0 0 -10 0 -10 -10 0 -10 0 0 -15 0
-15 10 0 10 0 0 15 0 15 15 0 15 0 0 10 0 10 14 0 14 0 6 -12 6 -13 6 13 6 12
54 0 54 0 0 -10 0 -10 15 0 15 0 0 10 0 10 10 0 10 0 0 -130 0 -130 -10 0 -10
0 0 10 0 10 -15 0 -15 0 0 -10 0 -10 -14 0 -14 0 -6 13 -6 12 -6 -12 -6 -13
-14 0 -14 0 0 10 0 10 -25 0 -25 0 0 -10 0 -10 -29 0 -29 0 -6 13 -6 12 -6
-12 -6 -13 -14 0 -14 0 0 -15 0 -15 -400 0 -400 0 0 -320 0 -320 640 0 640 0
0 320 0 320 -80 0 -80 0 0 145 0 145 15 0 15 0 0 15 0 15 -15 0 -15 0 0 25 0
25 14 0 14 0 6 -12 6 -13 6 13 6 12 14 0 14 0 0 -25 0 -25 -15 0 -15 0 0 -15
0 -15 15 0 15 0 0 -50 0 -50 -15 0 -15 0 0 -15 0 -15 15 0 15 0 0 -25 0 -25
-15 0 -15 0 0 10 0 10 -10 0 -10 0 0 -25 0 -25 40 0 40 0 0 145 0 145 25 0 25
0 0 15 0 15 -15 0 -15 0 0 25 0 25 -10 0 -10 0 0 15 0 15 -15 0 -15 0 0 25 0
25 -15 0 -15 0 0 15 0 15 -10 0 -10 0 0 15 0 15 -160 0 -160 0 0 25 0 25 -55
0 -55 0 0 -25z m80 -55 l0 -50 -11 0 -10 0 -15 14 -14 15 0 35 0 36 25 0 25 0
0 -50z m-560 -15 l0 -15 -25 0 -25 0 0 15 0 15 25 0 25 0 0 -15z m350 -345 l0
-90 -55 0 -55 0 0 90 0 90 55 0 55 0 0 -90z"/>
<path d="M510 840 l0 -10 10 0 10 0 0 10 0 10 -10 0 -10 0 0 -10z"/>
<path d="M283 1155 l-13 -14 0 -11 0 -10 10 0 10 0 0 15 0 15 15 0 15 0 0 10
0 10 -12 0 -13 -1 -12 -14z"/>
<path d="M480 1160 l0 -10 -15 0 -15 0 0 -15 0 -15 15 0 15 0 0 15 0 15 15 0
15 0 0 10 0 10 -15 0 -15 0 0 -10z"/>
<path d="M670 1160 l0 -10 -15 0 -15 0 0 -15 0 -15 15 0 15 0 0 15 0 15 10 0
10 0 0 10 0 10 -10 0 -10 0 0 -10z"/>
<path d="M1040 1160 l0 -10 -15 0 -15 0 0 -15 0 -15 15 0 15 0 0 15 0 15 15 0
15 0 0 10 0 10 -15 0 -15 0 0 -10z"/>
<path d="M350 1135 l0 -15 -15 0 -15 0 0 -15 0 -15 15 0 15 0 0 15 0 15 10 0
10 0 0 15 0 15 -10 0 -10 0 0 -15z"/>
<path d="M530 1135 l0 -15 -10 0 -10 0 0 -15 0 -15 10 0 10 0 0 15 0 15 15 0
15 0 0 15 0 15 -15 0 -15 0 0 -15z"/>
<path d="M910 1135 l0 -15 -15 0 -15 0 0 -15 0 -15 15 0 15 0 0 15 0 15 10 0
10 0 0 15 0 15 -10 0 -10 0 0 -15z"/>
<path d="M1090 1135 l0 -15 -10 0 -10 0 0 -15 0 -15 10 0 10 0 0 15 0 15 15 0
15 0 0 15 0 15 -15 0 -15 0 0 -15z"/>
<path d="M400 1105 l0 -15 -15 0 -15 0 0 -10 0 -10 15 0 15 0 0 10 0 10 15 0
15 0 0 15 0 15 -15 0 -15 0 0 -15z"/>
<path d="M590 1105 l0 -15 -15 0 -15 0 0 -10 0 -10 11 0 10 0 15 14 14 15 0
10 0 11 -10 0 -10 0 0 -15z"/>
<path d="M960 1105 l0 -15 -15 0 -15 0 0 -10 0 -10 15 0 15 0 0 10 0 10 15 0
15 0 0 15 0 15 -15 0 -15 0 0 -15z"/>
<path d="M1003 1075 l-13 -14 0 -11 0 -10 10 0 10 0 0 15 0 15 15 0 15 0 0 10
0 10 -12 0 -13 -1 -12 -14z"/>
<path d="M130 1055 l0 -15 -10 0 -10 0 0 -80 0 -80 25 0 25 0 0 15 0 15 -15 0
-15 0 0 10 0 10 15 0 15 0 0 15 0 15 -15 0 -15 0 0 15 0 15 15 0 15 0 0 10 0
10 -15 0 -15 0 0 15 0 15 15 0 15 0 0 -15 0 -15 15 0 15 0 0 -10 0 -10 -15 0
-15 0 0 -15 0 -15 15 0 15 0 0 -15 0 -15 -15 0 -15 0 0 -10 0 -10 15 0 15 0 0
-15 0 -15 -15 0 -15 0 0 -15 0 -15 15 0 15 0 0 -10 0 -10 10 0 10 0 0 105 0
105 -10 0 -10 0 0 15 0 15 -30 0 -30 0 0 -15z"/>
<path d="M880 1055 l0 -15 -15 0 -15 0 0 -15 0 -15 15 0 15 0 0 15 0 15 15 0
15 0 0 15 0 15 -15 0 -15 0 0 -15z"/>
<path d="M930 1026 l0 -14 -12 -5 -13 -4 9 -9 9 -9 4 13 5 12 14 0 14 0 0 15
0 15 -15 0 -15 0 0 -14z"/>
<path d="M290 975 l0 -15 15 0 15 0 0 15 0 15 -15 0 -15 0 0 -15z"/>
<path d="M670 975 l0 -15 10 0 10 0 0 15 0 15 -10 0 -10 0 0 -15z"/>
<path d="M720 975 l0 -15 15 0 15 0 0 15 0 15 -15 0 -15 0 0 -15z"/>
<path d="M240 945 l0 -15 15 0 15 0 0 15 0 15 -15 0 -15 0 0 -15z"/>
<path d="M350 945 l0 -15 10 0 10 0 0 15 0 15 -10 0 -10 0 0 -15z"/>
<path d="M400 945 l0 -15 15 0 15 0 0 15 0 15 -15 0 -15 0 0 -15z"/>
<path d="M640 920 l0 -10 15 0 15 0 0 10 0 10 -15 0 -15 0 0 -10z"/>
<path d="M720 920 l0 -10 15 0 15 0 0 10 0 10 -15 0 -15 0 0 -10z"/>
<path d="M240 895 l0 -15 15 0 15 0 0 15 0 15 -15 0 -15 0 0 -15z"/>
<path d="M350 895 l0 -15 10 0 10 0 0 15 0 15 -10 0 -10 0 0 -15z"/>
<path d="M290 865 l0 -15 15 0 15 0 0 15 0 15 -15 0 -15 0 0 -15z"/>
<path d="M400 865 l0 -15 15 0 15 0 0 15 0 15 -15 0 -15 0 0 -15z"/>
<path d="M720 865 l0 -15 15 0 15 0 0 15 0 15 -15 0 -15 0 0 -15z"/>
<path d="M880 815 l0 -65 95 0 95 0 0 65 0 65 -95 0 -95 0 0 -65z m80 25 l0
-10 15 0 15 0 0 10 0 10 25 0 25 0 0 -10 0 -10 -25 0 -25 0 0 -15 0 -15 25 0
25 0 0 -15 0 -15 -25 0 -25 0 0 15 0 15 -15 0 -15 0 0 -15 0 -15 -25 0 -25 0
0 15 0 15 25 0 25 0 0 15 0 15 -25 0 -25 0 0 10 0 10 25 0 25 0 0 -10z"/>
<path d="M1150 865 l0 -15 10 0 10 0 0 15 0 15 -10 0 -10 0 0 -15z"/>
<path d="M240 840 l0 -10 15 0 15 0 0 10 0 10 -15 0 -15 0 0 -10z"/>
<path d="M670 840 l0 -10 10 0 10 0 0 10 0 10 -10 0 -10 0 0 -10z"/>
<path d="M830 840 l0 -10 10 0 10 0 0 10 0 10 -10 0 -10 0 0 -10z"/>
<path d="M350 815 l0 -15 10 0 10 0 0 15 0 15 -10 0 -10 0 0 -15z"/>
<path d="M720 815 l0 -15 15 0 15 0 0 15 0 15 -15 0 -15 0 0 -15z"/>
<path d="M240 785 l0 -15 15 0 15 0 0 15 0 15 -15 0 -15 0 0 -15z"/>
<path d="M400 785 l0 -15 15 0 15 0 0 15 0 15 -15 0 -15 0 0 -15z"/>
<path d="M830 785 l0 -15 10 0 10 0 0 15 0 15 -10 0 -10 0 0 -15z"/>
<path d="M830 735 l0 -15 10 0 10 0 0 15 0 15 -10 0 -10 0 0 -15z"/>
</g>
</svg>
