<?xml version="1.0" standalone="no"?>
<!DOCTYPE svg PUBLIC "-//W3C//DTD SVG 20010904//EN"
 "http://www.w3.org/TR/2001/REC-SVG-20010904/DTD/svg10.dtd">
<svg version="1.0" xmlns="http://www.w3.org/2000/svg"
 width="468pt" height="468pt" viewBox="0 0 468 468"
 preserveAspectRatio="xMidYMid meet">
<metadata>
Created by potrace 1.8, written by Peter Selinger 2001-2007
</metadata>
<g transform="translate(0,468) scale(0.365625,-0.365625)"
fill="#000000" stroke="none">
<path d="M760 1060 l0 -20 -20 0 -20 0 0 -20 0 -20 -20 0 -20 0 0 -20 0 -20
-300 0 -300 0 0 -20 0 -20 -20 0 -20 0 0 -120 0 -120 -20 0 -20 0 0 -40 0 -40
20 0 20 0 0 -60 0 -60 20 0 20 0 0 -20 0 -20 -20 0 -20 0 0 -180 0 -180 20 0
20 0 0 -20 0 -20 580 0 580 0 0 120 0 120 20 0 20 0 0 80 0 80 -20 0 -20 0 0
220 0 220 -20 0 -20 0 0 20 0 20 -20 0 -20 0 0 20 0 20 -20 0 -20 0 0 20 0 20
-20 0 -20 0 0 20 0 20 -20 0 -20 0 0 20 0 20 -140 0 -140 0 0 -20z m280 -40
l0 -20 20 0 20 0 0 -20 0 -20 -180 0 -180 0 0 20 0 20 20 0 20 0 0 20 0 20
140 0 140 0 0 -20z m120 -220 l0 -120 20 0 20 0 0 -20 0 -20 -20 0 -20 0 0 20
0 20 -20 0 -20 0 0 -40 0 -40 20 0 20 0 0 -40 0 -40 20 0 20 0 0 -60 0 -60 20
0 20 0 0 -60 0 -60 -20 0 -20 0 0 -20 0 -20 -60 0 -60 0 0 20 0 20 60 0 60 0
0 60 0 60 -20 0 -20 0 0 60 0 60 -20 0 -20 0 0 20 0 20 -100 0 -100 0 0 -20 0
-20 20 0 20 0 0 -40 0 -40 20 0 20 0 0 -100 0 -100 -20 0 -20 0 0 80 0 80 -60
0 -60 0 0 -20 0 -20 -20 0 -20 0 0 20 0 20 -20 0 -20 0 0 -80 0 -80 -20 0 -20
0 0 60 0 60 -20 0 -20 0 0 20 0 20 -20 0 -20 0 0 40 0 40 -20 0 -20 0 0 40 0
40 -40 0 -40 0 0 -20 0 -20 20 0 20 0 0 -20 0 -20 -20 0 -20 0 0 20 0 20 -20
0 -20 0 0 -20 0 -20 -20 0 -20 0 0 20 0 20 -20 0 -20 0 0 -40 0 -40 20 0 20 0
0 -40 0 -40 20 0 20 0 0 -80 0 -80 -20 0 -20 0 0 60 0 60 -20 0 -20 0 0 -60 0
-60 -20 0 -20 0 0 60 0 60 -20 0 -20 0 0 -40 0 -40 -20 0 -20 0 0 20 0 20 -20
0 -20 0 0 40 0 40 -20 0 -20 0 0 -20 0 -20 -20 0 -20 0 0 -60 0 -60 20 0 20 0
0 20 0 20 20 0 20 0 0 -20 0 -20 -20 0 -20 0 0 -20 0 -20 220 0 220 0 0 20 0
20 260 0 260 0 0 -40 0 -40 -540 0 -540 0 0 140 0 140 20 0 20 0 0 20 0 20 20
0 20 0 0 40 0 40 -20 0 -20 0 0 -20 0 -20 -20 0 -20 0 0 20 0 20 20 0 20 0 0
40 0 40 -40 0 -40 0 0 20 0 20 40 0 40 0 0 20 0 20 -20 0 -20 0 0 120 0 120
540 0 540 0 0 -120z m-80 -300 l0 -20 -20 0 -20 0 0 20 0 20 20 0 20 0 0 -20z
m-520 -80 l0 -20 -20 0 -20 0 0 20 0 20 20 0 20 0 0 -20z m520 0 l0 -20 -20 0
-20 0 0 20 0 20 20 0 20 0 0 -20z m-440 -80 l0 -20 -20 0 -20 0 0 -20 0 -20
-20 0 -20 0 0 20 0 20 20 0 20 0 0 20 0 20 20 0 20 0 0 -20z m280 0 l0 -20
-20 0 -20 0 0 20 0 20 20 0 20 0 0 -20z m200 0 l0 -20 -20 0 -20 0 0 20 0 20
20 0 20 0 0 -20z m-280 -40 l0 -20 -20 0 -20 0 0 20 0 20 20 0 20 0 0 -20z
m-160 -40 l0 -20 -20 0 -20 0 0 20 0 20 20 0 20 0 0 -20z m-80 -40 l0 -20 -20
0 -20 0 0 20 0 20 20 0 20 0 0 -20z"/>
<path d="M200 820 l0 -20 -20 0 -20 0 0 -20 0 -20 -20 0 -20 0 0 -40 0 -40 20
0 20 0 0 -60 0 -60 20 0 20 0 0 -40 0 -40 20 0 20 0 0 -40 0 -40 20 0 20 0 0
-40 0 -40 20 0 20 0 0 40 0 40 20 0 20 0 0 -40 0 -40 20 0 20 0 0 40 0 40 -20
0 -20 0 0 40 0 40 -20 0 -20 0 0 40 0 40 -20 0 -20 0 0 60 0 60 -20 0 -20 0 0
60 0 60 60 0 60 0 0 -40 0 -40 -20 0 -20 0 0 20 0 20 -20 0 -20 0 0 -20 0 -20
20 0 20 0 0 -20 0 -20 40 0 40 0 0 60 0 60 60 0 60 0 0 -20 0 -20 -40 0 -40 0
0 -20 0 -20 20 0 20 0 0 -20 0 -20 20 0 20 0 0 40 0 40 20 0 20 0 0 -40 0 -40
20 0 20 0 0 40 0 40 -20 0 -20 0 0 20 0 20 80 0 80 0 0 -40 0 -40 -20 0 -20 0
0 20 0 20 -20 0 -20 0 0 -40 0 -40 40 0 40 0 0 20 0 20 20 0 20 0 0 -20 0 -20
20 0 20 0 0 20 0 20 20 0 20 0 0 -20 0 -20 20 0 20 0 0 40 0 40 -40 0 -40 0 0
-20 0 -20 -20 0 -20 0 0 40 0 40 80 0 80 0 0 -20 0 -20 20 0 20 0 0 -20 0 -20
-20 0 -20 0 0 -20 0 -20 40 0 40 0 0 40 0 40 -20 0 -20 0 0 20 0 20 40 0 40 0
0 -40 0 -40 20 0 20 0 0 -20 0 -20 20 0 20 0 0 20 0 20 -20 0 -20 0 0 40 0 40
-20 0 -20 0 0 20 0 20 -420 0 -420 0 0 -20z m0 -120 l0 -20 20 0 20 0 0 -60 0
-60 20 0 20 0 0 -40 0 -40 20 0 20 0 0 -40 0 -40 -20 0 -20 0 0 40 0 40 -20 0
-20 0 0 40 0 40 -20 0 -20 0 0 60 0 60 -20 0 -20 0 0 20 0 20 20 0 20 0 0 -20z"/>
<path d="M320 620 l0 -20 320 0 320 0 0 20 0 20 -320 0 -320 0 0 -20z"/>
<path d="M1000 620 l0 -20 40 0 40 0 0 20 0 20 -40 0 -40 0 0 -20z"/>
<path d="M360 540 l0 -20 20 0 20 0 0 20 0 20 -20 0 -20 0 0 -20z"/>
<path d="M440 540 l0 -20 20 0 20 0 0 20 0 20 -20 0 -20 0 0 -20z"/>
<path d="M640 540 l0 -20 60 0 60 0 0 20 0 20 -60 0 -60 0 0 -20z"/>
<path d="M840 540 l0 -20 20 0 20 0 0 -20 0 -20 -40 0 -40 0 0 -20 0 -20 60 0
60 0 0 40 0 40 -20 0 -20 0 0 20 0 20 -20 0 -20 0 0 -20z"/>
<path d="M680 460 l0 -20 20 0 20 0 0 20 0 20 -20 0 -20 0 0 -20z"/>
<path d="M160 420 l0 -20 -20 0 -20 0 0 -40 0 -40 20 0 20 0 0 20 0 20 20 0
20 0 0 40 0 40 -20 0 -20 0 0 -20z"/>
</g>
</svg>
