<?xml version="1.0" standalone="no"?>
<!DOCTYPE svg PUBLIC "-//W3C//DTD SVG 20010904//EN"
 "http://www.w3.org/TR/2001/REC-SVG-20010904/DTD/svg10.dtd">
<svg version="1.0" xmlns="http://www.w3.org/2000/svg"
 width="468pt" height="468pt" viewBox="0 0 468 468"
 preserveAspectRatio="xMidYMid meet">
<metadata>
Created by potrace 1.8, written by Peter Selinger 2001-2007
</metadata>
<g transform="translate(0,468) scale(0.365625,-0.365625)"
fill="#000000" stroke="none">
<path d="M260 1120 l0 -30 -35 0 -35 0 0 -255 0 -255 -65 0 -65 0 0 -100 0
-100 35 0 35 0 0 -30 0 -30 -35 0 -35 0 0 -65 0 -65 35 0 35 0 0 -30 0 -30
480 0 480 0 0 30 0 30 30 0 30 0 0 65 0 65 -30 0 -30 0 0 30 0 30 30 0 30 0 0
100 0 100 -65 0 -65 0 0 255 0 255 -30 0 -30 0 0 30 0 30 -350 0 -350 0 0 -30z
m700 -285 l0 -255 -350 0 -350 0 0 255 0 255 350 0 350 0 0 -255z m130 -390
l0 -65 -35 0 -35 0 0 35 0 35 -415 0 -415 0 0 -35 0 -35 -30 0 -30 0 0 65 0
65 480 0 480 0 0 -65z m-130 -95 l0 -30 30 0 30 0 0 -30 0 -30 35 0 35 0 0
-35 0 -35 -35 0 -35 0 0 35 0 35 -30 0 -30 0 0 -35 0 -35 -30 0 -30 0 0 35 0
35 -35 0 -35 0 0 -35 0 -35 -30 0 -30 0 0 35 0 35 -35 0 -35 0 0 -35 0 -35
-30 0 -30 0 0 35 0 35 -30 0 -30 0 0 -35 0 -35 -35 0 -35 0 0 35 0 35 -30 0
-30 0 0 -35 0 -35 -35 0 -35 0 0 35 0 35 -30 0 -30 0 0 -35 0 -35 -30 0 -30 0
0 35 0 35 -35 0 -35 0 0 -35 0 -35 -30 0 -30 0 0 35 0 35 30 0 30 0 0 30 0 30
35 0 35 0 0 30 0 30 350 0 350 0 0 -30z"/>
<path d="M320 830 l0 -190 290 0 290 0 0 190 0 190 -290 0 -290 0 0 -190z
m510 100 l0 -30 -30 0 -30 0 0 -35 0 -35 30 0 30 0 0 -30 0 -30 -30 0 -30 0 0
-35 0 -35 -35 0 -35 0 0 35 0 35 -30 0 -30 0 0 -35 0 -35 -30 0 -30 0 0 35 0
35 -35 0 -35 0 0 -35 0 -35 -65 0 -65 0 0 130 0 130 225 0 225 0 0 -30z"/>
<path d="M580 800 l0 -30 30 0 30 0 0 30 0 30 -30 0 -30 0 0 -30z"/>
<path d="M700 800 l0 -30 35 0 35 0 0 30 0 30 -35 0 -35 0 0 -30z"/>
<path d="M260 290 l0 -30 30 0 30 0 0 30 0 30 -30 0 -30 0 0 -30z"/>
<path d="M380 290 l0 -30 35 0 35 0 0 30 0 30 -35 0 -35 0 0 -30z"/>
<path d="M510 290 l0 -30 35 0 35 0 0 30 0 30 -35 0 -35 0 0 -30z"/>
<path d="M640 290 l0 -30 30 0 30 0 0 30 0 30 -30 0 -30 0 0 -30z"/>
<path d="M770 290 l0 -30 30 0 30 0 0 30 0 30 -30 0 -30 0 0 -30z"/>
<path d="M900 290 l0 -30 30 0 30 0 0 30 0 30 -30 0 -30 0 0 -30z"/>
</g>
</svg>
