<?xml version="1.0" standalone="no"?>
<!DOCTYPE svg PUBLIC "-//W3C//DTD SVG 20010904//EN"
 "http://www.w3.org/TR/2001/REC-SVG-20010904/DTD/svg10.dtd">
<svg version="1.0" xmlns="http://www.w3.org/2000/svg"
 width="468pt" height="468pt" viewBox="0 0 468 468"
 preserveAspectRatio="xMidYMid meet">
<metadata>
Created by potrace 1.8, written by Peter Selinger 2001-2007
</metadata>
<g transform="translate(0,468) scale(0.365625,-0.365625)"
fill="#000000" stroke="none">
<path d="M1250 1269 l0 -10 -14 -15 -15 -14 -25 0 -26 0 0 -15 0 -15 -10 0
-10 0 0 -15 0 -15 10 0 10 0 0 15 0 15 30 0 30 0 0 -15 0 -15 -15 0 -15 0 0
-10 0 -10 -15 0 -15 0 0 -15 0 -15 -10 0 -10 0 0 -15 0 -15 25 0 25 0 0 -10 0
-10 15 0 15 0 0 -15 0 -15 10 0 10 0 0 15 0 15 15 0 15 0 0 10 0 10 -15 0 -15
0 0 15 0 15 15 0 15 0 0 15 0 15 -25 0 -25 0 0 10 0 10 10 0 10 0 0 15 0 15
15 0 15 0 0 15 0 15 -15 0 -15 0 0 -15 0 -15 -10 0 -10 0 0 11 0 10 14 15 15
14 10 0 11 0 0 15 0 15 -15 0 -15 0 0 -11z m-20 -148 l0 -29 13 -5 12 -4 -9
-9 -9 -9 -4 13 -5 12 -14 0 -14 0 0 30 0 30 15 0 15 0 0 -29z"/>
<path d="M1090 1185 l0 -15 15 0 15 0 0 15 0 15 -15 0 -15 0 0 -15z"/>
<path d="M1040 1160 l0 -10 -40 0 -40 0 0 -15 0 -15 -40 0 -40 0 0 -15 0 -15
-25 0 -25 0 0 -25 0 -25 -30 0 -30 0 0 -25 0 -25 -10 0 -10 0 0 10 0 10 -30 0
-30 0 0 -10 0 -10 15 0 15 0 0 -15 0 -15 -25 0 -25 0 0 -15 0 -15 -15 0 -15 0
0 -10 0 -10 -15 0 -15 0 0 10 0 10 -145 0 -145 0 0 15 0 15 -15 0 -15 0 0 15
0 15 -40 0 -40 0 0 -15 0 -15 -10 0 -10 0 0 -15 0 -15 -15 0 -15 0 0 -40 0
-40 11 0 10 0 15 -14 14 -15 0 -10 0 -11 40 0 40 0 0 15 0 15 15 0 15 0 0 10
0 10 40 0 40 0 0 -50 0 -50 -25 0 -25 0 0 -15 0 -15 -40 0 -40 0 0 -15 0 -15
-26 0 -25 0 -15 -14 -14 -15 0 -25 0 -26 -26 0 -25 0 -15 -14 -14 -15 0 -10 0
-11 -15 0 -15 0 0 -15 0 -15 -11 0 -10 0 -15 -14 -14 -15 0 -25 0 -26 -15 0
-15 0 0 -105 0 -105 15 0 15 0 0 -11 0 -10 14 -15 15 -14 10 0 11 0 0 -15 0
-15 15 0 15 0 0 -15 0 -15 40 0 40 0 0 -25 0 -25 10 0 10 0 0 -15 0 -15 30 0
30 0 0 -10 0 -10 40 0 40 0 0 -15 0 -15 90 0 90 0 0 15 0 15 40 0 40 0 0 10 0
10 30 0 30 0 0 15 0 15 10 0 10 0 0 291 0 290 -14 15 -15 14 -25 0 -26 0 0 15
0 15 -40 0 -40 0 0 15 0 15 -25 0 -25 0 0 50 0 50 65 0 65 0 0 15 0 15 30 0
30 0 0 -25 0 -25 10 0 10 0 0 -15 0 -15 15 0 15 0 0 15 0 15 15 0 15 0 0 -15
0 -15 10 0 10 0 0 -15 0 -15 40 0 40 0 0 15 0 15 15 0 15 0 0 -15 0 -15 11 0
10 0 15 -14 14 -15 0 -10 0 -11 30 0 30 0 0 -15 0 -15 25 0 25 0 0 15 0 15
-15 0 -15 0 0 15 0 15 40 0 40 0 0 -15 0 -15 15 0 15 0 0 -15 0 -15 11 0 10 0
15 -14 14 -15 0 -10 0 -11 40 0 40 0 0 -15 0 -15 15 0 15 0 0 15 0 15 -15 0
-15 0 0 25 0 25 15 0 15 0 0 15 0 15 -15 0 -15 0 0 15 0 15 15 0 15 0 0 10 0
10 -15 0 -15 0 0 15 0 15 15 0 15 0 0 15 0 15 -15 0 -15 0 0 -15 0 -15 -10 0
-10 0 0 15 0 15 -15 0 -15 0 0 -15 0 -15 -15 0 -15 0 0 15 0 15 -10 0 -10 0 0
-15 0 -15 -15 0 -15 0 0 15 0 15 -25 0 -25 0 0 10 0 10 -15 0 -15 0 0 -10 0
-10 -11 0 -10 0 -15 14 -14 15 0 10 0 11 -15 0 -15 0 0 25 0 25 15 0 15 0 0
15 0 15 40 0 40 0 0 -40 0 -40 25 0 25 0 0 15 0 15 -15 0 -15 0 0 25 0 25 -10
0 -10 0 0 15 0 15 -55 0 -55 0 0 -15 0 -15 -15 0 -15 0 0 -14 0 -14 -12 -6
-13 -6 13 -6 12 -6 0 -25 0 -24 -14 -15 -15 -14 -10 0 -11 0 0 25 0 25 15 0
15 0 0 15 0 15 -15 0 -15 0 0 10 0 10 -15 0 -15 0 0 -10 0 -10 15 0 15 0 0
-15 0 -15 -15 0 -15 0 0 15 0 15 -25 0 -25 0 0 -15 0 -15 -15 0 -15 0 0 -15 0
-15 15 0 15 0 0 15 0 15 25 0 25 0 0 -15 0 -15 -10 0 -10 0 0 -25 0 -25 -15 0
-15 0 0 15 0 15 -15 0 -15 0 0 10 0 10 -25 0 -25 0 0 -10 0 -10 -15 0 -15 0 0
10 0 10 15 0 15 0 0 15 0 15 15 0 15 0 0 15 0 15 -15 0 -15 0 0 -15 0 -15 -25
0 -25 0 0 11 0 10 14 15 15 14 25 0 26 0 0 15 0 15 10 0 10 0 0 -15 0 -15 40
0 40 0 0 15 0 15 15 0 15 0 0 15 0 15 15 0 15 0 0 -15 0 -15 10 0 10 0 0 15 0
15 15 0 15 0 0 10 0 10 25 0 25 0 0 40 0 40 15 0 15 0 0 -25 0 -25 15 0 15 0
0 11 0 10 14 15 15 14 10 0 11 0 0 15 0 15 15 0 15 0 0 15 0 15 -30 0 -30 0 0
-15 0 -15 -25 0 -25 0 0 15 0 15 15 0 15 0 0 10 0 10 -15 0 -15 0 0 -10z m-80
-80 l0 -10 -15 0 -15 0 0 -15 0 -15 -10 0 -10 0 0 25 0 25 25 0 25 0 0 -10z
m-80 -40 l0 -30 -14 0 -14 0 -5 -12 -4 -13 -9 9 -9 9 13 4 12 5 0 29 0 29 15
0 15 0 0 -30z m-590 -95 l0 -15 15 0 15 0 0 -40 0 -40 -15 0 -15 0 0 -10 0
-10 -36 0 -35 0 -15 14 -14 15 0 35 0 36 10 0 10 0 0 15 0 15 40 0 40 0 0 -15z
m320 -50 l0 -15 -80 0 -80 0 0 -120 0 -120 -10 0 -10 0 0 120 0 120 -40 0 -40
0 0 15 0 15 130 0 130 0 0 -15z m350 -110 l0 -15 15 0 15 0 0 -10 0 -10 -15 0
-15 0 0 10 0 10 -15 0 -15 0 0 15 0 15 15 0 15 0 0 -15z m110 0 l0 -15 -15 0
-15 0 0 15 0 15 15 0 15 0 0 -15z m100 0 l0 -15 15 0 15 0 0 15 0 15 15 0 15
0 0 -25 0 -25 -15 0 -15 0 0 -15 0 -15 -15 0 -15 0 0 25 0 25 -10 0 -10 0 0
-25 0 -25 10 0 10 0 0 -15 0 -15 15 0 15 0 0 15 0 15 25 0 25 0 0 -11 0 -10
-14 -15 -15 -14 -21 0 -21 0 -15 14 -14 15 0 10 0 11 -15 0 -15 0 0 25 0 25
15 0 15 0 0 15 0 15 10 0 10 0 0 -15z m-770 -105 l0 -40 15 0 15 0 0 -15 0
-15 10 0 10 0 0 15 0 15 15 0 15 0 0 40 0 40 25 0 25 0 0 -15 0 -15 40 0 40 0
0 -10 0 -10 30 0 30 0 0 -15 0 -15 -30 0 -30 0 0 -15 0 -15 -40 0 -40 0 0 -10
0 -10 -90 0 -90 0 0 10 0 10 -40 0 -40 0 0 15 0 15 -30 0 -30 0 0 15 0 15 30
0 30 0 0 10 0 10 40 0 40 0 0 15 0 15 25 0 25 0 0 -40z m-130 -80 l0 -10 40 0
40 0 0 -15 0 -15 90 0 90 0 0 15 0 15 40 0 40 0 0 10 0 10 30 0 30 0 0 -265 0
-265 -30 0 -30 0 0 -15 0 -15 -40 0 -40 0 0 -10 0 -10 -90 0 -90 0 0 10 0 10
-40 0 -40 0 0 15 0 15 -30 0 -30 0 0 265 0 265 30 0 30 0 0 -10z m-80 -25 l0
-15 -15 0 -15 0 0 -15 0 -15 -11 0 -10 0 -15 -14 -14 -15 0 -10 0 -11 -15 0
-15 0 0 -25 0 -25 -15 0 -15 0 0 -80 0 -80 15 0 15 0 0 -15 0 -15 15 0 15 0 0
-11 0 -10 14 -15 15 -14 25 0 26 0 0 -15 0 -15 -40 0 -40 0 0 15 0 15 -15 0
-15 0 0 10 0 10 -15 0 -15 0 0 15 0 15 -10 0 -10 0 0 105 0 105 10 0 10 0 0
30 0 30 15 0 15 0 0 10 0 10 15 0 15 0 0 15 0 15 10 0 10 0 0 15 0 15 30 0 30
0 0 -15z m0 -205 l0 -160 -30 0 -30 0 0 15 0 15 -10 0 -10 0 0 15 0 15 -15 0
-15 0 0 80 0 80 15 0 15 0 0 25 0 25 10 0 10 0 0 15 0 15 15 0 15 0 0 10 0 10
15 0 15 0 0 -160z"/>
<path d="M1120 1025 l0 -15 -15 0 -15 0 0 -10 0 -10 15 0 15 0 0 10 0 10 15 0
15 0 0 15 0 15 -15 0 -15 0 0 -15z"/>
<path d="M1170 1025 l0 -15 15 0 15 0 0 -10 0 -10 -15 0 -15 0 0 -15 0 -15
-25 0 -25 0 0 -25 0 -25 15 0 15 0 0 -15 0 -15 10 0 10 0 0 15 0 15 30 0 30 0
0 -15 0 -15 10 0 10 0 0 -15 0 -15 15 0 15 0 0 15 0 15 -15 0 -15 0 0 15 0 15
-10 0 -10 0 0 10 0 10 25 0 25 0 0 15 0 15 -25 0 -25 0 0 -15 0 -15 -30 0 -30
0 0 15 0 15 15 0 15 0 0 15 0 15 40 0 40 0 0 10 0 10 -40 0 -40 0 0 15 0 15
-15 0 -15 0 0 -15z"/>
<path d="M880 945 l0 -15 15 0 15 0 0 15 0 15 -15 0 -15 0 0 -15z"/>
<path d="M1003 915 l-13 -14 0 -11 0 -10 25 0 25 0 0 25 0 25 -12 0 -13 -1
-12 -14z"/>
<path d="M880 735 l0 -15 15 0 15 0 0 15 0 15 -15 0 -15 0 0 -15z"/>
</g>
</svg>
