<?xml version="1.0" standalone="no"?>
<!DOCTYPE svg PUBLIC "-//W3C//DTD SVG 20010904//EN"
 "http://www.w3.org/TR/2001/REC-SVG-20010904/DTD/svg10.dtd">
<svg version="1.0" xmlns="http://www.w3.org/2000/svg"
 width="468pt" height="468pt" viewBox="0 0 468 468"
 preserveAspectRatio="xMidYMid meet">
<metadata>
Created by potrace 1.8, written by Peter Selinger 2001-2007
</metadata>
<g transform="translate(0,468) scale(0.365625,-0.365625)"
fill="#000000" stroke="none">
<path d="M260 1240 l0 -20 40 0 40 0 0 -60 0 -60 30 0 30 0 0 60 0 60 40 0 40
0 0 20 0 20 -110 0 -110 0 0 -20z"/>
<path d="M540 1180 l0 -80 30 0 30 0 0 30 0 30 50 0 50 0 0 -30 0 -30 30 0 30
0 0 80 0 80 -30 0 -30 0 0 -30 0 -30 -50 0 -50 0 0 30 0 30 -30 0 -30 0 0 -80z"/>
<path d="M820 1180 l0 -80 110 0 110 0 0 20 0 20 -80 0 -80 0 0 10 0 10 50 0
50 0 0 20 0 20 -50 0 -50 0 0 10 0 10 80 0 80 0 0 20 0 20 -110 0 -110 0 0
-80z"/>
<path d="M293 1065 l-13 -14 0 -15 0 -14 13 -5 12 -4 -9 -9 -9 -9 -4 13 -5 12
-9 0 -9 0 0 -19 0 -19 13 -5 12 -4 -9 -9 -9 -9 -4 13 -5 12 -9 0 -9 0 0 -19 0
-19 13 -5 12 -4 -9 -9 -9 -9 -4 13 -5 12 -9 0 -9 0 0 -19 0 -19 13 -5 12 -4
-9 -9 -9 -9 -4 13 -5 12 -9 0 -9 0 0 -19 0 -19 13 -5 12 -4 -9 -9 -9 -9 -4 13
-5 12 -9 0 -9 0 0 -19 0 -19 13 -5 12 -4 -9 -9 -9 -9 -4 13 -5 12 -9 0 -9 0 0
-19 0 -19 13 -5 12 -4 -9 -9 -9 -9 -4 13 -5 12 -9 0 -9 0 0 -19 0 -19 13 -5
12 -4 -9 -9 -9 -9 -4 13 -5 12 -9 0 -9 0 0 -19 0 -19 13 -5 12 -4 -9 -9 -9 -9
-4 13 -5 12 -9 0 -9 0 0 -19 0 -19 13 -5 12 -4 -9 -9 -9 -9 -4 13 -5 12 -9 0
-9 0 0 -19 0 -19 13 -5 12 -4 -9 -9 -9 -9 -4 13 -5 12 -9 0 -9 0 0 -19 0 -19
12 -5 13 -4 -9 -9 -9 -9 -4 13 -5 12 -9 0 -9 0 0 -19 0 -19 -12 -6 -13 -6 13
-6 12 -6 0 -19 0 -19 -9 0 -9 0 -5 13 -4 12 -9 -8 -8 -8 14 -10 15 -11 -12 -5
-13 -5 0 -9 0 -9 20 0 20 0 0 16 0 15 15 16 16 15 18 -21 18 -21 17 0 16 0 0
10 0 10 20 0 20 0 0 -10 0 -10 18 0 18 0 14 20 14 20 24 0 23 0 15 15 15 15
-15 15 -15 15 -15 0 -16 0 0 10 0 10 40 0 40 0 0 10 0 10 -40 0 -40 0 0 10 0
10 20 0 20 0 0 30 0 30 8 0 8 0 14 -20 14 -20 18 0 18 0 0 -10 0 -10 20 0 20
0 0 -10 0 -10 30 0 30 0 0 -10 0 -10 40 0 40 0 0 -10 0 -10 100 0 100 0 0 10
0 10 40 0 40 0 0 10 0 10 -40 0 -40 0 0 -10 0 -10 -60 0 -60 0 0 10 0 10 -20
0 -20 0 0 -10 0 -10 -16 0 -15 0 -15 15 -15 15 15 15 15 15 14 0 15 0 5 -12 5
-13 11 15 11 15 11 -15 11 -15 5 13 5 12 49 0 49 0 0 10 0 10 20 0 20 0 0 10
0 10 25 0 26 0 46 46 46 46 -13 8 -13 8 16 17 17 16 25 -25 25 -25 0 -22 0
-21 -31 -29 -32 -30 6 -5 6 -6 35 36 36 35 0 26 0 25 9 0 9 0 5 -12 4 -13 8 7
7 7 -17 17 -17 17 -8 -13 -8 -13 -56 56 -56 57 0 10 0 11 -25 24 -24 25 -26 0
-25 0 0 -10 0 -10 30 0 30 0 0 -9 0 -9 -12 -6 -13 -6 13 -6 12 -6 0 -9 0 -9
-19 0 -19 0 -5 13 -4 12 -20 -22 -20 -23 -12 0 -12 0 -16 -15 -15 -16 7 -7 8
-7 4 13 5 12 15 0 16 0 20 23 20 22 4 -12 5 -13 19 0 19 0 0 10 0 10 20 0 20
0 0 -58 0 -58 -20 -14 -20 -14 0 -18 0 -18 -30 0 -30 0 0 -10 0 -10 -29 0 -29
0 -5 -12 -5 -13 -12 15 -12 15 -5 -12 -5 -13 -15 0 -14 0 -16 16 -16 16 14 8
13 9 -6 7 -7 7 -30 -32 -29 -31 -6 0 -6 0 0 26 0 25 -15 16 -16 15 -7 -7 -7
-8 13 -4 12 -5 0 -19 0 -19 -10 0 -10 0 0 20 0 20 -10 0 -10 0 0 29 0 29 -12
5 -13 4 7 8 8 8 20 -23 20 -23 7 7 7 7 -14 9 -14 9 23 20 23 20 -15 16 -16 15
-11 0 -11 0 -26 26 -26 26 13 8 13 8 -18 19 -18 18 -5 -13 -4 -12 -15 0 -14 0
-15 -14 -14 -15 0 -25 0 -26 -20 0 -20 0 0 10 0 10 -20 0 -20 0 0 -10 0 -10
16 0 15 0 17 -17 17 -16 -13 -5 -12 -4 0 -18 0 -18 13 -6 12 -6 -12 -6 -13 -6
0 -9 0 -9 16 0 15 0 15 -14 14 -15 0 -5 0 -6 -20 0 -20 0 0 10 0 10 -16 0 -15
0 -15 14 -14 15 0 23 0 24 20 14 20 14 0 8 0 8 -19 0 -19 0 -6 -12 -6 -13 -6
13 -6 12 -19 0 -19 0 0 -9 0 -9 12 -4 13 -5 -17 -16 -17 -17 -15 0 -16 0 0 20
0 20 10 0 10 0 0 20 0 20 20 0 20 0 0 9 0 9 -12 6 -13 6 13 6 12 6 0 19 0 19
9 0 9 0 4 -12 5 -13 17 18 18 18 -7 7 -8 7 -4 -12 -5 -13 -9 0 -9 0 0 16 0 15
16 16 16 16 8 -14 9 -13 8 8 8 9 -12 4 -13 5 0 29 0 29 20 0 20 0 0 10 0 10
-37 0 -38 -1 -12 -14z m27 -15 l0 -10 -10 0 -10 0 0 10 0 10 10 0 10 0 0 -10z
m160 -119 l0 -9 -12 -5 -13 -4 44 -42 43 -42 -6 -7 -7 -6 -10 14 -9 15 -9 -14
-9 -14 -18 17 -17 18 13 8 13 8 -16 16 -16 16 -15 0 -16 0 0 10 0 10 20 0 20
0 0 10 0 10 10 0 10 0 0 -9z m400 -21 l0 -10 -10 0 -10 0 0 10 0 10 10 0 10 0
0 -10z m-440 -40 l0 -10 -10 0 -10 0 0 10 0 10 10 0 10 0 0 -10z m500 -40 l0
-10 -10 0 -10 0 0 10 0 10 10 0 10 0 0 -10z m-720 -60 l0 -10 20 0 20 0 0 10
0 10 20 0 20 0 0 -10 0 -10 -20 0 -20 0 0 -10 0 -10 -16 0 -15 0 -16 -15 -15
-16 7 -7 8 -7 4 13 5 12 19 0 19 0 0 -10 0 -10 -20 0 -20 0 0 -10 0 -10 -16 0
-15 0 -16 -16 -16 -16 14 -9 14 -9 -15 -11 -15 -11 13 -5 12 -5 0 -9 0 -9 -16
0 -15 0 -17 -17 -17 -16 13 -5 12 -4 0 -9 0 -9 -20 0 -20 0 0 -10 0 -10 16 0
15 0 17 17 17 16 -13 5 -12 4 0 9 0 9 16 0 15 0 17 17 17 16 -13 5 -12 4 0 9
0 9 20 0 20 0 0 10 0 10 -20 0 -20 0 0 10 0 10 20 0 20 0 0 -10 0 -10 10 0 10
0 0 16 0 17 23 20 22 20 -12 4 -13 5 0 9 0 9 20 0 20 0 0 -30 0 -30 -10 0 -10
0 0 -20 0 -20 -16 0 -15 0 -17 -17 -17 -16 13 -5 12 -4 0 -9 0 -9 -16 0 -15 0
-16 -16 -16 -16 14 -10 14 -10 -12 -5 -13 -5 0 -9 0 -9 16 0 15 0 16 16 16 16
-14 8 -13 9 8 8 9 8 4 -12 5 -13 19 0 19 0 0 -10 0 -10 -18 0 -18 0 -14 -20
-14 -20 -18 0 -18 0 0 10 0 10 -20 0 -20 0 0 -10 0 -10 -16 0 -15 0 -15 14
-14 15 0 15 0 16 10 0 10 0 0 20 0 20 10 0 10 0 0 20 0 20 10 0 10 0 0 20 0
20 10 0 10 0 0 20 0 20 10 0 10 0 0 20 0 20 10 0 10 0 0 20 0 20 10 0 10 0 0
-10z m240 -76 l0 -5 -14 -15 -15 -14 -14 0 -15 0 -5 -12 -4 -13 -8 7 -7 7 15
16 16 15 15 0 16 0 0 10 0 10 10 0 10 0 0 -6z m-100 -24 l0 -10 -10 0 -10 0 0
10 0 10 10 0 10 0 0 -10z m152 -12 l19 -22 9 14 9 14 7 -6 6 -7 -27 -26 -26
-27 -7 6 -6 7 14 9 14 9 -22 19 -22 19 0 7 0 6 6 0 7 0 19 -22z m128 12 l0
-10 -10 0 -10 0 0 10 0 10 10 0 10 0 0 -10z m-180 -40 l0 -10 -10 0 -10 0 0
10 0 10 10 0 10 0 0 -10z m-400 -100 l0 -10 -10 0 -10 0 0 10 0 10 10 0 10 0
0 -10z"/>
<path d="M480 850 l0 -10 10 0 10 0 0 10 0 10 -10 0 -10 0 0 -10z"/>
<path d="M400 1070 l0 -10 10 0 10 0 0 10 0 10 -10 0 -10 0 0 -10z"/>
<path d="M440 1070 l0 -10 40 0 40 0 0 10 0 10 -40 0 -40 0 0 -10z"/>
<path d="M540 1070 l0 -10 10 0 10 0 0 10 0 10 -10 0 -10 0 0 -10z"/>
<path d="M580 1070 l0 -10 20 0 20 0 0 10 0 10 -20 0 -20 0 0 -10z"/>
<path d="M640 1070 l0 -10 10 0 10 0 0 10 0 10 -10 0 -10 0 0 -10z"/>
<path d="M680 1070 l0 -10 10 0 10 0 0 10 0 10 -10 0 -10 0 0 -10z"/>
<path d="M720 1070 l0 -10 20 0 20 0 0 10 0 10 -20 0 -20 0 0 -10z"/>
<path d="M780 1070 l0 -10 10 0 10 0 0 10 0 10 -10 0 -10 0 0 -10z"/>
<path d="M820 1070 l0 -10 40 0 40 0 0 10 0 10 -40 0 -40 0 0 -10z"/>
<path d="M920 1070 l0 -10 40 0 40 0 0 -10 0 -10 -10 0 -10 0 0 -10 0 -10 20
0 20 0 0 -10 0 -10 -10 0 -10 0 0 -29 0 -29 -12 -5 -13 -4 9 -9 9 -9 4 13 5
12 9 0 9 0 0 -20 0 -20 10 0 10 0 0 -20 0 -20 10 0 10 0 0 -20 0 -20 10 0 10
0 0 -20 0 -20 10 0 10 0 0 -20 0 -20 10 0 10 0 0 -19 0 -19 -12 -5 -13 -4 9
-9 9 -9 4 13 5 12 9 0 9 0 0 -20 0 -20 10 0 10 0 0 -20 0 -20 10 0 10 0 0 -20
0 -20 10 0 10 0 0 -20 0 -20 10 0 10 0 0 -20 0 -20 10 0 10 0 0 -20 0 -20 10
0 10 0 0 -20 0 -20 -10 0 -10 0 0 10 0 10 -20 0 -20 0 0 -10 0 -10 -20 0 -20
0 0 10 0 10 -20 0 -20 0 0 -10 0 -10 -20 0 -20 0 0 10 0 10 -19 0 -19 0 -6
-12 -6 -13 -6 13 -6 12 -19 0 -19 0 0 -10 0 -10 -40 0 -40 0 0 10 0 10 -19 0
-19 0 -6 -12 -6 -13 -6 13 -6 12 -18 0 -18 0 -6 -12 -6 -13 -6 13 -6 12 -19 0
-19 0 0 -10 0 -10 -29 0 -29 0 -5 13 -5 12 -12 -15 -12 -15 -5 13 -5 12 -19 0
-19 0 0 -10 0 -10 -19 0 -19 0 -6 13 -6 12 -6 -12 -6 -13 -18 0 -18 0 -6 13
-6 12 -6 -12 -6 -13 -19 0 -19 0 0 10 0 10 -20 0 -20 0 0 -10 0 -10 -20 0 -20
0 0 10 0 10 -19 0 -19 0 -5 -12 -5 -13 -12 15 -12 15 -5 -12 -5 -13 -19 0 -19
0 0 10 0 10 -20 0 -20 0 0 -10 0 -10 -20 0 -20 0 0 10 0 10 -20 0 -20 0 0 -10
0 -10 -20 0 -20 0 0 10 0 10 -20 0 -20 0 0 -10 0 -10 -20 0 -20 0 0 -10 0 -10
640 0 640 0 0 39 0 39 -12 6 -13 6 13 6 12 6 0 19 0 19 -9 0 -9 0 -5 -12 -4
-13 -9 9 -9 9 13 4 12 5 0 19 0 19 -9 0 -9 0 -5 -12 -4 -13 -9 9 -9 9 13 4 12
5 0 19 0 19 -9 0 -9 0 -5 -12 -4 -13 -9 9 -9 9 13 4 12 5 0 19 0 19 -9 0 -9 0
-5 -12 -4 -13 -9 9 -9 9 13 4 12 5 0 19 0 19 -9 0 -9 0 -5 -12 -4 -13 -9 9 -9
9 13 4 12 5 0 19 0 19 -9 0 -9 0 -5 -12 -4 -13 -9 9 -9 9 13 4 12 5 0 19 0 19
-9 0 -9 0 -5 -12 -4 -13 -9 9 -9 9 13 4 12 5 0 19 0 19 -9 0 -9 0 -5 -12 -4
-13 -9 9 -9 9 13 4 12 5 0 19 0 19 -9 0 -9 0 -5 -12 -4 -13 -9 9 -9 9 13 4 12
5 0 19 0 19 -9 0 -9 0 -5 -12 -4 -13 -9 9 -9 9 13 4 12 5 0 19 0 19 -9 0 -9 0
-5 -12 -4 -13 -9 9 -9 9 13 4 12 5 0 19 0 19 -9 0 -9 0 -5 -12 -4 -13 -9 9 -9
9 13 4 12 5 0 19 0 19 -10 0 -10 0 0 16 0 15 -14 15 -15 14 -35 0 -36 0 0 -10z"/>
<path d="M380 1030 l0 -10 20 0 20 0 0 -6 0 -7 -22 -18 -21 -19 6 -6 6 -6 26
26 26 26 -15 15 -15 15 -15 0 -16 0 0 -10z"/>
<path d="M460 1031 l0 -9 13 -5 12 -5 -15 -11 -14 -10 6 -7 7 -6 26 27 27 26
-6 7 -7 6 -10 -14 -11 -15 -5 13 -5 12 -9 0 -9 0 0 -9z"/>
<path d="M560 1030 l0 -10 10 0 10 0 0 10 0 10 -10 0 -10 0 0 -10z"/>
<path d="M620 1030 l0 -10 10 0 10 0 0 10 0 10 -10 0 -10 0 0 -10z"/>
<path d="M791 1024 l-13 -15 7 -7 6 -6 9 14 9 14 22 -24 22 -25 4 13 5 12 19
0 19 0 0 -10 0 -10 30 0 30 0 0 10 0 10 -30 0 -30 0 0 10 0 10 10 0 10 0 0 10
0 10 -16 0 -17 0 -18 -22 -19 -21 -19 21 -18 22 -4 0 -4 -1 -14 -15z"/>
<path d="M560 990 l0 -10 -20 0 -20 0 0 -20 0 -20 8 0 8 0 14 20 14 20 88 0
88 0 0 -10 0 -10 20 0 20 0 0 10 0 10 -20 0 -20 0 0 10 0 10 -90 0 -90 0 0
-10z"/>
<path d="M900 950 l0 -10 30 0 30 0 0 10 0 10 -30 0 -30 0 0 -10z"/>
<path d="M340 910 l0 -10 10 0 10 0 0 10 0 10 -10 0 -10 0 0 -10z"/>
<path d="M940 910 l0 -10 10 0 10 0 0 10 0 10 -10 0 -10 0 0 -10z"/>
<path d="M980 890 l0 -10 10 0 10 0 0 10 0 10 -10 0 -10 0 0 -10z"/>
<path d="M613 845 l-13 -14 0 -15 0 -14 -12 -6 -13 -6 13 -6 12 -6 0 -29 0
-29 10 0 10 0 0 29 0 29 -12 4 -13 5 18 17 17 17 17 -16 16 -17 -13 -8 -13 -8
17 -17 17 -17 7 6 6 7 -14 9 -14 9 23 20 23 20 -15 16 -16 15 -15 0 -16 0 0
10 0 10 -7 0 -8 -1 -12 -14z"/>
<path d="M1000 830 l0 -10 10 0 10 0 0 10 0 10 -10 0 -10 0 0 -10z"/>
<path d="M1040 734 l0 -5 15 -16 16 -15 6 5 5 6 -15 16 -16 15 -5 0 -6 0 0 -6z"/>
<path d="M1030 660 l-14 -20 -18 0 -18 0 0 -10 0 -10 -18 0 -18 0 -14 20 -14
20 -8 0 -8 0 0 -20 0 -20 -20 0 -20 0 0 -10 0 -10 20 0 20 0 0 10 0 10 20 0
20 0 0 -10 0 -10 20 0 20 0 0 -10 0 -10 -40 0 -40 0 0 -10 0 -10 -19 0 -19 0
-6 -12 -6 -13 -6 13 -6 12 -17 0 -17 0 -14 -20 -14 -20 -18 0 -18 0 0 10 0 10
-20 0 -20 0 0 -10 0 -10 20 0 20 0 0 -10 0 -10 19 0 19 0 6 13 6 12 6 -12 6
-13 17 0 17 0 14 20 14 20 18 0 18 0 0 -10 0 -10 20 0 20 0 0 -20 0 -20 8 0 8
0 14 20 14 20 18 0 18 0 0 10 0 10 -20 0 -20 0 0 -10 0 -10 -20 0 -20 0 0 10
0 10 -20 0 -20 0 0 10 0 10 40 0 40 0 0 10 0 10 19 0 19 0 6 13 6 12 6 -12 6
-13 18 0 18 0 5 -12 4 -13 8 7 7 7 -15 16 -16 15 -11 0 -11 0 -16 15 -15 16
21 18 21 18 0 7 0 6 -8 0 -8 0 -14 -20z m-10 -50 l0 -10 -20 0 -20 0 0 10 0
10 20 0 20 0 0 -10z m-180 -80 l0 -10 -20 0 -20 0 0 10 0 10 20 0 20 0 0 -10z"/>
<path d="M1080 650 l0 -10 10 0 10 0 0 10 0 10 -10 0 -10 0 0 -10z"/>
<path d="M1120 630 l0 -10 10 0 10 0 0 10 0 10 -10 0 -10 0 0 -10z"/>
<path d="M1140 570 l0 -10 10 0 10 0 0 10 0 10 -10 0 -10 0 0 -10z"/>
<path d="M380 550 l0 -10 -20 0 -20 0 0 -10 0 -10 20 0 20 0 0 10 0 10 20 0
20 0 0 -10 0 -10 -16 0 -15 0 -15 -15 -15 -15 15 -15 15 -15 5 0 6 0 0 16 0
15 14 15 15 14 15 0 16 0 0 -9 0 -9 -12 -4 -13 -5 17 -16 17 -17 5 0 6 0 0 30
0 30 20 0 20 0 0 -9 0 -9 -12 -4 -13 -5 17 -16 17 -17 5 0 6 0 0 26 0 25 -14
15 -15 14 -14 0 -15 0 -6 13 -6 12 -6 -12 -6 -13 -19 0 -19 0 0 10 0 10 -20 0
-20 0 0 -10z m100 -20 l0 -10 -10 0 -10 0 0 10 0 10 10 0 10 0 0 -10z"/>
<path d="M620 530 l0 -10 -16 0 -15 0 -15 -15 -15 -15 15 -15 15 -15 15 0 16
0 0 9 0 9 -12 4 -13 5 17 16 17 17 15 0 16 0 0 -9 0 -9 -12 -5 -13 -4 7 -8 7
-7 16 16 16 16 -15 15 -15 15 -15 0 -16 0 0 -10z"/>
<path d="M1040 530 l0 -10 10 0 10 0 0 10 0 10 -10 0 -10 0 0 -10z"/>
<path d="M1080 510 l0 -10 10 0 10 0 0 10 0 10 -10 0 -10 0 0 -10z"/>
<path d="M900 490 l0 -10 10 0 10 0 0 10 0 10 -10 0 -10 0 0 -10z"/>
<path d="M1160 490 l0 -10 10 0 10 0 0 10 0 10 -10 0 -10 0 0 -10z"/>
<path d="M280 470 l0 -10 10 0 10 0 0 10 0 10 -10 0 -10 0 0 -10z"/>
<path d="M720 470 l0 -10 10 0 10 0 0 10 0 10 -10 0 -10 0 0 -10z"/>
<path d="M800 470 l0 -10 10 0 10 0 0 10 0 10 -10 0 -10 0 0 -10z"/>
<path d="M860 470 l0 -10 10 0 10 0 0 10 0 10 -10 0 -10 0 0 -10z"/>
<path d="M0 300 l0 -80 56 0 55 0 15 14 14 15 0 25 0 26 -20 0 -20 0 0 10 0
10 20 0 20 0 0 16 0 15 -14 15 -15 14 -55 0 -56 0 0 -80z m80 30 l0 -10 -20 0
-20 0 0 10 0 10 20 0 20 0 0 -10z m0 -60 l0 -10 -20 0 -20 0 0 10 0 10 20 0
20 0 0 -10z"/>
<path d="M180 325 l0 -56 25 -24 24 -25 51 0 51 0 24 25 25 24 0 56 0 55 -30
0 -30 0 0 -46 0 -45 -14 -15 -15 -14 -11 0 -11 0 -15 14 -14 15 0 45 0 46 -30
0 -30 0 0 -55z"/>
<path d="M420 360 l0 -20 30 0 30 0 0 -60 0 -60 30 0 30 0 0 60 0 60 30 0 30
0 0 20 0 20 -90 0 -90 0 0 -20z"/>
<path d="M640 360 l0 -20 30 0 30 0 0 -60 0 -60 30 0 30 0 0 60 0 60 30 0 30
0 0 20 0 20 -90 0 -90 0 0 -20z"/>
<path d="M883 355 l-23 -24 0 -31 0 -31 25 -24 24 -25 51 0 51 0 24 25 25 24
0 31 0 31 -25 24 -24 25 -53 -1 -53 0 -22 -24z m103 -29 l14 -15 0 -11 0 -11
-14 -15 -15 -14 -11 0 -11 0 -15 14 -14 15 0 11 0 11 13 14 12 14 13 1 13 0
15 -14z"/>
<path d="M1100 300 l0 -80 30 0 30 0 0 40 0 40 10 0 10 0 0 -15 0 -16 25 -24
24 -25 26 0 25 0 0 80 0 80 -20 0 -20 0 0 -40 0 -40 -10 0 -10 0 0 15 0 16
-25 24 -24 25 -36 0 -35 0 0 -80z"/>
<path d="M0 100 l0 -100 640 0 640 0 0 100 0 100 -640 0 -640 0 0 -100z"/>
</g>
</svg>
