<?xml version="1.0" standalone="no"?>
<!DOCTYPE svg PUBLIC "-//W3C//DTD SVG 20010904//EN"
 "http://www.w3.org/TR/2001/REC-SVG-20010904/DTD/svg10.dtd">
<svg version="1.0" xmlns="http://www.w3.org/2000/svg"
 width="468pt" height="468pt" viewBox="0 0 468 468"
 preserveAspectRatio="xMidYMid meet">
<metadata>
Created by potrace 1.8, written by Peter Selinger 2001-2007
</metadata>
<g transform="translate(0,468) scale(0.365625,-0.365625)"
fill="#000000" stroke="none">
<path d="M757 1108 l-48 -50 -7 7 -7 8 13 4 12 5 0 19 0 19 -9 0 -9 0 -5 -12
-5 -13 -11 15 -10 14 -8 -8 -8 -9 13 -4 12 -5 0 -9 0 -9 -18 0 -18 0 -14 20
-14 20 -13 0 -14 0 -44 -45 -45 -44 0 -16 0 -15 -10 0 -10 0 0 -30 0 -30 10 0
10 0 0 -15 0 -16 -27 -27 -27 -26 -4 12 -4 12 -38 0 -38 0 -4 -12 -5 -13 -16
17 -17 17 0 13 0 14 -20 14 -20 14 0 18 0 18 10 0 10 0 0 30 0 30 -16 0 -17 0
-18 -21 -19 -22 -29 32 -29 31 -26 0 -26 0 0 -19 0 -19 -12 -4 -13 -5 63 -61
62 -61 0 -41 0 -41 35 -34 34 -35 16 0 15 0 0 -6 0 -6 -30 -28 -30 -28 0 -12
0 -12 -40 -38 -40 -38 0 -16 0 -16 -10 0 -10 0 0 -20 0 -20 -10 0 -10 0 0 -26
0 -25 -14 -15 -15 -14 -15 0 -16 0 0 10 0 10 20 0 20 0 0 10 0 10 -15 0 -16 0
-24 -25 -25 -24 0 -16 0 -15 20 0 20 0 0 10 0 10 40 0 40 0 0 -30 0 -30 10 0
10 0 0 -20 0 -20 10 0 10 0 0 -10 0 -10 -36 0 -35 0 -15 -14 -14 -15 0 -11 0
-11 -14 -15 -15 -14 -35 0 -36 0 0 -100 0 -100 640 0 640 0 0 100 0 100 -350
0 -350 0 0 10 0 10 15 0 16 0 44 45 45 44 0 16 0 15 10 0 10 0 0 20 0 20 10 0
10 0 0 20 0 20 10 0 10 0 0 40 0 40 10 0 10 0 0 26 0 25 14 15 15 14 15 0 16
0 0 10 0 10 28 0 28 0 14 20 14 20 14 0 14 0 38 40 38 40 26 0 26 0 0 10 0 10
15 0 15 0 55 55 55 55 0 15 0 15 10 0 10 0 0 30 0 30 -9 0 -9 0 -6 -12 -6 -13
-6 13 -6 12 -19 0 -19 0 0 -18 0 -18 -20 -14 -20 -14 0 -18 0 -18 -40 0 -40 0
0 -10 0 -10 -30 0 -30 0 0 40 0 40 -10 0 -10 0 0 20 0 20 10 0 10 0 0 15 0 16
-25 24 -24 25 -26 0 -25 0 0 10 0 10 -20 0 -20 0 0 10 0 10 16 0 15 0 15 15
15 15 -35 35 -35 35 -13 -1 -13 0 -48 -51z m98 7 l25 -24 0 -6 0 -5 -20 0 -20
0 0 -10 0 -10 -20 0 -20 0 0 10 0 10 -20 0 -20 0 0 5 0 6 23 24 22 24 13 0 13
1 24 -25z m-225 -35 l14 -20 28 0 28 0 0 -9 0 -9 -12 -5 -13 -4 7 -8 8 -8 19
21 18 22 37 0 36 0 0 -10 0 -10 20 0 20 0 0 -10 0 -10 20 0 20 0 0 -10 0 -10
26 0 25 0 15 -14 14 -15 0 -15 0 -16 -46 0 -45 0 -15 14 -14 15 0 25 0 26 -19
0 -19 0 -5 13 -4 12 -8 -7 -8 -8 23 -20 23 -20 -8 -8 -8 -7 -4 13 -5 12 -9 0
-9 0 0 -20 0 -20 -10 0 -10 0 0 16 0 15 -15 15 -15 15 -15 -15 -15 -15 0 -25
0 -26 80 0 80 0 0 -10 0 -10 36 0 35 0 15 -14 14 -15 0 -41 0 -41 -37 -36 -37
-37 -4 12 -4 12 -9 0 -9 0 0 -16 0 -15 -14 -15 -15 -14 -11 0 -12 0 -30 -32
-30 -32 -8 14 -9 14 -8 -8 -8 -9 13 -4 12 -5 0 -9 0 -9 -19 0 -19 0 -5 13 -4
12 -8 -7 -7 -7 15 -16 16 -15 13 0 14 0 14 20 14 20 18 0 18 0 0 20 0 20 18 0
18 0 14 20 14 20 14 0 14 0 38 40 38 40 36 0 36 0 0 10 0 10 36 0 35 0 15 14
14 15 0 15 0 16 16 0 15 0 15 -15 15 -15 -15 -15 -15 -15 -15 0 -16 0 0 -16 0
-15 -14 -15 -15 -14 -15 0 -16 0 0 -10 0 -10 -26 0 -26 0 -38 -40 -38 -40 -14
0 -14 0 -14 -20 -14 -20 -28 0 -28 0 0 -10 0 -10 -19 0 -19 0 -5 -12 -4 -13
-9 8 -8 8 14 9 14 9 -6 7 -7 6 -16 -15 -15 -16 0 -45 0 -46 -10 0 -10 0 0 -40
0 -40 -10 0 -10 0 0 -20 0 -20 -10 0 -10 0 0 -20 0 -20 -10 0 -10 0 0 -15 0
-16 -35 -34 -34 -35 -16 0 -15 0 0 -10 0 -10 -20 0 -20 0 0 -10 0 -10 -70 0
-70 0 0 10 0 10 -20 0 -20 0 0 -10 0 -10 -89 0 -89 0 -6 13 -6 12 -6 -12 -6
-13 -29 0 -29 0 0 10 0 10 10 0 10 0 0 20 0 20 36 0 35 0 17 17 17 16 -13 5
-12 4 0 19 0 19 -10 0 -10 0 0 26 0 27 -22 20 -23 20 13 4 12 5 0 29 0 29 10
0 10 0 0 20 0 20 10 0 10 0 0 16 0 16 40 38 40 38 0 12 0 11 25 25 25 25 26
-27 27 -26 -14 -8 -13 -9 8 -8 9 -8 4 13 5 12 19 0 19 0 0 10 0 10 -16 0 -16
0 -38 40 -38 40 -12 0 -11 0 -24 25 -25 24 0 41 0 42 -40 38 -40 38 0 16 0 16
-10 0 -10 0 0 20 0 20 10 0 10 0 0 -20 0 -20 9 0 9 0 4 12 5 13 18 -18 18 -19
-14 -10 -14 -10 13 -5 12 -5 0 -19 0 -19 10 0 10 0 0 19 0 19 -12 4 -12 4 26
27 27 27 6 0 5 0 0 -20 0 -20 -10 0 -10 0 0 -18 0 -18 20 -14 20 -14 0 -14 0
-13 36 -35 35 -36 7 7 7 8 -12 4 -13 5 0 9 0 9 36 0 37 0 18 -22 19 -21 7 7 7
7 -13 9 -14 8 26 26 26 26 26 0 25 0 0 -10 0 -10 -10 0 -10 0 0 -30 0 -30 10
0 10 0 0 30 0 30 46 0 45 0 15 14 14 15 0 23 0 24 -20 14 -20 14 0 15 0 14
-22 19 -22 19 14 9 14 9 -6 7 -7 6 -17 -16 -16 -17 21 -18 21 -18 0 -14 0 -15
20 -14 20 -14 0 -28 0 -28 -50 0 -50 0 0 10 0 10 -16 0 -15 0 -15 14 -14 15 0
25 0 26 10 0 10 0 0 15 0 16 33 34 32 34 15 0 16 1 14 -20z m110 -90 l0 -10
-10 0 -10 0 0 10 0 10 10 0 10 0 0 -10z m466 -84 l14 -15 0 -5 0 -6 -20 0 -20
0 0 20 0 20 6 0 5 0 15 -14z m-1126 -496 l0 -10 -10 0 -10 0 0 10 0 10 10 0
10 0 0 -10z"/>
<path d="M800 1100 l0 -20 20 0 20 0 0 6 0 5 -14 15 -15 14 -5 0 -6 0 0 -20z"/>
<path d="M860 994 l0 -5 15 -16 16 -15 6 5 5 6 -15 16 -16 15 -5 0 -6 0 0 -6z"/>
<path d="M920 970 l0 -10 10 0 10 0 0 10 0 10 -10 0 -10 0 0 -10z"/>
<path d="M712 864 l-34 -35 6 -6 6 -6 20 22 19 23 16 -15 15 -16 0 -21 0 -21
14 -15 15 -14 21 0 21 0 15 14 14 15 0 15 0 16 15 0 16 0 26 26 25 25 -6 6 -6
6 -19 -21 -18 -22 -57 0 -56 0 0 10 0 10 -20 0 -20 0 0 10 0 10 10 0 10 0 0
10 0 10 -7 -1 -8 0 -33 -35z m128 -64 l0 -20 -20 0 -20 0 0 5 0 6 13 14 12 14
8 1 7 0 0 -20z"/>
<path d="M480 790 l0 -10 10 0 10 0 0 10 0 10 -10 0 -10 0 0 -10z"/>
<path d="M660 790 l0 -10 10 0 10 0 0 10 0 10 -10 0 -10 0 0 -10z"/>
<path d="M540 770 l0 -10 10 0 10 0 0 10 0 10 -10 0 -10 0 0 -10z"/>
<path d="M480 750 l0 -10 10 0 10 0 0 10 0 10 -10 0 -10 0 0 -10z"/>
<path d="M560 734 l0 -5 15 -16 16 -15 6 5 5 6 -15 16 -16 15 -5 0 -6 0 0 -6z"/>
<path d="M680 690 l0 -10 10 0 10 0 0 10 0 10 -10 0 -10 0 0 -10z"/>
<path d="M620 674 l0 -5 15 -16 16 -15 6 5 5 6 -15 16 -16 15 -5 0 -6 0 0 -6z"/>
<path d="M480 580 l0 -20 10 0 10 0 0 -20 0 -20 10 0 10 0 0 20 0 20 -10 0
-10 0 0 20 0 20 -10 0 -10 0 0 -20z"/>
<path d="M260 344 l0 -16 30 -28 30 -28 0 -6 0 -6 -40 0 -40 0 0 9 0 9 12 4
13 5 -18 17 -18 18 -7 -6 -6 -7 14 -10 15 -9 -14 -9 -14 -9 16 -16 16 -16 35
0 36 0 0 -10 0 -10 20 0 20 0 0 10 0 10 -20 0 -20 0 0 9 0 9 13 5 12 4 -32 30
-33 31 0 16 0 16 -10 0 -10 0 0 -16z"/>
<path d="M553 325 l-13 -14 0 -16 0 -15 16 0 15 0 15 15 15 15 -15 15 -15 15
-3 0 -3 -1 -12 -14z m27 -15 l0 -10 -10 0 -10 0 0 10 0 10 10 0 10 0 0 -10z"/>
</g>
</svg>
