<?xml version="1.0" standalone="no"?>
<!DOCTYPE svg PUBLIC "-//W3C//DTD SVG 20010904//EN"
 "http://www.w3.org/TR/2001/REC-SVG-20010904/DTD/svg10.dtd">
<svg version="1.0" xmlns="http://www.w3.org/2000/svg"
 width="468pt" height="468pt" viewBox="0 0 468 468"
 preserveAspectRatio="xMidYMid meet">
<metadata>
Created by potrace 1.8, written by Peter Selinger 2001-2007
</metadata>
<g transform="translate(0,468) scale(0.365625,-0.365625)"
fill="#000000" stroke="none">
<path d="M0 640 l0 -640 15 0 15 0 0 625 0 625 610 0 610 0 0 -625 0 -625 15
0 15 0 0 640 0 640 -640 0 -640 0 0 -640z"/>
<path d="M130 1165 l0 -15 -15 0 -15 0 0 -95 0 -95 15 0 15 0 0 -15 0 -15 65
0 65 0 0 -15 0 -15 15 0 15 0 0 15 0 15 -15 0 -15 0 0 15 0 15 15 0 15 0 0 95
0 95 -15 0 -15 0 0 15 0 15 -65 0 -65 0 0 -15z m130 -95 l0 -80 -20 0 -20 0 0
15 0 15 -15 0 -15 0 0 -15 0 -15 15 0 15 0 0 -15 0 -15 -45 0 -45 0 0 95 0 95
65 0 65 0 0 -80z"/>
<path d="M190 845 l0 -15 -15 0 -15 0 0 -15 0 -15 15 0 15 0 0 -15 0 -15 -15
0 -15 0 0 15 0 15 -15 0 -15 0 0 -15 0 -15 -15 0 -15 0 0 -15 0 -15 15 0 15 0
0 -20 0 -20 15 0 15 0 0 20 0 20 15 0 15 0 0 -35 0 -35 -15 0 -15 0 0 -15 0
-15 50 0 50 0 0 15 0 15 -20 0 -20 0 0 35 0 35 20 0 20 0 0 -20 0 -20 15 0 15
0 0 20 0 20 15 0 15 0 0 15 0 15 -15 0 -15 0 0 15 0 15 -15 0 -15 0 0 15 0 15
-20 0 -20 0 0 15 0 15 -15 0 -15 0 0 -15z m70 -60 l0 -15 -20 0 -20 0 0 15 0
15 20 0 20 0 0 -15z"/>
<path d="M420 670 l0 -30 -20 0 -20 0 0 -240 0 -240 -15 0 -15 0 0 -15 0 -15
-30 0 -30 0 0 -15 0 -15 15 0 15 0 0 -20 0 -20 65 0 65 0 0 20 0 20 30 0 30 0
0 -20 0 -20 35 0 35 0 0 -15 0 -15 45 0 45 0 0 15 0 15 35 0 35 0 0 20 0 20
30 0 30 0 0 -20 0 -20 65 0 65 0 0 20 0 20 15 0 15 0 0 15 0 15 -30 0 -30 0 0
15 0 15 -20 0 -20 0 0 240 0 240 -15 0 -15 0 0 30 0 30 -15 0 -15 0 0 -30 0
-30 -15 0 -15 0 0 -30 0 -30 -15 0 -15 0 0 30 0 30 -20 0 -20 0 0 30 0 30 -15
0 -15 0 0 -30 0 -30 -15 0 -15 0 0 -30 0 -30 -15 0 -15 0 0 30 0 30 -15 0 -15
0 0 30 0 30 -20 0 -20 0 0 -30 0 -30 -15 0 -15 0 0 -30 0 -30 -15 0 -15 0 0
30 0 30 -15 0 -15 0 0 30 0 30 -15 0 -15 0 0 -30z m30 -60 l0 -30 15 0 15 0 0
-20 0 -20 15 0 15 0 0 20 0 20 15 0 15 0 0 30 0 30 20 0 20 0 0 -30 0 -30 15
0 15 0 0 -20 0 -20 15 0 15 0 0 20 0 20 15 0 15 0 0 30 0 30 15 0 15 0 0 -30
0 -30 20 0 20 0 0 -20 0 -20 15 0 15 0 0 20 0 20 15 0 15 0 0 30 0 30 15 0 15
0 0 -65 0 -65 -205 0 -205 0 0 65 0 65 15 0 15 0 0 -30z m350 -260 l0 -130
-15 0 -15 0 0 -30 0 -30 -15 0 -15 0 0 -30 0 -30 -35 0 -35 0 0 -20 0 -20 -45
0 -45 0 0 20 0 20 -35 0 -35 0 0 30 0 30 -15 0 -15 0 0 30 0 30 -15 0 -15 0 0
130 0 130 175 0 175 0 0 -130z"/>
<path d="M480 400 l0 -20 50 0 50 0 0 20 0 20 -50 0 -50 0 0 -20z"/>
<path d="M670 400 l0 -20 50 0 50 0 0 20 0 20 -50 0 -50 0 0 -20z"/>
<path d="M610 335 l0 -45 -15 0 -15 0 0 -15 0 -15 45 0 45 0 0 15 0 15 -15 0
-15 0 0 45 0 45 -15 0 -15 0 0 -45z"/>
<path d="M540 190 l0 -30 80 0 80 0 0 30 0 30 -15 0 -15 0 0 -15 0 -15 -45 0
-45 0 0 15 0 15 -20 0 -20 0 0 -30z"/>
</g>
</svg>
