<?xml version="1.0" standalone="no"?>
<!DOCTYPE svg PUBLIC "-//W3C//DTD SVG 20010904//EN"
 "http://www.w3.org/TR/2001/REC-SVG-20010904/DTD/svg10.dtd">
<svg version="1.0" xmlns="http://www.w3.org/2000/svg"
 width="468pt" height="468pt" viewBox="0 0 468 468"
 preserveAspectRatio="xMidYMid meet">
<metadata>
Created by potrace 1.8, written by Peter Selinger 2001-2007
</metadata>
<g transform="translate(0,468) scale(0.365625,-0.365625)"
fill="#000000" stroke="none">
<path d="M313 1165 l-13 -14 0 -36 0 -35 10 0 10 0 0 -15 0 -16 70 -69 70 -69
0 -6 0 -5 -26 0 -25 0 -15 -14 -14 -15 0 -35 0 -36 10 0 10 0 0 -18 0 -18 -20
-14 -20 -14 0 -38 0 -38 10 0 10 0 0 -19 0 -19 13 -6 12 -6 -12 -6 -13 -6 0
-29 0 -29 10 0 10 0 0 -15 0 -15 55 -55 55 -55 13 0 13 0 14 -20 14 -20 28 0
28 0 0 -10 0 -10 30 0 30 0 0 -10 0 -10 30 0 30 0 0 -10 0 -10 18 0 18 0 14
-20 14 -20 18 0 18 0 0 -20 0 -20 20 0 20 0 0 5 0 6 -35 34 -34 35 -13 0 -14
0 -14 20 -14 20 -28 0 -28 0 0 10 0 10 -30 0 -30 0 0 10 0 10 -35 0 -36 0 -25
25 -26 26 21 18 21 18 0 23 0 23 -21 18 -22 19 32 29 31 29 0 16 0 16 -10 0
-10 0 0 10 0 10 20 0 20 0 0 10 0 10 20 0 20 0 0 10 0 10 30 0 30 0 0 10 0 10
30 0 30 0 0 -20 0 -20 10 0 10 0 0 16 0 15 -14 15 -15 14 -35 0 -36 0 0 -10 0
-10 -20 0 -20 0 0 -10 0 -10 -40 0 -40 0 0 -10 0 -10 -36 0 -35 0 -15 14 -14
15 0 5 0 6 35 0 36 0 34 35 35 34 0 11 0 11 14 15 15 14 25 0 26 0 0 10 0 10
50 0 50 0 0 -10 0 -10 15 0 15 0 55 -55 55 -55 0 -15 0 -15 10 0 10 0 0 -89 0
-89 -12 -5 -13 -4 9 -9 9 -9 4 13 5 12 9 0 9 0 0 -16 0 -15 60 -59 60 -59 0
-11 0 -12 40 -38 40 -38 0 -12 0 -11 14 -15 15 -14 15 0 16 0 0 6 0 5 -50 49
-50 49 0 11 0 12 -40 38 -40 38 0 12 0 12 -30 28 -30 28 0 16 0 16 -10 0 -10
0 0 90 0 90 -10 0 -10 0 0 15 0 15 -55 55 -55 55 -15 0 -15 0 0 10 0 10 -46 0
-46 0 -38 40 -38 40 -12 0 -11 0 -109 110 -109 110 -33 0 -33 -1 -12 -14z
m167 -115 l109 -110 11 0 11 0 34 -35 35 -34 0 -6 0 -5 -30 0 -30 0 0 -10 0
-10 -19 0 -19 0 -4 -12 -5 -13 -16 17 -17 17 0 14 0 15 -12 5 -13 4 24 22 24
21 -8 8 -8 7 -4 -12 -5 -13 -39 0 -39 0 0 18 0 18 -20 14 -20 14 0 17 0 17 13
5 12 4 -9 9 -9 9 -4 -12 -5 -13 -14 0 -15 0 -24 25 -25 24 0 16 0 15 -10 0
-10 0 0 15 0 16 13 14 12 14 13 1 13 0 109 -110z m15 -175 l25 -24 0 -16 0
-15 10 0 10 0 0 -10 0 -10 -20 0 -20 0 0 -10 0 -10 -16 0 -15 0 -15 -14 -14
-15 0 -21 0 -22 30 -28 30 -28 0 -16 0 -16 -10 0 -10 0 0 -20 0 -20 -5 0 -6 0
-34 35 -35 34 0 16 0 15 -10 0 -10 0 0 30 0 30 16 0 15 0 16 15 15 16 -21 18
-21 18 0 22 0 22 14 15 15 14 15 0 16 0 0 10 0 10 5 0 6 0 24 -25z m85 -80 l0
-6 -25 -24 -24 -25 -36 0 -35 0 0 10 0 10 20 0 20 0 0 10 0 10 30 0 30 0 0 10
0 10 10 0 10 0 0 -5z m-34 -149 l14 -15 0 -11 0 -11 -14 -15 -15 -14 -15 0
-16 0 0 20 0 20 10 0 10 0 0 20 0 20 6 0 5 0 15 -14z m-96 -66 l14 -20 18 0
18 0 0 -10 0 -10 -10 0 -10 0 0 -16 0 -15 -14 -15 -15 -14 -5 0 -6 0 0 18 0
18 -20 14 -20 14 0 28 0 28 18 0 18 0 14 -20z m90 -90 l0 -30 -30 0 -30 0 0
15 0 16 13 14 12 14 18 1 17 0 0 -30z"/>
<path d="M680 670 l0 -10 10 0 10 0 0 10 0 10 -10 0 -10 0 0 -10z"/>
<path d="M680 600 l0 -40 10 0 10 0 0 -16 0 -15 14 -15 15 -14 15 0 16 0 0
-10 0 -10 40 0 40 0 0 10 0 10 -30 0 -30 0 0 10 0 10 -16 0 -15 0 -15 14 -14
15 0 15 0 16 -10 0 -10 0 0 30 0 30 -10 0 -10 0 0 -40z"/>
<path d="M600 490 l0 -10 10 0 10 0 0 10 0 10 -10 0 -10 0 0 -10z"/>
<path d="M640 495 l0 -6 26 -26 25 -25 6 5 5 6 -25 25 -26 26 -6 0 -5 0 0 -5z"/>
<path d="M860 490 l0 -10 10 0 10 0 0 10 0 10 -10 0 -10 0 0 -10z"/>
<path d="M0 100 l0 -100 640 0 640 0 0 100 0 100 -640 0 -640 0 0 -100z"/>
</g>
</svg>
