<?xml version="1.0" standalone="no"?>
<!DOCTYPE svg PUBLIC "-//W3C//DTD SVG 20010904//EN"
 "http://www.w3.org/TR/2001/REC-SVG-20010904/DTD/svg10.dtd">
<svg version="1.0" xmlns="http://www.w3.org/2000/svg"
 width="468pt" height="468pt" viewBox="0 0 468 468"
 preserveAspectRatio="xMidYMid meet">
<metadata>
Created by potrace 1.8, written by Peter Selinger 2001-2007
</metadata>
<g transform="translate(0,468) scale(0.365625,-0.365625)"
fill="#000000" stroke="none">
<path d="M428 1273 l-38 -4 0 -9 0 -8 -60 -7 -60 -7 0 -8 0 -7 -40 -7 -40 -6
0 -9 0 -9 -25 -6 -25 -6 -55 -56 -55 -56 0 -13 0 -13 -12 -5 -13 -4 0 -112 0
-112 11 -7 10 -7 6 -16 6 -16 150 2 150 2 -6 -16 -6 -16 18 18 17 17 15 0 14
0 1 13 1 12 0 20 -1 20 5 -17 5 -18 14 0 13 0 -4 67 -4 66 21 20 21 20 -6 27
-5 28 49 4 50 3 10 -3 10 -4 0 -9 0 -9 -45 0 -45 0 0 -16 0 -17 -25 -23 -25
-23 0 -26 0 -25 9 0 9 0 6 -25 6 -25 30 0 30 0 0 10 0 10 -13 0 -13 0 -17 20
-17 20 0 20 0 20 19 19 19 19 24 7 23 8 8 11 7 11 10 -15 10 -15 0 13 0 12 35
0 35 0 0 15 0 15 12 0 11 0 -7 7 -8 8 -14 -19 -14 -20 0 10 0 10 20 22 20 21
0 11 0 10 -6 0 -7 0 -14 -17 -14 -18 4 23 5 22 -14 14 -14 15 0 10 0 11 60 0
60 0 0 -14 0 -14 -12 -4 -12 -4 23 -23 23 -23 8 12 8 13 -5 14 -5 13 -8 0 -7
0 -6 30 -6 30 -11 0 -10 0 0 -10 0 -10 -39 0 -39 0 -5 13 -5 12 -11 -15 -11
-15 0 18 0 18 -12 -2 -13 -1 -17 1 -18 1 0 15 0 15 14 0 14 0 6 16 6 16 -19
-5 -20 -5 6 14 5 14 13 0 13 0 6 -12 6 -13 6 12 6 13 16 -16 16 -16 11 16 12
16 12 0 11 0 0 -9 0 -9 14 -5 15 -6 -6 15 -5 14 15 0 15 0 6 -15 6 -16 -20
-16 -20 -17 0 -11 0 -10 9 13 8 13 34 4 34 5 3 10 4 10 14 0 14 0 0 -16 0 -16
-13 5 -14 5 -14 -9 -14 -9 15 -10 15 -11 -30 6 -30 5 13 -6 12 -6 0 -14 0 -13
15 5 15 6 0 -15 0 -16 -17 -3 -17 -3 18 -17 17 -18 -10 0 -11 0 0 -14 0 -14
13 -5 12 -4 -9 -9 -9 -9 -4 13 -5 12 -14 0 -14 0 0 -10 0 -11 -14 13 -14 13
12 8 11 7 -14 9 -14 9 -14 -5 -13 -5 0 -54 0 -54 -50 0 -50 0 0 -15 0 -15 10
0 10 0 0 10 0 10 34 0 34 0 4 -12 5 -13 -4 -12 -5 -13 -30 0 -29 0 -17 16 -16
17 -4 -12 -4 -12 21 -20 21 -20 0 11 0 10 19 0 19 0 4 -12 4 -12 22 22 22 22
0 10 0 10 -10 0 -10 0 0 11 0 10 15 15 15 15 0 -9 0 -10 24 -6 24 -6 16 6 16
6 0 14 0 14 -45 0 -45 0 0 10 0 10 20 1 20 2 31 1 31 1 11 -8 12 -9 -12 -5
-13 -5 0 -15 0 -16 25 -23 25 -23 0 -26 0 -25 15 0 15 0 0 -15 0 -15 -10 0 -9
0 -10 17 -9 18 -5 -5 -5 -5 -6 -25 -6 -25 6 13 6 12 14 0 14 0 0 -10 0 -11
-15 -5 -15 -6 0 -9 0 -9 15 0 15 0 0 15 0 15 10 0 10 0 0 -15 0 -15 -12 0 -13
0 15 -10 14 -9 -8 -8 -9 -8 -4 13 -5 12 -14 0 -14 0 0 -10 0 -10 -20 0 -20 0
0 15 0 15 15 0 15 0 0 10 0 10 -24 0 -24 0 -5 -22 -6 -22 19 -19 20 -18 0 -19
0 -20 -14 0 -14 0 -4 -12 -5 -13 -82 -3 -82 -4 -55 7 -54 6 0 10 0 9 15 0 15
0 0 35 0 34 -15 -5 -15 -6 0 -9 0 -9 10 0 10 0 0 -15 0 -15 -9 0 -10 0 -4 13
-4 12 2 -17 3 -18 -14 0 -14 0 0 16 0 17 27 25 28 25 -13 5 -12 4 0 14 0 14
-20 0 -20 0 0 -10 0 -10 15 0 15 0 0 -15 0 -15 -25 0 -25 0 0 10 0 10 -15 0
-15 0 -1 -12 -1 -13 0 -20 1 -20 -5 18 -5 17 -10 0 -9 0 0 -25 0 -25 15 0 15
0 0 -15 0 -16 -17 -6 -18 -7 -6 -8 -6 -9 -56 -3 -57 -4 -26 25 -27 25 14 10
14 10 -15 -5 -15 -4 -1 -22 -1 -23 -14 -9 -14 -9 12 0 12 0 10 18 11 17 9 -15
10 -15 -17 -7 -17 -6 44 1 44 2 4 -12 5 -13 -49 -1 -48 -1 18 -5 17 -4 0 -10
0 -9 -52 -1 -53 -1 18 -5 17 -4 0 -9 0 -8 -22 -6 -23 -6 -37 0 -38 0 0 -10 0
-10 -15 0 -15 0 0 -260 0 -260 640 0 640 0 0 260 0 260 -20 0 -20 0 0 10 0 10
-37 0 -38 0 -22 6 -23 6 0 8 0 9 18 4 17 5 -57 1 -58 1 0 9 0 10 18 4 17 5
-47 1 -48 1 0 10 0 10 17 0 16 0 -5 5 -4 5 -44 5 -44 6 -6 8 -5 8 -22 7 -23 7
0 15 0 14 15 0 15 0 0 25 0 25 15 0 15 0 -4 -29 -3 -29 8 -14 9 -13 9 14 9 14
-5 14 -5 13 -10 0 -9 0 17 18 18 17 78 0 79 0 8 14 9 13 3 -11 4 -11 30 -4 31
-4 27 5 27 5 0 13 0 13 13 4 12 5 0 113 0 113 -12 4 -13 5 0 13 0 13 -55 56
-55 56 -25 6 -25 6 0 9 0 9 -40 6 -40 7 0 7 0 8 -62 7 -63 7 -7 11 -7 11 -203
2 -203 2 -37 -5z m336 -38 l-6 -15 -9 0 -9 0 0 9 0 9 13 5 12 5 2 1 2 1 -5
-15z m-254 -5 l11 15 -7 -28 -6 -28 21 -6 21 -5 0 -9 0 -9 -15 0 -15 0 0 -16
0 -17 25 -23 25 -23 0 -21 0 -20 -9 0 -9 0 -7 31 -7 30 -14 -5 -14 -5 0 14 0
15 -14 0 -15 0 2 -27 2 -28 23 -1 23 -1 6 -7 6 -6 -7 -7 -7 -7 -8 13 -9 13 -4
-13 -4 -13 -23 23 -23 23 12 8 12 8 -13 5 -14 5 15 11 15 11 -12 0 -13 0 0 11
0 10 15 15 15 15 0 -10 0 -11 15 0 15 0 0 9 0 9 -25 6 -26 7 -9 -6 -10 -6 0
-15 0 -14 -10 0 -11 0 -5 15 -6 15 -8 0 -9 0 -3 -15 -3 -14 -14 8 -13 9 20 20
20 20 24 6 23 6 -12 -6 -13 -6 0 -14 0 -14 8 0 8 0 17 20 17 20 0 13 0 12 10
-15 10 -15 10 15z m348 -29 l4 -12 -21 -6 -21 -5 0 -9 0 -9 15 0 15 0 0 10 0
10 15 0 16 0 5 15 6 15 9 0 10 0 20 -19 21 -19 -7 -11 -6 -11 -10 0 -9 0 0 15
0 15 -20 0 -20 0 0 -10 0 -10 18 0 17 0 -15 -10 -15 -10 14 -9 14 -9 16 6 16
6 7 10 7 10 8 -8 8 -8 -18 -9 -17 -10 0 -14 0 -15 -10 0 -10 0 0 -10 0 -10 11
0 10 0 13 13 13 12 6 15 5 15 1 -27 1 -28 -17 -1 -18 -1 18 -5 17 -4 0 -10 0
-9 -14 0 -14 0 -5 -20 -5 -20 14 0 14 0 0 -10 0 -10 -25 -6 -25 -6 0 -9 0 -9
-15 0 -15 0 0 9 0 9 25 6 25 6 0 10 0 10 -12 0 -13 0 15 10 15 10 -14 9 -14 9
-14 -5 -13 -5 0 -9 0 -10 -14 13 -14 13 12 8 11 7 -14 9 -14 9 -16 -6 -16 -6
17 17 17 18 -5 14 -6 15 16 0 16 0 1 -12 1 -13 -1 -15 -1 -15 10 -15 10 -15 9
13 8 13 -3 26 -3 26 -15 9 -16 9 0 14 0 15 -15 0 -14 0 3 -12 3 -13 -4 8 -5 7
-13 0 -14 0 1 -27 1 -28 -2 -12 -1 -13 -15 0 -15 0 5 37 5 37 12 8 13 8 -12 0
-13 0 0 10 0 10 17 20 18 20 9 -3 10 -3 4 -13z m-258 -65 l0 -15 16 -15 15
-16 -8 0 -9 0 -17 20 -17 20 0 10 0 10 10 0 10 0 0 -14z m-162 -17 l-13 -9 15
-11 15 -11 -17 6 -18 5 0 -14 0 -15 17 0 16 0 -5 -5 -6 -6 -26 7 -26 6 4 22 3
21 -4 -12 -4 -13 -10 0 -9 0 0 14 0 14 10 4 10 3 31 1 31 1 -14 -8z m580 -33
l-13 -14 -4 3 -3 4 7 10 6 11 10 0 10 0 -13 -14z m-538 -36 l0 -10 -10 0 -10
0 0 10 0 10 10 0 10 0 0 -10z m340 0 l0 -10 -10 0 -10 0 0 10 0 10 10 0 10 0
0 -10z m213 -4 l6 -15 -15 6 -14 5 0 9 0 9 9 0 9 0 5 -14z m-183 -26 l0 -10
-10 0 -10 0 0 10 0 10 10 0 10 0 0 -10z m150 0 l0 -10 -12 -1 -13 -1 13 -5 12
-5 0 -14 0 -14 -9 0 -9 0 -4 18 -5 17 4 13 5 12 9 0 9 0 0 -10z m-90 -30 l0
-10 -10 0 -10 0 0 10 0 10 10 0 10 0 0 -10z m120 0 l0 -10 -10 0 -10 0 0 10 0
10 10 0 10 0 0 -10z m-57 -34 l6 -15 -15 6 -14 5 0 9 0 9 9 0 9 0 5 -14z m57
4 l0 -10 -15 0 -15 0 0 10 0 10 15 0 15 0 0 -10z m-90 -30 l0 -10 -10 0 -10 0
0 10 0 10 10 0 10 0 0 -10z m90 0 l0 -10 -10 0 -10 0 0 10 0 10 10 0 10 0 0
-10z m-120 -90 l0 -68 -15 -6 -15 -5 0 -16 0 -15 -10 0 -10 0 0 14 0 14 16 6
17 6 -6 75 -5 74 14 -6 14 -5 0 -68z m34 24 l6 -16 0 -29 0 -28 -15 5 -15 6 0
39 0 39 9 0 9 0 6 -16z m56 -59 l0 -17 -12 4 -13 5 -3 28 -4 28 16 -16 16 -16
0 -16z m38 2 l3 -17 -15 6 -16 6 0 15 0 15 13 -4 12 -5 3 -16z m29 -9 l-5 -13
-1 19 -1 19 6 -6 6 -6 -5 -13z m-626 -88 l9 0 0 -21 0 -21 -12 4 -13 5 -1 44
-2 44 5 -27 4 -28 10 0z m409 11 l0 -39 -12 -5 -13 -5 18 -1 17 -1 0 -9 0 -8
45 -13 45 -13 0 -8 0 -7 30 -7 30 -7 0 -8 0 -8 30 -7 30 -7 0 -8 0 -8 30 -7
30 -7 0 -9 0 -9 -20 0 -20 0 0 9 0 9 -30 7 -30 7 0 8 0 8 -30 7 -30 7 0 9 0 9
-25 6 -25 6 0 8 0 7 -44 13 -45 12 -5 15 -6 15 6 39 7 39 8 0 9 0 0 -39z
m-420 -60 l0 -10 28 -4 27 -4 -38 2 -37 3 -35 -11 -35 -10 0 -9 0 -8 -15 0
-16 0 -5 -14 -6 -15 -29 -6 -29 -7 0 -9 0 -9 -25 -6 -25 -6 0 -9 0 -9 -30 0
-30 0 0 9 0 9 30 7 30 7 0 8 0 8 30 7 30 7 0 8 0 8 30 7 30 7 0 7 0 8 45 13
45 13 0 8 0 9 15 0 15 0 0 -9z m378 -18 l-18 -4 -17 4 -18 5 35 0 35 0 -17 -5z
m72 -23 l0 -10 -245 0 -245 0 0 10 0 10 245 0 245 0 0 -10z m60 -30 l0 -10
-305 0 -305 0 0 10 0 10 305 0 305 0 0 -10z m40 -29 l0 -10 18 -4 17 -5 -385
0 -385 0 18 5 17 4 0 10 0 9 350 0 350 0 0 -9z"/>
<path d="M480 1145 l0 -15 15 0 15 0 0 9 0 9 -15 6 -15 5 0 -14z"/>
<path d="M920 1050 l0 -10 15 0 15 0 0 10 0 10 -15 0 -15 0 0 -10z"/>
<path d="M591 1241 l-13 -9 22 -22 22 -22 6 6 6 6 -19 14 -18 13 7 11 7 12 -3
0 -3 0 -14 -9z"/>
<path d="M538 973 l-17 -4 -6 -21 -7 -20 19 -17 18 -17 18 -7 17 -6 0 -10 0
-9 -20 -5 -20 -5 0 -16 0 -16 -15 0 -15 0 0 -14 0 -15 14 -14 15 -14 4 -44 4
-44 1 58 2 57 -17 1 -18 1 15 5 15 6 12 13 13 12 -13 5 -12 4 5 5 5 6 23 6 22
7 0 -15 0 -16 38 -1 37 -1 -12 -5 -13 -5 0 -69 0 -69 9 0 9 0 4 77 3 77 -15
15 -15 15 25 -7 25 -7 9 0 8 0 -5 -13 -5 -14 6 -10 7 -10 23 -7 22 -7 0 15 0
16 -15 0 -15 0 0 15 0 15 -25 6 -25 6 0 5 0 4 25 23 25 23 0 26 0 25 -16 6
-16 6 5 -22 6 -22 -5 -23 -6 -22 -33 -7 -33 -6 -31 7 -31 7 0 14 0 14 -10 0
-10 0 0 15 0 15 10 0 10 0 0 15 0 15 -7 -1 -8 -1 -17 -5z m99 -119 l-6 -6 -13
5 -13 5 19 1 19 1 -6 -6z"/>
<path d="M770 961 l0 -9 15 -6 15 -5 0 -30 0 -30 -16 -15 -15 -16 -15 0 -14 0
0 -10 0 -10 26 0 25 0 15 15 15 15 6 35 6 36 -21 19 -21 20 -11 0 -10 0 0 -9z"/>
<path d="M490 899 l0 -10 15 -15 15 -15 0 9 0 10 -6 16 -6 16 -9 0 -9 0 0 -11z"/>
<path d="M753 894 l-13 -13 0 -11 0 -10 9 0 10 0 6 21 7 21 -4 3 -3 3 -12 -14z"/>
<path d="M430 840 l0 -10 10 0 10 0 0 10 0 10 -10 0 -10 0 0 -10z"/>
<path d="M580 816 l0 -16 -17 0 -18 0 12 -8 12 -7 4 -55 3 -55 2 63 2 62 10 0
9 0 4 -62 4 -63 -1 74 -1 74 -12 5 -13 4 0 -16z"/>
<path d="M633 750 l0 -75 4 38 4 37 -4 38 -4 37 0 -75z"/>
<path d="M680 740 l0 -60 10 0 10 0 0 60 0 60 -10 0 -10 0 0 -60z"/>
<path d="M710 735 l0 -55 10 0 10 0 0 55 0 55 -10 0 -10 0 0 -55z"/>
<path d="M740 735 l0 -35 10 0 10 0 0 35 0 35 -10 0 -10 0 0 -35z"/>
<path d="M90 753 l0 -12 18 -11 17 -10 -17 -10 -18 -11 0 -12 0 -12 10 15 10
15 8 -11 7 -11 26 26 26 27 -15 14 -16 14 6 -15 6 -16 -9 -14 -9 -14 -9 14 -9
14 5 16 5 16 -11 -15 -11 -15 -10 15 -10 15 0 -12z"/>
<path d="M202 744 l-13 -14 10 0 10 0 6 11 7 10 -3 4 -4 3 -13 -14z"/>
<path d="M258 740 l-18 -17 0 -7 0 -7 22 21 22 20 -5 4 -4 3 -17 -17z"/>
<path d="M964 747 l-10 -12 19 -20 19 -20 14 20 15 20 8 -14 9 -13 5 13 5 14
14 -19 15 -19 11 7 10 6 30 -29 30 -30 0 26 0 25 -8 -12 -8 -12 -22 22 -22 22
12 8 13 8 14 -5 13 -5 0 -12 0 -11 10 15 10 15 9 -14 9 -13 0 25 0 26 -15 -14
-14 -14 -14 5 -15 6 0 12 0 11 -10 -15 -10 -15 -10 15 -10 15 0 -11 0 -12 -15
-6 -14 -5 -15 14 -14 15 -5 -13 -5 -12 -12 15 -12 15 5 -16 5 -16 -9 -14 -9
-14 -9 14 -9 14 5 14 5 13 -3 0 -4 -1 -11 -12z m130 -22 l-6 -15 -9 0 -9 0 0
9 0 9 13 5 12 5 2 1 2 1 -5 -15z"/>
<path d="M1220 750 l0 -10 10 0 10 0 0 10 0 10 -10 0 -10 0 0 -10z"/>
<path d="M67 724 l5 -14 9 0 9 0 0 9 0 9 -14 5 -15 6 6 -15z"/>
<path d="M770 725 l0 -15 10 0 10 0 0 15 0 15 -10 0 -10 0 0 -15z"/>
<path d="M277 717 l-5 -14 8 -14 9 -13 8 7 7 8 -14 9 -15 10 13 0 12 0 0 10 0
10 -9 0 -9 0 -5 -13z"/>
<path d="M310 720 l0 -10 10 0 10 0 0 10 0 10 -10 0 -10 0 0 -10z"/>
<path d="M352 696 l13 -14 4 3 3 4 -7 10 -6 11 -10 0 -10 0 13 -14z"/>
<path d="M220 690 l0 -10 10 0 10 0 0 10 0 10 -10 0 -10 0 0 -10z"/>
<path d="M310 691 l0 -9 14 -5 15 -6 -6 15 -5 14 -9 0 -9 0 0 -9z"/>
<path d="M1010 690 l0 -10 10 0 10 0 0 10 0 10 -10 0 -10 0 0 -10z"/>
<path d="M1040 695 l0 -6 25 -24 26 -23 -13 -5 -13 -4 28 0 27 0 5 7 5 8 -18
-2 -17 -1 1 17 2 16 -14 -5 -14 -5 -6 16 -6 16 -9 0 -9 0 0 -5z"/>
<path d="M143 673 l-13 -5 0 -9 0 -9 9 0 9 0 6 15 5 15 -2 -1 -2 -1 -12 -5z"/>
<path d="M992 666 l13 -14 4 3 3 4 -7 10 -6 11 -10 0 -10 0 13 -14z"/>
<path d="M280 660 l0 -10 10 0 10 0 0 10 0 10 -10 0 -10 0 0 -10z"/>
<path d="M950 660 l0 -10 10 0 10 0 0 10 0 10 -10 0 -10 0 0 -10z"/>
<path d="M1040 660 l0 -10 10 0 10 0 0 10 0 10 -10 0 -10 0 0 -10z"/>
</g>
</svg>
