/* XPM */
static char * byzan_xpm[] = {
/* width height ncolors chars_per_pixel */
"20 20 4 1",
/* colors */
"o	c peru",
".	c white",
"X	c black",
" 	c peru",
/* pixels */
" ..................X",
" .o   oo   oo   oo X",
"o. ooo  ooo  ooo  oX",
"o. oXXXXXXXXXXXXX oX",
" .o X oo   oo   .o X",
" .o X ........X .o X",
" .o X .o   oo X .o X",
"o. oXo. ooo  oXo. oX",
"o. oXo. oXXXXXXo. oX",
" .o X .o X oo   .o X",
" .o X .o X ......o X",
" .o X .o X .o   oo X",
"o. oXo. oXo. ooo  oX",
"o. oXo. oXoXXXXXXXXX",
" .o X .o X oo   oo  ",
"..o X .o X..........",
" oo X .o   oo   oo  ",
"o  oXo. ooo  ooo  oo",
"XXXXXoXXXXXXXXXXXXXX",
" oo   oo   oo   oo  "};
