/* XPM */
static char *overlap_xpm[] = {
/* width height ncolors chars_per_pixel */
"128 64 18 1",
/* colors */
"` c black",
"a c tan",
"b c wheat",
"c c lavender",
"d c gainsboro",
"e c firebrick",
"f c peru",
"g c violet",
"h c grey",
"i c sienna",
"j c darkslategrey",
"k c seagreen",
"l c purple",
"m c navyblue",
"n c tomato",
"o c white",
"p c slategrey",
"q c lemonchiffon",
/* pixels */
"ij`````ppppppppppppjppjppppp`hhhhhhhhhphpppj``````ipipiipipijiijiipipi`jpppppppppjpppjjj`````jhhhhhhhphhhhhhhhhh`jipiipipiipipij",
"```jhd``jpfpjipijpfppfppipip`phhhhhhhppij````jphh``jpipipipiippippjipij`pipipfppijijj``````i``jhhhhpahhhhhhphhhhp`pipipijijijej`",
"pdoodhdj`jppipppppjppppipppp`jdhhpppjj````pahhhppp``epipijipipeipiiipip`pppjpjjjj``````iapaap``phhhhhhhhhhahhphda`ipijijejj`````",
"qhdphhhhp``ppppjippfpijpjpfpj`hppij```jphhhhpippippj``pipepepiipepepipi`jjji`j`````ipfaaanpiifj`phhhhphhphhhhhhhh`jejijej````phd",
"hhhahhhaha``ippippippppippjpf`jj```ihhhapappjppippipj``ipijpipjipijepipj`j`````ipfaganpeppeppipe`jdhhhaphhphhpahhj`je````phdcooo",
"phphhphhhhhj`jpppppjpipppippp```pphhapjpppipipppjpjppp``jpiinpipejipiipi```jifaafgipipepieppepiij`jhhhhhhhhhhhhhdh```jpddcooddhh",
"hahhhhhphhhhj`jippipjppppjapppahappjppfjpjppppfjipipippj``ppepilipeppepipnaagpnpejfpipipepiipeppij`ihhhphhhphhhphdhdcoooddhhhahh",
"hphphhahhhhdbp``ipppppipipjpippppippipppippjijppjpppppppi``jipiipeppepiigapiepipipepepjipeppepjepfj`phhhahhahphhhhoodhhhhhhhhphh",
"hhhhhphhhhhpdha``jpfjipjpjpijpipppppjpipjpfpjpppipipijfppp``jipipiipipipiipipijepijpipnjijiijnipepij`jdhhhphhahhhphhhhhhpahhhhhh",
"hhhhhhhhhhahhhhh``ppppppppipjppjpijpippppjpjapfpppppppppipp``pijepipipeppiipepipipiepepilippepjipepij`phhhhhphphhhhhhphhhphphhhh",
"hhphahphhhhphhhdh`ppippipjpjajpipppppipippipppjippjpipppppij`ipepipepipepepejilijpepipijipiipiijpipeij`jdhphhhhahhpahhhahhhhahph",
"phhhphhhhphhhhhpj`ijpikpipipjpipjppippjppippjippjijajppipijj``pjepippepipippipiipepipepipepepepepiipji``hdhhhphhpahhphhhphhhphhh",
"hhhhhhphhhhhpaj``phppjpppjppfpppippjpipppppipppppppjpijpjjj``ipnpipepipipepepippipepipipipejpipepipei``pdohhhhhhhhphhhphhhhhhphh",
"pahhpahhpahhhj``phajpipippipjpipppipppippippppippipijppijj``fpippepnpipipepijepipepepilipippepipipej``acodhphaphphhahpahhhpahhph",
"hhhhhphhhphpj``hhajppppjppppijpjpipkipjppjpppipppppppijj``jnpfpippipilejejipipipipipipiipiipejipejj``hcohhahhhhhhppphhhpahhhphha",
"hphhhhhhhap```happpppipipfpjjjjijjjpjkippipfjpppippipjj``eaipipiiepijijepejejepepijepiipilipiljej```dodhhhhphphppappjppphphhhhhh",
"hhphhpappj``jbhpjipipjppjpijj````j`ijjjipjpjpikpjajpjj``ihipepeppepepej```jjejipepipippejipiijej```dodhhphhhahahpj``ijppippaphhh",
"ahhphhhpi``phhpppjpppppipjpj`jdaj`````jjjjjijjpippijj``fgipipippepipijj`pp````jjejepejiipipijij``hoodhpahphhphhpi``i````jppppphh",
"ppahhhjj``ahajpfpippfppjpipj`pcdcoohpj````j`jijjjij```aaippepepejpepie`jhahhpj```jjejejjepejej``hoohhhhhhhhhhhhpp`jaafij````jipp",
"`jpipp```hhpppipppppjpijpijj`bdhhhhdqcodhij```j`jp``ifgipeipepippiijij`ppppppahaj````jjijeji```dodhhphphhhhpahppp`igiphnaaij````",
"```pj``jhhppippppipipppppjj``ohhpahhhhhhhccdj``````papippipipipepipeje`hpijpijppahhp````jjj```codhhpahhhhhhhhhaj``aipepipeaanai`",
"a`````jahpajpjpipppppippiji`pophhhhphpaphhhbp`````jnaepiepepepepepepj`japppipppjppphhhp`````hcodphhhhphhahphhhpp`jnpipepipepippa",
"p````ihhppjpippppipjpjpppjj`hdhhhphhahhhhhhhhj```fgpipippipijipipejii`pppippjippippippp````doohhhhahhhhphhhaphpp`fpiippipipepeii",
"ii``phhpppippppijppijajipi``ohahhhhhhhphhhhhhi``pafipipepeppepepjilij`pappjppppipppjpjfj``doohhphhphhphhhhhphhi``giljiepepijpipp",
"pp``hhpipppipijpppppjippjj`pohhphhahhhhhphhhdp`iaippepipipippnpiipije`hppipippippjippppp`iodhhahhhhhpbhpaphhhpp`jfpiippipipepepe",
"pii`jppppippppippfpippppjj`hchpahhphphhpahhhhh`jepnpipipiiliipepepij`jappppppjpppjpipipa`jhhhphhahphhphphhhhapp`iaiipepifljepipi",
"fpp``fjpippjppjpjppjpipij``odhhhhphhhhahphphhdj`ppepepipepippepijipe`phippipippipppjppppj`dhphhhphhhhhhhhhphhj``apepipeppiipipip",
"epfi`jpppppipippipfpjpppj`pohhhphhhhphphhahhhdp`iepipijepipejeppipej`hppippppippjfjappipp`hdhhphhhphahpahhhapp`jgiipjepiipipipip",
"ipip``pipjpppppikjppippij`hqhhhhhhahhhhhhhhhhhh`jpiilipipipfpipepij`jhppjpipjppipjppipppf`phhahhhhhhhhhhphhppf`ifpipipeppipepipi",
"ipipi`jppipipijppppppppj``cdpaphhphhhhphphhphhdj`pepipipipijepipiji`jappijpkippppppjpipppj`hhhhhhaphhphphhhhp``apepepjepijepipep",
"ipepi`jipjpjpppijipipiji`pohhhhhhaphpahphhhhhhhp`fjpipepipepipiilij`hpipppipppipipipjpjipj`hdhhphphahhhhahhap`jnppipnpiipnpepipi",
"epjipi`jppippijpajpjjpjj``jhdhhhhhhhhhhhhahhhhhh`ipnjiipeppepepiji``jpppppppipjjpjppippppi`hhhphhhhhhhphhphpp``piipepjipepjipipi",
"ipepip``ppppjppjpjijij``````hhhhphhphhhhphhphahhj`pepeppipeppijiij````jfppippjapipipppijpp``dhhhhhphhphahppij```ipipilipepepipep",
"pipiipi`ippijijijj````````j``phhhhhhhhphhhphhphhp`ipeppepejiejejjj``````ppppjippjpjpppjppp``hhhhhhahhappjppj`````jpipipipipepepi",
"ipijpep``pjjjj```````ipiafanj`jdhahhhhhhhhahhhhha`jpiiijejejjj````jicoh``papppjipppijipippj`hhhphpppjpjj``````php``ipfpepepepiji",
"ijepepij`j``````jipfpaanapipij`jhhphhhahhphhphhhhj`ejpejj`````jdooocchdh``jpipjpppippppppfj``happijj````ijhhhhpapj``epipejpijipi",
"ipipipip```ijfpnaanpnpepepepipe``hdhphhphhhhpahhhj`jj````jhcoooddhphhhhhh``ippipippppfppipj``jj`````ihhhhpapppipppij`jippeijlipi",
"pipiijnpifafgnapipepipippipipiip``phhhhhhhahhhphdh```phoocddhhhhhahhhhahdd``jppppppipjppppp````jphhhhppipppjipjpipppj`miippiiiip",
"pipilpigapipipipejpipepiipepippip``ihhphhhhhhhhhhhdooodhhhhhhphhphhphhhpdhhj``pipjpppijpipipdhahpppppppppippppppppijpj``pipipjpe",
"epipaipipipepepepiepeppepppijiipifj`jhhhphhphhphhhhhhhhhhphhhhahhhhhhhhhhhhhp``ppapijpapppppppppipipipipppijpipipppppip``epipnpi",
"pepiipipnpiipipipipipeipilepepiipipi``hhhhhhahhahphphhphhaphphphphphaphpahhhbp``jpipppppijipijipjppjpjpippppppppippipppj``jipipi",
"pipepepijiljijepfljejepipijepepeppipi``dhhhphhphphhahhahhhhhhhahhhahhhhhhhhhhhh``pppjpippppppppppjpfpppjpippipijppppjpfppj`iipip",
"ipipipipnpiipipipipipipipepippejeipepj`jhaphhhhhhhhhhphhhphaphhhhhhphhphhhhphhhhj`jfpipppipijppipajjpfpppppippppipfpppppip``pipi",
"peppipepipipepepepipipepiipipippipipi``dchhhphahphhhhhhhhhhhhhphhphhhhahhphhhhhhij`pjpkipjpppipppjpipjppippkpipppjppijippjj`ngpi",
"ipeipipiipepipijpepepippepiipepepipe``pohhphhhphhhphhpaphhhphhhhphhhhphhhaphhhpj``jhpppjpijpppippipppippppfppppipppppppij``ihiip",
"pipjilijpepjepiaipipepeipipejepipij``podhhhahhhhpahahhhhhhphhpahhhhhahhphhhahpi``phpfppfppppippppppippijijpppijpjfpipipj``igippi",
"ipiiipiejijepipepejppeppipipipipej``hodaphhphahhhhhphphhphahhhhphhhphhhhhphppj``happpipppijpjjijipjppppppppippjppppppjj``apijeip",
"ipeppipej`jijemejipiijepijepipipi``hohhhhhphhphphppppppahhphhphhhhhhhphphhap``jhhppipppppppjijjjjjipjippipippppfpippij``npnpippi",
"pipeipjje````jjejejejijepepepipe``hodhhphhhhhhhahp````jjpippahhhpaphhhhhapj``jhpppipppipippij````jjjjjjjpkppipjpjpjj```aaipiiiip",
"ejipipei`jppj``````jjjejejijlij``hodhhhhhhhhhphhhj`pij`````jjjppaphhhahhpj``happfpppipppppijj`ap````````jjijpppipji``janpiljippp",
"ipepijj``hpahhhhpjj`````jjejej``dodphhphahphhhahp``naanpfji`````jpipjppj```hhppipppjppippipj`joooddha````````jjjij``iaipiiiipiei",
"ipippei`japjjipphahhhpj````i```dcdhhhhhhhhhahphhp``apipnpnaaaiij`````ji``jhpjajppppipikppjjj`hohddccooooqhjj```jj``igipejppepipp",
"pipeijj`pppipppipjppahhh``````dodhhpahhhphhhhhhpi`igipipipieppfpna``````paapppipjfppjppippij`cdahhhahhhdddcqo`````aaijpepippipii",
"ipepje``dipppjppippijippp````dodphhhhphhhhphphphj`iaipipepippepiipi````hhppipjpipjpipppjppj`johhhphhhhhhhhhhh````npipiepepepipip",
"pipiij`jhppijppppjpppjppf```dodhhhahphhphhahhahp``apepepippeipepjpi``jhapjpppipjppjppipipjj`achhphhhphhhhhhdh``ihapipepipipnpipe",
"ijepji`apjppppippfppipipp``dodhhphhhhphahhhphhap`jgnpeppepijepjiiip``hajppipppppppipippjjij`cdphhhhhhpaphhphd``aipepipepipepipip",
"ipepe``hppipipjpipjpjppppj`hdhhhhhphahhphhhhhhpj`iajipepipilipepepip`jppipjpipipipjpjpijpj`jodhhahhphhhhhhahhp`ipipijejpeppepeji",
"pipij`phapjppipppjpippipfp`phphhahhhhphhhhphhapj`pnppipnjepijepipepi`jipppippppjkippajppij`pchhphhhhhhphhphhdd`jepilipiipijipipi",
"ipije`hpppippppippppppjppp`jbhhphhphhhhphhhhppp`iapnijpippepipippipi``ppippppfppppjijpipjj`qdahhphahhhahphhhhh``pfpipipepipipili",
"ipej`jhpjipppijpppipippipp``hhahhhhhpahhhahhapp`igipepepinjiipipepipi`jppjpipppipipjpppijj`ohhphhhphhphhhhhhhha`pipipepijepepipi",
"peji`pppippipppipipppippipp`hhhphhhaphhhphhhhpi`pfjppepejpipipipepepi`jpippppijpjpppipppj`pohhhahphhhahphhhhhhh`ipipepipipepiipi",
"pij``happpppjipppppippppppp`phhhhhphhhhphhpapp`jnpepepippijilipepipip`jjppfpjpppipipjpijj`ddhphhhhhhhphhhhphhhd`mepipipepepipjip",
"iij``pppipjppjpppjpppipjfpp`jdahhhhhhhhhhhhhpp``apiipejepepipiijipepij`apjppippppjpppppj```phhhhphahhhhpahhhhhhp`pipipepppepepip",
"jej```ippippipipipippppjpja``hhphhphhpahhhhpi````eppipepnjepeppepipipf`jppippppipppipipi````phhhhhphhhhhhphhhhhh`epepepiepippipi"
};
