/* XPM */
static char *rain_xpm[] = {
/* width height ncolors chars_per_pixel */
"64 64 4 1",
/* colors */
"  c #0099FF",
". c #330099",
"X c #99FFFF",
"o c white",
/* pixels */
"...X..........X...............X.....X......XX.......X.... ......",
"...X..........X...............X....X.......X........ .... ......",
"...X.........X............ ..X.....X.......X.......X.... .......",
"..X..........X...............X.....X......X........X....X.......",
".XX..........X...............X....X.......X........X....X.......",
".XX.........X............ ..X.....X.......X........ ...X........",
".X..........X...............X.....X......X........ ....X........",
"............X...............X....X.......X........X....X........",
"...........................X.....X.......X........ ...X.........",
"...........X..........X....X.....X......X........X....X.........",
"...........X..........X....X....X....... ........X....X.........",
"..X.......X..........X....X.....X....... .......X....X..........",
"..X. .....X..........X....X.....X...... ........X....X..........",
"..X.......X..........X....X....X....... ........X....X......... ",
".X.......X..........X....X.....X....... .......X....X...........",
".X.......X..........X....X............X........X....X...........",
"X........X.... .....X....X.... .......X........X....X...........",
"X.......X..........X.... ..... .......X........ ...X............",
"X.......X..........X....X.... .......X........ ....X........ ..X",
"........X..........X.... .... .......X........ ....X...........X",
".......X..........X....X.....X.......X....... ....X............X",
".......X..........X.... .... .......X........X....X...........X.",
".......X..........X.... ....X.......X........X....X...........X.",
"......X..........X....X.....X.......X.......X....X............X.",
".....XX...X......X.... ..... ......X........X....X...........X..",
".....XX...X......X....X....X.......X........X....X......X....X..",
".........X........... .....X.......X.......X............X....X..",
".........X......X....X.....X......X........X........... ........",
".........X...........X....X.......X........X...........X........",
"........X......X....X.....X.......X.................... ........",
"........X......X....X.....X......X........X............ ........",
".... ...X......X....X.....X......X........X............X........",
"... ...X......X....X.....X.......X....... ............ .........",
"...X...X......X....X.....X......X........ ............X.........",
"... ...X......X....X.....X......X........ ...........X..........",
"..X...X......X....X.....X.......X.......X............X..........",
"..X...X......X.... .....X......X........ ............X..........",
".X ..........X....X.....X......X........X.... ......X...........",
".X..........X....X.....X.......X.......X............X...........",
".X..........X....X.....X......X........X............X...........",
"X ..........X....X.....X......X........X........................",
"X..........X....X.............X.......X............X........X...",
"X..........X....X............X........X............X.......X....",
"...........X....X............X........X.... ...............X....",
"..........X....X............XX.......X............X........X... ",
"..........X....X............X........X............X.......X.... ",
"..........X....X...........XX........X...........X........X... .",
"..............XX...........XX.......X.....................X... .",
".........X....X............o........X.... .......X....... ....X.",
"..............X.....................X.... ......X........ ....X.",
"........X....XX....................X.....X......X........X...X..",
".............X..... ...............X....X.......X....... ....X..",
"...................................X....X......X........X....X..",
".......X..........................X.....X......X........ ...X...",
".......X.........X................X.... .......X.......X....X...",
"......X..........X................X....X......X........ ....X...",
"......X.........X................X..... ......X........X...X....",
"......X.........X................X....X.......X.......X....X....",
".....X..........X................X....X......XX.......X....X....",
".....X.........X................X.... .......X........X...X.....",
".....X.........X................X....X.......X.......X....X.....",
"....X..........X................X....X......XX.......X....X.....",
"....X.........X................X....X.......X........X...X......",
"....X.........X................X....X.......X.......X....X......"
};
