/* XPM */
static char *sand2_xpm[] = {
/* width height ncolors chars_per_pixel */
"96 96 27 2",
/* colors */
"`` c #71B1D5",
"`a c #70B0CD",
"`b c #A7EDEF",
"`c c #71BFDB",
"`d c #8AEDE9",
"`e c #96CDE1",
"`f c #98EDE9",
"`g c #8ACEE2",
"`h c #89CDDA",
"`i c #7CCDE1",
"`j c #7DCEDB",
"`k c #64C0D6",
"`l c #64B2D6",
"`m c #63B1CE",
"`n c #62A1CD",
"`o c #71CEDB",
"`p c #97DDE9",
"`q c #A7EDE8",
"`r c #96DCE1",
"`s c #89DCE8",
"`t c #A7FDEE",
"`u c #8ADDE2",
"`v c #7DBFD5",
"`w c #7CDCE1",
"`x c #AADEEA",
"`y c #7DBFDB",
"`z c #71BFD5",
/* pixels */
"`i`h`g`g`g`u`u`g`u`g`u`r`r`u`p`p`u`g`u`g`u`e`u`g`h`j`y`y`y`z```k`z`l`k```l`l`l`l`l`n`l`n`l`n`l`n`i`j`z`z`v`y`a`m`g`h`g`i`h`j`y`j`j`j`o`y`j`z`j`z`o`z`o`c`z`c`o`c`z`c`z`o`z`y`j`c`j`o`j`j`j`i`j`j",
"`h`g`j`h`j`g`g`u`h`u`g`g`u`r`r`r`g`u`g`u`g`u`g`u`h`g`j`y`v`z```````l```l`l`l`l`l`n`l`n`l`n`l`n`l`i`y`````c`z```n`g`h`i`h`j`h`j`j`y`j`j`o`o`c`z`o`z`c`z`z`o`z`z`z`z`z`c`z`o`o`c`j`o`v`j`o`j`j`o`i",
"`j`j`y`g`g`h`h`i`g`g`u`u`g`u`u`g`r`g`r`g`r`g`r`g`u`h`i`j`y`c`z`z`l`k`l`k```l`n`l`l`l`l`l`l`l`l`l`c`````a`z```z`a`g`i`h`h`i`y`y`j`j`c`o`y`c`z`c`z`c`z`c`c`z`c`z`c`z`z`z`c`z`c`v`o`z`c`o`y`o`j`j`j",
"`j`y`j`j`j`g`g`h`i`h`h`g`u`g`u`u`u`u`u`u`u`u`u`u`g`g`h`h`y`v`y```z`l```l`l`l`l`l`l`l`l`l`l`l`l`l`l```m```a`z`````j`h`i`j`j`y`j`y`j`o`v`o`z`c`z`z`z`z`z`z`k`z`c`z`z`k`z`z`c`z`o`z`c`z`z`o`y`j`c`j",
"`y`v`y`y`j`j`j`j`h`y`g`i`h`g`h`g`g`g`g`g`g`g`g`g`u`u`g`j`y`y`z`c`l`l```l`l`l`l`n`l`l`l`l`l`l`l`l`n`l`````z`a`z`y`g`j`h`y`y`j`y`v`o`y`c`z`o`z`z`c`z`c`z`z`c`z`z`z`l`z`z`z`z`c`z`c`z`z`z`z`c`z`o`v",
"`y`c`v`y`v`y`y`j`y`j`y`h`g`h`g`j`h`j`g`j`h`j`h`h`g`h`j`j`y`v`z`z```l`k`l`l`l`l`l`l`l`l`l`l`l`l`l`l```c`````z```v`j`y`j`y`j`y`y`o`v`o`z`c`z`z`k```z`k`z`z`z`z`k`z`k`z`m`z`k`z`c`z`z`k```z`k`c`c`z",
"`v`v`y`c`y`v`j`y`j`y`j`y`j`i`h`g`j`y`j`y`j`j`y`j`g`g`j`y`y```z```l`c`l`l`l`l`n`l`l`n`l`l`l`n`l`n`l```y`z`````z`y`j`h`y`j`y`y`v`z`c`z`c`z`z`z`z`z`l`z```k`z`k```z```l`z`l`z`z`z`z`k```k`z`z`z`z`c",
"`z`z`z`v`z`y`y`y`v`j`y`j`h`j`j`j`y`y`v`y`y`y`v`y`h`j`y`j`z`z```l`z`l```k`l`l`l`l`n`l`n`l`n`l`n`l`k`y`y`y`z```z`y`j`y`j`y`y`v`c`y`z`o`z`z`z`z`l`k`z`z`k`z`l`z`z`k`l`z`l`z`z`z`z`c`m`l`z`m`z`k```z",
"`z```````z`z```v`c```y`z`y`y`y`y`j`j`h`j`j`j`j`j`y`h`j`y`y`v`y`c```l`l`l```l`c`l`l`l`l`l`l`l`l`l```c```c```v`v`c`v`j`y`y`z`y`z`z`j`c`j`c`o`z`z`z`c`z`c`z`z`c`l`z`z`z`z`k`k`m`l`a`k`z`k`z`z`z`z`z",
"`````z`z```z`v```z`v```y`j`v`y`y`y`j`y`y`y`y`y`y`j`y`y`y`y`c`v`c`k`l`c```k```l`l`l`l`l`l`l`l`l```c```c`z`v`y`c`y`y`y`v`c`v`v`z`z`c`j`z`z`v`z`z`z`z`c`z`k`z`k`z`z`c`z`c`z```z`m`k`z`l```k`a`l`k`a",
"```m`a```````z`z`v`z`v```y`c`v`j`y`c`v`y`y`y`v`c`v`y`y`v`v`z`z`````c`l`k```l`k```k`l```l`l`k`l`l```c```y`z`c`v`v`j`y`j`v`j`c`y`z`y`c`o`o`c`o`o`c`z`z`z`z`z`z`c`z`o`o`v`c`k`l`k`a`l`a`k```m`k```k",
"`````````z`z`z```````z`v```y`y`c`v```c`v`z`v`c`v`c`v`z`c`z`v```z`k`l`c```k`k```k```k`l```l```l```c`y`y`z`y`v`y`y`j`j`y`y`y`v`z`c`z`z`z`z`j`j`y`j`z`k`z`c`z`c`z`z`i`j`o`z`c`z`a`l`m`k`m`m`k`m`m`l",
"`a`m`m```a`l`````z`z```z`v`c`z`v`z`v```z`z`````z`v`c`y`v```z```c```c```k`````c```l`l```k`c`l`k`c`c`c`z`v`c`y`j`y`y`y`h`y`v`j`y`v`z`c`y`c`j`o`j`i`z`z`c`z`j`c`j`j`j`j`j`j`z`z`l`k`m`m`m`l`m`m`l`a",
"`l`a```a```a```z```a`z```z`y`v`y`z```v`c```v`v`c`y`v`v`z`c`v```z`c```k`c`c`k`c`k`k`c`c```l`k```l`c`y`v`y`v`j`y`j`h`i`y`j`j`y`v`c`o`j`o`o`j`j`j`j`c`o`o`j`j`j`w`i`u`w`i`j`o`z`z`m`k```k`a`l`a`k`m",
"`a`n`m`l`````k`a`z```a`z`````z```c`v`c`v`y`z`c`v`y`j`j`y`v`c`z`y`c`c`c```c`c```c```l```k`c```c`c`y`y`c`j`y`j`y`h`j`j`h`y`y`y`j`j`j`j`j`j`c`j`o`c`j`j`j`i`g`u`u`u`u`u`h`i`z`z`k`k```m```k`z`k`m`z",
"`m`m`m`a`m`a`a`l```l`z```z`z`z`c`v`z`y`v`z`y`v`v`i`y`y`y`y`v`y`c`c`z`c`c`c`z`c`c`c`z`c```c`k`c`l`c`y`v`y`y`y`j`y`g`h`i`j`j`y`y`v`j`g`j`i`j`j`v`c`j`j`i`u`u`d`u`p`d`u`i`j`j`c`z```z`z`k```k```z`z",
"`k`````k`z`l`k`z`z`z`c`z`z`z`c`z```z```c`y`y`y`j`y`j`g`j`j`h`j`j`z`c`c`c`y`y`j`y`c`c`c`v```````z`y`j`y`j`u`r`u`r`u`g`h`g`y`j`g`g`g`j`h`j`g`y`j`h`h`g`u`r`p`p`q`f`g`r`h`y`y`v`z`c`z`z`z`z```k`k`l",
"`z`m`k```l`a```m`z`z`z`z`c`z`z`z`z```v`v`z`j`j`y`j`h`y`y`h`y`y`y`v```v`z`y`c`v`y`z`y`z`z`c`z`z```j`y`j`g`g`u`r`p`g`u`g`j`j`g`h`h`h`g`h`g`h`g`h`g`h`r`e`f`p`q`p`x`r`g`h`y`y`z`y`v`c```z`z`k`l`z`m",
"`k`z`a`k`z`k`k`z`z`z`k`z`z`k`z`z`l`z`z`c`y`y`y`h`j`y`j`g`y`i`j`g`v`c`v`y`z`v`c`z`y`v```v```````a`y`y`j`g`g`u`r`s`u`g`h`j`g`j`j`g`g`h`g`r`e`r`p`p`p`p`q`x`b`x`f`r`g`e`h`y`v`v`z```z`z`z```k`z`m`k",
"```l`k```m`l`a`l`z`l`z`z`l`z`z```z`````v`y`y`j`y`h`g`h`j`j`h`h`j`j`y`y`z`v```````z`z`c```z`v```z`y`j`g`h`u`r`p`r`u`r`g`h`j`h`g`h`g`e`g`r`p`q`p`q`x`q`q`q`x`f`x`p`r`h`y`y`v`````z`c`z`c`z```l`k`l",
"`k`z`a`k`k`z`k`z`k`z`z`l`z`z`l`z`l`z`v`c`v`j`y`j`j`j`i`h`g`j`g`j`y`y`j`y`y`z`z`v`y`y`v`v`z`c```z`h`j`h`u`g`s`r`p`p`u`u`g`g`g`u`u`r`r`r`x`f`x`q`b`q`b`b`b`q`q`p`r`e`g`h`y`v`y`z`v`z`z`z```k`k`a`k",
"`z`m`k`l`a`l`a`l`a```k`m`z`m`k`a`z```z`v`c`y`j`h`g`h`h`i`j`g`j`g`j`h`y`j`y`j`y`y`j`y`j`y`y`v`v`y`j`g`g`g`u`r`f`p`f`x`s`r`u`r`u`p`r`p`x`p`q`q`b`x`b`b`b`q`b`x`p`r`r`g`h`y`y`v`z`y`z```z`z`k`a`k`m",
"`k```z`m`k`z`k`z`k`k`m`z`m`z```k```z```y`v`y`j`y`h`i`g`h`g`h`g`h`j`j`g`h`j`g`h`g`h`j`j`i`y`j`y`y`j`j`h`g`r`p`p`f`q`f`q`p`p`f`p`x`p`x`f`p`x`p`q`f`q`p`q`b`q`p`x`p`x`r`g`h`y`h`j`y`z`z`c```z`l`k`z",
"```k`l`z`z`l```m`l`a`z`l`z`l`k`a`z```v`z`y`j`y`j`g`g`j`g`h`i`h`g`j`g`h`i`g`g`u`u`g`g`g`h`j`g`y`h`j`g`g`u`u`r`f`p`t`b`f`f`p`p`q`f`f`q`q`q`f`q`p`x`r`q`x`x`q`q`p`p`p`r`r`g`j`y`y`j`z`z`z`z`l`k`k`m",
"`k`a`m`l`m`a`k`z`l`m`l`m`l`a`l`m`c`z```z```z`y`y`h`h`u`u`u`h`i`j`u`e`u`e`u`u`r`e`u`r`e`u`u`h`i`j`y`h`u`p`f`f`r`r`p`q`p`q`f`q`p`f`x`r`x`p`x`r`q`p`x`r`f`q`p`p`q`q`x`p`x`p`r`g`j`y`y`j`z`z`z`c`z`o",
"`z`l`k`m`m`k`z`z`k`z`z`k`z`k`z`z`z```z`````y`z`j`j`g`g`h`g`u`h`h`r`u`u`u`r`r`u`u`u`u`u`u`g`g`h`g`y`j`g`r`p`p`p`u`f`p`f`r`p`p`f`x`p`p`r`p`p`p`r`p`r`p`x`p`q`q`p`x`q`q`f`x`u`g`h`j`j`y`o`c`z`z`c`z",
"`z`z`l`a`l`z`k`z`l```m`l`a`l`m`l`z`y`````z`v`y`y`y`y`h`g`u`g`g`g`u`g`r`g`u`g`u`e`u`g`g`g`h`i`g`j`h`g`u`r`u`p`u`f`p`f`p`p`f`f`p`r`p`r`p`p`r`r`p`r`p`p`r`p`p`x`q`f`x`x`x`f`p`u`g`h`j`j`y`z`z`o`z`o",
"`o`z`z`k`k```z`z`l`z`k`z`k`z`z`z`v`z`z`v`v`c`y`j`v`j`g`u`g`u`r`u`u`g`u`u`g`u`h`u`g`h`g`h`j`h`h`u`g`u`g`g`g`r`r`p`p`r`p`f`r`r`f`f`r`r`e`r`r`p`e`r`r`r`p`r`r`p`p`x`q`f`q`x`b`p`u`e`w`j`j`y`o`v`o`c",
"`j`j`c`z```z`k`z`z`z```k```z`l`z`c`y`z`z`c`v`y`j`y`y`j`g`u`u`g`u`g`u`g`h`u`g`g`u`g`j`j`y`y`y`i`h`u`u`g`u`r`u`p`r`f`s`f`p`f`p`r`p`e`r`u`r`e`r`u`r`g`r`e`r`p`r`p`r`x`x`f`q`p`q`p`f`g`u`j`j`c`c`o`o",
"`j`i`z`o`z`z`c`z`k`z`k`c`z`k`z`z`c`v`c`v`v`j`y`h`y`j`g`h`u`g`u`g`g`h`u`g`g`h`u`h`j`y`y`z`y`j`h`g`u`e`u`u`u`r`u`g`p`r`r`r`p`u`p`p`u`h`e`g`e`h`e`g`e`h`r`e`u`e`r`p`r`p`x`f`q`f`f`p`f`u`u`j`j`j`o`z",
"`w`j`j`z`c`z`z`c`z`z`z`z`z`c`z`z`y`y`v`c`y`y`j`i`j`h`g`g`u`g`g`h`h`g`j`g`h`g`j`g`j`y`v`z```j`g`g`g`u`p`r`p`u`g`g`r`s`p`s`u`r`r`r`g`g`g`h`g`g`g`g`h`g`h`g`r`r`e`u`e`r`p`x`q`f`x`p`p`u`u`j`j`c`o`o",
"`u`i`j`o`z`z`c`z`z`z`c`z`z`z`z`z`y`y`z`v`y`j`j`h`h`g`u`g`h`u`h`j`i`h`u`h`w`i`g`j`j`y`z```z`y`j`u`h`u`r`f`p`r`g`j`r`r`u`r`p`r`s`p`h`h`g`g`g`h`h`g`g`g`g`r`g`e`u`e`g`r`p`f`p`x`f`f`f`p`u`i`j`j`j`y",
"`j`y`j`y`j`y`j`y`j`o`v`y`j`y`c`j`z`z`y`y`j`g`h`g`g`u`h`g`g`j`j`i`u`i`j`i`j`j`j`j`z`k`m`z`z`c`j`j`w`g`g`h`g`j`g`j`g`u`g`g`h`i`h`j`h`i`h`h`h`h`g`h`h`h`h`y`h`j`g`g`r`p`r`p`f`f`f`p`q`f`p`f`u`g`j`j",
"`h`i`j`h`j`h`j`j`y`y`y`j`y`j`y`y`z`y`y`j`h`g`u`u`u`h`g`u`j`g`h`j`h`j`w`j`j`j`j`j`k```z`z`k`z`y`j`g`u`h`g`j`g`h`j`g`u`h`h`i`h`g`j`g`h`h`i`h`i`h`j`g`j`g`j`g`h`h`j`p`u`p`p`p`r`p`f`q`b`f`p`r`u`g`u",
"`u`g`g`u`g`g`u`g`j`j`j`y`j`y`j`h`y`j`j`g`h`g`u`e`g`g`g`h`g`j`i`j`i`i`j`j`j`o`y`o```k`l`l`z`z`o`j`i`h`g`i`h`j`j`y`g`g`h`i`h`y`j`y`j`j`y`j`y`j`y`j`y`j`j`j`y`j`y`j`u`g`r`u`u`p`p`r`b`f`b`f`p`f`p`r",
"`r`u`p`u`r`u`p`u`h`g`h`j`h`h`g`j`g`g`h`u`g`u`u`u`h`u`j`g`j`h`y`j`j`j`j`y`o`j`c`o`m```m`z`z`z`z`j`j`g`h`j`j`j`y`j`g`h`i`h`j`j`j`y`j`y`j`y`j`y`j`y`j`y`y`y`j`y`j`y`h`g`g`u`r`u`r`p`f`q`p`f`q`b`q`b",
"`p`p`r`p`r`p`r`p`g`u`g`u`g`u`g`g`u`u`g`g`u`g`g`g`g`h`g`h`j`y`j`y`j`j`j`o`c`c`z`z`z`m`k`m`l`z`c`y`j`j`y`j`y`y`y`v`j`j`j`y`y`y`v`y`y`c`v`y`y`v`y`y`y`v`j`y`v`y`y`y`j`j`j`g`g`u`p`u`p`f`f`x`f`f`q`f",
"`f`r`f`p`f`r`p`r`u`g`r`g`u`g`r`u`r`r`r`u`g`g`j`h`j`g`j`j`y`h`y`j`o`z`c`c`z`z`z`k`l`m`l`m`z`z`z`o`y`j`j`y`y`v`c`y`j`y`y`j`y`y`v`y`v`y`c`y`z`y`y`v`y`c`y`v`y`c`y`z`y`v`y`h`i`h`u`r`p`r`p`f`p`p`p`p",
"`p`f`p`r`p`p`f`f`u`r`u`u`p`r`u`u`p`s`u`g`h`h`j`y`g`j`g`y`j`y`j`y`c`o`c`z`z`z`z`z`m`l`m`m`l`k`z`y`j`y`y`y`v`z`v`v`y`j`v`y`c`z`y`z`z```v`z`v`z```z```v```z`z`v```v`z`v`c`j`h`g`u`g`s`r`p`g`r`u`u`r",
"`f`p`p`f`r`f`p`p`r`s`p`p`r`s`r`p`r`r`u`g`g`j`y`y`j`h`j`j`y`y`y`j`z`z`z`z`z`k`z`l`l`m`m`l`m`z`z`z`y`y`z`v`c`c`z```y`y`y`z`v`v`z```v`z`c`v`c```v`y`z`z`v`y`z`z`z`c`````v`y`j`g`h`u`r`g`u`u`g`h`g`g",
"`r`p`r`u`p`p`r`u`r`r`u`r`g`r`g`u`u`r`g`u`h`j`h`j`j`y`j`y`j`j`j`y`z`c`z`z`l`z`k`a`m`m`m`m`k```k```z`v`y`y`v`v```l`j`v`v`y`y`c`z`y`z```z`z```y`z`z`````z```y`y`y`h`y`j`y`h`i`g`g`u`y`j`j`y`i`h`j`j",
"`p`u`u`p`r`u`p`r`p`s`r`u`u`g`u`g`u`u`g`h`g`j`y`y`y`y`z`y`y`v`y`j`z`k`z`k```a`l`k`m`m`l`m`m`k`m`k`z`z`z`y`c`z```a```y`c`z`z`v`y`z`v`y`v`y`z`v`c`v```z```v`y`j`h`j`y`j`h`i`h`h`g`h`j`h`y`h`j`y`i`y",
"`r`u`r`u`u`e`u`g`u`r`g`u`g`u`h`g`h`u`g`i`h`j`y`j`y`y`y`v`y`y`z`y`z`z```z`k`k`k`a`m`m`m`l`l`a```a`l```z`z`v`````z`z`z`v`y`y`j`j`y`g`h`i`j`y`y`v`y`z`v`c`j`y`h`i`j`g`h`j`h`i`y`j`j`h`y`i`y`h`j`y`h",
"`u`g`g`u`g`u`u`u`r`u`r`u`g`g`g`u`g`u`h`h`y`j`y`y`z`v`z`y`z`v`y`z`z`k`z`m`l```m`l`m`m`l`m`m`k`k`k`a`a`````z`z`z```v`y`y`j`h`g`g`r`r`u`g`u`g`j`y`j`y`y`j`y`j`j`h`g`u`g`u`g`j`j`y`y`y`j`h`j`y`y`h`j",
"`u`g`u`g`u`h`g`g`u`g`g`g`u`h`g`h`g`h`i`j`y`y`v`v`z```z`z`z```z`z`m`z`l`k`z`m`l`m`m`m`m`m`l`a`l```m`l`a`z```v`y`j`g`g`u`r`p`p`f`p`f`f`r`r`u`g`j`h`h`j`g`h`g`g`g`h`u`e`h`j`h`y`y`c`j`h`y`y`h`i`j`y",
"`g`g`h`g`h`i`h`g`u`g`u`u`h`g`h`i`j`j`j`y`v`c```z```z```z```z`````z`k`a```m`m`m`l`m`m`l`l`m`k`a`z`m`a`````z`y`h`g`u`r`s`r`f`f`q`f`p`p`p`u`u`r`g`u`g`g`u`g`g`h`u`g`u`u`g`u`y`y`j`v`j`y`j`j`y`h`y`j",
"`j`h`h`j`g`j`g`h`g`u`g`h`g`j`g`h`y`h`y`y`y`z`v`````````a```````k`z`l`k`m`l`m`m`m`m`m`m`m`l```k`m`l```m`z`v`i`g`u`r`p`r`s`p`r`p`p`r`p`r`p`r`s`r`u`u`u`e`u`u`u`g`u`g`h`g`j`j`h`y`y`j`y`g`y`j`y`h`y",
"`g`j`i`j`h`h`j`y`u`g`h`g`g`h`j`j`j`y`y`j`z`z```z```a`````a`l`a```l`a`l`l`m`l`m`m`m`m`l`m`m`k```z`a`````v`y`j`r`p`p`u`u`r`u`e`u`u`u`s`r`u`p`r`p`p`r`p`u`u`r`g`u`g`h`i`i`h`i`j`y`j`j`j`j`j`j`i`j`j",
"`h`u`h`g`g`u`r`r`g`g`r`g`u`u`r`p`g`j`h`y`v`v`z```a`m`m`m`l`````m`m`m`m`m`m`m`m`m`l`m`m`l`k`a`m`m`l`z`v`y`g`u`u`r`u`r`p`u`r`s`r`r`p`r`p`p`u`p`u`u`r`u`r`g`g`u`h`u`u`u`j`j`j`j`i`j`i`j`j`i`j`j`j`j",
"`g`g`g`u`u`u`g`u`u`u`u`u`r`p`p`u`h`u`i`y`y`c`````m`l```a`a`a`m```m`m`m`m`m`m`m`m`m`l`m`m`m`m`k`m`a```z`i`h`u`g`u`r`p`u`p`u`r`u`p`p`f`r`u`r`u`u`e`u`g`u`u`g`g`i`h`w`j`j`j`o`j`j`j`j`j`i`j`j`i`j`i",
"`i`h`j`g`h`g`u`u`g`r`s`r`r`s`r`f`g`h`h`j`y`v`c`v```a`a`l```l```m`m`l`m`m`m`m`l`m`l`m`k`a`l`l`m```k```v`j`g`h`u`g`p`u`p`r`p`r`p`u`r`s`r`p`u`r`g`u`g`u`g`h`g`h`h`i`u`i`j`c`j`j`j`o`j`j`o`j`j`j`j`j",
"`h`j`g`y`g`h`g`g`r`g`r`s`p`r`f`p`u`g`u`j`y`j`v`z`````z```a`a`a`l`m`m`l`m`l`m`m`l`m`m`l`m`m`m`m`m```z`y`y`g`g`u`g`u`p`r`u`u`p`u`r`p`r`p`u`r`g`u`u`g`h`g`g`j`g`y`j`j`j`j`o`z`c`o`j`c`j`j`y`o`j`o`o",
"`j`j`y`j`h`i`h`j`u`r`g`r`r`p`p`p`u`r`g`h`g`y`y`j```z`````z`l`m`a`l`m`a`k`m`a`k`m`k`m`m```k`m`m```z`z`y`j`h`g`j`h`p`r`u`p`p`u`p`s`r`u`r`u`u`u`g`h`i`g`h`j`j`j`j`y`j`j`o`z`c`z`z`c`j`o`z`o`o`y`z`y",
"`y`y`j`j`y`h`y`g`u`g`u`u`g`u`r`r`r`s`u`u`h`j`y`y`z`v`z`z```a```m`l`z`m```l`k`a`l`m`l`m`m`l`m`k`m`z`v`y`h`i`h`g`g`u`u`p`r`u`r`r`r`p`g`u`g`g`g`u`g`h`j`h`y`j`y`y`j`y`j`c`z`z`z`c`c`z`z`c`c`z`z`c`o",
"`v`c`v`y`j`j`j`y`g`j`g`h`u`u`u`g`f`r`r`g`g`j`h`y`v`y`z`````a`m`l`a`l`k`k`m```k`a`m`m`k`m`m`m```m`y`c`j`j`h`i`h`j`p`p`u`r`p`s`p`u`u`u`r`g`u`g`h`h`j`y`j`y`y`y`z`y`o`c`z`z`k`z`k`z`z`c`z`z`c`z`z`z",
"`y`v`y`y`y`y`y`j`h`g`j`g`g`g`g`u`p`p`u`u`g`h`i`j`y`y`z`z`````m`m```k```a`z`k`l`k`m`l`m`m`l`l`m`m`z`v`y`j`g`h`j`j`r`u`r`s`r`r`u`p`u`g`g`u`g`h`g`g`j`y`j`j`y`v`y`z`j`z`z`k```z`z`z`z`z`z`z`z`z`c`z",
"`z```z`z`y`z`y`y`j`y`g`h`h`j`g`j`u`r`p`r`u`u`h`j`g`j`h`y`v`z```m`z`k`z`o`z`c`z```z`a`l`z`m`z`z`c`j`y`j`g`h`i`y`y`g`g`g`h`u`u`r`r`r`p`f`r`r`u`j`j`y`j`y`y`z`y`z`z```k`z`z`z`k```k`l```k`z```k`m`m",
"`z`z```v`z`v`z`y`y`j`j`y`i`g`h`g`r`s`r`s`r`g`g`g`h`i`y`y`z`````k```z`c`z`c`z`z`k`k`l`z`m`l`z`z`o`v`y`j`h`i`h`y`j`h`j`g`u`g`u`g`u`p`r`p`p`u`g`h`j`y`v`y`v`y`z`z`c`z`z```k```z`k`z`m`m`k```k`z`l`k",
"`````z```v`c`y`v`z`v`y`j`h`h`u`u`u`r`p`r`p`u`g`h`j`j`y`y`v`y`v`z`z`z`z`c`j`c`z`z`z`z`k`k`z`z`c`y`y`j`y`i`h`j`j`y`h`g`j`g`g`h`u`u`p`s`p`u`p`g`h`i`j`y`y`y`z`v`c`z```z`k`z`z`l`z```l`k`a`z`z`l`m`l",
"`z`````z`z`v```c```z`c`y`j`i`g`h`g`u`u`p`u`r`u`u`y`h`y`j`j`j`y`j`c`z`c`j`z`z`z`c`z`o```z`z`z`o`j`j`j`h`h`j`y`y`y`j`j`g`h`j`g`g`h`u`r`r`r`u`u`g`h`y`v`j`z`y`z`v```z`k```k`z`z`k`z`m`l`k`z`k`a`k`a",
"```a`z`````z`z`v```a```v`y`h`g`g`u`u`e`u`r`u`g`g`h`j`i`h`y`y`j`y`z`o`z`z`o`c`j`z`c`z`o`z`c`c`j`j`j`g`j`y`y`j`y`y`j`j`j`y`g`j`h`g`u`r`s`p`r`u`g`u`y`y`y`y`v`y`z`c`z```z`z`l`z```z`l`k```z```k`l`m",
"```l```a`z`````z`````z`y`z`y`j`j`g`h`u`p`s`r`u`r`g`g`h`i`h`g`j`j`j`y`o`c`z`v`c`j`o`y`z`o`v`o`j`w`g`h`i`j`y`y`j`v`y`y`v`j`j`h`i`h`g`u`e`r`s`u`g`g`j`v`j`v`c`z`z`z`z`k`z`l`z`z`k`z`m`a`k`z`k`l`a`m",
"`a`a`m`z`a```z```z```z```y`c`v`y`h`g`u`u`r`p`p`u`u`u`r`h`i`j`y`y`j`o`z`z`c`o`o`j`y`o`y`z`o`j`j`i`u`g`h`y`v`c`v`c`v`c`y`j`y`y`j`y`u`g`u`u`r`r`u`u`y`y`v`c`v`y```z```z`k`z`z`l`z`l`l`k`a`k```z`k`m",
"`l`l`````l`z```z```z`z`z`z`z`c`v`i`g`u`r`p`r`u`r`p`p`u`u`h`y`y`j`j`j`y`z`z`j`j`j`j`j`o`y`j`j`i`u`u`u`j`y`y`v`y`y`v`y`v`y`v`j`y`j`g`u`r`p`p`u`r`g`y`j`y`y`y`z`y`z`z`k```k`z`z`z`z`m```k`z`z`l`a`l",
"`m`m`m`m`m`m`m`l`z`z```z`z`c`v`o`h`g`h`g`u`u`r`g`u`h`g`g`j`j`y`y`j`i`j`i`j`j`j`i`j`j`y`c`j`j`g`u`r`g`h`y`z`z`y`j`c`z`y`c`y`z`y`y`y`h`j`i`h`u`g`u`h`y`j`v`z`z`z```z`z`z```k`l`l`k`a`k`m`m`m`l`m`m",
"`m`m`m`m`m`m`m`m`z`z`k`l`z`z`c`j`w`h`i`u`g`u`g`r`g`g`h`h`i`h`j`j`g`h`g`h`g`h`g`h`g`h`h`j`h`g`u`r`p`u`y`v`z`y`y`j`v`y`v`v`z`y`v`z`j`y`h`h`g`u`u`r`y`j`y`y`y`v```z`c`z`z`k```z`z`a`l`m`l`a`k`m`m`m",
"`m`m`l`m`m`m`m`m`z```k`z`l`z`c`z`h`u`g`g`h`u`u`u`u`g`u`g`h`h`i`h`g`u`g`g`u`g`u`u`u`u`g`u`g`u`r`p`u`u`j`y`c`v`j`y`v`z`y`c`y`v`c`y`y`j`y`i`g`h`g`u`j`h`y`j`v`z`z`z`z`c`z`z`k`l`k`l`k`z`z`k`l`m`m`m",
"`l`m`m`l`m`l`l`m`z`k```m`z`k`z`y`i`h`j`h`u`g`g`g`h`u`g`u`u`g`h`u`u`r`u`r`u`p`u`g`p`r`r`p`r`p`f`p`h`g`j`y`v`y`y`h`c`y`z`v`v`c`v`v`j`y`j`h`h`g`u`g`h`i`i`y`y`y`v`c`j`z`z`c`z`z```z`z`l`m`l`a`m`k`m",
"`m`z`l`m`k`a`m`z`k```m`z`m`z`c`z`j`y`g`i`g`h`u`u`g`u`g`h`g`u`u`g`p`p`p`f`r`r`p`f`r`f`f`p`f`p`r`p`i`h`y`y`j`y`j`y`v`z`y`y`c`v`c`y`y`y`j`j`i`g`g`u`u`h`h`j`j`j`y`z`z`c`o`z`z`z`k`z`l`z`z`z`m`l`l`z",
"`k`l`m`z`m`k`m`l```m`k`l`m`z`z`c`j`g`y`h`h`i`g`h`g`h`i`g`u`g`g`u`r`u`r`u`p`s`r`r`p`p`p`f`p`r`u`u`j`y`h`i`v`j`j`g`c`y`v`z`v`y`v`z`y`j`y`y`h`j`g`h`g`u`g`g`h`y`y`y`j`o`z`z`c`z`z`k`z`c`k`l`k`z`m`m",
"```m`z`m`l```k`a`k`k```m`k`a`k`z`j`j`h`j`g`g`h`g`j`j`g`h`g`h`u`g`r`p`p`p`r`r`p`s`u`r`u`p`r`g`g`h`y`j`j`y`i`h`y`y`v`v`c`y`c`v`c`y`z`v`y`j`j`g`h`g`u`r`u`h`i`h`j`j`o`v`c`j`z`c`z`c`z`z`z`z`z`m`z`l",
"`k`z`l`k`z`k```k`a`m`m`m```k```z`j`y`j`i`j`h`g`i`v`j`y`j`j`g`g`u`r`u`r`u`s`p`u`r`u`g`p`r`u`u`h`j`v`y`j`j`h`y`j`j`y`c`v`z`v`c`v`v`y`y`y`j`h`j`g`g`u`g`g`g`h`i`y`j`y`c`o`z`c`z`z`z`z`c`z`l`l`z`l`k",
"`z`l`z`a`m`m`m`m`k`l`m`k`m`k`z`z`j`y`y`v`v`c```v`c`v`y`j`g`h`h`g`u`g`u`r`r`u`p`p`r`r`u`u`g`g`j`g`i`g`h`u`g`u`g`h`y`v`y`j`y`v`y`j`z`z`z`y`y`j`y`h`i`h`i`h`g`h`g`j`j`j`j`j`j`o`j`j`c`z`o`z`z`l`z`z",
"`z`z`l`k`z`l`k`a`l`a`l`m`l`a`z`c`c`v`y`y`c`v`v`c`v`y`v`y`j`i`g`j`g`u`u`g`u`r`r`u`u`g`g`u`h`g`h`h`j`y`g`h`g`h`j`j`y`y`j`y`j`y`j`y`v`y`y`y`j`y`j`j`y`j`h`j`y`j`j`j`y`o`j`c`j`j`j`o`y`c`z`z`k`z`z`z",
"`z`k`z```l`m`l`m`z`k`m`a`k`z`k`z`j`y`y`z`v`z`z`z`v`c`y`j`y`h`h`g`g`h`g`u`u`g`u`e`u`u`u`g`u`h`g`i`j`g`h`g`u`i`h`g`j`y`y`v`y`j`y`y`j`h`j`j`y`j`y`v`j`y`j`y`j`j`y`j`j`o`c`j`v`o`c`o`j`o`z`z`z`c`z`c",
"`z`z`c`k`z`z`m`z`l`m`k`m`l`z`z`y`c`v`c`v`c`z`````y```v`y`j`j`i`h`h`g`g`g`h`u`u`u`g`g`h`g`h`g`w`h`h`j`g`u`h`h`i`j`y`y`j`j`j`y`y`j`h`i`y`y`y`y`v`y`y`j`y`j`y`y`v`y`c`y`v`o`c`o`y`v`j`j`c`c`z`z`z`o",
"`c`z`z`z`l`k`z`l`z`z```k`a`z`c`z`v`c`v`v`z`````z`z`v`c`y`y`j`h`i`j`y`j`h`g`g`g`g`h`g`i`g`g`j`h`u`j`g`g`g`g`g`h`h`j`g`j`y`y`j`h`j`g`h`i`h`j`y`y`y`j`v`y`v`y`y`j`z`j`o`o`c`j`z`o`o`j`j`j`c`v`o`o`y",
"`z`z`o`z`z```l`z`z`l`k```k`z`z`o`c`v`z```````z`a```z`v`z`y`y`j`h`y`j`h`i`j`h`i`h`j`j`h`h`h`g`g`h`g`u`u`r`p`u`g`g`h`j`y`g`h`y`i`y`h`i`h`j`y`h`j`j`y`y`h`y`j`j`y`j`j`j`j`j`j`i`j`j`i`w`j`o`c`j`y`o",
"`o`y`z`z`z`k`z`k`z`z`z`l`z`z`c`j`z```c`z`z`z`a```z```z`y`v`j`y`j`y`y`j`y`h`g`h`g`y`y`j`y`g`w`h`u`u`s`r`p`f`r`u`p`j`y`g`j`j`h`h`i`j`h`y`g`h`i`h`j`i`j`y`i`h`y`j`i`j`i`h`w`j`j`i`j`w`h`j`j`j`o`j`i",
"`c`z`z`o`z`z`z```z`c```z`z`z`j`y`z`z`z`````````z`l`z```z`y`y`o`y`j`y`v`j`y`j`j`y`j`j`j`i`h`h`g`g`r`r`f`f`p`p`f`u`h`g`j`h`g`i`j`h`y`j`j`h`j`g`g`g`h`g`h`h`j`h`g`j`g`j`j`j`u`i`h`w`u`w`i`j`j`j`j`j",
"`j`j`y`z`c`z```z`z`z`z`z`c`z```z`z`z`z`l`k`a`m`l`z`z`z`z`k`z`z`z`c`j`y`j`j`y`j`j`y`v`y`v`y`g`p`f`p`f`r`r`p`f`p`r`j`j`h`g`j`h`g`g`h`g`g`u`p`r`q`f`u`u`u`g`g`u`s`u`p`d`p`f`u`r`d`r`u`r`u`u`g`j`i`j",
"`j`y`y`y`v`c`v`z`c```v`c```v`c`z`z`l```k`a`k`m`m`z`l`z`z```k```z`v`y`y`v`y`y`v`y`y`z`y`c`j`u`r`p`r`p`p`f`r`p`r`f`i`g`j`h`g`u`g`u`u`r`u`r`p`f`p`x`p`r`u`r`g`u`r`r`p`p`r`p`f`p`p`p`p`p`r`u`g`u`h`g",
"`h`h`j`j`y`v`c```v`y`z```v`c`v`z```z`k```m`m`l`l`z`z`k```k```k`z`c`y`c`y`y`v`y`c`y`y`z`v`y`g`u`f`p`u`r`s`p`r`p`u`h`h`g`g`u`g`r`g`r`p`f`p`p`f`f`f`p`p`u`u`p`r`p`p`f`f`q`f`x`f`f`f`f`p`f`p`r`g`u`g",
"`u`g`g`j`y`j`v`y`z`z```y`z```z```z`k```k`k`a`m`m`k`l`a`k`a`k`z`a`z`v`v`z`v`y`z`v`z`v`z`y`y`j`r`p`r`r`p`r`u`r`u`p`u`g`g`u`g`u`u`u`b`f`p`f`p`p`r`r`p`f`r`p`r`u`p`f`q`p`p`p`f`p`q`r`q`f`p`f`p`f`r`p",
"`p`u`u`g`j`y`j`z```v`v`z`v`y`z`z`z`z`z`l```k`m`l`z`a`k`a`k`a`l`k`z`z`z```z`z`z```y```v`z`y`g`u`f`p`s`r`u`p`s`p`r`g`u`u`u`r`r`r`p`f`b`q`f`f`r`p`s`f`r`p`u`s`p`f`f`p`f`f`f`p`f`p`f`p`q`f`x`p`p`f`p",
"`f`p`r`g`h`h`y`y`v`c```c```z`y`z```k`l`k`a`m`m`m`m`k`l`m`l`k`m```l`````z```z```z`z`z```v`y`j`e`p`u`r`s`r`r`u`e`u`r`g`r`p`u`p`f`r`q`p`f`p`p`p`r`r`f`p`r`r`r`r`r`p`r`p`p`p`r`p`p`p`q`p`q`f`f`f`x`f",
"`b`f`p`r`u`i`y`j`z```v`z`y`v```c`z`z`z`a`k`l`k`m`l`l`a`k`m`a`m`m`z`a`````a```````v`````z`z`h`u`r`u`g`r`u`g`r`u`r`s`p`u`r`p`p`p`f`p`f`r`p`r`u`p`u`p`r`u`g`u`g`s`p`u`r`u`r`r`u`r`u`f`f`p`f`q`q`f`p",
"`b`q`f`u`g`h`j`y`v`v`c`v```z`z`z`z`z`l`k`l`m```m`m`m`m`l`m`l`k`m`````z`m`````a`l`z```z```y`j`g`p`u`r`u`u`p`u`u`s`r`r`r`p`p`f`f`p`r`u`p`u`r`p`u`p`r`u`u`g`u`r`r`u`r`u`e`u`s`g`u`r`p`r`f`p`p`p`f`q",
"`r`u`p`p`p`u`g`j`j`j`j`j`y`v```l`m`l`z`c`z`z`m`l`m`m`l`m`m`m```m`l`a```v`y`z`v`z`````l`v`h`g`u`g`r`u`g`g`j`g`u`r`u`p`s`s`r`r`s`r`p`f`r`p`p`u`r`u`g`u`g`u`g`g`u`g`u`g`u`r`u`p`r`p`p`f`p`f`f`f`r`p",
"`u`p`f`r`r`u`g`h`g`g`g`g`j`j`y`z`z`z`z`z`z`l`k`a`l`m`m`m`l`z`m`k`a`m```z```z```a```m`a`z`i`u`e`u`u`g`h`h`g`u`h`u`p`r`r`r`r`s`r`u`p`p`u`r`u`r`g`g`u`g`u`h`u`u`h`u`g`u`u`g`r`u`r`s`p`r`r`p`p`r`s`f",
"`p`r`p`f`p`u`u`g`u`r`u`r`g`g`h`y`z`c`z```k`m```k`m`k`m`z`m`l`m`l`m```m`````m`m`m`a```````h`g`u`g`g`u`g`g`j`g`g`u`r`u`s`r`s`e`u`p`p`r`p`r`u`u`u`u`g`h`g`g`h`i`g`h`g`g`h`u`u`g`u`r`r`p`s`p`r`p`p`r",
"`r`p`r`s`r`r`p`u`p`r`p`f`f`u`u`u`j`o`z`k`l`z`k`z`z`l`z`m`z`m`z`m`a`````m```a`n`n`a`n`m`z`j`g`u`g`u`g`h`j`g`h`u`u`g`u`r`u`r`u`r`u`r`u`u`u`g`h`g`g`h`g`i`h`g`g`j`g`h`i`g`h`g`u`g`u`p`u`r`r`u`r`u`r",
"`p`u`u`r`u`p`r`r`p`f`f`x`p`x`r`s`u`j`j`c`z`z`z`z`c`z`k`l`m`l`m`l`m`a`m`a`n`n`n`n`m`a`n`z`y`h`g`h`u`h`g`j`y`g`g`h`u`r`u`g`g`u`g`u`g`g`u`g`g`g`g`h`j`j`h`j`j`y`h`j`h`j`h`i`h`g`g`h`u`u`u`g`u`g`u`g",
"`u`g`u`g`g`u`s`f`p`p`f`f`f`f`p`u`r`u`w`j`j`c`j`c`z`o```z`z`m`m`a`m`m```l`m`m`n`n`a`m`a```j`g`u`h`g`g`j`g`j`h`g`g`u`g`h`r`u`g`r`h`u`u`g`g`h`h`j`j`y`j`y`y`y`j`j`y`y`y`j`h`h`i`h`g`g`g`h`u`g`u`u`g",
"`u`g`h`g`h`g`r`r`u`p`r`p`f`p`f`r`d`s`u`u`u`j`o`y`z`z`o`z`l`k`m`l`n`m`m`a```a`m`m`n`m`n```v`g`j`i`h`j`h`j`y`i`h`j`g`u`g`u`g`u`g`u`h`h`g`h`j`i`y`h`y`y`j`j`j`v`y`j`j`j`y`y`i`h`g`j`h`u`g`j`g`g`h`u",
"`g`h`j`j`j`g`u`p`u`r`p`f`p`p`r`s`f`f`f`f`s`u`j`o`j`c`z`z`k```m`m`m`n`a`````z`````m`n`m```j`h`g`h`g`g`j`j`j`h`g`g`u`g`u`g`u`g`u`g`g`g`h`i`j`h`j`j`y`j`y`y`y`y`j`y`y`y`j`j`h`j`j`g`g`g`h`g`u`h`g`g"
};
