#define door_3_2_width 24
#define door_3_2_height 24
static char door_3_2_bits[] = {
0x00,0xbf,0x00,0x00,0xbf,0x00,0x00,0xbf,0x00,0x00,0xbf,0x00,
0x00,0xbf,0x00,0x00,0xbf,0x00,0x00,0xbf,0x00,0x00,0xbf,0xff,
0x00,0x3f,0x00,0x00,0xbf,0xff,0x00,0xbf,0xff,0x00,0xbf,0xff,
0x00,0xbf,0xff,0x00,0xbf,0xff,0x00,0xbf,0xff,0x00,0xbf,0xff,
0x00,0xbf,0xff,0x00,0xbf,0xff,0x00,0xbf,0x00,0x00,0xbf,0x00,
0x00,0xbf,0x00,0x00,0xbf,0x00,0x00,0xbf,0x00,0x00,0xbf,0x00};
