/* XPM */
static char *bed2_recol_xpm[] = {
/* width height ncolors chars_per_pixel */
"32 32 10 1",
/* colors */
"  c black",
". c tan",
"X c wheat",
"o c lavender",
"O c gainsboro",
"+ c firebrick",
"@ c peru",
"# c violet",
"$ c grey",
"% c sienna",
/* pixels */
"$$$$$$$$$$$$$$$$$$$$$$$$$$$$$$$$",
"$$$$$$$$$$$$$$$$$$$$$$$$$$$$$$$$",
"$$$$$$$$$$$$$$$$$$$$$$$$$$$$$$$$",
"$$$$$$$$$$$$$$$$$$$$$$$$$$$$$$$$",
"$$$$$$$$$$$$$$$$$$$$$$$$$$$$$$$$",
"$$$$$$$$$$$$$$$$$$$$$$$$$$$$$$$$",
"$$$$$$$$$$$%%+%$$$$$$$$$$$$$$$$$",
"$$$$$$$$$  +%%+  $$$$$$$$$$$$$$$",
"$$$$$+$$ +%++% +  $$+$$$$$$$$$$$",
"$$$$$   % +%+ +%++   $$$$$$$$$$$",
"$$$$$ %+++%+%+ +% +% $$$$$$$$$$$",
"$$$$$ +%oOOOoXoOX$%+ $$$$$$$$$$$",
"$$$$$ %.o$#X#$X$OX$+ $$$$$$$$$$$",
"$$$$$ %XOX$#$#$X#O.% $$$$$$$$$$$",
"$$$$$ +++%++%%+%+%++++%$$$$$$$$$",
"$$$$%++%%+++%+++@+%++%@%$$$$$$$$",
"$$$$@+++++%%+++%++@%++%+%$$$$$$$",
"$$$$+%%@++@+%+%+%+%++%%+%%$$$$$$",
"$$$$++%++@+++++++%+%++%++%+$$$$$",
"$$$$@++%%+%%% %% % +%+ %%  %$$$$",
"$$$$$ +%+ %+%++%%+%%+%%%+%%+$$$$",
"$$$$$$+ % +%%+%+%%+%%%+%+%+%$$$$",
"$$$$$$$++%%+%%+%%%+%+%%%%%%+$$$$",
"$$$$$$$$% +%%+%%++%%+%+%%++%$$$$",
"$$$$$$$$+%%%+%%+%+%%%+%%++%+$$$$",
"$$$$$$$$$                  %$$$$",
"$$$$$$$$$$                 +$$$$",
"$$$$$$$$$$$$$$$$$$$$$$$$$$$$$$$$",
"$$$$$$$$$$$$$$$$$$$$$$$$$$$$$$$$",
"$$$$$$$$$$$$$$$$$$$$$$$$$$$$$$$$",
"$$$$$$$$$$$$$$$$$$$$$$$$$$$$$$$$",
"$$$$$$$$$$$$$$$$$$$$$$$$$$$$$$$$"
};
