#define mail_width 64
#define mail_height 54
static unsigned char mail_bits[] = {
   0x00, 0x00, 0x00, 0x00, 0x00, 0x00, 0x00, 0x00, 0x00, 0x00, 0x00, 0x00,
   0x00, 0x00, 0x00, 0x00, 0x00, 0x00, 0x00, 0x00, 0x00, 0x00, 0x00, 0x00,
   0x00, 0x00, 0x00, 0x00, 0x00, 0x00, 0x00, 0x00, 0x00, 0x00, 0x00, 0x00,
   0x00, 0x00, 0x00, 0x00, 0x00, 0x00, 0x00, 0x00, 0x00, 0x00, 0x00, 0x00,
   0x00, 0x00, 0x00, 0x00, 0x00, 0x00, 0x00, 0x00, 0x00, 0x00, 0x00, 0x00,
   0x00, 0x00, 0x00, 0x00, 0x00, 0x00, 0x00, 0x00, 0x00, 0x00, 0x00, 0x00,
   0x00, 0x00, 0x00, 0x00, 0x00, 0x00, 0x00, 0x00, 0x00, 0x00, 0x00, 0x00,
   0x00, 0x00, 0x00, 0x00, 0x00, 0x00, 0x00, 0x00, 0x00, 0x00, 0x00, 0x00,
   0x00, 0x00, 0xff, 0xff, 0xff, 0xff, 0x07, 0x00, 0x00, 0x80, 0x0c, 0x00,
   0x00, 0x00, 0x0c, 0x00, 0x00, 0x40, 0x10, 0x00, 0x00, 0x00, 0x08, 0x00,
   0x00, 0x40, 0x10, 0x00, 0x00, 0x00, 0x10, 0x00, 0x00, 0x40, 0x20, 0xc7,
   0x01, 0x00, 0x10, 0x00, 0x00, 0x40, 0x20, 0xc6, 0x20, 0x00, 0x30, 0x00,
   0x00, 0x40, 0x23, 0xaa, 0x50, 0x9c, 0x20, 0x00, 0x00, 0x40, 0x24, 0x92,
   0x88, 0x88, 0x20, 0x00, 0x00, 0x40, 0x28, 0x92, 0x88, 0x88, 0x20, 0x00,
   0x00, 0x40, 0x20, 0x82, 0xf8, 0x88, 0x20, 0x00, 0x00, 0x40, 0x20, 0x82,
   0x88, 0x88, 0x24, 0x00, 0x00, 0x40, 0x20, 0x82, 0x88, 0x88, 0x23, 0x00,
   0x00, 0x40, 0x20, 0x82, 0x88, 0x1c, 0x20, 0x00, 0x00, 0x40, 0x20, 0x82,
   0xc8, 0x01, 0x38, 0x00, 0x00, 0xc0, 0x20, 0x82, 0x1c, 0x00, 0x0f, 0x00,
   0x00, 0x40, 0x21, 0xc2, 0x01, 0xe0, 0x00, 0x00, 0x00, 0x80, 0x22, 0x07,
   0x00, 0x1e, 0x00, 0x00, 0x00, 0x00, 0x25, 0x00, 0xe0, 0x01, 0x00, 0x00,
   0x00, 0x00, 0x2a, 0x00, 0x3f, 0x00, 0x00, 0x00, 0x00, 0x00, 0x34, 0xe0,
   0x21, 0x00, 0x00, 0x00, 0x00, 0x00, 0x28, 0x38, 0x22, 0x00, 0x00, 0x00,
   0x00, 0x00, 0x30, 0x46, 0x22, 0x00, 0x00, 0x00, 0x00, 0x00, 0xe0, 0x41,
   0x22, 0x00, 0x00, 0x00, 0x00, 0x00, 0x00, 0x40, 0x22, 0x00, 0x00, 0x00,
   0x00, 0x00, 0x00, 0x40, 0x22, 0x00, 0x00, 0x00, 0x00, 0x00, 0x00, 0x40,
   0x22, 0x00, 0x00, 0x00, 0x00, 0x00, 0x00, 0x40, 0x22, 0x00, 0x00, 0x00,
   0x00, 0x00, 0x40, 0x59, 0x22, 0x00, 0x00, 0x00, 0x00, 0x00, 0x80, 0x49,
   0x22, 0x00, 0x00, 0x00, 0x00, 0x00, 0x40, 0x4b, 0x22, 0x00, 0x00, 0x00,
   0x00, 0x00, 0xe0, 0x4e, 0x22, 0x00, 0x00, 0x00, 0x00, 0x00, 0x00, 0x4f,
   0x22, 0x0c, 0x00, 0x00, 0x00, 0x00, 0x00, 0x5a, 0xa2, 0x07, 0x00, 0x00,
   0x00, 0x00, 0xc0, 0x77, 0x62, 0x33, 0x00, 0x00, 0x00, 0x00, 0xc0, 0x61,
   0xf2, 0x20, 0x00, 0x00, 0x00, 0x00, 0x40, 0x60, 0xb2, 0x00, 0x00, 0x00,
   0x00, 0x00, 0x00, 0x40, 0x7a, 0x00, 0x00, 0x00, 0x00, 0x00, 0x00, 0x40,
   0x1a, 0x00, 0x00, 0x00, 0x00, 0x00, 0x00, 0xc0, 0x2a, 0x00, 0x00, 0x00,
   0x00, 0x00, 0x00, 0x80, 0x27, 0x00, 0x00, 0x00, 0x00, 0x00, 0x00, 0x00,
   0x03, 0x00, 0x00, 0x00, 0x00, 0x00, 0x00, 0x00, 0x00, 0x00, 0x00, 0x00};
