#define noname_width 48
#define noname_height 48
static char noname_bits[] = {
 0x00,0x00,0x00,0x00,0x00,0x00,0x00,0x00,0x00,0x00,0x00,0x00,0x00,0x00,0x00,
 0x00,0x00,0x00,0x00,0x00,0x00,0x00,0x00,0x00,0x00,0x00,0x80,0x08,0x00,0x00,
 0x00,0x00,0x00,0x05,0x00,0x00,0x00,0x00,0x00,0x30,0x00,0x00,0x00,0x00,0x00,
 0x02,0x00,0x00,0x00,0x00,0x00,0x02,0x00,0x00,0x00,0x00,0x00,0x01,0x00,0x00,
 0x00,0x00,0x00,0x01,0x00,0x00,0x00,0x00,0x80,0x00,0x00,0x00,0x00,0x00,0x80,
 0x00,0x00,0x00,0x00,0x00,0xe0,0x03,0x00,0x00,0x00,0x00,0xe0,0x03,0x00,0x00,
 0x00,0x00,0xe0,0x03,0x00,0x00,0x00,0x00,0xe0,0x03,0x00,0x00,0x00,0x00,0xf8,
 0x07,0x00,0x00,0x00,0x00,0xfc,0x1f,0x00,0x00,0x00,0x00,0xff,0x7f,0x00,0x00,
 0x00,0x80,0xff,0xff,0x00,0x00,0x00,0xc0,0xff,0xff,0x01,0x00,0x00,0xe0,0xff,
 0xff,0x03,0x00,0x00,0xe0,0xfe,0xff,0x03,0x00,0x00,0xf0,0xfe,0xff,0x07,0x00,
 0x00,0x70,0xfe,0xff,0x07,0x00,0x00,0x78,0xff,0xff,0x0f,0x00,0x00,0x38,0xff,
 0xff,0x0f,0x00,0x00,0x38,0xff,0xff,0x0f,0x00,0x00,0x38,0xff,0xff,0x0f,0x00,
 0x00,0x38,0xff,0xff,0x0f,0x00,0x00,0x78,0xff,0xff,0x0f,0x00,0x00,0x78,0xfe,
 0xff,0x0f,0x00,0x00,0xf0,0xfe,0xff,0x07,0x00,0x00,0xf0,0xfe,0xff,0x07,0x00,
 0x00,0xe0,0xff,0xff,0x03,0x00,0x00,0xe0,0xff,0xff,0x03,0x00,0x00,0xc0,0xff,
 0xff,0x01,0x00,0x00,0x80,0xff,0xff,0x00,0x00,0x00,0x00,0xff,0x7f,0x00,0x00,
 0x00,0x00,0xfc,0x1f,0x00,0x00,0x00,0x00,0xf0,0x07,0x00,0x00,0x00,0x00,0x00,
 0x00,0x00,0x00,0x00,0x00,0x00,0x00,0x00,0x00,0x00,0x00,0x00,0x00,0x00,0x00,
 0x00,0x00,0x00,0x00,0x00,0x00,0x00,0x00,0x00,0x00,0x00,0x00,0x00,0x00,0x00,
 0x00,0x00,0x00};
