#define finance_width 48
#define finance_height 48
static char finance_bits[] = {
   0x00, 0x00, 0x00, 0x00, 0x00, 0x00, 0x00, 0xff, 0x00, 0x00, 0x00, 0x00,
   0xc0, 0x83, 0x07, 0x00, 0x00, 0x00, 0xe0, 0x00, 0x0c, 0x00, 0x00, 0x00,
   0x78, 0x00, 0x1c, 0x00, 0x00, 0x00, 0x38, 0x00, 0x39, 0x00, 0x00, 0x00,
   0x1c, 0x02, 0x30, 0x00, 0x00, 0x00, 0x1c, 0x01, 0x64, 0x00, 0x00, 0x00,
   0x0e, 0x0d, 0x68, 0xf8, 0x0f, 0x00, 0x0e, 0x11, 0x68, 0x0e, 0x1c, 0x00,
   0x0e, 0x01, 0xe0, 0x03, 0x70, 0x00, 0x0e, 0x06, 0xe0, 0x00, 0xe0, 0x00,
   0x0e, 0x18, 0x78, 0x00, 0xc2, 0x01, 0x0e, 0xc0, 0x30, 0x00, 0x84, 0x01,
   0x0e, 0x40, 0x38, 0x00, 0x08, 0x03, 0x1e, 0x80, 0x18, 0x80, 0x08, 0x03,
   0x1c, 0x08, 0x0c, 0x50, 0x0e, 0x03, 0x3c, 0x18, 0x08, 0xa0, 0x04, 0x03,
   0x38, 0xe0, 0x0e, 0x80, 0x01, 0x03, 0x70, 0x00, 0x2d, 0x40, 0x02, 0x03,
   0xe0, 0x01, 0x06, 0x40, 0x06, 0x03, 0xc0, 0x87, 0x07, 0x80, 0x04, 0x03,
   0x00, 0xff, 0x26, 0x00, 0x04, 0x01, 0x00, 0x00, 0x26, 0x10, 0xf4, 0x03,
   0x00, 0x00, 0x26, 0x10, 0xfe, 0x07, 0x00, 0x00, 0x04, 0xa4, 0x07, 0x0c,
   0x00, 0x00, 0x2c, 0xe0, 0x20, 0x18, 0x00, 0x00, 0x4c, 0x38, 0x01, 0x32,
   0x00, 0x00, 0xd8, 0x8c, 0x80, 0x31, 0x00, 0x00, 0x18, 0x47, 0x84, 0x71,
   0x00, 0x00, 0x70, 0x33, 0x98, 0x70, 0x00, 0x00, 0xe0, 0x09, 0x8c, 0x70,
   0x00, 0x00, 0xc0, 0x04, 0xe2, 0x58, 0x00, 0x00, 0x60, 0x04, 0x04, 0x78,
   0x00, 0x00, 0x20, 0x00, 0x06, 0x2c, 0x00, 0x00, 0x30, 0x80, 0x00, 0x3e,
   0x00, 0x00, 0x10, 0x98, 0x02, 0x1b, 0x00, 0x00, 0x18, 0x96, 0x82, 0x0f,
   0x00, 0x00, 0x18, 0x02, 0xc1, 0x06, 0x00, 0x00, 0x18, 0x1e, 0xe1, 0x03,
   0x00, 0x00, 0x18, 0x78, 0xb8, 0x01, 0x00, 0x00, 0x10, 0x00, 0xfc, 0x00,
   0x00, 0x00, 0x30, 0x00, 0x37, 0x00, 0x00, 0x00, 0xe0, 0xf0, 0x1d, 0x00,
   0x00, 0x00, 0xc0, 0xbf, 0x07, 0x00, 0x00, 0x00, 0x80, 0xf7, 0x01, 0x00,
   0x00, 0x00, 0x00, 0x3e, 0x00, 0x00, 0x00, 0x00, 0x00, 0x00, 0x00, 0x00};
