#define colonel_width 48
#define colonel_height 48
static char colonel_bits[] = {
   0x00, 0x00, 0xfc, 0x0f, 0x00, 0x00, 0x00, 0xe0, 0xc7, 0x38, 0x00, 0x00,
   0x00, 0x30, 0x00, 0xe0, 0x01, 0x00, 0x00, 0x10, 0x00, 0x80, 0x01, 0x00,
   0x00, 0x90, 0x20, 0x03, 0x02, 0x00, 0x00, 0x90, 0xf9, 0x3f, 0x06, 0x00,
   0x00, 0xbc, 0xf1, 0x21, 0x0c, 0x00, 0x00, 0x86, 0x23, 0x00, 0x10, 0x00,
   0x00, 0xc2, 0x0f, 0x00, 0x26, 0x00, 0x00, 0xe3, 0x00, 0x00, 0x2c, 0x00,
   0x00, 0xf3, 0x00, 0x00, 0xec, 0x01, 0x00, 0x71, 0x00, 0x00, 0xcc, 0x01,
   0x00, 0x71, 0x00, 0x00, 0x0c, 0x01, 0x00, 0x71, 0x00, 0x00, 0xfc, 0x01,
   0x00, 0x7b, 0x01, 0x1c, 0xbc, 0x01, 0x80, 0xf9, 0x07, 0x02, 0xfc, 0x01,
   0x80, 0xf9, 0x0f, 0xfe, 0xfd, 0x01, 0x00, 0xff, 0xb9, 0x03, 0x3f, 0x03,
   0x00, 0xfe, 0xff, 0x7f, 0x19, 0x03, 0x00, 0xfe, 0x3d, 0x07, 0x78, 0x03,
   0x00, 0xbe, 0x10, 0x87, 0x70, 0x01, 0x00, 0x5e, 0x01, 0x02, 0xb0, 0x01,
   0x00, 0x9e, 0x08, 0x3c, 0xb0, 0x00, 0x00, 0x1e, 0x08, 0x00, 0xd0, 0x00,
   0x00, 0x3c, 0x3c, 0x19, 0xd0, 0x00, 0x00, 0xfc, 0xf3, 0x73, 0x40, 0x00,
   0x00, 0xfc, 0x01, 0xe0, 0x70, 0x00, 0x00, 0x78, 0x60, 0x80, 0x30, 0x00,
   0x00, 0xf0, 0xfb, 0x61, 0x10, 0x00, 0x00, 0xf0, 0xef, 0x4e, 0x10, 0x00,
   0x00, 0xe0, 0xff, 0x01, 0x08, 0x00, 0x00, 0xe0, 0x03, 0x00, 0x08, 0x00,
   0x00, 0xc0, 0x03, 0x01, 0x0c, 0x00, 0x00, 0x80, 0x0b, 0x62, 0x07, 0x00,
   0x00, 0x00, 0x0f, 0xe2, 0x01, 0x00, 0x00, 0x00, 0x0e, 0x7e, 0x00, 0x00,
   0x00, 0x00, 0x0e, 0x3f, 0x00, 0x00, 0x00, 0x00, 0x8e, 0x0f, 0x00, 0x00,
   0x00, 0x00, 0xdc, 0x07, 0x00, 0x00, 0x00, 0x80, 0xff, 0x03, 0x00, 0x00,
   0x00, 0x80, 0xff, 0x1f, 0x00, 0x00, 0x00, 0x80, 0xff, 0x0f, 0x00, 0x00,
   0x00, 0x00, 0xfc, 0x0f, 0x00, 0x00, 0x00, 0x00, 0x7c, 0x06, 0x00, 0x00,
   0x00, 0x00, 0x7e, 0x00, 0x00, 0x00, 0x00, 0x00, 0x77, 0x00, 0x00, 0x00,
   0x00, 0x80, 0x73, 0x00, 0x00, 0x00, 0x00, 0x80, 0x71, 0x00, 0x00, 0x00};
