#define noname_width 48
#define noname_height 48
static char noname_bits[] = {
 0x00,0x00,0x00,0x00,0x00,0x00,0x00,0x00,0x00,0x00,0x00,0x00,0x00,0x00,0x00,
 0x00,0x00,0x00,0x00,0x00,0x00,0x00,0x00,0x00,0x00,0x00,0x00,0x00,0x00,0x00,
 0x10,0x00,0x00,0x00,0x00,0x00,0x10,0x00,0x00,0x00,0x00,0x00,0x30,0x00,0x00,
 0x00,0x00,0x00,0x30,0x00,0x00,0x00,0x00,0x00,0x30,0x00,0x80,0x3f,0x00,0x00,
 0x60,0x00,0xe0,0x7f,0x40,0x00,0x60,0x00,0xf0,0x7f,0xc0,0x00,0xe0,0x00,0xf8,
 0xff,0x80,0x03,0xc0,0x01,0xfc,0xff,0xe0,0x03,0x80,0x03,0xfe,0xff,0xf9,0x06,
 0x80,0x87,0xff,0xff,0xff,0x07,0x00,0xff,0xff,0xff,0xff,0x07,0x00,0xfe,0xff,
 0xff,0xff,0x0f,0x00,0xfc,0xff,0xff,0x7f,0x0f,0x00,0x70,0xfc,0xff,0x7f,0x0e,
 0x00,0x00,0xf8,0xff,0x3f,0x0c,0x00,0x00,0xf0,0xff,0x3f,0x00,0x00,0x00,0xf0,
 0xff,0x1f,0x00,0x00,0x00,0xf0,0xff,0x1f,0x00,0x00,0x00,0xf0,0xff,0x07,0x00,
 0x00,0x00,0xf8,0x67,0x00,0x00,0x00,0x00,0xfc,0x61,0x00,0x00,0x00,0x00,0x7e,
 0x60,0x00,0x00,0x00,0x00,0x0f,0x70,0x00,0x00,0x00,0x00,0x0f,0x30,0x00,0x00,
 0x00,0x00,0x0f,0x00,0x00,0x00,0x00,0x00,0x1e,0x00,0x00,0x00,0x00,0x00,0x1c,
 0x00,0x00,0x00,0x00,0x00,0x38,0x00,0x00,0x00,0x00,0x00,0x70,0x00,0x00,0x00,
 0x00,0x00,0xe0,0x00,0x00,0x00,0x00,0x00,0xc0,0x00,0x00,0x00,0x00,0x00,0x80,
 0x01,0x00,0x00,0x00,0x00,0x80,0x01,0x00,0x00,0x00,0x00,0x00,0x01,0x00,0x00,
 0x00,0x00,0x00,0x03,0x00,0x00,0x00,0x00,0x00,0x02,0x00,0x00,0x00,0x00,0x00,
 0x02,0x00,0x00,0x00,0x00,0x00,0x00,0x00,0x00,0x00,0x00,0x00,0x00,0x00,0x00,
 0x00,0x00,0x00,0x00,0x00,0x00,0x00,0x00,0x00,0x00,0x00,0x00,0x00,0x00,0x00,
 0x00,0x00,0x00};
