#define compose_width 48
#define compose_height 48
static unsigned char compose_bits[] = {
 0x00,0x00,0x00,0x00,0x00,0x00,0x00,0x00,0x00,0x00,0x00,0x00,0x00,0x00,0x00,
 0x00,0x00,0x00,0x00,0x00,0xff,0x0f,0x00,0x00,0x00,0x80,0xff,0x1f,0x00,0x00,
 0x00,0xc0,0x01,0x38,0x00,0x00,0x00,0xe0,0x02,0x74,0x00,0x00,0x00,0x70,0x04,
 0xea,0x00,0x00,0x00,0x38,0x08,0xc5,0x01,0x00,0x00,0x1c,0x90,0x82,0x03,0x00,
 0x00,0x0e,0x60,0x01,0x07,0x00,0x00,0x07,0x00,0x00,0x0e,0x00,0xf0,0x03,0x00,
 0x00,0xfc,0x03,0xf0,0xff,0xff,0xff,0xff,0x03,0xb0,0x00,0x00,0x00,0x40,0x03,
 0x30,0x01,0x00,0x00,0xa0,0x0b,0x38,0x02,0x00,0x00,0x50,0x07,0x3c,0x04,0x00,
 0x00,0x28,0x0b,0x2e,0x08,0x00,0x00,0x14,0x07,0x27,0x10,0x00,0x00,0x0a,0x0f,
 0x27,0x20,0x00,0x00,0x05,0x1f,0x2e,0x40,0x00,0x80,0x02,0x3b,0x3c,0x80,0x00,
 0x40,0x01,0x75,0x38,0x00,0x01,0xa0,0x00,0x63,0x30,0x40,0x02,0xd0,0x00,0x75,
 0x30,0x20,0x04,0x28,0x01,0x3b,0x30,0x10,0x08,0x14,0x02,0x5d,0x30,0x08,0x10,
 0x0a,0x04,0x2f,0x30,0x04,0x20,0x05,0x08,0x17,0x30,0x02,0xc0,0x02,0x10,0x0b,
 0x30,0x01,0x00,0x00,0x20,0x07,0xb0,0x00,0x00,0x00,0x40,0x0b,0xf0,0xff,0xff,
 0xff,0xff,0x07,0xf0,0xff,0xaa,0xaa,0xfa,0x0b,0x40,0xd5,0x55,0x55,0x5d,0x05,
 0xa0,0xaa,0xab,0xaa,0xae,0x0a,0x40,0x55,0x07,0x00,0x57,0x05,0xa0,0xaa,0x0e,
 0x80,0xab,0x0a,0x40,0x55,0x1d,0xc0,0x55,0x05,0x00,0x00,0x38,0xe0,0x02,0x00,
 0x00,0x00,0x70,0x70,0x01,0x00,0x00,0x00,0xe0,0xb8,0x00,0x00,0x00,0x00,0xc0,
 0x5d,0x00,0x00,0x00,0x00,0x80,0x2f,0x00,0x00,0x00,0x00,0x00,0x17,0x00,0x00,
 0x00,0x00,0x00,0x00,0x00,0x00,0x00,0x00,0x00,0x00,0x00,0x00,0x00,0x00,0x00,
 0x00,0x00,0x00};
