#define movie_width 48
#define movie_height 48
static char movie_bits[] = {
   0x00, 0x00, 0x00, 0x00, 0x00, 0x00, 0x00, 0x00, 0x00, 0x00, 0x00, 0x00,
   0x00, 0x00, 0x00, 0x00, 0x00, 0x00, 0x00, 0x00, 0x00, 0x00, 0x00, 0x00,
   0x00, 0xc0, 0x03, 0x78, 0x00, 0x00, 0x00, 0xf0, 0x0f, 0xce, 0x01, 0x00,
   0x00, 0xd8, 0x1b, 0xcf, 0x03, 0x00, 0x00, 0x8c, 0xb1, 0xff, 0x07, 0x00,
   0x00, 0xdc, 0xbb, 0xff, 0x07, 0x00, 0x00, 0xfc, 0xbf, 0xfc, 0x04, 0x00,
   0x00, 0xfc, 0xbf, 0xfc, 0x04, 0x00, 0x00, 0xdc, 0xbb, 0xff, 0x07, 0x00,
   0x40, 0x8c, 0xb1, 0xff, 0x07, 0x00, 0x40, 0xd8, 0x1b, 0xcf, 0x03, 0x00,
   0xc0, 0xf0, 0x0f, 0xce, 0x01, 0x00, 0xc0, 0xc7, 0x03, 0x78, 0x00, 0x00,
   0xc0, 0xff, 0xff, 0xff, 0x01, 0x00, 0xc0, 0x5f, 0x55, 0x55, 0x03, 0x00,
   0xc0, 0xa8, 0xaa, 0xaa, 0x02, 0x06, 0x40, 0x58, 0x55, 0x55, 0x03, 0x07,
   0x40, 0xa8, 0xfa, 0xaa, 0xfe, 0x07, 0x00, 0xd8, 0x57, 0x5f, 0xff, 0x07,
   0x00, 0xa8, 0xba, 0xaa, 0xfe, 0x07, 0x00, 0xd8, 0x55, 0x5f, 0xff, 0x07,
   0x00, 0xa8, 0xfa, 0xaa, 0x02, 0x07, 0x00, 0xd8, 0x57, 0x57, 0x03, 0x06,
   0x00, 0xa8, 0xaa, 0xba, 0x02, 0x00, 0x00, 0x58, 0x55, 0x55, 0x03, 0x00,
   0x00, 0xf8, 0xff, 0xff, 0x03, 0x00, 0x00, 0x00, 0xe0, 0x00, 0x00, 0x00,
   0x00, 0x00, 0xf0, 0x01, 0x00, 0x00, 0x00, 0x00, 0x18, 0x03, 0x00, 0x00,
   0x00, 0x00, 0x0c, 0x06, 0x00, 0x00, 0x00, 0x00, 0x06, 0x0c, 0x00, 0x00,
   0x00, 0x00, 0x03, 0x18, 0x00, 0x00, 0x00, 0x80, 0x01, 0x30, 0x00, 0x00,
   0x00, 0xc0, 0x00, 0x60, 0x00, 0x00, 0x00, 0x60, 0x00, 0xc0, 0x00, 0x00,
   0x00, 0x30, 0x00, 0x80, 0x01, 0x00, 0x00, 0x18, 0x00, 0x00, 0x03, 0x00,
   0x00, 0x0c, 0x00, 0x00, 0x06, 0x00, 0x00, 0x06, 0x00, 0x00, 0x0c, 0x00,
   0x80, 0x03, 0x00, 0x00, 0x38, 0x00, 0x80, 0x01, 0x00, 0x00, 0x30, 0x00,
   0x00, 0x00, 0x00, 0x00, 0x00, 0x00, 0x00, 0x00, 0x00, 0x00, 0x00, 0x00,
   0x00, 0x00, 0x00, 0x00, 0x00, 0x00, 0x00, 0x00, 0x00, 0x00, 0x00, 0x00};
