/* XPM */
static char * clingC_xpm[] = {
"40 40 13 1",
".	c None",
"+	c #000000",
"@	c #FFC4A1",
"#	c #FFA875",
"$	c #FF904F",
"%	c #FFFFFF",
"&	c #FF7AFF",
"*	c #FFFCD9",
"=	c #B300B3",
"-	c #FFF691",
";	c #730073",
">	c #C2BC7A",
",	c #A39E67",
"............+++...........+++...........",
"...........+@@#+++++++++++##$+..........",
".........+++@++%%%%%%%%%%%++$+++........",
"........+&&&+%%***********%%+&&&+.......",
".......+=&&+%***---------***%+&&=+......",
"...+..+&&++%***-----------***%++&&+..+..",
"..+&++&=+;+%**-------------**%+;+=&++&+.",
"..+==+&&++%**---------------**%++&&+==+.",
"..+&&+=+;+%*-----------------*%+;+=+&&+.",
"..+&&=&+;+**-----------------**+;+&=&&+.",
"...+=&+;+%*-------------------*%+;+&=+..",
"....++;;+*---------------------*+;;++...",
".....+++**---------------------**+++....",
"......+%*-----------------------*%+.....",
"......+**------------------------*+.....",
".....+**--------------------------*+....",
".....+*----------------------------+....",
".....+*----------------------------+....",
"....+**-----------------------------+...",
"....+*------------------------------+...",
"....+*------------------------------+...",
"....+------------------------------>+...",
"....+-------------------------->-->>+...",
"....+-------------------->------>>>>+...",
"....+------------>----->>>-------->>+...",
"....+-->-->-->>--->->->>>->>-->-->>-+...",
"....+--->>-->>------->>>--->>-->>>->+...",
".....+>---->>--->->>---->--->>>>,,>+....",
".....+->>>>>--->>>-->>-->>>>,,>>>,,+....",
".....+>-->>->>>>>>>>>->>>>>>>,,,>>,+....",
"......+,,>>>>>>>>>>>>>>>>>>>>>>>,,+.....",
"......+,,,,>>>,,>>,>>>,>>,,>>>,,,,+.....",
".......+,,,,,,,>>>,,,,,>>>,,,,,,,+......",
".......+,>,>>>>>,,>>,>>,,>>>>>,>,+......",
"........++,,,,>,,,,,,,,,,,>,,,,++.......",
"..........++,,,,,,,,,,,,,,,,,++.........",
"...........+++,,,,,,,,,,,,,+++..........",
"...........+$$+++++++++++++$$+..........",
"...........+@#$+.........+$#@+..........",
"............+++...........+++..........."};
