/* XPM */
static char * crash_xpm[] = {
"40 39 14 1",
".	c None",
"+	c #000000",
"@	c #FFDCC7",
"#	c #FFC4A1",
"$	c #FFA875",
"%	c #FF904F",
"&	c #FFFFFF",
"*	c #FFF691",
"=	c #C2BC7A",
"-	c #FF7AFF",
";	c #B300B3",
">	c #CCCCCC",
",	c #730073",
"'	c #A39E67",
"........................................",
"........................................",
"................+++++++++...............",
"......++.......+@@@@@#@##+.......++.....",
".....+##+.....+@#########$+.....+$$+....",
".....+$##+...+@###########$+...+$$%+....",
".....+$$##+++@#############$+++$$%%+....",
"......+$$#+&+@##############+*+$%%+.....",
".......+$+&+@####$$###$$$++++**+%+......",
".......++&*+@#####$$$$$++&&&++**+.......",
"....++++++*+@#++++#$$$+&&&&&&&+=*++++...",
"...+--+&&&+##+&&&&+##$+&&&+&&&+==+-;-+..",
"..+;;+&&&&&++&&&&&&+#+&&&&+&&&>++--;-;+.",
"..+-;+&&&&&&&&&&&&&+#+&&+++++&>++;;+;-+.",
"..+--+>>&>>++&&&&&>+#+&&&&+&&&>++--+-;+.",
".+-;+++>>>+#+&&&&>>+#+&&&&+&&>>+++;-+;;+",
".+--++++++$$#+>>>>+###+&&&&&>>+##++++-;+",
".+,--,+#%%+###++++#####+>>>>>++%%#+,,,,+",
".+;;;+#$++$$############+++++$$++#$+-;;+",
".+;--+$$$$$$$###########$$$$$$%%%%%+,,;+",
".+--;+++++++$$$$####$$$$$$$$%+++++++-,,+",
"..++;-;;+,,+%$$$$$$$$$$$$$%%%+,,+-;,;++.",
"..+,+--+;,,++%$$$$$%%%%%%%%%++;;,+;;+,+.",
"..+;,++;,;+==+%%%++%%%++%%%+==+,,;++,;+.",
"...+,;,;,,+===+++==+++==+++=**+,;,,;,+..",
"....+;,,++==***==**===**===***=++,,;+...",
".....+++==***********************+++....",
".......+=************************+......",
".......+=************************+......",
".......+*************************+......",
".......+*******************=****=+......",
".......+*****=***===******=***===+......",
".......+==*****==*******==**==='=+......",
"....++.+'===*==****=====*======='+.++...",
"...+##+++''=='=====**==*===='=''+++%%+..",
"...+#####+'''============='''''+%%%%%+..",
"....+$$$$$+''''''========'''''+%%%%%+...",
".....+++$$$++''''''''''''''''++%%%++....",
"........+++++++''''''''''''+++++++......"};
