/* XPM */
static char * piss1_xpm[] = {
"40 40 13 1",
".	c None",
"+	c #000000",
"@	c #FFFFFF",
"#	c #FFFCD9",
"$	c #FFF691",
"%	c #FF7AFF",
"&	c #B300B3",
"*	c #730073",
"=	c #C2BC7A",
"-	c #A39E67",
";	c #FF904F",
">	c #FFA875",
",	c #FFC4A1",
"........................................",
"........................................",
"..............++++++++++................",
"...........+++@@@@@@@@@@+++.............",
".........++@@##############++...........",
"........+@@####$$$$$$$$$$####+..........",
"....++++@###$$$$$$$$$$$$$$$###+++++.....",
"...+%%+@@#$$$$$$$$$$$$$$$$$$$#+%%%%+....",
"..+%&&+##$$$$$$$$$$$$$$$$$$$$$#+%%&%+...",
".+&%%+##$$$$$$$$$$$$$$$$$$$$$$##++%%&+..",
".+%&++#$$$$$$$$$$$$$$$$$$$$$$$$#+*+&%+..",
".+%+*+#$$$$$$$$$$$$$$$$$$$$$$$$##+*+%+..",
"+&&++@$$$$$$$$$$$$$$$$$$$$$$$$$$#+++&&+.",
"+%+*+#$$$$$$$$$$$$$$$$$$$$$$$$$$#+**+%+.",
"+%++##$$$$$$$$$$$$$$$$$$$$$$$$$$$+**+%+.",
"++*+##$$$$$$$$$$$$$$$$$$$$$$$$$$$=+**++.",
"++*+##$$$$$$$$$$$$$$$$$$$$$$$$$$==+**++.",
"+&*+#$$$$$$$$$$$$$$$$$$$$$$$$$$===+**&+.",
".+&+#$$$$$$$$$$$$$$$$$$$$$$$$$$=$=+*&+..",
".+&+#$$$$$$$$$$$$$$$$$$$$$$$$==$$=+*&+..",
".+&*+$$$$$$$$$$$$$$$$$$$$$$$$$$$==+*&+..",
"..+&+$$$$$$$$$$$$$$$$$$$$$$$=$$=$=+&+...",
"...++$$$$$$$$$$$$$$$=$$$=$==$===$=++....",
".....+$$$$$=$$$=$$$=$$$===$$======+.....",
".....+==$$$$$$=$$$==$=$$$=========+.....",
".....+$====$$==$$$===$$=====--=---+.....",
"......+$$$$$$==$$===$========----+......",
".......+=$$$==$$===$======-=-=---+......",
".......+$-===$======-===--==----+.......",
"........+$$=======-==----===---++.......",
".........+----==--==-==----=---+;+......",
".........+------===-----------+;;;+.....",
"..........+-=-==-=-----------+;>>;;+....",
"...........++--------------++.+>>>>+....",
".............++++--------++....+>>+.....",
".............+;;;++++++++.......++......",
".............+,>;+...+;;+...............",
".............+,>;+...+;;+...............",
".............+,>;+...++++...............",
".............+++++......................"};
