#define noname_width 15
#define noname_height 15
static char noname_bits[] = {
 0xff,0x7f,0x41,0x44,0x41,0x44,0x41,0x44,0x41,0x44,0x41,0x44,0x7f,0x44,0x01,
 0x44,0x01,0x44,0x01,0x44,0xff,0x47,0x01,0x40,0x01,0x40,0x01,0x40,0xff,0x7f};
