#define Keyboard12_width 13
#define Keyboard12_height 13
static char Keyboard12_bits[] = {
 0xff,0x1f,0x01,0x10,0x01,0x10,0x01,0x10,0xff,0x1f,0xab,0x1a,0x57,0x1d,0xab,
 0x1a,0x0f,0x1e,0xf9,0x13,0x01,0x10,0x01,0x10,0xff,0x1f};
