#define XBones12_width 13
#define XBones12_height 13
static char XBones12_bits[] = {
   0xff, 0x1f, 0xe1, 0x10, 0x19, 0x13, 0x09, 0x12, 0xa5, 0x14, 0x0d, 0x16,
   0x11, 0x11, 0xf1, 0x11, 0x01, 0x10, 0x1d, 0x17, 0xe1, 0x10, 0x1d, 0x17,
   0xff, 0x1f};
