#define noname_width 15
#define noname_height 15
static char noname_bits[] = {
 0xff,0x7f,0x01,0x40,0x3d,0x5e,0x1d,0x5c,0x3d,0x5e,0x75,0x57,0x21,0x42,0x01,
 0x40,0x21,0x42,0x75,0x57,0x3d,0x5e,0x1d,0x5c,0x3d,0x5e,0x01,0x40,0xff,0x7f};
