#define All15_width 15
#define All15_height 15
static char All15_bits[] = {
   0xff, 0x7f, 0x01, 0x40, 0x01, 0x40, 0x39, 0x5b, 0x7d, 0x5b, 0x6d, 0x5b,
   0x6d, 0x5b, 0x7d, 0x5b, 0x7d, 0x5b, 0x6d, 0x5b, 0x6d, 0x5b, 0x6d, 0x5b,
   0x01, 0x40, 0x01, 0x40, 0xff, 0x7f};
