#define noname_width 15
#define noname_height 15
static char noname_bits[] = {
 0xff,0x7f,0x01,0x40,0x7d,0x40,0x11,0x4e,0x11,0x51,0x11,0x51,0x11,0x50,0x11,
 0x48,0x11,0x44,0x11,0x44,0x11,0x40,0x7d,0x44,0x01,0x40,0x01,0x40,0xff,0x7f};
