/* XPM */
static char *3D_Menu15_xpm[] = {
"16 16 5 1",
" 	c slate grey",
".	c wheat",
"X	c lemon chiffon",
"o	c tan",
"O	c magenta",
" .............. ",
". ............  ",
".. XXXXXXXXXX o ",
"..X          .o ",
"..X ........ .o ",
"..X .OOOOOO. .o ",
"..X ........ .o ",
"..X .OOOOOO. .o ",
"..X ........ .o ",
"..X .OOOOOO. .o ",
"..X ........ .o ",
"..X ........ .o ",
"..X          .o ",
".. .......... o ",
". oooooooooooo  ",
"                "};
