/* XPM */
static char *greendrag_xpm[] = {
/* width height ncolors chars_per_pixel */
"65 62 10 1",
/* colors */
"  c #21AA00",
". c #00CF00",
"X c #00AB00",
"o c #22CF00",
"O c #007700",
"+ c None",
"@ c #21CF00",
"# c #54CF00",
"$ c #00AA00",
"% c #001200",
/* pixels */
"+++++++++++++++++++++++++++++++++++++++++++++++++++++++++++++++++",
"+++++++++++++++++++++++++++++++++++++++++++++++++++++++++++++++++",
"+++++++++++++++++++++++++++++++++++++++++++++++++++++++++++++++++",
"++++++++++++++++++++++++++++++   ++++++++++++++++++++++++++++++++",
"++++++++++++++++++++++$$$$$++        ++++++++++++++++++++++++++++",
"+++++++++++++++++++$$$$$$OOO$$         ++++++++++++++++++++++++++",
"+++++++++++++++++++$$$$$OO$$#OOO        +++++++++++++++++++++++++",
"+++++++++++++++++++$$$$$$OO$$##OO.       ++++++++++++++++++++++++",
"++++++++++++++++++++$$OO$$#OO$##OOO        ++++++++++++++++++++++",
"+++++++++++++++++++++$$#O$###OO$##OO        +++++++++++++++++++++",
"++++++++++++++++++++++$$#O$###OO$###O        ++++++++++++++++++++",
"++++++++++++++++OO++++$$##O$#o##O$oo#O        +++++++++++++++++++",
"+++++++++++++O+OOO++++$$$##O$ooo#O$oo#O        ++++++++++++++++++",
"+++++++++++O+OOOOOOOOO+$$##oO$ooo#O$oooO        +++++++++++++++++",
"+++++++++++OOOo$$$OOOO+$o$#ooO$ooooOooooO        ++++++++++++++++",
"++++++++++OOOoo$$$$$OO+$o$$oooOoooooOooooO        +++++++++++++++",
"++++++++++#O..$$$$$$OO+$oo$$ooO$ooooO$ooooO       +++++++++++++++",
"++++++++++Oo..$$$O$$OOO$oo$$$ooO$ooooOoooooO       ++++++++++++++",
"+++++++++#Oo$$$$OO$$OO$#ooo$$oooOooooo$oooo$O      ++++++++++++++",
"+++++++++Oo$$$OOOO$$O+$#oooo$OooO$ooooOoooooO$      +++++++++++++",
"++++++++Oo$$OO+OOO$OO+$##oOO$OoooOooooo$oooooO       ++++++++++++",
"++++++++%$OO+++OOO$O++$OOO$OOooooO$ooooOoooooOO      ++++++++++++",
"++++++++$OO+++OOO$$O+OO$$OO#ooooooO$oooO$oooooO       +++++++++++",
"+++++++++++++OOO$$OOOO$OO##oooooooO$ooooOoooooOO      +++++++++++",
"++++++++++++#OOO$OOOO$OO##oooooooooO$oooO$oooooO       ++++++++++",
"++++++++++++OOO$$OOO$OO###oooooooooO$ooooOoooooOO       +++++++++",
"++++++++++++OOO$OOO$$O###ooooooooooOOooooOooooooO       +++++++++",
"++++++++++++OOXOO$$$OO###ooooooooooOOooooO$oooooO        ++++++++",
"++++++++++++OOOO$$$$OO###oooooooooooOoooooOoooooOO       ++++++++",
"++++++++++++OOO$$$$$$O####ooooooooooO$ooooOooooooO        +++++++",
"++++++++++++OO$$$$$$$$$####oooooooooO$@oooO$oooooO        +++++++",
"++++++++++++O$$$$$$$$$$#####ooooooooO$ooooO$oooooO.        ++++++",
"++++++++++++O$$$$$$$$$$$$###ooooooooOOooooOOoooooO$        ++++++",
"++++++++++++O$$$$O$$$$$$$$$##oooooooOOOOOoOOoooooOO         +++++",
"+++++++++++OO$$$OO$$$$$$$$$$##ooooooOOOOOOOOoooooOO         +++++",
"++++++++++OOOO$$OO$$$$OOOO$$$#o@ooooOO++OOOO$oooooO          ++++",
"++++++OO+OOOOO$$OOO$$OO$$$OO$$$@OOOooO+++OOOOOooooO          ++++",
"++++++OOOOO++OO$OOOOOO$$$$$$OO$$OOOOoO++++OOOOOOooO#++++     ++++",
"++++++O+O+++++OOOOOOO$$$$$$$$$$$O++OOO++++OOOOOOOoO.+++++    ++++",
"++++++++O++++++OOOOOO$$$OO$$$$$$O+++OO+++++OO++OOOO$++++++    +++",
"++++++++++++O+OOO++OO$$$$OOO$$$OO+++OO+++++OO+++OOOO+++++++   +++",
"+++++++++++OOOOO++++OO$$$$OOOOOOO++++O+++++OO++++OOO++++++++  +++",
"+++++++++++OOOO++++++OOO$$$OOOOOO#+++O++++++O++++OOO+++++++++ +++",
"+++++++++++O+O+++++++++OOO$OOOOO$$#++O++++++O+++++OO+++++++++ +++",
"++++++O++++++O++++++++++OOO$O OOO$$#O+++++++O+++++OO++++++++ ++++",
"+++++OOO+++++++++++++OO++OOOO  OO$$#++++++++O++++++O+++++++++++++",
"+++++O$O++++++++++++OOOOOOOOO   O$$#++++++++O++++++O+++++++++++++",
"++++OO$OO+++++++++++O+OOOOOOO+  O$$#+++++++O+++++++O+++++++++++++",
"++++OO$OO+++++++++++++O++++OO++ O$$#+++++++++++++++O+++++++++++++",
"+++++O$O++++++++++++++++++++O+++O$$#+++++++++++++++O+++++++++++++",
"++++++$#++++++++++++++++++++++++O$$#++++++++++++++O++++++++++++++",
"++++++$$++++++++++++++++++++++++O$$#+++++++++++++++++++++++++++++",
"+++++++O$++++++++++++++++++++++$$$##+++++++++++++++++++++++++++++",
"++++++++O$#+++++++++++++++++++$$$##++++++++++++++++++++++++++++++",
"+++++++++OO$+++++++++++++++++$$O##+++++++++++++++++++++++++++++++",
"++++++++++#O$$+++++++++++++$$$O##++++++++++++++++++++++++++++++++",
"++++++++++++OO$$$$$$$$$$$$$$OO##+++++++++++++++++++++++++++++++++",
"+++++++++++++##OOOOOOOOOOOO###+++++++++++++++++++++++++++++++++++",
"+++++++++++++++#############+++++++++++++++++++++++++++++++++++++",
"+++++++++++++++++++++++++++++++++++++++++++++++++++++++++++++++++",
"+++++++++++++++++++++++++++++++++++++++++++++++++++++++++++++++++",
"+++++++++++++++++++++++++++++++++++++++++++++++++++++++++++++++++"
};
