/* XPM */
static char *atom[] = {
"32 32 7 1",
" 	c black",
".	c orange",
"X	c yellow",
"o	c red",
"O	c white",
"+	c blue",
"@	c green",
"                                ",
"                                ",
"                                ",
"                                ",
"       ...            XXX       ",
"      .   ..        XX   X      ",
"      .     .      X     X      ",
"      .      .    X      X      ",
"      .       .  X       X      ",
"       .       .X       X       ",
"       .      oooo      X       ",
"        .    ooOOoo    X        ",
"        . ++++oooOo@@@ X        ",
"     @@@@.+OO++oooo   X@@@@     ",
"   @@    .+++O+oo+++  X    @@   ",
"  @      +.++++o++OO+X       @  ",
" @       +.++++ +++++X        @ ",
"  @       +.++oo++++X        @  ",
"   @@     Xo.OOo+++X+ .    @@   ",
"     @@@@@ oo.oOo+X+  @@@@@     ",
"        X @@@@.@@@@@@@ .        ",
"        X  oooo.X      .        ",
"       X    oooX.       .       ",
"       X      X  .      .       ",
"      X      X    .      .      ",
"      X     X      .     .      ",
"      X    X        .    .      ",
"      X  XX          ..  .      ",
"       XX              ..       ",
"                                ",
"                                ",
"                                "};
