/* XPM */
static char *balloon3_recol_xpm[] = {
/* width height ncolors chars_per_pixel */
"32 32 9 1",
/* colors */
"  c black",
". c firebrick",
"X c sienna",
"o c red",
"O c SeaGreen",
"+ c white",
"@ c yellow",
"# c orange",
"$ c blue",
/* pixels */
"++++++++++++++++++++++++++++++++",
"++++++++++++++++++++++++++++++++",
"+++++++++++         ++++++++++++",
"++++++++   $ o O @ .   +++++++++",
"++++++  $$$ oo O @@ ...  +++++++",
"++++  $$$$ ooo O @@@ .... ++++++",
"++++ $$$$ oooo O @@@@ .... +++++",
"+++ $$$$ oooo OOO @@@@ .... ++++",
"++ $$$$$ oooo OOO @@@@ ..... +++",
"++ $$$$ ooooo OOO @@@@@ .... +++",
"+ $$$$$ oooo OOOOO @@@@ ..... ++",
"+ $$$$ ooooo OOOOO @@@@@ .... ++",
"+ $$$$ ooooo OOOOO @@@@@ .... ++",
"+ $$$$ ooooo OOOOO @@@@@ .... ++",
"+ $$$$ ooooo OOOOO @@@@@ .... ++",
"+ $$$$$ oooo OOOOO @@@@ ..... ++",
"++ $$$$ ooooo OOO @@@@@ .... +++",
"++ $$$$$ oooo OOO @@@@ ..... +++",
"+++ $$$$ oooo OOO @@@@ .... ++++",
"++++ $$$$ oooo O @@@@ .... +++++",
"+++++  $$$ ooo O @@@ ...  ++++++",
"+++++++  $$ oo O @@ ..  ++++++++",
"+++++++++ $ oo O @@ . ++++++++++",
"++++++++++ ++++ ++++ +++++++++++",
"+++++++++++ +++ +++ ++++++++++++",
"++++++++++++       +++++++++++++",
"++++++++++++ X#X#X +++++++++++++",
"+++++++++++ X#X#X#X ++++++++++++",
"+++++++++++  X#X#X# ++++++++++++",
"++++++++++++ #X#X# +++++++++++++",
"+++++++++++++     ++++++++++++++",
"++++++++++++++++++++++++++++++++"
};
