/* XPM */
static char * beer_xpm[] = {
/* width height ncolors chars_per_pixel */
"32 32 6 1",
/* colors */
" 	c None",
".	c black",
"X	c lavender",
"o	c lemon chiffon",
"O	c peru",
"+	c wheat",
/* pixels */
"                                ",
"                                ",
"            ....                ",
"         ...XoXo.. ...          ",
"       ..XoXoXoXoX.XoX. .       ",
"      .oXoXoXoXoXoXoXoX.X.      ",
"      .XoXoXoXoXoX.XoXoXoX.     ",
"       .XoXo..X...XoXoXoXo.     ",
"        ...X...OO..XoX.XoXo.    ",
"         ...OOOOOOO....oXoXo.   ",
"     ......OOOOOOOOOOOO.oXoX.   ",
"    ..+++..O.OOO.OOO.OO...Xo.   ",
"   ..++++..OO.OOO.OOO.O...oX.   ",
"   .+++....OO.OOO.OOO.O..oX.    ",
"   .++.  ..OO.OOO.OOO.O..Xo.    ",
"   .++.  ..OO.OOO.OOO.O..oX.    ",
"   .++.  ..OO.OOO.OOO.O..X.     ",
"   .++.  ..OO.OOO.OOO.O..o.     ",
"   .++.  ..OO.OOO.OOO.O..X.     ",
"   .++.  ..OO.OOO.OOO.O..o.     ",
"   .++.  ..OO.OOO.OOO.O..X.     ",
"   .++.  ..OO.OOO.OOO.O..o.     ",
"   .+++....OO.OOO.OOO.O..X.     ",
"   ..++++..OO.OOO.OOO.O..o.     ",
"    ..+++..OO.OOO.OOO.O...      ",
"     ......OO.OOO.OOO.O..       ",
"         ..O.OO..OO..OO..       ",
"         ..OOOOOOOOOOOO..       ",
"         ................       ",
"          ..............        ",
"                                ",
"                                "};
