/* XPM */
static char * blocks_xpm[] = {
/* width height ncolors chars_per_pixel */
"32 32 5 1",
/* colors */
" 	s None	c None",
".	c black",
"X	c white",
"o	c wheat",
"O	c orange",
/* pixels */
"                                ",
"              ...               ",
"            ..XoX..             ",
"          ..oXoXoXo..           ",
"        ..XoXoXo...oX..         ",
"      ..oXoXoX..oXo..Xo..       ",
"    ..XoXoXo..XoXoXoX..oX..     ",
"  ..oXoXoX..oXoXoXoXoXo..Xo..   ",
"..XoXoXoXo.o..XoXoXoX..O.oXoX.. ",
".o..oXoXoX.ooo..oXo..OOO.Xo..O. ",
".ooo..XoXo.ooooo...OOOOO...OOO. ",
".ooooo..oX.oooooo.OOOOOO.OOOOO. ",
".ooooooo...oooooo.OOOOOO.OOOOO. ",
".ooooooo.O.oooooo.OOOOOO.OOOOO. ",
".ooooooo.O..ooooo.OOOOO..OOOOO. ",
".ooooooo.OOO..ooo.OOO..OOOOOOO. ",
".ooooooo.OOOOO..o.O..o.OOOOOOO. ",
".ooooooo.OOO..oX...ooo.OOOOOOO. ",
".ooooooo.O..XoXoXoX..o.OOOOOOO. ",
".ooooooo..oXoXoXoXoXo..OOOOOOO. ",
".ooooooooo..XoXoXoX..OOOOOOOOO. ",
".ooooooooooo..oXo..OOOOOOOOOOO. ",
".ooooooooooooo...OOOOOOOOOOOOO. ",
"..ooooooooooooo.OOOOOOOOOOOOO.. ",
"  ..ooooooooooo.OOOOOOOOOOO..   ",
"    ..ooooooooo.OOOOOOOOO..     ",
"      ..ooooooo.OOOOOOO..       ",
"        ..ooooo.OOOOO..         ",
"          ..ooo.OOO..           ",
"            ..o.O..             ",
"              ...               ",
"                                "};
