/* XPM */
static char * bow_recol_bad_xpm[] = {
/* width height ncolors chars_per_pixel */
"32 32 5 1",
/* colors */
" 	s None	c None",
".	c black",
"X	c red",
"o	c firebrick",
"O	c tomato",
/* pixels */
"                    ..          ",
"                   .XX.         ",
"                  .XXXX.        ",
"                 .XXoXX.        ",
"                 .XoooXX.       ",
"                .XoooooXX.      ",
"               .XooOOooXX.      ",
"             ...XooOOooXX.      ",
"           ..Xo.XXooooXXX.      ",
"          .XXoXo.XXooXXXo.      ",
"         .XXXoXXo.XXXXXXo.      ",
"   .......XooOoXo.XXXXo..       ",
" ..oooo..X.XoooXo......         ",
"..oo...XXX.XXXXo.o.             ",
".X..XXXXoXX.XXo.oo.             ",
".XXXXoooooXo.o.ooX.             ",
" .XoooooXXX....oXXX.            ",
" .XooOooXXo. .o.XoX.            ",
"  .XooXXXo.  .oo.XoX.           ",
"  .XXoXXo.   .Xo.XXXX.          ",
"  .XXXX..   .XXXo.XoX.          ",
"   .XX.    .XXoX..XXoX.         ",
"    ..     .XXXo. .XXoX.        ",
"          .XXoX.  .XXoXX.       ",
"          .XXoX.   .XXXXX.      ",
"         .XooXo.   .oXXoXX.     ",
"         .XoXX.     .oXXoXX.    ",
"         .XXXX.      ..XXXX.    ",
"         .XXXX.        ..XX.    ",
"          .XXX.          ...    ",
"           .XX.                 ",
"            ..                  "};
