/* XPM */
static char *calculate2_recol_xpm[] = {
/* width height ncolors chars_per_pixel */
"32 32 7 1",
/* colors */
"  c black",
". c cyan",
"X c green",
"o c grey",
"O c red",
"+ c white",
"@ c SlateGrey",
/* pixels */
"                                ",
"                                ",
"                                ",
"       + + + + + + +            ",
"       +++++++++++++            ",
"       +++++OOO+O+O+            ",
"       +++++++O+O+++            ",
"       +++++++O+O+O+            ",
"       +++++++++++++            ",
"  @@@@@@@@@@@@@@@@@@@@@@@@@@@   ",
"  @ooooooooooooooooooooooooo@   ",
"  @ooo@@@@@@@@@@@@@@@ooooooo@   ",
"  @ooo@+O+O+O+O+O+O+@ooooooo@   ",
"  @ooo@+++++++++++++@ooooooo@   ",
"  @ooo@@@@@@@@@@@@@@@ooooooo@   ",
"  @ooooooooooooooooooooooooo@   ",
"  @ooo@@@o@@@o@@@o@@@o@@@ooo@   ",
"  @ooo@.@o@.@o@.@o@.@o@.@ooo@   ",
"  @ooo@@@o@@@o@@@o@@@o@@@ooo@   ",
"  @ooooooooooooooooooooooooo@   ",
"  @ooo@@@o@@@o@@@o@@@o@@@ooo@   ",
"  @ooo@.@o@.@o@.@o@.@o@.@ooo@   ",
"  @ooo@@@o@@@o@@@o@@@o@@@ooo@   ",
"  @ooooooooooooooooooooooooo@   ",
"  @ooo@@@o@@@o@@@o@@@@@@@@oo@   ",
"  @ooo@.@o@.@o@.@o@XXXXXX@oo@   ",
"  @ooo@@@o@@@o@@@o@@@@@@@@oo@   ",
"  @ooooooooooooooooooooooooo@   ",
"  @@@@@@@@@@@@@@@@@@@@@@@@@@@   ",
"                                ",
"                                ",
"                                "
};
