/* XPM */
static char *font_color_recol_xpm[] = {
/* width height ncolors chars_per_pixel */
"32 32 9 1",
/* colors */
"  c black",
". c wheat",
"X c firebrick",
"o c peru",
"O c red",
"+ c NavyBlue",
"@ c white",
"# c orange",
"$ c blue",
/* pixels */
"XXXXXXXXXXXXX@@@@@@@@@@@@@@@@@@@",
"XOOOOOOOOOOOOXX@@@@@@@@@@@@@@@@@",
"XOOOOOOOOOOOOOOX@@@@@@@@@@@@@@@@",
"XOOOXXXXXXXOOOOOX@@@@@@@@@@@@@@@",
"XOOOX@@@@@@XOOOOX@@@@@@@@@@@@@@@",
"XOOOX@@@@@@@XOOOOX@@@@@@@@@@@@@@",
"XOOOX@@@@@@@@XOOOX@@@@@@@@@@@@@@",
"XOOOX@@@@@@@@XOOOX@@@@@@@@@@@@@@",
"XOOOX@@@@@@@@XOOOX@@@@@@@@@@@@@@",
"XOOOX@@@@@@@@XOOOX@@@@@@@@@@@@@@",
"XOOOX@@@@@@@@XOOOX@@@@@@@@@@@@@@",
"XOOOX@@@@@@@XOOOX@@@@@@@@@@@@@@@",
"XOOOX@@@@@@XOOOOX@@@@@@@@@@@@@@@",
"XOOOXXXXXXXOOOOX@@@@@@@@@@@@@@@@",
"XOOOOOOOOOOOOOX@@@oooooo@@@@@@@@",
"XOOOOOOOOOOOXX@@@o......o@@@@@@@",
"XOOOXXXOOOOX@@@@o.##.....o@@@@@@",
"XOOOX@@XOOOOX@@o##oo#.....o@@@@@",
"XOOOX@@@XOOOOXoooo@@o......o@@@@",
"XOOOX@@@XOOOO  ..       ....o+++",
"XOOOX@@@@XOOOXo#..oo.####...#+++",
"XOOOX@@@@XO$OX@o#...........#+++",
"XOOOX@@@@@$O$OX@o##.........#+++",
"XOOOX@@@@@$$O$O@@oo########.#+++",
"XOOOX@@@@@@$$$$$@@@oooooooo##+++",
"XOOOX@@@@@@$+$+$@@@@@@@@@@@oo   ",
"XOOOX@@@@@@@$+$+$@@@@@@@@@@@@   ",
"XOOOX@@@@@@@+$+$+@@@@@@@@@@@@@@@",
"XOOOX@@@@@@@@+++++@@@@@@@@@@@@@@",
"XXXXX@@@@@@@@++++++@@@@@@@@@@@@@",
"@@@@@@@@@@@@@@@@@@@@@@@@@@@@@@@@",
"@@@@@@@@@@@@@@@@@@@@@@@@@@@@@@@@"
};
