/* XPM */
static char *gremlin[] = {
/* width height ncolors chars_per_pixel */
"32 32 8 1",
/* colors */
"` c black",
"a c cyan",
"b c green",
"c c magenta",
"d c red",
"e c white",
"f c yellow",
"g c blue",
/* pixels */
"bbbbbbbbbbbb`b`bbbbbbbbbbbbbbbbb",
"bbbbbbbbbbbb`bb`bbbbbbbbbbbbbbbb",
"bbbbbbbbb`bb`bb`bbbbbbbbbbbbbbbb",
"bbbbbbbbb`bb``b`b`b`bbbbbbbbbbbb",
"bbbbbbbbbb`bb`````b`bbbbbbbbbbbb",
"bbbbbbb`bbb`b`fff```bb`bbbbbbbbb",
"bbbbbbbb``bb``fffff`b`bbbbbbbbbb",
"bbbbbbbbbb``fffffff``bbbbbbbbbbb",
"bbbbbbbbbbb`ffffffff`bbbbbbbbbbb",
"bbbbbbbbbbb`ffffffff`bbbbbbbbbbb",
"bbbbbbbbbb`fffffffff`bbbbbbbbbbb",
"bbbbbbbbb`ffff``f``ff``bbbbbbbbb",
"bbbbbbbbb`ff```ff```ff`bbbbbbbbb",
"bbbbbb```fff`f`fff`f`f````bbbbbb",
"bbbbb`f``ffff``fff``fff`ff`bbbbb",
"bbbbb`fff`fffffff`fffff`ff`bbbbb",
"bbbbb`ffff`fff`fff`fff`ff`bbbbbb",
"bbbbbb``ff`ffffff`ffffff```bbbbb",
"bbbbb``fff`ffffffffffff`f````bbb",
"bbbb```fff`f``e`e`e`e`ff``````bb",
"bbb``````f`ff``e`e``fff```````bb",
"bbb``cc```fffff```ffff````aa``bb",
"bb```cc`````fffffffff`````aaa`bb",
"bb``cccc```````ffff````````aa```",
"b```ccc``ggg``````````dd```aaa``",
"```cccc`ggg```````````ddd``aaabb",
"`aa``cc`ggg`fe````fe``dddd`aa`bb",
"`````c``ggg`efe``fef```ddd``abbb",
"bbbb````ggg`fefefefe```dd`````bb",
"`bbbb``ggg``efe``fef``````````bb",
"g`bbb```g```fe````be`````bbbbbbb",
"g``bb`bbb```````b````````bbbbbbb"
};
