/* XPM */
static char * hand_point_xpm[] = {
/* width height ncolors chars_per_pixel */
"32 32 6 1",
/* colors */
" 	c black",
".	s None	c None",
"X	c wheat",
"o	c peru",
"O	c lemon chiffon",
"+	c grey",
/* pixels */
"  ..............................",
" X .............................",
" XX ............................",
" XXX ...........................",
"  XXX ..........................",
". XXXX .........................",
".  XXXX  .......................",
"..  XXXXX ......................",
"...  XXXXX .....................",
"....  XXXoo  ...................",
".....  oo  XX  .................",
"......   Xo  XX ................",
"....   Xo  XXX   ...............",
"...  Xo  XXX  XXX ..............",
"... o  XXX  XXXXXX .............",
"...  XXX  XXXXXXXOX  ...........",
"...  X  XXXXXXXXOXOXX ..........",
"...  X XXXXX  XXXOXOXX .........",
"...  X XXX    XXXXOXOXX ........",
"...  X XXX     XXXXOXOXX .......",
"...  X XX oo   XXXOXOXOXX  .....",
"...  X  XXXXo   XXXOXOXXXXX ....",
"...   o    XX o oXXXOXOXXXXX ...",
"....   o o   oo  XXOXOXXXXXXX ..",
"......    o XXoo oXXOXXXXXXXXX .",
"..........    XXo oXXXXXXXXXXXX ",
".............   XXXXXX XXXXXXXX ",
"...............        oXXXXXXX ",
".....................   oXXXXXX ",
".......................  oXXXX +",
"........................  oXXX +",
"..........................    ++"};
