/* XPM */
static char *info_2_recol_xpm[] = {
/* width height ncolors chars_per_pixel */
"32 32 4 1",
/* colors */
"  c black",
". c cyan",
"X c white",
"o c SlateGrey",
/* pixels */
"XXXXXXXXXXXXXXX....XXXXXXXXXXXXX",
"XXXXXXXXXXXXXX    ..XXXXXXXXXXXX",
"XXXXXXXXXXXXX      .XXXXXXXXXXXX",
"XXXXXXXXXXXXX      .XXXXXXXXXXXX",
"XXXXXXXXXXXXX      .XXXXXXXXXXXX",
"XXXXXXXXXXXXX      XXXXXXXXXXXXX",
"XXXXXXXXXXXXXX    XXXXXXXXXXXXXX",
"XXXXXXXXXXXooooooooooXXXXXXXXXXX",
"XXXXXXXXXX..........oXXXXXXXXXXX",
"XXXXXXXXX          .oXXXXXXXXXXX",
"XXXXXXXXX          .oXXXXXXXXXXX",
"XXXXXXXXX          .oXXXXXXXXXXX",
"XXXXXXXXX          .oXXXXXXXXXXX",
"XXXXXXXXXXXXX      .oXXXXXXXXXXX",
"XXXXXXXXXXXXX      .oXXXXXXXXXXX",
"XXXXXXXXXXXXX      .oXXXXXXXXXXX",
"XXXXXXXXXXXXX      .oXXXXXXXXXXX",
"XXXXXXXXXXXXX      .oXXXXXXXXXXX",
"XXXXXXXXXXXXX      .oXXXXXXXXXXX",
"XXXXXXXXXXXXX      .oXXXXXXXXXXX",
"XXXXXXXXXXXXX      .oXXXXXXXXXXX",
"XXXXXXXXXXXXX      .oXXXXXXXXXXX",
"XXXXXXXXXXXXX      .oXXXXXXXXXXX",
"XXXXXXXXXXXXX      .oXXXXXXXXXXX",
"XXXXXXXXXXXXX      .oXXXXXXXXXXX",
"XXXXXXXXXXXXX      .oXXXXXXXXXXX",
"XXXXXXXXXXXoo      .oooooXXXXXXX",
"XXXXXXXXXX...      .....oXXXXXXX",
"XXXXXXXXX              .oXXXXXXX",
"XXXXXXXXX              .oXXXXXXX",
"XXXXXXXXX              .XXXXXXXX",
"XXXXXXXXX              XXXXXXXXX"
};
