/* XPM */
static char *key_recol_xpm[] = {
/* width height ncolors chars_per_pixel */
"32 32 7 1",
/* colors */
"  c Black",
". c Grey",
"X c Sienna",
"o c White",
"O c Yellow",
"+ c SlateGrey",
"@ c None",
/* pixels */
"@@@@@@@@@@@@@@@@@@@@@@@@@@@@@@@@",
"@@@@@@@@@@@@@@@@@@@@@@@@@@@@@@@@",
"@@@@@@@@@@@@@@@@@@@@@@@@@@@@@@@@",
"@@@@@@@@@@@@@@@@@@@@@@@@@@@@@@@@",
"@@@@@XXXX@@@@@@@@@@@@@@@@@@@@@@@",
"@@@@XOoOoX@@@@@@@@@@@@@@@@@@@@@@",
"@@@XoOOOOOX@@@@@@@@@@@@@@@@@@@@@",
"@@XOOOOOOOOX@@@@@@@@@@@@@@@@@@@@",
"@@XoOOOOOOOOX@@@@@@@@@@@@@@@@@@@",
"@XOOOOOOOOOO.@@@@@@@@@@@@@@@@@@@",
"@XoOOOOOOOOOOX@@@@@@@@@@@@@@@@@@",
"XOOOOOOOOOOOOOXXXXXXXXXXXXXXXX@@",
"XoOOXXXOOOOOOOOOOOOOOOOOOOOOOOX@",
"XOOX   XOOOOOOX                X",
"XoOX @@XOOOOOO.XXXXXXXXXXXXXXXXX",
"XOOX @@XOOOOOOO.O.O.O.O.O.O.O.O ",
"XoOX @@XOOOOOOOOOOOOOOOOOOOOOOX ",
"XOOX @@XOOOOOOOOO OOOOXXOXXOOX @",
"XoOOXXXOOOOOOOOOO XXOX  X  XX @@",
"XOOOOOOOOOOOOOXXO   X @@ @@  @@@",
"@XOOOOOOOOOOOX  X @@ @@@@@@@@@@@",
"@XOOOOOOOOOO. @@ @@@@@@@@@@@@@@@",
"@@XOOOOOOOOOX @@@@@@@@@@@@@@@@@@",
"@@XOOOOOOOOX @@@@@@@@@@@@@@@@@@@",
"@@@XOOOOOOX @@@@@@@@@@@@@@@@@@@@",
"@@@@XOOOOX @@@@@@@@@@@@@@@@@@@@@",
"@@@@@XXXX @@@@@@@@@@@@@@@@@@@@@@",
"@@@@@+  +@@@@@@@@@@@@@@@@@@@@@@@",
"@@@@@@@@@@@@@@@@@@@@@@@@@@@@@@@@",
"@@@@@@@@@@@@@@@@@@@@@@@@@@@@@@@@",
"@@@@@@@@@@@@@@@@@@@@@@@@@@@@@@@@",
"@@@@@@@@@@@@@@@@@@@@@@@@@@@@@@@@"
};
