/* XPM */
static char *lunchbox_recol_xpm[] = {
/* width height ncolors chars_per_pixel */
"32 32 7 1",
/* colors */
"  c black",
". c gainsboro",
"X c grey",
"o c sienna",
"O c DarkSlateGrey",
"+ c white",
"@ c SlateGrey",
/* pixels */
"++++++++++++++++++++++++++++++++",
"++++++++++++++++++++++++++++++++",
"++++++++++++++++++++++++++++++++",
"++++++++++++++++++++++++++++++++",
"++++++++++++++++++++++++++++++++",
"++++++++++++oooooo++++++++++++++",
"+++++++++++o       +++++++++++++",
"+++++++++++o ++++o +++++++++++++",
"+++        o     o            ++",
"++ ++++++++o ++++o ++++++++ OO +",
"+ .........o ....o ....... OOOO ",
"+ .X.X.X.X.X.X.X.X.X.X.X.X OOOO ",
" XXXXXXXXXXXXXXXXXXXXXXXX OOOOO ",
" XXXXXXXXXXXXXXXXXXXXXXXX OOOO  ",
" XXXXXXXXXXXXXXXXXXXXXXXX OOO O ",
" @...@@@X@X@X@X@X@X@...@X OO OO ",
" @.@OOO@@@@@@@@@@@@@.@OOO O OOO ",
" @@.OO@@@@@@@@@@@@@@@.OO@  OOOO ",
"   .O                .O   OOOOO ",
" @@.OO@@@@@@@@@@@@@@@.OO@ OOOOO ",
" @@@OO@@@@@@@@@@@@@@@@OO@ OOOOO ",
" @@@OO@@@@@@@@@@@@@@@@OO@ OOOOO ",
" @@@@@@@@@@@@@@@@@@@@@@@@ OOOOO ",
" @@@@@@@@@@@@@@@@@@@@@@@@ OOOO +",
" @@@@@@@@@@@@@@@@@@@@@@@@ OOO ++",
" @@@@@@@@@@@@@@@@@@@@@@@@ OO +++",
" @@@@@@@@@@@@@@@@@@@@@@@@ O ++++",
" @@@@@@@@@@@@@@@@@@@@@@@@  +++++",
"                          ++++++",
"++++++++++++++++++++++++++++++++",
"++++++++++++++++++++++++++++++++",
"++++++++++++++++++++++++++++++++"
};
