/* XPM */
static char *medic_recol_xpm[] = {
/* width height ncolors chars_per_pixel */
"32 32 6 1",
/* colors */
"  c black",
". c grey",
"X c red",
"o c SeaGreen",
"O c white",
"+ c SlateGrey",
/* pixels */
"................................",
"................................",
"................................",
"........XXXXXXXXXX..............",
"........XXXXXXXXXX+.............",
"........XXXXXXXXXX+.............",
"........XXXXXXXXXX++............",
"........XXXXXX   X+++...........",
"........XXXXX  O    ++..........",
"........XXXXX O . o  +++++......",
"..XXXXXXXXXXX . .   o XXX+......",
"..XXXXXXXXXX o . oooo XXX+......",
"..XXXXXXXXXX           XX+......",
"..XXXXXXXXXX  OOOOOOO  XX+......",
"..XXXXXXXXX  O    OOOO  X+......",
"..XXXXXXXXX  OO O O OO  X+......",
"..XXXXXXXXXX OOOO OOOO XX+......",
"..XXXXXXXXXX OO     OO XX+......",
"..XXXXXXXXXXX  ooooo  ++++......",
"...+++++XXXXX ooooooo +.........",
"........XXXXXX  ooo  +..........",
"........XXXXXXX     ++..........",
"........XXXXXX       ++.........",
"........XXXXX          +++......",
"........XX   ooo   ooo    ++....",
"........X ooooooo oooooooo  +...",
".......  oo    o   o  O  oo  ++.",
"....... ooo oo oo oo OOO ooo  +.",
"...... oooo oo o   o oOo ooooo +",
".....                          +",
"......++++++++++++++++++++++++++",
"................................"
};
