/* XPM */
static char *oscar_recol_xpm[] = {
/* width height ncolors chars_per_pixel */
"32 32 4 1",
/* colors */
"  c black",
". c grey",
"X c white",
"o c SlateGrey",
/* pixels */
"XXXXXXXXXXXXXXXXXXXXXXXXXXXXXXXX",
"XXXXXXXXXXXXXXXXXXXXXXXXXXXXXXXX",
"XXXXXXXXXXXXXXXXXXXXXXXXXXXXXXXX",
"XXXXXXXXXXXXXX   XXXXXXXXXXXXXXX",
"XXXXXXXXXXXXX X.. XXXXXXXXXXXXXX",
"XXXXXXXXXXXXX  X  XXXXXXXXXXXXXX",
"XXXXXXXXXXXXX X . XXXXXXXXXXXXXX",
"XXXXXXXXXXXX   X   XXXXXXXXXXXXX",
"XXXXXXXXXX   X. ..  XXXXXXXXXXXX",
"XXXXXXXXXX XXX...XX. XXXXXXXXXXX",
"XXXXXXXXX Xo.oXXXo.o. XXXXXXXXXX",
"XXXXXXXXX X. .XoX. X. XXXXXXXXXX",
"XXXXXXXXX X. .ooo. X. XXXXXXXXXX",
"XXXXXXXXX  .o .X. o.  XXXXXXXXXX",
"XXXXXXXXXX  X. . X.  XXXXXXXXXXX",
"XXXXXXXXXXX  XX.X.  XXXXXXXXXXXX",
"XXXXXXXXXXXX   .   XXXXXXXXXXXXX",
"XXXXXXXXXXXX o   o XXXXXXXXXXXXX",
"XXXXXXXXXXXX oo oo XXXXXXXXXXXXX",
"XXXXXXXXXXXX Xo oX XXXXXXXXXXXXX",
"XXXXXXXXXXXX X. .X XXXXXXXXXXXXX",
"XXXXXXXXXXXXX X X XXXXXXXXXXXXXX",
"XXXXXXXXXXXXX . . XXXXXXXXXXXXXX",
"XXXXXXXXXXXXX X X XXXXXXXXXXXXXX",
"XXXXXXXXXXXXX . . XXXXXXXXXXXXXX",
"XXXXXXXXXXXX .XoX. XXXXXXXXXXXXX",
"XXXXXXXXXXX .X   X. XXXXXXXXXXXX",
"XXXXXXXXXX o         XXXXXXXXXXX",
"XXXXXXXXXoo..XX..ooo  XXXXXXXXXX",
"XXXXXXXXX             XXXXXXXXXX",
"XXXXXXXXXXXXXXXXXXXXXXXXXXXXXXXX",
"XXXXXXXXXXXXXXXXXXXXXXXXXXXXXXXX"
};
