/* XPM */
static char *question2_recol_xpm[] = {
/* width height ncolors chars_per_pixel */
"32 32 4 1",
/* colors */
"  c black",
". c white",
"X c yellow",
"o c SlateGrey",
/* pixels */
".............        oo.........",
"...........  XXXXXXXX  oo.......",
".......... XXXXXXXXXXXX oo......",
".........         XXXXXX oo.....",
"........  X.X.X.X.  XXXXX oo....",
"....... .X.X.X.X.X.X XXXX oo....",
"...... .X.X.X.X.X.X.X XXXX oo...",
"..... .X.X.X.X.X.X.X.X XXX oo...",
"..... X.X.X.X.X.X.X.X. XXX oo...",
".... X.X.X.X   X.X.X.X. XX oo...",
".... .X.X.X ... X.X.X.X XX oo...",
".... X.X.X ..... X.X.X. XX oo...",
".... .X.X. ..... .X.X.X X oo....",
".... X.X.X ..... X.X.X. X oo....",
".... .X.X. .... X.X.X.X  ooo....",
"....       ... X.X.X.X  ooo.....",
"............. X.X.X.X. ooo......",
"............ X.X.X.X. ooo.......",
"............ .X.X.X.  oo........",
"........... .X.X.X. X oo........",
"........... X.X.X.X X oo........",
"........... .X.X.X XX o.........",
"........... X.X.X. X ..o........",
"........... .X.X.X  X oo........",
"...........        X  oo........",
"............ XXXXXX X oo........",
"...........        XX oo........",
"........... .X.X.X XX o.........",
"........... X.X.X. XX ..........",
"........... .X.X.X X ...........",
"........... X.X.X.  ............",
"...........        ............."
};
