/* XPM */
static char *recycle_multiple_recol_xpm[] = {
/* width height ncolors chars_per_pixel */
"32 32 8 1",
/* colors */
"  c Black",
". c Grey",
"X c SeaGreen",
"o c NavyBlue",
"O c White",
"+ c Yellow",
"@ c SlateGrey",
"# c None",
/* pixels */
"#########@@@@@@@@@@@@@@ ########",
"########@OOOOOOOOOOOOOO@ #######",
"#####@@@OOO+.+.+.+.+.+X@+ ######",
"###@@OO@@@@@@@@@@@+.+.X@.+ #####",
"##@OO@@@OOOOOOOOO@ +.+X@+. #####",
"##@O@@@@OOOOOOOOO@. +.X@.+ #####",
"##@OO@@@OOOOOOOOO@.. +X@+. #####",
"##@..OO@OOOOOOOOO     X@.+ @####",
"##@....OO..oooooOO@@@ X@+. O@@##",
"###@.....OO..OOOOOOOO X@. ..OO #",
"###@.......OO..ooooOO X@ ...OO #",
"###@.........OO..OOOO X@.OOO@@ #",
"###@...........OO.... OOO@@@@@ #",
"####@.......@XX..OOOOO@@@@@@@ ##",
"####@......XXXXX.X..@@@@@@@@@ ##",
"####@..XXXX...XXXX..@@@@@@@@@ ##",
"####@...XXX....XXX..@@@@@@@@@ ##",
"#####@.XXXX...XXXX..@@@@@@@@ ###",
"#####@.XX.X.........@@@@@@@@ ###",
"#####@.XX........X..@@@@@@@@ ###",
"#####@.XX....X...X..@@@@@@@@ ###",
"######@.X@..XX..@X..@@@@@@@ ####",
"######@..X.XXXXXXX..@@@@@@@ ####",
"######@....@XXXXX...@@@@@@@ ####",
"######@@@...@X......@@@@@@@ ####",
"#######  @@..@......@@@@@@ #####",
"#########  @@.......@@@@@@ #####",
"###########  @@.....@@@@@@ #####",
"#############  @@...@@@@@@ #####",
"###############  @@.@@@@  ######",
"#################  @@@  ########",
"###################   ##########"
};
