/* XPM */
static char * skull_xpm[] = {
/* width height ncolors chars_per_pixel */
"32 32 7 1",
/* colors */
" 	s None	c None",
".	c black",
"X	c grey",
"o	c white",
"O	c gainsboro",
"+	c slate grey",
"@	c dark slate grey",
/* pixels */
"            .........           ",
"          ..XooooooOX..         ",
"         .XoooooooooooX.        ",
"        .XoooooooooooooX.       ",
"       .XoooooooooooooooX.      ",
"       .ooooooooooooooooX.      ",
"      .XoooooooooooooooooX.     ",
"      .ooooooooooooooooXoX.     ",
"      .ooooooooooooooooo+X.     ",
"      .ooooooooooooooooooX.     ",
"      .ooooooooooooooooo+X.     ",
"      .oooooooooooooooooXX.     ",
"      .o@ooooooooooooooo@X.     ",
"       .ooooooooXoooooooo.      ",
"       .oO...@OoXoO@...Oo.      ",
"       .o....@@+o+@...+.o.      ",
"       .o...+X@oXo@..+X.o.      ",
"      .oo@+XX@OoooO@XX.@oo.     ",
"      .ooO@.@OoX.XoO@@@ooO.     ",
"      .oXoooooo...oooooXoX.     ",
"       .ooooooX...XoooooX.      ",
"       ..@oooo@.X.@oooo@..      ",
"        .o@Xoo+.o.+ooX@X.       ",
"        ..ooooooXoooooX..       ",
"        ..XoooooooooooX..       ",
"        .o..oXoXoXoXo..X.       ",
"         .o..o@o@o@o..o.        ",
"         .ooX@o@o@o.XoX.        ",
"          .oooXoXoXooX.         ",
"           .ooooooooX.          ",
"            .oooooXX.           ",
"             .......            "};
