/* XPM */
static char * telescope_xpm[] = {
/* width height ncolors chars_per_pixel */
"32 32 8 1",
/* colors */
" 	c grey",
".	c dark slate grey",
"X	c firebrick",
"o	c slate grey",
"O	c lavender",
"+	c red",
"@	c blue",
"#	c cyan",
/* pixels */
"                                ",
"        ...                     ",
"      ....X..       .....       ",
"     ..oooo...     .XXXXX.      ",
"    .ooooX....X   .XO+++XX.     ",
"   .o   . O@..o. .X+OO+++XX.    ",
"  .o   X@OO#.O.. .X++++++XX.... ",
"  .O  .@#@O.o. . .X++++++XX. O X",
" ..OOX@#@#.o  ... XX++++XXX.....",
" .oo.@#@#.o   ...O............. ",
"  X..#....o  .oOo. .........    ",
"   .....ooooXo  Oo. XXXXXX.     ",
"    ..ooooo..    O.OXXXXX.      ",
"     ...oX..oo   X. .....       ",
"      .....oooo  ..X            ",
"          ...ooo.oOo.           ",
"           X.....o OoX          ",
"           .....oo  O.          ",
"          ........o  ..         ",
"         . ..X.o.ooo.oO.        ",
"        X  ...oo X...o OX       ",
"       .   ..X.o    Xoo O.      ",
"    ...    ...oo     ..o  .     ",
"    . .    ..X.o      .ooo.     ",
"    ...    .o.oo       X..      ",
"           .O..o                ",
"           ..Xoo                ",
"          ..o...                ",
"        X.o OOOX.               ",
"     X..............            ",
"                                ",
"                                "};
