/* XPM */
static char * toolbox_xpm[] = {
/* width height ncolors chars_per_pixel */
"32 32 9 1",
/* colors */
" 	s None	c None",
".	c black",
"X	c white",
"o	c grey",
"O	c slate grey",
"+	c red",
"@	c cyan",
"#	c yellow",
"$	c blue",
/* pixels */
"                                ",
"                                ",
"                                ",
"                                ",
"        ..                      ",
"       .XX.    .....            ",
"       .XoO.   .XXO. ...        ",
"     ..XoOO.   .XoO...oo......  ",
"   ..XXoO..    .XoO.++..XXXXO.oo",
"  .XXooO.      ..o..++.XooOO. ..",
" .XooooO.     ...o.++..XoO.. .X.",
" .XOOO.@@.. ..++.o...X.XO.  .XO.",
".XO.   .@X..++++.o.oXo.XO.  .XO.",
".O.  .....+++++..o.XoX.XoO..XoO.",
"..  .+OoO++++..X...oXo.XooXXooO.",
"..  .+.oo.+..@..X#X.o.XooOOOOO. ",
".  .+++OoO..@X@.#.#..XooO.....  ",
".  .+++.oo.X.@X.X............   ",
"  .+++++OoO.X.@..XXXX.++++.     ",
"  .+++++.oo.oX...X$$.++++.      ",
" .+++++++OoO.....X$.++++.       ",
" .+++++++.oo.XXX.X.++++.        ",
".+++++++++OoOOoO..++++.         ",
".+++++++++.oo..O.++++.          ",
".++++++++++OoOo.++++.           ",
".++++++++++.oo.++++.            ",
"..++++++++++..++++.             ",
"  ..++++++++.++++.              ",
"    ..++++++.+++.               ",
"      ..++++.++.                ",
"        ..++.+.                 ",
"          ....                  "};
