/* XPM */
static char * program_xpm[] = {
/* width height ncolors chars_per_pixel */
"32 32 6 1",
/* colors */
" 	s None	c None",
".	c black",
"X	c wheat",
"o	c tan",
"O	c slate grey",
"+	c dark slate grey",
/* pixels */
"    ..................          ",
"    .XXXXXXXXXXXXXXXX..         ",
"    .XXXXXXXXXXXXXXXX.o.        ",
"    .XXXXXXXXXXXXXXXX.oo.       ",
"    .XXOOOOOOOOOOOOXX.ooo.      ",
"    .XXXXXXXXXXXXXXXX.oooo.     ",
"    .XXOOOOOOOOOOOOXX.......    ",
"    .XXXXXXXXXXXXXXXXXooooo.+   ",
"    .XXXXXOOOOOOOXXXXXXoooo.+   ",
"    .XXXXXXXXXXXXXXXXXXXXXX.+   ",
"    .XXXXXOOOOOOOOOOOOOOXXX.+   ",
"    .XXXXXXXXXXXXXXXXXXXXXX.+   ",
"    .XXXXXOOOOXXXXXXXXXXXXX.+   ",
"    .XXXXXXXXXXXXXXXXXXXXXX.+   ",
"    .XXXXXOOOOOOXXXXXXXXXXX.+   ",
"    .XXXXXXXXXXXXXXXXXXXXXX.+   ",
"    .XXOOOOOOOOOOOOOOOOXXXX.+   ",
"    .XXXXXXXXXXXXXXXXXXXXXX.+   ",
"    .XXOOOOOOOOOOOOOOOOXXXX.+   ",
"    .XXXXXXXXXXXXXXXXXXXXXX.+   ",
"    .XXXXXXXXXXXXXXXXXXXXXX.+   ",
"    .XX.....X.....XX.....XX.+   ",
"    .XX...X.....X....X..XXX.+   ",
"    .XX..XX....XXXX..X..XXX.+   ",
"    .XX...X....XXXXX...XXXX.+   ",
"    .XX.....X..XXXX..XXXXXX.+   ",
"    .XX..XXXX..XXXXX....XXX.+   ",
"    .XX..XXXXXXXXXX..XX..XX.+   ",
"    .XX..XXXXXXXXXXX....XXX.+   ",
"    .XXXXXXXXXXXXXXXXXXXXXX.+   ",
"    ........................+   ",
"     ++++++++++++++++++++++++   "};
