#define checkbox_tick_width 20
#define checkbox_tick_height 16
static unsigned char checkbox_tick_bits[] = {
 0x00,0x00,0x00,0x00,0x00,0x02,0xf8,0x9f,0x01,0x08,0xc0,0x00,0x08,0x60,0x00,
 0x08,0x30,0x00,0xc8,0xb8,0x00,0xe8,0x9d,0x00,0xf8,0x9f,0x00,0xe8,0x8f,0x00,
 0xc8,0x8f,0x00,0x88,0x87,0x00,0x08,0x87,0x00,0x08,0x82,0x00,0xf8,0xff,0x00,
 0x00,0x00,0x00};
