/* XPM */
static char * flag_green_xpm[] = {
/* width height ncolors chars_per_pixel */
"20 16 4 1",
/* colors */
" 	s None	c None",
".	c black",
"X	c green",
"o	c sea green",
/* pixels */
"                   .",
"              XXoo..",
"            XXXXo . ",
"     XXXXXXXXXXXo . ",
"  XXXXXXXXXXXXXoo . ",
" XXXXXXXXXXXXXXo .  ",
"XooooXXXXXXXXXXo .  ",
"     ooXXXXXoooo .  ",
"       oooooo  o .  ",
"                .   ",
"                .   ",
"                .   ",
"                .   ",
"               .    ",
"               .    ",
"               .    "};
