/* XPM */
static char * left_green_xpm[] = {
/* width height ncolors chars_per_pixel */
"20 16 4 1",
/* colors */
" 	s None	c None",
".	c pale green",
"X	c sea green",
"o	c green",
/* pixels */
"                    ",
"                    ",
"                    ",
"         ..         ",
"        ..X         ",
"       ..oX         ",
"      ..ooX.....    ",
"     ..ooooooooX    ",
"    ..oooooooooX    ",
"     XoooooooooX    ",
"      XoooXXXXXX    ",
"       XooX         ",
"        XoX         ",
"         XX         ",
"                    ",
"                    "};
