/* XPM */
static char * star2_red_xpm[] = {
/* width height ncolors chars_per_pixel */
"20 16 3 1",
/* colors */
" 	s None	c None",
".      c blue",
"X      c navy",
/* pixels */
"                    ",
"                    ",
"         .          ",
"         .          ",
"         .          ",
"        ..X         ",
"        ..X         ",
"     .......XX      ",
"      .....XX       ",
"       ....X        ",
"       .XXXX        ",
"      .X   XX       ",
"      X     X       ",
"                    ",
"                    ",
"                    "};
