#define star_width 20
#define star_height 16
static unsigned char star_bits[] = {
 0x00,0x00,0x00,0x00,0x06,0x00,0x00,0x06,0x00,0x00,0x0f,0x00,0x00,0x0f,0x00,
 0xfc,0xff,0x03,0xf8,0xff,0x01,0xf0,0xff,0x00,0xe0,0x7f,0x00,0xc0,0x3f,0x00,
 0xc0,0x3f,0x00,0xe0,0x7f,0x00,0xe0,0x79,0x00,0xf0,0xf0,0x00,0x30,0xc0,0x00,
 0x00,0x00,0x00};
