/* XPM */
static char *x11tiles_xpm[] = {
/* width height ncolors chars_per_pixel */
"16 16 7 1",
/* colors */
"  c black",
". c orange",
"X c sienna",
"o c peru",
"O c None s None",
"+ c tan",
"@ c blue",
/* pixels */
"OOOOOOOOOOOOOOOO",
"OOOOOOOOOOOOOOOO",
"OOOOOOoXOXOOOOOO",
"OOOOOOoXXXOOOOOO",
"OOOOo.oooXXXOOOO",
"OOOOOO+@+@ OOOOO",
"OOOOOO++++ OOOOO",
"OOOOOO ++ OOOOOO",
"OOOOO.o  oXO   O",
"OOOO.oooXXXX   O",
"OOOOo .oXX X   O",
"OOOO+ .XoX +   O",
"OOOOOO.XXo    OO",
"OOOOOo.X XX O OO",
"OOOOO.XXOXoXOOOO",
"OOOOOOOOOOOOOOOO"
};
