/* XPM */
static char *x11tiles_xpm[] = {
/* width height ncolors chars_per_pixel */
"16 16 7 1",
/* colors */
"  c black",
". c lime green",
"X c magenta",
"o c red",
"O c None s None",
"+ c yellow",
"@ c tan",
/* pixels */
"OOOOOOOOOOOOOOOO",
"OOOOOOOOOOOOOOOO",
"OOOOOO  OOOOOOOO",
"OOOOOOO   OOOOOO",
"OOOOOO     OOOOO",
"OOOOO @.@. OOOOO",
"OOOOO @@@@ OOOOO",
"OOOOOO @@ OOOOOO",
"OOOOXXX  XXX   O",
"OOOO@oXXXXo@   O",
"OOOO@ XXXX @   O",
"OOOO@ @++@ @   O",
"OOOOOOXXXX    OO",
"OOOOOOXX X  O OO",
"OOOOOXX OXX OOOO",
"OOOOOOOOOOOOOOOO"
};
