/* XPM */
static char *x11tiles_xpm[] = {
/* width height ncolors chars_per_pixel */
"16 16 11 1",
/* colors */
"  c black",
". c green",
"X c orange",
"o c magenta",
"O c red",
"+ c sienna",
"@ c peru",
"# c None s None",
"$ c yellow",
"% c tan",
"& c blue",
/* pixels */
"####$##$##$#####",
"####$X$&$X$#####",
"####$$$$$$$#####",
"#### %%%%% #####",
"####%% % %%#####",
"#####%%%%%######",
"####$%%O%%$#####",
"###$o %%% o$# # ",
"###$o$   $o$    ",
"##ooo&$$$oooo   ",
" #oooo&$ooooo  #",
" #o%%o$$$o%%o   ",
" ##%oo@$ooo%    ",
"##.ooo@+oooo.  #",
"#.ooo@++@@ooo..#",
"################"
};
