/* XPM */
static char *x11tiles_xpm[] = {
/* width height ncolors chars_per_pixel */
"16 16 13 1",
/* colors */
"  c black",
". c lime green",
"X c green",
"o c orange",
"O c magenta",
"+ c red",
"@ c sienna",
"# c None s None",
"$ c white",
"% c yellow",
"& c dodger blue",
"* c wheat",
"= c blue",
/* pixels */
"######XXX. #####",
"#####$.$.== ####",
"####X...==o ####",
"##+o%%.##oo ####",
"o%o%o+##&oo ####",
"%+#+###&.. #####",
"######*&.      #",
"####%*X.        ",
"##%**O= #=.#   #",
"#%***O====..@  #",
"#%***O==...++  #",
"%&**OO=...++oo #",
"%&#*O=.**++#o@ #",
"%&  X=#  ++ oo #",
"####X.  ###oo@ #",
"########....@ ##"
};
