/* XPM */
static char *x11tiles_xpm[] = {
/* width height ncolors chars_per_pixel */
"16 16 7 1",
/* colors */
"  c black",
". c None s None",
"X c yellow",
"o c dodger blue",
"O c wheat",
"+ c tan",
"@ c blue",
/* pixels */
"................",
"................",
"................",
"................",
"......o.........",
".....o@@........",
"....XXXXX.......",
"....o+++@.......",
"....oO+O@..   ..",
"...ooOOO@@    ..",
"...o oO@ @    ..",
"....+oo@+    ...",
"....@o @@  .....",
"....o@ @o. .....",
"................",
"................"
};
