/* XPM */
static char *x11tiles_xpm[] = {
/* width height ncolors chars_per_pixel */
"16 16 9 1",
/* colors */
"  c black",
". c lime green",
"X c green",
"o c None s None",
"O c yellow",
"+ c dodger blue",
"@ c tan",
"# c slate grey",
"$ c blue",
/* pixels */
"oooooooooXoooooo",
"oooo+ooXX.oo+ooo",
"ooo++oXXXX ++ooo",
"oo+#+O@$@$O+#+oo",
"oo+++O@@@@O+++oo",
"oo#+OO @@ OO#ooo",
"ooo#OOX  XOO+ooo",
"ooo++@XXX.@+++oo",
"oo++@  X.  @++oo",
"ooo+@ XXX. @+ooo",
"ooooooX. .oooooo",
"oooooo@oo@o   oo",
"oooooo        oo",
"oooo        oooo",
"ooooo      ooooo",
"oooooooooooooooo"
};
