/* XPM */
static char *x11tiles_xpm[] = {
/* width height ncolors chars_per_pixel */
"16 16 9 1",
/* colors */
"  c black",
". c green",
"X c orange",
"o c red",
"O c sienna",
"+ c peru",
"@ c None s None",
"# c yellow",
"$ c wheat",
/* pixels */
"oo@$##o@@@@@@@@@",
"oo$##o.o@@@@@@@@",
"oo$#ooooo@@@@@@@",
"oo##ooo @@@@@@@@",
"ooo#oO oooo@@@@@",
"oooOoooooooo@@@@",
"@oooooXoo@ooo@@@",
"@ooXooo++@@oo@@@",
"@@oo++ooo  oo @@",
"@@@oooooo     @@",
"@@@@ooooooooo @@",
"@@@@ooOoOO      ",
"@@@@OoOO o+  @@@",
"@@@@oo+  oo+ @@@",
"@@@oo+  @@oo  @@",
"@@oo+  @@@ooo @@"
};
