/* XPM */
static char *x11tiles_xpm[] = {
/* width height ncolors chars_per_pixel */
"16 16 5 1",
/* colors */
"  c black",
". c peru",
"X c None s None",
"o c tan",
"O c slate grey",
/* pixels */
"XXXXXXXXXXXXXXXX",
"XXXX..XXXXXXXXXX",
"XXX.oo.XXXXXXXXX",
"XXXoooo XXXXXXXX",
"XXX oo  XXXXXXXX",
"XXXo  o XXXXXXXX",
"XXXoooo XXXXXXXX",
"XXXooo  XXXXXXXX",
"XXXo o  XXOOOXXX",
"XXX    OOO  OXXX",
"XXX    O      OX",
"XXX            O",
"XXX       OOX  O",
"XXXX     OXX  OX",
"XXXXX  OOXX  OXX",
"XXXXXXXXXX OXXXX"
};
