/* XPM */
static char *x11tiles_xpm[] = {
/* width height ncolors chars_per_pixel */
"16 16 6 1",
/* colors */
"  c black",
". c green",
"X c sienna",
"o c peru",
"O c None s None",
"+ c slate grey",
/* pixels */
"OOOOOOOOOOOOOOOO",
"OOOOOOOOOOOOOOOO",
"OOOOOOOOOOOOOOOO",
"OOOOOOOOOOOOOOOO",
"OOOOOOOOOOOOOOOO",
"OOOOOOOOOOOOOOOO",
"OOoOOoOXoooooOOO",
"OOooooXoooXoooOO",
"OOX o oXoXXoooXO",
"OO. . oXoXXooooO",
"OO o oXoo oo oo ",
"OooXXXXo Xo  oo ",
"O+XX  oo XX Xo O",
"OO  Ooo  OOXo OO",
"OOOOOOOOOOXX OOO",
"OOOOOOOOOOOOOOOO"
};
