/* XPM */
static char *x11tiles_xpm[] = {
/* width height ncolors chars_per_pixel */
"16 16 12 1",
/* colors */
"  c black",
". c magenta",
"X c red",
"o c sienna",
"O c peru",
"+ c None s None",
"@ c yellow",
"# c dodger blue",
"$ c wheat",
"% c tan",
"& c slate grey",
"* c blue",
/* pixels */
"++++++++++++++++",
"++++++++++++++++",
"++++++++++++++++",
"+++++$ +++$ ++++",
"+++++$$.X&& ++++",
"++++++.XXX +++++",
"++++++%O%O +++++",
"++++++%%%% +++++",
"++++++ %% ++++++",
"++++++#  #  ++ +",
"+++++O*##*o    +",
"++++O  **  O  ++",
"++++% oo@o %  ++",
"++++++OOoO    ++",
"+++++OO +OO ++++",
"++++++++++++++++"
};
