/* XPM */
static char *x11tiles_xpm[] = {
/* width height ncolors chars_per_pixel */
"16 16 7 1",
/* colors */
"  c black",
". c lime green",
"X c magenta",
"o c red",
"O c None s None",
"+ c dodger blue",
"@ c tan",
/* pixels */
"OOOOOOOOOOOOOOOO",
"OOOOOOOOOOOOOOOO",
"OOOOOOOOO  OOOOO",
"OOOOOOO   OOOOOO",
"OOOOOO     OOOOO",
"OOOOO @.@. OOOOO",
"OOOOO @@@@ OOOOO",
"OOOOOO @@ OOOOOO",
"OOOOXXX  XXX   O",
"OOOO@oXXXXo@   O",
"OOOO@ ++++ @   O",
"OOOO@ ++++ @   O",
"OOOOOOXooo    OO",
"OOOOOOXo o  O OO",
"OOOOOXX OXX OOOO",
"OOOOOOOOOOOOOOOO"
};
