/* XPM */
static char *x11tiles_xpm[] = {
/* width height ncolors chars_per_pixel */
"16 16 8 1",
/* colors */
"  c black",
". c magenta",
"X c red",
"o c None s None",
"O c white",
"+ c yellow",
"@ c tan",
"# c slate grey",
/* pixels */
"oooooooooooooooo",
"ooooooo##ooooooo",
"oooooo####oooooo",
"oooooX##O#oooooo",
"ooooXXX###oooooo",
"ooooXX####oooooo",
"ooooXoo## oooooo",
"ooooo#.  .#o   o",
"oooo###..###   o",
"oooo# #### #   o",
"oooo# ++++ #   o",
"oooo@ #### @   o",
"oooooo####    oo",
"oooooo####  o oo",
"ooooo@@ o@@ oooo",
"oooooooooooooooo"
};
