/* XPM */
static char *x11tiles_xpm[] = {
/* width height ncolors chars_per_pixel */
"16 16 3 1",
/* colors */
"  c black",
". c None s None",
"X c slate grey",
/* pixels */
".......X........",
"....X..X........",
".....X.X...X....",
"...X.......X....",
"..X..X.X.X......",
"....XX.XX.X.X...",
".X.. X XXX..X...",
"...X.XXXX.XX....",
"......XXXXX.X.X.",
"...X.XXXXX..X...",
"....X..X.XX.X...",
".X...X.X...XXX..",
"..X.X....XX.....",
".......X....X...",
"..X..X.X..X.....",
"................"
};
