/* XPM */
static char *x11tiles_xpm[] = {
/* width height ncolors chars_per_pixel */
"16 16 5 1",
/* colors */
"  c black",
". c lime green",
"X c red",
"o c None s None",
"O c blue",
/* pixels */
"oOOOoooooooOOOoo",
"O.. OooOooO ..Oo",
"O   OoOOOoO   Oo",
"O   OOO OOO   Oo",
"OO  OOX XOO  OOo",
"oOOOO     OOOOoo",
"ooOOOO   OOOOooo",
"ooOOOOOOOOOOoooo",
"oooOOOOOOOOooooo",
"oooOOOOOOOOoooo ",
"ooooOOOOOOooo   ",
"ooooOOOOOO      ",
"oooOOOOOOOO     ",
"ooOOOOOOOOO     ",
"oOOOOOOOOOOO   o",
"OOOOOOOOOOOOOO o"
};
