/* XPM */
static char *edit_recol_xpm[] = {
/* width height ncolors chars_per_pixel */
"32 32 6 1",
/* colors */
"  c black",
". c tan",
"X c wheat",
"o c LemonChiffon",
"O c None",
"+ c blue",
/* pixels */
"OOOOOOOOOOOOOOOOOOOOOOOOOOOOOOOO",
"OOOOOOOOOOOOOOOOOOOOOOOOOOOOOOOO",
"OOOOOOOOOOOOOOOOOO   OOOOOOOOOOO",
"OOOOOOOOOOOOOOOOO . o OOOOOOOOOO",
"OOOOOOOOOOOOOOOO . ooo OOOOOOOOO",
"OOOOOOOOOOOOOOO . ooooo OOOOOOOO",
"OOOOOOOOOOOOOO . ooooooo OOOOOOO",
"OOOOOOOOOOOOO . ooooooooo OOOOOO",
"OOOOOOOOOOOO . ooooooooooo OOOOO",
"OOOOOOOOOO    ooooooooooooo OOOO",
"OOOOOOOOO  ooooooooooooooooo OOO",
"OOOOOOOOO o ooooooooooooooooo OO",
"OOOOOOOO  oo ooooooooooooooooo O",
"OOOOOOO . ooo ooooooooooooooooo ",
"OOOOOO . ooo+o oooo      ooooo O",
"OOOOO . oooo+oo oo ...... ooo OO",
"OOOO . oooo+oo+o  .XXXXXX. o OOO",
"OOO . oooo+ooo+o .X  XXXXX. OOOO",
"OO . oooooooo+oo   oo XXXXX. OOO",
"O . oooo+ooo+   ..       XXX. ++",
" . oooo+ooooooo XX.  ....XXXX.++",
"O . oo+ooo+ooooo XX..XXXXXXXXX++",
"OO . oooo+ooooooo XXXXXXXXXXXX++",
"OOO . oo+ooo+ooooo  XXXXXXXXXX++",
"OOOO . oooo+oooooooo        XX++",
"OOOOO . oo+ooo+oooo OOOOOOOO  ++",
"OOOOOO . oooo+oooo OOOOOOOOOOO++",
"OOOOOOO . oo+oooo OOOOOOOOOOOOOO",
"OOOOOOOO . ooooo OOOOOOOOOOOOOOO",
"OOOOOOOOO . ooo OOOOOOOOOOOOOOOO",
"OOOOOOOOOO . o OOOOOOOOOOOOOOOOO",
"OOOOOOOOOOO   OOOOOOOOOOOOOOOOOO"
};
