/* XPM */
static char *open_recol_xpm[] = {
/* width height ncolors chars_per_pixel */
"32 32 6 1",
/* colors */
"  c black",
". c wheat",
"X c red",
"o c SlateGrey",
"O c LemonChiffon",
"+ c None",
/* pixels */
"++++++++++++++++++++++++++++++++",
"       +++++++++++++++++++++++++",
" X ...  ++++++++++++++++++++++++",
" X ... O +++++++++++++++++++++++",
" X ... OO ++++++++++++++++++++++",
" X ... OOoo+oo              ++++",
" X ... OO. + .OOOOOOOOOOOOO  +++",
" X ... OO.  .OOOOOOOOOOOOOO . ++",
" X ... OO. ...O O O O O O O .   ",
" X ... OO. ...OOO OO OO O O . X ",
" X ... OO. ..OOOO O O O O O . X ",
" X ... OO. ...O  OO O O  OO . X ",
" X ... OO. ..OOOOOOOOOOOOOO . X ",
" X ... OO. ...O O O O O   O . X ",
" X ... OO. ..OO O O O O OOO . X ",
" X ... OO. ...O O OO OO OOO . X ",
" X ... OO. ..OOO OOO OO   O . X ",
" X ... OO. ...OOOOOOOOOOOOO . X ",
" X ... OO. ..OO  OO OOO  OO . X ",
" X ... OO. ...OO OO  OOOO O . X ",
" X ... OO. ..OOO  OOO OOO O . X ",
" X ... OO. ...O O O   O   O . X ",
" X ... OO. ..OOOOOOOOOOOOOO . X ",
"+ X OOO .. ...OOOOOOOOOOOOO . X ",
"++ X OOO . ..OOOOOOOOOOOOOO . X ",
"+++ X OOO  ...              . X ",
"++++ X OO. . .OOOOOOOOOOOOOO. X ",
"+++++ X OO  OOOOOOOOOOOOOOOOO X ",
"++++++ X . ..                 X ",
"+++++++ X    XXXXXXXXXXXXXXXXXX ",
"+++++++ XXXXX                   ",
"++++++++     +++++++++++++++++++"
};
