#define end-e_width 24
#define end-e_height 24
static char end-e_bits[] = {
0x00,0x00,0x00,0x00,0x00,0x00,0x00,0x00,0x00,0x00,0x00,0x00,
0x00,0x00,0x00,0x88,0x88,0x88,0xcc,0xcc,0xcc,0xaa,0xaa,0xaa,
0x44,0x44,0x44,0xff,0xff,0x7f,0x22,0x22,0x22,0x11,0x11,0x11,
0x11,0x11,0x11,0x88,0x88,0x08,0x88,0x88,0x08,0x44,0x44,0x04,
0x44,0x44,0x04,0x22,0x22,0x02,0xff,0xff,0x03,0x00,0x00,0x00,
0x00,0x00,0x00,0x00,0x00,0x00,0x00,0x00,0x00,0x00,0x00,0x00};
