#define T-nsw_width 24
#define T-nsw_height 24
static char T-nsw_bits[] = {
0x21,0x00,0x70,0x27,0xc0,0x70,0x1f,0x20,0x70,0x00,0x00,0x70,
0x00,0x00,0x70,0x00,0x00,0x70,0x08,0x01,0x68,0x84,0x41,0x68,
0x80,0x20,0x74,0x00,0x20,0x70,0x00,0x00,0x70,0x00,0x00,0x70,
0x00,0x00,0x70,0x00,0x06,0x70,0x0c,0x02,0x70,0x04,0x00,0x70,
0x00,0x40,0x68,0x1f,0x80,0x68,0x20,0x80,0x74,0x10,0x00,0x74,
0x28,0x04,0x70,0x24,0x08,0x70,0x22,0x08,0x70,0x21,0x00,0x70};
