#define weak_wall_6_width 24
#define weak_wall_6_height 24
static char weak_wall_6_bits[] = {
0x00,0x00,0x00,0xff,0x93,0xff,0xef,0x47,0xfd,0xf0,0x47,0x10,
0xe0,0x47,0x11,0xe4,0x93,0x28,0xe4,0x47,0x34,0xe2,0x47,0x10,
0xd0,0x57,0x11,0xf0,0xc7,0x10,0xe8,0x87,0x08,0xe0,0x47,0x28,
0xe0,0x57,0x14,0xf0,0x43,0x10,0xe8,0x4b,0x31,0xe0,0x87,0x10,
0xec,0xc7,0x20,0xfb,0x47,0xf0,0xc4,0x47,0x0c,0x80,0x63,0x05,
0x00,0x47,0x03,0x40,0x56,0x21,0x30,0xc4,0x10,0xcf,0x83,0xef};
