/* XPM */
static char *toggle_on_recol_bad_xpm[] = {
/* width height ncolors chars_per_pixel */
"30 30 11 1",
/* colors */
"  c tan",
". c wheat",
"X c lavender",
"o c dark khaki",
"O c gainsboro",
"+ c peru",
"@ c grey",
"# c sienna",
"$ c dark slate grey",
"% c white",
"& c slate grey",
/* pixels */
"@@@@@@@@@@@@@@@@@@@@@@@@@@@@@@",
"@@@@@@@@@@@@@@@@@@@@@@@@@@@@@@",
"@@@@@@@@@@@@@@@@@@@@@@@@@@@@@@",
"@@@@@@@@@@@@@@@@@@@@@@@@@@@@@@",
"@@@@@@@@@@@@@@@@@@@@@@@@@@@@@@",
"@@@@@@@@@@@@@@@@@@@@@@@@@@@@@@",
"@@@O@@@O@@@@&&&&&&@@@O@@@O@@@@",
"@@@@@@@@@@&$$#$&#&&&@@@@@@@@@@",
"@@@@@@@@@$#&$&&&&&+&&@@@@@@@@@",
"@@@@@@@@$&$&@O.@ @&& &@@@@@@@@",
"@@@@@@@&#& OO@@@@@ @&@ @@@@@@@",
"@@@@@@ &$&O.&&& &@&&&@@@@@@@@@",
"@@@O@@&$&.O&&#@&@@ &o@@@@@@O@@",
"@@@@@@&#&O@&&&@@O@@&&@@@@@@@@@",
"@@@@@@$& O@& @@OOO@&$&@O@@@@@@",
"@@@@@@&$@O@ &@OOOX&#& @O@@@@@@",
"@@@@@@#& @@&@@OOOO&$$@OO@@@@@@",
"@@@@@@&&&@@@@@OO%&#&#@OO@@@@@@",
"@@@@@@@&&@& &@ @&$&$&XOO@@@@@@",
"@@@@@@ && @&&&&&$#$&OOO@@@@@@@",
"@@@O@@@@& &@&#&$#$&.OXO@@@@@@@",
"@@@@@@@@@&@@@ &&&OOXOO@@@@O@@@",
"@@@@@@@@@@@@@@OOOOXOO@@@@@@@@@",
"@@@@@@@@@@@@@@@OOOO@@@@@@@@@@@",
"@@@@@@@@@@@@@@@@@@@@@@@@@@@@@@",
"@@@@O@@@@@@@@@@O@@@@@@@@@@@@@@",
"@@@@@@@@@@@@@@@@@@@@@@@@@@@@@@",
"@@@@@@@@@@@@@@@@@@@@@@@@@@O@@@",
"@@@@@@@O@@@@@@@@@@@O@@@O@@@@@@",
"@@@@@@@@@@@@@@@@@@@@@@@@@@@@@@"
};
