#define button_plate_1_width 24
#define button_plate_1_height 24
static char button_plate_1_bits[] = {
0x00,0x00,0x00,0x00,0x00,0x00,0x00,0x00,0x00,0x00,0x00,0x00,
0x00,0x00,0x00,0x00,0x00,0x00,0x00,0x00,0x00,0x00,0xff,0x00,
0xe0,0x00,0x07,0x18,0x00,0x18,0x04,0x56,0x20,0x06,0x00,0x60,
0x16,0x00,0x68,0xe6,0x00,0x67,0x1c,0xff,0x38,0xfc,0x00,0x3f,
0xf0,0xff,0x0f,0x80,0xff,0x01,0x00,0x00,0x00,0x00,0x00,0x00,
0x00,0x00,0x00,0x00,0x00,0x00,0x00,0x00,0x00,0x00,0x00,0x00};
