/* XPM */
static char * bricks_recol_bad[] = {
/* width height ncolors chars_per_pixel */
"61 61 4 1",
/* colors */
" 	c grey",
".	c darkslategrey",
"X	c slategrey",
"o	c gainsboro",
/* pixels */
"             .Xoo                          .X oo             ",
"             .Xoo                          .X oo             ",
"             .Xoo                          .X oo             ",
"             .Xoo                          .X oo             ",
"            ..X o                         ..X  o             ",
"           ..XX                          ..XX                ",
"............XX    X.......................XX     X...........",
"XXXXXXXXXXXXX      XXXXXXXXXXXXXXXXXXXXXXXX       XXXXXXXXXXX",
"   ooooooooooooooooooooooo       ooooooooooooooooooooooo     ",
"  oooooooooooooooooooooooooo    oooooooooooooooooooooooooo   ",
" oooo                       o  oooo                       o  ",
" ooo                         X ooo                         X ",
" oo                          .Xoo                          .X",
" oo                          .Xoo                          .X",
" oo                          .Xoo                          .X",
" oo                          .Xoo                          .X",
" oo                          .Xoo                          .X",
" oo                          .Xoo                          .X",
" oo                          .Xoo                          .X",
"  o                         ..X o                         ..X",
"                           ..XX  o                       ..XX",
"    X.......................XX    X.......................XX ",
"     XXXXXXXXXXXXXXXXXXXXXXXX      XXXXXXXXXXXXXXXXXXXXXXXX  ",
"oooooooooo       ooooooooooooooooooooooo        ooooooooooooo",
"oooooooooooo    oooooooooooooooooooooooooo     oooooooooooooo",
"            o  oooo                       o   oooo           ",
"             X ooo                         .  ooo            ",
"             .Xoo                          .X oo             ",
"             .Xoo                          .X oo             ",
"             .Xoo                          .X oo             ",
"             .Xoo                          .X oo             ",
"             .Xoo                          .X oo             ",
"             .Xoo                          .X oo             ",
"             .Xoo                          .X oo             ",
"            ..X o                         ..X  o             ",
"           ..XX                          ..XX                ",
"............XX    X.......................XX     X...........",
"XXXXXXXXXXXXX      XXXXXXXXXXXXXXXXXXXXXXXX       XXXXXXXXXXX",
"   ooooooooooooooooooooooo       ooooooooooooooooooooooo     ",
"  oooooooooooooooooooooooooo    oooooooooooooooooooooooooo   ",
" oooo                       o  oooo                       o  ",
" ooo                         X ooo                         X ",
" oo                          .Xoo                          .X",
" oo                          .Xoo                          .X",
" oo                          .Xoo                          .X",
" oo                          .Xoo                          .X",
" oo                          .Xoo                          .X",
" oo                          .Xoo                          .X",
" oo                          .Xoo                          .X",
"  o                         ..X o                         ..X",
"  o                        ..XX                          ..XX",
"    ........................XX    X.......................XX ",
"    XXXXXXXXXXXXXXXXXXXXXXXXX      XXXXXXXXXXXXXXXXXXXXXXXX  ",
"                                                             ",
"ooooooooooo      oooooooooooooooooooooooo       ooooooooooooo",
"oooooooooooo    oooooooooooooooooooooooooo     oooooooooooooo",
"            o  oooo                           oooo           ",
"             X ooo                         X  ooo            ",
"             .Xoo                          .X oo             ",
"             .Xoo                          .X oo             ",
"             .Xoo                          .X oo             "};
