/* XPM */
static char * font_recol_bad[] = {
/* width height ncolors chars_per_pixel */
"40 44 7 1",
/* colors */
" 	s None	c None",
".	c black",
"X	c gold",
"o	c dodger blue",
"O	c red",
"+	c sea green",
"@	c slate grey",
/* pixels */
"                                        ",
"                                        ",
"                                        ",
"                                        ",
"                                        ",
"                                        ",
"                                        ",
"                                        ",
"                                        ",
"                                        ",
"                             ...        ",
"                            .XXX..      ",
"                           .XXXXXX.     ",
"                    ..    .XXXXXXX.     ",
"                ....oo.. .XXX..XXX.     ",
"               .oooooooo..XXX..XX.      ",
"         ..    .oooooooo..XXX. ..       ",
"       ..OO.   .oooo.ooo..XXX.          ",
"      .OOOO.   .ooo..ooo..XXX.          ",
"      .OOOO.   .ooo..oo. .XXX.          ",
"      .OOOOO.  .ooo.ooo. .XXX.   .      ",
"      .OOOOO.  .ooooooo. .XXX. ..X.     ",
"     .OOOOOO.  .oooooooo..XXX..XXX.     ",
"     .OOOOOO.  .oooo.ooo..XXX..XXX.     ",
"     .OO..OOO. .ooo..ooo..XXXXXXX.      ",
"     .OO..OOO. .ooo..ooo..XXXXXXX.      ",
"    .OOO..OOO. .ooo..ooo.+.XXXXX.       ",
"    .OOO. .OOO..ooo.ooo.+++.X...+..     ",
"    .OO...OOOO..ooooooo.++++.++++++.    ",
"    .OOOOOOOOO..oooooo.++++++++++..     ",
"   .OOOOOOOOOO..oooo..+++++++++..       ",
"   .OOOOOO.OOO.+....+++++++++..@        ",
"   .OOO....OO.+++++++++++++..@@@@@      ",
"   .OOO.+++..++++++++++++..@@@@@        ",
"   .OOO.+++++++++++++++..@@@@@          ",
"    ...++++++++++++++..@@@@@            ",
"    @@@..++++++++++..@@@@@              ",
"   @@@@@@..++++++..@@@@@                ",
"    @@@@@@@..++..@@@@@                  ",
"      @@@@@@@..@@@@@                    ",
"        @@@@@@@@@@                      ",
"          @@@@@@                        ",
"            @@                          ",
"                                        "};
