/* XPM */
static char * keycaps_recol_bad[] = {
/* width height ncolors chars_per_pixel */
"40 44 6 1",
/* colors */
" 	s None	c None",
".	c dark slate grey",
"X	c slate grey",
"o	c gainsboro",
"O	c black",
"+	c sea green",
/* pixels */
"                                        ",
"                                        ",
"                                        ",
"                                        ",
"                                        ",
"                                        ",
"                                        ",
"                                        ",
"                                        ",
"                                        ",
"                                        ",
"                                        ",
"                                        ",
"                                        ",
"                                        ",
"                                        ",
"                                        ",
"                        ...             ",
"                      ..XXX..           ",
"                    ..XXXXooo.          ",
"                  ..XXXXooXOoo..        ",
"                ..XXXXoooOooOXoX.       ",
"              ..XXXXooXOooOXoXOoXO      ",
"            ..XXXXooXOooOoooOooOO.      ",
"          ..XXXXooOOooOXoXOooOO..       ",
"        ..XXXXooXOooOXoXOooOO..         ",
"      ..XXXXooOOooOXoXOooOO..++OO       ",
"     .XXXXooXOooOXoXOooOO..++++++OO     ",
"    .OOOooOOooOXoXOooOO..++++++++++O    ",
"    ...OOOooOXoXOooOO..++++++++++OO     ",
"     ....OOOooOooOO..++++++++++OO       ",
"      .....OOOoOO..++++++++++OOX        ",
"    OO+++....OO..++++++++++OOXXXXX      ",
"   O+++++++....++++++++++OOXXXXX        ",
"   OO++++++++++++++++++OOXXXXX          ",
"     OO++++++++++++++OOXXXXX            ",
"    XXXOO++++++++++OOXXXXX              ",
"   XXXXXXOO++++++OOXXXXX                ",
"    XXXXXXXOO++OOXXXXX                  ",
"      XXXXXXXOOXXXXX                    ",
"        XXXXXXXXXX                      ",
"          XXXXXX                        ",
"            XX                          ",
"                                        "};
