/* XPM */
static char * pool_open_recol_bad[] = {
/* width height ncolors chars_per_pixel */
"40 44 15 1",
/* colors */
" 	s None	c None",
".	c dark slate grey",
"X	c red",
"o	c grey",
"O	c gainsboro",
"+	c sea green",
"@	c yellow",
"#	c slate grey",
"$	c wheat",
"%	c black",
"&	c peru",
"*	c lime green",
"=	c white",
"-	c blue",
";	c sienna",
/* pixels */
"                                        ",
"                                        ",
"                                        ",
"                    .                   ",
"                    .                   ",
"                    .                   ",
"                   ...                  ",
"                  X.XoX                 ",
"                 X.XXXoX                ",
"                X.XXXXXoX               ",
"               X.XXXXXXXoX              ",
"             .X.X.XXXXXoXoXo            ",
"              ...XXXXXXXooO             ",
"             + @ ...###oo@ @            ",
"            @$@ @ @ @ @ @ @ @           ",
"           @ $ @ @ @ ..@ @ @ @          ",
"          @ @$@ @ @..%%.. @ @ @         ",
"         @ @ $ @ ..++%%++..@ @ @        ",
"        @ @ @&@..++******++.. @ @       ",
"       @ @ @ ..++**********++..@ @      ",
"      @ @ @..%%**************+X.. @     ",
"     @ @ ..++%**********=****XXX%..     ",
"    @ &&&&&&$$$$$$$$+**===****X.%#      ",
"     ..++*X*************=****..###      ",
"    ..%**XXX***************..#####      ",
"    .%.***X*****-********..#####%#      ",
"    .%%..******---*****.%####.%%%#      ",
"    .% %%..*****-****..####;.;.;%#      ",
"    .%   %%..******..####.;.;.;;&#      ",
"    .%     %%..**..####;.;.;;;&&&&%%    ",
"    .%   %%.;%%%%####.;.;;;;&&&&%%      ",
"    .% %%;.;.;%%###;.;.;;;&&&&%%#       ",
"    .%%;;.;.;.%%##;.;;;;&&&&%%#####     ",
"    %&&;;;.;.;%%##.;;;&&&&%%#####       ",
"    %%&&&;;;;.%%##;;&&&&%%#####         ",
"      %%&&&;;;%%##&&&&%%#####           ",
"     ###%%&&&;%%##&&%%#####             ",
"    ######%%&&&%#&%%#####               ",
"     #######%%&&%%#####                 ",
"       #######%%#####                   ",
"         ##########                     ",
"           ######                       ",
"             ##                         ",
"                                        "};
