/* XPM */
static char * tape_recol_bad[] = {
/* width height ncolors chars_per_pixel */
"40 44 7 1",
/* colors */
" 	s None	c None",
".	c dark slate grey",
"X	c grey",
"o	c black",
"O	c slate grey",
"+	c gainsboro",
"@	c firebrick",
/* pixels */
"                                        ",
"                                        ",
"                      ...               ",
"                    ......X             ",
"                  ......XXXX            ",
"                ......XXooXX            ",
"              ......XXooXoXX            ",
"            ......XXooXXXoXX            ",
"          ......XXooXXooXoXX            ",
"         ooo..XXooXXooOOXoXX            ",
"         oooooXoX+oooooOXoXX            ",
"         OXoooXoX+ooooooXoXX            ",
"         XOXOoXoX+ooOoooXoXX            ",
"         OXOXoXoX+ooooooXoXX            ",
"         XOXOoXoX+oooooOXoXX            ",
"         OXOXoXoX+ooooooXoXX            ",
"         XOXOoXoX+OOooXXXoXX            ",
"         OXOXoXoX+ooXXXXXoXX            ",
"         XOXOoXoX+XXXXXXXoXX            ",
"         OXOXoXoX+XXXXXXXoXX            ",
"         XOXOoXoX+XXXXXXXoXX            ",
"         OXOXoXoX+XXXXXXXoXX            ",
"         XOXOoXoX+XXXXOoXoXX            ",
"         OXOXoXoX+XXOOooXoXX            ",
"         XOXOoXoX+OOOoOoXoXXo           ",
"         OXOXoXoX+OOooOoXoXX@oo         ",
"         XOXOoXoX+OoOoOoXoXX@@@oo       ",
"         OXOXoXoX+OooOOoXoXX@@@@@oo     ",
"         XOXOoXoX+OOOOooXoX+@@@@@@@o    ",
"         OXOXoXoX+OOooXXooXo@@@@@oo     ",
"        oXOXOoXoX+ooXXooXXo@@@@oo       ",
"      oo.OXOXoXoX+XXooXXoo@@@ooO        ",
"    oo...ooXOoXoXXooXXoo@@@ooOOOOO      ",
"   o@@...oooooXoooXXoo@@@ooOOOOO        ",
"   oo@@@.oooooXoXXoo@@@ooOOOOO          ",
"     oo@@@ooooXXoo@@@ooOOOOO            ",
"    OOOoo@@@oooo@@@ooOOOOO              ",
"   OOOOOOoo@@@@@@ooOOOOO                ",
"    OOOOOOOoo@@ooOOOOO                  ",
"      OOOOOOOooOOOOO                    ",
"        OOOOOOOOOO                      ",
"          OOOOOO                        ",
"            OO                          ",
"                                        "};
