/* XPM */
static char * window_open_recol_bad[] = {
/* width height ncolors chars_per_pixel */
"40 44 8 1",
/* colors */
" 	s None	c None",
".	c gainsboro",
"X	c slate grey",
"o	c firebrick",
"O	c black",
"+	c peru",
"@	c sea green",
"#	c dark slate grey",
/* pixels */
"                                        ",
"                                        ",
"                               ...      ",
"                             ..XXX.     ",
"                           ..XXoOOX.    ",
"                         ..XXoOOOOX.    ",
"                       ..XXoOOoOoOX.    ",
"                    ...XXoOOoOOXoOX.    ",
"                  ..XXXoOOXoOXXXoOX.    ",
"                ..XXXoOOOXoOX.XXoOX.    ",
"              ..XXoOOOoOoOOXOXoOOOX.    ",
"            ..XXoOOO.OOoOXXO+OOXoOX.    ",
"           .XXoOOXO...OOXXO+++OXoOX.    ",
"          .XoOOoOXoO.OOOoOOO+O.XoOX.    ",
"         .XoOOoOXoOOOOoOOXX.OXXXoOX.    ",
"        .XoOoOoOoOOXXXoOXXXXXoOOOOX.    ",
"       .XoOXoOOOOXXXXXoOXoOOOOXXoOX.    ",
"      .XoOXXoOOXXXXOXXoOOOXXXX.XoOX.    ",
"     .XoOXoOOOXXXX.oOXoOXXXX...XoOX.    ",
"    .XoOoOOoOOXXXOoooOoOOOOOXXXXoOX.    ",
"   .XoOOOoOOoOXXXXOoOXoOXXXoOOOOOOX.    ",
"   XoOOo.OXXoOXXXXXOXXoOX..XXXXXoOX.    ",
"   XoOOO.X.XoOXXXXXXXoOOOXXX...XoOX.    ",
"   XoOX.XXXXoOXXXXoOOOXXoOOOXXXXoOX.    ",
"   XoOX.oOOOOOXXoOOXXX..XXXoOOOXoOX.    ",
"   XoOOOOXXXoOoOOXoOXXX....XXXoOOOX.    ",
"   XoOXXX.XXoOOXX.OXOOOXXX..XXoOOX.     ",
"   XoOOXXXoOOOOX..@OXXoOOOXXoOOXX+O     ",
"   XoOoOOOOXoOoOO@@@O.XXXoOOOXX++++O    ",
"   XoOoOOXoOOOXoOO@O..XXoO.X##+++OO     ",
"   XoOOXX.XXoOXXoOOXXXoOO..#+++OO       ",
"   .XoOOX..XoOX.XoOoOO....+++OOX        ",
"    OXXoOXXXoOXXXoO....#+++OOXXXXX      ",
"   O++#XoOOXoOXoOOXX##+++OOXXXXX        ",
"   OO++#XXoOOOOOXX##+++OOXXXXX          ",
"     OO++#XXoOXX##+++OOXXXXX            ",
"    XXXOO++#XX##+++OOXXXXX              ",
"   XXXXXXOO++#+++OOXXXXX                ",
"    XXXXXXXOO++OOXXXXX                  ",
"      XXXXXXXOOXXXXX                    ",
"        XXXXXXXXXX                      ",
"          XXXXXX                        ",
"            XX                          ",
"                                        "};
