#define spider_width 24
#define spider_height 24
static unsigned char spider_bits[] = {
 0x00,0x00,0x00,0x00,0x00,0x00,0x40,0x00,0x00,0xc0,0x00,0x00,0x20,0x01,0x08,
 0x2c,0xfe,0x1d,0x34,0x8f,0x23,0xe2,0x67,0x27,0xe2,0xff,0x57,0xc9,0xff,0xaf,
 0xf5,0xff,0x27,0xa4,0xff,0x47,0xe2,0xff,0x43,0xd2,0x7f,0x9b,0x19,0xa7,0x96,
 0xa8,0xdf,0x22,0xc4,0xff,0x20,0xc4,0x7a,0x21,0xe4,0x37,0x41,0x23,0x1f,0x81,
 0x40,0x10,0x03,0x00,0x18,0x02,0x00,0x00,0x04,0x00,0x00,0x00};
