#define /tmp/xbmresize1855_width 72
#define /tmp/xbmresize1855_height 72
static unsigned char /tmp/xbmresize1855_bits[] = {
 0x00,0x00,0x00,0x00,0x00,0x00,0x00,0x00,0x00,0x00,0x00,0x00,0x00,0x00,0xf0,
 0x07,0x00,0x00,0x00,0x00,0x00,0x00,0x00,0x08,0x08,0x00,0x00,0x00,0x00,0x00,
 0x00,0x00,0x04,0x10,0x00,0x00,0x00,0x00,0x00,0x00,0x00,0x04,0x10,0x00,0x00,
 0x00,0x00,0x00,0x00,0x00,0xe4,0x13,0x00,0x00,0x00,0x00,0x00,0x00,0x00,0xe4,
 0x13,0x00,0x00,0x00,0x00,0x00,0x40,0x00,0x04,0x10,0x00,0x01,0x00,0x00,0x00,
 0xc0,0x00,0x04,0x10,0x80,0x01,0x00,0x00,0x00,0x40,0x01,0x8c,0x18,0x40,0x01,
 0x00,0x00,0x00,0x80,0x06,0x18,0x0c,0xb0,0x00,0x00,0x00,0x00,0x80,0x38,0xe8,
 0x0b,0x8e,0x00,0x00,0x00,0x00,0x00,0xc1,0x1f,0xfc,0x41,0x00,0x00,0x00,0x00,
 0x00,0x03,0xe0,0x03,0x40,0x00,0x00,0x00,0x00,0x80,0x07,0x00,0x00,0x40,0x00,
 0x00,0x00,0x00,0x80,0x04,0x00,0x30,0x40,0x18,0x00,0x00,0x00,0x80,0x08,0x00,
 0xd0,0xff,0x17,0x00,0x00,0x00,0xc0,0x09,0x00,0x10,0x00,0x10,0x00,0x00,0x00,
 0x40,0x0a,0x80,0x10,0x7c,0x10,0x00,0x00,0x00,0x40,0x10,0x00,0x10,0x82,0x10,
 0x00,0x00,0x00,0xc0,0x14,0x80,0x10,0x01,0x11,0x00,0x00,0x00,0x20,0x39,0xc0,
 0x11,0x6d,0x11,0x00,0x00,0x00,0x20,0x58,0x60,0x13,0x6d,0x11,0x00,0x00,0x00,
 0x60,0xba,0x1f,0x1c,0x01,0x11,0x00,0x00,0x00,0x90,0x2c,0xc0,0x11,0xd6,0x10,
 0x00,0x00,0x00,0x10,0x4c,0x29,0x12,0x44,0x10,0x00,0x00,0x00,0x10,0xa5,0x2f,
 0x12,0x7c,0x10,0x00,0x00,0x00,0x68,0x26,0x60,0x23,0x28,0x08,0x00,0x00,0x00,
 0x84,0x42,0x49,0x29,0x00,0x08,0x00,0x00,0x00,0x94,0xa1,0x9f,0x2c,0x82,0x08,
 0x00,0x00,0x00,0xa2,0x21,0x00,0x20,0x83,0x09,0x00,0x00,0x00,0xca,0x40,0xc9,
 0x29,0x44,0x08,0x00,0x00,0x00,0x71,0xa0,0x2f,0x2a,0x28,0x08,0x00,0x00,0x00,
 0x31,0x20,0x28,0x42,0x10,0x04,0x00,0x00,0x80,0x1c,0xc0,0x60,0x43,0x28,0x04,
 0x00,0x00,0xc0,0x09,0x80,0xcf,0x59,0xc6,0x04,0x00,0x00,0x30,0x14,0x80,0x1e,
 0xbc,0x44,0x02,0x80,0x1f,0x08,0x16,0x80,0xf0,0x87,0x00,0x02,0xf0,0x17,0x7c,
 0x1e,0xc0,0xc0,0x81,0x01,0x03,0x10,0x91,0x63,0x0f,0x40,0x01,0x00,0x01,0x01,
 0x10,0x71,0xbc,0x01,0x40,0x84,0x40,0x83,0x01,0x50,0x91,0x7f,0x00,0x60,0xf0,
 0x1b,0xc6,0x00,0x70,0xf1,0x03,0x00,0xa0,0xc0,0x01,0x6d,0x00,0x18,0x71,0x00,
 0x00,0x20,0xe2,0x01,0x39,0x00,0x70,0x11,0x00,0x00,0x30,0x78,0xb7,0x01,0x00,
 0x10,0x11,0x00,0x00,0x50,0x60,0x03,0x01,0x00,0x10,0x19,0x00,0x00,0x10,0x31,
 0x03,0x01,0x00,0xf0,0x07,0x00,0x00,0x18,0x3c,0xae,0x01,0x00,0x00,0x00,0x00,
 0x00,0x14,0x0c,0x06,0x01,0x00,0x00,0x00,0x00,0x00,0xce,0x06,0x06,0x01,0x00,
 0x00,0x00,0x00,0x00,0x12,0x07,0xcc,0x01,0x00,0x00,0x00,0x00,0x00,0x11,0x03,
 0x2c,0x02,0x00,0x00,0x00,0x00,0x00,0xd9,0x03,0x2c,0x02,0x00,0x00,0x00,0x00,
 0x00,0x89,0x01,0x28,0x02,0x00,0x00,0x00,0x00,0x00,0x87,0x01,0x58,0x02,0x00,
 0x00,0x00,0x00,0x00,0xe6,0x00,0xc8,0x01,0x00,0x00,0x00,0x00,0x00,0xc2,0x00,
 0x88,0x01,0x00,0x00,0x00,0x00,0x00,0xc1,0x00,0x18,0x01,0x00,0x00,0x00,0x00,
 0x00,0x72,0x00,0x88,0x00,0x00,0x00,0x00,0x00,0x00,0x61,0x00,0x08,0x01,0x00,
 0x00,0x00,0x00,0x00,0x62,0x00,0x98,0x00,0x00,0x00,0x00,0x00,0x00,0x31,0x00,
 0x08,0x01,0x00,0x00,0x00,0x00,0x00,0x37,0x00,0x88,0x00,0x00,0x00,0x00,0x00,
 0x00,0x23,0x00,0x98,0x01,0x00,0x00,0x00,0x00,0x00,0x61,0x00,0xd8,0x00,0x00,
 0x00,0x00,0x00,0xc0,0xc2,0x00,0x88,0x01,0x00,0x00,0x00,0x00,0x30,0xc0,0x00,
 0x44,0x01,0x00,0x00,0x00,0x00,0x48,0xf0,0x00,0x04,0x02,0x00,0x00,0x00,0x00,
 0x14,0x7e,0x00,0x0c,0x05,0x00,0x00,0x00,0x00,0xc4,0x0f,0x00,0x3c,0x04,0x00,
 0x00,0x00,0x00,0xfc,0x00,0x00,0xf0,0x07,0x00,0x00,0x00,0x00,0x00,0x00,0x00,
 0x00,0x00,0x00};
