/* XPM */
static char * beer_mug_xpm[] = {
/* width height ncolors chars_per_pixel */
"48 48 5 1",
/* colors */
" 	s None	c None",
".	c black",
"X	c yellow",
"o	c white",
"O	c sienna",
/* pixels */
"                                                ",
"                                                ",
"                                                ",
"                                                ",
"                                                ",
"                                                ",
"                  .....                         ",
"                  .....                         ",
"              ....XooXo... ....                 ",
"            ..XXoXoXXoXoXX.XoXX. .              ",
"           .oXooXoXooXoXooXoXooX.X..            ",
"           .XoXXoXoXXoXoXX.XoXXoXoXX.           ",
"           .XoXXoXoXXoXoXX.XoXXoXoXX.           ",
"            .XooXo...X....XoXooXoXoo.           ",
"             ....X....OO...XoXX.XoXXo.          ",
"              ....OOOOOOOOO.....oXooXo.         ",
"         ........OOOOOOOOOOOOOOO.oXXoX.         ",
"         ........OOOOOOOOOOOOOOO.oXXoX.         ",
"        ...OOO...O.OOOO.OOOO.OOO....Xo.         ",
"       ..OOOOO...OO..OOO..OOO..O....oX.         ",
"       .OOOO.....OO..OOO..OOO..O..ooX.          ",
"       .OOO.  ...OO..OOO..OOO..O..XXo.          ",
"       .OOO.  ...OO..OOO..OOO..O..XXo.          ",
"       .OOO.  ...OO..OOO..OOO..O..ooX.          ",
"       .OOO.  ...OO..OOO..OOO..O..XX.           ",
"       .OOO.  ...OO..OOO..OOO..O..oo.           ",
"       .OOO.  ...OO..OOO..OOO..O..XX.           ",
"       .OOO.  ...OO..OOO..OOO..O..XX.           ",
"       .OOO.  ...OO..OOO..OOO..O..oo.           ",
"       .OOO.  ...OO..OOO..OOO..O..XX.           ",
"       .OOO.  ...OO..OOO..OOO..O..oo.           ",
"       .OOOO.....OO..OOO..OOO..O..XX.           ",
"       .OOOO.....OO..OOO..OOO..O..XX.           ",
"       ..OOOOO...OO..OOO..OOO..O..oo.           ",
"        ...OOO...OO..OOO..OOO..O....            ",
"         ........OO..OOO..OOO..O..              ",
"              ...O.OOO..OOO..OOO..              ",
"              ...O.OOO..OOO..OOO..              ",
"              ...OOOOOOOOOOOOOOO..              ",
"              ....................              ",
"                .................               ",
"                                                ",
"                                                ",
"                                                ",
"                                                ",
"                                                ",
"                                                ",
"                                                "};
