/* XPM */
static char * camel_recol_bad[] = {
/* width height ncolors chars_per_pixel */
"48 48 12 1",
/* colors */
" 	s None	c None",
".	c grey",
"X	c slate grey",
"o	c gainsboro",
"O	c dark slate grey",
"+	c sienna",
"@	c tan",
"#	c firebrick",
"$	c lemon chiffon",
"%	c wheat",
"&	c peru",
"*	c lavender",
/* pixels */
"                            .XXX.               ",
"                         oXXXXO+X..             ",
"         XXX.           .XO+X@XXOX..            ",
"       .XX+O@.         .O+XOXOX+X+X@.           ",
"   XXXX+OX.OXXo        XOOO+O+XXOXXX.           ",
"  .+X@X.+OX+X@.       @OO+OOOXOXX+XXX           ",
"  XX.@..XOXXOOX.     .OOOO+OOO+.XXX+O           ",
"  .XOXXXX@XO+OX.    .+OO#OOO+OX.@XXXOX          ",
"     @O@X@XXO+X.   XOOX@OO+OO+XX.@X+XO@         ",
"      +XXX+OXOO.  XOO+XXXXO+OXX...@XXXX.        ",
"     XOO+XOX+XX  XO+XOX@.XXX.@X..o..@XXX        ",
"     XOXO+XXX+X @OOXX@X..@X..XXX...@XX@O.       ",
"     O+OXXX+OXX XO+O+..o..X+OX+.XX.XX+XXX       ",
"    @OXX@XOXOO.$OOOXX.oo..XXXXOX+XO@XXX.+.      ",
"    .O+OX+XO+X..O+XX@Xo.o..@X@.XXOX@.@X.OX      ",
"    .OO@XXXOX..+OXXXX.oo.o..X..@X...o.@.OX.     ",
"     OXX+.X+XXXXO+X+Ooo.oX..@XX.@.oooo..XXX.    ",
"     O+OOXXX+.X@OOOOX....@X.XXXX...oo.X.@X+X.   ",
"     XOO+X.XXX@.O+OOXX%.XXXX@X@XXXoo.XOXXXXO@   ",
"     X+OOX.@XX.@XX+O+XoX@X.@XXXX+X..X+OX&X@OX   ",
"      XO+O.X@X..XXOOOXXXX+..@X+XOXXOOOO+XX O@   ",
"      @XOXXXo..@OXX#OX.&OXX.XXOOO+O+O+OXO. OX.  ",
"       .+O+X...X+OOOO+.XX@..X+O+OOOOOOO@O. OX.  ",
"        XXOXXX.OOO+OOOX+X.X@OXOXOX+XX#O.O  X+   ",
"         @O+OXX+OOOO#OOOOX.XX@X+XOO. OOX+  OX   ",
"           .X+X.OO+OOOO+XO@XX.OOOO+  XXXO .+X   ",
"                XOOX+X.X+XXO+.@OOO.  X+XO XXo   ",
"                +O#OO  .OO+OXoXO#O   .X+O  X    ",
"                OOOOX  XOOO+X .OOO    OXO%      ",
"                +OO+X  +O+OX. .+OX    @OO.      ",
"                XOOO@  XOOX+  .OO+    .O+X      ",
"                XO+O  XOO+OX   +XX     XO.      ",
"                XOXX  X+XXX.   XXX     .O.      ",
"                X+XX  X..X.   .X@X     @OX      ",
"                .OX@  XX.@    .X..     .X+      ",
"                %XX.  .+X.    ...      .XX      ",
"                .+X@   .X@    X.       .O.      ",
"                oOO.    .X.  ..         X.      ",
"                 XX       X. X.         X%      ",
"                 X.       %X.o.        %X.      ",
"                .X@        XX%..       .X       ",
"                @X.        X@OX.       .X.      ",
"                X.        XXX@O@.      XX%      ",
"               .@.      @OX@X*XX.      @..      ",
"               Xo.      ..@.  @.      .XXX      ",
"              ..X.                    XO+X      ",
"             XX@X                               ",
"             XX.X                               "};
