/* XPM */
static char * ChessIcon_recol_bad_xpm[] = {
/* width height ncolors chars_per_pixel */
"48 48 8 1",
/* colors */
" 	s None	c None",
".	c black",
"X	c white",
"o	c grey",
"O	c slate grey",
"+	c gainsboro",
"@	c lavender",
"#	c dark slate grey",
/* pixels */
"                                                ",
"                                                ",
"                 .... ...... ....               ",
"           ......XXXo.Ooo+@X.XXXO.              ",
"          .XXXoOXXXoOOOoo@@@Xo###.              ",
"         .XXXXO#O+oOOOo+@@@XXO.OOo.             ",
"        .XXX@Xo.#OO##Oo@@@@@@oOOOOo.            ",
"       .@XXX@oOOOOOooo+X@@@@X@oooooO.           ",
"       .XXX+oOOoooo@XX@@@@@+o@@X@X@o.           ",
"       .XXXoOOoooo@@XXX+@@@oOoXXXX@@o.          ",
"      .XXXXo#Ooo+@@+XXX@+@XoOOOOOoXXo.          ",
"      .XXXXoOOooo@@@XXXX@@@@o#...#XX+.          ",
"      .XXXXoOOooOo@@XXXX+@@+oO#.#O@XX@.         ",
"     ..O+X+oOOOOOO@o+XXX@@@++oO#Oo@XXXo.        ",
"     .#OooOooOOO#o@ooXXX@@@@@+oOOo+XXXoo.       ",
"    .XXX@OOoooOOOo@ooXXXX@@@@@+oOoo@@@@@@.      ",
"    .XXX+oO#OO#.OooOO+XXXXX@X+oooooo+@XXoo.     ",
"     ..XXXoOOOOOOOOOOO+X@XX@+oooooooo+oOOOO.    ",
"      .XXXX+@@X@OOOO#OOoooooOooooooooo#.O#.     ",
"      .oooOOoooooOOO#.OOooOOOOOOOoooooOOOO.     ",
"      .@+@oOOOOOOO#OO###OO.......OOOooOO#O.     ",
"      .XXXX+OOOOOOOoOO#..#.      .OOoOO#O.      ",
"      .XXXX@XX+Oo+o@oOO#.#.       .OOOOO.       ",
"       .XXXXXXX@o+XX@oO###.        .#O..        ",
"       .ooXX+oXXoo++@+O###.         ..          ",
"       .OOooooo@X@o+@+oO##.                     ",
"       .@XoOO#OXX+O+@+ooO##.                    ",
"      .XXXXoO##o+ooo@+ooO##.                    ",
"      .XXXXX+oO.Ooooo@ooOO##.                   ",
"      .XXXXXXoOOOOoOo@+ooO##O.                  ",
"      .XXX@++OOoOOOOo+@oooO##O.                 ",
"       .X@@+oOOoO#OOo+@oooO#O#O.                ",
"        .ooooOOoOooOo@@@ooOOO#OO.               ",
"        .OOOOOOOOo+Oo@@X@oooOOO#O               ",
"        .O#OOO#OOoo+@@@@+ooOO#OOO.              ",
"         .....ooooooooOOOOO#####O.              ",
"             .XXXXX@@+oooOOOOOOOO.              ",
"             .XXXXXXXXXXXX@ooooOoO.             ",
"          ...@@XX@++ooooOOO########..           ",
"         .XXXXXXXX@o+oooOO########O#O.          ",
"        .XXXXXXXXXXXXXX@+oooooooOOOOOo.         ",
"       .oooo+o+o+ooo++++ooooooooooOOOoO.        ",
"       .#OOOOOOOOOOOOOO#OOOOOOOOOO##OOO.        ",
"       .#OOOOOOOOOOOO####...........###.        ",
"       .@XXXXXXXXXXX@+++oooOOOOOOOOOOOO.        ",
"      .o+@X@@@@X@@@X@@+ooooOOOOOOOOOOOOO.       ",
"      .OOOOOOOOOOOOOoOOO#O##OOOOOO#O#O#O.       ",
"       .................................        "};
