/* XPM */
static char * gold_spiral_xpm[] = {
/* width height ncolors chars_per_pixel */
"48 48 9 1",
/* colors */
" 	s None	c None",
".	c tan",
"X	c peru",
"o	c slate grey",
"O	c sienna",
"+	c dark slate grey",
"@	c wheat",
"#	c lemon chiffon",
"$	c black",
/* pixels */
"                                                ",
"                                                ",
"                      .....                     ",
"                  ............Xo.               ",
"               XXXXXXXXXXX......OO.             ",
"              XOOOOOOOOOOXXXX....X+O            ",
"           .OOOOOOXOOOOOOOOOXXX...XO+.          ",
"          oOOXX.......XXOOOOOOXXX..O++.         ",
"         oOX..@@@@@@@@@..XOOOOOOXX..O++.        ",
"        oOX.@@@@@@@@@@@@@..XOOOOOXX.XO++.       ",
"       oX.@@@@@........@@@@.XOOOOOXXXO++O       ",
"      oO.@@@...XXXXXXXX...@@.XOOOOOXXXO++O      ",
"      ..@@@.XOOXo...oXOOXX.@.XOOOOOOXXO+++.     ",
"     o.@@.XOOOX.......XOOOX...XO+OOOOXO+++O     ",
"     X@@.XOOOX..@@#@@..XOOOX..XOOOOOOXOO+++.    ",
"     @@.XOOXX..@@##@@..XOOOOX..OOOOOOOOO+++O    ",
"     @.XOOOX..@@@##@@@..XOOOX..XO+OOOOOO++++    ",
"    .@XOOOX...@@@@@@@@..XOOOO..XO+OOOOOO++++.   ",
"    @.OOOXX..@@@...XXX...XOOO..OO+OOOOOO+$++o   ",
"    .XOOXX...@..OOOOOOOX.XOOO..OO+OOOOOO+$++O.  ",
"    .OOOXX....XOOOOOOOOO.XOOO..O++OOOOO++$++O.  ",
"   .XOOOX....XOOOOOXXXOOOXOOX.XO++OOOOO+++++O.  ",
"   .OOOXX...XO+OOOX....XXOOO.XO++OOOOOO+++++O.  ",
"   .OOOXX...O+OOOX.....XXXX.XO+++OOOOO++$+++O.  ",
"   .OOOX...XO+OOX....XOOOOOOO+++OOOOOO+$++++O.  ",
"    OOOX...O+OOOX...XO+OXOO+++OOOOOOO++$+++OO.  ",
"    OOOX..XO+OOOX...XO+OXOOOOOOOOOOO++$++++OO.  ",
"    +OOX..XO+OOOX...OO++OXOOOOOOOOO+++$+++OO.   ",
"    OOOXX.XO+OOOX...OO+++OOOOOOOOO+++$++++OO    ",
"    OOOOX.OO+OOOX..XOOO+++OOOOOO+++$+++++OOO    ",
"    o+OOX.OO++OOOX.XXOO++++++++++$$+++++OOO.    ",
"     +OOOXOO++OOOXX.XOOO+++++++$$++++++OOOO.    ",
"     O+OOXOO+++OOoXXXOOO++++++++++++++OOOOO     ",
"     o+OOOOO+++OOOoXXOOOO++++++++++++OOOOOo     ",
"      O+OOXO++++OOOOXXOOOO++++++++OOOOOOOo      ",
"       +OOOOO++++OOOOOoOOOOOOOOOOOOOOOOO+.      ",
"       .OOOOO++++++OOOOOOOOOOOOOOOOOOOO+o       ",
"        o++OO++++++++OOOOOOOOOOOOOOOOO+O        ",
"         oOOOO++$++++++OOOOOOOOOOOOOO+O         ",
"          .O+OO++$+++++++OOOOOOOOO+++O          ",
"            o+OO++$+++++++++++++++++o           ",
"             .oOOO++$++++++++++++++             ",
"               .oOO+++$$++++++$$+.              ",
"                   .O+++$$$$++o                 ",
"                    ..oooooo.                   ",
"                                                ",
"                                                ",
"                                                "};
