/* XPM */
static char *hand_pointing_recol_xpm[] = {
/* width height ncolors chars_per_pixel */
"48 48 15 1",
/* colors */
"  c black",
". c tan",
"X c wheat",
"o c DarkKhaki",
"O c firebrick",
"+ c peru",
"@ c grey",
"# c sienna",
"$ c DarkSlateGrey",
"% c tomato",
"& c yellow",
"* c gold",
"= c SlateGrey",
"- c orange",
"; c None",
/* pixels */
";o#=##=@;;;;;;;;;;;;;;;;;;;;;;;;;;;;;;;;;;;;;;;;",
".=++X.+#=.;;;;;;;;;;;;;;;;;;;;;;;;;;;;;;;;;;;;;;",
"=#+..XX.+#=.;;;;;;;;;;;;;;;;;;;;;;@;;;;;;;;;;;;;",
"=##%+..XX.....@;;;;;;;;;;;;;;;;;;;;;;;;;;;;;;;;@",
".#$#+++..X.o..#=.;;;;;;;;;;;;;;;;;;;;;;;;;;;;;;.",
";=$O$##++.oXo...+=@;;;;;;;;;;;;;;;;;;;;;;;;;;;;=",
";;. $O$#++oooo.+.%o+@;;==.;;;;;;;;;;;;;;;;;;;;;;",
";;;.#  ##+++.+......+=++..=;;;;;;;;;;;;;;;;;;;;;",
";;;;;.$ $##++..ooo...+......;;;;;;;;;;;;;;;;;;;;",
";;;;;;@#  $#+++o.oXo.+...X..;;;;;;;;;;;;;;;;;;;;",
";;;;;;;;= O #.%.X*.oo..*XX.oX;;;;;;;;;;;;;;;;;;@",
";;;;;;;;;=  $#+o...+oo.XXXoX..=@;;;;;;;;;;;;;;;;",
";;;;;;;;;;#$ $#+%++..oX.XoX*X...#@;;;;;;;;;;;;;;",
";;;;;;;;;;;+   ++o.o.*XXXXXX.oXX..;;;;;;;;;;;;;;",
";;;;;;;;;;;;= #+.+..XXXX&X.Xo..X..;;;;;@=;.$..;;",
";;;;;;;;;;;;=#+%.X*XXX.X.XX&.X&X...;;;;;;;=$=;;;",
";;;;;;;;;;;;=++..XXXXXX-...X.XX.oXo.;;;;;;;;;;;;",
";;;;;;;;;;;;#++.oo.XXX.+.X*X*XX*XoX.=;;;;;;=.@;;",
";;;;;;;;;;;;=++..XXX&X+.o...XX..X.XX..;;;;;$;#;;",
";;;;;;;;;;;@##+%o.*X..-..*.o.X.X&X.X..;;;;;.$;;;",
";;;;;;;;;;;=#$##.+X.++.....XXX*X.XoX.+@;;;;@;;;;",
";;;;;;;;;;@#$O$#++%.++.X*XoXXX..X*X...=;;;X==;;;",
";;;;;;;;;=+##  O$#++#+..X.XXX*..XXX*X+=;;.$#;;;;",
";;;;;;;;....o#  $ $##.oX*XXX...X.oX...##===;;;;;",
";;;;;;@+..%..%#  O $++..XX*XoooX&XX.+.#    ;;;;;",
";;;;;.....X....#   O+.+o....*XoXXXo.+.#    =;;@;",
";;;;@++.XXX....# $ $O#++++o%X.XoX.o+++.     .@.;",
";;;;=+%.XX.o.+.#O    $#+++#+.X&XXo.+#+%      $$;",
";;;;=#o%X...o++#   O$ O$# +XX.XXo.##$#o#     =+;",
";;;;.#+++o+++##$     $   #+..oX..+ $##.+     #==",
";;;;;#$#+++##$ $ #     # $++X*.-.## ##++#      =",
";;;;;;+$O$$#$O O    O    $#+++.+#  $#o++=#     =",
";;;;;;;;;;;;;=# $ O  $   O ####$$ O$%+=+##$ $  =",
";;;;;;;;;;;;;;;=## $ O #  O$ $$O O #=++++o##O  .",
";;;;;;;;;;;;;;;;;;@=+$  #   O    $#++++=+#+=# $=",
";;;;=$=;;;;;;;;;;;;;$   $ $  O  O$#+%=+++o##$  .",
";;;;;;;;;;;;;;;;;;;;$     $    $ ###++#=+#++ $#;",
";;;;;;;;;;;;;;;=;;;;      O $ $ O $=+=+++++$O  ;",
";;;;;;;;;;;;;;;=;=$$        O  O $O###+#=#$  =.;",
";;;;;;;;;;;;;;;;;=#$#$     $ $  $  $###+## O #.;",
";;;;;;;;;;;==;;;$;$=#;;#     O $ O #$##=## $ o;;",
";;;;;;;;;;;$$.;;;;=;=;;$        O$ O $$O $ O =;;",
";;;;;;;;;;;=#=;;=;;;;;;=$    # $  $  O  $ #=o=;;",
";;;;;;;;;;;;; =;.;;;;;;;;;.           $  #@;.=$=",
";;;;;;;;;;;;;.=;;;;.;;=;=;=$#=. ..#  o#=$=;;;;;;",
";;;;;;;;;;;;;;;;;;;==;;.;;=;X=X.;=@X$;;;;.$.;;;;",
";;;;;;;;;;;;;;;;;;;;;;;$=;;;=.;=;;;@@;;;;.=@;;;;",
";;;;;;;;;;;;;;;;;;;;;;;;;;;;;;;;;;;;;;;;;;;;;;;;"
};
