/* XPM */
static char * mail_xpm[] = {
/* width height ncolors chars_per_pixel */
"48 48 9 1",
/* colors */
" 	s None	c None",
".	c black",
"X	c lemon chiffon",
"o	c slate grey",
"O	c wheat",
"+	c lime green",
"@	c tan",
"#	c sea green",
"$	c dodger blue",
/* pixels */
"                                                ",
"                                                ",
"                                                ",
"                     .......................... ",
"                     .XXXXXXXXXXXXXXXXXXXXXXXX. ",
"                     .XXXXXXXXXXXXXXXXXXXXXXXX.o",
"            ...      .XXXXXXXXXXXXXXXX......XX.o",
"            .OO..    .XXXXXXXXXXXXXXXXXXXXXXXX.o",
"           .OOOOO..  .XXXXXXXXXXXXXXXX......XX.o",
"           .OOOOOOO...XXXXXXXXXXXXXXXXXXXXXXXX.o",
"          .OOOOOOOOOO..XXXXXXXXXXXXXXXXXXXXXXX.o",
"          .OOOOOOOOOOOO..XXXXXXXXXXXXXXXXXXXXX.o",
"         .OOOOOOOOOOOOOOO..XXXX.............XX.o",
"         .OOOOOOOOOOOOOOOOO..XXXXXXXXXXXXXXXXX.o",
"        .OOOOOOOOOOOOOOOOOOOO..XXXX.........XX.o",
"        .OOOOOOOOOOOOOOOOOOOOOO..XXXXXXXXXXXXX.o",
"       .OOO.OOOOOOOOOOOOOOOOOOOOO..XXXX.....XX.o",
"       .OOOO..OOOOOOOOOOOOOOOOOOOOO..XXXXXXXXX.o",
"      .OOOOOOO..OOOOOOOOOOOOOOOO+OOOO..XXXXXXX.o",
"      .OOO.OOOOO..OOOOOOOOOOOOO++++OOOO..XXXXX.o",
"     .OOOOO..OOOOO..OOOOOOOOOOO++++++OOOO..XXX.o",
"     .OOOOOOOOOOOOOOOOOOOOOOOO++++++++OOOO.@XX.o",
"...................................+++OOO.@XXX.o",
".XXXXXXXXXXXXXXXXXXXXXXXXXXXXXXXXX.#+OOOO.@XXX.o",
".XXXXXXXXXXXXXXXXXXXXXXXXXXXXXXXXX.#+OOO.@XXXX.o",
".XXXXXXXXXXXXXXXXXXXXXXXX$X$X$X$XX.#OOOO.@XXXX.o",
".XXXXXXXXXXXXXXXXXXXXXXXXX$$$$$XXX.#OOO.@XXXXX.o",
".XXXXXXXXXXXXXXXXXXXXXXXX$$$$$$$XX.@OOO.@XXXXX.o",
".XXXXXXXXXXXXXXXXXXXXXXXXX$$$$$XXX.@OO.@XXXXXX.o",
".XXXXXXXXXXXXXXXXXXXXXXXX$$$$$$$XX.@OO.@XXXXXX.o",
".XXXXXXXXXXXXXXXXXXXXXXXXX$$$$$XXX.@O.@XXX..XX.o",
".XXXXXXXXXXXXXXXXXXXXXXXX$X$X$X$XX.@O.@XXXXXXX.o",
".XXXXXX.X.X.X.X.X.X.X.XXXXXXXXXXXX.@.@XXX...XX.o",
".XXXXXXX.X.X.X.X.X.X.X.XXXXXXXXXXX.@.@XXXXXXXX.o",
".XXXXXXXXXXXXXXXXXXXXXXXXXXXXXXXXX..@XXXXXXXXX.o",
".XXXXXX.X.X.X.X.X.X.X.XXXXXXXXXXXX..@XXX....XX.o",
".XXXXXXX.X.X.X.X.X.X.X.XXXXXXXXXXX.@XXXXXXXXXX.o",
".XXXXXXXXXXXXXXXXXXXXXXXXXXXXXXXXX.@XXXXXXXXXX.o",
".XXXXXXXXXX.X.X.X.X.XXXXXXXXXXXXXX.............o",
".XXXXXXXXXXX.X.X.X.X.XXXXXXXXXXXXX.ooooooooooooo",
".XXXXXXXXXXXXXXXXXXXXXXXXXXXXXXXXX.o            ",
".XXXXXXXXXXXXXXXXXXXXXXXXXXXXXXXXX.o            ",
".XXXXXXXXXXXXXXXXXXXXXXXXXXXXXXXXX.o            ",
"...................................o            ",
" ooooooooooooooooooooooooooooooooooo            ",
"                                                ",
"                                                ",
"                                                "};
