/* XPM */
static char * notebook_empty_xpm[] = {
/* width height ncolors chars_per_pixel */
"48 48 5 1",
/* colors */
" 	s None	c None",
".	c black",
"X	c white",
"o	c firebrick",
"O	c sky blue",
/* pixels */
"                                ...             ",
"                             ...X..             ",
"                          ...X.X.X.             ",
"                       ...X.X.X.X..             ",
"                    ...X.X.X.X.X.X.             ",
"                 ...X.X.X.X.X.X.X..             ",
"              ...X.X.X.X.X.X.X.X.X.             ",
"           ...............................      ",
"          .XXXXXXXXXXXXXXXXXXXXXXXXXXXXXX.      ",
"         ...............................X.      ",
"         .XXXXXXoXXXXXXXXXXXXXXXXXXXXXX.X.      ",
"       ...XXXXXXoXXXXXXXXXXXXXXXXXXXXXX.X.      ",
"      .  .XXXXXXoXXXXXXXXXXXXXXXXXXXXXX.X.      ",
"      .  .X.XXXXoXXXXXXXXXXXXXXXXXXXXXX.X.      ",
"       ....XXXXXoXXXXXXXXXXXXXXXXXXXXXX.X.      ",
"         .XXOOOOoOOOOOOOOOOOOOOOOOOOOOO.X.      ",
"       ...XXXXXXoXXXXXXXXXXXXXXXXXXXXXX.X.      ",
"      .  .XXXXXXoXXXXXXXXXXXXXXXXXXXXXX.X.      ",
"      .  .X.XXXXoXXXXXXXXXXXXXXXXXXXXXX.X.      ",
"       ....XOOOOoOOOOOOOOOOOOOOOOOOOOOO.X.      ",
"         .XXXXXXoXXXXXXXXXXXXXXXXXXXXXX.X.      ",
"       ...XXXXXXoXXXXXXXXXXXXXXXXXXXXXX.X.      ",
"      .  .XXXXXXoXXXXXXXXXXXXXXXXXXXXXX.X.      ",
"      .  .X.OOOOoOOOOOOOOOOOOOOOOOOOOOO.X.      ",
"       ....XXXXXoXXXXXXXXXXXXXXXXXXXXXX.X.      ",
"         .XXXXXXoXXXXXXXXXXXXXXXXXXXXXX.X.      ",
"       ...XXXXXXoXXXXXXXXXXXXXXXXXXXXXX.X.      ",
"      .  .XXOOOOoOOOOOOOOOOOOOOOOOOOOOO.X.      ",
"      .  .X.XXXXoXXXXXXXXXXXXXXXXXXXXXX.X.      ",
"       ....XXXXXoXXXXXXXXXXXXXXXXXXXXXX.X.      ",
"         .XXXXXXoXXXXXXXXXXXXXXXXXXXXXX.X.      ",
"       ...XXOOOOoOOOOOOOOOOOOOOOOOOOOOO.X.      ",
"      .  .XXXXXXoXXXXXXXXXXXXXXXXXXXXXX.X.      ",
"      .  .X.XXXXoXXXXXXXXXXXXXXXXXXXXXX.X.      ",
"       ....XXXXXoXXXXXXXXXXXXXXXXXXXXXX.X.      ",
"         .XXOOOOoOOOOOOOOOOOOOOOOOOOOOO.X.      ",
"       ...XXXXXXoXXXXXXXXXXXXXXXXXXXXXX.X.      ",
"      .  .XXXXXXoXXXXXXXXXXXXXXXXXXXXXX.X.      ",
"      .  .X.XXXXoXXXXXXXXXXXXXXXXXXXXXX.X.      ",
"       ....XOOOOoOOOOOOOOOOOOOOOOOOOOOO.X.      ",
"         .XXXXXXoXXXXXXXXXXXXXXXXXXXXXX.X.      ",
"       ...XXXXXXoXXXXXXXXXXXXXXXXXXXXXX.X.      ",
"      .  .XXXXXXoXXXXXXXXXXXXXXXXXXXXXX.X.      ",
"      .  .X.OOOOoOOOOOOOOOOOOOOOOOOOOOO.X.      ",
"       ....XXXXXoXXXXXXXXXXXXXXXXXXXXXX.X.      ",
"         .XXXXXXoXXXXXXXXXXXXXXXXXXXXXX.X.      ",
"         .XXXXXXoXXXXXXXXXXXXXXXXXXXXXX..       ",
"         ...............................        "};
