/* XPM */
static char * snake_xpm[] = {
/* width height ncolors chars_per_pixel */
"48 48 5 1",
/* colors */
" 	s None	c None",
".	c black",
"X	c white",
"o	c dark slate grey",
"O	c sea green",
/* pixels */
"                                                ",
"                                                ",
"                                                ",
"                                                ",
"                             .....              ",
"                            .     .             ",
"                       ..                       ",
"                       ..                       ",
"                      .                         ",
"                    ..        ....              ",
"                    ..   .....XXXX.             ",
"                        .XXXX....XX..           ",
"                        .XXXX....XX..           ",
"                       .XXXXXX...XX..           ",
"                       .X...XX..XXX..           ",
"                       .X...XX..XX.             ",
"                        .XXXX......             ",
"                        .XXXX......             ",
"        .                .....ooOoO..           ",
"       .O.                 .OoOOoOoOO...        ",
"     ..Oo.       .....     ..OooOoOooOoO...     ",
"     ..o.      ..oOoOO.     ..OOoOoOOoOoOOo.    ",
"     ..o.      ..oOoOO.     ..OOoOoOOoOoOOo.    ",
"    .ooO.     .ooOoOooO.     .ooO.OooOoOooO.    ",
"    .OOo.     .OOoOoOOo.     ...oO.OOoOoOOo.    ",
"    .ooO.    .OooOoOooOo.     ..Oo....oOoo.     ",
"    .OOo.    .oOOo..OOoO.     ...Oo.. ....      ",
"    .OOo.    .oOOo..OOoO.     ...Oo.. ....      ",
"    .ooO.    .OooO..ooOo.       .oO..           ",
"    .OOo.    .oOOo..OOoO.       .Oo..           ",
"    .ooO.    .OooO..ooOoO..     .oOoo.          ",
"    .OOo.    .oOOo....oOo..     .OoOO.          ",
"    .OOo.    .oOOo....oOo..     .OoOO.          ",
"    .ooOo.   .OooO. ..OoO..     .oOoo.          ",
"    ...oO.   .oOOo. ..oOo..     .OoOO.          ",
"     ..Oo.   .OooO. ..OoOoo.  ...oOoo.          ",
"     ..oOo...OoOOo. ...OoOOo....oOoOO.          ",
"     ..oOo...OoOOo. ...OoOOo....oOoOO.          ",
"     ...oOooOoOoo..   .oOooOoOooOoOoo.          ",
"       .OoOOoOoOO.    ..oOOoOoOOoOo..           ",
"       ..OooOoO...     ..ooOoOooOo...           ",
"        .........       ...........             ",
"        .........       ...........             ",
"         ......            ......               ",
"                                                ",
"                                                ",
"                                                ",
"                                                "};
