/* XPM */
static char * tools2_xpm[] = {
/* width height ncolors chars_per_pixel */
"48 48 7 1",
/* colors */
" 	s None	c None",
".	c black",
"X	c grey",
"o	c sienna",
"O	c lemon chiffon",
"+	c yellow",
"@	c dark slate grey",
/* pixels */
"                                                ",
"                                                ",
"                                                ",
"                                                ",
"                                                ",
"                                                ",
"                                                ",
"                       ...                      ",
"                      .XX.                      ",
"                     .XXX.                      ",
"             ........XXXX.                      ",
"           ..XXXXXXXXXXXX.           .          ",
"          .XXXXXXXXXXXXXX.           .          ",
"         .XXXXXXXXXXXXXXX.          ..          ",
"        .XXXX........XXXX.          ..          ",
"        .XX.. .ooo.  .XXX.         .O.          ",
"       .X..   .ooo.   .XX.         .O.          ",
"       ..     .ooo.    ...        .OO.          ",
"       .      .ooo.               .OO.          ",
"              .ooo.              .OOO.          ",
"              .ooo.              .OOO.          ",
"              .ooo.             .OOOO.          ",
"              .ooo.             .OOOO.          ",
"              .ooo.            .OOOOO.          ",
"              .ooo.            .OO.OO.          ",
"              .ooo.           .OOO.OO.          ",
"              .ooo.           .OO..OO.          ",
"   ooooooooooooooooo oo.     .OOO..OO.          ",
"  o+++++++++++++++++o++.     .OO. .OO.  @@@     ",
"  o++oooooooooooo++++++.@@@@@@@@@@@@@@@@@@@@@@  ",
"  o++++++++++++++++++++.@@@@@@@@@@@@@@@@@@@@@@  ",
"  o++oooooooooooo++++++.................@@@...  ",
"  o+++++++++++++++++.++.   .OO.   .OO.  ...     ",
"   ................. ...  .OOO.   .OO.          ",
"             .ooooo.      .OO.    .OO.          ",
"             .ooooo.     .OOO.    .OO.          ",
"             .ooooo.     .OO.     .OO.          ",
"             .ooooo.    .OOO.......OO.          ",
"             .ooooo.    .OOOOOOOOOOOO.          ",
"             .ooooo.   .OOOOOOOOOOOOO.          ",
"             .......   ...............          ",
"                                                ",
"                                                ",
"                                                ",
"                                                ",
"                                                ",
"                                                ",
"                                                "};
