/* XPM */
static char * xmosaic_xpm[] = {
/* width height ncolors chars_per_pixel */
"48 48 5 1",
/* colors */
" 	s None	c None",
".	c firebrick",
"X	c dark slate grey",
"o	c yellow",
"O	c black",
/* pixels */
"                                          ..    ",
"                    .........................   ",
"               ...............................  ",
"              ...............................   ",
"            ......                        ..    ",
"           ...                           XX     ",
"          ...      XXXXXXXXXXXXXXXXXXXXXXXXX    ",
"         ..      XXXXXXXXXXXXXXXXXXXXXXXXXXX    ",
"        ..    XXXXXXXXXXXXXXXXXXXXXXXXXXXXXX    ",
"        .    XXXX                        XX     ",
"        .   XXX                       oo        ",
"       .   XX       ooooooooooooooooooooo       ",
"       .  X      oooooooooooooooooooooooo       ",
"       .  X    oooooooooooooooooooooooooo       ",
"      .  X    ooooo                   oo        ",
"      . X    ooo                                ",
"        X   ooo                                 ",
"           oo         OOOOO                     ",
"           o        OOOOOOOOO                   ",
"          o        OOOOOOOOOOO                  ",
"          o       OOOOOOOOOOOOO                 ",
"         o        OOOOOOOOOOOOO                 ",
"         o       OOOOOOOOOOOOOOO                ",
"         o       OOOOOOOOOOOOOOO                ",
"                 OOOOOOOOOOOOOOO                ",
"                 OOOOOOOOOOOOOOO      o         ",
"                 OOOOOOOOOOOOOOO      o         ",
"                  OOOOOOOOOOOOO       o         ",
"                  OOOOOOOOOOOOO      oo         ",
"                   OOOOOOOOOOO      oo  X       ",
"                    OOOOOOOOO      ooo  X       ",
"                      OOOOO       ooo   X       ",
"                                oooo   X        ",
"        oo                    ooooo   XX        ",
"       ooooooooooooooooooooooooooo    X  .      ",
"       ooooooooooooooooooooooooo     X   .      ",
"       ooooooooooooooooooooooo      XX   .      ",
"        oo                         XX   .       ",
"     XX                         XXXX   ..       ",
"    XXXXXXXXXXXXXXXXXXXXXXXXXXXXXXX   ..        ",
"    XXXXXXXXXXXXXXXXXXXXXXXXXXXXXX    .         ",
"    XXXXXXXXXXXXXXXXXXXXXXXXXXX     ...         ",
"     XX                            ...          ",
"   ..                            ....           ",
"  .................................             ",
"  ................................              ",
"  ..............................                ",
"   ..                                           "};
