/* XPM */
static char * colormap_xpm[] = {
/* width height ncolors chars_per_pixel */
"8 4 32 1",
/* colors */
" 	c black",
".	c dark slate grey",
"X	c slate grey",
"o	c grey",
"O	c gainsboro",
"+	c white",
"@	c violet",
"#	c pale green",
"$	c firebrick",
"%	c red",
"&	c tomato",
"*	c orange",
"=	c gold",
"-	c yellow",
";	c magenta",
":	c green",
">	c sienna",
",	c peru",
"<	c tan",
"1	c wheat",
"2	c lemon chiffon",
"3	c dark khaki",
"4	c purple",
"5	c lime green",
"6	c navy",
"7	c blue",
"8	c dodger blue",
"9	c sky blue",
"0	c lavender",
"q	c cyan",
"w	c light sea green",
"e	c sea green",
/* pixels */
" .XoO+@#",
"$%&*=-;:",
">,<12345",
"67890qwe"};
