/* XPM */
static char * dtruck_xpm[] = {
/* width height ncolors chars_per_pixel */
"120 62 5 1",
/* colors */
" 	s None	c None",
".	c black",
"X	c gold",
"o	c white",
"O	c grey",
/* pixels */
"                                                                                                                        ",
"                                                                                                                        ",
"                                                                                                                  ..    ",
"                                                                                                                 .X.    ",
"                                                                                                                .XX.    ",
"                                                                         .......................................XXX.    ",
"                                                                        .XXXXXXXXXXXXXXXXXXXXXXXXXXXXXXXXXXXXXXXXXX.    ",
"                                                                       .XXXXXXXXXXXXXXXXXXXXXXXXXXXXXXXXXXXXXXXXXXX.    ",
"                                                                       .XXXXXXXX....................................    ",
"                                                                      .XXXXXXXX.....................................    ",
"                                                                     .XXXXXXXX..X........................               ",
"                                                                    .XXXXXXXX..X.XXXXXX.XXXXXXXXXXXXXXXX.               ",
"                                                                    .XXXXXXX..X.XX...XX.XX............XX.               ",
"                                                                   .XXXXXXX..X.XX....XX.XX....................          ",
"                                                               ....XXXXXXX..X.XX..oo.XX.XX..oooo....X.XX.oooo.          ",
"                                                      .........XXX.XXXXXX..X.XX..ooo.XX.XX...ooo.OO.X.XX.oooo.          ",
"                                              ........XXXXXXXXXXXX.XXXXX..X.XX.......XX.XX...ooo.OO.X.XX.oooo.          ",
"                                     .........XXXXXXXXXXXXXXXXXXXX.XXXX..X.XXX.......XX.XX.......OO...XX.oooo.          ",
"                            .........XXXXXXXXXXXXXXXXXXXXXXXXX............XXXXXXXXXXXXX.XXXXXXXX.OO.X.XX.oooo.          ",
"                    ........XXXXXXXXXXXXXXXXXXXXXXXXXX...............X..X.XXXXXXXXXXXXX.XXXXXXXX....X.XX.oooo.          ",
"           .........XXXXXXXXXXXXXXXXXXXXXXXXXX.........XXXXX.XXXXXXXX..X.XXXXXXXXXXXXXX.XXXXXXXX......XX.oooo.          ",
"       ....XXXXXXXXXXXXXXXXXXXXXXXXXXX.................XXXXX.XXXXXXX..X.XXXXXXXXXXXXXXX.XXXXXXXXXXXXX.XX...........     ",
"      .XXXXXXXXXXXXXXXXXXXXXXX.........XXXXX.XXXXXXXXX.XXXXX.XXXXXXX.X.XXXXXXXXXXXXXXXX.XXXXXXXXXXXXX.XX.XXXX.XXXX.     ",
"     .XXXXXXXXXXXXXXXX.................XXXXX.XXXXXXXXX.XXXXX.XXXXXX..X.XXXXXXXXXXXXXXXX.XXXXXXXXXXXXX.XX.XXXX.XXXX.     ",
"     .XXXXXXXX..........XXXXX.XXXXXXXX.XXXXX.XXXXXXXXX.XXXXX.XXX..............................................XXXX.     ",
"     .XXX.............X.XXXXX.XXXXXXXX.XXXXX.XXXXXXXXX.XXXXX.XXX.XXXXXXXXXXXXXXXXXXXXXXXXXXXXXXXXXXXXXXXXXXXX.XXXX.     ",
"     .XX.XXXXX.XXXXXXXX.XXXXX.XXXXXXX..XXXX..XXXXXXXX..XXXX..XXX..............................................XXXX...   ",
"    .XXX.XXXX..XXXXXXX..XXXX..XXXXXXX.XXXXX.XXXXXXXXX.XXXXX.XXXXX.XXXXXXXXXXXXXXXXXXXXXXXXXXXXXXXXXXXXXXXXXX..XXXX.X.   ",
"    .XX.XXXXX.XXXXXXXX.XXXXX.XXXXXXXX.XXXXX.XXXXXXXXX.XXXXX.XXXXXX............................................XXXX.X.   ",
"    .XX.XXXXX.XXXXXXXX.XXXXX.XXXXXXXX.XXXXX.XXXXXXXXX.XXXXX.XXXXXX..........................................X.XXXX.X.   ",
"    .XX..............X.XXXXX.XXXXXXXX.XXXXX.XXXXXXXXX.XXXXX.XXXXX..X.XXXXXX..XXXX.XXXXXXXXXX.X.XXXXXXXXXXXX.XX.XXX.X.   ",
"   .XXXXXXXXXXXXXXXXX.............................XXX.XXXXX.XXXXX.X.XXXXXXXX..XXXX.XXXXXXXXX.X.XXXXXXXXXXXX.XX.XXX.X.   ",
"   .XXXXXXXXXXXXXXXXXXXXXXXXXXXXXXXXXXXXXXXXXXXXXX................X.XXXXXXXXX..XXXX.XXXXXXXX.X.XXXXXXXXXXXX.XX.XXX.X.   ",
"   .................XXXXXXXXXXXXXXXXXXXXXXXXXXXXXXXXXXXXXXXXXXXX..X.XXXXXXXXXX..XXXX.XXXXXXX.X.XXXXXXXXXXXX.XX.XXX.X.   ",
"   .................................................XXXXXXXXXXXX.X.XXXXXXXXXXXX..XXXX.XXXXXX.X.XXXXXXXXXXXX.XX.XXX.X.   ",
"    ..XXXXXXXXXXXXXX.............................................X.XXXXXXXXXXXXX..XXXX.XXXXX.X.XXXXXXXXXXXX..XX.XX.X.   ",
"     ...............XXXXXXXXXXXXXXXXXXXXXXXXXXXXXXXX............X.XXXXXXXXXXXXXXX..XXXX.XXXX.X.XXXXXXXXXXXXX.XX.XX.X.   ",
"      ...........................................XXXXXXXXXXXXXX.X.XXXXXXXXXXXXXXXX..XXXX.XXX.X.XXXXXXXXXXXXX.XX.XX.X.   ",
"                    ..............................................XXXXXXXXXXXXXXXXX..XXXX....................XX.XX...   ",
"                             ...........XXX..XX....................XXXXXXXXXXXXXXXXX..XX...........XXXXXXXXX.XX.XX...   ",
"                            .............XXX...X.X...XXXXXXXXXXXXX..XXXXXXXXXXXXXXXXX...............................    ",
"                           ...............XXX.XX.X..XXXXXXXXXXXXXXX..XXXXXXXXXXXXXXXXX...............XXXXXXXX.XXXXX.    ",
"                          .................X.XXX.X.XXXXXXXXXXXXXXXXX..XXXXXXXXXXXXXXX.................XXXXXXX.XXXXX.    ",
"                          ..................XXXX.X.XXXXXXXXXX.........................................XXXX....XXXXX.    ",
"                         ...................XXX..X.XXXXXXXXX.XXXXXXXXXXXXXXXXXXXXXXX...................X............    ",
"                         ........OOO........XX...X.XXXXXXXXX.XXXXXXXXXXXXXXXXXXXXXXX........OOO...........   .......    ",
"                         .......O.O.O.......X..X.X.XXXXXXXXX.XXXXXXXXXXXXXXXXXXXXXXX.......O.O.O........                ",
"                         .......OO.OO............X...........XXXXXXXXXXXXXXXXXXXXXXX.......OO.OO.......                 ",
"                         .......O.O.O............X...........XXXXXXXXXXXXXXXXXXXXXXX.......O.O.O.......                 ",
"                         ........OOO........    .X.         .XXXXXXXXXXXXXXXXXXXXXXX........OOO........                 ",
"                         ...................    ...         .XXXXXXXXXXXXXXXXXXXXXXX...................                 ",
"                          .................     ...         ..........................................                  ",
"                          .................                  .........................................                  ",
"                           ...............                                            ...............                   ",
"                            .............                                              .............                    ",
"                             ...........                                                ...........                     ",
"                               .......                                                    .......                       ",
"                                                                                                                        ",
"                                                                                                                        ",
"                                                                                                                        ",
"                                                                                                                        ",
"                                                                                                                        "};
