/* XPM */
static char *grab_xpm[] = {
/* width height ncolors chars_per_pixel */
"91 57 4 1",
/* colors */
"` c black",
"a c lavender",
"b c red",
"c c blue",
/* pixels */
"bb`bb`bb`bb`bb`bb`bb`b`accccccccccccccccccccccccccccccccccccccccccccccccccccccccccccccccccc",
"`bbbbbbbbbbbbbbbbbbbbbbb`acccccccccccccccccccccccccccccccccccccccccccccccccccccccccccccccc`",
"bbbb`bb`bb`bb`bb`bb`bb`bb````c`c`c`c`c`c`c`c`c`c`c`c`c`c`c`c`c`c`c`c`c`c`c`c`c`c`c`c`c`c```",
"bb`bb`bb`bb`bb`bb`bb`bb`bb`b``c`c`c`c`c`c`c`c`c`c`c`c`c`c`c`c`c`c`c`c`c```c`c`c`c`c`c`c`c``",
"`bb`bb`bb`bb`b`````bb`bb`bb`b``c`c`c`c`c`c`c`c`c`c`c`c`c`c`c`c`c`c`c````a````c`c`c`c`c`c```",
"bbbb`bb`bb`bb`aaaaa`bb`bb`bb`bb`c`c`c`c`c`c`c`c`c`c`c`c`c`c`c`c`c`c``aaa`a`a``c`c`c`c`c`c``",
"bb`bb`bb`bb``aaaaaaa`bb`bb`bb`bb```c`c`c`c`c`c`c`c`c`c`c`c`c`c`c```aaaaaa`a``c`c`c`c`c`c```",
"`bb`bb`bb`b`aaaaaaaaa`bb`bb`bb`bb```c`c`c`c`c`c`c`c`c`c`c`c`c`c``aaaaaaaaa`a``c`c`c`c`c`c``",
"bbbb`bb`bb``aaaaaaaaaa`bb`bb`bb`bb```c`c`c`c`c`c`c`c`c`c`c`c```aaaaaaaaaa`a`a``c`c`c`c`c```",
"bb`bb`bb`bb`aaaaaaaaaa``bb`bb`bb`bb`b`c`c`c`c`c`c`c`c`c`c`c``aaaaaaaaaaa`a`a``c`c`c`c`c`c``",
"`bb`bb`bb`b`aaaaaaaaaaa``bb`bb`bb`bb`b```c`c`c`c`c`c`c`c```aaaaaaaaaaaaaa`a``c`c`c`c`c`c```",
"bbbb`bb`bb``aaaaaaaaaaaa``bb`bb`bb`bb`bb``c`c`c`c`c`c`c``aaaaaaaaaaaaaaa`a`a``c`c`c`c`c`c``",
"bb`bb`bb`bb``aaaaaaaaaaaa``bb`bb`bb`b``````c`c`c`c`c```aaaaaaaaaaaaaaaa`a`a``c`c`c`c`c`c```",
"`bb`bb`bb`bb`aaaaaaaaaaaaa``bb`bb````bb`bb````c`c```aaaaaaaaaaaaaaaaaa`a`a``c`c`c`c`c`c`c``",
"a`bb`bb`bb`bb`aaaaaaaaaaaaa``bb`bb`bb`bb`b`b`````aaaaaaaaaaaaaaaaaa`a`a`a``c`c`c`c`c`c`c```",
"cc``b`bb`bb`b`aaaaaaaaaaaaaaa````bb`bb```````aaaaaaaaaaaaaaaaaaaaa`a`a`a``c`c`c`c`c`c`c`c``",
"cc`c`b`bb`bb`b`aaaaaaaaaaaaaaaaa````````aaaaaaaaaaaaaaaaaaaaaaaaa`a`a`a``c`c`c`c`c`c`c`c```",
"ccc`c```bb`bb`b`aaaaaaaaaaaaaaaaaaaaaaaaaaaaaaaaaaaaaaaaaaaaaa`a`a`a````c`c`c`c`c`c`c`c`c``",
"cc`c`c```bb`bb`b`aaaaaaaaaaaaaaaaaaaaaaaaaaaaaaaaaaaaaaaaaa`a`a`a````c`c`c`c`c`c`c`c`c`c```",
"ccc`c`c```bb`bb`b`aaaaaaaaaaaaaaaaaaaaaaaaaaaaaaaaaaaaaa`a`a`a`a``c`c`c`c`c`c`c`c`c`c`c`c``",
"cc`c`c`c`c`bbb`b`b``aaaaaaaaaaaaaaaaaaaaaaaaaaaaaa`aaaa`a`a``````c`c`c`c`c`c`c`c`c`c`c`c```",
"ccc`c`c`c`c`bb`bb`bb`aaaaaaaaaaaaaaaaaaaaaaaaaaaaaaa`a`a````c`c`c`c`c`c`c`c`c`c`c`c`c`c`c``",
"cc`c`c`c```b`bb`bb`bb`aaaaaaaaaaaaaaaaaaaaaaaaaaaaa`a`a``c`c`c`c`c`c`c`c`c`c`c`c`c`c`c`c```",
"ccc`c`c``b`bb`bb`bb`bb`aaaaaaaaaaaaaaaaaaaaaaaaaaaaa`a`a``c`c`c`c`c`c`c`c`c`c`c`c`c`c`c`c``",
"cc`c`c```bb`bb`bb`b```b```aaaaaaaaaaaaaaaaaaaaaaaaaaa`aaaa```````````````````````````c`c```",
"ccc`c``bb`bb`bb````b`b`b`````a`aaaaaaaaaaaaaaaaaaaaaaa`aaaaaaaaaaaaaaaaaaaaaaaaaaaaa``c`c``",
"cc`c``b`bb`bb```b`b`b`b`b`aaaaaaaaaaaaaaaaaaaaaaaaaaaaa`aaaaaaaaaaaaaaaaaaaaaaaaaaaaa``c```",
"ccc```bb`bb``b`b`b`b`b`b`b`aaaaaaaaaaaaaaaaaaaaaaaaaaa`aaaaaaaaaaaaaaaaaaaaaaaaaaaaa`a``c``",
"cc``bb`bb```b`b`b`b`b`b`b```a`aaaaaaaaaaaaaaaaaaaaaaaaa`aaaaaaaaaaaaaaaaaaaaaaaaaaa`a`a````",
"ccc``bb``b`b`b`b`b`b`b`b`b`aaa`a`aaaaaaaaaaaaaaaaaaaaaaa`a`a`a`a`aaaaaaaaaaaaaaaaa`a`a``c``",
"cc``b`bb``b`b`b`b`b`b`b`b`b`aaaaaaaaaaaaaaaaaaaaaaaaaaa`a`a`a`a`a`a`a`a`a`a`a`a`a`a`a``c```",
"ccc`bb`b`b`b`b`b`b`b`b`b`b`b`a`aaaaaaaaaaaaaaaaaaaaaaaaa`a`a`a`a`a`a`a`a`a`a`a`a`a`a``c`c``",
"cc`c`bb`b``bb`b`b`b`b`b`b`b`b``a`aaaaaaaaaaa`aaaaaaaaaa`a```````a`a`a`a`a`a`a`a`a`a``c`c```",
"ccc```bb`b``bb`bb`bb`b`b`b`b`b``a`a`a`a`a`a`aaaaaaaaaa`a`a``c`c````````a`a`a`a`a````c`c`c``",
"cc`c```bb`bb`bb`bb`bb`bb`bb`b`b`baaaaaaaaaaaaaaaaaaaaaa`a`a``c`c`c`c`c```````````c`c`c`c```",
"ccc`c`c`````b`bb`bb`bb`bb`bb`bb`bbaaaaaaaaaaaaaaaaaaaa`aaaa```c`c`c`c`c`c`c`c`c`c`c`c`c`c``",
"cc`c`c`c`c`c`````````bb`bb`bb`bb`b`aaaaaaaaaaaaaaaaaaaaaaaaaa``c`c`c`c`c`c`c`c`c`c`c`c`c```",
"ccc`c`c`c`c`c`c`c`c`c``````````````a`aaaaaaaaaaaaaaa`aaaaaaaaa``c`c`c`c`c`c`c`c`c`c`c`c`c``",
"cc`c`c`c`c`c`c`c`c`c`c`c`c`c`c`c`c``a`aaaaaaaaa`a`a`a`aaaaaaaaa``c`c`c`c`c`c`c`c`c`c`c`c```",
"ccc`c`c`c`c`c`c`c`c`c`c`c`c`c`c`c`c````a`a`a`a`a```a`a`aaaaaaaaa``c`c`c`c`c`c`c`c`c`c`c`c``",
"cc`c`c`c`c`c`c`c`c`c`c`c`c`c`c`c`c`c`c````a`a`a`a`````a`aaaaaaaaa``c`c`c`c`c`c`c`c`c`c`c```",
"ccc`c`c`c`c`c`c`c`c`c`c`c`c`c`c`c`c`c`c`c`````````c`c``a`aaaaaaaaa``c`c`c`c`c`c`c`c`c`c`c``",
"cc`c`c`c`c`c`c`c`c`c`c`c`c`c`c`c`c`c`c`c`c`c`c`c`c`c`c``a`aaaaaaaaa``c`c`c`c`c`c`c`c`c`c```",
"ccc`c`c`c`c`c`c`c`c`c`c`c`c`c`c`c`c`c`c`c`c`c`c`c`c`c`c``a`aaaaaaaaa``c`c`c`c`c`c`c`c`c`c``",
"cc`c`c`c`c`c`c`c`c`c`c`c`c`c`c`c`c`c`c`c`c`c`c`c`c`c`c`c``a`aaaaaaaaa``c`c`c`c`c`c`c`c`c```",
"ccc`c`c`c`c`c`c`c`c`c`c`c`c`c`c`c`c`c`c`c`c`c`c`c`c`c`c`c``a`aaaaaaaaa``c`c`c`c`c`c`c`c`c``",
"cc`c`c`c`c`c`c`c`c`c`c`c`c`c`c`c`c`c`c`c`c`c`c`c`c`c`c`c`c``a`aaaaaaaaa``c`c`c`c`c`c`c`c```",
"ccc`c`c`c`c`c`c`c`c`c`c`c`c`c`c`c`c`c`c`c`c`c`c`c`c`c`c`c`c``a`aaaaaaaaa``c`c`c`c`c`c`c`c``",
"cc`c`c`c`c`c`c`c`c`c`c`c`c`c`c`c`c`c`c`c`c`c`c`c`c`c`c`c`c`c``a`aaaaaaaaa``c`c`c`c`c`c`c```",
"ccc`c`c`c`c`c`c`c`c`c`c`c`c`c`c`c`c`c`c`c`c`c`c`c`c`c`c`c`c`c``a`a`aaaaa`a``c`c`c`c`c`c`c``",
"cc`c`c`c`c`c`c`c`c`c`c`c`c`c`c`c`c`c`c`c`c`c`c`c`c`c`c`c`c`c`c``a`a`a`a`a``c`c`c`c`c`c`c```",
"ccc`c`c`c`c`c`c`c`c`c`c`c`c`c`c`c`c`c`c`c`c`c`c`c`c`c`c`c`c`c`c``a`a`a`a`a``c`c`c`c`c`c`c``",
"cc`c`c`c`c`c`c`c`c`c`c`c`c`c`c`c`c`c`c`c`c`c`c`c`c`c`c`c`c`c`c`c````a`a`a``c`c`c`c`c`c`c```",
"ccc`c`c`c`c`c`c`c`c`c`c`c`c`c`c`c`c`c`c`c`c`c`c`c`c`c`c`c`c`c`c`c`c```````c`c`c`c`c`c`c`c``",
"cc`c`c`c`c`c`c`c`c`c`c`c`c`c`c`c`c`c`c`c`c`c`c`c`c`c`c`c`c`c`c`c`c`c`c`c`c`c`c`c`c`c`c`c```",
"cc`````````````````````````````````````````````````````````````````````````````````````````",
"c``````````````````````````````````````````````````````````````````````````````````````````"
};
