/* XPM */
static char * lemmings_beachboy_xpm[] = {
/* width height ncolors chars_per_pixel */
"32 36 12 1",
/* colors */
" 	s None	c None",
".	c black",
"X	c dark slate grey",
"o	c red",
"O	c navy blue",
"+	c sea green",
"@	c lime green",
"#	c blue",
"$	c firebrick",
"%	c peru",
"&	c white",
"*	c tan",
/* pixels */
"                                ",
"..                              ",
". X                             ",
". oX         X XXXX             ",
".OoX       XX+X@@@@X            ",
".o#oX     X+++@+++@@X           ",
".$Oo#X   X+@@++@@@@@+XX         ",
".$O$oX    X++++++++@@@@X        ",
" X$#oX   X+++.+...++@+X         ",
" XoO$oX   X+.%.+%%.+++X         ",
" X$O$oX  X++........+++X        ",
" X$$#$#X X++.%&**&%.+@X         ",
" X$oO$oX X++.%.**.%.++X         ",
"  X$O#oX X+++X****X+++X         ",
"  X$$#$oX XX+X%***X++X          ",
"  X$$O$o#X  XXX%*XX+X           ",
"  Xo$O$ooX  X%%XX**XX           ",
"  XO$O#$$X X**%%*****XXX        ",
"   X$$O$ooXX************XX      ",
"   X$oO#$XX**%******%%%***X     ",
"   X$$OO XX*%%******XXXX**X     ",
"    XOXX X%*%*******X+++XXXXX   ",
"     X  XX**%********X$+++@@XX  ",
"        X%**X*******%X$$$$+@X@X ",
"        X**%X%******%X++$$o$XoX ",
"        X*%X%***%***%%X+++$oXoX ",
"         X% %%%*%**%%%X$++@+X@X ",
"         XX XXXXXXXXXXX$$$+@X@X ",
"         XO  O########X@$$$oXoX ",
"         XOO O########XX++o$XoX ",
"         XXX  OO##OXXXX X++@X@X ",
"        X%%%% XOOXX%%%%X XX+X+X ",
"       X%%***%%OO%%%%%%%X  XXX  ",
"      X%%%%****XX%%**%%*%X      ",
"      XXXXXXXXXXXXXXXXXXXX      ",
"                                "};
