/* XPM */
static char * nude_blond_xpm[] = {
"31 56 11 1",
" 	s None	c None",
".	c yellow",
"X	c grey",
"o	c wheat",
"O	c black",
"+	c white",
"@	c lemon chiffon",
"#	c slate grey",
"$	c red",
"%	c tan",
"&	c magenta",
"             .......XX         ",
"           ..XXXXX...XX        ",
"          ..XX........X.       ",
"         .XXX..oooooo....      ",
"         XX.XoooooooooX .      ",
"         ....oOOOooOOOoX..     ",
"         .X..o+O+oo+O+oX...    ",
"         .X.ooO@OooO@OoX.X.    ",
"        ..X.ooo@@Oo@@@oX.XX.   ",
"        ..X.Xoo@@@Oo@oX...X..  ",
"        ..X.X##oooooo#X...XX.  ",
"      OO.XX..Xoo$OO$oX.XX......",
"   OOO..XX....Xoo$$ooX..XXXX...",
"  O....XX...X..XooooXX.....XX..",
"O...............###.....oooOXX.",
"    ..O...XXX..o##...X..OoooO..",
"  O..O...XX...o..XX..X..oooooO.",
"  O.OXX.XX...oo.XX.o.X.%ooooooO",
" O..XX..o..o.o....o..X..ooooooo",
"O.X....o.XXoo..oooo..X.O%oooooo",
"O.OO.Oo....oo.oo@@@o.XXXO%ooooo",
" O .OOoo@@@oooo@@@@@o..XOO%%ooo",
"  . O@@@@@@@oO@@@@@@@o..OOO%%oo",
"   O@@@@@@@oO@@@@&&@@@@oO%O%%oo",
"   O&&@@@@@oO@@@&$$&@@@oO%OO%%o",
"  O$$$@@@@@oO@o@&OO&@@ooO%%..%%",
"  OO&&@@@oooOoo@@&&@@@ooO%%.X.%",
"   OO@@oooooOooo@@@@@ooOO%..X..",
"    OOooooOO%O%ooooooooO%%..XX.",
"     OOOOOO%OO%%%%ooo%OO%%...X.",
"      OOO%%%%%OO%%%%OOO%%%.X.X.",
"      OXO%%ooo%%OOOOO%%%o..X...",
"      OX.%ooooo%%%%%%%%oo..XX..",
"     OOX.%ooooooo%oooooo..X.XX.",
"    OXX. %oooooooooooooo.XX....",
"   O ... %oooooooooooooo..O.X..",
"    .O.O %oooooOooooooo.XO..XX.",
"   .   .%%ooo%%O%%ooooo...O.OXX",
"      . %oooooOOooooooo#....OO.",
"        %oooooooooooooooO..XX.O",
"       OoooooooooooooooooO..OX ",
"      O@oooooooooooooooooOX OO ",
"      Oo@@oooooooo@@@@@@@oO. O ",
"     Ooooo@@......@%%oooo@@O   ",
"     Ooooo%OO....O%%oooooooO   ",
"     Oooooo%%O..OO%ooooooooO   ",
"     Oooooo%%O.OO%%ooooooooO   ",
"     Ooooooo%OOO%%oooooooooO   ",
"     Ooooooo@%O%%@oooooooooO   ",
"     Ooooooo@%O%@ooooooooooO   ",
"     Oooooooo@O@ooooooooooO    ",
"     OoooooooO@oooooooooooO    ",
"     OoooooooOoooooooooooO     ",
"      OooooooOoooooooooooO     ",
"      OoooooOoooooooooooO      ",
"      OoooooOoooooooooooO      "};
