#define crocidile_width 65
#define crocidile_height 22
static char crocidile_bits[] = {
 0x00,0x00,0x1e,0x00,0x00,0x00,0x00,0x00,0x00,0x00,0x70,0x21,0x00,0x00,0x00,
 0x00,0x00,0x00,0x00,0x88,0xc0,0x03,0xf0,0x07,0x00,0x00,0x00,0x00,0x68,0x4c,
 0xfc,0x0f,0x38,0x00,0x00,0x00,0x00,0x04,0x0a,0x00,0x00,0xc0,0x00,0x00,0x00,
 0x00,0x03,0x04,0x00,0x00,0x00,0x03,0x00,0x00,0xc0,0x00,0x40,0x00,0x00,0x00,
 0x04,0x00,0x00,0x30,0x00,0x40,0x00,0x00,0x00,0x18,0x00,0x00,0x0e,0x00,0x38,
 0x00,0x00,0x00,0x60,0x00,0x00,0x01,0xc0,0x07,0x00,0x00,0x00,0x80,0x01,0x00,
 0x01,0x38,0x30,0x00,0x00,0x80,0x00,0x06,0x00,0x86,0x07,0x1e,0x10,0x00,0x40,
 0x05,0x18,0x00,0x78,0xfe,0x79,0xf0,0x03,0x80,0x2a,0x20,0x00,0x80,0x03,0xd4,
 0x11,0xfc,0x07,0x5f,0x41,0x00,0x00,0x00,0x6c,0x11,0x50,0x1f,0xe1,0x82,0x00,
 0x00,0x00,0xbb,0x08,0xb0,0x11,0x01,0x05,0x01,0x00,0xc0,0x9e,0x08,0x5c,0x09,
 0xc1,0x83,0x01,0x00,0xe0,0x67,0x86,0xfb,0x48,0x3f,0x40,0x01,0x00,0x00,0xf0,
 0x01,0x00,0xf8,0x03,0xea,0x00,0x00,0x00,0x00,0x00,0xe0,0x0f,0x54,0x3d,0x00,
 0x00,0x00,0x00,0x00,0x3c,0xa0,0xff,0x03,0x00,0x00,0x00,0x00,0x00,0xff,0xff,
 0x00,0x00,0x00};
