#define dino2_width 15
#define dino2_height 15
static char dino2_bits[] = {
 0x1e,0x00,0x3b,0x00,0x3c,0x00,0x76,0x00,0x70,0x00,0x7c,0x20,0xf3,0x40,0xe8,
 0x41,0xe0,0x63,0xe0,0x7f,0xf0,0x3f,0xf0,0x1f,0x90,0x07,0x18,0x02,0x8e,0x03
 };
