#define dino1_width 20
#define dino1_height 15
static char dino1_bits[] = {
 0x00,0x00,0x07,0x00,0x80,0x0e,0x00,0xc0,0x03,0x00,0xe0,0x06,0x00,0xf0,0x00,
 0x00,0xf8,0x03,0x00,0xfc,0x04,0x00,0xfc,0x01,0x00,0x6e,0x01,0x00,0x3f,0x00,
 0x00,0x7f,0x00,0x81,0x77,0x00,0xc6,0x6f,0x00,0xfc,0xcc,0x03,0x38,0x9c,0x05
 };
