#define noname_width 12
#define noname_height 10
static char noname_bits[] = {
 0x20,0x00,0x90,0x01,0x94,0x01,0xe4,0x08,0xf8,0x07,0xfe,0x00,0x71,0x01,0x40,
 0x02,0x40,0x02,0x20,0x00};
