/* XPM */
static char * castle_hall_xpm[] = {
/* width height ncolors chars_per_pixel */
"560 21 19 1",
/* colors */
" 	s None	c None",
".	c dark slate grey",
"X	c tan",
"o	c wheat",
"O	c slate grey",
"+	c orange",
"@	c gold",
"#	c sienna",
"$	c white",
"%	c peru",
"&	c cyan",
"*	c lime green",
"=	c grey",
"-	c firebrick",
";	c yellow",
":	c lemon chiffon",
">	c dodger blue",
",	c black",
"<	c gainsboro",
/* pixels */
"                                                                                                                                                                                                                                                                                                                                                                                                                                                                                                                                                                                ",
"                                                    ..........................................................................................................                                                                                                                                                                                                                                                                                                                                                                                                                  ",
"                                                 ...XXXXXXXXXXXXXXXXXXXXXXXXXXXXXXXXoooooooOoooooooXXXXXXXXXXXXXXXXXXXXXXXXXXXXXXXXXXXXXXXXXXXXXXXXXXXXXXXXXXX...                                                                                                                                                                                                                                                                                                                                                                                                               ",
"                                                .XXXXXXXXXXXXXXXXXXXXXXXXXXXXXXXXXXXoooooooOoooooooXXXXXXXXXX............XXXXXXXXXXXXXXXXXXXXXXXXXXXXXXXXXXXXXXXX.                                                                                                                                                                                                                                                                                                                                                                                                              ",
"                                              ..XXXXXXXXXXXXXXXXXXXXXXXXXXXXXXXXXXXoooooo++@++ooooooXXXXXXXXX.##########.XXXXXXXXXXXXXXXXXXXXXXXXXXXXXXXXXXXXXXXXX..                                                                                                                                                                                                                                                                                                                                                                                                            ",
"                                             .XXXXXXXXXXXX############XXXXXXXXXXXXXooooo++$$$++oooooXXXXXXXXX.#%%%%%%%%#.XXXXXXXXXXXX############XXXXXXXXXXXXXXXXXXX.                                                                                                                                                                                                                                                                                                                                                                                                           ",
"                                             .XXXXXXXXXXXX#&&&&&&**&&#XXXXXXXXXXXXXoooooo+$$$+ooooooXXXXXXXXX.#%######%#.XXXXXXXXXXXX#==--======#XXXXXXXXXXXXXXXXXXX.                                                                                                                                                                                                                                                                                                                                                                                                           ",
"                                          ...XXXXXXXXXXXXX#&&&&&*%&&&#XXXXXXXXXXXXXooooooo+@+oooooooXXXXXXXXX.#%######%#.XXXXXXXXXXXX#=-.--=====#XXXXXXXXXXXXXXXXXXX.                                                                                                                                                                                                                                                                                                                                                                                                           ",
"                                         .XXXXXXXXXXXXXXXX#&&&&&*&%&&#XXXXXXXXXXXXXoooooooo+ooooooooXXXXXXXXX.#%######%#.XXXXXXXXXXXX#=;-=----==#XXXXXXXXXXXXXXXXXXXX..                                                                                                                                                                                                                                                                                                                                                                                                         ",
"                                         .XXXXXXXXXXXXXXXX#&&&&&&:%:&#XXXXXXXXXXXXXXoooooooooooooooXXXXXXXXXX.#%######%#.XXXXXXXXXXXX#;;==-----=#XXXXXXXXXXXXXXXXXXXXXX..                                                                                                                                                                                                                                                                                                                                                                                                       ",
"                                        .XXXXXXXXXXXXXXXXX#>>>>::::::#XXXXXXXXXXXXXXoooooooooooooooXXXXXXXXXX.#%#####,,#.XXXXXXXXXXXX#;=*-*-*---#XXXXXXXXXXXXXXXXXXXXXXXX...                                                                                                                                                                                                                                                                                                                                                                                                    ",
"                                        .%%%%%%%%%%%%%%%%%#>>>>>>>>>>#%%%%%%%%%%%%%%%XXXXXXXXXXXXX%%%%%%%%%%%.#%%%%%%,,#.%%%%%%%%%%%%#**********#%%%%%%%%%%%%%%%%%%%%%%%%%%%.                                                                                                                                                                                                                                                                                                                                                                                                   ",
"                                       .XXXXXXXXXXXXXXXXXX############XXXXXXXXXXXXXXXXoooooooooooXXXXXXXXXXXX.#%######%#.XXXXXXXXXXXX############XXXXXXXXXXXXXXXXXXXXXXXXXXXX.                                                                                                                                                                                                                                                                                                                                                                                                  ",
"                                      .XXXXXXXXXXXXXXXXXXXXXXXXXXXXXXXXXXXXXXXXXXXXXXXXoooooooooXXXXXXXXXXXXX.#%######%#.XXXXXXXXXXXXXXXXXXXXXXXXXXXXXXXXXXXXXXXXXXXXXXXXXXXXX..                                                                                                                                                                                                                                                                                                                                                                                                ",
"                                    ..XXXXXXXXXXXXXXXXXXXXXXXXXXXXXXXXXXXXXXXXXXXXXXXXXXXoooooXXXXXXXXXXXXXXX.#%######%#.XXXXXXXXXXXXXXXXXXXXXXXXXXXXXXXXXXXXXXXXXXXXXXXXXXXXXXX.                                                                                                                                                                                                                                                                                                                                                                                               ",
"                                   .XXXXXXXXXXXXXXXXXXXXXXXXXXXXXXXXXXXXXXXXXXXXXXXXXXXXXXXXXXXXXXXXXXXXXXXXX.#%######%#.XXXXXXXXXXXXXXXXXXXXXXXXXXXXXXXXXXXXXXXXXXXXXXXXXXXXXXXX.                                                                                                                                                                                                                                                                                                                                                                                              ",
"                                   .XXXXXXXXXXXXXXXXXXXXXXXXXXXXXXXXXXXXXXXXXXXXXXXXXXXXXXXXXXXXXXXXXXXXXXXXX.#%######%#.XXXXXXXXXXXXXXXXXXXXXXXXXXXXXXXXXXXXXXXXXXXXXXXXXXXXXXXXX...                                                                                                                                                                                                                                                                                                                                                                                           ",
"                              .....XXXXXXXXXXXXXXXXXXXXXXXXXXXXXXXXXXXXXXXXXXXXXXXXXXXXXXXXXXXXXXXXXXXXXXXXXX.#%%%%%%%%#.XXXXXXXXXXXXXXXXXXXXXXXXXXXXXXXXXXXXXXXXXXXXXXXXXXXXXXXXXXXX.                                                                                                                                                                                                                                                                                                                                                                                          ",
"                           ...XXXXXXXXXXXXXXXXXXXXXXXXXXXXXXXXXXXXXXXXXXXXXXXXXXXXXXXXXXXXXXXXXXXXXXXXXXXXXXX.##########.XXXXXXXXXXXXXXXXXXXXXXXXXXXXXXXXXXXXXXXXXXXXXXXXXXXXXXXXXXXXX.                                                                                                                                                                                                                                                                                                                                                                                         ",
"................................................................................................................................................................................................................................................................................................................................................................................................................................................................................................................................................................................",
"<<<<<<<<<<<<<<<<<<<<<<<<<<<<<<<<<<<<<<<<<<<<<<<<<<<<<<<<<<<<<<<<<<<<<<<<<<<<<<<<<<<<<<<<<<<<<<<<<<<<<<<<<<<<<<<<<<<<<<<<<<<<<<<<<<<<<<<<<<<<<<<<<<<<<<<<<<<<<<<<<<<<<<<<<<<<<<<<<<<<<<<<<<<<<<<<<<<<<<<<<<<<<<<<<<<<<<<<<<<<<<<<<<<<<<<<<<<<<<<<<<<<<<<<<<<<<<<<<<<<<<<<<<<<<<<<<<<<<<<<<<<<<<<<<<<<<<<<<<<<<<<<<<<<<<<<<<<<<<<<<<<<<<<<<<<<<<<<<<<<<<<<<<<<<<<<<<<<<<<<<<<<<<<<<<<<<<<<<<<<<<<<<<<<<<<<<<<<<<<<<<<<<<<<<<<<<<<<<<<<<<<<<<<<<<<<<<<<<<<<<<<<<<<<<<<<<<<<<<<<<<<<<<<<<<<<<<<<<<<<<<<<<<<<<<<<<<<<<<<<<<<<<<<<<<<<<<<<<<<<<<<<<<<<<<<<<<<<<<<<<<<<<<<<<<<<<<<<<<<<"};
