/* XPM */
static char * day_night_xpm[] = {
/* width height ncolors chars_per_pixel */
"560 16 8 1",
/* colors */
" 	s None	c None",
".	c navy",
"X	c orange",
"o	c lavender",
"O	c black",
"+	c dark slate grey",
"@	c tomato",
"#	c gainsboro",
/* pixels */
"                                                                                                                                                                                                                                                                                                                                                                                                                                                                                                                         ...............                                        ",
"                                                                                                                                                                                                                                                                                                                                                                                                                                                                                                                    ..........................                                  ",
"                                                    X                                                                                                                                                                                                                                                                                                                                                                                                                                                            ...................oo...........                               ",
"                                              X     X     X                                                                                                                                                                                                                                                                                                                                                                                                                                                   .................oo....o......oo......                            ",
"                                       X       X    X    X       X                                                                                                                                                                                                                                                                                                                                                                                                                                        ....................oo.............o..........                        ",
"                                        XX     X    X    X                                                                                                                                                                                                                                                                                                                                                                                                                                              .....................ooo..........................                      ",
"                                          X     X   X   X     X OO OO                                                                                                                                                                                                                                                                                                                                                                                                                                 .......................ooo............................                    ",
"                                XX         X     X     X     X    +                                                                                                                                                                                                                                                                                                                                                                                                                                ..........oo..............ooo..............................                  ",
"                                  XX        XX   X     X   XX        X  + +                                                                                                                                                                                                                                                                                                                                                                                                                       ...........oo..............oooo...............................                ",
"                                    XX        X           X        XX  + + +                                                                                                                                                                                                                                                                                                                                                                                                                    .............................ooooo...o...............o.......o...               ",
"                                      XX          XXXXX          XX                                                                                                                                                                                                                                                                                                                                                                                                                            .........................o.....oooooooo.....o........oo.......oo....             ",
"                        XXXX            XX      XX@@@@@XX      XX             XXX                                                                                                                                                                                                                                                                                                                                                                                                             ......o..................oo......oooooo................o..............            ",
"                            XXXXXX        XX   X@@@@@@@@@X   XX          XXXXX                                                                                                                                                                                                                                                                                                                                                                                                              ........o...........................oooo..................................          ",
"                                              X@@@@@@@@@@@X                                                                                                                                                                                                                                                                                                                                                                                                                                ............................................................................         ",
"++++++++++++++++++++++++++++++++++++++++++++++++++++++++++++++++++++++++++++++++++++++++++++++++++++++++++++++++++++++++++++++++++++++++++++++++++++++++++++++++++++++++++++++++++++++++++++++++++++++++++++++++++++++++++++++++++++++++++++++++++++++++++++++++++++++++++++++++++++++++++++++++++++++++++++++++++++++++++++++++++++++++++++++++++++++++++++++++++++++++++++++++++++++++++++++++++++++++++++++++++++++++++++++++++++++++++++++++++++++++++++++++++++++++++++++++++++++++++++++++++++++++++++++++++++++++++++++++++++++++++++++++++++++++++++++++++++++++++++++++",
"################################################################################################################################################################################################################################################################################################################################################################################################################################################################################################################################################################################"};
