/* XPM */
static char * lightbulb_xpm[] = {
/* width height ncolors chars_per_pixel */
"560 18 8 1",
/* colors */
" 	s None	c None",
".	c pale green",
"X	c yellow",
"o	c gainsboro",
"O	c grey",
"+	c dark slate grey",
"@	c black",
"#	c slate grey",
/* pixels */
"    ....                                                                                                                                                                                                                                                                                                                                                                                                                                                                                                                                                                        ",
"   .XXXX.                                                                                                                                                                                                                                                                                                                                                                                                                                                                                                                                                          ooooooooooo  ",
"  .XXXXXX.                                                                                                                                                                                                                                                                                                                                                                                                                                                                                                                                                         oOOOOOOOOO+  ",
"  .XXXXXX.                                                                                                                                                                                                                                                                                                                                                                                                                                                                                                                                                         oOO@@@@@OO+  ",
"  .XXXXXX.                                                                                                                                                                                                                                                                                                                                                                                                                                                                                                                                                         oO@#OOO#@O+  ",
"  .XXXXXX.                                                                                                                                                                                                                                                                                                                                                                                                                                                                                                                                                         oO@O@O@O@O+  ",
"   .XXXX.                                                                                                                                                                                                                                                                                                                                                                                                                                                                                                                                                          oO@O@O@O@O+  ",
"   .XXXX.                                                                                                                                                                                                                                                                                                                                                                                                                                                                                                                                                          oO@#OOO#@O+  ",
"    .XX.                                                                                                                                                                                                                                                                                                                                                                                                                                                                                                                                                           oOO@@@@@OO+  ",
"    .XX.                                                                                                                                                                                                                                                                                                                                                                                                                                                                                                                                                           oOOOOOOOOO+  ",
"    O..O                                                                                                                                                                                                                                                                                                                                                                                                                                                                                                                                                           oOO@@@@@OO+  ",
"    ####                                                                                                                                                                                                                                                                                                                                                                                                                                                                                                                                                           oO@@@@@@@O+  ",
"    ###+++++++++++++++++++++++++++++++++++++++++++++++++++++++++++++++++++++++++++++++++++++++++++++++++++++++++++++++++++++++++++++++++++++++++++++++++++++++++++++++++++++++++++++++++++++++++++++++++++++++++++++++++++++++++++++++++++++++++++++++++++++++++++++++++++++++++++++++++++++++++++++++++++++++++++++++++++++++++++++++++++++++++++++++++++++++++++++++++++++++++++++++++++++++++++++++++++++++++++++++++++++++++++++++++++++++++++++++++++++++++++++++++++++++++++++++++++++++++++++++++++++++++++++++++++++++++++++++++++++++++++++++++++++++++++++++++@@@@O+  ",
"     ++oooooooooooooooooooooooooooooooooooooooooooooooooooooooooooooooooooooooooooooooooooooooooooooooooooooooooooooooooooooooooooooooooooooooooooooooooooooooooooooooooooooooooooooooooooooooooooooooooooooooooooooooooooooooooooooooooooooooooooooooooooooooooooooooooooooooooooooooooooooooooooooooooooooooooooooooooooooooooooooooooooooooooooooooooooooooooooooooooooooooooooooooooooooooooooooooooooooooooooooooooooooooooooooooooooooooooooooooooooooooooooooooooooooooooooooooooooooooooooooooooooooooooooooooooooooooooooooooooooooooooooooooooooooooooooooooo+@@@@O+  ",
"     ##                                                                                                                                                                                                                                                                                                                                                                                                                                                                                                                                                            oO@@@@@@@O+  ",
"                                                                                                                                                                                                                                                                                                                                                                                                                                                                                                                                                                   oOO@@@@@OO+  ",
"                                                                                                                                                                                                                                                                                                                                                                                                                                                                                                                                                                   oOOOOOOOOO+  ",
"                                                                                                                                                                                                                                                                                                                                                                                                                                                                                                                                                                   o++++++++++  "};
