/* XPM */
static char * construction3_xpm[] = {
/* width height ncolors chars_per_pixel */
"49 43 4 1",
/* colors */
" 	s None	c None",
".	c red",
"X	c white",
"o	c black",
/* pixels */
"                       ...                       ",
"                      .....                      ",
"                      .....                      ",
"                     .......                     ",
"                     .......                     ",
"                    .........                    ",
"                   ...........                   ",
"                   ...........                   ",
"                  ......X......                  ",
"                  .....XXX.....                  ",
"                 ......XXX......                 ",
"                ......XXXXX.....                 ",
"                ......XXXXX......                ",
"               ......XXXXXXX......               ",
"               .....XXXXXXXX......               ",
"              ......XXXXXXXXX......              ",
"              .....XXXXXXXXXXX.....              ",
"             ......XXXXXooXXXX......             ",
"            ......XXXXXXoooXXXX.....             ",
"            .....XXXXXXooooXXXX......            ",
"           ......XXoooooooXXXXXX.....            ",
"           .....XXoooooooXXXXXXXX.....           ",
"          ......XXooXooooXXXXXXXX......          ",
"         ......XXXoXoooooXXXXXXXXX.....          ",
"         ......XXooooooooXXXXXXXXX......         ",
"        ......XXXooooooooXXXXXXXXXX.....         ",
"        .....XXXXXoooooXooXXXXXXXXX......        ",
"       ......XXXXXoooooXooXXXXXXXXXX.....        ",
"       .....XXXXXXooooooooXXXXXXXXXX......       ",
"      ......XXXXXoooXoooooXXXXXXXXXXX......      ",
"      .....XXXXXXooXXoooXooXXXXXXXXXX......      ",
"     ......XXXXXoooXXoooXooXXXXXXXXXXX......     ",
"    ......XXXXXXooXXXoooXXXoXXXXoooXXXX.....     ",
"    .....XXXXXXooXXXXooXXXXoooooooooXXX......    ",
"   ......XXXXXXooXXXXooXXXXXoooooooooXXX.....    ",
"   .....XXXXXXXooXXXXooXXXXoooooooooooXX......   ",
"  ......XXXXXXXooXXXXooXXXooooooooooooXXX......  ",
" .......XXXXXXXXXXXXXXXXXXXXXXXXXXXXXXXXX......  ",
" ............................................... ",
"................................................ ",
".................................................",
".................................................",
" ............................................... "};
