/* XPM */
static char *DocsUpArrow_xpm[] = {
/* width height ncolors chars_per_pixel */
"30 30 15 1",
/* colors */
"` c #B4BCC1",
"a c #77868F",
"b c #556067",
"c c #C9CFD2",
"d c #929EA5",
"e c #D7DBDE",
"f c #98A3AA",
"g c #7E8C95",
"h c #606C74",
"i c #4F5A60",
"j c #6C7A83",
"k c #A7B0B6",
"l c #C2C9CD",
"m c #EBEDEE",
"n c #DDE1E3",
/* pixels */
"mmmmmmmmmmmmmmmmmmmmcemmmmmmmh",
"mmmmmmmmmmmmmmmmmmmmnnmmmmmmkh",
"mmclcllccencencccnne`fffk`cegj",
"mmlcc`fklnnccec`cnmnc`kk`lccaj",
"mm``l```lcelkklccennc`cecl`lgg",
"mmff```kk`cl`l`eclleneecccenga",
"mmkkkkkff`cc``hg```cnnellcnnda",
"mmcccclkklcl`diikcl`lcec`cnekd",
"mmlceec`k````iibaccl`lec`celfg",
"mmlllcelk```aibhhf`ll`cclccldd",
"mmlllcc`klc`ibhhja`cckklllckdf",
"mml`cc`kkcejibhjajkec`k``lc`ha",
"mm``ll``kc`iibjggagcl```klcchh",
"mmkk`ccl`lhiibjgdggdkkll`llljh",
"mmk`cccccfibibjggdgaklcc````hh",
"mmeeeccecbibbjgggggadcl``llchh",
"mmneccecgibhhagdddgaa```lcccaa",
"mmc`k`ckibhjhjagdddgggklcclldd",
"mmkddf`hihjajjadgdddgjd`l``kja",
"mmkfdffibjaggggdggdfgjjk```chh",
"mmc`ffhbhjadddddggdfdgagkk`ega",
"mmelkgbhjjadfdgggdfffdgjfkcnkk",
"mmckkbbhhjagddajgdddddgagkcnkf",
"mmckhibbhhjjddjjgddgggggjfcedh",
"mmc`lec`kkf`eckf`cc`klenc```ah",
"mmccceccl`kleckkl`kfkcnnnlkkjj",
"mmeeeccccccccc``l`kk`cenec``hh",
"mmeeeccccccccckllkkklceeeclkjj",
"mkjgfdgddfkkkfgggjhaddffgjjjgf",
"mhhhgddddfkkkkfgghhjffkkdhjdfk"
};
