/* XPM */
static char *graph_xpm[] = {
/* width height ncolors chars_per_pixel */
"32 32 10 1",
/* colors */
"  c black",
". c cyan",
"X c #008080",
"o c magenta",
"O c #808080",
"+ c #800080",
"@ c white",
"# c yellow",
"$ c None",
"% c #808000",
/* pixels */
"$$$$$$$$$$$   O$$$$$$$$$$$$$$$$$",
"$$$$$$$$$ O#@#O  $$$$$$$$$$$$$$$",
"$$$$$$$$ @#@#@#@ $$$$$$$$$$$$$$$",
"$$$$$$$$  O#@#O  $$$$$$$$$$$$$$$",
"$$$$$$$$ ##   %%  $$$$$$$$$$$$$$",
"$$$$$$$$ ### %%% $  $$$$$$$$$$$$",
"$$$$$$$  ### %%% $$$  $$$$$$$$$$",
"$$$$$  $ ### %%% $$$@@  $$$$$$$$",
"$$$  $$$ ### %%   $$@@@@  $$$$$$",
"$  $$$$$ %##  O.@.O $$@@@@  $$$$",
"$ $$$$$$ %## @.@.@.@ $$$@@@@  $$",
"$ $$$$$$ %%#  O.@.O  $$$@@@@@@ $",
"$ $$$$$$ %%# ..   XX $$$@@@@@@ $",
"$ $$$$$$ %%% ... XXX $$$@@@@@@ $",
"$ $$$$$$ %%% ... XXX $$$@@@@@@ $",
"$ $$$$$$ %%% X.. XX   $$$$@@@@ $",
"$ $$$$$$ %%% X..  +ooo+ $$$$@@ $",
"$ $$$$$$ %%% XX. ooooooo $$$@@ $",
"$ $$$$$$ %%% XX.  +ooo+  $$$@@ $",
"$ $$$$$$ %%% XXX oo   ++ $$$@@ $",
"$ $$$$$$ %%% XXX ooo +++  $$@@ $",
"$ $$$$   %%% XXX ooo +++ O  @@ $",
"$ $$  $@$  % XXX +oo +++ OOO   $",
"$   @$@$@$@  XXX +oo +++ OOO@@ $",
"$ $@$@$@$@$@$  X ++o +++ O$@$  $",
"$$  @$@$@$@$@$@  ++o ++  $@  $$$",
"$$$$  $@$@$@$@$@$  +   @$  $$$$$",
"$$$$$$  @$@$@$@$@$@  $@  $$$$$$$",
"$$$$$$$$  $@$@$@$@$@$  $$$$$$$$$",
"$$$$$$$$$$  @$@$@$@  $$$$$$$$$$$",
"$$$$$$$$$$$$  $@$  $$$$$$$$$$$$$",
"$$$$$$$$$$$$$$   $$$$$$$$$$$$$$$"
};
