/* XPM */
static char *golf3_recol_xpm[] = {
/* width height ncolors chars_per_pixel */
"32 32 9 1",
/* colors */
"  c black",
". c green",
"X c DodgerBlue",
"o c grey",
"O c DarkSlateGrey",
"+ c red",
"@ c NavyBlue",
"# c white",
"$ c yellow",
/* pixels */
"                                ",
"XXXXXXXXXXXXXXXXXXXXXXXXXXXXXXXX",
"XXXXXXXXXXXXXXXXXXXXXXXXXXXXXooX",
"XXXXXXXXoXXXoXXXXXXXXXXXXXXoooXX",
"XXXXXXooooooXXXXXXXXXXXXXXooooXX",
"XXoooooooooooXXXXXXXXXXXXXXoXoXX",
"XXXXXXooooooXXXXXXXXXXXXXXXoXoXX",
"XXXXXXXXXXooXXXXXXXXXXXXXXXoXXXX",
"XXXXXXXXXXXXXXXXXXXXXXXXXXXXXXXX",
"XXXXXXXXXXXXX++++++++++XXXXXXXXX",
"XXXXXXXXXXXXX ++++++++XXXXXXXXXX",
"XXXXXXXXXXXXX +++++++XXXXXXXXXXX",
"XXXXXXXXXXXXX ++++++XXXXXXXXXXXX",
"XXXXXXXXXXXXX +++++XXXXXXXXXXXXX",
"XXXXXXXXXXXXX XXXXXXXXXXXXXXXXXX",
"XXXXXXXXXXXXX XXXXXXXXXXXXXXXXXX",
"XXXXXXXXXXXXX XXXXXXXXXXXXXXXXXX",
"XXXXXXXXXXXXX XXXXXXXXXXXXXXXXXX",
"XXXXXXXXXXXXX XXXXXXXXXXXXXXXXXX",
"XXXXXXXXXXXXX XXXXXXXXXXXXXXXXXX",
"XXXXXXXXXXXXX XXXXXXXXXXXXXXXXXX",
"XXXXXXXXXXXXX ......XXXXXXXXXXXX",
"XXXXXXXXXXXX. .........XXXXXXXXX",
"XXXXXXXXXXX.. .............XXXXX",
"XXXXXXXX..... ........#......XXX",
"@@...XX.....O O......###......XX",
"@..........OOOOO......#.......$$",
"@...........OOO..............$$$",
"@@...........................$$$",
"@@@@........................$$$$",
"@@@@@@.....................$$$$$",
"@@@@@@...................$$$$$$$"
};
