/* XPM */
static char *tetris7_recol_xpm[] = {
/* width height ncolors chars_per_pixel */
"32 32 10 1",
/* colors */
"  c black",
". c LimeGreen",
"X c DodgerBlue",
"o c firebrick",
"O c violet",
"+ c grey",
"@ c purple",
"# c tomato",
"$ c white",
"% c yellow",
/* pixels */
"+++++++++++++++++++$$$$$$$$$$$ +",
"+++++++++++++++++++$#o#o#o#o#o +",
"+++++++++++++++++++$o#o#o#o#o# +",
"+++++++++++++++++++$#o#o#o#o#o +",
"+++++++++++++++++++$o#o#o#o#o# +",
"+++++++++++++++++++$#o#o       +",
"+++++++++++++$$$$$$$o#o# +++++++",
"+++++++++++++$#o#o#o#o#o +++++++",
"+++++++++++++$o#o#o#o#o# +++++++",
"+++++++++++++$#o#o#o#o#o +++++++",
"+++++++++++++$o#o#o#o#o# +++++++",
"+++++++++++++$           +++++++",
"++++++++++++++++++++++++++++++++",
"++++++++++++++++++++++++++++++++",
"+$$$$$ ++++++++++++++++++$$$$$ +",
"+$+%+% ++++++++++++++++++$@O@O +",
"+$%+%+ ++++++++++++++++++$O@O@ +",
"+$+%+% ++++++++++++++++++$@O@O +",
"+$%+%+ ++++++++++++++++++$O@O@ +",
"+$+%+% ++++++++++++++++++$@O@O +",
"+$%+%+ $$$$$ $$$$$$$$$$$ $O@O@ +",
"+$+%+%+%+%+% $X.X.X.X.X. $@O@O +",
"+$%+%+%+%+%+ $.X.X.X.X.X $O@O@ +",
"+$+%+%+%+%+% $X.X.X.X.X. $@O@O +",
"+$%+%+%+%+%+ $.X.X.X.X.X $O@O@ +",
"+$+%+%       $X.X.       $@O@O +",
"+$%+%+ $$$$$$$.X.X $$$$$$$O@O@ +",
"+$+%+% $X.X.X.X.X. $@O@O@O@O@O +",
"+$%+%+ $.X.X.X.X.X $O@O@O@O@O@ +",
"+$+%+% $X.X.X.X.X. $@O@O@O@O@O +",
"+$%+%+ $.X.X.X.X.X $O@O@O@O@O@ +",
"+$     $           $           +"
};
