#define sign_e_width 24
#define sign_e_height 24
static char sign_e_bits[] = {
0x00,0x00,0x00,0x00,0x0a,0x00,0xfc,0xff,0x0f,0x04,0x00,0x30,
0x28,0x49,0x41,0xa4,0x6b,0x30,0x04,0x00,0x0e,0xfc,0xff,0x03,
0x00,0x00,0x00,0x00,0x0a,0x00,0x00,0x0a,0x00,0x00,0x0a,0x00,
0x00,0x0a,0x00,0x00,0x12,0x00,0x00,0x14,0x00,0x00,0x14,0x00,
0x00,0x14,0x00,0x00,0x12,0x00,0x00,0x0a,0x00,0x80,0x0a,0x00,
0x80,0x2a,0x00,0x80,0x24,0x00,0x00,0x19,0x00,0x00,0x09,0x00};
