#define bomb1_width 24
#define bomb1_height 24
static char bomb1_bits[] = {
0x00,0x00,0x00,0x00,0x10,0x00,0x00,0xe4,0x03,0x00,0x10,0x04,
0x00,0x04,0x08,0x00,0x00,0x08,0x00,0x00,0x08,0x00,0x00,0x04,
0x00,0x00,0x04,0x00,0x00,0x02,0x00,0x80,0x01,0x00,0xdf,0x01,
0xc0,0xff,0x00,0xc0,0x7e,0x00,0x60,0xff,0x00,0x60,0xff,0x00,
0xe0,0xff,0x00,0xe0,0xff,0x00,0xe0,0xff,0x00,0xc0,0x7f,0x00,
0xc0,0x7f,0x00,0x00,0x1f,0x00,0x00,0x00,0x00,0x00,0x00,0x00};
