#define chair_width 24
#define chair_height 24
static char chair_bits[] = {
0x00,0x00,0x00,0x00,0x08,0x00,0x00,0x0c,0x00,0x00,0x0e,0x00,
0x00,0x0b,0x00,0xc0,0x0d,0x00,0xc0,0x0a,0x00,0x40,0x09,0x00,
0xc0,0x08,0x00,0x40,0x18,0x00,0x40,0x7c,0x00,0x40,0xfe,0x01,
0x40,0xff,0x03,0xc0,0xff,0x05,0xc0,0xfe,0x06,0x40,0x7b,0x05,
0x40,0xac,0x04,0x40,0x50,0x04,0x40,0x20,0x04,0x40,0x20,0x04,
0x40,0x20,0x00,0x00,0x20,0x00,0x00,0x20,0x00,0x00,0x20,0x00};
