#define shopmat_width 24
#define shopmat_height 24
static char shopmat_bits[] = {
0x00,0x00,0x00,0x00,0x00,0x00,0x00,0x00,0x00,0x00,0x00,0x00,
0x00,0x00,0x00,0x00,0x00,0x00,0x00,0x00,0x00,0x00,0x00,0x00,
0x00,0x00,0x00,0x00,0x00,0x00,0x00,0x00,0x00,0xa0,0xff,0xbf,
0x50,0x00,0x50,0xa8,0xe7,0x28,0x54,0x8c,0x14,0xca,0x79,0x0a,
0x05,0x00,0x05,0xfe,0xff,0x02,0x00,0x00,0x00,0x00,0x00,0x00,
0x00,0x00,0x00,0x00,0x00,0x00,0x00,0x00,0x00,0x00,0x00,0x00};
