#define potionint_width 24
#define potionint_height 24
static char potionint_bits[] = {
0x00,0x00,0x00,0x00,0x00,0x00,0x00,0x00,0x00,0x00,0x00,0x00,
0x00,0x00,0x00,0x00,0x3c,0x00,0x00,0x3c,0x00,0x00,0x3c,0x00,
0x00,0x3c,0x00,0x00,0x3c,0x00,0x00,0x3c,0x00,0x00,0x7a,0x00,
0x00,0xfd,0x00,0x80,0xfc,0x01,0x80,0x06,0x01,0x40,0xde,0x03,
0x40,0xde,0x03,0x40,0xde,0x03,0x40,0x06,0x03,0x80,0xfe,0x01,
0x80,0xfc,0x01,0x00,0xff,0x00,0x00,0x3c,0x00,0x00,0x00,0x00};
