#define Darkblade1_width 24
#define Darkblade1_height 24
static char Darkblade1_bits[] = {
0x00,0x00,0x00,0x00,0x00,0x00,0x00,0x00,0x30,0x00,0x00,0x28,
0x00,0x00,0x14,0x00,0x00,0x0a,0x00,0x00,0x05,0x00,0x80,0x02,
0x00,0x40,0x01,0x00,0xa0,0x00,0x00,0x50,0x00,0x00,0x28,0x00,
0x00,0x16,0x00,0x18,0x0a,0x00,0x18,0x0d,0x00,0xf0,0x02,0x00,
0x50,0x01,0x00,0xe0,0x00,0x00,0x50,0x01,0x00,0xb8,0x07,0x00,
0x1a,0x06,0x00,0x06,0x00,0x00,0x0e,0x00,0x00,0x00,0x00,0x00};
