/* XPM */
static char *dragonfly_recol_xpm[] = {
/* width height ncolors chars_per_pixel */
"64 64 7 1",
/* colors */
"  c black",
". c lavender",
"X c gainsboro",
"o c grey",
"O c DarkSlateGrey",
"+ c white",
"@ c SlateGrey",
/* pixels */
"++++++++++++++++++++++++++++++++++++++++++++++++++++++++++++++++",
"++++++++++++++++++++++++++++++++++++++++++++++++++++++++++++++++",
"++++++++++++++++++++++++++++++++++++++++++++++++++++++++++++++++",
"++++++++++++++++++++++++++++++++++++++++++++++++++++++++++++++++",
"++++++++++++++++++++++++++++++++++++++++++++++++++++++++++++++++",
"++++++++++++++++++++++++++++++++++++++++++++++++++++++++++++++++",
"++++++++++++++++++++++++++++++++++++++++++++++++++++++++++++++++",
"++++++++++++++++++++++++++++++++++++++++++++++++++++++++++++++++",
"++++++++++++++++++++++++++++++++++++++++++++++++++++++++++++++++",
"++++++++++++++++++++++++++++++++++++++++++++++++++++++++++++++++",
"+++++++++++++++++++++++++++++++++++++++X++++++++++++++++++++++++",
"++++++++++++++++++++++++++++++++++++++@O@+++++++++++++++++++++++",
"++++++++++++++++++++++++++++++++++++++@@@+++++++++++++++++++++++",
"+++++++++++++++++++++++++++++++++++++.O o+++++++++++++++++++++++",
"+++++++++++++++++++++++++++++++++++++o  X+++++++++++++++++++++++",
"+++++++++++++++++++++++++++++++++++++@  ++++++++++++++++++++++++",
"+++++++++++++++++++++++++++++++++++++O O++++++++++++++++++++++++",
"++++++++++++++++++++++++++++++++++++X  @++++++++++++++++++++++++",
"++++++++++++++++++++++++++++++++++++o  @++++++++++++++++++++++++",
"++++++++++++++++++++++++++++++++++++@  X++++++++++++++++++++++++",
"++++++++++++++++++++++++++++++++++++O O+++++++++++++++++++++++++",
"+++++++++++++++++++++++++++++++++++X  @+++++++++++++++++++++++++",
"+++++++++++++++++++++++++++++++++++oO @+++++++++++++++++++++++++",
"+++++++++++++++++++++++++++++++++++@ Oo+++++++++++++++++++++++++",
"+++++++++++++++++++++++++++++++++++  OX+++++++++++++++++++++++++",
"++++++++ooooooooX+++++++++++++++++. O ++++++++++++++++++++++++++",
"+++++++@oX@X@X@X@@ooooo+++++++++++o  @++++++++++++++++++++++++++",
"+++++++.@@@@@@oX@XoXoXo@@oX+++++++o  o++++++++++++++++++++++++++",
"++++++++o@ooX@@@oXoXoo@Xooo@o.++++@ O.++++++++++++++++++++++++++",
"+++++++++XO@.@X@@@oX.@@X@o@oX@o+++O O+++++++++++++++++++++++++++",
"+++++++++++@OOXoXO@.oXOX@oo@.@o@X+  @+++++++++++++++++++++++++++",
"++++++++++++XOOOXX@ooXo@@oX@oo.oooO o+XXoXoX.+++++++++++++++++++",
"++++++++++++++oOOooo@.@X@OXooOXooOOOo@@XoXoX@@@oo.++++++++++++++",
"+++++++++++X++++oO @@@XoX@OoX.o@@@ @o@XooX@@o@@ooo@+++++++++++++",
"+++++o@o@oo@o@ooo@@O OOOX@X@O+Xo@O OO@X@o@oXo@X@o@X@@ooo.+++++++",
"+++o@.@+Xo.X@@XoooX@@@  OO@o@@XoO  @o@ooXX.XOoo@@.X@X@Xo@@X+++++",
"++@o@o@O@o@X.o@@@X@@oXoOOOOOO@@@   O@X+X@.@OO@@XX.X@oo@@X@o@.+++",
"+o@@oooo@o@@@o+.X@@@@oooo@O @@OOO OOXo@@o@@o.@o.oX@@@O@@Ooo@oo++",
"++@OO@@@@@oOoo@@o@oo@@@@Xo@@OOo    OO@@@o@oXoo+@o@@oXoXooo@@@@++",
"++++X@@oOOOOOO@@o@@O@@o@@@oo@OOO   O@@O@O@OO@@@@ooX+oXo@X@o@@o++",
"++++++++++++XX@@OOOOOO@@@@@@@XO  OOOOO  OOO  OO  OO OO OO@oo++++",
"++++++++++++++++++Xo@OOO@OO@o@ O   O@o@@@ooooX@@o@@o++++++++++++",
"++++++++++++++++++++++.@@OO@@O@OO O@@@oo@X@o.oooooX@o.++++++++++",
"++++++++++++++++++++++++++XX@@@@OOO@@@@@@@o@@@@OXX@XX@oX++++++++",
"+++++++++++++++++++++++++++++o.XooOO@@O O@@o@o@o@@@@O@oo@X++++++",
"+++++++++++++++++++++++++++++oooXXo+oOOOO@@O@O@@oX..XX.XX@@+++++",
"++++++++++++++++++++++++++++++@@@@+++++.o@@O O@@@@@ooo@o@XX@X+++",
"++++++++++++++++++++++++++++++.oo++++++++++++X@O O@@oX@@@@oooX++",
"+++++++++++++++++++++++++++++++++++++++++++++++++o@ OOo@@o@oo@++",
"++++++++++++++++++++++++++++++++++++++++++++++++++++o@O@@@Xoooo+",
"+++++++++++++++++++++++++++++++++++++++++++++++++++++++o@O@o@o@+",
"++++++++++++++++++++++++++++++++++++++++++++++++++++++++++o@@Oo+",
"++++++++++++++++++++++++++++++++++++++++++++++++++++++++++++++++",
"++++++++++++++++++++++++++++++++++++++++++++++++++++++++++++++++",
"++++++++++++++++++++++++++++++++++++++++++++++++++++++++++++++++",
"++++++++++++++++++++++++++++++++++++++++++++++++++++++++++++++++",
"++++++++++++++++++++++++++++++++++++++++++++++++++++++++++++++++",
"++++++++++++++++++++++++++++++++++++++++++++++++++++++++++++++++",
"++++++++++++++++++++++++++++++++++++++++++++++++++++++++++++++++",
"++++++++++++++++++++++++++++++++++++++++++++++++++++++++++++++++",
"++++++++++++++++++++++++++++++++++++++++++++++++++++++++++++++++",
"++++++++++++++++++++++++++++++++++++++++++++++++++++++++++++++++",
"++++++++++++++++++++++++++++++++++++++++++++++++++++++++++++++++",
"++++++++++++++++++++++++++++++++++++++++++++++++++++++++++++++++"
};
