/* XPM */
static char *taz_recol_xpm[] = {
/* width height ncolors chars_per_pixel */
"64 64 10 1",
/* colors */
"  c black",
". c green",
"X c wheat",
"o c firebrick",
"O c SkyBlue",
"+ c grey",
"@ c sienna",
"# c DarkSlateGrey",
"$ c red",
"% c white",
/* pixels */
"OOOOOOOOOOOOOOOOO    OOOOOO OOOOO     OOOOO  OOOOOOOOOOOOOOOOOOO",
"O%%...$.%%O%OOOOO @ OO  OO  O     @@@  OOOO @  OOOOOO%O%OOOOOOOO",
"O%..$......%O%O   @ O         @@ @@@@@   OO @@ OO%O%O%OOO%%OO%%O",
"O$....$..$%OOOO @@ @  @@ @@ @@@@@@@@@@     @@  OOO%O%%%OOO%O%OOO",
"O.....$.....OOO @@@ @@@@ @@@@@@@@ @@@@@ @@ @@ OOOO%%O%O%%OO%%OOO",
"...$..$...$.%O%   @@@@@@@@@ @@@@@@ @@@@@ @ @ OOOOOO%O%O%%OOO%%OO",
"..$.....$.....OOO @@@@ @@@@@   @@ @ @@@  @@@  OOOOO%%%%O%%%%OOOO",
".$...$.o..$...OOO@@@@@@  @@@@@@ @ @@   @@@@  OOOOOO%OOOOOOOOO%OO",
"...o..$.o.....OOO@@@@@@@@ @@@@@@  @@@@@@@@    OOO%O%%%%%%O%%%%OO",
".$o.oo.o.o..$..  @@@@@@@@@@@@@@@@@@@@@     @@ OOOOOO%%%%OO%OO%OO",
"...o....$......O  @ @@@@@@@@@@@@@@@@@@   @@@@ OOOOOOOOOOOOOOOOOO",
".$.o.ooo##  ..$O           @ @@@@@@@@@@@@@@     OOOOOOOOOOOOOOOO",
".$.o.oo.@ @@  O              @@@@@@@     @@     OOOOOOOOOOOOOOOO",
"OOOooooO @@@@  O               @@            OOOO    OOOOOOOOOOO",
"OOOooooOO @XX@@ @@@  %%%%%      @         @@ OO  @@@ OOOOOOOOOOO",
"OOOooooO @XXX@@ @@@  %%%%%%%%   @   %%%%%  @@ O @XX@ OOOOOOOOOOO",
"OOOooooO  @XX@@ @@@  %%%    %%    %%    %  @@  @@XXX@ OOOOOOOOOO",
"OOo       @@@@@@@@@  %%%%   %%    %%   %%  @@ @@XXXX@ OO  @  OOO",
"OO  @ @@ @ @@@  @@@   %%%%%%%      %%%%%  @@@@ @@@@@ O  @@@@@ OO",
"OO  @@@@@@         @@                    @@@@@@ @@@@@   @ @@@@@O",
"OO@@ @@ @@ XXXX      XXXXX  XXXXXXXX  @@@           @@@@@ @@ @ O",
"O      @  XXXXXXXX  XXXXXXXXX      XXX@        XXXX    @@@ @ @@@",
"@@  @@@@  XXXXXXXXXXXXXXXXXX         X  XXXXXXXXXXXXXXX  @@@@@@ ",
"   @@@@@@@XXXXXXXXX   XXXXX      %    XXXXXXXXXXXXXXXX X  @ @ @@",
"  @@@@@@  XXXXXXX   XXXXXXXX      %  XXXXXXXXXXXXXXXXXX  @@ @@@ ",
"@@@@ @   XXXXXXXXX  XXXXXXXXX       XXXXXXX      XXXXXXX @  @@@@",
"@@   @@  XXXXXXXXX     XXXXXXX     XXXXXXXX  X    XXXXX  @@@@ @@",
"@@@@@@@@   XXXXXXX X XXXXXXXXXXXXXXXXXXXXXXXXX  X XXXX X   @@@@%",
"@@  @ @@XXXXXXX     XXXXXXXXXXXXXXXXXXXXXXXX X  XXXXXX X @ @ @@@",
" @ @ @@ @ XXXX  XXX      XXXXXXXXXXXXXXXXXXX     XXXXXXX @ @@@@@",
"@@ @@@@ @ XXXX XXXXX      XXXXXX  XXXXXXXXXXXX  X   XXXX   @@@@@",
"@  @ @@@  XXXXXXXXXX      XXXXX       XXXXX     XXX XXXXXX @@@@ ",
"@@@ @@@   XXXXXXXXX  XXX  XXXXX                 XXXXXXXX@@ @@@@ ",
"   @@@@ X  XXXXXXXX XXXX         XXX         X X XXXXXX @@ @  @ ",
"   @ @@ @@  XXXXXXX XXXX       XXXXXXXXXXXXXX XX XXXXXX@@  @@ @ ",
" @ @    @@@   XXXXX XXXXXXXXXXXXXXXXXXXXXXXXX  XXXXXXXX @ + @ @ ",
"@@@@ +++ @@@@ XXXXXX XXXXXXXXXXXXXXXXXXXXXXXXX XXXXXXXX @ + @ @ ",
"@@   ++@@@ @@ XXXXXXXX XXXXXXXXXXXXXXXXXXXXXXX XXXXXXX @@ + @@@ ",
" @  +++  @ @@ XXXXXXXXXXXXXXXXXXXXXXXXXXXXXX X XXXXXXX @ ++ @@@ ",
" @@ ++++@@@@@@XXXXXXXXXXXXXXXXXXXXXXXXXXXXXX XXXXXXXX @@ ++ @@@ ",
"@ @+++++  @@@@XXXXXXXXXXXXXXXXXXXXXXXXXXXXX XXXXXXXXX @@ ++ @@@ ",
"@@@+++++@ @@@@ XXXXXXXXXXXXXXXXXXXXXXXX X  XXXXXXXXXX@@@ +++@@  ",
"@@  ++++ @@@@@  XXXXXXXXXXXXXXXXXXXXXXXXXXXXXXXXXXXX @@@ +++ @ @",
"@  ++++++ @@@@@ XXXXXXXXXXXXXXXXXXXXXXXXXXXXXXXXXXXX @@  +++ @ @",
"   ++++++ @ @@@ XXXXXXXXXXXXXXXXXXXXXXXXXXXXXXXXXXX  @@  +++ @@@",
"  +++++++ @ @@@ XXXXXXXXXXXXXXXXXXXXXXXXXXXXXXXXXXX@@@@  +++ @@@",
" +++++++++@  @@ XXXXXXXXXXXXXXXXXXXXXXXXXXXXXXXXXXX @@@ +++++ @@",
"++++++++++@@@@@  XXXXXXXXXXXXXXXXXXXXXXXXXXXXXXXXX @@@   ++++ @@",
"++++++++++ @@@@  XXXXXXXXXXXXXXXXXXXXXXXXXXXXXXXXX @@@  +++++ @@",
"+++++++++++ @@@ X XXXXXXXXXXXXXXXXXXXXXXXXXXXXXXXX @@@  ++++++  ",
"+++++++++++  @@@@@ XXXXXXXXXXXXXXXXXXXXXXXXXXXXXX @@@ ++++++++++",
"+++++++++++@@@@ @@ XXXXXXXXXXXXXXXXXXXXXXXXXXXXXX @@@ ++++++++++",
"+++++++++++@@@@@@@ XXXXXXXXXXXXXXXXXXXXXXXXXXXXXX@@@@ ++++++++++",
"+++++++++++  @@@@  XXXXXXXXXXXXXXXXXXXXXXXXXXXXXX @@@ ++++++++++",
"++++++++++++ @@@@@ XXXXXXXXXXXXXXXXXXXXXXXXXXXXXX @@  ++++++++++",
"++++++++++++ @@@@@ XXXXXXXXXXXXXXXXXXXXXXXXXXXXX @@@ +++++++.++.",
"++++++++++++ @@@@@ XXXXXXXXXXXXXXXXXXXXXXXXXXXXX @@@ ++++++.....",
"+++++++++++++ @@@@ XXXXXXXXXXXXXXXXXXXXXXXXXXXXX @@@ +++++.$$.$.",
"+++++++++++++  @@@ XXXXXXXXXXXXXXXXXXXXXXXXXXXX @@@@ ++++.......",
"++++++++++++++ @@@  XXXXXXXXXXXXXXXXXXXXXXXXXXX @@@@ ++++..$.$..",
"+++++++++++++   @@@  XXXXXXXXXXXXXXXXXXXXXXXXX  @@@ ++++.$....$.",
"+++++++++++++++ @@@ XXXXXXXXXXXXXXXXXXXXXXXXXX @@@@ ++++...$....",
"++++++++++++++      XXXXXXXXXXXXXXXXXXXXXXXXXX  @@  ++++.$.$$.$.",
"++++++++++++++      XXXXXXXXXXXXXXXXXXXXXXXXXX     ++++++..$...."
};
