/* XPM */
static char *echer_hands.xpm[] = {
"81 80 11 1",
" 	c grey54",
".	c #717171717171",
"X	c #585858585858",
"o	c #414141414141",
"O	c grey63",
"+	c #B9B9B9B9B9B9",
"@	c grey16",
"#	c grey7",
"$	c #D0D0D0D0D0D0",
"%	c #ECECECECECEC",
"&	c grey40",
"      .. ......      . .. .       .  ..X.X .   . ... .... .. .....XX..X....X.XXoX",
"    ... . ....      . . ..        .X .XX.X.. . ....X. X..X. ..... .ooX X..XXXXXXX",
"    . XX.XXX........XoX. .       ..  ..X.. .     ....X XX..X  .XXX.OO .X.XX.XXXXX",
"   ..X X.XXXXXX ....XooX ..  .   ..oXX.X... .... .X.X.XX..X.ooX +++ O  XX.XX.XXXo",
"  ......XXXXX.X...XXo@oX... .  . .X.@#oX. ... X.X..X....XooX ++++OXXX X.X..XXXXXX",
"... X.X.XXXXXXXXXXXXo@oXXXX....X.XX .@XX.XX..XXooooooo@o. ++++++++o.oX..XXXXXXoXX",
". X.XX.XXXXXXXXXXXXoo@ooXXXXX.X.XX  ooX.X.Xoo@@@@@@@oXO++++++O++OO X. XXXXXXXXXXX",
"X...XX.XXoXoXXXXXXoXo@@oXXoooooo@o .@@@@@@@@o@o@@@@o.  .   O++O   O+O  XXXXX.XXXX",
"...X.XXXXXXXXXXXoooo@@@@@@@@@@@oo. ooXXXX....   O OOO  .O+OO    OOO  .XXXX..XXXXX",
"....X..XXXXXoXooo@@@@##@#@@@ooooX X@XoXXXXXXX. OOO+O++O  OO++OOOO+OO+O oX.XXXXXXo",
"...XXXX.XXoXXXoo@#@##@@@@@ooo@Xo  @XXXXX.XXXX   OOO+OOO . OOOOOOOOOO+O XXXXXX.XXo",
"X ....X.XXXXXo@@#@#@o@@@@@oooXXX XooXXXXXXX..  OOOOOOOO    OOO OOOOOO+ XoXXXXoXXo",
"..X.X....XXoo@@##@oo@o@o@@@ooXoXXoX   .    .  OOOOOO+OO .    OOOOOOO+O XoXXXXXoXX",
"  .....XXXoo@@#@@o@@oooXo@#@o.o..oX..       OOOOOO+OOOO .     OOOOOOOO .ooXXoXXoo",
"X .X.XXXXXo@@##oo@@@ooo@@@@@oX..oX         OOOOOOOO+O+O X..  OOOOO OOOO.oXoXoXooo",
" ...XXX.Xoo@##oo@@oo@@@ooo@@@X @  .    O  O   OO+OOO+OO X .  OOOOOOOOO .oooXXoooo",
". ...X.XXo@@##oo@o@@@@oXXXX#o Xo...   O  O    O+O+OO+O  X . +O OO O OOO ooXoooooo",
"....X.X.X@@###Xoo@@@@X..  X@. @         O     OO+O+OOO ..  OOOOOOOO OO  o@oXoXXXo",
"....X..Xo@@###oo@o@@ooXX..oo X.   O    OO   OOO+O+O+OO X. OOOOOOOOOOOOO ooXoXoooo",
". ..XX.X@@##@@ooo@o@oXX  .o. o O O  OOO  O OOOOO++O+O  X OO+OOO OOOOO+  XoXXXXoXo",
"... .Xo@o@@#@o@ooooXX.   Xo X  O OO OO OO  OO+O+++O+OO   O OO+OOOOOO+OO XXoXXXXoo",
" .Xo@X  o@#@o@oooooX   Xoo .o    O +OOOOOO+++O+OO+O+OO   OOOOOOO OOOO+  XXoXoooXo",
"XXX +++ o@@#ooXooo.  O .oX o..XX..  OOO O++O++O+O+OOO   +OOOO+OOOOOOOOO XXooXXooX",
" +$+++OX@@@#oXoooX OO .Xo .oXX.XX..     O+OO+O      .  ++OOO+O+OOOOOOOO  XooXooXo",
"+. $++ o@@#@Xooo. +O  XX. oXoooXXX. OOO+OOOOO +++OOO O.+++OOO+O+O+ OOOO  .ooooooo",
"X XO++.o@@@@oXoX OO X.XoO X.ooXooX.O+OOOO O O++OOOO+ + ++++++O++OO+OO+O   XoooooX",
" XXO++Xo@@@oooX OOO oo@  ooXXXX.X.O+++    O ++++OO++O+ +++O+O++O+OOOOOO..XXooooXX",
"+OO++OXo@@#ooX OO  X@oXO.@@oooXX. O++O .. O$++OOO+O+O+ +++O+++O+OO+O+OO   .XoXXXo",
"$$$$++Xo@@@oo OO .XooX  Xo@@@X. O++$+  .. $++++O++++++O++++++O+OOOOOOO     XoXo.X",
"+$$+$+.o@@@oXO XoooX .OX oo@@o  +++++  XO$$+++O+++$++$ ++++++++OO+O+OO    ..oXoXX",
"O$$+$+.oo@@XXO oX.@ OX XOXo@oX +O+$+ . $$$$++O+++$+$O$O++++O++O+O++O+O     XXoXoo",
" $$$++ o@@@o.OO.XX@X  X Oo@oX  +++$O  $+$$+++O++$$$+++++++++++O++O+OOO OO  .oXoXX",
"X+$$$+ Xo@@o.OOXXooX+. O oXX +OOOO+O.+$$$++++++$$$$$OO+++++++OO+++O+O .O O .XXXXX",
"o+$$+$ Xo@@o.O XXo@OOXXXoX  ++O  X. +$$$++++++$$$$$$+O$+++$+OX   X O o  OO  XoXoX",
"X +$$++Xo@@o.O o.oX$ ooXX ++++O .X $$$$$+++++$$$$$$$O+++$+++.XO X.. oo OOO  .XXXX",
" o+++++.@@@o.O.Xo@OOXoX.  +++ O X+$$$$$+++++$$$$$$$$+O$+++$+oX  XX. @o.OO   .XXXX",
" X+$$+++Xo@o.  oooO.X.X. OO  O  $$$$$$$++++$$$$%$$$$+OX +++OoX. .X X@. OOO  .XXXX",
" X +$$$+ o@@X  oo XX XXXX O ..O$$$$%$$++$+$$$$$$$$$$+.X     oX O.X  o       ..oXo",
"O.X$$$$$+oo@o. oX X.XX...o.X $+$+$$$$$+++$$$$%$$$$$++oX O OXoX  XX  X   OOO  .XXX",
"  o++++$+.@@@X.o. o    +$++++$$$$$$$$+$+$$$$$$$$$$$$ @ooO  ooo  .X O. XX O+O  XXo",
"O X $++++ o@@X.o. o O+++$++$$++$$+$$+$+$$$$%$$%$$$++ @oX  X@@o O X  ..oX OOO  XXX",
"OOXX$$$+++.o@X XOX o$+$$$+$$$$$+$+$$$+$$$$$$$$$$$$$OX@oX  o@oo   X.  X@X.OOO  XXX",
"OO @$$$$+++.@oX  X +$$++ +$$$$$$++$+$+$$$$%$$$$$$$OXo@oXX  @@..  X.  .@X  +OO  XX",
"OOOoO$$++++O.@.O+$$$$$$+O$$$$%$$$O+$$$$$%$$$$$$$$+.X@@@XX  oo O .XX O.X..OOOO  XX",
"+OOX.$$$$+++.o +$$$$$$$$$$$$%$$$++$+$$$$$%$$$$$$O.oo@@oXoX Xo.OO oX. .o.  +OO  XX",
"O+O.o$$$$$+$ X+$$$$$$$$$$$$$$$$$$++$$%$%$$$$$$+O.oo@@@@o  .XoXO+ oX   @XX OOO  .X",
"OOOOo+$$$$$+ +$$$$$$$$$$$$%$%$$$++$$$$%$$%$$$+ XXo@@@ooX O..oX O @o.. oX OOOOO .X",
"OO+Oo $$$$$$++$$$$$$$$$$$$$$$$$+++$$%$%$%$$$+ XXo@@oXX. O.oXo  +XoX.  X.OOOOOOO .",
"O+ +XX$+$$$$+$$$$$$$$$$$$$$%$$$+++$$%$$%$$$O Xoo@oXXoX   X XX +Oooo OOX  +++O+O  ",
"+O+O @$$$$$++$$$$$$$%$$$$$$$$$++++$%$%$%$$+ oXooXXXXXX.. O+ X +Ooo. OOo  +O++O+O ",
"++OO o $+$++$$$$$$$$$$$$$%$$$$+O$+$$%$%$$$ Xoo@oooX   . +O  .  .oo OOXX  ++O++O+ ",
"OO+OOXX$$+++$$$$$$%$$$$$$$$$$++OO$$$$$$$$OXo@@ooo.      OO Xoo.oX.O+ o.  +++O+OO ",
"OO+O .o+$$++$$$$$$$$$$$$$$$$+$+$$$$$%$$$+ X@@ooXX OOO  OO XXXX.oX. +XoX  O+++O+X.",
"OOOOO.oO$+$+$$$$$$$$$$$$$$$+$++$$$$+$$$$OXo@oooXOO++OO OO .  O.o.   oX.. +OOOOOXX",
"OOOO  oX$$+$$$$$$$$$$$$$$$+$+$+$$$$$$++ .@@@oo. OO++OOOOO OO+OXXX .oXX  OOOOOOO X",
"OOOO  Xo$++$$$$$$$$$$$$$$+$+$+$$%$$$$$++oo@o@X  ++++++OOOOO+  ooooooX . OOOO   XX",
"OOOOO  @ $$$$$$$$$$$$$$$$+++$+$$$$$$$$++ o@oX.O+O+++++OOOO+ O XX@o@X  .OOOO .XX..",
"OO O   o.++$$$$$$$$$$$$$+++$$+$$$$$$$$+++oXX O++++O+++++OOOOO  X.Xo   .  XXXX.XXX",
"O OOO O.o$$$$$$$$$$$%$$++++++$$$$$$$$+$O+   O++++O+++++O+++   OO oo .XXXoXX.X.XX.",
"O+OOO O oO$$$$$$$$$$$$$++++$$$$$$$$$$$++OO +OO+O++++++OO++ +O+ Xooo.ooXXXX.X.XX.X",
"OOOOO  OX +$$$$$$$$$$$++++$$+$$$$$+$$+$+O++++ ++++++++++OOOO   .ooXXXXXXXX.X..X.X",
"OOOOO OO.o$$$$$$$$$$$$+++$$$+$$$$$$$$+$+++O+ O++++++++OOOOO    .o@ooXXXoXX..XXXXX",
"OOOOO  O o+++$$$$$$$$++++$+$+$$$$$$$$+++++$+$+$+$+$++OO+O+O +OOO.XoXXXXoXXXXXXXXX",
" OOO+ O Oo $+++$$$$$$+++$+$+$$$$$$$+$$+$+$+++$+$++++++O+OOOOOOO  XoXXXoXXXXXXXXXX",
" O OO OOOX.$$$$$+++$+++$+$$+$$$$$$+$+++$+$++++$+++++++OO      .XXXX.XXXoXXXXXoXXX",
"O  O  OO  o$$$$$$$++OOO+$$+++$$+$$$$++++++$++++++++O O     ..XXXoXXXXXXXXXXXoXXXX",
"O OOOO OO oO$$$$$$$$+++O++$O$$$$$$++$$+$++++++++++OOO    XXooX..o XXXXXXXXXXXXoXo",
" O OO O OOX $$$$$$$++$+$++OOO+$+$+$+++$+$+++O+++OO+ O  Xooo@@X.Xo  XX.XXXXXXXXXoX",
"        O XX$$$$$$$+$+$++$$+$$+++++++O++++++++O+O   X.XXXXo@o. XoXXXXXXXXXXXXoXXo",
"       O   @$$$$$$$$$+++$+$$$+$++  X  OO++++O ..X     ...XX@o..XoXX.XXXXXXXXoooXo",
"        OO X $$$$$+$+$+$$+$+$$++O  . ..... ..X..  .  ....Xo@X  oXXXXXXXX.XXXXoXoo",
".      O   ..$$+$+$$$+$+$$$$++OO .          . .       . .Xoo.  o.XXX..XXXXXXXXoXo",
"   O   O    o$ . +$$$+++++++OOO    O O O    ...        ..Xoo . o.oXXXXXXXXXXXooXX",
" O  O OO O  X+.  O$$++++++OOOO OO OOO OO                 X@X   o.XXXXX.XX.XXXXXoX",
"O  O O  O     O. +++++O   OOOO+OO O +OO  O   .          .XoX   o.XXX.XXXXX.XXXXXo",
"   OO  O O  O.$$++++     O O+ OOO+++OOOO            OO  .Xo.   X.XXX.XXXXXXXXXXXo",
"O  OOO OOO    ++OOOOOOOO+OOOO+++++OOO+OO+ O O  O  O O OO...   XXX.XXXXXXXXXXXXXXo",
"                 OOO+ OOOOO++OO+O+OO++O+OOOO OOOOOOO OO       .X@oXXXX.XX.XXXXXXo",
"         O O    O + OOO+O++OO$+O+O+OO++O++OOOO+ OOOO O         X.XXX. ..X  .. .  ",
"&&&&&&&&&&&&&&&&&&&&&&&&&&&&&&&&&&&&&&&&&&&&&&&&&&&&&&&&&&&&&&&&&&&&&&&&&&&&&&&&&"};
