#define noname_width 16
#define noname_height 16
static char noname_bits[] = {
 0xff,0xff,0x1f,0xff,0x1f,0xff,0x1f,0xc7,0xbf,0xc7,0x07,0xec,0x0b,0xea,0x1d,
 0xe7,0xbb,0xef,0x17,0xff,0x1f,0xff,0x4f,0xfe,0xef,0xfe,0xef,0xfe,0xe7,0xfc,
 0xff,0xff};
