#define land_sea_2_width 16
#define land_sea_2_height 16
static char land_sea_2_bits[] = {
   0xff, 0x0f, 0xf0, 0xff, 0x0f, 0xfc, 0xff, 0xf3, 0xff, 0x0f, 0xf0, 0xff,
   0x8f, 0xff, 0x7f, 0xf0, 0xff, 0x0f, 0xf0, 0xff, 0x0f, 0xfc, 0xff, 0xf3,
   0xff, 0x0f, 0xf0, 0xff, 0x8f, 0xff, 0x7f, 0xf0};
