#define noname_width 16
#define noname_height 16
static char noname_bits[] = {
 0xff,0xff,0xff,0xff,0xff,0xff,0xff,0xff,0x0f,0xe0,0x07,0xf0,0x03,0xc8,0xfb,
 0xc7,0x63,0xc4,0x63,0xc4,0x03,0xc4,0x03,0xc4,0x03,0xe4,0x03,0xfc,0xff,0xff,
 0xff,0xff};
