#define noname_width 16
#define noname_height 16
static char noname_bits[] = {
 0xff,0xff,0xff,0xff,0x1f,0xf8,0x9f,0xf9,0x1f,0xff,0x1f,0xfe,0x1f,0xfc,0x5f,
 0xfd,0x0f,0xf8,0x07,0xf0,0xc7,0xf1,0x13,0xe4,0x19,0xcc,0x9f,0xfc,0x9f,0xf9,
 0x8f,0xe3};
