#define noname_width 16
#define noname_height 16
static char noname_bits[] = {
 0xff,0xff,0xff,0xff,0xff,0xff,0xff,0xff,0x77,0xee,0x23,0xc4,0x41,0x82,0x01,
 0x80,0xb1,0x8d,0xb9,0x9d,0xfd,0xbf,0xfd,0xbf,0xff,0xff,0xff,0xff,0xff,0xff,
 0xff,0xff};
