#define noname_width 70
#define noname_height 61
static char noname_bits[] = {
 0x00,0x00,0x00,0x00,0x01,0x00,0x00,0x00,0x00,0x00,0x00,0x00,0x00,0x1f,0x00,
 0x1c,0x00,0x00,0x80,0x00,0x00,0x00,0xf2,0x01,0x0a,0x38,0x00,0x80,0x01,0x00,
 0x00,0x02,0xee,0x05,0xc8,0x00,0x80,0x07,0x00,0x00,0x02,0x30,0x05,0x08,0x01,
 0x80,0x18,0x00,0x00,0x02,0x18,0x02,0x08,0x02,0x00,0x31,0x00,0x03,0x06,0x08,
 0x02,0x08,0x02,0x00,0x21,0x80,0x03,0x0c,0x84,0x03,0x08,0x04,0x00,0xe1,0x60,
 0x01,0x08,0x82,0x01,0x08,0x04,0x00,0xc1,0x19,0x01,0x10,0x42,0x0e,0x04,0x04,
 0x00,0x4f,0x8f,0x01,0x30,0x21,0xd8,0x03,0x04,0x00,0x32,0x82,0x00,0xe0,0x11,
 0x00,0x00,0x08,0xe0,0x08,0x82,0x00,0xe0,0x18,0x00,0x00,0x08,0x58,0x08,0x84,
 0x00,0x40,0x08,0x00,0x00,0x08,0x48,0x08,0x84,0x00,0x20,0x04,0x00,0x00,0x08,
 0x4c,0x18,0xc8,0x00,0x20,0x04,0x00,0x00,0x00,0x46,0x18,0x50,0x00,0x20,0x02,
 0x00,0x00,0x08,0x42,0x3c,0x70,0x00,0x70,0x02,0x00,0x00,0x08,0x82,0x4f,0x60,
 0x00,0xf0,0x0f,0x00,0x00,0x08,0x02,0x80,0x41,0x00,0xf8,0x35,0x00,0x00,0x00,
 0x03,0x00,0xc3,0x00,0xfc,0x40,0x00,0x00,0x08,0x01,0x00,0x86,0x01,0xff,0x80,
 0x00,0x00,0x04,0x01,0x00,0xcc,0x83,0x7f,0x00,0x01,0x00,0x04,0x01,0x00,0xf0,
 0x87,0x3f,0x00,0x01,0x00,0x04,0x01,0x00,0xf0,0xcf,0x1f,0x00,0x03,0x00,0x04,
 0x01,0x00,0x98,0xdf,0x1f,0x00,0x02,0x00,0x02,0x02,0x00,0x08,0xbf,0x0f,0x00,
 0x02,0x00,0x02,0x02,0x00,0x08,0x7c,0x07,0x00,0x02,0x00,0x01,0x02,0x00,0x10,
 0xfc,0x02,0x00,0x02,0x80,0x00,0x04,0x00,0x10,0xf8,0x01,0x00,0x01,0x40,0x00,
 0x04,0x00,0x30,0xf6,0x03,0x00,0x01,0x60,0x00,0x08,0x00,0x60,0xef,0x0f,0x80,
 0x01,0x30,0x00,0x30,0x00,0xc0,0xdf,0x3f,0x60,0x00,0x18,0x00,0x60,0x00,0x00,
 0xbf,0x3f,0x18,0x00,0x0e,0x00,0x40,0x00,0x00,0x7c,0xff,0xf0,0xff,0x03,0x00,
 0xc0,0x01,0x00,0xf0,0xff,0x01,0x00,0x00,0x00,0x00,0x07,0x00,0x80,0xff,0x03,
 0x00,0x00,0x00,0x00,0x1c,0x00,0xe0,0xf8,0x07,0x00,0x00,0x00,0x00,0xf0,0x00,
 0x38,0xe0,0x1f,0x00,0x00,0x00,0x00,0x00,0x07,0x0f,0x80,0x3f,0x00,0x00,0x00,
 0x00,0x80,0xff,0x00,0x00,0x7f,0x00,0x00,0x00,0x00,0xc0,0x1f,0x00,0x00,0xfe,
 0x01,0x00,0x00,0x00,0xe0,0x1f,0x00,0x00,0xfc,0x03,0x00,0x00,0x00,0xe0,0x0f,
 0x00,0x00,0xf0,0x07,0x00,0x00,0x00,0xf0,0x0f,0x00,0x00,0xe0,0x1f,0x00,0x00,
 0x00,0xf8,0x07,0x00,0x00,0x80,0x7f,0x00,0x00,0x00,0xfc,0x03,0x00,0x00,0x00,
 0xff,0x00,0x00,0x00,0xfe,0x01,0x00,0x00,0x00,0xfc,0x03,0x00,0xe0,0xff,0x00,
 0x00,0x00,0x00,0xf8,0x0f,0x00,0xf8,0x7f,0x00,0x00,0x00,0x00,0xe0,0x1f,0x00,
 0xfc,0x3f,0x00,0x00,0x00,0x00,0xc0,0x7f,0x00,0xfe,0x1f,0x00,0x00,0x00,0x00,
 0x00,0xff,0x00,0xff,0x0f,0x00,0x00,0x00,0x00,0x00,0xfc,0x03,0xff,0x0f,0x00,
 0x00,0x00,0x00,0x00,0xfc,0x0f,0xff,0x0f,0x00,0x00,0x00,0x00,0x00,0xf0,0x1f,
 0xff,0x0f,0x00,0x00,0x00,0x00,0x00,0xe0,0x3f,0xff,0x07,0x00,0x00,0x00,0x00,
 0x00,0xc0,0x3f,0xfe,0x03,0x00,0x00,0x00,0x00,0x00,0x00,0x3f,0xfe,0x03,0x00,
 0x00,0x00,0x00,0x00,0x00,0x3e,0xfc,0x01,0x00,0x00,0x00,0x00,0x00,0x00,0x38,
 0xfc,0x01,0x00,0x00,0x00,0x00,0x00,0x00,0x38};
