#define go_width 58
#define go_height 24
static char go_bits[] = {
   0x00, 0x00, 0x00, 0x00, 0x00, 0x00, 0x00, 0x00, 0x00, 0x00, 0x00, 0x00,
   0x00, 0x00, 0x00, 0x00, 0x00, 0xf8, 0x00, 0x00, 0x00, 0x00, 0x00, 0x00,
   0x00, 0xfe, 0x07, 0x00, 0x00, 0x00, 0x00, 0x00, 0x00, 0xff, 0x0f, 0x00,
   0x00, 0x00, 0x18, 0x00, 0x80, 0x8f, 0x1f, 0x80, 0x0f, 0x00, 0x3c, 0x00,
   0x80, 0x07, 0x1e, 0xe0, 0x3f, 0x00, 0x7e, 0x00, 0xc0, 0x03, 0x1c, 0xf0,
   0x7f, 0x00, 0x7e, 0x00, 0xc0, 0x01, 0x00, 0xf8, 0xfc, 0x00, 0x7e, 0x00,
   0xe0, 0x01, 0x00, 0x3c, 0xf0, 0x00, 0x3f, 0x00, 0xe0, 0x80, 0x03, 0x1c,
   0xe0, 0x01, 0x3f, 0x00, 0xe0, 0x80, 0x0f, 0x1e, 0xe0, 0x01, 0x3f, 0x00,
   0xe0, 0x81, 0x3f, 0x0e, 0xc0, 0x01, 0x1f, 0x00, 0xc0, 0x01, 0x7f, 0x0e,
   0xc0, 0x81, 0x0f, 0x00, 0xc0, 0x03, 0x7c, 0x1e, 0xc0, 0x81, 0x07, 0x00,
   0x80, 0x03, 0x0e, 0x1c, 0xe0, 0xc1, 0x03, 0x00, 0x80, 0x8f, 0x0f, 0x3c,
   0xe0, 0x80, 0x03, 0x00, 0x00, 0xff, 0x07, 0x38, 0x70, 0x00, 0x01, 0x00,
   0x00, 0xfe, 0x03, 0xf8, 0x7c, 0x00, 0x00, 0x00, 0x00, 0x78, 0x00, 0xf0,
   0x3f, 0x70, 0x00, 0x00, 0x00, 0x00, 0x00, 0xe0, 0x1f, 0xf8, 0x00, 0x00,
   0x00, 0x00, 0x00, 0x80, 0x03, 0xf8, 0x00, 0x00, 0x00, 0x00, 0x00, 0x00,
   0x00, 0x78, 0x00, 0x00, 0x00, 0x00, 0x00, 0x00, 0x00, 0x70, 0x00, 0x00};
