#define noname_width 88
#define noname_height 49
static char noname_bits[] = {
 0x00,0x00,0x00,0x00,0x00,0x40,0x00,0x00,0x00,0x00,0x00,0x00,0x00,0x00,0x00,
 0x10,0x00,0x00,0x02,0x00,0x00,0x00,0x00,0x00,0x00,0x00,0x00,0x05,0x00,0x00,
 0x00,0x00,0x00,0x00,0x00,0x00,0x00,0x01,0x36,0x00,0x00,0x00,0x00,0x00,0x00,
 0x00,0x00,0x00,0x00,0x0f,0x20,0x00,0x01,0x00,0x00,0x00,0x00,0x00,0x80,0x80,
 0x04,0x36,0x00,0x00,0x00,0x00,0x00,0x00,0x00,0x00,0x00,0x00,0xf8,0x01,0x04,
 0x00,0x00,0x00,0x00,0x00,0x00,0x00,0x00,0x3c,0x00,0x00,0x00,0x00,0x00,0x00,
 0x00,0x00,0x00,0x00,0x22,0x00,0x00,0x00,0x00,0x00,0x00,0x00,0x00,0x00,0x0a,
 0x00,0x00,0x00,0x00,0x00,0x00,0x00,0x00,0x00,0x81,0x07,0x00,0x02,0x00,0x00,
 0x00,0x00,0x00,0x00,0x00,0x00,0x0e,0xa0,0x2f,0x08,0x00,0x00,0x00,0x00,0x00,
 0x00,0x00,0x02,0x00,0x07,0x00,0x00,0x00,0x00,0x00,0x00,0x00,0x00,0x00,0x80,
 0x08,0x00,0x00,0x00,0x00,0x00,0x00,0x00,0x40,0x00,0x01,0x00,0x04,0x00,0x00,
 0x00,0x00,0x00,0x00,0x00,0xa0,0x0b,0x00,0x00,0x00,0x00,0x00,0x00,0x00,0x00,
 0x00,0x80,0x02,0x80,0x00,0x00,0x00,0x00,0x00,0x00,0x00,0x00,0x00,0x20,0x08,
 0x00,0x00,0x00,0x00,0x00,0x00,0x00,0x00,0x00,0x00,0x00,0x00,0x00,0x00,0x00,
 0x00,0x00,0x00,0x00,0xe0,0x03,0x00,0x00,0x00,0x00,0x00,0x00,0x00,0x00,0x00,
 0x18,0x1c,0x00,0x00,0x00,0x00,0x00,0x00,0x00,0x00,0x00,0x06,0x28,0x00,0x00,
 0x00,0x00,0x00,0x00,0x00,0x00,0x00,0x03,0x50,0x00,0x00,0x00,0x00,0x00,0x00,
 0x00,0x00,0x00,0xfb,0x7f,0x00,0x00,0x00,0x00,0x00,0x00,0x00,0x00,0xe0,0xc0,
 0xd0,0x0f,0x00,0x00,0x00,0x00,0x00,0x00,0xfc,0x3f,0x00,0x00,0xf1,0x07,0x00,
 0x00,0x00,0x00,0xff,0x03,0x0c,0x40,0x00,0x06,0xf8,0x0f,0x00,0xc0,0xff,0x00,
 0x80,0x16,0x00,0x00,0x55,0x00,0xf0,0x1f,0xfc,0x00,0x00,0xa0,0x83,0x8f,0x3f,
 0x3c,0x01,0x00,0x63,0x82,0x01,0xf8,0xff,0xfd,0x70,0xe0,0xfb,0xff,0x81,0x81,
 0x31,0xff,0x07,0x00,0x06,0x00,0x00,0x06,0x00,0xfe,0x99,0xcd,0x00,0x00,0x80,
 0x01,0x00,0x90,0x0c,0x00,0x00,0xa7,0x00,0x00,0x00,0xc0,0x08,0x02,0x04,0x18,
 0x00,0x00,0x00,0x00,0x00,0x00,0x60,0x20,0x08,0x80,0x1d,0x78,0x00,0x00,0x00,
 0xc0,0x0d,0xe0,0x02,0x59,0x65,0x32,0x92,0x01,0x00,0x00,0xb0,0x16,0x30,0x08,
 0xf4,0x26,0x2c,0xad,0x02,0x00,0x00,0x58,0x2d,0x18,0x60,0xfe,0x03,0xc0,0x56,
 0x03,0x00,0x00,0xa8,0x5a,0xc8,0xca,0x8e,0x25,0x70,0xab,0x02,0x00,0x00,0x58,
 0xb5,0x1c,0xa4,0x07,0x1b,0xa1,0x55,0x02,0x00,0x00,0xa8,0x2a,0x87,0xc8,0x03,
 0x56,0xbc,0x2b,0x03,0x00,0x00,0x50,0x35,0x56,0xa8,0x00,0x1e,0x93,0x95,0x01,
 0x00,0x00,0xe0,0x3a,0x8c,0xe5,0x00,0xcc,0x9c,0x6b,0x00,0x00,0x00,0x80,0x75,
 0x78,0x77,0x00,0x58,0x87,0x35,0x00,0x00,0x00,0x00,0xee,0xe0,0x3c,0x00,0xb8,
 0xc3,0x0f,0x00,0x00,0x00,0x00,0x78,0xa3,0x19,0x00,0xd0,0x32,0x07,0x00,0x00,
 0x00,0x00,0x10,0xc6,0x0d,0x00,0xd8,0x51,0x05,0x00,0x00,0x00,0x00,0xb0,0x66,
 0x04,0x00,0x88,0xb9,0x06,0x00,0x00,0x00,0x00,0x60,0xb5,0x07,0x00,0xf0,0x5b,
 0x03,0x00,0x00,0x00,0x00,0xc0,0x0f,0x00,0x00,0x00,0xfc,0x01,0x00,0x00};
