#define Xmgf_width 108
#define Xmgf_height 105
static char Xmgf_bits[] = {
   0x00, 0x00, 0x00, 0x00, 0x00, 0x0e, 0x00, 0x00, 0x00, 0xf0, 0xff, 0xff,
   0x00, 0x00, 0x00, 0x00, 0x00, 0x00, 0xf0, 0x11, 0x00, 0x00, 0x00, 0x2e,
   0x22, 0xa2, 0x07, 0x00, 0x00, 0x00, 0x00, 0x80, 0x0f, 0x20, 0x00, 0x00,
   0x80, 0x25, 0x22, 0x22, 0x1a, 0x00, 0x00, 0x00, 0x00, 0x7e, 0x00, 0x40,
   0x00, 0x00, 0xe0, 0x24, 0x22, 0x22, 0x72, 0x00, 0x00, 0x00, 0xf0, 0x01,
   0x00, 0x80, 0x01, 0x00, 0x90, 0x24, 0x22, 0x22, 0x92, 0x00, 0x00, 0x80,
   0x0f, 0x00, 0x00, 0x00, 0x03, 0x00, 0x98, 0x24, 0x22, 0x22, 0x92, 0x01,
   0x00, 0x70, 0x00, 0x00, 0x00, 0x00, 0x06, 0x00, 0x9c, 0x24, 0x22, 0x22,
   0x92, 0x02, 0x00, 0x30, 0x00, 0x00, 0x00, 0x00, 0x0c, 0x00, 0x9c, 0x24,
   0x22, 0x22, 0x92, 0x06, 0x00, 0x50, 0x00, 0x00, 0x00, 0x00, 0x18, 0x00,
   0x9c, 0x24, 0x22, 0x22, 0x92, 0x0e, 0x00, 0xd0, 0x00, 0x00, 0x00, 0x00,
   0x30, 0x00, 0x9c, 0x24, 0x22, 0x22, 0x92, 0x0e, 0x00, 0x90, 0x01, 0x00,
   0x00, 0x00, 0x40, 0x00, 0x9c, 0x24, 0x22, 0x22, 0x92, 0x0e, 0x00, 0x10,
   0x01, 0x00, 0x00, 0x00, 0x80, 0x00, 0x9c, 0x24, 0x22, 0x12, 0x92, 0x0e,
   0x00, 0x10, 0x02, 0x00, 0x00, 0x00, 0x00, 0x01, 0x9c, 0x24, 0x22, 0x12,
   0x51, 0x0e, 0x00, 0x10, 0x04, 0x00, 0x00, 0x00, 0x80, 0x03, 0xb4, 0x24,
   0x22, 0x12, 0x49, 0x0e, 0x00, 0x10, 0x08, 0x00, 0x00, 0x00, 0x7c, 0x02,
   0xd4, 0x24, 0x22, 0x12, 0xc9, 0x0f, 0x00, 0x20, 0x10, 0x00, 0x00, 0xc0,
   0x03, 0x02, 0x94, 0x27, 0x22, 0x12, 0x69, 0x0e, 0x00, 0x20, 0x30, 0x00,
   0x00, 0x3e, 0x00, 0x02, 0x94, 0x3c, 0x22, 0x12, 0x5f, 0x0e, 0x00, 0x20,
   0x60, 0x00, 0xf0, 0x01, 0x00, 0x02, 0x94, 0xf4, 0x3f, 0xf2, 0x4b, 0x06,
   0x00, 0x20, 0x40, 0x00, 0x0f, 0x00, 0x00, 0x02, 0x94, 0x44, 0xe4, 0xbf,
   0x48, 0x06, 0x00, 0x20, 0x80, 0xf8, 0x00, 0x00, 0x00, 0x02, 0x94, 0x44,
   0x84, 0x88, 0x48, 0x06, 0x00, 0x20, 0x00, 0x07, 0x00, 0x00, 0x00, 0x02,
   0x94, 0x44, 0x84, 0x88, 0x48, 0x06, 0x00, 0x20, 0x00, 0x01, 0x00, 0x00,
   0x00, 0x02, 0x94, 0x44, 0x84, 0x88, 0x48, 0x07, 0x00, 0x20, 0x00, 0x01,
   0x00, 0x00, 0x00, 0x02, 0x94, 0x44, 0x84, 0x88, 0x48, 0x07, 0x00, 0x20,
   0x0e, 0x01, 0x00, 0x00, 0x00, 0x02, 0x94, 0x44, 0x84, 0x88, 0x48, 0x07,
   0x00, 0x20, 0x1e, 0x01, 0x00, 0x00, 0x00, 0x02, 0x94, 0x44, 0x84, 0x88,
   0x48, 0x07, 0x00, 0x20, 0x1f, 0x01, 0x00, 0x00, 0x00, 0x02, 0x94, 0x44,
   0x84, 0x88, 0x48, 0x07, 0x00, 0x20, 0x3f, 0x01, 0x00, 0x00, 0x00, 0x02,
   0x94, 0x44, 0x84, 0x88, 0x68, 0x07, 0x00, 0x20, 0x3f, 0x01, 0x00, 0x00,
   0x00, 0x02, 0x94, 0x44, 0x84, 0x88, 0x2c, 0x07, 0x00, 0xa0, 0x7f, 0x01,
   0x00, 0x00, 0x00, 0x02, 0x94, 0x44, 0x84, 0x88, 0x24, 0x07, 0x00, 0xa0,
   0x7f, 0x02, 0x00, 0x00, 0x00, 0x02, 0x96, 0x44, 0xc4, 0x4c, 0x24, 0x07,
   0x00, 0xe0, 0xff, 0x02, 0x00, 0x00, 0x00, 0x02, 0x96, 0x44, 0x44, 0x44,
   0x24, 0x07, 0x00, 0xc0, 0xff, 0x02, 0x00, 0x00, 0x00, 0x02, 0x96, 0x44,
   0x44, 0x44, 0x24, 0x07, 0x00, 0xc0, 0xff, 0x03, 0x00, 0x00, 0x00, 0x02,
   0x96, 0x44, 0x44, 0x44, 0x24, 0x03, 0x00, 0xe0, 0xdf, 0x03, 0x00, 0x00,
   0x00, 0x02, 0x96, 0x44, 0x44, 0x44, 0x24, 0x03, 0x00, 0xe0, 0xfd, 0x03,
   0x00, 0x00, 0x00, 0x02, 0x96, 0x44, 0x44, 0x44, 0x24, 0x03, 0x00, 0xe0,
   0xfd, 0x03, 0x00, 0x00, 0x00, 0x02, 0x96, 0x44, 0x44, 0x44, 0xa4, 0x03,
   0x00, 0xf0, 0xbd, 0x07, 0x00, 0x00, 0x00, 0x02, 0x96, 0x44, 0x44, 0x44,
   0xa4, 0x03, 0x00, 0xf0, 0xbd, 0x07, 0x00, 0x00, 0x00, 0x02, 0x56, 0x44,
   0x44, 0x44, 0xa4, 0x03, 0x00, 0xf0, 0xfd, 0x0f, 0x00, 0x00, 0x00, 0x02,
   0x56, 0x46, 0x44, 0x44, 0xa4, 0x03, 0x00, 0xf8, 0x6d, 0x0f, 0x00, 0x00,
   0x00, 0x02, 0x56, 0x62, 0x44, 0x44, 0xa4, 0x03, 0x00, 0xf8, 0x6d, 0x1f,
   0x00, 0x00, 0x00, 0x02, 0x56, 0x22, 0x42, 0x44, 0xa4, 0x03, 0x00, 0xfc,
   0x6d, 0x1b, 0x00, 0x00, 0x00, 0x02, 0x56, 0x22, 0x42, 0x44, 0xa4, 0x03,
   0x00, 0xfc, 0xb5, 0x3d, 0x00, 0x00, 0x00, 0x02, 0x56, 0x22, 0x42, 0x44,
   0xa4, 0x03, 0x00, 0xbc, 0xb5, 0x76, 0x00, 0x00, 0x00, 0x02, 0x56, 0x22,
   0x42, 0x44, 0xa4, 0x03, 0x00, 0xfe, 0xd5, 0x76, 0x00, 0x00, 0x00, 0x02,
   0x56, 0x22, 0x42, 0x44, 0xa4, 0x03, 0x00, 0x7e, 0xd5, 0xfa, 0x00, 0x00,
   0x00, 0x02, 0x56, 0x22, 0x42, 0x44, 0xa4, 0x03, 0x00, 0x76, 0x55, 0xed,
   0x00, 0x00, 0x00, 0x02, 0x56, 0x22, 0x42, 0x44, 0xa4, 0x01, 0x00, 0x6f,
   0x55, 0xf5, 0x01, 0x00, 0x80, 0x03, 0x56, 0x22, 0x42, 0x44, 0xa4, 0x01,
   0x00, 0x6f, 0x55, 0xd5, 0x01, 0x00, 0xf0, 0x00, 0x56, 0x22, 0x42, 0x44,
   0xb4, 0x01, 0x00, 0x5f, 0x55, 0xd9, 0x03, 0x00, 0x0f, 0x00, 0x56, 0x22,
   0x42, 0x44, 0x96, 0x01, 0x80, 0x5b, 0x95, 0xaa, 0x03, 0xf0, 0x00, 0x00,
   0x56, 0x22, 0x42, 0x44, 0xd2, 0x01, 0x80, 0x57, 0x95, 0xaa, 0x07, 0x0f,
   0x00, 0x00, 0x56, 0x22, 0x62, 0x26, 0xd2, 0x01, 0xc0, 0xf7, 0x95, 0xaa,
   0xf6, 0x00, 0x00, 0x00, 0x56, 0x22, 0x22, 0x22, 0xd2, 0x01, 0xc0, 0xb5,
   0xa8, 0x52, 0x0f, 0x00, 0x00, 0xc0, 0xff, 0x3f, 0x22, 0x22, 0xd2, 0x01,
   0xc0, 0xad, 0xa8, 0x54, 0x0f, 0x00, 0x00, 0x60, 0x18, 0xfd, 0x22, 0x22,
   0xd2, 0x01, 0xa0, 0xab, 0x28, 0x95, 0x1e, 0x00, 0x00, 0xa8, 0x81, 0xc8,
   0x23, 0x22, 0xd2, 0x00, 0xe0, 0xaa, 0x28, 0xa5, 0x1e, 0x00, 0x00, 0xfa,
   0xff, 0x10, 0x2f, 0x22, 0xd2, 0x00, 0xe0, 0xaa, 0x28, 0xa5, 0x3c, 0x00,
   0x80, 0x2f, 0x40, 0x23, 0x38, 0x22, 0x52, 0x00, 0xd0, 0xaa, 0x28, 0x29,
   0x3d, 0x00, 0xe0, 0x45, 0x20, 0x5c, 0x2c, 0x22, 0x32, 0x00, 0xf0, 0xa9,
   0x28, 0x49, 0x75, 0x00, 0x30, 0x84, 0x20, 0xe0, 0x66, 0x22, 0x1a, 0x00,
   0x70, 0xb5, 0x28, 0x49, 0x79, 0x00, 0x08, 0x02, 0x11, 0xc0, 0x81, 0x22,
   0x07, 0x00, 0x68, 0x95, 0x28, 0x4a, 0xea, 0x00, 0x24, 0x02, 0x12, 0x3c,
   0xc7, 0xe3, 0x01, 0x00, 0x58, 0x95, 0x28, 0x52, 0xf2, 0x00, 0x46, 0x01,
   0xcc, 0x83, 0x0c, 0x7f, 0x00, 0x00, 0xbc, 0x94, 0x28, 0x92, 0xd6, 0x01,
   0x83, 0xc1, 0x3f, 0x80, 0x90, 0x06, 0x00, 0x00, 0xb4, 0x94, 0x48, 0x92,
   0xe4, 0x03, 0x83, 0x3f, 0x78, 0xc0, 0x60, 0x0c, 0x00, 0x00, 0xac, 0x92,
   0x48, 0x92, 0xa4, 0x83, 0x41, 0x01, 0xc4, 0x41, 0xc0, 0x09, 0x00, 0x00,
   0x9a, 0x92, 0x48, 0x26, 0xa9, 0x43, 0xb0, 0x00, 0x04, 0x47, 0xc0, 0x13,
   0x00, 0x00, 0x5a, 0x92, 0x48, 0x24, 0x49, 0xc3, 0x88, 0x04, 0x04, 0x3c,
   0x3f, 0x3f, 0x00, 0x00, 0x56, 0x9a, 0x48, 0x24, 0x49, 0x23, 0x86, 0x08,
   0x06, 0xf0, 0x00, 0x63, 0x00, 0x00, 0x5d, 0x8a, 0x48, 0x24, 0x92, 0x63,
   0x43, 0x10, 0x02, 0x6c, 0x00, 0x45, 0x00, 0x00, 0x4d, 0x89, 0x48, 0x44,
   0x92, 0xe2, 0x40, 0x20, 0x82, 0xa3, 0x00, 0x49, 0x00, 0x00, 0x2b, 0x49,
   0x48, 0x44, 0x32, 0x63, 0x40, 0x40, 0x72, 0x10, 0x01, 0xc9, 0x00, 0x00,
   0x2a, 0x49, 0x48, 0x48, 0x26, 0x71, 0x40, 0x80, 0x0d, 0x10, 0x03, 0xd1,
   0x00, 0x00, 0x26, 0x49, 0x48, 0x48, 0xa4, 0xf0, 0x20, 0x00, 0x03, 0x10,
   0x06, 0xe1, 0x00, 0x00, 0x24, 0x49, 0x48, 0x88, 0xc4, 0xb0, 0x20, 0xc0,
   0x03, 0x10, 0x0c, 0xe1, 0x00, 0x00, 0x38, 0x49, 0x48, 0x88, 0x44, 0x30,
   0x21, 0x30, 0x05, 0x10, 0x18, 0xc1, 0x00, 0x00, 0x98, 0x4c, 0x88, 0x88,
   0x38, 0x30, 0x12, 0x8c, 0x08, 0x18, 0x30, 0xe1, 0x01, 0x00, 0xb0, 0x44,
   0x88, 0x88, 0x09, 0x38, 0x14, 0x86, 0x18, 0x08, 0x20, 0xd1, 0x01, 0x00,
   0xc0, 0x44, 0x88, 0x10, 0x07, 0x28, 0x9c, 0x81, 0x30, 0x08, 0x40, 0x69,
   0x01, 0x00, 0x00, 0x47, 0x88, 0xd0, 0x01, 0x28, 0x78, 0x80, 0x60, 0x08,
   0x80, 0x67, 0x01, 0x00, 0x00, 0xfc, 0x89, 0x7c, 0x00, 0x28, 0x30, 0x80,
   0xc0, 0x08, 0x80, 0xa1, 0x01, 0x00, 0x00, 0x00, 0xfe, 0x03, 0x00, 0x28,
   0xec, 0x80, 0x80, 0x08, 0xf8, 0xa1, 0x01, 0x00, 0x00, 0x00, 0x00, 0x00,
   0x00, 0x30, 0x26, 0x43, 0x00, 0x05, 0x87, 0xb2, 0x00, 0x00, 0xcc, 0x14,
   0x00, 0x00, 0x00, 0xb0, 0x21, 0x4c, 0x00, 0xf6, 0x80, 0x92, 0x00, 0x00,
   0x54, 0x15, 0x00, 0x00, 0x00, 0xf0, 0x20, 0xf0, 0xff, 0x0f, 0x40, 0x92,
   0x00, 0x00, 0x4c, 0x1d, 0x00, 0x00, 0x00, 0x20, 0x10, 0x70, 0x00, 0x0c,
   0x40, 0x94, 0x00, 0x00, 0x44, 0x15, 0x00, 0x00, 0x00, 0xe0, 0x10, 0xd8,
   0x00, 0x14, 0x20, 0xd4, 0x00, 0x00, 0xc4, 0x14, 0x00, 0x00, 0x00, 0xe0,
   0x11, 0x46, 0x01, 0x32, 0x20, 0x6c, 0x00, 0x00, 0x00, 0x00, 0x00, 0x00,
   0x00, 0xc0, 0x13, 0x43, 0x02, 0x62, 0x10, 0x58, 0x00, 0x00, 0x00, 0x00,
   0x00, 0x00, 0x00, 0xc0, 0xd6, 0x60, 0x04, 0xc2, 0x10, 0x4e, 0x00, 0x00,
   0x00, 0x00, 0x00, 0x00, 0x00, 0x00, 0x79, 0x20, 0x08, 0x82, 0x09, 0x1b,
   0x00, 0x00, 0x00, 0x00, 0x00, 0x00, 0x00, 0x80, 0x31, 0x20, 0x18, 0x02,
   0xc9, 0x20, 0x00, 0x00, 0x00, 0x00, 0x00, 0x00, 0x00, 0x00, 0xf2, 0x20,
   0x30, 0x02, 0x3e, 0x14, 0x00, 0x00, 0x00, 0x00, 0x00, 0x00, 0x00, 0x00,
   0x52, 0x23, 0x60, 0x01, 0x0e, 0x10, 0x00, 0x00, 0x00, 0x00, 0x00, 0x00,
   0x00, 0x00, 0x96, 0x3c, 0xc0, 0xe1, 0x0b, 0x0a, 0x00, 0x00, 0x00, 0x00,
   0x00, 0x00, 0x00, 0x00, 0x14, 0xf1, 0xff, 0x1f, 0x11, 0x04, 0x00, 0x00,
   0x00, 0x00, 0x00, 0x00, 0x00, 0x00, 0x18, 0x22, 0xc0, 0x81, 0x20, 0x03,
   0x00, 0x00, 0x00, 0x00, 0x00, 0x00, 0x00, 0x00, 0x18, 0x24, 0x30, 0x41,
   0x40, 0x01, 0x00, 0x00, 0x00, 0x00, 0x00, 0x00, 0x00, 0x00, 0x10, 0x48,
   0x08, 0x21, 0x80, 0x00, 0x00, 0x00, 0x00, 0x00, 0x00, 0x00, 0x00, 0x00,
   0xe0, 0x51, 0x04, 0x12, 0x78, 0x00, 0x00, 0x00, 0x00, 0x00, 0x00, 0x00,
   0x00, 0x00, 0x80, 0x6f, 0x03, 0x0a, 0x1f, 0x00, 0x00, 0x00, 0x00, 0x00,
   0x00, 0x00, 0x00, 0x00, 0x00, 0xf6, 0x00, 0xf6, 0x06, 0x00, 0x00, 0x00,
   0x00, 0x00, 0x00, 0x00, 0x00, 0x00, 0x00, 0xd8, 0xff, 0x8f, 0x01, 0x00,
   0x00, 0x00, 0x00, 0x00, 0x00, 0x00, 0x00, 0x00, 0x00, 0xe0, 0x70, 0x64,
   0x00, 0x00, 0x00, 0x00, 0x00, 0x00, 0x00, 0x00, 0x00, 0x00, 0x00, 0xc0,
   0xff, 0x3f, 0x00, 0x00, 0x00, 0x00};
