#define noname_width 63
#define noname_height 38
static char noname_bits[] = {
 0x00,0x00,0x00,0x00,0x00,0x00,0x00,0x60,0x00,0x00,0x00,0x00,0x00,0x00,0x00,
 0x30,0x00,0x00,0x3c,0x00,0x00,0x00,0x00,0x3c,0x00,0x00,0xc6,0x00,0x00,0x00,
 0x00,0x1f,0x00,0x00,0x03,0x01,0x00,0x00,0xc0,0x0f,0x00,0x80,0x01,0x02,0x00,
 0x00,0xf8,0x0d,0x00,0xc0,0x08,0x06,0x00,0x00,0xee,0x0e,0x00,0x70,0x00,0x04,
 0x00,0x80,0x73,0x07,0x00,0x18,0x03,0x0c,0x00,0xe0,0x8c,0x03,0x00,0x0c,0x40,
 0x08,0x00,0x50,0xf3,0x01,0x00,0x43,0x20,0x08,0x00,0xbc,0x7f,0x00,0xe0,0x30,
 0x10,0x18,0x00,0xca,0x3d,0x00,0x3e,0x08,0x04,0x10,0x00,0xf5,0x0e,0x00,0x02,
 0x06,0x21,0x10,0x80,0x39,0x07,0x00,0x83,0xc0,0x18,0x11,0xc0,0xce,0x07,0x00,
 0x01,0x10,0x84,0x10,0x60,0xf3,0x03,0x00,0x35,0x0c,0x21,0x10,0x90,0xfc,0x01,
 0x00,0x65,0xc0,0x00,0x14,0x50,0xff,0x00,0x00,0xa5,0x20,0x08,0x21,0xe8,0x31,
 0x00,0x00,0x89,0x09,0x82,0x20,0x18,0x0e,0x00,0x00,0x83,0x81,0x20,0xe0,0xfd,
 0x03,0x00,0x00,0x86,0x62,0x08,0x44,0x0c,0x00,0x00,0x00,0xc8,0x12,0x06,0x22,
 0x3f,0x00,0x00,0x00,0x30,0x02,0x81,0x18,0x3f,0x00,0x00,0x00,0x00,0x82,0x20,
 0x8c,0x7f,0x00,0x00,0x00,0x00,0x42,0x10,0xe7,0xff,0x01,0x00,0x00,0x00,0x02,
 0x84,0xb1,0xfe,0x03,0x00,0x00,0x00,0x82,0x61,0x50,0xfd,0x03,0x00,0x00,0x00,
 0x42,0x1c,0xb8,0xfe,0x07,0x00,0x00,0x00,0x86,0x03,0x58,0xfd,0x07,0x00,0x00,
 0x00,0xc4,0x00,0xac,0xff,0x07,0x00,0x00,0x00,0x44,0x0f,0x5a,0xff,0x07,0x00,
 0x00,0x00,0x44,0x11,0xfb,0xff,0x07,0x00,0x00,0x00,0x58,0x10,0xf5,0xff,0x13,
 0x00,0x00,0x00,0x94,0x95,0xfa,0xff,0x2b,0x00,0x00,0x00,0x2a,0x50,0xe5,0xff,
 0x55,0x00,0x00,0x00,0xd5,0x68,0x8a,0x7f,0x2a,0x00,0x00,0x00,0xa8,0x1f,0x00,
 0x00,0x00,0x00,0x00};
