#define face_width 64
#define face_height 64
static char face_bits[] = {
   0x00, 0x00, 0x00, 0x00, 0x00, 0x00, 0x00, 0x00, 0x00, 0x00, 0x00, 0x00,
   0x00, 0x00, 0x00, 0x00, 0x00, 0x00, 0x00, 0x00, 0x00, 0x00, 0x00, 0x00,
   0x00, 0x00, 0x00, 0x00, 0x00, 0x00, 0x00, 0x00, 0x00, 0x00, 0x00, 0x00,
   0x00, 0x00, 0x00, 0x00, 0x00, 0x00, 0x00, 0x00, 0x00, 0x00, 0x00, 0x00,
   0x00, 0x00, 0x00, 0x00, 0x00, 0x00, 0x00, 0x00, 0x00, 0x00, 0x00, 0xf8,
   0x1f, 0x00, 0x00, 0x00, 0x00, 0x00, 0x80, 0x57, 0xf5, 0x01, 0x00, 0x00,
   0x00, 0x00, 0xe0, 0x80, 0x80, 0x06, 0x00, 0x00, 0x00, 0x00, 0x58, 0x55,
   0x55, 0x1d, 0x00, 0x00, 0x00, 0x00, 0x26, 0x22, 0x22, 0x62, 0x00, 0x00,
   0x00, 0x00, 0x55, 0x55, 0x55, 0xd5, 0x00, 0x00, 0x00, 0x80, 0x80, 0x80,
   0x80, 0x80, 0x01, 0x00, 0x00, 0x40, 0x55, 0x55, 0x55, 0x55, 0x03, 0x00,
   0x00, 0x20, 0x22, 0x22, 0x22, 0x22, 0x06, 0x00, 0x00, 0x50, 0x55, 0x55,
   0x55, 0x55, 0x0d, 0x00, 0x00, 0x88, 0x80, 0x80, 0x80, 0x80, 0x10, 0x00,
   0x00, 0x58, 0x55, 0x55, 0x55, 0x55, 0x15, 0x00, 0x00, 0x24, 0x22, 0x22,
   0x22, 0x22, 0x22, 0x00, 0x00, 0x54, 0x55, 0x55, 0x55, 0x55, 0x35, 0x00,
   0x00, 0x82, 0x80, 0x80, 0x80, 0x80, 0x40, 0x00, 0x00, 0x56, 0x55, 0x55,
   0x55, 0x55, 0x55, 0x00, 0x00, 0x23, 0x22, 0x22, 0x22, 0x22, 0xa2, 0x00,
   0x00, 0x55, 0x55, 0x55, 0x55, 0x55, 0xd5, 0x00, 0x00, 0x81, 0x80, 0x80,
   0x80, 0x80, 0x80, 0x01, 0x00, 0x55, 0x55, 0x55, 0x55, 0x55, 0x55, 0xf9,
   0x80, 0x22, 0x22, 0x22, 0x22, 0x22, 0x22, 0x87, 0x80, 0x55, 0x55, 0x55,
   0x55, 0x55, 0x55, 0x81, 0x80, 0x80, 0x80, 0x80, 0x80, 0xc0, 0x83, 0x80,
   0x80, 0x55, 0x55, 0x55, 0x55, 0x35, 0x5c, 0x80, 0x80, 0x22, 0x22, 0x22,
   0x22, 0x12, 0x50, 0x80, 0x80, 0x55, 0x55, 0x55, 0xf5, 0x09, 0x20, 0x80,
   0xfc, 0x81, 0x80, 0x80, 0x08, 0x0e, 0x40, 0x80, 0x02, 0x57, 0x55, 0x55,
   0x05, 0x04, 0x40, 0x80, 0x01, 0x24, 0x22, 0x22, 0x06, 0x02, 0x40, 0x80,
   0x01, 0x48, 0x55, 0x55, 0x03, 0x01, 0x00, 0x80, 0x01, 0xd0, 0x83, 0x80,
   0x02, 0x01, 0x00, 0x80, 0x01, 0x30, 0x5c, 0x55, 0x03, 0x01, 0x00, 0x80,
   0x01, 0x10, 0x30, 0x22, 0x02, 0x01, 0x00, 0x80, 0x01, 0x00, 0xc0, 0x55,
   0x03, 0x00, 0x00, 0x80, 0x01, 0x00, 0x00, 0x81, 0x04, 0x00, 0x00, 0x80,
   0x01, 0x00, 0x00, 0x56, 0x05, 0x00, 0x00, 0x80, 0x01, 0x00, 0x00, 0x24,
   0x08, 0x00, 0x00, 0x80, 0x01, 0x00, 0x00, 0x54, 0x15, 0x00, 0x00, 0x80,
   0x01, 0x00, 0x00, 0x88, 0x02, 0x00, 0x00, 0x80, 0x01, 0x00, 0x00, 0x58,
   0x03, 0x00, 0x00, 0x80, 0x01, 0x00, 0x00, 0x28, 0x01, 0x00, 0x00, 0x88,
   0x01, 0x00, 0x00, 0x7c, 0x01, 0x00, 0x00, 0x90, 0x01, 0x00, 0x00, 0x82,
   0x01, 0x00, 0x00, 0x90, 0x01, 0x00, 0x00, 0x00, 0x01, 0x00, 0x00, 0x90,
   0x01, 0x00, 0x00, 0x00, 0x02, 0x00, 0x00, 0x90, 0x01, 0x00, 0x00, 0x00,
   0x04, 0x00, 0x00, 0x90, 0x01, 0x00, 0x00, 0x00, 0x08, 0x00, 0x00, 0x88,
   0x01, 0x00, 0x00, 0x00, 0x10, 0x00, 0x00, 0x88, 0x01, 0x00, 0x00, 0x00,
   0x20, 0x00, 0x00, 0x84, 0x01, 0x00, 0x00, 0x00, 0x40, 0x00, 0x00, 0x82,
   0x01, 0x00, 0x00, 0x00, 0x40, 0x00, 0x04, 0x81, 0x01, 0x00, 0x00, 0x00,
   0xc0, 0x03, 0xf8, 0x80, 0x01, 0x00, 0x00, 0x00, 0x40, 0x04, 0x00, 0x80,
   0x01, 0x00, 0x00, 0x00, 0x20, 0x08, 0x00, 0x80, 0x01, 0x00, 0x00, 0x00,
   0x00, 0x08, 0x00, 0x80, 0x01, 0x00, 0x00, 0x00, 0x00, 0x08, 0x00, 0x80,
   0xff, 0xff, 0xff, 0xff, 0xff, 0xff, 0xff, 0xff};
