/* XPM */
static char * orange_xpm[] = {
/* width height ncolors chars_per_pixel */
"9 9 3 1",
/* colors */
" 	c gold",
".	c peru",
"X	c orange",
/* pixels */
"         ",
"        .",
"  XXXXX..",
"  XXXXX..",
"  XXXXX..",
"  XXXXX..",
"  XXXXX..",
" ........",
"........."};
