/* XPM */
static char * xmail_ctwm_old_xpm[] = {
/* width height ncolors chars_per_pixel */
"64 38 10 1",
/* colors */
" 	s None	c None",
".	c black",
"X	c dark slate grey",
"o	c yellow",
"O	c slate grey",
"+	c gold",
"@	c red",
"#	c white",
"$	c lemon chiffon",
"%	c tan",
/* pixels */
"                                                                ",
"                                                                ",
"                                                                ",
"                                                                ",
"                                                                ",
"                 ................................               ",
"               ..XXXXXXXX..ooooooooooooooooooooo..              ",
"             ..XXXXXXXXXXXX.ooooooooooooooooooooo..             ",
"            .OOOOOOXXXXXXXXX.ooooooooooooooooooooo..            ",
"           ..OOOOOOOOXXXXXXXX.ooooooooooooooooooo++.            ",
"           .OOOOOOOOOOXXXXXXXX.oooooooooooooooo++++.            ",
"          .OOOOOOOOOOOXXXXXXXXX.oooooooooooo+++++++.            ",
"          .OOOOOOOOOOOOXXXXXXXX.ooooooooo++++++++++.       @    ",
"          .OOOOOOOOOOOOXXXXXXXXX.oooooo++++++++++++.     @@@    ",
"          .OOOOOOOOOOOOXXXXXXXXX.ooo+++++++++++++++.    @@@@    ",
"          .OOOOOOOOOOOOXXXXXXXXXX.+++++++++++++++++.  @@@@@@    ",
"          .OOOOOOOOOOOOXXXXXXXXXX.+++++++++++++++++.@@@@@@@@    ",
"          .OOOOOOOOOOOOXXXXXXXXXX.+++++++++++++++++@@@@@@@@     ",
"          .OOOOOOOOOOOOXXXXXXXXXX.+++++++++++++++@@@@ @@@@@     ",
"          .OOOOOOOOOOOOXXXXXXXXOO.++++++++++++++@@@.   @@@@     ",
"          .OOOOOOOOOOOOXXXXOOOO##.++++++++++++@@@@+.   @@@@     ",
"          .OOOOOOOOOOOOOOOO######.++++++++++@@@@@++.    @@@     ",
"          .OOOOOOOOOOOO##########.+++++++++@@@@++++.    @@@     ",
"          .OOOOOOOO##############.+++++++@@@@@++++.     @@      ",
"          .OOOO##################.++++++@@@@++++..       @      ",
"          .OOXOO#################.++O@@@@@@++++.         @      ",
"          .OXXOOOOOOOOO#########O.+O@@@@@+++++.                 ",
"          .OOOO$O######OOOOOO###O.+O@@@@++++..                  ",
"         OOO$$$$$O###########OOO#.+O@@@++++.                    ",
"       OO$$$$$XXXXOO#########O###.+OO@@+++.                     ",
"    OOO$$$$XXXXoooXXO########O###.++O++++.X                     ",
"   O$$$$$XXXXXXXXXXoXO#######O###.++++++.XX                     ",
"  O$$$$$$$$$$XXXXXXXXXOO####O####.++++..XXX                     ",
"  O$%%OOO%$$$$$$$XXXX$$$O###O###O.+++..XXXO                     ",
"  O$$$$%%OOOOO%%$$$$$$$$.O##O##OX.++.XXXXOO                     ",
"  OOOOO$$$OOOOOOOOO$$$.OO O#O#O.....XXXXOOO                     ",
"       OOOOOO$$$OOO.OOO    OOO  XXXXXXOOOOO                     ",
"                                XXXXXOOOOOO                     "};
