/* XPM */
static char * ctwm_new_xpm[] = {
/* width height ncolors chars_per_pixel */
"64 38 13 1",
/* colors */
" 	s None	c None",
".	c firebrick",
"X	c red",
"o	c slate grey",
"O	c tomato",
"+	c black",
"@	c dark slate grey",
"#	c yellow",
"$	c orange",
"%	c gold",
"&	c white",
"*	c lemon chiffon",
"=	c tan",
/* pixels */
" ....                .X.               ..XXXoooo  .O.           ",
" .XXX..             .XXX.              .XXXXXXXXo.X.            ",
"  .XXXX...          .XXXX.           ...XXXXXXXoXXX.            ",
"  .XXXXXXX...      .XXXXXX.      ....XX.XXXXXooXXX.             ",
"   .XXXXXXXXX..    .XXXXXXX.   ..XXXXXX.XXXXoXXXXX.             ",
"    .XXXXXXXXXX....++++++++++++++++++++.XXoo+++++++    ........ ",
"    .XXXXXXXXXXXX++@@@@@@@@++###$$$$$$$.Xo########++...XXXXXXX. ",
"     .XXXXXXXXX++@@@@@@@@@@@@+###$$$$$$.Xo#########++XXXXXXXX.  ",
"      .XXXXXXX+oooooo@@@@@@@@@+###$$$$#.Xo##########++XXXXXXX.  ",
"      .XXXXXX++oooooooo@@@@@@@@+###$$##XXo#########%%+XXXXXX.   ",
"       .XXXXX+oooooooooo@@@@@@@@+###$$#XXo#######%%%%+XXXXX.    ",
"       .XXXX+ooooooooooo@@@@@@@@@+##$$#XXo####%%%%%%%+XXXX.     ",
"        .XXX+oooooooooooo@@@@@@@@+###$#XXo#%%%%%%%%%%+XXX.      ",
"         .XX+oooooooooooo@@@@@@@@@+##$$XXo%%%%%%%%%%%+XX.       ",
"         .XX+oooooooooooo@@@@@@@@@+##$$XXo%%%%%%%%%%%+XX.       ",
"          .X+oooooooooooo@@@@@@@@@@+%%$XXo%%%%%%%%%%%+X.        ",
"          .X+oooooooooooo@@@@@@@@@@+%%oXXo%%%%%%%%%%%+.         ",
"           .+oooooooooooo@@@@@@@@@@+%%oXXo%%%%%%%%%%%+          ",
"         ...+oooooooooooo@@@@@@@@@@+%%oXXo%%%%%%%%%%%+          ",
"    .....XXX+oooooooooooo@@@@@@@@oo+%%oXXo%%%%%%%%%%%+          ",
" ...XXXXXXXX+oooooooooooo@@@@oooo&&+%%oXXo%%%%%%%%%%%+          ",
"  ..XXXXXXXX+oooooooooooooooo&&&&&&+%%oXXo%%%%%%%%%%%+          ",
"    ..XXXXXX+oooooooooooo&&&&&&&&&&+%%oXXo%%%%%%%%%%%+          ",
"      ..XXXX+oooooooo&&&&&&&&&&&&&&+%%oXXo%%%%%%%%%%+.          ",
"        ..XX+oooo&&&&&&&&&&&&&&&&&&+%%oXXo%%%%%%%%++XX.         ",
"          .X+oo@oo&&&&&&&&&&&&&&&&&+%%oXXX%%%%%%%+XXXXX.        ",
"         .XX+o@@ooooooooo&&&&&&&&&o+%oXXXX%%%%%%+XXXXXXX.       ",
"        .XXX+oooo*o&&&&&&oooooo&&&o+%oXXXX%%%%++XXXXXXXXX.      ",
"       .XXXooo*****o&&&&&&&&&&&ooo&+%oXXX%%%%+XXXXXXXXXXXX.     ",
"      .XXoo*****@@@@oo&&&&&&&&&o&&&+%ooXX%%%+XXXXXXXXXXXXXX.    ",
"     .ooo****@@@@###@@o&&&&&&&&o&&&+%%o%%%%+XXXXXXXXXXXXXXXX.   ",
"    .o*****@@@@@@@@@@#@o&&&&&&&o&&&+%%%%%%+XXXXXXXXXXXXXXXXXX.  ",
"   .o**********@@@@@@@@@oo&&&&o&&&&+%%%%++X.....XXXXXXXXXXXXX.  ",
"  .Xo*==ooo=*******@@@@***o&&&o&&&o+%%%++XXX.   ..........XXXX. ",
" .XXo****==ooooo==********+o&&o&&o@+%%+..XXX.             ..... ",
"....ooooo***ooooooooo***+ooXo&o&o+++++.  ...X.                  ",
"         ooooooXXXooo+oooXXXXoooXXXXXXX.    ..                  ",
"            .XXXXXXXXXXXXXXXXXXXXXXXXXXX.                       "};
