#define mail_none_width 64
#define mail_none_height 54
static char mail_none_bits[] = {
   0x00, 0x00, 0x00, 0x00, 0x00, 0x00, 0x00, 0x00, 0x00, 0x00, 0x00, 0x00,
   0x00, 0x00, 0x00, 0x00, 0x00, 0x00, 0x00, 0x00, 0x00, 0x00, 0x00, 0x00,
   0x00, 0x00, 0x00, 0x00, 0x00, 0x00, 0x00, 0x00, 0x00, 0x00, 0x00, 0x00,
   0x00, 0x00, 0x00, 0x00, 0x00, 0x00, 0x00, 0x00, 0x00, 0x00, 0x00, 0x00,
   0x00, 0x00, 0x00, 0x00, 0x00, 0x00, 0x00, 0x00, 0x00, 0x00, 0x00, 0x00,
   0x00, 0x00, 0x00, 0x00, 0x00, 0x00, 0x00, 0x00, 0x00, 0x00, 0x00, 0x00,
   0x00, 0x00, 0x00, 0x00, 0x00, 0x00, 0x00, 0x00, 0x00, 0x00, 0x00, 0x00,
   0x00, 0x00, 0x00, 0x00, 0x00, 0x00, 0x00, 0x00, 0x00, 0x00, 0x00, 0x00,
   0x00, 0x00, 0xf0, 0xff, 0xff, 0xff, 0x7f, 0x00, 0x00, 0x00, 0xc8, 0x00,
   0x00, 0x00, 0xc0, 0x00, 0x00, 0x00, 0x04, 0x01, 0x00, 0x00, 0x80, 0x00,
   0x00, 0x00, 0x04, 0x01, 0x00, 0x00, 0x00, 0x01, 0x00, 0x00, 0x04, 0x72,
   0x1c, 0x00, 0x00, 0x01, 0x00, 0x00, 0x04, 0x62, 0x0c, 0x02, 0x00, 0x03,
   0x00, 0x00, 0x34, 0xa2, 0x0a, 0xc5, 0x09, 0x02, 0x00, 0x00, 0x44, 0x22,
   0x89, 0x88, 0x08, 0x02, 0x00, 0x00, 0x84, 0x22, 0x89, 0x88, 0x08, 0x02,
   0x00, 0x00, 0x04, 0x22, 0x88, 0x8f, 0x08, 0x02, 0x00, 0x00, 0x04, 0x22,
   0x88, 0x88, 0x48, 0x02, 0x00, 0x00, 0x04, 0x22, 0x88, 0x88, 0x38, 0x02,
   0x00, 0x00, 0x04, 0x22, 0x88, 0xc8, 0x01, 0x02, 0x00, 0x00, 0x04, 0x22,
   0x88, 0x1c, 0x80, 0x03, 0x00, 0x00, 0x0c, 0x22, 0xc8, 0x01, 0xf0, 0x00,
   0x00, 0x00, 0x14, 0x22, 0x1c, 0x00, 0x0e, 0x00, 0x00, 0x00, 0x28, 0x72,
   0x00, 0xe0, 0x01, 0x00, 0x00, 0x00, 0x50, 0x02, 0x00, 0x1e, 0x00, 0x00,
   0x00, 0x00, 0xa0, 0x02, 0xf0, 0x03, 0x00, 0x00, 0x00, 0x00, 0x40, 0x03,
   0x1e, 0x02, 0x00, 0x00, 0x00, 0x00, 0x80, 0x82, 0x23, 0x02, 0x00, 0x00,
   0x00, 0x00, 0x00, 0x63, 0x24, 0x02, 0x00, 0x00, 0x00, 0x00, 0x00, 0x1e,
   0x24, 0x02, 0x00, 0x00, 0x00, 0x00, 0x00, 0x00, 0x24, 0x02, 0x00, 0x00,
   0x00, 0x00, 0x00, 0x00, 0x24, 0x02, 0x00, 0x00, 0x00, 0x00, 0x00, 0x00,
   0x24, 0x02, 0x00, 0x00, 0x00, 0x00, 0x00, 0x00, 0x24, 0x02, 0x00, 0x00,
   0x00, 0x00, 0x00, 0x94, 0x25, 0x02, 0x00, 0x00, 0x00, 0x00, 0x00, 0x98,
   0x24, 0x02, 0x00, 0x00, 0x00, 0x00, 0x00, 0xb4, 0x24, 0x02, 0x00, 0x00,
   0x00, 0x00, 0x00, 0xee, 0x24, 0x02, 0x00, 0x00, 0x00, 0x00, 0x00, 0xf0,
   0x24, 0xc2, 0x00, 0x00, 0x00, 0x00, 0x00, 0xa0, 0x25, 0x7a, 0x00, 0x00,
   0x00, 0x00, 0x00, 0x7c, 0x27, 0x36, 0x03, 0x00, 0x00, 0x00, 0x00, 0x1c,
   0x26, 0x0f, 0x02, 0x00, 0x00, 0x00, 0x00, 0x04, 0x26, 0x0b, 0x00, 0x00,
   0x00, 0x00, 0x00, 0x00, 0xa4, 0x07, 0x00, 0x00, 0x00, 0x00, 0x00, 0x00,
   0xa4, 0x01, 0x00, 0x00, 0x00, 0x00, 0x00, 0x00, 0xac, 0x02, 0x00, 0x00,
   0x00, 0x00, 0x00, 0x00, 0x78, 0x02, 0x00, 0x00, 0x00, 0x00, 0x00, 0x00,
   0x30, 0x00, 0x00, 0x00, 0x00, 0x00, 0x00, 0x00, 0x00, 0x00, 0x00, 0x00};
