/* XPM */
static char * icon-full_pm[] = {
/* width height ncolors cpp [x_hot y_hot] */
"48 48 8 1 0 0",
/* colors */
" 	s none	m none	c none",
".	s iconGray2     m white c #bdbdbdbdbdbd",
"X	s iconGray6     m black c #636363636363",
"o	s iconColor3	m black	c red",
"O	s iconColor1	m black	c black",
"+	s iconColor6	m white	c yellow",
"@	s iconColor2	m white	c white",
"#	s iconColor4	m white	c green",
/* pixels */
"                                                ",
"                    .....X                      ",
"              .......ooooX                      ",
"              .oooooXooooX                      ",
"              .oooooXooooX                      ",
"              .oooooXooooX                      ",
"              .oooooXXXXXX                      ",
"              .XXXXXX                           ",
"              .X                                ",
"              .X                                ",
"           ...............................      ",
"         ..XXXXXXXXXXXXXXXXXXXXXXXXXXXXXXXXX    ",
"         .X...XXXXXXXXXXXXXXXXXXXXXXXXXXXXXXX   ",
"        .XXXXX.XXXXXXXXXXXXXXXXXXXXXXXXXXXXXXX  ",
"        .XXXXXX.XXXXXXXXXXXXXXXXXXXXXXXXXXXXXX  ",
"   OOOOOOOOOOOOO.XXXXXXXXXXXXXXXXXXXXX+X++XXXXX ",
"   OOO@@@@@@@@@@.XXXXXXXXXXXXXXX++XXX++X++XXXXX ",
"   O@@OO@@@@@@@@..XXXXXXXX++XXX++++XX++X++XXXXX ",
"   O@@@@OO@@@@@@@.XX++XXXX++XX++++++X++X++XXXXX ",
"   O@@@@@OOOOOOOO.XX+++XX+++XX++XX++X++X++XXXXX ",
" OOOOOOOO@@@@@@@@.XX++++++++XX++XX++X++X++XXXXX ",
" OOO@@@@@@@@@@@@@.XX++++++++XX++++++X++X++X++XX ",
" O@@OO@@@@@@@@@@O.XX++X++X++XX++++++X++X+++++XX ",
" O@@@@OO@@@@@@OO@.XX++XXXX++XX++XX++X++X+++XXXX ",
" O@@@@@@OO@@OO@@@.XX++XXXX++XX++XX++X++XXXXXXXX ",
" O@@@@@@@@OO@@@@@.XX++XXXX++XX++XX++XXXXXXXXX   ",
" O@@@@@@@@@@@@@@@.XX++XXXX++XX++XXXXXXXXXX      ",
" O@@@@@@@@@@@OOOO.XX++XXXX++XX++XXXXXXX         ",
" O@@@@@@@OOOOO....XX++XXXX++XXXXXXXX            ",
" O@@@OOOOO..O.....XX++XXXXXXXXXXX               ",
" OOOOO.......O....XX++XXXXXXXOOOO               ",
"   O..........O...XXXXXXXXOOOOOO#               ",
"  X............OO.XXXXX OOO#OOOO#  ##           ",
"  X..............XXX    #OO#OOOO# ######        ",
" X..............XX      #OO#OOOO# #O#O###       ",
" X..............X    ## #OO#OOOO#  ###O#        ",
" X.............XX  ###O##OO###OO# #O#####       ",
" X.............X   #OO#O#OO###OO#####O#         ",
" X............XX  #O#####OO#O##O##  ##          ",
" X...........XX    ##O###OO#O#O##               ",
"  X.........XX       #  ##O#O####               ",
"   X.......XX           ##O#OO######            ",
"    X.....XX        ### ##O#OO### #O#           ",
"     XXXXX          #O####O#O##O#  #            ",
"                    ##  #O##O##O#               ",
"                        ####O####               ",
"                         #O######               ",
"                                                "};
