#define xmail_new_width 56
#define xmail_new_height 56
static unsigned char xmail_new_bits[] = {
 0x00,0x00,0xc0,0x00,0x80,0x01,0x00,0x00,0x00,0x40,0x01,0xc0,0x01,0x70,0x0c,
 0x00,0x40,0x06,0xe0,0x01,0x48,0x32,0x00,0x40,0x08,0xf0,0x01,0x24,0xc4,0x00,
 0x40,0x10,0xf0,0x01,0x23,0x08,0x07,0x40,0x60,0xf0,0x81,0x10,0x08,0x18,0x20,
 0x80,0xf0,0x60,0x10,0x10,0xe0,0x20,0x80,0x7f,0x10,0x08,0x20,0x00,0x23,0xe0,
 0x7f,0x0c,0x08,0x40,0x00,0x2c,0x70,0xd0,0x02,0x04,0x80,0x00,0x30,0x18,0x90,
 0x01,0x04,0x00,0x01,0x00,0x0e,0x10,0x03,0x02,0x00,0x01,0x00,0x07,0x10,0x06,
 0x02,0x00,0x02,0x80,0x01,0x10,0x06,0x01,0x00,0x04,0xc0,0x00,0x10,0x07,0x01,
 0x00,0x08,0xe0,0x1f,0x90,0x85,0x00,0x00,0x10,0xf0,0x3f,0xd0,0x84,0x00,0x00,
 0x10,0xb8,0xee,0x70,0x44,0x00,0x00,0x20,0x5c,0xd5,0x31,0x44,0x00,0x00,0x40,
 0xae,0xae,0x19,0x84,0x01,0x00,0x30,0x56,0x5d,0x1f,0x04,0x02,0x00,0x0e,0x8a,
 0xb4,0x17,0x04,0x0c,0xc0,0x01,0x46,0x64,0x13,0x04,0x30,0x38,0x00,0x22,0xc4,
 0x11,0x04,0x40,0x04,0x00,0x12,0x84,0x11,0x04,0x20,0x38,0x00,0x0a,0x04,0x11,
 0x04,0x18,0xc0,0x01,0xfa,0x07,0x11,0x04,0x04,0x00,0x0e,0x0a,0x00,0x11,0x06,
 0x02,0x00,0x30,0x1a,0x00,0x01,0x83,0x01,0x00,0x20,0x3a,0x80,0x81,0x41,0x00,
 0x00,0x10,0x7a,0x40,0xc1,0x20,0x00,0x00,0x10,0xfa,0xa0,0x61,0x40,0x00,0x00,
 0x08,0xfa,0x51,0x31,0x80,0x00,0x00,0x04,0xf2,0x0b,0x19,0x80,0x00,0x00,0x02,
 0xf2,0x07,0x7d,0x00,0x01,0x00,0x02,0x1a,0x00,0x97,0x01,0x02,0x00,0x01,0x0f,
 0x00,0x13,0x0e,0x04,0x80,0xc0,0xfe,0xff,0x11,0x30,0x08,0x40,0x30,0xfe,0xff,
 0x11,0xc0,0x11,0x40,0x0c,0x02,0x00,0x11,0x00,0x16,0x20,0x03,0xaa,0x6a,0x11,
 0x00,0x18,0xe0,0x00,0xaa,0x2b,0x11,0x00,0x00,0x00,0x00,0xba,0x2a,0x11,0x00,
 0x00,0x00,0x00,0x2a,0x29,0x11,0x00,0x00,0x00,0x80,0x02,0x00,0x11,0x00,0x80,
 0x85,0xd8,0x02,0x00,0x91,0x02,0x40,0xc5,0x92,0x52,0x15,0x51,0x46,0x42,0x69,
 0xb2,0xaa,0x2a,0xb1,0x44,0xc6,0xee,0xaa,0x82,0x02,0x61,0x64,0xb5,0x8a,0x22,
 0x12,0x11,0xa9,0xa9,0x10,0x29,0xc8,0xa2,0x0b,0xad,0xc0,0xba,0xc4,0x4a,0xc6,
 0x86,0x87,0x4e,0x5a,0xdb,0x67,0x07,0xc0,0x7c,0xee,0x3f,0xb7,0xdc,0x8e,0xc7,
 0xd2,0x33,0xa5,0x2a,0x8f,0x1d,0xe3,0x73,0xb9,0x7b,0xfd,0x72,0xf9,0xff,0x4e,
 0xe7,0xd4};
