/* XPM */
static char *install_recol_xpm[] = {
/* width height ncolors chars_per_pixel */
"32 32 8 1",
/* colors */
"  c black",
". c green",
"X c grey",
"o c NavyBlue",
"O c white",
"+ c SlateGrey",
"@ c None",
"# c blue",
/* pixels */
"@@@@@@@@@@                @@@@@@",
"@@@@  @@@ XXXXXXXXXXXXXXXX @@@@@",
"@@@ O @@@ X              X +@@@@",
"@@ OO @@@ X ############ X ++@@@",
"@ OO O  @ X #######O#O## X ++@@@",
" OO OOO      ######O#O## X ++@@@",
" O OOO OOOO  ######O#O## X ++@@@",
"  OOO OOOO o ########O## X ++@@@",
"@ O    OO oo ########O## X ++@@@",
"@@ OOOO  ooo ########### X ++@@@",
"@@      oooo ########### X ++@@@",
"@@ oooo oooO ########### X ++@@@",
"@@ oooo ooOO ########### X ++@@@",
"@@ oooo oOOO             X ++@@@",
"@@ OOOO OOOO XXXXXXXX..XXX ++@@@",
"@@ OOOO OOOO                 @@@",
"@@ OOOO OO O XXXXXXXXXXXXXXXX @@",
"@@ OOOO O OO XXXXXXXXXXXXXXXX +@",
"@@ OOOO OO O XXXXXXXX      XX ++",
"@@ O OO O OO XXXXXXXXX  X   X ++",
"@@ OO O OO O XXXXXXXXXX       ++",
"@@ O OO O OO                 +++",
"@@ OO O OOOO +++++++++++++++++++",
"@@ O OO OOO  ++++++++++++++++++@",
"@@ OO O OO +         @@@@@@@@@@@",
"@@ O OO O ++ OOXXOX       @@@@@@",
"@@ OOOO  ++++       OXXOXO @@@@@",
"@@ OOOO ++++@@    O         @@@@",
"@@     ++++@@@@         O    @@@",
"@@@@++++++@@@@@@+             @@",
"@@@@+++++@@@@@@@@++++++       +@",
"@@@@@@@@@@@@@@@@@@@@@@@+++++++++"
};
