/* XPM */
static char *x11tiles_xpm[] = {
/* width height ncolors chars_per_pixel */
"16 16 7 1",
/* colors */
"  c black",
". c lime green",
"X c green",
"o c None s None",
"O c yellow",
"+ c wheat",
"* c dark slate grey",
/* pixels */
"oooooooooooooooo",
"oooooooooooooooo",
"oooooooooooooooo",
"oooo.XX.oooooooo",
"ooooXXXXX.oooooo",
"ooo.XX***XXX.ooo",
"oooXX**XX*XXOooo",
"oo.XXX**XXXX+ oo",
"ooXX*XX**XXO+  o",
"o.XXX***XXX+X oo",
"oXXXXXXXXXO+  oo",
"oX++XXXXXX+X ooo",
"ooXX+++XXO+  ooo",
"ooooXXX+++X oooo",
"oooooooXXX  oooo",
"oooooooooooooooo"
};
