/* XPM */
static char *x11tiles_xpm[] = {
/* width height ncolors chars_per_pixel */
"16 16 6 1",
/* colors */
"  c black",
". c red",
"X c None s None",
"o c white",
"O c yellow",
"+ c wheat",
/* pixels */
"XXXXXXXoXXXXXXXX",
"XXXXXXX.XXXXXXXX",
"XXXXXXX.XXXoXXXX",
"XXXoXXX.XXX.XXXX",
"XXX.XXX.XXX.XXXX",
"XXX.XXO.OXX.XXXX",
"XXO.OXXOXXO.OXXX",
"XXXOXXXOXX OXXXX",
"XXX+OOOOOOO+X XX",
"XXXXXX+O+  X XXX",
"XXXXXXXOXX   XX ",
"XXXXXX+O+      X",
"XXXXX+OOOO XX XX",
"XXXXXXOOO  XXXXX",
"XXXXXXXXXXXXXXXX",
"XXXXXXXXXXXXXXXX"
};
