/* XPM */
static char *x11tiles_xpm[] = {
/* width height ncolors chars_per_pixel */
"16 16 5 1",
/* colors */
"  c black",
". c lime green",
"X c green",
"o c None s None",
"O c wheat",
/* pixels */
"oooooooooooooooo",
"oooooooooooooooo",
"oooooooooooooooo",
"ooooO..oo.Oooooo",
"oooooO...O  oooo",
"ooooooO.O  ooooo",
"oooooOX X. ooooo",
"ooooOXO O.. oooo",
"oooOXO  X... ooo",
"ooOXOX  O.... oo",
"ooOOX  ..O... oo",
"ooOXO  ..X... oo",
"oooOX ....X. ooo",
"oooo        oooo",
"oooooooooooooooo",
"oooooooooooooooo"
};
