/* XPM */
static char *x11tiles_xpm[] = {
/* width height ncolors chars_per_pixel */
"16 16 5 1",
/* colors */
"  c black",
". c orange",
"X c sienna",
"o c peru",
"O c None s None",
/* pixels */
"OOOOOOOOOOOOOOOO",
"OOOOOOOOOOOOOOOO",
"OOOOOOOOOOOOOOOO",
"OOOOOOOOOOooOOOO",
"OOOOOOOOX.oo OOO",
"OOOOOOOooooo OOO",
"OOOOOOXooooX OOO",
"OOOOOOooo.o  OOO",
"OOOOOX.ooo  OOOO",
"OOOOXoooX  OOOOO",
"OOOXooX  OOOOOOO",
"OOOoX  OOOOOOOOO",
"OOoX OOOOOOOOOOO",
"OoX OOOOOOOOOOOO",
"OX OOOOOOOOOOOOO",
"OOOOOOOOOOOOOOOO"
};
