/* XPM */
static char *x11tiles_xpm[] = {
/* width height ncolors chars_per_pixel */
"16 16 5 1",
/* colors */
"  c black",
". c None s None",
"X c white",
"o c wheat",
"O c slate grey",
/* pixels */
"................",
"................",
"................",
"................",
"................",
"....OoXoO.......",
"....oXXXo.......",
"...OXXXXXO......",
"...oXXXXXo.   ..",
"...XXXXXXo    ..",
"...oXXXXoo    ..",
"...OoXXooO   ...",
"....OoooO   ....",
"................",
"................",
"................"
};
