/* XPM */
static char *x11tiles_xpm[] = {
/* width height ncolors chars_per_pixel */
"16 16 6 1",
/* colors */
"  c black",
". c lime green",
"X c green",
"o c orange",
"O c None s None",
"+ c yellow",
/* pixels */
"OOOOOOOOOOOOOOOO",
"OOOOOOOOOOOOOOOO",
"OOOOOOOOOOOOOOOO",
"OOOOOOOOO..ooOOO",
"OOOOOOOO.Xo.OOOO",
"OOOOOOO.XXX.  OO",
"OOOOO..X+X.  OOO",
"OOO.X+++X..  OOO",
"OO.X++XXX.. OOOO",
"OO.++XXXX.. OOOO",
"OO.++XXXX.O OOOO",
"OOO.XXXX.O  OOOO",
"OOOO...OO  OOOOO",
"OOOOO     OOOOOO",
"OOOOOOOOOOOOOOOO",
"OOOOOOOOOOOOOOOO"
};
