/* XPM */
static char *x11tiles_xpm[] = {
/* width height ncolors chars_per_pixel */
"16 16 6 1",
/* colors */
"  c black",
". c sienna",
"X c None s None",
"o c yellow",
"O c slate grey",
"* c dark slate grey",
/* pixels */
"XXXXXXXXXXXXXXXX",
"XXXXXXXXXXXXXXXX",
"XXXXXXXXXXXXXXXX",
"XXXXXXXXXXXXXXXX",
"XXXXXXoooXXXXXXX",
"XXXXXoooXXXXXXXX",
"XXXXXoo**O XXXXX",
"XXXXOOo**OO XXXX",
"XXXXOOO*OOO XXXX",
"XXXXOOOOOOO XXXX",
"XXXXO OO  O XXXX",
"XXXX. OO X. XXXX",
"XXXXXXX  XX XXXX",
"XXXXXXXXXXXXXXXX",
"XXXXXXXXXXXXXXXX",
"XXXXXXXXXXXXXXXX"
};
