/* XPM */
static char *x11tiles_xpm[] = {
/* width height ncolors chars_per_pixel */
"16 16 5 1",
/* colors */
"  c black",
". c lime green",
"X c green",
"o c None s None",
"* c None s None",
/* pixels */
"oooooooooooooooo",
"oooooooooooooooo",
"oooooooooooooooo",
"oooooooooooooooo",
"oooooooooooooooo",
"oooooooooooooooo",
"oooooooooooooooo",
"ooooooo oooooooo",
"ooooo.. ..oooooo",
"oooo.*   *. oooo",
"oooo.X.....  ooo",
"oooooX....  oooo",
"oooooo    oooooo",
"oooooooooooooooo",
"oooooooooooooooo",
"oooooooooooooooo"
};
