/* XPM */
static char *x11tiles_xpm[] = {
/* width height ncolors chars_per_pixel */
"16 16 4 1",
/* colors */
"  c black",
". c red",
"X c None s None",
"o c wheat",
/* pixels */
"XXXXXXXXXXXXXXXX",
"XXXXXXXXXXXXXXXX",
"XXXXXXXXXXXXXXXX",
"XXXXXXXXXXXXXXXX",
"XXXXXXXXXXXXXXXX",
"XXXXXXXXXXXXXXXX",
"XXXXXXXXXXXXXXXX",
"XXXXXooooXXXXXXX",
"XXXX.o...ooXXXXX",
"XXXo.o.ooo. XXXX",
"XXXooooo... XXXX",
"XXXX.o.oooo XXXX",
"XXXXXo.oo.  XXXX",
"XXXXXX     XXXXX",
"XXXXXXXXXXXXXXXX",
"XXXXXXXXXXXXXXXX"
};
