/* XPM */
static char *x11tiles_xpm[] = {
/* width height ncolors chars_per_pixel */
"16 16 4 1",
/* colors */
"  c black",
". c None s None",
"X c lemon chiffon",
"o c tan",
/* pixels */
"................",
"................",
"................",
"................",
".......XX.......",
"......XXoXX.....",
".....XXoXXoXX...",
"....XXoXXoXXoXX.",
"...XXoXXoXXoXX .",
"..XXoXXoXXoXX ..",
"... XXoXXoXX ...",
"..... XXoXX ....",
"....... XX .....",
"......... ......",
"................",
"................"
};
