/* XPM */
static char *x11tiles_xpm[] = {
/* width height ncolors chars_per_pixel */
"16 16 3 1",
/* colors */
"  c black",
". c orange",
"X c None s None",
/* pixels */
"XXXXXXXXXXXXXXXX",
"XXXXXXXXXXXXXXXX",
"XXXXXXXXXXXXXXXX",
"XXXXXXXXXXXXXXXX",
"XXXXXXXXXXXXXXXX",
"XXXXXXXXXXXXXXXX",
"XXXXX.....XXXXXX",
"XXXX..   ..XXXXX",
"XXXX.  XX . XXXX",
"XXXX. XXXX. XXXX",
"XXXX.. XX.. XXXX",
"XXXXX.....  XXXX",
"XXXXXX     XXXXX",
"XXXXXXXXXXXXXXXX",
"XXXXXXXXXXXXXXXX",
"XXXXXXXXXXXXXXXX"
};
