/* XPM */
static char *x11tiles_xpm[] = {
/* width height ncolors chars_per_pixel */
"16 16 5 1",
/* colors */
"  c black",
". c orange",
"X c sienna",
"o c peru",
"O c None s None",
/* pixels */
"OOOOOOOOOOOOOOOO",
"OOOOOOOOOOOOOOOO",
"OOOOOOOOOOOOOOOO",
"OOOOOOOOOOOOOOOO",
"OOOOOOOOOOOOOOOO",
"OOOOOOOOOOOOOOOO",
"OOOOOo..oXOOOOOO",
"OOOOoX   oXOOOOO",
"OOOO. OOO o OOOO",
"OOOO. OOOOo OOOO",
"OOOOXo OOoX OOOO",
"OOOOOXoooX  OOOO",
"OOOOOO     OOOOO",
"OOOOOOOOOOOOOOOO",
"OOOOOOOOOOOOOOOO",
"OOOOOOOOOOOOOOOO"
};
