#define wall_3_3_width 24
#define wall_3_3_height 24
static char wall_3_3_bits[] = {
0x00,0x00,0x00,0x00,0x00,0x00,0x00,0x00,0x00,0x00,0x00,0x00,
0x00,0x00,0x00,0x00,0x00,0x00,0xff,0xff,0xff,0x00,0x00,0x00,
0xff,0xff,0xff,0x00,0x00,0x00,0xff,0xff,0xff,0x00,0x20,0x00,
0x00,0x20,0x00,0xff,0xa7,0xff,0x00,0xa6,0x01,0x00,0xa5,0x02,
0x80,0xa4,0x02,0x7f,0xa4,0xfe,0x40,0xa4,0x02,0x40,0xa4,0x02,
0x40,0xa4,0x02,0x40,0xa4,0x02,0x40,0xa4,0x02,0x40,0xa4,0x02};
