#define noname_width 64
#define noname_height 64
static char noname_bits[] = {
 0xff,0xff,0xff,0xff,0xff,0xff,0xff,0xff,0x01,0x00,0x00,0x00,0x00,0x00,0x00,
 0x80,0x01,0x00,0x00,0xf0,0x1f,0x00,0x00,0x80,0x01,0x00,0x00,0x0f,0xe0,0x01,
 0x00,0x80,0x01,0x00,0xc0,0x00,0x00,0x06,0x00,0x80,0x01,0x00,0x30,0x00,0x00,
 0x18,0x00,0x80,0x01,0x00,0x0c,0x00,0x00,0x60,0x00,0x80,0x01,0x00,0x02,0x00,
 0x00,0x80,0x00,0x80,0x01,0x00,0x01,0x00,0x00,0x00,0x01,0x80,0x01,0x80,0x00,
 0x00,0x00,0x00,0x02,0x80,0x01,0x40,0x00,0x00,0x00,0x00,0x04,0x80,0x01,0x20,
 0xc0,0x00,0x00,0x06,0x08,0x80,0x01,0x10,0xc0,0x07,0xc0,0x07,0x10,0x80,0x01,
 0x08,0x00,0x1f,0xf0,0x01,0x20,0x80,0x01,0x08,0x00,0x18,0x30,0x00,0x20,0x80,
 0x01,0x04,0x00,0x00,0x00,0x00,0x40,0x80,0x01,0x04,0x00,0x06,0xc0,0x00,0x40,
 0x80,0x01,0x02,0x80,0x19,0x30,0x03,0x80,0x80,0x01,0x02,0x40,0x00,0x00,0x04,
 0x80,0x80,0x01,0x01,0x00,0x00,0x00,0x00,0x00,0x81,0x01,0x01,0x00,0x00,0x00,
 0x00,0x00,0x81,0x01,0x01,0x00,0x00,0x00,0x00,0x00,0x81,0x01,0x01,0x00,0x00,
 0x00,0x00,0x00,0x81,0x81,0x00,0x00,0x00,0x00,0x00,0x00,0x82,0x81,0x00,0x00,
 0x00,0x00,0x00,0x00,0x82,0x81,0x00,0x00,0x00,0x00,0x00,0x00,0x82,0x81,0x00,
 0x00,0x00,0x00,0x00,0x00,0x82,0x81,0x00,0x00,0x00,0x00,0x00,0x00,0x82,0x81,
 0x00,0x00,0x00,0x00,0x00,0x00,0x82,0x81,0x00,0x00,0x00,0x00,0x00,0x00,0x82,
 0x81,0x00,0x00,0xe0,0x0f,0x00,0x00,0x82,0x81,0x00,0x00,0xfe,0xff,0x00,0x00,
 0x82,0x01,0x01,0x80,0x1f,0xf1,0x03,0x00,0x81,0x01,0x01,0xe0,0x0f,0xe1,0x0f,
 0x00,0x81,0x01,0x01,0xf0,0x0f,0xe1,0x1f,0x00,0x81,0x01,0x01,0xf0,0x0f,0xe1,
 0x1f,0x00,0x81,0x01,0x02,0xf8,0x0f,0xa1,0x3f,0x80,0x80,0x01,0x02,0x78,0x08,
 0x21,0x7c,0x80,0x80,0x01,0x04,0x1c,0x08,0x20,0x70,0x40,0x80,0x01,0x04,0x04,
 0x10,0x10,0xc0,0x40,0x80,0x01,0x08,0x02,0x10,0x10,0x80,0x20,0x80,0x01,0x08,
 0x00,0x10,0x10,0x00,0x20,0x80,0x01,0x10,0x00,0x60,0x0c,0x00,0x10,0x80,0x01,
 0x20,0x00,0x80,0x03,0x00,0x08,0x80,0x01,0x40,0x00,0x00,0x00,0x00,0x04,0x80,
 0x01,0x80,0x00,0x00,0x00,0x00,0x02,0x80,0x01,0x00,0x01,0x00,0x00,0x00,0x01,
 0x80,0x01,0x00,0x02,0x00,0x00,0x80,0x00,0x80,0x01,0x00,0x0c,0x00,0x00,0x60,
 0x00,0x80,0x01,0x00,0x30,0x00,0x00,0x18,0x00,0x80,0x01,0x00,0xc0,0x00,0x00,
 0x06,0x00,0x80,0x01,0x00,0x00,0x0f,0xe0,0x01,0x00,0x80,0x01,0x00,0x00,0xf0,
 0x1f,0x00,0x00,0x80,0x01,0x00,0x00,0x00,0x00,0x00,0x00,0x80,0x01,0x00,0x00,
 0x00,0x00,0x00,0x00,0x80,0x01,0x00,0x00,0x00,0x00,0x00,0x00,0x80,0x01,0x00,
 0x00,0x00,0x00,0x00,0x00,0x80,0x01,0x00,0x00,0x00,0x00,0x00,0x00,0x80,0x01,
 0x00,0x00,0x00,0x00,0x00,0x00,0x80,0x01,0x00,0x00,0x00,0x00,0x00,0x00,0x80,
 0x01,0x00,0x00,0x00,0x00,0x00,0x00,0x80,0x01,0x00,0x00,0x00,0x00,0x00,0x00,
 0x80,0x01,0x00,0x00,0x00,0x00,0x00,0x00,0x80,0xff,0xff,0xff,0xff,0xff,0xff,
 0xff,0xff};
