#define gumby_width 64
#define gumby_height 64
static char gumby_bits[] = {
 0x00,0x00,0x00,0x00,0x00,0x00,0x00,0x00,0x00,0x00,0x00,0x00,0x00,0x00,0x00,
 0x00,0x00,0x00,0x00,0x00,0x00,0x00,0x00,0x00,0x00,0x00,0x00,0x00,0x00,0x00,
 0x00,0x00,0x00,0x00,0x00,0x00,0x00,0x00,0x00,0x00,0x00,0x00,0x00,0x00,0x00,
 0x00,0x00,0x00,0x00,0x00,0x00,0x00,0x00,0x00,0x00,0x00,0x00,0x00,0x00,0x00,
 0x00,0x00,0x00,0x00,0x00,0x00,0x00,0x00,0x00,0x00,0x00,0x00,0x00,0x00,0x00,
 0x00,0x00,0x00,0x00,0x00,0x00,0xe0,0x00,0x00,0x80,0x0f,0x00,0x00,0x00,0x20,
 0x01,0x00,0xe0,0x18,0x00,0x00,0x00,0x10,0x02,0x00,0x18,0x08,0x00,0x00,0x00,
 0x10,0x0e,0x00,0x07,0x08,0x00,0x00,0x00,0x20,0x0c,0xc0,0x00,0x0c,0x00,0x00,
 0x00,0x20,0x04,0x30,0x00,0x04,0x00,0x00,0x00,0x40,0x04,0x18,0x08,0x02,0x00,
 0x00,0x00,0x40,0x04,0x7c,0x1c,0x83,0x3f,0x00,0x00,0x40,0x04,0x04,0x80,0xe1,
 0x7f,0x00,0x00,0x40,0x04,0x64,0x8c,0xfc,0x4e,0x00,0x00,0x40,0x04,0x94,0xd2,
 0xee,0x85,0x00,0x00,0x40,0x04,0xf4,0x5e,0xdf,0xc3,0x00,0x00,0x40,0x04,0x64,
 0xcc,0xbf,0xc3,0x00,0x00,0x40,0x04,0x04,0xe1,0x3f,0xb9,0x00,0x00,0x40,0x04,
 0x84,0xe3,0x7d,0xe6,0x00,0x00,0x40,0x04,0x04,0xa0,0xfd,0xe3,0x01,0x00,0x40,
 0x04,0xc4,0xe7,0x7b,0x72,0x03,0x00,0x40,0x04,0x84,0x63,0x27,0x62,0x06,0x00,
 0x40,0x04,0x04,0x60,0x0f,0x3c,0x0c,0x00,0x40,0x08,0x04,0x60,0x1f,0x00,0x18,
 0x00,0x80,0x10,0x04,0xe0,0x06,0x00,0x20,0x00,0x80,0xe0,0x07,0xe0,0x03,0x00,
 0x60,0x00,0x00,0x01,0x04,0xe0,0x00,0x00,0x40,0x00,0x00,0x06,0x04,0xa0,0x01,
 0x00,0x42,0x00,0x00,0x3c,0x04,0x20,0x03,0x18,0x4e,0x00,0x00,0xe0,0x07,0x60,
 0x04,0x2c,0x78,0x00,0x00,0x00,0x04,0xe0,0x0c,0x64,0x28,0x00,0x00,0x00,0x04,
 0x90,0x19,0xc2,0x08,0x00,0x00,0x00,0x04,0x10,0x33,0x01,0x07,0x00,0x00,0x80,
 0x07,0x10,0xa2,0x00,0x00,0xfc,0xff,0xff,0x04,0x10,0x66,0x00,0x00,0x03,0x00,
 0x00,0x04,0x10,0x44,0x00,0x00,0x00,0x00,0x00,0x04,0x10,0x4c,0x00,0x00,0x00,
 0x00,0x00,0x04,0x10,0xc8,0x00,0x00,0x00,0x00,0x00,0x04,0x10,0x98,0x00,0x00,
 0x00,0x00,0x00,0x04,0x10,0x9c,0x00,0x00,0x00,0x00,0x00,0x06,0x10,0x94,0x00,
 0x00,0x00,0x00,0x00,0x02,0x10,0x96,0x00,0x00,0x00,0x00,0x00,0x02,0x10,0x92,
 0x00,0x00,0x00,0x00,0x00,0x02,0x90,0x91,0x00,0x00,0x00,0x00,0x00,0x02,0xd0,
 0x90,0x00,0x00,0x00,0x00,0x00,0x03,0x30,0x90,0x00,0x00,0x00,0x00,0x00,0x01,
 0x30,0x90,0x00,0x00,0x00,0x00,0x00,0x01,0x20,0x90,0x00,0x00,0x30,0x00,0x80,
 0x00,0x20,0x90,0x00,0x00,0x20,0x00,0x80,0x00,0x20,0x90,0x00,0x00,0x60,0x00,
 0x80,0x00,0x40,0x9c,0x00,0x00,0xc0,0xff,0xff,0x00,0x40,0x8e,0x00,0x00,0x80,
 0x00,0x40,0x00,0x40,0x88,0x00,0x00,0x01,0x01,0x60,0xc0,0xc0,0x78,0x00,0x00,
 0x01,0x03,0x20,0xe0,0x80,0x30,0x00,0x00,0x03,0x02,0x20,0xe0,0x81,0x00,0x00,
 0x00,0x07,0x04,0x20,0xe0,0x81,0x00,0x00,0x00,0x09,0x04,0x00,0xa0,0x81,0x00,
 0x00,0x00};
