#define noname_width 64
#define noname_height 64
static char noname_bits[] = {
 0x00,0x00,0x00,0x00,0x00,0x00,0x00,0x00,0x00,0x00,0x00,0x00,0x00,0x00,0x00,
 0x00,0x00,0x00,0x00,0x00,0x00,0x00,0x00,0x00,0x00,0x00,0x00,0x00,0x00,0x00,
 0x00,0x00,0x00,0x00,0x00,0x00,0x00,0x00,0x00,0x00,0x00,0x00,0x00,0x00,0x00,
 0x00,0x00,0x00,0x00,0x00,0x00,0x00,0x00,0x00,0x00,0x00,0x00,0x00,0x00,0x00,
 0x00,0x00,0x2a,0x00,0x00,0x00,0x05,0x00,0x00,0x00,0x41,0x00,0x00,0x00,0x0b,
 0x00,0x00,0x80,0x80,0x00,0x00,0x14,0x26,0x00,0x00,0x40,0x80,0x00,0x00,0x2c,
 0x4c,0x00,0x00,0x20,0x80,0x00,0x50,0x98,0x98,0x00,0x00,0x10,0x80,0x00,0xb0,
 0x30,0x31,0x01,0x00,0x08,0x40,0x00,0x60,0x62,0x62,0x02,0x00,0x04,0x40,0x00,
 0xc0,0xc4,0xc4,0x04,0x00,0x02,0x20,0x00,0x80,0x89,0x89,0x08,0x00,0x09,0x10,
 0x00,0x00,0x13,0x53,0x10,0x80,0x04,0x08,0x00,0x00,0x26,0x02,0x24,0x40,0x00,
 0x04,0x00,0x00,0x4c,0x01,0x20,0x20,0x01,0x02,0x00,0x00,0x18,0x00,0x24,0x90,
 0x00,0x01,0x00,0x00,0x20,0x08,0x12,0x48,0x80,0x00,0x00,0x00,0xc0,0x20,0x10,
 0x04,0x40,0x00,0x00,0x00,0x00,0x03,0x10,0x12,0x20,0x00,0x00,0x00,0x00,0x18,
 0x10,0x09,0x10,0x00,0x00,0x00,0x00,0xc0,0xa1,0x04,0x08,0x00,0x00,0x00,0x00,
 0x00,0x46,0x02,0x04,0x00,0x00,0x00,0x00,0x00,0x2c,0x01,0x01,0x00,0x00,0x00,
 0x00,0x00,0x98,0x80,0x00,0x00,0x00,0x00,0x00,0x00,0xc8,0x20,0x00,0x00,0x00,
 0x00,0x00,0x00,0x24,0x18,0x00,0x00,0x00,0x00,0x00,0x00,0x02,0x06,0x00,0x00,
 0x00,0x00,0x00,0x00,0x83,0x0f,0x00,0x00,0x00,0x00,0x00,0x80,0x48,0x27,0x00,
 0x00,0x00,0x00,0x00,0x40,0x34,0x86,0x00,0x00,0x00,0x00,0x00,0x20,0x28,0x06,
 0x02,0x00,0x00,0x00,0x00,0x10,0x34,0x0c,0x04,0x00,0x00,0x00,0x00,0x88,0x1a,
 0x0c,0x08,0x00,0x00,0x00,0x00,0x44,0x0d,0x18,0x10,0x00,0x00,0x00,0x00,0x82,
 0x06,0x30,0x20,0x00,0x00,0x00,0x00,0x51,0x03,0x60,0x40,0x00,0x00,0x00,0x80,
 0xa8,0x01,0xc0,0x80,0x00,0x00,0x00,0x40,0xd0,0x00,0x80,0x01,0x01,0x00,0x00,
 0x20,0x6a,0x00,0x00,0x03,0x02,0x00,0x00,0x10,0x35,0x00,0x00,0x06,0x04,0x00,
 0x00,0x88,0x1a,0x00,0x00,0x0c,0x08,0x00,0x00,0x44,0x0d,0x00,0x00,0x18,0x10,
 0x00,0x00,0xa2,0x06,0x00,0x00,0x30,0x20,0x00,0x00,0x51,0x03,0x00,0x00,0x60,
 0x40,0x00,0x80,0xa8,0x01,0x00,0x00,0xc0,0x80,0x00,0x40,0xd4,0x00,0x00,0x00,
 0x80,0x35,0x01,0x20,0x6a,0x00,0x00,0x00,0x00,0x53,0x02,0x10,0x35,0x00,0x00,
 0x00,0x00,0x4e,0x04,0x88,0x1a,0x00,0x00,0x00,0x00,0xcc,0x0a,0x18,0x0d,0x00,
 0x00,0x00,0x00,0x18,0x08,0x70,0x06,0x00,0x00,0x00,0x00,0x30,0x06,0xc0,0x01,
 0x00,0x00,0x00,0x00,0xc0,0x01,0x00,0x00,0x00,0x00,0x00,0x00,0x00,0x00,0x00,
 0x00,0x00,0x00,0x00,0x00,0x00,0x00,0x00,0x00,0x00,0x00,0x00,0x00,0x00,0x00,
 0x00,0x00,0x00,0x00,0x00,0x00,0x00,0x00,0x00,0x00,0x00,0x00,0x00,0x00,0x00,
 0x00,0x00,0x00,0x00,0x00,0x00,0x00,0x00,0x00,0x00,0x00,0x00,0x00,0x00,0x00,
 0x00,0x00};
