#define noname_width 64
#define noname_height 64
static char noname_bits[] = {
 0xff,0xff,0xff,0xff,0xff,0xff,0xff,0xff,0x01,0x00,0x00,0x00,0x00,0x00,0x00,
 0x80,0x01,0x00,0x00,0x00,0x00,0x00,0x00,0x80,0x01,0x00,0x7f,0x00,0x00,0x00,
 0x00,0x80,0x01,0x80,0x80,0x00,0x00,0x00,0x00,0x80,0x01,0x40,0x80,0x01,0x00,
 0x00,0x00,0x80,0x01,0x40,0x44,0x01,0x00,0x00,0x00,0x80,0x01,0x60,0xa4,0x02,
 0x00,0x00,0x00,0x80,0x01,0x50,0xe2,0x02,0x00,0x00,0x00,0x80,0x01,0x40,0xa0,
 0x02,0x00,0x00,0x00,0x80,0x01,0x20,0x20,0x07,0x00,0x00,0x00,0x80,0x01,0x20,
 0x90,0x0a,0x00,0x00,0x00,0x80,0x01,0x20,0xd1,0x02,0x00,0x00,0x00,0x80,0x01,
 0xd0,0x88,0x02,0x00,0x00,0x00,0x80,0x01,0x48,0xf9,0x05,0x00,0x00,0x00,0x80,
 0x01,0xa0,0xa9,0x0e,0x00,0x00,0x00,0x80,0x01,0xd0,0xd9,0x15,0x00,0x00,0x00,
 0x80,0x01,0x70,0x2d,0x07,0x00,0x00,0x00,0x80,0x01,0xd8,0x14,0x08,0x00,0x00,
 0x00,0x80,0x01,0x86,0x0c,0x08,0x00,0x00,0x00,0x80,0x01,0x81,0x04,0x08,0x00,
 0x00,0x00,0x80,0x81,0x40,0x0a,0x10,0x00,0x00,0x00,0x80,0x81,0x00,0x08,0x12,
 0x00,0x00,0x00,0x80,0x41,0x00,0x08,0x12,0x00,0x00,0x00,0x80,0x41,0x00,0x10,
 0x14,0x00,0x00,0x00,0x80,0x41,0x10,0x00,0x08,0x00,0x00,0x00,0x80,0x41,0x28,
 0x00,0x10,0x00,0x00,0x00,0x80,0x41,0x1c,0x20,0x10,0x00,0x00,0x00,0x80,0x21,
 0xac,0x20,0x08,0x00,0x00,0x00,0x80,0x21,0xd4,0x24,0x16,0x00,0x00,0x00,0x80,
 0x21,0xb2,0x11,0x11,0x00,0x00,0x00,0x80,0x11,0x52,0x0f,0x13,0x00,0x00,0x00,
 0x80,0x11,0xb2,0x0a,0x11,0x00,0x00,0x00,0x80,0x11,0x62,0x00,0x13,0x00,0x00,
 0x00,0x80,0x11,0x21,0x00,0x11,0x00,0x00,0x00,0x80,0x19,0x61,0x00,0x23,0x00,
 0x00,0xf8,0x80,0x09,0x26,0x00,0x45,0x00,0x00,0x54,0x87,0x19,0x58,0xc0,0x87,
 0x00,0x00,0x02,0xb8,0x29,0xe0,0x30,0x1c,0x01,0x00,0x55,0xd5,0x71,0x01,0x8f,
 0x63,0x01,0x80,0x28,0xc0,0xc1,0x07,0x40,0x40,0xfa,0x8f,0x55,0x95,0x01,0xf8,
 0x30,0x80,0x04,0xf0,0xaf,0xc2,0xe1,0x5f,0x6f,0x80,0x58,0x55,0x7c,0x91,0x1f,
 0xa8,0xa0,0xb1,0x10,0x00,0xc3,0xa3,0x55,0x1d,0xe0,0xb1,0xe3,0xd5,0x54,0xd7,
 0x01,0x0c,0xc0,0xc4,0x0f,0x42,0x04,0xac,0x55,0x05,0x40,0x4e,0xf0,0x57,0x44,
 0xdd,0x01,0x0c,0xf8,0xe0,0x00,0x98,0x09,0xb0,0x55,0x05,0x56,0x4e,0x7f,0x60,
 0xd3,0xf1,0x03,0x0c,0xa1,0x20,0x80,0x8b,0x26,0xc3,0x55,0x15,0x40,0x1f,0x00,
 0xd6,0x5d,0xc4,0x03,0x28,0x80,0xaa,0x02,0xa8,0xd8,0xa8,0x57,0xdd,0x01,0xfe,
 0x0f,0xd8,0x55,0xd1,0x03,0x30,0xfe,0x01,0x30,0xe8,0x58,0xa6,0x57,0x35,0x00,
 0x00,0x40,0x78,0xed,0xb8,0x03,0x10,0x00,0x00,0x00,0xa8,0xe8,0xd8,0x57,0x0d,
 0x54,0x05,0x00,0x54,0xed,0x9c,0x07,0x08,0xfe,0xaf,0xaa,0x2b,0x94,0xcf,0x4d,
 0x85,0x55,0xfd,0xff,0x55,0xd5,0x97,0x17,0xc4,0xaa,0xaa,0xaa,0x00,0x2a,0x80,
 0x2f,0x65,0x55,0x55,0x55,0x55,0x5d,0xd5,0xdf,0x38,0x00,0x00,0x00,0x80,0xbe,
 0x80,0x3d,0x57,0x55,0x55,0x55,0xf5,0x77,0xd5,0xff,0xff,0xff,0xff,0xff,0xff,
 0xff,0xff};
