#define noname_width 64
#define noname_height 64
static char noname_bits[] = {
 0x00,0x00,0x00,0x00,0x00,0x00,0x00,0x00,0x00,0x00,0x00,0x00,0x00,0x00,0x00,
 0x00,0x00,0x00,0x00,0x00,0x00,0x00,0x00,0x00,0x00,0x00,0x18,0x01,0x0c,0x00,
 0x00,0x00,0x00,0xc0,0xb9,0x03,0x9c,0x00,0x0f,0x00,0x00,0x20,0x30,0x03,0x98,
 0x81,0x10,0x00,0x00,0x20,0x44,0x7a,0x98,0x41,0x10,0x00,0x00,0xa0,0x8d,0xe4,
 0x90,0x39,0x24,0x00,0x00,0xa0,0xbf,0x03,0x87,0x18,0x26,0x00,0x00,0x20,0xcd,
 0x8d,0x4f,0x88,0x27,0x00,0x00,0xc0,0x84,0xc6,0x63,0xce,0x23,0x00,0x00,0x40,
 0xbc,0x82,0x71,0xc7,0x11,0x00,0x00,0x80,0x32,0x00,0x70,0xe2,0x08,0x00,0x00,
 0x80,0x02,0x00,0x20,0x60,0x04,0x00,0x00,0x00,0xc1,0xc1,0x07,0x30,0x3e,0x00,
 0x00,0x00,0x02,0x02,0x00,0x00,0x47,0x00,0x00,0x00,0x02,0xc0,0x03,0xc0,0x30,
 0x00,0x00,0x80,0xc3,0x21,0x04,0x80,0x09,0x00,0x00,0xc0,0x21,0x12,0x04,0x00,
 0x30,0x00,0x00,0xe0,0x11,0x0a,0x04,0x80,0xc3,0x00,0x00,0x60,0x88,0x84,0x01,
 0x00,0x30,0x01,0x00,0xe0,0xc8,0xc5,0x03,0x00,0x40,0x01,0x00,0x80,0xc4,0xe5,
 0x01,0x00,0x23,0x01,0x00,0x80,0x84,0x44,0x01,0x00,0xcc,0x01,0x00,0x80,0x44,
 0x04,0x01,0x00,0x10,0x01,0x00,0x80,0x38,0x84,0x00,0x00,0x20,0x01,0x00,0x00,
 0x11,0x78,0x00,0x80,0x01,0x01,0x00,0x80,0x18,0x00,0x00,0x00,0x06,0x01,0x00,
 0x40,0x08,0x00,0x00,0x00,0x18,0x01,0x00,0x40,0x04,0x00,0x00,0x00,0x60,0x02,
 0x00,0x20,0x02,0x00,0x00,0x00,0xa1,0x02,0x00,0x20,0x00,0x00,0x00,0x00,0x62,
 0x02,0x00,0x20,0x00,0x00,0x00,0x80,0x80,0x03,0x00,0x10,0x00,0x00,0x00,0x00,
 0x01,0x02,0x00,0x10,0x00,0x04,0x00,0x00,0x12,0x04,0x00,0x18,0x00,0x02,0x00,
 0x80,0x20,0x08,0x00,0x08,0x00,0x02,0x00,0x40,0x41,0x08,0x00,0x04,0x00,0x03,
 0x00,0x81,0x02,0x08,0x00,0xc2,0xff,0x00,0x00,0x01,0x04,0x08,0x00,0xc2,0x7f,
 0x80,0x00,0x41,0x09,0x08,0xc0,0x83,0x3f,0x70,0xc0,0xe0,0x8a,0x08,0x00,0x1c,
 0x1f,0x00,0x3c,0x40,0x2d,0x09,0x00,0x00,0x04,0x04,0x03,0x40,0x10,0x0a,0x00,
 0x02,0x04,0x80,0x00,0x48,0x20,0x06,0x00,0x03,0x04,0xb0,0x00,0x50,0x2a,0x04,
 0x80,0x04,0x00,0x40,0x00,0x90,0x4a,0x03,0x00,0x08,0x0c,0x38,0x00,0xa5,0x48,
 0x02,0x00,0x70,0xf3,0x07,0x00,0xaa,0x80,0x02,0x00,0xd0,0x80,0x01,0x60,0x4a,
 0x11,0x03,0x00,0x10,0x00,0x00,0x9c,0x44,0x12,0x01,0x00,0x20,0x00,0x00,0x92,
 0x44,0x2a,0x01,0x00,0x40,0x00,0x00,0x91,0x40,0x44,0x01,0x00,0x80,0x00,0x80,
 0x20,0x41,0x44,0x01,0x00,0x00,0x71,0x40,0x41,0x40,0x82,0x00,0x00,0x00,0x8f,
 0xb0,0x82,0x05,0x02,0x00,0x00,0x00,0xd9,0x4f,0x05,0x0d,0x01,0x00,0x00,0x00,
 0x51,0xaa,0x0a,0x8d,0x00,0x00,0x00,0x00,0x91,0xaa,0x12,0x4b,0x00,0x00,0x00,
 0x80,0x04,0x22,0x12,0x2a,0x00,0x00,0x00,0x80,0x0b,0x24,0x20,0x1a,0x00,0x00,
 0x00,0x00,0x91,0x40,0x20,0x01,0x00,0x00,0x00,0x00,0xa0,0x03,0xde,0x00,0x00,
 0x00,0x00,0x00,0xc0,0xf4,0x01,0x00,0x00,0x00,0x00,0x00,0x00,0x18,0x00,0x00,
 0x00,0x00};
