/* XPM */
static char *calvin_recol_xpm[] = {
/* width height ncolors chars_per_pixel */
"32 32 6 1",
/* colors */
"  c black",
". c green",
"X c wheat",
"o c red",
"O c white",
"+ c yellow",
/* pixels */
"OOOOOOO OOOOO  OOOOOOOOOOOOOOOOO",
"OOOOOOOO OOOO + OOOOOOOOOOOOOOOO",
"OOOOOOOOO OOO ++ OOOO  OOOOOOOOO",
"OOOOOOO OO +  +++ OO + OOOOOOOOO",
"OOOOOOOO O +++++++  ++ OOOOOOOOO",
"OOOOOOOOO ++++++++++++ OOO OOOOO",
"OOOOOOO ++++++++++++++ OO OOOOOO",
"OOOOOO X+++++++++++X++ O OOO OOO",
"OOOOO XXX+++++++XXXX++  +OO OOOO",
"OOOOO XXXXXXXXXXXXXX++++++ OOOOO",
"OOOOO XXXXXXXXXXXXXXX++++++   OO",
"OOOOO XXX XXXXX XXXXXX+++++OOOOO",
"OOOOO XXX XXXXX XXXXXXXX ++   OO",
"OOOOO XXXX   XXXXXXXXXXXX +OOOOO",
"OOOO XXXX XXXXXXXXXXXXXXXXOOOOOO",
"OOOO XXXX XXXXXXXXXXXXXXXX   OOO",
"OOOO XXXXX  XXXXXXXXXXXXXXXXX OO",
"OOOO XXXXXXXXXXXXXXXXXXXXXXXX OO",
"OOOO XX                 XXXX OOO",
"OOOOO XX               XXXX OOOO",
"OOOOOO XX    oo o     XXX  OOOOO",
"OOOOOOO XX   ooooo   XXX OOOOOOO",
"OOOOOOOO XXX   oo  XXXX OOOOOOOO",
"OOOOOOOOO  XXX   XXXXX OOOOOOOOO",
"OOOOOOOOOOO  XXXXXXX  OOOOOOOOOO",
"OOOOOOOOOO ..       ..  OOOOOOOO",
"OOOOOOOOO   ..........   OOOOOOO",
"OOOOOOOO   .          .   OOOOOO",
"OOOOOOO . .............. . OOOOO",
"OOOOOO . ..            .. . OOOO",
"OOOOOOO . .............. . OOOOO",
"OOOOOOOO   .          . . OOOOOO"
};
