/* XPM */
static char *donald_mad_recol_xpm[] = {
/* width height ncolors chars_per_pixel */
"32 32 5 1",
/* colors */
"  c black",
". c grey",
"X c white",
"o c yellow",
"O c blue",
/* pixels */
"XXXXXXXXXXXXXXXXXXXXXXXXXXXXXXXX",
"XX    X    XXXXXXXX.       XXXXX",
"XX     OOOO   ..... OOOOOOO  XXX",
"X   OOOOOOOOOO  . OOOOOOOO O XXX",
"X   OOOOOOOOOOO  OOOOOOOOOOO XXX",
"X   OOOOOOO     OOOOOOOOOOO  XXX",
"X    OOOOOOOOOOOOOOOOOOOOO  XXXX",
"    X  OOO  OOOOOOOOOOOOO XXXXXX",
"    XX    XX  OOO     XXX XXXXXX",
"XX  XXX   XXX        XX   XXXXXX",
"XX XXXX XXXXXX      XX X XXXXXXX",
"X  XXX XXX  XX XXXXXX    XXXXXXX",
"XXXXX XXX XX XX XXXX XX  XXXXXXX",
"XXXXX XX XXXX XXXXXX XXX XXXXXXX",
"XXXX XXX XXXXX XXXX  X X XXXXXXX",
"XXX    X XXXXX  XXX XX    XXXXXX",
"XX   XXX XXXX   XXX X   oo XXXXX",
"X oooo X XXX    X X  oooo  XXXXX",
"X ooooo  XXX   o   o ooo XXXXXXX",
"     oooo   oooooooooooo XXXXXXX",
" ooo  ooooooooooooooooooo  X....",
" ooooo oooooooooooooooooooo    .",
"X.  ooo ooooooooooooooo    oooo ",
"X...     ooooooooooo   ooooo   X",
".... XXXX ooooooo   oooo   oooXX",
"    XXXXX  ooooooooooo oooooooXX",
"OO  XXXX    ooooooooo  oooooXXXX",
"OO XXXX   ..  ooooo  oooXXXXXXXX",
"OO XXX    ...      ...XXXXXXXXXX",
"OO  XX   O .........XXXXXXXXXXXX",
"OOO     OO .......XXXXX........X",
"OOOO    OOO ...................X"
};
