/* XPM */
static char *black_recol_xpm[] = {
/* width height ncolors chars_per_pixel */
"32 32 5 1",
/* colors */
"  c black",
". c tan",
"X c white",
"o c gold",
"O c SlateGrey",
/* pixels */
"XXXXXXXXXXXXXXXXX           XXXX",
"XXXXXXXXXXXXXXXX XXXXXXXXXX XXXX",
"XXXXXXXXXXXXXXX XXXXXXXXXXX XXXX",
"XXXXXXXXXXXXXX XXXXXXXXXXXX XXXX",
"XXXXXXXXXXXX  XXXXXXXXXXXX XXXXX",
"XXXXXXXX    XXXXXXX     XX XXXXX",
"XXXXXXX XXXXXXXXXX  o     XXXXXX",
"XXXXXX XXXXXXXXX   ooo oo XXXXXX",
"XXXXXX XXXXXXX      o     XXXXXX",
"XXXXXXX  XXX                XXXX",
"XXXXXXXXX                     XX",
"XXXXXXXX  XXX ooooo  oooo XXXXXX",
"XXXXXXX XXX.X oo  oooooo   XXXXX",
"XXXXXX   XXX oo XX   o oooo XXXX",
"XXXXXX XXX.X o XXXXX o       XXX",
"XXXXX XX .XX o XX XX o XXX X XXX",
"XXXXX X X  X o XXXXX oo     XXXX",
"XXXXX  X oo ooo XXX ooo oooo XXX",
"XXXXXXXX o  oooo   ooooo ooo XXX",
"XXXXXX   ooooooooooo ooo oo XXXX",
"XXXXX O    ooooo      oo    XXXX",
"XXXXX O  oooo   XXXXXX  XXXX XXX",
"XXXX O O oo  XXXXX.X.XXXXX.XX XX",
"XXX O OO   XXXX.X.XXXXX.X.XXXX X",
"XX O O  O XX.X.X  X. X XX X.  XX",
"XX OO OO  XXXX  XX  X X  X  XXXX",
"X O  O O XX.X X XX XX   X XXXXXX",
" O OOO O  .XXX    X  XXX O XXXXX",
" O O OO O XX.XXXXXXXXX.X O  XXXX",
" O O  O O   X.X.X.X.XXX O OO  XX",
"  O OO O O  X X XX XX  OOO  OO X",
"                                "
};
