/* XPM */
static char *mc_clure_recol_xpm[] = {
/* width height ncolors chars_per_pixel */
"32 32 5 1",
/* colors */
"  c black",
". c peru",
"X c purple",
"o c white",
"O c gold",
/* pixels */
"ooooooo        ooooooooooooooooo",
"oooooo ........       oooooooooo",
"ooooo ................ ooooooooo",
"ooooo .... .. ......... oooooooo",
"ooooo . .. ..    .. ... oooooooo",
"ooooo .. .   OOOO   ...  ooooooo",
"ooooo ... OOOOOOOOOO . .. oooooo",
"oooooo   OOOOOOOOOOOO .... ooooo",
"oooooooo OOOOOOOOOOOOO ... ooooo",
"ooooooo OOOOOOOOOOOOOO ... ooooo",
"oooooo OOOOOO OOOOOOOO ... ooooo",
"oooooo O    O   OOOOO .... ooooo",
"oooooo  o o O oo   OO .... ooooo",
"ooooooo oo OOO o oo O ... oooooo",
"ooooooo   OOOOO oo  O   . oooooo",
"oooooo O OOOOOOO  OO  OO ooooooo",
"oooooo O OOO OOOOOOOOO O ooooooo",
"oooooo OO   OOOOOO OOOOO ooooooo",
"oooooo OOOOOOOOOOOO OO   ooooooo",
"ooooo OOOOOOOOOO  OO O . ooooooo",
"ooooo OOOOOOO   oo OOO . ooooooo",
"oooooo        oo  OOOO . ooooooo",
"ooooooo oo oo oo OOOOO  oooooooo",
"ooooooo oo oo   OOOOOO ooooooooo",
"oooooo O      OOOOOOOO ooooooooo",
"oooooo OOOOOOOOOOOOOOO ooooooooo",
"ooooooo  OOOOOOOOOOOO o oooooooo",
"oooooooo OOOOOOOOOOO oo oooooooo",
"oooooooo OOOOOOOOO  ooo   oooooo",
"oooooooo  OOOOOO  oooo XXX  oooo",
"ooooooo oo OOOO ooooo XXXXXX ooo",
"oooooo                        oo"
};
