#define noname_width 9
#define noname_height 24
static char noname_bits[] = {
 0x7c,0x00,0x82,0x00,0x01,0x01,0x01,0x01,0x01,0x01,0x01,0x01,0x01,0x01,0xff,
 0x01,0x01,0x01,0x55,0x01,0x01,0x01,0x55,0x01,0x01,0x01,0x55,0x01,0x01,0x01,
 0xff,0x01,0x01,0x01,0x01,0x01,0x01,0x01,0x01,0x01,0x01,0x01,0x01,0x01,0x82,
 0x00,0x7c,0x00};
