#define noname_width 15
#define noname_height 20
static char noname_bits[] = {
 0xfe,0x3f,0x01,0x40,0x09,0x40,0x15,0x40,0x1d,0x40,0x15,0x40,0x01,0x40,0x81,
 0x40,0xc1,0x41,0xe1,0x43,0xe1,0x43,0x81,0x40,0xc1,0x41,0x01,0x40,0x01,0x54,
 0x01,0x5c,0x01,0x54,0x01,0x48,0x01,0x40,0xfe,0x3f};
