#define circle_18_width 18
#define circle_18_height 18
static unsigned char circle_18_bits[] = {
   0xc0, 0x0f, 0x00, 0x30, 0x30, 0x00, 0x08, 0x40, 0x00, 0x04, 0x80, 0x00,
   0x02, 0x00, 0x01, 0x02, 0x00, 0x01, 0x01, 0x00, 0x02, 0x01, 0x00, 0x02,
   0x01, 0x00, 0x02, 0x01, 0x00, 0x02, 0x01, 0x00, 0x02, 0x01, 0x00, 0x02,
   0x02, 0x00, 0x01, 0x02, 0x00, 0x01, 0x04, 0x80, 0x00, 0x08, 0x40, 0x00,
   0x30, 0x30, 0x00, 0xc0, 0x0f, 0x00};
