#define update_width 7
#define update_height 11
static char update_bits[] = {
   0x00, 0x08, 0x08, 0x08, 0x1c, 0x1c, 0x3e, 0x2e, 0x36, 0x1c, 0x00};
