#define lightbulb_width 14
#define lightbulb_height 15
static char lightbulb_bits[] = {
 0x80,0x00,0x90,0x08,0x10,0x04,0x02,0x00,0xc4,0x31,0x20,0x02,0x13,0x04,0x10,
 0x34,0x10,0x04,0x24,0x02,0x22,0x0a,0xc0,0x11,0x40,0x01,0xc0,0x01,0xc0,0x01
 };
