#define noname_width 24
#define noname_height 14
static char noname_bits[] = {
 0x00,0x3e,0x00,0x00,0x62,0x00,0x00,0x62,0x00,0x00,0x7e,0x00,0x00,0x7c,0x00,
 0x00,0x08,0x00,0xfc,0xff,0x1f,0x04,0x08,0x10,0x04,0x08,0x10,0x1f,0x3e,0x7c,
 0x31,0x62,0xc4,0x31,0x62,0xc4,0x3f,0x7e,0xfc,0x3e,0x7c,0xf8};
