#define noname_width 18
#define noname_height 24
static char noname_bits[] = {
 0xd0,0x3b,0x00,0x68,0xd7,0x00,0xdc,0x6d,0x01,0x76,0xbb,0x00,0xbc,0x6d,0x01,
 0x77,0xdb,0x02,0xdd,0xa5,0x03,0xb6,0x5e,0x01,0x6b,0xf3,0x02,0x7c,0x5a,0x01,
 0xda,0x8e,0x00,0x84,0x07,0x00,0x00,0x07,0x00,0x00,0x07,0x00,0x00,0x07,0x00,
 0x00,0x07,0x00,0x00,0x07,0x00,0x00,0x07,0x00,0x00,0x07,0x00,0x00,0x0f,0x00,
 0x80,0x1f,0x00,0xc0,0x76,0x00,0x20,0x0c,0x00,0x00,0x10,0x00};
