/* XPM */
static char * question_xpm[] = {
/* width height ncolors chars_per_pixel */
"20 20 2 1",
/* colors */
" 	s None	c None",
".	c black",
/* pixels */
"                    ",
"                    ",
"      .......       ",
"     .........      ",
"    ...........     ",
"    ...     ...     ",
"    ...     ...     ",
"            ...     ",
"            ...     ",
"           ...      ",
"          ...       ",
"         ...        ",
"        ...         ",
"        ...         ",
"        ...         ",
"                    ",
"        ...         ",
"        ...         ",
"        ...         ",
"                    "};
