/* XPM */
static char * tools2_xpm[] = {
/* width height ncolors chars_per_pixel */
"20 20 8 1",
/* colors */
" 	s None	c None",
".	c black",
"X	c firebrick",
"o	c red",
"O	c grey",
"+	c white",
"@	c yellow",
"#	c sienna",
/* pixels */
"    ....  ....      ",
"   .XooX..XooX.     ",
"  .Xo..oXXo..oX.    ",
"  .o.  .Xo.  .o.    ",
"  .o.  .Xo.  .o.    ",
"  .o.  .Xo.  .o.    ",
"  .Xo..oXoo..oX.    ",
"   .XooXXoXooX.     ",
"    ....Xo....      ",
"       .XX.         ",
" .......O+..........",
" .@+.+..OO.+.+.+.++.",
" .#@.@..O+.@.@@@.@+.",
" .#@.@#.O+.@@@@@.@+.",
" .#@@@#.O+.@@@@@@@+.",
" .#####.O+.#######@.",
" .......O+..........",
"       .O+.         ",
"       .OO.         ",
"        ..          "};
