#define noname_width 16
#define noname_height 23
static char noname_bits[] = {
 0xe0,0x38,0xf0,0x3d,0xe0,0x1d,0x00,0x77,0xe0,0xf9,0xf0,0xee,0x70,0xdf,0x60,
 0x1f,0x80,0x0e,0x9c,0x00,0x7e,0x00,0x47,0xf0,0x41,0x3c,0x40,0x0e,0x80,0x01,
 0x80,0x00,0x80,0x00,0x00,0x01,0x00,0x01,0x00,0x01,0x00,0x02,0x00,0x02,0x00,
 0x02};
