#define sunglasses_width 32
#define sunglasses_height 16
static char sunglasses_bits[] = {
 0x00,0x06,0x60,0x00,0x80,0x09,0x90,0x01,0x60,0x08,0x10,0x06,0x10,0x00,0x00,
 0x08,0xfc,0xff,0xff,0x3f,0xfe,0x7f,0xfe,0x7f,0x57,0xf5,0x57,0xf5,0xaf,0x68,
 0x2e,0xea,0x47,0x71,0x56,0xf4,0x8e,0x62,0xa6,0x68,0x16,0x75,0x46,0x71,0xae,
 0x6a,0x8e,0x62,0x46,0x75,0x56,0x75,0x8e,0x7a,0xae,0x7a,0xfc,0x3f,0xfc,0x3f,
 0xf8,0x1f,0xf8,0x1f};
