#define cloud_exclaim_width 32
#define cloud_exclaim_height 32
static char cloud_exclaim_bits[] = {
   0x00, 0x00, 0x00, 0x00, 0x00, 0xf0, 0x0f, 0x00, 0xf8, 0x0c, 0x30, 0x07,
   0x04, 0x03, 0xc0, 0x08, 0x02, 0x04, 0x40, 0x10, 0x01, 0x08, 0x00, 0x10,
   0x01, 0x00, 0x00, 0x1c, 0x11, 0x00, 0x00, 0x60, 0x0a, 0xc0, 0x00, 0x40,
   0x04, 0xe0, 0x01, 0x80, 0x02, 0xe0, 0x01, 0x80, 0x02, 0xc0, 0x00, 0x80,
   0x02, 0xc0, 0x00, 0x80, 0x02, 0xc0, 0x00, 0x80, 0x02, 0x00, 0x00, 0x40,
   0x14, 0xc0, 0x00, 0x60, 0x08, 0xc0, 0x00, 0x1c, 0x08, 0x00, 0x00, 0x08,
   0x08, 0x00, 0x00, 0x10, 0x08, 0x00, 0x20, 0x10, 0x08, 0x10, 0x20, 0x10,
   0x10, 0x20, 0x60, 0x08, 0x20, 0x60, 0x90, 0x07, 0x40, 0x90, 0x0f, 0x00,
   0x80, 0x0f, 0xe0, 0x00, 0x00, 0x00, 0x10, 0x01, 0x00, 0x00, 0x08, 0x02,
   0x00, 0x00, 0x08, 0x02, 0x00, 0x00, 0x08, 0x02, 0x00, 0x00, 0x10, 0x01,
   0x00, 0x00, 0xe0, 0x00, 0x00, 0x00, 0x00, 0x00};
