#define dice_width 32
#define dice_height 32
static char dice_bits[] = {
 0x00,0x00,0x00,0x00,0x00,0x00,0x00,0x00,0x00,0x00,0x70,0x00,0x00,0x00,0x88,
 0x03,0x00,0x00,0x24,0x1c,0x00,0x00,0x72,0xe0,0x00,0x00,0x21,0xc0,0x00,0x80,
 0x00,0xa1,0x00,0xce,0x81,0x93,0xc0,0x51,0x0e,0x89,0x38,0x60,0x70,0x84,0x07,
 0x40,0x82,0x83,0x03,0x83,0x07,0x82,0x05,0x03,0x43,0x92,0x09,0x80,0xe3,0xba,
 0x11,0x70,0x42,0x92,0x21,0x0e,0x02,0x82,0xc1,0x01,0x06,0x82,0x51,0x00,0x42,
 0x42,0x41,0x02,0xe2,0x22,0x49,0x07,0x42,0x12,0x41,0x02,0x0e,0x0a,0x45,0x40,
 0x72,0x06,0x41,0xe0,0x82,0x03,0x42,0x40,0x02,0x00,0x44,0x00,0x02,0x00,0x48,
 0x80,0x03,0x00,0x50,0x70,0x00,0x00,0x60,0x0e,0x00,0x00,0xc0,0x01,0x00,0x00,
 0x00,0x00,0x00,0x00,0x00,0x00,0x00,0x00};
