#define face_dead_width 32
#define face_dead_height 32
static char face_dead_bits[] = {
 0x00,0x00,0x00,0x00,0x00,0x00,0x00,0x00,0x00,0x00,0x00,0x00,0x00,0xf0,0x0f,
 0x00,0x00,0x0e,0x70,0x00,0x80,0x01,0x80,0x01,0x40,0x00,0x00,0x02,0x20,0x00,
 0x00,0x04,0x10,0x00,0x04,0x08,0x08,0x63,0x8c,0x10,0x08,0x36,0xd8,0x10,0x04,
 0x18,0x60,0x20,0x04,0x1c,0x70,0x20,0x02,0x26,0xd8,0x40,0x02,0x43,0x8c,0x41,
 0x02,0x00,0x00,0x40,0x02,0x00,0x00,0x40,0x02,0x00,0x00,0x40,0x02,0x00,0x00,
 0x40,0x02,0xe0,0x0f,0x40,0x04,0xfc,0xfb,0x20,0x04,0x43,0x0f,0x23,0x88,0xc1,
 0x05,0x16,0x08,0x40,0x1f,0x10,0x10,0x80,0x0b,0x08,0x20,0x00,0x1d,0x04,0x40,
 0x00,0x1b,0x02,0x80,0x01,0x8c,0x01,0x00,0x0e,0x70,0x00,0x00,0xf0,0x0f,0x00,
 0x00,0x00,0x00,0x00,0x00,0x00,0x00,0x00};
