#define noname_width 32
#define noname_height 32
static char noname_bits[] = {
 0x00,0x00,0x00,0x00,0x00,0x00,0x00,0x00,0x00,0xe0,0x0f,0x00,0x00,0x1c,0x70,
 0x00,0x00,0x02,0x80,0x00,0x80,0x01,0x00,0x03,0x40,0x00,0x00,0x04,0x40,0x00,
 0x00,0x04,0x20,0x00,0x00,0x08,0x10,0x20,0x08,0x10,0x10,0x20,0x08,0x10,0x10,
 0x20,0x08,0x10,0x08,0x20,0x08,0x20,0x08,0x00,0x00,0x20,0x08,0x00,0x00,0x20,
 0x08,0x00,0x00,0x20,0x08,0x00,0x00,0x20,0x08,0x00,0x00,0x20,0x08,0x00,0x00,
 0x20,0x10,0xc0,0x07,0x10,0x10,0x30,0x18,0x10,0x10,0x0a,0xa0,0x10,0x20,0x04,
 0x40,0x08,0x40,0x08,0x20,0x04,0x40,0x00,0x00,0x04,0x80,0x01,0x00,0x03,0x00,
 0x02,0x80,0x00,0x00,0x1c,0x70,0x00,0x00,0xe0,0x0f,0x00,0x00,0x00,0x00,0x00,
 0x00,0x00,0x00,0x00,0x00,0x00,0x00,0x00};
