#define noname_width 32
#define noname_height 32
static char noname_bits[] = {
 0x20,0x00,0x00,0x04,0x20,0xfe,0x00,0x04,0x20,0x82,0x00,0x04,0x20,0x82,0x00,
 0x04,0x20,0xfe,0x00,0x04,0x20,0x00,0x00,0x04,0x3f,0x00,0xff,0xc7,0x00,0x00,
 0x00,0x40,0x00,0x00,0x00,0x40,0x88,0x00,0x00,0x40,0x88,0xf0,0xff,0x4f,0x88,
 0x10,0x00,0x40,0x88,0x10,0x00,0x40,0xf8,0x10,0x00,0x40,0x00,0x10,0x04,0x40,
 0x00,0x10,0xc4,0x43,0xff,0x10,0x44,0x42,0x80,0x00,0x44,0x42,0x80,0x00,0x44,
 0x42,0xff,0x00,0x44,0x42,0x00,0xfc,0x47,0x42,0x00,0x00,0x40,0x42,0x00,0x00,
 0x40,0x42,0xf8,0x83,0xc0,0x43,0x00,0x42,0x01,0x40,0x00,0x22,0x02,0x40,0x00,
 0xf2,0x07,0x40,0x00,0x02,0x00,0x40,0x0f,0x02,0xfe,0x41,0x08,0x02,0x02,0x41,
 0x08,0x02,0x02,0x41,0x08,0x02,0x02,0x41};
