#define plot_width 32
#define plot_height 32
static char plot_bits[] = {
 0x00,0x00,0x00,0x00,0x00,0x00,0x00,0x00,0x00,0x00,0x00,0x00,0x00,0x00,0x00,
 0x00,0x00,0x00,0x18,0x00,0x00,0x00,0x3c,0x00,0x00,0x00,0x3e,0x00,0x00,0x30,
 0x1e,0x00,0x00,0xcc,0x0f,0x00,0x00,0x82,0x07,0x00,0x00,0xc1,0x07,0x00,0x80,
 0xe0,0x0f,0x00,0x40,0xf0,0x31,0x00,0x20,0xf8,0xc0,0xff,0x10,0x7c,0x00,0x86,
 0x10,0xfc,0x00,0x84,0x10,0x5e,0x00,0x84,0x10,0x4f,0x00,0x84,0x18,0x2f,0x01,
 0x84,0x98,0xff,0x00,0x84,0x98,0x00,0x00,0x84,0x54,0x02,0x00,0x84,0x7c,0x04,
 0x00,0x84,0x7c,0x02,0x00,0x87,0xba,0xff,0xff,0x86,0x12,0x00,0x00,0xfe,0x0a,
 0x00,0x00,0xfc,0x07,0x00,0x00,0x00,0x00,0x00,0x00,0x00,0x00,0x00,0x00,0x00,
 0x00,0x00,0x00,0x00,0x00,0x00,0x00,0x00};
