/* XPM */
static char *disks_recol_xpm[] = {
/* width height ncolors chars_per_pixel */
"32 32 11 1",
/* colors */
"  c black",
". c DodgerBlue",
"X c SkyBlue",
"o c grey",
"O c DarkSlateGrey",
"+ c red",
"@ c NavyBlue",
"# c white",
"$ c SlateGrey",
"% c LemonChiffon",
"& c blue",
/* pixels */
"#############&&&$$$$$$$$$$$O&&##",
"############&@@@$OOOOOOOOOO @@ #",
"############&@@@OOOOOOOOOOO @@@ ",
"##########&&&ooooooooooo$&&@@@@ ",
"#########&@@@o$$$$$$$$$$ @@ @@@ ",
"#########&@@@OOOOOOOOOOO @@@ @@ ",
"#######...ooooooooooo$..@@@@ @@ ",
"######.@@@o$$$$$$$$$$ @@ @@@ @@ ",
"######.@@@$$$$$$$$$$$ @@@ @@ @@ ",
"####...%%%%%%%%%%%o..@@@@ @@ @@ ",
"###.&&&%ooooooooooO&& @@@ @@ @@ ",
"###.@@@$$$$$$$$$$$O&&& @@ @@ @@ ",
"#XXX####o##$o$#oXX@&&& @@ @@ @@ ",
"X&&&#ooo##$o$ooO&& @&& @@ @@ @@ ",
"X&&&#oo##$o$  o$&&& @& @@ @@ @@ ",
"X&&&#o##$o$o @$$&&& @& @@ @@ @@ ",
"X&&&o##$o$oo @#O&&& @& @@ @@ @@ ",
"X&&&##$o$ooo @oO&&& @& @@ @@ @@ ",
"X&&&#$o$ooo$#ooO&&& @& @@ @@ @@ ",
"X&&&$OOOOO$$OOO$&&& @& @@ @@   o",
"X&&&&&&&&&&&&&&&&&& @& @@ @@ $oo",
"X&&&&&&&&&&&&&&&&&& @& @@ @@ ooo",
"X&&@@@@@@@@@@@@@@&& @& @@   oooo",
"X&@$$$$$$$$$$$oooX& @& @@ $oooo#",
"X&@$$$$$$ooooooooX& @& @@ oooooo",
"X&@$$oooooo++++ooX& @&   ooooooo",
"X&@$$ooooo++oooooX& @& $oooo####",
"X&@$$oooooo++ooooX& @& ooooooo##",
"X @$oooooooo++oooX&   oooooooo##",
"X&@$ooooo++++ooooX& $oooo#######",
"X&@ooooooooooooooX& ooooooo#####",
"#  oOOOOOOOOOOOO   oooooooo#####"
};
