#define noname_width 32
#define noname_height 32
static char noname_bits[] = {
 0x50,0x55,0x15,0x00,0x00,0x00,0x20,0x00,0x10,0x00,0x80,0x00,0x00,0x00,0x20,
 0x01,0x10,0x00,0x00,0x02,0x00,0x00,0x20,0x04,0x10,0x00,0x00,0x00,0x00,0x00,
 0xa0,0x0a,0x10,0x00,0x00,0x10,0x00,0x00,0x00,0x08,0x10,0x00,0x00,0x10,0x00,
 0x00,0x00,0x08,0x10,0x00,0x00,0x10,0x00,0x00,0x00,0x08,0x10,0x00,0x00,0x10,
 0x00,0x00,0x00,0x08,0x10,0x00,0x00,0x10,0x00,0x00,0x00,0x08,0x10,0x00,0x00,
 0x10,0x00,0x00,0x00,0x08,0x10,0x00,0x00,0x10,0x00,0x00,0x00,0x08,0x10,0x00,
 0x00,0x10,0x00,0x00,0x00,0x08,0x10,0x00,0x00,0x10,0x00,0x00,0x00,0x08,0x10,
 0x00,0x00,0x10,0x00,0x00,0x00,0x08,0x10,0x00,0x00,0x10,0x00,0x00,0x00,0x08,
 0x50,0x55,0x55,0x15,0xa0,0xaa,0xaa,0x0a};
