#define catoblepas_width 64
#define catoblepas_height 54
static char catoblepas_bits[] = {
   0xad, 0x38, 0x00, 0x00, 0x00, 0x00, 0x00, 0x00, 0x95, 0x35, 0x00, 0x00,
   0x00, 0x00, 0x00, 0x00, 0xa3, 0x38, 0x00, 0x00, 0x00, 0x00, 0x00, 0x00,
   0x97, 0xf1, 0x00, 0x00, 0x00, 0x00, 0x00, 0x00, 0x3b, 0xeb, 0x00, 0x00,
   0x00, 0x00, 0x00, 0x00, 0x3f, 0xc5, 0x00, 0x00, 0x00, 0x00, 0x00, 0x00,
   0x4f, 0xcd, 0x03, 0x00, 0x80, 0x01, 0x00, 0x00, 0xdf, 0x1e, 0x03, 0x00,
   0x40, 0x0f, 0x00, 0x00, 0x9f, 0x3d, 0x02, 0x00, 0x40, 0x08, 0x00, 0x00,
   0x2f, 0x5b, 0x0d, 0x00, 0x30, 0x0b, 0x00, 0x00, 0xbe, 0xda, 0x1c, 0x00,
   0xb0, 0x0b, 0x00, 0x00, 0x7e, 0x5a, 0x71, 0x00, 0xd0, 0x0b, 0x00, 0x00,
   0xec, 0x41, 0x71, 0xff, 0xcb, 0x09, 0x00, 0x00, 0xfc, 0x83, 0x41, 0xff,
   0xeb, 0x05, 0x00, 0x00, 0xb8, 0xb7, 0xee, 0xb5, 0xfc, 0x06, 0x00, 0x00,
   0x48, 0xef, 0xe9, 0x8c, 0xf9, 0x03, 0x00, 0x00, 0x30, 0xbf, 0x07, 0x81,
   0x65, 0x01, 0x00, 0x00, 0x70, 0x9f, 0x0b, 0x0a, 0xc5, 0x00, 0x00, 0x00,
   0xf0, 0xde, 0x0e, 0x18, 0xea, 0x00, 0x00, 0x00, 0xe0, 0xd0, 0xb8, 0x05,
   0x8c, 0x03, 0xc0, 0x00, 0x80, 0xd3, 0x68, 0xa1, 0x3c, 0x03, 0x80, 0x01,
   0x80, 0xdf, 0xfb, 0x03, 0x3f, 0x03, 0x80, 0x02, 0x00, 0x9e, 0xf9, 0x77,
   0x37, 0x1c, 0x80, 0x02, 0x00, 0x3c, 0x71, 0x37, 0x0f, 0x34, 0x80, 0x04,
   0x00, 0x30, 0xe1, 0x2b, 0x40, 0xd7, 0x80, 0x04, 0x00, 0xe0, 0x0d, 0x28,
   0x08, 0x51, 0x43, 0x04, 0x00, 0xe0, 0xfc, 0x64, 0xe0, 0x7f, 0x2f, 0x04,
   0x00, 0x60, 0x18, 0x24, 0xda, 0xcc, 0x2d, 0x02, 0x00, 0xa0, 0x21, 0x62,
   0x7c, 0xff, 0x1f, 0x02, 0x00, 0xe0, 0xe1, 0xc2, 0xdc, 0xdd, 0x0e, 0x02,
   0x00, 0xc0, 0x2e, 0x83, 0xf7, 0xf7, 0x3b, 0x01, 0x00, 0xc0, 0xf2, 0x03,
   0x7f, 0x0d, 0xa0, 0x01, 0x00, 0xc0, 0xc7, 0x06, 0x80, 0x37, 0xaf, 0x00,
   0x00, 0x00, 0x00, 0x06, 0x80, 0x72, 0x6e, 0x00, 0x00, 0x00, 0x00, 0x0e,
   0x80, 0xf6, 0x4e, 0x00, 0x00, 0x00, 0x00, 0x7c, 0xe0, 0xe7, 0x66, 0x00,
   0x00, 0x00, 0x00, 0xd8, 0xff, 0x0d, 0x38, 0x00, 0x00, 0x00, 0x00, 0xe0,
   0xf6, 0xfe, 0x0f, 0x00, 0x00, 0x00, 0x00, 0x00, 0xa5, 0x29, 0x08, 0x00,
   0x00, 0x00, 0x00, 0x00, 0x8d, 0x09, 0x08, 0x00, 0x00, 0x00, 0x00, 0x00,
   0x9b, 0x0d, 0x08, 0x00, 0x00, 0x00, 0x00, 0x00, 0xf6, 0x1d, 0x08, 0x00,
   0x00, 0x00, 0x00, 0x00, 0x4c, 0x11, 0x08, 0x00, 0x00, 0x00, 0x00, 0x00,
   0x78, 0x01, 0x08, 0x00, 0x00, 0x00, 0x00, 0x00, 0x08, 0x01, 0x0c, 0x00,
   0x00, 0x00, 0x00, 0x00, 0x08, 0x01, 0x0c, 0x00, 0x00, 0x00, 0x00, 0x00,
   0x08, 0x01, 0x08, 0x00, 0x00, 0x00, 0x00, 0x00, 0x08, 0x00, 0x00, 0x00,
   0x00, 0x00, 0x00, 0x00, 0x08, 0x00, 0x00, 0x00, 0x00, 0x00, 0x00, 0x00,
   0x1c, 0x00, 0x00, 0x00, 0x00, 0x00, 0x00, 0x00, 0x1c, 0x00, 0x00, 0x00,
   0x00, 0x00, 0x00, 0x00, 0x08, 0x00, 0x00, 0x00, 0x00, 0x00, 0x00, 0x00,
   0x00, 0x00, 0x00, 0x00, 0x00, 0x00, 0x00, 0x00, 0x00, 0x00, 0x00, 0x00};
