#define noname_width 48
#define noname_height 52
static char noname_bits[] = {
 0x00,0x00,0x80,0x00,0x00,0x00,0x00,0x00,0xc0,0x01,0x00,0x00,0x00,0x00,0x20,
 0x02,0x00,0x00,0x00,0x00,0x10,0x02,0x00,0x00,0x00,0x00,0x10,0x04,0x00,0x00,
 0x00,0x00,0x08,0x04,0x00,0x00,0x00,0x00,0x08,0x08,0x00,0x00,0x80,0x03,0x08,
 0x08,0xc0,0x01,0x80,0x3c,0x04,0x90,0x30,0x02,0x80,0xc0,0x87,0xe1,0x0f,0x02,
 0x80,0x00,0x40,0x63,0x01,0x01,0x80,0x00,0xc0,0xbe,0x01,0x01,0x00,0x01,0x40,
 0x6d,0x01,0x01,0x00,0x01,0xc0,0xaa,0x02,0x01,0x00,0x01,0x80,0x5d,0x03,0x01,
 0x00,0x02,0x80,0x82,0x01,0x01,0xfe,0x03,0x00,0x01,0x00,0x01,0x02,0x00,0x00,
 0x00,0x00,0x0e,0x04,0x00,0x00,0x00,0x00,0x30,0x04,0x00,0x00,0x02,0x04,0x10,
 0x08,0x00,0x10,0x02,0x44,0x08,0x08,0x00,0xe0,0x8f,0x5f,0x08,0x10,0x00,0x30,
 0x50,0x20,0x04,0x10,0x00,0x0a,0x20,0x40,0x02,0x20,0x00,0x0c,0x40,0xc0,0x02,
 0x10,0x00,0x08,0x40,0x40,0x01,0x08,0x00,0x04,0x43,0x98,0x00,0x08,0x00,0x04,
 0x43,0x98,0x00,0x04,0x00,0x04,0x40,0x80,0x00,0x02,0x00,0x08,0x40,0x9e,0x00,
 0x01,0x00,0x08,0xc0,0x71,0x00,0x01,0x00,0x08,0x20,0x20,0x00,0x07,0x00,0x30,
 0x10,0x40,0x00,0x38,0x00,0xc0,0x0f,0x40,0x00,0xc0,0xc1,0x01,0x00,0x30,0x00,
 0x80,0x40,0x00,0x80,0x2f,0x00,0x80,0x40,0x01,0x00,0xce,0x0e,0x80,0x40,0x00,
 0x00,0x30,0x11,0x40,0x80,0x00,0x00,0x80,0x7c,0x40,0x00,0x03,0x00,0x80,0x42,
 0x40,0x3c,0x00,0x00,0x40,0x9c,0xc0,0x23,0x00,0x00,0x80,0x9c,0x00,0x20,0x01,
 0x00,0x80,0x42,0x00,0xa0,0x01,0x00,0x98,0x36,0x00,0x40,0x02,0x00,0xa6,0x09,
 0x00,0x00,0x02,0x80,0x41,0x06,0x00,0x80,0x03,0x80,0x00,0x00,0x00,0x80,0x06,
 0x60,0x00,0x00,0x00,0x40,0x3d,0xde,0x00,0x00,0x00,0xc0,0xea,0xab,0x00,0x00,
 0x00,0x80,0x55,0xd5,0x00,0x00,0x00,0x80,0xaa,0xaa,0x00,0x00};
