/* XPM */
static char * book_index_xpm[] = {
/* width height ncolors chars_per_pixel */
"40 40 7 1",
/* colors */
" 	c lavender",
".	c grey",
"X	c dark slate grey",
"o	c black",
"O	c slate grey",
"+	c white",
"@	c red",
/* pixels */
"                                        ",
"                                        ",
"  .................................... X",
"  .XXXXXXXXXXXXXXXXXXXXXXXXXXXXXXXXX .XX",
"  .X................................ .XX",
"  .X................................ .XX",
"  .X..oooooooooXXO...OXXoooooooooo.. .XX",
"  .X..o++++++++..OXOXO..+++++++++o.. .XX",
"  .Xooo+.XoX++OOX.+X+.OOXO+OOOOO+ooo .XX",
"  .Xo@o+X.++++OXOO+X+OOXOO+OXOXO+o@o .XX",
"  .Xo@o+o+OoO+OOXO.X+XXOO++OXXXO+o@o .XX",
"  .Xo@o+X.+o++OXO.+X+OOOXO++OOOO+o@o .XX",
"  .Xo@o+.Xoo++OOOO+X+OXOOO+OXOXO+o@o .XX",
"  .Xo@o+++++++OOXO.X+OXOXO+OOXO++o@o .XX",
"  .Xo@o+OXOXO+OXOO+X+XOXOO+XOOOOXo@o .XX",
"  .Xo@o+OXOOO+OOO..X+..++++OXO+XXo@o .XX",
"  .Xo@o+OOXO++XOXO+X+X..o.+OOO+OXo@o .XX",
"  .Xo@o++OOXO+OOOX.X.o++o+++OOO++o@o .XX",
"  .Xo@o+OXOOX+XOOO+X+oooo++OOXOO+o@o .XX",
"  .Xo@o+OOXOO+OOX.+X+o++o++OOOO++o@o .XX",
"  .Xo@o+XXOX++OOOO.X+o..o.+OXOXX+o@o .XX",
"  .Xo@o+OOOOO+OOXO.X.O+++++OOOO++o@o .XX",
"  .Xo@o+XOXXX+OXO.+X+.OOOO+OXOOO+o@o .XX",
"  .Xo@o+OOOX++OOOX+X+OOXOO+OOXOO+o@o .XX",
"  .Xo@o+OXOOO+OXOO.X+OXOXO+OXOOX+o@o .XX",
"  .Xo@o+OOXXO+OOOO+X+OOOO++OOOOO+o@o .XX",
"  .Xo@o+++++++++..+X+.+++++++++++o@o .XX",
"  .Xo@ooooooooooXO.X.OXooooooooooo@o .XX",
"  .Xo@oXXXXXXXXXXoXXXXXXXXXXXXXXXo@o .XX",
"  .Xo@oXXXXXXXXXXooOoXXXXXXXXXXXXo@o .XX",
"  .Xo@oXXXXXXXXXXoXoXXXXXXXXXXXXXo@o .XX",
"  .Xo@ooooooooooooOoOooooooooooooo@o .XX",
"  .Xo@@@@@@@@@@@@o.o.o@@@@@@@@@@@@@o .XX",
"  .Xoooooooooooooooooooooooooooooooo .XX",
"  .X..............ooo............... .XX",
"  .X................................ .XX",
"  .                                  .XX",
"  ....................................XX",
" XXXXXXXXXXXXXXXXXXXXXXXXXXXXXXXXXXXXXXX",
"XXXXXXXXXXXXXXXXXXXXXXXXXXXXXXXXXXXXXXXX"};
