/* XPM */
static char *cuppa_recol_xpm[] = {
/* width height ncolors chars_per_pixel */
"40 40 7 1",
/* colors */
"  c lavender",
". c firebrick",
"X c grey",
"o c dark slate grey",
"O c sea green",
"+ c slate grey",
"@ c blue",
/* pixels */
"                                       o",
"                                      oo",
"  XXXXXXXXXXXXXXXXXXXXXXXXXXXXXXXXXXXXoo",
"  Xooooooooooooooooooooooooooooooooo Xoo",
"  XoOOOOOOOOOOXOOOOXOOXooOooOOOOOOOO Xoo",
"  XoOOOOOOOOOOOOOOOOOOXOOOooOOOOOOOO Xoo",
"  XoOOOOOOOOOOXOOOooXOXooOooOOOOOOOO Xoo",
"  XoOOOOOOOOOOOOOOoOOXOOOoooOOOOOOOO Xoo",
"  XoOOOOOOOOOOXOOOooOXOOooooOOOOOOOO Xoo",
"  XoOOOOOOOOOOXOOOoOXXOOoooOOOOOOOOO Xoo",
"  XoOOOOOOOOOOOXOOooXOOOOooOOOOOOOOO Xoo",
"  XoOOOOOOOOOOOXOOooXOOOoooOOOOOOOOO Xoo",
"  XoOOOOOOOOOOooooooXXooooooOOOOOOOO Xoo",
"  XoOOOOOOoooo X     X     oooooOOOO Xoo",
"  XoOOOOOoX X X X X            oooOO Xoo",
"  XoOOOOoX X .o.o.o.o.o.o.o..   oooo Xoo",
"  XoooooX .o.o.o.o.o.o.o.o.o.o.  ooo Xoo",
"  Xo   o .o.o.o.o.o.o.o.o.o.o.o. ooo Xoo",
"  Xo   ooo.o.o.o.o.o.o.o.o.o.o.o ooo Xoo",
"  XooOOoo ooooo.o.o.o.o.o.ooooo .ooo Xoo",
"  XoooOOo     oooooooooooooXXXX oooo Xoo",
"  Xo ooOoo@          X X X XXX@ooooo Xoo",
"  Xo  oooo @@@@       X X @@@@Xooooo Xoo",
"  Xoo    oo    @@@@@@@@@@@XXXXoooooo Xoo",
"  XoO.ooooo           X XXXXX o oooo Xoo",
"  Xooo    oo         X XXXXX o     o Xoo",
"  Xo  X X   .         X XXX oXXXX    Xoo",
"  Xo X X     o       X X X oXXXXXX   Xoo",
"  XoX X       oo      XXXooX+XXXXXX  Xoo",
"  Xo X       +  .ooooooooXXX+XXXXX   Xoo",
"  Xo          ++  X X X X ++XXXX     Xoo",
"  Xooo          ++++++++++ X X     o Xoo",
"  Xoooooo           X X X       oooo Xoo",
"  XoOoooooooo               oooooooo Xoo",
"  XoOOOoooo XoooooooooooooooX oooooo Xoo",
"  XoOOOOOoOooo X X X X X X ooooooooo Xoo",
"  X                                  Xoo",
"  XXXXXXXXXXXXXXXXXXXXXXXXXXXXXXXXXXXXoo",
" ooooooooooooooooooooooooooooooooooooooo",
"oooooooooooooooooooooooooooooooooooooooo"
};
