/* XPM */
static char * globe_xpm[] = {
/* width height ncolors chars_per_pixel */
"40 40 7 1",
/* colors */
" 	c lavender",
".	c dark slate grey",
"X	c grey",
"o	c black",
"O	c blue",
"+	c green",
"@	c gainsboro",
/* pixels */
"                                        ",
"                                       .",
"  XXXXXXXXXXXXXXXXXXXXXXXXXXXXXXXXXXXX..",
"  X................................. X..",
"  X.XXXXXXXXXXXXXXXXXXXXXXXXXXXXXXXX X..",
"  X.XXXXXXXXXXXXXXXXXXXXXXXXXXXXXXXX X..",
"  X.XXXXXXXXXXXXXoooooooXXXXXXXXXXXX X..",
"  X.XXXXXXXXXXoooOoO+OoOoooXXXXXXXXX X..",
"  X.XXXXXXXXoo+OOoO+++O+OO+ooXXXXXXX X..",
"  X.XXXXXXXo++O+++O++OO++O+++oXXXXXX X..",
"  X.XXXXXXo+++++++o++ooo++++++oXXXXX X..",
"  X.XXXXXo++++++oOO+oOO++OO+o++oXXXX X..",
"  X.XXXXo+++++++oOOOoOOOoOOOoO++oXXX X..",
"  X.XXXXo++++++OoOOOoO++++OOOo++oXXX X..",
"  X.XXXo++++++OoOOOOo++++++++++++oXX X..",
"  X.XXXo++oooo+oooooo+++++++++O+OoXX X..",
"  X.XXXo+OoOOOOoOOOO+++++++++++OOoXX X..",
"  X.XXoO++oOOOOoOOOOo++++++++++++OoX X..",
"  X.XXoOO+oOOOOoOOOOoO++++++++++OOoX X..",
"  X.XXoOOO+O++OoOOOOoOOOOo++++++OOoX X..",
"  X.XXooooo++++ooooooooooo+++++ooooX X..",
"  X.XXoOOO+++++++OOOoOOOOoO++++OOOoX X..",
"  X.XXoOOO++++++++OOoOOOOoO+++oO+OoX X..",
"  X.XXoOOOo+++++++OOoOOOOo++++o+OOoX X..",
"  X.XXXoOOoO+++++OOOoOOOOo++++o+OoXX X..",
"  X.XXXooooo++++oooooooooo+++oooooXX X..",
"  X.XXXoOOOoO+++OOOOoOOOOo++OoOOOoXX X..",
"  X.XXXXoOOoO++OoOOOoOOOoOOOOoOOoXXX X..",
"  X.XXXXoOOOoO+OoOOOoOOOoOOOoOOOoXXX X..",
"  X.XXXXXoOOoO+OoOOOoOOOoOOOoOOoXXXX X..",
"  X.XXXXXXooooo+oooooooooooooooXXXXX X..",
"  X.XXXXXXXoOoOOOoOOoOOoOOOoOoXXXXXX X..",
"  X.XXXXXXXXoooO@oO@@OOoOOoooXXXXXXX X..",
"  X.XXXXXXXXXXooo@@@@@@@oooXXXXXXXXX X..",
"  X.XXXXXXXXXXXXXoooooooXXXXXXXXXXXX X..",
"  X.XXXXXXXXXXXXXXXXXXXXXXXXXXXXXXXX X..",
"  X                                  X..",
"  XXXXXXXXXXXXXXXXXXXXXXXXXXXXXXXXXXXX..",
" .......................................",
"........................................"};
