/* XPM */
static char * graduate_xpm[] = {
/* width height ncolors chars_per_pixel */
"40 40 7 1",
/* colors */
" 	c lavender",
".	c dark slate grey",
"X	c grey",
"o	c black",
"O	c yellow",
"+	c gold",
"@	c slate grey",
/* pixels */
"                                        ",
"                                       .",
"  XXXXXXXXXXXXXXXXXXXXXXXXXXXXXXXXXXXX..",
"  X................................. X..",
"  X.XXXXXXXXXXXXXXXXXXXXXXXXXXXXXXXX X..",
"  X.XXXXXXXXXXXXXXXXXXXXXXXXXXXXXXXX X..",
"  X.XXXXXXXXXXXXXXXXXXXXXXXXXXXXXXXX X..",
"  X.XXXXXXXXXXXXXXXXXXXXXXXXXXXXXXXX X..",
"  X.XXXXXXXXXXXXXXXXXXXXXXXXXXXXXXXX X..",
"  X.XXXXXXXXXXXXXXXXXXXXXXXooooooooX X..",
"  X.XXXXXXXXXXXXXXXoooooooooooooooXX X..",
"  X.XXXXXXXXoooooooooooooooooooooXXX X..",
"  X.XXXXXXXooooooooooooooooooooooXXX X..",
"  X.XXXXXXooooooooooooooooOOOOO+XXXX X..",
"  X.XXXXXooooooooooOOOOOOOoooooOXXXX X..",
"  X.XXXXoooooooooooOOooooooooooOXXXX X..",
"  X.XXXoooooooooooooooooooooooXOXXXX X..",
"  X.XXXooooooooooooooooooooooXXOXXXX X..",
"  X.XXooooooooooooooooXXXXXXXXXOXXXX X..",
"  X.XoooooooooXXXXXXXXoooooXXXX@XXXX X..",
"  X.XXXXXXXXXXooooooooooooooXXO++XXX X..",
"  X.XXXXXXXXXoooooooooooooooXXOO+XXX X..",
"  X.XXXXXXXXXoooooooooooooooXX@@@XXX X..",
"  X.XXXXXXXXXoooooooooooooXXXXO++XXX X..",
"  X.XXXXXXXXXXXoooooooXXXXXXXXOO+XXX X..",
"  X.XXXXXXXXXXXXXXXXXXXXXXXXXXO++XXX X..",
"  X.XXXXXXXXXXXXXXXXXXXXXXXXXXOO+XXX X..",
"  X.XXXXXXXXXXXXXXXXXXXXXXXXXXO++XXX X..",
"  X.XXXXXXXXXXXXXXXXXXXXXXXXXXOO+XXX X..",
"  X.XXXXXXXXXXXXXXXXXXXXXXXXXXO++XXX X..",
"  X.XXXXXXXXXXXXXXXXXXXXXXXXXXOO+XXX X..",
"  X.XXXXXXXXXXXXXXXXXXXXXXXXXXO+XXXX X..",
"  X.XXXXXXXXXXXXXXXXXXXXXXXXXXXXXXXX X..",
"  X.XXXXXXXXXXXXXXXXXXXXXXXXXXXXXXXX X..",
"  X.XXXXXXXXXXXXXXXXXXXXXXXXXXXXXXXX X..",
"  X.XXXXXXXXXXXXXXXXXXXXXXXXXXXXXXXX X..",
"  X                                  X..",
"  XXXXXXXXXXXXXXXXXXXXXXXXXXXXXXXXXXXX..",
" .......................................",
"........................................"};
