/* XPM */
static char * keyboard_xpm[] = {
/* width height ncolors chars_per_pixel */
"40 40 7 1",
/* colors */
" 	c lavender",
".	c dark slate grey",
"X	c grey",
"o	c black",
"O	c yellow",
"+	c white",
"@	c slate grey",
/* pixels */
"                                       .",
"                                      ..",
"  XXXXXXXXXXXXXXXXXXXXXXXXXXXXXXXXXXXX..",
"  X................................. X..",
"  X.XXXXXXXXXXXXXXXXXXXXXXXXXXXXXXXX X..",
"  X.XXXXXXXXXXXXXXXXXXXXXXXXXXXXXXXX X..",
"  X.XXXXXXXXXXXXXXXXXXXXXXXXXXXXXXXX X..",
"  X.XXXXXXXXXXXXXXXXXXXXoXXXXXXXXXXX X..",
"  X.XXXXXXXXXXXXXXXXXXXoOoXXXXXXXXXX X..",
"  X.XXXXXXXXXXXXXXXXXXXXooXXXXXXXXXX X..",
"  X.XXXXXXXXXXXXXXXXXXXXXXoooXXXXXXX X..",
"  X.XXXXXXXXXXXXXXXXXXXXXXXXXoXXXXXX X..",
"  X.XXXXXXXXXXXXXXXXXXXXXXXXXoXXXXXX X..",
"  X.XXXXXooXooXooXooXooXooXXXoXXXXXX X..",
"  X.XXXooXooXooXooXooXooXooooXXXXXXX X..",
"  X.XXoXXXXXXXXXXXXXXXXXXXXXXXXXXXXX X..",
"  X.XXoXXXXXXXXXXXXXXXXXXXXXXXXXXXXX X..",
"  X.XooooooooooooooooooooooooooooooX X..",
"  X.o+++++++++++++++++++++++++++++@o X..",
"  X.o+@@@@@@@@@@@@@@@@@@@@@@@@@@@@@o X..",
"  X.o+@+Xo+Xo+Xo+Xo+Xo+Xo+Xo+Xo+Xo@o X..",
"  X.o+@XXoXXoXXoXXoXXoXXoXXoXXoXXo@o X..",
"  X.o+@ooooooooooooooooooooooooooo@o X..",
"  X.o+@+++Xo+Xo+Xo+Xo+Xo+Xo+Xo+XXo@o X..",
"  X.o+@XXXXoXXoXXoXXoXXoXXoXXoXXXo@o X..",
"  X.o+@ooooooooooooooooooooooooooo@o X..",
"  X.o+@++o+Xo+Xo+Xo+Xo+Xo+Xo++++Xo@o X..",
"  X.o+@XXoXXoXXoXXoXXoXXoXXoXXXXXo@o X..",
"  X.o+@ooooooooooooooooooooooooooo@o X..",
"  X.o+@+++Xo+Xo++++++++++Xo+Xo++Xo@o X..",
"  X.o+@XXXXoXXoXXXXXXXXXXXoXXoXXXo@o X..",
"  X.o+@ooooooooooooooooooooooooooo@o X..",
"  X.o@@@@@@@@@@@@@@@@@@@@@@@@@@@@@@o X..",
"  X.XooooooooooooooooooooooooooooooX X..",
"  X.XXXXXXXXXXXXXXXXXXXXXXXXXXXXXXXX X..",
"  X.XXXXXXXXXXXXXXXXXXXXXXXXXXXXXXXX X..",
"  X                                  X..",
"  XXXXXXXXXXXXXXXXXXXXXXXXXXXXXXXXXXXX..",
" .......................................",
"........................................"};
