/* XPM */
static char * knot_xpm[] = {
/* width height ncolors chars_per_pixel */
"40 40 4 1",
/* colors */
" 	c lavender",
".	c dark slate grey",
"X	c grey",
"o	c black",
/* pixels */
"                                       .",
"                                      ..",
"  XXXXXXXXXXXXXXXXXXXXXXXXXXXXXXXXXXXX..",
"  X................................. X..",
"  X.XXXXXXXXXXXXXXXXXXXXXXXXXXXXXXXX X..",
"  X.XXXXXXXXXXXXXXXXXXXXXXXXXXXXXXXX X..",
"  X.XXXXXXXXXXXXXXXXXXXXXXXXXXXXXXXX X..",
"  X.XXXXXXXXXXXXXXXXXXXXXXXXXXXXXXXX X..",
"  X.XXXXXXXXXXXXXXXXXXXXXXXXXXXXXXXX X..",
"  X.XXXXXXXXXXXXXXXXXXXXXXXXXXXXXXXX X..",
"  X.XXXXXXXXXXXXXXXXXXXXXXXXXXXXXXXX X..",
"  X.XXXXXXXXXXXXXXXXXXXXXXXXXXXXXXXX X..",
"  X.XXXXXXXXXXXXXXXXXXXXXXXXXXXXXXXX X..",
"  X.XXXXXXXXXXXooooooXXXoXXXXXXXXXXX X..",
"  X.XXXXXXXXXXoooooooooXXooooXXXXXXX X..",
"  X.XXXXXXXXooooooooooooXooooXXXXXXX X..",
"  X.XXXXXXXXooooXXXXXooooXooooXXXXXX X..",
"  X.XXXXXXXXoooXXXooXXoooXooooXXXXXX X..",
"  X.XXXXXXXXXXXoooooooXooXooooXXXXXX X..",
"  X.oooooooooooooooooXXoXXooooXXXXXX X..",
"  X.ooooooooooooooooXXXXXooooXXXXXXX X..",
"  X.ooooooooooooooXXXXXXXooooXXoXXXX X..",
"  X.XXXXXXXXXXXXXXXXXXXooooooXoooooo X..",
"  X.XXXXXXXXooooXXXXXoooooooXooooooo X..",
"  X.XXXXXXXXoooooooooooooooXXXXooooo X..",
"  X.XXXXXXXXXXoooooooooooXXXXXXXXXoo X..",
"  X.XXXXXXXXXXXXooooooooXXXXXXXXXXXX X..",
"  X.XXXXXXXXXXXXXXXXXXXXXXXXXXXXXXXX X..",
"  X.XXXXXXXXXXXXXXXXXXXXXXXXXXXXXXXX X..",
"  X.XXXXXXXXXXXXXXXXXXXXXXXXXXXXXXXX X..",
"  X.XXXXXXXXXXXXXXXXXXXXXXXXXXXXXXXX X..",
"  X.XXXXXXXXXXXXXXXXXXXXXXXXXXXXXXXX X..",
"  X.XXXXXXXXXXXXXXXXXXXXXXXXXXXXXXXX X..",
"  X.XXXXXXXXXXXXXXXXXXXXXXXXXXXXXXXX X..",
"  X.XXXXXXXXXXXXXXXXXXXXXXXXXXXXXXXX X..",
"  X.XXXXXXXXXXXXXXXXXXXXXXXXXXXXXXXX X..",
"  X                                  X..",
"  XXXXXXXXXXXXXXXXXXXXXXXXXXXXXXXXXXXX..",
" .......................................",
"........................................"};
