/* XPM */
static char * library_xpm[] = {
/* width height ncolors chars_per_pixel */
"40 40 8 1",
/* colors */
" 	c lavender",
".	c dark slate grey",
"X	c grey",
"o	c black",
"O	c blue",
"+	c red",
"@	c yellow",
"#	c sea green",
/* pixels */
"                                        ",
"                                       .",
"  XXXXXXXXXXXXXXXXXXXXXXXXXXXXXXXXXXXX..",
"  X................................. X..",
"  X.XXXXXXXXXXXXXXXXXXXXXXXXXXXXXXXX X..",
"  X.XXXXXXXXXXXXXXXXXXXXXXXXXXXXXXXX X..",
"  X.XXXXXXXXXXXXXXXXXXXXXXXXXXXXXXXX X..",
"  X.XXXXXXXXXXXXXXXXXXXXXXXXXXXXXXXX X..",
"  X.XXXXXXXXXXXXXXXXXXXXXXXXXXXXXXXX X..",
"  X.XXXXXXXXXXXXXoooooXXXXXXXXXXXXXX X..",
"  X.XXXXXXXXXXXXXoOOOoXXXXXXXXXXXXXX X..",
"  X.XXXXXXXXXoooooOOOoooooXXXXXXXXXX X..",
"  X.XXXXXXXXXo+++oOOOoo@@oXXXXXXXXXX X..",
"  X.XXXXXXXXXo+++oOOOoo@@oXXXXXXXXXX X..",
"  X.XXXXoooooo+++oOOOoo@@oXXXXXXXXXX X..",
"  X.XXXXoOOOoo+++oOOOoo@@oXXXXXXXXXX X..",
"  X.XXXXoOOOoo+++oOOOoo@@ooooooXXXXX X..",
"  X.XXXXoOOOoo+++oOOOoo@@oo###oXXXXX X..",
"  X.XXXXoOOOoo+++oOOOoo@@oo###oXXXXX X..",
"  X.XXXXoOOOoo+++oOOOoo@@oo###oXXXXX X..",
"  X.XXXooOOOoo+++oOOOoo@@oo###ooXXXX X..",
"  X.XXXooOOOoo+++oOOOoo@@oo###ooXXXX X..",
"  X.XXXooOOOoo+++oOOOoo@@oo###ooXXXX X..",
"  X.XXXooOOOoo+++oOOOoo@@oo###ooXXXX X..",
"  X.XXXooOOOoo+++oOOOoo@@oo###ooXXXX X..",
"  X.XXXooOOOoo+++oOOOoo@@oo###ooXXXX X..",
"  X.XXXooOOOoo+++oOOOoo@@oo###ooXXXX X..",
"  X.XooooOOOoo+++oOOOoo@@oo###ooooXX X..",
"  X.XooooooooooooooooooooooooooooooX X..",
"  X.Xo+@++++@++++@++++@++++@++++@+oX X..",
"  X.XooooooooooooooooooooooooooooooX X..",
"  X.XXXXXo@oXXXXXXXXXXXXXXXo@oXXXXXX X..",
"  X.XXXXXo+oXXXXXXXXXXXXXXXo+oXXXXXX X..",
"  X.XXXXXo+oXXXXXXXXXXXXXXXo+oXXXXXX X..",
"  X.XXXXXoooXXXXXXXXXXXXXXXoooXXXXXX X..",
"  X.XXXXXXXXXXXXXXXXXXXXXXXXXXXXXXXX X..",
"  X                                  X..",
"  XXXXXXXXXXXXXXXXXXXXXXXXXXXXXXXXXXXX..",
" .......................................",
"........................................"};
