/* XPM */
static char * usa_xpm[] = {
/* width height ncolors chars_per_pixel */
"40 40 7 1",
/* colors */
" 	c lavender",
".	c dark slate grey",
"X	c grey",
"o	c blue",
"O	c red",
"+	c white",
"@	c slate grey",
/* pixels */
"                                       .",
"                                      ..",
"  XXXXXXXXXXXXXXXXXXXXXXXXXXXXXXXXXXXX..",
"  X................................. X..",
"  X.XXXXXXXXXXXXXXXXXXXXXXXXXXXXXXXX X..",
"  X.XXXXXXXXXXXXXXXXXXXXXXXXXXXXXXXX X..",
"  X.XXXXXXXXXXXXXXXXXXXXXXXXXXXXXXXX X..",
"  X.XXXXXXXXXXXXXXXXXXXXXXXXXXXXXXXX X..",
"  X.XXXXXXXXXXXXXXXXXXXXXXXXXXXXXXXX X..",
"  X.XXXXXXXXXXXXXXXXXXXXXXXXXXXXXXXX X..",
"  X.XXXoooooooooOOOOOOXXXXXXXXXXOOXX X..",
"  X.Xo+o+o+o+o+oOOOOOOOOXXXOXXXOOOXX X..",
"  X.XXo+o+o+o+oo+++++++X+X++XXX+++XX X..",
"  X.XX+o+o+o+o+o+++++++X+X+++++++X@X X..",
"  X.XXo+o+o+o+ooOOOOOOOOXXOOOOOOOX@X X..",
"  X.Xo+o+o+o+o+oOOOOOOOOOOOOOOOOX@XX X..",
"  X.Xoo+o+o+o+oo++++++++++++++++X@XX X..",
"  X.Xooooooooooo++++++++++++++++X@XX X..",
"  X.XOOOOOOOOOOOOOOOOOOOOOOOOOOX@XXX X..",
"  X.XXOOOOOOOOOOOOOOOOOOOOOOOOOX@XXX X..",
"  X.XX+++++++++++++++++++++++XX@XXXX X..",
"  X.XXX+++++++++++++++++++++X@@XXXXX X..",
"  X.XXXOOOOOOOOOOOOOOOOOOOOX@@XXXXXX X..",
"  X.XXXXXOOOOOOOOOOOOOOOOOOX@XXXXXXX X..",
"  X.XXXXXXXX++++++++++XXXX+X@XXXXXXX X..",
"  X.XXXXXX@@XXXX+++++XX@@@X+X@XXXXXX X..",
"  X.XXXXXXXX@@@@XXXXX@@XXX@OX@XXXXXX X..",
"  X.XXXXXXXXXXXX@@@@@@XXXXXOX@XXXXXX X..",
"  X.XXXXXXXXXXXXXXXXXXXXXXXX@@XXXXXX X..",
"  X.XXXXXXXXXXXXXXXXXXXXXXXX@XXXXXXX X..",
"  X.XXXXXXXXXXXXXXXXXXXXXXXXXXXXXXXX X..",
"  X.XXXXXXXXXXXXXXXXXXXXXXXXXXXXXXXX X..",
"  X.XXXXXXXXXXXXXXXXXXXXXXXXXXXXXXXX X..",
"  X.XXXXXXXXXXXXXXXXXXXXXXXXXXXXXXXX X..",
"  X.XXXXXXXXXXXXXXXXXXXXXXXXXXXXXXXX X..",
"  X.XXXXXXXXXXXXXXXXXXXXXXXXXXXXXXXX X..",
"  X                                  X..",
"  XXXXXXXXXXXXXXXXXXXXXXXXXXXXXXXXXXXX..",
" .......................................",
"........................................"};
