/* XPM */
static char * web_xpm[] = {
/* width height ncolors chars_per_pixel */
"40 40 5 1",
/* colors */
" 	c lavender",
".	c dark slate grey",
"X	c grey",
"o	c blue",
"O	c dodger blue",
/* pixels */
"                                       .",
"                                      ..",
"  XXXXXXXXXXXXXXXXXXXXXXXXXXXXXXXXXXXX..",
"  X................................. X..",
"  X.oXXXXXXXXXXXXXXXXXXXXXXXXXXXXXXo X..",
"  X.XoXXXXXXXXXXXXXXXXXXXXXXXXXXXXoX X..",
"  X.XXoXXXXXXXXXXXXXXXXXXXXXXXXXXoXX X..",
"  X.XXOoXXXXXXXXXXXXXXXXXXXXXXXXoXXX X..",
"  X.XXoXoOoXXXXXXXXXXXXXXXXoOoOOXXXX X..",
"  X.XXOXOXXoOoOXXXXXXXXXoOOXXXoXXXXX X..",
"  X.XXoXXoXXXXXoOoOoOoOOXXXoXoOXXXXX X..",
"  X.XXXoXXoOXXXXXXXXXXXXXoOXoXoXXXXX X..",
"  X.XXXoXXOXoOoOXXXXXXXoOXXoXXoXXXXX X..",
"  X.XXXOXXXoXXXXoOoOoOoXXXoXXXOXXXXX X..",
"  X.XXXXoXXoOoOXXXXXXXXXoOOXXXoXXXXX X..",
"  X.XXXXoXXOOXXoOoOoOoOoOXoXXXXoXXXX X..",
"  X.XXXXOXXoXoXXXXXXXXXOXXoXXXXoXXXX X..",
"  X.XXXoXXXOXXoOXXXXXXoXXXXoXXXXoXXX X..",
"  X.XXoXXXoXXXXXooXXoOXXXXXoXXXXXoXX X..",
"  X.XoXXXoXXXXXXXXoOXXXXXXXXoXXXXXoX X..",
"  X.oOoOOOoOoOoOoOOoOooOoOoOOoOoOOOo X..",
"  X.XXXoXXXoXXXXXoOXXXXXoXXXXOXXXoXX X..",
"  X.XXXXoXXXoXXXoXXoXXXoXXXXoXXXoXXX X..",
"  X.XXXXoXXXoXXXoXXXoXoXXXXoXXXXoXXX X..",
"  X.XXXXOXXXOXXoXXXXXoXXXXoXXXXoXXXX X..",
"  X.XXXXXoXXoXoXXXXXXXoXXoXXXXXoXXXX X..",
"  X.XXXXXoXXoOXXoOoOoXXoXoXXXXXOXXXX X..",
"  X.XXXXXOXoOoOOXXXXXoOOOXXXXXoXXXXX X..",
"  X.XXXXXoOXXXXXXXXXXXXXoOXXXXoXXXXX X..",
"  X.XXXXXOXXXXXXXXXXXXXXXXoXXXOXXXXX X..",
"  X.XXXXXoOoOoOoOoOoOoXXXXXoXXoXXXXX X..",
"  X.XXXXoXXXXXXXXXXXXXoOoOoOOoOXXXXX X..",
"  X.XXXoXXXXXXXXXXXXXXXXXXXXXoOoXXXX X..",
"  X.XXoXXXXXXXXXXXXXXXXXXXXXXXXXoOXX X..",
"  X.XoXXXXXXXXXXXXXXXXXXXXXXXXXXXXoX X..",
"  X.oXXXXXXXXXXXXXXXXXXXXXXXXXXXXXXX X..",
"  X                                  X..",
"  XXXXXXXXXXXXXXXXXXXXXXXXXXXXXXXXXXXX..",
" .......................................",
"........................................"};
