#define galemannhus_width 24
#define galemannhus_height 24
static char galemannhus_bits[] = {
0x00,0x00,0x00,0x00,0x0c,0x00,0x00,0x1e,0x00,0x00,0x2d,0x00,
0x80,0x5a,0x00,0x40,0xad,0x00,0xa0,0x54,0x01,0x90,0x96,0x02,
0x58,0x2a,0x05,0x48,0x2a,0x09,0x24,0x49,0x12,0xb2,0xcd,0x26,
0xb6,0xed,0x3e,0xf8,0xff,0x0f,0x90,0xaa,0x04,0x90,0x08,0x05,
0x10,0xf5,0x02,0x60,0xf5,0x02,0x20,0xf4,0x03,0x20,0xf1,0x02,
0x40,0xf5,0x02,0x20,0xf1,0x02,0x20,0xf5,0x02,0xe0,0x66,0x03};
