#define beta_width 6
#define beta_height 14
static unsigned char beta_bits[] = {
 0x1e,0x33,0x21,0x31,0x19,0x31,0x21,0x21,0x21,0x33,0x1d,0x01,0x01,0x01};
