#define mars_width 8
#define mars_height 7
static unsigned char mars_bits[] = {
 0xf0,0xc0,0xae,0x91,0x11,0x11,0x0e};
