#define perp_width 9
#define perp_height 10
static unsigned char perp_bits[] = {
 0x10,0x00,0x10,0x00,0x10,0x00,0x10,0x00,0x10,0x00,0x10,0x00,0x10,0x00,0x10,
 0x00,0x10,0x00,0xff,0x01};
