#define sub_in_width 10
#define sub_in_height 8
static unsigned char sub_in_bits[] = {
 0x03,0x00,0x00,0x00,0x73,0x00,0x92,0x00,0x92,0x00,0x92,0x00,0x92,0x00,0xbf,
 0x01};
