#define tau_width 5
#define tau_height 7
static unsigned char tau_bits[] = {
 0x1e,0x05,0x04,0x04,0x04,0x14,0x0c};
