#define tiny_8_width 6
#define tiny_8_height 7
static unsigned char tiny_8_bits[] = {
   0x1c, 0x22, 0x22, 0x1c, 0x22, 0x22, 0x1c};
