#define tiny-7_width 11
#define tiny-7_height 7
static unsigned char tiny-7_bits[] = {
   0xc0, 0x07, 0x40, 0x04, 0x00, 0x02, 0x1f, 0x02, 0x00, 0x01, 0x00, 0x01,
   0x00, 0x01};
