#define tiny-9_width 11
#define tiny-9_height 7
static unsigned char tiny-9_bits[] = {
   0x80, 0x03, 0x40, 0x04, 0x40, 0x04, 0x9f, 0x07, 0x00, 0x04, 0x00, 0x04,
   0x80, 0x03};
