#define upsilon_width 7
#define upsilon_height 7
static unsigned char upsilon_bits[] = {
 0x26,0x45,0x44,0x44,0x44,0x64,0x38};
