/* XPM */
static char *kpppload[] = {
/* width height num_colors chars_per_pixel */
"    32    32        7            1",
/* colors */
"  c none",
". c #ffffff",
"# c #000000",
"a c #c3c3c3",
"b c #808080",
"c c #008000",
"d c #ff0000",
/* pixels */
" ############################## ",
"#..............................#",
"#.aaaaaaaaaaaaaaaaaaaaaaaaaaaab#",
"#.abbbbbbbbbbbbbbbbbbbbbbbbbbab#",
"#.ab########################.ab#",
"#.ab#...............ccc....#.ab#",
"#.ab#..............c...c...#.ab#",
"#.ab#ccc...........c....c.c#.ab#",
"#.ab#...ccc.......c......c.#.ab#",
"#.ab#bbbbbbcbbbbbbcbbbbbbbb#.ab#",
"#.ab#.......c....c.........#.ab#",
"#.ab#.......c....c.........#.ab#",
"#.ab#........c..c.###......#.ab#",
"#.ab#bbbbbbbbcbb##..a##bbbb#.ab#",
"#.ab#........c##..aaaaa##..#.ab#",
"#.ab#.......##..aaaaaaaaa###.ab#",
"#.ab#.....##..aaaaaaaaaaaaa##ab#",
"#.ab#bbb##..aaaaaaaaaaaaaaaaa#b#",
"#.ab#.##..aaaaaaaaaaaaaaaaaaab##",
"#.ab##..aaaaaaaaaaaaaaaaaaabab##",
"#.##..aaaaaaaaaaaaaaaaaaababbb##",
"##abbba.aaaaaaaaaaaaaaababbbbb##",
"#.#aaabba.aaaaaaaaaaababbbbbbb##",
"#.#aadaabba.aaaaaaababbbbbbbb###",
"#.#aadadaabba.aaababbbbbbbb##ab#",
"#.##aaadadaabb.babbbbbbbb###.ab#",
"#.ab##aaadadaabbbbbbbbb##..#.ab#",
"#.ab####aaadadaabbbbb#######.ab#",
"#.ab....##aaadabbbb##........ab#",
"#.aaaaaaaa##aaabb##aaaaaaaaaaab#",
"#.bbbbbbbbbb##a##bbbbbbbbbbbbbb#",
" ############################## "
};
