#define noname_width 16
#define noname_height 16
static char noname_bits[] = {
 0x00,0x00,0x00,0x80,0xa8,0xea,0x54,0xd5,0xa8,0xea,0x54,0xd5,0xa8,0xea,0x54,
 0xd5,0xa8,0xea,0x54,0xd5,0xa8,0xea,0x54,0xd5,0xa8,0xea,0x54,0xd5,0xfc,0xff,
 0xfe,0xff};
