#define clock2_width 16
#define clock2_height 16
#define clock2_x_hot 7
#define clock2_y_hot 7
static char clock2_bits[] = {
   0x00, 0x00, 0xe0, 0x03, 0x18, 0x0c, 0x84, 0x10, 0x84, 0x10, 0x82, 0x20,
   0x82, 0x20, 0x82, 0x23, 0x02, 0x20, 0x02, 0x20, 0x04, 0x10, 0x04, 0x10,
   0x18, 0x0c, 0xf8, 0x0f, 0xfc, 0x1f, 0x00, 0x00};
