#define noname_width 16
#define noname_height 16
static char noname_bits[] = {
 0xe0,0x07,0xe0,0x0f,0x18,0x1c,0x18,0x18,0x18,0x18,0x18,0x18,0x18,0x18,0x00,
 0x00,0xec,0x3f,0x00,0x00,0xec,0x3f,0x00,0x00,0xec,0x3f,0x00,0x00,0xec,0x3f,
 0xfc,0x3f};
