#define fwdstep_width 16
#define fwdstep_height 16
static char fwdstep_bits[] = {
   0x00, 0x00, 0xcc, 0x01, 0xcc, 0x03, 0xcc, 0x07, 0xcc, 0x0e, 0xcc, 0x1c,
   0xcc, 0x38, 0xcc, 0x70, 0xcc, 0x38, 0xcc, 0x1c, 0xcc, 0x0e, 0xcc, 0x07,
   0xcc, 0x03, 0xcc, 0x01, 0x00, 0x00, 0x00, 0x00};
