#define noname_width 16
#define noname_height 16
static char noname_bits[] = {
 0xc0,0x07,0xf0,0x1f,0xf8,0x3f,0xfc,0x7f,0xfc,0x77,0xfe,0xe3,0xfe,0xf1,0xfe,
 0xf8,0x46,0xfc,0x0e,0xfe,0x1c,0x7f,0xbc,0x7f,0xf8,0x3f,0xf0,0x1f,0xc0,0x07,
 0x00,0x00};
