#define toggle_12_on_hlt_width 16
#define toggle_12_on_hlt_height 16
static char toggle_12_on_hlt_bits[] = {
   0x00, 0x00, 0x00, 0x00, 0x00, 0x00, 0x00, 0x00, 0xfe, 0x01, 0x01, 0x02,
   0xfd, 0x06, 0xad, 0x06, 0xd5, 0x06, 0xad, 0x06, 0xd5, 0x06, 0xad, 0x06,
   0xfd, 0x06, 0x01, 0x06, 0xfe, 0x07, 0xfc, 0x01};
