#define toggle_14_on_width 16
#define toggle_14_on_height 16
static char toggle_14_on_bits[] = {
   0x00, 0x00, 0x00, 0x00, 0xfe, 0x07, 0x01, 0x08, 0xfd, 0x0b, 0xad, 0x0a,
   0x55, 0x0b, 0xad, 0x0a, 0x55, 0x0b, 0xad, 0x0a, 0x55, 0x0b, 0xad, 0x0a,
   0xfd, 0x0b, 0x01, 0x08, 0xfe, 0x07, 0x00, 0x00};
