#define button-shaded_width 22
#define button-shaded_height 22
static char button-shaded_bits[] = {
   0xff, 0xff, 0x3f, 0x55, 0x55, 0x35, 0xab, 0xaa, 0x3a, 0xfd, 0xff, 0x3f,
   0x2b, 0x49, 0x3e, 0x9d, 0x24, 0x3d, 0x4b, 0x92, 0x3c, 0x2d, 0x49, 0x3e,
   0x9b, 0x24, 0x3d, 0x4d, 0x92, 0x3c, 0x2b, 0x49, 0x3e, 0x9d, 0x24, 0x3d,
   0x4b, 0x92, 0x3c, 0x2d, 0x49, 0x3e, 0x9b, 0x24, 0x3d, 0x4d, 0x92, 0x3c,
   0x2b, 0x49, 0x3e, 0x9d, 0x24, 0x3d, 0xfb, 0xff, 0x3f, 0xfd, 0xff, 0x3f,
   0xff, 0xff, 0x3f, 0xff, 0xff, 0x3f};
