/* XPM */
static char *emban01_xpm[] = {
/* width height ncolors chars_per_pixel */
"600 24 3 1",
/* colors */
"  c black",
". c None",
"X c white",
/* pixels */
"........................................................................................................................................................................................................................................................................................................................................................................................................................................................................................................................................................................................................................",
".XXXXXXXXXXXXXXXXXXXXXXXXXXXXXXXXXXXXXXXXXXXXXXXXXXXXXXXXXXXXXXXXXXXXXXXXXXXXXXXXXXXXXXXXXXXXXXXXXXXXXXXXXXXXXXXXXXXXXXXXXXXXXXXXXXXXXXXXXXXXXXXXXXXXXXXXXXXXXXXXXXXXXXXXXXXXXXXXXXXXXXXXXXXXXXXXXXXXXXXXXXXXXXXXXXXXXXXXXXXXXXXXXXXXXXXXXXXXXXXXXXXXXXXXXXXXXXXXXXXXXXXXXXXXXXXXXXXXXXXXXXXXXXXXXXXXXXXXXXXXXXXXXXXXXXXXXXXXXXXXXXXXXXXXXXXXXXXXXXXXXXXXXXXXXXXXXXXXXXXXXXXXXXXXXXXXXXXXXXXXXXXXXXXXXXXXXXXXXXXXXXXXXXXXXXXXXXXXXXXXXXXXXXXXXXXXXXXXXXXXXXXXXXXXXXXXXXXXXXXXXXXXXXXXXXXXXXXXXXXXXXXXXXXXXXXXXXXXXXXXXXXXXXXXXXXXXXXXXXXXXXXXXXXXXXXXXXXXXXXXXXXXXXXXXXXXXXXXXXXXXXXXXXXXXXXXXXXXXXXXXXXXXXXXXXXXXXXXXX.",
".X..................................................................................................................................................................................................................................................................................................................................................................................................................................................................................................................................................................................................................... ",
"..                                                                                                                                                                                                                                                                                                                                                                                                                                                                                                                                                                                                                      ",
".XXXXXXXXXXXXXXXXXXXXXXXXXXXXXXXXXXXXXXXXXXXXXXXXXXXXXXXXXXXXXXXXXXXXXXXXXXXXXXXXXXXXXXXXXXXXXXXXXXXXXXXXXXXXXXXXXXXXXXXXXXXXXXXXXXXXXXXXXXXXXXXXXXXXXXXXXXXXXXXXXXXXXXXXXXXXXXXXXXXXXXXXXXXXXXXXXXXXXXXXXXXXXXXXXXXXXXXXXXXXXXXXXXXXXXXXXXXXXXXXXXXXXXXXXXXXXXXXXXXXXXXXXXXXXXXXXXXXXXXXXXXXXXXXXXXXXXXXXXXXXXXXXXXXXXXXXXXXXXXXXXXXXXXXXXXXXXXXXXXXXXXXXXXXXXXXXXXXXXXXXXXXXXXXXXXXXXXXXXXXXXXXXXXXXXXXXXXXXXXXXXXXXXXXXXXXXXXXXXXXXXXXXXXXXXXXXXXXXXXXXXXXXXXXXXXXXXXXXXXXXXXXXXXXXXXXXXXXXXXXXXXXXXXXXXXXXXXXXXXXXXXXXXXXXXXXXXXXXXXXXXXXXXXXXXXXXXXXXXXXXXXXXXXXXXXXXXXXXXXXXXXXXXXXXXXXXXXXXXXXXXXXXXXXXXXXXXXXXX.",
".X..................................................................................................................................................................................................................................................................................................................................................................................................................................................................................................................................................................................................................... ",
"..   ..      ..      ..      ..      ..      ..      ..      ..      ..      ..      ..      ..      ..      ..      ..      ..      ..      ..      ..      ..      ..      ..      ..      ..      ..      ..      ..      ..      ..      ..      ..      ..      ..      ..      ..      ..      ..      ..      ..      ..      ..      ..      ..      ..      ..      ..      ..      ..      ..      ..      ..      ..      ..      ..      ..      ..      ..      ..      ..      ..      ..      ..      ..      ..      ..      ..      ..      ..      ..      ..      ..      ..      ..      ..      .. ",
".....X. .....X. .....X. .....X. .....X. .....X. .....X. .....X. .....X. .....X. .....X. .....X. .....X. .....X. .....X. .....X. .....X. .....X. .....X. .....X. .....X. .....X. .....X. .....X. .....X. .....X. .....X. .....X. .....X. .....X. .....X. .....X. .....X. .....X. .....X. .....X. .....X. .....X. .....X. .....X. .....X. .....X. .....X. .....X. .....X. .....X. .....X. .....X. .....X. .....X. .....X. .....X. .....X. .....X. .....X. .....X. .....X. .....X. .....X. .....X. .....X. .....X. .....X. .....X. .....X. .....X. .....X. .....X. .....X. .....X. .....X. .....X. .....X. .....X. .....X. ",
".XX..X. .XX..X. .XX..X. .XX..X. .XX..X. .XX..X. .XX..X. .XX..X. .XX..X. .XX..X. .XX..X. .XX..X. .XX..X. .XX..X. .XX..X. .XX..X. .XX..X. .XX..X. .XX..X. .XX..X. .XX..X. .XX..X. .XX..X. .XX..X. .XX..X. .XX..X. .XX..X. .XX..X. .XX..X. .XX..X. .XX..X. .XX..X. .XX..X. .XX..X. .XX..X. .XX..X. .XX..X. .XX..X. .XX..X. .XX..X. .XX..X. .XX..X. .XX..X. .XX..X. .XX..X. .XX..X. .XX..X. .XX..X. .XX..X. .XX..X. .XX..X. .XX..X. .XX..X. .XX..X. .XX..X. .XX..X. .XX..X. .XX..X. .XX..X. .XX..X. .XX..X. .XX..X. .XX..X. .XX..X. .XX..X. .XX..X. .XX..X. .XX..X. .XX..X. .XX..X. .XX..X. .XX..X. .XX..X. .XX..X. .XX..X. ",
".X. .X. .X. .X. .X. .X. .X. .X. .X. .X. .X. .X. .X. .X. .X. .X. .X. .X. .X. .X. .X. .X. .X. .X. .X. .X. .X. .X. .X. .X. .X. .X. .X. .X. .X. .X. .X. .X. .X. .X. .X. .X. .X. .X. .X. .X. .X. .X. .X. .X. .X. .X. .X. .X. .X. .X. .X. .X. .X. .X. .X. .X. .X. .X. .X. .X. .X. .X. .X. .X. .X. .X. .X. .X. .X. .X. .X. .X. .X. .X. .X. .X. .X. .X. .X. .X. .X. .X. .X. .X. .X. .X. .X. .X. .X. .X. .X. .X. .X. .X. .X. .X. .X. .X. .X. .X. .X. .X. .X. .X. .X. .X. .X. .X. .X. .X. .X. .X. .X. .X. .X. .X. .X. .X. .X. .X. .X. .X. .X. .X. .X. .X. .X. .X. .X. .X. .X. .X. .X. .X. .X. .X. .X. .X. .X. .X. .X. .X. .X. .X. ",
".X. .X. .X. .X. .X. .X. .X. .X. .X. .X. .X. .X. .X. .X. .X. .X. .X. .X. .X. .X. .X. .X. .X. .X. .X. .X. .X. .X. .X. .X. .X. .X. .X. .X. .X. .X. .X. .X. .X. .X. .X. .X. .X. .X. .X. .X. .X. .X. .X. .X. .X. .X. .X. .X. .X. .X. .X. .X. .X. .X. .X. .X. .X. .X. .X. .X. .X. .X. .X. .X. .X. .X. .X. .X. .X. .X. .X. .X. .X. .X. .X. .X. .X. .X. .X. .X. .X. .X. .X. .X. .X. .X. .X. .X. .X. .X. .X. .X. .X. .X. .X. .X. .X. .X. .X. .X. .X. .X. .X. .X. .X. .X. .X. .X. .X. .X. .X. .X. .X. .X. .X. .X. .X. .X. .X. .X. .X. .X. .X. .X. .X. .X. .X. .X. .X. .X. .X. .X. .X. .X. .X. .X. .X. .X. .X. .X. .X. .X. .X. .X. ",
".X. .X. .X. .X. .X. .X. .X. .X. .X. .X. .X. .X. .X. .X. .X. .X. .X. .X. .X. .X. .X. .X. .X. .X. .X. .X. .X. .X. .X. .X. .X. .X. .X. .X. .X. .X. .X. .X. .X. .X. .X. .X. .X. .X. .X. .X. .X. .X. .X. .X. .X. .X. .X. .X. .X. .X. .X. .X. .X. .X. .X. .X. .X. .X. .X. .X. .X. .X. .X. .X. .X. .X. .X. .X. .X. .X. .X. .X. .X. .X. .X. .X. .X. .X. .X. .X. .X. .X. .X. .X. .X. .X. .X. .X. .X. .X. .X. .X. .X. .X. .X. .X. .X. .X. .X. .X. .X. .X. .X. .X. .X. .X. .X. .X. .X. .X. .X. .X. .X. .X. .X. .X. .X. .X. .X. .X. .X. .X. .X. .X. .X. .X. .X. .X. .X. .X. .X. .X. .X. .X. .X. .X. .X. .X. .X. .X. .X. .X. .X. .X. ",
".X. .X. .X. .X. .X. .X. .X. .X. .X. .X. .X. .X. .X. .X. .X. .X. .X. .X. .X. .X. .X. .X. .X. .X. .X. .X. .X. .X. .X. .X. .X. .X. .X. .X. .X. .X. .X. .X. .X. .X. .X. .X. .X. .X. .X. .X. .X. .X. .X. .X. .X. .X. .X. .X. .X. .X. .X. .X. .X. .X. .X. .X. .X. .X. .X. .X. .X. .X. .X. .X. .X. .X. .X. .X. .X. .X. .X. .X. .X. .X. .X. .X. .X. .X. .X. .X. .X. .X. .X. .X. .X. .X. .X. .X. .X. .X. .X. .X. .X. .X. .X. .X. .X. .X. .X. .X. .X. .X. .X. .X. .X. .X. .X. .X. .X. .X. .X. .X. .X. .X. .X. .X. .X. .X. .X. .X. .X. .X. .X. .X. .X. .X. .X. .X. .X. .X. .X. .X. .X. .X. .X. .X. .X. .X. .X. .X. .X. .X. .X. .X. ",
".X. .X. .X. .X. .X. .X. .X. .X. .X. .X. .X. .X. .X. .X. .X. .X. .X. .X. .X. .X. .X. .X. .X. .X. .X. .X. .X. .X. .X. .X. .X. .X. .X. .X. .X. .X. .X. .X. .X. .X. .X. .X. .X. .X. .X. .X. .X. .X. .X. .X. .X. .X. .X. .X. .X. .X. .X. .X. .X. .X. .X. .X. .X. .X. .X. .X. .X. .X. .X. .X. .X. .X. .X. .X. .X. .X. .X. .X. .X. .X. .X. .X. .X. .X. .X. .X. .X. .X. .X. .X. .X. .X. .X. .X. .X. .X. .X. .X. .X. .X. .X. .X. .X. .X. .X. .X. .X. .X. .X. .X. .X. .X. .X. .X. .X. .X. .X. .X. .X. .X. .X. .X. .X. .X. .X. .X. .X. .X. .X. .X. .X. .X. .X. .X. .X. .X. .X. .X. .X. .X. .X. .X. .X. .X. .X. .X. .X. .X. .X. .X. ",
".X. .X. .X. .X. .X. .X. .X. .X. .X. .X. .X. .X. .X. .X. .X. .X. .X. .X. .X. .X. .X. .X. .X. .X. .X. .X. .X. .X. .X. .X. .X. .X. .X. .X. .X. .X. .X. .X. .X. .X. .X. .X. .X. .X. .X. .X. .X. .X. .X. .X. .X. .X. .X. .X. .X. .X. .X. .X. .X. .X. .X. .X. .X. .X. .X. .X. .X. .X. .X. .X. .X. .X. .X. .X. .X. .X. .X. .X. .X. .X. .X. .X. .X. .X. .X. .X. .X. .X. .X. .X. .X. .X. .X. .X. .X. .X. .X. .X. .X. .X. .X. .X. .X. .X. .X. .X. .X. .X. .X. .X. .X. .X. .X. .X. .X. .X. .X. .X. .X. .X. .X. .X. .X. .X. .X. .X. .X. .X. .X. .X. .X. .X. .X. .X. .X. .X. .X. .X. .X. .X. .X. .X. .X. .X. .X. .X. .X. .X. .X. .X. ",
".X. .X. .X. .X. .X. .X. .X. .X. .X. .X. .X. .X. .X. .X. .X. .X. .X. .X. .X. .X. .X. .X. .X. .X. .X. .X. .X. .X. .X. .X. .X. .X. .X. .X. .X. .X. .X. .X. .X. .X. .X. .X. .X. .X. .X. .X. .X. .X. .X. .X. .X. .X. .X. .X. .X. .X. .X. .X. .X. .X. .X. .X. .X. .X. .X. .X. .X. .X. .X. .X. .X. .X. .X. .X. .X. .X. .X. .X. .X. .X. .X. .X. .X. .X. .X. .X. .X. .X. .X. .X. .X. .X. .X. .X. .X. .X. .X. .X. .X. .X. .X. .X. .X. .X. .X. .X. .X. .X. .X. .X. .X. .X. .X. .X. .X. .X. .X. .X. .X. .X. .X. .X. .X. .X. .X. .X. .X. .X. .X. .X. .X. .X. .X. .X. .X. .X. .X. .X. .X. .X. .X. .X. .X. .X. .X. .X. .X. .X. .X. .X. ",
".X. ..  .X. ..  .X. ..  .X. ..  .X. ..  .X. ..  .X. ..  .X. ..  .X. ..  .X. ..  .X. ..  .X. ..  .X. ..  .X. ..  .X. ..  .X. ..  .X. ..  .X. ..  .X. ..  .X. ..  .X. ..  .X. ..  .X. ..  .X. ..  .X. ..  .X. ..  .X. ..  .X. ..  .X. ..  .X. ..  .X. ..  .X. ..  .X. ..  .X. ..  .X. ..  .X. ..  .X. ..  .X. ..  .X. ..  .X. ..  .X. ..  .X. ..  .X. ..  .X. ..  .X. ..  .X. ..  .X. ..  .X. ..  .X. ..  .X. ..  .X. ..  .X. ..  .X. ..  .X. ..  .X. ..  .X. ..  .X. ..  .X. ..  .X. ..  .X. ..  .X. ..  .X. ..  .X. ..  .X. ..  .X. ..  .X. ..  .X. ..  .X. ..  .X. ..  .X. ..  .X. ..  .X. ..  .X. ..  .X. ..  .X. ..  ",
".X. .....X. .....X. .....X. .....X. .....X. .....X. .....X. .....X. .....X. .....X. .....X. .....X. .....X. .....X. .....X. .....X. .....X. .....X. .....X. .....X. .....X. .....X. .....X. .....X. .....X. .....X. .....X. .....X. .....X. .....X. .....X. .....X. .....X. .....X. .....X. .....X. .....X. .....X. .....X. .....X. .....X. .....X. .....X. .....X. .....X. .....X. .....X. .....X. .....X. .....X. .....X. .....X. .....X. .....X. .....X. .....X. .....X. .....X. .....X. .....X. .....X. .....X. .....X. .....X. .....X. .....X. .....X. .....X. .....X. .....X. .....X. .....X. .....X. .....X. ....",
".X..XXXXXX..XXXXXX..XXXXXX..XXXXXX..XXXXXX..XXXXXX..XXXXXX..XXXXXX..XXXXXX..XXXXXX..XXXXXX..XXXXXX..XXXXXX..XXXXXX..XXXXXX..XXXXXX..XXXXXX..XXXXXX..XXXXXX..XXXXXX..XXXXXX..XXXXXX..XXXXXX..XXXXXX..XXXXXX..XXXXXX..XXXXXX..XXXXXX..XXXXXX..XXXXXX..XXXXXX..XXXXXX..XXXXXX..XXXXXX..XXXXXX..XXXXXX..XXXXXX..XXXXXX..XXXXXX..XXXXXX..XXXXXX..XXXXXX..XXXXXX..XXXXXX..XXXXXX..XXXXXX..XXXXXX..XXXXXX..XXXXXX..XXXXXX..XXXXXX..XXXXXX..XXXXXX..XXXXXX..XXXXXX..XXXXXX..XXXXXX..XXXXXX..XXXXXX..XXXXXX..XXXXXX..XXXXXX..XXXXXX..XXXXXX..XXXXXX..XXXXXX..XXXXXX..XXXXXX..XXXXXX..XXXXXX..XXXXXX..XXXXXX..XXXXXX..XXXXXX..XXX.",
".X..................................................................................................................................................................................................................................................................................................................................................................................................................................................................................................................................................................................................................... ",
"..                                                                                                                                                                                                                                                                                                                                                                                                                                                                                                                                                                                                                      ",
".XXXXXXXXXXXXXXXXXXXXXXXXXXXXXXXXXXXXXXXXXXXXXXXXXXXXXXXXXXXXXXXXXXXXXXXXXXXXXXXXXXXXXXXXXXXXXXXXXXXXXXXXXXXXXXXXXXXXXXXXXXXXXXXXXXXXXXXXXXXXXXXXXXXXXXXXXXXXXXXXXXXXXXXXXXXXXXXXXXXXXXXXXXXXXXXXXXXXXXXXXXXXXXXXXXXXXXXXXXXXXXXXXXXXXXXXXXXXXXXXXXXXXXXXXXXXXXXXXXXXXXXXXXXXXXXXXXXXXXXXXXXXXXXXXXXXXXXXXXXXXXXXXXXXXXXXXXXXXXXXXXXXXXXXXXXXXXXXXXXXXXXXXXXXXXXXXXXXXXXXXXXXXXXXXXXXXXXXXXXXXXXXXXXXXXXXXXXXXXXXXXXXXXXXXXXXXXXXXXXXXXXXXXXXXXXXXXXXXXXXXXXXXXXXXXXXXXXXXXXXXXXXXXXXXXXXXXXXXXXXXXXXXXXXXXXXXXXXXXXXXXXXXXXXXXXXXXXXXXXXXXXXXXXXXXXXXXXXXXXXXXXXXXXXXXXXXXXXXXXXXXXXXXXXXXXXXXXXXXXXXXXXXXXXXXXXXXXXXX.",
".X..................................................................................................................................................................................................................................................................................................................................................................................................................................................................................................................................................................................................................... ",
"..                                                                                                                                                                                                                                                                                                                                                                                                                                                                                                                                                                                                                      "
};
