/* XPM */
static char *library_recol_xpm[] = {
/* width height ncolors chars_per_pixel */
"64 54 13 1",
/* colors */
"  c black",
". c tan",
"X c wheat",
"o c DodgerBlue",
"O c peru",
"+ c sienna",
"@ c DarkSlateGrey",
"# c red",
"$ c purple",
"% c tomato",
"& c white",
"* c orange",
"= c None",
/* pixels */
"================================================================",
"=$$==========$$====$$===========================================",
"=$$ =========$$ ===$$ ==========================================",
"=$$ ==========  ===$$ ==========================================",
"=$$ ========$$$====$$ $$$===$$=$$$$====$$$$$==$$=$$$$==$$====$$=",
"=$$ =========$$ ===$$$= $$===$$$  $$==$$   $$==$$$  $$=$$ ===$$ ",
"=$$ =========$$ ===$$  ==$$==$$  ==  ==  ==$$ =$$  ==  $$ ===$$ ",
"=$$ =========$$ ===$$ ===$$ =$$ ======$$$$$$$ =$$ =====$$ ===$$ ",
"=$$ =========$$ ===$$ ===$$ =$$ =====$$    $$ =$$ =====$$ ===$$ ",
"=$$ =========$$ ===$$$==$$  =$$ =====$$ ==$$$ =$$ ======$$==$$$ ",
"=$$$$$$$===$$$$$$==$$ $$$  ==$$ ===== $$$$ $$ =$$ =======$$$ $$ ",
"==       ===      ==  =   ====  ===== .    =  ==  ========   $$ ",
"===================================== .... ============$$===$$  ",
"===================================== .... =============$$$$$  =",
"===================================== #@o@ ==============     ==",
"===============       =============== @#@o =====================",
"=============== %%%%% =============== @@#@ =====================",
"=============== %   % ====            @o@# =====================",
"=============== % X % ==== oooooooooo o@@@ =====================",
"=============== %   % ==== oooooooooo ....      ================",
"=============== %%%%% ==== oooooooooo .  . %%%% ================",
"=============== %%%%% ==== oooooooooo . .. %%%% ================",
"=============== %%%%% ==== o o o  ooo .... %&&% ================",
"=========  ==== % % % ==== o  o o   o . .. %%&% ====  ==========",
"======== O ==== %%  % ==== oooooooooo .. . %%%% ==== O =========",
"======== O ==== %%% %      oooooooooo .. . %&&% ==== O =========",
"=====   O   ==  %%  % &&&& ooo o oooo .... %%%%  ==   O   ======",
"====  OOOOO  =  % %%% &**& ooo oo ooo .  . %&%%  =  OOOOO  =====",
"==== OO OOOO    %%%%% &**& ooo  o ooo .... %&%%    OOOO OO =====",
"=== OO  OOOOO   %  %% &&&& ooooo  ooo . .. %%&%   OOOOO  OO ====",
"=== OOOOOOOOOO  %% %% &&&& ooo o oooo .. . %%%%  OOOOOOOOOO ====",
"== OOOOOOOOOOO  %%  % &**& oooo ooooo . .. &&&&  OOOOOOOOOOO ===",
"== OO O   OOOO  % %%% &**& ooooo oooo .... &##&  OOOO   O OO ===",
"== O O === OOO  %% %% &**& ooo  ooooo .. . &&#&  OOO === O O ===",
"== O  ==== OOO  % %%% &**& ooo oo ooo .  . &&&&  OOO ====  O ===",
"===  ====== OO  % % % &**& ooo oooooo .... &##&  OO ======  ====",
"=========== OO  %   % &**& oooo o ooo . .. &&#&  OO ============",
"=========== OO  %%%%% &**& oooo  oooo . .. &&&&  OO ============",
"==========  OO  % %%% &**& ooooo  ooo .. . &&#&  OO  ===========",
"========== OOO  %% %% &**& ooo oooooo .... &#&&  OOO ===========",
"=========  OOO  % %%% &**& ooooo  ooo . .. &#&&  OOO  ==========",
"========  OOOO  %%%%% &**& ooooo  ooo .  . &&&&  OOOO  =========",
"=======  OOOOO  %%%%% &**& ooo  & ooo .... &#&&  OOOOO  ========",
"======  OOOOOO        &**& ooooo oooo .... &&#&  OOOOOO  =======",
"=====  OOOOOOO  XX XX &**& ooo oooooo .... &&#&  OOOOOOO  ======",
"====  OOOOOOOO  X X X &**& oooo   ooo .  . &#&&  OOOOOOOO  =====",
"===  OOOOOOOOO        &**& ooo    ooo .. . &##&  OOOOOOOOO  ====",
"=== OOOOOOOOOO  %%%%% &**& ooooo oooo . .. &&#&  OOOOOOOOOO ====",
"=== OOOOOOOOOO  %%%%% &**& ooo   oooo .... &#&&  OOOOOOOOOO ====",
"=               %%%%% &&&& oooooooooo .... &&&&               ==",
"                                                                ",
"                                                                ",
"++++++++++++++++++++++++++++++++++++++++++++++++++++++++++++++++",
"++++++++++++++++++++++++++++++++++++++++++++++++++++++++++++++++"
};
