/* XPM */
static char *oracle_recol_xpm[] = {
/* width height ncolors chars_per_pixel */
"64 54 13 1",
/* colors */
"  c black",
". c tan",
"X c LimeGreen",
"o c green",
"O c DodgerBlue",
"+ c SkyBlue",
"@ c DarkSlateGrey",
"# c red",
"$ c SeaGreen",
"% c LemonChiffon",
"& c None",
"* c PaleGreen",
"= c blue",
/* pixels */
"&&&&&&&&&&&&&&&&&&&&&&&&&&&&&&&&&        &&&&&&&&&&&&&&&&&&&&&&&",
"&&&&&&&&&&&&&&&&&&&&&&&&&&&&&&&&  ......   &&&&&&&&&&&&&&&&&&&&&",
"&&&&&&&&&&&&&&&&&&&&&&&&&&&&&&  .   . .....  &&&&&&&&&&&&&&&&&&&",
"&&&&&&&&&&&&&&&&&&&&&&&&&&&&&   ...  .. .... &&&&&&&&&&&&&&&&&&&",
"&&&&&&&&&&&&&&&&&&&&&&&&&&&&  .... .. .... .. &&&&&&&&&&&&&&&&&&",
"&&&&&&&&&&&&&&&&&&&&&&&&&&&  ... .... . .....  &&&&&&&&&&&&&&&&&",
"&&&&&&&&&&&&&&&&&&&&&&&&&      .... ..  .        &&&&&&&&&&&&&&&",
"&&&&&&&&&&&&&&&&&&&&&&&&  ...    ......   ...... &&&&&&&&&&&&&&&",
"&&&&&&&&&&&&&&&&&&&&&&&  ........       ... ..... &&&&&&&&&&&&&&",
"&&&&&&&&&&&&&&&&&&&&&&  .. ........   ........ .. &&&&&&&&&&&&&&",
"&&&&&&&&&&&&&&&&&&&&&  ..... ... .....  . .. ..... &&&&&&&&&&&&&",
"&&&&&&&&&&&&&&&&&&&&&  ........... ....   ..... .. &&&&&&&&&&&&&",
"&&&&&&&&&&&&&&&&&&&&& .. ... .. .........    ...... &&&&&&&&&&&&",
"&&&&&&&&&&&&&&&&&&&&& ............. .... ...        &&&&&&&&&&&&",
"&&&&&&&&&&&&&&&&&&&&& .... ........... ......  ....  &&&&&&&&&&&",
"&&&&&&&&&&&&&&&&&&&&&  ......     .     .. ....   .. &&&&&&&&&&&",
"&&&&&&&&&&&&&&&&&&&&&& .. .. ++++   ++++ .........   &&&&&&&&&&&",
"&&&&&&&&&&&&&&&&&&&&&& ....  ++ + % + ++  ... .. .. &&&&&&&&&&&&",
"&&&&&&&&&&&&&&&&&&&&&&& ...       %        ........  &&&&&&&&&&&",
"&&&&&&&&&&&&&&&&&&&&&&&  ...     %%%%   %%% ...... . &&&&&&&&&&&",
"&&&&&&&&&&&&&&&&&&&&&&&&  .  %% %%%%  %%%%%% ... ... &&&&&&&&&&&",
"&&&&&&&&&&&&&&&&&&&&&&&&&   %%%% %% %% %%%%%% ...... &&&&&&&&&&&",
"&&&&&&&&&&&&&&&&&&&&&&&    %%%%%%  %%%%  %%%%      . &&&&&&&&&&&",
"&&&&&&&&&&&&&&&&&&&&&      %%%%%%%%%%%%%% %%   #     &&&&&&&&&&&",
"&&&&&&&&&&&&&&&&&&&  ..      %%%%%%%%%%%%%%    ###     &&&&&&&&&",
"&&&&&&&&&&&&&&&&&&  ....  ###  %%%%%%%%%     ####    .  &&&&&&&&",
"&&&&&&&&&&&&&&&   .......  ####  %%%%      #####   .. ..  &&&&&&",
"&&&&&&&&&&&&&&   .... ...   #####      #######   ... ..... &&&&&",
"&&&&&&&&&&&&&  .. .........  ###############   .........    &&&&",
"&&&&&&&&&&&& ..............   ############    ........   ... &&&",
"&&&&&&&&&&&& ..... .... ...      #####      .... .. .  ..... &&&",
"&&&&&&&&&&&& .  .. ..........              .... ..... ... ... &&",
"&&&&&&&&&&&  ... .  ..... ...  OOO     ..  ...... .. ........ &&",
"&&&&&&&&    .....   .. ...... O===O  .... .... . .. ..   .... &&",
"&&&&&&& ....  .....  . ...... O==O  ...... ... ... .  ..... .. &",
"&&&         .  ..... .. .. ..  OO  .... ..  ....    .......... &",
"&  .........     . .   .......    .........          .   ..... &",
"& ....... ...            ........... ........  .........  . ... ",
" ... ...........   .....   .....         .... .... ... ........ ",
" ..... .......    .... ...  ..    ......  ..  ... .. ........ . ",
"  ...... ...  ... . .........   ..........  ..   .. ..... ..... ",
" ... ....... ........@@@@@.   . ... ... ..  ...  .... ..... ... ",
"  ........  . .. ..@@     @@.. . ... .......    ...... ...... . ",
".  .  .... ......@@         @@.. ..... ......  .......... . ... ",
" .  ..... ... ...@        *  @.......... .. ... ....... ....... ",
"& .   ..  ..... @             @.... ....... .. ......... ..... &",
"&      . .  ....@             @.. ......... .. .........  ...  &",
"        ..... .@               @...... ......  ..........  .  &&",
"..      .......@ @@@           @... . ..  . ... ... . ....  &&&&",
".....  .    ...@@$$$@          @.  ...... ........ ... ..  &&&&&",
". ..  .....   .@$$X$$@         @  ....... ..............   &&&&&",
"...  ........  @$XoX$$@        @ ........ .. .. .....     &&&&&&",
"... .. .... ....@$*oX$@       @ .. ... ..  ......      ... &&&&&",
" . ...... .... .@@$X$$@       @...........       .........  &&&&"
};
