/* XPM */
static char * povray_xpm[] = {
/* width height ncolors chars_per_pixel */
"64 54 12 1",
/* colors */
" 	c None",
".	c DodgerBlue",
"X	c LightSeaGreen",
"o	c Blue",
"O	c DarkSlateGrey",
"+	c Navy",
"@	c Black",
"#	c SlateGrey",
"$	c SkyBlue",
"%	c Lavender",
"&	c White",
"*	c SeaGreen",
/* pixels */
"                                                                ",
"                                                                ",
"                                ......                          ",
"                            X.............                      ",
"                          ..o.ooOooo........                    ",
"                        ..o+O@@+@+@@@Ooo......                  ",
"                       .o+@@oo    ooO@+@Oo.....                 ",
"                      Xo@o            oO@@o..o..                ",
"                     #o#                oO@O.....               ",
"                    oO                    O@@.$o..              ",
"                   #O            o+o.      o@O.$..              ",
"                  #o           o+....+o     o@#.$o.             ",
"                  #           +...$.$.+o     @+$.$o             ",
"                             +o.$$$$.$.+     o@.$$..            ",
"                             O.$%&%$$.$oo    .@o$.$o            ",
"                            $o.$$%$$$.$.+     @o$$.o            ",
"                            ++o.$$$$.$.oo     Oo$$$.            ",
"                            o+O+o$..$.$o+     +..$.O            ",
"                            #O+o+oO$.$o+O     ..$$.O            ",
"                             +O+O+o+o+o+o    .o$.$oo            ",
"                             oO+O+O+O+O+     +..$o+o            ",
"                              O@O+OO+OO     .O.oX+O             ",
"                          o    #@@O+OO      +.o.oOo             ",
"                          +o     ooo       +.o.o+O              ",
"                   #oo    +#..            O+o+o+O               ",
"                    #+oo +o..$..o+o      oo+o+O+                ",
"                     #Oo.+o.#$#.OO+   .o+o+o+O+                 ",
"                       +Oo#.$..+o+  .o++o+o+OO                  ",
"                        Oo.#$##o+ooOOo+o+o+Oo                   ",
"                        +.#....oOoOOoO+OOOO                     ",
"                        o..$#oO+Oo+OOOOOo                       ",
"                        o.#..ooOo++oo                           ",
"                       o..$.oo+O                                ",
"                       +.#$.+o+                                 ",
"                       +..##o+#                                 ",
"                       ..$.o+*                                  ",
"                      #.#.#O+                                   ",
"                      o#$#o*#                                   ",
"                      +..#+O                                    ",
"                      +.#o+                                     ",
"                     o..o+#                                     ",
"                     o.#+#                                      ",
"                     .#oO                                       ",
"                    #.o+                                        ",
"                    o.+#                                        ",
"                    o#O                                         ",
"                    .+                                          ",
"                   oo#                                          ",
"                   .O                                           ",
"                   +                                            ",
"                   o                                            ",
"                                                                ",
"                                                                ",
"                                                                "};
