/* XPM */
static char *email_51_xpm[] = {
"44 51 3 1",
" 	c None",
".	c black",
"X	c white",
"                                            ",
"                                            ",
"                                            ",
"                                            ",
"                                            ",
"                                            ",
"                                            ",
"                                            ",
"                                            ",
"                                            ",
"                                            ",
"                                            ",
"                                            ",
"                                            ",
"                                            ",
"                                            ",
"                                            ",
"                                            ",
"                                            ",
"                                            ",
"                                            ",
"                                            ",
"                                            ",
"                                            ",
"                                            ",
"                                            ",
"                                            ",
"                                            ",
"                                            ",
"                                            ",
"                                            ",
"                                            ",
"                                            ",
"                                            ",
"                 ........                   ",
"                 .XXXX...                   ",
"                 .XXXX...                   ",
"                 .XXXX...                   ",
"                 .XXXX...                   ",
"                 .XXXXX..                   ",
"                 .X...X..                   ",
"                 .XXXXX..                   ",
"                 .X...X..                   ",
"                 .XXXXX..                   ",
"                 .XX.....                   ",
"                 .XXXXX..                   ",
"                 .XXXXX..                   ",
"                 ........                   ",
"                 ........                   ",
"                                            ",
"                                            "};
