/* XPM */
static char * email_63_xpm[] = {
"44 51 3 1",
" 	s None	c None",
".	c black",
"X	c white",
"                                            ",
"                                            ",
"                                            ",
"                                            ",
"                                            ",
"                                            ",
"                                            ",
"                                            ",
"                                            ",
"                                            ",
"                                            ",
"                                            ",
"                                            ",
"                                            ",
"                                            ",
"                                            ",
"                                            ",
"                                            ",
"                                            ",
"                                            ",
"                                            ",
"                                            ",
"                                            ",
"                                            ",
"                                            ",
"                                            ",
"                                            ",
"                                            ",
"                                            ",
"                                            ",
"                                            ",
"                                            ",
"                                            ",
"                                            ",
"                                    .... ...",
"                                         ..X",
"                                  ...... ..X",
"                                         ..X",
"                                         ..X",
"                               ......... ..X",
"                                         ..X",
"                                         ..X",
"                             ........... ..X",
"                                         ..X",
"                                         ..X",
"                                ........ ..X",
"                                         ..X",
"                                         ...",
"                                   ..... ...",
"                                            ",
"                                            "};
