/* XPM */
static char *email_09_xpm[] = {
"44 51 3 1",
" 	c None",
".	c black",
"X	c white",
"                                            ",
"                                            ",
"                                            ",
"                                            ",
"                                            ",
"                                            ",
"                                            ",
"                                            ",
"   ...............................          ",
"   .XXXXXXXXXXXXXXXXXXXXXXXXXXXXX.          ",
"   .XXXXXXXXXXXXXXXXXXXXXXXXXXXXX.          ",
"   .XXXXXXXXXXXXXXXXXXXXXXXXXXXXX.          ",
"   .XXXXXXXXXXXXXXXX.XXXXXXXXXXXX.          ",
"   .X...X.XXX...XX.X.XXXXXXXXXXXX.          ",
"   .X...X.X.X......X.XXXXXXXXXXXX.          ",
"   .XXXXXXXXXXXXX.XXXXXXXXXXXXXXX.          ",
"   .XXXXXXXXXXXXXXXXXXXXXXXXXXXXX.          ",
"   .XXXXXXXXXXXXXXXXXXXXXXXXXXXXX.          ",
"   .XXXXXXXXXXXXXXXXXXXXXXXXXXXXX.          ",
"   .XXXXXXXXXXXXXXXXXXXXXXXXXXXXX.          ",
"   .X.XXXX.X..X.XXX....XXX..XXXXX.          ",
"   .XXX.XX.X..X.XXX....XXX...XXXX.          ",
"   .XXXXXXXXXXXXXXXXXXXXXXXX.XXXX.          ",
"   .XXXXXXXXXXXXXXXXXXXXXXXXXXXXX.          ",
"   .XXXX.XXX.XXX.X.XX..X.X..X.XXX.          ",
"   .X..X..XX.X...X.XX.XX.X..X.XXX.     .    ",
"   .XXXXX.XXXXXXXXXXXXXXXXXXXXXXX.   ...    ",
"   .XXXXXXXXXXXXXXXXXXXXX...XXXXX. ....     ",
"   .XXXXX..XXX.X.XXXXXXX..XXX...X....       ",
"   .X...X..XX..X.X.XXXXX.XXXXXXX....        ",
"   .XXXXXXXXXXXXXXXXXXX.XXXXXXX.X.          ",
"   .XXXXXXXXXXXXXXXXXX.XXXXXX.XXXX          ",
"   .XXXXXXXXXXXXXXXXXX.XXX.X.XXXXX.         ",
"   .XXXXXXXXXXXXXXXXX.XXX....XXXXXX.        ",
"   .XXXXXXXXXXXXXXXXX.XX.....XXXXXXXX       ",
"   .XXXXXXXXXXX.X.XXX..XXXXXXXXXXXXXX       ",
"   .XXXXXXXXXXX.X.X...XXXXXXXXXXXXXXX       ",
"   .XXXXXXXXXXXXX.X...XXXXXXXXXXXXXX.       ",
"   .XXXXXXXXXXX.XX....X.XXXXXXXXXXXX.       ",
"   .XXXXXXXXXXX.X..XXXXX............        ",
"   .XXXXXXXXXXX..XXXXXXXXXXXXXXXX.          ",
"   .XXXXXXXXXXXXXXXXXXXXXXXXXXXXX.          ",
"   .XXXXXXXXXXXXXXXXXXXXXXXXXXXXX.          ",
"   ...............................          ",
"                                            ",
"                                            ",
"                                            ",
"                                            ",
"                                            ",
"                                            ",
"                                            "};
