/* XPM */
static char *email_36_xpm[] = {
"44 51 3 1",
" 	c None",
".	c black",
"X	c white",
"                                            ",
"                                            ",
"                                            ",
"                                            ",
"                                            ",
"                                            ",
"                                            ",
"        ...                                 ",
"        .XX......                           ",
"        .XXXXXXXX......                     ",
"       .XXXXXXXXXXXXXXX......               ",
"       .XXXXXXXXXXXXXXXXXXXXX......         ",
"       .XXXXXXXXXXXXXXXXXXXXXXXXXXX...      ",
"       .XXXXXXXXXXXXXXXXXXXXXXXXXXXXX.      ",
"       .XXXXXXXXXXXXXXXXXXXXXXXXXXXXX.      ",
"       .XXXXXXXXXXXXXXXXXXXXXXXXXXXX.       ",
"      .XXXXXXXXXXXXXXXXXXXXXXXXXXXXX.       ",
"      .XXXXXXXXXXXXXXXXXXXXXXXXXXXXX.       ",
"      ...XXXXXXXXXXXXXXXXXXXXXXXXXXX.       ",
"         ......XXXXXXXXXXXXXXXXXXXXX.       ",
"               ......XXXXXXXXXXXXXXX.       ",
"                     ......XXXXXXXX.        ",
"                           ......XX.        ",
"                                 ...        ",
"                                            ",
"                                            ",
"                    ...                     ",
"                  ..XXX..                   ",
"                ..XXXXXXX..                 ",
"              ..XXXXXXXXXXX..               ",
"            ..XXXXXXXXXXXXXXX..             ",
"          ..XXXXXXXXXXXXXXXXXXX..           ",
"        ..XXXXXXXXXXXXXXXXXXXXXXX..         ",
"      ..XXXXXXXXXXXXXXXXXXXXXXXXXXX..       ",
"   ...XXXXXXXXXXXXXXXXXXXXXXXXXXXXXX....    ",
"   ..XXXXXXXXXXXXXXXXXXXXXXXXXXXXXXXXX..    ",
"   ....XXXXXXXXXXXXXXXXXXXXXXXXXXXXX....    ",
"   ..XX..XXXXXXXXXXXXXXXXXXXXXXXXX..XX..    ",
"   ..XXXX.XXXXXXXXXXXXXXXXXXXXXXX.XXXX..    ",
"   ..XXXXX..XXXXXXXXXXXXXXXXXXX..XXXXX..    ",
"   ..XXXXXXX..XXXXXXXXXXXXXXX..XXXXXXX..    ",
"   ..XXXXXXXXX..XXXXXXXXXXX..XXXXXXXXX..    ",
"   ..XXXXXXXXXXX..XXXXXXX..XXXXXXXXXXX..    ",
"   ..XXXXXXXXX...X..XXX...X..XXXXXXXXX..    ",
"   ..XXXXXXX...XXXXX....XXXXX..XXXXXXX..    ",
"   ..XXXXX...XXXXXXXXXXXXXXXXXX..XXXXX..    ",
"   ..XXX...XXXXXXXXXXXXXXXXXXXXXX..XXX..    ",
"   ..X...XXXXXXXXXXXXXXXXXXXXXXXXXX..X..    ",
"   .....................................    ",
"   .....................................    ",
"                                            "};
