/* XPM */
static char *email_02_xpm[] = {
"45 52 3 1",
" 	c None",
".	c black",
"X	c white",
"                                             ",
"                                             ",
"                                             ",
"                                             ",
"                                             ",
"                                             ",
"                                             ",
"                                             ",
"       .  .       . . ..    . .  .           ",
"     X  X     X   X        X    X            ",
"   .   X XXX       X X    X  X XX            ",
"   .    X      X     X  X X  X   .           ",
"    X X          X    X          .           ",
"          X                                  ",
"   . .  X               X     X X            ",
"   .       X  X      X   X                   ",
"         X     X   X      X   X X            ",
"   .    X       X     X X   X   X            ",
"   . X    X       X   X    X X               ",
"    X XX          X       X X  X             ",
"   .          X  X X X X     XX  .           ",
"     .X        X.X X .   XX X   X            ",
"    X         X .  X. .  X  .XX X            ",
"    XXX XX              X X      .           ",
"             X X      .  X   X.X .           ",
"      .    X   . . .X       . .X .           ",
"          .    XXX  X   X X           .      ",
"         X     X          X  X X      .      ",
"          .     .    X  X X X    . .         ",
"     . .X   X.    .        X X               ",
"     X    XXX  X XXX        ...  .           ",
"   .    XXXX    X X   .  X  X                ",
"      XX   X    X X  . X XX X  XX.           ",
"   .X                .XXX      X             ",
"   .X      X      XX    . .    XXX           ",
"    X        X     X X    .  X     .         ",
"   .    X X     X         .     XX           ",
"    X X    XX   X       XXX  X   XX          ",
"   .  XX X    X  X ..   XX X    X            ",
"       X  XX             X      XXX.         ",
"   . X   X    X    .              X          ",
"   .        X   .          X   X  .          ",
"    X XX X X X  XX X   X  X  XX  .           ",
"   .X X    XXX      XX   X       .           ",
"      .. . ..    . .     .. ...              ",
"                                             ",
"                                             ",
"                                             ",
"                                             ",
"                                             ",
"                                             ",
"                                             "};
