#define timer_0_width 17
#define timer_0_height 17
static unsigned char timer_0_bits[] = {
 0xc0,0x07,0x00,0x30,0x18,0x00,0x08,0x20,0x00,0x04,0x40,0x00,0x02,0x80,0x00,
 0x02,0x80,0x00,0x01,0x00,0x01,0x01,0x00,0x01,0x01,0x00,0x01,0x01,0x00,0x01,
 0x01,0x00,0x01,0x02,0x80,0x00,0x02,0x80,0x00,0x04,0x40,0x00,0x08,0x20,0x00,
 0x30,0x18,0x00,0xc0,0x07,0x00};
