#define timer_5_width 17
#define timer_5_height 17
static unsigned char timer_5_bits[] = {
 0xc0,0x07,0x00,0x30,0x1f,0x00,0x08,0x3f,0x00,0x04,0x7f,0x00,0x02,0xff,0x00,
 0x02,0xff,0x00,0x01,0xff,0x01,0x01,0xff,0x01,0x01,0xff,0x01,0x81,0xff,0x01,
 0xc1,0xff,0x01,0xe2,0xff,0x00,0xf2,0xff,0x00,0xfc,0x7f,0x00,0xf8,0x3f,0x00,
 0xf0,0x1f,0x00,0xc0,0x07,0x00};
