#define dwall_3_2_width 24
#define dwall_3_2_height 24
static char dwall_3_2_bits[] = {
0x40,0x30,0x01,0x40,0x10,0x03,0x40,0x34,0x01,0x40,0x12,0x03,
0x40,0x30,0x01,0x40,0x10,0x55,0x40,0x34,0xff,0x40,0x12,0x00,
0x40,0x30,0x00,0x40,0x10,0x55,0x40,0x34,0xff,0x40,0x12,0x03,
0x40,0x30,0x21,0x40,0x10,0x23,0x40,0x34,0x01,0x40,0x12,0x03,
0x40,0x30,0x01,0x40,0x10,0x03,0x40,0x34,0x01,0x40,0x12,0x03,
0x40,0x30,0xfd,0x40,0x10,0x03,0x40,0x34,0x01,0x40,0x12,0x03};
