#define dun6_width 24
#define dun6_height 24
static char dun6_bits[] = {
0xe0,0xff,0xff,0xd0,0xff,0xff,0xf0,0xff,0xff,0xe8,0xff,0xff,
0xe8,0xff,0xff,0xf4,0xff,0xff,0xe4,0xff,0xff,0xd2,0xff,0xff,
0xe2,0xff,0xff,0xe1,0xff,0xff,0xe1,0xff,0xff,0xd1,0xff,0xff,
0xe2,0xff,0xff,0xe1,0xff,0xff,0xa5,0x7b,0xee,0x13,0x84,0x11,
0x12,0x42,0x00,0x09,0x00,0x48,0x09,0x00,0x00,0x25,0x00,0x00,
0x05,0x02,0x00,0x43,0x90,0x30,0x23,0x4c,0x18,0xde,0xbb,0xe7};
