#define card_5h_width 40
#define card_5h_height 60
static char card_5h_bits[] = {
 0xff,0xff,0xff,0xff,0xff,0x01,0x00,0x00,0x00,0x80,0x01,0x00,0x00,0x00,0x80,
 0xf9,0x00,0x00,0x00,0x80,0x09,0x00,0x00,0x00,0x80,0x09,0x00,0x00,0x00,0x80,
 0x79,0x00,0x00,0x00,0x80,0x81,0x00,0x00,0x00,0x80,0x81,0x00,0x00,0x00,0x80,
 0x89,0x00,0x00,0x00,0x80,0x71,0x00,0x00,0x00,0x80,0x01,0x00,0x00,0x00,0x80,
 0x01,0x00,0x00,0x00,0x80,0x01,0x00,0x00,0x00,0x80,0x01,0x00,0x00,0x00,0x80,
 0x01,0x00,0x00,0x00,0x80,0x01,0xd8,0x00,0x36,0x80,0x01,0xfc,0x01,0x7f,0x80,
 0x01,0xfc,0x01,0x7f,0x80,0x01,0xfc,0x01,0x7f,0x80,0x01,0xf8,0x00,0x3e,0x80,
 0x01,0x70,0x00,0x1c,0x80,0x01,0x20,0x00,0x08,0x80,0x01,0x00,0x00,0x00,0x80,
 0x01,0x00,0x00,0x00,0x80,0x01,0x00,0x00,0x00,0x80,0x01,0x00,0x00,0x00,0x80,
 0x01,0x00,0x6c,0x00,0x80,0x01,0x00,0xfe,0x00,0x80,0x01,0x00,0xfe,0x00,0x80,
 0x01,0x00,0xfe,0x00,0x80,0x01,0x00,0x7c,0x00,0x80,0x01,0x00,0x38,0x00,0x80,
 0x01,0x00,0x10,0x00,0x80,0x01,0x00,0x00,0x00,0x80,0x01,0x00,0x00,0x00,0x80,
 0x01,0x00,0x00,0x00,0x80,0x01,0xd8,0x00,0x36,0x80,0x01,0xfc,0x01,0x7f,0x80,
 0x01,0xfc,0x01,0x7f,0x80,0x01,0xfc,0x01,0x7f,0x80,0x01,0xf8,0x00,0x3e,0x80,
 0x01,0x70,0x00,0x1c,0x80,0x01,0x20,0x00,0x08,0x80,0x01,0x00,0x00,0x00,0x80,
 0x01,0x00,0x00,0x00,0x80,0x01,0x00,0x00,0x00,0x80,0x01,0x00,0x00,0x00,0x80,
 0x01,0x00,0x00,0x00,0x80,0x01,0x00,0x00,0x00,0x9f,0x01,0x00,0x00,0x00,0x81,
 0x01,0x00,0x00,0x00,0x81,0x01,0x00,0x00,0x00,0x8f,0x01,0x00,0x00,0x00,0x90,
 0x01,0x00,0x00,0x00,0x90,0x01,0x00,0x00,0x00,0x91,0x01,0x00,0x00,0x00,0x8e,
 0x01,0x00,0x00,0x00,0x80,0x01,0x00,0x00,0x00,0x80,0xff,0xff,0xff,0xff,0xff};
