#define card_th_width 40
#define card_th_height 60
static char card_th_bits[] = {
 0xff,0xff,0xff,0xff,0xff,0x01,0x00,0x00,0x00,0x80,0x01,0x00,0x00,0x00,0x80,
 0xc9,0x00,0x00,0x00,0x80,0x29,0x01,0x00,0x00,0x80,0x29,0x01,0x00,0x00,0x80,
 0x29,0x01,0x00,0x00,0x80,0x29,0x01,0x00,0x00,0x80,0x29,0x01,0x00,0x00,0x80,
 0x29,0x01,0x00,0x00,0x80,0xc9,0x00,0x00,0x00,0x80,0x01,0x00,0x00,0x00,0x80,
 0x01,0xd8,0x00,0x36,0x80,0x01,0xfc,0x01,0x7f,0x80,0x01,0xfc,0x01,0x7f,0x80,
 0x01,0xfc,0x01,0x7f,0x80,0x01,0xf8,0x00,0x3e,0x80,0x01,0x70,0x6c,0x1c,0x80,
 0x01,0x20,0xfe,0x08,0x80,0x01,0x00,0xfe,0x00,0x80,0x01,0x00,0xfe,0x00,0x80,
 0x01,0x00,0x7c,0x00,0x80,0x01,0xd8,0x38,0x36,0x80,0x01,0xfc,0x11,0x7f,0x80,
 0x01,0xfc,0x01,0x7f,0x80,0x01,0xfc,0x01,0x7f,0x80,0x01,0xf8,0x00,0x3e,0x80,
 0x01,0x70,0x00,0x1c,0x80,0x01,0x20,0x00,0x08,0x80,0x01,0x00,0x00,0x00,0x80,
 0x01,0x00,0x00,0x00,0x80,0x01,0x00,0x00,0x00,0x80,0x01,0xd8,0x00,0x36,0x80,
 0x01,0xfc,0x01,0x7f,0x80,0x01,0xfc,0x01,0x7f,0x80,0x01,0xfc,0x01,0x7f,0x80,
 0x01,0xf8,0x00,0x3e,0x80,0x01,0x70,0x6c,0x1c,0x80,0x01,0x20,0xfe,0x08,0x80,
 0x01,0x00,0xfe,0x00,0x80,0x01,0x00,0xfe,0x00,0x80,0x01,0x00,0x7c,0x00,0x80,
 0x01,0xd8,0x38,0x36,0x80,0x01,0xfc,0x11,0x7f,0x80,0x01,0xfc,0x01,0x7f,0x80,
 0x01,0xfc,0x01,0x7f,0x80,0x01,0xf8,0x00,0x3e,0x80,0x01,0x70,0x00,0x1c,0x80,
 0x01,0x20,0x00,0x08,0x80,0x01,0x00,0x00,0x80,0x8c,0x01,0x00,0x00,0x80,0x92,
 0x01,0x00,0x00,0x80,0x92,0x01,0x00,0x00,0x80,0x92,0x01,0x00,0x00,0x80,0x92,
 0x01,0x00,0x00,0x80,0x92,0x01,0x00,0x00,0x80,0x92,0x01,0x00,0x00,0x80,0x8c,
 0x01,0x00,0x00,0x00,0x80,0x01,0x00,0x00,0x00,0x80,0xff,0xff,0xff,0xff,0xff};
