/* XPM */
static char * floppy_xpm[] = {
/* width height ncolors chars_per_pixel */
"64 38 7 1",
/* colors */
" 	s None	c None",
".	c navy",
"X	c sky blue",
"o	c white",
"O	c gainsboro",
"+	c grey",
"@	c lime green",
/* pixels */
"                                                                ",
"                                                                ",
"                            ..                                  ",
"                           ..X...                               ",
"                          ..XXXXX...                            ",
"                         ..XXXXX...X...                         ",
"                        ..XXXXX...XXXXX...                      ",
"                       ..XXXXX...XXXXXooOO...                   ",
"                      ..XXXXX...XXXXXooOOoOoo...                ",
"                     ..XXXXX...XXXXXooOOoOoooooo...             ",
"                    ..XXXXX...XXXXXooOOoOoooo...ooo...          ",
"                   ..XXXXXXX...XXXooOOoOoooo..X....oo....       ",
"                  ..XXXXXXXXXXX...oOOoOoooo..XXXXXoo..XXX.      ",
"                 ..XXXXX...XXXXXXX...Ooooo..XXXXXoo..XXXXX.     ",
"                ..XXXXX.......XXXXXXX...oooooXXXoo..XXXXX..     ",
"               ..XXXXX...ooo.....XXXXXXX...oooooo..XXXXX...     ",
"              ..XXXXX...ooooooo.....XXXXXXX...oo..XXXXX....     ",
"             ..XXXXX...ooooooooooo.....XXXXXXX...XXXXX....      ",
"            ..XXXXX...oo+o+oooooooooo.....XXXXXXXXXXX....       ",
"           ..XXXXX...oooooo+o+oooooooooo.....XXXXXXX....        ",
"          ..X...X...oooooooooo+o+ooooooooooo..XXXXX....         ",
"         ..X...X...oo+o+ooooooooo+o+ooooooo..XXXXX....          ",
"        ..XXXXX...oooooo+o+ooooooooo+o+ooo..XXXXX....           ",
"       ....XXX...@o@ooooooo+o+ooooooooooo..XXXXX....            ",
"       .........@o@o@o@ooooooo+o+ooooooo..XXXXX....             ",
"         .......o@o@o@o@o@ooooooo+o+ooo..XXXXX....              ",
"            ....@@@o@o@o@o@o@ooooooooo..XXXXX....               ",
"               .@@@@@@o@o@o@o@o@ooooo..XXXXX....                ",
"                  @@@@@@@o@o@o@o@o@o..XXXXX....                 ",
"                     @@@@@@@o@o@o@o..XXXXX....                  ",
"                        @@@@@@@o@o..XXXXX....                   ",
"                           @@@@@@@.XXXXX....                    ",
"                              @@@@....X....                     ",
"                                 @........                      ",
"                                    .....                       ",
"                                       .                        ",
"                                                                ",
"                                                                "};
