/* XPM */
static char * lock_xpm[] = {
/* width height ncolors chars_per_pixel */
"64 38 6 1",
/* colors */
" 	s None	c None",
".	c grey",
"X	c gainsboro",
"o	c slate grey",
"O	c white",
"+	c dark slate grey",
/* pixels */
"                                                   .Xo     Xo   ",
"                                                   .Xo    .Xo   ",
"                                                    Xo   .Oo    ",
"                                                  .Xo... .Xo    ",
"                                                ...XoXXXo.Xo    ",
"                                             ...XXOXoooXXoXo    ",
"                                            .XXX.o.XX...Ooo     ",
"                                 ooooooo  . XXoo   .XXX.Xoo     ",
"                               ooOXXXXXoo.OXoo      ooo.Oo      ",
"                             ooOXXXXXXXXXOXo          ..Xo      ",
".                           ooOXX.oooooo.Xo.o       . XXo       ",
"X.                          oOOX.o      .OoX.o    ..XXoo        ",
"XX.                    oooooooo.        .XoXXo  ..XXXo          ",
"oXX..               o .XXXXXXXX.o       .XXOXoooXXXoo           ",
" ooXX........... o. XXX.oooooo.Xo        oooooXXooo             ",
"   oXX.XXXXXXXXo.OXX.oo    oOXoOXo    ooooXXXooo+               ",
"   .oXoooooooo.OXX.o       oXX.OXOooooXXXooooXXXXo              ",
"  .XX.Xo     o.X.oo        oOXooooXXXooooXXXXooooX+             ",
"  .Oo.Xo     oOo.XXo       .ooXXXooooXXXXooooXXXXooo            ",
"  .XoOXo     oXo .Oo       o..oooXXXXooooXXXXooooXX+            ",
". .XoXXo     oX. .Oo     o o.OXXXooooXXXXooooXXXXXooo           ",
"X..XX.o      oXX.OXooo o XXooX.ooXXXXooooXXXXXooooXXoo          ",
"XXXoXXXo.......OXXo.XXXXX.o.o.OXXooooXXXXXooooXXXXXoooo         ",
".ooooooXXXXXXXXXoooo.oooo  oooXooXXXXXooooXXXXXooooXo.+         ",
"       ooooooooo            .o.XXXooooXXXXXooooXXXX....+        ",
"                            oooOooXXXXXooooXXXX....OOOXo        ",
"                            o.o.XXXooooXXXX....OOXXXXXoXo       ",
"                             ooX.ooXXXX....OOXXXXXooooooo       ",
"                             o.oOXX....OOOOXXXoooooooooXo       ",
"                             oooO..OOOOXXXXoooooooooooo.o       ",
"                              oo.OOXXXXooooo++++ooooo..o        ",
"                              o.OXXoooooo+++XXXOoooo.oo         ",
"                              ooXooooooo+XXOXOoo.oooo           ",
"                               oXooooooooOooo.ooo               ",
"                               oXooooooo.oooo                   ",
"                                o.oooo.oo                       ",
"                                ooooo                           ",
"                                                                "};
